<?xml version="1.0" encoding="UTF-8" standalone="no"?>
<!DOCTYPE svg PUBLIC "-//W3C//DTD SVG 1.1//EN"
 "http://www.w3.org/Graphics/SVG/1.1/DTD/svg11.dtd">
<!-- Generated by graphviz version 2.40.1 (20161225.0304)
 -->
<!-- Title: G Pages: 1 -->
<svg width="468pt" height="401pt"
 viewBox="0.00 0.00 467.67 401.00" xmlns="http://www.w3.org/2000/svg" xmlns:xlink="http://www.w3.org/1999/xlink">
<g id="graph0" class="graph" transform="scale(1 1) rotate(0) translate(25.5125 336.705)">
<title>G</title>
<polygon fill="#dae2ff" stroke="transparent" points="-25.5125,64.2931 -25.5125,-336.705 442.1589,-336.705 442.1589,64.2931 -25.5125,64.2931"/>
<polygon fill="#fbb4ae" stroke="#fbb4ae" points="209.1514,-192.0741 209.5063,-194.8148 209.522,-195.2879 214.0369,-199.4579 222.0834,-205.4632 231.7218,-210.9874 241.4526,-214.8682 260.0691,-219.0416 264.8867,-220.5383 274.3089,-225.1462 280.6703,-228.8074 280.543,-203.444 284.1031,-182.699 286.5737,-184.5473 292.7608,-186.2131 295.7874,-185.4646 301.2441,-181.0013 297.2744,-178.039 291.8958,-176.6316 292.9601,-151.1164 287.5814,-146.9283 282.1359,-141.8292 307.1259,-138.8995 317.2932,-133.8248 307.3852,-128.7309 285.4163,-126.1554 289.0323,-122.3298 293.4411,-118.4713 293.4411,-118.4713 289.0323,-122.3298 285.4163,-126.1554 307.3852,-128.7309 317.2932,-133.8248 307.1259,-138.8995 282.1359,-141.8292 287.5814,-146.9283 292.9601,-151.1164 291.8958,-176.6316 297.2744,-178.039 301.2441,-181.0013 295.7874,-185.4646 292.7608,-186.2131 286.5737,-184.5473 284.1031,-182.699 280.543,-203.444 280.6703,-228.8074 289.3727,-235.333 298.6158,-243.8925 300.8249,-246.3282 308.4193,-252.8821 308.3226,-203.7556 308.3226,-203.7556 308.4193,-252.8821 314.2539,-258.7303 321.879,-266.9142 326.1691,-264.7709 323.0471,-206.386 318.5293,-183.5914 318.5293,-183.5914 323.0471,-206.386 326.1691,-264.7709 369.6582,-246.3405 394.1338,-206.2629 400.744,-202.1485 430.7065,-147.3394 435.2758,-140.2294 435.8527,-132.6469 438.1589,-111.5925 433.0886,-107.2392 390.7623,-68.3038 381.1615,-61.1931 368.0131,-55.3063 362.6661,-46.7621 299.8646,-6.1827 297.0575,-4.1178 290.2466,-11.5428 288.568,-13.257 281.0473,-19.9707 273.0215,-28.2979 269.5134,-31.6358 226.5304,-76.4847 230.1247,-80.2172 243.6479,-97.3485 265.4322,-134.613 264.4856,-135.3 257.9939,-143.0558 229.7386,-171.8436 226.1354,-174.4586 220.9002,-178.9197 209.1514,-192.0741 209.1514,-192.0741"/>
<polygon fill="#fed9a6" stroke="#fed9a6" points="17.3341,-76.2569 17.3742,-75.669 18.3188,-44.9916 19.189,-42.7707 21.7152,-40.1293 80.208,-1.7573 81.4612,-.8764 89.9669,5.5154 90.2378,5.7448 94.6005,7.1197 101.7936,-1.5758 104.3661,-4.4898 174.6024,-11.5 176.9444,-14.3992 165.8045,-17.837 177.1152,-21.9478 178.6774,-21.309 185.0095,-64.0595 184.1921,-18.0449 187.6965,-18.0449 189.0194,-19.5132 189.0194,-19.5132 187.6965,-18.0449 184.1921,-18.0449 185.0095,-64.0595 178.6774,-21.309 177.1152,-21.9478 165.8045,-17.837 176.9444,-14.3992 174.6024,-11.5 104.3661,-4.4898 101.7936,-1.5758 94.6005,7.1197 104.5055,21.9025 153.5188,60.0472 176.0876,58.1549 185.09,58.0462 194.7895,58.6271 203.5424,59.4661 205.968,59.8721 208.0359,60.2931 208.6761,60.0787 224.4642,55.3998 265.1259,44.989 294.306,8.0976 295.1171,4.1183 297.0575,-4.1178 290.2466,-11.5428 288.568,-13.257 281.0473,-19.9707 273.0215,-28.2979 269.5134,-31.6358 226.5304,-76.4847 222.3252,-76.8336 222.5544,-83.8497 226.4431,-128.1156 226.4431,-128.1156 222.5544,-83.8497 222.3252,-76.8336 226.5304,-76.4847 230.1247,-80.2172 243.6479,-97.3485 265.4322,-134.613 264.4856,-135.3 257.9939,-143.0558 229.7386,-171.8436 226.1354,-174.4586 220.9002,-178.9197 209.1514,-192.0741 209.5063,-194.8148 209.522,-195.2879 214.0369,-199.4579 222.0834,-205.4632 231.7218,-210.9874 241.4526,-214.8682 260.0691,-219.0416 264.8867,-220.5383 274.3089,-225.1462 280.6703,-228.8074 289.3727,-235.333 298.6158,-243.8925 300.8249,-246.3282 308.4193,-252.8821 314.2539,-258.7303 321.879,-266.9142 317.9265,-275.9088 300.8394,-318.3408 291.7247,-329.3094 287.3756,-330.2786 246.8769,-331.2075 236.2091,-331.8075 228.8983,-332.705 228.2533,-332.5164 223.4679,-331.2862 222.1066,-330.9841 217.5652,-329.3212 206.5469,-326.1202 202.6815,-325.1458 200.8468,-324.7532 199.995,-324.6031 195.8955,-324.0338 192.6444,-323.704 183.3886,-323.1131 175.7306,-322.9142 165.9618,-323.4004 163.2731,-323.6356 156.6232,-324.721 146.4102,-326.776 129.9525,-330.7005 65.5553,-284.091 63.9443,-284.1158 55.1052,-284.7325 51.7086,-282.9831 27.5462,-271.3672 -12.2227,-210.2465 -21.5125,-196.9904 -17.1617,-184.5954 -14.7661,-176.0546 -4.1732,-132.855 10.1813,-120.434 14.1102,-98.6597 80.2178,-87.852 82.5349,-85.3658 83.7713,-84.8577 87.3854,-81.4247 88.1875,-81.4247 89.8337,-81.8502 92.7653,-81.8502 97.0124,-127.0523 98.4045,-81.9565 102.1278,-84.7831 107.869,-86.3144 104.5169,-108.3715 103.839,-135.1125 109.0521,-135.3824 109.3037,-156.8709 106.8603,-184.2359 112.5563,-185.7282 115.7169,-188.0739 119.0635,-155.862 119.207,-135.367 127.8125,-135.3287 125.5014,-188.8407 126.4429,-189.0843 129.9099,-189.0843 132.3761,-223.5326 136.2382,-189.0288 139.3341,-189.0288 139.3341,-189.0288 136.2382,-189.0288 132.3761,-223.5326 129.9099,-189.0843 126.4429,-189.0843 125.5014,-188.8407 127.8125,-135.3287 119.207,-135.367 119.0635,-155.862 115.7169,-188.0739 112.5563,-185.7282 106.8603,-184.2359 109.3037,-156.8709 109.0521,-135.3824 103.839,-135.1125 104.5169,-108.3715 107.869,-86.3144 111.4829,-85.4228 116.0164,-81.9675 116.3848,-81.4904 112.3129,-78.3802 112.3129,-78.3802 116.3848,-81.4904 116.0164,-81.9675 111.4829,-85.4228 107.869,-86.3144 102.1278,-84.7831 98.4045,-81.9565 97.0124,-127.0523 92.7653,-81.8502 89.8337,-81.8502 88.1875,-81.4247 87.3854,-81.4247 83.7713,-84.8577 82.5349,-85.3658 80.2178,-87.852 14.1102,-98.6597 17.3341,-76.2569 17.3341,-76.2569"/>
<polyline fill="none" stroke="#000000" points="362.6661,-46.7621 368.0131,-55.3063 381.1615,-61.1931 390.7623,-68.3038 433.0886,-107.2392 438.1589,-111.5925 435.8527,-132.6469 435.2758,-140.2294 430.7065,-147.3394 400.744,-202.1485 394.1338,-206.2629 369.6582,-246.3405 326.1691,-264.7709 321.879,-266.9142 314.2539,-258.7303 308.4193,-252.8821 300.8249,-246.3282 298.6158,-243.8925 289.3727,-235.333 280.6703,-228.8074 274.3089,-225.1462 264.8867,-220.5383 260.0691,-219.0416 241.4526,-214.8682 231.7218,-210.9874 222.0834,-205.4632 214.0369,-199.4579 209.522,-195.2879 209.5063,-194.8148 209.1514,-192.0741 220.9002,-178.9197 226.1354,-174.4586 229.7386,-171.8436 257.9939,-143.0558 264.4856,-135.3 265.4322,-134.613 243.6479,-97.3485 230.1247,-80.2172 226.5304,-76.4847 269.5134,-31.6358 273.0215,-28.2979 281.0473,-19.9707 288.568,-13.257 290.2466,-11.5428 297.0575,-4.1178 299.8646,-6.1827 362.6661,-46.7621 "/>
<polyline fill="none" stroke="#000000" points="220.9002,-178.9197 226.1354,-174.4586 229.7386,-171.8436 257.9939,-143.0558 264.4856,-135.3 265.4322,-134.613 243.6479,-97.3485 230.1247,-80.2172 226.5304,-76.4847 269.5134,-31.6358 273.0215,-28.2979 281.0473,-19.9707 288.568,-13.257 290.2466,-11.5428 297.0575,-4.1178 295.1171,4.1183 294.306,8.0976 265.1259,44.989 224.4642,55.3998 208.6761,60.0787 208.0359,60.2931 205.968,59.8721 203.5424,59.4661 194.7895,58.6271 185.09,58.0462 176.0876,58.1549 153.5188,60.0472 104.5055,21.9025 94.6005,7.1197 90.2378,5.7448 89.9669,5.5154 81.4612,-.8764 80.208,-1.7573 21.7152,-40.1293 19.189,-42.7707 18.3188,-44.9916 17.3742,-75.669 17.3341,-76.2569 14.1102,-98.6597 10.1813,-120.434 -4.1732,-132.855 -14.7661,-176.0546 -17.1617,-184.5954 -21.5125,-196.9904 -12.2227,-210.2465 27.5462,-271.3672 51.7086,-282.9831 55.1052,-284.7325 63.9443,-284.1158 65.5553,-284.091 129.9525,-330.7005 146.4102,-326.776 156.6232,-324.721 163.2731,-323.6356 165.9618,-323.4004 175.7306,-322.9142 183.3886,-323.1131 192.6444,-323.704 195.8955,-324.0338 199.995,-324.6031 200.8468,-324.7532 202.6815,-325.1458 206.5469,-326.1202 217.5652,-329.3212 222.1066,-330.9841 223.4679,-331.2862 228.2533,-332.5164 228.8983,-332.705 236.2091,-331.8075 246.8769,-331.2075 287.3756,-330.2786 291.7247,-329.3094 300.8394,-318.3408 317.9265,-275.9088 321.879,-266.9142 314.2539,-258.7303 308.4193,-252.8821 300.8249,-246.3282 298.6158,-243.8925 289.3727,-235.333 280.6703,-228.8074 274.3089,-225.1462 264.8867,-220.5383 260.0691,-219.0416 241.4526,-214.8682 231.7218,-210.9874 222.0834,-205.4632 214.0369,-199.4579 209.522,-195.2879 209.5063,-194.8148 209.1514,-192.0741 220.9002,-178.9197 "/>
<!-- apr&#45;util&#45;&gt;apr -->
<g id="edge1" class="edge">
<title>apr&#45;util&#45;&gt;apr</title>
<path fill="none" stroke="#444444" stroke-opacity="0.333333" d="M319.399,-115.7774C318.9258,-115.3581 318.4502,-114.9368 317.9731,-114.514"/>
<polygon fill="#444444" fill-opacity="0.333333" stroke="#444444" stroke-opacity="0.333333" points="320.0211,-111.6524 310.2153,-107.6404 315.3789,-116.8918 320.0211,-111.6524"/>
</g>
<!-- httpd&#45;&gt;apr&#45;util -->
<g id="edge2" class="edge">
<title>httpd&#45;&gt;apr&#45;util</title>
<path fill="none" stroke="#444444" stroke-opacity="0.333333" d="M247.3911,-134.8661C256.0874,-134.7657 265.585,-134.6561 275.0741,-134.5465"/>
<polygon fill="#444444" fill-opacity="0.333333" stroke="#444444" stroke-opacity="0.333333" points="275.3702,-138.0435 285.3291,-134.4282 275.2893,-131.0439 275.3702,-138.0435"/>
</g>
<!-- httpd&#45;&gt;apr -->
<g id="edge3" class="edge">
<title>httpd&#45;&gt;apr</title>
<path fill="none" stroke="#444444" stroke-opacity="0.333333" d="M241.3965,-117.1947C245.4324,-114.8813 249.5875,-112.4996 253.6872,-110.1497"/>
<polygon fill="#444444" fill-opacity="0.333333" stroke="#444444" stroke-opacity="0.333333" points="255.5701,-113.1046 262.5054,-105.0951 252.089,-107.0316 255.5701,-113.1046"/>
</g>
<!-- httpd&#45;&gt;fedora&#45;logos&#45;httpd -->
<g id="edge4" class="edge">
<title>httpd&#45;&gt;fedora&#45;logos&#45;httpd</title>
<path fill="none" stroke="#444444" stroke-opacity="0.333333" d="M175.3703,-153.3609C167.5053,-157.4855 159.0457,-161.9219 150.8534,-166.2182"/>
<polygon fill="#444444" fill-opacity="0.333333" stroke="#444444" stroke-opacity="0.333333" points="148.9939,-163.2412 141.7634,-170.9852 152.245,-169.4404 148.9939,-163.2412"/>
</g>
<!-- httpd&#45;&gt;httpd&#45;filesystem -->
<g id="edge5" class="edge">
<title>httpd&#45;&gt;httpd&#45;filesystem</title>
<path fill="none" stroke="#444444" stroke-opacity="0.333333" d="M207.8242,-153.3942C205.7486,-172.3062 202.4628,-202.2453 200.0402,-224.3197"/>
<polygon fill="#444444" fill-opacity="0.333333" stroke="#444444" stroke-opacity="0.333333" points="196.5412,-224.1196 198.9293,-234.4418 203.4994,-224.8833 196.5412,-224.1196"/>
</g>
<!-- httpd&#45;&gt;httpd&#45;tools -->
<g id="edge6" class="edge">
<title>httpd&#45;&gt;httpd&#45;tools</title>
<path fill="none" stroke="#444444" stroke-opacity="0.333333" d="M242.3213,-153.5239C245.1955,-155.135 248.1284,-156.779 251.0605,-158.4225"/>
<polygon fill="#444444" fill-opacity="0.333333" stroke="#444444" stroke-opacity="0.333333" points="249.3603,-161.4819 259.7948,-163.3184 252.7831,-155.3757 249.3603,-161.4819"/>
</g>
<!-- httpd&#45;&gt;mailcap -->
<g id="edge7" class="edge">
<title>httpd&#45;&gt;mailcap</title>
<path fill="none" stroke="#444444" stroke-opacity="0.333333" d="M207.7395,-117.2289C205.5753,-98.3411 202.1493,-68.4402 199.6233,-46.3939"/>
<polygon fill="#444444" fill-opacity="0.333333" stroke="#444444" stroke-opacity="0.333333" points="203.0807,-45.8214 198.465,-36.2849 196.1262,-46.6183 203.0807,-45.8214"/>
</g>
<!-- httpd&#45;&gt;mod_http2 -->
<g id="edge8" class="edge">
<title>httpd&#45;&gt;mod_http2</title>
<path fill="none" stroke="#444444" stroke-opacity="0.333333" d="M187.9604,-117.2421C181.2222,-113.1347 173.4666,-108.7437 165.4828,-104.4828"/>
<polygon fill="#444444" fill-opacity="0.333333" stroke="#444444" stroke-opacity="0.333333" points="166.8985,-101.2737 156.4139,-99.7494 163.6595,-107.4793 166.8985,-101.2737"/>
</g>
<!-- httpd&#45;tools&#45;&gt;apr&#45;util -->
<g id="edge9" class="edge">
<title>httpd&#45;tools&#45;&gt;apr&#45;util</title>
<path fill="none" stroke="#444444" stroke-opacity="0.333333" d="M310.3641,-163.1389C311.6277,-161.8769 312.9133,-160.5929 314.2056,-159.3023"/>
<polygon fill="#444444" fill-opacity="0.333333" stroke="#444444" stroke-opacity="0.333333" points="316.9713,-161.4867 321.5735,-151.9436 312.0247,-156.5338 316.9713,-161.4867"/>
</g>
<!-- httpd&#45;tools&#45;&gt;apr -->
<g id="edge10" class="edge">
<title>httpd&#45;tools&#45;&gt;apr</title>
<path fill="none" stroke="#444444" stroke-opacity="0.333333" d="M291.6077,-163.2496C291.2776,-150.2822 290.8271,-132.5854 290.4501,-117.7765"/>
<polygon fill="#444444" fill-opacity="0.333333" stroke="#444444" stroke-opacity="0.333333" points="293.9448,-117.5204 290.1913,-107.6127 286.9471,-117.6986 293.9448,-117.5204"/>
</g>
<!-- mod_http2&#45;&gt;httpd -->
<g id="edge11" class="edge">
<title>mod_http2&#45;&gt;httpd</title>
<path fill="none" stroke="#444444" stroke-opacity="0.333333" d="M129.0896,-99.6369C138.937,-105.6397 150.9575,-112.2478 162.6875,-118.171"/>
<polygon fill="#444444" fill-opacity="0.333333" stroke="#444444" stroke-opacity="0.333333" points="161.4678,-121.4717 171.9853,-122.7497 164.5603,-115.1918 161.4678,-121.4717"/>
</g>
<!-- apr&#45;util -->
<g id="node1" class="node">
<title>apr&#45;util</title>
<text text-anchor="middle" x="339.74" y="-130.1" font-family="monospace" font-size="14.00" fill="#000000">apr&#45;util</text>
</g>
<!-- apr -->
<g id="node2" class="node">
<title>apr</title>
<text text-anchor="middle" x="289.73" y="-85.79" font-family="monospace" font-size="14.00" fill="#000000">apr</text>
</g>
<!-- httpd -->
<g id="node3" class="node">
<title>httpd</title>
<text text-anchor="middle" x="209.81" y="-131.6" font-family="monospace" font-size="14.00" fill="#000000">httpd</text>
</g>
<!-- fedora&#45;logos&#45;httpd -->
<g id="node4" class="node">
<title>fedora&#45;logos&#45;httpd</title>
<text text-anchor="middle" x="107.24" y="-185.39" font-family="monospace" font-size="14.00" fill="#000000">fedora&#45;logos&#45;httpd</text>
</g>
<!-- httpd&#45;filesystem -->
<g id="node5" class="node">
<title>httpd&#45;filesystem</title>
<text text-anchor="middle" x="196.92" y="-249.05" font-family="monospace" font-size="14.00" fill="#000000">httpd&#45;filesystem</text>
</g>
<!-- httpd&#45;tools -->
<g id="node6" class="node">
<title>httpd&#45;tools</title>
<text text-anchor="middle" x="292.07" y="-177.71" font-family="monospace" font-size="14.00" fill="#000000">httpd&#45;tools</text>
</g>
<!-- mailcap -->
<g id="node7" class="node">
<title>mailcap</title>
<text text-anchor="middle" x="196.37" y="-14.3" font-family="monospace" font-size="14.00" fill="#000000">mailcap</text>
</g>
<!-- mod_http2 -->
<g id="node8" class="node">
<title>mod_http2</title>
<text text-anchor="middle" x="107.24" y="-77.879" font-family="monospace" font-size="14.00" fill="#000000">mod_http2</text>
</g>
</g>
</svg>
