<?xml version="1.0" encoding="UTF-8" standalone="no"?>
<!DOCTYPE svg PUBLIC "-//W3C//DTD SVG 1.1//EN"
 "http://www.w3.org/Graphics/SVG/1.1/DTD/svg11.dtd">
<!-- Generated by graphviz version 2.40.1 (20161225.0304)
 -->
<!-- Title: G Pages: 1 -->
<svg width="1717pt" height="1602pt"
 viewBox="0.00 0.00 1716.53 1601.72" xmlns="http://www.w3.org/2000/svg" xmlns:xlink="http://www.w3.org/1999/xlink">
<g id="graph0" class="graph" transform="scale(1 1) rotate(0) translate(101.0197 1458.2911)">
<title>G</title>
<polygon fill="#dae2ff" stroke="transparent" points="-101.0197,143.4309 -101.0197,-1458.2911 1615.5145,-1458.2911 1615.5145,143.4309 -101.0197,143.4309"/>
<polygon fill="#d8d6da" stroke="#d8d6da" points="1117.3484,-306.6096 1114.0812,-303.4232 1113.2554,-206.2939 1107.2866,-208.2361 1103.9021,-209.21 1094.9661,-211.4476 1079.984,-203.4258 1054.5584,-188.3905 1040.2972,-181.8652 1040.2866,-181.8611 1028.6835,-178.151 1016.9811,-176.0187 1008.8912,-175.6524 1006.8196,-175.6996 1004.1758,-175.9411 1002.1129,-175.9893 998.7783,-175.8411 995.7802,-175.9131 991.4025,-175.7202 985.1326,-175.874 983.8484,-175.7313 978.4683,-175.8683 974.5186,-175.701 974.4739,-175.6961 970.1659,-175.5153 962.6566,-175.7153 959.7924,-175.5973 958.794,-175.4887 954.6282,-221.4724 949.7673,-222.94 945.8751,-226.6282 948.8414,-229.3371 948.8414,-229.3371 945.8751,-226.6282 949.7673,-222.94 954.6282,-221.4724 958.794,-175.4887 946.1292,-173.2413 940.5269,-171.8729 940.5639,-176.548 937.5311,-226.6436 937.4687,-226.6635 933.0527,-226.6635 932.0256,-226.3359 926.4007,-226.3359 925.8563,-226.5049 922.4253,-226.5049 922.0873,-226.3986 915.3995,-226.3986 915.6591,-251.2612 911.6961,-251.1403 909.9619,-251.3981 908.6424,-269.7479 903.1887,-273.7251 902.1206,-275.463 901.3276,-276.0944 902.3622,-277.7376 902.3622,-277.7376 901.3276,-276.0944 898.0493,-276.0944 897.8494,-276.1569 892.134,-276.1569 891.631,-275.9951 891.631,-275.9951 892.134,-276.1569 897.8494,-276.1569 898.0493,-276.0944 901.3276,-276.0944 902.1206,-275.463 903.1887,-273.7251 908.6424,-269.7479 909.9619,-251.3981 911.6961,-251.1403 915.6591,-251.2612 915.3995,-226.3986 922.0873,-226.3986 922.4253,-226.5049 925.8563,-226.5049 926.4007,-226.3359 932.0256,-226.3359 933.0527,-226.6635 937.4687,-226.6635 937.5311,-226.6436 940.5639,-176.548 940.5269,-171.8729 934.5735,-169.6154 928.8663,-167.0575 917.5297,-161.1914 907.7111,-154.7876 904.3984,-152.4077 889.0944,-140.3739 854.7512,-115.4586 814.2653,-89.279 783.084,-111.7406 744.6266,-123.8188 739.9002,-123.6636 707.6568,-181.2975 706.1674,-224.6373 707.1725,-282.0298 715.8364,-285.1271 762.4329,-280.4952 762.4329,-280.4952 715.8364,-285.1271 707.1725,-282.0298 706.1674,-224.6373 707.6568,-181.2975 739.9002,-123.6636 649.5435,-90.3344 631.9459,-63.8503 580.519,17.7147 500.5775,40.6041 494.4717,42.4908 493.7165,42.5363 485.766,43.344 483.354,43.6891 471.2702,39.6314 470.8709,-9.9056 466.8247,-109.9388 466.5968,-110.2284 467.7885,-111.7965 472.4808,-114.7328 472.4808,-114.7328 467.7885,-111.7965 466.5968,-110.2284 466.8247,-109.9388 470.8709,-9.9056 471.2702,39.6314 455.954,35.1946 452.2333,34.2036 450.6528,33.8194 383.3666,19.0118 328.9129,-31.2383 317.0677,-71.0651 316.5904,-78.1526 316.6412,-83.1838 313.9309,-157.4226 316.9231,-164.6963 337.1286,-217.2717 339.5965,-221.466 386.0251,-250.8113 396.6785,-272.0419 534.775,-245.0513 538.5025,-241.0748 539.9565,-240.3931 540.2787,-240.0913 541.0886,-239.834 545.4395,-239.834 545.4747,-239.823 550.9827,-239.823 554.9064,-302.1103 557.6093,-239.7171 562.6099,-239.7171 562.6273,-239.7227 568.0375,-239.7227 569.497,-241.6211 574.1985,-244.4511 574.9987,-287.4387 578.7112,-283.7593 582.9385,-278.7729 593.9041,-269.9371 594.2151,-269.7486 598.2248,-239.9203 597.6785,-239.7448 597.6785,-239.7448 598.2248,-239.9203 594.2151,-269.7486 593.9041,-269.9371 582.9385,-278.7729 578.7112,-283.7593 615.7625,-282.5688 620.0981,-286.8916 621.7414,-287.4201 621.5641,-264.5556 626.5967,-264.2492 631.511,-263.0448 639.5648,-259.5308 646.4946,-255.2439 650.6906,-251.9209 652.5076,-250.1559 653.5095,-249.3632 656.2888,-285.351 661.8704,-283.5897 666.4343,-284.9653 670.1535,-260.8783 674.2631,-288.4437 677.8946,-288.4437 678.4741,-288.2597 678.4741,-288.2597 677.8946,-288.4437 674.2631,-288.4437 670.1535,-260.8783 666.4343,-284.9653 661.8704,-283.5897 656.2888,-285.351 653.5095,-249.3632 652.5076,-250.1559 650.6906,-251.9209 646.4946,-255.2439 639.5648,-259.5308 631.511,-263.0448 626.5967,-264.2492 621.5641,-264.5556 621.7414,-287.4201 620.0981,-286.8916 615.7625,-282.5688 578.7112,-283.7593 574.9987,-287.4387 571.9144,-290.9861 604.6823,-291.5126 616.1517,-295.3191 621.7066,-292.0882 621.4708,-356.1187 623.6868,-356.2112 622.6074,-418.8646 616.9694,-418.8646 610.0355,-423.5865 610.0333,-423.5894 610.0985,-423.6721 616.4609,-427.882 616.4609,-427.882 610.0985,-423.6721 610.0333,-423.5894 610.0355,-423.5865 616.9694,-418.8646 622.6074,-418.8646 623.6868,-356.2112 621.4708,-356.1187 621.7066,-292.0882 616.1517,-295.3191 604.6823,-291.5126 571.9144,-290.9861 574.9987,-287.4387 574.1985,-244.4511 569.497,-241.6211 568.0375,-239.7227 562.6273,-239.7227 562.6099,-239.7171 557.6093,-239.7171 554.9064,-302.1103 550.9827,-239.823 545.4747,-239.823 545.4395,-239.834 541.0886,-239.834 540.2787,-240.0913 539.9565,-240.3931 538.5025,-241.0748 534.775,-245.0513 396.6785,-272.0419 415.5837,-311.9132 463.5783,-370.2743 463.5604,-375.5584 461.6775,-447.2628 461.6302,-448.2275 454.475,-548.3643 483.437,-559.6222 498.5283,-564.8966 503.8942,-566.5601 515.6436,-569.9717 518.5049,-570.6895 530.0008,-573.3488 544.4329,-576.4023 591.5717,-584.5024 620.4235,-632.7617 665.1324,-716.6822 684.0316,-750.1168 734.5209,-831.0756 741.7939,-819.4478 746.0581,-697.1239 745.6404,-620.9775 745.6404,-620.9775 746.0581,-697.1239 741.7939,-819.4478 762.3,-788.767 767.8389,-780.7933 768.7026,-688.9032 775.6983,-619.0569 781.1168,-615.6499 781.6723,-614.95 780.5029,-613.376 775.6094,-610.2558 775.6094,-610.2558 780.5029,-613.376 781.6723,-614.95 781.1168,-615.6499 775.6983,-619.0569 768.7026,-688.9032 767.8389,-780.7933 781.5544,-763.2532 792.392,-749.9842 786.6767,-614.95 787.6287,-614.6359 792.6416,-614.6359 792.6416,-614.6359 787.6287,-614.6359 786.6767,-614.95 792.392,-749.9842 797.3375,-744.2109 811.5432,-729.1859 824.3142,-714.0457 875.3611,-649.4114 904.3291,-646.7501 916.8816,-646.1125 922.8121,-646.3005 928.7283,-646.0097 932.5589,-645.9795 933.1776,-646.0255 938.8296,-646.2178 939.9513,-646.2108 942.4923,-646.0923 948.8394,-646.0576 949.4954,-646.108 952.5248,-646.2184 959.9548,-646.1897 961.2498,-646.0798 961.3845,-608.9401 965.138,-568.4503 964.9847,-568.4001 963.6702,-566.7029 959.0565,-563.8863 959.0565,-563.8863 963.6702,-566.7029 964.9847,-568.4001 965.138,-568.4503 961.3845,-608.9401 961.2498,-646.0798 969.4836,-646.0612 974.566,-645.8438 977.1497,-645.9465 982.952,-645.9427 984.5391,-646.0725 989.4499,-646.0772 997.6092,-646.422 997.7653,-646.4222 1002.527,-646.2384 1002.6447,-646.2291 1002.9055,-646.1978 1017.3357,-645.6625 1018.3871,-645.5811 1031.9043,-643.9862 1040.4755,-641.9365 1050.4222,-639.1525 1064.9972,-633.8912 1081.0765,-626.137 1116.6112,-607.6063 1115.9991,-606.7646 1106.2089,-594.6421 1100.3556,-587.8005 1092.8923,-579.596 1092.8923,-579.596 1100.3556,-587.8005 1106.2089,-594.6421 1115.9991,-606.7646 1116.6112,-607.6063 1122.61,-608.7717 1132.7621,-611.0074 1148.4543,-615.276 1197.4171,-631.102 1253.558,-609.5173 1260.6865,-606.6274 1265.2078,-604.7001 1273.6393,-600.9296 1277.2841,-599.2239 1291.1205,-592.4594 1292.9005,-591.5528 1310.8522,-581.663 1325.3069,-572.5005 1331.7872,-568.1217 1308.3763,-512.7755 1279.8188,-437.3685 1266.2766,-398.9275 1254.6209,-380.6259 1257.553,-309.7235 1258.3834,-300.3213 1262.1653,-266.4964 1245.4403,-185.019 1199.8801,-171.2548 1197.0614,-170.6447 1131.6232,-199.2492 1121.5687,-203.2755 1113.2554,-206.2939 1114.0812,-303.4232 1117.3484,-306.6096 1114.6615,-309.2193 1107.9751,-311.5288 1101.8962,-309.4006 1098.858,-306.1615 1095.9871,-306.1615 1095.2053,-306.4296 1093.2684,-306.4296 1092.3096,-307.0702 1089.4591,-311.0802 1089.4591,-311.0802 1092.3096,-307.0702 1017.067,-302.4846 1012.504,-307.1398 1009.8095,-307.2333 1005.6393,-307.2132 1005.0327,-386.9643 1005.6165,-387.7174 1004.7994,-388.7868 999.6487,-392.0757 993.7732,-392.0757 987.1254,-387.6773 987.1036,-387.6504 982.9826,-387.6504 978.0761,-308.3871 974.3621,-311.0834 966.5511,-315.811 966.5511,-315.811 974.3621,-311.0834 978.0761,-308.3871 982.9826,-387.6504 987.1036,-387.6504 987.1254,-387.6773 993.7732,-392.0757 999.6487,-392.0757 1004.7994,-388.7868 1005.6165,-387.7174 1005.0327,-386.9643 999.6116,-383.4844 999.6116,-383.4844 1005.0327,-386.9643 1005.6393,-307.2132 1009.8095,-307.2333 1012.504,-307.1398 1017.067,-302.4846 1092.3096,-307.0702 1093.2684,-306.4296 1095.2053,-306.4296 1095.9871,-306.1615 1098.858,-306.1615 1101.8962,-309.4006 1107.9751,-311.5288 1114.6615,-309.2193 1117.3484,-306.6096 1117.3484,-306.6096"/>
<polygon fill="#fed9a6" stroke="#fed9a6" points="48.4634,-563.9376 32.008,-562.3087 9.4391,-559.5555 -88.1588,-607.1675 -90.9596,-666.5892 -94.4427,-715.5126 -97.0197,-737.3054 -93.5271,-743.3068 20.167,-913.1542 43.6033,-949.2597 50.9132,-940.4391 283.8703,-903.9734 287.4938,-900.1721 289.5445,-899.302 290.3266,-898.6146 290.4953,-898.5615 294.7104,-898.5615 295.0328,-898.6604 299.8238,-898.6604 303.9756,-936.8279 307.2975,-898.6844 311.5667,-898.6844 311.6996,-898.642 314.9095,-898.642 317.8772,-901.5087 323.772,-903.4244 330.026,-901.4221 332.8486,-898.8728 335.1115,-898.8728 335.6631,-898.7005 340.3579,-898.7005 341.2003,-898.4379 346.218,-898.4379 346.6279,-898.5656 351.6571,-898.5656 351.7639,-898.5316 356.4692,-898.5316 357.764,-900.6934 359.8184,-958.8063 360.4977,-958.8331 363.0858,-959.0797 366.6787,-959.2021 368.8892,-959.1429 382.3972,-957.9542 394.2754,-956.1907 399.4118,-942.4336 450.1665,-933.9952 453.4265,-930.3576 455.3712,-929.5146 458.7713,-976.0645 462.5959,-928.6384 467.1749,-928.6384 467.1983,-928.6684 467.1983,-928.6684 467.1749,-928.6384 462.5959,-928.6384 458.7713,-976.0645 455.3712,-929.5146 453.4265,-930.3576 450.1665,-933.9952 399.4118,-942.4336 394.2754,-956.1907 382.3972,-957.9542 368.8892,-959.1429 366.6787,-959.2021 363.0858,-959.0797 360.4977,-958.8331 359.8184,-958.8063 357.764,-900.6934 356.4692,-898.5316 351.7639,-898.5316 351.6571,-898.5656 346.6279,-898.5656 346.218,-898.4379 341.2003,-898.4379 340.3579,-898.7005 335.6631,-898.7005 335.1115,-898.8728 332.8486,-898.8728 330.026,-901.4221 323.772,-903.4244 317.8772,-901.5087 314.9095,-898.642 311.6996,-898.642 311.5667,-898.6844 307.2975,-898.6844 303.9756,-936.8279 299.8238,-898.6604 295.0328,-898.6604 294.7104,-898.5615 290.4953,-898.5615 290.3266,-898.6146 289.5445,-899.302 287.4938,-900.1721 283.8703,-903.9734 50.9132,-940.4391 43.6033,-949.2597 42.6788,-956.3929 147.2188,-1007.1982 153.4143,-1010.0804 169.3008,-1017.1397 176.1584,-1020.0399 196.7408,-1027.4358 197.7236,-1028.4243 199.8146,-1030.4475 200.3343,-1030.9121 209.8274,-1038.7485 279.6243,-1030.4208 347.2351,-1025.5675 352.4156,-1019.5307 353.3609,-1019.5307 353.3609,-1019.5307 352.4156,-1019.5307 347.2351,-1025.5675 279.6243,-1030.4208 209.8274,-1038.7485 200.3343,-1030.9121 199.8146,-1030.4475 197.7236,-1028.4243 196.7408,-1027.4358 176.1584,-1020.0399 169.3008,-1017.1397 153.4143,-1010.0804 147.2188,-1007.1982 42.6788,-956.3929 32.6469,-966.4598 14.3554,-1182.8 4.388,-1248.7783 40.3407,-1290.3914 96.3654,-1312.312 151.6506,-1317.5361 154.5884,-1248.9247 154.5884,-1248.9247 151.6506,-1317.5361 172.0727,-1320.3966 173.5461,-1320.6696 187.5213,-1323.5762 191.5068,-1324.5851 206.0992,-1328.6113 206.0353,-1320.6672 204.5175,-1269.9686 205.0244,-1187.6693 210.8568,-1185.8105 214.2331,-1182.6543 211.3065,-1180.0038 211.3065,-1180.0038 214.2331,-1182.6543 210.8568,-1185.8105 205.0244,-1187.6693 204.5175,-1269.9686 206.0353,-1320.6672 206.0992,-1328.6113 212.0049,-1330.6412 225.5674,-1335.6136 230.1702,-1337.5094 242.2694,-1342.7694 247.5808,-1345.3188 251.6375,-1344.2397 256.1745,-1341.191 345.6817,-1285.8363 388.2946,-1233.3662 426.4935,-1188.51 454.0399,-1182.2264 471.5917,-1174.083 524.4668,-1092.7804 720.3179,-991.2693 725.5083,-962.2776 731.0554,-928.59 739.556,-887.3351 736.3987,-880.3784 734.5209,-831.0756 684.0316,-750.1168 665.1324,-716.6822 620.4235,-632.7617 591.5717,-584.5024 544.4329,-576.4023 541.0693,-667.5239 541.0693,-667.5239 544.4329,-576.4023 530.0008,-573.3488 518.5049,-570.6895 515.6436,-569.9717 503.8942,-566.5601 498.5283,-564.8966 483.437,-559.6222 454.475,-548.3643 427.5569,-561.0806 357.2665,-553.6038 306.0802,-554.8797 295.2153,-554.9081 288.0361,-554.7665 277.3676,-554.3176 272.7679,-554.0215 264.3172,-553.1004 264.6706,-688.996 270.2609,-690.775 273.4688,-693.9063 276.6473,-693.9063 277.079,-694.0464 281.5269,-694.0464 282.3836,-693.7713 287.8459,-693.7713 288.0691,-693.8422 292.1029,-693.8422 293.9828,-696.9861 290.1302,-770.5806 302.9353,-763.7373 351.6243,-740.6395 358.9343,-736.7427 359.5549,-736.3759 371.302,-728.718 380.1934,-722.4089 390.1813,-714.1738 391.8438,-712.6093 401.6996,-723.9373 402.5865,-725.1309 404.6038,-727.4601 411.1898,-811.1926 409.2382,-811.8364 405.5174,-811.8364 405.0257,-811.6769 405.0257,-811.6769 405.5174,-811.8364 409.2382,-811.8364 411.1898,-811.1926 404.6038,-727.4601 402.5865,-725.1309 401.6996,-723.9373 391.8438,-712.6093 390.1813,-714.1738 390.1914,-762.3887 390.1914,-762.3887 390.1813,-714.1738 380.1934,-722.4089 371.302,-728.718 359.5549,-736.3759 358.9343,-736.7427 351.6243,-740.6395 302.9353,-763.7373 290.1302,-770.5806 293.9828,-696.9861 292.1029,-693.8422 288.0691,-693.8422 287.8459,-693.7713 282.3836,-693.7713 281.5269,-694.0464 277.079,-694.0464 276.6473,-693.9063 273.4688,-693.9063 270.2609,-690.775 264.6706,-688.996 264.3172,-553.1004 259.9719,-552.5298 250.5907,-551.0882 244.8319,-550.0751 231.8237,-547.2056 231.0875,-547.0104 160.4373,-558.5894 147.3705,-554.8091 93.9649,-563.0975 96.1023,-622.7111 96.1023,-622.7111 93.9649,-563.0975 93.7967,-563.1158 76.0679,-564.2302 73.3322,-564.3389 70.266,-665.7845 65.9372,-694.6636 60.9833,-697.6979 60.1959,-698.6721 60.6892,-699.3225 66.8805,-703.4563 72.4728,-703.4563 72.4728,-703.4563 66.8805,-703.4563 60.6892,-699.3225 60.1959,-698.6721 60.9833,-697.6979 65.9372,-694.6636 70.266,-665.7845 73.3322,-564.3389 58.8165,-564.2444 48.4634,-563.9376 48.4634,-563.9376"/>
<polygon fill="#bbd7d9" stroke="#bbd7d9" points="1199.0548,138.138 1217.9366,132.7294 1282.9507,115.5393 1318.6738,86.4944 1344.8756,54.2402 1355.3938,14.4697 1364.3207,-16.6428 1358.6202,-34.5319 1339.5187,-104.1791 1245.4403,-185.019 1199.8801,-171.2548 1199.8661,-165.957 1198.5144,-135.4592 1190.1705,-18.0123 1185.4861,-18.0123 1181.8021,49.2572 1178.9464,-14.8344 1182.2786,-18.159 1179.4867,-20.8465 1173.5232,-22.8201 1173.5232,-22.8201 1179.4867,-20.8465 1182.2786,-18.159 1178.9464,-14.8344 1181.8021,49.2572 1185.4861,-18.0123 1190.1705,-18.0123 1198.5144,-135.4592 1199.8661,-165.957 1199.8801,-171.2548 1197.0614,-170.6447 1131.6232,-199.2492 1121.5687,-203.2755 1113.2554,-206.2939 1107.2866,-208.2361 1103.9021,-209.21 1094.9661,-211.4476 1079.984,-203.4258 1054.5584,-188.3905 1040.2972,-181.8652 1040.2866,-181.8611 1028.6835,-178.151 1016.9811,-176.0187 1008.8912,-175.6524 1006.8196,-175.6996 1004.1758,-175.9411 1002.1129,-175.9893 998.7783,-175.8411 995.7802,-175.9131 991.4025,-175.7202 985.1326,-175.874 983.8484,-175.7313 983.8573,-172.5464 983.8573,-172.5464 983.8484,-175.7313 978.4683,-175.8683 974.5186,-175.701 974.4739,-175.6961 970.1659,-175.5153 962.6566,-175.7153 959.7924,-175.5973 958.794,-175.4887 946.1292,-173.2413 940.5269,-171.8729 934.5735,-169.6154 928.8663,-167.0575 917.5297,-161.1914 907.7111,-154.7876 904.3984,-152.4077 889.0944,-140.3739 854.7512,-115.4586 814.2653,-89.279 840.0558,-46.8971 965.6436,30.3104 972.8151,32.8231 976.8712,34.3318 988.3146,39.3432 1001.2357,61.1252 1001.6994,61.6633 1102.4789,129.064 1139.613,130.6641 1141.175,130.7639 1158.0198,132.5452 1163.8994,133.2894 1182.647,136.445 1190.777,138.3194 1194.8564,139.4309 1199.0548,138.138 1202.5718,-16.3006 1200.8872,-17.6402 1197.2479,-17.6402 1197.2479,-17.6402 1200.8872,-17.6402 1202.5718,-16.3006 1199.0548,138.138 1199.0548,138.138"/>
<polygon fill="#fbb4ae" stroke="#fbb4ae" points="1330.295,-1297.837 1330.5786,-1294.0313 1335.8088,-1247.5345 1338.6168,-1226.097 1361.9656,-1201.9242 1362.6664,-1201.59 1362.9238,-1066.2502 1366.3503,-1029.0928 1359.5619,-1024.5509 1359.5619,-1024.5509 1366.3503,-1029.0928 1371.299,-1029.0928 1371.299,-1029.0928 1366.3503,-1029.0928 1362.9238,-1066.2502 1362.6664,-1201.59 1378.6459,-1194.6483 1396.3354,-1188.0959 1446.3698,-1171.7101 1525.6727,-1091.4297 1541.2336,-1051.1311 1542.6267,-1047.738 1540.6763,-1011.075 1540.542,-998.6927 1459.4651,-962.5626 1442.2678,-955.6291 1442.0929,-955.5665 1443.6472,-872.9051 1437.5885,-872.9051 1438.4458,-947.1978 1431.1403,-874.3911 1426.056,-877.558 1420.2983,-877.558 1415.116,-874.3496 1414.0645,-872.9803 1408.9467,-872.9803 1408.5791,-872.8582 1408.5791,-872.8582 1408.9467,-872.9803 1414.0645,-872.9803 1415.116,-874.3496 1420.2983,-877.558 1426.056,-877.558 1431.1403,-874.3911 1432.3463,-872.7886 1432.3463,-872.7886 1431.1403,-874.3911 1438.4458,-947.1978 1437.5885,-872.9051 1443.6472,-872.9051 1442.0929,-955.5665 1442.2678,-955.6291 1459.4651,-962.5626 1540.542,-998.6927 1611.5145,-876.2811 1609.8889,-872.88 1580.5149,-800.7427 1503.5262,-730.6282 1459.7015,-770.9146 1457.6858,-773.0233 1455.0048,-866.226 1470.1014,-871.2299 1470.1014,-871.2299 1455.0048,-866.226 1457.6858,-773.0233 1459.7015,-770.9146 1503.5262,-730.6282 1476.9501,-654.0556 1460.114,-625.9943 1395.9395,-578.6422 1391.9619,-575.9783 1370.9095,-573.875 1354.2588,-571.9634 1353.9984,-607.9215 1358.7,-772.168 1357.8154,-773.7622 1353.075,-773.7622 1351.5011,-707.1382 1346.5659,-773.864 1342.9231,-773.864 1342.0101,-773.5772 1335.4485,-773.5772 1334.7974,-773.7806 1331.4999,-773.7806 1330.9384,-773.9556 1323.9791,-773.9556 1323.8375,-773.9118 1320.2267,-773.9118 1319.7684,-773.3571 1313.5049,-769.389 1308.1064,-769.389 1301.5182,-773.6971 1301.9338,-774.2273 1307.9219,-778.1464 1307.9219,-778.1464 1301.9338,-774.2273 1301.5182,-773.6971 1308.1064,-769.389 1313.5049,-769.389 1319.7684,-773.3571 1320.2267,-773.9118 1323.8375,-773.9118 1323.9791,-773.9556 1330.9384,-773.9556 1331.4999,-773.7806 1334.7974,-773.7806 1335.4485,-773.5772 1342.0101,-773.5772 1342.9231,-773.864 1346.5659,-773.864 1351.5011,-707.1382 1353.075,-773.7622 1357.8154,-773.7622 1358.7,-772.168 1353.9984,-607.9215 1354.2588,-571.9634 1340.526,-569.7745 1331.7872,-568.1217 1325.3069,-572.5005 1310.8522,-581.663 1292.9005,-591.5528 1291.1205,-592.4594 1277.2841,-599.2239 1273.6393,-600.9296 1265.2078,-604.7001 1260.6865,-606.6274 1253.558,-609.5173 1197.4171,-631.102 1148.4543,-615.276 1132.7621,-611.0074 1122.61,-608.7717 1116.6112,-607.6063 1081.0765,-626.137 1064.9972,-633.8912 1050.4222,-639.1525 1040.4755,-641.9365 1031.9043,-643.9862 1018.3871,-645.5811 1017.3357,-645.6625 1002.9055,-646.1978 1002.6447,-646.2291 1002.527,-646.2384 997.7653,-646.4222 997.6092,-646.422 989.4499,-646.0772 984.5391,-646.0725 982.952,-645.9427 977.1497,-645.9465 974.566,-645.8438 969.4836,-646.0612 961.2498,-646.0798 959.9548,-646.1897 952.5248,-646.2184 949.4954,-646.108 948.8394,-646.0576 942.4923,-646.0923 939.9513,-646.2108 938.8296,-646.2178 933.1776,-646.0255 932.5589,-645.9795 928.7283,-646.0097 922.8121,-646.3005 922.8893,-672.4186 926.3002,-722.556 928.4772,-724.1669 930.6948,-724.1669 931.113,-724.0383 936.3986,-724.0383 941.269,-807.8087 942.3538,-859.2606 948.4222,-724.0809 953.723,-724.0809 954.1073,-724.1998 958.389,-724.1998 958.8212,-724.065 964.7185,-724.065 965.524,-723.811 970.339,-723.811 969.0481,-871.032 976.5117,-870.9724 977.0321,-836.5358 977.0321,-836.5358 976.5117,-870.9724 969.0481,-871.032 970.339,-723.811 965.524,-723.811 964.7185,-724.065 958.8212,-724.065 958.389,-724.1998 954.1073,-724.1998 953.723,-724.0809 948.4222,-724.0809 942.3538,-859.2606 941.269,-807.8087 936.3986,-724.0383 931.113,-724.0383 930.6948,-724.1669 928.4772,-724.1669 926.3002,-722.556 922.8893,-672.4186 922.8121,-646.3005 916.8816,-646.1125 904.3291,-646.7501 875.3611,-649.4114 824.3142,-714.0457 811.5432,-729.1859 797.3375,-744.2109 792.392,-749.9842 781.5544,-763.2532 767.8389,-780.7933 762.3,-788.767 741.7939,-819.4478 734.5209,-831.0756 736.3987,-880.3784 739.556,-887.3351 731.0554,-928.59 725.5083,-962.2776 720.3179,-991.2693 741.8401,-1026.634 760.493,-1058.3563 944.2104,-1023.5064 948.8024,-1018.5768 949.4151,-1018.5768 952.0781,-1117.8958 959.3467,-1112.7839 962.2583,-1110.8776 966.6284,-1108.2238 983.4529,-1099.558 991.9301,-1096.0027 994.9167,-1094.8922 995.1785,-1018.7839 995.6214,-1018.204 994.9017,-1017.2609 989.3987,-1013.7285 983.8267,-1013.7285 983.8267,-1013.7285 989.3987,-1013.7285 994.9017,-1017.2609 995.6214,-1018.204 995.1785,-1018.7839 994.9167,-1094.8922 991.9301,-1096.0027 983.4529,-1099.558 966.6284,-1108.2238 962.2583,-1110.8776 959.3467,-1112.7839 952.0781,-1117.8958 949.4151,-1018.5768 948.8024,-1018.5768 944.2104,-1023.5064 760.493,-1058.3563 783.9714,-1099.8521 791.4479,-1106.5166 872.5582,-1177.5176 882.3724,-1207.6454 984.3174,-1306.2697 1002.2003,-1373.691 1064.3799,-1419.7903 1130.6331,-1454.2838 1137.054,-1454.1344 1147.854,-1454.2911 1155.1615,-1451.3961 1171.595,-1445.9576 1167.5415,-1285.3046 1161.6826,-1280.4224 1160.965,-1279.0229 1161.0205,-1278.6954 1160.4204,-1277.8136 1155.0143,-1274.1483 1155.3457,-1217.2994 1147.8973,-1217.8239 1142.3379,-1217.8774 1140.436,-1217.7803 1141.8955,-1162.3262 1139.2056,-1159.105 1135.8788,-1157.7277 1135.4121,-1157.3186 1129.9651,-1157.3186 1129.6919,-1157.2329 1125.7299,-1157.2329 1124.9303,-1157.4843 1118.9861,-1157.4843 1118.7042,-1157.3962 1115.019,-1157.3962 1110.3976,-1185.3522 1109.7301,-1220.6125 1103.2881,-1222.3529 1096.1328,-1224.6787 1096.6968,-1160.4647 1091.3275,-1162.0898 1088.0919,-1202.6827 1088.0326,-1227.7526 1080.1252,-1231.6158 1072.6539,-1235.6753 1074.2495,-1157.4415 1068.2677,-1157.4415 1069.6603,-1237.4633 1056.1624,-1246.2698 1058.3701,-1199.6511 1056.8094,-1156.864 1052.1107,-1156.864 1049.3275,-1117.2958 1049.9996,-1086.275 1034.89,-1087.6438 1026.4468,-1088.0114 1025.1571,-1088.1279 1018.2513,-1089.0773 1018.1895,-1087.8849 1018.1895,-1087.8849 1018.2513,-1089.0773 1025.1571,-1088.1279 1026.4468,-1088.0114 1034.89,-1087.6438 1049.9996,-1086.275 1049.3275,-1117.2958 1052.1107,-1156.864 1056.8094,-1156.864 1058.3701,-1199.6511 1056.1624,-1246.2698 1069.6603,-1237.4633 1068.2677,-1157.4415 1074.2495,-1157.4415 1072.6539,-1235.6753 1080.1252,-1231.6158 1088.0326,-1227.7526 1088.0919,-1202.6827 1091.3275,-1162.0898 1096.6968,-1160.4647 1100.1007,-1157.3901 1096.6945,-1154.1105 1096.6945,-1154.1105 1100.1007,-1157.3901 1096.6968,-1160.4647 1096.1328,-1224.6787 1103.2881,-1222.3529 1109.7301,-1220.6125 1110.3976,-1185.3522 1115.019,-1157.3962 1118.7042,-1157.3962 1118.9861,-1157.4843 1124.9303,-1157.4843 1125.7299,-1157.2329 1129.6919,-1157.2329 1132.7003,-1124.1564 1137.0421,-1154.2482 1141.5862,-1150.7725 1144.9438,-1105.131 1183.2421,-1123.6541 1187.3546,-1125.9761 1188.1603,-1111.552 1194.1827,-1069.3055 1193.2778,-1069.0105 1190.4512,-999.5829 1199.9667,-999.3521 1195.1373,-931.2931 1190.677,-933.9717 1184.3025,-933.9717 1178.4915,-930.3071 1178.04,-929.7561 1173.5436,-929.7561 1172.8571,-929.5434 1168.0291,-929.5434 1167.3076,-929.765 1162.8923,-929.765 1157.3766,-1001.134 1156.511,-929.8251 1151.0488,-929.8251 1150.8219,-929.7532 1145.2062,-929.7532 1147.2971,-1003.3914 1140.7224,-1005.3275 1140.7224,-1005.3275 1147.2971,-1003.3914 1145.2062,-929.7532 1150.8219,-929.7532 1151.0488,-929.8251 1156.511,-929.8251 1157.3766,-1001.134 1162.8923,-929.765 1167.3076,-929.765 1168.0291,-929.5434 1172.8571,-929.5434 1173.5436,-929.7561 1178.04,-929.7561 1178.4915,-930.3071 1184.3025,-933.9717 1190.677,-933.9717 1195.1373,-931.2931 1196.6199,-929.4331 1195.6023,-928.2236 1190.7321,-925.3434 1190.7321,-925.3434 1195.6023,-928.2236 1196.6199,-929.4331 1195.1373,-931.2931 1199.9667,-999.3521 1200.8108,-999.3705 1201.3418,-999.3313 1208.8885,-999.4694 1215.2571,-999.2802 1216.0927,-999.2939 1218.2584,-930.076 1222.8649,-930.076 1228.4059,-999.1501 1228.5553,-999.1448 1228.5553,-999.1448 1228.4059,-999.1501 1222.8649,-930.076 1218.2584,-930.076 1216.0927,-999.2939 1215.2571,-999.2802 1208.8885,-999.4694 1201.3418,-999.3313 1200.8108,-999.3705 1199.9667,-999.3521 1190.4512,-999.5829 1193.2778,-1069.0105 1194.1827,-1069.3055 1188.1603,-1111.552 1187.3546,-1125.9761 1183.2421,-1123.6541 1144.9438,-1105.131 1141.5862,-1150.7725 1157.4417,-1152.7211 1212.4761,-1146.4701 1218.2743,-1151.2521 1221.4288,-1154.072 1229.5483,-1161.9099 1245.7213,-1179.8499 1243.4769,-1115.6078 1245.1888,-1075.395 1262.271,-1074.0911 1305.6066,-1080.1814 1334.7765,-1139.6642 1334.7765,-1139.6642 1305.6066,-1080.1814 1262.271,-1074.0911 1245.1888,-1075.395 1243.4769,-1115.6078 1245.7213,-1179.8499 1229.5483,-1161.9099 1221.4288,-1154.072 1218.2743,-1151.2521 1212.4761,-1146.4701 1157.4417,-1152.7211 1141.5862,-1150.7725 1137.0421,-1154.2482 1132.7003,-1124.1564 1129.6919,-1157.2329 1129.9651,-1157.3186 1135.4121,-1157.3186 1135.8788,-1157.7277 1139.2056,-1159.105 1141.8955,-1162.3262 1140.436,-1217.7803 1142.3379,-1217.8774 1147.8973,-1217.8239 1155.3457,-1217.2994 1155.0143,-1274.1483 1160.4204,-1277.8136 1161.0205,-1278.6954 1160.965,-1279.0229 1161.6826,-1280.4224 1167.5415,-1285.3046 1171.595,-1445.9576 1178.3547,-1443.8687 1322.3398,-1351.347 1330.295,-1297.837 1330.295,-1297.837"/>
<polyline fill="none" stroke="#000000" points="904.3291,-646.7501 916.8816,-646.1125 922.8121,-646.3005 928.7283,-646.0097 932.5589,-645.9795 933.1776,-646.0255 938.8296,-646.2178 939.9513,-646.2108 942.4923,-646.0923 948.8394,-646.0576 949.4954,-646.108 952.5248,-646.2184 959.9548,-646.1897 961.2498,-646.0798 969.4836,-646.0612 974.566,-645.8438 977.1497,-645.9465 982.952,-645.9427 984.5391,-646.0725 989.4499,-646.0772 997.6092,-646.422 997.7653,-646.4222 1002.527,-646.2384 1002.6447,-646.2291 1002.9055,-646.1978 1017.3357,-645.6625 1018.3871,-645.5811 1031.9043,-643.9862 1040.4755,-641.9365 1050.4222,-639.1525 1064.9972,-633.8912 1081.0765,-626.137 1116.6112,-607.6063 1122.61,-608.7717 1132.7621,-611.0074 1148.4543,-615.276 1197.4171,-631.102 1253.558,-609.5173 1260.6865,-606.6274 1265.2078,-604.7001 1273.6393,-600.9296 1277.2841,-599.2239 1291.1205,-592.4594 1292.9005,-591.5528 1310.8522,-581.663 1325.3069,-572.5005 1331.7872,-568.1217 1308.3763,-512.7755 1279.8188,-437.3685 1266.2766,-398.9275 1254.6209,-380.6259 1257.553,-309.7235 1258.3834,-300.3213 1262.1653,-266.4964 1245.4403,-185.019 1199.8801,-171.2548 1197.0614,-170.6447 1131.6232,-199.2492 1121.5687,-203.2755 1113.2554,-206.2939 1107.2866,-208.2361 1103.9021,-209.21 1094.9661,-211.4476 1079.984,-203.4258 1054.5584,-188.3905 1040.2972,-181.8652 1040.2866,-181.8611 1028.6835,-178.151 1016.9811,-176.0187 1008.8912,-175.6524 1006.8196,-175.6996 1004.1758,-175.9411 1002.1129,-175.9893 998.7783,-175.8411 995.7802,-175.9131 991.4025,-175.7202 985.1326,-175.874 983.8484,-175.7313 978.4683,-175.8683 974.5186,-175.701 974.4739,-175.6961 970.1659,-175.5153 962.6566,-175.7153 959.7924,-175.5973 958.794,-175.4887 946.1292,-173.2413 940.5269,-171.8729 934.5735,-169.6154 928.8663,-167.0575 917.5297,-161.1914 907.7111,-154.7876 904.3984,-152.4077 889.0944,-140.3739 854.7512,-115.4586 814.2653,-89.279 783.084,-111.7406 744.6266,-123.8188 739.9002,-123.6636 649.5435,-90.3344 631.9459,-63.8503 580.519,17.7147 500.5775,40.6041 494.4717,42.4908 493.7165,42.5363 485.766,43.344 483.354,43.6891 471.2702,39.6314 455.954,35.1946 452.2333,34.2036 450.6528,33.8194 383.3666,19.0118 328.9129,-31.2383 317.0677,-71.0651 316.5904,-78.1526 316.6412,-83.1838 313.9309,-157.4226 316.9231,-164.6963 337.1286,-217.2717 339.5965,-221.466 386.0251,-250.8113 396.6785,-272.0419 415.5837,-311.9132 463.5783,-370.2743 463.5604,-375.5584 461.6775,-447.2628 461.6302,-448.2275 454.475,-548.3643 483.437,-559.6222 498.5283,-564.8966 503.8942,-566.5601 515.6436,-569.9717 518.5049,-570.6895 530.0008,-573.3488 544.4329,-576.4023 591.5717,-584.5024 620.4235,-632.7617 665.1324,-716.6822 684.0316,-750.1168 734.5209,-831.0756 741.7939,-819.4478 762.3,-788.767 767.8389,-780.7933 781.5544,-763.2532 792.392,-749.9842 797.3375,-744.2109 811.5432,-729.1859 824.3142,-714.0457 875.3611,-649.4114 904.3291,-646.7501 "/>
<polyline fill="none" stroke="#000000" points="518.5049,-570.6895 530.0008,-573.3488 544.4329,-576.4023 591.5717,-584.5024 620.4235,-632.7617 665.1324,-716.6822 684.0316,-750.1168 734.5209,-831.0756 736.3987,-880.3784 739.556,-887.3351 731.0554,-928.59 725.5083,-962.2776 720.3179,-991.2693 524.4668,-1092.7804 471.5917,-1174.083 454.0399,-1182.2264 426.4935,-1188.51 388.2946,-1233.3662 345.6817,-1285.8363 256.1745,-1341.191 251.6375,-1344.2397 247.5808,-1345.3188 242.2694,-1342.7694 230.1702,-1337.5094 225.5674,-1335.6136 212.0049,-1330.6412 206.0992,-1328.6113 191.5068,-1324.5851 187.5213,-1323.5762 173.5461,-1320.6696 172.0727,-1320.3966 151.6506,-1317.5361 96.3654,-1312.312 40.3407,-1290.3914 4.388,-1248.7783 14.3554,-1182.8 32.6469,-966.4598 42.6788,-956.3929 43.6033,-949.2597 20.167,-913.1542 -93.5271,-743.3068 -97.0197,-737.3054 -94.4427,-715.5126 -90.9596,-666.5892 -88.1588,-607.1675 9.4391,-559.5555 32.008,-562.3087 48.4634,-563.9376 58.8165,-564.2444 73.3322,-564.3389 76.0679,-564.2302 93.7967,-563.1158 93.9649,-563.0975 147.3705,-554.8091 160.4373,-558.5894 231.0875,-547.0104 231.8237,-547.2056 244.8319,-550.0751 250.5907,-551.0882 259.9719,-552.5298 264.3172,-553.1004 272.7679,-554.0215 277.3676,-554.3176 288.0361,-554.7665 295.2153,-554.9081 306.0802,-554.8797 357.2665,-553.6038 427.5569,-561.0806 454.475,-548.3643 483.437,-559.6222 498.5283,-564.8966 503.8942,-566.5601 515.6436,-569.9717 518.5049,-570.6895 "/>
<polyline fill="none" stroke="#000000" points="1004.1758,-175.9411 1002.1129,-175.9893 998.7783,-175.8411 995.7802,-175.9131 991.4025,-175.7202 985.1326,-175.874 983.8484,-175.7313 978.4683,-175.8683 974.5186,-175.701 974.4739,-175.6961 970.1659,-175.5153 962.6566,-175.7153 959.7924,-175.5973 958.794,-175.4887 946.1292,-173.2413 940.5269,-171.8729 934.5735,-169.6154 928.8663,-167.0575 917.5297,-161.1914 907.7111,-154.7876 904.3984,-152.4077 889.0944,-140.3739 854.7512,-115.4586 814.2653,-89.279 840.0558,-46.8971 965.6436,30.3104 972.8151,32.8231 976.8712,34.3318 988.3146,39.3432 1001.2357,61.1252 1001.6994,61.6633 1102.4789,129.064 1139.613,130.6641 1141.175,130.7639 1158.0198,132.5452 1163.8994,133.2894 1182.647,136.445 1190.777,138.3194 1194.8564,139.4309 1199.0548,138.138 1217.9366,132.7294 1282.9507,115.5393 1318.6738,86.4944 1344.8756,54.2402 1355.3938,14.4697 1364.3207,-16.6428 1358.6202,-34.5319 1339.5187,-104.1791 1245.4403,-185.019 1199.8801,-171.2548 1197.0614,-170.6447 1131.6232,-199.2492 1121.5687,-203.2755 1113.2554,-206.2939 1107.2866,-208.2361 1103.9021,-209.21 1094.9661,-211.4476 1079.984,-203.4258 1054.5584,-188.3905 1040.2972,-181.8652 1040.2866,-181.8611 1028.6835,-178.151 1016.9811,-176.0187 1008.8912,-175.6524 1006.8196,-175.6996 1004.1758,-175.9411 "/>
<polyline fill="none" stroke="#000000" points="1002.6447,-646.2291 1002.9055,-646.1978 1017.3357,-645.6625 1018.3871,-645.5811 1031.9043,-643.9862 1040.4755,-641.9365 1050.4222,-639.1525 1064.9972,-633.8912 1081.0765,-626.137 1116.6112,-607.6063 1122.61,-608.7717 1132.7621,-611.0074 1148.4543,-615.276 1197.4171,-631.102 1253.558,-609.5173 1260.6865,-606.6274 1265.2078,-604.7001 1273.6393,-600.9296 1277.2841,-599.2239 1291.1205,-592.4594 1292.9005,-591.5528 1310.8522,-581.663 1325.3069,-572.5005 1331.7872,-568.1217 1340.526,-569.7745 1354.2588,-571.9634 1370.9095,-573.875 1391.9619,-575.9783 1395.9395,-578.6422 1460.114,-625.9943 1476.9501,-654.0556 1503.5262,-730.6282 1580.5149,-800.7427 1609.8889,-872.88 1611.5145,-876.2811 1540.542,-998.6927 1540.6763,-1011.075 1542.6267,-1047.738 1541.2336,-1051.1311 1525.6727,-1091.4297 1446.3698,-1171.7101 1396.3354,-1188.0959 1378.6459,-1194.6483 1362.6664,-1201.59 1361.9656,-1201.9242 1338.6168,-1226.097 1335.8088,-1247.5345 1330.5786,-1294.0313 1330.295,-1297.837 1322.3398,-1351.347 1178.3547,-1443.8687 1171.595,-1445.9576 1155.1615,-1451.3961 1147.854,-1454.2911 1137.054,-1454.1344 1130.6331,-1454.2838 1064.3799,-1419.7903 1002.2003,-1373.691 984.3174,-1306.2697 882.3724,-1207.6454 872.5582,-1177.5176 791.4479,-1106.5166 783.9714,-1099.8521 760.493,-1058.3563 741.8401,-1026.634 720.3179,-991.2693 725.5083,-962.2776 731.0554,-928.59 739.556,-887.3351 736.3987,-880.3784 734.5209,-831.0756 741.7939,-819.4478 762.3,-788.767 767.8389,-780.7933 781.5544,-763.2532 792.392,-749.9842 797.3375,-744.2109 811.5432,-729.1859 824.3142,-714.0457 875.3611,-649.4114 904.3291,-646.7501 916.8816,-646.1125 922.8121,-646.3005 928.7283,-646.0097 932.5589,-645.9795 933.1776,-646.0255 938.8296,-646.2178 939.9513,-646.2108 942.4923,-646.0923 948.8394,-646.0576 949.4954,-646.108 952.5248,-646.2184 959.9548,-646.1897 961.2498,-646.0798 969.4836,-646.0612 974.566,-645.8438 977.1497,-645.9465 982.952,-645.9427 984.5391,-646.0725 989.4499,-646.0772 997.6092,-646.422 997.7653,-646.4222 1002.527,-646.2384 1002.6447,-646.2291 "/>
<!-- 389&#45;ds&#45;base&#45;&gt;389&#45;ds&#45;base&#45;libs -->
<g id="edge1" class="edge">
<title>389&#45;ds&#45;base&#45;&gt;389&#45;ds&#45;base&#45;libs</title>
<path fill="none" stroke="#444444" stroke-opacity="0.333333" d="M820.9637,-414.7092C788.4609,-389.0054 729.1649,-342.1131 692.7737,-313.3343"/>
<polygon fill="#444444" fill-opacity="0.333333" stroke="#444444" stroke-opacity="0.333333" points="694.5033,-310.24 684.4886,-306.7823 690.1613,-315.7306 694.5033,-310.24"/>
</g>
<!-- 389&#45;ds&#45;base&#45;&gt;bind&#45;utils -->
<g id="edge2" class="edge">
<title>389&#45;ds&#45;base&#45;&gt;bind&#45;utils</title>
<path fill="none" stroke="#444444" stroke-opacity="0.333333" d="M824.33,-451.1659C767.6556,-503.323 604.417,-653.5508 539.5373,-713.2593"/>
<polygon fill="#444444" fill-opacity="0.333333" stroke="#444444" stroke-opacity="0.333333" points="537.1147,-710.7322 532.1265,-720.0794 541.8549,-715.883 537.1147,-710.7322"/>
</g>
<!-- 389&#45;ds&#45;base&#45;&gt;cyrus&#45;sasl&#45;gssapi -->
<g id="edge3" class="edge">
<title>389&#45;ds&#45;base&#45;&gt;cyrus&#45;sasl&#45;gssapi</title>
<path fill="none" stroke="#444444" stroke-opacity="0.333333" d="M859.1511,-451.2372C878.4798,-474.6392 912.1325,-515.3837 934.1947,-542.0953"/>
<polygon fill="#444444" fill-opacity="0.333333" stroke="#444444" stroke-opacity="0.333333" points="931.574,-544.4185 940.6408,-549.8998 936.9712,-539.9608 931.574,-544.4185"/>
</g>
<!-- 389&#45;ds&#45;base&#45;&gt;cyrus&#45;sasl&#45;md5 -->
<g id="edge4" class="edge">
<title>389&#45;ds&#45;base&#45;&gt;cyrus&#45;sasl&#45;md5</title>
<path fill="none" stroke="#444444" stroke-opacity="0.333333" d="M913.5823,-446.6148C943.3976,-452.4596 978.7307,-459.3861 1011.0044,-465.7128"/>
<polygon fill="#444444" fill-opacity="0.333333" stroke="#444444" stroke-opacity="0.333333" points="1010.426,-469.166 1020.9126,-467.6552 1011.7727,-462.2967 1010.426,-469.166"/>
</g>
<!-- 389&#45;ds&#45;base&#45;&gt;gperftools&#45;libs -->
<g id="edge5" class="edge">
<title>389&#45;ds&#45;base&#45;&gt;gperftools&#45;libs</title>
<path fill="none" stroke="#444444" stroke-opacity="0.333333" d="M818.966,-414.8133C770.6712,-379.859 664.8446,-303.265 610.6155,-264.0157"/>
<polygon fill="#444444" fill-opacity="0.333333" stroke="#444444" stroke-opacity="0.333333" points="612.5247,-261.0771 602.3717,-258.0492 608.4205,-266.7477 612.5247,-261.0771"/>
</g>
<!-- 389&#45;ds&#45;base&#45;&gt;libicu -->
<g id="edge6" class="edge">
<title>389&#45;ds&#45;base&#45;&gt;libicu</title>
<path fill="none" stroke="#444444" stroke-opacity="0.333333" d="M881.879,-414.88C929.0925,-392.2593 1009.8691,-353.558 1060.9864,-329.067"/>
<polygon fill="#444444" fill-opacity="0.333333" stroke="#444444" stroke-opacity="0.333333" points="1062.6651,-332.1437 1070.1711,-324.6664 1059.6405,-325.8309 1062.6651,-332.1437"/>
</g>
<!-- 389&#45;ds&#45;base&#45;&gt;libsemanage&#45;python -->
<g id="edge7" class="edge">
<title>389&#45;ds&#45;base&#45;&gt;libsemanage&#45;python</title>
<path fill="none" stroke="#444444" stroke-opacity="0.333333" d="M853.9234,-414.6618C873.4924,-378.225 917.3729,-296.5206 940.3449,-253.7475"/>
<polygon fill="#444444" fill-opacity="0.333333" stroke="#444444" stroke-opacity="0.333333" points="943.5306,-255.213 945.1787,-244.7471 937.3637,-251.9009 943.5306,-255.213"/>
</g>
<!-- 389&#45;ds&#45;base&#45;&gt;svrcore -->
<g id="edge8" class="edge">
<title>389&#45;ds&#45;base&#45;&gt;svrcore</title>
<path fill="none" stroke="#444444" stroke-opacity="0.333333" d="M774.3085,-430.0331C743.3496,-428.7211 707.3364,-427.1949 677.858,-425.9456"/>
<polygon fill="#444444" fill-opacity="0.333333" stroke="#444444" stroke-opacity="0.333333" points="677.8619,-422.4427 667.7226,-425.516 677.5654,-429.4364 677.8619,-422.4427"/>
</g>
<!-- 389&#45;ds&#45;base&#45;&gt;nss&#45;tools -->
<g id="edge9" class="edge">
<title>389&#45;ds&#45;base&#45;&gt;nss&#45;tools</title>
<path fill="none" stroke="#444444" stroke-opacity="0.333333" d="M836.9321,-451.0724C824.2966,-483.0366 797.9492,-549.6886 783.0818,-587.2991"/>
<polygon fill="#444444" fill-opacity="0.333333" stroke="#444444" stroke-opacity="0.333333" points="779.8104,-586.0543 779.389,-596.6407 786.3202,-588.6277 779.8104,-586.0543"/>
</g>
<!-- 389&#45;ds&#45;base&#45;&gt;openldap&#45;clients -->
<g id="edge10" class="edge">
<title>389&#45;ds&#45;base&#45;&gt;openldap&#45;clients</title>
<path fill="none" stroke="#444444" stroke-opacity="0.333333" d="M846.3189,-414.695C849.6411,-387.5481 855.9036,-336.3742 859.8162,-304.4025"/>
<polygon fill="#444444" fill-opacity="0.333333" stroke="#444444" stroke-opacity="0.333333" points="863.3047,-304.7096 861.0454,-294.3585 856.3565,-303.8592 863.3047,-304.7096"/>
</g>
<!-- 389&#45;ds&#45;base&#45;&gt;perl&#45;Mozilla&#45;LDAP -->
<g id="edge11" class="edge">
<title>389&#45;ds&#45;base&#45;&gt;perl&#45;Mozilla&#45;LDAP</title>
<path fill="none" stroke="#444444" stroke-opacity="0.333333" d="M905.2329,-414.8619C911.9143,-412.8812 918.7568,-410.8528 925.5441,-408.8408"/>
<polygon fill="#444444" fill-opacity="0.333333" stroke="#444444" stroke-opacity="0.333333" points="926.8306,-412.1101 935.4234,-405.9122 924.841,-405.3988 926.8306,-412.1101"/>
</g>
<!-- 389&#45;ds&#45;base&#45;&gt;perl&#45;NetAddr&#45;IP -->
<g id="edge12" class="edge">
<title>389&#45;ds&#45;base&#45;&gt;perl&#45;NetAddr&#45;IP</title>
<path fill="none" stroke="#444444" stroke-opacity="0.333333" d="M854.1051,-414.6539C882.5222,-362.6787 963.7199,-214.1667 997.4388,-152.4943"/>
<polygon fill="#444444" fill-opacity="0.333333" stroke="#444444" stroke-opacity="0.333333" points="1000.7011,-153.8233 1002.4274,-143.37 994.5592,-150.4652 1000.7011,-153.8233"/>
</g>
<!-- 389&#45;ds&#45;base&#45;&gt;policycoreutils&#45;python&#45;utils -->
<g id="edge13" class="edge">
<title>389&#45;ds&#45;base&#45;&gt;policycoreutils&#45;python&#45;utils</title>
<path fill="none" stroke="#444444" stroke-opacity="0.333333" d="M853.7115,-451.1915C879.9043,-500.6901 952.5441,-637.9636 983.6317,-696.7125"/>
<polygon fill="#444444" fill-opacity="0.333333" stroke="#444444" stroke-opacity="0.333333" points="980.6513,-698.5636 988.4221,-705.7654 986.8385,-695.2896 980.6513,-698.5636"/>
</g>
<!-- 389&#45;ds&#45;base&#45;libs&#45;&gt;gperftools&#45;libs -->
<g id="edge14" class="edge">
<title>389&#45;ds&#45;base&#45;libs&#45;&gt;gperftools&#45;libs</title>
<path fill="none" stroke="#444444" stroke-opacity="0.333333" d="M630.1214,-270.4526C625.8901,-268.0035 621.504,-265.4647 617.1492,-262.944"/>
<polygon fill="#444444" fill-opacity="0.333333" stroke="#444444" stroke-opacity="0.333333" points="618.7219,-259.8103 608.3138,-257.8299 615.2151,-265.8686 618.7219,-259.8103"/>
</g>
<!-- 389&#45;ds&#45;base&#45;libs&#45;&gt;svrcore -->
<g id="edge15" class="edge">
<title>389&#45;ds&#45;base&#45;libs&#45;&gt;svrcore</title>
<path fill="none" stroke="#444444" stroke-opacity="0.333333" d="M655.9119,-306.8338C648.8555,-329.5514 636.7051,-368.6689 628.4382,-395.2835"/>
<polygon fill="#444444" fill-opacity="0.333333" stroke="#444444" stroke-opacity="0.333333" points="624.9963,-394.5656 625.3724,-405.1537 631.6813,-396.642 624.9963,-394.5656"/>
</g>
<!-- bind&#45;utils&#45;&gt;bind&#45;libs -->
<g id="edge16" class="edge">
<title>bind&#45;utils&#45;&gt;bind&#45;libs</title>
<path fill="none" stroke="#444444" stroke-opacity="0.333333" d="M509.0454,-756.4192C502.7738,-789.7612 489.4288,-860.7071 481.9756,-900.3305"/>
<polygon fill="#444444" fill-opacity="0.333333" stroke="#444444" stroke-opacity="0.333333" points="478.4932,-899.9114 480.0842,-910.3861 485.3725,-901.2054 478.4932,-899.9114"/>
</g>
<!-- bind&#45;utils&#45;&gt;bind&#45;libs&#45;lite -->
<g id="edge17" class="edge">
<title>bind&#45;utils&#45;&gt;bind&#45;libs&#45;lite</title>
<path fill="none" stroke="#444444" stroke-opacity="0.333333" d="M491.1892,-756.2447C457.2466,-785.0762 390.812,-841.5069 352.5974,-873.9671"/>
<polygon fill="#444444" fill-opacity="0.333333" stroke="#444444" stroke-opacity="0.333333" points="350.2487,-871.3698 344.893,-880.5114 354.7804,-876.705 350.2487,-871.3698"/>
</g>
<!-- bind&#45;utils&#45;&gt;GeoIP -->
<g id="edge18" class="edge">
<title>bind&#45;utils&#45;&gt;GeoIP</title>
<path fill="none" stroke="#444444" stroke-opacity="0.333333" d="M502.9058,-756.2063C477.4543,-804.1795 407.9938,-935.1048 377.6122,-992.3707"/>
<polygon fill="#444444" fill-opacity="0.333333" stroke="#444444" stroke-opacity="0.333333" points="374.3427,-991.0654 372.7478,-1001.5395 380.5263,-994.3461 374.3427,-991.0654"/>
</g>
<!-- bind&#45;utils&#45;&gt;python3&#45;bind -->
<g id="edge19" class="edge">
<title>bind&#45;utils&#45;&gt;python3&#45;bind</title>
<path fill="none" stroke="#444444" stroke-opacity="0.333333" d="M447.6919,-726.6178C418.0578,-721.3383 382.5308,-715.0091 350.6945,-709.3373"/>
<polygon fill="#444444" fill-opacity="0.333333" stroke="#444444" stroke-opacity="0.333333" points="350.9587,-705.8294 340.4998,-707.5211 349.7309,-712.7209 350.9587,-705.8294"/>
</g>
<!-- gperftools&#45;libs&#45;&gt;libunwind -->
<g id="edge20" class="edge">
<title>gperftools&#45;libs&#45;&gt;libunwind</title>
<path fill="none" stroke="#444444" stroke-opacity="0.333333" d="M562.8621,-221.516C545.5541,-199.3605 516.2508,-161.85 496.5334,-136.6103"/>
<polygon fill="#444444" fill-opacity="0.333333" stroke="#444444" stroke-opacity="0.333333" points="499.1597,-134.2868 490.2453,-128.5611 493.6434,-138.5962 499.1597,-134.2868"/>
</g>
<!-- perl&#45;NetAddr&#45;IP&#45;&gt;perl&#45;Socket6 -->
<g id="edge21" class="edge">
<title>perl&#45;NetAddr&#45;IP&#45;&gt;perl&#45;Socket6</title>
<path fill="none" stroke="#444444" stroke-opacity="0.333333" d="M1039.7115,-106.9569C1066.7391,-88.9726 1108.2457,-61.3539 1137.835,-41.6651"/>
<polygon fill="#444444" fill-opacity="0.333333" stroke="#444444" stroke-opacity="0.333333" points="1139.8373,-44.5369 1146.2237,-36.0832 1135.9594,-38.7091 1139.8373,-44.5369"/>
</g>
<!-- policycoreutils&#45;python&#45;utils&#45;&gt;policycoreutils&#45;python3 -->
<g id="edge22" class="edge">
<title>policycoreutils&#45;python&#45;utils&#45;&gt;policycoreutils&#45;python3</title>
<path fill="none" stroke="#444444" stroke-opacity="0.333333" d="M1014.8447,-742.2163C1048.6538,-778.9677 1124.9952,-861.953 1163.7606,-904.092"/>
<polygon fill="#444444" fill-opacity="0.333333" stroke="#444444" stroke-opacity="0.333333" points="1161.1968,-906.4747 1170.543,-911.4646 1166.3485,-901.7355 1161.1968,-906.4747"/>
</g>
<!-- bind&#45;libs&#45;&gt;bind&#45;libs&#45;lite -->
<g id="edge23" class="edge">
<title>bind&#45;libs&#45;&gt;bind&#45;libs&#45;lite</title>
<path fill="none" stroke="#444444" stroke-opacity="0.333333" d="M417.5139,-916.968C417.3563,-916.937 417.1985,-916.906 417.0407,-916.875"/>
<polygon fill="#444444" fill-opacity="0.333333" stroke="#444444" stroke-opacity="0.333333" points="420.3661,-913.9616 409.8789,-915.4678 419.0164,-920.8303 420.3661,-913.9616"/>
</g>
<!-- bind&#45;libs&#45;&gt;GeoIP -->
<g id="edge24" class="edge">
<title>bind&#45;libs&#45;&gt;GeoIP</title>
<path fill="none" stroke="#444444" stroke-opacity="0.333333" d="M454.2163,-946.6102C436.9033,-960.5109 412.7689,-979.8885 393.6822,-995.2133"/>
<polygon fill="#444444" fill-opacity="0.333333" stroke="#444444" stroke-opacity="0.333333" points="391.4523,-992.5151 385.8459,-1001.5051 395.8348,-997.9735 391.4523,-992.5151"/>
</g>
<!-- bind&#45;libs&#45;&gt;bind&#45;license -->
<g id="edge25" class="edge">
<title>bind&#45;libs&#45;&gt;bind&#45;license</title>
<path fill="none" stroke="#444444" stroke-opacity="0.333333" d="M462.8933,-910.5667C448.0466,-891.1294 424.2677,-859.9981 407.3462,-837.8444"/>
<polygon fill="#444444" fill-opacity="0.333333" stroke="#444444" stroke-opacity="0.333333" points="410.0811,-835.659 401.2295,-829.8365 404.5182,-839.908 410.0811,-835.659"/>
</g>
<!-- bind&#45;libs&#45;lite&#45;&gt;GeoIP -->
<g id="edge26" class="edge">
<title>bind&#45;libs&#45;lite&#45;&gt;GeoIP</title>
<path fill="none" stroke="#444444" stroke-opacity="0.333333" d="M329.5756,-916.6853C336.0425,-936.6002 346.4991,-968.8009 354.0071,-991.9219"/>
<polygon fill="#444444" fill-opacity="0.333333" stroke="#444444" stroke-opacity="0.333333" points="350.7066,-993.0905 357.1241,-1001.5205 357.3644,-990.9284 350.7066,-993.0905"/>
</g>
<!-- bind&#45;libs&#45;lite&#45;&gt;bind&#45;license -->
<g id="edge27" class="edge">
<title>bind&#45;libs&#45;lite&#45;&gt;bind&#45;license</title>
<path fill="none" stroke="#444444" stroke-opacity="0.333333" d="M336.8621,-880.518C345.8439,-868.2453 357.885,-851.7924 367.9497,-838.0402"/>
<polygon fill="#444444" fill-opacity="0.333333" stroke="#444444" stroke-opacity="0.333333" points="370.8344,-840.0248 373.9159,-829.888 365.1856,-835.8907 370.8344,-840.0248"/>
</g>
<!-- GeoIP&#45;&gt;GeoIP&#45;GeoLite&#45;data -->
<g id="edge28" class="edge">
<title>GeoIP&#45;&gt;GeoIP&#45;GeoLite&#45;data</title>
<path fill="none" stroke="#444444" stroke-opacity="0.333333" d="M345.5409,-1037.8666C317.4135,-1066.8732 262.0812,-1123.9348 229.8722,-1157.1504"/>
<polygon fill="#444444" fill-opacity="0.333333" stroke="#444444" stroke-opacity="0.333333" points="227.0464,-1155.0369 222.5976,-1164.6524 232.0717,-1159.9099 227.0464,-1155.0369"/>
</g>
<!-- python3&#45;bind&#45;&gt;bind&#45;license -->
<g id="edge29" class="edge">
<title>python3&#45;bind&#45;&gt;bind&#45;license</title>
<path fill="none" stroke="#444444" stroke-opacity="0.333333" d="M283.5537,-712.1257C304.199,-731.9209 337.4293,-763.7829 360.7039,-786.099"/>
<polygon fill="#444444" fill-opacity="0.333333" stroke="#444444" stroke-opacity="0.333333" points="358.5423,-788.8754 368.1827,-793.2699 363.3869,-783.8227 358.5423,-788.8754"/>
</g>
<!-- python3&#45;bind&#45;&gt;python3&#45;ply -->
<g id="edge30" class="edge">
<title>python3&#45;bind&#45;&gt;python3&#45;ply</title>
<path fill="none" stroke="#444444" stroke-opacity="0.333333" d="M188.9438,-695.9309C176.0115,-696.259 162.5394,-696.6008 149.5012,-696.9315"/>
<polygon fill="#444444" fill-opacity="0.333333" stroke="#444444" stroke-opacity="0.333333" points="149.0643,-693.4414 139.1563,-697.194 149.2419,-700.4391 149.0643,-693.4414"/>
</g>
<!-- policycoreutils&#45;python3&#45;&gt;audit&#45;libs&#45;python3 -->
<g id="edge31" class="edge">
<title>policycoreutils&#45;python3&#45;&gt;audit&#45;libs&#45;python3</title>
<path fill="none" stroke="#444444" stroke-opacity="0.333333" d="M1179.5822,-947.9063C1162.7482,-987.661 1122.645,-1082.3679 1102.6911,-1129.4906"/>
<polygon fill="#444444" fill-opacity="0.333333" stroke="#444444" stroke-opacity="0.333333" points="1099.431,-1128.2137 1098.7546,-1138.7869 1105.8769,-1130.9432 1099.431,-1128.2137"/>
</g>
<!-- policycoreutils&#45;python3&#45;&gt;checkpolicy -->
<g id="edge32" class="edge">
<title>policycoreutils&#45;python3&#45;&gt;checkpolicy</title>
<path fill="none" stroke="#444444" stroke-opacity="0.333333" d="M1190.686,-947.9198C1195.0874,-971.6297 1202.8191,-1013.2796 1207.9754,-1041.0558"/>
<polygon fill="#444444" fill-opacity="0.333333" stroke="#444444" stroke-opacity="0.333333" points="1204.5467,-1041.7625 1209.8132,-1050.9557 1211.4291,-1040.4849 1204.5467,-1041.7625"/>
</g>
<!-- policycoreutils&#45;python3&#45;&gt;libcgroup -->
<g id="edge33" class="edge">
<title>policycoreutils&#45;python3&#45;&gt;libcgroup</title>
<path fill="none" stroke="#444444" stroke-opacity="0.333333" d="M1221.885,-947.7191C1251.2017,-963.0102 1293.4083,-985.0246 1325.0847,-1001.5466"/>
<polygon fill="#444444" fill-opacity="0.333333" stroke="#444444" stroke-opacity="0.333333" points="1323.6499,-1004.7456 1334.1349,-1006.267 1326.8871,-998.5391 1323.6499,-1004.7456"/>
</g>
<!-- policycoreutils&#45;python3&#45;&gt;libsemanage&#45;python3 -->
<g id="edge34" class="edge">
<title>policycoreutils&#45;python3&#45;&gt;libsemanage&#45;python3</title>
<path fill="none" stroke="#444444" stroke-opacity="0.333333" d="M1201.6971,-911.497C1223.5244,-883.9298 1265.0906,-831.4331 1290.1097,-799.8348"/>
<polygon fill="#444444" fill-opacity="0.333333" stroke="#444444" stroke-opacity="0.333333" points="1292.931,-801.9099 1296.3946,-791.8972 1287.443,-797.5645 1292.931,-801.9099"/>
</g>
<!-- policycoreutils&#45;python3&#45;&gt;python3&#45;IPy -->
<g id="edge35" class="edge">
<title>policycoreutils&#45;python3&#45;&gt;python3&#45;IPy</title>
<path fill="none" stroke="#444444" stroke-opacity="0.333333" d="M1262.2644,-911.6301C1288.2239,-905.3796 1317.4016,-898.3541 1343.7121,-892.0191"/>
<polygon fill="#444444" fill-opacity="0.333333" stroke="#444444" stroke-opacity="0.333333" points="1344.74,-895.3717 1353.6428,-889.628 1343.1013,-888.5662 1344.74,-895.3717"/>
</g>
<!-- policycoreutils&#45;python3&#45;&gt;setools&#45;python3 -->
<g id="edge36" class="edge">
<title>policycoreutils&#45;python3&#45;&gt;setools&#45;python3</title>
<path fill="none" stroke="#444444" stroke-opacity="0.333333" d="M1146.2052,-947.8069C1114.5506,-961.7698 1070.64,-981.1387 1036.8908,-996.0255"/>
<polygon fill="#444444" fill-opacity="0.333333" stroke="#444444" stroke-opacity="0.333333" points="1035.3968,-992.8591 1027.6599,-1000.0973 1038.2219,-999.2637 1035.3968,-992.8591"/>
</g>
<!-- audit&#45;libs&#45;python3&#45;&gt;audit -->
<g id="edge37" class="edge">
<title>audit&#45;libs&#45;python3&#45;&gt;audit</title>
<path fill="none" stroke="#444444" stroke-opacity="0.333333" d="M1100.1173,-1175.3197C1110.208,-1195.4844 1126.5796,-1228.2007 1138.2113,-1251.4451"/>
<polygon fill="#444444" fill-opacity="0.333333" stroke="#444444" stroke-opacity="0.333333" points="1135.1152,-1253.0792 1142.7203,-1260.4557 1141.3752,-1249.9466 1135.1152,-1253.0792"/>
</g>
<!-- 389&#45;ds&#45;base -->
<g id="node1" class="node">
<title>389&#45;ds&#45;base</title>
<text text-anchor="middle" x="844.08" y="-429.29" font-family="monospace" font-size="14.00" fill="#000000">389&#45;ds&#45;base</text>
</g>
<!-- 389&#45;ds&#45;base&#45;libs -->
<g id="node2" class="node">
<title>389&#45;ds&#45;base&#45;libs</title>
<text text-anchor="middle" x="661.56" y="-284.95" font-family="monospace" font-size="14.00" fill="#000000">389&#45;ds&#45;base&#45;libs</text>
</g>
<!-- bind&#45;utils -->
<g id="node3" class="node">
<title>bind&#45;utils</title>
<text text-anchor="middle" x="512.48" y="-734.46" font-family="monospace" font-size="14.00" fill="#000000">bind&#45;utils</text>
</g>
<!-- cyrus&#45;sasl&#45;gssapi -->
<g id="node4" class="node">
<title>cyrus&#45;sasl&#45;gssapi</title>
<text text-anchor="middle" x="955.83" y="-564.59" font-family="monospace" font-size="14.00" fill="#000000">cyrus&#45;sasl&#45;gssapi</text>
</g>
<!-- cyrus&#45;sasl&#45;md5 -->
<g id="node5" class="node">
<title>cyrus&#45;sasl&#45;md5</title>
<text text-anchor="middle" x="1107.3" y="-480.89" font-family="monospace" font-size="14.00" fill="#000000">cyrus&#45;sasl&#45;md5</text>
</g>
<!-- gperftools&#45;libs -->
<g id="node6" class="node">
<title>gperftools&#45;libs</title>
<text text-anchor="middle" x="577.13" y="-236.08" font-family="monospace" font-size="14.00" fill="#000000">gperftools&#45;libs</text>
</g>
<!-- libicu -->
<g id="node7" class="node">
<title>libicu</title>
<text text-anchor="middle" x="1107.9" y="-302.89" font-family="monospace" font-size="14.00" fill="#000000">libicu</text>
</g>
<!-- libsemanage&#45;python -->
<g id="node8" class="node">
<title>libsemanage&#45;python</title>
<text text-anchor="middle" x="955" y="-222.76" font-family="monospace" font-size="14.00" fill="#000000">libsemanage&#45;python</text>
</g>
<!-- svrcore -->
<g id="node9" class="node">
<title>svrcore</title>
<text text-anchor="middle" x="619.68" y="-419.78" font-family="monospace" font-size="14.00" fill="#000000">svrcore</text>
</g>
<!-- nss&#45;tools -->
<g id="node10" class="node">
<title>nss&#45;tools</title>
<text text-anchor="middle" x="772.27" y="-610.95" font-family="monospace" font-size="14.00" fill="#000000">nss&#45;tools</text>
</g>
<!-- openldap&#45;clients -->
<g id="node11" class="node">
<title>openldap&#45;clients</title>
<text text-anchor="middle" x="863.27" y="-272.48" font-family="monospace" font-size="14.00" fill="#000000">openldap&#45;clients</text>
</g>
<!-- perl&#45;Mozilla&#45;LDAP -->
<g id="node12" class="node">
<title>perl&#45;Mozilla&#45;LDAP</title>
<text text-anchor="middle" x="996.59" y="-384.08" font-family="monospace" font-size="14.00" fill="#000000">perl&#45;Mozilla&#45;LDAP</text>
</g>
<!-- perl&#45;NetAddr&#45;IP -->
<g id="node13" class="node">
<title>perl&#45;NetAddr&#45;IP</title>
<text text-anchor="middle" x="1012.4" y="-121.43" font-family="monospace" font-size="14.00" fill="#000000">perl&#45;NetAddr&#45;IP</text>
</g>
<!-- policycoreutils&#45;python&#45;utils -->
<g id="node14" class="node">
<title>policycoreutils&#45;python&#45;utils</title>
<text text-anchor="middle" x="998.05" y="-720.26" font-family="monospace" font-size="14.00" fill="#000000">policycoreutils&#45;python&#45;utils</text>
</g>
<!-- bind&#45;libs -->
<g id="node15" class="node">
<title>bind&#45;libs</title>
<text text-anchor="middle" x="476.66" y="-924.89" font-family="monospace" font-size="14.00" fill="#000000">bind&#45;libs</text>
</g>
<!-- bind&#45;libs&#45;lite -->
<g id="node16" class="node">
<title>bind&#45;libs&#45;lite</title>
<text text-anchor="middle" x="323.68" y="-894.83" font-family="monospace" font-size="14.00" fill="#000000">bind&#45;libs&#45;lite</text>
</g>
<!-- GeoIP -->
<g id="node17" class="node">
<title>GeoIP</title>
<text text-anchor="middle" x="363.06" y="-1016.1" font-family="monospace" font-size="14.00" fill="#000000">GeoIP</text>
</g>
<!-- python3&#45;bind -->
<g id="node18" class="node">
<title>python3&#45;bind</title>
<text text-anchor="middle" x="264.66" y="-690.31" font-family="monospace" font-size="14.00" fill="#000000">python3&#45;bind</text>
</g>
<!-- libunwind -->
<g id="node19" class="node">
<title>libunwind</title>
<text text-anchor="middle" x="476.05" y="-106.69" font-family="monospace" font-size="14.00" fill="#000000">libunwind</text>
</g>
<!-- perl&#45;Socket6 -->
<g id="node20" class="node">
<title>perl&#45;Socket6</title>
<text text-anchor="middle" x="1173.4" y="-14.3" font-family="monospace" font-size="14.00" fill="#000000">perl&#45;Socket6</text>
</g>
<!-- policycoreutils&#45;python3 -->
<g id="node21" class="node">
<title>policycoreutils&#45;python3</title>
<text text-anchor="middle" x="1187.3" y="-925.98" font-family="monospace" font-size="14.00" fill="#000000">policycoreutils&#45;python3</text>
</g>
<!-- bind&#45;license -->
<g id="node22" class="node">
<title>bind&#45;license</title>
<text text-anchor="middle" x="387.3" y="-807.9" font-family="monospace" font-size="14.00" fill="#000000">bind&#45;license</text>
</g>
<!-- GeoIP&#45;GeoLite&#45;data -->
<g id="node23" class="node">
<title>GeoIP&#45;GeoLite&#45;data</title>
<text text-anchor="middle" x="205" y="-1179.1" font-family="monospace" font-size="14.00" fill="#000000">GeoIP&#45;GeoLite&#45;data</text>
</g>
<!-- python3&#45;ply -->
<g id="node24" class="node">
<title>python3&#45;ply</title>
<text text-anchor="middle" x="69.544" y="-695.26" font-family="monospace" font-size="14.00" fill="#000000">python3&#45;ply</text>
</g>
<!-- audit&#45;libs&#45;python3 -->
<g id="node25" class="node">
<title>audit&#45;libs&#45;python3</title>
<text text-anchor="middle" x="1091" y="-1153.4" font-family="monospace" font-size="14.00" fill="#000000">audit&#45;libs&#45;python3</text>
</g>
<!-- checkpolicy -->
<g id="node26" class="node">
<title>checkpolicy</title>
<text text-anchor="middle" x="1213.2" y="-1065.5" font-family="monospace" font-size="14.00" fill="#000000">checkpolicy</text>
</g>
<!-- libcgroup -->
<g id="node27" class="node">
<title>libcgroup</title>
<text text-anchor="middle" x="1368.9" y="-1020.7" font-family="monospace" font-size="14.00" fill="#000000">libcgroup</text>
</g>
<!-- libsemanage&#45;python3 -->
<g id="node28" class="node">
<title>libsemanage&#45;python3</title>
<text text-anchor="middle" x="1310.7" y="-770.13" font-family="monospace" font-size="14.00" fill="#000000">libsemanage&#45;python3</text>
</g>
<!-- python3&#45;IPy -->
<g id="node29" class="node">
<title>python3&#45;IPy</title>
<text text-anchor="middle" x="1423.2" y="-869.18" font-family="monospace" font-size="14.00" fill="#000000">python3&#45;IPy</text>
</g>
<!-- setools&#45;python3 -->
<g id="node30" class="node">
<title>setools&#45;python3</title>
<text text-anchor="middle" x="986.62" y="-1014.5" font-family="monospace" font-size="14.00" fill="#000000">setools&#45;python3</text>
</g>
<!-- audit -->
<g id="node31" class="node">
<title>audit</title>
<text text-anchor="middle" x="1151.9" y="-1275.1" font-family="monospace" font-size="14.00" fill="#000000">audit</text>
</g>
</g>
</svg>
