<?xml version="1.0" encoding="UTF-8" standalone="no"?>
<!DOCTYPE svg PUBLIC "-//W3C//DTD SVG 1.1//EN"
 "http://www.w3.org/Graphics/SVG/1.1/DTD/svg11.dtd">
<!-- Generated by graphviz version 2.40.1 (20161225.0304)
 -->
<!-- Title: G Pages: 1 -->
<svg width="2221pt" height="1789pt"
 viewBox="0.00 0.00 2220.88 1788.77" xmlns="http://www.w3.org/2000/svg" xmlns:xlink="http://www.w3.org/1999/xlink">
<g id="graph0" class="graph" transform="scale(1 1) rotate(0) translate(90.9211 1658.3265)">
<title>G</title>
<polygon fill="#dae2ff" stroke="transparent" points="-90.9211,130.4408 -90.9211,-1658.3265 2129.9636,-1658.3265 2129.9636,130.4408 -90.9211,130.4408"/>
<polygon fill="#fed9a6" stroke="#fed9a6" points="1865.9973,-546.7011 1863.7867,-623.3313 1865.4774,-690.1691 1858.2402,-690.1691 1858.0778,-690.2244 1862.6049,-735.1981 1862.7504,-746.0061 1873.6648,-742.981 1892.8523,-739.1149 1899.3076,-737.3102 1901.5425,-791.7401 1898.543,-791.7401 1894.6199,-795.4873 1846.9429,-806.2921 1848.9063,-818.9635 1848.9063,-818.9635 1846.9429,-806.2921 1894.6199,-795.4873 1895.8463,-870.4523 1860.4662,-853.9099 1834.8154,-865.8641 1836.7114,-915.9023 1830.2145,-919.8146 1830.6012,-867.4881 1823.2976,-869.725 1807.7323,-872.0445 1808.0167,-892.283 1804.5188,-915.9959 1799.2498,-915.9959 1792.7975,-920.597 1791.5642,-872.5254 1788.0441,-872.5001 1783.6875,-872.1211 1779.1917,-920.2097 1773.7911,-920.2097 1772.7302,-920.5791 1772.5334,-920.5791 1767.8463,-916.807 1724.8275,-910.4052 1721.2565,-915.1687 1713.3806,-916.1341 1703.8704,-916.5364 1700.8121,-872.603 1694.8176,-869.4595 1693.6373,-868.0468 1688.896,-868.0468 1688.0002,-867.7285 1681.7446,-867.7285 1681.6105,-867.6824 1685.2808,-804.447 1672.97,-787.6489 1676.0811,-864.8486 1669.7205,-862.6456 1662.7871,-865.1445 1660.2747,-867.7473 1657.04,-867.7473 1656.4862,-867.9384 1651.4742,-867.9384 1650.5822,-867.6234 1650.1512,-788.7526 1643.5837,-865.7744 1638.2601,-862.8293 1600.5944,-867.2201 1592.2303,-860.3757 1589.6968,-857.9341 1579.7711,-846.7872 1579.7711,-846.7872 1589.6968,-857.9341 1592.2303,-860.3757 1600.5944,-867.2201 1638.2601,-862.8293 1643.5837,-865.7744 1650.1512,-788.7526 1650.5822,-867.6234 1651.4742,-867.9384 1647.0002,-910.5053 1643.6024,-869.4717 1638.1669,-872.5198 1601.5685,-868.2535 1603.8678,-871.4534 1603.8678,-871.4534 1601.5685,-868.2535 1638.1669,-872.5198 1643.6024,-869.4717 1647.0002,-910.5053 1651.4742,-867.9384 1656.4862,-867.9384 1657.04,-867.7473 1660.2747,-867.7473 1662.7871,-865.1445 1669.7205,-862.6456 1676.0811,-864.8486 1672.97,-787.6489 1685.2808,-804.447 1681.6105,-867.6824 1681.7446,-867.7285 1688.0002,-867.7285 1688.896,-868.0468 1693.6373,-868.0468 1694.8176,-869.4595 1700.8121,-872.603 1703.8704,-916.5364 1713.3806,-916.1341 1721.2565,-915.1687 1724.8275,-910.4052 1767.8463,-916.807 1772.5334,-920.5791 1772.7302,-920.5791 1773.7911,-920.2097 1779.1917,-920.2097 1783.6875,-872.1211 1788.0441,-872.5001 1791.5642,-872.5254 1792.7975,-920.597 1799.2498,-915.9959 1804.5188,-915.9959 1808.0167,-892.283 1807.7323,-872.0445 1823.2976,-869.725 1830.6012,-867.4881 1830.2145,-919.8146 1836.7114,-915.9023 1834.8154,-865.8641 1860.4662,-853.9099 1895.8463,-870.4523 1894.6199,-795.4873 1898.543,-791.7401 1901.5425,-791.7401 1899.3076,-737.3102 1908.8765,-733.8837 1913.7025,-731.7849 1920.0422,-728.5348 1920.0422,-728.5348 1913.7025,-731.7849 1908.8765,-733.8837 1899.3076,-737.3102 1892.8523,-739.1149 1873.6648,-742.981 1862.7504,-746.0061 1862.6049,-735.1981 1858.0778,-690.2244 1858.2402,-690.1691 1865.4774,-690.1691 1863.7867,-623.3313 1865.9973,-546.7011 1875.106,-548.5403 1930.5354,-558.3811 2016.9937,-636.4554 1987.9767,-668.9028 1986.6747,-670.4811 1983.6548,-740.8969 1983.6548,-740.8969 1986.6747,-670.4811 1987.9767,-668.9028 2016.9937,-636.4554 2017.7863,-636.6146 2121.7588,-729.1785 2122.8052,-791.93 2125.9636,-829.6698 2095.1016,-908.0369 2041.2866,-959.6445 2036.4287,-1041.5181 2036.2429,-1047.5339 2005.314,-1113.1361 1895.3101,-1145.4419 1870.3571,-1146.943 1866.6876,-1147.2467 1867.655,-1000.3796 1861.4327,-1000.3796 1860.7268,-1000.1284 1855.1691,-1000.1284 1855.3054,-958.5208 1849.5896,-959.6738 1840.5593,-960.5865 1843.269,-997.6983 1845.9875,-1000.4285 1843.4983,-1002.8609 1843.4983,-1002.8609 1845.9875,-1000.4285 1843.269,-997.6983 1840.5593,-960.5865 1849.5896,-959.6738 1855.3054,-958.5208 1855.1691,-1000.1284 1860.7268,-1000.1284 1861.4327,-1000.3796 1867.655,-1000.3796 1866.6876,-1147.2467 1861.5658,-1147.7866 1858.3875,-1148.2661 1852.9221,-1149.2161 1784.502,-1195.3262 1742.3094,-1203.5386 1728.9919,-1206.7638 1692.5413,-1237.8221 1607.0283,-1256.1863 1604.9878,-1256.7325 1596.2932,-1112.9689 1599.0989,-1109.7578 1596.9486,-1107.4226 1589.9906,-1104.8264 1589.9906,-1104.8264 1596.9486,-1107.4226 1599.0989,-1109.7578 1596.2932,-1112.9689 1604.9878,-1256.7325 1590.3311,-1261.0514 1584.9965,-1262.765 1542.7195,-1294.9718 1509.2307,-1294.9905 1492.1067,-1289.9762 1488.9852,-1289.1379 1465.3784,-1283.9337 1456.6921,-1282.6538 1444.2688,-1281.1244 1431.6,-1280.1804 1424.2643,-1279.9901 1423.618,-1145.0662 1343.1272,-1163.255 1347.7301,-1156.9641 1348.6672,-1155.7963 1361.0026,-1141.7706 1361.1046,-1141.667 1361.1046,-1141.667 1361.0026,-1141.7706 1348.6672,-1155.7963 1347.7301,-1156.9641 1343.1272,-1163.255 1423.618,-1145.0662 1424.2643,-1279.9901 1406.0186,-1279.9592 1335.7469,-1263.0067 1327.42,-1259.1046 1304.9122,-1238.8313 1295.9785,-1223.8658 1228.3378,-1172.5741 1192.7136,-1125.8701 1193.702,-1124.4307 1228.1884,-1076.5131 1229.4163,-1074.6456 1292.5031,-969.15 1304.0049,-953.1686 1333.288,-957.4808 1338.1173,-960.0447 1378.24,-946.1209 1426.162,-925.7837 1434.2064,-923.4526 1441.4291,-922.3546 1446.8896,-922.2795 1450.2046,-921.7828 1453.6222,-921.748 1455.0354,-921.9294 1461.2103,-921.8878 1463.5784,-922.201 1468.4344,-922.1855 1468.9523,-922.2551 1473.7943,-922.2566 1475.6891,-922.0026 1482.1101,-922.0271 1487.7103,-921.3015 1495.923,-919.1384 1500.0704,-917.5022 1517.2301,-908.4088 1517.6771,-905.9236 1518.0391,-900.4311 1522.5874,-875.6132 1528.1209,-856.7047 1563.6732,-834.9682 1568.6046,-831.5992 1571.3925,-824.0217 1631.9315,-787.6022 1650.6943,-775.1425 1655.1044,-771.7058 1660.4927,-767.1825 1669.5958,-742.83 1670.6576,-740.622 1665.6166,-712.6716 1654.8723,-665.8168 1621.7382,-544.9935 1646.6466,-517.4176 1762.6931,-533.9977 1778.1899,-535.8773 1779.6639,-536.024 1801.9481,-536.7985 1822.2496,-536.1846 1824.4121,-536.7531 1824.6715,-536.8153 1827.6875,-537.4702 1838.1979,-539.2781 1844.3965,-541.2828 1865.9973,-546.7011 1865.9973,-546.7011"/>
<polygon fill="#d3ded1" stroke="#d3ded1" points="1104.6448,-1115.2701 1094.6818,-1115.7292 1051.0278,-1119.7988 940.0775,-1100.5383 951.0396,-983.4533 951.2238,-980.4315 953.6266,-955.0298 954.0858,-947.5391 1023.6901,-859.8716 1069.5806,-847.7888 1092.2529,-812.6653 1127.2286,-752.1934 1171.8186,-746.9283 1177.4211,-746.4886 1180.5552,-746.3665 1183.1649,-746.3677 1188.7593,-746.5916 1196.2386,-746.2759 1206.9042,-746.6732 1207.6897,-746.67 1215.6133,-746.3118 1218.5073,-746.296 1221.2032,-746.4944 1223.5378,-746.5703 1227.0953,-746.5403 1227.9948,-746.496 1230.0596,-746.4755 1234.5901,-754.3667 1235.9948,-834.0884 1272.3982,-826.6452 1265.3053,-805.7426 1302.8853,-803.4437 1307.0199,-861.9192 1309.9955,-801.8921 1316.0601,-804.1158 1322.7194,-801.6055 1324.9338,-799.1074 1329.4636,-803.1531 1329.4636,-803.1531 1324.9338,-799.1074 1322.7194,-801.6055 1316.0601,-804.1158 1309.9955,-801.8921 1307.0199,-861.9192 1302.8853,-803.4437 1265.3053,-805.7426 1272.3982,-826.6452 1235.9948,-834.0884 1234.5901,-754.3667 1230.0596,-746.4755 1232.4063,-745.1901 1239.0654,-741.8823 1246.6527,-738.5016 1255.3356,-735.08 1301.2582,-719.377 1308.4122,-716.5574 1317.9657,-687.7218 1322.8702,-668.4869 1332.0129,-640.7484 1344.1876,-610.1528 1386.6295,-597.4184 1394.3337,-594.8177 1401.5891,-591.8188 1421.5853,-582.7852 1437.9233,-573.5718 1462.198,-558.9894 1474.7198,-560.298 1540.9943,-568.7054 1525.4808,-610.2665 1528.194,-699.7038 1528.194,-699.7038 1525.4808,-610.2665 1540.9943,-568.7054 1541.2488,-568.6534 1558.1973,-564.4516 1556.9286,-708.1519 1552.4365,-739.602 1546.9943,-737.6462 1546.9943,-737.6462 1552.4365,-739.602 1555.0647,-742.7594 1552.4695,-745.9295 1546.329,-748.1772 1540.217,-745.968 1535.5264,-786.6816 1547.2158,-799.3389 1548.0375,-800.37 1524.9436,-800.37 1524.9436,-800.37 1548.0375,-800.37 1547.2158,-799.3389 1535.5264,-786.6816 1540.217,-745.968 1546.329,-748.1772 1552.4695,-745.9295 1555.0647,-742.7594 1552.4365,-739.602 1556.9286,-708.1519 1558.1973,-564.4516 1578.1853,-558.6242 1621.7382,-544.9935 1654.8723,-665.8168 1665.6166,-712.6716 1670.6576,-740.622 1669.5958,-742.83 1660.4927,-767.1825 1655.1044,-771.7058 1650.6943,-775.1425 1631.9315,-787.6022 1571.3925,-824.0217 1568.6046,-831.5992 1563.6732,-834.9682 1528.1209,-856.7047 1522.5874,-875.6132 1518.0391,-900.4311 1517.6771,-905.9236 1517.2301,-908.4088 1500.0704,-917.5022 1495.923,-919.1384 1487.7103,-921.3015 1482.1101,-922.0271 1475.6891,-922.0026 1473.7943,-922.2566 1468.9523,-922.2551 1468.4344,-922.1855 1463.5784,-922.201 1461.2103,-921.8878 1455.0354,-921.9294 1453.6222,-921.748 1450.2046,-921.7828 1446.8896,-922.2795 1441.4291,-922.3546 1434.2064,-923.4526 1426.162,-925.7837 1378.24,-946.1209 1338.1173,-960.0447 1333.288,-957.4808 1304.0049,-953.1686 1292.5031,-969.15 1229.4163,-1074.6456 1228.1884,-1076.5131 1193.702,-1124.4307 1192.7136,-1125.8701 1177.7559,-1122.3187 1165.3408,-1119.6642 1149.7794,-1117.074 1147.0077,-1116.7441 1139.3419,-1116.0121 1118.0841,-1114.9836 1117.7562,-1114.9756 1104.6448,-1115.2701 1104.6448,-1115.2701"/>
<polygon fill="#fbb4ae" stroke="#fbb4ae" points="631.1805,-1278.844 619.1741,-1282.1122 538.2241,-1306.1138 535.2328,-1299.0083 555.2578,-1141.7145 556.5538,-1117.4486 556.4818,-1114.1 563.4385,-1059.4557 522.5314,-1009.2758 625.0447,-997.8309 630.1265,-993.6492 631.2895,-993.6492 632.4947,-1061.4572 637.3452,-1061.3829 642.9946,-1061.6096 643.5579,-1061.6635 644.4071,-1061.6979 650.4531,-1061.6097 651.0281,-993.9655 651.4295,-993.8214 656.4269,-993.8214 661.725,-1039.6219 664.206,-998.2228 670.7535,-998.2228 677.0181,-993.8671 676.8893,-993.6848 670.7469,-989.357 670.7469,-989.357 676.8893,-993.6848 677.0181,-993.8671 670.7535,-998.2228 664.206,-998.2228 661.725,-1039.6219 656.4269,-993.8214 651.4295,-993.8214 651.0281,-993.9655 650.4531,-1061.6097 644.4071,-1061.6979 643.5579,-1061.6635 642.9946,-1061.6096 637.3452,-1061.3829 632.4947,-1061.4572 631.2895,-993.6492 630.1265,-993.6492 625.0447,-997.8309 522.5314,-1009.2758 491.7112,-974.8033 490.7673,-973.8187 480.7564,-962.295 477.392,-958.2411 467.5061,-945.7831 464.916,-942.3799 488.5618,-891.7395 485.9081,-859.0262 491.4621,-826.8869 494.6069,-804.5792 498.1242,-772.2289 509.739,-744.3575 510.0892,-730.8346 509.5619,-661.4271 508.7644,-641.9671 528.9449,-530.4774 530.5123,-527.9922 564.8614,-525.1754 634.0373,-573.7223 648.4435,-584.7253 667.5118,-597.4763 685.2246,-606.7354 685.166,-610.6696 680.3014,-695.8415 680.402,-695.8775 687.4933,-695.8775 688.3516,-696.1866 693.0536,-696.1866 697.1837,-755.8605 696.1747,-755.9662 688.6382,-756.2728 691.7007,-813.3072 693.7947,-815.5739 690.681,-819.0106 685.2843,-820.8394 685.2843,-820.8394 690.681,-819.0106 693.7947,-815.5739 691.7007,-813.3072 688.6382,-756.2728 696.1747,-755.9662 697.1837,-755.8605 693.0536,-696.1866 688.3516,-696.1866 687.4933,-695.8775 680.402,-695.8775 680.3014,-695.8415 685.166,-610.6696 685.2246,-606.7354 697.7159,-612.0378 700.6331,-613.1311 706.7214,-615.1161 719.9741,-618.1614 727.228,-619.4738 734.2609,-620.4022 734.9819,-620.4621 749.5778,-620.9669 751.7171,-621.1428 756.6168,-621.0679 761.7958,-621.2342 761.8668,-621.233 766.8016,-620.9128 766.8325,-620.9122 767.9099,-620.9443 774.9478,-620.8127 778.4514,-620.9131 788.093,-621.6473 797.7628,-622.8417 798.9427,-623.0428 816.7587,-627.7909 857.3746,-642.4557 913.5104,-613.3964 916.0899,-611.9617 935.4341,-599.653 930.8446,-730.9875 926.1293,-730.9875 925.6555,-730.816 925.6555,-730.816 926.1293,-730.9875 930.8446,-730.9875 935.4341,-599.653 939.3779,-596.9933 950.5274,-588.5975 953.8538,-588.7175 956.8539,-588.7524 968.1105,-588.608 968.7352,-588.6296 969.1187,-624.1695 971.8654,-686.4907 969.9897,-725.9992 963.3047,-728.4258 960.8451,-731 963.2002,-733.4648 969.9804,-735.9536 973.3257,-801.8563 974.6276,-803.1965 979.8383,-809.14 929.0446,-809.14 929.0446,-809.14 979.8383,-809.14 974.6276,-803.1965 973.3257,-801.8563 969.9804,-735.9536 963.2002,-733.4648 960.8451,-731 963.3047,-728.4258 969.9897,-725.9992 971.8654,-686.4907 969.1187,-624.1695 968.7352,-588.6296 970.6281,-588.5564 978.4664,-588.439 985.0792,-588.4968 990.2338,-588.416 992.1641,-588.4772 1012.3511,-588.1315 1025.8453,-586.9142 1042.624,-584.5831 1082.5748,-655.23 1114.3932,-729.0273 1116.3259,-732.9136 1127.2286,-752.1934 1092.2529,-812.6653 1069.5806,-847.7888 1023.6901,-859.8716 954.0858,-947.5391 953.6266,-955.0298 951.2238,-980.4315 951.0396,-983.4533 940.0775,-1100.5383 908.3584,-1123.2087 902.2469,-1137.7648 889.2068,-1171.0295 768.1818,-1275.4186 707.7819,-1271.2656 704.1509,-1271.1045 693.9816,-1271.1482 686.2917,-1271.3687 684.8236,-1129.7104 684.7227,-1129.6747 686.1774,-1061.8241 687.4821,-1061.7357 689.9527,-1061.7054 693.8384,-1061.4443 695.8301,-1061.4207 696.5377,-993.8787 695.7249,-993.5702 690.4317,-993.5702 687.3075,-937.6203 698.222,-948.5253 700.5814,-950.1605 738.1239,-947.7512 737.9894,-978.3828 743.1851,-982.9735 752.8163,-993.4076 753.0441,-993.6055 753.4228,-994.0504 768.5326,-1008.3237 767.5663,-987.0613 769.3571,-946.364 775.2332,-948.4195 781.2817,-946.2777 784.3041,-942.9798 782.665,-941.3759 782.665,-941.3759 784.3041,-942.9798 781.2817,-946.2777 775.2332,-948.4195 769.3571,-946.364 767.5663,-987.0613 768.5326,-1008.3237 753.4228,-994.0504 753.0441,-993.6055 752.8163,-993.4076 743.1851,-982.9735 737.9894,-978.3828 738.1239,-947.7512 700.5814,-950.1605 698.222,-948.5253 687.3075,-937.6203 690.4317,-993.5702 695.7249,-993.5702 696.5377,-993.8787 695.8301,-1061.4207 693.8384,-1061.4443 689.9527,-1061.7054 687.4821,-1061.7357 686.1774,-1061.8241 684.7227,-1129.6747 684.8236,-1129.7104 686.2917,-1271.3687 678.776,-1271.7675 666.2969,-1272.734 652.0491,-1274.5308 652.2573,-1226.4567 653.2312,-1202.6827 659.622,-1132.5381 665.1723,-1134.501 672.9437,-1131.5452 674.8501,-1129.5741 672.8026,-1127.4231 672.8026,-1127.4231 674.8501,-1129.5741 672.9437,-1131.5452 665.1723,-1134.501 659.622,-1132.5381 653.2312,-1202.6827 652.2573,-1226.4567 652.0491,-1274.5308 637.68,-1277.392 631.1805,-1278.844 630.456,-1189.5367 630.456,-1189.5367 631.1805,-1278.844 631.1805,-1278.844"/>
<polygon fill="#c1c8d8" stroke="#c1c8d8" points="1328.2655,-357.6225 1330.2303,-359.7898 1330.2303,-359.7898 1328.2655,-357.6225 1323.757,-357.6225 1322.5483,-357.2037 1317.6028,-357.2037 1317.6025,-357.2036 1312.9475,-357.2036 1311.4208,-357.7309 1308.0928,-357.7309 1304.4338,-353.7283 1299.4382,-352.0946 1293.1273,-354.2766 1290.3907,-357.1927 1286.1696,-357.1927 1285.8773,-357.2947 1281.2362,-357.2947 1281.1775,-357.2743 1281.1775,-357.2743 1281.2362,-357.2947 1285.8773,-357.2947 1286.1696,-357.1927 1290.3907,-357.1927 1293.1273,-354.2766 1299.4382,-352.0946 1304.4338,-353.7283 1308.0928,-357.7309 1311.4208,-357.7309 1312.9475,-357.2036 1317.6025,-357.2036 1317.6028,-357.2037 1322.5483,-357.2037 1327.6711,-323.2527 1330.7007,-354.6886 1336.2313,-352.2302 1339.3358,-160.2689 1332.0812,-161.4724 1329.7684,-161.7775 1207.3839,-109.8388 1165.9874,-100.1783 1159.3258,-98.4715 1146.8937,-95.0017 1131.2759,-90.2894 1121.7124,-86.5387 1116.2463,-89.3453 1100.5012,-97.034 1105.7126,-216.5989 1103.2036,-253.039 1103.2228,-253.0458 1111.397,-253.0458 1111.3992,-253.0451 1112.9543,-253.0451 1115.272,-255.3283 1115.272,-255.3283 1112.9543,-253.0451 1111.3992,-253.0451 1111.397,-253.0458 1103.2228,-253.0458 1103.2036,-253.039 1105.7126,-216.5989 1100.5012,-97.034 1092.1039,-100.7044 907.4605,-167.5418 901.9681,-193.0067 896.8858,-219.6904 890.8967,-247.4363 891.7806,-248.3626 913.1291,-269.2892 914.3869,-270.433 915.0126,-270.9601 928.0572,-281.5341 1085.2717,-256.9444 1089.684,-253.2489 1091.3446,-253.2489 1091.9224,-253.451 1096.8115,-253.451 1103.384,-326.3239 1104.0461,-326.2802 1117.3026,-326.6841 1112.1986,-394.7723 1106.7512,-396.6691 1103.6174,-400.3246 1105.8833,-402.7691 1105.8833,-402.7691 1103.6174,-400.3246 1106.7512,-396.6691 1112.1986,-394.7723 1117.3026,-326.6841 1104.0461,-326.2802 1103.384,-326.3239 1096.8115,-253.451 1091.9224,-253.451 1091.3446,-253.2489 1089.684,-253.2489 1085.2717,-256.9444 928.0572,-281.5341 938.7738,-290.7549 943.0239,-294.2549 954.0307,-302.531 963.8387,-309.5513 972.2314,-314.9511 975.2055,-316.7576 982.0929,-330.8253 997.569,-358.1889 1023.462,-399.98 1035.4136,-431.5346 1052.9786,-465.6195 1073.3778,-498.5437 1084.9506,-518.8558 1088.5588,-525.6549 1091.1143,-531.2041 1094.191,-538.3896 1042.624,-584.5831 1082.5748,-655.23 1114.3932,-729.0273 1116.3259,-732.9136 1127.2286,-752.1934 1171.8186,-746.9283 1177.4211,-746.4886 1180.5552,-746.3665 1183.1649,-746.3677 1188.7593,-746.5916 1196.2386,-746.2759 1206.9042,-746.6732 1207.6897,-746.67 1215.6133,-746.3118 1218.5073,-746.296 1221.2032,-746.4944 1223.5378,-746.5703 1227.0953,-746.5403 1227.9948,-746.496 1230.0596,-746.4755 1232.4063,-745.1901 1239.0654,-741.8823 1246.6527,-738.5016 1255.3356,-735.08 1301.2582,-719.377 1308.4122,-716.5574 1317.9657,-687.7218 1322.8702,-668.4869 1332.0129,-640.7484 1344.1876,-610.1528 1386.6295,-597.4184 1394.3337,-594.8177 1401.5891,-591.8188 1421.5853,-582.7852 1437.9233,-573.5718 1462.198,-558.9894 1474.7198,-560.298 1540.9943,-568.7054 1541.2488,-568.6534 1558.1973,-564.4516 1578.1853,-558.6242 1621.7382,-544.9935 1646.6466,-517.4176 1638.0353,-410.09 1636.7577,-360.8268 1596.7111,-310.1459 1492.9357,-251.4889 1474.4868,-246.9501 1457.6019,-242.4324 1456.9089,-244.0956 1439.9814,-278.7582 1429.8789,-297.0228 1419.14,-313.957 1409.4894,-328.032 1412.9866,-404.938 1406.8717,-407.0266 1403.6345,-410.4623 1405.4343,-412.2234 1410.3624,-442.0331 1412.1678,-502.4217 1394.1165,-485.4702 1392.9933,-484.5107 1392.2203,-483.9115 1382.0754,-476.7991 1370.829,-469.7906 1370.569,-469.65 1363.4707,-466.3545 1356.983,-463.8457 1328.5052,-455.0502 1325.6499,-502.8819 1319.8838,-505.3482 1318.3751,-451.1167 1315.5222,-449.7892 1313.1133,-507.8791 1308.4634,-507.8791 1308.4634,-507.8791 1313.1133,-507.8791 1315.5222,-449.7892 1318.3751,-451.1167 1319.8838,-505.3482 1325.6499,-502.8819 1328.5052,-455.0502 1356.983,-463.8457 1363.4707,-466.3545 1370.569,-469.65 1370.829,-469.7906 1382.0754,-476.7991 1392.2203,-483.9115 1392.9933,-484.5107 1394.1165,-485.4702 1412.1678,-502.4217 1410.3624,-442.0331 1405.4343,-412.2234 1403.6345,-410.4623 1406.8717,-407.0266 1412.9866,-404.938 1409.4894,-328.032 1419.14,-313.957 1429.8789,-297.0228 1439.9814,-278.7582 1456.9089,-244.0956 1457.6019,-242.4324 1439.5371,-226.9868 1354.9211,-164.6115 1341.0424,-159.9568 1339.3358,-160.2689 1336.2313,-352.2302 1330.7007,-354.6886 1327.6711,-323.2527 1322.5483,-357.2037 1323.757,-357.6225 1328.2655,-357.6225 1328.2655,-357.6225"/>
<polygon fill="#e4ced8" stroke="#e4ced8" points="398.9751,-21.194 406.9908,-20.9758 417.5773,-20.4306 433.2344,-19.2449 433.3915,-19.2254 450.918,-16.2002 501.5163,-6.2442 552.7154,102.8229 568.3911,109.7904 664.3468,122.687 665.0491,38.9105 661.8439,-13.0111 640.6378,-18 662.3014,-23.0966 658.5688,-91.579 656.0291,-91.6874 656.8907,-123.5094 662.1097,-165.2736 662.0888,-165.2811 658.7073,-165.2811 654.2484,-169.2702 575.8074,-180.1437 551.5659,-152.22 549.9866,-153.9891 542.3419,-162.024 532.7993,-171.3819 527.7763,-175.9401 524.7963,-178.2289 514.0113,-187.6308 513.9603,-193.3031 510.0829,-255.4399 504.8556,-257.1501 500.7214,-224.5962 500.7214,-224.5962 504.8556,-257.1501 501.2569,-261.0025 504.1581,-263.8448 509.9833,-265.7437 509.9833,-265.7437 504.1581,-263.8448 501.2569,-261.0025 504.8556,-257.1501 510.0829,-255.4399 513.9603,-193.3031 514.0113,-187.6308 524.7963,-178.2289 527.7763,-175.9401 532.7993,-171.3819 542.3419,-162.024 541.2356,-260.468 540.9951,-260.5503 535.4032,-260.5503 534.6788,-260.7975 530.2425,-260.7975 529.15,-260.4119 529.15,-260.4119 530.2425,-260.7975 534.6788,-260.7975 535.4032,-260.5503 540.9951,-260.5503 541.2356,-260.468 542.3419,-162.024 549.9866,-153.9891 551.5659,-152.22 575.8074,-180.1437 654.2484,-169.2702 656.7758,-208.6062 655.4426,-254.2777 645.8228,-254.2544 632.012,-253.08 629.8951,-255.5749 630.4353,-289.3157 630.4353,-289.3157 629.8951,-255.5749 632.012,-253.08 645.8228,-254.2544 655.4426,-254.2777 656.7758,-208.6062 654.2484,-169.2702 658.7073,-165.2811 662.0888,-165.2811 662.1097,-165.2736 666.5226,-165.2736 666.9345,-165.4202 671.748,-254.2695 663.47,-254.6087 662.8668,-254.6085 660.756,-338.2235 654.1143,-340.7183 651.8849,-343.1909 654.6351,-346.2473 660.5435,-348.338 660.5435,-348.338 654.6351,-346.2473 651.8849,-343.1909 654.1143,-340.7183 660.756,-338.2235 662.8668,-254.6085 663.47,-254.6087 671.748,-254.2695 666.9345,-165.4202 673.4302,-165.4202 673.9127,-165.2419 674.3723,-165.2419 680.2775,-169.6039 680.4589,-220.9086 678.2727,-254.2379 678.2727,-254.2379 680.4589,-220.9086 680.2775,-169.6039 674.3723,-165.2419 673.9127,-165.2419 673.4302,-165.4202 666.9345,-165.4202 666.5226,-165.2736 662.1097,-165.2736 656.8907,-123.5094 656.0291,-91.6874 658.5688,-91.579 662.3014,-23.0966 640.6378,-18 661.8439,-13.0111 665.0491,38.9105 664.3468,122.687 678.3376,125.3021 683.0937,126.4408 693.9283,124.1398 695.3043,123.8838 697.3232,123.5609 713.4649,121.3991 775.1198,114.7601 824.3566,69.2441 832.0784,59.9462 852.4203,2.5873 852.6998,-3.9216 854.8298,-32.2244 860.8316,-88.1938 890.0516,-139.0048 907.4605,-167.5418 901.9681,-193.0067 896.8858,-219.6904 890.8967,-247.4363 891.7806,-248.3626 913.1291,-269.2892 914.3869,-270.433 915.0126,-270.9601 929.3586,-445.9909 929.0589,-446.0963 923.0823,-446.0963 917.695,-386.1678 915.7208,-446.4879 909.618,-446.4879 909.5421,-446.4609 909.5421,-446.4609 909.618,-446.4879 915.7208,-446.4879 917.695,-386.1678 923.0823,-446.0963 929.0589,-446.0963 929.3586,-445.9909 915.0126,-270.9601 928.0572,-281.5341 938.7738,-290.7549 943.0239,-294.2549 954.0307,-302.531 963.8387,-309.5513 972.2314,-314.9511 975.2055,-316.7576 982.0929,-330.8253 997.569,-358.1889 1023.462,-399.98 1035.4136,-431.5346 1052.9786,-465.6195 1073.3778,-498.5437 1084.9506,-518.8558 1088.5588,-525.6549 1091.1143,-531.2041 1094.191,-538.3896 1042.624,-584.5831 1025.8453,-586.9142 1012.3511,-588.1315 992.1641,-588.4772 990.2338,-588.416 985.0792,-588.4968 978.4664,-588.439 970.6281,-588.5564 968.7352,-588.6296 968.1105,-588.608 956.8539,-588.7524 953.8538,-588.7175 950.5274,-588.5975 939.3779,-596.9933 935.4341,-599.653 916.0899,-611.9617 913.5104,-613.3964 857.3746,-642.4557 816.7587,-627.7909 798.9427,-623.0428 797.7628,-622.8417 788.093,-621.6473 778.4514,-620.9131 774.9478,-620.8127 767.9099,-620.9443 766.8325,-620.9122 766.8016,-620.9128 761.8668,-621.233 761.7958,-621.2342 756.6168,-621.0679 751.7171,-621.1428 749.5778,-620.9669 734.9819,-620.4621 734.2609,-620.4022 727.228,-619.4738 719.9741,-618.1614 706.7214,-615.1161 700.6331,-613.1311 697.7159,-612.0378 685.2246,-606.7354 667.5118,-597.4763 648.4435,-584.7253 634.0373,-573.7223 564.8614,-525.1754 530.5123,-527.9922 479.5711,-426.3749 478.8639,-425.9157 352.8269,-351.0051 331.8202,-316.4151 258.3395,-276.0082 252.8368,-269.8994 232.6724,-213.1212 225.2566,-167.3397 224.0976,-161.4335 222.9561,-156.4841 247.2793,-52.6035 293.3568,-24.3593 362.8038,-22.2229 382.5432,-20.6483 385.2379,-20.9018 398.9751,-21.194 398.9751,-21.194"/>
<polygon fill="#c2dfd1" stroke="#c2dfd1" points="88.111,-1473.9622 86.7337,-1474.4469 95.0439,-1646.3098 76.8776,-1643.4628 63.2294,-1641.8645 64.5889,-1541.2137 64.5889,-1541.2137 63.2294,-1641.8645 47.2543,-1640.6265 38.6592,-1635.6836 -2.3958,-1604.793 -81.3768,-1526.6033 -86.0926,-1474.2 -86.9211,-1468.7781 -77.8399,-1424.7743 15.2022,-1320.9117 -33.8183,-1192.4 -38.9739,-1181.1029 -28.19,-1116.1064 49.9823,-1058.8146 103.7299,-1050.9583 119.171,-1048.3197 131.7355,-1045.5554 138.7379,-1045.5293 146.4002,-1045.1459 149.2557,-1044.8707 150.072,-1044.7731 170.4846,-1041.8533 175.9297,-1040.9484 190.9165,-1038.1107 197.5432,-1036.3981 204.1393,-1034.54 219.8274,-1029.756 231.0502,-1028.4323 278.3972,-987.185 372.6774,-974.0195 377.5307,-973.097 383.9723,-1113.8035 389.1582,-1113.8035 389.5501,-1113.9467 389.5501,-1113.9467 389.1582,-1113.8035 383.9723,-1113.8035 377.5307,-973.097 398.1915,-968.6451 415.0425,-963.7448 424.2734,-960.5984 430.5902,-958.2872 455.309,-947.3535 464.916,-942.3799 467.5061,-945.7831 477.392,-958.2411 480.7564,-962.295 490.7673,-973.8187 491.7112,-974.8033 522.5314,-1009.2758 563.4385,-1059.4557 556.4818,-1114.1 556.5538,-1117.4486 555.2578,-1141.7145 535.2328,-1299.0083 538.2241,-1306.1138 515.7308,-1353.387 511.8107,-1356.3202 423.6265,-1397.7139 359.645,-1491.9218 351.9165,-1501.2993 330.9651,-1518.9579 293.5719,-1600.609 211.2238,-1654.3265 180.6589,-1651.1661 165.3804,-1649.8722 160.6066,-1649.6472 142.3485,-1649.1294 145.7216,-1507.951 145.7216,-1507.951 142.3485,-1649.1294 139.1684,-1649.1587 134.5229,-1504.3895 134.5229,-1504.3895 139.1684,-1649.1587 113.301,-1650.3699 112.1131,-1650.0188 112.4536,-1640.8335 112.4559,-1640.7037 118.4359,-1479.2216 125.018,-1476.964 127.7849,-1474.2592 125.3762,-1471.875 125.3762,-1471.875 127.7849,-1474.2592 125.018,-1476.964 118.4359,-1479.2216 112.4559,-1640.7037 112.4536,-1640.8335 112.1131,-1650.0188 101.9643,-1647.6278 97.0087,-1646.6563 95.0439,-1646.3098 86.7337,-1474.4469 88.111,-1473.9622 82.896,-1425.3911 81.6495,-1382.5897 73.8829,-1374.9225 68.3942,-1368.7 112.1193,-1368.7 167.5351,-1373.4574 173.9951,-1369.4808 174.5354,-1368.7798 179.4777,-1368.7798 180.5745,-1369.1738 185.4034,-1369.1738 190.575,-1402.2252 194.1194,-1368.9912 198.874,-1368.9912 199.9774,-1368.5797 203.7548,-1368.5797 206.2803,-1371.4061 212.5454,-1373.6963 219.6221,-1371.0973 221.9426,-1368.6978 224.9028,-1368.6978 225.6907,-1368.9753 230.5473,-1368.9753 237.2989,-1411.3201 238.6068,-1431.8752 245.9026,-1368.6398 250.0646,-1368.6398 250.1255,-1368.6615 250.1255,-1368.6615 250.0646,-1368.6398 245.9026,-1368.6398 238.6068,-1431.8752 237.2989,-1411.3201 230.5473,-1368.9753 232.2451,-1368.3469 229.6261,-1293.9686 229.7124,-1287.7999 239.7198,-1292.4161 257.157,-1298.506 289.8436,-1306.1736 291.0418,-1240.064 294.9069,-1236.6299 297.2779,-1236.6299 296.868,-1308.2096 303.8296,-1310.6111 308.3324,-1312.4117 317.9205,-1316.7789 317.9205,-1316.7789 308.3324,-1312.4117 303.8296,-1310.6111 296.868,-1308.2096 297.2779,-1236.6299 294.9069,-1236.6299 291.0418,-1240.064 289.8436,-1306.1736 257.157,-1298.506 239.7198,-1292.4161 229.7124,-1287.7999 229.6261,-1293.9686 232.2451,-1368.3469 230.5473,-1368.9753 225.6907,-1368.9753 224.9028,-1368.6978 221.9426,-1368.6978 219.6221,-1371.0973 212.5454,-1373.6963 206.2803,-1371.4061 203.7548,-1368.5797 199.9774,-1368.5797 198.874,-1368.9912 194.1194,-1368.9912 190.575,-1402.2252 185.4034,-1369.1738 180.5745,-1369.1738 179.4777,-1368.7798 174.5354,-1368.7798 174.3744,-1368.5673 174.3744,-1368.5673 174.5354,-1368.7798 173.9951,-1369.4808 167.5351,-1373.4574 112.1193,-1368.7 68.3942,-1368.7 73.8829,-1374.9225 81.6495,-1382.5897 82.896,-1425.3911 88.111,-1473.9622 88.111,-1473.9622"/>
<polyline fill="none" stroke="#000000" points="1487.7103,-921.3015 1495.923,-919.1384 1500.0704,-917.5022 1517.2301,-908.4088 1517.6771,-905.9236 1518.0391,-900.4311 1522.5874,-875.6132 1528.1209,-856.7047 1563.6732,-834.9682 1568.6046,-831.5992 1571.3925,-824.0217 1631.9315,-787.6022 1650.6943,-775.1425 1655.1044,-771.7058 1660.4927,-767.1825 1669.5958,-742.83 1670.6576,-740.622 1665.6166,-712.6716 1654.8723,-665.8168 1621.7382,-544.9935 1646.6466,-517.4176 1762.6931,-533.9977 1778.1899,-535.8773 1779.6639,-536.024 1801.9481,-536.7985 1822.2496,-536.1846 1824.4121,-536.7531 1824.6715,-536.8153 1827.6875,-537.4702 1838.1979,-539.2781 1844.3965,-541.2828 1865.9973,-546.7011 1875.106,-548.5403 1930.5354,-558.3811 2016.9937,-636.4554 2017.7863,-636.6146 2121.7588,-729.1785 2122.8052,-791.93 2125.9636,-829.6698 2095.1016,-908.0369 2041.2866,-959.6445 2036.4287,-1041.5181 2036.2429,-1047.5339 2005.314,-1113.1361 1895.3101,-1145.4419 1870.3571,-1146.943 1866.6876,-1147.2467 1861.5658,-1147.7866 1858.3875,-1148.2661 1852.9221,-1149.2161 1784.502,-1195.3262 1742.3094,-1203.5386 1728.9919,-1206.7638 1692.5413,-1237.8221 1607.0283,-1256.1863 1604.9878,-1256.7325 1590.3311,-1261.0514 1584.9965,-1262.765 1542.7195,-1294.9718 1509.2307,-1294.9905 1492.1067,-1289.9762 1488.9852,-1289.1379 1465.3784,-1283.9337 1456.6921,-1282.6538 1444.2688,-1281.1244 1431.6,-1280.1804 1424.2643,-1279.9901 1406.0186,-1279.9592 1335.7469,-1263.0067 1327.42,-1259.1046 1304.9122,-1238.8313 1295.9785,-1223.8658 1228.3378,-1172.5741 1192.7136,-1125.8701 1193.702,-1124.4307 1228.1884,-1076.5131 1229.4163,-1074.6456 1292.5031,-969.15 1304.0049,-953.1686 1333.288,-957.4808 1338.1173,-960.0447 1378.24,-946.1209 1426.162,-925.7837 1434.2064,-923.4526 1441.4291,-922.3546 1446.8896,-922.2795 1450.2046,-921.7828 1453.6222,-921.748 1455.0354,-921.9294 1461.2103,-921.8878 1463.5784,-922.201 1468.4344,-922.1855 1468.9523,-922.2551 1473.7943,-922.2566 1475.6891,-922.0026 1482.1101,-922.0271 1487.7103,-921.3015 "/>
<polyline fill="none" stroke="#000000" points="1528.1209,-856.7047 1563.6732,-834.9682 1568.6046,-831.5992 1571.3925,-824.0217 1631.9315,-787.6022 1650.6943,-775.1425 1655.1044,-771.7058 1660.4927,-767.1825 1669.5958,-742.83 1670.6576,-740.622 1665.6166,-712.6716 1654.8723,-665.8168 1621.7382,-544.9935 1578.1853,-558.6242 1558.1973,-564.4516 1541.2488,-568.6534 1540.9943,-568.7054 1474.7198,-560.298 1462.198,-558.9894 1437.9233,-573.5718 1421.5853,-582.7852 1401.5891,-591.8188 1394.3337,-594.8177 1386.6295,-597.4184 1344.1876,-610.1528 1332.0129,-640.7484 1322.8702,-668.4869 1317.9657,-687.7218 1308.4122,-716.5574 1301.2582,-719.377 1255.3356,-735.08 1246.6527,-738.5016 1239.0654,-741.8823 1232.4063,-745.1901 1230.0596,-746.4755 1227.9948,-746.496 1227.0953,-746.5403 1223.5378,-746.5703 1221.2032,-746.4944 1218.5073,-746.296 1215.6133,-746.3118 1207.6897,-746.67 1206.9042,-746.6732 1196.2386,-746.2759 1188.7593,-746.5916 1183.1649,-746.3677 1180.5552,-746.3665 1177.4211,-746.4886 1171.8186,-746.9283 1127.2286,-752.1934 1092.2529,-812.6653 1069.5806,-847.7888 1023.6901,-859.8716 954.0858,-947.5391 953.6266,-955.0298 951.2238,-980.4315 951.0396,-983.4533 940.0775,-1100.5383 1051.0278,-1119.7988 1094.6818,-1115.7292 1104.6448,-1115.2701 1117.7562,-1114.9756 1118.0841,-1114.9836 1139.3419,-1116.0121 1147.0077,-1116.7441 1149.7794,-1117.074 1165.3408,-1119.6642 1177.7559,-1122.3187 1192.7136,-1125.8701 1193.702,-1124.4307 1228.1884,-1076.5131 1229.4163,-1074.6456 1292.5031,-969.15 1304.0049,-953.1686 1333.288,-957.4808 1338.1173,-960.0447 1378.24,-946.1209 1426.162,-925.7837 1434.2064,-923.4526 1441.4291,-922.3546 1446.8896,-922.2795 1450.2046,-921.7828 1453.6222,-921.748 1455.0354,-921.9294 1461.2103,-921.8878 1463.5784,-922.201 1468.4344,-922.1855 1468.9523,-922.2551 1473.7943,-922.2566 1475.6891,-922.0026 1482.1101,-922.0271 1487.7103,-921.3015 1495.923,-919.1384 1500.0704,-917.5022 1517.2301,-908.4088 1517.6771,-905.9236 1518.0391,-900.4311 1522.5874,-875.6132 1528.1209,-856.7047 "/>
<polyline fill="none" stroke="#000000" points="1023.6901,-859.8716 1069.5806,-847.7888 1092.2529,-812.6653 1127.2286,-752.1934 1116.3259,-732.9136 1114.3932,-729.0273 1082.5748,-655.23 1042.624,-584.5831 1025.8453,-586.9142 1012.3511,-588.1315 992.1641,-588.4772 990.2338,-588.416 985.0792,-588.4968 978.4664,-588.439 970.6281,-588.5564 968.7352,-588.6296 968.1105,-588.608 956.8539,-588.7524 953.8538,-588.7175 950.5274,-588.5975 939.3779,-596.9933 935.4341,-599.653 916.0899,-611.9617 913.5104,-613.3964 857.3746,-642.4557 816.7587,-627.7909 798.9427,-623.0428 797.7628,-622.8417 788.093,-621.6473 778.4514,-620.9131 774.9478,-620.8127 767.9099,-620.9443 766.8325,-620.9122 766.8016,-620.9128 761.8668,-621.233 761.7958,-621.2342 756.6168,-621.0679 751.7171,-621.1428 749.5778,-620.9669 734.9819,-620.4621 734.2609,-620.4022 727.228,-619.4738 719.9741,-618.1614 706.7214,-615.1161 700.6331,-613.1311 697.7159,-612.0378 685.2246,-606.7354 667.5118,-597.4763 648.4435,-584.7253 634.0373,-573.7223 564.8614,-525.1754 530.5123,-527.9922 528.9449,-530.4774 508.7644,-641.9671 509.5619,-661.4271 510.0892,-730.8346 509.739,-744.3575 498.1242,-772.2289 494.6069,-804.5792 491.4621,-826.8869 485.9081,-859.0262 488.5618,-891.7395 464.916,-942.3799 467.5061,-945.7831 477.392,-958.2411 480.7564,-962.295 490.7673,-973.8187 491.7112,-974.8033 522.5314,-1009.2758 563.4385,-1059.4557 556.4818,-1114.1 556.5538,-1117.4486 555.2578,-1141.7145 535.2328,-1299.0083 538.2241,-1306.1138 619.1741,-1282.1122 631.1805,-1278.844 637.68,-1277.392 652.0491,-1274.5308 666.2969,-1272.734 678.776,-1271.7675 686.2917,-1271.3687 693.9816,-1271.1482 704.1509,-1271.1045 707.7819,-1271.2656 768.1818,-1275.4186 889.2068,-1171.0295 902.2469,-1137.7648 908.3584,-1123.2087 940.0775,-1100.5383 951.0396,-983.4533 951.2238,-980.4315 953.6266,-955.0298 954.0858,-947.5391 1023.6901,-859.8716 "/>
<polyline fill="none" stroke="#000000" points="1215.6133,-746.3118 1218.5073,-746.296 1221.2032,-746.4944 1223.5378,-746.5703 1227.0953,-746.5403 1227.9948,-746.496 1230.0596,-746.4755 1232.4063,-745.1901 1239.0654,-741.8823 1246.6527,-738.5016 1255.3356,-735.08 1301.2582,-719.377 1308.4122,-716.5574 1317.9657,-687.7218 1322.8702,-668.4869 1332.0129,-640.7484 1344.1876,-610.1528 1386.6295,-597.4184 1394.3337,-594.8177 1401.5891,-591.8188 1421.5853,-582.7852 1437.9233,-573.5718 1462.198,-558.9894 1474.7198,-560.298 1540.9943,-568.7054 1541.2488,-568.6534 1558.1973,-564.4516 1578.1853,-558.6242 1621.7382,-544.9935 1646.6466,-517.4176 1638.0353,-410.09 1636.7577,-360.8268 1596.7111,-310.1459 1492.9357,-251.4889 1474.4868,-246.9501 1457.6019,-242.4324 1439.5371,-226.9868 1354.9211,-164.6115 1341.0424,-159.9568 1339.3358,-160.2689 1332.0812,-161.4724 1329.7684,-161.7775 1207.3839,-109.8388 1165.9874,-100.1783 1159.3258,-98.4715 1146.8937,-95.0017 1131.2759,-90.2894 1121.7124,-86.5387 1116.2463,-89.3453 1100.5012,-97.034 1092.1039,-100.7044 907.4605,-167.5418 901.9681,-193.0067 896.8858,-219.6904 890.8967,-247.4363 891.7806,-248.3626 913.1291,-269.2892 914.3869,-270.433 915.0126,-270.9601 928.0572,-281.5341 938.7738,-290.7549 943.0239,-294.2549 954.0307,-302.531 963.8387,-309.5513 972.2314,-314.9511 975.2055,-316.7576 982.0929,-330.8253 997.569,-358.1889 1023.462,-399.98 1035.4136,-431.5346 1052.9786,-465.6195 1073.3778,-498.5437 1084.9506,-518.8558 1088.5588,-525.6549 1091.1143,-531.2041 1094.191,-538.3896 1042.624,-584.5831 1082.5748,-655.23 1114.3932,-729.0273 1116.3259,-732.9136 1127.2286,-752.1934 1171.8186,-746.9283 1177.4211,-746.4886 1180.5552,-746.3665 1183.1649,-746.3677 1188.7593,-746.5916 1196.2386,-746.2759 1206.9042,-746.6732 1207.6897,-746.67 1215.6133,-746.3118 "/>
<polyline fill="none" stroke="#000000" points="778.4514,-620.9131 788.093,-621.6473 797.7628,-622.8417 798.9427,-623.0428 816.7587,-627.7909 857.3746,-642.4557 913.5104,-613.3964 916.0899,-611.9617 935.4341,-599.653 939.3779,-596.9933 950.5274,-588.5975 953.8538,-588.7175 956.8539,-588.7524 968.1105,-588.608 968.7352,-588.6296 970.6281,-588.5564 978.4664,-588.439 985.0792,-588.4968 990.2338,-588.416 992.1641,-588.4772 1012.3511,-588.1315 1025.8453,-586.9142 1042.624,-584.5831 1094.191,-538.3896 1091.1143,-531.2041 1088.5588,-525.6549 1084.9506,-518.8558 1073.3778,-498.5437 1052.9786,-465.6195 1035.4136,-431.5346 1023.462,-399.98 997.569,-358.1889 982.0929,-330.8253 975.2055,-316.7576 972.2314,-314.9511 963.8387,-309.5513 954.0307,-302.531 943.0239,-294.2549 938.7738,-290.7549 928.0572,-281.5341 915.0126,-270.9601 914.3869,-270.433 913.1291,-269.2892 891.7806,-248.3626 890.8967,-247.4363 896.8858,-219.6904 901.9681,-193.0067 907.4605,-167.5418 890.0516,-139.0048 860.8316,-88.1938 854.8298,-32.2244 852.6998,-3.9216 852.4203,2.5873 832.0784,59.9462 824.3566,69.2441 775.1198,114.7601 713.4649,121.3991 697.3232,123.5609 695.3043,123.8838 693.9283,124.1398 683.0937,126.4408 678.3376,125.3021 664.3468,122.687 568.3911,109.7904 552.7154,102.8229 501.5163,-6.2442 450.918,-16.2002 433.3915,-19.2254 433.2344,-19.2449 417.5773,-20.4306 406.9908,-20.9758 398.9751,-21.194 385.2379,-20.9018 382.5432,-20.6483 362.8038,-22.2229 293.3568,-24.3593 247.2793,-52.6035 222.9561,-156.4841 224.0976,-161.4335 225.2566,-167.3397 232.6724,-213.1212 252.8368,-269.8994 258.3395,-276.0082 331.8202,-316.4151 352.8269,-351.0051 478.8639,-425.9157 479.5711,-426.3749 530.5123,-527.9922 564.8614,-525.1754 634.0373,-573.7223 648.4435,-584.7253 667.5118,-597.4763 685.2246,-606.7354 697.7159,-612.0378 700.6331,-613.1311 706.7214,-615.1161 719.9741,-618.1614 727.228,-619.4738 734.2609,-620.4022 734.9819,-620.4621 749.5778,-620.9669 751.7171,-621.1428 756.6168,-621.0679 761.7958,-621.2342 761.8668,-621.233 766.8016,-620.9128 766.8325,-620.9122 767.9099,-620.9443 774.9478,-620.8127 778.4514,-620.9131 "/>
<polyline fill="none" stroke="#000000" points="424.2734,-960.5984 415.0425,-963.7448 398.1915,-968.6451 377.5307,-973.097 372.6774,-974.0195 278.3972,-987.185 231.0502,-1028.4323 219.8274,-1029.756 204.1393,-1034.54 197.5432,-1036.3981 190.9165,-1038.1107 175.9297,-1040.9484 170.4846,-1041.8533 150.072,-1044.7731 149.2557,-1044.8707 146.4002,-1045.1459 138.7379,-1045.5293 131.7355,-1045.5554 119.171,-1048.3197 103.7299,-1050.9583 49.9823,-1058.8146 -28.19,-1116.1064 -38.9739,-1181.1029 -33.8183,-1192.4 15.2022,-1320.9117 -77.8399,-1424.7743 -86.9211,-1468.7781 -86.0926,-1474.2 -81.3768,-1526.6033 -2.3958,-1604.793 38.6592,-1635.6836 47.2543,-1640.6265 63.2294,-1641.8645 76.8776,-1643.4628 95.0439,-1646.3098 97.0087,-1646.6563 101.9643,-1647.6278 112.1131,-1650.0188 113.301,-1650.3699 139.1684,-1649.1587 142.3485,-1649.1294 160.6066,-1649.6472 165.3804,-1649.8722 180.6589,-1651.1661 211.2238,-1654.3265 293.5719,-1600.609 330.9651,-1518.9579 351.9165,-1501.2993 359.645,-1491.9218 423.6265,-1397.7139 511.8107,-1356.3202 515.7308,-1353.387 538.2241,-1306.1138 535.2328,-1299.0083 555.2578,-1141.7145 556.5538,-1117.4486 556.4818,-1114.1 563.4385,-1059.4557 522.5314,-1009.2758 491.7112,-974.8033 490.7673,-973.8187 480.7564,-962.295 477.392,-958.2411 467.5061,-945.7831 464.916,-942.3799 455.309,-947.3535 430.5902,-958.2872 424.2734,-960.5984 "/>
<!-- ceph&#45;base&#45;&gt;ceph&#45;common -->
<g id="edge1" class="edge">
<title>ceph&#45;base&#45;&gt;ceph&#45;common</title>
<path fill="none" stroke="#444444" stroke-opacity="0.333333" d="M1514.7498,-937.6834C1545.3142,-923.8572 1587.6618,-904.7006 1620.3321,-889.9218"/>
<polygon fill="#444444" fill-opacity="0.333333" stroke="#444444" stroke-opacity="0.333333" points="1622.0349,-892.993 1629.7035,-885.6825 1619.1498,-886.6152 1622.0349,-892.993"/>
</g>
<!-- ceph&#45;base&#45;&gt;ceph&#45;selinux -->
<g id="edge2" class="edge">
<title>ceph&#45;base&#45;&gt;ceph&#45;selinux</title>
<path fill="none" stroke="#444444" stroke-opacity="0.333333" d="M1473.2683,-973.8626C1470.35,-1006.3289 1464.2177,-1074.5516 1460.743,-1113.2087"/>
<polygon fill="#444444" fill-opacity="0.333333" stroke="#444444" stroke-opacity="0.333333" points="1457.2477,-1113.0005 1459.8383,-1123.2737 1464.2196,-1113.6272 1457.2477,-1113.0005"/>
</g>
<!-- ceph&#45;base&#45;&gt;cryptsetup -->
<g id="edge3" class="edge">
<title>ceph&#45;base&#45;&gt;cryptsetup</title>
<path fill="none" stroke="#444444" stroke-opacity="0.333333" d="M1458.4819,-973.9187C1440.3069,-994.076 1410.8617,-1026.7327 1390.2585,-1049.583"/>
<polygon fill="#444444" fill-opacity="0.333333" stroke="#444444" stroke-opacity="0.333333" points="1387.4697,-1047.4493 1383.3726,-1057.2199 1392.6685,-1052.1369 1387.4697,-1047.4493"/>
</g>
<!-- ceph&#45;base&#45;&gt;libcephfs2 -->
<g id="edge4" class="edge">
<title>ceph&#45;base&#45;&gt;libcephfs2</title>
<path fill="none" stroke="#444444" stroke-opacity="0.333333" d="M1533.9409,-958.5365C1556.7353,-959.6278 1583.082,-960.8891 1607.1701,-962.0424"/>
<polygon fill="#444444" fill-opacity="0.333333" stroke="#444444" stroke-opacity="0.333333" points="1607.1824,-965.5469 1617.3384,-962.5292 1607.5172,-958.5549 1607.1824,-965.5469"/>
</g>
<!-- ceph&#45;base&#45;&gt;librbd1 -->
<g id="edge5" class="edge">
<title>ceph&#45;base&#45;&gt;librbd1</title>
<path fill="none" stroke="#444444" stroke-opacity="0.333333" d="M1518.6888,-937.6784C1521.9592,-936.3317 1525.2795,-934.9644 1528.5985,-933.5977"/>
<polygon fill="#444444" fill-opacity="0.333333" stroke="#444444" stroke-opacity="0.333333" points="1529.9923,-936.8089 1537.9063,-929.7648 1527.3269,-930.3362 1529.9923,-936.8089"/>
</g>
<!-- ceph&#45;base&#45;&gt;librgw2 -->
<g id="edge6" class="edge">
<title>ceph&#45;base&#45;&gt;librgw2</title>
<path fill="none" stroke="#444444" stroke-opacity="0.333333" d="M1488.3054,-973.711C1508.4345,-1000.7408 1546.5924,-1051.98 1569.9543,-1083.3507"/>
<polygon fill="#444444" fill-opacity="0.333333" stroke="#444444" stroke-opacity="0.333333" points="1567.3439,-1085.7055 1576.1239,-1091.6354 1572.9582,-1081.5246 1567.3439,-1085.7055"/>
</g>
<!-- ceph&#45;common&#45;&gt;libcephfs2 -->
<g id="edge7" class="edge">
<title>ceph&#45;common&#45;&gt;libcephfs2</title>
<path fill="none" stroke="#444444" stroke-opacity="0.333333" d="M1671.8323,-886.1018C1673.6624,-900.5564 1676.2411,-920.9235 1678.3304,-937.4262"/>
<polygon fill="#444444" fill-opacity="0.333333" stroke="#444444" stroke-opacity="0.333333" points="1674.8916,-938.1306 1679.62,-947.6117 1681.8361,-937.2513 1674.8916,-938.1306"/>
</g>
<!-- ceph&#45;common&#45;&gt;librbd1 -->
<g id="edge8" class="edge">
<title>ceph&#45;common&#45;&gt;librbd1</title>
<path fill="none" stroke="#444444" stroke-opacity="0.333333" d="M1633.576,-885.7075C1631.4621,-886.7683 1629.3228,-887.8419 1627.1786,-888.9179"/>
<polygon fill="#444444" fill-opacity="0.333333" stroke="#444444" stroke-opacity="0.333333" points="1625.178,-886.0058 1617.81,-893.6193 1628.3176,-892.2623 1625.178,-886.0058"/>
</g>
<!-- ceph&#45;common&#45;&gt;gperftools&#45;libs -->
<g id="edge9" class="edge">
<title>ceph&#45;common&#45;&gt;gperftools&#45;libs</title>
<path fill="none" stroke="#444444" stroke-opacity="0.333333" d="M1612.0715,-849.6422C1584.447,-840.9655 1551.1571,-830.5094 1522.3644,-821.4658"/>
<polygon fill="#444444" fill-opacity="0.333333" stroke="#444444" stroke-opacity="0.333333" points="1523.3763,-818.1151 1512.787,-818.4576 1521.2786,-824.7935 1523.3763,-818.1151"/>
</g>
<!-- ceph&#45;common&#45;&gt;leveldb -->
<g id="edge10" class="edge">
<title>ceph&#45;common&#45;&gt;leveldb</title>
<path fill="none" stroke="#444444" stroke-opacity="0.333333" d="M1651.6002,-849.5257C1630.5405,-828.1666 1595.4342,-792.5613 1571.6232,-768.4118"/>
<polygon fill="#444444" fill-opacity="0.333333" stroke="#444444" stroke-opacity="0.333333" points="1573.8347,-765.6696 1564.3214,-761.0062 1568.8501,-770.5844 1573.8347,-765.6696"/>
</g>
<!-- ceph&#45;common&#45;&gt;libradosstriper1 -->
<g id="edge11" class="edge">
<title>ceph&#45;common&#45;&gt;libradosstriper1</title>
<path fill="none" stroke="#444444" stroke-opacity="0.333333" d="M1733.924,-849.6322C1773.5485,-838.5318 1824.4686,-824.267 1865.7656,-812.698"/>
<polygon fill="#444444" fill-opacity="0.333333" stroke="#444444" stroke-opacity="0.333333" points="1866.8164,-816.0385 1875.5015,-809.9706 1864.928,-809.298 1866.8164,-816.0385"/>
</g>
<!-- ceph&#45;common&#45;&gt;python2&#45;prettytable -->
<g id="edge12" class="edge">
<title>ceph&#45;common&#45;&gt;python2&#45;prettytable</title>
<path fill="none" stroke="#444444" stroke-opacity="0.333333" d="M1684.8741,-849.3602C1711.4697,-817.6687 1766.1364,-752.5275 1796.6286,-716.1929"/>
<polygon fill="#444444" fill-opacity="0.333333" stroke="#444444" stroke-opacity="0.333333" points="1799.3622,-718.3802 1803.1095,-708.4702 1794.0001,-713.8803 1799.3622,-718.3802"/>
</g>
<!-- ceph&#45;common&#45;&gt;python&#45;cephfs -->
<g id="edge13" class="edge">
<title>ceph&#45;common&#45;&gt;python&#45;cephfs</title>
<path fill="none" stroke="#444444" stroke-opacity="0.333333" d="M1692.3842,-885.8422C1721.8012,-909.1892 1772.9875,-949.8135 1805.8022,-975.8571"/>
<polygon fill="#444444" fill-opacity="0.333333" stroke="#444444" stroke-opacity="0.333333" points="1803.716,-978.6697 1813.7247,-982.1449 1808.0676,-973.1867 1803.716,-978.6697"/>
</g>
<!-- ceph&#45;common&#45;&gt;python&#45;rados -->
<g id="edge14" class="edge">
<title>ceph&#45;common&#45;&gt;python&#45;rados</title>
<path fill="none" stroke="#444444" stroke-opacity="0.333333" d="M1714.7284,-885.7714C1725.2815,-889.9926 1736.6285,-894.5314 1747.5352,-898.8941"/>
<polygon fill="#444444" fill-opacity="0.333333" stroke="#444444" stroke-opacity="0.333333" points="1746.3908,-902.2059 1756.9754,-902.6702 1748.9906,-895.7065 1746.3908,-902.2059"/>
</g>
<!-- ceph&#45;common&#45;&gt;python&#45;rbd -->
<g id="edge15" class="edge">
<title>ceph&#45;common&#45;&gt;python&#45;rbd</title>
<path fill="none" stroke="#444444" stroke-opacity="0.333333" d="M1710.9539,-849.6484C1713.8623,-848.3833 1716.8124,-847.1001 1719.764,-845.8162"/>
<polygon fill="#444444" fill-opacity="0.333333" stroke="#444444" stroke-opacity="0.333333" points="1721.3728,-848.9332 1729.1468,-841.7348 1718.5807,-842.5142 1721.3728,-848.9332"/>
</g>
<!-- ceph&#45;common&#45;&gt;python&#45;rgw -->
<g id="edge16" class="edge">
<title>ceph&#45;common&#45;&gt;python&#45;rgw</title>
<path fill="none" stroke="#444444" stroke-opacity="0.333333" d="M1673.6622,-885.7476C1681.1065,-918.0619 1696.7493,-985.9651 1705.6131,-1024.4412"/>
<polygon fill="#444444" fill-opacity="0.333333" stroke="#444444" stroke-opacity="0.333333" points="1702.2652,-1025.5 1707.9209,-1034.4591 1709.0866,-1023.9286 1702.2652,-1025.5"/>
</g>
<!-- python&#45;cephfs&#45;&gt;libcephfs2 -->
<g id="edge17" class="edge">
<title>python&#45;cephfs&#45;&gt;libcephfs2</title>
<path fill="none" stroke="#444444" stroke-opacity="0.333333" d="M1756.0782,-982.249C1755.9773,-982.2263 1755.8763,-982.2037 1755.7754,-982.1811"/>
<polygon fill="#444444" fill-opacity="0.333333" stroke="#444444" stroke-opacity="0.333333" points="1756.9554,-978.8588 1746.432,-980.0865 1755.4242,-985.6893 1756.9554,-978.8588"/>
</g>
<!-- python&#45;rbd&#45;&gt;librbd1 -->
<g id="edge18" class="edge">
<title>python&#45;rbd&#45;&gt;librbd1</title>
<path fill="none" stroke="#444444" stroke-opacity="0.333333" d="M1732.0174,-841.6866C1702.3483,-855.5128 1661.2411,-874.6694 1629.5277,-889.4482"/>
<polygon fill="#444444" fill-opacity="0.333333" stroke="#444444" stroke-opacity="0.333333" points="1628.0165,-886.291 1620.4308,-893.6875 1630.9734,-892.6359 1628.0165,-886.291"/>
</g>
<!-- python&#45;rbd&#45;&gt;python&#45;rados -->
<g id="edge19" class="edge">
<title>python&#45;rbd&#45;&gt;python&#45;rados</title>
<path fill="none" stroke="#444444" stroke-opacity="0.333333" d="M1776.5873,-841.9087C1781.2214,-856.2731 1787.7571,-876.5315 1793.0399,-892.9066"/>
<polygon fill="#444444" fill-opacity="0.333333" stroke="#444444" stroke-opacity="0.333333" points="1789.7378,-894.0707 1796.1391,-902.5131 1796.3997,-891.9215 1789.7378,-894.0707"/>
</g>
<!-- python&#45;rgw&#45;&gt;librgw2 -->
<g id="edge20" class="edge">
<title>python&#45;rgw&#45;&gt;librgw2</title>
<path fill="none" stroke="#444444" stroke-opacity="0.333333" d="M1673.7391,-1070.6042C1662.3524,-1075.9484 1649.7354,-1081.8701 1637.817,-1087.4638"/>
<polygon fill="#444444" fill-opacity="0.333333" stroke="#444444" stroke-opacity="0.333333" points="1636.0108,-1084.4451 1628.4453,-1091.8623 1638.9849,-1090.7819 1636.0108,-1084.4451"/>
</g>
<!-- python&#45;rgw&#45;&gt;python&#45;rados -->
<g id="edge21" class="edge">
<title>python&#45;rgw&#45;&gt;python&#45;rados</title>
<path fill="none" stroke="#444444" stroke-opacity="0.333333" d="M1724.4117,-1034.5337C1739.7925,-1011.9637 1766.2351,-973.1618 1783.9166,-947.2157"/>
<polygon fill="#444444" fill-opacity="0.333333" stroke="#444444" stroke-opacity="0.333333" points="1786.8093,-949.1861 1789.5485,-938.9514 1781.0248,-945.244 1786.8093,-949.1861"/>
</g>
<!-- ceph&#45;&gt;ceph&#45;mds -->
<g id="edge22" class="edge">
<title>ceph&#45;&gt;ceph&#45;mds</title>
<path fill="none" stroke="#444444" stroke-opacity="0.333333" d="M1343.5597,-817.2152C1364.2675,-830.8958 1392.8961,-849.8093 1415.4522,-864.711"/>
<polygon fill="#444444" fill-opacity="0.333333" stroke="#444444" stroke-opacity="0.333333" points="1413.8081,-867.8197 1424.081,-870.4116 1417.6666,-861.9791 1413.8081,-867.8197"/>
</g>
<!-- ceph&#45;&gt;ceph&#45;mgr -->
<g id="edge23" class="edge">
<title>ceph&#45;&gt;ceph&#45;mgr</title>
<path fill="none" stroke="#444444" stroke-opacity="0.333333" d="M1283.6105,-811.2442C1279.4818,-812.7777 1275.1627,-814.3819 1270.7806,-816.0094"/>
<polygon fill="#444444" fill-opacity="0.333333" stroke="#444444" stroke-opacity="0.333333" points="1269.292,-812.8286 1261.1364,-819.5914 1271.7293,-819.3906 1269.292,-812.8286"/>
</g>
<!-- ceph&#45;&gt;ceph&#45;mon -->
<g id="edge24" class="edge">
<title>ceph&#45;&gt;ceph&#45;mon</title>
<path fill="none" stroke="#444444" stroke-opacity="0.333333" d="M1334.247,-781.0544C1348.4907,-766.7803 1368.5359,-746.6923 1384.4001,-730.7942"/>
<polygon fill="#444444" fill-opacity="0.333333" stroke="#444444" stroke-opacity="0.333333" points="1387.2224,-732.9209 1391.8084,-723.3701 1382.2673,-727.9765 1387.2224,-732.9209"/>
</g>
<!-- ceph&#45;&gt;ceph&#45;osd -->
<g id="edge25" class="edge">
<title>ceph&#45;&gt;ceph&#45;osd</title>
<path fill="none" stroke="#444444" stroke-opacity="0.333333" d="M1346.995,-817.2802C1349.0294,-818.4786 1351.0934,-819.6944 1353.1631,-820.9136"/>
<polygon fill="#444444" fill-opacity="0.333333" stroke="#444444" stroke-opacity="0.333333" points="1351.8054,-824.1759 1362.1981,-826.2358 1355.3583,-818.1445 1351.8054,-824.1759"/>
</g>
<!-- ceph&#45;mds&#45;&gt;ceph&#45;base -->
<g id="edge26" class="edge">
<title>ceph&#45;mds&#45;&gt;ceph&#45;base</title>
<path fill="none" stroke="#444444" stroke-opacity="0.333333" d="M1457.6976,-906.4818C1460.0156,-913.1154 1462.6975,-920.79 1465.2438,-928.0767"/>
<polygon fill="#444444" fill-opacity="0.333333" stroke="#444444" stroke-opacity="0.333333" points="1461.9821,-929.3529 1468.585,-937.6385 1468.5902,-927.0437 1461.9821,-929.3529"/>
</g>
<!-- ceph&#45;mds&#45;&gt;gperftools&#45;libs -->
<g id="edge27" class="edge">
<title>ceph&#45;mds&#45;&gt;gperftools&#45;libs</title>
<path fill="none" stroke="#444444" stroke-opacity="0.333333" d="M1452.1874,-870.2077C1452.702,-858.2783 1453.3847,-842.4514 1453.9701,-828.8809"/>
<polygon fill="#444444" fill-opacity="0.333333" stroke="#444444" stroke-opacity="0.333333" points="1457.4793,-828.7405 1454.4136,-818.5989 1450.4858,-828.4388 1457.4793,-828.7405"/>
</g>
<!-- ceph&#45;mgr&#45;&gt;ceph&#45;base -->
<g id="edge28" class="edge">
<title>ceph&#45;mgr&#45;&gt;ceph&#45;base</title>
<path fill="none" stroke="#444444" stroke-opacity="0.333333" d="M1252.4691,-855.777C1298.9012,-876.6379 1375.3359,-910.9782 1425.3994,-933.4705"/>
<polygon fill="#444444" fill-opacity="0.333333" stroke="#444444" stroke-opacity="0.333333" points="1424.1793,-936.7593 1434.7353,-937.665 1427.048,-930.3742 1424.1793,-936.7593"/>
</g>
<!-- ceph&#45;mgr&#45;&gt;gperftools&#45;libs -->
<g id="edge29" class="edge">
<title>ceph&#45;mgr&#45;&gt;gperftools&#45;libs</title>
<path fill="none" stroke="#444444" stroke-opacity="0.333333" d="M1266.5092,-829.3922C1292.2613,-825.4313 1323.9031,-820.5645 1353.8649,-815.9562"/>
<polygon fill="#444444" fill-opacity="0.333333" stroke="#444444" stroke-opacity="0.333333" points="1354.5988,-819.3845 1363.9505,-814.4049 1353.5346,-812.4659 1354.5988,-819.3845"/>
</g>
<!-- ceph&#45;mgr&#45;&gt;python2&#45;cherrypy -->
<g id="edge30" class="edge">
<title>ceph&#45;mgr&#45;&gt;python2&#45;cherrypy</title>
<path fill="none" stroke="#444444" stroke-opacity="0.333333" d="M1202.0106,-856.0034C1189.419,-878.3653 1167.9903,-916.4216 1153.4981,-942.1589"/>
<polygon fill="#444444" fill-opacity="0.333333" stroke="#444444" stroke-opacity="0.333333" points="1150.3587,-940.6009 1148.502,-951.0318 1156.4583,-944.0355 1150.3587,-940.6009"/>
</g>
<!-- ceph&#45;mgr&#45;&gt;python2&#45;pecan -->
<g id="edge31" class="edge">
<title>ceph&#45;mgr&#45;&gt;python2&#45;pecan</title>
<path fill="none" stroke="#444444" stroke-opacity="0.333333" d="M1158.1756,-833.1998C1105.4292,-828.785 1024.2446,-821.9899 961.5885,-816.7456"/>
<polygon fill="#444444" fill-opacity="0.333333" stroke="#444444" stroke-opacity="0.333333" points="961.5618,-813.2312 951.3047,-815.8849 960.9779,-820.2068 961.5618,-813.2312"/>
</g>
<!-- ceph&#45;mgr&#45;&gt;python&#45;werkzeug -->
<g id="edge32" class="edge">
<title>ceph&#45;mgr&#45;&gt;python&#45;werkzeug</title>
<path fill="none" stroke="#444444" stroke-opacity="0.333333" d="M1212.2104,-819.564C1212.0534,-787.7253 1211.7274,-721.629 1211.5403,-683.6783"/>
<polygon fill="#444444" fill-opacity="0.333333" stroke="#444444" stroke-opacity="0.333333" points="1215.0386,-683.3051 1211.4892,-673.3225 1208.0387,-683.3397 1215.0386,-683.3051"/>
</g>
<!-- ceph&#45;mon&#45;&gt;ceph&#45;base -->
<g id="edge33" class="edge">
<title>ceph&#45;mon&#45;&gt;ceph&#45;base</title>
<path fill="none" stroke="#444444" stroke-opacity="0.333333" d="M1414.4818,-723.346C1425.6918,-766.4588 1454.14,-875.8686 1467.6124,-927.6824"/>
<polygon fill="#444444" fill-opacity="0.333333" stroke="#444444" stroke-opacity="0.333333" points="1464.2692,-928.7334 1470.1731,-937.5308 1471.0439,-926.9718 1464.2692,-928.7334"/>
</g>
<!-- ceph&#45;mon&#45;&gt;gperftools&#45;libs -->
<g id="edge34" class="edge">
<title>ceph&#45;mon&#45;&gt;gperftools&#45;libs</title>
<path fill="none" stroke="#444444" stroke-opacity="0.333333" d="M1418.5536,-723.6627C1425.2111,-737.5981 1434.4818,-757.0031 1442.0327,-772.8086"/>
<polygon fill="#444444" fill-opacity="0.333333" stroke="#444444" stroke-opacity="0.333333" points="1439.0044,-774.5891 1446.4733,-782.1035 1445.3206,-771.5716 1439.0044,-774.5891"/>
</g>
<!-- ceph&#45;mon&#45;&gt;leveldb -->
<g id="edge35" class="edge">
<title>ceph&#45;mon&#45;&gt;leveldb</title>
<path fill="none" stroke="#444444" stroke-opacity="0.333333" d="M1464.1804,-720.2648C1472.2204,-722.4713 1480.5291,-724.7517 1488.635,-726.9763"/>
<polygon fill="#444444" fill-opacity="0.333333" stroke="#444444" stroke-opacity="0.333333" points="1487.8203,-730.3821 1498.39,-729.6536 1489.673,-723.6317 1487.8203,-730.3821"/>
</g>
<!-- ceph&#45;mon&#45;&gt;python2&#45;flask -->
<g id="edge36" class="edge">
<title>ceph&#45;mon&#45;&gt;python2&#45;flask</title>
<path fill="none" stroke="#444444" stroke-opacity="0.333333" d="M1398.6243,-687.122C1377.1763,-652.1588 1330.1545,-575.5066 1305.1288,-534.7112"/>
<polygon fill="#444444" fill-opacity="0.333333" stroke="#444444" stroke-opacity="0.333333" points="1308.0611,-532.7978 1299.8487,-526.104 1302.0943,-536.4581 1308.0611,-532.7978"/>
</g>
<!-- ceph&#45;osd&#45;&gt;ceph&#45;base -->
<g id="edge37" class="edge">
<title>ceph&#45;osd&#45;&gt;ceph&#45;base</title>
<path fill="none" stroke="#444444" stroke-opacity="0.333333" d="M1406.5241,-862.7639C1419.8815,-880.9212 1440.4442,-908.8728 1455.533,-929.3836"/>
<polygon fill="#444444" fill-opacity="0.333333" stroke="#444444" stroke-opacity="0.333333" points="1452.8824,-931.6871 1461.6275,-937.6682 1458.521,-927.539 1452.8824,-931.6871"/>
</g>
<!-- ceph&#45;osd&#45;&gt;gperftools&#45;libs -->
<g id="edge38" class="edge">
<title>ceph&#45;osd&#45;&gt;gperftools&#45;libs</title>
<path fill="none" stroke="#444444" stroke-opacity="0.333333" d="M1418.6582,-826.2254C1419.5618,-825.5861 1420.4716,-824.9423 1421.3846,-824.2963"/>
<polygon fill="#444444" fill-opacity="0.333333" stroke="#444444" stroke-opacity="0.333333" points="1423.4591,-827.1161 1429.6007,-818.4829 1419.4159,-821.4018 1423.4591,-827.1161"/>
</g>
<!-- ceph&#45;osd&#45;&gt;leveldb -->
<g id="edge39" class="edge">
<title>ceph&#45;osd&#45;&gt;leveldb</title>
<path fill="none" stroke="#444444" stroke-opacity="0.333333" d="M1420.4248,-826.2249C1445.5421,-809.5974 1482.8852,-784.8764 1510.3959,-766.6646"/>
<polygon fill="#444444" fill-opacity="0.333333" stroke="#444444" stroke-opacity="0.333333" points="1512.548,-769.4373 1518.9544,-760.9988 1508.6839,-763.6004 1512.548,-769.4373"/>
</g>
<!-- python2&#45;pecan&#45;&gt;python2&#45;mako -->
<g id="edge40" class="edge">
<title>python2&#45;pecan&#45;&gt;python2&#45;mako</title>
<path fill="none" stroke="#444444" stroke-opacity="0.333333" d="M864.7731,-791.043C849.9243,-745.8563 811.1404,-627.8327 793.3538,-573.706"/>
<polygon fill="#444444" fill-opacity="0.333333" stroke="#444444" stroke-opacity="0.333333" points="796.6355,-572.4812 790.1885,-564.0736 789.9854,-574.6665 796.6355,-572.4812"/>
</g>
<!-- python2&#45;pecan&#45;&gt;python2&#45;logutils -->
<g id="edge41" class="edge">
<title>python2&#45;pecan&#45;&gt;python2&#45;logutils</title>
<path fill="none" stroke="#444444" stroke-opacity="0.333333" d="M790.0273,-811.9713C789.8621,-811.9771 789.6967,-811.9829 789.5313,-811.9887"/>
<polygon fill="#444444" fill-opacity="0.333333" stroke="#444444" stroke-opacity="0.333333" points="791.9334,-808.4022 782.0623,-812.2508 792.1789,-815.3979 791.9334,-808.4022"/>
</g>
<!-- python2&#45;pecan&#45;&gt;python2&#45;simplegeneric -->
<g id="edge42" class="edge">
<title>python2&#45;pecan&#45;&gt;python2&#45;simplegeneric</title>
<path fill="none" stroke="#444444" stroke-opacity="0.333333" d="M893.7858,-791.0167C907.3418,-780.3655 924.6509,-766.7653 939.3632,-755.2055"/>
<polygon fill="#444444" fill-opacity="0.333333" stroke="#444444" stroke-opacity="0.333333" points="941.5285,-757.9554 947.2293,-749.025 937.2037,-752.4512 941.5285,-757.9554"/>
</g>
<!-- python2&#45;pecan&#45;&gt;python2&#45;singledispatch -->
<g id="edge43" class="edge">
<title>python2&#45;pecan&#45;&gt;python2&#45;singledispatch</title>
<path fill="none" stroke="#444444" stroke-opacity="0.333333" d="M844.8606,-790.9926C817.524,-771.8086 774.2678,-741.4527 744.0914,-720.2757"/>
<polygon fill="#444444" fill-opacity="0.333333" stroke="#444444" stroke-opacity="0.333333" points="745.7613,-717.1718 735.5652,-714.2923 741.7402,-722.9017 745.7613,-717.1718"/>
</g>
<!-- python2&#45;pecan&#45;&gt;python2&#45;webob -->
<g id="edge44" class="edge">
<title>python2&#45;pecan&#45;&gt;python2&#45;webob</title>
<path fill="none" stroke="#444444" stroke-opacity="0.333333" d="M857.8512,-827.2563C841.4893,-850.2903 813.1066,-890.2468 794.2631,-916.7741"/>
<polygon fill="#444444" fill-opacity="0.333333" stroke="#444444" stroke-opacity="0.333333" points="791.2073,-915.0322 788.2696,-925.2117 796.9141,-919.086 791.2073,-915.0322"/>
</g>
<!-- python2&#45;pecan&#45;&gt;python2&#45;webtest -->
<g id="edge45" class="edge">
<title>python2&#45;pecan&#45;&gt;python2&#45;webtest</title>
<path fill="none" stroke="#444444" stroke-opacity="0.333333" d="M850.8351,-827.1783C814.2826,-860.3363 736.3552,-931.0269 694.7388,-968.7786"/>
<polygon fill="#444444" fill-opacity="0.333333" stroke="#444444" stroke-opacity="0.333333" points="692.2207,-966.3373 687.1656,-975.6485 696.9238,-971.522 692.2207,-966.3373"/>
</g>
<!-- python2&#45;flask&#45;&gt;python&#45;werkzeug -->
<g id="edge46" class="edge">
<title>python2&#45;flask&#45;&gt;python&#45;werkzeug</title>
<path fill="none" stroke="#444444" stroke-opacity="0.333333" d="M1279.2215,-525.9919C1265.8344,-551.5019 1241.2842,-598.2837 1225.6818,-628.0151"/>
<polygon fill="#444444" fill-opacity="0.333333" stroke="#444444" stroke-opacity="0.333333" points="1222.5037,-626.5392 1220.956,-637.0204 1228.7021,-629.792 1222.5037,-626.5392"/>
</g>
<!-- python2&#45;flask&#45;&gt;python2&#45;click -->
<g id="edge47" class="edge">
<title>python2&#45;flask&#45;&gt;python2&#45;click</title>
<path fill="none" stroke="#444444" stroke-opacity="0.333333" d="M1289.9545,-489.7521C1291.7426,-463.8418 1295.0406,-416.0516 1297.1493,-385.497"/>
<polygon fill="#444444" fill-opacity="0.333333" stroke="#444444" stroke-opacity="0.333333" points="1300.6442,-385.6897 1297.8411,-375.4724 1293.6608,-385.2077 1300.6442,-385.6897"/>
</g>
<!-- python2&#45;flask&#45;&gt;python2&#45;itsdangerous -->
<g id="edge48" class="edge">
<title>python2&#45;flask&#45;&gt;python2&#45;itsdangerous</title>
<path fill="none" stroke="#444444" stroke-opacity="0.333333" d="M1311.7514,-489.7563C1331.5166,-474.1735 1360.1601,-451.5911 1381.9076,-434.4455"/>
<polygon fill="#444444" fill-opacity="0.333333" stroke="#444444" stroke-opacity="0.333333" points="1384.186,-437.1061 1389.872,-428.1663 1379.8521,-431.6091 1384.186,-437.1061"/>
</g>
<!-- python2&#45;flask&#45;&gt;python2&#45;jinja2 -->
<g id="edge49" class="edge">
<title>python2&#45;flask&#45;&gt;python2&#45;jinja2</title>
<path fill="none" stroke="#444444" stroke-opacity="0.333333" d="M1259.2081,-489.8616C1229.4777,-471.6471 1183.4508,-443.4484 1150.8901,-423.4999"/>
<polygon fill="#444444" fill-opacity="0.333333" stroke="#444444" stroke-opacity="0.333333" points="1152.4435,-420.347 1142.0881,-418.1074 1148.7867,-426.3159 1152.4435,-420.347"/>
</g>
<!-- python2&#45;mako&#45;&gt;python2&#45;beaker -->
<g id="edge50" class="edge">
<title>python2&#45;mako&#45;&gt;python2&#45;beaker</title>
<path fill="none" stroke="#444444" stroke-opacity="0.333333" d="M773.036,-527.5087C751.1569,-491.5639 702.5598,-411.7245 677.1088,-369.9114"/>
<polygon fill="#444444" fill-opacity="0.333333" stroke="#444444" stroke-opacity="0.333333" points="680.0891,-368.076 671.8999,-361.3538 674.1097,-371.7157 680.0891,-368.076"/>
</g>
<!-- python2&#45;mako&#45;&gt;python2&#45;markupsafe -->
<g id="edge51" class="edge">
<title>python2&#45;mako&#45;&gt;python2&#45;markupsafe</title>
<path fill="none" stroke="#444444" stroke-opacity="0.333333" d="M812.6388,-527.8204C838.2405,-511.5895 876.0335,-487.6295 904.0302,-469.8802"/>
<polygon fill="#444444" fill-opacity="0.333333" stroke="#444444" stroke-opacity="0.333333" points="906.1762,-472.6638 912.7479,-464.3534 902.4281,-466.7518 906.1762,-472.6638"/>
</g>
<!-- python2&#45;webtest&#45;&gt;python2&#45;webob -->
<g id="edge52" class="edge">
<title>python2&#45;webtest&#45;&gt;python2&#45;webob</title>
<path fill="none" stroke="#444444" stroke-opacity="0.333333" d="M705.9212,-975.7462C712.7519,-972.5685 719.9386,-969.2251 726.9934,-965.9431"/>
<polygon fill="#444444" fill-opacity="0.333333" stroke="#444444" stroke-opacity="0.333333" points="728.8952,-968.9186 736.4858,-961.5271 725.9426,-962.5718 728.8952,-968.9186"/>
</g>
<!-- python2&#45;webtest&#45;&gt;python2&#45;beautifulsoup4 -->
<g id="edge53" class="edge">
<title>python2&#45;webtest&#45;&gt;python2&#45;beautifulsoup4</title>
<path fill="none" stroke="#444444" stroke-opacity="0.333333" d="M631.9612,-1011.7761C590.4474,-1033.0004 521.4276,-1068.2874 476.2751,-1091.3719"/>
<polygon fill="#444444" fill-opacity="0.333333" stroke="#444444" stroke-opacity="0.333333" points="474.6102,-1088.2922 467.2997,-1095.9607 477.7968,-1094.5249 474.6102,-1088.2922"/>
</g>
<!-- python2&#45;webtest&#45;&gt;python2&#45;waitress -->
<g id="edge54" class="edge">
<title>python2&#45;webtest&#45;&gt;python2&#45;waitress</title>
<path fill="none" stroke="#444444" stroke-opacity="0.333333" d="M666.9809,-1011.7852C666.7035,-1034.6035 666.2225,-1074.1746 665.8955,-1101.0783"/>
<polygon fill="#444444" fill-opacity="0.333333" stroke="#444444" stroke-opacity="0.333333" points="662.3919,-1101.3584 665.77,-1111.4002 669.3914,-1101.4435 662.3919,-1101.3584"/>
</g>
<!-- python2&#45;jinja2&#45;&gt;python2&#45;markupsafe -->
<g id="edge56" class="edge">
<title>python2&#45;jinja2&#45;&gt;python2&#45;markupsafe</title>
<path fill="none" stroke="#444444" stroke-opacity="0.333333" d="M1045.796,-418.0173C1036.5948,-420.5053 1027.0867,-423.0764 1017.726,-425.6076"/>
<polygon fill="#444444" fill-opacity="0.333333" stroke="#444444" stroke-opacity="0.333333" points="1016.7833,-422.2367 1008.0437,-428.2258 1018.6106,-428.994 1016.7833,-422.2367"/>
</g>
<!-- python2&#45;jinja2&#45;&gt;python2&#45;babel -->
<g id="edge55" class="edge">
<title>python2&#45;jinja2&#45;&gt;python2&#45;babel</title>
<path fill="none" stroke="#444444" stroke-opacity="0.333333" d="M1113.7139,-381.9635C1115.4062,-356.848 1118.4912,-311.0617 1120.4925,-281.3605"/>
<polygon fill="#444444" fill-opacity="0.333333" stroke="#444444" stroke-opacity="0.333333" points="1123.9959,-281.4266 1121.1761,-271.2139 1117.0117,-280.9559 1123.9959,-281.4266"/>
</g>
<!-- python2&#45;beaker&#45;&gt;pycryptopp -->
<g id="edge58" class="edge">
<title>python2&#45;beaker&#45;&gt;pycryptopp</title>
<path fill="none" stroke="#444444" stroke-opacity="0.333333" d="M663.1475,-325.1589C667.1004,-294.1182 675.2159,-230.3904 679.9203,-193.4485"/>
<polygon fill="#444444" fill-opacity="0.333333" stroke="#444444" stroke-opacity="0.333333" points="683.4151,-193.7109 681.2065,-183.3488 676.4711,-192.8265 683.4151,-193.7109"/>
</g>
<!-- python2&#45;beaker&#45;&gt;python2&#45;paste -->
<g id="edge59" class="edge">
<title>python2&#45;beaker&#45;&gt;python2&#45;paste</title>
<path fill="none" stroke="#444444" stroke-opacity="0.333333" d="M627.8199,-325.0731C605.568,-312.8612 576.0338,-296.6528 552.1452,-283.5427"/>
<polygon fill="#444444" fill-opacity="0.333333" stroke="#444444" stroke-opacity="0.333333" points="553.7435,-280.4275 543.293,-278.6846 550.3757,-286.5641 553.7435,-280.4275"/>
</g>
<!-- python2&#45;beautifulsoup4&#45;&gt;python2&#45;lxml -->
<g id="edge61" class="edge">
<title>python2&#45;beautifulsoup4&#45;&gt;python2&#45;lxml</title>
<path fill="none" stroke="#444444" stroke-opacity="0.333333" d="M409.0634,-1132.2116C388.6158,-1152.8241 359.2996,-1186.4919 341.2917,-1210.0056"/>
<polygon fill="#444444" fill-opacity="0.333333" stroke="#444444" stroke-opacity="0.333333" points="338.3785,-1208.0574 335.2062,-1218.1662 343.99,-1212.2421 338.3785,-1208.0574"/>
</g>
<!-- pycryptopp&#45;&gt;cryptopp -->
<g id="edge57" class="edge">
<title>pycryptopp&#45;&gt;cryptopp</title>
<path fill="none" stroke="#444444" stroke-opacity="0.333333" d="M683.7761,-147.203C684.147,-122.0312 684.8232,-76.142 685.2619,-46.3741"/>
<polygon fill="#444444" fill-opacity="0.333333" stroke="#444444" stroke-opacity="0.333333" points="688.7639,-46.2552 685.4117,-36.2047 681.7647,-46.152 688.7639,-46.2552"/>
</g>
<!-- python2&#45;paste&#45;&gt;python2&#45;tempita -->
<g id="edge60" class="edge">
<title>python2&#45;paste&#45;&gt;python2&#45;tempita</title>
<path fill="none" stroke="#444444" stroke-opacity="0.333333" d="M490.7652,-242.5018C474.4849,-227.4495 451.1462,-205.8712 433.1208,-189.2055"/>
<polygon fill="#444444" fill-opacity="0.333333" stroke="#444444" stroke-opacity="0.333333" points="435.4757,-186.6159 425.757,-182.3971 430.7235,-191.7558 435.4757,-186.6159"/>
</g>
<!-- python2&#45;lxml&#45;&gt;python2&#45;beautifulsoup4 -->
<g id="edge62" class="edge">
<title>python2&#45;lxml&#45;&gt;python2&#45;beautifulsoup4</title>
<path fill="none" stroke="#444444" stroke-opacity="0.333333" d="M348.2566,-1218.2884C368.7042,-1197.6759 398.0204,-1164.0081 416.0283,-1140.4944"/>
<polygon fill="#444444" fill-opacity="0.333333" stroke="#444444" stroke-opacity="0.333333" points="418.9415,-1142.4426 422.1138,-1132.3338 413.33,-1138.2579 418.9415,-1142.4426"/>
</g>
<!-- python2&#45;lxml&#45;&gt;python2&#45;html5lib -->
<g id="edge63" class="edge">
<title>python2&#45;lxml&#45;&gt;python2&#45;html5lib</title>
<path fill="none" stroke="#444444" stroke-opacity="0.333333" d="M310.0344,-1254.5183C290.5454,-1277.3501 256.9182,-1316.745 234.7089,-1342.7637"/>
<polygon fill="#444444" fill-opacity="0.333333" stroke="#444444" stroke-opacity="0.333333" points="232.0415,-1340.4977 228.2113,-1350.3759 237.3657,-1345.0423 232.0415,-1340.4977"/>
</g>
<!-- python2&#45;lxml&#45;&gt;python2&#45;cssselect -->
<g id="edge64" class="edge">
<title>python2&#45;lxml&#45;&gt;python2&#45;cssselect</title>
<path fill="none" stroke="#444444" stroke-opacity="0.333333" d="M256.9864,-1218.3766C250.3188,-1216.6226 243.5185,-1214.8337 236.7629,-1213.0565"/>
<polygon fill="#444444" fill-opacity="0.333333" stroke="#444444" stroke-opacity="0.333333" points="237.4792,-1209.6259 226.9178,-1210.4666 235.6983,-1216.3956 237.4792,-1209.6259"/>
</g>
<!-- python2&#45;html5lib&#45;&gt;python2&#45;webencodings -->
<g id="edge65" class="edge">
<title>python2&#45;html5lib&#45;&gt;python2&#45;webencodings</title>
<path fill="none" stroke="#444444" stroke-opacity="0.333333" d="M196.1477,-1387.0767C181.0063,-1404.02 158.3759,-1429.3436 141.4101,-1448.3285"/>
<polygon fill="#444444" fill-opacity="0.333333" stroke="#444444" stroke-opacity="0.333333" points="138.5778,-1446.2452 134.5241,-1456.0339 143.7974,-1450.9096 138.5778,-1446.2452"/>
</g>
<!-- ceph&#45;base -->
<g id="node1" class="node">
<title>ceph&#45;base</title>
<text text-anchor="middle" x="1474.9" y="-952.01" font-family="monospace" font-size="14.00" fill="#000000">ceph&#45;base</text>
</g>
<!-- ceph&#45;common -->
<g id="node2" class="node">
<title>ceph&#45;common</title>
<text text-anchor="middle" x="1669.5" y="-863.98" font-family="monospace" font-size="14.00" fill="#000000">ceph&#45;common</text>
</g>
<!-- ceph&#45;selinux -->
<g id="node3" class="node">
<title>ceph&#45;selinux</title>
<text text-anchor="middle" x="1458.2" y="-1137.8" font-family="monospace" font-size="14.00" fill="#000000">ceph&#45;selinux</text>
</g>
<!-- cryptsetup -->
<g id="node4" class="node">
<title>cryptsetup</title>
<text text-anchor="middle" x="1366.8" y="-1071.9" font-family="monospace" font-size="14.00" fill="#000000">cryptsetup</text>
</g>
<!-- libcephfs2 -->
<g id="node5" class="node">
<title>libcephfs2</title>
<text text-anchor="middle" x="1681.9" y="-961.92" font-family="monospace" font-size="14.00" fill="#000000">libcephfs2</text>
</g>
<!-- librbd1 -->
<g id="node6" class="node">
<title>librbd1</title>
<text text-anchor="middle" x="1581.8" y="-907.99" font-family="monospace" font-size="14.00" fill="#000000">librbd1</text>
</g>
<!-- librgw2 -->
<g id="node7" class="node">
<title>librgw2</title>
<text text-anchor="middle" x="1589.8" y="-1106.3" font-family="monospace" font-size="14.00" fill="#000000">librgw2</text>
</g>
<!-- gperftools&#45;libs -->
<g id="node8" class="node">
<title>gperftools&#45;libs</title>
<text text-anchor="middle" x="1455.2" y="-796.67" font-family="monospace" font-size="14.00" fill="#000000">gperftools&#45;libs</text>
</g>
<!-- leveldb -->
<g id="node9" class="node">
<title>leveldb</title>
<text text-anchor="middle" x="1546.4" y="-739.13" font-family="monospace" font-size="14.00" fill="#000000">leveldb</text>
</g>
<!-- libradosstriper1 -->
<g id="node10" class="node">
<title>libradosstriper1</title>
<text text-anchor="middle" x="1939.9" y="-788.23" font-family="monospace" font-size="14.00" fill="#000000">libradosstriper1</text>
</g>
<!-- python2&#45;prettytable -->
<g id="node11" class="node">
<title>python2&#45;prettytable</title>
<text text-anchor="middle" x="1818.4" y="-686.55" font-family="monospace" font-size="14.00" fill="#000000">python2&#45;prettytable</text>
</g>
<!-- python&#45;cephfs -->
<g id="node12" class="node">
<title>python&#45;cephfs</title>
<text text-anchor="middle" x="1836.6" y="-996.6" font-family="monospace" font-size="14.00" fill="#000000">python&#45;cephfs</text>
</g>
<!-- python&#45;rados -->
<g id="node13" class="node">
<title>python&#45;rados</title>
<text text-anchor="middle" x="1802" y="-916.98" font-family="monospace" font-size="14.00" fill="#000000">python&#45;rados</text>
</g>
<!-- python&#45;rbd -->
<g id="node14" class="node">
<title>python&#45;rbd</title>
<text text-anchor="middle" x="1770.7" y="-819.96" font-family="monospace" font-size="14.00" fill="#000000">python&#45;rbd</text>
</g>
<!-- python&#45;rgw -->
<g id="node15" class="node">
<title>python&#45;rgw</title>
<text text-anchor="middle" x="1712.1" y="-1048.9" font-family="monospace" font-size="14.00" fill="#000000">python&#45;rgw</text>
</g>
<!-- ceph -->
<g id="node16" class="node">
<title>ceph</title>
<text text-anchor="middle" x="1316.2" y="-795.44" font-family="monospace" font-size="14.00" fill="#000000">ceph</text>
</g>
<!-- ceph&#45;mds -->
<g id="node17" class="node">
<title>ceph&#45;mds</title>
<text text-anchor="middle" x="1451.4" y="-884.76" font-family="monospace" font-size="14.00" fill="#000000">ceph&#45;mds</text>
</g>
<!-- ceph&#45;mgr -->
<g id="node18" class="node">
<title>ceph&#45;mgr</title>
<text text-anchor="middle" x="1212.3" y="-834.03" font-family="monospace" font-size="14.00" fill="#000000">ceph&#45;mgr</text>
</g>
<!-- ceph&#45;mon -->
<g id="node19" class="node">
<title>ceph&#45;mon</title>
<text text-anchor="middle" x="1409.8" y="-701.64" font-family="monospace" font-size="14.00" fill="#000000">ceph&#45;mon</text>
</g>
<!-- ceph&#45;osd -->
<g id="node20" class="node">
<title>ceph&#45;osd</title>
<text text-anchor="middle" x="1393" y="-840.68" font-family="monospace" font-size="14.00" fill="#000000">ceph&#45;osd</text>
</g>
<!-- python2&#45;cherrypy -->
<g id="node21" class="node">
<title>python2&#45;cherrypy</title>
<text text-anchor="middle" x="1138.3" y="-965.45" font-family="monospace" font-size="14.00" fill="#000000">python2&#45;cherrypy</text>
</g>
<!-- python2&#45;pecan -->
<g id="node22" class="node">
<title>python2&#45;pecan</title>
<text text-anchor="middle" x="870.72" y="-805.44" font-family="monospace" font-size="14.00" fill="#000000">python2&#45;pecan</text>
</g>
<!-- python&#45;werkzeug -->
<g id="node23" class="node">
<title>python&#45;werkzeug</title>
<text text-anchor="middle" x="1211.4" y="-651.53" font-family="monospace" font-size="14.00" fill="#000000">python&#45;werkzeug</text>
</g>
<!-- python2&#45;flask -->
<g id="node24" class="node">
<title>python2&#45;flask</title>
<text text-anchor="middle" x="1288.7" y="-504.23" font-family="monospace" font-size="14.00" fill="#000000">python2&#45;flask</text>
</g>
<!-- python2&#45;mako -->
<g id="node25" class="node">
<title>python2&#45;mako</title>
<text text-anchor="middle" x="784.2" y="-542.15" font-family="monospace" font-size="14.00" fill="#000000">python2&#45;mako</text>
</g>
<!-- python2&#45;logutils -->
<g id="node26" class="node">
<title>python2&#45;logutils</title>
<text text-anchor="middle" x="684.9" y="-811.96" font-family="monospace" font-size="14.00" fill="#000000">python2&#45;logutils</text>
</g>
<!-- python2&#45;simplegeneric -->
<g id="node27" class="node">
<title>python2&#45;simplegeneric</title>
<text text-anchor="middle" x="970.17" y="-727.3" font-family="monospace" font-size="14.00" fill="#000000">python2&#45;simplegeneric</text>
</g>
<!-- python2&#45;singledispatch -->
<g id="node28" class="node">
<title>python2&#45;singledispatch</title>
<text text-anchor="middle" x="709.77" y="-692.49" font-family="monospace" font-size="14.00" fill="#000000">python2&#45;singledispatch</text>
</g>
<!-- python2&#45;webob -->
<g id="node29" class="node">
<title>python2&#45;webob</title>
<text text-anchor="middle" x="775.3" y="-939.77" font-family="monospace" font-size="14.00" fill="#000000">python2&#45;webob</text>
</g>
<!-- python2&#45;webtest -->
<g id="node30" class="node">
<title>python2&#45;webtest</title>
<text text-anchor="middle" x="667.2" y="-990.06" font-family="monospace" font-size="14.00" fill="#000000">python2&#45;webtest</text>
</g>
<!-- python2&#45;click -->
<g id="node31" class="node">
<title>python2&#45;click</title>
<text text-anchor="middle" x="1299.1" y="-353.53" font-family="monospace" font-size="14.00" fill="#000000">python2&#45;click</text>
</g>
<!-- python2&#45;itsdangerous -->
<g id="node32" class="node">
<title>python2&#45;itsdangerous</title>
<text text-anchor="middle" x="1412.8" y="-406.39" font-family="monospace" font-size="14.00" fill="#000000">python2&#45;itsdangerous</text>
</g>
<!-- python2&#45;jinja2 -->
<g id="node33" class="node">
<title>python2&#45;jinja2</title>
<text text-anchor="middle" x="1112.5" y="-396.28" font-family="monospace" font-size="14.00" fill="#000000">python2&#45;jinja2</text>
</g>
<!-- python2&#45;beaker -->
<g id="node34" class="node">
<title>python2&#45;beaker</title>
<text text-anchor="middle" x="660.85" y="-339.5" font-family="monospace" font-size="14.00" fill="#000000">python2&#45;beaker</text>
</g>
<!-- python2&#45;markupsafe -->
<g id="node35" class="node">
<title>python2&#45;markupsafe</title>
<text text-anchor="middle" x="941.24" y="-442.59" font-family="monospace" font-size="14.00" fill="#000000">python2&#45;markupsafe</text>
</g>
<!-- python2&#45;beautifulsoup4 -->
<g id="node36" class="node">
<title>python2&#45;beautifulsoup4</title>
<text text-anchor="middle" x="431.82" y="-1110.4" font-family="monospace" font-size="14.00" fill="#000000">python2&#45;beautifulsoup4</text>
</g>
<!-- python2&#45;waitress -->
<g id="node37" class="node">
<title>python2&#45;waitress</title>
<text text-anchor="middle" x="665.55" y="-1125.8" font-family="monospace" font-size="14.00" fill="#000000">python2&#45;waitress</text>
</g>
<!-- python2&#45;babel -->
<g id="node38" class="node">
<title>python2&#45;babel</title>
<text text-anchor="middle" x="1122.4" y="-249.35" font-family="monospace" font-size="14.00" fill="#000000">python2&#45;babel</text>
</g>
<!-- pycryptopp -->
<g id="node39" class="node">
<title>pycryptopp</title>
<text text-anchor="middle" x="683.51" y="-161.56" font-family="monospace" font-size="14.00" fill="#000000">pycryptopp</text>
</g>
<!-- cryptopp -->
<g id="node40" class="node">
<title>cryptopp</title>
<text text-anchor="middle" x="685.68" y="-14.3" font-family="monospace" font-size="14.00" fill="#000000">cryptopp</text>
</g>
<!-- python2&#45;paste -->
<g id="node41" class="node">
<title>python2&#45;paste</title>
<text text-anchor="middle" x="510.34" y="-256.9" font-family="monospace" font-size="14.00" fill="#000000">python2&#45;paste</text>
</g>
<!-- python2&#45;tempita -->
<g id="node42" class="node">
<title>python2&#45;tempita</title>
<text text-anchor="middle" x="406.27" y="-160.68" font-family="monospace" font-size="14.00" fill="#000000">python2&#45;tempita</text>
</g>
<!-- python2&#45;lxml -->
<g id="node43" class="node">
<title>python2&#45;lxml</title>
<text text-anchor="middle" x="325.5" y="-1232.7" font-family="monospace" font-size="14.00" fill="#000000">python2&#45;lxml</text>
</g>
<!-- python2&#45;html5lib -->
<g id="node44" class="node">
<title>python2&#45;html5lib</title>
<text text-anchor="middle" x="212.57" y="-1365" font-family="monospace" font-size="14.00" fill="#000000">python2&#45;html5lib</text>
</g>
<!-- python2&#45;cssselect -->
<g id="node45" class="node">
<title>python2&#45;cssselect</title>
<text text-anchor="middle" x="158.24" y="-1188.7" font-family="monospace" font-size="14.00" fill="#000000">python2&#45;cssselect</text>
</g>
<!-- python2&#45;webencodings -->
<g id="node46" class="node">
<title>python2&#45;webencodings</title>
<text text-anchor="middle" x="118.29" y="-1470.5" font-family="monospace" font-size="14.00" fill="#000000">python2&#45;webencodings</text>
</g>
</g>
</svg>
