<?xml version="1.0" encoding="UTF-8" standalone="no"?>
<!DOCTYPE svg PUBLIC "-//W3C//DTD SVG 1.1//EN"
 "http://www.w3.org/Graphics/SVG/1.1/DTD/svg11.dtd">
<!-- Generated by graphviz version 2.40.1 (20161225.0304)
 -->
<!-- Title: G Pages: 1 -->
<svg width="1074pt" height="825pt"
 viewBox="0.00 0.00 1073.69 825.18" xmlns="http://www.w3.org/2000/svg" xmlns:xlink="http://www.w3.org/1999/xlink">
<g id="graph0" class="graph" transform="scale(1 1) rotate(0) translate(78.161 710.7903)">
<title>G</title>
<polygon fill="#dae2ff" stroke="transparent" points="-78.161,114.3854 -78.161,-710.7903 995.5291,-710.7903 995.5291,114.3854 -78.161,114.3854"/>
<polygon fill="#fbb4ae" stroke="#fbb4ae" points="568.1748,-178.5749 571.1646,-178.4043 612.7844,-175.0746 630.8226,-189.5263 616.4222,-258.6896 613.9952,-273.979 613.403,-284.5059 613.3853,-284.6172 611.9114,-298.3548 591.3081,-397.31 566.7344,-401.4306 556.7392,-403.444 546.1165,-405.9411 545.9168,-405.9947 538.4999,-408.1114 523.0934,-413.2913 500.9375,-421.1086 504.4086,-513.7149 504.2953,-517.7737 408.1867,-525.3546 399.5336,-523.3733 397.3608,-506.5125 396.7567,-400.1094 396.0854,-400.2231 393.6046,-402.7004 313.7365,-407.0663 286.0513,-406.9621 286.0513,-406.9621 313.7365,-407.0663 393.6046,-402.7004 396.0854,-400.2231 396.7567,-400.1094 397.3608,-506.5125 399.5336,-523.3733 408.1867,-525.3546 504.2953,-517.7737 504.6268,-538.7001 504.9533,-547.3571 505.0658,-549.2479 506.8728,-597.4568 427.7491,-651.4924 412.0263,-648.2919 411.7085,-648.2328 389.1325,-640.2451 383.5055,-638.7114 373.3759,-636.1545 359.6868,-633.5311 361.4305,-564.6093 357.6543,-533.7151 361.7338,-530.2191 361.2091,-529.5584 358.7588,-527.5873 358.7588,-527.5873 361.2091,-529.5584 361.7338,-530.2191 357.6543,-533.7151 361.4305,-564.6093 359.6868,-633.5311 356.3487,-633.095 347.5722,-632.1258 340.0106,-631.5973 337.0209,-631.5094 324.19,-631.6512 326.3623,-551.1708 330.1607,-530.3733 329.5804,-530.2515 329.5804,-530.2515 330.1607,-530.3733 326.3623,-551.1708 324.19,-631.6512 320.3284,-631.85 318.3389,-631.9927 305.4821,-633.4362 280.089,-637.3113 245.5171,-620.1788 184.125,-560.0803 168.4186,-545.2723 124.4405,-535.988 120.7697,-529.805 73.4698,-502.1999 70.7539,-500.675 70.6023,-500.6029 56.5068,-494.1894 49.1976,-491.0214 50.012,-396.5554 52.9144,-382.6384 55.8438,-382.6384 59.1636,-381.2737 62.8998,-378.0761 62.9774,-378.0761 63.7185,-377.9127 66.9278,-377.9127 70.5843,-440.7359 71.3973,-377.7633 72.1469,-377.5976 72.8583,-377.5976 74.448,-376.1274 78.0573,-338.188 79.0678,-371.5214 157.1373,-359.7096 154.3755,-372.9883 151.5493,-389.0558 150.0769,-402.3739 206.6591,-407.8511 206.6591,-407.8511 150.0769,-402.3739 151.5493,-389.0558 154.3755,-372.9883 157.1373,-359.7096 79.0678,-371.5214 78.0573,-338.188 74.448,-376.1274 72.8583,-377.5976 72.1469,-377.5976 71.3973,-377.7633 70.5843,-440.7359 66.9278,-377.9127 63.7185,-377.9127 62.9774,-378.0761 62.8998,-378.0761 59.1636,-381.2737 55.8438,-382.6384 52.9144,-382.6384 50.012,-396.5554 49.1976,-491.0214 39.5358,-487.2534 35.0212,-485.7867 21.2349,-481.6037 29.062,-385.0817 32.6569,-383.0789 35.9837,-378.4768 39.1734,-422.3395 40.7775,-378.169 44.7762,-378.169 45.5833,-377.0873 47.1439,-375.7846 47.1439,-375.7846 45.5833,-377.0873 44.7762,-378.169 40.7775,-378.169 39.1734,-422.3395 35.9837,-378.4768 32.6569,-383.0789 29.062,-385.0817 21.2349,-481.6037 -13.607,-471.8029 -57.2353,-443.4657 -64.359,-394.3265 -70.9508,-360.69 -74.161,-347.5562 -68.7106,-324.5933 -33.0471,-289.3147 21.9051,-258.8571 33.9017,-251.9305 33.9453,-251.9094 43.3536,-246.9701 53.6488,-241.1424 64.0661,-234.6062 69.0054,-231.097 76.4304,-228.2032 78.4198,-219.1905 94.9281,-186.0062 104.2766,-166.2305 104.7655,-165.1348 108.1033,-157.1904 135.3864,-87.8948 212.2397,-52.6923 235.7354,6.8458 251.8206,20.7778 288.381,41.9103 318.8414,36.4915 321.0681,36.1403 330.3172,34.8681 333.2366,34.5258 344.0786,33.6936 342.115,-47.8657 338.9824,-67.2866 338.3254,-68.237 336.6931,-67.2089 336.6931,-67.2089 338.3254,-68.237 338.6865,-69.2453 338.6865,-73.168 336.7414,-74.372 332.2741,-75.3486 328.174,-74.4395 329.4592,-134.1426 329.4736,-134.3949 329.3417,-144.1167 337.6328,-151.579 338.8658,-152.7506 264.8459,-161.868 263.6431,-135.9607 260.3721,-165.3036 258.4072,-166.7221 255.7505,-148.4759 257.042,-95.5702 245.4445,-85.7812 239.4148,-80.1479 240.3768,-139.0767 238.5323,-163.8538 235.6784,-163.8538 231.1803,-165.79 227.9967,-168.4766 228.9966,-169.7256 230.8091,-171.1422 234.8152,-172.772 234.8152,-172.772 230.8091,-171.1422 228.9966,-169.7256 227.9967,-168.4766 231.1803,-165.79 235.6784,-163.8538 238.5323,-163.8538 240.3768,-139.0767 239.4148,-80.1479 245.4445,-85.7812 257.042,-95.5702 255.7505,-148.4759 258.4072,-166.7221 256.9448,-168.4643 257.3,-168.8785 260.8799,-171.57 261.9117,-171.9199 264.8824,-174.877 349.318,-185.2578 341.9403,-191.7444 338.1306,-194.781 327.0785,-202.7158 320.64,-206.8084 316.5358,-209.2472 308.4653,-213.3841 309.3192,-256.6942 309.3192,-256.6942 308.4653,-213.3841 316.5358,-209.2472 320.64,-206.8084 327.0785,-202.7158 327.483,-229.9785 326.0247,-273.5612 322.7192,-275.5315 320.7676,-277.4941 322.8886,-279.6579 325.981,-281.5095 329.7278,-282.2699 329.7278,-282.2699 325.981,-281.5095 322.8886,-279.6579 320.7676,-277.4941 322.7192,-275.5315 326.0247,-273.5612 327.483,-229.9785 327.0785,-202.7158 338.1306,-194.781 341.9403,-191.7444 349.318,-185.2578 264.8824,-174.877 261.9117,-171.9199 260.8799,-171.57 257.3,-168.8785 256.9448,-168.4643 258.4072,-166.7221 260.3721,-165.3036 263.6431,-135.9607 264.8459,-161.868 338.8658,-152.7506 337.6328,-151.579 329.3417,-144.1167 329.4736,-134.3949 329.4592,-134.1426 328.174,-74.4395 332.2741,-75.3486 336.7414,-74.372 338.6865,-73.168 338.6865,-69.2453 338.3254,-68.237 338.9824,-67.2866 342.115,-47.8657 344.0786,33.6936 355.2461,33.2895 432.798,.7458 426.9095,-64.7609 426.8491,-74.098 426.3474,-88.6632 426.345,-89.0406 418.9673,-171.1142 437.9568,-187.8374 498.7099,-181.1152 519.4356,-179.2691 528.5506,-179.2545 530.5694,-179.1583 530.7303,-179.1611 538.9881,-179.1185 541.3577,-179.1582 546.7154,-179.0005 546.9774,-179.0042 554.0734,-178.9425 555.7133,-178.9999 568.1748,-178.5749 568.1748,-178.5749"/>
<polygon fill="#fed9a6" stroke="#fed9a6" points="511.5718,29.2526 508.4138,28.6531 496.8733,26.6725 459.6933,14.1284 432.798,.7458 426.9095,-64.7609 426.8491,-74.098 426.3474,-88.6632 426.345,-89.0406 418.9673,-171.1142 437.9568,-187.8374 498.7099,-181.1152 509.5375,-92.2609 512.5075,-90.349 514.506,-87.3247 515.5609,-86.5045 519.0914,-110.8119 519.6608,-127.0896 524.9509,-87.7116 527.3842,-89.1653 531.0137,-89.9092 531.0137,-89.9092 527.3842,-89.1653 524.9509,-87.7116 519.6608,-127.0896 519.0914,-110.8119 515.5609,-86.5045 514.506,-87.3247 512.5075,-90.349 509.5375,-92.2609 498.7099,-181.1152 519.4356,-179.2691 528.5506,-179.2545 530.5694,-179.1583 530.7303,-179.1611 538.9881,-179.1185 541.3577,-179.1582 546.7154,-179.0005 546.9774,-179.0042 554.0734,-178.9425 555.7133,-178.9999 568.1748,-178.5749 571.1646,-178.4043 612.7844,-175.0746 630.8226,-189.5263 616.4222,-258.6896 613.9952,-273.979 613.403,-284.5059 613.3853,-284.6172 611.9114,-298.3548 591.3081,-397.31 601.3604,-399.658 655.7709,-388.724 660.3604,-387.9056 663.7205,-295.2585 664.6866,-293.7703 664.2467,-292.4804 664.2467,-291.1953 665.1177,-288.7743 667.5898,-287.2305 671.2866,-286.4736 674.4308,-287.1147 677.4098,-289.0433 677.4098,-289.0433 677.4098,-289.0433 677.4098,-289.0433 674.4308,-287.1147 671.2866,-286.4736 667.5898,-287.2305 665.1177,-288.7743 664.2467,-291.1953 664.2467,-292.4804 664.6866,-293.7703 663.7205,-295.2585 660.3604,-387.9056 667.2349,-386.8359 680.6234,-385.363 686.5038,-384.986 693.4339,-384.7002 704.1906,-383.7592 710.9859,-382.8513 716.3325,-381.8899 726.2108,-379.6544 726.2402,-379.647 734.1804,-387.2308 735.6978,-388.5482 812.7572,-467.6841 817.2931,-471.8333 830.8646,-485.472 832.4176,-487.2338 842.3351,-488.7398 905.8141,-500.9236 935.3755,-434.8111 937.656,-386.6623 940.5977,-362.0953 841.3685,-374.1635 837.8606,-377.3104 837.6771,-377.6215 836.8453,-378.3069 834.4753,-376.8441 830.0027,-375.8856 826.7512,-376.5764 826.7512,-376.5764 830.0027,-375.8856 834.4753,-376.8441 836.8453,-378.3069 837.6771,-377.6215 837.8606,-377.3104 841.3685,-374.1635 940.5977,-362.0953 942.3776,-349.6826 974.0004,-315.5599 983.5374,-284.2928 885.1472,-262.2253 883.0207,-259.9927 881.5942,-259.5577 878.27,-257.1469 876.7612,-278.8172 872.2825,-256.0064 871.4222,-256.0064 871.1622,-256.0591 867.3057,-256.0591 867.0092,-255.9969 866.2742,-255.9969 862.7918,-258.9432 858.788,-260.6173 855.9454,-260.6173 855.9454,-260.6173 858.788,-260.6173 862.7918,-258.9432 866.2742,-255.9969 862.8251,-253.0809 858.7767,-251.3853 855.6739,-251.3853 855.6739,-251.3853 858.7767,-251.3853 862.8251,-253.0809 866.2742,-255.9969 867.0092,-255.9969 867.3057,-256.0591 871.1622,-256.0591 871.4222,-256.0064 872.2825,-256.0064 876.7612,-278.8172 878.27,-257.1469 877.163,-255.8454 877.163,-255.8454 878.27,-257.1469 881.5942,-259.5577 883.0207,-259.9927 885.1472,-262.2253 983.5374,-284.2928 991.5291,-260.1344 985.3786,-246.4314 909.1085,-252.1335 909.1085,-252.1335 985.3786,-246.4314 959.399,-175.9283 951.2261,-165.548 950.8489,-161.084 948.9243,-129.9006 948.317,-114.0964 862.5093,-123.8894 849.3782,-122.7643 846.8988,-97.4082 845.1737,-126.1315 842.9486,-129.7105 843.3323,-129.9098 845.5907,-132.024 846.0868,-132.9628 843.3558,-159.7436 842.907,-192.7197 838.7264,-192.8239 835.3835,-193.0222 832.1866,-192.9924 831.7148,-232.0844 831.7148,-232.0844 832.1866,-192.9924 835.3835,-193.0222 838.7264,-192.8239 842.907,-192.7197 843.3558,-159.7436 846.0868,-132.9628 845.5907,-132.024 843.3323,-129.9098 842.9486,-129.7105 845.1737,-126.1315 846.8988,-97.4082 849.3782,-122.7643 862.5093,-123.8894 948.317,-114.0964 948.3646,-108.1949 913.641,-35.8517 849.2378,-13.0304 846.7729,-13.0262 833.7053,-12.1037 827.7874,-11.5841 828.5765,-93.0759 826.733,-124.8393 823.3166,-125.5161 820.1908,-127.3777 817.813,-129.8224 818.5612,-130.5617 823.4395,-133.6046 826.5955,-134.2527 830.844,-133.3454 830.844,-133.3454 826.5955,-134.2527 823.4395,-133.6046 818.5612,-130.5617 817.813,-129.8224 820.1908,-127.3777 823.3166,-125.5161 826.733,-124.8393 828.5765,-93.0759 827.7874,-11.5841 822.7376,-10.9669 814.586,-9.8304 779.8884,9.839 748.4526,-16.9384 747.1421,-18 735.666,-29.767 727.7937,-36.9361 716.2393,-45.519 709.8642,-49.5206 700.8589,-54.1547 692.033,-57.6828 668.1001,-64.487 659.3578,-67.9768 651.7656,-71.8741 645.9356,-75.5341 638.6683,-80.5127 629.0347,-88.1918 627.8183,-89.2935 625.368,-91.6544 622.5609,-94.003 621.0293,-92.4361 620.4528,-91.88 620.2169,-91.6656 600.82,-69.9229 563.9861,-24.2194 558.4768,-18.4666 552.124,-11.3924 542.6532,-2.2213 541.7164,-1.113 529.2903,14.3447 523.1518,22.309 517.5339,30.5147 516.3447,30.2456 511.5718,29.2526 511.5718,29.2526"/>
<polygon fill="#ccebc5" stroke="#ccebc5" points="612.8027,-646.3185 610.261,-645.0917 506.8728,-597.4568 505.0658,-549.2479 504.9533,-547.3571 504.6268,-538.7001 504.2953,-517.7737 504.4086,-513.7149 500.9375,-421.1086 523.0934,-413.2913 538.4999,-408.1114 545.9168,-405.9947 546.1165,-405.9411 556.7392,-403.444 566.7344,-401.4306 591.3081,-397.31 601.3604,-399.658 611.3165,-418.5337 612.4423,-457.9942 612.135,-496.1133 614.6996,-520.2692 614.6996,-520.2692 612.135,-496.1133 612.4423,-457.9942 611.3165,-418.5337 625.6457,-441.933 638.9558,-460.0081 639.5996,-460.8162 638.3447,-515.9009 673.7379,-515.5497 655.6298,-480.0923 679.1051,-481.9272 679.1051,-481.9272 655.6298,-480.0923 673.7379,-515.5497 638.3447,-515.9009 639.5996,-460.8162 638.9558,-460.0081 625.6457,-441.933 611.3165,-418.5337 601.3604,-399.658 655.7709,-388.724 660.3604,-387.9056 667.2349,-386.8359 680.6234,-385.363 686.5038,-384.986 693.4339,-384.7002 694.9241,-442.6359 694.9241,-442.6359 693.4339,-384.7002 704.1906,-383.7592 710.9859,-382.8513 711.1603,-450.0754 708.7386,-474.8342 706.0817,-476.5366 704.4233,-478.3888 705.4422,-479.5403 709.0681,-481.987 709.0681,-481.987 705.4422,-479.5403 704.4233,-478.3888 706.0817,-476.5366 708.7386,-474.8342 711.1603,-450.0754 710.9859,-382.8513 716.3325,-381.8899 726.2108,-379.6544 726.2402,-379.647 734.1804,-387.2308 731.3417,-454.3216 731.3417,-454.3216 734.1804,-387.2308 735.6978,-388.5482 812.7572,-467.6841 817.2931,-471.8333 830.8646,-485.472 832.4176,-487.2338 842.3351,-488.7398 905.8141,-500.9236 915.2576,-520.4249 914.8315,-571.2657 914.9653,-575.2577 907.873,-608.3734 897.3102,-671.3355 877.8333,-692.0633 837.7894,-699.7162 834.7066,-700.0781 806.1063,-699.7462 797.9684,-699.808 784.3517,-700.6964 734.7226,-706.7903 668.283,-651.6275 642.0531,-651.2894 624.5728,-651.6583 623.1307,-651.7622 612.8027,-646.3185 615.657,-545.7794 613.3492,-525.4351 615.9267,-522.9018 619.0453,-525.8726 621.847,-527.1069 626.0239,-527.1069 626.0239,-527.1069 621.847,-527.1069 619.0453,-525.8726 615.9267,-522.9018 613.3492,-525.4351 615.657,-545.7794 612.8027,-646.3185 612.8027,-646.3185"/>
<polygon fill="#fbb4ae" stroke="#fbb4ae" points="558.4768,-18.4666 563.9861,-24.2194 600.82,-69.9229 620.2169,-91.6656 620.4528,-91.88 621.0293,-92.4361 622.5609,-94.003 625.368,-91.6544 627.8183,-89.2935 629.0347,-88.1918 638.6683,-80.5127 645.9356,-75.5341 651.7656,-71.8741 659.3578,-67.9768 668.1001,-64.487 667.332,-42.9245 668.8601,-24.9059 736.8115,-18 718.2568,-17.3714 718.2568,-17.3714 736.8115,-18 668.8601,-24.9059 667.332,-42.9245 668.1001,-64.487 692.033,-57.6828 700.8589,-54.1547 709.8642,-49.5206 716.2393,-45.519 727.7937,-36.9361 735.666,-29.767 747.1421,-18 748.4526,-16.9384 779.8884,9.839 763.2018,38.9642 698.1602,88.9728 668.4426,101.1884 654.2513,107.9127 649.4496,110.3854 644.6705,108.9775 642.9318,108.4961 632.9529,106.2557 619.1866,103.6459 597.2243,100.6403 575.5488,91.9086 517.5339,30.5147 523.1518,22.309 529.2903,14.3447 541.7164,-1.113 542.6532,-2.2213 552.124,-11.3924 558.4768,-18.4666 558.4768,-18.4666"/>
<polyline fill="none" stroke="#000000" points="120.7697,-529.805 73.4698,-502.1999 70.7539,-500.675 70.6023,-500.6029 56.5068,-494.1894 49.1976,-491.0214 39.5358,-487.2534 35.0212,-485.7867 21.2349,-481.6037 -13.607,-471.8029 -57.2353,-443.4657 -64.359,-394.3265 -70.9508,-360.69 -74.161,-347.5562 -68.7106,-324.5933 -33.0471,-289.3147 21.9051,-258.8571 33.9017,-251.9305 33.9453,-251.9094 43.3536,-246.9701 53.6488,-241.1424 64.0661,-234.6062 69.0054,-231.097 76.4304,-228.2032 78.4198,-219.1905 94.9281,-186.0062 104.2766,-166.2305 104.7655,-165.1348 108.1033,-157.1904 135.3864,-87.8948 212.2397,-52.6923 235.7354,6.8458 251.8206,20.7778 288.381,41.9103 318.8414,36.4915 321.0681,36.1403 330.3172,34.8681 333.2366,34.5258 344.0786,33.6936 355.2461,33.2895 432.798,.7458 426.9095,-64.7609 426.8491,-74.098 426.3474,-88.6632 426.345,-89.0406 418.9673,-171.1142 437.9568,-187.8374 498.7099,-181.1152 519.4356,-179.2691 528.5506,-179.2545 530.5694,-179.1583 530.7303,-179.1611 538.9881,-179.1185 541.3577,-179.1582 546.7154,-179.0005 546.9774,-179.0042 554.0734,-178.9425 555.7133,-178.9999 568.1748,-178.5749 571.1646,-178.4043 612.7844,-175.0746 630.8226,-189.5263 616.4222,-258.6896 613.9952,-273.979 613.403,-284.5059 613.3853,-284.6172 611.9114,-298.3548 591.3081,-397.31 566.7344,-401.4306 556.7392,-403.444 546.1165,-405.9411 545.9168,-405.9947 538.4999,-408.1114 523.0934,-413.2913 500.9375,-421.1086 504.4086,-513.7149 504.2953,-517.7737 504.6268,-538.7001 504.9533,-547.3571 505.0658,-549.2479 506.8728,-597.4568 427.7491,-651.4924 412.0263,-648.2919 411.7085,-648.2328 389.1325,-640.2451 383.5055,-638.7114 373.3759,-636.1545 359.6868,-633.5311 356.3487,-633.095 347.5722,-632.1258 340.0106,-631.5973 337.0209,-631.5094 324.19,-631.6512 320.3284,-631.85 318.3389,-631.9927 305.4821,-633.4362 280.089,-637.3113 245.5171,-620.1788 184.125,-560.0803 168.4186,-545.2723 124.4405,-535.988 120.7697,-529.805 "/>
<polyline fill="none" stroke="#000000" points="727.7937,-36.9361 735.666,-29.767 747.1421,-18 748.4526,-16.9384 779.8884,9.839 814.586,-9.8304 822.7376,-10.9669 827.7874,-11.5841 833.7053,-12.1037 846.7729,-13.0262 849.2378,-13.0304 913.641,-35.8517 948.3646,-108.1949 948.317,-114.0964 948.9243,-129.9006 950.8489,-161.084 951.2261,-165.548 959.399,-175.9283 985.3786,-246.4314 991.5291,-260.1344 983.5374,-284.2928 974.0004,-315.5599 942.3776,-349.6826 940.5977,-362.0953 937.656,-386.6623 935.3755,-434.8111 905.8141,-500.9236 842.3351,-488.7398 832.4176,-487.2338 830.8646,-485.472 817.2931,-471.8333 812.7572,-467.6841 735.6978,-388.5482 734.1804,-387.2308 726.2402,-379.647 726.2108,-379.6544 716.3325,-381.8899 710.9859,-382.8513 704.1906,-383.7592 693.4339,-384.7002 686.5038,-384.986 680.6234,-385.363 667.2349,-386.8359 660.3604,-387.9056 655.7709,-388.724 601.3604,-399.658 591.3081,-397.31 611.9114,-298.3548 613.3853,-284.6172 613.403,-284.5059 613.9952,-273.979 616.4222,-258.6896 630.8226,-189.5263 612.7844,-175.0746 571.1646,-178.4043 568.1748,-178.5749 555.7133,-178.9999 554.0734,-178.9425 546.9774,-179.0042 546.7154,-179.0005 541.3577,-179.1582 538.9881,-179.1185 530.7303,-179.1611 530.5694,-179.1583 528.5506,-179.2545 519.4356,-179.2691 498.7099,-181.1152 437.9568,-187.8374 418.9673,-171.1142 426.345,-89.0406 426.3474,-88.6632 426.8491,-74.098 426.9095,-64.7609 432.798,.7458 459.6933,14.1284 496.8733,26.6725 508.4138,28.6531 511.5718,29.2526 516.3447,30.2456 517.5339,30.5147 523.1518,22.309 529.2903,14.3447 541.7164,-1.113 542.6532,-2.2213 552.124,-11.3924 558.4768,-18.4666 563.9861,-24.2194 600.82,-69.9229 620.2169,-91.6656 620.4528,-91.88 621.0293,-92.4361 622.5609,-94.003 625.368,-91.6544 627.8183,-89.2935 629.0347,-88.1918 638.6683,-80.5127 645.9356,-75.5341 651.7656,-71.8741 659.3578,-67.9768 668.1001,-64.487 692.033,-57.6828 700.8589,-54.1547 709.8642,-49.5206 716.2393,-45.519 727.7937,-36.9361 "/>
<polyline fill="none" stroke="#000000" points="797.9684,-699.808 806.1063,-699.7462 834.7066,-700.0781 837.7894,-699.7162 877.8333,-692.0633 897.3102,-671.3355 907.873,-608.3734 914.9653,-575.2577 914.8315,-571.2657 915.2576,-520.4249 905.8141,-500.9236 842.3351,-488.7398 832.4176,-487.2338 830.8646,-485.472 817.2931,-471.8333 812.7572,-467.6841 735.6978,-388.5482 734.1804,-387.2308 726.2402,-379.647 726.2108,-379.6544 716.3325,-381.8899 710.9859,-382.8513 704.1906,-383.7592 693.4339,-384.7002 686.5038,-384.986 680.6234,-385.363 667.2349,-386.8359 660.3604,-387.9056 655.7709,-388.724 601.3604,-399.658 591.3081,-397.31 566.7344,-401.4306 556.7392,-403.444 546.1165,-405.9411 545.9168,-405.9947 538.4999,-408.1114 523.0934,-413.2913 500.9375,-421.1086 504.4086,-513.7149 504.2953,-517.7737 504.6268,-538.7001 504.9533,-547.3571 505.0658,-549.2479 506.8728,-597.4568 610.261,-645.0917 612.8027,-646.3185 623.1307,-651.7622 624.5728,-651.6583 642.0531,-651.2894 668.283,-651.6275 734.7226,-706.7903 784.3517,-700.6964 797.9684,-699.808 "/>
<polyline fill="none" stroke="#000000" points="629.0347,-88.1918 627.8183,-89.2935 625.368,-91.6544 622.5609,-94.003 621.0293,-92.4361 620.4528,-91.88 620.2169,-91.6656 600.82,-69.9229 563.9861,-24.2194 558.4768,-18.4666 552.124,-11.3924 542.6532,-2.2213 541.7164,-1.113 529.2903,14.3447 523.1518,22.309 517.5339,30.5147 575.5488,91.9086 597.2243,100.6403 619.1866,103.6459 632.9529,106.2557 642.9318,108.4961 644.6705,108.9775 649.4496,110.3854 654.2513,107.9127 668.4426,101.1884 698.1602,88.9728 763.2018,38.9642 779.8884,9.839 748.4526,-16.9384 747.1421,-18 735.666,-29.767 727.7937,-36.9361 716.2393,-45.519 709.8642,-49.5206 700.8589,-54.1547 692.033,-57.6828 668.1001,-64.487 659.3578,-67.9768 651.7656,-71.8741 645.9356,-75.5341 638.6683,-80.5127 629.0347,-88.1918 "/>
<!-- autoconf&#45;&gt;emacs&#45;filesystem -->
<g id="edge1" class="edge">
<title>autoconf&#45;&gt;emacs&#45;filesystem</title>
<path fill="none" stroke="#444444" stroke-opacity="0.333333" d="M263.8329,-429.4875C281.4599,-449.4884 310.0171,-481.8918 329.999,-504.5648"/>
<polygon fill="#444444" fill-opacity="0.333333" stroke="#444444" stroke-opacity="0.333333" points="327.4396,-506.9543 336.6772,-512.1425 332.6912,-502.3261 327.4396,-506.9543"/>
</g>
<!-- autoconf&#45;&gt;libgcc -->
<g id="edge2" class="edge">
<title>autoconf&#45;&gt;libgcc</title>
<path fill="none" stroke="#444444" stroke-opacity="0.333333" d="M287.0932,-393.3149C341.6173,-368.1212 440.3051,-322.5211 499.3193,-295.2527"/>
<polygon fill="#444444" fill-opacity="0.333333" stroke="#444444" stroke-opacity="0.333333" points="500.8275,-298.4114 508.4372,-291.0396 497.8913,-292.0569 500.8275,-298.4114"/>
</g>
<!-- emacs&#45;filesystem&#45;&gt;libgcc -->
<g id="edge3" class="edge">
<title>emacs&#45;filesystem&#45;&gt;libgcc</title>
<path fill="none" stroke="#444444" stroke-opacity="0.333333" d="M366.4536,-512.2766C400.3483,-467.4994 488.2254,-351.4077 527.7991,-299.128"/>
<polygon fill="#444444" fill-opacity="0.333333" stroke="#444444" stroke-opacity="0.333333" points="530.6967,-301.0991 533.9416,-291.0134 525.1154,-296.8742 530.6967,-301.0991"/>
</g>
<!-- automake&#45;&gt;autoconf -->
<g id="edge4" class="edge">
<title>automake&#45;&gt;autoconf</title>
<path fill="none" stroke="#444444" stroke-opacity="0.333333" d="M107.9751,-387.266C131.5216,-391.3304 159.3014,-396.1254 183.8774,-400.3674"/>
<polygon fill="#444444" fill-opacity="0.333333" stroke="#444444" stroke-opacity="0.333333" points="183.384,-403.8339 193.8336,-402.086 184.5747,-396.9359 183.384,-403.8339"/>
</g>
<!-- binutils&#45;&gt;libgcc -->
<g id="edge5" class="edge">
<title>binutils&#45;&gt;libgcc</title>
<path fill="none" stroke="#444444" stroke-opacity="0.333333" d="M698.8209,-122.1142C668.6041,-152.256 607.8345,-212.8748 573.2482,-247.3753"/>
<polygon fill="#444444" fill-opacity="0.333333" stroke="#444444" stroke-opacity="0.333333" points="570.4828,-245.1902 565.8748,-254.7305 575.4264,-250.1461 570.4828,-245.1902"/>
</g>
<!-- cpp&#45;&gt;libmpc -->
<g id="edge6" class="edge">
<title>cpp&#45;&gt;libmpc</title>
<path fill="none" stroke="#444444" stroke-opacity="0.333333" d="M780.0665,-571.8202C766.9961,-553.5782 746.8754,-525.496 732.1108,-504.8893"/>
<polygon fill="#444444" fill-opacity="0.333333" stroke="#444444" stroke-opacity="0.333333" points="734.8167,-502.6564 726.1472,-496.5661 729.1265,-506.7334 734.8167,-502.6564"/>
</g>
<!-- cpp&#45;&gt;mpfr -->
<g id="edge7" class="edge">
<title>cpp&#45;&gt;mpfr</title>
<path fill="none" stroke="#444444" stroke-opacity="0.333333" d="M766.1279,-579.4193C739.1348,-568.6201 697.3692,-551.9109 666.1192,-539.4086"/>
<polygon fill="#444444" fill-opacity="0.333333" stroke="#444444" stroke-opacity="0.333333" points="667.3711,-536.1398 656.7865,-535.6749 664.7709,-542.639 667.3711,-536.1398"/>
</g>
<!-- libmpc&#45;&gt;libgcc -->
<g id="edge8" class="edge">
<title>libmpc&#45;&gt;libgcc</title>
<path fill="none" stroke="#444444" stroke-opacity="0.333333" d="M698.4703,-460.2024C669.0214,-423.6407 602.6792,-341.275 568.6428,-299.018"/>
<polygon fill="#444444" fill-opacity="0.333333" stroke="#444444" stroke-opacity="0.333333" points="571.2854,-296.7192 562.2868,-291.1268 565.8339,-301.1102 571.2854,-296.7192"/>
</g>
<!-- libmpc&#45;&gt;mpfr -->
<g id="edge9" class="edge">
<title>libmpc&#45;&gt;mpfr</title>
<path fill="none" stroke="#444444" stroke-opacity="0.333333" d="M676.7117,-496.5413C673.0896,-498.3401 669.394,-500.1754 665.7252,-501.9975"/>
<polygon fill="#444444" fill-opacity="0.333333" stroke="#444444" stroke-opacity="0.333333" points="664.1175,-498.888 656.718,-506.4707 667.2311,-505.1574 664.1175,-498.888"/>
</g>
<!-- mpfr&#45;&gt;libgcc -->
<g id="edge10" class="edge">
<title>mpfr&#45;&gt;libgcc</title>
<path fill="none" stroke="#444444" stroke-opacity="0.333333" d="M618.5511,-504.269C605.2748,-460.9627 571.9403,-352.2282 556.1626,-300.7626"/>
<polygon fill="#444444" fill-opacity="0.333333" stroke="#444444" stroke-opacity="0.333333" points="559.4413,-299.5161 553.1639,-290.9812 552.7487,-301.5679 559.4413,-299.5161"/>
</g>
<!-- findutils&#45;&gt;libgcc -->
<g id="edge11" class="edge">
<title>findutils&#45;&gt;libgcc</title>
<path fill="none" stroke="#444444" stroke-opacity="0.333333" d="M290.7613,-186.4636C348.0474,-205.7471 438.1603,-236.0806 495.0099,-255.2172"/>
<polygon fill="#444444" fill-opacity="0.333333" stroke="#444444" stroke-opacity="0.333333" points="493.9354,-258.5484 504.5295,-258.4216 496.1687,-251.9142 493.9354,-258.5484"/>
</g>
<!-- gcc&#45;&gt;libgcc -->
<g id="edge12" class="edge">
<title>gcc&#45;&gt;libgcc</title>
<path fill="none" stroke="#444444" stroke-opacity="0.333333" d="M644.1133,-287.3389C631.4099,-285.4417 615.8167,-283.113 600.8997,-280.8853"/>
<polygon fill="#444444" fill-opacity="0.333333" stroke="#444444" stroke-opacity="0.333333" points="601.1318,-277.3813 590.7245,-279.3658 600.0978,-284.3045 601.1318,-277.3813"/>
</g>
<!-- gcc&#45;&gt;binutils -->
<g id="edge13" class="edge">
<title>gcc&#45;&gt;binutils</title>
<path fill="none" stroke="#444444" stroke-opacity="0.333333" d="M675.7051,-273.085C683.7116,-240.2619 700.5586,-171.1966 710.0542,-132.2688"/>
<polygon fill="#444444" fill-opacity="0.333333" stroke="#444444" stroke-opacity="0.333333" points="713.5545,-132.6881 712.524,-122.1435 706.7539,-131.0292 713.5545,-132.6881"/>
</g>
<!-- gcc&#45;&gt;cpp -->
<g id="edge14" class="edge">
<title>gcc&#45;&gt;cpp</title>
<path fill="none" stroke="#444444" stroke-opacity="0.333333" d="M678.6917,-309.6376C699.3398,-360.2006 757.387,-502.3463 782.0199,-562.6674"/>
<polygon fill="#444444" fill-opacity="0.333333" stroke="#444444" stroke-opacity="0.333333" points="778.925,-564.3466 785.9459,-572.2812 785.4055,-561.7002 778.925,-564.3466"/>
</g>
<!-- gcc&#45;&gt;libmpc -->
<g id="edge15" class="edge">
<title>gcc&#45;&gt;libmpc</title>
<path fill="none" stroke="#444444" stroke-opacity="0.333333" d="M675.3358,-309.6657C682.68,-342.4363 698.1336,-411.391 706.8437,-450.2564"/>
<polygon fill="#444444" fill-opacity="0.333333" stroke="#444444" stroke-opacity="0.333333" points="703.5071,-451.373 709.1093,-460.3655 710.3376,-449.8421 703.5071,-451.373"/>
</g>
<!-- gcc&#45;&gt;mpfr -->
<g id="edge16" class="edge">
<title>gcc&#45;&gt;mpfr</title>
<path fill="none" stroke="#444444" stroke-opacity="0.333333" d="M667.5473,-309.535C659.3687,-349.7225 639.6794,-446.47 629.8961,-494.5428"/>
<polygon fill="#444444" fill-opacity="0.333333" stroke="#444444" stroke-opacity="0.333333" points="626.4202,-494.0721 627.8556,-504.5693 633.2796,-495.4681 626.4202,-494.0721"/>
</g>
<!-- gcc&#45;&gt;isl -->
<g id="edge17" class="edge">
<title>gcc&#45;&gt;isl</title>
<path fill="none" stroke="#444444" stroke-opacity="0.333333" d="M698.5473,-306.7275C724.8816,-321.5184 764.9017,-343.9962 793.8833,-360.2741"/>
<polygon fill="#444444" fill-opacity="0.333333" stroke="#444444" stroke-opacity="0.333333" points="792.4408,-363.4781 802.8737,-365.3236 795.8688,-357.3749 792.4408,-363.4781"/>
</g>
<!-- gcc&#45;&gt;libasan -->
<g id="edge18" class="edge">
<title>gcc&#45;&gt;libasan</title>
<path fill="none" stroke="#444444" stroke-opacity="0.333333" d="M688.8037,-273.1496C716.4966,-244.3899 770.4074,-188.4024 802.0861,-155.5032"/>
<polygon fill="#444444" fill-opacity="0.333333" stroke="#444444" stroke-opacity="0.333333" points="804.8364,-157.693 809.2515,-148.0619 799.794,-152.8376 804.8364,-157.693"/>
</g>
<!-- gcc&#45;&gt;libatomic -->
<g id="edge19" class="edge">
<title>gcc&#45;&gt;libatomic</title>
<path fill="none" stroke="#444444" stroke-opacity="0.333333" d="M698.3107,-286.244C721.8794,-281.7637 757.081,-275.0721 788.3848,-269.1213"/>
<polygon fill="#444444" fill-opacity="0.333333" stroke="#444444" stroke-opacity="0.333333" points="789.2214,-272.5251 798.3918,-267.2191 787.914,-265.6482 789.2214,-272.5251"/>
</g>
<!-- gcc&#45;&gt;libgomp -->
<g id="edge20" class="edge">
<title>gcc&#45;&gt;libgomp</title>
<path fill="none" stroke="#444444" stroke-opacity="0.333333" d="M658.8355,-273.1007C634.0713,-236.5883 578.412,-154.5241 549.5647,-111.9916"/>
<polygon fill="#444444" fill-opacity="0.333333" stroke="#444444" stroke-opacity="0.333333" points="552.3465,-109.8577 543.8367,-103.5463 546.5533,-113.787 552.3465,-109.8577"/>
</g>
<!-- gcc&#45;&gt;libubsan -->
<g id="edge21" class="edge">
<title>gcc&#45;&gt;libubsan</title>
<path fill="none" stroke="#444444" stroke-opacity="0.333333" d="M669.3869,-273.0276C664.6651,-226.2389 652.1564,-102.2902 646.4995,-46.2356"/>
<polygon fill="#444444" fill-opacity="0.333333" stroke="#444444" stroke-opacity="0.333333" points="649.9815,-45.8805 645.495,-36.2825 643.0169,-46.5834 649.9815,-45.8805"/>
</g>
<!-- isl&#45;&gt;libgcc -->
<g id="edge22" class="edge">
<title>isl&#45;&gt;libgcc</title>
<path fill="none" stroke="#444444" stroke-opacity="0.333333" d="M803.0065,-370.2852C756.5074,-352.5587 660.7002,-316.0348 600.5621,-293.1089"/>
<polygon fill="#444444" fill-opacity="0.333333" stroke="#444444" stroke-opacity="0.333333" points="601.4556,-289.7038 590.8647,-289.412 598.962,-296.2447 601.4556,-289.7038"/>
</g>
<!-- libasan&#45;&gt;libgcc -->
<g id="edge23" class="edge">
<title>libasan&#45;&gt;libgcc</title>
<path fill="none" stroke="#444444" stroke-opacity="0.333333" d="M791.8917,-147.6427C741.1899,-173.6488 647.4722,-221.7187 592.0271,-250.1577"/>
<polygon fill="#444444" fill-opacity="0.333333" stroke="#444444" stroke-opacity="0.333333" points="590.1049,-247.2101 582.8044,-254.8883 593.2996,-253.4385 590.1049,-247.2101"/>
</g>
<!-- libatomic&#45;&gt;libgcc -->
<g id="edge24" class="edge">
<title>libatomic&#45;&gt;libgcc</title>
<path fill="none" stroke="#444444" stroke-opacity="0.333333" d="M798.0478,-259.2442C741.1069,-262.3562 655.9074,-267.0125 601.0442,-270.0108"/>
<polygon fill="#444444" fill-opacity="0.333333" stroke="#444444" stroke-opacity="0.333333" points="600.6243,-266.5285 590.8302,-270.569 601.0064,-273.518 600.6243,-266.5285"/>
</g>
<!-- libgomp&#45;&gt;libgcc -->
<g id="edge25" class="edge">
<title>libgomp&#45;&gt;libgcc</title>
<path fill="none" stroke="#444444" stroke-opacity="0.333333" d="M533.0399,-103.6306C535.8728,-136.5031 541.8338,-205.6724 545.1936,-244.6587"/>
<polygon fill="#444444" fill-opacity="0.333333" stroke="#444444" stroke-opacity="0.333333" points="541.7217,-245.1367 546.0675,-254.7993 548.6959,-244.5356 541.7217,-245.1367"/>
</g>
<!-- libubsan&#45;&gt;libgcc -->
<g id="edge26" class="edge">
<title>libubsan&#45;&gt;libgcc</title>
<path fill="none" stroke="#444444" stroke-opacity="0.333333" d="M636.7445,-36.3339C620.1353,-80.4307 577.8698,-192.6442 558.1105,-245.1047"/>
<polygon fill="#444444" fill-opacity="0.333333" stroke="#444444" stroke-opacity="0.333333" points="554.7224,-244.1703 554.473,-254.7622 561.2732,-246.6377 554.7224,-244.1703"/>
</g>
<!-- libtool&#45;&gt;autoconf -->
<g id="edge27" class="edge">
<title>libtool&#45;&gt;autoconf</title>
<path fill="none" stroke="#444444" stroke-opacity="0.333333" d="M318.8425,-295.613C304.8445,-318.4665 280.6073,-358.0371 264.4158,-384.472"/>
<polygon fill="#444444" fill-opacity="0.333333" stroke="#444444" stroke-opacity="0.333333" points="261.2928,-382.8699 259.0542,-393.2256 267.262,-386.5261 261.2928,-382.8699"/>
</g>
<!-- libtool&#45;&gt;libgcc -->
<g id="edge28" class="edge">
<title>libtool&#45;&gt;libgcc</title>
<path fill="none" stroke="#444444" stroke-opacity="0.333333" d="M377.9513,-276.5382C412.3737,-275.8062 458.7395,-274.8202 494.3043,-274.064"/>
<polygon fill="#444444" fill-opacity="0.333333" stroke="#444444" stroke-opacity="0.333333" points="494.5754,-277.5591 504.4987,-273.8472 494.4265,-270.5607 494.5754,-277.5591"/>
</g>
<!-- libtool&#45;&gt;automake -->
<g id="edge29" class="edge">
<title>libtool&#45;&gt;automake</title>
<path fill="none" stroke="#444444" stroke-opacity="0.333333" d="M281.8323,-295.0449C234.9746,-312.0896 163.6133,-338.0476 113.2519,-356.3668"/>
<polygon fill="#444444" fill-opacity="0.333333" stroke="#444444" stroke-opacity="0.333333" points="111.9896,-353.1015 103.7885,-359.8092 114.3826,-359.6798 111.9896,-353.1015"/>
</g>
<!-- libtool&#45;&gt;findutils -->
<g id="edge30" class="edge">
<title>libtool&#45;&gt;findutils</title>
<path fill="none" stroke="#444444" stroke-opacity="0.333333" d="M314.5611,-259.5295C299.4342,-241.7482 276.16,-214.3899 259.0536,-194.2818"/>
<polygon fill="#444444" fill-opacity="0.333333" stroke="#444444" stroke-opacity="0.333333" points="261.5172,-191.7761 252.3717,-186.4273 256.1855,-196.3119 261.5172,-191.7761"/>
</g>
<!-- libtool&#45;&gt;gcc -->
<g id="edge31" class="edge">
<title>libtool&#45;&gt;gcc</title>
<path fill="none" stroke="#444444" stroke-opacity="0.333333" d="M378.0817,-279.5122C446.8751,-282.2995 571.7857,-287.3604 633.9798,-289.8803"/>
<polygon fill="#444444" fill-opacity="0.333333" stroke="#444444" stroke-opacity="0.333333" points="633.9876,-293.3834 644.1211,-290.2912 634.2711,-286.3892 633.9876,-293.3834"/>
</g>
<!-- libtool&#45;&gt;tar -->
<g id="edge32" class="edge">
<title>libtool&#45;&gt;tar</title>
<path fill="none" stroke="#444444" stroke-opacity="0.333333" d="M330.0988,-259.2075C330.4916,-222.9378 331.3697,-141.8743 331.8358,-98.8425"/>
<polygon fill="#444444" fill-opacity="0.333333" stroke="#444444" stroke-opacity="0.333333" points="335.3362,-98.8094 331.9449,-88.7721 328.3367,-98.7335 335.3362,-98.8094"/>
</g>
<!-- tar&#45;&gt;libgcc -->
<g id="edge33" class="edge">
<title>tar&#45;&gt;libgcc</title>
<path fill="none" stroke="#444444" stroke-opacity="0.333333" d="M351.6434,-89.0542C390.3464,-125.3656 476.907,-206.5773 520.8846,-247.8373"/>
<polygon fill="#444444" fill-opacity="0.333333" stroke="#444444" stroke-opacity="0.333333" points="518.6384,-250.5291 528.326,-254.8188 523.4279,-245.4242 518.6384,-250.5291"/>
</g>
<!-- autoconf -->
<g id="node1" class="node">
<title>autoconf</title>
<text text-anchor="middle" x="247.91" y="-407.72" font-family="monospace" font-size="14.00" fill="#000000">autoconf</text>
</g>
<!-- emacs&#45;filesystem -->
<g id="node2" class="node">
<title>emacs&#45;filesystem</title>
<text text-anchor="middle" x="352.75" y="-526.68" font-family="monospace" font-size="14.00" fill="#000000">emacs&#45;filesystem</text>
</g>
<!-- libgcc -->
<g id="node3" class="node">
<title>libgcc</title>
<text text-anchor="middle" x="547.63" y="-269.23" font-family="monospace" font-size="14.00" fill="#000000">libgcc</text>
</g>
<!-- automake -->
<g id="node4" class="node">
<title>automake</title>
<text text-anchor="middle" x="53.945" y="-374.24" font-family="monospace" font-size="14.00" fill="#000000">automake</text>
</g>
<!-- binutils -->
<g id="node5" class="node">
<title>binutils</title>
<text text-anchor="middle" x="716.94" y="-100.34" font-family="monospace" font-size="14.00" fill="#000000">binutils</text>
</g>
<!-- cpp -->
<g id="node6" class="node">
<title>cpp</title>
<text text-anchor="middle" x="793.3" y="-586.59" font-family="monospace" font-size="14.00" fill="#000000">cpp</text>
</g>
<!-- libmpc -->
<g id="node7" class="node">
<title>libmpc</title>
<text text-anchor="middle" x="713.16" y="-474.74" font-family="monospace" font-size="14.00" fill="#000000">libmpc</text>
</g>
<!-- mpfr -->
<g id="node8" class="node">
<title>mpfr</title>
<text text-anchor="middle" x="624.18" y="-518.93" font-family="monospace" font-size="14.00" fill="#000000">mpfr</text>
</g>
<!-- findutils -->
<g id="node9" class="node">
<title>findutils</title>
<text text-anchor="middle" x="237.01" y="-164.67" font-family="monospace" font-size="14.00" fill="#000000">findutils</text>
</g>
<!-- gcc -->
<g id="node10" class="node">
<title>gcc</title>
<text text-anchor="middle" x="671.24" y="-287.69" font-family="monospace" font-size="14.00" fill="#000000">gcc</text>
</g>
<!-- isl -->
<g id="node11" class="node">
<title>isl</title>
<text text-anchor="middle" x="830.09" y="-376.91" font-family="monospace" font-size="14.00" fill="#000000">isl</text>
</g>
<!-- libasan -->
<g id="node12" class="node">
<title>libasan</title>
<text text-anchor="middle" x="826.99" y="-125.94" font-family="monospace" font-size="14.00" fill="#000000">libasan</text>
</g>
<!-- libatomic -->
<g id="node13" class="node">
<title>libatomic</title>
<text text-anchor="middle" x="857.41" y="-252.3" font-family="monospace" font-size="14.00" fill="#000000">libatomic</text>
</g>
<!-- libgomp -->
<g id="node14" class="node">
<title>libgomp</title>
<text text-anchor="middle" x="531.46" y="-81.598" font-family="monospace" font-size="14.00" fill="#000000">libgomp</text>
</g>
<!-- libubsan -->
<g id="node15" class="node">
<title>libubsan</title>
<text text-anchor="middle" x="643.65" y="-14.3" font-family="monospace" font-size="14.00" fill="#000000">libubsan</text>
</g>
<!-- libtool -->
<g id="node16" class="node">
<title>libtool</title>
<text text-anchor="middle" x="329.9" y="-273.86" font-family="monospace" font-size="14.00" fill="#000000">libtool</text>
</g>
<!-- tar -->
<g id="node17" class="node">
<title>tar</title>
<text text-anchor="middle" x="332.14" y="-67.056" font-family="monospace" font-size="14.00" fill="#000000">tar</text>
</g>
</g>
</svg>
