<?xml version="1.0" encoding="UTF-8" standalone="no"?>
<!DOCTYPE svg PUBLIC "-//W3C//DTD SVG 1.1//EN"
 "http://www.w3.org/Graphics/SVG/1.1/DTD/svg11.dtd">
<!-- Generated by graphviz version 2.40.1 (20161225.0304)
 -->
<!-- Title: G Pages: 1 -->
<svg width="1016pt" height="709pt"
 viewBox="0.00 0.00 1016.45 708.54" xmlns="http://www.w3.org/2000/svg" xmlns:xlink="http://www.w3.org/1999/xlink">
<g id="graph0" class="graph" transform="scale(1 1) rotate(0) translate(94.6371 613.113)">
<title>G</title>
<polygon fill="#dae2ff" stroke="transparent" points="-94.6371,95.4298 -94.6371,-613.113 921.8146,-613.113 921.8146,95.4298 -94.6371,95.4298"/>
<polygon fill="#fbb4ae" stroke="#fbb4ae" points="-73.8983,-208.793 -73.3797,-207.7326 -52.0352,-159.8036 -.1534,-108.2742 8.662,-106.6588 19.4394,-109.6784 31.0488,-112.6967 34.2204,-113.4558 47.3837,-116.3342 53.0949,-117.2247 70.2082,-118.4798 73.0305,-118.6281 79.748,-118.5635 113.4122,-117.5428 165.3428,-73.0285 198.6429,-79.6668 201.9024,-80.1122 218.7915,-81.7188 227.0818,-81.8137 233.2147,-81.6276 240.1225,-81.1285 255.6596,-79.6806 322.1569,-72.1115 323.3351,-74.5702 325.7225,-79.958 330.2352,-90.5748 358.7285,-163.9601 410.5108,-198.3216 409.9417,-264.1384 409.8953,-265.0431 409.3509,-283.1467 409.3706,-284.7061 409.4723,-286.5477 409.7279,-306.858 409.2473,-362.4416 389.7528,-378.7746 329.6325,-366.2111 315.4431,-363.575 302.0852,-362.3541 302.4343,-307.4217 307.2685,-282.7021 308.5307,-281.7845 309.7592,-280.3857 308.7762,-279.2076 306.121,-277.1538 306.121,-277.1538 308.7762,-279.2076 309.7592,-280.3857 308.5307,-281.7845 307.2685,-282.7021 302.4343,-307.4217 302.0852,-362.3541 315.4431,-363.575 329.6325,-366.2111 389.7528,-378.7746 382.2003,-434.2831 381.6587,-440.0171 288.0006,-444.2171 287.7834,-442.546 287.3945,-441.64 285.275,-440.2919 285.275,-440.2919 287.3945,-441.64 287.7834,-442.546 288.0006,-444.2171 381.6587,-440.0171 380.644,-453.8111 380.496,-455.3751 380.1478,-462.0036 378.485,-479.5887 370.0276,-541.7475 291.899,-541.6547 290.7943,-541.6774 276.0234,-542.6245 264.7272,-544.0856 269.4291,-451.4207 269.4291,-451.4207 264.7272,-544.0856 246.5615,-546.8273 216.1829,-532.7827 164.4703,-486.1602 165.771,-452.9492 164.3141,-407.3362 161.72,-354.9449 150.7784,-340.0322 83.9831,-335.0615 73.7047,-334.6296 65.5288,-330.6996 63.1767,-329.7117 54.0782,-326.0702 46.7927,-323.4469 48.1818,-244.4745 50.8421,-218.5944 53.3656,-219.0931 53.3656,-219.0931 50.8421,-218.5944 48.1818,-244.4745 46.7927,-323.4469 44.587,-322.7413 31.4957,-319.0703 28.6009,-318.375 -10.696,-309.7197 -88.4995,-241.9305 -90.6371,-240.1261 -73.8983,-208.793 -73.8983,-208.793"/>
<polygon fill="#fed9a6" stroke="#fed9a6" points="875.7883,-229.2643 909.7969,-166.6985 917.8146,-153.8312 915.5378,-144.8414 911.1821,-140.6515 838.8924,-69.0411 792.0616,-52.2382 784.5541,-49.3983 780.4637,-47.7724 774.5123,-28.6625 772.8797,-22.6355 765.2399,10.5388 763.2996,19.8423 724.7053,85.4607 678.3939,84.3854 671.8047,84.3594 671.0184,9.1266 671.0184,9.1266 671.8047,84.3594 668.1078,84.4873 659.2952,84.9626 644.405,86.6286 644.8459,77.9479 647.604,-13.939 644.4343,-15.8352 642.0273,-18.3205 644.0138,-20.2309 647.4022,-22.1698 650.3931,-22.7425 650.3931,-22.7425 647.4022,-22.1698 644.0138,-20.2309 642.0273,-18.3205 640.5295,-18.3205 639.3881,-18.0918 637.5377,-18.0918 633.5175,-59.4042 632.6287,-58.5003 631.7303,-57.6849 629.3956,-55.8023 625.1448,-51.9095 623.0614,-50.2614 598.1844,-55.2261 595.6636,-25.1973 594.6352,-24.2469 594.0438,-59.9682 593.6362,-60.4827 593.8195,-61.9637 593.6204,-63.5708 593.3459,-64.2545 593.3121,-64.2908 591.6176,-65.3286 591.6176,-65.3286 593.3121,-64.2908 593.3459,-64.2545 593.6204,-63.5708 593.8195,-61.9637 593.6362,-60.4827 594.0438,-59.9682 594.6352,-24.2469 595.6636,-25.1973 598.1844,-55.2261 623.0614,-50.2614 625.1448,-51.9095 629.3956,-55.8023 631.7303,-57.6849 632.6287,-58.5003 633.5175,-59.4042 637.5377,-18.0918 636.9922,-17.9825 636.9922,-17.9825 637.5377,-18.0918 639.3881,-18.0918 640.5295,-18.3205 642.0273,-18.3205 644.4343,-15.8352 647.604,-13.939 644.8459,77.9479 644.405,86.6286 642.59,86.9012 638.5196,87.6696 623.0854,91.1834 622.1584,91.4298 565.8751,69.0084 541.4922,35.2566 511.5876,15.7963 488.1761,13.9386 484.1837,-63.0954 485.6298,-74.6879 485.6298,-74.6879 484.1837,-63.0954 488.1761,13.9386 475.159,13.443 460.3892,13.799 460.394,5.2625 459.6166,-29.5687 459.6268,-30.1097 456.3007,-82.1325 456.4146,-82.1556 456.9274,-82.1556 461.4865,-85.8833 463.8727,-86.7861 466.5862,-86.7861 466.5862,-86.7861 463.8727,-86.7861 461.4865,-85.8833 456.9274,-82.1556 456.4146,-82.1556 456.3007,-82.1325 459.6268,-30.1097 459.6166,-29.5687 460.394,5.2625 460.3892,13.799 447.4105,15.457 438.1084,16.8373 434.4269,17.4588 344.3885,-9.6096 322.1569,-72.1115 323.3351,-74.5702 325.7225,-79.958 330.2352,-90.5748 358.7285,-163.9601 410.5108,-198.3216 409.9417,-264.1384 409.8953,-265.0431 409.3509,-283.1467 409.3706,-284.7061 409.4723,-286.5477 409.7279,-306.858 409.2473,-362.4416 389.7528,-378.7746 382.2003,-434.2831 381.6587,-440.0171 380.644,-453.8111 380.496,-455.3751 380.1478,-462.0036 378.485,-479.5887 370.0276,-541.7475 380.3073,-553.2514 415.4355,-575.6691 438.5729,-585.9962 467.4437,-584.3013 474.9959,-583.9784 478.4948,-583.9963 485.4785,-584.1437 487.7632,-513.458 492.9838,-471.8727 495.2643,-471.0478 498.6769,-468.4866 499.6365,-467.3756 495.1357,-463.814 493.159,-463.0696 488.4682,-463.0696 488.4682,-463.0696 493.159,-463.0696 495.1357,-463.814 499.6365,-467.3756 498.6769,-468.4866 495.2643,-471.0478 492.9838,-471.8727 487.7632,-513.458 485.4785,-584.1437 502.7995,-585.3409 506.793,-585.8718 515.4088,-583.0114 512.0185,-495.4739 512.0185,-495.4739 515.4088,-583.0114 525.8211,-579.9233 592.7429,-587.3975 595.0316,-521.7885 595.0316,-521.7885 592.7429,-587.3975 600.5968,-588.592 612.4862,-590.8813 613.4773,-591.0919 622.3607,-593.5183 621.8671,-495.5898 625.0103,-495.0074 628.4334,-493.0526 630.7691,-490.7759 629.145,-489.1763 629.145,-489.1763 630.7691,-490.7759 628.4334,-493.0526 632.6173,-560.7268 633.5948,-590.0943 636.3746,-526.5584 636.3746,-526.5584 633.5948,-590.0943 632.6173,-560.7268 628.4334,-493.0526 625.0103,-495.0074 621.8671,-495.5898 622.3607,-593.5183 632.3082,-596.4354 633.5596,-596.827 644.4982,-601.1322 644.5034,-512.1201 646.7429,-496.1335 646.7429,-496.1335 644.5034,-512.1201 644.4982,-601.1322 656.1927,-606.2056 662.605,-609.113 694.9334,-597.0605 744.0897,-528.7881 745.0136,-528.4804 745.7026,-467.5556 743.9666,-422.8247 742.4135,-422.8247 741.7828,-423.4415 741.7828,-423.4415 742.4135,-422.8247 743.9666,-422.8247 745.7026,-467.5556 745.0136,-528.4804 750.4824,-526.8821 757.3972,-525.0025 764.3943,-523.2447 809.9637,-512.7432 827.402,-503.0085 850.5315,-450.7795 862.4564,-425.2492 866.6871,-416.9732 868.106,-403.5706 870.6595,-385.325 893.605,-354.9833 886.6301,-319.1826 883.4344,-300.9999 879.4166,-266.6927 875.7883,-229.2643 792.1606,-229.4855 789.8503,-229.5591 781.3624,-229.5512 778.1708,-229.6415 779.1938,-250.8653 783.422,-293.3632 781.5273,-295.3022 781.9332,-298.2263 781.7583,-299.5276 778.589,-301.5947 775.6696,-302.2032 775.6696,-302.2032 778.589,-301.5947 781.7583,-299.5276 781.9332,-298.2263 781.5273,-295.3022 783.422,-293.3632 779.1938,-250.8653 778.1708,-229.6415 781.3624,-229.5512 789.8503,-229.5591 792.1606,-229.4855 786.5389,-169.0522 783.3785,-166.9429 782.188,-165.0515 780.2473,-163.4543 778.9233,-161.7025 777.2722,-161.7025 775.2162,-161.294 773.3337,-161.294 773.229,-161.1754 768.9542,-157.9092 766.2325,-156.9079 763.332,-156.9079 759.1336,-158.5699 755.3618,-161.5412 756.684,-163.0681 759.0121,-164.7813 761.8491,-165.8377 761.8491,-165.8377 759.0121,-164.7813 756.684,-163.0681 755.3618,-161.5412 759.1336,-158.5699 763.332,-156.9079 759.4647,-132.577 758.4764,-119.0583 755.0612,-161.4826 753.2994,-161.4826 749.0494,-122.7818 748.858,-161.5139 749.844,-161.7103 745.4595,-201.7879 745.1882,-196.8037 745.5262,-164.2509 741.8232,-168.5831 706.8698,-171.4668 658.1085,-178.1964 648.1085,-162.9624 643.5383,-156.291 611.1336,-158.5436 608.6999,-234.3066 605.1829,-253.3493 605.1466,-253.4145 605.6821,-254.6735 605.2783,-257.7034 602.6874,-259.416 598.3347,-260.3896 595.3162,-259.7372 593.3418,-278.0764 589.9558,-259.0912 589.0844,-259.6612 589.0844,-259.6612 589.9558,-259.0912 593.3418,-278.0764 595.3162,-259.7372 598.3347,-260.3896 602.6874,-259.416 605.2783,-257.7034 605.6821,-254.6735 605.1466,-253.4145 602.402,-251.6974 598.5527,-250.902 598.5527,-250.902 602.402,-251.6974 605.1466,-253.4145 605.1829,-253.3493 608.6999,-234.3066 611.1336,-158.5436 643.5383,-156.291 648.1085,-162.9624 658.1085,-178.1964 706.8698,-171.4668 741.8232,-168.5831 745.5262,-164.2509 745.1882,-196.8037 745.4595,-201.7879 749.844,-161.7103 748.858,-161.5139 749.0494,-122.7818 753.2994,-161.4826 755.0612,-161.4826 758.4764,-119.0583 759.4647,-132.577 763.332,-156.9079 766.2325,-156.9079 768.9542,-157.9092 773.229,-161.1754 773.3337,-161.294 775.2162,-161.294 777.2722,-161.7025 778.9233,-161.7025 780.2473,-163.4543 782.188,-165.0515 783.3785,-166.9429 786.5389,-169.0522 792.1606,-229.4855 875.7883,-229.2643 875.7883,-229.2643"/>
<polyline fill="none" stroke="#000000" points="218.7915,-81.7188 201.9024,-80.1122 198.6429,-79.6668 165.3428,-73.0285 113.4122,-117.5428 79.748,-118.5635 73.0305,-118.6281 70.2082,-118.4798 53.0949,-117.2247 47.3837,-116.3342 34.2204,-113.4558 31.0488,-112.6967 19.4394,-109.6784 8.662,-106.6588 -.1534,-108.2742 -52.0352,-159.8036 -73.3797,-207.7326 -73.8983,-208.793 -90.6371,-240.1261 -88.4995,-241.9305 -10.696,-309.7197 28.6009,-318.375 31.4957,-319.0703 44.587,-322.7413 46.7927,-323.4469 54.0782,-326.0702 63.1767,-329.7117 65.5288,-330.6996 73.7047,-334.6296 83.9831,-335.0615 150.7784,-340.0322 161.72,-354.9449 164.3141,-407.3362 165.771,-452.9492 164.4703,-486.1602 216.1829,-532.7827 246.5615,-546.8273 264.7272,-544.0856 276.0234,-542.6245 290.7943,-541.6774 291.899,-541.6547 370.0276,-541.7475 378.485,-479.5887 380.1478,-462.0036 380.496,-455.3751 380.644,-453.8111 381.6587,-440.0171 382.2003,-434.2831 389.7528,-378.7746 409.2473,-362.4416 409.7279,-306.858 409.4723,-286.5477 409.3706,-284.7061 409.3509,-283.1467 409.8953,-265.0431 409.9417,-264.1384 410.5108,-198.3216 358.7285,-163.9601 330.2352,-90.5748 325.7225,-79.958 323.3351,-74.5702 322.1569,-72.1115 255.6596,-79.6806 240.1225,-81.1285 233.2147,-81.6276 227.0818,-81.8137 218.7915,-81.7188 "/>
<polyline fill="none" stroke="#000000" points="409.7279,-306.858 409.4723,-286.5477 409.3706,-284.7061 409.3509,-283.1467 409.8953,-265.0431 409.9417,-264.1384 410.5108,-198.3216 358.7285,-163.9601 330.2352,-90.5748 325.7225,-79.958 323.3351,-74.5702 322.1569,-72.1115 344.3885,-9.6096 434.4269,17.4588 438.1084,16.8373 447.4105,15.457 460.3892,13.799 475.159,13.443 488.1761,13.9386 511.5876,15.7963 541.4922,35.2566 565.8751,69.0084 622.1584,91.4298 623.0854,91.1834 638.5196,87.6696 642.59,86.9012 644.405,86.6286 659.2952,84.9626 668.1078,84.4873 671.8047,84.3594 678.3939,84.3854 724.7053,85.4607 763.2996,19.8423 765.2399,10.5388 772.8797,-22.6355 774.5123,-28.6625 780.4637,-47.7724 784.5541,-49.3983 792.0616,-52.2382 838.8924,-69.0411 911.1821,-140.6515 915.5378,-144.8414 917.8146,-153.8312 909.7969,-166.6985 875.7883,-229.2643 879.4166,-266.6927 883.4344,-300.9999 886.6301,-319.1826 893.605,-354.9833 870.6595,-385.325 868.106,-403.5706 866.6871,-416.9732 862.4564,-425.2492 850.5315,-450.7795 827.402,-503.0085 809.9637,-512.7432 764.3943,-523.2447 757.3972,-525.0025 750.4824,-526.8821 745.0136,-528.4804 744.0897,-528.7881 694.9334,-597.0605 662.605,-609.113 656.1927,-606.2056 644.4982,-601.1322 633.5596,-596.827 632.3082,-596.4354 622.3607,-593.5183 613.4773,-591.0919 612.4862,-590.8813 600.5968,-588.592 592.7429,-587.3975 525.8211,-579.9233 515.4088,-583.0114 506.793,-585.8718 502.7995,-585.3409 485.4785,-584.1437 478.4948,-583.9963 474.9959,-583.9784 467.4437,-584.3013 438.5729,-585.9962 415.4355,-575.6691 380.3073,-553.2514 370.0276,-541.7475 378.485,-479.5887 380.1478,-462.0036 380.496,-455.3751 380.644,-453.8111 381.6587,-440.0171 382.2003,-434.2831 389.7528,-378.7746 409.2473,-362.4416 409.7279,-306.858 "/>
<!-- automake&#45;&gt;autoconf -->
<g id="edge1" class="edge">
<title>automake&#45;&gt;autoconf</title>
<path fill="none" stroke="#444444" stroke-opacity="0.333333" d="M165.2306,-189.2589C150.1541,-192.6758 133.6357,-196.4194 118.0479,-199.9521"/>
<polygon fill="#444444" fill-opacity="0.333333" stroke="#444444" stroke-opacity="0.333333" points="116.9425,-196.6138 107.9634,-202.2376 118.4897,-203.4407 116.9425,-196.6138"/>
</g>
<!-- automake&#45;&gt;libgcc -->
<g id="edge2" class="edge">
<title>automake&#45;&gt;libgcc</title>
<path fill="none" stroke="#444444" stroke-opacity="0.333333" d="M270.7888,-195.0892C324.8071,-214.1286 409.3615,-243.931 463.8037,-263.1199"/>
<polygon fill="#444444" fill-opacity="0.333333" stroke="#444444" stroke-opacity="0.333333" points="462.6765,-266.4336 473.2713,-266.4569 465.0035,-259.8317 462.6765,-266.4336"/>
</g>
<!-- binutils&#45;&gt;libgcc -->
<g id="edge3" class="edge">
<title>binutils&#45;&gt;libgcc</title>
<path fill="none" stroke="#444444" stroke-opacity="0.333333" d="M705.5696,-404.3982C666.5524,-379.0874 595.7171,-333.1358 552.6495,-305.1974"/>
<polygon fill="#444444" fill-opacity="0.333333" stroke="#444444" stroke-opacity="0.333333" points="554.4574,-302.1982 544.1632,-299.6922 550.6477,-308.0708 554.4574,-302.1982"/>
</g>
<!-- cpp&#45;&gt;libmpc -->
<g id="edge4" class="edge">
<title>cpp&#45;&gt;libmpc</title>
<path fill="none" stroke="#444444" stroke-opacity="0.333333" d="M559.366,-66.5173C547.4031,-68.5116 532.903,-70.9288 518.9256,-73.2588"/>
<polygon fill="#444444" fill-opacity="0.333333" stroke="#444444" stroke-opacity="0.333333" points="518.1724,-69.836 508.8841,-74.9328 519.3235,-76.7407 518.1724,-69.836"/>
</g>
<!-- libmpc&#45;&gt;libgcc -->
<g id="edge5" class="edge">
<title>libmpc&#45;&gt;libgcc</title>
<path fill="none" stroke="#444444" stroke-opacity="0.333333" d="M470.3724,-100.1725C479.217,-135.1019 498.7222,-212.1322 509.2503,-253.71"/>
<polygon fill="#444444" fill-opacity="0.333333" stroke="#444444" stroke-opacity="0.333333" points="505.8739,-254.6346 511.7215,-263.4695 512.6597,-252.9163 505.8739,-254.6346"/>
</g>
<!-- gcc&#45;&gt;libgcc -->
<g id="edge6" class="edge">
<title>gcc&#45;&gt;libgcc</title>
<path fill="none" stroke="#444444" stroke-opacity="0.333333" d="M571.242,-264.3943C570.5227,-264.6201 569.7971,-264.8478 569.0662,-265.0772"/>
<polygon fill="#444444" fill-opacity="0.333333" stroke="#444444" stroke-opacity="0.333333" points="567.8428,-261.7927 559.3496,-268.1264 569.9388,-268.4716 567.8428,-261.7927"/>
</g>
<!-- gcc&#45;&gt;binutils -->
<g id="edge7" class="edge">
<title>gcc&#45;&gt;binutils</title>
<path fill="none" stroke="#444444" stroke-opacity="0.333333" d="M613.3491,-273.9515C637.2639,-303.5196 684.7097,-362.1813 712.2912,-396.2828"/>
<polygon fill="#444444" fill-opacity="0.333333" stroke="#444444" stroke-opacity="0.333333" points="709.839,-398.8167 718.849,-404.3909 715.2817,-394.4146 709.839,-398.8167"/>
</g>
<!-- gcc&#45;&gt;cpp -->
<g id="edge8" class="edge">
<title>gcc&#45;&gt;cpp</title>
<path fill="none" stroke="#444444" stroke-opacity="0.333333" d="M597.5104,-237.5591C595.3715,-203.6406 590.7675,-130.6303 588.2223,-90.2684"/>
<polygon fill="#444444" fill-opacity="0.333333" stroke="#444444" stroke-opacity="0.333333" points="591.7002,-89.8052 587.5777,-80.0453 584.714,-90.2458 591.7002,-89.8052"/>
</g>
<!-- gcc&#45;&gt;libmpc -->
<g id="edge9" class="edge">
<title>gcc&#45;&gt;libmpc</title>
<path fill="none" stroke="#444444" stroke-opacity="0.333333" d="M584.6928,-237.532C561.0081,-206.5713 512.8952,-143.6779 485.6953,-108.1221"/>
<polygon fill="#444444" fill-opacity="0.333333" stroke="#444444" stroke-opacity="0.333333" points="488.4359,-105.9443 479.5801,-100.1284 482.8762,-110.1975 488.4359,-105.9443"/>
</g>
<!-- gcc&#45;&gt;isl -->
<g id="edge10" class="edge">
<title>gcc&#45;&gt;isl</title>
<path fill="none" stroke="#444444" stroke-opacity="0.333333" d="M625.8606,-262.2112C655.9289,-269.3093 704.5398,-280.7847 738.0953,-288.7061"/>
<polygon fill="#444444" fill-opacity="0.333333" stroke="#444444" stroke-opacity="0.333333" points="737.4519,-292.1503 747.9885,-291.0415 739.0602,-285.3376 737.4519,-292.1503"/>
</g>
<!-- gcc&#45;&gt;libasan -->
<g id="edge11" class="edge">
<title>gcc&#45;&gt;libasan</title>
<path fill="none" stroke="#444444" stroke-opacity="0.333333" d="M589.4528,-273.8266C570.4927,-310.9691 526.994,-396.1821 504.5821,-440.0865"/>
<polygon fill="#444444" fill-opacity="0.333333" stroke="#444444" stroke-opacity="0.333333" points="501.4366,-438.5505 500.0072,-449.0485 507.6712,-441.7332 501.4366,-438.5505"/>
</g>
<!-- gcc&#45;&gt;libatomic -->
<g id="edge12" class="edge">
<title>gcc&#45;&gt;libatomic</title>
<path fill="none" stroke="#444444" stroke-opacity="0.333333" d="M600.4442,-273.8352C604.4643,-314.4923 614.2554,-413.5159 619.092,-462.4315"/>
<polygon fill="#444444" fill-opacity="0.333333" stroke="#444444" stroke-opacity="0.333333" points="615.6326,-463.0162 620.0997,-472.6233 622.5986,-462.3274 615.6326,-463.0162"/>
</g>
<!-- gcc&#45;&gt;libgomp -->
<g id="edge13" class="edge">
<title>gcc&#45;&gt;libgomp</title>
<path fill="none" stroke="#444444" stroke-opacity="0.333333" d="M626.022,-240.2232C652.5957,-225.1049 693.2646,-201.9676 723.6392,-184.6868"/>
<polygon fill="#444444" fill-opacity="0.333333" stroke="#444444" stroke-opacity="0.333333" points="725.7473,-187.5144 732.7084,-179.5272 722.2858,-181.4301 725.7473,-187.5144"/>
</g>
<!-- gcc&#45;&gt;libubsan -->
<g id="edge14" class="edge">
<title>gcc&#45;&gt;libubsan</title>
<path fill="none" stroke="#444444" stroke-opacity="0.333333" d="M602.684,-237.5259C611.7916,-196.1879 634.0336,-95.2349 644.8883,-45.9672"/>
<polygon fill="#444444" fill-opacity="0.333333" stroke="#444444" stroke-opacity="0.333333" points="648.3504,-46.5198 647.084,-36.0009 641.5143,-45.0136 648.3504,-46.5198"/>
</g>
<!-- isl&#45;&gt;libgcc -->
<g id="edge15" class="edge">
<title>isl&#45;&gt;libgcc</title>
<path fill="none" stroke="#444444" stroke-opacity="0.333333" d="M748.0025,-295.8048C705.802,-293.2229 623.8043,-288.2061 569.5502,-284.8867"/>
<polygon fill="#444444" fill-opacity="0.333333" stroke="#444444" stroke-opacity="0.333333" points="569.6192,-281.3845 559.4241,-284.2672 569.1917,-288.3714 569.6192,-281.3845"/>
</g>
<!-- libasan&#45;&gt;libgcc -->
<g id="edge16" class="edge">
<title>libasan&#45;&gt;libgcc</title>
<path fill="none" stroke="#444444" stroke-opacity="0.333333" d="M493.1761,-449.1952C497.6584,-416.7429 507.0772,-348.5495 512.4141,-309.9091"/>
<polygon fill="#444444" fill-opacity="0.333333" stroke="#444444" stroke-opacity="0.333333" points="515.9025,-310.2333 513.8037,-299.8484 508.9683,-309.2755 515.9025,-310.2333"/>
</g>
<!-- libatomic&#45;&gt;libgcc -->
<g id="edge17" class="edge">
<title>libatomic&#45;&gt;libgcc</title>
<path fill="none" stroke="#444444" stroke-opacity="0.333333" d="M612.706,-472.5395C594.1442,-435.7745 552.071,-352.4412 530.1636,-309.0496"/>
<polygon fill="#444444" fill-opacity="0.333333" stroke="#444444" stroke-opacity="0.333333" points="533.1893,-307.2767 525.5579,-299.9273 526.9405,-310.4316 533.1893,-307.2767"/>
</g>
<!-- libgomp&#45;&gt;libgcc -->
<g id="edge18" class="edge">
<title>libgomp&#45;&gt;libgcc</title>
<path fill="none" stroke="#444444" stroke-opacity="0.333333" d="M726.9573,-179.6317C683.0576,-200.8896 610.2373,-236.1518 562.7619,-259.1411"/>
<polygon fill="#444444" fill-opacity="0.333333" stroke="#444444" stroke-opacity="0.333333" points="561.0957,-256.0592 553.6208,-263.5676 564.1465,-262.3594 561.0957,-256.0592"/>
</g>
<!-- libubsan&#45;&gt;libgcc -->
<g id="edge19" class="edge">
<title>libubsan&#45;&gt;libgcc</title>
<path fill="none" stroke="#444444" stroke-opacity="0.333333" d="M641.7895,-36.1204C618.5705,-81.5536 557.769,-200.5255 530.2306,-254.4107"/>
<polygon fill="#444444" fill-opacity="0.333333" stroke="#444444" stroke-opacity="0.333333" points="527.0795,-252.8855 525.6453,-263.3828 533.3127,-256.0711 527.0795,-252.8855"/>
</g>
<!-- libtool&#45;&gt;automake -->
<g id="edge20" class="edge">
<title>libtool&#45;&gt;automake</title>
<path fill="none" stroke="#444444" stroke-opacity="0.333333" d="M286.2737,-261.7135C273.422,-245.4271 254.5398,-221.4984 240.116,-203.2198"/>
<polygon fill="#444444" fill-opacity="0.333333" stroke="#444444" stroke-opacity="0.333333" points="242.7825,-200.9489 233.8402,-195.2668 237.2874,-205.2852 242.7825,-200.9489"/>
</g>
<!-- libtool&#45;&gt;autoconf -->
<g id="edge21" class="edge">
<title>libtool&#45;&gt;autoconf</title>
<path fill="none" stroke="#444444" stroke-opacity="0.333333" d="M252.642,-267.3403C214.1877,-257.1101 159.9779,-242.6885 117.8935,-231.4925"/>
<polygon fill="#444444" fill-opacity="0.333333" stroke="#444444" stroke-opacity="0.333333" points="118.5837,-228.0545 108.02,-228.8658 116.784,-234.8192 118.5837,-228.0545"/>
</g>
<!-- libtool&#45;&gt;libgcc -->
<g id="edge22" class="edge">
<title>libtool&#45;&gt;libgcc</title>
<path fill="none" stroke="#444444" stroke-opacity="0.333333" d="M348.9219,-280.4881C382.7914,-280.7191 428.1446,-281.0285 463.1005,-281.267"/>
<polygon fill="#444444" fill-opacity="0.333333" stroke="#444444" stroke-opacity="0.333333" points="463.1036,-284.767 473.1273,-281.3354 463.1514,-277.7671 463.1036,-284.767"/>
</g>
<!-- libtool&#45;&gt;gcc -->
<g id="edge23" class="edge">
<title>libtool&#45;&gt;gcc</title>
<path fill="none" stroke="#444444" stroke-opacity="0.333333" d="M349.0125,-276.2175C408.2806,-271.3678 507.6249,-263.239 561.3869,-258.8399"/>
<polygon fill="#444444" fill-opacity="0.333333" stroke="#444444" stroke-opacity="0.333333" points="561.825,-262.3158 571.5062,-258.0119 561.254,-255.3391 561.825,-262.3158"/>
</g>
<!-- libtool&#45;&gt;tar -->
<g id="edge24" class="edge">
<title>libtool&#45;&gt;tar</title>
<path fill="none" stroke="#444444" stroke-opacity="0.333333" d="M298.6232,-298.3098C295.1698,-326.7121 288.4609,-381.8895 284.3667,-415.5628"/>
<polygon fill="#444444" fill-opacity="0.333333" stroke="#444444" stroke-opacity="0.333333" points="280.8693,-415.3296 283.1367,-425.6789 287.8182,-416.1745 280.8693,-415.3296"/>
</g>
<!-- tar&#45;&gt;libgcc -->
<g id="edge25" class="edge">
<title>tar&#45;&gt;libgcc</title>
<path fill="none" stroke="#444444" stroke-opacity="0.333333" d="M307.4658,-425.6099C350.1403,-396.1909 434.0075,-338.3746 481.4539,-305.666"/>
<polygon fill="#444444" fill-opacity="0.333333" stroke="#444444" stroke-opacity="0.333333" points="483.6246,-308.4207 489.8712,-299.8632 479.6515,-302.6575 483.6246,-308.4207"/>
</g>
<!-- automake -->
<g id="node1" class="node">
<title>automake</title>
<text text-anchor="middle" x="219.41" y="-173.28" font-family="monospace" font-size="14.00" fill="#000000">automake</text>
</g>
<!-- autoconf -->
<g id="node2" class="node">
<title>autoconf</title>
<text text-anchor="middle" x="53.945" y="-210.78" font-family="monospace" font-size="14.00" fill="#000000">autoconf</text>
</g>
<!-- libgcc -->
<g id="node3" class="node">
<title>libgcc</title>
<text text-anchor="middle" x="516.32" y="-277.93" font-family="monospace" font-size="14.00" fill="#000000">libgcc</text>
</g>
<!-- binutils -->
<g id="node4" class="node">
<title>binutils</title>
<text text-anchor="middle" x="733.52" y="-418.83" font-family="monospace" font-size="14.00" fill="#000000">binutils</text>
</g>
<!-- cpp -->
<g id="node5" class="node">
<title>cpp</title>
<text text-anchor="middle" x="586.44" y="-58.304" font-family="monospace" font-size="14.00" fill="#000000">cpp</text>
</g>
<!-- libmpc -->
<g id="node6" class="node">
<title>libmpc</title>
<text text-anchor="middle" x="465.8" y="-78.415" font-family="monospace" font-size="14.00" fill="#000000">libmpc</text>
</g>
<!-- gcc -->
<g id="node7" class="node">
<title>gcc</title>
<text text-anchor="middle" x="598.66" y="-252.09" font-family="monospace" font-size="14.00" fill="#000000">gcc</text>
</g>
<!-- isl -->
<g id="node8" class="node">
<title>isl</title>
<text text-anchor="middle" x="775.22" y="-293.77" font-family="monospace" font-size="14.00" fill="#000000">isl</text>
</g>
<!-- libasan -->
<g id="node9" class="node">
<title>libasan</title>
<text text-anchor="middle" x="490.67" y="-463.64" font-family="monospace" font-size="14.00" fill="#000000">libasan</text>
</g>
<!-- libatomic -->
<g id="node10" class="node">
<title>libatomic</title>
<text text-anchor="middle" x="621.89" y="-487.03" font-family="monospace" font-size="14.00" fill="#000000">libatomic</text>
</g>
<!-- libgomp -->
<g id="node11" class="node">
<title>libgomp</title>
<text text-anchor="middle" x="764.36" y="-157.82" font-family="monospace" font-size="14.00" fill="#000000">libgomp</text>
</g>
<!-- libubsan -->
<g id="node12" class="node">
<title>libubsan</title>
<text text-anchor="middle" x="651.05" y="-14.3" font-family="monospace" font-size="14.00" fill="#000000">libubsan</text>
</g>
<!-- libtool -->
<g id="node13" class="node">
<title>libtool</title>
<text text-anchor="middle" x="300.83" y="-276.46" font-family="monospace" font-size="14.00" fill="#000000">libtool</text>
</g>
<!-- tar -->
<g id="node14" class="node">
<title>tar</title>
<text text-anchor="middle" x="280.92" y="-440.21" font-family="monospace" font-size="14.00" fill="#000000">tar</text>
</g>
</g>
</svg>
