<?xml version="1.0" encoding="UTF-8" standalone="no"?>
<!DOCTYPE svg PUBLIC "-//W3C//DTD SVG 1.1//EN"
 "http://www.w3.org/Graphics/SVG/1.1/DTD/svg11.dtd">
<!-- Generated by graphviz version 2.40.1 (20161225.0304)
 -->
<!-- Title: G Pages: 1 -->
<svg width="953pt" height="699pt"
 viewBox="0.00 0.00 952.55 698.90" xmlns="http://www.w3.org/2000/svg" xmlns:xlink="http://www.w3.org/1999/xlink">
<g id="graph0" class="graph" transform="scale(1 1) rotate(0) translate(68.0433 599.9596)">
<title>G</title>
<polygon fill="#dae2ff" stroke="transparent" points="-68.0433,98.9407 -68.0433,-599.9596 884.5106,-599.9596 884.5106,98.9407 -68.0433,98.9407"/>
<polygon fill="#fbb4ae" stroke="#fbb4ae" points="584.8693,90.4564 584.1256,90.8103 575.8442,94.9407 530.2119,63.5936 474.0614,6.6978 475.2929,-6.6458 475.864,-14.7648 475.918,-15.8836 476.0896,-22.4134 476.9499,-34.5773 580.3981,-24.5485 584.3794,-20.9067 580.0648,-111.0246 583.4163,-111.1976 583.6537,-111.4335 581.6649,-173.4207 582.937,-197.6076 578.62,-201.578 669.7323,-207.8256 670.17,-208.2892 677.5063,-215.2835 677.7191,-215.5232 651.3232,-265.7177 658.3515,-274.9655 668.2009,-286.6399 673.6541,-292.0337 718.0491,-296.3311 718.0491,-296.3311 673.6541,-292.0337 668.2009,-286.6399 658.3515,-274.9655 651.3232,-265.7177 677.7191,-215.5232 677.5063,-215.2835 670.17,-208.2892 669.7323,-207.8256 578.62,-201.578 582.937,-197.6076 581.6649,-173.4207 583.6537,-111.4335 583.4163,-111.1976 580.0648,-111.0246 584.3794,-20.9067 580.3981,-24.5485 476.9499,-34.5773 477.2191,-40.132 478.8319,-62.9907 481.5242,-92.161 446.5099,-130.2119 457.3554,-191.8665 459.7603,-212.3171 460.3546,-216.3333 461.8099,-232.9066 463.8425,-246.7443 474.2518,-305.919 531.0139,-304.8648 538.6285,-210.8475 541.8349,-208.1687 544.7153,-261.2302 546.0283,-204.4362 549.235,-204.4362 550.4533,-204.1841 551.4875,-204.1841 553.6085,-206.3479 556.7011,-208.1994 560.4478,-208.9599 560.4478,-208.9599 556.7011,-208.1994 553.6085,-206.3479 551.4875,-204.1841 550.4533,-204.1841 549.235,-204.4362 546.0283,-204.4362 544.7153,-261.2302 541.8349,-208.1687 538.6285,-210.8475 531.0139,-304.8648 474.2518,-305.919 412.8674,-367.2213 424.5381,-387.9968 436.0503,-410.5097 445.4776,-429.9835 473.7287,-492.0857 473.9062,-492.454 479.3831,-502.6481 482.7811,-503.0201 541.3528,-499.8369 553.7607,-499.7032 552.0759,-444.7187 552.0759,-444.7187 553.7607,-499.7032 556.0253,-499.7775 560.0051,-499.9949 562.0023,-426.0008 565.8007,-405.2033 565.2203,-405.0815 565.2203,-405.0815 565.8007,-405.2033 562.0023,-426.0008 560.0051,-499.9949 572.5001,-501.2235 575.7312,-501.6816 583.2731,-503.0806 584.4716,-426.7136 587.2305,-409.8183 590.1674,-409.8183 593.2943,-408.5452 597.3738,-405.049 596.8491,-404.3884 594.3988,-402.4174 594.3988,-402.4174 596.8491,-404.3884 597.3738,-405.049 593.2943,-408.5452 597.0706,-439.4393 598.1429,-428.615 603.2576,-406.1836 607.6477,-424.7739 609.8835,-405.102 610.2668,-405.0215 612.7265,-405.0215 612.1923,-366.225 614.4236,-367.8792 615.839,-369.3401 623.8925,-376.5597 624.687,-377.1461 625.5054,-377.6369 628.3565,-404.5487 630.6644,-401.2254 633.0009,-381.3425 632.9999,-381.1795 643.1072,-383.2175 643.1072,-383.2175 632.9999,-381.1795 633.0009,-381.3425 635.1736,-398.2033 643.8267,-400.1845 666.1277,-398.4255 665.2139,-397.326 658.2697,-390.968 660.2437,-360.1594 662.1922,-361.7688 668.2794,-364.4984 671.2088,-364.4984 674.5286,-363.1338 678.2648,-359.9362 674.5619,-356.6682 671.6375,-355.4278 667.4867,-355.4278 667.4867,-355.4278 671.6375,-355.4278 674.5619,-356.6682 678.2648,-359.9362 674.5286,-363.1338 671.2088,-364.4984 668.2794,-364.4984 662.1922,-361.7688 660.2437,-360.1594 658.2697,-390.968 665.2139,-397.326 666.1277,-398.4255 643.8267,-400.1845 635.1736,-398.2033 633.0009,-381.3425 630.6644,-401.2254 628.3565,-404.5487 625.5054,-377.6369 624.687,-377.1461 623.8925,-376.5597 615.839,-369.3401 614.4236,-367.8792 612.1923,-366.225 612.7265,-405.0215 610.2668,-405.0215 609.8835,-405.102 607.6477,-424.7739 603.2576,-406.1836 598.1429,-428.615 597.0706,-439.4393 593.2943,-408.5452 590.1674,-409.8183 587.2305,-409.8183 584.4716,-426.7136 583.2731,-503.0806 591.9356,-505.0667 595.3882,-505.9332 609.0149,-510.2522 619.1623,-514.1332 624.7611,-516.3954 634.1142,-520.9949 646.791,-515.6416 673.1689,-505.0699 702.3302,-488.7734 721.0224,-462.8515 736.2543,-453.4884 777.59,-394.0295 787.2267,-391.0489 870.7396,-367.3512 880.5106,-355.5547 873.1019,-320.8286 867.956,-293.2051 860.8039,-222.8824 852.2574,-213.5108 840.3695,-205.8318 788.5247,-186.6368 784.4686,-255.7592 784.3395,-292.856 784.3395,-292.856 784.4686,-255.7592 788.5247,-186.6368 781.5792,-183.7687 776.2286,-131.602 774.4299,-107.5626 774.8822,-60.2771 737.2668,-15.3209 735.4276,-.9296 734.7266,.6693 713.3898,52.5878 673.0487,69.8338 636.7097,74.8781 628.6683,76.3583 616.0131,79.2613 610.3419,80.8154 611.4767,11.2933 609.6323,-13.4838 614.3431,-15.4723 617.2927,-17.8546 613.7137,-20.8402 613.1252,-80.7792 618.0605,-17.9841 621.4545,-17.9841 621.6388,-17.9472 622.9928,-17.9472 623.7098,-18.0943 628.6062,-60.7331 629.4517,-74.8589 633.192,-73.0812 668.3312,-59.7038 669.152,-106.38 652.493,-111.2173 674.5873,-111.2763 674.5873,-115.7857 676.724,-117.1935 680.8241,-118.1026 680.8241,-118.1026 676.724,-117.1935 674.5873,-115.7857 674.5873,-111.2763 652.493,-111.2173 669.152,-106.38 668.3312,-59.7038 633.192,-73.0812 629.4517,-74.8589 628.6062,-60.7331 623.7098,-18.0943 622.9928,-17.9472 621.6388,-17.9472 621.4545,-17.9841 618.0605,-17.9841 613.1252,-80.7792 613.7137,-20.8402 617.2927,-17.8546 614.3431,-15.4723 609.6323,-13.4838 606.7784,-13.4838 602.2803,-15.42 599.0967,-18.1066 600.0966,-19.3556 601.9091,-20.7722 605.9152,-22.402 605.9152,-22.402 601.9091,-20.7722 600.0966,-19.3556 599.0967,-18.1066 602.2803,-15.42 606.7784,-13.4838 609.6323,-13.4838 611.4767,11.2933 610.3419,80.8154 605.4016,82.3906 590.1527,88.2943 584.8693,90.4564 584.8693,90.4564"/>
<polygon fill="#fed9a6" stroke="#fed9a6" points="-40.5792,-154.3279 31.3374,-151.9745 41.4399,-154.2693 43.0696,-211.4968 44.1164,-211.505 44.1403,-211.5044 49.4105,-211.5533 50.5387,-211.4883 52.2223,-211.45 52.7946,-200.0023 53.1066,-147.0989 57.2455,-147.0989 57.7147,-147.7081 59.7058,-149.364 59.7058,-149.364 57.7147,-147.7081 57.2455,-147.0989 53.1066,-147.0989 52.7946,-200.0023 52.2223,-211.45 50.5387,-211.4883 49.4105,-211.5533 44.1403,-211.5044 44.1164,-211.505 44.4226,-272.0861 41.2968,-273.9478 38.919,-276.3924 39.6672,-277.1317 44.5455,-280.1746 47.7015,-280.8227 51.95,-279.9154 56.7302,-276.8925 57.4736,-276.1549 57.7062,-276.1549 59.0878,-276.4366 62.2285,-276.4366 62.9806,-276.2805 64.0546,-276.2805 66.2797,-272.7015 70.4842,-269.3343 83.6153,-270.4594 151.8106,-262.6765 151.6427,-259.2368 213.0261,-255.9179 233.5661,-257.3067 237.5205,-254.2985 238.4866,-252.8103 238.0467,-251.5204 238.0467,-250.2354 238.9178,-247.8143 241.3898,-246.2705 245.0865,-245.5136 248.2308,-246.1547 251.2098,-248.0833 251.2098,-248.0833 251.2098,-248.0833 251.2098,-248.0833 248.2308,-246.1547 245.0865,-245.5136 241.3898,-246.2705 238.9178,-247.8143 238.0467,-250.2354 238.0467,-251.5204 238.4866,-252.8103 240.0353,-253.7728 240.0353,-253.7728 238.4866,-252.8103 237.5205,-254.2985 233.5661,-257.3067 213.0261,-255.9179 151.6427,-259.2368 151.8106,-262.6765 83.6153,-270.4594 70.4842,-269.3343 66.2797,-272.7015 64.0546,-276.2805 62.9806,-276.2805 62.2285,-276.4366 59.0878,-276.4366 57.7062,-276.1549 57.4736,-276.1549 56.7302,-276.8925 51.95,-279.9154 47.7015,-280.8227 44.5455,-280.1746 39.6672,-277.1317 38.919,-276.3924 41.2968,-273.9478 44.4226,-272.0861 44.1164,-211.505 43.0696,-211.4968 41.4399,-154.2693 31.3374,-151.9745 -40.5792,-154.3279 -44.9692,-200.9758 -64.0433,-222.7344 -62.4981,-263.9841 -62.3122,-280.2814 -63.3728,-296.1525 -31.8071,-368.6234 -3.0092,-382.3134 -.0245,-387.6204 87.0335,-380.6684 100.1943,-382.2489 103.9095,-379.7199 106.845,-375.4505 106.8459,-375.4505 107.405,-375.5663 111.792,-375.5663 113.0643,-375.3056 113.5217,-375.3056 114.0724,-375.4172 117.4048,-375.4172 120.7791,-400.0112 122.8264,-378.4459 126.3754,-379.9173 129.2179,-379.9173 133.2218,-378.2433 136.7042,-375.2969 133.2552,-372.3809 129.2067,-370.6853 126.1039,-370.6853 126.1039,-370.6853 129.2067,-370.6853 133.2552,-372.3809 136.7042,-375.2969 133.2218,-378.2433 134.3957,-420.3601 137.7356,-375.3591 141.5923,-375.3591 135.6599,-441.7793 149.5859,-435.9149 147.1911,-398.1172 147.1911,-398.1172 149.5859,-435.9149 135.6599,-441.7793 141.5923,-375.3591 137.7356,-375.3591 134.3957,-420.3601 133.2218,-378.2433 129.2179,-379.9173 126.3754,-379.9173 122.8264,-378.4459 120.7791,-400.0112 117.4048,-375.4172 114.0724,-375.4172 113.5217,-375.3056 113.0643,-375.3056 111.792,-375.5663 107.405,-375.5663 106.8459,-375.4505 106.845,-375.4505 103.9095,-379.7199 100.1943,-382.2489 87.0335,-380.6684 -.0245,-387.6204 6.6801,-400.9373 40.1824,-454.0069 85.2169,-479.6395 87.4443,-485.72 100.1211,-534.2217 114.8383,-559.8372 189.9823,-580.3425 188.7481,-557.7133 188.7481,-557.7133 189.9823,-580.3425 190.0012,-580.3486 194.1038,-581.7743 195.1322,-486.8203 198.7581,-489.267 203.0976,-490.2601 206.5491,-489.4915 210.4959,-486.8058 211.6752,-485.4557 206.0503,-481.6194 203.2887,-481.0309 203.2887,-481.0309 206.0503,-481.6194 211.6752,-485.4557 210.4959,-486.8058 206.5491,-489.4915 203.0976,-490.2601 198.7581,-489.267 195.1322,-486.8203 194.1038,-581.7743 199.8992,-583.9343 210.0334,-588.2226 213.0916,-589.7479 214.2963,-590.1154 219.3056,-591.756 222.4172,-591.9188 222.3474,-492.6076 238.649,-491.345 258.2118,-492.9183 252.6463,-478.9693 249.8588,-466.5156 279.0088,-462.311 282.4016,-493.9955 282.6799,-500.7106 287.5495,-459.9318 290.6136,-460.5782 290.6136,-460.5782 287.5495,-459.9318 282.6799,-500.7106 282.4016,-493.9955 279.0088,-462.311 249.8588,-466.5156 252.6463,-478.9693 258.2118,-492.9183 238.649,-491.345 222.3474,-492.6076 222.4172,-591.9188 265.7678,-595.059 270.3892,-593.1974 281.6592,-595.218 320.8971,-595.9596 341.2497,-591.4127 344.8047,-590.7098 356.1879,-589.0411 356.5815,-560.2753 358.191,-530.0639 362.3964,-501.8739 357.0939,-504.3269 352.917,-504.3269 350.1154,-503.0926 346.9967,-500.1218 346.9967,-499.1938 346.4594,-498.6897 346.4594,-498.6897 346.9967,-499.1938 346.9967,-500.1218 350.1154,-503.0926 352.917,-504.3269 357.0939,-504.3269 362.3964,-501.8739 363.1445,-501.2264 363.1445,-498.4245 362.1872,-497.6011 357.4073,-495.4318 357.4073,-495.4318 362.1872,-497.6011 363.1445,-498.4245 363.1445,-501.2264 362.3964,-501.8739 358.191,-530.0639 356.5815,-560.2753 356.1879,-589.0411 371.1947,-587.9975 425.56,-587.0173 466.9742,-521.3343 479.3831,-502.6481 473.9062,-492.454 473.7287,-492.0857 445.4776,-429.9835 436.0503,-410.5097 424.5381,-387.9968 412.8674,-367.2213 474.2518,-305.919 463.8425,-246.7443 461.8099,-232.9066 460.3546,-216.3333 459.7603,-212.3171 457.3554,-191.8665 446.5099,-130.2119 481.5242,-92.161 478.8319,-62.9907 477.2191,-40.132 476.9499,-34.5773 476.0896,-22.4134 475.918,-15.8836 475.864,-14.7648 475.2929,-6.6458 474.0614,6.6978 379.8118,62.8913 378.8133,63.5158 365.7667,62.5734 358.7829,62.3681 353.8678,62.5395 345.993,60.626 340.761,59.5947 330.4258,58.0288 331.7048,-19.4254 328.4559,-34.7583 329.271,-36.8214 330.0812,-37.0017 333.0743,-37.0017 335.6389,-68.7931 338.3469,-36.9745 338.4382,-36.9745 341.2761,-39.4428 341.2761,-39.4428 338.4382,-36.9745 338.3469,-36.9745 335.6389,-68.7931 333.0743,-37.0017 330.0812,-37.0017 329.271,-36.8214 328.4559,-34.7583 331.7048,-19.4254 330.4258,58.0288 320.0624,56.9334 323.5613,-15.8383 323.5613,-15.8383 320.0624,56.9334 292.653,55.2926 256.7705,69.2191 255.1223,68.7366 241.0934,64.9595 232.8994,62.9528 225.9095,61.5829 178.5315,55.7454 156.4288,62.4389 137.7849,68.5126 124.4199,74.361 118.4777,77.0927 118.8448,37.3132 123.465,-31.192 120.026,-33.3262 118.1088,-35.3835 120.3209,-37.7106 122.7542,-39.1643 126.3838,-39.9082 131.6857,-38.7723 134.2181,-37.2782 135.8012,-35.7205 137.2524,-35.7205 140.8035,-82.0885 141.8234,-35.5803 141.8351,-35.5803 144.8875,-39.7261 149.1083,-42.3322 160.0383,-39.8592 185.6717,-40.0339 194.4238,-135.3728 198.9518,-141.1117 220.6006,-139.9545 223.9658,-52.3874 222.3978,-35.6768 227.4411,-31.0918 227.5751,-31.2415 229.4653,-32.4178 229.4653,-32.4178 227.5751,-31.2415 227.4411,-31.0918 222.3978,-35.6768 223.9658,-52.3874 220.6006,-139.9545 198.9518,-141.1117 194.4238,-135.3728 185.6717,-40.0339 160.0383,-39.8592 149.1083,-42.3322 144.8875,-39.7261 141.8351,-35.5803 141.8234,-35.5803 140.8035,-82.0885 137.2524,-35.7205 135.8012,-35.7205 134.2181,-37.2782 131.6857,-38.7723 126.3838,-39.9082 122.7542,-39.1643 120.3209,-37.7106 118.1088,-35.3835 116.3759,-35.3835 114.4614,-60.8109 110.9309,-36.5035 109.8761,-37.3237 109.8761,-37.3237 110.9309,-36.5035 114.4614,-60.8109 116.3759,-35.3835 118.1088,-35.3835 120.026,-33.3262 123.465,-31.192 118.8448,37.3132 118.4777,77.0927 111.7134,80.6539 111.521,80.7595 106.941,79.3153 103.786,78.381 66.987,68.1864 50.6365,56.5243 21.9891,-2.3609 18.2529,-23.8776 15.1776,-39.1602 14.4936,-41.579 12.3953,-51.6879 43.4438,-72.5873 55.4208,-79.1987 65.172,-83.7756 70.1993,-85.5123 77.6882,-87.7955 89.2921,-90.3795 89.1763,-93.9172 88.3012,-105.3968 88.3012,-105.3968 89.1763,-93.9172 89.2921,-90.3795 77.6882,-87.7955 70.1993,-85.5123 65.172,-83.7756 55.4208,-79.1987 43.4438,-72.5873 12.3953,-51.6879 -36.8268,-92.4853 -40.8049,-99.9017 -40.0438,-140.1096 -40.5792,-154.3279 -40.5792,-154.3279"/>
<polyline fill="none" stroke="#000000" points="736.2543,-453.4884 721.0224,-462.8515 702.3302,-488.7734 673.1689,-505.0699 646.791,-515.6416 634.1142,-520.9949 624.7611,-516.3954 619.1623,-514.1332 609.0149,-510.2522 595.3882,-505.9332 591.9356,-505.0667 583.2731,-503.0806 575.7312,-501.6816 572.5001,-501.2235 560.0051,-499.9949 556.0253,-499.7775 553.7607,-499.7032 541.3528,-499.8369 482.7811,-503.0201 479.3831,-502.6481 473.9062,-492.454 473.7287,-492.0857 445.4776,-429.9835 436.0503,-410.5097 424.5381,-387.9968 412.8674,-367.2213 474.2518,-305.919 463.8425,-246.7443 461.8099,-232.9066 460.3546,-216.3333 459.7603,-212.3171 457.3554,-191.8665 446.5099,-130.2119 481.5242,-92.161 478.8319,-62.9907 477.2191,-40.132 476.9499,-34.5773 476.0896,-22.4134 475.918,-15.8836 475.864,-14.7648 475.2929,-6.6458 474.0614,6.6978 530.2119,63.5936 575.8442,94.9407 584.1256,90.8103 584.8693,90.4564 590.1527,88.2943 605.4016,82.3906 610.3419,80.8154 616.0131,79.2613 628.6683,76.3583 636.7097,74.8781 673.0487,69.8338 713.3898,52.5878 734.7266,.6693 735.4276,-.9296 737.2668,-15.3209 774.8822,-60.2771 774.4299,-107.5626 776.2286,-131.602 781.5792,-183.7687 788.5247,-186.6368 840.3695,-205.8318 852.2574,-213.5108 860.8039,-222.8824 867.956,-293.2051 873.1019,-320.8286 880.5106,-355.5547 870.7396,-367.3512 787.2267,-391.0489 777.59,-394.0295 736.2543,-453.4884 "/>
<polyline fill="none" stroke="#000000" points="474.2518,-305.919 463.8425,-246.7443 461.8099,-232.9066 460.3546,-216.3333 459.7603,-212.3171 457.3554,-191.8665 446.5099,-130.2119 481.5242,-92.161 478.8319,-62.9907 477.2191,-40.132 476.9499,-34.5773 476.0896,-22.4134 475.918,-15.8836 475.864,-14.7648 475.2929,-6.6458 474.0614,6.6978 379.8118,62.8913 378.8133,63.5158 365.7667,62.5734 358.7829,62.3681 353.8678,62.5395 345.993,60.626 340.761,59.5947 330.4258,58.0288 320.0624,56.9334 292.653,55.2926 256.7705,69.2191 255.1223,68.7366 241.0934,64.9595 232.8994,62.9528 225.9095,61.5829 178.5315,55.7454 156.4288,62.4389 137.7849,68.5126 124.4199,74.361 118.4777,77.0927 111.7134,80.6539 111.521,80.7595 106.941,79.3153 103.786,78.381 66.987,68.1864 50.6365,56.5243 21.9891,-2.3609 18.2529,-23.8776 15.1776,-39.1602 14.4936,-41.579 12.3953,-51.6879 -36.8268,-92.4853 -40.8049,-99.9017 -40.0438,-140.1096 -40.5792,-154.3279 -44.9692,-200.9758 -64.0433,-222.7344 -62.4981,-263.9841 -62.3122,-280.2814 -63.3728,-296.1525 -31.8071,-368.6234 -3.0092,-382.3134 -.0245,-387.6204 6.6801,-400.9373 40.1824,-454.0069 85.2169,-479.6395 87.4443,-485.72 100.1211,-534.2217 114.8383,-559.8372 189.9823,-580.3425 190.0012,-580.3486 194.1038,-581.7743 199.8992,-583.9343 210.0334,-588.2226 213.0916,-589.7479 214.2963,-590.1154 219.3056,-591.756 222.4172,-591.9188 265.7678,-595.059 270.3892,-593.1974 281.6592,-595.218 320.8971,-595.9596 341.2497,-591.4127 344.8047,-590.7098 356.1879,-589.0411 371.1947,-587.9975 425.56,-587.0173 466.9742,-521.3343 479.3831,-502.6481 473.9062,-492.454 473.7287,-492.0857 445.4776,-429.9835 436.0503,-410.5097 424.5381,-387.9968 412.8674,-367.2213 474.2518,-305.919 "/>
<!-- autoconf&#45;&gt;emacs&#45;filesystem -->
<g id="edge1" class="edge">
<title>autoconf&#45;&gt;emacs&#45;filesystem</title>
<path fill="none" stroke="#444444" stroke-opacity="0.333333" d="M729.9195,-318.0034C701.3406,-335.613 657.7807,-362.4534 626.5383,-381.7041"/>
<polygon fill="#444444" fill-opacity="0.333333" stroke="#444444" stroke-opacity="0.333333" points="624.3501,-378.9413 617.6726,-387.1669 628.0222,-384.9008 624.3501,-378.9413"/>
</g>
<!-- emacs&#45;filesystem&#45;&gt;libgcc -->
<g id="edge2" class="edge">
<title>emacs&#45;filesystem&#45;&gt;libgcc</title>
<path fill="none" stroke="#444444" stroke-opacity="0.333333" d="M564.6533,-386.9042C523.7228,-355.3384 439.8644,-290.6666 394.1014,-255.374"/>
<polygon fill="#444444" fill-opacity="0.333333" stroke="#444444" stroke-opacity="0.333333" points="396.0748,-252.476 386.0187,-249.1406 391.8,-258.0191 396.0748,-252.476"/>
</g>
<!-- automake&#45;&gt;autoconf -->
<g id="edge3" class="edge">
<title>automake&#45;&gt;autoconf</title>
<path fill="none" stroke="#444444" stroke-opacity="0.333333" d="M696.7989,-341.5025C705.2597,-335.8708 714.6988,-329.5879 723.6259,-323.6457"/>
<polygon fill="#444444" fill-opacity="0.333333" stroke="#444444" stroke-opacity="0.333333" points="725.5943,-326.54 731.9794,-318.0854 721.7155,-320.7129 725.5943,-326.54"/>
</g>
<!-- automake&#45;&gt;libgcc -->
<g id="edge4" class="edge">
<title>automake&#45;&gt;libgcc</title>
<path fill="none" stroke="#444444" stroke-opacity="0.333333" d="M626.3403,-341.7665C570.9418,-318.5169 474.6596,-278.1091 415.0188,-253.0791"/>
<polygon fill="#444444" fill-opacity="0.333333" stroke="#444444" stroke-opacity="0.333333" points="416.3486,-249.8415 405.7732,-249.1989 413.6397,-256.2961 416.3486,-249.8415"/>
</g>
<!-- binutils&#45;&gt;libgcc -->
<g id="edge5" class="edge">
<title>binutils&#45;&gt;libgcc</title>
<path fill="none" stroke="#444444" stroke-opacity="0.333333" d="M348.6941,-55.129C351.3865,-89.1964 357.1887,-162.6112 360.3816,-203.0102"/>
<polygon fill="#444444" fill-opacity="0.333333" stroke="#444444" stroke-opacity="0.333333" points="356.8938,-203.3049 361.1709,-212.998 363.8721,-202.7533 356.8938,-203.3049"/>
</g>
<!-- cpp&#45;&gt;libmpc -->
<g id="edge6" class="edge">
<title>cpp&#45;&gt;libmpc</title>
<path fill="none" stroke="#444444" stroke-opacity="0.333333" d="M263.4748,-465.1373C260.9606,-465.9909 258.3613,-466.8734 255.7174,-467.771"/>
<polygon fill="#444444" fill-opacity="0.333333" stroke="#444444" stroke-opacity="0.333333" points="254.3644,-464.5341 246.0205,-471.0632 256.6148,-471.1625 254.3644,-464.5341"/>
</g>
<!-- cpp&#45;&gt;mpfr -->
<g id="edge7" class="edge">
<title>cpp&#45;&gt;mpfr</title>
<path fill="none" stroke="#444444" stroke-opacity="0.333333" d="M317.404,-474.0005C318.3398,-474.6397 319.2821,-475.2833 320.2277,-475.9292"/>
<polygon fill="#444444" fill-opacity="0.333333" stroke="#444444" stroke-opacity="0.333333" points="318.5053,-478.9912 328.7371,-481.7412 322.4534,-473.2108 318.5053,-478.9912"/>
</g>
<!-- libmpc&#45;&gt;libgcc -->
<g id="edge8" class="edge">
<title>libmpc&#45;&gt;libgcc</title>
<path fill="none" stroke="#444444" stroke-opacity="0.333333" d="M214.3388,-467.4069C242.1444,-423.0851 313.1701,-309.8708 345.7754,-257.8982"/>
<polygon fill="#444444" fill-opacity="0.333333" stroke="#444444" stroke-opacity="0.333333" points="348.8657,-259.5582 351.2153,-249.2271 342.936,-255.8381 348.8657,-259.5582"/>
</g>
<!-- libmpc&#45;&gt;mpfr -->
<g id="edge9" class="edge">
<title>libmpc&#45;&gt;mpfr</title>
<path fill="none" stroke="#444444" stroke-opacity="0.333333" d="M246.1141,-489.7313C266.8918,-491.6577 291.715,-493.9593 312.434,-495.8803"/>
<polygon fill="#444444" fill-opacity="0.333333" stroke="#444444" stroke-opacity="0.333333" points="312.2642,-499.3794 322.5447,-496.8177 312.9105,-492.4093 312.2642,-499.3794"/>
</g>
<!-- mpfr&#45;&gt;libgcc -->
<g id="edge10" class="edge">
<title>mpfr&#45;&gt;libgcc</title>
<path fill="none" stroke="#444444" stroke-opacity="0.333333" d="M355.7437,-481.7979C356.9959,-436.0059 360.3041,-315.0356 361.8205,-259.5828"/>
<polygon fill="#444444" fill-opacity="0.333333" stroke="#444444" stroke-opacity="0.333333" points="365.324,-259.4994 362.0988,-249.4074 358.3266,-259.308 365.324,-259.4994"/>
</g>
<!-- findutils&#45;&gt;libgcc -->
<g id="edge11" class="edge">
<title>findutils&#45;&gt;libgcc</title>
<path fill="none" stroke="#444444" stroke-opacity="0.333333" d="M587.178,-36.1671C543.2402,-74.301 441.3389,-162.7419 391.3297,-206.1453"/>
<polygon fill="#444444" fill-opacity="0.333333" stroke="#444444" stroke-opacity="0.333333" points="388.7372,-203.7609 383.4791,-212.9589 393.3255,-209.0475 388.7372,-203.7609"/>
</g>
<!-- gcc&#45;&gt;libgcc -->
<g id="edge12" class="edge">
<title>gcc&#45;&gt;libgcc</title>
<path fill="none" stroke="#444444" stroke-opacity="0.333333" d="M272.3061,-245.9421C283.3315,-244.1273 296.457,-241.9669 309.238,-239.8632"/>
<polygon fill="#444444" fill-opacity="0.333333" stroke="#444444" stroke-opacity="0.333333" points="310.0688,-243.2737 319.3675,-238.1959 308.9318,-236.3666 310.0688,-243.2737"/>
</g>
<!-- gcc&#45;&gt;binutils -->
<g id="edge13" class="edge">
<title>gcc&#45;&gt;binutils</title>
<path fill="none" stroke="#444444" stroke-opacity="0.333333" d="M253.7544,-232.2209C271.7069,-194.7081 312.9035,-108.6258 334.1083,-64.3173"/>
<polygon fill="#444444" fill-opacity="0.333333" stroke="#444444" stroke-opacity="0.333333" points="337.3979,-65.5512 338.5577,-55.02 331.0837,-62.5294 337.3979,-65.5512"/>
</g>
<!-- gcc&#45;&gt;cpp -->
<g id="edge14" class="edge">
<title>gcc&#45;&gt;cpp</title>
<path fill="none" stroke="#444444" stroke-opacity="0.333333" d="M249.1036,-268.6597C257.1311,-304.6723 275.0688,-385.1433 284.5997,-427.9002"/>
<polygon fill="#444444" fill-opacity="0.333333" stroke="#444444" stroke-opacity="0.333333" points="281.1836,-428.6623 286.7755,-437.6612 288.0159,-427.1392 281.1836,-428.6623"/>
</g>
<!-- gcc&#45;&gt;libmpc -->
<g id="edge15" class="edge">
<title>gcc&#45;&gt;libmpc</title>
<path fill="none" stroke="#444444" stroke-opacity="0.333333" d="M241.7995,-268.5021C234.483,-309.3053 216.6412,-408.8078 207.8765,-457.6875"/>
<polygon fill="#444444" fill-opacity="0.333333" stroke="#444444" stroke-opacity="0.333333" points="204.4215,-457.1255 206.1016,-467.5863 211.3117,-458.3611 204.4215,-457.1255"/>
</g>
<!-- gcc&#45;&gt;mpfr -->
<g id="edge16" class="edge">
<title>gcc&#45;&gt;mpfr</title>
<path fill="none" stroke="#444444" stroke-opacity="0.333333" d="M253.144,-268.7704C272.298,-312.1185 320.4507,-421.0945 343.1075,-472.3699"/>
<polygon fill="#444444" fill-opacity="0.333333" stroke="#444444" stroke-opacity="0.333333" points="340.0396,-474.0868 347.2828,-481.8191 346.4424,-471.2576 340.0396,-474.0868"/>
</g>
<!-- gcc&#45;&gt;isl -->
<g id="edge17" class="edge">
<title>gcc&#45;&gt;isl</title>
<path fill="none" stroke="#444444" stroke-opacity="0.333333" d="M244.1496,-232.3005C242.2562,-193.7455 237.8178,-103.3713 235.5488,-57.1706"/>
<polygon fill="#444444" fill-opacity="0.333333" stroke="#444444" stroke-opacity="0.333333" points="239.0338,-56.7765 235.0474,-46.9603 232.0422,-57.1199 239.0338,-56.7765"/>
</g>
<!-- gcc&#45;&gt;libasan -->
<g id="edge18" class="edge">
<title>gcc&#45;&gt;libasan</title>
<path fill="none" stroke="#444444" stroke-opacity="0.333333" d="M217.6558,-254.0146C189.0592,-257.7579 143.3361,-263.7431 106.5729,-268.5554"/>
<polygon fill="#444444" fill-opacity="0.333333" stroke="#444444" stroke-opacity="0.333333" points="105.9242,-265.1103 96.4631,-269.8787 106.8328,-272.0511 105.9242,-265.1103"/>
</g>
<!-- gcc&#45;&gt;libatomic -->
<g id="edge19" class="edge">
<title>gcc&#45;&gt;libatomic</title>
<path fill="none" stroke="#444444" stroke-opacity="0.333333" d="M227.9981,-268.5872C207.9478,-289.9497 174.5241,-325.5607 151.8543,-349.7141"/>
<polygon fill="#444444" fill-opacity="0.333333" stroke="#444444" stroke-opacity="0.333333" points="149.1941,-347.4342 144.9025,-357.1209 154.2981,-352.2247 149.1941,-347.4342"/>
</g>
<!-- gcc&#45;&gt;libgomp -->
<g id="edge20" class="edge">
<title>gcc&#45;&gt;libgomp</title>
<path fill="none" stroke="#444444" stroke-opacity="0.333333" d="M234.9615,-232.0879C214.1114,-194.1423 166.1523,-106.8605 141.721,-62.3975"/>
<polygon fill="#444444" fill-opacity="0.333333" stroke="#444444" stroke-opacity="0.333333" points="144.7661,-60.6713 136.883,-53.5927 138.6313,-64.0423 144.7661,-60.6713"/>
</g>
<!-- gcc&#45;&gt;libubsan -->
<g id="edge21" class="edge">
<title>gcc&#45;&gt;libubsan</title>
<path fill="none" stroke="#444444" stroke-opacity="0.333333" d="M217.9297,-234.7531C188.2958,-217.6169 140.5172,-189.9883 106.5666,-170.3559"/>
<polygon fill="#444444" fill-opacity="0.333333" stroke="#444444" stroke-opacity="0.333333" points="108.2279,-167.2736 97.819,-165.2975 104.7238,-173.3334 108.2279,-167.2736"/>
</g>
<!-- isl&#45;&gt;libgcc -->
<g id="edge22" class="edge">
<title>isl&#45;&gt;libgcc</title>
<path fill="none" stroke="#444444" stroke-opacity="0.333333" d="M245.7847,-47.1905C268.5666,-83.0536 319.1691,-162.7114 345.6703,-204.4294"/>
<polygon fill="#444444" fill-opacity="0.333333" stroke="#444444" stroke-opacity="0.333333" points="342.7777,-206.4033 351.0941,-212.9675 348.6863,-202.6499 342.7777,-206.4033"/>
</g>
<!-- libasan&#45;&gt;libgcc -->
<g id="edge23" class="edge">
<title>libasan&#45;&gt;libgcc</title>
<path fill="none" stroke="#444444" stroke-opacity="0.333333" d="M96.2047,-269.3066C153.7877,-261.0437 249.8993,-247.2521 309.5765,-238.6886"/>
<polygon fill="#444444" fill-opacity="0.333333" stroke="#444444" stroke-opacity="0.333333" points="310.152,-242.142 319.5534,-237.257 309.1576,-235.213 310.152,-242.142"/>
</g>
<!-- libatomic&#45;&gt;libgcc -->
<g id="edge24" class="edge">
<title>libatomic&#45;&gt;libgcc</title>
<path fill="none" stroke="#444444" stroke-opacity="0.333333" d="M157.5725,-357.0344C199.9955,-330.9727 277.9057,-283.1102 324.5067,-254.4818"/>
<polygon fill="#444444" fill-opacity="0.333333" stroke="#444444" stroke-opacity="0.333333" points="326.4204,-257.414 333.1089,-249.1973 322.7562,-251.4495 326.4204,-257.414"/>
</g>
<!-- libgomp&#45;&gt;libgcc -->
<g id="edge25" class="edge">
<title>libgomp&#45;&gt;libgcc</title>
<path fill="none" stroke="#444444" stroke-opacity="0.333333" d="M148.5881,-53.3649C191.0469,-88.6226 284.9834,-166.6273 333.0346,-206.5289"/>
<polygon fill="#444444" fill-opacity="0.333333" stroke="#444444" stroke-opacity="0.333333" points="330.9652,-209.3599 340.8945,-213.0558 335.4372,-203.9746 330.9652,-209.3599"/>
</g>
<!-- libubsan&#45;&gt;libgcc -->
<g id="edge26" class="edge">
<title>libubsan&#45;&gt;libgcc</title>
<path fill="none" stroke="#444444" stroke-opacity="0.333333" d="M120.842,-162.5931C174.4766,-177.787 255.9984,-200.8811 309.287,-215.9771"/>
<polygon fill="#444444" fill-opacity="0.333333" stroke="#444444" stroke-opacity="0.333333" points="308.648,-219.4338 319.2233,-218.792 310.5559,-212.6988 308.648,-219.4338"/>
</g>
<!-- libtool&#45;&gt;autoconf -->
<g id="edge27" class="edge">
<title>libtool&#45;&gt;autoconf</title>
<path fill="none" stroke="#444444" stroke-opacity="0.333333" d="M598.4578,-222.4662C630.9105,-238.0898 677.8003,-260.6638 712.5863,-277.4108"/>
<polygon fill="#444444" fill-opacity="0.333333" stroke="#444444" stroke-opacity="0.333333" points="711.0746,-280.5674 721.603,-281.7516 714.1111,-274.2603 711.0746,-280.5674"/>
</g>
<!-- libtool&#45;&gt;libgcc -->
<g id="edge28" class="edge">
<title>libtool&#45;&gt;libgcc</title>
<path fill="none" stroke="#444444" stroke-opacity="0.333333" d="M512.4321,-210.779C483.1186,-214.7508 445.6508,-219.8273 415.5163,-223.9103"/>
<polygon fill="#444444" fill-opacity="0.333333" stroke="#444444" stroke-opacity="0.333333" points="415.0398,-220.4428 405.6003,-225.2538 415.9797,-227.3794 415.0398,-220.4428"/>
</g>
<!-- libtool&#45;&gt;automake -->
<g id="edge29" class="edge">
<title>libtool&#45;&gt;automake</title>
<path fill="none" stroke="#444444" stroke-opacity="0.333333" d="M573.3008,-222.398C592.4445,-249.7951 628.8263,-301.8623 650.8921,-333.4415"/>
<polygon fill="#444444" fill-opacity="0.333333" stroke="#444444" stroke-opacity="0.333333" points="648.1132,-335.5752 656.7099,-341.7676 653.8512,-331.5657 648.1132,-335.5752"/>
</g>
<!-- libtool&#45;&gt;findutils -->
<g id="edge30" class="edge">
<title>libtool&#45;&gt;findutils</title>
<path fill="none" stroke="#444444" stroke-opacity="0.333333" d="M565.26,-186.0525C573.5588,-153.5057 590.9972,-85.1141 600.8784,-46.3613"/>
<polygon fill="#444444" fill-opacity="0.333333" stroke="#444444" stroke-opacity="0.333333" points="604.3718,-46.8262 603.4512,-36.2714 597.5889,-45.0966 604.3718,-46.8262"/>
</g>
<!-- libtool&#45;&gt;gcc -->
<g id="edge31" class="edge">
<title>libtool&#45;&gt;gcc</title>
<path fill="none" stroke="#444444" stroke-opacity="0.333333" d="M512.3467,-211.314C449.1163,-220.5668 339.588,-236.5944 282.3382,-244.972"/>
<polygon fill="#444444" fill-opacity="0.333333" stroke="#444444" stroke-opacity="0.333333" points="281.6676,-241.5328 272.2797,-246.4439 282.6812,-248.459 281.6676,-241.5328"/>
</g>
<!-- libtool&#45;&gt;tar -->
<g id="edge32" class="edge">
<title>libtool&#45;&gt;tar</title>
<path fill="none" stroke="#444444" stroke-opacity="0.333333" d="M584.6294,-186.1055C603.0351,-172.1959 628.6097,-152.8685 648.7432,-137.653"/>
<polygon fill="#444444" fill-opacity="0.333333" stroke="#444444" stroke-opacity="0.333333" points="650.8544,-140.4446 656.7222,-131.6231 646.634,-134.86 650.8544,-140.4446"/>
</g>
<!-- tar&#45;&gt;libgcc -->
<g id="edge33" class="edge">
<title>tar&#45;&gt;libgcc</title>
<path fill="none" stroke="#444444" stroke-opacity="0.333333" d="M653.5698,-123.534C600.9446,-142.9849 484.1413,-186.1568 415.6021,-211.4898"/>
<polygon fill="#444444" fill-opacity="0.333333" stroke="#444444" stroke-opacity="0.333333" points="414.0198,-208.3431 405.8534,-215.093 416.4466,-214.909 414.0198,-208.3431"/>
</g>
<!-- autoconf -->
<g id="node1" class="node">
<title>autoconf</title>
<text text-anchor="middle" x="759.3" y="-296.2" font-family="monospace" font-size="14.00" fill="#000000">autoconf</text>
</g>
<!-- emacs&#45;filesystem -->
<g id="node2" class="node">
<title>emacs&#45;filesystem</title>
<text text-anchor="middle" x="588.39" y="-401.51" font-family="monospace" font-size="14.00" fill="#000000">emacs&#45;filesystem</text>
</g>
<!-- libgcc -->
<g id="node3" class="node">
<title>libgcc</title>
<text text-anchor="middle" x="362.6" y="-227.38" font-family="monospace" font-size="14.00" fill="#000000">libgcc</text>
</g>
<!-- automake -->
<g id="node4" class="node">
<title>automake</title>
<text text-anchor="middle" x="669.31" y="-356.1" font-family="monospace" font-size="14.00" fill="#000000">automake</text>
</g>
<!-- binutils -->
<g id="node5" class="node">
<title>binutils</title>
<text text-anchor="middle" x="347.25" y="-33.157" font-family="monospace" font-size="14.00" fill="#000000">binutils</text>
</g>
<!-- cpp -->
<g id="node6" class="node">
<title>cpp</title>
<text text-anchor="middle" x="290.83" y="-452.15" font-family="monospace" font-size="14.00" fill="#000000">cpp</text>
</g>
<!-- libmpc -->
<g id="node7" class="node">
<title>libmpc</title>
<text text-anchor="middle" x="202.85" y="-482.02" font-family="monospace" font-size="14.00" fill="#000000">libmpc</text>
</g>
<!-- mpfr -->
<g id="node8" class="node">
<title>mpfr</title>
<text text-anchor="middle" x="355.25" y="-496.15" font-family="monospace" font-size="14.00" fill="#000000">mpfr</text>
</g>
<!-- findutils -->
<g id="node9" class="node">
<title>findutils</title>
<text text-anchor="middle" x="608.11" y="-14.3" font-family="monospace" font-size="14.00" fill="#000000">findutils</text>
</g>
<!-- gcc -->
<g id="node10" class="node">
<title>gcc</title>
<text text-anchor="middle" x="245.04" y="-246.73" font-family="monospace" font-size="14.00" fill="#000000">gcc</text>
</g>
<!-- isl -->
<g id="node11" class="node">
<title>isl</title>
<text text-anchor="middle" x="234.16" y="-25.191" font-family="monospace" font-size="14.00" fill="#000000">isl</text>
</g>
<!-- libasan -->
<g id="node12" class="node">
<title>libasan</title>
<text text-anchor="middle" x="48.096" y="-272.51" font-family="monospace" font-size="14.00" fill="#000000">libasan</text>
</g>
<!-- libatomic -->
<g id="node13" class="node">
<title>libatomic</title>
<text text-anchor="middle" x="127.84" y="-371.6" font-family="monospace" font-size="14.00" fill="#000000">libatomic</text>
</g>
<!-- libgomp -->
<g id="node14" class="node">
<title>libgomp</title>
<text text-anchor="middle" x="126.83" y="-31.597" font-family="monospace" font-size="14.00" fill="#000000">libgomp</text>
</g>
<!-- libubsan -->
<g id="node15" class="node">
<title>libubsan</title>
<text text-anchor="middle" x="66.54" y="-143.51" font-family="monospace" font-size="14.00" fill="#000000">libubsan</text>
</g>
<!-- libtool -->
<g id="node16" class="node">
<title>libtool</title>
<text text-anchor="middle" x="560.62" y="-200.55" font-family="monospace" font-size="14.00" fill="#000000">libtool</text>
</g>
<!-- tar -->
<g id="node17" class="node">
<title>tar</title>
<text text-anchor="middle" x="680.69" y="-109.81" font-family="monospace" font-size="14.00" fill="#000000">tar</text>
</g>
</g>
</svg>
