<?xml version="1.0" encoding="UTF-8" standalone="no"?>
<!DOCTYPE svg PUBLIC "-//W3C//DTD SVG 1.1//EN"
 "http://www.w3.org/Graphics/SVG/1.1/DTD/svg11.dtd">
<!-- Generated by graphviz version 2.40.1 (20161225.0304)
 -->
<!-- Title: G Pages: 1 -->
<svg width="2308pt" height="1874pt"
 viewBox="0.00 0.00 2307.63 1873.71" xmlns="http://www.w3.org/2000/svg" xmlns:xlink="http://www.w3.org/1999/xlink">
<g id="graph0" class="graph" transform="scale(1 1) rotate(0) translate(147.1249 1676.8754)">
<title>G</title>
<polygon fill="#dae2ff" stroke="transparent" points="-147.1249,196.8324 -147.1249,-1676.8754 2160.501,-1676.8754 2160.501,196.8324 -147.1249,196.8324"/>
<polygon fill="#b3cde3" stroke="#b3cde3" points="100.487,-343.8428 103.8153,-228.5587 107.5227,-343.784 114.0722,-343.784 106.5735,-140.6946 103.6682,-139.5511 93.5482,-135.1741 89.2421,-133.1429 72.8982,-139.5649 61.7277,-143.5306 60.6079,-143.907 57.8449,-144.7835 55.2732,-145.5514 -85.1887,-184.8832 -132.6686,-228.5561 -134.1136,-333.5485 -134.9314,-354.5989 -143.1249,-482.8737 -29.5677,-554.5009 -2.3111,-629.5158 189.8809,-580.3769 186.5074,-756.0753 144.4795,-786.8964 177.6689,-812.3214 187.2323,-820.0551 351.7183,-820.6815 354.759,-878.7755 359.0542,-816.1541 364.4095,-816.1541 364.4743,-816.1304 371.4222,-816.1304 371.8691,-815.9645 377.7883,-815.9645 377.7883,-815.9645 371.8691,-815.9645 371.4222,-816.1304 364.4743,-816.1304 364.4095,-816.1541 359.0542,-816.1541 354.759,-878.7755 351.7183,-820.6815 187.2323,-820.0551 177.6689,-812.3214 144.4795,-786.8964 186.5074,-756.0753 189.8809,-580.3769 -2.3111,-629.5158 5.527,-652.8127 106.1518,-789.8924 55.7654,-885.7289 44.6422,-920.3542 49.527,-987.79 51.6547,-1101.6039 -31.0182,-1207.1021 -25.997,-1233.9314 -20.2425,-1268.7164 -12.513,-1322.6698 77.6163,-1410.694 195.4026,-1461.9089 195.0015,-1347.4567 195.0015,-1347.4567 195.4026,-1461.9089 197.5743,-1462.9424 223.6904,-1475.9174 223.4558,-1443.8915 218.7397,-1338.3175 218.6816,-1253.7427 216.771,-1251.4573 216.771,-1251.4573 218.6816,-1253.7427 225.5589,-1256.4863 232.7608,-1253.625 234.7734,-1251.3264 232.7425,-1249.093 225.6532,-1246.3923 221.8697,-1119.8463 226.082,-1119.7563 232.4307,-1119.4431 242.0276,-1119.4783 242.5519,-1065.6099 242.5519,-1065.6099 242.0276,-1119.4783 232.4307,-1119.4431 226.082,-1119.7563 221.8697,-1119.8463 225.6532,-1246.3923 232.7425,-1249.093 234.7734,-1251.3264 232.7608,-1253.625 225.5589,-1256.4863 218.6816,-1253.7427 218.7397,-1338.3175 223.4558,-1443.8915 223.6904,-1475.9174 237.2173,-1483.7466 239.7068,-1485.2914 256.6613,-1489.2423 252.8086,-1251.6724 253.4509,-1251.4308 246.2977,-1119.696 255.1186,-1119.4564 255.8774,-1035.097 259.873,-992.3983 265.9211,-992.3983 271.8712,-988.1707 271.9528,-988.0486 265.9989,-983.53 265.9989,-983.53 271.9528,-988.0486 271.8712,-988.1707 265.9211,-992.3983 259.873,-992.3983 255.8774,-1035.097 255.1186,-1119.4564 246.2977,-1119.696 253.4509,-1251.4308 252.8086,-1251.6724 256.6613,-1489.2423 267.4404,-1491.9253 268.809,-1492.2875 357.9366,-1458.8396 402.5942,-1434.5173 425.8071,-1418.9078 432.7619,-1407.2689 453.1732,-1364.505 472.2794,-1352.0608 670.0146,-1227.9591 667.2313,-1223.6971 608.0271,-1138.7 542.2345,-1030.2278 508.0419,-978.2554 520.9924,-964.0096 621.2864,-846.5012 621.1728,-817.5498 621.1257,-816.17 621.2235,-812.4495 620.6977,-678.5307 467.1976,-623.4048 466.1062,-756.0377 461.9207,-814.4947 460.5695,-816.0486 456.7264,-816.0486 456.7264,-816.0486 460.5695,-816.0486 461.9207,-814.4947 466.1062,-756.0377 467.1976,-623.4048 447.639,-615.5895 422.1223,-603.3275 416.1334,-581.501 414.2621,-577.03 374.9427,-469.4274 330.327,-401.9701 331.613,-358.2183 333.1041,-329.8279 341.6797,-216.2774 144.9167,-154.1926 122.9252,-146.8161 106.5735,-140.6946 114.0722,-343.784 107.5227,-343.784 103.8153,-228.5587 100.487,-343.8428 100.9182,-344.0019 106.9352,-344.0019 109.4924,-417.3 108.6046,-474.512 100.2331,-477.7231 84.0756,-484.9067 69.1578,-492.4401 63.2531,-495.7758 53.0098,-501.8737 12.6297,-528.3642 190.1659,-573.756 193.4952,-576.8624 193.4952,-576.8911 195.8844,-579.4438 195.8844,-579.4438 193.4952,-576.8911 193.4952,-576.8624 190.1659,-573.756 12.6297,-528.3642 53.0098,-501.8737 63.2531,-495.7758 69.1578,-492.4401 84.0756,-484.9067 100.2331,-477.7231 108.6046,-474.512 109.4924,-417.3 106.9352,-344.0019 100.9182,-344.0019 100.487,-343.8428 100.335,-343.8428 94.4793,-339.6695 94.4793,-339.6695 100.335,-343.8428 100.487,-343.8428 100.487,-343.8428"/>
<polygon fill="#fbb4ae" stroke="#fbb4ae" points="1484.0785,-1346.7771 1555.4711,-1456.2627 1575.7762,-1485.7465 1566.2251,-1502.6327 1547.009,-1538.5789 1491.434,-1622.4619 1386.5183,-1672.8754 1378.1296,-1670.6591 1376.9661,-1670.3735 1351.3809,-1664.5706 1338.4504,-1662.3728 1329.9971,-1661.0959 1331.3666,-1536.6593 1328.202,-1478.7754 1328.202,-1478.7754 1331.3666,-1536.6593 1329.9971,-1661.0959 1325.5012,-1660.5868 1325.4186,-1660.579 1301.4749,-1658.7677 1283.8076,-1658.4324 1277.7964,-1658.5452 1263.1122,-1659.3755 1239.994,-1661.5565 1180.72,-1668.2596 1125.8585,-1635.8894 1128.0493,-1629.4878 1127.119,-1518.0382 1130.0153,-1439.2401 1135.8663,-1434.8469 1136.3168,-1435.0201 1137.9384,-1494.6522 1144.1653,-1435.3379 1149.8174,-1435.3379 1151.9792,-1572.207 1160.3933,-1553.9084 1160.1064,-1471.2383 1160.1064,-1471.2383 1160.3933,-1553.9084 1151.9792,-1572.207 1149.8174,-1435.3379 1144.1653,-1435.3379 1137.9384,-1494.6522 1136.3168,-1435.0201 1135.8663,-1434.8469 1130.0153,-1439.2401 1127.119,-1518.0382 1128.0493,-1629.4878 1125.8585,-1635.8894 1123.7809,-1635.5291 1113.557,-1633.9392 1102.8075,-1632.4617 1092.1973,-1631.1953 1084.0845,-1630.521 1064.9998,-1629.2797 1057.3583,-1628.9215 986.3032,-1597.2384 923.5004,-1551.0404 894.4855,-1519.2151 877.2892,-1491.4896 863.2704,-1458.0547 863.2104,-1449.2738 862.6443,-1429.2914 784.4639,-1280.1754 763.0017,-1241.2784 766.4241,-1237.9971 769.7253,-1235.0048 769.8037,-1234.9308 791.4302,-1215.6597 985.4591,-1053.2847 1000.739,-1040.0521 1013.0958,-1029.8158 1016.9383,-1026.432 1027.2194,-1017.1033 1035.6209,-1014.6608 1041.2411,-1012.7656 1065.9214,-1003.6661 1074.4393,-1000.262 1089.7606,-993.6613 1106.423,-985.9651 1112.7554,-982.8448 1129.9321,-987.9223 1251.4712,-989.3738 1253.8262,-1144.6554 1253.8262,-1144.6554 1251.4712,-989.3738 1254.0491,-989.3312 1269.3541,-1011.2675 1281.1533,-1027.0947 1291.3939,-1039.8994 1306.0659,-1056.9348 1318.3204,-1070.5983 1320.627,-1072.954 1324.1071,-1076.3536 1334.0139,-1085.6 1339.2493,-1091.1805 1346.8872,-1098.9183 1365.1956,-1115.566 1468.0192,-1203.3643 1473.6075,-1208.4369 1483.0098,-1216.3069 1493.3782,-1225.9877 1504.3658,-1237.3318 1500.765,-1257.4918 1496.124,-1289.4 1484.0785,-1346.7771 1484.0785,-1346.7771"/>
<polygon fill="#decbe4" stroke="#decbe4" points="1098.7767,-581.7366 1090.4128,-534.3417 1089.7671,-528.251 1088.5306,-521.1055 1074.2119,-461.529 1019.7087,-441.4449 1008.4474,-436.4677 1000.7158,-432.7674 990.1276,-427.3137 983.3052,-423.5551 983.4004,-447.9351 987.3199,-552.4238 980.2966,-552.4238 974.4201,-556.7551 980.3517,-561.2504 981.7848,-640.4306 974.2557,-640.3458 974.0622,-640.3524 971.9475,-723.9045 978.1857,-723.9045 979.5602,-724.4096 975.0739,-765.7223 971.376,-724.1089 966.222,-724.1089 966.1957,-724.0997 959.616,-724.0997 959.0432,-723.891 952.7491,-723.891 952.5826,-724.1395 946.2135,-728.7793 939.8868,-728.7793 934.4272,-725.0096 933.7462,-723.9955 926.8527,-723.9955 926.6027,-723.9056 921.308,-723.9056 920.1535,-724.322 914.3267,-724.322 914.1827,-724.2711 907.3988,-724.2711 907.2734,-724.2276 901.5997,-724.2276 901.3893,-724.2996 895.7644,-724.2996 891.7774,-769.5688 887.782,-769.2538 883.2195,-769.2995 880.0987,-769.6083 878.7367,-769.6219 870.4215,-768.9664 858.7767,-767.0115 858.7504,-767.0048 852.6968,-764.9262 844.1164,-761.2054 838.7928,-758.4252 838.7928,-758.4252 844.1164,-761.2054 852.6968,-764.9262 858.7504,-767.0048 858.7767,-767.0115 870.4215,-768.9664 878.7367,-769.6219 880.0987,-769.6083 883.2195,-769.2995 887.782,-769.2538 891.7774,-769.5688 895.7644,-724.2996 901.3893,-724.2996 901.5997,-724.2276 907.2734,-724.2276 907.3988,-724.2711 914.1827,-724.2711 914.3267,-724.322 920.1535,-724.322 921.308,-723.9056 926.6027,-723.9056 926.8527,-723.9955 933.7462,-723.9955 934.4272,-725.0096 939.8868,-728.7793 946.2135,-728.7793 952.5826,-724.1395 952.7491,-723.891 952.6062,-723.692 946.9498,-719.8334 946.9498,-719.8334 952.6062,-723.692 952.7491,-723.891 959.0432,-723.891 959.616,-724.0997 966.1957,-724.0997 966.222,-724.1089 971.376,-724.1089 975.0739,-765.7223 979.5602,-724.4096 978.1857,-723.9045 971.9475,-723.9045 974.0622,-640.3524 974.2557,-640.3458 981.7848,-640.4306 980.3517,-561.2504 974.4201,-556.7551 980.2966,-552.4238 987.3199,-552.4238 983.4004,-447.9351 983.3052,-423.5551 973.423,-417.3929 967.9712,-413.795 958.0377,-406.8762 949.7875,-400.8328 945.9089,-397.7102 945.1338,-397.7002 928.6412,-397.8441 810.8326,-406.5118 765.7147,-516.3997 760.8489,-543.8243 755.4978,-570.1866 754.8792,-572.8992 712.4569,-626.4641 620.6977,-678.5307 621.2235,-812.4495 621.1257,-816.17 621.1728,-817.5498 621.2864,-846.5012 520.9924,-964.0096 508.0419,-978.2554 542.2345,-1030.2278 608.0271,-1138.7 667.2313,-1223.6971 670.0146,-1227.9591 691.985,-1229.2208 691.902,-1190.4247 686.6979,-1051.6383 686.6979,-1051.6383 691.902,-1190.4247 691.985,-1229.2208 707.886,-1231.068 726.5141,-1233.7802 731.3863,-1234.5608 746.83,-1237.7169 761.6782,-1240.9694 763.0017,-1241.2784 766.4241,-1237.9971 766.0452,-1216.9441 765.4872,-999.6099 765.4872,-999.6099 766.0452,-1216.9441 766.4241,-1237.9971 769.7253,-1235.0048 769.8037,-1234.9308 791.4302,-1215.6597 985.4591,-1053.2847 1000.739,-1040.0521 1013.0958,-1029.8158 1016.9383,-1026.432 1027.2194,-1017.1033 1035.6209,-1014.6608 1041.2411,-1012.7656 1065.9214,-1003.6661 1074.4393,-1000.262 1089.7606,-993.6613 1106.423,-985.9651 1112.7554,-982.8448 1109.498,-965.5998 1128.4766,-768.645 1130.9467,-727.5555 1131.0249,-724.2 1136.361,-668.8237 1115.5621,-651.5757 1098.7767,-581.7366 1098.7767,-581.7366"/>
<polygon fill="#ccebc5" stroke="#ccebc5" points="1672.1613,-409.6505 1671.6323,-406.1021 1660.7522,-319.4344 1581.423,-230.6205 1540.9495,-219.9567 1476.5679,-227.6899 1460.8644,-229.269 1456.4001,-229.5427 1445.6277,-229.9924 1437.9697,-230.1621 1411.8304,-229.2037 1420.9108,-402.6669 1414.4282,-405.0315 1411.634,-408.2213 1413.9869,-410.7117 1420.2828,-412.9572 1420.2828,-412.9572 1413.9869,-410.7117 1411.634,-408.2213 1414.4282,-405.0315 1420.9108,-402.6669 1411.8304,-229.2037 1406.3212,-228.894 1404.0709,-228.6353 1386.1443,-226.2205 1386.0525,-226.2267 1380.8895,-226.4767 1354.8457,-226.7355 1316.8302,-226.3821 1217.8842,-163.5123 1163.6056,-63.0717 1128.8378,-39.2082 1120.7939,-18 1106.1874,26.463 1028.5201,132.3915 1003.1038,159.3311 925.4658,162.5956 911.2767,163.4666 899.0756,164.4511 898.6722,76.6436 898.6722,76.6436 899.0756,164.4511 881.2142,166.9273 885.2475,-17.6471 879.3047,-17.6471 874.2972,31.65 873.1257,88.6471 864.884,-12.794 858.8588,-14.8944 855.9543,-18.0239 858.5164,-20.7701 864.9737,-23.0979 864.9737,-23.0979 858.5164,-20.7701 855.9543,-18.0239 852.657,-18.0239 847.6597,48.4761 845.0223,-17.8481 838.2203,-17.8481 838.2034,-17.8543 833.1699,-17.8543 833.1699,-17.8543 838.2034,-17.8543 838.2203,-17.8481 845.0223,-17.8481 847.6597,48.4761 852.657,-18.0239 855.9543,-18.0239 858.8588,-14.8944 864.884,-12.794 873.1257,88.6471 874.2972,31.65 879.3047,-17.6471 885.2475,-17.6471 881.2142,166.9273 874.1878,168.0366 850.9431,173.056 846.8163,174.0261 820.8954,181.6233 815.7059,183.4423 790.3227,192.8324 788.8082,192.3621 741.8231,171.5352 662.9641,85.6912 606.0656,-18 588.5272,-46.8519 565.0186,-109.7663 674.4618,-201.2971 704.3243,-216.1086 743.2063,-283.0193 810.8326,-406.5118 928.6412,-397.8441 929.5373,-343.5467 929.4849,-340.5091 929.4849,-340.5091 929.5373,-343.5467 928.6412,-397.8441 945.1338,-397.7002 944.0607,-238.3096 950.0765,-238.3096 950.0765,-238.3096 944.0607,-238.3096 945.1338,-397.7002 945.9089,-397.7102 949.7875,-400.8328 958.0377,-406.8762 967.9712,-413.795 973.423,-417.3929 983.3052,-423.5551 990.1276,-427.3137 1000.7158,-432.7674 1008.4474,-436.4677 1019.7087,-441.4449 1074.2119,-461.529 1088.5306,-521.1055 1089.7671,-528.251 1090.4128,-534.3417 1098.7767,-581.7366 1115.5621,-651.5757 1136.361,-668.8237 1164.9841,-655.4612 1164.9783,-651.1298 1168.4209,-524.6196 1168.3585,-524.5962 1166.6385,-439.6206 1162.0659,-439.4619 1161.5103,-439.4181 1154.5023,-439.4643 1153.7727,-354.363 1147.8848,-354.363 1147.5394,-354.2341 1146.5919,-354.2341 1140.7769,-358.6422 1134.1147,-358.6422 1128.1714,-354.3613 1127.999,-354.3613 1127.9792,-354.3541 1120.8323,-354.3541 1126.082,-262.812 1126.6512,-262.35 1132.6976,-257.0376 1145.2542,-245.159 1151.2634,-238.25 1104.868,-238.25 1041.5431,-233.5273 1035.5494,-237.3623 1034.8088,-238.4046 1034.7581,-238.4234 1028.7637,-238.4234 1028.5355,-238.5069 1022.3359,-238.5069 1022.2239,-238.4657 1016.045,-238.4657 1015.5707,-238.287 1015.5707,-238.287 1016.045,-238.4657 1022.2239,-238.4657 1022.3359,-238.5069 1028.5355,-238.5069 1028.7637,-238.4234 1034.7581,-238.4234 1034.8088,-238.4046 1035.5494,-237.3623 1041.5431,-233.5273 1104.868,-238.25 1151.2634,-238.25 1145.2542,-245.159 1132.6976,-257.0376 1126.6512,-262.35 1126.082,-262.812 1120.8323,-354.3541 1127.9792,-354.3541 1127.999,-354.3613 1128.1714,-354.3613 1134.1147,-358.6422 1140.7769,-358.6422 1146.5919,-354.2341 1147.5394,-354.2341 1147.8848,-354.363 1153.7727,-354.363 1154.5023,-439.4643 1161.5103,-439.4181 1161.8199,-428.1425 1161.8199,-428.1425 1161.5103,-439.4181 1162.0659,-439.4619 1166.6385,-439.6206 1168.3585,-524.5962 1168.4209,-524.6196 1164.9783,-651.1298 1164.9841,-655.4612 1136.361,-668.8237 1131.0249,-724.2 1130.9467,-727.5555 1128.4766,-768.645 1109.498,-965.5998 1112.7554,-982.8448 1129.9321,-987.9223 1251.4712,-989.3738 1254.0491,-989.3312 1260.4778,-984.9972 1282.4841,-971.5099 1283.0632,-858.1053 1276.4637,-748.2735 1278.0858,-747.6634 1273.5283,-711.2391 1273.0496,-633.3286 1260.0023,-635.1377 1255.2954,-635.6384 1233.2135,-637.2773 1235.4176,-529.745 1228.3528,-526.4995 1227.006,-524.9057 1222.4607,-524.9057 1219.4856,-571.4066 1214.1963,-525.0222 1209.084,-525.0222 1202.0447,-627.3868 1201.7443,-529.1751 1207.719,-524.7114 1202.0162,-520.4113 1202.0162,-520.4113 1207.719,-524.7114 1201.7443,-529.1751 1202.0447,-627.3868 1209.084,-525.0222 1214.1963,-525.0222 1219.4856,-571.4066 1222.4607,-524.9057 1227.006,-524.9057 1228.3528,-526.4995 1235.4176,-529.745 1233.2135,-637.2773 1255.2954,-635.6384 1260.0023,-635.1377 1273.0496,-633.3286 1273.5283,-711.2391 1278.0858,-747.6634 1276.4637,-748.2735 1283.0632,-858.1053 1282.4841,-971.5099 1301.428,-961.0687 1319.0516,-952.0848 1315.8092,-843.5666 1315.8092,-843.5666 1319.0516,-952.0848 1324.4966,-949.537 1351.1448,-938.6968 1350.5117,-870.6211 1350.5117,-870.6211 1351.1448,-938.6968 1356.5376,-936.838 1372.3859,-931.6986 1372.467,-823.0514 1376.2715,-748.1815 1376.858,-747.9688 1381.1478,-747.9688 1387.2588,-791.986 1387.2588,-791.986 1381.1478,-747.9688 1376.858,-747.9688 1376.2715,-748.1815 1372.467,-823.0514 1372.3859,-931.6986 1393.1747,-925.8152 1469.8949,-908.8794 1476.7426,-907.2261 1494.3866,-902.601 1494.5564,-902.5424 1554.2875,-788.2716 1667.311,-731.5132 1688.496,-720.3454 1701.3696,-712.2911 1713.8892,-704.1464 1724.6478,-696.8843 1784.0731,-653.8809 1765.2903,-621.95 1680.2548,-463.5666 1535.5638,-506.147 1522.1619,-509.6542 1507.1031,-512.603 1492.1464,-514.543 1487.0513,-514.8674 1486.168,-617.0315 1479.6604,-619.4579 1477.361,-622.0046 1473.6141,-622.0046 1471.3364,-682.611 1466.062,-621.9916 1461.1052,-621.9916 1461.1052,-621.9916 1466.062,-621.9916 1471.3364,-682.611 1473.6141,-622.0046 1473.4331,-621.9373 1473.4331,-621.9373 1473.6141,-622.0046 1477.361,-622.0046 1479.6604,-619.4579 1486.168,-617.0315 1487.0513,-514.8674 1492.1464,-514.543 1507.1031,-512.603 1522.1619,-509.6542 1535.5638,-506.147 1680.2548,-463.5666 1680.3765,-457.2177 1672.1613,-409.6505 1672.1613,-409.6505"/>
<polygon fill="#fed9a6" stroke="#fed9a6" points="1472.9022,-1090.6758 1451.8958,-1085.6 1334.0139,-1085.6 1324.1071,-1076.3536 1320.627,-1072.954 1318.3204,-1070.5983 1306.0659,-1056.9348 1291.3939,-1039.8994 1281.1533,-1027.0947 1269.3541,-1011.2675 1254.0491,-989.3312 1260.4778,-984.9972 1282.4841,-971.5099 1301.428,-961.0687 1319.0516,-952.0848 1324.4966,-949.537 1351.1448,-938.6968 1356.5376,-936.838 1372.3859,-931.6986 1393.1747,-925.8152 1469.8949,-908.8794 1476.7426,-907.2261 1494.3866,-902.601 1494.5564,-902.5424 1499.5276,-907 1522.0605,-929.4755 1525.25,-932.5172 1525.7057,-932.9323 1537.7959,-942.974 1538.8999,-943.8459 1553.8417,-955.0551 1563.5853,-961.9592 1578.5511,-971.3216 1578.5511,-971.3216 1563.5853,-961.9592 1553.8417,-955.0551 1538.8999,-943.8459 1537.7959,-942.974 1525.7057,-932.9323 1525.25,-932.5172 1522.0605,-929.4755 1499.5276,-907 1645.2893,-907 1671.925,-911.938 1673.2382,-971.088 1671.9044,-1006.575 1614.287,-987.0728 1614.287,-987.0728 1671.9044,-1006.575 1673.2382,-971.088 1671.925,-911.938 1645.2893,-907 1499.5276,-907 1494.5564,-902.5424 1554.2875,-788.2716 1667.311,-731.5132 1688.496,-720.3454 1701.3696,-712.2911 1704.9935,-904.2193 1698.6074,-901.933 1691.8397,-904.5029 1689.4902,-907.2171 1691.4222,-909.3409 1691.4222,-909.3409 1689.4902,-907.2171 1691.8397,-904.5029 1698.6074,-901.933 1704.9935,-904.2193 1701.3696,-712.2911 1713.8892,-704.1464 1724.6478,-696.8843 1784.0731,-653.8809 1872.3055,-683.216 1923.2819,-739.4679 1932.3724,-743.2927 1935.6711,-744.5784 1942.2548,-747.0436 1957.4026,-752.2537 1995.2982,-764.7057 2125.1211,-929.9273 2139.2617,-975.7043 2156.46,-1026.8151 2156.501,-1026.9283 2085.2002,-1140.1259 1961.2283,-1120.9432 1943.5854,-1118.7456 1938.1519,-1118.3997 1925.6605,-1117.9838 1924.3462,-1117.98 1922.2869,-1003.1544 1924.7817,-1000.4303 1922.0046,-997.3083 1916.0813,-995.1924 1916.0813,-995.1924 1922.0046,-997.3083 1924.7817,-1000.4303 1922.2869,-1003.1544 1924.3462,-1117.98 1921.22,-1118.066 1914.3951,-1117.8402 1912.4976,-1117.8352 1902.5867,-1118.111 1894.5271,-1117.6017 1895.0906,-1104.8231 1896.0865,-1000.1641 1895.5074,-999.9491 1889.7195,-999.9491 1889.2566,-1000.1197 1882.6332,-1000.1197 1882.0271,-1000.3403 1881.3848,-1000.3403 1876.5103,-1004.3145 1876.5103,-1004.3145 1881.3848,-1000.3403 1882.0271,-1000.3403 1882.6332,-1000.1197 1889.2566,-1000.1197 1889.7195,-999.9491 1895.5074,-999.9491 1896.0865,-1000.1641 1895.0906,-1104.8231 1894.5271,-1117.6017 1902.5867,-1118.111 1912.4976,-1117.8352 1914.3951,-1117.8402 1921.22,-1118.066 1924.3462,-1117.98 1925.6605,-1117.9838 1938.1519,-1118.3997 1943.5854,-1118.7456 1961.2283,-1120.9432 2085.2002,-1140.1259 2091.3108,-1210.5327 2097.1196,-1261.3884 2107.6987,-1336.479 2074.0891,-1388.5201 1956.6768,-1420.5907 1945.2949,-1422.8214 1919.2241,-1419.5907 1914.6108,-1419.1068 1911.1143,-1418.8064 1903.4855,-1418.2957 1901.0162,-1327.1147 1902.1526,-1238.1936 1904.3298,-1235.8021 1902.0447,-1233.1737 1902.0447,-1233.1737 1904.3298,-1235.8021 1902.1526,-1238.1936 1901.0162,-1327.1147 1903.4855,-1418.2957 1881.1783,-1417.6484 1864.0486,-1418.1279 1821.934,-1420.1057 1772.6149,-1452.8596 1726.9312,-1475.6357 1696.5317,-1475.2546 1668.2306,-1475.4503 1653.5262,-1476.4098 1653.6519,-1343.0283 1657.6007,-1292.2213 1663.74,-1294.5248 1663.74,-1294.5248 1657.6007,-1292.2213 1653.6519,-1343.0283 1653.5262,-1476.4098 1639.6591,-1477.854 1575.7762,-1485.7465 1555.4711,-1456.2627 1484.0785,-1346.7771 1496.124,-1289.4 1500.765,-1257.4918 1504.3658,-1237.3318 1493.3782,-1225.9877 1483.0098,-1216.3069 1473.6075,-1208.4369 1468.0192,-1203.3643 1365.1956,-1115.566 1346.8872,-1098.9183 1339.2493,-1091.1805 1334.0139,-1085.6 1451.8958,-1085.6 1472.9022,-1090.6758 1478.7583,-1087.8925 1480.7666,-1085.3647 1485.283,-1085.3647 1486.567,-1085.8485 1491.923,-1085.8485 1492.2761,-1085.7161 1492.2761,-1085.7161 1491.923,-1085.8485 1486.567,-1085.8485 1485.283,-1085.3647 1480.7666,-1085.3647 1478.7583,-1087.8925 1472.9022,-1090.6758 1472.9022,-1090.6758"/>
<polyline fill="none" stroke="#000000" points="422.1223,-603.3275 416.1334,-581.501 414.2621,-577.03 374.9427,-469.4274 330.327,-401.9701 331.613,-358.2183 333.1041,-329.8279 341.6797,-216.2774 144.9167,-154.1926 122.9252,-146.8161 106.5735,-140.6946 103.6682,-139.5511 93.5482,-135.1741 89.2421,-133.1429 72.8982,-139.5649 61.7277,-143.5306 60.6079,-143.907 57.8449,-144.7835 55.2732,-145.5514 -85.1887,-184.8832 -132.6686,-228.5561 -134.1136,-333.5485 -134.9314,-354.5989 -143.1249,-482.8737 -29.5677,-554.5009 -2.3111,-629.5158 5.527,-652.8127 106.1518,-789.8924 55.7654,-885.7289 44.6422,-920.3542 49.527,-987.79 51.6547,-1101.6039 -31.0182,-1207.1021 -25.997,-1233.9314 -20.2425,-1268.7164 -12.513,-1322.6698 77.6163,-1410.694 195.4026,-1461.9089 197.5743,-1462.9424 223.6904,-1475.9174 237.2173,-1483.7466 239.7068,-1485.2914 256.6613,-1489.2423 267.4404,-1491.9253 268.809,-1492.2875 357.9366,-1458.8396 402.5942,-1434.5173 425.8071,-1418.9078 432.7619,-1407.2689 453.1732,-1364.505 472.2794,-1352.0608 670.0146,-1227.9591 667.2313,-1223.6971 608.0271,-1138.7 542.2345,-1030.2278 508.0419,-978.2554 520.9924,-964.0096 621.2864,-846.5012 621.1728,-817.5498 621.1257,-816.17 621.2235,-812.4495 620.6977,-678.5307 467.1976,-623.4048 447.639,-615.5895 422.1223,-603.3275 "/>
<polyline fill="none" stroke="#000000" points="1041.2411,-1012.7656 1035.6209,-1014.6608 1027.2194,-1017.1033 1016.9383,-1026.432 1013.0958,-1029.8158 1000.739,-1040.0521 985.4591,-1053.2847 791.4302,-1215.6597 769.8037,-1234.9308 769.7253,-1235.0048 766.4241,-1237.9971 763.0017,-1241.2784 784.4639,-1280.1754 862.6443,-1429.2914 863.2104,-1449.2738 863.2704,-1458.0547 877.2892,-1491.4896 894.4855,-1519.2151 923.5004,-1551.0404 986.3032,-1597.2384 1057.3583,-1628.9215 1064.9998,-1629.2797 1084.0845,-1630.521 1092.1973,-1631.1953 1102.8075,-1632.4617 1113.557,-1633.9392 1123.7809,-1635.5291 1125.8585,-1635.8894 1180.72,-1668.2596 1239.994,-1661.5565 1263.1122,-1659.3755 1277.7964,-1658.5452 1283.8076,-1658.4324 1301.4749,-1658.7677 1325.4186,-1660.579 1325.5012,-1660.5868 1329.9971,-1661.0959 1338.4504,-1662.3728 1351.3809,-1664.5706 1376.9661,-1670.3735 1378.1296,-1670.6591 1386.5183,-1672.8754 1491.434,-1622.4619 1547.009,-1538.5789 1566.2251,-1502.6327 1575.7762,-1485.7465 1555.4711,-1456.2627 1484.0785,-1346.7771 1496.124,-1289.4 1500.765,-1257.4918 1504.3658,-1237.3318 1493.3782,-1225.9877 1483.0098,-1216.3069 1473.6075,-1208.4369 1468.0192,-1203.3643 1365.1956,-1115.566 1346.8872,-1098.9183 1339.2493,-1091.1805 1334.0139,-1085.6 1324.1071,-1076.3536 1320.627,-1072.954 1318.3204,-1070.5983 1306.0659,-1056.9348 1291.3939,-1039.8994 1281.1533,-1027.0947 1269.3541,-1011.2675 1254.0491,-989.3312 1251.4712,-989.3738 1129.9321,-987.9223 1112.7554,-982.8448 1106.423,-985.9651 1089.7606,-993.6613 1074.4393,-1000.262 1065.9214,-1003.6661 1041.2411,-1012.7656 "/>
<polyline fill="none" stroke="#000000" points="726.5141,-1233.7802 707.886,-1231.068 691.985,-1229.2208 670.0146,-1227.9591 667.2313,-1223.6971 608.0271,-1138.7 542.2345,-1030.2278 508.0419,-978.2554 520.9924,-964.0096 621.2864,-846.5012 621.1728,-817.5498 621.1257,-816.17 621.2235,-812.4495 620.6977,-678.5307 712.4569,-626.4641 754.8792,-572.8992 755.4978,-570.1866 760.8489,-543.8243 765.7147,-516.3997 810.8326,-406.5118 928.6412,-397.8441 945.1338,-397.7002 945.9089,-397.7102 949.7875,-400.8328 958.0377,-406.8762 967.9712,-413.795 973.423,-417.3929 983.3052,-423.5551 990.1276,-427.3137 1000.7158,-432.7674 1008.4474,-436.4677 1019.7087,-441.4449 1074.2119,-461.529 1088.5306,-521.1055 1089.7671,-528.251 1090.4128,-534.3417 1098.7767,-581.7366 1115.5621,-651.5757 1136.361,-668.8237 1131.0249,-724.2 1130.9467,-727.5555 1128.4766,-768.645 1109.498,-965.5998 1112.7554,-982.8448 1106.423,-985.9651 1089.7606,-993.6613 1074.4393,-1000.262 1065.9214,-1003.6661 1041.2411,-1012.7656 1035.6209,-1014.6608 1027.2194,-1017.1033 1016.9383,-1026.432 1013.0958,-1029.8158 1000.739,-1040.0521 985.4591,-1053.2847 791.4302,-1215.6597 769.8037,-1234.9308 769.7253,-1235.0048 766.4241,-1237.9971 763.0017,-1241.2784 761.6782,-1240.9694 746.83,-1237.7169 731.3863,-1234.5608 726.5141,-1233.7802 "/>
<polyline fill="none" stroke="#000000" points="1120.7939,-18 1106.1874,26.463 1028.5201,132.3915 1003.1038,159.3311 925.4658,162.5956 911.2767,163.4666 899.0756,164.4511 881.2142,166.9273 874.1878,168.0366 850.9431,173.056 846.8163,174.0261 820.8954,181.6233 815.7059,183.4423 790.3227,192.8324 788.8082,192.3621 741.8231,171.5352 662.9641,85.6912 606.0656,-18 588.5272,-46.8519 565.0186,-109.7663 674.4618,-201.2971 704.3243,-216.1086 743.2063,-283.0193 810.8326,-406.5118 928.6412,-397.8441 945.1338,-397.7002 945.9089,-397.7102 949.7875,-400.8328 958.0377,-406.8762 967.9712,-413.795 973.423,-417.3929 983.3052,-423.5551 990.1276,-427.3137 1000.7158,-432.7674 1008.4474,-436.4677 1019.7087,-441.4449 1074.2119,-461.529 1088.5306,-521.1055 1089.7671,-528.251 1090.4128,-534.3417 1098.7767,-581.7366 1115.5621,-651.5757 1136.361,-668.8237 1131.0249,-724.2 1130.9467,-727.5555 1128.4766,-768.645 1109.498,-965.5998 1112.7554,-982.8448 1129.9321,-987.9223 1251.4712,-989.3738 1254.0491,-989.3312 1260.4778,-984.9972 1282.4841,-971.5099 1301.428,-961.0687 1319.0516,-952.0848 1324.4966,-949.537 1351.1448,-938.6968 1356.5376,-936.838 1372.3859,-931.6986 1393.1747,-925.8152 1469.8949,-908.8794 1476.7426,-907.2261 1494.3866,-902.601 1494.5564,-902.5424 1554.2875,-788.2716 1667.311,-731.5132 1688.496,-720.3454 1701.3696,-712.2911 1713.8892,-704.1464 1724.6478,-696.8843 1784.0731,-653.8809 1765.2903,-621.95 1680.2548,-463.5666 1680.3765,-457.2177 1672.1613,-409.6505 1671.6323,-406.1021 1660.7522,-319.4344 1581.423,-230.6205 1540.9495,-219.9567 1476.5679,-227.6899 1460.8644,-229.269 1456.4001,-229.5427 1445.6277,-229.9924 1437.9697,-230.1621 1411.8304,-229.2037 1406.3212,-228.894 1404.0709,-228.6353 1386.1443,-226.2205 1386.0525,-226.2267 1380.8895,-226.4767 1354.8457,-226.7355 1316.8302,-226.3821 1217.8842,-163.5123 1163.6056,-63.0717 1128.8378,-39.2082 1120.7939,-18 "/>
<polyline fill="none" stroke="#000000" points="1864.0486,-1418.1279 1881.1783,-1417.6484 1903.4855,-1418.2957 1911.1143,-1418.8064 1914.6108,-1419.1068 1919.2241,-1419.5907 1945.2949,-1422.8214 1956.6768,-1420.5907 2074.0891,-1388.5201 2107.6987,-1336.479 2097.1196,-1261.3884 2091.3108,-1210.5327 2085.2002,-1140.1259 2156.501,-1026.9283 2156.46,-1026.8151 2139.2617,-975.7043 2125.1211,-929.9273 1995.2982,-764.7057 1957.4026,-752.2537 1942.2548,-747.0436 1935.6711,-744.5784 1932.3724,-743.2927 1923.2819,-739.4679 1872.3055,-683.216 1784.0731,-653.8809 1724.6478,-696.8843 1713.8892,-704.1464 1701.3696,-712.2911 1688.496,-720.3454 1667.311,-731.5132 1554.2875,-788.2716 1494.5564,-902.5424 1494.3866,-902.601 1476.7426,-907.2261 1469.8949,-908.8794 1393.1747,-925.8152 1372.3859,-931.6986 1356.5376,-936.838 1351.1448,-938.6968 1324.4966,-949.537 1319.0516,-952.0848 1301.428,-961.0687 1282.4841,-971.5099 1260.4778,-984.9972 1254.0491,-989.3312 1269.3541,-1011.2675 1281.1533,-1027.0947 1291.3939,-1039.8994 1306.0659,-1056.9348 1318.3204,-1070.5983 1320.627,-1072.954 1324.1071,-1076.3536 1334.0139,-1085.6 1339.2493,-1091.1805 1346.8872,-1098.9183 1365.1956,-1115.566 1468.0192,-1203.3643 1473.6075,-1208.4369 1483.0098,-1216.3069 1493.3782,-1225.9877 1504.3658,-1237.3318 1500.765,-1257.4918 1496.124,-1289.4 1484.0785,-1346.7771 1555.4711,-1456.2627 1575.7762,-1485.7465 1639.6591,-1477.854 1653.5262,-1476.4098 1668.2306,-1475.4503 1696.5317,-1475.2546 1726.9312,-1475.6357 1772.6149,-1452.8596 1821.934,-1420.1057 1864.0486,-1418.1279 "/>
<!-- glassfish&#45;fastinfoset&#45;&gt;xmlstreambuffer -->
<g id="edge1" class="edge">
<title>glassfish&#45;fastinfoset&#45;&gt;xmlstreambuffer</title>
<path fill="none" stroke="#444444" stroke-opacity="0.333333" d="M394.9106,-834.212C368.6454,-864.7267 315.361,-926.632 285.0772,-961.8155"/>
<polygon fill="#444444" fill-opacity="0.333333" stroke="#444444" stroke-opacity="0.333333" points="282.134,-959.8699 278.263,-969.7322 287.4393,-964.4364 282.134,-959.8699"/>
</g>
<!-- glassfish&#45;fastinfoset&#45;&gt;xsom -->
<g id="edge2" class="edge">
<title>glassfish&#45;fastinfoset&#45;&gt;xsom</title>
<path fill="none" stroke="#444444" stroke-opacity="0.333333" d="M394.4893,-797.8022C357.782,-755.5322 267.2498,-651.281 225.0683,-602.7074"/>
<polygon fill="#444444" fill-opacity="0.333333" stroke="#444444" stroke-opacity="0.333333" points="227.6902,-600.3886 218.4908,-595.1331 222.4049,-604.9784 227.6902,-600.3886"/>
</g>
<!-- xmlstreambuffer&#45;&gt;stax&#45;ex -->
<g id="edge3" class="edge">
<title>xmlstreambuffer&#45;&gt;stax&#45;ex</title>
<path fill="none" stroke="#444444" stroke-opacity="0.333333" d="M284.314,-1005.9933C316.3896,-1033.0323 376.6918,-1083.8658 412.6339,-1114.1642"/>
<polygon fill="#444444" fill-opacity="0.333333" stroke="#444444" stroke-opacity="0.333333" points="410.4464,-1116.8978 420.3481,-1120.6671 414.9581,-1111.5457 410.4464,-1116.8978"/>
</g>
<!-- xsom&#45;&gt;relaxngDatatype -->
<g id="edge4" class="edge">
<title>xsom&#45;&gt;relaxngDatatype</title>
<path fill="none" stroke="#444444" stroke-opacity="0.333333" d="M193.999,-558.7492C174.4505,-518.0059 127.216,-419.5589 104.1324,-371.4475"/>
<polygon fill="#444444" fill-opacity="0.333333" stroke="#444444" stroke-opacity="0.333333" points="107.2037,-369.7577 99.7223,-362.2558 100.8926,-372.7859 107.2037,-369.7577"/>
</g>
<!-- stax&#45;ex&#45;&gt;bea&#45;stax&#45;api -->
<g id="edge5" class="edge">
<title>stax&#45;ex&#45;&gt;bea&#45;stax&#45;api</title>
<path fill="none" stroke="#444444" stroke-opacity="0.333333" d="M407.0037,-1156.8233C369.4952,-1176.3929 309.6746,-1207.6037 269.0581,-1228.7949"/>
<polygon fill="#444444" fill-opacity="0.333333" stroke="#444444" stroke-opacity="0.333333" points="267.4369,-1225.6929 260.1901,-1233.4217 270.6749,-1231.899 267.4369,-1225.6929"/>
</g>
<!-- glassfish&#45;jaxb&#45;core&#45;&gt;glassfish&#45;jaxb&#45;api -->
<g id="edge6" class="edge">
<title>glassfish&#45;jaxb&#45;core&#45;&gt;glassfish&#45;jaxb&#45;api</title>
<path fill="none" stroke="#444444" stroke-opacity="0.333333" d="M1059.8716,-1276.4445C1072.9195,-1307.4751 1099.5079,-1370.7075 1114.859,-1407.2153"/>
<polygon fill="#444444" fill-opacity="0.333333" stroke="#444444" stroke-opacity="0.333333" points="1111.7676,-1408.8932 1118.8702,-1416.7548 1118.2204,-1406.1799 1111.7676,-1408.8932"/>
</g>
<!-- glassfish&#45;jaxb&#45;core&#45;&gt;glassfish&#45;jaxb&#45;txw2 -->
<g id="edge7" class="edge">
<title>glassfish&#45;jaxb&#45;core&#45;&gt;glassfish&#45;jaxb&#45;txw2</title>
<path fill="none" stroke="#444444" stroke-opacity="0.333333" d="M1164.7439,-1245.9825C1170.4131,-1245.367 1176.1194,-1244.7476 1181.8164,-1244.1291"/>
<polygon fill="#444444" fill-opacity="0.333333" stroke="#444444" stroke-opacity="0.333333" points="1182.4872,-1247.577 1192.051,-1243.0181 1181.7317,-1240.6178 1182.4872,-1247.577"/>
</g>
<!-- glassfish&#45;jaxb&#45;core&#45;&gt;istack&#45;commons&#45;runtime -->
<g id="edge8" class="edge">
<title>glassfish&#45;jaxb&#45;core&#45;&gt;istack&#45;commons&#45;runtime</title>
<path fill="none" stroke="#444444" stroke-opacity="0.333333" d="M1073.5096,-1276.2608C1120.0707,-1315.7232 1230.9274,-1409.6791 1283.7083,-1454.4131"/>
<polygon fill="#444444" fill-opacity="0.333333" stroke="#444444" stroke-opacity="0.333333" points="1281.4695,-1457.1036 1291.3611,-1460.8992 1285.9954,-1451.7635 1281.4695,-1457.1036"/>
</g>
<!-- glassfish&#45;jaxb&#45;runtime&#45;&gt;glassfish&#45;fastinfoset -->
<g id="edge9" class="edge">
<title>glassfish&#45;jaxb&#45;runtime&#45;&gt;glassfish&#45;fastinfoset</title>
<path fill="none" stroke="#444444" stroke-opacity="0.333333" d="M698.593,-981.3297C640.2206,-947.8726 515.3976,-876.3282 450.8919,-839.3557"/>
<polygon fill="#444444" fill-opacity="0.333333" stroke="#444444" stroke-opacity="0.333333" points="452.6198,-836.312 442.2034,-834.3757 449.1389,-842.3851 452.6198,-836.312"/>
</g>
<!-- glassfish&#45;jaxb&#45;runtime&#45;&gt;stax&#45;ex -->
<g id="edge10" class="edge">
<title>glassfish&#45;jaxb&#45;runtime&#45;&gt;stax&#45;ex</title>
<path fill="none" stroke="#444444" stroke-opacity="0.333333" d="M692.715,-1017.4682C640.3113,-1042.7815 545.0956,-1088.7748 488.209,-1116.2535"/>
<polygon fill="#444444" fill-opacity="0.333333" stroke="#444444" stroke-opacity="0.333333" points="486.5609,-1113.1626 479.0787,-1120.6638 489.6056,-1119.4657 486.5609,-1113.1626"/>
</g>
<!-- glassfish&#45;jaxb&#45;runtime&#45;&gt;glassfish&#45;jaxb&#45;core -->
<g id="edge11" class="edge">
<title>glassfish&#45;jaxb&#45;runtime&#45;&gt;glassfish&#45;jaxb&#45;core</title>
<path fill="none" stroke="#444444" stroke-opacity="0.333333" d="M752.768,-1017.5983C809.3637,-1063.0744 957.0254,-1181.7246 1021.4224,-1233.4694"/>
<polygon fill="#444444" fill-opacity="0.333333" stroke="#444444" stroke-opacity="0.333333" points="1019.5894,-1236.4864 1029.577,-1240.0218 1023.974,-1231.0297 1019.5894,-1236.4864"/>
</g>
<!-- httpcomponents&#45;client&#45;&gt;httpcomponents&#45;core -->
<g id="edge12" class="edge">
<title>httpcomponents&#45;client&#45;&gt;httpcomponents&#45;core</title>
<path fill="none" stroke="#444444" stroke-opacity="0.333333" d="M973.4709,-220.226C952.8289,-181.6678 904.2787,-90.9784 879.8259,-45.3017"/>
<polygon fill="#444444" fill-opacity="0.333333" stroke="#444444" stroke-opacity="0.333333" points="882.7978,-43.4373 874.9924,-36.273 876.6265,-46.7411 882.7978,-43.4373"/>
</g>
<!-- jackson&#45;&gt;joda&#45;time -->
<g id="edge13" class="edge">
<title>jackson&#45;&gt;joda&#45;time</title>
<path fill="none" stroke="#444444" stroke-opacity="0.333333" d="M1763.8847,-1121.6773C1790.5429,-1144.7519 1836.79,-1184.7821 1866.7594,-1210.7228"/>
<polygon fill="#444444" fill-opacity="0.333333" stroke="#444444" stroke-opacity="0.333333" points="1864.5265,-1213.4192 1874.3781,-1217.3175 1869.1078,-1208.1265 1864.5265,-1213.4192"/>
</g>
<!-- jackson&#45;&gt;jsr&#45;311 -->
<g id="edge14" class="edge">
<title>jackson&#45;&gt;jsr&#45;311</title>
<path fill="none" stroke="#444444" stroke-opacity="0.333333" d="M1735.2813,-1121.7536C1721.4173,-1154.3604 1692.219,-1223.0318 1675.8197,-1261.6012"/>
<polygon fill="#444444" fill-opacity="0.333333" stroke="#444444" stroke-opacity="0.333333" points="1672.442,-1260.6005 1671.75,-1271.1727 1678.8839,-1263.3396 1672.442,-1260.6005"/>
</g>
<!-- jackson&#45;&gt;objectweb&#45;asm3 -->
<g id="edge15" class="edge">
<title>jackson&#45;&gt;objectweb&#45;asm3</title>
<path fill="none" stroke="#444444" stroke-opacity="0.333333" d="M1773.4954,-1085.3698C1802.2436,-1068.1841 1845.4629,-1042.3476 1876.7261,-1023.6584"/>
<polygon fill="#444444" fill-opacity="0.333333" stroke="#444444" stroke-opacity="0.333333" points="1878.8221,-1026.4832 1885.6094,-1018.3479 1875.2303,-1020.4749 1878.8221,-1026.4832"/>
</g>
<!-- jackson&#45;&gt;stax2&#45;api -->
<g id="edge16" class="edge">
<title>jackson&#45;&gt;stax2&#45;api</title>
<path fill="none" stroke="#444444" stroke-opacity="0.333333" d="M1738.8749,-1085.4567C1731.0412,-1051.0028 1713.9651,-975.8985 1704.6579,-934.9634"/>
<polygon fill="#444444" fill-opacity="0.333333" stroke="#444444" stroke-opacity="0.333333" points="1708.0452,-934.0745 1702.4152,-925.0994 1701.2194,-935.6265 1708.0452,-934.0745"/>
</g>
<!-- resteasy&#45;atom&#45;provider&#45;&gt;glassfish&#45;jaxb&#45;runtime -->
<g id="edge17" class="edge">
<title>resteasy&#45;atom&#45;provider&#45;&gt;glassfish&#45;jaxb&#45;runtime</title>
<path fill="none" stroke="#444444" stroke-opacity="0.333333" d="M929.2379,-742.2566C892.5109,-789.6864 793.1896,-917.9511 750.297,-973.3432"/>
<polygon fill="#444444" fill-opacity="0.333333" stroke="#444444" stroke-opacity="0.333333" points="747.5088,-971.2273 744.1536,-981.2769 753.0434,-975.5131 747.5088,-971.2273"/>
</g>
<!-- resteasy&#45;atom&#45;provider&#45;&gt;jboss&#45;logging -->
<g id="edge18" class="edge">
<title>resteasy&#45;atom&#45;provider&#45;&gt;jboss&#45;logging</title>
<path fill="none" stroke="#444444" stroke-opacity="0.333333" d="M947.6389,-705.9753C954.7113,-676.8072 968.6246,-619.4257 976.9767,-584.9795"/>
<polygon fill="#444444" fill-opacity="0.333333" stroke="#444444" stroke-opacity="0.333333" points="980.4215,-585.6254 979.3765,-575.0822 973.6186,-583.9758 980.4215,-585.6254"/>
</g>
<!-- resteasy&#45;atom&#45;provider&#45;&gt;resteasy&#45;core -->
<g id="edge19" class="edge">
<title>resteasy&#45;atom&#45;provider&#45;&gt;resteasy&#45;core</title>
<path fill="none" stroke="#444444" stroke-opacity="0.333333" d="M966.3156,-706.1411C1012.2207,-670.247 1114.9801,-589.8976 1166.9789,-549.2387"/>
<polygon fill="#444444" fill-opacity="0.333333" stroke="#444444" stroke-opacity="0.333333" points="1169.4509,-551.7488 1175.1727,-542.8318 1165.1391,-546.2344 1169.4509,-551.7488"/>
</g>
<!-- resteasy&#45;atom&#45;provider&#45;&gt;resteasy&#45;jaxb&#45;provider -->
<g id="edge20" class="edge">
<title>resteasy&#45;atom&#45;provider&#45;&gt;resteasy&#45;jaxb&#45;provider</title>
<path fill="none" stroke="#444444" stroke-opacity="0.333333" d="M921.4922,-742.3565C905.0577,-756.0898 882.3073,-775.1007 864.2024,-790.2298"/>
<polygon fill="#444444" fill-opacity="0.333333" stroke="#444444" stroke-opacity="0.333333" points="861.6794,-787.7769 856.2502,-796.875 866.168,-793.1484 861.6794,-787.7769"/>
</g>
<!-- resteasy&#45;core&#45;&gt;httpcomponents&#45;client -->
<g id="edge21" class="edge">
<title>resteasy&#45;core&#45;&gt;httpcomponents&#45;client</title>
<path fill="none" stroke="#444444" stroke-opacity="0.333333" d="M1184.6058,-506.3174C1147.6204,-457.1101 1046.1322,-322.0848 1002.9689,-264.6581"/>
<polygon fill="#444444" fill-opacity="0.333333" stroke="#444444" stroke-opacity="0.333333" points="1005.6055,-262.3406 996.7993,-256.4497 1000.0099,-266.5464 1005.6055,-262.3406"/>
</g>
<!-- resteasy&#45;core&#45;&gt;jboss&#45;logging -->
<g id="edge22" class="edge">
<title>resteasy&#45;core&#45;&gt;jboss&#45;logging</title>
<path fill="none" stroke="#444444" stroke-opacity="0.333333" d="M1117.8766,-536.7555C1103.6709,-538.8875 1088.7962,-541.12 1074.3376,-543.29"/>
<polygon fill="#444444" fill-opacity="0.333333" stroke="#444444" stroke-opacity="0.333333" points="1073.7774,-539.8348 1064.4077,-544.7804 1074.8165,-546.7573 1073.7774,-539.8348"/>
</g>
<!-- resteasy&#45;core&#45;&gt;jboss&#45;annotations&#45;1.2&#45;api -->
<g id="edge23" class="edge">
<title>resteasy&#45;core&#45;&gt;jboss&#45;annotations&#45;1.2&#45;api</title>
<path fill="none" stroke="#444444" stroke-opacity="0.333333" d="M1208.8748,-542.9411C1231.386,-582.2073 1284.472,-674.8051 1310.8968,-720.8979"/>
<polygon fill="#444444" fill-opacity="0.333333" stroke="#444444" stroke-opacity="0.333333" points="1307.9499,-722.7949 1315.96,-729.7295 1314.0228,-719.3133 1307.9499,-722.7949"/>
</g>
<!-- resteasy&#45;core&#45;&gt;jboss&#45;jaxrs&#45;2.0&#45;api -->
<g id="edge24" class="edge">
<title>resteasy&#45;core&#45;&gt;jboss&#45;jaxrs&#45;2.0&#45;api</title>
<path fill="none" stroke="#444444" stroke-opacity="0.333333" d="M1233.1344,-506.4216C1272.0422,-485.9805 1335.1625,-452.8189 1377.2925,-430.685"/>
<polygon fill="#444444" fill-opacity="0.333333" stroke="#444444" stroke-opacity="0.333333" points="1378.9847,-433.7497 1386.2095,-426.0003 1375.7291,-427.5528 1378.9847,-433.7497"/>
</g>
<!-- resteasy&#45;core&#45;&gt;jcip&#45;annotations -->
<g id="edge25" class="edge">
<title>resteasy&#45;core&#45;&gt;jcip&#45;annotations</title>
<path fill="none" stroke="#444444" stroke-opacity="0.333333" d="M1251.8585,-542.7396C1300.2693,-559.1031 1371.6461,-583.2293 1422.894,-600.5518"/>
<polygon fill="#444444" fill-opacity="0.333333" stroke="#444444" stroke-opacity="0.333333" points="1421.946,-603.9258 1432.5403,-603.8123 1424.1876,-597.2944 1421.946,-603.9258"/>
</g>
<!-- resteasy&#45;jaxb&#45;provider&#45;&gt;glassfish&#45;jaxb&#45;runtime -->
<g id="edge26" class="edge">
<title>resteasy&#45;jaxb&#45;provider&#45;&gt;glassfish&#45;jaxb&#45;runtime</title>
<path fill="none" stroke="#444444" stroke-opacity="0.333333" d="M824.3557,-833.0168C805.9491,-865.5156 767.0973,-934.1126 745.4701,-972.2977"/>
<polygon fill="#444444" fill-opacity="0.333333" stroke="#444444" stroke-opacity="0.333333" points="742.2485,-970.8839 740.3657,-981.3101 748.3395,-974.3337 742.2485,-970.8839"/>
</g>
<!-- resteasy&#45;jaxb&#45;provider&#45;&gt;jboss&#45;logging -->
<g id="edge27" class="edge">
<title>resteasy&#45;jaxb&#45;provider&#45;&gt;jboss&#45;logging</title>
<path fill="none" stroke="#444444" stroke-opacity="0.333333" d="M845.0536,-796.8495C870.9015,-752.1408 937.7464,-636.5206 968.2276,-583.7979"/>
<polygon fill="#444444" fill-opacity="0.333333" stroke="#444444" stroke-opacity="0.333333" points="971.3329,-585.4196 973.308,-575.0104 965.2728,-581.9159 971.3329,-585.4196"/>
</g>
<!-- resteasy&#45;client&#45;&gt;jboss&#45;logging -->
<g id="edge28" class="edge">
<title>resteasy&#45;client&#45;&gt;jboss&#45;logging</title>
<path fill="none" stroke="#444444" stroke-opacity="0.333333" d="M1123.6791,-372.6349C1096.2829,-408.718 1035.2909,-489.0493 1003.6661,-530.7016"/>
<polygon fill="#444444" fill-opacity="0.333333" stroke="#444444" stroke-opacity="0.333333" points="1000.8282,-528.6515 997.5686,-538.7325 1006.4033,-532.8845 1000.8282,-528.6515"/>
</g>
<!-- resteasy&#45;client&#45;&gt;resteasy&#45;core -->
<g id="edge29" class="edge">
<title>resteasy&#45;client&#45;&gt;resteasy&#45;core</title>
<path fill="none" stroke="#444444" stroke-opacity="0.333333" d="M1144.1067,-372.5326C1154.7576,-402.3779 1175.9792,-461.844 1188.5039,-496.9397"/>
<polygon fill="#444444" fill-opacity="0.333333" stroke="#444444" stroke-opacity="0.333333" points="1185.2826,-498.3267 1191.9401,-506.5685 1191.8753,-495.9739 1185.2826,-498.3267"/>
</g>
<!-- resteasy&#45;jackson&#45;provider&#45;&gt;jackson -->
<g id="edge30" class="edge">
<title>resteasy&#45;jackson&#45;provider&#45;&gt;jackson</title>
<path fill="none" stroke="#444444" stroke-opacity="0.333333" d="M1686.9824,-1098.586C1687.0676,-1098.5936 1687.1527,-1098.6012 1687.2378,-1098.6089"/>
<polygon fill="#444444" fill-opacity="0.333333" stroke="#444444" stroke-opacity="0.333333" points="1684.711,-1101.8966 1694.9833,-1099.3021 1685.3352,-1094.9244 1684.711,-1101.8966"/>
</g>
<!-- glassfish&#45;fastinfoset -->
<g id="node1" class="node">
<title>glassfish&#45;fastinfoset</title>
<text text-anchor="middle" x="410.44" y="-812.47" font-family="monospace" font-size="14.00" fill="#000000">glassfish&#45;fastinfoset</text>
</g>
<!-- xmlstreambuffer -->
<g id="node2" class="node">
<title>xmlstreambuffer</title>
<text text-anchor="middle" x="262.72" y="-984.09" font-family="monospace" font-size="14.00" fill="#000000">xmlstreambuffer</text>
</g>
<!-- xsom -->
<g id="node3" class="node">
<title>xsom</title>
<text text-anchor="middle" x="202.77" y="-573.33" font-family="monospace" font-size="14.00" fill="#000000">xsom</text>
</g>
<!-- stax&#45;ex -->
<g id="node4" class="node">
<title>stax&#45;ex</title>
<text text-anchor="middle" x="441.74" y="-1135" font-family="monospace" font-size="14.00" fill="#000000">stax&#45;ex</text>
</g>
<!-- relaxngDatatype -->
<g id="node5" class="node">
<title>relaxngDatatype</title>
<text text-anchor="middle" x="90.992" y="-340.36" font-family="monospace" font-size="14.00" fill="#000000">relaxngDatatype</text>
</g>
<!-- bea&#45;stax&#45;api -->
<g id="node6" class="node">
<title>bea&#45;stax&#45;api</title>
<text text-anchor="middle" x="225.54" y="-1247.8" font-family="monospace" font-size="14.00" fill="#000000">bea&#45;stax&#45;api</text>
</g>
<!-- glassfish&#45;jaxb&#45;core -->
<g id="node7" class="node">
<title>glassfish&#45;jaxb&#45;core</title>
<text text-anchor="middle" x="1052.2" y="-1254.5" font-family="monospace" font-size="14.00" fill="#000000">glassfish&#45;jaxb&#45;core</text>
</g>
<!-- glassfish&#45;jaxb&#45;api -->
<g id="node8" class="node">
<title>glassfish&#45;jaxb&#45;api</title>
<text text-anchor="middle" x="1126.5" y="-1431.2" font-family="monospace" font-size="14.00" fill="#000000">glassfish&#45;jaxb&#45;api</text>
</g>
<!-- glassfish&#45;jaxb&#45;txw2 -->
<g id="node9" class="node">
<title>glassfish&#45;jaxb&#45;txw2</title>
<text text-anchor="middle" x="1304.6" y="-1227.1" font-family="monospace" font-size="14.00" fill="#000000">glassfish&#45;jaxb&#45;txw2</text>
</g>
<!-- istack&#45;commons&#45;runtime -->
<g id="node10" class="node">
<title>istack&#45;commons&#45;runtime</title>
<text text-anchor="middle" x="1312.6" y="-1475.2" font-family="monospace" font-size="14.00" fill="#000000">istack&#45;commons&#45;runtime</text>
</g>
<!-- glassfish&#45;jaxb&#45;runtime -->
<g id="node11" class="node">
<title>glassfish&#45;jaxb&#45;runtime</title>
<text text-anchor="middle" x="730.12" y="-995.7" font-family="monospace" font-size="14.00" fill="#000000">glassfish&#45;jaxb&#45;runtime</text>
</g>
<!-- httpcomponents&#45;client -->
<g id="node12" class="node">
<title>httpcomponents&#45;client</title>
<text text-anchor="middle" x="983.12" y="-234.55" font-family="monospace" font-size="14.00" fill="#000000">httpcomponents&#45;client</text>
</g>
<!-- httpcomponents&#45;core -->
<g id="node13" class="node">
<title>httpcomponents&#45;core</title>
<text text-anchor="middle" x="865.21" y="-14.3" font-family="monospace" font-size="14.00" fill="#000000">httpcomponents&#45;core</text>
</g>
<!-- jackson -->
<g id="node14" class="node">
<title>jackson</title>
<text text-anchor="middle" x="1743" y="-1099.9" font-family="monospace" font-size="14.00" fill="#000000">jackson</text>
</g>
<!-- joda&#45;time -->
<g id="node15" class="node">
<title>joda&#45;time</title>
<text text-anchor="middle" x="1895.5" y="-1231.9" font-family="monospace" font-size="14.00" fill="#000000">joda&#45;time</text>
</g>
<!-- jsr&#45;311 -->
<g id="node16" class="node">
<title>jsr&#45;311</title>
<text text-anchor="middle" x="1664" y="-1285.7" font-family="monospace" font-size="14.00" fill="#000000">jsr&#45;311</text>
</g>
<!-- objectweb&#45;asm3 -->
<g id="node17" class="node">
<title>objectweb&#45;asm3</title>
<text text-anchor="middle" x="1915.8" y="-996.6" font-family="monospace" font-size="14.00" fill="#000000">objectweb&#45;asm3</text>
</g>
<!-- stax2&#45;api -->
<g id="node18" class="node">
<title>stax2&#45;api</title>
<text text-anchor="middle" x="1698.3" y="-903.3" font-family="monospace" font-size="14.00" fill="#000000">stax2&#45;api</text>
</g>
<!-- resteasy&#45;atom&#45;provider -->
<g id="node19" class="node">
<title>resteasy&#45;atom&#45;provider</title>
<text text-anchor="middle" x="943.22" y="-720.5" font-family="monospace" font-size="14.00" fill="#000000">resteasy&#45;atom&#45;provider</text>
</g>
<!-- jboss&#45;logging -->
<g id="node20" class="node">
<title>jboss&#45;logging</title>
<text text-anchor="middle" x="983.79" y="-553.18" font-family="monospace" font-size="14.00" fill="#000000">jboss&#45;logging</text>
</g>
<!-- resteasy&#45;core -->
<g id="node21" class="node">
<title>resteasy&#45;core</title>
<text text-anchor="middle" x="1198.4" y="-520.97" font-family="monospace" font-size="14.00" fill="#000000">resteasy&#45;core</text>
</g>
<!-- resteasy&#45;jaxb&#45;provider -->
<g id="node22" class="node">
<title>resteasy&#45;jaxb&#45;provider</title>
<text text-anchor="middle" x="834.56" y="-811.3" font-family="monospace" font-size="14.00" fill="#000000">resteasy&#45;jaxb&#45;provider</text>
</g>
<!-- jboss&#45;annotations&#45;1.2&#45;api -->
<g id="node23" class="node">
<title>jboss&#45;annotations&#45;1.2&#45;api</title>
<text text-anchor="middle" x="1326.4" y="-744.24" font-family="monospace" font-size="14.00" fill="#000000">jboss&#45;annotations&#45;1.2&#45;api</text>
</g>
<!-- jboss&#45;jaxrs&#45;2.0&#45;api -->
<g id="node24" class="node">
<title>jboss&#45;jaxrs&#45;2.0&#45;api</title>
<text text-anchor="middle" x="1420.7" y="-404.18" font-family="monospace" font-size="14.00" fill="#000000">jboss&#45;jaxrs&#45;2.0&#45;api</text>
</g>
<!-- jcip&#45;annotations -->
<g id="node25" class="node">
<title>jcip&#45;annotations</title>
<text text-anchor="middle" x="1486.2" y="-618.25" font-family="monospace" font-size="14.00" fill="#000000">jcip&#45;annotations</text>
</g>
<!-- resteasy&#45;client -->
<g id="node26" class="node">
<title>resteasy&#45;client</title>
<text text-anchor="middle" x="1137.6" y="-350.6" font-family="monospace" font-size="14.00" fill="#000000">resteasy&#45;client</text>
</g>
<!-- resteasy&#45;jackson&#45;provider -->
<g id="node27" class="node">
<title>resteasy&#45;jackson&#45;provider</title>
<text text-anchor="middle" x="1541.9" y="-1081.9" font-family="monospace" font-size="14.00" fill="#000000">resteasy&#45;jackson&#45;provider</text>
</g>
</g>
</svg>
