<?xml version="1.0" encoding="UTF-8" standalone="no"?>
<!DOCTYPE svg PUBLIC "-//W3C//DTD SVG 1.1//EN"
 "http://www.w3.org/Graphics/SVG/1.1/DTD/svg11.dtd">
<!-- Generated by graphviz version 2.40.1 (20161225.0304)
 -->
<!-- Title: G Pages: 1 -->
<svg width="2519pt" height="1427pt"
 viewBox="0.00 0.00 2519.02 1427.37" xmlns="http://www.w3.org/2000/svg" xmlns:xlink="http://www.w3.org/1999/xlink">
<g id="graph0" class="graph" transform="scale(1 1) rotate(0) translate(121.7421 1275.8709)">
<title>G</title>
<polygon fill="#dae2ff" stroke="transparent" points="-121.7421,151.4946 -121.7421,-1275.8709 2397.2803,-1275.8709 2397.2803,151.4946 -121.7421,151.4946"/>
<polygon fill="#c2dfd1" stroke="#c2dfd1" points="158.4775,-869.097 157.8799,-869.0762 156.32,-868.93 143.4828,-869.2452 136.1379,-869.8596 130.697,-870.6345 126.3477,-871.509 122.5552,-872.4955 110.8414,-876.2451 107.571,-877.4829 98.2388,-881.571 84.0776,-889.4714 68.6765,-899.8979 53.8458,-910.7794 6.9416,-941.9421 11.6285,-962.7739 24.5817,-1030.5325 42.2497,-1083.9543 81.6608,-1097.2909 154.5249,-1160.9827 188.1131,-1170.7357 242.9127,-1176.0128 258.9697,-1178.3036 272.7235,-1180.9025 280.5244,-1182.7372 282.179,-1027.9287 287.7771,-1031.6885 295.0687,-1031.6885 301.1683,-1027.3206 300.9076,-1026.9523 295.1676,-1022.9979 295.1676,-1022.9979 300.9076,-1026.9523 301.1683,-1027.3206 295.0687,-1031.6885 287.7771,-1031.6885 282.179,-1027.9287 280.5244,-1182.7372 282.7769,-1183.3192 296.1898,-1183.4978 307.1949,-1184.3629 307.6183,-1027.7686 313.6544,-1027.7686 314.7877,-1027.3605 319.6228,-1027.3605 325.7559,-1102.3876 326.856,-1027.2172 326.9023,-1027.2004 331.399,-1027.2004 333.0753,-1025.2649 333.4391,-939.1501 340.1312,-939.5088 354.733,-939.7006 347.3452,-851.4064 347.3452,-851.4064 354.733,-939.7006 340.1312,-939.5088 333.4391,-939.1501 333.0753,-1025.2649 339.4493,-1022.3735 359.3665,-1027.4 391.0213,-1027.4 417.9331,-976.6951 388.2204,-945.0064 408.1021,-903.1099 408.1021,-903.1099 388.2204,-945.0064 417.9331,-976.6951 391.0213,-1027.4 359.3665,-1027.4 339.4493,-1022.3735 333.0753,-1025.2649 331.399,-1027.2004 326.9023,-1027.2004 326.856,-1027.2172 325.7559,-1102.3876 319.6228,-1027.3605 314.7877,-1027.3605 313.6544,-1027.7686 307.6183,-1027.7686 307.1949,-1184.3629 319.3099,-1185.579 319.8705,-1185.6473 421.7583,-1244.5682 433.5527,-1251.7086 439.3039,-1248.7147 448.9234,-1244.1768 451.1996,-1120.217 451.1996,-1120.217 448.9234,-1244.1768 472.9319,-1234.0121 475.0916,-1233.2574 493.7386,-1227.1891 501.5942,-1225.0171 514.6392,-1222.0425 517.1874,-1221.5236 536.8855,-1217.9899 538.5798,-1217.7277 538.0557,-1146.5577 541.2245,-1071.5724 547.5568,-1071.5724 547.8701,-1071.4545 543.6572,-983.6316 547.0863,-983.3362 547.0823,-967.7683 539.5075,-895.2896 539.5075,-895.2896 547.0823,-967.7683 547.0863,-983.3362 543.6572,-983.6316 547.8701,-1071.4545 553.6516,-1071.4545 554.0167,-1071.3174 559.1049,-1071.3174 561.0217,-1068.9959 567.0698,-1066.2959 570.0463,-983.4659 570.2307,-983.4656 649.139,-1032.1696 649.0457,-1027.6285 650.8442,-939.1232 656.5632,-939.1232 657.7446,-939.5637 663.3868,-939.5637 666.1996,-1029.546 666.192,-1030.416 679.7656,-1026.5439 686.3441,-1024.9601 700.9581,-1022.727 695.7415,-941.6411 702.6132,-944.233 702.6132,-944.233 695.7415,-941.6411 700.9581,-1022.727 701.904,-1022.6244 718.7718,-1022.2725 722.2953,-1022.3541 725.8227,-1022.1287 721.7199,-939.362 721.7679,-939.3444 728.6765,-939.3444 729.236,-939.1357 734.9691,-939.1357 736.3066,-1001.9813 742.5361,-939.4208 747.4665,-939.4208 747.9397,-939.248 754.3853,-939.248 756.4929,-1007.1 756.9824,-1006.618 756.9824,-1006.618 756.4929,-1007.1 754.3853,-939.248 747.9397,-939.248 747.4665,-939.4208 742.5361,-939.4208 736.3066,-1001.9813 734.9691,-939.1357 729.236,-939.1357 728.6765,-939.3444 721.7679,-939.3444 721.7199,-939.362 725.8227,-1022.1287 722.2953,-1022.3541 718.7718,-1022.2725 701.904,-1022.6244 700.9581,-1022.727 686.3441,-1024.9601 679.7656,-1026.5439 666.192,-1030.416 666.1996,-1029.546 663.3868,-939.5637 657.7446,-939.5637 656.5632,-939.1232 650.8442,-939.1232 649.0457,-1027.6285 649.139,-1032.1696 570.2307,-983.4656 570.0463,-983.4659 567.0698,-1066.2959 561.0217,-1068.9959 559.1049,-1071.3174 554.0167,-1071.3174 553.6516,-1071.4545 547.8701,-1071.4545 547.5568,-1071.5724 541.2245,-1071.5724 538.0557,-1146.5577 538.5798,-1217.7277 545.783,-1216.9641 560.0122,-1215.8015 560.6148,-1215.7671 562.1484,-1152.884 562.1484,-1152.884 560.6148,-1215.7671 615.5579,-1215.2916 665.7626,-1245.527 725.4876,-1252.6293 724.4821,-1213.5398 718.4661,-1109.8361 718.4661,-1109.8361 724.4821,-1213.5398 725.4876,-1252.6293 733.8384,-1254.0175 747.993,-1257.0431 751.4451,-1257.8623 759.8884,-1260.269 762.5729,-1261.0985 770.6252,-1105.6414 776.1296,-1109.4349 776.1296,-1109.4349 770.6252,-1105.6414 762.5729,-1261.0985 782.3569,-1267.6893 792.691,-1271.8709 801.215,-1271.0491 811.7729,-1270.4673 817.4274,-1270.3889 825.9177,-1267.8274 834.8029,-1265.5479 837.121,-1265.0054 844.88,-1261.5958 985.6171,-1203.3798 995.5094,-1194.5068 993.1716,-1160.2241 1006.0588,-1127.5125 1033.0802,-1051.103 1045.7216,-1009.5003 1047.734,-1003.7287 1080.1494,-921.4493 1079.9646,-921.3419 1073.7542,-912.777 1058.1555,-892.198 1050.3412,-882.8719 1043.677,-875.7166 1039.506,-870.8785 1034.4745,-865.3741 1023.4354,-854.0151 1015.1844,-846.0861 1009.345,-840.878 1006.2991,-837.8492 999.7725,-832.3403 985.8606,-822.5485 976.2289,-816.4772 971.5452,-813.8793 964.9551,-810.7122 960.3643,-808.8452 953.4561,-806.5393 942.8535,-803.7766 942.2349,-803.6616 930.9323,-802.3832 923.5464,-802.093 918.2251,-801.4904 903.6155,-798.7463 900.5365,-797.7191 886.2965,-791.8818 874.8986,-785.5193 866.9585,-780.5072 869.8525,-850.923 863.2644,-853.3503 860.5331,-856.439 862.1033,-858.0803 862.1033,-858.0803 860.5331,-856.439 863.2644,-853.3503 869.8525,-850.923 866.9585,-780.5072 862.2488,-777.1959 846.0307,-763.3279 833.0823,-750.3474 831.4252,-748.5684 831.3048,-748.43 826.5926,-743.9238 809.0196,-726.0031 799.5837,-715.8387 771.5219,-720.1928 755.9371,-723.3912 744.2705,-726.0754 738.5859,-727.5232 726.875,-731.3815 711.6866,-736.7654 689.8245,-746.1475 680.9498,-750.6139 676.3331,-753.0527 668.0132,-750.2988 654.9826,-746.5502 646.4568,-744.4669 628.2623,-740.8037 620.7962,-739.624 580.6392,-734.1464 562.8646,-731.3266 548.5822,-728.4305 529.4896,-723.2906 526.6382,-722.4604 510.5292,-717.0549 503.0266,-714.3727 515.9605,-681.3474 518.0679,-676.3265 530.214,-651.0148 537.6241,-636.7202 552.3452,-612.6688 565.861,-594.6893 568.3521,-591.7831 574.8442,-585.1707 579.9644,-580.713 585.8698,-574.1972 607.9196,-541.7308 623.1759,-525.5573 623.8773,-524.6924 625.0284,-523.038 636.959,-509.0847 637.6949,-508.1227 645.7407,-496.3508 656.6676,-478.7128 662.9622,-466.6968 672.7075,-446.5577 688.9217,-410.643 694.9623,-394.7195 694.9926,-394.635 689.3917,-392.4508 675.067,-387.4907 671.9479,-386.5472 657.105,-382.3778 646.3015,-379.814 625.6024,-375.8008 604.2083,-373.5144 588.3641,-372.5112 585.3346,-372.3854 562.913,-370.9587 559.5235,-370.5187 550.0457,-379.58 548.5666,-381.182 538.768,-391.3076 524.8079,-404.349 518.8635,-409.599 506.9505,-418.9429 489.8672,-430.6705 479.2892,-436.8714 479.0634,-436.9924 408.7811,-471.278 391.3095,-480.6614 380.8645,-487.2523 372.1587,-493.5761 393.5086,-533.52 420.9658,-602.89 476.7484,-707.2544 478.8409,-711.5841 373.0326,-725.0253 355.4198,-726.7512 345.574,-726.8538 332.6198,-738.6217 330.7065,-740.1459 322.4263,-746.3097 313.6581,-752.3723 311.3409,-753.8497 296.8527,-762.3319 236.2029,-791.3101 233.7905,-798.0583 229.8496,-811.7111 221.2134,-851.24 247.9591,-851.24 294.147,-856.0159 301.2489,-851.2529 301.2489,-851.2529 294.147,-856.0159 247.9591,-851.24 221.2134,-851.24 220.6019,-852.9507 217.2877,-854.7836 211.1912,-857.7924 210.3234,-858.1693 197.3405,-863.0643 196.3962,-863.3641 182.919,-866.8616 170.2681,-868.6514 167.4257,-868.8853 158.4775,-869.097 158.4775,-869.097"/>
<polygon fill="#d3ded1" stroke="#d3ded1" points="1150.3411,-1237.8486 1143.8566,-1236.1392 1124.3998,-1232.0161 995.5094,-1194.5068 993.1716,-1160.2241 1006.0588,-1127.5125 1033.0802,-1051.103 1045.7216,-1009.5003 1047.734,-1003.7287 1080.1494,-921.4493 1079.9646,-921.3419 1073.7542,-912.777 1058.1555,-892.198 1050.3412,-882.8719 1043.677,-875.7166 1039.506,-870.8785 1034.4745,-865.3741 1023.4354,-854.0151 1015.1844,-846.0861 1009.345,-840.878 1006.2991,-837.8492 999.7725,-832.3403 985.8606,-822.5485 976.2289,-816.4772 971.5452,-813.8793 964.9551,-810.7122 960.3643,-808.8452 953.4561,-806.5393 942.8535,-803.7766 942.2349,-803.6616 930.9323,-802.3832 923.5464,-802.093 918.2251,-801.4904 903.6155,-798.7463 900.5365,-797.7191 886.2965,-791.8818 874.8986,-785.5193 866.9585,-780.5072 862.2488,-777.1959 846.0307,-763.3279 833.0823,-750.3474 831.4252,-748.5684 831.3048,-748.43 826.5926,-743.9238 809.0196,-726.0031 799.5837,-715.8387 771.5219,-720.1928 770.5062,-692.7987 762.8206,-579.1445 761.7665,-577.9308 756.9293,-577.9308 755.8391,-577.5426 750.8046,-577.5426 750.4934,-577.4344 750.4934,-577.4344 750.8046,-577.5426 755.8391,-577.5426 756.9293,-577.9308 761.7665,-577.9308 762.8206,-579.1445 770.5062,-692.7987 771.5219,-720.1928 755.9371,-723.3912 744.2705,-726.0754 738.5859,-727.5232 726.875,-731.3815 724.3564,-577.8293 718.6398,-577.8293 717.5023,-577.4169 712.1434,-577.4169 711.9017,-577.329 711.9017,-577.329 712.1434,-577.4169 717.5023,-577.4169 718.6398,-577.8293 724.3564,-577.8293 726.875,-731.3815 711.6866,-736.7654 689.8245,-746.1475 680.9498,-750.6139 676.3331,-753.0527 668.0132,-750.2988 654.9826,-746.5502 646.4568,-744.4669 628.2623,-740.8037 620.7962,-739.624 580.6392,-734.1464 562.8646,-731.3266 548.5822,-728.4305 529.4896,-723.2906 526.6382,-722.4604 510.5292,-717.0549 503.0266,-714.3727 515.9605,-681.3474 518.0679,-676.3265 530.214,-651.0148 537.6241,-636.7202 552.3452,-612.6688 565.861,-594.6893 568.3521,-591.7831 574.8442,-585.1707 579.9644,-580.713 585.8698,-574.1972 607.9196,-541.7308 623.1759,-525.5573 623.8773,-524.6924 625.0284,-523.038 636.959,-509.0847 637.6949,-508.1227 645.7407,-496.3508 656.6676,-478.7128 662.9622,-466.6968 672.7075,-446.5577 688.9217,-410.643 694.9623,-394.7195 694.9926,-394.635 707.0821,-394.4949 707.1291,-394.4926 713.3927,-387.5748 748.7108,-350.0871 796.774,-295.4921 834.5323,-285.8224 847.5532,-282.9148 851.0818,-282.2441 864.9064,-280.5242 867.7622,-280.2631 883.9329,-279.8469 886.903,-279.6657 893.1496,-279.6968 896.9276,-279.5827 898.7723,-279.6486 907.6504,-279.6531 907.894,-279.6447 913.5512,-279.6349 918.4438,-274.6079 926.508,-267.3958 928.473,-265.767 929.9308,-264.4195 939.9048,-255.8958 949.1365,-248.6765 951.4482,-247.0412 954.1884,-245.2981 1017.7999,-209.2212 1020.4888,-207.5027 1026.6635,-203.0944 1034.9338,-196.5667 1038.6041,-193.3978 1046.6694,-187.2278 1047.2621,-186.7365 1053.3756,-181.2561 1065.0751,-169.9723 1090.7029,-141.8328 1135.1652,-96.3311 1136.6051,-96.4577 1176.2705,-123.9096 1196.2054,-149.9137 1240.5771,-259.0889 1245.6179,-270.6012 1293.6205,-307.4774 1356.2236,-431.15 1374.3217,-463.1518 1364.2501,-521.71 1360.2521,-540.3354 1331.9873,-561.9483 1164.8058,-545.043 1147.2859,-543.8276 1147.6366,-484.5674 1143.998,-431.5539 1143.998,-431.5539 1147.6366,-484.5674 1147.2859,-543.8276 1138.7529,-543.7811 1136.3545,-540.9104 1132.6667,-536.78 1125.5507,-529.3389 1124.7454,-434.1306 1118.1699,-436.4391 1112.0905,-434.3155 1109.3496,-431.27 1104.4536,-431.27 1104.4349,-431.2632 1099.2373,-431.2632 1099.2373,-431.2632 1104.4349,-431.2632 1104.4536,-431.27 1109.3496,-431.27 1112.0905,-434.3155 1118.1699,-436.4391 1124.7454,-434.1306 1125.5507,-529.3389 1118.7981,-522.7836 1107.5592,-512.7161 1101.0986,-507.913 1030.7301,-524.5764 1027.3129,-527.8328 1025.4493,-527.8328 1024.1111,-528.3497 1019.5247,-528.3497 1017.4185,-530.6656 1010.7552,-533.1207 1010.7552,-533.1207 1017.4185,-530.6656 1019.5247,-528.3497 1024.1111,-528.3497 1025.4493,-527.8328 1027.3129,-527.8328 1030.7301,-524.5764 1101.0986,-507.913 1107.5592,-512.7161 1118.7981,-522.7836 1125.5507,-529.3389 1132.6667,-536.78 1136.3545,-540.9104 1138.7529,-543.7811 1147.2859,-543.8276 1164.8058,-545.043 1331.9873,-561.9483 1293.2407,-653.7094 1291.3986,-658.4564 1137.1533,-660.6113 1134.3738,-704.9036 1129.4362,-656.3526 1123.9543,-656.3526 1123.8097,-656.4061 1123.8097,-656.4061 1123.9543,-656.3526 1129.4362,-656.3526 1134.3738,-704.9036 1137.1533,-660.6113 1291.3986,-658.4564 1253.9535,-764.1676 1230.1869,-798.8252 1207.9813,-888.8955 1284.3552,-946.822 1351.5029,-1055.0769 1361.1643,-1069.6359 1362.6855,-1073.1814 1346.8125,-1114.7003 1345.9308,-1117.2459 1285.4277,-1217.8008 1220.6281,-1239.8125 1200.9073,-1238.847 1187.5448,-1238.8365 1170.5706,-1239.2327 1162.1664,-1239.8331 1158.6455,-1240.2543 1150.3411,-1237.8486 1150.3411,-1237.8486"/>
<polygon fill="#c1c8d8" stroke="#c1c8d8" points="2207.4312,-255.8371 2228.4785,-260.7643 2282.7715,-272.1849 2335.1519,-297.7926 2377.6479,-404.8607 2386.6157,-425.6371 2393.2803,-439.9619 2348.8931,-519.0574 2337.0303,-537.8522 2307.5122,-562.3906 2297.8831,-595.36 2276.4102,-689.6368 2196.9033,-743.2424 2142.0127,-745.8823 2137.8098,-746.185 2130.302,-746.9053 2108.5166,-750.0406 2057.5874,-732.4438 2026.428,-714.3884 1944.7322,-595.36 1903.2994,-541.123 1884.1495,-557.6137 1804.2587,-629.5447 1724.1854,-672.0602 1679.3608,-666.8798 1666.7562,-665.7252 1666.8455,-586.3922 1670.6538,-521.8786 1670.2201,-521.719 1670.2201,-521.719 1670.6538,-521.8786 1666.8455,-586.3922 1666.7562,-665.7252 1650.9543,-665.037 1645.5468,-664.9315 1643.2742,-664.9417 1642.5328,-664.9628 1636.9287,-665.2568 1632.6498,-665.5843 1618.97,-666.9617 1608.0978,-668.3179 1593.7708,-670.7936 1589.6101,-671.6118 1587.4443,-672.0895 1542.8176,-683.0063 1360.2521,-540.3354 1364.2501,-521.71 1374.3217,-463.1518 1585.6998,-360.5688 1589.4434,-358.6529 1590.7731,-358.2404 1603.1427,-353.8283 1611.2832,-356.2308 1621.1398,-358.7019 1635.3442,-361.6358 1651.8981,-364.3225 1670.2064,-366.0792 1671.9164,-366.1677 1723.0558,-367.6854 1913.9088,-470.3638 1938.4252,-448.2882 1954.9574,-415.08 1973.788,-372.8456 1976.3104,-367.6952 2091.6067,-287.5236 2169.4602,-259.8171 2171.4834,-341.0454 2171.4834,-341.0454 2169.4602,-259.8171 2184.4277,-253.7195 2191.303,-250.5658 2206.8701,-255.6797 2201.6819,-359.8293 2201.6819,-359.8293 2206.8701,-255.6797 2207.4312,-255.8371 2207.4312,-255.8371"/>
<polygon fill="#fed9a6" stroke="#fed9a6" points="555.0886,-63.8439 561.3266,-66.421 600.826,-79.9897 606.308,-82.2637 613.5637,-85.7956 624.0075,-91.6282 627.9797,-94.1208 632.4259,-97.2247 634.6586,-98.9445 645.5116,-108.1293 652.6078,-114.6516 645.402,-122.1906 643.0582,-124.4477 641.8397,-125.5249 635.4022,-131.9293 633.8356,-133.702 624.9116,-142.8665 624.7574,-143.0081 611.4309,-153.9482 603.9694,-158.5343 593.3268,-164.0121 564.622,-175.7694 555.8241,-180.286 544.597,-187.1867 538.4871,-192.1499 527.4512,-202.2662 524.6844,-204.4673 521.4284,-207.3268 514.9813,-214.148 508.4937,-221.626 496.9709,-233.5415 497.0743,-202.7648 496.2368,-184.8102 497.4886,-128.5159 497.4886,-128.5159 496.2368,-184.8102 497.0743,-202.7648 496.9709,-233.5415 481.105,-253.6975 477.4504,-258.6186 478.3643,-269.9818 405.0994,-296.4848 394.5831,-299.7799 392.3314,-300.3744 380.877,-302.8424 375.4478,-303.7443 370.7407,-304.2952 369.2979,-304.3935 351.2067,-304.7426 349.9204,-304.831 348.1339,-304.6917 342.0443,-304.5172 341.6251,-304.5258 337.809,-304.7942 327.9945,-305.0027 326.4589,-304.9602 325.355,-304.9841 323.1424,-304.924 320.9856,-304.7596 315.4966,-304.8845 304.1867,-304.5861 302.8703,-304.4867 302.4493,-304.4759 296.8299,-304.6087 296.2283,-304.5936 292.9626,-304.6722 291.7123,-304.6414 290.989,-304.6592 287.44,-304.573 276.7704,-304.8425 275.0748,-304.8021 258.5018,-306.05 208.2438,-354.9453 208.2497,-356.9077 207.6668,-366.0962 207.754,-393.9159 208.3331,-402.2299 208.4621,-444.5127 190.7776,-451.1513 180.0814,-454.6862 176.377,-455.7414 161.0301,-458.7401 157.7094,-459.238 150.066,-460.0396 137.3662,-460.2269 131.9994,-460.5514 130.3612,-460.5024 129.6263,-380.0281 129.7795,-379.9734 129.3695,-326.6213 137.2611,-327.8677 151.9396,-329.0636 153.9393,-329.3863 162.5922,-331.4872 171.0348,-334.2225 180.4057,-338.0116 176.9681,-279.4531 179.3738,-276.6262 176.8326,-273.6629 170.8862,-271.4891 170.8862,-271.4891 176.8326,-273.6629 179.3738,-276.6262 176.9681,-279.4531 180.4057,-338.0116 171.0348,-334.2225 162.5922,-331.4872 153.9393,-329.3863 151.9396,-329.0636 137.2611,-327.8677 129.3695,-326.6213 129.7795,-379.9734 129.6263,-380.0281 130.3612,-460.5024 124.268,-460.5976 121.4394,-460.5143 119.78,-460.541 113.182,-460.0508 110.0058,-459.9601 106.0655,-460.027 102.4429,-460.254 94.0706,-460.0224 91.5453,-460.0676 90.6576,-460.0435 87.2764,-460.26 77.3223,-460.4478 74.7667,-460.6127 73.654,-460.6341 72.5752,-460.7041 64.8999,-460.509 54.0621,-460.7284 51.6987,-460.8837 -96.2669,-477.3476 -117.7421,-393.1288 -117.6466,-392.7248 -112.409,-367.5349 -109.6274,-351.9836 -100.1768,-326.153 -4.0664,-238.0215 6.2794,-232.9283 76.6711,-129.5216 76.5939,-125.9457 73.888,-72.9763 72.2276,-52.2601 78.3272,-25.935 140.8926,36.6573 234.3755,56.8754 244.2207,59.4887 249.3967,59.0147 254.3848,58.6729 267.1162,58.0938 268.2487,58.0945 280.6197,58.3867 287.7823,58.721 292.2189,59.0303 406.6731,120.552 410.1806,121.255 417.438,123.0158 420.1624,123.7344 443.194,130.3011 480.3148,141.6544 484.8302,139.9827 510.7154,7.0199 517.1876,-38.9945 519.5596,-40.8992 521.591,-42.7359 523.3121,-44.1653 528.8815,-48.4017 544.2247,-58.0089 552.412,-62.5517 555.0886,-63.8439 555.0886,-63.8439"/>
<polygon fill="#fbb4ae" stroke="#fbb4ae" points="603.9057,137.3358 596.7538,138.836 559.6297,147.4946 484.8302,139.9827 510.7154,7.0199 517.1876,-38.9945 519.5596,-40.8992 521.591,-42.7359 523.3121,-44.1653 528.8815,-48.4017 544.2247,-58.0089 552.412,-62.5517 555.0886,-63.8439 561.3266,-66.421 600.826,-79.9897 606.308,-82.2637 613.5637,-85.7956 624.0075,-91.6282 627.9797,-94.1208 632.4259,-97.2247 634.6586,-98.9445 645.5116,-108.1293 652.6078,-114.6516 645.402,-122.1906 643.0582,-124.4477 641.8397,-125.5249 635.4022,-131.9293 633.8356,-133.702 624.9116,-142.8665 624.7574,-143.0081 621.3185,-211.1198 621.6203,-211.2329 628.4614,-211.2329 627.4644,-316.2285 635.7018,-211.2749 638.8961,-211.2749 641.4078,-213.9545 641.4078,-213.9545 638.8961,-211.2749 635.7018,-211.2749 627.4644,-316.2285 628.4614,-211.2329 621.6203,-211.2329 621.3185,-211.1198 624.7574,-143.0081 611.4309,-153.9482 603.9694,-158.5343 593.3268,-164.0121 564.622,-175.7694 555.8241,-180.286 544.597,-187.1867 538.4871,-192.1499 527.4512,-202.2662 524.6844,-204.4673 521.4284,-207.3268 514.9813,-214.148 508.4937,-221.626 496.9709,-233.5415 481.105,-253.6975 477.4504,-258.6186 478.3643,-269.9818 559.5235,-370.5187 562.913,-370.9587 585.3346,-372.3854 588.3641,-372.5112 604.2083,-373.5144 625.6024,-375.8008 646.3015,-379.814 657.105,-382.3778 671.9479,-386.5472 675.067,-387.4907 689.3917,-392.4508 694.9926,-394.635 707.0821,-394.4949 707.1291,-394.4926 713.3927,-387.5748 748.7108,-350.0871 796.774,-295.4921 834.5323,-285.8224 847.5532,-282.9148 851.0818,-282.2441 864.9064,-280.5242 867.7622,-280.2631 883.9329,-279.8469 886.903,-279.6657 893.1496,-279.6968 896.9276,-279.5827 897.1374,-232.2525 897.1374,-232.2525 896.9276,-279.5827 898.7723,-279.6486 907.6504,-279.6531 907.894,-279.6447 913.5512,-279.6349 918.4438,-274.6079 926.508,-267.3958 928.473,-265.767 929.9308,-264.4195 939.9048,-255.8958 949.1365,-248.6765 951.4482,-247.0412 954.1884,-245.2981 1017.7999,-209.2212 1020.4888,-207.5027 1026.6635,-203.0944 1034.9338,-196.5667 1038.6041,-193.3978 1046.6694,-187.2278 1047.2621,-186.7365 1053.3756,-181.2561 1065.0751,-169.9723 1090.7029,-141.8328 1135.1652,-96.3311 1007.5613,-24.541 953.5161,67.6502 947.6132,73.6742 894.9468,94.0004 856.6529,89.6516 847.1015,89.0181 827.049,88.6348 812.6844,89.3793 729.0546,131.8103 702.4055,130.0317 700.2593,129.9396 690.901,129.9834 686.3858,-17.7211 686.84,-17.8884 692.7476,-17.8884 694.0323,-18.3687 699.882,-18.3687 699.9286,-85.5627 709.952,-73.406 720.2225,-62.6224 720.7649,-61.8919 720.7649,-61.8919 720.2225,-62.6224 759.6024,-67.1045 766.6665,-62.6001 766.8924,-62.2941 773.1449,-62.2941 773.2743,-62.2467 778.9887,-62.2467 778.9887,-62.2467 773.2743,-62.2467 773.1449,-62.2941 766.8924,-62.2941 766.6665,-62.6001 759.6024,-67.1045 720.2225,-62.6224 709.952,-73.406 699.9286,-85.5627 699.882,-18.3687 694.0323,-18.3687 692.7476,-17.8884 686.84,-17.8884 686.3858,-17.7211 690.901,129.9834 672.0972,130.5198 665.6598,131.1634 664.6808,131.1606 648.8049,131.4905 646.1272,131.6093 624.3954,133.6022 620.943,134.1629 603.9057,137.3358 603.9057,137.3358"/>
<polygon fill="#e4ced8" stroke="#e4ced8" points="113.182,-460.0508 119.78,-460.541 121.4394,-460.5143 124.268,-460.5976 125.5461,-536.3234 119.4664,-540.8279 125.8403,-545.4359 121.4948,-598.053 121.0341,-627.1214 111.095,-629.4338 106.5142,-630.6968 99.3217,-632.9911 88.5418,-636.8951 88.0285,-637.1027 67.7915,-647.0757 21.207,-673.9968 62.2098,-707.67 136.4071,-707.67 153.7432,-702.5833 160.3703,-705.6065 162.1827,-707.8269 167.0176,-707.8269 167.5327,-708.0214 173.2485,-708.0214 174.3108,-707.6137 180.3308,-707.6137 181.3026,-707.9856 181.3539,-708.0635 186.8266,-711.9797 186.8266,-711.9797 181.3539,-708.0635 181.3026,-707.9856 187.4837,-703.2203 187.4837,-703.2203 181.3026,-707.9856 180.3308,-707.6137 174.3108,-707.6137 173.2485,-708.0214 167.5327,-708.0214 167.0176,-707.8269 162.1827,-707.8269 160.3703,-705.6065 153.7432,-702.5833 136.4071,-707.67 62.2098,-707.67 21.207,-673.9968 67.7915,-647.0757 88.0285,-637.1027 88.5418,-636.8951 99.3217,-632.9911 106.5142,-630.6968 111.095,-629.4338 121.0341,-627.1214 121.4948,-598.053 125.8403,-545.4359 119.4664,-540.8279 125.5461,-536.3234 124.268,-460.5976 130.3612,-460.5024 131.9994,-460.5514 137.3662,-460.2269 150.066,-460.0396 157.7094,-459.238 157.6372,-540.6396 157.9414,-540.7496 155.7259,-607.3031 153.6868,-609.5546 216.7,-607.2739 222.4031,-602.8691 223.0549,-602.8691 223.1014,-602.8519 229.8557,-602.8519 230.8088,-602.4972 235.956,-602.4972 236.2008,-602.585 242.2375,-602.585 242.7712,-602.7793 248.6572,-602.7793 249.1527,-602.9614 255.6432,-602.9614 256.477,-602.6584 261.506,-602.6584 261.7609,-602.7488 267.8406,-602.7488 268.5161,-602.9949 268.6386,-602.9949 274.7293,-607.3506 275.4325,-666.5588 281.9585,-670.0889 300.442,-682.9064 301.7984,-684.0418 313.4529,-694.7167 320.5468,-701.7423 319.7509,-603.1616 320.322,-602.9587 325.4501,-602.9587 325.4501,-602.9587 320.322,-602.9587 319.7509,-603.1616 320.5468,-701.7423 313.4529,-694.7167 301.7984,-684.0418 300.442,-682.9064 299.376,-658.8505 299.376,-658.8505 300.442,-682.9064 281.9585,-670.0889 275.4325,-666.5588 274.7293,-607.3506 268.6386,-602.9949 268.5161,-602.9949 267.8406,-602.7488 261.7609,-602.7488 261.506,-602.6584 256.477,-602.6584 255.6432,-602.9614 249.1527,-602.9614 248.6572,-602.7793 242.7712,-602.7793 242.2375,-602.585 236.2008,-602.585 235.956,-602.4972 230.8088,-602.4972 229.8557,-602.8519 223.1014,-602.8519 223.0549,-602.8691 222.4031,-602.8691 216.7,-607.2739 153.6868,-609.5546 155.7259,-607.3031 164.1636,-598.9708 166.7856,-596.6995 169.2819,-594.0779 169.2819,-594.0779 166.7856,-596.6995 164.1636,-598.9708 155.7259,-607.3031 157.9414,-540.7496 157.6372,-540.6396 157.7094,-459.238 161.0301,-458.7401 176.377,-455.7414 180.0814,-454.6862 190.7776,-451.1513 208.4621,-444.5127 208.3331,-402.2299 207.754,-393.9159 207.6668,-366.0962 208.2497,-356.9077 208.2438,-354.9453 258.5018,-306.05 275.0748,-304.8021 276.7704,-304.8425 287.44,-304.573 290.989,-304.6592 291.7123,-304.6414 292.9626,-304.6722 296.2283,-304.5936 296.8299,-304.6087 302.4493,-304.4759 302.8703,-304.4867 304.1867,-304.5861 315.4966,-304.8845 320.9856,-304.7596 323.1424,-304.924 325.355,-304.9841 326.4589,-304.9602 327.9945,-305.0027 337.809,-304.7942 341.6251,-304.5258 342.0443,-304.5172 348.1339,-304.6917 349.9204,-304.831 351.2067,-304.7426 369.2979,-304.3935 370.7407,-304.2952 375.4478,-303.7443 380.877,-302.8424 392.3314,-300.3744 394.5831,-299.7799 405.0994,-296.4848 478.3643,-269.9818 559.5235,-370.5187 550.0457,-379.58 548.5666,-381.182 538.768,-391.3076 524.8079,-404.349 518.8635,-409.599 506.9505,-418.9429 489.8672,-430.6705 479.2892,-436.8714 479.0634,-436.9924 408.7811,-471.278 391.3095,-480.6614 380.8645,-487.2523 372.1587,-493.5761 393.5086,-533.52 420.9658,-602.89 476.7484,-707.2544 478.8409,-711.5841 373.0326,-725.0253 355.4198,-726.7512 345.574,-726.8538 332.6198,-738.6217 330.7065,-740.1459 322.4263,-746.3097 313.6581,-752.3723 311.3409,-753.8497 296.8527,-762.3319 236.2029,-791.3101 233.7905,-798.0583 229.8496,-811.7111 221.2134,-851.24 220.6019,-852.9507 217.2877,-854.7836 211.1912,-857.7924 210.3234,-858.1693 197.3405,-863.0643 196.3962,-863.3641 182.919,-866.8616 170.2681,-868.6514 167.4257,-868.8853 158.4775,-869.097 157.8799,-869.0762 156.32,-868.93 143.4828,-869.2452 136.1379,-869.8596 130.697,-870.6345 126.3477,-871.509 122.5552,-872.4955 110.8414,-876.2451 107.571,-877.4829 98.2388,-881.571 84.0776,-889.4714 68.6765,-899.8979 53.8458,-910.7794 6.9416,-941.9421 -77.6668,-850.1247 -83.1432,-827.0209 -94.4135,-785.012 -93.6566,-781.673 -73.8218,-681.4775 -70.7498,-676.3077 -88.1754,-586.4838 -104.1687,-515.4146 -99.0461,-491.9914 -96.2669,-477.3476 51.6987,-460.8837 54.0621,-460.7284 64.8999,-460.509 72.5752,-460.7041 73.654,-460.6341 74.7667,-460.6127 77.3223,-460.4478 87.2764,-460.26 90.6576,-460.0435 91.5453,-460.0676 94.0706,-460.0224 102.4429,-460.254 106.0655,-460.027 110.0058,-459.9601 113.182,-460.0508 113.182,-460.0508"/>
<polyline fill="none" stroke="#000000" points="1006.0588,-1127.5125 1033.0802,-1051.103 1045.7216,-1009.5003 1047.734,-1003.7287 1080.1494,-921.4493 1079.9646,-921.3419 1073.7542,-912.777 1058.1555,-892.198 1050.3412,-882.8719 1043.677,-875.7166 1039.506,-870.8785 1034.4745,-865.3741 1023.4354,-854.0151 1015.1844,-846.0861 1009.345,-840.878 1006.2991,-837.8492 999.7725,-832.3403 985.8606,-822.5485 976.2289,-816.4772 971.5452,-813.8793 964.9551,-810.7122 960.3643,-808.8452 953.4561,-806.5393 942.8535,-803.7766 942.2349,-803.6616 930.9323,-802.3832 923.5464,-802.093 918.2251,-801.4904 903.6155,-798.7463 900.5365,-797.7191 886.2965,-791.8818 874.8986,-785.5193 866.9585,-780.5072 862.2488,-777.1959 846.0307,-763.3279 833.0823,-750.3474 831.4252,-748.5684 831.3048,-748.43 826.5926,-743.9238 809.0196,-726.0031 799.5837,-715.8387 771.5219,-720.1928 755.9371,-723.3912 744.2705,-726.0754 738.5859,-727.5232 726.875,-731.3815 711.6866,-736.7654 689.8245,-746.1475 680.9498,-750.6139 676.3331,-753.0527 668.0132,-750.2988 654.9826,-746.5502 646.4568,-744.4669 628.2623,-740.8037 620.7962,-739.624 580.6392,-734.1464 562.8646,-731.3266 548.5822,-728.4305 529.4896,-723.2906 526.6382,-722.4604 510.5292,-717.0549 503.0266,-714.3727 515.9605,-681.3474 518.0679,-676.3265 530.214,-651.0148 537.6241,-636.7202 552.3452,-612.6688 565.861,-594.6893 568.3521,-591.7831 574.8442,-585.1707 579.9644,-580.713 585.8698,-574.1972 607.9196,-541.7308 623.1759,-525.5573 623.8773,-524.6924 625.0284,-523.038 636.959,-509.0847 637.6949,-508.1227 645.7407,-496.3508 656.6676,-478.7128 662.9622,-466.6968 672.7075,-446.5577 688.9217,-410.643 694.9623,-394.7195 694.9926,-394.635 689.3917,-392.4508 675.067,-387.4907 671.9479,-386.5472 657.105,-382.3778 646.3015,-379.814 625.6024,-375.8008 604.2083,-373.5144 588.3641,-372.5112 585.3346,-372.3854 562.913,-370.9587 559.5235,-370.5187 550.0457,-379.58 548.5666,-381.182 538.768,-391.3076 524.8079,-404.349 518.8635,-409.599 506.9505,-418.9429 489.8672,-430.6705 479.2892,-436.8714 479.0634,-436.9924 408.7811,-471.278 391.3095,-480.6614 380.8645,-487.2523 372.1587,-493.5761 393.5086,-533.52 420.9658,-602.89 476.7484,-707.2544 478.8409,-711.5841 373.0326,-725.0253 355.4198,-726.7512 345.574,-726.8538 332.6198,-738.6217 330.7065,-740.1459 322.4263,-746.3097 313.6581,-752.3723 311.3409,-753.8497 296.8527,-762.3319 236.2029,-791.3101 233.7905,-798.0583 229.8496,-811.7111 221.2134,-851.24 220.6019,-852.9507 217.2877,-854.7836 211.1912,-857.7924 210.3234,-858.1693 197.3405,-863.0643 196.3962,-863.3641 182.919,-866.8616 170.2681,-868.6514 167.4257,-868.8853 158.4775,-869.097 157.8799,-869.0762 156.32,-868.93 143.4828,-869.2452 136.1379,-869.8596 130.697,-870.6345 126.3477,-871.509 122.5552,-872.4955 110.8414,-876.2451 107.571,-877.4829 98.2388,-881.571 84.0776,-889.4714 68.6765,-899.8979 53.8458,-910.7794 6.9416,-941.9421 11.6285,-962.7739 24.5817,-1030.5325 42.2497,-1083.9543 81.6608,-1097.2909 154.5249,-1160.9827 188.1131,-1170.7357 242.9127,-1176.0128 258.9697,-1178.3036 272.7235,-1180.9025 280.5244,-1182.7372 282.7769,-1183.3192 296.1898,-1183.4978 307.1949,-1184.3629 319.3099,-1185.579 319.8705,-1185.6473 421.7583,-1244.5682 433.5527,-1251.7086 439.3039,-1248.7147 448.9234,-1244.1768 472.9319,-1234.0121 475.0916,-1233.2574 493.7386,-1227.1891 501.5942,-1225.0171 514.6392,-1222.0425 517.1874,-1221.5236 536.8855,-1217.9899 538.5798,-1217.7277 545.783,-1216.9641 560.0122,-1215.8015 560.6148,-1215.7671 615.5579,-1215.2916 665.7626,-1245.527 725.4876,-1252.6293 733.8384,-1254.0175 747.993,-1257.0431 751.4451,-1257.8623 759.8884,-1260.269 762.5729,-1261.0985 782.3569,-1267.6893 792.691,-1271.8709 801.215,-1271.0491 811.7729,-1270.4673 817.4274,-1270.3889 825.9177,-1267.8274 834.8029,-1265.5479 837.121,-1265.0054 844.88,-1261.5958 985.6171,-1203.3798 995.5094,-1194.5068 993.1716,-1160.2241 1006.0588,-1127.5125 "/>
<polyline fill="none" stroke="#000000" points="711.6866,-736.7654 726.875,-731.3815 738.5859,-727.5232 744.2705,-726.0754 755.9371,-723.3912 771.5219,-720.1928 799.5837,-715.8387 809.0196,-726.0031 826.5926,-743.9238 831.3048,-748.43 831.4252,-748.5684 833.0823,-750.3474 846.0307,-763.3279 862.2488,-777.1959 866.9585,-780.5072 874.8986,-785.5193 886.2965,-791.8818 900.5365,-797.7191 903.6155,-798.7463 918.2251,-801.4904 923.5464,-802.093 930.9323,-802.3832 942.2349,-803.6616 942.8535,-803.7766 953.4561,-806.5393 960.3643,-808.8452 964.9551,-810.7122 971.5452,-813.8793 976.2289,-816.4772 985.8606,-822.5485 999.7725,-832.3403 1006.2991,-837.8492 1009.345,-840.878 1015.1844,-846.0861 1023.4354,-854.0151 1034.4745,-865.3741 1039.506,-870.8785 1043.677,-875.7166 1050.3412,-882.8719 1058.1555,-892.198 1073.7542,-912.777 1079.9646,-921.3419 1080.1494,-921.4493 1047.734,-1003.7287 1045.7216,-1009.5003 1033.0802,-1051.103 1006.0588,-1127.5125 993.1716,-1160.2241 995.5094,-1194.5068 1124.3998,-1232.0161 1143.8566,-1236.1392 1150.3411,-1237.8486 1158.6455,-1240.2543 1162.1664,-1239.8331 1170.5706,-1239.2327 1187.5448,-1238.8365 1200.9073,-1238.847 1220.6281,-1239.8125 1285.4277,-1217.8008 1345.9308,-1117.2459 1346.8125,-1114.7003 1362.6855,-1073.1814 1361.1643,-1069.6359 1351.5029,-1055.0769 1284.3552,-946.822 1207.9813,-888.8955 1230.1869,-798.8252 1253.9535,-764.1676 1291.3986,-658.4564 1293.2407,-653.7094 1331.9873,-561.9483 1360.2521,-540.3354 1364.2501,-521.71 1374.3217,-463.1518 1356.2236,-431.15 1293.6205,-307.4774 1245.6179,-270.6012 1240.5771,-259.0889 1196.2054,-149.9137 1176.2705,-123.9096 1136.6051,-96.4577 1135.1652,-96.3311 1090.7029,-141.8328 1065.0751,-169.9723 1053.3756,-181.2561 1047.2621,-186.7365 1046.6694,-187.2278 1038.6041,-193.3978 1034.9338,-196.5667 1026.6635,-203.0944 1020.4888,-207.5027 1017.7999,-209.2212 954.1884,-245.2981 951.4482,-247.0412 949.1365,-248.6765 939.9048,-255.8958 929.9308,-264.4195 928.473,-265.767 926.508,-267.3958 918.4438,-274.6079 913.5512,-279.6349 907.894,-279.6447 907.6504,-279.6531 898.7723,-279.6486 896.9276,-279.5827 893.1496,-279.6968 886.903,-279.6657 883.9329,-279.8469 867.7622,-280.2631 864.9064,-280.5242 851.0818,-282.2441 847.5532,-282.9148 834.5323,-285.8224 796.774,-295.4921 748.7108,-350.0871 713.3927,-387.5748 707.1291,-394.4926 707.0821,-394.4949 694.9926,-394.635 694.9623,-394.7195 688.9217,-410.643 672.7075,-446.5577 662.9622,-466.6968 656.6676,-478.7128 645.7407,-496.3508 637.6949,-508.1227 636.959,-509.0847 625.0284,-523.038 623.8773,-524.6924 623.1759,-525.5573 607.9196,-541.7308 585.8698,-574.1972 579.9644,-580.713 574.8442,-585.1707 568.3521,-591.7831 565.861,-594.6893 552.3452,-612.6688 537.6241,-636.7202 530.214,-651.0148 518.0679,-676.3265 515.9605,-681.3474 503.0266,-714.3727 510.5292,-717.0549 526.6382,-722.4604 529.4896,-723.2906 548.5822,-728.4305 562.8646,-731.3266 580.6392,-734.1464 620.7962,-739.624 628.2623,-740.8037 646.4568,-744.4669 654.9826,-746.5502 668.0132,-750.2988 676.3331,-753.0527 680.9498,-750.6139 689.8245,-746.1475 711.6866,-736.7654 "/>
<polyline fill="none" stroke="#000000" points="1632.6498,-665.5843 1636.9287,-665.2568 1642.5328,-664.9628 1643.2742,-664.9417 1645.5468,-664.9315 1650.9543,-665.037 1666.7562,-665.7252 1679.3608,-666.8798 1724.1854,-672.0602 1804.2587,-629.5447 1884.1495,-557.6137 1903.2994,-541.123 1944.7322,-595.36 2026.428,-714.3884 2057.5874,-732.4438 2108.5166,-750.0406 2130.302,-746.9053 2137.8098,-746.185 2142.0127,-745.8823 2196.9033,-743.2424 2276.4102,-689.6368 2297.8831,-595.36 2307.5122,-562.3906 2337.0303,-537.8522 2348.8931,-519.0574 2393.2803,-439.9619 2386.6157,-425.6371 2377.6479,-404.8607 2335.1519,-297.7926 2282.7715,-272.1849 2228.4785,-260.7643 2207.4312,-255.8371 2206.8701,-255.6797 2191.303,-250.5658 2184.4277,-253.7195 2169.4602,-259.8171 2091.6067,-287.5236 1976.3104,-367.6952 1973.788,-372.8456 1954.9574,-415.08 1938.4252,-448.2882 1913.9088,-470.3638 1723.0558,-367.6854 1671.9164,-366.1677 1670.2064,-366.0792 1651.8981,-364.3225 1635.3442,-361.6358 1621.1398,-358.7019 1611.2832,-356.2308 1603.1427,-353.8283 1590.7731,-358.2404 1589.4434,-358.6529 1585.6998,-360.5688 1374.3217,-463.1518 1364.2501,-521.71 1360.2521,-540.3354 1542.8176,-683.0063 1587.4443,-672.0895 1589.6101,-671.6118 1593.7708,-670.7936 1608.0978,-668.3179 1618.97,-666.9617 1632.6498,-665.5843 "/>
<polyline fill="none" stroke="#000000" points="280.6197,58.3867 287.7823,58.721 292.2189,59.0303 406.6731,120.552 410.1806,121.255 417.438,123.0158 420.1624,123.7344 443.194,130.3011 480.3148,141.6544 484.8302,139.9827 510.7154,7.0199 517.1876,-38.9945 519.5596,-40.8992 521.591,-42.7359 523.3121,-44.1653 528.8815,-48.4017 544.2247,-58.0089 552.412,-62.5517 555.0886,-63.8439 561.3266,-66.421 600.826,-79.9897 606.308,-82.2637 613.5637,-85.7956 624.0075,-91.6282 627.9797,-94.1208 632.4259,-97.2247 634.6586,-98.9445 645.5116,-108.1293 652.6078,-114.6516 645.402,-122.1906 643.0582,-124.4477 641.8397,-125.5249 635.4022,-131.9293 633.8356,-133.702 624.9116,-142.8665 624.7574,-143.0081 611.4309,-153.9482 603.9694,-158.5343 593.3268,-164.0121 564.622,-175.7694 555.8241,-180.286 544.597,-187.1867 538.4871,-192.1499 527.4512,-202.2662 524.6844,-204.4673 521.4284,-207.3268 514.9813,-214.148 508.4937,-221.626 496.9709,-233.5415 481.105,-253.6975 477.4504,-258.6186 478.3643,-269.9818 405.0994,-296.4848 394.5831,-299.7799 392.3314,-300.3744 380.877,-302.8424 375.4478,-303.7443 370.7407,-304.2952 369.2979,-304.3935 351.2067,-304.7426 349.9204,-304.831 348.1339,-304.6917 342.0443,-304.5172 341.6251,-304.5258 337.809,-304.7942 327.9945,-305.0027 326.4589,-304.9602 325.355,-304.9841 323.1424,-304.924 320.9856,-304.7596 315.4966,-304.8845 304.1867,-304.5861 302.8703,-304.4867 302.4493,-304.4759 296.8299,-304.6087 296.2283,-304.5936 292.9626,-304.6722 291.7123,-304.6414 290.989,-304.6592 287.44,-304.573 276.7704,-304.8425 275.0748,-304.8021 258.5018,-306.05 208.2438,-354.9453 208.2497,-356.9077 207.6668,-366.0962 207.754,-393.9159 208.3331,-402.2299 208.4621,-444.5127 190.7776,-451.1513 180.0814,-454.6862 176.377,-455.7414 161.0301,-458.7401 157.7094,-459.238 150.066,-460.0396 137.3662,-460.2269 131.9994,-460.5514 130.3612,-460.5024 124.268,-460.5976 121.4394,-460.5143 119.78,-460.541 113.182,-460.0508 110.0058,-459.9601 106.0655,-460.027 102.4429,-460.254 94.0706,-460.0224 91.5453,-460.0676 90.6576,-460.0435 87.2764,-460.26 77.3223,-460.4478 74.7667,-460.6127 73.654,-460.6341 72.5752,-460.7041 64.8999,-460.509 54.0621,-460.7284 51.6987,-460.8837 -96.2669,-477.3476 -117.7421,-393.1288 -117.6466,-392.7248 -112.409,-367.5349 -109.6274,-351.9836 -100.1768,-326.153 -4.0664,-238.0215 6.2794,-232.9283 76.6711,-129.5216 76.5939,-125.9457 73.888,-72.9763 72.2276,-52.2601 78.3272,-25.935 140.8926,36.6573 234.3755,56.8754 244.2207,59.4887 249.3967,59.0147 254.3848,58.6729 267.1162,58.0938 268.2487,58.0945 280.6197,58.3867 "/>
<polyline fill="none" stroke="#000000" points="812.6844,89.3793 729.0546,131.8103 702.4055,130.0317 700.2593,129.9396 690.901,129.9834 672.0972,130.5198 665.6598,131.1634 664.6808,131.1606 648.8049,131.4905 646.1272,131.6093 624.3954,133.6022 620.943,134.1629 603.9057,137.3358 596.7538,138.836 559.6297,147.4946 484.8302,139.9827 510.7154,7.0199 517.1876,-38.9945 519.5596,-40.8992 521.591,-42.7359 523.3121,-44.1653 528.8815,-48.4017 544.2247,-58.0089 552.412,-62.5517 555.0886,-63.8439 561.3266,-66.421 600.826,-79.9897 606.308,-82.2637 613.5637,-85.7956 624.0075,-91.6282 627.9797,-94.1208 632.4259,-97.2247 634.6586,-98.9445 645.5116,-108.1293 652.6078,-114.6516 645.402,-122.1906 643.0582,-124.4477 641.8397,-125.5249 635.4022,-131.9293 633.8356,-133.702 624.9116,-142.8665 624.7574,-143.0081 611.4309,-153.9482 603.9694,-158.5343 593.3268,-164.0121 564.622,-175.7694 555.8241,-180.286 544.597,-187.1867 538.4871,-192.1499 527.4512,-202.2662 524.6844,-204.4673 521.4284,-207.3268 514.9813,-214.148 508.4937,-221.626 496.9709,-233.5415 481.105,-253.6975 477.4504,-258.6186 478.3643,-269.9818 559.5235,-370.5187 562.913,-370.9587 585.3346,-372.3854 588.3641,-372.5112 604.2083,-373.5144 625.6024,-375.8008 646.3015,-379.814 657.105,-382.3778 671.9479,-386.5472 675.067,-387.4907 689.3917,-392.4508 694.9926,-394.635 707.0821,-394.4949 707.1291,-394.4926 713.3927,-387.5748 748.7108,-350.0871 796.774,-295.4921 834.5323,-285.8224 847.5532,-282.9148 851.0818,-282.2441 864.9064,-280.5242 867.7622,-280.2631 883.9329,-279.8469 886.903,-279.6657 893.1496,-279.6968 896.9276,-279.5827 898.7723,-279.6486 907.6504,-279.6531 907.894,-279.6447 913.5512,-279.6349 918.4438,-274.6079 926.508,-267.3958 928.473,-265.767 929.9308,-264.4195 939.9048,-255.8958 949.1365,-248.6765 951.4482,-247.0412 954.1884,-245.2981 1017.7999,-209.2212 1020.4888,-207.5027 1026.6635,-203.0944 1034.9338,-196.5667 1038.6041,-193.3978 1046.6694,-187.2278 1047.2621,-186.7365 1053.3756,-181.2561 1065.0751,-169.9723 1090.7029,-141.8328 1135.1652,-96.3311 1007.5613,-24.541 953.5161,67.6502 947.6132,73.6742 894.9468,94.0004 856.6529,89.6516 847.1015,89.0181 827.049,88.6348 812.6844,89.3793 "/>
<polyline fill="none" stroke="#000000" points="337.809,-304.7942 327.9945,-305.0027 326.4589,-304.9602 325.355,-304.9841 323.1424,-304.924 320.9856,-304.7596 315.4966,-304.8845 304.1867,-304.5861 302.8703,-304.4867 302.4493,-304.4759 296.8299,-304.6087 296.2283,-304.5936 292.9626,-304.6722 291.7123,-304.6414 290.989,-304.6592 287.44,-304.573 276.7704,-304.8425 275.0748,-304.8021 258.5018,-306.05 208.2438,-354.9453 208.2497,-356.9077 207.6668,-366.0962 207.754,-393.9159 208.3331,-402.2299 208.4621,-444.5127 190.7776,-451.1513 180.0814,-454.6862 176.377,-455.7414 161.0301,-458.7401 157.7094,-459.238 150.066,-460.0396 137.3662,-460.2269 131.9994,-460.5514 130.3612,-460.5024 124.268,-460.5976 121.4394,-460.5143 119.78,-460.541 113.182,-460.0508 110.0058,-459.9601 106.0655,-460.027 102.4429,-460.254 94.0706,-460.0224 91.5453,-460.0676 90.6576,-460.0435 87.2764,-460.26 77.3223,-460.4478 74.7667,-460.6127 73.654,-460.6341 72.5752,-460.7041 64.8999,-460.509 54.0621,-460.7284 51.6987,-460.8837 -96.2669,-477.3476 -99.0461,-491.9914 -104.1687,-515.4146 -88.1754,-586.4838 -70.7498,-676.3077 -73.8218,-681.4775 -93.6566,-781.673 -94.4135,-785.012 -83.1432,-827.0209 -77.6668,-850.1247 6.9416,-941.9421 53.8458,-910.7794 68.6765,-899.8979 84.0776,-889.4714 98.2388,-881.571 107.571,-877.4829 110.8414,-876.2451 122.5552,-872.4955 126.3477,-871.509 130.697,-870.6345 136.1379,-869.8596 143.4828,-869.2452 156.32,-868.93 157.8799,-869.0762 158.4775,-869.097 167.4257,-868.8853 170.2681,-868.6514 182.919,-866.8616 196.3962,-863.3641 197.3405,-863.0643 210.3234,-858.1693 211.1912,-857.7924 217.2877,-854.7836 220.6019,-852.9507 221.2134,-851.24 229.8496,-811.7111 233.7905,-798.0583 236.2029,-791.3101 296.8527,-762.3319 311.3409,-753.8497 313.6581,-752.3723 322.4263,-746.3097 330.7065,-740.1459 332.6198,-738.6217 345.574,-726.8538 355.4198,-726.7512 373.0326,-725.0253 478.8409,-711.5841 476.7484,-707.2544 420.9658,-602.89 393.5086,-533.52 372.1587,-493.5761 380.8645,-487.2523 391.3095,-480.6614 408.7811,-471.278 479.0634,-436.9924 479.2892,-436.8714 489.8672,-430.6705 506.9505,-418.9429 518.8635,-409.599 524.8079,-404.349 538.768,-391.3076 548.5666,-381.182 550.0457,-379.58 559.5235,-370.5187 478.3643,-269.9818 405.0994,-296.4848 394.5831,-299.7799 392.3314,-300.3744 380.877,-302.8424 375.4478,-303.7443 370.7407,-304.2952 369.2979,-304.3935 351.2067,-304.7426 349.9204,-304.831 348.1339,-304.6917 342.0443,-304.5172 341.6251,-304.5258 337.809,-304.7942 "/>
<!-- apache&#45;commons&#45;codec&#45;&gt;java&#45;1.8.0&#45;openjdk&#45;headless -->
<g id="edge1" class="edge">
<title>apache&#45;commons&#45;codec&#45;&gt;java&#45;1.8.0&#45;openjdk&#45;headless</title>
<path fill="none" stroke="#444444" stroke-opacity="0.333333" d="M867.9904,-988.4387C839.7822,-921.2923 741.2604,-686.7728 707.1279,-605.5245"/>
<polygon fill="#444444" fill-opacity="0.333333" stroke="#444444" stroke-opacity="0.333333" points="710.2123,-603.8297 703.1123,-595.9658 703.7586,-606.5409 710.2123,-603.8297"/>
</g>
<!-- apache&#45;commons&#45;codec&#45;&gt;javapackages&#45;tools -->
<g id="edge2" class="edge">
<title>apache&#45;commons&#45;codec&#45;&gt;javapackages&#45;tools</title>
<path fill="none" stroke="#444444" stroke-opacity="0.333333" d="M862.1191,-988.3446C808.2727,-915.5357 608.7104,-645.6957 545.2555,-559.8945"/>
<polygon fill="#444444" fill-opacity="0.333333" stroke="#444444" stroke-opacity="0.333333" points="547.9709,-557.68 539.2107,-551.721 542.3428,-561.8423 547.9709,-557.68"/>
</g>
<!-- java&#45;1.8.0&#45;openjdk&#45;headless&#45;&gt;javapackages&#45;tools -->
<g id="edge3" class="edge">
<title>java&#45;1.8.0&#45;openjdk&#45;headless&#45;&gt;javapackages&#45;tools</title>
<path fill="none" stroke="#444444" stroke-opacity="0.333333" d="M650.1135,-559.4981C644.3104,-557.7725 638.1893,-556.0185 631.9009,-554.2752"/>
<polygon fill="#444444" fill-opacity="0.333333" stroke="#444444" stroke-opacity="0.333333" points="632.4717,-550.8031 621.9032,-551.5502 630.6308,-557.5567 632.4717,-550.8031"/>
</g>
<!-- java&#45;1.8.0&#45;openjdk&#45;headless&#45;&gt;copy&#45;jdk&#45;configs -->
<g id="edge4" class="edge">
<title>java&#45;1.8.0&#45;openjdk&#45;headless&#45;&gt;copy&#45;jdk&#45;configs</title>
<path fill="none" stroke="#444444" stroke-opacity="0.333333" d="M850.9954,-568.2748C1041.4306,-556.912 1358.8651,-537.9715 1524.0775,-528.1137"/>
<polygon fill="#444444" fill-opacity="0.333333" stroke="#444444" stroke-opacity="0.333333" points="1524.4782,-531.5961 1534.252,-527.5066 1524.0612,-524.6085 1524.4782,-531.5961"/>
</g>
<!-- java&#45;1.8.0&#45;openjdk&#45;headless&#45;&gt;tzdata&#45;java -->
<g id="edge5" class="edge">
<title>java&#45;1.8.0&#45;openjdk&#45;headless&#45;&gt;tzdata&#45;java</title>
<path fill="none" stroke="#444444" stroke-opacity="0.333333" d="M712.2471,-595.6307C783.7136,-672.1973 1061.7077,-970.0296 1145.3565,-1059.6478"/>
<polygon fill="#444444" fill-opacity="0.333333" stroke="#444444" stroke-opacity="0.333333" points="1143.0062,-1062.2592 1152.3882,-1067.1814 1148.1234,-1057.4828 1143.0062,-1062.2592"/>
</g>
<!-- javapackages&#45;tools&#45;&gt;java&#45;1.8.0&#45;openjdk&#45;headless -->
<g id="edge6" class="edge">
<title>javapackages&#45;tools&#45;&gt;java&#45;1.8.0&#45;openjdk&#45;headless</title>
<path fill="none" stroke="#444444" stroke-opacity="0.333333" d="M571.0165,-551.5819C576.8196,-553.3075 582.9407,-555.0615 589.2291,-556.8048"/>
<polygon fill="#444444" fill-opacity="0.333333" stroke="#444444" stroke-opacity="0.333333" points="588.6583,-560.2769 599.2268,-559.5298 590.4992,-553.5233 588.6583,-560.2769"/>
</g>
<!-- copy&#45;jdk&#45;configs&#45;&gt;lua -->
<g id="edge7" class="edge">
<title>copy&#45;jdk&#45;configs&#45;&gt;lua</title>
<path fill="none" stroke="#444444" stroke-opacity="0.333333" d="M1728.5184,-535.9105C1840.8725,-552.3387 2020.3051,-578.5749 2097.6351,-589.882"/>
<polygon fill="#444444" fill-opacity="0.333333" stroke="#444444" stroke-opacity="0.333333" points="2097.4503,-593.3921 2107.8515,-591.3758 2098.4631,-586.4657 2097.4503,-593.3921"/>
</g>
<!-- copy&#45;jdk&#45;configs&#45;&gt;lua&#45;posix -->
<g id="edge8" class="edge">
<title>copy&#45;jdk&#45;configs&#45;&gt;lua&#45;posix</title>
<path fill="none" stroke="#444444" stroke-opacity="0.333333" d="M1726.8742,-503.682C1840.2874,-482.2666 2026.7124,-447.0648 2127.0393,-428.1205"/>
<polygon fill="#444444" fill-opacity="0.333333" stroke="#444444" stroke-opacity="0.333333" points="2127.888,-431.5221 2137.0649,-426.2274 2126.5891,-424.6437 2127.888,-431.5221"/>
</g>
<!-- lua&#45;posix&#45;&gt;lua -->
<g id="edge15" class="edge">
<title>lua&#45;posix&#45;&gt;lua</title>
<path fill="none" stroke="#444444" stroke-opacity="0.333333" d="M2189.9153,-433.3583C2179.2008,-465.0241 2157.1258,-530.2648 2144.5028,-567.571"/>
<polygon fill="#444444" fill-opacity="0.333333" stroke="#444444" stroke-opacity="0.333333" points="2141.1002,-566.7071 2141.2104,-577.3013 2147.7309,-568.9507 2141.1002,-566.7071"/>
</g>
<!-- apache&#45;commons&#45;io&#45;&gt;java&#45;1.8.0&#45;openjdk&#45;headless -->
<g id="edge9" class="edge">
<title>apache&#45;commons&#45;io&#45;&gt;java&#45;1.8.0&#45;openjdk&#45;headless</title>
<path fill="none" stroke="#444444" stroke-opacity="0.333333" d="M307.9767,-1009.2086C370.9375,-939.0571 598.117,-685.9314 671.9918,-603.6194"/>
<polygon fill="#444444" fill-opacity="0.333333" stroke="#444444" stroke-opacity="0.333333" points="674.7755,-605.7578 678.8501,-595.9778 669.5659,-601.0822 674.7755,-605.7578"/>
</g>
<!-- apache&#45;commons&#45;io&#45;&gt;javapackages&#45;tools -->
<g id="edge10" class="edge">
<title>apache&#45;commons&#45;io&#45;&gt;javapackages&#45;tools</title>
<path fill="none" stroke="#444444" stroke-opacity="0.333333" d="M300.2594,-1009.2368C335.6807,-934.5086 470.2934,-650.5165 512.8038,-560.8326"/>
<polygon fill="#444444" fill-opacity="0.333333" stroke="#444444" stroke-opacity="0.333333" points="516.0656,-562.1225 517.1862,-551.5871 509.7402,-559.1242 516.0656,-562.1225"/>
</g>
<!-- apache&#45;commons&#45;logging&#45;&gt;java&#45;1.8.0&#45;openjdk&#45;headless -->
<g id="edge11" class="edge">
<title>apache&#45;commons&#45;logging&#45;&gt;java&#45;1.8.0&#45;openjdk&#45;headless</title>
<path fill="none" stroke="#444444" stroke-opacity="0.333333" d="M776.923,-1086.9409C764.4117,-1008.7856 715.0989,-700.7397 699.8785,-605.6613"/>
<polygon fill="#444444" fill-opacity="0.333333" stroke="#444444" stroke-opacity="0.333333" points="703.3115,-604.9637 698.2747,-595.6427 696.3995,-606.0703 703.3115,-604.9637"/>
</g>
<!-- apache&#45;commons&#45;logging&#45;&gt;javapackages&#45;tools -->
<g id="edge12" class="edge">
<title>apache&#45;commons&#45;logging&#45;&gt;javapackages&#45;tools</title>
<path fill="none" stroke="#444444" stroke-opacity="0.333333" d="M771.8062,-1087.0497C735.0263,-1004.3093 582.4402,-661.0507 537.9662,-561.0017"/>
<polygon fill="#444444" fill-opacity="0.333333" stroke="#444444" stroke-opacity="0.333333" points="541.036,-559.2908 533.7757,-551.5746 534.6395,-562.1342 541.036,-559.2908"/>
</g>
<!-- bea&#45;stax&#45;api&#45;&gt;java&#45;1.8.0&#45;openjdk&#45;headless -->
<g id="edge13" class="edge">
<title>bea&#45;stax&#45;api&#45;&gt;java&#45;1.8.0&#45;openjdk&#45;headless</title>
<path fill="none" stroke="#444444" stroke-opacity="0.333333" d="M283.9433,-117.8049C349.6379,-191.2145 595.799,-466.2843 672.4481,-551.935"/>
<polygon fill="#444444" fill-opacity="0.333333" stroke="#444444" stroke-opacity="0.333333" points="669.8437,-554.2732 679.1205,-559.391 675.0599,-549.6051 669.8437,-554.2732"/>
</g>
<!-- bea&#45;stax&#45;api&#45;&gt;javapackages&#45;tools -->
<g id="edge14" class="edge">
<title>bea&#45;stax&#45;api&#45;&gt;javapackages&#45;tools</title>
<path fill="none" stroke="#444444" stroke-opacity="0.333333" d="M278.4596,-117.7443C318.8722,-185.691 461.7304,-425.8822 509.8182,-506.7335"/>
<polygon fill="#444444" fill-opacity="0.333333" stroke="#444444" stroke-opacity="0.333333" points="506.8245,-508.5469 514.9445,-515.3525 512.8408,-504.9686 506.8245,-508.5469"/>
</g>
<!-- glassfish&#45;fastinfoset&#45;&gt;java&#45;1.8.0&#45;openjdk&#45;headless -->
<g id="edge16" class="edge">
<title>glassfish&#45;fastinfoset&#45;&gt;java&#45;1.8.0&#45;openjdk&#45;headless</title>
<path fill="none" stroke="#444444" stroke-opacity="0.333333" d="M317.3839,-248.2728C383.8888,-306.2078 590.8115,-486.4662 666.9177,-552.7654"/>
<polygon fill="#444444" fill-opacity="0.333333" stroke="#444444" stroke-opacity="0.333333" points="664.8636,-555.6178 674.7028,-559.5473 669.4616,-550.3397 664.8636,-555.6178"/>
</g>
<!-- glassfish&#45;fastinfoset&#45;&gt;javapackages&#45;tools -->
<g id="edge17" class="edge">
<title>glassfish&#45;fastinfoset&#45;&gt;javapackages&#45;tools</title>
<path fill="none" stroke="#444444" stroke-opacity="0.333333" d="M310.1541,-248.1528C348.9252,-299.4711 459.8336,-446.2717 505.6123,-506.8653"/>
<polygon fill="#444444" fill-opacity="0.333333" stroke="#444444" stroke-opacity="0.333333" points="503.0569,-509.2892 511.8776,-515.1582 508.6421,-505.0695 503.0569,-509.2892"/>
</g>
<!-- glassfish&#45;fastinfoset&#45;&gt;xmlstreambuffer -->
<g id="edge18" class="edge">
<title>glassfish&#45;fastinfoset&#45;&gt;xmlstreambuffer</title>
<path fill="none" stroke="#444444" stroke-opacity="0.333333" d="M272.0692,-248.1639C235.7256,-275.0656 167.3515,-325.6766 126.7096,-355.76"/>
<polygon fill="#444444" fill-opacity="0.333333" stroke="#444444" stroke-opacity="0.333333" points="124.4348,-353.0893 118.4795,-361.852 128.5994,-358.7156 124.4348,-353.0893"/>
</g>
<!-- glassfish&#45;fastinfoset&#45;&gt;xsom -->
<g id="edge19" class="edge">
<title>glassfish&#45;fastinfoset&#45;&gt;xsom</title>
<path fill="none" stroke="#444444" stroke-opacity="0.333333" d="M309.0367,-211.7548C331.034,-179.6009 376.6538,-112.9173 402.0647,-75.7737"/>
<polygon fill="#444444" fill-opacity="0.333333" stroke="#444444" stroke-opacity="0.333333" points="405.0063,-77.6726 407.764,-67.4429 399.2289,-73.7201 405.0063,-77.6726"/>
</g>
<!-- xmlstreambuffer&#45;&gt;java&#45;1.8.0&#45;openjdk&#45;headless -->
<g id="edge20" class="edge">
<title>xmlstreambuffer&#45;&gt;java&#45;1.8.0&#45;openjdk&#45;headless</title>
<path fill="none" stroke="#444444" stroke-opacity="0.333333" d="M148.9282,-398.0559C260.1952,-434.606 511.6061,-517.1921 630.6082,-556.2831"/>
<polygon fill="#444444" fill-opacity="0.333333" stroke="#444444" stroke-opacity="0.333333" points="629.7316,-559.6791 640.3245,-559.4748 631.9163,-553.0287 629.7316,-559.6791"/>
</g>
<!-- xmlstreambuffer&#45;&gt;javapackages&#45;tools -->
<g id="edge21" class="edge">
<title>xmlstreambuffer&#45;&gt;javapackages&#45;tools</title>
<path fill="none" stroke="#444444" stroke-opacity="0.333333" d="M144.7633,-398.0621C224.7227,-426.4913 379.6244,-481.5658 465.2275,-512.0016"/>
<polygon fill="#444444" fill-opacity="0.333333" stroke="#444444" stroke-opacity="0.333333" points="464.2131,-515.3555 474.8078,-515.4078 466.5582,-508.7599 464.2131,-515.3555"/>
</g>
<!-- xmlstreambuffer&#45;&gt;stax&#45;ex -->
<g id="edge22" class="edge">
<title>xmlstreambuffer&#45;&gt;stax&#45;ex</title>
<path fill="none" stroke="#444444" stroke-opacity="0.333333" d="M107.2869,-361.9995C119.3886,-345.6516 137.3862,-321.339 151.0792,-302.8412"/>
<polygon fill="#444444" fill-opacity="0.333333" stroke="#444444" stroke-opacity="0.333333" points="153.8944,-304.9208 157.0311,-294.8009 148.2682,-300.7559 153.8944,-304.9208"/>
</g>
<!-- xsom&#45;&gt;java&#45;1.8.0&#45;openjdk&#45;headless -->
<g id="edge23" class="edge">
<title>xsom&#45;&gt;java&#45;1.8.0&#45;openjdk&#45;headless</title>
<path fill="none" stroke="#444444" stroke-opacity="0.333333" d="M429.624,-67.5206C470.5649,-146.0944 632.4202,-456.7275 681.3171,-550.5705"/>
<polygon fill="#444444" fill-opacity="0.333333" stroke="#444444" stroke-opacity="0.333333" points="678.221,-552.2028 685.9458,-559.4539 684.4288,-548.9682 678.221,-552.2028"/>
</g>
<!-- xsom&#45;&gt;javapackages&#45;tools -->
<g id="edge24" class="edge">
<title>xsom&#45;&gt;javapackages&#45;tools</title>
<path fill="none" stroke="#444444" stroke-opacity="0.333333" d="M424.0969,-67.4348C440.0901,-140.7645 500.1467,-416.1272 519.6159,-505.3946"/>
<polygon fill="#444444" fill-opacity="0.333333" stroke="#444444" stroke-opacity="0.333333" points="516.2327,-506.3078 521.7833,-515.3323 523.0719,-504.8161 516.2327,-506.3078"/>
</g>
<!-- xsom&#45;&gt;relaxngDatatype -->
<g id="edge25" class="edge">
<title>xsom&#45;&gt;relaxngDatatype</title>
<path fill="none" stroke="#444444" stroke-opacity="0.333333" d="M442.8166,-67.3397C456.5127,-78.2171 474.1567,-92.2298 489.1214,-104.1146"/>
<polygon fill="#444444" fill-opacity="0.333333" stroke="#444444" stroke-opacity="0.333333" points="487.1098,-106.9865 497.1173,-110.465 491.4632,-101.505 487.1098,-106.9865"/>
</g>
<!-- stax&#45;ex&#45;&gt;java&#45;1.8.0&#45;openjdk&#45;headless -->
<g id="edge26" class="edge">
<title>stax&#45;ex&#45;&gt;java&#45;1.8.0&#45;openjdk&#45;headless</title>
<path fill="none" stroke="#444444" stroke-opacity="0.333333" d="M202.114,-294.805C292.9127,-346.8536 554.1673,-496.6126 655.0023,-554.4143"/>
<polygon fill="#444444" fill-opacity="0.333333" stroke="#444444" stroke-opacity="0.333333" points="653.2685,-557.4546 663.6848,-559.3913 656.7497,-551.3816 653.2685,-557.4546"/>
</g>
<!-- stax&#45;ex&#45;&gt;javapackages&#45;tools -->
<g id="edge27" class="edge">
<title>stax&#45;ex&#45;&gt;javapackages&#45;tools</title>
<path fill="none" stroke="#444444" stroke-opacity="0.333333" d="M195.4433,-294.7219C258.1294,-340.0413 422.0932,-458.5804 492.6642,-509.6003"/>
<polygon fill="#444444" fill-opacity="0.333333" stroke="#444444" stroke-opacity="0.333333" points="490.6397,-512.4556 500.7943,-515.4781 494.7409,-506.7828 490.6397,-512.4556"/>
</g>
<!-- stax&#45;ex&#45;&gt;bea&#45;stax&#45;api -->
<g id="edge28" class="edge">
<title>stax&#45;ex&#45;&gt;bea&#45;stax&#45;api</title>
<path fill="none" stroke="#444444" stroke-opacity="0.333333" d="M180.5001,-258.3839C197.6496,-227.1667 232.6719,-163.4157 252.7216,-126.9192"/>
<polygon fill="#444444" fill-opacity="0.333333" stroke="#444444" stroke-opacity="0.333333" points="255.9671,-128.2804 257.7145,-117.8306 249.832,-124.91 255.9671,-128.2804"/>
</g>
<!-- relaxngDatatype&#45;&gt;java&#45;1.8.0&#45;openjdk&#45;headless -->
<g id="edge29" class="edge">
<title>relaxngDatatype&#45;&gt;java&#45;1.8.0&#45;openjdk&#45;headless</title>
<path fill="none" stroke="#444444" stroke-opacity="0.333333" d="M527.1307,-146.823C554.2814,-216.3319 651.7484,-465.8582 684.5327,-549.7897"/>
<polygon fill="#444444" fill-opacity="0.333333" stroke="#444444" stroke-opacity="0.333333" points="681.3025,-551.1399 688.2011,-559.1811 687.8228,-548.593 681.3025,-551.1399"/>
</g>
<!-- relaxngDatatype&#45;&gt;javapackages&#45;tools -->
<g id="edge30" class="edge">
<title>relaxngDatatype&#45;&gt;javapackages&#45;tools</title>
<path fill="none" stroke="#444444" stroke-opacity="0.333333" d="M520.2964,-146.8521C521.2022,-211.0689 524.2552,-427.5342 525.3528,-505.3573"/>
<polygon fill="#444444" fill-opacity="0.333333" stroke="#444444" stroke-opacity="0.333333" points="521.8535,-505.4384 525.4943,-515.388 528.8528,-505.3396 521.8535,-505.4384"/>
</g>
<!-- glassfish&#45;jaxb&#45;api&#45;&gt;java&#45;1.8.0&#45;openjdk&#45;headless -->
<g id="edge31" class="edge">
<title>glassfish&#45;jaxb&#45;api&#45;&gt;java&#45;1.8.0&#45;openjdk&#45;headless</title>
<path fill="none" stroke="#444444" stroke-opacity="0.333333" d="M805.9203,-80.3247C788.8765,-156.9914 722.3707,-456.1499 701.6079,-549.5457"/>
<polygon fill="#444444" fill-opacity="0.333333" stroke="#444444" stroke-opacity="0.333333" points="698.1702,-548.8814 699.4166,-559.4026 705.0033,-550.4005 698.1702,-548.8814"/>
</g>
<!-- glassfish&#45;jaxb&#45;api&#45;&gt;javapackages&#45;tools -->
<g id="edge32" class="edge">
<title>glassfish&#45;jaxb&#45;api&#45;&gt;javapackages&#45;tools</title>
<path fill="none" stroke="#444444" stroke-opacity="0.333333" d="M798.9639,-80.4721C755.3159,-152.8501 593.7886,-420.6973 541.9069,-506.7283"/>
<polygon fill="#444444" fill-opacity="0.333333" stroke="#444444" stroke-opacity="0.333333" points="538.8504,-505.0192 536.6834,-515.3901 544.8448,-508.6342 538.8504,-505.0192"/>
</g>
<!-- glassfish&#45;jaxb&#45;core&#45;&gt;java&#45;1.8.0&#45;openjdk&#45;headless -->
<g id="edge33" class="edge">
<title>glassfish&#45;jaxb&#45;core&#45;&gt;java&#45;1.8.0&#45;openjdk&#45;headless</title>
<path fill="none" stroke="#444444" stroke-opacity="0.333333" d="M650.5587,-229.4439C658.1957,-288.7586 682.4434,-477.0847 691.721,-549.1418"/>
<polygon fill="#444444" fill-opacity="0.333333" stroke="#444444" stroke-opacity="0.333333" points="688.2788,-549.8153 693.0272,-559.2865 695.2215,-548.9214 688.2788,-549.8153"/>
</g>
<!-- glassfish&#45;jaxb&#45;core&#45;&gt;javapackages&#45;tools -->
<g id="edge34" class="edge">
<title>glassfish&#45;jaxb&#45;core&#45;&gt;javapackages&#45;tools</title>
<path fill="none" stroke="#444444" stroke-opacity="0.333333" d="M641.2846,-229.5283C620.8232,-283.3659 560.6169,-441.7792 536.2079,-506.0034"/>
<polygon fill="#444444" fill-opacity="0.333333" stroke="#444444" stroke-opacity="0.333333" points="532.8904,-504.8807 532.6094,-515.4718 539.4338,-507.3676 532.8904,-504.8807"/>
</g>
<!-- glassfish&#45;jaxb&#45;core&#45;&gt;glassfish&#45;jaxb&#45;api -->
<g id="edge35" class="edge">
<title>glassfish&#45;jaxb&#45;core&#45;&gt;glassfish&#45;jaxb&#45;api</title>
<path fill="none" stroke="#444444" stroke-opacity="0.333333" d="M668.0488,-193.0107C696.7818,-166.5374 750.0966,-117.4157 782.5574,-87.5078"/>
<polygon fill="#444444" fill-opacity="0.333333" stroke="#444444" stroke-opacity="0.333333" points="784.9562,-90.0568 789.939,-80.7068 780.213,-84.9087 784.9562,-90.0568"/>
</g>
<!-- glassfish&#45;jaxb&#45;core&#45;&gt;glassfish&#45;jaxb&#45;txw2 -->
<g id="edge36" class="edge">
<title>glassfish&#45;jaxb&#45;core&#45;&gt;glassfish&#45;jaxb&#45;txw2</title>
<path fill="none" stroke="#444444" stroke-opacity="0.333333" d="M648.7252,-193.0967C649.6627,-159.3529 651.678,-86.8174 652.7982,-46.4985"/>
<polygon fill="#444444" fill-opacity="0.333333" stroke="#444444" stroke-opacity="0.333333" points="656.3031,-46.3692 653.0822,-36.2758 649.3058,-46.1747 656.3031,-46.3692"/>
</g>
<!-- glassfish&#45;jaxb&#45;core&#45;&gt;istack&#45;commons&#45;runtime -->
<g id="edge37" class="edge">
<title>glassfish&#45;jaxb&#45;core&#45;&gt;istack&#45;commons&#45;runtime</title>
<path fill="none" stroke="#444444" stroke-opacity="0.333333" d="M760.7633,-194.0105C763.7252,-193.556 766.6962,-193.1001 769.6697,-192.6438"/>
<polygon fill="#444444" fill-opacity="0.333333" stroke="#444444" stroke-opacity="0.333333" points="770.4251,-196.0689 779.7785,-191.0926 769.3634,-189.1499 770.4251,-196.0689"/>
</g>
<!-- glassfish&#45;jaxb&#45;txw2&#45;&gt;java&#45;1.8.0&#45;openjdk&#45;headless -->
<g id="edge38" class="edge">
<title>glassfish&#45;jaxb&#45;txw2&#45;&gt;java&#45;1.8.0&#45;openjdk&#45;headless</title>
<path fill="none" stroke="#444444" stroke-opacity="0.333333" d="M654.9567,-36.2994C661.058,-117.9955 685.8321,-449.7158 693.2631,-549.2148"/>
<polygon fill="#444444" fill-opacity="0.333333" stroke="#444444" stroke-opacity="0.333333" points="689.7886,-549.6887 694.0238,-559.4002 696.7692,-549.1673 689.7886,-549.6887"/>
</g>
<!-- glassfish&#45;jaxb&#45;txw2&#45;&gt;javapackages&#45;tools -->
<g id="edge39" class="edge">
<title>glassfish&#45;jaxb&#45;txw2&#45;&gt;javapackages&#45;tools</title>
<path fill="none" stroke="#444444" stroke-opacity="0.333333" d="M649.1151,-36.0454C630.0939,-112.749 555.8721,-412.0514 532.7004,-505.4922"/>
<polygon fill="#444444" fill-opacity="0.333333" stroke="#444444" stroke-opacity="0.333333" points="529.2648,-504.8054 530.2549,-515.3539 536.059,-506.4903 529.2648,-504.8054"/>
</g>
<!-- istack&#45;commons&#45;runtime&#45;&gt;java&#45;1.8.0&#45;openjdk&#45;headless -->
<g id="edge40" class="edge">
<title>istack&#45;commons&#45;runtime&#45;&gt;java&#45;1.8.0&#45;openjdk&#45;headless</title>
<path fill="none" stroke="#444444" stroke-opacity="0.333333" d="M888.289,-191.2168C856.1201,-255.6421 747.3717,-473.4349 708.9575,-550.368"/>
<polygon fill="#444444" fill-opacity="0.333333" stroke="#444444" stroke-opacity="0.333333" points="705.762,-548.933 704.426,-559.4433 712.0247,-552.0601 705.762,-548.933"/>
</g>
<!-- istack&#45;commons&#45;runtime&#45;&gt;javapackages&#45;tools -->
<g id="edge41" class="edge">
<title>istack&#45;commons&#45;runtime&#45;&gt;javapackages&#45;tools</title>
<path fill="none" stroke="#444444" stroke-opacity="0.333333" d="M878.6771,-191.1728C817.4727,-250.5425 622.8726,-439.3089 551.9403,-508.1148"/>
<polygon fill="#444444" fill-opacity="0.333333" stroke="#444444" stroke-opacity="0.333333" points="549.4325,-505.6713 544.6916,-515.1462 554.3064,-510.6958 549.4325,-505.6713"/>
</g>
<!-- glassfish&#45;jaxb&#45;runtime&#45;&gt;java&#45;1.8.0&#45;openjdk&#45;headless -->
<g id="edge42" class="edge">
<title>glassfish&#45;jaxb&#45;runtime&#45;&gt;java&#45;1.8.0&#45;openjdk&#45;headless</title>
<path fill="none" stroke="#444444" stroke-opacity="0.333333" d="M373.8154,-397.6742C438.2396,-433.7137 582.5046,-514.4166 653.8299,-554.3166"/>
<polygon fill="#444444" fill-opacity="0.333333" stroke="#444444" stroke-opacity="0.333333" points="652.5461,-557.6088 662.9821,-559.4364 655.9636,-551.4997 652.5461,-557.6088"/>
</g>
<!-- glassfish&#45;jaxb&#45;runtime&#45;&gt;javapackages&#45;tools -->
<g id="edge43" class="edge">
<title>glassfish&#45;jaxb&#45;runtime&#45;&gt;javapackages&#45;tools</title>
<path fill="none" stroke="#444444" stroke-opacity="0.333333" d="M363.333,-397.8435C396.3942,-425.4615 459.1759,-477.9067 496.2532,-508.8795"/>
<polygon fill="#444444" fill-opacity="0.333333" stroke="#444444" stroke-opacity="0.333333" points="494.2821,-511.7936 504.2006,-515.5185 498.7699,-506.4213 494.2821,-511.7936"/>
</g>
<!-- glassfish&#45;jaxb&#45;runtime&#45;&gt;glassfish&#45;fastinfoset -->
<g id="edge44" class="edge">
<title>glassfish&#45;jaxb&#45;runtime&#45;&gt;glassfish&#45;fastinfoset</title>
<path fill="none" stroke="#444444" stroke-opacity="0.333333" d="M336.0456,-361.5468C328.3137,-335.8428 314.0528,-288.4332 304.9351,-258.1219"/>
<polygon fill="#444444" fill-opacity="0.333333" stroke="#444444" stroke-opacity="0.333333" points="308.1759,-256.7451 301.9437,-248.1771 301.4726,-258.7615 308.1759,-256.7451"/>
</g>
<!-- glassfish&#45;jaxb&#45;runtime&#45;&gt;stax&#45;ex -->
<g id="edge45" class="edge">
<title>glassfish&#45;jaxb&#45;runtime&#45;&gt;stax&#45;ex</title>
<path fill="none" stroke="#444444" stroke-opacity="0.333333" d="M311.2905,-361.4169C282.9274,-344.3469 240.3308,-318.7108 209.4142,-300.104"/>
<polygon fill="#444444" fill-opacity="0.333333" stroke="#444444" stroke-opacity="0.333333" points="210.9977,-296.9721 200.6249,-294.8143 207.3881,-302.9697 210.9977,-296.9721"/>
</g>
<!-- glassfish&#45;jaxb&#45;runtime&#45;&gt;glassfish&#45;jaxb&#45;core -->
<g id="edge46" class="edge">
<title>glassfish&#45;jaxb&#45;runtime&#45;&gt;glassfish&#45;jaxb&#45;core</title>
<path fill="none" stroke="#444444" stroke-opacity="0.333333" d="M374.2976,-361.569C430.3085,-330.8383 544.2618,-268.3172 606.0727,-234.4043"/>
<polygon fill="#444444" fill-opacity="0.333333" stroke="#444444" stroke-opacity="0.333333" points="608.0812,-237.2946 615.1648,-229.4159 604.7141,-231.1576 608.0812,-237.2946"/>
</g>
<!-- httpcomponents&#45;client&#45;&gt;apache&#45;commons&#45;codec -->
<g id="edge47" class="edge">
<title>httpcomponents&#45;client&#45;&gt;apache&#45;commons&#45;codec</title>
<path fill="none" stroke="#444444" stroke-opacity="0.333333" d="M749.0101,-957.3571C770.724,-965.8024 796.775,-975.9345 819.5862,-984.8065"/>
<polygon fill="#444444" fill-opacity="0.333333" stroke="#444444" stroke-opacity="0.333333" points="818.5533,-988.1602 829.142,-988.5231 821.0908,-981.6363 818.5533,-988.1602"/>
</g>
<!-- httpcomponents&#45;client&#45;&gt;java&#45;1.8.0&#45;openjdk&#45;headless -->
<g id="edge48" class="edge">
<title>httpcomponents&#45;client&#45;&gt;java&#45;1.8.0&#45;openjdk&#45;headless</title>
<path fill="none" stroke="#444444" stroke-opacity="0.333333" d="M702.289,-920.8924C701.1011,-861.8639 697.3861,-677.249 695.9524,-606.0039"/>
<polygon fill="#444444" fill-opacity="0.333333" stroke="#444444" stroke-opacity="0.333333" points="699.4509,-605.888 695.7503,-595.9605 692.4523,-606.0289 699.4509,-605.888"/>
</g>
<!-- httpcomponents&#45;client&#45;&gt;javapackages&#45;tools -->
<g id="edge49" class="edge">
<title>httpcomponents&#45;client&#45;&gt;javapackages&#45;tools</title>
<path fill="none" stroke="#444444" stroke-opacity="0.333333" d="M694.7149,-921.1048C666.5962,-856.6041 571.6762,-638.8691 537.8486,-561.2727"/>
<polygon fill="#444444" fill-opacity="0.333333" stroke="#444444" stroke-opacity="0.333333" points="540.8779,-559.4631 533.6732,-551.695 534.4611,-562.2605 540.8779,-559.4631"/>
</g>
<!-- httpcomponents&#45;client&#45;&gt;apache&#45;commons&#45;logging -->
<g id="edge50" class="edge">
<title>httpcomponents&#45;client&#45;&gt;apache&#45;commons&#45;logging</title>
<path fill="none" stroke="#444444" stroke-opacity="0.333333" d="M711.0654,-957.3859C724.5761,-986.4083 751.2116,-1043.6243 767.075,-1077.7009"/>
<polygon fill="#444444" fill-opacity="0.333333" stroke="#444444" stroke-opacity="0.333333" points="764.0415,-1079.4777 771.4349,-1087.0664 770.3875,-1076.5235 764.0415,-1079.4777"/>
</g>
<!-- httpcomponents&#45;client&#45;&gt;httpcomponents&#45;core -->
<g id="edge51" class="edge">
<title>httpcomponents&#45;client&#45;&gt;httpcomponents&#45;core</title>
<path fill="none" stroke="#444444" stroke-opacity="0.333333" d="M738.903,-921.266C763.9647,-908.7749 797.4947,-892.0631 824.3298,-878.6881"/>
<polygon fill="#444444" fill-opacity="0.333333" stroke="#444444" stroke-opacity="0.333333" points="826.129,-881.7021 833.5177,-874.1088 823.0065,-875.4371 826.129,-881.7021"/>
</g>
<!-- httpcomponents&#45;core&#45;&gt;java&#45;1.8.0&#45;openjdk&#45;headless -->
<g id="edge52" class="edge">
<title>httpcomponents&#45;core&#45;&gt;java&#45;1.8.0&#45;openjdk&#45;headless</title>
<path fill="none" stroke="#444444" stroke-opacity="0.333333" d="M858.253,-837.8055C828.3347,-790.0007 747.6357,-661.0563 712.3188,-604.6256"/>
<polygon fill="#444444" fill-opacity="0.333333" stroke="#444444" stroke-opacity="0.333333" points="715.1311,-602.5217 706.8591,-595.9018 709.1974,-606.2354 715.1311,-602.5217"/>
</g>
<!-- httpcomponents&#45;core&#45;&gt;javapackages&#45;tools -->
<g id="edge53" class="edge">
<title>httpcomponents&#45;core&#45;&gt;javapackages&#45;tools</title>
<path fill="none" stroke="#444444" stroke-opacity="0.333333" d="M850.2128,-837.8136C792.0404,-783.2572 619.4769,-621.4206 552.6271,-558.7264"/>
<polygon fill="#444444" fill-opacity="0.333333" stroke="#444444" stroke-opacity="0.333333" points="554.702,-555.8739 545.0135,-551.5861 549.9135,-560.9798 554.702,-555.8739"/>
</g>
<!-- jackson&#45;&gt;java&#45;1.8.0&#45;openjdk&#45;headless -->
<g id="edge54" class="edge">
<title>jackson&#45;&gt;java&#45;1.8.0&#45;openjdk&#45;headless</title>
<path fill="none" stroke="#444444" stroke-opacity="0.333333" d="M962.297,-535.5133C924.3127,-541.4969 869.5962,-550.1162 819.5801,-557.9951"/>
<polygon fill="#444444" fill-opacity="0.333333" stroke="#444444" stroke-opacity="0.333333" points="818.9795,-554.5465 809.6459,-559.56 820.0688,-561.4612 818.9795,-554.5465"/>
</g>
<!-- jackson&#45;&gt;javapackages&#45;tools -->
<g id="edge55" class="edge">
<title>jackson&#45;&gt;javapackages&#45;tools</title>
<path fill="none" stroke="#444444" stroke-opacity="0.333333" d="M962.2481,-528.4774C888.4329,-529.3302 745.2938,-530.9838 643.053,-532.1649"/>
<polygon fill="#444444" fill-opacity="0.333333" stroke="#444444" stroke-opacity="0.333333" points="642.9382,-528.6659 632.9793,-532.2812 643.0191,-535.6654 642.9382,-528.6659"/>
</g>
<!-- jackson&#45;&gt;joda&#45;time -->
<g id="edge56" class="edge">
<title>jackson&#45;&gt;joda&#45;time</title>
<path fill="none" stroke="#444444" stroke-opacity="0.333333" d="M1024.6296,-546.009C1041.6729,-567.8281 1070.4614,-604.6838 1089.9833,-629.6761"/>
<polygon fill="#444444" fill-opacity="0.333333" stroke="#444444" stroke-opacity="0.333333" points="1087.3041,-631.9319 1096.2182,-637.6581 1092.8206,-627.6228 1087.3041,-631.9319"/>
</g>
<!-- jackson&#45;&gt;jsr&#45;311 -->
<g id="edge57" class="edge">
<title>jackson&#45;&gt;jsr&#45;311</title>
<path fill="none" stroke="#444444" stroke-opacity="0.333333" d="M997.1978,-509.7278C979.2102,-485.1277 947.0133,-441.0948 926.3836,-412.8814"/>
<polygon fill="#444444" fill-opacity="0.333333" stroke="#444444" stroke-opacity="0.333333" points="929.1089,-410.6788 920.3811,-404.6724 923.4583,-414.8106 929.1089,-410.6788"/>
</g>
<!-- jackson&#45;&gt;objectweb&#45;asm3 -->
<g id="edge58" class="edge">
<title>jackson&#45;&gt;objectweb&#45;asm3</title>
<path fill="none" stroke="#444444" stroke-opacity="0.333333" d="M1030.7575,-509.7183C1047.6057,-494.58 1071.7585,-472.8784 1090.4126,-456.1174"/>
<polygon fill="#444444" fill-opacity="0.333333" stroke="#444444" stroke-opacity="0.333333" points="1092.9341,-458.5571 1098.0333,-449.2701 1088.2556,-453.3502 1092.9341,-458.5571"/>
</g>
<!-- jackson&#45;&gt;stax2&#45;api -->
<g id="edge59" class="edge">
<title>jackson&#45;&gt;stax2&#45;api</title>
<path fill="none" stroke="#444444" stroke-opacity="0.333333" d="M1012.8089,-509.7126C1018.2301,-466.9628 1031.8049,-359.9169 1038.3119,-308.6044"/>
<polygon fill="#444444" fill-opacity="0.333333" stroke="#444444" stroke-opacity="0.333333" points="1041.8018,-308.9049 1039.5877,-298.544 1034.8574,-308.0242 1041.8018,-308.9049"/>
</g>
<!-- joda&#45;time&#45;&gt;java&#45;1.8.0&#45;openjdk&#45;headless -->
<g id="edge60" class="edge">
<title>joda&#45;time&#45;&gt;java&#45;1.8.0&#45;openjdk&#45;headless</title>
<path fill="none" stroke="#444444" stroke-opacity="0.333333" d="M1051.5501,-644.9048C986.3847,-632.5833 880.2118,-612.5081 800.7117,-597.4762"/>
<polygon fill="#444444" fill-opacity="0.333333" stroke="#444444" stroke-opacity="0.333333" points="801.1389,-593.995 790.6627,-595.5761 799.8384,-600.8731 801.1389,-593.995"/>
</g>
<!-- joda&#45;time&#45;&gt;javapackages&#45;tools -->
<g id="edge61" class="edge">
<title>joda&#45;time&#45;&gt;javapackages&#45;tools</title>
<path fill="none" stroke="#444444" stroke-opacity="0.333333" d="M1051.574,-643.7016C950.5804,-622.5393 743.746,-579.1991 621.7485,-553.6356"/>
<polygon fill="#444444" fill-opacity="0.333333" stroke="#444444" stroke-opacity="0.333333" points="622.1702,-550.148 611.6649,-551.5227 620.7345,-556.9992 622.1702,-550.148"/>
</g>
<!-- jsr&#45;311&#45;&gt;java&#45;1.8.0&#45;openjdk&#45;headless -->
<g id="edge62" class="edge">
<title>jsr&#45;311&#45;&gt;java&#45;1.8.0&#45;openjdk&#45;headless</title>
<path fill="none" stroke="#444444" stroke-opacity="0.333333" d="M886.8265,-404.8648C848.724,-439.2354 766.4573,-513.4444 723.2214,-552.4455"/>
<polygon fill="#444444" fill-opacity="0.333333" stroke="#444444" stroke-opacity="0.333333" points="720.7031,-550.0036 715.622,-559.3006 725.3917,-555.2014 720.7031,-550.0036"/>
</g>
<!-- jsr&#45;311&#45;&gt;javapackages&#45;tools -->
<g id="edge63" class="edge">
<title>jsr&#45;311&#45;&gt;javapackages&#45;tools</title>
<path fill="none" stroke="#444444" stroke-opacity="0.333333" d="M860.3653,-404.5714C790.0751,-431.6587 657.4087,-482.7835 581.9562,-511.8602"/>
<polygon fill="#444444" fill-opacity="0.333333" stroke="#444444" stroke-opacity="0.333333" points="580.6708,-508.6046 572.5982,-515.4664 583.1879,-515.1363 580.6708,-508.6046"/>
</g>
<!-- objectweb&#45;asm3&#45;&gt;java&#45;1.8.0&#45;openjdk&#45;headless -->
<g id="edge64" class="edge">
<title>objectweb&#45;asm3&#45;&gt;java&#45;1.8.0&#45;openjdk&#45;headless</title>
<path fill="none" stroke="#444444" stroke-opacity="0.333333" d="M1065.9299,-449.2496C987.7175,-476.3322 840.5304,-527.2987 757.129,-556.1781"/>
<polygon fill="#444444" fill-opacity="0.333333" stroke="#444444" stroke-opacity="0.333333" points="755.835,-552.9223 747.5307,-559.5018 758.1255,-559.5369 755.835,-552.9223"/>
</g>
<!-- objectweb&#45;asm3&#45;&gt;javapackages&#45;tools -->
<g id="edge65" class="edge">
<title>objectweb&#45;asm3&#45;&gt;javapackages&#45;tools</title>
<path fill="none" stroke="#444444" stroke-opacity="0.333333" d="M1032.0527,-446.0355C928.5224,-463.9246 754.4571,-494.0015 639.842,-513.8059"/>
<polygon fill="#444444" fill-opacity="0.333333" stroke="#444444" stroke-opacity="0.333333" points="639.2331,-510.3592 629.9751,-515.5109 640.425,-517.257 639.2331,-510.3592"/>
</g>
<!-- stax2&#45;api&#45;&gt;java&#45;1.8.0&#45;openjdk&#45;headless -->
<g id="edge66" class="edge">
<title>stax2&#45;api&#45;&gt;java&#45;1.8.0&#45;openjdk&#45;headless</title>
<path fill="none" stroke="#444444" stroke-opacity="0.333333" d="M1020.7452,-298.4569C961.2989,-349.4508 792.6597,-494.112 724.4984,-552.5818"/>
<polygon fill="#444444" fill-opacity="0.333333" stroke="#444444" stroke-opacity="0.333333" points="722.0094,-550.1055 716.6982,-559.2729 726.5671,-555.4186 722.0094,-550.1055"/>
</g>
<!-- stax2&#45;api&#45;&gt;javapackages&#45;tools -->
<g id="edge67" class="edge">
<title>stax2&#45;api&#45;&gt;javapackages&#45;tools</title>
<path fill="none" stroke="#444444" stroke-opacity="0.333333" d="M1005.1935,-298.3172C913.1781,-343.4577 672.8289,-461.3668 571.6727,-510.9915"/>
<polygon fill="#444444" fill-opacity="0.333333" stroke="#444444" stroke-opacity="0.333333" points="570.051,-507.8885 562.6146,-515.4352 573.134,-514.173 570.051,-507.8885"/>
</g>
<!-- jboss&#45;annotations&#45;1.2&#45;api&#45;&gt;java&#45;1.8.0&#45;openjdk&#45;headless -->
<g id="edge68" class="edge">
<title>jboss&#45;annotations&#45;1.2&#45;api&#45;&gt;java&#45;1.8.0&#45;openjdk&#45;headless</title>
<path fill="none" stroke="#444444" stroke-opacity="0.333333" d="M505.2975,-1053.2383C535.1265,-978.5918 648.4018,-695.1222 684.3575,-605.1436"/>
<polygon fill="#444444" fill-opacity="0.333333" stroke="#444444" stroke-opacity="0.333333" points="687.7003,-606.2104 688.1609,-595.6256 681.2,-603.6129 687.7003,-606.2104"/>
</g>
<!-- jboss&#45;annotations&#45;1.2&#45;api&#45;&gt;javapackages&#45;tools -->
<g id="edge69" class="edge">
<title>jboss&#45;annotations&#45;1.2&#45;api&#45;&gt;javapackages&#45;tools</title>
<path fill="none" stroke="#444444" stroke-opacity="0.333333" d="M498.9778,-1053.1956C503.0606,-973.9454 519.3028,-658.6669 524.2876,-561.9074"/>
<polygon fill="#444444" fill-opacity="0.333333" stroke="#444444" stroke-opacity="0.333333" points="527.7932,-561.8868 524.8124,-551.7199 520.8024,-561.5266 527.7932,-561.8868"/>
</g>
<!-- jboss&#45;jaxrs&#45;2.0&#45;api&#45;&gt;java&#45;1.8.0&#45;openjdk&#45;headless -->
<g id="edge70" class="edge">
<title>jboss&#45;jaxrs&#45;2.0&#45;api&#45;&gt;java&#45;1.8.0&#45;openjdk&#45;headless</title>
<path fill="none" stroke="#444444" stroke-opacity="0.333333" d="M530.7618,-876.8153C560.2121,-823.2784 645.778,-667.7302 680.4889,-604.6302"/>
<polygon fill="#444444" fill-opacity="0.333333" stroke="#444444" stroke-opacity="0.333333" points="683.6647,-606.1185 685.418,-595.6697 677.5315,-602.7446 683.6647,-606.1185"/>
</g>
<!-- jboss&#45;jaxrs&#45;2.0&#45;api&#45;&gt;javapackages&#45;tools -->
<g id="edge71" class="edge">
<title>jboss&#45;jaxrs&#45;2.0&#45;api&#45;&gt;javapackages&#45;tools</title>
<path fill="none" stroke="#444444" stroke-opacity="0.333333" d="M520.872,-876.8334C521.7106,-817.8082 524.3336,-633.2035 525.3459,-561.9623"/>
<polygon fill="#444444" fill-opacity="0.333333" stroke="#444444" stroke-opacity="0.333333" points="528.846,-561.9682 525.4886,-551.9195 521.8467,-561.8687 528.846,-561.9682"/>
</g>
<!-- jboss&#45;logging&#45;&gt;java&#45;1.8.0&#45;openjdk&#45;headless -->
<g id="edge72" class="edge">
<title>jboss&#45;logging&#45;&gt;java&#45;1.8.0&#45;openjdk&#45;headless</title>
<path fill="none" stroke="#444444" stroke-opacity="0.333333" d="M260.6257,-689.6471C353.6348,-665.6678 517.6819,-623.3736 615.4823,-598.159"/>
<polygon fill="#444444" fill-opacity="0.333333" stroke="#444444" stroke-opacity="0.333333" points="616.5092,-601.5088 625.3188,-595.623 614.7616,-594.7304 616.5092,-601.5088"/>
</g>
<!-- jboss&#45;logging&#45;&gt;javapackages&#45;tools -->
<g id="edge73" class="edge">
<title>jboss&#45;logging&#45;&gt;javapackages&#45;tools</title>
<path fill="none" stroke="#444444" stroke-opacity="0.333333" d="M225.626,-689.5257C287.0921,-657.5754 414.4938,-591.3514 481.8325,-556.3485"/>
<polygon fill="#444444" fill-opacity="0.333333" stroke="#444444" stroke-opacity="0.333333" points="483.664,-559.3412 490.9226,-551.6234 480.4354,-553.1301 483.664,-559.3412"/>
</g>
<!-- jcip&#45;annotations&#45;&gt;java&#45;1.8.0&#45;openjdk&#45;headless -->
<g id="edge74" class="edge">
<title>jcip&#45;annotations&#45;&gt;java&#45;1.8.0&#45;openjdk&#45;headless</title>
<path fill="none" stroke="#444444" stroke-opacity="0.333333" d="M224.9054,-914.8091C307.371,-855.6954 568.7097,-668.3607 661.9364,-601.5333"/>
<polygon fill="#444444" fill-opacity="0.333333" stroke="#444444" stroke-opacity="0.333333" points="664.0771,-604.3052 670.1655,-595.6344 659.9988,-598.6159 664.0771,-604.3052"/>
</g>
<!-- jcip&#45;annotations&#45;&gt;javapackages&#45;tools -->
<g id="edge75" class="edge">
<title>jcip&#45;annotations&#45;&gt;javapackages&#45;tools</title>
<path fill="none" stroke="#444444" stroke-opacity="0.333333" d="M214.4997,-914.7208C266.8105,-850.6536 442.6007,-635.3563 504.2031,-559.9094"/>
<polygon fill="#444444" fill-opacity="0.333333" stroke="#444444" stroke-opacity="0.333333" points="507.1895,-561.7857 510.803,-551.8261 501.7674,-557.3585 507.1895,-561.7857"/>
</g>
<!-- resteasy&#45;atom&#45;provider&#45;&gt;java&#45;1.8.0&#45;openjdk&#45;headless -->
<g id="edge76" class="edge">
<title>resteasy&#45;atom&#45;provider&#45;&gt;java&#45;1.8.0&#45;openjdk&#45;headless</title>
<path fill="none" stroke="#444444" stroke-opacity="0.333333" d="M406.6335,-595.0835C445.4679,-592.7267 488.6617,-590.1053 529.5599,-587.6233"/>
<polygon fill="#444444" fill-opacity="0.333333" stroke="#444444" stroke-opacity="0.333333" points="529.8562,-591.1119 539.6258,-587.0124 529.4321,-584.1247 529.8562,-591.1119"/>
</g>
<!-- resteasy&#45;atom&#45;provider&#45;&gt;javapackages&#45;tools -->
<g id="edge77" class="edge">
<title>resteasy&#45;atom&#45;provider&#45;&gt;javapackages&#45;tools</title>
<path fill="none" stroke="#444444" stroke-opacity="0.333333" d="M342.4466,-584.8449C375.7222,-575.5278 416.4955,-564.1113 451.1316,-554.4132"/>
<polygon fill="#444444" fill-opacity="0.333333" stroke="#444444" stroke-opacity="0.333333" points="452.5102,-557.6618 461.1961,-551.5951 450.6227,-550.9211 452.5102,-557.6618"/>
</g>
<!-- resteasy&#45;atom&#45;provider&#45;&gt;glassfish&#45;jaxb&#45;runtime -->
<g id="edge78" class="edge">
<title>resteasy&#45;atom&#45;provider&#45;&gt;glassfish&#45;jaxb&#45;runtime</title>
<path fill="none" stroke="#444444" stroke-opacity="0.333333" d="M283.194,-584.6156C294.2865,-545.5884 320.3505,-453.886 333.5349,-407.4986"/>
<polygon fill="#444444" fill-opacity="0.333333" stroke="#444444" stroke-opacity="0.333333" points="336.9259,-408.3696 336.2932,-397.7937 330.1925,-406.4558 336.9259,-408.3696"/>
</g>
<!-- resteasy&#45;atom&#45;provider&#45;&gt;jboss&#45;logging -->
<g id="edge79" class="edge">
<title>resteasy&#45;atom&#45;provider&#45;&gt;jboss&#45;logging</title>
<path fill="none" stroke="#444444" stroke-opacity="0.333333" d="M262.797,-621.1413C248.8424,-637.8939 228.0166,-662.8953 212.3341,-681.7221"/>
<polygon fill="#444444" fill-opacity="0.333333" stroke="#444444" stroke-opacity="0.333333" points="209.4598,-679.7042 205.7488,-689.6279 214.8383,-684.1844 209.4598,-679.7042"/>
</g>
<!-- resteasy&#45;atom&#45;provider&#45;&gt;resteasy&#45;core -->
<g id="edge80" class="edge">
<title>resteasy&#45;atom&#45;provider&#45;&gt;resteasy&#45;core</title>
<path fill="none" stroke="#444444" stroke-opacity="0.333333" d="M281.92,-621.1518C291.124,-664.0294 314.1708,-771.3952 325.2183,-822.861"/>
<polygon fill="#444444" fill-opacity="0.333333" stroke="#444444" stroke-opacity="0.333333" points="321.8634,-823.9088 327.3842,-832.9515 328.7075,-822.4396 321.8634,-823.9088"/>
</g>
<!-- resteasy&#45;atom&#45;provider&#45;&gt;resteasy&#45;jaxb&#45;provider -->
<g id="edge81" class="edge">
<title>resteasy&#45;atom&#45;provider&#45;&gt;resteasy&#45;jaxb&#45;provider</title>
<path fill="none" stroke="#444444" stroke-opacity="0.333333" d="M234.412,-584.7407C217.8531,-577.8459 198.8124,-569.9177 181.4925,-562.706"/>
<polygon fill="#444444" fill-opacity="0.333333" stroke="#444444" stroke-opacity="0.333333" points="182.6512,-559.3972 172.0741,-558.7843 179.9604,-565.8594 182.6512,-559.3972"/>
</g>
<!-- resteasy&#45;core&#45;&gt;java&#45;1.8.0&#45;openjdk&#45;headless -->
<g id="edge82" class="edge">
<title>resteasy&#45;core&#45;&gt;java&#45;1.8.0&#45;openjdk&#45;headless</title>
<path fill="none" stroke="#444444" stroke-opacity="0.333333" d="M355.4796,-833.0711C418.966,-785.3469 590.5164,-656.3884 662.6857,-602.1371"/>
<polygon fill="#444444" fill-opacity="0.333333" stroke="#444444" stroke-opacity="0.333333" points="665.09,-604.7084 670.9803,-595.9019 660.8838,-599.113 665.09,-604.7084"/>
</g>
<!-- resteasy&#45;core&#45;&gt;javapackages&#45;tools -->
<g id="edge83" class="edge">
<title>resteasy&#45;core&#45;&gt;javapackages&#45;tools</title>
<path fill="none" stroke="#444444" stroke-opacity="0.333333" d="M342.6044,-832.7847C375.4365,-779.1362 470.9566,-623.0538 509.4201,-560.2035"/>
<polygon fill="#444444" fill-opacity="0.333333" stroke="#444444" stroke-opacity="0.333333" points="512.4321,-561.9868 514.6668,-551.6303 506.4615,-558.3328 512.4321,-561.9868"/>
</g>
<!-- resteasy&#45;core&#45;&gt;apache&#45;commons&#45;io -->
<g id="edge84" class="edge">
<title>resteasy&#45;core&#45;&gt;apache&#45;commons&#45;io</title>
<path fill="none" stroke="#444444" stroke-opacity="0.333333" d="M327.2151,-869.4287C320.28,-900.2324 306.1791,-962.8655 297.9692,-999.3319"/>
<polygon fill="#444444" fill-opacity="0.333333" stroke="#444444" stroke-opacity="0.333333" points="294.5046,-998.7857 295.7227,-1009.3102 301.3337,-1000.3232 294.5046,-998.7857"/>
</g>
<!-- resteasy&#45;core&#45;&gt;httpcomponents&#45;client -->
<g id="edge85" class="edge">
<title>resteasy&#45;core&#45;&gt;httpcomponents&#45;client</title>
<path fill="none" stroke="#444444" stroke-opacity="0.333333" d="M407.3543,-869.2789C468.1827,-883.7083 553.4683,-903.9394 616.7561,-918.9523"/>
<polygon fill="#444444" fill-opacity="0.333333" stroke="#444444" stroke-opacity="0.333333" points="616.1795,-922.4125 626.7174,-921.3152 617.7953,-915.6016 616.1795,-922.4125"/>
</g>
<!-- resteasy&#45;core&#45;&gt;jboss&#45;annotations&#45;1.2&#45;api -->
<g id="edge86" class="edge">
<title>resteasy&#45;core&#45;&gt;jboss&#45;annotations&#45;1.2&#45;api</title>
<path fill="none" stroke="#444444" stroke-opacity="0.333333" d="M344.9542,-869.2566C374.3261,-908.041 443.6584,-999.5914 478.0195,-1044.9637"/>
<polygon fill="#444444" fill-opacity="0.333333" stroke="#444444" stroke-opacity="0.333333" points="475.3798,-1047.2755 484.2073,-1053.1344 480.9602,-1043.0494 475.3798,-1047.2755"/>
</g>
<!-- resteasy&#45;core&#45;&gt;jboss&#45;jaxrs&#45;2.0&#45;api -->
<g id="edge87" class="edge">
<title>resteasy&#45;core&#45;&gt;jboss&#45;jaxrs&#45;2.0&#45;api</title>
<path fill="none" stroke="#444444" stroke-opacity="0.333333" d="M408.8517,-869.2757C416.9093,-871.1499 425.1379,-873.0638 433.2935,-874.9607"/>
<polygon fill="#444444" fill-opacity="0.333333" stroke="#444444" stroke-opacity="0.333333" points="432.6559,-878.4058 443.1888,-877.2623 434.2418,-871.5878 432.6559,-878.4058"/>
</g>
<!-- resteasy&#45;core&#45;&gt;jboss&#45;logging -->
<g id="edge88" class="edge">
<title>resteasy&#45;core&#45;&gt;jboss&#45;logging</title>
<path fill="none" stroke="#444444" stroke-opacity="0.333333" d="M313.5042,-833.0568C288.6794,-807.7058 243.5635,-761.6336 215.4764,-732.9512"/>
<polygon fill="#444444" fill-opacity="0.333333" stroke="#444444" stroke-opacity="0.333333" points="217.8785,-730.4017 208.3812,-725.7056 212.8771,-735.2993 217.8785,-730.4017"/>
</g>
<!-- resteasy&#45;core&#45;&gt;jcip&#45;annotations -->
<g id="edge89" class="edge">
<title>resteasy&#45;core&#45;&gt;jcip&#45;annotations</title>
<path fill="none" stroke="#444444" stroke-opacity="0.333333" d="M302.0882,-869.3674C282.9957,-881.2112 257.8795,-896.7918 237.2942,-909.5616"/>
<polygon fill="#444444" fill-opacity="0.333333" stroke="#444444" stroke-opacity="0.333333" points="235.4329,-906.5975 228.7802,-914.8432 239.1229,-912.5459 235.4329,-906.5975"/>
</g>
<!-- resteasy&#45;jaxb&#45;provider&#45;&gt;java&#45;1.8.0&#45;openjdk&#45;headless -->
<g id="edge90" class="edge">
<title>resteasy&#45;jaxb&#45;provider&#45;&gt;java&#45;1.8.0&#45;openjdk&#45;headless</title>
<path fill="none" stroke="#444444" stroke-opacity="0.333333" d="M257.2807,-549.0796C337.931,-554.3226 442.711,-561.1342 529.5766,-566.7813"/>
<polygon fill="#444444" fill-opacity="0.333333" stroke="#444444" stroke-opacity="0.333333" points="529.6017,-570.2902 539.8077,-567.4464 530.0559,-563.3049 529.6017,-570.2902"/>
</g>
<!-- resteasy&#45;jaxb&#45;provider&#45;&gt;javapackages&#45;tools -->
<g id="edge91" class="edge">
<title>resteasy&#45;jaxb&#45;provider&#45;&gt;javapackages&#45;tools</title>
<path fill="none" stroke="#444444" stroke-opacity="0.333333" d="M257.3298,-538.3873C305.9674,-537.5054 361.0204,-536.5071 408.553,-535.6452"/>
<polygon fill="#444444" fill-opacity="0.333333" stroke="#444444" stroke-opacity="0.333333" points="408.6419,-539.1442 418.5768,-535.4634 408.5149,-532.1454 408.6419,-539.1442"/>
</g>
<!-- resteasy&#45;jaxb&#45;provider&#45;&gt;glassfish&#45;jaxb&#45;runtime -->
<g id="edge92" class="edge">
<title>resteasy&#45;jaxb&#45;provider&#45;&gt;glassfish&#45;jaxb&#45;runtime</title>
<path fill="none" stroke="#444444" stroke-opacity="0.333333" d="M152.685,-522.5484C191.0988,-493.4573 266.4386,-436.4019 309.4187,-403.8527"/>
<polygon fill="#444444" fill-opacity="0.333333" stroke="#444444" stroke-opacity="0.333333" points="311.7038,-406.5126 317.5627,-397.6852 307.4777,-400.9322 311.7038,-406.5126"/>
</g>
<!-- resteasy&#45;jaxb&#45;provider&#45;&gt;jboss&#45;logging -->
<g id="edge93" class="edge">
<title>resteasy&#45;jaxb&#45;provider&#45;&gt;jboss&#45;logging</title>
<path fill="none" stroke="#444444" stroke-opacity="0.333333" d="M135.4464,-558.9044C146.3064,-588.1334 167.7162,-645.7567 180.4674,-680.0758"/>
<polygon fill="#444444" fill-opacity="0.333333" stroke="#444444" stroke-opacity="0.333333" points="177.2082,-681.3532 183.972,-689.508 183.7699,-678.9151 177.2082,-681.3532"/>
</g>
<!-- resteasy&#45;client&#45;&gt;java&#45;1.8.0&#45;openjdk&#45;headless -->
<g id="edge94" class="edge">
<title>resteasy&#45;client&#45;&gt;java&#45;1.8.0&#45;openjdk&#45;headless</title>
<path fill="none" stroke="#444444" stroke-opacity="0.333333" d="M161.9749,-786.917C267.297,-745.579 525.8333,-644.1057 639.8378,-599.3598"/>
<polygon fill="#444444" fill-opacity="0.333333" stroke="#444444" stroke-opacity="0.333333" points="641.4005,-602.5065 649.4304,-595.5948 638.8429,-595.9904 641.4005,-602.5065"/>
</g>
<!-- resteasy&#45;client&#45;&gt;javapackages&#45;tools -->
<g id="edge95" class="edge">
<title>resteasy&#45;client&#45;&gt;javapackages&#45;tools</title>
<path fill="none" stroke="#444444" stroke-opacity="0.333333" d="M143.2302,-786.9305C214.9083,-739.4454 408.9889,-610.8715 489.7414,-557.3748"/>
<polygon fill="#444444" fill-opacity="0.333333" stroke="#444444" stroke-opacity="0.333333" points="492.1558,-559.9738 498.5595,-551.5331 488.2899,-554.1381 492.1558,-559.9738"/>
</g>
<!-- resteasy&#45;client&#45;&gt;jboss&#45;logging -->
<g id="edge96" class="edge">
<title>resteasy&#45;client&#45;&gt;jboss&#45;logging</title>
<path fill="none" stroke="#444444" stroke-opacity="0.333333" d="M130.0786,-786.6524C141.4499,-771.8419 157.6191,-750.7823 170.4018,-734.1334"/>
<polygon fill="#444444" fill-opacity="0.333333" stroke="#444444" stroke-opacity="0.333333" points="173.4206,-735.9489 176.7344,-725.8856 167.8683,-731.6859 173.4206,-735.9489"/>
</g>
<!-- resteasy&#45;client&#45;&gt;resteasy&#45;core -->
<g id="edge97" class="edge">
<title>resteasy&#45;client&#45;&gt;resteasy&#45;core</title>
<path fill="none" stroke="#444444" stroke-opacity="0.333333" d="M199.8793,-822.9795C213.2746,-825.8598 227.1873,-828.8513 240.7303,-831.7633"/>
<polygon fill="#444444" fill-opacity="0.333333" stroke="#444444" stroke-opacity="0.333333" points="240.0013,-835.1865 250.5136,-833.867 241.4729,-828.3429 240.0013,-835.1865"/>
</g>
<!-- resteasy&#45;jackson&#45;provider&#45;&gt;java&#45;1.8.0&#45;openjdk&#45;headless -->
<g id="edge98" class="edge">
<title>resteasy&#45;jackson&#45;provider&#45;&gt;java&#45;1.8.0&#45;openjdk&#45;headless</title>
<path fill="none" stroke="#444444" stroke-opacity="0.333333" d="M969.3872,-730.3057C913.4042,-699.0979 798.8833,-635.2581 737.1032,-600.8186"/>
<polygon fill="#444444" fill-opacity="0.333333" stroke="#444444" stroke-opacity="0.333333" points="738.4595,-597.5677 728.0208,-595.7556 735.0511,-603.6819 738.4595,-597.5677"/>
</g>
<!-- resteasy&#45;jackson&#45;provider&#45;&gt;javapackages&#45;tools -->
<g id="edge99" class="edge">
<title>resteasy&#45;jackson&#45;provider&#45;&gt;javapackages&#45;tools</title>
<path fill="none" stroke="#444444" stroke-opacity="0.333333" d="M961.7141,-730.2921C874.7927,-691.0602 669.5451,-598.4218 575.0004,-555.7491"/>
<polygon fill="#444444" fill-opacity="0.333333" stroke="#444444" stroke-opacity="0.333333" points="576.2149,-552.4573 565.6604,-551.5335 573.3351,-558.8376 576.2149,-552.4573"/>
</g>
<!-- resteasy&#45;jackson&#45;provider&#45;&gt;jackson -->
<g id="edge100" class="edge">
<title>resteasy&#45;jackson&#45;provider&#45;&gt;jackson</title>
<path fill="none" stroke="#444444" stroke-opacity="0.333333" d="M1002.6038,-730.3847C1004.0967,-692.104 1007.5913,-602.5005 1009.3888,-556.4114"/>
<polygon fill="#444444" fill-opacity="0.333333" stroke="#444444" stroke-opacity="0.333333" points="1012.894,-556.3434 1009.7865,-546.2146 1005.8994,-556.0706 1012.894,-556.3434"/>
</g>
<!-- apache&#45;commons&#45;codec -->
<g id="node1" class="node">
<title>apache&#45;commons&#45;codec</title>
<text text-anchor="middle" x="875.62" y="-1002.9" font-family="monospace" font-size="14.00" fill="#000000">apache&#45;commons&#45;codec</text>
</g>
<!-- java&#45;1.8.0&#45;openjdk&#45;headless -->
<g id="node2" class="node">
<title>java&#45;1.8.0&#45;openjdk&#45;headless</title>
<text text-anchor="middle" x="695.38" y="-573.86" font-family="monospace" font-size="14.00" fill="#000000">java&#45;1.8.0&#45;openjdk&#45;headless</text>
</g>
<!-- javapackages&#45;tools -->
<g id="node3" class="node">
<title>javapackages&#45;tools</title>
<text text-anchor="middle" x="525.75" y="-529.82" font-family="monospace" font-size="14.00" fill="#000000">javapackages&#45;tools</text>
</g>
<!-- copy&#45;jdk&#45;configs -->
<g id="node4" class="node">
<title>copy&#45;jdk&#45;configs</title>
<text text-anchor="middle" x="1631.4" y="-518.01" font-family="monospace" font-size="14.00" fill="#000000">copy&#45;jdk&#45;configs</text>
</g>
<!-- tzdata&#45;java -->
<g id="node5" class="node">
<title>tzdata&#45;java</title>
<text text-anchor="middle" x="1169.3" y="-1081.6" font-family="monospace" font-size="14.00" fill="#000000">tzdata&#45;java</text>
</g>
<!-- lua -->
<g id="node6" class="node">
<title>lua</title>
<text text-anchor="middle" x="2135.1" y="-591.66" font-family="monospace" font-size="14.00" fill="#000000">lua</text>
</g>
<!-- lua&#45;posix -->
<g id="node7" class="node">
<title>lua&#45;posix</title>
<text text-anchor="middle" x="2196.1" y="-411.38" font-family="monospace" font-size="14.00" fill="#000000">lua&#45;posix</text>
</g>
<!-- apache&#45;commons&#45;io -->
<g id="node8" class="node">
<title>apache&#45;commons&#45;io</title>
<text text-anchor="middle" x="291.65" y="-1023.7" font-family="monospace" font-size="14.00" fill="#000000">apache&#45;commons&#45;io</text>
</g>
<!-- apache&#45;commons&#45;logging -->
<g id="node9" class="node">
<title>apache&#45;commons&#45;logging</title>
<text text-anchor="middle" x="779.83" y="-1101.4" font-family="monospace" font-size="14.00" fill="#000000">apache&#45;commons&#45;logging</text>
</g>
<!-- bea&#45;stax&#45;api -->
<g id="node10" class="node">
<title>bea&#45;stax&#45;api</title>
<text text-anchor="middle" x="267.7" y="-95.954" font-family="monospace" font-size="14.00" fill="#000000">bea&#45;stax&#45;api</text>
</g>
<!-- glassfish&#45;fastinfoset -->
<g id="node11" class="node">
<title>glassfish&#45;fastinfoset</title>
<text text-anchor="middle" x="296.5" y="-226.38" font-family="monospace" font-size="14.00" fill="#000000">glassfish&#45;fastinfoset</text>
</g>
<!-- xmlstreambuffer -->
<g id="node12" class="node">
<title>xmlstreambuffer</title>
<text text-anchor="middle" x="93.962" y="-376.3" font-family="monospace" font-size="14.00" fill="#000000">xmlstreambuffer</text>
</g>
<!-- xsom -->
<g id="node13" class="node">
<title>xsom</title>
<text text-anchor="middle" x="420.15" y="-45.638" font-family="monospace" font-size="14.00" fill="#000000">xsom</text>
</g>
<!-- stax&#45;ex -->
<g id="node14" class="node">
<title>stax&#45;ex</title>
<text text-anchor="middle" x="170.46" y="-272.96" font-family="monospace" font-size="14.00" fill="#000000">stax&#45;ex</text>
</g>
<!-- relaxngDatatype -->
<g id="node15" class="node">
<title>relaxngDatatype</title>
<text text-anchor="middle" x="520.04" y="-124.97" font-family="monospace" font-size="14.00" fill="#000000">relaxngDatatype</text>
</g>
<!-- glassfish&#45;jaxb&#45;api -->
<g id="node16" class="node">
<title>glassfish&#45;jaxb&#45;api</title>
<text text-anchor="middle" x="809.93" y="-58.588" font-family="monospace" font-size="14.00" fill="#000000">glassfish&#45;jaxb&#45;api</text>
</g>
<!-- glassfish&#45;jaxb&#45;core -->
<g id="node17" class="node">
<title>glassfish&#45;jaxb&#45;core</title>
<text text-anchor="middle" x="648.22" y="-207.58" font-family="monospace" font-size="14.00" fill="#000000">glassfish&#45;jaxb&#45;core</text>
</g>
<!-- glassfish&#45;jaxb&#45;txw2 -->
<g id="node18" class="node">
<title>glassfish&#45;jaxb&#45;txw2</title>
<text text-anchor="middle" x="653.59" y="-14.3" font-family="monospace" font-size="14.00" fill="#000000">glassfish&#45;jaxb&#45;txw2</text>
</g>
<!-- istack&#45;commons&#45;runtime -->
<g id="node19" class="node">
<title>istack&#45;commons&#45;runtime</title>
<text text-anchor="middle" x="897.36" y="-169.35" font-family="monospace" font-size="14.00" fill="#000000">istack&#45;commons&#45;runtime</text>
</g>
<!-- glassfish&#45;jaxb&#45;runtime -->
<g id="node20" class="node">
<title>glassfish&#45;jaxb&#45;runtime</title>
<text text-anchor="middle" x="341.47" y="-375.88" font-family="monospace" font-size="14.00" fill="#000000">glassfish&#45;jaxb&#45;runtime</text>
</g>
<!-- httpcomponents&#45;client -->
<g id="node21" class="node">
<title>httpcomponents&#45;client</title>
<text text-anchor="middle" x="702.66" y="-935.63" font-family="monospace" font-size="14.00" fill="#000000">httpcomponents&#45;client</text>
</g>
<!-- httpcomponents&#45;core -->
<g id="node22" class="node">
<title>httpcomponents&#45;core</title>
<text text-anchor="middle" x="869.69" y="-852.38" font-family="monospace" font-size="14.00" fill="#000000">httpcomponents&#45;core</text>
</g>
<!-- jackson -->
<g id="node23" class="node">
<title>jackson</title>
<text text-anchor="middle" x="1010.5" y="-524.22" font-family="monospace" font-size="14.00" fill="#000000">jackson</text>
</g>
<!-- joda&#45;time -->
<g id="node24" class="node">
<title>joda&#45;time</title>
<text text-anchor="middle" x="1110.6" y="-652.37" font-family="monospace" font-size="14.00" fill="#000000">joda&#45;time</text>
</g>
<!-- jsr&#45;311 -->
<g id="node25" class="node">
<title>jsr&#45;311</title>
<text text-anchor="middle" x="907.13" y="-382.85" font-family="monospace" font-size="14.00" fill="#000000">jsr&#45;311</text>
</g>
<!-- objectweb&#45;asm3 -->
<g id="node26" class="node">
<title>objectweb&#45;asm3</title>
<text text-anchor="middle" x="1118.2" y="-427.45" font-family="monospace" font-size="14.00" fill="#000000">objectweb&#45;asm3</text>
</g>
<!-- stax2&#45;api -->
<g id="node27" class="node">
<title>stax2&#45;api</title>
<text text-anchor="middle" x="1041.9" y="-276.61" font-family="monospace" font-size="14.00" fill="#000000">stax2&#45;api</text>
</g>
<!-- jboss&#45;annotations&#45;1.2&#45;api -->
<g id="node28" class="node">
<title>jboss&#45;annotations&#45;1.2&#45;api</title>
<text text-anchor="middle" x="498.04" y="-1067.7" font-family="monospace" font-size="14.00" fill="#000000">jboss&#45;annotations&#45;1.2&#45;api</text>
</g>
<!-- jboss&#45;jaxrs&#45;2.0&#45;api -->
<g id="node29" class="node">
<title>jboss&#45;jaxrs&#45;2.0&#45;api</title>
<text text-anchor="middle" x="520.61" y="-891.57" font-family="monospace" font-size="14.00" fill="#000000">jboss&#45;jaxrs&#45;2.0&#45;api</text>
</g>
<!-- jboss&#45;logging -->
<g id="node30" class="node">
<title>jboss&#45;logging</title>
<text text-anchor="middle" x="190.72" y="-703.97" font-family="monospace" font-size="14.00" fill="#000000">jboss&#45;logging</text>
</g>
<!-- jcip&#45;annotations -->
<g id="node31" class="node">
<title>jcip&#45;annotations</title>
<text text-anchor="middle" x="199.64" y="-929.22" font-family="monospace" font-size="14.00" fill="#000000">jcip&#45;annotations</text>
</g>
<!-- resteasy&#45;atom&#45;provider -->
<g id="node32" class="node">
<title>resteasy&#45;atom&#45;provider</title>
<text text-anchor="middle" x="278" y="-599.19" font-family="monospace" font-size="14.00" fill="#000000">resteasy&#45;atom&#45;provider</text>
</g>
<!-- resteasy&#45;core -->
<g id="node33" class="node">
<title>resteasy&#45;core</title>
<text text-anchor="middle" x="331.31" y="-847.54" font-family="monospace" font-size="14.00" fill="#000000">resteasy&#45;core</text>
</g>
<!-- resteasy&#45;jaxb&#45;provider -->
<g id="node34" class="node">
<title>resteasy&#45;jaxb&#45;provider</title>
<text text-anchor="middle" x="128.69" y="-537.02" font-family="monospace" font-size="14.00" fill="#000000">resteasy&#45;jaxb&#45;provider</text>
</g>
<!-- resteasy&#45;client -->
<g id="node35" class="node">
<title>resteasy&#45;client</title>
<text text-anchor="middle" x="116.03" y="-801.25" font-family="monospace" font-size="14.00" fill="#000000">resteasy&#45;client</text>
</g>
<!-- resteasy&#45;jackson&#45;provider -->
<g id="node36" class="node">
<title>resteasy&#45;jackson&#45;provider</title>
<text text-anchor="middle" x="1001.9" y="-744.73" font-family="monospace" font-size="14.00" fill="#000000">resteasy&#45;jackson&#45;provider</text>
</g>
</g>
</svg>
