<?xml version="1.0" encoding="UTF-8" standalone="no"?>
<!DOCTYPE svg PUBLIC "-//W3C//DTD SVG 1.1//EN"
 "http://www.w3.org/Graphics/SVG/1.1/DTD/svg11.dtd">
<!-- Generated by graphviz version 2.40.1 (20161225.0304)
 -->
<!-- Title: G Pages: 1 -->
<svg width="2052pt" height="1647pt"
 viewBox="0.00 0.00 2052.00 1647.01" xmlns="http://www.w3.org/2000/svg" xmlns:xlink="http://www.w3.org/1999/xlink">
<g id="graph0" class="graph" transform="scale(1 1) rotate(0) translate(168.7055 1465.5612)">
<title>G</title>
<polygon fill="#dae2ff" stroke="transparent" points="-168.7055,181.4472 -168.7055,-1465.5612 1883.2948,-1465.5612 1883.2948,181.4472 -168.7055,181.4472"/>
<polygon fill="#fed9a6" stroke="#fed9a6" points="748.5938,-775.3062 743.7432,-775.3062 743.7432,-775.3062 748.5938,-775.3062 753.3275,-778.0698 755.046,-780.1928 758.401,-780.1928 759.5334,-779.8422 759.5334,-779.8422 758.401,-780.1928 762.6394,-818.6678 765.3286,-779.9258 769.4045,-779.9258 770.6116,-778.846 772.2636,-778.1279 775.1678,-774.9349 991.0465,-716.7074 960.4606,-695.1715 952.6581,-689.9888 944.7029,-685.0187 939.7292,-682.0093 820.913,-617.0229 805.8985,-565.5937 805.435,-563.7068 791.8757,-502.8485 734.0825,-481.6401 716.0578,-475.5731 710.9769,-474.182 667.7806,-465.0197 656.2485,-462.2158 646.4363,-459.226 645.9813,-514.3831 642.6213,-560.5281 648.5797,-560.5281 652.9451,-563.0764 654.4513,-564.95 653.7402,-565.8386 653.7402,-565.8386 654.4513,-564.95 652.9451,-563.0764 648.5797,-560.5281 642.6213,-560.5281 645.9813,-514.3831 646.4363,-459.226 640.6967,-457.1227 631.7252,-453.5551 618.498,-447.8883 567.5276,-424.5361 566.6356,-420.9311 566.5848,-420.6805 551.0234,-351.7248 548.1762,-340.1774 521.6079,-240.7231 424.2039,-219.2414 417.8062,-217.7481 410.8912,-216.0451 409.4551,-358.6957 411.5452,-447.0404 411.4901,-447.0572 410.5193,-502.8283 405.1107,-447.2005 401.8336,-447.2005 401.5467,-446.8656 401.5467,-446.8656 401.8336,-447.2005 405.1107,-447.2005 410.5193,-502.8283 411.4901,-447.0572 411.5452,-447.0404 409.4551,-358.6957 410.8912,-216.0451 396.2329,-212.0574 393.153,-211.1007 386.7757,-212.854 370.4041,-216.9382 263.8664,-194.5785 193.8638,-183.9722 188.6136,-183.0112 172.3516,-179.2578 164.2383,-178.6573 147.6786,-176.6838 145.9718,-176.4034 137.6673,-177.1587 117.1161,-178.112 109.766,-178.2342 101.1235,-178.1207 84.7477,-177.4183 78.7462,-176.8932 64.4572,-175.4298 55.5363,-178.2384 20.9931,-188.5517 5.952,-194.3752 -59.0992,-236.306 -105.7847,-309.7758 -114.9576,-335.5498 -158.1337,-445.2165 69.3753,-372.4155 71.9438,-412.8506 75.6105,-368.8014 77.524,-367.399 79.5717,-367.399 79.6832,-367.4322 79.6832,-367.4322 79.5717,-367.399 77.524,-367.399 75.6105,-368.8014 71.9438,-412.8506 69.3753,-372.4155 -158.1337,-445.2165 -164.7055,-461.2748 -164.5546,-461.9031 -142.6875,-488.0627 -119.9516,-557.9175 -118.3554,-563.0762 -93.1464,-653.904 -61.3073,-691.7348 41.9473,-766.7662 77.0187,-771.9147 100.7574,-775.7226 113.6594,-778.4895 124.2496,-780.9038 133.1433,-783.1713 138.3888,-783.1918 145.1086,-783.3029 163.0616,-784.5046 161.5563,-635.9617 157.9318,-564.8841 153.3035,-566.2263 153.3035,-566.2263 157.9318,-564.8841 161.7448,-561.4656 157.5553,-557.6101 153.2822,-556.392 153.2822,-556.392 157.5553,-557.6101 161.7448,-561.4656 157.9318,-564.8841 161.5563,-635.9617 163.0616,-784.5046 174.3626,-785.5457 178.646,-786.048 182.2979,-662.0698 182.9355,-651.2032 182.9355,-651.2032 182.2979,-662.0698 178.646,-786.048 210.2066,-790.9476 209.6388,-757.9506 209.6219,-752.1276 208.0741,-664.3558 211.9771,-564.7533 211.9771,-564.7533 208.0741,-664.3558 209.6219,-752.1276 209.6388,-757.9506 210.2066,-790.9476 372.2914,-826.2913 375.6583,-826.536 380.1086,-1059 379.7788,-1071.2773 276.1407,-1210.0674 245.1855,-1250.0441 246.3924,-1274.2631 252.8628,-1293.7485 283.9085,-1397.8541 330.7871,-1454.0996 439.8285,-1447.5039 458.7619,-1446.6497 470.5292,-1446.4818 469.982,-1294.8143 469.982,-1294.8143 470.5292,-1446.4818 479.1565,-1446.6249 480.4196,-1295.6617 484.417,-1263.7529 483.7008,-1263.5408 483.7008,-1263.5408 484.417,-1263.7529 480.4196,-1295.6617 479.1565,-1446.6249 490.956,-1447.1849 504.0421,-1448.2098 512.1484,-1449.0946 525.3695,-1450.7413 524.2081,-1405.9669 524.2081,-1405.9669 525.3695,-1450.7413 531.5139,-1451.7898 533.5986,-1309.2485 533.5986,-1309.2485 531.5139,-1451.7898 580.0015,-1461.5612 756.3542,-1315.1381 754.6971,-1300.722 750.4849,-1252.1184 838.7954,-1079.0398 671.1184,-1063.7797 648.3543,-1065.1494 647.4208,-1154.2128 642.5306,-1060.2263 641.963,-1059.2771 637.4059,-1059.2771 636.3232,-1058.9529 633.5054,-1058.9529 632.2328,-1059.3353 627.1455,-1059.3353 623.4837,-1148.5962 621.2019,-1060.5563 616.4211,-1063.3571 610.1951,-1063.3571 605.702,-1060.7323 601.7788,-1123.1406 599.5419,-1058.9418 594.9734,-1058.9418 594.8198,-1058.9879 590.7623,-1163.4755 587.7499,-1097.7197 589.476,-1058.9879 588.4903,-1058.6846 585.155,-1058.6846 585.0825,-1058.6276 584.2186,-1057.2605 579.6978,-993.3775 577.1547,-883.7167 414.561,-797.6768 420.0906,-785.1798 420.9352,-690.832 410.8972,-673.2541 409.777,-671.4512 394.6362,-647.7461 386.485,-635.3702 371.7896,-615.1043 360.0563,-599.4866 329.1038,-561.35 261.396,-462.3036 259.1055,-459.1621 260.753,-455.6093 273.4145,-425.9825 289.8556,-383.4912 219.6955,-373.1498 198.3152,-373.5456 196.4715,-406.0068 191.7048,-367.7309 187.9005,-367.7309 187.6225,-367.8137 185.7411,-463.1783 181.7116,-367.9374 177.6992,-367.9374 173.7416,-403.8203 170.6134,-367.8201 166.9637,-367.8201 161.3356,-420.1765 160.5314,-367.3849 160.1231,-367.2626 155.7814,-367.2626 155.691,-367.2356 150.4702,-367.2356 150.4702,-367.2356 155.691,-367.2356 155.7814,-367.2626 160.1231,-367.2626 160.5314,-367.3849 161.3356,-420.1765 166.9637,-367.8201 170.6134,-367.8201 173.7416,-403.8203 177.6992,-367.9374 181.7116,-367.9374 185.7411,-463.1783 187.6225,-367.8137 187.9005,-367.7309 191.7048,-367.7309 196.4715,-406.0068 198.3152,-373.5456 219.6955,-373.1498 289.8556,-383.4912 273.4145,-425.9825 260.753,-455.6093 259.1055,-459.1621 261.396,-462.3036 329.1038,-561.35 360.0563,-599.4866 371.7896,-615.1043 386.485,-635.3702 394.6362,-647.7461 409.777,-671.4512 410.8972,-673.2541 420.9352,-690.832 420.0906,-785.1798 414.561,-797.6768 577.1547,-883.7167 579.6978,-993.3775 584.2186,-1057.2605 585.0825,-1058.6276 585.155,-1058.6846 588.4903,-1058.6846 589.476,-1058.9879 587.7499,-1097.7197 590.7623,-1163.4755 594.8198,-1058.9879 594.9734,-1058.9418 599.5419,-1058.9418 601.7788,-1123.1406 605.702,-1060.7323 610.1951,-1063.3571 616.4211,-1063.3571 621.2019,-1060.5563 623.4837,-1148.5962 627.1455,-1059.3353 632.2328,-1059.3353 633.5054,-1058.9529 636.3232,-1058.9529 637.4059,-1059.2771 641.963,-1059.2771 642.5306,-1060.2263 647.4208,-1154.2128 648.3543,-1065.1494 671.1184,-1063.7797 838.7954,-1079.0398 875.6356,-1012.2148 882.0247,-1000.9838 972.3892,-963.6884 1036.3284,-817.6331 1044.5797,-799.9199 1041.379,-761.3584 1040.2024,-750.289 991.0465,-716.7074 775.1678,-774.9349 772.2636,-778.1279 770.6116,-778.846 769.4045,-779.9258 765.3286,-779.9258 762.6394,-818.6678 758.401,-780.1928 755.046,-780.1928 753.8353,-781.6 748.9909,-784.3819 743.2036,-784.3819 738.4122,-781.528 731.9816,-873.2717 732.6038,-779.719 732.6038,-779.719 731.9816,-873.2717 738.4122,-781.528 743.2036,-784.3819 748.9909,-784.3819 753.8353,-781.6 755.046,-780.1928 753.3275,-778.0698 748.5938,-775.3062 748.5938,-775.3062"/>
<polygon fill="#d8d6da" stroke="#d8d6da" points="1797.4862,-341.0912 1805.7231,-362.0145 1815.3868,-385.384 1819.14,-445.356 1817.3513,-466.3032 1812.1237,-564.5009 1709.4346,-587.2263 1685.1625,-592.1929 1681.2135,-592.9335 1672.4167,-594.1359 1663.8794,-595.1583 1657.15,-595.85 1649.3605,-596.5182 1641.8257,-597.0365 1637.6085,-597.1834 1635.8749,-597.2732 1621.3213,-597.2866 1617.4507,-597.3559 1612.8114,-597.2813 1608.4469,-597.137 1604.4407,-597.2087 1597.8135,-597.4401 1588.5168,-597.2907 1587.6332,-597.2615 1585.2473,-597.142 1588.9979,-499.5951 1594.5557,-432.5956 1594.5557,-432.5956 1588.9979,-499.5951 1585.2473,-597.142 1569.5398,-596.8898 1506.5281,-593.743 1499.5095,-588.5793 1378.0804,-605.4207 1375.6561,-605.6969 1363.6113,-606.4753 1353.6586,-606.8721 1352.8632,-606.8448 1339.3796,-606.7142 1338.5282,-606.6849 1338.308,-606.6827 1333.6323,-606.7527 1333.3402,-606.7715 1330.4905,-606.7433 1315.1962,-606.9708 1310.3851,-606.923 1310.2688,-606.9161 1305.2181,-606.8656 1139.8601,-601.1238 1097.5596,-665.6039 1040.2024,-750.289 991.0465,-716.7074 960.4606,-695.1715 952.6581,-689.9888 944.7029,-685.0187 939.7292,-682.0093 820.913,-617.0229 805.8985,-565.5937 805.435,-563.7068 791.8757,-502.8485 794.1217,-499.0583 809.3912,-470.4214 822.0982,-445.0538 864.1201,-424.4535 866.1541,-423.5361 880.2023,-418.2681 885.5322,-416.4782 929.9992,-403.2827 941.7039,-398.8976 951.4959,-394.8535 954.1721,-393.5452 955.4907,-392.8491 957.174,-393.4424 974.9012,-399.0776 1010.4211,-409.0823 1024.8079,-413.6529 1026.0635,-414.0956 1039.0677,-419.1406 1052.0474,-425.5389 1053.061,-426.0736 1061.1526,-430.9222 1070.8256,-437.066 1079.3986,-442.8117 1096.8804,-456.392 1099.1462,-458.2293 1099.4012,-458.4264 1135.2695,-350.9466 1136.8763,-342.8362 1139.9099,-319.6046 1140.6262,-316.895 1179.8536,-199.3497 1185.5037,-199.9954 1196.4934,-200.8234 1211.5287,-201.37 1212.5939,-201.4296 1218.4205,-201.6416 1225.9196,-201.3289 1236.0897,-201.5022 1237.9956,-201.5721 1243.5708,-201.4493 1258.3068,-201.4137 1257.7645,-213.7378 1248.9736,-348.0048 1245.0137,-348.0048 1243.7482,-348.3845 1239.9434,-348.3845 1239.005,-348.0961 1232.6814,-348.0961 1232.5975,-348.0708 1231.9429,-348.0708 1228.5361,-345.1337 1223.0165,-343.474 1223.0165,-343.474 1228.5361,-345.1337 1231.9429,-348.0708 1228.2235,-351.4053 1228.2235,-351.4053 1231.9429,-348.0708 1232.5975,-348.0708 1232.6814,-348.0961 1239.005,-348.0961 1239.9434,-348.3845 1243.7482,-348.3845 1245.0137,-348.0048 1248.9736,-348.0048 1257.7645,-213.7378 1258.3068,-201.4137 1259.2297,-201.3755 1259.5488,-201.3685 1259.5782,-201.3696 1262.1865,-201.4146 1284.4336,-202.2346 1284.5802,-202.2457 1465.2429,-219.4854 1444.4703,-301.3775 1438.1853,-328.0014 1382.071,-364.6329 1348.0096,-389.4142 1339.3298,-394.9771 1339.0175,-487.7715 1333.5929,-484.5846 1328.6501,-484.5846 1328.6501,-484.5846 1333.5929,-484.5846 1339.0175,-487.7715 1339.3298,-394.9771 1348.0096,-389.4142 1382.071,-364.6329 1438.1853,-328.0014 1444.4703,-301.3775 1465.2429,-219.4854 1500.9542,-189.8554 1563.5879,-198.3059 1585.7428,-204.3965 1604.1963,-208.9815 1612.9551,-210.924 1616.0887,-211.5771 1615.4197,-428.7715 1610.0189,-425.5867 1605.0284,-425.5867 1605.0284,-425.5867 1610.0189,-425.5867 1615.4197,-428.7715 1616.0887,-211.5771 1624.9728,-213.3104 1635.6418,-215.1077 1729.0344,-260.7177 1797.4862,-341.0912 1797.4862,-341.0912"/>
<polygon fill="#fbb4ae" stroke="#fbb4ae" points="1284.4336,-202.2346 1284.5802,-202.2457 1465.2429,-219.4854 1500.9542,-189.8554 1477.9026,-79.7347 1465.1599,-7.4244 1463.3989,3.6785 1382.3201,98.9729 1351.0439,122.0602 1287.5581,126.1008 1283.3002,126.4389 1273.589,127.3632 1251.2546,130.5475 1240.9813,132.4967 1231.9916,134.4857 1228.5928,135.2912 1205.1394,141.593 1149.8694,157.3002 1149.3669,157.7841 1148.1803,158.1165 1015.0104,162.2852 1005.8074,162.7179 995.5931,163.6799 983.5427,165.0046 987.7654,-17.8382 985.8811,-17.8382 982.7713,-15.1073 982.7713,-15.1073 985.8811,-17.8382 987.7654,-17.8382 983.5427,165.0046 974.188,166.1795 956.8972,169.4381 952.6588,170.3699 940.0805,173.3335 936.8882,174.1355 924.4795,177.4472 845.9768,137.4471 780.3334,62.0671 747.7091,-6.5782 704.1912,-32.6928 622.7739,-185.4646 521.6079,-240.7231 548.1762,-340.1774 551.0234,-351.7248 566.5848,-420.6805 566.6356,-420.9311 567.5276,-424.5361 618.498,-447.8883 631.7252,-453.5551 640.6967,-457.1227 646.4363,-459.226 656.2485,-462.2158 667.7806,-465.0197 710.9769,-474.182 710.4517,-441.8929 712.3269,-375.841 709.8183,-373.4976 710.3474,-370.9367 712.5031,-369.0067 717.4418,-367.5834 720.9155,-252.4048 727.7122,-256.4831 775.3494,-281.8942 821.0099,-266.8611 821.2491,-196.8043 826.9529,-192.2085 823.4119,-266.1748 835.0086,-263.3613 834.7729,-224.7515 838.1836,-190.6882 837.9226,-190.6093 837.9226,-190.6093 838.1836,-190.6882 834.7729,-224.7515 835.0086,-263.3613 843.4219,-262.0557 850.6042,-261.2552 850.6461,-226.639 854.2307,-190.7109 853.6878,-190.5454 853.6878,-190.5454 854.2307,-190.7109 850.6461,-226.639 850.6042,-261.2552 862.8893,-260.9578 863.0074,-254.7985 863.0074,-254.7985 862.8893,-260.9578 850.6042,-261.2552 843.4219,-262.0557 835.0086,-263.3613 823.4119,-266.1748 826.9529,-192.2085 821.2491,-196.8043 821.0099,-266.8611 775.3494,-281.8942 727.7122,-256.4831 720.9155,-252.4048 717.4418,-367.5834 712.5031,-369.0067 710.3474,-370.9367 709.8183,-373.4976 712.3269,-375.841 717.4034,-377.3943 717.4034,-377.3943 712.3269,-375.841 710.4517,-441.8929 710.9769,-474.182 716.0578,-475.5731 734.0825,-481.6401 791.8757,-502.8485 794.1217,-499.0583 809.3912,-470.4214 822.0982,-445.0538 864.1201,-424.4535 861.6285,-337.8575 866.7593,-334.2939 866.8845,-334.4086 866.8845,-334.4086 866.7593,-334.2939 861.6285,-337.8575 864.1201,-424.4535 866.1541,-423.5361 880.2023,-418.2681 885.5322,-416.4782 929.9992,-403.2827 941.7039,-398.8976 951.4959,-394.8535 954.1721,-393.5452 955.4907,-392.8491 957.174,-393.4424 974.9012,-399.0776 1010.4211,-409.0823 1024.8079,-413.6529 1026.0635,-414.0956 1039.0677,-419.1406 1052.0474,-425.5389 1053.061,-426.0736 1061.1526,-430.9222 1070.8256,-437.066 1079.3986,-442.8117 1096.8804,-456.392 1099.1462,-458.2293 1099.4012,-458.4264 1135.2695,-350.9466 1136.8763,-342.8362 1139.9099,-319.6046 1140.6262,-316.895 1179.8536,-199.3497 1185.5037,-199.9954 1196.4934,-200.8234 1211.5287,-201.37 1212.5939,-201.4296 1218.4205,-201.6416 1225.9196,-201.3289 1236.0897,-201.5022 1237.9956,-201.5721 1243.5708,-201.4493 1258.3068,-201.4137 1259.2297,-201.3755 1259.5488,-201.3685 1259.5782,-201.3696 1262.1865,-201.4146 1270.9868,-54.8915 1270.5446,-54.7586 1265.4713,-54.7586 1264.1077,-54.3416 1260.8242,-54.3416 1260.3137,-53.7559 1254.5483,-50.2971 1254.5483,-50.2971 1260.3137,-53.7559 1260.8242,-54.3416 1264.1077,-54.3416 1265.4713,-54.7586 1270.5446,-54.7586 1270.9868,-54.8915 1262.1865,-201.4146 1284.4336,-202.2346 1284.4336,-202.2346"/>
<polygon fill="#bbd7d9" stroke="#bbd7d9" points="1685.1625,-592.1929 1709.4346,-587.2263 1812.1237,-564.5009 1833.0299,-586.3038 1871.3261,-746.4833 1873.7014,-755.7054 1878.4192,-772.7983 1878.4105,-791.9204 1879.2948,-846.2112 1768.6339,-954.3633 1764.026,-982.7018 1754.8204,-1053.4011 1591.5427,-1180.5721 1568.3336,-1180.4341 1563.948,-1180.4666 1560.4982,-1180.5845 1544.0715,-1181.5859 1527.6992,-1183.0227 1510.9552,-1185.1641 1512.082,-1063.6558 1514.3231,-1009.3389 1518.9202,-974.36 1523.2943,-975.6245 1528.7078,-973.9899 1532.6782,-970.2855 1529.3311,-967.4241 1529.3311,-967.4241 1532.6782,-970.2855 1528.7078,-973.9899 1523.2943,-975.6245 1518.9202,-974.36 1514.3231,-1009.3389 1512.082,-1063.6558 1510.9552,-1185.1641 1502.6851,-1186.5532 1484.2528,-1190.144 1481.608,-1189.1475 1480.3883,-1188.7231 1477.6201,-1187.7999 1442.4589,-1176.5754 1344.8483,-1180.2444 1339.8059,-1180.5117 1321.0737,-1178.9015 1321.5292,-1164.1487 1321.5292,-1164.1487 1321.0737,-1178.9015 1319.6168,-1178.8442 1311.8967,-1178.6603 1306.5475,-1178.6157 1285.2988,-1179.0986 1280.1884,-1179.4524 1278.0663,-997.985 1283.2402,-1001.1224 1288.9285,-1001.1224 1288.9285,-1001.1224 1283.2402,-1001.1224 1278.0663,-997.985 1280.1884,-1179.4524 1266.7678,-1180.5898 1267.7651,-1128.4574 1267.7651,-1128.4574 1266.7678,-1180.5898 1263.4283,-1180.9762 1260.6467,-1060.2469 1260.6467,-1060.2469 1263.4283,-1180.9762 1253.2627,-1182.4688 1242.3551,-1184.2397 1236.9823,-1185.2786 1196.8186,-1193.6691 1153.5466,-1188.4237 1004.4501,-1001.2144 999.1346,-994.7171 972.3892,-963.6884 1036.3284,-817.6331 1044.5797,-799.9199 1041.379,-761.3584 1040.2024,-750.289 1097.5596,-665.6039 1139.8601,-601.1238 1305.2181,-606.8656 1310.2688,-606.9161 1310.3851,-606.923 1315.1962,-606.9708 1330.4905,-606.7433 1333.3402,-606.7715 1333.6323,-606.7527 1338.308,-606.6827 1338.5282,-606.6849 1339.3796,-606.7142 1352.8632,-606.8448 1353.6586,-606.8721 1363.6113,-606.4753 1375.6561,-605.6969 1378.0804,-605.4207 1499.5095,-588.5793 1506.5281,-593.743 1569.5398,-596.8898 1585.2473,-597.142 1587.6332,-597.2615 1588.5168,-597.2907 1597.8135,-597.4401 1604.4407,-597.2087 1608.4469,-597.137 1612.8114,-597.2813 1617.4507,-597.3559 1621.3213,-597.2866 1635.8749,-597.2732 1637.6085,-597.1834 1641.8257,-597.0365 1644.2573,-710.2834 1642.2615,-762.9562 1637.4486,-760.1004 1631.6027,-760.1004 1625.72,-763.614 1625.2686,-764.1263 1621.8954,-764.1263 1618.2205,-723.3848 1615.0287,-764.3145 1610.2272,-764.3145 1610.0944,-764.3528 1606.3192,-764.3528 1605.2865,-764.6616 1599.194,-764.6616 1599.1853,-764.659 1594.802,-764.659 1593.7437,-764.3438 1589.2365,-764.3438 1586.6533,-838.9978 1583.1295,-764.3153 1579.2771,-764.3153 1579.2771,-764.3153 1583.1295,-764.3153 1586.6533,-838.9978 1589.2365,-764.3438 1593.7437,-764.3438 1594.802,-764.659 1599.1853,-764.659 1599.194,-764.6616 1605.2865,-764.6616 1606.3192,-764.3528 1610.0944,-764.3528 1610.2272,-764.3145 1615.0287,-764.3145 1618.2205,-723.3848 1621.8954,-764.1263 1625.2686,-764.1263 1626.658,-765.8229 1631.6199,-768.8035 1631.6199,-768.8035 1626.658,-765.8229 1625.2686,-764.1263 1625.72,-763.614 1631.6027,-760.1004 1637.4486,-760.1004 1642.2615,-762.9562 1644.2573,-710.2834 1641.8257,-597.0365 1649.3605,-596.5182 1657.15,-595.85 1663.8794,-595.1583 1672.4167,-594.1359 1681.2135,-592.9335 1685.1625,-592.1929 1685.1625,-592.1929"/>
<polyline fill="none" stroke="#000000" points="137.6673,-177.1587 117.1161,-178.112 109.766,-178.2342 101.1235,-178.1207 84.7477,-177.4183 78.7462,-176.8932 64.4572,-175.4298 55.5363,-178.2384 20.9931,-188.5517 5.952,-194.3752 -59.0992,-236.306 -105.7847,-309.7758 -114.9576,-335.5498 -158.1337,-445.2165 -164.7055,-461.2748 -164.5546,-461.9031 -142.6875,-488.0627 -119.9516,-557.9175 -118.3554,-563.0762 -93.1464,-653.904 -61.3073,-691.7348 41.9473,-766.7662 77.0187,-771.9147 100.7574,-775.7226 113.6594,-778.4895 124.2496,-780.9038 133.1433,-783.1713 138.3888,-783.1918 145.1086,-783.3029 163.0616,-784.5046 174.3626,-785.5457 178.646,-786.048 210.2066,-790.9476 372.2914,-826.2913 375.6583,-826.536 380.1086,-1059 379.7788,-1071.2773 276.1407,-1210.0674 245.1855,-1250.0441 246.3924,-1274.2631 252.8628,-1293.7485 283.9085,-1397.8541 330.7871,-1454.0996 439.8285,-1447.5039 458.7619,-1446.6497 470.5292,-1446.4818 479.1565,-1446.6249 490.956,-1447.1849 504.0421,-1448.2098 512.1484,-1449.0946 525.3695,-1450.7413 531.5139,-1451.7898 580.0015,-1461.5612 756.3542,-1315.1381 754.6971,-1300.722 750.4849,-1252.1184 838.7954,-1079.0398 875.6356,-1012.2148 882.0247,-1000.9838 972.3892,-963.6884 1036.3284,-817.6331 1044.5797,-799.9199 1041.379,-761.3584 1040.2024,-750.289 991.0465,-716.7074 960.4606,-695.1715 952.6581,-689.9888 944.7029,-685.0187 939.7292,-682.0093 820.913,-617.0229 805.8985,-565.5937 805.435,-563.7068 791.8757,-502.8485 734.0825,-481.6401 716.0578,-475.5731 710.9769,-474.182 667.7806,-465.0197 656.2485,-462.2158 646.4363,-459.226 640.6967,-457.1227 631.7252,-453.5551 618.498,-447.8883 567.5276,-424.5361 566.6356,-420.9311 566.5848,-420.6805 551.0234,-351.7248 548.1762,-340.1774 521.6079,-240.7231 424.2039,-219.2414 417.8062,-217.7481 410.8912,-216.0451 396.2329,-212.0574 393.153,-211.1007 386.7757,-212.854 370.4041,-216.9382 263.8664,-194.5785 193.8638,-183.9722 188.6136,-183.0112 172.3516,-179.2578 164.2383,-178.6573 147.6786,-176.6838 145.9718,-176.4034 137.6673,-177.1587 "/>
<polyline fill="none" stroke="#000000" points="944.7029,-685.0187 952.6581,-689.9888 960.4606,-695.1715 991.0465,-716.7074 1040.2024,-750.289 1097.5596,-665.6039 1139.8601,-601.1238 1305.2181,-606.8656 1310.2688,-606.9161 1310.3851,-606.923 1315.1962,-606.9708 1330.4905,-606.7433 1333.3402,-606.7715 1333.6323,-606.7527 1338.308,-606.6827 1338.5282,-606.6849 1339.3796,-606.7142 1352.8632,-606.8448 1353.6586,-606.8721 1363.6113,-606.4753 1375.6561,-605.6969 1378.0804,-605.4207 1499.5095,-588.5793 1506.5281,-593.743 1569.5398,-596.8898 1585.2473,-597.142 1587.6332,-597.2615 1588.5168,-597.2907 1597.8135,-597.4401 1604.4407,-597.2087 1608.4469,-597.137 1612.8114,-597.2813 1617.4507,-597.3559 1621.3213,-597.2866 1635.8749,-597.2732 1637.6085,-597.1834 1641.8257,-597.0365 1649.3605,-596.5182 1657.15,-595.85 1663.8794,-595.1583 1672.4167,-594.1359 1681.2135,-592.9335 1685.1625,-592.1929 1709.4346,-587.2263 1812.1237,-564.5009 1817.3513,-466.3032 1819.14,-445.356 1815.3868,-385.384 1805.7231,-362.0145 1797.4862,-341.0912 1729.0344,-260.7177 1635.6418,-215.1077 1624.9728,-213.3104 1616.0887,-211.5771 1612.9551,-210.924 1604.1963,-208.9815 1585.7428,-204.3965 1563.5879,-198.3059 1500.9542,-189.8554 1465.2429,-219.4854 1284.5802,-202.2457 1284.4336,-202.2346 1262.1865,-201.4146 1259.5782,-201.3696 1259.5488,-201.3685 1259.2297,-201.3755 1258.3068,-201.4137 1243.5708,-201.4493 1237.9956,-201.5721 1236.0897,-201.5022 1225.9196,-201.3289 1218.4205,-201.6416 1212.5939,-201.4296 1211.5287,-201.37 1196.4934,-200.8234 1185.5037,-199.9954 1179.8536,-199.3497 1140.6262,-316.895 1139.9099,-319.6046 1136.8763,-342.8362 1135.2695,-350.9466 1099.4012,-458.4264 1099.1462,-458.2293 1096.8804,-456.392 1079.3986,-442.8117 1070.8256,-437.066 1061.1526,-430.9222 1053.061,-426.0736 1052.0474,-425.5389 1039.0677,-419.1406 1026.0635,-414.0956 1024.8079,-413.6529 1010.4211,-409.0823 974.9012,-399.0776 957.174,-393.4424 955.4907,-392.8491 954.1721,-393.5452 951.4959,-394.8535 941.7039,-398.8976 929.9992,-403.2827 885.5322,-416.4782 880.2023,-418.2681 866.1541,-423.5361 864.1201,-424.4535 822.0982,-445.0538 809.3912,-470.4214 794.1217,-499.0583 791.8757,-502.8485 805.435,-563.7068 805.8985,-565.5937 820.913,-617.0229 939.7292,-682.0093 944.7029,-685.0187 "/>
<polyline fill="none" stroke="#000000" points="1052.0474,-425.5389 1053.061,-426.0736 1061.1526,-430.9222 1070.8256,-437.066 1079.3986,-442.8117 1096.8804,-456.392 1099.1462,-458.2293 1099.4012,-458.4264 1135.2695,-350.9466 1136.8763,-342.8362 1139.9099,-319.6046 1140.6262,-316.895 1179.8536,-199.3497 1185.5037,-199.9954 1196.4934,-200.8234 1211.5287,-201.37 1212.5939,-201.4296 1218.4205,-201.6416 1225.9196,-201.3289 1236.0897,-201.5022 1237.9956,-201.5721 1243.5708,-201.4493 1258.3068,-201.4137 1259.2297,-201.3755 1259.5488,-201.3685 1259.5782,-201.3696 1262.1865,-201.4146 1284.4336,-202.2346 1284.5802,-202.2457 1465.2429,-219.4854 1500.9542,-189.8554 1477.9026,-79.7347 1465.1599,-7.4244 1463.3989,3.6785 1382.3201,98.9729 1351.0439,122.0602 1287.5581,126.1008 1283.3002,126.4389 1273.589,127.3632 1251.2546,130.5475 1240.9813,132.4967 1231.9916,134.4857 1228.5928,135.2912 1205.1394,141.593 1149.8694,157.3002 1149.3669,157.7841 1148.1803,158.1165 1015.0104,162.2852 1005.8074,162.7179 995.5931,163.6799 983.5427,165.0046 974.188,166.1795 956.8972,169.4381 952.6588,170.3699 940.0805,173.3335 936.8882,174.1355 924.4795,177.4472 845.9768,137.4471 780.3334,62.0671 747.7091,-6.5782 704.1912,-32.6928 622.7739,-185.4646 521.6079,-240.7231 548.1762,-340.1774 551.0234,-351.7248 566.5848,-420.6805 566.6356,-420.9311 567.5276,-424.5361 618.498,-447.8883 631.7252,-453.5551 640.6967,-457.1227 646.4363,-459.226 656.2485,-462.2158 667.7806,-465.0197 710.9769,-474.182 716.0578,-475.5731 734.0825,-481.6401 791.8757,-502.8485 794.1217,-499.0583 809.3912,-470.4214 822.0982,-445.0538 864.1201,-424.4535 866.1541,-423.5361 880.2023,-418.2681 885.5322,-416.4782 929.9992,-403.2827 941.7039,-398.8976 951.4959,-394.8535 954.1721,-393.5452 955.4907,-392.8491 957.174,-393.4424 974.9012,-399.0776 1010.4211,-409.0823 1024.8079,-413.6529 1026.0635,-414.0956 1039.0677,-419.1406 1052.0474,-425.5389 "/>
<polyline fill="none" stroke="#000000" points="1352.8632,-606.8448 1353.6586,-606.8721 1363.6113,-606.4753 1375.6561,-605.6969 1378.0804,-605.4207 1499.5095,-588.5793 1506.5281,-593.743 1569.5398,-596.8898 1585.2473,-597.142 1587.6332,-597.2615 1588.5168,-597.2907 1597.8135,-597.4401 1604.4407,-597.2087 1608.4469,-597.137 1612.8114,-597.2813 1617.4507,-597.3559 1621.3213,-597.2866 1635.8749,-597.2732 1637.6085,-597.1834 1641.8257,-597.0365 1649.3605,-596.5182 1657.15,-595.85 1663.8794,-595.1583 1672.4167,-594.1359 1681.2135,-592.9335 1685.1625,-592.1929 1709.4346,-587.2263 1812.1237,-564.5009 1833.0299,-586.3038 1871.3261,-746.4833 1873.7014,-755.7054 1878.4192,-772.7983 1878.4105,-791.9204 1879.2948,-846.2112 1768.6339,-954.3633 1764.026,-982.7018 1754.8204,-1053.4011 1591.5427,-1180.5721 1568.3336,-1180.4341 1563.948,-1180.4666 1560.4982,-1180.5845 1544.0715,-1181.5859 1527.6992,-1183.0227 1510.9552,-1185.1641 1502.6851,-1186.5532 1484.2528,-1190.144 1481.608,-1189.1475 1480.3883,-1188.7231 1477.6201,-1187.7999 1442.4589,-1176.5754 1344.8483,-1180.2444 1339.8059,-1180.5117 1321.0737,-1178.9015 1319.6168,-1178.8442 1311.8967,-1178.6603 1306.5475,-1178.6157 1285.2988,-1179.0986 1280.1884,-1179.4524 1266.7678,-1180.5898 1263.4283,-1180.9762 1253.2627,-1182.4688 1242.3551,-1184.2397 1236.9823,-1185.2786 1196.8186,-1193.6691 1153.5466,-1188.4237 1004.4501,-1001.2144 999.1346,-994.7171 972.3892,-963.6884 1036.3284,-817.6331 1044.5797,-799.9199 1041.379,-761.3584 1040.2024,-750.289 1097.5596,-665.6039 1139.8601,-601.1238 1305.2181,-606.8656 1310.2688,-606.9161 1310.3851,-606.923 1315.1962,-606.9708 1330.4905,-606.7433 1333.3402,-606.7715 1333.6323,-606.7527 1338.308,-606.6827 1338.5282,-606.6849 1339.3796,-606.7142 1352.8632,-606.8448 "/>
<!-- aajohan&#45;comfortaa&#45;fonts&#45;&gt;fontpackages&#45;filesystem -->
<g id="edge1" class="edge">
<title>aajohan&#45;comfortaa&#45;fonts&#45;&gt;fontpackages&#45;filesystem</title>
<path fill="none" stroke="#444444" stroke-opacity="0.333333" d="M135.6747,-385.7369C139.0021,-419.7389 146.1726,-493.0127 150.1184,-533.3341"/>
<polygon fill="#444444" fill-opacity="0.333333" stroke="#444444" stroke-opacity="0.333333" points="146.6365,-533.6912 151.0939,-543.3027 153.6032,-533.0094 146.6365,-533.6912"/>
</g>
<!-- curl&#45;minimal&#45;&gt;libcurl&#45;minimal -->
<g id="edge2" class="edge">
<title>curl&#45;minimal&#45;&gt;libcurl&#45;minimal</title>
<path fill="none" stroke="#444444" stroke-opacity="0.333333" d="M602.7303,-1077.1658C581.6333,-1113.3557 534.2715,-1194.6006 509.6008,-1236.921"/>
<polygon fill="#444444" fill-opacity="0.333333" stroke="#444444" stroke-opacity="0.333333" points="506.5686,-1235.173 504.556,-1245.575 512.616,-1238.6984 506.5686,-1235.173"/>
</g>
<!-- fontconfig&#45;&gt;aajohan&#45;comfortaa&#45;fonts -->
<g id="edge3" class="edge">
<title>fontconfig&#45;&gt;aajohan&#45;comfortaa&#45;fonts</title>
<path fill="none" stroke="#444444" stroke-opacity="0.333333" d="M333.8715,-429.1458C294.679,-417.0644 243.0031,-401.1349 202,-388.4954"/>
<polygon fill="#444444" fill-opacity="0.333333" stroke="#444444" stroke-opacity="0.333333" points="202.9435,-385.1238 192.3562,-385.5226 200.8814,-391.8132 202.9435,-385.1238"/>
</g>
<!-- fontconfig&#45;&gt;fontpackages&#45;filesystem -->
<g id="edge4" class="edge">
<title>fontconfig&#45;&gt;fontpackages&#45;filesystem</title>
<path fill="none" stroke="#444444" stroke-opacity="0.333333" d="M354.5872,-465.3211C312.806,-485.2103 245.5985,-517.2034 200.3633,-538.7368"/>
<polygon fill="#444444" fill-opacity="0.333333" stroke="#444444" stroke-opacity="0.333333" points="198.586,-535.7065 191.0612,-543.165 201.5947,-542.0269 198.586,-535.7065"/>
</g>
<!-- libX11&#45;&gt;libX11&#45;common -->
<g id="edge5" class="edge">
<title>libX11&#45;&gt;libX11&#45;common</title>
<path fill="none" stroke="#444444" stroke-opacity="0.333333" d="M984.0992,-470.8614C1033.8045,-445.319 1124.467,-398.7296 1178.5855,-370.9194"/>
<polygon fill="#444444" fill-opacity="0.333333" stroke="#444444" stroke-opacity="0.333333" points="1180.3014,-373.9728 1187.5961,-366.2891 1177.102,-367.7467 1180.3014,-373.9728"/>
</g>
<!-- libX11&#45;&gt;libxcb -->
<g id="edge6" class="edge">
<title>libX11&#45;&gt;libxcb</title>
<path fill="none" stroke="#444444" stroke-opacity="0.333333" d="M991.9535,-488.9959C1062.1427,-489.0382 1200.9766,-489.1217 1277.4134,-489.1677"/>
<polygon fill="#444444" fill-opacity="0.333333" stroke="#444444" stroke-opacity="0.333333" points="1277.7691,-492.6679 1287.7712,-489.174 1277.7734,-485.6679 1277.7691,-492.6679"/>
</g>
<!-- libxcb&#45;&gt;libXau -->
<g id="edge7" class="edge">
<title>libxcb&#45;&gt;libXau</title>
<path fill="none" stroke="#444444" stroke-opacity="0.333333" d="M1374.1875,-479.9766C1422.8271,-469.5887 1501.9001,-452.7013 1554.2808,-441.5145"/>
<polygon fill="#444444" fill-opacity="0.333333" stroke="#444444" stroke-opacity="0.333333" points="1555.0121,-444.9373 1564.0606,-439.4259 1553.5501,-438.0917 1555.0121,-444.9373"/>
</g>
<!-- libXft&#45;&gt;fontconfig -->
<g id="edge8" class="edge">
<title>libXft&#45;&gt;fontconfig</title>
<path fill="none" stroke="#444444" stroke-opacity="0.333333" d="M606.9286,-546.9612C562.2747,-526.1879 488.827,-492.0194 440.5754,-469.5725"/>
<polygon fill="#444444" fill-opacity="0.333333" stroke="#444444" stroke-opacity="0.333333" points="441.8203,-466.2914 431.2771,-465.2468 438.8676,-472.6383 441.8203,-466.2914"/>
</g>
<!-- libXft&#45;&gt;libX11 -->
<g id="edge9" class="edge">
<title>libXft&#45;&gt;libX11</title>
<path fill="none" stroke="#444444" stroke-opacity="0.333333" d="M688.762,-554.1618C743.1677,-540.5254 836.715,-517.0784 895.548,-502.3323"/>
<polygon fill="#444444" fill-opacity="0.333333" stroke="#444444" stroke-opacity="0.333333" points="896.5468,-505.6903 905.3958,-499.864 894.8449,-498.9003 896.5468,-505.6903"/>
</g>
<!-- libXft&#45;&gt;libXrender -->
<g id="edge10" class="edge">
<title>libXft&#45;&gt;libXrender</title>
<path fill="none" stroke="#444444" stroke-opacity="0.333333" d="M654.1924,-583.2965C671.8482,-621.1305 712.4119,-708.0527 733.1835,-752.5631"/>
<polygon fill="#444444" fill-opacity="0.333333" stroke="#444444" stroke-opacity="0.333333" points="730.0187,-754.0581 737.4193,-761.6399 736.362,-751.0979 730.0187,-754.0581"/>
</g>
<!-- libXrender&#45;&gt;curl&#45;minimal -->
<g id="edge11" class="edge">
<title>libXrender&#45;&gt;curl&#45;minimal</title>
<path fill="none" stroke="#444444" stroke-opacity="0.333333" d="M737.2478,-798.2312C714.4758,-846.148 653.0399,-975.4214 626.1818,-1031.9362"/>
<polygon fill="#444444" fill-opacity="0.333333" stroke="#444444" stroke-opacity="0.333333" points="623.0131,-1030.4499 621.8818,-1040.9842 629.3354,-1033.4546 623.0131,-1030.4499"/>
</g>
<!-- libXrender&#45;&gt;libX11 -->
<g id="edge12" class="edge">
<title>libXrender&#45;&gt;libX11</title>
<path fill="none" stroke="#444444" stroke-opacity="0.333333" d="M758.6429,-761.7198C793.3035,-712.0204 889.6804,-573.8269 930.3628,-515.4929"/>
<polygon fill="#444444" fill-opacity="0.333333" stroke="#444444" stroke-opacity="0.333333" points="933.3223,-517.3678 936.1719,-507.1633 927.5807,-513.3635 933.3223,-517.3678"/>
</g>
<!-- python2&#45;debug&#45;&gt;libX11 -->
<g id="edge13" class="edge">
<title>python2&#45;debug&#45;&gt;libX11</title>
<path fill="none" stroke="#444444" stroke-opacity="0.333333" d="M1042.3017,-336.904C1023.8136,-366.9914 986.8189,-427.196 965.34,-462.1506"/>
<polygon fill="#444444" fill-opacity="0.333333" stroke="#444444" stroke-opacity="0.333333" points="962.2312,-460.5246 959.9778,-470.877 968.1952,-464.1894 962.2312,-460.5246"/>
</g>
<!-- python2&#45;debug&#45;&gt;python2&#45;devel -->
<g id="edge14" class="edge">
<title>python2&#45;debug&#45;&gt;python2&#45;devel</title>
<path fill="none" stroke="#444444" stroke-opacity="0.333333" d="M1066.4702,-336.9088C1112.654,-401.8172 1269.2284,-621.8726 1323.5525,-698.2215"/>
<polygon fill="#444444" fill-opacity="0.333333" stroke="#444444" stroke-opacity="0.333333" points="1320.7163,-700.2726 1329.3656,-706.3915 1326.4198,-696.2144 1320.7163,-700.2726"/>
</g>
<!-- python2&#45;debug&#45;&gt;python2&#45;test -->
<g id="edge15" class="edge">
<title>python2&#45;debug&#45;&gt;python2&#45;test</title>
<path fill="none" stroke="#444444" stroke-opacity="0.333333" d="M1067.1162,-300.5309C1101.3975,-254.8373 1191.3968,-134.877 1231.647,-81.2274"/>
<polygon fill="#444444" fill-opacity="0.333333" stroke="#444444" stroke-opacity="0.333333" points="1234.6869,-83.0076 1237.8885,-72.9081 1229.0875,-78.8067 1234.6869,-83.0076"/>
</g>
<!-- python2&#45;debug&#45;&gt;python2&#45;tkinter -->
<g id="edge16" class="edge">
<title>python2&#45;debug&#45;&gt;python2&#45;tkinter</title>
<path fill="none" stroke="#444444" stroke-opacity="0.333333" d="M1026.7597,-300.6009C993.429,-278.0661 936.3625,-239.4836 899.4395,-214.52"/>
<polygon fill="#444444" fill-opacity="0.333333" stroke="#444444" stroke-opacity="0.333333" points="901.215,-211.4956 890.9703,-208.794 897.2943,-217.2946 901.215,-211.4956"/>
</g>
<!-- python2&#45;debug&#45;&gt;python2&#45;tools -->
<g id="edge17" class="edge">
<title>python2&#45;debug&#45;&gt;python2&#45;tools</title>
<path fill="none" stroke="#444444" stroke-opacity="0.333333" d="M1048.8181,-300.3237C1035.8718,-249.5647 999.5247,-107.0579 983.9934,-46.1643"/>
<polygon fill="#444444" fill-opacity="0.333333" stroke="#444444" stroke-opacity="0.333333" points="987.2935,-44.9408 981.4306,-36.116 980.5107,-46.6708 987.2935,-44.9408"/>
</g>
<!-- python2&#45;debug&#45;&gt;tix -->
<g id="edge18" class="edge">
<title>python2&#45;debug&#45;&gt;tix</title>
<path fill="none" stroke="#444444" stroke-opacity="0.333333" d="M972.793,-324.3607C950.8853,-325.9027 928.2031,-327.4992 909.9628,-328.7831"/>
<polygon fill="#444444" fill-opacity="0.333333" stroke="#444444" stroke-opacity="0.333333" points="909.5054,-325.3066 899.7759,-329.5001 909.997,-332.2893 909.5054,-325.3066"/>
</g>
<!-- python2&#45;debug&#45;&gt;tk -->
<g id="edge19" class="edge">
<title>python2&#45;debug&#45;&gt;tk</title>
<path fill="none" stroke="#444444" stroke-opacity="0.333333" d="M972.6089,-331.6686C903.4078,-342.7802 806.9511,-358.2682 754.7276,-366.6536"/>
<polygon fill="#444444" fill-opacity="0.333333" stroke="#444444" stroke-opacity="0.333333" points="753.9058,-363.2407 744.5872,-368.2819 755.0156,-370.1521 753.9058,-363.2407"/>
</g>
<!-- python2&#45;devel&#45;&gt;python2&#45;rpm&#45;macros -->
<g id="edge20" class="edge">
<title>python2&#45;devel&#45;&gt;python2&#45;rpm&#45;macros</title>
<path fill="none" stroke="#444444" stroke-opacity="0.333333" d="M1338.532,-742.8592C1328.9309,-789.4613 1303.4965,-912.9158 1291.994,-968.747"/>
<polygon fill="#444444" fill-opacity="0.333333" stroke="#444444" stroke-opacity="0.333333" points="1288.5415,-968.1598 1289.9516,-978.6604 1295.3975,-969.5724 1288.5415,-968.1598"/>
</g>
<!-- python2&#45;devel&#45;&gt;python3&#45;rpm&#45;generators -->
<g id="edge21" class="edge">
<title>python2&#45;devel&#45;&gt;python3&#45;rpm&#45;generators</title>
<path fill="none" stroke="#444444" stroke-opacity="0.333333" d="M1422.9184,-735.5757C1445.586,-738.6702 1470.9052,-742.1267 1495.929,-745.5428"/>
<polygon fill="#444444" fill-opacity="0.333333" stroke="#444444" stroke-opacity="0.333333" points="1495.4902,-749.0153 1505.8717,-746.9002 1496.4371,-742.0796 1495.4902,-749.0153"/>
</g>
<!-- python2&#45;devel&#45;&gt;python&#45;rpm&#45;macros -->
<g id="edge22" class="edge">
<title>python2&#45;devel&#45;&gt;python&#45;rpm&#45;macros</title>
<path fill="none" stroke="#444444" stroke-opacity="0.333333" d="M1355.6314,-742.6671C1387.3258,-785.6913 1467.2869,-894.2365 1504.2782,-944.4511"/>
<polygon fill="#444444" fill-opacity="0.333333" stroke="#444444" stroke-opacity="0.333333" points="1501.5,-946.581 1510.249,-952.5564 1507.1359,-942.4293 1501.5,-946.581"/>
</g>
<!-- python2&#45;tkinter&#45;&gt;libX11 -->
<g id="edge23" class="edge">
<title>python2&#45;tkinter&#45;&gt;libX11</title>
<path fill="none" stroke="#444444" stroke-opacity="0.333333" d="M869.237,-208.8152C883.5481,-259.169 923.7188,-400.5103 940.9012,-460.967"/>
<polygon fill="#444444" fill-opacity="0.333333" stroke="#444444" stroke-opacity="0.333333" points="937.5425,-461.9519 943.643,-470.614 944.2758,-460.0381 937.5425,-461.9519"/>
</g>
<!-- python2&#45;tkinter&#45;&gt;tix -->
<g id="edge24" class="edge">
<title>python2&#45;tkinter&#45;&gt;tix</title>
<path fill="none" stroke="#444444" stroke-opacity="0.333333" d="M865.1461,-208.7215C866.5831,-232.6977 869.1308,-275.2058 870.8178,-303.3524"/>
<polygon fill="#444444" fill-opacity="0.333333" stroke="#444444" stroke-opacity="0.333333" points="867.326,-303.5954 871.4181,-313.3681 874.3134,-303.1766 867.326,-303.5954"/>
</g>
<!-- python2&#45;tkinter&#45;&gt;tk -->
<g id="edge25" class="edge">
<title>python2&#45;tkinter&#45;&gt;tk</title>
<path fill="none" stroke="#444444" stroke-opacity="0.333333" d="M849.4784,-208.7182C823.3736,-241.1546 768.5778,-309.2407 738.4757,-346.6438"/>
<polygon fill="#444444" fill-opacity="0.333333" stroke="#444444" stroke-opacity="0.333333" points="735.6357,-344.5902 732.0926,-354.575 741.089,-348.979 735.6357,-344.5902"/>
</g>
<!-- python2&#45;tools&#45;&gt;python2&#45;tkinter -->
<g id="edge26" class="edge">
<title>python2&#45;tools&#45;&gt;python2&#45;tkinter</title>
<path fill="none" stroke="#444444" stroke-opacity="0.333333" d="M964.9569,-36.145C944.9941,-66.7045 904.5821,-128.568 881.4181,-164.0279"/>
<polygon fill="#444444" fill-opacity="0.333333" stroke="#444444" stroke-opacity="0.333333" points="878.4623,-162.153 875.9235,-172.4391 884.3227,-165.9813 878.4623,-162.153"/>
</g>
<!-- tix&#45;&gt;libX11 -->
<g id="edge27" class="edge">
<title>tix&#45;&gt;libX11</title>
<path fill="none" stroke="#444444" stroke-opacity="0.333333" d="M881.2595,-349.493C894.5371,-376.8882 919.8599,-429.1355 935.4617,-461.326"/>
<polygon fill="#444444" fill-opacity="0.333333" stroke="#444444" stroke-opacity="0.333333" points="932.4564,-463.1502 939.9675,-470.6225 938.7556,-460.0972 932.4564,-463.1502"/>
</g>
<!-- tix&#45;&gt;tk -->
<g id="edge28" class="edge">
<title>tix&#45;&gt;tk</title>
<path fill="none" stroke="#444444" stroke-opacity="0.333333" d="M845.1583,-338.6909C819.9362,-345.3981 782.2904,-355.4091 754.4222,-362.82"/>
<polygon fill="#444444" fill-opacity="0.333333" stroke="#444444" stroke-opacity="0.333333" points="753.403,-359.4693 744.6384,-365.4218 755.2021,-366.2342 753.403,-359.4693"/>
</g>
<!-- tk&#45;&gt;fontconfig -->
<g id="edge29" class="edge">
<title>tk&#45;&gt;fontconfig</title>
<path fill="none" stroke="#444444" stroke-opacity="0.333333" d="M690.4197,-378.8537C641.8267,-390.0107 538.421,-413.7526 467.2075,-430.1032"/>
<polygon fill="#444444" fill-opacity="0.333333" stroke="#444444" stroke-opacity="0.333333" points="466.3449,-426.7101 457.3817,-432.3592 467.9114,-433.5326 466.3449,-426.7101"/>
</g>
<!-- tk&#45;&gt;libX11 -->
<g id="edge30" class="edge">
<title>tk&#45;&gt;libX11</title>
<path fill="none" stroke="#444444" stroke-opacity="0.333333" d="M745.0103,-386.4238C784.1618,-406.1189 856.5207,-442.5189 903.6572,-466.2308"/>
<polygon fill="#444444" fill-opacity="0.333333" stroke="#444444" stroke-opacity="0.333333" points="902.2246,-469.428 912.7309,-470.7953 905.3704,-463.1747 902.2246,-469.428"/>
</g>
<!-- tk&#45;&gt;libXft -->
<g id="edge31" class="edge">
<title>tk&#45;&gt;libXft</title>
<path fill="none" stroke="#444444" stroke-opacity="0.333333" d="M710.803,-390.7158C698.1648,-424.5121 670.9048,-497.4088 655.9594,-537.3747"/>
<polygon fill="#444444" fill-opacity="0.333333" stroke="#444444" stroke-opacity="0.333333" points="652.6658,-536.1897 652.4414,-546.7821 659.2224,-538.6416 652.6658,-536.1897"/>
</g>
<!-- aajohan&#45;comfortaa&#45;fonts -->
<g id="node1" class="node">
<title>aajohan&#45;comfortaa&#45;fonts</title>
<text text-anchor="middle" x="133.89" y="-363.8" font-family="monospace" font-size="14.00" fill="#000000">aajohan&#45;comfortaa&#45;fonts</text>
</g>
<!-- fontpackages&#45;filesystem -->
<g id="node2" class="node">
<title>fontpackages&#45;filesystem</title>
<text text-anchor="middle" x="152.86" y="-557.65" font-family="monospace" font-size="14.00" fill="#000000">fontpackages&#45;filesystem</text>
</g>
<!-- curl&#45;minimal -->
<g id="node3" class="node">
<title>curl&#45;minimal</title>
<text text-anchor="middle" x="613.32" y="-1055.3" font-family="monospace" font-size="14.00" fill="#000000">curl&#45;minimal</text>
</g>
<!-- libcurl&#45;minimal -->
<g id="node4" class="node">
<title>libcurl&#45;minimal</title>
<text text-anchor="middle" x="493.99" y="-1260" font-family="monospace" font-size="14.00" fill="#000000">libcurl&#45;minimal</text>
</g>
<!-- fontconfig -->
<g id="node5" class="node">
<title>fontconfig</title>
<text text-anchor="middle" x="392.57" y="-443.54" font-family="monospace" font-size="14.00" fill="#000000">fontconfig</text>
</g>
<!-- libX11 -->
<g id="node6" class="node">
<title>libX11</title>
<text text-anchor="middle" x="948.86" y="-485.27" font-family="monospace" font-size="14.00" fill="#000000">libX11</text>
</g>
<!-- libX11&#45;common -->
<g id="node7" class="node">
<title>libX11&#45;common</title>
<text text-anchor="middle" x="1222.7" y="-344.55" font-family="monospace" font-size="14.00" fill="#000000">libX11&#45;common</text>
</g>
<!-- libxcb -->
<g id="node8" class="node">
<title>libxcb</title>
<text text-anchor="middle" x="1331" y="-485.5" font-family="monospace" font-size="14.00" fill="#000000">libxcb</text>
</g>
<!-- libXau -->
<g id="node9" class="node">
<title>libXau</title>
<text text-anchor="middle" x="1607.4" y="-426.47" font-family="monospace" font-size="14.00" fill="#000000">libXau</text>
</g>
<!-- libXft -->
<g id="node10" class="node">
<title>libXft</title>
<text text-anchor="middle" x="645.64" y="-561.27" font-family="monospace" font-size="14.00" fill="#000000">libXft</text>
</g>
<!-- libXrender -->
<g id="node11" class="node">
<title>libXrender</title>
<text text-anchor="middle" x="745.95" y="-776.22" font-family="monospace" font-size="14.00" fill="#000000">libXrender</text>
</g>
<!-- python2&#45;debug -->
<g id="node12" class="node">
<title>python2&#45;debug</title>
<text text-anchor="middle" x="1053.5" y="-314.98" font-family="monospace" font-size="14.00" fill="#000000">python2&#45;debug</text>
</g>
<!-- python2&#45;devel -->
<g id="node13" class="node">
<title>python2&#45;devel</title>
<text text-anchor="middle" x="1342.3" y="-720.87" font-family="monospace" font-size="14.00" fill="#000000">python2&#45;devel</text>
</g>
<!-- python2&#45;test -->
<g id="node14" class="node">
<title>python2&#45;test</title>
<text text-anchor="middle" x="1251.6" y="-50.932" font-family="monospace" font-size="14.00" fill="#000000">python2&#45;test</text>
</g>
<!-- python2&#45;tkinter -->
<g id="node15" class="node">
<title>python2&#45;tkinter</title>
<text text-anchor="middle" x="864.06" y="-186.9" font-family="monospace" font-size="14.00" fill="#000000">python2&#45;tkinter</text>
</g>
<!-- python2&#45;tools -->
<g id="node16" class="node">
<title>python2&#45;tools</title>
<text text-anchor="middle" x="976.81" y="-14.3" font-family="monospace" font-size="14.00" fill="#000000">python2&#45;tools</text>
</g>
<!-- tix -->
<g id="node17" class="node">
<title>tix</title>
<text text-anchor="middle" x="872.5" y="-327.72" font-family="monospace" font-size="14.00" fill="#000000">tix</text>
</g>
<!-- tk -->
<g id="node18" class="node">
<title>tk</title>
<text text-anchor="middle" x="717.57" y="-368.92" font-family="monospace" font-size="14.00" fill="#000000">tk</text>
</g>
<!-- python2&#45;rpm&#45;macros -->
<g id="node19" class="node">
<title>python2&#45;rpm&#45;macros</title>
<text text-anchor="middle" x="1286.2" y="-993.17" font-family="monospace" font-size="14.00" fill="#000000">python2&#45;rpm&#45;macros</text>
</g>
<!-- python3&#45;rpm&#45;generators -->
<g id="node20" class="node">
<title>python3&#45;rpm&#45;generators</title>
<text text-anchor="middle" x="1634.5" y="-760.76" font-family="monospace" font-size="14.00" fill="#000000">python3&#45;rpm&#45;generators</text>
</g>
<!-- python&#45;rpm&#45;macros -->
<g id="node21" class="node">
<title>python&#45;rpm&#45;macros</title>
<text text-anchor="middle" x="1523.6" y="-966.98" font-family="monospace" font-size="14.00" fill="#000000">python&#45;rpm&#45;macros</text>
</g>
</g>
</svg>
