<?xml version="1.0" encoding="UTF-8" standalone="no"?>
<!DOCTYPE svg PUBLIC "-//W3C//DTD SVG 1.1//EN"
 "http://www.w3.org/Graphics/SVG/1.1/DTD/svg11.dtd">
<!-- Generated by graphviz version 2.40.1 (20161225.0304)
 -->
<!-- Title: G Pages: 1 -->
<svg width="2061pt" height="1191pt"
 viewBox="0.00 0.00 2060.97 1190.60" xmlns="http://www.w3.org/2000/svg" xmlns:xlink="http://www.w3.org/1999/xlink">
<g id="graph0" class="graph" transform="scale(1 1) rotate(0) translate(97.4934 1063.3043)">
<title>G</title>
<polygon fill="#dae2ff" stroke="transparent" points="-97.4934,127.2932 -97.4934,-1063.3043 1963.4717,-1063.3043 1963.4717,127.2932 -97.4934,127.2932"/>
<polygon fill="#d8d6d9" stroke="#d8d6d9" points="1152.6035,-1022.4902 1137.7765,-1020.0947 1120.7814,-1017.7989 1015.4809,-978.2192 1025.5702,-947.5621 1045.0935,-882.5778 1054.963,-840.25 1068.0829,-800.3843 1080.7352,-796.3465 1082.5284,-795.8718 1098.2085,-792.1404 1106.4911,-790.6204 1125.2432,-788.1952 1131.6202,-787.7185 1137.6112,-787.5957 1146.8177,-787.6567 1147.6188,-787.6838 1162.0138,-787.3989 1162.5016,-787.3501 1182.6082,-784.7939 1190.4418,-783.5892 1192.6178,-783.08 1209.6163,-778.6378 1220.09,-775.3391 1228.4706,-772.4763 1239.715,-767.7289 1247.4054,-770.8611 1295.7244,-787.9816 1328.2524,-785.3893 1343.579,-784.9837 1343.6082,-784.9821 1351.3945,-784.7728 1352.6978,-784.7725 1353.3085,-784.8049 1364.1917,-784.7932 1366.4141,-784.6703 1366.7209,-784.6615 1374.1364,-784.8452 1385.9518,-784.8172 1388.4845,-784.9464 1393.9485,-784.7808 1400.9943,-784.9428 1403.2233,-784.9337 1403.6292,-784.9429 1464.1453,-784.6699 1470.2113,-791.4936 1470.2113,-887.9262 1470.0771,-890.7369 1470.1953,-893.1816 1470.1953,-924.5575 1404.0831,-907.0229 1402.0406,-904.467 1397.8094,-902.8678 1396.8412,-902.0467 1393.0968,-902.0467 1392.7512,-901.9335 1392.7512,-901.9335 1393.0968,-902.0467 1396.8412,-902.0467 1397.8094,-902.8678 1402.0406,-904.467 1404.0831,-907.0229 1470.1953,-924.5575 1470.1953,-893.1816 1470.0771,-890.7369 1470.2113,-887.9262 1470.2113,-791.4936 1530.7236,-809.3495 1547.5538,-813.651 1556.4005,-815.1958 1572.6188,-816.725 1580.7083,-816.8353 1582.2333,-816.91 1599.6462,-818.3833 1602.8184,-818.8745 1605.043,-819.2974 1609.7642,-820.3632 1621.9553,-823.5516 1624.0471,-824.172 1628.1489,-825.5336 1633.3142,-827.4322 1675.0939,-890.9504 1602.3433,-896.9106 1573.4966,-895.9041 1567.7742,-902.0494 1566.8861,-902.0494 1565.9209,-901.7078 1563.99,-901.7078 1561.7909,-899.5541 1561.7909,-899.5541 1563.99,-901.7078 1565.9209,-901.7078 1566.8861,-902.0494 1567.7742,-902.0494 1573.4966,-895.9041 1602.3433,-896.9106 1675.0939,-890.9504 1703.3918,-928.736 1709.3307,-936.2863 1692.0254,-967.9196 1634.4448,-1017.4513 1573.093,-1020.2507 1570.0741,-1020.0381 1548.2499,-1020.3434 1547.4415,-1020.3775 1530.8358,-1022.0129 1475.0642,-1029.0662 1470.2113,-1028.6567 1403.9009,-1057.4004 1399.9493,-1059.3043 1388.7279,-1052.8069 1383.922,-1050.283 1365.2008,-1040.9482 1364.6599,-1040.7083 1347.3684,-1033.9513 1295.7244,-1016.5518 1295.7244,-902 1295.7244,-902 1311.274,-902 1311.274,-902 1295.7244,-902 1295.7244,-902 1295.7244,-1016.5518 1242.9142,-1021.4879 1234.2045,-1022.7528 1232.7979,-954.9636 1235.0944,-901.9727 1235.6664,-901.7908 1238.408,-901.7908 1238.408,-901.7908 1235.6664,-901.7908 1235.0944,-901.9727 1232.7979,-954.9636 1234.2045,-1022.7528 1218.5554,-1025.8394 1212.1696,-1027.4285 1211.5,-1027.2885 1205.9955,-1026.2765 1188.8646,-1023.9871 1187.7311,-1023.8644 1184.1418,-1023.6562 1170.8857,-1023.2205 1160.9182,-1023.3954 1157.5118,-1023.5411 1152.6035,-1022.4902 1152.6035,-1022.4902"/>
<polygon fill="#bbd7d9" stroke="#bbd7d9" points="863.2792,-61.4951 858.6227,-63.5305 801.5692,-94.0315 782.2825,-102.6497 760.782,-111.5223 760.782,-46.0209 761.6938,-18 760.782,-3.9895 760.782,104.5882 802.7186,111.6559 848.1672,106.0701 864.6038,104.4699 882.1041,103.6683 891.1827,103.9544 908.5452,105.3977 911.2092,105.6875 914.3255,106.1065 933.7919,109.7311 972.3503,117.8909 977.4332,115.8374 1021.3705,115.2013 1033.3591,115.3017 1038.8112,115.472 1047.6451,115.9502 1053.1746,116.3759 1060.4193,117.099 1061.1104,116.8098 1065.697,115.1287 1071.1732,113.2625 1081.2697,110.0816 1096.1853,106.1542 1106.8157,103.9094 1109.2625,103.4566 1123.8918,101.5059 1124.062,101.4876 1160.8534,98.4914 1184.1505,90.5453 1238.4091,100.769 1251.2415,103.5338 1267.7659,107.9814 1271.4435,109.068 1274.6364,110.0956 1275.6263,110.4405 1292.8273,117.3665 1305.0846,123.2932 1306.4373,123.0495 1322.8982,120.8133 1327.2985,120.4116 1341.1792,119.4523 1394.4601,116.9568 1404.174,109.5498 1475.2177,99.6833 1489.2057,98.5115 1495.8575,98.3215 1506.6736,98.3113 1511.5806,98.5777 1521.2819,99.373 1535.2235,100.9013 1578.8138,106.8727 1583.2761,109.5087 1621.488,104.9603 1634.9136,103.6984 1645.9797,102.9378 1652.4181,102.6582 1655.7242,102.5982 1677.4224,103.8485 1678.1613,103.9283 1692.3157,105.8139 1694.0493,106.0882 1697.0717,106.6424 1698.941,107.0323 1708.3933,109.2442 1724.8632,113.9361 1725.0266,113.9681 1729.3444,115.0209 1734.245,113.7436 1734.3265,70.9982 1737.5833,-16.7221 1735.8373,-18.2102 1732.8632,-18.2102 1731.3707,-17.7301 1726.5513,-17.7301 1726.5513,-17.7301 1731.3707,-17.7301 1732.8632,-18.2102 1735.8373,-18.2102 1737.5833,-16.7221 1734.3265,70.9982 1734.245,113.7436 1745.9384,111.2628 1781.8815,104.513 1817.7758,83.747 1852.9351,46.9539 1856.5868,21.9644 1858.4709,-1.2035 1859.2408,-8.3161 1855.2539,-26.2438 1849.9962,-58.0258 1829.0404,-104.9088 1754.3123,-142.8175 1743.6747,-141.1025 1725.5787,-139.0957 1709.491,-138.5325 1704.317,-138.4822 1697.8849,-138.7443 1683.3711,-140.0698 1670.2958,-141.9243 1667.2949,-142.5009 1665.4773,-142.4221 1654.6158,-142.2164 1654.0516,-142.2333 1639.9689,-142.9986 1624.6209,-144.5834 1578.8138,-150.4264 1530.0983,-177.1841 1521.7367,-182.2156 1505.1827,-188.0247 1496.5956,-191.5807 1484.4163,-197.1449 1466.9325,-205.8798 1429.4873,-225.3678 1408.5762,-215.314 1404.174,-207.511 1384.224,-190.6243 1340.1008,-150.4905 1330.0585,-141.7711 1321.3947,-134.6187 1311.9253,-127.6116 1308.6492,-125.0251 1296.7424,-116.703 1286.3333,-110.3736 1286.1355,-52.0432 1286.1355,-52.0432 1286.3333,-110.3736 1274.4772,-104.2341 1264.9371,-100.1573 1257.6442,-97.3724 1248.2922,-94.6457 1240.9529,-92.8382 1217.423,-88.1132 1204.1993,-84.8822 1195.868,-82.1326 1185.5901,-78.3009 1184.1505,-77.7042 1157.7781,-90.282 1124.2423,-80.0768 1119.5646,-78.9217 1115.3912,-78.1294 1103.9418,-76.6069 1101.4908,-76.4222 1101.2001,-76.4169 1097.116,-76.5753 1092.9584,-76.479 1087.9705,-76.6503 1085.1537,-76.5719 1080.243,-76.7175 1076.0452,-76.319 1073.6813,-76.2313 1065.1115,-76.9013 1062.0348,-76.7584 1057.6257,-76.8069 1054.2032,-76.6321 1042.4713,-77.3805 1029.7147,-79.6579 997.8543,-88.9677 992.5645,-81.402 977.4332,-57.4039 926.9709,-57.463 925.9056,-57.5659 920.8902,-57.5447 918.4465,-57.2873 918.1528,-57.2845 915.1478,-57.5443 905.3052,-57.3944 903.9088,-57.6419 895.2754,-57.4179 893.181,-57.5632 892.7526,-57.6341 891.457,-57.7168 886.1066,-57.5203 880.7538,-57.8357 871.2036,-59.3166 865.4992,-60.7368 863.2792,-61.4951 863.2792,-61.4951"/>
<polygon fill="#cbc5d1" stroke="#cbc5d1" points="269.3534,-279.697 281.9306,-287.379 327.4477,-311.897 332.3095,-314.8505 344.3004,-322.9702 349.8792,-327.1102 353.3275,-330.1302 355.8381,-332.5075 368.1889,-343.2917 371.4749,-354.947 374.7795,-365.3256 394.1417,-419.9996 386.5048,-429.7498 378.0056,-457.89 365.8682,-513.0584 300.1035,-585.2452 253.9328,-584.2763 248.2311,-584.4359 231.7344,-585.7081 223.2856,-586.5663 222.8124,-586.6259 219.0024,-587.199 217.6487,-587.1105 214.0688,-587.048 202.8614,-587.1216 196.3593,-573.2425 183.8643,-549.9508 184.9222,-511.5821 184.9222,-511.5821 183.8643,-549.9508 196.3593,-573.2425 202.8614,-587.1216 104.0213,-634.7867 104.7725,-547.2029 101.82,-501.9256 96.7921,-501.9256 96.1458,-501.7304 92.8117,-501.7304 92.2348,-501.0645 86.5604,-497.6384 86.5604,-497.6384 92.2348,-501.0645 92.8117,-501.7304 96.1458,-501.7304 96.7921,-501.9256 101.82,-501.9256 104.7725,-547.2029 104.0213,-634.7867 99.8907,-637.005 81.8733,-647.6986 79.4061,-647.3159 64.4384,-645.897 59.4972,-645.6273 24.548,-644.4199 -70.2011,-529.6312 -69.3979,-512.9433 -69.3875,-482.1202 -82.0969,-438.4261 -86.9156,-423.2092 -85.2576,-412.0006 -87.1724,-382.4997 -90.2343,-348.154 -93.4934,-324.3249 -79.8181,-308.4192 -17.6895,-255.9926 -14.517,-250.1186 16.0928,-189.2658 17.7012,-187.9686 93.6492,-168.3743 99.186,-166.785 102.3008,-167.1618 118.5999,-167.8165 138.2426,-167.5447 129.0212,-284.2151 124.1597,-288.1548 123.1523,-290.2385 122.4007,-290.9634 119.6978,-290.9634 116.9472,-293.7206 111.1747,-295.6407 104.2233,-293.1993 101.9108,-290.8915 99.1436,-290.8915 98.2486,-290.5785 95.927,-290.5785 92.3638,-295.4442 93.1701,-325.1099 93.1362,-325.1141 93.1362,-325.1141 93.1701,-325.1099 92.3638,-295.4442 95.927,-290.5785 98.2486,-290.5785 99.1436,-290.8915 101.9108,-290.8915 104.2233,-293.1993 111.1747,-295.6407 116.9472,-293.7206 119.6978,-290.9634 122.4007,-290.9634 123.1523,-290.2385 124.1597,-288.1548 129.0212,-284.2151 138.2426,-167.5447 208.3106,-164.6882 224.6829,-239.431 230.9488,-245.427 232.5788,-246.8946 236.3981,-250.8029 241.4321,-256.3101 244.2092,-259.1468 246.9661,-261.7707 249.3357,-347.0747 252.569,-350.2013 249.5743,-352.9791 243.1741,-355.0409 237.5249,-353.2753 234.1133,-350.0915 232.6151,-350.0915 231.848,-349.8434 226.5003,-349.8434 220.2711,-246.6184 218.4647,-249.3684 214.0439,-255.6569 213.4684,-274.7962 213.4684,-274.7962 214.0439,-255.6569 218.4647,-249.3684 220.2711,-246.6184 226.5003,-349.8434 231.848,-349.8434 232.6151,-350.0915 234.1133,-350.0915 237.5249,-353.2753 243.1741,-355.0409 249.5743,-352.9791 252.569,-350.2013 249.3357,-347.0747 246.9661,-261.7707 250.7643,-265.1298 260.551,-273.1391 268.8429,-279.3509 269.3534,-279.697 269.3534,-279.697"/>
<polygon fill="#e8cfd0" stroke="#e8cfd0" points="1471.7135,-441.2267 1466.0092,-448.2692 1425.8724,-499.7109 1405.993,-507.8033 1388.1112,-514.2991 1386.2098,-514.9471 1375.8057,-518.262 1361.412,-521.8902 1353.4664,-523.7158 1339.9535,-526.2187 1336.8257,-526.6584 1322.4092,-528.3659 1295.3302,-530.9683 1281.2356,-533.2599 1273.1573,-534.7522 1268.4039,-535.7351 1258.442,-527.253 1257.6566,-526.6705 1256.5759,-525.8275 1251.6591,-393.594 1257.4486,-395.4851 1263.3307,-393.5131 1266.4308,-390.3992 1263.9138,-388.0322 1263.9138,-388.0322 1266.4308,-390.3992 1263.3307,-393.5131 1257.4486,-395.4851 1251.6591,-393.594 1256.5759,-525.8275 1247.7637,-519.2689 1241.65,-514.9421 1236.3311,-511.3723 1227.5669,-505.811 1226.5278,-428.5556 1229.7743,-390.6156 1229.4319,-390.5071 1223.8326,-390.5071 1220.1497,-332.1723 1217.377,-385.43 1173.1847,-375.6329 1164.2828,-383.2996 1160.3405,-387.1075 1154.5314,-393.347 1152.9596,-325.4652 1148.214,-325.4652 1148.214,-325.4652 1152.9596,-325.4652 1154.5314,-393.347 1160.3405,-387.1075 1164.2828,-383.2996 1173.1847,-375.6329 1217.377,-385.43 1220.1497,-332.1723 1223.8326,-390.5071 1229.4319,-390.5071 1229.7743,-390.6156 1226.5278,-428.5556 1227.5669,-505.811 1211.7808,-496.9504 1133.0514,-455.7604 1122.3231,-449.7065 1114.2854,-444.5136 1112.6744,-444.5408 1102.1146,-444.4167 1100.9342,-444.3691 1103.3094,-385.5747 1108.6156,-329.8471 1113.5952,-329.8471 1113.5952,-329.8471 1108.6156,-329.8471 1103.3094,-385.5747 1100.9342,-444.3691 1095.274,-444.4302 1092.5259,-444.3816 1092.3684,-444.1661 1089.1593,-440.2126 1078.8202,-428.1427 1077.5078,-426.7001 1074.1672,-325.3562 1074.8425,-325.1406 1071.8585,-256.9355 1071.8982,-245.8618 1075.0099,-244.7442 1087.095,-239.8577 1088.9908,-239.0084 1103.1365,-232.039 1103.7656,-231.7024 1106.7792,-229.9589 1095.3469,-212.7224 1092.6427,-209.0159 1089.6858,-205.3421 1081.0836,-193.4307 1073.7358,-184.4922 1076.4478,-140.2274 1082.4885,-138.2391 1085.5602,-135.256 1082.7402,-132.4545 1082.7402,-132.4545 1085.5602,-135.256 1082.4885,-138.2391 1076.4478,-140.2274 1073.7358,-184.4922 1081.0836,-193.4307 1089.6858,-205.3421 1028.515,-183.8266 1026.1326,-180.7247 1023.0803,-179.1124 1028.4355,-173.5338 1028.4355,-173.5338 1023.0803,-179.1124 1026.1326,-180.7247 1028.515,-183.8266 1089.6858,-205.3421 1092.6427,-209.0159 1095.3469,-212.7224 1106.7792,-229.9589 1103.7656,-231.7024 1103.1365,-232.039 1088.9908,-239.0084 1087.095,-239.8577 1075.0099,-244.7442 1071.8982,-245.8618 1071.8585,-256.9355 1074.8425,-325.1406 1074.1672,-325.3562 1077.5078,-426.7001 1072.4292,-421.4475 1069.1814,-417.5859 1059.2686,-406.5754 1041.986,-390.1394 1002.7021,-348.5568 994.6804,-341.0068 992.9108,-340.8823 986.4636,-340.7404 981.4316,-340.8737 976.5091,-340.7685 973.9753,-340.5931 975.2609,-310.19 980.5599,-272.7893 978.5158,-272.1174 973.8438,-272.1174 972.6158,-225.8501 974.0719,-225.713 980.0229,-225.6013 977.6211,-183.691 983.5125,-179.8926 984.0649,-179.1814 982.9648,-177.7614 977.6613,-174.4873 972.8276,-174.4873 972.8276,-174.4873 977.6613,-174.4873 982.9648,-177.7614 984.0649,-179.1814 983.5125,-179.8926 977.6211,-183.691 980.0229,-225.6013 974.0719,-225.713 972.6158,-225.8501 973.8438,-272.1174 978.5158,-272.1174 980.5599,-272.7893 975.2609,-310.19 973.9753,-340.5931 971.4874,-340.6619 966.2706,-340.5575 965.3505,-340.5835 961.699,-272.6696 959.6275,-272.6696 955.8029,-268.9295 951.3145,-267.5708 951.3145,-267.5708 955.8029,-268.9295 959.6275,-272.6696 961.699,-272.6696 965.3505,-340.5835 964.2746,-340.666 963.34,-340.693 956.8593,-340.5711 953.5626,-340.6689 953.0165,-340.7116 940.0504,-340.4831 938.4809,-340.3047 934.774,-340.2444 929.5997,-340.411 929.5314,-340.4165 923.8045,-340.6044 922.3199,-340.5822 920.5165,-340.7304 912.8886,-340.9912 908.4016,-340.9296 905.6328,-340.7592 903.6962,-340.7339 901.2944,-340.5882 889.2261,-339.277 884.7928,-338.5851 854.7502,-331.0186 852.7712,-283.1469 853.4929,-272.55 852.7655,-265.0068 850.7696,-216.7243 829.3302,-184.2484 823.9179,-177.1366 796.6221,-162.242 789.4269,-158.0636 779.2045,-151.4044 770.541,-145.457 769.3831,-146.9794 753.4797,-165.9812 741.4171,-178.184 736.5018,-182.57 725.0585,-182.57 725.0585,-182.57 736.5018,-182.57 731.8143,-187.7376 723.1278,-196.0587 711.7117,-206.1656 711.063,-206.6892 706.3327,-210.1611 694.6918,-217.8623 693.9034,-218.3227 691.0987,-219.7553 681.2498,-224.0844 650.6343,-235.2644 643.1948,-238.5349 633.4776,-243.519 624.9199,-249.1422 624.3794,-249.5361 615.4094,-256.7594 616.9755,-269.3579 617.8547,-280.9588 617.6072,-292.44 632.6246,-413.2509 551.6862,-408.6078 549.2766,-408.5328 546.0524,-331.0692 547.9681,-294.957 546.3979,-292.1655 546.8058,-291.8306 546.983,-291.5307 553.3895,-286.1328 551.0786,-241.1994 551.1315,-237.6659 552.2814,-237.6013 562.3589,-237.6495 562.3175,-230.406 565.4741,-182.7571 570.6724,-182.7571 569.4908,-238.553 579.0544,-240.3497 578.9807,-221.4475 575.4687,-185.4076 582.0238,-187.5035 586.8272,-186.0509 590.3443,-182.7063 587.2698,-179.6892 581.6728,-177.8541 581.6728,-177.8541 587.2698,-179.6892 590.3443,-182.7063 586.8272,-186.0509 582.0238,-187.5035 575.4687,-185.4076 578.9807,-221.4475 579.0544,-240.3497 569.4908,-238.553 570.6724,-182.7571 565.4741,-182.7571 562.3175,-230.406 562.3589,-237.6495 552.2814,-237.6013 551.1315,-237.6659 551.0786,-241.1994 553.3895,-286.1328 546.983,-291.5307 546.8058,-291.8306 546.3979,-292.1655 547.9681,-294.957 546.0524,-331.0692 549.2766,-408.5328 533.3674,-408.8738 522.8718,-409.6508 512.9598,-410.9063 512.7764,-410.9344 503.6101,-409.6176 504.7449,-343.8483 509.0107,-292.8785 509.0296,-292.8559 507.6568,-291.048 502.7537,-287.9904 497.1845,-287.9904 491.0597,-291.943 493.4659,-235.8304 483.1731,-233.2342 481.5163,-232.7166 479.4942,-231.9603 451.354,-182.57 423.7363,-147.4014 425.4948,-241.7958 419.961,-246.2618 419.7113,-246.7149 417.6699,-248.3147 414.3134,-248.3147 413.9811,-248.2082 413.9811,-248.2082 414.3134,-248.3147 417.6699,-248.3147 419.7113,-246.7149 419.961,-246.2618 425.4948,-241.7958 423.7363,-147.4014 451.354,-182.57 479.4942,-231.9603 481.5163,-232.7166 483.1731,-233.2342 493.4659,-235.8304 491.0597,-291.943 497.1845,-287.9904 502.7537,-287.9904 507.6568,-291.048 509.0296,-292.8559 509.0107,-292.8785 504.7449,-343.8483 503.6101,-409.6176 493.1763,-408.6693 485.3747,-408.3712 478.4538,-408.2889 464.8626,-408.8427 445.3232,-411.1845 394.1417,-419.9996 374.7795,-365.3256 371.4749,-354.947 368.1889,-343.2917 355.8381,-332.5075 353.3275,-330.1302 349.8792,-327.1102 344.3004,-322.9702 339.8771,-248.379 339.8771,-248.379 344.3004,-322.9702 332.3095,-314.8505 327.4477,-311.897 281.9306,-287.379 269.3534,-279.697 268.8429,-279.3509 260.551,-273.1391 250.7643,-265.1298 246.9661,-261.7707 244.2092,-259.1468 241.4321,-256.3101 236.3981,-250.8029 232.5788,-246.8946 230.9488,-245.427 224.6829,-239.431 208.3106,-164.6882 209.7878,-163.0641 229.7808,-151.5165 276.8035,-132.8589 324.8969,-131.9068 332.0074,-131.5777 346.661,-130.511 357.2459,-128.9004 369.6135,-126.691 372.4107,-126.0444 387.6972,-121.6928 402.6888,-116.629 403.3793,-116.3595 444.0669,-64.4878 474.2022,-48.0493 480.0433,-32.0888 492.5129,7.9282 501.3971,39.4253 524.6182,76.3427 602.015,104.4227 606.3621,105.0623 619.7303,107.7363 623.9355,107.9014 626.2473,107.5477 644.6776,106.5987 648.9955,106.4861 662.6285,106.8228 669.7826,107.1808 730.5992,111.7631 750.1225,110.6721 760.782,104.5882 760.782,-3.9895 761.6938,-18 760.782,-46.0209 760.782,-111.5223 760.7704,-111.5544 661.9692,-100.538 661.0844,-100.4748 660.4061,-100.4533 652.3921,-18.4483 648.5394,-18.4483 646.3754,-17.7174 644.7036,-17.7174 641.3878,-14.585 636.2819,-13.0042 636.2819,-13.0042 641.3878,-14.585 644.7036,-17.7174 646.3754,-17.7174 648.5394,-18.4483 652.3921,-18.4483 660.4061,-100.4533 661.0844,-100.4748 661.9692,-100.538 760.7704,-111.5544 760.782,-111.5223 782.2825,-102.6497 801.5692,-94.0315 858.6227,-63.5305 863.2792,-61.4951 865.4992,-60.7368 871.2036,-59.3166 880.7538,-57.8357 886.1066,-57.5203 891.457,-57.7168 892.7526,-57.6341 893.181,-57.5632 895.2754,-57.4179 903.9088,-57.6419 905.3052,-57.3944 915.1478,-57.5443 913.5778,-93.6244 908.238,-91.8866 901.0469,-94.4485 898.517,-97.0001 900.8119,-99.2752 900.8119,-99.2752 898.517,-97.0001 901.0469,-94.4485 908.238,-91.8866 913.5778,-93.6244 915.1478,-57.5443 918.1528,-57.2845 918.4465,-57.2873 920.8902,-57.5447 925.9056,-57.5659 926.9709,-57.463 977.4332,-57.4039 992.5645,-81.402 997.8543,-88.9677 1029.7147,-79.6579 1042.4713,-77.3805 1054.2032,-76.6321 1057.6257,-76.8069 1062.0348,-76.7584 1065.1115,-76.9013 1073.6813,-76.2313 1076.0452,-76.319 1080.243,-76.7175 1085.1537,-76.5719 1087.9705,-76.6503 1092.9584,-76.479 1097.116,-76.5753 1101.2001,-76.4169 1101.4908,-76.4222 1103.9418,-76.6069 1115.3912,-78.1294 1119.5646,-78.9217 1124.2423,-80.0768 1157.7781,-90.282 1184.1505,-77.7042 1185.5901,-78.3009 1195.868,-82.1326 1204.1993,-84.8822 1204.2738,-135.2863 1204.2738,-135.2863 1204.1993,-84.8822 1217.423,-88.1132 1240.9529,-92.8382 1248.2922,-94.6457 1257.6442,-97.3724 1264.9371,-100.1573 1274.4772,-104.2341 1286.3333,-110.3736 1296.7424,-116.703 1308.6492,-125.0251 1311.9253,-127.6116 1321.3947,-134.6187 1330.0585,-141.7711 1340.1008,-150.4905 1384.224,-190.6243 1404.174,-207.511 1408.5762,-215.314 1429.4873,-225.3678 1445.7141,-292.217 1456.6487,-363.3673 1471.7135,-441.2267 1471.7135,-441.2267"/>
<polygon fill="#fbb4ae" stroke="#fbb4ae" points="943.6042,-667.9828 989.0034,-643.0714 1008.016,-631.5973 1019.9902,-625.6946 1022.5759,-624.5677 1027.2946,-622.7751 1039.2059,-618.9142 1062.6167,-612.6812 1062.968,-612.5663 1074.9348,-616.1454 1077.0006,-616.6313 1080.6697,-617.265 1087.1528,-617.9812 1096.196,-618.4138 1096.6917,-618.4719 1103.3418,-618.8315 1105.7775,-618.8101 1108.5272,-618.6135 1108.7583,-618.5823 1116.8932,-618.611 1122.1698,-618.2979 1127.4778,-618.7145 1127.8789,-618.7209 1130.1439,-618.472 1144.2875,-617.8948 1145.6522,-617.7541 1235.2778,-602.8986 1245.1868,-580.8058 1268.4039,-535.7351 1273.1573,-534.7522 1281.2356,-533.2599 1295.3302,-530.9683 1322.4092,-528.3659 1336.8257,-526.6584 1339.9535,-526.2187 1353.4664,-523.7158 1361.412,-521.8902 1375.8057,-518.262 1386.2098,-514.9471 1388.1112,-514.2991 1405.993,-507.8033 1425.8724,-499.7109 1458.5264,-577.5101 1474.1674,-618.3766 1542.3098,-610.2368 1556.3336,-612.3815 1556.3336,-612.3815 1542.3098,-610.2368 1474.1674,-618.3766 1458.5264,-577.5101 1425.8724,-499.7109 1466.0092,-448.2692 1471.7135,-441.2267 1559.2245,-460.4282 1564.9254,-461.4353 1585.0391,-464.1335 1601.089,-465.2553 1606.2574,-465.3953 1614.5902,-465.4427 1616.0684,-465.4195 1627.0975,-465.0107 1644.7933,-463.2178 1718.5128,-418.5891 1741.2823,-426.7725 1758.8347,-432.6375 1763.6489,-433.997 1770.3318,-435.7133 1783.7399,-438.4722 1794.962,-440.2062 1800.098,-440.8678 1811.4227,-441.7469 1813.118,-441.835 1820.2189,-442.0226 1836.1469,-441.6271 1874.2407,-439.7065 1921.1161,-467.4684 1951.2059,-555.9629 1951.5587,-561.2371 1951.8289,-563.5154 1831.9902,-568.0991 1827.9551,-649.4008 1827.5131,-641.9263 1819.5988,-562.2446 1815.5781,-562.2446 1811.6764,-606.3845 1808.4556,-562.184 1803.7396,-562.184 1800.191,-462.7747 1797.5166,-561.06 1791.9286,-557.4836 1786.6442,-557.4836 1786.6442,-557.4836 1791.9286,-557.4836 1797.5166,-561.06 1800.191,-462.7747 1803.7396,-562.184 1808.4556,-562.184 1811.6764,-606.3845 1815.5781,-562.2446 1819.5988,-562.2446 1827.5131,-641.9263 1827.9551,-649.4008 1831.9902,-568.0991 1951.8289,-563.5154 1956.7095,-597.2678 1948.1239,-628.9741 1944.3824,-639.9294 1915.2118,-679.48 1946.0983,-792.09 1959.4717,-829.4098 1951.549,-860.4924 1925.1628,-879.0372 1845.1858,-921.1963 1834.9263,-920.0464 1820.7261,-918.7944 1811.9731,-918.2336 1799.3265,-917.7288 1799.3315,-917.1882 1799.3086,-916.6008 1799.3086,-916.6008 1799.3315,-917.1882 1799.3265,-917.7288 1785.5504,-918.5066 1778.261,-919.0936 1780.9042,-792.9545 1781.4849,-792.237 1780.7954,-791.3567 1780.7954,-791.3567 1781.4849,-792.237 1780.9042,-792.9545 1775.2102,-796.5187 1769.4698,-796.5187 1764.1755,-793.1674 1763.3364,-792.0775 1763.3364,-792.0775 1764.1755,-793.1674 1769.4698,-796.5187 1775.2102,-796.5187 1780.9042,-792.9545 1778.261,-919.0936 1772.4894,-919.6971 1770.0024,-920.0168 1762.5979,-921.1471 1740.7991,-926.0608 1727.2821,-929.755 1723.1978,-931.1642 1709.3307,-936.2863 1703.3918,-928.736 1675.0939,-890.9504 1633.3142,-827.4322 1628.1489,-825.5336 1624.0471,-824.172 1621.9553,-823.5516 1609.7642,-820.3632 1613.8687,-732.4741 1614.4368,-731.7996 1612.918,-729.9048 1608.5568,-727.3135 1608.5568,-727.3135 1612.918,-729.9048 1614.4368,-731.7996 1613.8687,-732.4741 1609.7642,-820.3632 1605.043,-819.2974 1602.8184,-818.8745 1599.6462,-818.3833 1582.2333,-816.91 1580.7083,-816.8353 1572.6188,-816.725 1556.4005,-815.1958 1547.5538,-813.651 1530.7236,-809.3495 1470.2113,-791.4936 1464.1453,-784.6699 1403.6292,-784.9429 1403.2233,-784.9337 1400.9943,-784.9428 1393.9485,-784.7808 1388.4845,-784.9464 1385.9518,-784.8172 1374.1364,-784.8452 1366.7209,-784.6615 1366.4141,-784.6703 1364.1917,-784.7932 1353.3085,-784.8049 1352.6978,-784.7725 1351.3945,-784.7728 1343.6082,-784.9821 1343.579,-784.9837 1328.2524,-785.3893 1295.7244,-787.9816 1247.4054,-770.8611 1239.715,-767.7289 1228.4706,-772.4763 1220.09,-775.3391 1209.6163,-778.6378 1192.6178,-783.08 1190.4418,-783.5892 1182.6082,-784.7939 1162.5016,-787.3501 1162.0138,-787.3989 1147.6188,-787.6838 1146.8177,-787.6567 1137.6112,-787.5957 1131.6202,-787.7185 1125.2432,-788.1952 1106.4911,-790.6204 1098.2085,-792.1404 1097.8972,-757.5774 1093.9263,-673.1783 1096.675,-673.1783 1100.2494,-676.5529 1105.6843,-678.2327 1105.6843,-678.2327 1100.2494,-676.5529 1096.675,-673.1783 1093.9263,-673.1783 1097.8972,-757.5774 1098.2085,-792.1404 1082.5284,-795.8718 1080.7352,-796.3465 1068.0829,-800.3843 1067.4377,-799.8628 964.7802,-724.8196 960.5394,-712.4734 945.856,-673.5156 943.6042,-667.9828 943.6042,-667.9828"/>
<polygon fill="#ccebc5" stroke="#ccebc5" points="1122.3231,-449.7065 1133.0514,-455.7604 1211.7808,-496.9504 1227.5669,-505.811 1236.3311,-511.3723 1241.65,-514.9421 1247.7637,-519.2689 1256.5759,-525.8275 1257.6566,-526.6705 1258.442,-527.253 1268.4039,-535.7351 1245.1868,-580.8058 1235.2778,-602.8986 1145.6522,-617.7541 1144.2875,-617.8948 1130.1439,-618.472 1127.8789,-618.7209 1127.4778,-618.7145 1122.1698,-618.2979 1116.8932,-618.611 1108.7583,-618.5823 1108.5272,-618.6135 1105.7775,-618.8101 1103.3418,-618.8315 1096.6917,-618.4719 1096.196,-618.4138 1087.1528,-617.9812 1080.6697,-617.265 1077.0006,-616.6313 1074.9348,-616.1454 1062.968,-612.5663 1062.6167,-612.6812 1039.2059,-618.9142 1027.2946,-622.7751 1029.3044,-562.8765 1027.973,-561.0179 1028.6316,-557.8942 1028.5374,-557.4217 1028.5374,-557.4217 1028.6316,-557.8942 1027.973,-561.0179 1029.3044,-562.8765 1027.2946,-622.7751 1022.5759,-624.5677 1019.9902,-625.6946 1008.016,-631.5973 989.0034,-643.0714 943.6042,-667.9828 936.9592,-662.7879 946.257,-566.322 947.3773,-558.84 947.2335,-538.1904 951.4293,-494.6579 938.4203,-488.4777 930.9172,-485.6226 927.0266,-484.3246 922.4856,-483.0209 914.8274,-481.1773 906.814,-479.6231 895.602,-478.4974 886.941,-478.0344 886.6506,-478.0324 884.3829,-478.1229 883.7202,-478.1186 880.1992,-478.2599 873.9695,-478.2206 860.1077,-476.8404 854.0886,-475.6805 845.4084,-473.6002 840.5535,-472.211 833.7165,-469.9362 828.5256,-467.9691 822.3463,-465.3412 819.7126,-464.0998 810.9347,-459.55 808.1272,-457.9658 802.7961,-454.7075 793.6477,-448.6859 781.801,-439.7788 777.1027,-436.0323 760.8948,-422.3648 749.6661,-413.8433 741.2652,-414.8102 725.8748,-417.2684 721.3273,-418.1964 715.5709,-419.4993 691.9479,-426.4435 686.5931,-428.1353 669.1101,-434.8252 632.6246,-413.2509 617.6072,-292.44 617.8547,-280.9588 616.9755,-269.3579 615.4094,-256.7594 624.3794,-249.5361 624.9199,-249.1422 633.4776,-243.519 643.1948,-238.5349 650.6343,-235.2644 681.2498,-224.0844 691.0987,-219.7553 693.9034,-218.3227 694.6918,-217.8623 706.3327,-210.1611 711.063,-206.6892 711.7117,-206.1656 723.1278,-196.0587 731.8143,-187.7376 736.5018,-182.57 741.4171,-178.184 753.4797,-165.9812 769.3831,-146.9794 770.541,-145.457 779.2045,-151.4044 789.4269,-158.0636 796.6221,-162.242 794.8942,-271.4572 791.6936,-274.7694 789.9774,-275.3003 787.3279,-277.4489 783.5444,-277.4489 782.3611,-277.0766 777.9565,-277.0766 777.9563,-277.0765 773.8344,-277.0765 772.3403,-277.5453 767.6176,-277.5453 763.5639,-320.0125 760.5132,-277.2709 756.4908,-277.2709 755.8508,-277.0668 755.8508,-277.0668 756.4908,-277.2709 760.5132,-277.2709 763.5639,-320.0125 767.6176,-277.5453 772.3403,-277.5453 773.8344,-277.0765 777.9563,-277.0765 777.9565,-277.0766 782.3611,-277.0766 783.5444,-277.4489 787.3279,-277.4489 789.9774,-275.3003 791.6936,-274.7694 794.8942,-271.4572 796.6221,-162.242 823.9179,-177.1366 829.3302,-184.2484 850.7696,-216.7243 852.7655,-265.0068 853.4929,-272.55 852.7712,-283.1469 854.7502,-331.0186 884.7928,-338.5851 889.2261,-339.277 901.2944,-340.5882 903.6962,-340.7339 905.6328,-340.7592 908.4016,-340.9296 912.8886,-340.9912 920.5165,-340.7304 922.3199,-340.5822 923.8045,-340.6044 929.5314,-340.4165 929.5997,-340.411 934.774,-340.2444 938.4809,-340.3047 940.0504,-340.4831 953.0165,-340.7116 953.5626,-340.6689 956.8593,-340.5711 963.34,-340.693 964.2746,-340.666 965.3505,-340.5835 966.2706,-340.5575 971.4874,-340.6619 973.9753,-340.5931 976.5091,-340.7685 981.4316,-340.8737 986.4636,-340.7404 992.9108,-340.8823 994.6804,-341.0068 1002.7021,-348.5568 1041.986,-390.1394 1059.2686,-406.5754 1069.1814,-417.5859 1072.4292,-421.4475 1077.5078,-426.7001 1078.8202,-428.1427 1089.1593,-440.2126 1092.3684,-444.1661 1092.5259,-444.3816 1095.274,-444.4302 1100.9342,-444.3691 1102.1146,-444.4167 1112.6744,-444.5408 1114.2854,-444.5136 1122.3231,-449.7065 1122.3231,-449.7065"/>
<polygon fill="#fdd9a7" stroke="#fdd9a7" points="920.4792,-840.1888 926.7795,-844.5318 933.5241,-844.5318 938.7067,-841.2022 939.3712,-840.3344 932.5856,-835.663 926.9279,-835.663 920.5839,-839.8408 922.9667,-769.3384 914.6945,-776.9738 906.3968,-783.8184 859.4706,-817.7625 857.9543,-766.8217 852.6368,-762.0163 852.1843,-761.8559 851.1119,-760.8948 850.858,-759.4658 850.7755,-759.3452 846.0587,-756.1889 846.0587,-756.1889 850.7755,-759.3452 850.858,-759.4658 851.1119,-760.8948 852.1843,-761.8559 852.6368,-762.0163 857.9543,-766.8217 859.4706,-817.7625 906.3968,-783.8184 914.6945,-776.9738 922.9667,-769.3384 920.5839,-839.8408 926.9279,-835.663 932.5856,-835.663 939.3712,-840.3344 938.7067,-841.2022 933.5241,-844.5318 926.7795,-844.5318 920.4792,-840.1888 925.0389,-941.1412 924.3238,-976.5004 920.8683,-975.9205 903.1231,-973.3748 900.5952,-973.0745 845.0218,-952.5454 813.4904,-931.4876 794.1102,-911.3424 782.6153,-894.1066 781.6268,-893.5272 728.3221,-820.9597 719.444,-806.6759 704.2573,-760.49 694.311,-736.4999 712.8152,-675.2117 652.7308,-576.937 657.9094,-547.64 669.1101,-434.8252 686.5931,-428.1353 691.9479,-426.4435 715.5709,-419.4993 721.3273,-418.1964 725.8748,-417.2684 741.2652,-414.8102 749.6661,-413.8433 760.8948,-422.3648 777.1027,-436.0323 781.801,-439.7788 784.7226,-544.9066 784.7226,-544.9066 781.801,-439.7788 793.6477,-448.6859 802.7961,-454.7075 808.1272,-457.9658 810.9347,-459.55 819.7126,-464.0998 822.3463,-465.3412 828.5256,-467.9691 833.7165,-469.9362 840.5535,-472.211 845.4084,-473.6002 854.0886,-475.6805 860.1077,-476.8404 873.9695,-478.2206 880.1992,-478.2599 883.7202,-478.1186 884.3829,-478.1229 886.6506,-478.0324 886.941,-478.0344 895.602,-478.4974 906.814,-479.6231 914.8274,-481.1773 922.4856,-483.0209 927.0266,-484.3246 930.9172,-485.6226 938.4203,-488.4777 951.4293,-494.6579 947.2335,-538.1904 947.3773,-558.84 946.257,-566.322 885.923,-552.9078 883.4119,-549.8491 879.2744,-548.2928 878.7178,-547.8382 875.5813,-547.8382 874.9362,-547.6305 868.3368,-547.6305 867.7656,-547.4472 863.9169,-547.4472 863.9169,-547.4472 867.7656,-547.4472 868.3368,-547.6305 874.9362,-547.6305 875.5813,-547.8382 878.7178,-547.8382 879.2744,-548.2928 883.4119,-549.8491 885.923,-552.9078 946.257,-566.322 936.9592,-662.7879 943.6042,-667.9828 945.856,-673.5156 960.5394,-712.4734 964.7802,-724.8196 1067.4377,-799.8628 1068.0829,-800.3843 1054.963,-840.25 1045.0935,-882.5778 1025.5702,-947.5621 1015.4809,-978.2192 1000.4081,-984.6554 965.666,-987.8139 950.2182,-982.9515 949.8209,-959.696 949.8209,-959.696 950.2182,-982.9515 942.2482,-980.8315 924.3238,-976.5004 925.0389,-941.1412 920.4792,-840.1888 920.4792,-840.1888"/>
<polyline fill="none" stroke="#000000" points="1364.6599,-1040.7083 1347.3684,-1033.9513 1295.7244,-1016.5518 1242.9142,-1021.4879 1234.2045,-1022.7528 1218.5554,-1025.8394 1212.1696,-1027.4285 1211.5,-1027.2885 1205.9955,-1026.2765 1188.8646,-1023.9871 1187.7311,-1023.8644 1184.1418,-1023.6562 1170.8857,-1023.2205 1160.9182,-1023.3954 1157.5118,-1023.5411 1152.6035,-1022.4902 1137.7765,-1020.0947 1120.7814,-1017.7989 1015.4809,-978.2192 1025.5702,-947.5621 1045.0935,-882.5778 1054.963,-840.25 1068.0829,-800.3843 1080.7352,-796.3465 1082.5284,-795.8718 1098.2085,-792.1404 1106.4911,-790.6204 1125.2432,-788.1952 1131.6202,-787.7185 1137.6112,-787.5957 1146.8177,-787.6567 1147.6188,-787.6838 1162.0138,-787.3989 1162.5016,-787.3501 1182.6082,-784.7939 1190.4418,-783.5892 1192.6178,-783.08 1209.6163,-778.6378 1220.09,-775.3391 1228.4706,-772.4763 1239.715,-767.7289 1247.4054,-770.8611 1295.7244,-787.9816 1328.2524,-785.3893 1343.579,-784.9837 1343.6082,-784.9821 1351.3945,-784.7728 1352.6978,-784.7725 1353.3085,-784.8049 1364.1917,-784.7932 1366.4141,-784.6703 1366.7209,-784.6615 1374.1364,-784.8452 1385.9518,-784.8172 1388.4845,-784.9464 1393.9485,-784.7808 1400.9943,-784.9428 1403.2233,-784.9337 1403.6292,-784.9429 1464.1453,-784.6699 1470.2113,-791.4936 1530.7236,-809.3495 1547.5538,-813.651 1556.4005,-815.1958 1572.6188,-816.725 1580.7083,-816.8353 1582.2333,-816.91 1599.6462,-818.3833 1602.8184,-818.8745 1605.043,-819.2974 1609.7642,-820.3632 1621.9553,-823.5516 1624.0471,-824.172 1628.1489,-825.5336 1633.3142,-827.4322 1675.0939,-890.9504 1703.3918,-928.736 1709.3307,-936.2863 1692.0254,-967.9196 1634.4448,-1017.4513 1573.093,-1020.2507 1570.0741,-1020.0381 1548.2499,-1020.3434 1547.4415,-1020.3775 1530.8358,-1022.0129 1475.0642,-1029.0662 1470.2113,-1028.6567 1403.9009,-1057.4004 1399.9493,-1059.3043 1388.7279,-1052.8069 1383.922,-1050.283 1365.2008,-1040.9482 1364.6599,-1040.7083 "/>
<polyline fill="none" stroke="#000000" points="1496.5956,-191.5807 1484.4163,-197.1449 1466.9325,-205.8798 1429.4873,-225.3678 1408.5762,-215.314 1404.174,-207.511 1384.224,-190.6243 1340.1008,-150.4905 1330.0585,-141.7711 1321.3947,-134.6187 1311.9253,-127.6116 1308.6492,-125.0251 1296.7424,-116.703 1286.3333,-110.3736 1274.4772,-104.2341 1264.9371,-100.1573 1257.6442,-97.3724 1248.2922,-94.6457 1240.9529,-92.8382 1217.423,-88.1132 1204.1993,-84.8822 1195.868,-82.1326 1185.5901,-78.3009 1184.1505,-77.7042 1157.7781,-90.282 1124.2423,-80.0768 1119.5646,-78.9217 1115.3912,-78.1294 1103.9418,-76.6069 1101.4908,-76.4222 1101.2001,-76.4169 1097.116,-76.5753 1092.9584,-76.479 1087.9705,-76.6503 1085.1537,-76.5719 1080.243,-76.7175 1076.0452,-76.319 1073.6813,-76.2313 1065.1115,-76.9013 1062.0348,-76.7584 1057.6257,-76.8069 1054.2032,-76.6321 1042.4713,-77.3805 1029.7147,-79.6579 997.8543,-88.9677 992.5645,-81.402 977.4332,-57.4039 926.9709,-57.463 925.9056,-57.5659 920.8902,-57.5447 918.4465,-57.2873 918.1528,-57.2845 915.1478,-57.5443 905.3052,-57.3944 903.9088,-57.6419 895.2754,-57.4179 893.181,-57.5632 892.7526,-57.6341 891.457,-57.7168 886.1066,-57.5203 880.7538,-57.8357 871.2036,-59.3166 865.4992,-60.7368 863.2792,-61.4951 858.6227,-63.5305 801.5692,-94.0315 782.2825,-102.6497 760.782,-111.5223 760.782,-46.0209 761.6938,-18 760.782,-3.9895 760.782,104.5882 802.7186,111.6559 848.1672,106.0701 864.6038,104.4699 882.1041,103.6683 891.1827,103.9544 908.5452,105.3977 911.2092,105.6875 914.3255,106.1065 933.7919,109.7311 972.3503,117.8909 977.4332,115.8374 1021.3705,115.2013 1033.3591,115.3017 1038.8112,115.472 1047.6451,115.9502 1053.1746,116.3759 1060.4193,117.099 1061.1104,116.8098 1065.697,115.1287 1071.1732,113.2625 1081.2697,110.0816 1096.1853,106.1542 1106.8157,103.9094 1109.2625,103.4566 1123.8918,101.5059 1124.062,101.4876 1160.8534,98.4914 1184.1505,90.5453 1238.4091,100.769 1251.2415,103.5338 1267.7659,107.9814 1271.4435,109.068 1274.6364,110.0956 1275.6263,110.4405 1292.8273,117.3665 1305.0846,123.2932 1306.4373,123.0495 1322.8982,120.8133 1327.2985,120.4116 1341.1792,119.4523 1394.4601,116.9568 1404.174,109.5498 1475.2177,99.6833 1489.2057,98.5115 1495.8575,98.3215 1506.6736,98.3113 1511.5806,98.5777 1521.2819,99.373 1535.2235,100.9013 1578.8138,106.8727 1583.2761,109.5087 1621.488,104.9603 1634.9136,103.6984 1645.9797,102.9378 1652.4181,102.6582 1655.7242,102.5982 1677.4224,103.8485 1678.1613,103.9283 1692.3157,105.8139 1694.0493,106.0882 1697.0717,106.6424 1698.941,107.0323 1708.3933,109.2442 1724.8632,113.9361 1725.0266,113.9681 1729.3444,115.0209 1734.245,113.7436 1745.9384,111.2628 1781.8815,104.513 1817.7758,83.747 1852.9351,46.9539 1856.5868,21.9644 1858.4709,-1.2035 1859.2408,-8.3161 1855.2539,-26.2438 1849.9962,-58.0258 1829.0404,-104.9088 1754.3123,-142.8175 1743.6747,-141.1025 1725.5787,-139.0957 1709.491,-138.5325 1704.317,-138.4822 1697.8849,-138.7443 1683.3711,-140.0698 1670.2958,-141.9243 1667.2949,-142.5009 1665.4773,-142.4221 1654.6158,-142.2164 1654.0516,-142.2333 1639.9689,-142.9986 1624.6209,-144.5834 1578.8138,-150.4264 1530.0983,-177.1841 1521.7367,-182.2156 1505.1827,-188.0247 1496.5956,-191.5807 "/>
<polyline fill="none" stroke="#000000" points="-82.0969,-438.4261 -86.9156,-423.2092 -85.2576,-412.0006 -87.1724,-382.4997 -90.2343,-348.154 -93.4934,-324.3249 -79.8181,-308.4192 -17.6895,-255.9926 -14.517,-250.1186 16.0928,-189.2658 17.7012,-187.9686 93.6492,-168.3743 99.186,-166.785 102.3008,-167.1618 118.5999,-167.8165 138.2426,-167.5447 208.3106,-164.6882 224.6829,-239.431 230.9488,-245.427 232.5788,-246.8946 236.3981,-250.8029 241.4321,-256.3101 244.2092,-259.1468 246.9661,-261.7707 250.7643,-265.1298 260.551,-273.1391 268.8429,-279.3509 269.3534,-279.697 281.9306,-287.379 327.4477,-311.897 332.3095,-314.8505 344.3004,-322.9702 349.8792,-327.1102 353.3275,-330.1302 355.8381,-332.5075 368.1889,-343.2917 371.4749,-354.947 374.7795,-365.3256 394.1417,-419.9996 386.5048,-429.7498 378.0056,-457.89 365.8682,-513.0584 300.1035,-585.2452 253.9328,-584.2763 248.2311,-584.4359 231.7344,-585.7081 223.2856,-586.5663 222.8124,-586.6259 219.0024,-587.199 217.6487,-587.1105 214.0688,-587.048 202.8614,-587.1216 104.0213,-634.7867 99.8907,-637.005 81.8733,-647.6986 79.4061,-647.3159 64.4384,-645.897 59.4972,-645.6273 24.548,-644.4199 -70.2011,-529.6312 -69.3979,-512.9433 -69.3875,-482.1202 -82.0969,-438.4261 "/>
<polyline fill="none" stroke="#000000" points="372.4107,-126.0444 369.6135,-126.691 357.2459,-128.9004 346.661,-130.511 332.0074,-131.5777 324.8969,-131.9068 276.8035,-132.8589 229.7808,-151.5165 209.7878,-163.0641 208.3106,-164.6882 224.6829,-239.431 230.9488,-245.427 232.5788,-246.8946 236.3981,-250.8029 241.4321,-256.3101 244.2092,-259.1468 246.9661,-261.7707 250.7643,-265.1298 260.551,-273.1391 268.8429,-279.3509 269.3534,-279.697 281.9306,-287.379 327.4477,-311.897 332.3095,-314.8505 344.3004,-322.9702 349.8792,-327.1102 353.3275,-330.1302 355.8381,-332.5075 368.1889,-343.2917 371.4749,-354.947 374.7795,-365.3256 394.1417,-419.9996 445.3232,-411.1845 464.8626,-408.8427 478.4538,-408.2889 485.3747,-408.3712 493.1763,-408.6693 503.6101,-409.6176 512.7764,-410.9344 512.9598,-410.9063 522.8718,-409.6508 533.3674,-408.8738 549.2766,-408.5328 551.6862,-408.6078 632.6246,-413.2509 617.6072,-292.44 617.8547,-280.9588 616.9755,-269.3579 615.4094,-256.7594 624.3794,-249.5361 624.9199,-249.1422 633.4776,-243.519 643.1948,-238.5349 650.6343,-235.2644 681.2498,-224.0844 691.0987,-219.7553 693.9034,-218.3227 694.6918,-217.8623 706.3327,-210.1611 711.063,-206.6892 711.7117,-206.1656 723.1278,-196.0587 731.8143,-187.7376 736.5018,-182.57 741.4171,-178.184 753.4797,-165.9812 769.3831,-146.9794 770.541,-145.457 779.2045,-151.4044 789.4269,-158.0636 796.6221,-162.242 823.9179,-177.1366 829.3302,-184.2484 850.7696,-216.7243 852.7655,-265.0068 853.4929,-272.55 852.7712,-283.1469 854.7502,-331.0186 884.7928,-338.5851 889.2261,-339.277 901.2944,-340.5882 903.6962,-340.7339 905.6328,-340.7592 908.4016,-340.9296 912.8886,-340.9912 920.5165,-340.7304 922.3199,-340.5822 923.8045,-340.6044 929.5314,-340.4165 929.5997,-340.411 934.774,-340.2444 938.4809,-340.3047 940.0504,-340.4831 953.0165,-340.7116 953.5626,-340.6689 956.8593,-340.5711 963.34,-340.693 964.2746,-340.666 965.3505,-340.5835 966.2706,-340.5575 971.4874,-340.6619 973.9753,-340.5931 976.5091,-340.7685 981.4316,-340.8737 986.4636,-340.7404 992.9108,-340.8823 994.6804,-341.0068 1002.7021,-348.5568 1041.986,-390.1394 1059.2686,-406.5754 1069.1814,-417.5859 1072.4292,-421.4475 1077.5078,-426.7001 1078.8202,-428.1427 1089.1593,-440.2126 1092.3684,-444.1661 1092.5259,-444.3816 1095.274,-444.4302 1100.9342,-444.3691 1102.1146,-444.4167 1112.6744,-444.5408 1114.2854,-444.5136 1122.3231,-449.7065 1133.0514,-455.7604 1211.7808,-496.9504 1227.5669,-505.811 1236.3311,-511.3723 1241.65,-514.9421 1247.7637,-519.2689 1256.5759,-525.8275 1257.6566,-526.6705 1258.442,-527.253 1268.4039,-535.7351 1273.1573,-534.7522 1281.2356,-533.2599 1295.3302,-530.9683 1322.4092,-528.3659 1336.8257,-526.6584 1339.9535,-526.2187 1353.4664,-523.7158 1361.412,-521.8902 1375.8057,-518.262 1386.2098,-514.9471 1388.1112,-514.2991 1405.993,-507.8033 1425.8724,-499.7109 1466.0092,-448.2692 1471.7135,-441.2267 1456.6487,-363.3673 1445.7141,-292.217 1429.4873,-225.3678 1408.5762,-215.314 1404.174,-207.511 1384.224,-190.6243 1340.1008,-150.4905 1330.0585,-141.7711 1321.3947,-134.6187 1311.9253,-127.6116 1308.6492,-125.0251 1296.7424,-116.703 1286.3333,-110.3736 1274.4772,-104.2341 1264.9371,-100.1573 1257.6442,-97.3724 1248.2922,-94.6457 1240.9529,-92.8382 1217.423,-88.1132 1204.1993,-84.8822 1195.868,-82.1326 1185.5901,-78.3009 1184.1505,-77.7042 1157.7781,-90.282 1124.2423,-80.0768 1119.5646,-78.9217 1115.3912,-78.1294 1103.9418,-76.6069 1101.4908,-76.4222 1101.2001,-76.4169 1097.116,-76.5753 1092.9584,-76.479 1087.9705,-76.6503 1085.1537,-76.5719 1080.243,-76.7175 1076.0452,-76.319 1073.6813,-76.2313 1065.1115,-76.9013 1062.0348,-76.7584 1057.6257,-76.8069 1054.2032,-76.6321 1042.4713,-77.3805 1029.7147,-79.6579 997.8543,-88.9677 992.5645,-81.402 977.4332,-57.4039 926.9709,-57.463 925.9056,-57.5659 920.8902,-57.5447 918.4465,-57.2873 918.1528,-57.2845 915.1478,-57.5443 905.3052,-57.3944 903.9088,-57.6419 895.2754,-57.4179 893.181,-57.5632 892.7526,-57.6341 891.457,-57.7168 886.1066,-57.5203 880.7538,-57.8357 871.2036,-59.3166 865.4992,-60.7368 863.2792,-61.4951 858.6227,-63.5305 801.5692,-94.0315 782.2825,-102.6497 760.782,-111.5223 760.782,-46.0209 761.6938,-18 760.782,-3.9895 760.782,104.5882 750.1225,110.6721 730.5992,111.7631 669.7826,107.1808 662.6285,106.8228 648.9955,106.4861 644.6776,106.5987 626.2473,107.5477 623.9355,107.9014 619.7303,107.7363 606.3621,105.0623 602.015,104.4227 524.6182,76.3427 501.3971,39.4253 492.5129,7.9282 480.0433,-32.0888 474.2022,-48.0493 444.0669,-64.4878 403.3793,-116.3595 402.6888,-116.629 387.6972,-121.6928 372.4107,-126.0444 "/>
<polyline fill="none" stroke="#000000" points="1616.0684,-465.4195 1614.5902,-465.4427 1606.2574,-465.3953 1601.089,-465.2553 1585.0391,-464.1335 1564.9254,-461.4353 1559.2245,-460.4282 1471.7135,-441.2267 1466.0092,-448.2692 1425.8724,-499.7109 1405.993,-507.8033 1388.1112,-514.2991 1386.2098,-514.9471 1375.8057,-518.262 1361.412,-521.8902 1353.4664,-523.7158 1339.9535,-526.2187 1336.8257,-526.6584 1322.4092,-528.3659 1295.3302,-530.9683 1281.2356,-533.2599 1273.1573,-534.7522 1268.4039,-535.7351 1245.1868,-580.8058 1235.2778,-602.8986 1145.6522,-617.7541 1144.2875,-617.8948 1130.1439,-618.472 1127.8789,-618.7209 1127.4778,-618.7145 1122.1698,-618.2979 1116.8932,-618.611 1108.7583,-618.5823 1108.5272,-618.6135 1105.7775,-618.8101 1103.3418,-618.8315 1096.6917,-618.4719 1096.196,-618.4138 1087.1528,-617.9812 1080.6697,-617.265 1077.0006,-616.6313 1074.9348,-616.1454 1062.968,-612.5663 1062.6167,-612.6812 1039.2059,-618.9142 1027.2946,-622.7751 1022.5759,-624.5677 1019.9902,-625.6946 1008.016,-631.5973 989.0034,-643.0714 943.6042,-667.9828 945.856,-673.5156 960.5394,-712.4734 964.7802,-724.8196 1067.4377,-799.8628 1068.0829,-800.3843 1080.7352,-796.3465 1082.5284,-795.8718 1098.2085,-792.1404 1106.4911,-790.6204 1125.2432,-788.1952 1131.6202,-787.7185 1137.6112,-787.5957 1146.8177,-787.6567 1147.6188,-787.6838 1162.0138,-787.3989 1162.5016,-787.3501 1182.6082,-784.7939 1190.4418,-783.5892 1192.6178,-783.08 1209.6163,-778.6378 1220.09,-775.3391 1228.4706,-772.4763 1239.715,-767.7289 1247.4054,-770.8611 1295.7244,-787.9816 1328.2524,-785.3893 1343.579,-784.9837 1343.6082,-784.9821 1351.3945,-784.7728 1352.6978,-784.7725 1353.3085,-784.8049 1364.1917,-784.7932 1366.4141,-784.6703 1366.7209,-784.6615 1374.1364,-784.8452 1385.9518,-784.8172 1388.4845,-784.9464 1393.9485,-784.7808 1400.9943,-784.9428 1403.2233,-784.9337 1403.6292,-784.9429 1464.1453,-784.6699 1470.2113,-791.4936 1530.7236,-809.3495 1547.5538,-813.651 1556.4005,-815.1958 1572.6188,-816.725 1580.7083,-816.8353 1582.2333,-816.91 1599.6462,-818.3833 1602.8184,-818.8745 1605.043,-819.2974 1609.7642,-820.3632 1621.9553,-823.5516 1624.0471,-824.172 1628.1489,-825.5336 1633.3142,-827.4322 1675.0939,-890.9504 1703.3918,-928.736 1709.3307,-936.2863 1723.1978,-931.1642 1727.2821,-929.755 1740.7991,-926.0608 1762.5979,-921.1471 1770.0024,-920.0168 1772.4894,-919.6971 1778.261,-919.0936 1785.5504,-918.5066 1799.3265,-917.7288 1811.9731,-918.2336 1820.7261,-918.7944 1834.9263,-920.0464 1845.1858,-921.1963 1925.1628,-879.0372 1951.549,-860.4924 1959.4717,-829.4098 1946.0983,-792.09 1915.2118,-679.48 1944.3824,-639.9294 1948.1239,-628.9741 1956.7095,-597.2678 1951.8289,-563.5154 1951.5587,-561.2371 1951.2059,-555.9629 1921.1161,-467.4684 1874.2407,-439.7065 1836.1469,-441.6271 1820.2189,-442.0226 1813.118,-441.835 1811.4227,-441.7469 1800.098,-440.8678 1794.962,-440.2062 1783.7399,-438.4722 1770.3318,-435.7133 1763.6489,-433.997 1758.8347,-432.6375 1741.2823,-426.7725 1718.5128,-418.5891 1644.7933,-463.2178 1627.0975,-465.0107 1616.0684,-465.4195 "/>
<polyline fill="none" stroke="#000000" points="741.2652,-414.8102 749.6661,-413.8433 760.8948,-422.3648 777.1027,-436.0323 781.801,-439.7788 793.6477,-448.6859 802.7961,-454.7075 808.1272,-457.9658 810.9347,-459.55 819.7126,-464.0998 822.3463,-465.3412 828.5256,-467.9691 833.7165,-469.9362 840.5535,-472.211 845.4084,-473.6002 854.0886,-475.6805 860.1077,-476.8404 873.9695,-478.2206 880.1992,-478.2599 883.7202,-478.1186 884.3829,-478.1229 886.6506,-478.0324 886.941,-478.0344 895.602,-478.4974 906.814,-479.6231 914.8274,-481.1773 922.4856,-483.0209 927.0266,-484.3246 930.9172,-485.6226 938.4203,-488.4777 951.4293,-494.6579 947.2335,-538.1904 947.3773,-558.84 946.257,-566.322 936.9592,-662.7879 943.6042,-667.9828 989.0034,-643.0714 1008.016,-631.5973 1019.9902,-625.6946 1022.5759,-624.5677 1027.2946,-622.7751 1039.2059,-618.9142 1062.6167,-612.6812 1062.968,-612.5663 1074.9348,-616.1454 1077.0006,-616.6313 1080.6697,-617.265 1087.1528,-617.9812 1096.196,-618.4138 1096.6917,-618.4719 1103.3418,-618.8315 1105.7775,-618.8101 1108.5272,-618.6135 1108.7583,-618.5823 1116.8932,-618.611 1122.1698,-618.2979 1127.4778,-618.7145 1127.8789,-618.7209 1130.1439,-618.472 1144.2875,-617.8948 1145.6522,-617.7541 1235.2778,-602.8986 1245.1868,-580.8058 1268.4039,-535.7351 1258.442,-527.253 1257.6566,-526.6705 1256.5759,-525.8275 1247.7637,-519.2689 1241.65,-514.9421 1236.3311,-511.3723 1227.5669,-505.811 1211.7808,-496.9504 1133.0514,-455.7604 1122.3231,-449.7065 1114.2854,-444.5136 1112.6744,-444.5408 1102.1146,-444.4167 1100.9342,-444.3691 1095.274,-444.4302 1092.5259,-444.3816 1092.3684,-444.1661 1089.1593,-440.2126 1078.8202,-428.1427 1077.5078,-426.7001 1072.4292,-421.4475 1069.1814,-417.5859 1059.2686,-406.5754 1041.986,-390.1394 1002.7021,-348.5568 994.6804,-341.0068 992.9108,-340.8823 986.4636,-340.7404 981.4316,-340.8737 976.5091,-340.7685 973.9753,-340.5931 971.4874,-340.6619 966.2706,-340.5575 965.3505,-340.5835 964.2746,-340.666 963.34,-340.693 956.8593,-340.5711 953.5626,-340.6689 953.0165,-340.7116 940.0504,-340.4831 938.4809,-340.3047 934.774,-340.2444 929.5997,-340.411 929.5314,-340.4165 923.8045,-340.6044 922.3199,-340.5822 920.5165,-340.7304 912.8886,-340.9912 908.4016,-340.9296 905.6328,-340.7592 903.6962,-340.7339 901.2944,-340.5882 889.2261,-339.277 884.7928,-338.5851 854.7502,-331.0186 852.7712,-283.1469 853.4929,-272.55 852.7655,-265.0068 850.7696,-216.7243 829.3302,-184.2484 823.9179,-177.1366 796.6221,-162.242 789.4269,-158.0636 779.2045,-151.4044 770.541,-145.457 769.3831,-146.9794 753.4797,-165.9812 741.4171,-178.184 736.5018,-182.57 731.8143,-187.7376 723.1278,-196.0587 711.7117,-206.1656 711.063,-206.6892 706.3327,-210.1611 694.6918,-217.8623 693.9034,-218.3227 691.0987,-219.7553 681.2498,-224.0844 650.6343,-235.2644 643.1948,-238.5349 633.4776,-243.519 624.9199,-249.1422 624.3794,-249.5361 615.4094,-256.7594 616.9755,-269.3579 617.8547,-280.9588 617.6072,-292.44 632.6246,-413.2509 669.1101,-434.8252 686.5931,-428.1353 691.9479,-426.4435 715.5709,-419.4993 721.3273,-418.1964 725.8748,-417.2684 741.2652,-414.8102 "/>
<polyline fill="none" stroke="#000000" points="840.5535,-472.211 833.7165,-469.9362 828.5256,-467.9691 822.3463,-465.3412 819.7126,-464.0998 810.9347,-459.55 808.1272,-457.9658 802.7961,-454.7075 793.6477,-448.6859 781.801,-439.7788 777.1027,-436.0323 760.8948,-422.3648 749.6661,-413.8433 741.2652,-414.8102 725.8748,-417.2684 721.3273,-418.1964 715.5709,-419.4993 691.9479,-426.4435 686.5931,-428.1353 669.1101,-434.8252 657.9094,-547.64 652.7308,-576.937 712.8152,-675.2117 694.311,-736.4999 704.2573,-760.49 719.444,-806.6759 728.3221,-820.9597 781.6268,-893.5272 782.6153,-894.1066 794.1102,-911.3424 813.4904,-931.4876 845.0218,-952.5454 900.5952,-973.0745 903.1231,-973.3748 920.8683,-975.9205 924.3238,-976.5004 942.2482,-980.8315 950.2182,-982.9515 965.666,-987.8139 1000.4081,-984.6554 1015.4809,-978.2192 1025.5702,-947.5621 1045.0935,-882.5778 1054.963,-840.25 1068.0829,-800.3843 1067.4377,-799.8628 964.7802,-724.8196 960.5394,-712.4734 945.856,-673.5156 943.6042,-667.9828 936.9592,-662.7879 946.257,-566.322 947.3773,-558.84 947.2335,-538.1904 951.4293,-494.6579 938.4203,-488.4777 930.9172,-485.6226 927.0266,-484.3246 922.4856,-483.0209 914.8274,-481.1773 906.814,-479.6231 895.602,-478.4974 886.941,-478.0344 886.6506,-478.0324 884.3829,-478.1229 883.7202,-478.1186 880.1992,-478.2599 873.9695,-478.2206 860.1077,-476.8404 854.0886,-475.6805 845.4084,-473.6002 840.5535,-472.211 "/>
<!-- authconfig&#45;&gt;python3&#45;sssdconfig -->
<g id="edge1" class="edge">
<title>authconfig&#45;&gt;python3&#45;sssdconfig</title>
<path fill="none" stroke="#444444" stroke-opacity="0.333333" d="M1310.214,-902C1310.0506,-902 1309.8871,-902 1309.7234,-902"/>
<polygon fill="#444444" fill-opacity="0.333333" stroke="#444444" stroke-opacity="0.333333" points="1312.2867,-898.5001 1302.2867,-902 1312.2866,-905.5001 1312.2867,-898.5001"/>
</g>
<!-- firewalld&#45;&gt;firewalld&#45;filesystem -->
<g id="edge2" class="edge">
<title>firewalld&#45;&gt;firewalld&#45;filesystem</title>
<path fill="none" stroke="#444444" stroke-opacity="0.333333" d="M1559.7071,-18C1559.7902,-18 1559.8734,-18 1559.9566,-18"/>
<polygon fill="#444444" fill-opacity="0.333333" stroke="#444444" stroke-opacity="0.333333" points="1557.8032,-21.5001 1567.8032,-18 1557.8031,-14.5001 1557.8032,-21.5001"/>
</g>
<!-- firewalld&#45;&gt;python3&#45;firewall -->
<g id="edge3" class="edge">
<title>firewalld&#45;&gt;python3&#45;firewall</title>
<path fill="none" stroke="#444444" stroke-opacity="0.333333" d="M1441.3482,-18C1427.3004,-18 1411.8846,-18 1396.4211,-18"/>
<polygon fill="#444444" fill-opacity="0.333333" stroke="#444444" stroke-opacity="0.333333" points="1396.2665,-14.5001 1386.2665,-18 1396.2664,-21.5001 1396.2665,-14.5001"/>
</g>
<!-- python3&#45;firewall&#45;&gt;python3&#45;slip&#45;dbus -->
<g id="edge4" class="edge">
<title>python3&#45;firewall&#45;&gt;python3&#45;slip&#45;dbus</title>
<path fill="none" stroke="#444444" stroke-opacity="0.333333" d="M1191.8505,-18C1191.0528,-18 1190.2545,-18 1189.4557,-18"/>
<polygon fill="#444444" fill-opacity="0.333333" stroke="#444444" stroke-opacity="0.333333" points="1189.0575,-14.5001 1179.0575,-18 1189.0574,-21.5001 1189.0575,-14.5001"/>
</g>
<!-- python3&#45;slip&#45;dbus&#45;&gt;python3&#45;slip -->
<g id="edge5" class="edge">
<title>python3&#45;slip&#45;dbus&#45;&gt;python3&#45;slip</title>
<path fill="none" stroke="#444444" stroke-opacity="0.333333" d="M974.6039,-18C974.4465,-18 974.2891,-18 974.1318,-18"/>
<polygon fill="#444444" fill-opacity="0.333333" stroke="#444444" stroke-opacity="0.333333" points="977.0844,-14.5001 967.0843,-18 977.0843,-21.5001 977.0844,-14.5001"/>
</g>
<!-- libmbim&#45;&gt;libgudev -->
<g id="edge6" class="edge">
<title>libmbim&#45;&gt;libgudev</title>
<path fill="none" stroke="#444444" stroke-opacity="0.333333" d="M72.41,-438.2285C74.2194,-448.6096 76.5283,-461.8566 78.5709,-473.5755"/>
<polygon fill="#444444" fill-opacity="0.333333" stroke="#444444" stroke-opacity="0.333333" points="75.1847,-474.5318 80.3499,-483.7822 82.0807,-473.3298 75.1847,-474.5318"/>
</g>
<!-- libmbim&#45;utils&#45;&gt;libmbim -->
<g id="edge7" class="edge">
<title>libmbim&#45;utils&#45;&gt;libmbim</title>
<path fill="none" stroke="#444444" stroke-opacity="0.333333" d="M148.5158,-439.8661C141.4521,-438.1021 134.3472,-436.3278 127.4475,-434.6048"/>
<polygon fill="#444444" fill-opacity="0.333333" stroke="#444444" stroke-opacity="0.333333" points="128.0645,-431.1514 117.5144,-432.1242 126.3684,-437.9429 128.0645,-431.1514"/>
</g>
<!-- libmbim&#45;utils&#45;&gt;libgudev -->
<g id="edge8" class="edge">
<title>libmbim&#45;utils&#45;&gt;libgudev</title>
<path fill="none" stroke="#444444" stroke-opacity="0.333333" d="M164.4962,-475.9134C158.8079,-477.7379 153.0019,-479.6001 147.2417,-481.4476"/>
<polygon fill="#444444" fill-opacity="0.333333" stroke="#444444" stroke-opacity="0.333333" points="146.0734,-478.1466 137.6201,-484.5336 148.2113,-484.8122 146.0734,-478.1466"/>
</g>
<!-- libqmi&#45;&gt;libmbim -->
<g id="edge9" class="edge">
<title>libqmi&#45;&gt;libmbim</title>
<path fill="none" stroke="#444444" stroke-opacity="0.333333" d="M104.9858,-308.9011C98.015,-330.5833 86.318,-366.9658 78.213,-392.1757"/>
<polygon fill="#444444" fill-opacity="0.333333" stroke="#444444" stroke-opacity="0.333333" points="74.818,-391.3005 75.0893,-401.8919 81.4821,-393.4431 74.818,-391.3005"/>
</g>
<!-- libqmi&#45;utils&#45;&gt;libmbim -->
<g id="edge10" class="edge">
<title>libqmi&#45;utils&#45;&gt;libmbim</title>
<path fill="none" stroke="#444444" stroke-opacity="0.333333" d="M73.5484,-377.841C73.0985,-382.2554 72.6066,-387.0826 72.1213,-391.845"/>
<polygon fill="#444444" fill-opacity="0.333333" stroke="#444444" stroke-opacity="0.333333" points="68.6202,-391.6784 71.0883,-401.9818 75.5842,-392.3882 68.6202,-391.6784"/>
</g>
<!-- libqmi&#45;utils&#45;&gt;libgudev -->
<g id="edge11" class="edge">
<title>libqmi&#45;utils&#45;&gt;libgudev</title>
<path fill="none" stroke="#444444" stroke-opacity="0.333333" d="M76.4205,-377.7434C77.7967,-401.8566 80.2536,-444.9044 81.8818,-473.4313"/>
<polygon fill="#444444" fill-opacity="0.333333" stroke="#444444" stroke-opacity="0.333333" points="78.397,-473.7995 82.4612,-483.5838 85.3856,-473.4006 78.397,-473.7995"/>
</g>
<!-- libqmi&#45;utils&#45;&gt;libqmi -->
<g id="edge12" class="edge">
<title>libqmi&#45;utils&#45;&gt;libqmi</title>
<path fill="none" stroke="#444444" stroke-opacity="0.333333" d="M84.7115,-341.5822C88.4289,-334.3385 92.7886,-325.8435 96.8708,-317.8889"/>
<polygon fill="#444444" fill-opacity="0.333333" stroke="#444444" stroke-opacity="0.333333" points="100.0286,-319.4014 101.4806,-308.9065 93.8008,-316.2053 100.0286,-319.4014"/>
</g>
<!-- ModemManager&#45;&gt;libmbim -->
<g id="edge13" class="edge">
<title>ModemManager&#45;&gt;libmbim</title>
<path fill="none" stroke="#444444" stroke-opacity="0.333333" d="M198.5285,-368.0522C175.6665,-377.2508 147.6795,-388.5115 123.5989,-398.2005"/>
<polygon fill="#444444" fill-opacity="0.333333" stroke="#444444" stroke-opacity="0.333333" points="122.2076,-394.9875 114.2369,-401.9673 124.8206,-401.4816 122.2076,-394.9875"/>
</g>
<!-- ModemManager&#45;&gt;libgudev -->
<g id="edge14" class="edge">
<title>ModemManager&#45;&gt;libgudev</title>
<path fill="none" stroke="#444444" stroke-opacity="0.333333" d="M224.4037,-368.0291C196.0731,-394.9448 142.5857,-445.7609 110.2828,-476.4505"/>
<polygon fill="#444444" fill-opacity="0.333333" stroke="#444444" stroke-opacity="0.333333" points="107.7853,-473.9956 102.9461,-483.4207 112.6067,-479.0704 107.7853,-473.9956"/>
</g>
<!-- ModemManager&#45;&gt;libmbim&#45;utils -->
<g id="edge15" class="edge">
<title>ModemManager&#45;&gt;libmbim&#45;utils</title>
<path fill="none" stroke="#444444" stroke-opacity="0.333333" d="M239.5226,-368.3104C235.966,-385.2279 230.6295,-410.6115 226.5443,-430.0433"/>
<polygon fill="#444444" fill-opacity="0.333333" stroke="#444444" stroke-opacity="0.333333" points="223.1128,-429.3537 224.4805,-439.8599 229.9631,-430.7939 223.1128,-429.3537"/>
</g>
<!-- ModemManager&#45;&gt;libqmi -->
<g id="edge16" class="edge">
<title>ModemManager&#45;&gt;libqmi</title>
<path fill="none" stroke="#444444" stroke-opacity="0.333333" d="M202.8926,-331.8714C189.5352,-325.8857 174.5216,-319.1579 160.5567,-312.9"/>
<polygon fill="#444444" fill-opacity="0.333333" stroke="#444444" stroke-opacity="0.333333" points="161.6464,-309.553 151.0895,-308.6575 158.7839,-315.9409 161.6464,-309.553"/>
</g>
<!-- ModemManager&#45;&gt;libqmi&#45;utils -->
<g id="edge17" class="edge">
<title>ModemManager&#45;&gt;libqmi&#45;utils</title>
<path fill="none" stroke="#444444" stroke-opacity="0.333333" d="M167.7352,-354.3911C165.5582,-354.5172 163.3736,-354.6438 161.1874,-354.7704"/>
<polygon fill="#444444" fill-opacity="0.333333" stroke="#444444" stroke-opacity="0.333333" points="160.7474,-351.2899 150.9665,-355.3624 161.1522,-358.2782 160.7474,-351.2899"/>
</g>
<!-- ModemManager&#45;&gt;ModemManager&#45;glib -->
<g id="edge18" class="edge">
<title>ModemManager&#45;&gt;ModemManager&#45;glib</title>
<path fill="none" stroke="#444444" stroke-opacity="0.333333" d="M267.3068,-331.7995C289.1071,-315.2144 321.4593,-290.6017 345.4316,-272.3642"/>
<polygon fill="#444444" fill-opacity="0.333333" stroke="#444444" stroke-opacity="0.333333" points="347.6909,-275.0432 353.5304,-266.2029 343.4525,-269.4721 347.6909,-275.0432"/>
</g>
<!-- net&#45;snmp&#45;agent&#45;libs&#45;&gt;lm_sensors&#45;libs -->
<g id="edge19" class="edge">
<title>net&#45;snmp&#45;agent&#45;libs&#45;&gt;lm_sensors&#45;libs</title>
<path fill="none" stroke="#444444" stroke-opacity="0.333333" d="M1683.1684,-587.9766C1690.5777,-586.1614 1698.1394,-584.3088 1705.6428,-582.4706"/>
<polygon fill="#444444" fill-opacity="0.333333" stroke="#444444" stroke-opacity="0.333333" points="1706.5755,-585.8457 1715.4554,-580.0666 1704.9097,-579.0467 1706.5755,-585.8457"/>
</g>
<!-- net&#45;snmp&#45;agent&#45;libs&#45;&gt;mariadb&#45;connector&#45;c -->
<g id="edge20" class="edge">
<title>net&#45;snmp&#45;agent&#45;libs&#45;&gt;mariadb&#45;connector&#45;c</title>
<path fill="none" stroke="#444444" stroke-opacity="0.333333" d="M1625.4966,-624.1819C1654.5355,-657.3955 1716.2394,-727.9701 1749.6588,-766.1939"/>
<polygon fill="#444444" fill-opacity="0.333333" stroke="#444444" stroke-opacity="0.333333" points="1747.1218,-768.6097 1756.3389,-773.8343 1752.3917,-764.0022 1747.1218,-768.6097"/>
</g>
<!-- net&#45;snmp&#45;agent&#45;libs&#45;&gt;net&#45;snmp&#45;libs -->
<g id="edge21" class="edge">
<title>net&#45;snmp&#45;agent&#45;libs&#45;&gt;net&#45;snmp&#45;libs</title>
<path fill="none" stroke="#444444" stroke-opacity="0.333333" d="M1538.3984,-624.0588C1509.7224,-631.3318 1476.4898,-639.7605 1446.8807,-647.2702"/>
<polygon fill="#444444" fill-opacity="0.333333" stroke="#444444" stroke-opacity="0.333333" points="1445.8227,-643.9277 1436.9901,-649.7788 1447.5437,-650.7129 1445.8227,-643.9277"/>
</g>
<!-- net&#45;snmp&#45;&gt;net&#45;snmp&#45;agent&#45;libs -->
<g id="edge22" class="edge">
<title>net&#45;snmp&#45;&gt;net&#45;snmp&#45;agent&#45;libs</title>
<path fill="none" stroke="#444444" stroke-opacity="0.333333" d="M1606.0107,-713.3196C1606.7044,-692.5796 1607.8446,-658.4855 1608.6537,-634.2955"/>
<polygon fill="#444444" fill-opacity="0.333333" stroke="#444444" stroke-opacity="0.333333" points="1612.1522,-634.3939 1608.9885,-624.2824 1605.1561,-634.1598 1612.1522,-634.3939"/>
</g>
<!-- net&#45;snmp&#45;&gt;lm_sensors&#45;libs -->
<g id="edge23" class="edge">
<title>net&#45;snmp&#45;&gt;lm_sensors&#45;libs</title>
<path fill="none" stroke="#444444" stroke-opacity="0.333333" d="M1625.0698,-713.432C1658.0969,-682.9601 1724.7467,-621.4667 1762.1554,-586.9522"/>
<polygon fill="#444444" fill-opacity="0.333333" stroke="#444444" stroke-opacity="0.333333" points="1764.6953,-589.371 1769.6716,-580.0175 1759.9485,-584.2262 1764.6953,-589.371"/>
</g>
<!-- net&#45;snmp&#45;&gt;mariadb&#45;connector&#45;c -->
<g id="edge24" class="edge">
<title>net&#45;snmp&#45;&gt;mariadb&#45;connector&#45;c</title>
<path fill="none" stroke="#444444" stroke-opacity="0.333333" d="M1655.4755,-749.735C1673.5457,-756.2864 1694.1156,-763.7441 1712.9062,-770.5566"/>
<polygon fill="#444444" fill-opacity="0.333333" stroke="#444444" stroke-opacity="0.333333" points="1711.9534,-773.9341 1722.5476,-774.0522 1714.3394,-767.3532 1711.9534,-773.9341"/>
</g>
<!-- net&#45;snmp&#45;&gt;net&#45;snmp&#45;libs -->
<g id="edge25" class="edge">
<title>net&#45;snmp&#45;&gt;net&#45;snmp&#45;libs</title>
<path fill="none" stroke="#444444" stroke-opacity="0.333333" d="M1551.3078,-717.2005C1519.5019,-708.7455 1478.7471,-697.9116 1443.533,-688.5505"/>
<polygon fill="#444444" fill-opacity="0.333333" stroke="#444444" stroke-opacity="0.333333" points="1444.3233,-685.1391 1433.7597,-685.9525 1442.5249,-691.9042 1444.3233,-685.1391"/>
</g>
<!-- net&#45;snmp&#45;utils&#45;&gt;net&#45;snmp&#45;libs -->
<g id="edge26" class="edge">
<title>net&#45;snmp&#45;utils&#45;&gt;net&#45;snmp&#45;libs</title>
<path fill="none" stroke="#444444" stroke-opacity="0.333333" d="M1191.9819,-671.4293C1218.5798,-670.8828 1247.9475,-670.2794 1274.8498,-669.7266"/>
<polygon fill="#444444" fill-opacity="0.333333" stroke="#444444" stroke-opacity="0.333333" points="1275.1028,-673.2223 1285.0288,-669.5175 1274.959,-666.2238 1275.1028,-673.2223"/>
</g>
<!-- NetworkManager&#45;adsl&#45;&gt;NetworkManager -->
<g id="edge27" class="edge">
<title>NetworkManager&#45;adsl&#45;&gt;NetworkManager</title>
<path fill="none" stroke="#444444" stroke-opacity="0.333333" d="M970.3689,-197.1746C966.8909,-210.5236 962.0821,-228.9801 958.0935,-244.2884"/>
<polygon fill="#444444" fill-opacity="0.333333" stroke="#444444" stroke-opacity="0.333333" points="954.6241,-243.7226 955.4897,-254.2821 961.398,-245.4876 954.6241,-243.7226"/>
</g>
<!-- NetworkManager&#45;&gt;libndp -->
<g id="edge28" class="edge">
<title>NetworkManager&#45;&gt;libndp</title>
<path fill="none" stroke="#444444" stroke-opacity="0.333333" d="M946.2881,-254.4161C938.7656,-223.7053 923.47,-161.261 914.5645,-124.9045"/>
<polygon fill="#444444" fill-opacity="0.333333" stroke="#444444" stroke-opacity="0.333333" points="917.9064,-123.8364 912.1277,-114.9562 911.1074,-125.5018 917.9064,-123.8364"/>
</g>
<!-- NetworkManager&#45;&gt;libpsl -->
<g id="edge29" class="edge">
<title>NetworkManager&#45;&gt;libpsl</title>
<path fill="none" stroke="#444444" stroke-opacity="0.333333" d="M967.3914,-254.3043C989.2333,-230.3858 1027.6811,-188.2822 1052.5357,-161.0644"/>
<polygon fill="#444444" fill-opacity="0.333333" stroke="#444444" stroke-opacity="0.333333" points="1055.3109,-163.2157 1059.4696,-153.4711 1050.1419,-158.4954 1055.3109,-163.2157"/>
</g>
<!-- NetworkManager&#45;&gt;NetworkManager&#45;libnm -->
<g id="edge30" class="edge">
<title>NetworkManager&#45;&gt;NetworkManager&#45;libnm</title>
<path fill="none" stroke="#444444" stroke-opacity="0.333333" d="M864.4567,-274.4007C864.3062,-274.4039 864.1556,-274.4071 864.005,-274.4104"/>
<polygon fill="#444444" fill-opacity="0.333333" stroke="#444444" stroke-opacity="0.333333" points="867.1164,-270.8427 857.1938,-274.5565 867.2666,-277.841 867.1164,-270.8427"/>
</g>
<!-- NetworkManager&#45;bluetooth&#45;&gt;ModemManager&#45;glib -->
<g id="edge31" class="edge">
<title>NetworkManager&#45;bluetooth&#45;&gt;ModemManager&#45;glib</title>
<path fill="none" stroke="#444444" stroke-opacity="0.333333" d="M525.5364,-200.5768C500.064,-208.7494 469.7617,-218.4716 443.2097,-226.9906"/>
<polygon fill="#444444" fill-opacity="0.333333" stroke="#444444" stroke-opacity="0.333333" points="442.0656,-223.6819 433.613,-230.0696 444.2042,-230.3472 442.0656,-223.6819"/>
</g>
<!-- NetworkManager&#45;bluetooth&#45;&gt;NetworkManager -->
<g id="edge32" class="edge">
<title>NetworkManager&#45;bluetooth&#45;&gt;NetworkManager</title>
<path fill="none" stroke="#444444" stroke-opacity="0.333333" d="M655.9029,-200.6706C716.8442,-215.5282 803.1337,-236.5657 866.6198,-252.0438"/>
<polygon fill="#444444" fill-opacity="0.333333" stroke="#444444" stroke-opacity="0.333333" points="866.0613,-255.5101 876.6058,-254.4784 867.7194,-248.7093 866.0613,-255.5101"/>
</g>
<!-- NetworkManager&#45;bluetooth&#45;&gt;bluez&#45;libs -->
<g id="edge33" class="edge">
<title>NetworkManager&#45;bluetooth&#45;&gt;bluez&#45;libs</title>
<path fill="none" stroke="#444444" stroke-opacity="0.333333" d="M587.6497,-164.3293C597.0884,-135.5854 615.4871,-79.555 626.5769,-45.783"/>
<polygon fill="#444444" fill-opacity="0.333333" stroke="#444444" stroke-opacity="0.333333" points="629.9713,-46.6644 629.7658,-36.0715 623.3206,-44.4805 629.9713,-46.6644"/>
</g>
<!-- NetworkManager&#45;bluetooth&#45;&gt;NetworkManager&#45;wwan -->
<g id="edge34" class="edge">
<title>NetworkManager&#45;bluetooth&#45;&gt;NetworkManager&#45;wwan</title>
<path fill="none" stroke="#444444" stroke-opacity="0.333333" d="M568.1507,-200.7128C554.8874,-218.5253 534.5122,-245.889 519.4654,-266.0967"/>
<polygon fill="#444444" fill-opacity="0.333333" stroke="#444444" stroke-opacity="0.333333" points="516.5444,-264.1592 513.3793,-274.2703 522.1589,-268.3398 516.5444,-264.1592"/>
</g>
<!-- NetworkManager&#45;wwan&#45;&gt;ModemManager -->
<g id="edge35" class="edge">
<title>NetworkManager&#45;wwan&#45;&gt;ModemManager</title>
<path fill="none" stroke="#444444" stroke-opacity="0.333333" d="M419.4018,-310.4976C390.6284,-316.9561 358.1092,-324.2554 328.9205,-330.8072"/>
<polygon fill="#444444" fill-opacity="0.333333" stroke="#444444" stroke-opacity="0.333333" points="328.1503,-327.3929 319.1597,-332.9981 329.6835,-334.2229 328.1503,-327.3929"/>
</g>
<!-- NetworkManager&#45;wwan&#45;&gt;ModemManager&#45;glib -->
<g id="edge36" class="edge">
<title>NetworkManager&#45;wwan&#45;&gt;ModemManager&#45;glib</title>
<path fill="none" stroke="#444444" stroke-opacity="0.333333" d="M449.988,-274.4256C445.6958,-272.8749 441.326,-271.2961 436.967,-269.7213"/>
<polygon fill="#444444" fill-opacity="0.333333" stroke="#444444" stroke-opacity="0.333333" points="438.0701,-266.3984 427.4758,-266.2922 435.6915,-272.9819 438.0701,-266.3984"/>
</g>
<!-- NetworkManager&#45;wwan&#45;&gt;NetworkManager -->
<g id="edge37" class="edge">
<title>NetworkManager&#45;wwan&#45;&gt;NetworkManager</title>
<path fill="none" stroke="#444444" stroke-opacity="0.333333" d="M612.463,-287.4722C686.9212,-284.1876 783.5033,-279.927 854.3939,-276.7997"/>
<polygon fill="#444444" fill-opacity="0.333333" stroke="#444444" stroke-opacity="0.333333" points="854.8251,-280.2842 864.6611,-276.3468 854.5165,-273.291 854.8251,-280.2842"/>
</g>
<!-- NetworkManager&#45;team&#45;&gt;NetworkManager -->
<g id="edge38" class="edge">
<title>NetworkManager&#45;team&#45;&gt;NetworkManager</title>
<path fill="none" stroke="#444444" stroke-opacity="0.333333" d="M840.0986,-529.5906C860.3368,-482.5692 914.7839,-356.0671 938.926,-299.9754"/>
<polygon fill="#444444" fill-opacity="0.333333" stroke="#444444" stroke-opacity="0.333333" points="942.1942,-301.2349 942.9328,-290.6659 935.7645,-298.4675 942.1942,-301.2349"/>
</g>
<!-- NetworkManager&#45;team&#45;&gt;teamd -->
<g id="edge39" class="edge">
<title>NetworkManager&#45;team&#45;&gt;teamd</title>
<path fill="none" stroke="#444444" stroke-opacity="0.333333" d="M833.1826,-565.7875C834.928,-602.9377 838.9189,-687.8847 841.0048,-732.2828"/>
<polygon fill="#444444" fill-opacity="0.333333" stroke="#444444" stroke-opacity="0.333333" points="837.514,-732.5638 841.4796,-742.3885 844.5063,-732.2352 837.514,-732.5638"/>
</g>
<!-- teamd&#45;&gt;libteam -->
<g id="edge40" class="edge">
<title>teamd&#45;&gt;libteam</title>
<path fill="none" stroke="#444444" stroke-opacity="0.333333" d="M862.201,-778.5888C874.1811,-789.5004 889.6067,-803.5503 902.7069,-815.4821"/>
<polygon fill="#444444" fill-opacity="0.333333" stroke="#444444" stroke-opacity="0.333333" points="900.3578,-818.0767 910.1076,-822.2228 905.0714,-812.9015 900.3578,-818.0767"/>
</g>
<!-- NetworkManager&#45;tui&#45;&gt;NetworkManager -->
<g id="edge41" class="edge">
<title>NetworkManager&#45;tui&#45;&gt;NetworkManager</title>
<path fill="none" stroke="#444444" stroke-opacity="0.333333" d="M934.2184,-390.6463C937.4333,-367.6523 943.019,-327.7015 946.7936,-300.7047"/>
<polygon fill="#444444" fill-opacity="0.333333" stroke="#444444" stroke-opacity="0.333333" points="950.2727,-301.0968 948.1912,-290.7084 943.3401,-300.1274 950.2727,-301.0968"/>
</g>
<!-- NetworkManager&#45;tui&#45;&gt;NetworkManager&#45;libnm -->
<g id="edge42" class="edge">
<title>NetworkManager&#45;tui&#45;&gt;NetworkManager&#45;libnm</title>
<path fill="none" stroke="#444444" stroke-opacity="0.333333" d="M905.2493,-390.7034C871.1163,-367.4325 811.6173,-326.8676 773.7234,-301.0326"/>
<polygon fill="#444444" fill-opacity="0.333333" stroke="#444444" stroke-opacity="0.333333" points="775.2846,-297.8609 765.0505,-295.1196 771.3413,-303.6446 775.2846,-297.8609"/>
</g>
<!-- NetworkManager&#45;tui&#45;&gt;newt -->
<g id="edge43" class="edge">
<title>NetworkManager&#45;tui&#45;&gt;newt</title>
<path fill="none" stroke="#444444" stroke-opacity="0.333333" d="M942.4629,-426.8368C958.0194,-452.9837 986.8846,-501.4997 1004.9543,-531.8709"/>
<polygon fill="#444444" fill-opacity="0.333333" stroke="#444444" stroke-opacity="0.333333" points="1002.0679,-533.8646 1010.1889,-540.669 1008.0837,-530.2854 1002.0679,-533.8646"/>
</g>
<!-- newt&#45;&gt;slang -->
<g id="edge44" class="edge">
<title>newt&#45;&gt;slang</title>
<path fill="none" stroke="#444444" stroke-opacity="0.333333" d="M1053.5087,-560.5643C1057.9091,-560.7977 1062.4962,-561.041 1067.0931,-561.2849"/>
<polygon fill="#444444" fill-opacity="0.333333" stroke="#444444" stroke-opacity="0.333333" points="1066.9319,-564.7811 1077.1032,-561.8158 1067.3027,-557.791 1066.9319,-564.7811"/>
</g>
<!-- NetworkManager&#45;wifi&#45;&gt;NetworkManager -->
<g id="edge45" class="edge">
<title>NetworkManager&#45;wifi&#45;&gt;NetworkManager</title>
<path fill="none" stroke="#444444" stroke-opacity="0.333333" d="M1055.8442,-307.0153C1042.8018,-302.7389 1028.7785,-298.1409 1015.3585,-293.7407"/>
<polygon fill="#444444" fill-opacity="0.333333" stroke="#444444" stroke-opacity="0.333333" points="1016.3087,-290.3689 1005.7159,-290.579 1014.1277,-297.0205 1016.3087,-290.3689"/>
</g>
<!-- NetworkManager&#45;wifi&#45;&gt;wpa_supplicant -->
<g id="edge46" class="edge">
<title>NetworkManager&#45;wifi&#45;&gt;wpa_supplicant</title>
<path fill="none" stroke="#444444" stroke-opacity="0.333333" d="M1151.4472,-343.1964C1168.9927,-351.0464 1189.7047,-360.3131 1208.1538,-368.5674"/>
<polygon fill="#444444" fill-opacity="0.333333" stroke="#444444" stroke-opacity="0.333333" points="1206.7274,-371.7635 1217.2848,-372.6527 1209.5862,-365.3738 1206.7274,-371.7635"/>
</g>
<!-- psl&#45;&gt;libpsl -->
<g id="edge47" class="edge">
<title>psl&#45;&gt;libpsl</title>
<path fill="none" stroke="#444444" stroke-opacity="0.333333" d="M1174.3901,-156.4793C1161.2721,-153.6298 1145.0638,-150.1089 1129.623,-146.7548"/>
<polygon fill="#444444" fill-opacity="0.333333" stroke="#444444" stroke-opacity="0.333333" points="1130.1423,-143.2861 1119.6273,-144.5835 1128.6564,-150.1265 1130.1423,-143.2861"/>
</g>
<!-- realmd&#45;&gt;authconfig -->
<g id="edge48" class="edge">
<title>realmd&#45;&gt;authconfig</title>
<path fill="none" stroke="#444444" stroke-opacity="0.333333" d="M1511.7616,-902C1493.16,-902 1470.8533,-902 1449.6956,-902"/>
<polygon fill="#444444" fill-opacity="0.333333" stroke="#444444" stroke-opacity="0.333333" points="1449.4228,-898.5001 1439.4227,-902 1449.4227,-905.5001 1449.4228,-898.5001"/>
</g>
<!-- authconfig -->
<g id="node1" class="node">
<title>authconfig</title>
<text text-anchor="middle" x="1374.8" y="-898.3" font-family="monospace" font-size="14.00" fill="#000000">authconfig</text>
</g>
<!-- python3&#45;sssdconfig -->
<g id="node2" class="node">
<title>python3&#45;sssdconfig</title>
<text text-anchor="middle" x="1195.2" y="-898.3" font-family="monospace" font-size="14.00" fill="#000000">python3&#45;sssdconfig</text>
</g>
<!-- firewalld -->
<g id="node3" class="node">
<title>firewalld</title>
<text text-anchor="middle" x="1500.6" y="-14.3" font-family="monospace" font-size="14.00" fill="#000000">firewalld</text>
</g>
<!-- firewalld&#45;filesystem -->
<g id="node4" class="node">
<title>firewalld&#45;filesystem</title>
<text text-anchor="middle" x="1686.6" y="-14.3" font-family="monospace" font-size="14.00" fill="#000000">firewalld&#45;filesystem</text>
</g>
<!-- python3&#45;firewall -->
<g id="node5" class="node">
<title>python3&#45;firewall</title>
<text text-anchor="middle" x="1288.9" y="-14.3" font-family="monospace" font-size="14.00" fill="#000000">python3&#45;firewall</text>
</g>
<!-- python3&#45;slip&#45;dbus -->
<g id="node6" class="node">
<title>python3&#45;slip&#45;dbus</title>
<text text-anchor="middle" x="1076.8" y="-14.3" font-family="monospace" font-size="14.00" fill="#000000">python3&#45;slip&#45;dbus</text>
</g>
<!-- python3&#45;slip -->
<g id="node7" class="node">
<title>python3&#45;slip</title>
<text text-anchor="middle" x="891.39" y="-14.3" font-family="monospace" font-size="14.00" fill="#000000">python3&#45;slip</text>
</g>
<!-- libmbim -->
<g id="node8" class="node">
<title>libmbim</title>
<text text-anchor="middle" x="69.245" y="-416.37" font-family="monospace" font-size="14.00" fill="#000000">libmbim</text>
</g>
<!-- libgudev -->
<g id="node9" class="node">
<title>libgudev</title>
<text text-anchor="middle" x="83.506" y="-498.19" font-family="monospace" font-size="14.00" fill="#000000">libgudev</text>
</g>
<!-- libmbim&#45;utils -->
<g id="node10" class="node">
<title>libmbim&#45;utils</title>
<text text-anchor="middle" x="220.69" y="-454.19" font-family="monospace" font-size="14.00" fill="#000000">libmbim&#45;utils</text>
</g>
<!-- libqmi -->
<g id="node11" class="node">
<title>libqmi</title>
<text text-anchor="middle" x="110.86" y="-286.93" font-family="monospace" font-size="14.00" fill="#000000">libqmi</text>
</g>
<!-- libqmi&#45;utils -->
<g id="node12" class="node">
<title>libqmi&#45;utils</title>
<text text-anchor="middle" x="75.393" y="-356.04" font-family="monospace" font-size="14.00" fill="#000000">libqmi&#45;utils</text>
</g>
<!-- ModemManager -->
<g id="node13" class="node">
<title>ModemManager</title>
<text text-anchor="middle" x="243.37" y="-346.31" font-family="monospace" font-size="14.00" fill="#000000">ModemManager</text>
</g>
<!-- ModemManager&#45;glib -->
<g id="node14" class="node">
<title>ModemManager&#45;glib</title>
<text text-anchor="middle" x="377.26" y="-244.45" font-family="monospace" font-size="14.00" fill="#000000">ModemManager&#45;glib</text>
</g>
<!-- net&#45;snmp&#45;agent&#45;libs -->
<g id="node15" class="node">
<title>net&#45;snmp&#45;agent&#45;libs</title>
<text text-anchor="middle" x="1609.6" y="-602.3" font-family="monospace" font-size="14.00" fill="#000000">net&#45;snmp&#45;agent&#45;libs</text>
</g>
<!-- lm_sensors&#45;libs -->
<g id="node16" class="node">
<title>lm_sensors&#45;libs</title>
<text text-anchor="middle" x="1789.2" y="-558.3" font-family="monospace" font-size="14.00" fill="#000000">lm_sensors&#45;libs</text>
</g>
<!-- mariadb&#45;connector&#45;c -->
<g id="node17" class="node">
<title>mariadb&#45;connector&#45;c</title>
<text text-anchor="middle" x="1772.3" y="-788.39" font-family="monospace" font-size="14.00" fill="#000000">mariadb&#45;connector&#45;c</text>
</g>
<!-- net&#45;snmp&#45;libs -->
<g id="node18" class="node">
<title>net&#45;snmp&#45;libs</title>
<text text-anchor="middle" x="1365.7" y="-664.16" font-family="monospace" font-size="14.00" fill="#000000">net&#45;snmp&#45;libs</text>
</g>
<!-- net&#45;snmp -->
<g id="node19" class="node">
<title>net&#45;snmp</title>
<text text-anchor="middle" x="1605.4" y="-727.88" font-family="monospace" font-size="14.00" fill="#000000">net&#45;snmp</text>
</g>
<!-- net&#45;snmp&#45;utils -->
<g id="node20" class="node">
<title>net&#45;snmp&#45;utils</title>
<text text-anchor="middle" x="1105.8" y="-669.5" font-family="monospace" font-size="14.00" fill="#000000">net&#45;snmp&#45;utils</text>
</g>
<!-- NetworkManager&#45;adsl -->
<g id="node21" class="node">
<title>NetworkManager&#45;adsl</title>
<text text-anchor="middle" x="975.06" y="-175.47" font-family="monospace" font-size="14.00" fill="#000000">NetworkManager&#45;adsl</text>
</g>
<!-- NetworkManager -->
<g id="node22" class="node">
<title>NetworkManager</title>
<text text-anchor="middle" x="950.73" y="-268.85" font-family="monospace" font-size="14.00" fill="#000000">NetworkManager</text>
</g>
<!-- libndp -->
<g id="node23" class="node">
<title>libndp</title>
<text text-anchor="middle" x="907.71" y="-93.221" font-family="monospace" font-size="14.00" fill="#000000">libndp</text>
</g>
<!-- libpsl -->
<g id="node24" class="node">
<title>libpsl</title>
<text text-anchor="middle" x="1076.2" y="-131.45" font-family="monospace" font-size="14.00" fill="#000000">libpsl</text>
</g>
<!-- NetworkManager&#45;libnm -->
<g id="node25" class="node">
<title>NetworkManager&#45;libnm</title>
<text text-anchor="middle" x="738.62" y="-273.4" font-family="monospace" font-size="14.00" fill="#000000">NetworkManager&#45;libnm</text>
</g>
<!-- NetworkManager&#45;bluetooth -->
<g id="node26" class="node">
<title>NetworkManager&#45;bluetooth</title>
<text text-anchor="middle" x="581.66" y="-178.87" font-family="monospace" font-size="14.00" fill="#000000">NetworkManager&#45;bluetooth</text>
</g>
<!-- bluez&#45;libs -->
<g id="node27" class="node">
<title>bluez&#45;libs</title>
<text text-anchor="middle" x="635.7" y="-14.3" font-family="monospace" font-size="14.00" fill="#000000">bluez&#45;libs</text>
</g>
<!-- NetworkManager&#45;wwan -->
<g id="node28" class="node">
<title>NetworkManager&#45;wwan</title>
<text text-anchor="middle" x="499.85" y="-288.74" font-family="monospace" font-size="14.00" fill="#000000">NetworkManager&#45;wwan</text>
</g>
<!-- NetworkManager&#45;team -->
<g id="node29" class="node">
<title>NetworkManager&#45;team</title>
<text text-anchor="middle" x="832.33" y="-543.94" font-family="monospace" font-size="14.00" fill="#000000">NetworkManager&#45;team</text>
</g>
<!-- teamd -->
<g id="node30" class="node">
<title>teamd</title>
<text text-anchor="middle" x="842.33" y="-756.79" font-family="monospace" font-size="14.00" fill="#000000">teamd</text>
</g>
<!-- libteam -->
<g id="node31" class="node">
<title>libteam</title>
<text text-anchor="middle" x="929.9" y="-836.55" font-family="monospace" font-size="14.00" fill="#000000">libteam</text>
</g>
<!-- NetworkManager&#45;tui -->
<g id="node32" class="node">
<title>NetworkManager&#45;tui</title>
<text text-anchor="middle" x="931.69" y="-405.03" font-family="monospace" font-size="14.00" fill="#000000">NetworkManager&#45;tui</text>
</g>
<!-- newt -->
<g id="node33" class="node">
<title>newt</title>
<text text-anchor="middle" x="1021" y="-555.14" font-family="monospace" font-size="14.00" fill="#000000">newt</text>
</g>
<!-- slang -->
<g id="node34" class="node">
<title>slang</title>
<text text-anchor="middle" x="1114.7" y="-560.11" font-family="monospace" font-size="14.00" fill="#000000">slang</text>
</g>
<!-- NetworkManager&#45;wifi -->
<g id="node35" class="node">
<title>NetworkManager&#45;wifi</title>
<text text-anchor="middle" x="1111" y="-321.4" font-family="monospace" font-size="14.00" fill="#000000">NetworkManager&#45;wifi</text>
</g>
<!-- wpa_supplicant -->
<g id="node36" class="node">
<title>wpa_supplicant</title>
<text text-anchor="middle" x="1257.6" y="-386.99" font-family="monospace" font-size="14.00" fill="#000000">wpa_supplicant</text>
</g>
<!-- psl -->
<g id="node37" class="node">
<title>psl</title>
<text text-anchor="middle" x="1201.6" y="-158.69" font-family="monospace" font-size="14.00" fill="#000000">psl</text>
</g>
<!-- realmd -->
<g id="node38" class="node">
<title>realmd</title>
<text text-anchor="middle" x="1554.9" y="-898.3" font-family="monospace" font-size="14.00" fill="#000000">realmd</text>
</g>
</g>
</svg>
