<?xml version="1.0" encoding="UTF-8" standalone="no"?>
<!DOCTYPE svg PUBLIC "-//W3C//DTD SVG 1.1//EN"
 "http://www.w3.org/Graphics/SVG/1.1/DTD/svg11.dtd">
<!-- Generated by graphviz version 2.40.1 (20161225.0304)
 -->
<!-- Title: G Pages: 1 -->
<svg width="1047pt" height="705pt"
 viewBox="0.00 0.00 1046.92 704.87" xmlns="http://www.w3.org/2000/svg" xmlns:xlink="http://www.w3.org/1999/xlink">
<g id="graph0" class="graph" transform="scale(1 1) rotate(0) translate(78.7903 582.812)">
<title>G</title>
<polygon fill="#dae2ff" stroke="transparent" points="-78.7903,122.054 -78.7903,-582.812 968.1336,-582.812 968.1336,122.054 -78.7903,122.054"/>
<polygon fill="#fbb4ae" stroke="#fbb4ae" points="683.5599,-405.7845 678.3661,-414.0315 643.6743,-474.7388 620.2416,-518.5994 574.9388,-576.1268 534.1367,-574.5544 518.131,-574.8878 512.5021,-575.1165 512.2986,-462.5397 508.3309,-437.9734 506.3086,-437.9734 504.3559,-437.4048 500.9115,-437.4048 499.5938,-435.9332 494.6915,-433.2037 494.6915,-433.2037 499.5938,-435.9332 500.9115,-437.4048 504.3559,-437.4048 506.3086,-437.9734 508.3309,-437.9734 512.2986,-462.5397 512.5021,-575.1165 501.2498,-576.0196 491.0342,-577.2438 482.5451,-578.597 481.4653,-578.812 477.0905,-577.6118 460.2519,-573.341 458.0605,-572.8775 452.6464,-571.957 448.1362,-570.4784 347.6576,-539.7955 346.1403,-540.4257 275.6874,-538.6556 261.7667,-538.9042 251.2614,-539.3176 249.3932,-539.4312 248.7761,-481.8313 248.7761,-481.8313 249.3932,-539.4312 240.9274,-540.4922 228.802,-542.2734 228.7311,-478.5884 227.0747,-443.1936 229.3357,-417.158 230.4966,-415.8969 229.0516,-414.3756 229.0516,-414.3756 230.4966,-415.8969 229.3357,-417.158 227.0747,-443.1936 228.7311,-478.5884 228.802,-542.2734 214.1357,-545.3744 211.7422,-544.6095 205.9718,-543.1477 195.6015,-540.7476 185.7609,-538.9033 186.7368,-463.7015 186.7368,-463.7015 185.7609,-538.9033 180.2032,-538.1061 165.4316,-536.6335 90.5979,-530.8226 34.7659,-464.8296 32.0536,-444.1551 -74.7903,-339.7074 -65.6529,-306.6345 -60.5981,-283.5427 -49.0893,-222.7704 -44.7371,-216.7198 19.2066,-169.3632 49.394,-185.9331 53.5819,-187.9734 67.2408,-194.2123 86.8881,-201.3606 92.5857,-202.8959 110.7704,-206.6775 113.2855,-207.0428 125.4883,-208.0618 137.4586,-208.3181 138.0059,-208.3128 149.8498,-208.9124 158.7513,-209.8996 166.1336,-211.1638 173.2439,-212.5963 180.3016,-214.2302 187.9353,-216.4557 214.2706,-224.9223 286.2565,-178.4127 299.8339,-169.2042 302.2903,-167.4631 310.6462,-185.1136 323.4193,-207.7593 331.6892,-220.5321 332.1587,-262.7074 329.2492,-296.9802 325.2354,-293.8103 325.2354,-293.8103 329.2492,-296.9802 332.1587,-262.7074 331.6892,-220.5321 344.4429,-237.4088 344.1546,-244.0793 344.1546,-244.0793 344.4429,-237.4088 353.1169,-246.8427 360.8764,-256.5988 379.0278,-290.0078 386.5723,-301.2292 398.3586,-314.048 398.8048,-314.5823 406.1789,-324.3109 414.5218,-336.283 421.3458,-347.6234 424.9104,-347.0454 433.6797,-346.1448 442.8998,-345.7453 444.1099,-345.6558 455.7254,-345.4884 459.1891,-345.2267 468.7146,-344.792 478.1538,-343.7871 480.6213,-343.4497 492.9847,-341.0053 500.1096,-339.1642 504.8188,-337.8043 513.074,-334.9137 517.9115,-333.0714 529.2467,-336.078 529.4017,-336.1102 573.2422,-342.7476 573.8427,-342.8552 576.2074,-343.3455 581.4181,-344.5727 588.9312,-346.5541 600.5073,-350.2608 602.5057,-350.9564 608.9487,-353.565 610.5908,-354.2768 626.906,-361.8232 645.2434,-371.8644 684.9463,-395.7932 683.5599,-405.7845 683.5599,-405.7845"/>
<polygon fill="#fed9a6" stroke="#fed9a6" points="351.4695,-140.0397 359.9185,-138.5178 400.4331,-132.2314 412.3116,-129.5772 427.4024,-125.5162 430.3931,-124.5765 444.1523,-119.9395 452.2466,-116.6645 493.871,-98.8808 529.0999,-63.9602 516.1796,-30.573 508.6287,-8.5592 499.3484,5.0607 477.6789,38.4015 435.0701,79.6225 364.1515,115.6274 354.0604,116.8125 353.6321,116.8816 347.8151,117.9485 347.3022,118.054 330.4678,112.4058 274.291,96.3087 204.8116,48.1601 193.7468,32.2219 189.7496,30.9442 168.2509,24.8949 163.038,23.8333 150.763,21.5693 140.6141,19.8947 137.4101,19.4287 116.5902,17.2091 97.7891,12.3901 23.2571,-68.3959 23.2829,-94.2432 22.3594,-129.7716 19.2066,-169.3632 49.394,-185.9331 53.5819,-187.9734 67.2408,-194.2123 86.8881,-201.3606 92.5857,-202.8959 110.7704,-206.6775 113.2855,-207.0428 125.4883,-208.0618 137.4586,-208.3181 138.0059,-208.3128 149.8498,-208.9124 158.7513,-209.8996 166.1336,-211.1638 173.2439,-212.5963 180.3016,-214.2302 187.9353,-216.4557 214.2706,-224.9223 286.2565,-178.4127 299.8339,-169.2042 302.2903,-167.4631 311.6809,-150.988 333.6663,-144.29 339.8766,-142.707 351.4695,-140.0397 351.4695,-140.0397"/>
<polygon fill="#ccebc5" stroke="#ccebc5" points="960.9351,-198.5879 956.998,-233.3125 953.3618,-296.2563 877.2836,-344.4426 856.6392,-352.2792 842.1864,-350.4398 839.1115,-350.1181 834.7971,-349.7642 832.1605,-349.6667 814.3086,-349.4101 815.5062,-259.0703 812.4573,-221.9785 808.7654,-221.9785 808.7654,-221.9785 812.4573,-221.9785 815.5062,-259.0703 814.3086,-349.4101 801.6605,-349.8004 736.6589,-354.7396 684.9463,-395.7932 645.2434,-371.8644 626.906,-361.8232 627.3388,-286.6235 627.8918,-279.2251 627.8918,-279.2251 627.3388,-286.6235 626.906,-361.8232 610.5908,-354.2768 608.9487,-353.565 612.6888,-242.4998 613.862,-241.187 612.5787,-239.7227 607.5349,-236.8129 607.5349,-236.8129 612.5787,-239.7227 613.862,-241.187 612.6888,-242.4998 608.9487,-353.565 602.5057,-350.9564 600.5073,-350.2608 588.9312,-346.5541 581.4181,-344.5727 576.2074,-343.3455 573.8427,-342.8552 573.2422,-342.7476 529.4017,-336.1102 529.2467,-336.078 517.9115,-333.0714 513.074,-334.9137 504.8188,-337.8043 500.1096,-339.1642 492.9847,-341.0053 480.6213,-343.4497 478.1538,-343.7871 468.7146,-344.792 459.1891,-345.2267 455.7254,-345.4884 444.1099,-345.6558 442.8998,-345.7453 433.6797,-346.1448 424.9104,-347.0454 421.3458,-347.6234 414.5218,-336.283 406.1789,-324.3109 398.8048,-314.5823 398.3586,-314.048 386.5723,-301.2292 379.0278,-290.0078 360.8764,-256.5988 353.1169,-246.8427 344.4429,-237.4088 331.6892,-220.5321 323.4193,-207.7593 310.6462,-185.1136 302.2903,-167.4631 311.6809,-150.988 333.6663,-144.29 339.8766,-142.707 351.4695,-140.0397 359.9185,-138.5178 400.4331,-132.2314 412.3116,-129.5772 427.4024,-125.5162 430.3931,-124.5765 444.1523,-119.9395 452.2466,-116.6645 493.871,-98.8808 529.0999,-63.9602 565.6322,-71.5096 567.9062,-71.9425 589.705,-75.3845 595.0853,-76.0573 610.5125,-77.4824 614.2908,-77.6461 631.1536,-77.8263 631.5806,-77.8169 642.0707,-81.7772 707.8418,-104.1196 788.4017,-83.4537 802.407,-89.2854 815.9816,-94.2609 826.1245,-97.468 829.6202,-98.4848 839.9886,-101.2397 842.0811,-101.6899 910.9507,-114.7855 943.9684,-147.8487 964.1336,-175.8166 960.9351,-198.5879 960.9351,-198.5879"/>
<polyline fill="none" stroke="#000000" points="92.5857,-202.8959 86.8881,-201.3606 67.2408,-194.2123 53.5819,-187.9734 49.394,-185.9331 19.2066,-169.3632 -44.7371,-216.7198 -49.0893,-222.7704 -60.5981,-283.5427 -65.6529,-306.6345 -74.7903,-339.7074 32.0536,-444.1551 34.7659,-464.8296 90.5979,-530.8226 165.4316,-536.6335 180.2032,-538.1061 185.7609,-538.9033 195.6015,-540.7476 205.9718,-543.1477 211.7422,-544.6095 214.1357,-545.3744 228.802,-542.2734 240.9274,-540.4922 249.3932,-539.4312 251.2614,-539.3176 261.7667,-538.9042 275.6874,-538.6556 346.1403,-540.4257 347.6576,-539.7955 448.1362,-570.4784 452.6464,-571.957 458.0605,-572.8775 460.2519,-573.341 477.0905,-577.6118 481.4653,-578.812 482.5451,-578.597 491.0342,-577.2438 501.2498,-576.0196 512.5021,-575.1165 518.131,-574.8878 534.1367,-574.5544 574.9388,-576.1268 620.2416,-518.5994 643.6743,-474.7388 678.3661,-414.0315 683.5599,-405.7845 684.9463,-395.7932 645.2434,-371.8644 626.906,-361.8232 610.5908,-354.2768 608.9487,-353.565 602.5057,-350.9564 600.5073,-350.2608 588.9312,-346.5541 581.4181,-344.5727 576.2074,-343.3455 573.8427,-342.8552 573.2422,-342.7476 529.4017,-336.1102 529.2467,-336.078 517.9115,-333.0714 513.074,-334.9137 504.8188,-337.8043 500.1096,-339.1642 492.9847,-341.0053 480.6213,-343.4497 478.1538,-343.7871 468.7146,-344.792 459.1891,-345.2267 455.7254,-345.4884 444.1099,-345.6558 442.8998,-345.7453 433.6797,-346.1448 424.9104,-347.0454 421.3458,-347.6234 414.5218,-336.283 406.1789,-324.3109 398.8048,-314.5823 398.3586,-314.048 386.5723,-301.2292 379.0278,-290.0078 360.8764,-256.5988 353.1169,-246.8427 344.4429,-237.4088 331.6892,-220.5321 323.4193,-207.7593 310.6462,-185.1136 302.2903,-167.4631 299.8339,-169.2042 286.2565,-178.4127 214.2706,-224.9223 187.9353,-216.4557 180.3016,-214.2302 173.2439,-212.5963 166.1336,-211.1638 158.7513,-209.8996 149.8498,-208.9124 138.0059,-208.3128 137.4586,-208.3181 125.4883,-208.0618 113.2855,-207.0428 110.7704,-206.6775 92.5857,-202.8959 "/>
<polyline fill="none" stroke="#000000" points="158.7513,-209.8996 166.1336,-211.1638 173.2439,-212.5963 180.3016,-214.2302 187.9353,-216.4557 214.2706,-224.9223 286.2565,-178.4127 299.8339,-169.2042 302.2903,-167.4631 311.6809,-150.988 333.6663,-144.29 339.8766,-142.707 351.4695,-140.0397 359.9185,-138.5178 400.4331,-132.2314 412.3116,-129.5772 427.4024,-125.5162 430.3931,-124.5765 444.1523,-119.9395 452.2466,-116.6645 493.871,-98.8808 529.0999,-63.9602 516.1796,-30.573 508.6287,-8.5592 499.3484,5.0607 477.6789,38.4015 435.0701,79.6225 364.1515,115.6274 354.0604,116.8125 353.6321,116.8816 347.8151,117.9485 347.3022,118.054 330.4678,112.4058 274.291,96.3087 204.8116,48.1601 193.7468,32.2219 189.7496,30.9442 168.2509,24.8949 163.038,23.8333 150.763,21.5693 140.6141,19.8947 137.4101,19.4287 116.5902,17.2091 97.7891,12.3901 23.2571,-68.3959 23.2829,-94.2432 22.3594,-129.7716 19.2066,-169.3632 49.394,-185.9331 53.5819,-187.9734 67.2408,-194.2123 86.8881,-201.3606 92.5857,-202.8959 110.7704,-206.6775 113.2855,-207.0428 125.4883,-208.0618 137.4586,-208.3181 138.0059,-208.3128 149.8498,-208.9124 158.7513,-209.8996 "/>
<polyline fill="none" stroke="#000000" points="421.3458,-347.6234 424.9104,-347.0454 433.6797,-346.1448 442.8998,-345.7453 444.1099,-345.6558 455.7254,-345.4884 459.1891,-345.2267 468.7146,-344.792 478.1538,-343.7871 480.6213,-343.4497 492.9847,-341.0053 500.1096,-339.1642 504.8188,-337.8043 513.074,-334.9137 517.9115,-333.0714 529.2467,-336.078 529.4017,-336.1102 573.2422,-342.7476 573.8427,-342.8552 576.2074,-343.3455 581.4181,-344.5727 588.9312,-346.5541 600.5073,-350.2608 602.5057,-350.9564 608.9487,-353.565 610.5908,-354.2768 626.906,-361.8232 645.2434,-371.8644 684.9463,-395.7932 736.6589,-354.7396 801.6605,-349.8004 814.3086,-349.4101 832.1605,-349.6667 834.7971,-349.7642 839.1115,-350.1181 842.1864,-350.4398 856.6392,-352.2792 877.2836,-344.4426 953.3618,-296.2563 956.998,-233.3125 960.9351,-198.5879 964.1336,-175.8166 943.9684,-147.8487 910.9507,-114.7855 842.0811,-101.6899 839.9886,-101.2397 829.6202,-98.4848 826.1245,-97.468 815.9816,-94.2609 802.407,-89.2854 788.4017,-83.4537 707.8418,-104.1196 642.0707,-81.7772 631.5806,-77.8169 631.1536,-77.8263 614.2908,-77.6461 610.5125,-77.4824 595.0853,-76.0573 589.705,-75.3845 567.9062,-71.9425 565.6322,-71.5096 529.0999,-63.9602 493.871,-98.8808 452.2466,-116.6645 444.1523,-119.9395 430.3931,-124.5765 427.4024,-125.5162 412.3116,-129.5772 400.4331,-132.2314 359.9185,-138.5178 351.4695,-140.0397 339.8766,-142.707 333.6663,-144.29 311.6809,-150.988 302.2903,-167.4631 310.6462,-185.1136 323.4193,-207.7593 331.6892,-220.5321 344.4429,-237.4088 353.1169,-246.8427 360.8764,-256.5988 379.0278,-290.0078 386.5723,-301.2292 398.3586,-314.048 398.8048,-314.5823 406.1789,-324.3109 414.5218,-336.283 421.3458,-347.6234 "/>
<!-- rubygem&#45;bundler&#45;&gt;rubygem&#45;io&#45;console -->
<g id="edge1" class="edge">
<title>rubygem&#45;bundler&#45;&gt;rubygem&#45;io&#45;console</title>
<path fill="none" stroke="#444444" stroke-opacity="0.333333" d="M111.0763,-316.8534C133.118,-336.6771 168.6542,-368.6376 193.41,-390.9025"/>
<polygon fill="#444444" fill-opacity="0.333333" stroke="#444444" stroke-opacity="0.333333" points="191.2623,-393.6782 201.0381,-397.7629 195.9433,-388.4735 191.2623,-393.6782"/>
</g>
<!-- rubygem&#45;bundler&#45;&gt;rubygems -->
<g id="edge2" class="edge">
<title>rubygem&#45;bundler&#45;&gt;rubygems</title>
<path fill="none" stroke="#444444" stroke-opacity="0.333333" d="M182.2317,-298.2287C206.8048,-298.0775 232.8741,-297.9171 255.6566,-297.777"/>
<polygon fill="#444444" fill-opacity="0.333333" stroke="#444444" stroke-opacity="0.333333" points="255.8976,-301.2756 265.8759,-297.7141 255.8545,-294.2758 255.8976,-301.2756"/>
</g>
<!-- rubygem&#45;bundler&#45;&gt;rubypick -->
<g id="edge3" class="edge">
<title>rubygem&#45;bundler&#45;&gt;rubypick</title>
<path fill="none" stroke="#444444" stroke-opacity="0.333333" d="M98.0492,-280.7823C110.4919,-249.0321 136.403,-182.9151 151.1018,-145.4081"/>
<polygon fill="#444444" fill-opacity="0.333333" stroke="#444444" stroke-opacity="0.333333" points="154.366,-146.6711 154.7561,-136.0834 147.8486,-144.1169 154.366,-146.6711"/>
</g>
<!-- rubygem&#45;io&#45;console&#45;&gt;rubygems -->
<g id="edge4" class="edge">
<title>rubygem&#45;io&#45;console&#45;&gt;rubygems</title>
<path fill="none" stroke="#444444" stroke-opacity="0.333333" d="M236.3686,-398.0181C252.9108,-378.1547 279.666,-346.028 298.4882,-323.4269"/>
<polygon fill="#444444" fill-opacity="0.333333" stroke="#444444" stroke-opacity="0.333333" points="301.3202,-325.4956 305.0301,-315.5715 295.9412,-321.0159 301.3202,-325.4956"/>
</g>
<!-- rubygem&#45;io&#45;console&#45;&gt;ruby&#45;libs -->
<g id="edge5" class="edge">
<title>rubygem&#45;io&#45;console&#45;&gt;ruby&#45;libs</title>
<path fill="none" stroke="#444444" stroke-opacity="0.333333" d="M243.8846,-398.011C280.4299,-368.7597 352.6947,-310.918 393.9019,-277.9352"/>
<polygon fill="#444444" fill-opacity="0.333333" stroke="#444444" stroke-opacity="0.333333" points="396.3346,-280.4712 401.9546,-271.4897 391.9603,-275.0062 396.3346,-280.4712"/>
</g>
<!-- rubygems&#45;&gt;rubypick -->
<g id="edge6" class="edge">
<title>rubygems&#45;&gt;rubypick</title>
<path fill="none" stroke="#444444" stroke-opacity="0.333333" d="M304.1312,-279.1808C275.9258,-247.1959 217.3816,-180.8072 184.8835,-143.9544"/>
<polygon fill="#444444" fill-opacity="0.333333" stroke="#444444" stroke-opacity="0.333333" points="187.2205,-141.3128 177.9813,-136.1274 181.9702,-145.9426 187.2205,-141.3128"/>
</g>
<!-- rubygems&#45;&gt;ruby&#45;libs -->
<g id="edge7" class="edge">
<title>rubygems&#45;&gt;ruby&#45;libs</title>
<path fill="none" stroke="#444444" stroke-opacity="0.333333" d="M362.9447,-279.3566C366.0418,-278.0513 369.1848,-276.7266 372.328,-275.4019"/>
<polygon fill="#444444" fill-opacity="0.333333" stroke="#444444" stroke-opacity="0.333333" points="373.8572,-278.5557 381.7129,-271.4466 371.1385,-272.1051 373.8572,-278.5557"/>
</g>
<!-- rubygems&#45;&gt;rubygem&#45;openssl -->
<g id="edge8" class="edge">
<title>rubygems&#45;&gt;rubygem&#45;openssl</title>
<path fill="none" stroke="#444444" stroke-opacity="0.333333" d="M335.5044,-315.4906C361.8967,-340.5702 416.3903,-385.5777 453.6211,-413.4819"/>
<polygon fill="#444444" fill-opacity="0.333333" stroke="#444444" stroke-opacity="0.333333" points="451.6332,-416.365 461.7525,-419.5036 455.7991,-410.7396 451.6332,-416.365"/>
</g>
<!-- rubygems&#45;&gt;rubygem&#45;psych -->
<g id="edge9" class="edge">
<title>rubygems&#45;&gt;rubygem&#45;psych</title>
<path fill="none" stroke="#444444" stroke-opacity="0.333333" d="M374.4431,-292.1574C419.4687,-284.868 483.8629,-272.335 533.141,-261.3753"/>
<polygon fill="#444444" fill-opacity="0.333333" stroke="#444444" stroke-opacity="0.333333" points="534.1115,-264.7446 543.0993,-259.1348 532.5749,-257.9153 534.1115,-264.7446"/>
</g>
<!-- rubypick&#45;&gt;ruby -->
<g id="edge10" class="edge">
<title>rubypick&#45;&gt;ruby</title>
<path fill="none" stroke="#444444" stroke-opacity="0.333333" d="M207.1437,-99.8071C240.1754,-83.3736 284.0966,-59.267 313.4205,-41.3871"/>
<polygon fill="#444444" fill-opacity="0.333333" stroke="#444444" stroke-opacity="0.333333" points="315.369,-44.2972 322.0242,-36.0535 311.6807,-38.3477 315.369,-44.2972"/>
</g>
<!-- rubygem&#45;openssl&#45;&gt;rubygems -->
<g id="edge11" class="edge">
<title>rubygem&#45;openssl&#45;&gt;rubygems</title>
<path fill="none" stroke="#444444" stroke-opacity="0.333333" d="M476.7256,-419.5694C450.3333,-394.4898 395.8397,-349.4823 358.6089,-321.5781"/>
<polygon fill="#444444" fill-opacity="0.333333" stroke="#444444" stroke-opacity="0.333333" points="360.5968,-318.695 350.4775,-315.5564 356.4309,-324.3204 360.5968,-318.695"/>
</g>
<!-- rubygem&#45;openssl&#45;&gt;ruby&#45;libs -->
<g id="edge12" class="edge">
<title>rubygem&#45;openssl&#45;&gt;ruby&#45;libs</title>
<path fill="none" stroke="#444444" stroke-opacity="0.333333" d="M485.4578,-419.673C473.6172,-387.3294 448.6804,-319.2124 434.6746,-280.9544"/>
<polygon fill="#444444" fill-opacity="0.333333" stroke="#444444" stroke-opacity="0.333333" points="437.9234,-279.6474 431.1989,-271.4601 431.35,-282.0539 437.9234,-279.6474"/>
</g>
<!-- rubygem&#45;psych&#45;&gt;rubygems -->
<g id="edge13" class="edge">
<title>rubygem&#45;psych&#45;&gt;rubygems</title>
<path fill="none" stroke="#444444" stroke-opacity="0.333333" d="M524.0076,-250.837C479.7561,-258.6381 425.6949,-269.4441 384.3692,-278.7983"/>
<polygon fill="#444444" fill-opacity="0.333333" stroke="#444444" stroke-opacity="0.333333" points="383.3841,-275.4333 374.4194,-281.0801 384.9488,-282.2562 383.3841,-275.4333"/>
</g>
<!-- rubygem&#45;psych&#45;&gt;ruby&#45;libs -->
<g id="edge14" class="edge">
<title>rubygem&#45;psych&#45;&gt;ruby&#45;libs</title>
<path fill="none" stroke="#444444" stroke-opacity="0.333333" d="M524.2223,-246.5935C514.132,-247.2807 503.8813,-247.9789 493.9833,-248.653"/>
<polygon fill="#444444" fill-opacity="0.333333" stroke="#444444" stroke-opacity="0.333333" points="493.5569,-245.1739 483.8179,-249.3454 494.0326,-252.1577 493.5569,-245.1739"/>
</g>
<!-- rubygem&#45;psych&#45;&gt;libyaml -->
<g id="edge15" class="edge">
<title>rubygem&#45;psych&#45;&gt;libyaml</title>
<path fill="none" stroke="#444444" stroke-opacity="0.333333" d="M685.4982,-234.0471C711.965,-231.7317 740.8564,-229.2042 765.3629,-227.0602"/>
<polygon fill="#444444" fill-opacity="0.333333" stroke="#444444" stroke-opacity="0.333333" points="765.9205,-230.5249 775.5774,-226.1666 765.3104,-223.5515 765.9205,-230.5249"/>
</g>
<!-- ruby&#45;&gt;rubypick -->
<g id="edge16" class="edge">
<title>ruby&#45;&gt;rubypick</title>
<path fill="none" stroke="#444444" stroke-opacity="0.333333" d="M312.3145,-29.9575C278.7483,-45.9543 226.9266,-74.1246 193.6958,-94.3732"/>
<polygon fill="#444444" fill-opacity="0.333333" stroke="#444444" stroke-opacity="0.333333" points="191.5028,-91.6146 184.8466,-99.8576 195.1904,-97.5646 191.5028,-91.6146"/>
</g>
<!-- ruby&#45;&gt;ruby&#45;libs -->
<g id="edge17" class="edge">
<title>ruby&#45;&gt;ruby&#45;libs</title>
<path fill="none" stroke="#444444" stroke-opacity="0.333333" d="M351.1401,-36.079C364.9643,-76.9834 398.7176,-176.856 415.2061,-225.6436"/>
<polygon fill="#444444" fill-opacity="0.333333" stroke="#444444" stroke-opacity="0.333333" points="411.9316,-226.8864 418.4491,-235.2394 418.5631,-224.6451 411.9316,-226.8864"/>
</g>
<!-- rubygem&#45;bundler -->
<g id="node1" class="node">
<title>rubygem&#45;bundler</title>
<text text-anchor="middle" x="90.992" y="-295.09" font-family="monospace" font-size="14.00" fill="#000000">rubygem&#45;bundler</text>
</g>
<!-- rubygem&#45;io&#45;console -->
<g id="node2" class="node">
<title>rubygem&#45;io&#45;console</title>
<text text-anchor="middle" x="221.36" y="-412.34" font-family="monospace" font-size="14.00" fill="#000000">rubygem&#45;io&#45;console</text>
</g>
<!-- rubygems -->
<g id="node3" class="node">
<title>rubygems</title>
<text text-anchor="middle" x="320.18" y="-293.68" font-family="monospace" font-size="14.00" fill="#000000">rubygems</text>
</g>
<!-- rubypick -->
<g id="node4" class="node">
<title>rubypick</title>
<text text-anchor="middle" x="161.89" y="-114.18" font-family="monospace" font-size="14.00" fill="#000000">rubypick</text>
</g>
<!-- ruby&#45;libs -->
<g id="node5" class="node">
<title>ruby&#45;libs</title>
<text text-anchor="middle" x="424.58" y="-249.68" font-family="monospace" font-size="14.00" fill="#000000">ruby&#45;libs</text>
</g>
<!-- rubygem&#45;openssl -->
<g id="node6" class="node">
<title>rubygem&#45;openssl</title>
<text text-anchor="middle" x="492.05" y="-433.98" font-family="monospace" font-size="14.00" fill="#000000">rubygem&#45;openssl</text>
</g>
<!-- rubygem&#45;psych -->
<g id="node7" class="node">
<title>rubygem&#45;psych</title>
<text text-anchor="middle" x="604.88" y="-237.4" font-family="monospace" font-size="14.00" fill="#000000">rubygem&#45;psych</text>
</g>
<!-- ruby -->
<g id="node8" class="node">
<title>ruby</title>
<text text-anchor="middle" x="345.03" y="-14.3" font-family="monospace" font-size="14.00" fill="#000000">ruby</text>
</g>
<!-- libyaml -->
<g id="node9" class="node">
<title>libyaml</title>
<text text-anchor="middle" x="823.89" y="-218.24" font-family="monospace" font-size="14.00" fill="#000000">libyaml</text>
</g>
</g>
</svg>
