<?xml version="1.0" encoding="UTF-8" standalone="no"?>
<!DOCTYPE svg PUBLIC "-//W3C//DTD SVG 1.1//EN"
 "http://www.w3.org/Graphics/SVG/1.1/DTD/svg11.dtd">
<!-- Generated by graphviz version 2.40.1 (20161225.0304)
 -->
<!-- Title: G Pages: 1 -->
<svg width="1985pt" height="1503pt"
 viewBox="0.00 0.00 1984.75 1502.90" xmlns="http://www.w3.org/2000/svg" xmlns:xlink="http://www.w3.org/1999/xlink">
<g id="graph0" class="graph" transform="scale(1 1) rotate(0) translate(127.2587 1309.0703)">
<title>G</title>
<polygon fill="#dae2ff" stroke="transparent" points="-127.2587,193.8298 -127.2587,-1309.0703 1857.4866,-1309.0703 1857.4866,193.8298 -127.2587,193.8298"/>
<polygon fill="#fed9a6" stroke="#fed9a6" points="696.9267,-1288.5004 690.5786,-1289.0201 688.4216,-1289.2422 682.9914,-1114.6099 682.4093,-1114.3816 682.2391,-1114.1046 676.6829,-1109.9843 676.6829,-1109.9843 682.2391,-1114.1046 682.4093,-1114.3816 682.9914,-1114.6099 688.4216,-1289.2422 682.3679,-1289.9933 669.8574,-1291.8101 654.2255,-1294.4098 646.0748,-1296.2797 626.091,-1301.2878 621.5939,-1302.6028 595.9747,-1305.0703 527.5092,-1272.3695 519.6002,-1271.2963 504.354,-1269.5311 494.4501,-1268.7803 477.388,-1268.1672 471.1778,-1268.1921 449.8023,-1268.7048 448.6057,-1268.7811 445.4049,-1269.1134 428.3843,-1265.5094 285.5809,-1241.2681 241.1917,-1141.6053 232.6251,-1085.8 221.8929,-1032.7518 201.0416,-1013.9096 144.9154,-913.9155 147.7497,-909.9137 165.8439,-886.3116 167.6879,-883.757 176.4453,-872.687 222.9913,-816.6275 276.5623,-745.79 307.39,-742.6133 309.8555,-742.4503 325.712,-741.9866 326.1215,-741.9897 329.9409,-742.1603 336.4043,-741.9755 338.0609,-741.8672 346.6245,-741.9413 348.4099,-742.0228 356.6733,-742.0968 357.8093,-742.149 362.8111,-742.0118 367.9308,-741.683 368.1764,-741.6763 377.7498,-741.7706 381.3548,-742.0733 385.394,-742.2635 385.31,-754.2748 385.31,-754.2748 385.394,-742.2635 394.7074,-742.0197 395.6204,-742.0631 400.8624,-742.121 404.8809,-742.0183 423.0184,-740.8892 428.2343,-740.1844 434.6739,-739.0784 439.6202,-738.0475 451.4447,-735.1469 526.5418,-786.2482 548.2284,-781.9106 548.2623,-781.9052 564.2459,-779.9811 574.1249,-779.582 579.6125,-779.5797 582.7734,-779.7047 585.7173,-779.7017 588.0754,-779.7935 598.8959,-779.3358 606.0424,-779.6064 613.3971,-779.2871 618.7245,-779.4822 619.6666,-779.4785 631.8674,-778.9354 649.5549,-776.7104 689.0082,-770.1631 774.0325,-854.9667 767.1681,-874.35 750.9124,-934.1097 739.2481,-971.1882 737.3363,-976.5868 868.2844,-1107.9518 874.1506,-1114.4 882.7556,-1122.8077 893.1171,-1133.361 901.982,-1142.7488 818.7023,-1260.9559 716.8656,-1285.4633 707.7657,-1288.0686 696.9267,-1288.5004 698.226,-1229.4591 704.4995,-1114.5908 710.3163,-1114.5908 710.3163,-1114.5908 704.4995,-1114.5908 698.226,-1229.4591 696.9267,-1288.5004 696.9267,-1288.5004"/>
<polygon fill="#b3cde3" stroke="#b3cde3" points="1661.0856,-770.5985 1661.0891,-770.5986 1697.1281,-772.3611 1772.0802,-748.3746 1821.632,-704.6371 1842.4001,-604.3 1853.4866,-561.8483 1805.5591,-492.0514 1735.4392,-444.7951 1663.5409,-438.4149 1661.6886,-528.4968 1661.6886,-528.4968 1663.5409,-438.4149 1642.52,-435.6058 1630.8328,-433.5225 1628.1209,-432.9788 1624.1533,-432.0947 1621.717,-431.4972 1604.7716,-426.9579 1603.2319,-426.5111 1556.389,-411.868 1534.7235,-410.8617 1508.9114,-420.2648 1482.5398,-421.1072 1460.218,-421.4259 1439.8018,-420.6333 1417.9121,-418.621 1417.767,-418.6025 1403.6722,-416.5588 1402.7335,-416.9047 1386.6492,-422.2069 1369.3521,-427.2348 1307.8872,-443.892 1262.4561,-462.7353 1202.2325,-458.1434 1194.2745,-457.3877 1174.0798,-454.3308 1167.6866,-453.2433 1154.4708,-450.7479 1148.2153,-449.3333 1129.3057,-444.3457 1127.3081,-444.2797 1102.5123,-443.0303 1048.629,-565.96 1020.8798,-646.1395 1016.6605,-656.8933 1012.7175,-665.889 1017.603,-688.5253 1020.9608,-701.5696 1029.0063,-706.9742 1040.5568,-714.2504 1045.1561,-716.7606 1049.5812,-718.9945 1062.1477,-724.8289 1069.8071,-728.0649 1070.9537,-728.5013 1082.7496,-732.5067 1086.8486,-733.727 1098.6786,-736.7584 1129.6399,-743.3903 1148.0206,-748.1313 1149.7416,-748.7222 1163.6904,-754.1257 1175.8896,-759.3745 1177.1006,-759.946 1185.3517,-764.5592 1195.8084,-770.8672 1211.8068,-781.2117 1241.6615,-801.7427 1304.5543,-842.1532 1322.5435,-832.8675 1374.6791,-830.0402 1403.1421,-829.4758 1407.4802,-829.4646 1418.2573,-830.1792 1433.0687,-826.8757 1446.7494,-824.568 1448.665,-685.9885 1445.5751,-623.0178 1439.5778,-623.0178 1438.7678,-622.7067 1434.6903,-622.7067 1432.4962,-625.2337 1425.343,-628.0107 1419.1906,-625.7399 1416.5587,-622.6808 1412.2678,-622.6808 1411.7321,-622.4753 1405.731,-622.4753 1405.731,-622.4753 1411.7321,-622.4753 1412.2678,-622.6808 1416.5587,-622.6808 1419.1906,-625.7399 1425.343,-628.0107 1432.4962,-625.2337 1434.6903,-622.7067 1432.1515,-619.8865 1425.8169,-617.608 1425.8169,-617.608 1432.1515,-619.8865 1434.6903,-622.7067 1438.7678,-622.7067 1439.5778,-623.0178 1445.5751,-623.0178 1448.665,-685.9885 1446.7494,-824.568 1467.2616,-821.8491 1470.6527,-821.4614 1472.6831,-821.3027 1543.452,-792.1347 1561.5303,-781.4255 1600.7986,-774.6613 1601.9846,-774.4832 1621.5509,-771.9759 1645.0283,-770.5263 1645.1572,-770.524 1661.0856,-770.5985 1661.0856,-770.5985"/>
<polygon fill="#decbe4" stroke="#decbe4" points="340.7015,-489.4913 305.8407,-411.0633 267.1557,-331.6835 266.1365,-329.7281 357.0211,-212.4523 381.6963,-189.9335 420.8301,-227.3153 440.382,-247.2336 448.5781,-254.6616 451.9846,-257.5604 462.2068,-267.0158 470.5139,-274.1758 473.3547,-276.4435 489.4816,-287.3928 487.0026,-373.2147 480.5596,-370.805 480.5596,-370.805 487.0026,-373.2147 489.4816,-287.3928 498.3622,-292.8666 500.7328,-294.1779 511.1007,-299.2805 515.231,-301.056 517.5297,-301.9038 561.0679,-315.3644 574.4445,-320.2886 580.9937,-323.071 582.4769,-323.7849 591.2668,-328.529 606.5898,-338.6119 614.8909,-344.5451 619.3287,-347.9647 624.369,-352.4367 633.4922,-359.8106 636.1137,-362.0665 652.6795,-378.1608 656.4921,-376.5904 666.208,-373.1821 677.6703,-369.8541 688.6899,-366.9891 696.7106,-365.391 699.3351,-364.9475 710.7292,-363.3647 721.0572,-362.2429 737.15,-361.9549 741.5945,-361.7366 743.1295,-361.7542 750.127,-361.6164 753.6614,-361.6539 758.5615,-361.8546 770.801,-361.5917 782.606,-360.6016 788.0244,-359.9783 800.1074,-358.2119 803.2908,-357.5488 814.3223,-354.9038 821.362,-352.9961 833.5915,-349.3002 828.178,-479.8911 829.3065,-480.3226 830.8616,-480.3226 834.9852,-483.8798 901.5532,-493.9183 889.304,-504.1953 889.304,-504.1953 901.5532,-493.9183 834.9852,-483.8798 830.8616,-480.3226 829.3065,-480.3226 828.178,-479.8911 833.5915,-349.3002 833.8087,-349.2279 956.009,-304.7133 1007.9421,-377.3153 933.9433,-461.2972 928.4399,-468.1769 927.484,-469.2824 926.786,-470.0294 908.6754,-487.9481 912.9232,-565.5907 918.4886,-565.5907 919.7247,-566.074 925.6241,-566.074 925.6241,-566.074 919.7247,-566.074 918.4886,-565.5907 912.9232,-565.5907 908.6754,-487.9481 926.786,-470.0294 927.484,-469.2824 928.4399,-468.1769 933.9433,-461.2972 1007.9421,-377.3153 1102.5123,-443.0303 1048.629,-565.96 1020.8798,-646.1395 1016.6605,-656.8933 1012.7175,-665.889 1017.603,-688.5253 1020.9608,-701.5696 1029.0063,-706.9742 1040.5568,-714.2504 1045.1561,-716.7606 1049.5812,-718.9945 1062.1477,-724.8289 1069.8071,-728.0649 1070.9537,-728.5013 1082.7496,-732.5067 1086.8486,-733.727 1098.6786,-736.7584 1129.6399,-743.3903 1148.0206,-748.1313 1149.7416,-748.7222 1163.6904,-754.1257 1175.8896,-759.3745 1177.1006,-759.946 1185.3517,-764.5592 1195.8084,-770.8672 1211.8068,-781.2117 1241.6615,-801.7427 1304.5543,-842.1532 1290.415,-863.3488 1203.337,-1000.7365 1155.9833,-1020.5677 1130.896,-995.3552 1087.869,-949.5497 1084.0334,-945.9202 1060.3796,-926.1241 1059.7196,-925.5102 1059.4191,-925.2511 1052.7767,-919.9454 1051.5142,-919.017 1039.411,-910.8506 1038.7118,-877.0082 1041.7521,-828.6929 1041.6433,-828.6519 1041.6433,-828.6519 1041.7521,-828.6929 1038.7118,-877.0082 1039.411,-910.8506 1051.5142,-919.017 1052.7767,-919.9454 1059.4191,-925.2511 1059.7196,-925.5102 1060.3796,-926.1241 1084.0334,-945.9202 1087.869,-949.5497 1130.896,-995.3552 1155.9833,-1020.5677 1109.9059,-1075.0642 1042.5265,-1118.5176 1004.5612,-1133.0691 971.561,-1133.7926 952.311,-1134.963 953.1525,-991.9232 953.1525,-991.9232 952.311,-1134.963 940.5344,-1136.1364 932.6516,-1137.228 912.8502,-1140.3561 907.9206,-1141.3248 903.3055,-1142.4113 901.982,-1142.7488 893.1171,-1133.361 882.7556,-1122.8077 874.1506,-1114.4 868.2844,-1107.9518 737.3363,-976.5868 739.2481,-971.1882 750.9124,-934.1097 767.1681,-874.35 774.0325,-854.9667 689.0082,-770.1631 699.6195,-718.93 767.4042,-718.93 767.4042,-718.93 699.6195,-718.93 702.9935,-684.64 709.3798,-653.8057 680.1434,-637.2269 667.7864,-630.9871 654.7357,-626.043 652.6806,-625.3959 639.7688,-622.1351 629.2095,-620.803 628.9531,-558.3661 635.5317,-560.8151 643.7466,-557.4629 645.2994,-555.7156 643.6012,-553.769 635.8658,-550.5976 635.8658,-550.5976 643.6012,-553.769 645.2994,-555.7156 643.7466,-557.4629 635.5317,-560.8151 628.9531,-558.3661 629.2095,-620.803 617.8373,-620.088 615.1867,-620.2566 611.953,-620.2622 605.1263,-619.8497 600.8027,-619.8629 596.2518,-620.1646 594.9262,-620.0886 589.0833,-620.1216 576.3882,-619.4082 568.1406,-617.9276 563.2763,-616.7527 548.8734,-612.3703 547.0178,-611.6936 492.3589,-588.3793 481.0317,-555.63 463.5054,-515.8547 456.7145,-513.9376 453.7166,-513.2643 451.7112,-512.871 435.7289,-510.1879 392.7993,-504.2098 383.2222,-502.3368 369.2341,-498.8072 356.161,-495.1396 340.7015,-489.4913 340.7015,-489.4913"/>
<polygon fill="#fbb4ae" stroke="#fbb4ae" points="80.5551,-890.2523 53.719,-884.5671 2.8799,-874.9556 -82.6047,-839.1844 -117.1859,-723.1177 -121.4573,-710.0132 -123.2587,-704.9208 -77.0147,-567.1819 -89.0592,-516.2419 112.425,-502.5067 114.9193,-550.3162 113.2668,-607.285 116.6828,-607.4278 126.7424,-607.498 126.6546,-498.4648 127.203,-498.2559 132.9015,-498.2559 133.293,-498.4064 137.7001,-607.2782 139.5032,-607.2915 140.7652,-498.4182 145.5285,-498.4182 147.3146,-500.4569 154.58,-503.3323 154.58,-503.3323 147.3146,-500.4569 145.5285,-498.4182 140.7652,-498.4182 139.5032,-607.2915 137.7001,-607.2782 133.293,-498.4064 132.9015,-498.2559 127.203,-498.2559 126.6546,-498.4648 126.7424,-607.498 116.6828,-607.4278 113.2668,-607.285 114.9193,-550.3162 112.425,-502.5067 -89.0592,-516.2419 -95.9325,-489.8652 -90.5436,-480.1568 -39.2764,-382.6773 102.2844,-320.8889 116.4384,-324.4479 116.9755,-324.559 142.894,-329.3459 156.1332,-330.9016 160.5603,-331.3228 168.4118,-331.8945 180.8047,-332.5202 184.0736,-332.5392 200.9624,-332.2601 266.1365,-329.7281 267.1557,-331.6835 305.8407,-411.0633 340.7015,-489.4913 356.161,-495.1396 369.2341,-498.8072 383.2222,-502.3368 392.7993,-504.2098 435.7289,-510.1879 451.7112,-512.871 453.7166,-513.2643 456.7145,-513.9376 463.5054,-515.8547 481.0317,-555.63 492.3589,-588.3793 547.0178,-611.6936 548.8734,-612.3703 563.2763,-616.7527 568.1406,-617.9276 576.3882,-619.4082 589.0833,-620.1216 594.9262,-620.0886 596.2518,-620.1646 600.8027,-619.8629 605.1263,-619.8497 611.953,-620.2622 607.6921,-683.6418 606.967,-684.5424 602.303,-684.5424 602.303,-684.5424 606.967,-684.5424 607.6921,-683.6418 611.953,-620.2622 615.1867,-620.2566 617.8373,-620.088 629.2095,-620.803 639.7688,-622.1351 652.6806,-625.3959 654.7357,-626.043 667.7864,-630.9871 680.1434,-637.2269 709.3798,-653.8057 702.9935,-684.64 699.6195,-718.93 689.0082,-770.1631 649.5549,-776.7104 631.8674,-778.9354 619.6666,-779.4785 618.7245,-779.4822 613.3971,-779.2871 606.0424,-779.6064 598.8959,-779.3358 588.0754,-779.7935 585.7173,-779.7017 582.7734,-779.7047 579.6125,-779.5797 574.1249,-779.582 564.2459,-779.9811 548.2623,-781.9052 548.2284,-781.9106 526.5418,-786.2482 451.4447,-735.1469 439.6202,-738.0475 434.6739,-739.0784 428.2343,-740.1844 423.0184,-740.8892 404.8809,-742.0183 400.8624,-742.121 395.6204,-742.0631 394.7074,-742.0197 385.394,-742.2635 381.3548,-742.0733 377.7498,-741.7706 368.1764,-741.6763 367.9308,-741.683 362.8111,-742.0118 357.8093,-742.149 356.6733,-742.0968 348.4099,-742.0228 346.6245,-741.9413 348.7502,-643.9578 355.5144,-643.9578 361.4,-639.5201 355.6824,-635.0226 355.6824,-635.0226 361.4,-639.5201 355.5144,-643.9578 348.7502,-643.9578 346.6245,-741.9413 338.0609,-741.8672 336.4043,-741.9755 329.9409,-742.1603 326.1215,-741.9897 325.712,-741.9866 309.8555,-742.4503 307.39,-742.6133 276.5623,-745.79 222.9913,-816.6275 176.4453,-872.687 167.6879,-883.757 165.8439,-886.3116 147.7497,-909.9137 144.9154,-913.9155 132.6564,-908.2785 129.2758,-906.8775 113.7465,-900.7886 102.3113,-896.8217 80.5551,-890.2523 80.5217,-880.006 82.5386,-831.7738 91.1022,-716.9868 97.1614,-716.9868 102.295,-894.8432 104.4837,-716.7762 109.1943,-716.7762 111.2189,-719.077 111.2189,-719.077 109.1943,-716.7762 104.4837,-716.7762 102.295,-894.8432 97.1614,-716.9868 91.1022,-716.9868 82.5386,-831.7738 80.5217,-880.006 78.1858,-831.6703 78.1858,-831.6703 80.5217,-880.006 80.5551,-890.2523 80.5551,-890.2523"/>
<polygon fill="#ccebc5" stroke="#ccebc5" points="750.127,-361.6164 753.6614,-361.6539 758.5615,-361.8546 770.801,-361.5917 782.606,-360.6016 788.0244,-359.9783 800.1074,-358.2119 803.2908,-357.5488 814.3223,-354.9038 821.362,-352.9961 833.5915,-349.3002 833.8087,-349.2279 956.009,-304.7133 955.3254,-254.0986 955.5208,-233.4356 958.0149,-156.4661 945.5368,-103.4578 932.8679,-91.0153 919.6516,-48.987 900.8129,-18.2957 900.4649,-17.6964 826.5001,117.1785 791.6437,158.1985 717.1752,176.9188 705.3185,180.1311 693.2322,183.6404 687.6917,185.5724 676.1373,189.8298 667.1797,186.8334 672.6944,-15.3265 665.8682,-12.8131 658.9301,-15.4462 656.7614,-17.9219 659.0401,-20.5696 665.5783,-23.061 665.5783,-23.061 659.0401,-20.5696 656.7614,-17.9219 658.9301,-15.4462 665.8682,-12.8131 672.6944,-15.3265 667.1797,186.8334 659.974,184.5617 648.1542,181.5101 638.3953,179.176 630.3339,177.4017 621.316,175.589 610.9246,173.6992 602.9984,172.4097 598.3076,170.1576 454.9413,81.1715 445.8749,57.3093 443.319,-18 436.9196,-91.8869 398.2893,-138.7653 381.6963,-189.9335 420.8301,-227.3153 440.382,-247.2336 448.5781,-254.6616 451.9846,-257.5604 462.2068,-267.0158 470.5139,-274.1758 473.3547,-276.4435 489.4816,-287.3928 498.3622,-292.8666 500.7328,-294.1779 511.1007,-299.2805 515.231,-301.056 517.5297,-301.9038 561.0679,-315.3644 574.4445,-320.2886 580.9937,-323.071 582.4769,-323.7849 591.2668,-328.529 606.5898,-338.6119 614.8909,-344.5451 619.3287,-347.9647 624.369,-352.4367 633.4922,-359.8106 636.1137,-362.0665 652.6795,-378.1608 656.4921,-376.5904 666.208,-373.1821 677.6703,-369.8541 688.6899,-366.9891 696.7106,-365.391 699.3351,-364.9475 710.7292,-363.3647 721.0572,-362.2429 721.2664,-349.7748 715.847,-243.8579 709.5952,-243.8579 708.8428,-243.575 703.3696,-243.575 702.976,-243.4304 704.1605,-130.9671 696.5873,-130.8443 693.1396,-130.6782 695.3537,-58.7213 695.3537,-58.7213 693.1396,-130.6782 696.5873,-130.8443 704.1605,-130.9671 702.976,-243.4304 703.3696,-243.575 708.8428,-243.575 709.5952,-243.8579 715.847,-243.8579 721.2664,-349.7748 721.0572,-362.2429 737.15,-361.9549 741.5945,-361.7366 743.1295,-361.7542 750.127,-361.6164 750.127,-361.6164"/>
<polyline fill="none" stroke="#000000" points="471.1778,-1268.1921 477.388,-1268.1672 494.4501,-1268.7803 504.354,-1269.5311 519.6002,-1271.2963 527.5092,-1272.3695 595.9747,-1305.0703 621.5939,-1302.6028 626.091,-1301.2878 646.0748,-1296.2797 654.2255,-1294.4098 669.8574,-1291.8101 682.3679,-1289.9933 688.4216,-1289.2422 690.5786,-1289.0201 696.9267,-1288.5004 707.7657,-1288.0686 716.8656,-1285.4633 818.7023,-1260.9559 901.982,-1142.7488 893.1171,-1133.361 882.7556,-1122.8077 874.1506,-1114.4 868.2844,-1107.9518 737.3363,-976.5868 739.2481,-971.1882 750.9124,-934.1097 767.1681,-874.35 774.0325,-854.9667 689.0082,-770.1631 649.5549,-776.7104 631.8674,-778.9354 619.6666,-779.4785 618.7245,-779.4822 613.3971,-779.2871 606.0424,-779.6064 598.8959,-779.3358 588.0754,-779.7935 585.7173,-779.7017 582.7734,-779.7047 579.6125,-779.5797 574.1249,-779.582 564.2459,-779.9811 548.2623,-781.9052 548.2284,-781.9106 526.5418,-786.2482 451.4447,-735.1469 439.6202,-738.0475 434.6739,-739.0784 428.2343,-740.1844 423.0184,-740.8892 404.8809,-742.0183 400.8624,-742.121 395.6204,-742.0631 394.7074,-742.0197 385.394,-742.2635 381.3548,-742.0733 377.7498,-741.7706 368.1764,-741.6763 367.9308,-741.683 362.8111,-742.0118 357.8093,-742.149 356.6733,-742.0968 348.4099,-742.0228 346.6245,-741.9413 338.0609,-741.8672 336.4043,-741.9755 329.9409,-742.1603 326.1215,-741.9897 325.712,-741.9866 309.8555,-742.4503 307.39,-742.6133 276.5623,-745.79 222.9913,-816.6275 176.4453,-872.687 167.6879,-883.757 165.8439,-886.3116 147.7497,-909.9137 144.9154,-913.9155 201.0416,-1013.9096 221.8929,-1032.7518 232.6251,-1085.8 241.1917,-1141.6053 285.5809,-1241.2681 428.3843,-1265.5094 445.4049,-1269.1134 448.6057,-1268.7811 449.8023,-1268.7048 471.1778,-1268.1921 "/>
<polyline fill="none" stroke="#000000" points="1163.6904,-754.1257 1175.8896,-759.3745 1177.1006,-759.946 1185.3517,-764.5592 1195.8084,-770.8672 1211.8068,-781.2117 1241.6615,-801.7427 1304.5543,-842.1532 1322.5435,-832.8675 1374.6791,-830.0402 1403.1421,-829.4758 1407.4802,-829.4646 1418.2573,-830.1792 1433.0687,-826.8757 1446.7494,-824.568 1467.2616,-821.8491 1470.6527,-821.4614 1472.6831,-821.3027 1543.452,-792.1347 1561.5303,-781.4255 1600.7986,-774.6613 1601.9846,-774.4832 1621.5509,-771.9759 1645.0283,-770.5263 1645.1572,-770.524 1661.0856,-770.5985 1661.0891,-770.5986 1697.1281,-772.3611 1772.0802,-748.3746 1821.632,-704.6371 1842.4001,-604.3 1853.4866,-561.8483 1805.5591,-492.0514 1735.4392,-444.7951 1663.5409,-438.4149 1642.52,-435.6058 1630.8328,-433.5225 1628.1209,-432.9788 1624.1533,-432.0947 1621.717,-431.4972 1604.7716,-426.9579 1603.2319,-426.5111 1556.389,-411.868 1534.7235,-410.8617 1508.9114,-420.2648 1482.5398,-421.1072 1460.218,-421.4259 1439.8018,-420.6333 1417.9121,-418.621 1417.767,-418.6025 1403.6722,-416.5588 1402.7335,-416.9047 1386.6492,-422.2069 1369.3521,-427.2348 1307.8872,-443.892 1262.4561,-462.7353 1202.2325,-458.1434 1194.2745,-457.3877 1174.0798,-454.3308 1167.6866,-453.2433 1154.4708,-450.7479 1148.2153,-449.3333 1129.3057,-444.3457 1127.3081,-444.2797 1102.5123,-443.0303 1048.629,-565.96 1020.8798,-646.1395 1016.6605,-656.8933 1012.7175,-665.889 1017.603,-688.5253 1020.9608,-701.5696 1029.0063,-706.9742 1040.5568,-714.2504 1045.1561,-716.7606 1049.5812,-718.9945 1062.1477,-724.8289 1069.8071,-728.0649 1070.9537,-728.5013 1082.7496,-732.5067 1086.8486,-733.727 1098.6786,-736.7584 1129.6399,-743.3903 1148.0206,-748.1313 1149.7416,-748.7222 1163.6904,-754.1257 "/>
<polyline fill="none" stroke="#000000" points="774.0325,-854.9667 689.0082,-770.1631 699.6195,-718.93 702.9935,-684.64 709.3798,-653.8057 680.1434,-637.2269 667.7864,-630.9871 654.7357,-626.043 652.6806,-625.3959 639.7688,-622.1351 629.2095,-620.803 617.8373,-620.088 615.1867,-620.2566 611.953,-620.2622 605.1263,-619.8497 600.8027,-619.8629 596.2518,-620.1646 594.9262,-620.0886 589.0833,-620.1216 576.3882,-619.4082 568.1406,-617.9276 563.2763,-616.7527 548.8734,-612.3703 547.0178,-611.6936 492.3589,-588.3793 481.0317,-555.63 463.5054,-515.8547 456.7145,-513.9376 453.7166,-513.2643 451.7112,-512.871 435.7289,-510.1879 392.7993,-504.2098 383.2222,-502.3368 369.2341,-498.8072 356.161,-495.1396 340.7015,-489.4913 305.8407,-411.0633 267.1557,-331.6835 266.1365,-329.7281 357.0211,-212.4523 381.6963,-189.9335 420.8301,-227.3153 440.382,-247.2336 448.5781,-254.6616 451.9846,-257.5604 462.2068,-267.0158 470.5139,-274.1758 473.3547,-276.4435 489.4816,-287.3928 498.3622,-292.8666 500.7328,-294.1779 511.1007,-299.2805 515.231,-301.056 517.5297,-301.9038 561.0679,-315.3644 574.4445,-320.2886 580.9937,-323.071 582.4769,-323.7849 591.2668,-328.529 606.5898,-338.6119 614.8909,-344.5451 619.3287,-347.9647 624.369,-352.4367 633.4922,-359.8106 636.1137,-362.0665 652.6795,-378.1608 656.4921,-376.5904 666.208,-373.1821 677.6703,-369.8541 688.6899,-366.9891 696.7106,-365.391 699.3351,-364.9475 710.7292,-363.3647 721.0572,-362.2429 737.15,-361.9549 741.5945,-361.7366 743.1295,-361.7542 750.127,-361.6164 753.6614,-361.6539 758.5615,-361.8546 770.801,-361.5917 782.606,-360.6016 788.0244,-359.9783 800.1074,-358.2119 803.2908,-357.5488 814.3223,-354.9038 821.362,-352.9961 833.5915,-349.3002 833.8087,-349.2279 956.009,-304.7133 1007.9421,-377.3153 1102.5123,-443.0303 1048.629,-565.96 1020.8798,-646.1395 1016.6605,-656.8933 1012.7175,-665.889 1017.603,-688.5253 1020.9608,-701.5696 1029.0063,-706.9742 1040.5568,-714.2504 1045.1561,-716.7606 1049.5812,-718.9945 1062.1477,-724.8289 1069.8071,-728.0649 1070.9537,-728.5013 1082.7496,-732.5067 1086.8486,-733.727 1098.6786,-736.7584 1129.6399,-743.3903 1148.0206,-748.1313 1149.7416,-748.7222 1163.6904,-754.1257 1175.8896,-759.3745 1177.1006,-759.946 1185.3517,-764.5592 1195.8084,-770.8672 1211.8068,-781.2117 1241.6615,-801.7427 1304.5543,-842.1532 1290.415,-863.3488 1203.337,-1000.7365 1155.9833,-1020.5677 1109.9059,-1075.0642 1042.5265,-1118.5176 1004.5612,-1133.0691 971.561,-1133.7926 952.311,-1134.963 940.5344,-1136.1364 932.6516,-1137.228 912.8502,-1140.3561 907.9206,-1141.3248 903.3055,-1142.4113 901.982,-1142.7488 893.1171,-1133.361 882.7556,-1122.8077 874.1506,-1114.4 868.2844,-1107.9518 737.3363,-976.5868 739.2481,-971.1882 750.9124,-934.1097 767.1681,-874.35 774.0325,-854.9667 "/>
<polyline fill="none" stroke="#000000" points="574.1249,-779.582 579.6125,-779.5797 582.7734,-779.7047 585.7173,-779.7017 588.0754,-779.7935 598.8959,-779.3358 606.0424,-779.6064 613.3971,-779.2871 618.7245,-779.4822 619.6666,-779.4785 631.8674,-778.9354 649.5549,-776.7104 689.0082,-770.1631 699.6195,-718.93 702.9935,-684.64 709.3798,-653.8057 680.1434,-637.2269 667.7864,-630.9871 654.7357,-626.043 652.6806,-625.3959 639.7688,-622.1351 629.2095,-620.803 617.8373,-620.088 615.1867,-620.2566 611.953,-620.2622 605.1263,-619.8497 600.8027,-619.8629 596.2518,-620.1646 594.9262,-620.0886 589.0833,-620.1216 576.3882,-619.4082 568.1406,-617.9276 563.2763,-616.7527 548.8734,-612.3703 547.0178,-611.6936 492.3589,-588.3793 481.0317,-555.63 463.5054,-515.8547 456.7145,-513.9376 453.7166,-513.2643 451.7112,-512.871 435.7289,-510.1879 392.7993,-504.2098 383.2222,-502.3368 369.2341,-498.8072 356.161,-495.1396 340.7015,-489.4913 305.8407,-411.0633 267.1557,-331.6835 266.1365,-329.7281 200.9624,-332.2601 184.0736,-332.5392 180.8047,-332.5202 168.4118,-331.8945 160.5603,-331.3228 156.1332,-330.9016 142.894,-329.3459 116.9755,-324.559 116.4384,-324.4479 102.2844,-320.8889 -39.2764,-382.6773 -90.5436,-480.1568 -95.9325,-489.8652 -89.0592,-516.2419 -77.0147,-567.1819 -123.2587,-704.9208 -121.4573,-710.0132 -117.1859,-723.1177 -82.6047,-839.1844 2.8799,-874.9556 53.719,-884.5671 80.5551,-890.2523 102.3113,-896.8217 113.7465,-900.7886 129.2758,-906.8775 132.6564,-908.2785 144.9154,-913.9155 147.7497,-909.9137 165.8439,-886.3116 167.6879,-883.757 176.4453,-872.687 222.9913,-816.6275 276.5623,-745.79 307.39,-742.6133 309.8555,-742.4503 325.712,-741.9866 326.1215,-741.9897 329.9409,-742.1603 336.4043,-741.9755 338.0609,-741.8672 346.6245,-741.9413 348.4099,-742.0228 356.6733,-742.0968 357.8093,-742.149 362.8111,-742.0118 367.9308,-741.683 368.1764,-741.6763 377.7498,-741.7706 381.3548,-742.0733 385.394,-742.2635 394.7074,-742.0197 395.6204,-742.0631 400.8624,-742.121 404.8809,-742.0183 423.0184,-740.8892 428.2343,-740.1844 434.6739,-739.0784 439.6202,-738.0475 451.4447,-735.1469 526.5418,-786.2482 548.2284,-781.9106 548.2623,-781.9052 564.2459,-779.9811 574.1249,-779.582 "/>
<polyline fill="none" stroke="#000000" points="666.208,-373.1821 677.6703,-369.8541 688.6899,-366.9891 696.7106,-365.391 699.3351,-364.9475 710.7292,-363.3647 721.0572,-362.2429 737.15,-361.9549 741.5945,-361.7366 743.1295,-361.7542 750.127,-361.6164 753.6614,-361.6539 758.5615,-361.8546 770.801,-361.5917 782.606,-360.6016 788.0244,-359.9783 800.1074,-358.2119 803.2908,-357.5488 814.3223,-354.9038 821.362,-352.9961 833.5915,-349.3002 833.8087,-349.2279 956.009,-304.7133 955.3254,-254.0986 955.5208,-233.4356 958.0149,-156.4661 945.5368,-103.4578 932.8679,-91.0153 919.6516,-48.987 900.8129,-18.2957 900.4649,-17.6964 826.5001,117.1785 791.6437,158.1985 717.1752,176.9188 705.3185,180.1311 693.2322,183.6404 687.6917,185.5724 676.1373,189.8298 667.1797,186.8334 659.974,184.5617 648.1542,181.5101 638.3953,179.176 630.3339,177.4017 621.316,175.589 610.9246,173.6992 602.9984,172.4097 598.3076,170.1576 454.9413,81.1715 445.8749,57.3093 443.319,-18 436.9196,-91.8869 398.2893,-138.7653 381.6963,-189.9335 420.8301,-227.3153 440.382,-247.2336 448.5781,-254.6616 451.9846,-257.5604 462.2068,-267.0158 470.5139,-274.1758 473.3547,-276.4435 489.4816,-287.3928 498.3622,-292.8666 500.7328,-294.1779 511.1007,-299.2805 515.231,-301.056 517.5297,-301.9038 561.0679,-315.3644 574.4445,-320.2886 580.9937,-323.071 582.4769,-323.7849 591.2668,-328.529 606.5898,-338.6119 614.8909,-344.5451 619.3287,-347.9647 624.369,-352.4367 633.4922,-359.8106 636.1137,-362.0665 652.6795,-378.1608 656.4921,-376.5904 666.208,-373.1821 "/>
<!-- python2&#45;bytesize&#45;&gt;python2&#45;six -->
<g id="edge1" class="edge">
<title>python2&#45;bytesize&#45;&gt;python2&#45;six</title>
<path fill="none" stroke="#444444" stroke-opacity="0.333333" d="M483.2167,-1067.7719C508.0869,-1030.4913 565.2794,-944.7592 594.4444,-901.0408"/>
<polygon fill="#444444" fill-opacity="0.333333" stroke="#444444" stroke-opacity="0.333333" points="597.4154,-902.894 600.0534,-892.6328 591.5922,-899.0093 597.4154,-902.894"/>
</g>
<!-- python2&#45;cffi&#45;&gt;python2&#45;pycparser -->
<g id="edge2" class="edge">
<title>python2&#45;cffi&#45;&gt;python2&#45;pycparser</title>
<path fill="none" stroke="#444444" stroke-opacity="0.333333" d="M1244.6711,-643.0649C1266.1685,-640.6654 1290.0559,-637.9992 1313.2397,-635.4114"/>
<polygon fill="#444444" fill-opacity="0.333333" stroke="#444444" stroke-opacity="0.333333" points="1313.9259,-638.8567 1323.4759,-634.2689 1313.1493,-631.8999 1313.9259,-638.8567"/>
</g>
<!-- python2&#45;pycparser&#45;&gt;python2&#45;ply -->
<g id="edge3" class="edge">
<title>python2&#45;pycparser&#45;&gt;python2&#45;ply</title>
<path fill="none" stroke="#444444" stroke-opacity="0.333333" d="M1527.8377,-613.6938C1536.1415,-612.9485 1544.4556,-612.2023 1552.5662,-611.4743"/>
<polygon fill="#444444" fill-opacity="0.333333" stroke="#444444" stroke-opacity="0.333333" points="1553.0675,-614.9435 1562.7145,-610.5635 1552.4416,-607.9715 1553.0675,-614.9435"/>
</g>
<!-- python2&#45;cryptography&#45;&gt;python2&#45;six -->
<g id="edge4" class="edge">
<title>python2&#45;cryptography&#45;&gt;python2&#45;six</title>
<path fill="none" stroke="#444444" stroke-opacity="0.333333" d="M816.2816,-737.0628C774.4689,-765.1974 693.9594,-819.37 647.5545,-850.5946"/>
<polygon fill="#444444" fill-opacity="0.333333" stroke="#444444" stroke-opacity="0.333333" points="645.3695,-847.8462 639.0268,-856.3327 649.2774,-853.6539 645.3695,-847.8462"/>
</g>
<!-- python2&#45;cryptography&#45;&gt;python2&#45;cffi -->
<g id="edge5" class="edge">
<title>python2&#45;cryptography&#45;&gt;python2&#45;cffi</title>
<path fill="none" stroke="#444444" stroke-opacity="0.333333" d="M930.5572,-700.86C977.9916,-691.0447 1036.4112,-678.9564 1083.5647,-669.1992"/>
<polygon fill="#444444" fill-opacity="0.333333" stroke="#444444" stroke-opacity="0.333333" points="1084.3644,-672.608 1093.4477,-667.1542 1082.9459,-665.7532 1084.3644,-672.608"/>
</g>
<!-- python2&#45;cryptography&#45;&gt;python2&#45;asn1crypto -->
<g id="edge6" class="edge">
<title>python2&#45;cryptography&#45;&gt;python2&#45;asn1crypto</title>
<path fill="none" stroke="#444444" stroke-opacity="0.333333" d="M849.2399,-737.2163C862.5785,-777.8016 894.7294,-875.6271 910.6172,-923.9688"/>
<polygon fill="#444444" fill-opacity="0.333333" stroke="#444444" stroke-opacity="0.333333" points="907.3907,-925.3614 913.838,-933.7687 914.0407,-923.1758 907.3907,-925.3614"/>
</g>
<!-- python2&#45;cryptography&#45;&gt;python2&#45;enum34 -->
<g id="edge7" class="edge">
<title>python2&#45;cryptography&#45;&gt;python2&#45;enum34</title>
<path fill="none" stroke="#444444" stroke-opacity="0.333333" d="M878.1004,-737.0612C914.3229,-755.8955 971.0954,-785.4149 1010.385,-805.844"/>
<polygon fill="#444444" fill-opacity="0.333333" stroke="#444444" stroke-opacity="0.333333" points="1008.9908,-809.0638 1019.4778,-810.5718 1012.2201,-802.8532 1008.9908,-809.0638"/>
</g>
<!-- python2&#45;cryptography&#45;&gt;python2&#45;idna -->
<g id="edge8" class="edge">
<title>python2&#45;cryptography&#45;&gt;python2&#45;idna</title>
<path fill="none" stroke="#444444" stroke-opacity="0.333333" d="M724.6968,-703.4403C705.101,-700.8795 685.1248,-698.2691 666.5387,-695.8403"/>
<polygon fill="#444444" fill-opacity="0.333333" stroke="#444444" stroke-opacity="0.333333" points="666.7366,-692.3365 656.3674,-694.5111 665.8295,-699.2774 666.7366,-692.3365"/>
</g>
<!-- python2&#45;cryptography&#45;&gt;python2&#45;ipaddress -->
<g id="edge9" class="edge">
<title>python2&#45;cryptography&#45;&gt;python2&#45;ipaddress</title>
<path fill="none" stroke="#444444" stroke-opacity="0.333333" d="M838.9672,-700.5821C829.3189,-659.0547 805.7566,-557.6389 794.2575,-508.1454"/>
<polygon fill="#444444" fill-opacity="0.333333" stroke="#444444" stroke-opacity="0.333333" points="797.6037,-507.0819 791.9314,-498.1334 790.7853,-508.6661 797.6037,-507.0819"/>
</g>
<!-- python2&#45;iniparse&#45;&gt;python2&#45;six -->
<g id="edge10" class="edge">
<title>python2&#45;iniparse&#45;&gt;python2&#45;six</title>
<path fill="none" stroke="#444444" stroke-opacity="0.333333" d="M668.3321,-1096.3572C657.8405,-1054.8248 631.9196,-952.2141 619.3337,-902.3915"/>
<polygon fill="#444444" fill-opacity="0.333333" stroke="#444444" stroke-opacity="0.333333" points="622.7034,-901.4403 616.8607,-892.6021 615.9166,-903.1548 622.7034,-901.4403"/>
</g>
<!-- python2&#45;pyOpenSSL&#45;&gt;python2&#45;cryptography -->
<g id="edge11" class="edge">
<title>python2&#45;pyOpenSSL&#45;&gt;python2&#45;cryptography</title>
<path fill="none" stroke="#444444" stroke-opacity="0.333333" d="M880.2471,-584.1084C872.9848,-610.5588 859.4304,-659.9259 850.893,-691.0202"/>
<polygon fill="#444444" fill-opacity="0.333333" stroke="#444444" stroke-opacity="0.333333" points="847.479,-690.2354 848.2064,-700.8052 854.2292,-692.0888 847.479,-690.2354"/>
</g>
<!-- python2&#45;requests&#45;file&#45;&gt;python2&#45;six -->
<g id="edge12" class="edge">
<title>python2&#45;requests&#45;file&#45;&gt;python2&#45;six</title>
<path fill="none" stroke="#444444" stroke-opacity="0.333333" d="M508.4816,-860.8128C516.5977,-861.8716 524.6456,-862.9215 532.4582,-863.9407"/>
<polygon fill="#444444" fill-opacity="0.333333" stroke="#444444" stroke-opacity="0.333333" points="532.2102,-867.4379 542.579,-865.261 533.1158,-860.4967 532.2102,-867.4379"/>
</g>
<!-- python2&#45;requests&#45;file&#45;&gt;python2&#45;requests -->
<g id="edge13" class="edge">
<title>python2&#45;requests&#45;file&#45;&gt;python2&#45;requests</title>
<path fill="none" stroke="#444444" stroke-opacity="0.333333" d="M381.8443,-826.4474C376.136,-790.5249 363.3954,-710.349 356.5928,-667.5405"/>
<polygon fill="#444444" fill-opacity="0.333333" stroke="#444444" stroke-opacity="0.333333" points="360.0253,-666.8385 354.9992,-657.5117 353.112,-667.9371 360.0253,-666.8385"/>
</g>
<!-- python2&#45;requests&#45;&gt;python2&#45;idna -->
<g id="edge14" class="edge">
<title>python2&#45;requests&#45;&gt;python2&#45;idna</title>
<path fill="none" stroke="#444444" stroke-opacity="0.333333" d="M443.1634,-657.3679C460.346,-660.7718 478.2618,-664.321 495.2686,-667.6901"/>
<polygon fill="#444444" fill-opacity="0.333333" stroke="#444444" stroke-opacity="0.333333" points="494.675,-671.1404 505.1646,-669.6505 496.0354,-664.2739 494.675,-671.1404"/>
</g>
<!-- python2&#45;requests&#45;&gt;python2&#45;chardet -->
<g id="edge15" class="edge">
<title>python2&#45;requests&#45;&gt;python2&#45;chardet</title>
<path fill="none" stroke="#444444" stroke-opacity="0.333333" d="M326.7011,-621.1751C291.4539,-595.9906 227.643,-550.3971 188.4247,-522.3752"/>
<polygon fill="#444444" fill-opacity="0.333333" stroke="#444444" stroke-opacity="0.333333" points="190.1427,-519.3011 179.9714,-516.3352 186.0731,-524.9966 190.1427,-519.3011"/>
</g>
<!-- python2&#45;requests&#45;&gt;python2&#45;urllib3 -->
<g id="edge16" class="edge">
<title>python2&#45;requests&#45;&gt;python2&#45;urllib3</title>
<path fill="none" stroke="#444444" stroke-opacity="0.333333" d="M413.3561,-621.2714C457.9404,-608.1256 518.4304,-590.2899 565.1044,-576.5279"/>
<polygon fill="#444444" fill-opacity="0.333333" stroke="#444444" stroke-opacity="0.333333" points="566.2418,-579.8416 574.8437,-573.6562 564.2621,-573.1274 566.2418,-579.8416"/>
</g>
<!-- python2&#45;urllib3&#45;&gt;python2&#45;six -->
<g id="edge17" class="edge">
<title>python2&#45;urllib3&#45;&gt;python2&#45;six</title>
<path fill="none" stroke="#444444" stroke-opacity="0.333333" d="M634.6362,-573.679C630.6971,-626.5848 619.1561,-781.5935 614.3688,-845.8927"/>
<polygon fill="#444444" fill-opacity="0.333333" stroke="#444444" stroke-opacity="0.333333" points="610.8607,-845.8716 613.6085,-856.1039 617.8414,-846.3914 610.8607,-845.8716"/>
</g>
<!-- python2&#45;urllib3&#45;&gt;python2&#45;cryptography -->
<g id="edge18" class="edge">
<title>python2&#45;urllib3&#45;&gt;python2&#45;cryptography</title>
<path fill="none" stroke="#444444" stroke-opacity="0.333333" d="M658.9512,-573.7299C696.2991,-603.1577 770.227,-661.4082 812.2063,-694.4853"/>
<polygon fill="#444444" fill-opacity="0.333333" stroke="#444444" stroke-opacity="0.333333" points="810.135,-697.3091 820.1559,-700.749 814.4673,-691.8108 810.135,-697.3091"/>
</g>
<!-- python2&#45;urllib3&#45;&gt;python2&#45;idna -->
<g id="edge19" class="edge">
<title>python2&#45;urllib3&#45;&gt;python2&#45;idna</title>
<path fill="none" stroke="#444444" stroke-opacity="0.333333" d="M628.1953,-573.8404C618.9162,-595.5466 603.318,-632.0348 592.5719,-657.1727"/>
<polygon fill="#444444" fill-opacity="0.333333" stroke="#444444" stroke-opacity="0.333333" points="589.2876,-655.9514 588.5751,-666.5223 595.7242,-658.703 589.2876,-655.9514"/>
</g>
<!-- python2&#45;urllib3&#45;&gt;python2&#45;ipaddress -->
<g id="edge20" class="edge">
<title>python2&#45;urllib3&#45;&gt;python2&#45;ipaddress</title>
<path fill="none" stroke="#444444" stroke-opacity="0.333333" d="M672.3279,-537.5267C693.3668,-527.0482 720.0311,-513.7679 742.4277,-502.6131"/>
<polygon fill="#444444" fill-opacity="0.333333" stroke="#444444" stroke-opacity="0.333333" points="744.0252,-505.7276 751.416,-498.1364 740.9044,-499.4617 744.0252,-505.7276"/>
</g>
<!-- python2&#45;urllib3&#45;&gt;python2&#45;pyOpenSSL -->
<g id="edge21" class="edge">
<title>python2&#45;urllib3&#45;&gt;python2&#45;pyOpenSSL</title>
<path fill="none" stroke="#444444" stroke-opacity="0.333333" d="M727.023,-559.4032C741.9671,-560.0226 757.6074,-560.6708 772.9934,-561.3084"/>
<polygon fill="#444444" fill-opacity="0.333333" stroke="#444444" stroke-opacity="0.333333" points="772.9211,-564.8083 783.0575,-561.7255 773.2111,-557.8143 772.9211,-564.8083"/>
</g>
<!-- python2&#45;urllib3&#45;&gt;python2&#45;pysocks -->
<g id="edge22" class="edge">
<title>python2&#45;urllib3&#45;&gt;python2&#45;pysocks</title>
<path fill="none" stroke="#444444" stroke-opacity="0.333333" d="M620.1847,-537.4176C592.4247,-505.4096 534.8052,-438.9727 502.8203,-402.0933"/>
<polygon fill="#444444" fill-opacity="0.333333" stroke="#444444" stroke-opacity="0.333333" points="505.2232,-399.522 496.0271,-394.2606 499.935,-404.1084 505.2232,-399.522"/>
</g>
<!-- python2&#45;urllib3&#45;&gt;python&#45;backports&#45;ssl_match_hostname -->
<g id="edge23" class="edge">
<title>python2&#45;urllib3&#45;&gt;python&#45;backports&#45;ssl_match_hostname</title>
<path fill="none" stroke="#444444" stroke-opacity="0.333333" d="M637.3822,-537.5151C641.4154,-485.4106 653.0684,-334.8679 657.9394,-271.9405"/>
<polygon fill="#444444" fill-opacity="0.333333" stroke="#444444" stroke-opacity="0.333333" points="661.4316,-272.1752 658.7139,-261.9349 654.4525,-271.6349 661.4316,-272.1752"/>
</g>
<!-- python&#45;backports&#45;ssl_match_hostname&#45;&gt;python2&#45;backports -->
<g id="edge25" class="edge">
<title>python&#45;backports&#45;ssl_match_hostname&#45;&gt;python2&#45;backports</title>
<path fill="none" stroke="#444444" stroke-opacity="0.333333" d="M660.568,-225.6759C661.539,-186.4573 663.8439,-93.3679 665.0094,-46.2955"/>
<polygon fill="#444444" fill-opacity="0.333333" stroke="#444444" stroke-opacity="0.333333" points="668.5112,-46.2638 665.2599,-36.1802 661.5133,-46.0905 668.5112,-46.2638"/>
</g>
<!-- python2&#45;requests&#45;ftp&#45;&gt;python2&#45;requests -->
<g id="edge24" class="edge">
<title>python2&#45;requests&#45;ftp&#45;&gt;python2&#45;requests</title>
<path fill="none" stroke="#444444" stroke-opacity="0.333333" d="M172.8153,-698.5735C207.1062,-687.2429 251.5234,-672.5663 287.569,-660.656"/>
<polygon fill="#444444" fill-opacity="0.333333" stroke="#444444" stroke-opacity="0.333333" points="289.1013,-663.8358 297.4983,-657.3751 286.9051,-657.1893 289.1013,-663.8358"/>
</g>
<!-- python2&#45;bytesize -->
<g id="node1" class="node">
<title>python2&#45;bytesize</title>
<text text-anchor="middle" x="471.19" y="-1082.1" font-family="monospace" font-size="14.00" fill="#000000">python2&#45;bytesize</text>
</g>
<!-- python2&#45;six -->
<g id="node2" class="node">
<title>python2&#45;six</title>
<text text-anchor="middle" x="612.25" y="-870.65" font-family="monospace" font-size="14.00" fill="#000000">python2&#45;six</text>
</g>
<!-- python2&#45;cffi -->
<g id="node3" class="node">
<title>python2&#45;cffi</title>
<text text-anchor="middle" x="1169.1" y="-647.8" font-family="monospace" font-size="14.00" fill="#000000">python2&#45;cffi</text>
</g>
<!-- python2&#45;pycparser -->
<g id="node4" class="node">
<title>python2&#45;pycparser</title>
<text text-anchor="middle" x="1425.6" y="-619.17" font-family="monospace" font-size="14.00" fill="#000000">python2&#45;pycparser</text>
</g>
<!-- python2&#45;ply -->
<g id="node5" class="node">
<title>python2&#45;ply</title>
<text text-anchor="middle" x="1632.5" y="-600.6" font-family="monospace" font-size="14.00" fill="#000000">python2&#45;ply</text>
</g>
<!-- python2&#45;cryptography -->
<g id="node6" class="node">
<title>python2&#45;cryptography</title>
<text text-anchor="middle" x="843.23" y="-715.23" font-family="monospace" font-size="14.00" fill="#000000">python2&#45;cryptography</text>
</g>
<!-- python2&#45;asn1crypto -->
<g id="node7" class="node">
<title>python2&#45;asn1crypto</title>
<text text-anchor="middle" x="919.82" y="-948.27" font-family="monospace" font-size="14.00" fill="#000000">python2&#45;asn1crypto</text>
</g>
<!-- python2&#45;enum34 -->
<g id="node8" class="node">
<title>python2&#45;enum34</title>
<text text-anchor="middle" x="1054.4" y="-825.03" font-family="monospace" font-size="14.00" fill="#000000">python2&#45;enum34</text>
</g>
<!-- python2&#45;idna -->
<g id="node9" class="node">
<title>python2&#45;idna</title>
<text text-anchor="middle" x="580.83" y="-680.94" font-family="monospace" font-size="14.00" fill="#000000">python2&#45;idna</text>
</g>
<!-- python2&#45;ipaddress -->
<g id="node10" class="node">
<title>python2&#45;ipaddress</title>
<text text-anchor="middle" x="787.73" y="-476.35" font-family="monospace" font-size="14.00" fill="#000000">python2&#45;ipaddress</text>
</g>
<!-- python2&#45;iniparse -->
<g id="node11" class="node">
<title>python2&#45;iniparse</title>
<text text-anchor="middle" x="672.89" y="-1110.7" font-family="monospace" font-size="14.00" fill="#000000">python2&#45;iniparse</text>
</g>
<!-- python2&#45;pyOpenSSL -->
<g id="node12" class="node">
<title>python2&#45;pyOpenSSL</title>
<text text-anchor="middle" x="885.23" y="-562.26" font-family="monospace" font-size="14.00" fill="#000000">python2&#45;pyOpenSSL</text>
</g>
<!-- python2&#45;requests&#45;file -->
<g id="node13" class="node">
<title>python2&#45;requests&#45;file</title>
<text text-anchor="middle" x="384.74" y="-840.97" font-family="monospace" font-size="14.00" fill="#000000">python2&#45;requests&#45;file</text>
</g>
<!-- python2&#45;requests -->
<g id="node14" class="node">
<title>python2&#45;requests</title>
<text text-anchor="middle" x="352.11" y="-635.63" font-family="monospace" font-size="14.00" fill="#000000">python2&#45;requests</text>
</g>
<!-- python2&#45;chardet -->
<g id="node15" class="node">
<title>python2&#45;chardet</title>
<text text-anchor="middle" x="154.66" y="-494.55" font-family="monospace" font-size="14.00" fill="#000000">python2&#45;chardet</text>
</g>
<!-- python2&#45;urllib3 -->
<g id="node16" class="node">
<title>python2&#45;urllib3</title>
<text text-anchor="middle" x="635.98" y="-551.93" font-family="monospace" font-size="14.00" fill="#000000">python2&#45;urllib3</text>
</g>
<!-- python2&#45;pysocks -->
<g id="node17" class="node">
<title>python2&#45;pysocks</title>
<text text-anchor="middle" x="480.19" y="-372.3" font-family="monospace" font-size="14.00" fill="#000000">python2&#45;pysocks</text>
</g>
<!-- python&#45;backports&#45;ssl_match_hostname -->
<g id="node18" class="node">
<title>python&#45;backports&#45;ssl_match_hostname</title>
<text text-anchor="middle" x="660.12" y="-240.07" font-family="monospace" font-size="14.00" fill="#000000">python&#45;backports&#45;ssl_match_hostname</text>
</g>
<!-- python2&#45;requests&#45;ftp -->
<g id="node19" class="node">
<title>python2&#45;requests&#45;ftp</title>
<text text-anchor="middle" x="118.29" y="-712.89" font-family="monospace" font-size="14.00" fill="#000000">python2&#45;requests&#45;ftp</text>
</g>
<!-- python2&#45;backports -->
<g id="node20" class="node">
<title>python2&#45;backports</title>
<text text-anchor="middle" x="665.71" y="-14.3" font-family="monospace" font-size="14.00" fill="#000000">python2&#45;backports</text>
</g>
</g>
</svg>
