<?xml version="1.0" encoding="UTF-8" standalone="no"?>
<!DOCTYPE svg PUBLIC "-//W3C//DTD SVG 1.1//EN"
 "http://www.w3.org/Graphics/SVG/1.1/DTD/svg11.dtd">
<!-- Generated by graphviz version 2.40.1 (20161225.0304)
 -->
<!-- Title: G Pages: 1 -->
<svg width="1722pt" height="1157pt"
 viewBox="0.00 0.00 1721.57 1156.84" xmlns="http://www.w3.org/2000/svg" xmlns:xlink="http://www.w3.org/1999/xlink">
<g id="graph0" class="graph" transform="scale(1 1) rotate(0) translate(136.0206 987.1846)">
<title>G</title>
<polygon fill="#dae2ff" stroke="transparent" points="-136.0206,169.6597 -136.0206,-987.1846 1585.5537,-987.1846 1585.5537,169.6597 -136.0206,169.6597"/>
<polygon fill="#fbb4ae" stroke="#fbb4ae" points="731.3987,-728.3754 792.5168,-719.2463 792.5168,-719.2463 731.3987,-728.3754 724.3378,-739.9857 766.9656,-801.2584 773.0504,-807.8746 950.7881,-883.3497 979.2217,-915.1669 1090.7502,-946.7939 1114.4712,-953.9241 1117.2885,-954.8174 1134.8855,-961.2795 1134.8688,-958.3956 1134.6798,-949.1556 1133.7849,-770.3103 1139.2992,-770.3103 1144.2545,-767.3607 1145.62,-765.6918 1145.5211,-765.5751 1145.5211,-765.5751 1145.62,-765.6918 1144.2545,-767.3607 1139.2992,-770.3103 1133.7849,-770.3103 1134.6798,-949.1556 1134.8688,-958.3956 1134.8855,-961.2795 1141.0844,-963.8658 1149.7402,-967.7706 1162.6946,-929.9219 1161.7445,-854.9197 1162.5322,-817.4637 1160.3546,-765.6829 1160.2303,-765.6458 1162.9974,-716.0783 1162.5455,-673.6122 1161.78,-673.5515 1155.9955,-673.4667 1155.621,-637.7006 1157.9841,-586.4381 1152.0621,-584.6152 1148.9694,-581.8723 1153.3652,-577.7529 1149.5961,-556.4093 1148.8896,-497.0794 1161.1371,-506.2749 1170.5426,-512.2126 1184.1517,-519.1984 1225.5292,-537.8776 1225.3894,-479.6971 1230.4722,-476.8605 1233.9579,-534.4113 1236.5408,-472.9921 1235.7903,-472.7653 1238.319,-412.7759 1245.7551,-416.1372 1247.8737,-416.9554 1248.468,-417.1471 1254.1492,-418.6279 1265.9056,-420.9566 1274.7354,-421.5776 1282.074,-421.6251 1282.1281,-416.1183 1282.1281,-416.1183 1282.074,-421.6251 1274.7354,-421.5776 1265.9056,-420.9566 1254.1492,-418.6279 1248.468,-417.1471 1247.8737,-416.9554 1245.7551,-416.1372 1238.319,-412.7759 1235.7903,-472.7653 1236.5408,-472.9921 1233.9579,-534.4113 1230.4722,-476.8605 1225.3894,-479.6971 1225.5292,-537.8776 1234.0302,-542.2204 1237.8789,-544.6419 1251.1465,-553.81 1250.979,-545.9053 1252.4811,-474.4822 1257.7329,-477.6332 1262.7133,-477.6332 1262.7133,-477.6332 1257.7329,-477.6332 1252.4811,-474.4822 1250.979,-545.9053 1251.1465,-553.81 1237.8789,-544.6419 1234.0302,-542.2204 1225.5292,-537.8776 1184.1517,-519.1984 1170.5426,-512.2126 1161.1371,-506.2749 1148.8896,-497.0794 1149.5961,-556.4093 1153.3652,-577.7529 1148.9694,-581.8723 1152.0621,-584.6152 1157.9841,-586.4381 1162.9559,-584.95 1166.9296,-581.3073 1164.0326,-578.8342 1164.0326,-578.8342 1166.9296,-581.3073 1162.9559,-584.95 1157.9841,-586.4381 1155.621,-637.7006 1155.9955,-673.4667 1161.78,-673.5515 1162.5455,-673.6122 1162.9974,-716.0783 1166.6643,-763.6326 1171.2075,-759.8558 1226.8956,-759.7475 1260.9326,-680.1279 1265.9822,-681.7975 1278.6523,-685.6597 1280.5425,-686.186 1281.045,-686.2999 1299.5604,-690.0225 1317.6903,-692.2526 1318.5927,-692.3399 1321.8933,-692.5734 1331.2029,-692.7485 1335.6346,-692.9481 1336.2616,-692.96 1349.7936,-692.5114 1349.7759,-679.0859 1351.8297,-644.2779 1358.6759,-581.1737 1362.1001,-581.1737 1362.7112,-581.8865 1368.6442,-585.4524 1373.5802,-585.4524 1379.6478,-581.7136 1380.4398,-580.7645 1379.4221,-579.5781 1374.1353,-576.463 1374.1353,-576.463 1379.4221,-579.5781 1380.4398,-580.7645 1379.6478,-581.7136 1373.5802,-585.4524 1377.1678,-635.6298 1377.9114,-693.9424 1386.9744,-695.0677 1387.3385,-682.6339 1387.3385,-682.6339 1386.9744,-695.0677 1377.9114,-693.9424 1377.1678,-635.6298 1373.5802,-585.4524 1368.6442,-585.4524 1362.7112,-581.8865 1362.1001,-581.1737 1358.6759,-581.1737 1351.8297,-644.2779 1349.7759,-679.0859 1349.7936,-692.5114 1336.2616,-692.96 1335.6346,-692.9481 1331.2029,-692.7485 1321.8933,-692.5734 1318.5927,-692.3399 1317.6903,-692.2526 1299.5604,-690.0225 1281.045,-686.2999 1280.5425,-686.186 1278.6523,-685.6597 1265.9822,-681.7975 1260.9326,-680.1279 1226.8956,-759.7475 1171.2075,-759.8558 1166.6643,-763.6326 1162.9974,-716.0783 1160.2303,-765.6458 1160.3546,-765.6829 1162.5322,-817.4637 1161.7445,-854.9197 1162.6946,-929.9219 1149.7402,-967.7706 1161.9216,-978.8578 1257.8273,-977.3131 1277.9012,-977.3188 1294.7861,-978.1548 1302.5803,-978.7961 1302.8068,-850.5532 1305.957,-808.4348 1310.5372,-809.757 1310.5372,-809.757 1305.957,-808.4348 1302.8068,-850.5532 1302.5803,-978.7961 1314.9379,-980.2184 1316.8073,-980.4948 1321.9758,-980.5977 1323.2285,-980.6428 1323.9285,-980.6178 1327.4222,-980.5496 1342.6615,-980.4973 1340.749,-843.5418 1340.749,-843.5418 1342.6615,-980.4973 1355.3522,-980.8622 1352.3196,-863.3818 1352.3196,-863.3818 1355.3522,-980.8622 1393.4988,-983.1846 1446.2982,-946.565 1508.1931,-895.6393 1510.8461,-808.7742 1511.6667,-796.9615 1517.3351,-733.2191 1515.8826,-726.8293 1572.7596,-604.2589 1581.5537,-586.1834 1571.6356,-569.2652 1502.1584,-440.044 1511.251,-389.1723 1523.8544,-331.3988 1523.0685,-330.3723 1470.0063,-258.465 1436.3951,-223.3907 1353.3893,-211.6312 1349.975,-292.9489 1349.975,-292.9489 1353.3893,-211.6312 1338.0167,-208.8857 1328.1101,-206.9347 1318.5824,-204.7101 1305.4939,-201.1752 1282.0157,-193.1071 1245.9644,-178.7486 1106.2441,-224.6947 1090.8395,-265.635 1079.9622,-295.8865 1086.3308,-326.1603 1075.7943,-434.4033 1069.292,-444.24 1006.5715,-553.4274 1001.7329,-555.207 991.5815,-558.222 988.1302,-559.1658 977.7889,-561.751 964.2725,-564.4923 927.8309,-570.1577 916.1884,-572.2428 912.6434,-572.9607 902.544,-575.483 894.5552,-577.6662 888.4771,-579.4696 879.1761,-582.4463 870.9812,-585.6445 860.0438,-590.171 852.3096,-593.5511 839.9992,-599.7941 821.4261,-610.5338 787.0109,-631.2262 786.0391,-632.9923 731.3987,-728.3754 731.3987,-728.3754"/>
<polygon fill="#fed9a6" stroke="#fed9a6" points="-132.0206,-733.8973 -129.3662,-722.7256 -117.1386,-666.8005 -116.6658,-665.6663 -74.4569,-552.1241 -7.686,-482.2741 40.1719,-477.8945 44.9156,-477.3292 45.4846,-478.4277 58.2233,-502.2158 73.1669,-528.1408 90.0304,-553.9906 92.1014,-556.8755 111.3774,-581.2904 125.8618,-597.6083 194.8494,-599.8027 210.2965,-604.9612 213.0515,-604.0686 214.3821,-603.0748 216.5249,-603.0748 219.7273,-633.7217 224.0563,-603.2931 227.4831,-603.2931 227.7,-603.3579 230.3238,-654.4821 234.1803,-603.5615 237.6101,-603.5615 244.1563,-648.606 244.2267,-606.2244 249.9364,-607.9756 255.1205,-606.4686 258.7289,-603.3818 259.0521,-603.3818 264.7569,-644.0479 265.8604,-603.1797 265.8604,-603.1797 264.7569,-644.0479 259.0521,-603.3818 258.7289,-603.3818 255.1205,-606.4686 249.9364,-607.9756 244.2267,-606.2244 244.1563,-648.606 237.6101,-603.5615 234.1803,-603.5615 230.3238,-654.4821 227.7,-603.3579 227.4831,-603.2931 224.0563,-603.2931 219.7273,-633.7217 216.5249,-603.0748 214.3821,-603.0748 213.0515,-604.0686 210.2965,-604.9612 194.8494,-599.8027 125.8618,-597.6083 111.3774,-581.2904 92.1014,-556.8755 90.0304,-553.9906 73.1669,-528.1408 58.2233,-502.2158 45.4846,-478.4277 44.9156,-477.3292 146.3572,-411.0788 168.0238,-398.1896 191.6764,-353.324 336.4915,-301.5918 364.9105,-301.3983 366.9689,-301.3484 372.4657,-301.119 386.0571,-300.0764 385.8091,-418.3395 382.6023,-461.3722 379.398,-464.2261 383.553,-467.9966 387.9837,-469.2651 387.9837,-469.2651 383.553,-467.9966 379.398,-464.2261 382.6023,-461.3722 385.8091,-418.3395 386.0571,-300.0764 398.0815,-298.7338 401.157,-298.3369 411.6414,-296.6172 445.6766,-289.844 536.3251,-292.8604 552.2511,-287.4944 558.1473,-462.7895 562.9584,-502.1052 566.9312,-502.1052 567.324,-501.9916 571.5758,-501.9916 576.711,-546.7765 577.4353,-565.0884 584.3444,-502.3412 588.7202,-502.3412 589.1337,-629.2151 600.0846,-639.32 593.7539,-503.2604 599.3273,-506.5417 604.8763,-506.5417 610.1663,-503.3463 611.1464,-575.2382 609.0792,-648.3024 623.7143,-664.8245 632.9703,-676.042 642.0718,-687.8365 650.6409,-698.547 645.8839,-533.5651 645.8839,-533.5651 650.6409,-698.547 642.0718,-687.8365 632.9703,-676.042 623.7143,-664.8245 623.7189,-540.7534 623.7189,-540.7534 623.7143,-664.8245 609.0792,-648.3024 611.1464,-575.2382 610.1663,-503.3463 611.4462,-501.7873 610.4981,-500.7041 604.9467,-497.4805 599.973,-497.4805 599.973,-497.4805 604.9467,-497.4805 610.4981,-500.7041 611.4462,-501.7873 610.1663,-503.3463 604.8763,-506.5417 599.3273,-506.5417 593.7539,-503.2604 600.0846,-639.32 589.1337,-629.2151 588.7202,-502.3412 584.3444,-502.3412 577.4353,-565.0884 576.711,-546.7765 571.5758,-501.9916 567.324,-501.9916 566.9312,-502.1052 562.9584,-502.1052 558.1473,-462.7895 552.2511,-287.4944 565.1093,-282.7836 571.5532,-280.3287 584.8176,-275.082 587.8611,-273.8344 594.5657,-270.8918 607.902,-218.8931 612.6309,-197.8933 624.356,-141.8811 594.4894,-31.5191 595.9271,-18 597.5572,10.0817 645.6672,83.3791 701.7355,137.3523 759.8406,165.6597 777.8079,162.208 790.8687,159.9101 808.4844,157.3843 806.4658,65.3327 801.6398,-17.7686 801.7175,-17.7915 807.1495,-17.7915 811.2088,-114.67 812.0532,-114.6668 814.1041,-114.7212 818.6299,-18.0377 820.1174,-18.0377 823.8867,-21.4707 828.6517,-22.8695 828.6517,-22.8695 823.8867,-21.4707 820.1174,-18.0377 818.6299,-18.0377 814.1041,-114.7212 812.0532,-114.6668 811.2088,-114.67 807.1495,-17.7915 801.7175,-17.7915 801.6398,-17.7686 806.4658,65.3327 808.4844,157.3843 810.8538,157.1221 826.4072,155.655 830.3842,155.4748 850.8025,155.2154 857.6273,155.3516 864.6792,155.7226 873.4915,152.2783 951.0369,124.9015 1019.197,33.2183 1019.1648,31.0572 1019.6028,-42.5941 1022.5858,-105.3365 1078.1851,-186.4111 1106.2441,-224.6947 1090.8395,-265.635 1079.9622,-295.8865 1086.3308,-326.1603 1075.7943,-434.4033 1069.292,-444.24 1006.5715,-553.4274 1001.7329,-555.207 991.5815,-558.222 988.1302,-559.1658 977.7889,-561.751 964.2725,-564.4923 927.8309,-570.1577 916.1884,-572.2428 912.6434,-572.9607 902.544,-575.483 894.5552,-577.6662 888.4771,-579.4696 879.1761,-582.4463 879.4664,-547.9104 879.4067,-544.9231 880.3135,-447.4211 884.0289,-444.0547 880.5633,-441.0402 875.1359,-439.4186 875.1359,-439.4186 880.5633,-441.0402 884.0289,-444.0547 880.3135,-447.4211 879.4067,-544.9231 879.4664,-547.9104 879.1761,-582.4463 870.9812,-585.6445 860.0438,-590.171 852.3096,-593.5511 852.5298,-565.3846 852.5298,-565.3846 852.3096,-593.5511 839.9992,-599.7941 821.4261,-610.5338 787.0109,-631.2262 786.0391,-632.9923 731.3987,-728.3754 724.3378,-739.9857 678.2213,-735.1251 485.7686,-820.718 467.8618,-821.9825 460.2169,-822.6401 450.6974,-823.7525 447.2109,-824.2136 439.2547,-825.5119 421.84,-828.6232 425.6888,-705.5584 430.754,-639.8693 435.4623,-642.5731 440.4453,-642.5731 446.851,-638.5956 447.4773,-637.85 447.2182,-637.5489 440.5471,-633.4084 435.6519,-633.4084 435.6519,-633.4084 440.5471,-633.4084 447.2182,-637.5489 447.4773,-637.85 446.851,-638.5956 440.4453,-642.5731 435.4623,-642.5731 430.754,-639.8693 425.6888,-705.5584 421.84,-828.6232 414.0903,-830.2452 398.8351,-834.1434 300.0856,-790.2248 346.9852,-640.9291 395.6942,-640.9546 408.5708,-644.4158 408.5708,-644.4158 395.6942,-640.9546 346.9852,-640.9291 300.0856,-790.2248 288.0862,-789.1911 264.9094,-788.6003 260.996,-788.6789 124.1195,-864.9526 113.9787,-870.8135 99.7118,-864.925 85.8419,-859.703 80.8486,-858.0943 60.6048,-852.2935 61.009,-803.7307 67.7352,-685.6492 72.3193,-688.2951 78.1556,-688.2951 83.3396,-685.1843 86.1062,-845.0837 88.4953,-778.2952 94.8332,-684.1484 98.6673,-684.1484 100.841,-683.4732 102.976,-683.4732 102.976,-683.4732 100.841,-683.4732 98.6673,-684.1484 94.8332,-684.1484 88.4953,-778.2952 86.1062,-845.0837 83.3396,-685.1843 84.3757,-683.9278 82.6873,-681.8436 78.5498,-679.4546 72.6458,-679.4546 72.6458,-679.4546 78.5498,-679.4546 82.6873,-681.8436 84.3757,-683.9278 83.3396,-685.1843 78.1556,-688.2951 72.3193,-688.2951 67.7352,-685.6492 61.009,-803.7307 59.6986,-721.8194 59.6986,-721.8194 61.009,-803.7307 60.6048,-852.2935 49.4821,-849.7084 41.0939,-847.9102 9.9484,-842.3569 -112.8937,-773.91 -132.0206,-733.8973 -132.0206,-733.8973"/>
<polyline fill="none" stroke="#000000" points="1328.1101,-206.9347 1338.0167,-208.8857 1353.3893,-211.6312 1436.3951,-223.3907 1470.0063,-258.465 1523.0685,-330.3723 1523.8544,-331.3988 1511.251,-389.1723 1502.1584,-440.044 1571.6356,-569.2652 1581.5537,-586.1834 1572.7596,-604.2589 1515.8826,-726.8293 1517.3351,-733.2191 1511.6667,-796.9615 1510.8461,-808.7742 1508.1931,-895.6393 1446.2982,-946.565 1393.4988,-983.1846 1355.3522,-980.8622 1342.6615,-980.4973 1327.4222,-980.5496 1323.9285,-980.6178 1323.2285,-980.6428 1321.9758,-980.5977 1316.8073,-980.4948 1314.9379,-980.2184 1302.5803,-978.7961 1294.7861,-978.1548 1277.9012,-977.3188 1257.8273,-977.3131 1161.9216,-978.8578 1149.7402,-967.7706 1141.0844,-963.8658 1134.8855,-961.2795 1117.2885,-954.8174 1114.4712,-953.9241 1090.7502,-946.7939 979.2217,-915.1669 950.7881,-883.3497 773.0504,-807.8746 766.9656,-801.2584 724.3378,-739.9857 731.3987,-728.3754 786.0391,-632.9923 787.0109,-631.2262 821.4261,-610.5338 839.9992,-599.7941 852.3096,-593.5511 860.0438,-590.171 870.9812,-585.6445 879.1761,-582.4463 888.4771,-579.4696 894.5552,-577.6662 902.544,-575.483 912.6434,-572.9607 916.1884,-572.2428 927.8309,-570.1577 964.2725,-564.4923 977.7889,-561.751 988.1302,-559.1658 991.5815,-558.222 1001.7329,-555.207 1006.5715,-553.4274 1069.292,-444.24 1075.7943,-434.4033 1086.3308,-326.1603 1079.9622,-295.8865 1090.8395,-265.635 1106.2441,-224.6947 1245.9644,-178.7486 1282.0157,-193.1071 1305.4939,-201.1752 1318.5824,-204.7101 1328.1101,-206.9347 "/>
<polyline fill="none" stroke="#000000" points="839.9992,-599.7941 821.4261,-610.5338 787.0109,-631.2262 786.0391,-632.9923 731.3987,-728.3754 724.3378,-739.9857 678.2213,-735.1251 485.7686,-820.718 467.8618,-821.9825 460.2169,-822.6401 450.6974,-823.7525 447.2109,-824.2136 439.2547,-825.5119 421.84,-828.6232 414.0903,-830.2452 398.8351,-834.1434 300.0856,-790.2248 288.0862,-789.1911 264.9094,-788.6003 260.996,-788.6789 124.1195,-864.9526 113.9787,-870.8135 99.7118,-864.925 85.8419,-859.703 80.8486,-858.0943 60.6048,-852.2935 49.4821,-849.7084 41.0939,-847.9102 9.9484,-842.3569 -112.8937,-773.91 -132.0206,-733.8973 -129.3662,-722.7256 -117.1386,-666.8005 -116.6658,-665.6663 -74.4569,-552.1241 -7.686,-482.2741 40.1719,-477.8945 44.9156,-477.3292 146.3572,-411.0788 168.0238,-398.1896 191.6764,-353.324 336.4915,-301.5918 364.9105,-301.3983 366.9689,-301.3484 372.4657,-301.119 386.0571,-300.0764 398.0815,-298.7338 401.157,-298.3369 411.6414,-296.6172 445.6766,-289.844 536.3251,-292.8604 552.2511,-287.4944 565.1093,-282.7836 571.5532,-280.3287 584.8176,-275.082 587.8611,-273.8344 594.5657,-270.8918 607.902,-218.8931 612.6309,-197.8933 624.356,-141.8811 594.4894,-31.5191 595.9271,-18 597.5572,10.0817 645.6672,83.3791 701.7355,137.3523 759.8406,165.6597 777.8079,162.208 790.8687,159.9101 808.4844,157.3843 810.8538,157.1221 826.4072,155.655 830.3842,155.4748 850.8025,155.2154 857.6273,155.3516 864.6792,155.7226 873.4915,152.2783 951.0369,124.9015 1019.197,33.2183 1019.1648,31.0572 1019.6028,-42.5941 1022.5858,-105.3365 1078.1851,-186.4111 1106.2441,-224.6947 1090.8395,-265.635 1079.9622,-295.8865 1086.3308,-326.1603 1075.7943,-434.4033 1069.292,-444.24 1006.5715,-553.4274 1001.7329,-555.207 991.5815,-558.222 988.1302,-559.1658 977.7889,-561.751 964.2725,-564.4923 927.8309,-570.1577 916.1884,-572.2428 912.6434,-572.9607 902.544,-575.483 894.5552,-577.6662 888.4771,-579.4696 879.1761,-582.4463 870.9812,-585.6445 860.0438,-590.171 852.3096,-593.5511 839.9992,-599.7941 "/>
<!-- boost&#45;chrono&#45;&gt;boost&#45;system -->
<g id="edge1" class="edge">
<title>boost&#45;chrono&#45;&gt;boost&#45;system</title>
<path fill="none" stroke="#444444" stroke-opacity="0.333333" d="M1305.0744,-388.7332C1296.6423,-404.6627 1284.325,-427.9321 1274.7583,-446.005"/>
<polygon fill="#444444" fill-opacity="0.333333" stroke="#444444" stroke-opacity="0.333333" points="1271.6265,-444.4402 1270.0414,-454.9158 1277.8132,-447.7151 1271.6265,-444.4402"/>
</g>
<!-- boost&#45;thread&#45;&gt;boost&#45;system -->
<g id="edge2" class="edge">
<title>boost&#45;thread&#45;&gt;boost&#45;system</title>
<path fill="none" stroke="#444444" stroke-opacity="0.333333" d="M1352.4043,-562.61C1334.2281,-544.9325 1306.5369,-518.0011 1286.2817,-498.3016"/>
<polygon fill="#444444" fill-opacity="0.333333" stroke="#444444" stroke-opacity="0.333333" points="1288.5271,-495.6031 1278.9181,-491.14 1283.6467,-500.6212 1288.5271,-495.6031"/>
</g>
<!-- curl&#45;minimal&#45;&gt;libcurl&#45;minimal -->
<g id="edge3" class="edge">
<title>curl&#45;minimal&#45;&gt;libcurl&#45;minimal</title>
<path fill="none" stroke="#444444" stroke-opacity="0.333333" d="M846.7223,-193.5949C843.2774,-159.5965 835.8536,-86.3303 831.7684,-46.013"/>
<polygon fill="#444444" fill-opacity="0.333333" stroke="#444444" stroke-opacity="0.333333" points="835.2488,-45.6416 830.7585,-36.0454 828.2845,-46.3473 835.2488,-45.6416"/>
</g>
<!-- dyninst&#45;&gt;boost&#45;chrono -->
<g id="edge4" class="edge">
<title>dyninst&#45;&gt;boost&#45;chrono</title>
<path fill="none" stroke="#444444" stroke-opacity="0.333333" d="M1171.1857,-563.6172C1198.9241,-526.2906 1262.7876,-440.3514 1295.1852,-396.755"/>
<polygon fill="#444444" fill-opacity="0.333333" stroke="#444444" stroke-opacity="0.333333" points="1298.0697,-398.7413 1301.2251,-388.6273 1292.4512,-394.566 1298.0697,-398.7413"/>
</g>
<!-- dyninst&#45;&gt;boost&#45;system -->
<g id="edge5" class="edge">
<title>dyninst&#45;&gt;boost&#45;system</title>
<path fill="none" stroke="#444444" stroke-opacity="0.333333" d="M1175.2047,-563.2245C1191.9615,-545.504 1217.4518,-518.5479 1236.1855,-498.737"/>
<polygon fill="#444444" fill-opacity="0.333333" stroke="#444444" stroke-opacity="0.333333" points="1238.9246,-500.9344 1243.2523,-491.2637 1233.8385,-496.1248 1238.9246,-500.9344"/>
</g>
<!-- dyninst&#45;&gt;boost&#45;thread -->
<g id="edge6" class="edge">
<title>dyninst&#45;&gt;boost&#45;thread</title>
<path fill="none" stroke="#444444" stroke-opacity="0.333333" d="M1205.9572,-581.463C1229.3931,-581.3817 1258.2865,-581.2815 1285.3239,-581.1878"/>
<polygon fill="#444444" fill-opacity="0.333333" stroke="#444444" stroke-opacity="0.333333" points="1285.5923,-584.687 1295.5801,-581.1522 1285.568,-577.687 1285.5923,-584.687"/>
</g>
<!-- dyninst&#45;&gt;boost&#45;atomic -->
<g id="edge7" class="edge">
<title>dyninst&#45;&gt;boost&#45;atomic</title>
<path fill="none" stroke="#444444" stroke-opacity="0.333333" d="M1155.6798,-599.9672C1151.9479,-632.2439 1144.1833,-699.3986 1139.7634,-737.6252"/>
<polygon fill="#444444" fill-opacity="0.333333" stroke="#444444" stroke-opacity="0.333333" points="1136.2834,-737.2511 1138.6116,-747.5869 1143.2371,-738.0552 1136.2834,-737.2511"/>
</g>
<!-- dyninst&#45;&gt;boost&#45;date&#45;time -->
<g id="edge8" class="edge">
<title>dyninst&#45;&gt;boost&#45;date&#45;time</title>
<path fill="none" stroke="#444444" stroke-opacity="0.333333" d="M1170.3288,-599.8962C1197.3667,-639.3157 1261.281,-732.4987 1292.751,-778.3799"/>
<polygon fill="#444444" fill-opacity="0.333333" stroke="#444444" stroke-opacity="0.333333" points="1289.8701,-780.3676 1298.4128,-786.6344 1295.6427,-776.4081 1289.8701,-780.3676"/>
</g>
<!-- dyninst&#45;&gt;libdwarf -->
<g id="edge9" class="edge">
<title>dyninst&#45;&gt;libdwarf</title>
<path fill="none" stroke="#444444" stroke-opacity="0.333333" d="M1129.8386,-599.7133C1101.1607,-618.2601 1056.419,-647.1957 1024.9672,-667.5364"/>
<polygon fill="#444444" fill-opacity="0.333333" stroke="#444444" stroke-opacity="0.333333" points="1022.9692,-664.6603 1016.4729,-673.0298 1026.7706,-670.5381 1022.9692,-664.6603"/>
</g>
<!-- systemtap&#45;client&#45;&gt;avahi&#45;libs -->
<g id="edge10" class="edge">
<title>systemtap&#45;client&#45;&gt;avahi&#45;libs</title>
<path fill="none" stroke="#444444" stroke-opacity="0.333333" d="M580.4274,-520.1238C551.5177,-544.0824 500.3455,-586.4908 467.9181,-613.3646"/>
<polygon fill="#444444" fill-opacity="0.333333" stroke="#444444" stroke-opacity="0.333333" points="465.5689,-610.7657 460.1027,-619.8416 470.0356,-616.1554 465.5689,-610.7657"/>
</g>
<!-- systemtap&#45;client&#45;&gt;systemtap&#45;runtime -->
<g id="edge11" class="edge">
<title>systemtap&#45;client&#45;&gt;systemtap&#45;runtime</title>
<path fill="none" stroke="#444444" stroke-opacity="0.333333" d="M687.3591,-484.017C716.7025,-477.793 749.7461,-470.7841 779.8291,-464.4033"/>
<polygon fill="#444444" fill-opacity="0.333333" stroke="#444444" stroke-opacity="0.333333" points="780.8519,-467.7643 789.908,-462.2654 779.3994,-460.9166 780.8519,-467.7643"/>
</g>
<!-- systemtap&#45;runtime&#45;&gt;curl&#45;minimal -->
<g id="edge12" class="edge">
<title>systemtap&#45;runtime&#45;&gt;curl&#45;minimal</title>
<path fill="none" stroke="#444444" stroke-opacity="0.333333" d="M872.8247,-426.0032C868.2505,-385.6124 857.2386,-288.3753 851.7669,-240.0593"/>
<polygon fill="#444444" fill-opacity="0.333333" stroke="#444444" stroke-opacity="0.333333" points="855.2288,-239.5247 850.6257,-229.9821 848.2733,-240.3125 855.2288,-239.5247"/>
</g>
<!-- systemtap&#45;runtime&#45;&gt;dyninst -->
<g id="edge13" class="edge">
<title>systemtap&#45;runtime&#45;&gt;dyninst</title>
<path fill="none" stroke="#444444" stroke-opacity="0.333333" d="M912.1665,-462.3426C963.37,-487.2087 1055.4394,-531.9205 1111.1519,-558.9762"/>
<polygon fill="#444444" fill-opacity="0.333333" stroke="#444444" stroke-opacity="0.333333" points="1109.9166,-562.2672 1120.441,-563.4873 1112.9746,-555.9704 1109.9166,-562.2672"/>
</g>
<!-- systemtap&#45;devel&#45;&gt;avahi&#45;libs -->
<g id="edge14" class="edge">
<title>systemtap&#45;devel&#45;&gt;avahi&#45;libs</title>
<path fill="none" stroke="#444444" stroke-opacity="0.333333" d="M340.5891,-619.9122C348.3205,-621.3411 356.0817,-622.7755 363.6645,-624.1769"/>
<polygon fill="#444444" fill-opacity="0.333333" stroke="#444444" stroke-opacity="0.333333" points="363.043,-627.6213 373.5126,-625.9971 364.3153,-620.7379 363.043,-627.6213"/>
</g>
<!-- systemtap&#45;devel&#45;&gt;kernel&#45;devel -->
<g id="edge15" class="edge">
<title>systemtap&#45;devel&#45;&gt;kernel&#45;devel</title>
<path fill="none" stroke="#444444" stroke-opacity="0.333333" d="M210.4813,-621.2141C184.8212,-633.1119 151.0759,-648.7584 123.7323,-661.4367"/>
<polygon fill="#444444" fill-opacity="0.333333" stroke="#444444" stroke-opacity="0.333333" points="121.9512,-658.4045 114.3513,-665.7864 124.8958,-664.7551 121.9512,-658.4045"/>
</g>
<!-- systemtap&#45;&gt;systemtap&#45;client -->
<g id="edge16" class="edge">
<title>systemtap&#45;&gt;systemtap&#45;client</title>
<path fill="none" stroke="#444444" stroke-opacity="0.333333" d="M447.6858,-474.7809C462.4213,-477.3843 478.6747,-480.2559 494.9395,-483.1295"/>
<polygon fill="#444444" fill-opacity="0.333333" stroke="#444444" stroke-opacity="0.333333" points="494.5982,-486.6234 505.0547,-484.9167 495.8161,-479.7301 494.5982,-486.6234"/>
</g>
<!-- systemtap&#45;&gt;systemtap&#45;devel -->
<g id="edge17" class="edge">
<title>systemtap&#45;&gt;systemtap&#45;devel</title>
<path fill="none" stroke="#444444" stroke-opacity="0.333333" d="M370.2678,-482.4531C345.9441,-506.7645 302.6485,-550.0383 275.0621,-577.6108"/>
<polygon fill="#444444" fill-opacity="0.333333" stroke="#444444" stroke-opacity="0.333333" points="272.3253,-575.3977 267.7267,-584.9425 277.2738,-580.3487 272.3253,-575.3977"/>
</g>
<!-- boost&#45;chrono -->
<g id="node1" class="node">
<title>boost&#45;chrono</title>
<text text-anchor="middle" x="1314.8" y="-366.66" font-family="monospace" font-size="14.00" fill="#000000">boost&#45;chrono</text>
</g>
<!-- boost&#45;system -->
<g id="node2" class="node">
<title>boost&#45;system</title>
<text text-anchor="middle" x="1260.4" y="-469.43" font-family="monospace" font-size="14.00" fill="#000000">boost&#45;system</text>
</g>
<!-- boost&#45;thread -->
<g id="node3" class="node">
<title>boost&#45;thread</title>
<text text-anchor="middle" x="1371.2" y="-577.19" font-family="monospace" font-size="14.00" fill="#000000">boost&#45;thread</text>
</g>
<!-- curl&#45;minimal -->
<g id="node4" class="node">
<title>curl&#45;minimal</title>
<text text-anchor="middle" x="848.57" y="-208.13" font-family="monospace" font-size="14.00" fill="#000000">curl&#45;minimal</text>
</g>
<!-- libcurl&#45;minimal -->
<g id="node5" class="node">
<title>libcurl&#45;minimal</title>
<text text-anchor="middle" x="828.93" y="-14.3" font-family="monospace" font-size="14.00" fill="#000000">libcurl&#45;minimal</text>
</g>
<!-- dyninst -->
<g id="node6" class="node">
<title>dyninst</title>
<text text-anchor="middle" x="1157.8" y="-577.93" font-family="monospace" font-size="14.00" fill="#000000">dyninst</text>
</g>
<!-- boost&#45;atomic -->
<g id="node7" class="node">
<title>boost&#45;atomic</title>
<text text-anchor="middle" x="1136.5" y="-762.15" font-family="monospace" font-size="14.00" fill="#000000">boost&#45;atomic</text>
</g>
<!-- boost&#45;date&#45;time -->
<g id="node8" class="node">
<title>boost&#45;date&#45;time</title>
<text text-anchor="middle" x="1310.9" y="-801.14" font-family="monospace" font-size="14.00" fill="#000000">boost&#45;date&#45;time</text>
</g>
<!-- libdwarf -->
<g id="node9" class="node">
<title>libdwarf</title>
<text text-anchor="middle" x="988.47" y="-687.44" font-family="monospace" font-size="14.00" fill="#000000">libdwarf</text>
</g>
<!-- systemtap&#45;client -->
<g id="node10" class="node">
<title>systemtap&#45;client</title>
<text text-anchor="middle" x="602.2" y="-498.38" font-family="monospace" font-size="14.00" fill="#000000">systemtap&#45;client</text>
</g>
<!-- avahi&#45;libs -->
<g id="node11" class="node">
<title>avahi&#45;libs</title>
<text text-anchor="middle" x="438.24" y="-634.26" font-family="monospace" font-size="14.00" fill="#000000">avahi&#45;libs</text>
</g>
<!-- systemtap&#45;runtime -->
<g id="node12" class="node">
<title>systemtap&#45;runtime</title>
<text text-anchor="middle" x="874.89" y="-440.54" font-family="monospace" font-size="14.00" fill="#000000">systemtap&#45;runtime</text>
</g>
<!-- systemtap&#45;devel -->
<g id="node13" class="node">
<title>systemtap&#45;devel</title>
<text text-anchor="middle" x="249.57" y="-599.39" font-family="monospace" font-size="14.00" fill="#000000">systemtap&#45;devel</text>
</g>
<!-- kernel&#45;devel -->
<g id="node14" class="node">
<title>kernel&#45;devel</title>
<text text-anchor="middle" x="75.393" y="-680.15" font-family="monospace" font-size="14.00" fill="#000000">kernel&#45;devel</text>
</g>
<!-- systemtap -->
<g id="node15" class="node">
<title>systemtap</title>
<text text-anchor="middle" x="388.42" y="-460.61" font-family="monospace" font-size="14.00" fill="#000000">systemtap</text>
</g>
</g>
</svg>
