<?xml version="1.0" encoding="UTF-8" standalone="no"?>
<!DOCTYPE svg PUBLIC "-//W3C//DTD SVG 1.1//EN"
 "http://www.w3.org/Graphics/SVG/1.1/DTD/svg11.dtd">
<!-- Generated by graphviz version 2.40.1 (20161225.0304)
 -->
<!-- Title: G Pages: 1 -->
<svg width="2052pt" height="837pt"
 viewBox="0.00 0.00 2052.11 836.65" xmlns="http://www.w3.org/2000/svg" xmlns:xlink="http://www.w3.org/1999/xlink">
<g id="graph0" class="graph" transform="scale(1 1) rotate(0) translate(103.7628 706.4728)">
<title>G</title>
<polygon fill="#dae2ff" stroke="transparent" points="-103.7628,130.1747 -103.7628,-706.4728 1948.3488,-706.4728 1948.3488,130.1747 -103.7628,130.1747"/>
<polygon fill="#bbd7d9" stroke="#bbd7d9" points="-89.0923,-355.3622 -88.3308,-362.1583 -86.7398,-386.9769 -21.7423,-486.6884 21.0777,-516.9415 35.7719,-516.3599 38.3879,-515.6799 40.2417,-366.2632 44.7125,-363.3902 50.2509,-419.72 51.8181,-451.6648 51.8181,-451.6648 50.2509,-419.72 44.7125,-363.3902 40.2417,-366.2632 38.3879,-515.6799 51.6806,-512.466 71.0149,-509.2018 70.7439,-450.6184 70.7439,-450.6184 71.0149,-509.2018 80.3317,-508.1397 97.9811,-506.7716 99.5224,-506.6804 100.1283,-423.4461 100.0019,-420.18 100.0019,-420.18 100.1283,-423.4461 106.0228,-364.0562 106.0228,-364.0562 100.1283,-423.4461 99.5224,-506.6804 100.9028,-506.6743 115.1036,-503.0707 147.3695,-495.5234 183.8101,-496.5831 186.8609,-496.7999 197.9581,-497.8225 199.0577,-364.26 204.0121,-364.26 210.3511,-360.5009 211.1989,-359.5374 209.8181,-357.9623 204.8905,-355.1367 204.8905,-355.1367 209.8181,-357.9623 211.1989,-359.5374 210.3511,-360.5009 204.0121,-364.26 199.0577,-364.26 197.9581,-497.8225 207.5841,-498.9119 219.414,-500.7475 226.9801,-502.0796 220.3177,-365.578 241.22,-365.14 217.6432,-357.4443 220.0768,-354.7383 226.8845,-277.175 234.2566,-277.4174 242.9137,-278.294 253.7753,-280.137 253.3628,-232.8757 255.9363,-199.1689 260.633,-197.8835 264.6284,-194.599 260.2716,-190.7853 255.5197,-189.4541 255.5197,-189.4541 260.2716,-190.7853 264.6284,-194.599 260.633,-197.8835 255.9363,-199.1689 253.3628,-232.8757 253.7753,-280.137 260.8319,-281.8162 264.1392,-282.7162 268.1868,-283.9569 279.4897,-287.8122 278.6229,-229.525 278.6229,-229.525 279.4897,-287.8122 290.7365,-292.414 289.4883,-247.0098 289.4883,-247.0098 290.7365,-292.414 279.4897,-287.8122 268.1868,-283.9569 264.1392,-282.7162 260.8319,-281.8162 253.7753,-280.137 242.9137,-278.294 234.2566,-277.4174 226.8845,-277.175 220.0768,-354.7383 217.6432,-357.4443 241.22,-365.14 220.3177,-365.578 226.9801,-502.0796 269.6799,-510.4847 313.0533,-450.146 356.2502,-389.0999 357.2183,-382.8561 368.162,-328.5458 409.0636,-289.7146 405.0156,-222.4103 403.6575,-207.0069 402.395,-169.169 402.3423,-159.9609 396.0797,-55.8353 389.1585,-44.2271 299.798,-29.2711 284.9074,-7.2499 274.4663,5.6616 199.3255,103.074 191.0324,105.6554 150.2435,103.8289 131.1695,103.4018 122.0769,103.6066 109.3057,104.4672 88.4168,107.7525 85.1316,108.4155 77.888,110.3698 62.1564,107.233 -13.1063,95.5954 -70.9309,28.0384 -80.5426,1.0451 -82.4576,-3.693 -71.3222,-54.0172 -63.2658,-94.744 -94.1855,-162.3678 -98.8886,-177.9534 -98.9637,-193.4893 -99.2955,-206.1082 -99.7628,-212.8651 -74.9229,-278.23 34.4933,-280.7822 45.43,-280.6443 47.4959,-280.6972 48.3857,-280.7541 48.4463,-280.7558 53.9198,-280.7117 54.3715,-202.103 55.7116,-201.6955 59.1337,-204.7412 59.1337,-204.7412 55.7116,-201.6955 54.3715,-202.103 53.9198,-280.7117 48.4463,-280.7558 48.3857,-280.7541 47.4959,-280.6972 45.43,-280.6443 34.4933,-280.7822 -74.9229,-278.23 -89.2535,-354.1769 -89.0923,-355.3622 -89.0923,-355.3622"/>
<polygon fill="#d8d6da" stroke="#d8d6da" points="1931.0718,-470.2216 1932.2939,-462.2701 1941.3723,-412.2318 1944.3488,-397.868 1943.0769,-384.8481 1894.5984,-312.5702 1817.8312,-309.4091 1810.3202,-308.9543 1803.2616,-308.2536 1783.9011,-305.5792 1772.8855,-303.2045 1758.1248,-299.4467 1742.2448,-294.7896 1740.4406,-294.1917 1720.4696,-286.7975 1672.7157,-320.3012 1632.8649,-328.2682 1618.4487,-330.8317 1612.4944,-331.7567 1613.368,-455.1462 1608.9274,-455.1462 1604.0979,-390.4203 1603.0931,-455.261 1598.9027,-455.261 1594.2255,-398.2776 1592.9982,-453.8944 1587.6041,-450.7977 1583.4137,-450.7977 1578.0859,-453.782 1576.6416,-455.4053 1572.3126,-455.4053 1571.9893,-455.495 1569.0115,-455.495 1562.2813,-514.153 1563.0481,-455.452 1558.1617,-455.452 1558.0869,-455.4303 1558.0869,-455.4303 1558.1617,-455.452 1563.0481,-455.452 1562.2813,-514.153 1569.0115,-455.495 1571.9893,-455.495 1572.3126,-455.4053 1576.6416,-455.4053 1578.0859,-453.782 1583.4137,-450.7977 1587.6041,-450.7977 1592.9982,-453.8944 1594.2255,-398.2776 1598.9027,-455.261 1603.0931,-455.261 1604.0979,-390.4203 1608.9274,-455.1462 1613.368,-455.1462 1612.4944,-331.7567 1602.4036,-333.0976 1595.3032,-333.7213 1577.9285,-334.0789 1560.0474,-333.2424 1559.3059,-333.1911 1543.6046,-331.0478 1528.8287,-328.7011 1478.4336,-281.1642 1431.6715,-271.923 1416.569,-268.5682 1408.1914,-266.5053 1400.4729,-264.233 1389.2668,-260.6638 1387.9601,-260.4994 1386.3206,-260.2574 1386.1099,-260.2217 1385.5391,-260.1125 1370.0936,-256.8152 1248.1085,-228.1179 1220.9321,-260.7949 1218.5897,-261.9353 1217.97,-262.2273 1211.387,-265.1231 1206.5774,-267.164 1196.6643,-271.2164 1196.1576,-272.0058 1192.4263,-277.6487 1179.2677,-296.3846 1175.4207,-301.5129 1174.8784,-302.2119 1155.5269,-328.2319 1129.3658,-362.0106 1115.9611,-380.4178 1088.1346,-421.4672 1021.8676,-410.0744 1017.2702,-409.5501 1013.9642,-409.3634 1005.4886,-409.3716 1005.36,-409.3791 1004.104,-409.525 1002.9382,-409.5969 1001.0871,-409.6112 995.9562,-409.3728 995.0732,-409.3826 994.8062,-409.3711 989.6377,-409.4466 983.2032,-409.189 982.0838,-409.2742 975.1969,-409.4219 974.6904,-409.4052 970.2226,-409.5158 970.0084,-409.4978 963.5945,-409.3294 958.8463,-409.4792 956.6171,-409.4285 951.6818,-409.0493 950.5064,-408.8955 938.8426,-406.7299 936.9991,-406.2892 924.547,-401.9424 890.1847,-388.1131 879.9354,-369.5667 874.8004,-361.0309 852.0748,-326.0683 850.9965,-324.5051 847.7263,-324.2164 838.0892,-323.7953 827.1088,-323.5604 822.8312,-323.7552 820.9471,-323.7136 811.4171,-323.2871 804.7442,-323.5851 794.637,-323.5793 789.6888,-323.2406 779.0012,-323.2266 771.3255,-322.87 758.6048,-321.7043 745.7059,-319.9407 691.1383,-310.0335 633.4153,-337.9847 625.207,-342.1362 617.0111,-423.6629 610.8403,-465.2274 619.28,-485.4778 747.7764,-449.4355 749.7611,-447.3569 751.3362,-446.9672 754.957,-467.8363 759.0317,-444.9267 761.7424,-444.9267 765.4612,-484.9391 768.2061,-444.8292 772.5372,-444.8292 774.005,-444.415 776.4766,-444.415 776.7042,-444.4789 776.7042,-444.4789 776.4766,-444.415 774.005,-444.415 772.5372,-444.8292 768.2061,-444.8292 765.4612,-484.9391 761.7424,-444.9267 759.0317,-444.9267 754.957,-467.8363 751.3362,-446.9672 749.7611,-447.3569 747.7764,-449.4355 619.28,-485.4778 620.368,-488.2759 637.3283,-518.6911 734.8744,-575.3523 737.1777,-575.1489 754.7256,-573.9661 766.5485,-573.6671 774.1689,-573.7952 786.0643,-574.2454 795.1534,-575.1616 798.8494,-575.6895 809.3474,-577.6342 814.0321,-576.831 819.9073,-575.9473 838.2143,-573.9631 853.8054,-572.6033 918.6545,-594.0815 939.5109,-601.4796 947.7807,-604.9786 957.4978,-609.5392 960.1817,-608.5999 968.8617,-605.9229 976.5024,-603.8834 984.7824,-601.8449 991.7453,-600.2761 1009.2845,-597.4166 1077.368,-589.1589 1086.9656,-583.3839 1160.2965,-589.0938 1178.1907,-590.8857 1182.7438,-591.442 1196.1122,-593.9637 1197.6179,-594.0772 1198.7117,-594.1829 1200.0936,-594.3461 1206.4346,-595.2306 1224.8755,-598.5966 1236.1771,-601.3831 1293.1755,-658.5769 1350.2456,-685.7819 1358.0776,-689.8542 1362.8159,-692.5249 1369.0646,-694.8466 1370.6036,-566.3132 1367.6777,-529.5827 1363.5776,-529.5827 1363.5128,-529.5641 1358.1595,-529.5641 1356.7813,-529.1663 1354.759,-529.1663 1354.7227,-529.1386 1349.6692,-502.8048 1347.6558,-460.3151 1314.754,-452.946 1313.3749,-455.2298 1249.6736,-462.3257 1238.244,-459.825 1238.244,-459.825 1249.6736,-462.3257 1313.3749,-455.2298 1314.754,-452.946 1347.6558,-460.3151 1349.6692,-502.8048 1354.7227,-529.1386 1354.759,-529.1663 1356.7813,-529.1663 1358.1595,-529.5641 1363.5128,-529.5641 1363.5776,-529.5827 1367.6777,-529.5827 1370.6036,-566.3132 1374.426,-529.4208 1374.3516,-529.3998 1374.3516,-529.3998 1374.426,-529.4208 1370.6036,-566.3132 1369.0646,-694.8466 1378.9374,-698.887 1386.959,-702.4728 1400.3174,-696.1211 1400.4993,-696.0382 1401.6862,-695.5431 1409.4824,-692.5844 1428.1893,-685.8383 1440.7139,-682.2805 1442.1505,-565.8886 1439.2141,-529.4696 1435.5934,-529.4696 1435.5934,-529.4696 1439.2141,-529.4696 1442.1505,-565.8886 1440.7139,-682.2805 1456.7808,-678.3281 1453.3685,-561.2042 1448.9064,-529.4724 1445.9855,-529.4724 1445.736,-529.4011 1445.736,-529.4011 1445.9855,-529.4724 1448.9064,-529.4724 1453.3685,-561.2042 1456.7808,-678.3281 1489.2415,-671.5902 1572.6194,-591.2018 1558.7188,-569.9052 1554.8258,-564.5214 1554.4911,-564.0821 1552.4562,-515.1469 1552.4562,-515.1469 1554.4911,-564.0821 1554.8258,-564.5214 1558.7188,-569.9052 1572.6194,-591.2018 1578.7902,-589.9141 1592.2753,-587.6615 1593.6672,-587.5731 1614.0409,-583.5365 1628.0902,-581.67 1685.1921,-575.3301 1686.7073,-574.4938 1727.783,-572.0858 1747.0619,-571.3839 1750.078,-571.4087 1757.1254,-571.6238 1774.5425,-572.9334 1775.7723,-573.053 1793.8673,-576.0268 1793.3075,-537.8502 1786.4078,-449.3151 1786.1185,-449.3151 1781.9587,-445.714 1781.9587,-445.714 1786.1185,-449.3151 1786.4078,-449.3151 1793.3075,-537.8502 1793.8673,-576.0268 1794.5177,-576.1771 1802.8239,-449.2126 1802.468,-449.1132 1797.6664,-449.1132 1793.5188,-525.4075 1791.9597,-449.0434 1791.9597,-449.0434 1793.5188,-525.4075 1797.6664,-449.1132 1802.468,-449.1132 1802.8239,-449.2126 1794.5177,-576.1771 1815.114,-581.4018 1823.8035,-584.1835 1842.5101,-588.6005 1924.8645,-519.4489 1931.0718,-470.2216 1931.0718,-470.2216"/>
<polygon fill="#fbb4ae" stroke="#fbb4ae" points="402.395,-169.169 402.3423,-159.9609 396.0797,-55.8353 514.7117,-92.8238 517.9283,-93.7139 526.6131,-95.8144 529.4536,-96.401 541.7575,-98.5098 554.5558,-99.3465 564.6873,-99.2928 565.0618,-99.2644 566.7395,-99.1995 575.1306,-99.4997 578.6479,-99.501 579.1431,-99.5197 585.2119,-99.319 588.385,-99.3323 590.0344,-99.4006 593.1227,-99.4193 597.0172,-99.5877 611.264,-98.6947 623.1566,-97.1097 623.5547,-97.0427 648.0296,-92.0638 699.4232,-118.0855 709.327,-123.4759 713.4329,-126.0196 722.9937,-122.0044 726.7862,-120.5376 775.8692,-104.7497 783.2004,-106.2543 798.7084,-108.9767 805.4066,-109.5488 814.9776,-110.0795 825.5617,-110.0307 828.2669,-110.1845 833.2879,-110.0177 839.5836,-110.0019 842.9727,-110.0974 843.3348,-110.1187 846.1971,-110.1155 846.7578,-110.1493 862.2722,-110.1537 863.3065,-110.2176 863.4359,-110.2296 877.3354,-110.2627 881.5791,-110.0177 882.4988,-110.0211 883.6929,-109.9899 885.2687,-109.9969 889.4239,-110.1429 889.673,-110.1441 891.4594,-110.2082 901.2948,-110.2659 902.134,-110.1951 903.7444,-110.109 909.8892,-109.9691 912.462,-109.9896 912.9792,-110.0096 919.6923,-110.4768 917.3621,-154.6263 911.7843,-202.2563 908.5706,-202.2563 908.5706,-202.2563 911.7843,-202.2563 917.3621,-154.6263 919.6923,-110.4768 920.5049,-110.4844 930.14,-110.2852 946.4055,-110.4485 968.5107,-85.0011 1012.5318,-74.5056 1018.9754,-73.3486 1028.9502,-72.7303 1035.4072,-72.7123 1038.972,-72.4908 1039.1735,-72.4902 1041.1406,-72.5999 1041.7257,-72.598 1043.5,-72.6967 1051.5995,-72.6681 1052.6198,-72.6041 1055.2614,-72.5941 1056.0758,-123.8734 1059.4421,-126.9283 1055.874,-130.2344 1055.874,-130.2344 1059.4421,-126.9283 1056.0758,-123.8734 1055.2614,-72.5941 1063.0901,-72.1019 1064.1844,-71.9687 1104.8744,-64.5929 1140.2511,-98.544 1157.4712,-113.7055 1161.9679,-117.9204 1176.8502,-132.7261 1179.2393,-135.3588 1191.4386,-149.4948 1248.3594,-209.1996 1248.1085,-228.1179 1220.9321,-260.7949 1218.5897,-261.9353 1217.97,-262.2273 1211.387,-265.1231 1206.5774,-267.164 1196.6643,-271.2164 1196.1576,-272.0058 1192.4263,-277.6487 1179.2677,-296.3846 1175.4207,-301.5129 1174.8784,-302.2119 1155.5269,-328.2319 1129.3658,-362.0106 1115.9611,-380.4178 1088.1346,-421.4672 1021.8676,-410.0744 1017.2702,-409.5501 1013.9642,-409.3634 1005.4886,-409.3716 1005.36,-409.3791 1004.104,-409.525 1002.9382,-409.5969 1001.0871,-409.6112 995.9562,-409.3728 995.0732,-409.3826 994.8062,-409.3711 989.6377,-409.4466 983.2032,-409.189 982.0838,-409.2742 975.1969,-409.4219 974.6904,-409.4052 970.2226,-409.5158 970.0084,-409.4978 963.5945,-409.3294 958.8463,-409.4792 956.6171,-409.4285 951.6818,-409.0493 950.5064,-408.8955 938.8426,-406.7299 936.9991,-406.2892 924.547,-401.9424 890.1847,-388.1131 879.9354,-369.5667 874.8004,-361.0309 852.0748,-326.0683 850.9965,-324.5051 847.7263,-324.2164 838.0892,-323.7953 827.1088,-323.5604 827.3386,-294.1439 827.3386,-294.1439 827.1088,-323.5604 822.8312,-323.7552 820.9471,-323.7136 811.4171,-323.2871 804.7442,-323.5851 794.637,-323.5793 789.6888,-323.2406 779.0012,-323.2266 771.3255,-322.87 758.6048,-321.7043 745.7059,-319.9407 691.1383,-310.0335 633.4153,-337.9847 625.207,-342.1362 617.5546,-337.5451 608.9597,-332.5895 595.2084,-325.3058 586.7325,-321.606 571.7396,-315.4061 562.6685,-312.2901 552.0584,-309.1358 551.9437,-181.2914 556.5282,-181.2914 557.7325,-180.9541 560.4894,-180.9541 562.2369,-182.8967 566.9286,-185.4923 572.2245,-185.4923 578.6093,-181.7166 579.075,-181.2057 582.3318,-181.2057 583.1898,-180.9649 587.1475,-180.9649 595.2325,-307.7224 595.3124,-249.5225 595.3124,-249.5225 595.2325,-307.7224 587.1475,-180.9649 583.1898,-180.9649 582.3318,-181.2057 579.075,-181.2057 578.6093,-181.7166 572.2245,-185.4923 566.9286,-185.4923 562.2369,-182.8967 560.4894,-180.9541 557.7325,-180.9541 556.5282,-181.2914 551.9437,-181.2914 552.0584,-309.1358 538.1273,-305.319 525.2082,-302.9862 506.7634,-300.5135 409.0636,-289.7146 405.0156,-222.4103 403.6575,-207.0069 402.395,-169.169 402.395,-169.169"/>
<polygon fill="#fed9a6" stroke="#fed9a6" points="566.7395,-99.1995 565.0618,-99.2644 564.6873,-99.2928 554.5558,-99.3465 541.7575,-98.5098 529.4536,-96.401 526.6131,-95.8144 517.9283,-93.7139 514.7117,-92.8238 396.0797,-55.8353 389.1585,-44.2271 395.124,-35.5503 412.124,-9.8253 420.9106,4.7328 501.5314,103.2761 552.5325,107.7249 572.7177,109.9567 576.0681,110.4042 576.9525,110.1483 584.2064,108.4004 596.4636,106.0356 648.0296,97.3336 701.6058,112.9552 703.162,112.6385 704.6481,112.3703 720.2883,110.2642 730.7754,109.0945 775.8692,106.1517 810.6188,116.8538 816.9446,116.3978 833.7312,115.5312 840.0796,115.4641 849.8927,115.7625 853.4894,116.0193 863.5151,116.9414 879.7114,119.097 884.0816,119.8572 890.8676,121.1765 908.2761,125.6378 910.0828,126.1747 918.3448,124.2053 926.4526,122.5986 968.5107,115.1088 990.3137,118.3317 1004.6746,114.4175 1024.2847,109.5282 1030.1266,108.4867 1045.8209,106.0579 1048.9781,105.6445 1104.8744,100.9707 1144.9644,115.9564 1158.1178,113.6438 1167.202,112.252 1173.9116,111.528 1185.0068,110.5819 1244.183,106.8802 1279.3315,64.7508 1305.9934,4.3348 1327.8933,-39.312 1314.9878,-65.5383 1181.1703,-22.856 1178.407,-19.4348 1177.9332,-19.1952 1177.2479,-15.9697 1175.7864,-14.6796 1170.6978,-13.1692 1170.6978,-13.1692 1175.7864,-14.6796 1177.2479,-15.9697 1177.9332,-19.1952 1178.407,-19.4348 1181.1703,-22.856 1314.9878,-65.5383 1248.3594,-209.1996 1191.4386,-149.4948 1179.2393,-135.3588 1176.8502,-132.7261 1161.9679,-117.9204 1157.4712,-113.7055 1140.2511,-98.544 1104.8744,-64.5929 1064.1844,-71.9687 1063.0901,-72.1019 1055.2614,-72.5941 1052.6198,-72.6041 1051.5995,-72.6681 1043.5,-72.6967 1041.7257,-72.598 1041.1406,-72.5999 1039.1735,-72.4902 1038.972,-72.4908 1035.4072,-72.7123 1028.9502,-72.7303 1018.9754,-73.3486 1012.5318,-74.5056 968.5107,-85.0011 946.4055,-110.4485 930.14,-110.2852 920.5049,-110.4844 919.6923,-110.4768 912.9792,-110.0096 912.462,-109.9896 909.8892,-109.9691 903.7444,-110.109 902.134,-110.1951 901.2948,-110.2659 891.4594,-110.2082 889.673,-110.1441 889.4239,-110.1429 885.2687,-109.9969 883.6929,-109.9899 882.4988,-110.0211 881.5791,-110.0177 877.3354,-110.2627 863.4359,-110.2296 863.3065,-110.2176 862.2722,-110.1537 846.7578,-110.1493 846.1971,-110.1155 843.3348,-110.1187 842.9727,-110.0974 839.5836,-110.0019 833.2879,-110.0177 828.2669,-110.1845 825.5617,-110.0307 814.9776,-110.0795 805.4066,-109.5488 798.7084,-108.9767 783.2004,-106.2543 775.8692,-104.7497 726.7862,-120.5376 722.9937,-122.0044 713.4329,-126.0196 709.327,-123.4759 699.4232,-118.0855 702.3325,-23.408 706.9437,-18.5652 707.3342,-19.0266 707.3342,-19.0266 706.9437,-18.5652 702.3325,-23.408 699.4232,-118.0855 648.0296,-92.0638 623.5547,-97.0427 623.1566,-97.1097 611.264,-98.6947 597.0172,-99.5877 593.1227,-99.4193 590.0344,-99.4006 588.385,-99.3323 585.2119,-99.319 579.1431,-99.5197 578.6479,-99.501 575.1306,-99.4997 566.7395,-99.1995 566.7395,-99.1995"/>
<polyline fill="none" stroke="#000000" points="88.4168,107.7525 85.1316,108.4155 77.888,110.3698 62.1564,107.233 -13.1063,95.5954 -70.9309,28.0384 -80.5426,1.0451 -82.4576,-3.693 -71.3222,-54.0172 -63.2658,-94.744 -94.1855,-162.3678 -98.8886,-177.9534 -98.9637,-193.4893 -99.2955,-206.1082 -99.7628,-212.8651 -74.9229,-278.23 -89.2535,-354.1769 -89.0923,-355.3622 -88.3308,-362.1583 -86.7398,-386.9769 -21.7423,-486.6884 21.0777,-516.9415 35.7719,-516.3599 38.3879,-515.6799 51.6806,-512.466 71.0149,-509.2018 80.3317,-508.1397 97.9811,-506.7716 99.5224,-506.6804 100.9028,-506.6743 115.1036,-503.0707 147.3695,-495.5234 183.8101,-496.5831 186.8609,-496.7999 197.9581,-497.8225 207.5841,-498.9119 219.414,-500.7475 226.9801,-502.0796 269.6799,-510.4847 313.0533,-450.146 356.2502,-389.0999 357.2183,-382.8561 368.162,-328.5458 409.0636,-289.7146 405.0156,-222.4103 403.6575,-207.0069 402.395,-169.169 402.3423,-159.9609 396.0797,-55.8353 389.1585,-44.2271 299.798,-29.2711 284.9074,-7.2499 274.4663,5.6616 199.3255,103.074 191.0324,105.6554 150.2435,103.8289 131.1695,103.4018 122.0769,103.6066 109.3057,104.4672 88.4168,107.7525 "/>
<polyline fill="none" stroke="#000000" points="960.1817,-608.5999 957.4978,-609.5392 947.7807,-604.9786 939.5109,-601.4796 918.6545,-594.0815 853.8054,-572.6033 838.2143,-573.9631 819.9073,-575.9473 814.0321,-576.831 809.3474,-577.6342 798.8494,-575.6895 795.1534,-575.1616 786.0643,-574.2454 774.1689,-573.7952 766.5485,-573.6671 754.7256,-573.9661 737.1777,-575.1489 734.8744,-575.3523 637.3283,-518.6911 620.368,-488.2759 619.28,-485.4778 610.8403,-465.2274 617.0111,-423.6629 625.207,-342.1362 633.4153,-337.9847 691.1383,-310.0335 745.7059,-319.9407 758.6048,-321.7043 771.3255,-322.87 779.0012,-323.2266 789.6888,-323.2406 794.637,-323.5793 804.7442,-323.5851 811.4171,-323.2871 820.9471,-323.7136 822.8312,-323.7552 827.1088,-323.5604 838.0892,-323.7953 847.7263,-324.2164 850.9965,-324.5051 852.0748,-326.0683 874.8004,-361.0309 879.9354,-369.5667 890.1847,-388.1131 924.547,-401.9424 936.9991,-406.2892 938.8426,-406.7299 950.5064,-408.8955 951.6818,-409.0493 956.6171,-409.4285 958.8463,-409.4792 963.5945,-409.3294 970.0084,-409.4978 970.2226,-409.5158 974.6904,-409.4052 975.1969,-409.4219 982.0838,-409.2742 983.2032,-409.189 989.6377,-409.4466 994.8062,-409.3711 995.0732,-409.3826 995.9562,-409.3728 1001.0871,-409.6112 1002.9382,-409.5969 1004.104,-409.525 1005.36,-409.3791 1005.4886,-409.3716 1013.9642,-409.3634 1017.2702,-409.5501 1021.8676,-410.0744 1088.1346,-421.4672 1115.9611,-380.4178 1129.3658,-362.0106 1155.5269,-328.2319 1174.8784,-302.2119 1175.4207,-301.5129 1179.2677,-296.3846 1192.4263,-277.6487 1196.1576,-272.0058 1196.6643,-271.2164 1206.5774,-267.164 1211.387,-265.1231 1217.97,-262.2273 1218.5897,-261.9353 1220.9321,-260.7949 1248.1085,-228.1179 1370.0936,-256.8152 1385.5391,-260.1125 1386.1099,-260.2217 1386.3206,-260.2574 1387.9601,-260.4994 1389.2668,-260.6638 1400.4729,-264.233 1408.1914,-266.5053 1416.569,-268.5682 1431.6715,-271.923 1478.4336,-281.1642 1528.8287,-328.7011 1543.6046,-331.0478 1559.3059,-333.1911 1560.0474,-333.2424 1577.9285,-334.0789 1595.3032,-333.7213 1602.4036,-333.0976 1612.4944,-331.7567 1618.4487,-330.8317 1632.8649,-328.2682 1672.7157,-320.3012 1720.4696,-286.7975 1740.4406,-294.1917 1742.2448,-294.7896 1758.1248,-299.4467 1772.8855,-303.2045 1783.9011,-305.5792 1803.2616,-308.2536 1810.3202,-308.9543 1817.8312,-309.4091 1894.5984,-312.5702 1943.0769,-384.8481 1944.3488,-397.868 1941.3723,-412.2318 1932.2939,-462.2701 1931.0718,-470.2216 1924.8645,-519.4489 1842.5101,-588.6005 1823.8035,-584.1835 1815.114,-581.4018 1794.5177,-576.1771 1793.8673,-576.0268 1775.7723,-573.053 1774.5425,-572.9334 1757.1254,-571.6238 1750.078,-571.4087 1747.0619,-571.3839 1727.783,-572.0858 1686.7073,-574.4938 1685.1921,-575.3301 1628.0902,-581.67 1614.0409,-583.5365 1593.6672,-587.5731 1592.2753,-587.6615 1578.7902,-589.9141 1572.6194,-591.2018 1489.2415,-671.5902 1456.7808,-678.3281 1440.7139,-682.2805 1428.1893,-685.8383 1409.4824,-692.5844 1401.6862,-695.5431 1400.4993,-696.0382 1400.3174,-696.1211 1386.959,-702.4728 1378.9374,-698.887 1369.0646,-694.8466 1362.8159,-692.5249 1358.0776,-689.8542 1350.2456,-685.7819 1293.1755,-658.5769 1236.1771,-601.3831 1224.8755,-598.5966 1206.4346,-595.2306 1200.0936,-594.3461 1198.7117,-594.1829 1197.6179,-594.0772 1196.1122,-593.9637 1182.7438,-591.442 1178.1907,-590.8857 1160.2965,-589.0938 1086.9656,-583.3839 1077.368,-589.1589 1009.2845,-597.4166 991.7453,-600.2761 984.7824,-601.8449 976.5024,-603.8834 968.8617,-605.9229 960.1817,-608.5999 "/>
<polyline fill="none" stroke="#000000" points="847.7263,-324.2164 838.0892,-323.7953 827.1088,-323.5604 822.8312,-323.7552 820.9471,-323.7136 811.4171,-323.2871 804.7442,-323.5851 794.637,-323.5793 789.6888,-323.2406 779.0012,-323.2266 771.3255,-322.87 758.6048,-321.7043 745.7059,-319.9407 691.1383,-310.0335 633.4153,-337.9847 625.207,-342.1362 617.5546,-337.5451 608.9597,-332.5895 595.2084,-325.3058 586.7325,-321.606 571.7396,-315.4061 562.6685,-312.2901 552.0584,-309.1358 538.1273,-305.319 525.2082,-302.9862 506.7634,-300.5135 409.0636,-289.7146 405.0156,-222.4103 403.6575,-207.0069 402.395,-169.169 402.3423,-159.9609 396.0797,-55.8353 514.7117,-92.8238 517.9283,-93.7139 526.6131,-95.8144 529.4536,-96.401 541.7575,-98.5098 554.5558,-99.3465 564.6873,-99.2928 565.0618,-99.2644 566.7395,-99.1995 575.1306,-99.4997 578.6479,-99.501 579.1431,-99.5197 585.2119,-99.319 588.385,-99.3323 590.0344,-99.4006 593.1227,-99.4193 597.0172,-99.5877 611.264,-98.6947 623.1566,-97.1097 623.5547,-97.0427 648.0296,-92.0638 699.4232,-118.0855 709.327,-123.4759 713.4329,-126.0196 722.9937,-122.0044 726.7862,-120.5376 775.8692,-104.7497 783.2004,-106.2543 798.7084,-108.9767 805.4066,-109.5488 814.9776,-110.0795 825.5617,-110.0307 828.2669,-110.1845 833.2879,-110.0177 839.5836,-110.0019 842.9727,-110.0974 843.3348,-110.1187 846.1971,-110.1155 846.7578,-110.1493 862.2722,-110.1537 863.3065,-110.2176 863.4359,-110.2296 877.3354,-110.2627 881.5791,-110.0177 882.4988,-110.0211 883.6929,-109.9899 885.2687,-109.9969 889.4239,-110.1429 889.673,-110.1441 891.4594,-110.2082 901.2948,-110.2659 902.134,-110.1951 903.7444,-110.109 909.8892,-109.9691 912.462,-109.9896 912.9792,-110.0096 919.6923,-110.4768 920.5049,-110.4844 930.14,-110.2852 946.4055,-110.4485 968.5107,-85.0011 1012.5318,-74.5056 1018.9754,-73.3486 1028.9502,-72.7303 1035.4072,-72.7123 1038.972,-72.4908 1039.1735,-72.4902 1041.1406,-72.5999 1041.7257,-72.598 1043.5,-72.6967 1051.5995,-72.6681 1052.6198,-72.6041 1055.2614,-72.5941 1063.0901,-72.1019 1064.1844,-71.9687 1104.8744,-64.5929 1140.2511,-98.544 1157.4712,-113.7055 1161.9679,-117.9204 1176.8502,-132.7261 1179.2393,-135.3588 1191.4386,-149.4948 1248.3594,-209.1996 1248.1085,-228.1179 1220.9321,-260.7949 1218.5897,-261.9353 1217.97,-262.2273 1211.387,-265.1231 1206.5774,-267.164 1196.6643,-271.2164 1196.1576,-272.0058 1192.4263,-277.6487 1179.2677,-296.3846 1175.4207,-301.5129 1174.8784,-302.2119 1155.5269,-328.2319 1129.3658,-362.0106 1115.9611,-380.4178 1088.1346,-421.4672 1021.8676,-410.0744 1017.2702,-409.5501 1013.9642,-409.3634 1005.4886,-409.3716 1005.36,-409.3791 1004.104,-409.525 1002.9382,-409.5969 1001.0871,-409.6112 995.9562,-409.3728 995.0732,-409.3826 994.8062,-409.3711 989.6377,-409.4466 983.2032,-409.189 982.0838,-409.2742 975.1969,-409.4219 974.6904,-409.4052 970.2226,-409.5158 970.0084,-409.4978 963.5945,-409.3294 958.8463,-409.4792 956.6171,-409.4285 951.6818,-409.0493 950.5064,-408.8955 938.8426,-406.7299 936.9991,-406.2892 924.547,-401.9424 890.1847,-388.1131 879.9354,-369.5667 874.8004,-361.0309 852.0748,-326.0683 850.9965,-324.5051 847.7263,-324.2164 "/>
<polyline fill="none" stroke="#000000" points="862.2722,-110.1537 846.7578,-110.1493 846.1971,-110.1155 843.3348,-110.1187 842.9727,-110.0974 839.5836,-110.0019 833.2879,-110.0177 828.2669,-110.1845 825.5617,-110.0307 814.9776,-110.0795 805.4066,-109.5488 798.7084,-108.9767 783.2004,-106.2543 775.8692,-104.7497 726.7862,-120.5376 722.9937,-122.0044 713.4329,-126.0196 709.327,-123.4759 699.4232,-118.0855 648.0296,-92.0638 623.5547,-97.0427 623.1566,-97.1097 611.264,-98.6947 597.0172,-99.5877 593.1227,-99.4193 590.0344,-99.4006 588.385,-99.3323 585.2119,-99.319 579.1431,-99.5197 578.6479,-99.501 575.1306,-99.4997 566.7395,-99.1995 565.0618,-99.2644 564.6873,-99.2928 554.5558,-99.3465 541.7575,-98.5098 529.4536,-96.401 526.6131,-95.8144 517.9283,-93.7139 514.7117,-92.8238 396.0797,-55.8353 389.1585,-44.2271 395.124,-35.5503 412.124,-9.8253 420.9106,4.7328 501.5314,103.2761 552.5325,107.7249 572.7177,109.9567 576.0681,110.4042 576.9525,110.1483 584.2064,108.4004 596.4636,106.0356 648.0296,97.3336 701.6058,112.9552 703.162,112.6385 704.6481,112.3703 720.2883,110.2642 730.7754,109.0945 775.8692,106.1517 810.6188,116.8538 816.9446,116.3978 833.7312,115.5312 840.0796,115.4641 849.8927,115.7625 853.4894,116.0193 863.5151,116.9414 879.7114,119.097 884.0816,119.8572 890.8676,121.1765 908.2761,125.6378 910.0828,126.1747 918.3448,124.2053 926.4526,122.5986 968.5107,115.1088 990.3137,118.3317 1004.6746,114.4175 1024.2847,109.5282 1030.1266,108.4867 1045.8209,106.0579 1048.9781,105.6445 1104.8744,100.9707 1144.9644,115.9564 1158.1178,113.6438 1167.202,112.252 1173.9116,111.528 1185.0068,110.5819 1244.183,106.8802 1279.3315,64.7508 1305.9934,4.3348 1327.8933,-39.312 1314.9878,-65.5383 1248.3594,-209.1996 1191.4386,-149.4948 1179.2393,-135.3588 1176.8502,-132.7261 1161.9679,-117.9204 1157.4712,-113.7055 1140.2511,-98.544 1104.8744,-64.5929 1064.1844,-71.9687 1063.0901,-72.1019 1055.2614,-72.5941 1052.6198,-72.6041 1051.5995,-72.6681 1043.5,-72.6967 1041.7257,-72.598 1041.1406,-72.5999 1039.1735,-72.4902 1038.972,-72.4908 1035.4072,-72.7123 1028.9502,-72.7303 1018.9754,-73.3486 1012.5318,-74.5056 968.5107,-85.0011 946.4055,-110.4485 930.14,-110.2852 920.5049,-110.4844 919.6923,-110.4768 912.9792,-110.0096 912.462,-109.9896 909.8892,-109.9691 903.7444,-110.109 902.134,-110.1951 901.2948,-110.2659 891.4594,-110.2082 889.673,-110.1441 889.4239,-110.1429 885.2687,-109.9969 883.6929,-109.9899 882.4988,-110.0211 881.5791,-110.0177 877.3354,-110.2627 863.4359,-110.2296 863.3065,-110.2176 862.2722,-110.1537 "/>
<!-- libmbim&#45;utils&#45;&gt;libmbim -->
<g id="edge1" class="edge">
<title>libmbim&#45;utils&#45;&gt;libmbim</title>
<path fill="none" stroke="#444444" stroke-opacity="0.333333" d="M99.3625,-36.3054C92.6781,-68.526 78.7707,-135.564 70.8542,-173.7242"/>
<polygon fill="#444444" fill-opacity="0.333333" stroke="#444444" stroke-opacity="0.333333" points="67.3955,-173.1662 68.7912,-183.6687 74.2496,-174.5881 67.3955,-173.1662"/>
</g>
<!-- libqmi&#45;&gt;libmbim -->
<g id="edge2" class="edge">
<title>libqmi&#45;&gt;libmbim</title>
<path fill="none" stroke="#444444" stroke-opacity="0.333333" d="M186.0198,-341.439C161.8418,-313.5591 115.3522,-259.9513 87.5642,-227.9087"/>
<polygon fill="#444444" fill-opacity="0.333333" stroke="#444444" stroke-opacity="0.333333" points="90.1233,-225.5174 80.9274,-220.2557 84.8349,-230.1036 90.1233,-225.5174"/>
</g>
<!-- libqmi&#45;utils&#45;&gt;libmbim -->
<g id="edge3" class="edge">
<title>libqmi&#45;utils&#45;&gt;libmbim</title>
<path fill="none" stroke="#444444" stroke-opacity="0.333333" d="M74.2018,-341.7665C72.4118,-314.5316 69.0119,-262.8031 66.8862,-230.4605"/>
<polygon fill="#444444" fill-opacity="0.333333" stroke="#444444" stroke-opacity="0.333333" points="70.3667,-230.0476 66.2183,-220.2987 63.3817,-230.5068 70.3667,-230.0476"/>
</g>
<!-- libqmi&#45;utils&#45;&gt;libqmi -->
<g id="edge4" class="edge">
<title>libqmi&#45;utils&#45;&gt;libqmi</title>
<path fill="none" stroke="#444444" stroke-opacity="0.333333" d="M151.0539,-359.6684C151.2115,-359.6679 151.369,-359.6674 151.5264,-359.667"/>
<polygon fill="#444444" fill-opacity="0.333333" stroke="#444444" stroke-opacity="0.333333" points="148.5297,-363.1759 158.5194,-359.6465 148.5091,-356.1759 148.5297,-363.1759"/>
</g>
<!-- mariadb&#45;common&#45;&gt;mariadb&#45;config -->
<g id="edge5" class="edge">
<title>mariadb&#45;common&#45;&gt;mariadb&#45;config</title>
<path fill="none" stroke="#444444" stroke-opacity="0.333333" d="M881.2775,-455.1503C881.1256,-455.133 880.9736,-455.1156 880.8217,-455.0983"/>
<polygon fill="#444444" fill-opacity="0.333333" stroke="#444444" stroke-opacity="0.333333" points="884.3138,-451.9743 873.9813,-454.3175 883.5199,-458.9291 884.3138,-451.9743"/>
</g>
<!-- mariadb&#45;libs&#45;&gt;mariadb&#45;common -->
<g id="edge6" class="edge">
<title>mariadb&#45;libs&#45;&gt;mariadb&#45;common</title>
<path fill="none" stroke="#444444" stroke-opacity="0.333333" d="M1127.5505,-465.8361C1107.2082,-465.7274 1084.9272,-465.6083 1063.6226,-465.4944"/>
<polygon fill="#444444" fill-opacity="0.333333" stroke="#444444" stroke-opacity="0.333333" points="1063.6042,-461.9943 1053.5856,-465.4407 1063.5667,-468.9942 1063.6042,-461.9943"/>
</g>
<!-- ModemManager&#45;&gt;libmbim&#45;utils -->
<g id="edge7" class="edge">
<title>ModemManager&#45;&gt;libmbim&#45;utils</title>
<path fill="none" stroke="#444444" stroke-opacity="0.333333" d="M239.8783,-176.1148C212.6468,-144.6215 156.6731,-79.8879 125.4519,-43.7806"/>
<polygon fill="#444444" fill-opacity="0.333333" stroke="#444444" stroke-opacity="0.333333" points="128.0043,-41.3813 118.816,-36.1062 122.7092,-45.9598 128.0043,-41.3813"/>
</g>
<!-- ModemManager&#45;&gt;libmbim -->
<g id="edge8" class="edge">
<title>ModemManager&#45;&gt;libmbim</title>
<path fill="none" stroke="#444444" stroke-opacity="0.333333" d="M180.0117,-197.3267C161.069,-198.08 141.0408,-198.8765 123.0998,-199.5899"/>
<polygon fill="#444444" fill-opacity="0.333333" stroke="#444444" stroke-opacity="0.333333" points="122.9386,-196.0935 113.0856,-199.9881 123.2168,-203.0879 122.9386,-196.0935"/>
</g>
<!-- ModemManager&#45;&gt;libqmi -->
<g id="edge9" class="edge">
<title>ModemManager&#45;&gt;libqmi</title>
<path fill="none" stroke="#444444" stroke-opacity="0.333333" d="M249.6436,-212.6305C240.2259,-241.4844 221.868,-297.7294 210.8029,-331.6306"/>
<polygon fill="#444444" fill-opacity="0.333333" stroke="#444444" stroke-opacity="0.333333" points="207.3966,-330.7868 207.621,-341.3793 214.0511,-332.9588 207.3966,-330.7868"/>
</g>
<!-- ModemManager&#45;&gt;libqmi&#45;utils -->
<g id="edge10" class="edge">
<title>ModemManager&#45;&gt;libqmi&#45;utils</title>
<path fill="none" stroke="#444444" stroke-opacity="0.333333" d="M235.9895,-212.3541C203.6234,-242.0879 139.006,-301.4504 102.3705,-335.1064"/>
<polygon fill="#444444" fill-opacity="0.333333" stroke="#444444" stroke-opacity="0.333333" points="99.9957,-332.5354 94.9993,-341.8782 104.7314,-337.6903 99.9957,-332.5354"/>
</g>
<!-- net&#45;snmp&#45;agent&#45;libs&#45;&gt;mariadb&#45;libs -->
<g id="edge11" class="edge">
<title>net&#45;snmp&#45;agent&#45;libs&#45;&gt;mariadb&#45;libs</title>
<path fill="none" stroke="#444444" stroke-opacity="0.333333" d="M1344.9835,-511.3854C1321.4124,-503.8854 1293.8804,-495.1251 1269.3744,-487.3276"/>
<polygon fill="#444444" fill-opacity="0.333333" stroke="#444444" stroke-opacity="0.333333" points="1270.3822,-483.9754 1259.7917,-484.2785 1268.2597,-490.6459 1270.3822,-483.9754"/>
</g>
<!-- net&#45;snmp&#45;agent&#45;libs&#45;&gt;net&#45;snmp&#45;libs -->
<g id="edge12" class="edge">
<title>net&#45;snmp&#45;agent&#45;libs&#45;&gt;net&#45;snmp&#45;libs</title>
<path fill="none" stroke="#444444" stroke-opacity="0.333333" d="M1446.6115,-511.3171C1472.2126,-501.0322 1504.4495,-488.0813 1531.4301,-477.2422"/>
<polygon fill="#444444" fill-opacity="0.333333" stroke="#444444" stroke-opacity="0.333333" points="1532.7603,-480.4797 1540.7347,-473.5041 1530.1508,-473.9843 1532.7603,-480.4797"/>
</g>
<!-- net&#45;snmp&#45;&gt;mariadb&#45;libs -->
<g id="edge13" class="edge">
<title>net&#45;snmp&#45;&gt;mariadb&#45;libs</title>
<path fill="none" stroke="#444444" stroke-opacity="0.333333" d="M1347.9569,-414.0885C1321.8999,-423.4696 1289.9012,-434.9898 1262.6116,-444.8146"/>
<polygon fill="#444444" fill-opacity="0.333333" stroke="#444444" stroke-opacity="0.333333" points="1261.3961,-441.5322 1253.1728,-448.2128 1263.7673,-448.1184 1261.3961,-441.5322"/>
</g>
<!-- net&#45;snmp&#45;&gt;net&#45;snmp&#45;agent&#45;libs -->
<g id="edge14" class="edge">
<title>net&#45;snmp&#45;&gt;net&#45;snmp&#45;agent&#45;libs</title>
<path fill="none" stroke="#444444" stroke-opacity="0.333333" d="M1398.6656,-414.269C1399.2379,-436.7214 1400.215,-475.0591 1400.8832,-501.2779"/>
<polygon fill="#444444" fill-opacity="0.333333" stroke="#444444" stroke-opacity="0.333333" points="1397.3862,-501.4441 1401.14,-511.3516 1404.384,-501.2657 1397.3862,-501.4441"/>
</g>
<!-- net&#45;snmp&#45;&gt;net&#45;snmp&#45;libs -->
<g id="edge15" class="edge">
<title>net&#45;snmp&#45;&gt;net&#45;snmp&#45;libs</title>
<path fill="none" stroke="#444444" stroke-opacity="0.333333" d="M1452.4038,-413.2041C1473.214,-419.8092 1497.2057,-427.424 1519.0443,-434.3555"/>
<polygon fill="#444444" fill-opacity="0.333333" stroke="#444444" stroke-opacity="0.333333" points="1517.9904,-437.693 1528.5807,-437.3823 1520.1081,-431.021 1517.9904,-437.693"/>
</g>
<!-- net&#45;snmp&#45;utils&#45;&gt;net&#45;snmp&#45;libs -->
<g id="edge16" class="edge">
<title>net&#45;snmp&#45;utils&#45;&gt;net&#45;snmp&#45;libs</title>
<path fill="none" stroke="#444444" stroke-opacity="0.333333" d="M1690.8186,-451.9562C1686.1148,-452.1138 1681.38,-452.2723 1676.6603,-452.4304"/>
<polygon fill="#444444" fill-opacity="0.333333" stroke="#444444" stroke-opacity="0.333333" points="1676.2471,-448.9422 1666.3699,-452.775 1676.4815,-455.9382 1676.2471,-448.9422"/>
</g>
<!-- NetworkManager&#45;bluetooth&#45;&gt;bluez -->
<g id="edge17" class="edge">
<title>NetworkManager&#45;bluetooth&#45;&gt;bluez</title>
<path fill="none" stroke="#444444" stroke-opacity="0.333333" d="M902.1781,-184.4131C932.8076,-172.569 972.7076,-157.1401 1003.4231,-145.2627"/>
<polygon fill="#444444" fill-opacity="0.333333" stroke="#444444" stroke-opacity="0.333333" points="1004.985,-148.4114 1013.0496,-141.5403 1002.4603,-141.8826 1004.985,-148.4114"/>
</g>
<!-- NetworkManager&#45;bluetooth&#45;&gt;bluez&#45;libs -->
<g id="edge18" class="edge">
<title>NetworkManager&#45;bluetooth&#45;&gt;bluez&#45;libs</title>
<path fill="none" stroke="#444444" stroke-opacity="0.333333" d="M872.1593,-220.7584C896.6294,-247.4799 942.3047,-297.3575 970.2827,-327.9095"/>
<polygon fill="#444444" fill-opacity="0.333333" stroke="#444444" stroke-opacity="0.333333" points="967.9966,-330.5956 977.3314,-335.6068 973.1591,-325.8681 967.9966,-330.5956"/>
</g>
<!-- NetworkManager&#45;bluetooth&#45;&gt;NetworkManager&#45;wwan -->
<g id="edge19" class="edge">
<title>NetworkManager&#45;bluetooth&#45;&gt;NetworkManager&#45;wwan</title>
<path fill="none" stroke="#444444" stroke-opacity="0.333333" d="M715.5632,-191.9996C707.9845,-191.4312 700.3948,-190.862 692.8795,-190.2983"/>
<polygon fill="#444444" fill-opacity="0.333333" stroke="#444444" stroke-opacity="0.333333" points="692.9193,-186.7915 682.6855,-189.5337 692.3957,-193.7719 692.9193,-186.7915"/>
</g>
<!-- NetworkManager&#45;wwan&#45;&gt;ModemManager -->
<g id="edge20" class="edge">
<title>NetworkManager&#45;wwan&#45;&gt;ModemManager</title>
<path fill="none" stroke="#444444" stroke-opacity="0.333333" d="M457.2869,-185.8161C419.3014,-187.4179 377.5276,-189.1794 341.8998,-190.6818"/>
<polygon fill="#444444" fill-opacity="0.333333" stroke="#444444" stroke-opacity="0.333333" points="341.382,-187.2004 331.5383,-191.1187 341.6769,-194.1942 341.382,-187.2004"/>
</g>
<!-- NetworkManager&#45;tui&#45;&gt;libpsl -->
<g id="edge21" class="edge">
<title>NetworkManager&#45;tui&#45;&gt;libpsl</title>
<path fill="none" stroke="#444444" stroke-opacity="0.333333" d="M980.5898,-18C980.7551,-18 980.9202,-18 981.085,-18"/>
<polygon fill="#444444" fill-opacity="0.333333" stroke="#444444" stroke-opacity="0.333333" points="978.3632,-21.5001 988.3632,-18 978.3631,-14.5001 978.3632,-21.5001"/>
</g>
<!-- NetworkManager&#45;tui&#45;&gt;newt -->
<g id="edge22" class="edge">
<title>NetworkManager&#45;tui&#45;&gt;newt</title>
<path fill="none" stroke="#444444" stroke-opacity="0.333333" d="M766.0557,-18C763.5318,-18 761.0529,-18 758.6316,-18"/>
<polygon fill="#444444" fill-opacity="0.333333" stroke="#444444" stroke-opacity="0.333333" points="758.4232,-14.5001 748.4232,-18 758.4232,-21.5001 758.4232,-14.5001"/>
</g>
<!-- newt&#45;&gt;slang -->
<g id="edge23" class="edge">
<title>newt&#45;&gt;slang</title>
<path fill="none" stroke="#444444" stroke-opacity="0.333333" d="M683.0417,-18C665.8854,-18 644.5458,-18 625.5685,-18"/>
<polygon fill="#444444" fill-opacity="0.333333" stroke="#444444" stroke-opacity="0.333333" points="625.3101,-14.5001 615.3101,-18 625.31,-21.5001 625.3101,-14.5001"/>
</g>
<!-- psl&#45;&gt;libpsl -->
<g id="edge24" class="edge">
<title>psl&#45;&gt;libpsl</title>
<path fill="none" stroke="#444444" stroke-opacity="0.333333" d="M1143.2085,-18C1126.6144,-18 1104.8017,-18 1084.8587,-18"/>
<polygon fill="#444444" fill-opacity="0.333333" stroke="#444444" stroke-opacity="0.333333" points="1084.6378,-14.5001 1074.6378,-18 1084.6378,-21.5001 1084.6378,-14.5001"/>
</g>
<!-- libmbim&#45;utils -->
<g id="node1" class="node">
<title>libmbim&#45;utils</title>
<text text-anchor="middle" x="103.16" y="-14.3" font-family="monospace" font-size="14.00" fill="#000000">libmbim&#45;utils</text>
</g>
<!-- libmbim -->
<g id="node2" class="node">
<title>libmbim</title>
<text text-anchor="middle" x="65.009" y="-198.2" font-family="monospace" font-size="14.00" fill="#000000">libmbim</text>
</g>
<!-- libqmi -->
<g id="node3" class="node">
<title>libqmi</title>
<text text-anchor="middle" x="201.7" y="-355.82" font-family="monospace" font-size="14.00" fill="#000000">libqmi</text>
</g>
<!-- libqmi&#45;utils -->
<g id="node4" class="node">
<title>libqmi&#45;utils</title>
<text text-anchor="middle" x="75.393" y="-356.19" font-family="monospace" font-size="14.00" fill="#000000">libqmi&#45;utils</text>
</g>
<!-- mariadb&#45;common -->
<g id="node5" class="node">
<title>mariadb&#45;common</title>
<text text-anchor="middle" x="967.4" y="-461.28" font-family="monospace" font-size="14.00" fill="#000000">mariadb&#45;common</text>
</g>
<!-- mariadb&#45;config -->
<g id="node6" class="node">
<title>mariadb&#45;config</title>
<text text-anchor="middle" x="787.79" y="-440.78" font-family="monospace" font-size="14.00" fill="#000000">mariadb&#45;config</text>
</g>
<!-- mariadb&#45;libs -->
<g id="node7" class="node">
<title>mariadb&#45;libs</title>
<text text-anchor="middle" x="1203.1" y="-462.54" font-family="monospace" font-size="14.00" fill="#000000">mariadb&#45;libs</text>
</g>
<!-- ModemManager -->
<g id="node8" class="node">
<title>ModemManager</title>
<text text-anchor="middle" x="255.62" y="-190.62" font-family="monospace" font-size="14.00" fill="#000000">ModemManager</text>
</g>
<!-- net&#45;snmp&#45;agent&#45;libs -->
<g id="node9" class="node">
<title>net&#45;snmp&#45;agent&#45;libs</title>
<text text-anchor="middle" x="1401.6" y="-525.7" font-family="monospace" font-size="14.00" fill="#000000">net&#45;snmp&#45;agent&#45;libs</text>
</g>
<!-- net&#45;snmp&#45;libs -->
<g id="node10" class="node">
<title>net&#45;snmp&#45;libs</title>
<text text-anchor="middle" x="1585.6" y="-451.78" font-family="monospace" font-size="14.00" fill="#000000">net&#45;snmp&#45;libs</text>
</g>
<!-- net&#45;snmp -->
<g id="node11" class="node">
<title>net&#45;snmp</title>
<text text-anchor="middle" x="1398.2" y="-392.3" font-family="monospace" font-size="14.00" fill="#000000">net&#45;snmp</text>
</g>
<!-- net&#45;snmp&#45;utils -->
<g id="node12" class="node">
<title>net&#45;snmp&#45;utils</title>
<text text-anchor="middle" x="1777" y="-445.37" font-family="monospace" font-size="14.00" fill="#000000">net&#45;snmp&#45;utils</text>
</g>
<!-- NetworkManager&#45;bluetooth -->
<g id="node13" class="node">
<title>NetworkManager&#45;bluetooth</title>
<text text-anchor="middle" x="855.43" y="-198.79" font-family="monospace" font-size="14.00" fill="#000000">NetworkManager&#45;bluetooth</text>
</g>
<!-- bluez -->
<g id="node14" class="node">
<title>bluez</title>
<text text-anchor="middle" x="1050.6" y="-123.32" font-family="monospace" font-size="14.00" fill="#000000">bluez</text>
</g>
<!-- bluez&#45;libs -->
<g id="node15" class="node">
<title>bluez&#45;libs</title>
<text text-anchor="middle" x="994.12" y="-350.24" font-family="monospace" font-size="14.00" fill="#000000">bluez&#45;libs</text>
</g>
<!-- NetworkManager&#45;wwan -->
<g id="node16" class="node">
<title>NetworkManager&#45;wwan</title>
<text text-anchor="middle" x="569.84" y="-177.37" font-family="monospace" font-size="14.00" fill="#000000">NetworkManager&#45;wwan</text>
</g>
<!-- NetworkManager&#45;tui -->
<g id="node17" class="node">
<title>NetworkManager&#45;tui</title>
<text text-anchor="middle" x="873.35" y="-14.3" font-family="monospace" font-size="14.00" fill="#000000">NetworkManager&#45;tui</text>
</g>
<!-- libpsl -->
<g id="node18" class="node">
<title>libpsl</title>
<text text-anchor="middle" x="1031.5" y="-14.3" font-family="monospace" font-size="14.00" fill="#000000">libpsl</text>
</g>
<!-- newt -->
<g id="node19" class="node">
<title>newt</title>
<text text-anchor="middle" x="715.76" y="-14.3" font-family="monospace" font-size="14.00" fill="#000000">newt</text>
</g>
<!-- slang -->
<g id="node20" class="node">
<title>slang</title>
<text text-anchor="middle" x="577.7" y="-14.3" font-family="monospace" font-size="14.00" fill="#000000">slang</text>
</g>
<!-- psl -->
<g id="node21" class="node">
<title>psl</title>
<text text-anchor="middle" x="1170.3" y="-14.3" font-family="monospace" font-size="14.00" fill="#000000">psl</text>
</g>
</g>
</svg>
