<?xml version="1.0" encoding="UTF-8" standalone="no"?>
<!DOCTYPE svg PUBLIC "-//W3C//DTD SVG 1.1//EN"
 "http://www.w3.org/Graphics/SVG/1.1/DTD/svg11.dtd">
<!-- Generated by graphviz version 2.40.1 (20161225.0304)
 -->
<!-- Title: G Pages: 1 -->
<svg width="2147pt" height="1265pt"
 viewBox="0.00 0.00 2147.38 1265.15" xmlns="http://www.w3.org/2000/svg" xmlns:xlink="http://www.w3.org/1999/xlink">
<g id="graph0" class="graph" transform="scale(1 1) rotate(0) translate(110.9851 1144.5356)">
<title>G</title>
<polygon fill="#dae2ff" stroke="transparent" points="-110.9851,120.6164 -110.9851,-1144.5356 2036.3966,-1144.5356 2036.3966,120.6164 -110.9851,120.6164"/>
<polygon fill="#d8d6d9" stroke="#d8d6d9" points="389.6217,-797.652 373.94,-800.5043 325.9077,-810.3812 258.0698,-714.9565 208.6128,-648.9591 215.6556,-637.2548 220.7391,-628.0516 234.5058,-616.9095 248.0267,-607.4839 268.0867,-594.6121 384.7731,-523.1625 398.4222,-514.0048 421.873,-495.4738 427.2933,-491.0363 439.0053,-480.054 446.8293,-480.2415 457.7391,-480.1576 458.336,-480.1812 465.2229,-480.3448 473.9269,-480.1386 480.6948,-480.1915 486.4032,-480.4161 497.1241,-480.4985 499.3548,-480.5858 513.0892,-481.3399 532.7644,-483.3494 533.4061,-483.2463 546.6682,-481.7448 554.6479,-481.0926 579.311,-479.4648 589.6676,-478.6116 599.9843,-477.4236 605.0376,-476.6759 610.7687,-484.6647 624.6259,-503.3107 626.3575,-505.7403 638.8034,-521.2414 640.5624,-523.3394 641.0964,-661.5015 652.3768,-663.9999 707.1598,-656.7649 707.1598,-690.4702 641.1231,-673.0278 639.0705,-670.4615 634.8492,-668.8641 633.8858,-668.0467 630.1368,-668.0467 629.7912,-667.9335 629.7912,-667.9335 630.1368,-668.0467 633.8858,-668.0467 634.8492,-668.8641 639.0705,-670.4615 641.1231,-673.0278 707.1598,-690.4702 707.1598,-656.7649 652.3768,-663.9999 641.0964,-661.5015 640.5624,-523.3394 663.1121,-549.086 684.9842,-575.4575 707.2113,-604.1423 770.2239,-607.6509 778.4924,-607.6161 781.195,-607.7538 781.8947,-607.7474 790.1122,-608.1257 791.5119,-608.022 795.0844,-607.9539 796.9269,-607.808 797.5334,-607.7934 808.1319,-608.1237 810.3885,-607.9224 820.895,-608.1445 835.6616,-610.0853 839.7783,-611.0737 848.6861,-613.7027 850.4705,-614.3258 863.0769,-620.1552 872.4694,-625.0173 885.114,-632.9479 912.8874,-653.363 923.6649,-660.3207 923.2052,-662.0377 876.8521,-688.7915 810.1075,-673.0802 807.6147,-670.0529 804.7968,-668.7787 803.9689,-667.9545 803.3453,-667.7346 800.8234,-667.7346 798.3485,-665.2697 792.092,-663.1111 792.092,-663.1111 798.3485,-665.2697 800.8234,-667.7346 803.3453,-667.7346 803.9689,-667.9545 804.7968,-668.7787 807.6147,-670.0529 810.1075,-673.0802 876.8521,-688.7915 860.9742,-698.995 851.7357,-704.2822 843.9954,-708.1423 842.3694,-708.8312 837.3426,-710.5995 835.9343,-710.9938 824.2222,-713.4492 811.5429,-715.1809 801.1392,-717.4641 793.0273,-720.5839 781.6179,-725.9254 772.2574,-731.835 761.8716,-739.2345 715.4753,-768.9589 707.2113,-773.9316 700.6615,-787.4448 696.8118,-794.9149 640.3491,-792.2459 625.8981,-792.2968 620.4045,-792.5953 602.9063,-793.9919 601.2681,-794.2054 586.2358,-796.932 584.4398,-796.4771 532.7644,-786.049 532.7644,-668 532.7644,-668 548.1797,-668 548.1797,-668 532.7644,-668 532.7644,-668 532.7644,-786.049 479.9313,-797.1484 472.7646,-799.009 471.4517,-798.7432 469.8379,-720.9636 472.1344,-667.9727 472.7063,-667.7908 475.4546,-667.7908 475.4546,-667.7908 472.7063,-667.7908 472.1344,-667.9727 469.8379,-720.9636 471.4517,-798.7432 455.5164,-796.2802 448.5278,-795.5365 443.0923,-795.0886 425.6522,-794.488 424.8119,-794.4792 421.4403,-794.6061 407.986,-795.4359 397.9316,-796.5399 389.6217,-797.652 389.6217,-797.652"/>
<polygon fill="#bbd7d9" stroke="#bbd7d9" points="936.5057,-739.8076 933.5555,-719.0889 923.2052,-662.0377 923.6649,-660.3207 938.2391,-649.509 1004.4628,-646.1371 1011.897,-646.0163 1013.601,-646.0478 1015.9667,-646.0098 1021.3168,-732.3634 1021.9791,-732.9205 1022.1434,-732.9695 1024.8287,-732.9695 1031.384,-777.2277 1031.7721,-782.6387 1038.042,-733.2615 1041.1458,-733.2615 1041.2432,-733.2313 1047.7015,-737.2856 1047.7015,-737.2856 1041.2432,-733.2313 1041.1458,-733.2615 1038.042,-733.2615 1031.7721,-782.6387 1031.384,-777.2277 1024.8287,-732.9695 1022.1434,-732.9695 1021.9791,-732.9205 1021.3168,-732.3634 1015.9667,-646.0098 1018.6028,-645.8759 1026.8113,-645.7453 1030.244,-645.9299 1033.3235,-645.9886 1037.3212,-645.9268 1037.4032,-645.9199 1051.4945,-645.2174 1060.2876,-644.1721 1060.9727,-644.3539 1072.8093,-646.6513 1083.6113,-647.976 1091.5903,-648.3853 1108.6588,-649.8736 1120.0404,-651.6761 1126.0232,-653.0471 1128.0393,-653.5806 1136.4382,-656.1055 1136.4382,-713.5508 1135.9275,-721.6349 1137.2828,-742.605 1178.4716,-736.7728 1187.7072,-739.6173 1192.0208,-737.278 1196.7758,-765.069 1198.8707,-803.2258 1204.272,-733.0764 1208.9766,-733.0764 1209.4924,-732.9266 1213.9219,-732.9266 1214.1786,-732.8525 1218.8149,-732.8525 1219.4209,-732.6716 1225.2145,-732.6716 1225.4519,-732.6005 1226.6649,-732.6005 1230.265,-729.541 1235.8337,-727.9384 1241.2277,-729.4837 1245.0465,-732.7476 1246.3846,-732.7476 1246.7568,-732.8571 1251.5153,-732.8571 1251.7676,-732.7824 1256.132,-732.7824 1258.2318,-733.4325 1261.9506,-733.4325 1263.6204,-732.9202 1267.647,-732.9202 1269.8171,-784.3808 1274.1586,-732.9091 1277.3221,-732.9091 1277.3221,-732.9091 1274.1586,-732.9091 1269.8171,-784.3808 1267.647,-732.9202 1263.6204,-732.9202 1261.9506,-733.4325 1258.2318,-733.4325 1256.132,-732.7824 1251.7676,-732.7824 1251.5153,-732.8571 1246.7568,-732.8571 1246.3846,-732.7476 1245.0465,-732.7476 1241.2277,-729.4837 1235.8337,-727.9384 1230.265,-729.541 1226.6649,-732.6005 1225.4519,-732.6005 1225.2145,-732.6716 1219.4209,-732.6716 1218.8149,-732.8525 1214.1786,-732.8525 1213.9219,-732.9266 1209.4924,-732.9266 1208.9766,-733.0764 1204.272,-733.0764 1198.8707,-803.2258 1196.7758,-765.069 1192.0208,-737.278 1187.7072,-739.6173 1178.4716,-736.7728 1137.2828,-742.605 1135.9275,-721.6349 1136.4382,-713.5508 1136.4382,-656.1055 1182.3466,-640.5493 1198.2856,-634.569 1200.7201,-633.4847 1203.5479,-632.1232 1215.778,-625.7865 1221.658,-622.5322 1233.425,-615.1776 1234.9392,-614.1783 1240.0743,-610.6052 1248.587,-604.3769 1253.8748,-600.3222 1261.4015,-594.286 1265.0851,-591.0723 1270.0795,-586.5339 1286.833,-570.7003 1291.8184,-565.6462 1294.6027,-562.9285 1295.6843,-561.9487 1296.7183,-561.974 1343.1505,-563.9319 1398.4542,-547.0524 1413.762,-541.8661 1421.7257,-538.9024 1431.7787,-544.7537 1441.4843,-549.8316 1461.5319,-559.543 1463.5933,-560.5002 1480.543,-567.0552 1493.1749,-571.2076 1500.8466,-574.3907 1563.174,-598.9467 1621.459,-592.1765 1623.4445,-592.6462 1644.9764,-597.277 1657.4668,-599.1409 1662.7017,-599.6929 1673.2433,-600.5739 1676.3071,-600.6959 1696.3175,-601.0543 1731.0785,-600.9158 1737.8138,-604.0744 1789.1132,-606.8055 1790.5243,-667.5577 1790.5243,-667.5577 1789.1132,-606.8055 1803.2959,-606.9089 1805.2056,-606.835 1814.9424,-606.2336 1826.3417,-605.267 1832.6611,-604.5863 1834.4885,-604.3477 1854.082,-600.4319 1856.3356,-600.8221 1870.7625,-602.3569 1871.8052,-602.4446 1874.2992,-602.599 1875.556,-602.649 1884.7977,-602.8119 1902.5996,-602.3355 1924.4954,-600.7789 2002.3159,-645.3615 2030.7686,-703.6516 2032.3966,-706.7939 2022.9508,-746.9468 2004.7185,-847.0916 1907.026,-909.0936 1900.442,-911.8209 1895.6671,-913.9783 1888.9828,-915.6647 1887.9784,-915.9684 1869.1386,-897.7556 1852.0624,-882.8798 1859.4901,-733.1139 1859.2771,-733.0505 1854.7153,-733.0505 1854.0334,-732.2282 1847.6941,-728.2966 1843.5546,-728.2966 1843.5546,-728.2966 1847.6941,-728.2966 1854.0334,-732.2282 1854.7153,-733.0505 1859.2771,-733.0505 1859.4901,-733.1139 1852.0624,-882.8798 1848.3901,-879.8021 1843.792,-876.244 1828.9969,-865.7142 1816.3759,-857.5336 1812.0961,-855.0342 1801.6071,-849.2378 1801.2175,-849.0474 1786.3564,-842.237 1737.8138,-821.549 1716.0933,-824.7415 1703.9871,-826.1224 1696.8615,-826.6984 1685.1583,-826.8681 1684.2871,-826.823 1682.2612,-826.8465 1681.9967,-826.8408 1668.5652,-826.9779 1666.698,-826.9349 1662.7231,-826.7111 1662.0477,-826.716 1658.8378,-826.8411 1653.3101,-826.8734 1652.6178,-826.8544 1649.0525,-826.983 1641.635,-826.7587 1639.4733,-826.8305 1630.7327,-826.8309 1629.0422,-826.7749 1628.8654,-826.7747 1563.174,-778.9988 1546.9897,-786.5495 1541.0656,-789.03 1536.5079,-790.7194 1529.8735,-792.8609 1524.5118,-794.333 1515.1925,-796.4421 1506.7139,-797.54 1500.1742,-798.071 1492.1779,-797.9502 1485.4705,-798.1707 1476.6768,-799.3035 1472.08,-800.1155 1471.5447,-788.424 1471.5447,-788.424 1472.08,-800.1155 1462.0688,-802.8559 1454.0049,-805.453 1442.3812,-810.3219 1442.4875,-758.317 1438.3811,-733.085 1438.4961,-733.0502 1445.9232,-737.7238 1450.1986,-737.7238 1450.1986,-737.7238 1445.9232,-737.7238 1438.4961,-733.0502 1438.3811,-733.085 1442.4875,-758.317 1442.3812,-810.3219 1431.1462,-816.1105 1431.5701,-765.197 1431.5701,-765.197 1431.1462,-816.1105 1421.2864,-822.1367 1414.0858,-827.2332 1410.0283,-826.9906 1400.151,-827.0277 1397.1927,-826.8511 1396.7018,-826.8061 1384.6016,-826.0843 1369.502,-824.2245 1362.5151,-822.7004 1350.6595,-819.7355 1347.0485,-818.6042 1343.1505,-817.2577 1335.5988,-819.6763 1320.6085,-823.5252 1283.0874,-831.9468 1279.5837,-832.9562 1269.1421,-830.3397 1251.7905,-827.6413 1244.5338,-826.9756 1241.5964,-826.7994 1238.8491,-826.7217 1230.9891,-826.7488 1224.8879,-826.5635 1224.505,-826.5883 1217.9071,-826.5701 1209.5159,-826.8141 1208.6758,-826.7816 1199.4952,-826.7184 1199.1274,-826.7034 1193.3717,-827.0179 1182.6235,-826.8774 1181.7261,-826.8353 1179.6702,-826.6693 1173.0897,-826.3477 1160.062,-824.829 1145.896,-822.2178 1136.4382,-820.1583 1090.8522,-836.2582 1083.3168,-839.1646 1066.1465,-846.3418 1060.8751,-849.2163 1053.1346,-841.8383 1050.729,-839.4025 1047.1201,-835.2655 1031.9805,-820.6809 1015.6671,-807.9161 948.8179,-763.9083 942.3904,-758.802 937.9474,-754.96 937.0714,-748.8393 936.5057,-739.8076 936.5057,-739.8076"/>
<polygon fill="#e8cfd0" stroke="#e8cfd0" points="269.7861,-280.1791 279.869,-286.2686 329.5234,-313.0151 332.8793,-315.0363 342.1614,-321.2305 348.4809,-326.2598 351.7818,-329.1034 356.9305,-333.1687 366.2764,-341.1009 368.3097,-343.0633 373.8903,-362.8147 398.5475,-432.4403 400.4691,-434.8206 431.2528,-471.3133 434.0401,-474.3902 439.0053,-480.054 427.2933,-491.0363 421.873,-495.4738 398.4222,-514.0048 384.7731,-523.1625 268.0867,-594.6121 258.0939,-464.4091 253.3879,-461.5156 250.9341,-457.6851 247.8775,-457.6851 247.0895,-457.9183 243.1648,-457.9183 242.8386,-458.0166 236.8599,-458.0166 236.7802,-457.992 231.8136,-457.992 231.0353,-457.7487 229.4362,-457.7487 225.3605,-461.5775 221.1018,-462.808 214.8599,-460.8937 211.4445,-457.8925 210.6158,-457.8925 205.6736,-523.8892 204.4011,-457.8802 203.771,-457.6885 199.9995,-457.6885 199.1688,-457.9413 199.1688,-457.9413 199.9995,-457.6885 203.771,-457.6885 204.4011,-457.8802 205.6736,-523.8892 210.6158,-457.8925 211.4445,-457.8925 214.8599,-460.8937 221.1018,-462.808 225.3605,-461.5775 229.4362,-457.7487 231.0353,-457.7487 231.8136,-457.992 236.7802,-457.992 236.8599,-458.0166 242.8386,-458.0166 243.1648,-457.9183 247.0895,-457.9183 247.8775,-457.6851 250.9341,-457.6851 253.3879,-461.5156 258.0939,-464.4091 268.0867,-594.6121 248.0267,-607.4839 234.5058,-616.9095 220.7391,-628.0516 216.2503,-616.4557 203.9001,-587.6708 201.2567,-582.1952 185.8338,-553.7181 180.8546,-545.1686 154.12,-502.6882 152.9816,-500.1796 107.9119,-495.6629 101.7416,-500.821 101.2309,-501.6636 101.1223,-501.753 102.0689,-503.3617 102.0689,-503.3617 101.1223,-501.753 101.2309,-501.6636 101.7416,-500.821 107.9119,-495.6629 152.9816,-500.1796 154.12,-502.6882 180.8546,-545.1686 185.8338,-553.7181 201.2567,-582.1952 203.9001,-587.6708 216.2503,-616.4557 220.7391,-628.0516 215.6556,-637.2548 208.6128,-648.9591 113.8845,-671.3294 103.8572,-664.4073 101.1979,-662.7714 91.1306,-503.8394 92.7118,-501.976 91.5994,-500.6399 91.5994,-500.6399 92.7118,-501.976 91.1306,-503.8394 101.1979,-662.7714 77.9717,-649.0464 67.2053,-643.5085 61.3375,-640.6397 61.7875,-541.7153 61.7875,-541.7153 61.3375,-640.6397 -55.7453,-589.311 -75.1321,-570.5662 -79.7795,-527.2802 -84.7673,-488.8391 -85.4007,-485.1841 -96.7088,-458.5587 -95.6824,-434.2774 -95.693,-411.4077 -104.8538,-359.74 -106.9851,-350.9749 -39.719,-253.2954 -30.5684,-245.7528 -10.5923,-211.626 14.7468,-187.9616 47.8169,-166.8925 84.6019,-165.5116 92.7675,-285.7227 -15.1612,-257.2822 38.8489,-300.1877 43.0873,-304.4764 43.0862,-312.5678 43.0862,-312.5678 43.0873,-304.4764 38.8489,-300.1877 -15.1612,-257.2822 92.7675,-285.7227 84.6019,-165.5116 98.0942,-164.6475 107.9683,-163.7541 114.7792,-162.9584 128.012,-160.7141 126.7805,-241.9597 129.4124,-284.5323 129.4124,-284.5323 126.7805,-241.9597 128.012,-160.7141 130.2082,-160.2261 170.8123,-155.6153 208.5374,-165.7236 223.6516,-234.7231 224.4081,-239.5055 226.415,-241.8167 233.2389,-249.2565 234.8148,-250.7842 252.9808,-267.369 254.5361,-268.6878 254.784,-268.9167 262.7468,-275.2386 266.7222,-278.1385 269.7861,-280.1791 269.7861,-280.1791"/>
<polygon fill="#fbb4ae" stroke="#fbb4ae" points="1421.4854,-386.2115 1425.0042,-404.9284 1431.0044,-433.0849 1432.6483,-474.0753 1421.7257,-538.9024 1413.762,-541.8661 1398.4542,-547.0524 1343.1505,-563.9319 1296.7183,-561.974 1295.6843,-561.9487 1294.0686,-560.2698 1287.8154,-553.999 1282.6292,-548.9876 1273.7927,-540.7708 1261.028,-529.8326 1246.2013,-518.2195 1231.5128,-508.3431 1218.9443,-500.8233 1223.6193,-392.1154 1225.4066,-390.7306 1223.4537,-387.752 1217.6165,-384.075 1216.5072,-332.4061 1166.3915,-382.411 1161.2954,-388.1256 1158.433,-326.9011 1157.7091,-325.7369 1157.1008,-325.2504 1154.0287,-325.2504 1148.2849,-385.5747 1148.2849,-385.5747 1154.0287,-325.2504 1157.1008,-325.2504 1157.7091,-325.7369 1158.433,-326.9011 1161.2954,-388.1256 1166.3915,-382.411 1216.5072,-332.4061 1217.6165,-384.075 1223.4537,-387.752 1225.4066,-390.7306 1223.6193,-392.1154 1218.9443,-500.8233 1215.5919,-498.9443 1128.3522,-453.3018 1114.072,-444.3168 1110.9269,-444.4082 1107.5034,-444.4238 1107.0334,-444.403 1093.7545,-444.4924 1092.2269,-444.5808 1082.0232,-431.9426 1075.1758,-423.9439 1071.6873,-420.1177 1069.7933,-418.1716 1068.7374,-325.0957 1063.5554,-325.0957 1062.9703,-323.9648 1065.3982,-247.7581 1067.5537,-247.1741 1071.4955,-245.9324 1074.2111,-244.9561 1087.1554,-239.714 1092.2939,-237.4083 1104.91,-231.1947 1106.8132,-230.0102 1099.1838,-218.5072 1088.0657,-203.1596 1083.6008,-197.6284 1072.4249,-185.3099 1067.27,-181.0999 1028.3262,-185.4632 1023.233,-181.4495 1022.7346,-180.5658 1042.373,-176.8103 1028.478,-172.5964 1028.3636,-143.9432 1028.3636,-143.9432 1028.478,-172.5964 1042.373,-176.8103 1022.7346,-180.5658 1020.6539,-178.9267 1017.9958,-178.9267 1017.9958,-178.9267 1020.6539,-178.9267 1022.7346,-180.5658 1023.233,-181.4495 1028.3262,-185.4632 1067.27,-181.0999 1072.4249,-185.3099 1083.6008,-197.6284 1088.0657,-203.1596 1099.1838,-218.5072 1106.8132,-230.0102 1104.91,-231.1947 1092.2939,-237.4083 1087.1554,-239.714 1074.2111,-244.9561 1071.4955,-245.9324 1067.5537,-247.1741 1065.3982,-247.7581 1062.9703,-323.9648 1063.5554,-325.0957 1068.7374,-325.0957 1069.7933,-418.1716 1068.6958,-417.1165 1068.5707,-416.9872 1059.4059,-408.1384 1057.156,-405.7826 1052.5696,-401.3424 999.4797,-345.1459 995.1496,-341.0398 993.4319,-340.9189 981.8918,-340.6649 981.735,-340.6539 979.3556,-340.6032 978.7757,-340.6189 976.1713,-340.816 974.002,-340.8763 962.3514,-340.6414 961.3378,-340.6702 961.0499,-340.6923 959.9468,-340.6716 957.3157,-340.4962 950.1754,-340.3663 949.608,-340.3835 945.8943,-340.6772 941.187,-340.8231 937.496,-340.5833 939.5627,-272.864 938.8633,-272.6392 933.5087,-272.6392 933.8325,-226.0503 936.674,-225.8098 931.9895,-179.3218 928.431,-179.3218 927.9348,-178.8865 924.8273,-138.3647 923.4063,-138.3964 916.5124,-137.9442 906.613,-139.1915 900.0366,-140.645 894.5425,-142.3761 895.6459,-97.8291 889.1747,-103.4108 859.166,-96.921 766.0586,-96.921 760.7704,-111.5544 668.179,-101.2304 661.1104,-100.7235 653.7603,-100.4899 652.3593,-100.5015 641.7283,-100.1976 643.5094,-52.8691 641.1302,-21.2211 644.7114,-17.5575 641.6479,-14.7168 636.1829,-13.0105 636.1829,-13.0105 641.6479,-14.7168 644.7114,-17.5575 641.1302,-21.2211 643.5094,-52.8691 641.7283,-100.1976 652.3593,-100.5015 653.7603,-100.4899 661.1104,-100.7235 668.179,-101.2304 760.7704,-111.5544 766.0586,-96.921 859.166,-96.921 889.1747,-103.4108 895.6459,-97.8291 894.5425,-142.3761 900.0366,-140.645 906.613,-139.1915 916.5124,-137.9442 923.4063,-138.3964 924.8273,-138.3647 927.9348,-178.8865 928.431,-179.3218 931.9895,-179.3218 936.674,-225.8098 933.8325,-226.0503 933.5087,-272.6392 938.8633,-272.6392 939.5627,-272.864 937.496,-340.5833 936.2814,-340.5635 931.1067,-340.7309 922.4345,-340.5948 922.3738,-340.5998 920.4983,-340.6624 920.0664,-340.6978 915.0441,-340.8691 907.8345,-340.7702 907.7061,-340.7623 906.8942,-340.7517 896.5899,-340.1245 881.5168,-337.76 854.7502,-331.0186 852.9166,-286.6619 853.8845,-272.55 852.4792,-258.0816 850.7696,-216.7243 827.4739,-181.4366 824.4192,-177.4101 800.9075,-164.5804 787.5391,-156.8279 783.9688,-154.6403 783.6328,-154.4233 770.564,-145.5368 769.1819,-147.3682 760.7101,-157.61 747.4303,-172.1585 747.1928,-172.391 734.8777,-186.0691 731.3749,-189.4824 726.3797,-194.0292 720.6024,-198.9181 719.2962,-200.1252 708.0033,-209.0199 698.8428,-214.9697 690.1392,-220.0119 678.7714,-224.9894 651.145,-235.0779 642.4299,-238.8867 635.7054,-242.2942 625.4882,-248.9154 619.6572,-253.0953 616.1777,-255.8269 615.7039,-256.2319 615.3811,-256.5318 617.3661,-272.5011 617.4553,-273.6807 553.3014,-287.1536 552.7241,-237.6802 557.8063,-237.6091 566.0354,-237.9766 567.3959,-238.1166 569.0768,-238.388 574.2905,-184.6581 578.1656,-186.8542 584.8445,-186.8542 589.931,-183.8674 591.0759,-182.5431 590.6739,-182.0808 584.3423,-178.1919 579.1187,-178.1919 579.1187,-178.1919 584.3423,-178.1919 590.6739,-182.0808 591.0759,-182.5431 589.931,-183.8674 584.8445,-186.8542 578.1656,-186.8542 574.2905,-184.6581 569.0768,-238.388 567.3959,-238.1166 566.0354,-237.9766 557.8063,-237.6091 557.4085,-182.6919 552.9351,-182.6919 547.9436,-235.9022 547.8953,-237.3572 541.827,-237.4092 541.257,-182.4384 536.6386,-182.4384 536.6274,-182.435 536.6274,-182.435 536.6386,-182.4384 541.257,-182.4384 541.827,-237.4092 547.8953,-237.3572 547.9436,-235.9022 552.9351,-182.6919 557.4085,-182.6919 557.8063,-237.6091 552.7241,-237.6802 553.3014,-287.1536 617.4553,-273.6807 618.1739,-279.4085 618.7614,-300.8932 618.9238,-303.0323 636.8412,-447.1729 605.0376,-476.6759 599.9843,-477.4236 589.6676,-478.6116 579.311,-479.4648 554.6479,-481.0926 546.6682,-481.7448 533.4061,-483.2463 532.7644,-483.3494 513.0892,-481.3399 513.6814,-350.9893 512.8411,-334.9077 507.319,-294.2956 508.7605,-292.4027 507.5993,-290.891 503.1053,-288.1328 503.1053,-288.1328 507.5993,-290.891 508.7605,-292.4027 507.319,-294.2956 512.8411,-334.9077 513.6814,-350.9893 513.0892,-481.3399 499.3548,-480.5858 497.1241,-480.4985 494.6804,-329.6705 490.3833,-292.6013 486.9248,-292.6013 486.3825,-292.4297 486.3825,-292.4297 486.9248,-292.6013 490.3833,-292.6013 494.6804,-329.6705 497.1241,-480.4985 486.4032,-480.4161 480.6948,-480.1915 473.9269,-480.1386 465.2229,-480.3448 458.336,-480.1812 457.7391,-480.1576 446.8293,-480.2415 439.0053,-480.054 434.0401,-474.3902 431.2528,-471.3133 400.4691,-434.8206 398.5475,-432.4403 373.8903,-362.8147 368.3097,-343.0633 366.2764,-341.1009 356.9305,-333.1687 351.7818,-329.1034 348.4809,-326.2598 342.1614,-321.2305 332.8793,-315.0363 329.5234,-313.0151 328.8853,-253.4834 332.2952,-249.6976 334.5009,-248.7398 334.8767,-248.4111 334.2922,-247.2997 334.2922,-247.2997 334.8767,-248.4111 334.5009,-248.7398 332.2952,-249.6976 328.8853,-253.4834 329.5234,-313.0151 279.869,-286.2686 269.7861,-280.1791 266.7222,-278.1385 262.7468,-275.2386 254.784,-268.9167 254.5361,-268.6878 252.9808,-267.369 234.8148,-250.7842 233.2389,-249.2565 226.415,-241.8167 224.4081,-239.5055 223.6516,-234.7231 208.5374,-165.7236 229.3229,-153.3882 305.3603,-122.9386 335.2209,-116.7215 339.2496,-115.5066 353.9484,-113.7637 361.6911,-112.6767 368.0721,-111.5029 389.2963,-106.1961 391.8233,-105.3987 396.3108,-103.8827 407.9085,-91.435 458.747,-53.8067 471.335,-46.271 484.3796,-4.7876 509.3852,91.4807 515.0044,99.9313 565.6256,108.3519 606.5347,111.0007 618.5707,112.3717 629.0814,113.8267 639.5444,116.0466 641.0878,116.412 643.7287,116.6164 654.0422,115.4736 656.9729,115.2879 669.416,114.7932 719.3653,113.9893 809.5273,41.3655 859.476,51.7164 892.2054,52.9514 907.4353,54.5252 912.4509,53.5211 915.2152,53.0299 915.5703,23.427 913.7438,-93.808 916.5507,-96.6361 913.2228,-100.2126 907.844,-101.9988 901.8412,-99.9606 898.9796,-96.9551 898.9796,-96.9551 901.8412,-99.9606 907.844,-101.9988 913.2228,-100.2126 916.5507,-96.6361 913.7438,-93.808 915.5703,23.427 915.2152,53.0299 934.3426,50.4838 958.5208,47.8092 1025.0911,1.8252 1059.7135,-.9949 1070.077,-1.33 1087.7606,-1.0323 1092.2722,-.8455 1093.8038,-.7445 1094.6066,-129.6762 1090.6384,-134.3564 1088.7659,-135.3591 1088.5175,-135.3591 1088.1777,-135.2453 1085.4435,-135.2453 1082.0677,-131.8534 1076.728,-130.1156 1076.728,-130.1156 1082.0677,-131.8534 1085.4435,-135.2453 1082.1818,-138.4558 1076.8055,-140.1923 1076.8055,-140.1923 1082.1818,-138.4558 1085.4435,-135.2453 1088.1777,-135.2453 1088.5175,-135.3591 1088.7659,-135.3591 1090.6384,-134.3564 1094.6066,-129.6762 1093.8038,-.7445 1107.4506,.4906 1174.4376,-34.9632 1180.7185,-35.463 1202.0256,-36.6675 1204.1819,-36.6894 1218.9554,-36.4963 1269.1171,-34.6803 1282.0764,-35.6029 1291.6925,-42.8395 1338.5078,-137.2985 1335.3622,-153.1993 1331.3868,-180.3611 1212.2081,-168.0595 1208.7645,-164.7682 1208.3821,-164.6588 1207.4008,-165.5136 1201.8009,-167.2055 1201.8009,-167.2055 1207.4008,-165.5136 1208.3821,-164.6588 1208.7645,-164.7682 1212.2081,-168.0595 1331.3868,-180.3611 1323.0209,-250.0551 1412.521,-321.6445 1420.6694,-381.187 1421.4854,-386.2115 1421.4854,-386.2115"/>
<polygon fill="#ccebc5" stroke="#ccebc5" points="1042.0637,-907.9792 1035.4728,-926.7188 1008.9414,-990.9705 1113.7675,-1055.1793 1148.6604,-1066.8518 1150.8088,-926.4481 1156.213,-921.5773 1156.9119,-920.2471 1162.2266,-920.2471 1162.429,-920.1827 1166.856,-920.1827 1167.848,-920.5085 1173.8053,-920.5085 1171.4731,-1045.1113 1179.9652,-920.6423 1181.743,-920.6423 1184.6136,-923.2758 1191.196,-925.3858 1195.877,-923.9718 1199.6804,-920.2635 1202.5254,-920.2635 1202.5298,-920.2621 1207.4689,-920.2621 1207.5646,-920.2314 1207.5646,-920.2314 1207.4689,-920.2621 1202.5298,-920.2621 1202.5254,-920.2635 1199.6804,-920.2635 1195.877,-923.9718 1191.196,-925.3858 1184.6136,-923.2758 1181.743,-920.6423 1179.9652,-920.6423 1171.4731,-1045.1113 1173.8053,-920.5085 1167.848,-920.5085 1166.856,-920.1827 1162.429,-920.1827 1162.2266,-920.2471 1156.9119,-920.2471 1156.213,-921.5773 1150.8088,-926.4481 1148.6604,-1066.8518 1159.5914,-1070.7631 1161.4272,-1071.0645 1161.8286,-1071.1387 1169.1436,-1072.6449 1170.2653,-1072.8992 1176.6057,-1074.6052 1181.1309,-1074.9922 1186.499,-1072.6337 1205.1373,-1065.3192 1210.5123,-1063.467 1232.3091,-1057.4838 1278.8748,-1046.9127 1316.2128,-1052.4509 1333.0695,-1055.3303 1344.0558,-1057.4504 1353.8066,-1059.7621 1355.183,-1060.1801 1355.9498,-1060.9041 1456.6659,-1129.816 1471.6863,-1140.5356 1480.8148,-1136.7239 1481.8672,-1136.3304 1489.4081,-1133.6718 1498.556,-1130.8372 1510.1534,-1127.4916 1529.6089,-1123.1298 1535.984,-1121.976 1537.593,-1121.7192 1539.579,-1121.4873 1551.549,-1117.3218 1562.5092,-1114.0333 1574.6832,-1110.6746 1641.6478,-1095.4545 1693.25,-1077.8458 1679.8984,-1052.3184 1670.5033,-1036.2026 1666.7971,-1030.215 1651.3069,-1008.0659 1639.7223,-993.8083 1634.2032,-988.1183 1625.1819,-979.6738 1623.8367,-978.55 1622.3444,-976.7388 1622.3444,-976.7388 1623.8367,-978.55 1625.1819,-979.6738 1634.2032,-988.1183 1639.7223,-993.8083 1651.3069,-1008.0659 1666.7971,-1030.215 1670.5033,-1036.2026 1679.8984,-1052.3184 1693.25,-1077.8458 1695.4801,-1078.0789 1698.7872,-1078.5518 1704.6156,-1075.9794 1706.4917,-1075.2361 1766.7262,-1052.7053 1859.28,-970.3941 1885.1687,-920.73 1887.9784,-915.9684 1869.1386,-897.7556 1852.0624,-882.8798 1848.3901,-879.8021 1843.792,-876.244 1828.9969,-865.7142 1816.3759,-857.5336 1812.0961,-855.0342 1801.6071,-849.2378 1801.2175,-849.0474 1786.3564,-842.237 1737.8138,-821.549 1716.0933,-824.7415 1703.9871,-826.1224 1696.8615,-826.6984 1685.1583,-826.8681 1684.2871,-826.823 1682.2612,-826.8465 1681.9967,-826.8408 1668.5652,-826.9779 1666.698,-826.9349 1662.7231,-826.7111 1662.0477,-826.716 1658.8378,-826.8411 1653.3101,-826.8734 1655.1823,-916.2208 1649.5216,-919.7962 1648.5952,-920.9716 1648.8549,-921.2839 1655.5193,-925.4727 1660.4144,-925.4727 1660.4144,-925.4727 1655.5193,-925.4727 1648.8549,-921.2839 1648.5952,-920.9716 1649.5216,-919.7962 1655.1823,-916.2208 1653.3101,-826.8734 1652.6178,-826.8544 1649.0525,-826.983 1641.635,-826.7587 1639.4733,-826.8305 1630.7327,-826.8309 1629.0422,-826.7749 1628.8654,-826.7747 1563.174,-778.9988 1546.9897,-786.5495 1541.0656,-789.03 1536.5079,-790.7194 1529.8735,-792.8609 1524.5118,-794.333 1524.2805,-858.3525 1519.3348,-858.3525 1519.3348,-858.3525 1524.2805,-858.3525 1524.5118,-794.333 1515.1925,-796.4421 1506.7139,-797.54 1500.1742,-798.071 1492.1779,-797.9502 1485.4705,-798.1707 1476.6768,-799.3035 1472.08,-800.1155 1462.0688,-802.8559 1454.0049,-805.453 1442.3812,-810.3219 1431.1462,-816.1105 1421.2864,-822.1367 1414.0858,-827.2332 1410.0283,-826.9906 1400.151,-827.0277 1397.1927,-826.8511 1396.7018,-826.8061 1384.6016,-826.0843 1369.502,-824.2245 1362.5151,-822.7004 1350.6595,-819.7355 1347.0485,-818.6042 1343.3765,-920.5511 1343.7834,-920.6697 1348.4187,-920.6697 1348.759,-920.5686 1354.1213,-920.5686 1354.9835,-920.3068 1356.147,-920.3068 1359.6479,-917.2952 1364.9608,-915.7448 1370.3646,-917.377 1373.9922,-920.7408 1375.6047,-920.7408 1378.5461,-995.4032 1378.5134,-1020.4742 1381.1759,-1016.8279 1381.1759,-1016.8279 1378.5134,-1020.4742 1378.5461,-995.4032 1375.6047,-920.7408 1373.9922,-920.7408 1370.3646,-917.377 1364.9608,-915.7448 1359.6479,-917.2952 1356.147,-920.3068 1354.9835,-920.3068 1354.1213,-920.5686 1348.759,-920.5686 1348.4187,-920.6697 1343.7834,-920.6697 1343.3765,-920.5511 1347.0485,-818.6042 1343.1505,-817.2577 1335.5988,-819.6763 1320.6085,-823.5252 1283.0874,-831.9468 1279.5837,-832.9562 1269.1421,-830.3397 1251.7905,-827.6413 1244.5338,-826.9756 1241.5964,-826.7994 1238.8491,-826.7217 1230.9891,-826.7488 1224.8879,-826.5635 1224.505,-826.5883 1217.9071,-826.5701 1209.5159,-826.8141 1208.6758,-826.7816 1199.4952,-826.7184 1199.1274,-826.7034 1193.3717,-827.0179 1182.6235,-826.8774 1181.7261,-826.8353 1179.6702,-826.6693 1173.0897,-826.3477 1160.062,-824.829 1145.896,-822.2178 1136.4382,-820.1583 1090.8522,-836.2582 1083.3168,-839.1646 1066.1465,-846.3418 1060.8751,-849.2163 1042.0637,-907.9792 1042.0637,-907.9792"/>
<polygon fill="#cbc5d1" stroke="#cbc5d1" points="1125.4169,-564.8963 1130.9541,-569.8761 1128.0393,-653.5806 1136.4382,-656.1055 1182.3466,-640.5493 1198.2856,-634.569 1200.7201,-633.4847 1203.5479,-632.1232 1215.778,-625.7865 1221.658,-622.5322 1233.425,-615.1776 1234.9392,-614.1783 1240.0743,-610.6052 1248.587,-604.3769 1253.8748,-600.3222 1261.4015,-594.286 1265.0851,-591.0723 1270.0795,-586.5339 1286.833,-570.7003 1291.8184,-565.6462 1294.6027,-562.9285 1295.6843,-561.9487 1294.0686,-560.2698 1287.8154,-553.999 1282.6292,-548.9876 1273.7927,-540.7708 1261.028,-529.8326 1246.2013,-518.2195 1231.5128,-508.3431 1218.9443,-500.8233 1215.5919,-498.9443 1128.3522,-453.3018 1114.072,-444.3168 1110.9269,-444.4082 1107.5034,-444.4238 1107.0334,-444.403 1093.7545,-444.4924 1092.2269,-444.5808 1082.0232,-431.9426 1075.1758,-423.9439 1071.6873,-420.1177 1069.7933,-418.1716 1068.6958,-417.1165 1068.5707,-416.9872 1059.4059,-408.1384 1057.156,-405.7826 1052.5696,-401.3424 999.4797,-345.1459 995.1496,-341.0398 993.4319,-340.9189 981.8918,-340.6649 982.5187,-402.7889 976.9394,-408.2039 976.6321,-408.8006 976.476,-408.9511 971.1895,-408.9511 970.7661,-408.8199 966.6686,-408.8199 966.4161,-408.7397 966.4161,-408.7397 966.6686,-408.8199 970.7661,-408.8199 971.1895,-408.9511 976.476,-408.9511 976.6321,-408.8006 976.9394,-408.2039 982.5187,-402.7889 981.8918,-340.6649 981.735,-340.6539 979.3556,-340.6032 978.7757,-340.6189 976.1713,-340.816 974.002,-340.8763 962.3514,-340.6414 961.3378,-340.6702 961.0499,-340.6923 959.9468,-340.6716 957.3157,-340.4962 950.1754,-340.3663 949.608,-340.3835 945.8943,-340.6772 941.187,-340.8231 937.496,-340.5833 936.2814,-340.5635 931.1067,-340.7309 922.4345,-340.5948 922.3738,-340.5998 920.4983,-340.6624 920.0664,-340.6978 915.0441,-340.8691 907.8345,-340.7702 907.7061,-340.7623 906.8942,-340.7517 896.5899,-340.1245 881.5168,-337.76 854.7502,-331.0186 852.9166,-286.6619 853.8845,-272.55 852.4792,-258.0816 850.7696,-216.7243 827.4739,-181.4366 824.4192,-177.4101 800.9075,-164.5804 787.5391,-156.8279 783.9688,-154.6403 783.6328,-154.4233 770.564,-145.5368 769.1819,-147.3682 760.7101,-157.61 747.4303,-172.1585 747.1928,-172.391 734.8777,-186.0691 731.3749,-189.4824 726.3797,-194.0292 720.6024,-198.9181 719.2962,-200.1252 708.0033,-209.0199 698.8428,-214.9697 690.1392,-220.0119 678.7714,-224.9894 651.145,-235.0779 642.4299,-238.8867 635.7054,-242.2942 625.4882,-248.9154 619.6572,-253.0953 616.1777,-255.8269 615.7039,-256.2319 615.3811,-256.5318 617.3661,-272.5011 617.4553,-273.6807 618.1739,-279.4085 618.7614,-300.8932 618.9238,-303.0323 636.8412,-447.1729 675.2018,-432.4942 692.4548,-426.2533 699.6785,-424.1017 718.8295,-418.8024 719.1815,-418.7127 729.3552,-416.768 745.9613,-414.2982 749.1041,-413.9651 764.5336,-425.6082 768.3481,-428.6498 770.5898,-430.5402 787.6719,-444.1997 792.4878,-447.8203 807.2886,-457.5734 812.6396,-460.5899 825.8674,-466.839 838.5392,-471.6495 850.7892,-475.1538 855.8427,-476.1259 863.9244,-477.3063 869.3283,-477.8436 876.7318,-478.235 882.2845,-478.27 882.3256,-478.2741 896.9164,-478.3719 897.3436,-478.3947 905.6912,-479.229 908.8972,-479.6982 913.2202,-480.5321 932.4247,-486.0611 939.1753,-488.6248 942.7241,-490.1362 951.428,-494.6719 947.2499,-538.0202 945.856,-547.3104 945.8077,-547.8071 945.9585,-569.4186 938.2391,-649.509 1004.4628,-646.1371 1011.897,-646.0163 1013.601,-646.0478 1015.9667,-646.0098 1018.6028,-645.8759 1026.8113,-645.7453 1030.244,-645.9299 1033.3235,-645.9886 1037.3212,-645.9268 1037.4032,-645.9199 1051.4945,-645.2174 1060.2876,-644.1721 1060.9727,-644.3539 1072.8093,-646.6513 1083.6113,-647.976 1091.5903,-648.3853 1108.6588,-649.8736 1120.0404,-651.6761 1126.0232,-653.0471 1128.0393,-653.5806 1130.9541,-569.8761 1125.4169,-564.8963 1125.2343,-564.565 1125.2343,-564.565 1125.4169,-564.8963 1125.4169,-564.8963"/>
<polygon fill="#fdd9a7" stroke="#fdd9a7" points="945.9585,-569.4186 945.8077,-547.8071 945.856,-547.3104 947.2499,-538.0202 951.428,-494.6719 942.7241,-490.1362 939.1753,-488.6248 932.4247,-486.0611 913.2202,-480.5321 908.8972,-479.6982 905.6912,-479.229 897.3436,-478.3947 896.9164,-478.3719 882.3256,-478.2741 882.2845,-478.27 876.7318,-478.235 869.3283,-477.8436 863.9244,-477.3063 855.8427,-476.1259 850.7892,-475.1538 838.5392,-471.6495 825.8674,-466.839 812.6396,-460.5899 807.2886,-457.5734 792.4878,-447.8203 787.6719,-444.1997 770.5898,-430.5402 768.3481,-428.6498 764.5336,-425.6082 749.1041,-413.9651 745.9613,-414.2982 729.3552,-416.768 719.1815,-418.7127 718.8295,-418.8024 699.6785,-424.1017 692.4548,-426.2533 675.2018,-432.4942 636.8412,-447.1729 605.0376,-476.6759 610.7687,-484.6647 624.6259,-503.3107 626.3575,-505.7403 638.8034,-521.2414 640.5624,-523.3394 663.1121,-549.086 684.9842,-575.4575 707.2113,-604.1423 770.2239,-607.6509 778.4924,-607.6161 781.195,-607.7538 781.8947,-607.7474 790.1122,-608.1257 791.5119,-608.022 795.0844,-607.9539 796.9269,-607.808 797.5334,-607.7934 808.1319,-608.1237 810.3885,-607.9224 820.895,-608.1445 835.6616,-610.0853 839.7783,-611.0737 848.6861,-613.7027 850.4705,-614.3258 863.0769,-620.1552 872.4694,-625.0173 885.114,-632.9479 912.8874,-653.363 923.6649,-660.3207 938.2391,-649.509 945.9585,-569.4186 945.9585,-569.4186"/>
<polygon fill="#fdd9a7" stroke="#fdd9a7" points="1050.729,-839.4025 1053.1346,-841.8383 1060.8751,-849.2163 1042.0637,-907.9792 1035.4728,-926.7188 1008.9414,-990.9705 964.332,-1000.5802 958.4359,-999.4405 943.2004,-996.8109 937.9593,-996.0161 936.7709,-911.0033 939.2255,-840.5482 939.4267,-840.286 938.5255,-839.1027 933.4757,-835.889 933.4757,-835.889 938.5255,-839.1027 939.4267,-840.286 939.2255,-840.5482 936.7709,-911.0033 937.9593,-996.0161 929.2285,-995.0564 923.8485,-991.8031 910.2198,-984.3293 904.7476,-981.4853 855.367,-957.231 791.9732,-915.3393 781.5709,-895.1851 765.3643,-882.9448 752.3102,-871.5626 696.8118,-794.9149 700.6615,-787.4448 707.2113,-773.9316 715.4753,-768.9589 761.8716,-739.2345 772.2574,-731.835 781.6179,-725.9254 793.0273,-720.5839 801.1392,-717.4641 811.5429,-715.1809 824.2222,-713.4492 835.9343,-710.9938 837.3426,-710.5995 842.3694,-708.8312 843.9954,-708.1423 851.7357,-704.2822 860.9742,-698.995 876.8521,-688.7915 923.2052,-662.0377 933.5555,-719.0889 936.5057,-739.8076 937.0714,-748.8393 937.9474,-754.96 942.3904,-758.802 948.8179,-763.9083 1015.6671,-807.9161 1031.9805,-820.6809 1047.1201,-835.2655 1050.729,-839.4025 1050.729,-839.4025"/>
<polyline fill="none" stroke="#000000" points="602.9063,-793.9919 620.4045,-792.5953 625.8981,-792.2968 640.3491,-792.2459 696.8118,-794.9149 700.6615,-787.4448 707.2113,-773.9316 715.4753,-768.9589 761.8716,-739.2345 772.2574,-731.835 781.6179,-725.9254 793.0273,-720.5839 801.1392,-717.4641 811.5429,-715.1809 824.2222,-713.4492 835.9343,-710.9938 837.3426,-710.5995 842.3694,-708.8312 843.9954,-708.1423 851.7357,-704.2822 860.9742,-698.995 876.8521,-688.7915 923.2052,-662.0377 923.6649,-660.3207 912.8874,-653.363 885.114,-632.9479 872.4694,-625.0173 863.0769,-620.1552 850.4705,-614.3258 848.6861,-613.7027 839.7783,-611.0737 835.6616,-610.0853 820.895,-608.1445 810.3885,-607.9224 808.1319,-608.1237 797.5334,-607.7934 796.9269,-607.808 795.0844,-607.9539 791.5119,-608.022 790.1122,-608.1257 781.8947,-607.7474 781.195,-607.7538 778.4924,-607.6161 770.2239,-607.6509 707.2113,-604.1423 684.9842,-575.4575 663.1121,-549.086 640.5624,-523.3394 638.8034,-521.2414 626.3575,-505.7403 624.6259,-503.3107 610.7687,-484.6647 605.0376,-476.6759 599.9843,-477.4236 589.6676,-478.6116 579.311,-479.4648 554.6479,-481.0926 546.6682,-481.7448 533.4061,-483.2463 532.7644,-483.3494 513.0892,-481.3399 499.3548,-480.5858 497.1241,-480.4985 486.4032,-480.4161 480.6948,-480.1915 473.9269,-480.1386 465.2229,-480.3448 458.336,-480.1812 457.7391,-480.1576 446.8293,-480.2415 439.0053,-480.054 427.2933,-491.0363 421.873,-495.4738 398.4222,-514.0048 384.7731,-523.1625 268.0867,-594.6121 248.0267,-607.4839 234.5058,-616.9095 220.7391,-628.0516 215.6556,-637.2548 208.6128,-648.9591 258.0698,-714.9565 325.9077,-810.3812 373.94,-800.5043 389.6217,-797.652 397.9316,-796.5399 407.986,-795.4359 421.4403,-794.6061 424.8119,-794.4792 425.6522,-794.488 443.0923,-795.0886 448.5278,-795.5365 455.5164,-796.2802 471.4517,-798.7432 472.7646,-799.009 479.9313,-797.1484 532.7644,-786.049 584.4398,-796.4771 586.2358,-796.932 601.2681,-794.2054 602.9063,-793.9919 "/>
<polyline fill="none" stroke="#000000" points="1662.0477,-826.716 1662.7231,-826.7111 1666.698,-826.9349 1668.5652,-826.9779 1681.9967,-826.8408 1682.2612,-826.8465 1684.2871,-826.823 1685.1583,-826.8681 1696.8615,-826.6984 1703.9871,-826.1224 1716.0933,-824.7415 1737.8138,-821.549 1786.3564,-842.237 1801.2175,-849.0474 1801.6071,-849.2378 1812.0961,-855.0342 1816.3759,-857.5336 1828.9969,-865.7142 1843.792,-876.244 1848.3901,-879.8021 1852.0624,-882.8798 1869.1386,-897.7556 1887.9784,-915.9684 1888.9828,-915.6647 1895.6671,-913.9783 1900.442,-911.8209 1907.026,-909.0936 2004.7185,-847.0916 2022.9508,-746.9468 2032.3966,-706.7939 2030.7686,-703.6516 2002.3159,-645.3615 1924.4954,-600.7789 1902.5996,-602.3355 1884.7977,-602.8119 1875.556,-602.649 1874.2992,-602.599 1871.8052,-602.4446 1870.7625,-602.3569 1856.3356,-600.8221 1854.082,-600.4319 1834.4885,-604.3477 1832.6611,-604.5863 1826.3417,-605.267 1814.9424,-606.2336 1805.2056,-606.835 1803.2959,-606.9089 1789.1132,-606.8055 1737.8138,-604.0744 1731.0785,-600.9158 1696.3175,-601.0543 1676.3071,-600.6959 1673.2433,-600.5739 1662.7017,-599.6929 1657.4668,-599.1409 1644.9764,-597.277 1623.4445,-592.6462 1621.459,-592.1765 1563.174,-598.9467 1500.8466,-574.3907 1493.1749,-571.2076 1480.543,-567.0552 1463.5933,-560.5002 1461.5319,-559.543 1441.4843,-549.8316 1431.7787,-544.7537 1421.7257,-538.9024 1413.762,-541.8661 1398.4542,-547.0524 1343.1505,-563.9319 1296.7183,-561.974 1295.6843,-561.9487 1294.6027,-562.9285 1291.8184,-565.6462 1286.833,-570.7003 1270.0795,-586.5339 1265.0851,-591.0723 1261.4015,-594.286 1253.8748,-600.3222 1248.587,-604.3769 1240.0743,-610.6052 1234.9392,-614.1783 1233.425,-615.1776 1221.658,-622.5322 1215.778,-625.7865 1203.5479,-632.1232 1200.7201,-633.4847 1198.2856,-634.569 1182.3466,-640.5493 1136.4382,-656.1055 1128.0393,-653.5806 1126.0232,-653.0471 1120.0404,-651.6761 1108.6588,-649.8736 1091.5903,-648.3853 1083.6113,-647.976 1072.8093,-646.6513 1060.9727,-644.3539 1060.2876,-644.1721 1051.4945,-645.2174 1037.4032,-645.9199 1037.3212,-645.9268 1033.3235,-645.9886 1030.244,-645.9299 1026.8113,-645.7453 1018.6028,-645.8759 1015.9667,-646.0098 1013.601,-646.0478 1011.897,-646.0163 1004.4628,-646.1371 938.2391,-649.509 923.6649,-660.3207 923.2052,-662.0377 933.5555,-719.0889 936.5057,-739.8076 937.0714,-748.8393 937.9474,-754.96 942.3904,-758.802 948.8179,-763.9083 1015.6671,-807.9161 1031.9805,-820.6809 1047.1201,-835.2655 1050.729,-839.4025 1053.1346,-841.8383 1060.8751,-849.2163 1066.1465,-846.3418 1083.3168,-839.1646 1090.8522,-836.2582 1136.4382,-820.1583 1145.896,-822.2178 1160.062,-824.829 1173.0897,-826.3477 1179.6702,-826.6693 1181.7261,-826.8353 1182.6235,-826.8774 1193.3717,-827.0179 1199.1274,-826.7034 1199.4952,-826.7184 1208.6758,-826.7816 1209.5159,-826.8141 1217.9071,-826.5701 1224.505,-826.5883 1224.8879,-826.5635 1230.9891,-826.7488 1238.8491,-826.7217 1241.5964,-826.7994 1244.5338,-826.9756 1251.7905,-827.6413 1269.1421,-830.3397 1279.5837,-832.9562 1283.0874,-831.9468 1320.6085,-823.5252 1335.5988,-819.6763 1343.1505,-817.2577 1347.0485,-818.6042 1350.6595,-819.7355 1362.5151,-822.7004 1369.502,-824.2245 1384.6016,-826.0843 1396.7018,-826.8061 1397.1927,-826.8511 1400.151,-827.0277 1410.0283,-826.9906 1414.0858,-827.2332 1421.2864,-822.1367 1431.1462,-816.1105 1442.3812,-810.3219 1454.0049,-805.453 1462.0688,-802.8559 1472.08,-800.1155 1476.6768,-799.3035 1485.4705,-798.1707 1492.1779,-797.9502 1500.1742,-798.071 1506.7139,-797.54 1515.1925,-796.4421 1524.5118,-794.333 1529.8735,-792.8609 1536.5079,-790.7194 1541.0656,-789.03 1546.9897,-786.5495 1563.174,-778.9988 1628.8654,-826.7747 1629.0422,-826.7749 1630.7327,-826.8309 1639.4733,-826.8305 1641.635,-826.7587 1649.0525,-826.983 1652.6178,-826.8544 1653.3101,-826.8734 1658.8378,-826.8411 1662.0477,-826.716 "/>
<polyline fill="none" stroke="#000000" points="-84.7673,-488.8391 -79.7795,-527.2802 -75.1321,-570.5662 -55.7453,-589.311 61.3375,-640.6397 67.2053,-643.5085 77.9717,-649.0464 101.1979,-662.7714 103.8572,-664.4073 113.8845,-671.3294 208.6128,-648.9591 215.6556,-637.2548 220.7391,-628.0516 234.5058,-616.9095 248.0267,-607.4839 268.0867,-594.6121 384.7731,-523.1625 398.4222,-514.0048 421.873,-495.4738 427.2933,-491.0363 439.0053,-480.054 434.0401,-474.3902 431.2528,-471.3133 400.4691,-434.8206 398.5475,-432.4403 373.8903,-362.8147 368.3097,-343.0633 366.2764,-341.1009 356.9305,-333.1687 351.7818,-329.1034 348.4809,-326.2598 342.1614,-321.2305 332.8793,-315.0363 329.5234,-313.0151 279.869,-286.2686 269.7861,-280.1791 266.7222,-278.1385 262.7468,-275.2386 254.784,-268.9167 254.5361,-268.6878 252.9808,-267.369 234.8148,-250.7842 233.2389,-249.2565 226.415,-241.8167 224.4081,-239.5055 223.6516,-234.7231 208.5374,-165.7236 170.8123,-155.6153 130.2082,-160.2261 128.012,-160.7141 114.7792,-162.9584 107.9683,-163.7541 98.0942,-164.6475 84.6019,-165.5116 47.8169,-166.8925 14.7468,-187.9616 -10.5923,-211.626 -30.5684,-245.7528 -39.719,-253.2954 -106.9851,-350.9749 -104.8538,-359.74 -95.693,-411.4077 -95.6824,-434.2774 -96.7088,-458.5587 -85.4007,-485.1841 -84.7673,-488.8391 "/>
<polyline fill="none" stroke="#000000" points="368.3097,-343.0633 373.8903,-362.8147 398.5475,-432.4403 400.4691,-434.8206 431.2528,-471.3133 434.0401,-474.3902 439.0053,-480.054 446.8293,-480.2415 457.7391,-480.1576 458.336,-480.1812 465.2229,-480.3448 473.9269,-480.1386 480.6948,-480.1915 486.4032,-480.4161 497.1241,-480.4985 499.3548,-480.5858 513.0892,-481.3399 532.7644,-483.3494 533.4061,-483.2463 546.6682,-481.7448 554.6479,-481.0926 579.311,-479.4648 589.6676,-478.6116 599.9843,-477.4236 605.0376,-476.6759 636.8412,-447.1729 618.9238,-303.0323 618.7614,-300.8932 618.1739,-279.4085 617.4553,-273.6807 617.3661,-272.5011 615.3811,-256.5318 615.7039,-256.2319 616.1777,-255.8269 619.6572,-253.0953 625.4882,-248.9154 635.7054,-242.2942 642.4299,-238.8867 651.145,-235.0779 678.7714,-224.9894 690.1392,-220.0119 698.8428,-214.9697 708.0033,-209.0199 719.2962,-200.1252 720.6024,-198.9181 726.3797,-194.0292 731.3749,-189.4824 734.8777,-186.0691 747.1928,-172.391 747.4303,-172.1585 760.7101,-157.61 769.1819,-147.3682 770.564,-145.5368 783.6328,-154.4233 783.9688,-154.6403 787.5391,-156.8279 800.9075,-164.5804 824.4192,-177.4101 827.4739,-181.4366 850.7696,-216.7243 852.4792,-258.0816 853.8845,-272.55 852.9166,-286.6619 854.7502,-331.0186 881.5168,-337.76 896.5899,-340.1245 906.8942,-340.7517 907.7061,-340.7623 907.8345,-340.7702 915.0441,-340.8691 920.0664,-340.6978 920.4983,-340.6624 922.3738,-340.5998 922.4345,-340.5948 931.1067,-340.7309 936.2814,-340.5635 937.496,-340.5833 941.187,-340.8231 945.8943,-340.6772 949.608,-340.3835 950.1754,-340.3663 957.3157,-340.4962 959.9468,-340.6716 961.0499,-340.6923 961.3378,-340.6702 962.3514,-340.6414 974.002,-340.8763 976.1713,-340.816 978.7757,-340.6189 979.3556,-340.6032 981.735,-340.6539 981.8918,-340.6649 993.4319,-340.9189 995.1496,-341.0398 999.4797,-345.1459 1052.5696,-401.3424 1057.156,-405.7826 1059.4059,-408.1384 1068.5707,-416.9872 1068.6958,-417.1165 1069.7933,-418.1716 1071.6873,-420.1177 1075.1758,-423.9439 1082.0232,-431.9426 1092.2269,-444.5808 1093.7545,-444.4924 1107.0334,-444.403 1107.5034,-444.4238 1110.9269,-444.4082 1114.072,-444.3168 1128.3522,-453.3018 1215.5919,-498.9443 1218.9443,-500.8233 1231.5128,-508.3431 1246.2013,-518.2195 1261.028,-529.8326 1273.7927,-540.7708 1282.6292,-548.9876 1287.8154,-553.999 1294.0686,-560.2698 1295.6843,-561.9487 1296.7183,-561.974 1343.1505,-563.9319 1398.4542,-547.0524 1413.762,-541.8661 1421.7257,-538.9024 1432.6483,-474.0753 1431.0044,-433.0849 1425.0042,-404.9284 1421.4854,-386.2115 1420.6694,-381.187 1412.521,-321.6445 1323.0209,-250.0551 1331.3868,-180.3611 1335.3622,-153.1993 1338.5078,-137.2985 1291.6925,-42.8395 1282.0764,-35.6029 1269.1171,-34.6803 1218.9554,-36.4963 1204.1819,-36.6894 1202.0256,-36.6675 1180.7185,-35.463 1174.4376,-34.9632 1107.4506,.4906 1093.8038,-.7445 1092.2722,-.8455 1087.7606,-1.0323 1070.077,-1.33 1059.7135,-.9949 1025.0911,1.8252 958.5208,47.8092 934.3426,50.4838 915.2152,53.0299 912.4509,53.5211 907.4353,54.5252 892.2054,52.9514 859.476,51.7164 809.5273,41.3655 719.3653,113.9893 669.416,114.7932 656.9729,115.2879 654.0422,115.4736 643.7287,116.6164 641.0878,116.412 639.5444,116.0466 629.0814,113.8267 618.5707,112.3717 606.5347,111.0007 565.6256,108.3519 515.0044,99.9313 509.3852,91.4807 484.3796,-4.7876 471.335,-46.271 458.747,-53.8067 407.9085,-91.435 396.3108,-103.8827 391.8233,-105.3987 389.2963,-106.1961 368.0721,-111.5029 361.6911,-112.6767 353.9484,-113.7637 339.2496,-115.5066 335.2209,-116.7215 305.3603,-122.9386 229.3229,-153.3882 208.5374,-165.7236 223.6516,-234.7231 224.4081,-239.5055 226.415,-241.8167 233.2389,-249.2565 234.8148,-250.7842 252.9808,-267.369 254.5361,-268.6878 254.784,-268.9167 262.7468,-275.2386 266.7222,-278.1385 269.7861,-280.1791 279.869,-286.2686 329.5234,-313.0151 332.8793,-315.0363 342.1614,-321.2305 348.4809,-326.2598 351.7818,-329.1034 356.9305,-333.1687 366.2764,-341.1009 368.3097,-343.0633 "/>
<polyline fill="none" stroke="#000000" points="1529.6089,-1123.1298 1535.984,-1121.976 1537.593,-1121.7192 1539.579,-1121.4873 1551.549,-1117.3218 1562.5092,-1114.0333 1574.6832,-1110.6746 1641.6478,-1095.4545 1693.25,-1077.8458 1695.4801,-1078.0789 1698.7872,-1078.5518 1704.6156,-1075.9794 1706.4917,-1075.2361 1766.7262,-1052.7053 1859.28,-970.3941 1885.1687,-920.73 1887.9784,-915.9684 1869.1386,-897.7556 1852.0624,-882.8798 1848.3901,-879.8021 1843.792,-876.244 1828.9969,-865.7142 1816.3759,-857.5336 1812.0961,-855.0342 1801.6071,-849.2378 1801.2175,-849.0474 1786.3564,-842.237 1737.8138,-821.549 1716.0933,-824.7415 1703.9871,-826.1224 1696.8615,-826.6984 1685.1583,-826.8681 1684.2871,-826.823 1682.2612,-826.8465 1681.9967,-826.8408 1668.5652,-826.9779 1666.698,-826.9349 1662.7231,-826.7111 1662.0477,-826.716 1658.8378,-826.8411 1653.3101,-826.8734 1652.6178,-826.8544 1649.0525,-826.983 1641.635,-826.7587 1639.4733,-826.8305 1630.7327,-826.8309 1629.0422,-826.7749 1628.8654,-826.7747 1563.174,-778.9988 1546.9897,-786.5495 1541.0656,-789.03 1536.5079,-790.7194 1529.8735,-792.8609 1524.5118,-794.333 1515.1925,-796.4421 1506.7139,-797.54 1500.1742,-798.071 1492.1779,-797.9502 1485.4705,-798.1707 1476.6768,-799.3035 1472.08,-800.1155 1462.0688,-802.8559 1454.0049,-805.453 1442.3812,-810.3219 1431.1462,-816.1105 1421.2864,-822.1367 1414.0858,-827.2332 1410.0283,-826.9906 1400.151,-827.0277 1397.1927,-826.8511 1396.7018,-826.8061 1384.6016,-826.0843 1369.502,-824.2245 1362.5151,-822.7004 1350.6595,-819.7355 1347.0485,-818.6042 1343.1505,-817.2577 1335.5988,-819.6763 1320.6085,-823.5252 1283.0874,-831.9468 1279.5837,-832.9562 1269.1421,-830.3397 1251.7905,-827.6413 1244.5338,-826.9756 1241.5964,-826.7994 1238.8491,-826.7217 1230.9891,-826.7488 1224.8879,-826.5635 1224.505,-826.5883 1217.9071,-826.5701 1209.5159,-826.8141 1208.6758,-826.7816 1199.4952,-826.7184 1199.1274,-826.7034 1193.3717,-827.0179 1182.6235,-826.8774 1181.7261,-826.8353 1179.6702,-826.6693 1173.0897,-826.3477 1160.062,-824.829 1145.896,-822.2178 1136.4382,-820.1583 1090.8522,-836.2582 1083.3168,-839.1646 1066.1465,-846.3418 1060.8751,-849.2163 1042.0637,-907.9792 1035.4728,-926.7188 1008.9414,-990.9705 1113.7675,-1055.1793 1148.6604,-1066.8518 1159.5914,-1070.7631 1161.4272,-1071.0645 1161.8286,-1071.1387 1169.1436,-1072.6449 1170.2653,-1072.8992 1176.6057,-1074.6052 1181.1309,-1074.9922 1186.499,-1072.6337 1205.1373,-1065.3192 1210.5123,-1063.467 1232.3091,-1057.4838 1278.8748,-1046.9127 1316.2128,-1052.4509 1333.0695,-1055.3303 1344.0558,-1057.4504 1353.8066,-1059.7621 1355.183,-1060.1801 1355.9498,-1060.9041 1456.6659,-1129.816 1471.6863,-1140.5356 1480.8148,-1136.7239 1481.8672,-1136.3304 1489.4081,-1133.6718 1498.556,-1130.8372 1510.1534,-1127.4916 1529.6089,-1123.1298 "/>
<polyline fill="none" stroke="#000000" points="729.3552,-416.768 719.1815,-418.7127 718.8295,-418.8024 699.6785,-424.1017 692.4548,-426.2533 675.2018,-432.4942 636.8412,-447.1729 618.9238,-303.0323 618.7614,-300.8932 618.1739,-279.4085 617.4553,-273.6807 617.3661,-272.5011 615.3811,-256.5318 615.7039,-256.2319 616.1777,-255.8269 619.6572,-253.0953 625.4882,-248.9154 635.7054,-242.2942 642.4299,-238.8867 651.145,-235.0779 678.7714,-224.9894 690.1392,-220.0119 698.8428,-214.9697 708.0033,-209.0199 719.2962,-200.1252 720.6024,-198.9181 726.3797,-194.0292 731.3749,-189.4824 734.8777,-186.0691 747.1928,-172.391 747.4303,-172.1585 760.7101,-157.61 769.1819,-147.3682 770.564,-145.5368 783.6328,-154.4233 783.9688,-154.6403 787.5391,-156.8279 800.9075,-164.5804 824.4192,-177.4101 827.4739,-181.4366 850.7696,-216.7243 852.4792,-258.0816 853.8845,-272.55 852.9166,-286.6619 854.7502,-331.0186 881.5168,-337.76 896.5899,-340.1245 906.8942,-340.7517 907.7061,-340.7623 907.8345,-340.7702 915.0441,-340.8691 920.0664,-340.6978 920.4983,-340.6624 922.3738,-340.5998 922.4345,-340.5948 931.1067,-340.7309 936.2814,-340.5635 937.496,-340.5833 941.187,-340.8231 945.8943,-340.6772 949.608,-340.3835 950.1754,-340.3663 957.3157,-340.4962 959.9468,-340.6716 961.0499,-340.6923 961.3378,-340.6702 962.3514,-340.6414 974.002,-340.8763 976.1713,-340.816 978.7757,-340.6189 979.3556,-340.6032 981.735,-340.6539 981.8918,-340.6649 993.4319,-340.9189 995.1496,-341.0398 999.4797,-345.1459 1052.5696,-401.3424 1057.156,-405.7826 1059.4059,-408.1384 1068.5707,-416.9872 1068.6958,-417.1165 1069.7933,-418.1716 1071.6873,-420.1177 1075.1758,-423.9439 1082.0232,-431.9426 1092.2269,-444.5808 1093.7545,-444.4924 1107.0334,-444.403 1107.5034,-444.4238 1110.9269,-444.4082 1114.072,-444.3168 1128.3522,-453.3018 1215.5919,-498.9443 1218.9443,-500.8233 1231.5128,-508.3431 1246.2013,-518.2195 1261.028,-529.8326 1273.7927,-540.7708 1282.6292,-548.9876 1287.8154,-553.999 1294.0686,-560.2698 1295.6843,-561.9487 1294.6027,-562.9285 1291.8184,-565.6462 1286.833,-570.7003 1270.0795,-586.5339 1265.0851,-591.0723 1261.4015,-594.286 1253.8748,-600.3222 1248.587,-604.3769 1240.0743,-610.6052 1234.9392,-614.1783 1233.425,-615.1776 1221.658,-622.5322 1215.778,-625.7865 1203.5479,-632.1232 1200.7201,-633.4847 1198.2856,-634.569 1182.3466,-640.5493 1136.4382,-656.1055 1128.0393,-653.5806 1126.0232,-653.0471 1120.0404,-651.6761 1108.6588,-649.8736 1091.5903,-648.3853 1083.6113,-647.976 1072.8093,-646.6513 1060.9727,-644.3539 1060.2876,-644.1721 1051.4945,-645.2174 1037.4032,-645.9199 1037.3212,-645.9268 1033.3235,-645.9886 1030.244,-645.9299 1026.8113,-645.7453 1018.6028,-645.8759 1015.9667,-646.0098 1013.601,-646.0478 1011.897,-646.0163 1004.4628,-646.1371 938.2391,-649.509 945.9585,-569.4186 945.8077,-547.8071 945.856,-547.3104 947.2499,-538.0202 951.428,-494.6719 942.7241,-490.1362 939.1753,-488.6248 932.4247,-486.0611 913.2202,-480.5321 908.8972,-479.6982 905.6912,-479.229 897.3436,-478.3947 896.9164,-478.3719 882.3256,-478.2741 882.2845,-478.27 876.7318,-478.235 869.3283,-477.8436 863.9244,-477.3063 855.8427,-476.1259 850.7892,-475.1538 838.5392,-471.6495 825.8674,-466.839 812.6396,-460.5899 807.2886,-457.5734 792.4878,-447.8203 787.6719,-444.1997 770.5898,-430.5402 768.3481,-428.6498 764.5336,-425.6082 749.1041,-413.9651 745.9613,-414.2982 729.3552,-416.768 "/>
<polyline fill="none" stroke="#000000" points="820.895,-608.1445 810.3885,-607.9224 808.1319,-608.1237 797.5334,-607.7934 796.9269,-607.808 795.0844,-607.9539 791.5119,-608.022 790.1122,-608.1257 781.8947,-607.7474 781.195,-607.7538 778.4924,-607.6161 770.2239,-607.6509 707.2113,-604.1423 684.9842,-575.4575 663.1121,-549.086 640.5624,-523.3394 638.8034,-521.2414 626.3575,-505.7403 624.6259,-503.3107 610.7687,-484.6647 605.0376,-476.6759 636.8412,-447.1729 675.2018,-432.4942 692.4548,-426.2533 699.6785,-424.1017 718.8295,-418.8024 719.1815,-418.7127 729.3552,-416.768 745.9613,-414.2982 749.1041,-413.9651 764.5336,-425.6082 768.3481,-428.6498 770.5898,-430.5402 787.6719,-444.1997 792.4878,-447.8203 807.2886,-457.5734 812.6396,-460.5899 825.8674,-466.839 838.5392,-471.6495 850.7892,-475.1538 855.8427,-476.1259 863.9244,-477.3063 869.3283,-477.8436 876.7318,-478.235 882.2845,-478.27 882.3256,-478.2741 896.9164,-478.3719 897.3436,-478.3947 905.6912,-479.229 908.8972,-479.6982 913.2202,-480.5321 932.4247,-486.0611 939.1753,-488.6248 942.7241,-490.1362 951.428,-494.6719 947.2499,-538.0202 945.856,-547.3104 945.8077,-547.8071 945.9585,-569.4186 938.2391,-649.509 923.6649,-660.3207 912.8874,-653.363 885.114,-632.9479 872.4694,-625.0173 863.0769,-620.1552 850.4705,-614.3258 848.6861,-613.7027 839.7783,-611.0737 835.6616,-610.0853 820.895,-608.1445 "/>
<polyline fill="none" stroke="#000000" points="843.9954,-708.1423 842.3694,-708.8312 837.3426,-710.5995 835.9343,-710.9938 824.2222,-713.4492 811.5429,-715.1809 801.1392,-717.4641 793.0273,-720.5839 781.6179,-725.9254 772.2574,-731.835 761.8716,-739.2345 715.4753,-768.9589 707.2113,-773.9316 700.6615,-787.4448 696.8118,-794.9149 752.3102,-871.5626 765.3643,-882.9448 781.5709,-895.1851 791.9732,-915.3393 855.367,-957.231 904.7476,-981.4853 910.2198,-984.3293 923.8485,-991.8031 929.2285,-995.0564 937.9593,-996.0161 943.2004,-996.8109 958.4359,-999.4405 964.332,-1000.5802 1008.9414,-990.9705 1035.4728,-926.7188 1042.0637,-907.9792 1060.8751,-849.2163 1053.1346,-841.8383 1050.729,-839.4025 1047.1201,-835.2655 1031.9805,-820.6809 1015.6671,-807.9161 948.8179,-763.9083 942.3904,-758.802 937.9474,-754.96 937.0714,-748.8393 936.5057,-739.8076 933.5555,-719.0889 923.2052,-662.0377 876.8521,-688.7915 860.9742,-698.995 851.7357,-704.2822 843.9954,-708.1423 "/>
<!-- authconfig&#45;&gt;python3&#45;sssdconfig -->
<g id="edge1" class="edge">
<title>authconfig&#45;&gt;python3&#45;sssdconfig</title>
<path fill="none" stroke="#444444" stroke-opacity="0.333333" d="M547.254,-668C547.0906,-668 546.9271,-668 546.7634,-668"/>
<polygon fill="#444444" fill-opacity="0.333333" stroke="#444444" stroke-opacity="0.333333" points="549.3267,-664.5001 539.3267,-668 549.3266,-671.5001 549.3267,-664.5001"/>
</g>
<!-- firewalld&#45;&gt;firewalld&#45;filesystem -->
<g id="edge2" class="edge">
<title>firewalld&#45;&gt;firewalld&#45;filesystem</title>
<path fill="none" stroke="#444444" stroke-opacity="0.333333" d="M1718.7071,-733C1718.7902,-733 1718.8734,-733 1718.9566,-733"/>
<polygon fill="#444444" fill-opacity="0.333333" stroke="#444444" stroke-opacity="0.333333" points="1716.8032,-736.5001 1726.8032,-733 1716.8031,-729.5001 1716.8032,-736.5001"/>
</g>
<!-- firewalld&#45;&gt;python3&#45;firewall -->
<g id="edge3" class="edge">
<title>firewalld&#45;&gt;python3&#45;firewall</title>
<path fill="none" stroke="#444444" stroke-opacity="0.333333" d="M1600.3482,-733C1586.3004,-733 1570.8846,-733 1555.4211,-733"/>
<polygon fill="#444444" fill-opacity="0.333333" stroke="#444444" stroke-opacity="0.333333" points="1555.2665,-729.5001 1545.2665,-733 1555.2664,-736.5001 1555.2665,-729.5001"/>
</g>
<!-- python3&#45;firewall&#45;&gt;python3&#45;slip&#45;dbus -->
<g id="edge4" class="edge">
<title>python3&#45;firewall&#45;&gt;python3&#45;slip&#45;dbus</title>
<path fill="none" stroke="#444444" stroke-opacity="0.333333" d="M1350.8505,-733C1350.0528,-733 1349.2545,-733 1348.4557,-733"/>
<polygon fill="#444444" fill-opacity="0.333333" stroke="#444444" stroke-opacity="0.333333" points="1348.0575,-729.5001 1338.0575,-733 1348.0574,-736.5001 1348.0575,-729.5001"/>
</g>
<!-- python3&#45;slip&#45;dbus&#45;&gt;python3&#45;slip -->
<g id="edge5" class="edge">
<title>python3&#45;slip&#45;dbus&#45;&gt;python3&#45;slip</title>
<path fill="none" stroke="#444444" stroke-opacity="0.333333" d="M1133.6094,-733C1133.452,-733 1133.2947,-733 1133.1374,-733"/>
<polygon fill="#444444" fill-opacity="0.333333" stroke="#444444" stroke-opacity="0.333333" points="1136.0903,-729.5001 1126.0903,-733 1136.0902,-736.5001 1136.0903,-729.5001"/>
</g>
<!-- libmbim&#45;&gt;libgudev -->
<g id="edge6" class="edge">
<title>libmbim&#45;&gt;libgudev</title>
<path fill="none" stroke="#444444" stroke-opacity="0.333333" d="M72.41,-438.2285C74.2194,-448.6096 76.5283,-461.8566 78.5709,-473.5755"/>
<polygon fill="#444444" fill-opacity="0.333333" stroke="#444444" stroke-opacity="0.333333" points="75.1847,-474.5318 80.3499,-483.7822 82.0807,-473.3298 75.1847,-474.5318"/>
</g>
<!-- libmbim&#45;utils&#45;&gt;libmbim -->
<g id="edge7" class="edge">
<title>libmbim&#45;utils&#45;&gt;libmbim</title>
<path fill="none" stroke="#444444" stroke-opacity="0.333333" d="M148.5158,-439.8661C141.4521,-438.1021 134.3472,-436.3278 127.4475,-434.6048"/>
<polygon fill="#444444" fill-opacity="0.333333" stroke="#444444" stroke-opacity="0.333333" points="128.0645,-431.1514 117.5144,-432.1242 126.3684,-437.9429 128.0645,-431.1514"/>
</g>
<!-- libmbim&#45;utils&#45;&gt;libgudev -->
<g id="edge8" class="edge">
<title>libmbim&#45;utils&#45;&gt;libgudev</title>
<path fill="none" stroke="#444444" stroke-opacity="0.333333" d="M164.4962,-475.9134C158.8079,-477.7379 153.0019,-479.6001 147.2417,-481.4476"/>
<polygon fill="#444444" fill-opacity="0.333333" stroke="#444444" stroke-opacity="0.333333" points="146.0734,-478.1466 137.6201,-484.5336 148.2113,-484.8122 146.0734,-478.1466"/>
</g>
<!-- libqmi&#45;&gt;libmbim -->
<g id="edge9" class="edge">
<title>libqmi&#45;&gt;libmbim</title>
<path fill="none" stroke="#444444" stroke-opacity="0.333333" d="M104.9858,-308.9011C98.015,-330.5833 86.318,-366.9658 78.213,-392.1757"/>
<polygon fill="#444444" fill-opacity="0.333333" stroke="#444444" stroke-opacity="0.333333" points="74.818,-391.3005 75.0893,-401.8919 81.4821,-393.4431 74.818,-391.3005"/>
</g>
<!-- libqmi&#45;utils&#45;&gt;libmbim -->
<g id="edge10" class="edge">
<title>libqmi&#45;utils&#45;&gt;libmbim</title>
<path fill="none" stroke="#444444" stroke-opacity="0.333333" d="M73.5484,-377.841C73.0985,-382.2554 72.6066,-387.0826 72.1213,-391.845"/>
<polygon fill="#444444" fill-opacity="0.333333" stroke="#444444" stroke-opacity="0.333333" points="68.6202,-391.6784 71.0883,-401.9818 75.5842,-392.3882 68.6202,-391.6784"/>
</g>
<!-- libqmi&#45;utils&#45;&gt;libgudev -->
<g id="edge11" class="edge">
<title>libqmi&#45;utils&#45;&gt;libgudev</title>
<path fill="none" stroke="#444444" stroke-opacity="0.333333" d="M76.4205,-377.7434C77.7967,-401.8566 80.2536,-444.9044 81.8818,-473.4313"/>
<polygon fill="#444444" fill-opacity="0.333333" stroke="#444444" stroke-opacity="0.333333" points="78.397,-473.7995 82.4612,-483.5838 85.3856,-473.4006 78.397,-473.7995"/>
</g>
<!-- libqmi&#45;utils&#45;&gt;libqmi -->
<g id="edge12" class="edge">
<title>libqmi&#45;utils&#45;&gt;libqmi</title>
<path fill="none" stroke="#444444" stroke-opacity="0.333333" d="M84.7115,-341.5822C88.4289,-334.3385 92.7886,-325.8435 96.8708,-317.8889"/>
<polygon fill="#444444" fill-opacity="0.333333" stroke="#444444" stroke-opacity="0.333333" points="100.0286,-319.4014 101.4806,-308.9065 93.8008,-316.2053 100.0286,-319.4014"/>
</g>
<!-- ModemManager&#45;&gt;libmbim -->
<g id="edge13" class="edge">
<title>ModemManager&#45;&gt;libmbim</title>
<path fill="none" stroke="#444444" stroke-opacity="0.333333" d="M198.5285,-368.0522C175.6665,-377.2508 147.6795,-388.5115 123.5989,-398.2005"/>
<polygon fill="#444444" fill-opacity="0.333333" stroke="#444444" stroke-opacity="0.333333" points="122.2076,-394.9875 114.2369,-401.9673 124.8206,-401.4816 122.2076,-394.9875"/>
</g>
<!-- ModemManager&#45;&gt;libgudev -->
<g id="edge14" class="edge">
<title>ModemManager&#45;&gt;libgudev</title>
<path fill="none" stroke="#444444" stroke-opacity="0.333333" d="M224.4037,-368.0291C196.0731,-394.9448 142.5857,-445.7609 110.2828,-476.4505"/>
<polygon fill="#444444" fill-opacity="0.333333" stroke="#444444" stroke-opacity="0.333333" points="107.7853,-473.9956 102.9461,-483.4207 112.6067,-479.0704 107.7853,-473.9956"/>
</g>
<!-- ModemManager&#45;&gt;libmbim&#45;utils -->
<g id="edge15" class="edge">
<title>ModemManager&#45;&gt;libmbim&#45;utils</title>
<path fill="none" stroke="#444444" stroke-opacity="0.333333" d="M239.5226,-368.3104C235.966,-385.2279 230.6295,-410.6115 226.5443,-430.0433"/>
<polygon fill="#444444" fill-opacity="0.333333" stroke="#444444" stroke-opacity="0.333333" points="223.1128,-429.3537 224.4805,-439.8599 229.9631,-430.7939 223.1128,-429.3537"/>
</g>
<!-- ModemManager&#45;&gt;libqmi -->
<g id="edge16" class="edge">
<title>ModemManager&#45;&gt;libqmi</title>
<path fill="none" stroke="#444444" stroke-opacity="0.333333" d="M202.8926,-331.8714C189.5352,-325.8857 174.5216,-319.1579 160.5567,-312.9"/>
<polygon fill="#444444" fill-opacity="0.333333" stroke="#444444" stroke-opacity="0.333333" points="161.6464,-309.553 151.0895,-308.6575 158.7839,-315.9409 161.6464,-309.553"/>
</g>
<!-- ModemManager&#45;&gt;libqmi&#45;utils -->
<g id="edge17" class="edge">
<title>ModemManager&#45;&gt;libqmi&#45;utils</title>
<path fill="none" stroke="#444444" stroke-opacity="0.333333" d="M167.7352,-354.3911C165.5582,-354.5172 163.3736,-354.6438 161.1874,-354.7704"/>
<polygon fill="#444444" fill-opacity="0.333333" stroke="#444444" stroke-opacity="0.333333" points="160.7474,-351.2899 150.9665,-355.3624 161.1522,-358.2782 160.7474,-351.2899"/>
</g>
<!-- ModemManager&#45;&gt;ModemManager&#45;glib -->
<g id="edge18" class="edge">
<title>ModemManager&#45;&gt;ModemManager&#45;glib</title>
<path fill="none" stroke="#444444" stroke-opacity="0.333333" d="M267.3068,-331.7995C289.1071,-315.2144 321.4593,-290.6017 345.4316,-272.3642"/>
<polygon fill="#444444" fill-opacity="0.333333" stroke="#444444" stroke-opacity="0.333333" points="347.6909,-275.0432 353.5304,-266.2029 343.4525,-269.4721 347.6909,-275.0432"/>
</g>
<!-- net&#45;snmp&#45;agent&#45;libs&#45;&gt;mariadb&#45;connector&#45;c -->
<g id="edge19" class="edge">
<title>net&#45;snmp&#45;agent&#45;libs&#45;&gt;mariadb&#45;connector&#45;c</title>
<path fill="none" stroke="#444444" stroke-opacity="0.333333" d="M1563.0482,-960.414C1576.4261,-954.817 1591.3067,-948.5912 1605.2405,-942.7616"/>
<polygon fill="#444444" fill-opacity="0.333333" stroke="#444444" stroke-opacity="0.333333" points="1606.8314,-945.8901 1614.7056,-938.8016 1604.1296,-939.4325 1606.8314,-945.8901"/>
</g>
<!-- net&#45;snmp&#45;agent&#45;libs&#45;&gt;net&#45;snmp&#45;libs -->
<g id="edge20" class="edge">
<title>net&#45;snmp&#45;agent&#45;libs&#45;&gt;net&#45;snmp&#45;libs</title>
<path fill="none" stroke="#444444" stroke-opacity="0.333333" d="M1471.2391,-960.3952C1455.9958,-954.6846 1439.0072,-948.3202 1423.1729,-942.3883"/>
<polygon fill="#444444" fill-opacity="0.333333" stroke="#444444" stroke-opacity="0.333333" points="1424.0812,-938.9911 1413.4889,-938.7604 1421.6255,-945.5462 1424.0812,-938.9911"/>
</g>
<!-- net&#45;snmp&#45;&gt;net&#45;snmp&#45;agent&#45;libs -->
<g id="edge21" class="edge">
<title>net&#45;snmp&#45;&gt;net&#45;snmp&#45;agent&#45;libs</title>
<path fill="none" stroke="#444444" stroke-opacity="0.333333" d="M1521.3031,-881.0547C1520.9996,-899.5166 1520.5235,-928.4663 1520.169,-950.0299"/>
<polygon fill="#444444" fill-opacity="0.333333" stroke="#444444" stroke-opacity="0.333333" points="1516.666,-950.1845 1520.0011,-960.2408 1523.6651,-950.2997 1516.666,-950.1845"/>
</g>
<!-- net&#45;snmp&#45;&gt;mariadb&#45;connector&#45;c -->
<g id="edge22" class="edge">
<title>net&#45;snmp&#45;&gt;mariadb&#45;connector&#45;c</title>
<path fill="none" stroke="#444444" stroke-opacity="0.333333" d="M1564.3522,-881.1077C1577.5462,-886.6961 1592.2223,-892.9121 1605.9645,-898.7327"/>
<polygon fill="#444444" fill-opacity="0.333333" stroke="#444444" stroke-opacity="0.333333" points="1604.7263,-902.0092 1615.2995,-902.6865 1607.4564,-895.5635 1604.7263,-902.0092"/>
</g>
<!-- net&#45;snmp&#45;&gt;net&#45;snmp&#45;libs -->
<g id="edge23" class="edge">
<title>net&#45;snmp&#45;&gt;net&#45;snmp&#45;libs</title>
<path fill="none" stroke="#444444" stroke-opacity="0.333333" d="M1472.5432,-881.0889C1457.1123,-886.7788 1439.9148,-893.1201 1423.8858,-899.0305"/>
<polygon fill="#444444" fill-opacity="0.333333" stroke="#444444" stroke-opacity="0.333333" points="1422.2543,-895.9017 1414.0828,-902.6453 1424.6761,-902.4694 1422.2543,-895.9017"/>
</g>
<!-- net&#45;snmp&#45;utils&#45;&gt;net&#45;snmp&#45;libs -->
<g id="edge24" class="edge">
<title>net&#45;snmp&#45;utils&#45;&gt;net&#45;snmp&#45;libs</title>
<path fill="none" stroke="#444444" stroke-opacity="0.333333" d="M1276.9781,-920.5031C1277.1391,-920.5034 1277.3,-920.5037 1277.4609,-920.504"/>
<polygon fill="#444444" fill-opacity="0.333333" stroke="#444444" stroke-opacity="0.333333" points="1274.6895,-923.9986 1284.6962,-920.5177 1274.7029,-916.9986 1274.6895,-923.9986"/>
</g>
<!-- NetworkManager&#45;adsl&#45;&gt;NetworkManager -->
<g id="edge25" class="edge">
<title>NetworkManager&#45;adsl&#45;&gt;NetworkManager</title>
<path fill="none" stroke="#444444" stroke-opacity="0.333333" d="M970.3689,-197.1746C966.8909,-210.5236 962.0821,-228.9801 958.0935,-244.2884"/>
<polygon fill="#444444" fill-opacity="0.333333" stroke="#444444" stroke-opacity="0.333333" points="954.6241,-243.7226 955.4897,-254.2821 961.398,-245.4876 954.6241,-243.7226"/>
</g>
<!-- NetworkManager&#45;&gt;libndp -->
<g id="edge26" class="edge">
<title>NetworkManager&#45;&gt;libndp</title>
<path fill="none" stroke="#444444" stroke-opacity="0.333333" d="M946.2881,-254.4161C938.7656,-223.7053 923.47,-161.261 914.5645,-124.9045"/>
<polygon fill="#444444" fill-opacity="0.333333" stroke="#444444" stroke-opacity="0.333333" points="917.9064,-123.8364 912.1277,-114.9562 911.1074,-125.5018 917.9064,-123.8364"/>
</g>
<!-- NetworkManager&#45;&gt;libpsl -->
<g id="edge27" class="edge">
<title>NetworkManager&#45;&gt;libpsl</title>
<path fill="none" stroke="#444444" stroke-opacity="0.333333" d="M967.3914,-254.3043C989.2333,-230.3858 1027.6811,-188.2822 1052.5357,-161.0644"/>
<polygon fill="#444444" fill-opacity="0.333333" stroke="#444444" stroke-opacity="0.333333" points="1055.3109,-163.2157 1059.4696,-153.4711 1050.1419,-158.4954 1055.3109,-163.2157"/>
</g>
<!-- NetworkManager&#45;&gt;NetworkManager&#45;libnm -->
<g id="edge28" class="edge">
<title>NetworkManager&#45;&gt;NetworkManager&#45;libnm</title>
<path fill="none" stroke="#444444" stroke-opacity="0.333333" d="M864.4567,-274.4007C864.3062,-274.4039 864.1556,-274.4071 864.005,-274.4104"/>
<polygon fill="#444444" fill-opacity="0.333333" stroke="#444444" stroke-opacity="0.333333" points="867.1164,-270.8427 857.1938,-274.5565 867.2666,-277.841 867.1164,-270.8427"/>
</g>
<!-- NetworkManager&#45;bluetooth&#45;&gt;ModemManager&#45;glib -->
<g id="edge29" class="edge">
<title>NetworkManager&#45;bluetooth&#45;&gt;ModemManager&#45;glib</title>
<path fill="none" stroke="#444444" stroke-opacity="0.333333" d="M525.5364,-200.5768C500.064,-208.7494 469.7617,-218.4716 443.2097,-226.9906"/>
<polygon fill="#444444" fill-opacity="0.333333" stroke="#444444" stroke-opacity="0.333333" points="442.0656,-223.6819 433.613,-230.0696 444.2042,-230.3472 442.0656,-223.6819"/>
</g>
<!-- NetworkManager&#45;bluetooth&#45;&gt;NetworkManager -->
<g id="edge30" class="edge">
<title>NetworkManager&#45;bluetooth&#45;&gt;NetworkManager</title>
<path fill="none" stroke="#444444" stroke-opacity="0.333333" d="M655.9029,-200.6706C716.8442,-215.5282 803.1337,-236.5657 866.6198,-252.0438"/>
<polygon fill="#444444" fill-opacity="0.333333" stroke="#444444" stroke-opacity="0.333333" points="866.0613,-255.5101 876.6058,-254.4784 867.7194,-248.7093 866.0613,-255.5101"/>
</g>
<!-- NetworkManager&#45;bluetooth&#45;&gt;bluez&#45;libs -->
<g id="edge31" class="edge">
<title>NetworkManager&#45;bluetooth&#45;&gt;bluez&#45;libs</title>
<path fill="none" stroke="#444444" stroke-opacity="0.333333" d="M587.6497,-164.3293C597.0884,-135.5854 615.4871,-79.555 626.5769,-45.783"/>
<polygon fill="#444444" fill-opacity="0.333333" stroke="#444444" stroke-opacity="0.333333" points="629.9713,-46.6644 629.7658,-36.0715 623.3206,-44.4805 629.9713,-46.6644"/>
</g>
<!-- NetworkManager&#45;bluetooth&#45;&gt;NetworkManager&#45;wwan -->
<g id="edge32" class="edge">
<title>NetworkManager&#45;bluetooth&#45;&gt;NetworkManager&#45;wwan</title>
<path fill="none" stroke="#444444" stroke-opacity="0.333333" d="M568.1507,-200.7128C554.8874,-218.5253 534.5122,-245.889 519.4654,-266.0967"/>
<polygon fill="#444444" fill-opacity="0.333333" stroke="#444444" stroke-opacity="0.333333" points="516.5444,-264.1592 513.3793,-274.2703 522.1589,-268.3398 516.5444,-264.1592"/>
</g>
<!-- NetworkManager&#45;wwan&#45;&gt;ModemManager -->
<g id="edge33" class="edge">
<title>NetworkManager&#45;wwan&#45;&gt;ModemManager</title>
<path fill="none" stroke="#444444" stroke-opacity="0.333333" d="M419.4018,-310.4976C390.6284,-316.9561 358.1092,-324.2554 328.9205,-330.8072"/>
<polygon fill="#444444" fill-opacity="0.333333" stroke="#444444" stroke-opacity="0.333333" points="328.1503,-327.3929 319.1597,-332.9981 329.6835,-334.2229 328.1503,-327.3929"/>
</g>
<!-- NetworkManager&#45;wwan&#45;&gt;ModemManager&#45;glib -->
<g id="edge34" class="edge">
<title>NetworkManager&#45;wwan&#45;&gt;ModemManager&#45;glib</title>
<path fill="none" stroke="#444444" stroke-opacity="0.333333" d="M449.988,-274.4256C445.6958,-272.8749 441.326,-271.2961 436.967,-269.7213"/>
<polygon fill="#444444" fill-opacity="0.333333" stroke="#444444" stroke-opacity="0.333333" points="438.0701,-266.3984 427.4758,-266.2922 435.6915,-272.9819 438.0701,-266.3984"/>
</g>
<!-- NetworkManager&#45;wwan&#45;&gt;NetworkManager -->
<g id="edge35" class="edge">
<title>NetworkManager&#45;wwan&#45;&gt;NetworkManager</title>
<path fill="none" stroke="#444444" stroke-opacity="0.333333" d="M612.463,-287.4722C686.9212,-284.1876 783.5033,-279.927 854.3939,-276.7997"/>
<polygon fill="#444444" fill-opacity="0.333333" stroke="#444444" stroke-opacity="0.333333" points="854.8251,-280.2842 864.6611,-276.3468 854.5165,-273.291 854.8251,-280.2842"/>
</g>
<!-- NetworkManager&#45;team&#45;&gt;NetworkManager -->
<g id="edge36" class="edge">
<title>NetworkManager&#45;team&#45;&gt;NetworkManager</title>
<path fill="none" stroke="#444444" stroke-opacity="0.333333" d="M840.0986,-529.5906C860.3368,-482.5692 914.7839,-356.0671 938.926,-299.9754"/>
<polygon fill="#444444" fill-opacity="0.333333" stroke="#444444" stroke-opacity="0.333333" points="942.1942,-301.2349 942.9328,-290.6659 935.7645,-298.4675 942.1942,-301.2349"/>
</g>
<!-- NetworkManager&#45;team&#45;&gt;teamd -->
<g id="edge37" class="edge">
<title>NetworkManager&#45;team&#45;&gt;teamd</title>
<path fill="none" stroke="#444444" stroke-opacity="0.333333" d="M833.1826,-565.7875C834.928,-602.9377 838.9189,-687.8847 841.0048,-732.2828"/>
<polygon fill="#444444" fill-opacity="0.333333" stroke="#444444" stroke-opacity="0.333333" points="837.514,-732.5638 841.4796,-742.3885 844.5063,-732.2352 837.514,-732.5638"/>
</g>
<!-- teamd&#45;&gt;libteam -->
<g id="edge38" class="edge">
<title>teamd&#45;&gt;libteam</title>
<path fill="none" stroke="#444444" stroke-opacity="0.333333" d="M862.201,-778.5888C874.1811,-789.5004 889.6067,-803.5503 902.7069,-815.4821"/>
<polygon fill="#444444" fill-opacity="0.333333" stroke="#444444" stroke-opacity="0.333333" points="900.3578,-818.0767 910.1076,-822.2228 905.0714,-812.9015 900.3578,-818.0767"/>
</g>
<!-- NetworkManager&#45;tui&#45;&gt;NetworkManager -->
<g id="edge39" class="edge">
<title>NetworkManager&#45;tui&#45;&gt;NetworkManager</title>
<path fill="none" stroke="#444444" stroke-opacity="0.333333" d="M934.2184,-390.6463C937.4333,-367.6523 943.019,-327.7015 946.7936,-300.7047"/>
<polygon fill="#444444" fill-opacity="0.333333" stroke="#444444" stroke-opacity="0.333333" points="950.2727,-301.0968 948.1912,-290.7084 943.3401,-300.1274 950.2727,-301.0968"/>
</g>
<!-- NetworkManager&#45;tui&#45;&gt;NetworkManager&#45;libnm -->
<g id="edge40" class="edge">
<title>NetworkManager&#45;tui&#45;&gt;NetworkManager&#45;libnm</title>
<path fill="none" stroke="#444444" stroke-opacity="0.333333" d="M905.2493,-390.7034C871.1163,-367.4325 811.6173,-326.8676 773.7234,-301.0326"/>
<polygon fill="#444444" fill-opacity="0.333333" stroke="#444444" stroke-opacity="0.333333" points="775.2846,-297.8609 765.0505,-295.1196 771.3413,-303.6446 775.2846,-297.8609"/>
</g>
<!-- NetworkManager&#45;tui&#45;&gt;newt -->
<g id="edge41" class="edge">
<title>NetworkManager&#45;tui&#45;&gt;newt</title>
<path fill="none" stroke="#444444" stroke-opacity="0.333333" d="M942.4629,-426.8368C958.0194,-452.9837 986.8846,-501.4997 1004.9543,-531.8709"/>
<polygon fill="#444444" fill-opacity="0.333333" stroke="#444444" stroke-opacity="0.333333" points="1002.0679,-533.8646 1010.1889,-540.669 1008.0837,-530.2854 1002.0679,-533.8646"/>
</g>
<!-- newt&#45;&gt;slang -->
<g id="edge42" class="edge">
<title>newt&#45;&gt;slang</title>
<path fill="none" stroke="#444444" stroke-opacity="0.333333" d="M1053.5087,-560.5643C1057.9091,-560.7977 1062.4962,-561.041 1067.0931,-561.2849"/>
<polygon fill="#444444" fill-opacity="0.333333" stroke="#444444" stroke-opacity="0.333333" points="1066.9319,-564.7811 1077.1032,-561.8158 1067.3027,-557.791 1066.9319,-564.7811"/>
</g>
<!-- NetworkManager&#45;wifi&#45;&gt;NetworkManager -->
<g id="edge43" class="edge">
<title>NetworkManager&#45;wifi&#45;&gt;NetworkManager</title>
<path fill="none" stroke="#444444" stroke-opacity="0.333333" d="M1055.8442,-307.0153C1042.8018,-302.7389 1028.7785,-298.1409 1015.3585,-293.7407"/>
<polygon fill="#444444" fill-opacity="0.333333" stroke="#444444" stroke-opacity="0.333333" points="1016.3087,-290.3689 1005.7159,-290.579 1014.1277,-297.0205 1016.3087,-290.3689"/>
</g>
<!-- NetworkManager&#45;wifi&#45;&gt;wpa_supplicant -->
<g id="edge44" class="edge">
<title>NetworkManager&#45;wifi&#45;&gt;wpa_supplicant</title>
<path fill="none" stroke="#444444" stroke-opacity="0.333333" d="M1151.4472,-343.1964C1168.9927,-351.0464 1189.7047,-360.3131 1208.1538,-368.5674"/>
<polygon fill="#444444" fill-opacity="0.333333" stroke="#444444" stroke-opacity="0.333333" points="1206.7274,-371.7635 1217.2848,-372.6527 1209.5862,-365.3738 1206.7274,-371.7635"/>
</g>
<!-- psl&#45;&gt;libpsl -->
<g id="edge45" class="edge">
<title>psl&#45;&gt;libpsl</title>
<path fill="none" stroke="#444444" stroke-opacity="0.333333" d="M1174.3901,-156.4793C1161.2721,-153.6298 1145.0638,-150.1089 1129.623,-146.7548"/>
<polygon fill="#444444" fill-opacity="0.333333" stroke="#444444" stroke-opacity="0.333333" points="1130.1423,-143.2861 1119.6273,-144.5835 1128.6564,-150.1265 1130.1423,-143.2861"/>
</g>
<!-- realmd&#45;&gt;authconfig -->
<g id="edge46" class="edge">
<title>realmd&#45;&gt;authconfig</title>
<path fill="none" stroke="#444444" stroke-opacity="0.333333" d="M748.7407,-668C730.1475,-668 707.8506,-668 686.7024,-668"/>
<polygon fill="#444444" fill-opacity="0.333333" stroke="#444444" stroke-opacity="0.333333" points="686.4341,-664.5001 676.434,-668 686.434,-671.5001 686.4341,-664.5001"/>
</g>
<!-- authconfig -->
<g id="node1" class="node">
<title>authconfig</title>
<text text-anchor="middle" x="611.84" y="-664.3" font-family="monospace" font-size="14.00" fill="#000000">authconfig</text>
</g>
<!-- python3&#45;sssdconfig -->
<g id="node2" class="node">
<title>python3&#45;sssdconfig</title>
<text text-anchor="middle" x="432.24" y="-664.3" font-family="monospace" font-size="14.00" fill="#000000">python3&#45;sssdconfig</text>
</g>
<!-- firewalld -->
<g id="node3" class="node">
<title>firewalld</title>
<text text-anchor="middle" x="1659.6" y="-729.3" font-family="monospace" font-size="14.00" fill="#000000">firewalld</text>
</g>
<!-- firewalld&#45;filesystem -->
<g id="node4" class="node">
<title>firewalld&#45;filesystem</title>
<text text-anchor="middle" x="1845.6" y="-729.3" font-family="monospace" font-size="14.00" fill="#000000">firewalld&#45;filesystem</text>
</g>
<!-- python3&#45;firewall -->
<g id="node5" class="node">
<title>python3&#45;firewall</title>
<text text-anchor="middle" x="1447.9" y="-729.3" font-family="monospace" font-size="14.00" fill="#000000">python3&#45;firewall</text>
</g>
<!-- python3&#45;slip&#45;dbus -->
<g id="node6" class="node">
<title>python3&#45;slip&#45;dbus</title>
<text text-anchor="middle" x="1235.8" y="-729.3" font-family="monospace" font-size="14.00" fill="#000000">python3&#45;slip&#45;dbus</text>
</g>
<!-- python3&#45;slip -->
<g id="node7" class="node">
<title>python3&#45;slip</title>
<text text-anchor="middle" x="1050.4" y="-729.3" font-family="monospace" font-size="14.00" fill="#000000">python3&#45;slip</text>
</g>
<!-- libmbim -->
<g id="node8" class="node">
<title>libmbim</title>
<text text-anchor="middle" x="69.245" y="-416.37" font-family="monospace" font-size="14.00" fill="#000000">libmbim</text>
</g>
<!-- libgudev -->
<g id="node9" class="node">
<title>libgudev</title>
<text text-anchor="middle" x="83.506" y="-498.19" font-family="monospace" font-size="14.00" fill="#000000">libgudev</text>
</g>
<!-- libmbim&#45;utils -->
<g id="node10" class="node">
<title>libmbim&#45;utils</title>
<text text-anchor="middle" x="220.69" y="-454.19" font-family="monospace" font-size="14.00" fill="#000000">libmbim&#45;utils</text>
</g>
<!-- libqmi -->
<g id="node11" class="node">
<title>libqmi</title>
<text text-anchor="middle" x="110.86" y="-286.93" font-family="monospace" font-size="14.00" fill="#000000">libqmi</text>
</g>
<!-- libqmi&#45;utils -->
<g id="node12" class="node">
<title>libqmi&#45;utils</title>
<text text-anchor="middle" x="75.393" y="-356.04" font-family="monospace" font-size="14.00" fill="#000000">libqmi&#45;utils</text>
</g>
<!-- ModemManager -->
<g id="node13" class="node">
<title>ModemManager</title>
<text text-anchor="middle" x="243.37" y="-346.31" font-family="monospace" font-size="14.00" fill="#000000">ModemManager</text>
</g>
<!-- ModemManager&#45;glib -->
<g id="node14" class="node">
<title>ModemManager&#45;glib</title>
<text text-anchor="middle" x="377.26" y="-244.45" font-family="monospace" font-size="14.00" fill="#000000">ModemManager&#45;glib</text>
</g>
<!-- net&#45;snmp&#45;agent&#45;libs -->
<g id="node15" class="node">
<title>net&#45;snmp&#45;agent&#45;libs</title>
<text text-anchor="middle" x="1519.7" y="-974.85" font-family="monospace" font-size="14.00" fill="#000000">net&#45;snmp&#45;agent&#45;libs</text>
</g>
<!-- mariadb&#45;connector&#45;c -->
<g id="node16" class="node">
<title>mariadb&#45;connector&#45;c</title>
<text text-anchor="middle" x="1657.9" y="-917.03" font-family="monospace" font-size="14.00" fill="#000000">mariadb&#45;connector&#45;c</text>
</g>
<!-- net&#45;snmp&#45;libs -->
<g id="node17" class="node">
<title>net&#45;snmp&#45;libs</title>
<text text-anchor="middle" x="1365.2" y="-916.97" font-family="monospace" font-size="14.00" fill="#000000">net&#45;snmp&#45;libs</text>
</g>
<!-- net&#45;snmp -->
<g id="node18" class="node">
<title>net&#45;snmp</title>
<text text-anchor="middle" x="1521.6" y="-859.3" font-family="monospace" font-size="14.00" fill="#000000">net&#45;snmp</text>
</g>
<!-- net&#45;snmp&#45;utils -->
<g id="node19" class="node">
<title>net&#45;snmp&#45;utils</title>
<text text-anchor="middle" x="1190.8" y="-916.64" font-family="monospace" font-size="14.00" fill="#000000">net&#45;snmp&#45;utils</text>
</g>
<!-- NetworkManager&#45;adsl -->
<g id="node20" class="node">
<title>NetworkManager&#45;adsl</title>
<text text-anchor="middle" x="975.06" y="-175.47" font-family="monospace" font-size="14.00" fill="#000000">NetworkManager&#45;adsl</text>
</g>
<!-- NetworkManager -->
<g id="node21" class="node">
<title>NetworkManager</title>
<text text-anchor="middle" x="950.73" y="-268.85" font-family="monospace" font-size="14.00" fill="#000000">NetworkManager</text>
</g>
<!-- libndp -->
<g id="node22" class="node">
<title>libndp</title>
<text text-anchor="middle" x="907.71" y="-93.221" font-family="monospace" font-size="14.00" fill="#000000">libndp</text>
</g>
<!-- libpsl -->
<g id="node23" class="node">
<title>libpsl</title>
<text text-anchor="middle" x="1076.2" y="-131.45" font-family="monospace" font-size="14.00" fill="#000000">libpsl</text>
</g>
<!-- NetworkManager&#45;libnm -->
<g id="node24" class="node">
<title>NetworkManager&#45;libnm</title>
<text text-anchor="middle" x="738.62" y="-273.4" font-family="monospace" font-size="14.00" fill="#000000">NetworkManager&#45;libnm</text>
</g>
<!-- NetworkManager&#45;bluetooth -->
<g id="node25" class="node">
<title>NetworkManager&#45;bluetooth</title>
<text text-anchor="middle" x="581.66" y="-178.87" font-family="monospace" font-size="14.00" fill="#000000">NetworkManager&#45;bluetooth</text>
</g>
<!-- bluez&#45;libs -->
<g id="node26" class="node">
<title>bluez&#45;libs</title>
<text text-anchor="middle" x="635.7" y="-14.3" font-family="monospace" font-size="14.00" fill="#000000">bluez&#45;libs</text>
</g>
<!-- NetworkManager&#45;wwan -->
<g id="node27" class="node">
<title>NetworkManager&#45;wwan</title>
<text text-anchor="middle" x="499.85" y="-288.74" font-family="monospace" font-size="14.00" fill="#000000">NetworkManager&#45;wwan</text>
</g>
<!-- NetworkManager&#45;team -->
<g id="node28" class="node">
<title>NetworkManager&#45;team</title>
<text text-anchor="middle" x="832.33" y="-543.94" font-family="monospace" font-size="14.00" fill="#000000">NetworkManager&#45;team</text>
</g>
<!-- teamd -->
<g id="node29" class="node">
<title>teamd</title>
<text text-anchor="middle" x="842.33" y="-756.79" font-family="monospace" font-size="14.00" fill="#000000">teamd</text>
</g>
<!-- libteam -->
<g id="node30" class="node">
<title>libteam</title>
<text text-anchor="middle" x="929.9" y="-836.55" font-family="monospace" font-size="14.00" fill="#000000">libteam</text>
</g>
<!-- NetworkManager&#45;tui -->
<g id="node31" class="node">
<title>NetworkManager&#45;tui</title>
<text text-anchor="middle" x="931.69" y="-405.03" font-family="monospace" font-size="14.00" fill="#000000">NetworkManager&#45;tui</text>
</g>
<!-- newt -->
<g id="node32" class="node">
<title>newt</title>
<text text-anchor="middle" x="1021" y="-555.14" font-family="monospace" font-size="14.00" fill="#000000">newt</text>
</g>
<!-- slang -->
<g id="node33" class="node">
<title>slang</title>
<text text-anchor="middle" x="1114.7" y="-560.11" font-family="monospace" font-size="14.00" fill="#000000">slang</text>
</g>
<!-- NetworkManager&#45;wifi -->
<g id="node34" class="node">
<title>NetworkManager&#45;wifi</title>
<text text-anchor="middle" x="1111" y="-321.4" font-family="monospace" font-size="14.00" fill="#000000">NetworkManager&#45;wifi</text>
</g>
<!-- wpa_supplicant -->
<g id="node35" class="node">
<title>wpa_supplicant</title>
<text text-anchor="middle" x="1257.6" y="-386.99" font-family="monospace" font-size="14.00" fill="#000000">wpa_supplicant</text>
</g>
<!-- psl -->
<g id="node36" class="node">
<title>psl</title>
<text text-anchor="middle" x="1201.6" y="-158.69" font-family="monospace" font-size="14.00" fill="#000000">psl</text>
</g>
<!-- realmd -->
<g id="node37" class="node">
<title>realmd</title>
<text text-anchor="middle" x="791.86" y="-664.3" font-family="monospace" font-size="14.00" fill="#000000">realmd</text>
</g>
</g>
</svg>
