<?xml version="1.0" encoding="UTF-8" standalone="no"?>
<!DOCTYPE svg PUBLIC "-//W3C//DTD SVG 1.1//EN"
 "http://www.w3.org/Graphics/SVG/1.1/DTD/svg11.dtd">
<!-- Generated by graphviz version 2.40.1 (20161225.0304)
 -->
<!-- Title: G Pages: 1 -->
<svg width="2284pt" height="1738pt"
 viewBox="0.00 0.00 2283.78 1737.71" xmlns="http://www.w3.org/2000/svg" xmlns:xlink="http://www.w3.org/1999/xlink">
<g id="graph0" class="graph" transform="scale(1 1) rotate(0) translate(149.0396 1578.5682)">
<title>G</title>
<polygon fill="#dae2ff" stroke="transparent" points="-149.0396,159.144 -149.0396,-1578.5682 2134.7358,-1578.5682 2134.7358,159.144 -149.0396,159.144"/>
<polygon fill="#fed9a6" stroke="#fed9a6" points="636.9139,-414.6084 624.3071,-405.5596 624.0233,-405.3692 617.5511,-400.7329 601.0118,-387.3399 579.313,-353.2796 570.3868,-339.9161 571.6154,-333.2256 574.8176,-313.5345 576.9471,-301.8962 578.5731,-293.8937 601.3184,-192.0489 722.0825,-198.7296 724.8441,-198.8327 747.7097,-198.8653 754.7422,-198.7489 755.0756,-198.7314 756.9921,-198.5965 765.812,-197.8168 788.663,-194.9721 784.0743,-331.899 786.2476,-363.8325 892.1852,-347.83 858.0934,-281.5306 965.5104,-267.6859 969.7251,-262.8307 969.7251,-262.8307 965.5104,-267.6859 858.0934,-281.5306 892.1852,-347.83 786.2476,-363.8325 784.0743,-331.899 788.663,-194.9721 805.0001,-192.3537 871.508,-122.7926 919.0877,-96.037 963.635,-90.0506 982.8716,-86.7251 992.7237,-84.6451 994.1507,-84.2891 1009.1835,-82.9962 1015.4982,-82.3383 1066.092,-42.4051 1137.9547,-78.2245 1167.1648,-94.0713 1168.4967,-166.9038 1155.2905,-171.6016 1155.2905,-171.6016 1168.4967,-166.9038 1167.1648,-94.0713 1137.9547,-78.2245 1066.092,-42.4051 1077.9802,-19.4232 1121.5811,74.0542 1129.696,80.8657 1130.8843,81.7414 1204.5273,103.0934 1219.4016,102.4056 1238.6948,101.9073 1256.9387,102.5562 1273.8867,104.1995 1281.6135,105.4228 1283.3719,105.2543 1284.6982,-41.8893 1279.3622,-40.2751 1279.3622,-40.2751 1284.6982,-41.8893 1288.2119,-45.0607 1284.9052,-48.1757 1284.9052,-48.1757 1288.2119,-45.0607 1284.6982,-41.8893 1283.3719,105.2543 1297.5237,104.1833 1310.6375,103.9838 1316.0618,104.1198 1318.6642,-44.9223 1318.5112,-44.9711 1313.3066,-44.9711 1312.1027,-45.3612 1318.4979,-118.4011 1318.7036,-123.1112 1312.113,-123.8313 1295.306,-126.3633 1294.1862,-126.5772 1292.3574,-127.001 1281.7122,-163.7714 1238.1511,-169.5823 1226.9563,-167.078 1226.9563,-167.078 1238.1511,-169.5823 1281.7122,-163.7714 1292.3574,-127.001 1294.1862,-126.5772 1295.306,-126.3633 1312.113,-123.8313 1318.7036,-123.1112 1318.4979,-118.4011 1312.1027,-45.3612 1313.3066,-44.9711 1318.5112,-44.9711 1318.6642,-44.9223 1316.0618,104.1198 1329.953,104.748 1327.9777,11.268 1327.9777,11.268 1329.953,104.748 1413.1057,111.8527 1453.833,74.0234 1483.2103,-36.6414 1488.681,-54.367 1550.3564,-107.2552 1577.733,-115.1006 1672.0503,-210.1769 1671.3945,-240.3484 1671.3513,-289.8917 1671.5592,-294.9801 1614.1752,-490.3259 1533.9717,-486.3379 1514.1774,-485.6307 1509.2561,-485.593 1504.7042,-485.4946 1490.1517,-485.5883 1492.026,-344.0732 1496.2109,-273.6547 1500.6155,-273.6547 1501.7626,-273.2787 1499.9487,-231.4289 1502.2439,-178.0978 1504.8784,-174.6804 1515.0387,-160.5984 1413.0342,-196.6049 1409.6042,-200.8736 1409.2101,-201.1181 1408.6306,-201.1181 1407.949,-200.9002 1407.949,-200.9002 1408.6306,-201.1181 1404.2345,-237.871 1401.1293,-201.0183 1396.7739,-201.0183 1396.2402,-201.1877 1390.6818,-201.1877 1389.7375,-200.8855 1385.7614,-200.8855 1384.288,-201.3603 1379.8408,-201.3603 1379.0336,-200.315 1373.0892,-196.4961 1367.6643,-196.4961 1363.1267,-199.2359 1359.2745,-173.44 1359.2745,-173.44 1363.1267,-199.2359 1367.6643,-196.4961 1373.0892,-196.4961 1379.0336,-200.315 1379.8408,-201.3603 1384.288,-201.3603 1385.7614,-200.8855 1389.7375,-200.8855 1390.6818,-201.1877 1396.2402,-201.1877 1396.7739,-201.0183 1401.1293,-201.0183 1404.2345,-237.871 1408.6306,-201.1181 1409.2101,-201.1181 1409.6042,-200.8736 1413.0342,-196.6049 1515.0387,-160.5984 1504.8784,-174.6804 1502.2439,-178.0978 1482.7562,-200.1918 1479.364,-203.1386 1475.578,-206.7672 1469.2443,-212.263 1461.1145,-218.5685 1458.4127,-220.405 1454.0455,-223.8605 1448.1879,-227.8565 1446.7129,-228.7025 1446.7129,-228.7025 1448.1879,-227.8565 1454.0455,-223.8605 1458.4127,-220.405 1461.1145,-218.5685 1469.2443,-212.263 1475.578,-206.7672 1479.364,-203.1386 1482.7562,-200.1918 1502.2439,-178.0978 1499.9487,-231.4289 1501.7626,-273.2787 1500.6155,-273.6547 1496.2109,-273.6547 1492.026,-344.0732 1489.705,-273.6124 1487.4374,-273.6124 1484.2736,-270.4701 1484.2736,-270.4701 1487.4374,-273.6124 1489.705,-273.6124 1492.026,-344.0732 1490.1517,-485.5883 1489.0563,-485.6261 1488.5247,-485.6296 1482.8361,-485.5876 1481.9763,-485.5452 1460.7021,-485.3921 1455.3475,-485.5793 1450.983,-485.5488 1440.624,-485.3316 1438.5168,-485.317 1437.4053,-485.3561 1415.3981,-485.2084 1415.0797,-485.2018 1410.13,-485.0304 1257.3223,-475.4753 1230.9094,-459.724 1206.8188,-452.3667 1204.7765,-452.2486 1196.0083,-455.4618 1017.4672,-460.8722 1016.2565,-460.8909 1009.6534,-460.8948 996.7437,-461.1109 992.7008,-460.9982 986.9616,-461.0235 983.4485,-461.0958 981.9554,-461.1507 960.9176,-460.984 960.1518,-461.0027 959.8797,-460.9931 945.8574,-469.2459 937.5913,-473.9392 928.6041,-478.669 921.5914,-482.2139 900.5839,-491.9639 808.9391,-532.5349 790.4136,-514.4636 778.7216,-503.5344 776.9273,-502.0067 776.2233,-501.377 759.8904,-486.0327 746.3275,-475.7934 739.7403,-471.1223 739.6536,-369.4592 744.6586,-369.4592 745.3822,-370.3556 750.7855,-373.7213 750.7855,-373.7213 745.3822,-370.3556 744.6586,-369.4592 739.6536,-369.4592 739.7403,-471.1223 727.1652,-462.7846 725.8929,-462.0027 653.9005,-424.3415 636.9139,-414.6084 636.9139,-414.6084"/>
<polygon fill="#fbb4ae" stroke="#fbb4ae" points="312.7804,-1032.5642 293.0313,-1127.0576 286.8641,-1151.4978 286.775,-1160.8752 441.9154,-1143.7535 444.7667,-1140.3904 448.0329,-1139.3055 448.6486,-1209.3566 454.8539,-1138.2173 457.0847,-1138.2173 459.4832,-1140.5836 459.4832,-1140.5836 457.0847,-1138.2173 454.8539,-1138.2173 448.6486,-1209.3566 448.0329,-1139.3055 444.7667,-1140.3904 441.9154,-1143.7535 286.775,-1160.8752 284.4093,-1241.7577 302.4092,-1270.1556 447.4546,-1249.2502 461.2895,-1248.4843 468.2247,-1248.5111 472.3024,-1248.4108 479.0708,-1248.4449 480.3961,-1248.491 484.0282,-1248.4102 485.9663,-1248.3116 492.4124,-1248.1758 494.3263,-1248.1921 504.2553,-1247.9945 504.8359,-1247.95 590.6616,-1187.491 606.5633,-1175.6418 615.2426,-1168.8442 623.9119,-1161.3967 635.1503,-1150.8755 647.2676,-1138.1 649.7489,-1135.7721 651.4879,-1137.4102 651.7706,-1137.698 661.9286,-1147.3135 672.5439,-1156.9794 684.04,-1166.6084 690.4743,-1171.5284 695.3888,-1175.1097 698.5391,-1177.2927 799.7311,-1240.3845 805.1215,-1235.3503 809.3827,-1231.6 817.8735,-1222.5852 822.8535,-1217.6443 835.4451,-1206.8273 835.8525,-1172.4396 839.6809,-1130.5723 844.6707,-1127.4611 845.7315,-1126.0851 845.3021,-1125.5299 845.3021,-1125.5299 845.7315,-1126.0851 844.6707,-1127.4611 839.6809,-1130.5723 835.8525,-1172.4396 835.4451,-1206.8273 822.8535,-1217.6443 817.8735,-1222.5852 809.3827,-1231.6 805.1215,-1235.3503 799.7311,-1240.3845 801.1522,-1245.7263 806.9778,-1251.4656 811.1568,-1255.3472 811.7642,-1255.8461 818.3654,-1260.9365 836.4438,-1273.9617 839.2324,-1275.6649 846.1488,-1279.5291 853.8611,-1283.4321 857.2817,-1284.9808 909.5355,-1305.8964 914.5118,-1308.158 918.7856,-1310.3334 920.4182,-1231.5313 920.11,-1231.4285 921.0606,-1161.3831 928.8544,-1156.2664 945.5533,-1143.0022 948.5452,-1140.2357 951.2598,-1137.5367 958.463,-1129.8536 862.8055,-1132.1724 858.0093,-1127.7057 857.0928,-1127.3752 857.0928,-1127.3752 858.0093,-1127.7057 862.8055,-1132.1724 958.463,-1129.8536 951.2598,-1137.5367 948.5452,-1140.2357 945.5533,-1143.0022 928.8544,-1156.2664 921.0606,-1161.3831 920.11,-1231.4285 920.4182,-1231.5313 918.7856,-1310.3334 924.7897,-1313.7211 928.1151,-1315.7814 931.7512,-1313.5984 932.2462,-1236.6519 937.8716,-1234.8068 940.8973,-1231.7087 937.6368,-1228.2855 932.5493,-1226.6256 932.5493,-1226.6256 937.6368,-1228.2855 940.8973,-1231.7087 937.8716,-1234.8068 932.2462,-1236.6519 931.7512,-1313.5984 942.2206,-1307.8844 945.124,-1306.4636 948.8672,-1304.8375 954.3496,-1302.7528 997.1119,-1288.8068 1006.1427,-1285.3879 1013.9636,-1281.6085 1021.7048,-1277.4598 1025.6567,-1275.1368 1036.9008,-1267.9365 1042.667,-1263.6514 1056.9016,-1251.5336 1059.5034,-1249.4535 1060.7877,-1248.3654 1074.5828,-1235.275 1077.4969,-1232.6514 1081.0852,-1229.2587 1111.6484,-1198.9595 1125.332,-1185.9194 1122.5297,-1166.1 1092.2593,-1010.85 1093.6744,-995.6625 1090.0874,-993.3934 975.2194,-924.3261 907.4382,-972.28 868.1501,-972.28 775.0396,-969.7697 753.9998,-965.8151 748.416,-969.9572 747.0063,-972.3256 743.0806,-972.3256 742.6578,-972.1909 742.6578,-972.1909 743.0806,-972.3256 747.0063,-972.3256 748.416,-969.9572 753.9998,-965.8151 775.0396,-969.7697 868.1501,-972.28 907.4382,-972.28 975.2194,-924.3261 941.7931,-874.4447 932.6164,-868.7974 917.4355,-859.749 796.5894,-797.0909 781.2642,-762.6808 751.2993,-687.8072 740.9467,-664.5494 649.3565,-654.1116 633.5327,-653.0505 632.3425,-652.9987 622.757,-653.0313 619.8917,-731.936 619.8917,-731.936 622.757,-653.0313 613.6287,-652.6638 607.3599,-652.7064 609.6494,-792.2132 604.5314,-792.2132 604.5314,-792.2132 609.6494,-792.2132 607.3599,-652.7064 597.8986,-652.5643 593.0588,-652.2808 585.1566,-651.6456 584.7551,-693.9408 586.9351,-791.6736 580.8787,-787.8263 575.8208,-787.8263 575.8208,-787.8263 580.8787,-787.8263 586.9351,-791.6736 584.7551,-693.9408 585.1566,-651.6456 570.6957,-649.8524 569.3249,-649.6227 558.2707,-647.5284 542.6958,-643.8952 542.3105,-643.7886 532.7991,-643.7949 532.2596,-643.8174 526.6685,-649.2178 522.0071,-653.5327 445.5003,-731.2401 438.2469,-769.2156 438.2363,-769.2997 433.212,-801.0488 431.9036,-807.9512 535.8462,-798.097 541.0899,-793.0095 541.3325,-792.5526 545.6395,-792.5526 549.8636,-821.0771 550.1432,-889.4319 547.0582,-889.5843 547.0776,-959.2547 542.8832,-986.5265 539.6622,-986.5265 539.6622,-986.5265 542.8832,-986.5265 547.0776,-959.2547 547.0582,-889.5843 550.1432,-889.4319 549.8636,-821.0771 545.6395,-792.5526 541.3325,-792.5526 541.0899,-793.0095 535.8462,-798.097 528.6506,-889.4287 526.5479,-889.3964 524.9683,-952.1738 520.5115,-984.788 516.0104,-982.0721 516.0104,-982.0721 520.5115,-984.788 524.9683,-952.1738 526.5479,-889.3964 528.6506,-889.4287 535.8462,-798.097 431.9036,-807.9512 420.4113,-860.0345 474.1144,-879.9203 474.7414,-912.4705 474.7327,-912.8279 474.7327,-912.8279 474.7414,-912.4705 474.1144,-879.9203 420.4113,-860.0345 336.7449,-907.7148 336.1208,-908.0862 330.0676,-911.8441 309.2063,-925.8787 303.2742,-930.3185 289.6494,-940.867 288.2886,-941.9891 293.9166,-960.7419 312.7804,-1032.5642 314.8072,-1032.9532 470.2129,-991.7192 472.8243,-988.4766 476.3094,-986.8671 476.3473,-986.8321 482.3604,-986.8321 482.6508,-986.7414 485.8199,-986.7414 486.3123,-986.5844 486.3123,-986.5844 485.8199,-986.7414 482.6508,-986.7414 482.3604,-986.8321 476.3473,-986.8321 476.3094,-986.8671 472.8243,-988.4766 470.2129,-991.7192 314.8072,-1032.9532 312.7804,-1032.5642 312.7804,-1032.5642"/>
<polygon fill="#decbe4" stroke="#decbe4" points="921.5914,-482.2139 900.5839,-491.9639 808.9391,-532.5349 804.6781,-540.614 769.7308,-610.1964 740.9467,-664.5494 751.2993,-687.8072 781.2642,-762.6808 796.5894,-797.0909 917.4355,-859.749 932.6164,-868.7974 941.7931,-874.4447 975.2194,-924.3261 1090.0874,-993.3934 1093.6744,-995.6625 1092.2593,-1010.85 1122.5297,-1166.1 1125.332,-1185.9194 1127.4277,-1188.4874 1179.9893,-1224.7375 1198.6218,-1235.7867 1201.6592,-1237.4863 1213.7893,-1243.4847 1229.9896,-1250.4373 1237.7117,-1252.9888 1248.9973,-1256.3512 1263.4569,-1259.7111 1298.3745,-1266.665 1300.049,-1209.2988 1300.049,-1209.2988 1298.3745,-1266.665 1314.2373,-1270.9054 1322.1307,-1273.5477 1330.8406,-1276.7578 1327.5167,-1170.6764 1333.6798,-1166.6116 1333.8656,-1166.3684 1333.2161,-1165.4651 1327.7144,-1161.7542 1327.7144,-1161.7542 1333.2161,-1165.4651 1333.8656,-1166.3684 1333.6798,-1166.6116 1327.5167,-1170.6764 1330.8406,-1276.7578 1332.2706,-1277.3326 1342.795,-1281.921 1346.813,-1283.8068 1345.2849,-1166.0115 1345.373,-1166.0115 1345.373,-1166.0115 1345.2849,-1166.0115 1346.813,-1283.8068 1347.3116,-1284.0575 1409.7216,-1317.5913 1444.8568,-1335.5663 1471.7228,-1321.2672 1543.4714,-1176.286 1614.5062,-1167.4885 1629.965,-1165.8423 1640.5498,-1164.8999 1643.0029,-1164.7672 1655.6891,-1164.5228 1667.9788,-1164.715 1669.3116,-1049.7986 1673.0757,-997.4953 1677.7325,-998.8767 1683.9419,-996.8704 1687.3314,-993.5883 1684.688,-991.189 1684.688,-991.189 1687.3314,-993.5883 1683.9419,-996.8704 1677.7325,-998.8767 1673.0757,-997.4953 1669.3116,-1049.7986 1667.9788,-1164.715 1686.7037,-1165.6617 1690.0238,-1166.0033 1705.8259,-1167.9052 1706.2305,-1167.9751 1729.0153,-1162.0779 1729.4742,-1161.9677 1793.5975,-1150.1349 1890.0267,-1041.0012 1885.4752,-1021.1246 1877.1121,-980.8596 1861.6388,-886.0175 1912.6205,-822.8328 1922.6803,-819.1093 1925.7118,-818.1152 1933.0508,-816.0126 1944.4724,-812.9766 1966.9764,-808.3937 1968.9192,-808.039 2041.4213,-797.8235 2063.1772,-787.5779 2076.2324,-777.0613 2116.626,-720.932 2125.2773,-689.3155 2130.7358,-663.4935 2129.0825,-660.37 2074.3113,-540.7443 2024.4155,-516.0753 2023.1228,-515.7716 1977.9066,-514.6505 1959.4559,-513.812 1948.1973,-512.8366 1947.2719,-512.7374 1941.6924,-512.0247 1928.1355,-509.7325 1926.4509,-510.0365 1914.1121,-511.7584 1901.6925,-512.7308 1895.7114,-513.0768 1885.1034,-513.4739 1885.1456,-538.4746 1885.1456,-538.4746 1885.1034,-513.4739 1874.5128,-513.2214 1870.9773,-513.0649 1857.1398,-512.1694 1820.1981,-508.2723 1689.7981,-532.8367 1652.2228,-524.5323 1614.1752,-490.3259 1533.9717,-486.3379 1514.1774,-485.6307 1509.2561,-485.593 1504.7042,-485.4946 1490.1517,-485.5883 1489.0563,-485.6261 1488.5247,-485.6296 1482.8361,-485.5876 1481.9763,-485.5452 1460.7021,-485.3921 1455.3475,-485.5793 1450.983,-485.5488 1440.624,-485.3316 1438.5168,-485.317 1437.4053,-485.3561 1436.6852,-586.3516 1442.0546,-697.3007 1446.5927,-697.3007 1447.1469,-696.6222 1452.6478,-693.2173 1452.6478,-693.2173 1447.1469,-696.6222 1446.5927,-697.3007 1447.323,-698.2565 1453.2122,-702.102 1458.7648,-702.102 1464.2196,-698.7278 1465.0403,-777.1003 1473.1824,-775.3702 1473.1824,-775.3702 1465.0403,-777.1003 1464.2196,-698.7278 1458.7648,-702.102 1453.2122,-702.102 1447.323,-698.2565 1446.5927,-697.3007 1442.0546,-697.3007 1436.6852,-586.3516 1437.4053,-485.3561 1415.3981,-485.2084 1415.0797,-485.2018 1410.13,-485.0304 1257.3223,-475.4753 1284.066,-680.0838 1284.2408,-680.2682 1290.7047,-686.7764 1293.3501,-689.5841 1302.1951,-698.5049 1306.5664,-702.6761 1309.2777,-705.5998 1322.9406,-718.6817 1327.153,-722.1943 1342.4426,-733.1859 1343.8091,-734.0839 1356.7163,-741.8036 1357.693,-742.3261 1366.7758,-746.1138 1376.4972,-749.5893 1388.5194,-752.4417 1385.0634,-804.2355 1449.0851,-801.1284 1447.899,-804.9251 1443.1177,-823.4808 1442.4977,-826.5825 1436.218,-850.6917 1428.2283,-875.8979 1498.3196,-854.4401 1500.0195,-917.6785 1504.7408,-849.7394 1509.39,-849.7394 1512.0009,-903.7884 1516.2043,-849.9556 1520.9431,-849.9556 1522.1201,-849.5802 1525.9456,-849.5802 1531.2534,-898.5941 1532.0195,-919.0985 1538.8783,-853.1435 1543.9868,-854.6904 1549.4421,-853.0355 1552.9183,-849.7851 1555.0604,-849.7851 1555.6144,-849.6059 1561.0637,-849.6059 1561.8616,-849.3497 1565.527,-849.3497 1566.6738,-849.7249 1567.7136,-930.4885 1573.0697,-849.7249 1574.0073,-849.4234 1576.9303,-849.4234 1576.9303,-849.4234 1574.0073,-849.4234 1573.0697,-849.7249 1567.7136,-930.4885 1566.6738,-849.7249 1565.527,-849.3497 1561.8616,-849.3497 1561.0637,-849.6059 1555.6144,-849.6059 1555.0604,-849.7851 1552.9183,-849.7851 1549.4421,-853.0355 1543.9868,-854.6904 1538.8783,-853.1435 1532.0195,-919.0985 1531.2534,-898.5941 1525.9456,-849.5802 1522.1201,-849.5802 1520.9431,-849.9556 1516.2043,-849.9556 1512.0009,-903.7884 1509.39,-849.7394 1504.7408,-849.7394 1500.0195,-917.6785 1498.3196,-854.4401 1428.2283,-875.8979 1436.218,-850.6917 1442.4977,-826.5825 1443.1177,-823.4808 1447.899,-804.9251 1449.0851,-801.1284 1385.0634,-804.2355 1388.5194,-752.4417 1376.4972,-749.5893 1366.7758,-746.1138 1357.693,-742.3261 1356.7163,-741.8036 1343.8091,-734.0839 1342.4426,-733.1859 1327.153,-722.1943 1322.9406,-718.6817 1309.2777,-705.5998 1306.5664,-702.6761 1302.1951,-698.5049 1293.3501,-689.5841 1290.7047,-686.7764 1284.2408,-680.2682 1289.0145,-803.5788 1294.6566,-807.5221 1296.2761,-810.1039 1299.5464,-810.1039 1305.0095,-880.5057 1306.0502,-810.2623 1311.4458,-810.2623 1312.9752,-903.3133 1316.9243,-902.3245 1317.2937,-810.1829 1317.2937,-810.1829 1316.9243,-902.3245 1317.6189,-902.1755 1330.2699,-899.9097 1340.3368,-898.8295 1348.9299,-898.2168 1348.5626,-839.4053 1344.5726,-811.9838 1339.9106,-814.795 1334.8464,-814.795 1334.8464,-814.795 1339.9106,-814.795 1344.5726,-811.9838 1346.2781,-809.729 1345.8264,-809.1771 1339.7654,-805.4119 1334.6757,-805.4119 1334.6757,-805.4119 1339.7654,-805.4119 1345.8264,-809.1771 1346.2781,-809.729 1344.5726,-811.9838 1348.5626,-839.4053 1348.9299,-898.2168 1353.8594,-898.22 1360.1632,-897.9919 1360.0538,-875.7894 1360.0538,-875.7894 1360.1632,-897.9919 1361.1563,-898.0275 1371.5675,-898.0172 1372.9959,-898.1187 1372.8929,-903.1959 1374.469,-985.776 1379.4113,-985.776 1380.0938,-986.0057 1383.085,-986.0057 1385.9358,-988.8926 1391.9546,-990.916 1397.421,-989.155 1400.5018,-986.1517 1400.5018,-986.1517 1397.421,-989.155 1391.9546,-990.916 1385.9358,-988.8926 1383.085,-986.0057 1380.0938,-986.0057 1379.4113,-985.776 1374.469,-985.776 1372.8929,-903.1959 1372.9959,-898.1187 1371.5675,-898.0172 1361.1563,-898.0275 1360.1632,-897.9919 1353.8594,-898.22 1348.9299,-898.2168 1340.3368,-898.8295 1330.2699,-899.9097 1317.6189,-902.1755 1316.9243,-902.3245 1312.9752,-903.3133 1311.4458,-810.2623 1306.0502,-810.2623 1305.0095,-880.5057 1299.5464,-810.1039 1296.2761,-810.1039 1294.6566,-807.5221 1289.0145,-803.5788 1284.2408,-680.2682 1284.066,-680.0838 1257.3223,-475.4753 1230.9094,-459.724 1206.8188,-452.3667 1204.7765,-452.2486 1196.0083,-455.4618 1173.4326,-505.9176 1166.6022,-722.2704 1160.7465,-727.6278 1164.339,-525.5224 1146.0776,-563.3949 1136.8878,-580.0165 1135.4115,-678.5126 1131.5618,-723.4356 1125.7048,-725.3018 1122.8591,-727.9166 1125.9922,-731.0782 1125.9922,-731.0782 1122.8591,-727.9166 1125.7048,-725.3018 1131.5618,-723.4356 1135.4115,-678.5126 1136.8878,-580.0165 1146.0776,-563.3949 1164.339,-525.5224 1160.7465,-727.6278 1166.6022,-722.2704 1173.4326,-505.9176 1196.0083,-455.4618 1017.4672,-460.8722 1016.2565,-460.8909 1009.6534,-460.8948 996.7437,-461.1109 992.7008,-460.9982 986.9616,-461.0235 983.4485,-461.0958 981.9554,-461.1507 960.9176,-460.984 960.1518,-461.0027 960.2592,-537.5019 961.9446,-570.4158 963.3046,-655.0891 957.6226,-656.8939 954.5076,-659.8711 958.4064,-663.7092 962.9574,-665.0668 962.9574,-665.0668 958.4064,-663.7092 954.5076,-659.8711 957.6226,-656.8939 963.3046,-655.0891 961.9446,-570.4158 960.2592,-537.5019 960.1518,-461.0027 959.8797,-460.9931 945.8574,-469.2459 937.5913,-473.9392 928.6041,-478.669 921.5914,-482.2139 921.5914,-482.2139"/>
<polygon fill="#b3cde3" stroke="#b3cde3" points="65.728,38.9917 43.1043,81.5274 46.1469,2.3971 45.7399,-67.9737 -92.269,-28.967 -67.2006,29.8534 -58.0915,47.6329 -54.1824,51.7817 -40.747,61.1852 39.8358,88.3188 106.569,150.9415 118.5879,155.144 151.3488,145.0111 170.7787,139.4082 169.606,53.0546 165.2597,-17.8167 172.0274,-17.8167 172.6432,-18.0217 176.8534,-18.0217 182.1697,-78.5036 182.8277,-100.0228 189.4946,-100.0359 192.5868,-100.2927 192.5785,-107.68 196.0352,-181.7028 196.1188,-181.7792 201.9246,-177.7199 208.4095,-177.7199 213.6963,-181.3109 214.39,-182.3214 207.9765,-186.837 211.6375,-256.3981 211.7798,-288.856 223.5515,-278.9917 229.1921,-274.599 312.8507,-204.2838 313.9533,-235.1579 319.606,-302.867 318.7314,-303.1434 318.3978,-303.1434 313.2049,-308.7336 223.1988,-320.3075 310.4833,-328.9378 313.4216,-328.6981 316.9825,-329.0067 315.8411,-352.1314 317.2761,-354.811 320.9142,-354.811 322.1268,-354.3847 328.2802,-358.7274 334.5797,-358.7274 339.7386,-355.3409 342.2675,-398.6652 339.7839,-398.8313 339.7839,-398.8313 342.2675,-398.6652 339.7386,-355.3409 334.5797,-358.7274 328.2802,-358.7274 322.1268,-354.3847 320.9142,-354.811 317.2761,-354.811 315.8411,-352.1314 316.9825,-329.0067 313.4216,-328.6981 310.4833,-328.9378 223.1988,-320.3075 313.2049,-308.7336 318.3978,-303.1434 318.7314,-303.1434 319.606,-302.867 313.9533,-235.1579 312.8507,-204.2838 315.2168,-202.0279 328.196,-190.446 330.1173,-188.8294 340.6444,-178.9644 347.5709,-171.808 351.1115,-167.9779 352.0303,-194.9564 358.6902,-301.6446 363.8852,-298.4871 363.8852,-298.4871 358.6902,-301.6446 352.0303,-194.9564 351.1115,-167.9779 347.5709,-171.808 340.6444,-178.9644 330.1173,-188.8294 328.196,-190.446 315.2168,-202.0279 312.8507,-204.2838 229.1921,-274.599 223.5515,-278.9917 211.7798,-288.856 211.6375,-256.3981 207.9765,-186.837 214.39,-182.3214 213.6963,-181.3109 208.4095,-177.7199 201.9246,-177.7199 196.1188,-181.7792 196.0352,-181.7028 192.5785,-107.68 192.5868,-100.2927 189.4946,-100.0359 182.8277,-100.0228 182.1697,-78.5036 176.8534,-18.0217 172.6432,-18.0217 172.0274,-17.8167 165.2597,-17.8167 169.606,53.0546 170.7787,139.4082 176.5501,137.9907 194.0316,134.4371 192.6932,15.3467 188.888,-13.2529 183.9027,-13.2529 183.9027,-13.2529 188.888,-13.2529 192.6932,15.3467 194.0316,134.4371 205.2832,132.6304 219.6266,130.939 345.8456,118.7552 357.2395,91.4667 378.7542,24.5162 401.4329,-41.8142 417.6286,-84.5921 416.1915,-85.7045 410.4615,-89.8979 409.6955,-91.0864 394.3215,-113.5478 392.8316,-226.7856 385.4775,-302.8234 386.3101,-303.0899 386.3858,-342.9854 381.4026,-338.7819 375.1918,-334.5663 371.4948,-332.678 361.5879,-329.2299 358.0986,-328.6274 352.5368,-328.5995 352.0492,-328.6787 347.5766,-328.6046 346.8278,-328.7179 345.9628,-352.3963 344.8738,-354.2267 346.5205,-355.6693 350.473,-357.0911 352.2022,-359.298 411.5805,-376.1341 402.9211,-382.8045 401.1342,-384.031 394.3527,-388.1468 393.8149,-402.366 395.7318,-440.3331 398.993,-443.4355 395.4493,-446.603 390.3813,-448.1154 390.3813,-448.1154 395.4493,-446.603 398.993,-443.4355 395.7318,-440.3331 393.8149,-402.366 394.3527,-388.1468 401.1342,-384.031 402.9211,-382.8045 411.5805,-376.1341 352.2022,-359.298 350.473,-357.0911 346.5205,-355.6693 344.8738,-354.2267 345.9628,-352.3963 346.8278,-328.7179 347.5766,-328.6046 352.0492,-328.6787 352.5368,-328.5995 358.0986,-328.6274 361.5879,-329.2299 371.4948,-332.678 375.1918,-334.5663 381.4026,-338.7819 386.3858,-342.9854 386.3101,-303.0899 385.4775,-302.8234 392.8316,-226.7856 394.3215,-113.5478 409.6955,-91.0864 407.728,-199.2741 407.728,-199.2741 409.6955,-91.0864 410.4615,-89.8979 416.1915,-85.7045 416.5313,-152.7875 416.5313,-152.7875 416.1915,-85.7045 417.6286,-84.5921 541.9421,-119.2386 601.3184,-192.0489 578.5731,-293.8937 576.9471,-301.8962 574.8176,-313.5345 571.6154,-333.2256 570.3868,-339.9161 560.361,-346.5477 446.5707,-370.866 446.0975,-438.4944 444.3824,-440.6835 440.6839,-442.181 439.1292,-376.2354 434.205,-442.9407 429.6202,-442.9407 426.8862,-380.0179 423.0331,-443.1345 419.2711,-443.1345 419.0818,-443.0752 419.0818,-443.0752 419.2711,-443.1345 423.0331,-443.1345 426.8862,-380.0179 429.6202,-442.9407 434.205,-442.9407 439.1292,-376.2354 440.6839,-442.181 444.3824,-440.6835 446.0975,-438.4944 446.5707,-370.866 560.361,-346.5477 570.3868,-339.9161 579.313,-353.2796 601.0118,-387.3399 576.2159,-488.0627 544.5051,-491.8723 535.2452,-488.8914 540.5104,-380.3764 525.3663,-404.6598 520.2692,-411.6872 517.9634,-495.238 512.6345,-495.238 512.4771,-495.1873 506.4881,-495.1873 508.6109,-427.2982 497.644,-439.9164 497.9399,-465.0034 494.8457,-490.605 489.4413,-492.2691 485.945,-495.4444 489.1059,-498.3743 495.3993,-500.4221 495.3993,-500.4221 489.1059,-498.3743 485.945,-495.4444 489.4413,-492.2691 494.8457,-490.605 497.9399,-465.0034 497.644,-439.9164 508.6109,-427.2982 506.4881,-495.1873 512.4771,-495.1873 512.6345,-495.238 517.9634,-495.238 520.2692,-411.6872 525.3663,-404.6598 540.5104,-380.3764 535.2452,-488.8914 544.5051,-491.8723 576.2159,-488.0627 601.0118,-387.3399 617.5511,-400.7329 624.0233,-405.3692 624.3071,-405.5596 636.9139,-414.6084 653.9005,-424.3415 725.8929,-462.0027 727.1652,-462.7846 739.7403,-471.1223 746.3275,-475.7934 759.8904,-486.0327 776.2233,-501.377 776.9273,-502.0067 778.7216,-503.5344 790.4136,-514.4636 808.9391,-532.5349 804.6781,-540.614 769.7308,-610.1964 740.9467,-664.5494 649.3565,-654.1116 647.8719,-557.1478 643.3922,-513.6328 640.925,-513.6328 638.2302,-510.7597 638.2302,-510.7597 640.925,-513.6328 643.3922,-513.6328 647.8719,-557.1478 649.3565,-654.1116 633.5327,-653.0505 632.3425,-652.9987 622.757,-653.0313 613.6287,-652.6638 607.3599,-652.7064 597.8986,-652.5643 593.0588,-652.2808 585.1566,-651.6456 570.6957,-649.8524 569.3249,-649.6227 558.2707,-647.5284 542.6958,-643.8952 542.3105,-643.7886 532.7991,-643.7949 532.2596,-643.8174 526.6685,-649.2178 522.0071,-653.5327 445.5003,-731.2401 438.2469,-769.2156 438.2363,-769.2997 433.212,-801.0488 431.9036,-807.9512 420.4113,-860.0345 336.7449,-907.7148 336.1208,-908.0862 330.0676,-911.8441 309.2063,-925.8787 303.2742,-930.3185 289.6494,-940.867 288.2886,-941.9891 285.8491,-940.9773 275.3102,-936.981 273.4137,-755.0737 278.7427,-755.0737 284.821,-751.1129 285.4832,-750.2637 284.9272,-749.6019 279.2462,-746.1437 279.2462,-746.1437 284.9272,-749.6019 285.4832,-750.2637 284.821,-751.1129 278.7427,-755.0737 273.4137,-755.0737 275.3102,-936.981 264.2063,-932.9689 258.8287,-931.2192 236.8875,-924.8611 238.0196,-864.5717 238.0196,-864.5717 236.8875,-924.8611 236.4659,-924.7618 224.7157,-919.7701 209.1752,-914.106 97.6675,-875.7305 89.452,-863.933 64.0277,-755.5111 62.1408,-748.1515 50.1004,-708.0549 54.9636,-681.8051 178.4012,-561.4719 179.8741,-556.3609 175.0162,-534.5491 167.5098,-458.596 166.2034,-447.4733 139.156,-380.1101 130.0052,-358.4487 77.0419,-325.918 76.4206,-325.7946 61.5788,-323.1129 42.8537,-320.4081 41.8167,-320.3149 28.5255,-312.6106 -66.3071,-262.3008 -115.6258,-200.0556 26.8316,-148.1785 29.5958,-201.0441 33.701,-143.6063 38.6412,-143.6063 38.7039,-143.689 38.7039,-143.689 38.6412,-143.6063 33.701,-143.6063 29.5958,-201.0441 26.8316,-148.1785 -115.6258,-200.0556 -145.0396,-164.5395 -134.7874,-115.3942 -133.7907,-112.0497 -128.3848,-90.9974 -108.6339,-65.0393 -108.0532,-63.8226 -92.269,-28.967 45.7399,-67.9737 46.1469,2.3971 43.1043,81.5274 65.728,38.9917 76.2318,22.7504 76.8795,-10.1557 76.8795,-10.1557 76.2318,22.7504 65.728,38.9917 65.728,38.9917"/>
<polygon fill="#ccebc5" stroke="#ccebc5" points="472.3024,-1248.4108 468.2247,-1248.5111 461.2895,-1248.4843 447.4546,-1249.2502 302.4092,-1270.1556 300.816,-1334.267 300.3906,-1341.2524 316.7907,-1403.1775 330.7978,-1460.6655 341.8268,-1476.2505 409.7611,-1551.2921 463.4129,-1557.1132 479.9446,-1559.1614 485.1767,-1560.0509 488.8336,-1558.8094 618.8843,-1567.563 645.218,-1569.8979 650.9703,-1570.7732 666.041,-1573.3867 666.8534,-1573.5447 671.0226,-1574.5323 671.1615,-1574.5682 687.8385,-1573.3206 758.1417,-1546.8979 798.2853,-1518.7566 800.6217,-1518.3793 815.8288,-1516.524 816.8393,-1516.4208 832.2585,-1515.1506 840.7448,-1515.1234 849.4023,-1512.5314 868.7816,-1507.5698 928.2348,-1493.662 1002.5874,-1513.3669 1004.0168,-1513.6417 1005.5714,-1514.0044 1026.1661,-1519.6671 1027.0159,-1519.5847 1039.6603,-1519.0791 1047.6958,-1518.9102 1049.0718,-1518.9073 1053.0287,-1518.9742 1068.1718,-1519.8052 1071.4814,-1518.8237 1081.4586,-1516.2732 1127.7465,-1505.3877 1165.2753,-1509.0823 1193.4122,-1512.4303 1187.3003,-1394.4036 1189.2981,-1358.9462 1189.2981,-1358.9462 1187.3003,-1394.4036 1193.4122,-1512.4303 1198.8275,-1513.2935 1200.8887,-1513.6637 1224.418,-1519.3359 1227.4222,-1520.1816 1233.7194,-1520.7216 1232.6301,-1438.3737 1228.369,-1359.1196 1226.2975,-1359.1196 1222.4729,-1355.3795 1217.9845,-1354.0208 1217.9845,-1354.0208 1222.4729,-1355.3795 1226.2975,-1359.1196 1228.369,-1359.1196 1232.6301,-1438.3737 1233.7194,-1520.7216 1236.6688,-1521.0861 1255.4648,-1524.1256 1262.1836,-1525.339 1263.1288,-1525.311 1266.5438,-1525.2719 1355.225,-1483.0789 1393.9475,-1433.9346 1420.1987,-1380.9517 1444.8568,-1335.5663 1409.7216,-1317.5913 1347.3116,-1284.0575 1346.813,-1283.8068 1342.795,-1281.921 1332.2706,-1277.3326 1330.8406,-1276.7578 1322.1307,-1273.5477 1314.2373,-1270.9054 1298.3745,-1266.665 1263.4569,-1259.7111 1248.9973,-1256.3512 1237.7117,-1252.9888 1229.9896,-1250.4373 1213.7893,-1243.4847 1201.6592,-1237.4863 1198.6218,-1235.7867 1179.9893,-1224.7375 1127.4277,-1188.4874 1125.332,-1185.9194 1111.6484,-1198.9595 1081.0852,-1229.2587 1077.4969,-1232.6514 1074.5828,-1235.275 1060.7877,-1248.3654 1059.5034,-1249.4535 1056.9016,-1251.5336 1042.667,-1263.6514 1036.9008,-1267.9365 1025.6567,-1275.1368 1021.7048,-1277.4598 1013.9636,-1281.6085 1006.1427,-1285.3879 997.1119,-1288.8068 954.3496,-1302.7528 948.8672,-1304.8375 945.124,-1306.4636 942.2206,-1307.8844 931.7512,-1313.5984 928.1151,-1315.7814 924.7897,-1313.7211 918.7856,-1310.3334 914.5118,-1308.158 909.5355,-1305.8964 857.2817,-1284.9808 853.8611,-1283.4321 846.1488,-1279.5291 839.2324,-1275.6649 836.4438,-1273.9617 818.3654,-1260.9365 811.7642,-1255.8461 811.1568,-1255.3472 806.9778,-1251.4656 801.1522,-1245.7263 799.7311,-1240.3845 698.5391,-1177.2927 695.3888,-1175.1097 690.4743,-1171.5284 684.04,-1166.6084 672.5439,-1156.9794 661.9286,-1147.3135 651.7706,-1137.698 651.4879,-1137.4102 649.7489,-1135.7721 647.2676,-1138.1 635.1503,-1150.8755 623.9119,-1161.3967 615.2426,-1168.8442 606.5633,-1175.6418 604.1045,-1300.718 604.6844,-1301.7614 609.348,-1301.7614 609.8253,-1301.912 615.6796,-1301.912 616.0994,-1302.0439 620.2453,-1302.0439 625.0506,-1350.1371 627.1294,-1301.9709 627.403,-1301.8832 631.8563,-1301.8832 632.8513,-1302.2008 638.3371,-1302.2008 638.4648,-1302.2404 642.489,-1302.2404 642.7168,-1302.1681 644.2237,-1300.2789 648.5104,-1297.722 655.6082,-1297.722 660.4034,-1300.576 661.3538,-1301.7142 664.8199,-1301.7142 665.7614,-1302.0189 672.5621,-1302.0189 672.6567,-1302.049 676.6307,-1302.049 676.652,-1302.0557 680.1128,-1346.3214 683.6778,-1302.229 687.7996,-1302.229 691.1359,-1338.9032 695.1685,-1302.3547 698.5634,-1302.3547 699.2952,-1303.5411 699.2952,-1303.5411 698.5634,-1302.3547 695.1685,-1302.3547 691.1359,-1338.9032 687.7996,-1302.229 683.6778,-1302.229 680.1128,-1346.3214 676.652,-1302.0557 676.6307,-1302.049 672.6567,-1302.049 672.5621,-1302.0189 665.7614,-1302.0189 664.8199,-1301.7142 661.3538,-1301.7142 660.4034,-1300.576 655.6082,-1297.722 648.5104,-1297.722 644.2237,-1300.2789 642.7168,-1302.1681 642.489,-1302.2404 638.4648,-1302.2404 638.3371,-1302.2008 632.8513,-1302.2008 631.8563,-1301.8832 627.403,-1301.8832 627.1294,-1301.9709 625.0506,-1350.1371 620.2453,-1302.0439 616.0994,-1302.0439 615.6796,-1301.912 609.8253,-1301.912 609.348,-1301.7614 604.6844,-1301.7614 604.0735,-1302.3477 546.0074,-1299.9679 546.0074,-1299.9679 604.0735,-1302.3477 604.6844,-1301.7614 604.1045,-1300.718 606.5633,-1175.6418 590.6616,-1187.491 598.8897,-1296.0608 541.2661,-1294.9369 530.2451,-1283.5133 528.3833,-1281.4072 513.7711,-1261.7671 514.1132,-1313.8429 511.1447,-1354.0082 506.2053,-1354.0082 499.5671,-1358.4955 500.7088,-1360.0295 505.8244,-1363.2472 511.2212,-1363.2472 511.2212,-1363.2472 505.8244,-1363.2472 500.7088,-1360.0295 499.5671,-1358.4955 506.2053,-1354.0082 511.1447,-1354.0082 514.1132,-1313.8429 513.7711,-1261.7671 528.3833,-1281.4072 530.2451,-1283.5133 541.2661,-1294.9369 598.8897,-1296.0608 590.6616,-1187.491 504.8359,-1247.95 504.2553,-1247.9945 494.3263,-1248.1921 492.4124,-1248.1758 485.9663,-1248.3116 484.0282,-1248.4102 480.3961,-1248.491 479.0708,-1248.4449 472.3024,-1248.4108 472.3024,-1248.4108"/>
<polyline fill="none" stroke="#000000" points="1204.7765,-452.2486 1196.0083,-455.4618 1017.4672,-460.8722 1016.2565,-460.8909 1009.6534,-460.8948 996.7437,-461.1109 992.7008,-460.9982 986.9616,-461.0235 983.4485,-461.0958 981.9554,-461.1507 960.9176,-460.984 960.1518,-461.0027 959.8797,-460.9931 945.8574,-469.2459 937.5913,-473.9392 928.6041,-478.669 921.5914,-482.2139 900.5839,-491.9639 808.9391,-532.5349 790.4136,-514.4636 778.7216,-503.5344 776.9273,-502.0067 776.2233,-501.377 759.8904,-486.0327 746.3275,-475.7934 739.7403,-471.1223 727.1652,-462.7846 725.8929,-462.0027 653.9005,-424.3415 636.9139,-414.6084 624.3071,-405.5596 624.0233,-405.3692 617.5511,-400.7329 601.0118,-387.3399 579.313,-353.2796 570.3868,-339.9161 571.6154,-333.2256 574.8176,-313.5345 576.9471,-301.8962 578.5731,-293.8937 601.3184,-192.0489 722.0825,-198.7296 724.8441,-198.8327 747.7097,-198.8653 754.7422,-198.7489 755.0756,-198.7314 756.9921,-198.5965 765.812,-197.8168 788.663,-194.9721 805.0001,-192.3537 871.508,-122.7926 919.0877,-96.037 963.635,-90.0506 982.8716,-86.7251 992.7237,-84.6451 994.1507,-84.2891 1009.1835,-82.9962 1015.4982,-82.3383 1066.092,-42.4051 1077.9802,-19.4232 1121.5811,74.0542 1129.696,80.8657 1130.8843,81.7414 1204.5273,103.0934 1219.4016,102.4056 1238.6948,101.9073 1256.9387,102.5562 1273.8867,104.1995 1281.6135,105.4228 1283.3719,105.2543 1297.5237,104.1833 1310.6375,103.9838 1316.0618,104.1198 1329.953,104.748 1413.1057,111.8527 1453.833,74.0234 1483.2103,-36.6414 1488.681,-54.367 1550.3564,-107.2552 1577.733,-115.1006 1672.0503,-210.1769 1671.3945,-240.3484 1671.3513,-289.8917 1671.5592,-294.9801 1614.1752,-490.3259 1533.9717,-486.3379 1514.1774,-485.6307 1509.2561,-485.593 1504.7042,-485.4946 1490.1517,-485.5883 1489.0563,-485.6261 1488.5247,-485.6296 1482.8361,-485.5876 1481.9763,-485.5452 1460.7021,-485.3921 1455.3475,-485.5793 1450.983,-485.5488 1440.624,-485.3316 1438.5168,-485.317 1437.4053,-485.3561 1415.3981,-485.2084 1415.0797,-485.2018 1410.13,-485.0304 1257.3223,-475.4753 1230.9094,-459.724 1206.8188,-452.3667 1204.7765,-452.2486 "/>
<polyline fill="none" stroke="#000000" points="649.7489,-1135.7721 647.2676,-1138.1 635.1503,-1150.8755 623.9119,-1161.3967 615.2426,-1168.8442 606.5633,-1175.6418 590.6616,-1187.491 504.8359,-1247.95 504.2553,-1247.9945 494.3263,-1248.1921 492.4124,-1248.1758 485.9663,-1248.3116 484.0282,-1248.4102 480.3961,-1248.491 479.0708,-1248.4449 472.3024,-1248.4108 468.2247,-1248.5111 461.2895,-1248.4843 447.4546,-1249.2502 302.4092,-1270.1556 284.4093,-1241.7577 286.775,-1160.8752 286.8641,-1151.4978 293.0313,-1127.0576 312.7804,-1032.5642 293.9166,-960.7419 288.2886,-941.9891 289.6494,-940.867 303.2742,-930.3185 309.2063,-925.8787 330.0676,-911.8441 336.1208,-908.0862 336.7449,-907.7148 420.4113,-860.0345 431.9036,-807.9512 433.212,-801.0488 438.2363,-769.2997 438.2469,-769.2156 445.5003,-731.2401 522.0071,-653.5327 526.6685,-649.2178 532.2596,-643.8174 532.7991,-643.7949 542.3105,-643.7886 542.6958,-643.8952 558.2707,-647.5284 569.3249,-649.6227 570.6957,-649.8524 585.1566,-651.6456 593.0588,-652.2808 597.8986,-652.5643 607.3599,-652.7064 613.6287,-652.6638 622.757,-653.0313 632.3425,-652.9987 633.5327,-653.0505 649.3565,-654.1116 740.9467,-664.5494 751.2993,-687.8072 781.2642,-762.6808 796.5894,-797.0909 917.4355,-859.749 932.6164,-868.7974 941.7931,-874.4447 975.2194,-924.3261 1090.0874,-993.3934 1093.6744,-995.6625 1092.2593,-1010.85 1122.5297,-1166.1 1125.332,-1185.9194 1111.6484,-1198.9595 1081.0852,-1229.2587 1077.4969,-1232.6514 1074.5828,-1235.275 1060.7877,-1248.3654 1059.5034,-1249.4535 1056.9016,-1251.5336 1042.667,-1263.6514 1036.9008,-1267.9365 1025.6567,-1275.1368 1021.7048,-1277.4598 1013.9636,-1281.6085 1006.1427,-1285.3879 997.1119,-1288.8068 954.3496,-1302.7528 948.8672,-1304.8375 945.124,-1306.4636 942.2206,-1307.8844 931.7512,-1313.5984 928.1151,-1315.7814 924.7897,-1313.7211 918.7856,-1310.3334 914.5118,-1308.158 909.5355,-1305.8964 857.2817,-1284.9808 853.8611,-1283.4321 846.1488,-1279.5291 839.2324,-1275.6649 836.4438,-1273.9617 818.3654,-1260.9365 811.7642,-1255.8461 811.1568,-1255.3472 806.9778,-1251.4656 801.1522,-1245.7263 799.7311,-1240.3845 698.5391,-1177.2927 695.3888,-1175.1097 690.4743,-1171.5284 684.04,-1166.6084 672.5439,-1156.9794 661.9286,-1147.3135 651.7706,-1137.698 651.4879,-1137.4102 649.7489,-1135.7721 "/>
<polyline fill="none" stroke="#000000" points="1877.1121,-980.8596 1885.4752,-1021.1246 1890.0267,-1041.0012 1793.5975,-1150.1349 1729.4742,-1161.9677 1729.0153,-1162.0779 1706.2305,-1167.9751 1705.8259,-1167.9052 1690.0238,-1166.0033 1686.7037,-1165.6617 1667.9788,-1164.715 1655.6891,-1164.5228 1643.0029,-1164.7672 1640.5498,-1164.8999 1629.965,-1165.8423 1614.5062,-1167.4885 1543.4714,-1176.286 1471.7228,-1321.2672 1444.8568,-1335.5663 1409.7216,-1317.5913 1347.3116,-1284.0575 1346.813,-1283.8068 1342.795,-1281.921 1332.2706,-1277.3326 1330.8406,-1276.7578 1322.1307,-1273.5477 1314.2373,-1270.9054 1298.3745,-1266.665 1263.4569,-1259.7111 1248.9973,-1256.3512 1237.7117,-1252.9888 1229.9896,-1250.4373 1213.7893,-1243.4847 1201.6592,-1237.4863 1198.6218,-1235.7867 1179.9893,-1224.7375 1127.4277,-1188.4874 1125.332,-1185.9194 1122.5297,-1166.1 1092.2593,-1010.85 1093.6744,-995.6625 1090.0874,-993.3934 975.2194,-924.3261 941.7931,-874.4447 932.6164,-868.7974 917.4355,-859.749 796.5894,-797.0909 781.2642,-762.6808 751.2993,-687.8072 740.9467,-664.5494 769.7308,-610.1964 804.6781,-540.614 808.9391,-532.5349 900.5839,-491.9639 921.5914,-482.2139 928.6041,-478.669 937.5913,-473.9392 945.8574,-469.2459 959.8797,-460.9931 960.1518,-461.0027 960.9176,-460.984 981.9554,-461.1507 983.4485,-461.0958 986.9616,-461.0235 992.7008,-460.9982 996.7437,-461.1109 1009.6534,-460.8948 1016.2565,-460.8909 1017.4672,-460.8722 1196.0083,-455.4618 1204.7765,-452.2486 1206.8188,-452.3667 1230.9094,-459.724 1257.3223,-475.4753 1410.13,-485.0304 1415.0797,-485.2018 1415.3981,-485.2084 1437.4053,-485.3561 1438.5168,-485.317 1440.624,-485.3316 1450.983,-485.5488 1455.3475,-485.5793 1460.7021,-485.3921 1481.9763,-485.5452 1482.8361,-485.5876 1488.5247,-485.6296 1489.0563,-485.6261 1490.1517,-485.5883 1504.7042,-485.4946 1509.2561,-485.593 1514.1774,-485.6307 1533.9717,-486.3379 1614.1752,-490.3259 1652.2228,-524.5323 1689.7981,-532.8367 1820.1981,-508.2723 1857.1398,-512.1694 1870.9773,-513.0649 1874.5128,-513.2214 1885.1034,-513.4739 1895.7114,-513.0768 1901.6925,-512.7308 1914.1121,-511.7584 1926.4509,-510.0365 1928.1355,-509.7325 1941.6924,-512.0247 1947.2719,-512.7374 1948.1973,-512.8366 1959.4559,-513.812 1977.9066,-514.6505 2023.1228,-515.7716 2024.4155,-516.0753 2074.3113,-540.7443 2129.0825,-660.37 2130.7358,-663.4935 2125.2773,-689.3155 2116.626,-720.932 2076.2324,-777.0613 2063.1772,-787.5779 2041.4213,-797.8235 1968.9192,-808.039 1966.9764,-808.3937 1944.4724,-812.9766 1933.0508,-816.0126 1925.7118,-818.1152 1922.6803,-819.1093 1912.6205,-822.8328 1861.6388,-886.0175 1877.1121,-980.8596 "/>
<polyline fill="none" stroke="#000000" points="522.0071,-653.5327 526.6685,-649.2178 532.2596,-643.8174 532.7991,-643.7949 542.3105,-643.7886 542.6958,-643.8952 558.2707,-647.5284 569.3249,-649.6227 570.6957,-649.8524 585.1566,-651.6456 593.0588,-652.2808 597.8986,-652.5643 607.3599,-652.7064 613.6287,-652.6638 622.757,-653.0313 632.3425,-652.9987 633.5327,-653.0505 649.3565,-654.1116 740.9467,-664.5494 769.7308,-610.1964 804.6781,-540.614 808.9391,-532.5349 790.4136,-514.4636 778.7216,-503.5344 776.9273,-502.0067 776.2233,-501.377 759.8904,-486.0327 746.3275,-475.7934 739.7403,-471.1223 727.1652,-462.7846 725.8929,-462.0027 653.9005,-424.3415 636.9139,-414.6084 624.3071,-405.5596 624.0233,-405.3692 617.5511,-400.7329 601.0118,-387.3399 579.313,-353.2796 570.3868,-339.9161 571.6154,-333.2256 574.8176,-313.5345 576.9471,-301.8962 578.5731,-293.8937 601.3184,-192.0489 541.9421,-119.2386 417.6286,-84.5921 401.4329,-41.8142 378.7542,24.5162 357.2395,91.4667 345.8456,118.7552 219.6266,130.939 205.2832,132.6304 194.0316,134.4371 176.5501,137.9907 170.7787,139.4082 151.3488,145.0111 118.5879,155.144 106.569,150.9415 39.8358,88.3188 -40.747,61.1852 -54.1824,51.7817 -58.0915,47.6329 -67.2006,29.8534 -92.269,-28.967 -108.0532,-63.8226 -108.6339,-65.0393 -128.3848,-90.9974 -133.7907,-112.0497 -134.7874,-115.3942 -145.0396,-164.5395 -115.6258,-200.0556 -66.3071,-262.3008 28.5255,-312.6106 41.8167,-320.3149 42.8537,-320.4081 61.5788,-323.1129 76.4206,-325.7946 77.0419,-325.918 130.0052,-358.4487 139.156,-380.1101 166.2034,-447.4733 167.5098,-458.596 175.0162,-534.5491 179.8741,-556.3609 178.4012,-561.4719 54.9636,-681.8051 50.1004,-708.0549 62.1408,-748.1515 64.0277,-755.5111 89.452,-863.933 97.6675,-875.7305 209.1752,-914.106 224.7157,-919.7701 236.4659,-924.7618 236.8875,-924.8611 258.8287,-931.2192 264.2063,-932.9689 275.3102,-936.981 285.8491,-940.9773 288.2886,-941.9891 289.6494,-940.867 303.2742,-930.3185 309.2063,-925.8787 330.0676,-911.8441 336.1208,-908.0862 336.7449,-907.7148 420.4113,-860.0345 431.9036,-807.9512 433.212,-801.0488 438.2363,-769.2997 438.2469,-769.2156 445.5003,-731.2401 522.0071,-653.5327 "/>
<polyline fill="none" stroke="#000000" points="1027.0159,-1519.5847 1026.1661,-1519.6671 1005.5714,-1514.0044 1004.0168,-1513.6417 1002.5874,-1513.3669 928.2348,-1493.662 868.7816,-1507.5698 849.4023,-1512.5314 840.7448,-1515.1234 832.2585,-1515.1506 816.8393,-1516.4208 815.8288,-1516.524 800.6217,-1518.3793 798.2853,-1518.7566 758.1417,-1546.8979 687.8385,-1573.3206 671.1615,-1574.5682 671.0226,-1574.5323 666.8534,-1573.5447 666.041,-1573.3867 650.9703,-1570.7732 645.218,-1569.8979 618.8843,-1567.563 488.8336,-1558.8094 485.1767,-1560.0509 479.9446,-1559.1614 463.4129,-1557.1132 409.7611,-1551.2921 341.8268,-1476.2505 330.7978,-1460.6655 316.7907,-1403.1775 300.3906,-1341.2524 300.816,-1334.267 302.4092,-1270.1556 447.4546,-1249.2502 461.2895,-1248.4843 468.2247,-1248.5111 472.3024,-1248.4108 479.0708,-1248.4449 480.3961,-1248.491 484.0282,-1248.4102 485.9663,-1248.3116 492.4124,-1248.1758 494.3263,-1248.1921 504.2553,-1247.9945 504.8359,-1247.95 590.6616,-1187.491 606.5633,-1175.6418 615.2426,-1168.8442 623.9119,-1161.3967 635.1503,-1150.8755 647.2676,-1138.1 649.7489,-1135.7721 651.4879,-1137.4102 651.7706,-1137.698 661.9286,-1147.3135 672.5439,-1156.9794 684.04,-1166.6084 690.4743,-1171.5284 695.3888,-1175.1097 698.5391,-1177.2927 799.7311,-1240.3845 801.1522,-1245.7263 806.9778,-1251.4656 811.1568,-1255.3472 811.7642,-1255.8461 818.3654,-1260.9365 836.4438,-1273.9617 839.2324,-1275.6649 846.1488,-1279.5291 853.8611,-1283.4321 857.2817,-1284.9808 909.5355,-1305.8964 914.5118,-1308.158 918.7856,-1310.3334 924.7897,-1313.7211 928.1151,-1315.7814 931.7512,-1313.5984 942.2206,-1307.8844 945.124,-1306.4636 948.8672,-1304.8375 954.3496,-1302.7528 997.1119,-1288.8068 1006.1427,-1285.3879 1013.9636,-1281.6085 1021.7048,-1277.4598 1025.6567,-1275.1368 1036.9008,-1267.9365 1042.667,-1263.6514 1056.9016,-1251.5336 1059.5034,-1249.4535 1060.7877,-1248.3654 1074.5828,-1235.275 1077.4969,-1232.6514 1081.0852,-1229.2587 1111.6484,-1198.9595 1125.332,-1185.9194 1127.4277,-1188.4874 1179.9893,-1224.7375 1198.6218,-1235.7867 1201.6592,-1237.4863 1213.7893,-1243.4847 1229.9896,-1250.4373 1237.7117,-1252.9888 1248.9973,-1256.3512 1263.4569,-1259.7111 1298.3745,-1266.665 1314.2373,-1270.9054 1322.1307,-1273.5477 1330.8406,-1276.7578 1332.2706,-1277.3326 1342.795,-1281.921 1346.813,-1283.8068 1347.3116,-1284.0575 1409.7216,-1317.5913 1444.8568,-1335.5663 1420.1987,-1380.9517 1393.9475,-1433.9346 1355.225,-1483.0789 1266.5438,-1525.2719 1263.1288,-1525.311 1262.1836,-1525.339 1255.4648,-1524.1256 1236.6688,-1521.0861 1233.7194,-1520.7216 1227.4222,-1520.1816 1224.418,-1519.3359 1200.8887,-1513.6637 1198.8275,-1513.2935 1193.4122,-1512.4303 1165.2753,-1509.0823 1127.7465,-1505.3877 1081.4586,-1516.2732 1071.4814,-1518.8237 1068.1718,-1519.8052 1053.0287,-1518.9742 1049.0718,-1518.9073 1047.6958,-1518.9102 1039.6603,-1519.0791 1027.0159,-1519.5847 "/>
<!-- authconfig&#45;&gt;policycoreutils -->
<g id="edge1" class="edge">
<title>authconfig&#45;&gt;policycoreutils</title>
<path fill="none" stroke="#444444" stroke-opacity="0.333333" d="M1262.5735,-183.9245C1264.8313,-184.2845 1267.1101,-184.6479 1269.4032,-185.0135"/>
<polygon fill="#444444" fill-opacity="0.333333" stroke="#444444" stroke-opacity="0.333333" points="1269.1014,-188.5095 1279.5278,-186.628 1270.2037,-181.5969 1269.1014,-188.5095"/>
</g>
<!-- authconfig&#45;&gt;python3&#45;sssdconfig -->
<g id="edge2" class="edge">
<title>authconfig&#45;&gt;python3&#45;sssdconfig</title>
<path fill="none" stroke="#444444" stroke-opacity="0.333333" d="M1209.1759,-155.4666C1222.9758,-133.6849 1246.2568,-96.9385 1262.1095,-71.9168"/>
<polygon fill="#444444" fill-opacity="0.333333" stroke="#444444" stroke-opacity="0.333333" points="1265.1872,-73.5988 1267.5825,-63.2782 1259.274,-69.8524 1265.1872,-73.5988"/>
</g>
<!-- policycoreutils&#45;&gt;libselinux&#45;utils -->
<g id="edge3" class="edge">
<title>policycoreutils&#45;&gt;libselinux&#45;utils</title>
<path fill="none" stroke="#444444" stroke-opacity="0.333333" d="M1397.5744,-219.1904C1411.3625,-228.4118 1428.318,-239.7516 1443.1487,-249.6703"/>
<polygon fill="#444444" fill-opacity="0.333333" stroke="#444444" stroke-opacity="0.333333" points="1441.3371,-252.6693 1451.5952,-255.3193 1445.2286,-246.8507 1441.3371,-252.6693"/>
</g>
<!-- curl&#45;minimal&#45;&gt;libcurl&#45;minimal -->
<g id="edge4" class="edge">
<title>curl&#45;minimal&#45;&gt;libcurl&#45;minimal</title>
<path fill="none" stroke="#444444" stroke-opacity="0.333333" d="M705.0321,-954.0443C679.9269,-922.0473 627.8615,-855.689 598.8605,-818.7266"/>
<polygon fill="#444444" fill-opacity="0.333333" stroke="#444444" stroke-opacity="0.333333" points="601.2825,-816.1435 592.356,-810.4366 595.7753,-820.4645 601.2825,-816.1435"/>
</g>
<!-- firewalld&#45;&gt;firewalld&#45;filesystem -->
<g id="edge5" class="edge">
<title>firewalld&#45;&gt;firewalld&#45;filesystem</title>
<path fill="none" stroke="#444444" stroke-opacity="0.333333" d="M1783.9294,-724.6167C1808.6877,-712.3405 1841.6199,-696.0113 1868.0873,-682.8876"/>
<polygon fill="#444444" fill-opacity="0.333333" stroke="#444444" stroke-opacity="0.333333" points="1869.7513,-685.9692 1877.1556,-678.3911 1866.6416,-679.6978 1869.7513,-685.9692"/>
</g>
<!-- firewalld&#45;&gt;python3&#45;firewall -->
<g id="edge6" class="edge">
<title>firewalld&#45;&gt;python3&#45;firewall</title>
<path fill="none" stroke="#444444" stroke-opacity="0.333333" d="M1712.979,-760.8107C1678.3769,-778.9841 1624.9994,-807.0184 1587.5162,-826.7049"/>
<polygon fill="#444444" fill-opacity="0.333333" stroke="#444444" stroke-opacity="0.333333" points="1585.5759,-823.7705 1578.3502,-831.519 1588.8308,-829.9678 1585.5759,-823.7705"/>
</g>
<!-- python3&#45;firewall&#45;&gt;python3&#45;dbus -->
<g id="edge7" class="edge">
<title>python3&#45;firewall&#45;&gt;python3&#45;dbus</title>
<path fill="none" stroke="#444444" stroke-opacity="0.333333" d="M1523.7757,-867.6822C1497.0358,-891.6428 1449.7913,-933.9767 1419.6514,-960.9839"/>
<polygon fill="#444444" fill-opacity="0.333333" stroke="#444444" stroke-opacity="0.333333" points="1417.1197,-958.5528 1412.0079,-967.8329 1421.7912,-963.7661 1417.1197,-958.5528"/>
</g>
<!-- python3&#45;firewall&#45;&gt;python3&#45;decorator -->
<g id="edge8" class="edge">
<title>python3&#45;firewall&#45;&gt;python3&#45;decorator</title>
<path fill="none" stroke="#444444" stroke-opacity="0.333333" d="M1533.5359,-831.5315C1518.1525,-805.0272 1489.3248,-755.3599 1471.427,-724.5238"/>
<polygon fill="#444444" fill-opacity="0.333333" stroke="#444444" stroke-opacity="0.333333" points="1474.2974,-722.4969 1466.2504,-715.6051 1468.2433,-726.0108 1474.2974,-722.4969"/>
</g>
<!-- python3&#45;firewall&#45;&gt;python3&#45;gobject&#45;base -->
<g id="edge9" class="edge">
<title>python3&#45;firewall&#45;&gt;python3&#45;gobject&#45;base</title>
<path fill="none" stroke="#444444" stroke-opacity="0.333333" d="M1561.0092,-867.8382C1584.6223,-893.2131 1627.4542,-939.2407 1654.3078,-968.0978"/>
<polygon fill="#444444" fill-opacity="0.333333" stroke="#444444" stroke-opacity="0.333333" points="1652.0543,-970.8139 1661.4289,-975.7502 1657.1788,-966.0452 1652.0543,-970.8139"/>
</g>
<!-- python3&#45;firewall&#45;&gt;python3&#45;slip&#45;dbus -->
<g id="edge10" class="edge">
<title>python3&#45;firewall&#45;&gt;python3&#45;slip&#45;dbus</title>
<path fill="none" stroke="#444444" stroke-opacity="0.333333" d="M1449.6319,-831.553C1447.0207,-831.0547 1444.4018,-830.555 1441.7818,-830.0551"/>
<polygon fill="#444444" fill-opacity="0.333333" stroke="#444444" stroke-opacity="0.333333" points="1442.164,-826.5649 1431.6852,-828.1285 1440.8519,-833.4409 1442.164,-826.5649"/>
</g>
<!-- python3&#45;dbus&#45;&gt;dbus&#45;glib -->
<g id="edge11" class="edge">
<title>python3&#45;dbus&#45;&gt;dbus&#45;glib</title>
<path fill="none" stroke="#444444" stroke-opacity="0.333333" d="M1384.907,-1004.287C1373.1386,-1035.9159 1348.8922,-1101.0807 1335.0276,-1138.3433"/>
<polygon fill="#444444" fill-opacity="0.333333" stroke="#444444" stroke-opacity="0.333333" points="1331.6184,-1137.4696 1331.4114,-1148.0624 1338.179,-1139.9106 1331.6184,-1137.4696"/>
</g>
<!-- python3&#45;slip&#45;dbus&#45;&gt;python3&#45;dbus -->
<g id="edge12" class="edge">
<title>python3&#45;slip&#45;dbus&#45;&gt;python3&#45;dbus</title>
<path fill="none" stroke="#444444" stroke-opacity="0.333333" d="M1342.7375,-828.247C1352.285,-859.0139 1371.6978,-921.5724 1383.0004,-957.9953"/>
<polygon fill="#444444" fill-opacity="0.333333" stroke="#444444" stroke-opacity="0.333333" points="1379.7866,-959.4484 1386.0932,-967.9618 1386.4721,-957.3737 1379.7866,-959.4484"/>
</g>
<!-- python3&#45;slip&#45;dbus&#45;&gt;python3&#45;decorator -->
<g id="edge13" class="edge">
<title>python3&#45;slip&#45;dbus&#45;&gt;python3&#45;decorator</title>
<path fill="none" stroke="#444444" stroke-opacity="0.333333" d="M1356.1712,-792.0081C1375.9857,-773.2319 1407.1412,-743.709 1429.3335,-722.6796"/>
<polygon fill="#444444" fill-opacity="0.333333" stroke="#444444" stroke-opacity="0.333333" points="1431.9248,-725.0459 1436.7761,-715.627 1427.11,-719.9648 1431.9248,-725.0459"/>
</g>
<!-- python3&#45;slip&#45;dbus&#45;&gt;python3&#45;slip -->
<g id="edge14" class="edge">
<title>python3&#45;slip&#45;dbus&#45;&gt;python3&#45;slip</title>
<path fill="none" stroke="#444444" stroke-opacity="0.333333" d="M1291.814,-792.0406C1260.8764,-779.7169 1219.7022,-763.3154 1186.8819,-750.2416"/>
<polygon fill="#444444" fill-opacity="0.333333" stroke="#444444" stroke-opacity="0.333333" points="1188.0099,-746.9236 1177.4246,-746.4744 1185.4194,-753.4266 1188.0099,-746.9236"/>
</g>
<!-- python3&#45;slip&#45;&gt;libselinux&#45;python3 -->
<g id="edge40" class="edge">
<title>python3&#45;slip&#45;&gt;libselinux&#45;python3</title>
<path fill="none" stroke="#444444" stroke-opacity="0.333333" d="M1087.145,-710.2056C1065.7117,-701.5209 1039.8674,-691.049 1017.3402,-681.9211"/>
<polygon fill="#444444" fill-opacity="0.333333" stroke="#444444" stroke-opacity="0.333333" points="1018.4937,-678.6121 1007.9112,-678.1005 1015.8649,-685.0998 1018.4937,-678.6121"/>
</g>
<!-- libmodman&#45;&gt;curl&#45;minimal -->
<g id="edge15" class="edge">
<title>libmodman&#45;&gt;curl&#45;minimal</title>
<path fill="none" stroke="#444444" stroke-opacity="0.333333" d="M822.415,-1107.8508C801.8413,-1080.7909 763.1323,-1029.8783 739.4504,-998.7304"/>
<polygon fill="#444444" fill-opacity="0.333333" stroke="#444444" stroke-opacity="0.333333" points="742.0355,-996.3476 733.1969,-990.5055 736.4631,-1000.5843 742.0355,-996.3476"/>
</g>
<!-- libproxy&#45;&gt;libmodman -->
<g id="edge16" class="edge">
<title>libproxy&#45;&gt;libmodman</title>
<path fill="none" stroke="#444444" stroke-opacity="0.333333" d="M915.5103,-1213.2233C900.0351,-1196.2043 876.8717,-1170.7302 859.5838,-1151.7176"/>
<polygon fill="#444444" fill-opacity="0.333333" stroke="#444444" stroke-opacity="0.333333" points="862.1254,-1149.3102 852.8082,-1144.2661 856.9463,-1154.0195 862.1254,-1149.3102"/>
</g>
<!-- libpsl&#45;&gt;publicsuffix&#45;list&#45;dafsa -->
<g id="edge17" class="edge">
<title>libpsl&#45;&gt;publicsuffix&#45;list&#45;dafsa</title>
<path fill="none" stroke="#444444" stroke-opacity="0.333333" d="M355.5826,-654.0241C339.9304,-673.0784 315.2045,-703.1786 297.5178,-724.7095"/>
<polygon fill="#444444" fill-opacity="0.333333" stroke="#444444" stroke-opacity="0.333333" points="294.7605,-722.5522 291.1175,-732.501 300.1695,-726.9955 294.7605,-722.5522"/>
</g>
<!-- libteam&#45;&gt;libnl3&#45;cli -->
<g id="edge18" class="edge">
<title>libteam&#45;&gt;libnl3&#45;cli</title>
<path fill="none" stroke="#444444" stroke-opacity="0.333333" d="M55.027,-125.3892C57.8928,-117.8636 61.2797,-108.9698 64.4429,-100.6632"/>
<polygon fill="#444444" fill-opacity="0.333333" stroke="#444444" stroke-opacity="0.333333" points="67.7209,-101.8897 68.0089,-91.2988 61.1792,-99.3985 67.7209,-101.8897"/>
</g>
<!-- mariadb&#45;common&#45;&gt;mariadb&#45;config -->
<g id="edge19" class="edge">
<title>mariadb&#45;common&#45;&gt;mariadb&#45;config</title>
<path fill="none" stroke="#444444" stroke-opacity="0.333333" d="M1123.9177,-1359.0521C1124.0696,-1359.052 1124.2216,-1359.0519 1124.3735,-1359.0518"/>
<polygon fill="#444444" fill-opacity="0.333333" stroke="#444444" stroke-opacity="0.333333" points="1121.2155,-1362.5537 1131.2135,-1359.048 1121.2115,-1355.5537 1121.2155,-1362.5537"/>
</g>
<!-- mariadb&#45;libs&#45;&gt;mariadb&#45;common -->
<g id="edge20" class="edge">
<title>mariadb&#45;libs&#45;&gt;mariadb&#45;common</title>
<path fill="none" stroke="#444444" stroke-opacity="0.333333" d="M899.472,-1359.1646C913.025,-1359.1583 927.3109,-1359.1516 941.3509,-1359.145"/>
<polygon fill="#444444" fill-opacity="0.333333" stroke="#444444" stroke-opacity="0.333333" points="941.5184,-1362.6451 951.5167,-1359.1403 941.5151,-1355.6451 941.5184,-1362.6451"/>
</g>
<!-- net&#45;snmp&#45;agent&#45;libs&#45;&gt;mariadb&#45;libs -->
<g id="edge21" class="edge">
<title>net&#45;snmp&#45;agent&#45;libs&#45;&gt;mariadb&#45;libs</title>
<path fill="none" stroke="#444444" stroke-opacity="0.333333" d="M706.3548,-1320.0984C723.3416,-1325.7597 742.2413,-1332.0585 759.8228,-1337.918"/>
<polygon fill="#444444" fill-opacity="0.333333" stroke="#444444" stroke-opacity="0.333333" points="758.8405,-1341.2798 769.4341,-1341.1212 761.0538,-1334.6389 758.8405,-1341.2798"/>
</g>
<!-- net&#45;snmp&#45;agent&#45;libs&#45;&gt;net&#45;snmp&#45;libs -->
<g id="edge22" class="edge">
<title>net&#45;snmp&#45;agent&#45;libs&#45;&gt;net&#45;snmp&#45;libs</title>
<path fill="none" stroke="#444444" stroke-opacity="0.333333" d="M606.2639,-1320.0642C592.8055,-1325.374 577.9388,-1331.2395 563.9497,-1336.7587"/>
<polygon fill="#444444" fill-opacity="0.333333" stroke="#444444" stroke-opacity="0.333333" points="562.4508,-1333.5874 554.4331,-1340.5133 565.0199,-1340.0989 562.4508,-1333.5874"/>
</g>
<!-- net&#45;snmp&#45;&gt;mariadb&#45;libs -->
<g id="edge23" class="edge">
<title>net&#45;snmp&#45;&gt;mariadb&#45;libs</title>
<path fill="none" stroke="#444444" stroke-opacity="0.333333" d="M706.0066,-1399.1664C723.355,-1393.2742 742.789,-1386.6737 760.7873,-1380.5608"/>
<polygon fill="#444444" fill-opacity="0.333333" stroke="#444444" stroke-opacity="0.333333" points="762.2731,-1383.7526 770.6162,-1377.2225 760.0219,-1377.1244 762.2731,-1383.7526"/>
</g>
<!-- net&#45;snmp&#45;&gt;net&#45;snmp&#45;agent&#45;libs -->
<g id="edge24" class="edge">
<title>net&#45;snmp&#45;&gt;net&#45;snmp&#45;agent&#45;libs</title>
<path fill="none" stroke="#444444" stroke-opacity="0.333333" d="M652.7756,-1399.2C652.6382,-1380.7941 652.4228,-1351.932 652.2623,-1330.4337"/>
<polygon fill="#444444" fill-opacity="0.333333" stroke="#444444" stroke-opacity="0.333333" points="655.7609,-1330.2273 652.1863,-1320.2538 648.7611,-1330.2797 655.7609,-1330.2273"/>
</g>
<!-- net&#45;snmp&#45;&gt;net&#45;snmp&#45;libs -->
<g id="edge25" class="edge">
<title>net&#45;snmp&#45;&gt;net&#45;snmp&#45;libs</title>
<path fill="none" stroke="#444444" stroke-opacity="0.333333" d="M608.4316,-1399.1399C594.0284,-1393.2916 577.891,-1386.7391 562.8591,-1380.6355"/>
<polygon fill="#444444" fill-opacity="0.333333" stroke="#444444" stroke-opacity="0.333333" points="563.752,-1377.2206 553.1699,-1376.7013 561.1185,-1383.7064 563.752,-1377.2206"/>
</g>
<!-- NetworkManager&#45;&gt;libcurl&#45;minimal -->
<g id="edge26" class="edge">
<title>NetworkManager&#45;&gt;libcurl&#45;minimal</title>
<path fill="none" stroke="#444444" stroke-opacity="0.333333" d="M500.3904,-513.6643C514.3502,-563.6631 553.4829,-703.8213 570.3361,-764.1829"/>
<polygon fill="#444444" fill-opacity="0.333333" stroke="#444444" stroke-opacity="0.333333" points="567.0602,-765.4653 573.1205,-774.1557 573.8024,-763.5828 567.0602,-765.4653"/>
</g>
<!-- NetworkManager&#45;&gt;libpsl -->
<g id="edge27" class="edge">
<title>NetworkManager&#45;&gt;libpsl</title>
<path fill="none" stroke="#444444" stroke-opacity="0.333333" d="M479.2688,-513.5945C457.5766,-537.9789 418.7694,-581.6025 393.8573,-609.6064"/>
<polygon fill="#444444" fill-opacity="0.333333" stroke="#444444" stroke-opacity="0.333333" points="390.9475,-607.6114 386.9159,-617.4092 396.1775,-612.264 390.9475,-607.6114"/>
</g>
<!-- NetworkManager&#45;&gt;jansson -->
<g id="edge28" class="edge">
<title>NetworkManager&#45;&gt;jansson</title>
<path fill="none" stroke="#444444" stroke-opacity="0.333333" d="M474.2076,-477.3774C445.1529,-452.3939 392.7506,-407.3344 360.0847,-379.2459"/>
<polygon fill="#444444" fill-opacity="0.333333" stroke="#444444" stroke-opacity="0.333333" points="362.0956,-376.359 352.2313,-372.4929 357.5317,-381.6666 362.0956,-376.359"/>
</g>
<!-- NetworkManager&#45;&gt;libndp -->
<g id="edge29" class="edge">
<title>NetworkManager&#45;&gt;libndp</title>
<path fill="none" stroke="#444444" stroke-opacity="0.333333" d="M581.51,-506.7688C581.6633,-506.7888 581.8165,-506.8087 581.9695,-506.8287"/>
<polygon fill="#444444" fill-opacity="0.333333" stroke="#444444" stroke-opacity="0.333333" points="578.3859,-509.8912 588.7543,-507.7127 579.2904,-502.9499 578.3859,-509.8912"/>
</g>
<!-- NetworkManager&#45;&gt;NetworkManager&#45;libnm -->
<g id="edge30" class="edge">
<title>NetworkManager&#45;&gt;NetworkManager&#45;libnm</title>
<path fill="none" stroke="#444444" stroke-opacity="0.333333" d="M459.0126,-477.5103C451.3848,-473.7235 443.2475,-469.6838 435.3315,-465.754"/>
<polygon fill="#444444" fill-opacity="0.333333" stroke="#444444" stroke-opacity="0.333333" points="436.6977,-462.5247 426.1844,-461.2129 433.585,-468.7946 436.6977,-462.5247"/>
</g>
<!-- NetworkManager&#45;&gt;polkit&#45;libs -->
<g id="edge31" class="edge">
<title>NetworkManager&#45;&gt;polkit&#45;libs</title>
<path fill="none" stroke="#444444" stroke-opacity="0.333333" d="M532.4126,-477.4615C578.7313,-454.8802 657.977,-416.2463 708.1255,-391.7979"/>
<polygon fill="#444444" fill-opacity="0.333333" stroke="#444444" stroke-opacity="0.333333" points="709.6813,-394.9333 717.1362,-387.405 706.6137,-388.6412 709.6813,-394.9333"/>
</g>
<!-- NetworkManager&#45;libnm&#45;&gt;jansson -->
<g id="edge32" class="edge">
<title>NetworkManager&#45;libnm&#45;&gt;jansson</title>
<path fill="none" stroke="#444444" stroke-opacity="0.333333" d="M377.656,-424.7609C369.2704,-412.0631 357.9903,-394.9822 348.6441,-380.8299"/>
<polygon fill="#444444" fill-opacity="0.333333" stroke="#444444" stroke-opacity="0.333333" points="351.5493,-378.8777 343.1179,-372.4618 345.7081,-382.7352 351.5493,-378.8777"/>
</g>
<!-- NetworkManager&#45;team&#45;&gt;NetworkManager -->
<g id="edge33" class="edge">
<title>NetworkManager&#45;team&#45;&gt;NetworkManager</title>
<path fill="none" stroke="#444444" stroke-opacity="0.333333" d="M378.7559,-321.2405C401.5568,-355.332 450.9607,-429.1999 477.544,-468.9467"/>
<polygon fill="#444444" fill-opacity="0.333333" stroke="#444444" stroke-opacity="0.333333" points="474.6938,-470.9809 483.1625,-477.3474 480.5124,-467.0894 474.6938,-470.9809"/>
</g>
<!-- NetworkManager&#45;team&#45;&gt;jansson -->
<g id="edge34" class="edge">
<title>NetworkManager&#45;team&#45;&gt;jansson</title>
<path fill="none" stroke="#444444" stroke-opacity="0.333333" d="M354.0483,-321.3567C352.5851,-323.4718 351.071,-325.6605 349.5507,-327.8583"/>
<polygon fill="#444444" fill-opacity="0.333333" stroke="#444444" stroke-opacity="0.333333" points="346.5619,-326.0268 343.7511,-336.242 352.3187,-330.0092 346.5619,-326.0268"/>
</g>
<!-- NetworkManager&#45;team&#45;&gt;teamd -->
<g id="edge35" class="edge">
<title>NetworkManager&#45;team&#45;&gt;teamd</title>
<path fill="none" stroke="#444444" stroke-opacity="0.333333" d="M342.4598,-285.0356C314.536,-264.1367 268.4833,-229.6699 237.4793,-206.4659"/>
<polygon fill="#444444" fill-opacity="0.333333" stroke="#444444" stroke-opacity="0.333333" points="239.2645,-203.4303 229.1613,-200.2404 235.0702,-209.0345 239.2645,-203.4303"/>
</g>
<!-- teamd&#45;&gt;libteam -->
<g id="edge36" class="edge">
<title>teamd&#45;&gt;libteam</title>
<path fill="none" stroke="#444444" stroke-opacity="0.333333" d="M167.4708,-172.9595C149.0753,-168.4337 126.5224,-162.8851 105.9921,-157.8341"/>
<polygon fill="#444444" fill-opacity="0.333333" stroke="#444444" stroke-opacity="0.333333" points="106.6497,-154.3916 96.1031,-155.4011 104.9773,-161.1889 106.6497,-154.3916"/>
</g>
<!-- teamd&#45;&gt;libnl3&#45;cli -->
<g id="edge37" class="edge">
<title>teamd&#45;&gt;libnl3&#45;cli</title>
<path fill="none" stroke="#444444" stroke-opacity="0.333333" d="M183.5932,-164.162C161.9427,-145.9679 128.3719,-117.7567 104.2907,-97.52"/>
<polygon fill="#444444" fill-opacity="0.333333" stroke="#444444" stroke-opacity="0.333333" points="106.4262,-94.7428 96.5187,-90.9888 101.9227,-100.1019 106.4262,-94.7428"/>
</g>
<!-- teamd&#45;&gt;jansson -->
<g id="edge38" class="edge">
<title>teamd&#45;&gt;jansson</title>
<path fill="none" stroke="#444444" stroke-opacity="0.333333" d="M218.3287,-200.3119C240.6587,-230.7988 285.8628,-292.5153 311.7736,-327.891"/>
<polygon fill="#444444" fill-opacity="0.333333" stroke="#444444" stroke-opacity="0.333333" points="309.1871,-330.2829 317.9197,-336.2823 314.8343,-326.1466 309.1871,-330.2829"/>
</g>
<!-- teamd&#45;&gt;libdaemon -->
<g id="edge39" class="edge">
<title>teamd&#45;&gt;libdaemon</title>
<path fill="none" stroke="#444444" stroke-opacity="0.333333" d="M203.0128,-164.0092C199.7936,-135.5272 193.5396,-80.1947 189.723,-46.4268"/>
<polygon fill="#444444" fill-opacity="0.333333" stroke="#444444" stroke-opacity="0.333333" points="193.1774,-45.8259 188.5764,-36.2823 186.2217,-46.6121 193.1774,-45.8259"/>
</g>
<!-- realmd&#45;&gt;authconfig -->
<g id="edge41" class="edge">
<title>realmd&#45;&gt;authconfig</title>
<path fill="none" stroke="#444444" stroke-opacity="0.333333" d="M1026.9084,-244.3171C1060.8253,-230.2697 1108.2957,-210.6088 1144.5841,-195.5791"/>
<polygon fill="#444444" fill-opacity="0.333333" stroke="#444444" stroke-opacity="0.333333" points="1146.1273,-198.7284 1154.027,-191.6682 1143.4487,-192.2611 1146.1273,-198.7284"/>
</g>
<!-- realmd&#45;&gt;polkit&#45;libs -->
<g id="edge42" class="edge">
<title>realmd&#45;&gt;polkit&#45;libs</title>
<path fill="none" stroke="#444444" stroke-opacity="0.333333" d="M945.1858,-280.1989C905.8323,-298.5661 844.7751,-327.063 802.3191,-346.8783"/>
<polygon fill="#444444" fill-opacity="0.333333" stroke="#444444" stroke-opacity="0.333333" points="800.6043,-343.8161 793.0229,-351.2171 803.5648,-350.1593 800.6043,-343.8161"/>
</g>
<!-- xmlrpc&#45;c&#45;client&#45;&gt;libcurl&#45;minimal -->
<g id="edge43" class="edge">
<title>xmlrpc&#45;c&#45;client&#45;&gt;libcurl&#45;minimal</title>
<path fill="none" stroke="#444444" stroke-opacity="0.333333" d="M519.0995,-968.3864C530.5707,-934.2435 555.3191,-860.5822 568.8749,-820.2348"/>
<polygon fill="#444444" fill-opacity="0.333333" stroke="#444444" stroke-opacity="0.333333" points="572.2772,-821.0976 572.1444,-810.5036 565.6417,-818.8682 572.2772,-821.0976"/>
</g>
<!-- xmlrpc&#45;c&#45;client&#45;&gt;xmlrpc&#45;c -->
<g id="edge44" class="edge">
<title>xmlrpc&#45;c&#45;client&#45;&gt;xmlrpc&#45;c</title>
<path fill="none" stroke="#444444" stroke-opacity="0.333333" d="M507.3052,-1004.9272C499.2098,-1031.0784 484.2483,-1079.4094 474.7491,-1110.0954"/>
<polygon fill="#444444" fill-opacity="0.333333" stroke="#444444" stroke-opacity="0.333333" points="471.3686,-1109.1802 471.7549,-1119.768 478.0556,-1111.2503 471.3686,-1109.1802"/>
</g>
<!-- authconfig -->
<g id="node1" class="node">
<title>authconfig</title>
<text text-anchor="middle" x="1197.7" y="-169.88" font-family="monospace" font-size="14.00" fill="#000000">authconfig</text>
</g>
<!-- policycoreutils -->
<g id="node2" class="node">
<title>policycoreutils</title>
<text text-anchor="middle" x="1370.6" y="-197.45" font-family="monospace" font-size="14.00" fill="#000000">policycoreutils</text>
</g>
<!-- python3&#45;sssdconfig -->
<g id="node3" class="node">
<title>python3&#45;sssdconfig</title>
<text text-anchor="middle" x="1279" y="-41.557" font-family="monospace" font-size="14.00" fill="#000000">python3&#45;sssdconfig</text>
</g>
<!-- libselinux&#45;utils -->
<g id="node4" class="node">
<title>libselinux&#45;utils</title>
<text text-anchor="middle" x="1478.6" y="-269.68" font-family="monospace" font-size="14.00" fill="#000000">libselinux&#45;utils</text>
</g>
<!-- curl&#45;minimal -->
<g id="node5" class="node">
<title>curl&#45;minimal</title>
<text text-anchor="middle" x="719.34" y="-968.58" font-family="monospace" font-size="14.00" fill="#000000">curl&#45;minimal</text>
</g>
<!-- libcurl&#45;minimal -->
<g id="node6" class="node">
<title>libcurl&#45;minimal</title>
<text text-anchor="middle" x="578.22" y="-788.72" font-family="monospace" font-size="14.00" fill="#000000">libcurl&#45;minimal</text>
</g>
<!-- firewalld -->
<g id="node7" class="node">
<title>firewalld</title>
<text text-anchor="middle" x="1747.5" y="-738.98" font-family="monospace" font-size="14.00" fill="#000000">firewalld</text>
</g>
<!-- firewalld&#45;filesystem -->
<g id="node8" class="node">
<title>firewalld&#45;filesystem</title>
<text text-anchor="middle" x="1913.5" y="-656.67" font-family="monospace" font-size="14.00" fill="#000000">firewalld&#45;filesystem</text>
</g>
<!-- python3&#45;firewall -->
<g id="node9" class="node">
<title>python3&#45;firewall</title>
<text text-anchor="middle" x="1544" y="-845.86" font-family="monospace" font-size="14.00" fill="#000000">python3&#45;firewall</text>
</g>
<!-- python3&#45;dbus -->
<g id="node10" class="node">
<title>python3&#45;dbus</title>
<text text-anchor="middle" x="1391.7" y="-982.33" font-family="monospace" font-size="14.00" fill="#000000">python3&#45;dbus</text>
</g>
<!-- python3&#45;decorator -->
<g id="node11" class="node">
<title>python3&#45;decorator</title>
<text text-anchor="middle" x="1455.8" y="-693.9" font-family="monospace" font-size="14.00" fill="#000000">python3&#45;decorator</text>
</g>
<!-- python3&#45;gobject&#45;base -->
<g id="node12" class="node">
<title>python3&#45;gobject&#45;base</title>
<text text-anchor="middle" x="1678.3" y="-990.18" font-family="monospace" font-size="14.00" fill="#000000">python3&#45;gobject&#45;base</text>
</g>
<!-- python3&#45;slip&#45;dbus -->
<g id="node13" class="node">
<title>python3&#45;slip&#45;dbus</title>
<text text-anchor="middle" x="1337.1" y="-806.38" font-family="monospace" font-size="14.00" fill="#000000">python3&#45;slip&#45;dbus</text>
</g>
<!-- dbus&#45;glib -->
<g id="node14" class="node">
<title>dbus&#45;glib</title>
<text text-anchor="middle" x="1324.7" y="-1162.4" font-family="monospace" font-size="14.00" fill="#000000">dbus&#45;glib</text>
</g>
<!-- python3&#45;slip -->
<g id="node15" class="node">
<title>python3&#45;slip</title>
<text text-anchor="middle" x="1131.9" y="-724.64" font-family="monospace" font-size="14.00" fill="#000000">python3&#45;slip</text>
</g>
<!-- libmodman -->
<g id="node16" class="node">
<title>libmodman</title>
<text text-anchor="middle" x="836.29" y="-1122.4" font-family="monospace" font-size="14.00" fill="#000000">libmodman</text>
</g>
<!-- libproxy -->
<g id="node17" class="node">
<title>libproxy</title>
<text text-anchor="middle" x="932.22" y="-1227.9" font-family="monospace" font-size="14.00" fill="#000000">libproxy</text>
</g>
<!-- libpsl -->
<g id="node18" class="node">
<title>libpsl</title>
<text text-anchor="middle" x="370.52" y="-632.14" font-family="monospace" font-size="14.00" fill="#000000">libpsl</text>
</g>
<!-- publicsuffix&#45;list&#45;dafsa -->
<g id="node19" class="node">
<title>publicsuffix&#45;list&#45;dafsa</title>
<text text-anchor="middle" x="276.25" y="-746.9" font-family="monospace" font-size="14.00" fill="#000000">publicsuffix&#45;list&#45;dafsa</text>
</g>
<!-- libteam -->
<g id="node20" class="node">
<title>libteam</title>
<text text-anchor="middle" x="48.096" y="-139.89" font-family="monospace" font-size="14.00" fill="#000000">libteam</text>
</g>
<!-- libnl3&#45;cli -->
<g id="node21" class="node">
<title>libnl3&#45;cli</title>
<text text-anchor="middle" x="75.01" y="-69.214" font-family="monospace" font-size="14.00" fill="#000000">libnl3&#45;cli</text>
</g>
<!-- mariadb&#45;common -->
<g id="node22" class="node">
<title>mariadb&#45;common</title>
<text text-anchor="middle" x="1037.8" y="-1355.4" font-family="monospace" font-size="14.00" fill="#000000">mariadb&#45;common</text>
</g>
<!-- mariadb&#45;config -->
<g id="node23" class="node">
<title>mariadb&#45;config</title>
<text text-anchor="middle" x="1217.4" y="-1355.3" font-family="monospace" font-size="14.00" fill="#000000">mariadb&#45;config</text>
</g>
<!-- mariadb&#45;libs -->
<g id="node24" class="node">
<title>mariadb&#45;libs</title>
<text text-anchor="middle" x="823.68" y="-1355.5" font-family="monospace" font-size="14.00" fill="#000000">mariadb&#45;libs</text>
</g>
<!-- net&#45;snmp&#45;agent&#45;libs -->
<g id="node25" class="node">
<title>net&#45;snmp&#45;agent&#45;libs</title>
<text text-anchor="middle" x="652.05" y="-1298.3" font-family="monospace" font-size="14.00" fill="#000000">net&#45;snmp&#45;agent&#45;libs</text>
</g>
<!-- net&#45;snmp&#45;libs -->
<g id="node26" class="node">
<title>net&#45;snmp&#45;libs</title>
<text text-anchor="middle" x="508.59" y="-1354.9" font-family="monospace" font-size="14.00" fill="#000000">net&#45;snmp&#45;libs</text>
</g>
<!-- net&#45;snmp -->
<g id="node27" class="node">
<title>net&#45;snmp</title>
<text text-anchor="middle" x="652.91" y="-1413.5" font-family="monospace" font-size="14.00" fill="#000000">net&#45;snmp</text>
</g>
<!-- NetworkManager -->
<g id="node28" class="node">
<title>NetworkManager</title>
<text text-anchor="middle" x="495.33" y="-491.84" font-family="monospace" font-size="14.00" fill="#000000">NetworkManager</text>
</g>
<!-- jansson -->
<g id="node29" class="node">
<title>jansson</title>
<text text-anchor="middle" x="331.19" y="-350.7" font-family="monospace" font-size="14.00" fill="#000000">jansson</text>
</g>
<!-- libndp -->
<g id="node30" class="node">
<title>libndp</title>
<text text-anchor="middle" x="632.02" y="-509.65" font-family="monospace" font-size="14.00" fill="#000000">libndp</text>
</g>
<!-- NetworkManager&#45;libnm -->
<g id="node31" class="node">
<title>NetworkManager&#45;libnm</title>
<text text-anchor="middle" x="389.8" y="-439.45" font-family="monospace" font-size="14.00" fill="#000000">NetworkManager&#45;libnm</text>
</g>
<!-- polkit&#45;libs -->
<g id="node32" class="node">
<title>polkit&#45;libs</title>
<text text-anchor="middle" x="754.15" y="-365.66" font-family="monospace" font-size="14.00" fill="#000000">polkit&#45;libs</text>
</g>
<!-- NetworkManager&#45;team -->
<g id="node33" class="node">
<title>NetworkManager&#45;team</title>
<text text-anchor="middle" x="366.65" y="-299.44" font-family="monospace" font-size="14.00" fill="#000000">NetworkManager&#45;team</text>
</g>
<!-- teamd -->
<g id="node34" class="node">
<title>teamd</title>
<text text-anchor="middle" x="205.07" y="-178.51" font-family="monospace" font-size="14.00" fill="#000000">teamd</text>
</g>
<!-- libdaemon -->
<g id="node35" class="node">
<title>libdaemon</title>
<text text-anchor="middle" x="186.51" y="-14.3" font-family="monospace" font-size="14.00" fill="#000000">libdaemon</text>
</g>
<!-- libselinux&#45;python3 -->
<g id="node36" class="node">
<title>libselinux&#45;python3</title>
<text text-anchor="middle" x="963.24" y="-656.3" font-family="monospace" font-size="14.00" fill="#000000">libselinux&#45;python3</text>
</g>
<!-- realmd -->
<g id="node37" class="node">
<title>realmd</title>
<text text-anchor="middle" x="983.9" y="-258.43" font-family="monospace" font-size="14.00" fill="#000000">realmd</text>
</g>
<!-- xmlrpc&#45;c&#45;client -->
<g id="node38" class="node">
<title>xmlrpc&#45;c&#45;client</title>
<text text-anchor="middle" x="512.96" y="-982.96" font-family="monospace" font-size="14.00" fill="#000000">xmlrpc&#45;c&#45;client</text>
</g>
<!-- xmlrpc&#45;c -->
<g id="node39" class="node">
<title>xmlrpc&#45;c</title>
<text text-anchor="middle" x="466.08" y="-1134.4" font-family="monospace" font-size="14.00" fill="#000000">xmlrpc&#45;c</text>
</g>
</g>
</svg>
