<?xml version="1.0" encoding="UTF-8" standalone="no"?>
<!DOCTYPE svg PUBLIC "-//W3C//DTD SVG 1.1//EN"
 "http://www.w3.org/Graphics/SVG/1.1/DTD/svg11.dtd">
<!-- Generated by graphviz version 2.40.1 (20161225.0304)
 -->
<!-- Title: G Pages: 1 -->
<svg width="1561pt" height="1183pt"
 viewBox="0.00 0.00 1561.19 1183.13" xmlns="http://www.w3.org/2000/svg" xmlns:xlink="http://www.w3.org/1999/xlink">
<g id="graph0" class="graph" transform="scale(1 1) rotate(0) translate(76.7224 1076.8622)">
<title>G</title>
<polygon fill="#dae2ff" stroke="transparent" points="-76.7224,106.2683 -76.7224,-1076.8622 1484.465,-1076.8622 1484.465,106.2683 -76.7224,106.2683"/>
<polygon fill="#ccebc5" stroke="#ccebc5" points="808.6157,-150.2086 792.8935,-151.2689 788.3845,-151.6761 701.1209,-71.4105 698.1216,-60.9041 698.3279,-58.1358 700.9488,1.6126 700.465,27.3129 702.9163,40.5504 739.7045,74.3501 755.6024,85.9913 803.6328,89.3857 818.0193,91.2351 819.0399,91.4548 822.7639,92.3667 838.2094,88.2968 846.3682,86.3989 849.783,85.9178 865.5995,84.1683 875.6372,83.6723 884.6493,83.5028 902.4626,84.802 936.9982,89.4237 951.7464,85.7765 997.4916,95.8594 999.6435,95.4837 1009.3568,94.0666 1020.2955,93.1006 1030.1755,92.7974 1044.2671,92.7716 1044.4194,92.7757 1056.8589,93.8282 1059.6481,94.1443 1096.774,99.4217 1126.2098,83.3738 1195.3868,90.397 1204.6597,91.9197 1207.3523,92.4463 1217.4314,94.7357 1224.5004,91.9051 1272.7072,77.524 1319.626,44.3074 1337.0176,28.5777 1335.8916,-18 1339.121,-69.578 1302.6582,-86.021 1286.3469,-92.7418 1282.4646,-94.183 1278.9965,-95.3305 1267.8551,-98.1371 1256.8031,-100.4808 1233.8967,-103.5042 1231.7217,-103.8806 1218.5637,-100.5382 1212.944,-99.6004 1202.3884,-98.295 1201.8838,-98.2546 1192.173,-97.8963 1188.3573,-97.5926 1177.9894,-97.2199 1177.9331,-97.2155 1169.1693,-96.1562 1159.4366,-94.5668 1155.3945,-93.737 1152.1615,-92.9372 1148.7939,-91.9612 1137.2969,-88.1354 1126.2122,-83.9814 1126.2115,-40.7231 1060.0833,-23.0134 1058.0645,-20.4819 1053.8098,-18.8784 1052.8301,-18.0487 1049.0968,-18.0487 1048.7512,-17.9355 1048.7512,-17.9355 1049.0968,-18.0487 1052.8301,-18.0487 1053.8098,-18.8784 1058.0645,-20.4819 1060.0833,-23.0134 1126.2115,-40.7231 1126.2122,-83.9814 1059.1997,-118.7719 1058.5439,-119.1393 1044.9315,-127.3448 1039.0996,-131.3416 1021.8725,-143.8731 1020.2614,-145.173 1003.2748,-160.3235 1002.8167,-160.7696 990.1509,-172.5619 951.7417,-154.6645 951.7446,-18.002 967.5876,-18.002 967.5876,-18.002 951.7446,-18.002 951.7417,-154.6645 898.924,-150.2124 890.4755,-149.8885 890.1928,-149.8907 874.4566,-149.635 867.5044,-149.8421 867.2115,-149.8576 862.1868,-149.7636 858.715,-149.8582 853.2784,-149.8769 844.3601,-149.6949 843.858,-149.6962 842.7519,-149.7499 840.7115,-149.8004 840.3245,-149.8189 827.0285,-149.8201 823.4572,-149.985 821.1051,-150.0373 816.9187,-150.0307 808.6157,-150.2086 808.6157,-150.2086"/>
<polygon fill="#cbc5d1" stroke="#cbc5d1" points="-24.5653,-610.8293 -65.7688,-652.5582 -68.6906,-655.3571 -72.7224,-668.9777 -63.9203,-702.1492 -60.8505,-715.2062 -57.6974,-730.6147 2.671,-796.829 2.9236,-797.574 7.8404,-813.6486 58.7061,-859.0326 81.625,-868.4258 107.9624,-867.1474 109.8849,-867.1089 118.562,-867.1827 122.9903,-867.3466 135.5701,-868.5323 135.2728,-758.3735 140.5879,-761.6196 146.8419,-761.6196 146.8419,-761.6196 140.5879,-761.6196 135.2728,-758.3735 135.5701,-868.5323 147.6972,-870.0219 158.2699,-872.2253 159.2298,-872.4528 169.8304,-873.3063 171.6735,-872.7886 173.7073,-872.2762 176.9849,-871.6368 181.5004,-762.3901 236.0296,-775.1202 236.1451,-774.6211 237.25,-773.7458 244.0915,-766.8846 247.8922,-763.5502 254.8238,-758.299 256.1567,-757.4515 260.5764,-716.5182 265.6343,-718.1583 271.7705,-716.0537 274.796,-712.8672 272.4148,-710.5201 272.4148,-710.5201 274.796,-712.8672 271.7705,-716.0537 265.6343,-718.1583 260.5764,-716.5182 256.1567,-757.4515 254.8238,-758.299 247.8922,-763.5502 244.0915,-766.8846 237.25,-773.7458 236.1451,-774.6211 236.0296,-775.1202 181.5004,-762.3901 176.9849,-871.6368 216.8593,-864.9807 278.216,-889.2086 295.2105,-885.3903 303.7006,-884.0005 310.5276,-883.0909 314.3959,-882.6935 318.3414,-882.4082 335.5104,-882.2101 337.2563,-882.2963 342.4828,-785.5165 347.3744,-785.5165 347.3744,-785.5165 342.4828,-785.5165 337.2563,-882.2963 356.5085,-883.8359 359.2386,-884.2193 361.2027,-884.5549 366.0592,-885.5332 379.4771,-888.6486 381.326,-889.1337 381.616,-781.0351 380.5577,-780.6935 376.2617,-780.6935 374.45,-724.9626 372.9594,-725.0007 365.4392,-724.7403 365.27,-697.8788 369.1399,-669.0275 368.8055,-668.9208 368.8055,-668.9208 369.1399,-669.0275 365.27,-697.8788 365.4392,-724.7403 372.9594,-725.0007 374.45,-724.9626 376.1745,-724.8147 377.0702,-724.7918 384.9093,-725.0627 387.9054,-724.8063 395.9759,-725.0846 396.6215,-725.0294 395.9712,-669.9455 401.2653,-673.2009 407.7458,-673.2009 412.3123,-670.3969 413.4821,-668.8824 418.7979,-668.8824 417.214,-726.0494 418.8204,-726.3925 431.8335,-729.972 440.0264,-732.7118 439.7667,-724.7879 439.7667,-724.7879 440.0264,-732.7118 431.8335,-729.972 418.8204,-726.3925 417.214,-726.0494 418.7979,-668.8824 413.4821,-668.8824 412.3123,-670.3969 407.7458,-673.2009 401.2653,-673.2009 395.9712,-669.9455 396.6215,-725.0294 395.9759,-725.0846 387.9054,-724.8063 384.9093,-725.0627 377.0702,-724.7918 376.1745,-724.8147 374.45,-724.9626 376.2617,-780.6935 380.5577,-780.6935 381.616,-781.0351 381.326,-889.1337 388.0929,-891.1152 390.8894,-892.019 397.741,-894.4431 399.2829,-895.0357 515.597,-859.0208 519.1744,-827.004 521.5273,-789.2824 517.6681,-780.85 517.1224,-779.3646 528.1665,-704.9347 528.6465,-700.4091 529.4984,-686.9597 531.9088,-664.5563 532.2203,-659.6145 534.3182,-645.476 571.4499,-633.3602 577.4178,-631.7462 577.4521,-629.9507 575.3066,-569.3571 573.2674,-570.3328 569.8183,-574.3712 517.1105,-584.5065 514.9308,-586.8856 510.7893,-591.9254 510.6734,-524.9883 504.7287,-524.9883 504.2693,-524.8451 499.8287,-524.8451 499.2126,-525.0358 493.7113,-525.0358 493.6427,-525.0145 488.8089,-525.0145 488.5078,-525.3854 482.441,-529.2797 476.612,-529.2797 476.612,-529.2797 482.441,-529.2797 488.5078,-525.3854 488.8089,-525.0145 493.6427,-525.0145 493.7113,-525.0358 499.2126,-525.0358 499.8287,-524.8451 504.2693,-524.8451 504.7287,-524.9883 510.6734,-524.9883 510.7893,-591.9254 514.9308,-586.8856 517.1105,-584.5065 523.5388,-576.5737 523.5388,-576.5737 517.1105,-584.5065 569.8183,-574.3712 573.2674,-570.3328 575.3066,-569.3571 577.4521,-629.9507 577.4178,-631.7462 589.6347,-629.7897 602.1057,-629.1752 602.859,-629.1798 603.9918,-629.2495 604.7175,-629.2545 611.6656,-628.9205 618.6997,-629.3646 618.7961,-629.3761 628.8439,-629.4641 630.3651,-629.394 632.2716,-629.2015 632.304,-621.1041 632.249,-620.2164 632.249,-620.2164 632.304,-621.1041 632.2716,-629.2015 637.3533,-629.5347 642.4341,-629.5888 645.1574,-629.4683 648.9041,-629.0955 653.4583,-629.1497 653.9534,-629.1285 663.3042,-629.246 668.4291,-628.7483 681.661,-626.7325 683.3365,-626.387 696.1094,-622.3432 698.2673,-621.5438 705.4886,-618.4714 708.5989,-616.979 716.4612,-612.7708 719.5208,-584.7072 719.5992,-577.8139 719.2697,-569.01 727.3651,-494.7581 653.7235,-432.1541 648.6293,-427.4176 643.0153,-422.4313 630.5983,-410.4481 628.8175,-406.1677 616.6791,-402.2906 592.4568,-414.16 562.1017,-414.16 562.1017,-414.16 592.4568,-414.16 616.6791,-402.2906 591.4091,-378.9765 476.4518,-288.7772 467.0067,-298.1174 454.4814,-309.2281 447.7813,-314.8184 434.0951,-324.8206 433.148,-325.413 420.6774,-332.5959 409.9572,-338.2103 393.9833,-344.0871 357.0627,-355.7078 344.2794,-361.051 318.8079,-405.924 300.3614,-433.1742 279.5562,-461.8998 258.3116,-494.381 264.7271,-520.3082 242.2325,-553.6786 232.0309,-560.5766 207.9693,-576.1234 127.5037,-586.799 122.887,-587.2698 116.2892,-587.7404 109.4182,-588.0191 96.1451,-588.1489 92.1606,-587.9429 90.812,-587.8317 78.6211,-586.4499 77.7862,-586.3038 62.4568,-586.8912 45.4362,-585.9936 20.4347,-583.1633 -24.5653,-610.8293 -24.5653,-610.8293"/>
<polygon fill="#e8cfd0" stroke="#e8cfd0" points="316.8529,-285.8309 312.1314,-288.7367 306.0979,-288.7367 306.4867,-318.7908 303.6735,-317.0951 277.3053,-326.3497 274.6671,-329.7579 272.8545,-330.7952 271.4825,-330.7952 270.6147,-331.0742 266.8476,-331.0742 261.2891,-378.7552 257.1346,-478.3538 256.8348,-492.8098 258.3116,-494.381 279.5562,-461.8998 300.3614,-433.1742 318.8079,-405.924 344.2794,-361.051 357.0627,-355.7078 393.9833,-344.0871 409.9572,-338.2103 420.6774,-332.5959 433.148,-325.413 434.0951,-324.8206 447.7813,-314.8184 454.4814,-309.2281 467.0067,-298.1174 476.4518,-288.7772 475.7111,-284.32 469.9435,-218.2315 431.2815,-160.7662 430.6778,-152.5643 473.2433,-82.9429 479.0501,-18.5231 479.1452,-17.7412 482.2545,-.9516 479.3235,28.1954 476.5617,34.9456 434.8864,74.2198 390.5021,91.4987 388.8696,91.4089 370.445,90.9143 371.3701,9.0216 367.4587,-17.9626 364.3856,-17.9626 364.3856,-17.9626 367.4587,-17.9626 371.3701,9.0216 370.445,90.9143 357.7973,91.2903 352.7427,91.8696 340.3575,91.5976 333.9193,91.6368 333.4166,91.668 332.9966,91.7059 316.362,93.6755 307.145,95.0249 301.6614,96.1341 293.7333,97.96 279.9038,101.9225 278.8937,102.2683 277.438,101.6499 262.5817,95.7807 193.7655,70.7124 157.1487,11.8416 146.5582,2.1793 134.836,-69.7722 114.4633,-96.2177 99.0623,-147.747 97.4438,-155.9229 95.5097,-163.3376 81.7524,-188.3256 83.8261,-203.7996 86.5253,-229.7776 88.6067,-278.6238 100.3296,-296.4348 187.7851,-277.6357 188.0366,-227.6339 193.5483,-223.4339 194.6831,-276.579 201.6246,-275.9457 201.7236,-268.0175 201.7236,-268.0175 201.6246,-275.9457 209.1139,-276.1878 209.7731,-276.1674 210.8801,-221.3876 215.5801,-221.3876 219.502,-264.868 222.6854,-221.1892 226.8921,-221.1892 228.2826,-222.9282 233.0893,-225.7975 233.0893,-225.7975 228.2826,-222.9282 226.8921,-221.1892 222.6854,-221.1892 219.502,-264.868 215.5801,-221.3876 210.8801,-221.3876 209.7731,-276.1674 209.1139,-276.1878 201.6246,-275.9457 194.6831,-276.579 193.5483,-223.4339 188.0366,-227.6339 187.7851,-277.6357 100.3296,-296.4348 102.7218,-314.5583 105.2173,-338.9888 106.8276,-377.7742 142.4324,-409.7666 203.0463,-449.1537 215.8986,-457.9995 225.1817,-464.7312 225.3824,-464.8914 241.4931,-478.3802 245.0156,-481.5897 256.8348,-492.8098 257.1346,-478.3538 261.2891,-378.7552 266.8476,-331.0742 270.6147,-331.0742 271.4825,-330.7952 272.8545,-330.7952 274.6671,-329.7579 277.3053,-326.3497 303.6735,-317.0951 306.4867,-318.7908 306.0979,-288.7367 312.1314,-288.7367 316.8529,-285.8309 320.3268,-326.2705 320.3267,-331.1683 325.726,-338.011 329.1832,-341.8246 333.1868,-346.7977 333.2191,-346.8425 341.955,-357.6046 342.714,-311.386 347.3267,-284.7241 349.4482,-284.7241 349.4482,-284.7241 347.3267,-284.7241 342.714,-311.386 341.955,-357.6046 333.2191,-346.8425 333.1868,-346.7977 329.1832,-341.8246 325.726,-338.011 320.3267,-331.1683 320.3268,-326.2705 316.8529,-285.8309 316.8529,-285.8309"/>
<polygon fill="#fbb4ae" stroke="#fbb4ae" points="990.1509,-172.5619 1002.8167,-160.7696 1003.2748,-160.3235 1020.2614,-145.173 1021.8725,-143.8731 1039.0996,-131.3416 1044.9315,-127.3448 1058.5439,-119.1393 1059.1997,-118.7719 1126.2122,-83.9814 1137.2969,-88.1354 1148.7939,-91.9612 1152.1615,-92.9372 1155.3945,-93.737 1159.4366,-94.5668 1169.1693,-96.1562 1177.9331,-97.2155 1177.9894,-97.2199 1188.3573,-97.5926 1192.173,-97.8963 1201.8838,-98.2546 1202.3884,-98.295 1212.944,-99.6004 1218.5637,-100.5382 1231.7217,-103.8806 1233.8967,-103.5042 1256.8031,-100.4808 1267.8551,-98.1371 1278.9965,-95.3305 1282.4646,-94.183 1286.3469,-92.7418 1302.6582,-86.021 1339.121,-69.578 1398.005,-119.6978 1400.3158,-126.3694 1432.9319,-173.7551 1434.8784,-178.9741 1477.546,-235.9539 1480.465,-248.3062 1479.1136,-262.0453 1477.8688,-294.9438 1475.3654,-299.6624 1452.8707,-345.4709 1452.4019,-347.7528 1444.8119,-401.8032 1394.8022,-435.3745 1359.9808,-443.0266 1355.6465,-444.1147 1344.2936,-444.6721 1336.7526,-445.2636 1336.1158,-404.6598 1335.0302,-387.3547 1335.1056,-335.4189 1341.7297,-333.0927 1344.3137,-330.5127 1346.0471,-330.5127 1347.5447,-329.209 1346.9215,-302.782 1347.1057,-302.751 1347.0977,-278.2199 1350.5878,-275.0058 1347.3428,-271.9019 1347.3428,-271.9019 1350.5878,-275.0058 1347.0977,-278.2199 1347.1057,-302.751 1346.9215,-302.782 1347.5447,-329.209 1346.0471,-330.5127 1344.3137,-330.5127 1341.7297,-333.0927 1335.1056,-335.4189 1328.1263,-332.9655 1325.6046,-330.524 1324.1117,-330.524 1323.1984,-328.9785 1322.0049,-302.7231 1325.033,-302.3216 1330.1947,-302.445 1329.4694,-274.7632 1324.3644,-274.7632 1323.2126,-252.9897 1321.6361,-252.8336 1319.0725,-253.1409 1314.2861,-252.6437 1315.4872,-230.9084 1315.4744,-230.9043 1309.7615,-230.9043 1309.7174,-230.8896 1308.7664,-229.6321 1308.7664,-229.6321 1309.7174,-230.8896 1309.7615,-230.9043 1315.4744,-230.9043 1315.4872,-230.9084 1314.2861,-252.6437 1319.0725,-253.1409 1321.6361,-252.8336 1323.2126,-252.9897 1324.3644,-274.7632 1329.4694,-274.7632 1330.1947,-302.445 1325.033,-302.3216 1322.0049,-302.7231 1323.1984,-328.9785 1324.1117,-330.524 1325.6046,-330.524 1328.1263,-332.9655 1335.1056,-335.4189 1335.0302,-387.3547 1336.1158,-404.6598 1336.7526,-445.2636 1315.635,-448.7859 1315.1239,-448.886 1290.6832,-454.3874 1274.7025,-433.8128 1268.0756,-424.7389 1260.8822,-414.2106 1226.2327,-395.4492 1222.3733,-393.5686 1213.8779,-389.882 1213.8339,-389.8653 1210.2051,-388.6776 1194.5182,-384.3617 1183.6606,-382.547 1187.6766,-322.19 1192.8672,-323.8282 1192.8672,-323.8282 1187.6766,-322.19 1183.6606,-382.547 1180.4473,-382.1835 1176.8617,-381.9697 1167.7118,-381.9122 1167.541,-381.9202 1165.8688,-382.0886 1164.1891,-382.1703 1163.6567,-382.1688 1158.7902,-381.9011 1153.0851,-381.8932 1145.7657,-381.5022 1140.5122,-380.9487 1132.8284,-368.8499 1124.9001,-351.8773 1115.5043,-326.8404 1113.6642,-322.8737 1103.9001,-305.2999 1079.6445,-267.1075 1076.9803,-262.2377 1075.3496,-259.0245 1069.068,-256.495 1056.6011,-251.0464 1052.8353,-249.1464 1040.7113,-242.6104 1029.502,-235.8065 1015.3012,-226.2219 1006.9142,-219.7064 995.4484,-186.1463 990.1509,-172.5619 990.1509,-172.5619"/>
<polygon fill="#fdd9a7" stroke="#fdd9a7" points="794.4298,-582.7182 790.6736,-582.7182 790.0499,-583.7652 783.7466,-588.8109 763.6862,-585.2117 719.5208,-584.7072 719.5992,-577.8139 719.2697,-569.01 727.3651,-494.7581 653.7235,-432.1541 648.6293,-427.4176 643.0153,-422.4313 630.5983,-410.4481 628.8175,-406.1677 637.8889,-395.9874 707.8439,-310.4903 709.2567,-301.7369 713.106,-265.3307 726.105,-246.8096 788.3845,-151.6761 792.8935,-151.2689 808.6157,-150.2086 816.9187,-150.0307 821.1051,-150.0373 823.4572,-149.985 827.0285,-149.8201 840.3245,-149.8189 840.7115,-149.8004 842.7519,-149.7499 843.858,-149.6962 844.3601,-149.6949 853.2784,-149.8769 858.715,-149.8582 862.1868,-149.7636 867.2115,-149.8576 867.5044,-149.8421 874.4566,-149.635 890.1928,-149.8907 890.4755,-149.8885 898.924,-150.2124 951.7417,-154.6645 990.1509,-172.5619 995.4484,-186.1463 1006.9142,-219.7064 1015.3012,-226.2219 1029.502,-235.8065 1040.7113,-242.6104 1052.8353,-249.1464 1056.6011,-251.0464 1069.068,-256.495 1075.3496,-259.0245 1076.9803,-262.2377 1079.6445,-267.1075 1103.9001,-305.2999 1113.6642,-322.8737 1115.5043,-326.8404 1124.9001,-351.8773 1132.8284,-368.8499 1140.5122,-380.9487 1145.7657,-381.5022 1153.0851,-381.8932 1158.7902,-381.9011 1163.6567,-382.1688 1164.1891,-382.1703 1165.8688,-382.0886 1169.5165,-439.6837 1164.4229,-445.5785 1164.4054,-445.5785 1163.6055,-445.3222 1158.3069,-445.3222 1157.2471,-483.4582 1156.2072,-483.4599 1151.2739,-445.2831 1147.8589,-445.2831 1146.9968,-445.0164 1142.0574,-445.0164 1141.0538,-445.3386 1135.4567,-445.3386 1134.8177,-445.1354 1130.5151,-445.1354 1130.1486,-445.2512 1125.0002,-445.2512 1124.6383,-444.7895 1118.1118,-440.5258 1113.6906,-440.5258 1113.6906,-440.5258 1118.1118,-440.5258 1124.6383,-444.7895 1125.0002,-445.2512 1124.1812,-446.2888 1118.8062,-449.6524 1113.1509,-449.6524 1107.63,-446.1195 1106.8165,-445.0644 1102.17,-445.0644 1101.8728,-445.1602 1096.3541,-445.1602 1096.332,-445.153 1090.4655,-445.153 1090.4655,-445.153 1096.332,-445.153 1096.3541,-445.1602 1101.8728,-445.1602 1102.17,-445.0644 1106.8165,-445.0644 1107.63,-446.1195 1113.1509,-449.6524 1118.8062,-449.6524 1124.1812,-446.2888 1125.0002,-445.2512 1130.1486,-445.2512 1130.5151,-445.1354 1134.8177,-445.1354 1135.4567,-445.3386 1141.0538,-445.3386 1142.0574,-445.0164 1146.9968,-445.0164 1147.8589,-445.2831 1151.2739,-445.2831 1156.2072,-483.4599 1157.2471,-483.4582 1158.3069,-445.3222 1163.6055,-445.3222 1164.4054,-445.5785 1164.4229,-445.5785 1169.5165,-439.6837 1165.8688,-382.0886 1167.541,-381.9202 1167.7118,-381.9122 1176.8617,-381.9697 1180.4473,-382.1835 1183.6606,-382.547 1194.5182,-384.3617 1210.2051,-388.6776 1213.8339,-389.8653 1213.8779,-389.882 1222.3733,-393.5686 1226.2327,-395.4492 1260.8822,-414.2106 1268.0756,-424.7389 1274.7025,-433.8128 1290.6832,-454.3874 1277.5718,-478.8712 1267.1115,-499.8258 1263.9653,-520.9146 1261.6414,-540.4781 1256.8644,-550.5434 1225.8683,-621.6189 1226.3264,-625.6566 1232.2532,-660.7387 1210.8813,-667.2214 1159.389,-684.6375 1112.161,-666.2559 1106.3981,-665.1514 1099.9525,-665.1829 1099.1091,-665.0354 1096.0479,-665.0978 1094.2805,-664.8165 1089.5698,-664.9891 1088.7231,-664.8668 1082.7755,-665.1837 1081.4713,-665.0159 1077.8871,-665.2612 1075.8285,-665.0305 1071.29,-665.4138 1067.0531,-665.0101 1061.9959,-663.6195 1056.9656,-661.3127 1045.6499,-653.9714 1044.4054,-652.9645 1040.0477,-648.655 1039.5009,-648.2873 1035.8654,-645.3617 1031.704,-641.4299 1040.8699,-632.7313 1045.4255,-629.1521 1046.1288,-594.8073 1051.5593,-598.0785 1056.877,-598.0785 1056.877,-598.0785 1051.5593,-598.0785 1046.1288,-594.8073 1045.4255,-629.1521 1040.8699,-632.7313 1031.704,-641.4299 1030.0676,-641.2739 1026.6062,-641.4431 1024.1438,-641.3864 1020.0608,-641.5854 1016.7709,-641.2711 1009.7567,-641.6147 1002.4985,-641.4427 1000.6025,-641.6716 995.4559,-641.5494 986.047,-640.6462 929.5999,-631.1842 916.184,-648.9515 932.2245,-673.0327 946.0751,-696.6599 959.8112,-731.5473 963.5168,-738.0111 973.2189,-752.5767 981.1595,-754.4457 989.8367,-766.6298 1007.8289,-795.5689 1025.4504,-820.2653 1038.6528,-837.0514 1045.7837,-845.4359 1047.6536,-847.942 1051.4259,-853.3397 1048.3036,-865.8168 1036.178,-904.0731 1012.8159,-936.5615 967.505,-930.5808 956.9042,-927.2314 943.6694,-923.844 937.1447,-922.3723 931.1434,-921.3815 917.5582,-919.5482 911.2617,-919.0804 908.9359,-844.1736 911.7784,-818.4626 916.5109,-819.9439 923.5499,-817.5964 926.3322,-815.0572 923.4095,-812.3858 923.4095,-812.3858 926.3322,-815.0572 923.5499,-817.5964 916.5109,-819.9439 911.7784,-818.4626 908.9359,-844.1736 911.2617,-919.0804 892.7314,-918.8238 890.6239,-918.8584 888.5313,-918.9559 880.7601,-919.5526 832.5184,-926.1745 813.77,-878.0076 809.6036,-866.0037 802.3436,-838.2584 796.2308,-818.3703 752.6629,-791.238 749.9105,-785.6893 739.8355,-762.9537 748.4877,-744.6075 796.2659,-738.0464 809.2173,-740.1006 815.1656,-735.2453 816.1179,-733.5777 819.524,-733.5777 821.4359,-734.1949 825.6011,-734.1949 827.3206,-733.6449 831.0587,-733.6449 831.9125,-733.9146 837.3706,-733.9146 837.8311,-784.7155 844.0494,-781.3987 850.1975,-778.6719 852.6094,-777.8192 857.7826,-776.4414 868.9497,-774.4466 865.0961,-738.3989 871.3728,-734.3414 872.0308,-733.5032 870.9763,-732.2312 865.948,-729.2456 860.3203,-729.2456 860.3203,-729.2456 865.948,-729.2456 870.9763,-732.2312 872.0308,-733.5032 871.3728,-734.3414 865.0961,-738.3989 868.9497,-774.4466 857.7826,-776.4414 852.6094,-777.8192 850.1975,-778.6719 844.0494,-781.3987 837.8311,-784.7155 837.3706,-733.9146 831.9125,-733.9146 831.0587,-733.6449 827.3206,-733.6449 825.6011,-734.1949 821.4359,-734.1949 819.524,-733.5777 816.1179,-733.5777 815.1656,-735.2453 809.2173,-740.1006 796.2659,-738.0464 748.4877,-744.6075 758.8738,-714.8876 763.8353,-697.1142 766.5551,-689.2068 769.3068,-682.4624 779.5192,-660.808 716.4612,-612.7708 719.5208,-584.7072 763.6862,-585.2117 783.7466,-588.8109 790.0499,-583.7652 790.6736,-582.7182 794.4298,-582.7182 799.2623,-631.9218 801.374,-582.1418 805.446,-582.1418 807.1763,-582.7102 803.1558,-658.0475 809.0457,-658.1819 812.8897,-582.7102 813.2672,-582.5903 814.5746,-582.5903 817.3498,-585.1098 817.3498,-585.1098 814.5746,-582.5903 813.2672,-582.5903 812.8897,-582.7102 809.0457,-658.1819 803.1558,-658.0475 807.1763,-582.7102 805.446,-582.1418 801.374,-582.1418 799.2623,-631.9218 794.4298,-582.7182 796.6077,-581.9926 800.9042,-581.9926 801.7592,-494.5948 805.7877,-494.4285 811.6295,-494.8122 819.381,-494.7558 822.0314,-494.8308 822.589,-407.2212 827.2429,-407.2212 830.6071,-440.1866 834.8596,-406.9284 838.2504,-406.9284 842.5454,-443.7661 845.3531,-410.3412 850.5584,-411.9186 855.342,-410.4852 860.6013,-448.9414 861.4369,-464.8399 868.3074,-407.0204 871.4455,-407.0204 877.6755,-446.3933 879.2022,-469.1927 879.5801,-495.0697 893.2328,-496.8086 900.4598,-498.2413 908.3391,-500.0833 908.6097,-472.6871 908.6097,-472.6871 908.3391,-500.0833 900.4598,-498.2413 893.2328,-496.8086 892.9473,-469.0555 892.9473,-469.0555 893.2328,-496.8086 879.5801,-495.0697 879.2022,-469.1927 877.6755,-446.3933 871.4455,-407.0204 868.3074,-407.0204 861.4369,-464.8399 860.6013,-448.9414 861.9323,-406.8741 861.9323,-406.8741 860.6013,-448.9414 855.342,-410.4852 850.5584,-411.9186 845.3531,-410.3412 842.5454,-443.7661 838.2504,-406.9284 834.8596,-406.9284 830.6071,-440.1866 827.2429,-407.2212 822.589,-407.2212 822.0314,-494.8308 819.381,-494.7558 816.6618,-407.1096 817.1304,-406.9651 815.8332,-344.2599 818.939,-344.262 822.9248,-288.1936 827.8564,-284.6449 834.4805,-340.3098 834.4234,-281.5837 840.4347,-281.5837 840.4825,-281.568 843.052,-281.568 845.9001,-284.4027 852.008,-286.4823 852.008,-286.4823 845.9001,-284.4027 843.052,-281.568 840.4825,-281.568 840.4347,-281.5837 834.4234,-281.5837 834.4805,-340.3098 827.8564,-284.6449 822.9248,-288.1936 818.939,-344.262 815.8332,-344.2599 817.1304,-406.9651 816.6618,-407.1096 819.381,-494.7558 811.6295,-494.8122 805.7877,-494.4285 801.7592,-494.5948 800.9042,-581.9926 796.6077,-581.9926 794.4298,-582.7182 794.4298,-582.7182"/>
<polygon fill="#bbd7d9" stroke="#bbd7d9" points="1276.5735,-932.9345 1271.5115,-957.4511 1266.2994,-987.3809 1261.2211,-1023.5071 1252.0593,-1034.8143 1208.0117,-1066.8728 1164.1993,-1064.0983 1161.7603,-1064.1045 1155.2902,-1064.3341 1146.946,-1064.9054 1138.8115,-1065.7307 1085.7433,-1072.8622 1046.0378,-1025.4042 1026.8563,-975.651 1022.0664,-960.01 1012.8159,-936.5615 1036.178,-904.0731 1048.3036,-865.8168 1051.4259,-853.3397 1047.6536,-847.942 1045.7837,-845.4359 1038.6528,-837.0514 1025.4504,-820.2653 1007.8289,-795.5689 989.8367,-766.6298 981.1595,-754.4457 973.2189,-752.5767 963.5168,-738.0111 959.8112,-731.5473 946.0751,-696.6599 932.2245,-673.0327 916.184,-648.9515 929.5999,-631.1842 986.047,-640.6462 995.4559,-641.5494 1000.6025,-641.6716 1002.4985,-641.4427 1009.7567,-641.6147 1016.7709,-641.2711 1020.0608,-641.5854 1024.1438,-641.3864 1026.6062,-641.4431 1030.0676,-641.2739 1031.704,-641.4299 1035.8654,-645.3617 1039.5009,-648.2873 1040.0477,-648.655 1044.4054,-652.9645 1045.6499,-653.9714 1056.9656,-661.3127 1061.9959,-663.6195 1067.0531,-665.0101 1071.29,-665.4138 1075.8285,-665.0305 1077.8871,-665.2612 1081.4713,-665.0159 1082.7755,-665.1837 1088.7231,-664.8668 1089.5698,-664.9891 1094.2805,-664.8165 1096.0479,-665.0978 1094.3354,-688.3209 1093.3921,-689.8734 1094.1698,-690.5093 1094.5884,-690.669 1100.5215,-695.8837 1149.1971,-693.0588 1144.2971,-698.1986 1135.7924,-705.9683 1130.532,-710.0105 1128.0026,-711.5931 1128.0026,-711.5931 1130.532,-710.0105 1135.7924,-705.9683 1144.2971,-698.1986 1149.1971,-693.0588 1100.5215,-695.8837 1094.5884,-690.669 1094.1698,-690.5093 1093.3921,-689.8734 1094.3354,-688.3209 1096.0479,-665.0978 1099.1091,-665.0354 1099.9525,-665.1829 1106.3981,-665.1514 1112.161,-666.2559 1159.389,-684.6375 1210.8813,-667.2214 1232.2532,-660.7387 1248.1826,-683.5828 1256.8733,-715.5161 1256.7008,-725.9788 1251.778,-748.13 1246.1877,-789.5901 1261.7622,-821.0282 1267.8342,-837.8874 1272.0409,-866.478 1273.3823,-873.9236 1278.8214,-899.4318 1283.3546,-917.9465 1277.9412,-927.1722 1276.5735,-932.9345 1276.5735,-932.9345"/>
<polygon fill="#d8d6d9" stroke="#d8d6d9" points="734.9067,-971.8304 717.1519,-973.5137 711.7294,-974.3781 710.4602,-932.1898 711.9824,-874.3157 717.8259,-870.3458 718.3386,-869.6464 718.1484,-869.4046 712.3767,-865.6635 712.3767,-865.6635 718.1484,-869.4046 718.3386,-869.6464 717.8259,-870.3458 711.9824,-874.3157 710.4602,-932.1898 711.7294,-974.3781 699.1635,-977.2018 679.237,-982.9832 674.0493,-984.6526 651.3733,-977.6422 626.0923,-963.1793 608.7041,-947.3928 578.0365,-906.2744 529.317,-874.2565 515.597,-859.0208 519.1744,-827.004 521.5273,-789.2824 517.6681,-780.85 517.1224,-779.3646 528.1665,-704.9347 528.6465,-700.4091 529.4984,-686.9597 531.9088,-664.5563 532.2203,-659.6145 534.3182,-645.476 571.4499,-633.3602 577.4178,-631.7462 589.6347,-629.7897 602.1057,-629.1752 602.859,-629.1798 603.9918,-629.2495 604.7175,-629.2545 611.6656,-628.9205 618.6997,-629.3646 618.7961,-629.3761 628.8439,-629.4641 630.3651,-629.394 632.2716,-629.2015 637.3533,-629.5347 642.4341,-629.5888 645.1574,-629.4683 648.9041,-629.0955 653.4583,-629.1497 653.9534,-629.1285 663.3042,-629.246 668.4291,-628.7483 681.661,-626.7325 683.3365,-626.387 696.1094,-622.3432 698.2673,-621.5438 705.4886,-618.4714 708.5989,-616.979 716.4612,-612.7708 779.5192,-660.808 769.3068,-682.4624 766.5551,-689.2068 763.8353,-697.1142 758.8738,-714.8876 748.4877,-744.6075 739.8355,-762.9537 749.9105,-785.6893 752.6629,-791.238 796.2308,-818.3703 802.3436,-838.2584 809.6036,-866.0037 813.77,-878.0076 832.5184,-926.1745 806.3329,-958.7334 777.6971,-969.1694 734.9067,-971.8304 734.9067,-971.8304"/>
<polyline fill="none" stroke="#000000" points="1021.8725,-143.8731 1039.0996,-131.3416 1044.9315,-127.3448 1058.5439,-119.1393 1059.1997,-118.7719 1126.2122,-83.9814 1137.2969,-88.1354 1148.7939,-91.9612 1152.1615,-92.9372 1155.3945,-93.737 1159.4366,-94.5668 1169.1693,-96.1562 1177.9331,-97.2155 1177.9894,-97.2199 1188.3573,-97.5926 1192.173,-97.8963 1201.8838,-98.2546 1202.3884,-98.295 1212.944,-99.6004 1218.5637,-100.5382 1231.7217,-103.8806 1233.8967,-103.5042 1256.8031,-100.4808 1267.8551,-98.1371 1278.9965,-95.3305 1282.4646,-94.183 1286.3469,-92.7418 1302.6582,-86.021 1339.121,-69.578 1335.8916,-18 1337.0176,28.5777 1319.626,44.3074 1272.7072,77.524 1224.5004,91.9051 1217.4314,94.7357 1207.3523,92.4463 1204.6597,91.9197 1195.3868,90.397 1126.2098,83.3738 1096.774,99.4217 1059.6481,94.1443 1056.8589,93.8282 1044.4194,92.7757 1044.2671,92.7716 1030.1755,92.7974 1020.2955,93.1006 1009.3568,94.0666 999.6435,95.4837 997.4916,95.8594 951.7464,85.7765 936.9982,89.4237 902.4626,84.802 884.6493,83.5028 875.6372,83.6723 865.5995,84.1683 849.783,85.9178 846.3682,86.3989 838.2094,88.2968 822.7639,92.3667 819.0399,91.4548 818.0193,91.2351 803.6328,89.3857 755.6024,85.9913 739.7045,74.3501 702.9163,40.5504 700.465,27.3129 700.9488,1.6126 698.3279,-58.1358 698.1216,-60.9041 701.1209,-71.4105 788.3845,-151.6761 792.8935,-151.2689 808.6157,-150.2086 816.9187,-150.0307 821.1051,-150.0373 823.4572,-149.985 827.0285,-149.8201 840.3245,-149.8189 840.7115,-149.8004 842.7519,-149.7499 843.858,-149.6962 844.3601,-149.6949 853.2784,-149.8769 858.715,-149.8582 862.1868,-149.7636 867.2115,-149.8576 867.5044,-149.8421 874.4566,-149.635 890.1928,-149.8907 890.4755,-149.8885 898.924,-150.2124 951.7417,-154.6645 990.1509,-172.5619 1002.8167,-160.7696 1003.2748,-160.3235 1020.2614,-145.173 1021.8725,-143.8731 "/>
<polyline fill="none" stroke="#000000" points="434.0951,-324.8206 433.148,-325.413 420.6774,-332.5959 409.9572,-338.2103 393.9833,-344.0871 357.0627,-355.7078 344.2794,-361.051 318.8079,-405.924 300.3614,-433.1742 279.5562,-461.8998 258.3116,-494.381 264.7271,-520.3082 242.2325,-553.6786 232.0309,-560.5766 207.9693,-576.1234 127.5037,-586.799 122.887,-587.2698 116.2892,-587.7404 109.4182,-588.0191 96.1451,-588.1489 92.1606,-587.9429 90.812,-587.8317 78.6211,-586.4499 77.7862,-586.3038 62.4568,-586.8912 45.4362,-585.9936 20.4347,-583.1633 -24.5653,-610.8293 -65.7688,-652.5582 -68.6906,-655.3571 -72.7224,-668.9777 -63.9203,-702.1492 -60.8505,-715.2062 -57.6974,-730.6147 2.671,-796.829 2.9236,-797.574 7.8404,-813.6486 58.7061,-859.0326 81.625,-868.4258 107.9624,-867.1474 109.8849,-867.1089 118.562,-867.1827 122.9903,-867.3466 135.5701,-868.5323 147.6972,-870.0219 158.2699,-872.2253 159.2298,-872.4528 169.8304,-873.3063 171.6735,-872.7886 173.7073,-872.2762 176.9849,-871.6368 216.8593,-864.9807 278.216,-889.2086 295.2105,-885.3903 303.7006,-884.0005 310.5276,-883.0909 314.3959,-882.6935 318.3414,-882.4082 335.5104,-882.2101 337.2563,-882.2963 356.5085,-883.8359 359.2386,-884.2193 361.2027,-884.5549 366.0592,-885.5332 379.4771,-888.6486 381.326,-889.1337 388.0929,-891.1152 390.8894,-892.019 397.741,-894.4431 399.2829,-895.0357 515.597,-859.0208 519.1744,-827.004 521.5273,-789.2824 517.6681,-780.85 517.1224,-779.3646 528.1665,-704.9347 528.6465,-700.4091 529.4984,-686.9597 531.9088,-664.5563 532.2203,-659.6145 534.3182,-645.476 571.4499,-633.3602 577.4178,-631.7462 589.6347,-629.7897 602.1057,-629.1752 602.859,-629.1798 603.9918,-629.2495 604.7175,-629.2545 611.6656,-628.9205 618.6997,-629.3646 618.7961,-629.3761 628.8439,-629.4641 630.3651,-629.394 632.2716,-629.2015 637.3533,-629.5347 642.4341,-629.5888 645.1574,-629.4683 648.9041,-629.0955 653.4583,-629.1497 653.9534,-629.1285 663.3042,-629.246 668.4291,-628.7483 681.661,-626.7325 683.3365,-626.387 696.1094,-622.3432 698.2673,-621.5438 705.4886,-618.4714 708.5989,-616.979 716.4612,-612.7708 719.5208,-584.7072 719.5992,-577.8139 719.2697,-569.01 727.3651,-494.7581 653.7235,-432.1541 648.6293,-427.4176 643.0153,-422.4313 630.5983,-410.4481 628.8175,-406.1677 616.6791,-402.2906 591.4091,-378.9765 476.4518,-288.7772 467.0067,-298.1174 454.4814,-309.2281 447.7813,-314.8184 434.0951,-324.8206 "/>
<polyline fill="none" stroke="#000000" points="278.8937,102.2683 277.438,101.6499 262.5817,95.7807 193.7655,70.7124 157.1487,11.8416 146.5582,2.1793 134.836,-69.7722 114.4633,-96.2177 99.0623,-147.747 97.4438,-155.9229 95.5097,-163.3376 81.7524,-188.3256 83.8261,-203.7996 86.5253,-229.7776 88.6067,-278.6238 100.3296,-296.4348 102.7218,-314.5583 105.2173,-338.9888 106.8276,-377.7742 142.4324,-409.7666 203.0463,-449.1537 215.8986,-457.9995 225.1817,-464.7312 225.3824,-464.8914 241.4931,-478.3802 245.0156,-481.5897 256.8348,-492.8098 258.3116,-494.381 279.5562,-461.8998 300.3614,-433.1742 318.8079,-405.924 344.2794,-361.051 357.0627,-355.7078 393.9833,-344.0871 409.9572,-338.2103 420.6774,-332.5959 433.148,-325.413 434.0951,-324.8206 447.7813,-314.8184 454.4814,-309.2281 467.0067,-298.1174 476.4518,-288.7772 475.7111,-284.32 469.9435,-218.2315 431.2815,-160.7662 430.6778,-152.5643 473.2433,-82.9429 479.0501,-18.5231 479.1452,-17.7412 482.2545,-.9516 479.3235,28.1954 476.5617,34.9456 434.8864,74.2198 390.5021,91.4987 388.8696,91.4089 370.445,90.9143 357.7973,91.2903 352.7427,91.8696 340.3575,91.5976 333.9193,91.6368 333.4166,91.668 332.9966,91.7059 316.362,93.6755 307.145,95.0249 301.6614,96.1341 293.7333,97.96 279.9038,101.9225 278.8937,102.2683 "/>
<polyline fill="none" stroke="#000000" points="1286.3469,-92.7418 1302.6582,-86.021 1339.121,-69.578 1398.005,-119.6978 1400.3158,-126.3694 1432.9319,-173.7551 1434.8784,-178.9741 1477.546,-235.9539 1480.465,-248.3062 1479.1136,-262.0453 1477.8688,-294.9438 1475.3654,-299.6624 1452.8707,-345.4709 1452.4019,-347.7528 1444.8119,-401.8032 1394.8022,-435.3745 1359.9808,-443.0266 1355.6465,-444.1147 1344.2936,-444.6721 1336.7526,-445.2636 1315.635,-448.7859 1315.1239,-448.886 1290.6832,-454.3874 1274.7025,-433.8128 1268.0756,-424.7389 1260.8822,-414.2106 1226.2327,-395.4492 1222.3733,-393.5686 1213.8779,-389.882 1213.8339,-389.8653 1210.2051,-388.6776 1194.5182,-384.3617 1183.6606,-382.547 1180.4473,-382.1835 1176.8617,-381.9697 1167.7118,-381.9122 1167.541,-381.9202 1165.8688,-382.0886 1164.1891,-382.1703 1163.6567,-382.1688 1158.7902,-381.9011 1153.0851,-381.8932 1145.7657,-381.5022 1140.5122,-380.9487 1132.8284,-368.8499 1124.9001,-351.8773 1115.5043,-326.8404 1113.6642,-322.8737 1103.9001,-305.2999 1079.6445,-267.1075 1076.9803,-262.2377 1075.3496,-259.0245 1069.068,-256.495 1056.6011,-251.0464 1052.8353,-249.1464 1040.7113,-242.6104 1029.502,-235.8065 1015.3012,-226.2219 1006.9142,-219.7064 995.4484,-186.1463 990.1509,-172.5619 1002.8167,-160.7696 1003.2748,-160.3235 1020.2614,-145.173 1021.8725,-143.8731 1039.0996,-131.3416 1044.9315,-127.3448 1058.5439,-119.1393 1059.1997,-118.7719 1126.2122,-83.9814 1137.2969,-88.1354 1148.7939,-91.9612 1152.1615,-92.9372 1155.3945,-93.737 1159.4366,-94.5668 1169.1693,-96.1562 1177.9331,-97.2155 1177.9894,-97.2199 1188.3573,-97.5926 1192.173,-97.8963 1201.8838,-98.2546 1202.3884,-98.295 1212.944,-99.6004 1218.5637,-100.5382 1231.7217,-103.8806 1233.8967,-103.5042 1256.8031,-100.4808 1267.8551,-98.1371 1278.9965,-95.3305 1282.4646,-94.183 1286.3469,-92.7418 "/>
<polyline fill="none" stroke="#000000" points="1040.7113,-242.6104 1052.8353,-249.1464 1056.6011,-251.0464 1069.068,-256.495 1075.3496,-259.0245 1076.9803,-262.2377 1079.6445,-267.1075 1103.9001,-305.2999 1113.6642,-322.8737 1115.5043,-326.8404 1124.9001,-351.8773 1132.8284,-368.8499 1140.5122,-380.9487 1145.7657,-381.5022 1153.0851,-381.8932 1158.7902,-381.9011 1163.6567,-382.1688 1164.1891,-382.1703 1165.8688,-382.0886 1167.541,-381.9202 1167.7118,-381.9122 1176.8617,-381.9697 1180.4473,-382.1835 1183.6606,-382.547 1194.5182,-384.3617 1210.2051,-388.6776 1213.8339,-389.8653 1213.8779,-389.882 1222.3733,-393.5686 1226.2327,-395.4492 1260.8822,-414.2106 1268.0756,-424.7389 1274.7025,-433.8128 1290.6832,-454.3874 1277.5718,-478.8712 1267.1115,-499.8258 1263.9653,-520.9146 1261.6414,-540.4781 1256.8644,-550.5434 1225.8683,-621.6189 1226.3264,-625.6566 1232.2532,-660.7387 1210.8813,-667.2214 1159.389,-684.6375 1112.161,-666.2559 1106.3981,-665.1514 1099.9525,-665.1829 1099.1091,-665.0354 1096.0479,-665.0978 1094.2805,-664.8165 1089.5698,-664.9891 1088.7231,-664.8668 1082.7755,-665.1837 1081.4713,-665.0159 1077.8871,-665.2612 1075.8285,-665.0305 1071.29,-665.4138 1067.0531,-665.0101 1061.9959,-663.6195 1056.9656,-661.3127 1045.6499,-653.9714 1044.4054,-652.9645 1040.0477,-648.655 1039.5009,-648.2873 1035.8654,-645.3617 1031.704,-641.4299 1030.0676,-641.2739 1026.6062,-641.4431 1024.1438,-641.3864 1020.0608,-641.5854 1016.7709,-641.2711 1009.7567,-641.6147 1002.4985,-641.4427 1000.6025,-641.6716 995.4559,-641.5494 986.047,-640.6462 929.5999,-631.1842 916.184,-648.9515 932.2245,-673.0327 946.0751,-696.6599 959.8112,-731.5473 963.5168,-738.0111 973.2189,-752.5767 981.1595,-754.4457 989.8367,-766.6298 1007.8289,-795.5689 1025.4504,-820.2653 1038.6528,-837.0514 1045.7837,-845.4359 1047.6536,-847.942 1051.4259,-853.3397 1048.3036,-865.8168 1036.178,-904.0731 1012.8159,-936.5615 967.505,-930.5808 956.9042,-927.2314 943.6694,-923.844 937.1447,-922.3723 931.1434,-921.3815 917.5582,-919.5482 911.2617,-919.0804 892.7314,-918.8238 890.6239,-918.8584 888.5313,-918.9559 880.7601,-919.5526 832.5184,-926.1745 813.77,-878.0076 809.6036,-866.0037 802.3436,-838.2584 796.2308,-818.3703 752.6629,-791.238 749.9105,-785.6893 739.8355,-762.9537 748.4877,-744.6075 758.8738,-714.8876 763.8353,-697.1142 766.5551,-689.2068 769.3068,-682.4624 779.5192,-660.808 716.4612,-612.7708 719.5208,-584.7072 719.5992,-577.8139 719.2697,-569.01 727.3651,-494.7581 653.7235,-432.1541 648.6293,-427.4176 643.0153,-422.4313 630.5983,-410.4481 628.8175,-406.1677 637.8889,-395.9874 707.8439,-310.4903 709.2567,-301.7369 713.106,-265.3307 726.105,-246.8096 788.3845,-151.6761 792.8935,-151.2689 808.6157,-150.2086 816.9187,-150.0307 821.1051,-150.0373 823.4572,-149.985 827.0285,-149.8201 840.3245,-149.8189 840.7115,-149.8004 842.7519,-149.7499 843.858,-149.6962 844.3601,-149.6949 853.2784,-149.8769 858.715,-149.8582 862.1868,-149.7636 867.2115,-149.8576 867.5044,-149.8421 874.4566,-149.635 890.1928,-149.8907 890.4755,-149.8885 898.924,-150.2124 951.7417,-154.6645 990.1509,-172.5619 995.4484,-186.1463 1006.9142,-219.7064 1015.3012,-226.2219 1029.502,-235.8065 1040.7113,-242.6104 "/>
<polyline fill="none" stroke="#000000" points="1056.9656,-661.3127 1061.9959,-663.6195 1067.0531,-665.0101 1071.29,-665.4138 1075.8285,-665.0305 1077.8871,-665.2612 1081.4713,-665.0159 1082.7755,-665.1837 1088.7231,-664.8668 1089.5698,-664.9891 1094.2805,-664.8165 1096.0479,-665.0978 1099.1091,-665.0354 1099.9525,-665.1829 1106.3981,-665.1514 1112.161,-666.2559 1159.389,-684.6375 1210.8813,-667.2214 1232.2532,-660.7387 1248.1826,-683.5828 1256.8733,-715.5161 1256.7008,-725.9788 1251.778,-748.13 1246.1877,-789.5901 1261.7622,-821.0282 1267.8342,-837.8874 1272.0409,-866.478 1273.3823,-873.9236 1278.8214,-899.4318 1283.3546,-917.9465 1277.9412,-927.1722 1276.5735,-932.9345 1271.5115,-957.4511 1266.2994,-987.3809 1261.2211,-1023.5071 1252.0593,-1034.8143 1208.0117,-1066.8728 1164.1993,-1064.0983 1161.7603,-1064.1045 1155.2902,-1064.3341 1146.946,-1064.9054 1138.8115,-1065.7307 1085.7433,-1072.8622 1046.0378,-1025.4042 1026.8563,-975.651 1022.0664,-960.01 1012.8159,-936.5615 1036.178,-904.0731 1048.3036,-865.8168 1051.4259,-853.3397 1047.6536,-847.942 1045.7837,-845.4359 1038.6528,-837.0514 1025.4504,-820.2653 1007.8289,-795.5689 989.8367,-766.6298 981.1595,-754.4457 973.2189,-752.5767 963.5168,-738.0111 959.8112,-731.5473 946.0751,-696.6599 932.2245,-673.0327 916.184,-648.9515 929.5999,-631.1842 986.047,-640.6462 995.4559,-641.5494 1000.6025,-641.6716 1002.4985,-641.4427 1009.7567,-641.6147 1016.7709,-641.2711 1020.0608,-641.5854 1024.1438,-641.3864 1026.6062,-641.4431 1030.0676,-641.2739 1031.704,-641.4299 1035.8654,-645.3617 1039.5009,-648.2873 1040.0477,-648.655 1044.4054,-652.9645 1045.6499,-653.9714 1056.9656,-661.3127 "/>
<polyline fill="none" stroke="#000000" points="663.3042,-629.246 653.9534,-629.1285 653.4583,-629.1497 648.9041,-629.0955 645.1574,-629.4683 642.4341,-629.5888 637.3533,-629.5347 632.2716,-629.2015 630.3651,-629.394 628.8439,-629.4641 618.7961,-629.3761 618.6997,-629.3646 611.6656,-628.9205 604.7175,-629.2545 603.9918,-629.2495 602.859,-629.1798 602.1057,-629.1752 589.6347,-629.7897 577.4178,-631.7462 571.4499,-633.3602 534.3182,-645.476 532.2203,-659.6145 531.9088,-664.5563 529.4984,-686.9597 528.6465,-700.4091 528.1665,-704.9347 517.1224,-779.3646 517.6681,-780.85 521.5273,-789.2824 519.1744,-827.004 515.597,-859.0208 529.317,-874.2565 578.0365,-906.2744 608.7041,-947.3928 626.0923,-963.1793 651.3733,-977.6422 674.0493,-984.6526 679.237,-982.9832 699.1635,-977.2018 711.7294,-974.3781 717.1519,-973.5137 734.9067,-971.8304 777.6971,-969.1694 806.3329,-958.7334 832.5184,-926.1745 813.77,-878.0076 809.6036,-866.0037 802.3436,-838.2584 796.2308,-818.3703 752.6629,-791.238 749.9105,-785.6893 739.8355,-762.9537 748.4877,-744.6075 758.8738,-714.8876 763.8353,-697.1142 766.5551,-689.2068 769.3068,-682.4624 779.5192,-660.808 716.4612,-612.7708 708.5989,-616.979 705.4886,-618.4714 698.2673,-621.5438 696.1094,-622.3432 683.3365,-626.387 681.661,-626.7325 668.4291,-628.7483 663.3042,-629.246 "/>
<!-- authconfig&#45;&gt;python3&#45;sssdconfig -->
<g id="edge1" class="edge">
<title>authconfig&#45;&gt;python3&#45;sssdconfig</title>
<path fill="none" stroke="#444444" stroke-opacity="0.333333" d="M966.2284,-18.0013C966.065,-18.0013 965.9015,-18.0013 965.7379,-18.0013"/>
<polygon fill="#444444" fill-opacity="0.333333" stroke="#444444" stroke-opacity="0.333333" points="968.3029,-14.5014 958.3028,-18.0012 968.3028,-21.5014 968.3029,-14.5014"/>
</g>
<!-- curl&#45;minimal&#45;&gt;libcurl&#45;minimal -->
<g id="edge2" class="edge">
<title>curl&#45;minimal&#45;&gt;libcurl&#45;minimal</title>
<path fill="none" stroke="#444444" stroke-opacity="0.333333" d="M453.8709,-432.2263C485.9693,-459.8922 547.3869,-512.8283 583.684,-544.113"/>
<polygon fill="#444444" fill-opacity="0.333333" stroke="#444444" stroke-opacity="0.333333" points="581.6051,-546.9418 591.4649,-550.8194 586.1752,-541.6395 581.6051,-546.9418"/>
</g>
<!-- firewalld&#45;&gt;firewalld&#45;filesystem -->
<g id="edge3" class="edge">
<title>firewalld&#45;&gt;firewalld&#45;filesystem</title>
<path fill="none" stroke="#444444" stroke-opacity="0.333333" d="M286.7849,-52.7761C290.0932,-49.6588 293.5812,-46.372 297.0392,-43.1135"/>
<polygon fill="#444444" fill-opacity="0.333333" stroke="#444444" stroke-opacity="0.333333" points="299.6024,-45.5072 304.48,-36.1019 294.8018,-40.4127 299.6024,-45.5072"/>
</g>
<!-- firewalld&#45;&gt;python3&#45;firewall -->
<g id="edge4" class="edge">
<title>firewalld&#45;&gt;python3&#45;firewall</title>
<path fill="none" stroke="#444444" stroke-opacity="0.333333" d="M263.14,-89.1571C260.1872,-101.667 256.205,-118.5384 252.8511,-132.748"/>
<polygon fill="#444444" fill-opacity="0.333333" stroke="#444444" stroke-opacity="0.333333" points="249.4345,-131.9872 250.5437,-142.5239 256.2473,-133.5953 249.4345,-131.9872"/>
</g>
<!-- python3&#45;firewall&#45;&gt;python3&#45;decorator -->
<g id="edge5" class="edge">
<title>python3&#45;firewall&#45;&gt;python3&#45;decorator</title>
<path fill="none" stroke="#444444" stroke-opacity="0.333333" d="M243.2517,-178.809C242.5156,-183.2425 241.7106,-188.0904 240.9165,-192.8733"/>
<polygon fill="#444444" fill-opacity="0.333333" stroke="#444444" stroke-opacity="0.333333" points="237.4115,-192.6156 239.2262,-203.0538 244.3169,-193.7622 237.4115,-192.6156"/>
</g>
<!-- python3&#45;firewall&#45;&gt;python3&#45;slip&#45;dbus -->
<g id="edge6" class="edge">
<title>python3&#45;firewall&#45;&gt;python3&#45;slip&#45;dbus</title>
<path fill="none" stroke="#444444" stroke-opacity="0.333333" d="M255.5246,-178.8809C265.9468,-199.4347 282.9969,-233.059 295.0368,-256.8028"/>
<polygon fill="#444444" fill-opacity="0.333333" stroke="#444444" stroke-opacity="0.333333" points="292.0533,-258.6582 299.6975,-265.9942 298.2965,-255.4924 292.0533,-258.6582"/>
</g>
<!-- python3&#45;slip&#45;dbus&#45;&gt;curl&#45;minimal -->
<g id="edge7" class="edge">
<title>python3&#45;slip&#45;dbus&#45;&gt;curl&#45;minimal</title>
<path fill="none" stroke="#444444" stroke-opacity="0.333333" d="M326.2205,-302.3737C347.5557,-324.7281 384.0417,-362.9571 408.3154,-388.3905"/>
<polygon fill="#444444" fill-opacity="0.333333" stroke="#444444" stroke-opacity="0.333333" points="405.9901,-391.0235 415.4263,-395.8411 411.054,-386.1905 405.9901,-391.0235"/>
</g>
<!-- python3&#45;slip&#45;dbus&#45;&gt;python3&#45;decorator -->
<g id="edge8" class="edge">
<title>python3&#45;slip&#45;dbus&#45;&gt;python3&#45;decorator</title>
<path fill="none" stroke="#444444" stroke-opacity="0.333333" d="M287.939,-266.0689C280.848,-259.921 272.8059,-252.9485 265.2119,-246.3645"/>
<polygon fill="#444444" fill-opacity="0.333333" stroke="#444444" stroke-opacity="0.333333" points="267.0621,-243.3364 257.2137,-239.4301 262.4766,-248.6254 267.0621,-243.3364"/>
</g>
<!-- python3&#45;slip&#45;dbus&#45;&gt;python3&#45;slip -->
<g id="edge9" class="edge">
<title>python3&#45;slip&#45;dbus&#45;&gt;python3&#45;slip</title>
<path fill="none" stroke="#444444" stroke-opacity="0.333333" d="M283.1318,-302.4741C281.0292,-303.9503 278.8853,-305.4554 276.7361,-306.9643"/>
<polygon fill="#444444" fill-opacity="0.333333" stroke="#444444" stroke-opacity="0.333333" points="274.6701,-304.1382 268.4969,-312.7488 278.6923,-309.8673 274.6701,-304.1382"/>
</g>
<!-- libmbim&#45;&gt;libgudev -->
<g id="edge10" class="edge">
<title>libmbim&#45;&gt;libgudev</title>
<path fill="none" stroke="#444444" stroke-opacity="0.333333" d="M1228.0928,-182.819C1227.9841,-182.81 1227.8755,-182.8011 1227.7667,-182.7921"/>
<polygon fill="#444444" fill-opacity="0.333333" stroke="#444444" stroke-opacity="0.333333" points="1227.8444,-179.2868 1217.5908,-181.9539 1227.2696,-186.2631 1227.8444,-179.2868"/>
</g>
<!-- libmbim&#45;utils&#45;&gt;libmbim -->
<g id="edge11" class="edge">
<title>libmbim&#45;utils&#45;&gt;libmbim</title>
<path fill="none" stroke="#444444" stroke-opacity="0.333333" d="M1290.576,-212.6454C1290.4877,-212.4855 1290.3993,-212.3254 1290.3108,-212.1651"/>
<polygon fill="#444444" fill-opacity="0.333333" stroke="#444444" stroke-opacity="0.333333" points="1294.1987,-211.9654 1286.301,-204.9029 1288.0707,-215.3489 1294.1987,-211.9654"/>
</g>
<!-- libmbim&#45;utils&#45;&gt;libgudev -->
<g id="edge12" class="edge">
<title>libmbim&#45;utils&#45;&gt;libgudev</title>
<path fill="none" stroke="#444444" stroke-opacity="0.333333" d="M1254.1503,-212.7517C1242.9752,-208.4095 1230.9216,-203.726 1219.3637,-199.2351"/>
<polygon fill="#444444" fill-opacity="0.333333" stroke="#444444" stroke-opacity="0.333333" points="1220.3906,-195.8792 1209.8018,-195.5197 1217.8553,-202.404 1220.3906,-195.8792"/>
</g>
<!-- libqmi&#45;&gt;libmbim -->
<g id="edge13" class="edge">
<title>libqmi&#45;&gt;libmbim</title>
<path fill="none" stroke="#444444" stroke-opacity="0.333333" d="M1327.6529,-312.3165C1317.5354,-287.5853 1299.3591,-243.1555 1287.5675,-214.3321"/>
<polygon fill="#444444" fill-opacity="0.333333" stroke="#444444" stroke-opacity="0.333333" points="1290.7125,-212.7759 1283.6866,-204.8457 1284.2337,-215.4264 1290.7125,-212.7759"/>
</g>
<!-- libqmi&#45;utils&#45;&gt;libmbim -->
<g id="edge14" class="edge">
<title>libqmi&#45;utils&#45;&gt;libmbim</title>
<path fill="none" stroke="#444444" stroke-opacity="0.333333" d="M1327.832,-256.5881C1318.5937,-244.0752 1306.1877,-227.2718 1295.8633,-213.2877"/>
<polygon fill="#444444" fill-opacity="0.333333" stroke="#444444" stroke-opacity="0.333333" points="1298.5062,-210.9747 1289.7508,-205.0086 1292.8747,-215.1324 1298.5062,-210.9747"/>
</g>
<!-- libqmi&#45;utils&#45;&gt;libgudev -->
<g id="edge15" class="edge">
<title>libqmi&#45;utils&#45;&gt;libgudev</title>
<path fill="none" stroke="#444444" stroke-opacity="0.333333" d="M1308.2553,-256.7492C1279.264,-240.8863 1236.9481,-217.7327 1205.531,-200.5424"/>
<polygon fill="#444444" fill-opacity="0.333333" stroke="#444444" stroke-opacity="0.333333" points="1207.0218,-197.3685 1196.5691,-195.6388 1203.6617,-203.5094 1207.0218,-197.3685"/>
</g>
<!-- libqmi&#45;utils&#45;&gt;libqmi -->
<g id="edge16" class="edge">
<title>libqmi&#45;utils&#45;&gt;libqmi</title>
<path fill="none" stroke="#444444" stroke-opacity="0.333333" d="M1339.2699,-293.065C1338.9346,-296.0766 1338.5803,-299.2591 1338.2255,-302.4456"/>
<polygon fill="#444444" fill-opacity="0.333333" stroke="#444444" stroke-opacity="0.333333" points="1334.7415,-302.1083 1337.1135,-312.4342 1341.6986,-302.8829 1334.7415,-302.1083"/>
</g>
<!-- mariadb&#45;connector&#45;c&#45;&gt;libcurl&#45;minimal -->
<g id="edge17" class="edge">
<title>mariadb&#45;connector&#45;c&#45;&gt;libcurl&#45;minimal</title>
<path fill="none" stroke="#444444" stroke-opacity="0.333333" d="M442.1799,-650.8025C476.8352,-634.1669 528.35,-609.4382 565.6591,-591.5287"/>
<polygon fill="#444444" fill-opacity="0.333333" stroke="#444444" stroke-opacity="0.333333" points="567.319,-594.6143 574.8194,-587.1314 564.2896,-588.3037 567.319,-594.6143"/>
</g>
<!-- ModemManager&#45;&gt;libmbim -->
<g id="edge18" class="edge">
<title>ModemManager&#45;&gt;libmbim</title>
<path fill="none" stroke="#444444" stroke-opacity="0.333333" d="M1204.4942,-300.7645C1218.6668,-278.2688 1242.9879,-239.6649 1259.3504,-213.6934"/>
<polygon fill="#444444" fill-opacity="0.333333" stroke="#444444" stroke-opacity="0.333333" points="1262.4072,-215.4074 1264.7765,-205.0808 1256.4846,-211.676 1262.4072,-215.4074"/>
</g>
<!-- ModemManager&#45;&gt;libgudev -->
<g id="edge19" class="edge">
<title>ModemManager&#45;&gt;libgudev</title>
<path fill="none" stroke="#444444" stroke-opacity="0.333333" d="M1189.278,-300.659C1184.2213,-276.5909 1175.256,-233.9198 1169.3197,-205.6653"/>
<polygon fill="#444444" fill-opacity="0.333333" stroke="#444444" stroke-opacity="0.333333" points="1172.6887,-204.6778 1167.2073,-195.6111 1165.8383,-206.1171 1172.6887,-204.6778"/>
</g>
<!-- ModemManager&#45;&gt;libmbim&#45;utils -->
<g id="edge20" class="edge">
<title>ModemManager&#45;&gt;libmbim&#45;utils</title>
<path fill="none" stroke="#444444" stroke-opacity="0.333333" d="M1215.1136,-300.8193C1231.2007,-287.6428 1253.197,-269.6264 1270.8483,-255.1687"/>
<polygon fill="#444444" fill-opacity="0.333333" stroke="#444444" stroke-opacity="0.333333" points="1273.0974,-257.8508 1278.6158,-248.8066 1268.6618,-252.4354 1273.0974,-257.8508"/>
</g>
<!-- ModemManager&#45;&gt;libqmi -->
<g id="edge21" class="edge">
<title>ModemManager&#45;&gt;libqmi</title>
<path fill="none" stroke="#444444" stroke-opacity="0.333333" d="M1268.6734,-325.0609C1273.02,-325.4181 1277.3436,-325.7734 1281.5788,-326.1215"/>
<polygon fill="#444444" fill-opacity="0.333333" stroke="#444444" stroke-opacity="0.333333" points="1281.6337,-329.6377 1291.8868,-326.9686 1282.2071,-322.6612 1281.6337,-329.6377"/>
</g>
<!-- ModemManager&#45;&gt;libqmi&#45;utils -->
<g id="edge22" class="edge">
<title>ModemManager&#45;&gt;libqmi&#45;utils</title>
<path fill="none" stroke="#444444" stroke-opacity="0.333333" d="M1253.8062,-300.8184C1259.3018,-299.186 1264.8991,-297.5234 1270.4717,-295.8682"/>
<polygon fill="#444444" fill-opacity="0.333333" stroke="#444444" stroke-opacity="0.333333" points="1271.8589,-299.1074 1280.4484,-292.9048 1269.8657,-292.3971 1271.8589,-299.1074"/>
</g>
<!-- ModemManager&#45;&gt;ModemManager&#45;glib -->
<g id="edge23" class="edge">
<title>ModemManager&#45;&gt;ModemManager&#45;glib</title>
<path fill="none" stroke="#444444" stroke-opacity="0.333333" d="M1128.3795,-336.8734C1122.2275,-338.5867 1115.956,-340.3331 1109.721,-342.0695"/>
<polygon fill="#444444" fill-opacity="0.333333" stroke="#444444" stroke-opacity="0.333333" points="1108.67,-338.7289 1099.9756,-344.7834 1110.548,-345.4723 1108.67,-338.7289"/>
</g>
<!-- net&#45;snmp&#45;agent&#45;libs&#45;&gt;mariadb&#45;connector&#45;c -->
<g id="edge24" class="edge">
<title>net&#45;snmp&#45;agent&#45;libs&#45;&gt;mariadb&#45;connector&#45;c</title>
<path fill="none" stroke="#444444" stroke-opacity="0.333333" d="M354.867,-762.3621C364.4763,-744.2651 379.2229,-716.4934 390.1475,-695.9196"/>
<polygon fill="#444444" fill-opacity="0.333333" stroke="#444444" stroke-opacity="0.333333" points="393.2671,-697.5075 394.8657,-687.0339 387.0846,-694.2246 393.2671,-697.5075"/>
</g>
<!-- net&#45;snmp&#45;agent&#45;libs&#45;&gt;net&#45;snmp&#45;libs -->
<g id="edge25" class="edge">
<title>net&#45;snmp&#45;agent&#45;libs&#45;&gt;net&#45;snmp&#45;libs</title>
<path fill="none" stroke="#444444" stroke-opacity="0.333333" d="M232.4368,-767.6021C232.2741,-767.5829 232.1115,-767.5638 231.9489,-767.5446"/>
<polygon fill="#444444" fill-opacity="0.333333" stroke="#444444" stroke-opacity="0.333333" points="235.0081,-764.3805 224.6676,-766.6881 234.1902,-771.3326 235.0081,-764.3805"/>
</g>
<!-- net&#45;snmp&#45;&gt;mariadb&#45;connector&#45;c -->
<g id="edge26" class="edge">
<title>net&#45;snmp&#45;&gt;mariadb&#45;connector&#45;c</title>
<path fill="none" stroke="#444444" stroke-opacity="0.333333" d="M320.3231,-695.7904C326.1503,-693.9282 332.1253,-692.0188 338.0724,-690.1183"/>
<polygon fill="#444444" fill-opacity="0.333333" stroke="#444444" stroke-opacity="0.333333" points="339.5634,-693.3162 348.0234,-686.9382 337.4326,-686.6484 339.5634,-693.3162"/>
</g>
<!-- net&#45;snmp&#45;&gt;net&#45;snmp&#45;agent&#45;libs -->
<g id="edge27" class="edge">
<title>net&#45;snmp&#45;&gt;net&#45;snmp&#45;agent&#45;libs</title>
<path fill="none" stroke="#444444" stroke-opacity="0.333333" d="M287.162,-731.2997C296.0262,-738.8872 306.4713,-747.8278 316.0313,-756.0109"/>
<polygon fill="#444444" fill-opacity="0.333333" stroke="#444444" stroke-opacity="0.333333" points="313.9265,-758.8164 323.7995,-762.6603 318.4785,-753.4985 313.9265,-758.8164"/>
</g>
<!-- net&#45;snmp&#45;&gt;net&#45;snmp&#45;libs -->
<g id="edge28" class="edge">
<title>net&#45;snmp&#45;&gt;net&#45;snmp&#45;libs</title>
<path fill="none" stroke="#444444" stroke-opacity="0.333333" d="M215.9795,-731.1957C211.9065,-732.6652 207.7657,-734.1591 203.633,-735.6502"/>
<polygon fill="#444444" fill-opacity="0.333333" stroke="#444444" stroke-opacity="0.333333" points="202.2589,-732.425 194.0402,-739.1111 204.6346,-739.0096 202.2589,-732.425"/>
</g>
<!-- net&#45;snmp&#45;utils&#45;&gt;net&#45;snmp&#45;libs -->
<g id="edge29" class="edge">
<title>net&#45;snmp&#45;utils&#45;&gt;net&#45;snmp&#45;libs</title>
<path fill="none" stroke="#444444" stroke-opacity="0.333333" d="M101.6785,-708.6071C107.7028,-715.5341 114.6855,-723.5632 121.2178,-731.0744"/>
<polygon fill="#444444" fill-opacity="0.333333" stroke="#444444" stroke-opacity="0.333333" points="118.8595,-733.6962 128.0627,-738.945 124.1414,-729.1026 118.8595,-733.6962"/>
</g>
<!-- NetworkManager&#45;adsl&#45;&gt;NetworkManager -->
<g id="edge30" class="edge">
<title>NetworkManager&#45;adsl&#45;&gt;NetworkManager</title>
<path fill="none" stroke="#444444" stroke-opacity="0.333333" d="M941.8363,-588.0491C934.6179,-587.7041 927.3854,-587.3583 920.252,-587.0173"/>
<polygon fill="#444444" fill-opacity="0.333333" stroke="#444444" stroke-opacity="0.333333" points="920.0407,-583.5033 909.885,-586.5218 919.7064,-590.4953 920.0407,-583.5033"/>
</g>
<!-- NetworkManager&#45;&gt;libcurl&#45;minimal -->
<g id="edge31" class="edge">
<title>NetworkManager&#45;&gt;libcurl&#45;minimal</title>
<path fill="none" stroke="#444444" stroke-opacity="0.333333" d="M737.6214,-576.9404C729.7582,-576.4417 721.7465,-575.9336 713.7687,-575.4277"/>
<polygon fill="#444444" fill-opacity="0.333333" stroke="#444444" stroke-opacity="0.333333" points="713.8969,-571.9289 703.6954,-574.7889 713.4538,-578.9149 713.8969,-571.9289"/>
</g>
<!-- NetworkManager&#45;&gt;libndp -->
<g id="edge32" class="edge">
<title>NetworkManager&#45;&gt;libndp</title>
<path fill="none" stroke="#444444" stroke-opacity="0.333333" d="M907.4909,-600.4325C951.0161,-609.8133 1002.9211,-621.0001 1040.9102,-629.1878"/>
<polygon fill="#444444" fill-opacity="0.333333" stroke="#444444" stroke-opacity="0.333333" points="1040.2323,-632.622 1050.7453,-631.3075 1041.7072,-625.7791 1040.2323,-632.622"/>
</g>
<!-- NetworkManager&#45;&gt;libpsl -->
<g id="edge33" class="edge">
<title>NetworkManager&#45;&gt;libpsl</title>
<path fill="none" stroke="#444444" stroke-opacity="0.333333" d="M894.0493,-564.3773C923.1037,-556.9117 956.2422,-548.3967 983.231,-541.4619"/>
<polygon fill="#444444" fill-opacity="0.333333" stroke="#444444" stroke-opacity="0.333333" points="984.438,-544.7655 993.2524,-538.8869 982.6959,-537.9857 984.438,-544.7655"/>
</g>
<!-- NetworkManager&#45;&gt;NetworkManager&#45;libnm -->
<g id="edge34" class="edge">
<title>NetworkManager&#45;&gt;NetworkManager&#45;libnm</title>
<path fill="none" stroke="#444444" stroke-opacity="0.333333" d="M861.246,-600.6154C898.9479,-618.9795 957.2372,-647.3715 997.8566,-667.1567"/>
<polygon fill="#444444" fill-opacity="0.333333" stroke="#444444" stroke-opacity="0.333333" points="996.4861,-670.3822 1007.009,-671.6147 999.5514,-664.0891 996.4861,-670.3822"/>
</g>
<!-- NetworkManager&#45;bluetooth&#45;&gt;ModemManager&#45;glib -->
<g id="edge35" class="edge">
<title>NetworkManager&#45;bluetooth&#45;&gt;ModemManager&#45;glib</title>
<path fill="none" stroke="#444444" stroke-opacity="0.333333" d="M926.1047,-388.8325C933.8067,-386.9965 941.6689,-385.1222 949.4673,-383.2633"/>
<polygon fill="#444444" fill-opacity="0.333333" stroke="#444444" stroke-opacity="0.333333" points="950.3783,-386.6442 959.2941,-380.9207 948.7551,-379.835 950.3783,-386.6442"/>
</g>
<!-- NetworkManager&#45;bluetooth&#45;&gt;NetworkManager -->
<g id="edge36" class="edge">
<title>NetworkManager&#45;bluetooth&#45;&gt;NetworkManager</title>
<path fill="none" stroke="#444444" stroke-opacity="0.333333" d="M847.7325,-424.9857C843.0794,-455.6827 833.6183,-518.0989 828.1099,-554.4391"/>
<polygon fill="#444444" fill-opacity="0.333333" stroke="#444444" stroke-opacity="0.333333" points="824.6409,-553.9712 826.6026,-564.3829 831.5618,-555.0204 824.6409,-553.9712"/>
</g>
<!-- NetworkManager&#45;bluetooth&#45;&gt;bluez&#45;libs -->
<g id="edge37" class="edge">
<title>NetworkManager&#45;bluetooth&#45;&gt;bluez&#45;libs</title>
<path fill="none" stroke="#444444" stroke-opacity="0.333333" d="M850.6981,-388.6578C850.9447,-368.0766 851.3494,-334.3028 851.6381,-310.2103"/>
<polygon fill="#444444" fill-opacity="0.333333" stroke="#444444" stroke-opacity="0.333333" points="855.1415,-309.9455 851.7616,-299.9042 848.142,-309.8615 855.1415,-309.9455"/>
</g>
<!-- NetworkManager&#45;bluetooth&#45;&gt;NetworkManager&#45;wwan -->
<g id="edge38" class="edge">
<title>NetworkManager&#45;bluetooth&#45;&gt;NetworkManager&#45;wwan</title>
<path fill="none" stroke="#444444" stroke-opacity="0.333333" d="M975.0298,-424.8606C981.0697,-425.7336 987.1323,-426.6098 993.1672,-427.482"/>
<polygon fill="#444444" fill-opacity="0.333333" stroke="#444444" stroke-opacity="0.333333" points="992.8906,-430.9783 1003.2884,-428.9447 993.8919,-424.0502 992.8906,-430.9783"/>
</g>
<!-- NetworkManager&#45;wwan&#45;&gt;ModemManager -->
<g id="edge39" class="edge">
<title>NetworkManager&#45;wwan&#45;&gt;ModemManager</title>
<path fill="none" stroke="#444444" stroke-opacity="0.333333" d="M1126.9609,-427.1143C1139.9741,-405.8127 1161.7008,-370.248 1176.6809,-345.7267"/>
<polygon fill="#444444" fill-opacity="0.333333" stroke="#444444" stroke-opacity="0.333333" points="1179.8331,-347.2804 1182.0596,-336.9222 1173.8596,-343.6311 1179.8331,-347.2804"/>
</g>
<!-- NetworkManager&#45;wwan&#45;&gt;ModemManager&#45;glib -->
<g id="edge40" class="edge">
<title>NetworkManager&#45;wwan&#45;&gt;ModemManager&#45;glib</title>
<path fill="none" stroke="#444444" stroke-opacity="0.333333" d="M1097.9679,-426.9394C1086.8793,-415.6354 1072.4797,-400.956 1060.2598,-388.4987"/>
<polygon fill="#444444" fill-opacity="0.333333" stroke="#444444" stroke-opacity="0.333333" points="1062.4833,-385.7673 1052.982,-381.0795 1057.4862,-390.6692 1062.4833,-385.7673"/>
</g>
<!-- NetworkManager&#45;wwan&#45;&gt;NetworkManager -->
<g id="edge41" class="edge">
<title>NetworkManager&#45;wwan&#45;&gt;NetworkManager</title>
<path fill="none" stroke="#444444" stroke-opacity="0.333333" d="M1077.4219,-463.2963C1024.4585,-488.1774 929.1374,-532.9574 871.6659,-559.9564"/>
<polygon fill="#444444" fill-opacity="0.333333" stroke="#444444" stroke-opacity="0.333333" points="869.9961,-556.8738 862.4333,-564.2937 872.9726,-563.2095 869.9961,-556.8738"/>
</g>
<!-- NetworkManager&#45;team&#45;&gt;NetworkManager -->
<g id="edge42" class="edge">
<title>NetworkManager&#45;team&#45;&gt;NetworkManager</title>
<path fill="none" stroke="#444444" stroke-opacity="0.333333" d="M685.1245,-671.4499C713.1745,-653.4488 756.2512,-625.8044 786.9597,-606.0972"/>
<polygon fill="#444444" fill-opacity="0.333333" stroke="#444444" stroke-opacity="0.333333" points="789.1401,-608.8567 795.6657,-600.5101 785.3593,-602.9655 789.1401,-608.8567"/>
</g>
<!-- NetworkManager&#45;team&#45;&gt;teamd -->
<g id="edge43" class="edge">
<title>NetworkManager&#45;team&#45;&gt;teamd</title>
<path fill="none" stroke="#444444" stroke-opacity="0.333333" d="M657.464,-707.842C658.1831,-726.978 659.324,-757.3369 660.1599,-779.5791"/>
<polygon fill="#444444" fill-opacity="0.333333" stroke="#444444" stroke-opacity="0.333333" points="656.6693,-779.8997 660.5425,-789.7612 663.6644,-779.6368 656.6693,-779.8997"/>
</g>
<!-- teamd&#45;&gt;libteam -->
<g id="edge44" class="edge">
<title>teamd&#45;&gt;libteam</title>
<path fill="none" stroke="#444444" stroke-opacity="0.333333" d="M675.2559,-826.1097C679.3866,-831.5012 683.9924,-837.5127 688.4371,-843.314"/>
<polygon fill="#444444" fill-opacity="0.333333" stroke="#444444" stroke-opacity="0.333333" points="685.8997,-845.757 694.7598,-851.5663 691.4563,-841.4997 685.8997,-845.757"/>
</g>
<!-- NetworkManager&#45;tui&#45;&gt;NetworkManager -->
<g id="edge45" class="edge">
<title>NetworkManager&#45;tui&#45;&gt;NetworkManager</title>
<path fill="none" stroke="#444444" stroke-opacity="0.333333" d="M1062.8841,-730.0796C1014.0086,-699.8829 915.7175,-639.156 861.6521,-605.7528"/>
<polygon fill="#444444" fill-opacity="0.333333" stroke="#444444" stroke-opacity="0.333333" points="863.3968,-602.7167 853.0499,-600.4382 859.7176,-608.6718 863.3968,-602.7167"/>
</g>
<!-- NetworkManager&#45;tui&#45;&gt;NetworkManager&#45;libnm -->
<g id="edge46" class="edge">
<title>NetworkManager&#45;tui&#45;&gt;NetworkManager&#45;libnm</title>
<path fill="none" stroke="#444444" stroke-opacity="0.333333" d="M1077.2067,-729.972C1073.5472,-725.5103 1069.5569,-720.6453 1065.6559,-715.8891"/>
<polygon fill="#444444" fill-opacity="0.333333" stroke="#444444" stroke-opacity="0.333333" points="1068.297,-713.5902 1059.2491,-708.0779 1062.8847,-718.0295 1068.297,-713.5902"/>
</g>
<!-- NetworkManager&#45;tui&#45;&gt;newt -->
<g id="edge47" class="edge">
<title>NetworkManager&#45;tui&#45;&gt;newt</title>
<path fill="none" stroke="#444444" stroke-opacity="0.333333" d="M1101.7138,-766.1429C1113.6198,-788.4504 1134.0139,-826.6618 1147.8176,-852.525"/>
<polygon fill="#444444" fill-opacity="0.333333" stroke="#444444" stroke-opacity="0.333333" points="1144.7807,-854.2684 1152.577,-861.4426 1150.9562,-850.9724 1144.7807,-854.2684"/>
</g>
<!-- newt&#45;&gt;slang -->
<g id="edge48" class="edge">
<title>newt&#45;&gt;slang</title>
<path fill="none" stroke="#444444" stroke-opacity="0.333333" d="M1160.6889,-897.8927C1159.8084,-907.8577 1158.6982,-920.4209 1157.7071,-931.6372"/>
<polygon fill="#444444" fill-opacity="0.333333" stroke="#444444" stroke-opacity="0.333333" points="1154.1986,-931.5802 1156.8047,-941.8495 1161.1714,-932.1964 1154.1986,-931.5802"/>
</g>
<!-- NetworkManager&#45;wifi&#45;&gt;NetworkManager -->
<g id="edge49" class="edge">
<title>NetworkManager&#45;wifi&#45;&gt;NetworkManager</title>
<path fill="none" stroke="#444444" stroke-opacity="0.333333" d="M858.0602,-715.4949C851.3754,-689.4745 839.0457,-641.4814 831.1628,-610.7971"/>
<polygon fill="#444444" fill-opacity="0.333333" stroke="#444444" stroke-opacity="0.333333" points="834.4547,-609.5445 828.5765,-600.7299 827.6749,-611.2863 834.4547,-609.5445"/>
</g>
<!-- NetworkManager&#45;wifi&#45;&gt;wpa_supplicant -->
<g id="edge50" class="edge">
<title>NetworkManager&#45;wifi&#45;&gt;wpa_supplicant</title>
<path fill="none" stroke="#444444" stroke-opacity="0.333333" d="M874.7676,-751.7931C881.9384,-762.5592 891.1754,-776.4274 899.1722,-788.4338"/>
<polygon fill="#444444" fill-opacity="0.333333" stroke="#444444" stroke-opacity="0.333333" points="896.2722,-790.3935 904.7287,-796.7762 902.0982,-786.5131 896.2722,-790.3935"/>
</g>
<!-- psl&#45;&gt;libpsl -->
<g id="edge51" class="edge">
<title>psl&#45;&gt;libpsl</title>
<path fill="none" stroke="#444444" stroke-opacity="0.333333" d="M1121.4395,-523.3434C1111.8065,-523.8482 1100.6058,-524.4352 1089.5576,-525.0142"/>
<polygon fill="#444444" fill-opacity="0.333333" stroke="#444444" stroke-opacity="0.333333" points="1089.3068,-521.5224 1079.5037,-525.5411 1089.6732,-528.5129 1089.3068,-521.5224"/>
</g>
<!-- realmd&#45;&gt;authconfig -->
<g id="edge52" class="edge">
<title>realmd&#45;&gt;authconfig</title>
<path fill="none" stroke="#444444" stroke-opacity="0.333333" d="M1167.7616,-18.0005C1149.16,-18.0007 1126.8533,-18.0009 1105.6956,-18.0012"/>
<polygon fill="#444444" fill-opacity="0.333333" stroke="#444444" stroke-opacity="0.333333" points="1105.4227,-14.5011 1095.4227,-18.0013 1105.4228,-21.5011 1105.4227,-14.5011"/>
</g>
<!-- xmlrpc&#45;c&#45;client&#45;&gt;libcurl&#45;minimal -->
<g id="edge53" class="edge">
<title>xmlrpc&#45;c&#45;client&#45;&gt;libcurl&#45;minimal</title>
<path fill="none" stroke="#444444" stroke-opacity="0.333333" d="M533.9555,-543.0098C538.6465,-544.5613 543.42,-546.14 548.1785,-547.7138"/>
<polygon fill="#444444" fill-opacity="0.333333" stroke="#444444" stroke-opacity="0.333333" points="547.3006,-551.1099 557.8939,-550.927 549.4987,-544.4639 547.3006,-551.1099"/>
</g>
<!-- authconfig -->
<g id="node1" class="node">
<title>authconfig</title>
<text text-anchor="middle" x="1030.8" y="-14.302" font-family="monospace" font-size="14.00" fill="#000000">authconfig</text>
</g>
<!-- python3&#45;sssdconfig -->
<g id="node2" class="node">
<title>python3&#45;sssdconfig</title>
<text text-anchor="middle" x="851.24" y="-14.3" font-family="monospace" font-size="14.00" fill="#000000">python3&#45;sssdconfig</text>
</g>
<!-- curl&#45;minimal -->
<g id="node3" class="node">
<title>curl&#45;minimal</title>
<text text-anchor="middle" x="432.91" y="-410.46" font-family="monospace" font-size="14.00" fill="#000000">curl&#45;minimal</text>
</g>
<!-- libcurl&#45;minimal -->
<g id="node4" class="node">
<title>libcurl&#45;minimal</title>
<text text-anchor="middle" x="612.57" y="-565.31" font-family="monospace" font-size="14.00" fill="#000000">libcurl&#45;minimal</text>
</g>
<!-- firewalld -->
<g id="node5" class="node">
<title>firewalld</title>
<text text-anchor="middle" x="267.42" y="-67.324" font-family="monospace" font-size="14.00" fill="#000000">firewalld</text>
</g>
<!-- firewalld&#45;filesystem -->
<g id="node6" class="node">
<title>firewalld&#45;filesystem</title>
<text text-anchor="middle" x="323.69" y="-14.3" font-family="monospace" font-size="14.00" fill="#000000">firewalld&#45;filesystem</text>
</g>
<!-- python3&#45;firewall -->
<g id="node7" class="node">
<title>python3&#45;firewall</title>
<text text-anchor="middle" x="246.27" y="-156.93" font-family="monospace" font-size="14.00" fill="#000000">python3&#45;firewall</text>
</g>
<!-- python3&#45;decorator -->
<g id="node8" class="node">
<title>python3&#45;decorator</title>
<text text-anchor="middle" x="236.21" y="-217.52" font-family="monospace" font-size="14.00" fill="#000000">python3&#45;decorator</text>
</g>
<!-- python3&#45;slip&#45;dbus -->
<g id="node9" class="node">
<title>python3&#45;slip&#45;dbus</title>
<text text-anchor="middle" x="308.99" y="-280.62" font-family="monospace" font-size="14.00" fill="#000000">python3&#45;slip&#45;dbus</text>
</g>
<!-- python3&#45;slip -->
<g id="node10" class="node">
<title>python3&#45;slip</title>
<text text-anchor="middle" x="242.6" y="-327.23" font-family="monospace" font-size="14.00" fill="#000000">python3&#45;slip</text>
</g>
<!-- libmbim -->
<g id="node11" class="node">
<title>libmbim</title>
<text text-anchor="middle" x="1276.3" y="-183.09" font-family="monospace" font-size="14.00" fill="#000000">libmbim</text>
</g>
<!-- libgudev -->
<g id="node12" class="node">
<title>libgudev</title>
<text text-anchor="middle" x="1163.4" y="-173.79" font-family="monospace" font-size="14.00" fill="#000000">libgudev</text>
</g>
<!-- libmbim&#45;utils -->
<g id="node13" class="node">
<title>libmbim&#45;utils</title>
<text text-anchor="middle" x="1300.6" y="-227.1" font-family="monospace" font-size="14.00" fill="#000000">libmbim&#45;utils</text>
</g>
<!-- libqmi -->
<g id="node14" class="node">
<title>libqmi</title>
<text text-anchor="middle" x="1335.1" y="-326.82" font-family="monospace" font-size="14.00" fill="#000000">libqmi</text>
</g>
<!-- libqmi&#45;utils -->
<g id="node15" class="node">
<title>libqmi&#45;utils</title>
<text text-anchor="middle" x="1341.3" y="-271.13" font-family="monospace" font-size="14.00" fill="#000000">libqmi&#45;utils</text>
</g>
<!-- mariadb&#45;connector&#45;c -->
<g id="node16" class="node">
<title>mariadb&#45;connector&#45;c</title>
<text text-anchor="middle" x="404.5" y="-665.19" font-family="monospace" font-size="14.00" fill="#000000">mariadb&#45;connector&#45;c</text>
</g>
<!-- ModemManager -->
<g id="node17" class="node">
<title>ModemManager</title>
<text text-anchor="middle" x="1193.1" y="-315.15" font-family="monospace" font-size="14.00" fill="#000000">ModemManager</text>
</g>
<!-- ModemManager&#45;glib -->
<g id="node18" class="node">
<title>ModemManager&#45;glib</title>
<text text-anchor="middle" x="1035.1" y="-359.15" font-family="monospace" font-size="14.00" fill="#000000">ModemManager&#45;glib</text>
</g>
<!-- net&#45;snmp&#45;agent&#45;libs -->
<g id="node19" class="node">
<title>net&#45;snmp&#45;agent&#45;libs</title>
<text text-anchor="middle" x="345.05" y="-777.15" font-family="monospace" font-size="14.00" fill="#000000">net&#45;snmp&#45;agent&#45;libs</text>
</g>
<!-- net&#45;snmp&#45;libs -->
<g id="node20" class="node">
<title>net&#45;snmp&#45;libs</title>
<text text-anchor="middle" x="143.93" y="-753.49" font-family="monospace" font-size="14.00" fill="#000000">net&#45;snmp&#45;libs</text>
</g>
<!-- net&#45;snmp -->
<g id="node21" class="node">
<title>net&#45;snmp</title>
<text text-anchor="middle" x="265.97" y="-709.46" font-family="monospace" font-size="14.00" fill="#000000">net&#45;snmp</text>
</g>
<!-- net&#45;snmp&#45;utils -->
<g id="node22" class="node">
<title>net&#45;snmp&#45;utils</title>
<text text-anchor="middle" x="85.792" y="-686.64" font-family="monospace" font-size="14.00" fill="#000000">net&#45;snmp&#45;utils</text>
</g>
<!-- NetworkManager&#45;adsl -->
<g id="node23" class="node">
<title>NetworkManager&#45;adsl</title>
<text text-anchor="middle" x="1054.4" y="-589.73" font-family="monospace" font-size="14.00" fill="#000000">NetworkManager&#45;adsl</text>
</g>
<!-- NetworkManager -->
<g id="node24" class="node">
<title>NetworkManager</title>
<text text-anchor="middle" x="823.87" y="-578.71" font-family="monospace" font-size="14.00" fill="#000000">NetworkManager</text>
</g>
<!-- libndp -->
<g id="node25" class="node">
<title>libndp</title>
<text text-anchor="middle" x="1094" y="-636.93" font-family="monospace" font-size="14.00" fill="#000000">libndp</text>
</g>
<!-- libpsl -->
<g id="node26" class="node">
<title>libpsl</title>
<text text-anchor="middle" x="1036.4" y="-524.1" font-family="monospace" font-size="14.00" fill="#000000">libpsl</text>
</g>
<!-- NetworkManager&#45;libnm -->
<g id="node27" class="node">
<title>NetworkManager&#45;libnm</title>
<text text-anchor="middle" x="1044.2" y="-686.03" font-family="monospace" font-size="14.00" fill="#000000">NetworkManager&#45;libnm</text>
</g>
<!-- NetworkManager&#45;bluetooth -->
<g id="node28" class="node">
<title>NetworkManager&#45;bluetooth</title>
<text text-anchor="middle" x="850.48" y="-403.16" font-family="monospace" font-size="14.00" fill="#000000">NetworkManager&#45;bluetooth</text>
</g>
<!-- bluez&#45;libs -->
<g id="node29" class="node">
<title>bluez&#45;libs</title>
<text text-anchor="middle" x="851.98" y="-277.98" font-family="monospace" font-size="14.00" fill="#000000">bluez&#45;libs</text>
</g>
<!-- NetworkManager&#45;wwan -->
<g id="node30" class="node">
<title>NetworkManager&#45;wwan</title>
<text text-anchor="middle" x="1115.9" y="-441.52" font-family="monospace" font-size="14.00" fill="#000000">NetworkManager&#45;wwan</text>
</g>
<!-- NetworkManager&#45;team -->
<g id="node31" class="node">
<title>NetworkManager&#45;team</title>
<text text-anchor="middle" x="656.78" y="-685.94" font-family="monospace" font-size="14.00" fill="#000000">NetworkManager&#45;team</text>
</g>
<!-- teamd -->
<g id="node32" class="node">
<title>teamd</title>
<text text-anchor="middle" x="661.22" y="-804.09" font-family="monospace" font-size="14.00" fill="#000000">teamd</text>
</g>
<!-- libteam -->
<g id="node33" class="node">
<title>libteam</title>
<text text-anchor="middle" x="708.86" y="-866.27" font-family="monospace" font-size="14.00" fill="#000000">libteam</text>
</g>
<!-- NetworkManager&#45;tui -->
<g id="node34" class="node">
<title>NetworkManager&#45;tui</title>
<text text-anchor="middle" x="1092.1" y="-744.43" font-family="monospace" font-size="14.00" fill="#000000">NetworkManager&#45;tui</text>
</g>
<!-- newt -->
<g id="node35" class="node">
<title>newt</title>
<text text-anchor="middle" x="1162.3" y="-875.96" font-family="monospace" font-size="14.00" fill="#000000">newt</text>
</g>
<!-- slang -->
<g id="node36" class="node">
<title>slang</title>
<text text-anchor="middle" x="1155.2" y="-956.31" font-family="monospace" font-size="14.00" fill="#000000">slang</text>
</g>
<!-- NetworkManager&#45;wifi -->
<g id="node37" class="node">
<title>NetworkManager&#45;wifi</title>
<text text-anchor="middle" x="862.75" y="-730.05" font-family="monospace" font-size="14.00" fill="#000000">NetworkManager&#45;wifi</text>
</g>
<!-- wpa_supplicant -->
<g id="node38" class="node">
<title>wpa_supplicant</title>
<text text-anchor="middle" x="916.9" y="-811.35" font-family="monospace" font-size="14.00" fill="#000000">wpa_supplicant</text>
</g>
<!-- psl -->
<g id="node39" class="node">
<title>psl</title>
<text text-anchor="middle" x="1148.6" y="-518.22" font-family="monospace" font-size="14.00" fill="#000000">psl</text>
</g>
<!-- realmd -->
<g id="node40" class="node">
<title>realmd</title>
<text text-anchor="middle" x="1210.9" y="-14.3" font-family="monospace" font-size="14.00" fill="#000000">realmd</text>
</g>
<!-- xmlrpc&#45;c&#45;client -->
<g id="node41" class="node">
<title>xmlrpc&#45;c&#45;client</title>
<text text-anchor="middle" x="479.41" y="-521.27" font-family="monospace" font-size="14.00" fill="#000000">xmlrpc&#45;c&#45;client</text>
</g>
</g>
</svg>
