<?xml version="1.0" encoding="UTF-8" standalone="no"?>
<!DOCTYPE svg PUBLIC "-//W3C//DTD SVG 1.1//EN"
 "http://www.w3.org/Graphics/SVG/1.1/DTD/svg11.dtd">
<!-- Generated by graphviz version 2.40.1 (20161225.0304)
 -->
<!-- Title: G Pages: 1 -->
<svg width="2794pt" height="1689pt"
 viewBox="0.00 0.00 2793.95 1688.81" xmlns="http://www.w3.org/2000/svg" xmlns:xlink="http://www.w3.org/1999/xlink">
<g id="graph0" class="graph" transform="scale(1 1) rotate(0) translate(125.1816 1543.4091)">
<title>G</title>
<polygon fill="#dae2ff" stroke="transparent" points="-125.1816,145.3983 -125.1816,-1543.4091 2668.7729,-1543.4091 2668.7729,145.3983 -125.1816,145.3983"/>
<polygon fill="#c5e2ce" stroke="#c5e2ce" points="879.6825,-545.4489 868.0947,-555.5455 867.879,-555.7101 858.8137,-563.5947 842.9114,-578.2755 834.3105,-586.6372 855.6165,-603.4769 861.3372,-607.481 868.0245,-612.4706 878.5236,-619.796 880.1144,-620.8267 891.2391,-626.9839 904.4501,-633.6631 910.0449,-635.9437 923.5326,-640.7959 925.9022,-641.5311 928.0579,-642.0955 947.7968,-645.3936 952.3077,-645.9272 956.4377,-646.2162 966.2671,-645.9592 970.0645,-646.0449 979.2813,-646.7015 976.5829,-572.0712 983.256,-572.0712 983.3257,-572.046 987.054,-572.046 989.5903,-574.8274 989.5903,-574.8274 987.054,-572.046 983.3257,-572.046 983.256,-572.0712 976.5829,-572.0712 979.2813,-646.7015 982.9947,-647.1461 988.0518,-647.9974 1005.9778,-652.7903 1008.955,-650.1006 1016.488,-644.4568 1021.2736,-641.2302 1024.6405,-639.2079 1071.7639,-614.278 1074.5167,-585.4484 1074.6096,-582.0167 1075.261,-578.1213 1075.9822,-552.1009 1083.0886,-477.6773 1120.1119,-470.4978 1131.9779,-467.8211 1141.4263,-465.0954 1149.5825,-462.2253 1161.9865,-457.4654 1177.7892,-450.4052 1185.3442,-446.5611 1195.755,-440.6064 1202.411,-436.3748 1183.4366,-373.0615 1180.14,-359.1545 1170.2919,-311.2 1168.1797,-304.1519 1179.0243,-282.4854 1206.8771,-265.1024 1213.0631,-261.8977 1222.2784,-257.6045 1232.0225,-253.586 1231.922,-228.8717 1235.4176,-181.9595 1234.0009,-181.49 1239.7913,-111.792 1228.2698,-118.1399 1218.1613,-123.0057 1216.493,-123.6887 1216.493,-123.6887 1218.1613,-123.0057 1228.2698,-118.1399 1239.7913,-111.792 1234.0009,-181.49 1235.4176,-181.9595 1231.922,-228.8717 1232.0225,-253.586 1242.666,-250.3407 1253.2209,-247.6935 1252.1075,-229.9315 1252.6758,-185.9538 1258.6206,-185.9538 1265.0332,-181.5139 1264.697,-181.0817 1258.8262,-177.2621 1258.8262,-177.2621 1264.697,-181.0817 1265.0332,-181.5139 1258.6206,-185.9538 1252.6758,-185.9538 1252.1075,-229.9315 1253.2209,-247.6935 1258.0293,-247.0073 1258.318,-246.9815 1273.3639,-246.4318 1274.7207,-246.4549 1275.0809,-246.4803 1286.1064,-246.076 1290.7135,-246.4019 1295.9559,-246.2104 1298.8521,-246.2596 1305.1613,-246.7047 1305.907,-246.6777 1308.0431,-246.7137 1311.1896,-246.5994 1324.468,-245.4036 1337.2906,-242.8725 1342.1908,-241.6461 1345.2163,-240.7288 1348.5425,-239.5421 1360.4248,-234.6536 1361.7572,-234.0353 1374.3849,-227.4893 1403.6116,-209.2488 1416.5522,-181.68 1460.2117,-105.8718 1405.7885,-57.2457 1322.9272,-29.4734 1303.5393,-52.6523 1295.8018,-60.6153 1196.3512,-72.8881 1181.3668,-70.9268 1181.3127,-25.4627 1178.8684,-27.8259 1165.6555,-38.8024 1156.0016,-43.9189 1152.0557,-45.4158 1143.5422,-47.4064 1145.4019,-74.5294 1148.0432,-77.1129 1144.6455,-80.5538 1139.4661,-82.2399 1139.4661,-82.2399 1144.6455,-80.5538 1148.0432,-77.1129 1145.4019,-74.5294 1143.5422,-47.4064 1152.0557,-45.4158 1156.0016,-43.9189 1165.6555,-38.8024 1178.8684,-27.8259 1181.3127,-25.4627 1181.3668,-70.9268 1196.3512,-72.8881 1295.8018,-60.6153 1303.5393,-52.6523 1322.9272,-29.4734 1267.6664,43.7875 1258.7987,66.3651 1181.1407,138.0462 1133.933,131.9078 1133.7823,118.3626 1135.4226,-11.3195 1135.4226,-11.3195 1133.7823,118.3626 1133.933,131.9078 1122.4227,130.9114 1103.7793,130.1082 1093.3586,130.1131 1092.0262,130.1427 1089.2748,130.2635 1088.1832,130.3352 1071.8662,131.7628 1047.0209,135.5634 1020.2515,141.3983 1009.5889,137.3849 981.0858,125.7422 929.235,93.9476 882.0237,10.6573 883.1531,2.8618 883.5643,1.4372 897.3051,-54.0044 911.3007,-115.9893 878.5967,-201.1516 865.24,-232.4726 855.9396,-253.3013 865.6205,-261.4521 871.0417,-265.5779 884.2399,-275.276 897.1147,-284.0485 902.5627,-293.5368 949.6058,-368.39 980.068,-429.9583 996.1136,-459.4123 1000.3571,-466.6299 999.3934,-467.6006 998.9408,-467.9999 993.1644,-472.7654 990.8589,-474.8012 982.293,-481.8366 980.7375,-483.0163 966.4991,-492.9553 902.8655,-529.3499 891.6896,-536.4202 879.6825,-545.4489 879.6825,-545.4489"/>
<polygon fill="#d1e2cd" stroke="#d1e2cd" points="1007.5359,-865.0154 1007.1246,-867.5141 1004.4536,-880.9283 1012.1342,-888.2343 1013.2775,-889.2446 1015.8537,-891.691 1021.1933,-896.3884 1036.7927,-908.0219 1048.2583,-914.9838 1061.4655,-921.1934 1073.2533,-925.1122 1077.3641,-926.1927 1084.3019,-927.5412 1084.7795,-927.6013 1091.476,-927.9919 1100.3469,-927.9018 1104.8943,-928.1627 1105.3234,-928.2164 1112.1786,-928.5994 1119.6545,-929.5211 1128.3293,-931.173 1133.4962,-932.4985 1181.2858,-951.1964 1185.8302,-964.0813 1215.7434,-1032.1755 1220.7407,-1042.7576 1255.9503,-1012.1957 1267.6637,-1002.7638 1268.1498,-1002.3412 1281.8425,-992.2971 1353.9606,-944.4629 1356.6692,-942.3309 1363.5349,-937.3669 1363.7603,-937.1909 1367.9933,-937.0122 1372.2242,-936.9945 1376.7712,-936.6389 1391.8228,-934.901 1404.0299,-932.5879 1415.647,-929.5281 1422.6852,-927.1536 1433.2115,-923.2098 1480.6,-903.7191 1527.1757,-858.174 1539.4446,-845.23 1540.9094,-843.8365 1557.2037,-827.7845 1562.5385,-821.9997 1567.8699,-818.807 1568.3207,-818.5276 1585.7939,-807.3254 1601.1798,-796.4932 1606.2977,-792.6754 1628.8735,-781.5174 1683.1093,-753.8374 1729.8856,-712.0336 1694.2887,-649.5345 1690.7832,-643.216 1622.2384,-512.7667 1617.0081,-508.3403 1548.2179,-483.2943 1535.3774,-479.0817 1522.0214,-475.1813 1501.5093,-470.2973 1485.0277,-466.9694 1481.093,-466.3885 1423.7108,-475.0926 1416.2448,-476.0835 1416.0763,-482.1311 1410.5441,-599.0621 1412.084,-645.4067 1411.2273,-645.6949 1413.8474,-687.3242 1401.2793,-682.826 1401.0223,-682.7634 1394.1011,-681.8216 1389.0984,-681.6843 1383.9967,-682.1014 1383.9668,-683.154 1378.9666,-717.9069 1378.7137,-718.1186 1374.8275,-718.1186 1374.8275,-718.1186 1378.7137,-718.1186 1378.9666,-717.9069 1383.9668,-683.154 1383.9967,-682.1014 1389.0984,-681.6843 1394.1011,-681.8216 1401.0223,-682.7634 1401.2793,-682.826 1413.8474,-687.3242 1411.2273,-645.6949 1408.8903,-645.6949 1405.0831,-641.7749 1400.4426,-640.3107 1400.4426,-640.3107 1405.0831,-641.7749 1408.8903,-645.6949 1411.2273,-645.6949 1412.084,-645.4067 1410.5441,-599.0621 1416.0763,-482.1311 1416.2448,-476.0835 1391.8898,-477.9337 1375.1271,-478.2518 1371.9874,-478.1923 1369.9897,-478.2297 1354.0081,-478.8306 1346.5836,-479.2495 1344.218,-479.4275 1335.9114,-480.5233 1297.4901,-580.57 1287.9336,-615.0336 1285.6038,-622.4036 1261.3219,-641.4955 1248.0597,-675.89 1241.5497,-705.2438 1236.8458,-719.1761 1233.2373,-721.1159 1219.9197,-726.5556 1205.5219,-730.5616 1190.377,-731.832 1183.5776,-731.9609 1183.5568,-731.9641 1180.9507,-732.1916 1181.1302,-788.3417 1186.943,-788.3417 1187.8567,-788.0333 1190.0809,-788.0333 1193.5935,-784.5231 1198.6267,-782.9121 1205.441,-785.3604 1208.024,-788.1193 1211.1412,-788.1193 1212.6884,-833.8912 1218.6217,-788.4229 1223.3894,-788.4229 1225.1299,-787.8325 1228.1781,-787.8325 1228.2284,-787.8494 1232.7485,-816.7901 1236.7388,-789.7476 1241.6006,-794.1114 1244.1847,-841.2395 1250.7017,-835.7581 1251.9978,-834.4808 1251.9978,-834.4808 1250.7017,-835.7581 1244.1847,-841.2395 1241.6006,-794.1114 1236.7388,-789.7476 1232.7485,-816.7901 1228.2284,-787.8494 1228.1781,-787.8325 1225.1299,-787.8325 1223.3894,-788.4229 1218.6217,-788.4229 1212.6884,-833.8912 1211.1412,-788.1193 1208.024,-788.1193 1205.441,-785.3604 1198.6267,-782.9121 1193.5935,-784.5231 1190.0809,-788.0333 1192.9341,-790.8152 1199.041,-792.8635 1199.041,-792.8635 1192.9341,-790.8152 1190.0809,-788.0333 1187.8567,-788.0333 1186.943,-788.3417 1181.1302,-788.3417 1180.9507,-732.1916 1177.0226,-732.2811 1173.4758,-732.1327 1173.1438,-732.0971 1162.0916,-731.6528 1161.774,-731.6194 1154.483,-731.8282 1154.0574,-731.8688 1146.6582,-732.0942 1131.2021,-734.6334 1120.1514,-737.9169 1105.6807,-744.1524 1094.1854,-750.6173 1082.3452,-758.8418 1059.1985,-777.9989 1048.7977,-779.242 1016.961,-810.4547 1015.9139,-814.9622 1007.9091,-863.1566 1007.5359,-865.0154 1007.5359,-865.0154"/>
<polygon fill="#fdd9a7" stroke="#fdd9a7" points="1170.2919,-311.2 1249.7585,-311.2 1260.3071,-312.5992 1274.7745,-317.9727 1279.6725,-315.1702 1284.7469,-345.5281 1287.0481,-311.4168 1293.1854,-311.4168 1293.5852,-311.2838 1297.2325,-311.2838 1298.483,-311.6998 1303.8981,-311.6998 1307.5947,-384.3297 1310.6851,-311.5753 1315.803,-311.5753 1315.911,-311.7117 1315.911,-311.7117 1315.803,-311.5753 1310.6851,-311.5753 1307.5947,-384.3297 1303.8981,-311.6998 1298.483,-311.6998 1297.2325,-311.2838 1293.5852,-311.2838 1293.1854,-311.4168 1287.0481,-311.4168 1284.7469,-345.5281 1279.6725,-315.1702 1274.7745,-317.9727 1260.3071,-312.5992 1249.7585,-311.2 1170.2919,-311.2 1180.14,-359.1545 1183.4366,-373.0615 1202.411,-436.3748 1263.0796,-452.6381 1287.1969,-459.6893 1296.9078,-463.2191 1307.9448,-467.494 1319.1572,-472.3683 1332.6754,-478.8872 1335.9114,-480.5233 1344.218,-479.4275 1346.5836,-479.2495 1354.0081,-478.8306 1369.9897,-478.2297 1371.9874,-478.1923 1375.1271,-478.2518 1391.8898,-477.9337 1416.2448,-476.0835 1423.7108,-475.0926 1481.093,-466.3885 1485.0277,-466.9694 1501.5093,-470.2973 1522.0214,-475.1813 1535.3774,-479.0817 1548.2179,-483.2943 1617.0081,-508.3403 1622.2384,-512.7667 1690.7832,-643.216 1694.2887,-649.5345 1729.8856,-712.0336 1740.1503,-713.4343 1772.6603,-708.7141 1830.5072,-652.9071 1838.0179,-645.8474 1849.165,-635.6478 1870.1437,-617.5098 1888.3252,-603.1997 1879.6062,-415.8399 1885.5212,-417.7969 1885.5212,-417.7969 1879.6062,-415.8399 1888.3252,-603.1997 1895.5122,-597.7335 1896.3389,-597.1689 1922.8086,-580.3939 1932.5814,-574.7078 2025.9325,-525.1944 2092.5671,-458.438 2153.9858,-444.7029 2228.7419,-467.5438 2239.8684,-471.4008 2253.3145,-469.5241 2271.7966,-467.9763 2279.6338,-467.6115 2294.0181,-467.4759 2318.7402,-474.9345 2395.3462,-459.7374 2396.2134,-459.6047 2416.4465,-456.9625 2416.9138,-367.7613 2409.8782,-309.3036 2405.2654,-309.3036 2404.3357,-308.9841 2399.4529,-308.9841 2399.4529,-308.9841 2404.3357,-308.9841 2405.2654,-309.3036 2409.8782,-309.3036 2416.9138,-367.7613 2416.4465,-456.9625 2434.8569,-455.8111 2444.9529,-455.638 2458.7292,-456.0269 2467.2749,-456.6555 2470.7651,-456.9914 2473.3601,-309.4839 2466.958,-309.4839 2466.4021,-309.2891 2461.3667,-309.2891 2460.5574,-309.0051 2457.2463,-309.0051 2454.147,-305.826 2448.6638,-304.0293 2448.6638,-304.0293 2454.147,-305.826 2457.2463,-309.0051 2460.5574,-309.0051 2461.3667,-309.2891 2466.4021,-309.2891 2466.958,-309.4839 2473.3601,-309.4839 2470.7651,-456.9914 2475.4788,-457.5521 2487.3376,-459.2328 2490.6553,-458.3454 2489.2441,-353.8791 2489.2441,-353.8791 2490.6553,-458.3454 2504.6377,-455.2648 2574.7212,-443.1316 2637.7949,-388.4996 2650.7073,-323.3368 2661.4055,-279.1631 2504.3247,-303.7313 2500.6328,-308.1306 2500.6328,-308.1306 2504.3247,-303.7313 2661.4055,-279.1631 2664.7729,-266.3586 2664.5684,-255.1899 2638.0098,-211.2978 2591.1465,-185.4136 2538.2744,-161.038 2507.1311,-161.1064 2483.5325,-160.0997 2466.9158,-158.2748 2463.865,-157.8035 2463.5598,-157.7495 2449.0032,-154.8436 2441.2339,-155.3521 2419.0154,-155.3689 2417.5852,-155.2777 2410.8806,-154.7053 2390.9429,-152.5719 2375.1973,-150.2113 2294.5891,-105.4909 2291.1624,-105.6226 2274.1277,-105.9414 2269.3508,-105.9364 2260.2375,-105.5671 2253.8618,-105.1827 2243.1602,-104.3259 2242.5012,-104.2601 2236.8843,-106.0684 2222.3364,-110.4364 2134.2085,-134.9589 2077.0854,-119.7428 2059.7239,-126.3738 2037.9092,-133.7581 2037.5549,-133.8701 2027.7074,-136.7662 2017.3123,-139.3642 1997.1233,-143.0822 1987.2158,-144.6872 1988.1945,-193.3592 1983.5584,-292.9993 1984.9047,-293.4669 1989.4039,-293.4669 1989.9874,-293.2669 1995.6147,-293.2669 1997.0225,-292.7751 2001.8079,-292.7751 2002.1563,-293.2554 2008.2035,-297.4126 2008.2035,-297.4126 2002.1563,-293.2554 2001.8079,-292.7751 1997.0225,-292.7751 1995.6147,-293.2669 1989.9874,-293.2669 1989.4039,-293.4669 1984.9047,-293.4669 1983.5584,-292.9993 1988.1945,-193.3592 1987.2158,-144.6872 1983.4675,-145.0462 1972.2826,-145.8724 1963.4221,-146.3319 1956.2017,-146.5473 1890.3412,-157.6776 1836.6824,-136.8904 1821.848,-137.2815 1800.8508,-137.3975 1792.3073,-137.088 1792.8448,-290.449 1792.4268,-290.5845 1787.3652,-290.5845 1786.7806,-290.7752 1781.4437,-290.7752 1781.0791,-290.6537 1781.0791,-290.6537 1781.4437,-290.7752 1786.7806,-290.7752 1787.3652,-290.5845 1792.4268,-290.5845 1792.8448,-290.449 1792.3073,-137.088 1778.051,-136.2741 1776.4191,-136.147 1776.0121,-136.0984 1761.4205,-134.0483 1753.574,-132.7825 1747.392,-132.3652 1743.4298,-131.9373 1742.8538,-150.5278 1744.9215,-290.7424 1738.7324,-290.7424 1739.2128,-218.1378 1731.9131,-290.3492 1727.2527,-290.3492 1719.5277,-145.0203 1719.2068,-170.1322 1719.2068,-170.1322 1719.5277,-145.0203 1727.2527,-290.3492 1731.9131,-290.3492 1739.2128,-218.1378 1738.7324,-290.7424 1744.9215,-290.7424 1742.8538,-150.5278 1743.4298,-131.9373 1719.37,-127.8661 1658.6025,-113.8828 1648.6659,-117.303 1644.1165,-119.4016 1545.2764,-115.8373 1541.8944,-115.6463 1521.951,-113.2941 1515.491,-112.2679 1506.1947,-110.6003 1497.2296,-108.8087 1495.2465,-108.7696 1481.6951,-107.973 1483.8191,-231.2216 1488.4622,-278.6164 1493.4467,-278.6164 1495.0472,-279.1967 1499.386,-279.1967 1500.8597,-278.6699 1506.3788,-278.6699 1507.3652,-280.0951 1512.4053,-283.4639 1518.858,-283.4639 1525.1285,-278.9154 1525.9492,-278.9154 1525.9628,-278.9107 1530.6721,-278.9107 1530.6721,-278.9107 1525.9628,-278.9107 1525.9492,-278.9154 1525.1285,-278.9154 1518.858,-283.4639 1512.4053,-283.4639 1507.3652,-280.0951 1506.3788,-278.6699 1500.8597,-278.6699 1499.386,-279.1967 1495.0472,-279.1967 1493.4467,-278.6164 1488.4622,-278.6164 1483.8191,-231.2216 1481.6951,-107.973 1460.2117,-105.8718 1416.5522,-181.68 1403.6116,-209.2488 1374.3849,-227.4893 1361.7572,-234.0353 1360.4248,-234.6536 1348.5425,-239.5421 1345.2163,-240.7288 1342.1908,-241.6461 1337.2906,-242.8725 1324.468,-245.4036 1311.1896,-246.5994 1308.0431,-246.7137 1305.907,-246.6777 1305.1613,-246.7047 1298.8521,-246.2596 1295.9559,-246.2104 1290.7135,-246.4019 1286.1064,-246.076 1275.0809,-246.4803 1274.7207,-246.4549 1273.3639,-246.4318 1258.318,-246.9815 1258.0293,-247.0073 1253.2209,-247.6935 1242.666,-250.3407 1232.0225,-253.586 1222.2784,-257.6045 1213.0631,-261.8977 1206.8771,-265.1024 1179.0243,-282.4854 1168.1797,-304.1519 1170.2919,-311.2 1170.2919,-311.2"/>
<polygon fill="#fbb4ae" stroke="#fbb4ae" points="353.4261,-764.4337 353.8336,-762.152 354.3029,-760.2233 356.8429,-745.8095 301.9512,-751.9673 297.7697,-756.8535 296.3687,-757.6024 296.7627,-758.5143 289.967,-806.9535 289.2281,-757.2139 282.854,-757.2139 284.5337,-689.4038 273.0123,-698.2244 265.8838,-702.3854 265.8838,-702.3854 273.0123,-698.2244 284.5337,-689.4038 282.854,-757.2139 289.2281,-757.2139 289.967,-806.9535 296.7627,-758.5143 296.3687,-757.6024 297.7697,-756.8535 301.9512,-751.9673 356.8429,-745.8095 383.8046,-632.0372 382.85,-629.7708 373.4525,-608.7335 371.7432,-554.8012 251.7756,-515.504 225.2431,-517.4517 208.71,-518.301 209.5232,-570.1816 210.9908,-599.3447 210.933,-669.7337 210.2717,-669.9738 205.4258,-669.9738 204.1951,-669.5251 198.4429,-669.5251 198.2581,-669.5913 197.4868,-670.6938 200.4566,-697.3521 202.8328,-699.0474 211.562,-707.5466 190.4963,-709.7962 177.4574,-716.0294 173.8516,-714.6509 172.4791,-713.3915 167.4412,-713.3915 167.3157,-713.3478 161.1768,-713.3478 160.5789,-713.5569 163.1508,-757.4145 161.5545,-757.5365 160.1618,-795.8828 160.1618,-795.8828 161.5545,-757.5365 163.1508,-757.4145 160.5789,-713.5569 161.1768,-713.3478 167.3157,-713.3478 167.4412,-713.3915 172.4791,-713.3915 173.8516,-714.6509 177.4574,-716.0294 190.4963,-709.7962 211.562,-707.5466 202.8328,-699.0474 200.4566,-697.3521 197.4868,-670.6938 192.0654,-674.2828 185.9094,-674.2828 180.2865,-670.5206 179.6413,-669.5993 179.6413,-669.5993 180.2865,-670.5206 185.9094,-674.2828 192.0654,-674.2828 197.4868,-670.6938 198.2581,-669.5913 198.4429,-669.5251 204.1951,-669.5251 205.4258,-669.9738 210.2717,-669.9738 210.933,-669.7337 210.9908,-599.3447 209.5232,-570.1816 208.71,-518.301 199.6959,-518.1674 190.9703,-517.6527 183.7565,-517.0675 101.2409,-474.2943 75.0845,-478.2359 74.1479,-519.1902 70.7644,-582.2387 64.6581,-625.5674 64.6123,-625.5826 63.442,-625.5826 60.1076,-622.3971 54.4394,-620.5603 54.4394,-620.5603 60.1076,-622.3971 63.442,-625.5826 64.6123,-625.5826 64.6581,-625.5674 70.7644,-582.2387 74.1479,-519.1902 75.0845,-478.2359 56.2404,-479.8329 50.208,-480.2108 28.8535,-480.1361 24.6478,-480.0287 -26.6562,-477.5895 -112.1653,-542.5378 -116.9964,-624.0176 -117.4485,-628.4854 -121.1816,-659.0289 -86.1939,-733.7134 -85.5082,-757.6 -87.2901,-813.9598 -4.2684,-892.3623 6.3356,-899.3496 71.274,-970.936 86.0417,-976.7285 116.0825,-979.7609 136.6455,-982.2139 137.2897,-981.7477 146.9857,-975.2466 154.4873,-970.6114 155.9079,-887.3976 153.9583,-801.6111 150.6984,-801.6111 147.6719,-798.4456 142.3536,-796.6674 142.3536,-796.6674 147.6719,-798.4456 150.6984,-801.6111 153.9583,-801.6111 155.9079,-887.3976 154.4873,-970.6114 265.4535,-907.78 270.7234,-907.1144 273.51,-906.8257 287.0129,-906.0353 309.8242,-906.2429 322.9904,-906.6594 350.3338,-791.2766 353.4261,-764.4337 353.4261,-764.4337"/>
<polygon fill="#dbd0df" stroke="#dbd0df" points="735.027,-453.3608 734.3633,-453.0129 734.3633,-453.0129 735.027,-453.3608 734.834,-453.774 729.0021,-459.2977 724.0305,-555.466 633.1084,-493.4656 626.4434,-488.5915 618.0188,-482.0154 603.679,-468.6255 598.1552,-463.1881 588.3151,-453 578.7362,-444.3011 563.6339,-428.6544 600.8016,-365.5539 662.4539,-325.5287 731.4301,-294.3684 745.5851,-287.2099 759.2824,-279.5462 764.3055,-276.6025 777.1484,-268.3833 779.0576,-267.0583 816.9946,-263.9052 842.5216,-257.1066 855.9396,-253.3013 865.6205,-261.4521 871.0417,-265.5779 884.2399,-275.276 897.1147,-284.0485 902.5627,-293.5368 949.6058,-368.39 980.068,-429.9583 996.1136,-459.4123 1000.3571,-466.6299 999.3934,-467.6006 998.9408,-467.9999 993.1644,-472.7654 990.8589,-474.8012 982.293,-481.8366 980.7375,-483.0163 966.4991,-492.9553 902.8655,-529.3499 891.6896,-536.4202 879.6825,-545.4489 868.0947,-555.5455 867.879,-555.7101 858.8137,-563.5947 842.9114,-578.2755 834.3105,-586.6372 816.9946,-586.8302 783.6895,-595.8403 779.4916,-597.0874 774.2748,-598.7764 769.0563,-593.8175 758.956,-583.3017 758.8265,-583.1807 737.9304,-565.6793 724.0305,-555.466 729.0021,-459.2977 734.834,-453.774 738.3966,-503.9899 742.7492,-453.4138 746.0883,-453.4138 747.9104,-455.3166 747.9104,-455.3166 746.0883,-453.4138 742.7492,-453.4138 738.3966,-503.9899 734.834,-453.774 735.027,-453.3608 735.027,-453.3608"/>
<polygon fill="#b6d1df" stroke="#b6d1df" points="2516.2898,-1001.1486 2388.5808,-1023.0009 2388.5808,-1023.0009 2516.2898,-1001.1486 2517.9055,-995.3578 2474.9937,-920.2734 2424.8867,-883.6684 2364.3513,-871.6607 2345.6228,-866.7217 2336.7341,-863.9922 2325.4492,-860.0346 2315.1201,-856.1876 2311.5654,-856.281 2310.9238,-856.2858 2300.3628,-855.9692 2277.9172,-854.4536 2260.9207,-852.9888 2233.4004,-864.1882 2233.4004,-1007.8831 2178.0852,-1024.0215 2174.8501,-1028.1041 2173.5273,-1028.903 2172.5857,-1028.903 2172.0359,-1028.7185 2166.4014,-1028.7185 2166.0706,-1028.6057 2160.0901,-1028.6057 2159.7256,-1028.4786 2159.7256,-1028.4786 2160.0901,-1028.6057 2166.0706,-1028.6057 2166.4014,-1028.7185 2172.0359,-1028.7185 2172.5857,-1028.903 2173.5273,-1028.903 2174.8501,-1028.1041 2178.0852,-1024.0215 2233.4004,-1007.8831 2233.4004,-864.1882 2185.6729,-867.2452 2173.1057,-867.7939 2163.022,-868.0278 2159.4216,-868.0377 2142.2256,-867.3808 2142.1104,-867.6488 2143.7473,-986.5715 2148.0095,-1026.2954 2140.7822,-1023.7466 2135.3772,-1025.5513 2131.9819,-984.3886 2127.8774,-1028.6128 2123.4934,-1028.6128 2118.7456,-986.433 2115.6787,-1028.4686 2117.7942,-1029.2361 2112.5952,-1059.009 2109.3855,-1031.4408 2103.9668,-1035.4427 2100.6094,-1164.2684 2068.2573,-1101.8354 1994.0006,-1087.7928 1991.0128,-1084.3977 1988.5142,-1083.3082 1987.8729,-1082.7037 1982.9221,-1082.7037 1981.5189,-1082.2133 1979.0056,-1082.2133 1975.3129,-1086.1094 1970.8656,-1087.5126 1970.8656,-1087.5126 1975.3129,-1086.1094 1979.0056,-1082.2133 1981.5189,-1082.2133 1982.9221,-1082.7037 1987.8729,-1082.7037 1988.5142,-1083.3082 1991.0128,-1084.3977 1994.0006,-1087.7928 2068.2573,-1101.8354 2100.6094,-1164.2684 2103.9668,-1035.4427 2109.3855,-1031.4408 2112.5952,-1059.009 2117.7942,-1029.2361 2115.6787,-1028.4686 2111.292,-1028.4686 2111.292,-1028.4686 2115.6787,-1028.4686 2118.7456,-986.433 2123.4934,-1028.6128 2127.8774,-1028.6128 2131.9819,-984.3886 2135.3772,-1025.5513 2140.7822,-1023.7466 2148.0095,-1026.2954 2143.7473,-986.5715 2142.1104,-867.6488 2142.2256,-867.3808 2038.0474,-810.7446 2015.2457,-808.1476 2018.4034,-911.5319 2016.7333,-974.6338 2016.0707,-975.2601 2015.8408,-975.3441 2010.7687,-975.3441 2010.5405,-975.4238 2004.5364,-975.4238 2003.9042,-975.2036 1998.9314,-975.2036 1994.9913,-1023.8325 1991.2649,-974.9335 1987.0281,-974.9335 1985.6588,-975.4117 1979.6544,-975.4117 1979.5233,-975.3657 1978.7264,-974.2015 1973.6702,-970.7416 1973.6702,-970.7416 1978.7264,-974.2015 1979.5233,-975.3657 1979.6544,-975.4117 1985.6588,-975.4117 1987.0281,-974.9335 1991.2649,-974.9335 1994.9913,-1023.8325 1998.9314,-975.2036 2003.9042,-975.2036 2004.5364,-975.4238 2010.5405,-975.4238 2010.7687,-975.3441 2015.8408,-975.3441 2016.0707,-975.2601 2016.7333,-974.6338 2018.4034,-911.5319 2015.2457,-808.1476 2011.8783,-807.6287 2003.5869,-806.0145 1999.672,-805.1727 1978.1045,-800.094 1966.744,-796.9626 1963.874,-796.0562 1952.6106,-792.2701 1947.0042,-790.2727 1918.6123,-778.4167 1772.6603,-708.7141 1740.1503,-713.4343 1729.8856,-712.0336 1683.1093,-753.8374 1628.8735,-781.5174 1610.0212,-1022.2488 1610.0212,-1022.2488 1628.8735,-781.5174 1606.2977,-792.6754 1601.1798,-796.4932 1585.7939,-807.3254 1568.3207,-818.5276 1567.8699,-818.807 1562.5385,-821.9997 1557.2037,-827.7845 1540.9094,-843.8365 1539.4446,-845.23 1527.1757,-858.174 1480.6,-903.7191 1433.2115,-923.2098 1422.6852,-927.1536 1415.647,-929.5281 1404.0299,-932.5879 1391.8228,-934.901 1376.7712,-936.6389 1372.2242,-936.9945 1367.9933,-937.0122 1363.7603,-937.1909 1363.5349,-937.3669 1356.6692,-942.3309 1353.9606,-944.4629 1281.8425,-992.2971 1268.1498,-1002.3412 1267.6637,-1002.7638 1255.9503,-1012.1957 1220.7407,-1042.7576 1220.0295,-1047.8218 1219.5652,-1050.2803 1231.7026,-1082.7241 1232.5789,-1083.3177 1244.5979,-1091.0432 1257.9968,-1098.7064 1262.5515,-1101.1465 1263.3741,-1101.5576 1270.2489,-1104.7533 1280.2638,-1109.056 1355.6328,-1138.7395 1374.5197,-1148.2413 1375.4343,-1148.7671 1382.0664,-1029.7813 1387.1952,-1033.1338 1387.1952,-1033.1338 1382.0664,-1029.7813 1375.4343,-1148.7671 1398.83,-1163.0879 1400.1764,-1164.0054 1401.2457,-1164.7725 1406.2004,-1168.5111 1423.6704,-1182.347 1424.1023,-1182.7043 1427.9934,-1186.0634 1454.5194,-1209.9365 1480.6,-1198.3296 1520.8184,-1192.8895 1546.3574,-1189.948 1548.2916,-1189.7646 1551.3959,-1189.5962 1572.9846,-1189.2968 1578.2737,-1189.3306 1581.0066,-1189.0509 1582.0989,-1189.0059 1595.1508,-1184.8185 1617.1548,-1179.2478 1683.3894,-1163.9994 1698.0741,-1168.2222 1747.5225,-1177.8512 1767.1979,-1182.1429 1775.4292,-1184.318 1798.6497,-1191.5337 1793.0637,-1079.3693 1794.2563,-1033.0776 1787.2604,-1033.0776 1782.1548,-1029.7162 1781.569,-1028.9077 1781.569,-1028.9077 1782.1548,-1029.7162 1787.2604,-1033.0776 1794.2563,-1033.0776 1793.0637,-1079.3693 1798.6497,-1191.5337 1803.6907,-1193.3291 1809.1482,-1195.5247 1820.1638,-1200.2131 1822.0812,-1201.0734 1832.3671,-1212.5132 1833.6053,-1213.4924 1942.3972,-1256.2786 1964.184,-1265.7767 1968.0709,-1267.7162 1984.3593,-1264.5959 1992.8655,-1263.421 2001.877,-1260.4662 2036.9961,-1249.6371 2106.8572,-1191.0881 2111.3152,-1186.7954 2127.7524,-1181.6794 2142.1711,-1177.8663 2159.813,-1174.4346 2164.926,-1173.7969 2189.1765,-1171.3336 2233.4004,-1167.8782 2285.0581,-1183.9907 2308.4727,-1192.3872 2308.9563,-1192.5826 2316.7258,-1195.903 2325.0134,-1196.5371 2328.6257,-1196.9543 2344.9634,-1199.1615 2350.6819,-1200.2686 2364.2515,-1203.1624 2368.5281,-1201.1353 2400.9253,-1187.2429 2461.469,-1156.7677 2488.696,-1123.5996 2498.271,-1077.9364 2516.2898,-1001.1486 2516.2898,-1001.1486"/>
<polygon fill="#d2c2cc" stroke="#d2c2cc" points="1335.9114,-480.5233 1297.4901,-580.57 1287.9336,-615.0336 1285.6038,-622.4036 1261.3219,-641.4955 1248.0597,-675.89 1241.5497,-705.2438 1236.8458,-719.1761 1233.2373,-721.1159 1219.9197,-726.5556 1205.5219,-730.5616 1190.377,-731.832 1183.5776,-731.9609 1183.5568,-731.9641 1180.9507,-732.1916 1177.0226,-732.2811 1173.4758,-732.1327 1173.1438,-732.0971 1162.0916,-731.6528 1161.774,-731.6194 1154.483,-731.8282 1154.0574,-731.8688 1146.6582,-732.0942 1131.2021,-734.6334 1120.1514,-737.9169 1105.6807,-744.1524 1106.3213,-719.4858 1103.5142,-675.8063 1098.6388,-675.8063 1097.8352,-675.5239 1097.8352,-675.5239 1098.6388,-675.8063 1103.5142,-675.8063 1106.3213,-719.4858 1105.6807,-744.1524 1094.1854,-750.6173 1082.3452,-758.8418 1059.1985,-777.9989 1048.7977,-779.242 1016.961,-810.4547 1015.9139,-814.9622 1007.9091,-863.1566 1007.5359,-865.0154 1007.1246,-867.5141 1004.4536,-880.9283 996.298,-886.1126 993.3834,-887.8224 939.2029,-917.0148 914.7593,-905.1039 911.9835,-903.9127 898.3261,-899.5763 891.1699,-897.7151 877.2675,-895.6827 868.4379,-895.4023 867.4069,-895.4285 864.3623,-895.3288 858.3408,-895.4765 851.7232,-895.2537 850.4207,-895.1342 850.4191,-889.9823 843.3424,-834.217 845.157,-832.5837 843.9259,-830.2437 838.0965,-825.8873 827.2852,-829.0347 805.2059,-827.6194 805.2059,-827.6194 827.2852,-829.0347 838.0965,-825.8873 843.9259,-830.2437 845.157,-832.5837 843.3424,-834.217 850.4191,-889.9823 850.4207,-895.1342 847.707,-895.3509 839.2466,-895.535 834.9442,-895.3786 834.179,-895.3062 838.4227,-838.0327 788.1615,-844.4764 790.175,-841.6448 784.0273,-793.5338 790.662,-791.1929 793.5795,-788.1026 791.6606,-786.2287 784.5505,-783.668 784.5505,-783.668 791.6606,-786.2287 793.5795,-788.1026 790.662,-791.1929 784.0273,-793.5338 790.175,-841.6448 788.1615,-844.4764 838.4227,-838.0327 834.179,-895.3062 828.8826,-895.1094 819.0542,-894.1743 807.6869,-891.7728 798.0735,-889.1883 796.9028,-888.8076 791.2129,-886.6292 790.9752,-886.5244 778.996,-880.5174 770.5078,-875.7651 766.6141,-873.3617 762.1389,-873.3502 760.9699,-873.2509 766.3263,-795.1888 757.144,-792.3137 714.5921,-799.6135 712.9179,-794.4785 707.1289,-790.9246 706.8457,-782.2867 701.5668,-736.5527 701.4948,-736.5284 706.8204,-693.3687 709.0766,-734.9001 714.7678,-730.0916 714.5406,-643.3273 760.7432,-612.0483 634.3722,-605.8658 630.9385,-602.0053 627.688,-600.7217 627.1224,-600.2028 621.9482,-600.2028 617.2823,-509.1411 615.4853,-536.2277 608.0931,-595.356 602.1354,-595.356 595.7593,-599.7083 595.5872,-599.6475 590.0488,-599.6475 588.5433,-600.1915 592.1662,-641.4899 592.8018,-641.9646 557.9403,-655.7789 557.0369,-627.1375 551.6249,-624.7592 546.2139,-621.5756 545.0848,-655.6017 539.009,-655.6017 532.5289,-660.1496 532.9907,-660.7868 538.4095,-664.4299 538.4095,-664.4299 532.9907,-660.7868 532.5289,-660.1496 539.009,-655.6017 545.0848,-655.6017 546.2139,-621.5756 551.6249,-624.7592 557.0369,-627.1375 557.9403,-655.7789 592.8018,-641.9646 592.1662,-641.4899 588.5433,-600.1915 590.0488,-599.6475 595.5872,-599.6475 595.7593,-599.7083 602.1354,-595.356 608.0931,-595.356 615.4853,-536.2277 617.2823,-509.1411 621.9482,-600.2028 627.1224,-600.2028 627.688,-600.7217 630.9385,-602.0053 634.3722,-605.8658 760.7432,-612.0483 714.5406,-643.3273 714.7678,-730.0916 709.0766,-734.9001 706.8204,-693.3687 701.4948,-736.5284 701.5668,-736.5527 706.8457,-782.2867 707.1289,-790.9246 695.2434,-785.6608 688.5356,-783.2822 686.6586,-782.7821 678.45,-781.2986 678.2722,-736.9547 672.3435,-736.9547 671.7928,-780.6752 668.5486,-780.6541 665.0065,-780.3114 660.1517,-780.2676 659.299,-780.3345 652.6247,-780.2579 654.2506,-739.2647 648.0757,-741.3955 641.3273,-739.0038 639.0735,-736.7407 636.5256,-736.7407 633.5785,-770.6508 628.3167,-736.5502 628.1808,-736.5043 624.5333,-736.5043 620.2117,-780.4236 619.6663,-780.4582 617.2716,-780.8208 610.6874,-780.6329 607.9137,-780.7946 605.5793,-780.7226 605.356,-736.7596 599.3783,-736.7596 598.0298,-736.299 594.02,-736.299 593.84,-736.3592 587.2664,-736.3592 587.152,-736.3199 583.3298,-738.2584 580.8849,-741.5678 538.9188,-752.6242 546.4486,-774.0988 541.0507,-780.52 533.5298,-780.52 516.3599,-782.2248 500.7914,-787.2114 495.2683,-783.6281 493.4715,-780.5721 489.45,-780.5721 489.45,-780.5721 493.4715,-780.5721 495.2683,-783.6281 500.7914,-787.2114 516.3599,-782.2248 533.5298,-780.52 541.0507,-780.52 546.4486,-774.0988 538.9188,-752.6242 580.8849,-741.5678 583.0855,-780.4319 580.9478,-780.7216 580.6144,-780.7368 571.5834,-780.3475 571.5834,-780.3475 580.6144,-780.7368 580.9478,-780.7216 583.0855,-780.4319 580.8849,-741.5678 583.3298,-738.2584 587.152,-736.3199 587.2664,-736.3592 593.84,-736.3592 594.02,-736.299 598.0298,-736.299 599.3783,-736.7596 605.356,-736.7596 605.5793,-780.7226 607.9137,-780.7946 610.6874,-780.6329 617.2716,-780.8208 619.6663,-780.4582 620.2117,-780.4236 624.5333,-736.5043 628.1808,-736.5043 628.3167,-736.5502 633.5785,-770.6508 636.5256,-736.7407 639.0735,-736.7407 641.3273,-739.0038 648.0757,-741.3955 654.2506,-739.2647 652.6247,-780.2579 659.299,-780.3345 660.1517,-780.2676 665.0065,-780.3114 668.5486,-780.6541 671.7928,-780.6752 672.3435,-736.9547 678.2722,-736.9547 678.45,-781.2986 686.6586,-782.7821 688.5356,-783.2822 695.2434,-785.6608 707.1289,-790.9246 712.9179,-794.4785 714.5921,-799.6135 757.144,-792.3137 766.3263,-795.1888 760.9699,-873.2509 750.9727,-872.808 737.3868,-871.649 662.2276,-924.606 654.4667,-930.9114 647.9882,-936.5293 642.2359,-941.8315 632.8824,-950.9669 626.3087,-958.11 619.356,-964.6437 603.2018,-981.3471 586.9799,-1000.4052 581.393,-1007.4911 570.7376,-1001.4692 564.5477,-998.1216 448.8434,-943.81 445.1714,-943.6042 437.0251,-943.4662 427.9313,-940.3962 408.2455,-935.0364 375.1295,-928.1869 322.9904,-906.6594 350.3338,-791.2766 389.9527,-785.2052 404.7943,-786.7996 410.4965,-781.5564 411.0208,-780.4796 418.0616,-780.4796 418.2373,-780.4208 422.1949,-780.4208 422.3142,-780.3819 422.3142,-780.3819 422.1949,-780.4208 418.2373,-780.4208 418.0616,-780.4796 411.0208,-780.4796 410.4965,-781.5564 404.7943,-786.7996 389.9527,-785.2052 350.3338,-791.2766 353.4261,-764.4337 353.8336,-762.152 354.3029,-760.2233 356.8429,-745.8095 383.8046,-632.0372 382.85,-629.7708 373.4525,-608.7335 371.7432,-554.8012 422.0359,-516.0697 438.612,-495.606 490.3192,-453.7558 563.6339,-428.6544 578.7362,-444.3011 588.3151,-453 598.1552,-463.1881 603.679,-468.6255 618.0188,-482.0154 626.4434,-488.5915 633.1084,-493.4656 724.0305,-555.466 737.9304,-565.6793 758.8265,-583.1807 758.956,-583.3017 769.0563,-593.8175 774.2748,-598.7764 779.4916,-597.0874 783.6895,-595.8403 816.9946,-586.8302 834.3105,-586.6372 855.6165,-603.4769 861.3372,-607.481 868.0245,-612.4706 878.5236,-619.796 880.1144,-620.8267 891.2391,-626.9839 904.4501,-633.6631 910.0449,-635.9437 923.5326,-640.7959 925.9022,-641.5311 928.0579,-642.0955 947.7968,-645.3936 941.9235,-719.5547 937.7468,-719.5547 935.7344,-720.2833 930.4394,-720.2833 930.0685,-720.1509 923.6304,-720.1509 923.1168,-720.3319 917.8491,-720.3319 917.67,-720.5661 917.4808,-776.4924 916.8102,-776.5377 915.8788,-797.6301 915.8788,-797.6301 916.8102,-776.5377 917.4808,-776.4924 917.67,-720.5661 917.8491,-720.3319 923.1168,-720.3319 923.6304,-720.1509 930.0685,-720.1509 930.4394,-720.2833 935.7344,-720.2833 937.7468,-719.5547 941.9235,-719.5547 947.7968,-645.3936 952.3077,-645.9272 956.4377,-646.2162 956.4398,-646.2886 956.4398,-646.2886 956.4377,-646.2162 966.2671,-645.9592 970.0645,-646.0449 979.2813,-646.7015 982.9947,-647.1461 988.0518,-647.9974 1005.9778,-652.7903 1008.955,-650.1006 1016.488,-644.4568 1021.2736,-641.2302 1024.6405,-639.2079 1071.7639,-614.278 1074.5167,-585.4484 1074.6096,-582.0167 1075.261,-578.1213 1075.9822,-552.1009 1083.0886,-477.6773 1120.1119,-470.4978 1131.9779,-467.8211 1141.4263,-465.0954 1149.5825,-462.2253 1161.9865,-457.4654 1177.7892,-450.4052 1185.3442,-446.5611 1195.755,-440.6064 1196.887,-504.7579 1194.8036,-579.0109 1193.7656,-580.8951 1190.1367,-580.8951 1189.3149,-580.6046 1182.4341,-580.6046 1182.3754,-580.5837 1176.9872,-580.5837 1174.9297,-532.284 1169.6202,-579.5011 1164.5059,-576.0819 1164.5059,-576.0819 1169.6202,-579.5011 1174.9297,-532.284 1176.9872,-580.5837 1182.3754,-580.5837 1182.4341,-580.6046 1189.3149,-580.6046 1190.1367,-580.8951 1193.7656,-580.8951 1194.8036,-579.0109 1196.887,-504.7579 1195.755,-440.6064 1202.411,-436.3748 1263.0796,-452.6381 1287.1969,-459.6893 1296.9078,-463.2191 1307.9448,-467.494 1319.1572,-472.3683 1332.6754,-478.8872 1335.9114,-480.5233 1335.9114,-480.5233"/>
<polygon fill="#ebd1cb" stroke="#ebd1cb" points="1450.2534,-1219.571 1452.3176,-1214.6812 1454.5194,-1209.9365 1427.9934,-1186.0634 1424.1023,-1182.7043 1423.6704,-1182.347 1406.2004,-1168.5111 1401.2457,-1164.7725 1400.1764,-1164.0054 1398.83,-1163.0879 1375.4343,-1148.7671 1374.5197,-1148.2413 1355.6328,-1138.7395 1280.2638,-1109.056 1270.2489,-1104.7533 1263.3741,-1101.5576 1262.5515,-1101.1465 1257.9968,-1098.7064 1244.5979,-1091.0432 1232.5789,-1083.3177 1231.7026,-1082.7241 1219.5652,-1050.2803 1220.0295,-1047.8218 1220.7407,-1042.7576 1215.7434,-1032.1755 1185.8302,-964.0813 1181.2858,-951.1964 1133.4962,-932.4985 1128.3293,-931.173 1119.6545,-929.5211 1112.1786,-928.5994 1105.3234,-928.2164 1104.8943,-928.1627 1100.3469,-927.9018 1091.476,-927.9919 1084.7795,-927.6013 1084.3019,-927.5412 1077.3641,-926.1927 1073.2533,-925.1122 1069.7318,-982.567 1064.5864,-982.567 1061.3346,-933.1841 1057.0603,-981.9373 1057.6343,-982.7584 1056.6672,-984.1717 1052.2153,-987.1155 1052.2153,-987.1155 1056.6672,-984.1717 1057.6343,-982.7584 1057.0603,-981.9373 1052.1184,-978.6107 1044.7059,-978.6107 1039.5825,-982.0707 1036.429,-934.9127 1031.9399,-982.7057 1027.4823,-982.7057 1022.2524,-933.226 1019.8749,-982.5601 1013.8487,-982.5601 1012.6251,-982.9926 1008.7718,-982.9926 1002.4711,-1041.181 1000.4462,-1038.5085 997.6877,-1035.3306 995.1577,-989.0016 995.1577,-989.0016 997.6877,-1035.3306 1000.4462,-1038.5085 1002.4711,-1041.181 1008.7718,-982.9926 1012.6251,-982.9926 1013.8487,-982.5601 1019.8749,-982.5601 1022.2524,-933.226 1027.4823,-982.7057 1031.9399,-982.7057 1036.429,-934.9127 1039.5825,-982.0707 1044.7059,-978.6107 1052.1184,-978.6107 1057.0603,-981.9373 1061.3346,-933.1841 1064.5864,-982.567 1069.7318,-982.567 1073.2533,-925.1122 1061.4655,-921.1934 1048.2583,-914.9838 1036.7927,-908.0219 1021.1933,-896.3884 1015.8537,-891.691 1013.2775,-889.2446 1012.1342,-888.2343 1004.4536,-880.9283 996.298,-886.1126 993.3834,-887.8224 939.2029,-917.0148 914.7593,-905.1039 911.9835,-903.9127 898.3261,-899.5763 891.1699,-897.7151 877.2675,-895.6827 868.4379,-895.4023 867.4069,-895.4285 864.3623,-895.3288 858.3408,-895.4765 851.7232,-895.2537 850.4207,-895.1342 847.707,-895.3509 839.2466,-895.535 834.9442,-895.3786 834.179,-895.3062 828.8826,-895.1094 819.0542,-894.1743 807.6869,-891.7728 809.415,-952.9829 803.5512,-954.9861 800.3455,-958.4696 802.4001,-960.5298 809.593,-963.111 815.5172,-961.0937 815.5912,-1014.4297 813.092,-1014.5885 815.8787,-1070.7853 820.8412,-1070.7853 823.4589,-1113.5936 828.3511,-1071.2307 833.0545,-1071.2307 834.3341,-1070.8048 838.6196,-1070.8048 839.2491,-1071.6205 844.9575,-1075.3224 851.5817,-1075.3224 857.0394,-1071.8477 858.1892,-1170.8185 859.3564,-1170.7255 870.9778,-1170.1838 877.4601,-1170.0969 878.5818,-1170.0413 878.6176,-1170.0382 889.856,-1169.8193 886.6361,-1071.2616 886.7051,-1071.2384 892.2483,-1071.2384 892.2483,-1071.2384 886.7051,-1071.2384 886.6361,-1071.2616 889.856,-1169.8193 878.6176,-1170.0382 878.5818,-1170.0413 877.4601,-1170.0969 870.9778,-1170.1838 859.3564,-1170.7255 858.1892,-1170.8185 857.0394,-1071.8477 851.5817,-1075.3224 844.9575,-1075.3224 839.2491,-1071.6205 838.6196,-1070.8048 834.3341,-1070.8048 833.0545,-1071.2307 828.3511,-1071.2307 823.4589,-1113.5936 820.8412,-1070.7853 815.8787,-1070.7853 815.8736,-1070.787 810.1017,-1070.787 810.1017,-1070.787 815.8736,-1070.787 815.8787,-1070.7853 813.092,-1014.5885 815.5912,-1014.4297 815.5172,-961.0937 809.593,-963.111 802.4001,-960.5298 800.3455,-958.4696 803.5512,-954.9861 809.415,-952.9829 807.6869,-891.7728 798.0735,-889.1883 796.9028,-888.8076 791.2129,-886.6292 790.9752,-886.5244 778.996,-880.5174 770.5078,-875.7651 766.6141,-873.3617 762.1389,-873.3502 760.9699,-873.2509 750.9727,-872.808 737.3868,-871.649 662.2276,-924.606 654.4667,-930.9114 647.9882,-936.5293 642.2359,-941.8315 632.8824,-950.9669 626.3087,-958.11 619.356,-964.6437 603.2018,-981.3471 586.9799,-1000.4052 581.393,-1007.4911 603.334,-1061.1541 628.6057,-1077.3959 629.6999,-1078.8055 658.9954,-1118.0145 729.1498,-1216.4053 721.4861,-1286.1786 728.5632,-1299.3817 826.3336,-1280.8861 877.8703,-1274.5316 882.0603,-1269.7328 884.1205,-1271.8877 890.572,-1274.1543 890.572,-1274.1543 884.1205,-1271.8877 882.0603,-1269.7328 877.8703,-1274.5316 826.3336,-1280.8861 728.5632,-1299.3817 754.3861,-1352.7552 813.7385,-1406.0188 817.676,-1416.9432 819.6248,-1423.1925 845.0439,-1481.8833 906.8871,-1532.6536 961.0771,-1538.6414 965.9985,-1539.4091 974.1915,-1537.5992 974.3685,-1508.1804 978.3303,-1393.5913 983.9818,-1389.7318 983.9818,-1389.7318 978.3303,-1393.5913 974.3685,-1508.1804 974.1915,-1537.5992 989.7681,-1534.8879 1001.9922,-1533.3345 1070.7615,-1512.2209 1156.2772,-1421.6312 1160.6436,-1417.3374 1167.7032,-1416.6752 1166.8041,-1369.8058 1160.8298,-1241.4263 1159.8394,-1240.5413 1155.5732,-1240.5413 1155.5557,-1240.5477 1155.5557,-1240.5477 1155.5732,-1240.5413 1159.8394,-1240.5413 1160.8298,-1241.4263 1166.8041,-1369.8058 1167.7032,-1416.6752 1202.0087,-1414.8149 1255.4404,-1385.3933 1257.464,-1384.9004 1266.1863,-1382.9487 1281.9956,-1380.35 1286.5432,-1379.6927 1413.8746,-1310.2009 1450.2534,-1219.571 1450.2534,-1219.571"/>
<polyline fill="none" stroke="#000000" points="1180.14,-359.1545 1183.4366,-373.0615 1202.411,-436.3748 1195.755,-440.6064 1185.3442,-446.5611 1177.7892,-450.4052 1161.9865,-457.4654 1149.5825,-462.2253 1141.4263,-465.0954 1131.9779,-467.8211 1120.1119,-470.4978 1083.0886,-477.6773 1075.9822,-552.1009 1075.261,-578.1213 1074.6096,-582.0167 1074.5167,-585.4484 1071.7639,-614.278 1024.6405,-639.2079 1021.2736,-641.2302 1016.488,-644.4568 1008.955,-650.1006 1005.9778,-652.7903 988.0518,-647.9974 982.9947,-647.1461 979.2813,-646.7015 970.0645,-646.0449 966.2671,-645.9592 956.4377,-646.2162 952.3077,-645.9272 947.7968,-645.3936 928.0579,-642.0955 925.9022,-641.5311 923.5326,-640.7959 910.0449,-635.9437 904.4501,-633.6631 891.2391,-626.9839 880.1144,-620.8267 878.5236,-619.796 868.0245,-612.4706 861.3372,-607.481 855.6165,-603.4769 834.3105,-586.6372 842.9114,-578.2755 858.8137,-563.5947 867.879,-555.7101 868.0947,-555.5455 879.6825,-545.4489 891.6896,-536.4202 902.8655,-529.3499 966.4991,-492.9553 980.7375,-483.0163 982.293,-481.8366 990.8589,-474.8012 993.1644,-472.7654 998.9408,-467.9999 999.3934,-467.6006 1000.3571,-466.6299 996.1136,-459.4123 980.068,-429.9583 949.6058,-368.39 902.5627,-293.5368 897.1147,-284.0485 884.2399,-275.276 871.0417,-265.5779 865.6205,-261.4521 855.9396,-253.3013 865.24,-232.4726 878.5967,-201.1516 911.3007,-115.9893 897.3051,-54.0044 883.5643,1.4372 883.1531,2.8618 882.0237,10.6573 929.235,93.9476 981.0858,125.7422 1009.5889,137.3849 1020.2515,141.3983 1047.0209,135.5634 1071.8662,131.7628 1088.1832,130.3352 1089.2748,130.2635 1092.0262,130.1427 1093.3586,130.1131 1103.7793,130.1082 1122.4227,130.9114 1133.933,131.9078 1181.1407,138.0462 1258.7987,66.3651 1267.6664,43.7875 1322.9272,-29.4734 1405.7885,-57.2457 1460.2117,-105.8718 1416.5522,-181.68 1403.6116,-209.2488 1374.3849,-227.4893 1361.7572,-234.0353 1360.4248,-234.6536 1348.5425,-239.5421 1345.2163,-240.7288 1342.1908,-241.6461 1337.2906,-242.8725 1324.468,-245.4036 1311.1896,-246.5994 1308.0431,-246.7137 1305.907,-246.6777 1305.1613,-246.7047 1298.8521,-246.2596 1295.9559,-246.2104 1290.7135,-246.4019 1286.1064,-246.076 1275.0809,-246.4803 1274.7207,-246.4549 1273.3639,-246.4318 1258.318,-246.9815 1258.0293,-247.0073 1253.2209,-247.6935 1242.666,-250.3407 1232.0225,-253.586 1222.2784,-257.6045 1213.0631,-261.8977 1206.8771,-265.1024 1179.0243,-282.4854 1168.1797,-304.1519 1170.2919,-311.2 1180.14,-359.1545 "/>
<polyline fill="none" stroke="#000000" points="1363.5349,-937.3669 1356.6692,-942.3309 1353.9606,-944.4629 1281.8425,-992.2971 1268.1498,-1002.3412 1267.6637,-1002.7638 1255.9503,-1012.1957 1220.7407,-1042.7576 1215.7434,-1032.1755 1185.8302,-964.0813 1181.2858,-951.1964 1133.4962,-932.4985 1128.3293,-931.173 1119.6545,-929.5211 1112.1786,-928.5994 1105.3234,-928.2164 1104.8943,-928.1627 1100.3469,-927.9018 1091.476,-927.9919 1084.7795,-927.6013 1084.3019,-927.5412 1077.3641,-926.1927 1073.2533,-925.1122 1061.4655,-921.1934 1048.2583,-914.9838 1036.7927,-908.0219 1021.1933,-896.3884 1015.8537,-891.691 1013.2775,-889.2446 1012.1342,-888.2343 1004.4536,-880.9283 1007.1246,-867.5141 1007.5359,-865.0154 1007.9091,-863.1566 1015.9139,-814.9622 1016.961,-810.4547 1048.7977,-779.242 1059.1985,-777.9989 1082.3452,-758.8418 1094.1854,-750.6173 1105.6807,-744.1524 1120.1514,-737.9169 1131.2021,-734.6334 1146.6582,-732.0942 1154.0574,-731.8688 1154.483,-731.8282 1161.774,-731.6194 1162.0916,-731.6528 1173.1438,-732.0971 1173.4758,-732.1327 1177.0226,-732.2811 1180.9507,-732.1916 1183.5568,-731.9641 1183.5776,-731.9609 1190.377,-731.832 1205.5219,-730.5616 1219.9197,-726.5556 1233.2373,-721.1159 1236.8458,-719.1761 1241.5497,-705.2438 1248.0597,-675.89 1261.3219,-641.4955 1285.6038,-622.4036 1287.9336,-615.0336 1297.4901,-580.57 1335.9114,-480.5233 1344.218,-479.4275 1346.5836,-479.2495 1354.0081,-478.8306 1369.9897,-478.2297 1371.9874,-478.1923 1375.1271,-478.2518 1391.8898,-477.9337 1416.2448,-476.0835 1423.7108,-475.0926 1481.093,-466.3885 1485.0277,-466.9694 1501.5093,-470.2973 1522.0214,-475.1813 1535.3774,-479.0817 1548.2179,-483.2943 1617.0081,-508.3403 1622.2384,-512.7667 1690.7832,-643.216 1694.2887,-649.5345 1729.8856,-712.0336 1683.1093,-753.8374 1628.8735,-781.5174 1606.2977,-792.6754 1601.1798,-796.4932 1585.7939,-807.3254 1568.3207,-818.5276 1567.8699,-818.807 1562.5385,-821.9997 1557.2037,-827.7845 1540.9094,-843.8365 1539.4446,-845.23 1527.1757,-858.174 1480.6,-903.7191 1433.2115,-923.2098 1422.6852,-927.1536 1415.647,-929.5281 1404.0299,-932.5879 1391.8228,-934.901 1376.7712,-936.6389 1372.2242,-936.9945 1367.9933,-937.0122 1363.7603,-937.1909 1363.5349,-937.3669 "/>
<polyline fill="none" stroke="#000000" points="2253.3145,-469.5241 2239.8684,-471.4008 2228.7419,-467.5438 2153.9858,-444.7029 2092.5671,-458.438 2025.9325,-525.1944 1932.5814,-574.7078 1922.8086,-580.3939 1896.3389,-597.1689 1895.5122,-597.7335 1888.3252,-603.1997 1870.1437,-617.5098 1849.165,-635.6478 1838.0179,-645.8474 1830.5072,-652.9071 1772.6603,-708.7141 1740.1503,-713.4343 1729.8856,-712.0336 1694.2887,-649.5345 1690.7832,-643.216 1622.2384,-512.7667 1617.0081,-508.3403 1548.2179,-483.2943 1535.3774,-479.0817 1522.0214,-475.1813 1501.5093,-470.2973 1485.0277,-466.9694 1481.093,-466.3885 1423.7108,-475.0926 1416.2448,-476.0835 1391.8898,-477.9337 1375.1271,-478.2518 1371.9874,-478.1923 1369.9897,-478.2297 1354.0081,-478.8306 1346.5836,-479.2495 1344.218,-479.4275 1335.9114,-480.5233 1332.6754,-478.8872 1319.1572,-472.3683 1307.9448,-467.494 1296.9078,-463.2191 1287.1969,-459.6893 1263.0796,-452.6381 1202.411,-436.3748 1183.4366,-373.0615 1180.14,-359.1545 1170.2919,-311.2 1168.1797,-304.1519 1179.0243,-282.4854 1206.8771,-265.1024 1213.0631,-261.8977 1222.2784,-257.6045 1232.0225,-253.586 1242.666,-250.3407 1253.2209,-247.6935 1258.0293,-247.0073 1258.318,-246.9815 1273.3639,-246.4318 1274.7207,-246.4549 1275.0809,-246.4803 1286.1064,-246.076 1290.7135,-246.4019 1295.9559,-246.2104 1298.8521,-246.2596 1305.1613,-246.7047 1305.907,-246.6777 1308.0431,-246.7137 1311.1896,-246.5994 1324.468,-245.4036 1337.2906,-242.8725 1342.1908,-241.6461 1345.2163,-240.7288 1348.5425,-239.5421 1360.4248,-234.6536 1361.7572,-234.0353 1374.3849,-227.4893 1403.6116,-209.2488 1416.5522,-181.68 1460.2117,-105.8718 1481.6951,-107.973 1495.2465,-108.7696 1497.2296,-108.8087 1506.1947,-110.6003 1515.491,-112.2679 1521.951,-113.2941 1541.8944,-115.6463 1545.2764,-115.8373 1644.1165,-119.4016 1648.6659,-117.303 1658.6025,-113.8828 1719.37,-127.8661 1743.4298,-131.9373 1747.392,-132.3652 1753.574,-132.7825 1761.4205,-134.0483 1776.0121,-136.0984 1776.4191,-136.147 1778.051,-136.2741 1792.3073,-137.088 1800.8508,-137.3975 1821.848,-137.2815 1836.6824,-136.8904 1890.3412,-157.6776 1956.2017,-146.5473 1963.4221,-146.3319 1972.2826,-145.8724 1983.4675,-145.0462 1987.2158,-144.6872 1997.1233,-143.0822 2017.3123,-139.3642 2027.7074,-136.7662 2037.5549,-133.8701 2037.9092,-133.7581 2059.7239,-126.3738 2077.0854,-119.7428 2134.2085,-134.9589 2222.3364,-110.4364 2236.8843,-106.0684 2242.5012,-104.2601 2243.1602,-104.3259 2253.8618,-105.1827 2260.2375,-105.5671 2269.3508,-105.9364 2274.1277,-105.9414 2291.1624,-105.6226 2294.5891,-105.4909 2375.1973,-150.2113 2390.9429,-152.5719 2410.8806,-154.7053 2417.5852,-155.2777 2419.0154,-155.3689 2441.2339,-155.3521 2449.0032,-154.8436 2463.5598,-157.7495 2463.865,-157.8035 2466.9158,-158.2748 2483.5325,-160.0997 2507.1311,-161.1064 2538.2744,-161.038 2591.1465,-185.4136 2638.0098,-211.2978 2664.5684,-255.1899 2664.7729,-266.3586 2661.4055,-279.1631 2650.7073,-323.3368 2637.7949,-388.4996 2574.7212,-443.1316 2504.6377,-455.2648 2490.6553,-458.3454 2487.3376,-459.2328 2475.4788,-457.5521 2470.7651,-456.9914 2467.2749,-456.6555 2458.7292,-456.0269 2444.9529,-455.638 2434.8569,-455.8111 2416.4465,-456.9625 2396.2134,-459.6047 2395.3462,-459.7374 2318.7402,-474.9345 2294.0181,-467.4759 2279.6338,-467.6115 2271.7966,-467.9763 2253.3145,-469.5241 "/>
<polyline fill="none" stroke="#000000" points="86.0417,-976.7285 71.274,-970.936 6.3356,-899.3496 -4.2684,-892.3623 -87.2901,-813.9598 -85.5082,-757.6 -86.1939,-733.7134 -121.1816,-659.0289 -117.4485,-628.4854 -116.9964,-624.0176 -112.1653,-542.5378 -26.6562,-477.5895 24.6478,-480.0287 28.8535,-480.1361 50.208,-480.2108 56.2404,-479.8329 75.0845,-478.2359 101.2409,-474.2943 183.7565,-517.0675 190.9703,-517.6527 199.6959,-518.1674 208.71,-518.301 225.2431,-517.4517 251.7756,-515.504 371.7432,-554.8012 373.4525,-608.7335 382.85,-629.7708 383.8046,-632.0372 356.8429,-745.8095 354.3029,-760.2233 353.8336,-762.152 353.4261,-764.4337 350.3338,-791.2766 322.9904,-906.6594 309.8242,-906.2429 287.0129,-906.0353 273.51,-906.8257 270.7234,-907.1144 265.4535,-907.78 154.4873,-970.6114 146.9857,-975.2466 137.2897,-981.7477 136.6455,-982.2139 116.0825,-979.7609 86.0417,-976.7285 "/>
<polyline fill="none" stroke="#000000" points="879.6825,-545.4489 891.6896,-536.4202 902.8655,-529.3499 966.4991,-492.9553 980.7375,-483.0163 982.293,-481.8366 990.8589,-474.8012 993.1644,-472.7654 998.9408,-467.9999 999.3934,-467.6006 1000.3571,-466.6299 996.1136,-459.4123 980.068,-429.9583 949.6058,-368.39 902.5627,-293.5368 897.1147,-284.0485 884.2399,-275.276 871.0417,-265.5779 865.6205,-261.4521 855.9396,-253.3013 842.5216,-257.1066 816.9946,-263.9052 779.0576,-267.0583 777.1484,-268.3833 764.3055,-276.6025 759.2824,-279.5462 745.5851,-287.2099 731.4301,-294.3684 662.4539,-325.5287 600.8016,-365.5539 563.6339,-428.6544 578.7362,-444.3011 588.3151,-453 598.1552,-463.1881 603.679,-468.6255 618.0188,-482.0154 626.4434,-488.5915 633.1084,-493.4656 724.0305,-555.466 737.9304,-565.6793 758.8265,-583.1807 758.956,-583.3017 769.0563,-593.8175 774.2748,-598.7764 779.4916,-597.0874 783.6895,-595.8403 816.9946,-586.8302 834.3105,-586.6372 842.9114,-578.2755 858.8137,-563.5947 867.879,-555.7101 868.0947,-555.5455 879.6825,-545.4489 "/>
<polyline fill="none" stroke="#000000" points="1572.9846,-1189.2968 1578.2737,-1189.3306 1581.0066,-1189.0509 1582.0989,-1189.0059 1595.1508,-1184.8185 1617.1548,-1179.2478 1683.3894,-1163.9994 1698.0741,-1168.2222 1747.5225,-1177.8512 1767.1979,-1182.1429 1775.4292,-1184.318 1798.6497,-1191.5337 1803.6907,-1193.3291 1809.1482,-1195.5247 1820.1638,-1200.2131 1822.0812,-1201.0734 1832.3671,-1212.5132 1833.6053,-1213.4924 1942.3972,-1256.2786 1964.184,-1265.7767 1968.0709,-1267.7162 1984.3593,-1264.5959 1992.8655,-1263.421 2001.877,-1260.4662 2036.9961,-1249.6371 2106.8572,-1191.0881 2111.3152,-1186.7954 2127.7524,-1181.6794 2142.1711,-1177.8663 2159.813,-1174.4346 2164.926,-1173.7969 2189.1765,-1171.3336 2233.4004,-1167.8782 2285.0581,-1183.9907 2308.4727,-1192.3872 2308.9563,-1192.5826 2316.7258,-1195.903 2325.0134,-1196.5371 2328.6257,-1196.9543 2344.9634,-1199.1615 2350.6819,-1200.2686 2364.2515,-1203.1624 2368.5281,-1201.1353 2400.9253,-1187.2429 2461.469,-1156.7677 2488.696,-1123.5996 2498.271,-1077.9364 2516.2898,-1001.1486 2517.9055,-995.3578 2474.9937,-920.2734 2424.8867,-883.6684 2364.3513,-871.6607 2345.6228,-866.7217 2336.7341,-863.9922 2325.4492,-860.0346 2315.1201,-856.1876 2311.5654,-856.281 2310.9238,-856.2858 2300.3628,-855.9692 2277.9172,-854.4536 2260.9207,-852.9888 2233.4004,-864.1882 2185.6729,-867.2452 2173.1057,-867.7939 2163.022,-868.0278 2159.4216,-868.0377 2142.2256,-867.3808 2038.0474,-810.7446 2015.2457,-808.1476 2011.8783,-807.6287 2003.5869,-806.0145 1999.672,-805.1727 1978.1045,-800.094 1966.744,-796.9626 1963.874,-796.0562 1952.6106,-792.2701 1947.0042,-790.2727 1918.6123,-778.4167 1772.6603,-708.7141 1740.1503,-713.4343 1729.8856,-712.0336 1683.1093,-753.8374 1628.8735,-781.5174 1606.2977,-792.6754 1601.1798,-796.4932 1585.7939,-807.3254 1568.3207,-818.5276 1567.8699,-818.807 1562.5385,-821.9997 1557.2037,-827.7845 1540.9094,-843.8365 1539.4446,-845.23 1527.1757,-858.174 1480.6,-903.7191 1433.2115,-923.2098 1422.6852,-927.1536 1415.647,-929.5281 1404.0299,-932.5879 1391.8228,-934.901 1376.7712,-936.6389 1372.2242,-936.9945 1367.9933,-937.0122 1363.7603,-937.1909 1363.5349,-937.3669 1356.6692,-942.3309 1353.9606,-944.4629 1281.8425,-992.2971 1268.1498,-1002.3412 1267.6637,-1002.7638 1255.9503,-1012.1957 1220.7407,-1042.7576 1220.0295,-1047.8218 1219.5652,-1050.2803 1231.7026,-1082.7241 1232.5789,-1083.3177 1244.5979,-1091.0432 1257.9968,-1098.7064 1262.5515,-1101.1465 1263.3741,-1101.5576 1270.2489,-1104.7533 1280.2638,-1109.056 1355.6328,-1138.7395 1374.5197,-1148.2413 1375.4343,-1148.7671 1398.83,-1163.0879 1400.1764,-1164.0054 1401.2457,-1164.7725 1406.2004,-1168.5111 1423.6704,-1182.347 1424.1023,-1182.7043 1427.9934,-1186.0634 1454.5194,-1209.9365 1480.6,-1198.3296 1520.8184,-1192.8895 1546.3574,-1189.948 1548.2916,-1189.7646 1551.3959,-1189.5962 1572.9846,-1189.2968 "/>
<polyline fill="none" stroke="#000000" points="445.1714,-943.6042 437.0251,-943.4662 427.9313,-940.3962 408.2455,-935.0364 375.1295,-928.1869 322.9904,-906.6594 350.3338,-791.2766 353.4261,-764.4337 353.8336,-762.152 354.3029,-760.2233 356.8429,-745.8095 383.8046,-632.0372 382.85,-629.7708 373.4525,-608.7335 371.7432,-554.8012 422.0359,-516.0697 438.612,-495.606 490.3192,-453.7558 563.6339,-428.6544 578.7362,-444.3011 588.3151,-453 598.1552,-463.1881 603.679,-468.6255 618.0188,-482.0154 626.4434,-488.5915 633.1084,-493.4656 724.0305,-555.466 737.9304,-565.6793 758.8265,-583.1807 758.956,-583.3017 769.0563,-593.8175 774.2748,-598.7764 779.4916,-597.0874 783.6895,-595.8403 816.9946,-586.8302 834.3105,-586.6372 855.6165,-603.4769 861.3372,-607.481 868.0245,-612.4706 878.5236,-619.796 880.1144,-620.8267 891.2391,-626.9839 904.4501,-633.6631 910.0449,-635.9437 923.5326,-640.7959 925.9022,-641.5311 928.0579,-642.0955 947.7968,-645.3936 952.3077,-645.9272 956.4377,-646.2162 966.2671,-645.9592 970.0645,-646.0449 979.2813,-646.7015 982.9947,-647.1461 988.0518,-647.9974 1005.9778,-652.7903 1008.955,-650.1006 1016.488,-644.4568 1021.2736,-641.2302 1024.6405,-639.2079 1071.7639,-614.278 1074.5167,-585.4484 1074.6096,-582.0167 1075.261,-578.1213 1075.9822,-552.1009 1083.0886,-477.6773 1120.1119,-470.4978 1131.9779,-467.8211 1141.4263,-465.0954 1149.5825,-462.2253 1161.9865,-457.4654 1177.7892,-450.4052 1185.3442,-446.5611 1195.755,-440.6064 1202.411,-436.3748 1263.0796,-452.6381 1287.1969,-459.6893 1296.9078,-463.2191 1307.9448,-467.494 1319.1572,-472.3683 1332.6754,-478.8872 1335.9114,-480.5233 1297.4901,-580.57 1287.9336,-615.0336 1285.6038,-622.4036 1261.3219,-641.4955 1248.0597,-675.89 1241.5497,-705.2438 1236.8458,-719.1761 1233.2373,-721.1159 1219.9197,-726.5556 1205.5219,-730.5616 1190.377,-731.832 1183.5776,-731.9609 1183.5568,-731.9641 1180.9507,-732.1916 1177.0226,-732.2811 1173.4758,-732.1327 1173.1438,-732.0971 1162.0916,-731.6528 1161.774,-731.6194 1154.483,-731.8282 1154.0574,-731.8688 1146.6582,-732.0942 1131.2021,-734.6334 1120.1514,-737.9169 1105.6807,-744.1524 1094.1854,-750.6173 1082.3452,-758.8418 1059.1985,-777.9989 1048.7977,-779.242 1016.961,-810.4547 1015.9139,-814.9622 1007.9091,-863.1566 1007.5359,-865.0154 1007.1246,-867.5141 1004.4536,-880.9283 996.298,-886.1126 993.3834,-887.8224 939.2029,-917.0148 914.7593,-905.1039 911.9835,-903.9127 898.3261,-899.5763 891.1699,-897.7151 877.2675,-895.6827 868.4379,-895.4023 867.4069,-895.4285 864.3623,-895.3288 858.3408,-895.4765 851.7232,-895.2537 850.4207,-895.1342 847.707,-895.3509 839.2466,-895.535 834.9442,-895.3786 834.179,-895.3062 828.8826,-895.1094 819.0542,-894.1743 807.6869,-891.7728 798.0735,-889.1883 796.9028,-888.8076 791.2129,-886.6292 790.9752,-886.5244 778.996,-880.5174 770.5078,-875.7651 766.6141,-873.3617 762.1389,-873.3502 760.9699,-873.2509 750.9727,-872.808 737.3868,-871.649 662.2276,-924.606 654.4667,-930.9114 647.9882,-936.5293 642.2359,-941.8315 632.8824,-950.9669 626.3087,-958.11 619.356,-964.6437 603.2018,-981.3471 586.9799,-1000.4052 581.393,-1007.4911 570.7376,-1001.4692 564.5477,-998.1216 448.8434,-943.81 445.1714,-943.6042 "/>
<polyline fill="none" stroke="#000000" points="993.3834,-887.8224 996.298,-886.1126 1004.4536,-880.9283 1012.1342,-888.2343 1013.2775,-889.2446 1015.8537,-891.691 1021.1933,-896.3884 1036.7927,-908.0219 1048.2583,-914.9838 1061.4655,-921.1934 1073.2533,-925.1122 1077.3641,-926.1927 1084.3019,-927.5412 1084.7795,-927.6013 1091.476,-927.9919 1100.3469,-927.9018 1104.8943,-928.1627 1105.3234,-928.2164 1112.1786,-928.5994 1119.6545,-929.5211 1128.3293,-931.173 1133.4962,-932.4985 1181.2858,-951.1964 1185.8302,-964.0813 1215.7434,-1032.1755 1220.7407,-1042.7576 1220.0295,-1047.8218 1219.5652,-1050.2803 1231.7026,-1082.7241 1232.5789,-1083.3177 1244.5979,-1091.0432 1257.9968,-1098.7064 1262.5515,-1101.1465 1263.3741,-1101.5576 1270.2489,-1104.7533 1280.2638,-1109.056 1355.6328,-1138.7395 1374.5197,-1148.2413 1375.4343,-1148.7671 1398.83,-1163.0879 1400.1764,-1164.0054 1401.2457,-1164.7725 1406.2004,-1168.5111 1423.6704,-1182.347 1424.1023,-1182.7043 1427.9934,-1186.0634 1454.5194,-1209.9365 1452.3176,-1214.6812 1450.2534,-1219.571 1413.8746,-1310.2009 1286.5432,-1379.6927 1281.9956,-1380.35 1266.1863,-1382.9487 1257.464,-1384.9004 1255.4404,-1385.3933 1202.0087,-1414.8149 1167.7032,-1416.6752 1160.6436,-1417.3374 1156.2772,-1421.6312 1070.7615,-1512.2209 1001.9922,-1533.3345 989.7681,-1534.8879 974.1915,-1537.5992 965.9985,-1539.4091 961.0771,-1538.6414 906.8871,-1532.6536 845.0439,-1481.8833 819.6248,-1423.1925 817.676,-1416.9432 813.7385,-1406.0188 754.3861,-1352.7552 728.5632,-1299.3817 721.4861,-1286.1786 729.1498,-1216.4053 658.9954,-1118.0145 629.6999,-1078.8055 628.6057,-1077.3959 603.334,-1061.1541 581.393,-1007.4911 586.9799,-1000.4052 603.2018,-981.3471 619.356,-964.6437 626.3087,-958.11 632.8824,-950.9669 642.2359,-941.8315 647.9882,-936.5293 654.4667,-930.9114 662.2276,-924.606 737.3868,-871.649 750.9727,-872.808 760.9699,-873.2509 762.1389,-873.3502 766.6141,-873.3617 770.5078,-875.7651 778.996,-880.5174 790.9752,-886.5244 791.2129,-886.6292 796.9028,-888.8076 798.0735,-889.1883 807.6869,-891.7728 819.0542,-894.1743 828.8826,-895.1094 834.179,-895.3062 834.9442,-895.3786 839.2466,-895.535 847.707,-895.3509 850.4207,-895.1342 851.7232,-895.2537 858.3408,-895.4765 864.3623,-895.3288 867.4069,-895.4285 868.4379,-895.4023 877.2675,-895.6827 891.1699,-897.7151 898.3261,-899.5763 911.9835,-903.9127 914.7593,-905.1039 939.2029,-917.0148 993.3834,-887.8224 "/>
<!-- authconfig&#45;&gt;policycoreutils -->
<g id="edge1" class="edge">
<title>authconfig&#45;&gt;policycoreutils</title>
<path fill="none" stroke="#444444" stroke-opacity="0.333333" d="M1084.1369,-193.1465C1094.8968,-170.3795 1113.4929,-131.0314 1125.9926,-104.583"/>
<polygon fill="#444444" fill-opacity="0.333333" stroke="#444444" stroke-opacity="0.333333" points="1129.1876,-106.0137 1130.2962,-95.477 1122.8588,-103.0227 1129.1876,-106.0137"/>
</g>
<!-- authconfig&#45;&gt;python3&#45;sssdconfig -->
<g id="edge2" class="edge">
<title>authconfig&#45;&gt;python3&#45;sssdconfig</title>
<path fill="none" stroke="#444444" stroke-opacity="0.333333" d="M1140.3298,-200.5907C1140.4149,-200.5768 1140.4999,-200.5628 1140.585,-200.5488"/>
<polygon fill="#444444" fill-opacity="0.333333" stroke="#444444" stroke-opacity="0.333333" points="1139.2819,-204.3095 1148.5833,-199.2367 1138.1486,-197.4019 1139.2819,-204.3095"/>
</g>
<!-- policycoreutils&#45;&gt;libselinux&#45;utils -->
<g id="edge3" class="edge">
<title>policycoreutils&#45;&gt;libselinux&#45;utils</title>
<path fill="none" stroke="#444444" stroke-opacity="0.333333" d="M1123.9627,-59.1664C1120.0551,-54.4299 1115.7634,-49.228 1111.5849,-44.1632"/>
<polygon fill="#444444" fill-opacity="0.333333" stroke="#444444" stroke-opacity="0.333333" points="1114.247,-41.8901 1105.1833,-36.4038 1108.8474,-46.3449 1114.247,-41.8901"/>
</g>
<!-- curl&#45;minimal&#45;&gt;libcurl&#45;minimal -->
<g id="edge4" class="edge">
<title>curl&#45;minimal&#45;&gt;libcurl&#45;minimal</title>
<path fill="none" stroke="#444444" stroke-opacity="0.333333" d="M1287.2102,-827.0968C1275.1306,-821.7136 1261.7601,-815.7551 1249.1682,-810.1435"/>
<polygon fill="#444444" fill-opacity="0.333333" stroke="#444444" stroke-opacity="0.333333" points="1250.2839,-806.809 1239.7251,-805.9353 1247.4345,-813.2028 1250.2839,-806.809"/>
</g>
<!-- firewalld&#45;&gt;firewalld&#45;filesystem -->
<g id="edge5" class="edge">
<title>firewalld&#45;&gt;firewalld&#45;filesystem</title>
<path fill="none" stroke="#444444" stroke-opacity="0.333333" d="M2317.0311,-290.1446C2317.9391,-290.2762 2318.8521,-290.4085 2319.7698,-290.5416"/>
<polygon fill="#444444" fill-opacity="0.333333" stroke="#444444" stroke-opacity="0.333333" points="2319.3661,-294.0195 2329.7647,-291.9902 2320.3702,-287.0919 2319.3661,-294.0195"/>
</g>
<!-- firewalld&#45;&gt;python3&#45;firewall -->
<g id="edge6" class="edge">
<title>firewalld&#45;&gt;python3&#45;firewall</title>
<path fill="none" stroke="#444444" stroke-opacity="0.333333" d="M2198.7332,-284.2978C2174.6213,-285.4154 2145.9627,-286.7437 2118.3966,-288.0214"/>
<polygon fill="#444444" fill-opacity="0.333333" stroke="#444444" stroke-opacity="0.333333" points="2118.1278,-284.53 2108.3006,-288.4894 2118.4519,-291.5225 2118.1278,-284.53"/>
</g>
<!-- python3&#45;firewall&#45;&gt;python3&#45;decorator -->
<g id="edge7" class="edge">
<title>python3&#45;firewall&#45;&gt;python3&#45;decorator</title>
<path fill="none" stroke="#444444" stroke-opacity="0.333333" d="M1992.1696,-311.2002C1970.9188,-331.5353 1936.3753,-364.59 1912.4676,-387.4673"/>
<polygon fill="#444444" fill-opacity="0.333333" stroke="#444444" stroke-opacity="0.333333" points="1909.9147,-385.0659 1905.1095,-394.5084 1914.7543,-390.1235 1909.9147,-385.0659"/>
</g>
<!-- python3&#45;firewall&#45;&gt;python3&#45;slip&#45;dbus -->
<g id="edge8" class="edge">
<title>python3&#45;firewall&#45;&gt;python3&#45;slip&#45;dbus</title>
<path fill="none" stroke="#444444" stroke-opacity="0.333333" d="M1914.0948,-292.0401C1901.4252,-291.9161 1888.3602,-291.7883 1875.4626,-291.6621"/>
<polygon fill="#444444" fill-opacity="0.333333" stroke="#444444" stroke-opacity="0.333333" points="1875.1994,-288.1595 1865.1656,-291.5614 1875.1308,-295.1592 1875.1994,-288.1595"/>
</g>
<!-- python3&#45;slip&#45;dbus&#45;&gt;python3&#45;decorator -->
<g id="edge9" class="edge">
<title>python3&#45;slip&#45;dbus&#45;&gt;python3&#45;decorator</title>
<path fill="none" stroke="#444444" stroke-opacity="0.333333" d="M1780.9638,-308.6102C1801.9651,-329.4801 1836.6776,-363.9755 1860.3831,-387.5327"/>
<polygon fill="#444444" fill-opacity="0.333333" stroke="#444444" stroke-opacity="0.333333" points="1858.1013,-390.1995 1867.6616,-394.7657 1863.0355,-385.2342 1858.1013,-390.1995"/>
</g>
<!-- python3&#45;slip&#45;dbus&#45;&gt;python3&#45;slip -->
<g id="edge10" class="edge">
<title>python3&#45;slip&#45;dbus&#45;&gt;python3&#45;slip</title>
<path fill="none" stroke="#444444" stroke-opacity="0.333333" d="M1660.5941,-285.7747C1641.0272,-284.8585 1620.7263,-283.908 1601.7379,-283.019"/>
<polygon fill="#444444" fill-opacity="0.333333" stroke="#444444" stroke-opacity="0.333333" points="1601.7917,-279.5178 1591.639,-282.5461 1601.4643,-286.5101 1601.7917,-279.5178"/>
</g>
<!-- python3&#45;slip&#45;&gt;libselinux&#45;python3 -->
<g id="edge64" class="edge">
<title>python3&#45;slip&#45;&gt;libselinux&#45;python3</title>
<path fill="none" stroke="#444444" stroke-opacity="0.333333" d="M1440.2564,-291.7725C1440.1719,-291.7868 1440.0874,-291.8011 1440.0029,-291.8154"/>
<polygon fill="#444444" fill-opacity="0.333333" stroke="#444444" stroke-opacity="0.333333" points="1441.3658,-288.0356 1432.0882,-293.1518 1442.5314,-294.9379 1441.3658,-288.0356"/>
</g>
<!-- libmbim&#45;&gt;libgudev -->
<g id="edge11" class="edge">
<title>libmbim&#45;&gt;libgudev</title>
<path fill="none" stroke="#444444" stroke-opacity="0.333333" d="M82.9979,-739.5104C77.3637,-717.4027 67.7657,-679.7409 61.1527,-653.7921"/>
<polygon fill="#444444" fill-opacity="0.333333" stroke="#444444" stroke-opacity="0.333333" points="64.4687,-652.6309 58.6075,-643.805 57.6855,-654.3596 64.4687,-652.6309"/>
</g>
<!-- libmbim&#45;utils&#45;&gt;libmbim -->
<g id="edge12" class="edge">
<title>libmbim&#45;utils&#45;&gt;libmbim</title>
<path fill="none" stroke="#444444" stroke-opacity="0.333333" d="M119.8564,-731.7211C119.2584,-732.2011 118.6572,-732.6835 118.0541,-733.1675"/>
<polygon fill="#444444" fill-opacity="0.333333" stroke="#444444" stroke-opacity="0.333333" points="115.8082,-730.4821 110.1996,-739.4706 120.1894,-735.9416 115.8082,-730.4821"/>
</g>
<!-- libmbim&#45;utils&#45;&gt;libgudev -->
<g id="edge13" class="edge">
<title>libmbim&#45;utils&#45;&gt;libgudev</title>
<path fill="none" stroke="#444444" stroke-opacity="0.333333" d="M124.1513,-695.3081C111.2091,-682.4411 93.7034,-665.0372 79.4104,-650.8273"/>
<polygon fill="#444444" fill-opacity="0.333333" stroke="#444444" stroke-opacity="0.333333" points="81.8295,-648.2969 72.2701,-643.7286 76.8942,-653.2611 81.8295,-648.2969"/>
</g>
<!-- libproxy&#45;&gt;libmodman -->
<g id="edge14" class="edge">
<title>libproxy&#45;&gt;libmodman</title>
<path fill="none" stroke="#444444" stroke-opacity="0.333333" d="M822.0711,-453C821.9137,-453 821.7562,-453 821.5986,-453"/>
<polygon fill="#444444" fill-opacity="0.333333" stroke="#444444" stroke-opacity="0.333333" points="824.4865,-449.5001 814.4865,-453 824.4864,-456.5001 824.4865,-449.5001"/>
</g>
<!-- libqmi&#45;&gt;libmbim -->
<g id="edge15" class="edge">
<title>libqmi&#45;&gt;libmbim</title>
<path fill="none" stroke="#444444" stroke-opacity="0.333333" d="M119.5039,-783.4554C118.9124,-782.9759 118.3178,-782.4939 117.7213,-782.0103"/>
<polygon fill="#444444" fill-opacity="0.333333" stroke="#444444" stroke-opacity="0.333333" points="119.9249,-779.2912 109.9526,-775.7129 115.5169,-784.729 119.9249,-779.2912"/>
</g>
<!-- libqmi&#45;utils&#45;&gt;libmbim -->
<g id="edge16" class="edge">
<title>libqmi&#45;utils&#45;&gt;libmbim</title>
<path fill="none" stroke="#444444" stroke-opacity="0.333333" d="M167.9519,-687.7702C153.0049,-700.7612 132.7394,-718.3747 116.3013,-732.6616"/>
<polygon fill="#444444" fill-opacity="0.333333" stroke="#444444" stroke-opacity="0.333333" points="113.8309,-730.1715 108.5792,-739.3731 118.4229,-735.4549 113.8309,-730.1715"/>
</g>
<!-- libqmi&#45;utils&#45;&gt;libgudev -->
<g id="edge17" class="edge">
<title>libqmi&#45;utils&#45;&gt;libgudev</title>
<path fill="none" stroke="#444444" stroke-opacity="0.333333" d="M133.6488,-651.4925C128.3694,-649.7714 122.987,-648.0168 117.6366,-646.2727"/>
<polygon fill="#444444" fill-opacity="0.333333" stroke="#444444" stroke-opacity="0.333333" points="118.6621,-642.9258 108.0697,-643.154 116.4925,-649.5811 118.6621,-642.9258"/>
</g>
<!-- libqmi&#45;utils&#45;&gt;libqmi -->
<g id="edge18" class="edge">
<title>libqmi&#45;utils&#45;&gt;libqmi</title>
<path fill="none" stroke="#444444" stroke-opacity="0.333333" d="M182.5066,-687.6096C174.5968,-709.8156 161.0975,-747.7141 151.851,-773.6731"/>
<polygon fill="#444444" fill-opacity="0.333333" stroke="#444444" stroke-opacity="0.333333" points="148.475,-772.7203 148.4166,-783.315 155.0692,-775.0692 148.475,-772.7203"/>
</g>
<!-- mariadb&#45;common&#45;&gt;mariadb&#45;config -->
<g id="edge19" class="edge">
<title>mariadb&#45;common&#45;&gt;mariadb&#45;config</title>
<path fill="none" stroke="#444444" stroke-opacity="0.333333" d="M1484.2823,-1028.8C1484.1304,-1028.8 1483.9784,-1028.8 1483.8265,-1028.8"/>
<polygon fill="#444444" fill-opacity="0.333333" stroke="#444444" stroke-opacity="0.333333" points="1486.9866,-1025.3001 1476.9865,-1028.8 1486.9865,-1032.3001 1486.9866,-1025.3001"/>
</g>
<!-- mariadb&#45;libs&#45;&gt;mariadb&#45;common -->
<g id="edge20" class="edge">
<title>mariadb&#45;libs&#45;&gt;mariadb&#45;common</title>
<path fill="none" stroke="#444444" stroke-opacity="0.333333" d="M1715.3906,-1028.7343C1699.6909,-1028.7414 1682.9471,-1028.749 1666.6217,-1028.7564"/>
<polygon fill="#444444" fill-opacity="0.333333" stroke="#444444" stroke-opacity="0.333333" points="1666.5223,-1025.2563 1656.5239,-1028.761 1666.5255,-1032.2563 1666.5223,-1025.2563"/>
</g>
<!-- ModemManager&#45;&gt;libmbim -->
<g id="edge21" class="edge">
<title>ModemManager&#45;&gt;libmbim</title>
<path fill="none" stroke="#444444" stroke-opacity="0.333333" d="M191.6557,-757.5884C176.445,-757.5901 160.679,-757.5919 146.1597,-757.5935"/>
<polygon fill="#444444" fill-opacity="0.333333" stroke="#444444" stroke-opacity="0.333333" points="145.8331,-754.0934 135.8335,-757.5946 145.834,-761.0934 145.8331,-754.0934"/>
</g>
<!-- ModemManager&#45;&gt;libgudev -->
<g id="edge22" class="edge">
<title>ModemManager&#45;&gt;libgudev</title>
<path fill="none" stroke="#444444" stroke-opacity="0.333333" d="M238.1417,-739.4932C200.0918,-715.9474 133.5262,-674.7558 91.694,-648.8695"/>
<polygon fill="#444444" fill-opacity="0.333333" stroke="#444444" stroke-opacity="0.333333" points="93.5073,-645.8757 83.162,-643.5898 89.8238,-651.8282 93.5073,-645.8757"/>
</g>
<!-- ModemManager&#45;&gt;libmbim&#45;utils -->
<g id="edge23" class="edge">
<title>ModemManager&#45;&gt;libmbim&#45;utils</title>
<path fill="none" stroke="#444444" stroke-opacity="0.333333" d="M216.2203,-739.5443C211.9371,-738.034 207.5806,-736.4979 203.2351,-734.9656"/>
<polygon fill="#444444" fill-opacity="0.333333" stroke="#444444" stroke-opacity="0.333333" points="204.367,-731.6536 193.7722,-731.6289 202.0392,-738.2552 204.367,-731.6536"/>
</g>
<!-- ModemManager&#45;&gt;libqmi -->
<g id="edge24" class="edge">
<title>ModemManager&#45;&gt;libqmi</title>
<path fill="none" stroke="#444444" stroke-opacity="0.333333" d="M215.9745,-775.6157C208.9024,-778.0975 201.6313,-780.6491 194.5372,-783.1385"/>
<polygon fill="#444444" fill-opacity="0.333333" stroke="#444444" stroke-opacity="0.333333" points="193.2852,-779.8685 185.0083,-786.4824 195.6032,-786.4737 193.2852,-779.8685"/>
</g>
<!-- ModemManager&#45;&gt;libqmi&#45;utils -->
<g id="edge25" class="edge">
<title>ModemManager&#45;&gt;libqmi&#45;utils</title>
<path fill="none" stroke="#444444" stroke-opacity="0.333333" d="M251.1213,-739.3339C239.7655,-726.5821 224.4422,-709.3752 211.85,-695.2351"/>
<polygon fill="#444444" fill-opacity="0.333333" stroke="#444444" stroke-opacity="0.333333" points="214.4422,-692.8831 205.1779,-687.7427 209.2146,-697.5384 214.4422,-692.8831"/>
</g>
<!-- ModemManager&#45;&gt;ModemManager&#45;glib -->
<g id="edge26" class="edge">
<title>ModemManager&#45;&gt;ModemManager&#45;glib</title>
<path fill="none" stroke="#444444" stroke-opacity="0.333333" d="M343.0957,-766.9437C343.2522,-766.963 343.4088,-766.9824 343.5655,-767.0018"/>
<polygon fill="#444444" fill-opacity="0.333333" stroke="#444444" stroke-opacity="0.333333" points="340.2999,-770.1245 350.6539,-767.8783 341.159,-763.1774 340.2999,-770.1245"/>
</g>
<!-- net&#45;snmp&#45;agent&#45;libs&#45;&gt;mariadb&#45;libs -->
<g id="edge27" class="edge">
<title>net&#45;snmp&#45;agent&#45;libs&#45;&gt;mariadb&#45;libs</title>
<path fill="none" stroke="#444444" stroke-opacity="0.333333" d="M1909.9641,-993.0307C1894.3111,-997.724 1877.3093,-1002.8217 1861.187,-1007.6557"/>
<polygon fill="#444444" fill-opacity="0.333333" stroke="#444444" stroke-opacity="0.333333" points="1859.8556,-1004.4008 1851.2821,-1010.6255 1861.866,-1011.1059 1859.8556,-1004.4008"/>
</g>
<!-- net&#45;snmp&#45;agent&#45;libs&#45;&gt;net&#45;snmp&#45;libs -->
<g id="edge28" class="edge">
<title>net&#45;snmp&#45;agent&#45;libs&#45;&gt;net&#45;snmp&#45;libs</title>
<path fill="none" stroke="#444444" stroke-opacity="0.333333" d="M2027.5162,-993.0643C2042.3999,-997.747 2058.5608,-1002.8315 2073.8976,-1007.6568"/>
<polygon fill="#444444" fill-opacity="0.333333" stroke="#444444" stroke-opacity="0.333333" points="2073.2459,-1011.1208 2083.8353,-1010.7834 2075.3467,-1004.4435 2073.2459,-1011.1208"/>
</g>
<!-- net&#45;snmp&#45;&gt;mariadb&#45;libs -->
<g id="edge29" class="edge">
<title>net&#45;snmp&#45;&gt;mariadb&#45;libs</title>
<path fill="none" stroke="#444444" stroke-opacity="0.333333" d="M1915.9478,-1066.2122C1898.571,-1060.9953 1879.0818,-1055.1442 1860.7583,-1049.643"/>
<polygon fill="#444444" fill-opacity="0.333333" stroke="#444444" stroke-opacity="0.333333" points="1861.5948,-1046.2399 1851.0107,-1046.7166 1859.582,-1052.9443 1861.5948,-1046.2399"/>
</g>
<!-- net&#45;snmp&#45;&gt;net&#45;snmp&#45;agent&#45;libs -->
<g id="edge30" class="edge">
<title>net&#45;snmp&#45;&gt;net&#45;snmp&#45;agent&#45;libs</title>
<path fill="none" stroke="#444444" stroke-opacity="0.333333" d="M1970.183,-1064.2641C1970.1675,-1047.5849 1970.1443,-1022.6475 1970.1264,-1003.3666"/>
<polygon fill="#444444" fill-opacity="0.333333" stroke="#444444" stroke-opacity="0.333333" points="1973.6264,-1003.3221 1970.117,-993.3254 1966.6265,-1003.3287 1973.6264,-1003.3221"/>
</g>
<!-- net&#45;snmp&#45;&gt;net&#45;snmp&#45;libs -->
<g id="edge31" class="edge">
<title>net&#45;snmp&#45;&gt;net&#45;snmp&#45;libs</title>
<path fill="none" stroke="#444444" stroke-opacity="0.333333" d="M2024.2738,-1065.509C2040.0508,-1060.5516 2057.485,-1055.0734 2073.9654,-1049.895"/>
<polygon fill="#444444" fill-opacity="0.333333" stroke="#444444" stroke-opacity="0.333333" points="2075.0479,-1053.2236 2083.5388,-1046.8868 2072.9495,-1046.5455 2075.0479,-1053.2236"/>
</g>
<!-- net&#45;snmp&#45;utils&#45;&gt;net&#45;snmp&#45;libs -->
<g id="edge32" class="edge">
<title>net&#45;snmp&#45;utils&#45;&gt;net&#45;snmp&#45;libs</title>
<path fill="none" stroke="#444444" stroke-opacity="0.333333" d="M2242.097,-1028.8C2238.6905,-1028.8 2235.2708,-1028.8 2231.8562,-1028.8"/>
<polygon fill="#444444" fill-opacity="0.333333" stroke="#444444" stroke-opacity="0.333333" points="2231.6456,-1025.3001 2221.6456,-1028.8 2231.6456,-1032.3001 2231.6456,-1025.3001"/>
</g>
<!-- NetworkManager&#45;adsl&#45;&gt;NetworkManager -->
<g id="edge33" class="edge">
<title>NetworkManager&#45;adsl&#45;&gt;NetworkManager</title>
<path fill="none" stroke="#444444" stroke-opacity="0.333333" d="M903.4034,-738.0011C898.5679,-755.9766 891.0856,-783.7912 885.4883,-804.5987"/>
<polygon fill="#444444" fill-opacity="0.333333" stroke="#444444" stroke-opacity="0.333333" points="882.0525,-803.8978 882.8345,-814.4638 888.8122,-805.7163 882.0525,-803.8978"/>
</g>
<!-- NetworkManager&#45;&gt;libcurl&#45;minimal -->
<g id="edge34" class="edge">
<title>NetworkManager&#45;&gt;libcurl&#45;minimal</title>
<path fill="none" stroke="#444444" stroke-opacity="0.333333" d="M964.0879,-820.5607C1005.3926,-814.8288 1055.1447,-807.9246 1098.2335,-801.9451"/>
<polygon fill="#444444" fill-opacity="0.333333" stroke="#444444" stroke-opacity="0.333333" points="1098.7503,-805.407 1108.1743,-800.5656 1097.7881,-798.4735 1098.7503,-805.407"/>
</g>
<!-- NetworkManager&#45;&gt;jansson -->
<g id="edge35" class="edge">
<title>NetworkManager&#45;&gt;jansson</title>
<path fill="none" stroke="#444444" stroke-opacity="0.333333" d="M882.6641,-850.7977C891.416,-884.967 910.2978,-958.6851 920.6402,-999.0637"/>
<polygon fill="#444444" fill-opacity="0.333333" stroke="#444444" stroke-opacity="0.333333" points="917.2627,-999.9836 923.1346,-1008.8025 924.0438,-998.2467 917.2627,-999.9836"/>
</g>
<!-- NetworkManager&#45;&gt;libndp -->
<g id="edge36" class="edge">
<title>NetworkManager&#45;&gt;libndp</title>
<path fill="none" stroke="#444444" stroke-opacity="0.333333" d="M839.7048,-814.4702C837.1927,-813.2862 834.6468,-812.0863 832.0977,-810.8848"/>
<polygon fill="#444444" fill-opacity="0.333333" stroke="#444444" stroke-opacity="0.333333" points="833.4448,-807.6505 822.9069,-806.553 830.4604,-813.9824 833.4448,-807.6505"/>
</g>
<!-- NetworkManager&#45;&gt;NetworkManager&#45;libnm -->
<g id="edge37" class="edge">
<title>NetworkManager&#45;&gt;NetworkManager&#45;libnm</title>
<path fill="none" stroke="#444444" stroke-opacity="0.333333" d="M867.9933,-850.7733C856.498,-871.7956 837.5014,-906.536 824.2439,-930.781"/>
<polygon fill="#444444" fill-opacity="0.333333" stroke="#444444" stroke-opacity="0.333333" points="821.0256,-929.3715 819.2987,-939.8246 827.1674,-932.7299 821.0256,-929.3715"/>
</g>
<!-- NetworkManager&#45;&gt;libpsl -->
<g id="edge38" class="edge">
<title>NetworkManager&#45;&gt;libpsl</title>
<path fill="none" stroke="#444444" stroke-opacity="0.333333" d="M964.2772,-847.2033C998.0951,-852.9613 1035.8291,-859.386 1065.5546,-864.4472"/>
<polygon fill="#444444" fill-opacity="0.333333" stroke="#444444" stroke-opacity="0.333333" points="1065.2697,-867.949 1075.7154,-866.1772 1066.4447,-861.0483 1065.2697,-867.949"/>
</g>
<!-- NetworkManager&#45;&gt;polkit&#45;libs -->
<g id="edge39" class="edge">
<title>NetworkManager&#45;&gt;polkit&#45;libs</title>
<path fill="none" stroke="#444444" stroke-opacity="0.333333" d="M886.2698,-814.2048C906.6471,-769.2084 959.2776,-652.9919 983.426,-599.6684"/>
<polygon fill="#444444" fill-opacity="0.333333" stroke="#444444" stroke-opacity="0.333333" points="986.6523,-601.0283 987.5894,-590.475 980.2757,-598.1405 986.6523,-601.0283"/>
</g>
<!-- NetworkManager&#45;libnm&#45;&gt;jansson -->
<g id="edge40" class="edge">
<title>NetworkManager&#45;libnm&#45;&gt;jansson</title>
<path fill="none" stroke="#444444" stroke-opacity="0.333333" d="M840.4266,-976.1838C854.8683,-984.5694 872.2119,-994.64 887.6247,-1003.5895"/>
<polygon fill="#444444" fill-opacity="0.333333" stroke="#444444" stroke-opacity="0.333333" points="886.0346,-1006.7134 896.44,-1008.7081 889.5496,-1000.6599 886.0346,-1006.7134"/>
</g>
<!-- NetworkManager&#45;bluetooth&#45;&gt;ModemManager&#45;glib -->
<g id="edge41" class="edge">
<title>NetworkManager&#45;bluetooth&#45;&gt;ModemManager&#45;glib</title>
<path fill="none" stroke="#444444" stroke-opacity="0.333333" d="M568.037,-754.5434C559.7196,-756.4198 551.2251,-758.3361 542.8067,-760.2353"/>
<polygon fill="#444444" fill-opacity="0.333333" stroke="#444444" stroke-opacity="0.333333" points="541.959,-756.8385 532.9744,-762.4534 543.4995,-763.6669 541.959,-756.8385"/>
</g>
<!-- NetworkManager&#45;bluetooth&#45;&gt;NetworkManager -->
<g id="edge42" class="edge">
<title>NetworkManager&#45;bluetooth&#45;&gt;NetworkManager</title>
<path fill="none" stroke="#444444" stroke-opacity="0.333333" d="M691.2006,-754.575C729.1569,-770.4125 784.4691,-793.4919 825.0528,-810.4257"/>
<polygon fill="#444444" fill-opacity="0.333333" stroke="#444444" stroke-opacity="0.333333" points="823.9363,-813.7523 834.5129,-814.373 826.6319,-807.2921 823.9363,-813.7523"/>
</g>
<!-- NetworkManager&#45;bluetooth&#45;&gt;bluez -->
<g id="edge43" class="edge">
<title>NetworkManager&#45;bluetooth&#45;&gt;bluez</title>
<path fill="none" stroke="#444444" stroke-opacity="0.333333" d="M622.8474,-718.4143C608.715,-708.2129 590.8799,-695.3387 575.5673,-684.2854"/>
<polygon fill="#444444" fill-opacity="0.333333" stroke="#444444" stroke-opacity="0.333333" points="577.5161,-681.3756 567.3593,-678.3605 573.4191,-687.0514 577.5161,-681.3756"/>
</g>
<!-- NetworkManager&#45;bluetooth&#45;&gt;bluez&#45;libs -->
<g id="edge44" class="edge">
<title>NetworkManager&#45;bluetooth&#45;&gt;bluez&#45;libs</title>
<path fill="none" stroke="#444444" stroke-opacity="0.333333" d="M642.2837,-718.3952C635.0724,-695.2469 622.5197,-654.9524 614.0892,-627.8903"/>
<polygon fill="#444444" fill-opacity="0.333333" stroke="#444444" stroke-opacity="0.333333" points="617.3956,-626.7362 611.0797,-618.2298 610.7124,-628.8182 617.3956,-626.7362"/>
</g>
<!-- NetworkManager&#45;bluetooth&#45;&gt;NetworkManager&#45;wwan -->
<g id="edge45" class="edge">
<title>NetworkManager&#45;bluetooth&#45;&gt;NetworkManager&#45;wwan</title>
<path fill="none" stroke="#444444" stroke-opacity="0.333333" d="M640.593,-754.7619C635.7028,-766.9206 629.1831,-783.1305 623.6577,-796.8683"/>
<polygon fill="#444444" fill-opacity="0.333333" stroke="#444444" stroke-opacity="0.333333" points="620.332,-795.7577 619.8476,-806.3414 626.8264,-798.3698 620.332,-795.7577"/>
</g>
<!-- NetworkManager&#45;wwan&#45;&gt;ModemManager -->
<g id="edge46" class="edge">
<title>NetworkManager&#45;wwan&#45;&gt;ModemManager</title>
<path fill="none" stroke="#444444" stroke-opacity="0.333333" d="M519.5721,-806.5225C467.7217,-796.4604 403.5886,-784.0147 352.9711,-774.1918"/>
<polygon fill="#444444" fill-opacity="0.333333" stroke="#444444" stroke-opacity="0.333333" points="353.5191,-770.7329 343.0354,-772.2637 352.1855,-777.6047 353.5191,-770.7329"/>
</g>
<!-- NetworkManager&#45;wwan&#45;&gt;ModemManager&#45;glib -->
<g id="edge47" class="edge">
<title>NetworkManager&#45;wwan&#45;&gt;ModemManager&#45;glib</title>
<path fill="none" stroke="#444444" stroke-opacity="0.333333" d="M547.1318,-806.5202C540.8598,-804.7898 534.4649,-803.0255 528.109,-801.272"/>
<polygon fill="#444444" fill-opacity="0.333333" stroke="#444444" stroke-opacity="0.333333" points="528.7472,-797.8174 518.1765,-798.5318 526.8855,-804.5653 528.7472,-797.8174"/>
</g>
<!-- NetworkManager&#45;wwan&#45;&gt;NetworkManager -->
<g id="edge48" class="edge">
<title>NetworkManager&#45;wwan&#45;&gt;NetworkManager</title>
<path fill="none" stroke="#444444" stroke-opacity="0.333333" d="M725.0989,-827.9315C743.9374,-828.4957 763.3304,-829.0765 781.712,-829.627"/>
<polygon fill="#444444" fill-opacity="0.333333" stroke="#444444" stroke-opacity="0.333333" points="781.7096,-833.1284 791.8099,-829.9294 781.9192,-826.1315 781.7096,-833.1284"/>
</g>
<!-- NetworkManager&#45;team&#45;&gt;NetworkManager -->
<g id="edge49" class="edge">
<title>NetworkManager&#45;team&#45;&gt;NetworkManager</title>
<path fill="none" stroke="#444444" stroke-opacity="0.333333" d="M1027.8434,-964.7155C997.5189,-937.9641 940.6926,-887.8334 906.3979,-857.5795"/>
<polygon fill="#444444" fill-opacity="0.333333" stroke="#444444" stroke-opacity="0.333333" points="908.424,-854.6996 898.6095,-850.7088 903.7932,-859.949 908.424,-854.6996"/>
</g>
<!-- NetworkManager&#45;team&#45;&gt;jansson -->
<g id="edge50" class="edge">
<title>NetworkManager&#45;team&#45;&gt;jansson</title>
<path fill="none" stroke="#444444" stroke-opacity="0.333333" d="M998.9871,-1000.8939C994.6236,-1002.4873 990.1814,-1004.1095 985.756,-1005.7255"/>
<polygon fill="#444444" fill-opacity="0.333333" stroke="#444444" stroke-opacity="0.333333" points="984.3244,-1002.5221 976.1316,-1009.24 986.7255,-1009.0974 984.3244,-1002.5221"/>
</g>
<!-- NetworkManager&#45;team&#45;&gt;teamd -->
<g id="edge51" class="edge">
<title>NetworkManager&#45;team&#45;&gt;teamd</title>
<path fill="none" stroke="#444444" stroke-opacity="0.333333" d="M1054.1055,-1001.0943C1062.2734,-1027.2127 1077.3689,-1075.483 1086.9532,-1106.1306"/>
<polygon fill="#444444" fill-opacity="0.333333" stroke="#444444" stroke-opacity="0.333333" points="1083.649,-1107.2915 1089.9743,-1115.791 1090.33,-1105.2021 1083.649,-1107.2915"/>
</g>
<!-- teamd&#45;&gt;jansson -->
<g id="edge52" class="edge">
<title>teamd&#45;&gt;jansson</title>
<path fill="none" stroke="#444444" stroke-opacity="0.333333" d="M1067.213,-1115.915C1039.0219,-1097.9189 995.7287,-1070.2822 964.8659,-1050.5806"/>
<polygon fill="#444444" fill-opacity="0.333333" stroke="#444444" stroke-opacity="0.333333" points="966.4283,-1047.4257 956.1161,-1044.995 962.6618,-1053.3259 966.4283,-1047.4257"/>
</g>
<!-- teamd&#45;&gt;libdaemon -->
<g id="edge53" class="edge">
<title>teamd&#45;&gt;libdaemon</title>
<path fill="none" stroke="#444444" stroke-opacity="0.333333" d="M1103.4693,-1152.1663C1110.6413,-1168.8433 1121.397,-1193.854 1129.6421,-1213.0264"/>
<polygon fill="#444444" fill-opacity="0.333333" stroke="#444444" stroke-opacity="0.333333" points="1126.5266,-1214.6413 1133.6925,-1222.4451 1132.9571,-1211.8758 1126.5266,-1214.6413"/>
</g>
<!-- teamd&#45;&gt;libteam -->
<g id="edge54" class="edge">
<title>teamd&#45;&gt;libteam</title>
<path fill="none" stroke="#444444" stroke-opacity="0.333333" d="M1131.1199,-1152.1391C1155.0043,-1164.3033 1186.7127,-1180.4522 1212.3424,-1193.5053"/>
<polygon fill="#444444" fill-opacity="0.333333" stroke="#444444" stroke-opacity="0.333333" points="1210.9849,-1196.7416 1221.4842,-1198.1611 1214.1617,-1190.504 1210.9849,-1196.7416"/>
</g>
<!-- NetworkManager&#45;tui&#45;&gt;NetworkManager -->
<g id="edge55" class="edge">
<title>NetworkManager&#45;tui&#45;&gt;NetworkManager</title>
<path fill="none" stroke="#444444" stroke-opacity="0.333333" d="M850.4873,-1052.5898C855.6644,-1011.1475 868.3074,-909.9397 874.4775,-860.5478"/>
<polygon fill="#444444" fill-opacity="0.333333" stroke="#444444" stroke-opacity="0.333333" points="877.959,-860.9131 875.7256,-850.5563 871.013,-860.0453 877.959,-860.9131"/>
</g>
<!-- NetworkManager&#45;tui&#45;&gt;jansson -->
<g id="edge56" class="edge">
<title>NetworkManager&#45;tui&#45;&gt;jansson</title>
<path fill="none" stroke="#444444" stroke-opacity="0.333333" d="M881.0236,-1052.7495C882.7573,-1051.7908 884.5093,-1050.8219 886.2658,-1049.8507"/>
<polygon fill="#444444" fill-opacity="0.333333" stroke="#444444" stroke-opacity="0.333333" points="887.9644,-1052.9109 895.0219,-1045.0088 884.577,-1046.7851 887.9644,-1052.9109"/>
</g>
<!-- NetworkManager&#45;tui&#45;&gt;NetworkManager&#45;libnm -->
<g id="edge57" class="edge">
<title>NetworkManager&#45;tui&#45;&gt;NetworkManager&#45;libnm</title>
<path fill="none" stroke="#444444" stroke-opacity="0.333333" d="M841.95,-1052.7783C835.7117,-1034.6903 826.0431,-1006.6564 818.8442,-985.7833"/>
<polygon fill="#444444" fill-opacity="0.333333" stroke="#444444" stroke-opacity="0.333333" points="822.1037,-984.4991 815.5344,-976.1867 815.4862,-986.7814 822.1037,-984.4991"/>
</g>
<!-- NetworkManager&#45;tui&#45;&gt;newt -->
<g id="edge58" class="edge">
<title>NetworkManager&#45;tui&#45;&gt;newt</title>
<path fill="none" stroke="#444444" stroke-opacity="0.333333" d="M852.1212,-1089.1817C859.5675,-1123.8985 875.7994,-1199.5758 884.6464,-1240.8233"/>
<polygon fill="#444444" fill-opacity="0.333333" stroke="#444444" stroke-opacity="0.333333" points="881.2589,-1241.7189 886.7783,-1250.7625 888.1032,-1240.2508 881.2589,-1241.7189"/>
</g>
<!-- newt&#45;&gt;slang -->
<g id="edge59" class="edge">
<title>newt&#45;&gt;slang</title>
<path fill="none" stroke="#444444" stroke-opacity="0.333333" d="M903.4994,-1287.2406C917.6375,-1307.3732 940.5165,-1339.9529 956.5842,-1362.8332"/>
<polygon fill="#444444" fill-opacity="0.333333" stroke="#444444" stroke-opacity="0.333333" points="953.7651,-1364.909 962.3764,-1371.0812 959.4936,-1360.8861 953.7651,-1364.909"/>
</g>
<!-- NetworkManager&#45;wifi&#45;&gt;NetworkManager -->
<g id="edge60" class="edge">
<title>NetworkManager&#45;wifi&#45;&gt;NetworkManager</title>
<path fill="none" stroke="#444444" stroke-opacity="0.333333" d="M1102.7894,-694.0093C1056.6762,-722.4188 967.3647,-777.4419 916.2872,-808.9097"/>
<polygon fill="#444444" fill-opacity="0.333333" stroke="#444444" stroke-opacity="0.333333" points="914.1961,-806.087 907.518,-814.3122 917.8678,-812.0468 914.1961,-806.087"/>
</g>
<!-- NetworkManager&#45;wifi&#45;&gt;wpa_supplicant -->
<g id="edge61" class="edge">
<title>NetworkManager&#45;wifi&#45;&gt;wpa_supplicant</title>
<path fill="none" stroke="#444444" stroke-opacity="0.333333" d="M1137.8108,-657.5113C1142.0378,-643.6653 1147.9083,-624.436 1152.7229,-608.6651"/>
<polygon fill="#444444" fill-opacity="0.333333" stroke="#444444" stroke-opacity="0.333333" points="1156.134,-609.4784 1155.7065,-598.8922 1149.4391,-607.4345 1156.134,-609.4784"/>
</g>
<!-- psl&#45;&gt;curl&#45;minimal -->
<g id="edge62" class="edge">
<title>psl&#45;&gt;curl&#45;minimal</title>
<path fill="none" stroke="#444444" stroke-opacity="0.333333" d="M1284.8767,-893.5659C1291.011,-886.674 1298.1213,-878.6858 1304.773,-871.2128"/>
<polygon fill="#444444" fill-opacity="0.333333" stroke="#444444" stroke-opacity="0.333333" points="1307.7086,-873.1789 1311.7429,-863.3822 1302.4798,-868.5248 1307.7086,-873.1789"/>
</g>
<!-- psl&#45;&gt;libpsl -->
<g id="edge63" class="edge">
<title>psl&#45;&gt;libpsl</title>
<path fill="none" stroke="#444444" stroke-opacity="0.333333" d="M1241.5724,-904.8205C1222.1698,-899.8714 1195.4268,-893.05 1171.8616,-887.0391"/>
<polygon fill="#444444" fill-opacity="0.333333" stroke="#444444" stroke-opacity="0.333333" points="1172.5422,-883.6007 1161.9874,-884.5204 1170.8121,-890.3835 1172.5422,-883.6007"/>
</g>
<!-- realmd&#45;&gt;authconfig -->
<g id="edge65" class="edge">
<title>realmd&#45;&gt;authconfig</title>
<path fill="none" stroke="#444444" stroke-opacity="0.333333" d="M1061.1698,-350.3595C1063.9797,-323.2642 1069.3166,-271.8009 1072.6534,-239.6241"/>
<polygon fill="#444444" fill-opacity="0.333333" stroke="#444444" stroke-opacity="0.333333" points="1076.1515,-239.8221 1073.7018,-229.5144 1069.1889,-239.1 1076.1515,-239.8221"/>
</g>
<!-- realmd&#45;&gt;polkit&#45;libs -->
<g id="edge66" class="edge">
<title>realmd&#45;&gt;polkit&#45;libs</title>
<path fill="none" stroke="#444444" stroke-opacity="0.333333" d="M1053.671,-386.4759C1042.551,-422.2045 1017.7029,-502.041 1004.5004,-544.4606"/>
<polygon fill="#444444" fill-opacity="0.333333" stroke="#444444" stroke-opacity="0.333333" points="1001.1163,-543.5563 1001.4864,-554.1446 1007.8001,-545.6365 1001.1163,-543.5563"/>
</g>
<!-- xmlrpc&#45;c&#45;client&#45;&gt;libcurl&#45;minimal -->
<g id="edge67" class="edge">
<title>xmlrpc&#45;c&#45;client&#45;&gt;libcurl&#45;minimal</title>
<path fill="none" stroke="#444444" stroke-opacity="0.333333" d="M1306.2115,-736.3805C1287.731,-745.2895 1265.2853,-756.1101 1245.7406,-765.5321"/>
<polygon fill="#444444" fill-opacity="0.333333" stroke="#444444" stroke-opacity="0.333333" points="1244.1883,-762.3949 1236.7003,-769.8902 1247.2281,-768.7004 1244.1883,-762.3949"/>
</g>
<!-- xmlrpc&#45;c&#45;client&#45;&gt;xmlrpc&#45;c -->
<g id="edge68" class="edge">
<title>xmlrpc&#45;c&#45;client&#45;&gt;xmlrpc&#45;c</title>
<path fill="none" stroke="#444444" stroke-opacity="0.333333" d="M1357.6427,-700.2324C1364.3062,-691.5543 1372.4215,-680.9856 1379.7459,-671.4469"/>
<polygon fill="#444444" fill-opacity="0.333333" stroke="#444444" stroke-opacity="0.333333" points="1382.6082,-673.4661 1385.9225,-663.403 1377.0561,-669.2029 1382.6082,-673.4661"/>
</g>
<!-- authconfig -->
<g id="node1" class="node">
<title>authconfig</title>
<text text-anchor="middle" x="1075.6" y="-207.51" font-family="monospace" font-size="14.00" fill="#000000">authconfig</text>
</g>
<!-- policycoreutils -->
<g id="node2" class="node">
<title>policycoreutils</title>
<text text-anchor="middle" x="1138.9" y="-73.572" font-family="monospace" font-size="14.00" fill="#000000">policycoreutils</text>
</g>
<!-- python3&#45;sssdconfig -->
<g id="node3" class="node">
<title>python3&#45;sssdconfig</title>
<text text-anchor="middle" x="1255.6" y="-177.98" font-family="monospace" font-size="14.00" fill="#000000">python3&#45;sssdconfig</text>
</g>
<!-- libselinux&#45;utils -->
<g id="node4" class="node">
<title>libselinux&#45;utils</title>
<text text-anchor="middle" x="1090" y="-14.3" font-family="monospace" font-size="14.00" fill="#000000">libselinux&#45;utils</text>
</g>
<!-- curl&#45;minimal -->
<g id="node5" class="node">
<title>curl&#45;minimal</title>
<text text-anchor="middle" x="1327.9" y="-841.53" font-family="monospace" font-size="14.00" fill="#000000">curl&#45;minimal</text>
</g>
<!-- libcurl&#45;minimal -->
<g id="node6" class="node">
<title>libcurl&#45;minimal</title>
<text text-anchor="middle" x="1199.3" y="-784.22" font-family="monospace" font-size="14.00" fill="#000000">libcurl&#45;minimal</text>
</g>
<!-- firewalld -->
<g id="node7" class="node">
<title>firewalld</title>
<text text-anchor="middle" x="2257.8" y="-277.86" font-family="monospace" font-size="14.00" fill="#000000">firewalld</text>
</g>
<!-- firewalld&#45;filesystem -->
<g id="node8" class="node">
<title>firewalld&#45;filesystem</title>
<text text-anchor="middle" x="2448.3" y="-305.47" font-family="monospace" font-size="14.00" fill="#000000">firewalld&#45;filesystem</text>
</g>
<!-- python3&#45;firewall -->
<g id="node9" class="node">
<title>python3&#45;firewall</title>
<text text-anchor="middle" x="2011.2" y="-289.29" font-family="monospace" font-size="14.00" fill="#000000">python3&#45;firewall</text>
</g>
<!-- python3&#45;decorator -->
<g id="node10" class="node">
<title>python3&#45;decorator</title>
<text text-anchor="middle" x="1885.9" y="-409.19" font-family="monospace" font-size="14.00" fill="#000000">python3&#45;decorator</text>
</g>
<!-- python3&#45;slip&#45;dbus -->
<g id="node11" class="node">
<title>python3&#45;slip&#45;dbus</title>
<text text-anchor="middle" x="1762.8" y="-286.86" font-family="monospace" font-size="14.00" fill="#000000">python3&#45;slip&#45;dbus</text>
</g>
<!-- python3&#45;slip -->
<g id="node12" class="node">
<title>python3&#45;slip</title>
<text text-anchor="middle" x="1515.9" y="-275.3" font-family="monospace" font-size="14.00" fill="#000000">python3&#45;slip</text>
</g>
<!-- libmbim -->
<g id="node13" class="node">
<title>libmbim</title>
<text text-anchor="middle" x="87.608" y="-753.9" font-family="monospace" font-size="14.00" fill="#000000">libmbim</text>
</g>
<!-- libgudev -->
<g id="node14" class="node">
<title>libgudev</title>
<text text-anchor="middle" x="53.945" y="-621.81" font-family="monospace" font-size="14.00" fill="#000000">libgudev</text>
</g>
<!-- libmbim&#45;utils -->
<g id="node15" class="node">
<title>libmbim&#45;utils</title>
<text text-anchor="middle" x="142.5" y="-709.85" font-family="monospace" font-size="14.00" fill="#000000">libmbim&#45;utils</text>
</g>
<!-- libproxy -->
<g id="node16" class="node">
<title>libproxy</title>
<text text-anchor="middle" x="876.25" y="-449.3" font-family="monospace" font-size="14.00" fill="#000000">libproxy</text>
</g>
<!-- libmodman -->
<g id="node17" class="node">
<title>libmodman</title>
<text text-anchor="middle" x="755.14" y="-449.3" font-family="monospace" font-size="14.00" fill="#000000">libmodman</text>
</g>
<!-- libqmi -->
<g id="node18" class="node">
<title>libqmi</title>
<text text-anchor="middle" x="141.9" y="-797.91" font-family="monospace" font-size="14.00" fill="#000000">libqmi</text>
</g>
<!-- libqmi&#45;utils -->
<g id="node19" class="node">
<title>libqmi&#45;utils</title>
<text text-anchor="middle" x="188.95" y="-665.82" font-family="monospace" font-size="14.00" fill="#000000">libqmi&#45;utils</text>
</g>
<!-- mariadb&#45;common -->
<g id="node20" class="node">
<title>mariadb&#45;common</title>
<text text-anchor="middle" x="1570.4" y="-1025.1" font-family="monospace" font-size="14.00" fill="#000000">mariadb&#45;common</text>
</g>
<!-- mariadb&#45;config -->
<g id="node21" class="node">
<title>mariadb&#45;config</title>
<text text-anchor="middle" x="1390.8" y="-1025.1" font-family="monospace" font-size="14.00" fill="#000000">mariadb&#45;config</text>
</g>
<!-- mariadb&#45;libs -->
<g id="node22" class="node">
<title>mariadb&#45;libs</title>
<text text-anchor="middle" x="1791" y="-1025" font-family="monospace" font-size="14.00" fill="#000000">mariadb&#45;libs</text>
</g>
<!-- ModemManager -->
<g id="node23" class="node">
<title>ModemManager</title>
<text text-anchor="middle" x="267.37" y="-753.88" font-family="monospace" font-size="14.00" fill="#000000">ModemManager</text>
</g>
<!-- ModemManager&#45;glib -->
<g id="node24" class="node">
<title>ModemManager&#45;glib</title>
<text text-anchor="middle" x="452.89" y="-776.82" font-family="monospace" font-size="14.00" fill="#000000">ModemManager&#45;glib</text>
</g>
<!-- net&#45;snmp&#45;agent&#45;libs -->
<g id="node25" class="node">
<title>net&#45;snmp&#45;agent&#45;libs</title>
<text text-anchor="middle" x="1970.1" y="-971.3" font-family="monospace" font-size="14.00" fill="#000000">net&#45;snmp&#45;agent&#45;libs</text>
</g>
<!-- net&#45;snmp&#45;libs -->
<g id="node26" class="node">
<title>net&#45;snmp&#45;libs</title>
<text text-anchor="middle" x="2141.1" y="-1025.1" font-family="monospace" font-size="14.00" fill="#000000">net&#45;snmp&#45;libs</text>
</g>
<!-- net&#45;snmp -->
<g id="node27" class="node">
<title>net&#45;snmp</title>
<text text-anchor="middle" x="1970.2" y="-1078.8" font-family="monospace" font-size="14.00" fill="#000000">net&#45;snmp</text>
</g>
<!-- net&#45;snmp&#45;utils -->
<g id="node28" class="node">
<title>net&#45;snmp&#45;utils</title>
<text text-anchor="middle" x="2328.3" y="-1025.1" font-family="monospace" font-size="14.00" fill="#000000">net&#45;snmp&#45;utils</text>
</g>
<!-- NetworkManager&#45;adsl -->
<g id="node29" class="node">
<title>NetworkManager&#45;adsl</title>
<text text-anchor="middle" x="908.27" y="-716.21" font-family="monospace" font-size="14.00" fill="#000000">NetworkManager&#45;adsl</text>
</g>
<!-- NetworkManager -->
<g id="node30" class="node">
<title>NetworkManager</title>
<text text-anchor="middle" x="877.98" y="-828.81" font-family="monospace" font-size="14.00" fill="#000000">NetworkManager</text>
</g>
<!-- jansson -->
<g id="node31" class="node">
<title>jansson</title>
<text text-anchor="middle" x="927.77" y="-1023.2" font-family="monospace" font-size="14.00" fill="#000000">jansson</text>
</g>
<!-- libndp -->
<g id="node32" class="node">
<title>libndp</title>
<text text-anchor="middle" x="784.54" y="-784.77" font-family="monospace" font-size="14.00" fill="#000000">libndp</text>
</g>
<!-- NetworkManager&#45;libnm -->
<g id="node33" class="node">
<title>NetworkManager&#45;libnm</title>
<text text-anchor="middle" x="809.3" y="-954.41" font-family="monospace" font-size="14.00" fill="#000000">NetworkManager&#45;libnm</text>
</g>
<!-- libpsl -->
<g id="node34" class="node">
<title>libpsl</title>
<text text-anchor="middle" x="1118.9" y="-869.83" font-family="monospace" font-size="14.00" fill="#000000">libpsl</text>
</g>
<!-- polkit&#45;libs -->
<g id="node35" class="node">
<title>polkit&#45;libs</title>
<text text-anchor="middle" x="995.87" y="-568.49" font-family="monospace" font-size="14.00" fill="#000000">polkit&#45;libs</text>
</g>
<!-- NetworkManager&#45;bluetooth -->
<g id="node36" class="node">
<title>NetworkManager&#45;bluetooth</title>
<text text-anchor="middle" x="647.93" y="-732.82" font-family="monospace" font-size="14.00" fill="#000000">NetworkManager&#45;bluetooth</text>
</g>
<!-- bluez -->
<g id="node37" class="node">
<title>bluez</title>
<text text-anchor="middle" x="542.09" y="-656.42" font-family="monospace" font-size="14.00" fill="#000000">bluez</text>
</g>
<!-- bluez&#45;libs -->
<g id="node38" class="node">
<title>bluez&#45;libs</title>
<text text-anchor="middle" x="605.41" y="-596.33" font-family="monospace" font-size="14.00" fill="#000000">bluez&#45;libs</text>
</g>
<!-- NetworkManager&#45;wwan -->
<g id="node39" class="node">
<title>NetworkManager&#45;wwan</title>
<text text-anchor="middle" x="612.52" y="-820.86" font-family="monospace" font-size="14.00" fill="#000000">NetworkManager&#45;wwan</text>
</g>
<!-- NetworkManager&#45;team -->
<g id="node40" class="node">
<title>NetworkManager&#45;team</title>
<text text-anchor="middle" x="1048.4" y="-979.15" font-family="monospace" font-size="14.00" fill="#000000">NetworkManager&#45;team</text>
</g>
<!-- teamd -->
<g id="node41" class="node">
<title>teamd</title>
<text text-anchor="middle" x="1095.7" y="-1130.4" font-family="monospace" font-size="14.00" fill="#000000">teamd</text>
</g>
<!-- libdaemon -->
<g id="node42" class="node">
<title>libdaemon</title>
<text text-anchor="middle" x="1141.5" y="-1236.9" font-family="monospace" font-size="14.00" fill="#000000">libdaemon</text>
</g>
<!-- libteam -->
<g id="node43" class="node">
<title>libteam</title>
<text text-anchor="middle" x="1257.1" y="-1212.6" font-family="monospace" font-size="14.00" fill="#000000">libteam</text>
</g>
<!-- NetworkManager&#45;tui -->
<g id="node44" class="node">
<title>NetworkManager&#45;tui</title>
<text text-anchor="middle" x="848.2" y="-1067.2" font-family="monospace" font-size="14.00" fill="#000000">NetworkManager&#45;tui</text>
</g>
<!-- newt -->
<g id="node45" class="node">
<title>newt</title>
<text text-anchor="middle" x="890.69" y="-1265.3" font-family="monospace" font-size="14.00" fill="#000000">newt</text>
</g>
<!-- slang -->
<g id="node46" class="node">
<title>slang</title>
<text text-anchor="middle" x="975.03" y="-1385.4" font-family="monospace" font-size="14.00" fill="#000000">slang</text>
</g>
<!-- NetworkManager&#45;wifi -->
<g id="node47" class="node">
<title>NetworkManager&#45;wifi</title>
<text text-anchor="middle" x="1132.2" y="-672.19" font-family="monospace" font-size="14.00" fill="#000000">NetworkManager&#45;wifi</text>
</g>
<!-- wpa_supplicant -->
<g id="node48" class="node">
<title>wpa_supplicant</title>
<text text-anchor="middle" x="1161.3" y="-576.87" font-family="monospace" font-size="14.00" fill="#000000">wpa_supplicant</text>
</g>
<!-- psl -->
<g id="node49" class="node">
<title>psl</title>
<text text-anchor="middle" x="1268.7" y="-908.04" font-family="monospace" font-size="14.00" fill="#000000">psl</text>
</g>
<!-- libselinux&#45;python3 -->
<g id="node50" class="node">
<title>libselinux&#45;python3</title>
<text text-anchor="middle" x="1325.2" y="-307.5" font-family="monospace" font-size="14.00" fill="#000000">libselinux&#45;python3</text>
</g>
<!-- realmd -->
<g id="node51" class="node">
<title>realmd</title>
<text text-anchor="middle" x="1059.3" y="-364.69" font-family="monospace" font-size="14.00" fill="#000000">realmd</text>
</g>
<!-- xmlrpc&#45;c&#45;client -->
<g id="node52" class="node">
<title>xmlrpc&#45;c&#45;client</title>
<text text-anchor="middle" x="1343.8" y="-714.56" font-family="monospace" font-size="14.00" fill="#000000">xmlrpc&#45;c&#45;client</text>
</g>
<!-- xmlrpc&#45;c -->
<g id="node53" class="node">
<title>xmlrpc&#45;c</title>
<text text-anchor="middle" x="1399.8" y="-641.63" font-family="monospace" font-size="14.00" fill="#000000">xmlrpc&#45;c</text>
</g>
</g>
</svg>
