<?xml version="1.0" encoding="UTF-8" standalone="no"?>
<!DOCTYPE svg PUBLIC "-//W3C//DTD SVG 1.1//EN"
 "http://www.w3.org/Graphics/SVG/1.1/DTD/svg11.dtd">
<!-- Generated by graphviz version 2.40.1 (20161225.0304)
 -->
<!-- Title: G Pages: 1 -->
<svg width="2000pt" height="1077pt"
 viewBox="0.00 0.00 1999.62 1077.08" xmlns="http://www.w3.org/2000/svg" xmlns:xlink="http://www.w3.org/1999/xlink">
<g id="graph0" class="graph" transform="scale(1 1) rotate(0) translate(54.1375 969.4324)">
<title>G</title>
<polygon fill="#dae2ff" stroke="transparent" points="-54.1375,107.6476 -54.1375,-969.4324 1945.4805,-969.4324 1945.4805,107.6476 -54.1375,107.6476"/>
<polygon fill="#decbe4" stroke="#decbe4" points="61.5003,-400.4198 48.8605,-400.9406 25.7472,-401.1879 -28.0429,-416.9707 -48.1373,-510.8449 -50.1375,-518.4415 -49.5743,-520.9835 52.0362,-520.3887 57.099,-516.9282 57.7732,-515.926 64.4321,-515.926 65.1786,-515.6477 70.182,-515.6477 70.8794,-515.9103 77.5506,-515.9103 77.7073,-515.8511 83.9928,-515.8511 83.604,-568.672 91.4684,-566.3486 95.1552,-565.5614 104.4033,-564.3345 110.3069,-564.0334 114.0234,-564.1462 116.6829,-515.9578 122.9269,-515.9578 121.5035,-564.1147 126.844,-564.3069 129.63,-516.337 129.63,-516.337 126.844,-564.3069 121.5035,-564.1147 122.9269,-515.9578 116.6829,-515.9578 114.0234,-564.1462 110.3069,-564.0334 104.4033,-564.3345 95.1552,-565.5614 91.4684,-566.3486 83.604,-568.672 83.9928,-515.8511 77.7073,-515.8511 77.5506,-515.9103 70.8794,-515.9103 70.182,-515.6477 65.1786,-515.6477 64.4321,-515.926 57.7732,-515.926 57.099,-516.9282 52.0362,-520.3887 -49.5743,-520.9835 -38.4632,-584.8906 3.6584,-621.0488 7.0465,-630.848 7.5036,-632.3843 51.5244,-703.0746 99.3745,-721.0588 109.8124,-719.8972 124.5809,-718.7284 125.5414,-718.6835 144.9382,-719.0283 147.05,-719.1339 153.0488,-719.6271 153.7764,-662.5725 158.1367,-613.5029 163.7601,-617.3821 169.5169,-617.3821 173.366,-659.1786 176.7958,-613.0851 183.1072,-613.0851 183.3504,-613.0009 187.9331,-613.0009 188.093,-613.0558 194.4994,-613.0558 195.7357,-612.6153 200.4985,-612.6153 203.6014,-570.2976 191.4091,-558.4207 188.6315,-554.85 197.6189,-554.85 240.1373,-559.6829 245.5706,-556.6209 246.9669,-554.7935 252.5522,-554.7935 253.4443,-555.1084 249.5115,-592.5258 260.3263,-601.4901 258.4562,-555.1084 259.0101,-554.9172 262.2446,-554.9172 264.7572,-552.3145 271.6905,-549.8156 269.6299,-513.2393 273.836,-513.0063 274.2368,-471.8332 274.5634,-471.8332 280.6666,-467.3822 321.8224,-467.2108 321.6306,-452.85 315.8027,-429.4528 343.5055,-419.2641 343.5055,-419.2641 315.8027,-429.4528 321.6306,-452.85 321.8224,-467.2108 280.6666,-467.3822 274.5634,-471.8332 274.2368,-471.8332 273.836,-513.0063 269.6299,-513.2393 271.6905,-549.8156 264.7572,-552.3145 262.2446,-554.9172 265.2643,-558 271.0005,-559.9274 271.0005,-559.9274 265.2643,-558 262.2446,-554.9172 259.0101,-554.9172 258.4562,-555.1084 260.3263,-601.4901 249.5115,-592.5258 253.4443,-555.1084 252.5522,-554.7935 246.9669,-554.7935 245.5706,-556.6209 240.1373,-559.6829 197.6189,-554.85 188.6315,-554.85 191.4091,-558.4207 203.6014,-570.2976 200.4985,-612.6153 200.7728,-612.7123 200.7728,-612.7123 200.4985,-612.6153 195.7357,-612.6153 194.4994,-613.0558 188.093,-613.0558 187.9331,-613.0009 183.3504,-613.0009 183.1072,-613.0851 176.7958,-613.0851 173.366,-659.1786 169.5169,-617.3821 163.7601,-617.3821 158.1367,-613.5029 153.7764,-662.5725 153.0488,-719.6271 161.6245,-720.886 170.7621,-722.5235 215.2739,-758.7775 261.8782,-769.8906 261.0016,-717.5988 261.0016,-717.5988 261.8782,-769.8906 268.422,-771.8688 268.8923,-759.7445 268.8923,-759.7445 268.422,-771.8688 283.2216,-777.3047 284.2035,-713.5078 288.5027,-660.2437 294.0992,-662.0767 299.799,-660.1707 303.1724,-656.5126 301.0047,-654.3474 296.7415,-606.1459 305.9823,-605.7454 310.1424,-605.8802 313.7228,-605.4666 326.8346,-587.0284 360.6603,-595.3718 364.1436,-598.8447 360.6203,-602.378 362.6389,-637.4475 364.644,-638.9182 373.1125,-646.5851 377.1476,-650.9027 383.9625,-656.8035 383.7656,-638.2487 387.0691,-603.4542 380.5401,-598.5451 386.7679,-594.1929 385.8633,-554.5606 388.4889,-554.4616 390.6962,-515.2622 384.5118,-510.6578 390.6722,-506.1772 389.4659,-481.8508 390.1493,-481.7225 389.3853,-457.9379 396.4636,-455.3144 398.4949,-453.1489 401.9043,-453.1489 404.3906,-481.9118 407.5808,-481.8648 409.9465,-452.9881 411.8223,-452.9881 415.8447,-449.202 444.6314,-443.3052 448.4843,-446.1496 460.6383,-457.646 460.6148,-450.2201 464.567,-411.8676 470.4521,-414.0234 470.4521,-414.0234 464.567,-411.8676 460.6148,-450.2201 460.6383,-457.646 448.4843,-446.1496 444.6314,-443.3052 415.8447,-449.202 411.8223,-452.9881 409.9465,-452.9881 407.5808,-481.8648 404.3906,-481.9118 401.9043,-453.1489 398.4949,-453.1489 396.4636,-455.3144 389.3853,-457.9379 390.1493,-481.7225 389.4659,-481.8508 390.6722,-506.1772 384.5118,-510.6578 390.6962,-515.2622 388.4889,-554.4616 385.8633,-554.5606 386.7679,-594.1929 380.5401,-598.5451 387.0691,-603.4542 383.7656,-638.2487 383.9625,-656.8035 377.1476,-650.9027 373.1125,-646.5851 364.644,-638.9182 362.6389,-637.4475 360.6203,-602.378 364.1436,-598.8447 360.6603,-595.3718 326.8346,-587.0284 313.7228,-605.4666 310.1424,-605.8802 305.9823,-605.7454 296.7415,-606.1459 301.0047,-654.3474 303.1724,-656.5126 299.799,-660.1707 294.0992,-662.0767 288.5027,-660.2437 284.2035,-713.5078 283.2216,-777.3047 290.5381,-780.4653 297.759,-778.7529 305.5103,-777.1387 319.3751,-775.4438 330.1452,-774.4366 334.1448,-774.1779 401.8969,-771.7388 392.3991,-665.856 396.2265,-661.0681 399.1707,-657.8095 401.7427,-654.3853 403.0519,-652.8706 412.8242,-643.0637 417.9825,-638.7508 419.0282,-638.0463 451.0122,-608.6561 459.399,-598.87 461.6306,-597.2573 463.6887,-595.4836 464.7979,-594.3566 453.0706,-564.4957 448.6344,-556.1496 455.8202,-541.9565 467.0597,-510.76 481.1941,-488.2543 476.467,-475.2671 488.2645,-461.7674 489.46,-460.0768 489.0881,-449.3991 489.0881,-449.3991 489.46,-460.0768 488.2645,-461.7674 476.467,-475.2671 481.1941,-488.2543 498.6115,-496.69 501.1974,-497.7231 511.723,-501.0666 528.955,-503.6868 530.3499,-503.7809 531.7931,-503.7588 537.9119,-503.152 539.0639,-503.1318 545.8549,-503.5665 551.4044,-503.4572 555.3861,-503.7012 560.0432,-504.3629 562.6103,-501.8506 563.7861,-500.8781 569.2548,-497.0995 575.6526,-491.2618 583.2578,-485.8009 587.1771,-483.7611 608.2075,-476.7016 611.6262,-474.9187 621.3133,-467.9243 622.7296,-466.6388 633.9258,-454.02 636.4649,-452.1437 641.6158,-446.9987 642.344,-446.9825 649.8014,-447.2948 652.3112,-447.2311 654.8157,-447.3277 656.1834,-447.2889 659.5026,-447.4068 673.8359,-448.8392 677.2546,-449.3979 709.7099,-456.7731 739.0234,-416.778 731.1556,-388.06 728.6913,-361.8042 728.2851,-359.5825 718.7988,-324.9571 722.2097,-311.16 674.8802,-311.16 649.4839,-306.2777 649.4839,-306.2777 674.8802,-311.16 722.2097,-311.16 754.0729,-229.1195 731.3389,-216.2876 643.8398,-206.9373 634.286,-204.9489 614.1827,-200.0801 612.5374,-199.6276 611.985,-199.4574 596.9236,-193.7901 595.9536,-194.0074 583.4072,-195.6893 516.075,-179.5537 496.79,-174.2468 489.2872,-171.9252 488.0145,-171.444 483.457,-282.8009 484.1329,-283.0498 485.079,-284.4584 489.3941,-287.3116 489.3941,-287.3116 485.079,-284.4584 484.1329,-283.0498 483.457,-282.8009 488.0145,-171.444 479.5817,-167.9577 459.1052,-158.774 412.2361,-170.3334 380.3521,-206.4324 377.5414,-212.3091 300.9019,-275.046 340.3861,-319.914 395.0012,-331.5812 397.0544,-291.0165 403.0186,-334.8026 407.1581,-334.8026 409.3947,-335.6512 412.4886,-335.6512 414.865,-332.9321 414.865,-332.9321 412.4886,-335.6512 409.3947,-335.6512 407.1581,-334.8026 403.0186,-334.8026 397.0544,-291.0165 395.0012,-331.5812 340.3861,-319.914 300.9019,-275.046 284.1169,-281.151 268.7256,-281.393 253.8442,-280.72 251.3146,-280.5286 241.7552,-283.5132 241.6674,-283.5348 223.853,-287.324 221.2217,-287.7091 213.3205,-288.606 177.1425,-291.521 138.5627,-320.6264 96.1916,-394.966 90.0376,-396.5334 82.0785,-398.0721 78.0334,-398.7307 61.5003,-400.4198 61.5003,-400.4198"/>
<polygon fill="#fbb4ae" stroke="#fbb4ae" points="876.9752,-407.32 908.1661,-367.1937 917.7631,-357.9478 921.924,-353.2782 873.7572,-356.3874 868.3448,-360.8363 866.3497,-360.8363 866.115,-360.7516 860.5771,-360.7516 860.3664,-360.6782 854.2247,-360.6782 854.1854,-360.6645 848.45,-360.6645 848.4362,-360.6595 848.4362,-360.6595 848.45,-360.6645 854.1854,-360.6645 854.2247,-360.6782 860.3664,-360.6782 860.5771,-360.7516 866.115,-360.7516 866.3497,-360.8363 868.3448,-360.8363 873.7572,-356.3874 921.924,-353.2782 925.6785,-349.8282 926.9149,-348.539 931.2367,-343.4401 925.9693,-319.25 897.1129,-244.3055 871.8737,-243.1394 862.5898,-242.155 852.874,-240.8337 841.2747,-238.9099 833.0051,-237.047 830.6395,-236.4437 818.076,-232.8628 811.9926,-230.7662 799.4547,-226.0673 798.4263,-225.6204 785.6948,-227.0988 754.0729,-229.1195 722.2097,-311.16 718.7988,-324.9571 728.2851,-359.5825 728.6913,-361.8042 731.1556,-388.06 739.0234,-416.778 709.7099,-456.7731 677.2546,-449.3979 673.8359,-448.8392 659.5026,-447.4068 656.1834,-447.2889 654.8157,-447.3277 652.3112,-447.2311 649.8014,-447.2948 642.344,-446.9825 641.6158,-446.9987 636.4649,-452.1437 633.9258,-454.02 622.7296,-466.6388 621.3133,-467.9243 611.6262,-474.9187 608.2075,-476.7016 587.1771,-483.7611 583.2578,-485.8009 575.6526,-491.2618 569.2548,-497.0995 563.7861,-500.8781 562.6103,-501.8506 560.0432,-504.3629 555.3861,-503.7012 551.4044,-503.4572 545.8549,-503.5665 539.0639,-503.1318 537.9119,-503.152 531.7931,-503.7588 530.3499,-503.7809 528.955,-503.6868 511.723,-501.0666 501.1974,-497.7231 498.6115,-496.69 481.1941,-488.2543 467.0597,-510.76 455.8202,-541.9565 448.6344,-556.1496 453.0706,-564.4957 464.7979,-594.3566 463.6887,-595.4836 461.6306,-597.2573 459.399,-598.87 451.0122,-608.6561 419.0282,-638.0463 417.9825,-638.7508 412.8242,-643.0637 403.0519,-652.8706 401.7427,-654.3853 399.1707,-657.8095 396.2265,-661.0681 392.3991,-665.856 401.8969,-771.7388 449.5896,-794.2686 461.7152,-800.3687 463.3447,-808.8816 469.9224,-850.5191 487.948,-868.7455 533.6448,-918.7501 569.1139,-940.9808 602.9906,-943.6307 617.0966,-945.2091 625.3823,-946.6911 637.2348,-949.6113 640.0549,-950.4008 657.9893,-956.0309 659.8504,-956.6761 666.6684,-959.4954 668.0832,-960.1281 680.1777,-958.6808 682.9913,-958.4257 683.0891,-945.627 683.0891,-945.627 682.9913,-958.4257 685.4861,-958.3431 699.2582,-958.2838 699.5818,-958.1771 711.4583,-955.0065 726.739,-951.4124 769.966,-942.6428 789.0298,-949.4119 832.3825,-955.4848 844.8693,-958.0376 854.9971,-960.4323 855.3887,-934.2786 855.2764,-929.763 855.2764,-929.763 855.3887,-934.2786 863.3004,-850.6803 868.2913,-852.3013 875.8415,-849.5526 878.1505,-847.2115 875.5796,-844.6209 869.0321,-842.3177 869.0321,-842.3177 875.5796,-844.6209 878.1505,-847.2115 875.8415,-849.5526 868.2913,-852.3013 863.3004,-850.6803 855.3887,-934.2786 854.9971,-960.4323 855.9545,-960.7512 875.2076,-961.777 878.6292,-962.1622 889.0108,-963.6404 892.5555,-964.1143 898.0955,-965.1821 899.2205,-965.4324 909.7963,-960.64 966.7595,-936.8409 953.5352,-849.2816 953.3336,-845.1873 953.4114,-843.6902 952.4187,-823.8892 947.5167,-791.432 946.603,-791.0238 944.5917,-790.3618 935.1481,-787.7851 907.9819,-781.9289 899.5787,-779.6266 891.5052,-776.9474 885.9429,-774.7838 881.7612,-772.6675 879.4252,-727.59 879.6885,-725.3833 879.9072,-718.8915 877.8239,-678.6885 932.9232,-642.983 943.084,-635.7491 943.934,-611.02 943.4927,-605.86 945.4913,-547.7073 916.8004,-517.3485 867.3801,-534.6455 867.3801,-534.6455 916.8004,-517.3485 915.9565,-504.8788 892.4359,-476.22 860.4525,-423.4684 860.326,-423.4239 853.3023,-421.42 843.0665,-419.1816 842.9938,-419.1706 833.4183,-418.35 832.6774,-418.3355 827.8852,-418.5592 826.0506,-471.4502 820.1228,-475.2817 819.5951,-476.0551 826.5258,-480.9489 822.9962,-524.4397 823.0652,-540.7083 832.577,-540.9981 828.8625,-602.5332 832.066,-605.7706 828.7953,-609.1429 823.1834,-610.9795 816.7287,-608.8559 819.936,-666.5944 814.4819,-666.9617 814.6052,-689.0363 810.7852,-727.3263 805.934,-727.3263 805.827,-727.3632 799.2456,-727.3632 799.1906,-727.3439 795.7839,-727.3439 793.2235,-730.0925 786.6028,-732.5051 780.6058,-730.426 777.7015,-727.4272 775.3275,-727.4272 775.1777,-727.4796 775.1777,-727.4796 775.3275,-727.4272 777.7015,-727.4272 780.6058,-730.426 786.6028,-732.5051 793.2235,-730.0925 795.7839,-727.3439 799.1906,-727.3439 799.2456,-727.3632 805.827,-727.3632 805.934,-727.3263 810.7852,-727.3263 814.6052,-689.0363 814.4819,-666.9617 819.936,-666.5944 816.7287,-608.8559 823.1834,-610.9795 828.7953,-609.1429 832.066,-605.7706 828.8625,-602.5332 832.577,-540.9981 823.0652,-540.7083 822.9962,-524.4397 826.5258,-480.9489 819.5951,-476.0551 818.6904,-476.4113 812.3193,-476.4113 812.2349,-476.4428 812.1216,-476.6115 806.5045,-480.5957 799.3319,-480.5957 798.1331,-530.3171 791.4117,-476.662 786.0826,-476.662 786.0043,-476.7659 779.1462,-481.0491 777.1367,-539.4281 775.286,-537.9738 719.4301,-546.9136 715.2645,-550.5942 713.2892,-548.4512 705.9279,-545.6742 705.9279,-545.6742 713.2892,-548.4512 715.2645,-550.5942 719.4301,-546.9136 775.286,-537.9738 777.1367,-539.4281 779.1462,-481.0491 786.0043,-476.7659 786.0826,-476.662 791.4117,-476.662 798.1331,-530.3171 799.3319,-480.5957 806.5045,-480.5957 812.1216,-476.6115 812.2349,-476.4428 812.3193,-476.4113 818.6904,-476.4113 819.5951,-476.0551 820.1228,-475.2817 826.0506,-471.4502 827.8852,-418.5592 832.6774,-418.3355 833.4183,-418.35 842.9938,-419.1706 843.0665,-419.1816 853.3023,-421.42 860.326,-423.4239 860.4525,-423.4684 870.1223,-413.0768 872.6462,-410.7398 876.9752,-407.32 876.9752,-407.32"/>
<polygon fill="#fed9a6" stroke="#fed9a6" points="1395.8232,-666.0734 1391.1765,-662.8829 1383.4752,-655.589 1378.4714,-652.0203 1374.9351,-650.2769 1366.6609,-647.9088 1358.1879,-647.3308 1353.3242,-645.9077 1347.1521,-642.6722 1339.2957,-636.6782 1337.8903,-635.2841 1329.6527,-629.6059 1327.692,-627.9428 1322.3622,-622.4791 1319.7733,-619.3487 1324.1622,-615.3467 1329.1454,-611.4735 1369.901,-570.0795 1371.0128,-569.1532 1372.1007,-568.1187 1374.6219,-565.3932 1374.6565,-565.362 1385.9213,-553.8577 1389.7257,-549.5641 1400.16,-536.6189 1420.1577,-507.4179 1425.3788,-498.2038 1428.1752,-492.6061 1379.1458,-434.0137 1371.0475,-439.0768 1323.0026,-471.5163 1314.7396,-476.6859 1304.1525,-482.2641 1294.1318,-487.0426 1279.5917,-492.5133 1285.713,-564.8716 1279.2534,-562.6862 1272.6504,-564.9813 1269.9374,-567.6947 1267.7184,-567.6947 1267.6583,-567.6743 1267.6583,-567.6743 1267.7184,-567.6947 1269.9374,-567.6947 1272.6504,-564.9813 1279.2534,-562.6862 1285.713,-564.8716 1279.5917,-492.5133 1276.7798,-493.426 1263.9204,-496.3158 1253.6107,-497.5993 1252.5928,-497.675 1243.9391,-497.8855 1239.0239,-497.7581 1231.8898,-498.3185 1227.6992,-498.4356 1223.3595,-494.9856 1211.0598,-487.2406 1207.3247,-485.2064 1202.356,-482.9088 1195.5597,-480.3174 1190.8733,-478.9124 1181.3331,-476.8228 1175.3766,-476.0075 1173.123,-475.8828 1165.2928,-476.0854 1164.5548,-476.0452 1149.0635,-473.9379 1138.9447,-470.9421 1129.4292,-466.5843 1127.5587,-465.5763 1127.2218,-464.76 1123.2678,-464.76 1123.2678,-464.76 1127.2218,-464.76 1119.6774,-428.48 1117.1763,-422.4199 1118.6587,-420.7062 1120.7079,-418.6185 1129.5338,-410.736 1141.2023,-403.2486 1140.2749,-366.5238 1143.4873,-363.3256 1140.9557,-360.78 1140.9557,-360.78 1143.4873,-363.3256 1140.2749,-366.5238 1141.2023,-403.2486 1149.4623,-399.0435 1150.1595,-398.7831 1161.1554,-396.0594 1164.2776,-395.6973 1169.8899,-395.7684 1170.7465,-395.8906 1176.0466,-395.9408 1176.3219,-395.9066 1184.1749,-395.9556 1186.0691,-395.7145 1187.5885,-395.9175 1197.2045,-395.9138 1198.8878,-396.1334 1200.007,-396.1294 1208.3315,-394.9905 1216.3392,-392.83 1218.8011,-391.8469 1225.3309,-388.345 1235.5013,-381.4844 1239.7906,-378.0415 1240.5001,-377.3778 1272.4246,-353.4995 1262.5874,-343.9859 1209.9064,-285.1989 1200.8032,-276.2771 1185.2587,-259.7935 1184.9827,-259.4811 1182.6844,-256.7033 1180.943,-254.7876 1169.8657,-241.8177 1159.3407,-197.0392 1157.1843,-194.4561 1107.4642,-189.5318 1072.675,-202.4803 1072.0309,-202.6984 1071.392,-220.6879 1071.392,-220.6879 1072.0309,-202.6984 1063.8909,-204.9206 1048.7913,-208.5482 1040.8213,-210.1964 1039.2932,-210.4613 1027.9894,-211.6746 1019.7243,-212.2876 1012.4882,-212.5839 1004.6383,-212.6445 995.2324,-212.405 986.8768,-211.6386 961.3076,-208.4466 897.1129,-244.3055 925.9693,-319.25 955.7258,-319.25 987.6942,-324.1688 985.9668,-363.3553 983.416,-363.4766 981.2126,-363.3879 981.2126,-363.3879 983.416,-363.4766 985.9668,-363.3553 987.6942,-324.1688 955.7258,-319.25 925.9693,-319.25 931.2367,-343.4401 926.9149,-348.539 925.6785,-349.8282 921.924,-353.2782 917.7631,-357.9478 908.1661,-367.1937 876.9752,-407.32 872.6462,-410.7398 870.1223,-413.0768 860.4525,-423.4684 892.4359,-476.22 915.9565,-504.8788 916.8004,-517.3485 945.4913,-547.7073 999.6924,-539.3079 1011.0409,-538.0956 1021.3892,-537.9923 1024.84,-537.7877 1029.6847,-542.2332 1042.5895,-551.7798 1045.0148,-553.3475 1057.683,-560.4116 1068.4237,-564.4186 1081.8527,-566.9951 1091.238,-567.0811 1092.502,-567.2064 1098.7485,-567.2537 1101.7616,-567.5462 1103.9242,-567.3631 1108.0975,-567.3815 1109.6019,-567.251 1116.3938,-567.2704 1119.9001,-567.5958 1120.9287,-567.597 1127.006,-567.0509 1132.921,-567.5763 1140.481,-568.9298 1150.4944,-571.6273 1156.7736,-573.8687 1159.626,-575.1339 1164.2189,-577.581 1179.2551,-586.9668 1184.9318,-611.02 1196.2251,-639.0209 1186.6644,-670.85 1158.86,-735.5674 1200.6583,-789.4104 1237.2809,-784.993 1264.0631,-779.4504 1271.2269,-778.2086 1283.3232,-776.5203 1291.7205,-775.6342 1303.6554,-775.1854 1308.3552,-775.1683 1318.2179,-775.802 1328.8285,-776.8448 1329.6665,-776.9556 1339.5244,-776.1255 1345.8658,-776.0183 1347.8029,-776.0505 1363.1611,-776.8224 1444.1373,-783.6031 1447.5718,-781.5937 1450.1008,-740.3059 1447.089,-734.5983 1430.1011,-706.6559 1420.9186,-694.068 1416.4205,-688.5159 1409.7368,-681.1468 1409.6512,-681.064 1401.4379,-671.4218 1397.4073,-667.3958 1395.8232,-666.0734 1395.8232,-666.0734"/>
<polygon fill="#ccebc5" stroke="#ccebc5" points="1557.1165,-135.5793 1560.2531,-79.5797 1559.1418,-8.6593 1573.96,-11.9755 1583.808,-13.8766 1679.2844,-58.4654 1690.0468,-73.4841 1677.0137,-135.45 1673.8362,-161.8559 1663.7568,-186.9586 1595.3027,-268.463 1591.4464,-285.1042 1570.6954,-296.2133 1486.0543,-308.9824 1469.7076,-312.0091 1461.5735,-314.0672 1377.421,-415.7064 1377.5405,-417.574 1379.1458,-434.0137 1371.0475,-439.0768 1323.0026,-471.5163 1314.7396,-476.6859 1304.1525,-482.2641 1294.1318,-487.0426 1279.5917,-492.5133 1276.7798,-493.426 1263.9204,-496.3158 1253.6107,-497.5993 1252.5928,-497.675 1243.9391,-497.8855 1239.0239,-497.7581 1231.8898,-498.3185 1227.6992,-498.4356 1223.3595,-494.9856 1211.0598,-487.2406 1207.3247,-485.2064 1202.356,-482.9088 1195.5597,-480.3174 1190.8733,-478.9124 1181.3331,-476.8228 1175.3766,-476.0075 1173.123,-475.8828 1165.2928,-476.0854 1164.5548,-476.0452 1149.0635,-473.9379 1138.9447,-470.9421 1129.4292,-466.5843 1127.5587,-465.5763 1127.2218,-464.76 1119.6774,-428.48 1117.1763,-422.4199 1118.6587,-420.7062 1120.7079,-418.6185 1129.5338,-410.736 1141.2023,-403.2486 1149.4623,-399.0435 1150.1595,-398.7831 1161.1554,-396.0594 1164.2776,-395.6973 1169.8899,-395.7684 1170.7465,-395.8906 1176.0466,-395.9408 1176.3219,-395.9066 1184.1749,-395.9556 1186.0691,-395.7145 1187.5885,-395.9175 1197.2045,-395.9138 1198.8878,-396.1334 1200.007,-396.1294 1208.3315,-394.9905 1216.3392,-392.83 1218.8011,-391.8469 1225.3309,-388.345 1235.5013,-381.4844 1239.7906,-378.0415 1240.5001,-377.3778 1272.4246,-353.4995 1262.5874,-343.9859 1209.9064,-285.1989 1200.8032,-276.2771 1185.2587,-259.7935 1184.9827,-259.4811 1182.6844,-256.7033 1180.943,-254.7876 1169.8657,-241.8177 1159.3407,-197.0392 1157.1843,-194.4561 1177.666,-145.0103 1187.3851,-118.4291 1202.6345,-69.8469 1194.2722,-30.2153 1188.9182,-9.6807 1190.79,-5.5033 1219.1252,66.3096 1285.6877,102.5007 1290.5051,103.6476 1295.6469,102.5423 1297.8756,102.1262 1306.9641,100.6845 1313.9073,99.779 1336.3008,98.7451 1347.9459,99.1925 1347.7148,-17.6356 1344.5383,-17.6356 1342.251,-15.3996 1335.7457,-13.1466 1328.5376,-15.7115 1326.2683,-17.9018 1324.639,-17.9018 1323.215,-18.3854 1324.804,-74.5764 1330.5709,-74.8567 1329.8914,-87.8724 1331.4314,-128.7903 1333.85,-131.3491 1331.3741,-133.9396 1331.3741,-133.9396 1333.85,-131.3491 1331.4314,-128.7903 1329.8914,-87.8724 1330.5709,-74.8567 1324.804,-74.5764 1323.215,-18.3854 1324.639,-17.9018 1326.2683,-17.9018 1328.5376,-15.7115 1335.7457,-13.1466 1342.251,-15.3996 1344.5383,-17.6356 1347.7148,-17.6356 1347.9459,99.1925 1356.7418,99.7784 1360.4143,100.1263 1367.1031,100.9482 1373.7269,102.1362 1383.3921,96.2828 1465.5551,49.7079 1509.7144,18.1798 1511.2135,14.7483 1514.6893,7.4925 1519.8445,5.2362 1528.4812,1.717 1537.5031,-1.6848 1550.6879,-6.2523 1559.1418,-8.6593 1560.2531,-79.5797 1557.1165,-135.5793 1556.9923,-135.5793 1551.1539,-131.1839 1543.5875,-131.1839 1537.8751,-135.319 1537.3765,-135.319 1537.0156,-135.4514 1530.9305,-135.4514 1529.189,-191.0572 1523.2064,-185.709 1482.181,-154.6619 1479.2424,-198.8114 1473.5664,-202.6406 1470.5774,-145.3193 1463.8771,-139.7808 1452.1913,-127.5437 1446.8009,-121.3247 1442.9999,-116.0668 1432.458,-126.7403 1427.5018,-131.3 1423.5034,-136.2108 1360.6838,-197.9749 1357.5142,-201.8431 1350.3749,-201.8689 1346.4702,-202.0808 1343.6533,-201.9517 1333.3372,-202.001 1332.257,-201.9523 1331.9791,-201.9538 1331.8798,-272.343 1325.9955,-268.2764 1325.9955,-268.2764 1331.8798,-272.343 1331.9791,-201.9538 1332.257,-201.9523 1333.3372,-202.001 1343.6533,-201.9517 1346.4702,-202.0808 1350.3749,-201.8689 1357.5142,-201.8431 1360.6838,-197.9749 1423.5034,-136.2108 1427.5018,-131.3 1432.458,-126.7403 1442.9999,-116.0668 1446.8009,-121.3247 1452.1913,-127.5437 1453.9292,-198.8237 1447.5492,-198.8237 1445.7322,-150.8299 1439.9738,-203.0342 1434.7926,-203.0342 1434.0746,-203.2881 1430.0399,-203.2881 1428.9427,-202.0388 1428.9427,-202.0388 1430.0399,-203.2881 1434.0746,-203.2881 1434.7926,-203.0342 1439.9738,-203.0342 1445.7322,-150.8299 1447.5492,-198.8237 1453.9292,-198.8237 1452.1913,-127.5437 1463.8771,-139.7808 1470.5774,-145.3193 1473.5664,-202.6406 1479.2424,-198.8114 1482.181,-154.6619 1523.2064,-185.709 1529.189,-191.0572 1530.9305,-135.4514 1537.0156,-135.4514 1537.3765,-135.319 1537.8751,-135.319 1543.5875,-131.1839 1551.1539,-131.1839 1556.9923,-135.5793 1557.1165,-135.5793 1557.1165,-135.5793"/>
<polygon fill="#ccebc5" stroke="#ccebc5" points="1127.006,-567.0509 1120.9287,-567.597 1119.9001,-567.5958 1116.3938,-567.2704 1109.6019,-567.251 1108.0975,-567.3815 1103.9242,-567.3631 1101.7616,-567.5462 1098.7485,-567.2537 1092.502,-567.2064 1091.238,-567.0811 1081.8527,-566.9951 1081.8568,-581.8923 1077.8473,-607.5966 1072.901,-605.9429 1072.901,-605.9429 1077.8473,-607.5966 1081.8568,-581.8923 1081.8527,-566.9951 1068.4237,-564.4186 1057.683,-560.4116 1045.0148,-553.3475 1042.5895,-551.7798 1029.6847,-542.2332 1024.84,-537.7877 1021.3892,-537.9923 1011.0409,-538.0956 999.6924,-539.3079 945.4913,-547.7073 943.4927,-605.86 943.934,-611.02 943.084,-635.7491 932.9232,-642.983 877.8239,-678.6885 879.9072,-718.8915 879.6885,-725.3833 879.4252,-727.59 881.7612,-772.6675 885.9429,-774.7838 891.5052,-776.9474 899.5787,-779.6266 907.9819,-781.9289 935.1481,-787.7851 944.5917,-790.3618 946.603,-791.0238 947.5167,-791.432 952.4187,-823.8892 953.4114,-843.6902 953.3336,-845.1873 953.5352,-849.2816 966.7595,-936.8409 993.5555,-938.8304 1013.8895,-941.0037 1017.9766,-941.704 1025.3232,-943.2016 1036.6157,-945.8696 1037.4049,-894.6975 1031.3231,-836.1685 1038.2094,-838.6752 1038.2094,-838.6752 1031.3231,-836.1685 1037.4049,-894.6975 1036.6157,-945.8696 1047.2618,-949.4248 1057.3491,-946.0868 1075.0637,-941.9504 1131.8412,-932.3907 1181.7285,-874.3267 1186.5697,-847.1707 1192.5856,-820.0366 1200.6583,-789.4104 1158.86,-735.5674 1126.8909,-728.1501 1126.254,-728.0218 1113.6281,-715.473 1112.2385,-714.2636 1015.2753,-717.7482 1008.9795,-722.4133 1008.6448,-722.4133 1007.9832,-722.1899 1004.19,-722.1899 997.6568,-764.3069 996.4269,-722.1166 996.4269,-722.1166 997.6568,-764.3069 1004.19,-722.1899 1007.9832,-722.1899 1008.6448,-722.4133 1008.9795,-722.4133 1015.2753,-717.7482 1112.2385,-714.2636 1113.6281,-715.473 1126.254,-728.0218 1126.8909,-728.1501 1158.86,-735.5674 1186.6644,-670.85 1196.2251,-639.0209 1184.9318,-611.02 1179.2551,-586.9668 1164.2189,-577.581 1159.626,-575.1339 1156.7736,-573.8687 1150.4944,-571.6273 1140.481,-568.9298 1132.921,-567.5763 1127.006,-567.0509 1127.006,-567.0509"/>
<polygon fill="#b3cde3" stroke="#b3cde3" points="1795.5022,-946.8524 1802.7545,-947.4442 1803.4133,-947.5176 1812.4063,-943.7529 1814.5132,-943.0184 1829.7748,-938.219 1893.3918,-922.6429 1916.9155,-895.7292 1939.6287,-855.4676 1939.9327,-854.9791 1941.4805,-836.5293 1937.3674,-810.6263 1932.2266,-765.4352 1848.0033,-693.3929 1845.7391,-692.2437 1837.0708,-680.2709 1833.8489,-639.6373 1823.9673,-614.78 1799.8615,-535.012 1789.3337,-525.0174 1722.0812,-505.5343 1700.9353,-498.6708 1704.2422,-576.7217 1709.7303,-612.9074 1708.2679,-614.9598 1707.3853,-615.2903 1702.2252,-615.2903 1702.6676,-692.3157 1702.1338,-692.3452 1699.0325,-692.3691 1696.637,-769.1211 1692.9432,-769.1211 1690.2795,-771.9923 1683.908,-774.2354 1677.9929,-772.1857 1674.962,-768.8609 1670.9249,-768.8609 1670.429,-769.0373 1665.265,-769.0373 1664.9608,-769.1454 1658.5594,-769.1454 1658.5543,-769.1436 1658.5543,-769.1436 1658.5594,-769.1454 1664.9608,-769.1454 1665.265,-769.0373 1670.429,-769.0373 1670.9249,-768.8609 1674.962,-768.8609 1677.9929,-772.1857 1683.908,-774.2354 1690.2795,-771.9923 1692.9432,-769.1211 1696.637,-769.1211 1699.0325,-692.3691 1702.1338,-692.3452 1702.6676,-692.3157 1702.2252,-615.2903 1707.3853,-615.2903 1708.2679,-614.9598 1709.7303,-612.9074 1704.2422,-576.7217 1700.9353,-498.6708 1700.7157,-498.5848 1691.7628,-499.5742 1673.8674,-499.9346 1665.6937,-499.8524 1658.0209,-499.3129 1656.6514,-499.811 1652.1959,-501.2814 1651.1747,-614.8899 1651.1244,-614.9076 1651.7593,-658.5306 1658.0469,-662.9124 1662.3444,-666.4601 1617.3538,-678.6396 1613.7544,-682.2657 1611.2512,-682.2657 1609.7681,-681.7307 1605.5529,-681.7307 1604.7708,-682.0136 1598.1088,-682.0136 1597.4063,-681.7575 1592.4702,-681.7575 1591.7665,-682.0112 1585.623,-677.626 1585.623,-677.626 1591.7665,-682.0112 1592.4702,-681.7575 1597.4063,-681.7575 1598.1088,-682.0136 1604.7708,-682.0136 1605.5529,-681.7307 1609.7681,-681.7307 1611.2512,-682.2657 1613.7544,-682.2657 1617.3538,-678.6396 1662.3444,-666.4601 1658.0469,-662.9124 1651.7593,-658.5306 1651.1244,-614.9076 1651.1747,-614.8899 1652.1959,-501.2814 1647.4578,-502.6865 1642.6888,-503.9416 1627.4126,-507.4537 1622.0135,-508.5115 1547.1936,-518.1401 1534.2128,-511.7016 1487.376,-507.5969 1487.0176,-558.4966 1487.0176,-558.4966 1487.376,-507.5969 1472.4576,-505.431 1453.3878,-501.0132 1453.0323,-500.9207 1447.6886,-499.3773 1428.1752,-492.6061 1425.3788,-498.2038 1420.1577,-507.4179 1400.16,-536.6189 1389.7257,-549.5641 1385.9213,-553.8577 1374.6565,-565.362 1374.6219,-565.3932 1372.1007,-568.1187 1371.0128,-569.1532 1369.901,-570.0795 1329.1454,-611.4735 1324.1622,-615.3467 1319.7733,-619.3487 1322.3622,-622.4791 1327.692,-627.9428 1329.6527,-629.6059 1337.8903,-635.2841 1339.2957,-636.6782 1347.1521,-642.6722 1353.3242,-645.9077 1358.1879,-647.3308 1366.6609,-647.9088 1374.9351,-650.2769 1378.4714,-652.0203 1383.4752,-655.589 1391.1765,-662.8829 1395.8232,-666.0734 1397.4073,-667.3958 1401.4379,-671.4218 1409.6512,-681.064 1409.7368,-681.1468 1416.4205,-688.5159 1420.9186,-694.068 1430.1011,-706.6559 1447.089,-734.5983 1450.1008,-740.3059 1458.064,-727.1521 1457.1071,-684.1911 1452.1886,-624.5261 1447.5396,-624.5261 1447.2563,-624.4271 1447.2563,-624.4271 1447.5396,-624.5261 1452.1886,-624.5261 1457.1071,-684.1911 1458.064,-727.1521 1450.1008,-740.3059 1447.5718,-781.5937 1527.1941,-800.2698 1599.0713,-879.6201 1614.781,-887.7358 1638.4183,-921.267 1688.1089,-938.8962 1714.7861,-939.5394 1723.9485,-940.0532 1738.2114,-941.309 1742.2993,-941.7985 1749.2507,-943.0734 1750.9346,-832.8443 1745.0709,-832.8443 1744.0577,-832.4849 1744.0577,-832.4849 1745.0709,-832.8443 1750.9346,-832.8443 1749.2507,-943.0734 1762.7811,-945.9875 1762.8816,-923.6327 1763.8208,-901.5225 1770.0109,-836.0043 1775.3041,-837.8095 1775.3041,-837.8095 1770.0109,-836.0043 1763.8208,-901.5225 1762.8816,-923.6327 1762.7811,-945.9875 1765.0032,-946.6789 1776.8132,-946.2317 1788.4069,-946.4852 1795.5022,-946.8524 1795.5022,-946.8524"/>
<polyline fill="none" stroke="#000000" points="555.3861,-503.7012 560.0432,-504.3629 562.6103,-501.8506 563.7861,-500.8781 569.2548,-497.0995 575.6526,-491.2618 583.2578,-485.8009 587.1771,-483.7611 608.2075,-476.7016 611.6262,-474.9187 621.3133,-467.9243 622.7296,-466.6388 633.9258,-454.02 636.4649,-452.1437 641.6158,-446.9987 642.344,-446.9825 649.8014,-447.2948 652.3112,-447.2311 654.8157,-447.3277 656.1834,-447.2889 659.5026,-447.4068 673.8359,-448.8392 677.2546,-449.3979 709.7099,-456.7731 739.0234,-416.778 731.1556,-388.06 728.6913,-361.8042 728.2851,-359.5825 718.7988,-324.9571 722.2097,-311.16 754.0729,-229.1195 731.3389,-216.2876 643.8398,-206.9373 634.286,-204.9489 614.1827,-200.0801 612.5374,-199.6276 611.985,-199.4574 596.9236,-193.7901 595.9536,-194.0074 583.4072,-195.6893 516.075,-179.5537 496.79,-174.2468 489.2872,-171.9252 488.0145,-171.444 479.5817,-167.9577 459.1052,-158.774 412.2361,-170.3334 380.3521,-206.4324 377.5414,-212.3091 300.9019,-275.046 284.1169,-281.151 268.7256,-281.393 253.8442,-280.72 251.3146,-280.5286 241.7552,-283.5132 241.6674,-283.5348 223.853,-287.324 221.2217,-287.7091 213.3205,-288.606 177.1425,-291.521 138.5627,-320.6264 96.1916,-394.966 90.0376,-396.5334 82.0785,-398.0721 78.0334,-398.7307 61.5003,-400.4198 48.8605,-400.9406 25.7472,-401.1879 -28.0429,-416.9707 -48.1373,-510.8449 -50.1375,-518.4415 -49.5743,-520.9835 -38.4632,-584.8906 3.6584,-621.0488 7.0465,-630.848 7.5036,-632.3843 51.5244,-703.0746 99.3745,-721.0588 109.8124,-719.8972 124.5809,-718.7284 125.5414,-718.6835 144.9382,-719.0283 147.05,-719.1339 153.0488,-719.6271 161.6245,-720.886 170.7621,-722.5235 215.2739,-758.7775 261.8782,-769.8906 268.422,-771.8688 283.2216,-777.3047 290.5381,-780.4653 297.759,-778.7529 305.5103,-777.1387 319.3751,-775.4438 330.1452,-774.4366 334.1448,-774.1779 401.8969,-771.7388 392.3991,-665.856 396.2265,-661.0681 399.1707,-657.8095 401.7427,-654.3853 403.0519,-652.8706 412.8242,-643.0637 417.9825,-638.7508 419.0282,-638.0463 451.0122,-608.6561 459.399,-598.87 461.6306,-597.2573 463.6887,-595.4836 464.7979,-594.3566 453.0706,-564.4957 448.6344,-556.1496 455.8202,-541.9565 467.0597,-510.76 481.1941,-488.2543 498.6115,-496.69 501.1974,-497.7231 511.723,-501.0666 528.955,-503.6868 530.3499,-503.7809 531.7931,-503.7588 537.9119,-503.152 539.0639,-503.1318 545.8549,-503.5665 551.4044,-503.4572 555.3861,-503.7012 "/>
<polyline fill="none" stroke="#000000" points="464.7979,-594.3566 453.0706,-564.4957 448.6344,-556.1496 455.8202,-541.9565 467.0597,-510.76 481.1941,-488.2543 498.6115,-496.69 501.1974,-497.7231 511.723,-501.0666 528.955,-503.6868 530.3499,-503.7809 531.7931,-503.7588 537.9119,-503.152 539.0639,-503.1318 545.8549,-503.5665 551.4044,-503.4572 555.3861,-503.7012 560.0432,-504.3629 562.6103,-501.8506 563.7861,-500.8781 569.2548,-497.0995 575.6526,-491.2618 583.2578,-485.8009 587.1771,-483.7611 608.2075,-476.7016 611.6262,-474.9187 621.3133,-467.9243 622.7296,-466.6388 633.9258,-454.02 636.4649,-452.1437 641.6158,-446.9987 642.344,-446.9825 649.8014,-447.2948 652.3112,-447.2311 654.8157,-447.3277 656.1834,-447.2889 659.5026,-447.4068 673.8359,-448.8392 677.2546,-449.3979 709.7099,-456.7731 739.0234,-416.778 731.1556,-388.06 728.6913,-361.8042 728.2851,-359.5825 718.7988,-324.9571 722.2097,-311.16 754.0729,-229.1195 785.6948,-227.0988 798.4263,-225.6204 799.4547,-226.0673 811.9926,-230.7662 818.076,-232.8628 830.6395,-236.4437 833.0051,-237.047 841.2747,-238.9099 852.874,-240.8337 862.5898,-242.155 871.8737,-243.1394 897.1129,-244.3055 925.9693,-319.25 931.2367,-343.4401 926.9149,-348.539 925.6785,-349.8282 921.924,-353.2782 917.7631,-357.9478 908.1661,-367.1937 876.9752,-407.32 872.6462,-410.7398 870.1223,-413.0768 860.4525,-423.4684 892.4359,-476.22 915.9565,-504.8788 916.8004,-517.3485 945.4913,-547.7073 943.4927,-605.86 943.934,-611.02 943.084,-635.7491 932.9232,-642.983 877.8239,-678.6885 879.9072,-718.8915 879.6885,-725.3833 879.4252,-727.59 881.7612,-772.6675 885.9429,-774.7838 891.5052,-776.9474 899.5787,-779.6266 907.9819,-781.9289 935.1481,-787.7851 944.5917,-790.3618 946.603,-791.0238 947.5167,-791.432 952.4187,-823.8892 953.4114,-843.6902 953.3336,-845.1873 953.5352,-849.2816 966.7595,-936.8409 909.7963,-960.64 899.2205,-965.4324 898.0955,-965.1821 892.5555,-964.1143 889.0108,-963.6404 878.6292,-962.1622 875.2076,-961.777 855.9545,-960.7512 854.9971,-960.4323 844.8693,-958.0376 832.3825,-955.4848 789.0298,-949.4119 769.966,-942.6428 726.739,-951.4124 711.4583,-955.0065 699.5818,-958.1771 699.2582,-958.2838 685.4861,-958.3431 682.9913,-958.4257 680.1777,-958.6808 668.0832,-960.1281 666.6684,-959.4954 659.8504,-956.6761 657.9893,-956.0309 640.0549,-950.4008 637.2348,-949.6113 625.3823,-946.6911 617.0966,-945.2091 602.9906,-943.6307 569.1139,-940.9808 533.6448,-918.7501 487.948,-868.7455 469.9224,-850.5191 463.3447,-808.8816 461.7152,-800.3687 449.5896,-794.2686 401.8969,-771.7388 392.3991,-665.856 396.2265,-661.0681 399.1707,-657.8095 401.7427,-654.3853 403.0519,-652.8706 412.8242,-643.0637 417.9825,-638.7508 419.0282,-638.0463 451.0122,-608.6561 459.399,-598.87 461.6306,-597.2573 463.6887,-595.4836 464.7979,-594.3566 "/>
<polyline fill="none" stroke="#000000" points="1021.3892,-537.9923 1011.0409,-538.0956 999.6924,-539.3079 945.4913,-547.7073 916.8004,-517.3485 915.9565,-504.8788 892.4359,-476.22 860.4525,-423.4684 870.1223,-413.0768 872.6462,-410.7398 876.9752,-407.32 908.1661,-367.1937 917.7631,-357.9478 921.924,-353.2782 925.6785,-349.8282 926.9149,-348.539 931.2367,-343.4401 925.9693,-319.25 897.1129,-244.3055 961.3076,-208.4466 986.8768,-211.6386 995.2324,-212.405 1004.6383,-212.6445 1012.4882,-212.5839 1019.7243,-212.2876 1027.9894,-211.6746 1039.2932,-210.4613 1040.8213,-210.1964 1048.7913,-208.5482 1063.8909,-204.9206 1072.0309,-202.6984 1072.675,-202.4803 1107.4642,-189.5318 1157.1843,-194.4561 1159.3407,-197.0392 1169.8657,-241.8177 1180.943,-254.7876 1182.6844,-256.7033 1184.9827,-259.4811 1185.2587,-259.7935 1200.8032,-276.2771 1209.9064,-285.1989 1262.5874,-343.9859 1272.4246,-353.4995 1240.5001,-377.3778 1239.7906,-378.0415 1235.5013,-381.4844 1225.3309,-388.345 1218.8011,-391.8469 1216.3392,-392.83 1208.3315,-394.9905 1200.007,-396.1294 1198.8878,-396.1334 1197.2045,-395.9138 1187.5885,-395.9175 1186.0691,-395.7145 1184.1749,-395.9556 1176.3219,-395.9066 1176.0466,-395.9408 1170.7465,-395.8906 1169.8899,-395.7684 1164.2776,-395.6973 1161.1554,-396.0594 1150.1595,-398.7831 1149.4623,-399.0435 1141.2023,-403.2486 1129.5338,-410.736 1120.7079,-418.6185 1118.6587,-420.7062 1117.1763,-422.4199 1119.6774,-428.48 1127.2218,-464.76 1127.5587,-465.5763 1129.4292,-466.5843 1138.9447,-470.9421 1149.0635,-473.9379 1164.5548,-476.0452 1165.2928,-476.0854 1173.123,-475.8828 1175.3766,-476.0075 1181.3331,-476.8228 1190.8733,-478.9124 1195.5597,-480.3174 1202.356,-482.9088 1207.3247,-485.2064 1211.0598,-487.2406 1223.3595,-494.9856 1227.6992,-498.4356 1231.8898,-498.3185 1239.0239,-497.7581 1243.9391,-497.8855 1252.5928,-497.675 1253.6107,-497.5993 1263.9204,-496.3158 1276.7798,-493.426 1279.5917,-492.5133 1294.1318,-487.0426 1304.1525,-482.2641 1314.7396,-476.6859 1323.0026,-471.5163 1371.0475,-439.0768 1379.1458,-434.0137 1428.1752,-492.6061 1425.3788,-498.2038 1420.1577,-507.4179 1400.16,-536.6189 1389.7257,-549.5641 1385.9213,-553.8577 1374.6565,-565.362 1374.6219,-565.3932 1372.1007,-568.1187 1371.0128,-569.1532 1369.901,-570.0795 1329.1454,-611.4735 1324.1622,-615.3467 1319.7733,-619.3487 1322.3622,-622.4791 1327.692,-627.9428 1329.6527,-629.6059 1337.8903,-635.2841 1339.2957,-636.6782 1347.1521,-642.6722 1353.3242,-645.9077 1358.1879,-647.3308 1366.6609,-647.9088 1374.9351,-650.2769 1378.4714,-652.0203 1383.4752,-655.589 1391.1765,-662.8829 1395.8232,-666.0734 1397.4073,-667.3958 1401.4379,-671.4218 1409.6512,-681.064 1409.7368,-681.1468 1416.4205,-688.5159 1420.9186,-694.068 1430.1011,-706.6559 1447.089,-734.5983 1450.1008,-740.3059 1447.5718,-781.5937 1444.1373,-783.6031 1363.1611,-776.8224 1347.8029,-776.0505 1345.8658,-776.0183 1339.5244,-776.1255 1329.6665,-776.9556 1328.8285,-776.8448 1318.2179,-775.802 1308.3552,-775.1683 1303.6554,-775.1854 1291.7205,-775.6342 1283.3232,-776.5203 1271.2269,-778.2086 1264.0631,-779.4504 1237.2809,-784.993 1200.6583,-789.4104 1158.86,-735.5674 1186.6644,-670.85 1196.2251,-639.0209 1184.9318,-611.02 1179.2551,-586.9668 1164.2189,-577.581 1159.626,-575.1339 1156.7736,-573.8687 1150.4944,-571.6273 1140.481,-568.9298 1132.921,-567.5763 1127.006,-567.0509 1120.9287,-567.597 1119.9001,-567.5958 1116.3938,-567.2704 1109.6019,-567.251 1108.0975,-567.3815 1103.9242,-567.3631 1101.7616,-567.5462 1098.7485,-567.2537 1092.502,-567.2064 1091.238,-567.0811 1081.8527,-566.9951 1068.4237,-564.4186 1057.683,-560.4116 1045.0148,-553.3475 1042.5895,-551.7798 1029.6847,-542.2332 1024.84,-537.7877 1021.3892,-537.9923 "/>
<polyline fill="none" stroke="#000000" points="1202.356,-482.9088 1207.3247,-485.2064 1211.0598,-487.2406 1223.3595,-494.9856 1227.6992,-498.4356 1231.8898,-498.3185 1239.0239,-497.7581 1243.9391,-497.8855 1252.5928,-497.675 1253.6107,-497.5993 1263.9204,-496.3158 1276.7798,-493.426 1279.5917,-492.5133 1294.1318,-487.0426 1304.1525,-482.2641 1314.7396,-476.6859 1323.0026,-471.5163 1371.0475,-439.0768 1379.1458,-434.0137 1377.5405,-417.574 1377.421,-415.7064 1461.5735,-314.0672 1469.7076,-312.0091 1486.0543,-308.9824 1570.6954,-296.2133 1591.4464,-285.1042 1595.3027,-268.463 1663.7568,-186.9586 1673.8362,-161.8559 1677.0137,-135.45 1690.0468,-73.4841 1679.2844,-58.4654 1583.808,-13.8766 1573.96,-11.9755 1559.1418,-8.6593 1550.6879,-6.2523 1537.5031,-1.6848 1528.4812,1.717 1519.8445,5.2362 1514.6893,7.4925 1511.2135,14.7483 1509.7144,18.1798 1465.5551,49.7079 1383.3921,96.2828 1373.7269,102.1362 1367.1031,100.9482 1360.4143,100.1263 1356.7418,99.7784 1347.9459,99.1925 1336.3008,98.7451 1313.9073,99.779 1306.9641,100.6845 1297.8756,102.1262 1295.6469,102.5423 1290.5051,103.6476 1285.6877,102.5007 1219.1252,66.3096 1190.79,-5.5033 1188.9182,-9.6807 1194.2722,-30.2153 1202.6345,-69.8469 1187.3851,-118.4291 1177.666,-145.0103 1157.1843,-194.4561 1159.3407,-197.0392 1169.8657,-241.8177 1180.943,-254.7876 1182.6844,-256.7033 1184.9827,-259.4811 1185.2587,-259.7935 1200.8032,-276.2771 1209.9064,-285.1989 1262.5874,-343.9859 1272.4246,-353.4995 1240.5001,-377.3778 1239.7906,-378.0415 1235.5013,-381.4844 1225.3309,-388.345 1218.8011,-391.8469 1216.3392,-392.83 1208.3315,-394.9905 1200.007,-396.1294 1198.8878,-396.1334 1197.2045,-395.9138 1187.5885,-395.9175 1186.0691,-395.7145 1184.1749,-395.9556 1176.3219,-395.9066 1176.0466,-395.9408 1170.7465,-395.8906 1169.8899,-395.7684 1164.2776,-395.6973 1161.1554,-396.0594 1150.1595,-398.7831 1149.4623,-399.0435 1141.2023,-403.2486 1129.5338,-410.736 1120.7079,-418.6185 1118.6587,-420.7062 1117.1763,-422.4199 1119.6774,-428.48 1127.2218,-464.76 1127.5587,-465.5763 1129.4292,-466.5843 1138.9447,-470.9421 1149.0635,-473.9379 1164.5548,-476.0452 1165.2928,-476.0854 1173.123,-475.8828 1175.3766,-476.0075 1181.3331,-476.8228 1190.8733,-478.9124 1195.5597,-480.3174 1202.356,-482.9088 "/>
<polyline fill="none" stroke="#000000" points="952.4187,-823.8892 953.4114,-843.6902 953.3336,-845.1873 953.5352,-849.2816 966.7595,-936.8409 993.5555,-938.8304 1013.8895,-941.0037 1017.9766,-941.704 1025.3232,-943.2016 1036.6157,-945.8696 1047.2618,-949.4248 1057.3491,-946.0868 1075.0637,-941.9504 1131.8412,-932.3907 1181.7285,-874.3267 1186.5697,-847.1707 1192.5856,-820.0366 1200.6583,-789.4104 1158.86,-735.5674 1186.6644,-670.85 1196.2251,-639.0209 1184.9318,-611.02 1179.2551,-586.9668 1164.2189,-577.581 1159.626,-575.1339 1156.7736,-573.8687 1150.4944,-571.6273 1140.481,-568.9298 1132.921,-567.5763 1127.006,-567.0509 1120.9287,-567.597 1119.9001,-567.5958 1116.3938,-567.2704 1109.6019,-567.251 1108.0975,-567.3815 1103.9242,-567.3631 1101.7616,-567.5462 1098.7485,-567.2537 1092.502,-567.2064 1091.238,-567.0811 1081.8527,-566.9951 1068.4237,-564.4186 1057.683,-560.4116 1045.0148,-553.3475 1042.5895,-551.7798 1029.6847,-542.2332 1024.84,-537.7877 1021.3892,-537.9923 1011.0409,-538.0956 999.6924,-539.3079 945.4913,-547.7073 943.4927,-605.86 943.934,-611.02 943.084,-635.7491 932.9232,-642.983 877.8239,-678.6885 879.9072,-718.8915 879.6885,-725.3833 879.4252,-727.59 881.7612,-772.6675 885.9429,-774.7838 891.5052,-776.9474 899.5787,-779.6266 907.9819,-781.9289 935.1481,-787.7851 944.5917,-790.3618 946.603,-791.0238 947.5167,-791.432 952.4187,-823.8892 "/>
<polyline fill="none" stroke="#000000" points="1420.9186,-694.068 1430.1011,-706.6559 1447.089,-734.5983 1450.1008,-740.3059 1447.5718,-781.5937 1527.1941,-800.2698 1599.0713,-879.6201 1614.781,-887.7358 1638.4183,-921.267 1688.1089,-938.8962 1714.7861,-939.5394 1723.9485,-940.0532 1738.2114,-941.309 1742.2993,-941.7985 1749.2507,-943.0734 1762.7811,-945.9875 1765.0032,-946.6789 1776.8132,-946.2317 1788.4069,-946.4852 1795.5022,-946.8524 1802.7545,-947.4442 1803.4133,-947.5176 1812.4063,-943.7529 1814.5132,-943.0184 1829.7748,-938.219 1893.3918,-922.6429 1916.9155,-895.7292 1939.6287,-855.4676 1939.9327,-854.9791 1941.4805,-836.5293 1937.3674,-810.6263 1932.2266,-765.4352 1848.0033,-693.3929 1845.7391,-692.2437 1837.0708,-680.2709 1833.8489,-639.6373 1823.9673,-614.78 1799.8615,-535.012 1789.3337,-525.0174 1722.0812,-505.5343 1700.9353,-498.6708 1700.7157,-498.5848 1691.7628,-499.5742 1673.8674,-499.9346 1665.6937,-499.8524 1658.0209,-499.3129 1656.6514,-499.811 1652.1959,-501.2814 1647.4578,-502.6865 1642.6888,-503.9416 1627.4126,-507.4537 1622.0135,-508.5115 1547.1936,-518.1401 1534.2128,-511.7016 1487.376,-507.5969 1472.4576,-505.431 1453.3878,-501.0132 1453.0323,-500.9207 1447.6886,-499.3773 1428.1752,-492.6061 1425.3788,-498.2038 1420.1577,-507.4179 1400.16,-536.6189 1389.7257,-549.5641 1385.9213,-553.8577 1374.6565,-565.362 1374.6219,-565.3932 1372.1007,-568.1187 1371.0128,-569.1532 1369.901,-570.0795 1329.1454,-611.4735 1324.1622,-615.3467 1319.7733,-619.3487 1322.3622,-622.4791 1327.692,-627.9428 1329.6527,-629.6059 1337.8903,-635.2841 1339.2957,-636.6782 1347.1521,-642.6722 1353.3242,-645.9077 1358.1879,-647.3308 1366.6609,-647.9088 1374.9351,-650.2769 1378.4714,-652.0203 1383.4752,-655.589 1391.1765,-662.8829 1395.8232,-666.0734 1397.4073,-667.3958 1401.4379,-671.4218 1409.6512,-681.064 1409.7368,-681.1468 1416.4205,-688.5159 1420.9186,-694.068 "/>
<!-- ceph&#45;base&#45;&gt;ceph&#45;common -->
<g id="edge1" class="edge">
<title>ceph&#45;base&#45;&gt;ceph&#45;common</title>
<path fill="none" stroke="#444444" stroke-opacity="0.333333" d="M509.9359,-472.0464C460.3316,-489.2707 385.5372,-515.2419 332.9692,-533.4953"/>
<polygon fill="#444444" fill-opacity="0.333333" stroke="#444444" stroke-opacity="0.333333" points="331.722,-530.2233 323.4234,-536.81 334.0182,-536.836 331.722,-530.2233"/>
</g>
<!-- ceph&#45;base&#45;&gt;ceph&#45;selinux -->
<g id="edge2" class="edge">
<title>ceph&#45;base&#45;&gt;ceph&#45;selinux</title>
<path fill="none" stroke="#444444" stroke-opacity="0.333333" d="M568.5359,-435.9267C577.5697,-411.4795 593.7596,-367.6664 604.3501,-339.0065"/>
<polygon fill="#444444" fill-opacity="0.333333" stroke="#444444" stroke-opacity="0.333333" points="607.6585,-340.1509 607.8417,-329.5577 601.0924,-337.7246 607.6585,-340.1509"/>
</g>
<!-- ceph&#45;base&#45;&gt;cryptsetup -->
<g id="edge3" class="edge">
<title>ceph&#45;base&#45;&gt;cryptsetup</title>
<path fill="none" stroke="#444444" stroke-opacity="0.333333" d="M585.3171,-435.9961C594.8788,-428.6523 606.0748,-420.0532 616.324,-412.1814"/>
<polygon fill="#444444" fill-opacity="0.333333" stroke="#444444" stroke-opacity="0.333333" points="618.4924,-414.9291 624.2913,-406.0621 614.2286,-409.3775 618.4924,-414.9291"/>
</g>
<!-- ceph&#45;base&#45;&gt;libcephfs2 -->
<g id="edge4" class="edge">
<title>ceph&#45;base&#45;&gt;libcephfs2</title>
<path fill="none" stroke="#444444" stroke-opacity="0.333333" d="M540.4176,-472.0725C509.826,-497.8397 453.5445,-545.2455 419.1399,-574.2244"/>
<polygon fill="#444444" fill-opacity="0.333333" stroke="#444444" stroke-opacity="0.333333" points="416.7054,-571.6989 411.3117,-580.8181 421.2149,-577.0528 416.7054,-571.6989"/>
</g>
<!-- ceph&#45;base&#45;&gt;librados2 -->
<g id="edge5" class="edge">
<title>ceph&#45;base&#45;&gt;librados2</title>
<path fill="none" stroke="#444444" stroke-opacity="0.333333" d="M502.5403,-453.6174C488.5157,-453.5221 473.4364,-453.4198 459.0057,-453.3218"/>
<polygon fill="#444444" fill-opacity="0.333333" stroke="#444444" stroke-opacity="0.333333" points="458.6605,-449.8195 448.6369,-453.2514 458.6129,-456.8193 458.6605,-449.8195"/>
</g>
<!-- ceph&#45;base&#45;&gt;librbd1 -->
<g id="edge6" class="edge">
<title>ceph&#45;base&#45;&gt;librbd1</title>
<path fill="none" stroke="#444444" stroke-opacity="0.333333" d="M512.9779,-435.9429C485.4443,-425.7587 450.8906,-412.9778 422.0089,-402.2948"/>
<polygon fill="#444444" fill-opacity="0.333333" stroke="#444444" stroke-opacity="0.333333" points="423.0432,-398.9457 412.45,-398.7591 420.6147,-405.511 423.0432,-398.9457"/>
</g>
<!-- ceph&#45;base&#45;&gt;librgw2 -->
<g id="edge7" class="edge">
<title>ceph&#45;base&#45;&gt;librgw2</title>
<path fill="none" stroke="#444444" stroke-opacity="0.333333" d="M525.3491,-435.9039C522.3813,-434.4309 519.3603,-432.9315 516.3392,-431.4321"/>
<polygon fill="#444444" fill-opacity="0.333333" stroke="#444444" stroke-opacity="0.333333" points="517.8425,-428.2709 507.3291,-426.9602 514.7305,-434.5411 517.8425,-428.2709"/>
</g>
<!-- ceph&#45;base&#45;&gt;lttng&#45;ust -->
<g id="edge8" class="edge">
<title>ceph&#45;base&#45;&gt;lttng&#45;ust</title>
<path fill="none" stroke="#444444" stroke-opacity="0.333333" d="M540.5414,-435.9784C516.6436,-415.7444 477.7326,-382.799 450.9511,-360.1235"/>
<polygon fill="#444444" fill-opacity="0.333333" stroke="#444444" stroke-opacity="0.333333" points="452.9526,-357.2321 443.0591,-353.4414 448.4293,-362.5744 452.9526,-357.2321"/>
</g>
<!-- ceph&#45;base&#45;&gt;which -->
<g id="edge9" class="edge">
<title>ceph&#45;base&#45;&gt;which</title>
<path fill="none" stroke="#444444" stroke-opacity="0.333333" d="M554.5065,-435.72C542.4856,-405.7643 518.5345,-346.0784 504.3989,-310.8528"/>
<polygon fill="#444444" fill-opacity="0.333333" stroke="#444444" stroke-opacity="0.333333" points="507.4932,-309.1656 500.5207,-301.1884 500.9968,-311.7726 507.4932,-309.1656"/>
</g>
<!-- ceph&#45;common&#45;&gt;libcephfs2 -->
<g id="edge10" class="edge">
<title>ceph&#45;common&#45;&gt;libcephfs2</title>
<path fill="none" stroke="#444444" stroke-opacity="0.333333" d="M319.9735,-572.8816C323.8156,-574.31 327.7199,-575.7614 331.6187,-577.2108"/>
<polygon fill="#444444" fill-opacity="0.333333" stroke="#444444" stroke-opacity="0.333333" points="330.6674,-580.5912 341.2603,-580.7952 333.1067,-574.0299 330.6674,-580.5912"/>
</g>
<!-- ceph&#45;common&#45;&gt;librados2 -->
<g id="edge11" class="edge">
<title>ceph&#45;common&#45;&gt;librados2</title>
<path fill="none" stroke="#444444" stroke-opacity="0.333333" d="M292.3015,-536.8492C311.3163,-520.4182 339.5991,-495.9787 360.7617,-477.6918"/>
<polygon fill="#444444" fill-opacity="0.333333" stroke="#444444" stroke-opacity="0.333333" points="363.2117,-480.2005 368.4897,-471.0139 358.6349,-474.9039 363.2117,-480.2005"/>
</g>
<!-- ceph&#45;common&#45;&gt;librbd1 -->
<g id="edge12" class="edge">
<title>ceph&#45;common&#45;&gt;librbd1</title>
<path fill="none" stroke="#444444" stroke-opacity="0.333333" d="M281.2122,-536.562C297.5929,-505.8122 330.7259,-443.6149 349.7796,-407.8473"/>
<polygon fill="#444444" fill-opacity="0.333333" stroke="#444444" stroke-opacity="0.333333" points="352.9158,-409.4043 354.5284,-398.9329 346.7377,-406.1132 352.9158,-409.4043"/>
</g>
<!-- ceph&#45;common&#45;&gt;leveldb -->
<g id="edge13" class="edge">
<title>ceph&#45;common&#45;&gt;leveldb</title>
<path fill="none" stroke="#444444" stroke-opacity="0.333333" d="M311.3649,-572.9729C343.7237,-587.6724 389.4882,-608.4617 424.132,-624.1992"/>
<polygon fill="#444444" fill-opacity="0.333333" stroke="#444444" stroke-opacity="0.333333" points="423.0358,-627.5454 433.588,-628.4948 425.931,-621.1722 423.0358,-627.5454"/>
</g>
<!-- ceph&#45;common&#45;&gt;libradosstriper1 -->
<g id="edge14" class="edge">
<title>ceph&#45;common&#45;&gt;libradosstriper1</title>
<path fill="none" stroke="#444444" stroke-opacity="0.333333" d="M201.9502,-539.348C197.2064,-538.2902 192.3894,-537.2161 187.5585,-536.1388"/>
<polygon fill="#444444" fill-opacity="0.333333" stroke="#444444" stroke-opacity="0.333333" points="188.1639,-532.6879 177.6419,-533.9275 186.6404,-539.5201 188.1639,-532.6879"/>
</g>
<!-- ceph&#45;common&#45;&gt;python2&#45;prettytable -->
<g id="edge15" class="edge">
<title>ceph&#45;common&#45;&gt;python2&#45;prettytable</title>
<path fill="none" stroke="#444444" stroke-opacity="0.333333" d="M238.9224,-572.865C229.1742,-578.2606 218.3518,-584.2507 208.1178,-589.9152"/>
<polygon fill="#444444" fill-opacity="0.333333" stroke="#444444" stroke-opacity="0.333333" points="206.3717,-586.8812 199.3175,-594.7862 209.7616,-593.0057 206.3717,-586.8812"/>
</g>
<!-- ceph&#45;common&#45;&gt;python&#45;cephfs -->
<g id="edge16" class="edge">
<title>ceph&#45;common&#45;&gt;python&#45;cephfs</title>
<path fill="none" stroke="#444444" stroke-opacity="0.333333" d="M275.539,-573.0909C279.0021,-588.6155 284.0317,-611.1622 288.0013,-628.9575"/>
<polygon fill="#444444" fill-opacity="0.333333" stroke="#444444" stroke-opacity="0.333333" points="284.6029,-629.7989 290.1962,-638.797 291.435,-628.2748 284.6029,-629.7989"/>
</g>
<!-- ceph&#45;common&#45;&gt;python&#45;rados -->
<g id="edge17" class="edge">
<title>ceph&#45;common&#45;&gt;python&#45;rados</title>
<path fill="none" stroke="#444444" stroke-opacity="0.333333" d="M265.9174,-536.8446C262.587,-526.0452 258.2805,-512.0807 254.5139,-499.8668"/>
<polygon fill="#444444" fill-opacity="0.333333" stroke="#444444" stroke-opacity="0.333333" points="257.8018,-498.6513 251.5102,-490.1268 251.1126,-500.7142 257.8018,-498.6513"/>
</g>
<!-- ceph&#45;common&#45;&gt;python&#45;rbd -->
<g id="edge18" class="edge">
<title>ceph&#45;common&#45;&gt;python&#45;rbd</title>
<path fill="none" stroke="#444444" stroke-opacity="0.333333" d="M267.8451,-536.6371C262.3686,-509.1213 251.9406,-456.7271 245.479,-424.2618"/>
<polygon fill="#444444" fill-opacity="0.333333" stroke="#444444" stroke-opacity="0.333333" points="248.8374,-423.2049 243.4526,-414.0805 241.9721,-424.5714 248.8374,-423.2049"/>
</g>
<!-- ceph&#45;common&#45;&gt;python&#45;rgw -->
<g id="edge19" class="edge">
<title>ceph&#45;common&#45;&gt;python&#45;rgw</title>
<path fill="none" stroke="#444444" stroke-opacity="0.333333" d="M321.526,-536.7897C325.6043,-535.3182 329.7506,-533.8223 333.8888,-532.3292"/>
<polygon fill="#444444" fill-opacity="0.333333" stroke="#444444" stroke-opacity="0.333333" points="335.2755,-535.5498 343.4941,-528.8636 332.8997,-528.9652 335.2755,-535.5498"/>
</g>
<!-- libcephfs2&#45;&gt;librados2 -->
<g id="edge20" class="edge">
<title>libcephfs2&#45;&gt;librados2</title>
<path fill="none" stroke="#444444" stroke-opacity="0.333333" d="M389.8339,-580.6717C389.7707,-555.7509 389.6567,-510.7518 389.5822,-481.3416"/>
<polygon fill="#444444" fill-opacity="0.333333" stroke="#444444" stroke-opacity="0.333333" points="393.0821,-481.2687 389.5567,-471.2776 386.0821,-481.2865 393.0821,-481.2687"/>
</g>
<!-- librados2&#45;&gt;lttng&#45;ust -->
<g id="edge21" class="edge">
<title>librados2&#45;&gt;lttng&#45;ust</title>
<path fill="none" stroke="#444444" stroke-opacity="0.333333" d="M394.446,-434.7296C399.6286,-415.7042 407.8468,-385.535 413.8763,-363.4004"/>
<polygon fill="#444444" fill-opacity="0.333333" stroke="#444444" stroke-opacity="0.333333" points="417.3042,-364.1331 416.5556,-353.5647 410.5503,-362.2933 417.3042,-364.1331"/>
</g>
<!-- librbd1&#45;&gt;librados2 -->
<g id="edge22" class="edge">
<title>librbd1&#45;&gt;librados2</title>
<path fill="none" stroke="#444444" stroke-opacity="0.333333" d="M370.5419,-399.0485C373.3149,-406.9138 376.6237,-416.2992 379.6956,-425.0122"/>
<polygon fill="#444444" fill-opacity="0.333333" stroke="#444444" stroke-opacity="0.333333" points="376.396,-426.1797 383.0219,-434.447 382.9977,-423.8522 376.396,-426.1797"/>
</g>
<!-- librbd1&#45;&gt;lttng&#45;ust -->
<g id="edge23" class="edge">
<title>librbd1&#45;&gt;lttng&#45;ust</title>
<path fill="none" stroke="#444444" stroke-opacity="0.333333" d="M386.83,-362.844C388.0445,-361.878 389.274,-360.9001 390.5093,-359.9176"/>
<polygon fill="#444444" fill-opacity="0.333333" stroke="#444444" stroke-opacity="0.333333" points="393.0008,-362.4081 398.6487,-353.4442 388.6435,-356.9296 393.0008,-362.4081"/>
</g>
<!-- librgw2&#45;&gt;librados2 -->
<g id="edge24" class="edge">
<title>librgw2&#45;&gt;librados2</title>
<path fill="none" stroke="#444444" stroke-opacity="0.333333" d="M437.2787,-426.9946C435.507,-427.9536 433.7167,-428.9226 431.9218,-429.8941"/>
<polygon fill="#444444" fill-opacity="0.333333" stroke="#444444" stroke-opacity="0.333333" points="430.1026,-426.8989 422.9742,-434.7371 433.4347,-433.055 430.1026,-426.8989"/>
</g>
<!-- libradosstriper1&#45;&gt;librados2 -->
<g id="edge25" class="edge">
<title>libradosstriper1&#45;&gt;librados2</title>
<path fill="none" stroke="#444444" stroke-opacity="0.333333" d="M180.7082,-497.8395C224.9626,-488.3043 278.6004,-476.7472 320.4306,-467.7342"/>
<polygon fill="#444444" fill-opacity="0.333333" stroke="#444444" stroke-opacity="0.333333" points="321.214,-471.1458 330.2524,-465.618 319.7395,-464.3029 321.214,-471.1458"/>
</g>
<!-- python&#45;cephfs&#45;&gt;libcephfs2 -->
<g id="edge26" class="edge">
<title>python&#45;cephfs&#45;&gt;libcephfs2</title>
<path fill="none" stroke="#444444" stroke-opacity="0.333333" d="M323.9699,-638.8433C332.6973,-633.5503 342.3669,-627.6858 351.5499,-622.1165"/>
<polygon fill="#444444" fill-opacity="0.333333" stroke="#444444" stroke-opacity="0.333333" points="353.423,-625.0739 360.1584,-616.8956 349.7931,-619.0886 353.423,-625.0739"/>
</g>
<!-- python&#45;rados&#45;&gt;librados2 -->
<g id="edge27" class="edge">
<title>python&#45;rados&#45;&gt;librados2</title>
<path fill="none" stroke="#444444" stroke-opacity="0.333333" d="M321.4806,-461.8587C321.5735,-461.8464 321.6664,-461.8341 321.7593,-461.8218"/>
<polygon fill="#444444" fill-opacity="0.333333" stroke="#444444" stroke-opacity="0.333333" points="320.901,-465.4661 330.355,-460.6835 319.982,-458.5267 320.901,-465.4661"/>
</g>
<!-- python&#45;rbd&#45;&gt;librados2 -->
<g id="edge28" class="edge">
<title>python&#45;rbd&#45;&gt;librados2</title>
<path fill="none" stroke="#444444" stroke-opacity="0.333333" d="M287.6285,-414.1985C301.8718,-419.6021 317.6273,-425.5793 332.4047,-431.1855"/>
<polygon fill="#444444" fill-opacity="0.333333" stroke="#444444" stroke-opacity="0.333333" points="331.3572,-434.5315 341.9485,-434.8063 333.8403,-427.9867 331.3572,-434.5315"/>
</g>
<!-- python&#45;rbd&#45;&gt;librbd1 -->
<g id="edge29" class="edge">
<title>python&#45;rbd&#45;&gt;librbd1</title>
<path fill="none" stroke="#444444" stroke-opacity="0.333333" d="M304.5529,-388.1736C305.0394,-388.1141 305.5258,-388.0546 306.0118,-387.9952"/>
<polygon fill="#444444" fill-opacity="0.333333" stroke="#444444" stroke-opacity="0.333333" points="306.6273,-391.4461 316.1287,-386.7586 305.7779,-384.4979 306.6273,-391.4461"/>
</g>
<!-- python&#45;rbd&#45;&gt;python&#45;rados -->
<g id="edge30" class="edge">
<title>python&#45;rbd&#45;&gt;python&#45;rados</title>
<path fill="none" stroke="#444444" stroke-opacity="0.333333" d="M241.3249,-414.4266C242.0188,-423.1775 242.8646,-433.8436 243.6381,-443.5985"/>
<polygon fill="#444444" fill-opacity="0.333333" stroke="#444444" stroke-opacity="0.333333" points="240.1589,-444.0003 244.4385,-453.6923 247.137,-443.4469 240.1589,-444.0003"/>
</g>
<!-- python&#45;rgw&#45;&gt;librados2 -->
<g id="edge31" class="edge">
<title>python&#45;rgw&#45;&gt;librados2</title>
<path fill="none" stroke="#444444" stroke-opacity="0.333333" d="M392.3766,-492.7544C392.113,-489.0855 391.8297,-485.1416 391.5474,-481.2122"/>
<polygon fill="#444444" fill-opacity="0.333333" stroke="#444444" stroke-opacity="0.333333" points="395.0246,-480.7675 390.817,-471.044 388.0426,-481.2691 395.0246,-480.7675"/>
</g>
<!-- python&#45;rgw&#45;&gt;librgw2 -->
<g id="edge32" class="edge">
<title>python&#45;rgw&#45;&gt;librgw2</title>
<path fill="none" stroke="#444444" stroke-opacity="0.333333" d="M407.4629,-492.5387C419.5309,-476.5961 437.2106,-453.2401 450.8295,-435.2487"/>
<polygon fill="#444444" fill-opacity="0.333333" stroke="#444444" stroke-opacity="0.333333" points="453.9017,-436.9892 457.1465,-426.9035 448.3204,-432.7643 453.9017,-436.9892"/>
</g>
<!-- python&#45;rgw&#45;&gt;python&#45;rados -->
<g id="edge33" class="edge">
<title>python&#45;rgw&#45;&gt;python&#45;rados</title>
<path fill="none" stroke="#444444" stroke-opacity="0.333333" d="M328.8472,-493.7023C327.3445,-493.3069 325.8367,-492.9101 324.3264,-492.5127"/>
<polygon fill="#444444" fill-opacity="0.333333" stroke="#444444" stroke-opacity="0.333333" points="324.91,-489.0472 314.3485,-489.8871 323.1286,-495.8167 324.91,-489.0472"/>
</g>
<!-- ceph&#45;&gt;ceph&#45;mds -->
<g id="edge34" class="edge">
<title>ceph&#45;&gt;ceph&#45;mds</title>
<path fill="none" stroke="#444444" stroke-opacity="0.333333" d="M674.9165,-532.613C673.3911,-531.7333 671.851,-530.8452 670.3064,-529.9545"/>
<polygon fill="#444444" fill-opacity="0.333333" stroke="#444444" stroke-opacity="0.333333" points="671.8924,-526.8289 661.4811,-524.8653 668.3955,-532.8929 671.8924,-526.8289"/>
</g>
<!-- ceph&#45;&gt;ceph&#45;mgr -->
<g id="edge35" class="edge">
<title>ceph&#45;&gt;ceph&#45;mgr</title>
<path fill="none" stroke="#444444" stroke-opacity="0.333333" d="M729.7025,-532.7311C742.1332,-523.0946 757.6093,-511.0974 771.1001,-500.6391"/>
<polygon fill="#444444" fill-opacity="0.333333" stroke="#444444" stroke-opacity="0.333333" points="773.4396,-503.2541 779.1986,-494.3611 769.1508,-497.7217 773.4396,-503.2541"/>
</g>
<!-- ceph&#45;&gt;ceph&#45;mon -->
<g id="edge36" class="edge">
<title>ceph&#45;&gt;ceph&#45;mon</title>
<path fill="none" stroke="#444444" stroke-opacity="0.333333" d="M687.7006,-568.9427C677.9889,-578.3654 665.9655,-590.0313 655.341,-600.3397"/>
<polygon fill="#444444" fill-opacity="0.333333" stroke="#444444" stroke-opacity="0.333333" points="652.6448,-598.079 647.9051,-607.5545 657.5193,-603.1029 652.6448,-598.079"/>
</g>
<!-- ceph&#45;&gt;ceph&#45;osd -->
<g id="edge37" class="edge">
<title>ceph&#45;&gt;ceph&#45;osd</title>
<path fill="none" stroke="#444444" stroke-opacity="0.333333" d="M673.528,-551.1683C648.8349,-551.4597 614.2431,-551.868 584.1484,-552.2233"/>
<polygon fill="#444444" fill-opacity="0.333333" stroke="#444444" stroke-opacity="0.333333" points="584.0935,-548.7236 574.1356,-552.3415 584.1762,-555.7231 584.0935,-548.7236"/>
</g>
<!-- ceph&#45;mds&#45;&gt;ceph&#45;base -->
<g id="edge38" class="edge">
<title>ceph&#45;mds&#45;&gt;ceph&#45;base</title>
<path fill="none" stroke="#444444" stroke-opacity="0.333333" d="M606.5794,-488.5968C602.447,-485.4023 598.0831,-482.029 593.7662,-478.6918"/>
<polygon fill="#444444" fill-opacity="0.333333" stroke="#444444" stroke-opacity="0.333333" points="595.6477,-475.7225 585.5953,-472.3756 591.3665,-481.2607 595.6477,-475.7225"/>
</g>
<!-- ceph&#45;mgr&#45;&gt;ceph&#45;base -->
<g id="edge39" class="edge">
<title>ceph&#45;mgr&#45;&gt;ceph&#45;base</title>
<path fill="none" stroke="#444444" stroke-opacity="0.333333" d="M748.571,-471.2379C713.9762,-468.0478 668.7493,-463.8774 631.4718,-460.44"/>
<polygon fill="#444444" fill-opacity="0.333333" stroke="#444444" stroke-opacity="0.333333" points="631.463,-456.9244 621.1839,-459.4913 630.8202,-463.8948 631.463,-456.9244"/>
</g>
<!-- ceph&#45;mgr&#45;&gt;python2&#45;cherrypy -->
<g id="edge40" class="edge">
<title>ceph&#45;mgr&#45;&gt;python2&#45;cherrypy</title>
<path fill="none" stroke="#444444" stroke-opacity="0.333333" d="M806.6094,-458.1669C810.7279,-439.6223 817.1968,-410.4948 821.9921,-388.9027"/>
<polygon fill="#444444" fill-opacity="0.333333" stroke="#444444" stroke-opacity="0.333333" points="825.4427,-389.5087 824.1941,-378.9877 818.6092,-387.991 825.4427,-389.5087"/>
</g>
<!-- ceph&#45;mgr&#45;&gt;python2&#45;pecan -->
<g id="edge41" class="edge">
<title>ceph&#45;mgr&#45;&gt;python2&#45;pecan</title>
<path fill="none" stroke="#444444" stroke-opacity="0.333333" d="M856.8808,-473.5908C883.9697,-472.2788 917.4674,-470.6563 948.3293,-469.1614"/>
<polygon fill="#444444" fill-opacity="0.333333" stroke="#444444" stroke-opacity="0.333333" points="948.8625,-472.6398 958.6814,-468.66 948.5238,-465.648 948.8625,-472.6398"/>
</g>
<!-- ceph&#45;mgr&#45;&gt;python&#45;werkzeug -->
<g id="edge42" class="edge">
<title>ceph&#45;mgr&#45;&gt;python&#45;werkzeug</title>
<path fill="none" stroke="#444444" stroke-opacity="0.333333" d="M805.4574,-494.2459C808.8735,-515.7962 814.6317,-552.1224 818.648,-577.4588"/>
<polygon fill="#444444" fill-opacity="0.333333" stroke="#444444" stroke-opacity="0.333333" points="815.2281,-578.2406 820.2506,-587.5693 822.1418,-577.1446 815.2281,-578.2406"/>
</g>
<!-- ceph&#45;mon&#45;&gt;ceph&#45;base -->
<g id="edge43" class="edge">
<title>ceph&#45;mon&#45;&gt;ceph&#45;base</title>
<path fill="none" stroke="#444444" stroke-opacity="0.333333" d="M622.0212,-607.7502C610.2675,-577.7208 586.6266,-517.3213 572.7335,-481.826"/>
<polygon fill="#444444" fill-opacity="0.333333" stroke="#444444" stroke-opacity="0.333333" points="575.8291,-480.132 568.925,-472.0956 569.3106,-482.6835 575.8291,-480.132"/>
</g>
<!-- ceph&#45;mon&#45;&gt;leveldb -->
<g id="edge44" class="edge">
<title>ceph&#45;mon&#45;&gt;leveldb</title>
<path fill="none" stroke="#444444" stroke-opacity="0.333333" d="M575.0741,-633.016C561.081,-634.8828 545.9509,-636.9013 531.7466,-638.7962"/>
<polygon fill="#444444" fill-opacity="0.333333" stroke="#444444" stroke-opacity="0.333333" points="531.0461,-635.3586 521.5967,-640.1503 531.9718,-642.2971 531.0461,-635.3586"/>
</g>
<!-- ceph&#45;mon&#45;&gt;python2&#45;flask -->
<g id="edge45" class="edge">
<title>ceph&#45;mon&#45;&gt;python2&#45;flask</title>
<path fill="none" stroke="#444444" stroke-opacity="0.333333" d="M657.2979,-644.0062C683.3245,-660.7953 722.1138,-685.8174 750.4676,-704.1077"/>
<polygon fill="#444444" fill-opacity="0.333333" stroke="#444444" stroke-opacity="0.333333" points="748.6057,-707.0717 758.9063,-709.5513 752.4003,-701.1893 748.6057,-707.0717"/>
</g>
<!-- ceph&#45;osd&#45;&gt;ceph&#45;base -->
<g id="edge46" class="edge">
<title>ceph&#45;osd&#45;&gt;ceph&#45;base</title>
<path fill="none" stroke="#444444" stroke-opacity="0.333333" d="M527.7086,-534.8292C534.0148,-519.9031 543.0509,-498.5155 550.2431,-481.4924"/>
<polygon fill="#444444" fill-opacity="0.333333" stroke="#444444" stroke-opacity="0.333333" points="553.5622,-482.6295 554.23,-472.0557 547.1141,-479.9052 553.5622,-482.6295"/>
</g>
<!-- ceph&#45;osd&#45;&gt;librados2 -->
<g id="edge47" class="edge">
<title>ceph&#45;osd&#45;&gt;librados2</title>
<path fill="none" stroke="#444444" stroke-opacity="0.333333" d="M496.402,-534.8472C475.4639,-518.7855 444.7154,-495.1983 421.5659,-477.4402"/>
<polygon fill="#444444" fill-opacity="0.333333" stroke="#444444" stroke-opacity="0.333333" points="423.4779,-474.4957 413.4132,-471.1863 419.2174,-480.0498 423.4779,-474.4957"/>
</g>
<!-- ceph&#45;osd&#45;&gt;leveldb -->
<g id="edge48" class="edge">
<title>ceph&#45;osd&#45;&gt;leveldb</title>
<path fill="none" stroke="#444444" stroke-opacity="0.333333" d="M511.0473,-571.027C504.2518,-584.6647 494.8061,-603.6209 487.0763,-619.1335"/>
<polygon fill="#444444" fill-opacity="0.333333" stroke="#444444" stroke-opacity="0.333333" points="483.8515,-617.7576 482.5242,-628.269 490.1168,-620.8796 483.8515,-617.7576"/>
</g>
<!-- python2&#45;pecan&#45;&gt;python2&#45;mako -->
<g id="edge49" class="edge">
<title>python2&#45;pecan&#45;&gt;python2&#45;mako</title>
<path fill="none" stroke="#444444" stroke-opacity="0.333333" d="M1119.7201,-447.1514C1119.8182,-447.1299 1119.9162,-447.1085 1120.0143,-447.0871"/>
<polygon fill="#444444" fill-opacity="0.333333" stroke="#444444" stroke-opacity="0.333333" points="1120.1061,-450.6498 1129.1275,-445.0941 1118.6106,-443.8114 1120.1061,-450.6498"/>
</g>
<!-- python2&#45;pecan&#45;&gt;python2&#45;logutils -->
<g id="edge50" class="edge">
<title>python2&#45;pecan&#45;&gt;python2&#45;logutils</title>
<path fill="none" stroke="#444444" stroke-opacity="0.333333" d="M1038.3899,-446.6253C1037.2806,-421.7915 1035.2775,-376.9495 1033.9683,-347.6421"/>
<polygon fill="#444444" fill-opacity="0.333333" stroke="#444444" stroke-opacity="0.333333" points="1037.4632,-347.4471 1033.5203,-337.6133 1030.4701,-347.7595 1037.4632,-347.4471"/>
</g>
<!-- python2&#45;pecan&#45;&gt;python2&#45;simplegeneric -->
<g id="edge51" class="edge">
<title>python2&#45;pecan&#45;&gt;python2&#45;simplegeneric</title>
<path fill="none" stroke="#444444" stroke-opacity="0.333333" d="M1018.9721,-446.5856C1013.9583,-442.0807 1008.497,-437.1739 1003.1871,-432.403"/>
<polygon fill="#444444" fill-opacity="0.333333" stroke="#444444" stroke-opacity="0.333333" points="1005.3635,-429.6532 995.5857,-425.5733 1000.6851,-434.8602 1005.3635,-429.6532"/>
</g>
<!-- python2&#45;pecan&#45;&gt;python2&#45;singledispatch -->
<g id="edge52" class="edge">
<title>python2&#45;pecan&#45;&gt;python2&#45;singledispatch</title>
<path fill="none" stroke="#444444" stroke-opacity="0.333333" d="M1056.202,-446.6174C1071.2548,-430.5548 1093.3905,-406.934 1110.2555,-388.9376"/>
<polygon fill="#444444" fill-opacity="0.333333" stroke="#444444" stroke-opacity="0.333333" points="1112.8404,-391.2977 1117.1246,-381.6077 1107.7327,-386.5111 1112.8404,-391.2977"/>
</g>
<!-- python2&#45;pecan&#45;&gt;python2&#45;webob -->
<g id="edge53" class="edge">
<title>python2&#45;pecan&#45;&gt;python2&#45;webob</title>
<path fill="none" stroke="#444444" stroke-opacity="0.333333" d="M1067.1521,-483.033C1075.3476,-488.3906 1084.4271,-494.3261 1093.0512,-499.964"/>
<polygon fill="#444444" fill-opacity="0.333333" stroke="#444444" stroke-opacity="0.333333" points="1091.1886,-502.9278 1101.474,-505.4701 1095.0189,-497.0687 1091.1886,-502.9278"/>
</g>
<!-- python2&#45;pecan&#45;&gt;python2&#45;webtest -->
<g id="edge54" class="edge">
<title>python2&#45;pecan&#45;&gt;python2&#45;webtest</title>
<path fill="none" stroke="#444444" stroke-opacity="0.333333" d="M1081.2619,-482.7963C1122.075,-500.2971 1184.0828,-526.8863 1227.7791,-545.6234"/>
<polygon fill="#444444" fill-opacity="0.333333" stroke="#444444" stroke-opacity="0.333333" points="1226.5163,-548.8901 1237.0864,-549.6144 1229.2751,-542.4566 1226.5163,-548.8901"/>
</g>
<!-- python2&#45;flask&#45;&gt;python&#45;werkzeug -->
<g id="edge55" class="edge">
<title>python2&#45;flask&#45;&gt;python&#45;werkzeug</title>
<path fill="none" stroke="#444444" stroke-opacity="0.333333" d="M792.3015,-709.3658C798.2593,-689.3754 807.8928,-657.0525 814.8098,-633.8439"/>
<polygon fill="#444444" fill-opacity="0.333333" stroke="#444444" stroke-opacity="0.333333" points="818.1793,-634.7919 817.6814,-624.2088 811.4709,-632.7925 818.1793,-634.7919"/>
</g>
<!-- python2&#45;flask&#45;&gt;python2&#45;click -->
<g id="edge56" class="edge">
<title>python2&#45;flask&#45;&gt;python2&#45;click</title>
<path fill="none" stroke="#444444" stroke-opacity="0.333333" d="M799.3362,-745.7623C812.9556,-765.6157 834.9098,-797.6187 850.5198,-820.3739"/>
<polygon fill="#444444" fill-opacity="0.333333" stroke="#444444" stroke-opacity="0.333333" points="847.8234,-822.6304 856.3665,-828.8967 853.5957,-818.6706 847.8234,-822.6304"/>
</g>
<!-- python2&#45;flask&#45;&gt;python2&#45;itsdangerous -->
<g id="edge57" class="edge">
<title>python2&#45;flask&#45;&gt;python2&#45;itsdangerous</title>
<path fill="none" stroke="#444444" stroke-opacity="0.333333" d="M767.0887,-745.6061C746.2104,-764.6214 713.1409,-794.7399 689.6862,-816.1017"/>
<polygon fill="#444444" fill-opacity="0.333333" stroke="#444444" stroke-opacity="0.333333" points="687.1686,-813.6605 682.1321,-822.9817 691.8821,-818.8358 687.1686,-813.6605"/>
</g>
<!-- python2&#45;flask&#45;&gt;python2&#45;jinja2 -->
<g id="edge58" class="edge">
<title>python2&#45;flask&#45;&gt;python2&#45;jinja2</title>
<path fill="none" stroke="#444444" stroke-opacity="0.333333" d="M867.5713,-725.255C871.3376,-725.146 875.1332,-725.0362 878.9335,-724.9262"/>
<polygon fill="#444444" fill-opacity="0.333333" stroke="#444444" stroke-opacity="0.333333" points="879.0921,-728.4232 888.9867,-724.6354 878.8896,-721.4261 879.0921,-728.4232"/>
</g>
<!-- python2&#45;mako&#45;&gt;python2&#45;beaker -->
<g id="edge59" class="edge">
<title>python2&#45;mako&#45;&gt;python2&#45;beaker</title>
<path fill="none" stroke="#444444" stroke-opacity="0.333333" d="M1218.8204,-410.2877C1239.5333,-382.8237 1278.8976,-330.6292 1302.7723,-298.9729"/>
<polygon fill="#444444" fill-opacity="0.333333" stroke="#444444" stroke-opacity="0.333333" points="1305.84,-300.7179 1309.067,-290.6265 1300.2512,-296.5029 1305.84,-300.7179"/>
</g>
<!-- python2&#45;mako&#45;&gt;python2&#45;markupsafe -->
<g id="edge60" class="edge">
<title>python2&#45;mako&#45;&gt;python2&#45;markupsafe</title>
<path fill="none" stroke="#444444" stroke-opacity="0.333333" d="M1191.8911,-446.65C1168.343,-479.0424 1119.0228,-546.8865 1091.6826,-584.4952"/>
<polygon fill="#444444" fill-opacity="0.333333" stroke="#444444" stroke-opacity="0.333333" points="1088.6046,-582.7769 1085.5555,-592.9235 1094.2666,-586.893 1088.6046,-582.7769"/>
</g>
<!-- python2&#45;webtest&#45;&gt;python2&#45;webob -->
<g id="edge61" class="edge">
<title>python2&#45;webtest&#45;&gt;python2&#45;webob</title>
<path fill="none" stroke="#444444" stroke-opacity="0.333333" d="M1217.6565,-549.5656C1211.955,-547.8894 1206.1455,-546.1814 1200.3656,-544.4821"/>
<polygon fill="#444444" fill-opacity="0.333333" stroke="#444444" stroke-opacity="0.333333" points="1201.2719,-541.1005 1190.6907,-541.6377 1199.2974,-547.8163 1201.2719,-541.1005"/>
</g>
<!-- python2&#45;webtest&#45;&gt;python2&#45;beautifulsoup4 -->
<g id="edge62" class="edge">
<title>python2&#45;webtest&#45;&gt;python2&#45;beautifulsoup4</title>
<path fill="none" stroke="#444444" stroke-opacity="0.333333" d="M1326.7499,-585.774C1340.9609,-591.1852 1356.6806,-597.1709 1371.4244,-602.785"/>
<polygon fill="#444444" fill-opacity="0.333333" stroke="#444444" stroke-opacity="0.333333" points="1370.3557,-606.1231 1380.9466,-606.4108 1372.8467,-599.5813 1370.3557,-606.1231"/>
</g>
<!-- python2&#45;webtest&#45;&gt;python2&#45;waitress -->
<g id="edge63" class="edge">
<title>python2&#45;webtest&#45;&gt;python2&#45;waitress</title>
<path fill="none" stroke="#444444" stroke-opacity="0.333333" d="M1285.2858,-586.0837C1290.575,-601.8627 1298.2679,-624.8123 1304.3155,-642.8539"/>
<polygon fill="#444444" fill-opacity="0.333333" stroke="#444444" stroke-opacity="0.333333" points="1301.0709,-644.187 1307.5678,-652.5561 1307.708,-641.9622 1301.0709,-644.187"/>
</g>
<!-- python2&#45;jinja2&#45;&gt;python2&#45;markupsafe -->
<g id="edge65" class="edge">
<title>python2&#45;jinja2&#45;&gt;python2&#45;markupsafe</title>
<path fill="none" stroke="#444444" stroke-opacity="0.333333" d="M991.2756,-703.7908C1007.265,-685.5059 1031.9563,-657.2699 1049.9,-636.7501"/>
<polygon fill="#444444" fill-opacity="0.333333" stroke="#444444" stroke-opacity="0.333333" points="1052.7049,-638.8595 1056.6529,-629.0278 1047.4354,-634.2516 1052.7049,-638.8595"/>
</g>
<!-- python2&#45;jinja2&#45;&gt;python2&#45;babel -->
<g id="edge64" class="edge">
<title>python2&#45;jinja2&#45;&gt;python2&#45;babel</title>
<path fill="none" stroke="#444444" stroke-opacity="0.333333" d="M985.6282,-740.5866C995.8066,-758.6432 1011.4263,-786.3529 1022.9977,-806.8807"/>
<polygon fill="#444444" fill-opacity="0.333333" stroke="#444444" stroke-opacity="0.333333" points="1020.0358,-808.754 1027.9953,-815.7466 1026.1337,-805.3166 1020.0358,-808.754"/>
</g>
<!-- python2&#45;beaker&#45;&gt;pycryptopp -->
<g id="edge67" class="edge">
<title>python2&#45;beaker&#45;&gt;pycryptopp</title>
<path fill="none" stroke="#444444" stroke-opacity="0.333333" d="M1355.9703,-254.5466C1371.8329,-245.9629 1390.9959,-235.5933 1407.9171,-226.4368"/>
<polygon fill="#444444" fill-opacity="0.333333" stroke="#444444" stroke-opacity="0.333333" points="1409.9227,-229.3312 1417.0519,-221.4937 1406.5913,-223.1747 1409.9227,-229.3312"/>
</g>
<!-- python2&#45;beaker&#45;&gt;python2&#45;paste -->
<g id="edge68" class="edge">
<title>python2&#45;beaker&#45;&gt;python2&#45;paste</title>
<path fill="none" stroke="#444444" stroke-opacity="0.333333" d="M1322.996,-254.3732C1323.3876,-230.3238 1324.0819,-187.6859 1324.5416,-159.4533"/>
<polygon fill="#444444" fill-opacity="0.333333" stroke="#444444" stroke-opacity="0.333333" points="1328.0418,-159.4627 1324.7052,-149.407 1321.0427,-159.3487 1328.0418,-159.4627"/>
</g>
<!-- python2&#45;beautifulsoup4&#45;&gt;python2&#45;lxml -->
<g id="edge70" class="edge">
<title>python2&#45;beautifulsoup4&#45;&gt;python2&#45;lxml</title>
<path fill="none" stroke="#444444" stroke-opacity="0.333333" d="M1460.5983,-642.6129C1473.7107,-648.2788 1489.477,-654.5335 1505.2542,-660.3898"/>
<polygon fill="#444444" fill-opacity="0.333333" stroke="#444444" stroke-opacity="0.333333" points="1504.4617,-663.8268 1515.0555,-663.9759 1506.867,-657.2529 1504.4617,-663.8268"/>
</g>
<!-- pycryptopp&#45;&gt;cryptopp -->
<g id="edge66" class="edge">
<title>pycryptopp&#45;&gt;cryptopp</title>
<path fill="none" stroke="#444444" stroke-opacity="0.333333" d="M1476.313,-185.325C1487.7019,-177.3457 1501.2586,-167.8476 1513.4705,-159.2917"/>
<polygon fill="#444444" fill-opacity="0.333333" stroke="#444444" stroke-opacity="0.333333" points="1515.4852,-162.1538 1521.6668,-153.5492 1511.4685,-156.4208 1515.4852,-162.1538"/>
</g>
<!-- python2&#45;paste&#45;&gt;python2&#45;tempita -->
<g id="edge69" class="edge">
<title>python2&#45;paste&#45;&gt;python2&#45;tempita</title>
<path fill="none" stroke="#444444" stroke-opacity="0.333333" d="M1326.7031,-113.0964C1328.3875,-95.0918 1330.9898,-67.2771 1332.9456,-46.372"/>
<polygon fill="#444444" fill-opacity="0.333333" stroke="#444444" stroke-opacity="0.333333" points="1336.4543,-46.441 1333.9012,-36.1584 1329.4848,-45.7889 1336.4543,-46.441"/>
</g>
<!-- python2&#45;lxml&#45;&gt;python2&#45;beautifulsoup4 -->
<g id="edge71" class="edge">
<title>python2&#45;lxml&#45;&gt;python2&#45;beautifulsoup4</title>
<path fill="none" stroke="#444444" stroke-opacity="0.333333" d="M1550.3017,-663.9071C1537.1893,-658.2412 1521.423,-651.9865 1505.6458,-646.1302"/>
<polygon fill="#444444" fill-opacity="0.333333" stroke="#444444" stroke-opacity="0.333333" points="1506.4383,-642.6932 1495.8445,-642.5441 1504.033,-649.2671 1506.4383,-642.6932"/>
</g>
<!-- python2&#45;lxml&#45;&gt;python2&#45;html5lib -->
<g id="edge72" class="edge">
<title>python2&#45;lxml&#45;&gt;python2&#45;html5lib</title>
<path fill="none" stroke="#444444" stroke-opacity="0.333333" d="M1603.5309,-700.0685C1618.5011,-712.9016 1638.7983,-730.3012 1655.262,-744.4146"/>
<polygon fill="#444444" fill-opacity="0.333333" stroke="#444444" stroke-opacity="0.333333" points="1653.1259,-747.1935 1662.9961,-751.0446 1657.6818,-741.8789 1653.1259,-747.1935"/>
</g>
<!-- python2&#45;lxml&#45;&gt;python2&#45;cssselect -->
<g id="edge73" class="edge">
<title>python2&#45;lxml&#45;&gt;python2&#45;cssselect</title>
<path fill="none" stroke="#444444" stroke-opacity="0.333333" d="M1605.198,-664.0156C1614.7872,-656.4009 1626.1035,-647.4146 1636.4259,-639.2176"/>
<polygon fill="#444444" fill-opacity="0.333333" stroke="#444444" stroke-opacity="0.333333" points="1638.7847,-641.8139 1644.4393,-632.8542 1634.4315,-636.332 1638.7847,-641.8139"/>
</g>
<!-- python2&#45;html5lib&#45;&gt;python2&#45;webencodings -->
<g id="edge74" class="edge">
<title>python2&#45;html5lib&#45;&gt;python2&#45;webencodings</title>
<path fill="none" stroke="#444444" stroke-opacity="0.333333" d="M1710.0323,-787.1619C1719.7122,-793.8967 1730.8515,-801.6468 1741.1739,-808.8286"/>
<polygon fill="#444444" fill-opacity="0.333333" stroke="#444444" stroke-opacity="0.333333" points="1739.395,-811.8547 1749.6027,-814.6928 1743.3929,-806.1086 1739.395,-811.8547"/>
</g>
<!-- ceph&#45;base -->
<g id="node1" class="node">
<title>ceph&#45;base</title>
<text text-anchor="middle" x="561.85" y="-450.32" font-family="monospace" font-size="14.00" fill="#000000">ceph&#45;base</text>
</g>
<!-- ceph&#45;common -->
<g id="node2" class="node">
<title>ceph&#45;common</title>
<text text-anchor="middle" x="271.47" y="-551.15" font-family="monospace" font-size="14.00" fill="#000000">ceph&#45;common</text>
</g>
<!-- ceph&#45;selinux -->
<g id="node3" class="node">
<title>ceph&#45;selinux</title>
<text text-anchor="middle" x="614.64" y="-307.46" font-family="monospace" font-size="14.00" fill="#000000">ceph&#45;selinux</text>
</g>
<!-- cryptsetup -->
<g id="node4" class="node">
<title>cryptsetup</title>
<text text-anchor="middle" x="647.73" y="-384.36" font-family="monospace" font-size="14.00" fill="#000000">cryptsetup</text>
</g>
<!-- libcephfs2 -->
<g id="node5" class="node">
<title>libcephfs2</title>
<text text-anchor="middle" x="389.88" y="-595.17" font-family="monospace" font-size="14.00" fill="#000000">libcephfs2</text>
</g>
<!-- librados2 -->
<g id="node6" class="node">
<title>librados2</title>
<text text-anchor="middle" x="389.51" y="-449.15" font-family="monospace" font-size="14.00" fill="#000000">librados2</text>
</g>
<!-- librbd1 -->
<g id="node7" class="node">
<title>librbd1</title>
<text text-anchor="middle" x="364.14" y="-377.19" font-family="monospace" font-size="14.00" fill="#000000">librbd1</text>
</g>
<!-- librgw2 -->
<g id="node8" class="node">
<title>librgw2</title>
<text text-anchor="middle" x="470.82" y="-405.14" font-family="monospace" font-size="14.00" fill="#000000">librgw2</text>
</g>
<!-- lttng&#45;ust -->
<g id="node9" class="node">
<title>lttng&#45;ust</title>
<text text-anchor="middle" x="421.55" y="-331.53" font-family="monospace" font-size="14.00" fill="#000000">lttng&#45;ust</text>
</g>
<!-- which -->
<g id="node10" class="node">
<title>which</title>
<text text-anchor="middle" x="493.23" y="-279.32" font-family="monospace" font-size="14.00" fill="#000000">which</text>
</g>
<!-- leveldb -->
<g id="node11" class="node">
<title>leveldb</title>
<text text-anchor="middle" x="473.4" y="-642.88" font-family="monospace" font-size="14.00" fill="#000000">leveldb</text>
</g>
<!-- libradosstriper1 -->
<g id="node12" class="node">
<title>libradosstriper1</title>
<text text-anchor="middle" x="96.841" y="-512.21" font-family="monospace" font-size="14.00" fill="#000000">libradosstriper1</text>
</g>
<!-- python2&#45;prettytable -->
<g id="node13" class="node">
<title>python2&#45;prettytable</title>
<text text-anchor="middle" x="166.79" y="-609.09" font-family="monospace" font-size="14.00" fill="#000000">python2&#45;prettytable</text>
</g>
<!-- python&#45;cephfs -->
<g id="node14" class="node">
<title>python&#45;cephfs</title>
<text text-anchor="middle" x="294.23" y="-653.18" font-family="monospace" font-size="14.00" fill="#000000">python&#45;cephfs</text>
</g>
<!-- python&#45;rados -->
<g id="node15" class="node">
<title>python&#45;rados</title>
<text text-anchor="middle" x="245.88" y="-468.17" font-family="monospace" font-size="14.00" fill="#000000">python&#45;rados</text>
</g>
<!-- python&#45;rbd -->
<g id="node16" class="node">
<title>python&#45;rbd</title>
<text text-anchor="middle" x="239.87" y="-392.38" font-family="monospace" font-size="14.00" fill="#000000">python&#45;rbd</text>
</g>
<!-- python&#45;rgw -->
<g id="node17" class="node">
<title>python&#45;rgw</title>
<text text-anchor="middle" x="393.67" y="-507.06" font-family="monospace" font-size="14.00" fill="#000000">python&#45;rgw</text>
</g>
<!-- ceph -->
<g id="node18" class="node">
<title>ceph</title>
<text text-anchor="middle" x="706.42" y="-547.08" font-family="monospace" font-size="14.00" fill="#000000">ceph</text>
</g>
<!-- ceph&#45;mds -->
<g id="node19" class="node">
<title>ceph&#45;mds</title>
<text text-anchor="middle" x="630.05" y="-503.04" font-family="monospace" font-size="14.00" fill="#000000">ceph&#45;mds</text>
</g>
<!-- ceph&#45;mgr -->
<g id="node20" class="node">
<title>ceph&#45;mgr</title>
<text text-anchor="middle" x="802.6" y="-472.52" font-family="monospace" font-size="14.00" fill="#000000">ceph&#45;mgr</text>
</g>
<!-- ceph&#45;mon -->
<g id="node21" class="node">
<title>ceph&#45;mon</title>
<text text-anchor="middle" x="629.09" y="-622.11" font-family="monospace" font-size="14.00" fill="#000000">ceph&#45;mon</text>
</g>
<!-- ceph&#45;osd -->
<g id="node22" class="node">
<title>ceph&#45;osd</title>
<text text-anchor="middle" x="520.04" y="-549.28" font-family="monospace" font-size="14.00" fill="#000000">ceph&#45;osd</text>
</g>
<!-- python2&#45;cherrypy -->
<g id="node23" class="node">
<title>python2&#45;cherrypy</title>
<text text-anchor="middle" x="828.26" y="-356.98" font-family="monospace" font-size="14.00" fill="#000000">python2&#45;cherrypy</text>
</g>
<!-- python2&#45;pecan -->
<g id="node24" class="node">
<title>python2&#45;pecan</title>
<text text-anchor="middle" x="1039.2" y="-461.06" font-family="monospace" font-size="14.00" fill="#000000">python2&#45;pecan</text>
</g>
<!-- python&#45;werkzeug -->
<g id="node25" class="node">
<title>python&#45;werkzeug</title>
<text text-anchor="middle" x="823.15" y="-602.16" font-family="monospace" font-size="14.00" fill="#000000">python&#45;werkzeug</text>
</g>
<!-- python2&#45;flask -->
<g id="node26" class="node">
<title>python2&#45;flask</title>
<text text-anchor="middle" x="786.87" y="-723.89" font-family="monospace" font-size="14.00" fill="#000000">python2&#45;flask</text>
</g>
<!-- python2&#45;mako -->
<g id="node27" class="node">
<title>python2&#45;mako</title>
<text text-anchor="middle" x="1205.1" y="-424.78" font-family="monospace" font-size="14.00" fill="#000000">python2&#45;mako</text>
</g>
<!-- python2&#45;logutils -->
<g id="node28" class="node">
<title>python2&#45;logutils</title>
<text text-anchor="middle" x="1032.7" y="-315.55" font-family="monospace" font-size="14.00" fill="#000000">python2&#45;logutils</text>
</g>
<!-- python2&#45;simplegeneric -->
<g id="node29" class="node">
<title>python2&#45;simplegeneric</title>
<text text-anchor="middle" x="975.27" y="-403.62" font-family="monospace" font-size="14.00" fill="#000000">python2&#45;simplegeneric</text>
</g>
<!-- python2&#45;singledispatch -->
<g id="node30" class="node">
<title>python2&#45;singledispatch</title>
<text text-anchor="middle" x="1134.3" y="-359.58" font-family="monospace" font-size="14.00" fill="#000000">python2&#45;singledispatch</text>
</g>
<!-- python2&#45;webob -->
<g id="node31" class="node">
<title>python2&#45;webob</title>
<text text-anchor="middle" x="1129.1" y="-519.83" font-family="monospace" font-size="14.00" fill="#000000">python2&#45;webob</text>
</g>
<!-- python2&#45;webtest -->
<g id="node32" class="node">
<title>python2&#45;webtest</title>
<text text-anchor="middle" x="1279.1" y="-563.93" font-family="monospace" font-size="14.00" fill="#000000">python2&#45;webtest</text>
</g>
<!-- python2&#45;click -->
<g id="node33" class="node">
<title>python2&#45;click</title>
<text text-anchor="middle" x="868.95" y="-843.54" font-family="monospace" font-size="14.00" fill="#000000">python2&#45;click</text>
</g>
<!-- python2&#45;itsdangerous -->
<g id="node34" class="node">
<title>python2&#45;itsdangerous</title>
<text text-anchor="middle" x="662.03" y="-837.59" font-family="monospace" font-size="14.00" fill="#000000">python2&#45;itsdangerous</text>
</g>
<!-- python2&#45;jinja2 -->
<g id="node35" class="node">
<title>python2&#45;jinja2</title>
<text text-anchor="middle" x="975.23" y="-718.44" font-family="monospace" font-size="14.00" fill="#000000">python2&#45;jinja2</text>
</g>
<!-- python2&#45;beaker -->
<g id="node36" class="node">
<title>python2&#45;beaker</title>
<text text-anchor="middle" x="1322.7" y="-268.85" font-family="monospace" font-size="14.00" fill="#000000">python2&#45;beaker</text>
</g>
<!-- python2&#45;markupsafe -->
<g id="node37" class="node">
<title>python2&#45;markupsafe</title>
<text text-anchor="middle" x="1072.4" y="-607.32" font-family="monospace" font-size="14.00" fill="#000000">python2&#45;markupsafe</text>
</g>
<!-- python2&#45;beautifulsoup4 -->
<g id="node38" class="node">
<title>python2&#45;beautifulsoup4</title>
<text text-anchor="middle" x="1428.4" y="-620.78" font-family="monospace" font-size="14.00" fill="#000000">python2&#45;beautifulsoup4</text>
</g>
<!-- python2&#45;waitress -->
<g id="node39" class="node">
<title>python2&#45;waitress</title>
<text text-anchor="middle" x="1313.7" y="-667.15" font-family="monospace" font-size="14.00" fill="#000000">python2&#45;waitress</text>
</g>
<!-- python2&#45;babel -->
<g id="node40" class="node">
<title>python2&#45;babel</title>
<text text-anchor="middle" x="1038.2" y="-830.15" font-family="monospace" font-size="14.00" fill="#000000">python2&#45;babel</text>
</g>
<!-- pycryptopp -->
<g id="node41" class="node">
<title>pycryptopp</title>
<text text-anchor="middle" x="1450.6" y="-199.64" font-family="monospace" font-size="14.00" fill="#000000">pycryptopp</text>
</g>
<!-- cryptopp -->
<g id="node42" class="node">
<title>cryptopp</title>
<text text-anchor="middle" x="1547.5" y="-131.75" font-family="monospace" font-size="14.00" fill="#000000">cryptopp</text>
</g>
<!-- python2&#45;paste -->
<g id="node43" class="node">
<title>python2&#45;paste</title>
<text text-anchor="middle" x="1325" y="-127.6" font-family="monospace" font-size="14.00" fill="#000000">python2&#45;paste</text>
</g>
<!-- python2&#45;tempita -->
<g id="node44" class="node">
<title>python2&#45;tempita</title>
<text text-anchor="middle" x="1335.6" y="-14.3" font-family="monospace" font-size="14.00" fill="#000000">python2&#45;tempita</text>
</g>
<!-- python2&#45;lxml -->
<g id="node45" class="node">
<title>python2&#45;lxml</title>
<text text-anchor="middle" x="1582.5" y="-678.34" font-family="monospace" font-size="14.00" fill="#000000">python2&#45;lxml</text>
</g>
<!-- python2&#45;html5lib -->
<g id="node46" class="node">
<title>python2&#45;html5lib</title>
<text text-anchor="middle" x="1684" y="-765.35" font-family="monospace" font-size="14.00" fill="#000000">python2&#45;html5lib</text>
</g>
<!-- python2&#45;cssselect -->
<g id="node47" class="node">
<title>python2&#45;cssselect</title>
<text text-anchor="middle" x="1667.2" y="-611.08" font-family="monospace" font-size="14.00" fill="#000000">python2&#45;cssselect</text>
</g>
<!-- python2&#45;webencodings -->
<g id="node48" class="node">
<title>python2&#45;webencodings</title>
<text text-anchor="middle" x="1775.7" y="-829.15" font-family="monospace" font-size="14.00" fill="#000000">python2&#45;webencodings</text>
</g>
</g>
</svg>
