<?xml version="1.0" encoding="UTF-8" standalone="no"?>
<!DOCTYPE svg PUBLIC "-//W3C//DTD SVG 1.1//EN"
 "http://www.w3.org/Graphics/SVG/1.1/DTD/svg11.dtd">
<!-- Generated by graphviz version 2.40.1 (20161225.0304)
 -->
<!-- Title: G Pages: 1 -->
<svg width="1699pt" height="1306pt"
 viewBox="0.00 0.00 1699.34 1305.92" xmlns="http://www.w3.org/2000/svg" xmlns:xlink="http://www.w3.org/1999/xlink">
<g id="graph0" class="graph" transform="scale(1 1) rotate(0) translate(98.057 1171.103)">
<title>G</title>
<polygon fill="#dae2ff" stroke="transparent" points="-98.057,134.818 -98.057,-1171.103 1601.2842,-1171.103 1601.2842,134.818 -98.057,134.818"/>
<polygon fill="#d8d6da" stroke="#d8d6da" points="1275.7605,-781.9922 1274.7637,-781.2266 1263.8531,-771.4431 1255.6157,-764.6443 1253.2544,-762.8687 1250.8707,-761.2438 1242.9862,-756.4039 1235.3047,-752.2235 1228.3652,-748.9399 1225.2046,-747.6705 1221.3618,-746.3953 1211.8491,-743.8943 1208.123,-743.1776 1207.0243,-743.0427 1196.667,-742.488 1192.8163,-742.5518 1191.8622,-742.6346 1190.3506,-742.6595 1182.9845,-742.2604 1176.8384,-742.361 1175.9796,-742.3149 1173.0679,-741.955 1164.9172,-740.3684 1155.6637,-737.913 1143.2858,-732.883 1147.3104,-787.0397 1141.7289,-788.801 1138.2625,-792.2507 1135.95,-792.2507 1135.4464,-792.0844 1129.4044,-792.0844 1129.1797,-792.0119 1123.8479,-792.0119 1123.7388,-792.0458 1127.655,-867.751 1117.3651,-868.6252 1116.3007,-867.1404 1106.9232,-856.1971 1103.8479,-852.9648 1070.264,-847.5533 1070.264,-847.5533 1103.8479,-852.9648 1106.9232,-856.1971 1116.3007,-867.1404 1117.3651,-868.6252 1127.655,-867.751 1123.7388,-792.0458 1123.8479,-792.0119 1129.1797,-792.0119 1129.4044,-792.0844 1135.4464,-792.0844 1135.95,-792.2507 1138.2625,-792.2507 1141.7289,-788.801 1147.3104,-787.0397 1143.2858,-732.883 1137.1869,-729.9901 1136.6094,-729.6773 1134.4435,-728.3517 1126.5992,-722.9725 1111.7449,-711.7115 1109.1309,-709.5601 1107.1649,-707.8109 1106.2459,-706.8599 1059.106,-665.2437 1055.1588,-649.7286 1049.6996,-630.2156 1035.3669,-625.8339 1023.0445,-622.6182 1010.4365,-619.8924 1006.0045,-619.1326 995.6287,-617.814 984.6235,-616.6602 983.9819,-616.6073 979.04,-608.4783 968.3212,-592.5875 966.0139,-589.3594 945.9942,-562.9437 923.0004,-527.1367 906.1588,-497.4084 885.3492,-464.9238 866.5458,-440.1131 855.8099,-425.0775 836.7275,-393.6682 836.7811,-452.0381 836.4672,-462.0222 830.592,-548.4687 826.2785,-548.4687 826.0579,-548.2012 820.0171,-544.3945 814.2702,-544.3945 807.9297,-548.5353 808.5543,-549.3628 814.2266,-553.1091 814.2266,-553.1091 808.5543,-549.3628 807.9297,-548.5353 814.2702,-544.3945 820.0171,-544.3945 826.0579,-548.2012 826.2785,-548.4687 830.592,-548.4687 836.4672,-462.0222 836.7811,-452.0381 836.7275,-393.6682 818.4438,-359.1971 815.705,-358.5413 804.2595,-355.0312 792.2754,-351.1535 786.9511,-349.252 770.5517,-342.8387 760.8912,-338.8993 711.0497,-317.7494 698.1927,-336.8125 676.9481,-369.2879 664.2038,-390.1638 655.7803,-512.8998 654.491,-543.6865 654.5525,-548.79 651.0215,-600.2396 592.9659,-656.8922 550.1271,-671.3268 524.5795,-680.587 515.3425,-684.6158 503.3472,-690.4463 485.2578,-700.1413 453.5936,-719.4515 467.2932,-772.6827 468.2769,-777.2286 484.1922,-813.8841 625.0808,-792.7865 628.1284,-833.3547 627.9237,-882.692 635.5845,-877.3831 646.6391,-870.3049 649.6348,-868.7082 664.5633,-861.5201 669.4334,-859.4424 666.3428,-787.3461 661.3306,-787.3461 660.351,-788.6119 655.2435,-791.7927 649.285,-791.7927 649.285,-791.7927 655.2435,-791.7927 660.351,-788.6119 661.3306,-787.3461 660.8131,-786.6646 660.8131,-786.6646 661.3306,-787.3461 666.3428,-787.3461 667.0172,-787.123 671.9423,-787.123 671.9851,-787.0842 675.222,-743.7291 677.0446,-744.824 708.1053,-759.9474 713.6569,-763.2863 723.5312,-770.3641 726.2001,-772.5613 732.6829,-778.6253 733.7725,-779.7646 740.1945,-787.26 745.29,-791.6414 745.6198,-761.8686 749.3659,-722.2202 754.0343,-723.6502 760.4814,-721.5098 763.5408,-718.5444 760.6409,-715.8412 760.6409,-715.8412 763.5408,-718.5444 760.4814,-721.5098 754.0343,-723.6502 749.3659,-722.2202 745.6198,-761.8686 745.29,-791.6414 740.1945,-787.26 733.7725,-779.7646 732.6829,-778.6253 726.2001,-772.5613 723.5312,-770.3641 713.6569,-763.2863 708.1053,-759.9474 677.0446,-744.824 675.222,-743.7291 671.9851,-787.0842 671.9423,-787.123 667.0172,-787.123 666.3428,-787.3461 669.4334,-859.4424 664.5633,-861.5201 649.6348,-868.7082 646.6391,-870.3049 635.5845,-877.3831 627.9237,-882.692 628.1284,-833.3547 625.0808,-792.7865 484.1922,-813.8841 501.7891,-856.9567 586.305,-915.9604 586.3758,-916.15 690.8657,-916.15 713.9647,-922.7496 718.8754,-919.6528 722.6288,-951.6783 726.0208,-916.2665 725.5631,-916.1185 721.0443,-916.1185 721.0443,-916.1185 725.5631,-916.1185 726.0208,-916.2665 730.3246,-916.2665 731.0693,-916.0284 736.0848,-916.0284 736.101,-916.0336 742.0537,-916.0336 742.7475,-916.2619 747.7513,-916.2619 747.9171,-916.2083 752.9582,-916.2083 753.829,-915.0768 753.829,-915.0768 752.9582,-916.2083 753.2305,-916.5574 759.515,-920.6802 764.4981,-920.6802 764.4981,-920.6802 759.515,-920.6802 753.2305,-916.5574 752.9582,-916.2083 747.9171,-916.2083 747.7513,-916.2619 742.7475,-916.2619 742.0537,-916.0336 736.101,-916.0336 736.0848,-916.0284 731.0693,-916.0284 730.3246,-916.2665 726.0208,-916.2665 722.6288,-951.6783 718.8754,-919.6528 713.9647,-922.7496 690.8657,-916.15 586.3758,-916.15 613.3235,-1007.9879 614.0219,-1009.4281 645.688,-1039.635 665.8087,-1053.1121 678.1832,-1058.373 689.0419,-1074.0266 745.5961,-1128.2599 757.1131,-1134.9768 804.1394,-1158.3821 820.7318,-1167.103 828.0487,-1166.238 827.3397,-1098.1072 825.1391,-1055.9836 825.1391,-1055.9836 827.3397,-1098.1072 828.0487,-1166.238 837.5168,-1165.7147 849.0235,-1165.3201 854.6024,-1165.2457 870.7928,-1166.0476 871.9631,-1166.13 872.4412,-1165.9534 874.4091,-1165.2723 881.7725,-1162.8956 901.546,-1157.4329 916.2724,-1154.4049 959.44,-1147.561 1014.8427,-1110.8171 1024.8848,-1109.4811 1025.1082,-1072.1501 1022.3423,-979.1566 1021.4991,-977.6544 1019.1,-977.6544 1016.6764,-980.1501 1010.0721,-982.4814 1003.908,-980.3917 1008.8706,-1098.8336 1000.148,-1082.593 1000.148,-1082.593 1008.8706,-1098.8336 1003.908,-980.3917 1010.0721,-982.4814 1016.6764,-980.1501 1019.1,-977.6544 1015.6635,-974.0058 1010.8228,-972.4445 1010.8228,-972.4445 1015.6635,-974.0058 1019.1,-977.6544 1021.4991,-977.6544 1022.3423,-979.1566 1025.1082,-1072.1501 1024.8848,-1109.4811 1118.1626,-1101.7703 1125.4102,-1096.5258 1135.4741,-1093.9702 1151.6958,-1090.5763 1159.9771,-1089.2166 1163.5115,-1088.7157 1164.4823,-1088.5999 1168.1963,-1087.6628 1187.0149,-1083.3577 1228.361,-1074.8927 1248.1044,-1063.8301 1295.0222,-1012.6351 1323.1747,-952.3319 1177.5093,-949.158 1172.1279,-944.0137 1171.9561,-943.9364 1171.4971,-943.5024 1166.0742,-943.5024 1165.8584,-943.7826 1159.6969,-947.8216 1153.9749,-947.8216 1147.4065,-943.3339 1146.9927,-943.4754 1143.1536,-943.4754 1142.1482,-945.1188 1135.6079,-949.8415 1125.3213,-946.802 1080.6138,-950.5471 1081.4304,-955.6057 1028.9773,-972.746 1024.392,-910.0317 1025.712,-909.9424 1035.0996,-909.7639 1035.1733,-878.4664 1035.1733,-878.4664 1035.0996,-909.7639 1025.712,-909.9424 1024.392,-910.0317 1028.9773,-972.746 1081.4304,-955.6057 1080.6138,-950.5471 1125.3213,-946.802 1135.6079,-949.8415 1142.1482,-945.1188 1143.1536,-943.4754 1146.9927,-943.4754 1147.4065,-943.3339 1153.9749,-947.8216 1159.6969,-947.8216 1165.8584,-943.7826 1166.0742,-943.5024 1165.1534,-942.2332 1159.8129,-938.7247 1159.8129,-938.7247 1165.1534,-942.2332 1166.0742,-943.5024 1171.4971,-943.5024 1171.9561,-943.9364 1172.1279,-944.0137 1177.5093,-949.158 1323.1747,-952.3319 1329.734,-939.0208 1329.886,-938.606 1336.9985,-921.378 1303.6454,-880.4008 1293.4707,-817.5877 1290.403,-794.0887 1275.7605,-781.9922 1275.7605,-781.9922"/>
<polygon fill="#bbd7d9" stroke="#bbd7d9" points="95.0898,-208.9595 95.1111,-208.9595 95.1111,-208.9595 95.0898,-208.9595 94.9694,-208.9978 90.4856,-208.9978 89.6541,-208.7335 92.4517,-62.0339 102.1437,-66.7635 116.9757,-73.2182 197.8852,-112.9343 279.5209,-86.7214 281.1868,-86.3614 294.2097,-83.2242 289.9006,-217.083 291.6788,-218.5353 295.4296,-218.5353 296.3487,-218.8421 301.8035,-218.8421 302.0504,-218.9231 306.541,-218.9231 310.1537,-250.0256 314.1058,-222.2205 318.6237,-223.6175 323.5052,-261.7029 325.2202,-301.4182 309.5922,-293.261 299.5955,-289.1225 293.1631,-286.8089 288.6212,-285.4218 288.3307,-285.3487 254.0849,-278.5314 254.0823,-287.3858 257.1001,-338.4326 268.4491,-342.191 323.5842,-343.2746 322.8883,-344.0156 318.028,-348.7293 260.3777,-410.701 260.0411,-410.9934 247.5153,-423.0511 242.7578,-428.4719 319.6868,-421.8625 322.0404,-454.7137 321.1328,-487.213 320.8275,-487.2417 325.7533,-553.4947 401.2086,-524.9969 405.3622,-557.7391 405.8027,-560.3616 481.2403,-538.454 483.5049,-535.3828 483.5049,-535.3828 481.2403,-538.454 405.8027,-560.3616 405.3622,-557.7391 401.2086,-524.9969 325.7533,-553.4947 320.8275,-487.2417 321.1328,-487.213 322.0404,-454.7137 319.6868,-421.8625 242.7578,-428.4719 247.5153,-423.0511 260.0411,-410.9934 260.3777,-410.701 318.028,-348.7293 322.8883,-344.0156 323.5842,-343.2746 324.8587,-342.1498 325.8549,-341.1869 332.5295,-415.9611 337.0467,-415.9611 337.9975,-417.2082 343.0913,-420.4566 343.0913,-420.4566 337.9975,-417.2082 337.0467,-415.9611 337.3392,-415.5905 343.6803,-411.4809 342.1128,-350.6075 349.4724,-358.0972 353.3946,-362.6132 356.9355,-366.1817 356.9835,-366.2235 360.8091,-369.1069 401.5065,-364.6697 403.0842,-396.6378 407.0349,-399.4885 410.0138,-402.0745 413.8873,-359.3968 418.5132,-359.3968 419.807,-358.9765 424.0188,-358.9765 424.6756,-359.1862 430.0761,-359.1862 430.8643,-358.9341 432.5505,-358.9341 436.0957,-355.6274 441.6095,-353.9337 441.6095,-353.9337 436.0957,-355.6274 432.5505,-358.9341 430.8643,-358.9341 430.0761,-359.1862 424.6756,-359.1862 424.0188,-358.9765 419.807,-358.9765 418.5132,-359.3968 413.8873,-359.3968 410.0138,-402.0745 407.0349,-399.4885 403.0842,-396.6378 401.5065,-364.6697 360.8091,-369.1069 356.9835,-366.2235 356.9355,-366.1817 353.3946,-362.6132 349.4724,-358.0972 342.1128,-350.6075 343.6803,-411.4809 337.3392,-415.5905 337.0467,-415.9611 332.5295,-415.9611 325.8549,-341.1869 324.8587,-342.1498 323.5842,-343.2746 268.4491,-342.191 257.1001,-338.4326 254.0823,-287.3858 254.0849,-278.5314 288.3307,-285.3487 288.6212,-285.4218 293.1631,-286.8089 299.5955,-289.1225 309.5922,-293.261 325.2202,-301.4182 323.5052,-261.7029 318.6237,-223.6175 325.1898,-221.4123 327.891,-218.7651 324.84,-215.6884 324.84,-215.6884 327.891,-218.7651 325.1898,-221.4123 318.6237,-223.6175 314.1058,-222.2205 310.1537,-250.0256 306.541,-218.9231 302.0504,-218.9231 301.8035,-218.8421 296.3487,-218.8421 295.4296,-218.5353 291.6788,-218.5353 289.9006,-217.083 294.2097,-83.2242 301.9589,-81.1682 327.1014,-72.0042 329.7464,-71.4512 349.1813,-65.651 350.8424,-65.0439 435.8137,-59.0918 437.3651,-59.987 450.7634,-68.95 507.024,-163.6826 522.4464,-188.5008 693.1565,-266.1036 711.0497,-317.7494 698.1927,-336.8125 676.9481,-369.2879 664.2038,-390.1638 655.7803,-512.8998 654.491,-543.6865 654.5525,-548.79 651.0215,-600.2396 592.9659,-656.8922 550.1271,-671.3268 524.5795,-680.587 515.3425,-684.6158 503.3472,-690.4463 485.2578,-700.1413 453.5936,-719.4515 428.5994,-707.8071 333.31,-709.6765 318.1302,-710.3092 186.0178,-806.9229 173.041,-817.1588 171.2002,-691.4341 173.9584,-643.1757 173.9584,-643.1757 171.2002,-691.4341 173.041,-817.1588 172.2842,-817.799 154.8888,-808.8808 144.5692,-804.0513 124.3154,-796.3469 128.458,-646.4589 133.6444,-648.0052 139.209,-646.2734 144.4552,-723.7759 144.8474,-737.5477 151.481,-643.2367 151.481,-643.2367 144.8474,-737.5477 144.4552,-723.7759 139.209,-646.2734 142.9456,-642.6314 139.6952,-639.6734 133.9524,-637.9116 133.9524,-637.9116 139.6952,-639.6734 142.9456,-642.6314 139.209,-646.2734 133.6444,-648.0052 128.458,-646.4589 124.3154,-796.3469 116.5619,-793.5701 116.7272,-741.123 116.7272,-741.123 116.5619,-793.5701 104.5192,-790.054 96.623,-787.9229 92.9984,-787.025 91.2355,-786.6271 80.648,-784.4701 44.0268,-777.818 -32.0194,-735.9 -43.619,-642.94 -47.7496,-622.2047 -43.5309,-601.0995 56.437,-465.717 84.6915,-476.23 94.2685,-479.4083 109.2963,-483.7926 117.8448,-485.941 133.7452,-489.2972 136.9179,-489.8384 146.1528,-491.2277 157.5163,-492.7077 161.6598,-492.9963 161.7648,-493.1522 178.2375,-516.5809 188.425,-529.6809 184.5909,-637.9973 251.4861,-619.4008 218.034,-567.7675 294.0947,-563.8254 299.5087,-558.0095 299.6942,-558.0095 299.6942,-558.0095 299.5087,-558.0095 294.0947,-563.8254 218.034,-567.7675 251.4861,-619.4008 184.5909,-637.9973 188.425,-529.6809 178.2375,-516.5809 161.7648,-493.1522 161.6598,-492.9963 157.5163,-492.7077 146.1528,-491.2277 136.9179,-489.8384 133.7452,-489.2972 117.8448,-485.941 109.2963,-483.7926 94.2685,-479.4083 84.6915,-476.23 56.437,-465.717 26.693,-402.1276 18.4937,-385.4378 -82.5705,-331.6159 -87.0365,-231.9078 -93.7545,-160.9393 -94.057,-158.386 -84.1597,-145.1278 -5.6184,-63.1008 40.0793,-51.8894 46.7916,-49.9614 60.0027,-45.8889 61.9072,-45.1819 76.1542,-53.6179 72.3264,-204.3753 67.0258,-204.3753 60.7953,-208.5137 60.5144,-208.8852 61.9497,-210.8299 65.9381,-213.2774 65.9381,-213.2774 61.9497,-210.8299 60.5144,-208.8852 60.7953,-208.5137 67.0258,-204.3753 72.3264,-204.3753 76.1542,-53.6179 76.8115,-53.9897 92.4517,-62.0339 89.6541,-208.7335 90.4856,-208.9978 94.9694,-208.9978 95.0898,-208.9595 95.0898,-208.9595"/>
<polygon fill="#fed9a6" stroke="#fed9a6" points="1584.1317,-815.1124 1590.0461,-761.99 1597.2842,-721.8195 1567.7363,-670.4418 1457.7251,-587.5888 1451.5614,-582.775 1442.6901,-575.5997 1437.0099,-570.8496 1424.8674,-560.3618 1424.5393,-560.4106 1421.2378,-560.7999 1372.9119,-544.6638 1359.0865,-540.5535 1353.0112,-538.8596 1347.1332,-537.4367 1346.2122,-537.2307 1342.4949,-536.4666 1325.0677,-533.2014 1316.4402,-531.9022 1305.682,-530.6768 1290.7556,-529.251 1272.9189,-528.5313 1269.3344,-531.1486 1266.4637,-533.3368 1246.947,-546.5367 1246.29,-546.9615 1243.4432,-548.7195 1235.6517,-553.3076 1212.3577,-565.0477 1211.9214,-565.2546 1204.6974,-568.2653 1191.5988,-573.3489 1188.5112,-574.4565 1117.7843,-595.7535 1113.949,-597.1323 1095.767,-604.209 1094.0908,-605.0074 1073.8749,-615.247 1058.5713,-624.3381 1053.6808,-627.3835 1049.6996,-630.2156 1055.1588,-649.7286 1059.106,-665.2437 1106.2459,-706.8599 1107.1649,-707.8109 1109.1309,-709.5601 1111.7449,-711.7115 1126.5992,-722.9725 1134.4435,-728.3517 1136.6094,-729.6773 1137.1869,-729.9901 1143.2858,-732.883 1155.6637,-737.913 1164.9172,-740.3684 1173.0679,-741.955 1175.9796,-742.3149 1176.8384,-742.361 1182.9845,-742.2604 1190.3506,-742.6595 1191.8622,-742.6346 1192.8163,-742.5518 1196.667,-742.488 1207.0243,-743.0427 1208.123,-743.1776 1211.8491,-743.8943 1221.3618,-746.3953 1225.2046,-747.6705 1228.3652,-748.9399 1235.3047,-752.2235 1242.9862,-756.4039 1250.8707,-761.2438 1253.2544,-762.8687 1255.6157,-764.6443 1263.8531,-771.4431 1274.7637,-781.2266 1275.7605,-781.9922 1290.403,-794.0887 1293.4707,-817.5877 1303.6454,-880.4008 1336.9985,-921.378 1384.067,-911.366 1391.396,-909.9647 1401.6285,-908.2285 1407.7426,-907.4547 1408.0256,-907.4249 1420.4652,-906.3841 1428.0197,-905.9145 1448.1764,-905.9611 1451.7196,-906.1216 1476.3378,-907.7665 1520.5403,-886.5452 1584.1317,-815.1124 1584.1317,-815.1124"/>
<polygon fill="#fbb4ae" stroke="#fbb4ae" points="1459.0133,48.2099 1463.2375,48.7917 1472.8767,50.3384 1554.1816,-4.3048 1592.9443,-76.8676 1591.8376,-82.6685 1587.2278,-110.4698 1580.8905,-165.769 1589.0549,-190.8596 1587.875,-198.3418 1470.4856,-220.3585 1462.0074,-217.6138 1456.4739,-221.0404 1455.259,-162.8603 1453.441,-162.726 1452.0151,-162.5432 1447.5045,-162.5084 1444.6444,-223.9713 1440.5248,-223.9713 1439.1735,-224.4035 1433.6652,-224.4035 1433.15,-224.2408 1429.1199,-224.2408 1423.8613,-271.2291 1422.1818,-224.2743 1419.8763,-224.2743 1416.584,-221.0368 1411.3218,-219.3632 1411.3218,-219.3632 1416.584,-221.0368 1419.8763,-224.2743 1416.3521,-227.6889 1411.6594,-229.1218 1405.4136,-227.071 1402.2493,-224.0035 1399.9966,-224.0035 1399.9334,-224.0235 1394.1344,-224.0235 1393.7565,-224.1427 1388.752,-224.1427 1388.1824,-224.3199 1384.2024,-224.3199 1383.8182,-224.1969 1380.0613,-184.7439 1376.5708,-223.9874 1371.686,-223.9874 1371.7236,-146.6692 1362.8087,-141.4808 1358.251,-138.3392 1355.9358,-125.9745 1354.287,-114.689 1276.5229,-129.849 1271.8197,-135.4138 1270.901,-135.4138 1270.6296,-135.5016 1264.717,-135.5016 1264.0453,-135.2839 1259.495,-135.2839 1259.495,-135.2839 1264.0453,-135.2839 1264.717,-135.5016 1270.6296,-135.5016 1270.901,-135.4138 1271.8197,-135.4138 1276.5229,-129.849 1354.287,-114.689 1355.9358,-125.9745 1358.251,-138.3392 1337.1771,-159.1813 1289.6995,-211.3749 1289.9508,-218.674 1256.2788,-222.2871 1219.2941,-222.9215 1213.3447,-228.7243 1213.1401,-228.7243 1212.4238,-228.9548 1208.3063,-228.9548 1208.0548,-228.8753 1202.0802,-228.8753 1201.6221,-229.0231 1196.3055,-229.0231 1196.001,-228.9248 1189.8035,-228.9248 1189.4119,-228.8004 1185.8469,-228.8004 1178.681,-184.2549 1177.5881,-170.4378 1177.5844,-170.2518 1166.5175,-162.8599 1156.9894,-155.766 1155.2682,-154.359 1155.3019,-224.0237 1149.0439,-226.1126 1146.2234,-228.81 1149.4579,-231.9445 1149.4579,-231.9445 1146.2234,-228.81 1149.0439,-226.1126 1155.3019,-224.0237 1155.2682,-154.359 1156.9894,-155.766 1166.5175,-162.8599 1177.5844,-170.2518 1177.5881,-170.4378 1178.681,-184.2549 1185.8469,-228.8004 1189.4119,-228.8004 1189.8035,-228.9248 1196.001,-228.9248 1196.3055,-229.0231 1201.6221,-229.0231 1202.0802,-228.8753 1208.0548,-228.8753 1208.3063,-228.9548 1212.4238,-228.9548 1213.1401,-228.7243 1213.3447,-228.7243 1219.2941,-222.9215 1256.2788,-222.2871 1289.9508,-218.674 1289.6995,-211.3749 1337.1771,-159.1813 1358.251,-138.3392 1362.8087,-141.4808 1362.9144,-160.2394 1362.9144,-160.2394 1362.8087,-141.4808 1371.7236,-146.6692 1371.686,-223.9874 1376.5708,-223.9874 1380.0613,-184.7439 1383.8182,-224.1969 1384.2024,-224.3199 1388.1824,-224.3199 1388.752,-224.1427 1393.7565,-224.1427 1394.1344,-224.0235 1399.9334,-224.0235 1399.9966,-224.0035 1402.2493,-224.0035 1405.4136,-227.071 1411.6594,-229.1218 1416.3521,-227.6889 1419.8763,-224.2743 1422.1818,-224.2743 1423.8613,-271.2291 1429.1199,-224.2408 1433.15,-224.2408 1433.6652,-224.4035 1439.1735,-224.4035 1440.5248,-223.9713 1444.6444,-223.9713 1447.5045,-162.5084 1452.0151,-162.5432 1453.441,-162.726 1455.259,-162.8603 1456.4739,-221.0404 1462.0074,-217.6138 1470.4856,-220.3585 1587.875,-198.3418 1579.8444,-272.9342 1579.0101,-283.2221 1516.7347,-362.8391 1516.3401,-370.5747 1515.9252,-384.6783 1446.0914,-529.9774 1424.8674,-560.3618 1424.5393,-560.4106 1421.2378,-560.7999 1372.9119,-544.6638 1359.0865,-540.5535 1353.0112,-538.8596 1347.1332,-537.4367 1346.2122,-537.2307 1339.9443,-366.0152 1340.8635,-364.841 1340.6549,-364.5738 1338.5973,-323.4282 1339.7249,-293.3261 1325.665,-290.3512 1319.6829,-288.53 1319.6829,-288.53 1325.665,-290.3512 1339.7249,-293.3261 1338.5973,-323.4282 1340.6549,-364.5738 1334.0065,-360.176 1329.1851,-360.176 1329.1851,-360.176 1334.0065,-360.176 1340.6549,-364.5738 1340.8635,-364.841 1339.9443,-366.0152 1346.2122,-537.2307 1342.4949,-536.4666 1325.0677,-533.2014 1316.4402,-531.9022 1305.682,-530.6768 1290.7556,-529.251 1272.9189,-528.5313 1269.3344,-531.1486 1266.4637,-533.3368 1246.947,-546.5367 1246.29,-546.9615 1243.4432,-548.7195 1235.6517,-553.3076 1212.3577,-565.0477 1211.9214,-565.2546 1204.6974,-568.2653 1191.5988,-573.3489 1188.5112,-574.4565 1117.7843,-595.7535 1113.949,-597.1323 1095.767,-604.209 1096.2958,-565.8685 1095.4188,-526.8536 1097.8071,-477.4952 1097.8071,-477.4952 1095.4188,-526.8536 1096.2958,-565.8685 1095.767,-604.209 1094.0908,-605.0074 1085.2606,-477.9096 1081.1343,-477.9096 1080.2395,-477.6137 1074.5774,-477.6137 1074.3588,-477.5405 1074.3588,-477.5405 1074.5774,-477.6137 1080.2395,-477.6137 1081.1343,-477.9096 1085.2606,-477.9096 1094.0908,-605.0074 1073.8749,-615.247 1058.5713,-624.3381 1053.6808,-627.3835 1049.6996,-630.2156 1035.3669,-625.8339 1023.0445,-622.6182 1010.4365,-619.8924 1006.0045,-619.1326 995.6287,-617.814 984.6235,-616.6602 988.2434,-477.7929 993.6418,-477.7929 994.2438,-477.5987 998.9033,-477.5987 1004.2228,-553.5197 1005.4202,-477.5285 1010.5176,-477.5285 1011.1251,-477.3266 1011.1251,-477.3266 1010.5176,-477.5285 1005.4202,-477.5285 1004.2228,-553.5197 998.9033,-477.5987 994.2438,-477.5987 993.6418,-477.7929 988.2434,-477.7929 984.6235,-616.6602 983.9819,-616.6073 979.04,-608.4783 968.3212,-592.5875 966.0139,-589.3594 945.9942,-562.9437 923.0004,-527.1367 906.1588,-497.4084 885.3492,-464.9238 866.5458,-440.1131 855.8099,-425.0775 836.7275,-393.6682 818.4438,-359.1971 815.705,-358.5413 804.2595,-355.0312 792.2754,-351.1535 786.9511,-349.252 770.5517,-342.8387 760.8912,-338.8993 711.0497,-317.7494 693.1565,-266.1036 704.7628,-243.5688 739.8244,-172.9545 760.7001,-126.8606 761.4122,-47.344 760.6455,-33.2446 822.967,69.6873 858.3539,86.7554 907.8831,93.6715 908.7283,-.8986 908.7283,-.8986 907.8831,93.6715 913.8757,94.7701 919.6757,94.2601 920.059,13.7406 917.0599,-47.2381 918.3121,-47.6356 921.7759,-47.6356 928.184,-89.1062 928.9268,-99.8877 935.4584,-47.5327 939.4877,-47.5327 940.3605,-47.2598 945.0475,-47.2598 945.1581,-47.2946 950.6006,-47.2946 951.1982,-48.0631 951.1982,-48.0631 950.6006,-47.2946 945.1581,-47.2946 945.0475,-47.2598 940.3605,-47.2598 939.4877,-47.5327 935.4584,-47.5327 928.9268,-99.8877 928.184,-89.1062 921.7759,-47.6356 918.3121,-47.6356 917.0599,-47.2381 920.059,13.7406 919.6757,94.2601 933.8674,93.6167 934.4481,93.6151 944.368,93.7997 946.6292,93.4126 953.6973,92.5115 967.8087,91.0206 969.66,90.9063 986.4109,90.2375 998.2928,90.5437 998.8859,-15.2754 1002.96,-47.3233 1003.1669,-47.3884 1006.1696,-47.3884 1006.5989,-46.6732 1006.5989,-46.6732 1006.1696,-47.3884 1003.1669,-47.3884 1002.96,-47.3233 998.8859,-15.2754 998.2928,90.5437 1013.8336,91.6247 1030.6807,93.532 1094.995,129.7198 1120.8567,129.265 1140.2665,130.1445 1147.9899,130.818 1150.5028,129.6005 1152.4208,128.7684 1158.7667,-17.3781 1152.817,-13.5893 1152.817,-13.5893 1158.7667,-17.3781 1152.4208,128.7684 1164.3552,123.8868 1174.6748,119.9267 1185.541,116.3089 1312.0717,77.4091 1339.2638,43.8145 1422.7676,45.8323 1444.3005,46.8435 1458.713,48.1754 1459.0133,48.2099 1459.0133,48.2099"/>
<polyline fill="none" stroke="#000000" points="945.9942,-562.9437 923.0004,-527.1367 906.1588,-497.4084 885.3492,-464.9238 866.5458,-440.1131 855.8099,-425.0775 836.7275,-393.6682 818.4438,-359.1971 815.705,-358.5413 804.2595,-355.0312 792.2754,-351.1535 786.9511,-349.252 770.5517,-342.8387 760.8912,-338.8993 711.0497,-317.7494 698.1927,-336.8125 676.9481,-369.2879 664.2038,-390.1638 655.7803,-512.8998 654.491,-543.6865 654.5525,-548.79 651.0215,-600.2396 592.9659,-656.8922 550.1271,-671.3268 524.5795,-680.587 515.3425,-684.6158 503.3472,-690.4463 485.2578,-700.1413 453.5936,-719.4515 467.2932,-772.6827 468.2769,-777.2286 484.1922,-813.8841 501.7891,-856.9567 586.305,-915.9604 586.3758,-916.15 613.3235,-1007.9879 614.0219,-1009.4281 645.688,-1039.635 665.8087,-1053.1121 678.1832,-1058.373 689.0419,-1074.0266 745.5961,-1128.2599 757.1131,-1134.9768 804.1394,-1158.3821 820.7318,-1167.103 828.0487,-1166.238 837.5168,-1165.7147 849.0235,-1165.3201 854.6024,-1165.2457 870.7928,-1166.0476 871.9631,-1166.13 872.4412,-1165.9534 874.4091,-1165.2723 881.7725,-1162.8956 901.546,-1157.4329 916.2724,-1154.4049 959.44,-1147.561 1014.8427,-1110.8171 1024.8848,-1109.4811 1118.1626,-1101.7703 1125.4102,-1096.5258 1135.4741,-1093.9702 1151.6958,-1090.5763 1159.9771,-1089.2166 1163.5115,-1088.7157 1164.4823,-1088.5999 1168.1963,-1087.6628 1187.0149,-1083.3577 1228.361,-1074.8927 1248.1044,-1063.8301 1295.0222,-1012.6351 1323.1747,-952.3319 1329.734,-939.0208 1329.886,-938.606 1336.9985,-921.378 1303.6454,-880.4008 1293.4707,-817.5877 1290.403,-794.0887 1275.7605,-781.9922 1274.7637,-781.2266 1263.8531,-771.4431 1255.6157,-764.6443 1253.2544,-762.8687 1250.8707,-761.2438 1242.9862,-756.4039 1235.3047,-752.2235 1228.3652,-748.9399 1225.2046,-747.6705 1221.3618,-746.3953 1211.8491,-743.8943 1208.123,-743.1776 1207.0243,-743.0427 1196.667,-742.488 1192.8163,-742.5518 1191.8622,-742.6346 1190.3506,-742.6595 1182.9845,-742.2604 1176.8384,-742.361 1175.9796,-742.3149 1173.0679,-741.955 1164.9172,-740.3684 1155.6637,-737.913 1143.2858,-732.883 1137.1869,-729.9901 1136.6094,-729.6773 1134.4435,-728.3517 1126.5992,-722.9725 1111.7449,-711.7115 1109.1309,-709.5601 1107.1649,-707.8109 1106.2459,-706.8599 1059.106,-665.2437 1055.1588,-649.7286 1049.6996,-630.2156 1035.3669,-625.8339 1023.0445,-622.6182 1010.4365,-619.8924 1006.0045,-619.1326 995.6287,-617.814 984.6235,-616.6602 983.9819,-616.6073 979.04,-608.4783 968.3212,-592.5875 966.0139,-589.3594 945.9942,-562.9437 "/>
<polyline fill="none" stroke="#000000" points="515.3425,-684.6158 524.5795,-680.587 550.1271,-671.3268 592.9659,-656.8922 651.0215,-600.2396 654.5525,-548.79 654.491,-543.6865 655.7803,-512.8998 664.2038,-390.1638 676.9481,-369.2879 698.1927,-336.8125 711.0497,-317.7494 693.1565,-266.1036 522.4464,-188.5008 507.024,-163.6826 450.7634,-68.95 437.3651,-59.987 435.8137,-59.0918 350.8424,-65.0439 349.1813,-65.651 329.7464,-71.4512 327.1014,-72.0042 301.9589,-81.1682 294.2097,-83.2242 281.1868,-86.3614 279.5209,-86.7214 197.8852,-112.9343 116.9757,-73.2182 102.1437,-66.7635 92.4517,-62.0339 76.8115,-53.9897 76.1542,-53.6179 61.9072,-45.1819 60.0027,-45.8889 46.7916,-49.9614 40.0793,-51.8894 -5.6184,-63.1008 -84.1597,-145.1278 -94.057,-158.386 -93.7545,-160.9393 -87.0365,-231.9078 -82.5705,-331.6159 18.4937,-385.4378 26.693,-402.1276 56.437,-465.717 -43.5309,-601.0995 -47.7496,-622.2047 -43.619,-642.94 -32.0194,-735.9 44.0268,-777.818 80.648,-784.4701 91.2355,-786.6271 92.9984,-787.025 96.623,-787.9229 104.5192,-790.054 116.5619,-793.5701 124.3154,-796.3469 144.5692,-804.0513 154.8888,-808.8808 172.2842,-817.799 173.041,-817.1588 186.0178,-806.9229 318.1302,-710.3092 333.31,-709.6765 428.5994,-707.8071 453.5936,-719.4515 485.2578,-700.1413 503.3472,-690.4463 515.3425,-684.6158 "/>
<polyline fill="none" stroke="#000000" points="1211.8491,-743.8943 1208.123,-743.1776 1207.0243,-743.0427 1196.667,-742.488 1192.8163,-742.5518 1191.8622,-742.6346 1190.3506,-742.6595 1182.9845,-742.2604 1176.8384,-742.361 1175.9796,-742.3149 1173.0679,-741.955 1164.9172,-740.3684 1155.6637,-737.913 1143.2858,-732.883 1137.1869,-729.9901 1136.6094,-729.6773 1134.4435,-728.3517 1126.5992,-722.9725 1111.7449,-711.7115 1109.1309,-709.5601 1107.1649,-707.8109 1106.2459,-706.8599 1059.106,-665.2437 1055.1588,-649.7286 1049.6996,-630.2156 1053.6808,-627.3835 1058.5713,-624.3381 1073.8749,-615.247 1094.0908,-605.0074 1095.767,-604.209 1113.949,-597.1323 1117.7843,-595.7535 1188.5112,-574.4565 1191.5988,-573.3489 1204.6974,-568.2653 1211.9214,-565.2546 1212.3577,-565.0477 1235.6517,-553.3076 1243.4432,-548.7195 1246.29,-546.9615 1246.947,-546.5367 1266.4637,-533.3368 1269.3344,-531.1486 1272.9189,-528.5313 1290.7556,-529.251 1305.682,-530.6768 1316.4402,-531.9022 1325.0677,-533.2014 1342.4949,-536.4666 1346.2122,-537.2307 1347.1332,-537.4367 1353.0112,-538.8596 1359.0865,-540.5535 1372.9119,-544.6638 1421.2378,-560.7999 1424.5393,-560.4106 1424.8674,-560.3618 1437.0099,-570.8496 1442.6901,-575.5997 1451.5614,-582.775 1457.7251,-587.5888 1567.7363,-670.4418 1597.2842,-721.8195 1590.0461,-761.99 1584.1317,-815.1124 1520.5403,-886.5452 1476.3378,-907.7665 1451.7196,-906.1216 1448.1764,-905.9611 1428.0197,-905.9145 1420.4652,-906.3841 1408.0256,-907.4249 1407.7426,-907.4547 1401.6285,-908.2285 1391.396,-909.9647 1384.067,-911.366 1336.9985,-921.378 1303.6454,-880.4008 1293.4707,-817.5877 1290.403,-794.0887 1275.7605,-781.9922 1274.7637,-781.2266 1263.8531,-771.4431 1255.6157,-764.6443 1253.2544,-762.8687 1250.8707,-761.2438 1242.9862,-756.4039 1235.3047,-752.2235 1228.3652,-748.9399 1225.2046,-747.6705 1221.3618,-746.3953 1211.8491,-743.8943 "/>
<polyline fill="none" stroke="#000000" points="1023.0445,-622.6182 1010.4365,-619.8924 1006.0045,-619.1326 995.6287,-617.814 984.6235,-616.6602 983.9819,-616.6073 979.04,-608.4783 968.3212,-592.5875 966.0139,-589.3594 945.9942,-562.9437 923.0004,-527.1367 906.1588,-497.4084 885.3492,-464.9238 866.5458,-440.1131 855.8099,-425.0775 836.7275,-393.6682 818.4438,-359.1971 815.705,-358.5413 804.2595,-355.0312 792.2754,-351.1535 786.9511,-349.252 770.5517,-342.8387 760.8912,-338.8993 711.0497,-317.7494 693.1565,-266.1036 704.7628,-243.5688 739.8244,-172.9545 760.7001,-126.8606 761.4122,-47.344 760.6455,-33.2446 822.967,69.6873 858.3539,86.7554 907.8831,93.6715 913.8757,94.7701 919.6757,94.2601 933.8674,93.6167 934.4481,93.6151 944.368,93.7997 946.6292,93.4126 953.6973,92.5115 967.8087,91.0206 969.66,90.9063 986.4109,90.2375 998.2928,90.5437 1013.8336,91.6247 1030.6807,93.532 1094.995,129.7198 1120.8567,129.265 1140.2665,130.1445 1147.9899,130.818 1150.5028,129.6005 1152.4208,128.7684 1164.3552,123.8868 1174.6748,119.9267 1185.541,116.3089 1312.0717,77.4091 1339.2638,43.8145 1422.7676,45.8323 1444.3005,46.8435 1458.713,48.1754 1459.0133,48.2099 1463.2375,48.7917 1472.8767,50.3384 1554.1816,-4.3048 1592.9443,-76.8676 1591.8376,-82.6685 1587.2278,-110.4698 1580.8905,-165.769 1589.0549,-190.8596 1587.875,-198.3418 1579.8444,-272.9342 1579.0101,-283.2221 1516.7347,-362.8391 1516.3401,-370.5747 1515.9252,-384.6783 1446.0914,-529.9774 1424.8674,-560.3618 1424.5393,-560.4106 1421.2378,-560.7999 1372.9119,-544.6638 1359.0865,-540.5535 1353.0112,-538.8596 1347.1332,-537.4367 1346.2122,-537.2307 1342.4949,-536.4666 1325.0677,-533.2014 1316.4402,-531.9022 1305.682,-530.6768 1290.7556,-529.251 1272.9189,-528.5313 1269.3344,-531.1486 1266.4637,-533.3368 1246.947,-546.5367 1246.29,-546.9615 1243.4432,-548.7195 1235.6517,-553.3076 1212.3577,-565.0477 1211.9214,-565.2546 1204.6974,-568.2653 1191.5988,-573.3489 1188.5112,-574.4565 1117.7843,-595.7535 1113.949,-597.1323 1095.767,-604.209 1094.0908,-605.0074 1073.8749,-615.247 1058.5713,-624.3381 1053.6808,-627.3835 1049.6996,-630.2156 1035.3669,-625.8339 1023.0445,-622.6182 "/>
<!-- 389&#45;ds&#45;base&#45;&gt;389&#45;ds&#45;base&#45;libs -->
<g id="edge1" class="edge">
<title>389&#45;ds&#45;base&#45;&gt;389&#45;ds&#45;base&#45;libs</title>
<path fill="none" stroke="#444444" stroke-opacity="0.333333" d="M998.6032,-766.1871C1011.7362,-768.4803 1025.7518,-770.9277 1039.7299,-773.3686"/>
<polygon fill="#444444" fill-opacity="0.333333" stroke="#444444" stroke-opacity="0.333333" points="1039.4353,-776.87 1049.8884,-775.1424 1040.6395,-769.9744 1039.4353,-776.87"/>
</g>
<!-- 389&#45;ds&#45;base&#45;&gt;bind&#45;utils -->
<g id="edge2" class="edge">
<title>389&#45;ds&#45;base&#45;&gt;bind&#45;utils</title>
<path fill="none" stroke="#444444" stroke-opacity="0.333333" d="M894.8096,-735.9906C819.1127,-696.0765 637.6228,-600.3787 554.1259,-556.3517"/>
<polygon fill="#444444" fill-opacity="0.333333" stroke="#444444" stroke-opacity="0.333333" points="555.6377,-553.1921 545.1596,-551.6238 552.3727,-559.384 555.6377,-553.1921"/>
</g>
<!-- 389&#45;ds&#45;base&#45;&gt;cyrus&#45;sasl&#45;gssapi -->
<g id="edge3" class="edge">
<title>389&#45;ds&#45;base&#45;&gt;cyrus&#45;sasl&#45;gssapi</title>
<path fill="none" stroke="#444444" stroke-opacity="0.333333" d="M910.2065,-772.321C880.3069,-801.3433 821.9053,-858.0314 788.0355,-890.9075"/>
<polygon fill="#444444" fill-opacity="0.333333" stroke="#444444" stroke-opacity="0.333333" points="785.5325,-888.4593 780.7947,-897.9359 790.408,-893.4823 785.5325,-888.4593"/>
</g>
<!-- 389&#45;ds&#45;base&#45;&gt;cyrus&#45;sasl&#45;md5 -->
<g id="edge4" class="edge">
<title>389&#45;ds&#45;base&#45;&gt;cyrus&#45;sasl&#45;md5</title>
<path fill="none" stroke="#444444" stroke-opacity="0.333333" d="M945.7114,-772.2301C957.3626,-784.9429 973.0845,-802.097 986.0043,-816.1938"/>
<polygon fill="#444444" fill-opacity="0.333333" stroke="#444444" stroke-opacity="0.333333" points="983.5131,-818.6558 992.85,-823.6632 988.6736,-813.9262 983.5131,-818.6558"/>
</g>
<!-- 389&#45;ds&#45;base&#45;&gt;libicu -->
<g id="edge5" class="edge">
<title>389&#45;ds&#45;base&#45;&gt;libicu</title>
<path fill="none" stroke="#444444" stroke-opacity="0.333333" d="M935.6898,-772.3283C949.9213,-811.4673 983.4012,-903.5432 1000.2469,-949.8721"/>
<polygon fill="#444444" fill-opacity="0.333333" stroke="#444444" stroke-opacity="0.333333" points="996.9656,-951.0905 1003.6722,-959.2924 1003.5442,-948.6984 996.9656,-951.0905"/>
</g>
<!-- 389&#45;ds&#45;base&#45;&gt;libsemanage&#45;python -->
<g id="edge6" class="edge">
<title>389&#45;ds&#45;base&#45;&gt;libsemanage&#45;python</title>
<path fill="none" stroke="#444444" stroke-opacity="0.333333" d="M924.7173,-772.4236C913.8979,-818.4369 885.5963,-938.7985 872.7103,-993.6001"/>
<polygon fill="#444444" fill-opacity="0.333333" stroke="#444444" stroke-opacity="0.333333" points="869.3017,-992.8057 870.4198,-1003.3414 876.1159,-994.4081 869.3017,-992.8057"/>
</g>
<!-- 389&#45;ds&#45;base&#45;&gt;svrcore -->
<g id="edge7" class="edge">
<title>389&#45;ds&#45;base&#45;&gt;svrcore</title>
<path fill="none" stroke="#444444" stroke-opacity="0.333333" d="M950.869,-772.1803C991.9194,-806.294 1080.6494,-880.0305 1127.0555,-918.5948"/>
<polygon fill="#444444" fill-opacity="0.333333" stroke="#444444" stroke-opacity="0.333333" points="1125.0091,-921.4451 1134.9371,-925.1446 1129.4831,-916.0614 1125.0091,-921.4451"/>
</g>
<!-- 389&#45;ds&#45;base&#45;&gt;nss&#45;tools -->
<g id="edge8" class="edge">
<title>389&#45;ds&#45;base&#45;&gt;nss&#45;tools</title>
<path fill="none" stroke="#444444" stroke-opacity="0.333333" d="M859.4736,-762.3799C817.2636,-767.4403 763.5849,-773.8755 721.395,-778.9334"/>
<polygon fill="#444444" fill-opacity="0.333333" stroke="#444444" stroke-opacity="0.333333" points="720.7185,-775.4894 711.2063,-780.1549 721.5518,-782.4396 720.7185,-775.4894"/>
</g>
<!-- 389&#45;ds&#45;base&#45;&gt;openldap&#45;clients -->
<g id="edge9" class="edge">
<title>389&#45;ds&#45;base&#45;&gt;openldap&#45;clients</title>
<path fill="none" stroke="#444444" stroke-opacity="0.333333" d="M859.3207,-739.9283C857.3627,-739.532 855.3925,-739.1332 853.4141,-738.7328"/>
<polygon fill="#444444" fill-opacity="0.333333" stroke="#444444" stroke-opacity="0.333333" points="853.9695,-735.2743 843.4739,-736.7208 852.5807,-742.1352 853.9695,-735.2743"/>
</g>
<!-- 389&#45;ds&#45;base&#45;&gt;perl&#45;Mozilla&#45;LDAP -->
<g id="edge10" class="edge">
<title>389&#45;ds&#45;base&#45;&gt;perl&#45;Mozilla&#45;LDAP</title>
<path fill="none" stroke="#444444" stroke-opacity="0.333333" d="M919.099,-735.8254C899.3359,-699.6144 855.0203,-618.4164 831.8205,-575.9083"/>
<polygon fill="#444444" fill-opacity="0.333333" stroke="#444444" stroke-opacity="0.333333" points="834.8017,-574.0648 826.9387,-566.9637 828.6573,-577.4183 834.8017,-574.0648"/>
</g>
<!-- 389&#45;ds&#45;base&#45;&gt;perl&#45;NetAddr&#45;IP -->
<g id="edge11" class="edge">
<title>389&#45;ds&#45;base&#45;&gt;perl&#45;NetAddr&#45;IP</title>
<path fill="none" stroke="#444444" stroke-opacity="0.333333" d="M998.8022,-739.7592C1037.8856,-731.7586 1087.2508,-721.6532 1130.1663,-712.8681"/>
<polygon fill="#444444" fill-opacity="0.333333" stroke="#444444" stroke-opacity="0.333333" points="1130.9747,-716.2753 1140.0696,-710.8409 1129.5709,-709.4175 1130.9747,-716.2753"/>
</g>
<!-- 389&#45;ds&#45;base&#45;&gt;policycoreutils&#45;python&#45;utils -->
<g id="edge12" class="edge">
<title>389&#45;ds&#45;base&#45;&gt;policycoreutils&#45;python&#45;utils</title>
<path fill="none" stroke="#444444" stroke-opacity="0.333333" d="M936.4976,-735.8954C955.9256,-688.6262 1008.1929,-561.4573 1031.3685,-505.07"/>
<polygon fill="#444444" fill-opacity="0.333333" stroke="#444444" stroke-opacity="0.333333" points="1034.6507,-506.2912 1035.215,-495.7114 1028.1762,-503.6301 1034.6507,-506.2912"/>
</g>
<!-- 389&#45;ds&#45;base&#45;libs&#45;&gt;svrcore -->
<g id="edge13" class="edge">
<title>389&#45;ds&#45;base&#45;libs&#45;&gt;svrcore</title>
<path fill="none" stroke="#444444" stroke-opacity="0.333333" d="M1148.17,-810.3298C1149.8378,-836.314 1152.9139,-884.2406 1154.8806,-914.8823"/>
<polygon fill="#444444" fill-opacity="0.333333" stroke="#444444" stroke-opacity="0.333333" points="1151.3924,-915.1803 1155.5258,-924.9355 1158.378,-914.7319 1151.3924,-915.1803"/>
</g>
<!-- bind&#45;utils&#45;&gt;bind&#45;libs -->
<g id="edge14" class="edge">
<title>bind&#45;utils&#45;&gt;bind&#45;libs</title>
<path fill="none" stroke="#444444" stroke-opacity="0.333333" d="M485.449,-515.3997C457.2393,-495.2409 411.4834,-462.5434 380.2481,-440.2223"/>
<polygon fill="#444444" fill-opacity="0.333333" stroke="#444444" stroke-opacity="0.333333" points="382.0208,-437.1874 371.8498,-434.2208 377.9509,-442.8826 382.0208,-437.1874"/>
</g>
<!-- bind&#45;utils&#45;&gt;bind&#45;libs&#45;lite -->
<g id="edge15" class="edge">
<title>bind&#45;utils&#45;&gt;bind&#45;libs&#45;lite</title>
<path fill="none" stroke="#444444" stroke-opacity="0.333333" d="M503.6205,-515.4647C491.526,-484.9035 466.9131,-422.7102 452.6299,-386.6183"/>
<polygon fill="#444444" fill-opacity="0.333333" stroke="#444444" stroke-opacity="0.333333" points="455.8284,-385.189 448.8942,-377.1786 449.3196,-387.7649 455.8284,-385.189"/>
</g>
<!-- bind&#45;utils&#45;&gt;GeoIP -->
<g id="edge16" class="edge">
<title>bind&#45;utils&#45;&gt;GeoIP</title>
<path fill="none" stroke="#444444" stroke-opacity="0.333333" d="M446.0395,-541.3733C417.2634,-544.8833 383.9839,-548.9427 357.5117,-552.1717"/>
<polygon fill="#444444" fill-opacity="0.333333" stroke="#444444" stroke-opacity="0.333333" points="356.8587,-548.7253 347.3561,-553.4105 357.7063,-555.6738 356.8587,-548.7253"/>
</g>
<!-- bind&#45;utils&#45;&gt;python3&#45;bind -->
<g id="edge17" class="edge">
<title>bind&#45;utils&#45;&gt;python3&#45;bind</title>
<path fill="none" stroke="#444444" stroke-opacity="0.333333" d="M483.0797,-515.4097C430.6136,-481.1462 316.704,-406.7564 258.2968,-368.613"/>
<polygon fill="#444444" fill-opacity="0.333333" stroke="#444444" stroke-opacity="0.333333" points="260.043,-365.5731 249.7565,-363.0356 256.2154,-371.434 260.043,-365.5731"/>
</g>
<!-- perl&#45;NetAddr&#45;IP&#45;&gt;perl&#45;Socket6 -->
<g id="edge18" class="edge">
<title>perl&#45;NetAddr&#45;IP&#45;&gt;perl&#45;Socket6</title>
<path fill="none" stroke="#444444" stroke-opacity="0.333333" d="M1278.3305,-710.9789C1303.3076,-720.0364 1333.6744,-731.0483 1359.7921,-740.5194"/>
<polygon fill="#444444" fill-opacity="0.333333" stroke="#444444" stroke-opacity="0.333333" points="1358.6102,-743.8137 1369.2044,-743.9326 1360.9966,-737.2331 1358.6102,-743.8137"/>
</g>
<!-- policycoreutils&#45;python&#45;utils&#45;&gt;policycoreutils&#45;python3 -->
<g id="edge19" class="edge">
<title>policycoreutils&#45;python&#45;utils&#45;&gt;policycoreutils&#45;python3</title>
<path fill="none" stroke="#444444" stroke-opacity="0.333333" d="M1050.9797,-459.2176C1070.5421,-416.0223 1119.7111,-307.4531 1142.8695,-256.3175"/>
<polygon fill="#444444" fill-opacity="0.333333" stroke="#444444" stroke-opacity="0.333333" points="1146.0709,-257.7325 1147.0081,-247.1792 1139.6943,-254.8446 1146.0709,-257.7325"/>
</g>
<!-- bind&#45;libs&#45;&gt;bind&#45;libs&#45;lite -->
<g id="edge20" class="edge">
<title>bind&#45;libs&#45;&gt;bind&#45;libs&#45;lite</title>
<path fill="none" stroke="#444444" stroke-opacity="0.333333" d="M376.6355,-398.0469C384.8815,-393.0983 393.9403,-387.6619 402.61,-382.4589"/>
<polygon fill="#444444" fill-opacity="0.333333" stroke="#444444" stroke-opacity="0.333333" points="404.6802,-385.2985 411.4537,-377.1516 401.0782,-379.2963 404.6802,-385.2985"/>
</g>
<!-- bind&#45;libs&#45;&gt;GeoIP -->
<g id="edge21" class="edge">
<title>bind&#45;libs&#45;&gt;GeoIP</title>
<path fill="none" stroke="#444444" stroke-opacity="0.333333" d="M341.7857,-434.3779C335.4942,-458.641 324.3183,-501.7403 316.9659,-530.095"/>
<polygon fill="#444444" fill-opacity="0.333333" stroke="#444444" stroke-opacity="0.333333" points="313.5683,-529.2538 314.4462,-539.8122 320.3442,-531.0109 313.5683,-529.2538"/>
</g>
<!-- bind&#45;libs&#45;&gt;bind&#45;license -->
<g id="edge22" class="edge">
<title>bind&#45;libs&#45;&gt;bind&#45;license</title>
<path fill="none" stroke="#444444" stroke-opacity="0.333333" d="M343.9932,-397.8955C339.1949,-363.2874 328.7353,-287.8469 323.0344,-246.7285"/>
<polygon fill="#444444" fill-opacity="0.333333" stroke="#444444" stroke-opacity="0.333333" points="326.5009,-246.245 321.6607,-236.8204 319.5672,-247.2064 326.5009,-246.245"/>
</g>
<!-- bind&#45;libs&#45;lite&#45;&gt;GeoIP -->
<g id="edge23" class="edge">
<title>bind&#45;libs&#45;lite&#45;&gt;GeoIP</title>
<path fill="none" stroke="#444444" stroke-opacity="0.333333" d="M429.7558,-377.0109C406.4069,-412.2192 354.617,-490.3141 327.3318,-531.458"/>
<polygon fill="#444444" fill-opacity="0.333333" stroke="#444444" stroke-opacity="0.333333" points="324.3523,-529.6181 321.7423,-539.8864 330.186,-533.4868 324.3523,-529.6181"/>
</g>
<!-- bind&#45;libs&#45;lite&#45;&gt;bind&#45;license -->
<g id="edge24" class="edge">
<title>bind&#45;libs&#45;lite&#45;&gt;bind&#45;license</title>
<path fill="none" stroke="#444444" stroke-opacity="0.333333" d="M425.9283,-340.9377C404.6272,-316.543 366.5196,-272.9007 342.0566,-244.8849"/>
<polygon fill="#444444" fill-opacity="0.333333" stroke="#444444" stroke-opacity="0.333333" points="344.454,-242.3092 335.2403,-237.0786 339.1812,-246.9133 344.454,-242.3092"/>
</g>
<!-- GeoIP&#45;&gt;GeoIP&#45;GeoLite&#45;data -->
<g id="edge25" class="edge">
<title>GeoIP&#45;&gt;GeoIP&#45;GeoLite&#45;data</title>
<path fill="none" stroke="#444444" stroke-opacity="0.333333" d="M272.4495,-576.0136C245.6215,-588.9766 209.2503,-606.5508 180.5106,-620.4376"/>
<polygon fill="#444444" fill-opacity="0.333333" stroke="#444444" stroke-opacity="0.333333" points="178.9507,-617.3041 171.4694,-624.8062 181.9962,-623.6069 178.9507,-617.3041"/>
</g>
<!-- python3&#45;bind&#45;&gt;bind&#45;license -->
<g id="edge26" class="edge">
<title>python3&#45;bind&#45;&gt;bind&#45;license</title>
<path fill="none" stroke="#444444" stroke-opacity="0.333333" d="M236.0634,-326.9128C252.5532,-305.4219 280.1815,-269.4142 299.0115,-244.8732"/>
<polygon fill="#444444" fill-opacity="0.333333" stroke="#444444" stroke-opacity="0.333333" points="301.9617,-246.7779 305.2723,-236.7136 296.4081,-242.5167 301.9617,-246.7779"/>
</g>
<!-- python3&#45;bind&#45;&gt;python3&#45;ply -->
<g id="edge27" class="edge">
<title>python3&#45;bind&#45;&gt;python3&#45;ply</title>
<path fill="none" stroke="#444444" stroke-opacity="0.333333" d="M201.9024,-326.9563C175.1053,-303.0729 127.7597,-260.8755 97.5552,-233.9554"/>
<polygon fill="#444444" fill-opacity="0.333333" stroke="#444444" stroke-opacity="0.333333" points="99.6894,-231.1692 89.8954,-227.1284 95.0319,-236.3949 99.6894,-231.1692"/>
</g>
<!-- policycoreutils&#45;python3&#45;&gt;audit&#45;libs&#45;python3 -->
<g id="edge28" class="edge">
<title>policycoreutils&#45;python3&#45;&gt;audit&#45;libs&#45;python3</title>
<path fill="none" stroke="#444444" stroke-opacity="0.333333" d="M1289.6202,-226.424C1290.9777,-226.3993 1292.3343,-226.3746 1293.6893,-226.3499"/>
<polygon fill="#444444" fill-opacity="0.333333" stroke="#444444" stroke-opacity="0.333333" points="1294.102,-229.8431 1304.0366,-226.1615 1293.9745,-222.8442 1294.102,-229.8431"/>
</g>
<!-- policycoreutils&#45;python3&#45;&gt;checkpolicy -->
<g id="edge29" class="edge">
<title>policycoreutils&#45;python3&#45;&gt;checkpolicy</title>
<path fill="none" stroke="#444444" stroke-opacity="0.333333" d="M1154.8128,-210.5256C1153.832,-173.5904 1151.6134,-90.0496 1150.4477,-46.1531"/>
<polygon fill="#444444" fill-opacity="0.333333" stroke="#444444" stroke-opacity="0.333333" points="1153.9464,-46.0554 1150.1821,-36.1519 1146.9489,-46.2413 1153.9464,-46.0554"/>
</g>
<!-- policycoreutils&#45;python3&#45;&gt;libcgroup -->
<g id="edge30" class="edge">
<title>policycoreutils&#45;python3&#45;&gt;libcgroup</title>
<path fill="none" stroke="#444444" stroke-opacity="0.333333" d="M1173.5398,-210.8018C1187.9357,-196.5414 1208.195,-176.4726 1224.2287,-160.5898"/>
<polygon fill="#444444" fill-opacity="0.333333" stroke="#444444" stroke-opacity="0.333333" points="1227.0749,-162.6969 1231.7162,-153.1728 1222.1486,-157.7238 1227.0749,-162.6969"/>
</g>
<!-- policycoreutils&#45;python3&#45;&gt;libsemanage&#45;python3 -->
<g id="edge31" class="edge">
<title>policycoreutils&#45;python3&#45;&gt;libsemanage&#45;python3</title>
<path fill="none" stroke="#444444" stroke-opacity="0.333333" d="M1135.826,-210.8009C1100.7602,-178.2648 1026.931,-109.7619 986.8832,-72.6032"/>
<polygon fill="#444444" fill-opacity="0.333333" stroke="#444444" stroke-opacity="0.333333" points="989.0567,-69.8454 979.3456,-65.6094 984.2955,-74.9768 989.0567,-69.8454"/>
</g>
<!-- policycoreutils&#45;python3&#45;&gt;python3&#45;IPy -->
<g id="edge32" class="edge">
<title>policycoreutils&#45;python3&#45;&gt;python3&#45;IPy</title>
<path fill="none" stroke="#444444" stroke-opacity="0.333333" d="M1046.0858,-210.8681C1038.4432,-209.6083 1030.8244,-208.3525 1023.3891,-207.1269"/>
<polygon fill="#444444" fill-opacity="0.333333" stroke="#444444" stroke-opacity="0.333333" points="1023.8148,-203.6499 1013.3787,-205.4769 1022.6763,-210.5567 1023.8148,-203.6499"/>
</g>
<!-- policycoreutils&#45;python3&#45;&gt;setools&#45;python3 -->
<g id="edge33" class="edge">
<title>policycoreutils&#45;python3&#45;&gt;setools&#45;python3</title>
<path fill="none" stroke="#444444" stroke-opacity="0.333333" d="M1178.7246,-246.9244C1209.9594,-270.9987 1265.3494,-313.6904 1300.2126,-340.5611"/>
<polygon fill="#444444" fill-opacity="0.333333" stroke="#444444" stroke-opacity="0.333333" points="1298.1215,-343.3684 1308.1786,-346.7009 1302.3948,-337.824 1298.1215,-343.3684"/>
</g>
<!-- audit&#45;libs&#45;python3&#45;&gt;audit -->
<g id="edge34" class="edge">
<title>audit&#45;libs&#45;python3&#45;&gt;audit</title>
<path fill="none" stroke="#444444" stroke-opacity="0.333333" d="M1416.7333,-206.0831C1422.9093,-185.8503 1432.9779,-152.8655 1440.1648,-129.3215"/>
<polygon fill="#444444" fill-opacity="0.333333" stroke="#444444" stroke-opacity="0.333333" points="1443.572,-130.1475 1443.144,-119.5613 1436.8769,-128.1038 1443.572,-130.1475"/>
</g>
<!-- 389&#45;ds&#45;base -->
<g id="node1" class="node">
<title>389&#45;ds&#45;base</title>
<text text-anchor="middle" x="929.04" y="-750.34" font-family="monospace" font-size="14.00" fill="#000000">389&#45;ds&#45;base</text>
</g>
<!-- 389&#45;ds&#45;base&#45;libs -->
<g id="node2" class="node">
<title>389&#45;ds&#45;base&#45;libs</title>
<text text-anchor="middle" x="1147" y="-788.4" font-family="monospace" font-size="14.00" fill="#000000">389&#45;ds&#45;base&#45;libs</text>
</g>
<!-- bind&#45;utils -->
<g id="node3" class="node">
<title>bind&#45;utils</title>
<text text-anchor="middle" x="510.75" y="-529.78" font-family="monospace" font-size="14.00" fill="#000000">bind&#45;utils</text>
</g>
<!-- cyrus&#45;sasl&#45;gssapi -->
<g id="node4" class="node">
<title>cyrus&#45;sasl&#45;gssapi</title>
<text text-anchor="middle" x="762.03" y="-912.45" font-family="monospace" font-size="14.00" fill="#000000">cyrus&#45;sasl&#45;gssapi</text>
</g>
<!-- cyrus&#45;sasl&#45;md5 -->
<g id="node5" class="node">
<title>cyrus&#45;sasl&#45;md5</title>
<text text-anchor="middle" x="1009.5" y="-838.13" font-family="monospace" font-size="14.00" fill="#000000">cyrus&#45;sasl&#45;md5</text>
</g>
<!-- libicu -->
<g id="node6" class="node">
<title>libicu</title>
<text text-anchor="middle" x="1010.3" y="-973.82" font-family="monospace" font-size="14.00" fill="#000000">libicu</text>
</g>
<!-- libsemanage&#45;python -->
<g id="node7" class="node">
<title>libsemanage&#45;python</title>
<text text-anchor="middle" x="866.15" y="-1017.8" font-family="monospace" font-size="14.00" fill="#000000">libsemanage&#45;python</text>
</g>
<!-- svrcore -->
<g id="node8" class="node">
<title>svrcore</title>
<text text-anchor="middle" x="1156.7" y="-939.53" font-family="monospace" font-size="14.00" fill="#000000">svrcore</text>
</g>
<!-- nss&#45;tools -->
<g id="node9" class="node">
<title>nss&#45;tools</title>
<text text-anchor="middle" x="651.94" y="-783.56" font-family="monospace" font-size="14.00" fill="#000000">nss&#45;tools</text>
</g>
<!-- openldap&#45;clients -->
<g id="node10" class="node">
<title>openldap&#45;clients</title>
<text text-anchor="middle" x="754.54" y="-715.02" font-family="monospace" font-size="14.00" fill="#000000">openldap&#45;clients</text>
</g>
<!-- perl&#45;Mozilla&#45;LDAP -->
<g id="node11" class="node">
<title>perl&#45;Mozilla&#45;LDAP</title>
<text text-anchor="middle" x="817.02" y="-545.09" font-family="monospace" font-size="14.00" fill="#000000">perl&#45;Mozilla&#45;LDAP</text>
</g>
<!-- perl&#45;NetAddr&#45;IP -->
<g id="node12" class="node">
<title>perl&#45;NetAddr&#45;IP</title>
<text text-anchor="middle" x="1228.2" y="-689.1" font-family="monospace" font-size="14.00" fill="#000000">perl&#45;NetAddr&#45;IP</text>
</g>
<!-- policycoreutils&#45;python&#45;utils -->
<g id="node13" class="node">
<title>policycoreutils&#45;python&#45;utils</title>
<text text-anchor="middle" x="1042.7" y="-473.8" font-family="monospace" font-size="14.00" fill="#000000">policycoreutils&#45;python&#45;utils</text>
</g>
<!-- bind&#45;libs -->
<g id="node14" class="node">
<title>bind&#45;libs</title>
<text text-anchor="middle" x="346.52" y="-412.42" font-family="monospace" font-size="14.00" fill="#000000">bind&#45;libs</text>
</g>
<!-- bind&#45;libs&#45;lite -->
<g id="node15" class="node">
<title>bind&#45;libs&#45;lite</title>
<text text-anchor="middle" x="441.7" y="-355.3" font-family="monospace" font-size="14.00" fill="#000000">bind&#45;libs&#45;lite</text>
</g>
<!-- GeoIP -->
<g id="node16" class="node">
<title>GeoIP</title>
<text text-anchor="middle" x="309.73" y="-554.3" font-family="monospace" font-size="14.00" fill="#000000">GeoIP</text>
</g>
<!-- python3&#45;bind -->
<g id="node17" class="node">
<title>python3&#45;bind</title>
<text text-anchor="middle" x="222.17" y="-341.32" font-family="monospace" font-size="14.00" fill="#000000">python3&#45;bind</text>
</g>
<!-- perl&#45;Socket6 -->
<g id="node18" class="node">
<title>perl&#45;Socket6</title>
<text text-anchor="middle" x="1419" y="-758.29" font-family="monospace" font-size="14.00" fill="#000000">perl&#45;Socket6</text>
</g>
<!-- policycoreutils&#45;python3 -->
<g id="node19" class="node">
<title>policycoreutils&#45;python3</title>
<text text-anchor="middle" x="1155.3" y="-225.17" font-family="monospace" font-size="14.00" fill="#000000">policycoreutils&#45;python3</text>
</g>
<!-- bind&#45;license -->
<g id="node20" class="node">
<title>bind&#45;license</title>
<text text-anchor="middle" x="319.14" y="-214.94" font-family="monospace" font-size="14.00" fill="#000000">bind&#45;license</text>
</g>
<!-- GeoIP&#45;GeoLite&#45;data -->
<g id="node21" class="node">
<title>GeoIP&#45;GeoLite&#45;data</title>
<text text-anchor="middle" x="133.94" y="-639.24" font-family="monospace" font-size="14.00" fill="#000000">GeoIP&#45;GeoLite&#45;data</text>
</g>
<!-- python3&#45;ply -->
<g id="node22" class="node">
<title>python3&#45;ply</title>
<text text-anchor="middle" x="69.544" y="-205.29" font-family="monospace" font-size="14.00" fill="#000000">python3&#45;ply</text>
</g>
<!-- audit&#45;libs&#45;python3 -->
<g id="node23" class="node">
<title>audit&#45;libs&#45;python3</title>
<text text-anchor="middle" x="1411.2" y="-220.51" font-family="monospace" font-size="14.00" fill="#000000">audit&#45;libs&#45;python3</text>
</g>
<!-- checkpolicy -->
<g id="node24" class="node">
<title>checkpolicy</title>
<text text-anchor="middle" x="1149.7" y="-14.3" font-family="monospace" font-size="14.00" fill="#000000">checkpolicy</text>
</g>
<!-- libcgroup -->
<g id="node25" class="node">
<title>libcgroup</title>
<text text-anchor="middle" x="1249.9" y="-131.46" font-family="monospace" font-size="14.00" fill="#000000">libcgroup</text>
</g>
<!-- libsemanage&#45;python3 -->
<g id="node26" class="node">
<title>libsemanage&#45;python3</title>
<text text-anchor="middle" x="959.66" y="-43.644" font-family="monospace" font-size="14.00" fill="#000000">libsemanage&#45;python3</text>
</g>
<!-- python3&#45;IPy -->
<g id="node27" class="node">
<title>python3&#45;IPy</title>
<text text-anchor="middle" x="943.69" y="-190.29" font-family="monospace" font-size="14.00" fill="#000000">python3&#45;IPy</text>
</g>
<!-- setools&#45;python3 -->
<g id="node28" class="node">
<title>setools&#45;python3</title>
<text text-anchor="middle" x="1331.7" y="-361.13" font-family="monospace" font-size="14.00" fill="#000000">setools&#45;python3</text>
</g>
<!-- audit -->
<g id="node29" class="node">
<title>audit</title>
<text text-anchor="middle" x="1448.7" y="-97.66" font-family="monospace" font-size="14.00" fill="#000000">audit</text>
</g>
</g>
</svg>
