<?xml version="1.0" encoding="UTF-8" standalone="no"?>
<!DOCTYPE svg PUBLIC "-//W3C//DTD SVG 1.1//EN"
 "http://www.w3.org/Graphics/SVG/1.1/DTD/svg11.dtd">
<!-- Generated by graphviz version 2.40.1 (20161225.0304)
 -->
<!-- Title: G Pages: 1 -->
<svg width="2116pt" height="1307pt"
 viewBox="0.00 0.00 2116.04 1306.66" xmlns="http://www.w3.org/2000/svg" xmlns:xlink="http://www.w3.org/1999/xlink">
<g id="graph0" class="graph" transform="scale(1 1) rotate(0) translate(130.5314 1174.7108)">
<title>G</title>
<polygon fill="#dae2ff" stroke="transparent" points="-130.5314,131.9451 -130.5314,-1174.7108 1985.5068,-1174.7108 1985.5068,131.9451 -130.5314,131.9451"/>
<polygon fill="#fed9a6" stroke="#fed9a6" points="389.0195,-690.8633 383.6111,-689.176 383.6111,-689.176 389.0195,-690.8633 389.4881,-551.3967 378.0753,-547.0786 368.3599,-542.928 366.9399,-542.2867 357.4585,-537.533 356.005,-537.9093 339.4327,-541.8532 287.4201,-553.123 268.253,-557.6815 268.0983,-557.7215 267.9487,-557.7665 257.9744,-560.9763 241.4525,-566.6436 231.245,-570.7873 230.3845,-571.1732 218.7292,-651.6182 212.5928,-687.8658 216.5463,-714.8875 216.7536,-716.5812 219.4735,-744.1226 317.4911,-873.9028 318.4783,-910.4634 364.8074,-951.7088 367.1977,-956.0849 422.5449,-1062.0687 514.1454,-1106.5496 518.582,-1112.3821 521.0829,-1114.5864 655.931,-1167.1613 655.5484,-1131.5656 653.8893,-1087.9386 653.8893,-1087.9386 655.5484,-1131.5656 655.931,-1167.1613 658.4173,-1168.3102 663.3483,-1170.7108 674.2626,-1167.9629 681.2054,-1166.5116 687.2449,-1165.3779 697.4641,-1163.678 703.7165,-1162.9054 714.1611,-1161.8379 714.4133,-1054.6364 714.4133,-1054.6364 714.1611,-1161.8379 721.9953,-1161.3723 730.2255,-1158.8002 800.5244,-1140.1385 803.027,-1138.6305 816.1465,-1135.55 824.7814,-1133.7373 829.783,-1132.812 829.1899,-1067.8408 831.9364,-999.5201 834.36,-997.0244 830.9235,-993.3758 826.0828,-991.8145 826.0828,-991.8145 830.9235,-993.3758 834.36,-997.0244 831.9364,-999.5201 829.1899,-1067.8408 829.783,-1132.812 840.1295,-1131.4099 920.8351,-1124.4584 936.4268,-1122.089 976.3895,-1079.0151 1038.0334,-1059.7432 1063.5735,-1034.9369 1107.3185,-946.2049 1154.6882,-860.1741 1152.8052,-856.8839 970.5448,-916.8521 969.254,-918.4291 965.499,-919.6744 961.5193,-862.578 958.5604,-921.2158 958.6727,-921.2529 961.0044,-982.5901 960.134,-1028.3805 952.3987,-921.4963 947.991,-921.4963 947.2803,-921.2618 942.0063,-921.2618 938.4314,-885.374 934.1409,-921.2564 929.7095,-921.2564 929.1887,-921.952 923.1237,-925.9905 917.6467,-925.9905 911.4832,-921.7601 910.4458,-987.9824 904.605,-921.2344 899.8006,-921.2344 897.3245,-858.6243 897.2866,-858.6224 896.9077,-842.2656 899.3564,-796.2925 899.0593,-796.1969 899.0593,-796.1969 899.3564,-796.2925 896.9077,-842.2656 897.2866,-858.6224 897.3245,-858.6243 899.8006,-921.2344 904.605,-921.2344 910.4458,-987.9824 911.4832,-921.7601 917.6467,-925.9905 923.1237,-925.9905 929.1887,-921.952 929.7095,-921.2564 929.1069,-920.48 923.1967,-916.7073 917.3521,-916.7073 917.3521,-916.7073 923.1967,-916.7073 929.1069,-920.48 929.7095,-921.2564 934.1409,-921.2564 938.4314,-885.374 938.6967,-858.7896 937.3591,-858.6747 936.8992,-843.5356 936.8992,-843.5356 937.3591,-858.6747 938.6967,-858.7896 938.4314,-885.374 942.0063,-921.2618 947.2803,-921.2618 947.991,-921.4963 952.3987,-921.4963 960.134,-1028.3805 961.0044,-982.5901 958.6727,-921.2529 958.5604,-921.2158 953.2563,-921.2158 951.8934,-858.6592 955.6227,-858.3459 955.6221,-858.3333 955.6221,-858.3333 955.6227,-858.3459 951.8934,-858.6592 953.2563,-921.2158 958.5604,-921.2158 961.5193,-862.578 965.499,-919.6744 969.254,-918.4291 970.5448,-916.8521 1152.8052,-856.8839 1145.1039,-842.8853 1143.6873,-835.5394 1139.406,-830.1439 1123.6334,-812.149 1119.619,-807.7335 1103.0554,-791.4475 1101.1171,-789.4566 1088.9597,-777.9861 1076.6548,-767.4079 1075.1594,-766.2482 1071.0908,-762.9121 1060.927,-755.4346 1051.2441,-748.7241 1044.8384,-744.5656 1035.2,-739.1401 1020.705,-732.2178 1019.4261,-731.6635 966.2626,-710.9062 951.2316,-704.3821 949.2038,-677.5015 948.4974,-655.427 947.7435,-645.5733 947.4953,-643.5214 947.1289,-631.9965 936.1422,-486.3565 929.136,-484.9874 780.7629,-387.332 777.7707,-567.0322 796.5715,-569.8982 858.4809,-567.8271 852.8521,-574.423 850.9711,-576.3015 850.9711,-576.3015 852.8521,-574.423 858.4809,-567.8271 796.5715,-569.8982 773.5763,-574.9421 777.7286,-579.2029 842.9319,-583.5654 836.6796,-589.3607 836.6796,-589.3607 842.9319,-583.5654 777.7286,-579.2029 773.5763,-574.9421 796.5715,-569.8982 777.7707,-567.0322 780.7629,-387.332 778.9697,-386.1084 760.4797,-373.036 762.584,-530.8149 759.489,-572.2691 754.3066,-568.9285 754.3066,-568.9285 759.489,-572.2691 762.584,-530.8149 760.4797,-373.036 747.9149,-363.5565 746.7791,-362.646 743.3178,-361.4793 732.7656,-357.5767 724.0627,-370.2506 691.9461,-414.0968 665.7165,-451.4308 600.2443,-554.7714 595.326,-556.1473 592.4756,-556.8726 587.4146,-558.0335 586.5115,-558.218 566.2558,-561.3534 564.7857,-561.5439 561.4939,-561.8881 553.273,-562.5424 545.6634,-562.5775 530.8893,-563.0275 530.0936,-563.0317 522.8716,-562.7079 521.9929,-562.6465 511.7573,-562.7229 509.9006,-562.8325 499.7823,-563.1757 482.5683,-564.6465 456.0049,-568.9641 425.9716,-562.0428 406.7325,-557.1287 407.284,-584.1705 406.3647,-693.8434 400.4526,-693.8434 400.121,-693.9517 405.0109,-777.8307 404.7246,-792.8026 395.8795,-799.2505 385.0751,-807.6366 383.5051,-808.9265 376.9191,-814.6456 367.0548,-824.1527 357.075,-834.2434 490.7027,-829.847 496.1433,-765.2761 496.6812,-834.6728 498.7467,-836.3435 500.9879,-836.3435 505.352,-864.2725 509.2436,-835.8757 508.8678,-835.7561 508.8678,-835.7561 509.2436,-835.8757 513.2388,-835.8757 513.348,-835.8419 518.6797,-835.8419 518.9044,-835.9143 524.9464,-835.9143 525.4499,-836.0806 523.3033,-890.0737 527.5279,-890.0692 528.3002,-890.0168 539.1981,-889.9667 540.5216,-890.0444 541.298,-890.0381 542.027,-890.0782 547.6499,-890.0132 552.1675,-890.2462 555.6448,-889.9622 565.3082,-890.3938 565.9453,-890.3798 568.758,-890.131 568.7494,-889.7125 568.7494,-889.7125 568.758,-890.131 565.9453,-890.3798 565.3082,-890.3938 555.6448,-889.9622 552.1675,-890.2462 547.6499,-890.0132 542.027,-890.0782 541.298,-890.0381 540.5216,-890.0444 536.546,-941.9166 537.9254,-944.4406 542.5148,-944.4406 546.0156,-999.6193 549.3893,-948.9554 554.761,-948.9554 561.2924,-944.493 560.3958,-943.2355 555.417,-939.9582 555.417,-939.9582 560.3958,-943.2355 561.2924,-944.493 554.761,-948.9554 549.3893,-948.9554 546.0156,-999.6193 545.9238,-1058.0387 558.7548,-1041.6533 567.2858,-1032.1677 575.1544,-1024.0638 581.5648,-1018 631.4896,-955.5077 633.2744,-953.7173 643.1014,-953.4587 646.191,-953.5352 654.8485,-953.3022 655.5893,-953.3582 656.9716,-953.3912 666.0416,-953.1387 668.8776,-953.205 670.7847,-953.1514 670.8413,-953.1556 676.6696,-953.2864 680.4391,-953.1767 687.2047,-953.3255 687.2789,-949.4595 691.4249,-893.3802 696.4081,-893.3802 703.0947,-888.9602 701.7802,-887.2629 697.1664,-884.4463 697.1664,-884.4463 701.7802,-887.2629 703.0947,-888.9602 696.4081,-893.3802 691.4249,-893.3802 687.2789,-949.4595 687.2047,-953.3255 680.4391,-953.1767 676.6696,-953.2864 670.8413,-953.1556 670.7847,-953.1514 668.8776,-953.205 666.0416,-953.1387 656.9716,-953.3912 655.5893,-953.3582 654.8485,-953.3022 646.191,-953.5352 643.1014,-953.4587 633.2744,-953.7173 631.4896,-955.5077 581.5648,-1018 575.1544,-1024.0638 567.2858,-1032.1677 558.7548,-1041.6533 545.9238,-1058.0387 546.0156,-999.6193 542.5148,-944.4406 537.9254,-944.4406 536.546,-941.9166 540.5216,-890.0444 539.1981,-889.9667 528.3002,-890.0168 527.5279,-890.0692 523.3033,-890.0737 525.4499,-836.0806 524.9464,-835.9143 518.9044,-835.9143 518.6797,-835.8419 513.348,-835.8419 513.2388,-835.8757 509.2436,-835.8757 505.352,-864.2725 500.9879,-836.3435 498.7467,-836.3435 496.6812,-834.6728 496.1433,-765.2761 490.7027,-829.847 357.075,-834.2434 367.0548,-824.1527 376.9191,-814.6456 383.5051,-808.9265 385.0751,-807.6366 395.8795,-799.2505 404.7246,-792.8026 405.0109,-777.8307 400.121,-693.9517 400.4526,-693.8434 406.3647,-693.8434 407.284,-584.1705 406.7325,-557.1287 403.3397,-556.0961 395.2041,-553.4186 389.4881,-551.3967 389.0195,-690.8633 389.0195,-690.8633"/>
<polygon fill="#ccebc5" stroke="#ccebc5" points="35.5706,-528.7579 38.5121,-452.4108 38.5121,-452.4108 35.5706,-528.7579 33.0334,-529.2964 -19.6491,-529.249 -53.544,-495.3445 -115.3346,-406.1941 -121.7247,-397.7212 -126.5314,-365.1817 -121.1081,-357.7409 -119.7905,-356.3668 -36.7705,-266.3404 27.2926,-224.8841 35.4386,-223.6322 41.6745,-222.5558 46.7172,-221.4937 79.8489,-176.5906 144.747,-121.6237 205.6587,-95.2756 230.4974,-83.2779 251.9443,-70.8065 254.0765,-69.4102 267.618,-59.8456 278.1257,-58.9603 284.3434,-58.3327 289.0407,-57.7802 322.8702,-215.3021 340.5411,-217.6656 371.8802,-218.469 374.6193,-186.7562 378.8129,-224.2397 383.0479,-224.2397 383.3968,-224.3529 389.3788,-224.3529 389.8757,-224.1913 395.1787,-224.1913 395.8226,-224.3949 400.3979,-224.3949 400.5219,-224.3564 402.9992,-224.3564 406.5282,-227.6838 412.0749,-229.4109 412.9561,-271.997 410.276,-272.2755 414.7995,-315.2318 408.239,-315.2318 402.1994,-319.3108 403.4364,-321.0171 408.1566,-324.0091 408.1566,-324.0091 403.4364,-321.0171 402.1994,-319.3108 408.239,-315.2318 414.7995,-315.2318 410.276,-272.2755 412.9561,-271.997 412.0749,-229.4109 406.5282,-227.6838 402.9992,-224.3564 406.6784,-220.9203 411.892,-219.3375 411.892,-219.3375 406.6784,-220.9203 402.9992,-224.3564 400.5219,-224.3564 400.3979,-224.3949 395.8226,-224.3949 395.1787,-224.1913 389.8757,-224.1913 389.3788,-224.3529 383.3968,-224.3529 383.0479,-224.2397 378.8129,-224.2397 374.6193,-186.7562 371.8802,-218.469 340.5411,-217.6656 322.8702,-215.3021 289.0407,-57.7802 303.9515,-51.8881 331.4027,-43.6283 335.0221,-37.7809 357.0637,.7902 366.2074,15.4375 405.2641,81.0998 446.1934,127.9451 507.9959,123.0312 526.2957,122.4055 526.9923,122.3975 528.3074,122.4123 531.0207,122.1862 540.0791,121.6383 552.0659,121.1879 557.8106,121.3665 563.3001,-13.4266 557.3776,-13.4266 557.3776,-13.4266 563.3001,-13.4266 557.8106,121.3665 574.1288,122.2483 581.8231,123.016 591.4633,124.1983 596.5079,125.0475 608.5267,127.6252 622.0516,126.2087 677.7026,121.6191 723.4755,84.1563 735.1985,59.1999 741.4916,18.7193 751.6112,-37.5834 756.162,-57.7856 725.6193,-127.1583 712.0676,-151.3788 714.8886,-176.8855 715.2356,-213.05 724.3196,-345.5303 732.7656,-357.5767 724.0627,-370.2506 691.9461,-414.0968 665.7165,-451.4308 600.2443,-554.7714 595.326,-556.1473 592.4756,-556.8726 587.4146,-558.0335 586.5115,-558.218 566.2558,-561.3534 564.7857,-561.5439 561.4939,-561.8881 553.273,-562.5424 545.6634,-562.5775 530.8893,-563.0275 530.0936,-563.0317 522.8716,-562.7079 521.9929,-562.6465 511.7573,-562.7229 509.9006,-562.8325 499.7823,-563.1757 482.5683,-564.6465 456.0049,-568.9641 425.9716,-562.0428 406.7325,-557.1287 403.3397,-556.0961 395.2041,-553.4186 389.4881,-551.3967 378.0753,-547.0786 368.3599,-542.928 366.9399,-542.2867 357.4585,-537.533 370.3291,-476.9191 477.9887,-445.0914 480.2101,-442.0663 480.2101,-442.0663 477.9887,-445.0914 370.3291,-476.9191 357.4585,-537.533 356.005,-537.9093 339.4327,-541.8532 287.4201,-553.123 268.253,-557.6815 268.0983,-557.7215 267.9487,-557.7665 257.9744,-560.9763 241.4525,-566.6436 231.245,-570.7873 230.3845,-571.1732 219.1049,-564.8209 200.6448,-554.8738 145.688,-526.6566 155.3956,-423.9944 213.5867,-404.419 216.4059,-401.0276 218.0903,-400.0957 218.9747,-400.0957 219.496,-399.9327 224.3022,-399.9327 229.8424,-507.2039 230.6493,-400.042 235.7785,-400.042 236.0697,-399.9467 239.2122,-399.9467 241.9729,-402.6621 241.9729,-402.6621 239.2122,-399.9467 236.0697,-399.9467 235.7785,-400.042 230.6493,-400.042 229.8424,-507.2039 224.3022,-399.9327 219.496,-399.9327 218.9747,-400.0957 218.0903,-400.0957 216.4059,-401.0276 213.5867,-404.419 155.3956,-423.9944 145.688,-526.6566 111.0145,-524.3298 89.8134,-523.3989 89.8232,-439.2365 90.1746,-434.3499 89.7443,-389.7767 90.1447,-389.6427 87.5594,-318.9971 87.927,-282.8755 87.5366,-262.805 108.7658,-280.5022 163.2164,-323.286 157.6638,-382.0076 157.7052,-384.2011 213.2124,-394.5182 212.6184,-321.8377 215.1613,-321.7444 215.5485,-321.7138 223.0454,-321.4381 222.8015,-282.7611 218.8004,-243.3851 218.8004,-243.3851 222.8015,-282.7611 223.0454,-321.4381 215.5485,-321.7138 215.1613,-321.7444 212.6184,-321.8377 213.2124,-394.5182 157.7052,-384.2011 157.6638,-382.0076 163.2164,-323.286 108.7658,-280.5022 87.5366,-262.805 87.927,-282.8755 87.5594,-318.9971 90.1447,-389.6427 89.7443,-389.7767 90.1746,-434.3499 89.8232,-439.2365 89.8134,-523.3989 74.5,-523.798 64.3103,-524.5386 66.7325,-394.5319 72.0935,-394.5319 79.0334,-390.0183 78.8753,-389.8167 72.1308,-385.3077 66.7301,-385.3077 66.7301,-385.3077 72.1308,-385.3077 78.8753,-389.8167 79.0334,-390.0183 72.0935,-394.5319 66.7325,-394.5319 64.3103,-524.5386 62.7328,-524.6899 56.2714,-525.4608 50.3126,-526.3108 35.5706,-528.7579 35.5706,-528.7579"/>
<polygon fill="#fbb4ae" stroke="#fbb4ae" points="1981.5068,-630.1088 1972.924,-577.91 1966.4945,-510.8294 1889.7496,-445.2692 1846.8491,-434.5292 1822.6476,-427.9214 1815.0491,-425.3427 1809.8688,-423.4692 1798.3628,-419.051 1797.7723,-418.8112 1784.012,-412.6062 1776.9399,-409.1011 1770.2607,-373.088 1762.9152,-321.7945 1760.1967,-299.356 1753.282,-281.6589 1763.5251,-199.65 1767.0851,-181.2136 1759.847,-104.6116 1653.3354,-51.4236 1631.2085,-51.2075 1621.5096,-50.8939 1613.6664,-50.4634 1597.7629,-49.2314 1594.9674,-48.8893 1582.5161,-47.0848 1535.4585,-68.0574 1482.8552,-109.8876 1457.7979,-132.9941 1425.5511,-135.3246 1404.6824,-135.5348 1399.1304,-135.2449 1392.2725,-137.6353 1380.4874,-141.4663 1376.8459,-142.4781 1368.7172,-144.5472 1368.3982,-179.5021 1368.3982,-179.5021 1368.7172,-144.5472 1302.2947,-158.3575 1289.3203,-164.8005 1237.1069,-211.7642 1233.7046,-212.3677 1223.7126,-213.9262 1216.799,-214.8561 1201.8202,-216.2287 1122.4058,-218.4031 1080.4147,-251.3335 1071.2175,-317.988 1060.4464,-384.0432 1053.1355,-418.908 984.546,-475.264 936.1422,-486.3565 947.1289,-631.9965 947.4953,-643.5214 947.7435,-645.5733 948.4974,-655.427 949.2038,-677.5015 951.2316,-704.3821 966.2626,-710.9062 1019.4261,-731.6635 1020.705,-732.2178 1035.2,-739.1401 1034.8813,-722.3425 1034.8813,-722.3425 1035.2,-739.1401 1044.8384,-744.5656 1051.2441,-748.7241 1060.927,-755.4346 1071.0908,-762.9121 1069.9362,-720.3897 1069.9362,-720.3897 1071.0908,-762.9121 1075.1594,-766.2482 1076.6548,-767.4079 1088.9597,-777.9861 1101.1171,-789.4566 1103.0554,-791.4475 1119.619,-807.7335 1123.6334,-812.149 1139.406,-830.1439 1143.6873,-835.5394 1145.1039,-842.8853 1152.8052,-856.8839 1154.6882,-860.1741 1191.5092,-871.5001 1286.7384,-876.8442 1310.8457,-878.7083 1324.0264,-880.2822 1331.9258,-881.7241 1346.4652,-884.9957 1348.9314,-884.4054 1356.8246,-882.6826 1370.9474,-880.4891 1379.7736,-879.3039 1386.6122,-878.5297 1387.182,-811.529 1386.7705,-798.1447 1387.9731,-726.5713 1387.9731,-726.5713 1386.7705,-798.1447 1387.182,-811.529 1386.6122,-878.5297 1409.4227,-877.3844 1462.1985,-875.8457 1483.4631,-864.644 1508.697,-841.7864 1521.3927,-837.4454 1520.3036,-771.433 1515.5443,-682.5615 1510.3297,-682.5615 1510.2349,-682.5307 1505.0614,-682.5307 1503.7614,-682.0936 1498.0656,-682.0936 1496.8817,-682.4822 1493.3921,-682.4822 1493.2786,-682.5832 1493.1389,-682.824 1493.1389,-682.824 1493.2786,-682.5832 1493.3921,-682.4822 1496.8817,-682.4822 1498.0656,-682.0936 1503.7614,-682.0936 1505.0614,-682.5307 1510.2349,-682.5307 1510.3297,-682.5615 1515.5443,-682.5615 1520.3036,-771.433 1521.3927,-837.4454 1525.5721,-836.2032 1540.754,-832.0272 1539.1942,-777.4014 1539.723,-687.3841 1533.3906,-685.2597 1530.8224,-682.7798 1528.0044,-682.7798 1527.2057,-682.5123 1522.1315,-682.5123 1521.3759,-682.2638 1521.3759,-682.2638 1522.1315,-682.5123 1527.2057,-682.5123 1528.0044,-682.7798 1530.8224,-682.7798 1533.3906,-685.2597 1539.723,-687.3841 1539.1942,-777.4014 1540.754,-832.0272 1540.824,-832.0111 1547.4407,-830.6332 1561.1486,-828.0819 1566.5765,-827.3133 1578.6599,-825.8704 1592.7244,-824.8169 1610.4438,-824.2786 1640.9194,-814.783 1686.4124,-790.2325 1712.7876,-763.0627 1734.9926,-737.4293 1593.0935,-687.09 1589.8624,-682.6201 1590.2523,-682.3477 1703.0446,-684.1069 1678.782,-646.1932 1593.299,-677.852 1590.7705,-646.9259 1591.6559,-616.5638 1581.7921,-616.0924 1581.7706,-614.5928 1580.2173,-590.992 1573.9121,-550.4476 1570.6595,-550.4476 1570.631,-550.4385 1570.631,-550.4385 1570.6595,-550.4476 1573.9121,-550.4476 1580.2173,-590.992 1581.7706,-614.5928 1581.7921,-616.0924 1591.6559,-616.5638 1590.7705,-646.9259 1593.299,-677.852 1678.782,-646.1932 1674.1555,-638.3437 1642.7441,-626.0155 1631.6315,-622.194 1622.6139,-619.5452 1611.736,-617.4417 1611.6614,-617.431 1603.5081,-616.6691 1603.7622,-551.3055 1604.5066,-550.3716 1604.2939,-550.1053 1597.6932,-545.7958 1592.4672,-545.7958 1586.9664,-549.2606 1585.2102,-503.1386 1587.0345,-453.0605 1578.454,-452.5718 1573.0745,-452.6291 1573.2889,-359.8599 1567.0767,-359.8599 1572.0948,-452.657 1565.4276,-452.9633 1560.957,-355.8532 1556.5327,-355.8532 1550.0226,-405.3564 1548.3574,-433.6776 1542.8676,-355.4583 1542.8239,-355.4437 1538.2504,-355.4437 1534.5179,-401.4213 1534.4681,-453.5099 1532.7531,-453.7146 1502.9664,-476.9835 1493.8756,-508.7617 1461.639,-510.8483 1426.5557,-509.8456 1420.3424,-516.2079 1420.2682,-516.2079 1419.4434,-515.9377 1414.9519,-515.9377 1412.4686,-602.9962 1408.4443,-515.9415 1403.5343,-515.9415 1397.9731,-620.9998 1394.8726,-620.9453 1392.2667,-621.0575 1385.4442,-621.1395 1383.4846,-553.272 1378.6293,-516.3664 1374.6385,-516.3664 1368.3698,-595.3782 1368.1003,-519.0215 1362.032,-520.9818 1356.8744,-519.3827 1353.4464,-516.0511 1351.132,-516.0511 1347.7328,-578.3615 1344.3583,-515.8938 1344.2123,-515.8458 1339.2966,-515.8458 1338.5636,-515.6078 1333.4814,-515.6078 1332.1592,-516.0345 1328.2245,-516.0345 1324.1207,-559.782 1320.891,-516.1265 1316.3303,-516.1265 1315.0969,-515.7254 1319.5945,-452.1831 1310.9424,-447.5968 1309.7496,-515.6209 1304.0939,-515.6209 1304.0115,-515.6471 1302.8428,-515.6471 1298.2057,-521.1988 1299.8705,-621.2122 1274.924,-621.2281 1269.7247,-615.6801 1189.9214,-600.892 1177.0521,-599.5707 1176.8384,-599.5667 1174.4531,-599.7192 1171.6045,-599.6717 1169.604,-556.0986 1170.3856,-555.0385 1169.658,-554.0972 1164.5648,-550.8836 1164.5648,-550.8836 1169.658,-554.0972 1170.3856,-555.0385 1169.604,-556.0986 1171.6045,-599.6717 1174.4531,-599.7192 1176.8384,-599.5667 1177.0521,-599.5707 1189.9214,-600.892 1269.7247,-615.6801 1274.924,-621.2281 1299.8705,-621.2122 1298.2057,-521.1988 1302.8428,-515.6471 1304.0115,-515.6471 1304.0939,-515.6209 1309.7496,-515.6209 1310.9424,-447.5968 1319.5945,-452.1831 1315.0969,-515.7254 1316.3303,-516.1265 1320.891,-516.1265 1324.1207,-559.782 1328.2245,-516.0345 1327.8019,-515.899 1327.8019,-515.899 1328.2245,-516.0345 1332.1592,-516.0345 1333.4814,-515.6078 1338.5636,-515.6078 1339.2966,-515.8458 1344.2123,-515.8458 1344.3583,-515.8938 1347.7328,-578.3615 1351.132,-516.0511 1353.4464,-516.0511 1356.8744,-519.3827 1362.032,-520.9818 1368.1003,-519.0215 1368.3698,-595.3782 1374.6385,-516.3664 1378.6293,-516.3664 1383.4846,-553.272 1385.4442,-621.1395 1392.2667,-621.0575 1394.8726,-620.9453 1397.9731,-620.9998 1403.5343,-515.9415 1408.4443,-515.9415 1412.4686,-602.9962 1414.9519,-515.9377 1419.4434,-515.9377 1420.2682,-516.2079 1420.3424,-516.2079 1426.5557,-509.8456 1461.639,-510.8483 1493.8756,-508.7617 1502.9664,-476.9835 1532.7531,-453.7146 1534.4681,-453.5099 1534.5179,-401.4213 1530.8717,-355.4229 1527.4338,-355.4229 1525.2924,-357.1786 1523.4026,-357.7786 1519.8141,-361.3449 1475.0292,-363.4653 1496.339,-404.6768 1477.1062,-404.4067 1477.1062,-404.4067 1496.339,-404.6768 1475.0292,-363.4653 1519.8141,-361.3449 1523.4026,-357.7786 1525.2924,-357.1786 1527.4338,-355.4229 1530.8717,-355.4229 1534.5179,-401.4213 1538.2504,-355.4437 1542.8239,-355.4437 1542.8676,-355.4583 1548.3574,-433.6776 1550.0226,-405.3564 1556.5327,-355.8532 1560.957,-355.8532 1565.4276,-452.9633 1572.0948,-452.657 1567.0767,-359.8599 1573.2889,-359.8599 1573.0745,-452.6291 1578.454,-452.5718 1587.0345,-453.0605 1585.2102,-503.1386 1586.9664,-549.2606 1592.4672,-545.7958 1597.6932,-545.7958 1604.2939,-550.1053 1604.5066,-550.3716 1603.7622,-551.3055 1603.5081,-616.6691 1611.6614,-617.431 1611.736,-617.4417 1622.6139,-619.5452 1631.6315,-622.194 1642.7441,-626.0155 1674.1555,-638.3437 1678.782,-646.1932 1703.0446,-684.1069 1590.2523,-682.3477 1589.8624,-682.6201 1593.0935,-687.09 1734.9926,-737.4293 1737.4825,-734.6779 1740.6793,-734.0248 1750.3191,-732.2492 1767.0765,-729.8383 1765.8574,-614.8397 1761.7152,-578.2202 1763.3634,-577.6905 1757.125,-492.0695 1754.7247,-424.9373 1749.9381,-427.9856 1748.9645,-521.8953 1748.9645,-521.8953 1749.9381,-427.9856 1754.7247,-424.9373 1757.125,-492.0695 1763.3634,-577.6905 1761.7152,-578.2202 1765.8574,-614.8397 1767.0765,-729.8383 1776.4365,-728.8714 1796.1407,-727.634 1794.9788,-694.5642 1797.0002,-580.8367 1800.1353,-577.798 1797.0347,-574.8671 1797.0347,-574.8671 1800.1353,-577.798 1797.0002,-580.8367 1794.9788,-694.5642 1796.1407,-727.634 1803.1726,-727.6198 1819.2983,-728.5671 1829.8479,-729.4007 1836.0294,-730.1393 1844.6426,-725.9385 1979.2261,-663.6837 1981.5068,-630.1088 1981.5068,-630.1088"/>
<polyline fill="none" stroke="#000000" points="595.326,-556.1473 592.4756,-556.8726 587.4146,-558.0335 586.5115,-558.218 566.2558,-561.3534 564.7857,-561.5439 561.4939,-561.8881 553.273,-562.5424 545.6634,-562.5775 530.8893,-563.0275 530.0936,-563.0317 522.8716,-562.7079 521.9929,-562.6465 511.7573,-562.7229 509.9006,-562.8325 499.7823,-563.1757 482.5683,-564.6465 456.0049,-568.9641 425.9716,-562.0428 406.7325,-557.1287 403.3397,-556.0961 395.2041,-553.4186 389.4881,-551.3967 378.0753,-547.0786 368.3599,-542.928 366.9399,-542.2867 357.4585,-537.533 356.005,-537.9093 339.4327,-541.8532 287.4201,-553.123 268.253,-557.6815 268.0983,-557.7215 267.9487,-557.7665 257.9744,-560.9763 241.4525,-566.6436 231.245,-570.7873 230.3845,-571.1732 218.7292,-651.6182 212.5928,-687.8658 216.5463,-714.8875 216.7536,-716.5812 219.4735,-744.1226 317.4911,-873.9028 318.4783,-910.4634 364.8074,-951.7088 367.1977,-956.0849 422.5449,-1062.0687 514.1454,-1106.5496 518.582,-1112.3821 521.0829,-1114.5864 655.931,-1167.1613 658.4173,-1168.3102 663.3483,-1170.7108 674.2626,-1167.9629 681.2054,-1166.5116 687.2449,-1165.3779 697.4641,-1163.678 703.7165,-1162.9054 714.1611,-1161.8379 721.9953,-1161.3723 730.2255,-1158.8002 800.5244,-1140.1385 803.027,-1138.6305 816.1465,-1135.55 824.7814,-1133.7373 829.783,-1132.812 840.1295,-1131.4099 920.8351,-1124.4584 936.4268,-1122.089 976.3895,-1079.0151 1038.0334,-1059.7432 1063.5735,-1034.9369 1107.3185,-946.2049 1154.6882,-860.1741 1152.8052,-856.8839 1145.1039,-842.8853 1143.6873,-835.5394 1139.406,-830.1439 1123.6334,-812.149 1119.619,-807.7335 1103.0554,-791.4475 1101.1171,-789.4566 1088.9597,-777.9861 1076.6548,-767.4079 1075.1594,-766.2482 1071.0908,-762.9121 1060.927,-755.4346 1051.2441,-748.7241 1044.8384,-744.5656 1035.2,-739.1401 1020.705,-732.2178 1019.4261,-731.6635 966.2626,-710.9062 951.2316,-704.3821 949.2038,-677.5015 948.4974,-655.427 947.7435,-645.5733 947.4953,-643.5214 947.1289,-631.9965 936.1422,-486.3565 929.136,-484.9874 780.7629,-387.332 778.9697,-386.1084 760.4797,-373.036 747.9149,-363.5565 746.7791,-362.646 743.3178,-361.4793 732.7656,-357.5767 724.0627,-370.2506 691.9461,-414.0968 665.7165,-451.4308 600.2443,-554.7714 595.326,-556.1473 "/>
<polyline fill="none" stroke="#000000" points="511.7573,-562.7229 521.9929,-562.6465 522.8716,-562.7079 530.0936,-563.0317 530.8893,-563.0275 545.6634,-562.5775 553.273,-562.5424 561.4939,-561.8881 564.7857,-561.5439 566.2558,-561.3534 586.5115,-558.218 587.4146,-558.0335 592.4756,-556.8726 595.326,-556.1473 600.2443,-554.7714 665.7165,-451.4308 691.9461,-414.0968 724.0627,-370.2506 732.7656,-357.5767 724.3196,-345.5303 715.2356,-213.05 714.8886,-176.8855 712.0676,-151.3788 725.6193,-127.1583 756.162,-57.7856 751.6112,-37.5834 741.4916,18.7193 735.1985,59.1999 723.4755,84.1563 677.7026,121.6191 622.0516,126.2087 608.5267,127.6252 596.5079,125.0475 591.4633,124.1983 581.8231,123.016 574.1288,122.2483 557.8106,121.3665 552.0659,121.1879 540.0791,121.6383 531.0207,122.1862 528.3074,122.4123 526.9923,122.3975 526.2957,122.4055 507.9959,123.0312 446.1934,127.9451 405.2641,81.0998 366.2074,15.4375 357.0637,.7902 335.0221,-37.7809 331.4027,-43.6283 303.9515,-51.8881 289.0407,-57.7802 284.3434,-58.3327 278.1257,-58.9603 267.618,-59.8456 254.0765,-69.4102 251.9443,-70.8065 230.4974,-83.2779 205.6587,-95.2756 144.747,-121.6237 79.8489,-176.5906 46.7172,-221.4937 41.6745,-222.5558 35.4386,-223.6322 27.2926,-224.8841 -36.7705,-266.3404 -119.7905,-356.3668 -121.1081,-357.7409 -126.5314,-365.1817 -121.7247,-397.7212 -115.3346,-406.1941 -53.544,-495.3445 -19.6491,-529.249 33.0334,-529.2964 35.5706,-528.7579 50.3126,-526.3108 56.2714,-525.4608 62.7328,-524.6899 64.3103,-524.5386 74.5,-523.798 89.8134,-523.3989 111.0145,-524.3298 145.688,-526.6566 200.6448,-554.8738 219.1049,-564.8209 230.3845,-571.1732 231.245,-570.7873 241.4525,-566.6436 257.9744,-560.9763 267.9487,-557.7665 268.0983,-557.7215 268.253,-557.6815 287.4201,-553.123 339.4327,-541.8532 356.005,-537.9093 357.4585,-537.533 366.9399,-542.2867 368.3599,-542.928 378.0753,-547.0786 389.4881,-551.3967 395.2041,-553.4186 403.3397,-556.0961 406.7325,-557.1287 425.9716,-562.0428 456.0049,-568.9641 482.5683,-564.6465 499.7823,-563.1757 509.9006,-562.8325 511.7573,-562.7229 "/>
<polyline fill="none" stroke="#000000" points="1088.9597,-777.9861 1076.6548,-767.4079 1075.1594,-766.2482 1071.0908,-762.9121 1060.927,-755.4346 1051.2441,-748.7241 1044.8384,-744.5656 1035.2,-739.1401 1020.705,-732.2178 1019.4261,-731.6635 966.2626,-710.9062 951.2316,-704.3821 949.2038,-677.5015 948.4974,-655.427 947.7435,-645.5733 947.4953,-643.5214 947.1289,-631.9965 936.1422,-486.3565 984.546,-475.264 1053.1355,-418.908 1060.4464,-384.0432 1071.2175,-317.988 1080.4147,-251.3335 1122.4058,-218.4031 1201.8202,-216.2287 1216.799,-214.8561 1223.7126,-213.9262 1233.7046,-212.3677 1237.1069,-211.7642 1289.3203,-164.8005 1302.2947,-158.3575 1368.7172,-144.5472 1376.8459,-142.4781 1380.4874,-141.4663 1392.2725,-137.6353 1399.1304,-135.2449 1404.6824,-135.5348 1425.5511,-135.3246 1457.7979,-132.9941 1482.8552,-109.8876 1535.4585,-68.0574 1582.5161,-47.0848 1594.9674,-48.8893 1597.7629,-49.2314 1613.6664,-50.4634 1621.5096,-50.8939 1631.2085,-51.2075 1653.3354,-51.4236 1759.847,-104.6116 1767.0851,-181.2136 1763.5251,-199.65 1753.282,-281.6589 1760.1967,-299.356 1762.9152,-321.7945 1770.2607,-373.088 1776.9399,-409.1011 1784.012,-412.6062 1797.7723,-418.8112 1798.3628,-419.051 1809.8688,-423.4692 1815.0491,-425.3427 1822.6476,-427.9214 1846.8491,-434.5292 1889.7496,-445.2692 1966.4945,-510.8294 1972.924,-577.91 1981.5068,-630.1088 1979.2261,-663.6837 1844.6426,-725.9385 1836.0294,-730.1393 1829.8479,-729.4007 1819.2983,-728.5671 1803.1726,-727.6198 1796.1407,-727.634 1776.4365,-728.8714 1767.0765,-729.8383 1750.3191,-732.2492 1740.6793,-734.0248 1737.4825,-734.6779 1734.9926,-737.4293 1712.7876,-763.0627 1686.4124,-790.2325 1640.9194,-814.783 1610.4438,-824.2786 1592.7244,-824.8169 1578.6599,-825.8704 1566.5765,-827.3133 1561.1486,-828.0819 1547.4407,-830.6332 1540.824,-832.0111 1540.754,-832.0272 1525.5721,-836.2032 1521.3927,-837.4454 1508.697,-841.7864 1483.4631,-864.644 1462.1985,-875.8457 1409.4227,-877.3844 1386.6122,-878.5297 1379.7736,-879.3039 1370.9474,-880.4891 1356.8246,-882.6826 1348.9314,-884.4054 1346.4652,-884.9957 1331.9258,-881.7241 1324.0264,-880.2822 1310.8457,-878.7083 1286.7384,-876.8442 1191.5092,-871.5001 1154.6882,-860.1741 1152.8052,-856.8839 1145.1039,-842.8853 1143.6873,-835.5394 1139.406,-830.1439 1123.6334,-812.149 1119.619,-807.7335 1103.0554,-791.4475 1101.1171,-789.4566 1088.9597,-777.9861 "/>
<!-- 389&#45;ds&#45;base&#45;&gt;389&#45;ds&#45;base&#45;libs -->
<g id="edge1" class="edge">
<title>389&#45;ds&#45;base&#45;&gt;389&#45;ds&#45;base&#45;libs</title>
<path fill="none" stroke="#444444" stroke-opacity="0.333333" d="M684.9354,-780.5193C657.6288,-790.7128 623.3263,-803.5179 594.5775,-814.2498"/>
<polygon fill="#444444" fill-opacity="0.333333" stroke="#444444" stroke-opacity="0.333333" points="593.2034,-811.0268 585.0589,-817.8031 595.6515,-817.5847 593.2034,-811.0268"/>
</g>
<!-- 389&#45;ds&#45;base&#45;&gt;bind&#45;utils -->
<g id="edge2" class="edge">
<title>389&#45;ds&#45;base&#45;&gt;bind&#45;utils</title>
<path fill="none" stroke="#444444" stroke-opacity="0.333333" d="M720.5508,-744.1977C682.5861,-690.0161 570.4225,-529.9406 525.9589,-466.4838"/>
<polygon fill="#444444" fill-opacity="0.333333" stroke="#444444" stroke-opacity="0.333333" points="528.7538,-464.3733 520.1489,-458.1921 523.021,-468.3902 528.7538,-464.3733"/>
</g>
<!-- 389&#45;ds&#45;base&#45;&gt;cyrus&#45;sasl&#45;gssapi -->
<g id="edge3" class="edge">
<title>389&#45;ds&#45;base&#45;&gt;cyrus&#45;sasl&#45;gssapi</title>
<path fill="none" stroke="#444444" stroke-opacity="0.333333" d="M727.6949,-780.56C721.1412,-801.5851 710.2573,-836.5021 702.6246,-860.9888"/>
<polygon fill="#444444" fill-opacity="0.333333" stroke="#444444" stroke-opacity="0.333333" points="699.2091,-860.185 699.5746,-870.7736 705.892,-862.2682 699.2091,-860.185"/>
</g>
<!-- 389&#45;ds&#45;base&#45;&gt;cyrus&#45;sasl&#45;md5 -->
<g id="edge4" class="edge">
<title>389&#45;ds&#45;base&#45;&gt;cyrus&#45;sasl&#45;md5</title>
<path fill="none" stroke="#444444" stroke-opacity="0.333333" d="M730.1325,-780.8285C722.4338,-824.9404 702.8677,-937.0505 693.6655,-989.7776"/>
<polygon fill="#444444" fill-opacity="0.333333" stroke="#444444" stroke-opacity="0.333333" points="690.1899,-989.3351 691.9185,-999.788 697.0857,-990.5387 690.1899,-989.3351"/>
</g>
<!-- 389&#45;ds&#45;base&#45;&gt;libicu -->
<g id="edge5" class="edge">
<title>389&#45;ds&#45;base&#45;&gt;libicu</title>
<path fill="none" stroke="#444444" stroke-opacity="0.333333" d="M740.4232,-780.4568C756.4492,-821.1978 795.5785,-920.6716 814.6931,-969.2644"/>
<polygon fill="#444444" fill-opacity="0.333333" stroke="#444444" stroke-opacity="0.333333" points="811.5349,-970.7971 818.4526,-978.8218 818.0491,-968.2347 811.5349,-970.7971"/>
</g>
<!-- 389&#45;ds&#45;base&#45;&gt;libsemanage&#45;python -->
<g id="edge6" class="edge">
<title>389&#45;ds&#45;base&#45;&gt;libsemanage&#45;python</title>
<path fill="none" stroke="#444444" stroke-opacity="0.333333" d="M754.7855,-780.6859C788.3119,-809.1945 853.2058,-864.376 891.0078,-896.5204"/>
<polygon fill="#444444" fill-opacity="0.333333" stroke="#444444" stroke-opacity="0.333333" points="889.2091,-899.5852 899.0946,-903.3968 893.7437,-894.2524 889.2091,-899.5852"/>
</g>
<!-- 389&#45;ds&#45;base&#45;&gt;svrcore -->
<g id="edge7" class="edge">
<title>389&#45;ds&#45;base&#45;&gt;svrcore</title>
<path fill="none" stroke="#444444" stroke-opacity="0.333333" d="M715.2994,-780.5533C682.8663,-813.0991 614.6374,-881.5652 577.497,-918.8347"/>
<polygon fill="#444444" fill-opacity="0.333333" stroke="#444444" stroke-opacity="0.333333" points="574.6473,-916.736 570.0676,-926.2899 579.6056,-921.6771 574.6473,-916.736"/>
</g>
<!-- 389&#45;ds&#45;base&#45;&gt;nss&#45;tools -->
<g id="edge8" class="edge">
<title>389&#45;ds&#45;base&#45;&gt;nss&#45;tools</title>
<path fill="none" stroke="#444444" stroke-opacity="0.333333" d="M735.0525,-744.325C738.1796,-711.2281 744.8334,-640.8038 748.5496,-601.4717"/>
<polygon fill="#444444" fill-opacity="0.333333" stroke="#444444" stroke-opacity="0.333333" points="752.0364,-601.775 749.4927,-591.4901 745.0675,-601.1165 752.0364,-601.775"/>
</g>
<!-- 389&#45;ds&#45;base&#45;&gt;openldap&#45;clients -->
<g id="edge9" class="edge">
<title>389&#45;ds&#45;base&#45;&gt;openldap&#45;clients</title>
<path fill="none" stroke="#444444" stroke-opacity="0.333333" d="M749.8762,-744.1734C765.7968,-726.577 790.015,-699.8098 807.8138,-680.1376"/>
<polygon fill="#444444" fill-opacity="0.333333" stroke="#444444" stroke-opacity="0.333333" points="810.4142,-682.4803 814.5281,-672.7167 805.2235,-677.7838 810.4142,-682.4803"/>
</g>
<!-- 389&#45;ds&#45;base&#45;&gt;perl&#45;Mozilla&#45;LDAP -->
<g id="edge10" class="edge">
<title>389&#45;ds&#45;base&#45;&gt;perl&#45;Mozilla&#45;LDAP</title>
<path fill="none" stroke="#444444" stroke-opacity="0.333333" d="M803.0817,-775.5198C804.3582,-775.759 805.6404,-775.9993 806.9273,-776.2404"/>
<polygon fill="#444444" fill-opacity="0.333333" stroke="#444444" stroke-opacity="0.333333" points="806.3912,-779.7008 816.8648,-778.1028 807.6806,-772.8206 806.3912,-779.7008"/>
</g>
<!-- 389&#45;ds&#45;base&#45;&gt;perl&#45;NetAddr&#45;IP -->
<g id="edge11" class="edge">
<title>389&#45;ds&#45;base&#45;&gt;perl&#45;NetAddr&#45;IP</title>
<path fill="none" stroke="#444444" stroke-opacity="0.333333" d="M692.179,-744.4086C667.0664,-733.4015 634.7826,-719.2511 608.1504,-707.5779"/>
<polygon fill="#444444" fill-opacity="0.333333" stroke="#444444" stroke-opacity="0.333333" points="609.5509,-704.3704 598.9869,-703.5615 606.7407,-710.7816 609.5509,-704.3704"/>
</g>
<!-- 389&#45;ds&#45;base&#45;&gt;policycoreutils&#45;python&#45;utils -->
<g id="edge12" class="edge">
<title>389&#45;ds&#45;base&#45;&gt;policycoreutils&#45;python&#45;utils</title>
<path fill="none" stroke="#444444" stroke-opacity="0.333333" d="M788.9527,-744.3877C854.1716,-723.2053 962.146,-688.1365 1031.3709,-665.6531"/>
<polygon fill="#444444" fill-opacity="0.333333" stroke="#444444" stroke-opacity="0.333333" points="1032.8637,-668.8483 1041.2935,-662.4303 1030.7014,-662.1906 1032.8637,-668.8483"/>
</g>
<!-- 389&#45;ds&#45;base&#45;libs&#45;&gt;svrcore -->
<g id="edge13" class="edge">
<title>389&#45;ds&#45;base&#45;libs&#45;&gt;svrcore</title>
<path fill="none" stroke="#444444" stroke-opacity="0.333333" d="M539.1463,-854.3169C541.5814,-871.2361 545.2295,-896.5831 548.0343,-916.0713"/>
<polygon fill="#444444" fill-opacity="0.333333" stroke="#444444" stroke-opacity="0.333333" points="544.6038,-916.8053 549.4928,-926.2047 551.5324,-915.808 544.6038,-916.8053"/>
</g>
<!-- bind&#45;utils&#45;&gt;bind&#45;libs -->
<g id="edge14" class="edge">
<title>bind&#45;utils&#45;&gt;bind&#45;libs</title>
<path fill="none" stroke="#444444" stroke-opacity="0.333333" d="M493.1069,-422.079C476.9649,-401.8234 450.6412,-368.7915 432.2392,-345.7"/>
<polygon fill="#444444" fill-opacity="0.333333" stroke="#444444" stroke-opacity="0.333333" points="434.821,-343.3237 425.8515,-337.6845 429.3466,-347.6862 434.821,-343.3237"/>
</g>
<!-- bind&#45;utils&#45;&gt;bind&#45;libs&#45;lite -->
<g id="edge15" class="edge">
<title>bind&#45;utils&#45;&gt;bind&#45;libs&#45;lite</title>
<path fill="none" stroke="#444444" stroke-opacity="0.333333" d="M499.5353,-422.1172C482.8509,-384.3628 444.1389,-296.7634 424.3231,-251.9232"/>
<polygon fill="#444444" fill-opacity="0.333333" stroke="#444444" stroke-opacity="0.333333" points="427.4125,-250.2551 420.169,-242.5232 421.0099,-253.0847 427.4125,-250.2551"/>
</g>
<!-- bind&#45;utils&#45;&gt;GeoIP -->
<g id="edge16" class="edge">
<title>bind&#45;utils&#45;&gt;GeoIP</title>
<path fill="none" stroke="#444444" stroke-opacity="0.333333" d="M510.3996,-421.9401C516.6977,-382.4092 531.665,-288.4641 539.1932,-241.2125"/>
<polygon fill="#444444" fill-opacity="0.333333" stroke="#444444" stroke-opacity="0.333333" points="542.6496,-241.7627 540.7666,-231.3365 535.7367,-240.6613 542.6496,-241.7627"/>
</g>
<!-- bind&#45;utils&#45;&gt;python3&#45;bind -->
<g id="edge17" class="edge">
<title>bind&#45;utils&#45;&gt;python3&#45;bind</title>
<path fill="none" stroke="#444444" stroke-opacity="0.333333" d="M442.6816,-430.0821C409.887,-424.9933 369.6358,-418.7475 334.2599,-413.2581"/>
<polygon fill="#444444" fill-opacity="0.333333" stroke="#444444" stroke-opacity="0.333333" points="334.3565,-409.7313 323.9381,-411.6565 333.2831,-416.6486 334.3565,-409.7313"/>
</g>
<!-- perl&#45;NetAddr&#45;IP&#45;&gt;perl&#45;Socket6 -->
<g id="edge18" class="edge">
<title>perl&#45;NetAddr&#45;IP&#45;&gt;perl&#45;Socket6</title>
<path fill="none" stroke="#444444" stroke-opacity="0.333333" d="M466.676,-690.0202C466.5107,-690.0284 466.3454,-690.0366 466.1801,-690.0448"/>
<polygon fill="#444444" fill-opacity="0.333333" stroke="#444444" stroke-opacity="0.333333" points="468.579,-686.4214 458.7648,-690.4128 468.926,-693.4128 468.579,-686.4214"/>
</g>
<!-- policycoreutils&#45;python&#45;utils&#45;&gt;policycoreutils&#45;python3 -->
<g id="edge19" class="edge">
<title>policycoreutils&#45;python&#45;utils&#45;&gt;policycoreutils&#45;python3</title>
<path fill="none" stroke="#444444" stroke-opacity="0.333333" d="M1134.3624,-626.2387C1181.9803,-603.1923 1264.1786,-563.4094 1315.7669,-538.4414"/>
<polygon fill="#444444" fill-opacity="0.333333" stroke="#444444" stroke-opacity="0.333333" points="1317.5517,-541.466 1325.0281,-533.9591 1314.5022,-535.1652 1317.5517,-541.466"/>
</g>
<!-- bind&#45;libs&#45;&gt;bind&#45;libs&#45;lite -->
<g id="edge20" class="edge">
<title>bind&#45;libs&#45;&gt;bind&#45;libs&#45;lite</title>
<path fill="none" stroke="#444444" stroke-opacity="0.333333" d="M411.5142,-301.1638C411.6293,-287.4812 411.7888,-268.5297 411.9204,-252.8808"/>
<polygon fill="#444444" fill-opacity="0.333333" stroke="#444444" stroke-opacity="0.333333" points="415.4219,-252.7091 412.0062,-242.6799 408.4221,-252.6501 415.4219,-252.7091"/>
</g>
<!-- bind&#45;libs&#45;&gt;GeoIP -->
<g id="edge21" class="edge">
<title>bind&#45;libs&#45;&gt;GeoIP</title>
<path fill="none" stroke="#444444" stroke-opacity="0.333333" d="M433.8063,-301.4422C455.6671,-283.8554 489.0532,-256.9967 513.2862,-237.5015"/>
<polygon fill="#444444" fill-opacity="0.333333" stroke="#444444" stroke-opacity="0.333333" points="515.5259,-240.1917 521.1236,-231.1964 511.1381,-234.7376 515.5259,-240.1917"/>
</g>
<!-- bind&#45;libs&#45;&gt;bind&#45;license -->
<g id="edge22" class="edge">
<title>bind&#45;libs&#45;&gt;bind&#45;license</title>
<path fill="none" stroke="#444444" stroke-opacity="0.333333" d="M371.4397,-301.4748C347.7155,-290.7627 317.4352,-277.0903 292.2249,-265.7071"/>
<polygon fill="#444444" fill-opacity="0.333333" stroke="#444444" stroke-opacity="0.333333" points="293.3897,-262.3928 282.8353,-261.4674 290.509,-268.7726 293.3897,-262.3928"/>
</g>
<!-- bind&#45;libs&#45;lite&#45;&gt;GeoIP -->
<g id="edge23" class="edge">
<title>bind&#45;libs&#45;lite&#45;&gt;GeoIP</title>
<path fill="none" stroke="#444444" stroke-opacity="0.333333" d="M498.4183,-216.956C498.5817,-216.9419 498.7449,-216.9278 498.9079,-216.9138"/>
<polygon fill="#444444" fill-opacity="0.333333" stroke="#444444" stroke-opacity="0.333333" points="496.4369,-220.6402 506.0989,-216.2932 495.835,-213.6661 496.4369,-220.6402"/>
</g>
<!-- bind&#45;libs&#45;lite&#45;&gt;bind&#45;license -->
<g id="edge24" class="edge">
<title>bind&#45;libs&#45;lite&#45;&gt;bind&#45;license</title>
<path fill="none" stroke="#444444" stroke-opacity="0.333333" d="M326.0475,-234.0873C325.8944,-234.1046 325.7413,-234.1218 325.5882,-234.139"/>
<polygon fill="#444444" fill-opacity="0.333333" stroke="#444444" stroke-opacity="0.333333" points="328.2572,-230.3165 318.7111,-234.9127 329.0398,-237.2727 328.2572,-230.3165"/>
</g>
<!-- GeoIP&#45;&gt;GeoIP&#45;GeoLite&#45;data -->
<g id="edge25" class="edge">
<title>GeoIP&#45;&gt;GeoIP&#45;GeoLite&#45;data</title>
<path fill="none" stroke="#444444" stroke-opacity="0.333333" d="M545.1981,-195.0498C548.0675,-161.0266 554.3067,-87.0483 557.7422,-46.3124"/>
<polygon fill="#444444" fill-opacity="0.333333" stroke="#444444" stroke-opacity="0.333333" points="561.2388,-46.4991 558.5917,-36.2403 554.2636,-45.9107 561.2388,-46.4991"/>
</g>
<!-- python3&#45;bind&#45;&gt;bind&#45;license -->
<g id="edge26" class="edge">
<title>python3&#45;bind&#45;&gt;bind&#45;license</title>
<path fill="none" stroke="#444444" stroke-opacity="0.333333" d="M247.3885,-381.6193C246.5108,-354.5382 244.8562,-303.4883 243.8225,-271.5941"/>
<polygon fill="#444444" fill-opacity="0.333333" stroke="#444444" stroke-opacity="0.333333" points="247.3199,-271.4558 243.4977,-261.5744 240.3236,-271.6826 247.3199,-271.4558"/>
</g>
<!-- python3&#45;bind&#45;&gt;python3&#45;ply -->
<g id="edge27" class="edge">
<title>python3&#45;bind&#45;&gt;python3&#45;ply</title>
<path fill="none" stroke="#444444" stroke-opacity="0.333333" d="M172.3071,-395.6206C164.6459,-395.1904 156.8482,-394.7525 149.1473,-394.3201"/>
<polygon fill="#444444" fill-opacity="0.333333" stroke="#444444" stroke-opacity="0.333333" points="149.2794,-390.8221 139.0989,-393.7558 148.8869,-397.8111 149.2794,-390.8221"/>
</g>
<!-- policycoreutils&#45;python3&#45;&gt;audit&#45;libs&#45;python3 -->
<g id="edge28" class="edge">
<title>policycoreutils&#45;python3&#45;&gt;audit&#45;libs&#45;python3</title>
<path fill="none" stroke="#444444" stroke-opacity="0.333333" d="M1385.7559,-497.8296C1423.3068,-468.8685 1496.9541,-412.068 1538.9687,-379.6642"/>
<polygon fill="#444444" fill-opacity="0.333333" stroke="#444444" stroke-opacity="0.333333" points="1541.1488,-382.4029 1546.9298,-373.5243 1536.8738,-376.86 1541.1488,-382.4029"/>
</g>
<!-- policycoreutils&#45;python3&#45;&gt;libsemanage&#45;python3 -->
<g id="edge29" class="edge">
<title>policycoreutils&#45;python3&#45;&gt;libsemanage&#45;python3</title>
<path fill="none" stroke="#444444" stroke-opacity="0.333333" d="M1381.6226,-534.0608C1413.3477,-563.8455 1476.5532,-623.1853 1512.6915,-657.1134"/>
<polygon fill="#444444" fill-opacity="0.333333" stroke="#444444" stroke-opacity="0.333333" points="1510.7151,-660.0586 1520.4012,-664.3515 1515.5063,-654.9552 1510.7151,-660.0586"/>
</g>
<!-- policycoreutils&#45;python3&#45;&gt;libselinux&#45;python3 -->
<g id="edge30" class="edge">
<title>policycoreutils&#45;python3&#45;&gt;libselinux&#45;python3</title>
<path fill="none" stroke="#444444" stroke-opacity="0.333333" d="M1361.1517,-534.2401C1358.8396,-571.1262 1353.6101,-654.5561 1350.8623,-698.3943"/>
<polygon fill="#444444" fill-opacity="0.333333" stroke="#444444" stroke-opacity="0.333333" points="1347.3688,-698.1828 1350.2363,-708.3822 1354.3551,-698.6208 1347.3688,-698.1828"/>
</g>
<!-- policycoreutils&#45;python3&#45;&gt;policycoreutils -->
<g id="edge31" class="edge">
<title>policycoreutils&#45;python3&#45;&gt;policycoreutils</title>
<path fill="none" stroke="#444444" stroke-opacity="0.333333" d="M1484.2068,-533.9574C1487.5636,-534.4541 1490.9144,-534.9498 1494.2479,-535.4431"/>
<polygon fill="#444444" fill-opacity="0.333333" stroke="#444444" stroke-opacity="0.333333" points="1493.7808,-538.912 1504.1854,-536.9134 1494.8055,-531.9874 1493.7808,-538.912"/>
</g>
<!-- policycoreutils&#45;python3&#45;&gt;checkpolicy -->
<g id="edge32" class="edge">
<title>policycoreutils&#45;python3&#45;&gt;checkpolicy</title>
<path fill="none" stroke="#444444" stroke-opacity="0.333333" d="M1346.7712,-497.8385C1323.354,-470.5718 1278.8734,-418.7791 1251.8433,-387.3055"/>
<polygon fill="#444444" fill-opacity="0.333333" stroke="#444444" stroke-opacity="0.333333" points="1254.2129,-384.6927 1245.0424,-379.3867 1248.9025,-389.2534 1254.2129,-384.6927"/>
</g>
<!-- policycoreutils&#45;python3&#45;&gt;libcgroup -->
<g id="edge33" class="edge">
<title>policycoreutils&#45;python3&#45;&gt;libcgroup</title>
<path fill="none" stroke="#444444" stroke-opacity="0.333333" d="M1269.9441,-533.9735C1256.5758,-536.5867 1243.012,-539.2381 1230.2056,-541.7414"/>
<polygon fill="#444444" fill-opacity="0.333333" stroke="#444444" stroke-opacity="0.333333" points="1229.2584,-538.3603 1220.1156,-543.7138 1230.6014,-545.2302 1229.2584,-538.3603"/>
</g>
<!-- policycoreutils&#45;python3&#45;&gt;python3&#45;IPy -->
<g id="edge34" class="edge">
<title>policycoreutils&#45;python3&#45;&gt;python3&#45;IPy</title>
<path fill="none" stroke="#444444" stroke-opacity="0.333333" d="M1364.9836,-497.7507C1370.9273,-457.5093 1385.2361,-360.6321 1392.3459,-312.4949"/>
<polygon fill="#444444" fill-opacity="0.333333" stroke="#444444" stroke-opacity="0.333333" points="1395.8301,-312.859 1393.8288,-302.4549 1388.9052,-311.8362 1395.8301,-312.859"/>
</g>
<!-- policycoreutils&#45;python3&#45;&gt;setools&#45;python3 -->
<g id="edge35" class="edge">
<title>policycoreutils&#45;python3&#45;&gt;setools&#45;python3</title>
<path fill="none" stroke="#444444" stroke-opacity="0.333333" d="M1369.764,-497.4517C1376.7276,-480.2215 1387.2081,-454.2894 1395.1609,-434.6116"/>
<polygon fill="#444444" fill-opacity="0.333333" stroke="#444444" stroke-opacity="0.333333" points="1398.4441,-435.8285 1398.9462,-425.2456 1391.9541,-433.2055 1398.4441,-435.8285"/>
</g>
<!-- audit&#45;libs&#45;python3&#45;&gt;audit -->
<g id="edge36" class="edge">
<title>audit&#45;libs&#45;python3&#45;&gt;audit</title>
<path fill="none" stroke="#444444" stroke-opacity="0.333333" d="M1574.8735,-337.317C1581.6597,-310.3363 1594.4524,-259.4757 1602.4448,-227.6997"/>
<polygon fill="#444444" fill-opacity="0.333333" stroke="#444444" stroke-opacity="0.333333" points="1605.9106,-228.2689 1604.9557,-217.7172 1599.1221,-226.5614 1605.9106,-228.2689"/>
</g>
<!-- libsemanage&#45;python3&#45;&gt;libselinux&#45;python3 -->
<g id="edge37" class="edge">
<title>libsemanage&#45;python3&#45;&gt;libselinux&#45;python3</title>
<path fill="none" stroke="#444444" stroke-opacity="0.333333" d="M1461.6257,-700.5098C1453.5129,-702.3844 1445.2277,-704.2987 1437.0162,-706.1961"/>
<polygon fill="#444444" fill-opacity="0.333333" stroke="#444444" stroke-opacity="0.333333" points="1436.0082,-702.8367 1427.0528,-708.4982 1437.5841,-709.657 1436.0082,-702.8367"/>
</g>
<!-- policycoreutils&#45;&gt;libselinux&#45;utils -->
<g id="edge38" class="edge">
<title>policycoreutils&#45;&gt;libselinux&#45;utils</title>
<path fill="none" stroke="#444444" stroke-opacity="0.333333" d="M1686.3144,-563.1779C1686.4769,-563.2007 1686.6393,-563.2235 1686.8018,-563.2463"/>
<polygon fill="#444444" fill-opacity="0.333333" stroke="#444444" stroke-opacity="0.333333" points="1683.7345,-566.3497 1694.1241,-564.2748 1684.7082,-559.4178 1683.7345,-566.3497"/>
</g>
<!-- 389&#45;ds&#45;base -->
<g id="node1" class="node">
<title>389&#45;ds&#45;base</title>
<text text-anchor="middle" x="733.34" y="-758.75" font-family="monospace" font-size="14.00" fill="#000000">389&#45;ds&#45;base</text>
</g>
<!-- 389&#45;ds&#45;base&#45;libs -->
<g id="node2" class="node">
<title>389&#45;ds&#45;base&#45;libs</title>
<text text-anchor="middle" x="536.5" y="-832.23" font-family="monospace" font-size="14.00" fill="#000000">389&#45;ds&#45;base&#45;libs</text>
</g>
<!-- bind&#45;utils -->
<g id="node3" class="node">
<title>bind&#45;utils</title>
<text text-anchor="middle" x="507.5" y="-436.44" font-family="monospace" font-size="14.00" fill="#000000">bind&#45;utils</text>
</g>
<!-- cyrus&#45;sasl&#45;gssapi -->
<g id="node4" class="node">
<title>cyrus&#45;sasl&#45;gssapi</title>
<text text-anchor="middle" x="693.94" y="-885.15" font-family="monospace" font-size="14.00" fill="#000000">cyrus&#45;sasl&#45;gssapi</text>
</g>
<!-- cyrus&#45;sasl&#45;md5 -->
<g id="node5" class="node">
<title>cyrus&#45;sasl&#45;md5</title>
<text text-anchor="middle" x="688.74" y="-1014.3" font-family="monospace" font-size="14.00" fill="#000000">cyrus&#45;sasl&#45;md5</text>
</g>
<!-- libicu -->
<g id="node6" class="node">
<title>libicu</title>
<text text-anchor="middle" x="825.56" y="-993.19" font-family="monospace" font-size="14.00" fill="#000000">libicu</text>
</g>
<!-- libsemanage&#45;python -->
<g id="node7" class="node">
<title>libsemanage&#45;python</title>
<text text-anchor="middle" x="920.29" y="-917.72" font-family="monospace" font-size="14.00" fill="#000000">libsemanage&#45;python</text>
</g>
<!-- svrcore -->
<g id="node8" class="node">
<title>svrcore</title>
<text text-anchor="middle" x="552.1" y="-940.62" font-family="monospace" font-size="14.00" fill="#000000">svrcore</text>
</g>
<!-- nss&#45;tools -->
<g id="node9" class="node">
<title>nss&#45;tools</title>
<text text-anchor="middle" x="751.2" y="-569.72" font-family="monospace" font-size="14.00" fill="#000000">nss&#45;tools</text>
</g>
<!-- openldap&#45;clients -->
<g id="node10" class="node">
<title>openldap&#45;clients</title>
<text text-anchor="middle" x="830.82" y="-651.01" font-family="monospace" font-size="14.00" fill="#000000">openldap&#45;clients</text>
</g>
<!-- perl&#45;Mozilla&#45;LDAP -->
<g id="node11" class="node">
<title>perl&#45;Mozilla&#45;LDAP</title>
<text text-anchor="middle" x="913.06" y="-792.43" font-family="monospace" font-size="14.00" fill="#000000">perl&#45;Mozilla&#45;LDAP</text>
</g>
<!-- perl&#45;NetAddr&#45;IP -->
<g id="node12" class="node">
<title>perl&#45;NetAddr&#45;IP</title>
<text text-anchor="middle" x="557.78" y="-681.8" font-family="monospace" font-size="14.00" fill="#000000">perl&#45;NetAddr&#45;IP</text>
</g>
<!-- policycoreutils&#45;python&#45;utils -->
<g id="node13" class="node">
<title>policycoreutils&#45;python&#45;utils</title>
<text text-anchor="middle" x="1096.9" y="-640.67" font-family="monospace" font-size="14.00" fill="#000000">policycoreutils&#45;python&#45;utils</text>
</g>
<!-- bind&#45;libs -->
<g id="node14" class="node">
<title>bind&#45;libs</title>
<text text-anchor="middle" x="411.36" y="-315.8" font-family="monospace" font-size="14.00" fill="#000000">bind&#45;libs</text>
</g>
<!-- bind&#45;libs&#45;lite -->
<g id="node15" class="node">
<title>bind&#45;libs&#45;lite</title>
<text text-anchor="middle" x="412.16" y="-220.7" font-family="monospace" font-size="14.00" fill="#000000">bind&#45;libs&#45;lite</text>
</g>
<!-- GeoIP -->
<g id="node16" class="node">
<title>GeoIP</title>
<text text-anchor="middle" x="543.68" y="-209.35" font-family="monospace" font-size="14.00" fill="#000000">GeoIP</text>
</g>
<!-- python3&#45;bind -->
<g id="node17" class="node">
<title>python3&#45;bind</title>
<text text-anchor="middle" x="247.98" y="-396.17" font-family="monospace" font-size="14.00" fill="#000000">python3&#45;bind</text>
</g>
<!-- perl&#45;Socket6 -->
<g id="node18" class="node">
<title>perl&#45;Socket6</title>
<text text-anchor="middle" x="383.24" y="-690.46" font-family="monospace" font-size="14.00" fill="#000000">perl&#45;Socket6</text>
</g>
<!-- policycoreutils&#45;python3 -->
<g id="node19" class="node">
<title>policycoreutils&#45;python3</title>
<text text-anchor="middle" x="1362.3" y="-512.22" font-family="monospace" font-size="14.00" fill="#000000">policycoreutils&#45;python3</text>
</g>
<!-- bind&#45;license -->
<g id="node20" class="node">
<title>bind&#45;license</title>
<text text-anchor="middle" x="242.91" y="-239.74" font-family="monospace" font-size="14.00" fill="#000000">bind&#45;license</text>
</g>
<!-- GeoIP&#45;GeoLite&#45;data -->
<g id="node21" class="node">
<title>GeoIP&#45;GeoLite&#45;data</title>
<text text-anchor="middle" x="560.13" y="-14.3" font-family="monospace" font-size="14.00" fill="#000000">GeoIP&#45;GeoLite&#45;data</text>
</g>
<!-- python3&#45;ply -->
<g id="node22" class="node">
<title>python3&#45;ply</title>
<text text-anchor="middle" x="69.544" y="-386.15" font-family="monospace" font-size="14.00" fill="#000000">python3&#45;ply</text>
</g>
<!-- audit&#45;libs&#45;python3 -->
<g id="node23" class="node">
<title>audit&#45;libs&#45;python3</title>
<text text-anchor="middle" x="1570.3" y="-351.8" font-family="monospace" font-size="14.00" fill="#000000">audit&#45;libs&#45;python3</text>
</g>
<!-- libsemanage&#45;python3 -->
<g id="node24" class="node">
<title>libsemanage&#45;python3</title>
<text text-anchor="middle" x="1539.7" y="-678.77" font-family="monospace" font-size="14.00" fill="#000000">libsemanage&#45;python3</text>
</g>
<!-- libselinux&#45;python3 -->
<g id="node25" class="node">
<title>libselinux&#45;python3</title>
<text text-anchor="middle" x="1349.1" y="-722.81" font-family="monospace" font-size="14.00" fill="#000000">libselinux&#45;python3</text>
</g>
<!-- policycoreutils -->
<g id="node26" class="node">
<title>policycoreutils</title>
<text text-anchor="middle" x="1595.2" y="-546.68" font-family="monospace" font-size="14.00" fill="#000000">policycoreutils</text>
</g>
<!-- checkpolicy -->
<g id="node27" class="node">
<title>checkpolicy</title>
<text text-anchor="middle" x="1229.2" y="-357.24" font-family="monospace" font-size="14.00" fill="#000000">checkpolicy</text>
</g>
<!-- libcgroup -->
<g id="node28" class="node">
<title>libcgroup</title>
<text text-anchor="middle" x="1161.1" y="-551.55" font-family="monospace" font-size="14.00" fill="#000000">libcgroup</text>
</g>
<!-- python3&#45;IPy -->
<g id="node29" class="node">
<title>python3&#45;IPy</title>
<text text-anchor="middle" x="1396.5" y="-280.67" font-family="monospace" font-size="14.00" fill="#000000">python3&#45;IPy</text>
</g>
<!-- setools&#45;python3 -->
<g id="node30" class="node">
<title>setools&#45;python3</title>
<text text-anchor="middle" x="1406.3" y="-403.35" font-family="monospace" font-size="14.00" fill="#000000">setools&#45;python3</text>
</g>
<!-- audit -->
<g id="node31" class="node">
<title>audit</title>
<text text-anchor="middle" x="1609.5" y="-195.95" font-family="monospace" font-size="14.00" fill="#000000">audit</text>
</g>
<!-- libselinux&#45;utils -->
<g id="node32" class="node">
<title>libselinux&#45;utils</title>
<text text-anchor="middle" x="1791.2" y="-574.21" font-family="monospace" font-size="14.00" fill="#000000">libselinux&#45;utils</text>
</g>
</g>
</svg>
