<?xml version="1.0" encoding="UTF-8" standalone="no"?>
<!DOCTYPE svg PUBLIC "-//W3C//DTD SVG 1.1//EN"
 "http://www.w3.org/Graphics/SVG/1.1/DTD/svg11.dtd">
<!-- Generated by graphviz version 2.40.1 (20161225.0304)
 -->
<!-- Title: G Pages: 1 -->
<svg width="1853pt" height="1114pt"
 viewBox="0.00 0.00 1853.47 1113.97" xmlns="http://www.w3.org/2000/svg" xmlns:xlink="http://www.w3.org/1999/xlink">
<g id="graph0" class="graph" transform="scale(1 1) rotate(0) translate(133.8587 990.5237)">
<title>G</title>
<polygon fill="#dae2ff" stroke="transparent" points="-133.8587,123.4506 -133.8587,-990.5237 1719.6133,-990.5237 1719.6133,123.4506 -133.8587,123.4506"/>
<polygon fill="#decbe4" stroke="#decbe4" points="970.1578,-638.4816 923.6027,-636.1981 904.7385,-636.5589 911.8566,-624.2345 938.6409,-571.4808 940.0397,-569.0405 940.1312,-568.8978 968.269,-529.4162 972.3768,-529.4984 976.7527,-529.3525 978.0366,-529.4147 980.26,-529.4628 991.4577,-529.4059 993.3411,-529.4992 995.8341,-530.9752 1006.8977,-536.3618 1013.2596,-539.2352 1014.3002,-539.6324 1032.9561,-546.1195 1033.4121,-546.2617 1040.8387,-548.0582 1044.0754,-548.7283 1046.0059,-549.0611 1061.8702,-551.2478 1064.1073,-551.3996 1068.7048,-551.5519 1070.245,-551.5494 1077.1766,-551.2966 1079.559,-551.2991 1079.9012,-551.2875 1087.1322,-551.3145 1089.0842,-551.3948 1089.996,-551.4007 1091.1505,-551.4949 1092.998,-551.581 1095.5978,-632.4432 1095.9861,-632.5513 1100.2882,-632.5513 1100.9093,-632.3818 1104.921,-632.3818 1105.3646,-632.2614 1109.9498,-632.2614 1110.406,-632.3865 1109.7222,-728.538 1119.3616,-727.4952 1118.2754,-665.3618 1118.2754,-665.3618 1119.3616,-727.4952 1109.7222,-728.538 1110.406,-632.3865 1109.9498,-632.2614 1105.3646,-632.2614 1104.921,-632.3818 1100.9093,-632.3818 1100.2882,-632.5513 1095.9861,-632.5513 1095.5978,-632.4432 1092.998,-551.581 1095.7183,-551.613 1105.0629,-551.3959 1108.2411,-551.2108 1108.7242,-551.219 1112.3347,-551.4167 1115.4155,-551.37 1126.1949,-551.6129 1130.1818,-551.5631 1204.5198,-553.4257 1206.8324,-541.5277 1215.4835,-488.2603 1217.1417,-470.49 1224.4517,-432.8834 1237.2917,-411.7245 1254.3763,-385.2994 1287.4822,-336.7635 1291.8276,-330.6496 1306.3438,-331.4407 1308.5696,-331.5275 1312.3917,-503.5177 1313.3431,-505.094 1316.6412,-505.094 1316.7239,-505.0704 1316.7239,-505.0704 1316.6412,-505.094 1313.3431,-505.094 1312.3917,-503.5177 1308.5696,-331.5275 1308.9446,-331.5363 1426.991,-244.4247 1438.2896,-236.8195 1474.6207,-236.3463 1474.9161,-336.8383 1474.9161,-336.8383 1474.6207,-236.3463 1479.7588,-236.0677 1490.0039,-235.3006 1504.6194,-233.6033 1508.7703,-232.9507 1511.6716,-333.221 1509.5012,-375.9513 1508.3,-375.9513 1504.7542,-372.7876 1504.7542,-372.7876 1508.3,-375.9513 1509.5012,-375.9513 1511.6716,-333.221 1508.7703,-232.9507 1519.4122,-230.8364 1536.5316,-227.0814 1548.1683,-224.2932 1566.9104,-223.6392 1590.3108,-235.6745 1608.0555,-253.6665 1664.4399,-365.7796 1699.7928,-395.4376 1702.933,-432.4128 1709.8152,-496.0103 1715.6133,-533.9637 1600.5623,-606.2268 1567.8307,-605.6229 1567.0032,-516.0421 1569.6002,-480.2223 1565.2095,-476.0759 1565.9385,-472.821 1563.9282,-470.9671 1563.9282,-470.9671 1565.9385,-472.821 1565.2095,-476.0759 1569.6002,-480.2223 1567.0032,-516.0421 1567.8307,-605.6229 1559.8994,-605.8264 1554.4718,-605.1341 1548.4016,-604.6315 1547.7799,-479.1122 1474.6022,-500.9654 1473.7656,-497.1504 1413.1768,-501.3279 1399.0468,-498.7795 1399.0468,-498.7795 1413.1768,-501.3279 1473.7656,-497.1504 1474.6022,-500.9654 1547.7799,-479.1122 1548.4016,-604.6315 1495.3859,-601.4268 1478.2106,-521.6422 1399.0115,-510.7208 1395.3734,-506.9938 1393.6543,-506.408 1391.8062,-504.9886 1389.6851,-504.9886 1389.6851,-504.9886 1391.8062,-504.9886 1393.6543,-506.408 1395.3734,-506.9938 1399.0115,-510.7208 1478.2106,-521.6422 1495.3859,-601.4268 1418.077,-648.788 1416.2178,-658.1746 1409.2473,-698.1662 1403.3027,-745.8376 1369.0209,-794.7776 1366.9373,-820.5528 1364.6566,-860.5461 1362.3842,-863.8997 1305.62,-952.2381 1235.5336,-980.8806 1235.5231,-980.8851 1229.8563,-861.5958 1231.2822,-821.752 1231.4,-821.7186 1231.5085,-821.5038 1235.7928,-816.9002 1239.9127,-753.647 1244.251,-753.5886 1248.326,-753.7173 1252.6573,-754.244 1260.8207,-755.607 1271.361,-757.8427 1273.0284,-758.2701 1277.0518,-759.4812 1277.1028,-758.275 1277.1028,-758.275 1277.0518,-759.4812 1273.0284,-758.2701 1271.361,-757.8427 1260.8207,-755.607 1252.6573,-754.244 1248.326,-753.7173 1244.251,-753.5886 1239.9127,-753.647 1235.7928,-816.9002 1231.5085,-821.5038 1231.4,-821.7186 1231.2822,-821.752 1229.8563,-861.5958 1235.5231,-980.8851 1223.5165,-986.5237 1216.4744,-983.4463 1201.1414,-977.3496 1201.5765,-962.4874 1203.4891,-923.2046 1203.4891,-923.2046 1201.5765,-962.4874 1201.1414,-977.3496 1195.2693,-975.3634 1178.1224,-970.2308 1185.2031,-826.7054 1189.8934,-825.3876 1194.1312,-821.7352 1190.3146,-818.5356 1185.243,-817.0891 1185.243,-817.0891 1190.3146,-818.5356 1194.1312,-821.7352 1189.8934,-825.3876 1185.2031,-826.7054 1178.1224,-970.2308 1175.6083,-969.5281 1153.5221,-965.075 1153.7601,-927.0227 1152.9205,-885.7515 1152.9205,-885.7515 1153.7601,-927.0227 1153.5221,-965.075 1137,-962.7158 1052.6654,-955.6362 1003.3382,-934.0059 988.916,-921.3861 1000.572,-870.5836 1015.0822,-799.8859 1019.793,-768.81 1021.2419,-762.4954 1019.4617,-760.654 1015.1341,-756.3617 1007.5042,-749.4268 994.3673,-738.0328 983.9317,-729.8902 982.9267,-729.1934 966.8853,-719.3746 903.584,-683.3726 886.1923,-672.6896 881.4842,-669.1882 904.7385,-636.5589 923.6027,-636.1981 970.1578,-638.4816 974.3268,-635.3114 976.146,-632.1487 980.0507,-632.1487 980.2486,-632.0923 985.1329,-632.0923 984.5428,-715.0073 990.7288,-632.5323 990.7288,-632.5323 984.5428,-715.0073 985.1329,-632.0923 980.2486,-632.0923 980.0507,-632.1487 976.146,-632.1487 974.3268,-635.3114 970.1578,-638.4816 970.1578,-638.4816"/>
<polygon fill="#ccebc5" stroke="#ccebc5" points="-60.6214,-450.727 -103.3646,-527.697 -129.5921,-572.2904 -129.7874,-577.6138 -129.8587,-578.8619 -111.1809,-616.1027 -92.1636,-656.3248 -1.5078,-732.9985 17.5318,-728.3907 20.1774,-720.4967 21.38,-717.127 31.5361,-690.3647 39.1733,-671.6553 39.1733,-671.6553 31.5361,-690.3647 21.38,-717.127 20.1774,-720.4967 17.5318,-728.3907 106.1177,-735.2212 107.5527,-607.911 112.3395,-604.3654 114.076,-601.2975 117.2729,-601.2975 118.9367,-603.3782 123.2556,-605.9226 123.2556,-605.9226 118.9367,-603.3782 117.2729,-601.2975 114.076,-601.2975 112.3395,-604.3654 107.5527,-607.911 106.1177,-735.2212 115.0846,-736.107 129.6915,-738.1831 134.5955,-739.0916 145.4854,-741.5822 212.9879,-758.4814 224.3044,-756.4982 284.5393,-774.1917 290.1664,-763.4379 307.7144,-731.2581 318.7135,-713.8696 333.0371,-693.5615 334.9254,-691.0534 347.7142,-675.15 361.342,-656.5977 395.2238,-598.07 412.8376,-576.1666 356.4854,-498.68 341.5714,-481.8867 331.696,-470.1893 327.4972,-469.7928 318.3797,-468.7242 302.1234,-465.7052 292.0801,-463.3837 217.2354,-444.392 196.6658,-426.6741 148.8225,-438.8218 145.5796,-439.5257 56.0786,-433.3279 34.3195,-430.9145 33.4659,-430.7668 18.3126,-427.8282 14.9757,-427.8828 -13.5813,-427.7841 -60.6214,-450.727 -60.6214,-450.727"/>
<polygon fill="#fed9a6" stroke="#fed9a6" points="1021.2419,-762.4954 1019.793,-768.81 1015.0822,-799.8859 1000.572,-870.5836 988.916,-921.3861 961.0712,-923.0687 893.2452,-905.02 892.0044,-904.7166 890.6802,-904.449 881.5511,-768.8784 877.0734,-768.8784 876.7277,-768.7824 873.0996,-768.7824 872.4401,-768.5938 872.4401,-768.5938 873.0996,-768.7824 876.7277,-768.7824 877.0734,-768.8784 881.5511,-768.8784 890.6802,-904.449 876.3203,-901.8497 867.7952,-900.4889 853.7122,-898.8436 853.7148,-896.9534 853.7147,-896.9468 853.7951,-838.0159 850.9445,-768.7539 850.2355,-768.5464 850.1368,-768.4011 846.5957,-765.5031 846.5957,-765.5031 850.1368,-768.4011 850.2355,-768.5464 845.8205,-772.4025 840.8873,-773.7876 836.5605,-772.5936 836.5605,-772.5936 840.8873,-773.7876 845.8205,-772.4025 850.2355,-768.5464 850.9445,-768.7539 853.7951,-838.0159 853.7147,-896.9468 853.7148,-896.9534 853.7122,-898.8436 844.7737,-898.5627 830.1069,-898.4151 820.8798,-898.9135 810.2704,-899.9407 796.186,-901.6057 776.6963,-905.5734 751.7976,-911.1669 712.5201,-897.0474 645.6809,-909.2996 633.3096,-911.8303 632.6506,-803.2085 629.2093,-772.3877 633.3873,-768.4965 633.349,-768.2729 630.4103,-765.7417 624.0584,-763.8079 619.1998,-765.2123 618.007,-723.9764 610.5123,-729.5582 581.4755,-744.0597 574.2406,-748.5582 573.9514,-748.4152 570.4346,-747.0176 564.4315,-745.1987 559.3006,-744.1317 559.3683,-711.2283 564.756,-709.6147 568.3905,-706.3668 565.0385,-703.3734 565.0385,-703.3734 568.3905,-706.3668 564.756,-709.6147 559.3683,-711.2283 559.3006,-744.1317 564.4315,-745.1987 570.4346,-747.0176 573.9514,-748.4152 574.2406,-748.5582 581.4755,-744.0597 610.5123,-729.5582 618.007,-723.9764 619.1998,-765.2123 624.0584,-763.8079 630.4103,-765.7417 633.349,-768.2729 633.3873,-768.4965 629.2093,-772.3877 632.6506,-803.2085 633.3096,-911.8303 622.435,-914.5144 609.1425,-918.3574 606.9361,-918.4033 546.7474,-934.5106 524.8527,-941.6902 524.5923,-941.6158 512.0992,-938.5202 512.8934,-904.4803 513.3812,-894.0093 521.3097,-784.213 526.003,-785.5778 526.003,-785.5778 521.3097,-784.213 513.3812,-894.0093 512.8934,-904.4803 512.0992,-938.5202 510.054,-938.1288 473.5366,-931.8184 342.8122,-833.35 336.7146,-819.2744 284.5393,-774.1917 290.1664,-763.4379 307.7144,-731.2581 318.7135,-713.8696 333.0371,-693.5615 334.9254,-691.0534 347.7142,-675.15 419.3813,-668.0215 423.4868,-664.0707 424.7507,-663.6138 426.0668,-662.5668 430.0222,-662.5668 430.1129,-662.5399 434.6585,-662.5399 437.77,-702.7967 441.3751,-664.3448 445.5744,-666.7427 445.5744,-666.7427 441.3751,-664.3448 437.77,-702.7967 434.6585,-662.5399 430.1129,-662.5399 430.0222,-662.5668 426.0668,-662.5668 424.7507,-663.6138 423.4868,-664.0707 419.3813,-668.0215 347.7142,-675.15 361.342,-656.5977 395.2238,-598.07 412.8376,-576.1666 356.4854,-498.68 341.5714,-481.8867 331.696,-470.1893 327.4972,-469.7928 318.3797,-468.7242 302.1234,-465.7052 292.0801,-463.3837 217.2354,-444.392 196.6658,-426.6741 197.5948,-421.4392 214.8181,-344.71 224.6417,-282.2497 238.4145,-260.6165 343.0353,-200.3114 357.1963,-197.8854 376.6534,-193.4419 386.9243,-190.5137 392.9131,-188.5788 400.4148,-186.9494 398.9886,-320.1727 395.5616,-339.9611 392.0728,-339.9611 384.8633,-344.2065 384.688,-344.3949 382.5691,-344.3949 380.9906,-344.8541 376.7171,-344.8541 376.276,-344.7242 375.807,-310.0714 369.5408,-344.4202 366.6722,-344.4202 366.2216,-344.5467 363.3088,-344.5467 361.5594,-342.0404 361.5594,-342.0404 363.3088,-344.5467 366.2216,-344.5467 366.6722,-344.4202 369.5408,-344.4202 375.807,-310.0714 376.276,-344.7242 376.7171,-344.8541 380.9906,-344.8541 382.5691,-344.3949 384.688,-344.3949 387.1074,-347.1834 391.2328,-349.3925 395.9651,-349.3925 395.9651,-349.3925 391.2328,-349.3925 387.1074,-347.1834 384.688,-344.3949 384.8633,-344.2065 392.0728,-339.9611 395.5616,-339.9611 398.9886,-320.1727 400.4148,-186.9494 407.2623,-185.2169 415.3799,-182.8705 423.778,-194.1125 437.8877,-211.0334 446.7741,-221.2627 472.5894,-254.3229 538.3791,-344.71 558.5357,-367.9125 531.1557,-387.0605 518.2298,-395.6353 517.574,-432.9652 510.6041,-498.2996 507.0056,-498.2996 506.5256,-498.4344 502.3325,-498.4344 498.1827,-456.3784 497.2135,-414.6543 491.05,-493.9974 487.0194,-493.9974 481.3163,-497.3401 479.9326,-498.9611 480.4301,-499.5081 480.4301,-499.5081 479.9326,-498.9611 481.3163,-497.3401 487.0194,-493.9974 491.05,-493.9974 497.2135,-414.6543 498.1827,-456.3784 502.3325,-498.4344 506.5256,-498.4344 507.0056,-498.2996 510.6041,-498.2996 517.574,-432.9652 518.2298,-395.6353 531.1557,-387.0605 558.5357,-367.9125 561.2545,-368.2724 574.5154,-370.3169 575.9196,-370.5637 577.6058,-370.8966 584.4215,-372.3911 604.4373,-377.6566 676.865,-399.8243 737.3208,-374.1263 746.0728,-370.2671 751.5958,-367.7447 763.412,-362.1623 764.2659,-361.7188 773.1293,-364.1849 778.1206,-365.438 789.0602,-379.6812 791.4144,-382.5774 792.3464,-430.6385 797.7065,-569.584 792.3746,-569.584 792.2689,-569.614 792.7147,-607.3603 792.1667,-614.6234 786.2161,-570.0355 782.9861,-570.0355 777.8492,-646.9559 775.9893,-645.1824 725.9516,-645.9813 707.1752,-649.6459 702.5887,-646.7397 697.9056,-710.0449 696.9467,-643.2786 692.2078,-643.2786 691.9384,-643.3568 686.4847,-643.3568 685.4731,-643.067 683.4476,-643.067 681.321,-643.6826 676.616,-643.6826 676.8486,-711.4271 665.8271,-708.255 658.067,-707.1333 656.074,-648.2529 660.699,-646.9748 660.699,-646.9748 656.074,-648.2529 658.067,-707.1333 647.6705,-706.1238 647.9612,-688.6187 645.5154,-643.2289 641.6019,-643.2289 636.8944,-703.9565 635.481,-702.4865 635.481,-702.4865 636.8944,-703.9565 641.6019,-643.2289 645.5154,-643.2289 647.9612,-688.6187 647.6705,-706.1238 658.067,-707.1333 665.8271,-708.255 676.8486,-711.4271 676.616,-643.6826 681.321,-643.6826 683.4476,-643.067 685.4731,-643.067 686.4847,-643.3568 691.9384,-643.3568 692.2078,-643.2786 696.9467,-643.2786 697.9056,-710.0449 702.5887,-646.7397 707.1752,-649.6459 725.9516,-645.9813 775.9893,-645.1824 777.8492,-646.9559 782.9861,-570.0355 786.2161,-570.0355 792.1667,-614.6234 792.7147,-607.3603 792.2689,-569.614 792.3746,-569.584 797.7065,-569.584 792.3464,-430.6385 791.4144,-382.5774 802.2356,-395.1533 819.241,-413.7508 812.1213,-565.1034 807.8691,-565.1034 807.8691,-565.1034 812.1213,-565.1034 819.241,-413.7508 823.0294,-417.755 832.5217,-426.48 841.4756,-435.8958 859.8367,-453.0171 859.8633,-453.0408 862.1123,-454.9509 875.5308,-465.2991 878.0781,-467.1593 968.0362,-529.246 968.269,-529.4162 940.1312,-568.8978 940.0397,-569.0405 938.6409,-571.4808 877.0841,-575.9446 873.0103,-572.9608 869.2344,-600.2144 866.4409,-569.958 862.4873,-569.958 861.0044,-622.6524 856.4826,-569.8619 852.997,-569.8619 850.1467,-604.6058 846.272,-570.0074 842.5662,-570.0074 842.4882,-569.9861 837.4641,-569.9861 835.5292,-669.181 832.5133,-669.2421 832.2762,-569.8943 828.0714,-569.8943 828.0714,-569.8943 832.2762,-569.8943 832.5133,-669.2421 835.5292,-669.181 837.4641,-569.9861 842.4882,-569.9861 842.5662,-570.0074 846.272,-570.0074 850.1467,-604.6058 852.997,-569.8619 856.4826,-569.8619 861.0044,-622.6524 862.4873,-569.958 866.4409,-569.958 869.2344,-600.2144 873.0103,-572.9608 877.0841,-575.9446 938.6409,-571.4808 911.8566,-624.2345 904.7385,-636.5589 881.4842,-669.1882 886.1923,-672.6896 903.584,-683.3726 966.8853,-719.3746 982.9267,-729.1934 983.9317,-729.8902 994.3673,-738.0328 1007.5042,-749.4268 1015.1341,-756.3617 1019.4617,-760.654 1021.2419,-762.4954 1021.2419,-762.4954"/>
<polygon fill="#b3cde3" stroke="#b3cde3" points="756.3876,51.9951 774.3543,13.1353 798.1728,-35.3103 798.8641,-36.6479 805.778,-49.395 731.4053,-148.8609 741.0637,-233.7 764.2659,-361.7188 763.412,-362.1623 751.5958,-367.7447 746.0728,-370.2671 737.3208,-374.1263 676.865,-399.8243 604.4373,-377.6566 584.4215,-372.3911 577.6058,-370.8966 575.9196,-370.5637 574.5154,-370.3169 561.2545,-368.2724 558.5357,-367.9125 538.3791,-344.71 472.5894,-254.3229 446.7741,-221.2627 437.8877,-211.0334 423.778,-194.1125 415.3799,-182.8705 475.2963,-102.1204 468.7003,-37.4891 461.3602,12.4752 468.6473,20.991 520.1068,83.887 541.0435,100.0301 605.477,112.6137 612.3844,114.1216 630.2266,118.8401 632.3533,119.4506 634.1179,118.8208 642.4893,116.2231 711.4094,98.0295 756.3876,51.9951 756.3876,51.9951"/>
<polygon fill="#fbb4ae" stroke="#fbb4ae" points="976.2673,-426.3602 974.4987,-423.8536 974.4987,-423.8536 976.2673,-426.3602 978.2678,-426.3602 978.5001,-426.4279 985.1545,-426.4279 985.4942,-426.5249 988.2656,-426.5249 988.269,-426.5239 988.269,-426.5239 988.2656,-426.5249 985.4942,-426.5249 985.1545,-426.4279 978.5001,-426.4279 978.2678,-426.3602 976.2673,-426.3602 975.6936,-426.7781 973.6443,-429.8793 968.7554,-432.9108 968.0362,-529.246 968.269,-529.4162 972.3768,-529.4984 976.7527,-529.3525 978.0366,-529.4147 980.26,-529.4628 991.4577,-529.4059 993.3411,-529.4992 995.8341,-530.9752 1006.8977,-536.3618 1013.2596,-539.2352 1014.3002,-539.6324 1032.9561,-546.1195 1033.4121,-546.2617 1040.8387,-548.0582 1044.0754,-548.7283 1046.0059,-549.0611 1061.8702,-551.2478 1064.1073,-551.3996 1068.7048,-551.5519 1070.245,-551.5494 1077.1766,-551.2966 1079.559,-551.2991 1079.9012,-551.2875 1087.1322,-551.3145 1089.0842,-551.3948 1089.996,-551.4007 1091.1505,-551.4949 1092.998,-551.581 1095.7183,-551.613 1105.0629,-551.3959 1108.2411,-551.2108 1108.7242,-551.219 1112.3347,-551.4167 1115.4155,-551.37 1126.1949,-551.6129 1130.1818,-551.5631 1204.5198,-553.4257 1206.8324,-541.5277 1215.4835,-488.2603 1217.1417,-470.49 1224.4517,-432.8834 1237.2917,-411.7245 1254.3763,-385.2994 1287.4822,-336.7635 1291.8276,-330.6496 1182.7939,-229.2216 1135.6069,-227.0808 1132.0217,-227.9481 1125.8839,-229.3134 1123.4523,-229.8068 1101.5942,-233.8168 1099.4886,-234.1197 1077.0378,-236.0343 1077.3883,-250.1814 1079.7668,-301.2498 1086.5397,-381.9708 1086.6493,-382.0039 1089.9515,-382.0039 1090.3182,-382.4345 1090.3182,-382.4345 1089.9515,-382.0039 1086.6493,-382.0039 1086.5397,-381.9708 1079.7668,-301.2498 1077.3883,-250.1814 1077.0378,-236.0343 1076.6754,-236.0439 1069.5131,-377.0027 1071.39,-379.3438 1061.0509,-385.7555 1038.5406,-389.0986 1038.5963,-389.1598 1044.3165,-394.4134 1044.3165,-394.4134 1038.5963,-389.1598 1038.5406,-389.0986 1061.0509,-385.7555 1071.39,-379.3438 1069.5131,-377.0027 1011.019,-359.6278 1012.0571,-361.2139 1014.5609,-364.6834 1018.8798,-370.0938 1019.9387,-421.8283 1024.9222,-421.8283 1029.1431,-424.1563 1031.2473,-426.6718 1030.5963,-427.4167 1030.5963,-427.4167 1031.2473,-426.6718 1029.1431,-424.1563 1024.9222,-421.8283 1019.9387,-421.8283 1018.8798,-370.0938 1014.5609,-364.6834 1012.0571,-361.2139 1011.019,-359.6278 1069.5131,-377.0027 1076.6754,-236.0439 1040.4972,-236.2934 969.0127,-287.3364 958.1495,-289.3462 778.1206,-365.438 789.0602,-379.6812 791.4144,-382.5774 802.2356,-395.1533 819.241,-413.7508 823.0294,-417.755 832.5217,-426.48 841.4756,-435.8958 859.8367,-453.0171 859.8633,-453.0408 862.1123,-454.9509 875.5308,-465.2991 878.0781,-467.1593 968.0362,-529.246 968.7554,-432.9108 973.6443,-429.8793 975.6936,-426.7781 976.2673,-426.3602 976.2673,-426.3602"/>
<polyline fill="none" stroke="#000000" points="1416.2178,-658.1746 1409.2473,-698.1662 1403.3027,-745.8376 1369.0209,-794.7776 1366.9373,-820.5528 1364.6566,-860.5461 1362.3842,-863.8997 1305.62,-952.2381 1235.5336,-980.8806 1235.5231,-980.8851 1223.5165,-986.5237 1216.4744,-983.4463 1201.1414,-977.3496 1195.2693,-975.3634 1178.1224,-970.2308 1175.6083,-969.5281 1153.5221,-965.075 1137,-962.7158 1052.6654,-955.6362 1003.3382,-934.0059 988.916,-921.3861 1000.572,-870.5836 1015.0822,-799.8859 1019.793,-768.81 1021.2419,-762.4954 1019.4617,-760.654 1015.1341,-756.3617 1007.5042,-749.4268 994.3673,-738.0328 983.9317,-729.8902 982.9267,-729.1934 966.8853,-719.3746 903.584,-683.3726 886.1923,-672.6896 881.4842,-669.1882 904.7385,-636.5589 911.8566,-624.2345 938.6409,-571.4808 940.0397,-569.0405 940.1312,-568.8978 968.269,-529.4162 972.3768,-529.4984 976.7527,-529.3525 978.0366,-529.4147 980.26,-529.4628 991.4577,-529.4059 993.3411,-529.4992 995.8341,-530.9752 1006.8977,-536.3618 1013.2596,-539.2352 1014.3002,-539.6324 1032.9561,-546.1195 1033.4121,-546.2617 1040.8387,-548.0582 1044.0754,-548.7283 1046.0059,-549.0611 1061.8702,-551.2478 1064.1073,-551.3996 1068.7048,-551.5519 1070.245,-551.5494 1077.1766,-551.2966 1079.559,-551.2991 1079.9012,-551.2875 1087.1322,-551.3145 1089.0842,-551.3948 1089.996,-551.4007 1091.1505,-551.4949 1092.998,-551.581 1095.7183,-551.613 1105.0629,-551.3959 1108.2411,-551.2108 1108.7242,-551.219 1112.3347,-551.4167 1115.4155,-551.37 1126.1949,-551.6129 1130.1818,-551.5631 1204.5198,-553.4257 1206.8324,-541.5277 1215.4835,-488.2603 1217.1417,-470.49 1224.4517,-432.8834 1237.2917,-411.7245 1254.3763,-385.2994 1287.4822,-336.7635 1291.8276,-330.6496 1306.3438,-331.4407 1308.5696,-331.5275 1308.9446,-331.5363 1426.991,-244.4247 1438.2896,-236.8195 1474.6207,-236.3463 1479.7588,-236.0677 1490.0039,-235.3006 1504.6194,-233.6033 1508.7703,-232.9507 1519.4122,-230.8364 1536.5316,-227.0814 1548.1683,-224.2932 1566.9104,-223.6392 1590.3108,-235.6745 1608.0555,-253.6665 1664.4399,-365.7796 1699.7928,-395.4376 1702.933,-432.4128 1709.8152,-496.0103 1715.6133,-533.9637 1600.5623,-606.2268 1567.8307,-605.6229 1559.8994,-605.8264 1554.4718,-605.1341 1548.4016,-604.6315 1495.3859,-601.4268 1418.077,-648.788 1416.2178,-658.1746 "/>
<polyline fill="none" stroke="#000000" points="307.7144,-731.2581 290.1664,-763.4379 284.5393,-774.1917 224.3044,-756.4982 212.9879,-758.4814 145.4854,-741.5822 134.5955,-739.0916 129.6915,-738.1831 115.0846,-736.107 106.1177,-735.2212 17.5318,-728.3907 -1.5078,-732.9985 -92.1636,-656.3248 -111.1809,-616.1027 -129.8587,-578.8619 -129.7874,-577.6138 -129.5921,-572.2904 -103.3646,-527.697 -60.6214,-450.727 -13.5813,-427.7841 14.9757,-427.8828 18.3126,-427.8282 33.4659,-430.7668 34.3195,-430.9145 56.0786,-433.3279 145.5796,-439.5257 148.8225,-438.8218 196.6658,-426.6741 217.2354,-444.392 292.0801,-463.3837 302.1234,-465.7052 318.3797,-468.7242 327.4972,-469.7928 331.696,-470.1893 341.5714,-481.8867 356.4854,-498.68 412.8376,-576.1666 395.2238,-598.07 361.342,-656.5977 347.7142,-675.15 334.9254,-691.0534 333.0371,-693.5615 318.7135,-713.8696 307.7144,-731.2581 "/>
<polyline fill="none" stroke="#000000" points="676.865,-399.8243 604.4373,-377.6566 584.4215,-372.3911 577.6058,-370.8966 575.9196,-370.5637 574.5154,-370.3169 561.2545,-368.2724 558.5357,-367.9125 538.3791,-344.71 472.5894,-254.3229 446.7741,-221.2627 437.8877,-211.0334 423.778,-194.1125 415.3799,-182.8705 407.2623,-185.2169 400.4148,-186.9494 392.9131,-188.5788 386.9243,-190.5137 376.6534,-193.4419 357.1963,-197.8854 343.0353,-200.3114 238.4145,-260.6165 224.6417,-282.2497 214.8181,-344.71 197.5948,-421.4392 196.6658,-426.6741 217.2354,-444.392 292.0801,-463.3837 302.1234,-465.7052 318.3797,-468.7242 327.4972,-469.7928 331.696,-470.1893 341.5714,-481.8867 356.4854,-498.68 412.8376,-576.1666 395.2238,-598.07 361.342,-656.5977 347.7142,-675.15 334.9254,-691.0534 333.0371,-693.5615 318.7135,-713.8696 307.7144,-731.2581 290.1664,-763.4379 284.5393,-774.1917 336.7146,-819.2744 342.8122,-833.35 473.5366,-931.8184 510.054,-938.1288 512.0992,-938.5202 524.5923,-941.6158 524.8527,-941.6902 546.7474,-934.5106 606.9361,-918.4033 609.1425,-918.3574 622.435,-914.5144 633.3096,-911.8303 645.6809,-909.2996 712.5201,-897.0474 751.7976,-911.1669 776.6963,-905.5734 796.186,-901.6057 810.2704,-899.9407 820.8798,-898.9135 830.1069,-898.4151 844.7737,-898.5627 853.7122,-898.8436 867.7952,-900.4889 876.3203,-901.8497 890.6802,-904.449 892.0044,-904.7166 893.2452,-905.02 961.0712,-923.0687 988.916,-921.3861 1000.572,-870.5836 1015.0822,-799.8859 1019.793,-768.81 1021.2419,-762.4954 1019.4617,-760.654 1015.1341,-756.3617 1007.5042,-749.4268 994.3673,-738.0328 983.9317,-729.8902 982.9267,-729.1934 966.8853,-719.3746 903.584,-683.3726 886.1923,-672.6896 881.4842,-669.1882 904.7385,-636.5589 911.8566,-624.2345 938.6409,-571.4808 940.0397,-569.0405 940.1312,-568.8978 968.269,-529.4162 968.0362,-529.246 878.0781,-467.1593 875.5308,-465.2991 862.1123,-454.9509 859.8633,-453.0408 859.8367,-453.0171 841.4756,-435.8958 832.5217,-426.48 823.0294,-417.755 819.241,-413.7508 802.2356,-395.1533 791.4144,-382.5774 789.0602,-379.6812 778.1206,-365.438 773.1293,-364.1849 764.2659,-361.7188 763.412,-362.1623 751.5958,-367.7447 746.0728,-370.2671 737.3208,-374.1263 676.865,-399.8243 "/>
<polyline fill="none" stroke="#000000" points="575.9196,-370.5637 577.6058,-370.8966 584.4215,-372.3911 604.4373,-377.6566 676.865,-399.8243 737.3208,-374.1263 746.0728,-370.2671 751.5958,-367.7447 763.412,-362.1623 764.2659,-361.7188 741.0637,-233.7 731.4053,-148.8609 805.778,-49.395 798.8641,-36.6479 798.1728,-35.3103 774.3543,13.1353 756.3876,51.9951 711.4094,98.0295 642.4893,116.2231 634.1179,118.8208 632.3533,119.4506 630.2266,118.8401 612.3844,114.1216 605.477,112.6137 541.0435,100.0301 520.1068,83.887 468.6473,20.991 461.3602,12.4752 468.7003,-37.4891 475.2963,-102.1204 415.3799,-182.8705 423.778,-194.1125 437.8877,-211.0334 446.7741,-221.2627 472.5894,-254.3229 538.3791,-344.71 558.5357,-367.9125 561.2545,-368.2724 574.5154,-370.3169 575.9196,-370.5637 "/>
<polyline fill="none" stroke="#000000" points="1089.996,-551.4007 1091.1505,-551.4949 1092.998,-551.581 1095.7183,-551.613 1105.0629,-551.3959 1108.2411,-551.2108 1108.7242,-551.219 1112.3347,-551.4167 1115.4155,-551.37 1126.1949,-551.6129 1130.1818,-551.5631 1204.5198,-553.4257 1206.8324,-541.5277 1215.4835,-488.2603 1217.1417,-470.49 1224.4517,-432.8834 1237.2917,-411.7245 1254.3763,-385.2994 1287.4822,-336.7635 1291.8276,-330.6496 1182.7939,-229.2216 1135.6069,-227.0808 1132.0217,-227.9481 1125.8839,-229.3134 1123.4523,-229.8068 1101.5942,-233.8168 1099.4886,-234.1197 1077.0378,-236.0343 1076.6754,-236.0439 1040.4972,-236.2934 969.0127,-287.3364 958.1495,-289.3462 778.1206,-365.438 789.0602,-379.6812 791.4144,-382.5774 802.2356,-395.1533 819.241,-413.7508 823.0294,-417.755 832.5217,-426.48 841.4756,-435.8958 859.8367,-453.0171 859.8633,-453.0408 862.1123,-454.9509 875.5308,-465.2991 878.0781,-467.1593 968.0362,-529.246 968.269,-529.4162 972.3768,-529.4984 976.7527,-529.3525 978.0366,-529.4147 980.26,-529.4628 991.4577,-529.4059 993.3411,-529.4992 995.8341,-530.9752 1006.8977,-536.3618 1013.2596,-539.2352 1014.3002,-539.6324 1032.9561,-546.1195 1033.4121,-546.2617 1040.8387,-548.0582 1044.0754,-548.7283 1046.0059,-549.0611 1061.8702,-551.2478 1064.1073,-551.3996 1068.7048,-551.5519 1070.245,-551.5494 1077.1766,-551.2966 1079.559,-551.2991 1079.9012,-551.2875 1087.1322,-551.3145 1089.0842,-551.3948 1089.996,-551.4007 "/>
<!-- copy&#45;jdk&#45;configs&#45;&gt;lua -->
<g id="edge1" class="edge">
<title>copy&#45;jdk&#45;configs&#45;&gt;lua</title>
<path fill="none" stroke="#444444" stroke-opacity="0.333333" d="M1450.0804,-490.5054C1475.4026,-486.696 1501.189,-482.8168 1521.2684,-479.7961"/>
<polygon fill="#444444" fill-opacity="0.333333" stroke="#444444" stroke-opacity="0.333333" points="1521.8477,-483.2484 1531.2157,-478.2996 1520.8063,-476.3263 1521.8477,-483.2484"/>
</g>
<!-- copy&#45;jdk&#45;configs&#45;&gt;lua&#45;posix -->
<g id="edge2" class="edge">
<title>copy&#45;jdk&#45;configs&#45;&gt;lua&#45;posix</title>
<path fill="none" stroke="#444444" stroke-opacity="0.333333" d="M1373.6368,-486.8785C1399.106,-464.3778 1442.5339,-426.0115 1471.0484,-400.8205"/>
<polygon fill="#444444" fill-opacity="0.333333" stroke="#444444" stroke-opacity="0.333333" points="1473.4911,-403.3327 1478.6682,-394.0888 1468.8565,-398.0866 1473.4911,-403.3327"/>
</g>
<!-- lua&#45;posix&#45;&gt;lua -->
<g id="edge3" class="edge">
<title>lua&#45;posix&#45;&gt;lua</title>
<path fill="none" stroke="#444444" stroke-opacity="0.333333" d="M1510.0949,-393.9669C1519.0814,-408.8279 1531.97,-430.1418 1542.2029,-447.0641"/>
<polygon fill="#444444" fill-opacity="0.333333" stroke="#444444" stroke-opacity="0.333333" points="1539.4035,-449.1986 1547.573,-455.9447 1545.3935,-445.5764 1539.4035,-449.1986"/>
</g>
<!-- giflib&#45;&gt;libICE -->
<g id="edge4" class="edge">
<title>giflib&#45;&gt;libICE</title>
<path fill="none" stroke="#444444" stroke-opacity="0.333333" d="M271.8756,-598.8753C244.394,-599.3858 208.6522,-600.0498 179.4606,-600.5922"/>
<polygon fill="#444444" fill-opacity="0.333333" stroke="#444444" stroke-opacity="0.333333" points="179.3659,-597.0932 169.4327,-600.7785 179.496,-604.092 179.3659,-597.0932"/>
</g>
<!-- giflib&#45;&gt;libSM -->
<g id="edge5" class="edge">
<title>giflib&#45;&gt;libSM</title>
<path fill="none" stroke="#444444" stroke-opacity="0.333333" d="M272.1615,-594.1431C221.6342,-589.535 138.0985,-581.9166 85.5753,-577.1265"/>
<polygon fill="#444444" fill-opacity="0.333333" stroke="#444444" stroke-opacity="0.333333" points="85.7797,-573.6307 75.5031,-576.2079 85.1439,-580.6018 85.7797,-573.6307"/>
</g>
<!-- giflib&#45;&gt;libX11 -->
<g id="edge6" class="edge">
<title>giflib&#45;&gt;libX11</title>
<path fill="none" stroke="#444444" stroke-opacity="0.333333" d="M358.4341,-588.78C397.2492,-580.4358 454.3729,-568.1556 496.0158,-559.2034"/>
<polygon fill="#444444" fill-opacity="0.333333" stroke="#444444" stroke-opacity="0.333333" points="496.9408,-562.5846 505.9818,-557.0609 495.4695,-555.7409 496.9408,-562.5846"/>
</g>
<!-- libSM&#45;&gt;libICE -->
<g id="edge7" class="edge">
<title>libSM&#45;&gt;libICE</title>
<path fill="none" stroke="#444444" stroke-opacity="0.333333" d="M75.2684,-584.9823C75.4335,-585.036 75.5987,-585.0897 75.764,-585.1435"/>
<polygon fill="#444444" fill-opacity="0.333333" stroke="#444444" stroke-opacity="0.333333" points="72.6583,-587.8137 83.2505,-587.5789 74.8238,-581.157 72.6583,-587.8137"/>
</g>
<!-- libX11&#45;&gt;libX11&#45;common -->
<g id="edge8" class="edge">
<title>libX11&#45;&gt;libX11&#45;common</title>
<path fill="none" stroke="#444444" stroke-opacity="0.333333" d="M535.536,-529.7224C507.9898,-493.7681 446.0926,-412.9775 413.9789,-371.0614"/>
<polygon fill="#444444" fill-opacity="0.333333" stroke="#444444" stroke-opacity="0.333333" points="416.6468,-368.7885 407.7867,-362.979 411.0901,-373.0457 416.6468,-368.7885"/>
</g>
<!-- libX11&#45;&gt;libxcb -->
<g id="edge9" class="edge">
<title>libX11&#45;&gt;libxcb</title>
<path fill="none" stroke="#444444" stroke-opacity="0.333333" d="M551.3138,-529.4985C556.991,-477.0298 573.3941,-325.4347 580.2506,-262.0674"/>
<polygon fill="#444444" fill-opacity="0.333333" stroke="#444444" stroke-opacity="0.333333" points="583.7446,-262.3104 581.3408,-251.9919 576.7852,-261.5573 583.7446,-262.3104"/>
</g>
<!-- libxcb&#45;&gt;libXau -->
<g id="edge10" class="edge">
<title>libxcb&#45;&gt;libXau</title>
<path fill="none" stroke="#444444" stroke-opacity="0.333333" d="M586.9406,-215.6805C594.4932,-178.0917 611.9752,-91.085 621.0169,-46.0855"/>
<polygon fill="#444444" fill-opacity="0.333333" stroke="#444444" stroke-opacity="0.333333" points="624.4807,-46.6134 623.0192,-36.1199 617.6178,-45.2344 624.4807,-46.6134"/>
</g>
<!-- java&#45;1.8.0&#45;openjdk&#45;devel&#45;&gt;libX11 -->
<g id="edge11" class="edge">
<title>java&#45;1.8.0&#45;openjdk&#45;devel&#45;&gt;libX11</title>
<path fill="none" stroke="#444444" stroke-opacity="0.333333" d="M670.0578,-557.9489C646.0068,-555.9149 622.3916,-553.9178 602.516,-552.237"/>
<polygon fill="#444444" fill-opacity="0.333333" stroke="#444444" stroke-opacity="0.333333" points="602.7401,-548.7435 592.4807,-551.3883 602.1502,-555.7186 602.7401,-548.7435"/>
</g>
<!-- java&#45;1.8.0&#45;openjdk&#45;devel&#45;&gt;java&#45;1.8.0&#45;openjdk -->
<g id="edge12" class="edge">
<title>java&#45;1.8.0&#45;openjdk&#45;devel&#45;&gt;java&#45;1.8.0&#45;openjdk</title>
<path fill="none" stroke="#444444" stroke-opacity="0.333333" d="M757.217,-587.8799C735.1569,-597.7156 710.1391,-609.8677 690.5132,-620.3428"/>
<polygon fill="#444444" fill-opacity="0.333333" stroke="#444444" stroke-opacity="0.333333" points="688.7386,-617.3238 681.6275,-625.1776 692.0842,-623.4725 688.7386,-617.3238"/>
</g>
<!-- java&#45;1.8.0&#45;openjdk&#45;devel&#45;&gt;java&#45;1.8.0&#45;openjdk&#45;headless -->
<g id="edge13" class="edge">
<title>java&#45;1.8.0&#45;openjdk&#45;devel&#45;&gt;java&#45;1.8.0&#45;openjdk&#45;headless</title>
<path fill="none" stroke="#444444" stroke-opacity="0.333333" d="M877.6001,-587.7896C905.7841,-595.2847 938.6574,-604.0268 967.7875,-611.7735"/>
<polygon fill="#444444" fill-opacity="0.333333" stroke="#444444" stroke-opacity="0.333333" points="966.9471,-615.1716 977.5108,-614.3592 968.7462,-608.4067 966.9471,-615.1716"/>
</g>
<!-- java&#45;1.8.0&#45;openjdk&#45;&gt;giflib -->
<g id="edge14" class="edge">
<title>java&#45;1.8.0&#45;openjdk&#45;&gt;giflib</title>
<path fill="none" stroke="#444444" stroke-opacity="0.333333" d="M548.7935,-629.0099C488.7741,-621.0596 416.6159,-611.5012 368.5379,-605.1327"/>
<polygon fill="#444444" fill-opacity="0.333333" stroke="#444444" stroke-opacity="0.333333" points="368.731,-601.6277 358.3579,-603.7842 367.8117,-608.5671 368.731,-601.6277"/>
</g>
<!-- java&#45;1.8.0&#45;openjdk&#45;&gt;libX11 -->
<g id="edge15" class="edge">
<title>java&#45;1.8.0&#45;openjdk&#45;&gt;libX11</title>
<path fill="none" stroke="#444444" stroke-opacity="0.333333" d="M635.6125,-624.8266C618.946,-609.9348 595.3235,-588.8274 577.0098,-572.4636"/>
<polygon fill="#444444" fill-opacity="0.333333" stroke="#444444" stroke-opacity="0.333333" points="579.3108,-569.826 569.5218,-565.773 574.6467,-575.0458 579.3108,-569.826"/>
</g>
<!-- java&#45;1.8.0&#45;openjdk&#45;&gt;java&#45;1.8.0&#45;openjdk&#45;devel -->
<g id="edge16" class="edge">
<title>java&#45;1.8.0&#45;openjdk&#45;&gt;java&#45;1.8.0&#45;openjdk&#45;devel</title>
<path fill="none" stroke="#444444" stroke-opacity="0.333333" d="M708.843,-625.1301C730.9031,-615.2944 755.9209,-603.1423 775.5468,-592.6672"/>
<polygon fill="#444444" fill-opacity="0.333333" stroke="#444444" stroke-opacity="0.333333" points="777.3214,-595.6862 784.4325,-587.8324 773.9758,-589.5375 777.3214,-595.6862"/>
</g>
<!-- java&#45;1.8.0&#45;openjdk&#45;&gt;java&#45;1.8.0&#45;openjdk&#45;headless -->
<g id="edge17" class="edge">
<title>java&#45;1.8.0&#45;openjdk&#45;&gt;java&#45;1.8.0&#45;openjdk&#45;headless</title>
<path fill="none" stroke="#444444" stroke-opacity="0.333333" d="M763.2825,-640.2454C799.1767,-639.2414 840.088,-638.0971 879.4003,-636.9975"/>
<polygon fill="#444444" fill-opacity="0.333333" stroke="#444444" stroke-opacity="0.333333" points="879.7276,-640.4898 889.6258,-636.7115 879.5319,-633.4926 879.7276,-640.4898"/>
</g>
<!-- java&#45;1.8.0&#45;openjdk&#45;&gt;libXcomposite -->
<g id="edge18" class="edge">
<title>java&#45;1.8.0&#45;openjdk&#45;&gt;libXcomposite</title>
<path fill="none" stroke="#444444" stroke-opacity="0.333333" d="M635.3646,-625.2237C605.5967,-599.508 550.8305,-552.1971 517.3522,-523.2762"/>
<polygon fill="#444444" fill-opacity="0.333333" stroke="#444444" stroke-opacity="0.333333" points="519.5901,-520.5844 509.7347,-516.6958 515.0141,-525.8816 519.5901,-520.5844"/>
</g>
<!-- java&#45;1.8.0&#45;openjdk&#45;&gt;libXext -->
<g id="edge19" class="edge">
<title>java&#45;1.8.0&#45;openjdk&#45;&gt;libXext</title>
<path fill="none" stroke="#444444" stroke-opacity="0.333333" d="M628.4638,-661.3305C618.2302,-668.0004 606.4805,-675.6585 595.607,-682.7455"/>
<polygon fill="#444444" fill-opacity="0.333333" stroke="#444444" stroke-opacity="0.333333" points="593.5868,-679.8843 587.1202,-688.2768 597.409,-685.7487 593.5868,-679.8843"/>
</g>
<!-- java&#45;1.8.0&#45;openjdk&#45;&gt;libXi -->
<g id="edge20" class="edge">
<title>java&#45;1.8.0&#45;openjdk&#45;&gt;libXi</title>
<path fill="none" stroke="#444444" stroke-opacity="0.333333" d="M651.596,-661.4902C646.3441,-682.2186 637.7106,-716.2938 631.5851,-740.4703"/>
<polygon fill="#444444" fill-opacity="0.333333" stroke="#444444" stroke-opacity="0.333333" points="628.1129,-739.9244 629.0496,-750.4777 634.8985,-741.6437 628.1129,-739.9244"/>
</g>
<!-- java&#45;1.8.0&#45;openjdk&#45;&gt;libXrender -->
<g id="edge21" class="edge">
<title>java&#45;1.8.0&#45;openjdk&#45;&gt;libXrender</title>
<path fill="none" stroke="#444444" stroke-opacity="0.333333" d="M549.1425,-653.0926C540.4783,-653.8898 531.8452,-654.6841 523.4853,-655.4534"/>
<polygon fill="#444444" fill-opacity="0.333333" stroke="#444444" stroke-opacity="0.333333" points="523.0771,-651.976 513.4399,-656.3777 523.7186,-658.9466 523.0771,-651.976"/>
</g>
<!-- java&#45;1.8.0&#45;openjdk&#45;&gt;libXtst -->
<g id="edge22" class="edge">
<title>java&#45;1.8.0&#45;openjdk&#45;&gt;libXtst</title>
<path fill="none" stroke="#444444" stroke-opacity="0.333333" d="M638.9623,-661.4896C616.3389,-685.4134 576.5152,-727.5262 550.7712,-754.75"/>
<polygon fill="#444444" fill-opacity="0.333333" stroke="#444444" stroke-opacity="0.333333" points="547.9169,-752.6743 543.5891,-762.3449 553.003,-757.4839 547.9169,-752.6743"/>
</g>
<!-- java&#45;1.8.0&#45;openjdk&#45;&gt;xorg&#45;x11&#45;fonts&#45;Type1 -->
<g id="edge23" class="edge">
<title>java&#45;1.8.0&#45;openjdk&#45;&gt;xorg&#45;x11&#45;fonts&#45;Type1</title>
<path fill="none" stroke="#444444" stroke-opacity="0.333333" d="M683.0915,-661.499C715.4833,-683.5089 770.0108,-720.5599 805.7573,-744.8493"/>
<polygon fill="#444444" fill-opacity="0.333333" stroke="#444444" stroke-opacity="0.333333" points="804.1775,-748.0074 814.4159,-750.7327 808.1117,-742.2175 804.1775,-748.0074"/>
</g>
<!-- java&#45;1.8.0&#45;openjdk&#45;headless&#45;&gt;copy&#45;jdk&#45;configs -->
<g id="edge24" class="edge">
<title>java&#45;1.8.0&#45;openjdk&#45;headless&#45;&gt;copy&#45;jdk&#45;configs</title>
<path fill="none" stroke="#444444" stroke-opacity="0.333333" d="M1088.9734,-614.2633C1144.5866,-591.2718 1240.4896,-551.6238 1300.129,-526.9678"/>
<polygon fill="#444444" fill-opacity="0.333333" stroke="#444444" stroke-opacity="0.333333" points="1301.4735,-530.1994 1309.3776,-523.1443 1298.799,-523.7304 1301.4735,-530.1994"/>
</g>
<!-- java&#45;1.8.0&#45;openjdk&#45;headless&#45;&gt;javapackages&#45;tools -->
<g id="edge25" class="edge">
<title>java&#45;1.8.0&#45;openjdk&#45;headless&#45;&gt;javapackages&#45;tools</title>
<path fill="none" stroke="#444444" stroke-opacity="0.333333" d="M1053.7035,-650.5333C1074.5421,-684.4059 1127.6501,-756.9945 1159.6654,-795.9666"/>
<polygon fill="#444444" fill-opacity="0.333333" stroke="#444444" stroke-opacity="0.333333" points="1157.0633,-798.3112 1166.1577,-803.7465 1162.4378,-793.8262 1157.0633,-798.3112"/>
</g>
<!-- java&#45;1.8.0&#45;openjdk&#45;headless&#45;&gt;tzdata&#45;java -->
<g id="edge26" class="edge">
<title>java&#45;1.8.0&#45;openjdk&#45;headless&#45;&gt;tzdata&#45;java</title>
<path fill="none" stroke="#444444" stroke-opacity="0.333333" d="M1115.2443,-650.4002C1133.1559,-655.0134 1152.5444,-660.0069 1170.8934,-664.7328"/>
<polygon fill="#444444" fill-opacity="0.333333" stroke="#444444" stroke-opacity="0.333333" points="1170.1145,-668.1463 1180.6714,-667.2511 1171.8604,-661.3675 1170.1145,-668.1463"/>
</g>
<!-- libXcomposite&#45;&gt;libX11 -->
<g id="edge27" class="edge">
<title>libXcomposite&#45;&gt;libX11</title>
<path fill="none" stroke="#444444" stroke-opacity="0.333333" d="M511.3931,-516.9481C513.9447,-519.0186 516.5749,-521.1529 519.2041,-523.2864"/>
<polygon fill="#444444" fill-opacity="0.333333" stroke="#444444" stroke-opacity="0.333333" points="517.0389,-526.0367 527.0094,-529.62 521.4496,-520.6011 517.0389,-526.0367"/>
</g>
<!-- libXext&#45;&gt;libX11 -->
<g id="edge28" class="edge">
<title>libXext&#45;&gt;libX11</title>
<path fill="none" stroke="#444444" stroke-opacity="0.333333" d="M558.2106,-688.1731C556.4833,-660.8279 553.2026,-608.8898 551.1514,-576.4162"/>
<polygon fill="#444444" fill-opacity="0.333333" stroke="#444444" stroke-opacity="0.333333" points="554.6304,-575.9727 550.5069,-566.2133 547.6443,-576.4141 554.6304,-575.9727"/>
</g>
<!-- libXi&#45;&gt;libX11 -->
<g id="edge29" class="edge">
<title>libXi&#45;&gt;libX11</title>
<path fill="none" stroke="#444444" stroke-opacity="0.333333" d="M618.2759,-750.6638C605.1544,-712.0386 574.3227,-621.2807 558.7266,-575.3711"/>
<polygon fill="#444444" fill-opacity="0.333333" stroke="#444444" stroke-opacity="0.333333" points="561.9944,-574.1089 555.4637,-565.7661 555.3664,-576.3605 561.9944,-574.1089"/>
</g>
<!-- libXi&#45;&gt;libXext -->
<g id="edge30" class="edge">
<title>libXi&#45;&gt;libXext</title>
<path fill="none" stroke="#444444" stroke-opacity="0.333333" d="M605.602,-750.7071C599.4519,-744.8104 592.5016,-738.1464 585.8932,-731.8102"/>
<polygon fill="#444444" fill-opacity="0.333333" stroke="#444444" stroke-opacity="0.333333" points="588.0017,-728.9829 578.3611,-724.5884 583.157,-734.0357 588.0017,-728.9829"/>
</g>
<!-- libXrender&#45;&gt;libX11 -->
<g id="edge31" class="edge">
<title>libXrender&#45;&gt;libX11</title>
<path fill="none" stroke="#444444" stroke-opacity="0.333333" d="M464.6888,-644.1729C481.3903,-625.1468 507.7739,-595.0912 526.6464,-573.5921"/>
<polygon fill="#444444" fill-opacity="0.333333" stroke="#444444" stroke-opacity="0.333333" points="529.509,-575.6364 533.4758,-565.8122 524.2483,-571.0185 529.509,-575.6364"/>
</g>
<!-- libXtst&#45;&gt;libX11 -->
<g id="edge32" class="edge">
<title>libXtst&#45;&gt;libX11</title>
<path fill="none" stroke="#444444" stroke-opacity="0.333333" d="M528.071,-762.3924C532.0821,-721.9112 541.7385,-624.4566 546.5366,-576.0325"/>
<polygon fill="#444444" fill-opacity="0.333333" stroke="#444444" stroke-opacity="0.333333" points="550.0342,-576.2291 547.5374,-565.9327 543.0683,-575.5388 550.0342,-576.2291"/>
</g>
<!-- libXtst&#45;&gt;libXext -->
<g id="edge33" class="edge">
<title>libXtst&#45;&gt;libXext</title>
<path fill="none" stroke="#444444" stroke-opacity="0.333333" d="M534.442,-762.3037C538.2499,-753.756 542.8599,-743.408 547.074,-733.9485"/>
<polygon fill="#444444" fill-opacity="0.333333" stroke="#444444" stroke-opacity="0.333333" points="550.3998,-735.0839 551.2721,-724.525 544.0056,-732.2353 550.3998,-735.0839"/>
</g>
<!-- libXtst&#45;&gt;libXi -->
<g id="edge34" class="edge">
<title>libXtst&#45;&gt;libXi</title>
<path fill="none" stroke="#444444" stroke-opacity="0.333333" d="M574.4773,-774.8148C575.2591,-774.7198 576.0412,-774.6248 576.8228,-774.5299"/>
<polygon fill="#444444" fill-opacity="0.333333" stroke="#444444" stroke-opacity="0.333333" points="577.3857,-777.9874 586.8908,-773.3073 576.5418,-771.0384 577.3857,-777.9874"/>
</g>
<!-- javapackages&#45;tools&#45;&gt;java&#45;1.8.0&#45;openjdk&#45;headless -->
<g id="edge35" class="edge">
<title>javapackages&#45;tools&#45;&gt;java&#45;1.8.0&#45;openjdk&#45;headless</title>
<path fill="none" stroke="#444444" stroke-opacity="0.333333" d="M1176.4965,-803.6867C1155.6579,-769.8141 1102.5499,-697.2255 1070.5346,-658.2534"/>
<polygon fill="#444444" fill-opacity="0.333333" stroke="#444444" stroke-opacity="0.333333" points="1073.1367,-655.9088 1064.0423,-650.4735 1067.7622,-660.3938 1073.1367,-655.9088"/>
</g>
<!-- libXfont&#45;&gt;libfontenc -->
<g id="edge36" class="edge">
<title>libXfont&#45;&gt;libfontenc</title>
<path fill="none" stroke="#444444" stroke-opacity="0.333333" d="M1099.4378,-452.1548C1099.3969,-440.0914 1099.3426,-424.0603 1099.2962,-410.368"/>
<polygon fill="#444444" fill-opacity="0.333333" stroke="#444444" stroke-opacity="0.333333" points="1102.795,-409.997 1099.2611,-400.0089 1095.7951,-410.0208 1102.795,-409.997"/>
</g>
<!-- xorg&#45;x11&#45;font&#45;utils&#45;&gt;libXfont -->
<g id="edge37" class="edge">
<title>xorg&#45;x11&#45;font&#45;utils&#45;&gt;libXfont</title>
<path fill="none" stroke="#444444" stroke-opacity="0.333333" d="M1054.2047,-444.6346C1055.7446,-445.5137 1057.2994,-446.4012 1058.8588,-447.2913"/>
<polygon fill="#444444" fill-opacity="0.333333" stroke="#444444" stroke-opacity="0.333333" points="1057.3486,-450.4593 1067.7684,-452.3771 1060.8188,-444.38 1057.3486,-450.4593"/>
</g>
<!-- xorg&#45;x11&#45;font&#45;utils&#45;&gt;libfontenc -->
<g id="edge38" class="edge">
<title>xorg&#45;x11&#45;font&#45;utils&#45;&gt;libfontenc</title>
<path fill="none" stroke="#444444" stroke-opacity="0.333333" d="M1053.6375,-408.3883C1055.3817,-407.3781 1057.1463,-406.3561 1058.9163,-405.331"/>
<polygon fill="#444444" fill-opacity="0.333333" stroke="#444444" stroke-opacity="0.333333" points="1060.8416,-408.2606 1067.7409,-400.2201 1057.3333,-402.2032 1060.8416,-408.2606"/>
</g>
<!-- copy&#45;jdk&#45;configs -->
<g id="node1" class="node">
<title>copy&#45;jdk&#45;configs</title>
<text text-anchor="middle" x="1353" y="-501.41" font-family="monospace" font-size="14.00" fill="#000000">copy&#45;jdk&#45;configs</text>
</g>
<!-- lua -->
<g id="node2" class="node">
<title>lua</title>
<text text-anchor="middle" x="1558.6" y="-470.48" font-family="monospace" font-size="14.00" fill="#000000">lua</text>
</g>
<!-- lua&#45;posix -->
<g id="node3" class="node">
<title>lua&#45;posix</title>
<text text-anchor="middle" x="1499.2" y="-372.25" font-family="monospace" font-size="14.00" fill="#000000">lua&#45;posix</text>
</g>
<!-- giflib -->
<g id="node4" class="node">
<title>giflib</title>
<text text-anchor="middle" x="315.22" y="-594.37" font-family="monospace" font-size="14.00" fill="#000000">giflib</text>
</g>
<!-- libICE -->
<g id="node5" class="node">
<title>libICE</title>
<text text-anchor="middle" x="126.29" y="-597.88" font-family="monospace" font-size="14.00" fill="#000000">libICE</text>
</g>
<!-- libSM -->
<g id="node6" class="node">
<title>libSM</title>
<text text-anchor="middle" x="37.697" y="-569.06" font-family="monospace" font-size="14.00" fill="#000000">libSM</text>
</g>
<!-- libX11 -->
<g id="node7" class="node">
<title>libX11</title>
<text text-anchor="middle" x="549.34" y="-544.04" font-family="monospace" font-size="14.00" fill="#000000">libX11</text>
</g>
<!-- libX11&#45;common -->
<g id="node8" class="node">
<title>libX11&#45;common</title>
<text text-anchor="middle" x="393.79" y="-341.01" font-family="monospace" font-size="14.00" fill="#000000">libX11&#45;common</text>
</g>
<!-- libxcb -->
<g id="node9" class="node">
<title>libxcb</title>
<text text-anchor="middle" x="583.32" y="-230" font-family="monospace" font-size="14.00" fill="#000000">libxcb</text>
</g>
<!-- libXau -->
<g id="node10" class="node">
<title>libXau</title>
<text text-anchor="middle" x="626.66" y="-14.3" font-family="monospace" font-size="14.00" fill="#000000">libXau</text>
</g>
<!-- java&#45;1.8.0&#45;openjdk&#45;devel -->
<g id="node11" class="node">
<title>java&#45;1.8.0&#45;openjdk&#45;devel</title>
<text text-anchor="middle" x="809.84" y="-566.07" font-family="monospace" font-size="14.00" fill="#000000">java&#45;1.8.0&#45;openjdk&#45;devel</text>
</g>
<!-- java&#45;1.8.0&#45;openjdk -->
<g id="node12" class="node">
<title>java&#45;1.8.0&#45;openjdk</title>
<text text-anchor="middle" x="656.22" y="-639.54" font-family="monospace" font-size="14.00" fill="#000000">java&#45;1.8.0&#45;openjdk</text>
</g>
<!-- java&#45;1.8.0&#45;openjdk&#45;headless -->
<g id="node13" class="node">
<title>java&#45;1.8.0&#45;openjdk&#45;headless</title>
<text text-anchor="middle" x="1045.2" y="-628.66" font-family="monospace" font-size="14.00" fill="#000000">java&#45;1.8.0&#45;openjdk&#45;headless</text>
</g>
<!-- libXcomposite -->
<g id="node14" class="node">
<title>libXcomposite</title>
<text text-anchor="middle" x="488.88" y="-494.98" font-family="monospace" font-size="14.00" fill="#000000">libXcomposite</text>
</g>
<!-- libXext -->
<g id="node15" class="node">
<title>libXext</title>
<text text-anchor="middle" x="559.36" y="-702.67" font-family="monospace" font-size="14.00" fill="#000000">libXext</text>
</g>
<!-- libXi -->
<g id="node16" class="node">
<title>libXi</title>
<text text-anchor="middle" x="624.42" y="-765.05" font-family="monospace" font-size="14.00" fill="#000000">libXi</text>
</g>
<!-- libXrender -->
<g id="node17" class="node">
<title>libXrender</title>
<text text-anchor="middle" x="448.75" y="-658.63" font-family="monospace" font-size="14.00" fill="#000000">libXrender</text>
</g>
<!-- libXtst -->
<g id="node18" class="node">
<title>libXtst</title>
<text text-anchor="middle" x="526.26" y="-776.97" font-family="monospace" font-size="14.00" fill="#000000">libXtst</text>
</g>
<!-- xorg&#45;x11&#45;fonts&#45;Type1 -->
<g id="node19" class="node">
<title>xorg&#45;x11&#45;fonts&#45;Type1</title>
<text text-anchor="middle" x="841.02" y="-765.11" font-family="monospace" font-size="14.00" fill="#000000">xorg&#45;x11&#45;fonts&#45;Type1</text>
</g>
<!-- javapackages&#45;tools -->
<g id="node20" class="node">
<title>javapackages&#45;tools</title>
<text text-anchor="middle" x="1185" y="-818.16" font-family="monospace" font-size="14.00" fill="#000000">javapackages&#45;tools</text>
</g>
<!-- tzdata&#45;java -->
<g id="node21" class="node">
<title>tzdata&#45;java</title>
<text text-anchor="middle" x="1250.4" y="-681.51" font-family="monospace" font-size="14.00" fill="#000000">tzdata&#45;java</text>
</g>
<!-- libXfont -->
<g id="node22" class="node">
<title>libXfont</title>
<text text-anchor="middle" x="1099.5" y="-466.79" font-family="monospace" font-size="14.00" fill="#000000">libXfont</text>
</g>
<!-- libfontenc -->
<g id="node23" class="node">
<title>libfontenc</title>
<text text-anchor="middle" x="1099.2" y="-378.3" font-family="monospace" font-size="14.00" fill="#000000">libfontenc</text>
</g>
<!-- xorg&#45;x11&#45;font&#45;utils -->
<g id="node24" class="node">
<title>xorg&#45;x11&#45;font&#45;utils</title>
<text text-anchor="middle" x="1022.4" y="-422.78" font-family="monospace" font-size="14.00" fill="#000000">xorg&#45;x11&#45;font&#45;utils</text>
</g>
</g>
</svg>
