<?xml version="1.0" encoding="UTF-8" standalone="no"?>
<!DOCTYPE svg PUBLIC "-//W3C//DTD SVG 1.1//EN"
 "http://www.w3.org/Graphics/SVG/1.1/DTD/svg11.dtd">
<!-- Generated by graphviz version 2.40.1 (20161225.0304)
 -->
<!-- Title: G Pages: 1 -->
<svg width="2000pt" height="1323pt"
 viewBox="0.00 0.00 2000.47 1323.43" xmlns="http://www.w3.org/2000/svg" xmlns:xlink="http://www.w3.org/1999/xlink">
<g id="graph0" class="graph" transform="scale(1 1) rotate(0) translate(126.7356 1161.8481)">
<title>G</title>
<polygon fill="#dae2ff" stroke="transparent" points="-126.7356,161.5865 -126.7356,-1161.8481 1873.7374,-1161.8481 1873.7374,161.5865 -126.7356,161.5865"/>
<polygon fill="#fed9a6" stroke="#fed9a6" points="774.8347,-442.217 774.3206,-438.0207 774.1456,-435.9824 699.0506,-336.7276 649.2407,-328.2697 631.3623,-325.9488 627.97,-325.577 623.9969,-325.3012 609.8381,-324.8859 602.2744,-324.9678 598.2401,-324.9253 597.5621,-324.9037 595.3402,-324.9219 593.8204,-381.0623 594.7127,-458.3615 588.9743,-454.8378 584.1762,-454.8378 578.666,-458.2167 577.6923,-459.4236 578.2039,-460.0514 583.9384,-463.6625 583.9384,-463.6625 578.2039,-460.0514 577.6923,-459.4236 574.8252,-459.4236 572.8163,-461.0049 570.601,-461.7208 567.8154,-464.7475 435.6,-490.3567 435.6,-490.3567 567.8154,-464.7475 570.601,-461.7208 556.7804,-455.6275 389.7999,-439.4561 388.3118,-437.8724 386.0597,-540.7604 381.3259,-622.4213 383.0253,-624.4117 381.6621,-625.9905 383.3086,-764.2659 393.1642,-772.429 419.9364,-796.4033 268.1378,-795.7555 252.3961,-792.2322 247.6586,-794.9368 244.9898,-798.5595 243.1014,-798.5595 243.1014,-798.5595 244.9898,-798.5595 247.6586,-794.9368 252.3961,-792.2322 268.1378,-795.7555 419.9364,-796.4033 393.1642,-772.429 383.3086,-764.2659 381.6621,-625.9905 376.6913,-628.8492 376.6913,-628.8492 381.6621,-625.9905 383.0253,-624.4117 381.3259,-622.4213 376.6806,-619.7903 376.6806,-619.7903 381.3259,-622.4213 386.0597,-540.7604 388.3118,-437.8724 389.7999,-439.4561 556.7804,-455.6275 570.601,-461.7208 572.8163,-461.0049 574.8252,-459.4236 577.6923,-459.4236 578.666,-458.2167 584.1762,-454.8378 588.9743,-454.8378 594.7127,-458.3615 593.8204,-381.0623 595.3402,-324.9219 594.4326,-324.8906 584.6221,-324.7491 579.6863,-324.9752 568.8495,-324.7764 562.38,-324.7878 372.109,-321.0562 338.131,-377.3074 254.3707,-415.4555 191.4529,-483.0686 189.6946,-485.1333 175.2567,-535.2759 160.0905,-597.7274 79.5452,-658.1955 35.5051,-714.7897 25.8776,-742.3519 181.9755,-793.754 181.9755,-793.754 25.8776,-742.3519 11.5776,-780.8474 9.4515,-786.8508 -122.5039,-873.1205 -122.7356,-873.7891 -117.4708,-943.5682 -115.5303,-994.0902 -114.0528,-1069.0779 -111.3505,-1078.2972 47.1803,-1136.672 49.6856,-1137.6815 64.4812,-1138.8307 67.2134,-1139.1252 72.4428,-1139.7679 75.3937,-991.3865 75.3937,-991.3865 72.4428,-1139.7679 89.9409,-1142.448 86.7514,-1004.7722 88.6756,-965.0067 93.3096,-965.0067 99.1458,-961.6272 100.0294,-960.6454 99.0064,-959.4766 93.557,-956.26 93.557,-956.26 99.0064,-959.4766 100.0294,-960.6454 99.1458,-961.6272 93.3096,-965.0067 88.6756,-965.0067 86.7514,-1004.7722 89.9409,-1142.448 93.8747,-1143.1688 104.1261,-1145.3574 116.1832,-1148.2965 120.5028,-1149.4144 148.2129,-1157.8481 149.8781,-1156.7528 199.981,-1124.7571 320.0826,-1019.6835 338.6919,-993.381 352.8358,-986.7265 353.9781,-984.8804 440.9886,-813.5461 519.5077,-775.0582 590.8568,-685.67 598.7028,-676.1449 604.9139,-674.767 638.8578,-668.1571 784.1669,-613.878 791.9104,-591.3096 781.2325,-503.631 774.8347,-442.217 774.8347,-442.217"/>
<polygon fill="#fbb4ae" stroke="#fbb4ae" points="579.6863,-324.9752 568.8495,-324.7764 562.38,-324.7878 372.109,-321.0562 370.4302,-259.5933 372.742,-249.1606 390.3799,-163.3875 402.2662,-93.8407 404.5833,-90.6853 557.4551,-12.9528 572.1132,26.1827 600.5137,106.7206 677.8345,157.5865 717.675,153.1184 738.6264,151.1193 743.7836,150.7144 751.0499,150.2668 753.8032,150.1901 758.8461,150.1347 769.037,150.1949 784.9508,150.8264 797.2068,151.726 845.7886,156.1087 883.526,142.6956 899.0406,142.3135 904.3126,-10.2721 904.3126,-10.2721 899.0406,142.3135 899.6765,142.3172 913.8123,137.4944 928.2341,133.0743 943.1936,129.0121 1069.5607,99.1365 1096.9597,-4.2146 1111.8065,-56.1069 1100.0765,-62.1725 1024.2169,-105.1529 1017.3409,-108.5605 1004.0867,-114.6605 940.0841,-139.4786 931.0519,-143.6319 916.3829,-150.9044 911.5401,-153.6409 903.6548,-158.6599 928.804,-211.63 945.4347,-261.8838 958.2473,-291.6443 967.9763,-312.1358 965.5122,-313.9483 958.2705,-318.7066 948.1536,-324.958 946.0009,-326.2011 876.6343,-360.8547 860.7432,-369.4642 859.1137,-370.4113 858.7935,-370.6103 853.5604,-374.3073 833.8587,-389.0856 809.8811,-408.9885 774.1456,-435.9824 699.0506,-336.7276 649.2407,-328.2697 631.3623,-325.9488 627.97,-325.577 623.9969,-325.3012 609.8381,-324.8859 602.2744,-324.9678 598.2401,-324.9253 597.5621,-324.9037 599.395,-240.1061 603.3607,-192.4447 607.3958,-194.688 613.3433,-194.688 617.342,-192.475 621.7374,-245.6537 623.171,-190.3419 623.171,-190.3419 621.7374,-245.6537 617.342,-192.475 619.3182,-190.1828 618.4263,-189.1976 612.4284,-185.757 608.2498,-185.757 608.2498,-185.757 612.4284,-185.757 618.4263,-189.1976 619.3182,-190.1828 617.342,-192.475 613.3433,-194.688 607.3958,-194.688 603.3607,-192.4447 599.395,-240.1061 597.5621,-324.9037 595.3402,-324.9219 594.4326,-324.8906 584.6221,-324.7491 579.6863,-324.9752 579.6863,-324.9752"/>
<polygon fill="#bbd7d9" stroke="#bbd7d9" points="1438.6144,-306.3438 1427.8348,-303.4629 1427.8348,-303.4629 1438.6144,-306.3438 1589.9838,-296.2179 1596.8784,-338.1267 1609.158,-405.1902 1601.7723,-409.8026 1598.3451,-411.8187 1585.4082,-419.1972 1576.8032,-423.9474 1573.0609,-425.8089 1566.1426,-429.0045 1542.7052,-439.4143 1433.2838,-485.9785 1425.6942,-489.344 1407.2516,-498.1827 1406.7792,-498.171 1409.8367,-333.0744 1406.1735,-309.9027 1402.8092,-309.9027 1402.6733,-309.8656 1401.8643,-309.8656 1398.2042,-306.866 1398.2042,-306.866 1401.8643,-309.8656 1402.6733,-309.8656 1402.8092,-309.9027 1406.1735,-309.9027 1409.8367,-333.0744 1406.7792,-498.171 1398.2827,-498.1985 1396.4298,-498.2566 1389.9797,-498.277 1388.968,-498.3087 1380.4634,-498.3351 1375.7383,-498.2171 1250.1024,-587.7308 1237.8419,-636.3739 1231.751,-665.7081 1214.9413,-732.5106 1202.4425,-778.5252 1150.6954,-821.1721 1092.6461,-806.6998 1084.8297,-804.8621 1066.0466,-801.2457 1045.8599,-798.5073 1047.6116,-708.986 1046.781,-611.9522 1052.1001,-614.8745 1056.6157,-614.8745 1061.2805,-612.2846 1063.2876,-609.924 1062.1508,-608.6594 1062.1508,-608.6594 1063.2876,-609.924 1061.2805,-612.2846 1056.6157,-614.8745 1052.1001,-614.8745 1046.781,-611.9522 1047.6116,-708.986 1045.8599,-798.5073 1039.1387,-797.7873 1038.7787,-797.7538 1027.9399,-797.0554 1018.8934,-796.6012 1004.3847,-796.0795 978.3674,-795.5151 912.0955,-767.8194 807.1478,-640.2186 784.1669,-613.878 791.9104,-591.3096 781.2325,-503.631 774.8347,-442.217 774.3206,-438.0207 774.1456,-435.9824 809.8811,-408.9885 833.8587,-389.0856 853.5604,-374.3073 858.7935,-370.6103 859.1137,-370.4113 860.7432,-369.4642 876.6343,-360.8547 946.0009,-326.2011 945.9988,-331.5653 945.9988,-331.5653 946.0009,-326.2011 948.1536,-324.958 954.1228,-418.655 954.2183,-418.6819 958.4656,-418.6819 959.4114,-479.938 964.3995,-418.9476 968.5151,-418.9476 969.2365,-418.7488 972.7178,-418.7488 976.8682,-454.2696 979.3331,-420.7906 983.908,-423.3582 988.6079,-423.3582 994.5355,-419.8944 995.3041,-419.0314 999.4094,-419.0314 999.7133,-418.9452 1003.6127,-418.9452 1004.2994,-419.1388 1002.2011,-515.0175 1013.9781,-514.5089 1014.9835,-514.5535 1029.9335,-514.3472 1031.4058,-514.413 1043.4744,-514.2495 1044.2479,-514.1942 1044.3694,-514.1819 1061.8452,-511.9098 1069.3374,-510.5016 1077.1097,-447.383 1127.944,-435.7179 1130.9427,-432.2812 1130.9427,-432.2812 1127.944,-435.7179 1077.1097,-447.383 1069.3374,-510.5016 1061.8452,-511.9098 1044.3694,-514.1819 1044.2479,-514.1942 1043.4744,-514.2495 1031.4058,-514.413 1029.9335,-514.3472 1014.9835,-514.5535 1013.9781,-514.5089 1002.2011,-515.0175 1004.2994,-419.1388 1003.6127,-418.9452 999.7133,-418.9452 999.4094,-419.0314 995.3041,-419.0314 994.5355,-419.8944 988.6079,-423.3582 983.908,-423.3582 979.3331,-420.7906 976.8682,-454.2696 972.7178,-418.7488 969.2365,-418.7488 968.5151,-418.9476 964.3995,-418.9476 959.4114,-479.938 958.4656,-418.6819 954.2183,-418.6819 954.1228,-418.655 948.1536,-324.958 958.2705,-318.7066 965.5122,-313.9483 967.9763,-312.1358 958.2473,-291.6443 945.4347,-261.8838 928.804,-211.63 903.6548,-158.6599 911.5401,-153.6409 916.3829,-150.9044 931.0519,-143.6319 940.0841,-139.4786 1004.0867,-114.6605 1017.3409,-108.5605 1014.5812,-206.6184 1009.9645,-207.9574 1009.2137,-208.662 1008.4524,-211.6369 1009.209,-214.5957 1010.0519,-215.3863 1014.6955,-216.7193 1019.8043,-215.2519 1023.2667,-281.2426 1026.7485,-278.2599 1034.5985,-272.1489 1088.166,-224.9568 1093.8671,-219.4603 1094.0483,-219.3009 1095.0214,-257.9487 1092.5637,-291.1323 1090.6823,-292.8352 1091.2297,-295.4488 1093.0093,-297.1024 1093.0093,-297.1024 1091.2297,-295.4488 1090.6823,-292.8352 1092.5637,-291.1323 1095.0214,-257.9487 1094.0483,-219.3009 1093.8671,-219.4603 1088.166,-224.9568 1034.5985,-272.1489 1026.7485,-278.2599 1023.2667,-281.2426 1019.8043,-215.2519 1014.6955,-216.7193 1010.0519,-215.3863 1009.209,-214.5957 1008.4524,-211.6369 1009.2137,-208.662 1009.9645,-207.9574 1014.5812,-206.6184 1017.3409,-108.5605 1024.2169,-105.1529 1100.0765,-62.1725 1111.8065,-56.1069 1188.7402,-123.1886 1243.0243,-145.068 1337.9531,-115.2354 1353.1693,-115.7206 1365.3709,-115.778 1371.4105,-115.7243 1372.4435,-309.6119 1372.3646,-309.6335 1367.4673,-309.6335 1366.9772,-309.7683 1363.5106,-309.7683 1363.4232,-309.7929 1361.9951,-312.1759 1357.5698,-315.7892 1307.9722,-317.3619 1248.125,-323.1616 1297.5668,-394.7877 1203.9884,-425.4693 1203.9884,-425.4693 1297.5668,-394.7877 1248.125,-323.1616 1307.9722,-317.3619 1357.5698,-315.7892 1361.9951,-312.1759 1363.4232,-309.7929 1363.5106,-309.7683 1366.9772,-309.7683 1367.4673,-309.6335 1372.3646,-309.6335 1372.4435,-309.6119 1371.4105,-115.7243 1383.6355,-115.4492 1386.5917,-115.3425 1394.7675,-114.8252 1400.1139,-114.3414 1401.8663,-114.159 1411.1251,-113.0688 1428.4325,-110.7953 1438.6807,-109.0329 1521.1128,-139.927 1554.5422,-178.0732 1586.536,-268.8753 1589.9838,-296.2179 1438.6144,-306.3438 1438.6144,-306.3438"/>
<polygon fill="#d8d6da" stroke="#d8d6da" points="1681.0251,-426.4253 1678.2823,-508.5331 1672.1577,-609.9223 1670.0709,-612.8151 1667.7693,-612.8151 1662.7284,-497.7251 1662.1859,-612.8897 1662.8998,-613.0948 1654.9697,-718.8767 1657.2743,-612.8959 1652.1343,-612.8959 1651.7214,-613.0167 1647.1821,-613.0167 1646.8508,-612.9191 1646.8508,-612.9191 1647.1821,-613.0167 1651.7214,-613.0167 1652.1343,-612.8959 1657.2743,-612.8959 1654.9697,-718.8767 1662.8998,-613.0948 1662.1859,-612.8897 1662.7284,-497.7251 1667.7693,-612.8151 1670.0709,-612.8151 1672.1577,-609.9223 1678.2823,-508.5331 1681.0251,-426.4253 1661.2491,-422.0403 1652.6393,-419.8737 1649.1854,-418.9531 1639.5204,-415.94 1626.7129,-411.7538 1618.5487,-408.9636 1618.505,-522.5306 1619.5127,-538.6158 1621.1765,-609.9969 1615.8768,-608.3984 1610.0309,-610.1554 1606.6146,-613.027 1606.4664,-613.027 1604.9724,-613.4589 1601.3835,-613.4589 1597.5035,-650.3893 1594.6035,-613.1325 1590.8295,-613.1325 1586.4586,-672.6341 1584.765,-613.3666 1584.765,-613.3666 1586.4586,-672.6341 1590.8295,-613.1325 1594.6035,-613.1325 1597.5035,-650.3893 1601.3835,-613.4589 1604.9724,-613.4589 1606.4664,-613.027 1606.6146,-613.027 1610.0309,-610.1554 1615.8768,-608.3984 1621.1765,-609.9969 1619.5127,-538.6158 1618.505,-522.5306 1618.5487,-408.9636 1609.158,-405.1902 1601.7723,-409.8026 1598.3451,-411.8187 1585.4082,-419.1972 1576.8032,-423.9474 1573.0609,-425.8089 1566.1426,-429.0045 1542.7052,-439.4143 1433.2838,-485.9785 1425.6942,-489.344 1407.2516,-498.1827 1406.7792,-498.171 1398.2827,-498.1985 1396.4298,-498.2566 1389.9797,-498.277 1388.968,-498.3087 1380.4634,-498.3351 1375.7383,-498.2171 1250.1024,-587.7308 1237.8419,-636.3739 1231.751,-665.7081 1214.9413,-732.5106 1202.4425,-778.5252 1150.6954,-821.1721 1168.3032,-921.0334 1168.9441,-925.0845 1178.2382,-1001.2136 1182.3191,-1005.6377 1307.912,-1120.1448 1339.6925,-1134.3521 1342.4174,-985.4791 1342.4174,-985.4791 1339.6925,-1134.3521 1351.0125,-1139.7604 1360.0323,-1144.3463 1363.208,-1146.0095 1376.8224,-1141.5098 1376.7532,-1089.5781 1376.5316,-1083.0367 1374.9094,-986.9043 1374.9094,-986.9043 1376.5316,-1083.0367 1376.7532,-1089.5781 1382.8933,-960.2703 1387.3496,-928.3845 1391.6696,-928.3845 1396.5248,-925.6639 1398.3479,-923.5483 1396.4847,-921.4722 1391.9064,-919.0121 1387.2776,-919.0121 1387.2776,-919.0121 1391.9064,-919.0121 1396.4847,-921.4722 1398.3479,-923.5483 1396.5248,-925.6639 1391.6696,-928.3845 1387.3496,-928.3845 1382.8933,-960.2703 1376.7532,-1089.5781 1376.8224,-1141.5098 1399.9232,-1135.4115 1404.069,-1134.3727 1413.2633,-1132.4365 1436.0796,-1128.5378 1435.8995,-1118.2097 1435.8995,-1118.2097 1436.0796,-1128.5378 1546.109,-1114.1368 1550.7625,-1112.9712 1598.312,-1097.7318 1611.5022,-1080.4297 1614.2292,-1078.9521 1636.4099,-1067.8953 1637.672,-1067.3035 1639.1259,-991.0496 1636.465,-845.2185 1631.666,-845.2185 1630.6146,-844.916 1627.3407,-844.916 1623.7006,-810.1069 1620.8148,-841.4175 1616.3301,-840.1882 1611.7227,-841.4727 1607.3312,-805.465 1606.4064,-781.9515 1599.9794,-844.9733 1596.0421,-844.9733 1595.6582,-845.0821 1590.7527,-845.0821 1590.2953,-844.9526 1586.4763,-844.9526 1585.579,-845.2111 1585.4427,-908.4577 1579.641,-845.4899 1575.9095,-845.4899 1575.3865,-845.3397 1575.0773,-776.6454 1569.8234,-841.3862 1565.1901,-838.6867 1562.7787,-729.1736 1558.0928,-729.3024 1548.647,-716.3881 1536.0555,-700.125 1468.5173,-691.0703 1468.5173,-691.0703 1536.0555,-700.125 1548.647,-716.3881 1558.0928,-729.3024 1562.7787,-729.1736 1565.1901,-838.6867 1569.8234,-841.3862 1575.0773,-776.6454 1575.3865,-845.3397 1575.9095,-845.4899 1579.641,-845.4899 1585.4427,-908.4577 1585.579,-845.2111 1586.4763,-844.9526 1590.2953,-844.9526 1590.7527,-845.0821 1595.6582,-845.0821 1596.0421,-844.9733 1599.9794,-844.9733 1606.4064,-781.9515 1607.3312,-805.465 1611.7227,-841.4727 1616.3301,-840.1882 1620.8148,-841.4175 1623.7006,-810.1069 1627.3407,-844.916 1630.6146,-844.916 1631.666,-845.2185 1636.465,-845.2185 1639.1259,-991.0496 1637.672,-1067.3035 1651.1844,-1061.5491 1663.2982,-1056.7397 1682.5856,-1049.363 1786.6516,-1011.1153 1860.7843,-893.0515 1854.1313,-845.16 1844.4856,-737.3606 1869.7374,-688.1603 1843.91,-613.06 1797.6835,-450.0347 1793.7496,-448.0116 1681.0251,-426.4253 1681.0251,-426.4253"/>
<polyline fill="none" stroke="#000000" points="353.9781,-984.8804 440.9886,-813.5461 519.5077,-775.0582 590.8568,-685.67 598.7028,-676.1449 604.9139,-674.767 638.8578,-668.1571 784.1669,-613.878 791.9104,-591.3096 781.2325,-503.631 774.8347,-442.217 774.3206,-438.0207 774.1456,-435.9824 699.0506,-336.7276 649.2407,-328.2697 631.3623,-325.9488 627.97,-325.577 623.9969,-325.3012 609.8381,-324.8859 602.2744,-324.9678 598.2401,-324.9253 597.5621,-324.9037 595.3402,-324.9219 594.4326,-324.8906 584.6221,-324.7491 579.6863,-324.9752 568.8495,-324.7764 562.38,-324.7878 372.109,-321.0562 338.131,-377.3074 254.3707,-415.4555 191.4529,-483.0686 189.6946,-485.1333 175.2567,-535.2759 160.0905,-597.7274 79.5452,-658.1955 35.5051,-714.7897 25.8776,-742.3519 11.5776,-780.8474 9.4515,-786.8508 -122.5039,-873.1205 -122.7356,-873.7891 -117.4708,-943.5682 -115.5303,-994.0902 -114.0528,-1069.0779 -111.3505,-1078.2972 47.1803,-1136.672 49.6856,-1137.6815 64.4812,-1138.8307 67.2134,-1139.1252 72.4428,-1139.7679 89.9409,-1142.448 93.8747,-1143.1688 104.1261,-1145.3574 116.1832,-1148.2965 120.5028,-1149.4144 148.2129,-1157.8481 149.8781,-1156.7528 199.981,-1124.7571 320.0826,-1019.6835 338.6919,-993.381 352.8358,-986.7265 353.9781,-984.8804 "/>
<polyline fill="none" stroke="#000000" points="853.5604,-374.3073 858.7935,-370.6103 859.1137,-370.4113 860.7432,-369.4642 876.6343,-360.8547 946.0009,-326.2011 948.1536,-324.958 958.2705,-318.7066 965.5122,-313.9483 967.9763,-312.1358 958.2473,-291.6443 945.4347,-261.8838 928.804,-211.63 903.6548,-158.6599 911.5401,-153.6409 916.3829,-150.9044 931.0519,-143.6319 940.0841,-139.4786 1004.0867,-114.6605 1017.3409,-108.5605 1024.2169,-105.1529 1100.0765,-62.1725 1111.8065,-56.1069 1096.9597,-4.2146 1069.5607,99.1365 943.1936,129.0121 928.2341,133.0743 913.8123,137.4944 899.6765,142.3172 899.0406,142.3135 883.526,142.6956 845.7886,156.1087 797.2068,151.726 784.9508,150.8264 769.037,150.1949 758.8461,150.1347 753.8032,150.1901 751.0499,150.2668 743.7836,150.7144 738.6264,151.1193 717.675,153.1184 677.8345,157.5865 600.5137,106.7206 572.1132,26.1827 557.4551,-12.9528 404.5833,-90.6853 402.2662,-93.8407 390.3799,-163.3875 372.742,-249.1606 370.4302,-259.5933 372.109,-321.0562 562.38,-324.7878 568.8495,-324.7764 579.6863,-324.9752 584.6221,-324.7491 594.4326,-324.8906 595.3402,-324.9219 597.5621,-324.9037 598.2401,-324.9253 602.2744,-324.9678 609.8381,-324.8859 623.9969,-325.3012 627.97,-325.577 631.3623,-325.9488 649.2407,-328.2697 699.0506,-336.7276 774.1456,-435.9824 809.8811,-408.9885 833.8587,-389.0856 853.5604,-374.3073 "/>
<polyline fill="none" stroke="#000000" points="1375.7383,-498.2171 1380.4634,-498.3351 1388.968,-498.3087 1389.9797,-498.277 1396.4298,-498.2566 1398.2827,-498.1985 1406.7792,-498.171 1407.2516,-498.1827 1425.6942,-489.344 1433.2838,-485.9785 1542.7052,-439.4143 1566.1426,-429.0045 1573.0609,-425.8089 1576.8032,-423.9474 1585.4082,-419.1972 1598.3451,-411.8187 1601.7723,-409.8026 1609.158,-405.1902 1596.8784,-338.1267 1589.9838,-296.2179 1586.536,-268.8753 1554.5422,-178.0732 1521.1128,-139.927 1438.6807,-109.0329 1428.4325,-110.7953 1411.1251,-113.0688 1401.8663,-114.159 1400.1139,-114.3414 1394.7675,-114.8252 1386.5917,-115.3425 1383.6355,-115.4492 1371.4105,-115.7243 1365.3709,-115.778 1353.1693,-115.7206 1337.9531,-115.2354 1243.0243,-145.068 1188.7402,-123.1886 1111.8065,-56.1069 1100.0765,-62.1725 1024.2169,-105.1529 1017.3409,-108.5605 1004.0867,-114.6605 940.0841,-139.4786 931.0519,-143.6319 916.3829,-150.9044 911.5401,-153.6409 903.6548,-158.6599 928.804,-211.63 945.4347,-261.8838 958.2473,-291.6443 967.9763,-312.1358 965.5122,-313.9483 958.2705,-318.7066 948.1536,-324.958 946.0009,-326.2011 876.6343,-360.8547 860.7432,-369.4642 859.1137,-370.4113 858.7935,-370.6103 853.5604,-374.3073 833.8587,-389.0856 809.8811,-408.9885 774.1456,-435.9824 774.3206,-438.0207 774.8347,-442.217 781.2325,-503.631 791.9104,-591.3096 784.1669,-613.878 807.1478,-640.2186 912.0955,-767.8194 978.3674,-795.5151 1004.3847,-796.0795 1018.8934,-796.6012 1027.9399,-797.0554 1038.7787,-797.7538 1039.1387,-797.7873 1045.8599,-798.5073 1066.0466,-801.2457 1084.8297,-804.8621 1092.6461,-806.6998 1150.6954,-821.1721 1202.4425,-778.5252 1214.9413,-732.5106 1231.751,-665.7081 1237.8419,-636.3739 1250.1024,-587.7308 1375.7383,-498.2171 "/>
<polyline fill="none" stroke="#000000" points="1396.4298,-498.2566 1389.9797,-498.277 1388.968,-498.3087 1380.4634,-498.3351 1375.7383,-498.2171 1250.1024,-587.7308 1237.8419,-636.3739 1231.751,-665.7081 1214.9413,-732.5106 1202.4425,-778.5252 1150.6954,-821.1721 1168.3032,-921.0334 1168.9441,-925.0845 1178.2382,-1001.2136 1182.3191,-1005.6377 1307.912,-1120.1448 1339.6925,-1134.3521 1351.0125,-1139.7604 1360.0323,-1144.3463 1363.208,-1146.0095 1376.8224,-1141.5098 1399.9232,-1135.4115 1404.069,-1134.3727 1413.2633,-1132.4365 1436.0796,-1128.5378 1546.109,-1114.1368 1550.7625,-1112.9712 1598.312,-1097.7318 1611.5022,-1080.4297 1614.2292,-1078.9521 1636.4099,-1067.8953 1637.672,-1067.3035 1651.1844,-1061.5491 1663.2982,-1056.7397 1682.5856,-1049.363 1786.6516,-1011.1153 1860.7843,-893.0515 1854.1313,-845.16 1844.4856,-737.3606 1869.7374,-688.1603 1843.91,-613.06 1797.6835,-450.0347 1793.7496,-448.0116 1681.0251,-426.4253 1661.2491,-422.0403 1652.6393,-419.8737 1649.1854,-418.9531 1639.5204,-415.94 1626.7129,-411.7538 1618.5487,-408.9636 1609.158,-405.1902 1601.7723,-409.8026 1598.3451,-411.8187 1585.4082,-419.1972 1576.8032,-423.9474 1573.0609,-425.8089 1566.1426,-429.0045 1542.7052,-439.4143 1433.2838,-485.9785 1425.6942,-489.344 1407.2516,-498.1827 1406.7792,-498.171 1398.2827,-498.1985 1396.4298,-498.2566 "/>
<!-- curl&#45;minimal&#45;&gt;libcurl&#45;minimal -->
<g id="edge1" class="edge">
<title>curl&#45;minimal&#45;&gt;libcurl&#45;minimal</title>
<path fill="none" stroke="#444444" stroke-opacity="0.333333" d="M203.1983,-816.9483C180.9017,-845.4776 137.674,-900.7888 111.8688,-933.8074"/>
<polygon fill="#444444" fill-opacity="0.333333" stroke="#444444" stroke-opacity="0.333333" points="108.7957,-932.0557 105.3956,-942.0902 114.3112,-936.3662 108.7957,-932.0557"/>
</g>
<!-- libX11&#45;&gt;libX11&#45;common -->
<g id="edge2" class="edge">
<title>libX11&#45;&gt;libX11&#45;common</title>
<path fill="none" stroke="#444444" stroke-opacity="0.333333" d="M811.5117,-256.8088C773.5665,-244.2821 717.7866,-225.8677 674.5832,-211.6051"/>
<polygon fill="#444444" fill-opacity="0.333333" stroke="#444444" stroke-opacity="0.333333" points="675.6029,-208.256 665.0097,-208.4446 673.4085,-214.9031 675.6029,-208.256"/>
</g>
<!-- libX11&#45;&gt;libxcb -->
<g id="edge3" class="edge">
<title>libX11&#45;&gt;libxcb</title>
<path fill="none" stroke="#444444" stroke-opacity="0.333333" d="M828.9192,-289.0988C780.2875,-323.2702 674.8197,-397.3778 620.4703,-435.5668"/>
<polygon fill="#444444" fill-opacity="0.333333" stroke="#444444" stroke-opacity="0.333333" points="618.3729,-432.7629 612.203,-441.3758 622.3973,-438.4903 618.3729,-432.7629"/>
</g>
<!-- libxcb&#45;&gt;libXau -->
<g id="edge4" class="edge">
<title>libxcb&#45;&gt;libXau</title>
<path fill="none" stroke="#444444" stroke-opacity="0.333333" d="M562.9859,-477.6661C524.5237,-507.4753 448.2906,-566.558 405.2335,-599.9285"/>
<polygon fill="#444444" fill-opacity="0.333333" stroke="#444444" stroke-opacity="0.333333" points="402.8454,-597.3511 397.0854,-606.2434 407.1335,-602.884 402.8454,-597.3511"/>
</g>
<!-- libXau&#45;&gt;curl&#45;minimal -->
<g id="edge5" class="edge">
<title>libXau&#45;&gt;curl&#45;minimal</title>
<path fill="none" stroke="#444444" stroke-opacity="0.333333" d="M357.577,-642.3608C329.7411,-673.4195 272.6012,-737.1748 240.5559,-772.9301"/>
<polygon fill="#444444" fill-opacity="0.333333" stroke="#444444" stroke-opacity="0.333333" points="237.8071,-770.7531 233.7393,-780.5359 243.0199,-775.425 237.8071,-770.7531"/>
</g>
<!-- libXft&#45;&gt;libX11 -->
<g id="edge6" class="edge">
<title>libXft&#45;&gt;libX11</title>
<path fill="none" stroke="#444444" stroke-opacity="0.333333" d="M915.864,-60.9393C904.2453,-100.7978 876.594,-195.657 862.7743,-243.0664"/>
<polygon fill="#444444" fill-opacity="0.333333" stroke="#444444" stroke-opacity="0.333333" points="859.3274,-242.3846 859.889,-252.9646 866.0477,-244.3436 859.3274,-242.3846"/>
</g>
<!-- libXft&#45;&gt;libXrender -->
<g id="edge7" class="edge">
<title>libXft&#45;&gt;libXrender</title>
<path fill="none" stroke="#444444" stroke-opacity="0.333333" d="M878.004,-36.0325C864.6686,-33.9945 849.5779,-31.6883 834.7527,-29.4226"/>
<polygon fill="#444444" fill-opacity="0.333333" stroke="#444444" stroke-opacity="0.333333" points="834.9704,-25.9153 824.5564,-27.8644 833.9128,-32.835 834.9704,-25.9153"/>
</g>
<!-- libXrender&#45;&gt;libX11 -->
<g id="edge8" class="edge">
<title>libXrender&#45;&gt;libX11</title>
<path fill="none" stroke="#444444" stroke-opacity="0.333333" d="M766.8141,-36.198C783.1794,-79.9678 824.8242,-191.3494 844.2934,-243.421"/>
<polygon fill="#444444" fill-opacity="0.333333" stroke="#444444" stroke-opacity="0.333333" points="841.097,-244.866 847.8775,-253.0069 847.6537,-242.4144 841.097,-244.866"/>
</g>
<!-- python2&#45;debug&#45;&gt;libX11 -->
<g id="edge9" class="edge">
<title>python2&#45;debug&#45;&gt;libX11</title>
<path fill="none" stroke="#444444" stroke-opacity="0.333333" d="M1130.5839,-412.2657C1073.5763,-383.0918 961.5603,-325.7671 899.2,-293.854"/>
<polygon fill="#444444" fill-opacity="0.333333" stroke="#444444" stroke-opacity="0.333333" points="900.4995,-290.5874 890.003,-289.1474 897.3105,-296.8188 900.4995,-290.5874"/>
</g>
<!-- python2&#45;debug&#45;&gt;python2&#45;devel -->
<g id="edge10" class="edge">
<title>python2&#45;debug&#45;&gt;python2&#45;devel</title>
<path fill="none" stroke="#444444" stroke-opacity="0.333333" d="M1183.6006,-448.4048C1227.208,-493.0383 1340.3841,-608.8777 1391.0871,-660.7738"/>
<polygon fill="#444444" fill-opacity="0.333333" stroke="#444444" stroke-opacity="0.333333" points="1388.8919,-663.5353 1398.3838,-668.2422 1393.8989,-658.6434 1388.8919,-663.5353"/>
</g>
<!-- python2&#45;debug&#45;&gt;python2&#45;test -->
<g id="edge11" class="edge">
<title>python2&#45;debug&#45;&gt;python2&#45;test</title>
<path fill="none" stroke="#444444" stroke-opacity="0.333333" d="M1199.9093,-412.3484C1239.7737,-391.1385 1305.9958,-355.9048 1349.4496,-332.7851"/>
<polygon fill="#444444" fill-opacity="0.333333" stroke="#444444" stroke-opacity="0.333333" points="1351.1746,-335.8319 1358.3589,-328.0449 1347.8866,-329.6522 1351.1746,-335.8319"/>
</g>
<!-- python2&#45;debug&#45;&gt;python2&#45;tkinter -->
<g id="edge12" class="edge">
<title>python2&#45;debug&#45;&gt;python2&#45;tkinter</title>
<path fill="none" stroke="#444444" stroke-opacity="0.333333" d="M1085.3982,-425.2062C1085.235,-425.1957 1085.0717,-425.1852 1084.9085,-425.1747"/>
<polygon fill="#444444" fill-opacity="0.333333" stroke="#444444" stroke-opacity="0.333333" points="1087.747,-421.8502 1077.5429,-424.701 1087.2976,-428.8358 1087.747,-421.8502"/>
</g>
<!-- python2&#45;debug&#45;&gt;python2&#45;tools -->
<g id="edge13" class="edge">
<title>python2&#45;debug&#45;&gt;python2&#45;tools</title>
<path fill="none" stroke="#444444" stroke-opacity="0.333333" d="M1154.685,-448.6176C1134.9152,-480.4654 1094.0044,-546.37 1071.0141,-583.4058"/>
<polygon fill="#444444" fill-opacity="0.333333" stroke="#444444" stroke-opacity="0.333333" points="1067.8794,-581.8193 1065.579,-592.1614 1073.8267,-585.5112 1067.8794,-581.8193"/>
</g>
<!-- python2&#45;debug&#45;&gt;tix -->
<g id="edge14" class="edge">
<title>python2&#45;debug&#45;&gt;tix</title>
<path fill="none" stroke="#444444" stroke-opacity="0.333333" d="M1157.0232,-412.2771C1145.508,-389.0422 1125.4257,-348.5211 1112.0218,-321.4753"/>
<polygon fill="#444444" fill-opacity="0.333333" stroke="#444444" stroke-opacity="0.333333" points="1114.9905,-319.5836 1107.4139,-312.1778 1108.7185,-322.692 1114.9905,-319.5836"/>
</g>
<!-- python2&#45;debug&#45;&gt;tk -->
<g id="edge15" class="edge">
<title>python2&#45;debug&#45;&gt;tk</title>
<path fill="none" stroke="#444444" stroke-opacity="0.333333" d="M1153.3605,-412.1149C1126.594,-373.414 1064.1033,-283.0607 1032.983,-238.0649"/>
<polygon fill="#444444" fill-opacity="0.333333" stroke="#444444" stroke-opacity="0.333333" points="1035.7641,-235.9329 1027.1971,-229.6992 1030.0069,-239.9147 1035.7641,-235.9329"/>
</g>
<!-- python2&#45;devel&#45;&gt;python2&#45;rpm&#45;macros -->
<g id="edge16" class="edge">
<title>python2&#45;devel&#45;&gt;python2&#45;rpm&#45;macros</title>
<path fill="none" stroke="#444444" stroke-opacity="0.333333" d="M1439.2311,-704.7711C1475.2098,-733.313 1544.9726,-788.6555 1585.328,-820.6694"/>
<polygon fill="#444444" fill-opacity="0.333333" stroke="#444444" stroke-opacity="0.333333" points="1583.2198,-823.4645 1593.2293,-826.9374 1587.5703,-817.9805 1583.2198,-823.4645"/>
</g>
<!-- python2&#45;devel&#45;&gt;python3&#45;rpm&#45;generators -->
<g id="edge17" class="edge">
<title>python2&#45;devel&#45;&gt;python3&#45;rpm&#45;generators</title>
<path fill="none" stroke="#444444" stroke-opacity="0.333333" d="M1465.3833,-668.5008C1493.1764,-658.2636 1528.1169,-645.3937 1557.3355,-634.6315"/>
<polygon fill="#444444" fill-opacity="0.333333" stroke="#444444" stroke-opacity="0.333333" points="1558.8325,-637.81 1567.0065,-631.0693 1556.413,-631.2414 1558.8325,-637.81"/>
</g>
<!-- python2&#45;devel&#45;&gt;python&#45;rpm&#45;macros -->
<g id="edge18" class="edge">
<title>python2&#45;devel&#45;&gt;python&#45;rpm&#45;macros</title>
<path fill="none" stroke="#444444" stroke-opacity="0.333333" d="M1414.2262,-704.795C1409.5439,-745.9207 1398.1258,-846.2098 1392.5168,-895.4759"/>
<polygon fill="#444444" fill-opacity="0.333333" stroke="#444444" stroke-opacity="0.333333" points="1389.0346,-895.1212 1391.3809,-905.453 1395.9897,-895.9131 1389.0346,-895.1212"/>
</g>
<!-- python2&#45;tkinter&#45;&gt;libX11 -->
<g id="edge19" class="edge">
<title>python2&#45;tkinter&#45;&gt;libX11</title>
<path fill="none" stroke="#444444" stroke-opacity="0.333333" d="M970.25,-400.7168C947.0308,-374.677 904.1148,-326.5475 877.6014,-296.8132"/>
<polygon fill="#444444" fill-opacity="0.333333" stroke="#444444" stroke-opacity="0.333333" points="880.1798,-294.4458 870.9122,-289.3114 874.9552,-299.1045 880.1798,-294.4458"/>
</g>
<!-- python2&#45;tkinter&#45;&gt;tix -->
<g id="edge20" class="edge">
<title>python2&#45;tkinter&#45;&gt;tix</title>
<path fill="none" stroke="#444444" stroke-opacity="0.333333" d="M1002.6943,-400.6857C1021.7704,-379.4191 1053.5149,-344.0293 1075.1713,-319.8861"/>
<polygon fill="#444444" fill-opacity="0.333333" stroke="#444444" stroke-opacity="0.333333" points="1078.0241,-321.9473 1082.096,-312.1662 1072.8133,-317.2732 1078.0241,-321.9473"/>
</g>
<!-- python2&#45;tkinter&#45;&gt;tk -->
<g id="edge21" class="edge">
<title>python2&#45;tkinter&#45;&gt;tk</title>
<path fill="none" stroke="#444444" stroke-opacity="0.333333" d="M988.8711,-400.814C993.8034,-364.6874 1004.9306,-283.1858 1010.8411,-239.8941"/>
<polygon fill="#444444" fill-opacity="0.333333" stroke="#444444" stroke-opacity="0.333333" points="1014.3395,-240.1435 1012.2245,-229.7619 1007.4038,-239.1965 1014.3395,-240.1435"/>
</g>
<!-- python2&#45;tools&#45;&gt;python2&#45;tkinter -->
<g id="edge22" class="edge">
<title>python2&#45;tools&#45;&gt;python2&#45;tkinter</title>
<path fill="none" stroke="#444444" stroke-opacity="0.333333" d="M1047.8808,-591.8245C1035.8953,-558.096 1010.2997,-486.0678 996.2112,-446.4214"/>
<polygon fill="#444444" fill-opacity="0.333333" stroke="#444444" stroke-opacity="0.333333" points="999.4566,-445.1014 992.8102,-436.8506 992.8607,-447.4453 999.4566,-445.1014"/>
</g>
<!-- tix&#45;&gt;libX11 -->
<g id="edge23" class="edge">
<title>tix&#45;&gt;libX11</title>
<path fill="none" stroke="#444444" stroke-opacity="0.333333" d="M1071.3798,-291.4463C1032.0637,-287.7449 958.2845,-280.7992 907.8231,-276.0487"/>
<polygon fill="#444444" fill-opacity="0.333333" stroke="#444444" stroke-opacity="0.333333" points="908.0287,-272.5526 897.7446,-275.0999 907.3725,-279.5218 908.0287,-272.5526"/>
</g>
<!-- tix&#45;&gt;tk -->
<g id="edge24" class="edge">
<title>tix&#45;&gt;tk</title>
<path fill="none" stroke="#444444" stroke-opacity="0.333333" d="M1079.8243,-275.7116C1068.2294,-264.3024 1053.1396,-249.4542 1040.4052,-236.9237"/>
<polygon fill="#444444" fill-opacity="0.333333" stroke="#444444" stroke-opacity="0.333333" points="1042.8066,-234.3763 1033.2238,-229.8573 1037.8969,-239.3658 1042.8066,-234.3763"/>
</g>
<!-- tk&#45;&gt;libX11 -->
<g id="edge25" class="edge">
<title>tk&#45;&gt;libX11</title>
<path fill="none" stroke="#444444" stroke-opacity="0.333333" d="M987.5446,-221.7081C965.697,-229.8163 934.3343,-241.4559 907.5592,-251.3928"/>
<polygon fill="#444444" fill-opacity="0.333333" stroke="#444444" stroke-opacity="0.333333" points="906.0858,-248.2063 897.9284,-254.9671 908.5214,-254.769 906.0858,-248.2063"/>
</g>
<!-- tk&#45;&gt;libXft -->
<g id="edge26" class="edge">
<title>tk&#45;&gt;libXft</title>
<path fill="none" stroke="#444444" stroke-opacity="0.333333" d="M1004.6939,-193.5445C988.2873,-163.8906 955.5707,-104.7571 936.3226,-69.9672"/>
<polygon fill="#444444" fill-opacity="0.333333" stroke="#444444" stroke-opacity="0.333333" points="939.1792,-67.9006 931.2755,-60.8449 933.0542,-71.2894 939.1792,-67.9006"/>
</g>
<!-- curl&#45;minimal -->
<g id="node1" class="node">
<title>curl&#45;minimal</title>
<text text-anchor="middle" x="217.46" y="-795" font-family="monospace" font-size="14.00" fill="#000000">curl&#45;minimal</text>
</g>
<!-- libcurl&#45;minimal -->
<g id="node2" class="node">
<title>libcurl&#45;minimal</title>
<text text-anchor="middle" x="90.992" y="-956.82" font-family="monospace" font-size="14.00" fill="#000000">libcurl&#45;minimal</text>
</g>
<!-- libX11 -->
<g id="node3" class="node">
<title>libX11</title>
<text text-anchor="middle" x="854.62" y="-267.34" font-family="monospace" font-size="14.00" fill="#000000">libX11</text>
</g>
<!-- libX11&#45;common -->
<g id="node4" class="node">
<title>libX11&#45;common</title>
<text text-anchor="middle" x="610.35" y="-186.7" font-family="monospace" font-size="14.00" fill="#000000">libX11&#45;common</text>
</g>
<!-- libxcb -->
<g id="node5" class="node">
<title>libxcb</title>
<text text-anchor="middle" x="586.58" y="-455.68" font-family="monospace" font-size="14.00" fill="#000000">libxcb</text>
</g>
<!-- libXau -->
<g id="node6" class="node">
<title>libXau</title>
<text text-anchor="middle" x="373.71" y="-620.66" font-family="monospace" font-size="14.00" fill="#000000">libXau</text>
</g>
<!-- libXft -->
<g id="node7" class="node">
<title>libXft</title>
<text text-anchor="middle" x="921.2" y="-38.934" font-family="monospace" font-size="14.00" fill="#000000">libXft</text>
</g>
<!-- libXrender -->
<g id="node8" class="node">
<title>libXrender</title>
<text text-anchor="middle" x="760.01" y="-14.3" font-family="monospace" font-size="14.00" fill="#000000">libXrender</text>
</g>
<!-- python2&#45;debug -->
<g id="node9" class="node">
<title>python2&#45;debug</title>
<text text-anchor="middle" x="1166" y="-426.69" font-family="monospace" font-size="14.00" fill="#000000">python2&#45;debug</text>
</g>
<!-- python2&#45;devel -->
<g id="node10" class="node">
<title>python2&#45;devel</title>
<text text-anchor="middle" x="1416.3" y="-682.88" font-family="monospace" font-size="14.00" fill="#000000">python2&#45;devel</text>
</g>
<!-- python2&#45;test -->
<g id="node11" class="node">
<title>python2&#45;test</title>
<text text-anchor="middle" x="1392.5" y="-306.18" font-family="monospace" font-size="14.00" fill="#000000">python2&#45;test</text>
</g>
<!-- python2&#45;tkinter -->
<g id="node12" class="node">
<title>python2&#45;tkinter</title>
<text text-anchor="middle" x="986.41" y="-415.14" font-family="monospace" font-size="14.00" fill="#000000">python2&#45;tkinter</text>
</g>
<!-- python2&#45;tools -->
<g id="node13" class="node">
<title>python2&#45;tools</title>
<text text-anchor="middle" x="1054.4" y="-606.47" font-family="monospace" font-size="14.00" fill="#000000">python2&#45;tools</text>
</g>
<!-- tix -->
<g id="node14" class="node">
<title>tix</title>
<text text-anchor="middle" x="1098.4" y="-290.29" font-family="monospace" font-size="14.00" fill="#000000">tix</text>
</g>
<!-- tk -->
<g id="node15" class="node">
<title>tk</title>
<text text-anchor="middle" x="1014.7" y="-207.93" font-family="monospace" font-size="14.00" fill="#000000">tk</text>
</g>
<!-- python2&#45;rpm&#45;macros -->
<g id="node16" class="node">
<title>python2&#45;rpm&#45;macros</title>
<text text-anchor="middle" x="1616.2" y="-841.46" font-family="monospace" font-size="14.00" fill="#000000">python2&#45;rpm&#45;macros</text>
</g>
<!-- python3&#45;rpm&#45;generators -->
<g id="node17" class="node">
<title>python3&#45;rpm&#45;generators</title>
<text text-anchor="middle" x="1615.9" y="-609.36" font-family="monospace" font-size="14.00" fill="#000000">python3&#45;rpm&#45;generators</text>
</g>
<!-- python&#45;rpm&#45;macros -->
<g id="node18" class="node">
<title>python&#45;rpm&#45;macros</title>
<text text-anchor="middle" x="1389.3" y="-920.03" font-family="monospace" font-size="14.00" fill="#000000">python&#45;rpm&#45;macros</text>
</g>
</g>
</svg>
