<?xml version="1.0" encoding="UTF-8" standalone="no"?>
<!DOCTYPE svg PUBLIC "-//W3C//DTD SVG 1.1//EN"
 "http://www.w3.org/Graphics/SVG/1.1/DTD/svg11.dtd">
<!-- Generated by graphviz version 2.40.1 (20161225.0304)
 -->
<!-- Title: G Pages: 1 -->
<svg width="406pt" height="198pt"
 viewBox="0.00 0.00 406.17 197.73" xmlns="http://www.w3.org/2000/svg" xmlns:xlink="http://www.w3.org/1999/xlink">
<g id="graph0" class="graph" transform="scale(1 1) rotate(0) translate(25.4265 103.6344)">
<title>G</title>
<polygon fill="#dae2ff" stroke="transparent" points="-25.4265,94.0974 -25.4265,-103.6344 380.7483,-103.6344 380.7483,94.0974 -25.4265,94.0974"/>
<polygon fill="#fbb4ae" stroke="#fbb4ae" points="54.2574,36.866 52.1931,37.0773 16.0301,43.1872 9.4487,40.7603 -16.4001,-14.9731 -19.7166,-20.9481 -21.4265,-23.5837 39.3142,-85.7356 48.6476,-82.9378 57.4968,-80.7995 58.6517,-80.5882 63.9673,-79.9222 75.7262,-79.1291 77.8851,-79.1093 79.0234,-18.1417 82.1553,-18.1417 84.9562,-20.9812 90.6874,-22.9114 90.6874,-22.9114 84.9562,-20.9812 82.1553,-18.1417 79.0234,-18.1417 77.8851,-79.1093 84.6603,-79.4406 93.1428,-80.3485 107.2467,-83.5035 117.6644,-87.0392 130.9658,-93.1066 142.355,-99.6205 143.083,-99.6344 185.991,-78.4896 240.9595,-95.9676 245.3083,-97.784 254.8267,-91.9548 256.8872,-90.8215 262.8073,-87.9206 276.188,-82.9395 283.7704,-80.5776 295.4564,-78.3445 298.5455,-77.9415 306.5143,-77.3806 309.1292,-77.3539 318.6312,-77.8291 323.3402,-78.3475 354.0041,-83.5681 376.4661,-52.3472 375.4871,-30.1417 376.6838,-5.6689 376.7483,-5.2099 361.3889,28.8943 327.3295,43.217 317.0499,48.2634 308.4644,53.062 306.1071,54.5357 295.5125,61.8863 281.5462,73.4629 275.9532,78.8375 265.7472,90.0974 256.6627,84.2388 246.7277,78.711 244.2922,77.4638 244.1092,77.378 217.8302,66.164 185.991,39.1979 177.1731,40.0472 131.7455,38.7694 127.9375,38.9033 124.9345,39.199 116.1608,40.6247 106.286,42.8597 99.5354,45.2477 93.4703,42.6525 87.3906,40.465 85.7895,39.997 82.6136,39.2768 74.5406,37.971 62.6478,36.8318 58.5016,36.7106 54.2574,36.866 54.2574,36.866"/>
<polyline fill="none" stroke="#000000" points="276.188,-82.9395 283.7704,-80.5776 295.4564,-78.3445 298.5455,-77.9415 306.5143,-77.3806 309.1292,-77.3539 318.6312,-77.8291 323.3402,-78.3475 354.0041,-83.5681 376.4661,-52.3472 375.4871,-30.1417 376.6838,-5.6689 376.7483,-5.2099 361.3889,28.8943 327.3295,43.217 317.0499,48.2634 308.4644,53.062 306.1071,54.5357 295.5125,61.8863 281.5462,73.4629 275.9532,78.8375 265.7472,90.0974 256.6627,84.2388 246.7277,78.711 244.2922,77.4638 244.1092,77.378 217.8302,66.164 185.991,39.1979 177.1731,40.0472 131.7455,38.7694 127.9375,38.9033 124.9345,39.199 116.1608,40.6247 106.286,42.8597 99.5354,45.2477 93.4703,42.6525 87.3906,40.465 85.7895,39.997 82.6136,39.2768 74.5406,37.971 62.6478,36.8318 58.5016,36.7106 54.2574,36.866 52.1931,37.0773 16.0301,43.1872 9.4487,40.7603 -16.4001,-14.9731 -19.7166,-20.9481 -21.4265,-23.5837 39.3142,-85.7356 48.6476,-82.9378 57.4968,-80.7995 58.6517,-80.5882 63.9673,-79.9222 75.7262,-79.1291 77.8851,-79.1093 84.6603,-79.4406 93.1428,-80.3485 107.2467,-83.5035 117.6644,-87.0392 130.9658,-93.1066 142.355,-99.6205 143.083,-99.6344 185.991,-78.4896 240.9595,-95.9676 245.3083,-97.784 254.8267,-91.9548 256.8872,-90.8215 262.8073,-87.9206 276.188,-82.9395 "/>
<!-- perl&#45;generators&#45;&gt;perl&#45;Fedora&#45;VSP -->
<g id="edge1" class="edge">
<title>perl&#45;generators&#45;&gt;perl&#45;Fedora&#45;VSP</title>
<path fill="none" stroke="#444444" stroke-opacity="0.333333" d="M189.8865,-18C189.7258,-18 189.565,-18 189.4043,-18"/>
<polygon fill="#444444" fill-opacity="0.333333" stroke="#444444" stroke-opacity="0.333333" points="192.1684,-14.5001 182.1683,-18 192.1683,-21.5001 192.1684,-14.5001"/>
</g>
<!-- perl&#45;generators -->
<g id="node1" class="node">
<title>perl&#45;generators</title>
<text text-anchor="middle" x="280.99" y="-14.3" font-family="monospace" font-size="14.00" fill="#000000">perl&#45;generators</text>
</g>
<!-- perl&#45;Fedora&#45;VSP -->
<g id="node2" class="node">
<title>perl&#45;Fedora&#45;VSP</title>
<text text-anchor="middle" x="90.992" y="-14.3" font-family="monospace" font-size="14.00" fill="#000000">perl&#45;Fedora&#45;VSP</text>
</g>
</g>
</svg>
