<?xml version="1.0" encoding="UTF-8" standalone="no"?>
<!DOCTYPE svg PUBLIC "-//W3C//DTD SVG 1.1//EN"
 "http://www.w3.org/Graphics/SVG/1.1/DTD/svg11.dtd">
<!-- Generated by graphviz version 2.40.1 (20161225.0304)
 -->
<!-- Title: G Pages: 1 -->
<svg width="758pt" height="341pt"
 viewBox="0.00 0.00 758.24 340.93" xmlns="http://www.w3.org/2000/svg" xmlns:xlink="http://www.w3.org/1999/xlink">
<g id="graph0" class="graph" transform="scale(1 1) rotate(0) translate(83.154 241.1751)">
<title>G</title>
<polygon fill="#dae2ff" stroke="transparent" points="-83.154,99.757 -83.154,-241.1751 675.0873,-241.1751 675.0873,99.757 -83.154,99.757"/>
<polygon fill="#fbb4ae" stroke="#fbb4ae" points="-49.7411,-53.8781 -62.684,-80.3118 -72.4009,-98.6072 -79.154,-110.4628 -69.0104,-117.8287 34.0806,-165.2361 45.5867,-171.494 52.5143,-175.8416 58.0612,-179.5566 67.3239,-186.151 73.4687,-191.0395 79.6522,-196.2213 86.8927,-195.2464 84.4861,-120.796 84.4861,-120.796 86.8927,-195.2464 87.4836,-195.1961 130.2475,-166.5071 176.4034,-161.0067 179.0243,-160.7878 192.3355,-160.6205 192.899,-112.4845 192.899,-112.4845 192.3355,-160.6205 204.4497,-161.3322 200.8532,-76.3724 206.7751,-76.3724 207.2256,-76.2404 207.8806,-76.2404 211.1808,-79.0705 211.1808,-79.0705 207.8806,-76.2404 207.2256,-76.2404 206.7751,-76.3724 200.8532,-76.3724 204.4497,-161.3322 205.0969,-161.3932 214.7638,-162.6496 225.13,-164.7352 233.0389,-166.8905 242.2474,-169.7283 254.3138,-174.3036 257.3351,-175.5544 281.1696,-187.1166 307.7029,-190.1279 323.5535,-183.0959 388.6392,-192.1237 399.5833,-194.2076 404.2469,-186.0993 405.7249,-183.8195 423.4688,-159.4712 435.4771,-144.191 451.8719,-118.3928 474.4495,-76.784 473.9617,-76.189 448.8817,-31.8924 434.2338,-9.7266 418.5179,9.4445 417.8179,-18.6632 417.8179,-18.6632 418.5179,9.4445 407.5999,24.8548 404.0223,24.4709 396.4669,24.107 394.9456,24.0787 384.8095,24.1889 325.1233,26.5989 323.5457,26.4036 284.9751,45.1565 264.8811,40.0626 262.3452,38.5751 252.3246,33.0334 242.0491,28.0476 239.9745,27.1121 223.6793,20.852 214.6123,17.9894 204.8551,15.5721 190.1209,12.9211 181.4764,12.248 168.322,11.6706 130.2725,11.2955 103.5243,25.1182 85.647,17.4862 72.2284,12.7402 63.303,10.2454 48.1281,7.1233 38.4115,5.8485 35.7908,5.6988 25.2864,5.4858 -7.3335,1.0003 -45.3609,-43.9959 -49.7411,-53.8781 -49.7411,-53.8781"/>
<polygon fill="#fed9a6" stroke="#fed9a6" points="664.8428,-44.0643 662.2291,-18 664.3839,72.8496 595.0842,94.3164 594.4242,94.1733 577.3042,90.9282 573.482,90.31 564.4378,89.3463 549.0904,88.557 540.0757,88.5909 538.0078,88.6556 538.7411,-13.6369 533.2014,-17.0676 532.325,-18.1421 532.5756,-18.4397 532.5756,-18.4397 532.325,-18.1421 533.2014,-17.0676 538.7411,-13.6369 538.0078,88.6556 534.9474,88.8356 533.0585,88.9987 519.9818,90.4902 519.0322,90.6246 498.4418,94.6836 494.5999,95.757 407.5999,24.8548 418.5179,9.4445 434.2338,-9.7266 448.8817,-31.8924 473.9617,-76.189 474.4495,-76.784 451.8719,-118.3928 435.4771,-144.191 423.4688,-159.4712 405.7249,-183.8195 404.2469,-186.0993 399.5833,-194.2076 445.5659,-237.1751 493.9771,-225.0973 510.1362,-221.6242 515.9651,-220.9851 524.8011,-220.3245 533.7676,-219.9687 543.9968,-220.2807 554.337,-220.9581 555.6008,-221.1287 571.7497,-224.45 582.614,-227.4436 584.1467,-227.9728 638.4316,-201.5314 666.6787,-157.0486 667.1569,-155.3495 671.0873,-143.1633 664.0298,-124.13 650.9172,-77.971 664.8428,-44.0643 664.8428,-44.0643"/>
<polyline fill="none" stroke="#000000" points="399.5833,-194.2076 388.6392,-192.1237 323.5535,-183.0959 307.7029,-190.1279 281.1696,-187.1166 257.3351,-175.5544 254.3138,-174.3036 242.2474,-169.7283 233.0389,-166.8905 225.13,-164.7352 214.7638,-162.6496 205.0969,-161.3932 204.4497,-161.3322 192.3355,-160.6205 179.0243,-160.7878 176.4034,-161.0067 130.2475,-166.5071 87.4836,-195.1961 86.8927,-195.2464 79.6522,-196.2213 73.4687,-191.0395 67.3239,-186.151 58.0612,-179.5566 52.5143,-175.8416 45.5867,-171.494 34.0806,-165.2361 -69.0104,-117.8287 -79.154,-110.4628 -72.4009,-98.6072 -62.684,-80.3118 -49.7411,-53.8781 -45.3609,-43.9959 -7.3335,1.0003 25.2864,5.4858 35.7908,5.6988 38.4115,5.8485 48.1281,7.1233 63.303,10.2454 72.2284,12.7402 85.647,17.4862 103.5243,25.1182 130.2725,11.2955 168.322,11.6706 181.4764,12.248 190.1209,12.9211 204.8551,15.5721 214.6123,17.9894 223.6793,20.852 239.9745,27.1121 242.0491,28.0476 252.3246,33.0334 262.3452,38.5751 264.8811,40.0626 284.9751,45.1565 323.5457,26.4036 325.1233,26.5989 384.8095,24.1889 394.9456,24.0787 396.4669,24.107 404.0223,24.4709 407.5999,24.8548 418.5179,9.4445 434.2338,-9.7266 448.8817,-31.8924 473.9617,-76.189 474.4495,-76.784 451.8719,-118.3928 435.4771,-144.191 423.4688,-159.4712 405.7249,-183.8195 404.2469,-186.0993 399.5833,-194.2076 "/>
<polyline fill="none" stroke="#000000" points="533.7676,-219.9687 524.8011,-220.3245 515.9651,-220.9851 510.1362,-221.6242 493.9771,-225.0973 445.5659,-237.1751 399.5833,-194.2076 404.2469,-186.0993 405.7249,-183.8195 423.4688,-159.4712 435.4771,-144.191 451.8719,-118.3928 474.4495,-76.784 473.9617,-76.189 448.8817,-31.8924 434.2338,-9.7266 418.5179,9.4445 407.5999,24.8548 494.5999,95.757 498.4418,94.6836 519.0322,90.6246 519.9818,90.4902 533.0585,88.9987 534.9474,88.8356 538.0078,88.6556 540.0757,88.5909 549.0904,88.557 564.4378,89.3463 573.482,90.31 577.3042,90.9282 594.4242,94.1733 595.0842,94.3164 664.3839,72.8496 662.2291,-18 664.8428,-44.0643 650.9172,-77.971 664.0298,-124.13 671.0873,-143.1633 667.1569,-155.3495 666.6787,-157.0486 638.4316,-201.5314 584.1467,-227.9728 582.614,-227.4436 571.7497,-224.45 555.6008,-221.1287 554.337,-220.9581 543.9968,-220.2807 533.7676,-219.9687 "/>
<!-- nginx&#45;&gt;gperftools&#45;libs -->
<g id="edge1" class="edge">
<title>nginx&#45;&gt;gperftools&#45;libs</title>
<path fill="none" stroke="#444444" stroke-opacity="0.333333" d="M365.5405,-76.19C351.838,-76.1904 335.6127,-76.1908 319.0099,-76.1913"/>
<polygon fill="#444444" fill-opacity="0.333333" stroke="#444444" stroke-opacity="0.333333" points="318.6425,-72.6912 308.6427,-76.1915 318.6428,-79.6912 318.6425,-72.6912"/>
</g>
<!-- nginx&#45;&gt;nginx&#45;mimetypes -->
<g id="edge2" class="edge">
<title>nginx&#45;&gt;nginx&#45;mimetypes</title>
<path fill="none" stroke="#444444" stroke-opacity="0.333333" d="M440.952,-92.079C455.7982,-98.3196 473.0904,-105.5883 489.105,-112.3201"/>
<polygon fill="#444444" fill-opacity="0.333333" stroke="#444444" stroke-opacity="0.333333" points="487.7834,-115.5611 498.3584,-116.2097 490.496,-109.108 487.7834,-115.5611"/>
</g>
<!-- nginx&#45;&gt;nginx&#45;filesystem -->
<g id="edge3" class="edge">
<title>nginx&#45;&gt;nginx&#45;filesystem</title>
<path fill="none" stroke="#444444" stroke-opacity="0.333333" d="M440.9274,-60.2886C455.764,-54.0439 473.0449,-46.7704 489.0491,-40.0343"/>
<polygon fill="#444444" fill-opacity="0.333333" stroke="#444444" stroke-opacity="0.333333" points="490.4374,-43.2475 498.2965,-36.1421 487.7218,-36.7956 490.4374,-43.2475"/>
</g>
<!-- gperftools&#45;libs&#45;&gt;libunwind -->
<g id="edge4" class="edge">
<title>gperftools&#45;libs&#45;&gt;libunwind</title>
<path fill="none" stroke="#444444" stroke-opacity="0.333333" d="M126.217,-76.1865C126.0539,-76.1865 125.8909,-76.1865 125.7279,-76.1865"/>
<polygon fill="#444444" fill-opacity="0.333333" stroke="#444444" stroke-opacity="0.333333" points="128.4547,-72.6868 118.4544,-76.1859 128.4541,-79.6868 128.4547,-72.6868"/>
</g>
<!-- nginx&#45;mimetypes&#45;&gt;nginx&#45;filesystem -->
<g id="edge5" class="edge">
<title>nginx&#45;mimetypes&#45;&gt;nginx&#45;filesystem</title>
<path fill="none" stroke="#444444" stroke-opacity="0.333333" d="M541.4759,-116.1619C541.4615,-97.4644 541.4387,-68.0828 541.4219,-46.3327"/>
<polygon fill="#444444" fill-opacity="0.333333" stroke="#444444" stroke-opacity="0.333333" points="544.9218,-46.0477 541.414,-36.0505 537.9218,-46.0532 544.9218,-46.0477"/>
</g>
<!-- nginx -->
<g id="node1" class="node">
<title>nginx</title>
<text text-anchor="middle" x="403.15" y="-72.489" font-family="monospace" font-size="14.00" fill="#000000">nginx</text>
</g>
<!-- gperftools&#45;libs -->
<g id="node2" class="node">
<title>gperftools&#45;libs</title>
<text text-anchor="middle" x="217.3" y="-72.494" font-family="monospace" font-size="14.00" fill="#000000">gperftools&#45;libs</text>
</g>
<!-- nginx&#45;mimetypes -->
<g id="node3" class="node">
<title>nginx&#45;mimetypes</title>
<text text-anchor="middle" x="541.49" y="-130.64" font-family="monospace" font-size="14.00" fill="#000000">nginx&#45;mimetypes</text>
</g>
<!-- nginx&#45;filesystem -->
<g id="node4" class="node">
<title>nginx&#45;filesystem</title>
<text text-anchor="middle" x="541.4" y="-14.3" font-family="monospace" font-size="14.00" fill="#000000">nginx&#45;filesystem</text>
</g>
<!-- libunwind -->
<g id="node5" class="node">
<title>libunwind</title>
<text text-anchor="middle" x="59.145" y="-72.481" font-family="monospace" font-size="14.00" fill="#000000">libunwind</text>
</g>
</g>
</svg>
