<?xml version="1.0" encoding="UTF-8" standalone="no"?>
<!DOCTYPE svg PUBLIC "-//W3C//DTD SVG 1.1//EN"
 "http://www.w3.org/Graphics/SVG/1.1/DTD/svg11.dtd">
<!-- Generated by graphviz version 2.40.1 (20161225.0304)
 -->
<!-- Title: G Pages: 1 -->
<svg width="270pt" height="242pt"
 viewBox="0.00 0.00 270.47 242.20" xmlns="http://www.w3.org/2000/svg" xmlns:xlink="http://www.w3.org/1999/xlink">
<g id="graph0" class="graph" transform="scale(1 1) rotate(0) translate(47.2194 172.2527)">
<title>G</title>
<polygon fill="#dae2ff" stroke="transparent" points="-47.2194,69.9448 -47.2194,-172.2527 223.2499,-172.2527 223.2499,69.9448 -47.2194,69.9448"/>
<polygon fill="#fbb4ae" stroke="#fbb4ae" points="-33.7444,-66.5889 -26.7776,-51.8517 -18.1198,-28.3041 2.1577,-2.1733 26.8853,-3.4388 27.6209,-34.8264 25.884,-55.6677 9.6273,-56.2928 31.5095,-62.4729 32.0364,-62.1558 33.3441,-62.1558 34.2164,-62.3569 38.188,-62.3569 38.7003,-62.2396 39.1571,-62.2396 42.9154,-65.7228 45.7774,-66.9651 45.7774,-66.9651 42.9154,-65.7228 39.1571,-62.2396 42.2375,-59.538 45.5685,-58.0929 50.6023,-58.0929 54.454,-59.767 57.2452,-62.1395 58.1183,-62.1395 58.6775,-62.2628 61.0189,-62.2628 61.777,-62.4323 63.4759,-106.3089 60.3057,-109.7811 87.8521,-110.6569 87.8521,-110.6569 60.3057,-109.7811 63.4759,-106.3089 64.9964,-104.8242 67.1238,-102.9821 69.9169,-99.7584 69.9169,-99.7584 67.1238,-102.9821 64.9964,-104.8242 63.4759,-106.3089 61.777,-62.4323 61.0189,-62.2628 58.6775,-62.2628 58.1183,-62.1395 57.2452,-62.1395 54.454,-59.767 50.6023,-58.0929 45.5685,-58.0929 42.2375,-59.538 39.1571,-62.2396 38.7003,-62.2396 38.188,-62.3569 34.2164,-62.3569 33.3441,-62.1558 32.0364,-62.1558 31.5095,-62.4729 9.6273,-56.2928 25.884,-55.6677 27.6209,-34.8264 26.8853,-3.4388 36.3716,-3.1643 40.8393,-2.6769 46.627,-1.8126 48.2042,-3.9035 51.7368,-7.8724 58.1061,-14.421 66.0142,-21.7506 67.2551,-22.7624 67.9032,-23.5869 67.9922,-35.0306 67.9922,-35.0306 67.9032,-23.5869 67.2551,-22.7624 66.0142,-21.7506 58.1061,-14.421 51.7368,-7.8724 48.2042,-3.9035 46.627,-1.8126 49.0035,.8592 77.2243,35.7247 93.8134,45.8575 97.7606,47.5525 108.9621,52.8579 110.2172,53.615 123.0626,61.9582 128.4756,65.9448 130.9943,64.6087 136.8554,61.7089 150.7742,56.2912 166.0074,51.4531 199.0949,18.69 200.6014,2.245 203.3184,-17.3068 209.0761,-42.1674 211.4192,-50.7213 207.5573,-62.0243 213.9567,-88.6323 218.3094,-104.1994 219.2499,-106.8452 218.1603,-115.6407 212.8553,-128.3465 205.7167,-147.4192 148.4434,-167.4208 147.815,-167.6687 146.4917,-168.2527 140.8953,-165.9746 131.0578,-162.8844 126.6927,-161.9236 115.7117,-160.0183 112.8758,-159.7942 112.7192,-159.7891 101.7716,-159.946 89.3775,-161.2838 36.9016,-135.9176 36.1858,-136.0028 21.6121,-139.6095 15.5612,-141.2977 13.7451,-141.0153 -43.2194,-84.6135 -42.4063,-83.1778 -33.7444,-66.5889 -33.7444,-66.5889"/>
<polyline fill="none" stroke="#000000" points="112.8758,-159.7942 112.7192,-159.7891 101.7716,-159.946 89.3775,-161.2838 36.9016,-135.9176 36.1858,-136.0028 21.6121,-139.6095 15.5612,-141.2977 13.7451,-141.0153 -43.2194,-84.6135 -42.4063,-83.1778 -33.7444,-66.5889 -26.7776,-51.8517 -18.1198,-28.3041 2.1577,-2.1733 26.8853,-3.4388 36.3716,-3.1643 40.8393,-2.6769 46.627,-1.8126 49.0035,.8592 77.2243,35.7247 93.8134,45.8575 97.7606,47.5525 108.9621,52.8579 110.2172,53.615 123.0626,61.9582 128.4756,65.9448 130.9943,64.6087 136.8554,61.7089 150.7742,56.2912 166.0074,51.4531 199.0949,18.69 200.6014,2.245 203.3184,-17.3068 209.0761,-42.1674 211.4192,-50.7213 207.5573,-62.0243 213.9567,-88.6323 218.3094,-104.1994 219.2499,-106.8452 218.1603,-115.6407 212.8553,-128.3465 205.7167,-147.4192 148.4434,-167.4208 147.815,-167.6687 146.4917,-168.2527 140.8953,-165.9746 131.0578,-162.8844 126.6927,-161.9236 115.7117,-160.0183 112.8758,-159.7942 "/>
<!-- automake&#45;&gt;autoconf -->
<g id="edge1" class="edge">
<title>automake&#45;&gt;autoconf</title>
<path fill="none" stroke="#444444" stroke-opacity="0.333333" d="M125.102,-88.1548C125.0638,-76.0914 125.0131,-60.0603 124.9698,-46.368"/>
<polygon fill="#444444" fill-opacity="0.333333" stroke="#444444" stroke-opacity="0.333333" points="128.4687,-45.9978 124.937,-36.0089 121.4687,-46.02 128.4687,-45.9978"/>
</g>
<!-- libtool&#45;&gt;automake -->
<g id="edge2" class="edge">
<title>libtool&#45;&gt;automake</title>
<path fill="none" stroke="#444444" stroke-opacity="0.333333" d="M79.8858,-80.6376C81.4251,-81.5165 82.9791,-82.4039 84.5378,-83.2939"/>
<polygon fill="#444444" fill-opacity="0.333333" stroke="#444444" stroke-opacity="0.333333" points="83.0237,-86.4598 93.4433,-88.3791 86.4948,-80.381 83.0237,-86.4598"/>
</g>
<!-- libtool&#45;&gt;autoconf -->
<g id="edge3" class="edge">
<title>libtool&#45;&gt;autoconf</title>
<path fill="none" stroke="#444444" stroke-opacity="0.333333" d="M79.327,-44.3912C81.0708,-43.381 82.8351,-42.3588 84.6047,-41.3336"/>
<polygon fill="#444444" fill-opacity="0.333333" stroke="#444444" stroke-opacity="0.333333" points="86.5293,-44.2636 93.4275,-36.2221 83.0201,-38.2067 86.5293,-44.2636"/>
</g>
<!-- automake -->
<g id="node1" class="node">
<title>automake</title>
<text text-anchor="middle" x="125.16" y="-102.79" font-family="monospace" font-size="14.00" fill="#000000">automake</text>
</g>
<!-- autoconf -->
<g id="node2" class="node">
<title>autoconf</title>
<text text-anchor="middle" x="124.88" y="-14.3" font-family="monospace" font-size="14.00" fill="#000000">autoconf</text>
</g>
<!-- libtool -->
<g id="node3" class="node">
<title>libtool</title>
<text text-anchor="middle" x="48.096" y="-58.785" font-family="monospace" font-size="14.00" fill="#000000">libtool</text>
</g>
</g>
</svg>
