<?xml version="1.0" encoding="UTF-8" standalone="no"?>
<!DOCTYPE svg PUBLIC "-//W3C//DTD SVG 1.1//EN"
 "http://www.w3.org/Graphics/SVG/1.1/DTD/svg11.dtd">
<!-- Generated by graphviz version 2.40.1 (20161225.0304)
 -->
<!-- Title: G Pages: 1 -->
<svg width="902pt" height="685pt"
 viewBox="0.00 0.00 902.17 684.65" xmlns="http://www.w3.org/2000/svg" xmlns:xlink="http://www.w3.org/1999/xlink">
<g id="graph0" class="graph" transform="scale(1 1) rotate(0) translate(71.0309 585.6725)">
<title>G</title>
<polygon fill="#dae2ff" stroke="transparent" points="-71.0309,98.9789 -71.0309,-585.6725 831.1377,-585.6725 831.1377,98.9789 -71.0309,98.9789"/>
<polygon fill="#fbb4ae" stroke="#fbb4ae" points="424.7407,-416.4253 423.3156,-425.7941 420.56,-446.6653 416.7791,-466.2068 410.2224,-496.9098 401.3507,-535.0924 394.4055,-535.5276 351.1386,-532.8912 329.6938,-525.401 328.0962,-476.7723 330.1199,-425.4944 327.396,-422.6703 360.5045,-416.477 347.459,-415.6775 344.605,-415.1893 344.605,-415.1893 347.459,-415.6775 360.5045,-416.477 327.396,-422.6703 330.1199,-425.4944 328.0962,-476.7723 329.6938,-525.401 315.1574,-521.2 315.6462,-444.3001 315.6085,-443.9177 311.2991,-422.9421 315.8011,-421.0597 319.2521,-418.184 318.2417,-416.9499 316.6148,-415.6974 316.6148,-415.6974 318.2417,-416.9499 319.2521,-418.184 315.8011,-421.0597 311.2991,-422.9421 308.9389,-422.9421 305.6814,-421.6507 301.5969,-418.2507 301.2375,-418.2507 303.1154,-342.5688 297.275,-417.0787 295.9979,-416.3562 294.4763,-413.7304 294.4763,-413.7304 295.9979,-416.3562 297.275,-417.0787 303.1154,-342.5688 301.2375,-418.2507 301.5969,-418.2507 305.6814,-421.6507 308.9389,-422.9421 311.2991,-422.9421 315.6085,-443.9177 315.6462,-444.3001 315.1574,-521.2 301.8358,-518.1638 300.6811,-517.9244 299.7084,-517.7624 288.2012,-516.3104 248.1748,-512.0745 183.5421,-572.1157 158.1768,-569.5773 155.413,-493.8279 155.413,-493.8279 158.1768,-569.5773 153.8385,-569.3248 144.7852,-568.9878 137.8437,-569.0214 129.1628,-569.246 129.246,-559.9306 128.578,-514.0604 129.2,-499.8667 133.0499,-474.3593 133.0499,-474.3593 129.2,-499.8667 128.578,-514.0604 129.246,-559.9306 129.1628,-569.246 123.5118,-569.8672 113.9191,-571.1242 113.8301,-512.3708 118.3524,-475.5023 119.3751,-474.5282 116.4758,-471.6194 113.7882,-470.0864 110.4627,-469.454 107.1979,-470.089 107.1979,-470.089 110.4627,-469.454 113.7882,-470.0864 116.4758,-471.6194 119.3751,-474.5282 118.3524,-475.5023 113.8301,-512.3708 113.9191,-571.1242 100.6589,-573.6986 97.6078,-574.4822 88.9504,-576.8884 90.2871,-494.8763 87.4969,-474.5069 87.4969,-474.5069 90.2871,-494.8763 88.9504,-576.8884 81.6084,-579.2358 79.284,-580.0759 75.3316,-581.6725 66.3325,-576.9 63.4084,-575.4901 -13.7431,-540.1229 -47.8552,-501.9304 -48.0958,-497.2964 -51.3856,-458.5991 -54.7303,-433.5486 -46.7661,-415.7918 -50.4248,-401.1302 -56.6216,-340.1148 -59.5716,-316.2239 -66.0791,-281.6315 -64.1369,-273.9498 -56.9011,-242.7307 -67.0309,-211.8606 -58.221,-189.8768 -54.872,-179.2408 37.8686,-180.5636 40.9483,-150.2269 41.8455,-160.5548 41.8455,-160.5548 40.9483,-150.2269 37.8686,-180.5636 -54.872,-179.2408 -48.0831,-156.0934 13.0817,-75.4368 9.8572,-63.5049 19.4191,-29.5844 25.5019,-1.4578 36.4469,62.8069 52.1654,76.6832 97.0812,94.9789 109.6351,90.5488 110.4422,27.7708 110.4422,27.7708 109.6351,90.5488 118.1656,87.8902 118.8817,87.6819 123.5684,86.4156 130.3808,84.7158 136.42,83.5835 149.5903,81.3862 151.144,81.288 164.4223,78.9147 160.5936,-14.2112 160.539,-14.311 158.4502,-16.2835 152.9187,13.9019 150.4663,37.8336 149.6012,74.2389 141.832,-14.6316 145.1432,-17.3644 145.6648,-18.0407 145.1684,-18.6783 141.9207,-21.3383 139.2628,-22.396 135.2625,-22.396 135.2625,-22.396 139.2628,-22.396 141.9207,-21.3383 145.1684,-18.6783 145.6648,-18.0407 145.1432,-17.3644 141.832,-14.6316 149.6012,74.2389 150.4663,37.8336 152.9187,13.9019 158.4502,-16.2835 160.539,-14.311 160.5936,-14.2112 164.4223,78.9147 165.2139,78.7903 168.1881,77.5193 232.1579,51.786 252.5254,33.0276 269.5956,-11.0224 270.0386,-15.0282 271.2521,-22.4467 281.9613,-76.2573 306.7296,-90.3378 385.1833,-140.4055 391.1361,-165.5009 393.6698,-176.8231 390.7467,-186.8032 378.7415,-234.5247 266.8594,-214.9965 247.7629,-213.7941 244.7177,-210.7615 244.0065,-209.2602 241.1597,-207.5016 237.8709,-251.8522 237.7143,-258.6164 232.44,-209.0004 234.5465,-206.7967 232.5172,-204.6412 229.6423,-202.8798 229.6423,-202.8798 232.5172,-204.6412 234.5465,-206.7967 232.44,-209.0004 229.9143,-210.5182 226.1558,-211.298 221.3348,-210.2568 217.6358,-207.9942 216.6878,-207.0623 218.6477,-204.9891 218.6477,-204.9891 216.6878,-207.0623 215.2425,-207.0623 211.5252,-264.3099 210.8586,-207.1095 209.4107,-208.0284 207.3506,-211.5277 203.6171,-214.3006 197.3004,-212.6781 143.5668,-220.2169 145.015,-206.6419 145.4394,-196.4433 88.5023,-194.8929 86.1256,-192.2757 98.204,-189.2215 146.1167,-187.3295 146.608,-183.8024 101.4688,-182.6344 88.5445,-180.303 83.5501,-184.9395 83.2378,-185.0967 82.8642,-185.4389 78.8483,-169.3479 76.4396,-187.817 75.9492,-187.9165 75.4996,-187.9165 74.8533,-187.7858 71.1535,-149.2574 72.4426,-98.9109 61.7147,-95.9209 63.2908,-182.9328 59.7211,-183.6281 55.3449,-186.2063 53.8677,-187.6092 56.1402,-189.8287 59.0963,-191.5494 59.0963,-191.5494 56.1402,-189.8287 53.8677,-187.6092 55.3449,-186.2063 59.7211,-183.6281 63.2908,-182.9328 61.7147,-95.9209 72.4426,-98.9109 71.1535,-149.2574 74.8533,-187.7858 75.4996,-187.9165 75.9492,-187.9165 76.4396,-187.817 78.8483,-169.3479 82.8642,-185.4389 83.2378,-185.0967 83.5501,-184.9395 88.5445,-180.303 101.4688,-182.6344 146.608,-183.8024 146.1167,-187.3295 98.204,-189.2215 86.1256,-192.2757 88.5023,-194.8929 145.4394,-196.4433 145.015,-206.6419 143.5668,-220.2169 197.3004,-212.6781 203.6171,-214.3006 207.3506,-211.5277 209.4107,-208.0284 210.8586,-207.1095 211.5252,-264.3099 215.2425,-207.0623 216.6878,-207.0623 217.6358,-207.9942 224.0134,-278.1809 220.4263,-278.3577 220.7282,-342.1054 217.1499,-345.1057 216.2709,-346.9191 215.5881,-347.648 212.258,-345.4399 209.7503,-344.9214 209.7503,-344.9214 212.258,-345.4399 215.5881,-347.648 215.7694,-348.9756 215.3872,-351.692 212.007,-353.9723 209.1164,-354.5653 206.2257,-353.9741 206.2257,-353.9741 209.1164,-354.5653 212.007,-353.9723 215.3872,-351.692 215.7694,-348.9756 215.5881,-347.648 216.2709,-346.9191 217.1499,-345.1057 220.7282,-342.1054 220.4263,-278.3577 224.0134,-278.1809 217.6358,-207.9942 221.3348,-210.2568 226.1558,-211.298 229.9143,-210.5182 232.44,-209.0004 237.7143,-258.6164 237.8709,-251.8522 241.1597,-207.5016 244.0065,-209.2602 244.7177,-210.7615 247.7629,-213.7941 266.8594,-214.9965 378.7415,-234.5247 371.6368,-266.5358 368.3442,-279.6634 370.9519,-283.0956 374.5254,-287.9345 383.1198,-299.9196 434.5937,-374.0191 424.7407,-416.4253 424.7407,-416.4253"/>
<polygon fill="#fed9a6" stroke="#fed9a6" points="780.957,-446.2402 776.2275,-464.7028 768.6351,-497.417 768.1877,-497.7528 701.8351,-541.452 692.2399,-548.0446 680.5571,-556.3915 679.6491,-557.1125 675.5329,-470.9205 676.4026,-441.8497 679.3149,-440.0555 681.3235,-437.9107 680.0205,-436.5505 675.4617,-433.6837 672.5787,-433.1183 669.2397,-433.7748 669.2397,-433.7748 672.5787,-433.1183 675.4617,-433.6837 680.0205,-436.5505 681.3235,-437.9107 679.3149,-440.0555 676.4026,-441.8497 675.5329,-470.9205 679.6491,-557.1125 678.5157,-558.0765 664.738,-558.0641 665.053,-473.5324 660.2164,-438.0107 658.5484,-438.0107 652.3881,-367.2416 652.2345,-367.1774 652.2239,-387.1235 654.2955,-434.6978 654.2955,-434.6978 652.2239,-387.1235 652.2345,-367.1774 652.3881,-367.2416 658.5484,-438.0107 660.2164,-438.0107 665.053,-473.5324 664.738,-558.0641 654.4231,-558.5719 649.0443,-558.9264 650.2776,-515.2501 654.3313,-442.0657 654.3313,-442.0657 650.2776,-515.2501 649.0443,-558.9264 633.8888,-560.4299 614.7726,-570.5048 573.8976,-561.9921 554.845,-558.4078 553.3019,-558.2132 541.5675,-556.9736 533.179,-556.4339 533.0621,-525.8846 534.3293,-504.5633 538.7179,-464.6933 541.4588,-464.1601 546.423,-461.1738 547.5336,-460.1129 546.2573,-458.861 546.2573,-458.861 547.5336,-460.1129 546.423,-461.1738 541.4588,-464.1601 538.7179,-464.6933 534.3293,-504.5633 533.0621,-525.8846 533.179,-556.4339 520.5225,-556.6627 512.7625,-557.1226 466.647,-561.7501 407.0709,-540.2994 401.3507,-535.0924 410.2224,-496.9098 416.7791,-466.2068 420.56,-446.6653 423.3156,-425.7941 424.7407,-416.4253 434.5937,-374.0191 383.1198,-299.9196 505.5326,-288.0275 502.2066,-370.7646 511.2094,-370.5469 513.9831,-431.4857 512.9986,-452.4961 512.9986,-452.4961 513.9831,-431.4857 511.2094,-370.5469 502.2066,-370.7646 505.5326,-288.0275 508.6834,-284.4976 508.9301,-284.3534 510.1759,-282.9225 512.8485,-284.6597 512.8485,-284.6597 510.1759,-282.9225 509.919,-280.9331 510.1582,-279.0732 510.3133,-278.8981 512.5549,-277.4763 512.5549,-277.4763 510.3133,-278.8981 510.1582,-279.0732 509.919,-280.9331 510.1759,-282.9225 508.9301,-284.3534 508.6834,-284.4976 505.5326,-288.0275 383.1198,-299.9196 374.5254,-287.9345 370.9519,-283.0956 368.3442,-279.6634 371.6368,-266.5358 378.7415,-234.5247 390.7467,-186.8032 393.6698,-176.8231 391.1361,-165.5009 385.1833,-140.4055 403.2249,-120.4742 416.4679,-104.5521 450.1321,-62.7762 474.5009,-35.9945 521.617,-20.8819 540.3613,-14.4795 542.358,-13.758 543.627,-13.2486 551.8645,-30.5112 551.5901,-48.99 548.5501,-122.2227 545.7772,-124.3142 545.0098,-125.2044 546.473,-126.9849 548.0317,-128.1705 552.0985,-129.7914 552.0985,-129.7914 548.0317,-128.1705 546.473,-126.9849 545.0098,-125.2044 545.7772,-124.3142 548.5501,-122.2227 551.5901,-48.99 551.8645,-30.5112 543.627,-13.2486 544.9177,-11.9358 622.2582,7.6935 624.5406,-67.4778 624.5406,-67.4778 622.2582,7.6935 631.8478,10.5503 632.7825,-29.5966 629.9874,-87.8805 629.3353,-88.5189 629.1401,-90.307 629.2958,-90.4586 629.2958,-90.4586 629.1401,-90.307 629.3353,-88.5189 629.9874,-87.8805 632.7825,-29.5966 631.8478,10.5503 647.2594,16.1617 649.4895,17.0696 652.2268,16.065 697.8921,1.2183 738.7786,-52.7174 746.5626,-62.5429 745.1022,-95.4985 771.8579,-154.2452 773.8779,-160.7604 779.7958,-177.4725 789.8431,-201.4932 783.2769,-217.7764 812.1805,-310.8533 815.1487,-319.1705 816.6044,-323.0035 732.2947,-322.7773 723.783,-324.9676 720.6754,-322.6301 719.0911,-319.3089 718.9684,-319.1703 719.2275,-317.2249 719.0002,-315.5092 718.8483,-315.1542 716.5273,-313.6701 716.5273,-313.6701 718.8483,-315.1542 719.0002,-315.5092 719.2275,-317.2249 718.9684,-319.1703 719.0911,-319.3089 720.6754,-322.6301 723.783,-324.9676 732.2947,-322.7773 816.6044,-323.0035 827.1377,-347.7386 796.6722,-400.1843 795.0143,-401.5491 788.6636,-419.9378 783.8557,-435.8617 780.957,-446.2402 780.957,-446.2402"/>
<polyline fill="none" stroke="#000000" points="-46.7661,-415.7918 -50.4248,-401.1302 -56.6216,-340.1148 -59.5716,-316.2239 -66.0791,-281.6315 -64.1369,-273.9498 -56.9011,-242.7307 -67.0309,-211.8606 -58.221,-189.8768 -54.872,-179.2408 -48.0831,-156.0934 13.0817,-75.4368 9.8572,-63.5049 19.4191,-29.5844 25.5019,-1.4578 36.4469,62.8069 52.1654,76.6832 97.0812,94.9789 109.6351,90.5488 118.1656,87.8902 118.8817,87.6819 123.5684,86.4156 130.3808,84.7158 136.42,83.5835 149.5903,81.3862 151.144,81.288 164.4223,78.9147 165.2139,78.7903 168.1881,77.5193 232.1579,51.786 252.5254,33.0276 269.5956,-11.0224 270.0386,-15.0282 271.2521,-22.4467 281.9613,-76.2573 306.7296,-90.3378 385.1833,-140.4055 391.1361,-165.5009 393.6698,-176.8231 390.7467,-186.8032 378.7415,-234.5247 371.6368,-266.5358 368.3442,-279.6634 370.9519,-283.0956 374.5254,-287.9345 383.1198,-299.9196 434.5937,-374.0191 424.7407,-416.4253 423.3156,-425.7941 420.56,-446.6653 416.7791,-466.2068 410.2224,-496.9098 401.3507,-535.0924 394.4055,-535.5276 351.1386,-532.8912 329.6938,-525.401 315.1574,-521.2 301.8358,-518.1638 300.6811,-517.9244 299.7084,-517.7624 288.2012,-516.3104 248.1748,-512.0745 183.5421,-572.1157 158.1768,-569.5773 153.8385,-569.3248 144.7852,-568.9878 137.8437,-569.0214 129.1628,-569.246 123.5118,-569.8672 113.9191,-571.1242 100.6589,-573.6986 97.6078,-574.4822 88.9504,-576.8884 81.6084,-579.2358 79.284,-580.0759 75.3316,-581.6725 66.3325,-576.9 63.4084,-575.4901 -13.7431,-540.1229 -47.8552,-501.9304 -48.0958,-497.2964 -51.3856,-458.5991 -54.7303,-433.5486 -46.7661,-415.7918 "/>
<polyline fill="none" stroke="#000000" points="773.8779,-160.7604 771.8579,-154.2452 745.1022,-95.4985 746.5626,-62.5429 738.7786,-52.7174 697.8921,1.2183 652.2268,16.065 649.4895,17.0696 647.2594,16.1617 631.8478,10.5503 622.2582,7.6935 544.9177,-11.9358 543.627,-13.2486 542.358,-13.758 540.3613,-14.4795 521.617,-20.8819 474.5009,-35.9945 450.1321,-62.7762 416.4679,-104.5521 403.2249,-120.4742 385.1833,-140.4055 391.1361,-165.5009 393.6698,-176.8231 390.7467,-186.8032 378.7415,-234.5247 371.6368,-266.5358 368.3442,-279.6634 370.9519,-283.0956 374.5254,-287.9345 383.1198,-299.9196 434.5937,-374.0191 424.7407,-416.4253 423.3156,-425.7941 420.56,-446.6653 416.7791,-466.2068 410.2224,-496.9098 401.3507,-535.0924 407.0709,-540.2994 466.647,-561.7501 512.7625,-557.1226 520.5225,-556.6627 533.179,-556.4339 541.5675,-556.9736 553.3019,-558.2132 554.845,-558.4078 573.8976,-561.9921 614.7726,-570.5048 633.8888,-560.4299 649.0443,-558.9264 654.4231,-558.5719 664.738,-558.0641 678.5157,-558.0765 679.6491,-557.1125 680.5571,-556.3915 692.2399,-548.0446 701.8351,-541.452 768.1877,-497.7528 768.6351,-497.417 776.2275,-464.7028 780.957,-446.2402 783.8557,-435.8617 788.6636,-419.9378 795.0143,-401.5491 796.6722,-400.1843 827.1377,-347.7386 816.6044,-323.0035 815.1487,-319.1705 812.1805,-310.8533 783.2769,-217.7764 789.8431,-201.4932 779.7958,-177.4725 773.8779,-160.7604 "/>
<!-- autoconf&#45;&gt;emacs&#45;filesystem -->
<g id="edge1" class="edge">
<title>autoconf&#45;&gt;emacs&#45;filesystem</title>
<path fill="none" stroke="#444444" stroke-opacity="0.333333" d="M60.2888,-331.1974C70.0801,-359.2685 88.9457,-413.355 100.4703,-446.3955"/>
<polygon fill="#444444" fill-opacity="0.333333" stroke="#444444" stroke-opacity="0.333333" points="97.1948,-447.6323 103.7931,-455.9217 103.8043,-445.3268 97.1948,-447.6323"/>
</g>
<!-- emacs&#45;filesystem&#45;&gt;libgcc -->
<g id="edge2" class="edge">
<title>emacs&#45;filesystem&#45;&gt;libgcc</title>
<path fill="none" stroke="#444444" stroke-opacity="0.333333" d="M174.6433,-456.2662C201.3834,-448.7874 232.0283,-440.2165 257.4268,-433.113"/>
<polygon fill="#444444" fill-opacity="0.333333" stroke="#444444" stroke-opacity="0.333333" points="258.5548,-436.4319 267.2425,-430.3677 256.6693,-429.6906 258.5548,-436.4319"/>
</g>
<!-- automake&#45;&gt;autoconf -->
<g id="edge3" class="edge">
<title>automake&#45;&gt;autoconf</title>
<path fill="none" stroke="#444444" stroke-opacity="0.333333" d="M61.8628,-205.9553C60.3326,-226.6441 57.8173,-260.6541 56.0326,-284.7844"/>
<polygon fill="#444444" fill-opacity="0.333333" stroke="#444444" stroke-opacity="0.333333" points="52.5411,-284.5417 55.2938,-294.7727 59.522,-285.0581 52.5411,-284.5417"/>
</g>
<!-- cpp&#45;&gt;libmpc -->
<g id="edge4" class="edge">
<title>cpp&#45;&gt;libmpc</title>
<path fill="none" stroke="#444444" stroke-opacity="0.333333" d="M642.4679,-160.0609C631.7499,-155.856 619.0437,-150.8711 606.6587,-146.0123"/>
<polygon fill="#444444" fill-opacity="0.333333" stroke="#444444" stroke-opacity="0.333333" points="607.8763,-142.7303 597.2888,-142.3363 605.3197,-149.2468 607.8763,-142.7303"/>
</g>
<!-- cpp&#45;&gt;mpfr -->
<g id="edge5" class="edge">
<title>cpp&#45;&gt;mpfr</title>
<path fill="none" stroke="#444444" stroke-opacity="0.333333" d="M662.4215,-152.6524C658.315,-142.2147 653.0598,-128.857 648.4406,-117.1158"/>
<polygon fill="#444444" fill-opacity="0.333333" stroke="#444444" stroke-opacity="0.333333" points="651.6673,-115.7573 644.7492,-107.733 645.1533,-118.3201 651.6673,-115.7573"/>
</g>
<!-- libmpc&#45;&gt;mpfr -->
<g id="edge6" class="edge">
<title>libmpc&#45;&gt;mpfr</title>
<path fill="none" stroke="#444444" stroke-opacity="0.333333" d="M596.3587,-107.2419C596.4496,-107.2028 596.5405,-107.1636 596.6314,-107.1244"/>
<polygon fill="#444444" fill-opacity="0.333333" stroke="#444444" stroke-opacity="0.333333" points="597.2206,-110.6817 605.0194,-103.5103 594.4506,-104.2531 597.2206,-110.6817"/>
</g>
<!-- gcc&#45;&gt;libgcc -->
<g id="edge7" class="edge">
<title>gcc&#45;&gt;libgcc</title>
<path fill="none" stroke="#444444" stroke-opacity="0.333333" d="M490.0067,-298.9843C453.2152,-323.4242 387.256,-367.2395 346.3235,-394.4301"/>
<polygon fill="#444444" fill-opacity="0.333333" stroke="#444444" stroke-opacity="0.333333" points="344.1319,-391.6841 337.7389,-400.1327 348.0052,-397.5148 344.1319,-391.6841"/>
</g>
<!-- gcc&#45;&gt;cpp -->
<g id="edge8" class="edge">
<title>gcc&#45;&gt;cpp</title>
<path fill="none" stroke="#444444" stroke-opacity="0.333333" d="M542.2006,-262.8146C567.8824,-244.2265 607.8695,-215.2845 636.1674,-194.8029"/>
<polygon fill="#444444" fill-opacity="0.333333" stroke="#444444" stroke-opacity="0.333333" points="638.4968,-197.4375 644.5454,-188.739 634.3925,-191.767 638.4968,-197.4375"/>
</g>
<!-- gcc&#45;&gt;libmpc -->
<g id="edge9" class="edge">
<title>gcc&#45;&gt;libmpc</title>
<path fill="none" stroke="#444444" stroke-opacity="0.333333" d="M521.3543,-262.8838C527.7857,-235.943 539.9093,-185.1574 547.4838,-153.4283"/>
<polygon fill="#444444" fill-opacity="0.333333" stroke="#444444" stroke-opacity="0.333333" points="550.9456,-153.9999 549.8633,-143.4605 544.1369,-152.3745 550.9456,-153.9999"/>
</g>
<!-- gcc&#45;&gt;mpfr -->
<g id="edge10" class="edge">
<title>gcc&#45;&gt;mpfr</title>
<path fill="none" stroke="#444444" stroke-opacity="0.333333" d="M528.3611,-263.019C549.6765,-229.1485 595.8096,-155.8426 620.7505,-116.2114"/>
<polygon fill="#444444" fill-opacity="0.333333" stroke="#444444" stroke-opacity="0.333333" points="623.8072,-117.9254 626.1713,-107.5977 617.8827,-114.197 623.8072,-117.9254"/>
</g>
<!-- gcc&#45;&gt;binutils -->
<g id="edge11" class="edge">
<title>gcc&#45;&gt;binutils</title>
<path fill="none" stroke="#444444" stroke-opacity="0.333333" d="M519.1715,-299.1835C522.8732,-330.4004 530.473,-394.4899 534.8784,-431.6415"/>
<polygon fill="#444444" fill-opacity="0.333333" stroke="#444444" stroke-opacity="0.333333" points="531.4296,-432.2803 536.0828,-441.7985 538.3808,-431.4559 531.4296,-432.2803"/>
</g>
<!-- gcc&#45;&gt;isl -->
<g id="edge12" class="edge">
<title>gcc&#45;&gt;isl</title>
<path fill="none" stroke="#444444" stroke-opacity="0.333333" d="M544.177,-286.0901C578.189,-292.415 636.6311,-303.283 674.8753,-310.3949"/>
<polygon fill="#444444" fill-opacity="0.333333" stroke="#444444" stroke-opacity="0.333333" points="674.6181,-313.907 685.0895,-312.2943 675.898,-307.025 674.6181,-313.907"/>
</g>
<!-- gcc&#45;&gt;libgomp -->
<g id="edge13" class="edge">
<title>gcc&#45;&gt;libgomp</title>
<path fill="none" stroke="#444444" stroke-opacity="0.333333" d="M534.8613,-299.0465C562.4881,-326.9291 615.7172,-380.651 647.287,-412.5131"/>
<polygon fill="#444444" fill-opacity="0.333333" stroke="#444444" stroke-opacity="0.333333" points="644.913,-415.0899 654.4377,-419.73 649.8856,-410.163 644.913,-415.0899"/>
</g>
<!-- libtool&#45;&gt;autoconf -->
<g id="edge14" class="edge">
<title>libtool&#45;&gt;autoconf</title>
<path fill="none" stroke="#444444" stroke-opacity="0.333333" d="M196.6139,-224.759C167.7344,-242.623 123.3645,-270.069 91.78,-289.6063"/>
<polygon fill="#444444" fill-opacity="0.333333" stroke="#444444" stroke-opacity="0.333333" points="89.8973,-286.6554 83.2341,-294.8926 93.5798,-292.6085 89.8973,-286.6554"/>
</g>
<!-- libtool&#45;&gt;automake -->
<g id="edge15" class="edge">
<title>libtool&#45;&gt;automake</title>
<path fill="none" stroke="#444444" stroke-opacity="0.333333" d="M177.4297,-201.0838C161.7748,-199.2549 144.1569,-197.1967 127.5298,-195.2542"/>
<polygon fill="#444444" fill-opacity="0.333333" stroke="#444444" stroke-opacity="0.333333" points="127.6701,-191.7469 117.3315,-194.0628 126.8578,-198.6996 127.6701,-191.7469"/>
</g>
<!-- libtool&#45;&gt;gcc -->
<g id="edge16" class="edge">
<title>libtool&#45;&gt;gcc</title>
<path fill="none" stroke="#444444" stroke-opacity="0.333333" d="M273.8557,-219.0008C331.7194,-233.7637 427.6038,-258.227 480.0111,-271.5978"/>
<polygon fill="#444444" fill-opacity="0.333333" stroke="#444444" stroke-opacity="0.333333" points="479.3338,-275.0371 489.8887,-274.1179 481.0643,-268.2543 479.3338,-275.0371"/>
</g>
<!-- libtool&#45;&gt;findutils -->
<g id="edge17" class="edge">
<title>libtool&#45;&gt;findutils</title>
<path fill="none" stroke="#444444" stroke-opacity="0.333333" d="M217.2292,-188.6338C201.552,-155.378 168.0805,-84.3758 149.6395,-45.2574"/>
<polygon fill="#444444" fill-opacity="0.333333" stroke="#444444" stroke-opacity="0.333333" points="152.725,-43.5943 145.295,-36.0414 146.3933,-46.5792 152.725,-43.5943"/>
</g>
<!-- libtool&#45;&gt;tar -->
<g id="edge18" class="edge">
<title>libtool&#45;&gt;tar</title>
<path fill="none" stroke="#444444" stroke-opacity="0.333333" d="M223.6563,-224.8322C220.8387,-249.0777 215.8087,-292.3618 212.4754,-321.0452"/>
<polygon fill="#444444" fill-opacity="0.333333" stroke="#444444" stroke-opacity="0.333333" points="208.9669,-320.9161 211.2891,-331.2533 215.9201,-321.7242 208.9669,-320.9161"/>
</g>
<!-- tar&#45;&gt;libgcc -->
<g id="edge19" class="edge">
<title>tar&#45;&gt;libgcc</title>
<path fill="none" stroke="#444444" stroke-opacity="0.333333" d="M235.7496,-367.6944C247.745,-375.8271 262.083,-385.5482 274.9717,-394.2867"/>
<polygon fill="#444444" fill-opacity="0.333333" stroke="#444444" stroke-opacity="0.333333" points="273.3754,-397.433 283.6165,-400.1478 277.3037,-391.6391 273.3754,-397.433"/>
</g>
<!-- autoconf -->
<g id="node1" class="node">
<title>autoconf</title>
<text text-anchor="middle" x="53.945" y="-309.31" font-family="monospace" font-size="14.00" fill="#000000">autoconf</text>
</g>
<!-- emacs&#45;filesystem -->
<g id="node2" class="node">
<title>emacs&#45;filesystem</title>
<text text-anchor="middle" x="110.2" y="-470.59" font-family="monospace" font-size="14.00" fill="#000000">emacs&#45;filesystem</text>
</g>
<!-- libgcc -->
<g id="node3" class="node">
<title>libgcc</title>
<text text-anchor="middle" x="310.39" y="-414.6" font-family="monospace" font-size="14.00" fill="#000000">libgcc</text>
</g>
<!-- automake -->
<g id="node4" class="node">
<title>automake</title>
<text text-anchor="middle" x="63.21" y="-184.04" font-family="monospace" font-size="14.00" fill="#000000">automake</text>
</g>
<!-- cpp -->
<g id="node5" class="node">
<title>cpp</title>
<text text-anchor="middle" x="669.51" y="-166.97" font-family="monospace" font-size="14.00" fill="#000000">cpp</text>
</g>
<!-- libmpc -->
<g id="node6" class="node">
<title>libmpc</title>
<text text-anchor="middle" x="554.17" y="-121.72" font-family="monospace" font-size="14.00" fill="#000000">libmpc</text>
</g>
<!-- mpfr -->
<g id="node7" class="node">
<title>mpfr</title>
<text text-anchor="middle" x="637.57" y="-85.785" font-family="monospace" font-size="14.00" fill="#000000">mpfr</text>
</g>
<!-- gcc -->
<g id="node8" class="node">
<title>gcc</title>
<text text-anchor="middle" x="517.02" y="-277.34" font-family="monospace" font-size="14.00" fill="#000000">gcc</text>
</g>
<!-- binutils -->
<g id="node9" class="node">
<title>binutils</title>
<text text-anchor="middle" x="538.24" y="-456.29" font-family="monospace" font-size="14.00" fill="#000000">binutils</text>
</g>
<!-- isl -->
<g id="node10" class="node">
<title>isl</title>
<text text-anchor="middle" x="712.33" y="-313.66" font-family="monospace" font-size="14.00" fill="#000000">isl</text>
</g>
<!-- libgomp -->
<g id="node11" class="node">
<title>libgomp</title>
<text text-anchor="middle" x="672.55" y="-434.31" font-family="monospace" font-size="14.00" fill="#000000">libgomp</text>
</g>
<!-- libtool -->
<g id="node12" class="node">
<title>libtool</title>
<text text-anchor="middle" x="225.76" y="-203.03" font-family="monospace" font-size="14.00" fill="#000000">libtool</text>
</g>
<!-- findutils -->
<g id="node13" class="node">
<title>findutils</title>
<text text-anchor="middle" x="136.79" y="-14.3" font-family="monospace" font-size="14.00" fill="#000000">findutils</text>
</g>
<!-- tar -->
<g id="node14" class="node">
<title>tar</title>
<text text-anchor="middle" x="209.15" y="-345.96" font-family="monospace" font-size="14.00" fill="#000000">tar</text>
</g>
</g>
</svg>
