<?xml version="1.0" encoding="UTF-8" standalone="no"?>
<!DOCTYPE svg PUBLIC "-//W3C//DTD SVG 1.1//EN"
 "http://www.w3.org/Graphics/SVG/1.1/DTD/svg11.dtd">
<!-- Generated by graphviz version 2.40.1 (20161225.0304)
 -->
<!-- Title: G Pages: 1 -->
<svg width="691pt" height="440pt"
 viewBox="0.00 0.00 691.21 440.47" xmlns="http://www.w3.org/2000/svg" xmlns:xlink="http://www.w3.org/1999/xlink">
<g id="graph0" class="graph" transform="scale(1 1) rotate(0) translate(61.5284 369.4179)">
<title>G</title>
<polygon fill="#dae2ff" stroke="transparent" points="-61.5284,71.0547 -61.5284,-369.4179 629.6799,-369.4179 629.6799,71.0547 -61.5284,71.0547"/>
<polygon fill="#fbb4ae" stroke="#fbb4ae" points="247.595,-152.3983 247.8925,-146.0345 247.9086,-145.9325 247.293,-136.412 236.071,-43.0975 233.4585,-39.6095 218.8777,-43.8359 209.6165,-46.3469 207.9261,-46.741 199.0579,-48.6417 199.8551,-150.9105 196.4481,-148.4246 193.8148,-147.4582 193.8148,-147.4582 196.4481,-148.4246 199.8551,-150.9105 199.0579,-48.6417 194.8822,-49.4569 190.2839,-50.2668 183.5969,-51.1893 175.8648,-51.8147 171.3674,-52.0927 159.0718,-52.6183 154.9005,-52.7169 103.5269,-23.3586 82.837,-31.0282 80.8137,-31.7265 65.2286,-36.7092 59.0446,-38.0375 47.5579,-39.6164 44.5235,-39.9542 37.4675,-40.5556 35.8344,-40.6097 34.3878,-84.8512 35.8347,-114.4967 36.0456,-114.5368 38.0542,-114.5368 38.133,-114.5517 40.1132,-142.0089 39.9906,-148.5464 34.6429,-150.3664 26.7793,-154.2002 1.5866,-168.252 34.3938,-171.7781 34.3938,-171.7781 1.5866,-168.252 26.7793,-154.2002 34.6429,-150.3664 39.9906,-148.5464 40.1132,-142.0089 38.133,-114.5517 38.0542,-114.5368 36.0456,-114.5368 35.8347,-114.4967 34.3878,-84.8512 35.8344,-40.6097 32.8312,-40.5529 32.0194,-40.6341 23.8325,-42.9255 -19.4411,-53.7882 -24.5952,-59.1996 -39.6046,-105.6411 -45.4003,-120.728 -57.5284,-146.3935 -54.0753,-161.2514 -35.5407,-185.6528 -34.4939,-188.9672 2.2314,-186.3358 42.1868,-184.9094 42.1868,-184.9094 2.2314,-186.3358 -34.4939,-188.9672 -31.1017,-202.5943 -8.9918,-226.1952 55.0708,-267.5343 65.1684,-274.6751 71.2262,-279.7102 78.5376,-278.4884 79.1476,-278.3982 89.2939,-277.2831 91.9171,-277.095 102.3622,-276.743 103.3403,-276.7286 103.4915,-200.6583 105.3977,-186.4463 105.3977,-186.4463 103.4915,-200.6583 103.3403,-276.7286 124.2205,-277.2169 132.4137,-262.1349 149.6679,-228.4847 154.9557,-214.0335 166.6042,-206.5814 170.5455,-204.2639 172.4908,-156.491 168.9522,-159.231 144.7921,-155.7686 135.5427,-155.9175 138.2876,-173.6662 112.3182,-173.719 112.3182,-173.719 138.2876,-173.6662 135.5427,-155.9175 144.7921,-155.7686 168.9522,-159.231 172.4908,-156.491 170.5455,-204.2639 176.3764,-201.14 186.0397,-196.9861 188.0099,-196.354 195.3313,-194.3921 200.3658,-193.3167 201.7576,-193.1691 205.3688,-192.9767 211.772,-193.3187 217.0641,-193.0439 219.4794,-193.0479 219.4902,-193.0474 225.8413,-192.057 233.7531,-190.4046 250.9743,-185.0234 247.6389,-157.288 247.595,-152.3983 247.595,-152.3983"/>
<polygon fill="#fed9a6" stroke="#fed9a6" points="422.5663,-298.2137 426.0231,-278.3838 426.0231,-278.3838 422.5663,-298.2137 419.3991,-351.5585 390.3289,-348.0685 322.1726,-288.8665 324.2499,-279.3286 327.5816,-255.5592 328.7068,-246.2084 344.7352,-232.3523 350.814,-161.9823 381.9304,-155.6767 373.1599,-221.7398 386.8137,-217.051 390.4323,-215.9236 396.1283,-214.5082 396.6974,-165.7886 394.2229,-153.6078 392.7245,-153.6078 386.6825,-151.2088 386.3851,-150.9939 386.9699,-146.6881 388.8899,-145.263 390.4397,-144.7079 390.4397,-144.7079 388.8899,-145.263 386.9699,-146.6881 386.3851,-150.9939 386.6825,-151.2088 392.7245,-153.6078 394.2229,-153.6078 396.6974,-165.7886 396.1283,-214.5082 390.4323,-215.9236 386.8137,-217.051 373.1599,-221.7398 381.9304,-155.6767 350.814,-161.9823 350.9972,-154.221 350.904,-151.9152 351.0722,-144.8273 351.3627,-142.9098 351.2192,-139.2914 354.3292,-103.2895 346.881,-100.4539 344.0606,-99.5053 342.6537,-99.1541 319.6717,-94.3934 312.4778,-92.2834 303.7784,-88.5949 301.4185,-87.4933 291.4826,-81.9805 283.3662,-76.7884 278.4709,-73.0354 254.2379,-55.59 236.071,-43.0975 233.4585,-39.6095 235.6737,-35.2611 253.2662,4.2905 253.7072,4.7759 289.1277,19.9532 341.1267,21.758 355.8204,23.4474 355.0667,2.1525 357.0768,-45.244 354.0463,-46.9263 351.1668,-49.6663 351.7743,-50.2061 356.9135,-53.1813 361.182,-54.0022 362.4548,-53.7776 365.9426,-69.4703 367.7938,-94.2305 370.6333,-49.4254 370.6651,-49.4195 372.2213,-49.4195 373.0362,-48.3557 373.0362,-48.3557 372.2213,-49.4195 370.6651,-49.4195 370.6333,-49.4254 367.7938,-94.2305 365.9426,-69.4703 362.4548,-53.7776 361.182,-54.0022 356.9135,-53.1813 351.7743,-50.2061 351.1668,-49.6663 354.0463,-46.9263 357.0768,-45.244 355.0667,2.1525 355.8204,23.4474 365.499,25.3306 365.8262,25.4114 367.9733,26.0574 399.2927,56.5617 422.3206,62.2733 429.0897,64.1236 438.1423,67.0547 440.2302,65.9497 445.4179,63.6393 457.4743,58.6037 489.3292,46.2257 517.9724,30.2689 523.1647,21.7023 532.937,-9.9846 536.8434,-20.909 539.9597,-28.5837 542.5348,-34.5724 544.6953,-35.578 594.6301,-101.956 601.9223,-115.5955 602.4916,-116.603 599.656,-131.3194 597.9304,-143.3903 597.7714,-145.1014 616.1832,-194.211 548.4652,-202.5832 545.7324,-205.4104 544.5544,-205.9623 543.2757,-207.0983 542.7,-206.6868 538.5494,-205.1218 534.3144,-205.1218 532.3141,-205.844 528.0845,-171.2949 526.868,-171.4025 521.1057,-171.2469 523.1733,-140.4604 523.1733,-140.4604 521.1057,-171.2469 526.868,-171.4025 528.0845,-171.2949 532.3141,-205.844 529.9834,-207.6049 529.2652,-206.9028 509.4175,-203.713 476.697,-202.6917 461.864,-201.6473 477.9767,-188.8194 486.1581,-183.2377 495.9852,-177.6815 498.4111,-176.4615 498.8018,-176.2889 502.1083,-175.0211 503.1389,-174.6862 506.4097,-136.0092 509.7467,-133.5042 510.1507,-133.0572 509.9493,-132.8369 505.9475,-129.8432 502.9851,-128.7314 502.9851,-128.7314 505.9475,-129.8432 509.9493,-132.8369 510.1507,-133.0572 509.7467,-133.5042 506.4097,-136.0092 503.1389,-174.6862 502.1083,-175.0211 498.8018,-176.2889 498.4111,-176.4615 495.9852,-177.6815 486.1581,-183.2377 477.9767,-188.8194 461.864,-201.6473 476.697,-202.6917 509.4175,-203.713 529.2652,-206.9028 529.9834,-207.6049 532.3141,-205.844 534.3144,-205.1218 538.5494,-205.1218 542.7,-206.6868 543.2757,-207.0983 544.5544,-205.9623 545.7324,-205.4104 548.4652,-202.5832 616.1832,-194.211 623.3538,-211.8526 624.9778,-215.3439 625.6799,-216.6809 613.2773,-249.048 580.6362,-285.2598 550.9233,-290.0927 548.8162,-253.3142 548.5086,-216.907 548.5086,-216.907 548.8162,-253.3142 550.9233,-290.0927 546.3033,-291.0702 539.7256,-299.2992 472.5536,-281.1676 471.1152,-279.2314 480.1301,-276.0377 467.3697,-272.7261 483.8791,-268.2526 520.5742,-265.0388 525.0575,-269.0605 525.0575,-269.0605 520.5742,-265.0388 483.8791,-268.2526 467.3697,-272.7261 480.1301,-276.0377 471.1152,-279.2314 472.5536,-281.1676 539.7256,-299.2992 512.3118,-335.6049 486.5837,-360.5985 467.8179,-365.1483 467.0581,-365.4179 447.4328,-357.6176 443.2316,-356.3759 440.693,-293.5949 442.6231,-277.9233 444.9464,-278.8012 448.8843,-278.8012 452.2925,-277.4883 456.4099,-274.3584 456.313,-274.255 452.3872,-271.3672 449.1605,-270.158 449.1605,-270.158 452.3872,-271.3672 456.313,-274.255 456.4099,-274.3584 452.2925,-277.4883 448.8843,-278.8012 444.9464,-278.8012 442.6231,-277.9233 440.693,-293.5949 443.2316,-356.3759 433.2768,-353.9282 419.3991,-351.5585 422.5663,-298.2137 422.5663,-298.2137"/>
<polygon fill="#ccebc5" stroke="#ccebc5" points="210.0098,-300.0761 210.0804,-240.8723 132.4137,-262.1349 149.6679,-228.4847 154.9557,-214.0335 166.6042,-206.5814 170.5455,-204.2639 176.3764,-201.14 186.0397,-196.9861 188.0099,-196.354 195.3313,-194.3921 200.3658,-193.3167 201.7576,-193.1691 205.3688,-192.9767 211.772,-193.3187 211.7683,-210.3929 209.9256,-226.8125 209.9256,-226.8125 211.7683,-210.3929 211.772,-193.3187 217.0641,-193.0439 219.4794,-193.0479 219.4902,-193.0474 225.8413,-192.057 233.7531,-190.4046 250.9743,-185.0234 247.6389,-157.288 247.595,-152.3983 247.8925,-146.0345 247.9086,-145.9325 247.293,-136.412 236.071,-43.0975 254.2379,-55.59 278.4709,-73.0354 283.3662,-76.7884 291.4826,-81.9805 301.4185,-87.4933 303.7784,-88.5949 312.4778,-92.2834 319.6717,-94.3934 319.5771,-123.3674 321.3769,-136.6404 321.3769,-136.6404 319.5771,-123.3674 319.6717,-94.3934 342.6537,-99.1541 344.0606,-99.5053 346.881,-100.4539 354.3292,-103.2895 351.2192,-139.2914 351.3627,-142.9098 351.0722,-144.8273 350.904,-151.9152 350.9972,-154.221 350.814,-161.9823 344.7352,-232.3523 328.7068,-246.2084 327.5816,-255.5592 324.2499,-279.3286 322.1726,-288.8665 286.7708,-312.3793 235.513,-308.8664 233.0844,-263.4497 233.0844,-263.4497 235.513,-308.8664 223.3118,-308.6604 214.6754,-309.186 217.0163,-237.7759 219.507,-238.6779 223.5211,-238.6779 223.5211,-238.6779 219.507,-238.6779 217.0163,-237.7759 214.6754,-309.186 209.7145,-309.6162 172.2452,-314.7968 160.9862,-309.0216 124.2205,-277.2169 132.4137,-262.1349 210.0804,-240.8723 210.0098,-300.0761 213.7649,-238.2317 215.5503,-236.7014 215.1962,-234.1244 215.4798,-232.0475 216.3362,-231.4051 220.146,-229.9309 224.3237,-229.9309 227.1542,-230.9665 228.0026,-231.5798 229.23,-230.6058 229.23,-230.6058 228.0026,-231.5798 227.1542,-230.9665 224.3237,-229.9309 220.146,-229.9309 216.3362,-231.4051 215.4798,-232.0475 215.1962,-234.1244 215.5503,-236.7014 213.7649,-238.2317 210.0098,-300.0761 210.0098,-300.0761"/>
<polyline fill="none" stroke="#000000" points="65.1684,-274.6751 55.0708,-267.5343 -8.9918,-226.1952 -31.1017,-202.5943 -34.4939,-188.9672 -35.5407,-185.6528 -54.0753,-161.2514 -57.5284,-146.3935 -45.4003,-120.728 -39.6046,-105.6411 -24.5952,-59.1996 -19.4411,-53.7882 23.8325,-42.9255 32.0194,-40.6341 32.8312,-40.5529 35.8344,-40.6097 37.4675,-40.5556 44.5235,-39.9542 47.5579,-39.6164 59.0446,-38.0375 65.2286,-36.7092 80.8137,-31.7265 82.837,-31.0282 103.5269,-23.3586 154.9005,-52.7169 159.0718,-52.6183 171.3674,-52.0927 175.8648,-51.8147 183.5969,-51.1893 190.2839,-50.2668 194.8822,-49.4569 199.0579,-48.6417 207.9261,-46.741 209.6165,-46.3469 218.8777,-43.8359 233.4585,-39.6095 236.071,-43.0975 247.293,-136.412 247.9086,-145.9325 247.8925,-146.0345 247.595,-152.3983 247.6389,-157.288 250.9743,-185.0234 233.7531,-190.4046 225.8413,-192.057 219.4902,-193.0474 219.4794,-193.0479 217.0641,-193.0439 211.772,-193.3187 205.3688,-192.9767 201.7576,-193.1691 200.3658,-193.3167 195.3313,-194.3921 188.0099,-196.354 186.0397,-196.9861 176.3764,-201.14 170.5455,-204.2639 166.6042,-206.5814 154.9557,-214.0335 149.6679,-228.4847 132.4137,-262.1349 124.2205,-277.2169 103.3403,-276.7286 102.3622,-276.743 91.9171,-277.095 89.2939,-277.2831 79.1476,-278.3982 78.5376,-278.4884 71.2262,-279.7102 65.1684,-274.6751 "/>
<polyline fill="none" stroke="#000000" points="440.2302,65.9497 438.1423,67.0547 429.0897,64.1236 422.3206,62.2733 399.2927,56.5617 367.9733,26.0574 365.8262,25.4114 365.499,25.3306 355.8204,23.4474 341.1267,21.758 289.1277,19.9532 253.7072,4.7759 253.2662,4.2905 235.6737,-35.2611 233.4585,-39.6095 236.071,-43.0975 254.2379,-55.59 278.4709,-73.0354 283.3662,-76.7884 291.4826,-81.9805 301.4185,-87.4933 303.7784,-88.5949 312.4778,-92.2834 319.6717,-94.3934 342.6537,-99.1541 344.0606,-99.5053 346.881,-100.4539 354.3292,-103.2895 351.2192,-139.2914 351.3627,-142.9098 351.0722,-144.8273 350.904,-151.9152 350.9972,-154.221 350.814,-161.9823 344.7352,-232.3523 328.7068,-246.2084 327.5816,-255.5592 324.2499,-279.3286 322.1726,-288.8665 390.3289,-348.0685 419.3991,-351.5585 433.2768,-353.9282 443.2316,-356.3759 447.4328,-357.6176 467.0581,-365.4179 467.8179,-365.1483 486.5837,-360.5985 512.3118,-335.6049 539.7256,-299.2992 546.3033,-291.0702 550.9233,-290.0927 580.6362,-285.2598 613.2773,-249.048 625.6799,-216.6809 624.9778,-215.3439 623.3538,-211.8526 616.1832,-194.211 597.7714,-145.1014 597.9304,-143.3903 599.656,-131.3194 602.4916,-116.603 601.9223,-115.5955 594.6301,-101.956 544.6953,-35.578 542.5348,-34.5724 539.9597,-28.5837 536.8434,-20.909 532.937,-9.9846 523.1647,21.7023 517.9724,30.2689 489.3292,46.2257 457.4743,58.6037 445.4179,63.6393 440.2302,65.9497 "/>
<polyline fill="none" stroke="#000000" points="312.4778,-92.2834 319.6717,-94.3934 342.6537,-99.1541 344.0606,-99.5053 346.881,-100.4539 354.3292,-103.2895 351.2192,-139.2914 351.3627,-142.9098 351.0722,-144.8273 350.904,-151.9152 350.9972,-154.221 350.814,-161.9823 344.7352,-232.3523 328.7068,-246.2084 327.5816,-255.5592 324.2499,-279.3286 322.1726,-288.8665 286.7708,-312.3793 235.513,-308.8664 223.3118,-308.6604 214.6754,-309.186 209.7145,-309.6162 172.2452,-314.7968 160.9862,-309.0216 124.2205,-277.2169 132.4137,-262.1349 149.6679,-228.4847 154.9557,-214.0335 166.6042,-206.5814 170.5455,-204.2639 176.3764,-201.14 186.0397,-196.9861 188.0099,-196.354 195.3313,-194.3921 200.3658,-193.3167 201.7576,-193.1691 205.3688,-192.9767 211.772,-193.3187 217.0641,-193.0439 219.4794,-193.0479 219.4902,-193.0474 225.8413,-192.057 233.7531,-190.4046 250.9743,-185.0234 247.6389,-157.288 247.595,-152.3983 247.8925,-146.0345 247.9086,-145.9325 247.293,-136.412 236.071,-43.0975 254.2379,-55.59 278.4709,-73.0354 283.3662,-76.7884 291.4826,-81.9805 301.4185,-87.4933 303.7784,-88.5949 312.4778,-92.2834 "/>
<!-- automake&#45;&gt;autoconf -->
<g id="edge1" class="edge">
<title>automake&#45;&gt;autoconf</title>
<path fill="none" stroke="#444444" stroke-opacity="0.333333" d="M72.5425,-160.8024C70.22,-155.0288 67.6009,-148.5179 65.0772,-142.2439"/>
<polygon fill="#444444" fill-opacity="0.333333" stroke="#444444" stroke-opacity="0.333333" points="68.2252,-140.6913 61.246,-132.72 61.731,-143.3037 68.2252,-140.6913"/>
</g>
<!-- cpp&#45;&gt;libmpc -->
<g id="edge2" class="edge">
<title>cpp&#45;&gt;libmpc</title>
<path fill="none" stroke="#444444" stroke-opacity="0.333333" d="M410.8244,-28.9679C410.6708,-29.0297 410.517,-29.0916 410.3629,-29.1536"/>
<polygon fill="#444444" fill-opacity="0.333333" stroke="#444444" stroke-opacity="0.333333" points="411.2617,-25.0187 403.2922,-32 413.8758,-31.5124 411.2617,-25.0187"/>
</g>
<!-- libmpc&#45;&gt;libgcc -->
<g id="edge3" class="edge">
<title>libmpc&#45;&gt;libgcc</title>
<path fill="none" stroke="#444444" stroke-opacity="0.333333" d="M348.8366,-67.6125C340.1357,-81.6262 327.9874,-101.1922 318.1618,-117.0174"/>
<polygon fill="#444444" fill-opacity="0.333333" stroke="#444444" stroke-opacity="0.333333" points="314.99,-115.4906 312.6886,-125.8325 320.9369,-119.1831 314.99,-115.4906"/>
</g>
<!-- gcc&#45;&gt;cpp -->
<g id="edge4" class="edge">
<title>gcc&#45;&gt;cpp</title>
<path fill="none" stroke="#444444" stroke-opacity="0.333333" d="M399.6198,-130.7506C407.1523,-108.6624 419.925,-71.2079 428.6666,-45.5744"/>
<polygon fill="#444444" fill-opacity="0.333333" stroke="#444444" stroke-opacity="0.333333" points="431.9979,-46.6493 431.913,-36.0548 425.3725,-44.3898 431.9979,-46.6493"/>
</g>
<!-- gcc&#45;&gt;libmpc -->
<g id="edge5" class="edge">
<title>gcc&#45;&gt;libmpc</title>
<path fill="none" stroke="#444444" stroke-opacity="0.333333" d="M387.3133,-130.6916C382.2997,-115.6688 375.1157,-94.1427 369.3978,-77.0094"/>
<polygon fill="#444444" fill-opacity="0.333333" stroke="#444444" stroke-opacity="0.333333" points="372.7138,-75.8892 366.2281,-67.5115 366.0738,-78.1053 372.7138,-75.8892"/>
</g>
<!-- gcc&#45;&gt;libgcc -->
<g id="edge6" class="edge">
<title>gcc&#45;&gt;libgcc</title>
<path fill="none" stroke="#444444" stroke-opacity="0.333333" d="M366.2987,-147.5075C362.5876,-147.3087 358.678,-147.0992 354.6936,-146.8858"/>
<polygon fill="#444444" fill-opacity="0.333333" stroke="#444444" stroke-opacity="0.333333" points="354.8784,-143.3907 344.7055,-146.3506 354.5039,-150.3807 354.8784,-143.3907"/>
</g>
<!-- gcc&#45;&gt;binutils -->
<g id="edge7" class="edge">
<title>gcc&#45;&gt;binutils</title>
<path fill="none" stroke="#444444" stroke-opacity="0.333333" d="M401.2068,-167.2131C410.1418,-188.1308 424.8814,-222.6378 435.2253,-246.854"/>
<polygon fill="#444444" fill-opacity="0.333333" stroke="#444444" stroke-opacity="0.333333" points="432.0769,-248.3935 439.2238,-256.2148 438.5142,-245.6438 432.0769,-248.3935"/>
</g>
<!-- gcc&#45;&gt;isl -->
<g id="edge8" class="edge">
<title>gcc&#45;&gt;isl</title>
<path fill="none" stroke="#444444" stroke-opacity="0.333333" d="M420.7009,-160.4972C443.2113,-170.0135 475.3523,-183.6011 500.0973,-194.062"/>
<polygon fill="#444444" fill-opacity="0.333333" stroke="#444444" stroke-opacity="0.333333" points="498.947,-197.3756 509.5207,-198.0457 501.6728,-190.9281 498.947,-197.3756"/>
</g>
<!-- gcc&#45;&gt;libgomp -->
<g id="edge9" class="edge">
<title>gcc&#45;&gt;libgomp</title>
<path fill="none" stroke="#444444" stroke-opacity="0.333333" d="M420.4939,-144.9604C427.2299,-143.9656 434.7134,-142.8605 442.3253,-141.7364"/>
<polygon fill="#444444" fill-opacity="0.333333" stroke="#444444" stroke-opacity="0.333333" points="442.9726,-145.1789 452.354,-140.2554 441.9499,-138.254 442.9726,-145.1789"/>
</g>
<!-- libtool&#45;&gt;automake -->
<g id="edge10" class="edge">
<title>libtool&#45;&gt;automake</title>
<path fill="none" stroke="#444444" stroke-opacity="0.333333" d="M143.036,-163.6341C142.9442,-163.6566 142.8524,-163.6791 142.7606,-163.7017"/>
<polygon fill="#444444" fill-opacity="0.333333" stroke="#444444" stroke-opacity="0.333333" points="143.0504,-160.0265 134.1733,-165.8098 144.7194,-166.8246 143.0504,-160.0265"/>
</g>
<!-- libtool&#45;&gt;autoconf -->
<g id="edge11" class="edge">
<title>libtool&#45;&gt;autoconf</title>
<path fill="none" stroke="#444444" stroke-opacity="0.333333" d="M143.1949,-138.7853C135.0826,-136.5842 126.5466,-134.2682 118.1012,-131.9768"/>
<polygon fill="#444444" fill-opacity="0.333333" stroke="#444444" stroke-opacity="0.333333" points="118.8272,-128.5473 108.2596,-129.3066 116.9941,-135.3031 118.8272,-128.5473"/>
</g>
<!-- libtool&#45;&gt;gcc -->
<g id="edge12" class="edge">
<title>libtool&#45;&gt;gcc</title>
<path fill="none" stroke="#444444" stroke-opacity="0.333333" d="M239.3774,-151.131C275.2161,-150.6259 323.4111,-149.9466 356.2862,-149.4832"/>
<polygon fill="#444444" fill-opacity="0.333333" stroke="#444444" stroke-opacity="0.333333" points="356.4369,-152.9816 366.3865,-149.3409 356.3381,-145.9822 356.4369,-152.9816"/>
</g>
<!-- libtool&#45;&gt;tar -->
<g id="edge13" class="edge">
<title>libtool&#45;&gt;tar</title>
<path fill="none" stroke="#444444" stroke-opacity="0.333333" d="M198.0111,-170.1105C201.9844,-180.7864 207.077,-194.4695 211.5379,-206.4552"/>
<polygon fill="#444444" fill-opacity="0.333333" stroke="#444444" stroke-opacity="0.333333" points="208.3296,-207.8695 215.0979,-216.0206 214.89,-205.4278 208.3296,-207.8695"/>
</g>
<!-- tar&#45;&gt;libgcc -->
<g id="edge14" class="edge">
<title>tar&#45;&gt;libgcc</title>
<path fill="none" stroke="#444444" stroke-opacity="0.333333" d="M237.978,-216.0086C249.6158,-202.7986 265.508,-184.7594 278.4711,-170.0451"/>
<polygon fill="#444444" fill-opacity="0.333333" stroke="#444444" stroke-opacity="0.333333" points="281.3417,-172.0814 285.3259,-162.2643 276.0892,-167.4541 281.3417,-172.0814"/>
</g>
<!-- automake -->
<g id="node1" class="node">
<title>automake</title>
<text text-anchor="middle" x="79.915" y="-175.43" font-family="monospace" font-size="14.00" fill="#000000">automake</text>
</g>
<!-- autoconf -->
<g id="node2" class="node">
<title>autoconf</title>
<text text-anchor="middle" x="53.945" y="-110.87" font-family="monospace" font-size="14.00" fill="#000000">autoconf</text>
</g>
<!-- cpp -->
<g id="node3" class="node">
<title>cpp</title>
<text text-anchor="middle" x="438.07" y="-14.3" font-family="monospace" font-size="14.00" fill="#000000">cpp</text>
</g>
<!-- libmpc -->
<g id="node4" class="node">
<title>libmpc</title>
<text text-anchor="middle" x="360.17" y="-45.659" font-family="monospace" font-size="14.00" fill="#000000">libmpc</text>
</g>
<!-- libgcc -->
<g id="node5" class="node">
<title>libgcc</title>
<text text-anchor="middle" x="301.39" y="-140.33" font-family="monospace" font-size="14.00" fill="#000000">libgcc</text>
</g>
<!-- gcc -->
<g id="node6" class="node">
<title>gcc</title>
<text text-anchor="middle" x="393.41" y="-145.26" font-family="monospace" font-size="14.00" fill="#000000">gcc</text>
</g>
<!-- binutils -->
<g id="node7" class="node">
<title>binutils</title>
<text text-anchor="middle" x="447.03" y="-270.79" font-family="monospace" font-size="14.00" fill="#000000">binutils</text>
</g>
<!-- isl -->
<g id="node8" class="node">
<title>isl</title>
<text text-anchor="middle" x="536.71" y="-205.84" font-family="monospace" font-size="14.00" fill="#000000">isl</text>
</g>
<!-- libgomp -->
<g id="node9" class="node">
<title>libgomp</title>
<text text-anchor="middle" x="500.74" y="-129.41" font-family="monospace" font-size="14.00" fill="#000000">libgomp</text>
</g>
<!-- libtool -->
<g id="node10" class="node">
<title>libtool</title>
<text text-anchor="middle" x="191.2" y="-148.11" font-family="monospace" font-size="14.00" fill="#000000">libtool</text>
</g>
<!-- tar -->
<g id="node11" class="node">
<title>tar</title>
<text text-anchor="middle" x="221.89" y="-230.57" font-family="monospace" font-size="14.00" fill="#000000">tar</text>
</g>
</g>
</svg>
