<?xml version="1.0" encoding="UTF-8" standalone="no"?>
<!DOCTYPE svg PUBLIC "-//W3C//DTD SVG 1.1//EN"
 "http://www.w3.org/Graphics/SVG/1.1/DTD/svg11.dtd">
<!-- Generated by graphviz version 2.40.1 (20161225.0304)
 -->
<!-- Title: G Pages: 1 -->
<svg width="991pt" height="755pt"
 viewBox="0.00 0.00 990.69 755.33" xmlns="http://www.w3.org/2000/svg" xmlns:xlink="http://www.w3.org/1999/xlink">
<g id="graph0" class="graph" transform="scale(1 1) rotate(0) translate(79.7128 649.8377)">
<title>G</title>
<polygon fill="#dae2ff" stroke="transparent" points="-79.7128,105.4949 -79.7128,-649.8377 910.9819,-649.8377 910.9819,105.4949 -79.7128,105.4949"/>
<polygon fill="#fbb4ae" stroke="#fbb4ae" points="468.1711,-504.1544 476.6322,-505.7647 524.4259,-497.2385 541.0411,-513.6846 542.6603,-515.3978 545.4713,-518.5735 555.6384,-530.8098 555.717,-530.8947 563.7273,-540.5433 576.8622,-557.1652 579.1216,-560.1483 581.048,-562.7998 583.001,-565.8472 593.8763,-583.5492 511.1452,-629.2187 475.6928,-631.345 460.1899,-632.6003 447.8276,-634.3782 442.7702,-635.2112 442.5699,-533.5856 446.3681,-511.5243 444.6377,-511.0656 444.5037,-510.8902 440.1949,-507.5801 435.7052,-506.4337 435.7052,-506.4337 440.1949,-507.5801 444.5037,-510.8902 444.6377,-511.0656 446.3681,-511.5243 442.5699,-533.5856 442.7702,-635.2112 441.2042,-635.5346 432.4073,-632.9056 423.0641,-630.5286 415.2701,-628.8919 414.7903,-533.274 418.549,-511.3724 416.6165,-510.8614 413.2538,-510.8614 410.5607,-483.2981 406.8868,-508.058 406.8868,-508.058 410.5607,-483.2981 413.2538,-510.8614 416.6165,-510.8614 418.549,-511.3724 414.7903,-533.274 415.2701,-628.8919 410.225,-628.0559 392.9773,-625.5789 369.9289,-622.786 329.3607,-631.4918 324.5038,-632.6398 312.3599,-636.0416 309.8179,-636.8641 308.6761,-637.2587 293.8293,-639.1873 280.2146,-642.0399 269.3093,-644.7582 258.1995,-645.8377 251.102,-643.3708 150.8412,-557.0576 156.178,-532.5546 162.6871,-496.1857 271.7131,-508.9202 271.7131,-508.9202 162.6871,-496.1857 173.2574,-419.8597 170.0258,-408.7534 157.409,-370.2119 149.6224,-348.6628 218.579,-313.2137 224.7273,-310.3626 232.5338,-306.9385 234.1819,-306.2988 240.9135,-303.8526 252.091,-300.0703 267.3704,-296.0554 298.5811,-289.4431 319.5833,-284.4509 319.422,-290.9501 316.9176,-341.2064 312.1583,-385.8997 313.1231,-387.6781 312.2211,-390.2404 312.2211,-391.1133 312.2211,-391.1133 312.2211,-390.2404 313.1231,-387.6781 312.1583,-385.8997 316.9176,-341.2064 319.422,-290.9501 319.5833,-284.4509 329.9664,-281.2016 329.0054,-344.0763 329.0054,-344.0763 329.9664,-281.2016 351.5148,-273.3769 355.4686,-278.0261 359.1098,-282.4974 429.687,-381.9401 438.3338,-392.9946 437.4988,-397.6753 440.8082,-402.0565 444.4309,-406.6287 452.4014,-415.7418 465.5475,-429.9807 470.1145,-434.06 476.0771,-440.5566 524.4259,-497.2385 476.6322,-505.7647 468.1711,-504.1544 463.0974,-508.7611 468.1711,-504.1544"/>
<polygon fill="#fed9a6" stroke="#fed9a6" points="906.9819,-383.0188 896.8124,-406.934 882.0579,-443.6077 873.4443,-453.0652 843.4694,-467.9757 785.075,-483.8618 772.2937,-487.6514 764.8217,-490.0453 763.2159,-490.6753 756.1855,-376.0784 753.3253,-376.0784 751.871,-375.7167 755.7676,-289.2546 746.1379,-289.3321 743.7106,-289.2113 737.276,-289.0914 737.7477,-269.9066 737.7477,-269.9066 737.276,-289.0914 743.7106,-289.2113 746.1379,-289.3321 755.7676,-289.2546 751.871,-375.7167 753.3253,-376.0784 756.1855,-376.0784 763.2159,-490.6753 747.6864,-497.1498 749.555,-408.3595 747.1445,-376.0932 743.9088,-376.0932 742.3744,-375.708 739.9152,-375.708 736.3805,-345.6544 735.6902,-289.1603 734.535,-289.1439 731.7383,-204.8405 733.7287,-202.6133 731.8776,-200.7048 727.9473,-198.6915 721.8004,-198.6915 718.0878,-200.6431 715.0691,-164.4967 714.879,-74.0912 703.9915,-80.9851 693.7857,-86.8544 602.6189,-87.0138 601.4996,-116.3048 601.4996,-116.3048 602.6189,-87.0138 693.7857,-86.8544 703.9915,-80.9851 714.879,-74.0912 715.0691,-164.4967 718.0878,-200.6431 721.8004,-198.6915 727.9473,-198.6915 731.8776,-200.7048 733.7287,-202.6133 731.7383,-204.8405 727.3693,-207.2403 727.3693,-207.2403 731.7383,-204.8405 734.535,-289.1439 735.6902,-289.1603 736.3805,-345.6544 739.9152,-375.708 742.3744,-375.708 743.9088,-376.0932 747.1445,-376.0932 749.555,-408.3595 747.6864,-497.1498 739.4735,-500.9654 739.2061,-449.5837 738.071,-421.0653 739.0667,-375.9215 736.5303,-375.9215 733.8145,-373.1941 730.0703,-371.3979 730.0703,-371.3979 733.8145,-373.1941 736.5303,-375.9215 733.7682,-378.7389 730.3845,-380.3795 725.6671,-380.3795 722.3806,-450.355 720.9882,-425.1223 715.5733,-376.1633 711.2505,-376.1633 720.1294,-475.7566 700.7936,-451.2243 700.8771,-448.8601 700.8771,-448.8601 700.7936,-451.2243 692.8438,-443.0041 692.4358,-416.4497 694.6896,-375.7932 694.674,-375.7893 690.1326,-375.7893 687.3641,-316.6369 687.2974,-288.9043 677.489,-287.7844 609.8291,-276.1642 609.765,-276.1861 603.7421,-270.2197 594.285,-261.248 591.6237,-258.952 574.3312,-245.4378 562.1027,-237.4543 557.0269,-234.578 544.1732,-228.3669 492.2603,-205.5471 492.1032,-219.1484 492.4544,-229.8997 496.3432,-274.1666 496.3432,-274.1666 492.4544,-229.8997 492.1032,-219.1484 492.2603,-205.5471 544.1732,-228.3669 557.0269,-234.578 562.1027,-237.4543 574.3312,-245.4378 591.6237,-258.952 594.285,-261.248 603.7421,-270.2197 609.765,-276.1861 609.8291,-276.1642 677.489,-287.7844 687.2974,-288.9043 687.3641,-316.6369 690.1326,-375.7893 694.674,-375.7893 694.6896,-375.7932 692.4358,-416.4497 692.8438,-443.0041 687.9185,-438.6389 683.611,-434.1198 681.7197,-432.4665 647.6181,-431.5064 647.6181,-431.5064 681.7197,-432.4665 683.611,-434.1198 687.9185,-438.6389 692.8438,-443.0041 700.7936,-451.2243 720.1294,-475.7566 711.2505,-376.1633 715.5733,-376.1633 720.9882,-425.1223 722.3806,-450.355 725.6671,-380.3795 730.3845,-380.3795 733.7682,-378.7389 736.5303,-375.9215 739.0667,-375.9215 738.071,-421.0653 739.2061,-449.5837 739.4735,-500.9654 736.806,-502.3976 718.7252,-530.6121 641.031,-570.7946 634.9462,-572.9007 631.0995,-470.8398 627.0054,-438.2755 627.0054,-438.2755 631.0995,-470.8398 634.9462,-572.9007 620.5367,-578.4764 616.4625,-580.1343 607.4978,-584.1437 606.8041,-584.4678 602.5057,-584.0731 597.6198,-583.7059 593.8763,-583.5492 583.001,-565.8472 591.2845,-439.0482 594.877,-436.3225 595.3252,-435.732 590.849,-432.1633 590.849,-432.1633 595.3252,-435.732 594.877,-436.3225 591.2845,-439.0482 583.001,-565.8472 581.048,-562.7998 579.1216,-560.1483 576.8622,-557.1652 563.7273,-540.5433 555.717,-530.8947 556.2391,-458.4203 560.197,-435.7086 559.9311,-435.6399 559.9311,-435.6399 560.197,-435.7086 556.2391,-458.4203 555.717,-530.8947 555.6384,-530.8098 545.4713,-518.5735 542.6603,-515.3978 541.0411,-513.6846 524.4259,-497.2385 476.0771,-440.5566 470.1145,-434.06 465.5475,-429.9807 452.4014,-415.7418 444.4309,-406.6287 440.8082,-402.0565 437.4988,-397.6753 438.3338,-392.9946 429.687,-381.9401 359.1098,-282.4974 355.4686,-278.0261 351.5148,-273.3769 377.8678,-200.5143 388.0092,-177.0932 382.8265,-172.3886 380.1736,-169.8834 379.2105,-169.0486 363.4898,-156.5625 356.4294,-151.2283 355.8125,-150.8098 267.0354,-93.8538 254.3624,-84.8066 246.1209,-78.6376 233.2079,-67.6244 230.7459,-65.267 222.0898,-56.3298 337.5482,-50.8285 352.3566,-55.2494 357.2681,-51.3142 356.5383,-148.0212 362.563,-48.2826 365.1647,-48.2826 367.08,-50.2955 371.2441,-52.4454 371.2441,-52.4454 367.08,-50.2955 365.1647,-48.2826 362.563,-48.2826 356.5383,-148.0212 357.2681,-51.3142 352.3566,-55.2494 337.5482,-50.8285 222.0898,-56.3298 202.3575,-38.0016 190.1669,-26.3247 190.2403,-26.0233 195.873,-19.2629 232.0409,25.4603 250.3567,42.4236 344.5135,61.9136 364.5547,66.5635 365.6487,66.8975 372.7577,64.8897 380.6044,63.0611 381.0925,62.9594 397.6178,59.9231 394.285,-16.2431 395.8239,-41.098 395.8239,-41.098 394.285,-16.2431 397.6178,59.9231 449.7711,52.9443 491.6116,81.2294 528.816,90.0103 539.6589,92.8395 547.5233,91.9546 547.3254,67.2288 551.832,-17.8381 547.1922,-17.8381 545.7982,-18.207 549.0356,-49.0285 549.034,-87.0713 550.4063,-87.1622 550.3976,-91.4841 550.3976,-91.4841 550.4063,-87.1622 549.034,-87.0713 549.0356,-49.0285 545.7982,-18.207 547.1922,-17.8381 551.832,-17.8381 547.3254,67.2288 547.5233,91.9546 557.5716,91.5219 564.0895,91.5427 565.3284,-14.132 561.7394,-16.7981 560.6616,-18.2334 560.8904,-18.5226 564.2567,-21.0371 564.2567,-21.0371 560.8904,-18.5226 560.6616,-18.2334 561.7394,-16.7981 565.3284,-14.132 569.9256,-13.0002 574.3382,-14.0835 578.4766,-17.1867 578.98,-17.8435 573.6533,-22.1149 577.4195,-43.3107 578.9654,-87.0264 578.3933,-87.0521 575.0867,-151.1306 571.424,-152.0233 566.3824,-155.9626 567.3684,-157.2775 570.4353,-159.5475 575.1523,-160.7459 575.1523,-160.7459 570.4353,-159.5475 567.3684,-157.2775 566.3824,-155.9626 571.424,-152.0233 575.0867,-151.1306 578.3933,-87.0521 578.9654,-87.0264 577.4195,-43.3107 573.6533,-22.1149 578.98,-17.8435 578.4766,-17.1867 574.3382,-14.0835 569.9256,-13.0002 565.3284,-14.132 564.0895,91.5427 569.321,91.6806 578.2044,92.1204 582.4565,92.4291 590.6169,93.3986 596.2548,94.3291 608.3802,96.6116 631.5138,101.4949 701.4133,54.6998 736.2518,24.7612 739.0209,18.4532 740.1825,12.2114 743.4765,-3.984 751.7401,-41.4698 752.6288,-44.9839 794.7271,-67.4433 860.3094,-179.3179 860.6934,-180.3031 874.9713,-212.9772 872.553,-220.0322 867.98,-234.2169 857.1381,-270.1662 891.6759,-350.3418 898.7159,-365.8059 906.4293,-381.9162 906.9819,-383.0188 906.9819,-383.0188"/>
<polygon fill="#ccebc5" stroke="#ccebc5" points="-63.4129,-158.4999 -66.7516,-172.8643 -75.7128,-205.0001 -63.7534,-227.2033 -50.3656,-253.4474 37.2685,-316.1508 46.208,-322.8073 48.2186,-323.4267 55.8396,-326.2313 61.3418,-328.3668 69.3679,-331.6429 68.2715,-185.2952 72.4994,-187.4164 72.4994,-187.4164 68.2715,-185.2952 69.3679,-331.6429 74.9454,-334.0304 79.2489,-334.3443 80.1868,-334.4441 86.5401,-335.2264 106.4021,-338.3397 108.1317,-338.6971 147.8044,-347.5623 149.6224,-348.6628 218.579,-313.2137 224.7273,-310.3626 232.5338,-306.9385 234.1819,-306.2988 240.9135,-303.8526 252.091,-300.0703 267.3704,-296.0554 298.5811,-289.4431 319.5833,-284.4509 329.9664,-281.2016 351.5148,-273.3769 377.8678,-200.5143 388.0092,-177.0932 382.8265,-172.3886 380.1736,-169.8834 379.2105,-169.0486 363.4898,-156.5625 356.4294,-151.2283 355.8125,-150.8098 267.0354,-93.8538 254.3624,-84.8066 246.1209,-78.6376 233.2079,-67.6244 230.7459,-65.267 222.0898,-56.3298 202.3575,-38.0016 190.1669,-26.3247 178.7916,-35.4409 110.3055,-59.4945 103.7651,-61.4933 103.1072,-61.6793 92.8133,-65.5139 76.8124,-70.3118 75.3846,-70.7047 71.1128,-71.776 64.1644,-73.1819 45.9851,-75.9822 43.6667,-76.1699 28.1633,-77.0502 -15.0998,-84.7004 -43.4911,-100.8845 -54.1297,-114.0829 -63.4129,-158.4999 -63.4129,-158.4999"/>
<polyline fill="none" stroke="#000000" points="293.8293,-639.1873 280.2146,-642.0399 269.3093,-644.7582 258.1995,-645.8377 251.102,-643.3708 150.8412,-557.0576 156.178,-532.5546 162.6871,-496.1857 173.2574,-419.8597 170.0258,-408.7534 157.409,-370.2119 149.6224,-348.6628 218.579,-313.2137 224.7273,-310.3626 232.5338,-306.9385 234.1819,-306.2988 240.9135,-303.8526 252.091,-300.0703 267.3704,-296.0554 298.5811,-289.4431 319.5833,-284.4509 329.9664,-281.2016 351.5148,-273.3769 355.4686,-278.0261 359.1098,-282.4974 429.687,-381.9401 438.3338,-392.9946 437.4988,-397.6753 440.8082,-402.0565 444.4309,-406.6287 452.4014,-415.7418 465.5475,-429.9807 470.1145,-434.06 476.0771,-440.5566 524.4259,-497.2385 541.0411,-513.6846 542.6603,-515.3978 545.4713,-518.5735 555.6384,-530.8098 555.717,-530.8947 563.7273,-540.5433 576.8622,-557.1652 579.1216,-560.1483 581.048,-562.7998 583.001,-565.8472 593.8763,-583.5492 511.1452,-629.2187 475.6928,-631.345 460.1899,-632.6003 447.8276,-634.3782 442.7702,-635.2112 441.2042,-635.5346 432.4073,-632.9056 423.0641,-630.5286 415.2701,-628.8919 410.225,-628.0559 392.9773,-625.5789 369.9289,-622.786 329.3607,-631.4918 324.5038,-632.6398 312.3599,-636.0416 309.8179,-636.8641 308.6761,-637.2587 293.8293,-639.1873 "/>
<polyline fill="none" stroke="#000000" points="437.4988,-397.6753 440.8082,-402.0565 444.4309,-406.6287 452.4014,-415.7418 465.5475,-429.9807 470.1145,-434.06 476.0771,-440.5566 524.4259,-497.2385 541.0411,-513.6846 542.6603,-515.3978 545.4713,-518.5735 555.6384,-530.8098 555.717,-530.8947 563.7273,-540.5433 576.8622,-557.1652 579.1216,-560.1483 581.048,-562.7998 583.001,-565.8472 593.8763,-583.5492 597.6198,-583.7059 602.5057,-584.0731 606.8041,-584.4678 607.4978,-584.1437 616.4625,-580.1343 620.5367,-578.4764 634.9462,-572.9007 641.031,-570.7946 718.7252,-530.6121 736.806,-502.3976 739.4735,-500.9654 747.6864,-497.1498 763.2159,-490.6753 764.8217,-490.0453 772.2937,-487.6514 785.075,-483.8618 843.4694,-467.9757 873.4443,-453.0652 882.0579,-443.6077 896.8124,-406.934 906.9819,-383.0188 906.4293,-381.9162 898.7159,-365.8059 891.6759,-350.3418 857.1381,-270.1662 867.98,-234.2169 872.553,-220.0322 874.9713,-212.9772 860.6934,-180.3031 860.3094,-179.3179 794.7271,-67.4433 752.6288,-44.9839 751.7401,-41.4698 743.4765,-3.984 740.1825,12.2114 739.0209,18.4532 736.2518,24.7612 701.4133,54.6998 631.5138,101.4949 608.3802,96.6116 596.2548,94.3291 590.6169,93.3986 582.4565,92.4291 578.2044,92.1204 569.321,91.6806 564.0895,91.5427 557.5716,91.5219 547.5233,91.9546 539.6589,92.8395 528.816,90.0103 491.6116,81.2294 449.7711,52.9443 397.6178,59.9231 381.0925,62.9594 380.6044,63.0611 372.7577,64.8897 365.6487,66.8975 364.5547,66.5635 344.5135,61.9136 250.3567,42.4236 232.0409,25.4603 195.873,-19.2629 190.2403,-26.0233 190.1669,-26.3247 202.3575,-38.0016 222.0898,-56.3298 230.7459,-65.267 233.2079,-67.6244 246.1209,-78.6376 254.3624,-84.8066 267.0354,-93.8538 355.8125,-150.8098 356.4294,-151.2283 363.4898,-156.5625 379.2105,-169.0486 380.1736,-169.8834 382.8265,-172.3886 388.0092,-177.0932 377.8678,-200.5143 351.5148,-273.3769 355.4686,-278.0261 359.1098,-282.4974 429.687,-381.9401 438.3338,-392.9946 437.4988,-397.6753 "/>
<polyline fill="none" stroke="#000000" points="232.5338,-306.9385 224.7273,-310.3626 218.579,-313.2137 149.6224,-348.6628 147.8044,-347.5623 108.1317,-338.6971 106.4021,-338.3397 86.5401,-335.2264 80.1868,-334.4441 79.2489,-334.3443 74.9454,-334.0304 69.3679,-331.6429 61.3418,-328.3668 55.8396,-326.2313 48.2186,-323.4267 46.208,-322.8073 37.2685,-316.1508 -50.3656,-253.4474 -63.7534,-227.2033 -75.7128,-205.0001 -66.7516,-172.8643 -63.4129,-158.4999 -54.1297,-114.0829 -43.4911,-100.8845 -15.0998,-84.7004 28.1633,-77.0502 43.6667,-76.1699 45.9851,-75.9822 64.1644,-73.1819 71.1128,-71.776 75.3846,-70.7047 76.8124,-70.3118 92.8133,-65.5139 103.1072,-61.6793 103.7651,-61.4933 110.3055,-59.4945 178.7916,-35.4409 190.1669,-26.3247 202.3575,-38.0016 222.0898,-56.3298 230.7459,-65.267 233.2079,-67.6244 246.1209,-78.6376 254.3624,-84.8066 267.0354,-93.8538 355.8125,-150.8098 356.4294,-151.2283 363.4898,-156.5625 379.2105,-169.0486 380.1736,-169.8834 382.8265,-172.3886 388.0092,-177.0932 377.8678,-200.5143 351.5148,-273.3769 329.9664,-281.2016 319.5833,-284.4509 298.5811,-289.4431 267.3704,-296.0554 252.091,-300.0703 240.9135,-303.8526 234.1819,-306.2988 232.5338,-306.9385 "/>
<!-- apr&#45;util&#45;&gt;apr -->
<g id="edge1" class="edge">
<title>apr&#45;util&#45;&gt;apr</title>
<path fill="none" stroke="#444444" stroke-opacity="0.333333" d="M306.322,-495.9811C308.8458,-475.6186 312.9872,-442.2037 315.9415,-418.3672"/>
<polygon fill="#444444" fill-opacity="0.333333" stroke="#444444" stroke-opacity="0.333333" points="319.4486,-418.5252 317.2053,-408.1706 312.5018,-417.6641 319.4486,-418.5252"/>
</g>
<!-- httpd&#45;&gt;apr&#45;util -->
<g id="edge2" class="edge">
<title>httpd&#45;&gt;apr&#45;util</title>
<path fill="none" stroke="#444444" stroke-opacity="0.333333" d="M465.9294,-299.6049C434.9594,-340.6302 359.7609,-440.244 323.8349,-487.8343"/>
<polygon fill="#444444" fill-opacity="0.333333" stroke="#444444" stroke-opacity="0.333333" points="321.0382,-485.73 317.8066,-495.8199 326.6251,-489.9475 321.0382,-485.73"/>
</g>
<!-- httpd&#45;&gt;apr -->
<g id="edge3" class="edge">
<title>httpd&#45;&gt;apr</title>
<path fill="none" stroke="#444444" stroke-opacity="0.333333" d="M452.8844,-299.559C425.8764,-317.8918 384.0829,-346.2609 354.4726,-366.3602"/>
<polygon fill="#444444" fill-opacity="0.333333" stroke="#444444" stroke-opacity="0.333333" points="352.3942,-363.5408 346.0859,-372.0529 356.3256,-369.3325 352.3942,-363.5408"/>
</g>
<!-- httpd&#45;&gt;fedora&#45;logos&#45;httpd -->
<g id="edge4" class="edge">
<title>httpd&#45;&gt;fedora&#45;logos&#45;httpd</title>
<path fill="none" stroke="#444444" stroke-opacity="0.333333" d="M517.3743,-295.7238C558.1923,-311.3011 623.7887,-336.3345 670.8753,-354.3041"/>
<polygon fill="#444444" fill-opacity="0.333333" stroke="#444444" stroke-opacity="0.333333" points="669.7388,-357.6165 680.3295,-357.9121 672.2347,-351.0766 669.7388,-357.6165"/>
</g>
<!-- httpd&#45;&gt;httpd&#45;filesystem -->
<g id="edge5" class="edge">
<title>httpd&#45;&gt;httpd&#45;filesystem</title>
<path fill="none" stroke="#444444" stroke-opacity="0.333333" d="M492.147,-299.351C510.8221,-326.3808 546.2236,-377.62 567.8979,-408.9907"/>
<polygon fill="#444444" fill-opacity="0.333333" stroke="#444444" stroke-opacity="0.333333" points="565.0579,-411.0376 573.6218,-417.2754 570.817,-407.0586 565.0579,-411.0376"/>
</g>
<!-- httpd&#45;&gt;httpd&#45;tools -->
<g id="edge6" class="edge">
<title>httpd&#45;&gt;httpd&#45;tools</title>
<path fill="none" stroke="#444444" stroke-opacity="0.333333" d="M476.248,-299.3891C468.5992,-339.2435 450.212,-435.0512 441.0169,-482.9627"/>
<polygon fill="#444444" fill-opacity="0.333333" stroke="#444444" stroke-opacity="0.333333" points="437.5446,-482.4861 439.097,-492.9666 444.4191,-483.8055 437.5446,-482.4861"/>
</g>
<!-- httpd&#45;&gt;mailcap -->
<g id="edge7" class="edge">
<title>httpd&#45;&gt;mailcap</title>
<path fill="none" stroke="#444444" stroke-opacity="0.333333" d="M517.4605,-269.2764C557.3168,-256.5294 620.6478,-236.2745 666.8292,-221.5046"/>
<polygon fill="#444444" fill-opacity="0.333333" stroke="#444444" stroke-opacity="0.333333" points="667.9503,-224.8207 676.4088,-218.4407 665.8179,-218.1534 667.9503,-224.8207"/>
</g>
<!-- httpd&#45;&gt;mod_http2 -->
<g id="edge8" class="edge">
<title>httpd&#45;&gt;mod_http2</title>
<path fill="none" stroke="#444444" stroke-opacity="0.333333" d="M500.0752,-263.2535C518.7321,-242.0642 545.5976,-206.9417 561.7772,-182.6563"/>
<polygon fill="#444444" fill-opacity="0.333333" stroke="#444444" stroke-opacity="0.333333" points="564.7255,-184.5424 567.2196,-174.2453 558.8485,-180.7396 564.7255,-184.5424"/>
</g>
<!-- httpd&#45;tools&#45;&gt;apr&#45;util -->
<g id="edge9" class="edge">
<title>httpd&#45;tools&#45;&gt;apr&#45;util</title>
<path fill="none" stroke="#444444" stroke-opacity="0.333333" d="M365.9894,-512.6955C365.8277,-512.6989 365.666,-512.7023 365.5044,-512.7057"/>
<polygon fill="#444444" fill-opacity="0.333333" stroke="#444444" stroke-opacity="0.333333" points="368.1916,-509.1486 358.267,-512.857 368.3381,-516.147 368.1916,-509.1486"/>
</g>
<!-- httpd&#45;tools&#45;&gt;apr -->
<g id="edge10" class="edge">
<title>httpd&#45;tools&#45;&gt;apr</title>
<path fill="none" stroke="#444444" stroke-opacity="0.333333" d="M418.2012,-493.1101C398.5284,-472.5989 366.3381,-439.0367 344.0821,-415.8323"/>
<polygon fill="#444444" fill-opacity="0.333333" stroke="#444444" stroke-opacity="0.333333" points="346.3957,-413.1882 336.9477,-408.3938 341.3438,-418.0336 346.3957,-413.1882"/>
</g>
<!-- mod_http2&#45;&gt;httpd -->
<g id="edge11" class="edge">
<title>mod_http2&#45;&gt;httpd</title>
<path fill="none" stroke="#444444" stroke-opacity="0.333333" d="M554.9448,-174.1165C536.2879,-195.3058 509.4224,-230.4283 493.2428,-254.7137"/>
<polygon fill="#444444" fill-opacity="0.333333" stroke="#444444" stroke-opacity="0.333333" points="490.2945,-252.8276 487.8004,-263.1247 496.1715,-256.6304 490.2945,-252.8276"/>
</g>
<!-- mod_nss&#45;&gt;httpd -->
<g id="edge12" class="edge">
<title>mod_nss&#45;&gt;httpd</title>
<path fill="none" stroke="#444444" stroke-opacity="0.333333" d="M382.3502,-66.3106C400.8269,-107.1203 445.4719,-205.728 467.29,-253.9179"/>
<polygon fill="#444444" fill-opacity="0.333333" stroke="#444444" stroke-opacity="0.333333" points="464.1453,-255.4583 471.4583,-263.1245 470.5222,-252.5711 464.1453,-255.4583"/>
</g>
<!-- mod_session&#45;&gt;httpd -->
<g id="edge13" class="edge">
<title>mod_session&#45;&gt;httpd</title>
<path fill="none" stroke="#444444" stroke-opacity="0.333333" d="M563.7009,-36.1011C548.2222,-81.2981 507.7932,-199.3487 489.2521,-253.4876"/>
<polygon fill="#444444" fill-opacity="0.333333" stroke="#444444" stroke-opacity="0.333333" points="485.8813,-252.5276 485.9525,-263.1222 492.5038,-254.7957 485.8813,-252.5276"/>
</g>
<!-- mod_wsgi&#45;&gt;httpd -->
<g id="edge14" class="edge">
<title>mod_wsgi&#45;&gt;httpd</title>
<path fill="none" stroke="#444444" stroke-opacity="0.333333" d="M290.2905,-211.7072C331.9609,-227.0279 391.3441,-248.861 432.4653,-263.9798"/>
<polygon fill="#444444" fill-opacity="0.333333" stroke="#444444" stroke-opacity="0.333333" points="431.391,-267.3138 441.9846,-267.4797 433.8066,-260.7438 431.391,-267.3138"/>
</g>
<!-- mod_wsgi&#45;&gt;python2&#45;libs -->
<g id="edge15" class="edge">
<title>mod_wsgi&#45;&gt;python2&#45;libs</title>
<path fill="none" stroke="#444444" stroke-opacity="0.333333" d="M186.875,-190.1528C178.6636,-189.6252 170.0252,-189.0702 161.3419,-188.5123"/>
<polygon fill="#444444" fill-opacity="0.333333" stroke="#444444" stroke-opacity="0.333333" points="161.3545,-185.006 151.1506,-187.8575 160.9056,-191.9916 161.3545,-185.006"/>
</g>
<!-- apr&#45;util -->
<g id="node1" class="node">
<title>apr&#45;util</title>
<text text-anchor="middle" x="304.09" y="-510.29" font-family="monospace" font-size="14.00" fill="#000000">apr&#45;util</text>
</g>
<!-- apr -->
<g id="node2" class="node">
<title>apr</title>
<text text-anchor="middle" x="319.44" y="-386.44" font-family="monospace" font-size="14.00" fill="#000000">apr</text>
</g>
<!-- httpd -->
<g id="node3" class="node">
<title>httpd</title>
<text text-anchor="middle" x="479.71" y="-277.65" font-family="monospace" font-size="14.00" fill="#000000">httpd</text>
</g>
<!-- fedora&#45;logos&#45;httpd -->
<g id="node4" class="node">
<title>fedora&#45;logos&#45;httpd</title>
<text text-anchor="middle" x="727.7" y="-372.29" font-family="monospace" font-size="14.00" fill="#000000">fedora&#45;logos&#45;httpd</text>
</g>
<!-- httpd&#45;filesystem -->
<g id="node5" class="node">
<title>httpd&#45;filesystem</title>
<text text-anchor="middle" x="586.31" y="-431.94" font-family="monospace" font-size="14.00" fill="#000000">httpd&#45;filesystem</text>
</g>
<!-- httpd&#45;tools -->
<g id="node6" class="node">
<title>httpd&#45;tools</title>
<text text-anchor="middle" x="435.59" y="-507.54" font-family="monospace" font-size="14.00" fill="#000000">httpd&#45;tools</text>
</g>
<!-- mailcap -->
<g id="node7" class="node">
<title>mailcap</title>
<text text-anchor="middle" x="724.75" y="-199.28" font-family="monospace" font-size="14.00" fill="#000000">mailcap</text>
</g>
<!-- mod_http2 -->
<g id="node8" class="node">
<title>mod_http2</title>
<text text-anchor="middle" x="575.31" y="-152.32" font-family="monospace" font-size="14.00" fill="#000000">mod_http2</text>
</g>
<!-- mod_nss -->
<g id="node9" class="node">
<title>mod_nss</title>
<text text-anchor="middle" x="374.06" y="-44.3" font-family="monospace" font-size="14.00" fill="#000000">mod_nss</text>
</g>
<!-- mod_session -->
<g id="node10" class="node">
<title>mod_session</title>
<text text-anchor="middle" x="569.9" y="-14.3" font-family="monospace" font-size="14.00" fill="#000000">mod_session</text>
</g>
<!-- mod_wsgi -->
<g id="node11" class="node">
<title>mod_wsgi</title>
<text text-anchor="middle" x="241.15" y="-189.94" font-family="monospace" font-size="14.00" fill="#000000">mod_wsgi</text>
</g>
<!-- python2&#45;libs -->
<g id="node12" class="node">
<title>python2&#45;libs</title>
<text text-anchor="middle" x="75.393" y="-179.29" font-family="monospace" font-size="14.00" fill="#000000">python2&#45;libs</text>
</g>
</g>
</svg>
