<?xml version="1.0" encoding="UTF-8" standalone="no"?>
<!DOCTYPE svg PUBLIC "-//W3C//DTD SVG 1.1//EN"
 "http://www.w3.org/Graphics/SVG/1.1/DTD/svg11.dtd">
<!-- Generated by graphviz version 2.40.1 (20161225.0304)
 -->
<!-- Title: G Pages: 1 -->
<svg width="2254pt" height="1751pt"
 viewBox="0.00 0.00 2254.17 1751.47" xmlns="http://www.w3.org/2000/svg" xmlns:xlink="http://www.w3.org/1999/xlink">
<g id="graph0" class="graph" transform="scale(1 1) rotate(0) translate(193.9343 1543.7275)">
<title>G</title>
<polygon fill="#dae2ff" stroke="transparent" points="-193.9343,207.7446 -193.9343,-1543.7275 2060.2336,-1543.7275 2060.2336,207.7446 -193.9343,207.7446"/>
<polygon fill="#fbb4ae" stroke="#fbb4ae" points="645.2849,-24.6725 672.1826,-23.2093 756.6337,-17.0954 765.9872,-22.1805 892.6748,-117.2369 859.8054,-198.9947 854.8647,-211.8546 828.9603,-286.242 806.0485,-348.4852 784.6817,-403.8543 782.0445,-410.4139 667.1973,-397.5246 652.931,-396.1739 656.3514,-208.6055 655.9889,-207.9019 656.0653,-207.4431 650.228,-203.3384 650.228,-203.3384 656.0653,-207.4431 655.9889,-207.9019 656.3514,-208.6055 652.931,-396.1739 644.7628,-395.5446 640.8017,-395.3789 630.2632,-395.1234 623.6073,-395.0791 530.7724,-349.4901 482.014,-391.3197 477.619,-394.9001 471.8463,-399.3562 465.9741,-404.1626 446.791,-417.2908 446.2913,-417.6092 429.8855,-426.6054 426.0472,-428.531 422.4871,-430.1537 411.5735,-434.1553 401.4233,-437.4187 392.0113,-439.5906 391.3228,-439.7183 380.176,-441.2851 373.0454,-441.9638 361.032,-442.5623 357.0012,-442.9437 341.7848,-445.758 342.1355,-413.0607 346.2778,-367.8027 346.1365,-367.756 346.1365,-367.756 346.2778,-367.8027 342.1355,-413.0607 341.7848,-445.758 328.9179,-449.2926 329.028,-444.9606 327.6639,-367.5134 322.8213,-367.5134 316.2309,-302.0916 314.2903,-262.3881 309.9384,-364.6222 313.2574,-368.0221 310.3499,-370.7753 304.4987,-372.6548 298.4557,-370.65 295.3403,-367.5364 292.5725,-367.5364 292.4274,-367.4887 287.2236,-367.4887 284.0876,-318.6735 280.0223,-367.7617 275.7942,-367.7617 275.6498,-367.7149 268.9548,-367.7149 268.3555,-367.9139 263.9296,-367.9139 263.3459,-367.7191 262.2495,-321.6279 256.0475,-367.5253 252.8513,-367.5253 252.2431,-367.7274 251.6142,-368.8408 245.5031,-374.0072 230.8591,-372.0723 178.8287,-378.7503 173.1419,-374.3876 172.8119,-374.0863 158.7184,-360.0735 157.9976,-359.304 154.6869,-451.4611 149.9677,-451.4611 142.1518,-364.8629 143.4433,-451.5476 137.7361,-451.5476 137.4969,-451.2268 137.4969,-451.2268 137.7361,-451.5476 143.4433,-451.5476 142.1518,-364.8629 149.9677,-451.4611 154.6869,-451.4611 157.9976,-359.304 158.7184,-360.0735 172.8119,-374.0863 173.1419,-374.3876 178.8287,-378.7503 182.6609,-382.3162 192.8836,-390.94 192.8836,-390.94 182.6609,-382.3162 178.8287,-378.7503 230.8591,-372.0723 245.5031,-374.0072 251.6142,-368.8408 252.2431,-367.7274 252.8513,-367.5253 256.0475,-367.5253 262.2495,-321.6279 263.3459,-367.7191 263.9296,-367.9139 268.3555,-367.9139 268.9548,-367.7149 275.6498,-367.7149 275.7942,-367.7617 280.0223,-367.7617 284.0876,-318.6735 287.2236,-367.4887 292.4274,-367.4887 292.5725,-367.5364 295.3403,-367.5364 298.4557,-370.65 304.4987,-372.6548 310.3499,-370.7753 313.2574,-368.0221 309.9384,-364.6222 314.2903,-262.3881 316.2309,-302.0916 322.8213,-367.5134 327.6639,-367.5134 329.028,-444.9606 328.9179,-449.2926 322.1724,-451.7466 321.493,-452.0242 307.9343,-458.1941 300.0789,-462.1174 297.8838,-463.3098 292.2009,-466.6506 291.0122,-467.4026 286.7033,-470.328 286.4882,-470.4842 285.955,-472.0857 274.2914,-516.63 271.0034,-525.7103 253.8028,-532.1312 247.3809,-534.2922 239.6723,-536.6021 239.4221,-631.8453 242.2504,-634.6532 238.9289,-638.1929 233.6991,-639.9395 233.6991,-639.9395 238.9289,-638.1929 242.2504,-634.6532 239.4221,-631.8453 239.6723,-536.6021 247.3809,-534.2922 253.8028,-532.1312 271.0034,-525.7103 358.0233,-627.8826 368.5307,-628.421 382.131,-628.329 383.7461,-628.4109 384.6815,-628.3772 390.6591,-628.3334 400.2917,-628.8179 405.4427,-628.7781 406.1247,-628.7531 410.3547,-628.4745 417.2187,-628.4188 423.6834,-632.9344 510.323,-685.9586 525.9146,-696.1874 527.2806,-697.14 529.9208,-699.0936 528.4972,-701.1081 515.5503,-717.4553 505.9849,-728.048 505.0616,-728.998 493.1459,-740.38 491.4882,-742.4643 490.1688,-743.9785 478.7291,-754.9001 470.2184,-762.1606 459.2725,-769.2801 423.3759,-788.8702 416.7903,-793.1349 412.2884,-796.5021 408.6328,-799.6107 404.353,-803.7071 403.2351,-804.6644 399.054,-808.6534 398.4769,-808.6786 396.8185,-808.8348 391.1273,-809.0882 389.0821,-808.9772 382.6885,-808.9518 379.5886,-808.7863 379.7915,-772.3956 376.4073,-745.0452 383.1297,-740.3845 383.029,-740.2473 383.029,-740.2473 383.1297,-740.3845 376.4073,-745.0452 379.7915,-772.3956 379.5886,-808.7863 375.2394,-808.9918 368.5337,-808.6453 363.6317,-808.6393 361.8528,-808.7266 360.5847,-808.8528 360.2531,-808.8694 353.9895,-808.8732 346.7642,-809.241 338.9491,-810.0317 336.6604,-810.3777 325.2764,-812.6727 305.4843,-818.6421 301.1392,-835.1704 296.2896,-864.7131 296.0355,-865.8875 293.1602,-883.5223 265.6574,-988.1413 263.7824,-986.8549 240.9965,-970.4553 225.6464,-959.9798 215.0074,-953.5474 214.8904,-953.4813 201.3832,-946.3613 187.1836,-939.9893 178.1724,-936.6586 176.3397,-936.0536 166.8646,-933.6533 155.5685,-931.2283 155.2926,-931.1799 146.5168,-929.9796 145.3244,-929.8629 132.7087,-929.1172 129.153,-929.1838 126.1813,-929.1209 121.6861,-929.2011 113.5261,-929.0206 111.9018,-928.8547 113.6617,-895.0303 113.6617,-895.0303 111.9018,-928.8547 107.289,-928.7443 106.3006,-928.759 100.4292,-929.076 93.7217,-929.17 91.9765,-929.1251 91.348,-929.1577 80.2694,-928.8503 70.0439,-928.1587 -78.9629,-912.1697 1.3274,-849.6913 13.9823,-838.3354 15.4953,-836.8609 27.5419,-826.1864 36.6104,-819.0154 42.4261,-814.9881 86.0633,-788.9813 98.5768,-780.4567 108.3299,-772.2267 118.2857,-763.0293 123.8703,-756.5 134.0193,-747.036 144.6138,-735.796 149.3766,-730.1251 91.5528,-636.5809 88.2743,-631.824 68.9623,-605.2095 62.4553,-604.6235 39.288,-603.0108 31.8473,-602.1423 12.92,-599.4854 -134.501,-575.3489 -189.4611,-488.8094 -189.9343,-486.3932 -173.9706,-457.6877 -164.5661,-439.7267 -149.5796,-410.1681 -36.4217,-290.51 70.9811,-252.6829 75.254,-251.1036 82.4771,-248.1805 118.324,-205.7442 147.5259,-194.4315 241.2656,-184.3412 267.6525,-180.5959 285.4043,-176.8663 294.8336,-174.5642 298.9395,-173.492 311.1991,-170.0816 312.5848,-169.6727 321.5828,-166.5549 343.4913,-158.5855 352.1951,-154.9774 368.5991,-147.6153 406.2022,-130.1054 425.3159,-86.4196 517.9832,-20.421 628.3436,-24.386 644.3758,-24.6727 645.2849,-24.6725 645.2849,-24.6725"/>
<polygon fill="#d8d6da" stroke="#d8d6da" points="1492.6202,-118.7743 1513.9366,-18 1520.1348,5.6541 1520.5917,14.3176 1483.5774,84.4576 1437.2032,138.2426 1334.1787,203.4266 1333.6919,203.7446 1314.8591,197.7944 1314.1953,89.6334 1310.3041,-14.7224 1304.8652,-12.9503 1304.8652,-12.9503 1310.3041,-14.7224 1314.1953,89.6334 1314.8591,197.7944 1296.1041,192.4755 1279.3761,188.5467 1212.7614,173.9881 1161.5787,146.2081 1092.3411,42.8855 1087.4171,35.7829 1054.1747,-53.9628 1041.8273,-84.782 1033.868,-87.1352 1028.3494,-88.6938 1033.3158,-339.0614 1027.5864,-337.1805 1027.5864,-337.1805 1033.3158,-339.0614 1028.3494,-88.6938 1026.6206,-89.1592 1018.6574,-91.0945 1012.912,-92.4156 986.5632,-98.1292 892.6748,-117.2369 859.8054,-198.9947 854.8647,-211.8546 828.9603,-286.242 806.0485,-348.4852 784.6817,-403.8543 782.0445,-410.4139 861.6485,-544.459 875.2324,-566.6837 889.9131,-590.0641 862.0895,-635.9057 818.6027,-709.6517 623.2042,-699.3306 614.8239,-699.3492 611.4046,-699.265 603.4204,-699.2888 601.0074,-699.3625 596.9776,-699.1614 587.3591,-698.9468 586.6694,-698.9129 586.1868,-698.9025 585.9725,-698.9038 577.2007,-699.1987 576.3352,-699.1581 566.4197,-698.9674 560.4902,-699.0169 558.8279,-698.9418 557.5775,-698.8516 557.1645,-698.8333 555.4845,-698.8049 542.3661,-698.9445 541.5472,-698.9094 540.2921,-698.9593 529.9208,-699.0936 528.4972,-701.1081 515.5503,-717.4553 505.9849,-728.048 505.0616,-728.998 493.1459,-740.38 491.4882,-742.4643 490.1688,-743.9785 478.7291,-754.9001 470.2184,-762.1606 459.2725,-769.2801 423.3759,-788.8702 416.7903,-793.1349 412.2884,-796.5021 408.6328,-799.6107 404.353,-803.7071 403.2351,-804.6644 399.054,-808.6534 408.5546,-818.1777 410.216,-819.6584 412.2474,-821.2598 418.9482,-828.111 464.0482,-867.9373 464.2353,-868.1528 470.8246,-873.8964 478.5657,-881.4885 487.8765,-891.6019 497.8347,-904.4933 498.7084,-905.5372 510.4247,-920.5963 511.0427,-921.4969 527.0344,-948.0543 529.0476,-946.5145 540.7629,-938.4017 550.8495,-932.1468 571.9661,-921.2932 577.9514,-918.4393 579.142,-917.9586 581.2905,-917.167 599.6069,-911.0581 601.2986,-910.6165 613.4299,-907.8795 641.7075,-902.5204 660.7133,-898.2007 669.1718,-895.6571 672.4619,-894.4242 683.3493,-889.9313 691.9479,-886.0634 699.7932,-881.95 708.6556,-876.9713 712.1008,-874.9087 724.7373,-866.871 728.9515,-863.882 748.8151,-848.2704 751.3225,-846.2098 768.0377,-831.8602 815.7823,-794.0126 834.5095,-824.1836 845.1105,-842.5996 928.7487,-994.01 985.3919,-1085.2664 989.6873,-1089.574 1017.3575,-1116.02 1026.5486,-1102.7349 1027.1228,-1101.9608 1048.4762,-1074.4641 1051.8463,-1070.0045 1052.7578,-887.7924 1053.3934,-878.0074 1052.9539,-834.785 1059.3043,-830.511 1058.9335,-830.024 1053.1162,-826.1629 1053.1162,-826.1629 1058.9335,-830.024 1059.3043,-830.511 1052.9539,-834.785 1053.3934,-878.0074 1052.7578,-887.7924 1051.8463,-1070.0045 1070.5458,-1047.1095 1067.9915,-874.0214 1071.0094,-830.4756 1070.9816,-830.4667 1070.9816,-830.4667 1071.0094,-830.4756 1067.9915,-874.0214 1070.5458,-1047.1095 1083.2683,-1032.3916 1080.5039,-905.2175 1080.5039,-905.2175 1083.2683,-1032.3916 1090.1104,-1024.9414 1145.1282,-963.0477 1235.8099,-856.1954 1283.4503,-804.4055 1289.7279,-797.3682 1292.776,-793.6309 1316.9122,-763.1436 1321.8807,-756.3528 1320.137,-753.3898 1239.0486,-611.4875 1205.4796,-577.406 1270.2952,-342.11 1292.4796,-272.9537 1285.4177,-267.3896 1055.6522,-95.6693 1053.2419,-172.1892 1051.1431,-335.6404 1051.1431,-335.6404 1053.2419,-172.1892 1055.6522,-95.6693 1285.4177,-267.3896 1292.4796,-272.9537 1298.8143,-270.6715 1309.3884,-267.1599 1326.2837,-261.7879 1379.0784,-246.5071 1492.6202,-118.7743 1492.6202,-118.7743"/>
<polygon fill="#fed9a6" stroke="#fed9a6" points="1854.3955,-1036.3976 1855.1539,-1035.7015 1854.5227,-938.8765 1857.1027,-842.9572 1857.9187,-843.013 1914.4277,-845.9713 2056.2336,-966.9567 2051.5566,-1036.4 2050.8979,-1070.5042 1976.5811,-1175.995 1875.3217,-1237.6854 1863.9677,-1259.2335 1794.8552,-1310.726 1702.1843,-1328.726 1697.1484,-1154.0396 1741.3073,-1147.6 1717.3955,-1145.8566 1697.1387,-1140.9363 1692.7604,-1144.6514 1690.8014,-1143.2197 1690.8014,-1143.2197 1692.7604,-1144.6514 1697.1387,-1140.9363 1717.3955,-1145.8566 1741.3073,-1147.6 1697.1484,-1154.0396 1702.1843,-1328.726 1688.486,-1331.6666 1683.7759,-1332.7732 1673.8046,-1335.3185 1649.2163,-1342.092 1618.7146,-1334.1063 1486.0802,-1214.9674 1478.7628,-1208.6041 1472.5502,-1200.1843 1383.8522,-1198.3704 1353.962,-1198.2681 1351.1552,-1198.354 1347.9822,-1198.5593 1338.3546,-1199.3469 1328.0792,-1200.363 1318.4016,-1201.485 1317.241,-1201.6591 1311.3983,-1200.441 1293.1328,-1196.9531 1288.7363,-1196.2688 1288.9042,-1077.4397 1288.9042,-1077.4397 1288.7363,-1196.2688 1284.4442,-1195.7512 1217.0875,-1188.8042 1024.6135,-1152.6696 1017.3575,-1116.02 1026.5486,-1102.7349 1027.1228,-1101.9608 1048.4762,-1074.4641 1051.8463,-1070.0045 1070.5458,-1047.1095 1083.2683,-1032.3916 1090.1104,-1024.9414 1145.1282,-963.0477 1235.8099,-856.1954 1283.4503,-804.4055 1289.7279,-797.3682 1292.776,-793.6309 1316.9122,-763.1436 1321.8807,-756.3528 1328.8005,-759.2237 1345.5624,-765.693 1353.4403,-768.5039 1376.9991,-776.2277 1443.7633,-796.1526 1586.7048,-931.6902 1609.725,-930.1893 1798.5232,-834.124 1801.7404,-834.8107 1822.634,-838.9359 1833.4385,-840.3725 1845.8732,-841.8259 1857.1027,-842.9572 1854.5227,-938.8765 1855.1539,-1035.7015 1854.3955,-1036.3976 1849.1498,-1036.3976 1848.651,-1036.2313 1843.7754,-1036.2313 1843.1552,-1035.4355 1837.4548,-1031.811 1831.8268,-1031.811 1831.8268,-1031.811 1837.4548,-1031.811 1843.1552,-1035.4355 1843.7754,-1036.2313 1843.6036,-1036.4601 1843.6036,-1036.4601 1843.7754,-1036.2313 1848.651,-1036.2313 1849.1498,-1036.3976 1854.3955,-1036.3976 1854.3955,-1036.3976"/>
<polygon fill="#bbd7d9" stroke="#bbd7d9" points="577.2007,-699.1987 576.3352,-699.1581 566.4197,-698.9674 569.4505,-587.6345 575.198,-585.7789 578.2741,-582.7801 574.8794,-579.3423 569.2681,-577.5294 563.6923,-579.3108 559.9689,-498.9979 569.9742,-485.6634 482.0518,-511.7729 479.698,-514.7943 476.3574,-516.4439 476.1856,-516.4439 476.0167,-516.3871 470.8175,-516.3871 470.8175,-516.3871 476.0167,-516.3871 476.1856,-516.4439 476.3574,-516.4439 479.698,-514.7943 482.0518,-511.7729 569.9742,-485.6634 559.9689,-498.9979 556.9075,-502.7574 543.2161,-516.9633 543.2161,-516.9633 556.9075,-502.7574 559.9689,-498.9979 563.6923,-579.3108 569.2681,-577.5294 574.8794,-579.3423 578.2741,-582.7801 575.198,-585.7789 569.4505,-587.6345 566.4197,-698.9674 560.4902,-699.0169 558.8279,-698.9418 557.5775,-698.8516 557.1645,-698.8333 555.4845,-698.8049 542.3661,-698.9445 541.5472,-698.9094 540.2921,-698.9593 529.9208,-699.0936 527.2806,-697.14 525.9146,-696.1874 510.323,-685.9586 423.6834,-632.9344 417.2187,-628.4188 410.3547,-628.4745 406.1247,-628.7531 405.4427,-628.7781 400.2917,-628.8179 390.6591,-628.3334 384.6815,-628.3772 383.7461,-628.4109 382.131,-628.329 368.5307,-628.421 358.0233,-627.8826 271.0034,-525.7103 274.2914,-516.63 285.955,-472.0857 286.4882,-470.4842 286.7033,-470.328 291.0122,-467.4026 292.2009,-466.6506 297.8838,-463.3098 300.0789,-462.1174 307.9343,-458.1941 321.493,-452.0242 322.1724,-451.7466 328.9179,-449.2926 341.7848,-445.758 357.0012,-442.9437 361.032,-442.5623 373.0454,-441.9638 380.176,-441.2851 391.3228,-439.7183 392.0113,-439.5906 401.4233,-437.4187 411.5735,-434.1553 422.4871,-430.1537 426.0472,-428.531 429.8855,-426.6054 446.2913,-417.6092 446.791,-417.2908 465.9741,-404.1626 471.8463,-399.3562 477.619,-394.9001 482.014,-391.3197 530.7724,-349.4901 623.6073,-395.0791 630.2632,-395.1234 640.8017,-395.3789 644.7628,-395.5446 652.931,-396.1739 667.1973,-397.5246 782.0445,-410.4139 861.6485,-544.459 875.2324,-566.6837 889.9131,-590.0641 862.0895,-635.9057 818.6027,-709.6517 623.2042,-699.3306 614.8239,-699.3492 611.4046,-699.265 603.4204,-699.2888 601.0074,-699.3625 596.9776,-699.1614 587.3591,-698.9468 586.6694,-698.9129 586.1868,-698.9025 585.9725,-698.9038 577.2007,-699.1987 577.2007,-699.1987"/>
<polygon fill="#d8d6da" stroke="#d8d6da" points="91.9765,-929.1251 93.7217,-929.17 100.4292,-929.076 106.3006,-928.759 107.289,-928.7443 111.9018,-928.8547 113.5261,-929.0206 121.6861,-929.2011 126.1813,-929.1209 129.153,-929.1838 132.7087,-929.1172 145.3244,-929.8629 146.5168,-929.9796 155.2926,-931.1799 155.5685,-931.2283 166.8646,-933.6533 176.3397,-936.0536 178.1724,-936.6586 187.1836,-939.9893 201.3832,-946.3613 214.8904,-953.4813 215.0074,-953.5474 225.6464,-959.9798 240.9965,-970.4553 263.7824,-986.8549 265.6574,-988.1413 268.3004,-992.9699 320.6758,-1014.2616 321.0236,-1126.153 320.9572,-1126.8782 253.8965,-1134.1387 250.642,-1067.5221 247.4399,-1139.5698 247.7034,-1139.6604 248.1893,-1140.6641 245.7983,-1191.4598 241.0931,-1139.6428 237.1368,-1139.6428 237.1368,-1139.6428 241.0931,-1139.6428 245.7983,-1191.4598 248.1893,-1140.6641 247.7034,-1139.6604 247.4399,-1139.5698 250.642,-1067.5221 253.8965,-1134.1387 320.9572,-1126.8782 320.0984,-1146.2145 321.0911,-1165.8723 321.4647,-1286.067 352.9452,-1325.8 364.0528,-1338.4656 273.8532,-1491.6245 209.6938,-1536.7522 184.7786,-1539.7275 167.9541,-1531.7079 163.9272,-1529.8724 141.8593,-1520.7222 149.3683,-1330.8031 151.9133,-1327.4895 155.479,-1330.0867 162.9537,-1330.0867 165.038,-1328.5144 165.038,-1328.5144 162.9537,-1330.0867 155.479,-1330.0867 151.9133,-1327.4895 149.3683,-1330.8031 141.8593,-1520.7222 42.6043,-1481.6646 37.8743,-1477.6995 -35.317,-1374.1938 -54.8264,-1347.5548 -72.7736,-1323.8085 -52.7303,-1251.7896 -48.2279,-1234.6055 -56.7389,-1179.6819 -131.5898,-1050.0134 -131.1354,-1047.1626 -126.497,-1014.9875 -121.5447,-976.483 -115.2127,-920.3311 -78.9629,-912.1697 70.0439,-928.1587 80.2694,-928.8503 91.348,-929.1577 91.9765,-929.1251 91.9765,-929.1251"/>
<polygon fill="#bbd7d9" stroke="#bbd7d9" points="31.8473,-602.1423 12.92,-599.4854 -134.501,-575.3489 -156.3037,-756.5 -168.8017,-828.6359 -115.2127,-920.3311 -78.9629,-912.1697 1.3274,-849.6913 13.9823,-838.3354 15.4953,-836.8609 27.5419,-826.1864 36.6104,-819.0154 42.4261,-814.9881 86.0633,-788.9813 98.5768,-780.4567 108.3299,-772.2267 118.2857,-763.0293 123.8703,-756.5 134.0193,-747.036 144.6138,-735.796 149.3766,-730.1251 91.5528,-636.5809 88.2743,-631.824 68.9623,-605.2095 62.4553,-604.6235 39.288,-603.0108 31.8473,-602.1423 31.8473,-602.1423"/>
<polygon fill="#bbd7d9" stroke="#bbd7d9" points="985.3919,-1085.2664 928.7487,-994.01 845.1105,-842.5996 834.5095,-824.1836 815.7823,-794.0126 768.0377,-831.8602 751.3225,-846.2098 748.8151,-848.2704 728.9515,-863.882 724.7373,-866.871 712.1008,-874.9087 708.6556,-876.9713 699.7932,-881.95 691.9479,-886.0634 683.3493,-889.9313 672.4619,-894.4242 669.1718,-895.6571 660.7133,-898.2007 641.7075,-902.5204 613.4299,-907.8795 601.2986,-910.6165 599.6069,-911.0581 581.2905,-917.167 579.142,-917.9586 577.9514,-918.4393 571.9661,-921.2932 550.8495,-932.1468 540.7629,-938.4017 529.0476,-946.5145 527.0344,-948.0543 511.0427,-921.4969 510.4247,-920.5963 498.7084,-905.5372 497.8347,-904.4933 487.8765,-891.6019 478.5657,-881.4885 470.8246,-873.8964 464.2353,-868.1528 464.0482,-867.9373 418.9482,-828.111 412.2474,-821.2598 410.216,-819.6584 408.5546,-818.1777 399.054,-808.6534 398.4769,-808.6786 396.8185,-808.8348 391.1273,-809.0882 389.0821,-808.9772 382.6885,-808.9518 379.5886,-808.7863 375.2394,-808.9918 368.5337,-808.6453 363.6317,-808.6393 361.8528,-808.7266 360.5847,-808.8528 360.2531,-808.8694 353.9895,-808.8732 346.7642,-809.241 338.9491,-810.0317 336.6604,-810.3777 325.2764,-812.6727 305.4843,-818.6421 301.1392,-835.1704 296.2896,-864.7131 296.0355,-865.8875 293.1602,-883.5223 323.229,-881.8996 323.229,-881.8996 293.1602,-883.5223 265.6574,-988.1413 268.3004,-992.9699 320.6758,-1014.2616 321.0236,-1126.153 320.9572,-1126.8782 320.0984,-1146.2145 321.0911,-1165.8723 321.4647,-1286.067 352.9452,-1325.8 364.0528,-1338.4656 377.8481,-1335.5702 401.9783,-1330.8983 411.1153,-1329.4315 413.0023,-1329.1908 419.2379,-1178.3634 417.0701,-1139.5452 417.0701,-1139.5452 419.2379,-1178.3634 413.0023,-1329.1908 433.446,-1327.2527 439.1353,-1326.8071 453.7562,-1326.1438 453.3377,-1259.2513 451.345,-1198.1621 446.3788,-1143.7003 452.7583,-1143.7003 458.8393,-1139.6361 458.2915,-1138.8834 452.675,-1135.09 452.675,-1135.09 458.2915,-1138.8834 458.8393,-1139.6361 452.7583,-1143.7003 446.3788,-1143.7003 451.345,-1198.1621 453.3377,-1259.2513 453.7562,-1326.1438 458.1847,-1326.1615 470.8294,-1326.4204 472.8286,-1171.1737 472.8286,-1171.1737 470.8294,-1326.4204 489.9325,-1327.441 492.4513,-1326.8436 486.2952,-1183.0527 486.2952,-1183.0527 492.4513,-1326.8436 494.9908,-1326.3286 495.9031,-1289.8713 495.9031,-1289.8713 494.9908,-1326.3286 520.5317,-1322.448 572.4051,-1315.4568 596.979,-1305.135 633.2401,-1303.712 646.1922,-1303.4312 669.3842,-1303.7441 673.5919,-1303.9487 673.521,-1209.0465 673.521,-1209.0465 673.5919,-1303.9487 678.5749,-1304.366 689.3521,-1305.4584 691.4417,-1305.7069 706.9308,-1308.0962 719.9444,-1310.3326 730.403,-1312.6809 740.5048,-1315.127 744.9371,-1313.5913 943.8846,-1248.3373 995.2295,-1192.7262 1014.6,-1172.2352 1024.6135,-1152.6696 1017.3575,-1116.02 989.6873,-1089.574 773.4078,-1116.3873 773.4078,-1116.3873 989.6873,-1089.574 985.3919,-1085.2664 985.3919,-1085.2664"/>
<polyline fill="none" stroke="#000000" points="146.5168,-929.9796 145.3244,-929.8629 132.7087,-929.1172 129.153,-929.1838 126.1813,-929.1209 121.6861,-929.2011 113.5261,-929.0206 111.9018,-928.8547 107.289,-928.7443 106.3006,-928.759 100.4292,-929.076 93.7217,-929.17 91.9765,-929.1251 91.348,-929.1577 80.2694,-928.8503 70.0439,-928.1587 -78.9629,-912.1697 1.3274,-849.6913 13.9823,-838.3354 15.4953,-836.8609 27.5419,-826.1864 36.6104,-819.0154 42.4261,-814.9881 86.0633,-788.9813 98.5768,-780.4567 108.3299,-772.2267 118.2857,-763.0293 123.8703,-756.5 134.0193,-747.036 144.6138,-735.796 149.3766,-730.1251 91.5528,-636.5809 88.2743,-631.824 68.9623,-605.2095 62.4553,-604.6235 39.288,-603.0108 31.8473,-602.1423 12.92,-599.4854 -134.501,-575.3489 -189.4611,-488.8094 -189.9343,-486.3932 -173.9706,-457.6877 -164.5661,-439.7267 -149.5796,-410.1681 -36.4217,-290.51 70.9811,-252.6829 75.254,-251.1036 82.4771,-248.1805 118.324,-205.7442 147.5259,-194.4315 241.2656,-184.3412 267.6525,-180.5959 285.4043,-176.8663 294.8336,-174.5642 298.9395,-173.492 311.1991,-170.0816 312.5848,-169.6727 321.5828,-166.5549 343.4913,-158.5855 352.1951,-154.9774 368.5991,-147.6153 406.2022,-130.1054 425.3159,-86.4196 517.9832,-20.421 628.3436,-24.386 644.3758,-24.6727 645.2849,-24.6725 672.1826,-23.2093 756.6337,-17.0954 765.9872,-22.1805 892.6748,-117.2369 859.8054,-198.9947 854.8647,-211.8546 828.9603,-286.242 806.0485,-348.4852 784.6817,-403.8543 782.0445,-410.4139 667.1973,-397.5246 652.931,-396.1739 644.7628,-395.5446 640.8017,-395.3789 630.2632,-395.1234 623.6073,-395.0791 530.7724,-349.4901 482.014,-391.3197 477.619,-394.9001 471.8463,-399.3562 465.9741,-404.1626 446.791,-417.2908 446.2913,-417.6092 429.8855,-426.6054 426.0472,-428.531 422.4871,-430.1537 411.5735,-434.1553 401.4233,-437.4187 392.0113,-439.5906 391.3228,-439.7183 380.176,-441.2851 373.0454,-441.9638 361.032,-442.5623 357.0012,-442.9437 341.7848,-445.758 328.9179,-449.2926 322.1724,-451.7466 321.493,-452.0242 307.9343,-458.1941 300.0789,-462.1174 297.8838,-463.3098 292.2009,-466.6506 291.0122,-467.4026 286.7033,-470.328 286.4882,-470.4842 285.955,-472.0857 274.2914,-516.63 271.0034,-525.7103 358.0233,-627.8826 368.5307,-628.421 382.131,-628.329 383.7461,-628.4109 384.6815,-628.3772 390.6591,-628.3334 400.2917,-628.8179 405.4427,-628.7781 406.1247,-628.7531 410.3547,-628.4745 417.2187,-628.4188 423.6834,-632.9344 510.323,-685.9586 525.9146,-696.1874 527.2806,-697.14 529.9208,-699.0936 528.4972,-701.1081 515.5503,-717.4553 505.9849,-728.048 505.0616,-728.998 493.1459,-740.38 491.4882,-742.4643 490.1688,-743.9785 478.7291,-754.9001 470.2184,-762.1606 459.2725,-769.2801 423.3759,-788.8702 416.7903,-793.1349 412.2884,-796.5021 408.6328,-799.6107 404.353,-803.7071 403.2351,-804.6644 399.054,-808.6534 398.4769,-808.6786 396.8185,-808.8348 391.1273,-809.0882 389.0821,-808.9772 382.6885,-808.9518 379.5886,-808.7863 375.2394,-808.9918 368.5337,-808.6453 363.6317,-808.6393 361.8528,-808.7266 360.5847,-808.8528 360.2531,-808.8694 353.9895,-808.8732 346.7642,-809.241 338.9491,-810.0317 336.6604,-810.3777 325.2764,-812.6727 305.4843,-818.6421 301.1392,-835.1704 296.2896,-864.7131 296.0355,-865.8875 293.1602,-883.5223 265.6574,-988.1413 263.7824,-986.8549 240.9965,-970.4553 225.6464,-959.9798 215.0074,-953.5474 214.8904,-953.4813 201.3832,-946.3613 187.1836,-939.9893 178.1724,-936.6586 176.3397,-936.0536 166.8646,-933.6533 155.5685,-931.2283 155.2926,-931.1799 146.5168,-929.9796 "/>
<polyline fill="none" stroke="#000000" points="529.0476,-946.5145 527.0344,-948.0543 511.0427,-921.4969 510.4247,-920.5963 498.7084,-905.5372 497.8347,-904.4933 487.8765,-891.6019 478.5657,-881.4885 470.8246,-873.8964 464.2353,-868.1528 464.0482,-867.9373 418.9482,-828.111 412.2474,-821.2598 410.216,-819.6584 408.5546,-818.1777 399.054,-808.6534 403.2351,-804.6644 404.353,-803.7071 408.6328,-799.6107 412.2884,-796.5021 416.7903,-793.1349 423.3759,-788.8702 459.2725,-769.2801 470.2184,-762.1606 478.7291,-754.9001 490.1688,-743.9785 491.4882,-742.4643 493.1459,-740.38 505.0616,-728.998 505.9849,-728.048 515.5503,-717.4553 528.4972,-701.1081 529.9208,-699.0936 540.2921,-698.9593 541.5472,-698.9094 542.3661,-698.9445 555.4845,-698.8049 557.1645,-698.8333 557.5775,-698.8516 558.8279,-698.9418 560.4902,-699.0169 566.4197,-698.9674 576.3352,-699.1581 577.2007,-699.1987 585.9725,-698.9038 586.1868,-698.9025 586.6694,-698.9129 587.3591,-698.9468 596.9776,-699.1614 601.0074,-699.3625 603.4204,-699.2888 611.4046,-699.265 614.8239,-699.3492 623.2042,-699.3306 818.6027,-709.6517 862.0895,-635.9057 889.9131,-590.0641 875.2324,-566.6837 861.6485,-544.459 782.0445,-410.4139 784.6817,-403.8543 806.0485,-348.4852 828.9603,-286.242 854.8647,-211.8546 859.8054,-198.9947 892.6748,-117.2369 986.5632,-98.1292 1012.912,-92.4156 1018.6574,-91.0945 1026.6206,-89.1592 1028.3494,-88.6938 1033.868,-87.1352 1041.8273,-84.782 1054.1747,-53.9628 1087.4171,35.7829 1092.3411,42.8855 1161.5787,146.2081 1212.7614,173.9881 1279.3761,188.5467 1296.1041,192.4755 1314.8591,197.7944 1333.6919,203.7446 1334.1787,203.4266 1437.2032,138.2426 1483.5774,84.4576 1520.5917,14.3176 1520.1348,5.6541 1513.9366,-18 1492.6202,-118.7743 1379.0784,-246.5071 1326.2837,-261.7879 1309.3884,-267.1599 1298.8143,-270.6715 1292.4796,-272.9537 1270.2952,-342.11 1205.4796,-577.406 1239.0486,-611.4875 1320.137,-753.3898 1321.8807,-756.3528 1316.9122,-763.1436 1292.776,-793.6309 1289.7279,-797.3682 1283.4503,-804.4055 1235.8099,-856.1954 1145.1282,-963.0477 1090.1104,-1024.9414 1083.2683,-1032.3916 1070.5458,-1047.1095 1051.8463,-1070.0045 1048.4762,-1074.4641 1027.1228,-1101.9608 1026.5486,-1102.7349 1017.3575,-1116.02 989.6873,-1089.574 985.3919,-1085.2664 928.7487,-994.01 845.1105,-842.5996 834.5095,-824.1836 815.7823,-794.0126 768.0377,-831.8602 751.3225,-846.2098 748.8151,-848.2704 728.9515,-863.882 724.7373,-866.871 712.1008,-874.9087 708.6556,-876.9713 699.7932,-881.95 691.9479,-886.0634 683.3493,-889.9313 672.4619,-894.4242 669.1718,-895.6571 660.7133,-898.2007 641.7075,-902.5204 613.4299,-907.8795 601.2986,-910.6165 599.6069,-911.0581 581.2905,-917.167 579.142,-917.9586 577.9514,-918.4393 571.9661,-921.2932 550.8495,-932.1468 540.7629,-938.4017 529.0476,-946.5145 "/>
<polyline fill="none" stroke="#000000" points="1318.4016,-1201.485 1317.241,-1201.6591 1311.3983,-1200.441 1293.1328,-1196.9531 1288.7363,-1196.2688 1284.4442,-1195.7512 1217.0875,-1188.8042 1024.6135,-1152.6696 1017.3575,-1116.02 1026.5486,-1102.7349 1027.1228,-1101.9608 1048.4762,-1074.4641 1051.8463,-1070.0045 1070.5458,-1047.1095 1083.2683,-1032.3916 1090.1104,-1024.9414 1145.1282,-963.0477 1235.8099,-856.1954 1283.4503,-804.4055 1289.7279,-797.3682 1292.776,-793.6309 1316.9122,-763.1436 1321.8807,-756.3528 1328.8005,-759.2237 1345.5624,-765.693 1353.4403,-768.5039 1376.9991,-776.2277 1443.7633,-796.1526 1586.7048,-931.6902 1609.725,-930.1893 1798.5232,-834.124 1801.7404,-834.8107 1822.634,-838.9359 1833.4385,-840.3725 1845.8732,-841.8259 1857.1027,-842.9572 1857.9187,-843.013 1914.4277,-845.9713 2056.2336,-966.9567 2051.5566,-1036.4 2050.8979,-1070.5042 1976.5811,-1175.995 1875.3217,-1237.6854 1863.9677,-1259.2335 1794.8552,-1310.726 1702.1843,-1328.726 1688.486,-1331.6666 1683.7759,-1332.7732 1673.8046,-1335.3185 1649.2163,-1342.092 1618.7146,-1334.1063 1486.0802,-1214.9674 1478.7628,-1208.6041 1472.5502,-1200.1843 1383.8522,-1198.3704 1353.962,-1198.2681 1351.1552,-1198.354 1347.9822,-1198.5593 1338.3546,-1199.3469 1328.0792,-1200.363 1318.4016,-1201.485 "/>
<polyline fill="none" stroke="#000000" points="446.2913,-417.6092 446.791,-417.2908 465.9741,-404.1626 471.8463,-399.3562 477.619,-394.9001 482.014,-391.3197 530.7724,-349.4901 623.6073,-395.0791 630.2632,-395.1234 640.8017,-395.3789 644.7628,-395.5446 652.931,-396.1739 667.1973,-397.5246 782.0445,-410.4139 861.6485,-544.459 875.2324,-566.6837 889.9131,-590.0641 862.0895,-635.9057 818.6027,-709.6517 623.2042,-699.3306 614.8239,-699.3492 611.4046,-699.265 603.4204,-699.2888 601.0074,-699.3625 596.9776,-699.1614 587.3591,-698.9468 586.6694,-698.9129 586.1868,-698.9025 585.9725,-698.9038 577.2007,-699.1987 576.3352,-699.1581 566.4197,-698.9674 560.4902,-699.0169 558.8279,-698.9418 557.5775,-698.8516 557.1645,-698.8333 555.4845,-698.8049 542.3661,-698.9445 541.5472,-698.9094 540.2921,-698.9593 529.9208,-699.0936 527.2806,-697.14 525.9146,-696.1874 510.323,-685.9586 423.6834,-632.9344 417.2187,-628.4188 410.3547,-628.4745 406.1247,-628.7531 405.4427,-628.7781 400.2917,-628.8179 390.6591,-628.3334 384.6815,-628.3772 383.7461,-628.4109 382.131,-628.329 368.5307,-628.421 358.0233,-627.8826 271.0034,-525.7103 274.2914,-516.63 285.955,-472.0857 286.4882,-470.4842 286.7033,-470.328 291.0122,-467.4026 292.2009,-466.6506 297.8838,-463.3098 300.0789,-462.1174 307.9343,-458.1941 321.493,-452.0242 322.1724,-451.7466 328.9179,-449.2926 341.7848,-445.758 357.0012,-442.9437 361.032,-442.5623 373.0454,-441.9638 380.176,-441.2851 391.3228,-439.7183 392.0113,-439.5906 401.4233,-437.4187 411.5735,-434.1553 422.4871,-430.1537 426.0472,-428.531 429.8855,-426.6054 446.2913,-417.6092 "/>
<polyline fill="none" stroke="#000000" points="352.9452,-1325.8 364.0528,-1338.4656 273.8532,-1491.6245 209.6938,-1536.7522 184.7786,-1539.7275 167.9541,-1531.7079 163.9272,-1529.8724 141.8593,-1520.7222 42.6043,-1481.6646 37.8743,-1477.6995 -35.317,-1374.1938 -54.8264,-1347.5548 -72.7736,-1323.8085 -52.7303,-1251.7896 -48.2279,-1234.6055 -56.7389,-1179.6819 -131.5898,-1050.0134 -131.1354,-1047.1626 -126.497,-1014.9875 -121.5447,-976.483 -115.2127,-920.3311 -78.9629,-912.1697 70.0439,-928.1587 80.2694,-928.8503 91.348,-929.1577 91.9765,-929.1251 93.7217,-929.17 100.4292,-929.076 106.3006,-928.759 107.289,-928.7443 111.9018,-928.8547 113.5261,-929.0206 121.6861,-929.2011 126.1813,-929.1209 129.153,-929.1838 132.7087,-929.1172 145.3244,-929.8629 146.5168,-929.9796 155.2926,-931.1799 155.5685,-931.2283 166.8646,-933.6533 176.3397,-936.0536 178.1724,-936.6586 187.1836,-939.9893 201.3832,-946.3613 214.8904,-953.4813 215.0074,-953.5474 225.6464,-959.9798 240.9965,-970.4553 263.7824,-986.8549 265.6574,-988.1413 268.3004,-992.9699 320.6758,-1014.2616 321.0236,-1126.153 320.9572,-1126.8782 320.0984,-1146.2145 321.0911,-1165.8723 321.4647,-1286.067 352.9452,-1325.8 "/>
<polyline fill="none" stroke="#000000" points="15.4953,-836.8609 13.9823,-838.3354 1.3274,-849.6913 -78.9629,-912.1697 -115.2127,-920.3311 -168.8017,-828.6359 -156.3037,-756.5 -134.501,-575.3489 12.92,-599.4854 31.8473,-602.1423 39.288,-603.0108 62.4553,-604.6235 68.9623,-605.2095 88.2743,-631.824 91.5528,-636.5809 149.3766,-730.1251 144.6138,-735.796 134.0193,-747.036 123.8703,-756.5 118.2857,-763.0293 108.3299,-772.2267 98.5768,-780.4567 86.0633,-788.9813 42.4261,-814.9881 36.6104,-819.0154 27.5419,-826.1864 15.4953,-836.8609 "/>
<polyline fill="none" stroke="#000000" points="391.1273,-809.0882 389.0821,-808.9772 382.6885,-808.9518 379.5886,-808.7863 375.2394,-808.9918 368.5337,-808.6453 363.6317,-808.6393 361.8528,-808.7266 360.5847,-808.8528 360.2531,-808.8694 353.9895,-808.8732 346.7642,-809.241 338.9491,-810.0317 336.6604,-810.3777 325.2764,-812.6727 305.4843,-818.6421 301.1392,-835.1704 296.2896,-864.7131 296.0355,-865.8875 293.1602,-883.5223 265.6574,-988.1413 268.3004,-992.9699 320.6758,-1014.2616 321.0236,-1126.153 320.9572,-1126.8782 320.0984,-1146.2145 321.0911,-1165.8723 321.4647,-1286.067 352.9452,-1325.8 364.0528,-1338.4656 377.8481,-1335.5702 401.9783,-1330.8983 411.1153,-1329.4315 413.0023,-1329.1908 433.446,-1327.2527 439.1353,-1326.8071 453.7562,-1326.1438 458.1847,-1326.1615 470.8294,-1326.4204 489.9325,-1327.441 492.4513,-1326.8436 494.9908,-1326.3286 520.5317,-1322.448 572.4051,-1315.4568 596.979,-1305.135 633.2401,-1303.712 646.1922,-1303.4312 669.3842,-1303.7441 673.5919,-1303.9487 678.5749,-1304.366 689.3521,-1305.4584 691.4417,-1305.7069 706.9308,-1308.0962 719.9444,-1310.3326 730.403,-1312.6809 740.5048,-1315.127 744.9371,-1313.5913 943.8846,-1248.3373 995.2295,-1192.7262 1014.6,-1172.2352 1024.6135,-1152.6696 1017.3575,-1116.02 989.6873,-1089.574 985.3919,-1085.2664 928.7487,-994.01 845.1105,-842.5996 834.5095,-824.1836 815.7823,-794.0126 768.0377,-831.8602 751.3225,-846.2098 748.8151,-848.2704 728.9515,-863.882 724.7373,-866.871 712.1008,-874.9087 708.6556,-876.9713 699.7932,-881.95 691.9479,-886.0634 683.3493,-889.9313 672.4619,-894.4242 669.1718,-895.6571 660.7133,-898.2007 641.7075,-902.5204 613.4299,-907.8795 601.2986,-910.6165 599.6069,-911.0581 581.2905,-917.167 579.142,-917.9586 577.9514,-918.4393 571.9661,-921.2932 550.8495,-932.1468 540.7629,-938.4017 529.0476,-946.5145 527.0344,-948.0543 511.0427,-921.4969 510.4247,-920.5963 498.7084,-905.5372 497.8347,-904.4933 487.8765,-891.6019 478.5657,-881.4885 470.8246,-873.8964 464.2353,-868.1528 464.0482,-867.9373 418.9482,-828.111 412.2474,-821.2598 410.216,-819.6584 408.5546,-818.1777 399.054,-808.6534 398.4769,-808.6786 396.8185,-808.8348 391.1273,-809.0882 "/>
<!-- apache&#45;commons&#45;collections&#45;&gt;java&#45;1.8.0&#45;openjdk&#45;headless -->
<g id="edge1" class="edge">
<title>apache&#45;commons&#45;collections&#45;&gt;java&#45;1.8.0&#45;openjdk&#45;headless</title>
<path fill="none" stroke="#444444" stroke-opacity="0.333333" d="M312.1477,-833.7426C331.3867,-832.1956 351.1697,-830.6048 370.6401,-829.0392"/>
<polygon fill="#444444" fill-opacity="0.333333" stroke="#444444" stroke-opacity="0.333333" points="371.1016,-832.5135 380.7889,-828.2232 370.5405,-825.536 371.1016,-832.5135"/>
</g>
<!-- apache&#45;commons&#45;collections&#45;&gt;javapackages&#45;tools -->
<g id="edge2" class="edge">
<title>apache&#45;commons&#45;collections&#45;&gt;javapackages&#45;tools</title>
<path fill="none" stroke="#444444" stroke-opacity="0.333333" d="M198.3958,-827.6942C234.4559,-809.7603 289.7431,-782.264 328.6202,-762.9291"/>
<polygon fill="#444444" fill-opacity="0.333333" stroke="#444444" stroke-opacity="0.333333" points="330.2404,-766.0323 337.6356,-758.4454 327.1233,-759.7646 330.2404,-766.0323"/>
</g>
<!-- java&#45;1.8.0&#45;openjdk&#45;headless&#45;&gt;javapackages&#45;tools -->
<g id="edge3" class="edge">
<title>java&#45;1.8.0&#45;openjdk&#45;headless&#45;&gt;javapackages&#45;tools</title>
<path fill="none" stroke="#444444" stroke-opacity="0.333333" d="M510.0644,-797.6065C490.3287,-786.9942 462.5425,-773.6583 437.2123,-762.4666"/>
<polygon fill="#444444" fill-opacity="0.333333" stroke="#444444" stroke-opacity="0.333333" points="438.5758,-759.2429 428.0107,-758.4494 435.775,-765.6582 438.5758,-759.2429"/>
</g>
<!-- java&#45;1.8.0&#45;openjdk&#45;headless&#45;&gt;copy&#45;jdk&#45;configs -->
<g id="edge4" class="edge">
<title>java&#45;1.8.0&#45;openjdk&#45;headless&#45;&gt;copy&#45;jdk&#45;configs</title>
<path fill="none" stroke="#444444" stroke-opacity="0.333333" d="M609.3218,-833.7602C756.3573,-870.2409 1087.9221,-952.5047 1242.7456,-990.9176"/>
<polygon fill="#444444" fill-opacity="0.333333" stroke="#444444" stroke-opacity="0.333333" points="1242.1356,-994.3723 1252.6842,-993.3834 1243.8213,-987.5783 1242.1356,-994.3723"/>
</g>
<!-- java&#45;1.8.0&#45;openjdk&#45;headless&#45;&gt;freetype -->
<g id="edge5" class="edge">
<title>java&#45;1.8.0&#45;openjdk&#45;headless&#45;&gt;freetype</title>
<path fill="none" stroke="#444444" stroke-opacity="0.333333" d="M555.4642,-797.4249C631.2854,-724.243 913.1184,-452.2205 1000.9142,-367.4808"/>
<polygon fill="#444444" fill-opacity="0.333333" stroke="#444444" stroke-opacity="0.333333" points="1003.5577,-369.7937 1008.3222,-360.3306 998.6964,-364.7571 1003.5577,-369.7937"/>
</g>
<!-- java&#45;1.8.0&#45;openjdk&#45;headless&#45;&gt;tzdata&#45;java -->
<g id="edge6" class="edge">
<title>java&#45;1.8.0&#45;openjdk&#45;headless&#45;&gt;tzdata&#45;java</title>
<path fill="none" stroke="#444444" stroke-opacity="0.333333" d="M692.3606,-820.1755C784.1219,-822.811 896.3397,-826.0339 970.3426,-828.1593"/>
<polygon fill="#444444" fill-opacity="0.333333" stroke="#444444" stroke-opacity="0.333333" points="970.4286,-831.6631 980.5249,-828.4518 970.6296,-824.666 970.4286,-831.6631"/>
</g>
<!-- javapackages&#45;tools&#45;&gt;java&#45;1.8.0&#45;openjdk&#45;headless -->
<g id="edge7" class="edge">
<title>javapackages&#45;tools&#45;&gt;java&#45;1.8.0&#45;openjdk&#45;headless</title>
<path fill="none" stroke="#444444" stroke-opacity="0.333333" d="M400.4256,-758.4735C420.1613,-769.0858 447.9475,-782.4217 473.2777,-793.6134"/>
<polygon fill="#444444" fill-opacity="0.333333" stroke="#444444" stroke-opacity="0.333333" points="471.9142,-796.8371 482.4793,-797.6306 474.715,-790.4218 471.9142,-796.8371"/>
</g>
<!-- javapackages&#45;tools&#45;&gt;which -->
<g id="edge8" class="edge">
<title>javapackages&#45;tools&#45;&gt;which</title>
<path fill="none" stroke="#444444" stroke-opacity="0.333333" d="M383.1935,-722.3478C423.5534,-643.5292 584.6032,-329.015 632.9733,-234.553"/>
<polygon fill="#444444" fill-opacity="0.333333" stroke="#444444" stroke-opacity="0.333333" points="636.1062,-236.1139 637.5488,-225.6177 629.8756,-232.9234 636.1062,-236.1139"/>
</g>
<!-- copy&#45;jdk&#45;configs&#45;&gt;lua -->
<g id="edge9" class="edge">
<title>copy&#45;jdk&#45;configs&#45;&gt;lua</title>
<path fill="none" stroke="#444444" stroke-opacity="0.333333" d="M1373.3442,-1029.4863C1446.478,-1057.0176 1584.1765,-1108.8543 1650.0986,-1133.6708"/>
<polygon fill="#444444" fill-opacity="0.333333" stroke="#444444" stroke-opacity="0.333333" points="1649.0731,-1137.0245 1659.665,-1137.2721 1651.5393,-1130.4733 1649.0731,-1137.0245"/>
</g>
<!-- copy&#45;jdk&#45;configs&#45;&gt;lua&#45;posix -->
<g id="edge10" class="edge">
<title>copy&#45;jdk&#45;configs&#45;&gt;lua&#45;posix</title>
<path fill="none" stroke="#444444" stroke-opacity="0.333333" d="M1422.5565,-1016.1759C1522.7768,-1021.0973 1676.4966,-1028.646 1765.0464,-1032.9943"/>
<polygon fill="#444444" fill-opacity="0.333333" stroke="#444444" stroke-opacity="0.333333" points="1765.091,-1036.5006 1775.2507,-1033.4954 1765.4344,-1029.509 1765.091,-1036.5006"/>
</g>
<!-- freetype&#45;&gt;libpng -->
<g id="edge11" class="edge">
<title>freetype&#45;&gt;libpng</title>
<path fill="none" stroke="#444444" stroke-opacity="0.333333" d="M1042.8977,-323.7558C1089.5915,-269.1601 1227.7312,-107.6433 1282.077,-44.1007"/>
<polygon fill="#444444" fill-opacity="0.333333" stroke="#444444" stroke-opacity="0.333333" points="1285.0346,-46.0274 1288.8745,-36.1529 1279.7149,-41.4776 1285.0346,-46.0274"/>
</g>
<!-- lua&#45;posix&#45;&gt;lua -->
<g id="edge23" class="edge">
<title>lua&#45;posix&#45;&gt;lua</title>
<path fill="none" stroke="#444444" stroke-opacity="0.333333" d="M1810.4059,-1054.5137C1785.5825,-1073.2534 1746.6721,-1102.6277 1719.2106,-1123.359"/>
<polygon fill="#444444" fill-opacity="0.333333" stroke="#444444" stroke-opacity="0.333333" points="1716.9562,-1120.6755 1711.0839,-1129.4941 1721.1738,-1126.2623 1716.9562,-1120.6755"/>
</g>
<!-- apache&#45;commons&#45;daemon&#45;&gt;java&#45;1.8.0&#45;openjdk&#45;headless -->
<g id="edge12" class="edge">
<title>apache&#45;commons&#45;daemon&#45;&gt;java&#45;1.8.0&#45;openjdk&#45;headless</title>
<path fill="none" stroke="#444444" stroke-opacity="0.333333" d="M313.6913,-385.7882C349.6878,-455.2345 479.0043,-704.7185 522.2954,-788.2378"/>
<polygon fill="#444444" fill-opacity="0.333333" stroke="#444444" stroke-opacity="0.333333" points="519.3125,-790.0888 527.0218,-797.3563 525.5273,-786.8674 519.3125,-790.0888"/>
</g>
<!-- apache&#45;commons&#45;daemon&#45;&gt;javapackages&#45;tools -->
<g id="edge13" class="edge">
<title>apache&#45;commons&#45;daemon&#45;&gt;javapackages&#45;tools</title>
<path fill="none" stroke="#444444" stroke-opacity="0.333333" d="M307.707,-385.8989C318.9572,-446.0919 354.9784,-638.8208 368.6389,-711.9101"/>
<polygon fill="#444444" fill-opacity="0.333333" stroke="#444444" stroke-opacity="0.333333" points="365.2819,-712.9995 370.5596,-722.1862 372.1627,-711.7134 365.2819,-712.9995"/>
</g>
<!-- apache&#45;commons&#45;dbcp&#45;&gt;java&#45;1.8.0&#45;openjdk&#45;headless -->
<g id="edge14" class="edge">
<title>apache&#45;commons&#45;dbcp&#45;&gt;java&#45;1.8.0&#45;openjdk&#45;headless</title>
<path fill="none" stroke="#444444" stroke-opacity="0.333333" d="M435.3674,-534.888C453.5931,-585.4798 504.8303,-727.7063 526.5733,-788.0617"/>
<polygon fill="#444444" fill-opacity="0.333333" stroke="#444444" stroke-opacity="0.333333" points="523.3565,-789.4591 530.0387,-797.681 529.9422,-787.0866 523.3565,-789.4591"/>
</g>
<!-- apache&#45;commons&#45;dbcp&#45;&gt;javapackages&#45;tools -->
<g id="edge15" class="edge">
<title>apache&#45;commons&#45;dbcp&#45;&gt;javapackages&#45;tools</title>
<path fill="none" stroke="#444444" stroke-opacity="0.333333" d="M424.303,-534.9404C414.7206,-574.0445 392.2046,-665.9276 380.8149,-712.4064"/>
<polygon fill="#444444" fill-opacity="0.333333" stroke="#444444" stroke-opacity="0.333333" points="377.4128,-711.5847 378.4321,-722.1304 384.2117,-713.2508 377.4128,-711.5847"/>
</g>
<!-- apache&#45;commons&#45;dbcp&#45;&gt;apache&#45;commons&#45;pool -->
<g id="edge16" class="edge">
<title>apache&#45;commons&#45;dbcp&#45;&gt;apache&#45;commons&#45;pool</title>
<path fill="none" stroke="#444444" stroke-opacity="0.333333" d="M467.1959,-534.6593C484.0839,-542.5873 504.0872,-551.9776 521.8959,-560.3378"/>
<polygon fill="#444444" fill-opacity="0.333333" stroke="#444444" stroke-opacity="0.333333" points="520.441,-563.5212 530.9805,-564.6025 523.4157,-557.1847 520.441,-563.5212"/>
</g>
<!-- apache&#45;commons&#45;pool&#45;&gt;java&#45;1.8.0&#45;openjdk&#45;headless -->
<g id="edge17" class="edge">
<title>apache&#45;commons&#45;pool&#45;&gt;java&#45;1.8.0&#45;openjdk&#45;headless</title>
<path fill="none" stroke="#444444" stroke-opacity="0.333333" d="M566.7655,-600.9002C561.0634,-641.4092 547.3361,-738.9307 540.5152,-787.3881"/>
<polygon fill="#444444" fill-opacity="0.333333" stroke="#444444" stroke-opacity="0.333333" points="537.0207,-787.1045 539.0926,-797.4948 543.9524,-788.0803 537.0207,-787.1045"/>
</g>
<!-- apache&#45;commons&#45;pool&#45;&gt;javapackages&#45;tools -->
<g id="edge18" class="edge">
<title>apache&#45;commons&#45;pool&#45;&gt;javapackages&#45;tools</title>
<path fill="none" stroke="#444444" stroke-opacity="0.333333" d="M546.9274,-600.7082C511.8356,-629.045 443.8614,-683.9344 404.3813,-715.8147"/>
<polygon fill="#444444" fill-opacity="0.333333" stroke="#444444" stroke-opacity="0.333333" points="401.9926,-713.2449 396.4113,-722.2505 406.3903,-718.691 401.9926,-713.2449"/>
</g>
<!-- apache&#45;commons&#45;lang&#45;&gt;java&#45;1.8.0&#45;openjdk&#45;headless -->
<g id="edge19" class="edge">
<title>apache&#45;commons&#45;lang&#45;&gt;java&#45;1.8.0&#45;openjdk&#45;headless</title>
<path fill="none" stroke="#444444" stroke-opacity="0.333333" d="M219.5104,-1121.4464C276.3483,-1066.6295 444.9532,-904.0203 510.2695,-841.0267"/>
<polygon fill="#444444" fill-opacity="0.333333" stroke="#444444" stroke-opacity="0.333333" points="512.9401,-843.3136 517.7084,-833.8523 508.0808,-838.275 512.9401,-843.3136"/>
</g>
<!-- apache&#45;commons&#45;lang&#45;&gt;javapackages&#45;tools -->
<g id="edge20" class="edge">
<title>apache&#45;commons&#45;lang&#45;&gt;javapackages&#45;tools</title>
<path fill="none" stroke="#444444" stroke-opacity="0.333333" d="M208.3849,-1121.5999C236.0432,-1057.9194 328.5916,-844.8362 361.8928,-768.1636"/>
<polygon fill="#444444" fill-opacity="0.333333" stroke="#444444" stroke-opacity="0.333333" points="365.2352,-769.2536 366.0087,-758.687 358.8146,-766.4649 365.2352,-769.2536"/>
</g>
<!-- apache&#45;commons&#45;logging&#45;&gt;java&#45;1.8.0&#45;openjdk&#45;headless -->
<g id="edge21" class="edge">
<title>apache&#45;commons&#45;logging&#45;&gt;java&#45;1.8.0&#45;openjdk&#45;headless</title>
<path fill="none" stroke="#444444" stroke-opacity="0.333333" d="M148.9148,-469.6748C215.9091,-529.4807 430.7121,-721.2361 508.266,-790.4686"/>
<polygon fill="#444444" fill-opacity="0.333333" stroke="#444444" stroke-opacity="0.333333" points="506.3923,-793.4877 516.1831,-797.5362 511.054,-788.2657 506.3923,-793.4877"/>
</g>
<!-- apache&#45;commons&#45;logging&#45;&gt;javapackages&#45;tools -->
<g id="edge22" class="edge">
<title>apache&#45;commons&#45;logging&#45;&gt;javapackages&#45;tools</title>
<path fill="none" stroke="#444444" stroke-opacity="0.333333" d="M144.0327,-469.6832C186.0152,-519.1098 302.9046,-656.7255 351.9034,-714.4124"/>
<polygon fill="#444444" fill-opacity="0.333333" stroke="#444444" stroke-opacity="0.333333" points="349.4816,-716.9677 358.6231,-722.3236 354.8168,-712.4361 349.4816,-716.9677"/>
</g>
<!-- ecj&#45;&gt;java&#45;1.8.0&#45;openjdk&#45;headless -->
<g id="edge24" class="edge">
<title>ecj&#45;&gt;java&#45;1.8.0&#45;openjdk&#45;headless</title>
<path fill="none" stroke="#444444" stroke-opacity="0.333333" d="M58.0622,-759.6828C116.5554,-766.531 258.2989,-783.1258 372.4224,-796.4869"/>
<polygon fill="#444444" fill-opacity="0.333333" stroke="#444444" stroke-opacity="0.333333" points="372.3379,-800.0008 382.677,-797.6875 373.1519,-793.0483 372.3379,-800.0008"/>
</g>
<!-- ecj&#45;&gt;javapackages&#45;tools -->
<g id="edge25" class="edge">
<title>ecj&#45;&gt;javapackages&#45;tools</title>
<path fill="none" stroke="#444444" stroke-opacity="0.333333" d="M58.084,-755.2216C100.6075,-753.2236 185.3064,-749.244 256.3007,-745.9083"/>
<polygon fill="#444444" fill-opacity="0.333333" stroke="#444444" stroke-opacity="0.333333" points="256.8445,-749.3867 266.6691,-745.4211 256.5159,-742.3944 256.8445,-749.3867"/>
</g>
<!-- jss&#45;&gt;java&#45;1.8.0&#45;openjdk&#45;headless -->
<g id="edge26" class="edge">
<title>jss&#45;&gt;java&#45;1.8.0&#45;openjdk&#45;headless</title>
<path fill="none" stroke="#444444" stroke-opacity="0.333333" d="M172.7547,-1307.6453C229.5216,-1230.8776 450.0059,-932.7093 517.0693,-842.0174"/>
<polygon fill="#444444" fill-opacity="0.333333" stroke="#444444" stroke-opacity="0.333333" points="519.9382,-844.0243 523.0697,-833.9028 514.3098,-839.8624 519.9382,-844.0243"/>
</g>
<!-- tomcat&#45;&gt;apache&#45;commons&#45;collections -->
<g id="edge27" class="edge">
<title>tomcat&#45;&gt;apache&#45;commons&#45;collections</title>
<path fill="none" stroke="#444444" stroke-opacity="0.333333" d="M227.1021,-653.3127C214.5765,-690.3224 186.2125,-774.1307 171.3832,-817.9474"/>
<polygon fill="#444444" fill-opacity="0.333333" stroke="#444444" stroke-opacity="0.333333" points="167.9833,-817.0756 168.0927,-827.6698 174.6139,-819.3197 167.9833,-817.0756"/>
</g>
<!-- tomcat&#45;&gt;java&#45;1.8.0&#45;openjdk&#45;headless -->
<g id="edge28" class="edge">
<title>tomcat&#45;&gt;java&#45;1.8.0&#45;openjdk&#45;headless</title>
<path fill="none" stroke="#444444" stroke-opacity="0.333333" d="M263.7722,-653.1266C319.1677,-686.1443 436.3122,-755.9666 497.483,-792.4266"/>
<polygon fill="#444444" fill-opacity="0.333333" stroke="#444444" stroke-opacity="0.333333" points="495.7061,-795.442 506.088,-797.5555 499.2901,-789.4291 495.7061,-795.442"/>
</g>
<!-- tomcat&#45;&gt;javapackages&#45;tools -->
<g id="edge29" class="edge">
<title>tomcat&#45;&gt;javapackages&#45;tools</title>
<path fill="none" stroke="#444444" stroke-opacity="0.333333" d="M257.4886,-653.0906C280.6342,-670.4371 315.72,-696.7321 341.3338,-715.9283"/>
<polygon fill="#444444" fill-opacity="0.333333" stroke="#444444" stroke-opacity="0.333333" points="339.5251,-718.9466 349.6262,-722.1431 343.7231,-713.3451 339.5251,-718.9466"/>
</g>
<!-- tomcat&#45;&gt;apache&#45;commons&#45;daemon -->
<g id="edge30" class="edge">
<title>tomcat&#45;&gt;apache&#45;commons&#45;daemon</title>
<path fill="none" stroke="#444444" stroke-opacity="0.333333" d="M238.1894,-616.5974C250.4024,-570.6117 282.3491,-450.322 296.8947,-395.5532"/>
<polygon fill="#444444" fill-opacity="0.333333" stroke="#444444" stroke-opacity="0.333333" points="300.2961,-396.3811 299.4803,-385.8177 293.5306,-394.5843 300.2961,-396.3811"/>
</g>
<!-- tomcat&#45;&gt;apache&#45;commons&#45;dbcp -->
<g id="edge31" class="edge">
<title>tomcat&#45;&gt;apache&#45;commons&#45;dbcp</title>
<path fill="none" stroke="#444444" stroke-opacity="0.333333" d="M263.4253,-616.7387C297.5324,-596.0909 353.1885,-562.3978 390.3904,-539.8764"/>
<polygon fill="#444444" fill-opacity="0.333333" stroke="#444444" stroke-opacity="0.333333" points="392.2192,-542.8607 398.9612,-534.6878 388.5941,-536.8725 392.2192,-542.8607"/>
</g>
<!-- tomcat&#45;&gt;apache&#45;commons&#45;pool -->
<g id="edge32" class="edge">
<title>tomcat&#45;&gt;apache&#45;commons&#45;pool</title>
<path fill="none" stroke="#444444" stroke-opacity="0.333333" d="M276.5521,-628.232C319.3649,-621.561 386.94,-611.0315 446.3877,-601.7684"/>
<polygon fill="#444444" fill-opacity="0.333333" stroke="#444444" stroke-opacity="0.333333" points="447.2753,-605.1724 456.6171,-600.1744 446.1975,-598.2558 447.2753,-605.1724"/>
</g>
<!-- tomcat&#45;&gt;apache&#45;commons&#45;logging -->
<g id="edge33" class="edge">
<title>tomcat&#45;&gt;apache&#45;commons&#45;logging</title>
<path fill="none" stroke="#444444" stroke-opacity="0.333333" d="M222.8962,-616.7194C204.4093,-584.3206 165.7749,-516.6126 144.1661,-478.7423"/>
<polygon fill="#444444" fill-opacity="0.333333" stroke="#444444" stroke-opacity="0.333333" points="147.0577,-476.7477 139.0617,-469.7968 140.9778,-480.2169 147.0577,-476.7477"/>
</g>
<!-- tomcat&#45;&gt;tomcat&#45;lib -->
<g id="edge34" class="edge">
<title>tomcat&#45;&gt;tomcat&#45;lib</title>
<path fill="none" stroke="#444444" stroke-opacity="0.333333" d="M244.9617,-653.1721C272.0733,-695.5255 339.4879,-800.8396 371.2555,-850.4664"/>
<polygon fill="#444444" fill-opacity="0.333333" stroke="#444444" stroke-opacity="0.333333" points="368.4154,-852.5218 376.7546,-859.057 374.311,-848.7478 368.4154,-852.5218"/>
</g>
<!-- tomcat&#45;lib&#45;&gt;apache&#45;commons&#45;collections -->
<g id="edge35" class="edge">
<title>tomcat&#45;lib&#45;&gt;apache&#45;commons&#45;collections</title>
<path fill="none" stroke="#444444" stroke-opacity="0.333333" d="M323.7615,-868.2069C316.8433,-867.2497 309.6258,-866.2512 302.245,-865.23"/>
<polygon fill="#444444" fill-opacity="0.333333" stroke="#444444" stroke-opacity="0.333333" points="302.4771,-861.7289 292.0918,-863.8253 301.5177,-868.6628 302.4771,-861.7289"/>
</g>
<!-- tomcat&#45;lib&#45;&gt;java&#45;1.8.0&#45;openjdk&#45;headless -->
<g id="edge36" class="edge">
<title>tomcat&#45;lib&#45;&gt;java&#45;1.8.0&#45;openjdk&#45;headless</title>
<path fill="none" stroke="#444444" stroke-opacity="0.333333" d="M431.9933,-859.0383C448.0524,-852.3806 466.4199,-844.7659 483.2327,-837.7957"/>
<polygon fill="#444444" fill-opacity="0.333333" stroke="#444444" stroke-opacity="0.333333" points="485.0257,-840.8413 492.9229,-833.7784 482.3449,-834.375 485.0257,-840.8413"/>
</g>
<!-- tomcat&#45;lib&#45;&gt;javapackages&#45;tools -->
<g id="edge37" class="edge">
<title>tomcat&#45;lib&#45;&gt;javapackages&#45;tools</title>
<path fill="none" stroke="#444444" stroke-opacity="0.333333" d="M386.4218,-858.9793C383.9954,-835.8874 379.7797,-795.7664 376.9309,-768.6546"/>
<polygon fill="#444444" fill-opacity="0.333333" stroke="#444444" stroke-opacity="0.333333" points="380.402,-768.1953 375.8761,-758.6158 373.4404,-768.9268 380.402,-768.1953"/>
</g>
<!-- tomcat&#45;lib&#45;&gt;apache&#45;commons&#45;dbcp -->
<g id="edge38" class="edge">
<title>tomcat&#45;lib&#45;&gt;apache&#45;commons&#45;dbcp</title>
<path fill="none" stroke="#444444" stroke-opacity="0.333333" d="M390.392,-858.7666C396.9937,-799.9437 417.6409,-615.9718 425.6089,-544.9748"/>
<polygon fill="#444444" fill-opacity="0.333333" stroke="#444444" stroke-opacity="0.333333" points="429.0949,-545.2944 426.7321,-534.9664 422.1386,-544.5136 429.0949,-545.2944"/>
</g>
<!-- tomcat&#45;lib&#45;&gt;apache&#45;commons&#45;pool -->
<g id="edge39" class="edge">
<title>tomcat&#45;lib&#45;&gt;apache&#45;commons&#45;pool</title>
<path fill="none" stroke="#444444" stroke-opacity="0.333333" d="M399.653,-858.7158C430.5826,-808.3887 516.6031,-668.4207 552.8743,-609.4021"/>
<polygon fill="#444444" fill-opacity="0.333333" stroke="#444444" stroke-opacity="0.333333" points="555.9983,-611.0034 558.2524,-600.6511 550.0345,-607.3382 555.9983,-611.0034"/>
</g>
<!-- tomcat&#45;lib&#45;&gt;ecj -->
<g id="edge40" class="edge">
<title>tomcat&#45;lib&#45;&gt;ecj</title>
<path fill="none" stroke="#444444" stroke-opacity="0.333333" d="M334.8155,-859.079C261.4218,-834.3087 131.4162,-790.4321 67.8919,-768.9928"/>
<polygon fill="#444444" fill-opacity="0.333333" stroke="#444444" stroke-opacity="0.333333" points="68.8805,-765.6325 58.2863,-765.7509 66.642,-772.265 68.8805,-765.6325"/>
</g>
<!-- tomcat&#45;lib&#45;&gt;tomcat&#45;el&#45;3.0&#45;api -->
<g id="edge41" class="edge">
<title>tomcat&#45;lib&#45;&gt;tomcat&#45;el&#45;3.0&#45;api</title>
<path fill="none" stroke="#444444" stroke-opacity="0.333333" d="M410.4,-895.2554C463.4117,-938.7683 597.9879,-1049.2308 658.3579,-1098.7835"/>
<polygon fill="#444444" fill-opacity="0.333333" stroke="#444444" stroke-opacity="0.333333" points="656.4174,-1101.7188 666.3676,-1105.358 660.8586,-1096.308 656.4174,-1101.7188"/>
</g>
<!-- tomcat&#45;lib&#45;&gt;tomcat&#45;jsp&#45;2.3&#45;api -->
<g id="edge42" class="edge">
<title>tomcat&#45;lib&#45;&gt;tomcat&#45;jsp&#45;2.3&#45;api</title>
<path fill="none" stroke="#444444" stroke-opacity="0.333333" d="M436.0681,-895.1448C491.2277,-915.9487 581.9424,-950.1625 640.8728,-972.3886"/>
<polygon fill="#444444" fill-opacity="0.333333" stroke="#444444" stroke-opacity="0.333333" points="639.8159,-975.7306 650.4077,-975.9847 642.2862,-969.1809 639.8159,-975.7306"/>
</g>
<!-- tomcat&#45;lib&#45;&gt;tomcat&#45;servlet&#45;3.1&#45;api -->
<g id="edge43" class="edge">
<title>tomcat&#45;lib&#45;&gt;tomcat&#45;servlet&#45;3.1&#45;api</title>
<path fill="none" stroke="#444444" stroke-opacity="0.333333" d="M392.5496,-895.1662C403.0636,-940.0826 430.4902,-1057.2495 443.146,-1111.3159"/>
<polygon fill="#444444" fill-opacity="0.333333" stroke="#444444" stroke-opacity="0.333333" points="439.7837,-1112.3086 445.4709,-1121.2477 446.5995,-1110.7131 439.7837,-1112.3086"/>
</g>
<!-- tomcat&#45;el&#45;3.0&#45;api&#45;&gt;java&#45;1.8.0&#45;openjdk&#45;headless -->
<g id="edge44" class="edge">
<title>tomcat&#45;el&#45;3.0&#45;api&#45;&gt;java&#45;1.8.0&#45;openjdk&#45;headless</title>
<path fill="none" stroke="#444444" stroke-opacity="0.333333" d="M679.4205,-1105.1675C653.7688,-1053.2024 580.4728,-904.7194 550.0353,-843.059"/>
<polygon fill="#444444" fill-opacity="0.333333" stroke="#444444" stroke-opacity="0.333333" points="553.097,-841.3542 545.5321,-833.9364 546.8201,-844.4527 553.097,-841.3542"/>
</g>
<!-- tomcat&#45;el&#45;3.0&#45;api&#45;&gt;javapackages&#45;tools -->
<g id="edge45" class="edge">
<title>tomcat&#45;el&#45;3.0&#45;api&#45;&gt;javapackages&#45;tools</title>
<path fill="none" stroke="#444444" stroke-opacity="0.333333" d="M673.5121,-1105.2791C622.497,-1043.1351 455.2025,-839.3455 395.4285,-766.5319"/>
<polygon fill="#444444" fill-opacity="0.333333" stroke="#444444" stroke-opacity="0.333333" points="398.0598,-764.2209 389.0095,-758.7125 392.6493,-768.6625 398.0598,-764.2209"/>
</g>
<!-- tomcat&#45;jsp&#45;2.3&#45;api&#45;&gt;java&#45;1.8.0&#45;openjdk&#45;headless -->
<g id="edge46" class="edge">
<title>tomcat&#45;jsp&#45;2.3&#45;api&#45;&gt;java&#45;1.8.0&#45;openjdk&#45;headless</title>
<path fill="none" stroke="#444444" stroke-opacity="0.333333" d="M681.8085,-975.9314C653.0008,-944.1586 593.2065,-878.21 560.0144,-841.6016"/>
<polygon fill="#444444" fill-opacity="0.333333" stroke="#444444" stroke-opacity="0.333333" points="562.2747,-838.8838 552.9649,-833.8264 557.0889,-843.5857 562.2747,-838.8838"/>
</g>
<!-- tomcat&#45;jsp&#45;2.3&#45;api&#45;&gt;javapackages&#45;tools -->
<g id="edge47" class="edge">
<title>tomcat&#45;jsp&#45;2.3&#45;api&#45;&gt;javapackages&#45;tools</title>
<path fill="none" stroke="#444444" stroke-opacity="0.333333" d="M675.1414,-975.9729C618.095,-931.3495 470.2907,-815.7327 405.3485,-764.933"/>
<polygon fill="#444444" fill-opacity="0.333333" stroke="#444444" stroke-opacity="0.333333" points="407.1509,-761.8993 397.118,-758.4948 402.838,-767.4129 407.1509,-761.8993"/>
</g>
<!-- tomcat&#45;jsp&#45;2.3&#45;api&#45;&gt;tomcat&#45;el&#45;3.0&#45;api -->
<g id="edge48" class="edge">
<title>tomcat&#45;jsp&#45;2.3&#45;api&#45;&gt;tomcat&#45;el&#45;3.0&#45;api</title>
<path fill="none" stroke="#444444" stroke-opacity="0.333333" d="M696.8471,-1012.015C695.2296,-1033.5404 692.5032,-1069.8246 690.6016,-1095.1317"/>
<polygon fill="#444444" fill-opacity="0.333333" stroke="#444444" stroke-opacity="0.333333" points="687.102,-1094.9963 689.8428,-1105.2304 694.0823,-1095.5208 687.102,-1094.9963"/>
</g>
<!-- tomcat&#45;jsp&#45;2.3&#45;api&#45;&gt;tomcat&#45;servlet&#45;3.1&#45;api -->
<g id="edge49" class="edge">
<title>tomcat&#45;jsp&#45;2.3&#45;api&#45;&gt;tomcat&#45;servlet&#45;3.1&#45;api</title>
<path fill="none" stroke="#444444" stroke-opacity="0.333333" d="M667.2322,-1012.1298C622.2844,-1038.4296 538.9535,-1087.1879 489.5081,-1116.1193"/>
<polygon fill="#444444" fill-opacity="0.333333" stroke="#444444" stroke-opacity="0.333333" points="487.5503,-1113.2097 480.6868,-1121.2808 491.0855,-1119.2514 487.5503,-1113.2097"/>
</g>
<!-- tomcat&#45;servlet&#45;3.1&#45;api&#45;&gt;java&#45;1.8.0&#45;openjdk&#45;headless -->
<g id="edge50" class="edge">
<title>tomcat&#45;servlet&#45;3.1&#45;api&#45;&gt;java&#45;1.8.0&#45;openjdk&#45;headless</title>
<path fill="none" stroke="#444444" stroke-opacity="0.333333" d="M454.636,-1121.069C469.1098,-1067.0988 511.6399,-908.5109 529.01,-843.7407"/>
<polygon fill="#444444" fill-opacity="0.333333" stroke="#444444" stroke-opacity="0.333333" points="532.4581,-844.3953 531.6679,-833.8299 525.697,-842.582 532.4581,-844.3953"/>
</g>
<!-- tomcat&#45;servlet&#45;3.1&#45;api&#45;&gt;javapackages&#45;tools -->
<g id="edge51" class="edge">
<title>tomcat&#45;servlet&#45;3.1&#45;api&#45;&gt;javapackages&#45;tools</title>
<path fill="none" stroke="#444444" stroke-opacity="0.333333" d="M446.2679,-1121.2181C434.2139,-1057.7312 393.9376,-845.5998 379.3192,-768.6064"/>
<polygon fill="#444444" fill-opacity="0.333333" stroke="#444444" stroke-opacity="0.333333" points="382.7364,-767.8403 377.4324,-758.6687 375.8592,-769.1461 382.7364,-767.8403"/>
</g>
<!-- tomcatjss&#45;&gt;java&#45;1.8.0&#45;openjdk&#45;headless -->
<g id="edge52" class="edge">
<title>tomcatjss&#45;&gt;java&#45;1.8.0&#45;openjdk&#45;headless</title>
<path fill="none" stroke="#444444" stroke-opacity="0.333333" d="M140.7482,-994.2475C220.8916,-958.0927 400.2094,-877.1978 487.2512,-837.931"/>
<polygon fill="#444444" fill-opacity="0.333333" stroke="#444444" stroke-opacity="0.333333" points="488.713,-841.1112 496.3891,-833.8086 485.8344,-834.7305 488.713,-841.1112"/>
</g>
<!-- tomcatjss&#45;&gt;javapackages&#45;tools -->
<g id="edge53" class="edge">
<title>tomcatjss&#45;&gt;javapackages&#45;tools</title>
<path fill="none" stroke="#444444" stroke-opacity="0.333333" d="M118.8764,-994.1296C166.4537,-946.8011 293.7966,-820.1242 348.4587,-765.748"/>
<polygon fill="#444444" fill-opacity="0.333333" stroke="#444444" stroke-opacity="0.333333" points="351.0523,-768.1048 355.6735,-758.5709 346.1155,-763.142 351.0523,-768.1048"/>
</g>
<!-- tomcatjss&#45;&gt;apache&#45;commons&#45;lang -->
<g id="edge54" class="edge">
<title>tomcatjss&#45;&gt;apache&#45;commons&#45;lang</title>
<path fill="none" stroke="#444444" stroke-opacity="0.333333" d="M114.8333,-1030.6533C131.9074,-1052.4123 160.5652,-1088.9333 179.9826,-1113.6785"/>
<polygon fill="#444444" fill-opacity="0.333333" stroke="#444444" stroke-opacity="0.333333" points="177.2565,-1115.8741 186.1833,-1121.5805 182.7635,-1111.5528 177.2565,-1115.8741"/>
</g>
<!-- tomcatjss&#45;&gt;jss -->
<g id="edge55" class="edge">
<title>tomcatjss&#45;&gt;jss</title>
<path fill="none" stroke="#444444" stroke-opacity="0.333333" d="M103.9267,-1030.6043C113.7541,-1082.9661 142.148,-1234.2523 154.0168,-1297.4904"/>
<polygon fill="#444444" fill-opacity="0.333333" stroke="#444444" stroke-opacity="0.333333" points="150.6193,-1298.3627 155.9039,-1307.5454 157.4991,-1297.0714 150.6193,-1298.3627"/>
</g>
<!-- tomcatjss&#45;&gt;tomcat -->
<g id="edge56" class="edge">
<title>tomcatjss&#45;&gt;tomcat</title>
<path fill="none" stroke="#444444" stroke-opacity="0.333333" d="M106.9152,-994.1958C128.3911,-933.1592 197.9354,-735.5079 223.6422,-662.4468"/>
<polygon fill="#444444" fill-opacity="0.333333" stroke="#444444" stroke-opacity="0.333333" points="226.9515,-663.5864 226.969,-652.9916 220.3483,-661.263 226.9515,-663.5864"/>
</g>
<!-- apache&#45;commons&#45;collections -->
<g id="node1" class="node">
<title>apache&#45;commons&#45;collections</title>
<text text-anchor="middle" x="161.95" y="-842.12" font-family="monospace" font-size="14.00" fill="#000000">apache&#45;commons&#45;collections</text>
</g>
<!-- java&#45;1.8.0&#45;openjdk&#45;headless -->
<g id="node2" class="node">
<title>java&#45;1.8.0&#45;openjdk&#45;headless</title>
<text text-anchor="middle" x="536.53" y="-812" font-family="monospace" font-size="14.00" fill="#000000">java&#45;1.8.0&#45;openjdk&#45;headless</text>
</g>
<!-- javapackages&#45;tools -->
<g id="node3" class="node">
<title>javapackages&#45;tools</title>
<text text-anchor="middle" x="373.96" y="-736.68" font-family="monospace" font-size="14.00" fill="#000000">javapackages&#45;tools</text>
</g>
<!-- copy&#45;jdk&#45;configs -->
<g id="node4" class="node">
<title>copy&#45;jdk&#45;configs</title>
<text text-anchor="middle" x="1325.3" y="-1007.7" font-family="monospace" font-size="14.00" fill="#000000">copy&#45;jdk&#45;configs</text>
</g>
<!-- freetype -->
<g id="node5" class="node">
<title>freetype</title>
<text text-anchor="middle" x="1027.2" y="-338.41" font-family="monospace" font-size="14.00" fill="#000000">freetype</text>
</g>
<!-- tzdata&#45;java -->
<g id="node6" class="node">
<title>tzdata&#45;java</title>
<text text-anchor="middle" x="1050.1" y="-826.75" font-family="monospace" font-size="14.00" fill="#000000">tzdata&#45;java</text>
</g>
<!-- which -->
<g id="node7" class="node">
<title>which</title>
<text text-anchor="middle" x="646.78" y="-203.89" font-family="monospace" font-size="14.00" fill="#000000">which</text>
</g>
<!-- lua -->
<g id="node8" class="node">
<title>lua</title>
<text text-anchor="middle" x="1687.1" y="-1143.9" font-family="monospace" font-size="14.00" fill="#000000">lua</text>
</g>
<!-- lua&#45;posix -->
<g id="node9" class="node">
<title>lua&#45;posix</title>
<text text-anchor="middle" x="1834.4" y="-1032.7" font-family="monospace" font-size="14.00" fill="#000000">lua&#45;posix</text>
</g>
<!-- libpng -->
<g id="node10" class="node">
<title>libpng</title>
<text text-anchor="middle" x="1304.4" y="-14.3" font-family="monospace" font-size="14.00" fill="#000000">libpng</text>
</g>
<!-- apache&#45;commons&#45;daemon -->
<g id="node11" class="node">
<title>apache&#45;commons&#45;daemon</title>
<text text-anchor="middle" x="304.3" y="-363.97" font-family="monospace" font-size="14.00" fill="#000000">apache&#45;commons&#45;daemon</text>
</g>
<!-- apache&#45;commons&#45;dbcp -->
<g id="node12" class="node">
<title>apache&#45;commons&#45;dbcp</title>
<text text-anchor="middle" x="428.79" y="-512.93" font-family="monospace" font-size="14.00" fill="#000000">apache&#45;commons&#45;dbcp</text>
</g>
<!-- apache&#45;commons&#45;pool -->
<g id="node13" class="node">
<title>apache&#45;commons&#45;pool</title>
<text text-anchor="middle" x="569.34" y="-578.91" font-family="monospace" font-size="14.00" fill="#000000">apache&#45;commons&#45;pool</text>
</g>
<!-- apache&#45;commons&#45;lang -->
<g id="node14" class="node">
<title>apache&#45;commons&#45;lang</title>
<text text-anchor="middle" x="200.48" y="-1136.1" font-family="monospace" font-size="14.00" fill="#000000">apache&#45;commons&#45;lang</text>
</g>
<!-- apache&#45;commons&#45;logging -->
<g id="node15" class="node">
<title>apache&#45;commons&#45;logging</title>
<text text-anchor="middle" x="128.69" y="-447.92" font-family="monospace" font-size="14.00" fill="#000000">apache&#45;commons&#45;logging</text>
</g>
<!-- ecj -->
<g id="node16" class="node">
<title>ecj</title>
<text text-anchor="middle" x="30.876" y="-752.8" font-family="monospace" font-size="14.00" fill="#000000">ecj</text>
</g>
<!-- jss -->
<g id="node17" class="node">
<title>jss</title>
<text text-anchor="middle" x="159.33" y="-1322.1" font-family="monospace" font-size="14.00" fill="#000000">jss</text>
</g>
<!-- tomcat -->
<g id="node18" class="node">
<title>tomcat</title>
<text text-anchor="middle" x="233.31" y="-631.27" font-family="monospace" font-size="14.00" fill="#000000">tomcat</text>
</g>
<!-- tomcat&#45;lib -->
<g id="node19" class="node">
<title>tomcat&#45;lib</title>
<text text-anchor="middle" x="388.33" y="-873.44" font-family="monospace" font-size="14.00" fill="#000000">tomcat&#45;lib</text>
</g>
<!-- tomcat&#45;el&#45;3.0&#45;api -->
<g id="node20" class="node">
<title>tomcat&#45;el&#45;3.0&#45;api</title>
<text text-anchor="middle" x="688.47" y="-1119.8" font-family="monospace" font-size="14.00" fill="#000000">tomcat&#45;el&#45;3.0&#45;api</text>
</g>
<!-- tomcat&#45;jsp&#45;2.3&#45;api -->
<g id="node21" class="node">
<title>tomcat&#45;jsp&#45;2.3&#45;api</title>
<text text-anchor="middle" x="698.2" y="-990.31" font-family="monospace" font-size="14.00" fill="#000000">tomcat&#45;jsp&#45;2.3&#45;api</text>
</g>
<!-- tomcat&#45;servlet&#45;3.1&#45;api -->
<g id="node22" class="node">
<title>tomcat&#45;servlet&#45;3.1&#45;api</title>
<text text-anchor="middle" x="449.72" y="-1135.7" font-family="monospace" font-size="14.00" fill="#000000">tomcat&#45;servlet&#45;3.1&#45;api</text>
</g>
<!-- tomcatjss -->
<g id="node23" class="node">
<title>tomcatjss</title>
<text text-anchor="middle" x="100.51" y="-1008.7" font-family="monospace" font-size="14.00" fill="#000000">tomcatjss</text>
</g>
</g>
</svg>
