<?xml version="1.0" encoding="UTF-8" standalone="no"?>
<!DOCTYPE svg PUBLIC "-//W3C//DTD SVG 1.1//EN"
 "http://www.w3.org/Graphics/SVG/1.1/DTD/svg11.dtd">
<!-- Generated by graphviz version 2.40.1 (20161225.0304)
 -->
<!-- Title: G Pages: 1 -->
<svg width="1817pt" height="1405pt"
 viewBox="0.00 0.00 1817.02 1404.82" xmlns="http://www.w3.org/2000/svg" xmlns:xlink="http://www.w3.org/1999/xlink">
<g id="graph0" class="graph" transform="scale(1 1) rotate(0) translate(100.6438 1263.4791)">
<title>G</title>
<polygon fill="#dae2ff" stroke="transparent" points="-100.6438,141.3456 -100.6438,-1263.4791 1716.3756,-1263.4791 1716.3756,141.3456 -100.6438,141.3456"/>
<polygon fill="#bbd7d9" stroke="#bbd7d9" points="546.5291,-598.2489 547.9141,-596.6109 552.3275,-594.0688 555.5336,-570.801 555.2792,-536.9019 546.0939,-536.7043 545.5386,-536.7223 545.2234,-536.7495 543.1106,-536.823 538.7851,-536.7509 536.8723,-536.6202 535.2573,-536.5972 527.282,-536.9138 524.2546,-536.8777 519.7372,-537.0665 518.2136,-537.2117 508.9809,-538.5892 494.1518,-542.4064 493.4701,-542.6176 491.554,-543.3143 477.339,-549.2667 473.4841,-551.0815 473.0127,-551.3539 470.5804,-577.4175 470.7683,-598.38 469.4842,-607.1631 459.2265,-717.0815 435.8486,-731.0859 426.6722,-783.709 426.5563,-784.6472 423.4927,-815.793 419.1547,-844.8185 546.1713,-830.9248 549.7992,-827.1945 551.1104,-826.6797 552.6022,-825.32 557.6044,-825.32 557.8776,-825.2278 563.3625,-825.2278 563.7663,-825.7756 569.9781,-829.9598 575.3527,-829.9598 575.3527,-829.9598 569.9781,-829.9598 563.7663,-825.7756 563.3625,-825.2278 557.8776,-825.2278 557.6044,-825.32 552.6022,-825.32 551.1104,-826.6797 549.7992,-827.1945 546.1713,-830.9248 419.1547,-844.8185 399.5433,-957.2819 473.0418,-1009.9307 484.3657,-1016.4197 533.6818,-1020.2014 561.4417,-1022.7753 580.328,-1025.7312 582.6208,-1026.1631 594.4719,-1035.8865 624.8807,-1111 641.5571,-1160.8818 684.882,-1234.6157 713.2165,-1250.2416 769.4016,-1259.4791 770.4781,-1259.2369 772.827,-1117.699 772.827,-1117.699 770.4781,-1259.2369 780.4734,-1257.2131 792.3785,-1255.3414 800.7488,-1254.2157 824.3492,-1252.6447 828.1423,-1252.4785 919.792,-1203.4335 935.3549,-1181.7644 943.7411,-1133.943 960.4505,-1059.7781 964.9604,-1041.5682 972.7872,-1034.7202 1017.8367,-1026.9526 1040.8633,-1023.9238 1045.7297,-1023.5847 1061.1631,-1022.8261 1061.4996,-933.5059 1060.7513,-919.2014 1061.9031,-873.0165 1062.1707,-872.6633 1055.8936,-868.4302 1055.9402,-820.5217 1053.8065,-788.2213 1053.1389,-764.1513 1043.7512,-764.7171 1041.067,-764.7217 1035.3019,-764.8894 1021.3912,-764.8852 1023.1729,-831.6949 1027.7366,-870.7402 1027.7366,-870.7402 1023.1729,-831.6949 1021.3912,-764.8852 1035.3019,-764.8894 1041.067,-764.7217 1043.7512,-764.7171 1053.1389,-764.1513 1053.8065,-788.2213 1055.9402,-820.5217 1055.8936,-868.4302 1062.1707,-872.6633 1061.9031,-873.0165 1060.7513,-919.2014 1061.4996,-933.5059 1061.1631,-1022.8261 1082.2605,-1023.092 1082.7345,-1022.9139 1082.5687,-1016.5239 1082.1199,-914.3051 1082.1199,-914.3051 1082.5687,-1016.5239 1082.7345,-1022.9139 1117.8069,-1012.1506 1227.6818,-933.7678 1214.213,-883.3929 1213.4763,-882.6121 1211.6582,-880.5901 1205.6422,-874.4996 1198.9126,-868.014 1097.3483,-758.9661 1094.3529,-756.0981 1108.0364,-727.2747 1126.4344,-685.0986 1141.8916,-652.6454 1134.6989,-641.7708 1099.7949,-581.322 1088.2782,-562.8427 1096.9824,-533.5147 1106.6429,-490.97 1123.1743,-440.4724 1057.5265,-393.0626 1015.6708,-391.6299 1010.4293,-391.6219 1003.8566,-391.3965 1001.1715,-488.9117 1000.4306,-490.1349 999.425,-490.94 1001.1458,-493.641 1003.9007,-573.7458 1007.6301,-573.7818 1005.4723,-652.2245 1000.5359,-655.0337 998.9661,-656.866 999.0956,-657.0179 1005.9302,-661.3515 1010.757,-661.3515 1010.757,-661.3515 1005.9302,-661.3515 999.0956,-657.0179 998.9661,-656.866 995.5687,-656.866 991.2202,-708.6506 989.1062,-658.2975 984.0073,-662.8954 984.6055,-767.6398 910.3742,-781.4852 934.5834,-872.73 940.7885,-913.1948 872.8594,-912.5309 854.6188,-908.9324 849.6725,-912.5272 844.9885,-867.9452 843.0743,-915.4407 843.2985,-915.5132 843.2985,-915.5132 843.0743,-915.4407 838.2348,-915.4407 837.9654,-915.3533 837.9654,-915.3533 838.2348,-915.4407 843.0743,-915.4407 844.9885,-867.9452 849.6725,-912.5272 854.6188,-908.9324 872.8594,-912.5309 940.7885,-913.1948 934.5834,-872.73 910.3742,-781.4852 984.6055,-767.6398 984.0073,-662.8954 989.1062,-658.2975 991.2202,-708.6506 995.5687,-656.866 998.9661,-656.866 1000.5359,-655.0337 1005.4723,-652.2245 1007.6301,-573.7818 1003.9007,-573.7458 1001.1458,-493.641 999.425,-490.94 1000.4306,-490.1349 1001.1715,-488.9117 1003.8566,-391.3965 1001.5084,-391.2389 1001.1404,-391.2263 995.8599,-391.3913 991.5101,-391.6705 986.5712,-391.6629 983.4761,-486.2538 978.2291,-486.2538 971.1354,-491.058 971.277,-491.2373 977.4652,-495.3055 977.4652,-495.3055 971.277,-491.2373 971.1354,-491.058 978.2291,-486.2538 983.4761,-486.2538 986.5712,-391.6629 991.5101,-391.6705 995.8599,-391.3913 1001.1404,-391.2263 1001.5084,-391.2389 1003.8566,-391.3965 1010.4293,-391.6219 1015.6708,-391.6299 1057.5265,-393.0626 1069.4019,-324.247 1071.5006,-292.13 1072.8301,-286.3808 1091.2043,-179.9053 1023.9413,-158.5712 999.2783,-150.0981 994.3508,-148.156 984.7961,-143.8976 977.3141,-140.3705 968.2949,-135.6519 960.092,-134.9592 956.5622,-134.5899 852.7814,-121.6383 838.6003,-136.6966 829.959,-188.835 817.8036,-272.5229 817.3319,-277.1915 826.158,-285.8248 829.3456,-422.9018 823.9006,-421.1914 817.809,-423.2324 814.7746,-426.2807 817.4861,-428.8645 817.4861,-428.8645 814.7746,-426.2807 817.809,-423.2324 823.9006,-421.1914 829.3456,-422.9018 826.158,-285.8248 817.3319,-277.1915 815.6865,-278.6882 807.6262,-285.1595 799.4877,-291.1349 781.3573,-303.8244 781.0891,-303.9927 670.4944,-369.5637 664.8475,-373.3096 661.255,-375.8212 655.2021,-380.2727 661.2186,-406.1675 661.7367,-408.6987 670.933,-460.6729 673.0619,-475.14 674.9243,-483.1558 649.8282,-523.0521 652.0278,-577.4584 653.3149,-592.74 679.7786,-592.74 700.4396,-594.1885 725.1934,-599.2361 730.2874,-595.4756 733.4991,-626.9887 737.9376,-592.8158 737.0056,-592.5121 731.8915,-592.5121 731.5391,-592.2076 730.6657,-590.6597 730.6657,-590.6597 731.5391,-592.2076 731.8915,-592.5121 737.0056,-592.5121 737.9376,-592.8158 733.4991,-626.9887 732.8658,-672.2825 743.0085,-680.9383 742.5766,-593.0618 745.2413,-593.0618 747.5526,-595.219 747.5526,-595.219 745.2413,-593.0618 742.5766,-593.0618 743.0085,-680.9383 732.8658,-672.2825 733.4991,-626.9887 730.2874,-595.4756 725.1934,-599.2361 700.4396,-594.1885 679.7786,-592.74 653.3149,-592.74 652.0278,-577.4584 649.8282,-523.0521 582.4312,-535.1129 571.8902,-536.462 568.7488,-536.702 560.3931,-536.4831 555.2792,-536.9019 555.5336,-570.801 552.3275,-594.0688 547.9141,-596.6109 546.5291,-598.2489 547.0844,-598.9251 553.6137,-603.0523 558.2499,-603.0523 560.0071,-671.9647 546.9132,-682.4829 542.3741,-686.6992 624.699,-693.3017 627.7528,-636.6219 628.2954,-636.3259 633.3112,-633.2073 649.2305,-622.0742 648.8259,-631.4863 642.8659,-693.981 637.5159,-695.7271 634.2314,-699.0905 637.4346,-702.3414 642.9385,-704.1392 649.3891,-701.9209 652.1465,-699.0797 655.3171,-699.0797 655.5733,-699.5875 661.6481,-705.2925 661.3232,-771.8648 728.7841,-721.7574 729.0534,-750.11 726.2134,-789.869 732.5942,-796.2217 733.0795,-796.2217 728.5313,-857.0016 738.0042,-856.0989 743.6262,-855.8976 748.0906,-908.9865 733.1194,-911.2568 656.7687,-903.6854 633.183,-943.4471 747.642,-920.746 750.4785,-917.3322 754.1404,-915.8522 754.6281,-915.436 758.4832,-915.436 764.949,-1008.9495 765.0976,-1013.0858 768.4121,-1013.0439 771.1138,-962.4882 770.1631,-915.2762 770.1631,-915.2762 771.1138,-962.4882 768.4121,-1013.0439 765.0976,-1013.0858 764.949,-1008.9495 758.4832,-915.436 754.6281,-915.436 754.1404,-915.8522 750.4785,-917.3322 747.642,-920.746 633.183,-943.4471 656.7687,-903.6854 733.1194,-911.2568 748.0906,-908.9865 743.6262,-855.8976 738.0042,-856.0989 728.5313,-857.0016 733.0795,-796.2217 732.5942,-796.2217 726.2134,-789.869 729.0534,-750.11 728.7841,-721.7574 661.3232,-771.8648 661.6481,-705.2925 655.5733,-699.5875 655.3171,-699.0797 652.1465,-699.0797 649.3891,-701.9209 642.9385,-704.1392 637.4346,-702.3414 634.2314,-699.0905 637.5159,-695.7271 642.8659,-693.981 648.8259,-631.4863 649.2305,-622.0742 633.3112,-633.2073 628.2954,-636.3259 627.7528,-636.6219 624.699,-693.3017 542.3741,-686.6992 546.9132,-682.4829 560.0071,-671.9647 558.2499,-603.0523 553.6137,-603.0523 547.0844,-598.9251 546.5291,-598.2489 546.5291,-598.2489"/>
<polygon fill="#fed9a6" stroke="#fed9a6" points="1451.1025,-365.6858 1454.5656,-365.6858 1455.0494,-365.8344 1459.5234,-365.8344 1460.9397,-364.0895 1457.2275,-313.5015 1457.1084,-302.8504 1446.7892,-312.7296 1446.8202,-323.0462 1446.8202,-323.0462 1446.7892,-312.7296 1439.0695,-318.4985 1398.2949,-307.2079 1396.1777,-304.6084 1392.4417,-303.0429 1391.5469,-302.2358 1391.298,-302.1536 1388.0549,-302.1536 1387.316,-302.4003 1380.8503,-302.4003 1379.6475,-300.7272 1375.1483,-297.8743 1368.948,-297.8743 1368.948,-297.8743 1375.1483,-297.8743 1379.6475,-300.7272 1380.8503,-302.4003 1387.316,-302.4003 1388.0549,-302.1536 1391.298,-302.1536 1391.5469,-302.2358 1392.4417,-303.0429 1396.1777,-304.6084 1398.2949,-307.2079 1439.0695,-318.4985 1446.7892,-312.7296 1457.1084,-302.8504 1457.2275,-313.5015 1460.9397,-364.0895 1465.8296,-361.2076 1471.4036,-361.2076 1475.6709,-363.6512 1479.6714,-333.624 1480.6454,-275.3912 1492.2299,-260.1371 1513.7515,-228.2493 1473.0115,-188.0501 1414.052,-163.964 1400.85,-161.3612 1381.8219,-156.7139 1366.6655,-152.3071 1350.994,-146.2847 1350.1173,-146.5487 1335.1028,-150.7399 1324.8627,-153.3703 1281.9501,-169.3434 1244.8344,-169.1802 1241.8196,-247.347 1241.8196,-247.347 1244.8344,-169.1802 1223.4471,-168.1789 1218.6622,-167.6511 1216.8112,-168.2195 1204.0316,-171.8519 1186.0645,-175.7199 1183.7854,-176.1576 1186.2786,-306.2468 1180.874,-307.9347 1177.2832,-311.4189 1180.286,-314.2052 1180.286,-314.2052 1177.2832,-311.4189 1180.874,-307.9347 1186.2786,-306.2468 1183.7854,-176.1576 1178.1932,-177.1025 1169.4797,-178.1743 1167.9164,-242.8311 1163.0377,-310.896 1158.7156,-310.896 1149.4305,-190.8169 1149.0588,-183.6662 1148.2053,-203.4911 1148.2053,-203.4911 1149.0588,-183.6662 1149.4305,-190.8169 1158.7156,-310.896 1163.0377,-310.896 1167.9164,-242.8311 1169.4797,-178.1743 1149.0414,-179.7499 1133.5319,-179.5172 1126.847,-179.2632 1104.5499,-177.9037 1091.2043,-179.9053 1072.8301,-286.3808 1071.5006,-292.13 1069.4019,-324.247 1057.5265,-393.0626 1123.1743,-440.4724 1106.6429,-490.97 1096.9824,-533.5147 1088.2782,-562.8427 1099.7949,-581.322 1134.6989,-641.7708 1141.8916,-652.6454 1126.4344,-685.0986 1108.0364,-727.2747 1094.3529,-756.0981 1097.3483,-758.9661 1198.9126,-868.014 1205.6422,-874.4996 1211.6582,-880.5901 1213.4763,-882.6121 1214.213,-883.3929 1227.6818,-933.7678 1273.7942,-949.7585 1325.019,-944.2903 1343.4889,-943.2509 1356.8556,-943.1758 1355.9124,-896.1349 1350.7166,-810.5543 1345.2371,-814.2751 1338.2292,-814.2751 1333.3868,-811.0466 1332.9468,-810.4046 1328.8062,-811.9791 1325.9003,-815.5349 1257.7095,-822.1672 1253.8402,-826.069 1254.2031,-796.3621 1258.3284,-747.9073 1258.2347,-747.8762 1258.2347,-747.8762 1258.3284,-747.9073 1254.2031,-796.3621 1253.8402,-826.069 1257.7095,-822.1672 1325.9003,-815.5349 1328.8062,-811.9791 1332.9468,-810.4046 1333.1296,-809.3702 1332.4865,-808.1897 1325.9991,-803.1923 1315.384,-806.4962 1275.2905,-804.5464 1270.6372,-808.7257 1270.6372,-808.7257 1275.2905,-804.5464 1315.384,-806.4962 1325.9991,-803.1923 1332.4865,-808.1897 1333.1296,-809.3702 1332.9468,-810.4046 1333.3868,-811.0466 1338.2292,-814.2751 1345.2371,-814.2751 1350.7166,-810.5543 1355.9124,-896.1349 1356.8556,-943.1758 1388.3142,-944.5898 1476.0608,-907.6456 1496.6395,-881.4591 1564.8578,-857.937 1629.4183,-764.7324 1628.2225,-744.7406 1627.3318,-679.0294 1627.3632,-675.7996 1682.3207,-610.6178 1702.6206,-568.072 1572.4719,-550.2583 1562.7231,-553.0368 1562.4197,-641.8649 1562.6069,-647.9336 1556.2917,-645.6827 1491.7699,-661.7692 1488.3818,-662.4094 1484.459,-662.9169 1480.8792,-663.1672 1471.7003,-663.2617 1469.7179,-663.3925 1464.9254,-663.4202 1463.9833,-604.358 1458.9666,-604.358 1457.1641,-563.7624 1451.8319,-603.9831 1448.7218,-603.9831 1442.041,-557.7555 1442.041,-557.7555 1448.7218,-603.9831 1451.8319,-603.9831 1457.1641,-563.7624 1458.9666,-604.358 1463.9833,-604.358 1464.9254,-663.4202 1469.7179,-663.3925 1471.7003,-663.2617 1480.8792,-663.1672 1484.459,-662.9169 1488.3818,-662.4094 1491.7699,-661.7692 1556.2917,-645.6827 1551.4675,-638.8381 1542.0684,-626.4631 1538.9501,-621.9637 1530.1045,-611.3525 1520.7095,-602.2281 1520.4218,-601.9818 1465.3009,-604.5543 1464.7343,-604.2437 1469.6514,-598.8036 1469.6514,-598.8036 1464.7343,-604.2437 1465.3009,-604.5543 1520.4218,-601.9818 1520.7095,-602.2281 1530.1045,-611.3525 1530.1066,-609.8933 1526.7635,-546.2845 1533.3794,-550.8703 1538.9684,-550.8703 1545.3163,-546.5746 1544.6233,-545.6328 1538.7858,-541.7802 1533.3318,-541.7802 1533.3318,-541.7802 1538.7858,-541.7802 1544.6233,-545.6328 1545.3163,-546.5746 1538.9684,-550.8703 1533.3794,-550.8703 1526.7635,-546.2845 1530.1066,-609.8933 1530.1045,-611.3525 1538.9501,-621.9637 1542.0684,-626.4631 1551.4675,-638.8381 1556.2917,-645.6827 1562.6069,-647.9336 1562.4197,-641.8649 1562.7231,-553.0368 1572.4719,-550.2583 1702.6206,-568.072 1706.7654,-560.2869 1710.9248,-536.2 1712.3756,-524.0766 1701.4163,-503.5058 1701.2837,-503.243 1624.6763,-415.5027 1624.5349,-387.8291 1625.9464,-353.9748 1615.146,-324.5296 1591.4625,-254.5435 1513.7515,-228.2493 1492.2299,-260.1371 1480.6454,-275.3912 1479.6714,-333.624 1475.6709,-363.6512 1471.4036,-361.2076 1465.8296,-361.2076 1460.9397,-364.0895 1459.5234,-365.8344 1455.0494,-365.8344 1454.5656,-365.6858 1451.1025,-365.6858 1449.2262,-367.2338 1446.5435,-368.1982 1444.2886,-370.81 1403.7651,-381.9875 1401.5774,-380.4936 1398.9143,-378.3826 1387.1281,-367.6593 1390.9427,-429.225 1390.9789,-429.2365 1395.4749,-429.2365 1395.9592,-429.3901 1396.9889,-504.536 1396.632,-516.6644 1406.1992,-516.9368 1406.012,-548.8082 1402.5925,-600.678 1406.5507,-604.3946 1403.8375,-606.8143 1403.8375,-606.8143 1406.5507,-604.3946 1402.5925,-600.678 1397.681,-599.2017 1392.0382,-516.8683 1390.7882,-516.8793 1385.5471,-516.7399 1385.4462,-520.6075 1380.1694,-603.9123 1381.3854,-604.3026 1377.0844,-660.1191 1374.804,-604.1957 1369.8013,-604.1957 1369.7408,-604.1764 1368.8314,-549.2228 1363.1105,-604.0947 1359.4424,-604.0947 1355.827,-570.957 1356.1252,-516.8769 1344.9044,-516.6452 1344.2374,-517.6287 1344.4637,-569.6454 1344.4637,-569.6454 1344.2374,-517.6287 1334.6512,-529.7836 1334.6512,-529.7836 1344.2374,-517.6287 1344.9044,-516.6452 1356.1252,-516.8769 1355.827,-570.957 1359.4424,-604.0947 1363.1105,-604.0947 1368.8314,-549.2228 1369.7408,-604.1764 1369.8013,-604.1957 1374.804,-604.1957 1377.0844,-660.1191 1381.3854,-604.3026 1380.1694,-603.9123 1385.4462,-520.6075 1385.5471,-516.7399 1390.7882,-516.8793 1392.0382,-516.8683 1397.681,-599.2017 1402.5925,-600.678 1406.012,-548.8082 1406.1992,-516.9368 1396.632,-516.6644 1396.9889,-504.536 1395.9592,-429.3901 1395.4749,-429.2365 1390.9789,-429.2365 1390.9427,-429.225 1387.1281,-367.6593 1398.9143,-378.3826 1401.5774,-380.4936 1403.7651,-381.9875 1444.2886,-370.81 1446.5435,-368.1982 1449.2262,-367.2338 1451.1025,-365.6858 1451.1025,-365.6858"/>
<polygon fill="#d8d6da" stroke="#d8d6da" points="526.7173,28.7572 542.7849,5.6104 543.5763,4.5793 553.4654,-7.0839 553.9477,-7.5872 557.856,-11.1934 560.0466,-13.5279 563.2994,-16.5342 569.2816,-23.0651 569.2816,-23.0651 563.2994,-16.5342 560.0466,-13.5279 557.856,-11.1934 602.6279,-12.0613 592.7542,120.4807 610.6824,124.8416 619.4279,127.1684 628.092,129.8681 639.6067,133.9836 640.5441,86.4276 648.637,-15.0418 642.5672,-13.1065 636.351,-15.1365 633.257,-18.0575 631.6898,-18.0575 631.6331,-18.0393 631.6331,-18.0393 631.6898,-18.0575 633.257,-18.0575 636.1466,-20.7515 636.1466,-20.7515 633.257,-18.0575 636.351,-15.1365 642.5672,-13.1065 648.637,-15.0418 640.5441,86.4276 639.6067,133.9836 639.6399,133.9978 651.3181,137.3456 656.464,135.0336 666.6625,130.9314 677.4387,126.8512 684.5356,124.501 760.7961,101.0471 771.441,92.6029 798.2152,45.6058 807.7266,12.462 822.5327,-34.7177 852.1684,-116.4171 852.7814,-121.6383 838.6003,-136.6966 829.959,-188.835 817.8036,-272.5229 817.3319,-277.1915 815.6865,-278.6882 807.6262,-285.1595 799.4877,-291.1349 781.3573,-303.8244 781.0891,-303.9927 670.4944,-369.5637 664.8475,-373.3096 661.255,-375.8212 655.2021,-380.2727 653.9656,-379.7343 646.9993,-376.8909 627.5223,-370.0024 619.3423,-367.7874 610.3235,-365.5923 562.4189,-356.559 560.0022,-356.0385 545.0682,-352.4186 541.2924,-351.4033 541.1545,-351.3626 518.92,-343.5852 509.2146,-339.4171 499.157,-334.8297 494.5499,-332.3584 477.2606,-322.6078 471.6553,-319.2993 449.3525,-304.3368 421.0769,-284.6427 410.3874,-261.8377 352.3924,-234.1384 319.8159,-136.7573 313.8722,-87.3641 312.61,-78.6187 312.0317,-49.1839 309.4137,-9.6432 309.4711,-9.5572 326.1147,13.4046 355.6443,40.6665 401.002,75.3444 407.8831,75.5843 444.5969,71.6119 457.8293,70.48 460.1811,70.3856 470.9315,70.44 478.5753,70.8253 492.1351,71.8173 499.754,72.5471 504.1381,73.2656 517.9792,44.4286 511.0764,-58.4465 514.9201,-62.0251 511.6688,-65.0382 505.8847,-66.8656 505.8847,-66.8656 511.6688,-65.0382 514.9201,-62.0251 511.0764,-58.4465 517.9792,44.4286 504.1381,73.2656 569.1033,115.279 592.7542,120.4807 602.6279,-12.0613 557.856,-11.1934 553.9477,-7.5872 553.4654,-7.0839 543.5763,4.5793 542.7849,5.6104 526.7173,28.7572 528.2968,-1.1101 526.7173,28.7572"/>
<polygon fill="#fbb4ae" stroke="#fbb4ae" points="-96.6438,-724.4058 -83.8036,-696.7833 -66.6974,-657.7969 -45.221,-605.3896 53.0687,-608.5535 61.9874,-608.5159 64.1764,-528.4571 68.2294,-524.5999 69.4476,-524.2221 73.3507,-588.6797 73.5484,-608.607 81.1834,-608.6006 81.5116,-522.6166 86.7244,-522.6166 86.9492,-522.9041 93.3202,-527.078 98.6514,-527.078 105.3842,-522.6935 105.4325,-522.6338 105.2215,-522.3644 105.2215,-522.3644 105.4325,-522.6338 105.3842,-522.6935 98.6514,-527.078 93.3202,-527.078 86.9492,-522.9041 86.7244,-522.6166 81.5116,-522.6166 81.1834,-608.6006 73.5484,-608.607 73.3507,-588.6797 69.4476,-524.2221 68.2294,-524.5999 64.1764,-528.4571 61.9874,-608.5159 53.0687,-608.5535 -45.221,-605.3896 -64.5261,-529.8621 -67.6403,-518.787 -78.9867,-484.6235 12.3503,-382.9423 44.0498,-375.7997 129.8197,-280.9902 172.7265,-281.6064 195.0466,-281.4175 207.1281,-280.4878 224.0642,-278.4104 224.1905,-299.3514 228.6394,-374.4654 227.5313,-410.6893 222.0467,-414.2326 221.2022,-415.3281 221.7609,-416.0009 227.2847,-419.3843 233.413,-419.3843 233.413,-419.3843 227.2847,-419.3843 221.7609,-416.0009 221.2022,-415.3281 222.0467,-414.2326 227.5313,-410.6893 228.6394,-374.4654 224.1905,-299.3514 224.0642,-278.4104 242.6785,-274.4245 245.9363,-273.653 260.3031,-269.5921 255.7285,-414.595 251.5969,-414.595 251.5969,-414.595 255.7285,-414.595 260.3031,-269.5921 261.8546,-269.1184 271.241,-266.0386 276.8357,-264.0764 352.3924,-234.1384 410.3874,-261.8377 421.0769,-284.6427 449.3525,-304.3368 471.6553,-319.2993 477.2606,-322.6078 494.5499,-332.3584 499.157,-334.8297 509.2146,-339.4171 518.92,-343.5852 541.1545,-351.3626 541.2924,-351.4033 545.0682,-352.4186 560.0022,-356.0385 562.4189,-356.559 610.3235,-365.5923 619.3423,-367.7874 627.5223,-370.0024 646.9993,-376.8909 653.9656,-379.7343 655.2021,-380.2727 661.2186,-406.1675 661.7367,-408.6987 670.933,-460.6729 673.0619,-475.14 674.9243,-483.1558 649.8282,-523.0521 582.4312,-535.1129 571.8902,-536.462 568.7488,-536.702 560.3931,-536.4831 555.2792,-536.9019 546.0939,-536.7043 545.5386,-536.7223 545.2234,-536.7495 543.1106,-536.823 538.7851,-536.7509 536.8723,-536.6202 535.2573,-536.5972 527.282,-536.9138 524.2546,-536.8777 519.7372,-537.0665 518.2136,-537.2117 508.9809,-538.5892 494.1518,-542.4064 493.4701,-542.6176 491.554,-543.3143 477.339,-549.2667 473.4841,-551.0815 473.0127,-551.3539 470.5804,-577.4175 470.7683,-598.38 469.4842,-607.1631 459.2265,-717.0815 435.8486,-731.0859 426.6722,-783.709 426.5563,-784.6472 423.4927,-815.793 419.1547,-844.8185 399.5433,-957.2819 312.7982,-963.1734 289.0458,-965.1862 276.505,-967.0896 269.3826,-968.2902 258.9913,-970.2159 258.2723,-858.2203 258.2723,-858.2203 258.9913,-970.2159 250.3978,-972.2414 236.0306,-965.1409 236.9672,-931.3516 236.9672,-931.3516 236.0306,-965.1409 226.3746,-960.9507 218.5145,-957.8517 198.4807,-950.3493 118.3678,-888.5493 86.9454,-849.9891 84.1902,-845.6714 75.0088,-841.692 73.8844,-841.2583 57.8738,-835.458 -70.1524,-795.1834 -93.3098,-763.4665 -95.3495,-737.5239 59.0643,-700.115 57.9439,-833.1389 65.1294,-695.0263 69.6919,-695.0263 70.0354,-695.1322 75.697,-695.1322 76.569,-694.8591 80.4032,-694.8591 82.1922,-695.4285 86.1414,-695.4285 90.2399,-731.1874 93.5885,-695.2298 97.8503,-695.2298 101.0312,-748.495 104.5159,-696.635 109.0461,-699.3399 115.2466,-699.3399 121.0193,-695.6155 119.1392,-800.0057 128.9512,-789.9413 135.979,-784.02 143.1623,-776.4246 152.5206,-767.2725 164.5676,-757.4281 214.2179,-724.8984 225.3439,-716.6675 232.4792,-710.8273 235.3763,-708.2332 247.8542,-694.98 250.6601,-692.6053 257.9627,-685.9777 259.0428,-684.9327 202.8435,-616.7188 280.2841,-592.1951 277.4967,-685.6251 287.6112,-685.5965 293.1333,-685.9272 301.0175,-685.6436 296.4794,-587.6767 301.748,-587.6767 305.2265,-628.7656 308.7887,-587.6775 312.9853,-587.6775 318.1858,-657.0593 319.7449,-632.2283 326.0202,-587.5477 329.5591,-587.5477 329.924,-587.6616 335.2633,-587.6616 335.4569,-587.9005 341.5314,-591.7868 346.9928,-591.7868 348.0869,-635.9123 345.6234,-689.9272 364.2721,-695.0789 364.1224,-661.3337 365.1924,-633.5561 363.5234,-587.4397 364.1049,-587.2515 362.2668,-528.5069 363.2854,-486.8747 368.369,-491.329 384.0427,-503.3797 385.23,-504.2241 459.2459,-479.939 461.5463,-544.5626 463.0499,-545.3736 465.3233,-475.1617 465.3233,-475.1617 463.0499,-545.3736 461.5463,-544.5626 459.2459,-479.939 385.23,-504.2241 384.0427,-503.3797 368.369,-491.329 363.2854,-486.8747 362.2668,-528.5069 364.1049,-587.2515 363.5234,-587.4397 365.1924,-633.5561 364.1224,-661.3337 364.2721,-695.0789 345.6234,-689.9272 348.0869,-635.9123 346.9928,-591.7868 341.5314,-591.7868 335.4569,-587.9005 335.2633,-587.6616 329.924,-587.6616 329.5591,-587.5477 326.0202,-587.5477 319.7449,-632.2283 318.1858,-657.0593 312.9853,-587.6775 308.7887,-587.6775 305.2265,-628.7656 301.748,-587.6767 296.4794,-587.6767 301.0175,-685.6436 293.1333,-685.9272 287.6112,-685.5965 287.9119,-656.2789 287.9119,-656.2789 287.6112,-685.5965 277.4967,-685.6251 280.2841,-592.1951 202.8435,-616.7188 259.0428,-684.9327 257.9627,-685.9777 250.6601,-692.6053 247.8542,-694.98 235.3763,-708.2332 232.4792,-710.8273 225.3439,-716.6675 214.2179,-724.8984 164.5676,-757.4281 152.5206,-767.2725 152.2314,-742.2529 155.1604,-695.1974 158.9197,-695.1974 159.0999,-695.4911 159.0999,-695.4911 158.9197,-695.1974 155.1604,-695.1974 152.2314,-742.2529 152.5206,-767.2725 143.1623,-776.4246 135.979,-784.02 128.9512,-789.9413 129.4323,-776.8986 129.4323,-776.8986 128.9512,-789.9413 119.1392,-800.0057 121.0193,-695.6155 121.7164,-694.7264 121.2372,-694.1486 121.2372,-694.1486 121.7164,-694.7264 121.0193,-695.6155 115.2466,-699.3399 109.0461,-699.3399 104.5159,-696.635 103.0846,-694.8544 103.1143,-694.8185 103.1143,-694.8185 103.0846,-694.8544 104.5159,-696.635 101.0312,-748.495 97.8503,-695.2298 93.5885,-695.2298 90.2399,-731.1874 86.1414,-695.4285 82.1922,-695.4285 80.4032,-694.8591 76.569,-694.8591 75.697,-695.1322 70.0354,-695.1322 69.6919,-695.0263 65.1294,-695.0263 57.9439,-833.1389 59.0643,-700.115 -95.3495,-737.5239 -96.6438,-724.4058 -96.6438,-724.4058"/>
<polyline fill="none" stroke="#000000" points="960.4505,-1059.7781 943.7411,-1133.943 935.3549,-1181.7644 919.792,-1203.4335 828.1423,-1252.4785 824.3492,-1252.6447 800.7488,-1254.2157 792.3785,-1255.3414 780.4734,-1257.2131 770.4781,-1259.2369 769.4016,-1259.4791 713.2165,-1250.2416 684.882,-1234.6157 641.5571,-1160.8818 624.8807,-1111 594.4719,-1035.8865 582.6208,-1026.1631 580.328,-1025.7312 561.4417,-1022.7753 533.6818,-1020.2014 484.3657,-1016.4197 473.0418,-1009.9307 399.5433,-957.2819 419.1547,-844.8185 423.4927,-815.793 426.5563,-784.6472 426.6722,-783.709 435.8486,-731.0859 459.2265,-717.0815 469.4842,-607.1631 470.7683,-598.38 470.5804,-577.4175 473.0127,-551.3539 473.4841,-551.0815 477.339,-549.2667 491.554,-543.3143 493.4701,-542.6176 494.1518,-542.4064 508.9809,-538.5892 518.2136,-537.2117 519.7372,-537.0665 524.2546,-536.8777 527.282,-536.9138 535.2573,-536.5972 536.8723,-536.6202 538.7851,-536.7509 543.1106,-536.823 545.2234,-536.7495 545.5386,-536.7223 546.0939,-536.7043 555.2792,-536.9019 560.3931,-536.4831 568.7488,-536.702 571.8902,-536.462 582.4312,-535.1129 649.8282,-523.0521 674.9243,-483.1558 673.0619,-475.14 670.933,-460.6729 661.7367,-408.6987 661.2186,-406.1675 655.2021,-380.2727 661.255,-375.8212 664.8475,-373.3096 670.4944,-369.5637 781.0891,-303.9927 781.3573,-303.8244 799.4877,-291.1349 807.6262,-285.1595 815.6865,-278.6882 817.3319,-277.1915 817.8036,-272.5229 829.959,-188.835 838.6003,-136.6966 852.7814,-121.6383 956.5622,-134.5899 960.092,-134.9592 968.2949,-135.6519 977.3141,-140.3705 984.7961,-143.8976 994.3508,-148.156 999.2783,-150.0981 1023.9413,-158.5712 1091.2043,-179.9053 1072.8301,-286.3808 1071.5006,-292.13 1069.4019,-324.247 1057.5265,-393.0626 1123.1743,-440.4724 1106.6429,-490.97 1096.9824,-533.5147 1088.2782,-562.8427 1099.7949,-581.322 1134.6989,-641.7708 1141.8916,-652.6454 1126.4344,-685.0986 1108.0364,-727.2747 1094.3529,-756.0981 1097.3483,-758.9661 1198.9126,-868.014 1205.6422,-874.4996 1211.6582,-880.5901 1213.4763,-882.6121 1214.213,-883.3929 1227.6818,-933.7678 1117.8069,-1012.1506 1082.7345,-1022.9139 1082.2605,-1023.092 1061.1631,-1022.8261 1045.7297,-1023.5847 1040.8633,-1023.9238 1017.8367,-1026.9526 972.7872,-1034.7202 964.9604,-1041.5682 960.4505,-1059.7781 "/>
<polyline fill="none" stroke="#000000" points="1108.0364,-727.2747 1094.3529,-756.0981 1097.3483,-758.9661 1198.9126,-868.014 1205.6422,-874.4996 1211.6582,-880.5901 1213.4763,-882.6121 1214.213,-883.3929 1227.6818,-933.7678 1273.7942,-949.7585 1325.019,-944.2903 1343.4889,-943.2509 1356.8556,-943.1758 1388.3142,-944.5898 1476.0608,-907.6456 1496.6395,-881.4591 1564.8578,-857.937 1629.4183,-764.7324 1628.2225,-744.7406 1627.3318,-679.0294 1627.3632,-675.7996 1682.3207,-610.6178 1702.6206,-568.072 1706.7654,-560.2869 1710.9248,-536.2 1712.3756,-524.0766 1701.4163,-503.5058 1701.2837,-503.243 1624.6763,-415.5027 1624.5349,-387.8291 1625.9464,-353.9748 1615.146,-324.5296 1591.4625,-254.5435 1513.7515,-228.2493 1473.0115,-188.0501 1414.052,-163.964 1400.85,-161.3612 1381.8219,-156.7139 1366.6655,-152.3071 1350.994,-146.2847 1350.1173,-146.5487 1335.1028,-150.7399 1324.8627,-153.3703 1281.9501,-169.3434 1244.8344,-169.1802 1223.4471,-168.1789 1218.6622,-167.6511 1216.8112,-168.2195 1204.0316,-171.8519 1186.0645,-175.7199 1183.7854,-176.1576 1178.1932,-177.1025 1169.4797,-178.1743 1149.0414,-179.7499 1133.5319,-179.5172 1126.847,-179.2632 1104.5499,-177.9037 1091.2043,-179.9053 1072.8301,-286.3808 1071.5006,-292.13 1069.4019,-324.247 1057.5265,-393.0626 1123.1743,-440.4724 1106.6429,-490.97 1096.9824,-533.5147 1088.2782,-562.8427 1099.7949,-581.322 1134.6989,-641.7708 1141.8916,-652.6454 1126.4344,-685.0986 1108.0364,-727.2747 "/>
<polyline fill="none" stroke="#000000" points="646.9993,-376.8909 653.9656,-379.7343 655.2021,-380.2727 661.255,-375.8212 664.8475,-373.3096 670.4944,-369.5637 781.0891,-303.9927 781.3573,-303.8244 799.4877,-291.1349 807.6262,-285.1595 815.6865,-278.6882 817.3319,-277.1915 817.8036,-272.5229 829.959,-188.835 838.6003,-136.6966 852.7814,-121.6383 852.1684,-116.4171 822.5327,-34.7177 807.7266,12.462 798.2152,45.6058 771.441,92.6029 760.7961,101.0471 684.5356,124.501 677.4387,126.8512 666.6625,130.9314 656.464,135.0336 651.3181,137.3456 639.6399,133.9978 639.6067,133.9836 628.092,129.8681 619.4279,127.1684 610.6824,124.8416 592.7542,120.4807 569.1033,115.279 504.1381,73.2656 499.754,72.5471 492.1351,71.8173 478.5753,70.8253 470.9315,70.44 460.1811,70.3856 457.8293,70.48 444.5969,71.6119 407.8831,75.5843 401.002,75.3444 355.6443,40.6665 326.1147,13.4046 309.4711,-9.5572 309.4137,-9.6432 312.0317,-49.1839 312.61,-78.6187 313.8722,-87.3641 319.8159,-136.7573 352.3924,-234.1384 410.3874,-261.8377 421.0769,-284.6427 449.3525,-304.3368 471.6553,-319.2993 477.2606,-322.6078 494.5499,-332.3584 499.157,-334.8297 509.2146,-339.4171 518.92,-343.5852 541.1545,-351.3626 541.2924,-351.4033 545.0682,-352.4186 560.0022,-356.0385 562.4189,-356.559 610.3235,-365.5923 619.3423,-367.7874 627.5223,-370.0024 646.9993,-376.8909 "/>
<polyline fill="none" stroke="#000000" points="508.9809,-538.5892 518.2136,-537.2117 519.7372,-537.0665 524.2546,-536.8777 527.282,-536.9138 535.2573,-536.5972 536.8723,-536.6202 538.7851,-536.7509 543.1106,-536.823 545.2234,-536.7495 545.5386,-536.7223 546.0939,-536.7043 555.2792,-536.9019 560.3931,-536.4831 568.7488,-536.702 571.8902,-536.462 582.4312,-535.1129 649.8282,-523.0521 674.9243,-483.1558 673.0619,-475.14 670.933,-460.6729 661.7367,-408.6987 661.2186,-406.1675 655.2021,-380.2727 653.9656,-379.7343 646.9993,-376.8909 627.5223,-370.0024 619.3423,-367.7874 610.3235,-365.5923 562.4189,-356.559 560.0022,-356.0385 545.0682,-352.4186 541.2924,-351.4033 541.1545,-351.3626 518.92,-343.5852 509.2146,-339.4171 499.157,-334.8297 494.5499,-332.3584 477.2606,-322.6078 471.6553,-319.2993 449.3525,-304.3368 421.0769,-284.6427 410.3874,-261.8377 352.3924,-234.1384 276.8357,-264.0764 271.241,-266.0386 261.8546,-269.1184 260.3031,-269.5921 245.9363,-273.653 242.6785,-274.4245 224.0642,-278.4104 207.1281,-280.4878 195.0466,-281.4175 172.7265,-281.6064 129.8197,-280.9902 44.0498,-375.7997 12.3503,-382.9423 -78.9867,-484.6235 -67.6403,-518.787 -64.5261,-529.8621 -45.221,-605.3896 -66.6974,-657.7969 -83.8036,-696.7833 -96.6438,-724.4058 -95.3495,-737.5239 -93.3098,-763.4665 -70.1524,-795.1834 57.8738,-835.458 73.8844,-841.2583 75.0088,-841.692 84.1902,-845.6714 86.9454,-849.9891 118.3678,-888.5493 198.4807,-950.3493 218.5145,-957.8517 226.3746,-960.9507 236.0306,-965.1409 250.3978,-972.2414 258.9913,-970.2159 269.3826,-968.2902 276.505,-967.0896 289.0458,-965.1862 312.7982,-963.1734 399.5433,-957.2819 419.1547,-844.8185 423.4927,-815.793 426.5563,-784.6472 426.6722,-783.709 435.8486,-731.0859 459.2265,-717.0815 469.4842,-607.1631 470.7683,-598.38 470.5804,-577.4175 473.0127,-551.3539 473.4841,-551.0815 477.339,-549.2667 491.554,-543.3143 493.4701,-542.6176 494.1518,-542.4064 508.9809,-538.5892 "/>
<!-- nuxwdog&#45;client&#45;java&#45;&gt;nuxwdog -->
<g id="edge1" class="edge">
<title>nuxwdog&#45;client&#45;java&#45;&gt;nuxwdog</title>
<path fill="none" stroke="#444444" stroke-opacity="0.333333" d="M800.5743,-933.4328C799.275,-967.6422 796.4459,-1042.1278 794.8967,-1082.9161"/>
<polygon fill="#444444" fill-opacity="0.333333" stroke="#444444" stroke-opacity="0.333333" points="791.3962,-1082.8651 794.514,-1092.9908 798.3911,-1083.1309 791.3962,-1082.8651"/>
</g>
<!-- pki&#45;base&#45;java&#45;&gt;jakarta&#45;commons&#45;httpclient -->
<g id="edge2" class="edge">
<title>pki&#45;base&#45;java&#45;&gt;jakarta&#45;commons&#45;httpclient</title>
<path fill="none" stroke="#444444" stroke-opacity="0.333333" d="M1285.7418,-567.8477C1300.5657,-572.6686 1316.7115,-577.9194 1332.0007,-582.8915"/>
<polygon fill="#444444" fill-opacity="0.333333" stroke="#444444" stroke-opacity="0.333333" points="1331.3094,-586.3471 1341.9016,-586.1114 1333.4743,-579.6903 1331.3094,-586.3471"/>
</g>
<!-- pki&#45;base&#45;java&#45;&gt;javassist -->
<g id="edge3" class="edge">
<title>pki&#45;base&#45;java&#45;&gt;javassist</title>
<path fill="none" stroke="#444444" stroke-opacity="0.333333" d="M1310.8246,-548.8539C1359.2381,-548.3352 1420.1622,-547.6823 1466.4421,-547.1864"/>
<polygon fill="#444444" fill-opacity="0.333333" stroke="#444444" stroke-opacity="0.333333" points="1466.7177,-550.6838 1476.6796,-547.0767 1466.6426,-543.6842 1466.7177,-550.6838"/>
</g>
<!-- pki&#45;base&#45;java&#45;&gt;ldapjdk -->
<g id="edge4" class="edge">
<title>pki&#45;base&#45;java&#45;&gt;ldapjdk</title>
<path fill="none" stroke="#444444" stroke-opacity="0.333333" d="M1255.5985,-567.9102C1299.7158,-599.2598 1390.0786,-663.4711 1439.4486,-698.5532"/>
<polygon fill="#444444" fill-opacity="0.333333" stroke="#444444" stroke-opacity="0.333333" points="1437.7001,-701.6044 1447.8791,-704.5439 1441.7549,-695.8983 1437.7001,-701.6044"/>
</g>
<!-- pki&#45;base&#45;java&#45;&gt;pki&#45;base -->
<g id="edge5" class="edge">
<title>pki&#45;base&#45;java&#45;&gt;pki&#45;base</title>
<path fill="none" stroke="#444444" stroke-opacity="0.333333" d="M1192.6423,-567.7787C1154.7474,-586.0972 1095.9972,-614.4971 1055.0398,-634.2959"/>
<polygon fill="#444444" fill-opacity="0.333333" stroke="#444444" stroke-opacity="0.333333" points="1053.2909,-631.2538 1045.8109,-638.7572 1056.3374,-637.5561 1053.2909,-631.2538"/>
</g>
<!-- pki&#45;base&#45;java&#45;&gt;slf4j -->
<g id="edge6" class="edge">
<title>pki&#45;base&#45;java&#45;&gt;slf4j</title>
<path fill="none" stroke="#444444" stroke-opacity="0.333333" d="M1237.8616,-568.0118C1257.1461,-612.8821 1306.8909,-728.6255 1329.8559,-782.0592"/>
<polygon fill="#444444" fill-opacity="0.333333" stroke="#444444" stroke-opacity="0.333333" points="1326.7829,-783.773 1333.9471,-791.5784 1333.2141,-781.0089 1326.7829,-783.773"/>
</g>
<!-- pki&#45;base&#45;java&#45;&gt;slf4j&#45;jdk14 -->
<g id="edge7" class="edge">
<title>pki&#45;base&#45;java&#45;&gt;slf4j&#45;jdk14</title>
<path fill="none" stroke="#444444" stroke-opacity="0.333333" d="M1230.6737,-568.0045C1231.9503,-602.6528 1234.7299,-678.0941 1236.252,-719.4058"/>
<polygon fill="#444444" fill-opacity="0.333333" stroke="#444444" stroke-opacity="0.333333" points="1232.762,-719.7454 1236.6279,-729.6097 1239.7573,-719.4876 1232.762,-719.7454"/>
</g>
<!-- pki&#45;base&#45;java&#45;&gt;xalan&#45;j2 -->
<g id="edge8" class="edge">
<title>pki&#45;base&#45;java&#45;&gt;xalan&#45;j2</title>
<path fill="none" stroke="#444444" stroke-opacity="0.333333" d="M1253.7402,-531.4126C1296.9558,-498.0868 1388.4663,-427.5182 1436.9001,-390.1684"/>
<polygon fill="#444444" fill-opacity="0.333333" stroke="#444444" stroke-opacity="0.333333" points="1439.0742,-392.9116 1444.8558,-384.0333 1434.7995,-387.3684 1439.0742,-392.9116"/>
</g>
<!-- pki&#45;base&#45;java&#45;&gt;xerces&#45;j2 -->
<g id="edge9" class="edge">
<title>pki&#45;base&#45;java&#45;&gt;xerces&#45;j2</title>
<path fill="none" stroke="#444444" stroke-opacity="0.333333" d="M1240.4269,-531.5259C1265.1135,-488.4496 1327.2397,-380.0443 1356.3275,-329.2884"/>
<polygon fill="#444444" fill-opacity="0.333333" stroke="#444444" stroke-opacity="0.333333" points="1359.4222,-330.9273 1361.3578,-320.5108 1353.3488,-327.4467 1359.4222,-330.9273"/>
</g>
<!-- pki&#45;base&#45;java&#45;&gt;xml&#45;commons&#45;apis -->
<g id="edge10" class="edge">
<title>pki&#45;base&#45;java&#45;&gt;xml&#45;commons&#45;apis</title>
<path fill="none" stroke="#444444" stroke-opacity="0.333333" d="M1250.6001,-531.7084C1274.1086,-511.1538 1312.7054,-477.4069 1339.0922,-454.3356"/>
<polygon fill="#444444" fill-opacity="0.333333" stroke="#444444" stroke-opacity="0.333333" points="1341.6346,-456.7619 1346.8591,-447.5448 1337.027,-451.4922 1341.6346,-456.7619"/>
</g>
<!-- pki&#45;base&#45;java&#45;&gt;xml&#45;commons&#45;resolver -->
<g id="edge11" class="edge">
<title>pki&#45;base&#45;java&#45;&gt;xml&#45;commons&#45;resolver</title>
<path fill="none" stroke="#444444" stroke-opacity="0.333333" d="M1226.6358,-531.4013C1219.0215,-489.9399 1200.4264,-388.6855 1191.3514,-339.2707"/>
<polygon fill="#444444" fill-opacity="0.333333" stroke="#444444" stroke-opacity="0.333333" points="1194.7645,-338.4779 1189.5157,-329.2746 1187.8796,-339.7424 1194.7645,-338.4779"/>
</g>
<!-- pki&#45;base&#45;&gt;python2&#45;nss -->
<g id="edge12" class="edge">
<title>pki&#45;base&#45;&gt;python2&#45;nss</title>
<path fill="none" stroke="#444444" stroke-opacity="0.333333" d="M1012.0342,-674.9212C1019.8238,-712.5344 1037.8544,-799.5975 1047.1798,-844.6263"/>
<polygon fill="#444444" fill-opacity="0.333333" stroke="#444444" stroke-opacity="0.333333" points="1043.7897,-845.516 1049.245,-854.5984 1050.6442,-844.0964 1043.7897,-845.516"/>
</g>
<!-- slf4j&#45;jdk14&#45;&gt;slf4j -->
<g id="edge13" class="edge">
<title>slf4j&#45;jdk14&#45;&gt;slf4j</title>
<path fill="none" stroke="#444444" stroke-opacity="0.333333" d="M1267.8066,-765.9496C1278.7521,-772.4436 1291.247,-779.8568 1302.8133,-786.7191"/>
<polygon fill="#444444" fill-opacity="0.333333" stroke="#444444" stroke-opacity="0.333333" points="1301.0499,-789.7426 1311.4361,-791.8351 1304.6217,-783.7224 1301.0499,-789.7426"/>
</g>
<!-- xalan&#45;j2&#45;&gt;xerces&#45;j2 -->
<g id="edge14" class="edge">
<title>xalan&#45;j2&#45;&gt;xerces&#45;j2</title>
<path fill="none" stroke="#444444" stroke-opacity="0.333333" d="M1451.0864,-347.6203C1442.27,-340.8248 1431.1181,-333.0638 1419.9777,-325.8792"/>
<polygon fill="#444444" fill-opacity="0.333333" stroke="#444444" stroke-opacity="0.333333" points="1421.8233,-322.9053 1411.4998,-320.523 1418.0845,-328.8231 1421.8233,-322.9053"/>
</g>
<!-- xalan&#45;j2&#45;&gt;xml&#45;commons&#45;apis -->
<g id="edge15" class="edge">
<title>xalan&#45;j2&#45;&gt;xml&#45;commons&#45;apis</title>
<path fill="none" stroke="#444444" stroke-opacity="0.333333" d="M1439.856,-383.8579C1428.9918,-390.707 1416.4571,-398.6092 1404.9096,-405.8891"/>
<polygon fill="#444444" fill-opacity="0.333333" stroke="#444444" stroke-opacity="0.333333" points="1402.9084,-403.0132 1396.3156,-411.3069 1406.6415,-408.9347 1402.9084,-403.0132"/>
</g>
<!-- xerces&#45;j2&#45;&gt;xalan&#45;j2 -->
<g id="edge16" class="edge">
<title>xerces&#45;j2&#45;&gt;xalan&#45;j2</title>
<path fill="none" stroke="#444444" stroke-opacity="0.333333" d="M1389.2136,-320.4697C1398.03,-327.2652 1409.1819,-335.0262 1420.3223,-342.2108"/>
<polygon fill="#444444" fill-opacity="0.333333" stroke="#444444" stroke-opacity="0.333333" points="1418.4767,-345.1847 1428.8002,-347.567 1422.2155,-339.2669 1418.4767,-345.1847"/>
</g>
<!-- xerces&#45;j2&#45;&gt;xml&#45;commons&#45;apis -->
<g id="edge17" class="edge">
<title>xerces&#45;j2&#45;&gt;xml&#45;commons&#45;apis</title>
<path fill="none" stroke="#444444" stroke-opacity="0.333333" d="M1371.1982,-320.5032C1370.5027,-341.5536 1369.3498,-376.4506 1368.5367,-401.0596"/>
<polygon fill="#444444" fill-opacity="0.333333" stroke="#444444" stroke-opacity="0.333333" points="1365.0329,-401.1204 1368.2006,-411.2306 1372.029,-401.3517 1365.0329,-401.1204"/>
</g>
<!-- xerces&#45;j2&#45;&gt;xml&#45;commons&#45;resolver -->
<g id="edge18" class="edge">
<title>xerces&#45;j2&#45;&gt;xml&#45;commons&#45;resolver</title>
<path fill="none" stroke="#444444" stroke-opacity="0.333333" d="M1312.5647,-305.1401C1312.4056,-305.1477 1312.2463,-305.1554 1312.0869,-305.1631"/>
<polygon fill="#444444" fill-opacity="0.333333" stroke="#444444" stroke-opacity="0.333333" points="1314.6389,-301.5361 1304.8187,-305.5128 1314.9754,-308.528 1314.6389,-301.5361"/>
</g>
<!-- pki&#45;ca&#45;&gt;pki&#45;server -->
<g id="edge19" class="edge">
<title>pki&#45;ca&#45;&gt;pki&#45;server</title>
<path fill="none" stroke="#444444" stroke-opacity="0.333333" d="M662.0915,-681.016C680.2022,-663.6814 707.7366,-637.3271 728.0075,-617.9249"/>
<polygon fill="#444444" fill-opacity="0.333333" stroke="#444444" stroke-opacity="0.333333" points="730.582,-620.3056 735.3861,-610.8625 725.7417,-615.2486 730.582,-620.3056"/>
</g>
<!-- pki&#45;server&#45;&gt;nuxwdog&#45;client&#45;java -->
<g id="edge20" class="edge">
<title>pki&#45;server&#45;&gt;nuxwdog&#45;client&#45;java</title>
<path fill="none" stroke="#444444" stroke-opacity="0.333333" d="M756.9782,-611.011C764.7883,-664.6935 787.7067,-822.2217 797.1355,-887.0306"/>
<polygon fill="#444444" fill-opacity="0.333333" stroke="#444444" stroke-opacity="0.333333" points="793.7276,-887.9175 798.631,-897.3094 800.6547,-886.9097 793.7276,-887.9175"/>
</g>
<!-- pki&#45;server&#45;&gt;pki&#45;base&#45;java -->
<g id="edge21" class="edge">
<title>pki&#45;server&#45;&gt;pki&#45;base&#45;java</title>
<path fill="none" stroke="#444444" stroke-opacity="0.333333" d="M818.9674,-586.8934C901.6861,-579.4124 1045.4496,-566.4105 1139.1483,-557.9365"/>
<polygon fill="#444444" fill-opacity="0.333333" stroke="#444444" stroke-opacity="0.333333" points="1139.5418,-561.4153 1149.1859,-557.0287 1138.9112,-554.4438 1139.5418,-561.4153"/>
</g>
<!-- pki&#45;server&#45;&gt;pki&#45;base -->
<g id="edge22" class="edge">
<title>pki&#45;server&#45;&gt;pki&#45;base</title>
<path fill="none" stroke="#444444" stroke-opacity="0.333333" d="M819.067,-609.0937C857.3822,-618.7713 905.7408,-630.9857 943.9808,-640.6443"/>
<polygon fill="#444444" fill-opacity="0.333333" stroke="#444444" stroke-opacity="0.333333" points="943.423,-644.1133 953.9756,-643.1688 945.1372,-637.3264 943.423,-644.1133"/>
</g>
<!-- pki&#45;server&#45;&gt;net&#45;tools -->
<g id="edge23" class="edge">
<title>pki&#45;server&#45;&gt;net&#45;tools</title>
<path fill="none" stroke="#444444" stroke-opacity="0.333333" d="M740.0568,-610.9894C708.0022,-652.0024 630.1704,-751.5862 592.9864,-799.1622"/>
<polygon fill="#444444" fill-opacity="0.333333" stroke="#444444" stroke-opacity="0.333333" points="590.1473,-797.111 586.7469,-807.1454 595.6626,-801.4217 590.1473,-797.111"/>
</g>
<!-- pki&#45;server&#45;&gt;openldap&#45;clients -->
<g id="edge24" class="edge">
<title>pki&#45;server&#45;&gt;openldap&#45;clients</title>
<path fill="none" stroke="#444444" stroke-opacity="0.333333" d="M761.8563,-574.5839C773.9698,-545.4004 797.851,-487.8668 812.074,-453.6012"/>
<polygon fill="#444444" fill-opacity="0.333333" stroke="#444444" stroke-opacity="0.333333" points="815.3819,-454.7615 815.983,-444.1837 808.9167,-452.0778 815.3819,-454.7615"/>
</g>
<!-- pki&#45;server&#45;&gt;pki&#45;tools -->
<g id="edge25" class="edge">
<title>pki&#45;server&#45;&gt;pki&#45;tools</title>
<path fill="none" stroke="#444444" stroke-opacity="0.333333" d="M794.526,-574.6628C832.7122,-557.4938 890.2189,-531.638 931.1992,-513.2127"/>
<polygon fill="#444444" fill-opacity="0.333333" stroke="#444444" stroke-opacity="0.333333" points="932.7726,-516.3429 940.4579,-509.0499 929.9021,-509.9585 932.7726,-516.3429"/>
</g>
<!-- pki&#45;server&#45;&gt;python2&#45;ldap -->
<g id="edge26" class="edge">
<title>pki&#45;server&#45;&gt;python2&#45;ldap</title>
<path fill="none" stroke="#444444" stroke-opacity="0.333333" d="M748.4037,-574.5865C729.8735,-517.7282 672.8629,-342.7963 650.4778,-274.1098"/>
<polygon fill="#444444" fill-opacity="0.333333" stroke="#444444" stroke-opacity="0.333333" points="653.7405,-272.8254 647.314,-264.4021 647.085,-274.9945 653.7405,-272.8254"/>
</g>
<!-- pki&#45;server&#45;&gt;python2&#45;libselinux -->
<g id="edge27" class="edge">
<title>pki&#45;server&#45;&gt;python2&#45;libselinux</title>
<path fill="none" stroke="#444444" stroke-opacity="0.333333" d="M716.7097,-574.6227C673.7901,-553.9479 603.5472,-520.1111 557.0895,-497.732"/>
<polygon fill="#444444" fill-opacity="0.333333" stroke="#444444" stroke-opacity="0.333333" points="558.3712,-494.4645 547.843,-493.2779 555.3333,-500.771 558.3712,-494.4645"/>
</g>
<!-- pki&#45;server&#45;&gt;python2&#45;policycoreutils -->
<g id="edge28" class="edge">
<title>pki&#45;server&#45;&gt;python2&#45;policycoreutils</title>
<path fill="none" stroke="#444444" stroke-opacity="0.333333" d="M689.8049,-591.9029C635.9611,-591.2043 557.2039,-590.1824 488.4776,-589.2906"/>
<polygon fill="#444444" fill-opacity="0.333333" stroke="#444444" stroke-opacity="0.333333" points="488.4592,-585.7902 478.4146,-589.16 488.3683,-592.7896 488.4592,-585.7902"/>
</g>
<!-- pki&#45;server&#45;&gt;velocity -->
<g id="edge29" class="edge">
<title>pki&#45;server&#45;&gt;velocity</title>
<path fill="none" stroke="#444444" stroke-opacity="0.333333" d="M689.5494,-594.5789C667.1632,-595.2145 642.1017,-595.9261 619.7696,-596.5601"/>
<polygon fill="#444444" fill-opacity="0.333333" stroke="#444444" stroke-opacity="0.333333" points="619.6169,-593.0629 609.7203,-596.8454 619.8157,-600.0601 619.6169,-593.0629"/>
</g>
<!-- pki&#45;tools&#45;&gt;pki&#45;base&#45;java -->
<g id="edge30" class="edge">
<title>pki&#45;tools&#45;&gt;pki&#45;base&#45;java</title>
<path fill="none" stroke="#444444" stroke-opacity="0.333333" d="M1039.7577,-504.8929C1070.6894,-512.1814 1109.1508,-521.2441 1143.38,-529.3096"/>
<polygon fill="#444444" fill-opacity="0.333333" stroke="#444444" stroke-opacity="0.333333" points="1142.8453,-532.7794 1153.3815,-531.6663 1144.4508,-525.966 1142.8453,-532.7794"/>
</g>
<!-- pki&#45;tools&#45;&gt;pki&#45;base -->
<g id="edge31" class="edge">
<title>pki&#45;tools&#45;&gt;pki&#45;base</title>
<path fill="none" stroke="#444444" stroke-opacity="0.333333" d="M983.6795,-509.0422C988.4753,-537.8415 997.8901,-594.3777 1003.5861,-628.5827"/>
<polygon fill="#444444" fill-opacity="0.333333" stroke="#444444" stroke-opacity="0.333333" points="1000.199,-629.5509 1005.2942,-638.8401 1007.104,-628.401 1000.199,-629.5509"/>
</g>
<!-- pki&#45;tools&#45;&gt;openldap&#45;clients -->
<g id="edge32" class="edge">
<title>pki&#45;tools&#45;&gt;openldap&#45;clients</title>
<path fill="none" stroke="#444444" stroke-opacity="0.333333" d="M936.8922,-472.8862C918.2376,-465.1803 896.3038,-456.1198 876.7237,-448.0316"/>
<polygon fill="#444444" fill-opacity="0.333333" stroke="#444444" stroke-opacity="0.333333" points="877.9041,-444.7324 867.3254,-444.1493 875.2316,-451.2022 877.9041,-444.7324"/>
</g>
<!-- pki&#45;tools&#45;&gt;nss&#45;tools -->
<g id="edge33" class="edge">
<title>pki&#45;tools&#45;&gt;nss&#45;tools</title>
<path fill="none" stroke="#444444" stroke-opacity="0.333333" d="M981.2412,-472.62C982.3265,-437.7593 984.6927,-361.7513 985.9811,-320.3611"/>
<polygon fill="#444444" fill-opacity="0.333333" stroke="#444444" stroke-opacity="0.333333" points="989.4861,-320.2525 986.2991,-310.1484 982.4895,-320.0347 989.4861,-320.2525"/>
</g>
<!-- python2&#45;ldap&#45;&gt;python2&#45;pyasn1 -->
<g id="edge34" class="edge">
<title>python2&#45;ldap&#45;&gt;python2&#45;pyasn1</title>
<path fill="none" stroke="#444444" stroke-opacity="0.333333" d="M641.4082,-227.7364C641.5997,-188.0307 642.055,-93.6499 642.2838,-46.224"/>
<polygon fill="#444444" fill-opacity="0.333333" stroke="#444444" stroke-opacity="0.333333" points="645.7846,-46.0609 642.3329,-36.0441 638.7846,-46.0271 645.7846,-46.0609"/>
</g>
<!-- python2&#45;ldap&#45;&gt;python2&#45;pyasn1&#45;modules -->
<g id="edge35" class="edge">
<title>python2&#45;ldap&#45;&gt;python2&#45;pyasn1&#45;modules</title>
<path fill="none" stroke="#444444" stroke-opacity="0.333333" d="M627.8363,-227.6941C603.7985,-195.0416 553.4525,-126.6526 525.5436,-88.7418"/>
<polygon fill="#444444" fill-opacity="0.333333" stroke="#444444" stroke-opacity="0.333333" points="528.0363,-86.224 519.2891,-80.2458 522.3991,-90.374 528.0363,-86.224"/>
</g>
<!-- python2&#45;policycoreutils&#45;&gt;python2&#45;libselinux -->
<g id="edge36" class="edge">
<title>python2&#45;policycoreutils&#45;&gt;python2&#45;libselinux</title>
<path fill="none" stroke="#444444" stroke-opacity="0.333333" d="M370.9615,-569.3803C399.1726,-550.2849 443.8343,-520.0545 474.9405,-498.9995"/>
<polygon fill="#444444" fill-opacity="0.333333" stroke="#444444" stroke-opacity="0.333333" points="477.0102,-501.825 483.3296,-493.3211 473.0864,-496.0281 477.0102,-501.825"/>
</g>
<!-- python2&#45;policycoreutils&#45;&gt;audit&#45;libs&#45;python -->
<g id="edge37" class="edge">
<title>python2&#45;policycoreutils&#45;&gt;audit&#45;libs&#45;python</title>
<path fill="none" stroke="#444444" stroke-opacity="0.333333" d="M332.3454,-569.2929C312.195,-538.7635 271.403,-476.9609 248.0213,-441.5359"/>
<polygon fill="#444444" fill-opacity="0.333333" stroke="#444444" stroke-opacity="0.333333" points="250.9048,-439.5509 242.475,-433.133 245.0626,-443.407 250.9048,-439.5509"/>
</g>
<!-- python2&#45;policycoreutils&#45;&gt;python2&#45;IPy -->
<g id="edge38" class="edge">
<title>python2&#45;policycoreutils&#45;&gt;python2&#45;IPy</title>
<path fill="none" stroke="#444444" stroke-opacity="0.333333" d="M275.4621,-569.4196C244.2407,-561.2567 207.1535,-551.5602 174.8185,-543.1061"/>
<polygon fill="#444444" fill-opacity="0.333333" stroke="#444444" stroke-opacity="0.333333" points="175.5079,-539.6688 164.9478,-540.5254 173.7372,-546.4412 175.5079,-539.6688"/>
</g>
<!-- python2&#45;policycoreutils&#45;&gt;python2&#45;libsemanage -->
<g id="edge39" class="edge">
<title>python2&#45;policycoreutils&#45;&gt;python2&#45;libsemanage</title>
<path fill="none" stroke="#444444" stroke-opacity="0.333333" d="M305.5002,-605.4231C265.6242,-623.9208 203.47,-652.753 160.5073,-672.6825"/>
<polygon fill="#444444" fill-opacity="0.333333" stroke="#444444" stroke-opacity="0.333333" points="158.9751,-669.535 151.3764,-676.9181 161.9208,-675.885 158.9751,-669.535"/>
</g>
<!-- python2&#45;policycoreutils&#45;&gt;python2&#45;setools -->
<g id="edge40" class="edge">
<title>python2&#45;policycoreutils&#45;&gt;python2&#45;setools</title>
<path fill="none" stroke="#444444" stroke-opacity="0.333333" d="M336.594,-605.5633C321.8793,-640.1635 289.7296,-715.7601 272.3713,-756.5762"/>
<polygon fill="#444444" fill-opacity="0.333333" stroke="#444444" stroke-opacity="0.333333" points="269.0901,-755.3484 268.3973,-765.9206 275.5318,-758.088 269.0901,-755.3484"/>
</g>
<!-- python2&#45;pyasn1&#45;modules&#45;&gt;python2&#45;pyasn1 -->
<g id="edge42" class="edge">
<title>python2&#45;pyasn1&#45;modules&#45;&gt;python2&#45;pyasn1</title>
<path fill="none" stroke="#444444" stroke-opacity="0.333333" d="M561.7982,-43.9789C566.7356,-42.3879 571.762,-40.7683 576.7696,-39.1547"/>
<polygon fill="#444444" fill-opacity="0.333333" stroke="#444444" stroke-opacity="0.333333" points="577.9032,-42.4667 586.3478,-36.0683 575.7563,-35.804 577.9032,-42.4667"/>
</g>
<!-- pki&#45;kra&#45;&gt;pki&#45;server -->
<g id="edge41" class="edge">
<title>pki&#45;kra&#45;&gt;pki&#45;server</title>
<path fill="none" stroke="#444444" stroke-opacity="0.333333" d="M748.0506,-778.0258C749.2516,-742.5303 751.9291,-663.4001 753.3657,-620.9443"/>
<polygon fill="#444444" fill-opacity="0.333333" stroke="#444444" stroke-opacity="0.333333" points="756.8705,-620.8564 753.7108,-610.7437 749.8745,-620.6196 756.8705,-620.8564"/>
</g>
<!-- nuxwdog&#45;client&#45;java -->
<g id="node1" class="node">
<title>nuxwdog&#45;client&#45;java</title>
<text text-anchor="middle" x="801.26" y="-911.68" font-family="monospace" font-size="14.00" fill="#000000">nuxwdog&#45;client&#45;java</text>
</g>
<!-- nuxwdog -->
<g id="node2" class="node">
<title>nuxwdog</title>
<text text-anchor="middle" x="793.83" y="-1107.3" font-family="monospace" font-size="14.00" fill="#000000">nuxwdog</text>
</g>
<!-- pki&#45;base&#45;java -->
<g id="node3" class="node">
<title>pki&#45;base&#45;java</title>
<text text-anchor="middle" x="1230" y="-546.02" font-family="monospace" font-size="14.00" fill="#000000">pki&#45;base&#45;java</text>
</g>
<!-- jakarta&#45;commons&#45;httpclient -->
<g id="node4" class="node">
<title>jakarta&#45;commons&#45;httpclient</title>
<text text-anchor="middle" x="1397.4" y="-600.46" font-family="monospace" font-size="14.00" fill="#000000">jakarta&#45;commons&#45;httpclient</text>
</g>
<!-- javassist -->
<g id="node5" class="node">
<title>javassist</title>
<text text-anchor="middle" x="1536.1" y="-542.74" font-family="monospace" font-size="14.00" fill="#000000">javassist</text>
</g>
<!-- ldapjdk -->
<g id="node6" class="node">
<title>ldapjdk</title>
<text text-anchor="middle" x="1473.5" y="-719.05" font-family="monospace" font-size="14.00" fill="#000000">ldapjdk</text>
</g>
<!-- pki&#45;base -->
<g id="node7" class="node">
<title>pki&#45;base</title>
<text text-anchor="middle" x="1008.3" y="-653.19" font-family="monospace" font-size="14.00" fill="#000000">pki&#45;base</text>
</g>
<!-- slf4j -->
<g id="node8" class="node">
<title>slf4j</title>
<text text-anchor="middle" x="1341.8" y="-806.15" font-family="monospace" font-size="14.00" fill="#000000">slf4j</text>
</g>
<!-- slf4j&#45;jdk14 -->
<g id="node9" class="node">
<title>slf4j&#45;jdk14</title>
<text text-anchor="middle" x="1237.3" y="-744.15" font-family="monospace" font-size="14.00" fill="#000000">slf4j&#45;jdk14</text>
</g>
<!-- xalan&#45;j2 -->
<g id="node10" class="node">
<title>xalan&#45;j2</title>
<text text-anchor="middle" x="1468.5" y="-362.1" font-family="monospace" font-size="14.00" fill="#000000">xalan&#45;j2</text>
</g>
<!-- xerces&#45;j2 -->
<g id="node11" class="node">
<title>xerces&#45;j2</title>
<text text-anchor="middle" x="1371.8" y="-298.59" font-family="monospace" font-size="14.00" fill="#000000">xerces&#45;j2</text>
</g>
<!-- xml&#45;commons&#45;apis -->
<g id="node12" class="node">
<title>xml&#45;commons&#45;apis</title>
<text text-anchor="middle" x="1367.6" y="-425.71" font-family="monospace" font-size="14.00" fill="#000000">xml&#45;commons&#45;apis</text>
</g>
<!-- xml&#45;commons&#45;resolver -->
<g id="node13" class="node">
<title>xml&#45;commons&#45;resolver</title>
<text text-anchor="middle" x="1186.2" y="-307.52" font-family="monospace" font-size="14.00" fill="#000000">xml&#45;commons&#45;resolver</text>
</g>
<!-- python2&#45;nss -->
<g id="node14" class="node">
<title>python2&#45;nss</title>
<text text-anchor="middle" x="1053" y="-869.03" font-family="monospace" font-size="14.00" fill="#000000">python2&#45;nss</text>
</g>
<!-- pki&#45;ca -->
<g id="node15" class="node">
<title>pki&#45;ca</title>
<text text-anchor="middle" x="643.25" y="-695.35" font-family="monospace" font-size="14.00" fill="#000000">pki&#45;ca</text>
</g>
<!-- pki&#45;server -->
<g id="node16" class="node">
<title>pki&#45;server</title>
<text text-anchor="middle" x="754.32" y="-589.04" font-family="monospace" font-size="14.00" fill="#000000">pki&#45;server</text>
</g>
<!-- net&#45;tools -->
<g id="node17" class="node">
<title>net&#45;tools</title>
<text text-anchor="middle" x="572.55" y="-821.61" font-family="monospace" font-size="14.00" fill="#000000">net&#45;tools</text>
</g>
<!-- openldap&#45;clients -->
<g id="node18" class="node">
<title>openldap&#45;clients</title>
<text text-anchor="middle" x="823.51" y="-422.35" font-family="monospace" font-size="14.00" fill="#000000">openldap&#45;clients</text>
</g>
<!-- pki&#45;tools -->
<g id="node19" class="node">
<title>pki&#45;tools</title>
<text text-anchor="middle" x="980.67" y="-487.27" font-family="monospace" font-size="14.00" fill="#000000">pki&#45;tools</text>
</g>
<!-- python2&#45;ldap -->
<g id="node20" class="node">
<title>python2&#45;ldap</title>
<text text-anchor="middle" x="641.32" y="-242.31" font-family="monospace" font-size="14.00" fill="#000000">python2&#45;ldap</text>
</g>
<!-- python2&#45;libselinux -->
<g id="node21" class="node">
<title>python2&#45;libselinux</title>
<text text-anchor="middle" x="510.19" y="-471.44" font-family="monospace" font-size="14.00" fill="#000000">python2&#45;libselinux</text>
</g>
<!-- python2&#45;policycoreutils -->
<g id="node22" class="node">
<title>python2&#45;policycoreutils</title>
<text text-anchor="middle" x="344.31" y="-583.72" font-family="monospace" font-size="14.00" fill="#000000">python2&#45;policycoreutils</text>
</g>
<!-- velocity -->
<g id="node23" class="node">
<title>velocity</title>
<text text-anchor="middle" x="555.67" y="-594.68" font-family="monospace" font-size="14.00" fill="#000000">velocity</text>
</g>
<!-- nss&#45;tools -->
<g id="node24" class="node">
<title>nss&#45;tools</title>
<text text-anchor="middle" x="986.86" y="-288.43" font-family="monospace" font-size="14.00" fill="#000000">nss&#45;tools</text>
</g>
<!-- python2&#45;pyasn1 -->
<g id="node25" class="node">
<title>python2&#45;pyasn1</title>
<text text-anchor="middle" x="642.42" y="-14.3" font-family="monospace" font-size="14.00" fill="#000000">python2&#45;pyasn1</text>
</g>
<!-- python2&#45;pyasn1&#45;modules -->
<g id="node26" class="node">
<title>python2&#45;pyasn1&#45;modules</title>
<text text-anchor="middle" x="505.86" y="-58.304" font-family="monospace" font-size="14.00" fill="#000000">python2&#45;pyasn1&#45;modules</text>
</g>
<!-- audit&#45;libs&#45;python -->
<g id="node27" class="node">
<title>audit&#45;libs&#45;python</title>
<text text-anchor="middle" x="230.5" y="-411.29" font-family="monospace" font-size="14.00" fill="#000000">audit&#45;libs&#45;python</text>
</g>
<!-- python2&#45;IPy -->
<g id="node28" class="node">
<title>python2&#45;IPy</title>
<text text-anchor="middle" x="95.966" y="-518.79" font-family="monospace" font-size="14.00" fill="#000000">python2&#45;IPy</text>
</g>
<!-- python2&#45;libsemanage -->
<g id="node29" class="node">
<title>python2&#45;libsemanage</title>
<text text-anchor="middle" x="112.44" y="-691.28" font-family="monospace" font-size="14.00" fill="#000000">python2&#45;libsemanage</text>
</g>
<!-- python2&#45;setools -->
<g id="node30" class="node">
<title>python2&#45;setools</title>
<text text-anchor="middle" x="260.7" y="-780.32" font-family="monospace" font-size="14.00" fill="#000000">python2&#45;setools</text>
</g>
<!-- pki&#45;kra -->
<g id="node31" class="node">
<title>pki&#45;kra</title>
<text text-anchor="middle" x="747.44" y="-792.37" font-family="monospace" font-size="14.00" fill="#000000">pki&#45;kra</text>
</g>
</g>
</svg>
