<?xml version="1.0" encoding="UTF-8" standalone="no"?>
<!DOCTYPE svg PUBLIC "-//W3C//DTD SVG 1.1//EN"
 "http://www.w3.org/Graphics/SVG/1.1/DTD/svg11.dtd">
<!-- Generated by graphviz version 2.40.1 (20161225.0304)
 -->
<!-- Title: G Pages: 1 -->
<svg width="329pt" height="273pt"
 viewBox="0.00 0.00 329.47 273.37" xmlns="http://www.w3.org/2000/svg" xmlns:xlink="http://www.w3.org/1999/xlink">
<g id="graph0" class="graph" transform="scale(1 1) rotate(0) translate(34.2199 185.0442)">
<title>G</title>
<polygon fill="#dae2ff" stroke="transparent" points="-34.2199,88.3211 -34.2199,-185.0442 295.2496,-185.0442 295.2496,88.3211 -34.2199,88.3211"/>
<polygon fill="#fbb4ae" stroke="#fbb4ae" points="61.4061,-127.6982 47.7868,-129.7449 18.0655,-135.6283 -28.7435,-89.3891 -30.2199,-88.0411 -12.1299,-51.3075 -2.1555,-24.6043 23.5332,8.2115 44.4749,22.4886 51.4273,24.2637 52.7833,24.7119 58.4829,23.8331 125.9644,52.9713 137.5498,58.5808 138.9633,59.336 146.4879,62.1026 146.5491,50.3876 140.7546,-17.7375 142.453,-18.253 146.0858,-18.253 146.7426,-18.0549 153.2177,-18.0549 153.2476,-18.0461 156.7186,-18.0461 157.1732,-18.1784 163.0951,-18.1784 163.5456,-18.0464 164.2006,-18.0464 167.5008,-20.8765 167.5008,-20.8765 164.2006,-18.0464 163.5456,-18.0464 163.0951,-18.1784 157.1732,-18.1784 156.7186,-18.0461 153.2476,-18.0461 153.2177,-18.0549 146.7426,-18.0549 146.0858,-18.253 142.453,-18.253 140.7546,-17.7375 146.5491,50.3876 146.4879,62.1026 161.1261,69.4524 170.9324,75.2474 179.9552,81.3857 183.7626,84.3211 195.9958,78.1755 198.563,77.0778 208.6026,73.1499 218.1045,70.1295 233.2505,65.8735 273.1081,29.7704 277.2539,4.5024 284.8628,-30.3474 291.2496,-50.4812 283.878,-75.779 269.4326,-85.9993 259.5764,-106.49 241.2964,-162.6897 206.6692,-181.0442 193.5013,-176.9987 178.7598,-173.1683 174.063,-172.4049 172.6177,-172.2393 159.8896,-171.3885 135.2039,-172.114 127.6477,-167.8964 97.9268,-130.9055 96.0602,-130.4662 86.308,-128.638 77.5523,-127.8417 69.6818,-127.5061 73.1025,-62.8699 78.0854,-62.8699 78.8911,-62.6311 82.6495,-62.6311 82.8254,-62.5791 87.7407,-62.5791 89.3052,-64.4409 93.9974,-67.1159 98.9505,-67.1159 98.9505,-67.1159 93.9974,-67.1159 89.3052,-64.4409 87.7407,-62.5791 82.8254,-62.5791 82.6495,-62.6311 78.8911,-62.6311 78.0854,-62.8699 73.1025,-62.8699 69.6818,-127.5061 62.9232,-127.544 61.4061,-127.6982 61.4061,-127.6982"/>
<polyline fill="none" stroke="#000000" points="172.6177,-172.2393 174.063,-172.4049 178.7598,-173.1683 193.5013,-176.9987 206.6692,-181.0442 241.2964,-162.6897 259.5764,-106.49 269.4326,-85.9993 283.878,-75.779 291.2496,-50.4812 284.8628,-30.3474 277.2539,4.5024 273.1081,29.7704 233.2505,65.8735 218.1045,70.1295 208.6026,73.1499 198.563,77.0778 195.9958,78.1755 183.7626,84.3211 179.9552,81.3857 170.9324,75.2474 161.1261,69.4524 146.4879,62.1026 138.9633,59.336 137.5498,58.5808 125.9644,52.9713 58.4829,23.8331 52.7833,24.7119 51.4273,24.2637 44.4749,22.4886 23.5332,8.2115 -2.1555,-24.6043 -12.1299,-51.3075 -30.2199,-88.0411 -28.7435,-89.3891 18.0655,-135.6283 47.7868,-129.7449 61.4061,-127.6982 62.9232,-127.544 69.6818,-127.5061 77.5523,-127.8417 86.308,-128.638 96.0602,-130.4662 97.9268,-130.9055 127.6477,-167.8964 135.2039,-172.114 159.8896,-171.3885 172.6177,-172.2393 "/>
<!-- nginx&#45;&gt;nginx&#45;mimetypes -->
<g id="edge1" class="edge">
<title>nginx&#45;&gt;nginx&#45;mimetypes</title>
<path fill="none" stroke="#444444" stroke-opacity="0.333333" d="M173.842,-88.1548C173.8038,-76.0914 173.7531,-60.0603 173.7098,-46.368"/>
<polygon fill="#444444" fill-opacity="0.333333" stroke="#444444" stroke-opacity="0.333333" points="177.2087,-45.9978 173.677,-36.0089 170.2087,-46.02 177.2087,-45.9978"/>
</g>
<!-- nginx&#45;&gt;nginx&#45;filesystem -->
<g id="edge2" class="edge">
<title>nginx&#45;&gt;nginx&#45;filesystem</title>
<path fill="none" stroke="#444444" stroke-opacity="0.333333" d="M142.1123,-88.3374C140.5731,-87.4585 139.0191,-86.5711 137.4606,-85.6811"/>
<polygon fill="#444444" fill-opacity="0.333333" stroke="#444444" stroke-opacity="0.333333" points="138.9752,-82.5155 128.5557,-80.5959 135.5039,-88.5942 138.9752,-82.5155"/>
</g>
<!-- nginx&#45;mimetypes&#45;&gt;nginx&#45;filesystem -->
<g id="edge3" class="edge">
<title>nginx&#45;mimetypes&#45;&gt;nginx&#45;filesystem</title>
<path fill="none" stroke="#444444" stroke-opacity="0.333333" d="M142.391,-36.0938C140.6473,-37.104 138.8832,-38.1262 137.1137,-39.1514"/>
<polygon fill="#444444" fill-opacity="0.333333" stroke="#444444" stroke-opacity="0.333333" points="135.1895,-36.2212 128.2915,-44.2629 138.6988,-42.278 135.1895,-36.2212"/>
</g>
<!-- nginx -->
<g id="node1" class="node">
<title>nginx</title>
<text text-anchor="middle" x="173.9" y="-102.79" font-family="monospace" font-size="14.00" fill="#000000">nginx</text>
</g>
<!-- nginx&#45;mimetypes -->
<g id="node2" class="node">
<title>nginx&#45;mimetypes</title>
<text text-anchor="middle" x="173.62" y="-14.3" font-family="monospace" font-size="14.00" fill="#000000">nginx&#45;mimetypes</text>
</g>
<!-- nginx&#45;filesystem -->
<g id="node3" class="node">
<title>nginx&#45;filesystem</title>
<text text-anchor="middle" x="96.841" y="-58.785" font-family="monospace" font-size="14.00" fill="#000000">nginx&#45;filesystem</text>
</g>
</g>
</svg>
