<?xml version="1.0" encoding="UTF-8" standalone="no"?>
<!DOCTYPE svg PUBLIC "-//W3C//DTD SVG 1.1//EN"
 "http://www.w3.org/Graphics/SVG/1.1/DTD/svg11.dtd">
<!-- Generated by graphviz version 2.40.1 (20161225.0304)
 -->
<!-- Title: G Pages: 1 -->
<svg width="294pt" height="262pt"
 viewBox="0.00 0.00 294.18 261.94" xmlns="http://www.w3.org/2000/svg" xmlns:xlink="http://www.w3.org/1999/xlink">
<g id="graph0" class="graph" transform="scale(1 1) rotate(0) translate(57.2107 185.1667)">
<title>G</title>
<polygon fill="#dae2ff" stroke="transparent" points="-57.2107,76.7684 -57.2107,-185.1667 236.9719,-185.1667 236.9719,76.7684 -57.2107,76.7684"/>
<polygon fill="#fbb4ae" stroke="#fbb4ae" points="4.5718,8.9615 22.8991,-10.4887 22.8991,-10.4887 4.5718,8.9615 9.9942,20.7128 18.5231,28.8606 67.2271,39.9343 75.6081,42.3314 77.1287,42.854 88.7353,47.5302 95.973,51.281 96.5961,51.4999 105.7969,55.6841 110.9398,58.2875 111.8498,-13.2647 106.4835,-16.3353 105.1459,-17.8744 105.6437,-18.463 105.6437,-18.463 105.1459,-17.8744 106.4835,-16.3353 111.8498,-13.2647 110.9398,58.2875 124.9296,66.0915 134.3579,72.7684 138.9086,70.289 139.882,69.8411 141.6016,69.1195 157.8542,62.9489 162.3445,61.4342 176.1792,57.3491 212.3155,23.3591 216.9606,-13.8295 219.9884,-26.4725 227.0539,-50.3509 222.49,-64.529 230.5298,-101.6789 232.4128,-108.8796 232.9719,-110.4669 232.2179,-117.302 219.0366,-150.9525 154.1338,-173.4757 153.0956,-172.9613 151.8418,-172.4109 151.552,-172.2995 143.0199,-169.4708 133.6355,-166.8681 132.2645,-166.5637 124.7523,-165.3036 122.6665,-165.0678 111.8221,-164.4325 105.3162,-164.7636 93.1884,-166.0461 88.146,-167.1254 86.4343,-167.585 74.0627,-171.5969 74.258,-151.8005 74.258,-151.8005 74.0627,-171.5969 51.9709,-181.1667 4.5033,-148.0915 2.3753,-141.2389 -51.4938,-87.5212 -53.2107,-85.9508 -36.3074,-52.046 -27.0542,-26.8928 -3.9162,3.0597 4.5718,8.9615 4.5718,8.9615"/>
<polyline fill="none" stroke="#000000" points="111.8221,-164.4325 122.6665,-165.0678 124.7523,-165.3036 132.2645,-166.5637 133.6355,-166.8681 143.0199,-169.4708 151.552,-172.2995 151.8418,-172.4109 153.0956,-172.9613 154.1338,-173.4757 219.0366,-150.9525 232.2179,-117.302 232.9719,-110.4669 232.4128,-108.8796 230.5298,-101.6789 222.49,-64.529 227.0539,-50.3509 219.9884,-26.4725 216.9606,-13.8295 212.3155,23.3591 176.1792,57.3491 162.3445,61.4342 157.8542,62.9489 141.6016,69.1195 139.882,69.8411 138.9086,70.289 134.3579,72.7684 124.9296,66.0915 110.9398,58.2875 105.7969,55.6841 96.5961,51.4999 95.973,51.281 88.7353,47.5302 77.1287,42.854 75.6081,42.3314 67.2271,39.9343 18.5231,28.8606 9.9942,20.7128 4.5718,8.9615 -3.9162,3.0597 -27.0542,-26.8928 -36.3074,-52.046 -53.2107,-85.9508 -51.4938,-87.5212 2.3753,-141.2389 4.5033,-148.0915 51.9709,-181.1667 74.0627,-171.5969 86.4343,-167.585 88.146,-167.1254 93.1884,-166.0461 105.3162,-164.7636 111.8221,-164.4325 "/>
<!-- nginx&#45;mimetypes&#45;&gt;nginx&#45;filesystem -->
<g id="edge1" class="edge">
<title>nginx&#45;mimetypes&#45;&gt;nginx&#45;filesystem</title>
<path fill="none" stroke="#444444" stroke-opacity="0.333333" d="M114.702,-88.1548C114.6638,-76.0914 114.6131,-60.0603 114.5698,-46.368"/>
<polygon fill="#444444" fill-opacity="0.333333" stroke="#444444" stroke-opacity="0.333333" points="118.0687,-45.9978 114.537,-36.0089 111.0687,-46.02 118.0687,-45.9978"/>
</g>
<!-- nginx&#45;&gt;nginx&#45;mimetypes -->
<g id="edge2" class="edge">
<title>nginx&#45;&gt;nginx&#45;mimetypes</title>
<path fill="none" stroke="#444444" stroke-opacity="0.333333" d="M69.4864,-80.6376C71.0256,-81.5165 72.5797,-82.4039 74.1383,-83.2939"/>
<polygon fill="#444444" fill-opacity="0.333333" stroke="#444444" stroke-opacity="0.333333" points="72.6241,-86.4597 83.0437,-88.3791 76.0953,-80.381 72.6241,-86.4597"/>
</g>
<!-- nginx&#45;&gt;nginx&#45;filesystem -->
<g id="edge3" class="edge">
<title>nginx&#45;&gt;nginx&#45;filesystem</title>
<path fill="none" stroke="#444444" stroke-opacity="0.333333" d="M68.9276,-44.3912C70.6714,-43.381 72.4356,-42.3588 74.2052,-41.3336"/>
<polygon fill="#444444" fill-opacity="0.333333" stroke="#444444" stroke-opacity="0.333333" points="76.1297,-44.2636 83.0279,-36.2221 72.6206,-38.2067 76.1297,-44.2636"/>
</g>
<!-- nginx&#45;mimetypes -->
<g id="node1" class="node">
<title>nginx&#45;mimetypes</title>
<text text-anchor="middle" x="114.76" y="-102.79" font-family="monospace" font-size="14.00" fill="#000000">nginx&#45;mimetypes</text>
</g>
<!-- nginx&#45;filesystem -->
<g id="node2" class="node">
<title>nginx&#45;filesystem</title>
<text text-anchor="middle" x="114.48" y="-14.3" font-family="monospace" font-size="14.00" fill="#000000">nginx&#45;filesystem</text>
</g>
<!-- nginx -->
<g id="node3" class="node">
<title>nginx</title>
<text text-anchor="middle" x="37.697" y="-58.785" font-family="monospace" font-size="14.00" fill="#000000">nginx</text>
</g>
</g>
</svg>
