<?xml version="1.0" encoding="UTF-8" standalone="no"?>
<!DOCTYPE svg PUBLIC "-//W3C//DTD SVG 1.1//EN"
 "http://www.w3.org/Graphics/SVG/1.1/DTD/svg11.dtd">
<!-- Generated by graphviz version 2.40.1 (20161225.0304)
 -->
<!-- Title: G Pages: 1 -->
<svg width="1654pt" height="453pt"
 viewBox="0.00 0.00 1653.62 452.51" xmlns="http://www.w3.org/2000/svg" xmlns:xlink="http://www.w3.org/1999/xlink">
<g id="graph0" class="graph" transform="scale(1 1) rotate(0) translate(76.2412 346.7478)">
<title>G</title>
<polygon fill="#dae2ff" stroke="transparent" points="-76.2412,105.7607 -76.2412,-346.7478 1577.377,-346.7478 1577.377,105.7607 -76.2412,105.7607"/>
<polygon fill="#fbb4ae" stroke="#fbb4ae" points="-61.179,-184.3586 -67.8172,-95.3503 -68.269,-91.8209 -72.2412,-66.1703 -30.7819,-20.1097 9.8551,9.3957 54.9415,18.1419 55.561,18.316 61.5971,20.1927 75.3281,21.3544 83.3246,22.2469 85.8217,22.7284 94.3029,24.5973 102.6499,21.7588 112.9258,18.8658 121.7727,16.6349 140.4291,13.5642 186.2319,7.3767 194.919,4.7926 245.9451,18.4242 265.6568,24.2703 268.2636,25.1921 282.2895,30.9745 292.8979,35.9659 302.9179,41.2671 309.4157,44.8941 318.7792,45.3232 354.9072,49.351 406.2057,14.5657 488.7626,20.2039 490.4579,-39.5263 490.4579,-39.5263 488.7626,20.2039 499.6075,21.5215 513.431,23.5685 527.1603,26.6926 533.3719,28.4352 544.2626,31.781 548.3345,33.248 568.2813,40.9708 590.0948,49.9779 610.4156,50.7254 651.9122,13.5263 651.4881,-90.7897 651.5696,-92.0869 651.4771,-114.6625 651.4626,-115.0488 651.0372,-219.677 620.0506,-228.7531 556.2325,-211.0788 554.016,-210.5971 546.3655,-99.2152 541.9323,-99.2152 540.4836,-98.7419 535.5912,-98.7419 535.5327,-98.7232 532.7695,-98.7232 529.88,-95.9729 529.88,-95.9729 532.7695,-98.7232 535.5327,-98.7232 535.5912,-98.7419 540.4836,-98.7419 541.9323,-99.2152 546.3655,-99.2152 554.016,-210.5971 532.9362,-206.6363 532.2222,-206.5452 522.0359,-205.5475 510.1891,-205.0938 493.475,-205.4517 403.8398,-215.3912 383.4912,-234.4345 318.4773,-239.2448 308.9279,-240.3709 294.3435,-242.7331 289.5819,-243.7134 270.6182,-248.0367 253.0796,-253.5733 232.8378,-260.8498 189.0809,-239.0242 135.9648,-235.4343 126.2695,-234.9882 123.6667,-233.3762 116.3353,-229.267 100.2816,-221.1977 93.2152,-218.0627 87.5618,-215.7201 70.8426,-209.7626 77.2636,-94.4249 81.788,-94.4249 81.946,-94.62 81.946,-94.62 81.788,-94.4249 77.2636,-94.4249 70.8426,-209.7626 69.1738,-209.2177 65.1449,-208.1369 48.6833,-204.1964 -61.179,-184.3586 -61.179,-184.3586"/>
<polygon fill="#fed9a6" stroke="#fed9a6" points="755.204,12.199 748.7354,11.9464 651.9122,13.5263 651.4881,-90.7897 651.5696,-92.0869 651.4771,-114.6625 744.4647,-105.2796 747.7283,-101.965 749.1936,-101.5145 751.713,-99.4485 755.7028,-99.4485 756.3535,-99.6621 760.9471,-99.6621 765.3788,-183.4943 767.2932,-99.6205 772.9662,-99.6205 771.3481,-177.0157 779.2405,-101.3874 783.5637,-103.9851 783.5637,-103.9851 779.2405,-101.3874 771.3481,-177.0157 772.9662,-99.6205 767.2932,-99.6205 765.3788,-183.4943 760.9471,-99.6621 756.3535,-99.6621 755.7028,-99.4485 751.713,-99.4485 749.1936,-101.5145 747.7283,-101.965 744.4647,-105.2796 651.4771,-114.6625 651.4626,-115.0488 651.0372,-219.677 739.264,-256.4107 752.3678,-262.1649 756.5295,-261.0119 766.3708,-258.6768 797.179,-253.7928 797.8876,-253.7087 799.8865,-253.5112 805.8297,-253.0411 814.3295,-252.5364 823.726,-252.3495 829.1252,-252.4555 869.766,-188.8921 920.1938,-185.5371 961.2297,-186.0677 966.5347,-180.8977 969.5201,-219.2179 974.0942,-180.0907 978.3896,-180.0907 978.5835,-180.3394 984.7617,-184.4204 984.7617,-184.4204 978.5835,-180.3394 978.3896,-180.0907 974.0942,-180.0907 969.5201,-219.2179 966.5347,-180.8977 961.2297,-186.0677 920.1938,-185.5371 869.766,-188.8921 829.1252,-252.4555 945.5638,-326.2794 961.4864,-328.1406 967.3804,-328.9569 983.5529,-331.898 1005.6827,-337.3615 1010.3364,-338.7095 1019.2841,-341.6887 1027.3153,-342.7478 1081.0302,-303.7391 1136.5476,-232.9192 1139.7399,-231.9259 1144.3848,-230.595 1157.7211,-227.425 1172.5271,-224.6322 1178.8594,-223.7499 1184.0089,-223.2846 1200.4204,-222.2033 1218.7144,-222.3469 1279.1625,-225.7884 1310.6733,-241.8914 1333.4285,-242.511 1345.3136,-243.5566 1349.1466,-242.8157 1355.928,-241.6464 1364.9248,-240.4695 1374.0557,-239.4653 1382.6499,-238.6995 1386.3159,-238.4494 1390.045,-238.3502 1392.4835,-238.3868 1407.1946,-230.0429 1413.8235,-226.4752 1427.7202,-219.7945 1474.3652,-200.0749 1554.3097,-125.0374 1556.3879,-122.1198 1566.83,-95.7984 1568.6011,-91.605 1573.377,-81.5382 1525.5879,16.7219 1505.8613,35.8898 1429.3862,24.0873 1412.1254,22.3451 1399.4669,21.7482 1381.6442,22.3443 1388.3003,-92.2857 1382.4662,-88.6488 1382.4662,-88.6488 1388.3003,-92.2857 1381.6442,22.3443 1375.2408,22.7299 1375.1086,22.7449 1374.9313,22.7699 1357.6592,25.6679 1348.3323,27.4826 1342.9873,28.808 1334.2048,31.2216 1332.0829,31.8613 1327.0536,33.5127 1270.7028,15.515 1244.2542,20.2609 1220.5215,14.9593 1217.9114,-90.427 1217.9114,-90.427 1220.5215,14.9593 1209.2372,12.7642 1199.4844,11.4335 1183.7213,10.1967 1174.2869,10.0049 1171.7338,10.0271 1168.2371,10.1586 1165.8503,10.3176 1152.8629,11.5609 1151.0559,11.7862 1130.0613,15.6305 1121.5168,17.9354 1077.3224,77.4508 1015.6492,91.885 1000.9891,96.2262 991.6215,99.5777 986.423,101.7607 974.1249,97.7317 963.8226,94.9721 962.1641,94.6262 881.8234,80.2217 856.8207,64.8496 838.1747,33.2248 839.9279,30.4626 853.0815,10.7775 873.5663,-21.9446 882.0552,-36.7097 957.443,-23.4101 959.7757,-97.3882 963.853,-18.2203 968.7059,-18.2203 972.1201,-72.698 975.665,-18.2894 977.9626,-18.2894 981.0262,-21.2332 986.844,-23.0815 992.3041,-21.3584 995.6252,-76.5104 999.0097,-18.2957 1004.4897,-18.2957 1005.317,-18.0271 1007.9997,-18.0271 1009.4107,-19.121 1009.4107,-19.121 1007.9997,-18.0271 1005.317,-18.0271 1004.4897,-18.2957 999.0097,-18.2957 995.6252,-76.5104 992.3041,-21.3584 986.844,-23.0815 981.0262,-21.2332 977.9626,-18.2894 975.665,-18.2894 972.1201,-72.698 968.7059,-18.2203 963.853,-18.2203 959.7757,-97.3882 957.443,-23.4101 882.0552,-36.7097 873.5663,-21.9446 853.0815,10.7775 839.9279,30.4626 838.1747,33.2248 817.5476,24.9706 814.864,23.9727 813.0778,23.3586 802.363,20.2634 790.4263,17.1455 781.1249,15.2345 770.5898,13.6543 755.204,12.199 755.204,12.199"/>
<polyline fill="none" stroke="#000000" points="270.6182,-248.0367 253.0796,-253.5733 232.8378,-260.8498 189.0809,-239.0242 135.9648,-235.4343 126.2695,-234.9882 123.6667,-233.3762 116.3353,-229.267 100.2816,-221.1977 93.2152,-218.0627 87.5618,-215.7201 70.8426,-209.7626 69.1738,-209.2177 65.1449,-208.1369 48.6833,-204.1964 -61.179,-184.3586 -67.8172,-95.3503 -68.269,-91.8209 -72.2412,-66.1703 -30.7819,-20.1097 9.8551,9.3957 54.9415,18.1419 55.561,18.316 61.5971,20.1927 75.3281,21.3544 83.3246,22.2469 85.8217,22.7284 94.3029,24.5973 102.6499,21.7588 112.9258,18.8658 121.7727,16.6349 140.4291,13.5642 186.2319,7.3767 194.919,4.7926 245.9451,18.4242 265.6568,24.2703 268.2636,25.1921 282.2895,30.9745 292.8979,35.9659 302.9179,41.2671 309.4157,44.8941 318.7792,45.3232 354.9072,49.351 406.2057,14.5657 488.7626,20.2039 499.6075,21.5215 513.431,23.5685 527.1603,26.6926 533.3719,28.4352 544.2626,31.781 548.3345,33.248 568.2813,40.9708 590.0948,49.9779 610.4156,50.7254 651.9122,13.5263 651.4881,-90.7897 651.5696,-92.0869 651.4771,-114.6625 651.4626,-115.0488 651.0372,-219.677 620.0506,-228.7531 556.2325,-211.0788 554.016,-210.5971 532.9362,-206.6363 532.2222,-206.5452 522.0359,-205.5475 510.1891,-205.0938 493.475,-205.4517 403.8398,-215.3912 383.4912,-234.4345 318.4773,-239.2448 308.9279,-240.3709 294.3435,-242.7331 289.5819,-243.7134 270.6182,-248.0367 "/>
<polyline fill="none" stroke="#000000" points="1157.7211,-227.425 1144.3848,-230.595 1139.7399,-231.9259 1136.5476,-232.9192 1081.0302,-303.7391 1027.3153,-342.7478 1019.2841,-341.6887 1010.3364,-338.7095 1005.6827,-337.3615 983.5529,-331.898 967.3804,-328.9569 961.4864,-328.1406 945.5638,-326.2794 829.1252,-252.4555 823.726,-252.3495 814.3295,-252.5364 805.8297,-253.0411 799.8865,-253.5112 797.8876,-253.7087 797.179,-253.7928 766.3708,-258.6768 756.5295,-261.0119 752.3678,-262.1649 739.264,-256.4107 651.0372,-219.677 651.4626,-115.0488 651.4771,-114.6625 651.5696,-92.0869 651.4881,-90.7897 651.9122,13.5263 748.7354,11.9464 755.204,12.199 770.5898,13.6543 781.1249,15.2345 790.4263,17.1455 802.363,20.2634 813.0778,23.3586 814.864,23.9727 817.5476,24.9706 838.1747,33.2248 856.8207,64.8496 881.8234,80.2217 962.1641,94.6262 963.8226,94.9721 974.1249,97.7317 986.423,101.7607 991.6215,99.5777 1000.9891,96.2262 1015.6492,91.885 1077.3224,77.4508 1121.5168,17.9354 1130.0613,15.6305 1151.0559,11.7862 1152.8629,11.5609 1165.8503,10.3176 1168.2371,10.1586 1171.7338,10.0271 1174.2869,10.0049 1183.7213,10.1967 1199.4844,11.4335 1209.2372,12.7642 1220.5215,14.9593 1244.2542,20.2609 1270.7028,15.515 1327.0536,33.5127 1332.0829,31.8613 1334.2048,31.2216 1342.9873,28.808 1348.3323,27.4826 1357.6592,25.6679 1374.9313,22.7699 1375.1086,22.7449 1375.2408,22.7299 1381.6442,22.3443 1399.4669,21.7482 1412.1254,22.3451 1429.3862,24.0873 1505.8613,35.8898 1525.5879,16.7219 1573.377,-81.5382 1568.6011,-91.605 1566.83,-95.7984 1556.3879,-122.1198 1554.3097,-125.0374 1474.3652,-200.0749 1427.7202,-219.7945 1413.8235,-226.4752 1407.1946,-230.0429 1392.4835,-238.3868 1390.045,-238.3502 1386.3159,-238.4494 1382.6499,-238.6995 1374.0557,-239.4653 1364.9248,-240.4695 1355.928,-241.6464 1349.1466,-242.8157 1345.3136,-243.5566 1333.4285,-242.511 1310.6733,-241.8914 1279.1625,-225.7884 1218.7144,-222.3469 1200.4204,-222.2033 1184.0089,-223.2846 1178.8594,-223.7499 1172.5271,-224.6322 1157.7211,-227.425 "/>
<!-- curl&#45;minimal&#45;&gt;libcurl&#45;minimal -->
<g id="edge1" class="edge">
<title>curl&#45;minimal&#45;&gt;libcurl&#45;minimal</title>
<path fill="none" stroke="#444444" stroke-opacity="0.333333" d="M210.8011,-95.9472C204.8178,-95.8584 198.7174,-95.7678 192.5964,-95.677"/>
<polygon fill="#444444" fill-opacity="0.333333" stroke="#444444" stroke-opacity="0.333333" points="192.3435,-92.1729 182.2926,-95.5241 192.2395,-99.1722 192.3435,-92.1729"/>
</g>
<!-- kernel&#45;devel&#45;&gt;curl&#45;minimal -->
<g id="edge2" class="edge">
<title>kernel&#45;devel&#45;&gt;curl&#45;minimal</title>
<path fill="none" stroke="#444444" stroke-opacity="0.333333" d="M447.9933,-98.2996C423.8957,-98.1161 397.0706,-97.9117 372.3069,-97.7231"/>
<polygon fill="#444444" fill-opacity="0.333333" stroke="#444444" stroke-opacity="0.333333" points="372.2276,-94.2225 362.2012,-97.6461 372.1742,-101.2222 372.2276,-94.2225"/>
</g>
<!-- systemtap&#45;client&#45;&gt;avahi&#45;libs -->
<g id="edge3" class="edge">
<title>systemtap&#45;client&#45;&gt;avahi&#45;libs</title>
<path fill="none" stroke="#444444" stroke-opacity="0.333333" d="M1129.8196,-78.922C1102.7045,-67.3718 1067.4037,-52.3347 1038.6582,-40.09"/>
<polygon fill="#444444" fill-opacity="0.333333" stroke="#444444" stroke-opacity="0.333333" points="1039.754,-36.7525 1029.1823,-36.0536 1037.0107,-43.1926 1039.754,-36.7525"/>
</g>
<!-- systemtap&#45;client&#45;&gt;systemtap&#45;runtime -->
<g id="edge4" class="edge">
<title>systemtap&#45;client&#45;&gt;systemtap&#45;runtime</title>
<path fill="none" stroke="#444444" stroke-opacity="0.333333" d="M1269.489,-95.1497C1269.6465,-95.1466 1269.804,-95.1435 1269.9615,-95.1404"/>
<polygon fill="#444444" fill-opacity="0.333333" stroke="#444444" stroke-opacity="0.333333" points="1267.1284,-98.6969 1277.0575,-95.0007 1266.9906,-91.6983 1267.1284,-98.6969"/>
</g>
<!-- systemtap&#45;devel&#45;&gt;kernel&#45;devel -->
<g id="edge5" class="edge">
<title>systemtap&#45;devel&#45;&gt;kernel&#45;devel</title>
<path fill="none" stroke="#444444" stroke-opacity="0.333333" d="M695.6771,-99.355C667.896,-99.2778 637.4643,-99.1931 610.029,-99.1169"/>
<polygon fill="#444444" fill-opacity="0.333333" stroke="#444444" stroke-opacity="0.333333" points="609.6824,-95.616 599.6727,-99.0881 609.6629,-102.6159 609.6824,-95.616"/>
</g>
<!-- systemtap&#45;devel&#45;&gt;avahi&#45;libs -->
<g id="edge6" class="edge">
<title>systemtap&#45;devel&#45;&gt;avahi&#45;libs</title>
<path fill="none" stroke="#444444" stroke-opacity="0.333333" d="M831.3421,-81.4973C861.3483,-69.2412 901.1597,-52.9801 932.9821,-39.9821"/>
<polygon fill="#444444" fill-opacity="0.333333" stroke="#444444" stroke-opacity="0.333333" points="934.6478,-43.0825 942.5819,-36.0611 932.0008,-36.6022 934.6478,-43.0825"/>
</g>
<!-- systemtap&#45;&gt;systemtap&#45;client -->
<g id="edge7" class="edge">
<title>systemtap&#45;&gt;systemtap&#45;client</title>
<path fill="none" stroke="#444444" stroke-opacity="0.333333" d="M1027.8946,-162.0267C1055.7312,-149.512 1093.0234,-132.7461 1122.7509,-119.3812"/>
<polygon fill="#444444" fill-opacity="0.333333" stroke="#444444" stroke-opacity="0.333333" points="1124.4298,-122.4639 1132.1153,-115.1712 1121.5595,-116.0795 1124.4298,-122.4639"/>
</g>
<!-- systemtap&#45;&gt;systemtap&#45;devel -->
<g id="edge8" class="edge">
<title>systemtap&#45;&gt;systemtap&#45;devel</title>
<path fill="none" stroke="#444444" stroke-opacity="0.333333" d="M942.7753,-161.982C912.9029,-150.0209 873.5281,-134.2551 841.8398,-121.567"/>
<polygon fill="#444444" fill-opacity="0.333333" stroke="#444444" stroke-opacity="0.333333" points="842.8558,-118.2037 832.2713,-117.7358 840.2537,-124.7022 842.8558,-118.2037"/>
</g>
<!-- curl&#45;minimal -->
<g id="node1" class="node">
<title>curl&#45;minimal</title>
<text text-anchor="middle" x="286.32" y="-93.368" font-family="monospace" font-size="14.00" fill="#000000">curl&#45;minimal</text>
</g>
<!-- libcurl&#45;minimal -->
<g id="node2" class="node">
<title>libcurl&#45;minimal</title>
<text text-anchor="middle" x="90.992" y="-90.469" font-family="monospace" font-size="14.00" fill="#000000">libcurl&#45;minimal</text>
</g>
<!-- kernel&#45;devel -->
<g id="node3" class="node">
<title>kernel&#45;devel</title>
<text text-anchor="middle" x="523.78" y="-95.177" font-family="monospace" font-size="14.00" fill="#000000">kernel&#45;devel</text>
</g>
<!-- systemtap&#45;client -->
<g id="node4" class="node">
<title>systemtap&#45;client</title>
<text text-anchor="middle" x="1172.4" y="-93.36" font-family="monospace" font-size="14.00" fill="#000000">systemtap&#45;client</text>
</g>
<!-- avahi&#45;libs -->
<g id="node5" class="node">
<title>avahi&#45;libs</title>
<text text-anchor="middle" x="986.8" y="-14.3" font-family="monospace" font-size="14.00" fill="#000000">avahi&#45;libs</text>
</g>
<!-- systemtap&#45;runtime -->
<g id="node6" class="node">
<title>systemtap&#45;runtime</title>
<text text-anchor="middle" x="1379.3" y="-89.289" font-family="monospace" font-size="14.00" fill="#000000">systemtap&#45;runtime</text>
</g>
<!-- systemtap&#45;devel -->
<g id="node7" class="node">
<title>systemtap&#45;devel</title>
<text text-anchor="middle" x="787" y="-95.909" font-family="monospace" font-size="14.00" fill="#000000">systemtap&#45;devel</text>
</g>
<!-- systemtap -->
<g id="node8" class="node">
<title>systemtap</title>
<text text-anchor="middle" x="987.85" y="-176.33" font-family="monospace" font-size="14.00" fill="#000000">systemtap</text>
</g>
</g>
</svg>
