<?xml version="1.0" encoding="UTF-8" standalone="no"?>
<!DOCTYPE svg PUBLIC "-//W3C//DTD SVG 1.1//EN"
 "http://www.w3.org/Graphics/SVG/1.1/DTD/svg11.dtd">
<!-- Generated by graphviz version 2.40.1 (20161225.0304)
 -->
<!-- Title: G Pages: 1 -->
<svg width="2134pt" height="1268pt"
 viewBox="0.00 0.00 2134.04 1267.74" xmlns="http://www.w3.org/2000/svg" xmlns:xlink="http://www.w3.org/1999/xlink">
<g id="graph0" class="graph" transform="scale(1 1) rotate(0) translate(119.8312 1076.8362)">
<title>G</title>
<polygon fill="#dae2ff" stroke="transparent" points="-119.8312,190.9063 -119.8312,-1076.8362 2014.2041,-1076.8362 2014.2041,190.9063 -119.8312,190.9063"/>
<polygon fill="#bbd7d9" stroke="#bbd7d9" points="539.1608,-752.4176 508.8523,-663.8499 502.1136,-633.3438 501.6946,-630.6248 501.6258,-630.3095 492.1427,-597.0213 454.5833,-487.2651 443.0315,-448.8863 442.1024,-448.8865 429.1922,-449.0807 428.8833,-449.0807 428.4487,-449.0871 428.1799,-449.0951 407.787,-448.4733 397.6545,-448.0123 391.5907,-447.5547 353.1436,-444.0767 250.8077,-373.2263 241.9427,-372.2625 233.3796,-371.4465 227.5533,-370.9695 227.5168,-370.967 219.8132,-370.5431 211.053,-370.2957 209.4101,-370.2713 182.7674,-369.5194 156.9754,-367.0653 139.6818,-364.7265 129.8398,-363.0013 114.4187,-359.6768 107.7336,-365.6876 100.3914,-371.9492 91.4338,-379.1801 71.0112,-394.743 -59.8467,-485.367 -82.1169,-548.2967 -92.1711,-574.9796 -115.8312,-634.3209 -108.121,-647.5226 -66.7856,-721.1841 -64.4089,-731.3088 -54.4298,-777.2947 -28.7971,-816.1489 113.8005,-849.0275 130.9895,-853.645 140.6261,-856.4146 141.9186,-856.8589 154.5082,-861.4291 164.8671,-865.3856 172.539,-868.6049 178.0811,-868.9634 186.7428,-869.6623 203.9468,-872.1522 204.9834,-871.0656 215.2174,-860.99 216.4599,-859.628 223.873,-852.0297 225.5508,-792.6965 225.5508,-792.6965 223.873,-852.0297 247.9384,-829.8325 246.133,-786.1088 246.133,-786.1088 247.9384,-829.8325 336.0693,-754.971 385.5962,-756.9644 386.0985,-756.9539 400.9164,-757.1024 403.6645,-757.2149 404.0708,-757.2191 408.3531,-757.0009 410.1356,-757.0201 419.0384,-756.8434 427.7203,-757.2081 430.7964,-757.0546 431.2618,-680.817 427.6485,-656.5884 431.1927,-652.9309 428.4665,-650.1753 428.4665,-650.1753 431.1927,-652.9309 427.6485,-656.5884 431.2618,-680.817 430.7964,-757.0546 435.5217,-757.1106 443.2203,-756.9659 451.2421,-757.3112 451.9053,-757.2991 458.7729,-756.9638 531.4014,-755.6616 539.1608,-752.4176 539.1608,-752.4176"/>
<polygon fill="#fed9a6" stroke="#fed9a6" points="1992.3519,-465.4315 1998.5616,-523.25 2010.2041,-595.7683 1890.7545,-716.8495 1858.3182,-731.7054 1848.4894,-732.0085 1838.9191,-729.0363 1814.5568,-721.8545 1802.084,-718.5817 1792.7986,-716.4464 1792.2578,-557.211 1796.0104,-523.3016 1795.1378,-523.025 1789.9916,-523.025 1788.9076,-521.6784 1783.9165,-518.6803 1783.9165,-518.6803 1788.9076,-521.6784 1789.9916,-523.025 1788.4751,-525.0062 1784.1436,-527.6339 1777.48,-527.6339 1772.3989,-524.5426 1771.6165,-523.5811 1771.6165,-523.5811 1772.3989,-524.5426 1777.48,-527.6339 1784.1436,-527.6339 1788.4751,-525.0062 1789.9916,-523.025 1795.1378,-523.025 1796.0104,-523.3016 1792.2578,-557.211 1792.7986,-716.4464 1780.3709,-713.9903 1769.3629,-712.1713 1763.9298,-711.3616 1753.2747,-710.1183 1747.2011,-709.5081 1738.9523,-708.8128 1727.0801,-708.1963 1656.7399,-678.0184 1646.6355,-676.801 1641.1064,-510.2604 1660.6515,-507.6098 1660.6515,-507.6098 1641.1064,-510.2604 1646.6355,-676.801 1632.8676,-675.389 1618.7993,-674.4524 1609.0313,-674.1538 1588.3688,-674.6376 1570.5095,-676.0201 1524.7374,-681.2065 1456.0393,-665.7523 1464.0272,-543.0828 1571.6152,-508.6715 1571.1943,-648.0678 1577.8162,-504.0544 1582.0907,-504.0544 1582.0907,-504.0544 1577.8162,-504.0544 1571.1943,-648.0678 1571.6152,-508.6715 1464.0272,-543.0828 1456.0393,-665.7523 1360.5612,-700.4865 1360.024,-700.7007 1332.7278,-712.0704 1318.4651,-718.7498 1294.9514,-730.1651 1269.536,-729.2443 1164.6584,-622.6481 1159.545,-607.03 1157.7886,-600.6844 1201.1172,-502.9204 1214.5361,-468.0218 1235.7911,-407.7151 1242.1304,-392.3809 1291.7776,-280.3601 1301.2249,-278.9543 1333.3597,-243.606 1444.7443,-116.689 1474.8308,-112.8983 1508.5243,-127.587 1524.1624,-133.728 1535.8589,-137.8107 1533.1259,-299.5164 1527.3622,-297.6031 1527.3622,-297.6031 1533.1259,-299.5164 1535.8589,-137.8107 1539.8113,-139.1037 1548.1895,-141.6615 1645.4037,-169.2105 1700.2472,-263.4903 1702.6292,-269.2362 1725.4492,-321.3783 1730.2925,-331.4937 1746.519,-335.9976 1764.1337,-339.6971 1777.6591,-341.8541 1795.6782,-344.1201 1798.7623,-344.4035 1814.8069,-345.6067 1824.0918,-345.8319 1824.9095,-345.838 1933.2676,-398.0686 1992.3519,-465.4315 1992.3519,-465.4315"/>
<polygon fill="#bbd7d9" stroke="#bbd7d9" points="700.4088,-639.5574 696.4407,-643.3225 694.04,-710.9675 691.1339,-714.2071 640.9743,-715.9191 660.7758,-642.2099 661.9711,-626.454 661.8343,-620.27 691.0165,-511.6421 705.0473,-452.6198 719.3697,-380.0346 732.4399,-372.7918 766.6523,-353.2367 783.6,-288.1693 833.6312,-229.169 1044.7004,-217.1662 1059.8593,-215.807 1081.8687,-212.7496 1088.6421,-211.5876 1106.0197,-208.0376 1105.684,-227.0856 1108.6547,-402.7495 1102.9866,-402.7495 1101.4799,-347.5983 1096.1458,-402.5386 1091.8669,-402.5386 1091.8593,-402.5289 1085.1544,-398.1044 1079.8315,-398.1044 1079.8315,-398.1044 1085.1544,-398.1044 1091.8593,-402.5289 1091.8669,-402.5386 1090.4901,-404.3297 1086.1428,-406.9855 1079.6772,-406.9855 1073.0342,-402.5746 1072.9155,-402.6123 1069.2963,-402.6123 1064.0585,-359.0029 1060.5724,-264.6459 1056.4309,-402.3286 1051.84,-402.3286 1051.84,-402.3286 1056.4309,-402.3286 1060.5724,-264.6459 1064.0585,-359.0029 1069.2963,-402.6123 1072.9155,-402.6123 1073.0342,-402.5746 1079.6772,-406.9855 1086.1428,-406.9855 1090.4901,-404.3297 1091.8669,-402.5386 1096.1458,-402.5386 1101.4799,-347.5983 1102.9866,-402.7495 1108.6547,-402.7495 1105.684,-227.0856 1106.0197,-208.0376 1114.3464,-205.9291 1114.6133,-223.8699 1114.6133,-223.8699 1114.3464,-205.9291 1119.4681,-204.464 1291.7776,-280.3601 1242.1304,-392.3809 1235.7911,-407.7151 1214.5361,-468.0218 1201.1172,-502.9204 1157.7886,-600.6844 1159.545,-607.03 1164.6584,-622.6481 1269.536,-729.2443 1229.8633,-786.22 1149.7877,-913.6284 1146.6554,-916.2684 1100.0347,-940.7142 1030.9756,-947.0618 1028.5837,-947.3282 1030.3678,-788.7233 1030.3678,-788.7233 1028.5837,-947.3282 1021.4644,-948.2597 1013.4528,-949.7783 997.1873,-953.1819 1001.1956,-789.5435 1006.7248,-791.2802 1012.256,-789.4953 1018.1838,-855.9025 1018.1838,-855.9025 1012.256,-789.4953 1006.7248,-791.2802 1001.1956,-789.5435 997.1873,-953.1819 996.6979,-953.2938 992.9946,-821.1686 992.9946,-821.1686 996.6979,-953.2938 973.6183,-959.48 926.2537,-974.0035 890.5129,-975.8929 886.4233,-974.202 882.2585,-819.4854 881.5098,-806.9507 880.8676,-783.4033 881.3964,-769.4589 881.0934,-758.2059 801.2903,-744.6484 788.8331,-743.5145 788.4066,-743.5098 785.2157,-743.2383 784.1465,-743.2325 777.3102,-743.7415 775.2456,-743.7419 772.3261,-743.9753 771.6793,-743.9792 765.2493,-743.5409 762.455,-743.5734 762.1096,-743.552 757.9691,-743.6239 751.4953,-743.259 743.9362,-742.2758 729.1428,-738.158 712.659,-729.9029 703.524,-724.0094 703.2916,-723.8429 691.1339,-714.2071 694.04,-710.9675 696.4407,-643.3225 700.4088,-639.5574 702.8286,-641.3252 702.8286,-641.3252 700.4088,-639.5574 700.4088,-639.5574"/>
<polygon fill="#d8d6da" stroke="#d8d6da" points="378.2358,-1039.0345 385.8098,-867.2284 391.362,-862.5395 391.374,-862.5356 393.4059,-860.8944 396.6509,-860.8944 402.0144,-938.0142 403.2179,-861.0652 408.3667,-861.0652 409.6189,-860.6436 411.6238,-860.6436 414.9613,-857.4905 420.0956,-855.9211 425.8962,-857.8007 429.4308,-861.3974 431.6615,-861.3974 434.4237,-919.7125 438.5238,-861.0545 442.4658,-861.0545 442.4658,-861.0545 438.5238,-861.0545 434.4237,-919.7125 431.6615,-861.3974 429.4308,-861.3974 425.8962,-857.8007 420.0956,-855.9211 414.9613,-857.4905 411.6238,-860.6436 415.2872,-864.3862 420.0978,-865.9088 420.0978,-865.9088 415.2872,-864.3862 411.6238,-860.6436 409.6189,-860.6436 408.3667,-861.0652 403.2179,-861.0652 402.0144,-938.0142 396.6509,-860.8944 393.4059,-860.8944 391.374,-862.5356 391.362,-862.5395 385.8098,-867.2284 378.2358,-1039.0345 393.8279,-1036.7588 404.6386,-1035.3728 407.5045,-1035.1071 420.5195,-1034.3597 433.1353,-1034.0819 454.1436,-1034.3634 458.6335,-1034.6617 510.8717,-1053.2004 542.7981,-1053.1255 555.7794,-1053.33 576.2914,-1054.7678 583.9292,-1055.4412 585.8142,-1055.6753 589.0414,-938.7613 587.2402,-889.417 593.7855,-885.068 593.2781,-884.4117 587.3077,-880.513 581.7957,-880.513 581.7957,-880.513 587.3077,-880.513 593.2781,-884.4117 593.7855,-885.068 587.2402,-889.417 589.0414,-938.7613 585.8142,-1055.6753 596.4415,-1057.3812 604.0115,-1058.7339 612.0305,-1060.3119 633.5413,-1065.3253 663.4813,-1072.8362 784.7112,-983.8246 792.0604,-983.0221 886.4233,-974.202 882.2585,-819.4854 881.5098,-806.9507 880.8676,-783.4033 881.3964,-769.4589 881.0934,-758.2059 801.2903,-744.6484 788.8331,-743.5145 788.4066,-743.5098 785.2157,-743.2383 784.1465,-743.2325 777.3102,-743.7415 775.2456,-743.7419 772.3261,-743.9753 771.6793,-743.9792 768.0297,-791.1602 763.1577,-791.1602 763.1019,-791.1778 757.3551,-791.1778 757.1908,-791.1257 752.3789,-791.1257 751.028,-792.8502 746.2303,-795.7587 740.4697,-795.7587 734.7135,-792.0421 733.3621,-878.5987 728.4102,-791.4517 722.5737,-791.4517 721.9064,-791.2415 718.7291,-791.2415 717.525,-791.6194 711.9681,-791.6194 711.346,-791.4233 707.4221,-791.4233 707.1539,-791.8633 707.1539,-791.8633 707.4221,-791.4233 711.346,-791.4233 711.9681,-791.6194 717.525,-791.6194 718.7291,-791.2415 721.9064,-791.2415 722.5737,-791.4517 728.4102,-791.4517 733.3621,-878.5987 734.7135,-792.0421 740.4697,-795.7587 746.2303,-795.7587 751.028,-792.8502 752.3789,-791.1257 751.6832,-790.2579 746.2535,-786.8632 746.2535,-786.8632 751.6832,-790.2579 752.3789,-791.1257 757.1908,-791.1257 757.3551,-791.1778 763.1019,-791.1778 763.1577,-791.1602 768.0297,-791.1602 771.6793,-743.9792 765.2493,-743.5409 762.455,-743.5734 762.1096,-743.552 757.9691,-743.6239 751.4953,-743.259 743.9362,-742.2758 729.1428,-738.158 712.659,-729.9029 703.524,-724.0094 703.2916,-723.8429 691.1339,-714.2071 640.9743,-715.9191 660.7758,-642.2099 661.9711,-626.454 661.8343,-620.27 691.0165,-511.6421 705.0473,-452.6198 719.3697,-380.0346 627.0917,-412.2674 625.6678,-571.2525 625.6678,-571.2525 627.0917,-412.2674 617.7943,-415.2161 601.3813,-419.8955 591.1843,-422.6374 574.8983,-426.2264 571.1318,-426.8741 539.8619,-431.2506 508.7183,-435.1023 499.0262,-436.4578 489.5012,-437.9437 487.3568,-438.3127 475.7769,-440.6806 466.3044,-442.7706 459.5678,-444.3652 450.0988,-446.7588 443.0315,-448.8863 454.5833,-487.2651 492.1427,-597.0213 501.6258,-630.3095 501.6946,-630.6248 502.1136,-633.3438 508.8523,-663.8499 539.1608,-752.4176 531.4014,-755.6616 458.7729,-756.9638 451.9053,-757.2991 451.2421,-757.3112 443.2203,-756.9659 435.5217,-757.1106 430.7964,-757.0546 427.7203,-757.2081 419.0384,-756.8434 410.1356,-757.0201 408.3531,-757.0009 404.0708,-757.2191 403.6645,-757.2149 400.9164,-757.1024 386.0985,-756.9539 385.5962,-756.9644 336.0693,-754.971 247.9384,-829.8325 223.873,-852.0297 216.4599,-859.628 215.2174,-860.99 204.9834,-871.0656 203.9468,-872.1522 324.5895,-1037.5555 337.6695,-1045.6682 378.2358,-1039.0345 378.2358,-1039.0345"/>
<polygon fill="#fbb4ae" stroke="#fbb4ae" points="41.0509,-174.9146 53.595,-206.3377 104.8756,-342.5157 114.4187,-359.6768 129.8398,-363.0013 139.6818,-364.7265 156.9754,-367.0653 182.7674,-369.5194 209.4101,-370.2713 211.053,-370.2957 219.8132,-370.5431 227.5168,-370.967 227.5533,-370.9695 233.3796,-371.4465 241.9427,-372.2625 250.8077,-373.2263 353.1436,-444.0767 391.5907,-447.5547 397.6545,-448.0123 407.787,-448.4733 428.1799,-449.0951 428.4487,-449.0871 428.8833,-449.0807 429.1922,-449.0807 442.1024,-448.8865 443.0315,-448.8863 450.0988,-446.7588 459.5678,-444.3652 466.3044,-442.7706 475.7769,-440.6806 487.3568,-438.3127 489.5012,-437.9437 499.0262,-436.4578 508.7183,-435.1023 539.8619,-431.2506 571.1318,-426.8741 574.8983,-426.2264 591.1843,-422.6374 601.3813,-419.8955 617.7943,-415.2161 627.0917,-412.2674 719.3697,-380.0346 732.4399,-372.7918 766.6523,-353.2367 783.6,-288.1693 833.6312,-229.169 833.2955,-213.2522 827.9626,-185.4396 793.2126,-46.1251 790.1326,-31.3844 773.3476,57.6406 725.1209,108.7688 659.8939,131.9248 633.6308,134.5153 621.7686,136.0943 623.126,-40.868 622.2546,-41.1487 617.9759,-41.1487 617.3416,-41.3513 611.932,-41.3513 611.7249,-41.2848 611.7249,-41.2848 611.932,-41.3513 617.3416,-41.3513 617.9759,-41.1487 622.2546,-41.1487 623.126,-40.868 621.7686,136.0943 619.1833,136.4828 612.0425,134.0385 608.9211,133.1454 589.4825,127.9433 594.9871,-40.2138 589.2686,-36.7046 583.3947,-36.7046 577.0764,-40.7118 576.7255,-41.1372 577.4725,-42.0525 583.6877,-45.9273 588.5022,-45.9273 588.5022,-45.9273 583.6877,-45.9273 577.4725,-42.0525 576.7255,-41.1372 577.0764,-40.7118 583.3947,-36.7046 589.2686,-36.7046 594.9871,-40.2138 589.4825,127.9433 584.4258,126.6858 574.8577,124.8438 566.2659,123.3505 559.3456,122.2777 551.4647,121.2039 543.434,120.2609 537.0389,119.7502 507.2253,117.9284 418.7001,147.8337 415.5942,148.9456 404.583,153.3375 397.1732,156.4436 384.9944,161.7954 382.0316,163.1563 373.8936,167.2226 370.2559,169.1137 368.6844,-13.0028 363.1856,-14.6996 359.9471,-17.7331 363.135,-20.9067 363.135,-20.9067 359.9471,-17.7331 363.1856,-14.6996 368.6844,-13.0028 370.2559,169.1137 359.5903,174.8749 355.277,177.291 345.3951,183.2268 339.6581,186.9063 334.2884,184.6304 315.2622,177.2133 210.4305,139.9668 178.2187,110.7133 145.4565,16.6307 128.3594,1.9708 86.3506,-59.6652 53.9888,-116.3828 52.307,-125.3941 41.0509,-174.9146 41.0509,-174.9146"/>
<polyline fill="none" stroke="#000000" points="129.8398,-363.0013 114.4187,-359.6768 107.7336,-365.6876 100.3914,-371.9492 91.4338,-379.1801 71.0112,-394.743 -59.8467,-485.367 -82.1169,-548.2967 -92.1711,-574.9796 -115.8312,-634.3209 -108.121,-647.5226 -66.7856,-721.1841 -64.4089,-731.3088 -54.4298,-777.2947 -28.7971,-816.1489 113.8005,-849.0275 130.9895,-853.645 140.6261,-856.4146 141.9186,-856.8589 154.5082,-861.4291 164.8671,-865.3856 172.539,-868.6049 178.0811,-868.9634 186.7428,-869.6623 203.9468,-872.1522 204.9834,-871.0656 215.2174,-860.99 216.4599,-859.628 223.873,-852.0297 247.9384,-829.8325 336.0693,-754.971 385.5962,-756.9644 386.0985,-756.9539 400.9164,-757.1024 403.6645,-757.2149 404.0708,-757.2191 408.3531,-757.0009 410.1356,-757.0201 419.0384,-756.8434 427.7203,-757.2081 430.7964,-757.0546 435.5217,-757.1106 443.2203,-756.9659 451.2421,-757.3112 451.9053,-757.2991 458.7729,-756.9638 531.4014,-755.6616 539.1608,-752.4176 508.8523,-663.8499 502.1136,-633.3438 501.6946,-630.6248 501.6258,-630.3095 492.1427,-597.0213 454.5833,-487.2651 443.0315,-448.8863 442.1024,-448.8865 429.1922,-449.0807 428.8833,-449.0807 428.4487,-449.0871 428.1799,-449.0951 407.787,-448.4733 397.6545,-448.0123 391.5907,-447.5547 353.1436,-444.0767 250.8077,-373.2263 241.9427,-372.2625 233.3796,-371.4465 227.5533,-370.9695 227.5168,-370.967 219.8132,-370.5431 211.053,-370.2957 209.4101,-370.2713 182.7674,-369.5194 156.9754,-367.0653 139.6818,-364.7265 129.8398,-363.0013 "/>
<polyline fill="none" stroke="#000000" points="1609.0313,-674.1538 1618.7993,-674.4524 1632.8676,-675.389 1646.6355,-676.801 1656.7399,-678.0184 1727.0801,-708.1963 1738.9523,-708.8128 1747.2011,-709.5081 1753.2747,-710.1183 1763.9298,-711.3616 1769.3629,-712.1713 1780.3709,-713.9903 1792.7986,-716.4464 1802.084,-718.5817 1814.5568,-721.8545 1838.9191,-729.0363 1848.4894,-732.0085 1858.3182,-731.7054 1890.7545,-716.8495 2010.2041,-595.7683 1998.5616,-523.25 1992.3519,-465.4315 1933.2676,-398.0686 1824.9095,-345.838 1824.0918,-345.8319 1814.8069,-345.6067 1798.7623,-344.4035 1795.6782,-344.1201 1777.6591,-341.8541 1764.1337,-339.6971 1746.519,-335.9976 1730.2925,-331.4937 1725.4492,-321.3783 1702.6292,-269.2362 1700.2472,-263.4903 1645.4037,-169.2105 1548.1895,-141.6615 1539.8113,-139.1037 1535.8589,-137.8107 1524.1624,-133.728 1508.5243,-127.587 1474.8308,-112.8983 1444.7443,-116.689 1333.3597,-243.606 1301.2249,-278.9543 1291.7776,-280.3601 1242.1304,-392.3809 1235.7911,-407.7151 1214.5361,-468.0218 1201.1172,-502.9204 1157.7886,-600.6844 1159.545,-607.03 1164.6584,-622.6481 1269.536,-729.2443 1294.9514,-730.1651 1318.4651,-718.7498 1332.7278,-712.0704 1360.024,-700.7007 1360.5612,-700.4865 1456.0393,-665.7523 1524.7374,-681.2065 1570.5095,-676.0201 1588.3688,-674.6376 1609.0313,-674.1538 "/>
<polyline fill="none" stroke="#000000" points="881.3964,-769.4589 880.8676,-783.4033 881.5098,-806.9507 882.2585,-819.4854 886.4233,-974.202 890.5129,-975.8929 926.2537,-974.0035 973.6183,-959.48 996.6979,-953.2938 997.1873,-953.1819 1013.4528,-949.7783 1021.4644,-948.2597 1028.5837,-947.3282 1030.9756,-947.0618 1100.0347,-940.7142 1146.6554,-916.2684 1149.7877,-913.6284 1229.8633,-786.22 1269.536,-729.2443 1164.6584,-622.6481 1159.545,-607.03 1157.7886,-600.6844 1201.1172,-502.9204 1214.5361,-468.0218 1235.7911,-407.7151 1242.1304,-392.3809 1291.7776,-280.3601 1119.4681,-204.464 1114.3464,-205.9291 1106.0197,-208.0376 1088.6421,-211.5876 1081.8687,-212.7496 1059.8593,-215.807 1044.7004,-217.1662 833.6312,-229.169 783.6,-288.1693 766.6523,-353.2367 732.4399,-372.7918 719.3697,-380.0346 705.0473,-452.6198 691.0165,-511.6421 661.8343,-620.27 661.9711,-626.454 660.7758,-642.2099 640.9743,-715.9191 691.1339,-714.2071 703.2916,-723.8429 703.524,-724.0094 712.659,-729.9029 729.1428,-738.158 743.9362,-742.2758 751.4953,-743.259 757.9691,-743.6239 762.1096,-743.552 762.455,-743.5734 765.2493,-743.5409 771.6793,-743.9792 772.3261,-743.9753 775.2456,-743.7419 777.3102,-743.7415 784.1465,-743.2325 785.2157,-743.2383 788.4066,-743.5098 788.8331,-743.5145 801.2903,-744.6484 881.0934,-758.2059 881.3964,-769.4589 "/>
<polyline fill="none" stroke="#000000" points="574.8983,-426.2264 571.1318,-426.8741 539.8619,-431.2506 508.7183,-435.1023 499.0262,-436.4578 489.5012,-437.9437 487.3568,-438.3127 475.7769,-440.6806 466.3044,-442.7706 459.5678,-444.3652 450.0988,-446.7588 443.0315,-448.8863 454.5833,-487.2651 492.1427,-597.0213 501.6258,-630.3095 501.6946,-630.6248 502.1136,-633.3438 508.8523,-663.8499 539.1608,-752.4176 531.4014,-755.6616 458.7729,-756.9638 451.9053,-757.2991 451.2421,-757.3112 443.2203,-756.9659 435.5217,-757.1106 430.7964,-757.0546 427.7203,-757.2081 419.0384,-756.8434 410.1356,-757.0201 408.3531,-757.0009 404.0708,-757.2191 403.6645,-757.2149 400.9164,-757.1024 386.0985,-756.9539 385.5962,-756.9644 336.0693,-754.971 247.9384,-829.8325 223.873,-852.0297 216.4599,-859.628 215.2174,-860.99 204.9834,-871.0656 203.9468,-872.1522 324.5895,-1037.5555 337.6695,-1045.6682 378.2358,-1039.0345 393.8279,-1036.7588 404.6386,-1035.3728 407.5045,-1035.1071 420.5195,-1034.3597 433.1353,-1034.0819 454.1436,-1034.3634 458.6335,-1034.6617 510.8717,-1053.2004 542.7981,-1053.1255 555.7794,-1053.33 576.2914,-1054.7678 583.9292,-1055.4412 585.8142,-1055.6753 596.4415,-1057.3812 604.0115,-1058.7339 612.0305,-1060.3119 633.5413,-1065.3253 663.4813,-1072.8362 784.7112,-983.8246 792.0604,-983.0221 886.4233,-974.202 882.2585,-819.4854 881.5098,-806.9507 880.8676,-783.4033 881.3964,-769.4589 881.0934,-758.2059 801.2903,-744.6484 788.8331,-743.5145 788.4066,-743.5098 785.2157,-743.2383 784.1465,-743.2325 777.3102,-743.7415 775.2456,-743.7419 772.3261,-743.9753 771.6793,-743.9792 765.2493,-743.5409 762.455,-743.5734 762.1096,-743.552 757.9691,-743.6239 751.4953,-743.259 743.9362,-742.2758 729.1428,-738.158 712.659,-729.9029 703.524,-724.0094 703.2916,-723.8429 691.1339,-714.2071 640.9743,-715.9191 660.7758,-642.2099 661.9711,-626.454 661.8343,-620.27 691.0165,-511.6421 705.0473,-452.6198 719.3697,-380.0346 627.0917,-412.2674 617.7943,-415.2161 601.3813,-419.8955 591.1843,-422.6374 574.8983,-426.2264 "/>
<polyline fill="none" stroke="#000000" points="450.0988,-446.7588 443.0315,-448.8863 442.1024,-448.8865 429.1922,-449.0807 428.8833,-449.0807 428.4487,-449.0871 428.1799,-449.0951 407.787,-448.4733 397.6545,-448.0123 391.5907,-447.5547 353.1436,-444.0767 250.8077,-373.2263 241.9427,-372.2625 233.3796,-371.4465 227.5533,-370.9695 227.5168,-370.967 219.8132,-370.5431 211.053,-370.2957 209.4101,-370.2713 182.7674,-369.5194 156.9754,-367.0653 139.6818,-364.7265 129.8398,-363.0013 114.4187,-359.6768 104.8756,-342.5157 53.595,-206.3377 41.0509,-174.9146 52.307,-125.3941 53.9888,-116.3828 86.3506,-59.6652 128.3594,1.9708 145.4565,16.6307 178.2187,110.7133 210.4305,139.9668 315.2622,177.2133 334.2884,184.6304 339.6581,186.9063 345.3951,183.2268 355.277,177.291 359.5903,174.8749 370.2559,169.1137 373.8936,167.2226 382.0316,163.1563 384.9944,161.7954 397.1732,156.4436 404.583,153.3375 415.5942,148.9456 418.7001,147.8337 507.2253,117.9284 537.0389,119.7502 543.434,120.2609 551.4647,121.2039 559.3456,122.2777 566.2659,123.3505 574.8577,124.8438 584.4258,126.6858 589.4825,127.9433 608.9211,133.1454 612.0425,134.0385 619.1833,136.4828 621.7686,136.0943 633.6308,134.5153 659.8939,131.9248 725.1209,108.7688 773.3476,57.6406 790.1326,-31.3844 793.2126,-46.1251 827.9626,-185.4396 833.2955,-213.2522 833.6312,-229.169 783.6,-288.1693 766.6523,-353.2367 732.4399,-372.7918 719.3697,-380.0346 627.0917,-412.2674 617.7943,-415.2161 601.3813,-419.8955 591.1843,-422.6374 574.8983,-426.2264 571.1318,-426.8741 539.8619,-431.2506 508.7183,-435.1023 499.0262,-436.4578 489.5012,-437.9437 487.3568,-438.3127 475.7769,-440.6806 466.3044,-442.7706 459.5678,-444.3652 450.0988,-446.7588 "/>
<!-- aajohan&#45;comfortaa&#45;fonts&#45;&gt;fontpackages&#45;filesystem -->
<g id="edge1" class="edge">
<title>aajohan&#45;comfortaa&#45;fonts&#45;&gt;fontpackages&#45;filesystem</title>
<path fill="none" stroke="#444444" stroke-opacity="0.333333" d="M142.7397,-605.9852C149.7715,-620.3789 159.7157,-640.7346 167.6955,-657.0688"/>
<polygon fill="#444444" fill-opacity="0.333333" stroke="#444444" stroke-opacity="0.333333" points="164.5956,-658.6973 172.1299,-666.1461 170.8852,-655.6246 164.5956,-658.6973"/>
</g>
<!-- curl&#45;minimal&#45;&gt;libcurl&#45;minimal -->
<g id="edge2" class="edge">
<title>curl&#45;minimal&#45;&gt;libcurl&#45;minimal</title>
<path fill="none" stroke="#444444" stroke-opacity="0.333333" d="M1682.1335,-512.3084C1682.2886,-512.3256 1682.4438,-512.3428 1682.599,-512.3601"/>
<polygon fill="#444444" fill-opacity="0.333333" stroke="#444444" stroke-opacity="0.333333" points="1679.2842,-515.5138 1689.609,-513.1374 1680.0558,-508.5564 1679.2842,-515.5138"/>
</g>
<!-- fontconfig&#45;&gt;aajohan&#45;comfortaa&#45;fonts -->
<g id="edge3" class="edge">
<title>fontconfig&#45;&gt;aajohan&#45;comfortaa&#45;fonts</title>
<path fill="none" stroke="#444444" stroke-opacity="0.333333" d="M357.8078,-638.3991C318.2457,-629.4715 267.089,-617.9276 223.6614,-608.1277"/>
<polygon fill="#444444" fill-opacity="0.333333" stroke="#444444" stroke-opacity="0.333333" points="224.1881,-604.6586 213.6629,-605.8715 222.6472,-611.4869 224.1881,-604.6586"/>
</g>
<!-- fontconfig&#45;&gt;fontpackages&#45;filesystem -->
<g id="edge4" class="edge">
<title>fontconfig&#45;&gt;fontpackages&#45;filesystem</title>
<path fill="none" stroke="#444444" stroke-opacity="0.333333" d="M357.8396,-661.3703C347.5668,-662.6949 336.5993,-664.1091 325.348,-665.5598"/>
<polygon fill="#444444" fill-opacity="0.333333" stroke="#444444" stroke-opacity="0.333333" points="324.8681,-662.0926 315.3978,-666.8428 325.7634,-669.0352 324.8681,-662.0926"/>
</g>
<!-- libX11&#45;&gt;libX11&#45;common -->
<g id="edge5" class="edge">
<title>libX11&#45;&gt;libX11&#45;common</title>
<path fill="none" stroke="#444444" stroke-opacity="0.333333" d="M956.4456,-588.8953C980.9724,-552.6915 1036.0981,-471.321 1064.6689,-429.148"/>
<polygon fill="#444444" fill-opacity="0.333333" stroke="#444444" stroke-opacity="0.333333" points="1067.6308,-431.0162 1070.3419,-420.7741 1061.8355,-427.09 1067.6308,-431.0162"/>
</g>
<!-- libX11&#45;&gt;libxcb -->
<g id="edge6" class="edge">
<title>libX11&#45;&gt;libxcb</title>
<path fill="none" stroke="#444444" stroke-opacity="0.333333" d="M987.1894,-594.4582C1060.634,-573.0002 1209.963,-529.3713 1289.7096,-506.072"/>
<polygon fill="#444444" fill-opacity="0.333333" stroke="#444444" stroke-opacity="0.333333" points="1290.9315,-509.3614 1299.5486,-503.1974 1288.9683,-502.6423 1290.9315,-509.3614"/>
</g>
<!-- libxcb&#45;&gt;curl&#45;minimal -->
<g id="edge7" class="edge">
<title>libxcb&#45;&gt;curl&#45;minimal</title>
<path fill="none" stroke="#444444" stroke-opacity="0.333333" d="M1385.9494,-492.7746C1422.4228,-494.617 1475.732,-497.3097 1520.791,-499.5857"/>
<polygon fill="#444444" fill-opacity="0.333333" stroke="#444444" stroke-opacity="0.333333" points="1520.6982,-503.0854 1530.8621,-500.0944 1521.0514,-496.0943 1520.6982,-503.0854"/>
</g>
<!-- libxcb&#45;&gt;libXau -->
<g id="edge8" class="edge">
<title>libxcb&#45;&gt;libXau</title>
<path fill="none" stroke="#444444" stroke-opacity="0.333333" d="M1360.381,-472.5686C1393.34,-438.9751 1464.2454,-366.7046 1502.0937,-328.1277"/>
<polygon fill="#444444" fill-opacity="0.333333" stroke="#444444" stroke-opacity="0.333333" points="1504.6965,-330.4724 1509.2015,-320.883 1499.6998,-325.57 1504.6965,-330.4724"/>
</g>
<!-- libXft&#45;&gt;fontconfig -->
<g id="edge9" class="edge">
<title>libXft&#45;&gt;fontconfig</title>
<path fill="none" stroke="#444444" stroke-opacity="0.333333" d="M737.1442,-690.8068C677.7829,-683.6756 570.0362,-670.7318 497.3982,-662.0057"/>
<polygon fill="#444444" fill-opacity="0.333333" stroke="#444444" stroke-opacity="0.333333" points="497.7364,-658.5212 487.3903,-660.8034 496.9015,-665.4712 497.7364,-658.5212"/>
</g>
<!-- libXft&#45;&gt;libX11 -->
<g id="edge10" class="edge">
<title>libXft&#45;&gt;libX11</title>
<path fill="none" stroke="#444444" stroke-opacity="0.333333" d="M813.4515,-677.9876C838.9107,-664.1666 874.2479,-644.9831 901.7617,-630.0467"/>
<polygon fill="#444444" fill-opacity="0.333333" stroke="#444444" stroke-opacity="0.333333" points="903.6483,-633.0051 910.767,-625.1581 900.3086,-626.8531 903.6483,-633.0051"/>
</g>
<!-- libXft&#45;&gt;libXrender -->
<g id="edge11" class="edge">
<title>libXft&#45;&gt;libXrender</title>
<path fill="none" stroke="#444444" stroke-opacity="0.333333" d="M823.447,-713.174C859.909,-727.6922 912.3495,-748.5726 951.8327,-764.2937"/>
<polygon fill="#444444" fill-opacity="0.333333" stroke="#444444" stroke-opacity="0.333333" points="950.9886,-767.7248 961.574,-768.1724 953.5781,-761.2214 950.9886,-767.7248"/>
</g>
<!-- libXrender&#45;&gt;libX11 -->
<g id="edge12" class="edge">
<title>libXrender&#45;&gt;libX11</title>
<path fill="none" stroke="#444444" stroke-opacity="0.333333" d="M1000.5389,-768.0522C989.5472,-736.6592 966.9313,-672.0665 953.9318,-634.939"/>
<polygon fill="#444444" fill-opacity="0.333333" stroke="#444444" stroke-opacity="0.333333" points="957.146,-633.5275 950.538,-625.2459 950.5393,-635.8407 957.146,-633.5275"/>
</g>
<!-- python3&#45;debug&#45;&gt;libX11 -->
<g id="edge13" class="edge">
<title>python3&#45;debug&#45;&gt;libX11</title>
<path fill="none" stroke="#444444" stroke-opacity="0.333333" d="M671.4018,-617.2491C738.662,-614.7291 832.6035,-611.2095 890.8431,-609.0276"/>
<polygon fill="#444444" fill-opacity="0.333333" stroke="#444444" stroke-opacity="0.333333" points="891.0719,-612.5215 900.9338,-608.6495 890.8098,-605.5264 891.0719,-612.5215"/>
</g>
<!-- python3&#45;debug&#45;&gt;python3&#45;devel -->
<g id="edge14" class="edge">
<title>python3&#45;debug&#45;&gt;python3&#45;devel</title>
<path fill="none" stroke="#444444" stroke-opacity="0.333333" d="M584.7521,-602.1733C564.6624,-541.761 499.8025,-346.7185 475.4003,-273.338"/>
<polygon fill="#444444" fill-opacity="0.333333" stroke="#444444" stroke-opacity="0.333333" points="478.5805,-271.8093 472.1037,-263.4246 471.9381,-274.0182 478.5805,-271.8093"/>
</g>
<!-- python3&#45;debug&#45;&gt;python3&#45;test -->
<g id="edge15" class="edge">
<title>python3&#45;debug&#45;&gt;python3&#45;test</title>
<path fill="none" stroke="#444444" stroke-opacity="0.333333" d="M577.9706,-638.3631C548.1995,-680.4472 474.1888,-785.0679 439.2758,-834.4205"/>
<polygon fill="#444444" fill-opacity="0.333333" stroke="#444444" stroke-opacity="0.333333" points="436.3459,-832.5018 433.428,-842.6869 442.0605,-836.5445 436.3459,-832.5018"/>
</g>
<!-- python3&#45;debug&#45;&gt;python3&#45;tkinter -->
<g id="edge16" class="edge">
<title>python3&#45;debug&#45;&gt;python3&#45;tkinter</title>
<path fill="none" stroke="#444444" stroke-opacity="0.333333" d="M607.0741,-638.5657C634.2209,-669.0285 688.7727,-730.244 719.9195,-765.1955"/>
<polygon fill="#444444" fill-opacity="0.333333" stroke="#444444" stroke-opacity="0.333333" points="717.667,-767.9287 726.9331,-773.0658 722.8931,-763.2715 717.667,-767.9287"/>
</g>
<!-- python3&#45;debug&#45;&gt;python3&#45;tools -->
<g id="edge17" class="edge">
<title>python3&#45;debug&#45;&gt;python3&#45;tools</title>
<path fill="none" stroke="#444444" stroke-opacity="0.333333" d="M590.3404,-638.4646C589.27,-683.8006 586.4778,-802.0621 585.1893,-856.6335"/>
<polygon fill="#444444" fill-opacity="0.333333" stroke="#444444" stroke-opacity="0.333333" points="581.6897,-856.5782 584.9526,-866.6581 588.6878,-856.7435 581.6897,-856.5782"/>
</g>
<!-- python3&#45;debug&#45;&gt;tk -->
<g id="edge18" class="edge">
<title>python3&#45;debug&#45;&gt;tk</title>
<path fill="none" stroke="#444444" stroke-opacity="0.333333" d="M671.4422,-631.8653C671.5283,-631.8777 671.6143,-631.8901 671.7003,-631.9024"/>
<polygon fill="#444444" fill-opacity="0.333333" stroke="#444444" stroke-opacity="0.333333" points="669.034,-635.055 679.4302,-633.0135 670.0299,-628.1262 669.034,-635.055"/>
</g>
<!-- python3&#45;devel&#45;&gt;python3&#45;rpm&#45;generators -->
<g id="edge19" class="edge">
<title>python3&#45;devel&#45;&gt;python3&#45;rpm&#45;generators</title>
<path fill="none" stroke="#444444" stroke-opacity="0.333333" d="M428.0113,-227.0038C396.6642,-212.0961 352.0364,-190.8725 318.4293,-174.89"/>
<polygon fill="#444444" fill-opacity="0.333333" stroke="#444444" stroke-opacity="0.333333" points="319.7968,-171.6647 309.2628,-170.5307 316.7904,-177.9863 319.7968,-171.6647"/>
</g>
<!-- python3&#45;devel&#45;&gt;python3&#45;rpm&#45;macros -->
<g id="edge20" class="edge">
<title>python3&#45;devel&#45;&gt;python3&#45;rpm&#45;macros</title>
<path fill="none" stroke="#444444" stroke-opacity="0.333333" d="M458.2036,-226.8717C441.1983,-187.1782 400.687,-92.6171 380.5301,-45.5669"/>
<polygon fill="#444444" fill-opacity="0.333333" stroke="#444444" stroke-opacity="0.333333" points="383.7087,-44.0986 376.5535,-36.2849 377.2744,-46.8552 383.7087,-44.0986"/>
</g>
<!-- python3&#45;devel&#45;&gt;python&#45;rpm&#45;macros -->
<g id="edge21" class="edge">
<title>python3&#45;devel&#45;&gt;python&#45;rpm&#45;macros</title>
<path fill="none" stroke="#444444" stroke-opacity="0.333333" d="M476.6678,-226.9767C497.9203,-190.931 545.6314,-110.0099 570.4841,-67.8582"/>
<polygon fill="#444444" fill-opacity="0.333333" stroke="#444444" stroke-opacity="0.333333" points="573.5021,-69.6307 575.5661,-59.2388 567.4721,-66.0754 573.5021,-69.6307"/>
</g>
<!-- python3&#45;test&#45;&gt;python3&#45;tools -->
<g id="edge22" class="edge">
<title>python3&#45;test&#45;&gt;python3&#45;tools</title>
<path fill="none" stroke="#444444" stroke-opacity="0.333333" d="M496.2578,-872.0721C496.4152,-872.0951 496.5726,-872.1181 496.7301,-872.1412"/>
<polygon fill="#444444" fill-opacity="0.333333" stroke="#444444" stroke-opacity="0.333333" points="493.4259,-875.1951 503.8272,-873.1791 494.439,-868.2688 493.4259,-875.1951"/>
</g>
<!-- python3&#45;tkinter&#45;&gt;libX11 -->
<g id="edge23" class="edge">
<title>python3&#45;tkinter&#45;&gt;libX11</title>
<path fill="none" stroke="#444444" stroke-opacity="0.333333" d="M763.1315,-772.8948C799.3336,-739.7251 875.7421,-669.7169 916.76,-632.1349"/>
<polygon fill="#444444" fill-opacity="0.333333" stroke="#444444" stroke-opacity="0.333333" points="919.2207,-634.6272 924.2295,-625.2911 914.4919,-629.466 919.2207,-634.6272"/>
</g>
<!-- python3&#45;tkinter&#45;&gt;tk -->
<g id="edge24" class="edge">
<title>python3&#45;tkinter&#45;&gt;tk</title>
<path fill="none" stroke="#444444" stroke-opacity="0.333333" d="M738.8441,-773.2243C732.5331,-746.6497 720.6665,-696.6802 713.1865,-665.1825"/>
<polygon fill="#444444" fill-opacity="0.333333" stroke="#444444" stroke-opacity="0.333333" points="716.5482,-664.1901 710.8323,-655.2693 709.7376,-665.8075 716.5482,-664.1901"/>
</g>
<!-- python3&#45;tools&#45;&gt;python3&#45;tkinter -->
<g id="edge25" class="edge">
<title>python3&#45;tools&#45;&gt;python3&#45;tkinter</title>
<path fill="none" stroke="#444444" stroke-opacity="0.333333" d="M615.0997,-866.9041C640.3318,-851.9891 676.3083,-830.723 703.7014,-814.5307"/>
<polygon fill="#444444" fill-opacity="0.333333" stroke="#444444" stroke-opacity="0.333333" points="705.8067,-817.3521 712.6342,-809.2505 702.2447,-811.3261 705.8067,-817.3521"/>
</g>
<!-- tk&#45;&gt;fontconfig -->
<g id="edge26" class="edge">
<title>tk&#45;&gt;fontconfig</title>
<path fill="none" stroke="#444444" stroke-opacity="0.333333" d="M679.2514,-638.4457C637.7981,-640.7996 557.3522,-645.3679 497.5235,-648.7654"/>
<polygon fill="#444444" fill-opacity="0.333333" stroke="#444444" stroke-opacity="0.333333" points="497.144,-645.2812 487.3586,-649.3426 497.541,-652.2699 497.144,-645.2812"/>
</g>
<!-- tk&#45;&gt;libX11 -->
<g id="edge27" class="edge">
<title>tk&#45;&gt;libX11</title>
<path fill="none" stroke="#444444" stroke-opacity="0.333333" d="M733.7361,-633.4735C771.8734,-628.6809 841.935,-619.8764 890.6888,-613.7496"/>
<polygon fill="#444444" fill-opacity="0.333333" stroke="#444444" stroke-opacity="0.333333" points="891.2642,-617.2049 900.7498,-612.4853 890.3914,-610.2595 891.2642,-617.2049"/>
</g>
<!-- tk&#45;&gt;libXft -->
<g id="edge28" class="edge">
<title>tk&#45;&gt;libXft</title>
<path fill="none" stroke="#444444" stroke-opacity="0.333333" d="M729.0195,-654.95C735.5413,-660.1704 742.7717,-665.9581 749.6964,-671.501"/>
<polygon fill="#444444" fill-opacity="0.333333" stroke="#444444" stroke-opacity="0.333333" points="747.63,-674.3301 757.6242,-677.8469 752.0044,-668.8653 747.63,-674.3301"/>
</g>
<!-- aajohan&#45;comfortaa&#45;fonts -->
<g id="node1" class="node">
<title>aajohan&#45;comfortaa&#45;fonts</title>
<text text-anchor="middle" x="133.89" y="-584.17" font-family="monospace" font-size="14.00" fill="#000000">aajohan&#45;comfortaa&#45;fonts</text>
</g>
<!-- fontpackages&#45;filesystem -->
<g id="node2" class="node">
<title>fontpackages&#45;filesystem</title>
<text text-anchor="middle" x="180.94" y="-680.48" font-family="monospace" font-size="14.00" fill="#000000">fontpackages&#45;filesystem</text>
</g>
<!-- curl&#45;minimal -->
<g id="node3" class="node">
<title>curl&#45;minimal</title>
<text text-anchor="middle" x="1606.4" y="-500.21" font-family="monospace" font-size="14.00" fill="#000000">curl&#45;minimal</text>
</g>
<!-- libcurl&#45;minimal -->
<g id="node4" class="node">
<title>libcurl&#45;minimal</title>
<text text-anchor="middle" x="1780.8" y="-519.55" font-family="monospace" font-size="14.00" fill="#000000">libcurl&#45;minimal</text>
</g>
<!-- fontconfig -->
<g id="node5" class="node">
<title>fontconfig</title>
<text text-anchor="middle" x="422.6" y="-649.32" font-family="monospace" font-size="14.00" fill="#000000">fontconfig</text>
</g>
<!-- libX11 -->
<g id="node6" class="node">
<title>libX11</title>
<text text-anchor="middle" x="944.16" y="-603.33" font-family="monospace" font-size="14.00" fill="#000000">libX11</text>
</g>
<!-- libX11&#45;common -->
<g id="node7" class="node">
<title>libX11&#45;common</title>
<text text-anchor="middle" x="1082.6" y="-398.98" font-family="monospace" font-size="14.00" fill="#000000">libX11&#45;common</text>
</g>
<!-- libxcb -->
<g id="node8" class="node">
<title>libxcb</title>
<text text-anchor="middle" x="1342.7" y="-486.89" font-family="monospace" font-size="14.00" fill="#000000">libxcb</text>
</g>
<!-- libXau -->
<g id="node9" class="node">
<title>libXau</title>
<text text-anchor="middle" x="1527.1" y="-298.94" font-family="monospace" font-size="14.00" fill="#000000">libXau</text>
</g>
<!-- libXft -->
<g id="node10" class="node">
<title>libXft</title>
<text text-anchor="middle" x="780.29" y="-692.29" font-family="monospace" font-size="14.00" fill="#000000">libXft</text>
</g>
<!-- libXrender -->
<g id="node11" class="node">
<title>libXrender</title>
<text text-anchor="middle" x="1006.9" y="-782.52" font-family="monospace" font-size="14.00" fill="#000000">libXrender</text>
</g>
<!-- python3&#45;debug -->
<g id="node12" class="node">
<title>python3&#45;debug</title>
<text text-anchor="middle" x="590.77" y="-616.57" font-family="monospace" font-size="14.00" fill="#000000">python3&#45;debug</text>
</g>
<!-- python3&#45;devel -->
<g id="node13" class="node">
<title>python3&#45;devel</title>
<text text-anchor="middle" x="466" y="-241.37" font-family="monospace" font-size="14.00" fill="#000000">python3&#45;devel</text>
</g>
<!-- python3&#45;test -->
<g id="node14" class="node">
<title>python3&#45;test</title>
<text text-anchor="middle" x="420.48" y="-857.29" font-family="monospace" font-size="14.00" fill="#000000">python3&#45;test</text>
</g>
<!-- python3&#45;tkinter -->
<g id="node15" class="node">
<title>python3&#45;tkinter</title>
<text text-anchor="middle" x="743.12" y="-787.53" font-family="monospace" font-size="14.00" fill="#000000">python3&#45;tkinter</text>
</g>
<!-- python3&#45;tools -->
<g id="node16" class="node">
<title>python3&#45;tools</title>
<text text-anchor="middle" x="584.52" y="-881.28" font-family="monospace" font-size="14.00" fill="#000000">python3&#45;tools</text>
</g>
<!-- tk -->
<g id="node17" class="node">
<title>tk</title>
<text text-anchor="middle" x="706.47" y="-633.2" font-family="monospace" font-size="14.00" fill="#000000">tk</text>
</g>
<!-- python3&#45;rpm&#45;generators -->
<g id="node18" class="node">
<title>python3&#45;rpm&#45;generators</title>
<text text-anchor="middle" x="271.37" y="-148.81" font-family="monospace" font-size="14.00" fill="#000000">python3&#45;rpm&#45;generators</text>
</g>
<!-- python3&#45;rpm&#45;macros -->
<g id="node19" class="node">
<title>python3&#45;rpm&#45;macros</title>
<text text-anchor="middle" x="368.72" y="-14.3" font-family="monospace" font-size="14.00" fill="#000000">python3&#45;rpm&#45;macros</text>
</g>
<!-- python&#45;rpm&#45;macros -->
<g id="node20" class="node">
<title>python&#45;rpm&#45;macros</title>
<text text-anchor="middle" x="586.21" y="-37.486" font-family="monospace" font-size="14.00" fill="#000000">python&#45;rpm&#45;macros</text>
</g>
</g>
</svg>
