<?xml version="1.0" encoding="UTF-8" standalone="no"?>
<!DOCTYPE svg PUBLIC "-//W3C//DTD SVG 1.1//EN"
 "http://www.w3.org/Graphics/SVG/1.1/DTD/svg11.dtd">
<!-- Generated by graphviz version 2.40.1 (20161225.0304)
 -->
<!-- Title: G Pages: 1 -->
<svg width="1999pt" height="1697pt"
 viewBox="0.00 0.00 1999.43 1697.43" xmlns="http://www.w3.org/2000/svg" xmlns:xlink="http://www.w3.org/1999/xlink">
<g id="graph0" class="graph" transform="scale(1 1) rotate(0) translate(126.455 1498.5541)">
<title>G</title>
<polygon fill="#dae2ff" stroke="transparent" points="-126.455,198.8726 -126.455,-1498.5541 1872.9767,-1498.5541 1872.9767,198.8726 -126.455,198.8726"/>
<polygon fill="#fed9a6" stroke="#fed9a6" points="215.642,-1083.3838 211.0703,-1083.5668 203.6435,-1083.5719 184.8488,-1085.1207 184.6274,-1085.157 167.5591,-1088.6543 -41.5819,-1139.9484 -33.3793,-1152.3062 -7.2787,-1193.2664 58.7571,-1301.8419 155.0537,-1367.594 168.6267,-1389.0338 310.9456,-1494.5541 320.812,-1491.2473 336.706,-1486.1951 350.0603,-1482.4164 360.1713,-1479.7329 373.1607,-1476.7413 372.6533,-1356.5344 375.8759,-1273.354 381.8979,-1275.5013 389.4072,-1272.6381 391.2475,-1270.6555 388.4873,-1267.5073 382.5396,-1265.3488 382.5396,-1265.3488 388.4873,-1267.5073 391.2475,-1270.6555 389.4072,-1272.6381 381.8979,-1275.5013 375.8759,-1273.354 372.6533,-1356.5344 373.1607,-1476.7413 386.5177,-1474.1337 397.4128,-1472.3888 405.2116,-1471.2765 418.9844,-1469.7947 448.3801,-1468.1753 559.1466,-1464.0201 567.5184,-1466.3363 572.5067,-1467.8728 583.9431,-1465.8346 585.8824,-1287.7604 582.5984,-1235.0221 582.5984,-1235.0221 585.8824,-1287.7604 590.3386,-1234.7426 595.4899,-1234.7426 602.4796,-1357.7452 602.4422,-1234.8151 601.8481,-1234.6005 605.4323,-1181.1338 605.0883,-1114.8392 604.4408,-1114.809 600.239,-1114.7385 597.4084,-1114.8604 587.3018,-1115.0013 580.8863,-1114.9039 576.3185,-1114.9712 575.1932,-1114.8896 574.906,-1114.8774 573.1443,-1114.8551 554.6136,-1115.1733 551.3419,-1115.327 538.8718,-1116.6587 470.0654,-1126.0592 446.7022,-1117.1289 409.8383,-1065.1108 421.059,-1047.4835 414.1411,-917.7216 420.629,-920.0435 420.629,-920.0435 414.1411,-917.7216 421.059,-1047.4835 423.0071,-1044.5892 434.5519,-1029.2341 441.1975,-1020.9257 455.2203,-1005.5588 466.3107,-995.15 468.6504,-992.3157 533.2733,-927.3069 538.0087,-923.2259 545.2025,-916.335 560.3423,-900.3856 561.1739,-899.2773 568.956,-889.9617 573.0491,-890.163 585.7939,-890.349 589.0658,-890.1708 589.0643,-888.4257 586.8726,-826.2386 586.8726,-826.2386 589.0643,-888.4257 589.0658,-890.1708 592.8073,-890.3461 603.4979,-890.1086 608.9247,-890.1718 615.3568,-889.8016 615.7891,-889.7914 623.611,-890.1354 624.4819,-890.2032 624.7771,-890.216 638.5457,-890.3353 640.5049,-890.2847 640.7484,-890.27 642.2196,-890.231 910.3368,-873.8753 812.4445,-978.1121 804.3121,-986.0073 790.9662,-999.7386 786.6151,-1003.7625 774.4443,-1015.7812 668.8186,-1114.0033 671.1285,-1116.9417 680.0272,-1127.5959 682.7748,-1130.6741 684.6397,-1132.6257 696.7405,-1146.6014 713.2772,-1164.196 780.6066,-1154.3724 782.5581,-1232.8851 788.7754,-1153.1351 795.5917,-1155.8684 795.5917,-1155.8684 788.7754,-1153.1351 782.5581,-1232.8851 780.6066,-1154.3724 713.2772,-1164.196 696.7405,-1146.6014 684.6397,-1132.6257 682.7748,-1130.6741 680.0272,-1127.5959 671.1285,-1116.9417 668.8186,-1114.0033 664.7526,-1114.3846 659.8781,-1114.7 648.9129,-1114.7726 647.6975,-1114.7452 638.9198,-1114.8105 635.7455,-1114.7418 625.856,-1115.119 624.6116,-1115.0941 624.1431,-1115.1127 607.6841,-1114.8093 605.0883,-1114.8392 605.4323,-1181.1338 601.8481,-1234.6005 602.4422,-1234.8151 608.986,-1234.8151 609.5715,-1234.6045 614.4553,-1234.6045 614.7177,-1234.6995 621.7071,-1234.6995 622.1664,-1234.8704 622.373,-1235.1738 627.9033,-1239.0251 627.9033,-1239.0251 622.373,-1235.1738 622.1664,-1234.8704 621.7071,-1234.6995 614.7177,-1234.6995 614.4553,-1234.6045 609.5715,-1234.6045 608.986,-1234.8151 602.4422,-1234.8151 602.4796,-1357.7452 595.4899,-1234.7426 590.3386,-1234.7426 585.8824,-1287.7604 583.9431,-1465.8346 600.1833,-1463.4237 605.4499,-1461.734 606.2819,-1461.4939 617.7815,-1458.3586 636.1683,-1453.9334 646.4327,-1451.7928 656.3549,-1450.0414 671.588,-1448.0809 675.4357,-1286.2368 675.4357,-1286.2368 671.588,-1448.0809 678.6581,-1447.3967 696.8887,-1441.2742 809.5843,-1407.47 857.8677,-1346.7152 941.8604,-1299.6733 1029.2693,-1150.5 1044.2229,-1127.2694 953.9352,-944.56 914.5084,-871.7479 921.2195,-845.2878 931.5381,-807.1616 1059.9861,-630.9165 1063.4972,-626.2341 966.4714,-553.6937 940.8084,-533.7372 909.8428,-510.423 903.9301,-506.2866 892.0073,-498.5634 887.0161,-495.4603 729.1906,-405.4252 721.4629,-400.8271 719.0635,-586.3552 719.2283,-586.4141 718.6981,-679.2431 712.2717,-586.8625 706.3519,-586.8625 705.9056,-586.7041 701.0794,-586.7041 701.0794,-586.7041 705.9056,-586.7041 706.3519,-586.8625 712.2717,-586.8625 718.6981,-679.2431 719.2283,-586.4141 719.0635,-586.3552 721.4629,-400.8271 708.0978,-392.5483 692.3184,-382.0132 680.6696,-373.1001 691.5536,-320.7854 696.0912,-295.9705 704.2497,-244.0954 707.7645,-224.8665 739.6816,-71.455 523.2067,-21.5884 495.9278,-14.4066 493.7698,-13.8037 473.8548,-6.9346 472.0824,-7.5118 475.4277,-234.1202 476.4227,-234.4713 478.585,-234.4713 481.0747,-231.963 481.0747,-231.963 478.585,-234.4713 480.8962,-236.8292 480.8962,-236.8292 478.585,-234.4713 476.4227,-234.4713 475.4277,-234.1202 472.0824,-7.5118 461.2794,-10.857 454.5623,-12.7219 381.2092,-31.919 361.4234,-42.8845 345.2405,-54.717 269.8476,-171.4578 265.1834,-181.0456 263.8031,-221.184 262.2447,-247.9489 257.7589,-302.6982 126.3081,-396.1566 116.1667,-410.5196 -10.8425,-471.5694 -94.9012,-610.2459 -95.9488,-611.8965 -101.0123,-619.524 -97.7126,-644.1989 -122.455,-736.502 -114.7497,-770.1388 -105.5125,-815.3754 -73.7587,-993.459 -73.6965,-993.43 81.1782,-914.0976 89.4928,-910.4333 101.9568,-905.3837 104.2255,-904.6277 122.5595,-899.1622 127.7409,-897.8063 131.175,-897.0318 132.3987,-853.2109 137.8971,-793.3268 137.6875,-793.2496 137.6875,-793.2496 137.8971,-793.3268 132.3987,-853.2109 131.175,-897.0318 148.631,-894.3397 148.1555,-869.4162 150.2539,-798.268 156.6687,-795.946 159.2654,-793.1266 156.6985,-790.3902 150.3753,-788.1354 150.3753,-788.1354 156.6985,-790.3902 159.2654,-793.1266 156.6687,-795.946 150.2539,-798.268 148.1555,-869.4162 148.631,-894.3397 156.6535,-893.6789 160.7236,-893.4894 172.1349,-893.3671 172.5627,-847.7288 172.5627,-847.7288 172.1349,-893.3671 174.6313,-893.5195 177.295,-893.5852 181.0487,-893.5414 185.0576,-893.3487 185.592,-844.1148 190.1123,-793.3242 189.8645,-793.2349 186.0813,-731.8568 186.1036,-701.9159 186.7998,-701.8733 188.4114,-701.8391 196.8225,-701.9971 197.1355,-702.0156 201.3596,-702.0961 205.9625,-611.3396 211.196,-611.3396 212.5928,-610.8147 218.0296,-610.8147 218.5758,-611.0209 225.7658,-611.0209 226.3214,-611.2267 231.0135,-611.2267 231.2752,-611.1311 231.7577,-611.1311 238.5303,-606.4232 236.336,-549.1923 288.2783,-576.3145 288.5366,-576.4702 288.5366,-576.4702 288.2783,-576.3145 236.336,-549.1923 238.5303,-606.4232 324.0013,-611.08 328.7203,-611.08 330.514,-612.573 335.9431,-617.8073 348.6224,-630.9044 358.6779,-641.9405 358.6779,-641.9405 348.6224,-630.9044 335.9431,-617.8073 330.514,-612.573 328.7203,-611.08 324.0013,-611.08 238.5303,-606.4232 231.7577,-611.1311 231.2752,-611.1311 231.0135,-611.2267 226.3214,-611.2267 225.7658,-611.0209 218.5758,-611.0209 218.0296,-610.8147 212.5928,-610.8147 211.196,-611.3396 205.9625,-611.3396 201.3596,-702.0961 197.1355,-702.0156 196.8225,-701.9971 188.4114,-701.8391 186.7998,-701.8733 186.1036,-701.9159 186.0813,-731.8568 189.8645,-793.2349 190.1123,-793.3242 185.592,-844.1148 185.0576,-893.3487 198.8155,-893.6758 201.0405,-893.567 203.7019,-893.5322 206.3039,-893.4039 208.5811,-893.3732 209.9152,-893.4028 213.1934,-893.3569 214.9102,-893.2706 220.0252,-893.1964 223.9427,-893.28 234.8947,-893.1159 238.6805,-892.9219 242.2336,-892.6111 246.5966,-892.0707 257.4351,-890.3317 267.1033,-888.4288 272.0964,-887.0825 282.7564,-899.8012 296.661,-915.13 338.6734,-975.2714 369.4834,-1012.6854 375.4131,-1020.4326 382.335,-1028.6273 393.6223,-1044.7433 406.0669,-1063.5405 406.3597,-1063.6483 405.3336,-956.9996 400.9496,-915.375 402.3318,-914.8735 399.3307,-858.9514 399.8458,-819.895 383.4261,-806.6931 377.4213,-801.2033 485.3253,-789.2684 490.184,-785.1742 492.0563,-785.1742 490.8996,-851.2717 498.0954,-852.6035 507.1411,-854.8011 507.5244,-830.1261 504.1874,-785.054 498.5108,-785.054 496.3402,-642.5018 487.9049,-636.5959 500.4866,-599.189 624.309,-590.9773 627.2858,-646.179 631.4866,-586.7363 636.6242,-586.7363 636.7563,-586.6893 643.4575,-586.6893 644.5566,-586.2913 648.5657,-586.2913 648.5657,-586.2913 644.5566,-586.2913 643.4575,-586.6893 636.7563,-586.6893 636.6242,-586.7363 631.4866,-586.7363 627.2858,-646.179 624.309,-590.9773 500.4866,-599.189 487.9049,-636.5959 496.3402,-642.5018 498.5108,-785.054 504.1874,-785.054 507.5244,-830.1261 512.2501,-785.1633 511.9161,-785.0414 511.9161,-785.0414 512.2501,-785.1633 507.5244,-830.1261 507.1411,-854.8011 522.2194,-860.2175 533.2742,-865.4581 533.2742,-865.4581 522.2194,-860.2175 507.1411,-854.8011 498.0954,-852.6035 490.8996,-851.2717 492.0563,-785.1742 490.184,-785.1742 485.3253,-789.2684 377.4213,-801.2033 383.4261,-806.6931 399.8458,-819.895 399.3307,-858.9514 402.3318,-914.8735 400.9496,-915.375 405.3336,-956.9996 406.3597,-1063.6483 406.0669,-1063.5405 310.7505,-1080.8109 299.5421,-1082.4039 291.1237,-1083.2686 285.6753,-1083.6133 275.3073,-1083.4542 275.0341,-1083.4724 268.1776,-1083.6571 263.8778,-1083.6036 263.2464,-1083.6216 260.4185,-1083.5906 253.0835,-1083.8098 251.2941,-1083.7927 249.8092,-1083.8392 240.5512,-1083.3989 231.7797,-1083.7 231.6861,-1083.707 228.1856,-1083.8319 217.95,-1083.391 216.7056,-1083.3882 216.6172,-1083.3845 215.642,-1083.3838 215.642,-1083.3838"/>
<polygon fill="#d8d6da" stroke="#d8d6da" points="1678.9177,-1375.2982 1675.415,-1373.5695 1647.7869,-1360.4482 1644.8513,-1359.168 1643.3661,-1245.8025 1638.7115,-1151.8295 1645.6194,-1149.2118 1648.0222,-1146.5277 1645.7941,-1144.1835 1645.7941,-1144.1835 1648.0222,-1146.5277 1645.6194,-1149.2118 1638.7115,-1151.8295 1643.3661,-1245.8025 1644.8513,-1359.168 1642.998,-1358.4299 1624.8906,-1351.5573 1611.3468,-1346.6755 1547.9132,-1326.251 1475.6439,-1296.7172 1426.3989,-1228.5315 1411.83,-1203.2813 1393.1411,-1157.8438 1389.6852,-1149.915 1292.2852,-1135.1678 1278.7059,-1133.3582 1278.8455,-1009.2422 1282.6538,-944.7286 1282.2201,-944.569 1282.2201,-944.569 1282.6538,-944.7286 1278.8455,-1009.2422 1278.7059,-1133.3582 1260.913,-1131.6345 1255.8602,-1131.2373 1255.49,-1131.215 1250.6936,-1131.0995 1247.0896,-1131.0782 1231.1171,-1131.2749 1219.8898,-1131.6174 1204.2786,-1132.6622 1200.7755,-1132.9602 1199.7776,-1133.0632 1127.0172,-1141.8984 1044.2229,-1127.2694 953.9352,-944.56 914.5084,-871.7479 921.2195,-845.2878 931.5381,-807.1616 1059.9861,-630.9165 1063.4972,-626.2341 1066.5706,-624.9226 1197.4026,-694.3956 1199.939,-695.6992 1224.4205,-707.4595 1232.8761,-711.2304 1247.6632,-717.3204 1264.3824,-723.6341 1283.0337,-729.7193 1430.233,-770.197 1508.3053,-728.1326 1582.0787,-730.6776 1605.0167,-731.0506 1611.642,-731.0372 1629.3767,-730.3541 1721.7048,-763.978 1774.9374,-814.2521 1819.3463,-898.2245 1842.4631,-939.6829 1837.4644,-953.8079 1825.9038,-988.7195 1855.7864,-1146.8 1868.9767,-1201.9309 1822.3188,-1303.8611 1678.9177,-1375.2982 1678.9177,-1375.2982"/>
<polygon fill="#fbb4ae" stroke="#fbb4ae" points="1060.658,179.6242 1075.5425,181.8089 1093.2721,184.7522 1093.0544,176.9842 1084.0582,-13.2524 1077.1644,-13.2524 1071.2209,-17.7558 1076.8833,-22.2804 1076.8833,-22.2804 1071.2209,-17.7558 1077.1644,-13.2524 1084.0582,-13.2524 1093.0544,176.9842 1093.2721,184.7522 1101.1555,186.3621 1098.5162,-13.3217 1098.5162,-13.3217 1101.1555,186.3621 1139.2577,194.8726 1227.9946,191.9828 1228.8264,191.2125 1296.6716,1.1414 1294.0713,-18 1280.8546,-167.5174 1247.6471,-227.4108 1194.7452,-274.9955 1188.4955,-308.28 960.3705,-308.28 927.9849,-303.4067 927.9849,-303.4067 960.3705,-308.28 1188.4955,-308.28 1171.1677,-422.4286 1066.5706,-624.9226 1063.4972,-626.2341 966.4714,-553.6937 940.8084,-533.7372 909.8428,-510.423 903.9301,-506.2866 892.0073,-498.5634 887.0161,-495.4603 729.1906,-405.4252 721.4629,-400.8271 708.0978,-392.5483 692.3184,-382.0132 680.6696,-373.1001 691.5536,-320.7854 696.0912,-295.9705 704.2497,-244.0954 707.7645,-224.8665 739.6816,-71.455 787.8166,-43.781 821.1809,38.7478 821.707,40.1239 869.1003,115.3925 1015.9791,174.7889 1060.658,179.6242 1060.658,179.6242"/>
<polygon fill="#bbd7d9" stroke="#bbd7d9" points="296.661,-915.13 338.6734,-975.2714 369.4834,-1012.6854 375.4131,-1020.4326 382.335,-1028.6273 393.6223,-1044.7433 406.0669,-1063.5405 310.7505,-1080.8109 299.5421,-1082.4039 291.1237,-1083.2686 285.6753,-1083.6133 275.3073,-1083.4542 275.0341,-1083.4724 268.1776,-1083.6571 263.8778,-1083.6036 263.2464,-1083.6216 260.4185,-1083.5906 253.0835,-1083.8098 251.2941,-1083.7927 249.8092,-1083.8392 240.5512,-1083.3989 231.7797,-1083.7 231.6861,-1083.707 228.1856,-1083.8319 217.95,-1083.391 216.7056,-1083.3882 216.6172,-1083.3845 215.642,-1083.3838 211.0703,-1083.5668 203.6435,-1083.5719 184.8488,-1085.1207 184.6274,-1085.157 167.5591,-1088.6543 -41.5819,-1139.9484 -76.8003,-1113.4227 -78.6832,-1109.5078 -84.1909,-1059.975 -75.2895,-998.464 -73.7587,-993.459 -73.6965,-993.43 81.1782,-914.0976 89.4928,-910.4333 101.9568,-905.3837 104.2255,-904.6277 122.5595,-899.1622 127.7409,-897.8063 131.175,-897.0318 148.631,-894.3397 156.6535,-893.6789 160.7236,-893.4894 172.1349,-893.3671 174.6313,-893.5195 177.295,-893.5852 181.0487,-893.5414 185.0576,-893.3487 198.8155,-893.6758 201.0405,-893.567 203.7019,-893.5322 206.3039,-893.4039 208.5811,-893.3732 209.9152,-893.4028 213.1934,-893.3569 214.9102,-893.2706 220.0252,-893.1964 223.9427,-893.28 234.8947,-893.1159 238.6805,-892.9219 242.2336,-892.6111 246.5966,-892.0707 257.4351,-890.3317 267.1033,-888.4288 272.0964,-887.0825 282.7564,-899.8012 296.661,-915.13 296.661,-915.13"/>
<polygon fill="#bbd7d9" stroke="#bbd7d9" points="790.9662,-999.7386 804.3121,-986.0073 812.4445,-978.1121 910.3368,-873.8753 642.2196,-890.231 640.7484,-890.27 640.5049,-890.2847 638.5457,-890.3353 624.7771,-890.216 624.4819,-890.2032 623.611,-890.1354 615.7891,-889.7914 615.3568,-889.8016 608.9247,-890.1718 603.4979,-890.1086 592.8073,-890.3461 589.0658,-890.1708 585.7939,-890.349 573.0491,-890.163 568.956,-889.9617 561.1739,-899.2773 560.3423,-900.3856 545.2025,-916.335 538.0087,-923.2259 533.2733,-927.3069 468.6504,-992.3157 466.3107,-995.15 455.2203,-1005.5588 441.1975,-1020.9257 434.5519,-1029.2341 423.0071,-1044.5892 421.059,-1047.4835 409.8383,-1065.1108 446.7022,-1117.1289 470.0654,-1126.0592 538.8718,-1116.6587 551.3419,-1115.327 554.6136,-1115.1733 573.1443,-1114.8551 574.906,-1114.8774 575.1932,-1114.8896 576.3185,-1114.9712 580.8863,-1114.9039 587.3018,-1115.0013 597.4084,-1114.8604 600.239,-1114.7385 604.4408,-1114.809 605.0883,-1114.8392 607.6841,-1114.8093 624.1431,-1115.1127 624.6116,-1115.0941 625.856,-1115.119 635.7455,-1114.7418 638.9198,-1114.8105 647.6975,-1114.7452 648.9129,-1114.7726 659.8781,-1114.7 664.7526,-1114.3846 668.8186,-1114.0033 774.4443,-1015.7812 786.6151,-1003.7625 790.9662,-999.7386 790.9662,-999.7386"/>
<polyline fill="none" stroke="#aaaaaa" points="692.3184,-382.0132 708.0978,-392.5483 721.4629,-400.8271 729.1906,-405.4252 887.0161,-495.4603 892.0073,-498.5634 903.9301,-506.2866 909.8428,-510.423 940.8084,-533.7372 966.4714,-553.6937 1063.4972,-626.2341 1059.9861,-630.9165 931.5381,-807.1616 921.2195,-845.2878 914.5084,-871.7479 953.9352,-944.56 1044.2229,-1127.2694 1029.2693,-1150.5 941.8604,-1299.6733 857.8677,-1346.7152 809.5843,-1407.47 696.8887,-1441.2742 678.6581,-1447.3967 671.588,-1448.0809 656.3549,-1450.0414 646.4327,-1451.7928 636.1683,-1453.9334 617.7815,-1458.3586 606.2819,-1461.4939 605.4499,-1461.734 600.1833,-1463.4237 583.9431,-1465.8346 572.5067,-1467.8728 567.5184,-1466.3363 559.1466,-1464.0201 448.3801,-1468.1753 418.9844,-1469.7947 405.2116,-1471.2765 397.4128,-1472.3888 386.5177,-1474.1337 373.1607,-1476.7413 360.1713,-1479.7329 350.0603,-1482.4164 336.706,-1486.1951 320.812,-1491.2473 310.9456,-1494.5541 168.6267,-1389.0338 155.0537,-1367.594 58.7571,-1301.8419 -7.2787,-1193.2664 -33.3793,-1152.3062 -41.5819,-1139.9484 167.5591,-1088.6543 184.6274,-1085.157 184.8488,-1085.1207 203.6435,-1083.5719 211.0703,-1083.5668 215.642,-1083.3838 216.6172,-1083.3845 216.7056,-1083.3882 217.95,-1083.391 228.1856,-1083.8319 231.6861,-1083.707 231.7797,-1083.7 240.5512,-1083.3989 249.8092,-1083.8392 251.2941,-1083.7927 253.0835,-1083.8098 260.4185,-1083.5906 263.2464,-1083.6216 263.8778,-1083.6036 268.1776,-1083.6571 275.0341,-1083.4724 275.3073,-1083.4542 285.6753,-1083.6133 291.1237,-1083.2686 299.5421,-1082.4039 310.7505,-1080.8109 406.0669,-1063.5405 393.6223,-1044.7433 382.335,-1028.6273 375.4131,-1020.4326 369.4834,-1012.6854 338.6734,-975.2714 296.661,-915.13 282.7564,-899.8012 272.0964,-887.0825 267.1033,-888.4288 257.4351,-890.3317 246.5966,-892.0707 242.2336,-892.6111 238.6805,-892.9219 234.8947,-893.1159 223.9427,-893.28 220.0252,-893.1964 214.9102,-893.2706 213.1934,-893.3569 209.9152,-893.4028 208.5811,-893.3732 206.3039,-893.4039 203.7019,-893.5322 201.0405,-893.567 198.8155,-893.6758 185.0576,-893.3487 181.0487,-893.5414 177.295,-893.5852 174.6313,-893.5195 172.1349,-893.3671 160.7236,-893.4894 156.6535,-893.6789 148.631,-894.3397 131.175,-897.0318 127.7409,-897.8063 122.5595,-899.1622 104.2255,-904.6277 101.9568,-905.3837 89.4928,-910.4333 81.1782,-914.0976 -73.6965,-993.43 -73.7587,-993.459 -105.5125,-815.3754 -114.7497,-770.1388 -122.455,-736.502 -97.7126,-644.1989 -101.0123,-619.524 -95.9488,-611.8965 -94.9012,-610.2459 -10.8425,-471.5694 116.1667,-410.5196 126.3081,-396.1566 257.7589,-302.6982 262.2447,-247.9489 263.8031,-221.184 265.1834,-181.0456 269.8476,-171.4578 345.2405,-54.717 361.4234,-42.8845 381.2092,-31.919 454.5623,-12.7219 461.2794,-10.857 472.0824,-7.5118 473.8548,-6.9346 493.7698,-13.8037 495.9278,-14.4066 523.2067,-21.5884 739.6816,-71.455 707.7645,-224.8665 704.2497,-244.0954 696.0912,-295.9705 691.5536,-320.7854 680.6696,-373.1001 692.3184,-382.0132 "/>
<polyline fill="none" stroke="#000000" points="615.7891,-889.7914 615.3568,-889.8016 608.9247,-890.1718 603.4979,-890.1086 592.8073,-890.3461 589.0658,-890.1708 585.7939,-890.349 573.0491,-890.163 568.956,-889.9617 561.1739,-899.2773 560.3423,-900.3856 545.2025,-916.335 538.0087,-923.2259 533.2733,-927.3069 468.6504,-992.3157 466.3107,-995.15 455.2203,-1005.5588 441.1975,-1020.9257 434.5519,-1029.2341 423.0071,-1044.5892 421.059,-1047.4835 409.8383,-1065.1108 446.7022,-1117.1289 470.0654,-1126.0592 538.8718,-1116.6587 551.3419,-1115.327 554.6136,-1115.1733 573.1443,-1114.8551 574.906,-1114.8774 575.1932,-1114.8896 576.3185,-1114.9712 580.8863,-1114.9039 587.3018,-1115.0013 597.4084,-1114.8604 600.239,-1114.7385 604.4408,-1114.809 605.0883,-1114.8392 607.6841,-1114.8093 624.1431,-1115.1127 624.6116,-1115.0941 625.856,-1115.119 635.7455,-1114.7418 638.9198,-1114.8105 647.6975,-1114.7452 648.9129,-1114.7726 659.8781,-1114.7 664.7526,-1114.3846 668.8186,-1114.0033 774.4443,-1015.7812 786.6151,-1003.7625 790.9662,-999.7386 804.3121,-986.0073 812.4445,-978.1121 910.3368,-873.8753 642.2196,-890.231 640.7484,-890.27 640.5049,-890.2847 638.5457,-890.3353 624.7771,-890.216 624.4819,-890.2032 623.611,-890.1354 615.7891,-889.7914 "/>
<polyline fill="none" stroke="#000000" points="1231.1171,-1131.2749 1219.8898,-1131.6174 1204.2786,-1132.6622 1200.7755,-1132.9602 1199.7776,-1133.0632 1127.0172,-1141.8984 1044.2229,-1127.2694 953.9352,-944.56 914.5084,-871.7479 921.2195,-845.2878 931.5381,-807.1616 1059.9861,-630.9165 1063.4972,-626.2341 1066.5706,-624.9226 1197.4026,-694.3956 1199.939,-695.6992 1224.4205,-707.4595 1232.8761,-711.2304 1247.6632,-717.3204 1264.3824,-723.6341 1283.0337,-729.7193 1430.233,-770.197 1508.3053,-728.1326 1582.0787,-730.6776 1605.0167,-731.0506 1611.642,-731.0372 1629.3767,-730.3541 1721.7048,-763.978 1774.9374,-814.2521 1819.3463,-898.2245 1842.4631,-939.6829 1837.4644,-953.8079 1825.9038,-988.7195 1855.7864,-1146.8 1868.9767,-1201.9309 1822.3188,-1303.8611 1678.9177,-1375.2982 1675.415,-1373.5695 1647.7869,-1360.4482 1644.8513,-1359.168 1642.998,-1358.4299 1624.8906,-1351.5573 1611.3468,-1346.6755 1547.9132,-1326.251 1475.6439,-1296.7172 1426.3989,-1228.5315 1411.83,-1203.2813 1393.1411,-1157.8438 1389.6852,-1149.915 1292.2852,-1135.1678 1278.7059,-1133.3582 1260.913,-1131.6345 1255.8602,-1131.2373 1255.49,-1131.215 1250.6936,-1131.0995 1247.0896,-1131.0782 1231.1171,-1131.2749 "/>
<polyline fill="none" stroke="#000000" points="903.9301,-506.2866 909.8428,-510.423 940.8084,-533.7372 966.4714,-553.6937 1063.4972,-626.2341 1066.5706,-624.9226 1171.1677,-422.4286 1188.4955,-308.28 1194.7452,-274.9955 1247.6471,-227.4108 1280.8546,-167.5174 1294.0713,-18 1296.6716,1.1414 1228.8264,191.2125 1227.9946,191.9828 1139.2577,194.8726 1101.1555,186.3621 1093.2721,184.7522 1075.5425,181.8089 1060.658,179.6242 1015.9791,174.7889 869.1003,115.3925 821.707,40.1239 821.1809,38.7478 787.8166,-43.781 739.6816,-71.455 707.7645,-224.8665 704.2497,-244.0954 696.0912,-295.9705 691.5536,-320.7854 680.6696,-373.1001 692.3184,-382.0132 708.0978,-392.5483 721.4629,-400.8271 729.1906,-405.4252 887.0161,-495.4603 892.0073,-498.5634 903.9301,-506.2866 "/>
<polyline fill="none" stroke="#000000" points="215.642,-1083.3838 211.0703,-1083.5668 203.6435,-1083.5719 184.8488,-1085.1207 184.6274,-1085.157 167.5591,-1088.6543 -41.5819,-1139.9484 -76.8003,-1113.4227 -78.6832,-1109.5078 -84.1909,-1059.975 -75.2895,-998.464 -73.7587,-993.459 -73.6965,-993.43 81.1782,-914.0976 89.4928,-910.4333 101.9568,-905.3837 104.2255,-904.6277 122.5595,-899.1622 127.7409,-897.8063 131.175,-897.0318 148.631,-894.3397 156.6535,-893.6789 160.7236,-893.4894 172.1349,-893.3671 174.6313,-893.5195 177.295,-893.5852 181.0487,-893.5414 185.0576,-893.3487 198.8155,-893.6758 201.0405,-893.567 203.7019,-893.5322 206.3039,-893.4039 208.5811,-893.3732 209.9152,-893.4028 213.1934,-893.3569 214.9102,-893.2706 220.0252,-893.1964 223.9427,-893.28 234.8947,-893.1159 238.6805,-892.9219 242.2336,-892.6111 246.5966,-892.0707 257.4351,-890.3317 267.1033,-888.4288 272.0964,-887.0825 282.7564,-899.8012 296.661,-915.13 338.6734,-975.2714 369.4834,-1012.6854 375.4131,-1020.4326 382.335,-1028.6273 393.6223,-1044.7433 406.0669,-1063.5405 310.7505,-1080.8109 299.5421,-1082.4039 291.1237,-1083.2686 285.6753,-1083.6133 275.3073,-1083.4542 275.0341,-1083.4724 268.1776,-1083.6571 263.8778,-1083.6036 263.2464,-1083.6216 260.4185,-1083.5906 253.0835,-1083.8098 251.2941,-1083.7927 249.8092,-1083.8392 240.5512,-1083.3989 231.7797,-1083.7 231.6861,-1083.707 228.1856,-1083.8319 217.95,-1083.391 216.7056,-1083.3882 216.6172,-1083.3845 215.642,-1083.3838 "/>
<polyline fill="none" stroke="#000000" points="576.3185,-1114.9712 575.1932,-1114.8896 574.906,-1114.8774 573.1443,-1114.8551 554.6136,-1115.1733 551.3419,-1115.327 538.8718,-1116.6587 470.0654,-1126.0592 446.7022,-1117.1289 409.8383,-1065.1108 421.059,-1047.4835 423.0071,-1044.5892 434.5519,-1029.2341 441.1975,-1020.9257 455.2203,-1005.5588 466.3107,-995.15 468.6504,-992.3157 533.2733,-927.3069 538.0087,-923.2259 545.2025,-916.335 560.3423,-900.3856 561.1739,-899.2773 568.956,-889.9617 573.0491,-890.163 585.7939,-890.349 589.0658,-890.1708 592.8073,-890.3461 603.4979,-890.1086 608.9247,-890.1718 615.3568,-889.8016 615.7891,-889.7914 623.611,-890.1354 624.4819,-890.2032 624.7771,-890.216 638.5457,-890.3353 640.5049,-890.2847 640.7484,-890.27 642.2196,-890.231 910.3368,-873.8753 812.4445,-978.1121 804.3121,-986.0073 790.9662,-999.7386 786.6151,-1003.7625 774.4443,-1015.7812 668.8186,-1114.0033 664.7526,-1114.3846 659.8781,-1114.7 648.9129,-1114.7726 647.6975,-1114.7452 638.9198,-1114.8105 635.7455,-1114.7418 625.856,-1115.119 624.6116,-1115.0941 624.1431,-1115.1127 607.6841,-1114.8093 605.0883,-1114.8392 604.4408,-1114.809 600.239,-1114.7385 597.4084,-1114.8604 587.3018,-1115.0013 580.8863,-1114.9039 576.3185,-1114.9712 "/>
<!-- apache&#45;commons&#45;cli&#45;&gt;java&#45;1.8.0&#45;openjdk&#45;headless -->
<g id="edge1" class="edge">
<title>apache&#45;commons&#45;cli&#45;&gt;java&#45;1.8.0&#45;openjdk&#45;headless</title>
<path fill="none" stroke="#444444" stroke-opacity="0.333333" d="M664.3924,-605.0068C643.9965,-640.1594 599.2811,-717.2271 575.483,-758.2436"/>
<polygon fill="#444444" fill-opacity="0.333333" stroke="#444444" stroke-opacity="0.333333" points="572.4531,-756.4915 570.4619,-766.8975 578.5078,-760.0045 572.4531,-756.4915"/>
</g>
<!-- apache&#45;commons&#45;cli&#45;&gt;javapackages&#45;tools -->
<g id="edge2" class="edge">
<title>apache&#45;commons&#45;cli&#45;&gt;javapackages&#45;tools</title>
<path fill="none" stroke="#444444" stroke-opacity="0.333333" d="M660.9894,-604.8162C618.4508,-659.7718 490.7994,-824.6848 440.9995,-889.0214"/>
<polygon fill="#444444" fill-opacity="0.333333" stroke="#444444" stroke-opacity="0.333333" points="438.1306,-887.0097 434.7773,-897.0598 443.6661,-891.2944 438.1306,-887.0097"/>
</g>
<!-- java&#45;1.8.0&#45;openjdk&#45;headless&#45;&gt;javapackages&#45;tools -->
<g id="edge3" class="edge">
<title>java&#45;1.8.0&#45;openjdk&#45;headless&#45;&gt;javapackages&#45;tools</title>
<path fill="none" stroke="#444444" stroke-opacity="0.333333" d="M532.7067,-803.4042C505.602,-825.9257 464.7425,-864.1188 440.5583,-889.5466"/>
<polygon fill="#444444" fill-opacity="0.333333" stroke="#444444" stroke-opacity="0.333333" points="437.8746,-887.2927 433.622,-896.9966 442.9979,-892.0627 437.8746,-887.2927"/>
</g>
<!-- java&#45;1.8.0&#45;openjdk&#45;headless&#45;&gt;copy&#45;jdk&#45;configs -->
<g id="edge4" class="edge">
<title>java&#45;1.8.0&#45;openjdk&#45;headless&#45;&gt;copy&#45;jdk&#45;configs</title>
<path fill="none" stroke="#444444" stroke-opacity="0.333333" d="M637.2733,-803.2215C765.6587,-833.1588 1021.7868,-892.8835 1156.2977,-924.2492"/>
<polygon fill="#444444" fill-opacity="0.333333" stroke="#444444" stroke-opacity="0.333333" points="1155.6301,-927.6874 1166.1637,-926.5498 1157.2198,-920.8703 1155.6301,-927.6874"/>
</g>
<!-- java&#45;1.8.0&#45;openjdk&#45;headless&#45;&gt;freetype -->
<g id="edge5" class="edge">
<title>java&#45;1.8.0&#45;openjdk&#45;headless&#45;&gt;freetype</title>
<path fill="none" stroke="#444444" stroke-opacity="0.333333" d="M572.9369,-767.0577C625.6655,-694.0254 822.8047,-420.9758 885.1453,-334.6303"/>
<polygon fill="#444444" fill-opacity="0.333333" stroke="#444444" stroke-opacity="0.333333" points="888.064,-336.5669 891.08,-326.4104 882.3886,-332.4693 888.064,-336.5669"/>
</g>
<!-- java&#45;1.8.0&#45;openjdk&#45;headless&#45;&gt;tzdata&#45;java -->
<g id="edge6" class="edge">
<title>java&#45;1.8.0&#45;openjdk&#45;headless&#45;&gt;tzdata&#45;java</title>
<path fill="none" stroke="#444444" stroke-opacity="0.333333" d="M557.508,-767.1623C547.0193,-686.8579 504.4665,-361.0613 491.6259,-262.7506"/>
<polygon fill="#444444" fill-opacity="0.333333" stroke="#444444" stroke-opacity="0.333333" points="495.0761,-262.1408 490.3104,-252.6784 488.1351,-263.0475 495.0761,-262.1408"/>
</g>
<!-- javapackages&#45;tools&#45;&gt;java&#45;1.8.0&#45;openjdk&#45;headless -->
<g id="edge7" class="edge">
<title>javapackages&#45;tools&#45;&gt;java&#45;1.8.0&#45;openjdk&#45;headless</title>
<path fill="none" stroke="#444444" stroke-opacity="0.333333" d="M447.9433,-896.8958C475.048,-874.3743 515.9075,-836.1812 540.0917,-810.7534"/>
<polygon fill="#444444" fill-opacity="0.333333" stroke="#444444" stroke-opacity="0.333333" points="542.7754,-813.0073 547.028,-803.3034 537.6521,-808.2373 542.7754,-813.0073"/>
</g>
<!-- javapackages&#45;tools&#45;&gt;which -->
<g id="edge8" class="edge">
<title>javapackages&#45;tools&#45;&gt;which</title>
<path fill="none" stroke="#444444" stroke-opacity="0.333333" d="M449.5945,-933.2083C516.6742,-975.3088 683.2895,-1079.8799 758.235,-1126.9172"/>
<polygon fill="#444444" fill-opacity="0.333333" stroke="#444444" stroke-opacity="0.333333" points="756.5768,-1130.0087 766.9074,-1132.3601 760.298,-1124.0797 756.5768,-1130.0087"/>
</g>
<!-- copy&#45;jdk&#45;configs&#45;&gt;lua -->
<g id="edge9" class="edge">
<title>copy&#45;jdk&#45;configs&#45;&gt;lua</title>
<path fill="none" stroke="#444444" stroke-opacity="0.333333" d="M1340.6047,-939.2722C1414.6632,-935.2435 1512.5856,-929.9167 1565.2514,-927.0517"/>
<polygon fill="#444444" fill-opacity="0.333333" stroke="#444444" stroke-opacity="0.333333" points="1565.6743,-930.534 1575.4693,-926.4959 1565.294,-923.5443 1565.6743,-930.534"/>
</g>
<!-- copy&#45;jdk&#45;configs&#45;&gt;lua&#45;posix -->
<g id="edge10" class="edge">
<title>copy&#45;jdk&#45;configs&#45;&gt;lua&#45;posix</title>
<path fill="none" stroke="#444444" stroke-opacity="0.333333" d="M1278.846,-962.6854C1351.0864,-999.6257 1515.1999,-1083.5456 1594.4441,-1124.0673"/>
<polygon fill="#444444" fill-opacity="0.333333" stroke="#444444" stroke-opacity="0.333333" points="1593.1784,-1127.3512 1603.6754,-1128.7878 1596.3654,-1121.1187 1593.1784,-1127.3512"/>
</g>
<!-- freetype&#45;&gt;libpng -->
<g id="edge11" class="edge">
<title>freetype&#45;&gt;libpng</title>
<path fill="none" stroke="#444444" stroke-opacity="0.333333" d="M915.2127,-290.1217C945.3052,-240.6386 1028.8701,-103.2273 1064.3889,-44.8213"/>
<polygon fill="#444444" fill-opacity="0.333333" stroke="#444444" stroke-opacity="0.333333" points="1067.4558,-46.5142 1069.6614,-36.1515 1061.475,-42.877 1067.4558,-46.5142"/>
</g>
<!-- lua&#45;posix&#45;&gt;lua -->
<g id="edge29" class="edge">
<title>lua&#45;posix&#45;&gt;lua</title>
<path fill="none" stroke="#444444" stroke-opacity="0.333333" d="M1635.9294,-1128.6508C1629.5987,-1089.9724 1614.7414,-999.1994 1607.1859,-953.0383"/>
<polygon fill="#444444" fill-opacity="0.333333" stroke="#444444" stroke-opacity="0.333333" points="1610.6301,-952.4122 1605.5607,-943.1089 1603.722,-953.543 1610.6301,-952.4122"/>
</g>
<!-- apache&#45;commons&#45;codec&#45;&gt;java&#45;1.8.0&#45;openjdk&#45;headless -->
<g id="edge12" class="edge">
<title>apache&#45;commons&#45;codec&#45;&gt;java&#45;1.8.0&#45;openjdk&#45;headless</title>
<path fill="none" stroke="#444444" stroke-opacity="0.333333" d="M221.8252,-629.218C291.3386,-661.288 435.7253,-727.9006 511.3222,-762.7771"/>
<polygon fill="#444444" fill-opacity="0.333333" stroke="#444444" stroke-opacity="0.333333" points="510.0868,-766.0617 520.6333,-767.0728 513.0193,-759.7055 510.0868,-766.0617"/>
</g>
<!-- apache&#45;commons&#45;codec&#45;&gt;javapackages&#45;tools -->
<g id="edge13" class="edge">
<title>apache&#45;commons&#45;codec&#45;&gt;javapackages&#45;tools</title>
<path fill="none" stroke="#444444" stroke-opacity="0.333333" d="M196.7019,-629.1892C237.1785,-680.8381 353.2986,-829.0096 400.4866,-889.2224"/>
<polygon fill="#444444" fill-opacity="0.333333" stroke="#444444" stroke-opacity="0.333333" points="397.7492,-891.4037 406.6725,-897.1157 403.2589,-887.0858 397.7492,-891.4037"/>
</g>
<!-- apache&#45;commons&#45;collections&#45;&gt;java&#45;1.8.0&#45;openjdk&#45;headless -->
<g id="edge14" class="edge">
<title>apache&#45;commons&#45;collections&#45;&gt;java&#45;1.8.0&#45;openjdk&#45;headless</title>
<path fill="none" stroke="#444444" stroke-opacity="0.333333" d="M300.3781,-790.2619C330.8784,-789.6633 363.1213,-789.0306 394.1228,-788.4223"/>
<polygon fill="#444444" fill-opacity="0.333333" stroke="#444444" stroke-opacity="0.333333" points="394.2114,-791.9213 404.1408,-788.2257 394.074,-784.9227 394.2114,-791.9213"/>
</g>
<!-- apache&#45;commons&#45;collections&#45;&gt;javapackages&#45;tools -->
<g id="edge15" class="edge">
<title>apache&#45;commons&#45;collections&#45;&gt;javapackages&#45;tools</title>
<path fill="none" stroke="#444444" stroke-opacity="0.333333" d="M190.3668,-811.331C238.609,-833.0627 319.4552,-869.4816 371.4297,-892.8946"/>
<polygon fill="#444444" fill-opacity="0.333333" stroke="#444444" stroke-opacity="0.333333" points="370.229,-896.1924 380.7841,-897.1085 373.1041,-889.8101 370.229,-896.1924"/>
</g>
<!-- apache&#45;commons&#45;daemon&#45;&gt;java&#45;1.8.0&#45;openjdk&#45;headless -->
<g id="edge16" class="edge">
<title>apache&#45;commons&#45;daemon&#45;&gt;java&#45;1.8.0&#45;openjdk&#45;headless</title>
<path fill="none" stroke="#444444" stroke-opacity="0.333333" d="M358.9834,-532.5211C396.2204,-579.3552 495.5038,-704.2271 538.9792,-758.9075"/>
<polygon fill="#444444" fill-opacity="0.333333" stroke="#444444" stroke-opacity="0.333333" points="536.4964,-761.4088 545.4595,-767.058 541.9756,-757.0524 536.4964,-761.4088"/>
</g>
<!-- apache&#45;commons&#45;daemon&#45;&gt;javapackages&#45;tools -->
<g id="edge17" class="edge">
<title>apache&#45;commons&#45;daemon&#45;&gt;javapackages&#45;tools</title>
<path fill="none" stroke="#444444" stroke-opacity="0.333333" d="M347.9453,-532.3302C360.0155,-595.7591 400.6368,-809.2244 415.3833,-886.7179"/>
<polygon fill="#444444" fill-opacity="0.333333" stroke="#444444" stroke-opacity="0.333333" points="411.979,-887.551 417.2868,-896.7204 418.8556,-886.2424 411.979,-887.551"/>
</g>
<!-- apache&#45;commons&#45;dbcp&#45;&gt;java&#45;1.8.0&#45;openjdk&#45;headless -->
<g id="edge18" class="edge">
<title>apache&#45;commons&#45;dbcp&#45;&gt;java&#45;1.8.0&#45;openjdk&#45;headless</title>
<path fill="none" stroke="#444444" stroke-opacity="0.333333" d="M253.793,-975.3126C314.4685,-937.6183 454.2587,-850.7743 521.8692,-808.7716"/>
<polygon fill="#444444" fill-opacity="0.333333" stroke="#444444" stroke-opacity="0.333333" points="523.8784,-811.6439 530.5257,-803.3938 520.1844,-805.6979 523.8784,-811.6439"/>
</g>
<!-- apache&#45;commons&#45;dbcp&#45;&gt;javapackages&#45;tools -->
<g id="edge19" class="edge">
<title>apache&#45;commons&#45;dbcp&#45;&gt;javapackages&#45;tools</title>
<path fill="none" stroke="#444444" stroke-opacity="0.333333" d="M270.1261,-975.2696C298.7215,-963.8554 335.7834,-949.0616 365.9927,-937.0031"/>
<polygon fill="#444444" fill-opacity="0.333333" stroke="#444444" stroke-opacity="0.333333" points="367.5507,-940.1498 375.5406,-933.1919 364.9556,-933.6486 367.5507,-940.1498"/>
</g>
<!-- apache&#45;commons&#45;dbcp&#45;&gt;apache&#45;commons&#45;pool -->
<g id="edge20" class="edge">
<title>apache&#45;commons&#45;dbcp&#45;&gt;apache&#45;commons&#45;pool</title>
<path fill="none" stroke="#444444" stroke-opacity="0.333333" d="M337.1609,-993.9554C379.1795,-994.1516 427.0927,-994.3753 470.0073,-994.5757"/>
<polygon fill="#444444" fill-opacity="0.333333" stroke="#444444" stroke-opacity="0.333333" points="470.2103,-998.0765 480.2265,-994.6234 470.243,-991.0766 470.2103,-998.0765"/>
</g>
<!-- apache&#45;commons&#45;pool&#45;&gt;java&#45;1.8.0&#45;openjdk&#45;headless -->
<g id="edge21" class="edge">
<title>apache&#45;commons&#45;pool&#45;&gt;java&#45;1.8.0&#45;openjdk&#45;headless</title>
<path fill="none" stroke="#444444" stroke-opacity="0.333333" d="M590.1353,-976.883C584.3271,-940.1037 571.19,-856.9155 564.2872,-813.2043"/>
<polygon fill="#444444" fill-opacity="0.333333" stroke="#444444" stroke-opacity="0.333333" points="567.7316,-812.5769 562.7144,-803.2453 560.8172,-813.6688 567.7316,-812.5769"/>
</g>
<!-- apache&#45;commons&#45;pool&#45;&gt;javapackages&#45;tools -->
<g id="edge22" class="edge">
<title>apache&#45;commons&#45;pool&#45;&gt;javapackages&#45;tools</title>
<path fill="none" stroke="#444444" stroke-opacity="0.333333" d="M553.9383,-976.9922C528.7247,-965.2777 495.7512,-949.9578 468.9261,-937.4946"/>
<polygon fill="#444444" fill-opacity="0.333333" stroke="#444444" stroke-opacity="0.333333" points="470.2607,-934.2554 459.717,-933.2159 467.3112,-940.6037 470.2607,-934.2554"/>
</g>
<!-- apache&#45;commons&#45;io&#45;&gt;java&#45;1.8.0&#45;openjdk&#45;headless -->
<g id="edge23" class="edge">
<title>apache&#45;commons&#45;io&#45;&gt;java&#45;1.8.0&#45;openjdk&#45;headless</title>
<path fill="none" stroke="#444444" stroke-opacity="0.333333" d="M273.3268,-1155.4815C321.8514,-1092.769 482.1299,-885.6272 539.342,-811.6872"/>
<polygon fill="#444444" fill-opacity="0.333333" stroke="#444444" stroke-opacity="0.333333" points="542.4422,-813.3998 545.7937,-803.3491 536.906,-809.1161 542.4422,-813.3998"/>
</g>
<!-- apache&#45;commons&#45;io&#45;&gt;javapackages&#45;tools -->
<g id="edge24" class="edge">
<title>apache&#45;commons&#45;io&#45;&gt;javapackages&#45;tools</title>
<path fill="none" stroke="#444444" stroke-opacity="0.333333" d="M270.5906,-1155.5179C298.5742,-1110.7313 370.9421,-994.9095 403.9418,-942.0948"/>
<polygon fill="#444444" fill-opacity="0.333333" stroke="#444444" stroke-opacity="0.333333" points="407.1113,-943.6274 409.442,-933.292 401.1748,-939.9181 407.1113,-943.6274"/>
</g>
<!-- apache&#45;commons&#45;lang&#45;&gt;java&#45;1.8.0&#45;openjdk&#45;headless -->
<g id="edge25" class="edge">
<title>apache&#45;commons&#45;lang&#45;&gt;java&#45;1.8.0&#45;openjdk&#45;headless</title>
<path fill="none" stroke="#444444" stroke-opacity="0.333333" d="M388.8884,-1252.264C415.8422,-1178.6262 517.2083,-901.6942 549.7417,-812.8131"/>
<polygon fill="#444444" fill-opacity="0.333333" stroke="#444444" stroke-opacity="0.333333" points="553.0377,-813.9908 553.1883,-803.3971 546.4642,-811.5847 553.0377,-813.9908"/>
</g>
<!-- apache&#45;commons&#45;lang&#45;&gt;javapackages&#45;tools -->
<g id="edge26" class="edge">
<title>apache&#45;commons&#45;lang&#45;&gt;javapackages&#45;tools</title>
<path fill="none" stroke="#444444" stroke-opacity="0.333333" d="M384.2142,-1252.2937C390.4897,-1194.4448 410.0892,-1013.7719 417.7129,-943.4953"/>
<polygon fill="#444444" fill-opacity="0.333333" stroke="#444444" stroke-opacity="0.333333" points="421.2308,-943.519 418.8298,-933.1999 414.2716,-942.764 421.2308,-943.519"/>
</g>
<!-- apache&#45;commons&#45;logging&#45;&gt;java&#45;1.8.0&#45;openjdk&#45;headless -->
<g id="edge27" class="edge">
<title>apache&#45;commons&#45;logging&#45;&gt;java&#45;1.8.0&#45;openjdk&#45;headless</title>
<path fill="none" stroke="#444444" stroke-opacity="0.333333" d="M628.5069,-1216.4252C617.4518,-1146.9741 577.8236,-898.021 564.3677,-813.4882"/>
<polygon fill="#444444" fill-opacity="0.333333" stroke="#444444" stroke-opacity="0.333333" points="567.8176,-812.8964 562.7891,-803.571 560.9047,-813.9969 567.8176,-812.8964"/>
</g>
<!-- apache&#45;commons&#45;logging&#45;&gt;javapackages&#45;tools -->
<g id="edge28" class="edge">
<title>apache&#45;commons&#45;logging&#45;&gt;javapackages&#45;tools</title>
<path fill="none" stroke="#444444" stroke-opacity="0.333333" d="M619.4733,-1216.5086C584.2242,-1163.0399 480.3858,-1005.5296 438.5535,-942.0751"/>
<polygon fill="#444444" fill-opacity="0.333333" stroke="#444444" stroke-opacity="0.333333" points="441.2732,-939.8416 432.847,-933.419 435.4289,-943.6944 441.2732,-939.8416"/>
</g>
<!-- apache&#45;commons&#45;cli -->
<g id="node1" class="node">
<title>apache&#45;commons&#45;cli</title>
<text text-anchor="middle" x="675.02" y="-582.99" font-family="monospace" font-size="14.00" fill="#000000">apache&#45;commons&#45;cli</text>
</g>
<!-- java&#45;1.8.0&#45;openjdk&#45;headless -->
<g id="node2" class="node">
<title>java&#45;1.8.0&#45;openjdk&#45;headless</title>
<text text-anchor="middle" x="559.86" y="-781.47" font-family="monospace" font-size="14.00" fill="#000000">java&#45;1.8.0&#45;openjdk&#45;headless</text>
</g>
<!-- javapackages&#45;tools -->
<g id="node3" class="node">
<title>javapackages&#45;tools</title>
<text text-anchor="middle" x="420.79" y="-911.43" font-family="monospace" font-size="14.00" fill="#000000">javapackages&#45;tools</text>
</g>
<!-- copy&#45;jdk&#45;configs -->
<g id="node4" class="node">
<title>copy&#45;jdk&#45;configs</title>
<text text-anchor="middle" x="1243.4" y="-940.86" font-family="monospace" font-size="14.00" fill="#000000">copy&#45;jdk&#45;configs</text>
</g>
<!-- freetype -->
<g id="node5" class="node">
<title>freetype</title>
<text text-anchor="middle" x="904.17" y="-304.58" font-family="monospace" font-size="14.00" fill="#000000">freetype</text>
</g>
<!-- tzdata&#45;java -->
<g id="node6" class="node">
<title>tzdata&#45;java</title>
<text text-anchor="middle" x="487.94" y="-230.83" font-family="monospace" font-size="14.00" fill="#000000">tzdata&#45;java</text>
</g>
<!-- which -->
<g id="node7" class="node">
<title>which</title>
<text text-anchor="middle" x="795.81" y="-1146.8" font-family="monospace" font-size="14.00" fill="#000000">which</text>
</g>
<!-- lua -->
<g id="node8" class="node">
<title>lua</title>
<text text-anchor="middle" x="1602.6" y="-921.32" font-family="monospace" font-size="14.00" fill="#000000">lua</text>
</g>
<!-- lua&#45;posix -->
<g id="node9" class="node">
<title>lua&#45;posix</title>
<text text-anchor="middle" x="1638.9" y="-1143.1" font-family="monospace" font-size="14.00" fill="#000000">lua&#45;posix</text>
</g>
<!-- libpng -->
<g id="node10" class="node">
<title>libpng</title>
<text text-anchor="middle" x="1080.7" y="-14.3" font-family="monospace" font-size="14.00" fill="#000000">libpng</text>
</g>
<!-- apache&#45;commons&#45;codec -->
<g id="node11" class="node">
<title>apache&#45;commons&#45;codec</title>
<text text-anchor="middle" x="182.51" y="-607.38" font-family="monospace" font-size="14.00" fill="#000000">apache&#45;commons&#45;codec</text>
</g>
<!-- apache&#45;commons&#45;collections -->
<g id="node12" class="node">
<title>apache&#45;commons&#45;collections</title>
<text text-anchor="middle" x="150.14" y="-789.51" font-family="monospace" font-size="14.00" fill="#000000">apache&#45;commons&#45;collections</text>
</g>
<!-- apache&#45;commons&#45;daemon -->
<g id="node13" class="node">
<title>apache&#45;commons&#45;daemon</title>
<text text-anchor="middle" x="344.52" y="-510.63" font-family="monospace" font-size="14.00" fill="#000000">apache&#45;commons&#45;daemon</text>
</g>
<!-- apache&#45;commons&#45;dbcp -->
<g id="node14" class="node">
<title>apache&#45;commons&#45;dbcp</title>
<text text-anchor="middle" x="224.63" y="-989.73" font-family="monospace" font-size="14.00" fill="#000000">apache&#45;commons&#45;dbcp</text>
</g>
<!-- apache&#45;commons&#45;pool -->
<g id="node15" class="node">
<title>apache&#45;commons&#45;pool</title>
<text text-anchor="middle" x="593.02" y="-991.45" font-family="monospace" font-size="14.00" fill="#000000">apache&#45;commons&#45;pool</text>
</g>
<!-- apache&#45;commons&#45;io -->
<g id="node16" class="node">
<title>apache&#45;commons&#45;io</title>
<text text-anchor="middle" x="259.23" y="-1170" font-family="monospace" font-size="14.00" fill="#000000">apache&#45;commons&#45;io</text>
</g>
<!-- apache&#45;commons&#45;lang -->
<g id="node17" class="node">
<title>apache&#45;commons&#45;lang</title>
<text text-anchor="middle" x="382.25" y="-1266.7" font-family="monospace" font-size="14.00" fill="#000000">apache&#45;commons&#45;lang</text>
</g>
<!-- apache&#45;commons&#45;logging -->
<g id="node18" class="node">
<title>apache&#45;commons&#45;logging</title>
<text text-anchor="middle" x="631.4" y="-1230.9" font-family="monospace" font-size="14.00" fill="#000000">apache&#45;commons&#45;logging</text>
</g>
</g>
</svg>
