<?xml version="1.0" encoding="UTF-8" standalone="no"?>
<!DOCTYPE svg PUBLIC "-//W3C//DTD SVG 1.1//EN"
 "http://www.w3.org/Graphics/SVG/1.1/DTD/svg11.dtd">
<!-- Generated by graphviz version 2.40.1 (20161225.0304)
 -->
<!-- Title: G Pages: 1 -->
<svg width="1034pt" height="718pt"
 viewBox="0.00 0.00 1034.14 718.21" xmlns="http://www.w3.org/2000/svg" xmlns:xlink="http://www.w3.org/1999/xlink">
<g id="graph0" class="graph" transform="scale(1 1) rotate(0) translate(173.8712 560.2762)">
<title>G</title>
<polygon fill="#dae2ff" stroke="transparent" points="-173.8712,157.9331 -173.8712,-560.2762 860.2662,-560.2762 860.2662,157.9331 -173.8712,157.9331"/>
<polygon fill="#fbb4ae" stroke="#fbb4ae" points="-104.0077,-177.1405 -142.6901,-222.4104 -169.8712,-253.1151 -136.1237,-289.8622 -103.9613,-326.1962 32.6843,-288.0786 36.8015,-283.053 37.3328,-283.053 38.3395,-283.3846 43.688,-283.3846 44.1008,-283.2446 50.0843,-283.2446 50.7965,-282.2608 55.8563,-278.92 55.8563,-278.92 50.7965,-282.2608 50.0843,-283.2446 50.1128,-283.2833 50.1128,-283.2833 50.0843,-283.2446 44.1008,-283.2446 43.688,-283.3846 38.3395,-283.3846 37.3328,-283.053 36.8015,-283.053 32.6843,-288.0786 -103.9613,-326.1962 -27.4754,-416.6417 27.0982,-440.55 40.2479,-446.6262 45.1991,-449.0303 47.7853,-448.6263 68.1582,-446.6189 82.6005,-446.0311 93.7459,-445.7924 152.7986,-445.6658 159.1454,-443.3356 247.5291,-381.5795 250.0715,-381.3411 254.1475,-381.027 270.1018,-380.3309 277.5354,-380.2551 292.7544,-380.6084 297.1764,-380.7849 370.3236,-386.1479 370.4915,-198.4872 370.8359,-194.7037 370.8481,-181.2232 370.4979,-173.2946 370.6474,-6.2066 335.8608,5.4675 312.5269,-4.5817 288.5914,-14.4065 277.7387,-18.4067 262.3708,-23.4298 262.3187,-23.4447 237.8558,-29.4099 232.7283,-30.4454 230.3297,-103.2781 230.3297,-103.2781 232.7283,-30.4454 208.8065,-33.792 77.5578,36.1431 65.4685,43.0122 59.189,42.6056 56.7769,42.117 43.4299,40.1261 -5.831,34.0958 -33.3752,16.3954 -45.3954,5.4754 -77.7915,-81.3624 -94.3807,-119.9454 -96.4763,-133.7541 -104.0077,-177.1405 -104.0077,-177.1405"/>
<polygon fill="#fed9a6" stroke="#fed9a6" points="449.1655,-2.8529 447.219,-2.9679 370.6474,-6.2066 370.4979,-173.2946 370.8481,-181.2232 370.8359,-194.7037 370.4915,-198.4872 370.3236,-386.1479 380.9695,-390.8704 418.6321,-390.754 601.9274,-539.9389 604.7601,-542.329 619.7531,-545.3401 636.0266,-548.9002 638.9268,-549.586 642.156,-550.4068 642.2477,-528.8567 641.8355,-500.7153 642.9915,-362.2742 642.4567,-362.0939 647.4352,-266.6718 647.7667,-266.5579 653.8593,-264.227 668.2208,-258.1748 678.0317,-252.9116 695.4697,-242.1806 704.9965,-235.5892 714.824,-228.0276 590.1828,-195.2925 588.3328,-192.7728 583.5753,-191.1101 582.3099,-190.038 577.6458,-190.038 577.4406,-190.1055 572.7939,-190.1055 569.2876,-228.6841 565.0005,-190.1335 560.8277,-190.1335 560.8277,-190.1335 565.0005,-190.1335 569.2876,-228.6841 572.7939,-190.1055 572.6077,-190.0435 572.6077,-190.0435 572.7939,-190.1055 577.4406,-190.1055 577.6458,-190.038 582.3099,-190.038 583.5753,-191.1101 588.3328,-192.7728 590.1828,-195.2925 714.824,-228.0276 704.9965,-235.5892 695.4697,-242.1806 678.0317,-252.9116 668.2208,-258.1748 653.8593,-264.227 647.7667,-266.5579 647.4352,-266.6718 642.4567,-362.0939 642.9915,-362.2742 641.8355,-500.7153 642.2477,-528.8567 642.156,-550.4068 645.733,-551.5085 655.2396,-363.5005 660.5106,-366.9451 667.041,-366.9451 672.8137,-363.1786 673.2086,-362.6676 666.7024,-358.2 666.7024,-358.2 673.2086,-362.6676 672.8137,-363.1786 667.041,-366.9451 660.5106,-366.9451 655.2396,-363.5005 645.733,-551.5085 660.3483,-556.2762 663.5466,-554.9366 670.4487,-552.3059 676.8132,-549.9996 680.3882,-548.7712 687.7744,-541.6305 694.0025,-536.0181 705.1258,-526.3546 705.4077,-401.5524 705.4077,-401.5524 705.1258,-526.3546 723.2162,-511.8232 821.3463,-436.3749 832.1057,-407.4392 853.3191,-354.6917 853.9179,-348.1313 856.2662,-327.4887 853.7141,-324.7299 746.7075,-203.801 746.679,-172.8626 828.441,-74.17 815.4394,-23.1994 812.3273,-7.7185 797.6865,76.5761 700.5391,136.7394 697.5037,136.8511 678.8023,138.2854 678.4816,32.1548 677.9536,24.9607 671.4339,-16.1583 667.0353,-13.4531 661.282,-13.4531 661.282,-13.4531 667.0353,-13.4531 671.4339,-16.1583 677.9536,24.9607 678.4816,32.1548 678.8023,138.2854 658.2573,141.0897 654.3503,141.7002 635.2972,146.1992 623.2729,149.2772 606.3791,153.9331 496.7451,49.564 450.4381,-2.7563 449.1655,-2.8529 446.3871,-189.9967 446.6293,-190.2361 452.5444,-190.2361 451.34,-3.6952 451.9135,-4.2726 458.7871,-190.1526 464.2309,-190.1526 464.6379,-190.2905 462.144,-299.751 471.1635,-190.2974 475.615,-190.2974 475.7777,-190.3506 481.6428,-190.3506 488.3224,-271.1022 488.3364,-190.0286 488.3364,-190.0286 488.3224,-271.1022 481.6428,-190.3506 475.7777,-190.3506 475.615,-190.2974 471.1635,-190.2974 462.144,-299.751 464.6379,-190.2905 464.2309,-190.1526 458.7871,-190.1526 451.9135,-4.2726 451.34,-3.6952 452.5444,-190.2361 446.6293,-190.2361 446.3871,-189.9967 449.1655,-2.8529 449.1655,-2.8529"/>
<polyline fill="none" stroke="#000000" points="247.5291,-381.5795 159.1454,-443.3356 152.7986,-445.6658 93.7459,-445.7924 82.6005,-446.0311 68.1582,-446.6189 47.7853,-448.6263 45.1991,-449.0303 40.2479,-446.6262 27.0982,-440.55 -27.4754,-416.6417 -103.9613,-326.1962 -136.1237,-289.8622 -169.8712,-253.1151 -142.6901,-222.4104 -104.0077,-177.1405 -96.4763,-133.7541 -94.3807,-119.9454 -77.7915,-81.3624 -45.3954,5.4754 -33.3752,16.3954 -5.831,34.0958 43.4299,40.1261 56.7769,42.117 59.189,42.6056 65.4685,43.0122 77.5578,36.1431 208.8065,-33.792 232.7283,-30.4454 237.8558,-29.4099 262.3187,-23.4447 262.3708,-23.4298 277.7387,-18.4067 288.5914,-14.4065 312.5269,-4.5817 335.8608,5.4675 370.6474,-6.2066 370.4979,-173.2946 370.8481,-181.2232 370.8359,-194.7037 370.4915,-198.4872 370.3236,-386.1479 297.1764,-380.7849 292.7544,-380.6084 277.5354,-380.2551 270.1018,-380.3309 254.1475,-381.027 250.0715,-381.3411 247.5291,-381.5795 "/>
<polyline fill="none" stroke="#000000" points="746.679,-172.8626 828.441,-74.17 815.4394,-23.1994 812.3273,-7.7185 797.6865,76.5761 700.5391,136.7394 697.5037,136.8511 678.8023,138.2854 658.2573,141.0897 654.3503,141.7002 635.2972,146.1992 623.2729,149.2772 606.3791,153.9331 496.7451,49.564 450.4381,-2.7563 449.1655,-2.8529 447.219,-2.9679 370.6474,-6.2066 370.4979,-173.2946 370.8481,-181.2232 370.8359,-194.7037 370.4915,-198.4872 370.3236,-386.1479 380.9695,-390.8704 418.6321,-390.754 601.9274,-539.9389 604.7601,-542.329 619.7531,-545.3401 636.0266,-548.9002 638.9268,-549.586 642.156,-550.4068 645.733,-551.5085 660.3483,-556.2762 663.5466,-554.9366 670.4487,-552.3059 676.8132,-549.9996 680.3882,-548.7712 687.7744,-541.6305 694.0025,-536.0181 705.1258,-526.3546 723.2162,-511.8232 821.3463,-436.3749 832.1057,-407.4392 853.3191,-354.6917 853.9179,-348.1313 856.2662,-327.4887 853.7141,-324.7299 746.7075,-203.801 746.679,-172.8626 "/>
<!-- copy&#45;jdk&#45;configs&#45;&gt;lua -->
<g id="edge1" class="edge">
<title>copy&#45;jdk&#45;configs&#45;&gt;lua</title>
<path fill="none" stroke="#444444" stroke-opacity="0.333333" d="M216.6973,-172.016C181.5135,-155.4179 129.7405,-130.994 95.1609,-114.681"/>
<polygon fill="#444444" fill-opacity="0.333333" stroke="#444444" stroke-opacity="0.333333" points="96.4291,-111.4094 85.8917,-110.3083 93.4425,-117.7403 96.4291,-111.4094"/>
</g>
<!-- copy&#45;jdk&#45;configs&#45;&gt;lua&#45;posix -->
<g id="edge2" class="edge">
<title>copy&#45;jdk&#45;configs&#45;&gt;lua&#45;posix</title>
<path fill="none" stroke="#444444" stroke-opacity="0.333333" d="M216.7803,-208.2597C185.2343,-223.2528 140.3233,-244.5979 106.5029,-260.6719"/>
<polygon fill="#444444" fill-opacity="0.333333" stroke="#444444" stroke-opacity="0.333333" points="104.8077,-257.6024 97.2783,-265.0562 107.8125,-263.9246 104.8077,-257.6024"/>
</g>
<!-- lua&#45;posix&#45;&gt;lua -->
<g id="edge3" class="edge">
<title>lua&#45;posix&#45;&gt;lua</title>
<path fill="none" stroke="#444444" stroke-opacity="0.333333" d="M59.1035,-265.0372C59.0292,-232.5883 58.8731,-164.4023 58.7847,-125.766"/>
<polygon fill="#444444" fill-opacity="0.333333" stroke="#444444" stroke-opacity="0.333333" points="62.2847,-125.6984 58.7617,-115.7065 55.2847,-125.7145 62.2847,-125.6984"/>
</g>
<!-- java&#45;1.8.0&#45;openjdk&#45;headless&#45;&gt;copy&#45;jdk&#45;configs -->
<g id="edge4" class="edge">
<title>java&#45;1.8.0&#45;openjdk&#45;headless&#45;&gt;copy&#45;jdk&#45;configs</title>
<path fill="none" stroke="#444444" stroke-opacity="0.333333" d="M359.348,-190.1381C359.1992,-190.138 359.0504,-190.138 358.9017,-190.1379"/>
<polygon fill="#444444" fill-opacity="0.333333" stroke="#444444" stroke-opacity="0.333333" points="362.2454,-186.6396 352.2437,-190.1348 362.242,-193.6396 362.2454,-186.6396"/>
</g>
<!-- java&#45;1.8.0&#45;openjdk&#45;headless&#45;&gt;javapackages&#45;tools -->
<g id="edge5" class="edge">
<title>java&#45;1.8.0&#45;openjdk&#45;headless&#45;&gt;javapackages&#45;tools</title>
<path fill="none" stroke="#444444" stroke-opacity="0.333333" d="M525.5741,-208.4736C548.0356,-239.3306 601.163,-301.5514 634.6855,-336.8076"/>
<polygon fill="#444444" fill-opacity="0.333333" stroke="#444444" stroke-opacity="0.333333" points="632.4708,-339.553 641.9332,-344.319 637.5082,-334.6924 632.4708,-339.553"/>
</g>
<!-- java&#45;1.8.0&#45;openjdk&#45;headless&#45;&gt;tzdata&#45;java -->
<g id="edge6" class="edge">
<title>java&#45;1.8.0&#45;openjdk&#45;headless&#45;&gt;tzdata&#45;java</title>
<path fill="none" stroke="#444444" stroke-opacity="0.333333" d="M530.8472,-172.106C557.2777,-141.4864 610.8975,-79.3682 641.372,-44.0637"/>
<polygon fill="#444444" fill-opacity="0.333333" stroke="#444444" stroke-opacity="0.333333" points="644.3443,-45.9768 648.2291,-36.1198 639.0454,-41.4028 644.3443,-45.9768"/>
</g>
<!-- javapackages&#45;tools&#45;&gt;java&#45;1.8.0&#45;openjdk&#45;headless -->
<g id="edge7" class="edge">
<title>javapackages&#45;tools&#45;&gt;java&#45;1.8.0&#45;openjdk&#45;headless</title>
<path fill="none" stroke="#444444" stroke-opacity="0.333333" d="M653.4159,-344.3064C630.9544,-313.4494 577.827,-251.2286 544.3045,-215.9724"/>
<polygon fill="#444444" fill-opacity="0.333333" stroke="#444444" stroke-opacity="0.333333" points="546.5192,-213.227 537.0568,-208.461 541.4818,-218.0876 546.5192,-213.227"/>
</g>
<!-- copy&#45;jdk&#45;configs -->
<g id="node1" class="node">
<title>copy&#45;jdk&#45;configs</title>
<text text-anchor="middle" x="255.01" y="-186.39" font-family="monospace" font-size="14.00" fill="#000000">copy&#45;jdk&#45;configs</text>
</g>
<!-- lua -->
<g id="node2" class="node">
<title>lua</title>
<text text-anchor="middle" x="58.72" y="-93.79" font-family="monospace" font-size="14.00" fill="#000000">lua</text>
</g>
<!-- lua&#45;posix -->
<g id="node3" class="node">
<title>lua&#45;posix</title>
<text text-anchor="middle" x="59.145" y="-279.48" font-family="monospace" font-size="14.00" fill="#000000">lua&#45;posix</text>
</g>
<!-- java&#45;1.8.0&#45;openjdk&#45;headless -->
<g id="node4" class="node">
<title>java&#45;1.8.0&#45;openjdk&#45;headless</title>
<text text-anchor="middle" x="515.22" y="-186.51" font-family="monospace" font-size="14.00" fill="#000000">java&#45;1.8.0&#45;openjdk&#45;headless</text>
</g>
<!-- javapackages&#45;tools -->
<g id="node5" class="node">
<title>javapackages&#45;tools</title>
<text text-anchor="middle" x="663.77" y="-358.87" font-family="monospace" font-size="14.00" fill="#000000">javapackages&#45;tools</text>
</g>
<!-- tzdata&#45;java -->
<g id="node6" class="node">
<title>tzdata&#45;java</title>
<text text-anchor="middle" x="663.87" y="-14.3" font-family="monospace" font-size="14.00" fill="#000000">tzdata&#45;java</text>
</g>
</g>
</svg>
