<?xml version="1.0" encoding="UTF-8" standalone="no"?>
<!DOCTYPE svg PUBLIC "-//W3C//DTD SVG 1.1//EN"
 "http://www.w3.org/Graphics/SVG/1.1/DTD/svg11.dtd">
<!-- Generated by graphviz version 2.40.1 (20161225.0304)
 -->
<!-- Title: G Pages: 1 -->
<svg width="1495pt" height="872pt"
 viewBox="0.00 0.00 1494.81 871.61" xmlns="http://www.w3.org/2000/svg" xmlns:xlink="http://www.w3.org/1999/xlink">
<g id="graph0" class="graph" transform="scale(1 1) rotate(0) translate(93.6377 772.4305)">
<title>G</title>
<polygon fill="#dae2ff" stroke="transparent" points="-93.6377,99.1806 -93.6377,-772.4305 1401.1705,-772.4305 1401.1705,99.1806 -93.6377,99.1806"/>
<polygon fill="#fbb4ae" stroke="#fbb4ae" points="475.082,-297.6829 476.3602,-297.6857 484.1442,-297.5017 488.1873,-297.6169 497.4576,-298.3652 498.1372,-298.4378 500.8073,-298.7931 514.2218,-346.519 519.2684,-368.6921 519.9471,-374.8827 521.6516,-384.8826 522.736,-394.8109 533.9468,-434.6964 519.2568,-441.3015 515.6976,-442.573 511.5537,-443.8664 505.2441,-445.5513 480.4305,-449.9375 467.723,-453.3025 460.61,-455.8011 458.7299,-456.5423 451.7377,-459.6036 441.5318,-464.9588 412.1016,-482.9199 410.779,-494.2113 410.366,-497.0985 401.876,-540.5198 385.1322,-616.7045 321.7699,-608.4221 311.4474,-607.2521 302.0337,-606.676 300.3286,-529.3259 304.1208,-469.7993 305.9226,-467.9745 304.2297,-466.3034 299.2827,-463.7644 294.7573,-463.7644 293.999,-420.4428 290.4949,-420.2611 290.4942,-420.261 290.3654,-420.2542 290.3654,-420.2542 290.4942,-420.261 290.4949,-420.2611 293.999,-420.4428 294.7573,-463.7644 299.2827,-463.7644 304.2297,-466.3034 305.9226,-467.9745 304.1208,-469.7993 300.3286,-529.3259 302.0337,-606.676 290.6202,-606.5718 281.6843,-606.8011 268.9734,-607.3483 241.5066,-609.4834 199.3163,-595.0001 136.5291,-623.3399 126.8707,-624.4748 78.2806,-613.2213 76.7686,-612.9448 62.3684,-611.0056 7.1671,-606.2533 -44.5204,-529.3038 -52.0665,-524.1996 -87.6168,-466.0864 -87.6405,-445.9059 -87.6536,-445.3041 -89.1272,-421.98 -89.6377,-415.8787 -70.9429,-349.5005 -82.681,-312.4208 -84.085,-308.2531 -82.99,-284.8173 -82.8389,-269.754 -83.0397,-245.4982 -71.0315,-232.8711 -57.546,-203.8916 -51.0642,-189.1273 -43.0422,-169.6326 49.0877,-191.7397 52.3537,-195.5749 52.524,-195.9999 54.312,-198.1721 57.943,-198.1721 57.7718,-242.8057 52.7939,-242.9856 53.3632,-264.402 50.9108,-283.6715 47.5562,-285.3213 47.4318,-285.4493 47.4318,-290.0723 51.7927,-292.3766 56.1627,-292.3766 60.7704,-290.0734 60.9546,-290.2689 60.9948,-290.3545 64.7853,-294.3468 120.2502,-301.6609 111.2585,-309.4465 110.4656,-310.0691 110.3415,-310.1572 98.9841,-317.4133 102.4679,-360.5684 97.8408,-359.4439 93.4023,-360.5477 93.4023,-360.5477 97.8408,-359.4439 102.4679,-360.5684 105.6996,-362.8356 106.7693,-364.1401 106.2409,-364.7874 107.0866,-412.1604 106.8787,-417.5808 98.6721,-411.8918 97.3326,-411.0705 93.6083,-409.0695 82.7168,-404.8174 78.4427,-403.4807 77.8196,-403.3338 61.5072,-400.709 55.9191,-399.3952 54.6751,-399.0119 40.7524,-392.5609 41.9388,-413.5053 40.4416,-435.3009 35.9319,-437.4473 33.5128,-439.6696 35.6888,-441.6646 35.6888,-441.6646 33.5128,-439.6696 35.9319,-437.4473 40.4416,-435.3009 41.9388,-413.5053 40.7524,-392.5609 54.6751,-399.0119 55.9191,-399.3952 61.5072,-400.709 77.8196,-403.3338 78.4427,-403.4807 82.7168,-404.8174 93.6083,-409.0695 97.3326,-411.0705 98.6721,-411.8918 106.8787,-417.5808 107.0866,-412.1604 106.2409,-364.7874 106.7693,-364.1401 105.6996,-362.8356 102.4679,-360.5684 98.9841,-317.4133 110.3415,-310.1572 110.4656,-310.0691 111.2585,-309.4465 120.2502,-301.6609 64.7853,-294.3468 60.9948,-290.3545 60.9546,-290.2689 60.7704,-290.0734 56.1627,-292.3766 51.7927,-292.3766 47.4318,-290.0723 47.4318,-285.4493 47.5562,-285.3213 50.9108,-283.6715 53.3632,-264.402 52.7939,-242.9856 57.7718,-242.8057 57.943,-198.1721 54.312,-198.1721 52.524,-195.9999 52.3537,-195.5749 55.8614,-173.4395 56.455,-128.5504 60.9371,-133.1183 65.4233,-137.3345 67.0928,-195.1537 64.4633,-197.7103 66.0469,-199.2735 66.0469,-199.2735 64.4633,-197.7103 67.0928,-195.1537 71.0817,-193.2415 76.3292,-193.2415 79.4543,-194.7216 83.0897,-170.9652 85.7748,-197.6116 88.925,-197.6116 89.6305,-197.7883 89.8509,-197.7883 89.8509,-197.7883 89.6305,-197.7883 88.925,-197.6116 85.7748,-197.6116 83.0897,-170.9652 79.4543,-194.7216 76.3292,-193.2415 71.0817,-193.2415 67.0928,-195.1537 65.4233,-137.3345 60.9371,-133.1183 56.455,-128.5504 55.8614,-173.4395 52.3537,-195.5749 49.0877,-191.7397 -43.0422,-169.6326 -26.7857,-127.1085 -20.3401,-120.4914 22.5007,-89.0347 33.4411,-67.5138 110.0696,-16.7905 110.4313,-16.5404 131.0617,-25.415 138.4893,-28.0445 145.966,-30.3175 146.6799,-133.0233 142.5456,-134.0508 137.4081,-138.0544 137.0029,-138.0544 136.8079,-138.1033 134.1448,-138.1033 133.8768,-138.0353 133.8768,-138.0353 134.1448,-138.1033 136.8079,-138.1033 137.0029,-138.0544 137.4081,-138.0544 142.5456,-134.0508 146.6799,-133.0233 145.966,-30.3175 146.1006,-30.3551 159.9022,-33.8625 167.2226,-35.3529 178.5968,-37.0968 262.6678,-47.8595 304.5738,-131.3837 306.6573,-135.0424 301.7892,-157.1313 300.8055,-162.0096 290.8347,-207.0815 298.8021,-220.0004 315.3676,-250.5139 319.73,-253.6775 336.7754,-264.5379 337.3819,-264.8874 402.3439,-300.4212 422.5822,-298.3092 424.6474,-298.1474 435.1244,-297.5991 437.4219,-297.5988 438.7448,-297.5644 447.3223,-297.5653 447.9284,-297.534 452.6137,-297.5369 453.8661,-297.5053 455.2016,-297.5414 458.3415,-384.9705 453.9857,-386.9873 451.3531,-389.4426 450.764,-389.4426 447.4262,-364.6674 444.6553,-385.7192 441.1101,-382.7585 426.3813,-383.9905 389.5381,-380.3523 389.0349,-386.0145 385.3359,-413.2803 382.2452,-430.5182 392.3962,-449.8367 321.7505,-461.7677 320.2245,-420.1969 327.2787,-420.0896 324.4168,-373.0592 325.3882,-371.8734 320.6718,-368.4176 315.6595,-367.1776 312.2715,-367.9699 312.2715,-367.9699 315.6595,-367.1776 320.6718,-368.4176 325.3882,-371.8734 324.4168,-373.0592 327.2787,-420.0896 320.2245,-420.1969 321.7505,-461.7677 392.3962,-449.8367 382.2452,-430.5182 385.3359,-413.2803 389.0349,-386.0145 389.5381,-380.3523 426.3813,-383.9905 441.1101,-382.7585 444.6553,-385.7192 447.4262,-364.6674 450.764,-389.4426 451.3531,-389.4426 453.9857,-386.9873 458.3415,-384.9705 455.2016,-297.5414 461.6995,-297.5489 470.6323,-297.3275 475.082,-297.6829 475.082,-297.6829"/>
<polygon fill="#ccebc5" stroke="#ccebc5" points="687.5052,-300.4578 697.3709,-333.7228 700.9783,-358.271 702.1826,-363.0261 705.0859,-377.7366 720.2382,-428.8269 750.6008,-437.3311 752.0726,-437.7827 753.5055,-438.3006 760.9372,-341.7445 763.0685,-341.7445 767.6976,-369.1042 771.0873,-431.1886 773.2507,-345.2241 777.7217,-346.2917 781.2823,-345.4698 781.2823,-345.4698 777.7217,-346.2917 773.2507,-345.2241 771.0873,-431.1886 767.6976,-369.1042 763.0685,-341.7445 760.9372,-341.7445 753.5055,-438.3006 771.254,-445.2104 786.4434,-452.7714 792.0329,-455.853 792.3428,-372.2734 792.3428,-372.2734 792.0329,-455.853 795.1121,-457.7179 799.1767,-341.5285 798.1214,-341.2804 802.2544,-290.0696 803.2783,-338.4904 807.3079,-334.7635 836.5229,-334.2144 893.5314,-328.2802 865.5931,-272.5256 949.1957,-260.9626 952.9007,-256.3727 953.4349,-256.038 954.9149,-257.5805 958.3841,-259.2402 962.603,-259.2402 962.603,-259.2402 958.3841,-259.2402 954.9149,-257.5805 953.4349,-256.038 952.9007,-256.3727 949.1957,-260.9626 865.5931,-272.5256 893.5314,-328.2802 836.5229,-334.2144 807.3079,-334.7635 803.2783,-338.4904 802.2544,-290.0696 798.1214,-341.2804 799.1767,-341.5285 795.1121,-457.7179 805.3084,-464.176 812.2305,-468.7458 824.1317,-476.9166 912.9418,-435.2713 953.6364,-463.1156 1041.1069,-480.2638 1042.686,-480.6113 1048.4131,-482.0103 1049.0443,-449.3425 1049.0443,-449.3425 1048.4131,-482.0103 1055.4888,-484.0822 1064.4421,-486.9211 1064.7374,-458.2866 1070.1451,-381.6651 1073.7234,-381.6651 1078.6488,-379.257 1081.1608,-376.8237 1079.4143,-375.196 1074.1062,-372.5714 1074.1062,-372.5714 1079.4143,-375.196 1081.1608,-376.8237 1078.6488,-379.257 1073.7234,-381.6651 1070.1451,-381.6651 1064.7374,-458.2866 1064.4421,-486.9211 1080.7324,-493.2718 1084.7731,-495.0389 1084.994,-485.1775 1084.994,-485.1775 1084.7731,-495.0389 1093.1497,-499.3158 1096.2992,-509.5674 1098.9742,-520.6589 1103.3273,-540.5297 1122.645,-579.7823 1174.777,-620.635 1213.9122,-615.4029 1214.537,-615.3625 1227.4182,-614.8229 1232.3895,-614.8431 1236.9525,-614.9664 1238.363,-517.2175 1242.1703,-516.3364 1247.2994,-512.6347 1246.0574,-511.0774 1243.0254,-508.9149 1238.2391,-507.7318 1233.28,-508.9487 1229.8461,-511.325 1228.948,-452.1844 1224.6797,-452.0927 1222.8396,-451.8977 1217.812,-452.0078 1213.4803,-452.2879 1206.9988,-452.1593 1205.1887,-452.2774 1198.5725,-452.4303 1198.6954,-445.1315 1198.6954,-445.1315 1198.5725,-452.4303 1205.1887,-452.2774 1206.9988,-452.1593 1207.6305,-423.0477 1211.3226,-392.3933 1210.0897,-392.088 1211.3641,-329.831 1211.5023,-329.8246 1209.6111,-274.3168 1209.6111,-274.3168 1211.5023,-329.8246 1211.3641,-329.831 1210.0897,-392.088 1211.3226,-392.3933 1207.6305,-423.0477 1206.9988,-452.1593 1213.4803,-452.2879 1217.812,-452.0078 1222.8396,-451.8977 1222.9268,-441.5895 1222.8168,-439.1404 1222.8168,-439.1404 1222.9268,-441.5895 1222.8396,-451.8977 1224.6797,-452.0927 1228.948,-452.1844 1230.7441,-452.1474 1239.1486,-452.3321 1238.6471,-416.5314 1241.1227,-396.7776 1244.5386,-395.9687 1248.7739,-392.8452 1249.7061,-391.6634 1245.1947,-388.4558 1245.1947,-388.4558 1249.7061,-391.6634 1248.7739,-392.8452 1251.1012,-430.222 1250.8566,-451.852 1258.7418,-452.0417 1258.8207,-452.047 1263.1515,-451.971 1267.6375,-452.2733 1272.8556,-452.1862 1273.0107,-419.4892 1276.355,-391.9153 1276.8376,-391.9153 1277.3944,-391.4016 1277.3944,-391.4016 1276.8376,-391.9153 1276.355,-391.9153 1273.0107,-419.4892 1272.8556,-452.1862 1267.6375,-452.2733 1263.1515,-451.971 1258.8207,-452.047 1258.7418,-452.0417 1250.8566,-451.852 1251.1012,-430.222 1248.7739,-392.8452 1244.5386,-395.9687 1241.1227,-396.7776 1238.6471,-416.5314 1239.1486,-452.3321 1230.7441,-452.1474 1228.948,-452.1844 1229.8461,-511.325 1233.28,-508.9487 1238.2391,-507.7318 1243.0254,-508.9149 1246.0574,-511.0774 1247.2994,-512.6347 1242.1703,-516.3364 1238.363,-517.2175 1236.9525,-614.9664 1244.8671,-615.3625 1249.1494,-615.7736 1257.3047,-616.7446 1257.5552,-536.9233 1257.5552,-536.9233 1257.3047,-616.7446 1270.4329,-618.9119 1323.4658,-630.0842 1362.379,-594.3934 1366.3668,-548.0163 1369.9728,-515.1882 1371.9454,-500.3681 1374.567,-483.5638 1377.4565,-467.3607 1395.1487,-444.2117 1397.1705,-438.4393 1394.8514,-427.9394 1385.494,-380.9534 1380.2999,-340.7101 1316.1641,-283.005 1315.6239,-279.7885 1312.5588,-254.9695 1311.4575,-240.8873 1270.1561,-171.9919 1204.951,-165.8385 1195.5554,-164.2651 1181.5745,-160.8918 1177.5009,-159.8098 1168.4436,-157.1835 1165.6449,-156.2369 1153.13,-151.3876 1144.1935,-147.4904 1140.537,-145.8079 1139.1113,-145.0825 1076.1864,-146.1149 1067.059,-126.4314 1055.6337,-100.4646 1020.723,-4.515 1020.5693,-4.2081 1019.9802,6.327 1002.3063,36.4282 980.1342,60.6869 910.6039,74.9367 896.5425,78.1566 896.1176,47.9668 896.1397,46.7572 899.7718,-24.1778 903.5913,-20.8211 942.5359,-21.3301 1003.0532,-14.5461 952.1069,-49.6325 946.4095,-53.9869 946.3318,-59.6232 946.3318,-59.6232 946.4095,-53.9869 952.1069,-49.6325 1003.0532,-14.5461 942.5359,-21.3301 903.5913,-20.8211 899.7718,-24.1778 896.1397,46.7572 896.1176,47.9668 896.5425,78.1566 885.2253,81.5558 879.4435,83.429 880.0609,-2.6373 876.9128,-27.2006 878.7885,-27.663 881.543,-27.663 884.3145,-58.7868 884.249,-68.6413 891.3158,-67.5 897.9384,-66.8966 897.9384,-66.8966 891.3158,-67.5 884.249,-68.6413 877.1472,-70.7847 864.9698,-76.1985 862.7028,-77.5155 853.5654,-83.4822 851.5261,-85.0961 846.2184,-89.6918 842.0756,-93.5836 900.7277,-100.1454 905.2674,-105.4707 905.3865,-105.5475 905.4252,-105.5576 907.0935,-106.5554 909.274,-106.5554 910.2761,-106.8179 914.2944,-106.8179 914.3324,-106.8081 916.8972,-106.8081 919.6055,-103.9437 919.6055,-103.9437 916.8972,-106.8081 914.3324,-106.8081 914.2944,-106.8179 910.2761,-106.8179 909.274,-106.5554 907.0935,-106.5554 905.4252,-105.5576 905.3865,-105.5475 905.2674,-105.4707 900.7277,-100.1454 842.0756,-93.5836 846.2184,-89.6918 851.5261,-85.0961 853.5654,-83.4822 862.7028,-77.5155 864.9698,-76.1985 877.1472,-70.7847 884.249,-68.6413 884.3145,-58.7868 881.543,-27.663 878.7885,-27.663 876.9128,-27.2006 880.0609,-2.6373 879.4435,83.429 878.7887,83.6721 868.813,82.4954 868.0162,82.4356 861.246,82.0721 857.0351,81.9362 856.5552,-23.6903 852.8179,-22.8279 847.5667,-24.1132 843.9633,-26.6599 843.0346,-27.7702 843.2965,-28.0719 847.6058,-31.1171 852.1346,-32.2216 852.1346,-32.2216 847.6058,-31.1171 843.2965,-28.0719 843.0346,-27.7702 843.9633,-26.6599 847.5667,-24.1132 852.8179,-22.8279 856.5552,-23.6903 857.0351,81.9362 847.9191,81.837 847.0881,81.8635 840.8823,79.984 832.404,78.0098 826.7281,76.8208 817.7169,75.1443 815.2586,74.7451 809.0685,74.03 806.1515,73.7614 797.7017,73.181 761.6954,71.5523 716.7341,28.9447 690.5869,-17.852 685.8325,-25.9599 675.9777,-41.325 672.5117,-46.5169 684.0023,-65.9347 672.2689,-144.7451 670.9414,-160.8827 674.3716,-166.1564 678.9966,-173.8698 686.3672,-187.3526 689.8408,-194.4628 738.7219,-187.4989 742.1686,-183.8785 748.5342,-234.5383 750.0367,-254.6246 751.338,-234.5193 757.1746,-183.9737 760.7445,-185.6994 765.5351,-185.6994 769.7683,-183.6274 772.1727,-181.2429 769.9403,-178.9827 765.5236,-176.7473 765.5236,-176.7473 769.9403,-178.9827 772.1727,-181.2429 769.7683,-183.6274 765.5351,-185.6994 760.7445,-185.6994 757.1746,-183.9737 751.338,-234.5193 750.0367,-254.6246 748.5342,-234.5383 742.1686,-183.8785 738.7219,-187.4989 689.8408,-194.4628 706.8755,-234.13 725.1939,-262.2939 687.5052,-300.4578 687.5052,-300.4578"/>
<polygon fill="#fed9a6" stroke="#fed9a6" points="385.4962,82.9779 382.8782,82.7809 362.8936,81.7617 322.8633,75.4732 299.5104,48.3267 282.227,-.5108 274.8137,-20.0061 269.5325,-32.2715 269.3563,-32.6941 262.6678,-47.8595 304.5738,-131.3837 306.6573,-135.0424 301.7892,-157.1313 300.8055,-162.0096 290.8347,-207.0815 298.8021,-220.0004 315.3676,-250.5139 319.73,-253.6775 336.7754,-264.5379 337.3819,-264.8874 402.3439,-300.4212 422.5822,-298.3092 424.6474,-298.1474 435.1244,-297.5991 434.6828,-237.6881 434.6828,-237.6881 435.1244,-297.5991 437.4219,-297.5988 438.7448,-297.5644 447.3223,-297.5653 447.9284,-297.534 452.6137,-297.5369 453.8661,-297.5053 455.7051,-231.6329 459.4753,-207.1553 461.5607,-208.5845 467.0032,-209.9469 471.6533,-208.7819 476.109,-205.5277 471.3666,-201.9201 467.0273,-200.8171 467.0273,-200.8171 471.3666,-201.9201 476.109,-205.5277 476.2472,-205.5277 476.3224,-205.5093 471.0486,-133.2018 470.6316,-122.448 479.4961,-134.676 485.9235,-142.3464 494.4144,-151.6863 495.3256,-152.5951 540.9372,-154.6845 544.1952,-157.896 518.2559,-163.8915 530.8036,-165.0542 540.7939,-168.5151 542.9005,-200.7617 542.9005,-200.7617 540.7939,-168.5151 530.8036,-165.0542 518.2559,-163.8915 544.1952,-157.896 540.9372,-154.6845 495.3256,-152.5951 494.4144,-151.6863 485.9235,-142.3464 479.4961,-134.676 470.6316,-122.448 471.0486,-133.2018 476.3224,-205.5093 476.2472,-205.5277 476.109,-205.5277 471.6533,-208.7819 467.0032,-209.9469 461.5607,-208.5845 459.4753,-207.1553 455.7051,-231.6329 453.8661,-297.5053 455.2016,-297.5414 461.6995,-297.5489 470.6323,-297.3275 475.082,-297.6829 476.3602,-297.6857 484.1442,-297.5017 488.1873,-297.6169 497.4576,-298.3652 498.1372,-298.4378 500.8073,-298.7931 514.2218,-346.519 519.2684,-368.6921 519.9471,-374.8827 521.6516,-384.8826 561.7089,-373.7973 564.1725,-406.4015 566.8199,-369.7048 568.6821,-367.9029 571.3747,-367.9029 571.5483,-367.9453 574.3532,-367.9453 574.7099,-367.8583 574.7099,-367.8583 574.3532,-367.9453 571.5483,-367.9453 571.3747,-367.9029 568.6821,-367.9029 566.8199,-369.7048 564.1725,-406.4015 561.7089,-373.7973 521.6516,-384.8826 522.736,-394.8109 533.9468,-434.6964 519.2568,-441.3015 515.6976,-442.573 511.5537,-443.8664 505.2441,-445.5513 480.4305,-449.9375 467.723,-453.3025 460.61,-455.8011 458.7299,-456.5423 451.7377,-459.6036 441.5318,-464.9588 412.1016,-482.9199 410.779,-494.2113 410.366,-497.0985 401.876,-540.5198 501.3481,-512.6172 503.1206,-544.2099 506.6308,-509.4589 506.726,-509.3806 509.9871,-510.9753 509.9871,-510.9753 506.726,-509.3806 506.6308,-509.4589 503.1206,-544.2099 501.3481,-512.6172 401.876,-540.5198 385.1322,-616.7045 385.9011,-617.4348 422.8972,-629.6353 450.3642,-632.6174 481.6465,-603.7553 493.4452,-592.3037 502.2441,-583.2473 505.4838,-580.3289 576.0475,-582.1901 573.0181,-578.0193 519.5823,-567.7573 523.4352,-564.2742 523.1761,-556.7731 523.1761,-556.7731 523.4352,-564.2742 519.5823,-567.7573 573.0181,-578.0193 576.0475,-582.1901 505.4838,-580.3289 502.2441,-583.2473 493.4452,-592.3037 481.6465,-603.7553 450.3642,-632.6174 554.6884,-694.8514 573.1942,-702.0023 576.8594,-702.6793 585.9591,-704.976 589.292,-607.0419 593.0724,-588.531 586.7715,-588.531 583.2313,-586.7067 580.935,-584.2325 583.1113,-581.9128 587.6295,-579.5853 591.5798,-579.5853 591.5798,-579.5853 587.6295,-579.5853 583.1113,-581.9128 580.935,-584.2325 583.2313,-586.7067 586.7715,-588.531 593.0724,-588.531 589.292,-607.0419 585.9591,-704.976 589.7146,-706.0947 595.9774,-713.9175 631.5095,-743.9562 675.7016,-766.7474 698.038,-767.9044 698.2474,-767.92 703.5437,-768.4305 708.4769,-767.1647 721.379,-764.4633 729.1234,-763.2104 728.9863,-728.0422 723.9883,-664.8337 726.7457,-662.1096 724.4163,-659.819 724.4163,-659.819 726.7457,-662.1096 723.9883,-664.8337 728.9863,-728.0422 729.1234,-763.2104 736.7788,-762.5148 790.6966,-758.8886 822.4689,-726.8473 831.2592,-681.5792 837.0186,-655.3804 840.9163,-642.1117 803.1207,-564.6261 806.4598,-547.9176 698.9137,-523.9658 695.0477,-519.2216 694.3474,-518.7622 693.5544,-517.868 693.552,-517.8664 690.7655,-517.8664 689.2151,-545.0515 684.5074,-518.1252 683.4374,-518.1252 681.6956,-517.6952 676.6366,-517.6952 676.1158,-517.8204 674.2118,-517.8204 668.4832,-463.6802 669.1145,-517.8328 665.0687,-517.8328 663.8139,-552.9777 659.389,-517.7065 659.1633,-517.6528 657.1183,-519.5566 651.4086,-522.3735 647.603,-522.3735 644.59,-521.0027 640.4854,-542.5389 638.5713,-517.6262 635.3268,-517.6262 634.439,-517.4148 632.4045,-517.4148 630.1213,-517.9757 630.1213,-517.9757 632.4045,-517.4148 634.439,-517.4148 635.3268,-517.6262 638.5713,-517.6262 640.4854,-542.5389 644.59,-521.0027 647.603,-522.3735 651.4086,-522.3735 657.1183,-519.5566 659.1633,-517.6528 659.0257,-517.4518 657.9451,-516.4791 651.8588,-513.4396 647.7955,-513.4396 647.7955,-513.4396 651.8588,-513.4396 657.9451,-516.4791 659.0257,-517.4518 659.1633,-517.6528 659.389,-517.7065 663.8139,-552.9777 665.0687,-517.8328 669.1145,-517.8328 668.4832,-463.6802 674.2118,-517.8204 676.1158,-517.8204 676.6366,-517.6952 681.6956,-517.6952 683.4374,-518.1252 684.5074,-518.1252 689.2151,-545.0515 690.7655,-517.8664 693.552,-517.8664 693.5544,-517.868 694.3474,-518.7622 695.0477,-519.2216 698.9137,-523.9658 806.4598,-547.9176 809.968,-532.1301 819.3904,-493.547 824.1317,-476.9166 812.2305,-468.7458 805.3084,-464.176 795.1121,-457.7179 792.0329,-455.853 786.4434,-452.7714 771.254,-445.2104 753.5055,-438.3006 752.0726,-437.7827 750.6008,-437.3311 720.2382,-428.8269 705.0859,-377.7366 661.1202,-372.7309 654.35,-375.0089 649.9251,-372.1836 647.3227,-368.0173 645.8253,-368.0173 645.5246,-367.9415 641.6051,-367.9415 638.9946,-417.8447 636.2686,-367.6845 633.1011,-367.6845 633.1011,-367.6845 636.2686,-367.6845 638.9946,-417.8447 641.6051,-367.9415 645.5246,-367.9415 645.8253,-368.0173 647.3227,-368.0173 649.9251,-372.1836 654.35,-375.0089 661.1202,-372.7309 705.0859,-377.7366 702.1826,-363.0261 700.9783,-358.271 697.3709,-333.7228 687.5052,-300.4578 660.8445,-300.8699 657.2712,-300.7888 652.3186,-241.1665 648.6558,-238.1996 648.2032,-237.2903 644.4925,-233.9884 643.7363,-233.9884 643.6216,-233.9587 642.3459,-183.7675 637.2787,-187.2768 636.2818,-187.8825 627.6356,-192.442 626.2527,-193.0532 626.2527,-193.0532 627.6356,-192.442 636.2818,-187.8825 637.2787,-187.2768 642.3459,-183.7675 643.6216,-233.9587 643.7363,-233.9884 644.4925,-233.9884 647.1669,-231.6834 647.1669,-231.6834 644.4925,-233.9884 648.2032,-237.2903 648.6558,-238.1996 652.3186,-241.1665 657.2712,-300.7888 660.8445,-300.8699 687.5052,-300.4578 725.1939,-262.2939 706.8755,-234.13 689.8408,-194.4628 686.3672,-187.3526 678.9966,-173.8698 674.3716,-166.1564 670.9414,-160.8827 672.2689,-144.7451 684.0023,-65.9347 672.5117,-46.5169 605.0728,-37.5122 603.6927,-37.3016 587.622,-34.5409 575.8029,-31.8374 571.5929,-35.9269 571.8492,-56.0206 569.7224,-122.8669 566.0659,-157.9154 562.4544,-160.4559 561.8635,-161.1528 561.9406,-161.2474 561.9406,-161.2474 561.8635,-161.1528 562.4544,-160.4559 566.0659,-157.9154 569.7224,-122.8669 571.8492,-56.0206 571.5929,-35.9269 575.8029,-31.8374 571.7165,-24.3097 558.0968,1.9862 531.051,60.3232 470.1532,95.1806 450.435,93.8215 449.4352,50.8743 449.4352,50.8743 450.435,93.8215 436.2294,93.7632 434.375,93.8358 427.3064,91.4133 413.1621,87.593 412.7342,87.4879 410.6535,3.6928 406.4011,-17.6308 408.051,-18.0528 408.0907,-18.1031 413.4229,-22.1699 416.4416,-22.8751 416.4416,-22.8751 413.4229,-22.1699 408.0907,-18.1031 408.051,-18.0528 406.4011,-17.6308 410.6535,3.6928 412.7342,87.4879 400.8243,85.14 395.4414,84.2104 385.5006,82.9783 385.4962,82.9779 385.4962,82.9779"/>
<polyline fill="none" stroke="#000000" points="62.3684,-611.0056 7.1671,-606.2533 -44.5204,-529.3038 -52.0665,-524.1996 -87.6168,-466.0864 -87.6405,-445.9059 -87.6536,-445.3041 -89.1272,-421.98 -89.6377,-415.8787 -70.9429,-349.5005 -82.681,-312.4208 -84.085,-308.2531 -82.99,-284.8173 -82.8389,-269.754 -83.0397,-245.4982 -71.0315,-232.8711 -57.546,-203.8916 -51.0642,-189.1273 -43.0422,-169.6326 -26.7857,-127.1085 -20.3401,-120.4914 22.5007,-89.0347 33.4411,-67.5138 110.0696,-16.7905 110.4313,-16.5404 131.0617,-25.415 138.4893,-28.0445 145.966,-30.3175 146.1006,-30.3551 159.9022,-33.8625 167.2226,-35.3529 178.5968,-37.0968 262.6678,-47.8595 304.5738,-131.3837 306.6573,-135.0424 301.7892,-157.1313 300.8055,-162.0096 290.8347,-207.0815 298.8021,-220.0004 315.3676,-250.5139 319.73,-253.6775 336.7754,-264.5379 337.3819,-264.8874 402.3439,-300.4212 422.5822,-298.3092 424.6474,-298.1474 435.1244,-297.5991 437.4219,-297.5988 438.7448,-297.5644 447.3223,-297.5653 447.9284,-297.534 452.6137,-297.5369 453.8661,-297.5053 455.2016,-297.5414 461.6995,-297.5489 470.6323,-297.3275 475.082,-297.6829 476.3602,-297.6857 484.1442,-297.5017 488.1873,-297.6169 497.4576,-298.3652 498.1372,-298.4378 500.8073,-298.7931 514.2218,-346.519 519.2684,-368.6921 519.9471,-374.8827 521.6516,-384.8826 522.736,-394.8109 533.9468,-434.6964 519.2568,-441.3015 515.6976,-442.573 511.5537,-443.8664 505.2441,-445.5513 480.4305,-449.9375 467.723,-453.3025 460.61,-455.8011 458.7299,-456.5423 451.7377,-459.6036 441.5318,-464.9588 412.1016,-482.9199 410.779,-494.2113 410.366,-497.0985 401.876,-540.5198 385.1322,-616.7045 321.7699,-608.4221 311.4474,-607.2521 302.0337,-606.676 290.6202,-606.5718 281.6843,-606.8011 268.9734,-607.3483 241.5066,-609.4834 199.3163,-595.0001 136.5291,-623.3399 126.8707,-624.4748 78.2806,-613.2213 76.7686,-612.9448 62.3684,-611.0056 "/>
<polyline fill="none" stroke="#000000" points="1195.5554,-164.2651 1204.951,-165.8385 1270.1561,-171.9919 1311.4575,-240.8873 1312.5588,-254.9695 1315.6239,-279.7885 1316.1641,-283.005 1380.2999,-340.7101 1385.494,-380.9534 1394.8514,-427.9394 1397.1705,-438.4393 1395.1487,-444.2117 1377.4565,-467.3607 1374.567,-483.5638 1371.9454,-500.3681 1369.9728,-515.1882 1366.3668,-548.0163 1362.379,-594.3934 1323.4658,-630.0842 1270.4329,-618.9119 1257.3047,-616.7446 1249.1494,-615.7736 1244.8671,-615.3625 1236.9525,-614.9664 1232.3895,-614.8431 1227.4182,-614.8229 1214.537,-615.3625 1213.9122,-615.4029 1174.777,-620.635 1122.645,-579.7823 1103.3273,-540.5297 1098.9742,-520.6589 1096.2992,-509.5674 1093.1497,-499.3158 1084.7731,-495.0389 1080.7324,-493.2718 1064.4421,-486.9211 1055.4888,-484.0822 1048.4131,-482.0103 1042.686,-480.6113 1041.1069,-480.2638 953.6364,-463.1156 912.9418,-435.2713 824.1317,-476.9166 812.2305,-468.7458 805.3084,-464.176 795.1121,-457.7179 792.0329,-455.853 786.4434,-452.7714 771.254,-445.2104 753.5055,-438.3006 752.0726,-437.7827 750.6008,-437.3311 720.2382,-428.8269 705.0859,-377.7366 702.1826,-363.0261 700.9783,-358.271 697.3709,-333.7228 687.5052,-300.4578 725.1939,-262.2939 706.8755,-234.13 689.8408,-194.4628 686.3672,-187.3526 678.9966,-173.8698 674.3716,-166.1564 670.9414,-160.8827 672.2689,-144.7451 684.0023,-65.9347 672.5117,-46.5169 675.9777,-41.325 685.8325,-25.9599 690.5869,-17.852 716.7341,28.9447 761.6954,71.5523 797.7017,73.181 806.1515,73.7614 809.0685,74.03 815.2586,74.7451 817.7169,75.1443 826.7281,76.8208 832.404,78.0098 840.8823,79.984 847.0881,81.8635 847.9191,81.837 857.0351,81.9362 861.246,82.0721 868.0162,82.4356 868.813,82.4954 878.7887,83.6721 879.4435,83.429 885.2253,81.5558 896.5425,78.1566 910.6039,74.9367 980.1342,60.6869 1002.3063,36.4282 1019.9802,6.327 1020.5693,-4.2081 1020.723,-4.515 1055.6337,-100.4646 1067.059,-126.4314 1076.1864,-146.1149 1139.1113,-145.0825 1140.537,-145.8079 1144.1935,-147.4904 1153.13,-151.3876 1165.6449,-156.2369 1168.4436,-157.1835 1177.5009,-159.8098 1181.5745,-160.8918 1195.5554,-164.2651 "/>
<polyline fill="none" stroke="#000000" points="533.9468,-434.6964 522.736,-394.8109 521.6516,-384.8826 519.9471,-374.8827 519.2684,-368.6921 514.2218,-346.519 500.8073,-298.7931 498.1372,-298.4378 497.4576,-298.3652 488.1873,-297.6169 484.1442,-297.5017 476.3602,-297.6857 475.082,-297.6829 470.6323,-297.3275 461.6995,-297.5489 455.2016,-297.5414 453.8661,-297.5053 452.6137,-297.5369 447.9284,-297.534 447.3223,-297.5653 438.7448,-297.5644 437.4219,-297.5988 435.1244,-297.5991 424.6474,-298.1474 422.5822,-298.3092 402.3439,-300.4212 337.3819,-264.8874 336.7754,-264.5379 319.73,-253.6775 315.3676,-250.5139 298.8021,-220.0004 290.8347,-207.0815 300.8055,-162.0096 301.7892,-157.1313 306.6573,-135.0424 304.5738,-131.3837 262.6678,-47.8595 269.3563,-32.6941 269.5325,-32.2715 274.8137,-20.0061 282.227,-.5108 299.5104,48.3267 322.8633,75.4732 362.8936,81.7617 382.8782,82.7809 385.4962,82.9779 385.5006,82.9783 395.4414,84.2104 400.8243,85.14 412.7342,87.4879 413.1621,87.593 427.3064,91.4133 434.375,93.8358 436.2294,93.7632 450.435,93.8215 470.1532,95.1806 531.051,60.3232 558.0968,1.9862 571.7165,-24.3097 575.8029,-31.8374 587.622,-34.5409 603.6927,-37.3016 605.0728,-37.5122 672.5117,-46.5169 684.0023,-65.9347 672.2689,-144.7451 670.9414,-160.8827 674.3716,-166.1564 678.9966,-173.8698 686.3672,-187.3526 689.8408,-194.4628 706.8755,-234.13 725.1939,-262.2939 687.5052,-300.4578 697.3709,-333.7228 700.9783,-358.271 702.1826,-363.0261 705.0859,-377.7366 720.2382,-428.8269 750.6008,-437.3311 752.0726,-437.7827 753.5055,-438.3006 771.254,-445.2104 786.4434,-452.7714 792.0329,-455.853 795.1121,-457.7179 805.3084,-464.176 812.2305,-468.7458 824.1317,-476.9166 819.3904,-493.547 809.968,-532.1301 806.4598,-547.9176 803.1207,-564.6261 840.9163,-642.1117 837.0186,-655.3804 831.2592,-681.5792 822.4689,-726.8473 790.6966,-758.8886 736.7788,-762.5148 729.1234,-763.2104 721.379,-764.4633 708.4769,-767.1647 703.5437,-768.4305 698.2474,-767.92 698.038,-767.9044 675.7016,-766.7474 631.5095,-743.9562 595.9774,-713.9175 589.7146,-706.0947 585.9591,-704.976 576.8594,-702.6793 573.1942,-702.0023 554.6884,-694.8514 450.3642,-632.6174 422.8972,-629.6353 385.9011,-617.4348 385.1322,-616.7045 401.876,-540.5198 410.366,-497.0985 410.779,-494.2113 412.1016,-482.9199 441.5318,-464.9588 451.7377,-459.6036 458.7299,-456.5423 460.61,-455.8011 467.723,-453.3025 480.4305,-449.9375 505.2441,-445.5513 511.5537,-443.8664 515.6976,-442.573 519.2568,-441.3015 533.9468,-434.6964 "/>
<!-- cpp&#45;&gt;libmpc -->
<g id="edge1" class="edge">
<title>cpp&#45;&gt;libmpc</title>
<path fill="none" stroke="#444444" stroke-opacity="0.333333" d="M64.6983,-490.2288C61.6662,-483.196 58.1215,-474.9745 54.7823,-467.2294"/>
<polygon fill="#444444" fill-opacity="0.333333" stroke="#444444" stroke-opacity="0.333333" points="57.8897,-465.5962 50.7165,-457.799 51.4616,-468.3676 57.8897,-465.5962"/>
</g>
<!-- curl&#45;minimal&#45;&gt;libcurl&#45;minimal -->
<g id="edge2" class="edge">
<title>curl&#45;minimal&#45;&gt;libcurl&#45;minimal</title>
<path fill="none" stroke="#444444" stroke-opacity="0.333333" d="M1183.8551,-285.4084C1194.9688,-306.2985 1213.3348,-340.8204 1226.1522,-364.9129"/>
<polygon fill="#444444" fill-opacity="0.333333" stroke="#444444" stroke-opacity="0.333333" points="1223.1465,-366.7151 1230.9332,-373.8997 1229.3263,-363.4274 1223.1465,-366.7151"/>
</g>
<!-- libcurl&#45;minimal&#45;&gt;libnghttp2 -->
<g id="edge3" class="edge">
<title>libcurl&#45;minimal&#45;&gt;libnghttp2</title>
<path fill="none" stroke="#444444" stroke-opacity="0.333333" d="M1240.2557,-410.0771C1239.8814,-429.6522 1239.2782,-461.1954 1238.8406,-484.0803"/>
<polygon fill="#444444" fill-opacity="0.333333" stroke="#444444" stroke-opacity="0.333333" points="1235.3386,-484.1546 1238.6467,-494.2198 1242.3373,-484.2885 1235.3386,-484.1546"/>
</g>
<!-- gcc&#45;&gt;cpp -->
<g id="edge4" class="edge">
<title>gcc&#45;&gt;cpp</title>
<path fill="none" stroke="#444444" stroke-opacity="0.333333" d="M199.3987,-347.0211C174.335,-378.8574 122.4251,-444.7939 93.3533,-481.7213"/>
<polygon fill="#444444" fill-opacity="0.333333" stroke="#444444" stroke-opacity="0.333333" points="90.263,-479.9884 86.8272,-490.0107 95.7631,-484.3185 90.263,-479.9884"/>
</g>
<!-- gcc&#45;&gt;libmpc -->
<g id="edge5" class="edge">
<title>gcc&#45;&gt;libmpc</title>
<path fill="none" stroke="#444444" stroke-opacity="0.333333" d="M186.6524,-346.3913C157.6728,-365.1932 111.5283,-395.1316 79.3628,-416.0005"/>
<polygon fill="#444444" fill-opacity="0.333333" stroke="#444444" stroke-opacity="0.333333" points="77.1711,-413.2503 70.687,-421.6293 80.9811,-419.1226 77.1711,-413.2503"/>
</g>
<!-- gcc&#45;&gt;binutils -->
<g id="edge6" class="edge">
<title>gcc&#45;&gt;binutils</title>
<path fill="none" stroke="#444444" stroke-opacity="0.333333" d="M194.2429,-310.6081C169.7807,-287.7222 127.6982,-248.3518 100.2742,-222.695"/>
<polygon fill="#444444" fill-opacity="0.333333" stroke="#444444" stroke-opacity="0.333333" points="102.6483,-220.1232 92.9547,-215.8472 97.866,-225.2349 102.6483,-220.1232"/>
</g>
<!-- gcc&#45;&gt;isl -->
<g id="edge7" class="edge">
<title>gcc&#45;&gt;isl</title>
<path fill="none" stroke="#444444" stroke-opacity="0.333333" d="M186.5821,-321.897C160.1872,-315.1538 119.8951,-304.8602 90.6066,-297.3777"/>
<polygon fill="#444444" fill-opacity="0.333333" stroke="#444444" stroke-opacity="0.333333" points="91.3018,-293.943 80.7466,-294.8587 89.5691,-300.7251 91.3018,-293.943"/>
</g>
<!-- gcc&#45;&gt;libasan -->
<g id="edge8" class="edge">
<title>gcc&#45;&gt;libasan</title>
<path fill="none" stroke="#444444" stroke-opacity="0.333333" d="M240.9031,-340.2828C248.0604,-343.2983 256.0276,-346.655 264.0246,-350.0243"/>
<polygon fill="#444444" fill-opacity="0.333333" stroke="#444444" stroke-opacity="0.333333" points="262.8048,-353.3083 273.3793,-353.9656 265.5227,-346.8575 262.8048,-353.3083"/>
</g>
<!-- gcc&#45;&gt;libatomic -->
<g id="edge9" class="edge">
<title>gcc&#45;&gt;libatomic</title>
<path fill="none" stroke="#444444" stroke-opacity="0.333333" d="M207.289,-310.5219C195.4958,-276.948 170.3452,-205.3473 156.4251,-165.7186"/>
<polygon fill="#444444" fill-opacity="0.333333" stroke="#444444" stroke-opacity="0.333333" points="159.6779,-164.4176 153.0615,-156.1427 153.0735,-166.7375 159.6779,-164.4176"/>
</g>
<!-- gcc&#45;&gt;libgcc -->
<g id="edge10" class="edge">
<title>gcc&#45;&gt;libgcc</title>
<path fill="none" stroke="#444444" stroke-opacity="0.333333" d="M241.0527,-335.5745C281.0243,-345.4377 356.21,-363.9903 407.272,-376.5901"/>
<polygon fill="#444444" fill-opacity="0.333333" stroke="#444444" stroke-opacity="0.333333" points="406.5978,-380.0287 417.1452,-379.0264 408.2749,-373.2325 406.5978,-380.0287"/>
</g>
<!-- gcc&#45;&gt;libgomp -->
<g id="edge11" class="edge">
<title>gcc&#45;&gt;libgomp</title>
<path fill="none" stroke="#444444" stroke-opacity="0.333333" d="M186.5056,-337.1133C177.271,-339.9241 166.5697,-343.1812 155.8604,-346.4409"/>
<polygon fill="#444444" fill-opacity="0.333333" stroke="#444444" stroke-opacity="0.333333" points="154.6124,-343.1621 146.0648,-349.4223 156.6507,-349.8588 154.6124,-343.1621"/>
</g>
<!-- gcc&#45;&gt;libubsan -->
<g id="edge12" class="edge">
<title>gcc&#45;&gt;libubsan</title>
<path fill="none" stroke="#444444" stroke-opacity="0.333333" d="M224.5983,-347.0358C238.9258,-371.0143 264.2374,-413.3758 280.7972,-441.0902"/>
<polygon fill="#444444" fill-opacity="0.333333" stroke="#444444" stroke-opacity="0.333333" points="277.9152,-443.0906 286.0491,-449.8797 283.9243,-439.5001 277.9152,-443.0906"/>
</g>
<!-- libasan&#45;&gt;libgcc -->
<g id="edge13" class="edge">
<title>libasan&#45;&gt;libgcc</title>
<path fill="none" stroke="#444444" stroke-opacity="0.333333" d="M364.1632,-377.8805C377.8723,-379.5628 392.8942,-381.4061 406.9056,-383.1255"/>
<polygon fill="#444444" fill-opacity="0.333333" stroke="#444444" stroke-opacity="0.333333" points="406.5443,-386.6073 416.8962,-384.3514 407.397,-379.6594 406.5443,-386.6073"/>
</g>
<!-- libgcc&#45;&gt;libgcc -->
<g id="edge14" class="edge">
<title>libgcc&#45;&gt;libgcc</title>
<path fill="none" stroke="#444444" stroke-opacity="0.333333" d="M503.3561,-396.3109C513.6745,-395.7927 521.32,-393.5823 521.32,-389.68 521.32,-387.241 518.3335,-385.463 513.5745,-384.346"/>
<polygon fill="#444444" fill-opacity="0.333333" stroke="#444444" stroke-opacity="0.333333" points="513.7172,-380.8361 503.3561,-383.0491 512.8358,-387.7804 513.7172,-380.8361"/>
</g>
<!-- libubsan&#45;&gt;libgcc -->
<g id="edge15" class="edge">
<title>libubsan&#45;&gt;libgcc</title>
<path fill="none" stroke="#444444" stroke-opacity="0.333333" d="M334.8256,-449.9041C358.2315,-438.6717 388.4474,-424.1713 413.3647,-412.2136"/>
<polygon fill="#444444" fill-opacity="0.333333" stroke="#444444" stroke-opacity="0.333333" points="415.1286,-415.2493 422.6299,-407.7673 412.1,-408.9384 415.1286,-415.2493"/>
</g>
<!-- libarchive&#45;&gt;libgcc -->
<g id="edge16" class="edge">
<title>libarchive&#45;&gt;libgcc</title>
<path fill="none" stroke="#444444" stroke-opacity="0.333333" d="M712.8599,-351.2841C654.1702,-360.2072 568.5856,-373.2194 513.6753,-381.5679"/>
<polygon fill="#444444" fill-opacity="0.333333" stroke="#444444" stroke-opacity="0.333333" points="512.8164,-378.1582 503.4561,-383.1216 513.8686,-385.0787 512.8164,-378.1582"/>
</g>
<!-- rpm&#45;&gt;curl&#45;minimal -->
<g id="edge17" class="edge">
<title>rpm&#45;&gt;curl&#45;minimal</title>
<path fill="none" stroke="#444444" stroke-opacity="0.333333" d="M987.6875,-256.151C1013.0279,-257.6603 1052.2871,-259.9987 1088.2623,-262.1414"/>
<polygon fill="#444444" fill-opacity="0.333333" stroke="#444444" stroke-opacity="0.333333" points="1088.1173,-265.6389 1098.3078,-262.7397 1088.5336,-258.6513 1088.1173,-265.6389"/>
</g>
<!-- rpm&#45;&gt;libarchive -->
<g id="edge18" class="edge">
<title>rpm&#45;&gt;libarchive</title>
<path fill="none" stroke="#444444" stroke-opacity="0.333333" d="M933.6038,-267.3668C905.032,-280.9222 859.4102,-302.5666 824.8326,-318.9712"/>
<polygon fill="#444444" fill-opacity="0.333333" stroke="#444444" stroke-opacity="0.333333" points="822.9308,-315.9996 815.3962,-323.4482 825.9313,-322.3239 822.9308,-315.9996"/>
</g>
<!-- rpm&#45;&gt;libdb&#45;utils -->
<g id="edge19" class="edge">
<title>rpm&#45;&gt;libdb&#45;utils</title>
<path fill="none" stroke="#444444" stroke-opacity="0.333333" d="M977.0716,-272.6094C995.9877,-293.411 1027.2002,-327.7347 1048.6376,-351.3089"/>
<polygon fill="#444444" fill-opacity="0.333333" stroke="#444444" stroke-opacity="0.333333" points="1046.1837,-353.8128 1055.501,-358.8565 1051.3626,-349.1033 1046.1837,-353.8128"/>
</g>
<!-- rpm&#45;&gt;rpm&#45;libs -->
<g id="edge20" class="edge">
<title>rpm&#45;&gt;rpm&#45;libs</title>
<path fill="none" stroke="#444444" stroke-opacity="0.333333" d="M933.2336,-239.0662C906.0087,-227.0442 863.2915,-210.6812 827.4807,-198.3027"/>
<polygon fill="#444444" fill-opacity="0.333333" stroke="#444444" stroke-opacity="0.333333" points="828.1765,-194.842 817.582,-194.924 825.9153,-201.4667 828.1765,-194.842"/>
</g>
<!-- rpm&#45;&gt;lua&#45;libs -->
<g id="edge21" class="edge">
<title>rpm&#45;&gt;lua&#45;libs</title>
<path fill="none" stroke="#444444" stroke-opacity="0.333333" d="M956.341,-236.4033C950.3217,-211.0095 939.3266,-164.6239 932.2423,-134.7369"/>
<polygon fill="#444444" fill-opacity="0.333333" stroke="#444444" stroke-opacity="0.333333" points="935.6264,-133.8381 929.9142,-124.915 928.8151,-135.4527 935.6264,-133.8381"/>
</g>
<!-- rpm&#45;libs&#45;&gt;rpm -->
<g id="edge22" class="edge">
<title>rpm&#45;libs&#45;&gt;rpm</title>
<path fill="none" stroke="#444444" stroke-opacity="0.333333" d="M796.6462,-199.2534C831.87,-214.3896 887.1575,-234.9372 923.6582,-246.4554"/>
<polygon fill="#444444" fill-opacity="0.333333" stroke="#444444" stroke-opacity="0.333333" points="922.8359,-249.8641 933.4228,-249.4526 924.89,-243.1722 922.8359,-249.8641"/>
</g>
<!-- rpm&#45;libs&#45;&gt;lua&#45;libs -->
<g id="edge23" class="edge">
<title>rpm&#45;libs&#45;&gt;lua&#45;libs</title>
<path fill="none" stroke="#444444" stroke-opacity="0.333333" d="M802.5077,-163.1108C824.9632,-152.8054 853.3049,-139.7988 877.1289,-128.8653"/>
<polygon fill="#444444" fill-opacity="0.333333" stroke="#444444" stroke-opacity="0.333333" points="878.7245,-131.9841 886.3532,-124.6321 875.8047,-125.6221 878.7245,-131.9841"/>
</g>
<!-- rpm&#45;libs&#45;&gt;rpm&#45;plugin&#45;selinux -->
<g id="edge24" class="edge">
<title>rpm&#45;libs&#45;&gt;rpm&#45;plugin&#45;selinux</title>
<path fill="none" stroke="#444444" stroke-opacity="0.333333" d="M779.1476,-163.1487C797.5437,-136.4687 826.7541,-86.3719 842.274,-55.0928"/>
<polygon fill="#444444" fill-opacity="0.333333" stroke="#444444" stroke-opacity="0.333333" points="845.4492,-56.566 846.6238,-46.0364 839.1393,-53.5352 845.4492,-56.566"/>
</g>
<!-- rpm&#45;plugin&#45;selinux&#45;&gt;rpm&#45;libs -->
<g id="edge25" class="edge">
<title>rpm&#45;plugin&#45;selinux&#45;&gt;rpm&#45;libs</title>
<path fill="none" stroke="#444444" stroke-opacity="0.333333" d="M836.3424,-45.6023C817.9463,-72.2823 788.7359,-122.3791 773.216,-153.6582"/>
<polygon fill="#444444" fill-opacity="0.333333" stroke="#444444" stroke-opacity="0.333333" points="770.0408,-152.185 768.8662,-162.7146 776.3507,-155.2158 770.0408,-152.185"/>
</g>
<!-- rpm&#45;plugin&#45;selinux&#45;&gt;lua&#45;libs -->
<g id="edge26" class="edge">
<title>rpm&#45;plugin&#45;selinux&#45;&gt;lua&#45;libs</title>
<path fill="none" stroke="#444444" stroke-opacity="0.333333" d="M869.2884,-45.9305C878.9086,-56.3039 891.0934,-69.443 901.6645,-80.8418"/>
<polygon fill="#444444" fill-opacity="0.333333" stroke="#444444" stroke-opacity="0.333333" points="899.3076,-83.4476 908.6738,-88.3999 904.4402,-78.6877 899.3076,-83.4476"/>
</g>
<!-- systemtap&#45;client&#45;&gt;libgcc -->
<g id="edge27" class="edge">
<title>systemtap&#45;client&#45;&gt;libgcc</title>
<path fill="none" stroke="#444444" stroke-opacity="0.333333" d="M510.7778,-382.2011C510.6224,-382.2241 510.4672,-382.2471 510.3121,-382.2701"/>
<polygon fill="#444444" fill-opacity="0.333333" stroke="#444444" stroke-opacity="0.333333" points="512.8284,-378.3588 503.4497,-383.2873 513.8549,-385.2831 512.8284,-378.3588"/>
</g>
<!-- systemtap&#45;client&#45;&gt;rpm&#45;libs -->
<g id="edge28" class="edge">
<title>systemtap&#45;client&#45;&gt;rpm&#45;libs</title>
<path fill="none" stroke="#444444" stroke-opacity="0.333333" d="M623.2901,-349.5363C650.9205,-316.2822 709.581,-245.6823 741.4666,-207.3069"/>
<polygon fill="#444444" fill-opacity="0.333333" stroke="#444444" stroke-opacity="0.333333" points="744.5179,-209.1112 748.2167,-199.183 739.1339,-204.6377 744.5179,-209.1112"/>
</g>
<!-- systemtap&#45;client&#45;&gt;avahi&#45;libs -->
<g id="edge29" class="edge">
<title>systemtap&#45;client&#45;&gt;avahi&#45;libs</title>
<path fill="none" stroke="#444444" stroke-opacity="0.333333" d="M604.8379,-349.4498C598.3283,-313.3349 583.7995,-232.7295 576.0421,-189.6916"/>
<polygon fill="#444444" fill-opacity="0.333333" stroke="#444444" stroke-opacity="0.333333" points="579.4432,-188.8296 574.2247,-179.6091 572.5542,-190.0714 579.4432,-188.8296"/>
</g>
<!-- systemtap&#45;client&#45;&gt;systemtap&#45;runtime -->
<g id="edge30" class="edge">
<title>systemtap&#45;client&#45;&gt;systemtap&#45;runtime</title>
<path fill="none" stroke="#444444" stroke-opacity="0.333333" d="M613.1748,-385.8635C620.3513,-411.6534 633.5879,-459.2216 642.0508,-489.6343"/>
<polygon fill="#444444" fill-opacity="0.333333" stroke="#444444" stroke-opacity="0.333333" points="638.7746,-490.9167 644.8273,-499.6123 645.5183,-489.0401 638.7746,-490.9167"/>
</g>
<!-- systemtap&#45;client&#45;&gt;unzip -->
<g id="edge31" class="edge">
<title>systemtap&#45;client&#45;&gt;unzip</title>
<path fill="none" stroke="#444444" stroke-opacity="0.333333" d="M606.6037,-385.8571C603.399,-423.5871 595.981,-510.9205 592.1445,-556.089"/>
<polygon fill="#444444" fill-opacity="0.333333" stroke="#444444" stroke-opacity="0.333333" points="588.6538,-555.8317 591.2949,-566.0921 595.6287,-556.4242 588.6538,-555.8317"/>
</g>
<!-- systemtap&#45;client&#45;&gt;zip -->
<g id="edge32" class="edge">
<title>systemtap&#45;client&#45;&gt;zip</title>
<path fill="none" stroke="#444444" stroke-opacity="0.333333" d="M595.6707,-385.9235C579.1763,-409.9371 549.9815,-452.4406 531.0053,-480.0673"/>
<polygon fill="#444444" fill-opacity="0.333333" stroke="#444444" stroke-opacity="0.333333" points="528.0092,-478.2475 525.2323,-488.472 533.7792,-482.2108 528.0092,-478.2475"/>
</g>
<!-- systemtap&#45;runtime&#45;&gt;libgcc -->
<g id="edge33" class="edge">
<title>systemtap&#45;runtime&#45;&gt;libgcc</title>
<path fill="none" stroke="#444444" stroke-opacity="0.333333" d="M623.1227,-499.6895C589.771,-477.153 532.6683,-438.5674 495.722,-413.6019"/>
<polygon fill="#444444" fill-opacity="0.333333" stroke="#444444" stroke-opacity="0.333333" points="497.4927,-410.5743 487.2474,-407.8755 493.5735,-416.3743 497.4927,-410.5743"/>
</g>
<!-- systemtap&#45;runtime&#45;&gt;json&#45;c -->
<g id="edge34" class="edge">
<title>systemtap&#45;runtime&#45;&gt;json&#45;c</title>
<path fill="none" stroke="#444444" stroke-opacity="0.333333" d="M658.5125,-536.0533C670.2918,-561.0014 691.4944,-605.9075 705.1575,-634.8455"/>
<polygon fill="#444444" fill-opacity="0.333333" stroke="#444444" stroke-opacity="0.333333" points="702.043,-636.4468 709.4776,-643.9952 708.3729,-633.4581 702.043,-636.4468"/>
</g>
<!-- zip&#45;&gt;libgcc -->
<g id="edge35" class="edge">
<title>zip&#45;&gt;libgcc</title>
<path fill="none" stroke="#444444" stroke-opacity="0.333333" d="M504.6812,-488.6129C496.1221,-469.5246 482.5043,-439.1546 472.6125,-417.0944"/>
<polygon fill="#444444" fill-opacity="0.333333" stroke="#444444" stroke-opacity="0.333333" points="475.7796,-415.6029 468.4944,-407.9103 469.3923,-418.467 475.7796,-415.6029"/>
</g>
<!-- zip&#45;&gt;unzip -->
<g id="edge36" class="edge">
<title>zip&#45;&gt;unzip</title>
<path fill="none" stroke="#444444" stroke-opacity="0.333333" d="M530.6166,-524.6396C540.6502,-534.7593 553.3397,-547.5576 564.3889,-558.7015"/>
<polygon fill="#444444" fill-opacity="0.333333" stroke="#444444" stroke-opacity="0.333333" points="562.1973,-561.4621 571.7236,-566.099 567.1681,-556.5335 562.1973,-561.4621"/>
</g>
<!-- systemtap&#45;devel&#45;&gt;gcc -->
<g id="edge37" class="edge">
<title>systemtap&#45;devel&#45;&gt;gcc</title>
<path fill="none" stroke="#444444" stroke-opacity="0.333333" d="M429.9082,-223.4373C381.6001,-246.9877 297.7042,-287.8873 249.8694,-311.207"/>
<polygon fill="#444444" fill-opacity="0.333333" stroke="#444444" stroke-opacity="0.333333" points="248.2594,-308.098 240.8044,-315.6262 251.3269,-314.3902 248.2594,-308.098"/>
</g>
<!-- systemtap&#45;devel&#45;&gt;libgcc -->
<g id="edge38" class="edge">
<title>systemtap&#45;devel&#45;&gt;libgcc</title>
<path fill="none" stroke="#444444" stroke-opacity="0.333333" d="M466.3564,-223.36C465.1923,-255.4335 462.7517,-322.6799 461.3566,-361.1177"/>
<polygon fill="#444444" fill-opacity="0.333333" stroke="#444444" stroke-opacity="0.333333" points="457.8414,-361.4765 460.9763,-371.5969 464.8368,-361.7305 457.8414,-361.4765"/>
</g>
<!-- systemtap&#45;devel&#45;&gt;rpm&#45;libs -->
<g id="edge39" class="edge">
<title>systemtap&#45;devel&#45;&gt;rpm&#45;libs</title>
<path fill="none" stroke="#444444" stroke-opacity="0.333333" d="M558.2936,-197.8917C603.7356,-194.1789 657.589,-189.7789 698.6801,-186.4216"/>
<polygon fill="#444444" fill-opacity="0.333333" stroke="#444444" stroke-opacity="0.333333" points="699.1574,-189.8943 708.8392,-185.5915 698.5873,-182.9176 699.1574,-189.8943"/>
</g>
<!-- systemtap&#45;devel&#45;&gt;avahi&#45;libs -->
<g id="edge40" class="edge">
<title>systemtap&#45;devel&#45;&gt;avahi&#45;libs</title>
<path fill="none" stroke="#444444" stroke-opacity="0.333333" d="M509.5781,-187.3184C512.661,-186.0125 515.7895,-184.6872 518.9183,-183.3619"/>
<polygon fill="#444444" fill-opacity="0.333333" stroke="#444444" stroke-opacity="0.333333" points="520.4172,-186.5281 528.2599,-179.4048 517.6868,-180.0825 520.4172,-186.5281"/>
</g>
<!-- systemtap&#45;devel&#45;&gt;kernel&#45;devel -->
<g id="edge41" class="edge">
<title>systemtap&#45;devel&#45;&gt;kernel&#45;devel</title>
<path fill="none" stroke="#444444" stroke-opacity="0.333333" d="M462.1238,-187.045C453.3622,-154.2219 434.9263,-85.1566 424.5352,-46.2288"/>
<polygon fill="#444444" fill-opacity="0.333333" stroke="#444444" stroke-opacity="0.333333" points="427.7931,-44.8625 421.8324,-36.1035 421.0299,-46.6679 427.7931,-44.8625"/>
</g>
<!-- systemtap&#45;&gt;systemtap&#45;client -->
<g id="edge42" class="edge">
<title>systemtap&#45;&gt;systemtap&#45;client</title>
<path fill="none" stroke="#444444" stroke-opacity="0.333333" d="M622.8992,-252.1533C620.0375,-274.5708 615.119,-313.0999 611.7525,-339.4715"/>
<polygon fill="#444444" fill-opacity="0.333333" stroke="#444444" stroke-opacity="0.333333" points="608.2534,-339.2427 610.4588,-349.6055 615.197,-340.1292 608.2534,-339.2427"/>
</g>
<!-- systemtap&#45;&gt;systemtap&#45;devel -->
<g id="edge43" class="edge">
<title>systemtap&#45;&gt;systemtap&#45;devel</title>
<path fill="none" stroke="#444444" stroke-opacity="0.333333" d="M565.8458,-223.3315C565.6869,-223.3026 565.5279,-223.2737 565.3688,-223.2447"/>
<polygon fill="#444444" fill-opacity="0.333333" stroke="#444444" stroke-opacity="0.333333" points="568.6078,-220.2767 558.1428,-221.9301 567.3547,-227.1636 568.6078,-220.2767"/>
</g>
<!-- cpp -->
<g id="node1" class="node">
<title>cpp</title>
<text text-anchor="middle" x="72.468" y="-504.55" font-family="monospace" font-size="14.00" fill="#000000">cpp</text>
</g>
<!-- libmpc -->
<g id="node2" class="node">
<title>libmpc</title>
<text text-anchor="middle" x="42.896" y="-435.96" font-family="monospace" font-size="14.00" fill="#000000">libmpc</text>
</g>
<!-- curl&#45;minimal -->
<g id="node3" class="node">
<title>curl&#45;minimal</title>
<text text-anchor="middle" x="1174.2" y="-263.56" font-family="monospace" font-size="14.00" fill="#000000">curl&#45;minimal</text>
</g>
<!-- libcurl&#45;minimal -->
<g id="node4" class="node">
<title>libcurl&#45;minimal</title>
<text text-anchor="middle" x="1240.6" y="-388.37" font-family="monospace" font-size="14.00" fill="#000000">libcurl&#45;minimal</text>
</g>
<!-- libnghttp2 -->
<g id="node5" class="node">
<title>libnghttp2</title>
<text text-anchor="middle" x="1238.3" y="-508.65" font-family="monospace" font-size="14.00" fill="#000000">libnghttp2</text>
</g>
<!-- gcc -->
<g id="node6" class="node">
<title>gcc</title>
<text text-anchor="middle" x="213.72" y="-325.13" font-family="monospace" font-size="14.00" fill="#000000">gcc</text>
</g>
<!-- binutils -->
<g id="node7" class="node">
<title>binutils</title>
<text text-anchor="middle" x="73.643" y="-194.08" font-family="monospace" font-size="14.00" fill="#000000">binutils</text>
</g>
<!-- isl -->
<g id="node8" class="node">
<title>isl</title>
<text text-anchor="middle" x="53.743" y="-284.26" font-family="monospace" font-size="14.00" fill="#000000">isl</text>
</g>
<!-- libasan -->
<g id="node9" class="node">
<title>libasan</title>
<text text-anchor="middle" x="316.16" y="-368.29" font-family="monospace" font-size="14.00" fill="#000000">libasan</text>
</g>
<!-- libatomic -->
<g id="node10" class="node">
<title>libatomic</title>
<text text-anchor="middle" x="146.65" y="-134.19" font-family="monospace" font-size="14.00" fill="#000000">libatomic</text>
</g>
<!-- libgcc -->
<g id="node11" class="node">
<title>libgcc</title>
<text text-anchor="middle" x="460.32" y="-385.98" font-family="monospace" font-size="14.00" fill="#000000">libgcc</text>
</g>
<!-- libgomp -->
<g id="node12" class="node">
<title>libgomp</title>
<text text-anchor="middle" x="97.645" y="-360.46" font-family="monospace" font-size="14.00" fill="#000000">libgomp</text>
</g>
<!-- libubsan -->
<g id="node13" class="node">
<title>libubsan</title>
<text text-anchor="middle" x="296.93" y="-464.39" font-family="monospace" font-size="14.00" fill="#000000">libubsan</text>
</g>
<!-- libarchive -->
<g id="node14" class="node">
<title>libarchive</title>
<text text-anchor="middle" x="777.41" y="-337.77" font-family="monospace" font-size="14.00" fill="#000000">libarchive</text>
</g>
<!-- rpm -->
<g id="node15" class="node">
<title>rpm</title>
<text text-anchor="middle" x="960.64" y="-250.84" font-family="monospace" font-size="14.00" fill="#000000">rpm</text>
</g>
<!-- libdb&#45;utils -->
<g id="node16" class="node">
<title>libdb&#45;utils</title>
<text text-anchor="middle" x="1072" y="-373.3" font-family="monospace" font-size="14.00" fill="#000000">libdb&#45;utils</text>
</g>
<!-- rpm&#45;libs -->
<g id="node17" class="node">
<title>rpm&#45;libs</title>
<text text-anchor="middle" x="763.2" y="-177.45" font-family="monospace" font-size="14.00" fill="#000000">rpm&#45;libs</text>
</g>
<!-- lua&#45;libs -->
<g id="node18" class="node">
<title>lua&#45;libs</title>
<text text-anchor="middle" x="925.58" y="-102.93" font-family="monospace" font-size="14.00" fill="#000000">lua&#45;libs</text>
</g>
<!-- rpm&#45;plugin&#45;selinux -->
<g id="node19" class="node">
<title>rpm&#45;plugin&#45;selinux</title>
<text text-anchor="middle" x="852.29" y="-23.901" font-family="monospace" font-size="14.00" fill="#000000">rpm&#45;plugin&#45;selinux</text>
</g>
<!-- systemtap&#45;client -->
<g id="node20" class="node">
<title>systemtap&#45;client</title>
<text text-anchor="middle" x="608.14" y="-364.07" font-family="monospace" font-size="14.00" fill="#000000">systemtap&#45;client</text>
</g>
<!-- avahi&#45;libs -->
<g id="node21" class="node">
<title>avahi&#45;libs</title>
<text text-anchor="middle" x="570.93" y="-157.63" font-family="monospace" font-size="14.00" fill="#000000">avahi&#45;libs</text>
</g>
<!-- systemtap&#45;runtime -->
<g id="node22" class="node">
<title>systemtap&#45;runtime</title>
<text text-anchor="middle" x="649.88" y="-514.07" font-family="monospace" font-size="14.00" fill="#000000">systemtap&#45;runtime</text>
</g>
<!-- unzip -->
<g id="node23" class="node">
<title>unzip</title>
<text text-anchor="middle" x="589.75" y="-580.58" font-family="monospace" font-size="14.00" fill="#000000">unzip</text>
</g>
<!-- zip -->
<g id="node24" class="node">
<title>zip</title>
<text text-anchor="middle" x="512.76" y="-502.93" font-family="monospace" font-size="14.00" fill="#000000">zip</text>
</g>
<!-- json&#45;c -->
<g id="node25" class="node">
<title>json&#45;c</title>
<text text-anchor="middle" x="718.04" y="-658.43" font-family="monospace" font-size="14.00" fill="#000000">json&#45;c</text>
</g>
<!-- systemtap&#45;devel -->
<g id="node26" class="node">
<title>systemtap&#45;devel</title>
<text text-anchor="middle" x="467.01" y="-201.65" font-family="monospace" font-size="14.00" fill="#000000">systemtap&#45;devel</text>
</g>
<!-- kernel&#45;devel -->
<g id="node27" class="node">
<title>kernel&#45;devel</title>
<text text-anchor="middle" x="417" y="-14.3" font-family="monospace" font-size="14.00" fill="#000000">kernel&#45;devel</text>
</g>
<!-- systemtap -->
<g id="node28" class="node">
<title>systemtap</title>
<text text-anchor="middle" x="625.2" y="-230.43" font-family="monospace" font-size="14.00" fill="#000000">systemtap</text>
</g>
</g>
</svg>
