<?xml version="1.0" encoding="UTF-8" standalone="no"?>
<!DOCTYPE svg PUBLIC "-//W3C//DTD SVG 1.1//EN"
 "http://www.w3.org/Graphics/SVG/1.1/DTD/svg11.dtd">
<!-- Generated by graphviz version 2.40.1 (20161225.0304)
 -->
<!-- Title: G Pages: 1 -->
<svg width="1638pt" height="470pt"
 viewBox="0.00 0.00 1637.59 470.13" xmlns="http://www.w3.org/2000/svg" xmlns:xlink="http://www.w3.org/1999/xlink">
<g id="graph0" class="graph" transform="scale(1 1) rotate(0) translate(74.1847 335.0977)">
<title>G</title>
<polygon fill="#dae2ff" stroke="transparent" points="-74.1847,135.0297 -74.1847,-335.0977 1563.4014,-335.0977 1563.4014,135.0297 -74.1847,135.0297"/>
<polygon fill="#fbb4ae" stroke="#fbb4ae" points="668.981,-259.1483 682.8289,-261.8065 685.6006,-262.4066 757.9877,-216.1225 749.9435,-148.0476 749.1458,-143.1619 748.3464,-136.4752 747.4531,-108.9724 736.8649,-19.3691 685.5109,-6.1797 669.7798,-1.7723 656.1954,2.6583 644.776,6.9038 624.6907,15.7538 622.3374,16.8431 604.0203,27.0122 601.9961,28.1819 597.4952,27.3728 594.8143,25.9284 591.3976,24.237 581.7272,19.6583 581.2014,19.4208 499.9263,-15.5403 436.3367,-5.0965 420.6205,-2.1767 410.0683,.008 415.597,-141.2602 410.2965,-138.1779 410.2965,-138.1779 415.597,-141.2602 410.0683,.008 407.4596,.6031 396.6805,3.5201 389.337,5.6625 349.8661,18.8471 329.4973,12.7667 290.8824,18.9658 265.0308,18.9722 141.2953,88.5355 137.5786,90.7268 131.1919,89.9699 120.7999,88.9525 102.6444,87.9249 102.7422,80.6046 113.119,-50.5992 116.303,-50.5992 116.9439,-50.7934 116.9439,-50.7934 116.303,-50.5992 113.119,-50.5992 102.7422,80.6046 102.2713,25.5047 95.8711,-47.2266 99.7313,-50.7922 101.5254,-50.7922 102.0928,-50.9676 106.6564,-50.9676 109.1752,-106.4122 108.9512,-125.3656 103.5626,-131.41 152.8925,-131.41 152.8925,-131.41 103.5626,-131.41 108.9512,-125.3656 109.1752,-106.4122 106.6564,-50.9676 102.0928,-50.9676 101.5254,-50.7922 99.7313,-50.7922 95.8711,-47.2266 90.8117,-45.7489 86.1868,-47.067 82.0144,-50.8528 85.1086,-53.6111 85.1086,-53.6111 82.0144,-50.8528 86.1868,-47.067 90.8117,-45.7489 95.8711,-47.2266 102.2713,25.5047 102.7422,80.6046 102.6444,87.9249 96.4877,88.0851 74.9704,89.0898 63.0989,90.6224 40.8614,94.8774 36.4461,91.8155 -11.6726,59.8576 -46.1942,-18.5401 -63.579,-54.7317 -70.1847,-67.5536 -64.5279,-84.3108 -58.8537,-102.7775 1.0183,-163.8772 48.4347,-168.7024 57.2258,-169.8158 57.7177,-169.9025 67.3094,-171.8354 138.8126,-252.199 178.8639,-261.2098 195.0617,-265.6208 213.0309,-272.2171 217.035,-273.7806 231.0998,-279.9387 235.3878,-282.017 237.8191,-280.855 238.558,-210.1826 236.3369,-131.2132 231.6816,-131.2132 231.6816,-131.2132 236.3369,-131.2132 238.558,-210.1826 237.8191,-280.855 250.7492,-275.2736 309.2581,-251.3924 385.818,-265.6833 398.0091,-268.2567 401.0748,-269.0526 406.5726,-265.6152 427.7333,-254.3765 504.7337,-218.502 582.8789,-250.3563 587.7731,-252.5021 593.223,-255.2318 599.2601,-258.6429 607.5817,-257.5523 614.2197,-256.8475 622.6816,-256.3694 630.9306,-256.1085 638.7626,-256.0554 642.7762,-256.1278 642.142,-195.2525 638.3762,-138.7981 637.5154,-138.5345 637.4699,-138.4628 633.959,-135.4612 628.5307,-133.8583 628.5307,-133.8583 633.959,-135.4612 637.4699,-138.4628 637.5154,-138.5345 638.3762,-138.7981 642.142,-195.2525 642.7762,-256.1278 647.1201,-256.4216 662.6149,-258.2424 668.981,-259.1483 668.981,-259.1483"/>
<polygon fill="#fed9a6" stroke="#fed9a6" points="1559.4014,-88.074 1547.375,-65.5122 1509.6417,9.5134 1495.5334,22.7285 1485.4224,28.6943 1419.5743,16.6169 1416.8889,16.1934 1402.6006,14.3069 1392.3259,13.4819 1390.6583,13.3912 1384.828,13.2243 1370.9534,13.5432 1359.0217,14.4334 1358.5094,14.498 1343.6724,16.7546 1312.4366,22.3067 1305.5801,19.1114 1254.2329,17.3038 1242.4061,17.1947 1240.8368,17.2211 1230.7485,17.9158 1219.2448,19.0078 1210.6761,20.266 1210.8075,-49.2867 1213.9983,-91.8065 1207.9102,-89.9439 1203.2531,-91.3092 1199.0405,-95.1837 1202.0206,-97.7117 1202.0206,-97.7117 1199.0405,-95.1837 1203.2531,-91.3092 1207.9102,-89.9439 1213.9983,-91.8065 1210.8075,-49.2867 1210.6761,20.266 1200.8879,22.2122 1185.5808,26.0532 1179.3644,27.9332 1177.6991,28.4797 1173.0692,30.2432 1126.4536,96.1517 1062.0092,127.8165 1056.6113,130.6018 1053.4124,130.6504 1048.2242,131.0297 1034.8988,125.6024 1034.3213,125.3806 1026.3284,120.0025 1023.2596,118.2052 1013.1663,112.5766 1005.3807,108.4581 981.2889,96.4111 874.8135,19.9614 869.1024,20.316 852.0211,22.0702 847.7505,22.6811 842.7269,20.1195 841.8747,19.7063 839.6293,18.6732 838.929,18.368 823.4322,11.9898 823.2532,11.9205 736.8649,-19.3691 747.4531,-108.9724 748.3464,-136.4752 749.1458,-143.1619 749.9435,-148.0476 757.9877,-216.1225 822.4894,-227.1283 830.234,-228.9016 841.2716,-231.7517 854.7609,-236.0175 855.3224,-236.2111 865.7449,-240.4113 870.1711,-242.323 882.7322,-248.485 897.267,-256.4623 902.2936,-259.5089 905.8209,-261.8541 926.4917,-304.1197 1024.3053,-324.2631 1035.9763,-326.9336 1039.8768,-327.9142 1039.936,-327.9317 1044.0415,-329.2456 1049.4359,-331.0977 1059.0934,-326.0425 1065.6196,-322.9769 1067.4286,-192.7829 1062.9342,-192.7829 1061.082,-190.4802 1057.1263,-188.198 1057.1263,-188.198 1061.082,-190.4802 1062.9342,-192.7829 1067.4286,-192.7829 1065.6196,-322.9769 1071.2964,-320.4619 1083.5482,-315.3617 1082.3514,-267.428 1082.3514,-267.428 1083.5482,-315.3617 1216.3779,-267.2754 1226.217,-252.667 1223.1156,-248.2111 1217.5702,-240.55 1215.8741,-238.3005 1215.5066,-237.8328 1188.0511,-205.6201 1185.7012,-203.1398 1175.6952,-193.6558 1174.3561,-192.53 1121.4808,-192.53 1083.511,-186.1859 1078.1389,-190.2628 1077.2904,-140.8245 1078.9344,-104.6793 1065.0701,-105.2216 1064.7092,-105.211 1053.548,-105.2658 1050.0643,-105.0435 1049.9702,-105.0408 1045.8655,-105.0617 1043.7157,-57.155 1038.9746,-21.6859 1043.3201,-17.6009 1039.8877,-14.6488 1034.7444,-13.1436 1034.7444,-13.1436 1039.8877,-14.6488 1043.3201,-17.6009 1038.9746,-21.6859 1043.7157,-57.155 1045.8655,-105.0617 1049.9702,-105.0408 1050.0643,-105.0435 1053.548,-105.2658 1064.7092,-105.211 1065.0701,-105.2216 1078.9344,-104.6793 1077.2904,-140.8245 1078.1389,-190.2628 1083.511,-186.1859 1121.4808,-192.53 1174.3561,-192.53 1175.6952,-193.6558 1185.7012,-203.1398 1188.0511,-205.6201 1215.5066,-237.8328 1215.8741,-238.3005 1217.5702,-240.55 1223.1156,-248.2111 1226.217,-252.667 1231.0865,-250.8052 1243.4987,-246.5694 1274.1859,-237.9861 1292.2224,-227.7196 1343.0869,-219.6308 1357.2482,-217.7316 1376.2711,-216.6106 1376.938,-216.5881 1381.1874,-216.5511 1388.3889,-216.8492 1399.2198,-217.5694 1399.5828,-199.9666 1399.0398,-140.3963 1395.2261,-100.2303 1391.8066,-100.2303 1390.8458,-101.3597 1385.7072,-104.4178 1379.6165,-104.4178 1374.345,-101.2308 1373.5756,-100.313 1368.5358,-100.313 1368.3997,-100.2724 1364.7585,-100.2724 1364.7585,-100.2724 1368.3997,-100.2724 1368.5358,-100.313 1373.5756,-100.313 1374.345,-101.2308 1379.6165,-104.4178 1385.7072,-104.4178 1390.8458,-101.3597 1391.8066,-100.2303 1390.6794,-98.8788 1385.4403,-95.7375 1385.4403,-95.7375 1390.6794,-98.8788 1391.8066,-100.2303 1395.2261,-100.2303 1399.0398,-140.3963 1399.5828,-199.9666 1399.2198,-217.5694 1419.2593,-220.4134 1420.8138,-220.6727 1421.1533,-220.7378 1458.621,-206.0145 1537.458,-134.8908 1540.5616,-130.6494 1544.9431,-119.7892 1547.0894,-114.8183 1559.4014,-88.074 1559.4014,-88.074"/>
<polyline fill="none" stroke="#000000" points="195.0617,-265.6208 178.8639,-261.2098 138.8126,-252.199 67.3094,-171.8354 57.7177,-169.9025 57.2258,-169.8158 48.4347,-168.7024 1.0183,-163.8772 -58.8537,-102.7775 -64.5279,-84.3108 -70.1847,-67.5536 -63.579,-54.7317 -46.1942,-18.5401 -11.6726,59.8576 36.4461,91.8155 40.8614,94.8774 63.0989,90.6224 74.9704,89.0898 96.4877,88.0851 102.6444,87.9249 120.7999,88.9525 131.1919,89.9699 137.5786,90.7268 141.2953,88.5355 265.0308,18.9722 290.8824,18.9658 329.4973,12.7667 349.8661,18.8471 389.337,5.6625 396.6805,3.5201 407.4596,.6031 410.0683,.008 420.6205,-2.1767 436.3367,-5.0965 499.9263,-15.5403 581.2014,19.4208 581.7272,19.6583 591.3976,24.237 594.8143,25.9284 597.4952,27.3728 601.9961,28.1819 604.0203,27.0122 622.3374,16.8431 624.6907,15.7538 644.776,6.9038 656.1954,2.6583 669.7798,-1.7723 685.5109,-6.1797 736.8649,-19.3691 747.4531,-108.9724 748.3464,-136.4752 749.1458,-143.1619 749.9435,-148.0476 757.9877,-216.1225 685.6006,-262.4066 682.8289,-261.8065 668.981,-259.1483 662.6149,-258.2424 647.1201,-256.4216 642.7762,-256.1278 638.7626,-256.0554 630.9306,-256.1085 622.6816,-256.3694 614.2197,-256.8475 607.5817,-257.5523 599.2601,-258.6429 593.223,-255.2318 587.7731,-252.5021 582.8789,-250.3563 504.7337,-218.502 427.7333,-254.3765 406.5726,-265.6152 401.0748,-269.0526 398.0091,-268.2567 385.818,-265.6833 309.2581,-251.3924 250.7492,-275.2736 237.8191,-280.855 235.3878,-282.017 231.0998,-279.9387 217.035,-273.7806 213.0309,-272.2171 195.0617,-265.6208 "/>
<polyline fill="none" stroke="#000000" points="865.7449,-240.4113 870.1711,-242.323 882.7322,-248.485 897.267,-256.4623 902.2936,-259.5089 905.8209,-261.8541 926.4917,-304.1197 1024.3053,-324.2631 1035.9763,-326.9336 1039.8768,-327.9142 1039.936,-327.9317 1044.0415,-329.2456 1049.4359,-331.0977 1059.0934,-326.0425 1065.6196,-322.9769 1071.2964,-320.4619 1083.5482,-315.3617 1216.3779,-267.2754 1226.217,-252.667 1231.0865,-250.8052 1243.4987,-246.5694 1274.1859,-237.9861 1292.2224,-227.7196 1343.0869,-219.6308 1357.2482,-217.7316 1376.2711,-216.6106 1376.938,-216.5881 1381.1874,-216.5511 1388.3889,-216.8492 1399.2198,-217.5694 1419.2593,-220.4134 1420.8138,-220.6727 1421.1533,-220.7378 1458.621,-206.0145 1537.458,-134.8908 1540.5616,-130.6494 1544.9431,-119.7892 1547.0894,-114.8183 1559.4014,-88.074 1547.375,-65.5122 1509.6417,9.5134 1495.5334,22.7285 1485.4224,28.6943 1419.5743,16.6169 1416.8889,16.1934 1402.6006,14.3069 1392.3259,13.4819 1390.6583,13.3912 1384.828,13.2243 1370.9534,13.5432 1359.0217,14.4334 1358.5094,14.498 1343.6724,16.7546 1312.4366,22.3067 1305.5801,19.1114 1254.2329,17.3038 1242.4061,17.1947 1240.8368,17.2211 1230.7485,17.9158 1219.2448,19.0078 1210.6761,20.266 1200.8879,22.2122 1185.5808,26.0532 1179.3644,27.9332 1177.6991,28.4797 1173.0692,30.2432 1126.4536,96.1517 1062.0092,127.8165 1056.6113,130.6018 1053.4124,130.6504 1048.2242,131.0297 1034.8988,125.6024 1034.3213,125.3806 1026.3284,120.0025 1023.2596,118.2052 1013.1663,112.5766 1005.3807,108.4581 981.2889,96.4111 874.8135,19.9614 869.1024,20.316 852.0211,22.0702 847.7505,22.6811 842.7269,20.1195 841.8747,19.7063 839.6293,18.6732 838.929,18.368 823.4322,11.9898 823.2532,11.9205 736.8649,-19.3691 747.4531,-108.9724 748.3464,-136.4752 749.1458,-143.1619 749.9435,-148.0476 757.9877,-216.1225 822.4894,-227.1283 830.234,-228.9016 841.2716,-231.7517 854.7609,-236.0175 855.3224,-236.2111 865.7449,-240.4113 "/>
<!-- curl&#45;minimal&#45;&gt;libcurl&#45;minimal -->
<g id="edge1" class="edge">
<title>curl&#45;minimal&#45;&gt;libcurl&#45;minimal</title>
<path fill="none" stroke="#444444" stroke-opacity="0.333333" d="M185.1227,-113.3137C167.8671,-101.8492 145.3645,-86.8987 126.688,-74.4901"/>
<polygon fill="#444444" fill-opacity="0.333333" stroke="#444444" stroke-opacity="0.333333" points="128.4046,-71.4286 118.1384,-68.8099 124.5308,-77.2591 128.4046,-71.4286"/>
</g>
<!-- json&#45;c&#45;&gt;curl&#45;minimal -->
<g id="edge2" class="edge">
<title>json&#45;c&#45;&gt;curl&#45;minimal</title>
<path fill="none" stroke="#444444" stroke-opacity="0.333333" d="M363.9898,-140.0932C344.5514,-138.9801 320.8943,-137.6253 298.1033,-136.3202"/>
<polygon fill="#444444" fill-opacity="0.333333" stroke="#444444" stroke-opacity="0.333333" points="298.2425,-132.8225 288.0587,-135.745 297.8423,-139.8111 298.2425,-132.8225"/>
</g>
<!-- systemtap&#45;client&#45;&gt;avahi&#45;libs -->
<g id="edge3" class="edge">
<title>systemtap&#45;client&#45;&gt;avahi&#45;libs</title>
<path fill="none" stroke="#444444" stroke-opacity="0.333333" d="M915.1611,-140.3414C940.0086,-149.6881 970.4973,-161.1569 996.5592,-170.9604"/>
<polygon fill="#444444" fill-opacity="0.333333" stroke="#444444" stroke-opacity="0.333333" points="995.35,-174.245 1005.942,-174.4899 997.8146,-167.6932 995.35,-174.245"/>
</g>
<!-- systemtap&#45;client&#45;&gt;systemtap&#45;runtime -->
<g id="edge4" class="edge">
<title>systemtap&#45;client&#45;&gt;systemtap&#45;runtime</title>
<path fill="none" stroke="#444444" stroke-opacity="0.333333" d="M769.9028,-128.939C760.2225,-129.6066 750.3397,-130.2881 740.5212,-130.9652"/>
<polygon fill="#444444" fill-opacity="0.333333" stroke="#444444" stroke-opacity="0.333333" points="740.0593,-127.4887 730.3239,-131.6685 740.541,-134.4721 740.0593,-127.4887"/>
</g>
<!-- systemtap&#45;runtime&#45;&gt;json&#45;c -->
<g id="edge5" class="edge">
<title>systemtap&#45;runtime&#45;&gt;json&#45;c</title>
<path fill="none" stroke="#444444" stroke-opacity="0.333333" d="M526.139,-140.4931C503.412,-140.8901 480.2077,-141.2954 460.4024,-141.6414"/>
<polygon fill="#444444" fill-opacity="0.333333" stroke="#444444" stroke-opacity="0.333333" points="460.3132,-138.1423 450.3759,-141.8165 460.4355,-145.1412 460.3132,-138.1423"/>
</g>
<!-- systemtap&#45;devel&#45;&gt;avahi&#45;libs -->
<g id="edge6" class="edge">
<title>systemtap&#45;devel&#45;&gt;avahi&#45;libs</title>
<path fill="none" stroke="#444444" stroke-opacity="0.333333" d="M1179.539,-112.9663C1154.5308,-128.8033 1118.0914,-151.8793 1090.8888,-169.106"/>
<polygon fill="#444444" fill-opacity="0.333333" stroke="#444444" stroke-opacity="0.333333" points="1088.9834,-166.1698 1082.4075,-174.4769 1092.7285,-172.0837 1088.9834,-166.1698"/>
</g>
<!-- systemtap&#45;devel&#45;&gt;kernel&#45;devel -->
<g id="edge7" class="edge">
<title>systemtap&#45;devel&#45;&gt;kernel&#45;devel</title>
<path fill="none" stroke="#444444" stroke-opacity="0.333333" d="M1299.2309,-97.5949C1299.3858,-97.5997 1299.5406,-97.6044 1299.6955,-97.6091"/>
<polygon fill="#444444" fill-opacity="0.333333" stroke="#444444" stroke-opacity="0.333333" points="1296.5415,-101.0143 1306.6437,-97.8212 1296.7552,-94.0176 1296.5415,-101.0143"/>
</g>
<!-- systemtap&#45;&gt;systemtap&#45;client -->
<g id="edge8" class="edge">
<title>systemtap&#45;&gt;systemtap&#45;client</title>
<path fill="none" stroke="#444444" stroke-opacity="0.333333" d="M1005.1655,-36.1572C977.3094,-53.5177 935.1658,-79.7826 904.7576,-98.7336"/>
<polygon fill="#444444" fill-opacity="0.333333" stroke="#444444" stroke-opacity="0.333333" points="902.7563,-95.8567 896.1207,-104.1163 906.4587,-101.7975 902.7563,-95.8567"/>
</g>
<!-- systemtap&#45;&gt;systemtap&#45;devel -->
<g id="edge9" class="edge">
<title>systemtap&#45;&gt;systemtap&#45;devel</title>
<path fill="none" stroke="#444444" stroke-opacity="0.333333" d="M1075.0718,-36.0099C1099.8383,-46.9499 1131.6463,-61.0003 1157.96,-72.6237"/>
<polygon fill="#444444" fill-opacity="0.333333" stroke="#444444" stroke-opacity="0.333333" points="1156.8211,-75.9469 1167.3827,-76.786 1159.6496,-69.5437 1156.8211,-75.9469"/>
</g>
<!-- curl&#45;minimal -->
<g id="node1" class="node">
<title>curl&#45;minimal</title>
<text text-anchor="middle" x="212.36" y="-127.71" font-family="monospace" font-size="14.00" fill="#000000">curl&#45;minimal</text>
</g>
<!-- libcurl&#45;minimal -->
<g id="node2" class="node">
<title>libcurl&#45;minimal</title>
<text text-anchor="middle" x="90.992" y="-47.074" font-family="monospace" font-size="14.00" fill="#000000">libcurl&#45;minimal</text>
</g>
<!-- json&#45;c -->
<g id="node3" class="node">
<title>json&#45;c</title>
<text text-anchor="middle" x="407.24" y="-138.87" font-family="monospace" font-size="14.00" fill="#000000">json&#45;c</text>
</g>
<!-- systemtap&#45;client -->
<g id="node4" class="node">
<title>systemtap&#45;client</title>
<text text-anchor="middle" x="867.04" y="-118.54" font-family="monospace" font-size="14.00" fill="#000000">systemtap&#45;client</text>
</g>
<!-- avahi&#45;libs -->
<g id="node5" class="node">
<title>avahi&#45;libs</title>
<text text-anchor="middle" x="1053.9" y="-188.83" font-family="monospace" font-size="14.00" fill="#000000">avahi&#45;libs</text>
</g>
<!-- systemtap&#45;runtime -->
<g id="node6" class="node">
<title>systemtap&#45;runtime</title>
<text text-anchor="middle" x="628.22" y="-135.01" font-family="monospace" font-size="14.00" fill="#000000">systemtap&#45;runtime</text>
</g>
<!-- systemtap&#45;devel -->
<g id="node7" class="node">
<title>systemtap&#45;devel</title>
<text text-anchor="middle" x="1208.2" y="-91.116" font-family="monospace" font-size="14.00" fill="#000000">systemtap&#45;devel</text>
</g>
<!-- kernel&#45;devel -->
<g id="node8" class="node">
<title>kernel&#45;devel</title>
<text text-anchor="middle" x="1382.6" y="-96.44" font-family="monospace" font-size="14.00" fill="#000000">kernel&#45;devel</text>
</g>
<!-- systemtap -->
<g id="node9" class="node">
<title>systemtap</title>
<text text-anchor="middle" x="1034.3" y="-14.3" font-family="monospace" font-size="14.00" fill="#000000">systemtap</text>
</g>
</g>
</svg>
