<?xml version="1.0" encoding="UTF-8" standalone="no"?>
<!DOCTYPE svg PUBLIC "-//W3C//DTD SVG 1.1//EN"
 "http://www.w3.org/Graphics/SVG/1.1/DTD/svg11.dtd">
<!-- Generated by graphviz version 2.40.1 (20161225.0304)
 -->
<!-- Title: G Pages: 1 -->
<svg width="1087pt" height="735pt"
 viewBox="0.00 0.00 1087.18 735.36" xmlns="http://www.w3.org/2000/svg" xmlns:xlink="http://www.w3.org/1999/xlink">
<g id="graph0" class="graph" transform="scale(1 1) rotate(0) translate(90.7883 639.8254)">
<title>G</title>
<polygon fill="#dae2ff" stroke="transparent" points="-90.7883,95.538 -90.7883,-639.8254 996.3915,-639.8254 996.3915,95.538 -90.7883,95.538"/>
<polygon fill="#fbb4ae" stroke="#fbb4ae" points="201.2954,-428.3499 201.5508,-473.3325 199.2168,-493.1949 196.9042,-496.5172 196.9042,-496.5172 199.2168,-493.1949 201.5508,-473.3325 201.2954,-428.3499 195.1268,-426.925 183.6877,-423.1566 180.2424,-421.9104 172.6778,-418.9301 170.1934,-417.7932 159.7247,-412.3146 152.1453,-407.8602 150.5336,-406.862 144.6888,-402.6602 155.8642,-370.7556 162.0921,-345.1162 163.5834,-337.8343 169.2022,-314.677 139.0989,-316.3463 111.7852,-316.2421 111.7852,-316.2421 139.0989,-316.3463 169.2022,-314.677 181.3393,-280.0269 226.1225,-285.7298 227.0311,-285.8199 237.1715,-286.5405 244.1343,-286.642 244.1642,-286.6432 245.3149,-286.6262 250.2745,-286.6871 250.4791,-286.6839 259.4744,-286.784 267.4487,-287.7376 273.9698,-288.6951 273.3281,-211.2886 269.8621,-213.3203 266.6072,-213.9645 266.6072,-213.9645 269.8621,-213.3203 273.3281,-211.2886 274.9536,-209.6954 272.8373,-207.3941 269.7487,-205.4475 269.7487,-205.4475 272.8373,-207.3941 274.9536,-209.6954 273.3281,-211.2886 273.9698,-288.6951 280.132,-289.7669 289.4414,-291.8893 329.7324,-303.233 333.6339,-296.1015 340.7941,-281.2733 351.2799,-257.9211 363.006,-229.4202 370.4331,-212.8476 378.6571,-195.8057 312.2723,-202.5255 312.2723,-202.5255 378.6571,-195.8057 398.0562,-160.3468 359.6085,-94.862 359.9839,-93.3697 367.0604,-60.2465 369.2788,-47.5036 375.4549,-15.7 370.151,-8.1083 360.7597,7.1415 282.3694,75.4841 254.4194,75.1247 251.8694,32.1924 251.8694,32.1924 254.4194,75.1247 240.7144,75.552 240.5247,75.5621 234.1839,76.0389 224.025,77.4754 225.4846,-13.2821 228.5733,-14.4845 232.5625,-17.7052 228.8055,-20.9471 225.1813,-22.4763 222.0871,-22.4763 222.0871,-22.4763 225.1813,-22.4763 228.8055,-20.9471 232.5625,-17.7052 228.5733,-14.4845 225.4846,-13.2821 222.4414,-13.2821 222.4414,-13.2821 225.4846,-13.2821 224.025,77.4754 219.1404,78.2736 213.5402,79.435 209.7056,79.7138 203.6179,80.542 200.0062,81.1097 188.495,83.1628 146.4401,91.538 112.7975,68.9179 95.8075,-10.4787 92.6939,-22.3419 92.416,-25.6258 147.2301,-23.9366 147.2301,-23.9366 92.416,-25.6258 88.7717,-53.775 80.4238,-58.2907 64.4783,-66.165 64.653,-82.4507 66.4897,-113.5188 66.4897,-113.5188 64.653,-82.4507 64.4783,-66.165 53.1839,-70.6547 43.0842,-73.9469 34.1425,-76.4338 34.6034,-149.8253 38.0432,-170.885 36.1212,-171.3056 35.9855,-171.6223 39.1734,-215.4595 40.7775,-171.289 44.7762,-171.289 44.8787,-171.4194 46.8272,-173.0288 46.8272,-173.0288 44.8787,-171.4194 44.7762,-171.289 40.7775,-171.289 39.1734,-215.4595 35.9855,-171.6223 36.1212,-171.3056 38.0432,-170.885 34.6034,-149.8253 34.1425,-76.4338 23.6146,-78.8562 29.0258,-163.9361 29.0258,-163.9361 23.6146,-78.8562 -13.4274,-86.4797 -31.4746,-96.6029 -56.4132,-130.4831 -66.8954,-154.1658 -85.0529,-190.3671 -86.7883,-193.5044 -44.9732,-258.2399 -50.2474,-308.9808 -51.047,-313.5443 -39.6965,-352.7493 -22.5536,-418.347 10.099,-435.2483 21.1927,-482.9575 24.5825,-501.9431 27.2529,-519.662 31.3382,-553.0505 37.9514,-563.1837 96.0188,-599.4208 109.6225,-602.0655 119.307,-604.3421 122.6676,-603.3392 124.4838,-602.8723 128.2855,-601.9725 130.5523,-517.9907 134.3508,-497.1933 133.7704,-497.0715 133.7704,-497.0715 134.3508,-497.1933 130.5523,-517.9907 128.2855,-601.9725 141.2456,-599.4333 144.1911,-598.9775 151.7753,-598.114 160.4934,-597.4783 163.9541,-597.2969 177.5578,-597.4205 177.4705,-537.5454 176.1977,-516.7639 171.8076,-498.1736 171.8043,-497.357 170.3654,-497.0529 168.8576,-462.9235 165.3991,-496.3784 165.9238,-497.0391 161.8443,-500.5352 158.7174,-501.8084 155.7806,-501.8084 150.4912,-499.5198 148.449,-497.848 148.096,-497.3962 148.096,-497.3962 148.449,-497.848 150.4912,-499.5198 155.7806,-501.8084 158.7174,-501.8084 161.8443,-500.5352 165.9238,-497.0391 165.3991,-496.3784 162.9488,-494.4074 162.9488,-494.4074 165.3991,-496.3784 168.8576,-462.9235 170.3654,-497.0529 171.8043,-497.357 171.8076,-498.1736 176.1977,-516.7639 177.4705,-537.5454 177.5578,-597.4205 187.4843,-598.1219 184.608,-497.2059 182.2353,-497.2059 181.2765,-497.0115 178.8168,-497.0115 178.8168,-497.0115 181.2765,-497.0115 182.2353,-497.2059 184.608,-497.2059 187.4843,-598.1219 193.3947,-598.6606 214.7238,-602.3569 223.7967,-604.1113 234.2399,-598.2855 310.5781,-528.9324 303.7859,-513.7878 300.1207,-505.0869 292.5156,-485.7548 281.1301,-451.74 247.1323,-438.1125 246.5548,-437.9006 241.6295,-436.2578 241.285,-436.1544 230.2308,-433.2022 229.6583,-433.0688 201.2954,-428.3499 201.2954,-428.3499"/>
<polygon fill="#fed9a6" stroke="#fed9a6" points="555.9701,-347.1203 556.7218,-395.4821 556.7218,-395.4821 555.9701,-347.1203 551.2439,-345.4224 551.2053,-421.7025 547.5335,-421.7025 546.7722,-383.481 542.5574,-421.0743 543.1175,-421.8096 539.988,-424.4116 539.988,-424.4116 543.1175,-421.8096 542.5574,-421.0743 540.4764,-419.3382 535.3542,-417.0852 532.0577,-417.0852 532.0577,-417.0852 535.3542,-417.0852 540.4764,-419.3382 542.5574,-421.0743 546.7722,-383.481 547.5335,-421.7025 551.2053,-421.7025 551.2439,-345.4224 548.5747,-344.3763 536.887,-339.0171 532.6636,-336.8058 531.8491,-336.3249 533.0074,-298.7911 532.7426,-292.441 533.274,-275.5199 533.4714,-272.6135 533.4407,-266.75 469.2053,-275.3254 467.4769,-258.4464 464.1381,-280.3231 462.73,-281.5947 462.2878,-281.5947 462.2878,-281.5947 462.73,-281.5947 464.1381,-280.3231 467.4769,-258.4464 469.2053,-275.3254 533.4407,-266.75 535.8013,-190.2621 533.7931,-189.6448 521.3374,-186.0696 513.7128,-184.1983 507.6858,-182.9701 499.1155,-181.402 489.2214,-180.0058 469.4853,-178.457 460.8568,-177.4381 458.5211,-177.0698 449.7685,-175.5151 445.3333,-174.6396 446.8363,-276.9432 443.9127,-277.5209 443.9127,-277.5209 446.8363,-276.9432 445.3333,-174.6396 440.3077,-173.5485 432.9818,-171.6688 412.8256,-165.2971 398.0562,-160.3468 378.6571,-195.8057 370.4331,-212.8476 363.006,-229.4202 351.2799,-257.9211 340.7941,-281.2733 333.6339,-296.1015 329.7324,-303.233 289.4414,-291.8893 280.132,-289.7669 273.9698,-288.6951 267.4487,-287.7376 259.4744,-286.784 250.4791,-286.6839 250.2745,-286.6871 245.3149,-286.6262 244.1642,-286.6432 244.1343,-286.642 237.1715,-286.5405 227.0311,-285.8199 226.1225,-285.7298 181.3393,-280.0269 169.2022,-314.677 163.5834,-337.8343 162.0921,-345.1162 155.8642,-370.7556 144.6888,-402.6602 150.5336,-406.862 152.1453,-407.8602 159.7247,-412.3146 170.1934,-417.7932 172.6778,-418.9301 180.2424,-421.9104 183.6877,-423.1566 195.1268,-426.925 201.2954,-428.3499 229.6583,-433.0688 228.9195,-398.4031 228.9195,-398.4031 229.6583,-433.0688 230.2308,-433.2022 241.285,-436.1544 241.6295,-436.2578 246.5548,-437.9006 247.1323,-438.1125 281.1301,-451.74 292.5156,-485.7548 300.1207,-505.0869 303.7859,-513.7878 310.5781,-528.9324 360.5556,-539.0078 375.2482,-560.3901 393.1898,-587.9585 421.935,-619.1985 464.1557,-628.7036 469.2942,-629.9807 474.4079,-631.3711 487.6476,-635.5914 489.1061,-635.5341 495.9042,-635.8254 502.5396,-634.218 502.6816,-614.3597 502.1699,-588.183 502.3299,-581.1115 505.6563,-535.2206 506.4444,-534.3933 504.3473,-532.145 501.4202,-530.3444 497.1019,-529.4502 494.5488,-529.9596 494.5488,-529.9596 497.1019,-529.4502 501.4202,-530.3444 504.3473,-532.145 506.4444,-534.3933 505.6563,-535.2206 502.3299,-581.1115 502.1699,-588.183 502.6816,-614.3597 502.5396,-634.218 518.6211,-631.7161 534.5183,-630.6235 572.0034,-628.8633 609.9733,-602.7551 634.9026,-572.2972 622.1146,-551.0234 605.3716,-519.8051 593.3796,-493.8233 605.4639,-460.1569 608.4237,-446.7997 612.35,-424.3533 613.7701,-419.0164 630.0309,-373.7146 624.2463,-370.6884 615.6697,-366.4753 606.9752,-362.7709 597.3207,-359.2907 555.9701,-347.1203 555.9701,-347.1203"/>
<polygon fill="#ccebc5" stroke="#ccebc5" points="359.9839,-93.3697 367.0604,-60.2465 369.2788,-47.5036 375.4549,-15.7 460.6976,16.5872 481.1739,20.938 496.2044,24.4805 496.4102,24.543 496.8305,24.597 499.4133,24.3362 508.1826,23.6389 519.0671,23.2425 534.0906,23.6671 559.6856,24.9399 576.4805,22.7 617.4199,57.7354 662.9585,72.8028 679.3085,78.6358 682.6717,79.9188 687.1039,81.8311 692.9201,79.994 692.8128,71.787 689.4807,-19.4273 685.857,-19.4273 685.857,-19.4273 689.4807,-19.4273 693.7806,-21.2992 695.2275,-22.5534 695.2275,-25.252 692.7151,-27.5842 690.3425,-28.6025 690.3425,-28.6025 692.7151,-27.5842 695.2275,-25.252 695.2275,-22.5534 693.7806,-21.2992 689.4807,-19.4273 692.8128,71.787 692.9201,79.994 696.5725,79.0103 711.2975,75.3845 729.9076,71.2434 768.8113,41.463 794.8939,5.1782 797.764,1.388 799.7504,.7961 798.874,-42.0418 798.8841,-42.6271 795.4442,-101.3213 791.3126,-98.6032 788.1772,-97.9537 784.7513,-98.6705 779.8734,-101.8914 779.198,-102.6188 781.5537,-105.2862 782.9069,-106.1306 782.9069,-106.1306 781.5537,-105.2862 779.198,-102.6188 779.8734,-101.8914 784.7513,-98.6705 788.1772,-97.9537 791.3126,-98.6032 795.4442,-101.3213 798.8841,-42.6271 798.874,-42.0418 799.7504,.7961 809.7954,-1.3152 846.6398,-8.2515 895.0267,-38.7229 900.5565,-75.6564 898.736,-93.2001 897.7192,-112.4211 897.6597,-146.809 893.0782,-166.5394 922.5672,-226.9249 929.9236,-241.1659 958.5245,-255.2717 982.7335,-331.044 896.9581,-346.1263 896.6133,-268.2011 902.761,-262.8814 820.2255,-252.5876 817.2865,-249.9442 817.2473,-249.8714 815.3336,-248.3816 815.3336,-243.6151 813.0725,-242.22 809.5998,-241.4909 809.5998,-241.4909 813.0725,-242.22 815.3336,-243.6151 815.3336,-248.3816 817.2473,-249.8714 817.2865,-249.9442 820.2255,-252.5876 902.761,-262.8814 896.6133,-268.2011 896.9581,-346.1263 982.7335,-331.044 986.2284,-341.0448 987.3554,-355.7425 988.9713,-368.3274 897.0543,-359.0126 895.8463,-385.5396 892.3851,-355.3371 890.4214,-353.8394 886.479,-379.1858 884.8971,-412.623 880.9547,-352.7062 880.9105,-352.7062 877.0308,-349.2626 874.5143,-348.1996 874.5143,-348.1996 877.0308,-349.2626 880.9105,-352.7062 877.1542,-355.8682 874.3581,-357.0027 870.4373,-357.0027 865.2319,-354.6845 862.5794,-352.4538 862.538,-352.4538 862.319,-352.4076 859.5486,-352.4076 858.497,-352.179 855.2162,-352.179 850.8925,-294.8317 849.7389,-295.2253 849.3945,-312.5829 849.3945,-312.5829 849.7389,-295.2253 850.8925,-294.8317 855.2162,-352.179 858.497,-352.179 859.5486,-352.4076 862.319,-352.4076 862.538,-352.4538 862.5794,-352.4538 865.2319,-354.6845 870.4373,-357.0027 874.3581,-357.0027 877.1542,-355.8682 880.9105,-352.7062 880.9547,-352.7062 884.8971,-412.623 886.479,-379.1858 890.4214,-353.8394 892.3851,-355.3371 895.8463,-385.5396 897.0543,-359.0126 988.9713,-368.3274 992.3915,-390.546 956.9692,-443.0004 929.9606,-460.6612 924.8884,-478.8013 918.1176,-511.6759 916.2625,-521.9781 910.4807,-534.2864 835.6053,-596.256 822.1724,-607.8 816.9207,-611.8302 816.5144,-611.7842 817.7733,-529.6258 818.9655,-512.8353 817.9214,-487.4187 818.4533,-487.4187 818.4533,-487.4187 817.9214,-487.4187 818.9655,-512.8353 817.7733,-529.6258 816.5144,-611.7842 812.1682,-611.5032 803.6545,-611.2275 803.4731,-492.2336 806.7946,-491.58 811.0442,-488.9933 812.7195,-487.3087 811.0604,-485.6553 807.5333,-483.5258 803.8467,-482.7632 803.8467,-482.7632 807.5333,-483.5258 811.0604,-485.6553 812.7195,-487.3087 811.0442,-488.9933 806.7946,-491.58 803.4731,-492.2336 803.6545,-611.2275 794.8752,-611.0852 783.3315,-611.4578 782.0081,-610.6442 784.095,-530.5291 783.6295,-513.9608 783.6295,-513.9608 784.095,-530.5291 782.0081,-610.6442 706.1406,-568.9357 705.6445,-568.8626 707.6876,-496.7545 707.6423,-495.3073 707.6423,-495.3073 707.6876,-496.7545 705.6445,-568.8626 704.232,-568.7318 689.6985,-567.911 679.6368,-567.8908 682.8647,-460.0348 685.7467,-461.1779 690.0268,-461.1779 694.8393,-459.15 696.4631,-457.8676 697.2833,-456.8453 692.8704,-453.1483 690.1082,-452.0658 686.7351,-452.0658 686.7351,-452.0658 690.1082,-452.0658 692.8704,-453.1483 697.2833,-456.8453 696.4631,-457.8676 694.8393,-459.15 690.0268,-461.1779 685.7467,-461.1779 682.8647,-460.0348 679.6368,-567.8908 673.7031,-567.9866 667.101,-568.4521 662.2483,-568.8823 662.3354,-484.1361 662.3354,-484.1361 662.2483,-568.8823 634.9026,-572.2972 622.1146,-551.0234 605.3716,-519.8051 593.3796,-493.8233 605.4639,-460.1569 608.4237,-446.7997 612.35,-424.3533 613.7701,-419.0164 630.0309,-373.7146 624.2463,-370.6884 615.6697,-366.4753 606.9752,-362.7709 597.3207,-359.2907 598.5494,-321.6698 601.9272,-289.2334 602.6776,-288.1075 601.6936,-285.2835 601.6936,-285.2604 602.1113,-284.0047 605.7291,-281.6053 608.4596,-281.0287 608.4596,-281.0287 605.7291,-281.6053 602.1113,-284.0047 600.8135,-281.6255 597.5902,-278.9328 594.3417,-196.0247 603.4645,-199.5684 614.8202,-203.3369 614.9286,-203.3667 617.4108,-203.9786 658.4889,-212.9581 657.5218,-180.8918 657.5218,-180.8918 658.4889,-212.9581 617.4108,-203.9786 614.9286,-203.3667 614.8202,-203.3369 603.4645,-199.5684 594.3417,-196.0247 597.5902,-278.9328 600.8135,-281.6255 602.1113,-284.0047 601.6936,-285.2604 601.6936,-285.2835 602.6776,-288.1075 601.9272,-289.2334 598.5494,-321.6698 597.3207,-359.2907 555.9701,-347.1203 551.2439,-345.4224 548.5747,-344.3763 536.887,-339.0171 532.6636,-336.8058 531.8491,-336.3249 533.0074,-298.7911 532.7426,-292.441 533.274,-275.5199 533.4714,-272.6135 533.4407,-266.75 535.8013,-190.2621 533.7931,-189.6448 521.3374,-186.0696 513.7128,-184.1983 507.6858,-182.9701 499.1155,-181.402 489.2214,-180.0058 469.4853,-178.457 460.8568,-177.4381 458.5211,-177.0698 449.7685,-175.5151 445.3333,-174.6396 440.3077,-173.5485 432.9818,-171.6688 412.8256,-165.2971 398.0562,-160.3468 359.6085,-94.862 359.9839,-93.3697 474.8607,-81.9705 474.8607,-81.9705 359.9839,-93.3697 359.9839,-93.3697"/>
<polyline fill="none" stroke="#000000" points="10.099,-435.2483 -22.5536,-418.347 -39.6965,-352.7493 -51.047,-313.5443 -50.2474,-308.9808 -44.9732,-258.2399 -86.7883,-193.5044 -85.0529,-190.3671 -66.8954,-154.1658 -56.4132,-130.4831 -31.4746,-96.6029 -13.4274,-86.4797 23.6146,-78.8562 34.1425,-76.4338 43.0842,-73.9469 53.1839,-70.6547 64.4783,-66.165 80.4238,-58.2907 88.7717,-53.775 92.416,-25.6258 92.6939,-22.3419 95.8075,-10.4787 112.7975,68.9179 146.4401,91.538 188.495,83.1628 200.0062,81.1097 203.6179,80.542 209.7056,79.7138 213.5402,79.435 219.1404,78.2736 224.025,77.4754 234.1839,76.0389 240.5247,75.5621 240.7144,75.552 254.4194,75.1247 282.3694,75.4841 360.7597,7.1415 370.151,-8.1083 375.4549,-15.7 369.2788,-47.5036 367.0604,-60.2465 359.9839,-93.3697 359.6085,-94.862 398.0562,-160.3468 378.6571,-195.8057 370.4331,-212.8476 363.006,-229.4202 351.2799,-257.9211 340.7941,-281.2733 333.6339,-296.1015 329.7324,-303.233 289.4414,-291.8893 280.132,-289.7669 273.9698,-288.6951 267.4487,-287.7376 259.4744,-286.784 250.4791,-286.6839 250.2745,-286.6871 245.3149,-286.6262 244.1642,-286.6432 244.1343,-286.642 237.1715,-286.5405 227.0311,-285.8199 226.1225,-285.7298 181.3393,-280.0269 169.2022,-314.677 163.5834,-337.8343 162.0921,-345.1162 155.8642,-370.7556 144.6888,-402.6602 150.5336,-406.862 152.1453,-407.8602 159.7247,-412.3146 170.1934,-417.7932 172.6778,-418.9301 180.2424,-421.9104 183.6877,-423.1566 195.1268,-426.925 201.2954,-428.3499 229.6583,-433.0688 230.2308,-433.2022 241.285,-436.1544 241.6295,-436.2578 246.5548,-437.9006 247.1323,-438.1125 281.1301,-451.74 292.5156,-485.7548 300.1207,-505.0869 303.7859,-513.7878 310.5781,-528.9324 234.2399,-598.2855 223.7967,-604.1113 214.7238,-602.3569 193.3947,-598.6606 187.4843,-598.1219 177.5578,-597.4205 163.9541,-597.2969 160.4934,-597.4783 151.7753,-598.114 144.1911,-598.9775 141.2456,-599.4333 128.2855,-601.9725 124.4838,-602.8723 122.6676,-603.3392 119.307,-604.3421 109.6225,-602.0655 96.0188,-599.4208 37.9514,-563.1837 31.3382,-553.0505 27.2529,-519.662 24.5825,-501.9431 21.1927,-482.9575 10.099,-435.2483 "/>
<polyline fill="none" stroke="#000000" points="329.7324,-303.233 289.4414,-291.8893 280.132,-289.7669 273.9698,-288.6951 267.4487,-287.7376 259.4744,-286.784 250.4791,-286.6839 250.2745,-286.6871 245.3149,-286.6262 244.1642,-286.6432 244.1343,-286.642 237.1715,-286.5405 227.0311,-285.8199 226.1225,-285.7298 181.3393,-280.0269 169.2022,-314.677 163.5834,-337.8343 162.0921,-345.1162 155.8642,-370.7556 144.6888,-402.6602 150.5336,-406.862 152.1453,-407.8602 159.7247,-412.3146 170.1934,-417.7932 172.6778,-418.9301 180.2424,-421.9104 183.6877,-423.1566 195.1268,-426.925 201.2954,-428.3499 229.6583,-433.0688 230.2308,-433.2022 241.285,-436.1544 241.6295,-436.2578 246.5548,-437.9006 247.1323,-438.1125 281.1301,-451.74 292.5156,-485.7548 300.1207,-505.0869 303.7859,-513.7878 310.5781,-528.9324 360.5556,-539.0078 375.2482,-560.3901 393.1898,-587.9585 421.935,-619.1985 464.1557,-628.7036 469.2942,-629.9807 474.4079,-631.3711 487.6476,-635.5914 489.1061,-635.5341 495.9042,-635.8254 502.5396,-634.218 518.6211,-631.7161 534.5183,-630.6235 572.0034,-628.8633 609.9733,-602.7551 634.9026,-572.2972 622.1146,-551.0234 605.3716,-519.8051 593.3796,-493.8233 605.4639,-460.1569 608.4237,-446.7997 612.35,-424.3533 613.7701,-419.0164 630.0309,-373.7146 624.2463,-370.6884 615.6697,-366.4753 606.9752,-362.7709 597.3207,-359.2907 555.9701,-347.1203 551.2439,-345.4224 548.5747,-344.3763 536.887,-339.0171 532.6636,-336.8058 531.8491,-336.3249 533.0074,-298.7911 532.7426,-292.441 533.274,-275.5199 533.4714,-272.6135 533.4407,-266.75 535.8013,-190.2621 533.7931,-189.6448 521.3374,-186.0696 513.7128,-184.1983 507.6858,-182.9701 499.1155,-181.402 489.2214,-180.0058 469.4853,-178.457 460.8568,-177.4381 458.5211,-177.0698 449.7685,-175.5151 445.3333,-174.6396 440.3077,-173.5485 432.9818,-171.6688 412.8256,-165.2971 398.0562,-160.3468 378.6571,-195.8057 370.4331,-212.8476 363.006,-229.4202 351.2799,-257.9211 340.7941,-281.2733 333.6339,-296.1015 329.7324,-303.233 "/>
<polyline fill="none" stroke="#000000" points="533.7931,-189.6448 521.3374,-186.0696 513.7128,-184.1983 507.6858,-182.9701 499.1155,-181.402 489.2214,-180.0058 469.4853,-178.457 460.8568,-177.4381 458.5211,-177.0698 449.7685,-175.5151 445.3333,-174.6396 440.3077,-173.5485 432.9818,-171.6688 412.8256,-165.2971 398.0562,-160.3468 359.6085,-94.862 359.9839,-93.3697 367.0604,-60.2465 369.2788,-47.5036 375.4549,-15.7 460.6976,16.5872 481.1739,20.938 496.2044,24.4805 496.4102,24.543 496.8305,24.597 499.4133,24.3362 508.1826,23.6389 519.0671,23.2425 534.0906,23.6671 559.6856,24.9399 576.4805,22.7 617.4199,57.7354 662.9585,72.8028 679.3085,78.6358 682.6717,79.9188 687.1039,81.8311 692.9201,79.994 696.5725,79.0103 711.2975,75.3845 729.9076,71.2434 768.8113,41.463 794.8939,5.1782 797.764,1.388 799.7504,.7961 809.7954,-1.3152 846.6398,-8.2515 895.0267,-38.7229 900.5565,-75.6564 898.736,-93.2001 897.7192,-112.4211 897.6597,-146.809 893.0782,-166.5394 922.5672,-226.9249 929.9236,-241.1659 958.5245,-255.2717 982.7335,-331.044 986.2284,-341.0448 987.3554,-355.7425 988.9713,-368.3274 992.3915,-390.546 956.9692,-443.0004 929.9606,-460.6612 924.8884,-478.8013 918.1176,-511.6759 916.2625,-521.9781 910.4807,-534.2864 835.6053,-596.256 822.1724,-607.8 816.9207,-611.8302 816.5144,-611.7842 812.1682,-611.5032 803.6545,-611.2275 794.8752,-611.0852 783.3315,-611.4578 782.0081,-610.6442 706.1406,-568.9357 705.6445,-568.8626 704.232,-568.7318 689.6985,-567.911 679.6368,-567.8908 673.7031,-567.9866 667.101,-568.4521 662.2483,-568.8823 634.9026,-572.2972 622.1146,-551.0234 605.3716,-519.8051 593.3796,-493.8233 605.4639,-460.1569 608.4237,-446.7997 612.35,-424.3533 613.7701,-419.0164 630.0309,-373.7146 624.2463,-370.6884 615.6697,-366.4753 606.9752,-362.7709 597.3207,-359.2907 555.9701,-347.1203 551.2439,-345.4224 548.5747,-344.3763 536.887,-339.0171 532.6636,-336.8058 531.8491,-336.3249 533.0074,-298.7911 532.7426,-292.441 533.274,-275.5199 533.4714,-272.6135 533.4407,-266.75 535.8013,-190.2621 533.7931,-189.6448 "/>
<!-- autoconf&#45;&gt;emacs&#45;filesystem -->
<g id="edge1" class="edge">
<title>autoconf&#45;&gt;emacs&#45;filesystem</title>
<path fill="none" stroke="#444444" stroke-opacity="0.333333" d="M82.3986,-338.9238C97.0586,-370.0518 126.9968,-433.6206 144.1359,-470.0127"/>
<polygon fill="#444444" fill-opacity="0.333333" stroke="#444444" stroke-opacity="0.333333" points="140.9769,-471.5197 148.404,-479.0753 147.3097,-468.5371 140.9769,-471.5197"/>
</g>
<!-- emacs&#45;filesystem&#45;&gt;libgcc -->
<g id="edge2" class="edge">
<title>emacs&#45;filesystem&#45;&gt;libgcc</title>
<path fill="none" stroke="#444444" stroke-opacity="0.333333" d="M215.0869,-479.1102C251.1596,-467.8878 297.1449,-453.5815 332.1815,-442.6814"/>
<polygon fill="#444444" fill-opacity="0.333333" stroke="#444444" stroke-opacity="0.333333" points="333.2472,-446.0155 341.756,-439.7028 331.1677,-439.3314 333.2472,-446.0155"/>
</g>
<!-- automake&#45;&gt;autoconf -->
<g id="edge3" class="edge">
<title>automake&#45;&gt;autoconf</title>
<path fill="none" stroke="#444444" stroke-opacity="0.333333" d="M56.3419,-189.1101C59.7584,-214.8381 66.0599,-262.2921 70.0888,-292.6318"/>
<polygon fill="#444444" fill-opacity="0.333333" stroke="#444444" stroke-opacity="0.333333" points="66.6246,-293.1337 71.4106,-302.5859 73.5637,-292.2122 66.6246,-293.1337"/>
</g>
<!-- cpp&#45;&gt;libmpc -->
<g id="edge4" class="edge">
<title>cpp&#45;&gt;libmpc</title>
<path fill="none" stroke="#444444" stroke-opacity="0.333333" d="M693.0368,-124.8048C705.371,-121.9541 720.4153,-118.4769 734.8626,-115.1377"/>
<polygon fill="#444444" fill-opacity="0.333333" stroke="#444444" stroke-opacity="0.333333" points="735.7737,-118.5195 744.7286,-112.8574 734.1973,-111.6993 735.7737,-118.5195"/>
</g>
<!-- cpp&#45;&gt;mpfr -->
<g id="edge5" class="edge">
<title>cpp&#45;&gt;mpfr</title>
<path fill="none" stroke="#444444" stroke-opacity="0.333333" d="M669.6094,-112.9354C672.9747,-96.3488 678.0063,-71.5499 681.8965,-52.3761"/>
<polygon fill="#444444" fill-opacity="0.333333" stroke="#444444" stroke-opacity="0.333333" points="685.3641,-52.8869 683.9225,-42.3906 678.5039,-51.4949 685.3641,-52.8869"/>
</g>
<!-- libmpc&#45;&gt;mpfr -->
<g id="edge6" class="edge">
<title>libmpc&#45;&gt;mpfr</title>
<path fill="none" stroke="#444444" stroke-opacity="0.333333" d="M765.0247,-84.7908C751.3406,-74.0733 733.8043,-60.3388 718.8844,-48.6535"/>
<polygon fill="#444444" fill-opacity="0.333333" stroke="#444444" stroke-opacity="0.333333" points="720.9368,-45.8152 710.9059,-42.4046 716.6206,-51.3261 720.9368,-45.8152"/>
</g>
<!-- gcc&#45;&gt;libgcc -->
<g id="edge7" class="edge">
<title>gcc&#45;&gt;libgcc</title>
<path fill="none" stroke="#444444" stroke-opacity="0.333333" d="M582.0455,-302.626C542.2209,-327.6133 467.6274,-374.4157 422.5281,-402.7125"/>
<polygon fill="#444444" fill-opacity="0.333333" stroke="#444444" stroke-opacity="0.333333" points="420.531,-399.8335 413.9205,-408.1131 424.2514,-405.7631 420.531,-399.8335"/>
</g>
<!-- gcc&#45;&gt;cpp -->
<g id="edge8" class="edge">
<title>gcc&#45;&gt;cpp</title>
<path fill="none" stroke="#444444" stroke-opacity="0.333333" d="M615.7038,-267.6328C625.5374,-240.8959 644.0654,-190.5191 655.6608,-158.9915"/>
<polygon fill="#444444" fill-opacity="0.333333" stroke="#444444" stroke-opacity="0.333333" points="658.9952,-160.065 659.1622,-149.4715 652.4254,-157.6487 658.9952,-160.065"/>
</g>
<!-- gcc&#45;&gt;libmpc -->
<g id="edge9" class="edge">
<title>gcc&#45;&gt;libmpc</title>
<path fill="none" stroke="#444444" stroke-opacity="0.333333" d="M626.8876,-267.4711C658.9199,-234.7535 726.3055,-165.926 762.9869,-128.4598"/>
<polygon fill="#444444" fill-opacity="0.333333" stroke="#444444" stroke-opacity="0.333333" points="765.8295,-130.5593 770.3244,-120.9653 760.8276,-125.6622 765.8295,-130.5593"/>
</g>
<!-- gcc&#45;&gt;mpfr -->
<g id="edge10" class="edge">
<title>gcc&#45;&gt;mpfr</title>
<path fill="none" stroke="#444444" stroke-opacity="0.333333" d="M614.5935,-267.2816C628.1473,-222.1593 663.1167,-105.7418 679.2445,-52.0501"/>
<polygon fill="#444444" fill-opacity="0.333333" stroke="#444444" stroke-opacity="0.333333" points="682.6821,-52.7721 682.2069,-42.1879 675.978,-50.7582 682.6821,-52.7721"/>
</g>
<!-- gcc&#45;&gt;binutils -->
<g id="edge11" class="edge">
<title>gcc&#45;&gt;binutils</title>
<path fill="none" stroke="#444444" stroke-opacity="0.333333" d="M636.2075,-292.5672C676.3978,-302.7818 752.9042,-322.2264 807.8611,-336.1941"/>
<polygon fill="#444444" fill-opacity="0.333333" stroke="#444444" stroke-opacity="0.333333" points="807.3043,-339.6638 817.8584,-338.735 809.0286,-332.8795 807.3043,-339.6638"/>
</g>
<!-- gcc&#45;&gt;isl -->
<g id="edge12" class="edge">
<title>gcc&#45;&gt;isl</title>
<path fill="none" stroke="#444444" stroke-opacity="0.333333" d="M636.4434,-280.2578C671.5802,-273.3106 732.6813,-261.2297 771.94,-253.4676"/>
<polygon fill="#444444" fill-opacity="0.333333" stroke="#444444" stroke-opacity="0.333333" points="772.776,-256.8701 781.9072,-251.4969 771.4182,-250.003 772.776,-256.8701"/>
</g>
<!-- gcc&#45;&gt;libasan -->
<g id="edge13" class="edge">
<title>gcc&#45;&gt;libasan</title>
<path fill="none" stroke="#444444" stroke-opacity="0.333333" d="M581.9046,-285.0256C561.0324,-284.5305 531.4401,-283.8285 505.2659,-283.2076"/>
<polygon fill="#444444" fill-opacity="0.333333" stroke="#444444" stroke-opacity="0.333333" points="505.1319,-279.7035 495.0516,-282.9653 504.9658,-286.7016 505.1319,-279.7035"/>
</g>
<!-- gcc&#45;&gt;libatomic -->
<g id="edge14" class="edge">
<title>gcc&#45;&gt;libatomic</title>
<path fill="none" stroke="#444444" stroke-opacity="0.333333" d="M617.5415,-303.9807C631.4682,-334.0825 659.2762,-394.1879 675.5548,-429.3733"/>
<polygon fill="#444444" fill-opacity="0.333333" stroke="#444444" stroke-opacity="0.333333" points="672.4439,-430.9849 679.8194,-438.591 678.7969,-428.0456 672.4439,-430.9849"/>
</g>
<!-- gcc&#45;&gt;libcilkrts -->
<g id="edge15" class="edge">
<title>gcc&#45;&gt;libcilkrts</title>
<path fill="none" stroke="#444444" stroke-opacity="0.333333" d="M600.8667,-303.9524C581.485,-347.1477 532.7702,-455.7169 509.8257,-506.8525"/>
<polygon fill="#444444" fill-opacity="0.333333" stroke="#444444" stroke-opacity="0.333333" points="506.6258,-505.4343 505.7253,-515.9908 513.0124,-508.3 506.6258,-505.4343"/>
</g>
<!-- gcc&#45;&gt;libgomp -->
<g id="edge16" class="edge">
<title>gcc&#45;&gt;libgomp</title>
<path fill="none" stroke="#444444" stroke-opacity="0.333333" d="M626.6655,-303.9235C661.5102,-340.0712 739.3522,-420.8241 779.104,-462.0625"/>
<polygon fill="#444444" fill-opacity="0.333333" stroke="#444444" stroke-opacity="0.333333" points="776.6043,-464.5125 786.0644,-469.2831 781.6441,-459.6544 776.6043,-464.5125"/>
</g>
<!-- gcc&#45;&gt;libmpx -->
<g id="edge17" class="edge">
<title>gcc&#45;&gt;libmpx</title>
<path fill="none" stroke="#444444" stroke-opacity="0.333333" d="M600.1879,-267.4697C582.191,-230.5924 541.3413,-146.8871 520.1992,-103.565"/>
<polygon fill="#444444" fill-opacity="0.333333" stroke="#444444" stroke-opacity="0.333333" points="523.2901,-101.9181 515.7589,-94.4662 516.9993,-104.9882 523.2901,-101.9181"/>
</g>
<!-- gcc&#45;&gt;libubsan -->
<g id="edge18" class="edge">
<title>gcc&#45;&gt;libubsan</title>
<path fill="none" stroke="#444444" stroke-opacity="0.333333" d="M599.084,-303.7284C586.2179,-326.9951 563.7379,-367.6476 548.8274,-394.6113"/>
<polygon fill="#444444" fill-opacity="0.333333" stroke="#444444" stroke-opacity="0.333333" points="545.6736,-393.082 543.8973,-403.5269 551.7994,-396.4695 545.6736,-393.082"/>
</g>
<!-- libasan&#45;&gt;libgcc -->
<g id="edge19" class="edge">
<title>libasan&#45;&gt;libgcc</title>
<path fill="none" stroke="#444444" stroke-opacity="0.333333" d="M438.9506,-300.1109C428.3272,-324.9608 409.2421,-369.6039 396.8609,-398.5656"/>
<polygon fill="#444444" fill-opacity="0.333333" stroke="#444444" stroke-opacity="0.333333" points="393.4986,-397.5268 392.7859,-408.0976 399.9351,-400.2784 393.4986,-397.5268"/>
</g>
<!-- libcilkrts&#45;&gt;libgcc -->
<g id="edge20" class="edge">
<title>libcilkrts&#45;&gt;libgcc</title>
<path fill="none" stroke="#444444" stroke-opacity="0.333333" d="M478.6834,-516.2132C460.1912,-498.4477 431.8224,-471.1937 411.1524,-451.3359"/>
<polygon fill="#444444" fill-opacity="0.333333" stroke="#444444" stroke-opacity="0.333333" points="413.5542,-448.7898 403.918,-444.3858 408.7046,-453.8378 413.5542,-448.7898"/>
</g>
<!-- libubsan&#45;&gt;libgcc -->
<g id="edge21" class="edge">
<title>libubsan&#45;&gt;libgcc</title>
<path fill="none" stroke="#444444" stroke-opacity="0.333333" d="M479.7143,-423.3264C466.2022,-423.7422 451.7254,-424.1877 438.2586,-424.6021"/>
<polygon fill="#444444" fill-opacity="0.333333" stroke="#444444" stroke-opacity="0.333333" points="438.0776,-421.1059 428.19,-424.9119 438.293,-428.1026 438.0776,-421.1059"/>
</g>
<!-- libtool&#45;&gt;autoconf -->
<g id="edge22" class="edge">
<title>libtool&#45;&gt;autoconf</title>
<path fill="none" stroke="#444444" stroke-opacity="0.333333" d="M234.6862,-227.3877C201.7421,-246.4968 149.7804,-276.6371 113.8692,-297.4673"/>
<polygon fill="#444444" fill-opacity="0.333333" stroke="#444444" stroke-opacity="0.333333" points="112.0004,-294.505 105.1064,-302.5501 115.5127,-300.5601 112.0004,-294.505"/>
</g>
<!-- libtool&#45;&gt;automake -->
<g id="edge23" class="edge">
<title>libtool&#45;&gt;automake</title>
<path fill="none" stroke="#444444" stroke-opacity="0.333333" d="M217.8737,-200.5686C188.4346,-195.2693 150.4032,-188.4233 118.3844,-182.6597"/>
<polygon fill="#444444" fill-opacity="0.333333" stroke="#444444" stroke-opacity="0.333333" points="118.6804,-179.1568 108.2185,-180.8297 117.4402,-186.046 118.6804,-179.1568"/>
</g>
<!-- libtool&#45;&gt;gcc -->
<g id="edge24" class="edge">
<title>libtool&#45;&gt;gcc</title>
<path fill="none" stroke="#444444" stroke-opacity="0.333333" d="M314.055,-219.9391C383.2323,-235.3522 509.4013,-263.4633 571.9192,-277.3926"/>
<polygon fill="#444444" fill-opacity="0.333333" stroke="#444444" stroke-opacity="0.333333" points="571.2259,-280.8239 581.7477,-279.5825 572.7482,-273.9914 571.2259,-280.8239"/>
</g>
<!-- libtool&#45;&gt;findutils -->
<g id="edge25" class="edge">
<title>libtool&#45;&gt;findutils</title>
<path fill="none" stroke="#444444" stroke-opacity="0.333333" d="M261.9216,-190.8941C254.4578,-157.2548 238.5365,-85.4982 229.7326,-45.8198"/>
<polygon fill="#444444" fill-opacity="0.333333" stroke="#444444" stroke-opacity="0.333333" points="233.1372,-45.0056 227.5541,-36.0012 226.3034,-46.522 233.1372,-45.0056"/>
</g>
<!-- libtool&#45;&gt;tar -->
<g id="edge26" class="edge">
<title>libtool&#45;&gt;tar</title>
<path fill="none" stroke="#444444" stroke-opacity="0.333333" d="M262.7267,-227.2917C257.9105,-253.949 248.8543,-304.0739 243.1458,-335.6695"/>
<polygon fill="#444444" fill-opacity="0.333333" stroke="#444444" stroke-opacity="0.333333" points="239.683,-335.1505 241.3492,-345.6135 246.5714,-336.3952 239.683,-335.1505"/>
</g>
<!-- tar&#45;&gt;libgcc -->
<g id="edge27" class="edge">
<title>tar&#45;&gt;libgcc</title>
<path fill="none" stroke="#444444" stroke-opacity="0.333333" d="M265.3269,-375.5936C284.3018,-383.6219 310.184,-394.5726 333.0279,-404.2379"/>
<polygon fill="#444444" fill-opacity="0.333333" stroke="#444444" stroke-opacity="0.333333" points="331.6976,-407.4754 342.271,-408.1486 334.4252,-401.0286 331.6976,-407.4754"/>
</g>
<!-- autoconf -->
<g id="node1" class="node">
<title>autoconf</title>
<text text-anchor="middle" x="73.816" y="-317" font-family="monospace" font-size="14.00" fill="#000000">autoconf</text>
</g>
<!-- emacs&#45;filesystem -->
<g id="node2" class="node">
<title>emacs&#45;filesystem</title>
<text text-anchor="middle" x="156.94" y="-493.5" font-family="monospace" font-size="14.00" fill="#000000">emacs&#45;filesystem</text>
</g>
<!-- libgcc -->
<g id="node3" class="node">
<title>libgcc</title>
<text text-anchor="middle" x="385.03" y="-422.54" font-family="monospace" font-size="14.00" fill="#000000">libgcc</text>
</g>
<!-- automake -->
<g id="node4" class="node">
<title>automake</title>
<text text-anchor="middle" x="53.945" y="-167.36" font-family="monospace" font-size="14.00" fill="#000000">automake</text>
</g>
<!-- cpp -->
<g id="node5" class="node">
<title>cpp</title>
<text text-anchor="middle" x="665.93" y="-127.37" font-family="monospace" font-size="14.00" fill="#000000">cpp</text>
</g>
<!-- libmpc -->
<g id="node6" class="node">
<title>libmpc</title>
<text text-anchor="middle" x="788.07" y="-99.14" font-family="monospace" font-size="14.00" fill="#000000">libmpc</text>
</g>
<!-- mpfr -->
<g id="node7" class="node">
<title>mpfr</title>
<text text-anchor="middle" x="687.62" y="-20.467" font-family="monospace" font-size="14.00" fill="#000000">mpfr</text>
</g>
<!-- gcc -->
<g id="node8" class="node">
<title>gcc</title>
<text text-anchor="middle" x="609.07" y="-281.97" font-family="monospace" font-size="14.00" fill="#000000">gcc</text>
</g>
<!-- binutils -->
<g id="node9" class="node">
<title>binutils</title>
<text text-anchor="middle" x="871.9" y="-348.77" font-family="monospace" font-size="14.00" fill="#000000">binutils</text>
</g>
<!-- isl -->
<g id="node10" class="node">
<title>isl</title>
<text text-anchor="middle" x="808.95" y="-242.45" font-family="monospace" font-size="14.00" fill="#000000">isl</text>
</g>
<!-- libasan -->
<g id="node11" class="node">
<title>libasan</title>
<text text-anchor="middle" x="446.77" y="-278.12" font-family="monospace" font-size="14.00" fill="#000000">libasan</text>
</g>
<!-- libatomic -->
<g id="node12" class="node">
<title>libatomic</title>
<text text-anchor="middle" x="688.23" y="-453.07" font-family="monospace" font-size="14.00" fill="#000000">libatomic</text>
</g>
<!-- libcilkrts -->
<g id="node13" class="node">
<title>libcilkrts</title>
<text text-anchor="middle" x="497.51" y="-530.6" font-family="monospace" font-size="14.00" fill="#000000">libcilkrts</text>
</g>
<!-- libgomp -->
<g id="node14" class="node">
<title>libgomp</title>
<text text-anchor="middle" x="803.48" y="-483.65" font-family="monospace" font-size="14.00" fill="#000000">libgomp</text>
</g>
<!-- libmpx -->
<g id="node15" class="node">
<title>libmpx</title>
<text text-anchor="middle" x="506.97" y="-72.757" font-family="monospace" font-size="14.00" fill="#000000">libmpx</text>
</g>
<!-- libubsan -->
<g id="node16" class="node">
<title>libubsan</title>
<text text-anchor="middle" x="533.87" y="-417.96" font-family="monospace" font-size="14.00" fill="#000000">libubsan</text>
</g>
<!-- libtool -->
<g id="node17" class="node">
<title>libtool</title>
<text text-anchor="middle" x="265.99" y="-205.53" font-family="monospace" font-size="14.00" fill="#000000">libtool</text>
</g>
<!-- findutils -->
<g id="node18" class="node">
<title>findutils</title>
<text text-anchor="middle" x="223.56" y="-14.3" font-family="monospace" font-size="14.00" fill="#000000">findutils</text>
</g>
<!-- tar -->
<g id="node19" class="node">
<title>tar</title>
<text text-anchor="middle" x="238.02" y="-360.34" font-family="monospace" font-size="14.00" fill="#000000">tar</text>
</g>
</g>
</svg>
