<?xml version="1.0" encoding="UTF-8" standalone="no"?>
<!DOCTYPE svg PUBLIC "-//W3C//DTD SVG 1.1//EN"
 "http://www.w3.org/Graphics/SVG/1.1/DTD/svg11.dtd">
<!-- Generated by graphviz version 2.40.1 (20161225.0304)
 -->
<!-- Title: G Pages: 1 -->
<svg width="1291pt" height="799pt"
 viewBox="0.00 0.00 1290.54 799.44" xmlns="http://www.w3.org/2000/svg" xmlns:xlink="http://www.w3.org/1999/xlink">
<g id="graph0" class="graph" transform="scale(1 1) rotate(0) translate(162.1711 639.4045)">
<title>G</title>
<polygon fill="#dae2ff" stroke="transparent" points="-162.1711,160.0331 -162.1711,-639.4045 1128.3704,-639.4045 1128.3704,160.0331 -162.1711,160.0331"/>
<polygon fill="#fbb4ae" stroke="#fbb4ae" points="971.5472,-390.8932 986.8644,-384.4256 1026.7692,-369.1867 1113.7076,-312.8722 1116.1349,-266.449 1119.9908,-215.737 1124.3704,-179.9513 1104.0432,-151.5009 1033.5436,-80.2783 983.0778,-104.8458 977.6426,-107.2179 886.5891,-73.2375 885.5895,-72.9258 876.4476,-71.1502 867.4698,-69.9431 859.2708,-69.8272 854.8177,-70.0322 854.9631,-75.8077 854.9631,-75.8077 854.8177,-70.0322 859.2708,-69.8272 867.4698,-69.9431 876.4476,-71.1502 885.5895,-72.9258 886.5891,-73.2375 977.6426,-107.2179 983.0778,-104.8458 1033.5436,-80.2783 1035.327,-28.7955 1037.8403,3.8666 1038.8616,14.3041 1037.1854,31.801 957.7665,110.5008 899.2933,122.6583 878.4429,127.4171 881.6766,21.3719 879.5756,-17.8814 878.7848,-18.111 875.2361,-18.111 874.6323,-18.2808 870.5344,-18.2808 867.4216,-58.528 863.965,-18.2337 859.7172,-18.2337 859.3568,-18.1341 855.0464,-18.1341 854.7796,-18.0598 850.9319,-18.0598 850.2935,-18.7716 850.2935,-18.7716 850.9319,-18.0598 850.2077,-17.2416 843.9977,-13.5312 843.9977,-13.5312 850.2077,-17.2416 850.9319,-18.0598 854.7796,-18.0598 855.0464,-18.1341 859.3568,-18.1341 859.7172,-18.2337 863.965,-18.2337 867.4216,-58.528 870.5344,-18.2808 874.6323,-18.2808 875.2361,-18.111 878.7848,-18.111 879.5756,-17.8814 881.6766,21.3719 878.4429,127.4171 875.3549,128.2446 860.9055,132.699 850.6624,136.2657 848.1476,137.1912 834.0964,143.2155 822.5645,148.3907 829.4033,-17.8765 824.6826,-17.8765 824.6826,-17.8765 829.4033,-17.8765 822.5645,148.3907 821.6431,148.8223 810.5647,154.4559 807.5796,156.0331 806.8376,155.7527 792.9175,150.9802 727.6411,130.9028 657.3894,63.891 636.0671,3.9074 629.9163,-11.4702 572.3693,-80.8893 575.3287,-87.7943 607.4521,-105.5262 667.7835,-142.1439 756.0814,-126.742 760.136,-122.334 760.136,-122.334 756.0814,-126.742 667.7835,-142.1439 607.4521,-105.5262 575.3287,-87.7943 580.3099,-223.4342 580.5781,-226.3571 581.5084,-251.4149 693.3657,-240.49 700.4197,-345.2596 698.3886,-236.1509 700.2383,-234.7402 703.5627,-234.7402 702.3143,-353.333 707.4948,-352.0143 714.9042,-350.307 715.2845,-307.1526 718.5699,-238.1395 723.1415,-239.4315 728.1335,-237.9945 732.2184,-234.4335 728.6844,-231.5596 728.6844,-231.5596 732.2184,-234.4335 728.1335,-237.9945 723.1415,-239.4315 718.5699,-238.1395 715.2845,-307.1526 714.9042,-350.307 707.4948,-352.0143 702.3143,-353.333 703.5627,-234.7402 700.2383,-234.7402 698.3886,-236.1509 700.4197,-345.2596 693.3657,-240.49 581.5084,-251.4149 581.8055,-282.1606 585.8182,-391.4261 558.2977,-431.8112 535.8019,-462.7756 549.61,-489.1456 571.1644,-505.0265 742.2783,-635.4045 754.1831,-628.2453 770.0092,-619.0836 792.4948,-607.6125 929.1931,-541.1379 933.6642,-483.8757 942.993,-405.5507 945.8511,-403.8858 946.4448,-274.551 946.3961,-273.8659 940.371,-233.2605 937.1686,-233.2605 936.6532,-233.1157 933.1985,-233.1157 932.4151,-233.9757 926.598,-237.3279 921.9597,-237.3279 916.2444,-234.0708 915.033,-232.7533 912.9022,-232.7533 909.3715,-266.0061 906.1421,-233.0086 902.7888,-233.0086 898.7066,-281.218 896.7411,-232.907 892.2805,-232.907 892.0254,-232.9786 887.8423,-232.9786 884.3444,-280.0479 884.3444,-280.0479 887.8423,-232.9786 892.0254,-232.9786 892.2805,-232.907 896.7411,-232.907 898.7066,-281.218 902.7888,-233.0086 906.1421,-233.0086 909.3715,-266.0061 912.9022,-232.7533 915.033,-232.7533 916.2444,-234.0708 921.9597,-237.3279 926.598,-237.3279 932.4151,-233.9757 933.1985,-233.1157 936.6532,-233.1157 937.1686,-233.2605 940.371,-233.2605 946.3961,-273.8659 946.4448,-274.551 945.8511,-403.8858 964.3537,-394.2165 971.5472,-390.8932 971.5472,-390.8932"/>
<polygon fill="#fed9a6" stroke="#fed9a6" points="575.3287,-87.7943 580.3099,-223.4342 580.5781,-226.3571 581.5084,-251.4149 581.8055,-282.1606 467.4454,-247.826 465.3178,-245.2039 461.5964,-243.8173 460.4254,-242.8683 457.7115,-242.8683 456.2691,-241.1554 451.6121,-238.4579 451.6121,-238.4579 456.2691,-241.1554 457.7115,-242.8683 460.4254,-242.8683 461.5964,-243.8173 465.3178,-245.2039 467.4454,-247.826 581.8055,-282.1606 585.8182,-391.4261 558.2977,-431.8112 535.8019,-462.7756 465.5098,-451.6001 462.6157,-451.2193 452.3452,-445.3964 433.5245,-435.7361 316.7678,-382.1212 259.7699,-391.1394 232.4772,-378.4766 229.0297,-376.9461 221.0069,-373.7017 208.9082,-369.5191 201.4266,-367.0801 189.558,-363.6793 171.3368,-359.1803 87.4936,-340.1715 68.1834,-328.5239 49.8318,-328.0683 28.7388,-327.9356 13.8349,-328.3953 18.033,-207.338 16.0259,-179.5437 21.1392,-175.7515 22.3443,-176.8852 26.3456,-178.0376 26.3456,-178.0376 22.3443,-176.8852 21.1392,-175.7515 20.0997,-171.5033 20.2631,-170.7481 20.5212,-170.5263 20.5212,-170.5263 20.2631,-170.7481 20.0997,-171.5033 21.1392,-175.7515 16.0259,-179.5437 18.033,-207.338 13.8349,-328.3953 -87.1303,-335.2503 -107.6647,-324.0917 -155.9498,-257.7138 -158.1711,-248.7241 -132.6307,-180.5779 -125.4511,-158.7298 -100.4365,-76.6692 -79.2782,-51.9255 2.3087,-38.5734 6.3644,-38.3979 27.4109,-37.0329 46.6809,-34.541 141.795,-20.2186 162.4352,-36.2662 173.4857,-38.857 188.7524,-42.2077 209.1212,-46.0617 224.1608,-47.7661 245.2551,-49.1995 352.5891,-54.8621 369.1424,-46.7222 417.4523,-58.7248 435.9945,-63.0311 452.2033,-66.2617 463.5763,-68.1518 465.1019,-68.38 464.7253,-199.4735 464.7253,-199.4735 465.1019,-68.38 572.3693,-80.8893 575.3287,-87.7943 575.3287,-87.7943"/>
<polyline fill="none" stroke="#000000" points="806.8376,155.7527 807.5796,156.0331 810.5647,154.4559 821.6431,148.8223 822.5645,148.3907 834.0964,143.2155 848.1476,137.1912 850.6624,136.2657 860.9055,132.699 875.3549,128.2446 878.4429,127.4171 899.2933,122.6583 957.7665,110.5008 1037.1854,31.801 1038.8616,14.3041 1037.8403,3.8666 1035.327,-28.7955 1033.5436,-80.2783 1104.0432,-151.5009 1124.3704,-179.9513 1119.9908,-215.737 1116.1349,-266.449 1113.7076,-312.8722 1026.7692,-369.1867 986.8644,-384.4256 971.5472,-390.8932 964.3537,-394.2165 945.8511,-403.8858 942.993,-405.5507 933.6642,-483.8757 929.1931,-541.1379 792.4948,-607.6125 770.0092,-619.0836 754.1831,-628.2453 742.2783,-635.4045 571.1644,-505.0265 549.61,-489.1456 535.8019,-462.7756 558.2977,-431.8112 585.8182,-391.4261 581.8055,-282.1606 581.5084,-251.4149 580.5781,-226.3571 580.3099,-223.4342 575.3287,-87.7943 572.3693,-80.8893 629.9163,-11.4702 636.0671,3.9074 657.3894,63.891 727.6411,130.9028 792.9175,150.9802 806.8376,155.7527 "/>
<polyline fill="none" stroke="#000000" points="201.4266,-367.0801 189.558,-363.6793 171.3368,-359.1803 87.4936,-340.1715 68.1834,-328.5239 49.8318,-328.0683 28.7388,-327.9356 13.8349,-328.3953 -87.1303,-335.2503 -107.6647,-324.0917 -155.9498,-257.7138 -158.1711,-248.7241 -132.6307,-180.5779 -125.4511,-158.7298 -100.4365,-76.6692 -79.2782,-51.9255 2.3087,-38.5734 6.3644,-38.3979 27.4109,-37.0329 46.6809,-34.541 141.795,-20.2186 162.4352,-36.2662 173.4857,-38.857 188.7524,-42.2077 209.1212,-46.0617 224.1608,-47.7661 245.2551,-49.1995 352.5891,-54.8621 369.1424,-46.7222 417.4523,-58.7248 435.9945,-63.0311 452.2033,-66.2617 463.5763,-68.1518 465.1019,-68.38 572.3693,-80.8893 575.3287,-87.7943 580.3099,-223.4342 580.5781,-226.3571 581.5084,-251.4149 581.8055,-282.1606 585.8182,-391.4261 558.2977,-431.8112 535.8019,-462.7756 465.5098,-451.6001 462.6157,-451.2193 452.3452,-445.3964 433.5245,-435.7361 316.7678,-382.1212 259.7699,-391.1394 232.4772,-378.4766 229.0297,-376.9461 221.0069,-373.7017 208.9082,-369.5191 201.4266,-367.0801 "/>
<!-- tomcat&#45;jsp&#45;2.3&#45;api&#45;&gt;tomcat&#45;el&#45;3.0&#45;api -->
<g id="edge1" class="edge">
<title>tomcat&#45;jsp&#45;2.3&#45;api&#45;&gt;tomcat&#45;el&#45;3.0&#45;api</title>
<path fill="none" stroke="#444444" stroke-opacity="0.333333" d="M813.5218,-102.7828C818.782,-87.0007 826.4326,-64.0466 832.4471,-46.0016"/>
<polygon fill="#444444" fill-opacity="0.333333" stroke="#444444" stroke-opacity="0.333333" points="835.8398,-46.8911 835.6814,-36.2974 829.1989,-44.6777 835.8398,-46.8911"/>
</g>
<!-- tomcat&#45;jsp&#45;2.3&#45;api&#45;&gt;tomcat&#45;servlet&#45;3.1&#45;api -->
<g id="edge2" class="edge">
<title>tomcat&#45;jsp&#45;2.3&#45;api&#45;&gt;tomcat&#45;servlet&#45;3.1&#45;api</title>
<path fill="none" stroke="#444444" stroke-opacity="0.333333" d="M826.4203,-139.4319C845.8742,-158.0091 876.2252,-186.9924 897.9752,-207.7624"/>
<polygon fill="#444444" fill-opacity="0.333333" stroke="#444444" stroke-opacity="0.333333" points="895.6285,-210.3609 905.2778,-214.7359 900.4629,-205.2984 895.6285,-210.3609"/>
</g>
<!-- tomcatjss&#45;&gt;jss -->
<g id="edge3" class="edge">
<title>tomcatjss&#45;&gt;jss</title>
<path fill="none" stroke="#444444" stroke-opacity="0.333333" d="M150.5469,-205.5915C122.1618,-198.138 89.0004,-189.4303 64.1845,-182.9141"/>
<polygon fill="#444444" fill-opacity="0.333333" stroke="#444444" stroke-opacity="0.333333" points="64.9978,-179.509 54.4367,-180.3545 63.2199,-186.2795 64.9978,-179.509"/>
</g>
<!-- tomcatjss&#45;&gt;tomcat -->
<g id="edge4" class="edge">
<title>tomcatjss&#45;&gt;tomcat</title>
<path fill="none" stroke="#444444" stroke-opacity="0.333333" d="M268.6413,-226.4713C307.4266,-230.0047 357.7372,-234.5879 395.2886,-238.0088"/>
<polygon fill="#444444" fill-opacity="0.333333" stroke="#444444" stroke-opacity="0.333333" points="395.2452,-241.5193 405.5215,-238.941 395.8803,-234.5482 395.2452,-241.5193"/>
</g>
<!-- tomcat&#45;&gt;tomcat&#45;lib -->
<g id="edge5" class="edge">
<title>tomcat&#45;&gt;tomcat&#45;lib</title>
<path fill="none" stroke="#444444" stroke-opacity="0.333333" d="M491.7688,-241.5823C533.6848,-240.3434 598.1333,-238.4386 648.3958,-236.953"/>
<polygon fill="#444444" fill-opacity="0.333333" stroke="#444444" stroke-opacity="0.333333" points="648.6779,-240.4463 658.5701,-236.6523 648.471,-233.4493 648.6779,-240.4463"/>
</g>
<!-- tomcat&#45;lib&#45;&gt;tomcat&#45;jsp&#45;2.3&#45;api -->
<g id="edge6" class="edge">
<title>tomcat&#45;lib&#45;&gt;tomcat&#45;jsp&#45;2.3&#45;api</title>
<path fill="none" stroke="#444444" stroke-opacity="0.333333" d="M736.7821,-216.5043C750.5757,-197.8887 772.1262,-168.8045 787.7886,-147.6667"/>
<polygon fill="#444444" fill-opacity="0.333333" stroke="#444444" stroke-opacity="0.333333" points="790.7501,-149.5489 793.8914,-139.4305 785.1258,-145.3815 790.7501,-149.5489"/>
</g>
<!-- tomcat&#45;lib&#45;&gt;tomcat&#45;el&#45;3.0&#45;api -->
<g id="edge7" class="edge">
<title>tomcat&#45;lib&#45;&gt;tomcat&#45;el&#45;3.0&#45;api</title>
<path fill="none" stroke="#444444" stroke-opacity="0.333333" d="M733.1703,-216.6337C753.9966,-178.5449 802.4343,-89.9583 826.9702,-45.0853"/>
<polygon fill="#444444" fill-opacity="0.333333" stroke="#444444" stroke-opacity="0.333333" points="830.0979,-46.6604 831.8246,-36.2072 823.9561,-43.3021 830.0979,-46.6604"/>
</g>
<!-- tomcat&#45;lib&#45;&gt;tomcat&#45;servlet&#45;3.1&#45;api -->
<g id="edge8" class="edge">
<title>tomcat&#45;lib&#45;&gt;tomcat&#45;servlet&#45;3.1&#45;api</title>
<path fill="none" stroke="#444444" stroke-opacity="0.333333" d="M787.9902,-234.1541C788.148,-234.1527 788.306,-234.1513 788.4641,-234.1498"/>
<polygon fill="#444444" fill-opacity="0.333333" stroke="#444444" stroke-opacity="0.333333" points="785.6949,-237.6752 795.6628,-234.0847 785.6315,-230.6755 785.6949,-237.6752"/>
</g>
<!-- tomcat&#45;lib&#45;&gt;ecj -->
<g id="edge9" class="edge">
<title>tomcat&#45;lib&#45;&gt;ecj</title>
<path fill="none" stroke="#444444" stroke-opacity="0.333333" d="M727.2234,-252.9432C735.6487,-291.7367 755.4216,-382.7799 765.4768,-429.0783"/>
<polygon fill="#444444" fill-opacity="0.333333" stroke="#444444" stroke-opacity="0.333333" points="762.097,-430.0079 767.6397,-439.0372 768.9376,-428.5222 762.097,-430.0079"/>
</g>
<!-- tomcat&#45;jsp&#45;2.3&#45;api -->
<g id="node1" class="node">
<title>tomcat&#45;jsp&#45;2.3&#45;api</title>
<text text-anchor="middle" x="807.37" y="-117.54" font-family="monospace" font-size="14.00" fill="#000000">tomcat&#45;jsp&#45;2.3&#45;api</text>
</g>
<!-- tomcat&#45;el&#45;3.0&#45;api -->
<g id="node2" class="node">
<title>tomcat&#45;el&#45;3.0&#45;api</title>
<text text-anchor="middle" x="841.78" y="-14.3" font-family="monospace" font-size="14.00" fill="#000000">tomcat&#45;el&#45;3.0&#45;api</text>
</g>
<!-- tomcat&#45;servlet&#45;3.1&#45;api -->
<g id="node3" class="node">
<title>tomcat&#45;servlet&#45;3.1&#45;api</title>
<text text-anchor="middle" x="924.32" y="-229.22" font-family="monospace" font-size="14.00" fill="#000000">tomcat&#45;servlet&#45;3.1&#45;api</text>
</g>
<!-- tomcatjss -->
<g id="node4" class="node">
<title>tomcatjss</title>
<text text-anchor="middle" x="209.57" y="-217.39" font-family="monospace" font-size="14.00" fill="#000000">tomcatjss</text>
</g>
<!-- jss -->
<g id="node5" class="node">
<title>jss</title>
<text text-anchor="middle" x="27" y="-169.45" font-family="monospace" font-size="14.00" fill="#000000">jss</text>
</g>
<!-- tomcat -->
<g id="node6" class="node">
<title>tomcat</title>
<text text-anchor="middle" x="448.54" y="-239.16" font-family="monospace" font-size="14.00" fill="#000000">tomcat</text>
</g>
<!-- tomcat&#45;lib -->
<g id="node7" class="node">
<title>tomcat&#45;lib</title>
<text text-anchor="middle" x="723.27" y="-231.04" font-family="monospace" font-size="14.00" fill="#000000">tomcat&#45;lib</text>
</g>
<!-- ecj -->
<g id="node8" class="node">
<title>ecj</title>
<text text-anchor="middle" x="771.58" y="-453.48" font-family="monospace" font-size="14.00" fill="#000000">ecj</text>
</g>
</g>
</svg>
