<?xml version="1.0" encoding="UTF-8" standalone="no"?>
<!DOCTYPE svg PUBLIC "-//W3C//DTD SVG 1.1//EN"
 "http://www.w3.org/Graphics/SVG/1.1/DTD/svg11.dtd">
<!-- Generated by graphviz version 2.40.1 (20161225.0304)
 -->
<!-- Title: G Pages: 1 -->
<svg width="657pt" height="601pt"
 viewBox="0.00 0.00 656.62 601.11" xmlns="http://www.w3.org/2000/svg" xmlns:xlink="http://www.w3.org/1999/xlink">
<g id="graph0" class="graph" transform="scale(1 1) rotate(0) translate(75.2387 519.7219)">
<title>G</title>
<polygon fill="#dae2ff" stroke="transparent" points="-75.2387,81.3847 -75.2387,-519.7219 581.3857,-519.7219 581.3857,81.3847 -75.2387,81.3847"/>
<polygon fill="#fbb4ae" stroke="#fbb4ae" points="87.9251,-10.3271 74.8532,-13.7205 61.3077,-16.5642 60.3802,-16.7357 -6.3144,-74.2964 -14.0511,-83.3072 -18.4751,-98.096 -47.0238,-125.69 -63.4044,-175.158 -71.2387,-194.8546 -69.4541,-200.4003 -14.4846,-194.7828 15.5236,-194.1783 19.9857,-189.0587 21.2793,-190.4282 24.4461,-191.9635 28.9361,-191.9635 28.9361,-191.9635 24.4461,-191.9635 27.4735,-238.195 21.1271,-244.247 63.1127,-249.0566 63.1127,-249.0566 21.1271,-244.247 27.4735,-238.195 24.4461,-191.9635 21.2793,-190.4282 19.9857,-189.0587 15.5236,-194.1783 -14.4846,-194.7828 -69.4541,-200.4003 -54.5534,-257.1329 -14.6538,-275.8863 46.6,-366.9055 52.8565,-361.6594 68.3965,-347.3866 72.1859,-343.5132 85.2026,-331.6165 86.6098,-330.4901 99.6327,-321.4197 104.2457,-318.4651 114.4042,-313.0684 114.9906,-312.79 120.5701,-310.4438 151.2445,-299.2269 159.2047,-295.8516 164.2707,-293.4152 173.349,-288.5348 175.0701,-287.4192 184.6085,-280.678 190.7341,-275.6509 187.6153,-267.6097 183.0349,-252.815 177.3011,-231.4522 173.1779,-213.068 170.9598,-206.6668 165.3441,-192.1876 200.3663,-145.2444 196.2608,-140.0344 187.2654,-130.1832 184.1898,-127.0949 181.8988,-124.9964 177.8377,-121.62 144.3867,-78.8397 144.3169,-78.7615 137.609,-72.1732 133.8558,-114.3043 133.8558,-114.3043 137.609,-72.1732 128.3762,-61.9974 126.2089,-59.3755 120.7441,-53.8125 115.8543,-47.9782 109.3724,-39.6554 97.7331,-22.5732 96.7667,-20.9848 91.8691,-121.2425 92.5021,-121.4098 93.8052,-123.1863 95.888,-124.7197 95.888,-124.7197 93.8052,-123.1863 92.5021,-121.4098 91.8691,-121.2425 96.7667,-20.9848 90.2367,-9.6135 87.9251,-10.3271 87.9251,-10.3271"/>
<polygon fill="#fed9a6" stroke="#fed9a6" points="486.047,-115.9367 486.5312,-116.2254 490.1653,-120.3361 576.5444,-138.1556 577.3857,-120.299 577.028,-118.8546 574.3261,-106.5293 571.9644,-94.1146 567.9249,-69.0047 560.8893,-57.8827 498.348,-14.0881 481.8932,-1.9523 473.0356,5.5171 472.7561,7.4544 472.4631,8.2209 452.2529,29.2512 407.8307,66.8404 360.386,66.0926 361.4963,-11.0414 357.4388,-14.7772 357.0657,-15.5819 354.3195,-18.3302 356.1442,-20.0247 356.3925,-20.1384 356.3925,-20.1384 356.1442,-20.0247 354.3195,-18.3302 357.0657,-15.5819 357.4388,-14.7772 361.4963,-11.0414 360.386,66.0926 353.9019,66.1867 352.0182,66.328 347.1714,66.839 335.1058,68.4791 326.2716,70.2144 329.844,-14.2028 325.0728,-17.8274 325.0021,-17.917 324.7328,-17.986 320.8667,-17.986 320.002,-18.2075 317.2888,-18.2075 313.2486,-44.7925 312.7967,-62.6206 306.9449,-57.7749 306.8676,-24.8876 266.0583,-22.2437 266.9398,-23.3309 275.6935,-31.8686 275.6935,-31.8686 266.9398,-23.3309 266.0583,-22.2437 306.8676,-24.8876 306.9449,-57.7749 312.7967,-62.6206 313.2486,-44.7925 317.2888,-18.2075 320.002,-18.2075 320.8667,-17.986 324.7328,-17.986 325.0021,-17.917 325.0728,-17.8274 329.844,-14.2028 326.2716,70.2144 325.0531,70.4903 320.2856,71.7142 307.1714,75.8814 303.8688,77.1293 273.6112,77.3848 262.5862,71.2111 236.822,45.5817 224.4669,26.9099 212.3688,22.0948 213.3069,-17.675 217.1831,-69.7029 218.5495,-69.7029 220.4266,-67.9575 220.4266,-67.9575 218.5495,-69.7029 217.1831,-69.7029 213.3069,-17.675 212.3688,22.0948 201.8764,18.5507 188.3977,15.2097 188.0603,15.1464 186.4246,14.8876 109.536,4.9912 90.7886,-9.0182 90.2367,-9.6135 96.7667,-20.9848 97.7331,-22.5732 109.3724,-39.6554 115.8543,-47.9782 120.7441,-53.8125 126.2089,-59.3755 128.3762,-61.9974 137.609,-72.1732 144.3169,-78.7615 144.3867,-78.8397 177.8377,-121.62 181.8988,-124.9964 184.1898,-127.0949 187.2654,-130.1832 196.2608,-140.0344 200.3663,-145.2444 165.3441,-192.1876 170.9598,-206.6668 173.1779,-213.068 177.3011,-231.4522 183.0349,-252.815 187.6153,-267.6097 190.7341,-275.6509 184.6085,-280.678 175.0701,-287.4192 173.349,-288.5348 164.2707,-293.4152 159.2047,-295.8516 151.2445,-299.2269 120.5701,-310.4438 114.9906,-312.79 114.4042,-313.0684 104.2457,-318.4651 99.6327,-321.4197 86.6098,-330.4901 85.2026,-331.6165 72.1859,-343.5132 68.3965,-347.3866 52.8565,-361.6594 46.6,-366.9055 44.4288,-397.2481 129.4796,-452.9518 149.0423,-459.8973 155.0509,-460.3758 156.6251,-391.3963 156.6251,-391.3963 155.0509,-460.3758 165.0921,-461.6603 165.8905,-461.7816 170.2425,-462.5486 190.8356,-483.3671 262.423,-511.7214 263.7121,-512.0095 266.3755,-428.219 195.1891,-432.331 200.0698,-426.9217 206.5967,-420.1988 206.5967,-420.1988 200.0698,-426.9217 195.1891,-432.331 266.3755,-428.219 263.7121,-512.0095 268.3248,-513.1848 271.3408,-423.9157 273.6122,-421.6846 272.8068,-420.8824 255.2935,-417.5804 232.5045,-418.7682 208.7539,-418.3109 214.5181,-412.3831 217.8775,-409.2383 217.8775,-409.2383 214.5181,-412.3831 208.7539,-418.3109 232.5045,-418.7682 255.2935,-417.5804 272.8068,-420.8824 273.6122,-421.6846 271.3408,-423.9157 268.3248,-513.1848 277.1923,-515.7219 282.1866,-514.7435 285.3412,-514.311 296.4762,-513.4312 309.7289,-513.1573 307.7986,-450.8017 309.7489,-428.5161 309.7489,-428.5161 307.7986,-450.8017 309.7289,-513.1573 323.1645,-513.6633 391.2749,-484.811 406.0258,-463.9888 412.6023,-451.3605 415.0097,-450.2373 420.0915,-448.1347 478.6846,-426.9292 501.605,-355.7489 507.9022,-337.9921 510.3896,-331.5392 513.389,-324.8296 506.2577,-275.2306 424.7466,-280.3945 419.2456,-280.4952 415.6306,-228.7537 411.3899,-224.9317 407.5315,-280.6118 404.4056,-280.5476 400.0795,-280.6673 404.8738,-337.7967 406.7099,-339.6312 405.2533,-341.0302 405.2533,-341.0302 406.7099,-339.6312 404.8738,-337.7967 400.0795,-280.6673 399.9672,-280.6653 398.0552,-280.5465 401.8422,-223.0365 402.8876,-221.8981 400.5905,-219.3218 396.9268,-217.396 396.9268,-217.396 400.5905,-219.3218 402.8876,-221.8981 401.8422,-223.0365 398.0552,-280.5465 399.9672,-280.6653 400.0795,-280.6673 404.4056,-280.5476 407.5315,-280.6118 411.3899,-224.9317 415.6306,-228.7537 419.2456,-280.4952 424.7466,-280.3945 506.2577,-275.2306 515.503,-252.6089 514.7541,-236.2709 514.7737,-216.375 576.4508,-142.8013 576.5444,-138.1556 490.1653,-120.3361 486.5312,-116.2254 486.047,-115.9367 484.5819,-114.3397 482.3874,-114.3397 476.589,-166.2759 476.4759,-163.6769 471.6008,-114.1656 467.8643,-114.1656 467.4455,-114.2684 464.5853,-114.2684 460.815,-146.5495 458.4045,-114.2832 455.1687,-114.2832 451.3458,-174.0256 449.8969,-173.4737 449.331,-159.2553 445.0282,-116.9289 441.6445,-118.5695 436.9271,-118.5695 432.259,-116.1354 432.2482,-163.3123 426.8333,-114.3533 422.5106,-114.3533 421.827,-114.1852 419.8671,-114.1852 418.9145,-113.9541 415.9068,-113.9541 414.6524,-114.2723 409.6095,-114.2723 408.4685,-113.9832 405.9496,-113.9832 403.6958,-154.6397 400.2176,-114.2764 396.8401,-114.2764 394.8627,-167.9717 394.7743,-167.9763 391.6834,-117.4045 387.6928,-121.0203 344.7733,-119.3081 322.7158,-120.8919 313.9519,-142.6795 279.0002,-141.0825 266.9586,-140.962 263.9568,-141.1469 263.8633,-149.2484 264.2144,-159.9997 268.1037,-204.272 268.1037,-204.272 264.2144,-159.9997 263.8633,-149.2484 263.9568,-141.1469 266.9586,-140.962 279.0002,-141.0825 313.9519,-142.6795 322.7158,-120.8919 344.7733,-119.3081 387.6928,-121.0203 391.6834,-117.4045 394.7743,-167.9763 394.8627,-167.9717 396.8401,-114.2764 400.2176,-114.2764 403.6958,-154.6397 405.9496,-113.9832 408.4685,-113.9832 409.6095,-114.2723 414.6524,-114.2723 415.9068,-113.9541 418.9145,-113.9541 419.8671,-114.1852 421.827,-114.1852 422.5106,-114.3533 426.8333,-114.3533 432.2482,-163.3123 432.259,-116.1354 436.9271,-118.5695 441.6445,-118.5695 445.0282,-116.9289 447.7903,-114.1115 445.0746,-111.384 441.3303,-109.5879 441.3303,-109.5879 445.0746,-111.384 447.7903,-114.1115 445.0282,-116.9289 449.331,-159.2553 449.8969,-173.4737 451.3458,-174.0256 455.1687,-114.2832 458.4045,-114.2832 460.815,-146.5495 464.5853,-114.2684 467.4455,-114.2684 467.8643,-114.1656 471.6008,-114.1656 476.4759,-163.6769 476.589,-166.2759 482.3874,-114.3397 484.5819,-114.3397 486.047,-115.9367 486.047,-115.9367"/>
<polyline fill="none" stroke="#000000" points="86.6098,-330.4901 99.6327,-321.4197 104.2457,-318.4651 114.4042,-313.0684 114.9906,-312.79 120.5701,-310.4438 151.2445,-299.2269 159.2047,-295.8516 164.2707,-293.4152 173.349,-288.5348 175.0701,-287.4192 184.6085,-280.678 190.7341,-275.6509 187.6153,-267.6097 183.0349,-252.815 177.3011,-231.4522 173.1779,-213.068 170.9598,-206.6668 165.3441,-192.1876 200.3663,-145.2444 196.2608,-140.0344 187.2654,-130.1832 184.1898,-127.0949 181.8988,-124.9964 177.8377,-121.62 144.3867,-78.8397 144.3169,-78.7615 137.609,-72.1732 128.3762,-61.9974 126.2089,-59.3755 120.7441,-53.8125 115.8543,-47.9782 109.3724,-39.6554 97.7331,-22.5732 96.7667,-20.9848 90.2367,-9.6135 87.9251,-10.3271 74.8532,-13.7205 61.3077,-16.5642 60.3802,-16.7357 -6.3144,-74.2964 -14.0511,-83.3072 -18.4751,-98.096 -47.0238,-125.69 -63.4044,-175.158 -71.2387,-194.8546 -69.4541,-200.4003 -54.5534,-257.1329 -14.6538,-275.8863 46.6,-366.9055 52.8565,-361.6594 68.3965,-347.3866 72.1859,-343.5132 85.2026,-331.6165 86.6098,-330.4901 "/>
<polyline fill="none" stroke="#000000" points="165.3441,-192.1876 200.3663,-145.2444 196.2608,-140.0344 187.2654,-130.1832 184.1898,-127.0949 181.8988,-124.9964 177.8377,-121.62 144.3867,-78.8397 144.3169,-78.7615 137.609,-72.1732 128.3762,-61.9974 126.2089,-59.3755 120.7441,-53.8125 115.8543,-47.9782 109.3724,-39.6554 97.7331,-22.5732 96.7667,-20.9848 90.2367,-9.6135 90.7886,-9.0182 109.536,4.9912 186.4246,14.8876 188.0603,15.1464 188.3977,15.2097 201.8764,18.5507 212.3688,22.0948 224.4669,26.9099 236.822,45.5817 262.5862,71.2111 273.6112,77.3848 303.8688,77.1293 307.1714,75.8814 320.2856,71.7142 325.0531,70.4903 326.2716,70.2144 335.1058,68.4791 347.1714,66.839 352.0182,66.328 353.9019,66.1867 360.386,66.0926 407.8307,66.8404 452.2529,29.2512 472.4631,8.2209 472.7561,7.4544 473.0356,5.5171 481.8932,-1.9523 498.348,-14.0881 560.8893,-57.8827 567.9249,-69.0047 571.9644,-94.1146 574.3261,-106.5293 577.028,-118.8546 577.3857,-120.299 576.5444,-138.1556 576.4508,-142.8013 514.7737,-216.375 514.7541,-236.2709 515.503,-252.6089 506.2577,-275.2306 513.389,-324.8296 510.3896,-331.5392 507.9022,-337.9921 501.605,-355.7489 478.6846,-426.9292 420.0915,-448.1347 415.0097,-450.2373 412.6023,-451.3605 406.0258,-463.9888 391.2749,-484.811 323.1645,-513.6633 309.7289,-513.1573 296.4762,-513.4312 285.3412,-514.311 282.1866,-514.7435 277.1923,-515.7219 268.3248,-513.1848 263.7121,-512.0095 262.423,-511.7214 190.8356,-483.3671 170.2425,-462.5486 165.8905,-461.7816 165.0921,-461.6603 155.0509,-460.3758 149.0423,-459.8973 129.4796,-452.9518 44.4288,-397.2481 46.6,-366.9055 52.8565,-361.6594 68.3965,-347.3866 72.1859,-343.5132 85.2026,-331.6165 86.6098,-330.4901 99.6327,-321.4197 104.2457,-318.4651 114.4042,-313.0684 114.9906,-312.79 120.5701,-310.4438 151.2445,-299.2269 159.2047,-295.8516 164.2707,-293.4152 173.349,-288.5348 175.0701,-287.4192 184.6085,-280.678 190.7341,-275.6509 187.6153,-267.6097 183.0349,-252.815 177.3011,-231.4522 173.1779,-213.068 170.9598,-206.6668 165.3441,-192.1876 "/>
<!-- apr&#45;util&#45;&gt;apr -->
<g id="edge1" class="edge">
<title>apr&#45;util&#45;&gt;apr</title>
<path fill="none" stroke="#444444" stroke-opacity="0.333333" d="M76.8598,-235.9149C69.5994,-228.8605 61.1595,-220.6601 53.3107,-213.034"/>
<polygon fill="#444444" fill-opacity="0.333333" stroke="#444444" stroke-opacity="0.333333" points="55.3356,-210.1215 45.7245,-205.6631 50.4576,-215.142 55.3356,-210.1215"/>
</g>
<!-- httpd&#45;&gt;apr&#45;util -->
<g id="edge2" class="edge">
<title>httpd&#45;&gt;apr&#45;util</title>
<path fill="none" stroke="#444444" stroke-opacity="0.333333" d="M213.7399,-221.7816C197.4734,-226.2359 177.989,-231.5713 159.579,-236.6125"/>
<polygon fill="#444444" fill-opacity="0.333333" stroke="#444444" stroke-opacity="0.333333" points="158.5025,-233.2784 149.7819,-239.2953 160.3513,-240.0298 158.5025,-233.2784"/>
</g>
<!-- httpd&#45;&gt;apr -->
<g id="edge3" class="edge">
<title>httpd&#45;&gt;apr</title>
<path fill="none" stroke="#444444" stroke-opacity="0.333333" d="M213.8988,-207.4363C172.2484,-202.9868 105.4916,-195.8552 64.0515,-191.4282"/>
<polygon fill="#444444" fill-opacity="0.333333" stroke="#444444" stroke-opacity="0.333333" points="64.4073,-187.9464 54.092,-190.3642 63.6636,-194.9068 64.4073,-187.9464"/>
</g>
<!-- httpd&#45;&gt;fedora&#45;logos&#45;httpd -->
<g id="edge4" class="edge">
<title>httpd&#45;&gt;fedora&#45;logos&#45;httpd</title>
<path fill="none" stroke="#444444" stroke-opacity="0.333333" d="M286.296,-193.3822C316.9813,-177.4627 361.8302,-154.195 394.9836,-136.995"/>
<polygon fill="#444444" fill-opacity="0.333333" stroke="#444444" stroke-opacity="0.333333" points="396.7382,-140.0278 404.0029,-132.3158 393.5145,-133.8142 396.7382,-140.0278"/>
</g>
<!-- httpd&#45;&gt;httpd&#45;filesystem -->
<g id="edge5" class="edge">
<title>httpd&#45;&gt;httpd&#45;filesystem</title>
<path fill="none" stroke="#444444" stroke-opacity="0.333333" d="M248.3893,-193.2705C244.3132,-169.2175 237.0867,-126.5733 232.3016,-98.3365"/>
<polygon fill="#444444" fill-opacity="0.333333" stroke="#444444" stroke-opacity="0.333333" points="235.7206,-97.5634 230.5989,-88.2887 228.819,-98.733 235.7206,-97.5634"/>
</g>
<!-- httpd&#45;&gt;httpd&#45;tools -->
<g id="edge6" class="edge">
<title>httpd&#45;&gt;httpd&#45;tools</title>
<path fill="none" stroke="#444444" stroke-opacity="0.333333" d="M221.1355,-193.2716C197.973,-179.3911 165.8725,-160.1543 140.764,-145.1076"/>
<polygon fill="#444444" fill-opacity="0.333333" stroke="#444444" stroke-opacity="0.333333" points="142.2362,-141.9096 131.8594,-139.7714 138.638,-147.914 142.2362,-141.9096"/>
</g>
<!-- httpd&#45;&gt;mailcap -->
<g id="edge7" class="edge">
<title>httpd&#45;&gt;mailcap</title>
<path fill="none" stroke="#444444" stroke-opacity="0.333333" d="M289.3284,-214.1885C303.617,-215.222 320.2231,-216.4232 335.9468,-217.5606"/>
<polygon fill="#444444" fill-opacity="0.333333" stroke="#444444" stroke-opacity="0.333333" points="335.8924,-221.0657 346.1189,-218.2964 336.3975,-214.084 335.8924,-221.0657"/>
</g>
<!-- httpd&#45;&gt;mod_http2 -->
<g id="edge8" class="edge">
<title>httpd&#45;&gt;mod_http2</title>
<path fill="none" stroke="#444444" stroke-opacity="0.333333" d="M263.9695,-193.1692C281.8848,-159.1292 313.3316,-85.9668 327.4856,-45.7851"/>
<polygon fill="#444444" fill-opacity="0.333333" stroke="#444444" stroke-opacity="0.333333" points="330.8766,-46.6834 330.7684,-36.0891 324.2463,-44.4385 330.8766,-46.6834"/>
</g>
<!-- httpd&#45;tools&#45;&gt;apr&#45;util -->
<g id="edge9" class="edge">
<title>httpd&#45;tools&#45;&gt;apr&#45;util</title>
<path fill="none" stroke="#444444" stroke-opacity="0.333333" d="M100.7534,-139.7671C99.7554,-161.9452 98.0552,-199.7266 96.8838,-225.7579"/>
<polygon fill="#444444" fill-opacity="0.333333" stroke="#444444" stroke-opacity="0.333333" points="93.3861,-225.6296 96.4329,-235.7768 100.379,-225.9443 93.3861,-225.6296"/>
</g>
<!-- httpd&#45;tools&#45;&gt;apr -->
<g id="edge10" class="edge">
<title>httpd&#45;tools&#45;&gt;apr</title>
<path fill="none" stroke="#444444" stroke-opacity="0.333333" d="M80.7981,-139.9629C72.8134,-147.0139 63.5625,-155.183 55.0075,-162.7376"/>
<polygon fill="#444444" fill-opacity="0.333333" stroke="#444444" stroke-opacity="0.333333" points="52.5818,-160.2103 47.4028,-169.4531 57.2153,-165.4573 52.5818,-160.2103"/>
</g>
<!-- mod_http2&#45;&gt;httpd -->
<g id="edge11" class="edge">
<title>mod_http2&#45;&gt;httpd</title>
<path fill="none" stroke="#444444" stroke-opacity="0.333333" d="M321.6705,-36.2808C303.7552,-70.3208 272.3084,-143.4832 258.1544,-183.6649"/>
<polygon fill="#444444" fill-opacity="0.333333" stroke="#444444" stroke-opacity="0.333333" points="254.7634,-182.7666 254.8716,-193.3609 261.3937,-185.0115 254.7634,-182.7666"/>
</g>
<!-- mod_nss&#45;&gt;httpd -->
<g id="edge12" class="edge">
<title>mod_nss&#45;&gt;httpd</title>
<path fill="none" stroke="#444444" stroke-opacity="0.333333" d="M284.7673,-403.3365C278.3794,-366.5239 263.931,-283.2604 256.3391,-239.5096"/>
<polygon fill="#444444" fill-opacity="0.333333" stroke="#444444" stroke-opacity="0.333333" points="259.7676,-238.796 254.6094,-229.5416 252.8707,-239.9928 259.7676,-238.796"/>
</g>
<!-- mod_session&#45;&gt;httpd -->
<g id="edge13" class="edge">
<title>mod_session&#45;&gt;httpd</title>
<path fill="none" stroke="#444444" stroke-opacity="0.333333" d="M195.5145,-336.2079C206.4786,-311.7625 226.128,-267.9524 238.9814,-239.2945"/>
<polygon fill="#444444" fill-opacity="0.333333" stroke="#444444" stroke-opacity="0.333333" points="242.3201,-240.403 243.219,-229.8464 235.9331,-237.5383 242.3201,-240.403"/>
</g>
<!-- mod_wsgi&#45;&gt;httpd -->
<g id="edge14" class="edge">
<title>mod_wsgi&#45;&gt;httpd</title>
<path fill="none" stroke="#444444" stroke-opacity="0.333333" d="M376.913,-321.3822C351.6119,-299.2096 308.5715,-261.4911 280.0789,-236.5215"/>
<polygon fill="#444444" fill-opacity="0.333333" stroke="#444444" stroke-opacity="0.333333" points="282.2827,-233.7989 272.4551,-229.8404 277.6691,-239.0635 282.2827,-233.7989"/>
</g>
<!-- apr&#45;util -->
<g id="node1" class="node">
<title>apr&#45;util</title>
<text text-anchor="middle" x="95.607" y="-250.43" font-family="monospace" font-size="14.00" fill="#000000">apr&#45;util</text>
</g>
<!-- apr -->
<g id="node2" class="node">
<title>apr</title>
<text text-anchor="middle" x="27" y="-183.77" font-family="monospace" font-size="14.00" fill="#000000">apr</text>
</g>
<!-- httpd -->
<g id="node3" class="node">
<title>httpd</title>
<text text-anchor="middle" x="251.47" y="-207.75" font-family="monospace" font-size="14.00" fill="#000000">httpd</text>
</g>
<!-- fedora&#45;logos&#45;httpd -->
<g id="node4" class="node">
<title>fedora&#45;logos&#45;httpd</title>
<text text-anchor="middle" x="438.96" y="-110.48" font-family="monospace" font-size="14.00" fill="#000000">fedora&#45;logos&#45;httpd</text>
</g>
<!-- httpd&#45;filesystem -->
<g id="node5" class="node">
<title>httpd&#45;filesystem</title>
<text text-anchor="middle" x="227.53" y="-66.479" font-family="monospace" font-size="14.00" fill="#000000">httpd&#45;filesystem</text>
</g>
<!-- httpd&#45;tools -->
<g id="node6" class="node">
<title>httpd&#45;tools</title>
<text text-anchor="middle" x="101.57" y="-117.92" font-family="monospace" font-size="14.00" fill="#000000">httpd&#45;tools</text>
</g>
<!-- mailcap -->
<g id="node7" class="node">
<title>mailcap</title>
<text text-anchor="middle" x="394.14" y="-218.07" font-family="monospace" font-size="14.00" fill="#000000">mailcap</text>
</g>
<!-- mod_http2 -->
<g id="node8" class="node">
<title>mod_http2</title>
<text text-anchor="middle" x="334.17" y="-14.3" font-family="monospace" font-size="14.00" fill="#000000">mod_http2</text>
</g>
<!-- mod_nss -->
<g id="node9" class="node">
<title>mod_nss</title>
<text text-anchor="middle" x="287.94" y="-417.92" font-family="monospace" font-size="14.00" fill="#000000">mod_nss</text>
</g>
<!-- mod_session -->
<g id="node10" class="node">
<title>mod_session</title>
<text text-anchor="middle" x="187.4" y="-350.6" font-family="monospace" font-size="14.00" fill="#000000">mod_session</text>
</g>
<!-- mod_wsgi -->
<g id="node11" class="node">
<title>mod_wsgi</title>
<text text-anchor="middle" x="397.53" y="-335.75" font-family="monospace" font-size="14.00" fill="#000000">mod_wsgi</text>
</g>
</g>
</svg>
