<?xml version="1.0" encoding="UTF-8" standalone="no"?>
<!DOCTYPE svg PUBLIC "-//W3C//DTD SVG 1.1//EN"
 "http://www.w3.org/Graphics/SVG/1.1/DTD/svg11.dtd">
<!-- Generated by graphviz version 2.40.1 (20161225.0304)
 -->
<!-- Title: G Pages: 1 -->
<svg width="1851pt" height="1423pt"
 viewBox="0.00 0.00 1850.86 1422.54" xmlns="http://www.w3.org/2000/svg" xmlns:xlink="http://www.w3.org/1999/xlink">
<g id="graph0" class="graph" transform="scale(1 1) rotate(0) translate(116.7003 1250.6749)">
<title>G</title>
<polygon fill="#dae2ff" stroke="transparent" points="-116.7003,171.8674 -116.7003,-1250.6749 1734.156,-1250.6749 1734.156,171.8674 -116.7003,171.8674"/>
<polygon fill="#fed9a6" stroke="#fed9a6" points="631.4608,-1236.4259 651.6246,-1233.6741 671.1178,-1231.7444 739.5132,-1206.5626 778.0101,-1168.4935 804.0076,-1096.4113 826.2631,-1041.5957 827.3433,-1039.0615 832.4631,-952.8911 841.6812,-937.4271 832.6154,-908.0938 629.7395,-869.4539 626.5712,-865.7626 624.0142,-864.7122 622.9556,-863.7902 619.3549,-863.7902 615.9399,-817.9238 612.7987,-862.3497 608.256,-859.6654 602.1207,-859.6654 597.6451,-862.2896 596.3129,-863.9199 597.0123,-864.7977 597.0123,-864.7977 596.3129,-863.9199 591.7143,-863.9199 591.4758,-863.9937 588.3171,-863.9937 588.3171,-863.9937 591.4758,-863.9937 591.7143,-863.9199 596.3129,-863.9199 597.6451,-862.2896 602.1207,-859.6654 608.256,-859.6654 612.7987,-862.3497 615.9399,-817.9238 619.3549,-863.7902 622.9556,-863.7902 624.0142,-864.7122 626.5712,-865.7626 629.7395,-869.4539 832.6154,-908.0938 821.6507,-870.6326 810.1597,-858.7935 796.3972,-845.4472 788.7767,-837.495 714.6321,-797.4188 711.3004,-795.7319 692.1693,-787.3262 628.0657,-763.622 627.2006,-825.9716 627.2006,-825.9716 628.0657,-763.622 615.8281,-758.2568 607.828,-754.2036 605.881,-754.623 591.0525,-756.9918 585.1891,-757.6003 570.9786,-758.2853 562.4925,-753.8186 551.7604,-748.9401 538.8651,-744.4493 537.4721,-744.014 523.3868,-740.1108 484.7213,-730.8023 484.5882,-777.1073 484.5882,-777.1073 484.7213,-730.8023 479.9122,-729.3009 470.2698,-725.9411 468.9499,-786.1897 464.8339,-818.2705 466.7149,-820.5616 465.4537,-822.0731 460.7536,-824.8301 460.7536,-824.8301 465.4537,-822.0731 466.7149,-820.5616 464.8339,-818.2705 460.7285,-815.9515 460.7285,-815.9515 464.8339,-818.2705 468.9499,-786.1897 470.2698,-725.9411 456.7094,-720.2374 447.3239,-715.621 442.0924,-712.8629 437.3533,-710.1971 423.0959,-701.1512 350.0734,-652.29 330.3743,-640.5194 280.2711,-640.8901 271.5782,-637.8074 264.0874,-634.8609 241.5308,-625.1022 235.8874,-622.5154 235.7907,-622.4686 228.4126,-628.65 211.5402,-642.1711 207.1937,-645.4135 202.2547,-873.9189 202.4227,-873.9669 206.8231,-873.9669 207.4061,-874.1379 212.632,-874.1379 212.632,-874.1379 207.4061,-874.1379 206.8231,-873.9669 202.4227,-873.9669 202.2547,-873.9189 207.1937,-645.4135 195.3454,-654.0374 170.1111,-671.4782 130.3946,-698.1547 53.4564,-807.8278 37.1777,-865.6328 33.2318,-878.624 26.2685,-898.655 68.5704,-988.4744 101.1604,-1013.892 111.4898,-1034.0437 150.4521,-1114.1221 169.8506,-1135.1532 226.3382,-1163.0344 259.0786,-1157.9144 260.3813,-1157.7538 272.9359,-1156.413 282.6556,-1155.536 295.0097,-1154.8318 302.8156,-1154.5166 302.714,-1080.7787 299.5831,-1032.2119 299.5831,-1032.2119 302.714,-1080.7787 304.6776,-1048.9565 304.6776,-1048.9565 302.714,-1080.7787 302.8156,-1154.5166 319.6898,-1154.955 330.4337,-1155.5903 328.9063,-1041.0436 331.297,-991.3461 332.3579,-990.1304 330.5475,-988.1008 326.1125,-985.6857 326.1125,-985.6857 330.5475,-988.1008 332.3579,-990.1304 331.297,-991.3461 328.9063,-1041.0436 330.4337,-1155.5903 336.4233,-1156.1429 363.3478,-1159.9718 363.2652,-1151.2898 363.6539,-1099.0734 372.8601,-990.5049 376.5013,-990.5049 381.4986,-1047.1567 381.4986,-1047.1567 376.5013,-990.5049 372.8601,-990.5049 363.6539,-1099.0734 363.2652,-1151.2898 363.3478,-1159.9718 384.7296,-1164.7833 438.6622,-1179.5935 444.4847,-1178.6622 562.4498,-1246.6749 591.5247,-1245.4103 611.845,-1240.3669 616.3439,-1239.3342 631.4608,-1236.4259 632.0663,-1178.0166 634.1882,-1125.439 639.3205,-1080.0251 639.8054,-1079.4712 639.126,-1078.6997 633.0867,-1075.0818 633.0867,-1075.0818 639.126,-1078.6997 639.8054,-1079.4712 639.3205,-1080.0251 634.1882,-1125.439 632.0663,-1178.0166 631.4608,-1236.4259 631.4608,-1236.4259"/>
<polygon fill="#fbb4ae" stroke="#fbb4ae" points="835.592,-93.825 843.1517,-94.9723 859.3737,-97.2066 1012.3459,-241.7248 980.3372,-299.58 934.0645,-397.9005 928.5626,-408.9056 917.233,-430.3297 843.4423,-428.3013 842.0137,-428.2941 840.5507,-428.2536 836.1177,-428.2307 824.4402,-445.824 819.8075,-452.4171 810.4384,-464.2639 802.7115,-473.4104 786.239,-494.5905 753.5146,-547.0964 748.1333,-554.778 736.1996,-570.1425 725.3903,-582.9379 721.4889,-588.1899 720.5463,-588.1909 711.0995,-587.9183 711.7845,-527.9036 715.6467,-488.7935 716.0045,-488.3817 714.4263,-486.4831 709.47,-483.593 709.47,-483.593 714.4263,-486.4831 716.0045,-488.3817 715.6467,-488.7935 709.1175,-492.7775 704.2377,-492.7775 698.7281,-489.5015 697.6885,-488.265 693.6818,-488.265 693.6323,-488.2499 693.6323,-488.2499 693.6818,-488.265 697.6885,-488.265 698.7281,-489.5015 704.2377,-492.7775 709.1175,-492.7775 715.6467,-488.7935 711.7845,-527.9036 711.0995,-587.9183 704.2427,-588.1264 701.2579,-588.1281 701.091,-588.1182 698.7095,-588.0483 693.5414,-588.049 690.5391,-587.9601 650.829,-589.129 635.8524,-640.3529 629.1724,-674.3588 628.1482,-681.4442 626.2722,-691.1196 607.828,-754.2036 605.881,-754.623 591.0525,-756.9918 585.1891,-757.6003 570.9786,-758.2853 562.4925,-753.8186 551.7604,-748.9401 551.5156,-735.6893 555.9335,-652.9706 556.5458,-652.2309 555.7405,-651.271 550.0922,-647.8428 550.0922,-647.8428 555.7405,-651.271 556.5458,-652.2309 555.9335,-652.9706 551.5156,-735.6893 551.7604,-748.9401 538.8651,-744.4493 537.4721,-744.014 523.3868,-740.1108 484.7213,-730.8023 479.9122,-729.3009 470.2698,-725.9411 456.7094,-720.2374 447.3239,-715.621 442.0924,-712.8629 437.3533,-710.1971 423.0959,-701.1512 350.0734,-652.29 330.3743,-640.5194 280.2711,-640.8901 271.5782,-637.8074 264.0874,-634.8609 241.5308,-625.1022 235.8874,-622.5154 235.7907,-622.4686 229.4907,-599.4396 223.6585,-563.7126 208.6508,-547.1458 55.5219,-386.801 54.8781,-386.6812 38.3973,-384.1902 -112.7003,-364.0001 -109.9876,-242.026 -111.1206,-173.4687 -112.0868,-146.468 -22.747,-47.7865 42.2862,-25.905 50.0753,-23.0297 63.3647,-29.9789 70.4447,-33.417 88.2043,-41.3847 98.0345,-45.2441 98.6213,-143.245 96.1525,-215.7474 91.5235,-214.409 85.5283,-216.2851 81.9505,-219.603 85.5697,-222.7196 90.5661,-224.1636 90.5661,-224.1636 85.5697,-222.7196 81.9505,-219.603 85.5283,-216.2851 91.5235,-214.409 96.1525,-215.7474 99.9604,-219.117 101.8245,-219.117 100.1866,-334.3297 98.6194,-335.8818 87.0704,-348.5158 79.1007,-357.6346 76.9342,-360.3315 210.039,-339.0346 213.1192,-335.7108 215.9924,-334.756 217.5096,-333.5972 215.9132,-331.1485 215.9132,-331.1485 217.5096,-333.5972 215.9924,-334.756 213.1192,-335.7108 210.039,-339.0346 76.9342,-360.3315 79.1007,-357.6346 87.0704,-348.5158 98.6194,-335.8818 100.1866,-334.3297 101.8245,-219.117 99.9604,-219.117 96.1525,-215.7474 98.6213,-143.245 98.0345,-45.2441 117.6197,-52.2081 106.4538,-219.0319 106.5327,-219.0556 109.6546,-272.8129 112.9303,-219.3479 117.5354,-219.3479 117.559,-219.3552 118.5785,-264.7274 115.7645,-319.9028 129.0783,-308.5633 138.752,-300.8678 138.752,-300.8678 129.0783,-308.5633 115.7645,-319.9028 118.5785,-264.7274 117.559,-219.3552 117.5354,-219.3479 112.9303,-219.3479 109.6546,-272.8129 106.5327,-219.0556 106.4538,-219.0319 117.6197,-52.2081 119.9549,-52.9942 120.0144,-53.0131 134.392,-56.7875 143.2029,-58.937 324.6755,-120.095 277.3712,-180.6759 277.4156,-285.7 280.2931,-327.1422 291.8031,-329.4702 419.5507,-312.9825 419.5507,-312.9825 291.8031,-329.4702 280.2931,-327.1422 277.4156,-285.7 277.3712,-180.6759 324.6755,-120.095 374.8626,-113.2304 378.497,-99.1333 408.2947,-18 431.5988,56.7788 557.8566,145.3954 565.4459,149.5104 584.5021,153.2358 593.1658,155.0787 608.3553,158.5705 613.4541,159.9159 615.0982,18.2237 612.3573,-13.4484 607.4617,-13.4484 601.4792,-17.0158 600.7662,-17.8347 602.0477,-19.3606 607.0443,-22.3255 607.0443,-22.3255 602.0477,-19.3606 600.7662,-17.8347 601.4792,-17.0158 607.4617,-13.4484 612.3573,-13.4484 615.0982,18.2237 613.4541,159.9159 624.8476,163.3129 634.8412,166.4628 639.071,167.8674 729.5616,130.4026 770.7059,24.1335 798.2455,-42.6612 820.2614,-91.0219 823.574,-91.7104 821.8922,-257.1894 824.8737,-299.5926 819.1785,-299.5926 818.0796,-299.2534 814.2855,-299.2534 808.5438,-235.9587 808.0798,-296.3781 802.8533,-294.7879 796.4491,-296.7678 793.578,-299.2075 789.0906,-274.625 785.3036,-299.3239 782.0729,-299.3239 773.9725,-211.5621 772.8298,-164.4392 766.5248,-173.4359 765.0914,-294.7136 768.8812,-299.3544 683.9525,-301.6787 661.2565,-334.5489 645.6658,-355.7445 644.2385,-357.869 641.8618,-358.2515 641.1865,-358.3747 641.1178,-358.3887 626.9476,-361.5901 606.0251,-367.2247 600.3564,-368.8712 487.1569,-304.1784 466.2894,-291.2128 465.3337,-290.5964 461.1052,-287.7673 460.6632,-406.6989 457.537,-454.6312 452.5684,-454.6312 446.4752,-458.2913 445.6852,-459.1995 442.4786,-459.1995 442.4786,-459.1995 445.6852,-459.1995 446.5845,-460.2245 452.03,-463.4427 452.03,-463.4427 446.5845,-460.2245 445.6852,-459.1995 446.4752,-458.2913 452.5684,-454.6312 457.537,-454.6312 460.6632,-406.6989 461.1052,-287.7673 465.3337,-290.5964 466.2894,-291.2128 487.1569,-304.1784 600.3564,-368.8712 606.0251,-367.2247 626.9476,-361.5901 641.1178,-358.3887 641.1865,-358.3747 641.8618,-358.2515 644.2385,-357.869 645.6658,-355.7445 661.2565,-334.5489 683.9525,-301.6787 768.8812,-299.3544 765.0914,-294.7136 766.5248,-173.4359 772.8298,-164.4392 773.9725,-211.5621 782.0729,-299.3239 785.3036,-299.3239 789.0906,-274.625 793.578,-299.2075 796.4491,-296.7678 802.8533,-294.7879 808.0798,-296.3781 811.8173,-299.8056 807.939,-303.1885 803.0977,-304.5703 803.0977,-304.5703 807.939,-303.1885 811.8173,-299.8056 808.0798,-296.3781 808.5438,-235.9587 814.2855,-299.2534 818.0796,-299.2534 819.1785,-299.5926 824.8737,-299.5926 821.8922,-257.1894 823.574,-91.7104 832.306,-93.2804 835.592,-93.825 835.592,-93.825"/>
<polygon fill="#bbd7d9" stroke="#bbd7d9" points="626.2722,-691.1196 628.1482,-681.4442 629.1724,-674.3588 635.8524,-640.3529 650.829,-589.129 690.5391,-587.9601 693.5414,-588.049 698.7095,-588.0483 701.091,-588.1182 701.2579,-588.1281 704.2427,-588.1264 711.0995,-587.9183 720.5463,-588.1909 721.4889,-588.1899 725.3903,-582.9379 736.1996,-570.1425 748.1333,-554.778 753.5146,-547.0964 786.239,-494.5905 802.7115,-473.4104 810.4384,-464.2639 819.8075,-452.4171 824.4402,-445.824 836.1177,-428.2307 840.5507,-428.2536 842.0137,-428.2941 833.4878,-551.7191 890.0706,-538.0051 917.6772,-431.1247 927.973,-439.9026 935.0866,-575.983 884.3361,-569.2645 881.8433,-587.8578 903.6485,-586.4144 934.6995,-587.6437 936.7516,-615.3773 941.5171,-581.7531 944.9715,-581.7531 944.9715,-581.7531 941.5171,-581.7531 936.7516,-615.3773 934.6995,-587.6437 903.6485,-586.4144 881.8433,-587.8578 884.3361,-569.2645 935.0866,-575.983 927.973,-439.9026 917.6772,-431.1247 890.0706,-538.0051 833.4878,-551.7191 842.0137,-428.2941 843.4423,-428.3013 917.233,-430.3297 928.5626,-408.9056 934.0645,-397.9005 980.3372,-299.58 1012.3459,-241.7248 1050.3328,-240.6788 1057.9485,-240.3485 1075.7593,-247.7877 1081.1316,-249.8261 1098.3383,-255.7048 1101.3488,-256.6181 1101.291,-415.6689 1095.9701,-415.6689 1089.8545,-419.4091 1089.1879,-420.1864 1085.9825,-420.1864 1085.9393,-420.1736 1085.9393,-420.1736 1085.9825,-420.1864 1089.1879,-420.1864 1089.6276,-420.6907 1095.8191,-424.4689 1101.3439,-424.4689 1101.3439,-424.4689 1095.8191,-424.4689 1089.6276,-420.6907 1089.1879,-420.1864 1089.8545,-419.4091 1095.9701,-415.6689 1101.291,-415.6689 1101.3488,-256.6181 1106.8829,-258.1924 1120.4545,-261.5417 1131.3612,-263.8203 1239.0752,-282.2441 1245.2085,-400.0448 1245.7889,-407.3158 1245.8943,-411.5914 1245.8405,-430.1836 1247.4166,-460.4569 1139.6838,-550.9448 1136.179,-554.0234 1136.0839,-562.4723 1028.8239,-576.551 1010.266,-575.4045 1010.266,-575.4045 1028.8239,-576.551 1136.0839,-562.4723 1136.3529,-569.6046 1135.8497,-613.8472 1135.6439,-619.5899 1135.4125,-640.1719 1213.6877,-741.4465 1214.046,-741.8745 1214.3707,-747.7733 1214.5782,-760.54 1214.4908,-788.4184 1216.2756,-898.5483 1204.0466,-906.1166 1075.6384,-937.4144 1052.7239,-933.1188 1047.7006,-932.3433 1026.1567,-929.7271 1027.4495,-863.4268 1023.7757,-760.3863 1027.5729,-756.8933 1023.9063,-753.644 1023.9063,-753.644 1027.5729,-756.8933 1023.7757,-760.3863 1018.8384,-761.8678 1018.8384,-761.8678 1023.7757,-760.3863 1027.4495,-863.4268 1026.1567,-929.7271 1014.7714,-928.9105 1008.6337,-928.7745 987.0934,-928.6534 986.3359,-928.6741 841.6812,-937.4271 832.6154,-908.0938 821.6507,-870.6326 810.1597,-858.7935 816.6387,-718.389 821.84,-674.8813 823.1591,-672.9703 825.4526,-672.9703 835.0848,-770.8099 834.799,-735.0039 837.4183,-672.8201 842.1395,-672.8201 842.3625,-672.8881 847.9598,-672.8881 848.8709,-672.6119 849.2117,-672.6119 853.2314,-676.2054 858.49,-677.7521 863.4487,-676.2997 870.7934,-786.509 870.8151,-787.0372 872.851,-753.4577 872.851,-753.4577 870.8151,-787.0372 870.7934,-786.509 863.4487,-676.2997 858.49,-677.7521 853.2314,-676.2054 849.2117,-672.6119 848.8709,-672.6119 847.9598,-672.8881 842.3625,-672.8881 842.1395,-672.8201 837.4183,-672.8201 834.799,-735.0039 835.0848,-770.8099 825.4526,-672.9703 823.1591,-672.9703 821.84,-674.8813 816.6387,-718.389 810.1597,-858.7935 796.3972,-845.4472 788.7767,-837.495 714.6321,-797.4188 711.3004,-795.7319 692.1693,-787.3262 694.0557,-743.7045 693.3345,-694.4286 698.8104,-691.1614 699.322,-691.6259 703.6553,-692.8618 703.6553,-692.8618 699.322,-691.6259 698.8104,-691.1614 693.3345,-694.4286 694.0557,-743.7045 692.1693,-787.3262 628.0657,-763.622 615.8281,-758.2568 607.828,-754.2036 626.2722,-691.1196 626.2722,-691.1196"/>
<polygon fill="#d8d6da" stroke="#d8d6da" points="1511.6798,-583.3287 1516.4645,-584.676 1521.5753,-583.189 1523.2518,-616.0463 1528.2192,-579.8193 1531.4443,-579.8193 1536.8885,-650.6162 1538.6132,-614.8765 1543.6962,-580.2505 1547.1335,-580.2505 1550.6823,-649.5013 1553.0321,-580.2011 1557.1254,-580.2011 1562.4736,-641.7188 1563.1204,-579.8654 1563.5784,-579.7319 1568.03,-579.7319 1568.1709,-579.6913 1570.8167,-579.6913 1572.5973,-578.444 1576.524,-577.3228 1578.777,-574.6035 1729.1761,-535.4547 1729.7194,-602.0584 1730.156,-611.0181 1713.7124,-681.5921 1636.1791,-743.3077 1624.4552,-789.4655 1468.7349,-757.3695 1468.7349,-757.3695 1624.4552,-789.4655 1608.5111,-857.8483 1596.2643,-889.1965 1576.1554,-899.3657 1552.2432,-905.7974 1466.9237,-916.3395 1451.3958,-919.0822 1451.3556,-915.0239 1451.3556,-915.0239 1451.3958,-919.0822 1435.8951,-922.368 1434.0742,-922.8179 1429.8213,-923.9442 1424.1761,-923.2946 1417.2133,-922.6103 1417.533,-794.1608 1420.6477,-756.9785 1425.7247,-755.5162 1429.4435,-752.3201 1425.7223,-748.9108 1425.7223,-748.9108 1429.4435,-752.3201 1425.7247,-755.5162 1420.6477,-756.9785 1417.533,-794.1608 1417.2133,-922.6103 1410.6312,-922.184 1401.2505,-921.7335 1401.2902,-896.5045 1401.2902,-896.5045 1401.2505,-921.7335 1383.7058,-921.4789 1376.4935,-921.7364 1306.6469,-926.569 1216.2756,-898.5483 1214.4908,-788.4184 1214.5782,-760.54 1214.3707,-747.7733 1214.046,-741.8745 1213.6877,-741.4465 1135.4125,-640.1719 1135.6439,-619.5899 1135.8497,-613.8472 1261.7375,-589.7045 1264.7584,-586.3763 1267.2334,-585.4691 1268.7614,-584.2255 1272.4261,-584.2255 1272.4261,-584.2255 1268.7614,-584.2255 1268.0463,-583.0944 1268.0463,-583.0944 1268.7614,-584.2255 1267.2334,-585.4691 1264.7584,-586.3763 1261.7375,-589.7045 1135.8497,-613.8472 1136.3529,-569.6046 1136.0839,-562.4723 1136.179,-554.0234 1139.6838,-550.9448 1247.4166,-460.4569 1245.8405,-430.1836 1245.8943,-411.5914 1245.7889,-407.3158 1245.2085,-400.0448 1239.0752,-282.2441 1280.2958,-256.6378 1343.5752,-241.3159 1365.2545,-235.6761 1369.7587,-234.4253 1375.0571,-232.7666 1388.3909,-235.1637 1394.0612,-235.8991 1401.6096,-236.6277 1409.4751,-237.2564 1411.0249,-404.0405 1405.7332,-404.0405 1400.8376,-406.873 1399.3209,-408.7144 1400.458,-410.1029 1405.4199,-413.0835 1405.4199,-413.0835 1400.458,-410.1029 1399.3209,-408.7144 1400.8376,-406.873 1405.7332,-404.0405 1411.0249,-404.0405 1409.4751,-237.2564 1416.23,-237.684 1424.7749,-238.0827 1433.5573,-238.3464 1437.5762,-238.2664 1457.3712,-237.5433 1448.0232,-408.4579 1443.4663,-408.4579 1442.1971,-408.8339 1438.2628,-408.8339 1437.7645,-408.9792 1433.9543,-408.9792 1432.4686,-408.5231 1432.4686,-408.5231 1433.9543,-408.9792 1437.7645,-408.9792 1438.2628,-408.8339 1442.1971,-408.8339 1443.4663,-408.4579 1448.0232,-408.4579 1457.3712,-237.5433 1458.528,-237.4819 1457.0618,-358.2132 1457.0618,-358.2132 1458.528,-237.4819 1461.9531,-237.1862 1570.4628,-285.8173 1581.9272,-305.2441 1610.9114,-408.74 1615.2592,-421.2946 1697.8905,-472.2869 1729.4088,-516.3936 1729.1761,-535.4547 1578.777,-574.6035 1576.524,-577.3228 1572.5973,-578.444 1570.8167,-579.6913 1568.1709,-579.6913 1568.03,-579.7319 1563.5784,-579.7319 1563.1204,-579.8654 1562.4736,-641.7188 1557.1254,-580.2011 1553.0321,-580.2011 1550.6823,-649.5013 1547.1335,-580.2505 1543.6962,-580.2505 1538.6132,-614.8765 1536.8885,-650.6162 1531.4443,-579.8193 1528.2192,-579.8193 1523.2518,-616.0463 1521.5753,-583.189 1525.7783,-579.4081 1521.7963,-576.1327 1517.3132,-574.9096 1517.3132,-574.9096 1521.7963,-576.1327 1525.7783,-579.4081 1521.5753,-583.189 1516.4645,-584.676 1511.6798,-583.3287 1510.0524,-654.4108 1505.903,-579.9706 1502.0055,-579.9706 1496.8105,-641.9951 1495.9912,-579.7133 1490.9733,-579.7133 1490.3885,-579.5468 1487.1995,-579.5468 1481.4216,-542.8444 1480.4288,-579.9976 1476.5826,-579.9976 1471.625,-620.3989 1470.0306,-579.7462 1464.3378,-579.7462 1464.2861,-579.7315 1462.1086,-579.7315 1460.9988,-581.395 1454.7327,-586.1085 1432.5951,-582.6448 1395.9932,-582.3397 1395.8221,-583.7676 1354.8385,-581.9886 1337.1996,-577.9026 1337.1996,-577.9026 1354.8385,-581.9886 1395.8221,-583.7676 1395.9932,-582.3397 1432.5951,-582.6448 1454.7327,-586.1085 1460.9988,-581.395 1462.1086,-579.7315 1464.2861,-579.7315 1464.3378,-579.7462 1470.0306,-579.7462 1471.625,-620.3989 1476.5826,-579.9976 1480.4288,-579.9976 1481.4216,-542.8444 1487.1995,-579.5468 1490.3885,-579.5468 1490.9733,-579.7133 1495.9912,-579.7133 1496.8105,-641.9951 1502.0055,-579.9706 1505.903,-579.9706 1510.0524,-654.4108 1511.6798,-583.3287 1511.6798,-583.3287"/>
<polyline fill="none" stroke="#000000" points="241.5308,-625.1022 235.8874,-622.5154 235.7907,-622.4686 228.4126,-628.65 211.5402,-642.1711 207.1937,-645.4135 195.3454,-654.0374 170.1111,-671.4782 130.3946,-698.1547 53.4564,-807.8278 37.1777,-865.6328 33.2318,-878.624 26.2685,-898.655 68.5704,-988.4744 101.1604,-1013.892 111.4898,-1034.0437 150.4521,-1114.1221 169.8506,-1135.1532 226.3382,-1163.0344 259.0786,-1157.9144 260.3813,-1157.7538 272.9359,-1156.413 282.6556,-1155.536 295.0097,-1154.8318 302.8156,-1154.5166 319.6898,-1154.955 330.4337,-1155.5903 336.4233,-1156.1429 363.3478,-1159.9718 384.7296,-1164.7833 438.6622,-1179.5935 444.4847,-1178.6622 562.4498,-1246.6749 591.5247,-1245.4103 611.845,-1240.3669 616.3439,-1239.3342 631.4608,-1236.4259 651.6246,-1233.6741 671.1178,-1231.7444 739.5132,-1206.5626 778.0101,-1168.4935 804.0076,-1096.4113 826.2631,-1041.5957 827.3433,-1039.0615 832.4631,-952.8911 841.6812,-937.4271 832.6154,-908.0938 821.6507,-870.6326 810.1597,-858.7935 796.3972,-845.4472 788.7767,-837.495 714.6321,-797.4188 711.3004,-795.7319 692.1693,-787.3262 628.0657,-763.622 615.8281,-758.2568 607.828,-754.2036 605.881,-754.623 591.0525,-756.9918 585.1891,-757.6003 570.9786,-758.2853 562.4925,-753.8186 551.7604,-748.9401 538.8651,-744.4493 537.4721,-744.014 523.3868,-740.1108 484.7213,-730.8023 479.9122,-729.3009 470.2698,-725.9411 456.7094,-720.2374 447.3239,-715.621 442.0924,-712.8629 437.3533,-710.1971 423.0959,-701.1512 350.0734,-652.29 330.3743,-640.5194 280.2711,-640.8901 271.5782,-637.8074 264.0874,-634.8609 241.5308,-625.1022 "/>
<polyline fill="none" stroke="#000000" points="271.5782,-637.8074 264.0874,-634.8609 241.5308,-625.1022 235.8874,-622.5154 235.7907,-622.4686 229.4907,-599.4396 223.6585,-563.7126 208.6508,-547.1458 55.5219,-386.801 54.8781,-386.6812 38.3973,-384.1902 -112.7003,-364.0001 -109.9876,-242.026 -111.1206,-173.4687 -112.0868,-146.468 -22.747,-47.7865 42.2862,-25.905 50.0753,-23.0297 63.3647,-29.9789 70.4447,-33.417 88.2043,-41.3847 98.0345,-45.2441 117.6197,-52.2081 119.9549,-52.9942 120.0144,-53.0131 134.392,-56.7875 143.2029,-58.937 324.6755,-120.095 374.8626,-113.2304 378.497,-99.1333 408.2947,-18 431.5988,56.7788 557.8566,145.3954 565.4459,149.5104 584.5021,153.2358 593.1658,155.0787 608.3553,158.5705 613.4541,159.9159 624.8476,163.3129 634.8412,166.4628 639.071,167.8674 729.5616,130.4026 770.7059,24.1335 798.2455,-42.6612 820.2614,-91.0219 823.574,-91.7104 832.306,-93.2804 835.592,-93.825 843.1517,-94.9723 859.3737,-97.2066 1012.3459,-241.7248 980.3372,-299.58 934.0645,-397.9005 928.5626,-408.9056 917.233,-430.3297 843.4423,-428.3013 842.0137,-428.2941 840.5507,-428.2536 836.1177,-428.2307 824.4402,-445.824 819.8075,-452.4171 810.4384,-464.2639 802.7115,-473.4104 786.239,-494.5905 753.5146,-547.0964 748.1333,-554.778 736.1996,-570.1425 725.3903,-582.9379 721.4889,-588.1899 720.5463,-588.1909 711.0995,-587.9183 704.2427,-588.1264 701.2579,-588.1281 701.091,-588.1182 698.7095,-588.0483 693.5414,-588.049 690.5391,-587.9601 650.829,-589.129 635.8524,-640.3529 629.1724,-674.3588 628.1482,-681.4442 626.2722,-691.1196 607.828,-754.2036 605.881,-754.623 591.0525,-756.9918 585.1891,-757.6003 570.9786,-758.2853 562.4925,-753.8186 551.7604,-748.9401 538.8651,-744.4493 537.4721,-744.014 523.3868,-740.1108 484.7213,-730.8023 479.9122,-729.3009 470.2698,-725.9411 456.7094,-720.2374 447.3239,-715.621 442.0924,-712.8629 437.3533,-710.1971 423.0959,-701.1512 350.0734,-652.29 330.3743,-640.5194 280.2711,-640.8901 271.5782,-637.8074 "/>
<polyline fill="none" stroke="#000000" points="1136.179,-554.0234 1139.6838,-550.9448 1247.4166,-460.4569 1245.8405,-430.1836 1245.8943,-411.5914 1245.7889,-407.3158 1245.2085,-400.0448 1239.0752,-282.2441 1131.3612,-263.8203 1120.4545,-261.5417 1106.8829,-258.1924 1101.3488,-256.6181 1098.3383,-255.7048 1081.1316,-249.8261 1075.7593,-247.7877 1057.9485,-240.3485 1050.3328,-240.6788 1012.3459,-241.7248 980.3372,-299.58 934.0645,-397.9005 928.5626,-408.9056 917.233,-430.3297 843.4423,-428.3013 842.0137,-428.2941 840.5507,-428.2536 836.1177,-428.2307 824.4402,-445.824 819.8075,-452.4171 810.4384,-464.2639 802.7115,-473.4104 786.239,-494.5905 753.5146,-547.0964 748.1333,-554.778 736.1996,-570.1425 725.3903,-582.9379 721.4889,-588.1899 720.5463,-588.1909 711.0995,-587.9183 704.2427,-588.1264 701.2579,-588.1281 701.091,-588.1182 698.7095,-588.0483 693.5414,-588.049 690.5391,-587.9601 650.829,-589.129 635.8524,-640.3529 629.1724,-674.3588 628.1482,-681.4442 626.2722,-691.1196 607.828,-754.2036 615.8281,-758.2568 628.0657,-763.622 692.1693,-787.3262 711.3004,-795.7319 714.6321,-797.4188 788.7767,-837.495 796.3972,-845.4472 810.1597,-858.7935 821.6507,-870.6326 832.6154,-908.0938 841.6812,-937.4271 986.3359,-928.6741 987.0934,-928.6534 1008.6337,-928.7745 1014.7714,-928.9105 1026.1567,-929.7271 1047.7006,-932.3433 1052.7239,-933.1188 1075.6384,-937.4144 1204.0466,-906.1166 1216.2756,-898.5483 1214.4908,-788.4184 1214.5782,-760.54 1214.3707,-747.7733 1214.046,-741.8745 1213.6877,-741.4465 1135.4125,-640.1719 1135.6439,-619.5899 1135.8497,-613.8472 1136.3529,-569.6046 1136.0839,-562.4723 1136.179,-554.0234 "/>
<polyline fill="none" stroke="#000000" points="1214.3707,-747.7733 1214.5782,-760.54 1214.4908,-788.4184 1216.2756,-898.5483 1306.6469,-926.569 1376.4935,-921.7364 1383.7058,-921.4789 1401.2505,-921.7335 1410.6312,-922.184 1417.2133,-922.6103 1424.1761,-923.2946 1429.8213,-923.9442 1434.0742,-922.8179 1435.8951,-922.368 1451.3958,-919.0822 1466.9237,-916.3395 1552.2432,-905.7974 1576.1554,-899.3657 1596.2643,-889.1965 1608.5111,-857.8483 1624.4552,-789.4655 1636.1791,-743.3077 1713.7124,-681.5921 1730.156,-611.0181 1729.7194,-602.0584 1729.1761,-535.4547 1729.4088,-516.3936 1697.8905,-472.2869 1615.2592,-421.2946 1610.9114,-408.74 1581.9272,-305.2441 1570.4628,-285.8173 1461.9531,-237.1862 1458.528,-237.4819 1457.3712,-237.5433 1437.5762,-238.2664 1433.5573,-238.3464 1424.7749,-238.0827 1416.23,-237.684 1409.4751,-237.2564 1401.6096,-236.6277 1394.0612,-235.8991 1388.3909,-235.1637 1375.0571,-232.7666 1369.7587,-234.4253 1365.2545,-235.6761 1343.5752,-241.3159 1280.2958,-256.6378 1239.0752,-282.2441 1245.2085,-400.0448 1245.7889,-407.3158 1245.8943,-411.5914 1245.8405,-430.1836 1247.4166,-460.4569 1139.6838,-550.9448 1136.179,-554.0234 1136.0839,-562.4723 1136.3529,-569.6046 1135.8497,-613.8472 1135.6439,-619.5899 1135.4125,-640.1719 1213.6877,-741.4465 1214.046,-741.8745 1214.3707,-747.7733 "/>
<!-- aajohan&#45;comfortaa&#45;fonts&#45;&gt;fontpackages&#45;filesystem -->
<g id="edge1" class="edge">
<title>aajohan&#45;comfortaa&#45;fonts&#45;&gt;fontpackages&#45;filesystem</title>
<path fill="none" stroke="#444444" stroke-opacity="0.333333" d="M262.5934,-892.3888C274.332,-911.3391 292.8913,-941.3007 306.3817,-963.0791"/>
<polygon fill="#444444" fill-opacity="0.333333" stroke="#444444" stroke-opacity="0.333333" points="303.5769,-965.1977 311.8183,-971.8558 309.5277,-961.5115 303.5769,-965.1977"/>
</g>
<!-- curl&#45;minimal&#45;&gt;libcurl&#45;minimal -->
<g id="edge2" class="edge">
<title>curl&#45;minimal&#45;&gt;libcurl&#45;minimal</title>
<path fill="none" stroke="#444444" stroke-opacity="0.333333" d="M220.698,-315.4252C194.4308,-295.9524 152.5338,-264.8929 123.4957,-243.3661"/>
<polygon fill="#444444" fill-opacity="0.333333" stroke="#444444" stroke-opacity="0.333333" points="125.4175,-240.4339 115.2998,-237.2901 121.2487,-246.0572 125.4175,-240.4339"/>
</g>
<!-- fontconfig&#45;&gt;aajohan&#45;comfortaa&#45;fonts -->
<g id="edge3" class="edge">
<title>fontconfig&#45;&gt;aajohan&#45;comfortaa&#45;fonts</title>
<path fill="none" stroke="#444444" stroke-opacity="0.333333" d="M392.9683,-837.3588C373.0753,-842.5444 350.9564,-848.3103 330.2258,-853.7142"/>
<polygon fill="#444444" fill-opacity="0.333333" stroke="#444444" stroke-opacity="0.333333" points="329.289,-850.3414 320.4952,-856.2507 331.0547,-857.115 329.289,-850.3414"/>
</g>
<!-- fontconfig&#45;&gt;fontpackages&#45;filesystem -->
<g id="edge4" class="edge">
<title>fontconfig&#45;&gt;fontpackages&#45;filesystem</title>
<path fill="none" stroke="#444444" stroke-opacity="0.333333" d="M443.2883,-838.6552C419.4268,-868.773 371.5786,-929.1668 344.0283,-963.9407"/>
<polygon fill="#444444" fill-opacity="0.333333" stroke="#444444" stroke-opacity="0.333333" points="340.9548,-962.1838 337.4882,-972.1955 346.4416,-966.5308 340.9548,-962.1838"/>
</g>
<!-- fontconfig&#45;&gt;freetype -->
<g id="edge5" class="edge">
<title>fontconfig&#45;&gt;freetype</title>
<path fill="none" stroke="#444444" stroke-opacity="0.333333" d="M518.9685,-838.5766C526.2623,-840.7291 533.7237,-842.931 541.0563,-845.0949"/>
<polygon fill="#444444" fill-opacity="0.333333" stroke="#444444" stroke-opacity="0.333333" points="540.366,-848.5403 550.9477,-848.0139 542.3473,-841.8266 540.366,-848.5403"/>
</g>
<!-- freetype&#45;&gt;libpng -->
<g id="edge6" class="edge">
<title>freetype&#45;&gt;libpng</title>
<path fill="none" stroke="#444444" stroke-opacity="0.333333" d="M607.316,-882.0302C611.6883,-919.579 621.8088,-1006.4929 627.0431,-1051.4445"/>
<polygon fill="#444444" fill-opacity="0.333333" stroke="#444444" stroke-opacity="0.333333" points="623.5691,-1051.8714 628.2023,-1061.3995 630.5221,-1051.0617 623.5691,-1051.8714"/>
</g>
<!-- libX11&#45;&gt;libX11&#45;common -->
<g id="edge7" class="edge">
<title>libX11&#45;&gt;libX11&#45;common</title>
<path fill="none" stroke="#444444" stroke-opacity="0.333333" d="M715.973,-470.0962C732.8854,-436.8634 768.9941,-365.9101 788.888,-326.8187"/>
<polygon fill="#444444" fill-opacity="0.333333" stroke="#444444" stroke-opacity="0.333333" points="792.1586,-328.1088 793.5749,-317.609 785.92,-324.9339 792.1586,-328.1088"/>
</g>
<!-- libX11&#45;&gt;libxcb -->
<g id="edge8" class="edge">
<title>libX11&#45;&gt;libxcb</title>
<path fill="none" stroke="#444444" stroke-opacity="0.333333" d="M701.7998,-469.8301C689.3598,-423.9011 656.819,-303.76 642.003,-249.0588"/>
<polygon fill="#444444" fill-opacity="0.333333" stroke="#444444" stroke-opacity="0.333333" points="645.362,-248.0725 639.3693,-239.3353 638.6055,-249.9026 645.362,-248.0725"/>
</g>
<!-- libxcb&#45;&gt;libXau -->
<g id="edge9" class="edge">
<title>libxcb&#45;&gt;libXau</title>
<path fill="none" stroke="#444444" stroke-opacity="0.333333" d="M632.2938,-203.1765C628.0342,-167.7161 618.5404,-88.6818 613.4421,-46.2387"/>
<polygon fill="#444444" fill-opacity="0.333333" stroke="#444444" stroke-opacity="0.333333" points="616.9142,-45.7964 612.2465,-36.2852 609.9642,-46.6313 616.9142,-45.7964"/>
</g>
<!-- libXft&#45;&gt;fontconfig -->
<g id="edge10" class="edge">
<title>libXft&#45;&gt;fontconfig</title>
<path fill="none" stroke="#444444" stroke-opacity="0.333333" d="M537.852,-670.2903C522.0982,-699.8045 490.6832,-758.6595 472.2009,-793.2855"/>
<polygon fill="#444444" fill-opacity="0.333333" stroke="#444444" stroke-opacity="0.333333" points="468.9759,-791.8948 467.3546,-802.3648 475.1513,-795.191 468.9759,-791.8948"/>
</g>
<!-- libXft&#45;&gt;freetype -->
<g id="edge11" class="edge">
<title>libXft&#45;&gt;freetype</title>
<path fill="none" stroke="#444444" stroke-opacity="0.333333" d="M552.3846,-670.3428C562.4872,-707.3774 585.615,-792.1608 597.6418,-836.2495"/>
<polygon fill="#444444" fill-opacity="0.333333" stroke="#444444" stroke-opacity="0.333333" points="594.2995,-837.2965 600.3079,-846.0229 601.0527,-835.4542 594.2995,-837.2965"/>
</g>
<!-- libXft&#45;&gt;libX11 -->
<g id="edge12" class="edge">
<title>libXft&#45;&gt;libX11</title>
<path fill="none" stroke="#444444" stroke-opacity="0.333333" d="M565.1176,-634.1003C593.4675,-604.8963 649.2374,-547.4461 681.7011,-514.0043"/>
<polygon fill="#444444" fill-opacity="0.333333" stroke="#444444" stroke-opacity="0.333333" points="684.5792,-516.0643 689.0333,-506.4511 679.5565,-511.1885 684.5792,-516.0643"/>
</g>
<!-- libXft&#45;&gt;libXrender -->
<g id="edge13" class="edge">
<title>libXft&#45;&gt;libXrender</title>
<path fill="none" stroke="#444444" stroke-opacity="0.333333" d="M538.7748,-634.1208C522.5196,-600.1156 487.4182,-526.6849 468.2629,-486.6126"/>
<polygon fill="#444444" fill-opacity="0.333333" stroke="#444444" stroke-opacity="0.333333" points="471.34,-484.9343 463.8694,-477.4216 465.0245,-487.9533 471.34,-484.9343"/>
</g>
<!-- libXrender&#45;&gt;curl&#45;minimal -->
<g id="edge14" class="edge">
<title>libXrender&#45;&gt;curl&#45;minimal</title>
<path fill="none" stroke="#444444" stroke-opacity="0.333333" d="M424.6013,-440.8923C387.4769,-418.6852 324.7679,-381.1738 284.1668,-356.8871"/>
<polygon fill="#444444" fill-opacity="0.333333" stroke="#444444" stroke-opacity="0.333333" points="285.7334,-353.7458 275.3548,-351.6159 282.1399,-359.7531 285.7334,-353.7458"/>
</g>
<!-- libXrender&#45;&gt;libX11 -->
<g id="edge15" class="edge">
<title>libXrender&#45;&gt;libX11</title>
<path fill="none" stroke="#444444" stroke-opacity="0.333333" d="M519.941,-466.6334C561.3794,-471.4124 614.4691,-477.5351 653.4575,-482.0316"/>
<polygon fill="#444444" fill-opacity="0.333333" stroke="#444444" stroke-opacity="0.333333" points="653.2183,-485.5271 663.5535,-483.1959 654.0204,-478.5732 653.2183,-485.5271"/>
</g>
<!-- python2&#45;debug&#45;&gt;libX11 -->
<g id="edge16" class="edge">
<title>python2&#45;debug&#45;&gt;libX11</title>
<path fill="none" stroke="#444444" stroke-opacity="0.333333" d="M921.2727,-563.5473C874.8065,-547.221 806.5935,-523.2538 759.6296,-506.7527"/>
<polygon fill="#444444" fill-opacity="0.333333" stroke="#444444" stroke-opacity="0.333333" points="760.5409,-503.3631 749.946,-503.3503 758.2204,-509.9674 760.5409,-503.3631"/>
</g>
<!-- python2&#45;debug&#45;&gt;python2&#45;devel -->
<g id="edge17" class="edge">
<title>python2&#45;debug&#45;&gt;python2&#45;devel</title>
<path fill="none" stroke="#444444" stroke-opacity="0.333333" d="M1053.3143,-582.2347C1100.3543,-582.6333 1159.7876,-583.137 1208.4612,-583.5494"/>
<polygon fill="#444444" fill-opacity="0.333333" stroke="#444444" stroke-opacity="0.333333" points="1208.6467,-587.051 1218.676,-583.636 1208.7061,-580.0513 1208.6467,-587.051"/>
</g>
<!-- python2&#45;debug&#45;&gt;python2&#45;test -->
<g id="edge18" class="edge">
<title>python2&#45;debug&#45;&gt;python2&#45;test</title>
<path fill="none" stroke="#444444" stroke-opacity="0.333333" d="M986.729,-563.3446C1008.9591,-534.8822 1052.0575,-479.7009 1077.7856,-446.7598"/>
<polygon fill="#444444" fill-opacity="0.333333" stroke="#444444" stroke-opacity="0.333333" points="1080.8424,-448.5321 1084.2395,-438.4966 1075.3257,-444.2233 1080.8424,-448.5321"/>
</g>
<!-- python2&#45;debug&#45;&gt;python2&#45;tkinter -->
<g id="edge19" class="edge">
<title>python2&#45;debug&#45;&gt;python2&#45;tkinter</title>
<path fill="none" stroke="#444444" stroke-opacity="0.333333" d="M949.9774,-599.5781C932.5958,-613.4849 908.3658,-632.871 889.2035,-648.2025"/>
<polygon fill="#444444" fill-opacity="0.333333" stroke="#444444" stroke-opacity="0.333333" points="886.958,-645.5167 881.3362,-654.4971 891.3311,-650.9826 886.958,-645.5167"/>
</g>
<!-- python2&#45;debug&#45;&gt;python2&#45;tools -->
<g id="edge20" class="edge">
<title>python2&#45;debug&#45;&gt;python2&#45;tools</title>
<path fill="none" stroke="#444444" stroke-opacity="0.333333" d="M977.2688,-599.6716C985.3282,-630.3616 1001.7154,-692.7636 1011.2563,-729.0954"/>
<polygon fill="#444444" fill-opacity="0.333333" stroke="#444444" stroke-opacity="0.333333" points="1007.9418,-730.2539 1013.867,-739.037 1014.7123,-728.4759 1007.9418,-730.2539"/>
</g>
<!-- python2&#45;debug&#45;&gt;tix -->
<g id="edge21" class="edge">
<title>python2&#45;debug&#45;&gt;tix</title>
<path fill="none" stroke="#444444" stroke-opacity="0.333333" d="M891.6126,-568.1717C880.5953,-566.3497 869.7566,-564.5573 860.062,-562.954"/>
<polygon fill="#444444" fill-opacity="0.333333" stroke="#444444" stroke-opacity="0.333333" points="860.4741,-559.4747 850.037,-561.2962 859.3319,-566.3809 860.4741,-559.4747"/>
</g>
<!-- python2&#45;debug&#45;&gt;tk -->
<g id="edge22" class="edge">
<title>python2&#45;debug&#45;&gt;tk</title>
<path fill="none" stroke="#444444" stroke-opacity="0.333333" d="M926.9898,-599.5891C874.5307,-620.3781 789.3449,-654.1362 740.9126,-673.3294"/>
<polygon fill="#444444" fill-opacity="0.333333" stroke="#444444" stroke-opacity="0.333333" points="739.4558,-670.1418 731.4486,-677.0798 742.0347,-676.6494 739.4558,-670.1418"/>
</g>
<!-- python2&#45;devel&#45;&gt;python2&#45;rpm&#45;macros -->
<g id="edge23" class="edge">
<title>python2&#45;devel&#45;&gt;python2&#45;rpm&#45;macros</title>
<path fill="none" stroke="#444444" stroke-opacity="0.333333" d="M1310.644,-566.1912C1329.9317,-535.0936 1369.4058,-471.4493 1391.8113,-435.3249"/>
<polygon fill="#444444" fill-opacity="0.333333" stroke="#444444" stroke-opacity="0.333333" points="1394.8206,-437.1132 1397.1171,-426.7702 1388.8719,-433.4236 1394.8206,-437.1132"/>
</g>
<!-- python2&#45;devel&#45;&gt;python3&#45;rpm&#45;generators -->
<g id="edge24" class="edge">
<title>python2&#45;devel&#45;&gt;python3&#45;rpm&#45;generators</title>
<path fill="none" stroke="#444444" stroke-opacity="0.333333" d="M1380.0057,-582.6471C1380.1718,-582.6436 1380.3379,-582.6402 1380.5042,-582.6367"/>
<polygon fill="#444444" fill-opacity="0.333333" stroke="#444444" stroke-opacity="0.333333" points="1378.1174,-586.1871 1388.0425,-582.4802 1377.972,-579.1886 1378.1174,-586.1871"/>
</g>
<!-- python2&#45;devel&#45;&gt;python&#45;rpm&#45;macros -->
<g id="edge25" class="edge">
<title>python2&#45;devel&#45;&gt;python&#45;rpm&#45;macros</title>
<path fill="none" stroke="#444444" stroke-opacity="0.333333" d="M1312.5686,-602.5872C1334.0078,-632.3273 1376.5423,-691.3302 1401.2687,-725.6301"/>
<polygon fill="#444444" fill-opacity="0.333333" stroke="#444444" stroke-opacity="0.333333" points="1398.4607,-727.7201 1407.1477,-733.7854 1404.139,-723.6267 1398.4607,-727.7201"/>
</g>
<!-- python2&#45;tkinter&#45;&gt;libX11 -->
<g id="edge26" class="edge">
<title>python2&#45;tkinter&#45;&gt;libX11</title>
<path fill="none" stroke="#444444" stroke-opacity="0.333333" d="M843.6391,-654.7617C816.6786,-621.9483 759.5178,-552.3787 728.2715,-514.3493"/>
<polygon fill="#444444" fill-opacity="0.333333" stroke="#444444" stroke-opacity="0.333333" points="730.7037,-511.7961 721.651,-506.2915 725.2951,-516.2399 730.7037,-511.7961"/>
</g>
<!-- python2&#45;tkinter&#45;&gt;tix -->
<g id="edge27" class="edge">
<title>python2&#45;tkinter&#45;&gt;tix</title>
<path fill="none" stroke="#444444" stroke-opacity="0.333333" d="M852.9147,-654.6781C847.1925,-635.9783 838.19,-606.5584 831.5488,-584.8551"/>
<polygon fill="#444444" fill-opacity="0.333333" stroke="#444444" stroke-opacity="0.333333" points="834.8665,-583.7356 828.5935,-575.1974 828.1728,-585.7839 834.8665,-583.7356"/>
</g>
<!-- python2&#45;tkinter&#45;&gt;tk -->
<g id="edge28" class="edge">
<title>python2&#45;tkinter&#45;&gt;tk</title>
<path fill="none" stroke="#444444" stroke-opacity="0.333333" d="M767.3708,-681.7088C758.298,-682.5961 749.4913,-683.4575 741.4754,-684.2414"/>
<polygon fill="#444444" fill-opacity="0.333333" stroke="#444444" stroke-opacity="0.333333" points="741.0494,-680.7663 731.4376,-685.2232 741.7308,-687.7331 741.0494,-680.7663"/>
</g>
<!-- python2&#45;tools&#45;&gt;python2&#45;tkinter -->
<g id="edge29" class="edge">
<title>python2&#45;tools&#45;&gt;python2&#45;tkinter</title>
<path fill="none" stroke="#444444" stroke-opacity="0.333333" d="M984.246,-738.9841C960.0761,-726.2668 927.5485,-709.1519 901.6263,-695.5126"/>
<polygon fill="#444444" fill-opacity="0.333333" stroke="#444444" stroke-opacity="0.333333" points="903.2367,-692.405 892.7572,-690.846 899.9772,-698.5999 903.2367,-692.405"/>
</g>
<!-- tix&#45;&gt;libX11 -->
<g id="edge30" class="edge">
<title>tix&#45;&gt;libX11</title>
<path fill="none" stroke="#444444" stroke-opacity="0.333333" d="M795.7263,-540.727C781.0105,-532.0343 762.5742,-521.1439 746.3073,-511.5349"/>
<polygon fill="#444444" fill-opacity="0.333333" stroke="#444444" stroke-opacity="0.333333" points="747.9208,-508.423 737.5306,-506.3505 744.3606,-514.45 747.9208,-508.423"/>
</g>
<!-- tix&#45;&gt;tk -->
<g id="edge31" class="edge">
<title>tix&#45;&gt;tk</title>
<path fill="none" stroke="#444444" stroke-opacity="0.333333" d="M806.4514,-575.0447C785.8821,-597.7384 750.6235,-636.6386 727.3551,-662.3103"/>
<polygon fill="#444444" fill-opacity="0.333333" stroke="#444444" stroke-opacity="0.333333" points="724.6708,-660.0601 720.5483,-669.8201 729.8574,-664.7612 724.6708,-660.0601"/>
</g>
<!-- tk&#45;&gt;fontconfig -->
<g id="edge32" class="edge">
<title>tk&#45;&gt;fontconfig</title>
<path fill="none" stroke="#444444" stroke-opacity="0.333333" d="M676.8495,-702.5872C634.1332,-725.5665 551.1829,-770.1898 500.4829,-797.4641"/>
<polygon fill="#444444" fill-opacity="0.333333" stroke="#444444" stroke-opacity="0.333333" points="498.5568,-794.5258 491.4084,-802.3457 501.8731,-800.6905 498.5568,-794.5258"/>
</g>
<!-- tk&#45;&gt;freetype -->
<g id="edge33" class="edge">
<title>tk&#45;&gt;freetype</title>
<path fill="none" stroke="#444444" stroke-opacity="0.333333" d="M693.9533,-706.0766C676.5022,-737.1412 640.8641,-800.5802 620.4618,-836.8982"/>
<polygon fill="#444444" fill-opacity="0.333333" stroke="#444444" stroke-opacity="0.333333" points="617.2275,-835.5096 615.3811,-845.9423 623.3304,-838.938 617.2275,-835.5096"/>
</g>
<!-- tk&#45;&gt;libX11 -->
<g id="edge34" class="edge">
<title>tk&#45;&gt;libX11</title>
<path fill="none" stroke="#444444" stroke-opacity="0.333333" d="M704.4053,-669.8148C704.8595,-634.9254 705.8601,-558.0723 706.4027,-516.3923"/>
<polygon fill="#444444" fill-opacity="0.333333" stroke="#444444" stroke-opacity="0.333333" points="709.9028,-516.403 706.5333,-506.3582 702.9034,-516.3118 709.9028,-516.403"/>
</g>
<!-- tk&#45;&gt;libXft -->
<g id="edge35" class="edge">
<title>tk&#45;&gt;libXft</title>
<path fill="none" stroke="#444444" stroke-opacity="0.333333" d="M676.8732,-681.689C655.8935,-676.923 626.2639,-670.192 600.6489,-664.373"/>
<polygon fill="#444444" fill-opacity="0.333333" stroke="#444444" stroke-opacity="0.333333" points="601.217,-660.9129 590.69,-662.1106 599.6662,-667.739 601.217,-660.9129"/>
</g>
<!-- aajohan&#45;comfortaa&#45;fonts -->
<g id="node1" class="node">
<title>aajohan&#45;comfortaa&#45;fonts</title>
<text text-anchor="middle" x="251.37" y="-870.57" font-family="monospace" font-size="14.00" fill="#000000">aajohan&#45;comfortaa&#45;fonts</text>
</g>
<!-- fontpackages&#45;filesystem -->
<g id="node2" class="node">
<title>fontpackages&#45;filesystem</title>
<text text-anchor="middle" x="323.2" y="-986.53" font-family="monospace" font-size="14.00" fill="#000000">fontpackages&#45;filesystem</text>
</g>
<!-- curl&#45;minimal -->
<g id="node3" class="node">
<title>curl&#45;minimal</title>
<text text-anchor="middle" x="245.12" y="-329.83" font-family="monospace" font-size="14.00" fill="#000000">curl&#45;minimal</text>
</g>
<!-- libcurl&#45;minimal -->
<g id="node4" class="node">
<title>libcurl&#45;minimal</title>
<text text-anchor="middle" x="90.992" y="-215.57" font-family="monospace" font-size="14.00" fill="#000000">libcurl&#45;minimal</text>
</g>
<!-- fontconfig -->
<g id="node5" class="node">
<title>fontconfig</title>
<text text-anchor="middle" x="457.68" y="-816.79" font-family="monospace" font-size="14.00" fill="#000000">fontconfig</text>
</g>
<!-- freetype -->
<g id="node6" class="node">
<title>freetype</title>
<text text-anchor="middle" x="605.22" y="-860.33" font-family="monospace" font-size="14.00" fill="#000000">freetype</text>
</g>
<!-- libpng -->
<g id="node7" class="node">
<title>libpng</title>
<text text-anchor="middle" x="630.31" y="-1075.8" font-family="monospace" font-size="14.00" fill="#000000">libpng</text>
</g>
<!-- libX11 -->
<g id="node8" class="node">
<title>libX11</title>
<text text-anchor="middle" x="706.77" y="-484.48" font-family="monospace" font-size="14.00" fill="#000000">libX11</text>
</g>
<!-- libX11&#45;common -->
<g id="node9" class="node">
<title>libX11&#45;common</title>
<text text-anchor="middle" x="802.75" y="-295.88" font-family="monospace" font-size="14.00" fill="#000000">libX11&#45;common</text>
</g>
<!-- libxcb -->
<g id="node10" class="node">
<title>libxcb</title>
<text text-anchor="middle" x="634.46" y="-217.51" font-family="monospace" font-size="14.00" fill="#000000">libxcb</text>
</g>
<!-- libXau -->
<g id="node11" class="node">
<title>libXau</title>
<text text-anchor="middle" x="610.05" y="-14.3" font-family="monospace" font-size="14.00" fill="#000000">libXau</text>
</g>
<!-- libXft -->
<g id="node12" class="node">
<title>libXft</title>
<text text-anchor="middle" x="547.46" y="-648.59" font-family="monospace" font-size="14.00" fill="#000000">libXft</text>
</g>
<!-- libXrender -->
<g id="node13" class="node">
<title>libXrender</title>
<text text-anchor="middle" x="455.14" y="-455.46" font-family="monospace" font-size="14.00" fill="#000000">libXrender</text>
</g>
<!-- python2&#45;debug -->
<g id="node14" class="node">
<title>python2&#45;debug</title>
<text text-anchor="middle" x="972.51" y="-577.85" font-family="monospace" font-size="14.00" fill="#000000">python2&#45;debug</text>
</g>
<!-- python2&#45;devel -->
<g id="node15" class="node">
<title>python2&#45;devel</title>
<text text-anchor="middle" x="1299.4" y="-580.62" font-family="monospace" font-size="14.00" fill="#000000">python2&#45;devel</text>
</g>
<!-- python2&#45;test -->
<g id="node16" class="node">
<title>python2&#45;test</title>
<text text-anchor="middle" x="1098.6" y="-416.41" font-family="monospace" font-size="14.00" fill="#000000">python2&#45;test</text>
</g>
<!-- python2&#45;tkinter -->
<g id="node17" class="node">
<title>python2&#45;tkinter</title>
<text text-anchor="middle" x="858.46" y="-669.1" font-family="monospace" font-size="14.00" fill="#000000">python2&#45;tkinter</text>
</g>
<!-- python2&#45;tools -->
<g id="node18" class="node">
<title>python2&#45;tools</title>
<text text-anchor="middle" x="1018.6" y="-753.36" font-family="monospace" font-size="14.00" fill="#000000">python2&#45;tools</text>
</g>
<!-- tix -->
<g id="node19" class="node">
<title>tix</title>
<text text-anchor="middle" x="822.97" y="-553.12" font-family="monospace" font-size="14.00" fill="#000000">tix</text>
</g>
<!-- tk -->
<g id="node20" class="node">
<title>tk</title>
<text text-anchor="middle" x="704.17" y="-684.19" font-family="monospace" font-size="14.00" fill="#000000">tk</text>
</g>
<!-- python2&#45;rpm&#45;macros -->
<g id="node21" class="node">
<title>python2&#45;rpm&#45;macros</title>
<text text-anchor="middle" x="1408.3" y="-405.04" font-family="monospace" font-size="14.00" fill="#000000">python2&#45;rpm&#45;macros</text>
</g>
<!-- python3&#45;rpm&#45;generators -->
<g id="node22" class="node">
<title>python3&#45;rpm&#45;generators</title>
<text text-anchor="middle" x="1516.7" y="-576.11" font-family="monospace" font-size="14.00" fill="#000000">python3&#45;rpm&#45;generators</text>
</g>
<!-- python&#45;rpm&#45;macros -->
<g id="node23" class="node">
<title>python&#45;rpm&#45;macros</title>
<text text-anchor="middle" x="1420.3" y="-748.33" font-family="monospace" font-size="14.00" fill="#000000">python&#45;rpm&#45;macros</text>
</g>
</g>
</svg>
