<?xml version="1.0" encoding="UTF-8" standalone="no"?>
<!DOCTYPE svg PUBLIC "-//W3C//DTD SVG 1.1//EN"
 "http://www.w3.org/Graphics/SVG/1.1/DTD/svg11.dtd">
<!-- Generated by graphviz version 2.40.1 (20161225.0304)
 -->
<!-- Title: G Pages: 1 -->
<svg width="1105pt" height="924pt"
 viewBox="0.00 0.00 1105.41 924.23" xmlns="http://www.w3.org/2000/svg" xmlns:xlink="http://www.w3.org/1999/xlink">
<g id="graph0" class="graph" transform="scale(1 1) rotate(0) translate(37.1262 803.8265)">
<title>G</title>
<polygon fill="#dae2ff" stroke="transparent" points="-37.1262,120.4084 -37.1262,-803.8265 1068.2864,-803.8265 1068.2864,120.4084 -37.1262,120.4084"/>
<polygon fill="#fbb4ae" stroke="#fbb4ae" points="383.754,-559.4807 384.4895,-552.3702 385.5009,-540.07 408.9731,-499.3812 417.5085,-483.681 482.6164,-463.3678 494.1216,-460.235 499.3011,-459.0345 511.5111,-457.1843 525.6229,-456.1823 526.9139,-456.1429 531.7355,-456.1894 535.4739,-456.376 536.9252,-456.3318 541.1101,-456.0351 548.5712,-456.108 548.6955,-537.0839 549.1698,-537.2344 553.2825,-537.2344 553.7845,-537.3979 553.9493,-537.6034 560.3737,-541.7669 565.7657,-541.7669 568.8561,-586.1281 568.8362,-593.4058 576.553,-589.1067 576.553,-589.1067 568.8362,-593.4058 568.8561,-586.1281 565.7657,-541.7669 560.3737,-541.7669 553.9493,-537.6034 553.7845,-537.3979 553.2825,-537.2344 549.1698,-537.2344 548.6955,-537.0839 548.5712,-456.108 554.4713,-455.9277 559.6866,-456.1888 565.9384,-455.999 580.0038,-454.4372 593.7967,-451.7927 596.8889,-451.0769 612.2504,-446.9072 612.4398,-446.2849 624.1218,-401.8706 626.4984,-387.8051 630.6819,-368.3557 637.1024,-347.2632 635.3815,-327.1846 632.2474,-301.5561 609.9828,-272.9024 634.3958,-249.2854 715.7621,-243.0471 719.7752,-238.9608 721.0378,-238.4695 724.1702,-296.3488 723.9549,-296.3628 721.9182,-350.3587 724.4511,-353.6931 696.7881,-361.2555 673.1254,-364.4239 695.3473,-378.8792 701.6115,-382.0508 706.7568,-383.9153 706.6667,-415.7253 706.8566,-415.7892 709.7163,-415.7892 712.1506,-418.1376 715.3196,-455.8434 706.077,-458.0219 699.4785,-460.2172 694.6786,-462.275 665.1476,-477.8017 727.2964,-489.8932 724.757,-455.4192 732.4803,-455.143 732.7574,-494.8403 733.5559,-495.0896 737.2412,-495.0896 742.654,-537.9209 744.4266,-495.2335 749.8039,-495.2335 749.976,-495.1777 756.0713,-495.1777 756.2303,-495.1277 759.844,-495.1277 760.3026,-495.2746 760.7186,-495.7866 763.3055,-549.2502 763.1312,-560.9404 774.204,-560.4449 780.6675,-560.4841 780.6096,-576.3261 783.8901,-624.5048 784.3871,-625.3755 788.5048,-625.3755 789.5201,-625.7166 794.5896,-625.7166 795.0172,-625.5729 800.4194,-625.5729 801.2407,-626.6635 806.1566,-629.7943 812.8214,-629.7943 812.8214,-629.7943 806.1566,-629.7943 801.2407,-626.6635 800.4194,-625.5729 795.0172,-625.5729 794.5896,-625.7166 789.5201,-625.7166 788.5048,-625.3755 784.3871,-625.3755 783.8901,-624.5048 780.6096,-576.3261 780.6675,-560.4841 774.204,-560.4449 763.1312,-560.9404 763.3055,-549.2502 760.7186,-495.7866 760.3026,-495.2746 767.5497,-490.4278 771.8965,-490.4278 771.8965,-490.4278 767.5497,-490.4278 760.3026,-495.2746 759.844,-495.1277 756.2303,-495.1277 756.0713,-495.1777 749.976,-495.1777 749.8039,-495.2335 744.4266,-495.2335 742.654,-537.9209 737.2412,-495.0896 733.5559,-495.0896 732.7574,-494.8403 732.4803,-455.143 724.757,-455.4192 727.2964,-489.8932 665.1476,-477.8017 694.6786,-462.275 699.4785,-460.2172 706.077,-458.0219 715.3196,-455.8434 712.1506,-418.1376 709.7163,-415.7892 706.8566,-415.7892 706.6667,-415.7253 706.7568,-383.9153 701.6115,-382.0508 695.3473,-378.8792 673.1254,-364.4239 696.7881,-361.2555 724.4511,-353.6931 721.9182,-350.3587 723.9549,-296.3628 724.1702,-296.3488 721.0378,-238.4695 719.7752,-238.9608 715.7621,-243.0471 634.3958,-249.2854 637.562,-245.9782 652.0765,-231.9701 652.5754,-231.383 664.2338,-220.1174 665.4594,-219.0681 674.6749,-212.1102 685.9131,-205.9202 691.2177,-203.5591 695.0118,-202.2657 714.1418,-197.6939 721.5696,-195.1595 727.314,-192.62 733.795,-189.1016 739.087,-185.7017 742.2698,-183.3383 752.834,-174.386 752.969,-199.6327 749.7941,-232.8777 744.8734,-235.8994 743.9052,-237.1259 744.2013,-237.5151 750.7621,-241.9234 755.4819,-241.9234 755.4819,-241.9234 750.7621,-241.9234 744.2013,-237.5151 743.9052,-237.1259 744.8734,-235.8994 749.7941,-232.8777 756.4993,-232.8777 761.8408,-236.1365 762.5667,-237.0166 766.9124,-237.0166 769.2319,-271.9724 759.7615,-278.4026 745.3329,-292.5187 744.5925,-293.4485 775.8807,-292.3131 794.4138,-288.2339 800.1077,-292.261 801.4568,-294.434 805.5848,-294.434 806.938,-294.8676 810.5814,-294.8676 811.4269,-295.1357 815.9523,-295.1357 820.1772,-324.4291 824.0499,-295.0562 825.3306,-295.0562 828.6537,-291.7785 828.6537,-291.7785 825.3306,-295.0562 824.0499,-295.0562 822.2853,-294.4719 822.2853,-294.4719 824.0499,-295.0562 820.1772,-324.4291 815.9523,-295.1357 811.4269,-295.1357 810.5814,-294.8676 806.938,-294.8676 805.5848,-294.434 801.4568,-294.434 800.1077,-292.261 794.4138,-288.2339 775.8807,-292.3131 744.5925,-293.4485 745.3329,-292.5187 759.7615,-278.4026 769.2319,-271.9724 771.3799,-270.838 771.3799,-270.838 769.2319,-271.9724 766.9124,-237.0166 762.5667,-237.0166 761.8408,-236.1365 756.4993,-232.8777 749.7941,-232.8777 752.969,-199.6327 752.834,-174.386 756.4863,-170.5481 761.1227,-166.604 771.6961,-156.7172 774.0728,-154.3077 776.1242,-152.0593 784.9992,-141.5602 787.0815,-138.9236 795.7125,-128.7345 819.7351,-98.6514 889.8467,-177.4678 876.8697,-196.4034 874.2962,-288.89 935.9716,-285.9005 935.7092,-286.1869 931.8117,-290.0444 925.9548,-296.5227 919.1744,-303.1768 915.9554,-305.9265 913.2148,-308.6653 912.452,-309.3159 903.7639,-315.5912 897.8826,-319.0128 892.6448,-321.3223 885.7963,-323.3855 885.7963,-323.3855 892.6448,-321.3223 897.8826,-319.0128 903.7639,-315.5912 912.452,-309.3159 913.2148,-308.6653 915.9554,-305.9265 919.1744,-303.1768 925.9548,-296.5227 931.8117,-290.0444 935.7092,-286.1869 935.9716,-285.9005 874.2962,-288.89 876.8697,-196.4034 889.8467,-177.4678 941.419,-196.8112 977.3248,-239.9687 977.7078,-240.8496 1043.9568,-303.2465 1049.9644,-315.0599 1045.7694,-353.58 1044.3707,-414.9508 1060.3547,-462.0996 1064.2864,-472.1419 1014.5711,-556.6176 1055.2305,-652.6059 1050.1924,-673.061 1048.3446,-682.8292 1043.4163,-713.5267 1035.5177,-740.4717 948.8586,-796.5826 934.8329,-794.847 926.9012,-794.0732 917.6252,-793.8944 905.1985,-793.9794 904.8588,-793.9995 902.985,-793.9749 896.8345,-793.0995 883.0621,-791.8736 877.6748,-791.6821 860.965,-791.5346 864.5404,-724.0704 864.5404,-724.0704 860.965,-791.5346 859.0477,-791.6199 842.9135,-793.2018 799.1559,-799.8265 734.8873,-749.4306 721.6732,-744.996 681.9613,-748.5528 665.9484,-750.3907 659.4916,-751.2933 649.0602,-753.0117 639.5591,-755.289 638.2397,-625.2642 643.9687,-627.1043 643.9687,-627.1043 638.2397,-625.2642 639.5591,-755.289 628.957,-758.096 620.7237,-760.4803 618.8491,-761.1637 589.8779,-758.811 521.2672,-690.526 499.4546,-658.3114 429.2371,-625.6796 382.7976,-570.3035 383.1636,-566.7276 383.754,-559.4807 383.754,-559.4807"/>
<polygon fill="#fed9a6" stroke="#fed9a6" points="549.5161,-375.5023 552.2923,-376.635 555.9713,-380.6641 626.4984,-387.8051 630.6819,-368.3557 637.1024,-347.2632 635.3815,-327.1846 632.2474,-301.5561 609.9828,-272.9024 557.1433,-250.8971 556.8531,-258.9161 556.8531,-258.9161 557.1433,-250.8971 540.2262,-242.8282 530.2135,-237.4585 523.3976,-233.6024 518.8247,-230.7437 511.1107,-234.4331 510.7253,-234.597 493.0671,-241.6484 492.6105,-241.8185 483.3184,-245.0344 470.8172,-249.0279 387.7949,-308.1902 326.2065,-294.3239 274.2922,-252.9608 239.5837,-248.2537 237.7138,-247.9493 227.359,-245.9804 212.8587,-242.4312 203.0155,-239.4879 197.639,-237.7352 193.0063,-236.1 185.2609,-232.9436 179.8843,-230.6054 171.2324,-226.6059 171.1273,-226.6634 165.8131,-229.4217 166.7933,-358.4195 170.18,-361.4318 172.3907,-361.4318 172.8394,-361.5704 177.7133,-361.5704 178.543,-361.8232 183.2799,-361.8232 183.4514,-361.8745 187.8354,-361.8745 188.6133,-362.1165 193.7359,-362.1165 195.4531,-361.559 200.2466,-361.559 200.2876,-361.5462 205.8661,-361.5462 206.4034,-361.7116 210.7207,-361.7116 210.7207,-361.7116 206.4034,-361.7116 205.8661,-361.5462 200.2876,-361.5462 200.2466,-361.559 195.4531,-361.559 193.7359,-362.1165 188.6133,-362.1165 187.8354,-361.8745 183.4514,-361.8745 183.2799,-361.8232 178.543,-361.8232 177.7133,-361.5704 172.8394,-361.5704 172.3907,-361.4318 170.18,-361.4318 166.7933,-358.4195 165.8131,-229.4217 164.4563,-230.0875 152.0552,-235.8271 146.1635,-238.2202 132.7345,-243.2977 130.0873,-244.2223 128.2909,-244.7986 117.8371,-247.5679 106.1873,-250.3261 97.088,-251.9646 84.9983,-253.4596 31.7374,-257.04 28.9109,-257.9531 -33.1262,-329.8139 -32.5612,-339.22 -31.4314,-373.0518 -31.5306,-377.9247 14.1736,-454.3338 15.6253,-463.6198 12.5535,-488.2264 1.9306,-545.7992 6.0185,-550.3977 49.1345,-601.6622 117.2041,-627.4022 130.5493,-632.8399 136.6494,-635.6765 137.9275,-564.7767 137.9275,-564.7767 136.6494,-635.6765 141.4218,-638.1758 156.8228,-646.7015 157.8458,-646.4575 177.2837,-643.1384 176.8967,-620.2876 176.8967,-620.2876 177.2837,-643.1384 187.461,-642.092 200.6254,-641.3327 210.6239,-641.2078 219.0617,-641.4838 227.4844,-641.9496 228.9325,-642.0624 235.4224,-638.4997 244.043,-634.2726 382.7976,-570.3035 383.1636,-566.7276 383.754,-559.4807 384.4895,-552.3702 385.5009,-540.07 408.9731,-499.3812 417.5085,-483.681 482.6164,-463.3678 494.1216,-460.235 499.3011,-459.0345 511.5111,-457.1843 525.6229,-456.1823 526.9139,-456.1429 526.8876,-378.1575 530.2598,-374.94 527.2998,-372.1404 527.2998,-372.1404 530.2598,-374.94 526.8876,-378.1575 526.9139,-456.1429 531.7355,-456.1894 535.4739,-456.376 536.9252,-456.3318 541.1101,-456.0351 548.5712,-456.108 554.4713,-455.9277 559.6866,-456.1888 565.9384,-455.999 580.0038,-454.4372 593.7967,-451.7927 596.8889,-451.0769 612.2504,-446.9072 612.4398,-446.2849 624.1218,-401.8706 626.4984,-387.8051 555.9713,-380.6641 552.2923,-376.635 549.5161,-375.5023 548.8113,-374.89 545.0361,-374.89 544.6546,-374.7683 544.6546,-374.7683 545.0361,-374.89 548.8113,-374.89 549.5161,-375.5023 549.5161,-375.5023"/>
<polygon fill="#ccebc5" stroke="#ccebc5" points="698.037,113.8332 698.6068,34.1803 698.6068,34.1803 698.037,113.8332 708.013,116.4084 753.174,91.947 780.0218,66.6755 804.7494,31.0764 806.9108,.8087 809.7827,-27.5854 819.9229,-91.1586 818.8865,-95.3752 819.7351,-98.6514 795.7125,-128.7345 787.0815,-138.9236 784.9992,-141.5602 776.1242,-152.0593 774.0728,-154.3077 771.6961,-156.7172 761.1227,-166.604 756.4863,-170.5481 752.834,-174.386 742.2698,-183.3383 739.087,-185.7017 733.795,-189.1016 727.314,-192.62 721.5696,-195.1595 714.1418,-197.6939 695.0118,-202.2657 691.2177,-203.5591 685.9131,-205.9202 674.6749,-212.1102 665.4594,-219.0681 664.2338,-220.1174 652.5754,-231.383 652.0765,-231.9701 637.562,-245.9782 634.3958,-249.2854 609.9828,-272.9024 557.1433,-250.8971 540.2262,-242.8282 530.2135,-237.4585 523.3976,-233.6024 518.8247,-230.7437 524.7188,-176.3226 526.4752,-154.9022 528.7103,-77.6003 531.0024,-74.3045 535.5141,-35.3051 537.2257,-16.421 538.1343,-2.5066 538.4806,6.1697 606.0725,92.1197 658.743,108.2466 664.3395,108.5393 666.1725,108.7294 677.1556,110.1524 683.4462,111.1295 695.6338,113.3367 698.037,113.8332 698.037,113.8332"/>
<polyline fill="none" stroke="#000000" points="896.8345,-793.0995 902.985,-793.9749 904.8588,-793.9995 905.1985,-793.9794 917.6252,-793.8944 926.9012,-794.0732 934.8329,-794.847 948.8586,-796.5826 1035.5177,-740.4717 1043.4163,-713.5267 1048.3446,-682.8292 1050.1924,-673.061 1055.2305,-652.6059 1014.5711,-556.6176 1064.2864,-472.1419 1060.3547,-462.0996 1044.3707,-414.9508 1045.7694,-353.58 1049.9644,-315.0599 1043.9568,-303.2465 977.7078,-240.8496 977.3248,-239.9687 941.419,-196.8112 889.8467,-177.4678 819.7351,-98.6514 795.7125,-128.7345 787.0815,-138.9236 784.9992,-141.5602 776.1242,-152.0593 774.0728,-154.3077 771.6961,-156.7172 761.1227,-166.604 756.4863,-170.5481 752.834,-174.386 742.2698,-183.3383 739.087,-185.7017 733.795,-189.1016 727.314,-192.62 721.5696,-195.1595 714.1418,-197.6939 695.0118,-202.2657 691.2177,-203.5591 685.9131,-205.9202 674.6749,-212.1102 665.4594,-219.0681 664.2338,-220.1174 652.5754,-231.383 652.0765,-231.9701 637.562,-245.9782 634.3958,-249.2854 609.9828,-272.9024 632.2474,-301.5561 635.3815,-327.1846 637.1024,-347.2632 630.6819,-368.3557 626.4984,-387.8051 624.1218,-401.8706 612.4398,-446.2849 612.2504,-446.9072 596.8889,-451.0769 593.7967,-451.7927 580.0038,-454.4372 565.9384,-455.999 559.6866,-456.1888 554.4713,-455.9277 548.5712,-456.108 541.1101,-456.0351 536.9252,-456.3318 535.4739,-456.376 531.7355,-456.1894 526.9139,-456.1429 525.6229,-456.1823 511.5111,-457.1843 499.3011,-459.0345 494.1216,-460.235 482.6164,-463.3678 417.5085,-483.681 408.9731,-499.3812 385.5009,-540.07 384.4895,-552.3702 383.754,-559.4807 383.1636,-566.7276 382.7976,-570.3035 429.2371,-625.6796 499.4546,-658.3114 521.2672,-690.526 589.8779,-758.811 618.8491,-761.1637 620.7237,-760.4803 628.957,-758.096 639.5591,-755.289 649.0602,-753.0117 659.4916,-751.2933 665.9484,-750.3907 681.9613,-748.5528 721.6732,-744.996 734.8873,-749.4306 799.1559,-799.8265 842.9135,-793.2018 859.0477,-791.6199 860.965,-791.5346 877.6748,-791.6821 883.0621,-791.8736 896.8345,-793.0995 "/>
<polyline fill="none" stroke="#000000" points="326.2065,-294.3239 387.7949,-308.1902 470.8172,-249.0279 483.3184,-245.0344 492.6105,-241.8185 493.0671,-241.6484 510.7253,-234.597 511.1107,-234.4331 518.8247,-230.7437 523.3976,-233.6024 530.2135,-237.4585 540.2262,-242.8282 557.1433,-250.8971 609.9828,-272.9024 632.2474,-301.5561 635.3815,-327.1846 637.1024,-347.2632 630.6819,-368.3557 626.4984,-387.8051 624.1218,-401.8706 612.4398,-446.2849 612.2504,-446.9072 596.8889,-451.0769 593.7967,-451.7927 580.0038,-454.4372 565.9384,-455.999 559.6866,-456.1888 554.4713,-455.9277 548.5712,-456.108 541.1101,-456.0351 536.9252,-456.3318 535.4739,-456.376 531.7355,-456.1894 526.9139,-456.1429 525.6229,-456.1823 511.5111,-457.1843 499.3011,-459.0345 494.1216,-460.235 482.6164,-463.3678 417.5085,-483.681 408.9731,-499.3812 385.5009,-540.07 384.4895,-552.3702 383.754,-559.4807 383.1636,-566.7276 382.7976,-570.3035 244.043,-634.2726 235.4224,-638.4997 228.9325,-642.0624 227.4844,-641.9496 219.0617,-641.4838 210.6239,-641.2078 200.6254,-641.3327 187.461,-642.092 177.2837,-643.1384 157.8458,-646.4575 156.8228,-646.7015 141.4218,-638.1758 136.6494,-635.6765 130.5493,-632.8399 117.2041,-627.4022 49.1345,-601.6622 6.0185,-550.3977 1.9306,-545.7992 12.5535,-488.2264 15.6253,-463.6198 14.1736,-454.3338 -31.5306,-377.9247 -31.4314,-373.0518 -32.5612,-339.22 -33.1262,-329.8139 28.9109,-257.9531 31.7374,-257.04 84.9983,-253.4596 97.088,-251.9646 106.1873,-250.3261 117.8371,-247.5679 128.2909,-244.7986 130.0873,-244.2223 132.7345,-243.2977 146.1635,-238.2202 152.0552,-235.8271 164.4563,-230.0875 165.8131,-229.4217 171.1273,-226.6634 171.2324,-226.6059 179.8843,-230.6054 185.2609,-232.9436 193.0063,-236.1 197.639,-237.7352 203.0155,-239.4879 212.8587,-242.4312 227.359,-245.9804 237.7138,-247.9493 239.5837,-248.2537 274.2922,-252.9608 326.2065,-294.3239 "/>
<polyline fill="none" stroke="#000000" points="664.2338,-220.1174 665.4594,-219.0681 674.6749,-212.1102 685.9131,-205.9202 691.2177,-203.5591 695.0118,-202.2657 714.1418,-197.6939 721.5696,-195.1595 727.314,-192.62 733.795,-189.1016 739.087,-185.7017 742.2698,-183.3383 752.834,-174.386 756.4863,-170.5481 761.1227,-166.604 771.6961,-156.7172 774.0728,-154.3077 776.1242,-152.0593 784.9992,-141.5602 787.0815,-138.9236 795.7125,-128.7345 819.7351,-98.6514 818.8865,-95.3752 819.9229,-91.1586 809.7827,-27.5854 806.9108,.8087 804.7494,31.0764 780.0218,66.6755 753.174,91.947 708.013,116.4084 698.037,113.8332 695.6338,113.3367 683.4462,111.1295 677.1556,110.1524 666.1725,108.7294 664.3395,108.5393 658.743,108.2466 606.0725,92.1197 538.4806,6.1697 538.1343,-2.5066 537.2257,-16.421 535.5141,-35.3051 531.0024,-74.3045 528.7103,-77.6003 526.4752,-154.9022 524.7188,-176.3226 518.8247,-230.7437 523.3976,-233.6024 530.2135,-237.4585 540.2262,-242.8282 557.1433,-250.8971 609.9828,-272.9024 634.3958,-249.2854 637.562,-245.9782 652.0765,-231.9701 652.5754,-231.383 664.2338,-220.1174 "/>
<!-- libstoraged&#45;devel&#45;&gt;libstoraged -->
<g id="edge1" class="edge">
<title>libstoraged&#45;devel&#45;&gt;libstoraged</title>
<path fill="none" stroke="#444444" stroke-opacity="0.333333" d="M860.9002,-658.2561C856.1945,-655.2599 851.2547,-652.1146 846.3746,-649.0073"/>
<polygon fill="#444444" fill-opacity="0.333333" stroke="#444444" stroke-opacity="0.333333" points="848.0336,-645.9144 837.7185,-643.4957 844.2739,-651.819 848.0336,-645.9144"/>
</g>
<!-- libstoragemgmt&#45;&gt;python3&#45;libstoragemgmt -->
<g id="edge2" class="edge">
<title>libstoragemgmt&#45;&gt;python3&#45;libstoragemgmt</title>
<path fill="none" stroke="#444444" stroke-opacity="0.333333" d="M252.1736,-423.9319C234.9354,-440.1601 212.519,-464.0189 197.3657,-482.2637"/>
<polygon fill="#444444" fill-opacity="0.333333" stroke="#444444" stroke-opacity="0.333333" points="194.5147,-480.2234 190.9591,-490.2039 199.9625,-484.6191 194.5147,-480.2234"/>
</g>
<!-- libstoragemgmt&#45;&gt;yajl -->
<g id="edge3" class="edge">
<title>libstoragemgmt&#45;&gt;yajl</title>
<path fill="none" stroke="#444444" stroke-opacity="0.333333" d="M190.616,-421.524C186.6852,-422.2382 182.8245,-422.9398 179.0865,-423.619"/>
<polygon fill="#444444" fill-opacity="0.333333" stroke="#444444" stroke-opacity="0.333333" points="178.1342,-420.2346 168.9211,-425.4661 179.3857,-427.1218 178.1342,-420.2346"/>
</g>
<!-- python3&#45;libstoragemgmt&#45;&gt;libstoragemgmt -->
<g id="edge4" class="edge">
<title>python3&#45;libstoragemgmt&#45;&gt;libstoragemgmt</title>
<path fill="none" stroke="#444444" stroke-opacity="0.333333" d="M205.5064,-490.1381C222.7446,-473.9099 245.161,-450.0511 260.3143,-431.8063"/>
<polygon fill="#444444" fill-opacity="0.333333" stroke="#444444" stroke-opacity="0.333333" points="263.1653,-433.8466 266.7209,-423.8661 257.7175,-429.4509 263.1653,-433.8466"/>
</g>
<!-- python3&#45;libstoragemgmt&#45;&gt;python3&#45;libstoragemgmt&#45;clibs -->
<g id="edge5" class="edge">
<title>python3&#45;libstoragemgmt&#45;&gt;python3&#45;libstoragemgmt&#45;clibs</title>
<path fill="none" stroke="#444444" stroke-opacity="0.333333" d="M178.3123,-489.9843C174.9558,-464.8621 168.8802,-419.3888 164.9422,-389.9137"/>
<polygon fill="#444444" fill-opacity="0.333333" stroke="#444444" stroke-opacity="0.333333" points="168.3906,-389.2941 163.597,-379.8457 161.4522,-390.2212 168.3906,-389.2941"/>
</g>
<!-- python3&#45;libstoragemgmt&#45;clibs&#45;&gt;libstoragemgmt -->
<g id="edge6" class="edge">
<title>python3&#45;libstoragemgmt&#45;clibs&#45;&gt;libstoragemgmt</title>
<path fill="none" stroke="#444444" stroke-opacity="0.333333" d="M208.5998,-379.8575C212.3553,-381.2855 216.1715,-382.7367 219.9824,-384.1857"/>
<polygon fill="#444444" fill-opacity="0.333333" stroke="#444444" stroke-opacity="0.333333" points="218.8155,-387.4865 229.4066,-387.7693 221.3035,-380.9435 218.8155,-387.4865"/>
</g>
<!-- python3&#45;libstoragemgmt&#45;clibs&#45;&gt;yajl -->
<g id="edge7" class="edge">
<title>python3&#45;libstoragemgmt&#45;clibs&#45;&gt;yajl</title>
<path fill="none" stroke="#444444" stroke-opacity="0.333333" d="M154.6268,-380.1113C152.0655,-387.2457 149.0713,-395.5858 146.2506,-403.4427"/>
<polygon fill="#444444" fill-opacity="0.333333" stroke="#444444" stroke-opacity="0.333333" points="142.901,-402.4147 142.8161,-413.0092 149.4893,-404.78 142.901,-402.4147"/>
</g>
<!-- ntfsprogs&#45;&gt;ntfs&#45;3g -->
<g id="edge8" class="edge">
<title>ntfsprogs&#45;&gt;ntfs&#45;3g</title>
<path fill="none" stroke="#444444" stroke-opacity="0.333333" d="M670.9937,-143.7623C672.9245,-119.201 676.3797,-75.2474 678.6511,-46.3541"/>
<polygon fill="#444444" fill-opacity="0.333333" stroke="#444444" stroke-opacity="0.333333" points="682.1634,-46.3332 679.458,-36.0896 675.1849,-45.7845 682.1634,-46.3332"/>
</g>
<!-- storaged&#45;bcache&#45;&gt;libgudev -->
<g id="edge9" class="edge">
<title>storaged&#45;bcache&#45;&gt;libgudev</title>
<path fill="none" stroke="#444444" stroke-opacity="0.333333" d="M766.5721,-476.8949C762.5581,-453.1391 755.507,-411.4086 750.8047,-383.5786"/>
<polygon fill="#444444" fill-opacity="0.333333" stroke="#444444" stroke-opacity="0.333333" points="754.2459,-382.9367 749.1287,-373.6596 747.3437,-384.103 754.2459,-382.9367"/>
</g>
<!-- storaged&#45;bcache&#45;&gt;storaged -->
<g id="edge10" class="edge">
<title>storaged&#45;bcache&#45;&gt;storaged</title>
<path fill="none" stroke="#444444" stroke-opacity="0.333333" d="M758.0918,-477.078C751.5086,-466.7821 743.1381,-453.6911 735.806,-442.2241"/>
<polygon fill="#444444" fill-opacity="0.333333" stroke="#444444" stroke-opacity="0.333333" points="738.5382,-439.9999 730.2024,-433.4604 732.6407,-443.7708 738.5382,-439.9999"/>
</g>
<!-- storaged&#45;&gt;libstoraged -->
<g id="edge11" class="edge">
<title>storaged&#45;&gt;libstoraged</title>
<path fill="none" stroke="#444444" stroke-opacity="0.333333" d="M726.5756,-433.7131C742.54,-470.6602 778.7338,-554.4252 797.5614,-597.9989"/>
<polygon fill="#444444" fill-opacity="0.333333" stroke="#444444" stroke-opacity="0.333333" points="794.4479,-599.6173 801.6273,-607.4087 800.8737,-596.8407 794.4479,-599.6173"/>
</g>
<!-- storaged&#45;&gt;ntfsprogs -->
<g id="edge12" class="edge">
<title>storaged&#45;&gt;ntfsprogs</title>
<path fill="none" stroke="#444444" stroke-opacity="0.333333" d="M715.1474,-397.2132C706.6685,-353.4656 685.1195,-242.2811 674.9847,-189.9894"/>
<polygon fill="#444444" fill-opacity="0.333333" stroke="#444444" stroke-opacity="0.333333" points="678.3994,-189.213 673.0606,-180.0616 671.5273,-190.5449 678.3994,-189.213"/>
</g>
<!-- storaged&#45;&gt;libgudev -->
<g id="edge13" class="edge">
<title>storaged&#45;&gt;libgudev</title>
<path fill="none" stroke="#444444" stroke-opacity="0.333333" d="M726.8889,-397.42C728.9991,-392.7878 731.3172,-387.6991 733.5897,-382.7105"/>
<polygon fill="#444444" fill-opacity="0.333333" stroke="#444444" stroke-opacity="0.333333" points="736.8764,-383.9385 737.8369,-373.3873 730.5062,-381.0365 736.8764,-383.9385"/>
</g>
<!-- storaged&#45;&gt;cryptsetup -->
<g id="edge14" class="edge">
<title>storaged&#45;&gt;cryptsetup</title>
<path fill="none" stroke="#444444" stroke-opacity="0.333333" d="M712.066,-433.7832C698.9393,-470.1884 669.5324,-551.7449 654.0757,-594.6123"/>
<polygon fill="#444444" fill-opacity="0.333333" stroke="#444444" stroke-opacity="0.333333" points="650.7423,-593.5386 650.6428,-604.133 657.3273,-595.913 650.7423,-593.5386"/>
</g>
<!-- storaged&#45;&gt;libatasmart -->
<g id="edge15" class="edge">
<title>storaged&#45;&gt;libatasmart</title>
<path fill="none" stroke="#444444" stroke-opacity="0.333333" d="M695.3986,-433.6732C668.5237,-454.7206 624.201,-489.4326 594.3618,-512.8016"/>
<polygon fill="#444444" fill-opacity="0.333333" stroke="#444444" stroke-opacity="0.333333" points="592.0712,-510.15 586.3563,-519.0713 596.3872,-515.661 592.0712,-510.15"/>
</g>
<!-- storaged&#45;btrfs&#45;&gt;libgudev -->
<g id="edge16" class="edge">
<title>storaged&#45;btrfs&#45;&gt;libgudev</title>
<path fill="none" stroke="#444444" stroke-opacity="0.333333" d="M811.8513,-354.601C811.3654,-354.6067 810.8799,-354.6125 810.3952,-354.6182"/>
<polygon fill="#444444" fill-opacity="0.333333" stroke="#444444" stroke-opacity="0.333333" points="810.2962,-351.119 800.3384,-354.7372 810.3791,-358.1185 810.2962,-351.119"/>
</g>
<!-- storaged&#45;btrfs&#45;&gt;storaged -->
<g id="edge17" class="edge">
<title>storaged&#45;btrfs&#45;&gt;storaged</title>
<path fill="none" stroke="#444444" stroke-opacity="0.333333" d="M845.722,-371.6388C825.3608,-378.6588 801.8769,-386.7556 780.6812,-394.0634"/>
<polygon fill="#444444" fill-opacity="0.333333" stroke="#444444" stroke-opacity="0.333333" points="779.4361,-390.7904 771.1231,-397.3588 781.7178,-397.4081 779.4361,-390.7904"/>
</g>
<!-- storaged&#45;iscsi&#45;&gt;libgudev -->
<g id="edge18" class="edge">
<title>storaged&#45;iscsi&#45;&gt;libgudev</title>
<path fill="none" stroke="#444444" stroke-opacity="0.333333" d="M807.8541,-312.934C799.3839,-318.7502 789.8757,-325.2792 780.9037,-331.4401"/>
<polygon fill="#444444" fill-opacity="0.333333" stroke="#444444" stroke-opacity="0.333333" points="778.7796,-328.6529 772.5172,-337.1988 782.7421,-334.4234 778.7796,-328.6529"/>
</g>
<!-- storaged&#45;iscsi&#45;&gt;storaged -->
<g id="edge19" class="edge">
<title>storaged&#45;iscsi&#45;&gt;storaged</title>
<path fill="none" stroke="#444444" stroke-opacity="0.333333" d="M817.033,-312.81C797.4416,-333.2534 765.3843,-366.7048 743.2203,-389.8326"/>
<polygon fill="#444444" fill-opacity="0.333333" stroke="#444444" stroke-opacity="0.333333" points="740.5074,-387.6049 736.1153,-397.2465 745.5614,-392.4482 740.5074,-387.6049"/>
</g>
<!-- storaged&#45;lsm&#45;&gt;libstoragemgmt -->
<g id="edge20" class="edge">
<title>storaged&#45;lsm&#45;&gt;libstoragemgmt</title>
<path fill="none" stroke="#444444" stroke-opacity="0.333333" d="M445.5083,-384.533C422.7147,-387.4139 397.3784,-390.6162 373.4191,-393.6445"/>
<polygon fill="#444444" fill-opacity="0.333333" stroke="#444444" stroke-opacity="0.333333" points="372.7287,-390.2038 363.2465,-394.9302 373.6065,-397.1486 372.7287,-390.2038"/>
</g>
<!-- storaged&#45;lsm&#45;&gt;libgudev -->
<g id="edge21" class="edge">
<title>storaged&#45;lsm&#45;&gt;libgudev</title>
<path fill="none" stroke="#444444" stroke-opacity="0.333333" d="M596.6209,-368.399C624.3496,-365.9829 655.4484,-363.2733 682.065,-360.9542"/>
<polygon fill="#444444" fill-opacity="0.333333" stroke="#444444" stroke-opacity="0.333333" points="682.3719,-364.4408 692.0303,-360.0859 681.7642,-357.4672 682.3719,-364.4408"/>
</g>
<!-- storaged&#45;lsm&#45;&gt;storaged -->
<g id="edge22" class="edge">
<title>storaged&#45;lsm&#45;&gt;storaged</title>
<path fill="none" stroke="#444444" stroke-opacity="0.333333" d="M596.6361,-390.4494C615.8446,-394.3827 636.2963,-398.5705 654.8572,-402.3712"/>
<polygon fill="#444444" fill-opacity="0.333333" stroke="#444444" stroke-opacity="0.333333" points="654.1643,-405.8018 664.6632,-404.3791 655.5686,-398.9441 654.1643,-405.8018"/>
</g>
<!-- storaged&#45;lvm2&#45;&gt;libgudev -->
<g id="edge23" class="edge">
<title>storaged&#45;lvm2&#45;&gt;libgudev</title>
<path fill="none" stroke="#444444" stroke-opacity="0.333333" d="M860.7798,-426.3935C838.6984,-412.7271 808.1522,-393.8218 784.1286,-378.9533"/>
<polygon fill="#444444" fill-opacity="0.333333" stroke="#444444" stroke-opacity="0.333333" points="785.9458,-375.9619 775.6006,-373.6753 782.2619,-381.9142 785.9458,-375.9619"/>
</g>
<!-- storaged&#45;lvm2&#45;&gt;storaged -->
<g id="edge24" class="edge">
<title>storaged&#45;lvm2&#45;&gt;storaged</title>
<path fill="none" stroke="#444444" stroke-opacity="0.333333" d="M809.2984,-430.7733C800.4463,-429.2755 791.5225,-427.7655 782.9074,-426.3077"/>
<polygon fill="#444444" fill-opacity="0.333333" stroke="#444444" stroke-opacity="0.333333" points="783.4023,-422.8418 772.9585,-424.6243 782.2344,-429.7437 783.4023,-422.8418"/>
</g>
<!-- storaged&#45;zram&#45;&gt;libgudev -->
<g id="edge25" class="edge">
<title>storaged&#45;zram&#45;&gt;libgudev</title>
<path fill="none" stroke="#444444" stroke-opacity="0.333333" d="M752.0293,-255.4828C750.8826,-274.609 749.0633,-304.9525 747.7305,-327.1834"/>
<polygon fill="#444444" fill-opacity="0.333333" stroke="#444444" stroke-opacity="0.333333" points="744.2252,-327.1688 747.1204,-337.3604 751.2126,-327.5878 744.2252,-327.1688"/>
</g>
<!-- storaged&#45;zram&#45;&gt;storaged -->
<g id="edge26" class="edge">
<title>storaged&#45;zram&#45;&gt;storaged</title>
<path fill="none" stroke="#444444" stroke-opacity="0.333333" d="M749.6282,-255.3524C743.6203,-286.4297 731.2859,-350.2327 724.1358,-387.2182"/>
<polygon fill="#444444" fill-opacity="0.333333" stroke="#444444" stroke-opacity="0.333333" points="720.6428,-386.8473 722.1811,-397.3298 727.5156,-388.176 720.6428,-386.8473"/>
</g>
<!-- libstoraged&#45;devel -->
<g id="node1" class="node">
<title>libstoraged&#45;devel</title>
<text text-anchor="middle" x="889.27" y="-672.62" font-family="monospace" font-size="14.00" fill="#000000">libstoraged&#45;devel</text>
</g>
<!-- libstoraged -->
<g id="node2" class="node">
<title>libstoraged</title>
<text text-anchor="middle" x="809.44" y="-621.79" font-family="monospace" font-size="14.00" fill="#000000">libstoraged</text>
</g>
<!-- libstoragemgmt -->
<g id="node3" class="node">
<title>libstoragemgmt</title>
<text text-anchor="middle" x="276.93" y="-402.14" font-family="monospace" font-size="14.00" fill="#000000">libstoragemgmt</text>
</g>
<!-- python3&#45;libstoragemgmt -->
<g id="node4" class="node">
<title>python3&#45;libstoragemgmt</title>
<text text-anchor="middle" x="180.75" y="-504.53" font-family="monospace" font-size="14.00" fill="#000000">python3&#45;libstoragemgmt</text>
</g>
<!-- yajl -->
<g id="node5" class="node">
<title>yajl</title>
<text text-anchor="middle" x="136.21" y="-427.71" font-family="monospace" font-size="14.00" fill="#000000">yajl</text>
</g>
<!-- python3&#45;libstoragemgmt&#45;clibs -->
<g id="node6" class="node">
<title>python3&#45;libstoragemgmt&#45;clibs</title>
<text text-anchor="middle" x="161.19" y="-358.13" font-family="monospace" font-size="14.00" fill="#000000">python3&#45;libstoragemgmt&#45;clibs</text>
</g>
<!-- ntfsprogs -->
<g id="node7" class="node">
<title>ntfsprogs</title>
<text text-anchor="middle" x="669.56" y="-158.3" font-family="monospace" font-size="14.00" fill="#000000">ntfsprogs</text>
</g>
<!-- ntfs&#45;3g -->
<g id="node8" class="node">
<title>ntfs&#45;3g</title>
<text text-anchor="middle" x="680.88" y="-14.3" font-family="monospace" font-size="14.00" fill="#000000">ntfs&#45;3g</text>
</g>
<!-- storaged&#45;bcache -->
<g id="node9" class="node">
<title>storaged&#45;bcache</title>
<text text-anchor="middle" x="769.66" y="-491.47" font-family="monospace" font-size="14.00" fill="#000000">storaged&#45;bcache</text>
</g>
<!-- libgudev -->
<g id="node10" class="node">
<title>libgudev</title>
<text text-anchor="middle" x="746.04" y="-351.68" font-family="monospace" font-size="14.00" fill="#000000">libgudev</text>
</g>
<!-- storaged -->
<g id="node11" class="node">
<title>storaged</title>
<text text-anchor="middle" x="718.68" y="-411.74" font-family="monospace" font-size="14.00" fill="#000000">storaged</text>
</g>
<!-- cryptsetup -->
<g id="node12" class="node">
<title>cryptsetup</title>
<text text-anchor="middle" x="644.15" y="-618.44" font-family="monospace" font-size="14.00" fill="#000000">cryptsetup</text>
</g>
<!-- libatasmart -->
<g id="node13" class="node">
<title>libatasmart</title>
<text text-anchor="middle" x="563.17" y="-533.53" font-family="monospace" font-size="14.00" fill="#000000">libatasmart</text>
</g>
<!-- storaged&#45;btrfs -->
<g id="node14" class="node">
<title>storaged&#45;btrfs</title>
<text text-anchor="middle" x="898.1" y="-349.88" font-family="monospace" font-size="14.00" fill="#000000">storaged&#45;btrfs</text>
</g>
<!-- storaged&#45;iscsi -->
<g id="node15" class="node">
<title>storaged&#45;iscsi</title>
<text text-anchor="middle" x="834.35" y="-291.04" font-family="monospace" font-size="14.00" fill="#000000">storaged&#45;iscsi</text>
</g>
<!-- storaged&#45;lsm -->
<g id="node16" class="node">
<title>storaged&#45;lsm</title>
<text text-anchor="middle" x="521.09" y="-371.28" font-family="monospace" font-size="14.00" fill="#000000">storaged&#45;lsm</text>
</g>
<!-- storaged&#45;lvm2 -->
<g id="node17" class="node">
<title>storaged&#45;lvm2</title>
<text text-anchor="middle" x="889.89" y="-440.71" font-family="monospace" font-size="14.00" fill="#000000">storaged&#45;lvm2</text>
</g>
<!-- storaged&#45;zram -->
<g id="node18" class="node">
<title>storaged&#45;zram</title>
<text text-anchor="middle" x="753.12" y="-233.59" font-family="monospace" font-size="14.00" fill="#000000">storaged&#45;zram</text>
</g>
</g>
</svg>
