<?xml version="1.0" encoding="UTF-8" standalone="no"?>
<!DOCTYPE svg PUBLIC "-//W3C//DTD SVG 1.1//EN"
 "http://www.w3.org/Graphics/SVG/1.1/DTD/svg11.dtd">
<!-- Generated by graphviz version 2.40.1 (20161225.0304)
 -->
<!-- Title: G Pages: 1 -->
<svg width="2013pt" height="947pt"
 viewBox="0.00 0.00 2013.44 947.42" xmlns="http://www.w3.org/2000/svg" xmlns:xlink="http://www.w3.org/1999/xlink">
<g id="graph0" class="graph" transform="scale(1 1) rotate(0) translate(87.8897 796.9401)">
<title>G</title>
<polygon fill="#dae2ff" stroke="transparent" points="-87.8897,150.4809 -87.8897,-796.9401 1925.5474,-796.9401 1925.5474,150.4809 -87.8897,150.4809"/>
<polygon fill="#fbb4ae" stroke="#fbb4ae" points="779.1096,-105.7835 818.0245,-62.4973 910.0536,43.965 980.1388,63.7817 982.5692,64.519 1005.0898,72.7739 1008.6733,74.2355 1013.2992,73.9674 1012.9125,-37.0521 1009.5101,-92.6965 1006.6372,-95.4176 1010.1622,-98.8337 1015.6545,-100.5528 1021.275,-98.808 1024.7659,-95.5415 1027.4281,-95.5415 1027.4559,-95.5329 1031.6121,-95.5329 1032.2274,-95.7277 1037.7141,-95.7277 1041.8553,-142.429 1042.2274,-169.6714 1046.3108,-169.4263 1050.2156,-99.221 1055.5364,-102.2047 1064.5345,-98.8704 1118.3588,-102.1975 1086.4489,-151.8396 1143.8293,-161.1407 1146.712,-164.4478 1149.8783,-165.5827 1147.5961,-92.2431 1155.3093,-92.3451 1155.3225,-166.7141 1161.1643,-166.7141 1161.317,-166.6666 1165.9962,-166.6666 1166.9441,-166.966 1171.5173,-166.966 1173.3097,-166.3868 1177.275,-166.3868 1178.6155,-168.1063 1183.4078,-171.0444 1183.4078,-171.0444 1178.6155,-168.1063 1177.275,-166.3868 1177.7209,-165.8433 1183.5536,-162.1975 1189.1881,-162.1975 1195.5901,-166.4793 1194.5247,-167.9001 1197.4106,-203.5188 1201.9044,-166.5561 1205.6931,-166.5561 1211.1477,-105.8897 1211.6152,-92.4886 1212.2465,-92.4987 1224.5165,-92.1578 1227.5957,-92.2078 1230.0325,-92.1411 1230.3176,-92.1582 1234.761,-92.2323 1234.761,-92.2323 1230.3176,-92.1582 1230.0325,-92.1411 1229.4598,-66.8302 1224.8573,-17.8429 1225.0856,-17.7698 1230.9524,-17.7698 1231.027,-17.6321 1237.2717,-11.8275 1254.5385,-13.0104 1380.1018,5.2659 1378.3789,3.2207 1366.4449,-10.3633 1366.283,-93.0287 1363.0066,-140.1026 1369.375,-140.1026 1374.631,-143.4523 1375.5701,-144.669 1375.6111,-144.6823 1379.7227,-144.6823 1380.3536,-144.4772 1380.3536,-144.4772 1379.7227,-144.6823 1375.6111,-144.6823 1375.5701,-144.669 1374.631,-143.4523 1369.375,-140.1026 1363.0066,-140.1026 1366.283,-93.0287 1366.4449,-10.3633 1378.3789,3.2207 1380.1018,5.2659 1254.5385,-13.0104 1237.2717,-11.8275 1231.027,-17.6321 1230.9524,-17.7698 1225.0856,-17.7698 1224.8573,-17.8429 1229.4598,-66.8302 1230.0325,-92.1411 1227.5957,-92.2078 1224.5165,-92.1578 1212.2465,-92.4987 1211.6152,-92.4886 1211.1477,-105.8897 1205.6931,-166.5561 1201.9044,-166.5561 1197.4106,-203.5188 1194.5247,-167.9001 1195.5901,-166.4793 1189.1881,-162.1975 1183.5536,-162.1975 1177.7209,-165.8433 1177.275,-166.3868 1173.3097,-166.3868 1171.5173,-166.966 1166.9441,-166.966 1165.9962,-166.6666 1161.317,-166.6666 1161.1643,-166.7141 1155.3225,-166.7141 1155.3093,-92.3451 1147.5961,-92.2431 1149.8783,-165.5827 1146.712,-164.4478 1143.8293,-161.1407 1086.4489,-151.8396 1118.3588,-102.1975 1064.5345,-98.8704 1055.5364,-102.2047 1050.2156,-99.221 1046.3108,-169.4263 1042.2274,-169.6714 1041.8553,-142.429 1044.7441,-95.3473 1047.7286,-95.3473 1049.7816,-93.8043 1052.6276,-92.986 1055.5392,-89.9314 1058.3544,11.4967 1067.0786,.7255 1087.1519,-25.8894 1128.4027,-22.8615 1156.877,-24.1116 1159.0341,-55.144 1163.9524,-18.2031 1167.8695,-18.2031 1167.8695,-18.2031 1163.9524,-18.2031 1159.0341,-55.144 1156.877,-24.1116 1128.4027,-22.8615 1087.1519,-25.8894 1067.0786,.7255 1058.3544,11.4967 1055.5392,-89.9314 1052.6276,-92.986 1049.7816,-93.8043 1047.7286,-95.3473 1044.7441,-95.3473 1044.6248,-95.309 1044.6248,-95.309 1044.7441,-95.3473 1041.8553,-142.429 1037.7141,-95.7277 1032.2274,-95.7277 1031.6121,-95.5329 1027.4559,-95.5329 1027.4281,-95.5415 1024.7659,-95.5415 1021.275,-98.808 1015.6545,-100.5528 1010.1622,-98.8337 1006.6372,-95.4176 1009.5101,-92.6965 1012.9125,-37.0521 1013.2992,73.9674 1016.8833,73.8875 1136.5125,137.1865 1149.4723,141.0896 1149.702,141.0526 1171.0837,138.027 1174.8329,137.5708 1195.2456,136.6894 1203.4473,136.4967 1210.1692,136.6029 1234.5504,138.4277 1294.787,146.4809 1394.105,21.5329 1395.3287,21.2501 1395.5322,21.207 1400.9467,20.1634 1501.3293,2.7344 1582.8202,89.9006 1670.0565,121.1988 1670.9359,32.6828 1674.8788,-37.9159 1675.0813,-37.9805 1679.4402,-37.9805 1680.4076,-37.6729 1685.2104,-37.6729 1685.6965,-37.8283 1690.9368,-37.8283 1691.2156,-37.919 1691.2156,-37.919 1690.9368,-37.8283 1685.6965,-37.8283 1685.2104,-37.6729 1680.4076,-37.6729 1679.4402,-37.9805 1675.0813,-37.9805 1674.8788,-37.9159 1670.9359,32.6828 1670.0565,121.1988 1673.9976,122.783 1689.9039,129.5254 1714.3835,141.4912 1716.4688,142.6427 1717.088,143.0119 1731.5991,141.7486 1741.0442,140.0387 1754.9551,138.4737 1756.2852,1.7908 1756.2852,1.7908 1754.9551,138.4737 1770.3756,137.2661 1771.431,136.644 1855.3372,89.1069 1896.9192,31.3591 1908.2781,-34.6399 1910.4519,-44.683 1920.8606,-88.3086 1921.5474,-146.941 1817.4764,-217.0562 1812.6741,-219.2377 1762.1516,-311.6756 1687.4185,-375.0798 1703.668,-491.6847 1708.4849,-517.9196 1714.5369,-547.406 1631.994,-635.3139 1570.2001,-666.6023 1546.8202,-678.9871 1548.511,-585.4286 1548.4462,-582.1851 1548.4462,-582.1851 1548.511,-585.4286 1546.8202,-678.9871 1543.6019,-680.9092 1541.2229,-685.4232 1493.7355,-752.2545 1396.5752,-792.5767 1386.8827,-601.3319 1485.2195,-604.063 1497.65,-617.7658 1499.6085,-620.0443 1507.0332,-629.1536 1520.5811,-646.6231 1520.7532,-574.2711 1521.3066,-562.5029 1527.1477,-504.9805 1532.1415,-504.9805 1538.4532,-500.869 1538.752,-500.4847 1537.9897,-499.462 1532.5249,-495.8876 1532.5249,-495.8876 1537.9897,-499.462 1538.752,-500.4847 1538.4532,-500.869 1532.1415,-504.9805 1527.1477,-504.9805 1521.3066,-562.5029 1520.7532,-574.2711 1520.5811,-646.6231 1507.0332,-629.1536 1499.6085,-620.0443 1497.65,-617.7658 1485.2195,-604.063 1386.8827,-601.3319 1396.5752,-792.5767 1395.7366,-792.9401 1368.4243,-778.9261 1368.4985,-766.8826 1368.7839,-760.1085 1368.7839,-760.1085 1368.4985,-766.8826 1368.4243,-778.9261 1352.7944,-772.4946 1349.9081,-643.9526 1352.246,-598.6653 1357.5344,-600.362 1357.5344,-600.362 1352.246,-598.6653 1349.9081,-643.9526 1352.7944,-772.4946 1330.9531,-764.3846 1332.5188,-691.8624 1328.4242,-601.4362 1328.4242,-601.4362 1332.5188,-691.8624 1330.9531,-764.3846 1288.8022,-751.3147 1175.3623,-652.8865 1139.6216,-654.0161 1129.1226,-654.5435 1121.2175,-655.0878 1115.2747,-655.6075 1113.5514,-655.7903 1106.9508,-656.613 1082.6986,-660.9987 1086.0883,-533.4415 1090.6896,-492.0464 1095.1871,-494.7735 1101.1445,-494.7735 1107.4675,-490.5685 1107.5479,-490.4643 1107.0918,-489.849 1107.0918,-489.849 1107.5479,-490.4643 1107.4675,-490.5685 1101.1445,-494.7735 1095.1871,-494.7735 1090.6896,-492.0464 1086.0883,-533.4415 1082.6986,-660.9987 1069.3373,-663.9103 1069.0306,-663.8691 1066.395,-663.6549 1028.2482,-661.2254 929.8553,-599.7988 918.6792,-586.0272 890.1667,-490.29 888.2283,-484.8613 987.9183,-367.5845 975.1453,-329.9685 958.0162,-268.7231 952.7236,-247.1249 1046.5752,-245.9614 1057.8583,-249.5173 1063.5305,-245.6933 1065.2594,-242.6854 1069.8451,-242.6854 1069.8594,-242.6806 1072.7964,-242.6806 1076.0403,-239.5051 1081.317,-237.8265 1088.3656,-240.254 1091.0824,-242.8975 1093.146,-242.8975 1100.049,-340.3717 1101.0107,-366.4255 1103.3433,-366.469 1110.0526,-366.7697 1110.9229,-366.7213 1144.8417,-313.2225 1218.6379,-316.8042 1220.1619,-365.8813 1225.5649,-311.2102 1226.1533,-310.7094 1229.4812,-310.7094 1230.6858,-311.1126 1233.7646,-311.1126 1236.4448,-313.6792 1242.5558,-315.6834 1248.6776,-313.6273 1251.569,-310.7086 1254.58,-310.7086 1255.6641,-399.3087 1254.5835,-441.8593 1271.4376,-454.8994 1275.0121,-457.7939 1333.7906,-445.464 1345.3627,-442.2744 1356.901,-438.5838 1357.0618,-438.5288 1439.8975,-329.8599 1489.5648,-342.4793 1503.0518,-345.6275 1511.3264,-347.386 1520.3335,-348.9232 1536.493,-351.3427 1542.9819,-352.041 1558.5593,-352.7408 1563.1693,-352.755 1568.2898,-209.7304 1569.6631,-207.9708 1573.2941,-206.604 1577.7533,-260.5739 1580.0801,-205.4466 1585.1497,-205.4466 1587.8126,-268.9135 1591.8008,-206.3934 1596.7166,-209.5242 1603.3813,-209.5242 1608.5958,-206.2454 1609.2253,-205.4477 1613.8057,-205.4477 1613.8057,-205.4477 1609.2253,-205.4477 1608.5958,-206.2454 1603.3813,-209.5242 1596.7166,-209.5242 1591.8008,-206.3934 1587.8126,-268.9135 1585.1497,-205.4466 1580.0801,-205.4466 1577.7533,-260.5739 1573.2941,-206.604 1569.6631,-207.9708 1568.2898,-209.7304 1563.1693,-352.755 1558.5593,-352.7408 1542.9819,-352.041 1536.493,-351.3427 1520.3335,-348.9232 1511.3264,-347.386 1503.0518,-345.6275 1489.5648,-342.4793 1439.8975,-329.8599 1357.0618,-438.5288 1356.901,-438.5838 1345.3627,-442.2744 1333.7906,-445.464 1275.0121,-457.7939 1271.4376,-454.8994 1254.5835,-441.8593 1255.6641,-399.3087 1254.58,-310.7086 1251.569,-310.7086 1248.8344,-307.924 1248.8344,-307.924 1251.569,-310.7086 1248.6776,-313.6273 1242.5558,-315.6834 1236.4448,-313.6792 1233.7646,-311.1126 1230.6858,-311.1126 1229.4812,-310.7094 1226.1533,-310.7094 1225.5649,-311.2102 1220.1619,-365.8813 1218.6379,-316.8042 1144.8417,-313.2225 1110.9229,-366.7213 1110.0526,-366.7697 1103.3433,-366.469 1101.0107,-366.4255 1100.049,-340.3717 1093.146,-242.8975 1091.0824,-242.8975 1088.3656,-240.254 1081.317,-237.8265 1076.0403,-239.5051 1072.7964,-242.6806 1069.8594,-242.6806 1069.8451,-242.6854 1065.2594,-242.6854 1063.5305,-245.6933 1057.8583,-249.5173 1046.5752,-245.9614 952.7236,-247.1249 948.7486,-234.2317 942.1115,-214.6859 862.2254,-170.0809 844.8283,-159.3087 823.7116,-144.3291 822.5886,-143.4671 803.9852,-128.0488 795.5126,-120.2636 782.4373,-108.6518 779.336,-105.9843 779.1096,-105.7835 779.1096,-105.7835"/>
<polygon fill="#fed9a6" stroke="#fed9a6" points="958.0162,-268.7231 975.1453,-329.9685 987.9183,-367.5845 888.2283,-484.8613 858.8806,-473.0522 855.0698,-471.6002 852.3553,-470.6236 845.835,-468.4153 825.5547,-462.3999 825.6884,-445.0994 832.8058,-310.539 836.0832,-307.4832 833.3179,-304.9304 833.3179,-304.9304 836.0832,-307.4832 832.8058,-310.539 825.6884,-445.0994 825.5547,-462.3999 813.6605,-459.6316 804.3383,-457.6604 804.749,-429.2997 809.6415,-307.5871 809.6415,-307.5871 804.749,-429.2997 804.3383,-457.6604 796.5067,-456.3378 793.7731,-455.9342 733.12,-448.2649 620.4573,-367.9822 506.0827,-446.6933 455.2718,-443.7567 443.7875,-443.5479 434.4315,-441.9632 430.9992,-441.6611 405.7724,-439.9506 397.0413,-439.8916 385.2509,-440.291 369.5316,-441.4627 375.5042,-295.0639 375.5042,-295.0639 369.5316,-441.4627 352.7594,-443.0526 252.6585,-511.13 236.522,-521.9551 233.965,-523.733 233.2669,-524.2357 231.5207,-525.5372 215.5597,-518.215 210.9903,-516.3952 198.1234,-511.5263 188.7116,-508.1549 173.7588,-503.7004 167.1881,-501.876 154.5082,-498.8667 155.323,-367.5046 155.323,-367.5046 154.5082,-498.8667 142.9135,-496.5834 132.9943,-495.0305 126.4305,-494.2676 108.6577,-492.5595 105.014,-492.3568 104.1547,-403.9469 104.1547,-403.9469 105.014,-492.3568 101.3593,-492.3005 92.5716,-492.3424 89.0345,-492.4306 73.1738,-487.3952 -15.4249,-461.2896 -77.0572,-352.2997 -82.823,-342.9537 -83.3195,-315.5841 -83.8897,-299.9572 16.6359,-202.2104 35.3891,-126.3195 84.8174,-69.7442 88.0101,-63.5131 149.1204,-19.9813 209.8288,4.2119 218.2074,7.7278 224.3192,6.1168 237.0276,3.2487 251.5019,.5319 268.0278,-1.6287 269.294,-1.7461 287.4045,-2.7411 288.3302,-2.7568 299.2204,-2.7354 312.0475,-2.4666 318.743,-2.1994 319.2795,-2.1679 321.4037,-88.8436 323.0681,-112.6996 323.0681,-112.6996 321.4037,-88.8436 319.2795,-2.1679 342.3842,.5085 368.2213,4.4766 400.543,6.7042 429.795,-10.3761 517.619,-111.8781 630.82,-153.1347 623.9679,-283.296 623.944,-284.7561 622.9404,-303.7205 455.5318,-295.9873 451.8723,-292.1785 449.0647,-291.2773 447.8084,-290.3008 444.6403,-290.3008 443.4526,-289.9156 439.0437,-289.9156 439.0437,-289.9156 443.4526,-289.9156 444.6403,-290.3008 447.8084,-290.3008 449.0647,-291.2773 451.8723,-292.1785 455.5318,-295.9873 622.9404,-303.7205 623.944,-284.7561 623.9679,-283.296 630.82,-153.1347 706.0092,-109.0261 779.1096,-105.7835 779.336,-105.9843 782.4373,-108.6518 795.5126,-120.2636 803.9852,-128.0488 822.5886,-143.4671 823.7116,-144.3291 844.8283,-159.3087 862.2254,-170.0809 942.1115,-214.6859 948.7486,-234.2317 952.7236,-247.1249 958.0162,-268.7231 958.0162,-268.7231"/>
<polyline fill="none" stroke="#000000" points="1716.4688,142.6427 1717.088,143.0119 1731.5991,141.7486 1741.0442,140.0387 1754.9551,138.4737 1770.3756,137.2661 1771.431,136.644 1855.3372,89.1069 1896.9192,31.3591 1908.2781,-34.6399 1910.4519,-44.683 1920.8606,-88.3086 1921.5474,-146.941 1817.4764,-217.0562 1812.6741,-219.2377 1762.1516,-311.6756 1687.4185,-375.0798 1703.668,-491.6847 1708.4849,-517.9196 1714.5369,-547.406 1631.994,-635.3139 1570.2001,-666.6023 1546.8202,-678.9871 1543.6019,-680.9092 1541.2229,-685.4232 1493.7355,-752.2545 1396.5752,-792.5767 1395.7366,-792.9401 1368.4243,-778.9261 1352.7944,-772.4946 1330.9531,-764.3846 1288.8022,-751.3147 1175.3623,-652.8865 1139.6216,-654.0161 1129.1226,-654.5435 1121.2175,-655.0878 1115.2747,-655.6075 1113.5514,-655.7903 1106.9508,-656.613 1082.6986,-660.9987 1069.3373,-663.9103 1069.0306,-663.8691 1066.395,-663.6549 1028.2482,-661.2254 929.8553,-599.7988 918.6792,-586.0272 890.1667,-490.29 888.2283,-484.8613 987.9183,-367.5845 975.1453,-329.9685 958.0162,-268.7231 952.7236,-247.1249 948.7486,-234.2317 942.1115,-214.6859 862.2254,-170.0809 844.8283,-159.3087 823.7116,-144.3291 822.5886,-143.4671 803.9852,-128.0488 795.5126,-120.2636 782.4373,-108.6518 779.336,-105.9843 779.1096,-105.7835 818.0245,-62.4973 910.0536,43.965 980.1388,63.7817 982.5692,64.519 1005.0898,72.7739 1008.6733,74.2355 1013.2992,73.9674 1016.8833,73.8875 1136.5125,137.1865 1149.4723,141.0896 1149.702,141.0526 1171.0837,138.027 1174.8329,137.5708 1195.2456,136.6894 1203.4473,136.4967 1210.1692,136.6029 1234.5504,138.4277 1294.787,146.4809 1394.105,21.5329 1395.3287,21.2501 1395.5322,21.207 1400.9467,20.1634 1501.3293,2.7344 1582.8202,89.9006 1670.0565,121.1988 1673.9976,122.783 1689.9039,129.5254 1714.3835,141.4912 1716.4688,142.6427 "/>
<polyline fill="none" stroke="#000000" points="430.9992,-441.6611 434.4315,-441.9632 443.7875,-443.5479 455.2718,-443.7567 506.0827,-446.6933 620.4573,-367.9822 733.12,-448.2649 793.7731,-455.9342 796.5067,-456.3378 804.3383,-457.6604 813.6605,-459.6316 825.5547,-462.3999 845.835,-468.4153 852.3553,-470.6236 855.0698,-471.6002 858.8806,-473.0522 888.2283,-484.8613 987.9183,-367.5845 975.1453,-329.9685 958.0162,-268.7231 952.7236,-247.1249 948.7486,-234.2317 942.1115,-214.6859 862.2254,-170.0809 844.8283,-159.3087 823.7116,-144.3291 822.5886,-143.4671 803.9852,-128.0488 795.5126,-120.2636 782.4373,-108.6518 779.336,-105.9843 779.1096,-105.7835 706.0092,-109.0261 630.82,-153.1347 517.619,-111.8781 429.795,-10.3761 400.543,6.7042 368.2213,4.4766 342.3842,.5085 319.2795,-2.1679 318.743,-2.1994 312.0475,-2.4666 299.2204,-2.7354 288.3302,-2.7568 287.4045,-2.7411 269.294,-1.7461 268.0278,-1.6287 251.5019,.5319 237.0276,3.2487 224.3192,6.1168 218.2074,7.7278 209.8288,4.2119 149.1204,-19.9813 88.0101,-63.5131 84.8174,-69.7442 35.3891,-126.3195 16.6359,-202.2104 -83.8897,-299.9572 -83.3195,-315.5841 -82.823,-342.9537 -77.0572,-352.2997 -15.4249,-461.2896 73.1738,-487.3952 89.0345,-492.4306 92.5716,-492.3424 101.3593,-492.3005 105.014,-492.3568 108.6577,-492.5595 126.4305,-494.2676 132.9943,-495.0305 142.9135,-496.5834 154.5082,-498.8667 167.1881,-501.876 173.7588,-503.7004 188.7116,-508.1549 198.1234,-511.5263 210.9903,-516.3952 215.5597,-518.215 231.5207,-525.5372 233.2669,-524.2357 233.965,-523.733 236.522,-521.9551 252.6585,-511.13 352.7594,-443.0526 369.5316,-441.4627 385.2509,-440.291 397.0413,-439.8916 405.7724,-439.9506 430.9992,-441.6611 "/>
<!-- libstoraged&#45;devel&#45;&gt;libstoraged -->
<g id="edge1" class="edge">
<title>libstoraged&#45;devel&#45;&gt;libstoraged</title>
<path fill="none" stroke="#444444" stroke-opacity="0.333333" d="M1704.1671,-56.1995C1683.525,-85.73 1642.6581,-144.1937 1618.7065,-178.4586"/>
<polygon fill="#444444" fill-opacity="0.333333" stroke="#444444" stroke-opacity="0.333333" points="1615.5778,-176.8256 1612.7172,-187.0269 1621.3151,-180.836 1615.5778,-176.8256"/>
</g>
<!-- libstoragemgmt&#45;&gt;python3&#45;libstoragemgmt -->
<g id="edge2" class="edge">
<title>libstoragemgmt&#45;&gt;python3&#45;libstoragemgmt</title>
<path fill="none" stroke="#444444" stroke-opacity="0.333333" d="M402.7267,-271.8884C382.3885,-249.0687 342.0811,-210.1507 312.7631,-184.5881"/>
<polygon fill="#444444" fill-opacity="0.333333" stroke="#444444" stroke-opacity="0.333333" points="314.6771,-181.6183 304.811,-177.7568 310.1157,-186.928 314.6771,-181.6183"/>
</g>
<!-- libstoragemgmt&#45;&gt;yajl -->
<g id="edge3" class="edge">
<title>libstoragemgmt&#45;&gt;yajl</title>
<path fill="none" stroke="#444444" stroke-opacity="0.333333" d="M361.2688,-272.0984C318.2055,-257.7536 258.7907,-237.9619 219.1833,-224.7683"/>
<polygon fill="#444444" fill-opacity="0.333333" stroke="#444444" stroke-opacity="0.333333" points="220.1561,-221.4033 209.5624,-221.5635 217.9438,-228.0446 220.1561,-221.4033"/>
</g>
<!-- python3&#45;libstoragemgmt&#45;&gt;libstoragemgmt -->
<g id="edge4" class="edge">
<title>python3&#45;libstoragemgmt&#45;&gt;libstoragemgmt</title>
<path fill="none" stroke="#444444" stroke-opacity="0.333333" d="M290.7933,-177.8016C311.1315,-200.6213 351.4389,-239.5393 380.7569,-265.1019"/>
<polygon fill="#444444" fill-opacity="0.333333" stroke="#444444" stroke-opacity="0.333333" points="378.8429,-268.0717 388.709,-271.9332 383.4043,-262.762 378.8429,-268.0717"/>
</g>
<!-- python3&#45;libstoragemgmt&#45;&gt;python3&#45;libstoragemgmt&#45;clibs -->
<g id="edge5" class="edge">
<title>python3&#45;libstoragemgmt&#45;&gt;python3&#45;libstoragemgmt&#45;clibs</title>
<path fill="none" stroke="#444444" stroke-opacity="0.333333" d="M266.2916,-177.8939C245.5723,-209.91 202.6966,-276.1628 178.6021,-313.3944"/>
<polygon fill="#444444" fill-opacity="0.333333" stroke="#444444" stroke-opacity="0.333333" points="175.4006,-311.8993 172.9059,-322.1963 181.2774,-315.7025 175.4006,-311.8993"/>
</g>
<!-- python3&#45;libstoragemgmt&#45;clibs&#45;&gt;libstoragemgmt -->
<g id="edge6" class="edge">
<title>python3&#45;libstoragemgmt&#45;clibs&#45;&gt;libstoragemgmt</title>
<path fill="none" stroke="#444444" stroke-opacity="0.333333" d="M252.5957,-322.2548C274.1948,-317.9907 297.2902,-313.4312 319.0974,-309.126"/>
<polygon fill="#444444" fill-opacity="0.333333" stroke="#444444" stroke-opacity="0.333333" points="319.8836,-312.5385 329.0163,-307.1679 318.5278,-305.671 319.8836,-312.5385"/>
</g>
<!-- python3&#45;libstoragemgmt&#45;clibs&#45;&gt;yajl -->
<g id="edge7" class="edge">
<title>python3&#45;libstoragemgmt&#45;clibs&#45;&gt;yajl</title>
<path fill="none" stroke="#444444" stroke-opacity="0.333333" d="M163.3814,-322.2797C166.0012,-300.736 170.4173,-264.421 173.4973,-239.0924"/>
<polygon fill="#444444" fill-opacity="0.333333" stroke="#444444" stroke-opacity="0.333333" points="176.9936,-239.3345 174.7264,-228.9851 170.0448,-238.4894 176.9936,-239.3345"/>
</g>
<!-- storaged&#45;bcache&#45;&gt;libgudev -->
<g id="edge8" class="edge">
<title>storaged&#45;bcache&#45;&gt;libgudev</title>
<path fill="none" stroke="#444444" stroke-opacity="0.333333" d="M1161.7639,-184.6878C1147.7703,-194.8678 1130.1105,-207.7151 1114.9483,-218.7452"/>
<polygon fill="#444444" fill-opacity="0.333333" stroke="#444444" stroke-opacity="0.333333" points="1112.8486,-215.9445 1106.821,-224.6577 1116.9666,-221.6051 1112.8486,-215.9445"/>
</g>
<!-- storaged&#45;bcache&#45;&gt;storaged -->
<g id="edge9" class="edge">
<title>storaged&#45;bcache&#45;&gt;storaged</title>
<path fill="none" stroke="#444444" stroke-opacity="0.333333" d="M1193.7051,-184.864C1203.3581,-209.6503 1220.6997,-254.179 1231.9499,-283.0665"/>
<polygon fill="#444444" fill-opacity="0.333333" stroke="#444444" stroke-opacity="0.333333" points="1228.7621,-284.526 1235.6526,-292.5741 1235.2849,-281.9856 1228.7621,-284.526"/>
</g>
<!-- storaged&#45;&gt;libstoraged -->
<g id="edge10" class="edge">
<title>storaged&#45;&gt;libstoraged</title>
<path fill="none" stroke="#444444" stroke-opacity="0.333333" d="M1296.9662,-294.6544C1359.0208,-276.3402 1460.8241,-246.295 1529.1033,-226.1438"/>
<polygon fill="#444444" fill-opacity="0.333333" stroke="#444444" stroke-opacity="0.333333" points="1530.325,-229.4325 1538.9253,-223.245 1528.3435,-222.7188 1530.325,-229.4325"/>
</g>
<!-- storaged&#45;&gt;libgudev -->
<g id="edge11" class="edge">
<title>storaged&#45;&gt;libgudev</title>
<path fill="none" stroke="#444444" stroke-opacity="0.333333" d="M1199.5818,-292.4982C1179.4815,-284.0271 1155.3864,-273.8724 1134.241,-264.9608"/>
<polygon fill="#444444" fill-opacity="0.333333" stroke="#444444" stroke-opacity="0.333333" points="1135.3324,-261.6227 1124.758,-260.9643 1132.6138,-268.0733 1135.3324,-261.6227"/>
</g>
<!-- storaged&#45;&gt;cryptsetup -->
<g id="edge12" class="edge">
<title>storaged&#45;&gt;cryptsetup</title>
<path fill="none" stroke="#444444" stroke-opacity="0.333333" d="M1250.0751,-328.9156C1269.687,-377.4341 1323.2213,-509.8746 1346.6128,-567.7436"/>
<polygon fill="#444444" fill-opacity="0.333333" stroke="#444444" stroke-opacity="0.333333" points="1343.4937,-569.3668 1350.4863,-577.3264 1349.9836,-566.7435 1343.4937,-569.3668"/>
</g>
<!-- storaged&#45;&gt;libatasmart -->
<g id="edge13" class="edge">
<title>storaged&#45;&gt;libatasmart</title>
<path fill="none" stroke="#444444" stroke-opacity="0.333333" d="M1269.9495,-328.6809C1321.9695,-363.0641 1435.4166,-438.0484 1493.6042,-476.5081"/>
<polygon fill="#444444" fill-opacity="0.333333" stroke="#444444" stroke-opacity="0.333333" points="1491.8403,-479.5377 1502.1127,-482.1319 1495.7002,-473.698 1491.8403,-479.5377"/>
</g>
<!-- storaged&#45;btrfs&#45;&gt;libgudev -->
<g id="edge14" class="edge">
<title>storaged&#45;btrfs&#45;&gt;libgudev</title>
<path fill="none" stroke="#444444" stroke-opacity="0.333333" d="M1023.7174,-113.5868C1035.1326,-138.9933 1056.0252,-185.4935 1069.395,-215.2505"/>
<polygon fill="#444444" fill-opacity="0.333333" stroke="#444444" stroke-opacity="0.333333" points="1066.3252,-216.9583 1073.6162,-224.6454 1072.7103,-214.0894 1066.3252,-216.9583"/>
</g>
<!-- storaged&#45;btrfs&#45;&gt;storaged -->
<g id="edge15" class="edge">
<title>storaged&#45;btrfs&#45;&gt;storaged</title>
<path fill="none" stroke="#444444" stroke-opacity="0.333333" d="M1034.9624,-113.8636C1075.6054,-152.3679 1169.8655,-241.668 1216.1246,-285.493"/>
<polygon fill="#444444" fill-opacity="0.333333" stroke="#444444" stroke-opacity="0.333333" points="1213.7199,-288.0362 1223.3866,-292.3729 1218.5342,-282.9545 1213.7199,-288.0362"/>
</g>
<!-- storaged&#45;iscsi&#45;&gt;libgudev -->
<g id="edge16" class="edge">
<title>storaged&#45;iscsi&#45;&gt;libgudev</title>
<path fill="none" stroke="#444444" stroke-opacity="0.333333" d="M1187.8594,-36.0211C1167.6619,-75.4106 1119.4875,-169.3612 1095.6481,-215.8532"/>
<polygon fill="#444444" fill-opacity="0.333333" stroke="#444444" stroke-opacity="0.333333" points="1092.533,-214.2577 1091.0846,-224.753 1098.7618,-217.4516 1092.533,-214.2577"/>
</g>
<!-- storaged&#45;iscsi&#45;&gt;storaged -->
<g id="edge17" class="edge">
<title>storaged&#45;iscsi&#45;&gt;storaged</title>
<path fill="none" stroke="#444444" stroke-opacity="0.333333" d="M1199.9525,-36.3078C1207.6618,-85.7877 1228.9573,-222.4664 1238.2576,-282.1577"/>
<polygon fill="#444444" fill-opacity="0.333333" stroke="#444444" stroke-opacity="0.333333" points="1234.8507,-283.0272 1239.8486,-292.3691 1241.7673,-281.9495 1234.8507,-283.0272"/>
</g>
<!-- storaged&#45;lsm&#45;&gt;libstoragemgmt -->
<g id="edge18" class="edge">
<title>storaged&#45;lsm&#45;&gt;libstoragemgmt</title>
<path fill="none" stroke="#444444" stroke-opacity="0.333333" d="M750.7601,-304.3164C683.3654,-301.4638 584.553,-297.2812 511.628,-294.1944"/>
<polygon fill="#444444" fill-opacity="0.333333" stroke="#444444" stroke-opacity="0.333333" points="511.6549,-290.6925 501.5158,-293.7664 511.3588,-297.6863 511.6549,-290.6925"/>
</g>
<!-- storaged&#45;lsm&#45;&gt;libgudev -->
<g id="edge19" class="edge">
<title>storaged&#45;lsm&#45;&gt;libgudev</title>
<path fill="none" stroke="#444444" stroke-opacity="0.333333" d="M897.7451,-289.5158C935.3451,-279.9846 981.1519,-268.3731 1017.6615,-259.1184"/>
<polygon fill="#444444" fill-opacity="0.333333" stroke="#444444" stroke-opacity="0.333333" points="1018.8647,-262.4242 1027.698,-256.5742 1017.1446,-255.6388 1018.8647,-262.4242"/>
</g>
<!-- storaged&#45;lsm&#45;&gt;storaged -->
<g id="edge20" class="edge">
<title>storaged&#45;lsm&#45;&gt;storaged</title>
<path fill="none" stroke="#444444" stroke-opacity="0.333333" d="M902.5007,-308.1023C981.5149,-308.6986 1103.98,-309.623 1178.4124,-310.1848"/>
<polygon fill="#444444" fill-opacity="0.333333" stroke="#444444" stroke-opacity="0.333333" points="1178.5607,-313.6859 1188.5869,-310.2616 1178.6136,-306.6861 1178.5607,-313.6859"/>
</g>
<!-- storaged&#45;lvm2&#45;&gt;libgudev -->
<g id="edge21" class="edge">
<title>storaged&#45;lvm2&#45;&gt;libgudev</title>
<path fill="none" stroke="#444444" stroke-opacity="0.333333" d="M1314.0367,-162.4836C1265.9793,-179.1161 1194.6151,-203.815 1143.6927,-221.4391"/>
<polygon fill="#444444" fill-opacity="0.333333" stroke="#444444" stroke-opacity="0.333333" points="1142.4187,-218.1763 1134.1134,-224.7545 1144.7082,-224.7913 1142.4187,-218.1763"/>
</g>
<!-- storaged&#45;lvm2&#45;&gt;storaged -->
<g id="edge22" class="edge">
<title>storaged&#45;lvm2&#45;&gt;storaged</title>
<path fill="none" stroke="#444444" stroke-opacity="0.333333" d="M1352.7482,-162.5371C1330.8479,-192.0165 1287.3987,-250.5023 1262.1406,-284.5015"/>
<polygon fill="#444444" fill-opacity="0.333333" stroke="#444444" stroke-opacity="0.333333" points="1259.2891,-282.4708 1256.1352,-292.5853 1264.9082,-286.6452 1259.2891,-282.4708"/>
</g>
<!-- storaged&#45;zram&#45;&gt;libgudev -->
<g id="edge23" class="edge">
<title>storaged&#45;zram&#45;&gt;libgudev</title>
<path fill="none" stroke="#444444" stroke-opacity="0.333333" d="M1097.272,-472.0959C1094.3888,-429.3771 1087.1691,-322.4091 1083.7083,-271.1339"/>
<polygon fill="#444444" fill-opacity="0.333333" stroke="#444444" stroke-opacity="0.333333" points="1087.1953,-270.8224 1083.0298,-261.0808 1080.2112,-271.2938 1087.1953,-270.8224"/>
</g>
<!-- storaged&#45;zram&#45;&gt;storaged -->
<g id="edge24" class="edge">
<title>storaged&#45;zram&#45;&gt;storaged</title>
<path fill="none" stroke="#444444" stroke-opacity="0.333333" d="M1113.1202,-472.0786C1138.815,-440.0724 1192.1479,-373.6392 1221.7533,-336.7619"/>
<polygon fill="#444444" fill-opacity="0.333333" stroke="#444444" stroke-opacity="0.333333" points="1224.5101,-338.9187 1228.0411,-328.9296 1219.0515,-334.5365 1224.5101,-338.9187"/>
</g>
<!-- libstoraged&#45;devel -->
<g id="node1" class="node">
<title>libstoraged&#45;devel</title>
<text text-anchor="middle" x="1716.9" y="-34.284" font-family="monospace" font-size="14.00" fill="#000000">libstoraged&#45;devel</text>
</g>
<!-- libstoraged -->
<g id="node2" class="node">
<title>libstoraged</title>
<text text-anchor="middle" x="1600" y="-201.52" font-family="monospace" font-size="14.00" fill="#000000">libstoraged</text>
</g>
<!-- libstoragemgmt -->
<g id="node3" class="node">
<title>libstoragemgmt</title>
<text text-anchor="middle" x="415.37" y="-286.42" font-family="monospace" font-size="14.00" fill="#000000">libstoragemgmt</text>
</g>
<!-- python3&#45;libstoragemgmt -->
<g id="node4" class="node">
<title>python3&#45;libstoragemgmt</title>
<text text-anchor="middle" x="278.15" y="-155.87" font-family="monospace" font-size="14.00" fill="#000000">python3&#45;libstoragemgmt</text>
</g>
<!-- yajl -->
<g id="node5" class="node">
<title>yajl</title>
<text text-anchor="middle" x="176.95" y="-207" font-family="monospace" font-size="14.00" fill="#000000">yajl</text>
</g>
<!-- python3&#45;libstoragemgmt&#45;clibs -->
<g id="node6" class="node">
<title>python3&#45;libstoragemgmt&#45;clibs</title>
<text text-anchor="middle" x="161.19" y="-336.6" font-family="monospace" font-size="14.00" fill="#000000">python3&#45;libstoragemgmt&#45;clibs</text>
</g>
<!-- storaged&#45;bcache -->
<g id="node7" class="node">
<title>storaged&#45;bcache</title>
<text text-anchor="middle" x="1186.6" y="-162.92" font-family="monospace" font-size="14.00" fill="#000000">storaged&#45;bcache</text>
</g>
<!-- libgudev -->
<g id="node8" class="node">
<title>libgudev</title>
<text text-anchor="middle" x="1081.8" y="-239.16" font-family="monospace" font-size="14.00" fill="#000000">libgudev</text>
</g>
<!-- storaged -->
<g id="node9" class="node">
<title>storaged</title>
<text text-anchor="middle" x="1242.7" y="-306.97" font-family="monospace" font-size="14.00" fill="#000000">storaged</text>
</g>
<!-- cryptsetup -->
<g id="node10" class="node">
<title>cryptsetup</title>
<text text-anchor="middle" x="1357.8" y="-591.72" font-family="monospace" font-size="14.00" fill="#000000">cryptsetup</text>
</g>
<!-- libatasmart -->
<g id="node11" class="node">
<title>libatasmart</title>
<text text-anchor="middle" x="1529.6" y="-496.6" font-family="monospace" font-size="14.00" fill="#000000">libatasmart</text>
</g>
<!-- storaged&#45;btrfs -->
<g id="node12" class="node">
<title>storaged&#45;btrfs</title>
<text text-anchor="middle" x="1015.6" y="-91.82" font-family="monospace" font-size="14.00" fill="#000000">storaged&#45;btrfs</text>
</g>
<!-- storaged&#45;iscsi -->
<g id="node13" class="node">
<title>storaged&#45;iscsi</title>
<text text-anchor="middle" x="1197.1" y="-14.3" font-family="monospace" font-size="14.00" fill="#000000">storaged&#45;iscsi</text>
</g>
<!-- storaged&#45;lsm -->
<g id="node14" class="node">
<title>storaged&#45;lsm</title>
<text text-anchor="middle" x="826.68" y="-303.83" font-family="monospace" font-size="14.00" fill="#000000">storaged&#45;lsm</text>
</g>
<!-- storaged&#45;lvm2 -->
<g id="node15" class="node">
<title>storaged&#45;lvm2</title>
<text text-anchor="middle" x="1366.2" y="-140.73" font-family="monospace" font-size="14.00" fill="#000000">storaged&#45;lvm2</text>
</g>
<!-- storaged&#45;zram -->
<g id="node16" class="node">
<title>storaged&#45;zram</title>
<text text-anchor="middle" x="1098.5" y="-486.59" font-family="monospace" font-size="14.00" fill="#000000">storaged&#45;zram</text>
</g>
</g>
</svg>
