<?xml version="1.0" encoding="UTF-8" standalone="no"?>
<!DOCTYPE svg PUBLIC "-//W3C//DTD SVG 1.1//EN"
 "http://www.w3.org/Graphics/SVG/1.1/DTD/svg11.dtd">
<!-- Generated by graphviz version 2.40.1 (20161225.0304)
 -->
<!-- Title: G Pages: 1 -->
<svg width="1825pt" height="1137pt"
 viewBox="0.00 0.00 1825.00 1137.20" xmlns="http://www.w3.org/2000/svg" xmlns:xlink="http://www.w3.org/1999/xlink">
<g id="graph0" class="graph" transform="scale(1 1) rotate(0) translate(106.3099 1005.838)">
<title>G</title>
<polygon fill="#dae2ff" stroke="transparent" points="-106.3099,131.3589 -106.3099,-1005.838 1718.6888,-1005.838 1718.6888,131.3589 -106.3099,131.3589"/>
<polygon fill="#b3cde3" stroke="#b3cde3" points="-91.6659,-711.2043 -91.3158,-718.143 -90.5431,-748.4328 -34.8283,-846.7858 23.5741,-839.4663 42.4633,-837.447 43.3053,-837.1555 44.0774,-836.9353 52.1529,-697.1429 56.7229,-699.53 61.2079,-699.53 67.158,-696.2867 68.322,-695.0709 71.1444,-695.0709 71.7695,-694.901 75.0902,-694.901 75.0902,-694.901 71.7695,-694.901 71.1444,-695.0709 68.322,-695.0709 67.158,-696.2867 61.2079,-699.53 56.7229,-699.53 52.1529,-697.1429 44.0774,-836.9353 55.5193,-833.9 64.6305,-831.6675 75.9176,-829.3603 83.5197,-827.9615 150.6334,-819.7038 232.0527,-778.5763 258.878,-782.6281 274.2586,-785.4426 274.8714,-721.9722 273.529,-688.1051 273.529,-688.1051 274.8714,-721.9722 274.2586,-785.4426 281.052,-787.1201 293.0992,-785.0592 295.3197,-784.7143 309.664,-782.9353 314.8329,-782.4565 329.0377,-781.5854 335.7828,-781.2776 335.1265,-699.2235 340.0561,-609.6437 340.0561,-609.6437 335.1265,-699.2235 335.7828,-781.2776 345.0565,-781.29 370.3145,-782.1149 509.452,-655.6943 503.1173,-635.9548 491.5339,-597.2211 490.4651,-592.9893 350.5841,-456.7916 348.7498,-455.0787 340.0121,-446.3269 333.4839,-440.0378 327.1097,-433.0649 310.4088,-415.4409 302.7279,-406.1281 286.5101,-399.3314 275.8719,-394.3893 270.6476,-397.716 258.7726,-404.6627 257.0993,-405.6126 224.8979,-423.3396 199.4902,-424.0862 92.9498,-432.2907 82.3361,-432.3861 65.2318,-432.1515 25.2262,-430.6966 -6.6298,-436.519 -45.9049,-465.6234 -72.1677,-536.6624 -89.6693,-578.5209 -33.3616,-597.1666 74.466,-565.5774 76.3845,-563.2785 78.4876,-562.6257 79.8795,-557.1429 84.9373,-555.6757 84.9373,-555.6757 79.8795,-557.1429 78.4876,-562.6257 79.6239,-563.6514 79.6239,-563.6514 78.4876,-562.6257 76.3845,-563.2785 74.466,-565.5774 -33.3616,-597.1666 -89.6693,-578.5209 -102.3099,-590.5823 -96.0064,-653.7531 -91.6659,-711.2043 -91.6659,-711.2043"/>
<polygon fill="#fed9a6" stroke="#fed9a6" points="1480.0511,30.1914 1498.2806,24.0483 1563.9874,3.4767 1636.4751,-72.9773 1636.6459,-74.8115 1671.1038,-139.4584 1673.2354,-188.9345 1550.2789,-199.4634 1545.7828,-138.4511 1544.9149,-139.0715 1543.1399,-140.219 1536.4595,-144.0974 1530.5442,-147.134 1522.7128,-150.6224 1522.7128,-150.6224 1530.5442,-147.134 1536.4595,-144.0974 1533.6949,-200.2679 1528.2655,-201.8466 1524.4459,-205.0995 1528.2068,-208.3931 1534.0067,-210.1392 1534.0067,-210.1392 1528.2068,-208.3931 1524.4459,-205.0995 1528.2655,-201.8466 1533.6949,-200.2679 1536.4595,-144.0974 1543.1399,-140.219 1544.9149,-139.0715 1545.7828,-138.4511 1550.2789,-199.4634 1673.2354,-188.9345 1674.905,-213.4492 1687.1919,-317.8204 1619.3008,-385.9869 1552.1476,-370.3719 1538.1965,-367.6316 1527.6514,-374.8327 1483.9442,-406.047 1467.661,-416.5298 1459.5658,-421.1469 1447.4865,-427.1602 1436.217,-431.9436 1421.0488,-436.7249 1415.2131,-438.3477 1414.0439,-438.587 1407.2504,-439.7331 1377.7725,-443.6382 1376.7273,-443.8167 1369.8196,-445.5346 1356.6898,-449.3157 1346.213,-453.1405 1295.9777,-475.3493 1265.1869,-463.5659 1250.0594,-457.383 1242.3594,-453.844 1223.6487,-444.2814 1220.5682,-442.5534 1201.4172,-431.3239 1200.1367,-414.7444 1209.9982,-401.6994 1211.7314,-399.4987 1248.1245,-351.0236 1250.3525,-347.847 1309.387,-257.51 1341.4733,-216.7715 1344.167,-213.0621 1301.6659,-134.6309 1305.0476,-125.439 1319.8621,-79.2746 1327.7904,-52.4198 1342.9133,-5.3379 1347.4318,7.7663 1348.5594,10.8316 1452.1862,36.8817 1458.7271,38.801 1464.1647,36.3373 1466.4264,35.4178 1480.0511,30.1914 1480.4562,-81.0116 1476.906,-106.9687 1472.691,-104.5595 1467.2931,-104.5595 1467.2931,-104.5595 1472.691,-104.5595 1476.906,-106.9687 1478.9054,-109.4483 1478.2446,-110.2115 1472.8414,-113.4245 1472.8414,-113.4245 1478.2446,-110.2115 1478.9054,-109.4483 1476.906,-106.9687 1480.4562,-81.0116 1480.0511,30.1914 1480.0511,30.1914"/>
<polygon fill="#fbb4ae" stroke="#fbb4ae" points="1623.5341,-408.0835 1564.1829,-488.1104 1564.1829,-488.1104 1623.5341,-408.0835 1619.3008,-385.9869 1552.1476,-370.3719 1538.1965,-367.6316 1527.6514,-374.8327 1483.9442,-406.047 1479.8107,-489.331 1481.4651,-513.6837 1521.3383,-515.0482 1540.7229,-514.1578 1536.3082,-519.3411 1525.7505,-529.589 1525.2094,-530.1956 1524.4297,-530.9708 1522.0237,-533.0897 1513.2062,-539.9009 1509.249,-542.4892 1503.0947,-545.803 1504.4382,-575.9529 1499.2141,-578.7842 1497.767,-580.3419 1499.6221,-582.463 1504.5409,-585.2034 1508.6647,-585.2034 1508.6647,-585.2034 1504.5409,-585.2034 1499.6221,-582.463 1497.767,-580.3419 1499.2141,-578.7842 1504.4382,-575.9529 1503.0947,-545.803 1509.249,-542.4892 1513.2062,-539.9009 1522.0237,-533.0897 1524.4297,-530.9708 1525.2094,-530.1956 1525.7505,-529.589 1536.3082,-519.3411 1540.7229,-514.1578 1521.3383,-515.0482 1481.4651,-513.6837 1474.7908,-519.3835 1474.7861,-519.3822 1472.582,-519.3822 1470.8882,-519.8712 1466.5919,-519.8712 1464.9836,-519.4052 1462.443,-519.4052 1460.5143,-519.9666 1455.636,-519.9666 1454.5409,-519.6588 1452.9188,-519.6588 1452.6803,-519.4058 1445.3252,-515.0747 1441.6606,-515.0747 1441.6606,-515.0747 1445.3252,-515.0747 1452.6803,-519.4058 1452.9188,-519.6588 1454.5409,-519.6588 1455.636,-519.9666 1460.5143,-519.9666 1462.443,-519.4052 1464.9836,-519.4052 1466.5919,-519.8712 1470.8882,-519.8712 1472.582,-519.3822 1474.7861,-519.3822 1474.7908,-519.3835 1481.4651,-513.6837 1479.8107,-489.331 1483.9442,-406.047 1467.661,-416.5298 1459.5658,-421.1469 1447.4865,-427.1602 1436.217,-431.9436 1421.0488,-436.7249 1415.2131,-438.3477 1414.0439,-438.587 1407.2504,-439.7331 1377.7725,-443.6382 1376.7273,-443.8167 1369.8196,-445.5346 1356.6898,-449.3157 1346.213,-453.1405 1295.9777,-475.3493 1265.1869,-463.5659 1250.0594,-457.383 1242.3594,-453.844 1223.6487,-444.2814 1220.5682,-442.5534 1201.4172,-431.3239 1127.3082,-496.2404 1126.0876,-507.5014 1122.9069,-512.7204 1117.7682,-520.3596 1108.6643,-533.2149 1103.1323,-540.5898 1093.7522,-552.3496 1095.4259,-599.5812 1100.1002,-635.838 1102.7841,-635.838 1107.8818,-672.0598 1109.5699,-635.5561 1113.9609,-635.5561 1114.3159,-635.6563 1118.6887,-635.6563 1120.0538,-636.0494 1123.9923,-636.0494 1126.4279,-681.2487 1130.3459,-636.2656 1134.3844,-636.2656 1135.567,-635.9275 1139.0725,-638.8337 1145.0492,-640.6036 1150.7045,-638.9653 1154.4453,-635.9189 1155.0819,-636.0961 1159.7771,-636.0961 1159.7806,-636.0951 1164.9558,-636.0951 1165.5739,-635.9159 1170.4048,-635.9159 1171.2947,-635.6597 1174.1357,-635.6597 1175.415,-636.0349 1176.3722,-702.6749 1181.302,-636.0349 1182.3479,-635.7335 1184.3607,-635.7335 1184.8999,-635.8873 1184.8999,-635.8873 1184.3607,-635.7335 1182.3479,-635.7335 1181.302,-636.0349 1176.3722,-702.6749 1175.415,-636.0349 1174.1357,-635.6597 1171.2947,-635.6597 1170.4048,-635.9159 1165.5739,-635.9159 1164.9558,-636.0951 1159.7806,-636.0951 1159.7771,-636.0961 1155.0819,-636.0961 1154.4453,-635.9189 1150.7045,-638.9653 1145.0492,-640.6036 1139.0725,-638.8337 1135.567,-635.9275 1134.3844,-636.2656 1130.3459,-636.2656 1126.4279,-681.2487 1123.9923,-636.0494 1120.0538,-636.0494 1118.6887,-635.6563 1114.3159,-635.6563 1113.9609,-635.5561 1109.5699,-635.5561 1107.8818,-672.0598 1102.7841,-635.838 1100.1002,-635.838 1095.4259,-599.5812 1093.7522,-552.3496 1089.9788,-556.4666 1073.3322,-576.2703 1043.6771,-620.8658 1025.2025,-645.1407 1014.3793,-656.9493 1011.5737,-660.4351 1010.7666,-661.5034 1009.8589,-661.5938 1009.5911,-661.6039 997.873,-661.3284 992.1465,-661.5422 981.0468,-662.6338 969.6451,-664.4514 965.6555,-665.2083 962.5428,-665.8933 955.6251,-667.6263 944.6961,-671.0316 936.5068,-674.0818 921.8261,-680.451 905.0992,-689.2333 903.6732,-690.0239 897.2342,-693.7855 896.1608,-694.4769 887.9341,-700.0302 840.7889,-734.7698 823.3108,-746.662 827.2577,-758.0841 847.8633,-786.305 1003.2663,-757.8467 1007.0306,-840.5172 1007.2613,-857.277 1013.3498,-850.7561 1015.2593,-786.7224 1015.2593,-786.7224 1013.3498,-850.7561 1024.5149,-840.0723 1025.7097,-780.53 1029.9229,-752.6611 1032.0723,-752.6611 1033.2241,-753.9002 1039.0472,-757.1273 1043.0455,-757.1273 1048.7684,-753.8202 1050.2928,-752.0602 1050.0399,-751.7881 1043.7137,-748.0802 1043.7137,-748.0802 1050.0399,-751.7881 1050.2928,-752.0602 1048.7684,-753.8202 1043.0455,-757.1273 1048.698,-793.7298 1049.5886,-805.3979 1054.6372,-752.4962 1058.3619,-752.4962 1059.1482,-752.7172 1059.1482,-752.7172 1058.3619,-752.4962 1054.6372,-752.4962 1049.5886,-805.3979 1048.698,-793.7298 1043.0455,-757.1273 1039.0472,-757.1273 1033.2241,-753.9002 1032.0723,-752.6611 1029.9229,-752.6611 1025.7097,-780.53 1024.5149,-840.0723 1013.3498,-850.7561 1007.2613,-857.277 1007.0306,-840.5172 1003.2663,-757.8467 847.8633,-786.305 894.806,-853.3259 979.0613,-889.8165 1041.3634,-980.0665 1053.7719,-984.2023 1098.5699,-983.1685 1112.77,-983.1111 1129.3724,-983.6771 1129.132,-931.136 1130.5652,-906.7553 1136.6382,-848.8525 1140.9271,-847.7112 1145.3538,-844.0993 1141.1473,-840.5826 1136.2632,-839.2218 1136.2632,-839.2218 1141.1473,-840.5826 1145.3538,-844.0993 1140.9271,-847.7112 1136.6382,-848.8525 1130.5652,-906.7553 1129.132,-931.136 1129.3724,-983.6771 1145.1639,-985.4192 1152.3832,-986.4904 1165.1901,-988.8794 1169.0505,-989.6726 1165.8325,-850.2676 1183.9921,-847.925 1208.6637,-849.4375 1234.3864,-895.2147 1256.0861,-940.8779 1254.7383,-905.5961 1254.4528,-869.9031 1256.8678,-812.6622 1262.0184,-811.1127 1265.847,-807.6477 1262.1801,-804.4875 1257.0981,-803.0081 1257.0981,-803.0081 1262.1801,-804.4875 1265.847,-807.6477 1262.0184,-811.1127 1256.8678,-812.6622 1254.4528,-869.9031 1254.7383,-905.5961 1256.0861,-940.8779 1234.3864,-895.2147 1208.6637,-849.4375 1183.9921,-847.925 1165.8325,-850.2676 1169.0505,-989.6726 1223.2568,-1001.838 1267.7198,-971.4045 1269.3351,-971.0031 1280.8894,-968.343 1285.3333,-967.4022 1333.4338,-965.6169 1348.6646,-965.6318 1347.9604,-849.5585 1350.9042,-819.98 1355.8145,-818.5444 1359.8104,-815.014 1356.0555,-811.7579 1350.9636,-810.2609 1350.9636,-810.2609 1356.0555,-811.7579 1359.8104,-815.014 1355.8145,-818.5444 1350.9042,-819.98 1347.9604,-849.5585 1348.6646,-965.6318 1357.6315,-965.9822 1365.8494,-966.46 1383.3546,-968.1438 1394.6008,-967.5905 1409.5439,-965.6281 1508.8885,-838.6416 1508.8938,-838.5077 1509.8234,-823.0295 1512.3644,-791.9135 1531.2134,-742.6362 1389.2461,-727.3472 1379.3464,-730.0822 1379.3464,-730.0822 1389.2461,-727.3472 1531.2134,-742.6362 1532.3391,-740.0151 1534.0135,-739.1423 1554.4028,-730.5681 1559.4421,-728.5519 1594.4198,-716.6731 1675.8123,-673.2358 1705.3914,-598.6902 1714.6888,-577.9211 1696.9406,-546.2845 1623.5341,-408.0835 1623.5341,-408.0835"/>
<polygon fill="#fbb4ae" stroke="#fbb4ae" points="1003.3744,-13.478 1013.8914,6.7013 1043.061,68.9039 1153.0955,124.4035 1158.673,127.3589 1172.7128,121.9825 1173.2903,121.7881 1188.3259,117.4038 1195.3042,115.5291 1204.1376,113.3594 1269.4845,98.8198 1348.5594,10.8316 1347.4318,7.7663 1342.9133,-5.3379 1327.7904,-52.4198 1319.8621,-79.2746 1305.0476,-125.439 1301.6659,-134.6309 1344.167,-213.0621 1341.4733,-216.7715 1309.387,-257.51 1250.3525,-347.847 1248.1245,-351.0236 1211.7314,-399.4987 1209.9982,-401.6994 1200.1367,-414.7444 1196.9965,-411.0848 1196.1654,-410.0295 1176.9387,-388.2502 1170.1799,-381.2425 1169.2183,-380.291 1139.7262,-352.4527 1134.0181,-346.6719 1117.9435,-303.3288 1113.1504,-284.8811 1111.7623,-278.0032 1105.4755,-254.0322 1100.2479,-237.6152 1064.3652,-140.8621 1059.6184,-139.0546 1035.4673,-128.9267 1021.353,-121.6702 1012.9616,-67.685 1160.3843,-22.924 1161.3206,-101.8351 1166.3309,-18.1348 1169.9586,-18.1348 1171.469,-19.8845 1176.2317,-22.5781 1176.2317,-22.5781 1171.469,-19.8845 1169.9586,-18.1348 1166.3309,-18.1348 1161.3206,-101.8351 1160.3843,-22.924 1012.9616,-67.685 1003.3744,-13.478 1003.3744,-13.478"/>
<polygon fill="#decbe4" stroke="#decbe4" points="215.2317,-64.5448 215.0655,-36.2605 214.1846,-5.2404 241.0868,20.3326 295.8521,59.2333 331.3264,74.5435 349.1056,80.377 355.3997,82.5888 363.3946,85.5841 368.1524,84.1809 365.9658,-2.0944 367.609,-52.7899 361.5982,-54.6503 358.2665,-57.5927 361.7732,-60.6918 367.2878,-62.3703 367.2878,-62.3703 361.7732,-60.6918 358.2665,-57.5927 361.5982,-54.6503 367.609,-52.7899 365.9658,-2.0944 368.1524,84.1809 369.5148,83.8384 383.8873,80.8413 392.227,78.1958 451.4099,60.7975 503.8012,6.9231 521.0892,-14.2716 524.4456,-34.8572 536.8745,-94.5422 550.1743,-101.1685 645.6301,-146.6638 704.1555,-256.49 721.2302,-284.6132 720.7364,-287.1892 711.2257,-332.5083 712.5699,-336.9922 723.6516,-348.2731 736.8716,-359.8621 743.4353,-365.4323 749.8058,-371.2956 762.9821,-381.8368 776.792,-392.4675 860.5079,-454.2472 886.5087,-455.8789 896.6923,-455.7947 899.7999,-455.6953 901.9838,-455.7845 905.1206,-455.8383 912.9503,-456.1632 914.2779,-456.1237 923.9993,-460.767 937.0777,-466.2334 942.3551,-468.1205 943.7916,-468.5911 953.4349,-471.4655 966.4064,-474.558 971.6791,-475.6554 974.0475,-476.0767 975.2679,-476.221 991.7432,-477.6792 1003.8896,-477.6617 1008.1185,-477.9301 1009.2726,-477.9687 1014.5001,-477.9865 1018.6577,-477.7517 1019.6011,-477.7595 1026.0615,-478.0218 1036.1167,-478.7561 1051.0939,-480.822 1127.3082,-496.2404 1126.0876,-507.5014 1122.9069,-512.7204 1117.7682,-520.3596 1108.6643,-533.2149 1103.1323,-540.5898 1093.7522,-552.3496 1089.9788,-556.4666 1073.3322,-576.2703 1043.6771,-620.8658 1025.2025,-645.1407 1014.3793,-656.9493 1011.5737,-660.4351 1010.7666,-661.5034 1009.8589,-661.5938 1009.5911,-661.6039 997.873,-661.3284 992.1465,-661.5422 981.0468,-662.6338 969.6451,-664.4514 965.6555,-665.2083 962.5428,-665.8933 955.6251,-667.6263 944.6961,-671.0316 936.5068,-674.0818 921.8261,-680.451 905.0992,-689.2333 903.6732,-690.0239 897.2342,-693.7855 896.1608,-694.4769 887.9341,-700.0302 840.7889,-734.7698 823.3108,-746.662 792.2343,-725.7971 767.5895,-696.3555 815.15,-581.6451 882.2018,-576.0861 887.8777,-570.4435 887.9079,-570.3886 888.0707,-570.2445 887.742,-569.6596 887.742,-569.6596 888.0707,-570.2445 887.9079,-570.3886 887.8777,-570.4435 882.2018,-576.0861 815.15,-581.6451 767.5895,-696.3555 764.578,-694.7032 761.6157,-693.1375 748.7875,-687.114 747.7562,-631.7186 743.0338,-525.2226 743.0338,-525.2226 747.7562,-631.7186 748.7875,-687.114 738.9305,-682.8743 729.4587,-678.9884 724.6422,-677.2047 710.4893,-672.244 705.6613,-670.8416 687.9561,-666.3954 688.1864,-582.6899 682.3911,-525.0443 684.3364,-525.0443 688.2716,-528.3993 688.2716,-528.3993 684.3364,-525.0443 682.3911,-525.0443 688.1864,-582.6899 687.9561,-666.3954 675.4353,-663.9988 668.0305,-662.7292 666.1841,-662.4495 657.5236,-661.4818 653.5043,-661.1125 646.024,-660.722 631.4891,-660.2521 623.1625,-660.314 623.1699,-600.8314 622.7755,-590.2652 623.2265,-526.9042 624.4092,-524.8842 623.3868,-524.0695 621.4633,-523.3279 618.1138,-519.7663 618.1138,-519.7663 621.4633,-523.3279 623.3868,-524.0695 624.4092,-524.8842 623.2265,-526.9042 622.7755,-590.2652 617.9504,-531.2433 598.3439,-529.8933 533.5068,-536.8672 543.2542,-525.9569 554.6464,-514.8698 559.1019,-510.8787 559.0349,-481.2317 559.0349,-481.2317 559.1019,-510.8787 554.6464,-514.8698 543.2542,-525.9569 543.5281,-502.1724 543.5281,-502.1724 543.2542,-525.9569 533.5068,-536.8672 598.3439,-529.8933 617.9504,-531.2433 622.7755,-590.2652 623.1699,-600.8314 623.1625,-660.314 542.8519,-665.6959 509.452,-655.6943 503.1173,-635.9548 491.5339,-597.2211 490.4651,-592.9893 350.5841,-456.7916 496.7392,-451.6031 499.1857,-502.6799 498.8962,-580.1145 506.2537,-569.7947 519.3271,-552.2707 521.6469,-549.4698 525.7788,-544.7377 526.7291,-449.9904 531.7698,-449.9904 531.7698,-449.9904 526.7291,-449.9904 525.7788,-544.7377 521.6469,-549.4698 519.3271,-552.2707 506.2537,-569.7947 498.8962,-580.1145 499.1857,-502.6799 496.7392,-451.6031 350.5841,-456.7916 348.7498,-455.0787 340.0121,-446.3269 333.4839,-440.0378 327.1097,-433.0649 310.4088,-415.4409 302.7279,-406.1281 286.5101,-399.3314 275.8719,-394.3893 265.8708,-301.621 276.0683,-256.49 403.8581,-256.49 404.5288,-256.5507 438.8978,-262.8298 444.0685,-259.1946 445.7494,-256.475 446.0526,-256.2371 448.302,-256.2371 449.2431,-256.5164 454.3371,-256.5164 454.7142,-256.6284 459.9052,-256.6284 461.0878,-256.2862 463.6607,-256.2862 464.2237,-256.4453 469.6298,-256.4453 469.7096,-256.4682 474.705,-256.4682 475.0269,-256.3759 480.0858,-256.3759 480.3034,-256.3142 480.8324,-256.3142 485.417,-260.233 489.755,-261.4175 495.8597,-259.6702 499.1921,-256.9739 499.2003,-256.962 494.514,-252.7475 490.2288,-251.5605 490.2288,-251.5605 494.514,-252.7475 499.2003,-256.962 499.1921,-256.9739 495.8597,-259.6702 489.755,-261.4175 485.417,-260.233 480.8324,-256.3142 480.3034,-256.3142 480.0858,-256.3759 475.0269,-256.3759 474.705,-256.4682 469.7096,-256.4682 469.6298,-256.4453 464.2237,-256.4453 463.6607,-256.2862 461.0878,-256.2862 459.9052,-256.6284 454.7142,-256.6284 454.3371,-256.5164 449.2431,-256.5164 448.302,-256.2371 446.0526,-256.2371 445.7494,-256.475 444.0685,-259.1946 438.8978,-262.8298 404.5288,-256.5507 403.8581,-256.49 276.0683,-256.49 283.8961,-209.82 214.3765,-90.617 215.1077,-71.9714 215.2317,-64.5448 215.2317,-64.5448"/>
<polygon fill="#ccebc5" stroke="#ccebc5" points="897.8611,-206.5231 898.2353,-306.7176 898.2353,-306.7176 897.8611,-206.5231 895.263,-200.6349 887.3439,-201.5673 721.2302,-284.6132 720.7364,-287.1892 711.2257,-332.5083 712.5699,-336.9922 723.6516,-348.2731 736.8716,-359.8621 743.4353,-365.4323 749.8058,-371.2956 762.9821,-381.8368 776.792,-392.4675 860.5079,-454.2472 886.5087,-455.8789 896.6923,-455.7947 899.7999,-455.6953 901.9838,-455.7845 905.1206,-455.8383 912.9503,-456.1632 914.2779,-456.1237 923.9993,-460.767 937.0777,-466.2334 942.3551,-468.1205 943.7916,-468.5911 953.4349,-471.4655 966.4064,-474.558 971.6791,-475.6554 974.0475,-476.0767 975.2679,-476.221 991.7432,-477.6792 1003.8896,-477.6617 1008.1185,-477.9301 1009.2726,-477.9687 1014.5001,-477.9865 1018.6577,-477.7517 1019.6011,-477.7595 1026.0615,-478.0218 1036.1167,-478.7561 1051.0939,-480.822 1127.3082,-496.2404 1201.4172,-431.3239 1200.1367,-414.7444 1196.9965,-411.0848 1196.1654,-410.0295 1176.9387,-388.2502 1170.1799,-381.2425 1169.2183,-380.291 1139.7262,-352.4527 1134.0181,-346.6719 1117.9435,-303.3288 1113.1504,-284.8811 1111.7623,-278.0032 1105.4755,-254.0322 1100.2479,-237.6152 1064.3652,-140.8621 1059.6184,-139.0546 1035.4673,-128.9267 1021.353,-121.6702 1019.2396,-123.2549 1017.863,-124.2551 1014.4031,-264.2827 1010.1918,-296.7701 1011.0142,-296.9975 1015.8312,-296.9975 1017.0006,-296.6657 1017.1379,-296.6657 1022.0816,-300.941 1022.0816,-300.941 1017.1379,-296.6657 1017.0006,-296.6657 1015.8312,-296.9975 1011.0142,-296.9975 1010.1918,-296.7701 1014.4031,-264.2827 1017.863,-124.2551 996.7806,-138.6179 995.7956,-139.2422 996.5159,-290.6291 982.3115,-293.3987 953.7011,-291.8896 951.0873,-289.5654 949.8081,-288.2838 946.5754,-336.9918 941.6092,-339.7165 940.3658,-341.0649 942.5499,-343.6621 946.4895,-345.8538 946.4895,-345.8538 942.5499,-343.6621 940.3658,-341.0649 941.6092,-339.7165 946.5754,-336.9918 949.8081,-288.2838 951.0873,-289.5654 953.7011,-291.8896 982.3115,-293.3987 996.5159,-290.6291 995.7956,-139.2422 895.263,-200.6349 897.8611,-206.5231 897.8611,-206.5231"/>
<polyline fill="none" stroke="#000000" points="295.3197,-784.7143 293.0992,-785.0592 281.052,-787.1201 274.2586,-785.4426 258.878,-782.6281 232.0527,-778.5763 150.6334,-819.7038 83.5197,-827.9615 75.9176,-829.3603 64.6305,-831.6675 55.5193,-833.9 44.0774,-836.9353 43.3053,-837.1555 42.4633,-837.447 23.5741,-839.4663 -34.8283,-846.7858 -90.5431,-748.4328 -91.3158,-718.143 -91.6659,-711.2043 -96.0064,-653.7531 -102.3099,-590.5823 -89.6693,-578.5209 -72.1677,-536.6624 -45.9049,-465.6234 -6.6298,-436.519 25.2262,-430.6966 65.2318,-432.1515 82.3361,-432.3861 92.9498,-432.2907 199.4902,-424.0862 224.8979,-423.3396 257.0993,-405.6126 258.7726,-404.6627 270.6476,-397.716 275.8719,-394.3893 286.5101,-399.3314 302.7279,-406.1281 310.4088,-415.4409 327.1097,-433.0649 333.4839,-440.0378 340.0121,-446.3269 348.7498,-455.0787 350.5841,-456.7916 490.4651,-592.9893 491.5339,-597.2211 503.1173,-635.9548 509.452,-655.6943 370.3145,-782.1149 345.0565,-781.29 335.7828,-781.2776 329.0377,-781.5854 314.8329,-782.4565 309.664,-782.9353 295.3197,-784.7143 "/>
<polyline fill="none" stroke="#000000" points="1356.6898,-449.3157 1369.8196,-445.5346 1376.7273,-443.8167 1377.7725,-443.6382 1407.2504,-439.7331 1414.0439,-438.587 1415.2131,-438.3477 1421.0488,-436.7249 1436.217,-431.9436 1447.4865,-427.1602 1459.5658,-421.1469 1467.661,-416.5298 1483.9442,-406.047 1527.6514,-374.8327 1538.1965,-367.6316 1552.1476,-370.3719 1619.3008,-385.9869 1687.1919,-317.8204 1674.905,-213.4492 1673.2354,-188.9345 1671.1038,-139.4584 1636.6459,-74.8115 1636.4751,-72.9773 1563.9874,3.4767 1498.2806,24.0483 1480.0511,30.1914 1466.4264,35.4178 1464.1647,36.3373 1458.7271,38.801 1452.1862,36.8817 1348.5594,10.8316 1347.4318,7.7663 1342.9133,-5.3379 1327.7904,-52.4198 1319.8621,-79.2746 1305.0476,-125.439 1301.6659,-134.6309 1344.167,-213.0621 1341.4733,-216.7715 1309.387,-257.51 1250.3525,-347.847 1248.1245,-351.0236 1211.7314,-399.4987 1209.9982,-401.6994 1200.1367,-414.7444 1201.4172,-431.3239 1220.5682,-442.5534 1223.6487,-444.2814 1242.3594,-453.844 1250.0594,-457.383 1265.1869,-463.5659 1295.9777,-475.3493 1346.213,-453.1405 1356.6898,-449.3157 "/>
<polyline fill="none" stroke="#000000" points="1250.0594,-457.383 1265.1869,-463.5659 1295.9777,-475.3493 1346.213,-453.1405 1356.6898,-449.3157 1369.8196,-445.5346 1376.7273,-443.8167 1377.7725,-443.6382 1407.2504,-439.7331 1414.0439,-438.587 1415.2131,-438.3477 1421.0488,-436.7249 1436.217,-431.9436 1447.4865,-427.1602 1459.5658,-421.1469 1467.661,-416.5298 1483.9442,-406.047 1527.6514,-374.8327 1538.1965,-367.6316 1552.1476,-370.3719 1619.3008,-385.9869 1623.5341,-408.0835 1696.9406,-546.2845 1714.6888,-577.9211 1705.3914,-598.6902 1675.8123,-673.2358 1594.4198,-716.6731 1559.4421,-728.5519 1554.4028,-730.5681 1534.0135,-739.1423 1532.3391,-740.0151 1531.2134,-742.6362 1512.3644,-791.9135 1509.8234,-823.0295 1508.8938,-838.5077 1508.8885,-838.6416 1409.5439,-965.6281 1394.6008,-967.5905 1383.3546,-968.1438 1365.8494,-966.46 1357.6315,-965.9822 1348.6646,-965.6318 1333.4338,-965.6169 1285.3333,-967.4022 1280.8894,-968.343 1269.3351,-971.0031 1267.7198,-971.4045 1223.2568,-1001.838 1169.0505,-989.6726 1165.1901,-988.8794 1152.3832,-986.4904 1145.1639,-985.4192 1129.3724,-983.6771 1112.77,-983.1111 1098.5699,-983.1685 1053.7719,-984.2023 1041.3634,-980.0665 979.0613,-889.8165 894.806,-853.3259 847.8633,-786.305 827.2577,-758.0841 823.3108,-746.662 840.7889,-734.7698 887.9341,-700.0302 896.1608,-694.4769 897.2342,-693.7855 903.6732,-690.0239 905.0992,-689.2333 921.8261,-680.451 936.5068,-674.0818 944.6961,-671.0316 955.6251,-667.6263 962.5428,-665.8933 965.6555,-665.2083 969.6451,-664.4514 981.0468,-662.6338 992.1465,-661.5422 997.873,-661.3284 1009.5911,-661.6039 1009.8589,-661.5938 1010.7666,-661.5034 1011.5737,-660.4351 1014.3793,-656.9493 1025.2025,-645.1407 1043.6771,-620.8658 1073.3322,-576.2703 1089.9788,-556.4666 1093.7522,-552.3496 1103.1323,-540.5898 1108.6643,-533.2149 1117.7682,-520.3596 1122.9069,-512.7204 1126.0876,-507.5014 1127.3082,-496.2404 1201.4172,-431.3239 1220.5682,-442.5534 1223.6487,-444.2814 1242.3594,-453.844 1250.0594,-457.383 "/>
<polyline fill="none" stroke="#000000" points="1176.9387,-388.2502 1196.1654,-410.0295 1196.9965,-411.0848 1200.1367,-414.7444 1209.9982,-401.6994 1211.7314,-399.4987 1248.1245,-351.0236 1250.3525,-347.847 1309.387,-257.51 1341.4733,-216.7715 1344.167,-213.0621 1301.6659,-134.6309 1305.0476,-125.439 1319.8621,-79.2746 1327.7904,-52.4198 1342.9133,-5.3379 1347.4318,7.7663 1348.5594,10.8316 1269.4845,98.8198 1204.1376,113.3594 1195.3042,115.5291 1188.3259,117.4038 1173.2903,121.7881 1172.7128,121.9825 1158.673,127.3589 1153.0955,124.4035 1043.061,68.9039 1013.8914,6.7013 1003.3744,-13.478 1012.9616,-67.685 1021.353,-121.6702 1035.4673,-128.9267 1059.6184,-139.0546 1064.3652,-140.8621 1100.2479,-237.6152 1105.4755,-254.0322 1111.7623,-278.0032 1113.1504,-284.8811 1117.9435,-303.3288 1134.0181,-346.6719 1139.7262,-352.4527 1169.2183,-380.291 1170.1799,-381.2425 1176.9387,-388.2502 "/>
<polyline fill="none" stroke="#000000" points="944.6961,-671.0316 955.6251,-667.6263 962.5428,-665.8933 965.6555,-665.2083 969.6451,-664.4514 981.0468,-662.6338 992.1465,-661.5422 997.873,-661.3284 1009.5911,-661.6039 1009.8589,-661.5938 1010.7666,-661.5034 1011.5737,-660.4351 1014.3793,-656.9493 1025.2025,-645.1407 1043.6771,-620.8658 1073.3322,-576.2703 1089.9788,-556.4666 1093.7522,-552.3496 1103.1323,-540.5898 1108.6643,-533.2149 1117.7682,-520.3596 1122.9069,-512.7204 1126.0876,-507.5014 1127.3082,-496.2404 1051.0939,-480.822 1036.1167,-478.7561 1026.0615,-478.0218 1019.6011,-477.7595 1018.6577,-477.7517 1014.5001,-477.9865 1009.2726,-477.9687 1008.1185,-477.9301 1003.8896,-477.6617 991.7432,-477.6792 975.2679,-476.221 974.0475,-476.0767 971.6791,-475.6554 966.4064,-474.558 953.4349,-471.4655 943.7916,-468.5911 942.3551,-468.1205 937.0777,-466.2334 923.9993,-460.767 914.2779,-456.1237 912.9503,-456.1632 905.1206,-455.8383 901.9838,-455.7845 899.7999,-455.6953 896.6923,-455.7947 886.5087,-455.8789 860.5079,-454.2472 776.792,-392.4675 762.9821,-381.8368 749.8058,-371.2956 743.4353,-365.4323 736.8716,-359.8621 723.6516,-348.2731 712.5699,-336.9922 711.2257,-332.5083 720.7364,-287.1892 721.2302,-284.6132 704.1555,-256.49 645.6301,-146.6638 550.1743,-101.1685 536.8745,-94.5422 524.4456,-34.8572 521.0892,-14.2716 503.8012,6.9231 451.4099,60.7975 392.227,78.1958 383.8873,80.8413 369.5148,83.8384 368.1524,84.1809 363.3946,85.5841 355.3997,82.5888 349.1056,80.377 331.3264,74.5435 295.8521,59.2333 241.0868,20.3326 214.1846,-5.2404 215.0655,-36.2605 215.2317,-64.5448 215.1077,-71.9714 214.3765,-90.617 283.8961,-209.82 276.0683,-256.49 265.8708,-301.621 275.8719,-394.3893 286.5101,-399.3314 302.7279,-406.1281 310.4088,-415.4409 327.1097,-433.0649 333.4839,-440.0378 340.0121,-446.3269 348.7498,-455.0787 350.5841,-456.7916 490.4651,-592.9893 491.5339,-597.2211 503.1173,-635.9548 509.452,-655.6943 542.8519,-665.6959 623.1625,-660.314 631.4891,-660.2521 646.024,-660.722 653.5043,-661.1125 657.5236,-661.4818 666.1841,-662.4495 668.0305,-662.7292 675.4353,-663.9988 687.9561,-666.3954 705.6613,-670.8416 710.4893,-672.244 724.6422,-677.2047 729.4587,-678.9884 738.9305,-682.8743 748.7875,-687.114 761.6157,-693.1375 764.578,-694.7032 767.5895,-696.3555 792.2343,-725.7971 823.3108,-746.662 840.7889,-734.7698 887.9341,-700.0302 896.1608,-694.4769 897.2342,-693.7855 903.6732,-690.0239 905.0992,-689.2333 921.8261,-680.451 936.5068,-674.0818 944.6961,-671.0316 "/>
<polyline fill="none" stroke="#000000" points="1018.6577,-477.7517 1014.5001,-477.9865 1009.2726,-477.9687 1008.1185,-477.9301 1003.8896,-477.6617 991.7432,-477.6792 975.2679,-476.221 974.0475,-476.0767 971.6791,-475.6554 966.4064,-474.558 953.4349,-471.4655 943.7916,-468.5911 942.3551,-468.1205 937.0777,-466.2334 923.9993,-460.767 914.2779,-456.1237 912.9503,-456.1632 905.1206,-455.8383 901.9838,-455.7845 899.7999,-455.6953 896.6923,-455.7947 886.5087,-455.8789 860.5079,-454.2472 776.792,-392.4675 762.9821,-381.8368 749.8058,-371.2956 743.4353,-365.4323 736.8716,-359.8621 723.6516,-348.2731 712.5699,-336.9922 711.2257,-332.5083 720.7364,-287.1892 721.2302,-284.6132 887.3439,-201.5673 895.263,-200.6349 995.7956,-139.2422 996.7806,-138.6179 1017.863,-124.2551 1019.2396,-123.2549 1021.353,-121.6702 1035.4673,-128.9267 1059.6184,-139.0546 1064.3652,-140.8621 1100.2479,-237.6152 1105.4755,-254.0322 1111.7623,-278.0032 1113.1504,-284.8811 1117.9435,-303.3288 1134.0181,-346.6719 1139.7262,-352.4527 1169.2183,-380.291 1170.1799,-381.2425 1176.9387,-388.2502 1196.1654,-410.0295 1196.9965,-411.0848 1200.1367,-414.7444 1201.4172,-431.3239 1127.3082,-496.2404 1051.0939,-480.822 1036.1167,-478.7561 1026.0615,-478.0218 1019.6011,-477.7595 1018.6577,-477.7517 "/>
<!-- copy&#45;jdk&#45;configs&#45;&gt;lua -->
<g id="edge1" class="edge">
<title>copy&#45;jdk&#45;configs&#45;&gt;lua</title>
<path fill="none" stroke="#444444" stroke-opacity="0.333333" d="M223.4276,-591.5766C188.7742,-583.811 149.9566,-575.1123 122.3149,-568.9179"/>
<polygon fill="#444444" fill-opacity="0.333333" stroke="#444444" stroke-opacity="0.333333" points="122.8234,-565.4452 112.3,-566.6737 121.2927,-572.2758 122.8234,-565.4452"/>
</g>
<!-- copy&#45;jdk&#45;configs&#45;&gt;lua&#45;posix -->
<g id="edge2" class="edge">
<title>copy&#45;jdk&#45;configs&#45;&gt;lua&#45;posix</title>
<path fill="none" stroke="#444444" stroke-opacity="0.333333" d="M251.9938,-627.6745C213.5407,-641.057 161.0062,-659.3401 120.4786,-673.4446"/>
<polygon fill="#444444" fill-opacity="0.333333" stroke="#444444" stroke-opacity="0.333333" points="119.2704,-670.1591 110.9764,-676.7516 121.5712,-676.7702 119.2704,-670.1591"/>
</g>
<!-- lua&#45;posix&#45;&gt;lua -->
<g id="edge3" class="edge">
<title>lua&#45;posix&#45;&gt;lua</title>
<path fill="none" stroke="#444444" stroke-opacity="0.333333" d="M62.6705,-676.6952C67.075,-654.0888 74.6592,-615.1628 79.8192,-588.6785"/>
<polygon fill="#444444" fill-opacity="0.333333" stroke="#444444" stroke-opacity="0.333333" points="83.2558,-589.3414 81.7329,-578.8566 76.385,-588.0027 83.2558,-589.3414"/>
</g>
<!-- giflib&#45;&gt;libICE -->
<g id="edge4" class="edge">
<title>giflib&#45;&gt;libICE</title>
<path fill="none" stroke="#444444" stroke-opacity="0.333333" d="M1371.052,-344.9372C1389.495,-300.8959 1436.4864,-188.6818 1458.3231,-136.5365"/>
<polygon fill="#444444" fill-opacity="0.333333" stroke="#444444" stroke-opacity="0.333333" points="1461.583,-137.8131 1462.2173,-127.2372 1455.1262,-135.1092 1461.583,-137.8131"/>
</g>
<!-- giflib&#45;&gt;libSM -->
<g id="edge5" class="edge">
<title>giflib&#45;&gt;libSM</title>
<path fill="none" stroke="#444444" stroke-opacity="0.333333" d="M1382.9585,-345.0877C1413.4536,-316.8319 1472.4041,-262.2102 1506.9188,-230.2299"/>
<polygon fill="#444444" fill-opacity="0.333333" stroke="#444444" stroke-opacity="0.333333" points="1509.3512,-232.7476 1514.3077,-223.3836 1504.5936,-227.6129 1509.3512,-232.7476"/>
</g>
<!-- giflib&#45;&gt;libX11 -->
<g id="edge6" class="edge">
<title>giflib&#45;&gt;libX11</title>
<path fill="none" stroke="#444444" stroke-opacity="0.333333" d="M1353.5022,-381.5325C1331.8148,-421.6797 1280.0122,-517.5754 1254.5438,-564.7217"/>
<polygon fill="#444444" fill-opacity="0.333333" stroke="#444444" stroke-opacity="0.333333" points="1251.3469,-563.2758 1249.6735,-573.7376 1257.5058,-566.6028 1251.3469,-563.2758"/>
</g>
<!-- libSM&#45;&gt;libICE -->
<g id="edge7" class="edge">
<title>libSM&#45;&gt;libICE</title>
<path fill="none" stroke="#444444" stroke-opacity="0.333333" d="M1521.8433,-187.1543C1512.235,-172.7495 1498.6353,-152.3605 1487.7477,-136.0375"/>
<polygon fill="#444444" fill-opacity="0.333333" stroke="#444444" stroke-opacity="0.333333" points="1490.4814,-133.8284 1482.0206,-127.4514 1484.6579,-137.7127 1490.4814,-133.8284"/>
</g>
<!-- libX11&#45;&gt;libX11&#45;common -->
<g id="edge8" class="edge">
<title>libX11&#45;&gt;libX11&#45;common</title>
<path fill="none" stroke="#444444" stroke-opacity="0.333333" d="M1283.0783,-576.5458C1312.0634,-566.2857 1350.6668,-552.621 1382.7413,-541.2673"/>
<polygon fill="#444444" fill-opacity="0.333333" stroke="#444444" stroke-opacity="0.333333" points="1384.2091,-544.4606 1392.468,-537.8242 1381.8732,-537.8618 1384.2091,-544.4606"/>
</g>
<!-- libX11&#45;&gt;libxcb -->
<g id="edge9" class="edge">
<title>libX11&#45;&gt;libxcb</title>
<path fill="none" stroke="#444444" stroke-opacity="0.333333" d="M1236.9419,-573.3793C1228.0649,-518.0106 1201.6076,-352.9886 1190.8873,-286.1225"/>
<polygon fill="#444444" fill-opacity="0.333333" stroke="#444444" stroke-opacity="0.333333" points="1194.288,-285.2235 1189.249,-275.9037 1187.3762,-286.3317 1194.288,-285.2235"/>
</g>
<!-- libxcb&#45;&gt;libXau -->
<g id="edge10" class="edge">
<title>libxcb&#45;&gt;libXau</title>
<path fill="none" stroke="#444444" stroke-opacity="0.333333" d="M1185.7663,-239.5078C1184.5405,-198.1555 1181.5157,-96.1171 1180.0387,-46.2911"/>
<polygon fill="#444444" fill-opacity="0.333333" stroke="#444444" stroke-opacity="0.333333" points="1183.5347,-46.1029 1179.7398,-36.2111 1176.5378,-46.3104 1183.5347,-46.1029"/>
</g>
<!-- java&#45;1.8.0&#45;openjdk&#45;devel&#45;&gt;libX11 -->
<g id="edge11" class="edge">
<title>java&#45;1.8.0&#45;openjdk&#45;devel&#45;&gt;libX11</title>
<path fill="none" stroke="#444444" stroke-opacity="0.333333" d="M1089.7826,-580.6814C1124.3358,-583.2476 1159.2754,-585.8424 1186.742,-587.8822"/>
<polygon fill="#444444" fill-opacity="0.333333" stroke="#444444" stroke-opacity="0.333333" points="1186.6547,-591.3853 1196.8865,-588.6356 1187.1732,-584.4045 1186.6547,-591.3853"/>
</g>
<!-- java&#45;1.8.0&#45;openjdk&#45;devel&#45;&gt;java&#45;1.8.0&#45;openjdk -->
<g id="edge12" class="edge">
<title>java&#45;1.8.0&#45;openjdk&#45;devel&#45;&gt;java&#45;1.8.0&#45;openjdk</title>
<path fill="none" stroke="#444444" stroke-opacity="0.333333" d="M1003.4135,-588.2968C1027.6129,-596.4335 1056.3807,-606.1064 1081.6367,-614.5984"/>
<polygon fill="#444444" fill-opacity="0.333333" stroke="#444444" stroke-opacity="0.333333" points="1080.5335,-617.92 1091.1275,-617.7896 1082.7645,-611.285 1080.5335,-617.92"/>
</g>
<!-- java&#45;1.8.0&#45;openjdk&#45;devel&#45;&gt;java&#45;1.8.0&#45;openjdk&#45;headless -->
<g id="edge13" class="edge">
<title>java&#45;1.8.0&#45;openjdk&#45;devel&#45;&gt;java&#45;1.8.0&#45;openjdk&#45;headless</title>
<path fill="none" stroke="#444444" stroke-opacity="0.333333" d="M847.3666,-552.2349C833.6659,-549.8214 819.5561,-547.3358 805.6977,-544.8946"/>
<polygon fill="#444444" fill-opacity="0.333333" stroke="#444444" stroke-opacity="0.333333" points="806.1162,-541.4145 795.6606,-543.1264 804.9017,-548.3083 806.1162,-541.4145"/>
</g>
<!-- java&#45;1.8.0&#45;openjdk&#45;&gt;giflib -->
<g id="edge14" class="edge">
<title>java&#45;1.8.0&#45;openjdk&#45;&gt;giflib</title>
<path fill="none" stroke="#444444" stroke-opacity="0.333333" d="M1159.5757,-617.5566C1197.4368,-570.3108 1298.5142,-444.1792 1342.4844,-389.31"/>
<polygon fill="#444444" fill-opacity="0.333333" stroke="#444444" stroke-opacity="0.333333" points="1345.2659,-391.4359 1348.7882,-381.4437 1339.8035,-387.0585 1345.2659,-391.4359"/>
</g>
<!-- java&#45;1.8.0&#45;openjdk&#45;&gt;libX11 -->
<g id="edge15" class="edge">
<title>java&#45;1.8.0&#45;openjdk&#45;&gt;libX11</title>
<path fill="none" stroke="#444444" stroke-opacity="0.333333" d="M1183.8142,-617.8302C1186.4564,-616.6053 1189.1352,-615.3635 1191.8164,-614.1205"/>
<polygon fill="#444444" fill-opacity="0.333333" stroke="#444444" stroke-opacity="0.333333" points="1193.2921,-617.2943 1200.8925,-609.913 1190.3479,-610.9435 1193.2921,-617.2943"/>
</g>
<!-- java&#45;1.8.0&#45;openjdk&#45;&gt;java&#45;1.8.0&#45;openjdk&#45;headless -->
<g id="edge16" class="edge">
<title>java&#45;1.8.0&#45;openjdk&#45;&gt;java&#45;1.8.0&#45;openjdk&#45;headless</title>
<path fill="none" stroke="#444444" stroke-opacity="0.333333" d="M1071.3425,-617.8264C990.5684,-598.0125 861.1405,-566.2639 776.6721,-545.5438"/>
<polygon fill="#444444" fill-opacity="0.333333" stroke="#444444" stroke-opacity="0.333333" points="777.402,-542.1191 766.8561,-543.1359 775.7343,-548.9176 777.402,-542.1191"/>
</g>
<!-- java&#45;1.8.0&#45;openjdk&#45;&gt;libXcomposite -->
<g id="edge17" class="edge">
<title>java&#45;1.8.0&#45;openjdk&#45;&gt;libXcomposite</title>
<path fill="none" stroke="#444444" stroke-opacity="0.333333" d="M1128.6969,-654.0747C1111.346,-673.5689 1083.6728,-704.6605 1064.0998,-726.6514"/>
<polygon fill="#444444" fill-opacity="0.333333" stroke="#444444" stroke-opacity="0.333333" points="1061.3234,-724.5064 1057.2893,-734.3031 1066.5523,-729.1603 1061.3234,-724.5064"/>
</g>
<!-- java&#45;1.8.0&#45;openjdk&#45;&gt;libXext -->
<g id="edge18" class="edge">
<title>java&#45;1.8.0&#45;openjdk&#45;&gt;libXext</title>
<path fill="none" stroke="#444444" stroke-opacity="0.333333" d="M1188.7549,-653.9455C1222.3888,-667.8082 1268.9531,-687.0004 1304.6961,-701.7324"/>
<polygon fill="#444444" fill-opacity="0.333333" stroke="#444444" stroke-opacity="0.333333" points="1303.4228,-704.9932 1314.002,-705.568 1306.0903,-698.5213 1303.4228,-704.9932"/>
</g>
<!-- java&#45;1.8.0&#45;openjdk&#45;&gt;libXi -->
<g id="edge19" class="edge">
<title>java&#45;1.8.0&#45;openjdk&#45;&gt;libXi</title>
<path fill="none" stroke="#444444" stroke-opacity="0.333333" d="M1165.7455,-654.0419C1202.7658,-686.314 1280.0249,-753.6639 1321.9531,-790.2145"/>
<polygon fill="#444444" fill-opacity="0.333333" stroke="#444444" stroke-opacity="0.333333" points="1319.7615,-792.9472 1329.5994,-796.88 1324.3613,-787.6706 1319.7615,-792.9472"/>
</g>
<!-- java&#45;1.8.0&#45;openjdk&#45;&gt;libXrender -->
<g id="edge20" class="edge">
<title>java&#45;1.8.0&#45;openjdk&#45;&gt;libXrender</title>
<path fill="none" stroke="#444444" stroke-opacity="0.333333" d="M1144.1432,-653.9752C1142.6263,-690.2605 1139.2044,-772.12 1137.3867,-815.6017"/>
<polygon fill="#444444" fill-opacity="0.333333" stroke="#444444" stroke-opacity="0.333333" points="1133.8821,-815.641 1136.9613,-825.7784 1140.876,-815.9334 1133.8821,-815.641"/>
</g>
<!-- java&#45;1.8.0&#45;openjdk&#45;&gt;libXtst -->
<g id="edge21" class="edge">
<title>java&#45;1.8.0&#45;openjdk&#45;&gt;libXtst</title>
<path fill="none" stroke="#444444" stroke-opacity="0.333333" d="M1156.6533,-653.9519C1176.364,-684.2761 1216.1801,-745.5317 1239.1953,-780.9397"/>
<polygon fill="#444444" fill-opacity="0.333333" stroke="#444444" stroke-opacity="0.333333" points="1236.552,-783.2953 1244.9365,-789.7723 1242.4211,-779.4803 1236.552,-783.2953"/>
</g>
<!-- java&#45;1.8.0&#45;openjdk&#45;&gt;xorg&#45;x11&#45;fonts&#45;Type1 -->
<g id="edge22" class="edge">
<title>java&#45;1.8.0&#45;openjdk&#45;&gt;xorg&#45;x11&#45;fonts&#45;Type1</title>
<path fill="none" stroke="#444444" stroke-opacity="0.333333" d="M1251.9834,-619.5145C1291.8186,-613.4302 1337.4178,-606.4655 1378.923,-600.1262"/>
<polygon fill="#444444" fill-opacity="0.333333" stroke="#444444" stroke-opacity="0.333333" points="1379.4644,-603.5842 1388.8212,-598.6144 1378.4074,-596.6644 1379.4644,-603.5842"/>
</g>
<!-- java&#45;1.8.0&#45;openjdk&#45;headless&#45;&gt;copy&#45;jdk&#45;configs -->
<g id="edge23" class="edge">
<title>java&#45;1.8.0&#45;openjdk&#45;headless&#45;&gt;copy&#45;jdk&#45;configs</title>
<path fill="none" stroke="#444444" stroke-opacity="0.333333" d="M610.2652,-543.1259C547.6915,-556.7049 461.8832,-575.3262 396.9941,-589.4077"/>
<polygon fill="#444444" fill-opacity="0.333333" stroke="#444444" stroke-opacity="0.333333" points="396.2026,-585.9979 387.1723,-591.5391 397.6871,-592.8387 396.2026,-585.9979"/>
</g>
<!-- java&#45;1.8.0&#45;openjdk&#45;headless&#45;&gt;javapackages&#45;tools -->
<g id="edge24" class="edge">
<title>java&#45;1.8.0&#45;openjdk&#45;headless&#45;&gt;javapackages&#45;tools</title>
<path fill="none" stroke="#444444" stroke-opacity="0.333333" d="M683.948,-507.0425C653.8981,-460.5205 560.7144,-336.8258 515.3053,-282.5537"/>
<polygon fill="#444444" fill-opacity="0.333333" stroke="#444444" stroke-opacity="0.333333" points="517.8399,-280.1309 508.7048,-274.7642 512.4994,-284.6562 517.8399,-280.1309"/>
</g>
<!-- java&#45;1.8.0&#45;openjdk&#45;headless&#45;&gt;tzdata&#45;java -->
<g id="edge25" class="edge">
<title>java&#45;1.8.0&#45;openjdk&#45;headless&#45;&gt;tzdata&#45;java</title>
<path fill="none" stroke="#444444" stroke-opacity="0.333333" d="M656.0796,-507.0806C632.2365,-495.5469 601.1132,-480.4915 575.6556,-468.1767"/>
<polygon fill="#444444" fill-opacity="0.333333" stroke="#444444" stroke-opacity="0.333333" points="577.083,-464.9793 566.5568,-463.7753 574.0348,-471.2807 577.083,-464.9793"/>
</g>
<!-- libXcomposite&#45;&gt;libX11 -->
<g id="edge26" class="edge">
<title>libXcomposite&#45;&gt;libX11</title>
<path fill="none" stroke="#444444" stroke-opacity="0.333333" d="M1063.6072,-734.275C1099.4043,-705.3508 1169.5406,-648.6806 1209.7184,-616.2168"/>
<polygon fill="#444444" fill-opacity="0.333333" stroke="#444444" stroke-opacity="0.333333" points="1211.9962,-618.8761 1217.5747,-609.8689 1207.5968,-613.4313 1211.9962,-618.8761"/>
</g>
<!-- libXext&#45;&gt;libX11 -->
<g id="edge27" class="edge">
<title>libXext&#45;&gt;libX11</title>
<path fill="none" stroke="#444444" stroke-opacity="0.333333" d="M1341.6537,-705.5715C1321.307,-682.8277 1286.2,-643.5847 1263.0133,-617.6663"/>
<polygon fill="#444444" fill-opacity="0.333333" stroke="#444444" stroke-opacity="0.333333" points="1265.5056,-615.2028 1256.2296,-610.0834 1260.2885,-619.87 1265.5056,-615.2028"/>
</g>
<!-- libXi&#45;&gt;libX11 -->
<g id="edge28" class="edge">
<title>libXi&#45;&gt;libX11</title>
<path fill="none" stroke="#444444" stroke-opacity="0.333333" d="M1341.4491,-796.8289C1322.0387,-757.6447 1276.3198,-665.3513 1253.439,-619.1614"/>
<polygon fill="#444444" fill-opacity="0.333333" stroke="#444444" stroke-opacity="0.333333" points="1256.496,-617.4477 1248.9208,-610.0405 1250.2234,-620.5549 1256.496,-617.4477"/>
</g>
<!-- libXi&#45;&gt;libXext -->
<g id="edge29" class="edge">
<title>libXi&#45;&gt;libXext</title>
<path fill="none" stroke="#444444" stroke-opacity="0.333333" d="M1351.9422,-797.0265C1352.9721,-784.1212 1354.3775,-766.5091 1355.5536,-751.7711"/>
<polygon fill="#444444" fill-opacity="0.333333" stroke="#444444" stroke-opacity="0.333333" points="1359.0541,-751.9027 1356.3608,-741.656 1352.0763,-751.3458 1359.0541,-751.9027"/>
</g>
<!-- libXrender&#45;&gt;libX11 -->
<g id="edge30" class="edge">
<title>libXrender&#45;&gt;libX11</title>
<path fill="none" stroke="#444444" stroke-opacity="0.333333" d="M1143.6578,-825.8553C1161.5892,-782.2529 1207.2096,-671.3209 1228.5589,-619.4073"/>
<polygon fill="#444444" fill-opacity="0.333333" stroke="#444444" stroke-opacity="0.333333" points="1231.8039,-620.7189 1232.3704,-610.1392 1225.33,-618.0565 1231.8039,-620.7189"/>
</g>
<!-- libXtst&#45;&gt;libX11 -->
<g id="edge31" class="edge">
<title>libXtst&#45;&gt;libX11</title>
<path fill="none" stroke="#444444" stroke-opacity="0.333333" d="M1255.2965,-789.8221C1252.3689,-752.1741 1245.5923,-665.0302 1242.0875,-619.9598"/>
<polygon fill="#444444" fill-opacity="0.333333" stroke="#444444" stroke-opacity="0.333333" points="1245.5761,-619.6769 1241.3113,-609.9784 1238.5972,-620.2197 1245.5761,-619.6769"/>
</g>
<!-- libXtst&#45;&gt;libXext -->
<g id="edge32" class="edge">
<title>libXtst&#45;&gt;libXext</title>
<path fill="none" stroke="#444444" stroke-opacity="0.333333" d="M1278.3885,-789.7963C1292.9145,-777.6913 1312.2222,-761.6015 1328.162,-748.3183"/>
<polygon fill="#444444" fill-opacity="0.333333" stroke="#444444" stroke-opacity="0.333333" points="1330.7058,-750.7545 1336.1474,-741.6638 1326.2245,-745.3769 1330.7058,-750.7545"/>
</g>
<!-- libXtst&#45;&gt;libXi -->
<g id="edge33" class="edge">
<title>libXtst&#45;&gt;libXi</title>
<path fill="none" stroke="#444444" stroke-opacity="0.333333" d="M1304.9738,-811.5909C1305.1366,-811.6034 1305.2993,-811.616 1305.4619,-811.6285"/>
<polygon fill="#444444" fill-opacity="0.333333" stroke="#444444" stroke-opacity="0.333333" points="1302.496,-814.9102 1312.7355,-812.1892 1303.0341,-807.9309 1302.496,-814.9102"/>
</g>
<!-- javapackages&#45;tools&#45;&gt;java&#45;1.8.0&#45;openjdk&#45;headless -->
<g id="edge34" class="edge">
<title>javapackages&#45;tools&#45;&gt;java&#45;1.8.0&#45;openjdk&#45;headless</title>
<path fill="none" stroke="#444444" stroke-opacity="0.333333" d="M499.492,-274.5475C529.5419,-321.0695 622.7256,-444.7642 668.1347,-499.0363"/>
<polygon fill="#444444" fill-opacity="0.333333" stroke="#444444" stroke-opacity="0.333333" points="665.6001,-501.4591 674.7352,-506.8258 670.9406,-496.9338 665.6001,-501.4591"/>
</g>
<!-- javapackages&#45;tools&#45;&gt;which -->
<g id="edge35" class="edge">
<title>javapackages&#45;tools&#45;&gt;which</title>
<path fill="none" stroke="#444444" stroke-opacity="0.333333" d="M479.0111,-238.4887C457.3602,-203.373 409.3918,-125.573 383.9958,-84.383"/>
<polygon fill="#444444" fill-opacity="0.333333" stroke="#444444" stroke-opacity="0.333333" points="386.8697,-82.3752 378.6422,-75.6999 380.9112,-86.049 386.8697,-82.3752"/>
</g>
<!-- libXfont&#45;&gt;libfontenc -->
<g id="edge36" class="edge">
<title>libXfont&#45;&gt;libfontenc</title>
<path fill="none" stroke="#444444" stroke-opacity="0.333333" d="M1026.4378,-367.1548C1026.3969,-355.0914 1026.3426,-339.0603 1026.2962,-325.368"/>
<polygon fill="#444444" fill-opacity="0.333333" stroke="#444444" stroke-opacity="0.333333" points="1029.795,-324.997 1026.2611,-315.0089 1022.7951,-325.0208 1029.795,-324.997"/>
</g>
<!-- xorg&#45;x11&#45;font&#45;utils&#45;&gt;libXfont -->
<g id="edge37" class="edge">
<title>xorg&#45;x11&#45;font&#45;utils&#45;&gt;libXfont</title>
<path fill="none" stroke="#444444" stroke-opacity="0.333333" d="M981.2282,-359.6346C982.7673,-360.5137 984.3213,-361.4012 985.8799,-362.2913"/>
<polygon fill="#444444" fill-opacity="0.333333" stroke="#444444" stroke-opacity="0.333333" points="984.3655,-365.457 994.7849,-367.3771 987.8371,-359.3784 984.3655,-365.457"/>
</g>
<!-- xorg&#45;x11&#45;font&#45;utils&#45;&gt;libfontenc -->
<g id="edge38" class="edge">
<title>xorg&#45;x11&#45;font&#45;utils&#45;&gt;libfontenc</title>
<path fill="none" stroke="#444444" stroke-opacity="0.333333" d="M980.6612,-323.3883C982.4045,-322.3781 984.1682,-321.3561 985.9373,-320.331"/>
<polygon fill="#444444" fill-opacity="0.333333" stroke="#444444" stroke-opacity="0.333333" points="987.8598,-323.2622 994.7573,-315.2201 984.3501,-317.2055 987.8598,-323.2622"/>
</g>
<!-- copy&#45;jdk&#45;configs -->
<g id="node1" class="node">
<title>copy&#45;jdk&#45;configs</title>
<text text-anchor="middle" x="303.9" y="-605.91" font-family="monospace" font-size="14.00" fill="#000000">copy&#45;jdk&#45;configs</text>
</g>
<!-- lua -->
<g id="node2" class="node">
<title>lua</title>
<text text-anchor="middle" x="85.286" y="-556.92" font-family="monospace" font-size="14.00" fill="#000000">lua</text>
</g>
<!-- lua&#45;posix -->
<g id="node3" class="node">
<title>lua&#45;posix</title>
<text text-anchor="middle" x="59.145" y="-691.09" font-family="monospace" font-size="14.00" fill="#000000">lua&#45;posix</text>
</g>
<!-- giflib -->
<g id="node4" class="node">
<title>giflib</title>
<text text-anchor="middle" x="1363.4" y="-359.51" font-family="monospace" font-size="14.00" fill="#000000">giflib</text>
</g>
<!-- libICE -->
<g id="node5" class="node">
<title>libICE</title>
<text text-anchor="middle" x="1469.8" y="-105.43" font-family="monospace" font-size="14.00" fill="#000000">libICE</text>
</g>
<!-- libSM -->
<g id="node6" class="node">
<title>libSM</title>
<text text-anchor="middle" x="1533.9" y="-201.53" font-family="monospace" font-size="14.00" fill="#000000">libSM</text>
</g>
<!-- libX11 -->
<g id="node7" class="node">
<title>libX11</title>
<text text-anchor="middle" x="1239.9" y="-588.13" font-family="monospace" font-size="14.00" fill="#000000">libX11</text>
</g>
<!-- libX11&#45;common -->
<g id="node8" class="node">
<title>libX11&#45;common</title>
<text text-anchor="middle" x="1443.5" y="-516.06" font-family="monospace" font-size="14.00" fill="#000000">libX11&#45;common</text>
</g>
<!-- libxcb -->
<g id="node9" class="node">
<title>libxcb</title>
<text text-anchor="middle" x="1186.3" y="-253.81" font-family="monospace" font-size="14.00" fill="#000000">libxcb</text>
</g>
<!-- libXau -->
<g id="node10" class="node">
<title>libXau</title>
<text text-anchor="middle" x="1179.2" y="-14.3" font-family="monospace" font-size="14.00" fill="#000000">libXau</text>
</g>
<!-- java&#45;1.8.0&#45;openjdk&#45;devel -->
<g id="node11" class="node">
<title>java&#45;1.8.0&#45;openjdk&#45;devel</title>
<text text-anchor="middle" x="949.86" y="-566.59" font-family="monospace" font-size="14.00" fill="#000000">java&#45;1.8.0&#45;openjdk&#45;devel</text>
</g>
<!-- java&#45;1.8.0&#45;openjdk -->
<g id="node12" class="node">
<title>java&#45;1.8.0&#45;openjdk</title>
<text text-anchor="middle" x="1144.9" y="-632.17" font-family="monospace" font-size="14.00" fill="#000000">java&#45;1.8.0&#45;openjdk</text>
</g>
<!-- java&#45;1.8.0&#45;openjdk&#45;headless -->
<g id="node13" class="node">
<title>java&#45;1.8.0&#45;openjdk&#45;headless</title>
<text text-anchor="middle" x="693.33" y="-521.4" font-family="monospace" font-size="14.00" fill="#000000">java&#45;1.8.0&#45;openjdk&#45;headless</text>
</g>
<!-- libXcomposite -->
<g id="node14" class="node">
<title>libXcomposite</title>
<text text-anchor="middle" x="1041.2" y="-748.68" font-family="monospace" font-size="14.00" fill="#000000">libXcomposite</text>
</g>
<!-- libXext -->
<g id="node15" class="node">
<title>libXext</title>
<text text-anchor="middle" x="1357.8" y="-719.92" font-family="monospace" font-size="14.00" fill="#000000">libXext</text>
</g>
<!-- libXi -->
<g id="node16" class="node">
<title>libXi</title>
<text text-anchor="middle" x="1350.5" y="-811.4" font-family="monospace" font-size="14.00" fill="#000000">libXi</text>
</g>
<!-- libXrender -->
<g id="node17" class="node">
<title>libXrender</title>
<text text-anchor="middle" x="1136.2" y="-840.29" font-family="monospace" font-size="14.00" fill="#000000">libXrender</text>
</g>
<!-- libXtst -->
<g id="node18" class="node">
<title>libXtst</title>
<text text-anchor="middle" x="1256.7" y="-804.17" font-family="monospace" font-size="14.00" fill="#000000">libXtst</text>
</g>
<!-- xorg&#45;x11&#45;fonts&#45;Type1 -->
<g id="node19" class="node">
<title>xorg&#45;x11&#45;fonts&#45;Type1</title>
<text text-anchor="middle" x="1506.7" y="-576.91" font-family="monospace" font-size="14.00" fill="#000000">xorg&#45;x11&#45;fonts&#45;Type1</text>
</g>
<!-- javapackages&#45;tools -->
<g id="node20" class="node">
<title>javapackages&#45;tools</title>
<text text-anchor="middle" x="490.11" y="-252.79" font-family="monospace" font-size="14.00" fill="#000000">javapackages&#45;tools</text>
</g>
<!-- tzdata&#45;java -->
<g id="node21" class="node">
<title>tzdata&#45;java</title>
<text text-anchor="middle" x="529.17" y="-441.99" font-family="monospace" font-size="14.00" fill="#000000">tzdata&#45;java</text>
</g>
<!-- which -->
<g id="node22" class="node">
<title>which</title>
<text text-anchor="middle" x="367.48" y="-53.896" font-family="monospace" font-size="14.00" fill="#000000">which</text>
</g>
<!-- libXfont -->
<g id="node23" class="node">
<title>libXfont</title>
<text text-anchor="middle" x="1026.5" y="-381.79" font-family="monospace" font-size="14.00" fill="#000000">libXfont</text>
</g>
<!-- libfontenc -->
<g id="node24" class="node">
<title>libfontenc</title>
<text text-anchor="middle" x="1026.2" y="-293.3" font-family="monospace" font-size="14.00" fill="#000000">libfontenc</text>
</g>
<!-- xorg&#45;x11&#45;font&#45;utils -->
<g id="node25" class="node">
<title>xorg&#45;x11&#45;font&#45;utils</title>
<text text-anchor="middle" x="949.44" y="-337.78" font-family="monospace" font-size="14.00" fill="#000000">xorg&#45;x11&#45;font&#45;utils</text>
</g>
</g>
</svg>
