<?xml version="1.0" encoding="UTF-8" standalone="no"?>
<!DOCTYPE svg PUBLIC "-//W3C//DTD SVG 1.1//EN"
 "http://www.w3.org/Graphics/SVG/1.1/DTD/svg11.dtd">
<!-- Generated by graphviz version 2.40.1 (20161225.0304)
 -->
<!-- Title: G Pages: 1 -->
<svg width="814pt" height="749pt"
 viewBox="0.00 0.00 814.01 748.78" xmlns="http://www.w3.org/2000/svg" xmlns:xlink="http://www.w3.org/1999/xlink">
<g id="graph0" class="graph" transform="scale(1 1) rotate(0) translate(82.5518 647.4168)">
<title>G</title>
<polygon fill="#dae2ff" stroke="transparent" points="-82.5518,101.3659 -82.5518,-647.4168 731.4626,-647.4168 731.4626,101.3659 -82.5518,101.3659"/>
<polygon fill="#fbb4ae" stroke="#fbb4ae" points="617.3176,-305.4502 618.2729,-305.021 620.9342,-301.761 719.6897,-274.0391 723.8393,-323.7779 727.4626,-348.862 726.5543,-350.2306 661.0818,-403.5085 633.122,-382.41 606.0262,-382.41 563.5319,-376.0428 566.468,-336.7913 599.369,-353.9545 599.1598,-311.7149 553.3171,-325.6835 560.5699,-298.4782 561.041,-293.2996 522.9619,-287.9418 519.366,-284.2474 517.6045,-283.6505 515.7355,-282.2187 513.635,-282.2187 513.1061,-282.3737 507.5914,-282.3737 507.1518,-282.2424 502.6123,-282.2424 502.6123,-282.2424 507.1518,-282.2424 507.5914,-282.3737 513.1061,-282.3737 513.635,-282.2187 515.7355,-282.2187 517.6045,-283.6505 519.366,-284.2474 522.9619,-287.9418 561.041,-293.2996 560.5699,-298.4782 553.3171,-325.6835 599.1598,-311.7149 599.369,-353.9545 566.468,-336.7913 563.5319,-376.0428 606.0262,-382.41 633.122,-382.41 661.0818,-403.5085 647.0033,-439.9765 619.858,-481.3177 563.5505,-494.0604 561.6334,-415.2858 561.6334,-415.2858 563.5505,-494.0604 556.3893,-496.0806 545.5491,-499.4424 545.3551,-499.2113 536.0608,-489.2056 531.7452,-484.8097 526.8354,-479.4744 521.5302,-474.0525 519.7101,-472.5234 506.1013,-459.2539 446.81,-405.8634 440.5794,-400.7962 439.0262,-399.4258 447.8683,-370.8383 449.9639,-360.384 452.4537,-350.6414 450.6512,-348.3932 446.5286,-344.098 445.2071,-342.8473 435.6851,-334.6869 433.2646,-332.2989 433.2037,-332.2294 395.4714,-298.6305 387.9928,-293.1282 378.4989,-283.992 373.1339,-278.2419 372.0516,-276.9641 366.327,-269.5228 359.585,-262.3349 347.8011,-247.7377 364.1599,-236.5605 366.2399,-235.3411 430.7451,-203.3687 434.576,-201.2928 444.0099,-195.7403 447.9098,-193.0855 460.7275,-183.7497 468.1063,-177.3426 481.1103,-166.7607 485.3234,-162.7978 494.9571,-152.8601 506.0819,-159.4884 521.3901,-166.843 520.6019,-241.9535 520.6019,-241.9535 521.3901,-166.843 591.5564,-196.5111 606.6625,-196.4126 617.3099,-196.0586 630.5356,-194.5604 717.7474,-236.5692 719.6897,-274.0391 620.9342,-301.761 618.2729,-305.021 617.3176,-305.4502 615.3082,-303.5971 615.3082,-303.5971 617.3176,-305.4502 617.3176,-305.4502"/>
<polygon fill="#ccebc5" stroke="#ccebc5" points="-78.5518,-380.5689 -71.0004,-305.4578 -70.8578,-301.4394 -70.7384,-261.7795 -61.001,-244.1658 -21.901,-208.3577 24.3863,-204.1174 38.977,-201.9078 48.0679,-199.9902 52.008,-198.924 54.331,-198.2252 123.8114,-135.9033 126.1752,-134.6091 138.958,-127.2369 144.2278,-133.3763 144.3445,-133.5063 156.3981,-145.8052 161.0764,-151.1313 161.933,-152.0574 178.0051,-167.7197 179.2621,-169.0309 180.0822,-169.7867 269.5834,-247.2672 261.6674,-255.8922 257.5295,-259.8267 249.8712,-268.4319 242.1935,-275.1903 235.2097,-282.0285 179.3129,-331.3719 179.027,-331.6492 176.8553,-333.5469 171.8264,-338.8165 169.8958,-338.9247 157.3863,-340.1519 146.8463,-342.068 144.5956,-342.5703 131.366,-346.6411 128.9996,-347.4671 101.4409,-381.8085 68.6393,-419.4561 55.9432,-434.793 50.3994,-440.845 43.1975,-449.7776 33.6963,-444.349 29.7421,-442.1958 28.5456,-441.6073 24.0414,-310.4984 29.2319,-306.7073 30.9393,-303.7715 33.8153,-303.7715 35.4235,-305.7796 40.4391,-308.7621 44.9916,-308.7621 44.9916,-308.7621 40.4391,-308.7621 35.4235,-305.7796 33.8153,-303.7715 30.9393,-303.7715 29.2319,-306.7073 24.0414,-310.4984 28.5456,-441.6073 -46.2854,-406.7162 -77.2893,-383.4995 -78.5518,-380.5689 -78.5518,-380.5689"/>
<polygon fill="#fed9a6" stroke="#fed9a6" points="367.8977,94.3332 375.6903,93.6784 386.8255,93.0362 425.9127,75.5239 480.4815,-2.1783 480.679,-2.443 484.375,-7.1062 488.4159,-51.2955 488.4359,-51.4643 478.4502,-88.2482 489.5775,-131.3504 491.4089,-139.7852 494.9571,-152.8601 485.3234,-162.7978 481.1103,-166.7607 468.1063,-177.3426 371.4434,-159.228 368.0802,-155.4688 365.9203,-154.6306 364.4584,-153.4279 360.8022,-153.4279 360.6907,-153.3964 356.262,-153.3964 353.1479,-85.9052 352.5691,-85.8974 350.9822,-85.8067 346.5534,-85.7573 345.4908,-153.3943 341.0824,-153.3943 340.7545,-153.4877 335.7127,-153.4877 333.4633,-85.7655 329.6829,-85.5775 320.7929,-84.361 320.05,-148.7319 315.8057,-149.8862 311.2485,-153.9561 314.7415,-156.9393 314.7415,-156.9393 311.2485,-153.9561 315.8057,-149.8862 320.05,-148.7319 320.7929,-84.361 329.6829,-85.5775 333.4633,-85.7655 335.7127,-153.4877 340.7545,-153.4877 341.0824,-153.3943 345.4908,-153.3943 346.5534,-85.7573 350.9822,-85.8067 352.5691,-85.8974 353.1479,-85.9052 356.262,-153.3964 360.6907,-153.3964 360.8022,-153.4279 364.4584,-153.4279 365.9203,-154.6306 368.0802,-155.4688 371.4434,-159.228 468.1063,-177.3426 460.7275,-183.7497 447.9098,-193.0855 444.0099,-195.7403 434.576,-201.2928 430.7451,-203.3687 366.2399,-235.3411 364.1599,-236.5605 347.8011,-247.7377 359.585,-262.3349 366.327,-269.5228 372.0516,-276.9641 373.1339,-278.2419 374.0563,-341.0067 368.2069,-341.0067 367.2244,-341.289 364.7498,-341.289 364.1469,-341.1177 358.1827,-341.1177 357.3813,-341.3481 354.3676,-341.3481 354.3676,-341.3481 357.3813,-341.3481 358.1827,-341.1177 364.1469,-341.1177 364.7498,-341.289 367.2244,-341.289 368.2069,-341.0067 374.0563,-341.0067 373.1339,-278.2419 378.4989,-283.992 387.9928,-293.1282 395.4714,-298.6305 433.2037,-332.2294 433.2646,-332.2989 435.6851,-334.6869 445.2071,-342.8473 446.5286,-344.098 450.6512,-348.3932 452.4537,-350.6414 449.9639,-360.384 447.8683,-370.8383 439.0262,-399.4258 440.5794,-400.7962 446.81,-405.8634 506.1013,-459.2539 519.7101,-472.5234 521.5302,-474.0525 526.8354,-479.4744 531.7452,-484.8097 536.0608,-489.2056 545.3551,-499.2113 545.5491,-499.4424 490.6664,-593.6681 428.7184,-602.9688 428.6084,-602.9931 414.9645,-606.3308 412.8104,-518.5945 408.7608,-480.2274 412.8238,-476.5285 412.8238,-476.5285 408.7608,-480.2274 404.428,-481.4631 404.428,-481.4631 408.7608,-480.2274 412.8104,-518.5945 414.9645,-606.3308 411.4319,-607.3629 395.7398,-578.077 390.836,-570.0726 390.836,-570.0726 395.7398,-578.077 411.4319,-607.3629 404.9846,-613.2126 352.923,-633.1207 318.8826,-629.6159 309.9279,-532.7648 305.5059,-528.6843 304.6938,-527.1622 306.4243,-526.2863 306.4243,-526.2863 304.6938,-527.1622 305.5059,-528.6843 309.9279,-532.7648 318.8826,-629.6159 297.6212,-628.0439 286.8074,-628.1948 279.4912,-628.5107 274.7435,-628.9929 273.4668,-629.16 266.8763,-530.306 272.558,-531.9966 277.6702,-530.4548 281.4478,-526.8964 278.024,-523.8246 272.7831,-522.2571 272.7831,-522.2571 278.024,-523.8246 281.4478,-526.8964 277.6702,-530.4548 272.558,-531.9966 266.8763,-530.306 273.4668,-629.16 255.5421,-632.0353 240.9649,-635.6511 235.2413,-637.4035 230.7944,-638.8951 194.5223,-643.4168 98.9107,-545.5394 87.7858,-534.6525 74.3853,-529.9612 43.1975,-449.7776 50.3994,-440.845 55.9432,-434.793 170.8988,-415.9134 179.1767,-418.7001 180.488,-483.4211 184.8122,-481.1743 191.0977,-478.2578 191.1129,-478.2516 202.8419,-474.0975 216.4513,-470.7876 215.5828,-451.4017 210.9169,-416.4395 206.8604,-414.09 206.8604,-414.09 210.9169,-416.4395 215.5828,-451.4017 216.4513,-470.7876 202.8419,-474.0975 191.1129,-478.2516 191.0977,-478.2578 184.8122,-481.1743 180.488,-483.4211 179.1767,-418.7001 170.8988,-415.9134 55.9432,-434.793 68.6393,-419.4561 101.4409,-381.8085 128.9996,-347.4671 131.366,-346.6411 144.5956,-342.5703 146.8463,-342.068 157.3863,-340.1519 169.8958,-338.9247 171.8264,-338.8165 176.8553,-333.5469 179.027,-331.6492 179.3129,-331.3719 235.2097,-282.0285 242.1935,-275.1903 249.8712,-268.4319 257.5295,-259.8267 261.6674,-255.8922 262.4194,-317.0823 258.6603,-340.9213 261.3429,-341.7314 265.1505,-341.7314 266.8239,-341.2481 268.8518,-341.2481 269.726,-341.4995 275.1015,-341.4995 276.8278,-340.9848 279.5689,-340.9848 280.346,-341.2155 280.346,-341.2155 279.5689,-340.9848 276.8278,-340.9848 275.1015,-341.4995 269.726,-341.4995 268.8518,-341.2481 266.8239,-341.2481 265.1505,-341.7314 261.3429,-341.7314 258.6603,-340.9213 262.4194,-317.0823 261.6674,-255.8922 269.5834,-247.2672 180.0822,-169.7867 179.2621,-169.0309 178.0051,-167.7197 268.7884,-159.5272 272.4705,-155.8048 274.2698,-155.2809 276.4668,-153.6858 274.2441,-150.4519 274.2441,-150.4519 276.4668,-153.6858 274.2698,-155.2809 272.4705,-155.8048 268.7884,-159.5272 178.0051,-167.7197 161.933,-152.0574 161.0764,-151.1313 156.3981,-145.8052 144.3445,-133.5063 144.2278,-133.3763 138.958,-127.2369 147.9033,-100.4904 236.4115,-45.2746 243.5638,-20.9524 245.5732,-12.0931 254.4041,33.6171 293.8916,79.8685 345.3361,96.5637 347.2863,97.3659 355.3544,96.0498 367.8977,94.3332 367.8977,94.3332"/>
<polyline fill="none" stroke="#000000" points="481.1103,-166.7607 468.1063,-177.3426 460.7275,-183.7497 447.9098,-193.0855 444.0099,-195.7403 434.576,-201.2928 430.7451,-203.3687 366.2399,-235.3411 364.1599,-236.5605 347.8011,-247.7377 359.585,-262.3349 366.327,-269.5228 372.0516,-276.9641 373.1339,-278.2419 378.4989,-283.992 387.9928,-293.1282 395.4714,-298.6305 433.2037,-332.2294 433.2646,-332.2989 435.6851,-334.6869 445.2071,-342.8473 446.5286,-344.098 450.6512,-348.3932 452.4537,-350.6414 449.9639,-360.384 447.8683,-370.8383 439.0262,-399.4258 440.5794,-400.7962 446.81,-405.8634 506.1013,-459.2539 519.7101,-472.5234 521.5302,-474.0525 526.8354,-479.4744 531.7452,-484.8097 536.0608,-489.2056 545.3551,-499.2113 545.5491,-499.4424 556.3893,-496.0806 563.5505,-494.0604 619.858,-481.3177 647.0033,-439.9765 661.0818,-403.5085 726.5543,-350.2306 727.4626,-348.862 723.8393,-323.7779 719.6897,-274.0391 717.7474,-236.5692 630.5356,-194.5604 617.3099,-196.0586 606.6625,-196.4126 591.5564,-196.5111 521.3901,-166.843 506.0819,-159.4884 494.9571,-152.8601 485.3234,-162.7978 481.1103,-166.7607 "/>
<polyline fill="none" stroke="#000000" points="144.5956,-342.5703 131.366,-346.6411 128.9996,-347.4671 101.4409,-381.8085 68.6393,-419.4561 55.9432,-434.793 50.3994,-440.845 43.1975,-449.7776 33.6963,-444.349 29.7421,-442.1958 28.5456,-441.6073 -46.2854,-406.7162 -77.2893,-383.4995 -78.5518,-380.5689 -71.0004,-305.4578 -70.8578,-301.4394 -70.7384,-261.7795 -61.001,-244.1658 -21.901,-208.3577 24.3863,-204.1174 38.977,-201.9078 48.0679,-199.9902 52.008,-198.924 54.331,-198.2252 123.8114,-135.9033 126.1752,-134.6091 138.958,-127.2369 144.2278,-133.3763 144.3445,-133.5063 156.3981,-145.8052 161.0764,-151.1313 161.933,-152.0574 178.0051,-167.7197 179.2621,-169.0309 180.0822,-169.7867 269.5834,-247.2672 261.6674,-255.8922 257.5295,-259.8267 249.8712,-268.4319 242.1935,-275.1903 235.2097,-282.0285 179.3129,-331.3719 179.027,-331.6492 176.8553,-333.5469 171.8264,-338.8165 169.8958,-338.9247 157.3863,-340.1519 146.8463,-342.068 144.5956,-342.5703 "/>
<polyline fill="none" stroke="#000000" points="279.4912,-628.5107 274.7435,-628.9929 273.4668,-629.16 255.5421,-632.0353 240.9649,-635.6511 235.2413,-637.4035 230.7944,-638.8951 194.5223,-643.4168 98.9107,-545.5394 87.7858,-534.6525 74.3853,-529.9612 43.1975,-449.7776 50.3994,-440.845 55.9432,-434.793 68.6393,-419.4561 101.4409,-381.8085 128.9996,-347.4671 131.366,-346.6411 144.5956,-342.5703 146.8463,-342.068 157.3863,-340.1519 169.8958,-338.9247 171.8264,-338.8165 176.8553,-333.5469 179.027,-331.6492 179.3129,-331.3719 235.2097,-282.0285 242.1935,-275.1903 249.8712,-268.4319 257.5295,-259.8267 261.6674,-255.8922 269.5834,-247.2672 180.0822,-169.7867 179.2621,-169.0309 178.0051,-167.7197 161.933,-152.0574 161.0764,-151.1313 156.3981,-145.8052 144.3445,-133.5063 144.2278,-133.3763 138.958,-127.2369 147.9033,-100.4904 236.4115,-45.2746 243.5638,-20.9524 245.5732,-12.0931 254.4041,33.6171 293.8916,79.8685 345.3361,96.5637 347.2863,97.3659 355.3544,96.0498 367.8977,94.3332 375.6903,93.6784 386.8255,93.0362 425.9127,75.5239 480.4815,-2.1783 480.679,-2.443 484.375,-7.1062 488.4159,-51.2955 488.4359,-51.4643 478.4502,-88.2482 489.5775,-131.3504 491.4089,-139.7852 494.9571,-152.8601 485.3234,-162.7978 481.1103,-166.7607 468.1063,-177.3426 460.7275,-183.7497 447.9098,-193.0855 444.0099,-195.7403 434.576,-201.2928 430.7451,-203.3687 366.2399,-235.3411 364.1599,-236.5605 347.8011,-247.7377 359.585,-262.3349 366.327,-269.5228 372.0516,-276.9641 373.1339,-278.2419 378.4989,-283.992 387.9928,-293.1282 395.4714,-298.6305 433.2037,-332.2294 433.2646,-332.2989 435.6851,-334.6869 445.2071,-342.8473 446.5286,-344.098 450.6512,-348.3932 452.4537,-350.6414 449.9639,-360.384 447.8683,-370.8383 439.0262,-399.4258 440.5794,-400.7962 446.81,-405.8634 506.1013,-459.2539 519.7101,-472.5234 521.5302,-474.0525 526.8354,-479.4744 531.7452,-484.8097 536.0608,-489.2056 545.3551,-499.2113 545.5491,-499.4424 490.6664,-593.6681 428.7184,-602.9688 428.6084,-602.9931 414.9645,-606.3308 411.4319,-607.3629 404.9846,-613.2126 352.923,-633.1207 318.8826,-629.6159 297.6212,-628.0439 286.8074,-628.1948 279.4912,-628.5107 "/>
<!-- copy&#45;jdk&#45;configs&#45;&gt;lua -->
<g id="edge1" class="edge">
<title>copy&#45;jdk&#45;configs&#45;&gt;lua</title>
<path fill="none" stroke="#444444" stroke-opacity="0.333333" d="M573.9802,-300.1881C574.0751,-300.2055 574.1699,-300.223 574.2645,-300.2404"/>
<polygon fill="#444444" fill-opacity="0.333333" stroke="#444444" stroke-opacity="0.333333" points="572.2626,-303.4308 582.7308,-301.7977 573.5291,-296.5463 572.2626,-303.4308"/>
</g>
<!-- copy&#45;jdk&#45;configs&#45;&gt;lua&#45;posix -->
<g id="edge2" class="edge">
<title>copy&#45;jdk&#45;configs&#45;&gt;lua&#45;posix</title>
<path fill="none" stroke="#444444" stroke-opacity="0.333333" d="M487.9384,-300.6944C497.1435,-316.0701 510.408,-338.2262 520.8034,-355.59"/>
<polygon fill="#444444" fill-opacity="0.333333" stroke="#444444" stroke-opacity="0.333333" points="517.8016,-357.3899 525.9412,-364.172 523.8075,-353.7942 517.8016,-357.3899"/>
</g>
<!-- lua&#45;posix&#45;&gt;lua -->
<g id="edge3" class="edge">
<title>lua&#45;posix&#45;&gt;lua</title>
<path fill="none" stroke="#444444" stroke-opacity="0.333333" d="M554.5603,-364.1093C563.8112,-354.5447 575.2806,-342.6863 585.3812,-332.2432"/>
<polygon fill="#444444" fill-opacity="0.333333" stroke="#444444" stroke-opacity="0.333333" points="588.0063,-334.5634 592.4427,-324.9421 582.9747,-329.6969 588.0063,-334.5634"/>
</g>
<!-- freetype&#45;&gt;libpng -->
<g id="edge4" class="edge">
<title>freetype&#45;&gt;libpng</title>
<path fill="none" stroke="#444444" stroke-opacity="0.333333" d="M104.7753,-283.3462C101.7471,-284.3628 98.704,-285.3845 95.6794,-286.3999"/>
<polygon fill="#444444" fill-opacity="0.333333" stroke="#444444" stroke-opacity="0.333333" points="94.4895,-283.1073 86.1234,-289.6079 96.7174,-289.7433 94.4895,-283.1073"/>
</g>
<!-- java&#45;1.8.0&#45;openjdk&#45;headless&#45;&gt;copy&#45;jdk&#45;configs -->
<g id="edge5" class="edge">
<title>java&#45;1.8.0&#45;openjdk&#45;headless&#45;&gt;copy&#45;jdk&#45;configs</title>
<path fill="none" stroke="#444444" stroke-opacity="0.333333" d="M364.0397,-323.2966C380.9788,-317.1522 400.0888,-310.2203 417.7048,-303.8304"/>
<polygon fill="#444444" fill-opacity="0.333333" stroke="#444444" stroke-opacity="0.333333" points="419.1073,-307.0448 427.3145,-300.3446 416.7203,-300.4644 419.1073,-307.0448"/>
</g>
<!-- java&#45;1.8.0&#45;openjdk&#45;headless&#45;&gt;freetype -->
<g id="edge6" class="edge">
<title>java&#45;1.8.0&#45;openjdk&#45;headless&#45;&gt;freetype</title>
<path fill="none" stroke="#444444" stroke-opacity="0.333333" d="M277.4457,-323.2967C255.5928,-312.6388 227.7274,-299.0485 204.4647,-287.7029"/>
<polygon fill="#444444" fill-opacity="0.333333" stroke="#444444" stroke-opacity="0.333333" points="205.9912,-284.5534 195.4689,-283.3156 202.9227,-290.845 205.9912,-284.5534"/>
</g>
<!-- java&#45;1.8.0&#45;openjdk&#45;headless&#45;&gt;javapackages&#45;tools -->
<g id="edge7" class="edge">
<title>java&#45;1.8.0&#45;openjdk&#45;headless&#45;&gt;javapackages&#45;tools</title>
<path fill="none" stroke="#444444" stroke-opacity="0.333333" d="M319.1481,-323.1138C323.2488,-290.3502 325.6184,-221.2191 324.2303,-182.1712"/>
<polygon fill="#444444" fill-opacity="0.333333" stroke="#444444" stroke-opacity="0.333333" points="327.7179,-181.8293 323.7375,-172.0106 320.7261,-182.1685 327.7179,-181.8293"/>
</g>
<!-- java&#45;1.8.0&#45;openjdk&#45;headless&#45;&gt;libjpeg&#45;turbo -->
<g id="edge8" class="edge">
<title>java&#45;1.8.0&#45;openjdk&#45;headless&#45;&gt;libjpeg&#45;turbo</title>
<path fill="none" stroke="#444444" stroke-opacity="0.333333" d="M310.3028,-359.4636C303.0106,-391.9317 287.6872,-460.158 279.0045,-498.8172"/>
<polygon fill="#444444" fill-opacity="0.333333" stroke="#444444" stroke-opacity="0.333333" points="275.5203,-498.3588 276.7438,-508.8827 282.3502,-499.8928 275.5203,-498.3588"/>
</g>
<!-- java&#45;1.8.0&#45;openjdk&#45;headless&#45;&gt;lksctp&#45;tools -->
<g id="edge9" class="edge">
<title>java&#45;1.8.0&#45;openjdk&#45;headless&#45;&gt;lksctp&#45;tools</title>
<path fill="none" stroke="#444444" stroke-opacity="0.333333" d="M288.8488,-359.3692C276.4885,-368.1121 261.4776,-378.7299 248.1693,-388.1434"/>
<polygon fill="#444444" fill-opacity="0.333333" stroke="#444444" stroke-opacity="0.333333" points="245.8575,-385.4915 239.7146,-394.1238 249.8999,-391.2064 245.8575,-385.4915"/>
</g>
<!-- java&#45;1.8.0&#45;openjdk&#45;headless&#45;&gt;tzdata&#45;java -->
<g id="edge10" class="edge">
<title>java&#45;1.8.0&#45;openjdk&#45;headless&#45;&gt;tzdata&#45;java</title>
<path fill="none" stroke="#444444" stroke-opacity="0.333333" d="M326.4639,-359.545C341.8278,-382.7299 368.4794,-422.9482 386.1735,-449.6492"/>
<polygon fill="#444444" fill-opacity="0.333333" stroke="#444444" stroke-opacity="0.333333" points="383.3599,-451.7396 391.8014,-458.1421 389.195,-447.8728 383.3599,-451.7396"/>
</g>
<!-- javapackages&#45;tools&#45;&gt;java&#45;1.8.0&#45;openjdk&#45;headless -->
<g id="edge11" class="edge">
<title>javapackages&#45;tools&#45;&gt;java&#45;1.8.0&#45;openjdk&#45;headless</title>
<path fill="none" stroke="#444444" stroke-opacity="0.333333" d="M315.3319,-171.9562C311.2312,-204.7198 308.8616,-273.8509 310.2497,-312.8988"/>
<polygon fill="#444444" fill-opacity="0.333333" stroke="#444444" stroke-opacity="0.333333" points="306.7621,-313.2407 310.7425,-323.0594 313.7539,-312.9015 306.7621,-313.2407"/>
</g>
<!-- javapackages&#45;tools&#45;&gt;which -->
<g id="edge12" class="edge">
<title>javapackages&#45;tools&#45;&gt;which</title>
<path fill="none" stroke="#444444" stroke-opacity="0.333333" d="M325.0757,-135.7321C331.4025,-112.809 342.395,-72.9814 349.8232,-46.0678"/>
<polygon fill="#444444" fill-opacity="0.333333" stroke="#444444" stroke-opacity="0.333333" points="353.2869,-46.6732 352.5737,-36.1024 346.5392,-44.8108 353.2869,-46.6732"/>
</g>
<!-- copy&#45;jdk&#45;configs -->
<g id="node1" class="node">
<title>copy&#45;jdk&#45;configs</title>
<text text-anchor="middle" x="476.95" y="-278.64" font-family="monospace" font-size="14.00" fill="#000000">copy&#45;jdk&#45;configs</text>
</g>
<!-- lua -->
<g id="node2" class="node">
<title>lua</title>
<text text-anchor="middle" x="609.98" y="-303.11" font-family="monospace" font-size="14.00" fill="#000000">lua</text>
</g>
<!-- lua&#45;posix -->
<g id="node3" class="node">
<title>lua&#45;posix</title>
<text text-anchor="middle" x="536.86" y="-378.71" font-family="monospace" font-size="14.00" fill="#000000">lua&#45;posix</text>
</g>
<!-- freetype -->
<g id="node4" class="node">
<title>freetype</title>
<text text-anchor="middle" x="158.53" y="-261.6" font-family="monospace" font-size="14.00" fill="#000000">freetype</text>
</g>
<!-- libpng -->
<g id="node5" class="node">
<title>libpng</title>
<text text-anchor="middle" x="42.896" y="-300.42" font-family="monospace" font-size="14.00" fill="#000000">libpng</text>
</g>
<!-- java&#45;1.8.0&#45;openjdk&#45;headless -->
<g id="node6" class="node">
<title>java&#45;1.8.0&#45;openjdk&#45;headless</title>
<text text-anchor="middle" x="314.38" y="-337.61" font-family="monospace" font-size="14.00" fill="#000000">java&#45;1.8.0&#45;openjdk&#45;headless</text>
</g>
<!-- javapackages&#45;tools -->
<g id="node7" class="node">
<title>javapackages&#45;tools</title>
<text text-anchor="middle" x="320.1" y="-150.06" font-family="monospace" font-size="14.00" fill="#000000">javapackages&#45;tools</text>
</g>
<!-- libjpeg&#45;turbo -->
<g id="node8" class="node">
<title>libjpeg&#45;turbo</title>
<text text-anchor="middle" x="272.65" y="-523.41" font-family="monospace" font-size="14.00" fill="#000000">libjpeg&#45;turbo</text>
</g>
<!-- lksctp&#45;tools -->
<g id="node9" class="node">
<title>lksctp&#45;tools</title>
<text text-anchor="middle" x="214.23" y="-408.45" font-family="monospace" font-size="14.00" fill="#000000">lksctp&#45;tools</text>
</g>
<!-- tzdata&#45;java -->
<g id="node10" class="node">
<title>tzdata&#45;java</title>
<text text-anchor="middle" x="403.98" y="-472.82" font-family="monospace" font-size="14.00" fill="#000000">tzdata&#45;java</text>
</g>
<!-- which -->
<g id="node11" class="node">
<title>which</title>
<text text-anchor="middle" x="357.57" y="-14.3" font-family="monospace" font-size="14.00" fill="#000000">which</text>
</g>
</g>
</svg>
