<?xml version="1.0" encoding="UTF-8" standalone="no"?>
<!DOCTYPE svg PUBLIC "-//W3C//DTD SVG 1.1//EN"
 "http://www.w3.org/Graphics/SVG/1.1/DTD/svg11.dtd">
<!-- Generated by graphviz version 2.40.1 (20161225.0304)
 -->
<!-- Title: G Pages: 1 -->
<svg width="1099pt" height="937pt"
 viewBox="0.00 0.00 1098.53 936.69" xmlns="http://www.w3.org/2000/svg" xmlns:xlink="http://www.w3.org/1999/xlink">
<g id="graph0" class="graph" transform="scale(1 1) rotate(0) translate(112.4814 784.5207)">
<title>G</title>
<polygon fill="#dae2ff" stroke="transparent" points="-112.4814,152.1705 -112.4814,-784.5207 986.0523,-784.5207 986.0523,152.1705 -112.4814,152.1705"/>
<polygon fill="#fbb4ae" stroke="#fbb4ae" points="34.4769,-109.9563 34.8611,-240.6783 34.8611,-240.6783 34.4769,-109.9563 38.9269,-109.2186 49.6746,-107.2526 50.4633,-198.918 48.1372,-279.511 43.238,-279.511 42.6423,-279.6926 44.6079,-326.2498 49.2786,-279.8593 49.9994,-279.8593 54.0669,-283.4441 59.1807,-284.9011 64.071,-283.5142 68.2451,-279.7913 69.4463,-279.7913 70.552,-280.1251 74.9816,-280.1251 76.8831,-338.487 84.55,-338.6205 118.8458,-342.9357 126.1407,-358.0396 184.7612,-339.5165 187.2958,-336.385 190.8667,-334.832 191.2333,-334.524 194.5313,-334.524 194.5313,-334.524 191.2333,-334.524 190.8667,-334.832 187.2958,-336.385 184.7612,-339.5165 126.1407,-358.0396 118.8458,-342.9357 84.55,-338.6205 76.8831,-338.487 74.9816,-280.1251 76.2548,-279.7454 78.1924,-279.7454 78.1924,-279.7454 76.2548,-279.7454 74.9816,-280.1251 70.552,-280.1251 69.4463,-279.7913 68.2451,-279.7913 64.071,-283.5142 59.1807,-284.9011 54.0669,-283.4441 49.9994,-279.8593 49.2786,-279.8593 44.6079,-326.2498 42.6423,-279.6926 43.238,-279.511 48.1372,-279.511 50.4633,-198.918 49.6746,-107.2526 64.2396,-104.0898 65.2311,-104.93 67.8535,-107.0101 79.1734,-115.3983 96.701,-127.9215 194.7423,-195.2167 198.0776,-195.6655 199.6516,-195.8147 214.2594,-196.9096 235.8997,-197.2397 238.5563,-197.1218 260.1805,-195.2998 275.6058,-192.7742 356.4214,-176.3351 346.5639,-326.9057 346.9463,-342.7339 346.8314,-344.4838 346.2458,-349.7645 341.034,-429.3737 283.559,-487.1957 272.1593,-497.7425 262.7793,-507.014 262.1165,-424.1534 267.0461,-334.5738 267.0461,-334.5738 262.1165,-424.1534 262.7793,-507.014 256.2489,-514.1017 248.0021,-523.3251 241.6487,-523.1532 236.9535,-523.1594 222.2311,-523.597 220.4595,-523.7 212.4462,-524.2795 131.39,-568.7285 72.4025,-574.7916 66.1278,-575.6401 58.1339,-568.9338 52.7294,-564.6967 -74.5952,-468.3244 -93.546,-445.5406 51.9229,-401.8546 53.7777,-399.6183 55.9591,-398.9488 57.0809,-399.9614 57.0809,-399.9614 55.9591,-398.9488 53.7777,-399.6183 51.9229,-401.8546 -93.546,-445.5406 -105.5765,-431.6834 -89.4615,-373.238 -87.2238,-363.4848 -93.5294,-321.07 -104.5708,-257.5566 -108.4814,-239.8287 -14.0662,-129.8513 4.6746,-114.2573 6.3777,-113.6542 34.4769,-109.9563 34.4769,-109.9563"/>
<polygon fill="#ccebc5" stroke="#ccebc5" points="979.3624,-571.5327 972.4145,-612.6158 962.6487,-679.7958 920.431,-714.5544 871.5722,-749.6216 868.6259,-751.1045 850.5923,-754.5697 828.2515,-759.2383 828.8123,-626.896 828.7601,-626.101 823.0256,-584.2321 829.0164,-580.4748 829.9488,-579.3094 829.2844,-578.5299 823.4548,-575.0302 818.5261,-575.0302 818.5261,-575.0302 823.4548,-575.0302 829.2844,-578.5299 829.9488,-579.3094 829.0164,-580.4748 823.0256,-584.2321 828.7601,-626.101 828.8123,-626.896 828.2515,-759.2383 809.5291,-764.0826 807.3328,-764.6869 758.5965,-780.5207 746.7374,-774.7922 685.8679,-732.6792 635.3427,-656.7619 601.9604,-640.759 576.2538,-499.58 576.1971,-498.7382 571.6829,-456.4763 568.7272,-440.2439 570.7219,-438.6021 650.8217,-376.4923 665.5248,-364.3283 667.2397,-362.8277 683.8258,-346.636 683.9576,-346.5011 686.7884,-343.32 702.9088,-327.7664 719.5862,-309.6109 736.4986,-307.6123 849.8046,-423.6112 850.1248,-423.6718 906.8741,-433.3494 969.39,-460.1872 973.0928,-462.7316 981.5141,-552.8486 982.0523,-557.516 979.3624,-571.5327 979.3624,-571.5327"/>
<polygon fill="#fed9a6" stroke="#fed9a6" points="903.2427,-37.8419 904.0648,-3.17 904.1035,-2.5692 801.5797,134.0016 759.833,142.2493 752.9691,-11.4824 748.2388,-14.4172 746.0111,-18.0335 745.6925,-18.0335 742.2078,-21.2434 743.4198,-84.2588 742.7844,-107.1607 755.9109,-115.7459 808.7993,-152.6766 681.2239,-152.2211 669.7476,-148.6048 665.1241,-150.8996 661.8461,-79.8526 661.7961,-73.1457 655.8651,-70.1074 644.4793,-63.7809 641.6732,-62.1055 639.5811,-60.7685 630.2037,-53.9531 629.0398,-154.8067 628.0443,-154.8067 625.0105,-152.3316 618.4747,-150.3859 614.2422,-151.5671 609.8491,-155.4138 613.0165,-158.0523 613.0165,-158.0523 609.8491,-155.4138 614.2422,-151.5671 611.2044,-112.9447 608.0634,-154.9966 604.2948,-154.9966 601.2634,-116.3292 597.6663,-155.2899 594.4332,-155.2899 589.7535,-195.9499 587.8843,-155.2993 583.4036,-155.2993 583.3524,-155.2846 583.3524,-155.2846 583.4036,-155.2993 587.8843,-155.2993 589.7535,-195.9499 594.4332,-155.2899 594.0734,-155.1879 594.0734,-155.1879 594.4332,-155.2899 597.6663,-155.2899 601.2634,-116.3292 604.2948,-154.9966 608.0634,-154.9966 611.2044,-112.9447 614.2422,-151.5671 618.4747,-150.3859 625.0105,-152.3316 628.0443,-154.8067 629.0398,-154.8067 630.2037,-53.9531 639.5811,-60.7685 641.6732,-62.1055 644.4793,-63.7809 655.8651,-70.1074 661.7961,-73.1457 661.8461,-79.8526 665.1241,-150.8996 669.7476,-148.6048 681.2239,-152.2211 808.7993,-152.6766 755.9109,-115.7459 742.7844,-107.1607 743.4198,-84.2588 742.2078,-21.2434 736.9165,-22.8491 736.9165,-22.8491 742.2078,-21.2434 745.6925,-18.0335 741.6073,-14.2416 737.1169,-12.9582 737.1169,-12.9582 741.6073,-14.2416 745.6925,-18.0335 746.0111,-18.0335 748.2388,-14.4172 752.9691,-11.4824 759.833,142.2493 747.5809,144.8975 734.6508,148.1705 730.3881,146.1091 721.3199,142.1065 647.0085,112.4229 573.1574,25.7909 562.5121,10.5828 414.712,-26.5623 388.1136,-143.256 384.6088,-156.5372 356.4214,-176.3351 346.5639,-326.9057 346.9463,-342.7339 346.8314,-344.4838 415.8956,-349.4834 421.1302,-345.4527 419.0018,-421.6658 422.5471,-421.5685 431.803,-421.6501 433.0086,-421.5671 433.3597,-368.5946 433.3597,-368.5946 433.0086,-421.5671 431.803,-421.6501 422.5471,-421.5685 419.0018,-421.6658 421.1302,-345.4527 415.8956,-349.4834 346.8314,-344.4838 346.2458,-349.7645 341.034,-429.3737 283.559,-487.1957 272.1593,-497.7425 262.7793,-507.014 256.2489,-514.1017 248.0021,-523.3251 253.3245,-528.309 349.0257,-621.0798 424.0425,-651.4514 433.9248,-655.6695 439.1014,-654.2192 460.2925,-649.5248 459.3994,-629.5874 456.5301,-502.7898 461.75,-504.3572 461.75,-504.3572 456.5301,-502.7898 459.3994,-629.5874 460.2925,-649.5248 462.825,-649.064 469.724,-648.0778 480.5475,-646.7422 506.7569,-645.0458 601.9604,-640.759 576.2538,-499.58 576.1971,-498.7382 571.6829,-456.4763 568.7272,-440.2439 570.7219,-438.6021 566.1164,-349.8207 561.1726,-347.1714 558.2956,-343.3656 556.8586,-343.3656 554.1037,-383.3381 550.3569,-343.31 547.8231,-343.31 543.6738,-366.4737 539.6425,-343.4029 537.393,-343.4029 533.5057,-372.4521 530.1687,-343.6705 527.255,-343.6705 523.7339,-371.7047 520.003,-343.7181 520.003,-343.7181 523.7339,-371.7047 527.255,-343.6705 530.1687,-343.6705 531.1049,-343.4007 531.1049,-343.4007 530.1687,-343.6705 533.5057,-372.4521 537.393,-343.4029 539.6425,-343.4029 543.6738,-366.4737 547.8231,-343.31 546.799,-343.0252 546.799,-343.0252 547.8231,-343.31 550.3569,-343.31 554.1037,-383.3381 556.8586,-343.3656 556.3693,-343.2309 556.3693,-343.2309 556.8586,-343.3656 558.2956,-343.3656 561.1726,-347.1714 566.1164,-349.8207 570.7219,-438.6021 650.8217,-376.4923 665.5248,-364.3283 667.2397,-362.8277 683.8258,-346.636 683.9576,-346.5011 686.7884,-343.32 596.1977,-343.32 596.1977,-343.32 686.7884,-343.32 702.9088,-327.7664 719.5862,-309.6109 736.4986,-307.6123 816.1625,-160.1642 817.3366,-158.0955 885.4125,-121.9297 901.0817,-47.1825 903.2427,-37.8419 903.2427,-37.8419"/>
<polyline fill="none" stroke="#000000" points="222.2311,-523.597 220.4595,-523.7 212.4462,-524.2795 131.39,-568.7285 72.4025,-574.7916 66.1278,-575.6401 58.1339,-568.9338 52.7294,-564.6967 -74.5952,-468.3244 -93.546,-445.5406 -105.5765,-431.6834 -89.4615,-373.238 -87.2238,-363.4848 -93.5294,-321.07 -104.5708,-257.5566 -108.4814,-239.8287 -14.0662,-129.8513 4.6746,-114.2573 6.3777,-113.6542 34.4769,-109.9563 38.9269,-109.2186 49.6746,-107.2526 64.2396,-104.0898 65.2311,-104.93 67.8535,-107.0101 79.1734,-115.3983 96.701,-127.9215 194.7423,-195.2167 198.0776,-195.6655 199.6516,-195.8147 214.2594,-196.9096 235.8997,-197.2397 238.5563,-197.1218 260.1805,-195.2998 275.6058,-192.7742 356.4214,-176.3351 346.5639,-326.9057 346.9463,-342.7339 346.8314,-344.4838 346.2458,-349.7645 341.034,-429.3737 283.559,-487.1957 272.1593,-497.7425 262.7793,-507.014 256.2489,-514.1017 248.0021,-523.3251 241.6487,-523.1532 236.9535,-523.1594 222.2311,-523.597 "/>
<polyline fill="none" stroke="#000000" points="686.7884,-343.32 683.9576,-346.5011 683.8258,-346.636 667.2397,-362.8277 665.5248,-364.3283 650.8217,-376.4923 570.7219,-438.6021 568.7272,-440.2439 571.6829,-456.4763 576.1971,-498.7382 576.2538,-499.58 601.9604,-640.759 635.3427,-656.7619 685.8679,-732.6792 746.7374,-774.7922 758.5965,-780.5207 807.3328,-764.6869 809.5291,-764.0826 828.2515,-759.2383 850.5923,-754.5697 868.6259,-751.1045 871.5722,-749.6216 920.431,-714.5544 962.6487,-679.7958 972.4145,-612.6158 979.3624,-571.5327 982.0523,-557.516 981.5141,-552.8486 973.0928,-462.7316 969.39,-460.1872 906.8741,-433.3494 850.1248,-423.6718 849.8046,-423.6112 736.4986,-307.6123 719.5862,-309.6109 702.9088,-327.7664 686.7884,-343.32 "/>
<polyline fill="none" stroke="#000000" points="576.1971,-498.7382 571.6829,-456.4763 568.7272,-440.2439 570.7219,-438.6021 650.8217,-376.4923 665.5248,-364.3283 667.2397,-362.8277 683.8258,-346.636 683.9576,-346.5011 686.7884,-343.32 702.9088,-327.7664 719.5862,-309.6109 736.4986,-307.6123 816.1625,-160.1642 817.3366,-158.0955 885.4125,-121.9297 901.0817,-47.1825 903.2427,-37.8419 904.0648,-3.17 904.1035,-2.5692 801.5797,134.0016 759.833,142.2493 747.5809,144.8975 734.6508,148.1705 730.3881,146.1091 721.3199,142.1065 647.0085,112.4229 573.1574,25.7909 562.5121,10.5828 414.712,-26.5623 388.1136,-143.256 384.6088,-156.5372 356.4214,-176.3351 346.5639,-326.9057 346.9463,-342.7339 346.8314,-344.4838 346.2458,-349.7645 341.034,-429.3737 283.559,-487.1957 272.1593,-497.7425 262.7793,-507.014 256.2489,-514.1017 248.0021,-523.3251 253.3245,-528.309 349.0257,-621.0798 424.0425,-651.4514 433.9248,-655.6695 439.1014,-654.2192 460.2925,-649.5248 462.825,-649.064 469.724,-648.0778 480.5475,-646.7422 506.7569,-645.0458 601.9604,-640.759 576.2538,-499.58 576.1971,-498.7382 "/>
<!-- copy&#45;jdk&#45;configs&#45;&gt;lua -->
<g id="edge1" class="edge">
<title>copy&#45;jdk&#45;configs&#45;&gt;lua</title>
<path fill="none" stroke="#444444" stroke-opacity="0.333333" d="M182.2549,-352.5858C155.8282,-362.3912 123.6836,-374.3183 99.3903,-383.3322"/>
<polygon fill="#444444" fill-opacity="0.333333" stroke="#444444" stroke-opacity="0.333333" points="97.9895,-380.1187 89.8317,-386.8789 100.4247,-386.6815 97.9895,-380.1187"/>
</g>
<!-- copy&#45;jdk&#45;configs&#45;&gt;lua&#45;posix -->
<g id="edge2" class="edge">
<title>copy&#45;jdk&#45;configs&#45;&gt;lua&#45;posix</title>
<path fill="none" stroke="#444444" stroke-opacity="0.333333" d="M174.1783,-316.4611C158.643,-311.5086 141.6629,-306.0956 125.6335,-300.9856"/>
<polygon fill="#444444" fill-opacity="0.333333" stroke="#444444" stroke-opacity="0.333333" points="126.3878,-297.5526 115.7972,-297.85 124.2617,-304.2219 126.3878,-297.5526"/>
</g>
<!-- lua&#45;posix&#45;&gt;lua -->
<g id="edge3" class="edge">
<title>lua&#45;posix&#45;&gt;lua</title>
<path fill="none" stroke="#444444" stroke-opacity="0.333333" d="M59.6993,-297.8364C60.2787,-316.6985 61.1958,-346.5586 61.8721,-368.5748"/>
<polygon fill="#444444" fill-opacity="0.333333" stroke="#444444" stroke-opacity="0.333333" points="58.3767,-368.7823 62.1821,-378.6701 65.3734,-368.5673 58.3767,-368.7823"/>
</g>
<!-- freetype&#45;&gt;libpng -->
<g id="edge4" class="edge">
<title>freetype&#45;&gt;libpng</title>
<path fill="none" stroke="#444444" stroke-opacity="0.333333" d="M704.2296,-489.1672C727.5757,-507.2564 763.5549,-535.1341 789.3908,-555.1525"/>
<polygon fill="#444444" fill-opacity="0.333333" stroke="#444444" stroke-opacity="0.333333" points="787.3453,-557.9953 797.3938,-561.3535 791.6327,-552.4619 787.3453,-557.9953"/>
</g>
<!-- java&#45;1.8.0&#45;openjdk&#45;headless&#45;&gt;copy&#45;jdk&#45;configs -->
<g id="edge5" class="edge">
<title>java&#45;1.8.0&#45;openjdk&#45;headless&#45;&gt;copy&#45;jdk&#45;configs</title>
<path fill="none" stroke="#444444" stroke-opacity="0.333333" d="M335.224,-338.0606C335.0752,-338.0556 334.9264,-338.0505 334.7777,-338.0455"/>
<polygon fill="#444444" fill-opacity="0.333333" stroke="#444444" stroke-opacity="0.333333" points="338.2324,-334.6602 328.12,-337.8209 337.9962,-341.6563 338.2324,-334.6602"/>
</g>
<!-- java&#45;1.8.0&#45;openjdk&#45;headless&#45;&gt;freetype -->
<g id="edge6" class="edge">
<title>java&#45;1.8.0&#45;openjdk&#45;headless&#45;&gt;freetype</title>
<path fill="none" stroke="#444444" stroke-opacity="0.333333" d="M517.8642,-361.3412C551.2371,-383.8039 608.3759,-422.2629 645.3456,-447.1465"/>
<polygon fill="#444444" fill-opacity="0.333333" stroke="#444444" stroke-opacity="0.333333" points="643.5753,-450.1739 653.8256,-452.8542 647.484,-444.3668 643.5753,-450.1739"/>
</g>
<!-- java&#45;1.8.0&#45;openjdk&#45;headless&#45;&gt;javapackages&#45;tools -->
<g id="edge7" class="edge">
<title>java&#45;1.8.0&#45;openjdk&#45;headless&#45;&gt;javapackages&#45;tools</title>
<path fill="none" stroke="#444444" stroke-opacity="0.333333" d="M508.6551,-325.3025C534.945,-292.0037 583.3645,-220.925 606.4065,-181.9778"/>
<polygon fill="#444444" fill-opacity="0.333333" stroke="#444444" stroke-opacity="0.333333" points="609.4669,-183.6768 611.4344,-173.2663 603.4043,-180.1776 609.4669,-183.6768"/>
</g>
<!-- java&#45;1.8.0&#45;openjdk&#45;headless&#45;&gt;tzdata&#45;java -->
<g id="edge8" class="edge">
<title>java&#45;1.8.0&#45;openjdk&#45;headless&#45;&gt;tzdata&#45;java</title>
<path fill="none" stroke="#444444" stroke-opacity="0.333333" d="M487.6972,-361.5508C482.6629,-388.6025 473.1729,-439.5969 467.2438,-471.4565"/>
<polygon fill="#444444" fill-opacity="0.333333" stroke="#444444" stroke-opacity="0.333333" points="463.7699,-470.9937 465.3811,-481.4653 470.6517,-472.2745 463.7699,-470.9937"/>
</g>
<!-- javapackages&#45;tools&#45;&gt;java&#45;1.8.0&#45;openjdk&#45;headless -->
<g id="edge9" class="edge">
<title>javapackages&#45;tools&#45;&gt;java&#45;1.8.0&#45;openjdk&#45;headless</title>
<path fill="none" stroke="#444444" stroke-opacity="0.333333" d="M601.3649,-173.2075C575.075,-206.5063 526.6555,-277.585 503.6135,-316.5322"/>
<polygon fill="#444444" fill-opacity="0.333333" stroke="#444444" stroke-opacity="0.333333" points="500.5531,-314.8332 498.5856,-325.2437 506.6157,-318.3324 500.5531,-314.8332"/>
</g>
<!-- javapackages&#45;tools&#45;&gt;which -->
<g id="edge10" class="edge">
<title>javapackages&#45;tools&#45;&gt;which</title>
<path fill="none" stroke="#444444" stroke-opacity="0.333333" d="M634.5995,-136.9722C655.1409,-113.0902 691.2997,-71.051 714.6746,-43.8748"/>
<polygon fill="#444444" fill-opacity="0.333333" stroke="#444444" stroke-opacity="0.333333" points="717.3282,-46.1569 721.1957,-36.2931 712.0213,-41.5922 717.3282,-46.1569"/>
</g>
<!-- copy&#45;jdk&#45;configs -->
<g id="node1" class="node">
<title>copy&#45;jdk&#45;configs</title>
<text text-anchor="middle" x="230.89" y="-330.84" font-family="monospace" font-size="14.00" fill="#000000">copy&#45;jdk&#45;configs</text>
</g>
<!-- lua -->
<g id="node2" class="node">
<title>lua</title>
<text text-anchor="middle" x="62.743" y="-393.23" font-family="monospace" font-size="14.00" fill="#000000">lua</text>
</g>
<!-- lua&#45;posix -->
<g id="node3" class="node">
<title>lua&#45;posix</title>
<text text-anchor="middle" x="59.145" y="-276.09" font-family="monospace" font-size="14.00" fill="#000000">lua&#45;posix</text>
</g>
<!-- freetype -->
<g id="node4" class="node">
<title>freetype</title>
<text text-anchor="middle" x="680.77" y="-467.29" font-family="monospace" font-size="14.00" fill="#000000">freetype</text>
</g>
<!-- libpng -->
<g id="node5" class="node">
<title>libpng</title>
<text text-anchor="middle" x="820.93" y="-575.89" font-family="monospace" font-size="14.00" fill="#000000">libpng</text>
</g>
<!-- java&#45;1.8.0&#45;openjdk&#45;headless -->
<g id="node6" class="node">
<title>java&#45;1.8.0&#45;openjdk&#45;headless</title>
<text text-anchor="middle" x="491.09" y="-339.62" font-family="monospace" font-size="14.00" fill="#000000">java&#45;1.8.0&#45;openjdk&#45;headless</text>
</g>
<!-- javapackages&#45;tools -->
<g id="node7" class="node">
<title>javapackages&#45;tools</title>
<text text-anchor="middle" x="618.93" y="-151.49" font-family="monospace" font-size="14.00" fill="#000000">javapackages&#45;tools</text>
</g>
<!-- tzdata&#45;java -->
<g id="node8" class="node">
<title>tzdata&#45;java</title>
<text text-anchor="middle" x="462.01" y="-495.88" font-family="monospace" font-size="14.00" fill="#000000">tzdata&#45;java</text>
</g>
<!-- which -->
<g id="node9" class="node">
<title>which</title>
<text text-anchor="middle" x="736.93" y="-14.3" font-family="monospace" font-size="14.00" fill="#000000">which</text>
</g>
</g>
</svg>
