<?xml version="1.0" encoding="UTF-8" standalone="no"?>
<!DOCTYPE svg PUBLIC "-//W3C//DTD SVG 1.1//EN"
 "http://www.w3.org/Graphics/SVG/1.1/DTD/svg11.dtd">
<!-- Generated by graphviz version 2.40.1 (20161225.0304)
 -->
<!-- Title: G Pages: 1 -->
<svg width="1321pt" height="957pt"
 viewBox="0.00 0.00 1321.04 957.35" xmlns="http://www.w3.org/2000/svg" xmlns:xlink="http://www.w3.org/1999/xlink">
<g id="graph0" class="graph" transform="scale(1 1) rotate(0) translate(132.5113 812.8758)">
<title>G</title>
<polygon fill="#dae2ff" stroke="transparent" points="-132.5113,144.4773 -132.5113,-812.8758 1188.5309,-812.8758 1188.5309,144.4773 -132.5113,144.4773"/>
<polygon fill="#fbb4ae" stroke="#fbb4ae" points="21.1759,-356.6213 19.8568,-357.0024 2.9729,-362.3045 -119.2613,-269.6207 -128.5113,-254.9146 -125.2229,-237.8946 -116.1342,-184.6699 -110.2064,-136.5791 -70.1042,-80.4532 -45.4891,-90.0903 72.3361,-56.6448 76.4181,-51.643 76.9838,-51.643 77.9905,-51.9746 83.339,-51.9746 83.7518,-51.8346 89.7353,-51.8346 89.7638,-51.8733 96.4549,-56.4851 101.1174,-56.4851 107.944,-51.7633 101.7852,-47.51 101.7852,-47.51 107.944,-51.7633 101.1174,-56.4851 96.4549,-56.4851 89.7638,-51.8733 89.7353,-51.8346 83.7518,-51.8346 83.339,-51.9746 77.9905,-51.9746 76.9838,-51.643 76.4181,-51.643 72.3361,-56.6448 -45.4891,-90.0903 -70.1042,-80.4532 -68.657,-57.4144 -66.3998,-1.9633 -66.0141,18.9844 -50.9174,76.5432 .2815,104.1437 60.9287,98.873 88.0468,97.0866 102.1572,97.0537 116.6991,98.2513 124.7781,95.113 129.1699,93.5147 291.377,38.4403 295.9044,-6.9871 299.9661,-11.3553 306.373,-18 397.0563,-123.2307 381.6705,-166.6078 372.0219,-197.0001 368.6527,-211.2261 361.6259,-236.3481 345.8488,-285.6001 326.1691,-341.0833 285.2872,-359.2981 280.4455,-361.6745 265.7027,-369.2487 258.1233,-373.4845 249.3226,-378.8055 242.2531,-375.0493 238.0326,-372.9872 217.5339,-363.4037 199.3365,-356.4525 129.6174,-332.7999 118.5652,-214.053 197.4912,-192.4032 199.9764,-189.0228 203.1263,-187.3708 204.4152,-187.3708 204.9082,-187.2034 208.5087,-187.2034 215.7229,-138.1488 215.7229,-138.1488 208.5087,-187.2034 204.9082,-187.2034 204.4152,-187.3708 203.1263,-187.3708 199.9764,-189.0228 197.4912,-192.4032 118.5652,-214.053 129.6174,-332.7999 37.2598,-352.5637 29.7217,-354.3653 21.1759,-356.6213 21.1759,-356.6213"/>
<polygon fill="#ccebc5" stroke="#ccebc5" points="1026.3942,16.3618 1033.8302,13.96 1174.9574,-28.4379 1184.5309,-52.265 1171.717,-125.6347 1164.7668,-179.1169 1030.5204,-149.1084 1027.9841,-146.0784 1025.0956,-144.8065 1024.3079,-144.0406 1021.0983,-144.0406 1017.986,-140.7631 1012.5493,-138.9525 1012.5493,-138.9525 1017.986,-140.7631 1021.0983,-144.0406 1017.8913,-147.3715 1012.8271,-149.0183 1012.8271,-149.0183 1017.8913,-147.3715 1021.0983,-144.0406 1024.3079,-144.0406 1025.0956,-144.8065 1027.9841,-146.0784 1030.5204,-149.1084 1164.7668,-179.1169 1156.0377,-260.9876 1117.9664,-309.3052 1108.0421,-313.9084 1080.6681,-319.8124 1037.4874,-318.5676 1023.7966,-318.4265 1005.3886,-318.9199 984.7321,-320.623 966.8326,-322.4289 945.9697,-336.2334 926.168,-372.5244 878.2087,-469.6306 801.2171,-527.9677 776.1738,-538.5705 760.0663,-546.0546 749.8425,-551.0122 747.3975,-552.3472 726.5928,-564.1423 722.8928,-566.3898 715.2864,-561.2041 692.0967,-546.9042 690.0949,-545.8447 689.9216,-545.7565 662.116,-508.9945 655.3045,-501.0646 652.259,-497.3577 639.1439,-482.7827 618.8627,-461.3554 540.1027,-367.531 530.6744,-357.6035 533.1729,-354.8547 545.2579,-343.0029 557.8809,-332.135 561.4047,-329.5261 565.8638,-325.9458 578.9142,-316.2967 580.1526,-315.5446 590.4462,-309.9251 599.6773,-305.4756 643.6795,-287.1498 644.4901,-286.7605 655.7338,-280.611 657.6178,-279.4606 663.2236,-275.6654 674.7877,-267.0632 678.246,-264.0388 671.882,-244.6502 669.6771,-235.4146 668.2145,-227.8735 656.6459,-180.2313 633.5308,-109.8082 646.3207,-94.2232 648.0594,-49.4843 648.0779,-47.9535 647.9286,-37.8893 650.0848,16.6337 650.1558,22.4609 652.8776,92.4987 699.6995,115.3478 763.8393,122.6633 778.6359,124.9861 789.9257,127.2418 793.7496,128.0874 804.8953,130.7905 816.0314,134.2066 822.304,136.2653 822.4798,136.3268 835.3231,130.0723 835.2739,118.3023 828.4095,-25.6661 829.0945,-26.5752 828.1248,-27.9009 832.061,-73.4292 832.3817,-112.0756 821.617,-112.2957 826.4847,-197.5729 820.1523,-197.5729 819.1985,-135.8235 813.2102,-197.3617 808.9903,-197.3617 808.4691,-197.5398 802.2161,-197.5398 801.1836,-197.1809 797.0941,-197.1809 796.3422,-197.4417 789.8065,-192.9475 784.7536,-192.9475 777.7689,-197.8007 776.9927,-197.5434 773.7076,-197.5434 773.7076,-197.5434 776.9927,-197.5434 777.7689,-197.8007 784.7536,-192.9475 789.8065,-192.9475 796.3422,-197.4417 797.0941,-197.1809 801.1836,-197.1809 802.2161,-197.5398 808.4691,-197.5398 808.9903,-197.3617 813.2102,-197.3617 819.1985,-135.8235 820.1523,-197.5729 826.4847,-197.5729 826.5461,-197.5934 830.8184,-197.5934 831.4733,-196.4465 831.4733,-196.4465 830.8184,-197.5934 826.5461,-197.5934 826.4847,-197.5729 821.617,-112.2957 832.3817,-112.0756 832.061,-73.4292 828.1248,-27.9009 829.0945,-26.5752 828.4095,-25.6661 835.2739,118.3023 835.3231,130.0723 848.4072,124.6457 863.9778,118.934 870.1696,116.9622 875.7236,115.3269 925.7343,101.8022 987.8583,74.8553 1026.3942,16.3618 1026.3942,16.3618"/>
<polygon fill="#fed9a6" stroke="#fed9a6" points="368.6527,-211.2261 361.6259,-236.3481 345.8488,-285.6001 447.5667,-245.8103 450.4153,-242.1103 451.1331,-241.6514 453.139,-241.6514 453.9399,-357.1693 458.1138,-357.2462 458.1979,-432.627 454.3999,-472.7015 454.6885,-472.797 454.8827,-473.0434 454.8827,-473.0434 454.6885,-472.797 454.3999,-472.7015 458.1979,-432.627 458.1138,-357.2462 453.9399,-357.1693 453.139,-241.6514 451.1331,-241.6514 450.4153,-242.1103 447.5667,-245.8103 440.0082,-356.8953 440.0082,-356.8953 447.5667,-245.8103 345.8488,-285.6001 326.1691,-341.0833 285.2872,-359.2981 280.4455,-361.6745 265.7027,-369.2487 258.1233,-373.4845 249.3226,-378.8055 252.0664,-429.1188 254.1803,-488.6924 257.2381,-493.7263 330.9004,-626.4872 330.1262,-637.028 325.5689,-678.4196 321.8871,-707.174 396.1261,-770.0079 491.1016,-791.6568 509.8042,-796.3912 510.4828,-796.5798 525.1373,-801.0152 527.1703,-801.7816 562.7578,-808.8758 617.5408,-757.9361 686.6174,-668.528 720.1853,-628.436 720.8508,-608.1579 722.8928,-566.3898 715.2864,-561.2041 692.0967,-546.9042 690.0949,-545.8447 689.9216,-545.7565 662.116,-508.9945 655.3045,-501.0646 652.259,-497.3577 639.1439,-482.7827 618.8627,-461.3554 540.1027,-367.531 530.6744,-357.6035 533.1729,-354.8547 545.2579,-343.0029 557.8809,-332.135 557.79,-272.7092 553.5522,-241.6993 550.1923,-241.6993 549.6653,-241.5213 549.6653,-241.5213 550.1923,-241.6993 553.5522,-241.6993 557.79,-272.7092 557.8809,-332.135 561.4047,-329.5261 565.8638,-325.9458 566.824,-241.7917 566.6769,-241.7441 561.9271,-241.7441 560.9321,-241.4084 560.9321,-241.4084 561.9271,-241.7441 566.6769,-241.7441 566.824,-241.7917 565.8638,-325.9458 578.9142,-316.2967 577.0798,-279.1279 577.0798,-279.1279 578.9142,-316.2967 580.1526,-315.5446 590.4462,-309.9251 599.6773,-305.4756 643.6795,-287.1498 644.4901,-286.7605 655.7338,-280.611 657.6178,-279.4606 663.2236,-275.6654 674.7877,-267.0632 678.246,-264.0388 671.882,-244.6502 669.6771,-235.4146 668.2145,-227.8735 656.6459,-180.2313 633.5308,-109.8082 646.3207,-94.2232 648.0594,-49.4843 648.0779,-47.9535 647.9286,-37.8893 650.0848,16.6337 650.1558,22.4609 652.8776,92.4987 533.4981,137.3877 525.7908,140.4773 522.4503,139.5602 522.4045,139.5486 509.3013,136.8358 497.4069,134.6413 488.8179,133.4448 474.1551,132.0626 465.3914,131.4346 400.4892,128.251 321.4533,74.8679 291.377,38.4403 295.9044,-6.9871 299.9661,-11.3553 306.373,-18 397.0563,-123.2307 381.6705,-166.6078 372.0219,-197.0001 368.6527,-211.2261 368.6527,-211.2261"/>
<polyline fill="none" stroke="#000000" points="217.5339,-363.4037 199.3365,-356.4525 129.6174,-332.7999 37.2598,-352.5637 29.7217,-354.3653 21.1759,-356.6213 19.8568,-357.0024 2.9729,-362.3045 -119.2613,-269.6207 -128.5113,-254.9146 -125.2229,-237.8946 -116.1342,-184.6699 -110.2064,-136.5791 -70.1042,-80.4532 -68.657,-57.4144 -66.3998,-1.9633 -66.0141,18.9844 -50.9174,76.5432 .2815,104.1437 60.9287,98.873 88.0468,97.0866 102.1572,97.0537 116.6991,98.2513 124.7781,95.113 129.1699,93.5147 291.377,38.4403 295.9044,-6.9871 299.9661,-11.3553 306.373,-18 397.0563,-123.2307 381.6705,-166.6078 372.0219,-197.0001 368.6527,-211.2261 361.6259,-236.3481 345.8488,-285.6001 326.1691,-341.0833 285.2872,-359.2981 280.4455,-361.6745 265.7027,-369.2487 258.1233,-373.4845 249.3226,-378.8055 242.2531,-375.0493 238.0326,-372.9872 217.5339,-363.4037 "/>
<polyline fill="none" stroke="#000000" points="715.2864,-561.2041 722.8928,-566.3898 726.5928,-564.1423 747.3975,-552.3472 749.8425,-551.0122 760.0663,-546.0546 776.1738,-538.5705 801.2171,-527.9677 878.2087,-469.6306 926.168,-372.5244 945.9697,-336.2334 966.8326,-322.4289 984.7321,-320.623 1005.3886,-318.9199 1023.7966,-318.4265 1037.4874,-318.5676 1080.6681,-319.8124 1108.0421,-313.9084 1117.9664,-309.3052 1156.0377,-260.9876 1164.7668,-179.1169 1171.717,-125.6347 1184.5309,-52.265 1174.9574,-28.4379 1033.8302,13.96 1026.3942,16.3618 987.8583,74.8553 925.7343,101.8022 875.7236,115.3269 870.1696,116.9622 863.9778,118.934 848.4072,124.6457 835.3231,130.0723 822.4798,136.3268 822.304,136.2653 816.0314,134.2066 804.8953,130.7905 793.7496,128.0874 789.9257,127.2418 778.6359,124.9861 763.8393,122.6633 699.6995,115.3478 652.8776,92.4987 650.1558,22.4609 650.0848,16.6337 647.9286,-37.8893 648.0779,-47.9535 648.0594,-49.4843 646.3207,-94.2232 633.5308,-109.8082 656.6459,-180.2313 668.2145,-227.8735 669.6771,-235.4146 671.882,-244.6502 678.246,-264.0388 674.7877,-267.0632 663.2236,-275.6654 657.6178,-279.4606 655.7338,-280.611 644.4901,-286.7605 643.6795,-287.1498 599.6773,-305.4756 590.4462,-309.9251 580.1526,-315.5446 578.9142,-316.2967 565.8638,-325.9458 561.4047,-329.5261 557.8809,-332.135 545.2579,-343.0029 533.1729,-354.8547 530.6744,-357.6035 540.1027,-367.531 618.8627,-461.3554 639.1439,-482.7827 652.259,-497.3577 655.3045,-501.0646 662.116,-508.9945 689.9216,-545.7565 690.0949,-545.8447 692.0967,-546.9042 715.2864,-561.2041 "/>
<polyline fill="none" stroke="#000000" points="530.6744,-357.6035 540.1027,-367.531 618.8627,-461.3554 639.1439,-482.7827 652.259,-497.3577 655.3045,-501.0646 662.116,-508.9945 689.9216,-545.7565 690.0949,-545.8447 692.0967,-546.9042 715.2864,-561.2041 722.8928,-566.3898 720.8508,-608.1579 720.1853,-628.436 686.6174,-668.528 617.5408,-757.9361 562.7578,-808.8758 527.1703,-801.7816 525.1373,-801.0152 510.4828,-796.5798 509.8042,-796.3912 491.1016,-791.6568 396.1261,-770.0079 321.8871,-707.174 325.5689,-678.4196 330.1262,-637.028 330.9004,-626.4872 257.2381,-493.7263 254.1803,-488.6924 252.0664,-429.1188 249.3226,-378.8055 258.1233,-373.4845 265.7027,-369.2487 280.4455,-361.6745 285.2872,-359.2981 326.1691,-341.0833 345.8488,-285.6001 361.6259,-236.3481 368.6527,-211.2261 372.0219,-197.0001 381.6705,-166.6078 397.0563,-123.2307 306.373,-18 299.9661,-11.3553 295.9044,-6.9871 291.377,38.4403 321.4533,74.8679 400.4892,128.251 465.3914,131.4346 474.1551,132.0626 488.8179,133.4448 497.4069,134.6413 509.3013,136.8358 522.4045,139.5486 522.4503,139.5602 525.7908,140.4773 533.4981,137.3877 652.8776,92.4987 650.1558,22.4609 650.0848,16.6337 647.9286,-37.8893 648.0779,-47.9535 648.0594,-49.4843 646.3207,-94.2232 633.5308,-109.8082 656.6459,-180.2313 668.2145,-227.8735 669.6771,-235.4146 671.882,-244.6502 678.246,-264.0388 674.7877,-267.0632 663.2236,-275.6654 657.6178,-279.4606 655.7338,-280.611 644.4901,-286.7605 643.6795,-287.1498 599.6773,-305.4756 590.4462,-309.9251 580.1526,-315.5446 578.9142,-316.2967 565.8638,-325.9458 561.4047,-329.5261 557.8809,-332.135 545.2579,-343.0029 533.1729,-354.8547 530.6744,-357.6035 "/>
<!-- copy&#45;jdk&#45;configs&#45;&gt;lua -->
<g id="edge1" class="edge">
<title>copy&#45;jdk&#45;configs&#45;&gt;lua</title>
<path fill="none" stroke="#444444" stroke-opacity="0.333333" d="M145.797,-193.8614C116.9768,-195.7751 87.1266,-197.7573 64.5575,-199.256"/>
<polygon fill="#444444" fill-opacity="0.333333" stroke="#444444" stroke-opacity="0.333333" points="64.1615,-195.7745 54.4155,-199.9295 64.6254,-202.7591 64.1615,-195.7745"/>
</g>
<!-- copy&#45;jdk&#45;configs&#45;&gt;lua&#45;posix -->
<g id="edge2" class="edge">
<title>copy&#45;jdk&#45;configs&#45;&gt;lua&#45;posix</title>
<path fill="none" stroke="#444444" stroke-opacity="0.333333" d="M223.9375,-169.3894C198.7093,-145.6776 154.218,-103.8607 125.6453,-77.0054"/>
<polygon fill="#444444" fill-opacity="0.333333" stroke="#444444" stroke-opacity="0.333333" points="127.7215,-74.1535 118.0377,-69.8551 122.9274,-79.2542 127.7215,-74.1535"/>
</g>
<!-- lua&#45;posix&#45;&gt;lua -->
<g id="edge3" class="edge">
<title>lua&#45;posix&#45;&gt;lua</title>
<path fill="none" stroke="#444444" stroke-opacity="0.333333" d="M90.1357,-69.8611C77.6838,-95.8728 54.6251,-144.0419 40.0874,-174.4108"/>
<polygon fill="#444444" fill-opacity="0.333333" stroke="#444444" stroke-opacity="0.333333" points="36.8519,-173.0637 35.691,-183.5947 43.1658,-176.0862 36.8519,-173.0637"/>
</g>
<!-- java&#45;1.8.0&#45;openjdk&#45;devel&#45;&gt;java&#45;1.8.0&#45;openjdk -->
<g id="edge4" class="edge">
<title>java&#45;1.8.0&#45;openjdk&#45;devel&#45;&gt;java&#45;1.8.0&#45;openjdk</title>
<path fill="none" stroke="#444444" stroke-opacity="0.333333" d="M717.6436,-335.0603C731.404,-307.88 757.4494,-256.4337 773.4846,-224.7602"/>
<polygon fill="#444444" fill-opacity="0.333333" stroke="#444444" stroke-opacity="0.333333" points="776.7208,-226.1167 778.115,-215.614 770.4755,-222.9549 776.7208,-226.1167"/>
</g>
<!-- java&#45;1.8.0&#45;openjdk&#45;devel&#45;&gt;java&#45;1.8.0&#45;openjdk&#45;headless -->
<g id="edge5" class="edge">
<title>java&#45;1.8.0&#45;openjdk&#45;devel&#45;&gt;java&#45;1.8.0&#45;openjdk&#45;headless</title>
<path fill="none" stroke="#444444" stroke-opacity="0.333333" d="M678.064,-335.033C646.2212,-315.9741 596.0744,-285.9597 561.2329,-265.106"/>
<polygon fill="#444444" fill-opacity="0.333333" stroke="#444444" stroke-opacity="0.333333" points="562.661,-261.8818 552.283,-259.7492 559.066,-267.8881 562.661,-261.8818"/>
</g>
<!-- java&#45;1.8.0&#45;openjdk&#45;&gt;java&#45;1.8.0&#45;openjdk&#45;headless -->
<g id="edge6" class="edge">
<title>java&#45;1.8.0&#45;openjdk&#45;&gt;java&#45;1.8.0&#45;openjdk&#45;headless</title>
<path fill="none" stroke="#444444" stroke-opacity="0.333333" d="M680.0909,-215.3397C667.1393,-217.4873 653.8507,-219.6909 640.7442,-221.8643"/>
<polygon fill="#444444" fill-opacity="0.333333" stroke="#444444" stroke-opacity="0.333333" points="640.0583,-218.4302 630.7656,-223.519 641.2035,-225.3359 640.0583,-218.4302"/>
</g>
<!-- java&#45;1.8.0&#45;openjdk&#45;&gt;giflib -->
<g id="edge7" class="edge">
<title>java&#45;1.8.0&#45;openjdk&#45;&gt;giflib</title>
<path fill="none" stroke="#444444" stroke-opacity="0.333333" d="M863.1279,-179.5016C894.7469,-171.9723 930.6995,-163.4111 959.3856,-156.5802"/>
<polygon fill="#444444" fill-opacity="0.333333" stroke="#444444" stroke-opacity="0.333333" points="960.293,-159.9621 969.2102,-154.2407 958.6714,-153.1525 960.293,-159.9621"/>
</g>
<!-- java&#45;1.8.0&#45;openjdk&#45;&gt;xorg&#45;x11&#45;fonts&#45;Type1 -->
<g id="edge8" class="edge">
<title>java&#45;1.8.0&#45;openjdk&#45;&gt;xorg&#45;x11&#45;fonts&#45;Type1</title>
<path fill="none" stroke="#444444" stroke-opacity="0.333333" d="M790.7463,-179.2846C796.4448,-149.4812 807.7748,-90.2256 814.5156,-54.9712"/>
<polygon fill="#444444" fill-opacity="0.333333" stroke="#444444" stroke-opacity="0.333333" points="818.0085,-55.3394 816.4489,-44.86 811.133,-54.0247 818.0085,-55.3394"/>
</g>
<!-- java&#45;1.8.0&#45;openjdk&#45;headless&#45;&gt;copy&#45;jdk&#45;configs -->
<g id="edge9" class="edge">
<title>java&#45;1.8.0&#45;openjdk&#45;headless&#45;&gt;copy&#45;jdk&#45;configs</title>
<path fill="none" stroke="#444444" stroke-opacity="0.333333" d="M429.0703,-223.5322C402.4054,-218.3515 373.1726,-212.6718 345.9424,-207.3813"/>
<polygon fill="#444444" fill-opacity="0.333333" stroke="#444444" stroke-opacity="0.333333" points="346.4933,-203.9229 336.0093,-205.4514 345.1582,-210.7944 346.4933,-203.9229"/>
</g>
<!-- java&#45;1.8.0&#45;openjdk&#45;headless&#45;&gt;javapackages&#45;tools -->
<g id="edge10" class="edge">
<title>java&#45;1.8.0&#45;openjdk&#45;headless&#45;&gt;javapackages&#45;tools</title>
<path fill="none" stroke="#444444" stroke-opacity="0.333333" d="M513.2599,-259.9137C499.5543,-300.1931 475.2835,-396.5395 466.5435,-444.501"/>
<polygon fill="#444444" fill-opacity="0.333333" stroke="#444444" stroke-opacity="0.333333" points="463.068,-444.0617 464.8383,-454.5076 469.9685,-445.2377 463.068,-444.0617"/>
</g>
<!-- java&#45;1.8.0&#45;openjdk&#45;headless&#45;&gt;tzdata&#45;java -->
<g id="edge11" class="edge">
<title>java&#45;1.8.0&#45;openjdk&#45;headless&#45;&gt;tzdata&#45;java</title>
<path fill="none" stroke="#444444" stroke-opacity="0.333333" d="M520.279,-223.2743C516.8033,-184.2837 508.646,-92.7781 504.4978,-46.2444"/>
<polygon fill="#444444" fill-opacity="0.333333" stroke="#444444" stroke-opacity="0.333333" points="507.9797,-45.8846 503.6055,-36.2349 501.0074,-46.5062 507.9797,-45.8846"/>
</g>
<!-- javapackages&#45;tools&#45;&gt;java&#45;1.8.0&#45;openjdk&#45;headless -->
<g id="edge12" class="edge">
<title>javapackages&#45;tools&#45;&gt;java&#45;1.8.0&#45;openjdk&#45;headless</title>
<path fill="none" stroke="#444444" stroke-opacity="0.333333" d="M472.8401,-454.2563C486.5457,-413.9769 510.8165,-317.6305 519.5565,-269.669"/>
<polygon fill="#444444" fill-opacity="0.333333" stroke="#444444" stroke-opacity="0.333333" points="523.032,-270.1083 521.2617,-259.6624 516.1315,-268.9323 523.032,-270.1083"/>
</g>
<!-- javapackages&#45;tools&#45;&gt;which -->
<g id="edge13" class="edge">
<title>javapackages&#45;tools&#45;&gt;which</title>
<path fill="none" stroke="#444444" stroke-opacity="0.333333" d="M469.2807,-490.6502C478.0772,-521.8399 496.1764,-586.0145 506.5797,-622.9017"/>
<polygon fill="#444444" fill-opacity="0.333333" stroke="#444444" stroke-opacity="0.333333" points="503.2127,-623.8576 509.2958,-632.532 509.9499,-621.9574 503.2127,-623.8576"/>
</g>
<!-- copy&#45;jdk&#45;configs -->
<g id="node1" class="node">
<title>copy&#45;jdk&#45;configs</title>
<text text-anchor="middle" x="243.1" y="-183.7" font-family="monospace" font-size="14.00" fill="#000000">copy&#45;jdk&#45;configs</text>
</g>
<!-- lua -->
<g id="node2" class="node">
<title>lua</title>
<text text-anchor="middle" x="27" y="-198.05" font-family="monospace" font-size="14.00" fill="#000000">lua</text>
</g>
<!-- lua&#45;posix -->
<g id="node3" class="node">
<title>lua&#45;posix</title>
<text text-anchor="middle" x="98.796" y="-48.07" font-family="monospace" font-size="14.00" fill="#000000">lua&#45;posix</text>
</g>
<!-- java&#45;1.8.0&#45;openjdk&#45;devel -->
<g id="node4" class="node">
<title>java&#45;1.8.0&#45;openjdk&#45;devel</title>
<text text-anchor="middle" x="708.45" y="-349.52" font-family="monospace" font-size="14.00" fill="#000000">java&#45;1.8.0&#45;openjdk&#45;devel</text>
</g>
<!-- java&#45;1.8.0&#45;openjdk -->
<g id="node5" class="node">
<title>java&#45;1.8.0&#45;openjdk</title>
<text text-anchor="middle" x="787.25" y="-193.87" font-family="monospace" font-size="14.00" fill="#000000">java&#45;1.8.0&#45;openjdk</text>
</g>
<!-- java&#45;1.8.0&#45;openjdk&#45;headless -->
<g id="node6" class="node">
<title>java&#45;1.8.0&#45;openjdk&#45;headless</title>
<text text-anchor="middle" x="521.91" y="-237.87" font-family="monospace" font-size="14.00" fill="#000000">java&#45;1.8.0&#45;openjdk&#45;headless</text>
</g>
<!-- giflib -->
<g id="node7" class="node">
<title>giflib</title>
<text text-anchor="middle" x="1012.3" y="-140.28" font-family="monospace" font-size="14.00" fill="#000000">giflib</text>
</g>
<!-- xorg&#45;x11&#45;fonts&#45;Type1 -->
<g id="node8" class="node">
<title>xorg&#45;x11&#45;fonts&#45;Type1</title>
<text text-anchor="middle" x="819.92" y="-23.006" font-family="monospace" font-size="14.00" fill="#000000">xorg&#45;x11&#45;fonts&#45;Type1</text>
</g>
<!-- javapackages&#45;tools -->
<g id="node9" class="node">
<title>javapackages&#45;tools</title>
<text text-anchor="middle" x="464.19" y="-468.9" font-family="monospace" font-size="14.00" fill="#000000">javapackages&#45;tools</text>
</g>
<!-- tzdata&#45;java -->
<g id="node10" class="node">
<title>tzdata&#45;java</title>
<text text-anchor="middle" x="501.98" y="-14.3" font-family="monospace" font-size="14.00" fill="#000000">tzdata&#45;java</text>
</g>
<!-- which -->
<g id="node11" class="node">
<title>which</title>
<text text-anchor="middle" x="514.4" y="-646.93" font-family="monospace" font-size="14.00" fill="#000000">which</text>
</g>
</g>
</svg>
