<?xml version="1.0" encoding="UTF-8" standalone="no"?>
<!DOCTYPE svg PUBLIC "-//W3C//DTD SVG 1.1//EN"
 "http://www.w3.org/Graphics/SVG/1.1/DTD/svg11.dtd">
<!-- Generated by graphviz version 2.40.1 (20161225.0304)
 -->
<!-- Title: G Pages: 1 -->
<svg width="1019pt" height="663pt"
 viewBox="0.00 0.00 1019.20 662.60" xmlns="http://www.w3.org/2000/svg" xmlns:xlink="http://www.w3.org/1999/xlink">
<g id="graph0" class="graph" transform="scale(1 1) rotate(0) translate(91.1166 566.1)">
<title>G</title>
<polygon fill="#dae2ff" stroke="transparent" points="-91.1166,96.4989 -91.1166,-566.1 928.0808,-566.1 928.0808,96.4989 -91.1166,96.4989"/>
<polygon fill="#fbb4ae" stroke="#fbb4ae" points="418.2126,-255.98 418.0559,-254.1321 417.5567,-238.2998 411.8807,-232.7201 410.9721,-231.8979 409.004,-230.1661 280.6252,-242.1445 280.3941,-211.736 276.543,-245.5481 275.2057,-246.7218 270.3296,-225.0019 269.0718,-213.7146 266.2262,-248.2176 263.571,-246.1638 259.5425,-244.5914 256.3564,-244.5914 254.1532,-245.4045 254.1532,-245.4045 256.3564,-244.5914 259.5425,-244.5914 263.571,-246.1638 266.2262,-248.2176 269.0718,-213.7146 270.3296,-225.0019 275.2057,-246.7218 276.543,-245.5481 280.3941,-211.736 280.6252,-242.1445 409.004,-230.1661 339.9474,-167.6373 282.4835,-172.4247 268.7426,-172.8689 267.1649,-172.9652 266.5045,-172.9548 264.3937,-173.0429 259.5236,-172.9968 252.9859,-172.7671 246.2624,-173.1116 245.6845,-173.082 242.6433,-172.8482 230.4091,-172.2601 157.113,-166.8729 137.1096,-142.7783 91.2282,-144.6108 74.5642,-144.9649 67.4788,-144.9823 61.4605,-144.7713 60.8666,-144.7283 53.4499,-145.8686 36.098,-147.208 33.2283,-147.3192 32.1282,-147.2986 -.7154,-154.8052 -65.1588,-197.4802 -74.2896,-208.996 -87.1166,-224.5923 -72.8505,-253.6865 -62.6325,-277.7679 -37.2819,-341.0332 -39.4261,-364.8038 -38.9975,-365.2915 5.3055,-417.4654 69.0126,-441.8415 71.9328,-443.0238 85.0357,-448.9183 87.1741,-449.9739 94.4408,-453.887 95.9654,-360.0899 98.8571,-342.9914 93.7746,-344.0531 91.2511,-343.5544 86.6486,-340.7104 85.5854,-339.6451 85.5854,-339.6451 86.6486,-340.7104 91.2511,-343.5544 93.7746,-344.0531 98.8571,-342.9914 101.4098,-341.4973 103.6264,-339.3187 102.7791,-338.5074 98.3522,-335.8086 94.4041,-334.9796 94.4041,-334.9796 98.3522,-335.8086 102.7791,-338.5074 103.6264,-339.3187 101.4098,-341.4973 98.8571,-342.9914 95.9654,-360.0899 94.4408,-453.887 99.7669,-456.9942 103.612,-456.0388 105.9419,-455.5011 123.93,-452.2962 118.295,-358.0907 118.295,-358.0907 123.93,-452.2962 157.9789,-447.4412 229.2871,-367.728 229.8033,-367.6649 248.8271,-365.9481 259.3171,-365.6744 273.2862,-365.9818 289.7909,-367.4025 343.4901,-372.8777 348.5408,-365.4273 418.2126,-255.98 418.2126,-255.98"/>
<polygon fill="#fed9a6" stroke="#fed9a6" points="478.6182,-424.3037 475.2532,-396.0831 475.2532,-396.0831 478.6182,-424.3037 478.8895,-429.2879 478.8779,-493.7318 468.9079,-509.2921 481.8913,-533.0175 514.8888,-547.4404 565.6835,-544.2388 569.8336,-456.0097 492.5661,-475.7133 495.0338,-472.3844 499.95,-466.0641 502.3979,-463.2256 502.9921,-392.1949 505.5267,-390.2677 506.7637,-388.794 506.659,-388.6754 506.659,-388.6754 506.7637,-388.794 505.5267,-390.2677 502.9921,-392.1949 502.3979,-463.2256 499.95,-466.0641 495.0338,-472.3844 492.5661,-475.7133 569.8336,-456.0097 565.6835,-544.2388 573.9576,-543.8856 590.2679,-544.188 589.9106,-522.6339 589.9106,-522.6339 590.2679,-544.188 602.3986,-545.4032 599.968,-477.4957 601.3101,-453.2425 604.5102,-451.3904 606.4011,-449.5667 603.7288,-446.8904 601.0029,-445.3287 597.4183,-444.6455 594.6262,-445.1717 594.6262,-445.1717 597.4183,-444.6455 601.0029,-445.3287 603.7288,-446.8904 606.4011,-449.5667 604.5102,-451.3904 601.3101,-453.2425 599.968,-477.4957 602.3986,-545.4032 604.019,-545.6313 611.6515,-547.0184 618.337,-548.5073 637.9257,-553.674 667.6544,-562.1 694.9874,-547.6378 717.9102,-510.1254 715.9181,-506.3239 716.0249,-503.5965 716.2104,-425.5703 714.1008,-401.1615 710.9675,-400.5244 709.587,-465.7742 710.8352,-498.1089 701.4745,-484.7836 695.9043,-477.2264 694.9495,-421.6987 694.9495,-421.6987 695.9043,-477.2264 701.4745,-484.7836 710.8352,-498.1089 709.587,-465.7742 710.9675,-400.5244 714.1008,-401.1615 718.5212,-400.2299 721.4199,-398.4651 723.3657,-396.4635 721.3005,-394.4171 719.1164,-393.1441 714.3389,-392.1395 714.3389,-392.1395 719.1164,-393.1441 721.3005,-394.4171 723.3657,-396.4635 721.4199,-398.4651 718.5212,-400.2299 714.1008,-401.1615 716.2104,-425.5703 716.0249,-503.5965 715.9181,-506.3239 717.9102,-510.1254 729.9772,-504.2661 733.4789,-502.6443 750.1679,-495.6565 814.4872,-470.2265 827.383,-460.4288 842.3723,-416.8373 841.7788,-412.8243 840.1036,-397.7702 838.4778,-380.2316 786.6488,-386.1304 739.8394,-389.5563 736.9006,-364.9817 735.9509,-341.854 751.6693,-342.722 751.7899,-332.8206 751.5116,-326.1055 751.5116,-326.1055 751.7899,-332.8206 751.6693,-342.722 735.9509,-341.854 736.9006,-364.9817 739.8394,-389.5563 786.6488,-386.1304 838.4778,-380.2316 837.9521,-370.7175 772.1323,-347.4827 771.4792,-294.3671 770.54,-293.0829 782.3337,-287.4058 766.4637,-288.322 766.1157,-285.8688 763.2603,-283.9477 759.6835,-283.1839 756.6566,-283.8145 756.6566,-283.8145 759.6835,-283.1839 763.2603,-283.9477 766.1157,-285.8688 766.4637,-288.322 782.3337,-287.4058 770.54,-293.0829 771.4792,-294.3671 772.1323,-347.4827 837.9521,-370.7175 861.6178,-322.6638 873.3591,-300.0091 868.0042,-278.7828 860.5268,-235.3987 895.4402,-175.746 801.2942,-154.7277 799.6716,-167.61 796.3691,-151.5349 794.427,-149.9364 792.9588,-147.9561 792.0797,-147.7782 791.394,-147.7782 790.9202,-147.684 790.4456,-147.684 787.1017,-145.0686 782.933,-143.4002 780.0084,-143.4002 780.0084,-143.4002 782.933,-143.4002 787.1017,-145.0686 790.4456,-147.684 790.9202,-147.684 791.394,-147.7782 792.0797,-147.7782 792.9588,-147.9561 794.427,-149.9364 796.3691,-151.5349 799.6716,-167.61 801.2942,-154.7277 895.4402,-175.746 909.8802,-152.143 916.1591,-142.6205 924.0808,-131.0154 906.3513,-114.7181 847.5259,-58.7184 811.7737,-47.431 795.1506,-41.8229 784.2796,-37.7022 780.1991,-35.9027 778.7294,-35.1926 754.3679,-10.444 711.3271,-13.5154 702.5656,-13.9689 693.9412,-14.0766 684.5645,-13.6406 676.1772,-26.7368 669.6768,-36.3997 651.9977,-64.095 648.5383,-70.3523 633.1128,-103.2552 624.2147,-120.5578 606.8267,-147.7746 591.8463,-146.3598 583.1403,-146.1638 577.963,-145.9133 573.0474,-145.9124 571.8733,-145.9404 568.1182,-146.2112 567.6227,-146.2213 564.557,-146.1255 558.5931,-146.0827 556.2791,-146.1218 556.8252,-195.9872 559.4984,-226.3059 560.2106,-227.6338 560.0518,-228.006 560.6379,-232.1052 562.5868,-233.3954 562.5868,-233.3954 560.6379,-232.1052 560.0518,-228.006 560.2106,-227.6338 559.4984,-226.3059 556.8252,-195.9872 556.2791,-146.1218 554.3926,-146.0563 548.499,-145.9936 540.0281,-146.5138 516.5429,-148.5187 452.7862,-204.7935 441.2734,-215.7002 435.5409,-220.7908 429.7498,-226.258 426.9527,-229.0568 424.2881,-231.5746 417.5567,-238.2998 418.0559,-254.1321 418.2126,-255.98 348.5408,-365.4273 343.4901,-372.8777 350.7832,-390.9489 358.2585,-410.2893 365.8356,-431.8793 421.4286,-480.5949 468.9079,-509.2921 478.8779,-493.7318 478.8895,-429.2879 478.6182,-424.3037 478.6182,-424.3037"/>
<polygon fill="#ccebc5" stroke="#ccebc5" points="249.292,-101.4921 246.1291,-104.1497 242.6433,-172.8482 230.4091,-172.2601 157.113,-166.8729 137.1096,-142.7783 149.5263,-105.1731 158.0683,-70.6461 160.2418,-65.5705 173.106,-33.6417 222.4285,17.7517 223.2404,18.0899 224.7097,17.8347 247.0563,12.4978 262.4912,9.7429 264.7629,9.4298 272.1557,8.5604 337.122,2.2383 361.4717,17.3356 377.8086,43.6315 408.235,75.8586 436.8313,92.4989 458.2688,90.7789 481.6517,89.3084 484.2115,89.2373 495.2367,89.3171 495.4431,89.2296 495.8231,89.0915 508.9715,84.8267 516.5986,82.6583 593.1068,63.976 601.7556,47.5055 684.5645,-13.6406 676.1772,-26.7368 669.6768,-36.3997 651.9977,-64.095 648.5383,-70.3523 633.1128,-103.2552 624.2147,-120.5578 606.8267,-147.7746 591.8463,-146.3598 591.4526,-135.9739 590.933,-84.5417 590.933,-84.5417 591.4526,-135.9739 591.8463,-146.3598 583.1403,-146.1638 577.963,-145.9133 573.0474,-145.9124 574.7668,-63.8269 576.5195,-62.1162 575.3231,-60.9193 570.075,-57.649 567.7386,-57.2012 564.1474,-7.0199 562.4988,-8.7975 561.938,-9.355 558.6509,-12.9034 553.1472,-17.8695 552.5336,-18.5498 552.2349,-18.8184 545.3305,-25.72 542.9255,-28.4677 542.951,-29.0235 546.4846,-58.2007 546.4846,-58.2007 542.951,-29.0235 542.9255,-28.4677 545.3305,-25.72 552.2349,-18.8184 552.5336,-18.5498 553.1472,-17.8695 558.6509,-12.9034 561.938,-9.355 562.4988,-8.7975 564.1474,-7.0199 567.7386,-57.2012 570.075,-57.649 575.3231,-60.9193 576.5195,-62.1162 574.7668,-63.8269 571.4264,-65.7992 566.7631,-66.7465 563.7722,-66.1738 560.3838,-64.2349 558.3973,-62.3245 556.8995,-62.3245 555.7581,-62.0958 553.9077,-62.0958 553.3622,-61.9865 553.3622,-61.9865 553.9077,-62.0958 555.7581,-62.0958 556.8995,-62.3245 558.3973,-62.3245 560.3838,-64.2349 563.7722,-66.1738 566.7631,-66.7465 571.4264,-65.7992 574.7668,-63.8269 573.0474,-145.9124 571.8733,-145.9404 568.1182,-146.2112 567.6227,-146.2213 564.557,-146.1255 558.5931,-146.0827 556.2791,-146.1218 554.3926,-146.0563 548.499,-145.9936 540.0281,-146.5138 516.5429,-148.5187 452.7862,-204.7935 446.4985,-114.2366 442.5539,-97.1199 442.5539,-97.1199 446.4985,-114.2366 452.7862,-204.7935 441.2734,-215.7002 435.5409,-220.7908 429.7498,-226.258 426.9527,-229.0568 424.2881,-231.5746 417.5567,-238.2998 411.8807,-232.7201 410.9721,-231.8979 409.004,-230.1661 339.9474,-167.6373 282.4835,-172.4247 268.7426,-172.8689 267.1649,-172.9652 266.5045,-172.9548 264.3937,-173.0429 259.5236,-172.9968 252.9859,-172.7671 246.2624,-173.1116 245.6845,-173.082 242.6433,-172.8482 246.1291,-104.1497 249.292,-101.4921 252.1623,-120.4355 253.104,-162.598 257.9687,-101.4313 260.9152,-100.8223 260.9152,-100.8223 257.9687,-101.4313 253.104,-162.598 252.1623,-120.4355 249.292,-101.4921 249.292,-101.4921"/>
<polyline fill="none" stroke="#000000" points="61.4605,-144.7713 67.4788,-144.9823 74.5642,-144.9649 91.2282,-144.6108 137.1096,-142.7783 157.113,-166.8729 230.4091,-172.2601 242.6433,-172.8482 245.6845,-173.082 246.2624,-173.1116 252.9859,-172.7671 259.5236,-172.9968 264.3937,-173.0429 266.5045,-172.9548 267.1649,-172.9652 268.7426,-172.8689 282.4835,-172.4247 339.9474,-167.6373 409.004,-230.1661 410.9721,-231.8979 411.8807,-232.7201 417.5567,-238.2998 418.0559,-254.1321 418.2126,-255.98 348.5408,-365.4273 343.4901,-372.8777 289.7909,-367.4025 273.2862,-365.9818 259.3171,-365.6744 248.8271,-365.9481 229.8033,-367.6649 229.2871,-367.728 157.9789,-447.4412 123.93,-452.2962 105.9419,-455.5011 103.612,-456.0388 99.7669,-456.9942 94.4408,-453.887 87.1741,-449.9739 85.0357,-448.9183 71.9328,-443.0238 69.0126,-441.8415 5.3055,-417.4654 -38.9975,-365.2915 -39.4261,-364.8038 -37.2819,-341.0332 -62.6325,-277.7679 -72.8505,-253.6865 -87.1166,-224.5923 -74.2896,-208.996 -65.1588,-197.4802 -.7154,-154.8052 32.1282,-147.2986 33.2283,-147.3192 36.098,-147.208 53.4499,-145.8686 60.8666,-144.7283 61.4605,-144.7713 "/>
<polyline fill="none" stroke="#000000" points="693.9412,-14.0766 684.5645,-13.6406 676.1772,-26.7368 669.6768,-36.3997 651.9977,-64.095 648.5383,-70.3523 633.1128,-103.2552 624.2147,-120.5578 606.8267,-147.7746 591.8463,-146.3598 583.1403,-146.1638 577.963,-145.9133 573.0474,-145.9124 571.8733,-145.9404 568.1182,-146.2112 567.6227,-146.2213 564.557,-146.1255 558.5931,-146.0827 556.2791,-146.1218 554.3926,-146.0563 548.499,-145.9936 540.0281,-146.5138 516.5429,-148.5187 452.7862,-204.7935 441.2734,-215.7002 435.5409,-220.7908 429.7498,-226.258 426.9527,-229.0568 424.2881,-231.5746 417.5567,-238.2998 418.0559,-254.1321 418.2126,-255.98 348.5408,-365.4273 343.4901,-372.8777 350.7832,-390.9489 358.2585,-410.2893 365.8356,-431.8793 421.4286,-480.5949 468.9079,-509.2921 481.8913,-533.0175 514.8888,-547.4404 565.6835,-544.2388 573.9576,-543.8856 590.2679,-544.188 602.3986,-545.4032 604.019,-545.6313 611.6515,-547.0184 618.337,-548.5073 637.9257,-553.674 667.6544,-562.1 694.9874,-547.6378 717.9102,-510.1254 729.9772,-504.2661 733.4789,-502.6443 750.1679,-495.6565 814.4872,-470.2265 827.383,-460.4288 842.3723,-416.8373 841.7788,-412.8243 840.1036,-397.7702 838.4778,-380.2316 837.9521,-370.7175 861.6178,-322.6638 873.3591,-300.0091 868.0042,-278.7828 860.5268,-235.3987 895.4402,-175.746 909.8802,-152.143 916.1591,-142.6205 924.0808,-131.0154 906.3513,-114.7181 847.5259,-58.7184 811.7737,-47.431 795.1506,-41.8229 784.2796,-37.7022 780.1991,-35.9027 778.7294,-35.1926 754.3679,-10.444 711.3271,-13.5154 702.5656,-13.9689 693.9412,-14.0766 "/>
<polyline fill="none" stroke="#000000" points="495.8231,89.0915 508.9715,84.8267 516.5986,82.6583 593.1068,63.976 601.7556,47.5055 684.5645,-13.6406 676.1772,-26.7368 669.6768,-36.3997 651.9977,-64.095 648.5383,-70.3523 633.1128,-103.2552 624.2147,-120.5578 606.8267,-147.7746 591.8463,-146.3598 583.1403,-146.1638 577.963,-145.9133 573.0474,-145.9124 571.8733,-145.9404 568.1182,-146.2112 567.6227,-146.2213 564.557,-146.1255 558.5931,-146.0827 556.2791,-146.1218 554.3926,-146.0563 548.499,-145.9936 540.0281,-146.5138 516.5429,-148.5187 452.7862,-204.7935 441.2734,-215.7002 435.5409,-220.7908 429.7498,-226.258 426.9527,-229.0568 424.2881,-231.5746 417.5567,-238.2998 411.8807,-232.7201 410.9721,-231.8979 409.004,-230.1661 339.9474,-167.6373 282.4835,-172.4247 268.7426,-172.8689 267.1649,-172.9652 266.5045,-172.9548 264.3937,-173.0429 259.5236,-172.9968 252.9859,-172.7671 246.2624,-173.1116 245.6845,-173.082 242.6433,-172.8482 230.4091,-172.2601 157.113,-166.8729 137.1096,-142.7783 149.5263,-105.1731 158.0683,-70.6461 160.2418,-65.5705 173.106,-33.6417 222.4285,17.7517 223.2404,18.0899 224.7097,17.8347 247.0563,12.4978 262.4912,9.7429 264.7629,9.4298 272.1557,8.5604 337.122,2.2383 361.4717,17.3356 377.8086,43.6315 408.235,75.8586 436.8313,92.4989 458.2688,90.7789 481.6517,89.3084 484.2115,89.2373 495.2367,89.3171 495.4431,89.2296 495.8231,89.0915 "/>
<!-- automake&#45;&gt;autoconf -->
<g id="edge1" class="edge">
<title>automake&#45;&gt;autoconf</title>
<path fill="none" stroke="#444444" stroke-opacity="0.333333" d="M62.1224,-268.2032C67.8186,-280.7928 75.5202,-297.8144 81.9665,-312.0618"/>
<polygon fill="#444444" fill-opacity="0.333333" stroke="#444444" stroke-opacity="0.333333" points="78.8777,-313.7257 86.1888,-321.3937 85.2553,-310.84 78.8777,-313.7257"/>
</g>
<!-- cpp&#45;&gt;libmpc -->
<g id="edge2" class="edge">
<title>cpp&#45;&gt;libmpc</title>
<path fill="none" stroke="#444444" stroke-opacity="0.333333" d="M723.6,-129.9432C725.2055,-130.4438 726.8441,-130.9547 728.5048,-131.4726"/>
<polygon fill="#444444" fill-opacity="0.333333" stroke="#444444" stroke-opacity="0.333333" points="727.5936,-134.8546 738.1821,-134.4901 729.6774,-128.1719 727.5936,-134.8546"/>
</g>
<!-- gcc&#45;&gt;cpp -->
<g id="edge3" class="edge">
<title>gcc&#45;&gt;cpp</title>
<path fill="none" stroke="#444444" stroke-opacity="0.333333" d="M588.4037,-211.7046C609.8692,-193.7152 642.8998,-166.0336 666.7349,-146.0583"/>
<polygon fill="#444444" fill-opacity="0.333333" stroke="#444444" stroke-opacity="0.333333" points="669.0194,-148.7104 674.4357,-139.6047 664.5231,-143.3454 669.0194,-148.7104"/>
</g>
<!-- gcc&#45;&gt;libmpc -->
<g id="edge4" class="edge">
<title>gcc&#45;&gt;libmpc</title>
<path fill="none" stroke="#444444" stroke-opacity="0.333333" d="M593.9243,-219.4873C627.6938,-206.6019 686.0574,-184.3322 728.7111,-168.0568"/>
<polygon fill="#444444" fill-opacity="0.333333" stroke="#444444" stroke-opacity="0.333333" points="730.0066,-171.3087 738.1018,-164.4736 727.5111,-164.7686 730.0066,-171.3087"/>
</g>
<!-- gcc&#45;&gt;binutils -->
<g id="edge5" class="edge">
<title>gcc&#45;&gt;binutils</title>
<path fill="none" stroke="#444444" stroke-opacity="0.333333" d="M582.8298,-248.0248C609.1361,-277.7235 661.4362,-336.7682 691.5897,-370.8103"/>
<polygon fill="#444444" fill-opacity="0.333333" stroke="#444444" stroke-opacity="0.333333" points="689.1394,-373.3226 698.39,-378.4876 694.3794,-368.6812 689.1394,-373.3226"/>
</g>
<!-- gcc&#45;&gt;isl -->
<g id="edge6" class="edge">
<title>gcc&#45;&gt;isl</title>
<path fill="none" stroke="#444444" stroke-opacity="0.333333" d="M594.0111,-238.0611C627.8119,-248.2258 685.5479,-265.5885 723.2203,-276.9175"/>
<polygon fill="#444444" fill-opacity="0.333333" stroke="#444444" stroke-opacity="0.333333" points="722.2233,-280.2724 732.8077,-279.8006 724.2393,-273.569 722.2233,-280.2724"/>
</g>
<!-- gcc&#45;&gt;libasan -->
<g id="edge7" class="edge">
<title>gcc&#45;&gt;libasan</title>
<path fill="none" stroke="#444444" stroke-opacity="0.333333" d="M560.5604,-211.7969C547.8565,-174.6632 518.7388,-89.5517 503.6741,-45.5176"/>
<polygon fill="#444444" fill-opacity="0.333333" stroke="#444444" stroke-opacity="0.333333" points="506.9725,-44.346 500.424,-36.0173 500.3494,-46.6119 506.9725,-44.346"/>
</g>
<!-- gcc&#45;&gt;libatomic -->
<g id="edge8" class="edge">
<title>gcc&#45;&gt;libatomic</title>
<path fill="none" stroke="#444444" stroke-opacity="0.333333" d="M569.3139,-248.2002C574.6963,-286.5536 587.1728,-375.4558 593.5863,-421.1564"/>
<polygon fill="#444444" fill-opacity="0.333333" stroke="#444444" stroke-opacity="0.333333" points="590.1493,-421.8498 595.0051,-431.2663 597.0813,-420.8769 590.1493,-421.8498"/>
</g>
<!-- gcc&#45;&gt;libgcc -->
<g id="edge9" class="edge">
<title>gcc&#45;&gt;libgcc</title>
<path fill="none" stroke="#444444" stroke-opacity="0.333333" d="M548.2991,-211.835C524.0209,-188.1044 481.205,-146.2541 453.7083,-119.3775"/>
<polygon fill="#444444" fill-opacity="0.333333" stroke="#444444" stroke-opacity="0.333333" points="455.9849,-116.7086 446.3871,-112.2215 451.0919,-121.7144 455.9849,-116.7086"/>
</g>
<!-- gcc&#45;&gt;libgomp -->
<g id="edge10" class="edge">
<title>gcc&#45;&gt;libgomp</title>
<path fill="none" stroke="#444444" stroke-opacity="0.333333" d="M558.8306,-248.1177C546.7772,-275.9408 523.7311,-329.1392 509.6628,-361.6134"/>
<polygon fill="#444444" fill-opacity="0.333333" stroke="#444444" stroke-opacity="0.333333" points="506.3708,-360.408 505.6072,-370.9753 512.794,-363.1906 506.3708,-360.408"/>
</g>
<!-- gcc&#45;&gt;libubsan -->
<g id="edge11" class="edge">
<title>gcc&#45;&gt;libubsan</title>
<path fill="none" stroke="#444444" stroke-opacity="0.333333" d="M566.8141,-211.5769C566.9324,-182.3649 567.165,-124.9445 567.3051,-90.3689"/>
<polygon fill="#444444" fill-opacity="0.333333" stroke="#444444" stroke-opacity="0.333333" points="570.8064,-90.0246 567.3471,-80.0105 563.8065,-89.9962 570.8064,-90.0246"/>
</g>
<!-- libasan&#45;&gt;libgcc -->
<g id="edge12" class="edge">
<title>libasan&#45;&gt;libgcc</title>
<path fill="none" stroke="#444444" stroke-opacity="0.333333" d="M478.5265,-36.0399C470.1542,-45.6394 459.7102,-57.6144 450.4841,-68.193"/>
<polygon fill="#444444" fill-opacity="0.333333" stroke="#444444" stroke-opacity="0.333333" points="447.6558,-66.1109 443.7206,-75.9478 452.9313,-70.7119 447.6558,-66.1109"/>
</g>
<!-- libubsan&#45;&gt;libgcc -->
<g id="edge13" class="edge">
<title>libubsan&#45;&gt;libgcc</title>
<path fill="none" stroke="#444444" stroke-opacity="0.333333" d="M513.0667,-74.5136C502.5116,-76.9429 491.4608,-79.4863 480.9474,-81.906"/>
<polygon fill="#444444" fill-opacity="0.333333" stroke="#444444" stroke-opacity="0.333333" points="480.026,-78.5265 471.0658,-84.1803 481.5961,-85.3482 480.026,-78.5265"/>
</g>
<!-- libtool&#45;&gt;automake -->
<g id="edge14" class="edge">
<title>libtool&#45;&gt;automake</title>
<path fill="none" stroke="#444444" stroke-opacity="0.333333" d="M210.1142,-249.3963C182.7781,-249.5247 148.2039,-249.6872 118.5397,-249.8265"/>
<polygon fill="#444444" fill-opacity="0.333333" stroke="#444444" stroke-opacity="0.333333" points="118.2552,-246.3277 108.2717,-249.8748 118.2881,-253.3276 118.2552,-246.3277"/>
</g>
<!-- libtool&#45;&gt;autoconf -->
<g id="edge15" class="edge">
<title>libtool&#45;&gt;autoconf</title>
<path fill="none" stroke="#444444" stroke-opacity="0.333333" d="M225.5011,-267.2205C199.8143,-281.3656 163.9002,-301.1426 136.1482,-316.425"/>
<polygon fill="#444444" fill-opacity="0.333333" stroke="#444444" stroke-opacity="0.333333" points="134.1474,-313.5311 127.0761,-321.4208 137.5241,-319.6629 134.1474,-313.5311"/>
</g>
<!-- libtool&#45;&gt;gcc -->
<g id="edge16" class="edge">
<title>libtool&#45;&gt;gcc</title>
<path fill="none" stroke="#444444" stroke-opacity="0.333333" d="M306.4769,-246.1528C368.0807,-242.2963 473.429,-235.7014 529.3336,-232.2017"/>
<polygon fill="#444444" fill-opacity="0.333333" stroke="#444444" stroke-opacity="0.333333" points="529.7398,-235.6832 539.5015,-231.5652 529.3024,-228.6969 529.7398,-235.6832"/>
</g>
<!-- libtool&#45;&gt;tar -->
<g id="edge17" class="edge">
<title>libtool&#45;&gt;tar</title>
<path fill="none" stroke="#444444" stroke-opacity="0.333333" d="M258.2017,-231.0737C258.0881,-204.8139 257.8764,-155.9014 257.7422,-124.8741"/>
<polygon fill="#444444" fill-opacity="0.333333" stroke="#444444" stroke-opacity="0.333333" points="261.2415,-124.6965 257.6982,-114.7117 254.2416,-124.7268 261.2415,-124.6965"/>
</g>
<!-- tar&#45;&gt;libgcc -->
<g id="edge18" class="edge">
<title>tar&#45;&gt;libgcc</title>
<path fill="none" stroke="#444444" stroke-opacity="0.333333" d="M284.9736,-96.2346C309.0211,-95.8791 344.7148,-95.3514 374.4118,-94.9123"/>
<polygon fill="#444444" fill-opacity="0.333333" stroke="#444444" stroke-opacity="0.333333" points="374.6899,-98.4087 384.637,-94.7612 374.5863,-91.4095 374.6899,-98.4087"/>
</g>
<!-- automake -->
<g id="node1" class="node">
<title>automake</title>
<text text-anchor="middle" x="53.945" y="-246.43" font-family="monospace" font-size="14.00" fill="#000000">automake</text>
</g>
<!-- autoconf -->
<g id="node2" class="node">
<title>autoconf</title>
<text text-anchor="middle" x="94.354" y="-335.74" font-family="monospace" font-size="14.00" fill="#000000">autoconf</text>
</g>
<!-- cpp -->
<g id="node3" class="node">
<title>cpp</title>
<text text-anchor="middle" x="696.17" y="-117.69" font-family="monospace" font-size="14.00" fill="#000000">cpp</text>
</g>
<!-- libmpc -->
<g id="node4" class="node">
<title>libmpc</title>
<text text-anchor="middle" x="781.38" y="-144.26" font-family="monospace" font-size="14.00" fill="#000000">libmpc</text>
</g>
<!-- gcc -->
<g id="node5" class="node">
<title>gcc</title>
<text text-anchor="middle" x="566.74" y="-226.16" font-family="monospace" font-size="14.00" fill="#000000">gcc</text>
</g>
<!-- binutils -->
<g id="node6" class="node">
<title>binutils</title>
<text text-anchor="middle" x="714.46" y="-392.93" font-family="monospace" font-size="14.00" fill="#000000">binutils</text>
</g>
<!-- isl -->
<g id="node7" class="node">
<title>isl</title>
<text text-anchor="middle" x="759.94" y="-284.26" font-family="monospace" font-size="14.00" fill="#000000">isl</text>
</g>
<!-- libasan -->
<g id="node8" class="node">
<title>libasan</title>
<text text-anchor="middle" x="494.26" y="-14.3" font-family="monospace" font-size="14.00" fill="#000000">libasan</text>
</g>
<!-- libatomic -->
<g id="node9" class="node">
<title>libatomic</title>
<text text-anchor="middle" x="597.55" y="-445.7" font-family="monospace" font-size="14.00" fill="#000000">libatomic</text>
</g>
<!-- libgcc -->
<g id="node10" class="node">
<title>libgcc</title>
<text text-anchor="middle" x="427.87" y="-90.422" font-family="monospace" font-size="14.00" fill="#000000">libgcc</text>
</g>
<!-- libgomp -->
<g id="node11" class="node">
<title>libgomp</title>
<text text-anchor="middle" x="497.79" y="-385.32" font-family="monospace" font-size="14.00" fill="#000000">libgomp</text>
</g>
<!-- libubsan -->
<g id="node12" class="node">
<title>libubsan</title>
<text text-anchor="middle" x="567.42" y="-58.304" font-family="monospace" font-size="14.00" fill="#000000">libubsan</text>
</g>
<!-- libtool -->
<g id="node13" class="node">
<title>libtool</title>
<text text-anchor="middle" x="258.28" y="-245.47" font-family="monospace" font-size="14.00" fill="#000000">libtool</text>
</g>
<!-- tar -->
<g id="node14" class="node">
<title>tar</title>
<text text-anchor="middle" x="257.62" y="-92.939" font-family="monospace" font-size="14.00" fill="#000000">tar</text>
</g>
</g>
</svg>
