<?xml version="1.0" encoding="UTF-8" standalone="no"?>
<!DOCTYPE svg PUBLIC "-//W3C//DTD SVG 1.1//EN"
 "http://www.w3.org/Graphics/SVG/1.1/DTD/svg11.dtd">
<!-- Generated by graphviz version 2.40.1 (20161225.0304)
 -->
<!-- Title: G Pages: 1 -->
<svg width="2131pt" height="1455pt"
 viewBox="0.00 0.00 2130.98 1454.91" xmlns="http://www.w3.org/2000/svg" xmlns:xlink="http://www.w3.org/1999/xlink">
<g id="graph0" class="graph" transform="scale(1 1) rotate(0) translate(145.5851 1316.2981)">
<title>G</title>
<polygon fill="#dae2ff" stroke="transparent" points="-145.5851,138.61 -145.5851,-1316.2981 1985.3944,-1316.2981 1985.3944,138.61 -145.5851,138.61"/>
<polygon fill="#fbb4ae" stroke="#fbb4ae" points="1430.9774,-616.0231 1426.1132,-616.2766 1420.3337,-616.1919 1420.2554,-616.1956 1413.1792,-616.9792 1351.2368,-627.691 1346.9998,-631.3881 1333.1172,-642.8071 1317.7787,-657.5034 1309.1888,-666.4834 1303.9946,-672.3694 1301.4259,-675.395 1410.2026,-664.6598 1417.5657,-665.0818 1427.4121,-668.3377 1431.6393,-665.3939 1435.2516,-701.3514 1437.3115,-661.2136 1437.4371,-661.2136 1441.351,-664.332 1441.351,-664.332 1437.4371,-661.2136 1437.3115,-661.2136 1435.2516,-701.3514 1436.4358,-749.5463 1442.9636,-749.4086 1444.8044,-749.4803 1445.9595,-790.4998 1449.7988,-835.179 1449.9014,-835.3552 1452.4875,-837.5797 1448.9603,-840.8469 1450.4301,-869.5938 1451.4844,-869.5428 1456.7579,-869.7986 1458.6713,-837.9772 1458.6713,-837.9772 1456.7579,-869.7986 1466.6034,-871.2433 1466.8264,-871.2971 1467.1571,-871.4086 1479.7485,-876.9639 1483.2131,-879.1483 1484.9911,-841.4427 1480.5211,-842.5616 1480.5211,-842.5616 1484.9911,-841.4427 1488.8209,-838.6331 1489.3195,-838.0107 1490.754,-837.6468 1492.1464,-837.6468 1494.2748,-838.1847 1497.0503,-838.1847 1498.5238,-837.8088 1502.7552,-837.8088 1503.4337,-837.978 1506.3423,-837.978 1508.2524,-807.7458 1511.7207,-810.3867 1514.5829,-812.0764 1530.8107,-819.005 1536.6073,-822.4872 1540.3268,-825.338 1543.8876,-828.6695 1544.8771,-794.0718 1546.2384,-793.7292 1542.0334,-770.7615 1540.248,-704.5644 1550.2142,-697.6881 1550.4177,-697.5399 1559.071,-691.5949 1560.1013,-690.773 1561.7184,-689.4194 1572.6239,-707.6767 1577.2919,-715.0023 1586.446,-727.5287 1588.4562,-730.0659 1592.8301,-735.1477 1596.7285,-739.2858 1598.7357,-741.642 1605.0183,-748.2883 1602.0538,-787.7413 1630.2324,-781.9995 1614.5532,-759.4597 1643.9424,-756.3926 1646.5592,-753.3072 1649.2189,-752.159 1651.7061,-749.9263 1652.2131,-749.9263 1652.401,-749.8793 1657.3949,-749.8793 1658.9583,-749.4813 1660.1229,-749.4813 1660.1229,-749.4813 1658.9583,-749.4813 1657.3949,-749.8793 1652.401,-749.8793 1652.2131,-749.9263 1651.7061,-749.9263 1649.2189,-752.159 1646.5592,-753.3072 1643.9424,-756.3926 1614.5532,-759.4597 1630.2324,-781.9995 1602.0538,-787.7413 1605.0183,-748.2883 1598.7357,-741.642 1596.7285,-739.2858 1592.8301,-735.1477 1588.4562,-730.0659 1586.446,-727.5287 1577.2919,-715.0023 1572.6239,-707.6767 1561.7184,-689.4194 1560.1013,-690.773 1559.071,-691.5949 1550.4177,-697.5399 1550.2142,-697.6881 1540.248,-704.5644 1542.0334,-770.7615 1546.2384,-793.7292 1544.8771,-794.0718 1543.8876,-828.6695 1540.3268,-825.338 1536.6073,-822.4872 1530.8107,-819.005 1514.5829,-812.0764 1515.9064,-830.8615 1525.3301,-832.5213 1545.0177,-829.9252 1550.0526,-833.9082 1558.5934,-842.9224 1562.1266,-846.2509 1557.0729,-794.2682 1557.7084,-794.1083 1562.0894,-797.3578 1567.2297,-798.6616 1570.479,-797.8781 1573.9927,-820.5297 1574.5116,-837.4102 1572.9563,-839.1293 1611.7247,-841.8911 1614.5173,-844.6537 1614.9519,-844.8132 1618.9214,-848.5512 1620.7068,-848.5512 1621.7725,-848.8318 1624.0208,-848.8318 1627.2422,-874.0591 1630.9523,-848.8857 1632.5807,-848.8857 1636.4741,-869.1172 1640.4703,-848.861 1642.4183,-848.861 1645.9434,-883.0541 1648.3666,-851.1315 1652.3597,-853.08 1656.4414,-853.08 1656.4414,-853.08 1652.3597,-853.08 1648.3666,-851.1315 1645.9434,-883.0541 1642.4183,-848.861 1640.4703,-848.861 1636.4741,-869.1172 1632.5807,-848.8857 1630.9523,-848.8857 1627.2422,-874.0591 1624.0208,-848.8318 1621.7725,-848.8318 1620.7068,-848.5512 1618.9214,-848.5512 1614.9519,-844.8132 1614.5173,-844.6537 1611.7247,-841.8911 1572.9563,-839.1293 1574.5116,-837.4102 1573.9927,-820.5297 1570.479,-797.8781 1567.2297,-798.6616 1562.0894,-797.3578 1557.7084,-794.1083 1557.0729,-794.2682 1562.1266,-846.2509 1558.5934,-842.9224 1550.0526,-833.9082 1545.0177,-829.9252 1525.3301,-832.5213 1515.9064,-830.8615 1514.5829,-812.0764 1511.7207,-810.3867 1508.2524,-807.7458 1506.3423,-837.978 1506.6272,-838.0483 1507.6975,-872.0599 1510.1414,-871.2345 1517.17,-869.5576 1515.5985,-844.1102 1556.4512,-852.0321 1548.6212,-858.2799 1542.7117,-862.3199 1546.1453,-895.546 1540.4829,-898.6725 1539.0507,-900.2076 1541.45,-902.7468 1544.9274,-904.5084 1544.9274,-904.5084 1541.45,-902.7468 1539.0507,-900.2076 1540.4829,-898.6725 1546.1453,-895.546 1542.7117,-862.3199 1548.6212,-858.2799 1556.4512,-852.0321 1515.5985,-844.1102 1517.17,-869.5576 1527.9926,-868.0764 1528.1257,-871.5856 1528.1257,-871.5856 1527.9926,-868.0764 1517.17,-869.5576 1510.1414,-871.2345 1507.6975,-872.0599 1506.6272,-838.0483 1506.3423,-837.978 1503.4337,-837.978 1502.7552,-837.8088 1498.5238,-837.8088 1497.0503,-838.1847 1494.2748,-838.1847 1492.1464,-837.6468 1490.754,-837.6468 1489.3195,-838.0107 1488.8209,-838.6331 1484.9911,-841.4427 1483.2131,-879.1483 1488.7112,-883.1666 1488.9468,-895.6286 1489.1798,-897.208 1489.2911,-903.0969 1503.2179,-903.7156 1503.2179,-903.7156 1489.2911,-903.0969 1489.1798,-897.208 1488.9468,-895.6286 1488.7112,-883.1666 1483.2131,-879.1483 1479.7485,-876.9639 1467.1571,-871.4086 1466.8264,-871.2971 1466.6034,-871.2433 1456.7579,-869.7986 1451.4844,-869.5428 1450.4301,-869.5938 1450.3621,-869.6037 1450.3621,-869.6037 1450.4301,-869.5938 1448.9603,-840.8469 1452.4875,-837.5797 1449.9014,-835.3552 1449.7988,-835.179 1445.9595,-790.4998 1444.8044,-749.4803 1442.9636,-749.4086 1436.4358,-749.5463 1435.2516,-701.3514 1431.6393,-665.3939 1427.4121,-668.3377 1423.8325,-750.5698 1410.1041,-752.0948 1345.2166,-714.1229 1342.4629,-712.4202 1334.8892,-707.4824 1334.2382,-707.0366 1329.9268,-813.9895 1334.6885,-813.9895 1334.8446,-848.2304 1333.1533,-868.2321 1329.7169,-814.0407 1327.4968,-814.0407 1325.241,-814.6088 1329.4648,-875.0877 1317.3193,-884.723 1314.825,-887.1862 1380.572,-895.0329 1379.6641,-849.6025 1381.347,-848.704 1385.6434,-900.5073 1386.1204,-901.0164 1388.8512,-901.0164 1389.5267,-901.1855 1393.1635,-901.1855 1393.9259,-901.3793 1399.3646,-901.3793 1399.4485,-901.4 1401.3496,-901.4 1402.142,-901.5956 1406.9292,-901.5956 1407.4379,-902.2252 1411.0851,-904.8842 1411.0851,-904.8842 1407.4379,-902.2252 1406.9292,-901.5956 1402.142,-901.5956 1401.3496,-901.4 1399.4485,-901.4 1399.3646,-901.3793 1393.9259,-901.3793 1393.1635,-901.1855 1389.5267,-901.1855 1388.8512,-901.0164 1386.1204,-901.0164 1385.6434,-900.5073 1381.347,-848.704 1379.6641,-849.6025 1380.572,-895.0329 1314.825,-887.1862 1317.3193,-884.723 1329.4648,-875.0877 1325.241,-814.6088 1327.4968,-814.0407 1329.7169,-814.0407 1333.1533,-868.2321 1334.8446,-848.2304 1334.6885,-813.9895 1329.9268,-813.9895 1334.2382,-707.0366 1322.0165,-698.2531 1320.8324,-697.325 1316.6641,-813.786 1314.1786,-813.786 1308.8762,-785.9448 1305.3911,-739.8953 1303.4108,-772.75 1298.5925,-810.2245 1295.4757,-809.4818 1295.4757,-809.4818 1298.5925,-810.2245 1303.4108,-772.75 1305.3911,-739.8953 1308.8762,-785.9448 1314.1786,-813.786 1316.6641,-813.786 1320.8324,-697.325 1322.0165,-698.2531 1334.2382,-707.0366 1334.8892,-707.4824 1342.4629,-712.4202 1345.2166,-714.1229 1410.1041,-752.0948 1423.8325,-750.5698 1427.4121,-668.3377 1417.5657,-665.0818 1410.2026,-664.6598 1301.4259,-675.395 1299.234,-677.7066 1298.6409,-678.3555 1291.6829,-678.394 1289.1443,-678.3192 1283.3059,-678.3595 1280.2883,-678.2217 1272.354,-678.1485 1268.5929,-678.2508 1258.2711,-677.989 1255.9581,-678.0145 1255.425,-678.0301 1250.4672,-678.0882 1249.0184,-678.0546 1240.4956,-678.3212 1223.9203,-678.5496 1097.2214,-806.2913 1087.4347,-815.2885 1078.476,-824.5571 1068.4065,-835.2698 1066.4553,-837.4576 1062.9423,-841.608 1063.0769,-842.0764 1076.3629,-890.5436 1046.1838,-972.835 1049.8287,-995.3352 1056.2003,-1038.9653 1059.4561,-1067.8347 1063.9644,-1114.8484 1168.0526,-1182.9874 1193.7382,-1183.6483 1213.7075,-1184.8497 1214.7234,-1184.6559 1206.0415,-1036.0543 1206.5527,-1035.9189 1206.8702,-1035.9189 1211.7897,-1031.9556 1215.6019,-1030.9774 1215.6019,-1030.9774 1211.7897,-1031.9556 1206.8702,-1035.9189 1211.09,-1039.2299 1211.09,-1039.2299 1206.8702,-1035.9189 1206.5527,-1035.9189 1206.0415,-1036.0543 1214.7234,-1184.6559 1217.3789,-1184.196 1221.8075,-1183.584 1226.5469,-1183.0941 1237.8551,-1182.1217 1272.4694,-1179.7499 1401.3713,-1124.6167 1444.5093,-1190.77 1470.0317,-1231.3317 1569.8923,-1308.6315 1570.3057,-1308.6914 1590.8397,-1311.9663 1590.7677,-1142.8644 1594.4768,-1139.8719 1604.1456,-1247.3828 1604.1639,-1230.9988 1608.9967,-1143.9287 1613.5852,-1143.9287 1617.0845,-1142.2518 1619.9435,-1139.3669 1618.2257,-1137.6462 1618.2257,-1137.6462 1619.9435,-1139.3669 1617.0845,-1142.2518 1613.5852,-1143.9287 1608.9967,-1143.9287 1604.1639,-1230.9988 1604.1456,-1247.3828 1594.4768,-1139.8719 1590.7677,-1142.8644 1590.8397,-1311.9663 1592.7505,-1312.2981 1604.7236,-1308.5612 1626.9517,-1303.3027 1632.9662,-1302.1538 1655.1754,-1298.5808 1717.0096,-1273.0768 1775.4734,-1180.4714 1781.9646,-1170.5542 1779.4297,-1136.4253 1778.8864,-1123.5292 1774.2502,-1104.3651 1753.796,-1013.2364 1819.0066,-949.2015 1831.0465,-884.2275 1831.1293,-865.9442 1831.6366,-842.6047 1832.8886,-825.5134 1861.728,-754.7316 1866.0431,-745.0179 1868.6212,-739.6576 1868.3649,-713.5052 1801.4504,-589.6027 1743.6595,-517.1112 1721.3575,-535.661 1714.3114,-541.394 1710.5599,-745.3215 1707.814,-749.5452 1709.1656,-750.2969 1710.6981,-751.8911 1710.8713,-751.981 1710.8713,-751.981 1710.6981,-751.8911 1709.1656,-750.2969 1707.814,-749.5452 1707.3256,-749.5452 1707.3256,-749.5452 1707.814,-749.5452 1710.5599,-745.3215 1714.3114,-541.394 1708.3837,-546.1083 1701.6401,-551.603 1692.7123,-558.5358 1672.2015,-572.92 1651.1312,-585.7091 1633.0291,-595.6588 1596.5433,-614.9926 1591.7601,-613.4431 1522.9678,-589.7629 1499.3092,-598.0521 1468.1478,-610.3214 1461.6143,-612.4705 1453.6672,-614.5594 1443.2145,-615.9156 1440.2316,-616.1028 1438.3228,-616.3432 1437.6689,-616.3818 1435.6311,-616.3672 1430.9774,-616.0231 1430.9774,-616.0231"/>
<polygon fill="#bbd7d9" stroke="#bbd7d9" points="1799.0674,-213.1238 1808.6787,-217.7899 1797.4124,-220.6444 1799.9442,-223.5562 1940.1553,-243.5606 1942.3855,-233.308 1943.0437,-230.6929 1978.8767,-170.4052 1981.3944,-166.3182 1972.645,-117.5518 1961.6471,-31.9739 1841.5013,28.0606 1810.1267,68.3228 1767.8562,84.2567 1756.1217,87.2799 1719.2632,111.7145 1649.3304,129.4469 1630.276,134.61 1623.2214,132.0494 1611.2565,128.3451 1536.5566,107.8754 1531.9924,104.7836 1521.0878,101.6026 1427.219,76.0101 1413.8899,62.5027 1362.0112,-14.272 1354.6913,-24.7868 1363.5299,-44.5543 1368.0415,-55.037 1510.9819,-47.5736 1526.6624,-49.3924 1532.0614,-44.373 1532.9749,-42.7259 1533.0142,-42.6844 1535.4612,-42.6844 1535.5206,-42.7001 1536.6569,-42.7001 1540.6349,-45.8067 1545.4996,-47.1091 1551.1979,-45.5422 1554.4539,-43.03 1554.9183,-42.4028 1554.5098,-41.8498 1551.1067,-39.2087 1551.1067,-39.2087 1554.5098,-41.8498 1554.9183,-42.4028 1554.4539,-43.03 1551.1979,-45.5422 1545.4996,-47.1091 1540.6349,-45.8067 1536.6569,-42.7001 1535.5206,-42.7001 1535.4612,-42.6844 1533.0142,-42.6844 1532.9749,-42.7259 1532.0614,-44.373 1526.6624,-49.3924 1510.9819,-47.5736 1368.0415,-55.037 1394.3745,-121.4329 1421.458,-186.6835 1425.2794,-194.9429 1424.5283,-198.4638 1426.4877,-201.0627 1443.9064,-222.9345 1452.093,-232.5949 1456.396,-237.1965 1469.1515,-251.7911 1476.7666,-259.5689 1483.9022,-266.5689 1493.504,-275.5922 1570.1399,-354.6313 1592.7684,-376.7924 1603.8289,-388.5573 1608.3517,-393.5516 1608.6189,-393.8166 1613.5674,-399.0854 1620.1917,-401.9484 1708.6783,-441.9667 1749.4868,-459.8442 1750.0042,-459.1825 1762.8418,-450.4142 1777.9515,-440.9602 1776.1042,-296.9246 1777.5352,-221.7194 1772.7445,-221.7194 1769.1746,-219.9937 1769.1746,-219.9937 1772.7445,-221.7194 1777.5352,-221.7194 1776.1042,-296.9246 1777.9515,-440.9602 1782.1945,-438.4275 1797.9265,-429.4836 1800.244,-428.1998 1831.6834,-411.6868 1935.8871,-264.8514 1940.1553,-243.5606 1799.9442,-223.5562 1797.4124,-220.6444 1808.6787,-217.7899 1799.0674,-213.1238 1800.1669,-211.488 1797.8433,-181.2354 1797.8879,-173.9936 1796.3508,-173.7773 1801.4139,-130.8063 1800.4293,-130.5375 1800.1646,-86.8034 1799.0912,-72.6188 1795.0558,-128.6613 1793.1158,-127.4957 1790.7589,-124.3909 1747.2045,-113.5205 1767.6517,-80.8148 1784.4011,-59.1603 1733.093,-65.2405 1719.8945,-64.0493 1715.4025,-68.2281 1714.9098,-10.7239 1710.4988,-66.3706 1715.1472,-68.731 1715.8705,-70.8354 1715.8705,-70.8354 1715.1472,-68.731 1710.4988,-66.3706 1714.9098,-10.7239 1715.4025,-68.2281 1719.8945,-64.0493 1733.093,-65.2405 1784.4011,-59.1603 1767.6517,-80.8148 1747.2045,-113.5205 1790.7589,-124.3909 1793.1158,-127.4957 1795.0558,-128.6613 1799.0912,-72.6188 1800.1646,-86.8034 1800.4293,-130.5375 1801.4139,-130.8063 1796.3508,-173.7773 1797.8879,-173.9936 1805.2181,-174.0588 1812.1665,-174.6102 1809.6996,-134.9974 1814.8467,-134.9974 1819.0704,-132.7985 1821.5215,-130.1328 1819.9617,-128.533 1815.1284,-125.9934 1815.1284,-125.9934 1819.9617,-128.533 1821.5215,-130.1328 1819.0704,-132.7985 1814.8467,-134.9974 1809.6996,-134.9974 1812.1665,-174.6102 1805.2181,-174.0588 1797.8879,-173.9936 1797.8433,-181.2354 1800.1669,-211.488 1799.0674,-213.1238 1799.0674,-213.1238"/>
<polygon fill="#d8d6da" stroke="#d8d6da" points="35.3705,-354.0284 34.4282,-395.0371 34.4282,-395.0371 35.3705,-354.0284 31.8106,-254.8529 -5.1311,-253.1588 -56.7404,-293.806 -127.9845,-390.6228 -135.9175,-400.501 -141.5851,-409.8139 -134.8249,-437.8821 -131.7937,-451.2585 -72.6726,-520.2486 32.9574,-556.5627 40.1978,-559.3109 41.9985,-560.0265 70.0656,-593.9291 157.2354,-647.367 175.8127,-641.2651 177.1922,-556.5834 175.8472,-527.1843 171.3611,-481.1162 171.3611,-481.1162 175.8472,-527.1843 177.1922,-556.5834 180.2433,-517.6295 186.4706,-474.5958 188.6198,-474.5958 192.9628,-508.0793 194.7746,-474.5168 198.8233,-474.5168 199.3404,-474.6507 202.2561,-474.6507 204.1196,-474.1583 205.9804,-474.1583 207.9485,-476.2419 212.5388,-478.673 212.5388,-478.673 207.9485,-476.2419 205.9804,-474.1583 204.1196,-474.1583 202.2561,-474.6507 199.3404,-474.6507 198.8233,-474.5168 194.7746,-474.5168 192.9628,-508.0793 188.6198,-474.5958 186.4706,-474.5958 180.2433,-517.6295 177.1922,-556.5834 175.8127,-641.2651 195.3535,-636.0723 211.8748,-632.4644 218.4274,-631.4471 234.267,-629.4847 241.0167,-628.7551 243.4359,-628.5701 244.4104,-474.2861 247.9218,-474.2861 247.9218,-474.2861 244.4104,-474.2861 243.4359,-628.5701 251.6913,-628.0684 258.1297,-627.8799 298.9803,-627.3275 393.2318,-687.0726 405.8,-725.8724 423.3911,-783.2507 545.3007,-819.1907 552.0533,-820.1101 562.9575,-821.9777 578.4738,-825.4541 577.4634,-734.5406 579.4259,-679.7435 583.7221,-680.8198 588.9892,-679.4771 591.9678,-677.2926 593.1044,-675.7925 588.9583,-672.6229 583.8724,-671.2713 583.8724,-671.2713 588.9583,-672.6229 593.1044,-675.7925 591.9678,-677.2926 588.9892,-679.4771 583.7221,-680.8198 579.4259,-679.7435 577.4634,-734.5406 578.4738,-825.4541 582.6913,-826.5466 595.4276,-830.2958 604.1169,-829.4382 604.8731,-829.3881 604.7776,-730.5291 604.7776,-730.5291 604.8731,-829.3881 607.4548,-829.2997 617.98,-829.1089 668.4225,-829.0057 696.2293,-814.3967 759.4827,-724.6102 747.2747,-709.3101 729.1675,-687.4001 712.5462,-665.5292 643.5422,-669.8859 643.5422,-669.8859 712.5462,-665.5292 729.1675,-687.4001 747.2747,-709.3101 759.4827,-724.6102 759.5657,-724.5814 764.6321,-722.9946 764.7274,-708.307 767.9766,-571.7156 767.8023,-571.5392 767.8023,-567.3889 767.2211,-566.7841 763.8709,-565.1235 763.8709,-565.1235 767.2211,-566.7841 767.8023,-567.3889 767.8023,-571.5392 767.9766,-571.7156 764.7274,-708.307 764.6321,-722.9946 771.0963,-721.1887 880.5195,-692.47 984.3975,-798.7926 1038.1864,-826.844 1044.9221,-830.5958 1062.9423,-841.608 1066.4553,-837.4576 1060.9802,-679.3609 1062.9519,-655.2043 1066.8419,-655.2043 1072.4955,-652.1712 1073.8188,-650.8205 1071.0406,-647.9268 1067.4888,-646.1854 1067.4888,-646.1854 1071.0406,-647.9268 1073.8188,-650.8205 1072.4955,-652.1712 1066.8419,-655.2043 1062.9519,-655.2043 1060.9802,-679.3609 1066.4553,-837.4576 1068.4065,-835.2698 1078.476,-824.5571 1076.2773,-650.8205 1077.5718,-650.4858 1080.2289,-650.4858 1084.3602,-699.6047 1087.4381,-814.1068 1090.3806,-723.8401 1090.1609,-654.1307 1090.1609,-654.1307 1090.3806,-723.8401 1087.4381,-814.1068 1084.3602,-699.6047 1080.2289,-650.4858 1077.5718,-650.4858 1076.2773,-650.8205 1078.476,-824.5571 1087.4347,-815.2885 1097.2214,-806.2913 1223.9203,-678.5496 1202.8684,-650.73 1137.8771,-547.7387 1130.3639,-536.9168 1123.2373,-527.4992 1145.4965,-463.8825 1147.7384,-458.4947 1121.4241,-415.9195 1025.984,-444.1757 1024.3605,-414.0684 1027.7587,-297.2818 1023.031,-302.7657 1016.4305,-449.7381 1013.5718,-449.7381 1008.2988,-412.2099 1005.7856,-371.9418 1003.1909,-445.5796 998.8586,-445.5796 994.2537,-447.866 992.0217,-450.0658 993.6859,-451.7221 998.7728,-454.3764 998.7728,-454.3764 993.6859,-451.7221 992.0217,-450.0658 990.8119,-450.0658 990.7087,-450.0396 990.7087,-450.0396 990.8119,-450.0658 992.0217,-450.0658 994.2537,-447.866 995.9993,-331.9806 986.0117,-341.1879 981.9108,-344.6406 978.8517,-347.6083 978.8145,-362.7777 978.8145,-362.7777 978.8517,-347.6083 903.6674,-413.8444 902.8208,-424.5714 827.6392,-432.2132 826.011,-385.3428 823.6689,-385.2875 820.2929,-384.8641 817.1905,-384.7888 812.0203,-384.9232 811.0667,-385.0445 806.2239,-385.1678 801.036,-385.0364 800.5339,-434.0264 797.1006,-435.6625 794.0383,-438.8371 795.9597,-440.7766 800.661,-443.1718 800.661,-443.1718 795.9597,-440.7766 794.0383,-438.8371 797.1006,-435.6625 800.5339,-434.0264 801.036,-385.0364 806.2239,-385.1678 811.0667,-385.0445 812.0203,-384.9232 817.1905,-384.7888 820.2929,-384.8641 823.6689,-385.2875 826.011,-385.3428 827.6392,-432.2132 902.8208,-424.5714 903.6674,-413.8444 978.8517,-347.6083 981.9108,-344.6406 986.0117,-341.1879 995.9993,-331.9806 994.2537,-447.866 998.8586,-445.5796 1003.1909,-445.5796 1005.7856,-371.9418 1008.2988,-412.2099 1013.5718,-449.7381 1016.4305,-449.7381 1023.031,-302.7657 1027.7587,-297.2818 1024.3605,-414.0684 1025.984,-444.1757 1121.4241,-415.9195 1075.7756,-337.89 1038.3546,-284.1843 1038.4253,-272.8305 1038.5839,-265.2861 990.296,-168.45 978.6416,-147.6582 937.7061,-149.7369 926.5438,-151.6864 888.4186,-167.4406 888.0262,-167.5962 867.1535,-175.5241 871.5992,-307.5224 868.822,-331.696 867.2372,-331.696 866.4674,-331.5013 862.5952,-299.676 859.689,-181.8783 856.246,-331.6985 852.1102,-331.6985 852.0891,-331.7036 848.4158,-331.7036 845.2173,-363.4722 842.2167,-331.7865 840.8967,-331.7865 837.6757,-328.4946 834.4788,-326.9769 830.0109,-326.9769 830.0109,-326.9769 834.4788,-326.9769 837.6757,-328.4946 840.8967,-331.7865 842.2167,-331.7865 845.2173,-363.4722 848.4158,-331.7036 852.0891,-331.7036 852.1102,-331.6985 856.246,-331.6985 859.689,-181.8783 862.5952,-299.676 866.4674,-331.5013 867.2372,-331.696 868.822,-331.696 871.5992,-307.5224 867.1535,-175.5241 859.6559,-178.1136 850.0909,-180.9278 848.05,-181.4935 824.5809,-186.8111 809.9663,-188.8775 808.7127,-189.0334 789.1937,-190.7979 775.7386,-191.0971 701.183,-191.4866 585.2816,-295.5603 570.5104,-308.5157 564.6879,-316.1103 491.8916,-314.6159 489.6607,-314.5455 484.7198,-315.9671 482.8373,-316.4862 475.3168,-318.4703 461.8627,-321.6982 442.9106,-325.3383 434.3696,-326.7733 420.2101,-328.4737 399.9628,-330.6621 417.7386,-518.8445 417.7386,-518.8445 399.9628,-330.6621 389.728,-331.6445 368.497,-323.7101 255.4783,-315.1244 245.7944,-313.9445 235.4405,-312.5246 232.3841,-312.0122 226.8844,-310.9215 216.0668,-301.9915 128.8349,-259.7466 94.266,-257.1934 88.0835,-256.526 77.0446,-255.1458 74.1399,-254.634 66.9452,-254.0877 58.9086,-254.7909 58.7983,-254.7987 62.1519,-397.5772 57.8866,-399.751 55.2993,-402.4821 56.5651,-403.721 62.3192,-406.7082 66.7174,-406.7082 71.1737,-404.4849 71.938,-485.9582 71.3382,-513.9279 86.5211,-494.6559 88.6989,-492.0432 92.4107,-488.0716 92.8269,-487.5701 105.6802,-472.9965 105.6802,-472.9965 92.8269,-487.5701 92.4107,-488.0716 88.6989,-492.0432 86.5211,-494.6559 71.3382,-513.9279 71.938,-485.9582 71.1737,-404.4849 66.7174,-406.7082 62.3192,-406.7082 56.5651,-403.721 55.2993,-402.4821 57.8866,-399.751 62.1519,-397.5772 58.7983,-254.7987 55.751,-254.9635 50.0456,-255.082 31.8106,-254.8529 35.3705,-354.0284 35.3705,-354.0284"/>
<polygon fill="#fed9a6" stroke="#fed9a6" points="1191.9036,-168.2307 1192.3416,-168.1222 1195.4662,-168.1222 1198.5291,-137.871 1198.2633,-21.8778 1185.6836,-25.0471 1182.2137,-25.8605 1183.2717,-72.0407 1183.0411,-165.1031 1183.0411,-165.1031 1183.2717,-72.0407 1182.2137,-25.8605 1179.4709,-26.4081 1134.9888,-34.5208 1098.5483,-52.1152 988.6257,-130.2091 978.6416,-147.6582 990.296,-168.45 1038.5839,-265.2861 1038.4253,-272.8305 1038.3546,-284.1843 1075.7756,-337.89 1121.4241,-415.9195 1147.7384,-458.4947 1145.4965,-463.8825 1123.2373,-527.4992 1130.3639,-536.9168 1137.8771,-547.7387 1213.5482,-547.0891 1213.5482,-547.0891 1137.8771,-547.7387 1202.8684,-650.73 1223.9203,-678.5496 1240.4956,-678.3212 1249.0184,-678.0546 1250.4672,-678.0882 1255.425,-678.0301 1255.9581,-678.0145 1258.2711,-677.989 1268.5929,-678.2508 1272.354,-678.1485 1280.2883,-678.2217 1283.3059,-678.3595 1289.1443,-678.3192 1291.6829,-678.394 1298.6409,-678.3555 1299.234,-677.7066 1301.4259,-675.395 1303.9946,-672.3694 1309.1888,-666.4834 1317.7787,-657.5034 1333.1172,-642.8071 1331.3381,-587.119 1330.5413,-578.8377 1324.0065,-542.5964 1322.0095,-542.5964 1321.3911,-542.437 1321.3911,-542.437 1322.0095,-542.5964 1324.0065,-542.5964 1330.5413,-578.8377 1331.3381,-587.119 1333.1172,-642.8071 1346.9998,-631.3881 1351.2368,-627.691 1413.1792,-616.9792 1420.2554,-616.1956 1420.3337,-616.1919 1426.1132,-616.2766 1430.9774,-616.0231 1435.6311,-616.3672 1437.6689,-616.3818 1438.3228,-616.3432 1440.2316,-616.1028 1443.2145,-615.9156 1453.6672,-614.5594 1461.6143,-612.4705 1468.1478,-610.3214 1499.3092,-598.0521 1522.9678,-589.7629 1591.7601,-613.4431 1596.5433,-614.9926 1633.0291,-595.6588 1651.1312,-585.7091 1672.2015,-572.92 1692.7123,-558.5358 1701.6401,-551.603 1708.3837,-546.1083 1515.5411,-503.9075 1513.2588,-500.9642 1511.2037,-499.8411 1509.4491,-527.5649 1505.0643,-500.601 1501.8992,-502.1901 1496.1245,-502.1901 1492.2778,-500.2542 1489.8193,-548.3138 1486.8418,-501.0334 1482.7106,-504.7023 1478.8292,-548.3773 1478.8292,-548.3773 1482.7106,-504.7023 1486.8418,-501.0334 1489.8193,-548.3138 1492.2778,-500.2542 1489.8024,-497.6969 1489.7908,-497.6969 1488.6891,-498.3315 1474.6069,-493.2387 1411.1196,-492.879 1399.67,-482.3044 1378.4523,-538.1104 1365.3724,-538.7482 1365.3724,-538.7482 1378.4523,-538.1104 1399.67,-482.3044 1411.1196,-492.879 1474.6069,-493.2387 1488.6891,-498.3315 1489.7908,-497.6969 1489.8024,-497.6969 1492.2778,-500.2542 1496.1245,-502.1901 1501.8992,-502.1901 1505.0643,-500.601 1507.9048,-497.4955 1506.2797,-495.8251 1501.5635,-493.3638 1501.5635,-493.3638 1506.2797,-495.8251 1507.9048,-497.4955 1505.0643,-500.601 1509.4491,-527.5649 1511.2037,-499.8411 1513.2588,-500.9642 1515.5411,-503.9075 1708.3837,-546.1083 1714.3114,-541.394 1721.3575,-535.661 1743.6595,-517.1112 1744.9573,-502.1777 1749.4868,-459.8442 1708.6783,-441.9667 1620.1917,-401.9484 1613.5674,-399.0854 1608.6189,-393.8166 1608.3517,-393.5516 1603.8289,-388.5573 1592.7684,-376.7924 1570.1399,-354.6313 1493.504,-275.5922 1483.9022,-266.5689 1476.7666,-259.5689 1469.1515,-251.7911 1467.4268,-338.2746 1472.2993,-381.5619 1466.9949,-381.5619 1466.1703,-352.8522 1460.7283,-379.9117 1462.3066,-382.0127 1457.7816,-385.3277 1452.9468,-386.5223 1449.3409,-385.6466 1446.1813,-405.4609 1442.7303,-381.9001 1440.0227,-381.9001 1437.9187,-381.36 1435.8104,-381.36 1431.3723,-337.2815 1430.168,-378.8563 1425.8865,-374.7904 1408.1289,-375.2507 1382.5934,-372.0681 1381.9155,-360.6041 1338.3872,-376.1769 1336.5864,-355.4055 1340.4456,-265.0033 1323.2839,-295.6077 1323.2839,-295.6077 1340.4456,-265.0033 1336.5864,-355.4055 1338.3872,-376.1769 1381.9155,-360.6041 1382.5934,-372.0681 1408.1289,-375.2507 1425.8865,-374.7904 1430.168,-378.8563 1431.3723,-337.2815 1435.8104,-381.36 1437.9187,-381.36 1440.0227,-381.9001 1442.7303,-381.9001 1446.1813,-405.4609 1449.3409,-385.6466 1452.9468,-386.5223 1457.7816,-385.3277 1462.3066,-382.0127 1460.7283,-379.9117 1457.8778,-377.8553 1453.7078,-376.8326 1453.7078,-376.8326 1457.8778,-377.8553 1460.7283,-379.9117 1466.1703,-352.8522 1466.9949,-381.5619 1472.2993,-381.5619 1467.4268,-338.2746 1469.1515,-251.7911 1456.396,-237.1965 1452.093,-232.5949 1443.9064,-222.9345 1426.4877,-201.0627 1424.5283,-198.4638 1425.2794,-194.9429 1421.458,-186.6835 1394.3745,-121.4329 1368.0415,-55.037 1363.5299,-44.5543 1354.6913,-24.7868 1253.1185,-13.5414 1246.2024,-12.6691 1234.3993,-10.8161 1232.4512,-10.4804 1223.5239,-14.1192 1219.6512,-15.4947 1217.3287,-115.7846 1213.7905,-163.7054 1218.6815,-164.9418 1222.9171,-168.1098 1223.2653,-168.5451 1227.4697,-168.5451 1227.5352,-168.5613 1231.302,-168.5613 1233.3073,-201.6448 1231.6896,-253.2541 1244.5364,-253.1526 1245.7574,-253.1788 1245.1726,-283.0402 1246.7817,-335.4425 1251.0873,-331.1633 1266.9957,-331.0094 1301.194,-324.5887 1293.0763,-334.9847 1293.9187,-352.4046 1292.343,-377.5591 1287.6486,-379.9304 1285.5219,-382.016 1286.8386,-383.2812 1286.8386,-383.2812 1285.5219,-382.016 1287.6486,-379.9304 1292.343,-377.5591 1293.9187,-352.4046 1293.0763,-334.9847 1301.194,-324.5887 1266.9957,-331.0094 1251.0873,-331.1633 1246.7817,-335.4425 1245.1726,-283.0402 1245.7574,-253.1788 1244.5364,-253.1526 1231.6896,-253.2541 1233.3073,-201.6448 1231.302,-168.5613 1227.5352,-168.5613 1227.4697,-168.5451 1223.2653,-168.5451 1222.9171,-168.1098 1218.6815,-164.9418 1213.7905,-163.7054 1210.2582,-164.5662 1205.2225,-168.4759 1210.4487,-172.5092 1214.0938,-173.3758 1214.2064,-253.1415 1209.8412,-253.2812 1214.8065,-335.2486 1212.1019,-337.977 1213.5139,-339.3747 1219.4785,-342.511 1223.1898,-342.511 1223.1898,-342.511 1219.4785,-342.511 1213.5139,-339.3747 1212.1019,-337.977 1210.0457,-337.977 1209.9701,-337.958 1208.8121,-271.7531 1204.6512,-337.6277 1200.3451,-337.6277 1199.7561,-337.776 1198.9739,-337.776 1198.6226,-338.1076 1198.6226,-338.1076 1198.9739,-337.776 1199.7561,-337.776 1200.3451,-337.6277 1204.6512,-337.6277 1208.8121,-271.7531 1209.9701,-337.958 1210.0457,-337.977 1212.1019,-337.977 1214.8065,-335.2486 1209.8412,-253.2812 1209.234,-253.2821 1208.2633,-253.2243 1202.8727,-253.2209 1197.2725,-253.0464 1192.3719,-253.038 1196.3348,-335.0035 1196.3348,-335.0035 1192.3719,-253.038 1197.2725,-253.0464 1202.8727,-253.2209 1208.2633,-253.2243 1209.234,-253.2821 1209.8412,-253.2812 1214.2064,-253.1415 1214.0938,-173.3758 1210.4487,-172.5092 1205.2225,-168.4759 1210.2582,-164.5662 1213.7905,-163.7054 1217.3287,-115.7846 1219.6512,-15.4947 1212.2581,-17.867 1198.2633,-21.8778 1198.5291,-137.871 1195.4662,-168.1222 1192.3416,-168.1222 1191.9036,-168.2307 1187.9175,-168.2307 1187.1984,-168.4109 1186.327,-168.4109 1183.646,-170.8042 1183.646,-170.8042 1186.327,-168.4109 1187.1984,-168.4109 1187.9175,-168.2307 1191.9036,-168.2307 1191.9036,-168.2307"/>
<polyline fill="none" stroke="#000000" points="1692.7123,-558.5358 1701.6401,-551.603 1708.3837,-546.1083 1714.3114,-541.394 1721.3575,-535.661 1743.6595,-517.1112 1801.4504,-589.6027 1868.3649,-713.5052 1868.6212,-739.6576 1866.0431,-745.0179 1861.728,-754.7316 1832.8886,-825.5134 1831.6366,-842.6047 1831.1293,-865.9442 1831.0465,-884.2275 1819.0066,-949.2015 1753.796,-1013.2364 1774.2502,-1104.3651 1778.8864,-1123.5292 1779.4297,-1136.4253 1781.9646,-1170.5542 1775.4734,-1180.4714 1717.0096,-1273.0768 1655.1754,-1298.5808 1632.9662,-1302.1538 1626.9517,-1303.3027 1604.7236,-1308.5612 1592.7505,-1312.2981 1590.8397,-1311.9663 1570.3057,-1308.6914 1569.8923,-1308.6315 1470.0317,-1231.3317 1444.5093,-1190.77 1401.3713,-1124.6167 1272.4694,-1179.7499 1237.8551,-1182.1217 1226.5469,-1183.0941 1221.8075,-1183.584 1217.3789,-1184.196 1214.7234,-1184.6559 1213.7075,-1184.8497 1193.7382,-1183.6483 1168.0526,-1182.9874 1063.9644,-1114.8484 1059.4561,-1067.8347 1056.2003,-1038.9653 1049.8287,-995.3352 1046.1838,-972.835 1076.3629,-890.5436 1063.0769,-842.0764 1062.9423,-841.608 1066.4553,-837.4576 1068.4065,-835.2698 1078.476,-824.5571 1087.4347,-815.2885 1097.2214,-806.2913 1223.9203,-678.5496 1240.4956,-678.3212 1249.0184,-678.0546 1250.4672,-678.0882 1255.425,-678.0301 1255.9581,-678.0145 1258.2711,-677.989 1268.5929,-678.2508 1272.354,-678.1485 1280.2883,-678.2217 1283.3059,-678.3595 1289.1443,-678.3192 1291.6829,-678.394 1298.6409,-678.3555 1299.234,-677.7066 1301.4259,-675.395 1303.9946,-672.3694 1309.1888,-666.4834 1317.7787,-657.5034 1333.1172,-642.8071 1346.9998,-631.3881 1351.2368,-627.691 1413.1792,-616.9792 1420.2554,-616.1956 1420.3337,-616.1919 1426.1132,-616.2766 1430.9774,-616.0231 1435.6311,-616.3672 1437.6689,-616.3818 1438.3228,-616.3432 1440.2316,-616.1028 1443.2145,-615.9156 1453.6672,-614.5594 1461.6143,-612.4705 1468.1478,-610.3214 1499.3092,-598.0521 1522.9678,-589.7629 1591.7601,-613.4431 1596.5433,-614.9926 1633.0291,-595.6588 1651.1312,-585.7091 1672.2015,-572.92 1692.7123,-558.5358 "/>
<polyline fill="none" stroke="#000000" points="1611.2565,128.3451 1536.5566,107.8754 1531.9924,104.7836 1521.0878,101.6026 1427.219,76.0101 1413.8899,62.5027 1362.0112,-14.272 1354.6913,-24.7868 1363.5299,-44.5543 1368.0415,-55.037 1394.3745,-121.4329 1421.458,-186.6835 1425.2794,-194.9429 1424.5283,-198.4638 1426.4877,-201.0627 1443.9064,-222.9345 1452.093,-232.5949 1456.396,-237.1965 1469.1515,-251.7911 1476.7666,-259.5689 1483.9022,-266.5689 1493.504,-275.5922 1570.1399,-354.6313 1592.7684,-376.7924 1603.8289,-388.5573 1608.3517,-393.5516 1608.6189,-393.8166 1613.5674,-399.0854 1620.1917,-401.9484 1708.6783,-441.9667 1749.4868,-459.8442 1750.0042,-459.1825 1762.8418,-450.4142 1777.9515,-440.9602 1782.1945,-438.4275 1797.9265,-429.4836 1800.244,-428.1998 1831.6834,-411.6868 1935.8871,-264.8514 1940.1553,-243.5606 1942.3855,-233.308 1943.0437,-230.6929 1978.8767,-170.4052 1981.3944,-166.3182 1972.645,-117.5518 1961.6471,-31.9739 1841.5013,28.0606 1810.1267,68.3228 1767.8562,84.2567 1756.1217,87.2799 1719.2632,111.7145 1649.3304,129.4469 1630.276,134.61 1623.2214,132.0494 1611.2565,128.3451 "/>
<polyline fill="none" stroke="#000000" points="461.8627,-321.6982 475.3168,-318.4703 482.8373,-316.4862 484.7198,-315.9671 489.6607,-314.5455 491.8916,-314.6159 564.6879,-316.1103 570.5104,-308.5157 585.2816,-295.5603 701.183,-191.4866 775.7386,-191.0971 789.1937,-190.7979 808.7127,-189.0334 809.9663,-188.8775 824.5809,-186.8111 848.05,-181.4935 850.0909,-180.9278 859.6559,-178.1136 867.1535,-175.5241 888.0262,-167.5962 888.4186,-167.4406 926.5438,-151.6864 937.7061,-149.7369 978.6416,-147.6582 990.296,-168.45 1038.5839,-265.2861 1038.4253,-272.8305 1038.3546,-284.1843 1075.7756,-337.89 1121.4241,-415.9195 1147.7384,-458.4947 1145.4965,-463.8825 1123.2373,-527.4992 1130.3639,-536.9168 1137.8771,-547.7387 1202.8684,-650.73 1223.9203,-678.5496 1097.2214,-806.2913 1087.4347,-815.2885 1078.476,-824.5571 1068.4065,-835.2698 1066.4553,-837.4576 1062.9423,-841.608 1044.9221,-830.5958 1038.1864,-826.844 984.3975,-798.7926 880.5195,-692.47 771.0963,-721.1887 764.6321,-722.9946 759.5657,-724.5814 759.4827,-724.6102 696.2293,-814.3967 668.4225,-829.0057 617.98,-829.1089 607.4548,-829.2997 604.8731,-829.3881 604.1169,-829.4382 595.4276,-830.2958 582.6913,-826.5466 578.4738,-825.4541 562.9575,-821.9777 552.0533,-820.1101 545.3007,-819.1907 423.3911,-783.2507 405.8,-725.8724 393.2318,-687.0726 298.9803,-627.3275 258.1297,-627.8799 251.6913,-628.0684 243.4359,-628.5701 241.0167,-628.7551 234.267,-629.4847 218.4274,-631.4471 211.8748,-632.4644 195.3535,-636.0723 175.8127,-641.2651 157.2354,-647.367 70.0656,-593.9291 41.9985,-560.0265 40.1978,-559.3109 32.9574,-556.5627 -72.6726,-520.2486 -131.7937,-451.2585 -134.8249,-437.8821 -141.5851,-409.8139 -135.9175,-400.501 -127.9845,-390.6228 -56.7404,-293.806 -5.1311,-253.1588 31.8106,-254.8529 50.0456,-255.082 55.751,-254.9635 58.7983,-254.7987 58.9086,-254.7909 66.9452,-254.0877 74.1399,-254.634 77.0446,-255.1458 88.0835,-256.526 94.266,-257.1934 128.8349,-259.7466 216.0668,-301.9915 226.8844,-310.9215 232.3841,-312.0122 235.4405,-312.5246 245.7944,-313.9445 255.4783,-315.1244 368.497,-323.7101 389.728,-331.6445 399.9628,-330.6621 420.2101,-328.4737 434.3696,-326.7733 442.9106,-325.3383 461.8627,-321.6982 "/>
<polyline fill="none" stroke="#000000" points="1289.1443,-678.3192 1291.6829,-678.394 1298.6409,-678.3555 1299.234,-677.7066 1301.4259,-675.395 1303.9946,-672.3694 1309.1888,-666.4834 1317.7787,-657.5034 1333.1172,-642.8071 1346.9998,-631.3881 1351.2368,-627.691 1413.1792,-616.9792 1420.2554,-616.1956 1420.3337,-616.1919 1426.1132,-616.2766 1430.9774,-616.0231 1435.6311,-616.3672 1437.6689,-616.3818 1438.3228,-616.3432 1440.2316,-616.1028 1443.2145,-615.9156 1453.6672,-614.5594 1461.6143,-612.4705 1468.1478,-610.3214 1499.3092,-598.0521 1522.9678,-589.7629 1591.7601,-613.4431 1596.5433,-614.9926 1633.0291,-595.6588 1651.1312,-585.7091 1672.2015,-572.92 1692.7123,-558.5358 1701.6401,-551.603 1708.3837,-546.1083 1714.3114,-541.394 1721.3575,-535.661 1743.6595,-517.1112 1744.9573,-502.1777 1749.4868,-459.8442 1708.6783,-441.9667 1620.1917,-401.9484 1613.5674,-399.0854 1608.6189,-393.8166 1608.3517,-393.5516 1603.8289,-388.5573 1592.7684,-376.7924 1570.1399,-354.6313 1493.504,-275.5922 1483.9022,-266.5689 1476.7666,-259.5689 1469.1515,-251.7911 1456.396,-237.1965 1452.093,-232.5949 1443.9064,-222.9345 1426.4877,-201.0627 1424.5283,-198.4638 1425.2794,-194.9429 1421.458,-186.6835 1394.3745,-121.4329 1368.0415,-55.037 1363.5299,-44.5543 1354.6913,-24.7868 1253.1185,-13.5414 1246.2024,-12.6691 1234.3993,-10.8161 1232.4512,-10.4804 1223.5239,-14.1192 1219.6512,-15.4947 1212.2581,-17.867 1198.2633,-21.8778 1185.6836,-25.0471 1182.2137,-25.8605 1179.4709,-26.4081 1134.9888,-34.5208 1098.5483,-52.1152 988.6257,-130.2091 978.6416,-147.6582 990.296,-168.45 1038.5839,-265.2861 1038.4253,-272.8305 1038.3546,-284.1843 1075.7756,-337.89 1121.4241,-415.9195 1147.7384,-458.4947 1145.4965,-463.8825 1123.2373,-527.4992 1130.3639,-536.9168 1137.8771,-547.7387 1202.8684,-650.73 1223.9203,-678.5496 1240.4956,-678.3212 1249.0184,-678.0546 1250.4672,-678.0882 1255.425,-678.0301 1255.9581,-678.0145 1258.2711,-677.989 1268.5929,-678.2508 1272.354,-678.1485 1280.2883,-678.2217 1283.3059,-678.3595 1289.1443,-678.3192 "/>
<!-- boost&#45;atomic&#45;&gt;libgcc -->
<g id="edge1" class="edge">
<title>boost&#45;atomic&#45;&gt;libgcc</title>
<path fill="none" stroke="#444444" stroke-opacity="0.333333" d="M1632.1274,-731.7907C1593.4965,-717.0706 1539.0215,-696.3131 1499.0563,-681.0845"/>
<polygon fill="#444444" fill-opacity="0.333333" stroke="#444444" stroke-opacity="0.333333" points="1500.0744,-677.727 1489.4836,-677.4368 1497.5819,-684.2682 1500.0744,-677.727"/>
</g>
<!-- libgcc&#45;&gt;libgcc -->
<g id="edge2" class="edge">
<title>libgcc&#45;&gt;libgcc</title>
<path fill="none" stroke="#444444" stroke-opacity="0.333333" d="M1489.4361,-667.6509C1499.7545,-667.1327 1507.4,-664.9223 1507.4,-661.02 1507.4,-658.581 1504.4135,-656.803 1499.6545,-655.686"/>
<polygon fill="#444444" fill-opacity="0.333333" stroke="#444444" stroke-opacity="0.333333" points="1499.7972,-652.1761 1489.4361,-654.3891 1498.9158,-659.1204 1499.7972,-652.1761"/>
</g>
<!-- boost&#45;chrono&#45;&gt;libgcc -->
<g id="edge3" class="edge">
<title>boost&#45;chrono&#45;&gt;libgcc</title>
<path fill="none" stroke="#444444" stroke-opacity="0.333333" d="M1418.2849,-883.4064C1423.5336,-841.8901 1436.4849,-739.4469 1442.8091,-689.4233"/>
<polygon fill="#444444" fill-opacity="0.333333" stroke="#444444" stroke-opacity="0.333333" points="1446.3066,-689.6634 1444.0885,-679.3033 1439.3618,-688.7853 1446.3066,-689.6634"/>
</g>
<!-- boost&#45;chrono&#45;&gt;boost&#45;system -->
<g id="edge4" class="edge">
<title>boost&#45;chrono&#45;&gt;boost&#45;system</title>
<path fill="none" stroke="#444444" stroke-opacity="0.333333" d="M1434.2538,-883.4334C1440.5796,-877.1794 1447.7942,-870.0468 1454.6056,-863.3127"/>
<polygon fill="#444444" fill-opacity="0.333333" stroke="#444444" stroke-opacity="0.333333" points="1457.1266,-865.742 1461.7773,-856.2224 1452.2052,-860.7641 1457.1266,-865.742"/>
</g>
<!-- boost&#45;system&#45;&gt;libgcc -->
<g id="edge5" class="edge">
<title>boost&#45;system&#45;&gt;libgcc</title>
<path fill="none" stroke="#444444" stroke-opacity="0.333333" d="M1476.7998,-819.6459C1470.872,-788.7146 1458.8189,-725.822 1451.8014,-689.2044"/>
<polygon fill="#444444" fill-opacity="0.333333" stroke="#444444" stroke-opacity="0.333333" points="1455.2009,-688.3472 1449.8812,-679.1847 1448.326,-689.6648 1455.2009,-688.3472"/>
</g>
<!-- boost&#45;date&#45;time&#45;&gt;libgcc -->
<g id="edge6" class="edge">
<title>boost&#45;date&#45;time&#45;&gt;libgcc</title>
<path fill="none" stroke="#444444" stroke-opacity="0.333333" d="M1634.3481,-830.1372C1596.7629,-796.3177 1516.436,-724.0389 1473.9932,-685.8486"/>
<polygon fill="#444444" fill-opacity="0.333333" stroke="#444444" stroke-opacity="0.333333" points="1476.3027,-683.2183 1466.5279,-679.1312 1471.6204,-688.4219 1476.3027,-683.2183"/>
</g>
<!-- boost&#45;thread&#45;&gt;libgcc -->
<g id="edge7" class="edge">
<title>boost&#45;thread&#45;&gt;libgcc</title>
<path fill="none" stroke="#444444" stroke-opacity="0.333333" d="M1550.3113,-775.7022C1529.5332,-752.7703 1493.6818,-713.2027 1470.0034,-687.07"/>
<polygon fill="#444444" fill-opacity="0.333333" stroke="#444444" stroke-opacity="0.333333" points="1472.3841,-684.4848 1463.0759,-679.4244 1467.1967,-689.185 1472.3841,-684.4848"/>
</g>
<!-- boost&#45;thread&#45;&gt;boost&#45;system -->
<g id="edge8" class="edge">
<title>boost&#45;thread&#45;&gt;boost&#45;system</title>
<path fill="none" stroke="#444444" stroke-opacity="0.333333" d="M1531.3676,-811.9275C1529.2826,-812.9883 1527.1726,-814.0619 1525.0577,-815.1379"/>
<polygon fill="#444444" fill-opacity="0.333333" stroke="#444444" stroke-opacity="0.333333" points="1523.1429,-812.1851 1515.8173,-819.8393 1526.3172,-818.424 1523.1429,-812.1851"/>
</g>
<!-- cpp&#45;&gt;libmpc -->
<g id="edge9" class="edge">
<title>cpp&#45;&gt;libmpc</title>
<path fill="none" stroke="#444444" stroke-opacity="0.333333" d="M1596.3544,-26.5315C1596.2008,-26.5796 1596.047,-26.6277 1595.8929,-26.676"/>
<polygon fill="#444444" fill-opacity="0.333333" stroke="#444444" stroke-opacity="0.333333" points="1597.3194,-22.5616 1588.8222,-28.8901 1599.4112,-29.2418 1597.3194,-22.5616"/>
</g>
<!-- curl&#45;minimal&#45;&gt;libcurl&#45;minimal -->
<g id="edge10" class="edge">
<title>curl&#45;minimal&#45;&gt;libcurl&#45;minimal</title>
<path fill="none" stroke="#444444" stroke-opacity="0.333333" d="M377.2506,-508.9076C355.7764,-504.3414 332.1209,-499.3113 309.6638,-494.536"/>
<polygon fill="#444444" fill-opacity="0.333333" stroke="#444444" stroke-opacity="0.333333" points="310.2931,-491.0916 299.7838,-492.4351 308.8371,-497.9386 310.2931,-491.0916"/>
</g>
<!-- libcurl&#45;minimal&#45;&gt;libnghttp2 -->
<g id="edge11" class="edge">
<title>libcurl&#45;minimal&#45;&gt;libnghttp2</title>
<path fill="none" stroke="#444444" stroke-opacity="0.333333" d="M177.2067,-456.3221C157.1931,-446.7142 132.3888,-434.8064 111.135,-424.603"/>
<polygon fill="#444444" fill-opacity="0.333333" stroke="#444444" stroke-opacity="0.333333" points="112.4894,-421.3709 101.9597,-420.1982 109.4599,-427.6813 112.4894,-421.3709"/>
</g>
<!-- dyninst&#45;&gt;boost&#45;atomic -->
<g id="edge12" class="edge">
<title>dyninst&#45;&gt;boost&#45;atomic</title>
<path fill="none" stroke="#444444" stroke-opacity="0.333333" d="M1563.962,-882.0239C1587.1635,-855.5106 1630.4709,-806.0216 1656.9984,-775.7076"/>
<polygon fill="#444444" fill-opacity="0.333333" stroke="#444444" stroke-opacity="0.333333" points="1659.7302,-777.9007 1663.6818,-768.0704 1654.4624,-773.2909 1659.7302,-777.9007"/>
</g>
<!-- dyninst&#45;&gt;libgcc -->
<g id="edge13" class="edge">
<title>dyninst&#45;&gt;libgcc</title>
<path fill="none" stroke="#444444" stroke-opacity="0.333333" d="M1540.2886,-881.7829C1522.5347,-840.0377 1479.0699,-737.8377 1458.0974,-688.5243"/>
<polygon fill="#444444" fill-opacity="0.333333" stroke="#444444" stroke-opacity="0.333333" points="1461.2333,-686.9549 1454.0988,-679.1223 1454.7917,-689.6945 1461.2333,-686.9549"/>
</g>
<!-- dyninst&#45;&gt;boost&#45;chrono -->
<g id="edge14" class="edge">
<title>dyninst&#45;&gt;boost&#45;chrono</title>
<path fill="none" stroke="#444444" stroke-opacity="0.333333" d="M1500.0352,-900.6339C1499.9476,-900.6348 1499.8599,-900.6357 1499.7722,-900.6366"/>
<polygon fill="#444444" fill-opacity="0.333333" stroke="#444444" stroke-opacity="0.333333" points="1501.4715,-897.1192 1491.5073,-900.7198 1501.5421,-904.1188 1501.4715,-897.1192"/>
</g>
<!-- dyninst&#45;&gt;boost&#45;system -->
<g id="edge15" class="edge">
<title>dyninst&#45;&gt;boost&#45;system</title>
<path fill="none" stroke="#444444" stroke-opacity="0.333333" d="M1528.4894,-882.1476C1521.9411,-876.1363 1514.522,-869.3256 1507.5021,-862.8813"/>
<polygon fill="#444444" fill-opacity="0.333333" stroke="#444444" stroke-opacity="0.333333" points="1509.835,-860.2718 1500.1014,-856.0876 1505.1012,-865.4285 1509.835,-860.2718"/>
</g>
<!-- dyninst&#45;&gt;boost&#45;date&#45;time -->
<g id="edge16" class="edge">
<title>dyninst&#45;&gt;boost&#45;date&#45;time</title>
<path fill="none" stroke="#444444" stroke-opacity="0.333333" d="M1585.3835,-882.0678C1592.7252,-878.5072 1600.5139,-874.7297 1608.1173,-871.0422"/>
<polygon fill="#444444" fill-opacity="0.333333" stroke="#444444" stroke-opacity="0.333333" points="1609.787,-874.1223 1617.2574,-866.6093 1606.7324,-867.824 1609.787,-874.1223"/>
</g>
<!-- dyninst&#45;&gt;boost&#45;thread -->
<g id="edge17" class="edge">
<title>dyninst&#45;&gt;boost&#45;thread</title>
<path fill="none" stroke="#444444" stroke-opacity="0.333333" d="M1551.2722,-882.1261C1554.1736,-865.6409 1558.5116,-840.9934 1561.8655,-821.9368"/>
<polygon fill="#444444" fill-opacity="0.333333" stroke="#444444" stroke-opacity="0.333333" points="1565.3258,-822.4676 1563.6122,-812.0123 1558.4318,-821.2542 1565.3258,-822.4676"/>
</g>
<!-- dyninst&#45;&gt;libdwarf -->
<g id="edge18" class="edge">
<title>dyninst&#45;&gt;libdwarf</title>
<path fill="none" stroke="#444444" stroke-opacity="0.333333" d="M1552.9312,-918.5263C1563.8888,-960.2053 1590.6819,-1062.1171 1603.6839,-1111.5722"/>
<polygon fill="#444444" fill-opacity="0.333333" stroke="#444444" stroke-opacity="0.333333" points="1600.3107,-1112.5072 1606.2384,-1121.2886 1607.0807,-1110.7273 1600.3107,-1112.5072"/>
</g>
<!-- gcc&#45;&gt;libgcc -->
<g id="edge19" class="edge">
<title>gcc&#45;&gt;libgcc</title>
<path fill="none" stroke="#444444" stroke-opacity="0.333333" d="M1597.2086,-276.8257C1572.1115,-340.7622 1487.3911,-556.5925 1457.1985,-633.5101"/>
<polygon fill="#444444" fill-opacity="0.333333" stroke="#444444" stroke-opacity="0.333333" points="1453.8678,-632.4166 1453.4718,-643.004 1460.3838,-634.9744 1453.8678,-632.4166"/>
</g>
<!-- gcc&#45;&gt;cpp -->
<g id="edge20" class="edge">
<title>gcc&#45;&gt;cpp</title>
<path fill="none" stroke="#444444" stroke-opacity="0.333333" d="M1605.7506,-240.6639C1609.0829,-199.0957 1617.3052,-96.5248 1621.3203,-46.4388"/>
<polygon fill="#444444" fill-opacity="0.333333" stroke="#444444" stroke-opacity="0.333333" points="1624.8222,-46.5539 1622.1325,-36.3061 1617.8446,-45.9944 1624.8222,-46.5539"/>
</g>
<!-- gcc&#45;&gt;libmpc -->
<g id="edge21" class="edge">
<title>gcc&#45;&gt;libmpc</title>
<path fill="none" stroke="#444444" stroke-opacity="0.333333" d="M1599.4046,-240.6848C1589.1712,-202.9002 1565.4555,-115.3356 1553.2529,-70.2802"/>
<polygon fill="#444444" fill-opacity="0.333333" stroke="#444444" stroke-opacity="0.333333" points="1556.6152,-69.3062 1550.6227,-60.5689 1549.8587,-71.1361 1556.6152,-69.3062"/>
</g>
<!-- gcc&#45;&gt;binutils -->
<g id="edge22" class="edge">
<title>gcc&#45;&gt;binutils</title>
<path fill="none" stroke="#444444" stroke-opacity="0.333333" d="M1631.3796,-252.1699C1652.755,-246.968 1683.465,-239.4945 1711.0226,-232.7881"/>
<polygon fill="#444444" fill-opacity="0.333333" stroke="#444444" stroke-opacity="0.333333" points="1712.1209,-236.1231 1721.0097,-230.3577 1710.4657,-229.3216 1712.1209,-236.1231"/>
</g>
<!-- gcc&#45;&gt;isl -->
<g id="edge23" class="edge">
<title>gcc&#45;&gt;isl</title>
<path fill="none" stroke="#444444" stroke-opacity="0.333333" d="M1614.3007,-240.7549C1632.6322,-207.7511 1671.7174,-137.3828 1693.3702,-98.3995"/>
<polygon fill="#444444" fill-opacity="0.333333" stroke="#444444" stroke-opacity="0.333333" points="1696.6803,-99.6481 1698.4763,-89.2065 1690.5609,-96.2491 1696.6803,-99.6481"/>
</g>
<!-- gcc&#45;&gt;libgomp -->
<g id="edge24" class="edge">
<title>gcc&#45;&gt;libgomp</title>
<path fill="none" stroke="#444444" stroke-opacity="0.333333" d="M1631.5054,-241.9792C1668.0455,-219.4406 1733.1527,-179.2812 1774.4836,-153.7876"/>
<polygon fill="#444444" fill-opacity="0.333333" stroke="#444444" stroke-opacity="0.333333" points="1776.5032,-156.6542 1783.1769,-148.4254 1772.8283,-150.6964 1776.5032,-156.6542"/>
</g>
<!-- libarchive&#45;&gt;libgcc -->
<g id="edge25" class="edge">
<title>libarchive&#45;&gt;libgcc</title>
<path fill="none" stroke="#444444" stroke-opacity="0.333333" d="M1129.6163,-652.4756C1203.8255,-654.4772 1324.0995,-657.7213 1393.1287,-659.5831"/>
<polygon fill="#444444" fill-opacity="0.333333" stroke="#444444" stroke-opacity="0.333333" points="1393.2504,-663.0876 1403.3411,-659.8586 1393.4392,-656.0901 1393.2504,-663.0876"/>
</g>
<!-- rpm&#45;&gt;curl&#45;minimal -->
<g id="edge26" class="edge">
<title>rpm&#45;&gt;curl&#45;minimal</title>
<path fill="none" stroke="#444444" stroke-opacity="0.333333" d="M733.9947,-565.4896C690.7612,-559.2615 604.3249,-546.8096 538.6598,-537.3501"/>
<polygon fill="#444444" fill-opacity="0.333333" stroke="#444444" stroke-opacity="0.333333" points="539.1169,-533.8799 528.72,-535.9181 538.1187,-540.8083 539.1169,-533.8799"/>
</g>
<!-- rpm&#45;&gt;libarchive -->
<g id="edge27" class="edge">
<title>rpm&#45;&gt;libarchive</title>
<path fill="none" stroke="#444444" stroke-opacity="0.333333" d="M788.3003,-576.68C833.3267,-588.7343 924.8134,-613.2267 990.2437,-630.7433"/>
<polygon fill="#444444" fill-opacity="0.333333" stroke="#444444" stroke-opacity="0.333333" points="989.5394,-634.178 1000.1044,-633.3832 991.3497,-627.4161 989.5394,-634.178"/>
</g>
<!-- rpm&#45;&gt;libdb&#45;utils -->
<g id="edge28" class="edge">
<title>rpm&#45;&gt;libdb&#45;utils</title>
<path fill="none" stroke="#444444" stroke-opacity="0.333333" d="M733.7708,-585.8049C704.0053,-603.7029 656.1346,-632.4875 622.5164,-652.702"/>
<polygon fill="#444444" fill-opacity="0.333333" stroke="#444444" stroke-opacity="0.333333" points="620.6349,-649.7493 613.8685,-657.902 624.2421,-655.7483 620.6349,-649.7493"/>
</g>
<!-- rpm&#45;&gt;rpm&#45;libs -->
<g id="edge29" class="edge">
<title>rpm&#45;&gt;rpm&#45;libs</title>
<path fill="none" stroke="#444444" stroke-opacity="0.333333" d="M788.2347,-560.736C831.9543,-542.3116 917.8046,-499.9144 966.0661,-473.1603"/>
<polygon fill="#444444" fill-opacity="0.333333" stroke="#444444" stroke-opacity="0.333333" points="967.9037,-476.1426 974.9076,-468.193 964.475,-470.0397 967.9037,-476.1426"/>
</g>
<!-- rpm&#45;&gt;lua&#45;libs -->
<g id="edge30" class="edge">
<title>rpm&#45;&gt;lua&#45;libs</title>
<path fill="none" stroke="#444444" stroke-opacity="0.333333" d="M766.8765,-551.2209C773.8888,-529.2791 785.7577,-492.1405 793.9285,-466.5735"/>
<polygon fill="#444444" fill-opacity="0.333333" stroke="#444444" stroke-opacity="0.333333" points="797.3624,-467.3257 797.0728,-456.7348 790.6947,-465.1947 797.3624,-467.3257"/>
</g>
<!-- rpm&#45;libs&#45;&gt;rpm -->
<g id="edge31" class="edge">
<title>rpm&#45;libs&#45;&gt;rpm</title>
<path fill="none" stroke="#444444" stroke-opacity="0.333333" d="M952.3909,-468.2206C905.973,-489.2216 837.258,-523.5214 796.0352,-546.3778"/>
<polygon fill="#444444" fill-opacity="0.333333" stroke="#444444" stroke-opacity="0.333333" points="794.1785,-543.4063 787.1754,-551.3566 797.6079,-549.5087 794.1785,-543.4063"/>
</g>
<!-- rpm&#45;libs&#45;&gt;lua&#45;libs -->
<g id="edge32" class="edge">
<title>rpm&#45;libs&#45;&gt;lua&#45;libs</title>
<path fill="none" stroke="#444444" stroke-opacity="0.333333" d="M946.9219,-446.9976C922.2241,-445.5788 892.8034,-443.8887 867.0052,-442.4067"/>
<polygon fill="#444444" fill-opacity="0.333333" stroke="#444444" stroke-opacity="0.333333" points="867.1269,-438.908 856.9426,-441.8286 866.7254,-445.8965 867.1269,-438.908"/>
</g>
<!-- rpm&#45;libs&#45;&gt;rpm&#45;plugin&#45;selinux -->
<g id="edge33" class="edge">
<title>rpm&#45;libs&#45;&gt;rpm&#45;plugin&#45;selinux</title>
<path fill="none" stroke="#444444" stroke-opacity="0.333333" d="M983.3193,-432.0498C957.9385,-411.3645 910.6822,-377.7275 875.6583,-355.0438"/>
<polygon fill="#444444" fill-opacity="0.333333" stroke="#444444" stroke-opacity="0.333333" points="877.3477,-351.9696 867.0382,-349.5273 873.5744,-357.8657 877.3477,-351.9696"/>
</g>
<!-- rpm&#45;plugin&#45;selinux&#45;&gt;rpm&#45;libs -->
<g id="edge34" class="edge">
<title>rpm&#45;plugin&#45;selinux&#45;&gt;rpm&#45;libs</title>
<path fill="none" stroke="#444444" stroke-opacity="0.333333" d="M849.6607,-349.5702C875.0415,-370.2555 922.2978,-403.8925 957.3217,-426.5762"/>
<polygon fill="#444444" fill-opacity="0.333333" stroke="#444444" stroke-opacity="0.333333" points="955.6323,-429.6504 965.9418,-432.0927 959.4056,-423.7543 955.6323,-429.6504"/>
</g>
<!-- rpm&#45;plugin&#45;selinux&#45;&gt;lua&#45;libs -->
<g id="edge35" class="edge">
<title>rpm&#45;plugin&#45;selinux&#45;&gt;lua&#45;libs</title>
<path fill="none" stroke="#444444" stroke-opacity="0.333333" d="M826.9521,-349.6967C822.4239,-366.4079 815.6435,-391.4315 810.4233,-410.6966"/>
<polygon fill="#444444" fill-opacity="0.333333" stroke="#444444" stroke-opacity="0.333333" points="807.0193,-409.8767 807.7821,-420.4441 813.7757,-411.7075 807.0193,-409.8767"/>
</g>
<!-- systemtap&#45;client&#45;&gt;libgcc -->
<g id="edge36" class="edge">
<title>systemtap&#45;client&#45;&gt;libgcc</title>
<path fill="none" stroke="#444444" stroke-opacity="0.333333" d="M1312.6512,-560.3819C1339.7445,-580.768 1384.0049,-614.0714 1414.128,-636.7372"/>
<polygon fill="#444444" fill-opacity="0.333333" stroke="#444444" stroke-opacity="0.333333" points="1412.1283,-639.6127 1422.2234,-642.8285 1416.3371,-634.0193 1412.1283,-639.6127"/>
</g>
<!-- systemtap&#45;client&#45;&gt;rpm&#45;libs -->
<g id="edge37" class="edge">
<title>systemtap&#45;client&#45;&gt;rpm&#45;libs</title>
<path fill="none" stroke="#444444" stroke-opacity="0.333333" d="M1232.5651,-524.3543C1184.4435,-508.9189 1115.1419,-486.6898 1064.9227,-470.5816"/>
<polygon fill="#444444" fill-opacity="0.333333" stroke="#444444" stroke-opacity="0.333333" points="1065.7364,-467.1671 1055.1452,-467.4454 1063.5984,-473.8326 1065.7364,-467.1671"/>
</g>
<!-- systemtap&#45;client&#45;&gt;avahi&#45;libs -->
<g id="edge38" class="edge">
<title>systemtap&#45;client&#45;&gt;avahi&#45;libs</title>
<path fill="none" stroke="#444444" stroke-opacity="0.333333" d="M1282.7187,-524.2147C1270.9027,-488.3686 1244.4994,-408.2697 1230.4706,-365.7105"/>
<polygon fill="#444444" fill-opacity="0.333333" stroke="#444444" stroke-opacity="0.333333" points="1233.7227,-364.3963 1227.2679,-355.9947 1227.0745,-366.5878 1233.7227,-364.3963"/>
</g>
<!-- systemtap&#45;client&#45;&gt;systemtap&#45;runtime -->
<g id="edge39" class="edge">
<title>systemtap&#45;client&#45;&gt;systemtap&#45;runtime</title>
<path fill="none" stroke="#444444" stroke-opacity="0.333333" d="M1289.1097,-560.621C1290.1515,-607.0545 1292.9078,-729.9031 1294.1622,-785.8118"/>
<polygon fill="#444444" fill-opacity="0.333333" stroke="#444444" stroke-opacity="0.333333" points="1290.6686,-786.1396 1294.3921,-796.0585 1297.6668,-785.9825 1290.6686,-786.1396"/>
</g>
<!-- systemtap&#45;client&#45;&gt;unzip -->
<g id="edge40" class="edge">
<title>systemtap&#45;client&#45;&gt;unzip</title>
<path fill="none" stroke="#444444" stroke-opacity="0.333333" d="M1373.6309,-524.3521C1400.1443,-518.7304 1428.4401,-512.7309 1451.4277,-507.8568"/>
<polygon fill="#444444" fill-opacity="0.333333" stroke="#444444" stroke-opacity="0.333333" points="1452.2047,-511.2699 1461.2613,-505.7718 1450.7528,-504.4221 1452.2047,-511.2699"/>
</g>
<!-- systemtap&#45;client&#45;&gt;zip -->
<g id="edge41" class="edge">
<title>systemtap&#45;client&#45;&gt;zip</title>
<path fill="none" stroke="#444444" stroke-opacity="0.333333" d="M1375.2646,-560.4295C1380.0238,-561.4229 1384.6595,-562.3906 1389.0711,-563.3115"/>
<polygon fill="#444444" fill-opacity="0.333333" stroke="#444444" stroke-opacity="0.333333" points="1388.4069,-566.7482 1398.9111,-565.3655 1389.8373,-559.8959 1388.4069,-566.7482"/>
</g>
<!-- systemtap&#45;runtime&#45;&gt;libgcc -->
<g id="edge42" class="edge">
<title>systemtap&#45;runtime&#45;&gt;libgcc</title>
<path fill="none" stroke="#444444" stroke-opacity="0.333333" d="M1312.7858,-796.062C1339.6832,-768.8772 1390.4924,-717.525 1421.1142,-686.576"/>
<polygon fill="#444444" fill-opacity="0.333333" stroke="#444444" stroke-opacity="0.333333" points="1423.8922,-688.7446 1428.4376,-679.1744 1418.9162,-683.8213 1423.8922,-688.7446"/>
</g>
<!-- systemtap&#45;runtime&#45;&gt;dyninst -->
<g id="edge43" class="edge">
<title>systemtap&#45;runtime&#45;&gt;dyninst</title>
<path fill="none" stroke="#444444" stroke-opacity="0.333333" d="M1347.9,-832.2496C1389.4871,-846.3544 1447.2656,-865.9507 1490.0671,-880.4674"/>
<polygon fill="#444444" fill-opacity="0.333333" stroke="#444444" stroke-opacity="0.333333" points="1489.1874,-883.8648 1499.7818,-883.7622 1491.4358,-877.2357 1489.1874,-883.8648"/>
</g>
<!-- systemtap&#45;runtime&#45;&gt;json&#45;c -->
<g id="edge44" class="edge">
<title>systemtap&#45;runtime&#45;&gt;json&#45;c</title>
<path fill="none" stroke="#444444" stroke-opacity="0.333333" d="M1288.3596,-832.3712C1274.6055,-871.0926 1242.2873,-962.0763 1225.9392,-1008.1002"/>
<polygon fill="#444444" fill-opacity="0.333333" stroke="#444444" stroke-opacity="0.333333" points="1222.5681,-1007.1343 1222.519,-1017.729 1229.1643,-1009.4774 1222.5681,-1007.1343"/>
</g>
<!-- zip&#45;&gt;libgcc -->
<g id="edge45" class="edge">
<title>zip&#45;&gt;libgcc</title>
<path fill="none" stroke="#444444" stroke-opacity="0.333333" d="M1430.1282,-589.2328C1432.9763,-601.7977 1436.8173,-618.7434 1440.0523,-633.0154"/>
<polygon fill="#444444" fill-opacity="0.333333" stroke="#444444" stroke-opacity="0.333333" points="1436.6538,-633.8554 1442.2779,-642.8342 1443.4806,-632.3079 1436.6538,-633.8554"/>
</g>
<!-- zip&#45;&gt;unzip -->
<g id="edge46" class="edge">
<title>zip&#45;&gt;unzip</title>
<path fill="none" stroke="#444444" stroke-opacity="0.333333" d="M1444.0449,-552.9133C1452.9946,-543.933 1463.953,-532.937 1473.7231,-523.1335"/>
<polygon fill="#444444" fill-opacity="0.333333" stroke="#444444" stroke-opacity="0.333333" points="1476.3298,-525.4761 1480.9096,-515.9223 1471.3715,-520.5348 1476.3298,-525.4761"/>
</g>
<!-- systemtap&#45;devel&#45;&gt;libgcc -->
<g id="edge47" class="edge">
<title>systemtap&#45;devel&#45;&gt;libgcc</title>
<path fill="none" stroke="#444444" stroke-opacity="0.333333" d="M1304.8403,-400.2325C1330.8522,-448.1528 1401.0289,-577.4354 1431.7083,-633.9542"/>
<polygon fill="#444444" fill-opacity="0.333333" stroke="#444444" stroke-opacity="0.333333" points="1428.7733,-635.8839 1436.62,-643.0029 1434.9254,-632.5444 1428.7733,-635.8839"/>
</g>
<!-- systemtap&#45;devel&#45;&gt;gcc -->
<g id="edge48" class="edge">
<title>systemtap&#45;devel&#45;&gt;gcc</title>
<path fill="none" stroke="#444444" stroke-opacity="0.333333" d="M1340.2208,-363.8796C1401.8159,-339.361 1510.7754,-295.9885 1567.5624,-273.3838"/>
<polygon fill="#444444" fill-opacity="0.333333" stroke="#444444" stroke-opacity="0.333333" points="1569.2088,-276.4956 1577.2054,-269.5453 1566.6199,-269.9919 1569.2088,-276.4956"/>
</g>
<!-- systemtap&#45;devel&#45;&gt;rpm&#45;libs -->
<g id="edge49" class="edge">
<title>systemtap&#45;devel&#45;&gt;rpm&#45;libs</title>
<path fill="none" stroke="#444444" stroke-opacity="0.333333" d="M1217.3232,-399.9253C1169.9068,-410.9305 1109.9873,-424.8376 1065.257,-435.2194"/>
<polygon fill="#444444" fill-opacity="0.333333" stroke="#444444" stroke-opacity="0.333333" points="1064.3305,-431.8413 1055.3807,-437.5116 1065.9131,-438.6601 1064.3305,-431.8413"/>
</g>
<!-- systemtap&#45;devel&#45;&gt;avahi&#45;libs -->
<g id="edge50" class="edge">
<title>systemtap&#45;devel&#45;&gt;avahi&#45;libs</title>
<path fill="none" stroke="#444444" stroke-opacity="0.333333" d="M1264.5391,-363.7571C1263.2027,-362.9576 1261.8546,-362.1511 1260.5022,-361.342"/>
<polygon fill="#444444" fill-opacity="0.333333" stroke="#444444" stroke-opacity="0.333333" points="1261.9696,-358.1414 1251.5911,-356.0112 1258.3759,-364.1486 1261.9696,-358.1414"/>
</g>
<!-- systemtap&#45;devel&#45;&gt;kernel&#45;devel -->
<g id="edge51" class="edge">
<title>systemtap&#45;devel&#45;&gt;kernel&#45;devel</title>
<path fill="none" stroke="#444444" stroke-opacity="0.333333" d="M1288.011,-363.7197C1273.8488,-326.3037 1241.3887,-240.5455 1224.5948,-196.1767"/>
<polygon fill="#444444" fill-opacity="0.333333" stroke="#444444" stroke-opacity="0.333333" points="1227.7849,-194.7177 1220.9715,-186.6043 1221.2382,-197.1957 1227.7849,-194.7177"/>
</g>
<!-- systemtap&#45;&gt;systemtap&#45;client -->
<g id="edge52" class="edge">
<title>systemtap&#45;&gt;systemtap&#45;client</title>
<path fill="none" stroke="#444444" stroke-opacity="0.333333" d="M1434.5608,-399.7287C1405.3299,-428.3124 1348.4251,-483.9573 1314.987,-516.6551"/>
<polygon fill="#444444" fill-opacity="0.333333" stroke="#444444" stroke-opacity="0.333333" points="1312.1265,-514.5569 1307.4237,-524.0509 1317.0205,-519.5618 1312.1265,-514.5569"/>
</g>
<!-- systemtap&#45;&gt;systemtap&#45;devel -->
<g id="edge53" class="edge">
<title>systemtap&#45;&gt;systemtap&#45;devel</title>
<path fill="none" stroke="#444444" stroke-opacity="0.333333" d="M1393.7421,-381.7201C1393.5832,-381.7204 1393.4241,-381.7207 1393.265,-381.721"/>
<polygon fill="#444444" fill-opacity="0.333333" stroke="#444444" stroke-opacity="0.333333" points="1396.0314,-378.2153 1386.0385,-381.7356 1396.0456,-385.2153 1396.0314,-378.2153"/>
</g>
<!-- boost&#45;atomic -->
<g id="node1" class="node">
<title>boost&#45;atomic</title>
<text text-anchor="middle" x="1679.6" y="-746.18" font-family="monospace" font-size="14.00" fill="#000000">boost&#45;atomic</text>
</g>
<!-- libgcc -->
<g id="node2" class="node">
<title>libgcc</title>
<text text-anchor="middle" x="1446.4" y="-657.32" font-family="monospace" font-size="14.00" fill="#000000">libgcc</text>
</g>
<!-- boost&#45;chrono -->
<g id="node3" class="node">
<title>boost&#45;chrono</title>
<text text-anchor="middle" x="1416" y="-897.78" font-family="monospace" font-size="14.00" fill="#000000">boost&#45;chrono</text>
</g>
<!-- boost&#45;system -->
<g id="node4" class="node">
<title>boost&#45;system</title>
<text text-anchor="middle" x="1480.3" y="-834.21" font-family="monospace" font-size="14.00" fill="#000000">boost&#45;system</text>
</g>
<!-- boost&#45;date&#45;time -->
<g id="node5" class="node">
<title>boost&#45;date&#45;time</title>
<text text-anchor="middle" x="1654.7" y="-844.75" font-family="monospace" font-size="14.00" fill="#000000">boost&#45;date&#45;time</text>
</g>
<!-- boost&#45;thread -->
<g id="node6" class="node">
<title>boost&#45;thread</title>
<text text-anchor="middle" x="1566.8" y="-790.2" font-family="monospace" font-size="14.00" fill="#000000">boost&#45;thread</text>
</g>
<!-- cpp -->
<g id="node7" class="node">
<title>cpp</title>
<text text-anchor="middle" x="1623.6" y="-14.3" font-family="monospace" font-size="14.00" fill="#000000">cpp</text>
</g>
<!-- libmpc -->
<g id="node8" class="node">
<title>libmpc</title>
<text text-anchor="middle" x="1545.7" y="-38.693" font-family="monospace" font-size="14.00" fill="#000000">libmpc</text>
</g>
<!-- curl&#45;minimal -->
<g id="node9" class="node">
<title>curl&#45;minimal</title>
<text text-anchor="middle" x="452.93" y="-521.3" font-family="monospace" font-size="14.00" fill="#000000">curl&#45;minimal</text>
</g>
<!-- libcurl&#45;minimal -->
<g id="node10" class="node">
<title>libcurl&#45;minimal</title>
<text text-anchor="middle" x="214.78" y="-470.66" font-family="monospace" font-size="14.00" fill="#000000">libcurl&#45;minimal</text>
</g>
<!-- libnghttp2 -->
<g id="node11" class="node">
<title>libnghttp2</title>
<text text-anchor="middle" x="64.344" y="-398.44" font-family="monospace" font-size="14.00" fill="#000000">libnghttp2</text>
</g>
<!-- dyninst -->
<g id="node12" class="node">
<title>dyninst</title>
<text text-anchor="middle" x="1548.1" y="-896.45" font-family="monospace" font-size="14.00" fill="#000000">dyninst</text>
</g>
<!-- libdwarf -->
<g id="node13" class="node">
<title>libdwarf</title>
<text text-anchor="middle" x="1611" y="-1135.7" font-family="monospace" font-size="14.00" fill="#000000">libdwarf</text>
</g>
<!-- gcc -->
<g id="node14" class="node">
<title>gcc</title>
<text text-anchor="middle" x="1604.3" y="-255.06" font-family="monospace" font-size="14.00" fill="#000000">gcc</text>
</g>
<!-- binutils -->
<g id="node15" class="node">
<title>binutils</title>
<text text-anchor="middle" x="1775.2" y="-213.47" font-family="monospace" font-size="14.00" fill="#000000">binutils</text>
</g>
<!-- isl -->
<g id="node16" class="node">
<title>isl</title>
<text text-anchor="middle" x="1708.6" y="-67.28" font-family="monospace" font-size="14.00" fill="#000000">isl</text>
</g>
<!-- libgomp -->
<g id="node17" class="node">
<title>libgomp</title>
<text text-anchor="middle" x="1812.4" y="-126.7" font-family="monospace" font-size="14.00" fill="#000000">libgomp</text>
</g>
<!-- libarchive -->
<g id="node18" class="node">
<title>libarchive</title>
<text text-anchor="middle" x="1064.9" y="-647.03" font-family="monospace" font-size="14.00" fill="#000000">libarchive</text>
</g>
<!-- rpm -->
<g id="node19" class="node">
<title>rpm</title>
<text text-anchor="middle" x="761.07" y="-565.69" font-family="monospace" font-size="14.00" fill="#000000">rpm</text>
</g>
<!-- libdb&#45;utils -->
<g id="node20" class="node">
<title>libdb&#45;utils</title>
<text text-anchor="middle" x="583.87" y="-672.24" font-family="monospace" font-size="14.00" fill="#000000">libdb&#45;utils</text>
</g>
<!-- rpm&#45;libs -->
<g id="node21" class="node">
<title>rpm&#45;libs</title>
<text text-anchor="middle" x="1001.1" y="-446.41" font-family="monospace" font-size="14.00" fill="#000000">rpm&#45;libs</text>
</g>
<!-- lua&#45;libs -->
<g id="node22" class="node">
<title>lua&#45;libs</title>
<text text-anchor="middle" x="802.83" y="-435.02" font-family="monospace" font-size="14.00" fill="#000000">lua&#45;libs</text>
</g>
<!-- rpm&#45;plugin&#45;selinux -->
<g id="node23" class="node">
<title>rpm&#45;plugin&#45;selinux</title>
<text text-anchor="middle" x="831.88" y="-327.81" font-family="monospace" font-size="14.00" fill="#000000">rpm&#45;plugin&#45;selinux</text>
</g>
<!-- systemtap&#45;client -->
<g id="node24" class="node">
<title>systemtap&#45;client</title>
<text text-anchor="middle" x="1288.7" y="-538.66" font-family="monospace" font-size="14.00" fill="#000000">systemtap&#45;client</text>
</g>
<!-- avahi&#45;libs -->
<g id="node25" class="node">
<title>avahi&#45;libs</title>
<text text-anchor="middle" x="1221.3" y="-334.19" font-family="monospace" font-size="14.00" fill="#000000">avahi&#45;libs</text>
</g>
<!-- systemtap&#45;runtime -->
<g id="node26" class="node">
<title>systemtap&#45;runtime</title>
<text text-anchor="middle" x="1294.8" y="-810.54" font-family="monospace" font-size="14.00" fill="#000000">systemtap&#45;runtime</text>
</g>
<!-- unzip -->
<g id="node27" class="node">
<title>unzip</title>
<text text-anchor="middle" x="1499" y="-494.07" font-family="monospace" font-size="14.00" fill="#000000">unzip</text>
</g>
<!-- zip -->
<g id="node28" class="node">
<title>zip</title>
<text text-anchor="middle" x="1426" y="-567.32" font-family="monospace" font-size="14.00" fill="#000000">zip</text>
</g>
<!-- json&#45;c -->
<g id="node29" class="node">
<title>json&#45;c</title>
<text text-anchor="middle" x="1216.1" y="-1032.1" font-family="monospace" font-size="14.00" fill="#000000">json&#45;c</text>
</g>
<!-- systemtap&#45;devel -->
<g id="node30" class="node">
<title>systemtap&#45;devel</title>
<text text-anchor="middle" x="1294.9" y="-378.22" font-family="monospace" font-size="14.00" fill="#000000">systemtap&#45;devel</text>
</g>
<!-- kernel&#45;devel -->
<g id="node31" class="node">
<title>kernel&#45;devel</title>
<text text-anchor="middle" x="1214.1" y="-164.75" font-family="monospace" font-size="14.00" fill="#000000">kernel&#45;devel</text>
</g>
<!-- systemtap -->
<g id="node32" class="node">
<title>systemtap</title>
<text text-anchor="middle" x="1453.1" y="-377.9" font-family="monospace" font-size="14.00" fill="#000000">systemtap</text>
</g>
</g>
</svg>
