<?xml version="1.0" encoding="UTF-8" standalone="no"?>
<!DOCTYPE svg PUBLIC "-//W3C//DTD SVG 1.1//EN"
 "http://www.w3.org/Graphics/SVG/1.1/DTD/svg11.dtd">
<!-- Generated by graphviz version 2.40.1 (20161225.0304)
 -->
<!-- Title: G Pages: 1 -->
<svg width="1729pt" height="1129pt"
 viewBox="0.00 0.00 1728.63 1129.00" xmlns="http://www.w3.org/2000/svg" xmlns:xlink="http://www.w3.org/1999/xlink">
<g id="graph0" class="graph" transform="scale(1 1) rotate(0) translate(103.1714 1004.5194)">
<title>G</title>
<polygon fill="#dae2ff" stroke="transparent" points="-103.1714,124.4835 -103.1714,-1004.5194 1625.4542,-1004.5194 1625.4542,124.4835 -103.1714,124.4835"/>
<polygon fill="#b6d1df" stroke="#b6d1df" points="747.7537,-59.4439 749.1378,-59.8572 753.7281,-64.0178 815.2103,-63.5956 812.4935,-55.1929 807.9609,-33.5368 801.5325,-9.6527 774.0657,62.5248 753.0592,62.4273 751.6979,-10.3389 751.6979,-10.3389 753.0592,62.4273 736.3641,63.1538 730.1585,63.7217 728.3973,63.9252 713.2599,66.4057 711.5019,66.7359 672.6165,61.9942 667.772,60.5594 626.2632,39.6707 544.3281,65.0468 541.9097,65.8539 533.5828,66.2404 519.4474,67.5094 510.1605,68.7448 505.3611,69.4867 504.858,69.5753 502.0456,68.5024 495.0632,66.1715 490.1519,64.649 481.8449,62.2719 477.0388,61.012 476.2119,60.8152 462.8298,57.9471 457.6526,56.9628 380.5935,44.1719 370.2478,46.4286 367.0119,44.8162 350.5142,37.8869 351.5224,-60.3754 351.5224,-60.3754 350.5142,37.8869 336.9007,32.8873 279.8206,14.9573 278.1113,13.8882 234.0036,-16.4829 204.8479,-41.3294 194.7606,-49.5312 232.033,-108.2812 263.9718,-165.7901 265.4169,-168.2084 270.1935,-170.0725 286.2168,-175.401 293.82,-177.4806 306.855,-180.2823 306.9267,-180.2955 319.6279,-195.5462 333.0705,-214.6674 360.1332,-257.5793 372.3231,-274.7659 397.1418,-306.6192 397.1711,-306.6543 397.8539,-242.5348 397.8539,-242.5348 397.1711,-306.6543 399.8084,-310.1787 407.391,-310.1952 408.5297,-310.1669 412.0851,-309.9821 412.0926,-309.2272 412.0926,-309.2272 412.0851,-309.9821 414.6104,-310.1047 419.2604,-310.2046 426.4337,-310.1642 428.1926,-310.1065 432.3261,-310.0751 438.5427,-310.3408 444.8054,-310.4384 451.6029,-310.8855 463.1904,-312.23 466.3104,-312.67 470.8966,-309.7141 477.7775,-305.9812 491.2938,-299.5414 503.3295,-294.6198 512.3939,-291.5317 523.4637,-288.5122 526.1611,-287.8691 561.6849,-280.6079 567.7034,-279.1757 576.1808,-276.2932 591.2406,-270.6556 600.4783,-266.2689 608.4063,-261.9645 609.3802,-261.4026 628.0725,-249.9683 645.1578,-238.9696 645.5104,-233.5783 655.0795,-223.5487 657.2612,-221.3608 657.8356,-220.7173 666.3496,-212.392 668.6026,-103.8322 667.9052,-103.6466 664.4534,-103.6466 664.2102,-103.5811 658.7355,-103.5811 658.5187,-103.5213 653.3882,-103.5213 652.9491,-103.6406 649.6466,-103.6406 646.6071,-68.2183 643.1097,-103.4841 640.0583,-103.4841 636.3827,-69.3226 633.4642,-103.5626 629.5778,-103.5626 629.5778,-103.5626 633.4642,-103.5626 636.3827,-69.3226 635.6682,-5.399 627.9084,8.5355 626.5569,11.2587 614.9084,-10.4035 614.8275,-40.5576 613.3729,-70.9376 608.5746,-102.8493 604.9495,-100.0388 600.6909,-98.9347 594.2479,-100.7543 590.703,-103.5228 587.9515,-47.5211 583.5556,-52.2194 582.0724,-53.6327 581.9802,-53.7107 573.7242,-61.7957 572.3235,-62.8106 563.6172,-72.0665 561.5569,-73.8328 561.5569,-73.8328 563.6172,-72.0665 572.3235,-62.8106 573.7242,-61.7957 581.9802,-53.7107 582.0724,-53.6327 583.5556,-52.2194 587.9515,-47.5211 590.703,-103.5228 594.2479,-100.7543 600.6909,-98.9347 604.9495,-100.0388 608.5746,-102.8493 613.3729,-70.9376 614.8275,-40.5576 614.9084,-10.4035 626.5569,11.2587 627.9084,8.5355 635.6682,-5.399 636.3827,-69.3226 640.0583,-103.4841 643.1097,-103.4841 646.6071,-68.2183 649.6466,-103.6406 652.9491,-103.6406 653.3882,-103.5213 658.5187,-103.5213 658.7355,-103.5811 664.2102,-103.5811 664.4534,-103.6466 667.9052,-103.6466 668.6026,-103.8322 666.3496,-212.392 667.473,-211.3462 678.1755,-200.7558 676.3577,-135.233 678.4073,-109.7835 678.4073,-109.7835 676.3577,-135.233 678.1755,-200.7558 747.6299,-139.2747 752.6548,-138.5596 768.3882,-137.5126 775.4073,-136.8032 778.25,-136.3196 791.309,-133.6409 801.0734,-130.9647 810.2446,-127.8196 815.446,-125.6772 823.0259,-122.2907 826.7961,-120.4767 833.9293,-116.7976 835.1781,-116.067 815.2103,-63.5956 753.7281,-64.0178 749.1378,-59.8572 747.7537,-59.4439 745.8027,-58.0257 744.2209,-58.0257 743.5512,-58.8019 737.0985,-62.7115 732.8608,-62.7115 732.8608,-62.7115 737.0985,-62.7115 743.5512,-58.8019 744.2209,-58.0257 743.5215,-57.2105 743.5215,-57.2105 744.2209,-58.0257 745.8027,-58.0257 747.7537,-59.4439 747.7537,-59.4439"/>
<polygon fill="#ebd1cb" stroke="#ebd1cb" points="192.895,-642.0646 194.9614,-595.9108 194.9614,-595.9108 192.895,-642.0646 192.3786,-693.3849 183.5261,-704.9875 180.8884,-708.723 167.2628,-701.4583 169.9591,-615.0732 174.57,-562.14 174.4137,-562.0955 173.3471,-562.575 100.9152,-554.6959 103.29,-551.6397 138.3561,-501.779 144.6156,-493.8079 159.1674,-493.0298 163.7667,-492.991 171.1049,-492.6239 177.0494,-492.5961 178.7268,-492.664 178.8943,-426.9914 173.2396,-428.7423 167.7774,-427.1113 167.1962,-426.6059 166.639,-424.1686 167.4038,-420.8925 167.8565,-420.505 173.0976,-418.9771 173.0976,-418.9771 167.8565,-420.505 167.4038,-420.8925 166.639,-424.1686 167.1962,-426.6059 167.7774,-427.1113 173.2396,-428.7423 178.8943,-426.9914 178.7268,-492.664 177.0494,-492.5961 171.1049,-492.6239 163.7667,-492.991 159.1674,-493.0298 144.6156,-493.8079 138.3561,-501.779 103.29,-551.6397 100.9152,-554.6959 173.3471,-562.575 174.4137,-562.0955 174.57,-562.14 169.9591,-615.0732 167.2628,-701.4583 69.5467,-654.0225 43.3793,-628.5469 48.5586,-620.2767 50.2285,-617.8246 55.3655,-513.6527 59.843,-486.5548 63.1953,-483.9158 58.1408,-479.6775 54.6468,-478.7706 54.6468,-478.7706 58.1408,-479.6775 63.1953,-483.9158 59.843,-486.5548 55.3655,-513.6527 50.2285,-617.8246 48.5586,-620.2767 43.3793,-628.5469 41.1205,-628.0889 20.6304,-624.7025 -17.0788,-619.1882 -99.0017,-511.0648 -97.5992,-483.63 -99.1714,-408.9303 -84.1302,-397.3988 17.1175,-332.2548 25.5296,-326.6349 -3.3675,-210.7241 -6.1379,-201.619 .7286,-178.2701 9.783,-144.1737 40.9524,-96.6973 119.6343,-58.7073 126.5242,-55.0593 126.7215,-65.055 132.0041,-199.6189 132.1396,-199.6559 132.6875,-200.4209 136.1316,-203.1201 141.3576,-204.5394 145.9921,-203.2636 148.4084,-236.9496 147.5521,-296.2531 146.8768,-297.1075 236.8187,-282.094 241.4124,-277.1224 241.4124,-277.1224 236.8187,-282.094 146.8768,-297.1075 147.5521,-296.2531 154.3084,-288.6228 164.6769,-277.6137 163.9925,-236.5931 163.9925,-236.5931 164.6769,-277.6137 154.3084,-288.6228 147.5521,-296.2531 148.4084,-236.9496 145.9921,-203.2636 141.3576,-204.5394 136.1316,-203.1201 132.6875,-200.4209 132.1396,-199.6559 132.0041,-199.6189 126.7215,-65.055 126.5242,-55.0593 136.7352,-49.1707 143.658,-44.8517 153.2659,-46.3262 157.7748,-46.9398 164.0676,-47.4706 194.7606,-49.5312 232.033,-108.2812 263.9718,-165.7901 265.4169,-168.2084 270.1935,-170.0725 286.2168,-175.401 293.82,-177.4806 306.855,-180.2823 306.9267,-180.2955 319.6279,-195.5462 333.0705,-214.6674 360.1332,-257.5793 372.3231,-274.7659 397.1418,-306.6192 397.1711,-306.6543 399.8084,-310.1787 397.819,-311.7678 396.0688,-313.0887 388.0245,-318.8153 312.4594,-369.304 309.3106,-369.4482 308.0224,-369.4696 294.0293,-370.1169 285.2278,-371.0458 279.4602,-371.825 270.8106,-373.5062 266.1572,-374.5481 251.4917,-420.1511 250.4077,-424.1492 249.6808,-427.436 246.5367,-445.7596 244.1914,-456.249 236.9436,-482.5615 241.633,-486.5685 304.0226,-545.1082 314.4176,-555.5355 315.4201,-556.6017 316.6251,-561.74 316.7877,-562.2074 309.6355,-570.1342 238.2035,-644.4663 233.0328,-649.4261 221.6435,-661.0614 217.4655,-665.8274 207.7486,-675.5864 192.3786,-693.3849 192.895,-642.0646 192.895,-642.0646"/>
<polygon fill="#dbd0df" stroke="#dbd0df" points="1050.4423,-369.6082 1030.1353,-339.5646 1015.1631,-316.2564 930.9522,-291.7726 929.1924,-291.3323 920.9601,-289.9246 912.5,-288.8148 905.046,-288.4319 899.0876,-288.6015 890.097,-288.1331 888.293,-288.1837 886.1192,-288.3316 883.0469,-288.4169 877.5482,-288.349 877.2473,-288.3693 877.1469,-313.1875 874.2254,-354.3612 869.7246,-354.3612 864.0432,-357.4983 862.6886,-358.9294 864.1541,-360.4648 869.1389,-363.1728 869.1389,-363.1728 864.1541,-360.4648 862.6886,-358.9294 864.0432,-357.4983 869.7246,-354.3612 874.2254,-354.3612 877.1469,-313.1875 877.2473,-288.3693 875.0909,-288.3417 868.832,-288.5116 868.8308,-288.5116 855.9055,-288.3399 854.3282,-288.4451 852.9444,-288.4816 850.9126,-288.454 850.209,-288.4163 847.1324,-288.4963 844.8448,-353.3011 776.6933,-343.2553 770.4982,-335.9611 760.8696,-323.7455 761.5482,-382.2263 758.8073,-413.8984 765.4786,-418.0393 765.824,-418.4407 764.8483,-419.577 759.4774,-422.7755 759.4774,-422.7755 764.8483,-419.577 765.824,-418.4407 765.4786,-418.0393 758.8073,-413.8984 753.9117,-413.8984 753.9117,-413.8984 758.8073,-413.8984 761.5482,-382.2263 760.8696,-323.7455 770.4982,-335.9611 776.6933,-343.2553 844.8448,-353.3011 847.1324,-288.4963 846.1066,-288.4819 836.5081,-288.7305 828.7166,-289.2438 817.7381,-290.8436 814.7197,-291.4025 811.7929,-292.1776 804.7485,-294.3294 792.3615,-298.6137 782.4749,-303.2163 773.2175,-308.2766 759.1545,-316.5274 756.8666,-317.9556 753.1422,-317.7658 741.1252,-316.4453 733.8048,-315.4259 710.9465,-311.575 645.1578,-238.9696 628.0725,-249.9683 609.3802,-261.4026 608.4063,-261.9645 600.4783,-266.2689 591.2406,-270.6556 576.1808,-276.2932 567.7034,-279.1757 561.6849,-280.6079 526.1611,-287.8691 523.4637,-288.5122 512.3939,-291.5317 503.3295,-294.6198 491.2938,-299.5414 477.7775,-305.9812 470.8966,-309.7141 466.3104,-312.67 484.9823,-357.2953 488.2469,-366.113 491.6625,-376.7462 502.4019,-416.3456 503.1862,-418.8021 514.0024,-444.6523 496.9863,-464.3299 491.6376,-490.0024 487.844,-514.3946 487.428,-523.5662 487.1147,-526.7086 485.3228,-538.3126 545.252,-535.3777 547.2357,-571.5342 551.2773,-529.8543 551.8284,-529.401 555.3922,-529.401 555.4597,-529.3827 559.4086,-529.3827 560.7448,-529.7565 558.8138,-599.1357 566.9444,-597.7471 579.9728,-596.651 578.7012,-557.6662 581.0048,-534.3177 585.7898,-533.0062 590.1846,-529.4478 585.6884,-525.8477 581.145,-524.628 581.145,-524.628 585.6884,-525.8477 590.1846,-529.4478 585.7898,-533.0062 581.0048,-534.3177 578.7012,-557.6662 579.9728,-596.651 566.9444,-597.7471 558.8138,-599.1357 560.7448,-529.7565 559.4086,-529.3827 555.4597,-529.3827 555.3922,-529.401 551.8284,-529.401 551.2773,-529.8543 547.2357,-571.5342 545.252,-535.3777 485.3228,-538.3126 477.7549,-574.6373 530.2925,-607.7549 527.9562,-653.0524 527.9775,-659.7208 528.0643,-661.2221 528.338,-663.65 522.6517,-773.8974 577.3942,-792.5683 595.7138,-799.278 609.3655,-804.9454 618.7675,-809.5362 622.304,-811.4379 695.0847,-812.0627 717.965,-785.0396 714.9975,-691.9676 715.0543,-663.4513 714.1341,-649.6 714.1392,-647.0462 712.3466,-590.8252 714.5835,-587.0883 807.9502,-596.53 808.2539,-596.546 810.7881,-596.5585 817.0991,-596.2846 822.9761,-596.6342 828.9558,-596.41 831.2271,-596.5591 839.7697,-596.705 843.9236,-596.3738 843.8809,-593.9897 842.9321,-580.7572 836.9988,-539.8573 843.006,-536.1619 844.1222,-534.79 843.2069,-533.7419 838.2087,-530.8354 831.9352,-530.8354 831.9352,-530.8354 838.2087,-530.8354 843.2069,-533.7419 844.1222,-534.79 843.006,-536.1619 836.9988,-539.8573 842.9321,-580.7572 843.8809,-593.9897 843.9236,-596.3738 850.0991,-596.8326 855.7375,-596.7077 856.788,-596.7381 861.5129,-596.6479 865.9379,-596.3515 877.4179,-594.4731 889.6917,-591.2761 1001.312,-556.9174 1042.6293,-546.0584 1044.7981,-493.8835 1082.8552,-424.7653 1085.5765,-417.3166 1050.4423,-369.6082 1050.4423,-369.6082"/>
<polygon fill="#c5e2ce" stroke="#c5e2ce" points="315.4266,-788.3272 316.0777,-741.648 316.0777,-741.648 315.4266,-788.3272 323.1287,-788.564 333.3379,-789.0863 333.5951,-760.6826 332.39,-691.449 335.1656,-658.1163 335.2857,-658.1163 339.7257,-661.7694 343.9652,-662.8939 343.9652,-662.8939 339.7257,-661.7694 335.2857,-658.1163 335.1656,-658.1163 332.39,-691.449 333.5951,-760.6826 333.3379,-789.0863 351.2715,-791.103 356.5919,-791.9175 356.8027,-791.954 375.0256,-795.8629 401.9885,-802.74 406.0318,-800.3574 428.8964,-792.9156 448.5692,-786.9755 458.5518,-784.4448 478.3296,-780.8573 522.6517,-773.8974 528.338,-663.65 528.0643,-661.2221 527.9775,-659.7208 527.9562,-653.0524 530.2925,-607.7549 477.7549,-574.6373 464.9857,-578.5384 458.5499,-579.7255 447.9019,-581.2639 440.5299,-582.0305 438.9583,-582.1302 429.1049,-582.3585 417.1927,-583.5944 408.1286,-585.2662 406.0318,-585.7375 395.7618,-583.4888 371.0197,-581.0704 353.5258,-577.4033 349.3462,-576.2202 334.7105,-570.9788 321.5306,-564.787 316.7877,-562.2074 309.6355,-570.1342 238.2035,-644.4663 233.0328,-649.4261 221.6435,-661.0614 217.4655,-665.8274 207.7486,-675.5864 192.3786,-693.3849 183.5261,-704.9875 180.8884,-708.723 205.7807,-762.6108 224.4088,-781.7576 243.8427,-789.0473 315.4266,-788.3272 315.4266,-788.3272"/>
<polygon fill="#fdd9a7" stroke="#fdd9a7" points="775.4073,-136.8032 768.3882,-137.5126 752.6548,-138.5596 747.6299,-139.2747 678.1755,-200.7558 667.473,-211.3462 666.3496,-212.392 657.8356,-220.7173 657.2612,-221.3608 655.0795,-223.5487 645.5104,-233.5783 645.1578,-238.9696 710.9465,-311.575 733.8048,-315.4259 741.1252,-316.4453 753.1422,-317.7658 756.8666,-317.9556 759.1545,-316.5274 773.2175,-308.2766 782.4749,-303.2163 792.3615,-298.6137 804.7485,-294.3294 811.7929,-292.1776 814.7197,-291.4025 817.7381,-290.8436 822.7881,-218.0449 826.0352,-218.0449 829.2784,-245.8517 833.2196,-218.2006 836.9271,-218.2006 837.3419,-218.0892 841.1338,-218.0892 842.1616,-217.8118 842.1696,-217.8118 846.3029,-221.1902 846.3029,-221.1902 842.1696,-217.8118 842.1616,-217.8118 841.1338,-218.0892 837.3419,-218.0892 836.9271,-218.2006 833.2196,-218.2006 829.2784,-245.8517 826.0352,-218.0449 822.7881,-218.0449 817.7381,-290.8436 828.7166,-289.2438 836.5081,-288.7305 846.1066,-288.4819 847.1324,-288.4963 850.209,-288.4163 850.9126,-288.454 852.9444,-288.4816 854.3282,-288.4451 855.9055,-288.3399 868.8308,-288.5116 868.832,-288.5116 875.0909,-288.3417 877.2473,-288.3693 877.5482,-288.349 883.0469,-288.4169 886.1192,-288.3316 888.293,-288.1837 890.097,-288.1331 899.0876,-288.6015 905.046,-288.4319 912.5,-288.8148 920.9601,-289.9246 929.1924,-291.3323 930.9522,-291.7726 1015.1631,-316.2564 1030.1353,-339.5646 1050.4423,-369.6082 1085.5765,-417.3166 1097.9994,-409.7512 1107.1124,-404.6959 1114.3755,-400.7981 1121.0734,-397.3255 1127.4695,-394.2416 1138.1411,-386.4818 1153.9712,-376.4087 1160.866,-372.3355 1173.7483,-365.305 1184.9274,-359.9608 1201.3582,-352.8452 1202.1479,-352.5395 1213.8922,-348.257 1314.7242,-316.0782 1412.1974,-372.6084 1417.2396,-369.726 1434.5867,-360.9976 1440.36,-358.3611 1460.2122,-350.2052 1463.6633,-348.9504 1467.8943,-347.6075 1476.9073,-344.9534 1478.9242,-344.4062 1491.7095,-341.5226 1503.6533,-339.1055 1528.364,-335.2562 1588.4255,-301.7266 1618.3118,-237.8948 1619.1925,-218 1621.4542,-199.5868 1580.5464,-131.0334 1534.4865,-84.3736 1503.9302,-81.0653 1491.64,-79.4884 1488.777,-78.9493 1471.2974,-75.3037 1467.0808,-74.3405 1458.7321,-71.9313 1450.814,-69.4868 1444.4706,-67.4015 1437.0485,-64.8135 1429.8834,-62.173 1423.6622,-59.6337 1422.246,-60.8034 1416.1682,-65.4843 1314.7242,-140.8041 1279.6355,-128.9612 1270.8015,-126.2176 1260.1232,-123.4805 1255.1357,-122.3387 1245.2576,-120.3478 1233.3696,-118.6053 1232.3838,-118.4879 1231.0657,-118.403 1219.2733,-117.9634 1214.3152,-117.914 1212.8835,-117.9778 1204.108,-117.8928 1190.7291,-117.0351 1182.2367,-116.0293 1176.4358,-115.185 1165.9537,-113.0904 1165.6698,-113.0183 1161.4243,-111.8227 1150.3932,-114.4125 1150.2239,-114.4477 1142.4808,-115.8429 1137.6759,-116.5777 1135.4371,-116.8591 1126.5959,-117.4919 1117.8397,-117.8809 1112.7145,-117.9692 1107.8097,-118.3164 1100.4323,-118.0356 1096.7843,-117.9944 1092.0138,-118.1961 1084.0154,-118.3163 1077.4073,-118.7689 1076.4854,-118.8567 1063.5323,-120.4377 1044.8823,-124.2113 1044.2094,-124.3828 1044.0776,-124.4199 1021.2542,-132.0952 1015.1631,-134.6263 1014.3776,-134.2811 958.4139,-111.1861 940.9754,-114.3502 926.2485,-116.6296 914.2072,-117.5194 907.3877,-117.8391 902.4693,-117.8041 900.3826,-117.8508 895.9653,-118.0805 893.0486,-118.0745 887.7669,-117.9209 886.1948,-117.9217 885.9512,-117.9152 881.3546,-118.065 873.439,-118.1089 871.8794,-118.1637 863.8045,-118.0108 863.6133,-118.002 861.9441,-118.0239 852.8721,-117.6534 846.8256,-117.2432 837.846,-116.3916 835.1781,-116.067 833.9293,-116.7976 826.7961,-120.4767 823.0259,-122.2907 815.446,-125.6772 810.2446,-127.8196 801.0734,-130.9647 791.309,-133.6409 778.25,-136.3196 775.4073,-136.8032 775.4073,-136.8032"/>
<polygon fill="#d2c2cc" stroke="#d2c2cc" points="1176.634,-723.934 1172.6285,-779.9134 1172.2836,-787.6005 1131.9243,-869.3045 1122.9576,-872.1562 1067.9097,-881.2302 1045.2211,-885.4561 1047.6367,-778.3731 1044.9729,-744.8007 1046.7064,-742.692 1045.9215,-741.7919 1040.4181,-738.5493 1040.4181,-738.5493 1045.9215,-741.7919 1046.7064,-742.692 1044.9729,-744.8007 1047.6367,-778.3731 1045.2211,-885.4561 1038.0482,-887.0933 1028.7959,-889.5956 1026.4814,-886.967 1019.4309,-879.2734 1020.6342,-802.0504 1018.635,-749.2911 984.3884,-743.9258 984.0499,-748.1694 970.9156,-750.1292 949.6066,-749.8067 949.6066,-749.8067 970.9156,-750.1292 984.0499,-748.1694 984.3884,-743.9258 1018.635,-749.2911 1020.6342,-802.0504 1019.4309,-879.2734 1026.4814,-886.967 1028.7959,-889.5956 1005.7664,-926.2949 928.1409,-987.7606 890.8926,-1000.5194 889.527,-999.9536 879.6465,-996.3487 878.7032,-866.8796 883.5112,-866.8796 883.5112,-866.8796 878.7032,-866.8796 879.6465,-996.3487 866.8643,-992.0035 863.9424,-991.1577 862.6765,-869.7601 867.9694,-871.346 867.9694,-871.346 862.6765,-869.7601 863.9424,-991.1577 852.2342,-988.0592 792.0813,-976.6398 744.2071,-942.6877 743.492,-941.9011 723.7869,-883.7097 718.5064,-869.311 708.897,-844.9359 695.0847,-812.0627 717.965,-785.0396 714.9975,-691.9676 715.0543,-663.4513 714.1341,-649.6 714.1392,-647.0462 712.3466,-590.8252 714.5835,-587.0883 807.9502,-596.53 808.2539,-596.546 810.7881,-596.5585 817.0991,-596.2846 822.9761,-596.6342 828.9558,-596.41 831.2271,-596.5591 839.7697,-596.705 843.9236,-596.3738 850.0991,-596.8326 849.8621,-603.7674 850.9545,-654.8223 854.5978,-657.9763 850.7971,-661.2845 850.7971,-661.2845 854.5978,-657.9763 850.9545,-654.8223 849.8621,-603.7674 850.0991,-596.8326 855.7375,-596.7077 856.788,-596.7381 861.5129,-596.6479 865.9379,-596.3515 866.3921,-605.7141 866.3921,-605.7141 865.9379,-596.3515 877.4179,-594.4731 889.6917,-591.2761 1001.312,-556.9174 1042.6293,-546.0584 1043.6588,-549.4975 1051.1459,-556.7219 1066.7255,-571.305 1094.1057,-596.0995 1178.4965,-708.8354 1176.634,-723.934 1176.634,-723.934"/>
<polygon fill="#d1e2cd" stroke="#d1e2cd" points="870.3114,97.489 864.8905,97.8241 838.7964,100.0956 774.0657,62.5248 801.5325,-9.6527 807.9609,-33.5368 812.4935,-55.1929 815.2103,-63.5956 835.1781,-116.067 837.846,-116.3916 846.8256,-117.2432 852.8721,-117.6534 861.9441,-118.0239 863.6133,-118.002 863.8045,-118.0108 871.8794,-118.1637 873.439,-118.1089 881.3546,-118.065 885.9512,-117.9152 886.1948,-117.9217 887.7669,-117.9209 893.0486,-118.0745 895.9653,-118.0805 900.3826,-117.8508 902.4693,-117.8041 907.3877,-117.8391 914.2072,-117.5194 926.2485,-116.6296 940.9754,-114.3502 958.4139,-111.1861 1014.3776,-134.2811 1015.1631,-134.6263 1021.2542,-132.0952 1044.0776,-124.4199 1044.2094,-124.3828 1044.8823,-124.2113 1049.7971,-50.4264 1055.1332,-19.0415 1057.7938,-21.1037 1063.3701,-22.6587 1069.4081,-20.9437 1072.8945,-18.2399 1072.9663,-18.1454 1072.9663,-18.1454 1072.8945,-18.2399 1069.4081,-20.9437 1063.3701,-22.6587 1057.7938,-21.1037 1055.1332,-19.0415 1049.7971,-50.4264 1044.8823,-124.2113 1063.5323,-120.4377 1076.4854,-118.8567 1077.4073,-118.7689 1084.0154,-118.3163 1092.0138,-118.1961 1096.7843,-117.9944 1100.4323,-118.0356 1107.8097,-118.3164 1112.7145,-117.9692 1117.8397,-117.8809 1126.5959,-117.4919 1135.4371,-116.8591 1137.6759,-116.5777 1142.4808,-115.8429 1150.2239,-114.4477 1150.3932,-114.4125 1161.4243,-111.8227 1165.6698,-113.0183 1165.9537,-113.0904 1176.4358,-115.185 1182.2367,-116.0293 1190.7291,-117.0351 1204.108,-117.8928 1212.8835,-117.9778 1214.3152,-117.914 1219.2733,-117.9634 1231.0657,-118.403 1232.3838,-118.4879 1233.3696,-118.6053 1245.2576,-120.3478 1255.1357,-122.3387 1260.1232,-123.4805 1270.8015,-126.2176 1279.6355,-128.9612 1314.7242,-140.8041 1416.1682,-65.4843 1422.246,-60.8034 1423.6622,-59.6337 1417.0142,-35.8604 1415.0552,-27.4702 1393.4623,12.6666 1363.6982,71.6295 1337.0201,93.0409 1318.4908,102.1595 1279.9041,98.8062 1272.8333,98.3556 1259.1837,97.8033 1250.6672,97.8553 1250.0614,97.9012 1227.0358,100.1877 1213.5292,102.785 1208.2839,103.9152 1161.4243,115.0964 1159.3463,116.5046 1118.9277,118.4731 1107.7006,119.2349 1095.9343,120.4835 1093.9332,119.5075 1088.2504,116.8678 1077.7576,112.4788 1065.285,108.1206 1052.0552,104.1055 1044.8651,102.4197 1034.396,100.4419 1018.0675,98.1037 1016.4315,97.9072 958.7825,93.6295 958.4139,93.5221 922.6946,100.8206 897.0739,97.882 893.4426,97.6489 885.0408,97.321 870.3114,97.489 870.3114,97.489"/>
<polygon fill="#fbb4ae" stroke="#fbb4ae" points="432.3261,-310.0751 438.5427,-310.3408 444.8054,-310.4384 451.6029,-310.8855 463.1904,-312.23 466.3104,-312.67 484.9823,-357.2953 488.2469,-366.113 491.6625,-376.7462 502.4019,-416.3456 503.1862,-418.8021 514.0024,-444.6523 496.9863,-464.3299 491.6376,-490.0024 487.844,-514.3946 487.428,-523.5662 487.1147,-526.7086 485.3228,-538.3126 477.7549,-574.6373 464.9857,-578.5384 458.5499,-579.7255 447.9019,-581.2639 440.5299,-582.0305 438.9583,-582.1302 429.1049,-582.3585 417.1927,-583.5944 408.1286,-585.2662 406.0318,-585.7375 395.7618,-583.4888 371.0197,-581.0704 353.5258,-577.4033 349.3462,-576.2202 334.7105,-570.9788 321.5306,-564.787 316.7877,-562.2074 316.6251,-561.74 315.4201,-556.6017 314.4176,-555.5355 304.0226,-545.1082 241.633,-486.5685 236.9436,-482.5615 244.1914,-456.249 246.5367,-445.7596 249.6808,-427.436 250.4077,-424.1492 251.4917,-420.1511 266.1572,-374.5481 270.8106,-373.5062 279.4602,-371.825 285.2278,-371.0458 294.0293,-370.1169 308.0224,-369.4696 309.3106,-369.4482 312.4594,-369.304 388.0245,-318.8153 389.4038,-412.3372 339.865,-406.8662 338.1544,-405.1301 334.8881,-401.4627 333.1347,-399.2977 328.614,-459.233 324.8426,-462.2625 328.9719,-465.7449 334.0391,-467.1804 334.0391,-467.1804 328.9719,-465.7449 324.8426,-462.2625 328.614,-459.233 333.8777,-457.7642 338.9326,-459.1889 343.1093,-462.6923 342.9129,-462.9649 346.5858,-500.2828 346.7688,-514.1985 348.0597,-512.8965 352.0234,-508.2627 360.7004,-499.3981 360.7004,-499.3981 352.0234,-508.2627 348.0597,-512.8965 346.7688,-514.1985 346.5858,-500.2828 342.9129,-462.9649 343.1093,-462.6923 338.9326,-459.1889 333.8777,-457.7642 328.614,-459.233 333.1347,-399.2977 334.8881,-401.4627 338.1544,-405.1301 339.865,-406.8662 341.8606,-409.1714 341.8606,-409.1714 339.865,-406.8662 389.4038,-412.3372 388.0245,-318.8153 396.0688,-313.0887 397.819,-311.7678 399.8084,-310.1787 407.391,-310.1952 408.5297,-310.1669 410.8223,-413.0686 405.2685,-414.7145 401.5324,-417.9967 405.6847,-421.6472 410.182,-422.9252 410.182,-422.9252 405.6847,-421.6472 401.5324,-417.9967 405.2685,-414.7145 410.8223,-413.0686 408.5297,-310.1669 412.0851,-309.9821 414.6104,-310.1047 419.2604,-310.2046 426.4337,-310.1642 428.1926,-310.1065 432.3261,-310.0751 432.3261,-310.0751"/>
<polyline fill="none" stroke="#000000" points="463.1904,-312.23 466.3104,-312.67 470.8966,-309.7141 477.7775,-305.9812 491.2938,-299.5414 503.3295,-294.6198 512.3939,-291.5317 523.4637,-288.5122 526.1611,-287.8691 561.6849,-280.6079 567.7034,-279.1757 576.1808,-276.2932 591.2406,-270.6556 600.4783,-266.2689 608.4063,-261.9645 609.3802,-261.4026 628.0725,-249.9683 645.1578,-238.9696 645.5104,-233.5783 655.0795,-223.5487 657.2612,-221.3608 657.8356,-220.7173 666.3496,-212.392 667.473,-211.3462 678.1755,-200.7558 747.6299,-139.2747 752.6548,-138.5596 768.3882,-137.5126 775.4073,-136.8032 778.25,-136.3196 791.309,-133.6409 801.0734,-130.9647 810.2446,-127.8196 815.446,-125.6772 823.0259,-122.2907 826.7961,-120.4767 833.9293,-116.7976 835.1781,-116.067 815.2103,-63.5956 812.4935,-55.1929 807.9609,-33.5368 801.5325,-9.6527 774.0657,62.5248 753.0592,62.4273 736.3641,63.1538 730.1585,63.7217 728.3973,63.9252 713.2599,66.4057 711.5019,66.7359 672.6165,61.9942 667.772,60.5594 626.2632,39.6707 544.3281,65.0468 541.9097,65.8539 533.5828,66.2404 519.4474,67.5094 510.1605,68.7448 505.3611,69.4867 504.858,69.5753 502.0456,68.5024 495.0632,66.1715 490.1519,64.649 481.8449,62.2719 477.0388,61.012 476.2119,60.8152 462.8298,57.9471 457.6526,56.9628 380.5935,44.1719 370.2478,46.4286 367.0119,44.8162 350.5142,37.8869 336.9007,32.8873 279.8206,14.9573 278.1113,13.8882 234.0036,-16.4829 204.8479,-41.3294 194.7606,-49.5312 232.033,-108.2812 263.9718,-165.7901 265.4169,-168.2084 270.1935,-170.0725 286.2168,-175.401 293.82,-177.4806 306.855,-180.2823 306.9267,-180.2955 319.6279,-195.5462 333.0705,-214.6674 360.1332,-257.5793 372.3231,-274.7659 397.1418,-306.6192 397.1711,-306.6543 399.8084,-310.1787 407.391,-310.1952 408.5297,-310.1669 412.0851,-309.9821 414.6104,-310.1047 419.2604,-310.2046 426.4337,-310.1642 428.1926,-310.1065 432.3261,-310.0751 438.5427,-310.3408 444.8054,-310.4384 451.6029,-310.8855 463.1904,-312.23 "/>
<polyline fill="none" stroke="#000000" points="266.1572,-374.5481 251.4917,-420.1511 250.4077,-424.1492 249.6808,-427.436 246.5367,-445.7596 244.1914,-456.249 236.9436,-482.5615 241.633,-486.5685 304.0226,-545.1082 314.4176,-555.5355 315.4201,-556.6017 316.6251,-561.74 316.7877,-562.2074 309.6355,-570.1342 238.2035,-644.4663 233.0328,-649.4261 221.6435,-661.0614 217.4655,-665.8274 207.7486,-675.5864 192.3786,-693.3849 183.5261,-704.9875 180.8884,-708.723 167.2628,-701.4583 69.5467,-654.0225 43.3793,-628.5469 41.1205,-628.0889 20.6304,-624.7025 -17.0788,-619.1882 -99.0017,-511.0648 -97.5992,-483.63 -99.1714,-408.9303 -84.1302,-397.3988 17.1175,-332.2548 25.5296,-326.6349 -3.3675,-210.7241 -6.1379,-201.619 .7286,-178.2701 9.783,-144.1737 40.9524,-96.6973 119.6343,-58.7073 126.5242,-55.0593 136.7352,-49.1707 143.658,-44.8517 153.2659,-46.3262 157.7748,-46.9398 164.0676,-47.4706 194.7606,-49.5312 232.033,-108.2812 263.9718,-165.7901 265.4169,-168.2084 270.1935,-170.0725 286.2168,-175.401 293.82,-177.4806 306.855,-180.2823 306.9267,-180.2955 319.6279,-195.5462 333.0705,-214.6674 360.1332,-257.5793 372.3231,-274.7659 397.1418,-306.6192 397.1711,-306.6543 399.8084,-310.1787 397.819,-311.7678 396.0688,-313.0887 388.0245,-318.8153 312.4594,-369.304 309.3106,-369.4482 308.0224,-369.4696 294.0293,-370.1169 285.2278,-371.0458 279.4602,-371.825 270.8106,-373.5062 266.1572,-374.5481 "/>
<polyline fill="none" stroke="#000000" points="600.4783,-266.2689 608.4063,-261.9645 609.3802,-261.4026 628.0725,-249.9683 645.1578,-238.9696 710.9465,-311.575 733.8048,-315.4259 741.1252,-316.4453 753.1422,-317.7658 756.8666,-317.9556 759.1545,-316.5274 773.2175,-308.2766 782.4749,-303.2163 792.3615,-298.6137 804.7485,-294.3294 811.7929,-292.1776 814.7197,-291.4025 817.7381,-290.8436 828.7166,-289.2438 836.5081,-288.7305 846.1066,-288.4819 847.1324,-288.4963 850.209,-288.4163 850.9126,-288.454 852.9444,-288.4816 854.3282,-288.4451 855.9055,-288.3399 868.8308,-288.5116 868.832,-288.5116 875.0909,-288.3417 877.2473,-288.3693 877.5482,-288.349 883.0469,-288.4169 886.1192,-288.3316 888.293,-288.1837 890.097,-288.1331 899.0876,-288.6015 905.046,-288.4319 912.5,-288.8148 920.9601,-289.9246 929.1924,-291.3323 930.9522,-291.7726 1015.1631,-316.2564 1030.1353,-339.5646 1050.4423,-369.6082 1085.5765,-417.3166 1082.8552,-424.7653 1044.7981,-493.8835 1042.6293,-546.0584 1001.312,-556.9174 889.6917,-591.2761 877.4179,-594.4731 865.9379,-596.3515 861.5129,-596.6479 856.788,-596.7381 855.7375,-596.7077 850.0991,-596.8326 843.9236,-596.3738 839.7697,-596.705 831.2271,-596.5591 828.9558,-596.41 822.9761,-596.6342 817.0991,-596.2846 810.7881,-596.5585 808.2539,-596.546 807.9502,-596.53 714.5835,-587.0883 712.3466,-590.8252 714.1392,-647.0462 714.1341,-649.6 715.0543,-663.4513 714.9975,-691.9676 717.965,-785.0396 695.0847,-812.0627 622.304,-811.4379 618.7675,-809.5362 609.3655,-804.9454 595.7138,-799.278 577.3942,-792.5683 522.6517,-773.8974 528.338,-663.65 528.0643,-661.2221 527.9775,-659.7208 527.9562,-653.0524 530.2925,-607.7549 477.7549,-574.6373 485.3228,-538.3126 487.1147,-526.7086 487.428,-523.5662 487.844,-514.3946 491.6376,-490.0024 496.9863,-464.3299 514.0024,-444.6523 503.1862,-418.8021 502.4019,-416.3456 491.6625,-376.7462 488.2469,-366.113 484.9823,-357.2953 466.3104,-312.67 470.8966,-309.7141 477.7775,-305.9812 491.2938,-299.5414 503.3295,-294.6198 512.3939,-291.5317 523.4637,-288.5122 526.1611,-287.8691 561.6849,-280.6079 567.7034,-279.1757 576.1808,-276.2932 591.2406,-270.6556 600.4783,-266.2689 "/>
<polyline fill="none" stroke="#000000" points="458.5518,-784.4448 478.3296,-780.8573 522.6517,-773.8974 528.338,-663.65 528.0643,-661.2221 527.9775,-659.7208 527.9562,-653.0524 530.2925,-607.7549 477.7549,-574.6373 464.9857,-578.5384 458.5499,-579.7255 447.9019,-581.2639 440.5299,-582.0305 438.9583,-582.1302 429.1049,-582.3585 417.1927,-583.5944 408.1286,-585.2662 406.0318,-585.7375 395.7618,-583.4888 371.0197,-581.0704 353.5258,-577.4033 349.3462,-576.2202 334.7105,-570.9788 321.5306,-564.787 316.7877,-562.2074 309.6355,-570.1342 238.2035,-644.4663 233.0328,-649.4261 221.6435,-661.0614 217.4655,-665.8274 207.7486,-675.5864 192.3786,-693.3849 183.5261,-704.9875 180.8884,-708.723 205.7807,-762.6108 224.4088,-781.7576 243.8427,-789.0473 315.4266,-788.3272 323.1287,-788.564 333.3379,-789.0863 351.2715,-791.103 356.5919,-791.9175 356.8027,-791.954 375.0256,-795.8629 401.9885,-802.74 406.0318,-800.3574 428.8964,-792.9156 448.5692,-786.9755 458.5518,-784.4448 "/>
<polyline fill="none" stroke="#000000" points="1153.9712,-376.4087 1160.866,-372.3355 1173.7483,-365.305 1184.9274,-359.9608 1201.3582,-352.8452 1202.1479,-352.5395 1213.8922,-348.257 1314.7242,-316.0782 1412.1974,-372.6084 1417.2396,-369.726 1434.5867,-360.9976 1440.36,-358.3611 1460.2122,-350.2052 1463.6633,-348.9504 1467.8943,-347.6075 1476.9073,-344.9534 1478.9242,-344.4062 1491.7095,-341.5226 1503.6533,-339.1055 1528.364,-335.2562 1588.4255,-301.7266 1618.3118,-237.8948 1619.1925,-218 1621.4542,-199.5868 1580.5464,-131.0334 1534.4865,-84.3736 1503.9302,-81.0653 1491.64,-79.4884 1488.777,-78.9493 1471.2974,-75.3037 1467.0808,-74.3405 1458.7321,-71.9313 1450.814,-69.4868 1444.4706,-67.4015 1437.0485,-64.8135 1429.8834,-62.173 1423.6622,-59.6337 1422.246,-60.8034 1416.1682,-65.4843 1314.7242,-140.8041 1279.6355,-128.9612 1270.8015,-126.2176 1260.1232,-123.4805 1255.1357,-122.3387 1245.2576,-120.3478 1233.3696,-118.6053 1232.3838,-118.4879 1231.0657,-118.403 1219.2733,-117.9634 1214.3152,-117.914 1212.8835,-117.9778 1204.108,-117.8928 1190.7291,-117.0351 1182.2367,-116.0293 1176.4358,-115.185 1165.9537,-113.0904 1165.6698,-113.0183 1161.4243,-111.8227 1150.3932,-114.4125 1150.2239,-114.4477 1142.4808,-115.8429 1137.6759,-116.5777 1135.4371,-116.8591 1126.5959,-117.4919 1117.8397,-117.8809 1112.7145,-117.9692 1107.8097,-118.3164 1100.4323,-118.0356 1096.7843,-117.9944 1092.0138,-118.1961 1084.0154,-118.3163 1077.4073,-118.7689 1076.4854,-118.8567 1063.5323,-120.4377 1044.8823,-124.2113 1044.2094,-124.3828 1044.0776,-124.4199 1021.2542,-132.0952 1015.1631,-134.6263 1014.3776,-134.2811 958.4139,-111.1861 940.9754,-114.3502 926.2485,-116.6296 914.2072,-117.5194 907.3877,-117.8391 902.4693,-117.8041 900.3826,-117.8508 895.9653,-118.0805 893.0486,-118.0745 887.7669,-117.9209 886.1948,-117.9217 885.9512,-117.9152 881.3546,-118.065 873.439,-118.1089 871.8794,-118.1637 863.8045,-118.0108 863.6133,-118.002 861.9441,-118.0239 852.8721,-117.6534 846.8256,-117.2432 837.846,-116.3916 835.1781,-116.067 833.9293,-116.7976 826.7961,-120.4767 823.0259,-122.2907 815.446,-125.6772 810.2446,-127.8196 801.0734,-130.9647 791.309,-133.6409 778.25,-136.3196 775.4073,-136.8032 768.3882,-137.5126 752.6548,-138.5596 747.6299,-139.2747 678.1755,-200.7558 667.473,-211.3462 666.3496,-212.392 657.8356,-220.7173 657.2612,-221.3608 655.0795,-223.5487 645.5104,-233.5783 645.1578,-238.9696 710.9465,-311.575 733.8048,-315.4259 741.1252,-316.4453 753.1422,-317.7658 756.8666,-317.9556 759.1545,-316.5274 773.2175,-308.2766 782.4749,-303.2163 792.3615,-298.6137 804.7485,-294.3294 811.7929,-292.1776 814.7197,-291.4025 817.7381,-290.8436 828.7166,-289.2438 836.5081,-288.7305 846.1066,-288.4819 847.1324,-288.4963 850.209,-288.4163 850.9126,-288.454 852.9444,-288.4816 854.3282,-288.4451 855.9055,-288.3399 868.8308,-288.5116 868.832,-288.5116 875.0909,-288.3417 877.2473,-288.3693 877.5482,-288.349 883.0469,-288.4169 886.1192,-288.3316 888.293,-288.1837 890.097,-288.1331 899.0876,-288.6015 905.046,-288.4319 912.5,-288.8148 920.9601,-289.9246 929.1924,-291.3323 930.9522,-291.7726 1015.1631,-316.2564 1030.1353,-339.5646 1050.4423,-369.6082 1085.5765,-417.3166 1097.9994,-409.7512 1107.1124,-404.6959 1114.3755,-400.7981 1121.0734,-397.3255 1127.4695,-394.2416 1138.1411,-386.4818 1153.9712,-376.4087 "/>
<polyline fill="none" stroke="#000000" points="889.527,-999.9536 879.6465,-996.3487 866.8643,-992.0035 863.9424,-991.1577 852.2342,-988.0592 792.0813,-976.6398 744.2071,-942.6877 743.492,-941.9011 723.7869,-883.7097 718.5064,-869.311 708.897,-844.9359 695.0847,-812.0627 717.965,-785.0396 714.9975,-691.9676 715.0543,-663.4513 714.1341,-649.6 714.1392,-647.0462 712.3466,-590.8252 714.5835,-587.0883 807.9502,-596.53 808.2539,-596.546 810.7881,-596.5585 817.0991,-596.2846 822.9761,-596.6342 828.9558,-596.41 831.2271,-596.5591 839.7697,-596.705 843.9236,-596.3738 850.0991,-596.8326 855.7375,-596.7077 856.788,-596.7381 861.5129,-596.6479 865.9379,-596.3515 877.4179,-594.4731 889.6917,-591.2761 1001.312,-556.9174 1042.6293,-546.0584 1043.6588,-549.4975 1051.1459,-556.7219 1066.7255,-571.305 1094.1057,-596.0995 1178.4965,-708.8354 1176.634,-723.934 1172.6285,-779.9134 1172.2836,-787.6005 1131.9243,-869.3045 1122.9576,-872.1562 1067.9097,-881.2302 1045.2211,-885.4561 1038.0482,-887.0933 1028.7959,-889.5956 1005.7664,-926.2949 928.1409,-987.7606 890.8926,-1000.5194 889.527,-999.9536 "/>
<polyline fill="none" stroke="#000000" points="1233.3696,-118.6053 1245.2576,-120.3478 1255.1357,-122.3387 1260.1232,-123.4805 1270.8015,-126.2176 1279.6355,-128.9612 1314.7242,-140.8041 1416.1682,-65.4843 1422.246,-60.8034 1423.6622,-59.6337 1417.0142,-35.8604 1415.0552,-27.4702 1393.4623,12.6666 1363.6982,71.6295 1337.0201,93.0409 1318.4908,102.1595 1279.9041,98.8062 1272.8333,98.3556 1259.1837,97.8033 1250.6672,97.8553 1250.0614,97.9012 1227.0358,100.1877 1213.5292,102.785 1208.2839,103.9152 1161.4243,115.0964 1159.3463,116.5046 1118.9277,118.4731 1107.7006,119.2349 1095.9343,120.4835 1093.9332,119.5075 1088.2504,116.8678 1077.7576,112.4788 1065.285,108.1206 1052.0552,104.1055 1044.8651,102.4197 1034.396,100.4419 1018.0675,98.1037 1016.4315,97.9072 958.7825,93.6295 958.4139,93.5221 922.6946,100.8206 897.0739,97.882 893.4426,97.6489 885.0408,97.321 870.3114,97.489 864.8905,97.8241 838.7964,100.0956 774.0657,62.5248 801.5325,-9.6527 807.9609,-33.5368 812.4935,-55.1929 815.2103,-63.5956 835.1781,-116.067 837.846,-116.3916 846.8256,-117.2432 852.8721,-117.6534 861.9441,-118.0239 863.6133,-118.002 863.8045,-118.0108 871.8794,-118.1637 873.439,-118.1089 881.3546,-118.065 885.9512,-117.9152 886.1948,-117.9217 887.7669,-117.9209 893.0486,-118.0745 895.9653,-118.0805 900.3826,-117.8508 902.4693,-117.8041 907.3877,-117.8391 914.2072,-117.5194 926.2485,-116.6296 940.9754,-114.3502 958.4139,-111.1861 1014.3776,-134.2811 1015.1631,-134.6263 1021.2542,-132.0952 1044.0776,-124.4199 1044.2094,-124.3828 1044.8823,-124.2113 1063.5323,-120.4377 1076.4854,-118.8567 1077.4073,-118.7689 1084.0154,-118.3163 1092.0138,-118.1961 1096.7843,-117.9944 1100.4323,-118.0356 1107.8097,-118.3164 1112.7145,-117.9692 1117.8397,-117.8809 1126.5959,-117.4919 1135.4371,-116.8591 1137.6759,-116.5777 1142.4808,-115.8429 1150.2239,-114.4477 1150.3932,-114.4125 1161.4243,-111.8227 1165.6698,-113.0183 1165.9537,-113.0904 1176.4358,-115.185 1182.2367,-116.0293 1190.7291,-117.0351 1204.108,-117.8928 1212.8835,-117.9778 1214.3152,-117.914 1219.2733,-117.9634 1231.0657,-118.403 1232.3838,-118.4879 1233.3696,-118.6053 "/>
<polyline fill="none" stroke="#000000" points="406.0318,-585.7375 395.7618,-583.4888 371.0197,-581.0704 353.5258,-577.4033 349.3462,-576.2202 334.7105,-570.9788 321.5306,-564.787 316.7877,-562.2074 316.6251,-561.74 315.4201,-556.6017 314.4176,-555.5355 304.0226,-545.1082 241.633,-486.5685 236.9436,-482.5615 244.1914,-456.249 246.5367,-445.7596 249.6808,-427.436 250.4077,-424.1492 251.4917,-420.1511 266.1572,-374.5481 270.8106,-373.5062 279.4602,-371.825 285.2278,-371.0458 294.0293,-370.1169 308.0224,-369.4696 309.3106,-369.4482 312.4594,-369.304 388.0245,-318.8153 396.0688,-313.0887 397.819,-311.7678 399.8084,-310.1787 407.391,-310.1952 408.5297,-310.1669 412.0851,-309.9821 414.6104,-310.1047 419.2604,-310.2046 426.4337,-310.1642 428.1926,-310.1065 432.3261,-310.0751 438.5427,-310.3408 444.8054,-310.4384 451.6029,-310.8855 463.1904,-312.23 466.3104,-312.67 484.9823,-357.2953 488.2469,-366.113 491.6625,-376.7462 502.4019,-416.3456 503.1862,-418.8021 514.0024,-444.6523 496.9863,-464.3299 491.6376,-490.0024 487.844,-514.3946 487.428,-523.5662 487.1147,-526.7086 485.3228,-538.3126 477.7549,-574.6373 464.9857,-578.5384 458.5499,-579.7255 447.9019,-581.2639 440.5299,-582.0305 438.9583,-582.1302 429.1049,-582.3585 417.1927,-583.5944 408.1286,-585.2662 406.0318,-585.7375 "/>
<!-- device&#45;mapper&#45;multipath&#45;&gt;device&#45;mapper&#45;multipath&#45;libs -->
<g id="edge1" class="edge">
<title>device&#45;mapper&#45;multipath&#45;&gt;device&#45;mapper&#45;multipath&#45;libs</title>
<path fill="none" stroke="#444444" stroke-opacity="0.333333" d="M485.8225,-184.3052C508.2551,-168.4904 541.0145,-145.3954 565.7013,-127.9914"/>
<polygon fill="#444444" fill-opacity="0.333333" stroke="#444444" stroke-opacity="0.333333" points="567.9101,-130.7166 574.0665,-122.094 563.8767,-124.9954 567.9101,-130.7166"/>
</g>
<!-- device&#45;mapper&#45;multipath&#45;&gt;initscripts -->
<g id="edge2" class="edge">
<title>device&#45;mapper&#45;multipath&#45;&gt;initscripts</title>
<path fill="none" stroke="#444444" stroke-opacity="0.333333" d="M413.5073,-220.5291C386.967,-230.8461 353.5475,-243.8372 325.5771,-254.7101"/>
<polygon fill="#444444" fill-opacity="0.333333" stroke="#444444" stroke-opacity="0.333333" points="323.9836,-251.5744 315.9312,-258.4598 326.5198,-258.0987 323.9836,-251.5744"/>
</g>
<!-- device&#45;mapper&#45;multipath&#45;&gt;kpartx -->
<g id="edge3" class="edge">
<title>device&#45;mapper&#45;multipath&#45;&gt;kpartx</title>
<path fill="none" stroke="#444444" stroke-opacity="0.333333" d="M443.6068,-184.1499C426.5484,-165.3645 399.8116,-135.9208 380.5727,-114.7341"/>
<polygon fill="#444444" fill-opacity="0.333333" stroke="#444444" stroke-opacity="0.333333" points="382.9158,-112.1081 373.6021,-107.0578 377.7336,-116.8139 382.9158,-112.1081"/>
</g>
<!-- device&#45;mapper&#45;multipath&#45;&gt;userspace&#45;rcu -->
<g id="edge4" class="edge">
<title>device&#45;mapper&#45;multipath&#45;&gt;userspace&#45;rcu</title>
<path fill="none" stroke="#444444" stroke-opacity="0.333333" d="M465.2956,-184.3287C472.1908,-160.0314 484.5243,-116.5709 492.6449,-87.9558"/>
<polygon fill="#444444" fill-opacity="0.333333" stroke="#444444" stroke-opacity="0.333333" points="496.0651,-88.7237 495.4282,-78.1481 489.3311,-86.8126 496.0651,-88.7237"/>
</g>
<!-- device&#45;mapper&#45;multipath&#45;libs&#45;&gt;userspace&#45;rcu -->
<g id="edge5" class="edge">
<title>device&#45;mapper&#45;multipath&#45;libs&#45;&gt;userspace&#45;rcu</title>
<path fill="none" stroke="#444444" stroke-opacity="0.333333" d="M559.3175,-85.7637C556.4611,-84.499 553.5638,-83.2161 550.665,-81.9326"/>
<polygon fill="#444444" fill-opacity="0.333333" stroke="#444444" stroke-opacity="0.333333" points="552.0108,-78.7008 541.45,-77.8525 549.1768,-85.1015 552.0108,-78.7008"/>
</g>
<!-- device&#45;mapper&#45;multipath&#45;libs&#45;&gt;libaio -->
<g id="edge6" class="edge">
<title>device&#45;mapper&#45;multipath&#45;libs&#45;&gt;libaio</title>
<path fill="none" stroke="#444444" stroke-opacity="0.333333" d="M653.3302,-85.6926C662.7289,-82.5014 672.5109,-79.18 681.901,-75.9918"/>
<polygon fill="#444444" fill-opacity="0.333333" stroke="#444444" stroke-opacity="0.333333" points="683.1682,-79.2578 691.512,-72.7285 680.9176,-72.6294 683.1682,-79.2578"/>
</g>
<!-- initscripts&#45;&gt;hostname -->
<g id="edge7" class="edge">
<title>initscripts&#45;&gt;hostname</title>
<path fill="none" stroke="#444444" stroke-opacity="0.333333" d="M239.4191,-258.5291C221.8185,-247.9627 199.385,-234.4949 180.4283,-223.1144"/>
<polygon fill="#444444" fill-opacity="0.333333" stroke="#444444" stroke-opacity="0.333333" points="182.0915,-220.0306 171.7163,-217.8842 178.4885,-226.0322 182.0915,-220.0306"/>
</g>
<!-- fcoe&#45;utils&#45;&gt;device&#45;mapper&#45;multipath -->
<g id="edge8" class="edge">
<title>fcoe&#45;utils&#45;&gt;device&#45;mapper&#45;multipath</title>
<path fill="none" stroke="#444444" stroke-opacity="0.333333" d="M574.9163,-348.6126C552.0482,-319.4716 507.1555,-262.2642 480.8111,-228.6932"/>
<polygon fill="#444444" fill-opacity="0.333333" stroke="#444444" stroke-opacity="0.333333" points="483.4647,-226.4052 474.5377,-220.699 477.9578,-230.7267 483.4647,-226.4052"/>
</g>
<!-- fcoe&#45;utils&#45;&gt;libpciaccess -->
<g id="edge9" class="edge">
<title>fcoe&#45;utils&#45;&gt;libpciaccess</title>
<path fill="none" stroke="#444444" stroke-opacity="0.333333" d="M588.2646,-384.869C586.7694,-413.0822 583.8648,-467.8924 582.0922,-501.3415"/>
<polygon fill="#444444" fill-opacity="0.333333" stroke="#444444" stroke-opacity="0.333333" points="578.5939,-501.2191 581.5597,-511.3903 585.5841,-501.5896 578.5939,-501.2191"/>
</g>
<!-- fcoe&#45;utils&#45;&gt;lldpad -->
<g id="edge10" class="edge">
<title>fcoe&#45;utils&#45;&gt;lldpad</title>
<path fill="none" stroke="#444444" stroke-opacity="0.333333" d="M647.7264,-384.8907C665.9308,-390.5072 685.8863,-396.6639 703.6787,-402.1533"/>
<polygon fill="#444444" fill-opacity="0.333333" stroke="#444444" stroke-opacity="0.333333" points="702.7285,-405.5229 713.3159,-405.1266 704.7922,-398.834 702.7285,-405.5229"/>
</g>
<!-- libpciaccess&#45;&gt;hwdata -->
<g id="edge11" class="edge">
<title>libpciaccess&#45;&gt;hwdata</title>
<path fill="none" stroke="#444444" stroke-opacity="0.333333" d="M583.7882,-547.5921C587.7537,-570.0951 594.5692,-608.7712 599.2342,-635.2435"/>
<polygon fill="#444444" fill-opacity="0.333333" stroke="#444444" stroke-opacity="0.333333" points="595.8444,-636.1753 601.0268,-645.4161 602.7382,-634.9604 595.8444,-636.1753"/>
</g>
<!-- lldpad&#45;&gt;libconfig -->
<g id="edge12" class="edge">
<title>lldpad&#45;&gt;libconfig</title>
<path fill="none" stroke="#444444" stroke-opacity="0.333333" d="M791.4884,-400.4184C802.9237,-394.5251 815.7775,-387.9008 827.8037,-381.703"/>
<polygon fill="#444444" fill-opacity="0.333333" stroke="#444444" stroke-opacity="0.333333" points="829.516,-384.7581 836.8016,-377.0659 826.3093,-378.5358 829.516,-384.7581"/>
</g>
<!-- lldpad&#45;&gt;libnl3 -->
<g id="edge13" class="edge">
<title>lldpad&#45;&gt;libnl3</title>
<path fill="none" stroke="#444444" stroke-opacity="0.333333" d="M768.7578,-436.6781C781.7112,-455.9406 802.2694,-486.5119 817.0384,-508.4744"/>
<polygon fill="#444444" fill-opacity="0.333333" stroke="#444444" stroke-opacity="0.333333" points="814.2936,-510.6647 822.7783,-517.0099 820.1023,-506.7585 814.2936,-510.6647"/>
</g>
<!-- ipset&#45;&gt;ipset&#45;libs -->
<g id="edge14" class="edge">
<title>ipset&#45;&gt;ipset&#45;libs</title>
<path fill="none" stroke="#444444" stroke-opacity="0.333333" d="M416.8314,-658C416.6757,-658 416.5198,-658 416.3638,-658"/>
<polygon fill="#444444" fill-opacity="0.333333" stroke="#444444" stroke-opacity="0.333333" points="419.2225,-654.5001 409.2225,-658 419.2224,-661.5001 419.2225,-654.5001"/>
</g>
<!-- iscsi&#45;initiator&#45;utils&#45;&gt;iscsi&#45;initiator&#45;utils&#45;iscsiuio -->
<g id="edge15" class="edge">
<title>iscsi&#45;initiator&#45;utils&#45;&gt;iscsi&#45;initiator&#45;utils&#45;iscsiuio</title>
<path fill="none" stroke="#444444" stroke-opacity="0.333333" d="M1030.9723,-211.3522C1030.8086,-211.351 1030.6448,-211.3498 1030.4811,-211.3486"/>
<polygon fill="#444444" fill-opacity="0.333333" stroke="#444444" stroke-opacity="0.333333" points="1033.1052,-207.8651 1023.0834,-211.3022 1033.0612,-214.865 1033.1052,-207.8651"/>
</g>
<!-- iscsi&#45;initiator&#45;utils&#45;&gt;isns&#45;utils&#45;libs -->
<g id="edge16" class="edge">
<title>iscsi&#45;initiator&#45;utils&#45;&gt;isns&#45;utils&#45;libs</title>
<path fill="none" stroke="#444444" stroke-opacity="0.333333" d="M1278.2671,-218C1304.4003,-218 1331.6934,-218 1356.9028,-218"/>
<polygon fill="#444444" fill-opacity="0.333333" stroke="#444444" stroke-opacity="0.333333" points="1357.1956,-221.5001 1367.1955,-218 1357.1955,-214.5001 1357.1956,-221.5001"/>
</g>
<!-- iscsi&#45;initiator&#45;utils&#45;iscsiuio&#45;&gt;iscsi&#45;initiator&#45;utils -->
<g id="edge17" class="edge">
<title>iscsi&#45;initiator&#45;utils&#45;iscsiuio&#45;&gt;iscsi&#45;initiator&#45;utils</title>
<path fill="none" stroke="#444444" stroke-opacity="0.333333" d="M1023.5101,-224.6955C1023.6688,-224.6947 1023.8274,-224.6938 1023.9861,-224.6929"/>
<polygon fill="#444444" fill-opacity="0.333333" stroke="#444444" stroke-opacity="0.333333" points="1021.1233,-228.2117 1031.1004,-224.6468 1021.0779,-221.2118 1021.1233,-228.2117"/>
</g>
<!-- kbd&#45;&gt;initscripts -->
<g id="edge18" class="edge">
<title>kbd&#45;&gt;initscripts</title>
<path fill="none" stroke="#444444" stroke-opacity="0.333333" d="M185.2441,-405.822C201.9313,-380.1929 232.5936,-333.1 251.9451,-303.3789"/>
<polygon fill="#444444" fill-opacity="0.333333" stroke="#444444" stroke-opacity="0.333333" points="255.0363,-305.0458 257.5596,-294.7558 249.1701,-301.2263 255.0363,-305.0458"/>
</g>
<!-- kbd&#45;&gt;kbd&#45;legacy -->
<g id="edge19" class="edge">
<title>kbd&#45;&gt;kbd&#45;legacy</title>
<path fill="none" stroke="#444444" stroke-opacity="0.333333" d="M176.7588,-441.9115C181.0021,-465.2344 188.4419,-506.1268 193.4347,-533.5692"/>
<polygon fill="#444444" fill-opacity="0.333333" stroke="#444444" stroke-opacity="0.333333" points="190.0469,-534.5021 195.2804,-543.7141 196.9338,-533.2491 190.0469,-534.5021"/>
</g>
<!-- kbd&#45;&gt;kbd&#45;misc -->
<g id="edge20" class="edge">
<title>kbd&#45;&gt;kbd&#45;misc</title>
<path fill="none" stroke="#444444" stroke-opacity="0.333333" d="M146.3557,-437.4459C132.4209,-444.4101 115.0713,-453.0809 99.1806,-461.0226"/>
<polygon fill="#444444" fill-opacity="0.333333" stroke="#444444" stroke-opacity="0.333333" points="97.4103,-457.9945 90.0298,-465.5959 100.5396,-464.2561 97.4103,-457.9945"/>
</g>
<!-- kexec&#45;tools&#45;&gt;dracut&#45;network -->
<g id="edge21" class="edge">
<title>kexec&#45;tools&#45;&gt;dracut&#45;network</title>
<path fill="none" stroke="#444444" stroke-opacity="0.333333" d="M903.6709,-737.437C892.8173,-722.5413 877.3841,-701.3605 865.1832,-684.6157"/>
<polygon fill="#444444" fill-opacity="0.333333" stroke="#444444" stroke-opacity="0.333333" points="867.8567,-682.3414 859.139,-676.3204 862.1992,-686.4637 867.8567,-682.3414"/>
</g>
<!-- kexec&#45;tools&#45;&gt;ethtool -->
<g id="edge22" class="edge">
<title>kexec&#45;tools&#45;&gt;ethtool</title>
<path fill="none" stroke="#444444" stroke-opacity="0.333333" d="M908.9886,-774.1166C901.1865,-791.7399 889.2754,-818.6444 880.3145,-838.8851"/>
<polygon fill="#444444" fill-opacity="0.333333" stroke="#444444" stroke-opacity="0.333333" points="877.0312,-837.6554 876.1834,-848.2163 883.432,-840.4892 877.0312,-837.6554"/>
</g>
<!-- kexec&#45;tools&#45;&gt;snappy -->
<g id="edge23" class="edge">
<title>kexec&#45;tools&#45;&gt;snappy</title>
<path fill="none" stroke="#444444" stroke-opacity="0.333333" d="M986.7801,-748.3849C986.9426,-748.3676 987.1051,-748.3502 987.2674,-748.3328"/>
<polygon fill="#444444" fill-opacity="0.333333" stroke="#444444" stroke-opacity="0.333333" points="984.9182,-752.1042 994.4892,-747.5604 984.1736,-745.1439 984.9182,-752.1042"/>
</g>
<!-- libblockdev&#45;&gt;libblockdev&#45;utils -->
<g id="edge24" class="edge">
<title>libblockdev&#45;&gt;libblockdev&#45;utils</title>
<path fill="none" stroke="#444444" stroke-opacity="0.333333" d="M1173.4049,-18C1173.2447,-18 1173.0843,-18 1172.9239,-18"/>
<polygon fill="#444444" fill-opacity="0.333333" stroke="#444444" stroke-opacity="0.333333" points="1175.6538,-14.5001 1165.6537,-18 1175.6537,-21.5001 1175.6538,-14.5001"/>
</g>
<!-- libblockdev&#45;utils&#45;&gt;parted -->
<g id="edge25" class="edge">
<title>libblockdev&#45;utils&#45;&gt;parted</title>
<path fill="none" stroke="#444444" stroke-opacity="0.333333" d="M961.3259,-18C952.7798,-18 944.3781,-18 936.4342,-18"/>
<polygon fill="#444444" fill-opacity="0.333333" stroke="#444444" stroke-opacity="0.333333" points="936.2812,-14.5001 926.2811,-18 936.2811,-21.5001 936.2812,-14.5001"/>
</g>
<!-- passwd&#45;&gt;libuser -->
<g id="edge26" class="edge">
<title>passwd&#45;&gt;libuser</title>
<path fill="none" stroke="#444444" stroke-opacity="0.333333" d="M410.952,-488.1548C410.9138,-476.0914 410.8631,-460.0603 410.8198,-446.368"/>
<polygon fill="#444444" fill-opacity="0.333333" stroke="#444444" stroke-opacity="0.333333" points="414.3187,-445.9978 410.787,-436.0089 407.3187,-446.02 414.3187,-445.9978"/>
</g>
<!-- usermode&#45;&gt;passwd -->
<g id="edge27" class="edge">
<title>usermode&#45;&gt;passwd</title>
<path fill="none" stroke="#444444" stroke-opacity="0.333333" d="M365.7382,-480.6346C367.2773,-481.5137 368.8313,-482.4012 370.3899,-483.2913"/>
<polygon fill="#444444" fill-opacity="0.333333" stroke="#444444" stroke-opacity="0.333333" points="368.8755,-486.457 379.2949,-488.3771 372.3471,-480.3784 368.8755,-486.457"/>
</g>
<!-- usermode&#45;&gt;libuser -->
<g id="edge28" class="edge">
<title>usermode&#45;&gt;libuser</title>
<path fill="none" stroke="#444444" stroke-opacity="0.333333" d="M365.1794,-444.3883C366.9231,-443.3781 368.6873,-442.3561 370.4568,-441.331"/>
<polygon fill="#444444" fill-opacity="0.333333" stroke="#444444" stroke-opacity="0.333333" points="372.3807,-444.2614 379.2791,-436.2201 368.8717,-438.2044 372.3807,-444.2614"/>
</g>
<!-- device&#45;mapper&#45;multipath -->
<g id="node1" class="node">
<title>device&#45;mapper&#45;multipath</title>
<text text-anchor="middle" x="460.17" y="-198.69" font-family="monospace" font-size="14.00" fill="#000000">device&#45;mapper&#45;multipath</text>
</g>
<!-- device&#45;mapper&#45;multipath&#45;libs -->
<g id="node2" class="node">
<title>device&#45;mapper&#45;multipath&#45;libs</title>
<text text-anchor="middle" x="600.03" y="-100.09" font-family="monospace" font-size="14.00" fill="#000000">device&#45;mapper&#45;multipath&#45;libs</text>
</g>
<!-- initscripts -->
<g id="node3" class="node">
<title>initscripts</title>
<text text-anchor="middle" x="269.42" y="-272.84" font-family="monospace" font-size="14.00" fill="#000000">initscripts</text>
</g>
<!-- kpartx -->
<g id="node4" class="node">
<title>kpartx</title>
<text text-anchor="middle" x="357.08" y="-85.163" font-family="monospace" font-size="14.00" fill="#000000">kpartx</text>
</g>
<!-- userspace&#45;rcu -->
<g id="node5" class="node">
<title>userspace&#45;rcu</title>
<text text-anchor="middle" x="500.64" y="-56.083" font-family="monospace" font-size="14.00" fill="#000000">userspace&#45;rcu</text>
</g>
<!-- libaio -->
<g id="node6" class="node">
<title>libaio</title>
<text text-anchor="middle" x="734.89" y="-54.3" font-family="monospace" font-size="14.00" fill="#000000">libaio</text>
</g>
<!-- hostname -->
<g id="node7" class="node">
<title>hostname</title>
<text text-anchor="middle" x="141.46" y="-196.02" font-family="monospace" font-size="14.00" fill="#000000">hostname</text>
</g>
<!-- fcoe&#45;utils -->
<g id="node8" class="node">
<title>fcoe&#45;utils</title>
<text text-anchor="middle" x="589.22" y="-363.14" font-family="monospace" font-size="14.00" fill="#000000">fcoe&#45;utils</text>
</g>
<!-- libpciaccess -->
<g id="node9" class="node">
<title>libpciaccess</title>
<text text-anchor="middle" x="580.6" y="-525.8" font-family="monospace" font-size="14.00" fill="#000000">libpciaccess</text>
</g>
<!-- lldpad -->
<g id="node10" class="node">
<title>lldpad</title>
<text text-anchor="middle" x="756.5" y="-414.75" font-family="monospace" font-size="14.00" fill="#000000">lldpad</text>
</g>
<!-- hwdata -->
<g id="node11" class="node">
<title>hwdata</title>
<text text-anchor="middle" x="604.24" y="-659.95" font-family="monospace" font-size="14.00" fill="#000000">hwdata</text>
</g>
<!-- libconfig -->
<g id="node12" class="node">
<title>libconfig</title>
<text text-anchor="middle" x="872.07" y="-355.19" font-family="monospace" font-size="14.00" fill="#000000">libconfig</text>
</g>
<!-- libnl3 -->
<g id="node13" class="node">
<title>libnl3</title>
<text text-anchor="middle" x="834.95" y="-531.41" font-family="monospace" font-size="14.00" fill="#000000">libnl3</text>
</g>
<!-- ipset -->
<g id="node14" class="node">
<title>ipset</title>
<text text-anchor="middle" x="454.4" y="-654.3" font-family="monospace" font-size="14.00" fill="#000000">ipset</text>
</g>
<!-- ipset&#45;libs -->
<g id="node15" class="node">
<title>ipset&#45;libs</title>
<text text-anchor="middle" x="344.34" y="-654.3" font-family="monospace" font-size="14.00" fill="#000000">ipset&#45;libs</text>
</g>
<!-- iscsi&#45;initiator&#45;utils -->
<g id="node16" class="node">
<title>iscsi&#45;initiator&#45;utils</title>
<text text-anchor="middle" x="1154.7" y="-214.3" font-family="monospace" font-size="14.00" fill="#000000">iscsi&#45;initiator&#45;utils</text>
</g>
<!-- iscsi&#45;initiator&#45;utils&#45;iscsiuio -->
<g id="node17" class="node">
<title>iscsi&#45;initiator&#45;utils&#45;iscsiuio</title>
<text text-anchor="middle" x="851.58" y="-214.3" font-family="monospace" font-size="14.00" fill="#000000">iscsi&#45;initiator&#45;utils&#45;iscsiuio</text>
</g>
<!-- isns&#45;utils&#45;libs -->
<g id="node18" class="node">
<title>isns&#45;utils&#45;libs</title>
<text text-anchor="middle" x="1458.5" y="-214.3" font-family="monospace" font-size="14.00" fill="#000000">isns&#45;utils&#45;libs</text>
</g>
<!-- kbd -->
<g id="node19" class="node">
<title>kbd</title>
<text text-anchor="middle" x="173.48" y="-420.19" font-family="monospace" font-size="14.00" fill="#000000">kbd</text>
</g>
<!-- kbd&#45;legacy -->
<g id="node20" class="node">
<title>kbd&#45;legacy</title>
<text text-anchor="middle" x="198.56" y="-558.04" font-family="monospace" font-size="14.00" fill="#000000">kbd&#45;legacy</text>
</g>
<!-- kbd&#45;misc -->
<g id="node21" class="node">
<title>kbd&#45;misc</title>
<text text-anchor="middle" x="53.945" y="-479.93" font-family="monospace" font-size="14.00" fill="#000000">kbd&#45;misc</text>
</g>
<!-- kexec&#45;tools -->
<g id="node22" class="node">
<title>kexec&#45;tools</title>
<text text-anchor="middle" x="917.08" y="-752.14" font-family="monospace" font-size="14.00" fill="#000000">kexec&#45;tools</text>
</g>
<!-- dracut&#45;network -->
<g id="node23" class="node">
<title>dracut&#45;network</title>
<text text-anchor="middle" x="845.79" y="-654.3" font-family="monospace" font-size="14.00" fill="#000000">dracut&#45;network</text>
</g>
<!-- ethtool -->
<g id="node24" class="node">
<title>ethtool</title>
<text text-anchor="middle" x="868.08" y="-862.82" font-family="monospace" font-size="14.00" fill="#000000">ethtool</text>
</g>
<!-- snappy -->
<g id="node25" class="node">
<title>snappy</title>
<text text-anchor="middle" x="1037.5" y="-739.26" font-family="monospace" font-size="14.00" fill="#000000">snappy</text>
</g>
<!-- libblockdev -->
<g id="node26" class="node">
<title>libblockdev</title>
<text text-anchor="middle" x="1243.1" y="-14.3" font-family="monospace" font-size="14.00" fill="#000000">libblockdev</text>
</g>
<!-- libblockdev&#45;utils -->
<g id="node27" class="node">
<title>libblockdev&#45;utils</title>
<text text-anchor="middle" x="1063.5" y="-14.3" font-family="monospace" font-size="14.00" fill="#000000">libblockdev&#45;utils</text>
</g>
<!-- parted -->
<g id="node28" class="node">
<title>parted</title>
<text text-anchor="middle" x="882.9" y="-14.3" font-family="monospace" font-size="14.00" fill="#000000">parted</text>
</g>
<!-- passwd -->
<g id="node29" class="node">
<title>passwd</title>
<text text-anchor="middle" x="411.01" y="-502.79" font-family="monospace" font-size="14.00" fill="#000000">passwd</text>
</g>
<!-- libuser -->
<g id="node30" class="node">
<title>libuser</title>
<text text-anchor="middle" x="410.73" y="-414.3" font-family="monospace" font-size="14.00" fill="#000000">libuser</text>
</g>
<!-- usermode -->
<g id="node31" class="node">
<title>usermode</title>
<text text-anchor="middle" x="333.95" y="-458.78" font-family="monospace" font-size="14.00" fill="#000000">usermode</text>
</g>
</g>
</svg>
