<?xml version="1.0" encoding="UTF-8" standalone="no"?>
<!DOCTYPE svg PUBLIC "-//W3C//DTD SVG 1.1//EN"
 "http://www.w3.org/Graphics/SVG/1.1/DTD/svg11.dtd">
<!-- Generated by graphviz version 2.40.1 (20161225.0304)
 -->
<!-- Title: G Pages: 1 -->
<svg width="1133pt" height="829pt"
 viewBox="0.00 0.00 1133.38 829.04" xmlns="http://www.w3.org/2000/svg" xmlns:xlink="http://www.w3.org/1999/xlink">
<g id="graph0" class="graph" transform="scale(1 1) rotate(0) translate(111.0511 694.4161)">
<title>G</title>
<polygon fill="#dae2ff" stroke="transparent" points="-111.0511,134.6286 -111.0511,-694.4161 1022.3278,-694.4161 1022.3278,134.6286 -111.0511,134.6286"/>
<polygon fill="#fbb4ae" stroke="#fbb4ae" points="545.498,-216.1378 550.9226,-216.5261 558.295,-216.7527 558.994,-285.6595 559.282,-285.7371 559.74,-286.3815 563.6454,-289.5068 568.9016,-290.9305 573.6586,-289.6727 577.8481,-286.3632 578.3569,-286.3632 579.3708,-342.4177 585.808,-336.8533 587.163,-335.8143 593.8479,-331.2988 593.1727,-291.6405 644.7798,-298.3885 643.976,-299.2345 643.1802,-299.9915 633.3467,-307.5934 633.3467,-307.5934 643.1802,-299.9915 643.976,-299.2345 644.7798,-298.3885 655.5786,-288.3396 655.8459,-288.1151 652.6677,-356.4378 658.2062,-356.4378 656.3638,-287.6425 664.5177,-279.568 675.5635,-266.9344 675.2001,-321.1949 677.847,-351.9807 671.8138,-355.2704 670.6908,-356.4322 673.2598,-359.2248 677.0762,-361.1912 681.903,-361.1912 687.2133,-358.17 688.7689,-356.4003 692.471,-356.4003 692.7606,-356.3213 696.4638,-356.3213 697.7656,-356.6745 700.9993,-356.6745 701.2164,-356.6155 701.2164,-356.6155 700.9993,-356.6745 697.7656,-356.6745 696.4638,-356.3213 692.7606,-356.3213 692.471,-356.4003 688.7689,-356.4003 687.2133,-358.17 681.903,-361.1912 677.0762,-361.1912 673.2598,-359.2248 670.6908,-356.4322 671.8138,-355.2704 677.847,-351.9807 675.2001,-321.1949 675.5635,-266.9344 664.5177,-279.568 656.3638,-287.6425 658.2062,-356.4378 652.6677,-356.4378 655.8459,-288.1151 655.5786,-288.3396 644.7798,-298.3885 593.1727,-291.6405 593.8479,-331.2988 587.163,-335.8143 585.808,-336.8533 579.3708,-342.4177 578.3569,-286.3632 577.8481,-286.3632 573.6586,-289.6727 568.9016,-290.9305 563.6454,-289.5068 559.74,-286.3815 559.282,-285.7371 558.994,-285.6595 558.295,-216.7527 566.2114,-216.6716 566.5482,-216.682 566.7275,-216.6802 571.5217,-216.829 571.9542,-216.8602 576.8462,-217.0128 579.7385,-216.7483 586.397,-216.687 593.2518,-217.19 597.596,-217.1518 604.1409,-217.3635 611.7763,-218.2396 622.283,-219.878 699.7864,-235.1006 702.3237,-234.0972 716.9863,-227.174 724.9092,-222.8259 736.0302,-216.4362 740.3233,-228.9597 773.4718,-319.5398 775.5747,-326.6034 779.1716,-348.6923 781.9489,-360.7039 801.8822,-415.1728 820.8386,-421.9834 834.1873,-427.2004 840.5052,-430.058 850.3494,-435.1253 860.4345,-440.9473 869.8637,-446.6812 909.221,-474.2558 899.3441,-496.9969 895.5979,-506.8008 871.5217,-574.4426 758.112,-684.9146 762.9082,-506.26 758.1968,-502.179 758.1968,-502.179 762.9082,-506.26 758.112,-684.9146 754.1678,-688.8687 752.7494,-690.4161 749.5387,-689.5063 747.8826,-688.7341 733.1015,-682.0944 728.2856,-680.0983 713.8664,-674.616 711.6982,-673.8667 693.0434,-667.7394 677.8047,-663.7906 675.4623,-663.2647 508.2917,-535.691 508.9142,-510.4869 508.5901,-482.5869 489.7089,-443.1987 433.1269,-388.8336 446.2378,-296.5584 448.4526,-268.2496 448.8669,-265.3604 451.4941,-241.5639 457.0315,-202.591 545.498,-216.1378 545.498,-216.1378"/>
<polygon fill="#fed9a6" stroke="#fed9a6" points="1000.5107,-100.0443 997.1505,-79.9846 993.516,-54.1191 952.463,13.6696 887.3818,37.2827 871.4354,43.4389 863.9136,46.6848 842.3764,56.9688 840.4272,56.9436 836.5756,56.9621 713.8764,-5.104 731.7723,-100.9579 733.1536,-111.203 733.3431,-112.3727 740.801,-167.3173 747.2801,-202.0201 736.0302,-216.4362 740.3233,-228.9597 773.4718,-319.5398 775.5747,-326.6034 779.1716,-348.6923 781.9489,-360.7039 801.8822,-415.1728 820.8386,-421.9834 834.1873,-427.2004 840.5052,-430.058 850.3494,-435.1253 860.4345,-440.9473 869.8637,-446.6812 909.221,-474.2558 992.0029,-436.0703 1018.3278,-390.3877 1009.4636,-352.3222 1000.7994,-310.9041 986.0176,-218.0988 887.1508,-214.7589 875.7748,-214.6803 872.0068,-296.9321 872.0068,-296.9321 875.7748,-214.6803 887.1508,-214.7589 986.0176,-218.0988 1000.9246,-196.2841 1004.688,-135.6951 1005.5368,-125.9396 1000.5107,-100.0443 1000.5107,-100.0443"/>
<polygon fill="#ccebc5" stroke="#ccebc5" points="-99.3979,-351.8768 -98.9146,-349.7032 -88.2775,-295.6108 -80.9894,-252.4492 -75.3148,-244.3337 -18.3278,-200.9674 26.6606,-200.8954 40.1908,-200.2782 50.4778,-199.3562 53.8566,-198.9792 64.5175,-197.5551 65.8904,-197.3116 136.5169,-183.2233 178.7581,-121.3356 244.9158,-57.2994 252.6326,-62.7662 273.6974,-78.2085 294.3033,-92.4067 297.6137,-94.6106 316.243,-105.3449 336.0896,-115.441 336.5212,-115.6406 351.8023,-122.0273 353.5972,-122.7364 428.6046,-150.6734 433.0914,-152.45 452.0583,-133.8759 460.5929,-126.6312 470.1336,-118.9414 474.9395,-115.2817 475.9094,-114.4869 489.2049,-105.3939 491.6726,-103.8205 494.4309,-102.1868 501.4176,-98.3596 516.9465,-91.234 517.6355,-90.9502 528.9796,-87.2942 562.6535,-77.9818 574.1915,-73.7601 588.4134,-67.293 599.053,-61.0567 613.2987,-51.4435 613.9991,-50.9415 633.857,-34.9559 688.0975,3.7736 713.8764,-5.104 731.7723,-100.9579 733.1536,-111.203 733.3431,-112.3727 740.801,-167.3173 747.2801,-202.0201 736.0302,-216.4362 724.9092,-222.8259 716.9863,-227.174 702.3237,-234.0972 699.7864,-235.1006 622.283,-219.878 611.7763,-218.2396 604.1409,-217.3635 597.596,-217.1518 593.2518,-217.19 586.397,-216.687 579.7385,-216.7483 576.8462,-217.0128 571.9542,-216.8602 571.5217,-216.829 566.7275,-216.6802 566.5482,-216.682 566.2114,-216.6716 558.295,-216.7527 550.9226,-216.5261 545.498,-216.1378 457.0315,-202.591 451.4941,-241.5639 448.8669,-265.3604 448.4526,-268.2496 446.2378,-296.5584 433.1269,-388.8336 357.5196,-385.187 342.2122,-384.7798 338.11,-384.8484 326.4562,-385.5489 313.4823,-386.892 309.8384,-387.3481 307.3759,-387.7094 300.5851,-388.8532 299.7953,-298.1623 302.731,-259.6281 302.8145,-259.6043 305.5408,-259.6043 307.6585,-257.2164 311.657,-255.0618 311.657,-255.0618 307.6585,-257.2164 305.5408,-259.6043 302.8145,-259.6043 302.731,-259.6281 299.7953,-298.1623 300.5851,-388.8532 289.2347,-391.2579 276.24,-394.574 278.2423,-314.5135 278.2423,-314.5135 276.24,-394.574 213.1318,-413.3942 211.9963,-413.3517 111.1552,-500.198 65.1504,-508.1511 62.985,-508.5611 60.2162,-509.131 59.8616,-509.2157 39.5528,-514.4122 37.7862,-513.8401 29.7988,-511.5232 24.4735,-506.1909 -107.0511,-382.7277 -99.3979,-351.8768 -99.3979,-351.8768"/>
<polygon fill="#fbb4ae" stroke="#fbb4ae" points="441.3063,123.992 440.7828,123.7324 268.7598,42.4738 244.5905,12.2593 244.8209,5.2019 244.9158,-57.2994 252.6326,-62.7662 273.6974,-78.2085 294.3033,-92.4067 297.6137,-94.6106 316.243,-105.3449 336.0896,-115.441 336.5212,-115.6406 351.8023,-122.0273 353.5972,-122.7364 428.6046,-150.6734 433.0914,-152.45 452.0583,-133.8759 460.5929,-126.6312 470.1336,-118.9414 474.9395,-115.2817 475.9094,-114.4869 489.2049,-105.3939 491.6726,-103.8205 494.4309,-102.1868 501.4176,-98.3596 516.9465,-91.234 517.6355,-90.9502 528.9796,-87.2942 562.6535,-77.9818 574.1915,-73.7601 588.4134,-67.293 599.053,-61.0567 613.2987,-51.4435 613.9991,-50.9415 633.857,-34.9559 688.0975,3.7736 668.5798,25.2422 596.9449,107.5472 538.4174,112.106 517.6752,114.1588 508.2953,115.4788 503.4868,116.2556 500.3231,116.8325 493.4107,118.3825 488.5442,119.5759 479.8073,121.9018 474.995,123.2833 474.914,123.3082 462.4362,127.4138 458.0601,129.0361 453.9955,130.6286 453.2279,130.4504 442.4715,124.5976 441.3063,123.992 441.3063,123.992"/>
<polyline fill="none" stroke="#000000" points="713.8664,-674.616 728.2856,-680.0983 733.1015,-682.0944 747.8826,-688.7341 749.5387,-689.5063 752.7494,-690.4161 754.1678,-688.8687 758.112,-684.9146 871.5217,-574.4426 895.5979,-506.8008 899.3441,-496.9969 909.221,-474.2558 869.8637,-446.6812 860.4345,-440.9473 850.3494,-435.1253 840.5052,-430.058 834.1873,-427.2004 820.8386,-421.9834 801.8822,-415.1728 781.9489,-360.7039 779.1716,-348.6923 775.5747,-326.6034 773.4718,-319.5398 740.3233,-228.9597 736.0302,-216.4362 724.9092,-222.8259 716.9863,-227.174 702.3237,-234.0972 699.7864,-235.1006 622.283,-219.878 611.7763,-218.2396 604.1409,-217.3635 597.596,-217.1518 593.2518,-217.19 586.397,-216.687 579.7385,-216.7483 576.8462,-217.0128 571.9542,-216.8602 571.5217,-216.829 566.7275,-216.6802 566.5482,-216.682 566.2114,-216.6716 558.295,-216.7527 550.9226,-216.5261 545.498,-216.1378 457.0315,-202.591 451.4941,-241.5639 448.8669,-265.3604 448.4526,-268.2496 446.2378,-296.5584 433.1269,-388.8336 489.7089,-443.1987 508.5901,-482.5869 508.9142,-510.4869 508.2917,-535.691 675.4623,-663.2647 677.8047,-663.7906 693.0434,-667.7394 711.6982,-673.8667 713.8664,-674.616 "/>
<polyline fill="none" stroke="#000000" points="840.5052,-430.058 834.1873,-427.2004 820.8386,-421.9834 801.8822,-415.1728 781.9489,-360.7039 779.1716,-348.6923 775.5747,-326.6034 773.4718,-319.5398 740.3233,-228.9597 736.0302,-216.4362 747.2801,-202.0201 740.801,-167.3173 733.3431,-112.3727 733.1536,-111.203 731.7723,-100.9579 713.8764,-5.104 836.5756,56.9621 840.4272,56.9436 842.3764,56.9688 863.9136,46.6848 871.4354,43.4389 887.3818,37.2827 952.463,13.6696 993.516,-54.1191 997.1505,-79.9846 1000.5107,-100.0443 1005.5368,-125.9396 1004.688,-135.6951 1000.9246,-196.2841 986.0176,-218.0988 1000.7994,-310.9041 1009.4636,-352.3222 1018.3278,-390.3877 992.0029,-436.0703 909.221,-474.2558 869.8637,-446.6812 860.4345,-440.9473 850.3494,-435.1253 840.5052,-430.058 "/>
<polyline fill="none" stroke="#000000" points="586.397,-216.687 593.2518,-217.19 597.596,-217.1518 604.1409,-217.3635 611.7763,-218.2396 622.283,-219.878 699.7864,-235.1006 702.3237,-234.0972 716.9863,-227.174 724.9092,-222.8259 736.0302,-216.4362 747.2801,-202.0201 740.801,-167.3173 733.3431,-112.3727 733.1536,-111.203 731.7723,-100.9579 713.8764,-5.104 688.0975,3.7736 633.857,-34.9559 613.9991,-50.9415 613.2987,-51.4435 599.053,-61.0567 588.4134,-67.293 574.1915,-73.7601 562.6535,-77.9818 528.9796,-87.2942 517.6355,-90.9502 516.9465,-91.234 501.4176,-98.3596 494.4309,-102.1868 491.6726,-103.8205 489.2049,-105.3939 475.9094,-114.4869 474.9395,-115.2817 470.1336,-118.9414 460.5929,-126.6312 452.0583,-133.8759 433.0914,-152.45 428.6046,-150.6734 353.5972,-122.7364 351.8023,-122.0273 336.5212,-115.6406 336.0896,-115.441 316.243,-105.3449 297.6137,-94.6106 294.3033,-92.4067 273.6974,-78.2085 252.6326,-62.7662 244.9158,-57.2994 178.7581,-121.3356 136.5169,-183.2233 65.8904,-197.3116 64.5175,-197.5551 53.8566,-198.9792 50.4778,-199.3562 40.1908,-200.2782 26.6606,-200.8954 -18.3278,-200.9674 -75.3148,-244.3337 -80.9894,-252.4492 -88.2775,-295.6108 -98.9146,-349.7032 -99.3979,-351.8768 -107.0511,-382.7277 24.4735,-506.1909 29.7988,-511.5232 37.7862,-513.8401 39.5528,-514.4122 59.8616,-509.2157 60.2162,-509.131 62.985,-508.5611 65.1504,-508.1511 111.1552,-500.198 211.9963,-413.3517 213.1318,-413.3942 276.24,-394.574 289.2347,-391.2579 300.5851,-388.8532 307.3759,-387.7094 309.8384,-387.3481 313.4823,-386.892 326.4562,-385.5489 338.11,-384.8484 342.2122,-384.7798 357.5196,-385.187 433.1269,-388.8336 446.2378,-296.5584 448.4526,-268.2496 448.8669,-265.3604 451.4941,-241.5639 457.0315,-202.591 545.498,-216.1378 550.9226,-216.5261 558.295,-216.7527 566.2114,-216.6716 566.5482,-216.682 566.7275,-216.6802 571.5217,-216.829 571.9542,-216.8602 576.8462,-217.0128 579.7385,-216.7483 586.397,-216.687 "/>
<polyline fill="none" stroke="#000000" points="489.2049,-105.3939 491.6726,-103.8205 494.4309,-102.1868 501.4176,-98.3596 516.9465,-91.234 517.6355,-90.9502 528.9796,-87.2942 562.6535,-77.9818 574.1915,-73.7601 588.4134,-67.293 599.053,-61.0567 613.2987,-51.4435 613.9991,-50.9415 633.857,-34.9559 688.0975,3.7736 668.5798,25.2422 596.9449,107.5472 538.4174,112.106 517.6752,114.1588 508.2953,115.4788 503.4868,116.2556 500.3231,116.8325 493.4107,118.3825 488.5442,119.5759 479.8073,121.9018 474.995,123.2833 474.914,123.3082 462.4362,127.4138 458.0601,129.0361 453.9955,130.6286 453.2279,130.4504 442.4715,124.5976 441.3063,123.992 440.7828,123.7324 268.7598,42.4738 244.5905,12.2593 244.8209,5.2019 244.9158,-57.2994 252.6326,-62.7662 273.6974,-78.2085 294.3033,-92.4067 297.6137,-94.6106 316.243,-105.3449 336.0896,-115.441 336.5212,-115.6406 351.8023,-122.0273 353.5972,-122.7364 428.6046,-150.6734 433.0914,-152.45 452.0583,-133.8759 460.5929,-126.6312 470.1336,-118.9414 474.9395,-115.2817 475.9094,-114.4869 489.2049,-105.3939 "/>
<!-- rubygem&#45;bundler&#45;&gt;rubypick -->
<g id="edge1" class="edge">
<title>rubygem&#45;bundler&#45;&gt;rubypick</title>
<path fill="none" stroke="#444444" stroke-opacity="0.333333" d="M733.2052,-482.0937C756.1941,-450.7826 803.3452,-386.5622 829.877,-350.4256"/>
<polygon fill="#444444" fill-opacity="0.333333" stroke="#444444" stroke-opacity="0.333333" points="832.7404,-352.4395 835.8374,-342.3074 827.0979,-348.2968 832.7404,-352.4395"/>
</g>
<!-- rubygem&#45;bundler&#45;&gt;rubygem&#45;io&#45;console -->
<g id="edge2" class="edge">
<title>rubygem&#45;bundler&#45;&gt;rubygem&#45;io&#45;console</title>
<path fill="none" stroke="#444444" stroke-opacity="0.333333" d="M714.799,-482.0817C707.9533,-457.479 695.6786,-413.3658 687.6625,-384.5573"/>
<polygon fill="#444444" fill-opacity="0.333333" stroke="#444444" stroke-opacity="0.333333" points="690.9725,-383.3964 684.9199,-374.7006 684.2287,-385.2729 690.9725,-383.3964"/>
</g>
<!-- rubygem&#45;bundler&#45;&gt;rubygems -->
<g id="edge3" class="edge">
<title>rubygem&#45;bundler&#45;&gt;rubygems</title>
<path fill="none" stroke="#444444" stroke-opacity="0.333333" d="M706.973,-482.0032C680.2013,-444.0552 618.4759,-356.5615 587.36,-312.4557"/>
<polygon fill="#444444" fill-opacity="0.333333" stroke="#444444" stroke-opacity="0.333333" points="590.189,-310.3942 581.5643,-304.2406 584.4691,-314.4295 590.189,-310.3942"/>
</g>
<!-- rubypick&#45;&gt;ruby -->
<g id="edge4" class="edge">
<title>rubypick&#45;&gt;ruby</title>
<path fill="none" stroke="#444444" stroke-opacity="0.333333" d="M854.5078,-306.2106C861.0426,-268.0526 868.4128,-178.8552 869.0767,-133.0358"/>
<polygon fill="#444444" fill-opacity="0.333333" stroke="#444444" stroke-opacity="0.333333" points="872.577,-132.9102 869.1032,-122.901 865.577,-132.8918 872.577,-132.9102"/>
</g>
<!-- rubygem&#45;io&#45;console&#45;&gt;rubygems -->
<g id="edge5" class="edge">
<title>rubygem&#45;io&#45;console&#45;&gt;rubygems</title>
<path fill="none" stroke="#444444" stroke-opacity="0.333333" d="M651.5544,-338.6518C637.6777,-329.8358 620.792,-319.1081 605.8944,-309.6436"/>
<polygon fill="#444444" fill-opacity="0.333333" stroke="#444444" stroke-opacity="0.333333" points="607.708,-306.6492 597.3905,-304.241 603.9543,-312.5577 607.708,-306.6492"/>
</g>
<!-- rubygem&#45;io&#45;console&#45;&gt;ruby&#45;libs -->
<g id="edge6" class="edge">
<title>rubygem&#45;io&#45;console&#45;&gt;ruby&#45;libs</title>
<path fill="none" stroke="#444444" stroke-opacity="0.333333" d="M672.0531,-338.5009C656.227,-301.8762 620.3969,-218.9586 601.6463,-175.566"/>
<polygon fill="#444444" fill-opacity="0.333333" stroke="#444444" stroke-opacity="0.333333" points="604.7726,-173.9771 597.593,-166.1858 598.3468,-176.7538 604.7726,-173.9771"/>
</g>
<!-- rubygems&#45;&gt;rubypick -->
<g id="edge7" class="edge">
<title>rubygems&#45;&gt;rubypick</title>
<path fill="none" stroke="#444444" stroke-opacity="0.333333" d="M622.7739,-293.3873C668.9806,-299.6838 735.5675,-308.7576 784.5605,-315.4339"/>
<polygon fill="#444444" fill-opacity="0.333333" stroke="#444444" stroke-opacity="0.333333" points="784.3534,-318.9379 794.7344,-316.8203 785.2986,-312.002 784.3534,-318.9379"/>
</g>
<!-- rubygems&#45;&gt;ruby&#45;libs -->
<g id="edge8" class="edge">
<title>rubygems&#45;&gt;ruby&#45;libs</title>
<path fill="none" stroke="#444444" stroke-opacity="0.333333" d="M571.4541,-267.9658C575.0054,-244.6007 581.2319,-203.6341 585.4105,-176.1419"/>
<polygon fill="#444444" fill-opacity="0.333333" stroke="#444444" stroke-opacity="0.333333" points="588.9128,-176.391 586.9553,-165.9786 581.9923,-175.3391 588.9128,-176.391"/>
</g>
<!-- rubygems&#45;&gt;rubygem&#45;openssl -->
<g id="edge9" class="edge">
<title>rubygems&#45;&gt;rubygem&#45;openssl</title>
<path fill="none" stroke="#444444" stroke-opacity="0.333333" d="M566.6199,-267.781C556.1778,-221.6518 517.9508,-100.2173 496.9818,-45.4561"/>
<polygon fill="#444444" fill-opacity="0.333333" stroke="#444444" stroke-opacity="0.333333" points="500.1956,-44.0647 493.2778,-36.0401 493.6814,-46.6272 500.1956,-44.0647"/>
</g>
<!-- rubygems&#45;&gt;rubygem&#45;psych -->
<g id="edge10" class="edge">
<title>rubygems&#45;&gt;rubygem&#45;psych</title>
<path fill="none" stroke="#444444" stroke-opacity="0.333333" d="M514.4844,-274.6567C482.8617,-270.2753 442.1525,-265.7457 405.7372,-262.4656"/>
<polygon fill="#444444" fill-opacity="0.333333" stroke="#444444" stroke-opacity="0.333333" points="405.8591,-258.963 395.5913,-261.5748 405.2468,-265.9361 405.8591,-258.963"/>
</g>
<!-- ruby&#45;&gt;rubypick -->
<g id="edge11" class="edge">
<title>ruby&#45;&gt;rubypick</title>
<path fill="none" stroke="#444444" stroke-opacity="0.333333" d="M861.2422,-122.7894C854.7074,-160.9474 847.3372,-250.1448 846.6733,-295.9642"/>
<polygon fill="#444444" fill-opacity="0.333333" stroke="#444444" stroke-opacity="0.333333" points="843.173,-296.0898 846.6468,-306.099 850.173,-296.1082 843.173,-296.0898"/>
</g>
<!-- ruby&#45;&gt;ruby&#45;libs -->
<g id="edge12" class="edge">
<title>ruby&#45;&gt;ruby&#45;libs</title>
<path fill="none" stroke="#444444" stroke-opacity="0.333333" d="M834.0571,-109.8467C791.2529,-116.5161 714.9643,-128.4026 658.9817,-137.1252"/>
<polygon fill="#444444" fill-opacity="0.333333" stroke="#444444" stroke-opacity="0.333333" points="658.1194,-133.7173 648.7775,-138.7151 659.1972,-140.6338 658.1194,-133.7173"/>
</g>
<!-- rubygem&#45;openssl&#45;&gt;rubygems -->
<g id="edge13" class="edge">
<title>rubygem&#45;openssl&#45;&gt;rubygems</title>
<path fill="none" stroke="#444444" stroke-opacity="0.333333" d="M485.7701,-36.239C496.2122,-82.3682 534.4392,-203.8027 555.4082,-258.5639"/>
<polygon fill="#444444" fill-opacity="0.333333" stroke="#444444" stroke-opacity="0.333333" points="552.1944,-259.9553 559.1122,-267.9799 558.7086,-257.3928 552.1944,-259.9553"/>
</g>
<!-- rubygem&#45;openssl&#45;&gt;ruby&#45;libs -->
<g id="edge14" class="edge">
<title>rubygem&#45;openssl&#45;&gt;ruby&#45;libs</title>
<path fill="none" stroke="#444444" stroke-opacity="0.333333" d="M498.4216,-36.0648C516.5963,-58.3366 547.6218,-96.3561 568.3889,-121.8048"/>
<polygon fill="#444444" fill-opacity="0.333333" stroke="#444444" stroke-opacity="0.333333" points="565.7076,-124.0549 574.7418,-129.5898 571.131,-119.6292 565.7076,-124.0549"/>
</g>
<!-- rubygem&#45;psych&#45;&gt;rubygems -->
<g id="edge15" class="edge">
<title>rubygem&#45;psych&#45;&gt;rubygems</title>
<path fill="none" stroke="#444444" stroke-opacity="0.333333" d="M395.425,-274.3002C430.6084,-278.6275 471.2744,-282.7396 504.3664,-285.2725"/>
<polygon fill="#444444" fill-opacity="0.333333" stroke="#444444" stroke-opacity="0.333333" points="504.1497,-288.7659 514.3788,-286.0064 504.6614,-281.7847 504.1497,-288.7659"/>
</g>
<!-- rubygem&#45;psych&#45;&gt;ruby&#45;libs -->
<g id="edge16" class="edge">
<title>rubygem&#45;psych&#45;&gt;ruby&#45;libs</title>
<path fill="none" stroke="#444444" stroke-opacity="0.333333" d="M359.1472,-241.432C407.3829,-221.8676 484.362,-190.645 535.9435,-169.7236"/>
<polygon fill="#444444" fill-opacity="0.333333" stroke="#444444" stroke-opacity="0.333333" points="537.3155,-172.9441 545.2667,-165.9421 534.6844,-166.4574 537.3155,-172.9441"/>
</g>
<!-- rubygem&#45;psych&#45;&gt;libyaml -->
<g id="edge17" class="edge">
<title>rubygem&#45;psych&#45;&gt;libyaml</title>
<path fill="none" stroke="#444444" stroke-opacity="0.333333" d="M247.7312,-277.5432C204.0436,-289.3356 147.5843,-304.5755 105.861,-315.8377"/>
<polygon fill="#444444" fill-opacity="0.333333" stroke="#444444" stroke-opacity="0.333333" points="104.8669,-312.4807 96.1246,-318.4658 106.6912,-319.2388 104.8669,-312.4807"/>
</g>
<!-- rubygem&#45;bundler -->
<g id="node1" class="node">
<title>rubygem&#45;bundler</title>
<text text-anchor="middle" x="719.86" y="-496.57" font-family="monospace" font-size="14.00" fill="#000000">rubygem&#45;bundler</text>
</g>
<!-- rubypick -->
<g id="node2" class="node">
<title>rubypick</title>
<text text-anchor="middle" x="849.11" y="-320.53" font-family="monospace" font-size="14.00" fill="#000000">rubypick</text>
</g>
<!-- rubygem&#45;io&#45;console -->
<g id="node3" class="node">
<title>rubygem&#45;io&#45;console</title>
<text text-anchor="middle" x="679.9" y="-352.96" font-family="monospace" font-size="14.00" fill="#000000">rubygem&#45;io&#45;console</text>
</g>
<!-- rubygems -->
<g id="node4" class="node">
<title>rubygems</title>
<text text-anchor="middle" x="568.71" y="-282.32" font-family="monospace" font-size="14.00" fill="#000000">rubygems</text>
</g>
<!-- ruby -->
<g id="node5" class="node">
<title>ruby</title>
<text text-anchor="middle" x="866.64" y="-101.07" font-family="monospace" font-size="14.00" fill="#000000">ruby</text>
</g>
<!-- ruby&#45;libs -->
<g id="node6" class="node">
<title>ruby&#45;libs</title>
<text text-anchor="middle" x="589.7" y="-144.22" font-family="monospace" font-size="14.00" fill="#000000">ruby&#45;libs</text>
</g>
<!-- rubygem&#45;openssl -->
<g id="node7" class="node">
<title>rubygem&#45;openssl</title>
<text text-anchor="middle" x="483.68" y="-14.3" font-family="monospace" font-size="14.00" fill="#000000">rubygem&#45;openssl</text>
</g>
<!-- rubygem&#45;psych -->
<g id="node8" class="node">
<title>rubygem&#45;psych</title>
<text text-anchor="middle" x="314.65" y="-255.78" font-family="monospace" font-size="14.00" fill="#000000">rubygem&#45;psych</text>
</g>
<!-- libyaml -->
<g id="node9" class="node">
<title>libyaml</title>
<text text-anchor="middle" x="48.096" y="-327.73" font-family="monospace" font-size="14.00" fill="#000000">libyaml</text>
</g>
</g>
</svg>
