<?xml version="1.0" encoding="UTF-8" standalone="no"?>
<!DOCTYPE svg PUBLIC "-//W3C//DTD SVG 1.1//EN"
 "http://www.w3.org/Graphics/SVG/1.1/DTD/svg11.dtd">
<!-- Generated by graphviz version 2.40.1 (20161225.0304)
 -->
<!-- Title: G Pages: 1 -->
<svg width="272pt" height="150pt"
 viewBox="0.00 0.00 272.36 149.56" xmlns="http://www.w3.org/2000/svg" xmlns:xlink="http://www.w3.org/1999/xlink">
<g id="graph0" class="graph" transform="scale(1 1) rotate(0) translate(39.3835 83.6176)">
<title>G</title>
<polygon fill="#dae2ff" stroke="transparent" points="-39.3835,65.9374 -39.3835,-83.6176 232.9793,-83.6176 232.9793,65.9374 -39.3835,65.9374"/>
<polygon fill="#fbb4ae" stroke="#fbb4ae" points="29.2199,27.2806 19.5733,26.2391 -15.0959,24.5718 -25.2047,-.0199 -35.3835,-21.5451 -32.1603,-24.5923 3.6403,-68.827 18.9483,-67.3784 21.038,-25.1942 24.6738,-22.962 27.1276,-18.8545 28.0485,-18.0182 28.8386,-18.0182 29.7707,-19.1365 33.2001,-21.5375 33.2001,-21.5375 29.7707,-19.1365 28.8386,-18.0182 28.0485,-18.0182 27.1276,-18.8545 24.6738,-22.962 21.038,-25.1942 18.9483,-67.3784 28.3414,-66.98 34.9933,-67.3944 43.3984,-68.7995 50.9833,-70.865 56.0511,-72.5096 73.856,-79.2082 87.3612,-71.5806 121.6534,-74.6997 132.9097,-76.7056 134.9422,-77.2426 141.6655,-79.6176 146.4371,-76.8222 150.5715,-74.6237 159.9799,-70.6161 160.3174,-70.4907 166.6985,-68.4555 174.845,-66.7174 181.4545,-65.6598 181.7241,-65.6453 215.618,-65.6037 228.9793,-45.2549 227.5609,-24.1089 227.5286,-21.0596 227.785,-15.4683 226.4957,-13.4177 208.536,24.1722 187.1703,36.0839 182.5388,38.949 174.7339,44.252 164.5327,52.3954 163.3695,53.4578 155.2253,61.9374 147.6217,57.7136 143.83,55.902 131.1948,51.2732 127.6597,48.6397 116.0284,41.7711 99.1923,32.7253 87.3612,24.3066 87.3612,-2.5255 87.8442,-9.0007 87.8442,-17.5732 87.8712,-17.7532 87.8712,-27.4909 120.0345,-24.5623 123.0274,-21.3241 125.0064,-20.5281 127.5937,-18.3759 127.8751,-17.9993 132.463,-17.9993 134.1578,-17.6013 134.7033,-17.6013 134.7033,-17.6013 134.1578,-17.6013 132.463,-17.9993 127.8751,-17.9993 127.5937,-18.3759 125.0064,-20.5281 123.0274,-21.3241 120.0345,-24.5623 87.8712,-27.4909 87.8712,-17.7532 87.8442,-17.5732 87.8442,-9.0007 87.3612,-2.5255 87.3612,24.3066 57.1721,28.196 51.2703,29.298 44.1229,31.0452 42.6412,31.5779 33.9266,28.5413 29.9583,27.4036 29.2199,27.2806 29.2199,27.2806"/>
<polyline fill="none" stroke="#000000" points="146.4371,-76.8222 150.5715,-74.6237 159.9799,-70.6161 160.3174,-70.4907 166.6985,-68.4555 174.845,-66.7174 181.4545,-65.6598 181.7241,-65.6453 215.618,-65.6037 228.9793,-45.2549 227.5609,-24.1089 227.5286,-21.0596 227.785,-15.4683 226.4957,-13.4177 208.536,24.1722 187.1703,36.0839 182.5388,38.949 174.7339,44.252 164.5327,52.3954 163.3695,53.4578 155.2253,61.9374 147.6217,57.7136 143.83,55.902 131.1948,51.2732 127.6597,48.6397 116.0284,41.7711 99.1923,32.7253 87.3612,24.3066 57.1721,28.196 51.2703,29.298 44.1229,31.0452 42.6412,31.5779 33.9266,28.5413 29.9583,27.4036 29.2199,27.2806 19.5733,26.2391 -15.0959,24.5718 -25.2047,-.0199 -35.3835,-21.5451 -32.1603,-24.5923 3.6403,-68.827 18.9483,-67.3784 28.3414,-66.98 34.9933,-67.3944 43.3984,-68.7995 50.9833,-70.865 56.0511,-72.5096 73.856,-79.2082 87.3612,-71.5806 121.6534,-74.6997 132.9097,-76.7056 134.9422,-77.2426 141.6655,-79.6176 146.4371,-76.8222 "/>
<!-- krb5&#45;server&#45;&gt;words -->
<g id="edge1" class="edge">
<title>krb5&#45;server&#45;&gt;words</title>
<path fill="none" stroke="#444444" stroke-opacity="0.333333" d="M83.248,-18C83.0821,-18 82.9163,-18 82.7507,-18"/>
<polygon fill="#444444" fill-opacity="0.333333" stroke="#444444" stroke-opacity="0.333333" points="85.4152,-14.5001 75.4152,-18 85.4152,-21.5001 85.4152,-14.5001"/>
</g>
<!-- krb5&#45;server -->
<g id="node1" class="node">
<title>krb5&#45;server</title>
<text text-anchor="middle" x="152.95" y="-14.3" font-family="monospace" font-size="14.00" fill="#000000">krb5&#45;server</text>
</g>
<!-- words -->
<g id="node2" class="node">
<title>words</title>
<text text-anchor="middle" x="37.697" y="-14.3" font-family="monospace" font-size="14.00" fill="#000000">words</text>
</g>
</g>
</svg>
