<?xml version="1.0" encoding="UTF-8" standalone="no"?>
<!DOCTYPE svg PUBLIC "-//W3C//DTD SVG 1.1//EN"
 "http://www.w3.org/Graphics/SVG/1.1/DTD/svg11.dtd">
<!-- Generated by graphviz version 2.40.1 (20161225.0304)
 -->
<!-- Title: G Pages: 1 -->
<svg width="2053pt" height="1380pt"
 viewBox="0.00 0.00 2052.61 1380.27" xmlns="http://www.w3.org/2000/svg" xmlns:xlink="http://www.w3.org/1999/xlink">
<g id="graph0" class="graph" transform="scale(1 1) rotate(0) translate(126.3709 1238.1111)">
<title>G</title>
<polygon fill="#dae2ff" stroke="transparent" points="-126.3709,142.1588 -126.3709,-1238.1111 1926.2402,-1238.1111 1926.2402,142.1588 -126.3709,142.1588"/>
<polygon fill="#fbb4ae" stroke="#fbb4ae" points="680.0992,-597.0337 663.6277,-626.3179 644.8353,-653.8167 643.8201,-655.391 648.7792,-658.7421 656.9265,-663.9246 668.3381,-670.7205 669.9034,-671.5227 678.7172,-675.3478 689.1786,-679.473 698.462,-682.3849 732.3444,-691.6385 744.833,-695.5569 755.9539,-700.3919 764.7037,-704.5471 769.2917,-706.9055 765.4401,-616.7052 770.7868,-619.7234 775.7742,-619.7234 775.7742,-619.7234 770.7868,-619.7234 765.4401,-616.7052 769.2917,-706.9055 771.076,-707.8926 775.7481,-710.6639 788.4275,-719.2208 796.815,-725.5544 798.1874,-726.6455 801.2758,-615.4395 801.9169,-615.2614 803.6553,-615.2614 803.6553,-615.2614 801.9169,-615.2614 801.2758,-615.4395 798.1874,-726.6455 803.3886,-730.994 811.8336,-730.0892 821.5103,-729.5167 823.1831,-729.3749 840.8276,-737.5011 854.6536,-742.5328 862.3364,-744.8343 863.9505,-745.2661 907.4711,-755.5244 919.9641,-758.8401 920.0672,-758.8736 926.3147,-658.4965 928.9596,-658.4965 929.9923,-659.5876 929.9923,-659.5876 928.9596,-658.4965 926.3147,-658.4965 920.0672,-758.8736 936.6659,-764.749 942.4337,-767.1253 944.0099,-767.8206 956.032,-773.8439 972.2896,-782.9553 973.584,-782.3481 1057.0236,-802.7264 1071.8685,-805.1133 1075.7305,-805.4075 1086.1636,-805.764 1086.3616,-805.7625 1087.7169,-805.6376 1098.2275,-805.5769 1100.3719,-805.4743 1101.0731,-805.471 1101.7897,-805.4984 1104.9661,-805.3533 1112.4926,-805.66 1117.5647,-805.6523 1119.9067,-805.7501 1123.1812,-805.6107 1128.3297,-805.8363 1134.2498,-805.5968 1135.191,-805.5994 1138.8491,-805.7672 1140.0977,-805.7194 1142.8599,-805.4969 1143.076,-805.4889 1152.736,-805.5464 1152.8771,-805.5353 1156.0293,-805.4245 1160.8728,-805.4636 1169.3583,-805.1744 1179.4825,-803.9788 1185.813,-802.7025 1190.3385,-801.6012 1193.8041,-800.6131 1205.2809,-796.3619 1217.0087,-791.0215 1227.9977,-785.0944 1257.3396,-768.0696 1304.1731,-768.9449 1379.906,-709.3016 1391.7325,-699.3591 1379.9054,-662.05 1378.0054,-654.5156 1255.9922,-612.8633 1243.5343,-610.0286 1240.5399,-609.5215 1237.3699,-609.1663 1236.693,-609.129 1230.7904,-609.1396 1230.1609,-609.1769 1223.4211,-609.1891 1218.0388,-608.888 1216.0869,-608.8915 1215.05,-608.9528 1213.5995,-608.8723 1205.3043,-608.8872 1203.6953,-609.0754 1198.5135,-609.3816 1198.2562,-609.3821 1197.2134,-658.7612 1201.1792,-662.2436 1197.6013,-665.2498 1191.9066,-666.8893 1187.9645,-665.8134 1184.3303,-692.6653 1181.4191,-662.1288 1177.7188,-662.1288 1177.2747,-662.2558 1172.3911,-662.2558 1172.2712,-662.2212 1166.5663,-662.2212 1166.3967,-662.1732 1171.0854,-608.3272 1159.8279,-605.7732 1159.7559,-622.8953 1159.7559,-622.8953 1159.8279,-605.7732 1171.0854,-608.3272 1166.3967,-662.1732 1166.5663,-662.2212 1172.2712,-662.2212 1172.3911,-662.2558 1177.2747,-662.2558 1177.7188,-662.1288 1181.4191,-662.1288 1184.3303,-692.6653 1187.9645,-665.8134 1191.9066,-666.8893 1197.6013,-665.2498 1201.1792,-662.2436 1197.2134,-658.7612 1198.2562,-609.3821 1198.5135,-609.3816 1203.6953,-609.0754 1205.3043,-608.8872 1213.5995,-608.8723 1215.05,-608.9528 1216.0869,-608.8915 1218.0388,-608.888 1223.4211,-609.1891 1230.1609,-609.1769 1230.7904,-609.1396 1236.693,-609.129 1237.3699,-609.1663 1240.5399,-609.5215 1243.5343,-610.0286 1255.9922,-612.8633 1378.0054,-654.5156 1384.3196,-567.0303 1257.6256,-562.0726 1253.24,-558.0679 1251.7792,-557.6481 1249.8938,-556.3508 1248.1975,-556.3508 1246.8461,-555.9656 1243.3109,-555.9656 1242.7694,-556.1216 1237.3807,-556.1216 1236.9089,-555.984 1231.6309,-555.984 1231.5741,-555.9042 1227.3843,-552.5365 1222.7157,-551.2789 1217.3827,-552.7967 1216.6034,-514.1547 1211.0764,-555.967 1208.1846,-555.967 1204.1213,-518.3566 1203.5812,-492.0838 1200.0631,-492.92 1188.3539,-495.1328 1186.2041,-495.432 1175.8096,-496.3669 1162.567,-498.217 1161.605,-498.3982 1156.9736,-499.7303 1142.2811,-504.7016 1130.1074,-510.6285 1123.6276,-514.0985 1123.2577,-514.3521 1108.8173,-511.9301 1098.2511,-510.9709 1095.9637,-510.939 1088.408,-510.5498 1084.9667,-510.6371 1077.4069,-510.5459 1070.2404,-509.9231 1070.5208,-583.8026 1065.8688,-581.342 1060.78,-581.342 1055.6198,-584.2207 1054.2122,-585.7807 1056.439,-588.282 1060.5942,-590.479 1065.3118,-590.479 1065.3118,-590.479 1060.5942,-590.479 1056.439,-588.282 1054.2122,-585.7807 1055.6198,-584.2207 1056.5378,-507.9807 1054.498,-507.4997 1045.1222,-504.9338 1037.6371,-502.6065 1038.0042,-535.8299 1035.8696,-579.4642 1035.8696,-579.4642 1038.0042,-535.8299 1037.6371,-502.6065 1045.1222,-504.9338 1054.498,-507.4997 1056.5378,-507.9807 1055.6198,-584.2207 1060.78,-581.342 1065.8688,-581.342 1070.5208,-583.8026 1070.2404,-509.9231 1077.4069,-510.5459 1084.9667,-510.6371 1088.408,-510.5498 1095.9637,-510.939 1098.2511,-510.9709 1108.8173,-511.9301 1123.2577,-514.3521 1123.6276,-514.0985 1130.1074,-510.6285 1142.2811,-504.7016 1156.9736,-499.7303 1161.605,-498.3982 1162.567,-498.217 1175.8096,-496.3669 1186.2041,-495.432 1188.3539,-495.1328 1200.0631,-492.92 1203.5812,-492.0838 1204.1213,-518.3566 1208.1846,-555.967 1211.0764,-555.967 1216.6034,-514.1547 1217.3827,-552.7967 1222.7157,-551.2789 1227.3843,-552.5365 1231.5741,-555.9042 1231.6309,-555.984 1236.9089,-555.984 1237.3807,-556.1216 1242.7694,-556.1216 1243.3109,-555.9656 1246.8461,-555.9656 1248.1975,-556.3508 1249.8938,-556.3508 1251.7792,-557.6481 1253.24,-558.0679 1257.6256,-562.0726 1384.3196,-567.0303 1385.8696,-550.9667 1385.8016,-550.7109 1376.2513,-506.3666 1356.141,-467.8347 1331.6152,-437.0452 1272.7172,-450.5159 1258.9132,-442.5312 1232.6655,-424.7142 1213.3652,-410.0741 1208.7074,-407.4148 1200.3822,-403.4069 1192.8311,-400.4786 1189.3828,-399.4707 1185.0204,-398.602 1172.7167,-397.2919 1170.1245,-396.7895 1167.1683,-434.9818 1166.4808,-435.5235 1164.0851,-435.5235 1164.0851,-435.5235 1166.4808,-435.5235 1167.1683,-434.9818 1170.1245,-396.7895 1157.6899,-393.2686 1154.6209,-391.8779 1152.0118,-390.4622 1147.0454,-392.8328 1144.8683,-393.6808 1138.4127,-395.6447 1128.5349,-397.7892 1126.9088,-397.9968 1122.3282,-398.1834 1121.4181,-398.1415 1119.5686,-398.2138 1114.0443,-397.9465 1111.3007,-397.5709 1110.9052,-397.5511 1106.6445,-397.7027 1105.0679,-397.621 1102.0763,-397.7218 1100.6722,-397.8901 1096.8472,-398.0121 1095.197,-398.2069 1094.6604,-398.223 1086.4163,-397.7468 1085.7948,-397.6563 1082.8435,-397.7337 1072.9426,-398.8436 1067.1881,-400.4743 1058.6455,-403.6409 1009.4469,-426.0017 998.4351,-430.4832 980.5491,-417.2468 979.054,-378.3035 979.3126,-371.4224 979.3028,-354.2885 978.3447,-341.8287 978.0597,-334.4045 955.4161,-321.3112 943.2734,-315.486 937.1916,-312.8787 933.5626,-311.5086 931.1705,-310.7262 929.3026,-310.2078 918.1767,-307.6658 916.5186,-307.3705 909.1632,-306.426 897.7748,-306.1005 895.8591,-306.2379 884.7754,-305.8629 882.5681,-306.1218 880.4586,-306.257 879.0089,-306.2734 873.0494,-306.0257 866.6605,-306.0819 864.3238,-305.9793 862.6907,-306.0709 861.2742,-306.0761 860.5477,-306.0406 802.4189,-306.1045 754.4036,-357.0181 751.8853,-359.3918 738.0159,-373.155 729.327,-382.1787 724.1766,-387.7584 724.1077,-387.8463 721.1746,-391.4191 697.2101,-399.5706 688.8805,-402.5776 711.7257,-497.6578 798.2422,-508.8953 800.4501,-467.836 799.939,-428.0717 810.8613,-432.3151 819.4128,-434.9768 829.4318,-437.3249 838.3834,-439.0754 841.5261,-439.4457 844.0477,-514.3288 849.3591,-514.3288 850.0593,-514.5222 853.6253,-514.5222 853.6732,-514.5094 857.3635,-514.5094 861.4484,-538.9409 865.3173,-514.4481 867.0795,-514.4481 867.8112,-515.2411 874.6248,-519.2273 878.2723,-519.2273 885.6699,-514.8446 885.9027,-514.5964 887.6268,-514.5964 891.629,-539.2864 891.7167,-587.6423 898.304,-587.0183 906.9752,-586.5452 909.9576,-586.2643 909.8545,-577.4148 915.0062,-514.6613 919.3367,-514.6613 920.0641,-514.4623 923.1034,-514.4623 923.9306,-514.692 928.4793,-514.692 933.6482,-564.6329 934.2952,-579.8612 940.2435,-514.8106 944.1537,-514.8106 945.5142,-514.42 949.004,-514.42 949.4838,-515.2865 954.6162,-520.2297 1011.7769,-526.5662 970.5374,-585.7132 965.4276,-586.1428 963.5636,-629.5048 963.5636,-629.5048 965.4276,-586.1428 970.5374,-585.7132 1011.7769,-526.5662 954.6162,-520.2297 949.4838,-515.2865 949.004,-514.42 945.5142,-514.42 944.1537,-514.8106 940.2435,-514.8106 934.2952,-579.8612 933.6482,-564.6329 928.4793,-514.692 923.9306,-514.692 923.1034,-514.4623 920.0641,-514.4623 919.3367,-514.6613 915.0062,-514.6613 909.8545,-577.4148 909.9576,-586.2643 906.9752,-586.5452 898.304,-587.0183 891.7167,-587.6423 891.629,-539.2864 887.6268,-514.5964 885.9027,-514.5964 885.6699,-514.8446 878.2723,-519.2273 874.6248,-519.2273 867.8112,-515.2411 867.0795,-514.4481 865.3173,-514.4481 861.4484,-538.9409 857.3635,-514.5094 853.6732,-514.5094 853.6253,-514.5222 850.0593,-514.5222 849.3591,-514.3288 844.0477,-514.3288 843.428,-514.5047 839.2939,-514.5047 837.0247,-480.2095 832.5045,-514.3943 828.53,-514.3943 828.1681,-514.4932 825.0412,-514.4932 820.655,-487.2829 817.5404,-514.676 814.322,-514.676 814.2494,-514.6559 814.2494,-514.6559 814.322,-514.676 817.5404,-514.676 820.655,-487.2829 825.0412,-514.4932 828.1681,-514.4932 828.53,-514.3943 832.5045,-514.3943 837.0247,-480.2095 839.2939,-514.5047 843.428,-514.5047 844.0477,-514.3288 841.5261,-439.4457 838.3834,-439.0754 829.4318,-437.3249 819.4128,-434.9768 810.8613,-432.3151 799.939,-428.0717 800.4501,-467.836 798.2422,-508.8953 711.7257,-497.6578 716.7926,-522.652 717.6218,-529.3087 702.2993,-551.7301 701.9691,-552.3296 680.0992,-597.0337 680.0992,-597.0337"/>
<polygon fill="#c5e2ce" stroke="#c5e2ce" points="129.8543,-272.0599 124.4341,-271.4878 114.5611,-270.6509 53.353,-262.3659 51.5543,-261.4809 48.6328,-258.2923 11.6959,-206.3321 4.0736,-150.6401 2.3278,-139.9065 -4.3948,-108.5072 22.5469,-37.7403 100.2953,16.3823 106.4273,32.8903 119.431,70.2624 122.0941,74.5606 163.0467,111.5942 253.0992,117.4498 259.3232,118.1001 275.4072,120.0985 285.2932,121.9098 286.0128,8.8657 283.1087,-13.1904 279.1985,-14.2369 274.7818,-17.9726 279.4978,-21.9866 283.1572,-22.9406 290.5036,-86.5489 291.2373,-96.5046 293.6513,-96.5455 294.7045,-96.6007 291.2552,-169.6044 295.0472,-173.7108 294.8268,-174.7629 295.351,-177.1973 297.2109,-178.8651 302.1204,-180.2721 304.5878,-298.4716 296.1248,-305.83 418.9825,-322.6999 421.7155,-253.0931 424.3443,-326.8779 426.2509,-328.2625 429.0481,-328.2625 429.7819,-328.4667 433.2466,-328.4667 434.3593,-328.1567 438.1998,-328.1567 441.0926,-295.6144 444.7436,-325.8742 442.4812,-328.4477 443.2243,-329.269 443.2243,-329.269 442.4812,-328.4477 444.7436,-325.8742 441.0926,-295.6144 438.1998,-328.1567 434.3593,-328.1567 433.2466,-328.4667 429.7819,-328.4667 429.0481,-328.2625 426.2509,-328.2625 424.3443,-326.8779 421.7155,-253.0931 418.9825,-322.6999 296.1248,-305.83 304.5878,-298.4716 302.1204,-180.2721 297.2109,-178.8651 295.351,-177.1973 294.8268,-174.7629 295.0472,-173.7108 291.2552,-169.6044 294.7045,-96.6007 293.6513,-96.5455 291.2373,-96.5046 290.5036,-86.5489 283.1572,-22.9406 279.4978,-21.9866 274.7818,-17.9726 279.1985,-14.2369 283.1087,-13.1904 286.0128,8.8657 285.2932,121.9098 300.0491,125.1954 326.1406,133.0645 342.024,138.1588 364.1674,128.9073 370.4518,123.5812 452.9496,29.9737 479.1627,-6.637 486.0008,-15.4812 491.7382,-16.1982 510.9302,-18.0317 511.8367,-18.5507 517.6913,-21.6768 520.818,-23.2276 520.8342,-23.662 524.5074,-190.5348 519.7385,-189.238 514.1709,-190.8058 510.0365,-194.1637 509.9157,-194.1312 508.465,-139.9687 504.0208,-193.9509 502.2922,-193.9509 500.438,-191.3686 500.438,-191.3686 502.2922,-193.9509 504.0208,-193.9509 508.465,-139.9687 509.9157,-194.1312 510.0365,-194.1637 510.114,-194.2674 514.1778,-197.4447 519.0596,-198.7641 519.0596,-198.7641 514.1778,-197.4447 510.114,-194.2674 510.0365,-194.1637 514.1709,-190.8058 519.7385,-189.238 524.5074,-190.5348 520.8342,-23.662 520.818,-23.2276 542.7566,-33.2912 543.6129,-33.651 585.2249,-50.3453 661.8829,-89.3322 664.7186,-92.4477 631.5092,-194.01 620.8159,-244.0313 620.0789,-246.9668 601.3033,-304.3869 616.2178,-350.5161 630.6802,-389.0401 634.8176,-390.1917 639.3418,-391.372 688.8805,-402.5776 711.7257,-497.6578 716.7926,-522.652 717.6218,-529.3087 702.2993,-551.7301 701.9691,-552.3296 680.0992,-597.0337 663.6277,-626.3179 644.8353,-653.8167 643.8201,-655.391 642.5325,-655.4788 633.3212,-655.6138 631.9346,-655.6706 624.817,-655.3901 614.3126,-655.5295 613.311,-655.4892 611.9061,-655.4696 611.3974,-619.5061 611.3974,-619.5061 611.9061,-655.4696 604.8242,-655.7427 597.4349,-656.2218 589.9504,-656.9036 581.0765,-658.1776 569.3882,-660.4696 560.4445,-662.6913 543.1364,-668.3616 527.6005,-674.6736 534.182,-552.2858 537.4019,-552.2858 543.4297,-592.9854 543.6792,-551.9227 549.7911,-551.9227 549.9744,-551.9736 552.2238,-551.9736 552.4984,-551.8974 552.4984,-551.8974 552.2238,-551.9736 549.9744,-551.9736 549.7911,-551.9227 543.6792,-551.9227 543.4297,-592.9854 537.4019,-552.2858 534.182,-552.2858 527.6005,-674.6736 526.7971,-675.0206 523.9816,-673.4117 519.5305,-671.122 506.7794,-665.2715 442.2105,-637.4835 425.1621,-639.3165 415.4402,-639.8652 411.3692,-639.8871 407.4015,-639.8072 406.1387,-596.8672 406.1387,-596.8672 407.4015,-639.8072 401.285,-640.0228 393.5813,-639.9001 389.452,-639.9489 385.9015,-639.8093 385.132,-639.8004 385.8188,-538.3412 391.399,-538.3412 396.7539,-535.204 397.8412,-533.9523 397.1322,-533.1287 390.8119,-529.2898 386.2256,-529.2898 386.2256,-529.2898 390.8119,-529.2898 397.1322,-533.1287 397.8412,-533.9523 396.7539,-535.204 391.399,-538.3412 385.8188,-538.3412 385.132,-639.8004 383.7799,-639.822 380.0949,-639.7871 379.7949,-639.8008 368.1497,-639.7397 364.2495,-639.8273 233.9468,-639.4222 215.1971,-628.468 200.4168,-619.211 192.9082,-614.1966 194.7617,-579.3373 209.9113,-550.0503 213.3244,-544.5142 230.3104,-514.3857 289.3725,-404.0226 273.3179,-341.1308 269.7049,-329.1069 199.9548,-284.2356 176.8432,-281.3905 173.2568,-281.087 162.9825,-278.2909 153.6899,-276.148 145.1528,-274.3575 136.3956,-272.8864 137.2585,-196.2338 140.7958,-143.6718 140.8357,-143.6718 144.785,-146.8379 144.785,-146.8379 140.8357,-143.6718 140.7958,-143.6718 137.2585,-196.2338 136.3956,-272.8864 129.8543,-272.0599 129.8543,-272.0599"/>
<polygon fill="#d2c2cc" stroke="#d2c2cc" points="29.7735,-643.2425 26.489,-643.3096 25.3046,-643.3069 -29.4546,-641.9455 -61.7506,-655.5141 -111.0294,-706.7115 -118.4186,-745.4547 -122.3709,-762.2115 -105.6831,-817.1679 -89.4384,-875.6295 -70.7676,-892.0437 -58.3331,-935.3428 -56.4965,-943.0866 -32.5785,-1055.7869 -29.1278,-1056.8475 75.2658,-1067.4019 76.1007,-1015.3657 77.372,-990.9203 83.0823,-938.0295 86.4335,-938.0295 90.5936,-998.0544 92.1739,-939.8486 97.1898,-942.5865 101.2853,-942.5865 106.6695,-939.5379 108.2635,-937.7182 107.3766,-936.751 107.3766,-936.751 108.2635,-937.7182 106.6695,-939.5379 101.2853,-942.5865 97.1898,-942.5865 92.1739,-939.8486 90.5936,-998.0544 86.4335,-938.0295 83.0823,-938.0295 77.372,-990.9203 76.1007,-1015.3657 75.2658,-1067.4019 85.111,-1069.012 91.1991,-1068.1466 112.2475,-1066.4565 115.4427,-1066.4636 128.6111,-1066.7642 227.7838,-1071.0693 227.9794,-1071.5591 251.158,-1101.7581 295.2261,-1164.7455 359.844,-1233.8313 360.6459,-1234.1111 383.3377,-1233.1754 402.6308,-1232.7452 408.4071,-1232.8356 408.9748,-1126.0953 412.2097,-1086.5833 417.1207,-1083.6592 418.4076,-1082.1167 417.5315,-1081.1079 411.7879,-1077.7214 412.6315,-1005.5834 414.4344,-1005.4982 417.719,-1005.2123 418.7684,-1005.1602 418.5926,-984.4814 420.9579,-931.7505 424.8076,-928.4825 424.6721,-928.2835 421.2862,-925.5045 421.2862,-925.5045 424.6721,-928.2835 424.8076,-928.4825 420.9579,-931.7505 418.5926,-984.4814 418.7684,-1005.1602 417.719,-1005.2123 414.4344,-1005.4982 412.6315,-1005.5834 411.7879,-1077.7214 417.5315,-1081.1079 418.4076,-1082.1167 417.1207,-1083.6592 412.2097,-1086.5833 408.9748,-1126.0953 408.4071,-1232.8356 412.5402,-1233.0568 418.7079,-1229.9882 424.5803,-1227.2068 425.0769,-1125.8914 428.1393,-1088.4965 428.1393,-1088.4965 425.0769,-1125.8914 424.5803,-1227.2068 585.1418,-1158.7695 594.9127,-1136.2826 567.18,-1082.3 541.0906,-1022.071 549.3038,-979.7386 552.6478,-954.9542 554.4669,-943.9965 557.9998,-917.8353 558.9978,-911.7731 565.5657,-877.9207 517.066,-826.8849 521.8261,-761.4036 521.8752,-754.1922 521.731,-748.6753 521.7607,-744.3029 526.7971,-675.0206 523.9816,-673.4117 519.5305,-671.122 506.7794,-665.2715 442.2105,-637.4835 425.1621,-639.3165 425.2729,-655.9347 425.2729,-655.9347 425.1621,-639.3165 415.4402,-639.8652 411.3692,-639.8871 407.4015,-639.8072 401.285,-640.0228 393.5813,-639.9001 389.452,-639.9489 385.9015,-639.8093 385.132,-639.8004 383.7799,-639.822 380.0949,-639.7871 379.7949,-639.8008 368.1497,-639.7397 364.2495,-639.8273 233.9468,-639.4222 215.1971,-628.468 200.4168,-619.211 192.9082,-614.1966 183.4782,-619.8526 178.4745,-622.5617 169.0842,-648.6383 175.1541,-806.5878 117.9707,-792.9293 110.0269,-822.0941 137.5822,-818.8032 174.9087,-817.6578 180.0602,-812.7592 180.6559,-811.6032 184.8328,-811.6032 186.037,-813.1013 191.3694,-816.3334 195.9918,-816.3334 195.9918,-816.3334 191.3694,-816.3334 186.037,-813.1013 184.8328,-811.6032 180.6559,-811.6032 180.0602,-812.7592 174.9087,-817.6578 137.5822,-818.8032 110.0269,-822.0941 117.9707,-792.9293 175.1541,-806.5878 169.0842,-648.6383 178.4745,-622.5617 59.5663,-641.1397 57.1039,-641.4686 43.9525,-642.6313 43.5625,-686.4908 40.0072,-766.1832 35.1724,-768.9669 33.6738,-770.7363 34.4738,-771.6775 34.4738,-771.6775 33.6738,-770.7363 35.1724,-768.9669 40.0072,-766.1832 43.5625,-686.4908 43.9525,-642.6313 29.7735,-643.2425 29.7735,-643.2425"/>
<polygon fill="#d1e2cd" stroke="#d1e2cd" points="979.3126,-371.4224 979.3028,-354.2885 978.3447,-341.8287 978.0597,-334.4045 1005.4293,-306.0092 1053.8325,-303.0843 1056.5864,-303.0604 1059.4713,-302.8857 1065.0099,-302.8383 1068.0862,-302.9721 1068.5393,-302.9684 1073.3403,-303.1777 1074.3108,-303.1699 1076.1852,-303.0577 1082.182,-303.3216 1088.8466,-302.9241 1090.9553,-303.0175 1095.1881,-302.9863 1098.204,-302.8083 1101.7368,-302.9656 1102.4152,-302.9608 1104.9166,-303.0727 1109.5593,-302.8004 1112.7018,-302.7794 1116.9915,-302.9744 1121.3878,-302.946 1122.527,-302.9978 1152.0118,-302.8138 1178.8555,-286.1261 1189.5798,-278.8233 1196.4718,-273.7417 1206.1443,-266.0729 1206.8065,-265.4758 1208.552,-263.799 1220.8914,-252.744 1239.6648,-234.9729 1263.6201,-214.5109 1331.4205,-265.6258 1342.786,-293.3165 1342.4941,-340.3589 1340.7408,-350.4718 1337.2767,-378.6831 1331.6152,-437.0452 1272.7172,-450.5159 1258.9132,-442.5312 1232.6655,-424.7142 1213.3652,-410.0741 1208.7074,-407.4148 1200.3822,-403.4069 1192.8311,-400.4786 1189.3828,-399.4707 1185.0204,-398.602 1172.7167,-397.2919 1170.1245,-396.7895 1157.6899,-393.2686 1154.6209,-391.8779 1152.0118,-390.4622 1147.0454,-392.8328 1144.8683,-393.6808 1138.4127,-395.6447 1128.5349,-397.7892 1126.9088,-397.9968 1122.3282,-398.1834 1121.4181,-398.1415 1119.5686,-398.2138 1114.0443,-397.9465 1111.3007,-397.5709 1110.9052,-397.5511 1106.6445,-397.7027 1105.0679,-397.621 1102.0763,-397.7218 1100.6722,-397.8901 1096.8472,-398.0121 1095.197,-398.2069 1094.6604,-398.223 1086.4163,-397.7468 1085.7948,-397.6563 1082.8435,-397.7337 1072.9426,-398.8436 1067.1881,-400.4743 1058.6455,-403.6409 1060.7927,-365.8019 1065.1821,-362.0538 1065.3534,-361.7606 1067.8556,-359.9343 1069.6576,-359.9343 1072.9478,-394.4158 1076.3081,-360.0279 1079.658,-360.0279 1079.8911,-359.9623 1081.545,-359.9623 1085.2599,-363.1635 1085.2599,-363.1635 1081.545,-359.9623 1079.8911,-359.9623 1079.658,-360.0279 1076.3081,-360.0279 1072.9478,-394.4158 1069.6576,-359.9343 1067.8556,-359.9343 1065.3534,-361.7606 1065.1821,-362.0538 1060.7927,-365.8019 1058.6455,-403.6409 1009.4469,-426.0017 998.4351,-430.4832 980.5491,-417.2468 979.054,-378.3035 979.3126,-371.4224 979.3126,-371.4224"/>
<polygon fill="#fdd9a7" stroke="#fdd9a7" points="962.7562,-843.96 961.2499,-869.315 959.8761,-880.3901 941.8909,-995.4791 953.6263,-1002.1524 976.8884,-993.6299 1056.4451,-962.4195 1069.2811,-958.2679 1081.6724,-955.1266 1083.2947,-954.7729 1085.7915,-954.3161 1089.4807,-953.7697 1095.7692,-953.057 1106.0295,-952.2524 1113.2493,-952.4435 1113.8597,-952.4169 1124.4141,-952.3266 1126.5377,-950.7458 1130.4569,-948.0408 1130.4645,-946.5667 1130.1232,-936.1577 1130.9027,-873.0086 1131.5238,-872.8338 1136.1224,-876.7 1140.068,-877.7578 1140.068,-877.7578 1136.1224,-876.7 1131.5238,-872.8338 1130.9027,-873.0086 1130.1232,-936.1577 1130.4645,-946.5667 1130.4569,-948.0408 1141.0878,-942.3289 1153.7732,-936.7922 1165.002,-933.05 1165.5078,-932.908 1166.1598,-932.7583 1178.9447,-930.4653 1181.7175,-930.2524 1186.7823,-930.1214 1188.203,-930.1575 1200.6416,-929.7753 1199.6956,-917.4599 1199.6956,-917.4599 1200.6416,-929.7753 1201.6379,-929.8469 1203.3059,-929.7809 1207.1838,-929.8253 1209.0691,-929.7418 1214.7888,-929.7809 1217.4437,-930.0717 1221.9563,-930.061 1225.7622,-929.839 1231.8304,-929.7966 1235.9985,-929.5353 1304.1731,-921.4705 1342.6047,-979.2006 1361.4991,-1004.333 1380.6737,-1028.5883 1384.036,-1032.9919 1386.3544,-1036.1339 1389.5507,-1038.8475 1402.8116,-1033.627 1403.6779,-1033.3181 1405.7688,-975.274 1408.2501,-935.587 1415.0201,-873.3691 1418.1053,-873.3691 1418.1053,-873.3691 1415.0201,-873.3691 1408.2501,-935.587 1405.7688,-975.274 1403.6779,-1033.3181 1425.731,-1026.6536 1427.3037,-1026.2651 1441.0902,-1023.1095 1457.1149,-1020.0293 1459.3235,-1019.1876 1462.9836,-1017.9418 1484.8894,-1012.2206 1484.0532,-985.9672 1477.7682,-873.0397 1474.7086,-873.0397 1474.7086,-873.0397 1477.7682,-873.0397 1484.0532,-985.9672 1484.8894,-1012.2206 1492.5956,-1010.5175 1498.712,-1009.4102 1603.7242,-994.5714 1623.5115,-1007.4603 1666.2773,-1017.1642 1708.9148,-1011.2468 1709.4824,-1011.1905 1715.2623,-1010.7313 1728.0863,-1009.9658 1727.4786,-913.766 1724.007,-873.3435 1719.9999,-873.3435 1719.7313,-873.2664 1714.988,-873.2664 1714.6735,-873.1749 1714.6735,-873.1749 1714.988,-873.2664 1719.7313,-873.2664 1719.9999,-873.3435 1724.007,-873.3435 1727.4786,-913.766 1728.0863,-1009.9658 1731.8728,-1009.8897 1742.995,-1009.8865 1749.4976,-1010.1423 1769.6746,-1011.7365 1785.571,-1014.25 1789.7628,-1015.0781 1819.8979,-1021.6285 1831.8608,-1014.6575 1922.2402,-931.4908 1915.7537,-875.7055 1915.2095,-867.5864 1911.3318,-776.1534 1901.0292,-766.8743 1822.6758,-737.811 1799.2313,-736.5442 1775.7026,-734.8037 1774.7836,-734.6628 1754.4845,-731.1446 1748.616,-729.7781 1733.8687,-726.0491 1727.1265,-724.2119 1718.0671,-721.3878 1704.9033,-716.2375 1686.5989,-708.7127 1603.7242,-754.2864 1501.4718,-730.5923 1499.3949,-811.1174 1499.447,-813.6022 1499.447,-813.6022 1499.3949,-811.1174 1501.4718,-730.5923 1485.9268,-726.0673 1473.9269,-722.1019 1470.8813,-721.0362 1470.3142,-720.9719 1454.8593,-718.4027 1444.2852,-716.2731 1422.0917,-710.6301 1404.2974,-704.5455 1391.7325,-699.3591 1379.906,-709.3016 1304.1731,-768.9449 1257.3396,-768.0696 1227.9977,-785.0944 1217.0087,-791.0215 1205.2809,-796.3619 1193.8041,-800.6131 1190.3385,-801.6012 1185.813,-802.7025 1179.4825,-803.9788 1169.3583,-805.1744 1160.8728,-805.4636 1156.0293,-805.4245 1152.8771,-805.5353 1152.736,-805.5464 1143.076,-805.4889 1142.8599,-805.4969 1140.0977,-805.7194 1138.8491,-805.7672 1135.191,-805.5994 1134.2498,-805.5968 1128.3297,-805.8363 1123.1812,-805.6107 1119.9067,-805.7501 1117.5647,-805.6523 1112.4926,-805.66 1104.9661,-805.3533 1101.7897,-805.4984 1101.0731,-805.471 1100.3719,-805.4743 1098.2275,-805.5769 1087.7169,-805.6376 1086.3616,-805.7625 1086.1636,-805.764 1075.7305,-805.4075 1071.8685,-805.1133 1057.0236,-802.7264 973.584,-782.3481 972.2896,-782.9553 962.7562,-843.96 962.7562,-843.96"/>
<polygon fill="#dbd0df" stroke="#dbd0df" points="862.3364,-744.8343 863.9505,-745.2661 907.4711,-755.5244 919.9641,-758.8401 920.0672,-758.8736 936.6659,-764.749 942.4337,-767.1253 944.0099,-767.8206 956.032,-773.8439 972.2896,-782.9553 962.7562,-843.96 961.2499,-869.315 959.8761,-880.3901 941.8909,-995.4791 875.2642,-1002.8956 861.1124,-1004.7278 854.256,-1005.7392 852.0565,-1006.1432 776.7736,-1092.6532 704.3378,-1103.637 697.7636,-1104.7758 680.4328,-1108.1519 679.7581,-1108.3265 672.4201,-970.7318 677.8755,-972.3527 683.2627,-970.7023 687.0949,-967.1151 684.1597,-964.605 684.1597,-964.605 687.0949,-967.1151 683.2627,-970.7023 677.8755,-972.3527 672.4201,-970.7318 679.7581,-1108.3265 659.6664,-1113.9648 660.0716,-1090.6013 660.0716,-1090.6013 659.6664,-1113.9648 594.9127,-1136.2826 567.18,-1082.3 541.0906,-1022.071 549.3038,-979.7386 552.6478,-954.9542 554.4669,-943.9965 557.9998,-917.8353 558.9978,-911.7731 565.5657,-877.9207 517.066,-826.8849 521.8261,-761.4036 521.8752,-754.1922 521.731,-748.6753 521.7607,-744.3029 526.7971,-675.0206 527.6005,-674.6736 543.1364,-668.3616 560.4445,-662.6913 569.3882,-660.4696 581.0765,-658.1776 589.9504,-656.9036 597.4349,-656.2218 604.8242,-655.7427 611.9061,-655.4696 613.311,-655.4892 614.3126,-655.5295 624.817,-655.3901 631.9346,-655.6706 633.3212,-655.6138 642.5325,-655.4788 643.8201,-655.391 648.7792,-658.7421 656.9265,-663.9246 668.3381,-670.7205 669.9034,-671.5227 678.7172,-675.3478 689.1786,-679.473 698.462,-682.3849 732.3444,-691.6385 744.833,-695.5569 755.9539,-700.3919 764.7037,-704.5471 769.2917,-706.9055 771.076,-707.8926 775.7481,-710.6639 788.4275,-719.2208 796.815,-725.5544 798.1874,-726.6455 803.3886,-730.994 811.8336,-730.0892 821.5103,-729.5167 823.1831,-729.3749 840.8276,-737.5011 854.6536,-742.5328 854.5369,-748.658 849.9885,-839.3862 845.2875,-839.3862 845.2875,-839.3862 849.9885,-839.3862 854.5369,-748.658 854.6536,-742.5328 862.3364,-744.8343 862.3364,-744.8343"/>
<polygon fill="#ebd1cb" stroke="#ebd1cb" points="712.8047,-249.875 708.3336,-252.5423 697.2101,-399.5706 688.8805,-402.5776 639.3418,-391.372 634.8176,-390.1917 630.6802,-389.0401 616.2178,-350.5161 601.3033,-304.3869 620.0789,-246.9668 620.8159,-244.0313 631.5092,-194.01 664.7186,-92.4477 711.1289,-103.8875 726.0803,-106.6276 743.116,-109.0292 770.5268,-111.1494 788.0146,-114.4961 802.4189,-120.218 862.5898,-116.8758 863.1162,-116.8353 879.1276,-114.9186 897.4254,-111.5542 899.0461,-111.1875 910.3923,-108.1329 922.2561,-104.4293 929.3437,-102.0659 930.8648,-101.4939 939.4558,-104.8149 955.5886,-110.0005 1005.4293,-123.8382 1059.7919,-117.169 1060.4055,-117.0678 1069.7628,-115.1233 1081.717,-115.5835 1083.8817,-115.5782 1100.9327,-114.8378 1102.9738,-114.624 1115.0511,-114.5835 1201.4203,-109.0342 1246.3694,-170.7166 1263.6201,-214.5109 1239.6648,-234.9729 1220.8914,-252.744 1208.552,-263.799 1206.8065,-265.4758 1206.1443,-266.0729 1196.4718,-273.7417 1189.5798,-278.8233 1178.8555,-286.1261 1152.0118,-302.8138 1122.527,-302.9978 1121.3878,-302.946 1116.9915,-302.9744 1112.7018,-302.7794 1109.5593,-302.8004 1104.9166,-303.0727 1102.4152,-302.9608 1101.7368,-302.9656 1098.204,-302.8083 1095.1881,-302.9863 1090.9553,-303.0175 1088.8466,-302.9241 1082.182,-303.3216 1076.1852,-303.0577 1074.3108,-303.1699 1073.3403,-303.1777 1068.5393,-302.9684 1068.0862,-302.9721 1065.0099,-302.8383 1059.4713,-302.8857 1056.5864,-303.0604 1053.8325,-303.0843 1005.4293,-306.0092 978.0597,-334.4045 955.4161,-321.3112 943.2734,-315.486 946.152,-246.1354 946.3973,-246.0664 949.7513,-246.0664 949.7513,-246.0664 946.3973,-246.0664 946.152,-246.1354 943.2734,-315.486 937.1916,-312.8787 933.5626,-311.5086 931.1705,-310.7262 929.3026,-310.2078 918.1767,-307.6658 916.5186,-307.3705 909.1632,-306.426 897.7748,-306.1005 895.8591,-306.2379 884.7754,-305.8629 882.5681,-306.1218 880.4586,-306.257 879.0089,-306.2734 873.0494,-306.0257 874.5776,-246.3595 877.8993,-246.3595 883.6828,-278.609 884.7184,-293.0792 890.7827,-246.3477 893.4839,-246.3477 897.4741,-273.5542 900.7096,-248.3133 904.2423,-250.2529 904.2423,-250.2529 900.7096,-248.3133 897.4741,-273.5542 893.4839,-246.3477 890.7827,-246.3477 884.7184,-293.0792 883.6828,-278.609 877.8993,-246.3595 874.5776,-246.3595 873.0494,-306.0257 866.6605,-306.0819 864.3238,-305.9793 862.6907,-306.0709 861.2742,-306.0761 860.5477,-306.0406 802.4189,-306.1045 754.4036,-357.0181 751.8853,-359.3918 738.0159,-373.155 729.327,-382.1787 724.1766,-387.7584 724.1077,-387.8463 721.1746,-391.4191 697.2101,-399.5706 708.3336,-252.5423 712.8047,-249.875 719.4411,-299.643 718.7561,-246.9127 724.1324,-250.2567 724.1324,-250.2567 718.7561,-246.9127 719.4411,-299.643 712.8047,-249.875 712.8047,-249.875"/>
<polygon fill="#b6d1df" stroke="#b6d1df" points="1113.8597,-952.4169 1113.2493,-952.4435 1106.0295,-952.2524 1095.7692,-953.057 1089.4807,-953.7697 1085.7915,-954.3161 1083.2947,-954.7729 1081.6724,-955.1266 1069.2811,-958.2679 1056.4451,-962.4195 976.8884,-993.6299 953.6263,-1002.1524 981.8269,-1049.8403 1026.9725,-1135.1007 1049.2565,-1153.3899 1091.741,-1174.2271 1091.885,-1174.3784 1105.8849,-1184.3942 1137.0913,-1198.7054 1186.1956,-1208.6993 1187.2804,-1208.9447 1203.839,-1205.4795 1215.7041,-1203.5421 1223.8578,-1202.5858 1228.7209,-1202.1272 1233.7366,-1201.7694 1275.3328,-1199.7567 1324.5259,-1175.5975 1353.7639,-1116.4918 1382.6163,-1061.7308 1385.853,-1050.2228 1389.5507,-1038.8475 1386.3544,-1036.1339 1384.036,-1032.9919 1380.6737,-1028.5883 1361.4991,-1004.333 1342.6047,-979.2006 1304.1731,-921.4705 1235.9985,-929.5353 1231.8304,-929.7966 1225.7622,-929.839 1221.9563,-930.061 1217.4437,-930.0717 1214.7888,-929.7809 1209.0691,-929.7418 1207.1838,-929.8253 1203.3059,-929.7809 1201.6379,-929.8469 1200.6416,-929.7753 1188.203,-930.1575 1192.5996,-980.9534 1196.6272,-984.2238 1197.8431,-986.5352 1156.4965,-988.962 1152.8688,-986.0612 1152.9259,-987.8075 1152.9259,-987.8075 1152.8688,-986.0612 1156.4965,-988.962 1197.8431,-986.5352 1196.6272,-984.2238 1192.5996,-980.9534 1148.6602,-981.6599 1147.5577,-980.6637 1144.8978,-977.9632 1135.1324,-966.8934 1134.7938,-994.3059 1131.4186,-1028.3099 1137.2083,-1026.6897 1141.4375,-1027.8259 1145.6974,-1031.3921 1146.5343,-1031.3921 1148.1848,-1031.8611 1150.3177,-1031.8611 1156.6714,-1074.4709 1157.5209,-1073.4999 1157.5209,-1073.4999 1156.6714,-1074.4709 1150.3177,-1031.8611 1148.1848,-1031.8611 1146.5343,-1031.3921 1145.6974,-1031.3921 1141.4375,-1027.8259 1137.2083,-1026.6897 1131.4186,-1028.3099 1128.2821,-1030.8047 1128.2821,-1030.8047 1131.4186,-1028.3099 1134.7938,-994.3059 1135.1324,-966.8934 1144.8978,-977.9632 1147.5577,-980.6637 1148.6602,-981.6599 1192.5996,-980.9534 1188.203,-930.1575 1186.7823,-930.1214 1181.7175,-930.2524 1178.9447,-930.4653 1166.1598,-932.7583 1165.5078,-932.908 1165.002,-933.05 1153.7732,-936.7922 1141.0878,-942.3289 1130.4569,-948.0408 1126.5377,-950.7458 1124.4141,-952.3266 1113.8597,-952.4169 1113.8597,-952.4169"/>
<polyline fill="none" stroke="#000000" points="1112.4926,-805.66 1104.9661,-805.3533 1101.7897,-805.4984 1101.0731,-805.471 1100.3719,-805.4743 1098.2275,-805.5769 1087.7169,-805.6376 1086.3616,-805.7625 1086.1636,-805.764 1075.7305,-805.4075 1071.8685,-805.1133 1057.0236,-802.7264 973.584,-782.3481 972.2896,-782.9553 956.032,-773.8439 944.0099,-767.8206 942.4337,-767.1253 936.6659,-764.749 920.0672,-758.8736 919.9641,-758.8401 907.4711,-755.5244 863.9505,-745.2661 862.3364,-744.8343 854.6536,-742.5328 840.8276,-737.5011 823.1831,-729.3749 821.5103,-729.5167 811.8336,-730.0892 803.3886,-730.994 798.1874,-726.6455 796.815,-725.5544 788.4275,-719.2208 775.7481,-710.6639 771.076,-707.8926 769.2917,-706.9055 764.7037,-704.5471 755.9539,-700.3919 744.833,-695.5569 732.3444,-691.6385 698.462,-682.3849 689.1786,-679.473 678.7172,-675.3478 669.9034,-671.5227 668.3381,-670.7205 656.9265,-663.9246 648.7792,-658.7421 643.8201,-655.391 644.8353,-653.8167 663.6277,-626.3179 680.0992,-597.0337 701.9691,-552.3296 702.2993,-551.7301 717.6218,-529.3087 716.7926,-522.652 711.7257,-497.6578 688.8805,-402.5776 697.2101,-399.5706 721.1746,-391.4191 724.1077,-387.8463 724.1766,-387.7584 729.327,-382.1787 738.0159,-373.155 751.8853,-359.3918 754.4036,-357.0181 802.4189,-306.1045 860.5477,-306.0406 861.2742,-306.0761 862.6907,-306.0709 864.3238,-305.9793 866.6605,-306.0819 873.0494,-306.0257 879.0089,-306.2734 880.4586,-306.257 882.5681,-306.1218 884.7754,-305.8629 895.8591,-306.2379 897.7748,-306.1005 909.1632,-306.426 916.5186,-307.3705 918.1767,-307.6658 929.3026,-310.2078 931.1705,-310.7262 933.5626,-311.5086 937.1916,-312.8787 943.2734,-315.486 955.4161,-321.3112 978.0597,-334.4045 978.3447,-341.8287 979.3028,-354.2885 979.3126,-371.4224 979.054,-378.3035 980.5491,-417.2468 998.4351,-430.4832 1009.4469,-426.0017 1058.6455,-403.6409 1067.1881,-400.4743 1072.9426,-398.8436 1082.8435,-397.7337 1085.7948,-397.6563 1086.4163,-397.7468 1094.6604,-398.223 1095.197,-398.2069 1096.8472,-398.0121 1100.6722,-397.8901 1102.0763,-397.7218 1105.0679,-397.621 1106.6445,-397.7027 1110.9052,-397.5511 1111.3007,-397.5709 1114.0443,-397.9465 1119.5686,-398.2138 1121.4181,-398.1415 1122.3282,-398.1834 1126.9088,-397.9968 1128.5349,-397.7892 1138.4127,-395.6447 1144.8683,-393.6808 1147.0454,-392.8328 1152.0118,-390.4622 1154.6209,-391.8779 1157.6899,-393.2686 1170.1245,-396.7895 1172.7167,-397.2919 1185.0204,-398.602 1189.3828,-399.4707 1192.8311,-400.4786 1200.3822,-403.4069 1208.7074,-407.4148 1213.3652,-410.0741 1232.6655,-424.7142 1258.9132,-442.5312 1272.7172,-450.5159 1331.6152,-437.0452 1356.141,-467.8347 1376.2513,-506.3666 1385.8016,-550.7109 1385.8696,-550.9667 1384.3196,-567.0303 1378.0054,-654.5156 1379.9054,-662.05 1391.7325,-699.3591 1379.906,-709.3016 1304.1731,-768.9449 1257.3396,-768.0696 1227.9977,-785.0944 1217.0087,-791.0215 1205.2809,-796.3619 1193.8041,-800.6131 1190.3385,-801.6012 1185.813,-802.7025 1179.4825,-803.9788 1169.3583,-805.1744 1160.8728,-805.4636 1156.0293,-805.4245 1152.8771,-805.5353 1152.736,-805.5464 1143.076,-805.4889 1142.8599,-805.4969 1140.0977,-805.7194 1138.8491,-805.7672 1135.191,-805.5994 1134.2498,-805.5968 1128.3297,-805.8363 1123.1812,-805.6107 1119.9067,-805.7501 1117.5647,-805.6523 1112.4926,-805.66 "/>
<polyline fill="none" stroke="#000000" points="560.4445,-662.6913 543.1364,-668.3616 527.6005,-674.6736 526.7971,-675.0206 523.9816,-673.4117 519.5305,-671.122 506.7794,-665.2715 442.2105,-637.4835 425.1621,-639.3165 415.4402,-639.8652 411.3692,-639.8871 407.4015,-639.8072 401.285,-640.0228 393.5813,-639.9001 389.452,-639.9489 385.9015,-639.8093 385.132,-639.8004 383.7799,-639.822 380.0949,-639.7871 379.7949,-639.8008 368.1497,-639.7397 364.2495,-639.8273 233.9468,-639.4222 215.1971,-628.468 200.4168,-619.211 192.9082,-614.1966 194.7617,-579.3373 209.9113,-550.0503 213.3244,-544.5142 230.3104,-514.3857 289.3725,-404.0226 273.3179,-341.1308 269.7049,-329.1069 199.9548,-284.2356 176.8432,-281.3905 173.2568,-281.087 162.9825,-278.2909 153.6899,-276.148 145.1528,-274.3575 136.3956,-272.8864 129.8543,-272.0599 124.4341,-271.4878 114.5611,-270.6509 53.353,-262.3659 51.5543,-261.4809 48.6328,-258.2923 11.6959,-206.3321 4.0736,-150.6401 2.3278,-139.9065 -4.3948,-108.5072 22.5469,-37.7403 100.2953,16.3823 106.4273,32.8903 119.431,70.2624 122.0941,74.5606 163.0467,111.5942 253.0992,117.4498 259.3232,118.1001 275.4072,120.0985 285.2932,121.9098 300.0491,125.1954 326.1406,133.0645 342.024,138.1588 364.1674,128.9073 370.4518,123.5812 452.9496,29.9737 479.1627,-6.637 486.0008,-15.4812 491.7382,-16.1982 510.9302,-18.0317 511.8367,-18.5507 517.6913,-21.6768 520.818,-23.2276 542.7566,-33.2912 543.6129,-33.651 585.2249,-50.3453 661.8829,-89.3322 664.7186,-92.4477 631.5092,-194.01 620.8159,-244.0313 620.0789,-246.9668 601.3033,-304.3869 616.2178,-350.5161 630.6802,-389.0401 634.8176,-390.1917 639.3418,-391.372 688.8805,-402.5776 711.7257,-497.6578 716.7926,-522.652 717.6218,-529.3087 702.2993,-551.7301 701.9691,-552.3296 680.0992,-597.0337 663.6277,-626.3179 644.8353,-653.8167 643.8201,-655.391 642.5325,-655.4788 633.3212,-655.6138 631.9346,-655.6706 624.817,-655.3901 614.3126,-655.5295 613.311,-655.4892 611.9061,-655.4696 604.8242,-655.7427 597.4349,-656.2218 589.9504,-656.9036 581.0765,-658.1776 569.3882,-660.4696 560.4445,-662.6913 "/>
<polyline fill="none" stroke="#000000" points="401.285,-640.0228 393.5813,-639.9001 389.452,-639.9489 385.9015,-639.8093 385.132,-639.8004 383.7799,-639.822 380.0949,-639.7871 379.7949,-639.8008 368.1497,-639.7397 364.2495,-639.8273 233.9468,-639.4222 215.1971,-628.468 200.4168,-619.211 192.9082,-614.1966 183.4782,-619.8526 178.4745,-622.5617 59.5663,-641.1397 57.1039,-641.4686 43.9525,-642.6313 29.7735,-643.2425 26.489,-643.3096 25.3046,-643.3069 -29.4546,-641.9455 -61.7506,-655.5141 -111.0294,-706.7115 -118.4186,-745.4547 -122.3709,-762.2115 -105.6831,-817.1679 -89.4384,-875.6295 -70.7676,-892.0437 -58.3331,-935.3428 -56.4965,-943.0866 -32.5785,-1055.7869 -29.1278,-1056.8475 75.2658,-1067.4019 85.111,-1069.012 91.1991,-1068.1466 112.2475,-1066.4565 115.4427,-1066.4636 128.6111,-1066.7642 227.7838,-1071.0693 227.9794,-1071.5591 251.158,-1101.7581 295.2261,-1164.7455 359.844,-1233.8313 360.6459,-1234.1111 383.3377,-1233.1754 402.6308,-1232.7452 408.4071,-1232.8356 412.5402,-1233.0568 418.7079,-1229.9882 424.5803,-1227.2068 585.1418,-1158.7695 594.9127,-1136.2826 567.18,-1082.3 541.0906,-1022.071 549.3038,-979.7386 552.6478,-954.9542 554.4669,-943.9965 557.9998,-917.8353 558.9978,-911.7731 565.5657,-877.9207 517.066,-826.8849 521.8261,-761.4036 521.8752,-754.1922 521.731,-748.6753 521.7607,-744.3029 526.7971,-675.0206 523.9816,-673.4117 519.5305,-671.122 506.7794,-665.2715 442.2105,-637.4835 425.1621,-639.3165 415.4402,-639.8652 411.3692,-639.8871 407.4015,-639.8072 401.285,-640.0228 "/>
<polyline fill="none" stroke="#000000" points="1189.3828,-399.4707 1185.0204,-398.602 1172.7167,-397.2919 1170.1245,-396.7895 1157.6899,-393.2686 1154.6209,-391.8779 1152.0118,-390.4622 1147.0454,-392.8328 1144.8683,-393.6808 1138.4127,-395.6447 1128.5349,-397.7892 1126.9088,-397.9968 1122.3282,-398.1834 1121.4181,-398.1415 1119.5686,-398.2138 1114.0443,-397.9465 1111.3007,-397.5709 1110.9052,-397.5511 1106.6445,-397.7027 1105.0679,-397.621 1102.0763,-397.7218 1100.6722,-397.8901 1096.8472,-398.0121 1095.197,-398.2069 1094.6604,-398.223 1086.4163,-397.7468 1085.7948,-397.6563 1082.8435,-397.7337 1072.9426,-398.8436 1067.1881,-400.4743 1058.6455,-403.6409 1009.4469,-426.0017 998.4351,-430.4832 980.5491,-417.2468 979.054,-378.3035 979.3126,-371.4224 979.3028,-354.2885 978.3447,-341.8287 978.0597,-334.4045 1005.4293,-306.0092 1053.8325,-303.0843 1056.5864,-303.0604 1059.4713,-302.8857 1065.0099,-302.8383 1068.0862,-302.9721 1068.5393,-302.9684 1073.3403,-303.1777 1074.3108,-303.1699 1076.1852,-303.0577 1082.182,-303.3216 1088.8466,-302.9241 1090.9553,-303.0175 1095.1881,-302.9863 1098.204,-302.8083 1101.7368,-302.9656 1102.4152,-302.9608 1104.9166,-303.0727 1109.5593,-302.8004 1112.7018,-302.7794 1116.9915,-302.9744 1121.3878,-302.946 1122.527,-302.9978 1152.0118,-302.8138 1178.8555,-286.1261 1189.5798,-278.8233 1196.4718,-273.7417 1206.1443,-266.0729 1206.8065,-265.4758 1208.552,-263.799 1220.8914,-252.744 1239.6648,-234.9729 1263.6201,-214.5109 1331.4205,-265.6258 1342.786,-293.3165 1342.4941,-340.3589 1340.7408,-350.4718 1337.2767,-378.6831 1331.6152,-437.0452 1272.7172,-450.5159 1258.9132,-442.5312 1232.6655,-424.7142 1213.3652,-410.0741 1208.7074,-407.4148 1200.3822,-403.4069 1192.8311,-400.4786 1189.3828,-399.4707 "/>
<polyline fill="none" stroke="#000000" points="1441.0902,-1023.1095 1457.1149,-1020.0293 1459.3235,-1019.1876 1462.9836,-1017.9418 1484.8894,-1012.2206 1492.5956,-1010.5175 1498.712,-1009.4102 1603.7242,-994.5714 1623.5115,-1007.4603 1666.2773,-1017.1642 1708.9148,-1011.2468 1709.4824,-1011.1905 1715.2623,-1010.7313 1728.0863,-1009.9658 1731.8728,-1009.8897 1742.995,-1009.8865 1749.4976,-1010.1423 1769.6746,-1011.7365 1785.571,-1014.25 1789.7628,-1015.0781 1819.8979,-1021.6285 1831.8608,-1014.6575 1922.2402,-931.4908 1915.7537,-875.7055 1915.2095,-867.5864 1911.3318,-776.1534 1901.0292,-766.8743 1822.6758,-737.811 1799.2313,-736.5442 1775.7026,-734.8037 1774.7836,-734.6628 1754.4845,-731.1446 1748.616,-729.7781 1733.8687,-726.0491 1727.1265,-724.2119 1718.0671,-721.3878 1704.9033,-716.2375 1686.5989,-708.7127 1603.7242,-754.2864 1501.4718,-730.5923 1485.9268,-726.0673 1473.9269,-722.1019 1470.8813,-721.0362 1470.3142,-720.9719 1454.8593,-718.4027 1444.2852,-716.2731 1422.0917,-710.6301 1404.2974,-704.5455 1391.7325,-699.3591 1379.906,-709.3016 1304.1731,-768.9449 1257.3396,-768.0696 1227.9977,-785.0944 1217.0087,-791.0215 1205.2809,-796.3619 1193.8041,-800.6131 1190.3385,-801.6012 1185.813,-802.7025 1179.4825,-803.9788 1169.3583,-805.1744 1160.8728,-805.4636 1156.0293,-805.4245 1152.8771,-805.5353 1152.736,-805.5464 1143.076,-805.4889 1142.8599,-805.4969 1140.0977,-805.7194 1138.8491,-805.7672 1135.191,-805.5994 1134.2498,-805.5968 1128.3297,-805.8363 1123.1812,-805.6107 1119.9067,-805.7501 1117.5647,-805.6523 1112.4926,-805.66 1104.9661,-805.3533 1101.7897,-805.4984 1101.0731,-805.471 1100.3719,-805.4743 1098.2275,-805.5769 1087.7169,-805.6376 1086.3616,-805.7625 1086.1636,-805.764 1075.7305,-805.4075 1071.8685,-805.1133 1057.0236,-802.7264 973.584,-782.3481 972.2896,-782.9553 962.7562,-843.96 961.2499,-869.315 959.8761,-880.3901 941.8909,-995.4791 953.6263,-1002.1524 976.8884,-993.6299 1056.4451,-962.4195 1069.2811,-958.2679 1081.6724,-955.1266 1083.2947,-954.7729 1085.7915,-954.3161 1089.4807,-953.7697 1095.7692,-953.057 1106.0295,-952.2524 1113.2493,-952.4435 1113.8597,-952.4169 1124.4141,-952.3266 1126.5377,-950.7458 1130.4569,-948.0408 1141.0878,-942.3289 1153.7732,-936.7922 1165.002,-933.05 1165.5078,-932.908 1166.1598,-932.7583 1178.9447,-930.4653 1181.7175,-930.2524 1186.7823,-930.1214 1188.203,-930.1575 1200.6416,-929.7753 1201.6379,-929.8469 1203.3059,-929.7809 1207.1838,-929.8253 1209.0691,-929.7418 1214.7888,-929.7809 1217.4437,-930.0717 1221.9563,-930.061 1225.7622,-929.839 1231.8304,-929.7966 1235.9985,-929.5353 1304.1731,-921.4705 1342.6047,-979.2006 1361.4991,-1004.333 1380.6737,-1028.5883 1384.036,-1032.9919 1386.3544,-1036.1339 1389.5507,-1038.8475 1402.8116,-1033.627 1403.6779,-1033.3181 1425.731,-1026.6536 1427.3037,-1026.2651 1441.0902,-1023.1095 "/>
<polyline fill="none" stroke="#000000" points="704.3378,-1103.637 697.7636,-1104.7758 680.4328,-1108.1519 679.7581,-1108.3265 659.6664,-1113.9648 594.9127,-1136.2826 567.18,-1082.3 541.0906,-1022.071 549.3038,-979.7386 552.6478,-954.9542 554.4669,-943.9965 557.9998,-917.8353 558.9978,-911.7731 565.5657,-877.9207 517.066,-826.8849 521.8261,-761.4036 521.8752,-754.1922 521.731,-748.6753 521.7607,-744.3029 526.7971,-675.0206 527.6005,-674.6736 543.1364,-668.3616 560.4445,-662.6913 569.3882,-660.4696 581.0765,-658.1776 589.9504,-656.9036 597.4349,-656.2218 604.8242,-655.7427 611.9061,-655.4696 613.311,-655.4892 614.3126,-655.5295 624.817,-655.3901 631.9346,-655.6706 633.3212,-655.6138 642.5325,-655.4788 643.8201,-655.391 648.7792,-658.7421 656.9265,-663.9246 668.3381,-670.7205 669.9034,-671.5227 678.7172,-675.3478 689.1786,-679.473 698.462,-682.3849 732.3444,-691.6385 744.833,-695.5569 755.9539,-700.3919 764.7037,-704.5471 769.2917,-706.9055 771.076,-707.8926 775.7481,-710.6639 788.4275,-719.2208 796.815,-725.5544 798.1874,-726.6455 803.3886,-730.994 811.8336,-730.0892 821.5103,-729.5167 823.1831,-729.3749 840.8276,-737.5011 854.6536,-742.5328 862.3364,-744.8343 863.9505,-745.2661 907.4711,-755.5244 919.9641,-758.8401 920.0672,-758.8736 936.6659,-764.749 942.4337,-767.1253 944.0099,-767.8206 956.032,-773.8439 972.2896,-782.9553 962.7562,-843.96 961.2499,-869.315 959.8761,-880.3901 941.8909,-995.4791 875.2642,-1002.8956 861.1124,-1004.7278 854.256,-1005.7392 852.0565,-1006.1432 776.7736,-1092.6532 704.3378,-1103.637 "/>
<polyline fill="none" stroke="#000000" points="1082.182,-303.3216 1076.1852,-303.0577 1074.3108,-303.1699 1073.3403,-303.1777 1068.5393,-302.9684 1068.0862,-302.9721 1065.0099,-302.8383 1059.4713,-302.8857 1056.5864,-303.0604 1053.8325,-303.0843 1005.4293,-306.0092 978.0597,-334.4045 955.4161,-321.3112 943.2734,-315.486 937.1916,-312.8787 933.5626,-311.5086 931.1705,-310.7262 929.3026,-310.2078 918.1767,-307.6658 916.5186,-307.3705 909.1632,-306.426 897.7748,-306.1005 895.8591,-306.2379 884.7754,-305.8629 882.5681,-306.1218 880.4586,-306.257 879.0089,-306.2734 873.0494,-306.0257 866.6605,-306.0819 864.3238,-305.9793 862.6907,-306.0709 861.2742,-306.0761 860.5477,-306.0406 802.4189,-306.1045 754.4036,-357.0181 751.8853,-359.3918 738.0159,-373.155 729.327,-382.1787 724.1766,-387.7584 724.1077,-387.8463 721.1746,-391.4191 697.2101,-399.5706 688.8805,-402.5776 639.3418,-391.372 634.8176,-390.1917 630.6802,-389.0401 616.2178,-350.5161 601.3033,-304.3869 620.0789,-246.9668 620.8159,-244.0313 631.5092,-194.01 664.7186,-92.4477 711.1289,-103.8875 726.0803,-106.6276 743.116,-109.0292 770.5268,-111.1494 788.0146,-114.4961 802.4189,-120.218 862.5898,-116.8758 863.1162,-116.8353 879.1276,-114.9186 897.4254,-111.5542 899.0461,-111.1875 910.3923,-108.1329 922.2561,-104.4293 929.3437,-102.0659 930.8648,-101.4939 939.4558,-104.8149 955.5886,-110.0005 1005.4293,-123.8382 1059.7919,-117.169 1060.4055,-117.0678 1069.7628,-115.1233 1081.717,-115.5835 1083.8817,-115.5782 1100.9327,-114.8378 1102.9738,-114.624 1115.0511,-114.5835 1201.4203,-109.0342 1246.3694,-170.7166 1263.6201,-214.5109 1239.6648,-234.9729 1220.8914,-252.744 1208.552,-263.799 1206.8065,-265.4758 1206.1443,-266.0729 1196.4718,-273.7417 1189.5798,-278.8233 1178.8555,-286.1261 1152.0118,-302.8138 1122.527,-302.9978 1121.3878,-302.946 1116.9915,-302.9744 1112.7018,-302.7794 1109.5593,-302.8004 1104.9166,-303.0727 1102.4152,-302.9608 1101.7368,-302.9656 1098.204,-302.8083 1095.1881,-302.9863 1090.9553,-303.0175 1088.8466,-302.9241 1082.182,-303.3216 "/>
<polyline fill="none" stroke="#000000" points="1215.7041,-1203.5421 1223.8578,-1202.5858 1228.7209,-1202.1272 1233.7366,-1201.7694 1275.3328,-1199.7567 1324.5259,-1175.5975 1353.7639,-1116.4918 1382.6163,-1061.7308 1385.853,-1050.2228 1389.5507,-1038.8475 1386.3544,-1036.1339 1384.036,-1032.9919 1380.6737,-1028.5883 1361.4991,-1004.333 1342.6047,-979.2006 1304.1731,-921.4705 1235.9985,-929.5353 1231.8304,-929.7966 1225.7622,-929.839 1221.9563,-930.061 1217.4437,-930.0717 1214.7888,-929.7809 1209.0691,-929.7418 1207.1838,-929.8253 1203.3059,-929.7809 1201.6379,-929.8469 1200.6416,-929.7753 1188.203,-930.1575 1186.7823,-930.1214 1181.7175,-930.2524 1178.9447,-930.4653 1166.1598,-932.7583 1165.5078,-932.908 1165.002,-933.05 1153.7732,-936.7922 1141.0878,-942.3289 1130.4569,-948.0408 1126.5377,-950.7458 1124.4141,-952.3266 1113.8597,-952.4169 1113.2493,-952.4435 1106.0295,-952.2524 1095.7692,-953.057 1089.4807,-953.7697 1085.7915,-954.3161 1083.2947,-954.7729 1081.6724,-955.1266 1069.2811,-958.2679 1056.4451,-962.4195 976.8884,-993.6299 953.6263,-1002.1524 981.8269,-1049.8403 1026.9725,-1135.1007 1049.2565,-1153.3899 1091.741,-1174.2271 1091.885,-1174.3784 1105.8849,-1184.3942 1137.0913,-1198.7054 1186.1956,-1208.6993 1187.2804,-1208.9447 1203.839,-1205.4795 1215.7041,-1203.5421 "/>
<!-- boost&#45;random&#45;&gt;boost&#45;system -->
<g id="edge1" class="edge">
<title>boost&#45;random&#45;&gt;boost&#45;system</title>
<path fill="none" stroke="#444444" stroke-opacity="0.333333" d="M1137.8971,-720.2527C1146.9767,-710.5389 1158.3251,-698.3979 1168.3045,-687.7215"/>
<polygon fill="#444444" fill-opacity="0.333333" stroke="#444444" stroke-opacity="0.333333" points="1171.0054,-689.9574 1175.2771,-680.2619 1165.8915,-685.1774 1171.0054,-689.9574"/>
</g>
<!-- boost&#45;thread&#45;&gt;boost&#45;system -->
<g id="edge2" class="edge">
<title>boost&#45;thread&#45;&gt;boost&#45;system</title>
<path fill="none" stroke="#444444" stroke-opacity="0.333333" d="M1217.0744,-574.6129C1212.4285,-591.01 1205.5667,-615.2274 1200.242,-634.0202"/>
<polygon fill="#444444" fill-opacity="0.333333" stroke="#444444" stroke-opacity="0.333333" points="1196.8244,-633.243 1197.4657,-643.8185 1203.5593,-635.1514 1196.8244,-633.243"/>
</g>
<!-- device&#45;mapper&#45;multipath&#45;&gt;device&#45;mapper&#45;multipath&#45;libs -->
<g id="edge3" class="edge">
<title>device&#45;mapper&#45;multipath&#45;&gt;device&#45;mapper&#45;multipath&#45;libs</title>
<path fill="none" stroke="#444444" stroke-opacity="0.333333" d="M707.6521,-535.3613C711.7223,-534.8594 715.8093,-534.3554 719.9012,-533.8508"/>
<polygon fill="#444444" fill-opacity="0.333333" stroke="#444444" stroke-opacity="0.333333" points="720.5794,-537.2937 730.0758,-532.596 719.7226,-530.3464 720.5794,-537.2937"/>
</g>
<!-- device&#45;mapper&#45;multipath&#45;&gt;initscripts -->
<g id="edge4" class="edge">
<title>device&#45;mapper&#45;multipath&#45;&gt;initscripts</title>
<path fill="none" stroke="#444444" stroke-opacity="0.333333" d="M563.3979,-533.6219C541.9454,-494.2977 491.3561,-401.563 466.174,-355.4021"/>
<polygon fill="#444444" fill-opacity="0.333333" stroke="#444444" stroke-opacity="0.333333" points="469.2106,-353.6599 461.349,-346.5574 463.0655,-357.0122 469.2106,-353.6599"/>
</g>
<!-- device&#45;mapper&#45;multipath&#45;&gt;kpartx -->
<g id="edge5" class="edge">
<title>device&#45;mapper&#45;multipath&#45;&gt;kpartx</title>
<path fill="none" stroke="#444444" stroke-opacity="0.333333" d="M438.9975,-538.8313C438.8434,-538.8163 438.6896,-538.8013 438.536,-538.7864"/>
<polygon fill="#444444" fill-opacity="0.333333" stroke="#444444" stroke-opacity="0.333333" points="442.057,-535.6129 431.7648,-538.1269 441.3784,-542.5799 442.057,-535.6129"/>
</g>
<!-- device&#45;mapper&#45;multipath&#45;&gt;userspace&#45;rcu -->
<g id="edge6" class="edge">
<title>device&#45;mapper&#45;multipath&#45;&gt;userspace&#45;rcu</title>
<path fill="none" stroke="#444444" stroke-opacity="0.333333" d="M630.4072,-569.9888C654.1493,-577.5113 681.8811,-586.298 706.5648,-594.119"/>
<polygon fill="#444444" fill-opacity="0.333333" stroke="#444444" stroke-opacity="0.333333" points="705.6269,-597.4932 716.2171,-597.1772 707.7413,-590.8202 705.6269,-597.4932"/>
</g>
<!-- device&#45;mapper&#45;multipath&#45;libs&#45;&gt;userspace&#45;rcu -->
<g id="edge7" class="edge">
<title>device&#45;mapper&#45;multipath&#45;libs&#45;&gt;userspace&#45;rcu</title>
<path fill="none" stroke="#444444" stroke-opacity="0.333333" d="M858.0453,-532.5485C841.7151,-548.4924 817.701,-571.9386 799.4049,-589.802"/>
<polygon fill="#444444" fill-opacity="0.333333" stroke="#444444" stroke-opacity="0.333333" points="796.663,-587.5875 791.9529,-597.0778 801.5532,-592.5961 796.663,-587.5875"/>
</g>
<!-- device&#45;mapper&#45;multipath&#45;libs&#45;&gt;libaio -->
<g id="edge8" class="edge">
<title>device&#45;mapper&#45;multipath&#45;libs&#45;&gt;libaio</title>
<path fill="none" stroke="#444444" stroke-opacity="0.333333" d="M876.6813,-496.3371C876.9479,-470.9618 877.4341,-424.7018 877.7494,-394.6934"/>
<polygon fill="#444444" fill-opacity="0.333333" stroke="#444444" stroke-opacity="0.333333" points="881.2518,-394.478 877.8571,-384.4418 874.2522,-394.4044 881.2518,-394.478"/>
</g>
<!-- device&#45;mapper&#45;multipath&#45;libs&#45;&gt;librados2 -->
<g id="edge9" class="edge">
<title>device&#45;mapper&#45;multipath&#45;libs&#45;&gt;librados2</title>
<path fill="none" stroke="#444444" stroke-opacity="0.333333" d="M924.0624,-532.7165C949.1637,-542.3072 980.1316,-554.1394 1006.4652,-564.201"/>
<polygon fill="#444444" fill-opacity="0.333333" stroke="#444444" stroke-opacity="0.333333" points="1005.3473,-567.5206 1015.9379,-567.8203 1007.8457,-560.9816 1005.3473,-567.5206"/>
</g>
<!-- initscripts&#45;&gt;hostname -->
<g id="edge10" class="edge">
<title>initscripts&#45;&gt;hostname</title>
<path fill="none" stroke="#444444" stroke-opacity="0.333333" d="M460.5816,-310.2064C472.1539,-287.3761 492.1543,-247.9188 505.598,-221.3968"/>
<polygon fill="#444444" fill-opacity="0.333333" stroke="#444444" stroke-opacity="0.333333" points="508.8271,-222.7676 510.2265,-212.2656 502.5834,-219.6027 508.8271,-222.7676"/>
</g>
<!-- librados2&#45;&gt;boost&#45;random -->
<g id="edge11" class="edge">
<title>librados2&#45;&gt;boost&#45;random</title>
<path fill="none" stroke="#444444" stroke-opacity="0.333333" d="M1069.9693,-603.9314C1080.0244,-630.4135 1098.8293,-679.9394 1110.5891,-710.9111"/>
<polygon fill="#444444" fill-opacity="0.333333" stroke="#444444" stroke-opacity="0.333333" points="1107.3178,-712.1558 1114.1397,-720.2621 1113.862,-709.6709 1107.3178,-712.1558"/>
</g>
<!-- librados2&#45;&gt;boost&#45;system -->
<g id="edge12" class="edge">
<title>librados2&#45;&gt;boost&#45;system</title>
<path fill="none" stroke="#444444" stroke-opacity="0.333333" d="M1093.7186,-603.9007C1111.3695,-614.3123 1133.752,-627.5149 1152.7269,-638.7074"/>
<polygon fill="#444444" fill-opacity="0.333333" stroke="#444444" stroke-opacity="0.333333" points="1151.062,-641.7888 1161.4534,-643.8548 1154.6184,-635.7595 1151.062,-641.7888"/>
</g>
<!-- librados2&#45;&gt;boost&#45;thread -->
<g id="edge13" class="edge">
<title>librados2&#45;&gt;boost&#45;thread</title>
<path fill="none" stroke="#444444" stroke-opacity="0.333333" d="M1122.3802,-574.792C1127.1043,-573.9116 1131.9307,-573.0121 1136.7866,-572.1071"/>
<polygon fill="#444444" fill-opacity="0.333333" stroke="#444444" stroke-opacity="0.333333" points="1137.5827,-575.5191 1146.7722,-570.2461 1136.3002,-568.6375 1137.5827,-575.5191"/>
</g>
<!-- librados2&#45;&gt;boost&#45;iostreams -->
<g id="edge14" class="edge">
<title>librados2&#45;&gt;boost&#45;iostreams</title>
<path fill="none" stroke="#444444" stroke-opacity="0.333333" d="M1071.1576,-567.7429C1082.7431,-541.7225 1104.1972,-493.5374 1117.7233,-463.1583"/>
<polygon fill="#444444" fill-opacity="0.333333" stroke="#444444" stroke-opacity="0.333333" points="1120.9436,-464.5304 1121.8138,-453.9713 1114.5488,-461.6831 1120.9436,-464.5304"/>
</g>
<!-- librados2&#45;&gt;lttng&#45;ust -->
<g id="edge15" class="edge">
<title>librados2&#45;&gt;lttng&#45;ust</title>
<path fill="none" stroke="#444444" stroke-opacity="0.333333" d="M1031.8747,-603.9278C1015.6153,-613.3464 995.5511,-624.9689 978.1581,-635.044"/>
<polygon fill="#444444" fill-opacity="0.333333" stroke="#444444" stroke-opacity="0.333333" points="976.2393,-632.1107 969.3406,-640.1518 979.748,-638.1679 976.2393,-632.1107"/>
</g>
<!-- lttng&#45;ust&#45;&gt;userspace&#45;rcu -->
<g id="edge16" class="edge">
<title>lttng&#45;ust&#45;&gt;userspace&#45;rcu</title>
<path fill="none" stroke="#444444" stroke-opacity="0.333333" d="M879.0632,-642.861C870.3158,-640.5786 861.1853,-638.1962 852.1129,-635.829"/>
<polygon fill="#444444" fill-opacity="0.333333" stroke="#444444" stroke-opacity="0.333333" points="852.8717,-632.4099 842.312,-633.2717 851.1044,-639.1832 852.8717,-632.4099"/>
</g>
<!-- fcoe&#45;utils&#45;&gt;device&#45;mapper&#45;multipath -->
<g id="edge17" class="edge">
<title>fcoe&#45;utils&#45;&gt;device&#45;mapper&#45;multipath</title>
<path fill="none" stroke="#444444" stroke-opacity="0.333333" d="M415.0338,-727.524C446.3449,-692.8004 514.5893,-617.1182 550.3984,-577.4063"/>
<polygon fill="#444444" fill-opacity="0.333333" stroke="#444444" stroke-opacity="0.333333" points="553.0098,-579.7368 557.1072,-569.9663 547.8112,-575.0491 553.0098,-579.7368"/>
</g>
<!-- fcoe&#45;utils&#45;&gt;libpciaccess -->
<g id="edge18" class="edge">
<title>fcoe&#45;utils&#45;&gt;libpciaccess</title>
<path fill="none" stroke="#444444" stroke-opacity="0.333333" d="M400.2911,-763.9589C403.2726,-795.8551 409.4621,-862.071 413.016,-900.0902"/>
<polygon fill="#444444" fill-opacity="0.333333" stroke="#444444" stroke-opacity="0.333333" points="409.5702,-900.8339 413.9857,-910.4647 416.5398,-900.1824 409.5702,-900.8339"/>
</g>
<!-- fcoe&#45;utils&#45;&gt;lldpad -->
<g id="edge19" class="edge">
<title>fcoe&#45;utils&#45;&gt;lldpad</title>
<path fill="none" stroke="#444444" stroke-opacity="0.333333" d="M342.622,-763.7893C312.7195,-773.422 276.1149,-785.2137 246.688,-794.6932"/>
<polygon fill="#444444" fill-opacity="0.333333" stroke="#444444" stroke-opacity="0.333333" points="245.4488,-791.4152 237.0037,-797.8129 247.5952,-798.078 245.4488,-791.4152"/>
</g>
<!-- libpciaccess&#45;&gt;hwdata -->
<g id="edge20" class="edge">
<title>libpciaccess&#45;&gt;hwdata</title>
<path fill="none" stroke="#444444" stroke-opacity="0.333333" d="M414.9065,-946.8262C413.784,-973.2889 411.6932,-1022.5795 410.3669,-1053.8466"/>
<polygon fill="#444444" fill-opacity="0.333333" stroke="#444444" stroke-opacity="0.333333" points="406.8596,-1053.9482 409.9325,-1064.0876 413.8533,-1054.2449 406.8596,-1053.9482"/>
</g>
<!-- lldpad&#45;&gt;libconfig -->
<g id="edge21" class="edge">
<title>lldpad&#45;&gt;libconfig</title>
<path fill="none" stroke="#444444" stroke-opacity="0.333333" d="M180.2456,-829.8185C164.1939,-851.2755 137.2995,-887.2262 118.9698,-911.7283"/>
<polygon fill="#444444" fill-opacity="0.333333" stroke="#444444" stroke-opacity="0.333333" points="116.0629,-909.7711 112.8753,-919.875 121.6681,-913.9643 116.0629,-909.7711"/>
</g>
<!-- lldpad&#45;&gt;libnl3 -->
<g id="edge22" class="edge">
<title>lldpad&#45;&gt;libnl3</title>
<path fill="none" stroke="#444444" stroke-opacity="0.333333" d="M150.5356,-799.9853C133.4904,-795.351 113.7449,-789.9826 95.8555,-785.1188"/>
<polygon fill="#444444" fill-opacity="0.333333" stroke="#444444" stroke-opacity="0.333333" points="96.7047,-781.7227 86.1367,-782.4764 94.8682,-788.4775 96.7047,-781.7227"/>
</g>
<!-- ipset&#45;&gt;ipset&#45;libs -->
<g id="edge23" class="edge">
<title>ipset&#45;&gt;ipset&#45;libs</title>
<path fill="none" stroke="#444444" stroke-opacity="0.333333" d="M1162.8178,-360C1162.6542,-360 1162.4905,-360 1162.3265,-360"/>
<polygon fill="#444444" fill-opacity="0.333333" stroke="#444444" stroke-opacity="0.333333" points="1164.8197,-356.5001 1154.8196,-360 1164.8196,-363.5001 1164.8197,-356.5001"/>
</g>
<!-- iscsi&#45;initiator&#45;utils&#45;&gt;iscsi&#45;initiator&#45;utils&#45;iscsiuio -->
<g id="edge24" class="edge">
<title>iscsi&#45;initiator&#45;utils&#45;&gt;iscsi&#45;initiator&#45;utils&#45;iscsiuio</title>
<path fill="none" stroke="#444444" stroke-opacity="0.333333" d="M1319.9805,-866.3522C1319.827,-866.3511 1319.6735,-866.3499 1319.52,-866.3488"/>
<polygon fill="#444444" fill-opacity="0.333333" stroke="#444444" stroke-opacity="0.333333" points="1322.6088,-862.8685 1312.5867,-866.3049 1322.5643,-869.8683 1322.6088,-862.8685"/>
</g>
<!-- iscsi&#45;initiator&#45;utils&#45;&gt;isns&#45;utils&#45;libs -->
<g id="edge25" class="edge">
<title>iscsi&#45;initiator&#45;utils&#45;&gt;isns&#45;utils&#45;libs</title>
<path fill="none" stroke="#444444" stroke-opacity="0.333333" d="M1567.2671,-873C1593.4003,-873 1620.6934,-873 1645.9028,-873"/>
<polygon fill="#444444" fill-opacity="0.333333" stroke="#444444" stroke-opacity="0.333333" points="1646.1956,-876.5001 1656.1955,-873 1646.1955,-869.5001 1646.1956,-876.5001"/>
</g>
<!-- iscsi&#45;initiator&#45;utils&#45;iscsiuio&#45;&gt;iscsi&#45;initiator&#45;utils -->
<g id="edge26" class="edge">
<title>iscsi&#45;initiator&#45;utils&#45;iscsiuio&#45;&gt;iscsi&#45;initiator&#45;utils</title>
<path fill="none" stroke="#444444" stroke-opacity="0.333333" d="M1312.5188,-879.6955C1312.6774,-879.6947 1312.8361,-879.6938 1312.9947,-879.6929"/>
<polygon fill="#444444" fill-opacity="0.333333" stroke="#444444" stroke-opacity="0.333333" points="1310.1315,-883.2117 1320.1086,-879.6468 1310.0861,-876.2118 1310.1315,-883.2117"/>
</g>
<!-- kbd&#45;&gt;initscripts -->
<g id="edge27" class="edge">
<title>kbd&#45;&gt;initscripts</title>
<path fill="none" stroke="#444444" stroke-opacity="0.333333" d="M319.9099,-193.3662C346.3796,-220.5332 396.3812,-271.8518 426.5161,-302.7806"/>
<polygon fill="#444444" fill-opacity="0.333333" stroke="#444444" stroke-opacity="0.333333" points="424.2377,-305.4576 433.7231,-310.1775 429.2514,-300.5726 424.2377,-305.4576"/>
</g>
<!-- kbd&#45;&gt;kbd&#45;legacy -->
<g id="edge28" class="edge">
<title>kbd&#45;&gt;kbd&#45;legacy</title>
<path fill="none" stroke="#444444" stroke-opacity="0.333333" d="M300.0809,-157.1672C296.8815,-130.0684 290.8046,-78.5986 287.0052,-46.4177"/>
<polygon fill="#444444" fill-opacity="0.333333" stroke="#444444" stroke-opacity="0.333333" points="290.4599,-45.8274 285.8114,-36.3067 283.5082,-46.6482 290.4599,-45.8274"/>
</g>
<!-- kbd&#45;&gt;kbd&#45;misc -->
<g id="edge29" class="edge">
<title>kbd&#45;&gt;kbd&#45;misc</title>
<path fill="none" stroke="#444444" stroke-opacity="0.333333" d="M274.9997,-169.5309C258.0224,-165.9938 235.4156,-161.2838 214.0986,-156.8425"/>
<polygon fill="#444444" fill-opacity="0.333333" stroke="#444444" stroke-opacity="0.333333" points="214.5989,-153.3716 204.0952,-154.7583 213.1711,-160.2245 214.5989,-153.3716"/>
</g>
<!-- kexec&#45;tools&#45;&gt;dracut&#45;network -->
<g id="edge30" class="edge">
<title>kexec&#45;tools&#45;&gt;dracut&#45;network</title>
<path fill="none" stroke="#444444" stroke-opacity="0.333333" d="M713.6709,-838.437C702.8173,-823.5413 687.3841,-802.3605 675.1832,-785.6157"/>
<polygon fill="#444444" fill-opacity="0.333333" stroke="#444444" stroke-opacity="0.333333" points="677.8567,-783.3414 669.139,-777.3204 672.1992,-787.4637 677.8567,-783.3414"/>
</g>
<!-- kexec&#45;tools&#45;&gt;ethtool -->
<g id="edge31" class="edge">
<title>kexec&#45;tools&#45;&gt;ethtool</title>
<path fill="none" stroke="#444444" stroke-opacity="0.333333" d="M718.9886,-875.1166C711.1865,-892.7399 699.2754,-919.6444 690.3145,-939.8851"/>
<polygon fill="#444444" fill-opacity="0.333333" stroke="#444444" stroke-opacity="0.333333" points="687.0312,-938.6554 686.1834,-949.2163 693.432,-941.4892 687.0312,-938.6554"/>
</g>
<!-- kexec&#45;tools&#45;&gt;snappy -->
<g id="edge32" class="edge">
<title>kexec&#45;tools&#45;&gt;snappy</title>
<path fill="none" stroke="#444444" stroke-opacity="0.333333" d="M796.7975,-849.3849C796.96,-849.3676 797.1225,-849.3502 797.2849,-849.3328"/>
<polygon fill="#444444" fill-opacity="0.333333" stroke="#444444" stroke-opacity="0.333333" points="794.9373,-853.1039 804.5085,-848.5604 794.193,-846.1436 794.9373,-853.1039"/>
</g>
<!-- libblockdev&#45;&gt;libblockdev&#45;utils -->
<g id="edge33" class="edge">
<title>libblockdev&#45;&gt;libblockdev&#45;utils</title>
<path fill="none" stroke="#444444" stroke-opacity="0.333333" d="M1017.4088,-246C1017.2486,-246 1017.0882,-246 1016.9278,-246"/>
<polygon fill="#444444" fill-opacity="0.333333" stroke="#444444" stroke-opacity="0.333333" points="1019.6581,-242.5001 1009.6581,-246 1019.658,-249.5001 1019.6581,-242.5001"/>
</g>
<!-- libblockdev&#45;utils&#45;&gt;parted -->
<g id="edge34" class="edge">
<title>libblockdev&#45;utils&#45;&gt;parted</title>
<path fill="none" stroke="#444444" stroke-opacity="0.333333" d="M805.3302,-246C796.7836,-246 788.3815,-246 780.4371,-246"/>
<polygon fill="#444444" fill-opacity="0.333333" stroke="#444444" stroke-opacity="0.333333" points="780.2836,-242.5001 770.2835,-246 780.2835,-249.5001 780.2836,-242.5001"/>
</g>
<!-- passwd&#45;&gt;libuser -->
<g id="edge35" class="edge">
<title>passwd&#45;&gt;libuser</title>
<path fill="none" stroke="#444444" stroke-opacity="0.333333" d="M1213.9378,-1057.1627C1213.8969,-1045.0979 1213.8426,-1029.065 1213.7962,-1015.3712"/>
<polygon fill="#444444" fill-opacity="0.333333" stroke="#444444" stroke-opacity="0.333333" points="1217.295,-1014.999 1213.7611,-1005.011 1210.2951,-1015.0228 1217.295,-1014.999"/>
</g>
<!-- usermode&#45;&gt;passwd -->
<g id="edge36" class="edge">
<title>usermode&#45;&gt;passwd</title>
<path fill="none" stroke="#444444" stroke-opacity="0.333333" d="M1168.7047,-1049.6505C1170.2446,-1050.5294 1171.7994,-1051.4167 1173.3588,-1052.3066"/>
<polygon fill="#444444" fill-opacity="0.333333" stroke="#444444" stroke-opacity="0.333333" points="1171.8484,-1055.4744 1182.2684,-1057.3912 1175.318,-1049.3948 1171.8484,-1055.4744"/>
</g>
<!-- usermode&#45;&gt;libuser -->
<g id="edge37" class="edge">
<title>usermode&#45;&gt;libuser</title>
<path fill="none" stroke="#444444" stroke-opacity="0.333333" d="M1168.1375,-1013.4001C1169.8817,-1012.3895 1171.6463,-1011.367 1173.4163,-1010.3415"/>
<polygon fill="#444444" fill-opacity="0.333333" stroke="#444444" stroke-opacity="0.333333" points="1175.3432,-1013.2701 1182.2409,-1005.2283 1171.8337,-1007.2134 1175.3432,-1013.2701"/>
</g>
<!-- boost&#45;random -->
<g id="node1" class="node">
<title>boost&#45;random</title>
<text text-anchor="middle" x="1121" y="-734.63" font-family="monospace" font-size="14.00" fill="#000000">boost&#45;random</text>
</g>
<!-- boost&#45;system -->
<g id="node2" class="node">
<title>boost&#45;system</title>
<text text-anchor="middle" x="1192.3" y="-658.35" font-family="monospace" font-size="14.00" fill="#000000">boost&#45;system</text>
</g>
<!-- boost&#45;thread -->
<g id="node3" class="node">
<title>boost&#45;thread</title>
<text text-anchor="middle" x="1222.3" y="-552.47" font-family="monospace" font-size="14.00" fill="#000000">boost&#45;thread</text>
</g>
<!-- device&#45;mapper&#45;multipath -->
<g id="node4" class="node">
<title>device&#45;mapper&#45;multipath</title>
<text text-anchor="middle" x="573.38" y="-548.22" font-family="monospace" font-size="14.00" fill="#000000">device&#45;mapper&#45;multipath</text>
</g>
<!-- device&#45;mapper&#45;multipath&#45;libs -->
<g id="node5" class="node">
<title>device&#45;mapper&#45;multipath&#45;libs</title>
<text text-anchor="middle" x="876.49" y="-510.84" font-family="monospace" font-size="14.00" fill="#000000">device&#45;mapper&#45;multipath&#45;libs</text>
</g>
<!-- initscripts -->
<g id="node6" class="node">
<title>initscripts</title>
<text text-anchor="middle" x="451.4" y="-324.62" font-family="monospace" font-size="14.00" fill="#000000">initscripts</text>
</g>
<!-- kpartx -->
<g id="node7" class="node">
<title>kpartx</title>
<text text-anchor="middle" x="388.47" y="-530.21" font-family="monospace" font-size="14.00" fill="#000000">kpartx</text>
</g>
<!-- userspace&#45;rcu -->
<g id="node8" class="node">
<title>userspace&#45;rcu</title>
<text text-anchor="middle" x="773.32" y="-611.57" font-family="monospace" font-size="14.00" fill="#000000">userspace&#45;rcu</text>
</g>
<!-- libaio -->
<g id="node9" class="node">
<title>libaio</title>
<text text-anchor="middle" x="878.05" y="-362.39" font-family="monospace" font-size="14.00" fill="#000000">libaio</text>
</g>
<!-- librados2 -->
<g id="node10" class="node">
<title>librados2</title>
<text text-anchor="middle" x="1063.1" y="-582.14" font-family="monospace" font-size="14.00" fill="#000000">librados2</text>
</g>
<!-- hostname -->
<g id="node11" class="node">
<title>hostname</title>
<text text-anchor="middle" x="519.48" y="-190.31" font-family="monospace" font-size="14.00" fill="#000000">hostname</text>
</g>
<!-- boost&#45;iostreams -->
<g id="node12" class="node">
<title>boost&#45;iostreams</title>
<text text-anchor="middle" x="1129.9" y="-432.11" font-family="monospace" font-size="14.00" fill="#000000">boost&#45;iostreams</text>
</g>
<!-- lttng&#45;ust -->
<g id="node13" class="node">
<title>lttng&#45;ust</title>
<text text-anchor="middle" x="938.08" y="-654.56" font-family="monospace" font-size="14.00" fill="#000000">lttng&#45;ust</text>
</g>
<!-- fcoe&#45;utils -->
<g id="node14" class="node">
<title>fcoe&#45;utils</title>
<text text-anchor="middle" x="398.59" y="-742.06" font-family="monospace" font-size="14.00" fill="#000000">fcoe&#45;utils</text>
</g>
<!-- libpciaccess -->
<g id="node15" class="node">
<title>libpciaccess</title>
<text text-anchor="middle" x="415.68" y="-924.89" font-family="monospace" font-size="14.00" fill="#000000">libpciaccess</text>
</g>
<!-- lldpad -->
<g id="node16" class="node">
<title>lldpad</title>
<text text-anchor="middle" x="193.77" y="-808.04" font-family="monospace" font-size="14.00" fill="#000000">lldpad</text>
</g>
<!-- hwdata -->
<g id="node17" class="node">
<title>hwdata</title>
<text text-anchor="middle" x="409.16" y="-1078.6" font-family="monospace" font-size="14.00" fill="#000000">hwdata</text>
</g>
<!-- libconfig -->
<g id="node18" class="node">
<title>libconfig</title>
<text text-anchor="middle" x="99.376" y="-934.22" font-family="monospace" font-size="14.00" fill="#000000">libconfig</text>
</g>
<!-- libnl3 -->
<g id="node19" class="node">
<title>libnl3</title>
<text text-anchor="middle" x="42.896" y="-767.02" font-family="monospace" font-size="14.00" fill="#000000">libnl3</text>
</g>
<!-- ipset -->
<g id="node20" class="node">
<title>ipset</title>
<text text-anchor="middle" x="1200.4" y="-356.3" font-family="monospace" font-size="14.00" fill="#000000">ipset</text>
</g>
<!-- ipset&#45;libs -->
<g id="node21" class="node">
<title>ipset&#45;libs</title>
<text text-anchor="middle" x="1090.3" y="-356.3" font-family="monospace" font-size="14.00" fill="#000000">ipset&#45;libs</text>
</g>
<!-- iscsi&#45;initiator&#45;utils -->
<g id="node22" class="node">
<title>iscsi&#45;initiator&#45;utils</title>
<text text-anchor="middle" x="1443.7" y="-869.3" font-family="monospace" font-size="14.00" fill="#000000">iscsi&#45;initiator&#45;utils</text>
</g>
<!-- iscsi&#45;initiator&#45;utils&#45;iscsiuio -->
<g id="node23" class="node">
<title>iscsi&#45;initiator&#45;utils&#45;iscsiuio</title>
<text text-anchor="middle" x="1140.6" y="-869.3" font-family="monospace" font-size="14.00" fill="#000000">iscsi&#45;initiator&#45;utils&#45;iscsiuio</text>
</g>
<!-- isns&#45;utils&#45;libs -->
<g id="node24" class="node">
<title>isns&#45;utils&#45;libs</title>
<text text-anchor="middle" x="1747.5" y="-869.3" font-family="monospace" font-size="14.00" fill="#000000">isns&#45;utils&#45;libs</text>
</g>
<!-- kbd -->
<g id="node25" class="node">
<title>kbd</title>
<text text-anchor="middle" x="302.21" y="-171.5" font-family="monospace" font-size="14.00" fill="#000000">kbd</text>
</g>
<!-- kbd&#45;legacy -->
<g id="node26" class="node">
<title>kbd&#45;legacy</title>
<text text-anchor="middle" x="283.65" y="-14.3" font-family="monospace" font-size="14.00" fill="#000000">kbd&#45;legacy</text>
</g>
<!-- kbd&#45;misc -->
<g id="node27" class="node">
<title>kbd&#45;misc</title>
<text text-anchor="middle" x="150.01" y="-139.79" font-family="monospace" font-size="14.00" fill="#000000">kbd&#45;misc</text>
</g>
<!-- kexec&#45;tools -->
<g id="node28" class="node">
<title>kexec&#45;tools</title>
<text text-anchor="middle" x="727.08" y="-853.14" font-family="monospace" font-size="14.00" fill="#000000">kexec&#45;tools</text>
</g>
<!-- dracut&#45;network -->
<g id="node29" class="node">
<title>dracut&#45;network</title>
<text text-anchor="middle" x="655.79" y="-755.3" font-family="monospace" font-size="14.00" fill="#000000">dracut&#45;network</text>
</g>
<!-- ethtool -->
<g id="node30" class="node">
<title>ethtool</title>
<text text-anchor="middle" x="678.08" y="-963.82" font-family="monospace" font-size="14.00" fill="#000000">ethtool</text>
</g>
<!-- snappy -->
<g id="node31" class="node">
<title>snappy</title>
<text text-anchor="middle" x="847.53" y="-840.26" font-family="monospace" font-size="14.00" fill="#000000">snappy</text>
</g>
<!-- libblockdev -->
<g id="node32" class="node">
<title>libblockdev</title>
<text text-anchor="middle" x="1087.1" y="-242.3" font-family="monospace" font-size="14.00" fill="#000000">libblockdev</text>
</g>
<!-- libblockdev&#45;utils -->
<g id="node33" class="node">
<title>libblockdev&#45;utils</title>
<text text-anchor="middle" x="907.51" y="-242.3" font-family="monospace" font-size="14.00" fill="#000000">libblockdev&#45;utils</text>
</g>
<!-- parted -->
<g id="node34" class="node">
<title>parted</title>
<text text-anchor="middle" x="726.9" y="-242.3" font-family="monospace" font-size="14.00" fill="#000000">parted</text>
</g>
<!-- passwd -->
<g id="node35" class="node">
<title>passwd</title>
<text text-anchor="middle" x="1214" y="-1071.8" font-family="monospace" font-size="14.00" fill="#000000">passwd</text>
</g>
<!-- libuser -->
<g id="node36" class="node">
<title>libuser</title>
<text text-anchor="middle" x="1213.7" y="-983.3" font-family="monospace" font-size="14.00" fill="#000000">libuser</text>
</g>
<!-- usermode -->
<g id="node37" class="node">
<title>usermode</title>
<text text-anchor="middle" x="1136.9" y="-1027.8" font-family="monospace" font-size="14.00" fill="#000000">usermode</text>
</g>
</g>
</svg>
