<?xml version="1.0" encoding="UTF-8" standalone="no"?>
<!DOCTYPE svg PUBLIC "-//W3C//DTD SVG 1.1//EN"
 "http://www.w3.org/Graphics/SVG/1.1/DTD/svg11.dtd">
<!-- Generated by graphviz version 2.40.1 (20161225.0304)
 -->
<!-- Title: G Pages: 1 -->
<svg width="2227pt" height="1294pt"
 viewBox="0.00 0.00 2227.14 1293.61" xmlns="http://www.w3.org/2000/svg" xmlns:xlink="http://www.w3.org/1999/xlink">
<g id="graph0" class="graph" transform="scale(1 1) rotate(0) translate(157.0471 1095.8091)">
<title>G</title>
<polygon fill="#dae2ff" stroke="transparent" points="-157.0471,197.7985 -157.0471,-1095.8091 2070.0916,-1095.8091 2070.0916,197.7985 -157.0471,197.7985"/>
<polygon fill="#fbb4ae" stroke="#fbb4ae" points="1864.377,-926.8581 1867.2028,-926.3727 1885.2368,-923.6359 1999.8336,-897.8347 2049.085,-834.707 2050.1763,-738.87 2058.873,-590.6807 2051.926,-579.9755 1865.9607,-580.3036 1853.6847,-580.0394 1849.8813,-580.0486 1841.2616,-580.2758 1840.3517,-580.2574 1835.4471,-580.2757 1834.058,-537.05 1834.058,-537.05 1835.4471,-580.2757 1840.3517,-580.2574 1841.2616,-580.2758 1849.8813,-580.0486 1848.4398,-421.8429 1848.5919,-421.7815 1847.8768,-333.079 1849.2079,-296.9498 1827.7443,-300.2118 1824.5416,-300.5948 1811.4652,-301.3192 1807.0742,-301.4213 1805.5084,-421.5601 1804.0353,-421.5601 1798.4891,-417.2119 1791.5468,-417.2119 1788.618,-359.4561 1783.4178,-421.8193 1777.9839,-421.8193 1777.1276,-422.1591 1770.6948,-422.1591 1769.8424,-421.806 1769.8424,-421.806 1770.6948,-422.1591 1777.1276,-422.1591 1777.9839,-421.8193 1783.4178,-421.8193 1788.618,-359.4561 1791.5468,-417.2119 1798.4891,-417.2119 1804.0353,-421.5601 1805.5084,-421.5601 1807.0742,-301.4213 1811.4652,-301.3192 1824.5416,-300.5948 1827.7443,-300.2118 1849.2079,-296.9498 1847.8768,-333.079 1848.5919,-421.7815 1848.4398,-421.8429 1849.8813,-580.0486 1853.6847,-580.0394 1865.9607,-580.3036 2051.926,-579.9755 2062.6799,-453.8851 2066.0916,-422.2015 2046.6091,-391.8238 1970.7035,-266.9484 1976.2865,-223.8503 1990.1282,-135.3206 1800.6848,-177.5986 1797.0709,-181.5181 1793.2195,-181.5181 1793.0448,-181.4466 1786.2194,-181.4466 1785.1517,-181.002 1778.856,-181.002 1778.5713,-181.1188 1771.3129,-181.1188 1770.9019,-181.2887 1763.88,-181.2887 1763.86,-181.2968 1762.1968,-181.2968 1756.7899,-176.8344 1753.6057,-80.2259 1753.8937,-36.4592 1751.3397,-38.6864 1729.2435,-56.9164 1726.0327,-59.3988 1724.4188,-60.7565 1714.3792,-68.1382 1702.1919,-76.4562 1705.7886,-176.5991 1559.4973,-177.7968 1552.7205,-184.4077 1552.334,-184.7625 1541.116,-196.0802 1524.6377,-214.2247 1520.201,-213.8402 1518.3043,-213.7133 1512.103,-213.421 1495.8972,-213.2955 1494.9426,-286.4178 1494.9426,-286.4178 1495.8972,-213.2955 1489.5745,-212.9928 1468.3623,-211.5504 1466.4683,-211.3458 1451.5048,-209.4274 1450.932,-334.8524 1446.8363,-395.3001 1440.4143,-397.7361 1437.9435,-400.7137 1433.1564,-400.7137 1431.908,-431.9285 1425.4087,-427.0408 1419.4309,-424.1909 1410.5737,-422.3498 1405.2708,-422.7118 1406.2557,-439.5144 1398.8649,-443.4138 1398.0359,-444.5192 1391.3256,-444.5192 1392.7697,-422.8705 1385.303,-421.3984 1384.5703,-444.1854 1378.463,-444.1854 1377.6575,-444.5117 1371.082,-444.5117 1370.1777,-444.8817 1363.7286,-444.8817 1363.4977,-407.9521 1358.6045,-403.7184 1347.0621,-391.2813 1343.7045,-387.0346 1340.8859,-382.8877 1334.9772,-439.8547 1328.4152,-439.8547 1322.558,-444.2532 1321.3745,-444.2532 1320.6958,-444.5183 1315.1094,-444.5183 1314.9878,-444.4703 1314.9878,-444.4703 1315.1094,-444.5183 1320.6958,-444.5183 1321.3745,-444.2532 1322.558,-444.2532 1328.4152,-439.8547 1334.9772,-439.8547 1340.8859,-382.8877 1343.7045,-387.0346 1347.0621,-391.2813 1358.6045,-403.7184 1363.4977,-407.9521 1363.7286,-444.8817 1370.1777,-444.8817 1371.082,-444.5117 1377.6575,-444.5117 1378.463,-444.1854 1384.5703,-444.1854 1385.303,-421.3984 1392.7697,-422.8705 1391.3256,-444.5192 1398.0359,-444.5192 1398.8649,-443.4138 1406.2557,-439.5144 1405.2708,-422.7118 1410.5737,-422.3498 1419.4309,-424.1909 1425.4087,-427.0408 1431.908,-431.9285 1433.1564,-400.7137 1432.2842,-400.3626 1425.8167,-400.3626 1425.8167,-400.3626 1432.2842,-400.3626 1433.1564,-400.7137 1437.9435,-400.7137 1440.4143,-397.7361 1446.8363,-395.3001 1450.932,-334.8524 1451.5048,-209.4274 1466.4683,-211.3458 1468.3623,-211.5504 1489.5745,-212.9928 1495.8972,-213.2955 1512.103,-213.421 1518.3043,-213.7133 1520.201,-213.8402 1524.6377,-214.2247 1541.116,-196.0802 1552.334,-184.7625 1552.7205,-184.4077 1559.4973,-177.7968 1705.7886,-176.5991 1702.1919,-76.4562 1714.3792,-68.1382 1724.4188,-60.7565 1726.0327,-59.3988 1729.2435,-56.9164 1751.3397,-38.6864 1753.8937,-36.4592 1753.6057,-80.2259 1756.7899,-176.8344 1762.1968,-181.2968 1763.86,-181.2968 1763.88,-181.2887 1770.9019,-181.2887 1771.3129,-181.1188 1778.5713,-181.1188 1778.856,-181.002 1785.1517,-181.002 1786.2194,-181.4466 1793.0448,-181.4466 1793.2195,-181.5181 1797.0709,-181.5181 1800.6848,-177.5986 1990.1282,-135.3206 2004.8685,-54.0398 1984.2167,-.7117 1963.3712,23.8208 1823.5759,43.2244 1663.6909,188.2452 1627.2268,188.645 1607.6149,184.0509 1608.4021,60.0299 1608.4021,60.0299 1607.6149,184.0509 1600.1263,182.5704 1584.0469,179.9758 1571.0837,178.1208 1552.2117,176.4539 1544.5574,175.9178 1520.4541,175.5499 1514.3291,175.5684 1507.7111,175.8298 1441.0195,179.6818 1430.8192,-4.5733 1429.2264,-18 1429.4141,-47.9549 1420.7983,-203.587 1400.6665,-206.7771 1358.1642,-211.0042 1355.4753,-211.3236 1281.702,-271.3362 1281.4006,-271.4402 1268.7935,-275.1925 1272.0555,-444.4046 1265.4226,-444.4046 1261.176,-383.5019 1257.4917,-439.9651 1154.3484,-444.1535 1115.8644,-394.6653 1098.302,-369.718 1097.5692,-368.5818 1097.5692,-368.5818 1098.302,-369.718 1115.8644,-394.6653 1154.3484,-444.1535 1257.4917,-439.9651 1261.176,-383.5019 1265.4226,-444.4046 1272.0555,-444.4046 1268.7935,-275.1925 1260.9384,-277.3433 1184.0192,-294.7596 1175.5262,-296.883 1168.1456,-298.9021 1157.6987,-302.2549 1140.4839,-308.188 1125.3206,-314.1231 1124.1704,-314.6268 1099.7163,-326.5116 1078.9301,-338.0882 1077.0793,-338.0511 1075.79,-338.0703 1076.8987,-547.6146 1070.3617,-547.6146 1069.6913,-547.8772 1068.8698,-547.8772 1063.2351,-543.5077 1063.2351,-543.5077 1068.8698,-547.8772 1069.6913,-547.8772 1070.3617,-547.6146 1076.8987,-547.6146 1075.79,-338.0703 1062.8521,-338.0426 1049.939,-337.3527 1045.5923,-337.0462 1032.401,-335.89 1021.2195,-334.5276 1001.1146,-331.3889 995.7756,-330.4645 860.8802,-304.8162 833.8676,-401.0803 813.4985,-480.1086 803.2876,-523.9841 790.6837,-572.9727 783.6304,-598.1083 924.0887,-734.1713 934.8189,-838.8705 939.3931,-898.2599 946.2817,-906.6508 990.6848,-944.6964 1120.2466,-959.1953 1140.8281,-962.3605 1142.6796,-962.7223 1164.3578,-967.8736 1170.8361,-969.548 1175.7218,-971.0154 1243.9681,-1036.7375 1332.4677,-1042.403 1339.621,-1043.0063 1360.1594,-1045.5754 1357.6073,-911.7436 1360.8163,-856.496 1360.4769,-856.3585 1358.6309,-762.3895 1360.314,-687.2622 1338.7008,-721.9936 1330.9666,-732.9745 1314.2808,-755.162 1217.6914,-772.8822 1214.045,-776.2772 1210.9425,-776.2772 1210.9425,-776.2772 1214.045,-776.2772 1217.6914,-772.8822 1314.2808,-755.162 1330.9666,-732.9745 1338.7008,-721.9936 1360.314,-687.2622 1358.6309,-762.3895 1360.4769,-856.3585 1360.8163,-856.496 1357.6073,-911.7436 1360.1594,-1045.5754 1373.2054,-1047.7366 1376.2271,-1048.3596 1379.9531,-973.5692 1381.8958,-856.7585 1381.8958,-856.7585 1379.9531,-973.5692 1376.2271,-1048.3596 1410.2885,-1056.7849 1412.8275,-1057.5146 1416.09,-1058.5184 1423.4923,-1060.9464 1434.1564,-1064.6615 1434.561,-998.335 1434.561,-998.335 1434.1564,-1064.6615 1450.6896,-1071.0946 1453.3992,-1072.2035 1462.5438,-1076.3199 1474.7773,-1082.0784 1494.5936,-1091.8091 1589.6232,-1053.5387 1658.9249,-955.2547 1723.9657,-924.4986 1717.2535,-768.8485 1638.9432,-748.4332 1649.3115,-941.0585 1627.9431,-910.7366 1628.6409,-787.5914 1624.4696,-745.258 1624.3018,-745.1926 1619.4156,-745.1926 1619.4125,-745.1938 1615.0092,-783.7005 1615.3793,-894.4197 1606.4315,-883.2462 1589.9408,-863.758 1580.9264,-854.3837 1580.7637,-834.1441 1580.7637,-834.1441 1580.9264,-854.3837 1589.9408,-863.758 1606.4315,-883.2462 1615.3793,-894.4197 1615.0092,-783.7005 1619.4125,-745.1938 1619.4156,-745.1926 1624.3018,-745.1926 1624.4696,-745.258 1628.6409,-787.5914 1627.9431,-910.7366 1649.3115,-941.0585 1638.9432,-748.4332 1717.2535,-768.8485 1723.9657,-924.4986 1793.9899,-921.7161 1805.3174,-921.7194 1817.7094,-921.9714 1832.4395,-922.8613 1832.0571,-785.1804 1828.0591,-743.5573 1833.9082,-738.8851 1828.4374,-734.4999 1828.4374,-734.4999 1833.9082,-738.8851 1828.0591,-743.5573 1832.0571,-785.1804 1832.4395,-922.8613 1844.731,-924.0963 1864.377,-926.8581 1864.377,-926.8581"/>
<polygon fill="#fed9a6" stroke="#fed9a6" points="33.408,-432.4255 -7.3759,-427.53 -145.2065,-427.53 -153.0471,-370.4668 -83.8665,-278.3151 16.6558,-240.0054 35.6033,-243.956 40.6226,-244.8921 53.9918,-246.801 65.319,-248.1699 74.6428,-249.0918 87.586,-249.8031 161.9705,-252.2581 227.3326,-272.179 229.8275,-272.0331 241.4581,-270.8309 354.5236,-269.1329 452.0831,-190.0673 527.8145,-193.8228 530.4532,-339.9728 530.4532,-339.9728 527.8145,-193.8228 547.0997,-194.2214 547.6956,-194.2165 561.5453,-193.9013 577.9535,-193.2902 586.2041,-192.8637 616.4601,-189.5468 704.6386,-176.0617 793.011,-201.1098 860.8802,-304.8162 833.8676,-401.0803 813.4985,-480.1086 803.2876,-523.9841 790.6837,-572.9727 783.6304,-598.1083 646.507,-646.2347 618.259,-644.1401 607.2303,-643.7195 596.7802,-643.5092 586.3459,-643.4873 574.007,-643.9063 557.6948,-645.0482 545.1815,-646.3746 518.5372,-650.6425 510.9444,-651.9943 399.4861,-609.3955 227.8826,-691.3705 209.4787,-701.2043 168.2213,-724.403 60.6768,-661.7208 54.3308,-660.546 49.9237,-659.8796 26.0383,-657.0731 5.9216,-655.0507 -61.861,-630.2271 -138.8704,-501.8063 -145.2065,-427.53 -7.3759,-427.53 33.408,-432.4255 40.0547,-427.8857 40.2201,-427.6258 40.423,-427.5407 48.2364,-427.5407 48.6724,-427.3573 49.9153,-427.3573 55.3224,-431.8619 55.3224,-431.8619 49.9153,-427.3573 48.6724,-427.3573 48.2364,-427.5407 40.423,-427.5407 40.2201,-427.6258 40.0547,-427.8857 33.408,-432.4255 33.408,-432.4255"/>
<polygon fill="#ccebc5" stroke="#ccebc5" points="1077.0793,-338.0511 1080.292,-185.7375 1080.292,-185.7375 1077.0793,-338.0511 1075.79,-338.0703 1062.8521,-338.0426 1049.939,-337.3527 1045.5923,-337.0462 1032.401,-335.89 1021.2195,-334.5276 1001.1146,-331.3889 995.7756,-330.4645 860.8802,-304.8162 793.011,-201.1098 846.345,-128.42 924.4904,-12.5959 1051.2036,78.3391 1056.3409,80.7966 1065.4473,81.0645 1208.1095,170.5224 1209.2114,170.9489 1241.3486,169.0979 1259.9508,168.3945 1272.7228,168.4182 1281.7689,168.7937 1286.5623,169.0878 1296.478,169.8931 1315.8975,171.8557 1334.0851,175.1362 1356.7009,180.1148 1351.7247,35.7167 1351.7247,35.7167 1356.7009,180.1148 1409.4386,193.7985 1441.0195,179.6818 1430.8192,-4.5733 1429.2264,-18 1429.4141,-47.9549 1420.7983,-203.587 1400.6665,-206.7771 1358.1642,-211.0042 1353.6102,-23.1477 1346.634,-19.6575 1345.2114,-17.8636 1340.8871,-17.8636 1340.2651,-18.1103 1336.1357,-77.6512 1332.0096,-18.1103 1331.5851,-17.9419 1326.2327,-17.9419 1326.0809,-18.001 1326.0809,-18.001 1326.2327,-17.9419 1331.5851,-17.9419 1332.0096,-18.1103 1336.1357,-77.6512 1340.2651,-18.1103 1340.8871,-17.8636 1345.2114,-17.8636 1346.634,-19.6575 1353.6102,-23.1477 1358.1642,-211.0042 1355.4753,-211.3236 1281.702,-271.3362 1281.4006,-271.4402 1268.7935,-275.1925 1260.9384,-277.3433 1184.0192,-294.7596 1175.5262,-296.883 1168.1456,-298.9021 1157.6987,-302.2549 1140.4839,-308.188 1125.3206,-314.1231 1126.2484,-282.4316 1126.2484,-282.4316 1125.3206,-314.1231 1124.1704,-314.6268 1099.7163,-326.5116 1099.6545,-312.6393 1099.6545,-312.6393 1099.7163,-326.5116 1078.9301,-338.0882 1077.0793,-338.0511 1077.0793,-338.0511"/>
<polyline fill="none" stroke="#000000" points="1164.3578,-967.8736 1170.8361,-969.548 1175.7218,-971.0154 1243.9681,-1036.7375 1332.4677,-1042.403 1339.621,-1043.0063 1360.1594,-1045.5754 1373.2054,-1047.7366 1376.2271,-1048.3596 1410.2885,-1056.7849 1412.8275,-1057.5146 1416.09,-1058.5184 1423.4923,-1060.9464 1434.1564,-1064.6615 1450.6896,-1071.0946 1453.3992,-1072.2035 1462.5438,-1076.3199 1474.7773,-1082.0784 1494.5936,-1091.8091 1589.6232,-1053.5387 1658.9249,-955.2547 1723.9657,-924.4986 1793.9899,-921.7161 1805.3174,-921.7194 1817.7094,-921.9714 1832.4395,-922.8613 1844.731,-924.0963 1864.377,-926.8581 1867.2028,-926.3727 1885.2368,-923.6359 1999.8336,-897.8347 2049.085,-834.707 2050.1763,-738.87 2058.873,-590.6807 2051.926,-579.9755 2062.6799,-453.8851 2066.0916,-422.2015 2046.6091,-391.8238 1970.7035,-266.9484 1976.2865,-223.8503 1990.1282,-135.3206 2004.8685,-54.0398 1984.2167,-.7117 1963.3712,23.8208 1823.5759,43.2244 1663.6909,188.2452 1627.2268,188.645 1607.6149,184.0509 1600.1263,182.5704 1584.0469,179.9758 1571.0837,178.1208 1552.2117,176.4539 1544.5574,175.9178 1520.4541,175.5499 1514.3291,175.5684 1507.7111,175.8298 1441.0195,179.6818 1430.8192,-4.5733 1429.2264,-18 1429.4141,-47.9549 1420.7983,-203.587 1400.6665,-206.7771 1358.1642,-211.0042 1355.4753,-211.3236 1281.702,-271.3362 1281.4006,-271.4402 1268.7935,-275.1925 1260.9384,-277.3433 1184.0192,-294.7596 1175.5262,-296.883 1168.1456,-298.9021 1157.6987,-302.2549 1140.4839,-308.188 1125.3206,-314.1231 1124.1704,-314.6268 1099.7163,-326.5116 1078.9301,-338.0882 1077.0793,-338.0511 1075.79,-338.0703 1062.8521,-338.0426 1049.939,-337.3527 1045.5923,-337.0462 1032.401,-335.89 1021.2195,-334.5276 1001.1146,-331.3889 995.7756,-330.4645 860.8802,-304.8162 833.8676,-401.0803 813.4985,-480.1086 803.2876,-523.9841 790.6837,-572.9727 783.6304,-598.1083 924.0887,-734.1713 934.8189,-838.8705 939.3931,-898.2599 946.2817,-906.6508 990.6848,-944.6964 1120.2466,-959.1953 1140.8281,-962.3605 1142.6796,-962.7223 1164.3578,-967.8736 "/>
<polyline fill="none" stroke="#000000" points="574.007,-643.9063 586.3459,-643.4873 596.7802,-643.5092 607.2303,-643.7195 618.259,-644.1401 646.507,-646.2347 783.6304,-598.1083 790.6837,-572.9727 803.2876,-523.9841 813.4985,-480.1086 833.8676,-401.0803 860.8802,-304.8162 793.011,-201.1098 704.6386,-176.0617 616.4601,-189.5468 586.2041,-192.8637 577.9535,-193.2902 561.5453,-193.9013 547.6956,-194.2165 547.0997,-194.2214 527.8145,-193.8228 452.0831,-190.0673 354.5236,-269.1329 241.4581,-270.8309 229.8275,-272.0331 227.3326,-272.179 161.9705,-252.2581 87.586,-249.8031 74.6428,-249.0918 65.319,-248.1699 53.9918,-246.801 40.6226,-244.8921 35.6033,-243.956 16.6558,-240.0054 -83.8665,-278.3151 -153.0471,-370.4668 -145.2065,-427.53 -138.8704,-501.8063 -61.861,-630.2271 5.9216,-655.0507 26.0383,-657.0731 49.9237,-659.8796 54.3308,-660.546 60.6768,-661.7208 168.2213,-724.403 209.4787,-701.2043 227.8826,-691.3705 399.4861,-609.3955 510.9444,-651.9943 518.5372,-650.6425 545.1815,-646.3746 557.6948,-645.0482 574.007,-643.9063 "/>
<polyline fill="none" stroke="#000000" points="1296.478,169.8931 1286.5623,169.0878 1281.7689,168.7937 1272.7228,168.4182 1259.9508,168.3945 1241.3486,169.0979 1209.2114,170.9489 1208.1095,170.5224 1065.4473,81.0645 1056.3409,80.7966 1051.2036,78.3391 924.4904,-12.5959 846.345,-128.42 793.011,-201.1098 860.8802,-304.8162 995.7756,-330.4645 1001.1146,-331.3889 1021.2195,-334.5276 1032.401,-335.89 1045.5923,-337.0462 1049.939,-337.3527 1062.8521,-338.0426 1075.79,-338.0703 1077.0793,-338.0511 1078.9301,-338.0882 1099.7163,-326.5116 1124.1704,-314.6268 1125.3206,-314.1231 1140.4839,-308.188 1157.6987,-302.2549 1168.1456,-298.9021 1175.5262,-296.883 1184.0192,-294.7596 1260.9384,-277.3433 1268.7935,-275.1925 1281.4006,-271.4402 1281.702,-271.3362 1355.4753,-211.3236 1358.1642,-211.0042 1400.6665,-206.7771 1420.7983,-203.587 1429.4141,-47.9549 1429.2264,-18 1430.8192,-4.5733 1441.0195,179.6818 1409.4386,193.7985 1356.7009,180.1148 1334.0851,175.1362 1315.8975,171.8557 1296.478,169.8931 "/>
<!-- apache&#45;commons&#45;cli&#45;&gt;java&#45;1.8.0&#45;openjdk&#45;headless -->
<g id="edge1" class="edge">
<title>apache&#45;commons&#45;cli&#45;&gt;java&#45;1.8.0&#45;openjdk&#45;headless</title>
<path fill="none" stroke="#444444" stroke-opacity="0.333333" d="M1177.0454,-758.1917C1204.3018,-702.9939 1285.7599,-538.0301 1318.2758,-472.1809"/>
<polygon fill="#444444" fill-opacity="0.333333" stroke="#444444" stroke-opacity="0.333333" points="1321.5932,-473.3677 1322.8825,-462.8516 1315.3167,-470.2684 1321.5932,-473.3677"/>
</g>
<!-- apache&#45;commons&#45;cli&#45;&gt;javapackages&#45;tools -->
<g id="edge2" class="edge">
<title>apache&#45;commons&#45;cli&#45;&gt;javapackages&#45;tools</title>
<path fill="none" stroke="#444444" stroke-opacity="0.333333" d="M1181.4616,-758.3786C1226.7688,-697.3542 1373.8719,-499.221 1427.3962,-427.1291"/>
<polygon fill="#444444" fill-opacity="0.333333" stroke="#444444" stroke-opacity="0.333333" points="1430.2955,-429.0953 1433.4465,-418.9799 1424.6752,-424.9225 1430.2955,-429.0953"/>
</g>
<!-- java&#45;1.8.0&#45;openjdk&#45;headless&#45;&gt;javapackages&#45;tools -->
<g id="edge3" class="edge">
<title>java&#45;1.8.0&#45;openjdk&#45;headless&#45;&gt;javapackages&#45;tools</title>
<path fill="none" stroke="#444444" stroke-opacity="0.333333" d="M1397.9615,-426.548C1401.2787,-425.2417 1404.5577,-423.9174 1407.7534,-422.5924"/>
<polygon fill="#444444" fill-opacity="0.333333" stroke="#444444" stroke-opacity="0.333333" points="1409.2176,-425.7731 1417.0449,-418.6328 1406.4732,-419.3334 1409.2176,-425.7731"/>
</g>
<!-- java&#45;1.8.0&#45;openjdk&#45;headless&#45;&gt;copy&#45;jdk&#45;configs -->
<g id="edge4" class="edge">
<title>java&#45;1.8.0&#45;openjdk&#45;headless&#45;&gt;copy&#45;jdk&#45;configs</title>
<path fill="none" stroke="#444444" stroke-opacity="0.333333" d="M1176.1665,-444.1341C1028.4732,-443.7016 810.4715,-443.0634 681.1771,-442.6848"/>
<polygon fill="#444444" fill-opacity="0.333333" stroke="#444444" stroke-opacity="0.333333" points="680.8813,-439.1841 670.8711,-442.6547 680.8608,-446.184 680.8813,-439.1841"/>
</g>
<!-- java&#45;1.8.0&#45;openjdk&#45;headless&#45;&gt;tzdata&#45;java -->
<g id="edge5" class="edge">
<title>java&#45;1.8.0&#45;openjdk&#45;headless&#45;&gt;tzdata&#45;java</title>
<path fill="none" stroke="#444444" stroke-opacity="0.333333" d="M1362.3735,-462.7765C1448.0103,-513.8841 1690.7631,-658.758 1785.9856,-715.5864"/>
<polygon fill="#444444" fill-opacity="0.333333" stroke="#444444" stroke-opacity="0.333333" points="1784.3492,-718.6856 1794.7299,-720.8049 1787.9365,-712.6747 1784.3492,-718.6856"/>
</g>
<!-- javapackages&#45;tools&#45;&gt;java&#45;1.8.0&#45;openjdk&#45;headless -->
<g id="edge6" class="edge">
<title>javapackages&#45;tools&#45;&gt;java&#45;1.8.0&#45;openjdk&#45;headless</title>
<path fill="none" stroke="#444444" stroke-opacity="0.333333" d="M1381.0385,-418.632C1377.7213,-419.9383 1374.4423,-421.2626 1371.2466,-422.5876"/>
<polygon fill="#444444" fill-opacity="0.333333" stroke="#444444" stroke-opacity="0.333333" points="1369.7824,-419.4069 1361.9551,-426.5472 1372.5268,-425.8466 1369.7824,-419.4069"/>
</g>
<!-- copy&#45;jdk&#45;configs&#45;&gt;lua -->
<g id="edge7" class="edge">
<title>copy&#45;jdk&#45;configs&#45;&gt;lua</title>
<path fill="none" stroke="#444444" stroke-opacity="0.333333" d="M476.5668,-453.5302C404.4456,-461.8218 310.0322,-472.6762 258.791,-478.5673"/>
<polygon fill="#444444" fill-opacity="0.333333" stroke="#444444" stroke-opacity="0.333333" points="258.3714,-475.0924 248.8366,-479.7117 259.1709,-482.0465 258.3714,-475.0924"/>
</g>
<!-- copy&#45;jdk&#45;configs&#45;&gt;lua&#45;posix -->
<g id="edge8" class="edge">
<title>copy&#45;jdk&#45;configs&#45;&gt;lua&#45;posix</title>
<path fill="none" stroke="#444444" stroke-opacity="0.333333" d="M476.5652,-439.57C375.0606,-436.6422 218.2974,-432.1206 128.5604,-429.5322"/>
<polygon fill="#444444" fill-opacity="0.333333" stroke="#444444" stroke-opacity="0.333333" points="128.5876,-426.0316 118.4908,-429.2418 128.3857,-433.0287 128.5876,-426.0316"/>
</g>
<!-- lua&#45;posix&#45;&gt;lua -->
<g id="edge26" class="edge">
<title>lua&#45;posix&#45;&gt;lua</title>
<path fill="none" stroke="#444444" stroke-opacity="0.333333" d="M112.4043,-445.634C136.0794,-453.6817 163.3716,-462.9589 184.7733,-470.2338"/>
<polygon fill="#444444" fill-opacity="0.333333" stroke="#444444" stroke-opacity="0.333333" points="183.8662,-473.6221 194.4606,-473.5267 186.1191,-466.9945 183.8662,-473.6221"/>
</g>
<!-- apache&#45;commons&#45;codec&#45;&gt;java&#45;1.8.0&#45;openjdk&#45;headless -->
<g id="edge9" class="edge">
<title>apache&#45;commons&#45;codec&#45;&gt;java&#45;1.8.0&#45;openjdk&#45;headless</title>
<path fill="none" stroke="#444444" stroke-opacity="0.333333" d="M1568.2339,-726.8762C1525.2156,-675.4934 1403.4749,-530.0818 1353.6086,-470.5196"/>
<polygon fill="#444444" fill-opacity="0.333333" stroke="#444444" stroke-opacity="0.333333" points="1356.168,-468.1244 1347.065,-462.7036 1350.8007,-472.618 1356.168,-468.1244"/>
</g>
<!-- apache&#45;commons&#45;codec&#45;&gt;javapackages&#45;tools -->
<g id="edge10" class="edge">
<title>apache&#45;commons&#45;codec&#45;&gt;javapackages&#45;tools</title>
<path fill="none" stroke="#444444" stroke-opacity="0.333333" d="M1576.4534,-727.1859C1554.0695,-670.6704 1485.2027,-496.7929 1458.1623,-428.5205"/>
<polygon fill="#444444" fill-opacity="0.333333" stroke="#444444" stroke-opacity="0.333333" points="1461.2771,-426.8798 1454.3406,-418.8713 1454.7689,-429.4575 1461.2771,-426.8798"/>
</g>
<!-- apache&#45;commons&#45;collections&#45;&gt;java&#45;1.8.0&#45;openjdk&#45;headless -->
<g id="edge11" class="edge">
<title>apache&#45;commons&#45;collections&#45;&gt;java&#45;1.8.0&#45;openjdk&#45;headless</title>
<path fill="none" stroke="#444444" stroke-opacity="0.333333" d="M1400.0443,-838.3744C1388.7702,-773.2251 1350.4289,-551.6627 1336.7764,-472.7693"/>
<polygon fill="#444444" fill-opacity="0.333333" stroke="#444444" stroke-opacity="0.333333" points="1340.1732,-471.8717 1335.0192,-462.615 1333.2757,-473.0654 1340.1732,-471.8717"/>
</g>
<!-- apache&#45;commons&#45;collections&#45;&gt;javapackages&#45;tools -->
<g id="edge12" class="edge">
<title>apache&#45;commons&#45;collections&#45;&gt;javapackages&#45;tools</title>
<path fill="none" stroke="#444444" stroke-opacity="0.333333" d="M1404.948,-838.4521C1411.7075,-768.2366 1436.1649,-514.1808 1444.3841,-428.8016"/>
<polygon fill="#444444" fill-opacity="0.333333" stroke="#444444" stroke-opacity="0.333333" points="1447.8725,-429.0892 1445.347,-418.7998 1440.9048,-428.4184 1447.8725,-429.0892"/>
</g>
<!-- apache&#45;commons&#45;daemon&#45;&gt;java&#45;1.8.0&#45;openjdk&#45;headless -->
<g id="edge13" class="edge">
<title>apache&#45;commons&#45;daemon&#45;&gt;java&#45;1.8.0&#45;openjdk&#45;headless</title>
<path fill="none" stroke="#444444" stroke-opacity="0.333333" d="M1107.4251,-529.7453C1154.0244,-512.0677 1224.9757,-485.1521 1274.6023,-466.3261"/>
<polygon fill="#444444" fill-opacity="0.333333" stroke="#444444" stroke-opacity="0.333333" points="1276.1213,-469.4933 1284.2297,-462.6739 1273.6384,-462.9484 1276.1213,-469.4933"/>
</g>
<!-- apache&#45;commons&#45;daemon&#45;&gt;javapackages&#45;tools -->
<g id="edge14" class="edge">
<title>apache&#45;commons&#45;daemon&#45;&gt;javapackages&#45;tools</title>
<path fill="none" stroke="#444444" stroke-opacity="0.333333" d="M1107.2028,-529.793C1178.6026,-502.6523 1313.3631,-451.4266 1390.0066,-422.2926"/>
<polygon fill="#444444" fill-opacity="0.333333" stroke="#444444" stroke-opacity="0.333333" points="1391.4084,-425.5041 1399.5123,-418.6792 1388.9212,-418.9609 1391.4084,-425.5041"/>
</g>
<!-- apache&#45;commons&#45;dbcp&#45;&gt;java&#45;1.8.0&#45;openjdk&#45;headless -->
<g id="edge15" class="edge">
<title>apache&#45;commons&#45;dbcp&#45;&gt;java&#45;1.8.0&#45;openjdk&#45;headless</title>
<path fill="none" stroke="#444444" stroke-opacity="0.333333" d="M1302.308,-36.0576C1307.1341,-102.6845 1323.9656,-335.0517 1329.8501,-416.2897"/>
<polygon fill="#444444" fill-opacity="0.333333" stroke="#444444" stroke-opacity="0.333333" points="1326.361,-416.5683 1330.5744,-426.2893 1333.3427,-416.0626 1326.361,-416.5683"/>
</g>
<!-- apache&#45;commons&#45;dbcp&#45;&gt;javapackages&#45;tools -->
<g id="edge16" class="edge">
<title>apache&#45;commons&#45;dbcp&#45;&gt;javapackages&#45;tools</title>
<path fill="none" stroke="#444444" stroke-opacity="0.333333" d="M1307.9484,-36.1957C1331.4543,-97.7502 1408.1027,-298.4684 1436.4415,-372.6787"/>
<polygon fill="#444444" fill-opacity="0.333333" stroke="#444444" stroke-opacity="0.333333" points="1433.2718,-374.1895 1440.109,-382.2829 1439.8112,-371.6922 1433.2718,-374.1895"/>
</g>
<!-- apache&#45;commons&#45;dbcp&#45;&gt;apache&#45;commons&#45;pool -->
<g id="edge17" class="edge">
<title>apache&#45;commons&#45;dbcp&#45;&gt;apache&#45;commons&#45;pool</title>
<path fill="none" stroke="#444444" stroke-opacity="0.333333" d="M1272.8454,-36.2336C1243.8829,-54.9905 1198.6486,-84.2853 1166.9653,-104.8042"/>
<polygon fill="#444444" fill-opacity="0.333333" stroke="#444444" stroke-opacity="0.333333" points="1164.904,-101.9692 1158.4131,-110.3428 1168.7092,-107.8447 1164.904,-101.9692"/>
</g>
<!-- apache&#45;commons&#45;pool&#45;&gt;java&#45;1.8.0&#45;openjdk&#45;headless -->
<g id="edge18" class="edge">
<title>apache&#45;commons&#45;pool&#45;&gt;java&#45;1.8.0&#45;openjdk&#45;headless</title>
<path fill="none" stroke="#444444" stroke-opacity="0.333333" d="M1142.1986,-146.7852C1176.206,-200.172 1275.1453,-355.493 1314.9856,-418.0367"/>
<polygon fill="#444444" fill-opacity="0.333333" stroke="#444444" stroke-opacity="0.333333" points="1312.0955,-420.0143 1320.42,-426.5681 1317.9994,-416.2534 1312.0955,-420.0143"/>
</g>
<!-- apache&#45;commons&#45;pool&#45;&gt;javapackages&#45;tools -->
<g id="edge19" class="edge">
<title>apache&#45;commons&#45;pool&#45;&gt;javapackages&#45;tools</title>
<path fill="none" stroke="#444444" stroke-opacity="0.333333" d="M1151.7646,-146.7005C1206.9622,-194.1519 1354.8903,-321.3205 1417.9618,-375.5409"/>
<polygon fill="#444444" fill-opacity="0.333333" stroke="#444444" stroke-opacity="0.333333" points="1416.0632,-378.5242 1425.9279,-382.3891 1420.6264,-373.216 1416.0632,-378.5242"/>
</g>
<!-- apache&#45;commons&#45;io&#45;&gt;java&#45;1.8.0&#45;openjdk&#45;headless -->
<g id="edge20" class="edge">
<title>apache&#45;commons&#45;io&#45;&gt;java&#45;1.8.0&#45;openjdk&#45;headless</title>
<path fill="none" stroke="#444444" stroke-opacity="0.333333" d="M1724.0561,-199.2387C1649.7426,-245.7327 1452.2564,-369.2894 1369.361,-421.1526"/>
<polygon fill="#444444" fill-opacity="0.333333" stroke="#444444" stroke-opacity="0.333333" points="1367.3886,-418.258 1360.7675,-426.5292 1371.1014,-424.1923 1367.3886,-418.258"/>
</g>
<!-- apache&#45;commons&#45;io&#45;&gt;javapackages&#45;tools -->
<g id="edge21" class="edge">
<title>apache&#45;commons&#45;io&#45;&gt;javapackages&#45;tools</title>
<path fill="none" stroke="#444444" stroke-opacity="0.333333" d="M1727.7067,-199.276C1672.7477,-238.7049 1542.4215,-332.204 1480.6667,-376.5085"/>
<polygon fill="#444444" fill-opacity="0.333333" stroke="#444444" stroke-opacity="0.333333" points="1478.5079,-373.7496 1472.4229,-382.4228 1482.5884,-379.4373 1478.5079,-373.7496"/>
</g>
<!-- apache&#45;commons&#45;lang&#45;&gt;java&#45;1.8.0&#45;openjdk&#45;headless -->
<g id="edge22" class="edge">
<title>apache&#45;commons&#45;lang&#45;&gt;java&#45;1.8.0&#45;openjdk&#45;headless</title>
<path fill="none" stroke="#444444" stroke-opacity="0.333333" d="M1549.7652,-44.3482C1513.7224,-110.5628 1389.7111,-338.3849 1346.7172,-417.3692"/>
<polygon fill="#444444" fill-opacity="0.333333" stroke="#444444" stroke-opacity="0.333333" points="1343.594,-415.7862 1341.8871,-426.2427 1349.7421,-419.1329 1343.594,-415.7862"/>
</g>
<!-- apache&#45;commons&#45;lang&#45;&gt;javapackages&#45;tools -->
<g id="edge23" class="edge">
<title>apache&#45;commons&#45;lang&#45;&gt;javapackages&#45;tools</title>
<path fill="none" stroke="#444444" stroke-opacity="0.333333" d="M1554.2691,-44.1596C1536.1389,-104.4581 1477.6054,-299.133 1455.5834,-372.3753"/>
<polygon fill="#444444" fill-opacity="0.333333" stroke="#444444" stroke-opacity="0.333333" points="1452.136,-371.6856 1452.6084,-382.2699 1458.8396,-373.7013 1452.136,-371.6856"/>
</g>
<!-- apache&#45;commons&#45;logging&#45;&gt;java&#45;1.8.0&#45;openjdk&#45;headless -->
<g id="edge24" class="edge">
<title>apache&#45;commons&#45;logging&#45;&gt;java&#45;1.8.0&#45;openjdk&#45;headless</title>
<path fill="none" stroke="#444444" stroke-opacity="0.333333" d="M1666.2362,-428.1043C1614.089,-430.6756 1553.2044,-433.6777 1497.7876,-436.4103"/>
<polygon fill="#444444" fill-opacity="0.333333" stroke="#444444" stroke-opacity="0.333333" points="1497.3225,-432.9289 1487.507,-436.9172 1497.6673,-439.9204 1497.3225,-432.9289"/>
</g>
<!-- apache&#45;commons&#45;logging&#45;&gt;javapackages&#45;tools -->
<g id="edge25" class="edge">
<title>apache&#45;commons&#45;logging&#45;&gt;javapackages&#45;tools</title>
<path fill="none" stroke="#444444" stroke-opacity="0.333333" d="M1666.3803,-413.9372C1632.9732,-411.9038 1597.1638,-409.7241 1564.3703,-407.728"/>
<polygon fill="#444444" fill-opacity="0.333333" stroke="#444444" stroke-opacity="0.333333" points="1564.4901,-404.229 1554.2959,-407.1148 1564.0647,-411.216 1564.4901,-404.229"/>
</g>
<!-- apache&#45;commons&#45;cli -->
<g id="node1" class="node">
<title>apache&#45;commons&#45;cli</title>
<text text-anchor="middle" x="1168" y="-772.81" font-family="monospace" font-size="14.00" fill="#000000">apache&#45;commons&#45;cli</text>
</g>
<!-- java&#45;1.8.0&#45;openjdk&#45;headless -->
<g id="node2" class="node">
<title>java&#45;1.8.0&#45;openjdk&#45;headless</title>
<text text-anchor="middle" x="1331.9" y="-440.89" font-family="monospace" font-size="14.00" fill="#000000">java&#45;1.8.0&#45;openjdk&#45;headless</text>
</g>
<!-- javapackages&#45;tools -->
<g id="node3" class="node">
<title>javapackages&#45;tools</title>
<text text-anchor="middle" x="1447.1" y="-396.89" font-family="monospace" font-size="14.00" fill="#000000">javapackages&#45;tools</text>
</g>
<!-- copy&#45;jdk&#45;configs -->
<g id="node4" class="node">
<title>copy&#45;jdk&#45;configs</title>
<text text-anchor="middle" x="573.64" y="-438.67" font-family="monospace" font-size="14.00" fill="#000000">copy&#45;jdk&#45;configs</text>
</g>
<!-- tzdata&#45;java -->
<g id="node5" class="node">
<title>tzdata&#45;java</title>
<text text-anchor="middle" x="1825" y="-735.17" font-family="monospace" font-size="14.00" fill="#000000">tzdata&#45;java</text>
</g>
<!-- lua -->
<g id="node6" class="node">
<title>lua</title>
<text text-anchor="middle" x="221.8" y="-479.12" font-family="monospace" font-size="14.00" fill="#000000">lua</text>
</g>
<!-- lua&#45;posix -->
<g id="node7" class="node">
<title>lua&#45;posix</title>
<text text-anchor="middle" x="59.145" y="-423.83" font-family="monospace" font-size="14.00" fill="#000000">lua&#45;posix</text>
</g>
<!-- apache&#45;commons&#45;codec -->
<g id="node8" class="node">
<title>apache&#45;commons&#45;codec</title>
<text text-anchor="middle" x="1583.6" y="-741.53" font-family="monospace" font-size="14.00" fill="#000000">apache&#45;commons&#45;codec</text>
</g>
<!-- apache&#45;commons&#45;collections -->
<g id="node9" class="node">
<title>apache&#45;commons&#45;collections</title>
<text text-anchor="middle" x="1403.2" y="-852.91" font-family="monospace" font-size="14.00" fill="#000000">apache&#45;commons&#45;collections</text>
</g>
<!-- apache&#45;commons&#45;daemon -->
<g id="node10" class="node">
<title>apache&#45;commons&#45;daemon</title>
<text text-anchor="middle" x="1059.7" y="-544.15" font-family="monospace" font-size="14.00" fill="#000000">apache&#45;commons&#45;daemon</text>
</g>
<!-- apache&#45;commons&#45;dbcp -->
<g id="node11" class="node">
<title>apache&#45;commons&#45;dbcp</title>
<text text-anchor="middle" x="1301" y="-14.3" font-family="monospace" font-size="14.00" fill="#000000">apache&#45;commons&#45;dbcp</text>
</g>
<!-- apache&#45;commons&#45;pool -->
<g id="node12" class="node">
<title>apache&#45;commons&#45;pool</title>
<text text-anchor="middle" x="1130.5" y="-124.72" font-family="monospace" font-size="14.00" fill="#000000">apache&#45;commons&#45;pool</text>
</g>
<!-- apache&#45;commons&#45;io -->
<g id="node13" class="node">
<title>apache&#45;commons&#45;io</title>
<text text-anchor="middle" x="1753" y="-177.43" font-family="monospace" font-size="14.00" fill="#000000">apache&#45;commons&#45;io</text>
</g>
<!-- apache&#45;commons&#45;lang -->
<g id="node14" class="node">
<title>apache&#45;commons&#45;lang</title>
<text text-anchor="middle" x="1559.7" y="-22.397" font-family="monospace" font-size="14.00" fill="#000000">apache&#45;commons&#45;lang</text>
</g>
<!-- apache&#45;commons&#45;logging -->
<g id="node15" class="node">
<title>apache&#45;commons&#45;logging</title>
<text text-anchor="middle" x="1794.9" y="-418.06" font-family="monospace" font-size="14.00" fill="#000000">apache&#45;commons&#45;logging</text>
</g>
</g>
</svg>
