<?xml version="1.0" encoding="UTF-8" standalone="no"?>
<!DOCTYPE svg PUBLIC "-//W3C//DTD SVG 1.1//EN"
 "http://www.w3.org/Graphics/SVG/1.1/DTD/svg11.dtd">
<!-- Generated by graphviz version 2.40.1 (20161225.0304)
 -->
<!-- Title: G Pages: 1 -->
<svg width="2038pt" height="1182pt"
 viewBox="0.00 0.00 2037.57 1181.74" xmlns="http://www.w3.org/2000/svg" xmlns:xlink="http://www.w3.org/1999/xlink">
<g id="graph0" class="graph" transform="scale(1 1) rotate(0) translate(71.6383 1062.0673)">
<title>G</title>
<polygon fill="#dae2ff" stroke="transparent" points="-71.6383,119.6732 -71.6383,-1062.0673 1965.927,-1062.0673 1965.927,119.6732 -71.6383,119.6732"/>
<polygon fill="#fed9a6" stroke="#fed9a6" points="121.7341,-687.3593 115.3404,-691.9084 108.997,-691.9084 117.3263,-815.8611 121.4649,-814.9999 127.2857,-814.1048 128.1485,-813.9954 137.1411,-813.0971 154.5169,-811.8307 153.3212,-781.8261 146.1075,-687.4661 153.0144,-687.4661 153.8921,-687.1532 158.6341,-687.1532 162.6639,-632.8511 164.1307,-632.9896 177.4625,-633.3306 180.1025,-633.5802 183.5543,-634.1454 187.2734,-578.8806 187.5422,-578.7849 192.8358,-578.7849 193.148,-578.6769 198.6915,-578.6769 199.1819,-578.8491 199.8569,-579.8005 205.4352,-583.5372 211.3572,-583.5372 217.6862,-578.908 218.6809,-578.908 219.0218,-578.7863 224.3065,-578.7863 224.4241,-578.8268 224.2559,-611.5246 232.2592,-610.9137 230.0503,-578.8935 237.1151,-578.8935 236.1965,-532.523 241.8325,-532.7835 245.6613,-532.6381 251.6282,-532.9277 261.8949,-534.32 269.6789,-536.0434 269.9769,-536.1344 272.754,-490.873 266.4975,-486.1432 266.2587,-486.1432 265.2859,-486.5024 259.0842,-486.5024 258.9757,-486.4644 254.4364,-486.4644 254.4364,-486.4644 258.9757,-486.4644 261.8553,-445.6714 250.1834,-437.8129 248.7951,-436.7043 248.6472,-434.1016 291.7893,-423.3104 293.4814,-452.709 296.4369,-452.7272 299.298,-419.9253 305.1263,-419.9253 305.6492,-419.7413 310.3519,-419.7413 311.0414,-419.4951 311.7101,-419.4951 318.2391,-424.4042 324.0087,-424.4042 330.2932,-419.804 330.3214,-419.7611 330.3214,-419.7611 330.2932,-419.804 324.0087,-424.4042 318.2391,-424.4042 311.7101,-419.4951 311.0414,-419.4951 310.3519,-419.7413 305.6492,-419.7413 305.1263,-419.9253 299.298,-419.9253 296.4369,-452.7272 293.4814,-452.709 291.7893,-423.3104 248.6472,-434.1016 248.7951,-436.7043 250.1834,-437.8129 261.8553,-445.6714 258.9757,-486.4644 259.0842,-486.5024 265.2859,-486.5024 266.2587,-486.1432 266.4975,-486.1432 272.754,-490.873 269.9769,-536.1344 269.6789,-536.0434 261.8949,-534.32 251.6282,-532.9277 245.6613,-532.6381 241.8325,-532.7835 236.1965,-532.523 237.1151,-578.8935 230.0503,-578.8935 232.2592,-610.9137 233.6773,-610.9968 235.4807,-610.8541 242.8977,-611.2697 243.2428,-611.2414 247.2884,-611.4521 253.2508,-610.9443 259.54,-609.5433 264.8094,-607.6403 272.6154,-603.7123 280.979,-598.3348 286.167,-594.3032 287.0988,-593.4515 287.005,-591.7611 288.002,-574.44 288.4456,-574.44 330.4071,-579.2767 328.0894,-615.6198 338.2376,-605.1563 340.713,-603.2541 349.6822,-598.4086 355.1727,-596.8214 355.5343,-577.59 361.2706,-579.5174 368.835,-576.7555 371.1244,-574.4424 373.8505,-574.4424 375.1295,-552.407 380.1703,-552.4288 381.1932,-535.4707 386.6859,-532.789 389.085,-551.8967 393.5574,-552.0023 394.496,-552.2653 400.19,-552.4523 407.7191,-554.6083 407.7191,-554.6083 400.19,-552.4523 394.496,-552.2653 393.5574,-552.0023 389.085,-551.8967 386.6859,-532.789 381.1932,-535.4707 380.1703,-552.4288 375.1295,-552.407 373.8505,-574.4424 371.1244,-574.4424 368.835,-576.7555 361.2706,-579.5174 355.5343,-577.59 355.1727,-596.8214 349.6822,-598.4086 340.713,-603.2541 338.2376,-605.1563 328.0894,-615.6198 330.4071,-579.2767 288.4456,-574.44 288.002,-574.44 287.005,-591.7611 287.0988,-593.4515 286.167,-594.3032 280.979,-598.3348 272.6154,-603.7123 264.8094,-607.6403 259.54,-609.5433 253.2508,-610.9443 247.2884,-611.4521 243.2428,-611.2414 242.8977,-611.2697 235.4807,-610.8541 233.6773,-610.9968 232.2592,-610.9137 224.2559,-611.5246 224.4241,-578.8268 224.3065,-578.7863 219.0218,-578.7863 218.6809,-578.908 217.6862,-578.908 211.3572,-583.5372 205.4352,-583.5372 199.8569,-579.8005 199.1819,-578.8491 198.6915,-578.6769 193.148,-578.6769 192.8358,-578.7849 187.5422,-578.7849 187.2734,-578.8806 183.5543,-634.1454 180.1025,-633.5802 177.4625,-633.3306 164.1307,-632.9896 162.6639,-632.8511 158.6341,-687.1532 159.1248,-687.3268 159.1248,-687.3268 158.6341,-687.1532 153.8921,-687.1532 153.0144,-687.4661 146.1075,-687.4661 153.3212,-781.8261 154.5169,-811.8307 161.0912,-811.708 191.7823,-812.7952 208.7513,-823.8881 287.9944,-855.4644 289.0936,-805.3932 287.2038,-732.953 215.9238,-746.149 225.2166,-713.9314 225.7993,-711.1075 230.8191,-707.1826 242.516,-699.0975 246.8701,-696.5129 257.7098,-691.1055 259.8557,-690.2478 264.6062,-688.7957 274.1838,-686.7607 279.2039,-686.1713 283.8405,-686.064 286.2415,-643.425 287.4174,-643.425 292.3237,-639.2543 327.9928,-635.0587 332.2737,-652.1048 339.7809,-671.5035 341.9174,-672.058 346.4384,-672.9111 354.1275,-673.8247 363.093,-673.6415 363.1304,-623.4462 369.6691,-619.7192 370.7304,-618.256 374.745,-618.256 376.6288,-620.4858 383.7689,-623.387 383.7689,-623.387 376.6288,-620.4858 374.745,-618.256 370.7304,-618.256 369.6691,-619.7192 363.1304,-623.4462 363.093,-673.6415 354.1275,-673.8247 346.4384,-672.9111 341.9174,-672.058 339.7809,-671.5035 332.2737,-652.1048 327.9928,-635.0587 292.3237,-639.2543 287.4174,-643.425 286.2415,-643.425 283.8405,-686.064 279.2039,-686.1713 274.1838,-686.7607 264.6062,-688.7957 259.8557,-690.2478 257.7098,-691.1055 246.8701,-696.5129 242.516,-699.0975 230.8191,-707.1826 225.7993,-711.1075 225.2166,-713.9314 215.9238,-746.149 287.2038,-732.953 289.0936,-805.3932 287.9944,-855.4644 290.0363,-856.4113 303.288,-853.7932 317.2568,-851.837 326.3079,-851.0906 330.6227,-850.859 335.9124,-850.7271 350.1315,-850.7817 349.1649,-776.5698 352.5192,-729.553 357.7061,-729.553 363.2105,-803.4463 365.0288,-729.1481 370.5626,-729.1481 370.5626,-729.1481 365.0288,-729.1481 363.2105,-803.4463 357.7061,-729.553 352.5192,-729.553 349.1649,-776.5698 350.1315,-850.7817 364.4162,-851.6587 374.3872,-852.843 381.753,-854.1412 507.9146,-811.2321 511.9433,-812.0478 512.1664,-655.476 508.3035,-655.476 505.3876,-652.3113 499.4713,-650.2182 499.4713,-650.2182 505.3876,-652.3113 508.3035,-655.476 512.1664,-655.476 511.9433,-812.0478 522.1774,-814.3585 533.0125,-817.056 552.369,-822.3203 608.001,-776.7657 606.3602,-771.4001 602.4373,-759.6694 599.9417,-752.8582 565.6207,-667.2916 559.6241,-644.5161 559.2951,-641.5119 553.1499,-618.2003 547.8956,-605.1006 524.9412,-592.5174 522.1214,-590.7398 510.934,-582.7239 509.4776,-582.6171 507.5697,-582.3775 493.3591,-579.8438 491.0415,-579.0637 483.7319,-544.4645 480.8942,-518.9293 483.3513,-516.489 484.1956,-515.774 489.6631,-511.86 496.3548,-503.8737 503.845,-496.7994 507.9844,-493.9436 527.644,-484.9595 536.3947,-478.772 541.3536,-474.1158 547.6276,-466.6884 547.6779,-466.6418 547.8763,-466.4217 550.8987,-463.8028 536.987,-425.2789 536.9225,-425.1482 521.9134,-401.6867 524.775,-386.4 527.0873,-379.7764 528.746,-378.8594 530.5629,-377.9772 542.4189,-372.9882 542.7744,-372.8625 552.9957,-369.9086 556.806,-369.0589 560.1351,-368.5335 574.2907,-367.2202 577.8585,-367.1248 581.0565,-367.2492 589.1815,-367.007 593.6323,-366.5702 593.9317,-366.5203 610.5602,-362.5787 616.1086,-360.8882 626.8094,-356.1445 627.077,-355.3944 631.5953,-338.8828 637.1749,-309.1 670.0953,-216.8564 669.556,-216.4606 585.2239,-195.2311 570.8705,-191.1449 560.3489,-187.8092 554.9794,-185.9355 543.1046,-181.0243 536.0123,-177.8636 520.4971,-169.9454 510.4648,-164.1836 472.2413,-179.7876 429.9731,-183.0934 421.1099,-183.0911 411.6857,-182.8416 409.6943,-182.9328 398.758,-187.6367 398.1387,-187.8834 398.0972,-194.2714 403.8965,-308.0251 397.422,-308.0251 397.422,-308.0251 403.8965,-308.0251 398.0972,-194.2714 398.1387,-187.8834 381.913,-192.86 357.1411,-198.1989 327.702,-203.6263 277.7304,-219.0657 249.2304,-282.6213 240.5766,-300.0228 218.407,-314.5558 210.5982,-316.3097 197.4133,-318.9063 189.342,-320.2695 177.9752,-321.5534 171.1817,-321.941 161.0426,-322.2359 154.2888,-322.2432 145.3941,-322.0039 145.9145,-406.0275 142.0234,-442.3639 142.9151,-442.6726 149.4102,-442.6726 150.2578,-442.381 154.0932,-442.381 155.4691,-441.9034 158.826,-441.9034 162.5456,-445.9944 167.1809,-447.4976 167.1809,-447.4976 162.5456,-445.9944 158.826,-441.9034 155.4691,-441.9034 154.0932,-442.381 150.2578,-442.381 149.4102,-442.6726 142.9151,-442.6726 142.0234,-442.3639 145.9145,-406.0275 145.3941,-322.0039 136.0099,-321.2262 131.816,-321.7859 129.6123,-322.0179 110.462,-323.4961 72.8106,-346.8012 10.6989,-413.5036 20.3282,-442.41 46.0456,-548.5277 45.1257,-551.6852 -35.1534,-608.6947 -55.6297,-672.5492 -66.8447,-703.2085 -67.6383,-705.1538 -30.321,-758.7295 -21.4394,-765.6866 47.6964,-802.0498 62.3028,-803.4693 71.8173,-804.9573 74.6096,-805.4767 86.2265,-807.9836 87.0483,-733.4191 87.0483,-733.4191 86.2265,-807.9836 98.4851,-811.3577 114.1627,-816.6064 117.3263,-815.8611 108.997,-691.9084 115.3404,-691.9084 121.7341,-687.3593 121.3939,-686.8723 115.9252,-683.092 115.9252,-683.092 121.3939,-686.8723 121.7341,-687.3593 121.7341,-687.3593"/>
<polygon fill="#d3ded1" stroke="#d3ded1" points="763.3575,-229.931 779.3266,-229.9235 865.2211,-224.745 869.4697,-247.917 844.2629,-346.99 842.9032,-360.2773 836.5589,-395.2697 832.4656,-411.3581 790.1322,-415.1177 781.5403,-415.3916 781.311,-415.4115 781.2084,-423.7703 784.3455,-481.9044 783.1337,-483.5363 776.7399,-483.5363 776.5588,-483.4669 770.1665,-488.2312 763.7269,-488.2312 757.3619,-483.7155 757.1085,-483.7155 756.8849,-483.6337 751.2454,-483.6337 750.6115,-483.393 743.2905,-488.2708 714.4039,-485.13 713.8055,-481.8951 694.6349,-429.2444 689.6732,-434.1451 685.3338,-497.2042 680.0684,-500.0621 680.0405,-500.0334 680.0405,-500.0334 680.0684,-500.0621 685.3338,-497.2042 689.6732,-434.1451 694.6349,-429.2444 713.8055,-481.8951 714.4039,-485.13 743.2905,-488.2708 750.6115,-483.393 751.2454,-483.6337 756.8849,-483.6337 757.1085,-483.7155 757.3619,-483.7155 763.7269,-488.2312 770.1665,-488.2312 776.5588,-483.4669 776.7399,-483.5363 783.1337,-483.5363 784.3455,-481.9044 781.2084,-423.7703 781.311,-415.4115 781.5403,-415.3916 790.1322,-415.1177 832.4656,-411.3581 891.5829,-483.48 903.8173,-495.8801 898.6107,-500.9848 882.5505,-514.8873 881.8531,-515.4088 867.3625,-525.4568 862.9957,-528.2302 853.5554,-533.6851 850.5702,-535.2355 847.3438,-536.7274 831.4297,-543.1964 790.0018,-557.5852 792.7856,-601.0427 792.2828,-611.3064 793.4696,-629.0917 793.4523,-629.4495 796.1532,-671.6119 752.5248,-694.5747 738.4402,-702.9452 735.8588,-704.644 730.6328,-708.4279 721.8373,-715.3852 717.5763,-719.3354 703.9932,-730.6973 709.6326,-620.506 709.5568,-620.4776 707.2944,-567.5576 716.2467,-557.67 695.2858,-557.67 695.2858,-557.67 716.2467,-557.67 707.2944,-567.5576 709.5568,-620.4776 709.6326,-620.506 703.9932,-730.6973 702.0258,-732.4576 687.5635,-746.2742 682.3079,-754.9729 629.7909,-769.1829 623.7251,-770.9977 613.4227,-774.6744 608.001,-776.7657 606.3602,-771.4001 602.4373,-759.6694 599.9417,-752.8582 565.6207,-667.2916 559.6241,-644.5161 559.2951,-641.5119 553.1499,-618.2003 547.8956,-605.1006 524.9412,-592.5174 522.1214,-590.7398 510.934,-582.7239 526.9021,-566.1262 536.3465,-557.67 555.9489,-557.67 575.1486,-562.6252 577.7316,-592.6029 577.6277,-595.2954 591.7642,-593.9715 591.7579,-589.9627 591.7579,-589.9627 591.7642,-593.9715 577.6277,-595.2954 577.7316,-592.6029 575.1486,-562.6252 555.9489,-557.67 536.3465,-557.67 526.9021,-566.1262 510.934,-582.7239 509.4776,-582.6171 507.5697,-582.3775 493.3591,-579.8438 491.0415,-579.0637 483.7319,-544.4645 480.8942,-518.9293 483.3513,-516.489 484.1956,-515.774 489.6631,-511.86 504.8269,-511.86 528.0749,-516.9003 534.1145,-513.741 537.7527,-555.5912 538.4329,-554.7691 549.9795,-543.3262 549.9795,-543.3262 538.4329,-554.7691 537.7527,-555.5912 534.1145,-513.741 528.0749,-516.9003 504.8269,-511.86 489.6631,-511.86 496.3548,-503.8737 503.845,-496.7994 507.9844,-493.9436 527.644,-484.9595 536.3947,-478.772 541.3536,-474.1158 547.6276,-466.6884 547.6779,-466.6418 547.8763,-466.4217 550.8987,-463.8028 536.987,-425.2789 536.9225,-425.1482 521.9134,-401.6867 524.775,-386.4 527.0873,-379.7764 528.746,-378.8594 530.5629,-377.9772 542.4189,-372.9882 542.7744,-372.8625 552.9957,-369.9086 556.806,-369.0589 560.1351,-368.5335 574.2907,-367.2202 577.8585,-367.1248 581.0565,-367.2492 589.1815,-367.007 593.6323,-366.5702 593.9317,-366.5203 610.5602,-362.5787 616.1086,-360.8882 626.8094,-356.1445 627.077,-355.3944 631.5953,-338.8828 637.1749,-309.1 670.0953,-216.8564 682.8085,-218.8305 702.7016,-221.369 704.9337,-221.5911 711.3942,-221.8739 718.4738,-223.7777 726.4844,-225.4527 737.3038,-227.3923 753.8172,-229.3644 763.3575,-229.931 763.3575,-229.931"/>
<polygon fill="#fbb4ae" stroke="#fbb4ae" points="1324.9805,-500.2586 1342.0841,-492.8571 1432.6602,-449.0855 1451.8141,-455.2628 1472.0538,-504.6604 1455.2063,-530.521 1448.2745,-540.0783 1431.8331,-560.3361 1426.8331,-566.0964 1406.9519,-591.5538 1371.3141,-644.1139 1368.3542,-647.8636 1374.1083,-679.5571 1375.4818,-692.74 1399.0543,-785.9018 1311.0955,-818.3303 1288.9257,-827.9302 1288.844,-827.9369 1288.2522,-828.0006 1287.9244,-764.9779 1287.9244,-764.9779 1288.2522,-828.0006 1286.5035,-828.2798 1281.7621,-823.5057 1277.6295,-693.0137 1274.0426,-693.0137 1272.1699,-694.9641 1272.1699,-694.9641 1274.0426,-693.0137 1277.6295,-693.0137 1281.7621,-823.5057 1263.1519,-805.7369 1257.5839,-801.3317 1245.2808,-792.2312 1235.1531,-785.2861 1232.6228,-783.6912 1223.3926,-778.3688 1223.0804,-778.2058 1160.2992,-748.7311 1147.5033,-742.0488 1147.2296,-741.8776 1141.8524,-711.97 1140.8287,-703.2924 1140.4502,-701.1763 1156.4132,-683.4387 1201.0398,-625.6625 1197.8741,-616.3 1194.8496,-598.6093 1179.5256,-587.7885 1175.9705,-585.643 1174.7014,-585.0021 1161.483,-579.5626 1155.2847,-577.6427 1149.4969,-576.4332 1147.9111,-576.2596 1144.3032,-540.8657 1151.1725,-538.3788 1153.7599,-535.6555 1151.4335,-533.3253 1151.4335,-533.3253 1153.7599,-535.6555 1151.1725,-538.3788 1144.3032,-540.8657 1147.9111,-576.2596 1136.3887,-576.1337 1135.8018,-576.1854 1135.7644,-576.185 1132.5157,-575.8141 1128.6775,-575.7586 1123.7789,-576.1802 1119.9115,-576.1173 1118.0951,-575.9019 1116.4246,-575.8718 1109.2742,-576.4631 1107.726,-576.4327 1104.8955,-576.0879 1097.7092,-575.9343 1097.381,-575.8944 1083.5758,-572.791 1080.2861,-571.7286 1076.9395,-570.3141 1071.2714,-567.3315 1059.4137,-559.8395 1054.9946,-556.6164 1053.1228,-555.0641 1043.7118,-546.2466 1036.4319,-538.6782 1032.5237,-538.7895 1031.851,-538.8392 1025.3339,-539.019 1020.8353,-539.3465 979.7722,-544.194 928.5404,-509.1459 911.4919,-496.6226 910.6302,-495.9069 906.1977,-495.8459 903.8173,-495.8801 891.5829,-483.48 832.4656,-411.3581 836.5589,-395.2697 842.9032,-360.2773 844.2629,-346.99 869.4697,-247.917 865.2211,-224.745 881.9466,-205.0659 885.1843,-204.4688 979.8605,-194.9005 987.6389,-193.8879 989.7567,-194.1556 1004.5046,-195.5932 1008.4621,-195.8638 1014.8735,-195.7457 1036.8519,-194.7027 1037.1515,-194.6712 1044.9128,-193.6304 1054.2943,-192.1005 1059.1842,-191.1621 1070.2233,-188.4019 1070.5594,-188.5396 1088.0919,-194.635 1092.6132,-196.0628 1101.0115,-198.4492 1101.0142,-199.5969 1100.5975,-214.6781 1100.5975,-214.6781 1101.0142,-199.5969 1101.0115,-198.4492 1206.0912,-218.4442 1206.8468,-218.2733 1213.9613,-216.4732 1226.9124,-212.4963 1233.9762,-225.2327 1274.9526,-286.86 1304.1937,-346.7301 1313.6935,-363.1251 1313.9578,-363.5226 1275.5588,-386.6138 1267.8827,-390.4776 1256.5276,-394.0089 1252.5485,-394.856 1243.5142,-395.9045 1237.7725,-396.0095 1237.0852,-395.9553 1232.4528,-396.0521 1231.9786,-396.016 1228.9565,-396.0875 1221.9666,-395.5672 1217.1783,-395.6936 1214.3051,-396.0566 1213.5179,-396.0791 1211.1838,-395.9221 1209.6284,-395.9706 1204.9907,-395.669 1199.1367,-395.8683 1194.4681,-396.4909 1191.8253,-359.6812 1198.4489,-357.1967 1201.1179,-354.1525 1199.5013,-352.509 1199.5013,-352.509 1201.1179,-354.1525 1198.4489,-357.1967 1191.8253,-359.6812 1194.4681,-396.4909 1185.4965,-398.5929 1177.3785,-401.3052 1171.4197,-403.8792 1168.4277,-405.4641 1163.0465,-408.8653 1153.3385,-416.0195 1146.7982,-421.4954 1148.3817,-428.4979 1150.8616,-445.9482 1151.163,-451.3124 1094.8151,-457.1589 1089.7306,-461.0904 1089.0131,-461.0904 1089.0131,-461.0904 1089.7306,-461.0904 1094.8151,-457.1589 1151.163,-451.3124 1153.9457,-470.8512 1159.48,-474.2985 1171.3801,-479.8849 1175.5598,-481.5184 1183.4395,-483.9906 1204.2065,-488.8901 1216.5498,-492.7859 1219.8855,-494.0934 1221.9811,-495.0779 1237.1262,-503.4283 1244.6041,-508.7003 1247.6603,-508.5307 1249.0562,-508.5238 1251.6093,-508.6399 1253.9822,-508.6239 1261.7578,-508.965 1263.3253,-508.9518 1265.0959,-508.8442 1266.6821,-508.664 1268.1278,-508.5734 1279.0634,-508.442 1283.2123,-508.6024 1289.816,-508.1674 1301.4519,-506.7924 1304.2865,-506.311 1304.7031,-506.2185 1318.5884,-502.3984 1324.0251,-500.6207 1324.9805,-500.2586 1324.9805,-500.2586"/>
<polygon fill="#c1c8d8" stroke="#c1c8d8" points="1147.4618,-943.0129 1161.3137,-940.0885 1186.4205,-935.5963 1221.2844,-923.0519 1284.296,-831.05 1286.5035,-828.2798 1281.7621,-823.5057 1263.1519,-805.7369 1257.5839,-801.3317 1245.2808,-792.2312 1235.1531,-785.2861 1232.6228,-783.6912 1223.3926,-778.3688 1223.0804,-778.2058 1160.2992,-748.7311 1147.5033,-742.0488 1147.2296,-741.8776 1141.8524,-711.97 1140.8287,-703.2924 1140.4502,-701.1763 1136.7091,-698.2297 1122.9288,-689.1883 1106.2401,-680.4674 1090.2944,-675.3599 1084.9874,-674.0239 1073.801,-672.7064 1065.3932,-672.2825 1065.3312,-672.2753 1057.1378,-672.4288 1055.5782,-672.5634 1051.2858,-672.6521 1047.2385,-672.4711 1045.1964,-672.2456 1036.3745,-672.4615 1035.6903,-672.4337 1035.4785,-672.4393 1022.8512,-671.9487 1020.4053,-671.6957 1017.3519,-671.1821 1006.8271,-668.7213 994.3735,-664.1748 979.7139,-656.8909 978.7798,-656.3681 979.1112,-624.9258 979.8176,-617.3911 979.8407,-615.2075 979.1276,-605.3726 979.7722,-544.194 928.5404,-509.1459 911.4919,-496.6226 910.6302,-495.9069 906.1977,-495.8459 903.8173,-495.8801 898.6107,-500.9848 882.5505,-514.8873 881.8531,-515.4088 867.3625,-525.4568 862.9957,-528.2302 853.5554,-533.6851 850.5702,-535.2355 847.3438,-536.7274 831.4297,-543.1964 790.0018,-557.5852 792.7856,-601.0427 792.2828,-611.3064 793.4696,-629.0917 793.4523,-629.4495 796.1532,-671.6119 752.5248,-694.5747 738.4402,-702.9452 735.8588,-704.644 730.6328,-708.4279 721.8373,-715.3852 717.5763,-719.3354 703.9932,-730.6973 702.0258,-732.4576 687.5635,-746.2742 682.3079,-754.9729 695.6666,-764.973 809.3567,-743.9658 813.7828,-739.9092 816.1879,-739.9092 816.3533,-739.9669 821.0391,-739.9669 822.0154,-740.3152 828.1021,-740.3152 829.1429,-739.9397 833.8145,-739.9397 834.4658,-740.1729 838.22,-740.1729 840.6693,-742.7938 840.6693,-742.7938 838.22,-740.1729 834.4658,-740.1729 833.8145,-739.9397 829.1429,-739.9397 828.1021,-740.3152 822.0154,-740.3152 821.0391,-739.9669 816.3533,-739.9669 816.1879,-739.9092 813.7828,-739.9092 809.3567,-743.9658 695.6666,-764.973 682.3079,-754.9729 629.7909,-769.1829 623.7251,-770.9977 613.4227,-774.6744 608.001,-776.7657 552.369,-822.3203 556.8144,-838.3077 573.6239,-879.0876 578.5927,-892.4468 587.9462,-920.6911 604.1387,-941.8842 677.6128,-1003.1098 709.3191,-1005.1625 711.2141,-1005.3387 712.0162,-1005.436 714.0812,-1004.8369 720.8922,-1003.0667 734.2191,-1000.0082 733.8556,-937.2764 737.1017,-888.9673 742.9982,-890.9567 748.5448,-889.1121 751.7878,-885.6491 748.7636,-882.5347 743.3429,-880.7456 743.3429,-880.7456 748.7636,-882.5347 751.7878,-885.6491 748.5448,-889.1121 742.9982,-890.9567 737.1017,-888.9673 733.8556,-937.2764 734.2191,-1000.0082 740.6791,-998.9219 752.6133,-997.2794 762.3842,-996.5338 763.9283,-926.1862 768.7922,-886.0255 768.1617,-885.8071 768.1617,-885.8071 768.7922,-886.0255 763.9283,-926.1862 762.3842,-996.5338 781.4481,-996.2468 778.2725,-923.9061 778.2725,-923.9061 781.4481,-996.2468 833.6223,-998.6566 877.4749,-974.415 887.1923,-974.0101 893.4465,-973.9083 905.1428,-974.0145 906.3823,-973.4365 904.5216,-901.8839 906.5254,-844.8334 912.2429,-846.761 918.6458,-844.4873 918.6458,-844.4873 912.2429,-846.761 906.5254,-844.8334 904.5216,-901.8839 906.3823,-973.4365 920.2771,-967.7968 929.9175,-964.7522 945.8995,-960.6502 955.1653,-958.5507 977.1984,-955.5334 1033.7489,-949.4977 1035.8075,-948.5921 1076.3895,-951.3127 1094.3068,-953.0171 1094.7285,-884.7426 1095.056,-880.4035 1095.056,-880.4035 1094.7285,-884.7426 1094.3068,-953.0171 1110.1409,-955.8536 1116.2671,-952.9915 1116.2922,-946.445 1115.0592,-897.8101 1115.1101,-896.0148 1113.4379,-833.526 1120.1179,-835.9698 1126.6023,-833.7341 1129.2896,-831.1193 1126.7028,-828.5654 1126.7028,-828.5654 1129.2896,-831.1193 1126.6023,-833.7341 1120.1179,-835.9698 1113.4379,-833.526 1115.1101,-896.0148 1115.0592,-897.8101 1116.2922,-946.445 1116.2671,-952.9915 1135.7252,-946.3866 1140.2772,-944.9886 1147.4618,-943.0129 1147.4618,-943.0129"/>
<polygon fill="#e4ced8" stroke="#e4ced8" points="1772.1901,-196.8889 1767.5422,-180.6927 1747.9702,-99.7786 1657.413,-81.0932 1635.546,-75.0284 1638.6942,-144.9347 1636.7728,-186.293 1630.0702,-186.293 1624.4618,-190.4451 1630.259,-195.0235 1630.259,-195.0235 1624.4618,-190.4451 1630.0702,-186.293 1636.7728,-186.293 1638.6942,-144.9347 1635.546,-75.0284 1633.954,-74.4764 1624.2657,-70.7722 1617.9137,-68.1195 1606.0251,-62.7343 1590.5797,-55.2032 1587.8252,-37.8209 1584.7363,-12.2042 1576.6233,.4032 1523.4713,90.9405 1460.1274,107.0984 1458.1304,107.6678 1456.3163,-18.2161 1456.4376,-18.2594 1456.5033,-78.8703 1447.1184,-78.0201 1442.3458,-78.1988 1437.3501,-78.0803 1435.1337,-77.8915 1426.1448,-77.7048 1424.0442,-77.7956 1423.369,-77.868 1418.741,-77.8 1418.6107,-77.8064 1411.3555,-77.7207 1409.7242,-134.6559 1404.2736,-132.8757 1397.3312,-135.3788 1394.7078,-138.1607 1397.7285,-141.2105 1403.1378,-142.9861 1403.1378,-142.9861 1397.7285,-141.2105 1394.7078,-138.1607 1391.8654,-138.1607 1388.6765,-187.8388 1388.9639,-212.3963 1389.3812,-212.4251 1388.4009,-282.3157 1382.2576,-282.3157 1383.4492,-212.54 1373.6481,-212.3347 1372.3792,-212.1888 1371.4072,-212.1235 1370.5867,-212.1073 1362.0786,-212.3426 1362.0786,-212.3426 1370.5867,-212.1073 1371.4072,-212.1235 1372.3792,-212.1888 1373.6481,-212.3347 1383.4492,-212.54 1382.2576,-282.3157 1388.4009,-282.3157 1389.3812,-212.4251 1388.9639,-212.3963 1388.6765,-187.8388 1391.8654,-138.1607 1394.7078,-138.1607 1397.3312,-135.3788 1404.2736,-132.8757 1409.7242,-134.6559 1411.3555,-77.7207 1418.6107,-77.8064 1418.741,-77.8 1423.369,-77.868 1424.0442,-77.7956 1426.1448,-77.7048 1435.1337,-77.8915 1437.3501,-78.0803 1442.3458,-78.1988 1447.1184,-78.0201 1456.5033,-78.8703 1456.4376,-18.2594 1456.3163,-18.2161 1451.0197,-18.2161 1450.0454,-17.8545 1450.0454,-17.8545 1451.0197,-18.2161 1456.3163,-18.2161 1458.1304,107.6678 1448.8138,110.6064 1443.4908,112.6091 1432.0338,115.0465 1429.9203,115.6732 1412.0582,110.2399 1409.7312,109.6009 1396.8307,106.8091 1384.5619,104.5131 1384.3237,104.4756 1381.0614,104.0565 1350.4192,101.0118 1288.5094,56.9261 1279.4301,46.5664 1262.5315,-18 1256.4055,-35.5581 1255.1056,-48.1865 1261.0924,-65.4443 1254.9518,-122.999 1250.434,-153.3177 1242.5513,-194.7761 1226.9124,-212.4963 1233.9762,-225.2327 1274.9526,-286.86 1304.1937,-346.7301 1313.6935,-363.1251 1313.9578,-363.5226 1275.5588,-386.6138 1267.8827,-390.4776 1256.5276,-394.0089 1252.5485,-394.856 1243.5142,-395.9045 1237.7725,-396.0095 1237.0852,-395.9553 1232.4528,-396.0521 1231.9786,-396.016 1228.9565,-396.0875 1221.9666,-395.5672 1217.1783,-395.6936 1214.3051,-396.0566 1213.5179,-396.0791 1211.1838,-395.9221 1209.6284,-395.9706 1204.9907,-395.669 1199.1367,-395.8683 1194.4681,-396.4909 1185.4965,-398.5929 1177.3785,-401.3052 1171.4197,-403.8792 1168.4277,-405.4641 1163.0465,-408.8653 1153.3385,-416.0195 1146.7982,-421.4954 1148.3817,-428.4979 1150.8616,-445.9482 1151.163,-451.3124 1153.9457,-470.8512 1159.48,-474.2985 1171.3801,-479.8849 1175.5598,-481.5184 1183.4395,-483.9906 1204.2065,-488.8901 1216.5498,-492.7859 1219.8855,-494.0934 1221.9811,-495.0779 1237.1262,-503.4283 1244.6041,-508.7003 1247.6603,-508.5307 1249.0562,-508.5238 1251.6093,-508.6399 1253.9822,-508.6239 1261.7578,-508.965 1263.3253,-508.9518 1265.0959,-508.8442 1266.6821,-508.664 1268.1278,-508.5734 1279.0634,-508.442 1283.2123,-508.6024 1289.816,-508.1674 1301.4519,-506.7924 1304.2865,-506.311 1304.7031,-506.2185 1318.5884,-502.3984 1324.0251,-500.6207 1324.9805,-500.2586 1342.0841,-492.8571 1432.6602,-449.0855 1451.8141,-455.2628 1524.3556,-373.1307 1532.3942,-369.9763 1547.4207,-364.5403 1555.4347,-362.1397 1627.0629,-342.8971 1654.7628,-321.7885 1658.4006,-320.9959 1697.6597,-314.7064 1738.2917,-273.8292 1756.3263,-241.7089 1770.59,-200.9254 1772.1901,-196.8889 1772.1901,-196.8889"/>
<polygon fill="#c2dfd1" stroke="#c2dfd1" points="1828.2042,-1046.1152 1840.5315,-1047.9357 1888.7738,-1058.0673 1941.0746,-982.6503 1950.2729,-960.686 1961.927,-935.963 1961.167,-912.9476 1960.1583,-909.3242 1950.8066,-869.6479 1850.5714,-812.96 1840.1229,-792.4139 1853.1451,-711 1860.0676,-683.5893 1832.9122,-634.0023 1797.8168,-606.6998 1748.0782,-595.3405 1745.1425,-594.577 1742.2698,-709.3482 1740.9155,-710.9644 1735.6973,-710.9644 1735.4468,-711.0511 1730.5828,-711.0511 1730.1372,-710.8953 1723.8799,-710.8953 1723.5623,-711.0109 1716.0584,-711.0109 1715.991,-710.987 1710.7886,-710.987 1710.7794,-710.9746 1704.6764,-706.7411 1704.6764,-706.7411 1710.7794,-710.9746 1710.7886,-710.987 1715.991,-710.987 1716.0584,-711.0109 1723.5623,-711.0109 1723.8799,-710.8953 1730.1372,-710.8953 1730.5828,-711.0511 1735.4468,-711.0511 1735.6973,-710.9644 1740.9155,-710.9644 1742.2698,-709.3482 1745.1425,-594.577 1740.5507,-593.2362 1724.2336,-587.9468 1722.5544,-587.35 1718.4894,-585.645 1707.8894,-585.5865 1703.9717,-585.4573 1682.2155,-583.5422 1681.196,-583.3969 1665.6237,-580.3134 1660.5419,-579.1675 1652.6388,-572.6235 1555.9768,-547.8115 1551.7224,-546.5867 1551.6633,-546.5679 1531.4406,-538.8068 1519.7491,-533.5831 1517.9017,-532.7002 1506.9213,-527.1041 1487.9235,-515.6037 1484.4827,-513.4143 1472.9215,-505.3231 1472.0538,-504.6604 1455.2063,-530.521 1448.2745,-540.0783 1431.8331,-560.3361 1426.8331,-566.0964 1406.9519,-591.5538 1371.3141,-644.1139 1368.3542,-647.8636 1374.1083,-679.5571 1375.4818,-692.74 1399.0543,-785.9018 1434.9039,-792.909 1518.0323,-889.6627 1519.3887,-900.1265 1565.0115,-945.6204 1627.344,-976.0451 1663.4951,-1031.8657 1725.8986,-1044.8479 1738.2452,-1047.8213 1745.3427,-1049.7603 1752.3463,-1051.8998 1752.6227,-1051.8199 1762.308,-1049.325 1764.2238,-1048.9515 1779.8374,-1046.3903 1785.2756,-1045.8379 1796.2494,-1045.0645 1799.0056,-1044.9562 1821.2657,-1045.4707 1826.5105,-1045.9181 1828.2042,-1046.1152 1831.662,-935.8701 1831.301,-935.7451 1832.1676,-837.1784 1822.4962,-848.3638 1807.6884,-862.97 1760.1781,-862.97 1740.9697,-857.9542 1739.5665,-787.1354 1731.5723,-787.4211 1731.3114,-787.4179 1727.5511,-862.8123 1722.0071,-862.8123 1720.9039,-863.2274 1714.9449,-863.2274 1714.301,-862.9927 1708.3237,-862.9927 1708.0209,-862.8868 1705.1456,-862.8868 1702.2723,-865.8596 1695.8644,-868.0976 1689.7142,-865.8859 1687.0975,-862.8879 1687.0975,-862.8879 1689.7142,-865.8859 1695.8644,-868.0976 1702.2723,-865.8596 1705.1456,-862.8868 1703.2006,-860.9095 1698.7352,-831.0593 1698.3577,-787.1141 1691.0868,-786.9965 1685.011,-777.7793 1672.5525,-764.3608 1669.1482,-761.1902 1625.6311,-759.4112 1619.7452,-754.9404 1619.0508,-754.9404 1619.0438,-754.9379 1613.7186,-754.9379 1612.6067,-755.342 1606.7246,-755.342 1605.8735,-818.483 1602.1882,-820.2778 1600.0393,-755.5173 1594.0223,-759.6391 1594.0223,-759.6391 1600.0393,-755.5173 1602.1882,-820.2778 1605.8735,-818.483 1606.7246,-755.342 1612.6067,-755.342 1613.7186,-754.9379 1619.0438,-754.9379 1619.0508,-754.9404 1619.7452,-754.9404 1625.6311,-759.4112 1669.1482,-761.1902 1672.5525,-764.3608 1685.011,-777.7793 1691.0868,-786.9965 1698.3577,-787.1141 1698.7352,-831.0593 1703.2006,-860.9095 1705.1456,-862.8868 1708.0209,-862.8868 1708.3237,-862.9927 1714.301,-862.9927 1714.9449,-863.2274 1720.9039,-863.2274 1722.0071,-862.8123 1727.5511,-862.8123 1731.3114,-787.4179 1731.5723,-787.4211 1739.5665,-787.1354 1740.9697,-857.9542 1760.1781,-862.97 1807.6884,-862.97 1822.4962,-848.3638 1832.1676,-837.1784 1831.301,-935.7451 1831.662,-935.8701 1828.2042,-1046.1152 1828.2042,-1046.1152"/>
<polygon fill="#e4ced8" stroke="#e4ced8" points="979.8176,-617.3911 979.8407,-615.2075 979.1276,-605.3726 979.7722,-544.194 1020.8353,-539.3465 1025.3339,-539.019 1031.851,-538.8392 1032.5237,-538.7895 1036.4319,-538.6782 1043.7118,-546.2466 1053.1228,-555.0641 1054.9946,-556.6164 1059.4137,-559.8395 1071.2714,-567.3315 1076.9395,-570.3141 1080.2861,-571.7286 1083.5758,-572.791 1097.381,-575.8944 1097.7092,-575.9343 1104.8955,-576.0879 1107.726,-576.4327 1109.2742,-576.4631 1116.4246,-575.8718 1118.0951,-575.9019 1119.9115,-576.1173 1123.7789,-576.1802 1128.6775,-575.7586 1132.5157,-575.8141 1135.7644,-576.185 1135.8018,-576.1854 1136.3887,-576.1337 1147.9111,-576.2596 1149.4969,-576.4332 1155.2847,-577.6427 1161.483,-579.5626 1174.7014,-585.0021 1175.9705,-585.643 1179.5256,-587.7885 1194.8496,-598.6093 1197.8741,-616.3 1201.0398,-625.6625 1156.4132,-683.4387 1140.4502,-701.1763 1136.7091,-698.2297 1122.9288,-689.1883 1106.2401,-680.4674 1090.2944,-675.3599 1084.9874,-674.0239 1073.801,-672.7064 1065.3932,-672.2825 1065.3312,-672.2753 1057.1378,-672.4288 1055.5782,-672.5634 1051.2858,-672.6521 1047.2385,-672.4711 1045.1964,-672.2456 1036.3745,-672.4615 1035.6903,-672.4337 1035.4785,-672.4393 1022.8512,-671.9487 1020.4053,-671.6957 1017.3519,-671.1821 1006.8271,-668.7213 994.3735,-664.1748 979.7139,-656.8909 978.7798,-656.3681 979.1112,-624.9258 979.8176,-617.3911 979.8176,-617.3911"/>
<polyline fill="none" stroke="#000000" points="483.3513,-516.489 484.1956,-515.774 489.6631,-511.86 496.3548,-503.8737 503.845,-496.7994 507.9844,-493.9436 527.644,-484.9595 536.3947,-478.772 541.3536,-474.1158 547.6276,-466.6884 547.6779,-466.6418 547.8763,-466.4217 550.8987,-463.8028 536.987,-425.2789 536.9225,-425.1482 521.9134,-401.6867 524.775,-386.4 527.0873,-379.7764 528.746,-378.8594 530.5629,-377.9772 542.4189,-372.9882 542.7744,-372.8625 552.9957,-369.9086 556.806,-369.0589 560.1351,-368.5335 574.2907,-367.2202 577.8585,-367.1248 581.0565,-367.2492 589.1815,-367.007 593.6323,-366.5702 593.9317,-366.5203 610.5602,-362.5787 616.1086,-360.8882 626.8094,-356.1445 627.077,-355.3944 631.5953,-338.8828 637.1749,-309.1 670.0953,-216.8564 669.556,-216.4606 585.2239,-195.2311 570.8705,-191.1449 560.3489,-187.8092 554.9794,-185.9355 543.1046,-181.0243 536.0123,-177.8636 520.4971,-169.9454 510.4648,-164.1836 472.2413,-179.7876 429.9731,-183.0934 421.1099,-183.0911 411.6857,-182.8416 409.6943,-182.9328 398.758,-187.6367 398.1387,-187.8834 381.913,-192.86 357.1411,-198.1989 327.702,-203.6263 277.7304,-219.0657 249.2304,-282.6213 240.5766,-300.0228 218.407,-314.5558 210.5982,-316.3097 197.4133,-318.9063 189.342,-320.2695 177.9752,-321.5534 171.1817,-321.941 161.0426,-322.2359 154.2888,-322.2432 145.3941,-322.0039 136.0099,-321.2262 131.816,-321.7859 129.6123,-322.0179 110.462,-323.4961 72.8106,-346.8012 10.6989,-413.5036 20.3282,-442.41 46.0456,-548.5277 45.1257,-551.6852 -35.1534,-608.6947 -55.6297,-672.5492 -66.8447,-703.2085 -67.6383,-705.1538 -30.321,-758.7295 -21.4394,-765.6866 47.6964,-802.0498 62.3028,-803.4693 71.8173,-804.9573 74.6096,-805.4767 86.2265,-807.9836 98.4851,-811.3577 114.1627,-816.6064 117.3263,-815.8611 121.4649,-814.9999 127.2857,-814.1048 128.1485,-813.9954 137.1411,-813.0971 154.5169,-811.8307 161.0912,-811.708 191.7823,-812.7952 208.7513,-823.8881 287.9944,-855.4644 290.0363,-856.4113 303.288,-853.7932 317.2568,-851.837 326.3079,-851.0906 330.6227,-850.859 335.9124,-850.7271 350.1315,-850.7817 364.4162,-851.6587 374.3872,-852.843 381.753,-854.1412 507.9146,-811.2321 511.9433,-812.0478 522.1774,-814.3585 533.0125,-817.056 552.369,-822.3203 608.001,-776.7657 606.3602,-771.4001 602.4373,-759.6694 599.9417,-752.8582 565.6207,-667.2916 559.6241,-644.5161 559.2951,-641.5119 553.1499,-618.2003 547.8956,-605.1006 524.9412,-592.5174 522.1214,-590.7398 510.934,-582.7239 509.4776,-582.6171 507.5697,-582.3775 493.3591,-579.8438 491.0415,-579.0637 483.7319,-544.4645 480.8942,-518.9293 483.3513,-516.489 "/>
<polyline fill="none" stroke="#000000" points="536.987,-425.2789 536.9225,-425.1482 521.9134,-401.6867 524.775,-386.4 527.0873,-379.7764 528.746,-378.8594 530.5629,-377.9772 542.4189,-372.9882 542.7744,-372.8625 552.9957,-369.9086 556.806,-369.0589 560.1351,-368.5335 574.2907,-367.2202 577.8585,-367.1248 581.0565,-367.2492 589.1815,-367.007 593.6323,-366.5702 593.9317,-366.5203 610.5602,-362.5787 616.1086,-360.8882 626.8094,-356.1445 627.077,-355.3944 631.5953,-338.8828 637.1749,-309.1 670.0953,-216.8564 682.8085,-218.8305 702.7016,-221.369 704.9337,-221.5911 711.3942,-221.8739 718.4738,-223.7777 726.4844,-225.4527 737.3038,-227.3923 753.8172,-229.3644 763.3575,-229.931 779.3266,-229.9235 865.2211,-224.745 869.4697,-247.917 844.2629,-346.99 842.9032,-360.2773 836.5589,-395.2697 832.4656,-411.3581 891.5829,-483.48 903.8173,-495.8801 898.6107,-500.9848 882.5505,-514.8873 881.8531,-515.4088 867.3625,-525.4568 862.9957,-528.2302 853.5554,-533.6851 850.5702,-535.2355 847.3438,-536.7274 831.4297,-543.1964 790.0018,-557.5852 792.7856,-601.0427 792.2828,-611.3064 793.4696,-629.0917 793.4523,-629.4495 796.1532,-671.6119 752.5248,-694.5747 738.4402,-702.9452 735.8588,-704.644 730.6328,-708.4279 721.8373,-715.3852 717.5763,-719.3354 703.9932,-730.6973 702.0258,-732.4576 687.5635,-746.2742 682.3079,-754.9729 629.7909,-769.1829 623.7251,-770.9977 613.4227,-774.6744 608.001,-776.7657 606.3602,-771.4001 602.4373,-759.6694 599.9417,-752.8582 565.6207,-667.2916 559.6241,-644.5161 559.2951,-641.5119 553.1499,-618.2003 547.8956,-605.1006 524.9412,-592.5174 522.1214,-590.7398 510.934,-582.7239 509.4776,-582.6171 507.5697,-582.3775 493.3591,-579.8438 491.0415,-579.0637 483.7319,-544.4645 480.8942,-518.9293 483.3513,-516.489 484.1956,-515.774 489.6631,-511.86 496.3548,-503.8737 503.845,-496.7994 507.9844,-493.9436 527.644,-484.9595 536.3947,-478.772 541.3536,-474.1158 547.6276,-466.6884 547.6779,-466.6418 547.8763,-466.4217 550.8987,-463.8028 536.987,-425.2789 "/>
<polyline fill="none" stroke="#000000" points="1036.4319,-538.6782 1043.7118,-546.2466 1053.1228,-555.0641 1054.9946,-556.6164 1059.4137,-559.8395 1071.2714,-567.3315 1076.9395,-570.3141 1080.2861,-571.7286 1083.5758,-572.791 1097.381,-575.8944 1097.7092,-575.9343 1104.8955,-576.0879 1107.726,-576.4327 1109.2742,-576.4631 1116.4246,-575.8718 1118.0951,-575.9019 1119.9115,-576.1173 1123.7789,-576.1802 1128.6775,-575.7586 1132.5157,-575.8141 1135.7644,-576.185 1135.8018,-576.1854 1136.3887,-576.1337 1147.9111,-576.2596 1149.4969,-576.4332 1155.2847,-577.6427 1161.483,-579.5626 1174.7014,-585.0021 1175.9705,-585.643 1179.5256,-587.7885 1194.8496,-598.6093 1197.8741,-616.3 1201.0398,-625.6625 1156.4132,-683.4387 1140.4502,-701.1763 1140.8287,-703.2924 1141.8524,-711.97 1147.2296,-741.8776 1147.5033,-742.0488 1160.2992,-748.7311 1223.0804,-778.2058 1223.3926,-778.3688 1232.6228,-783.6912 1235.1531,-785.2861 1245.2808,-792.2312 1257.5839,-801.3317 1263.1519,-805.7369 1281.7621,-823.5057 1286.5035,-828.2798 1288.2522,-828.0006 1288.844,-827.9369 1288.9257,-827.9302 1311.0955,-818.3303 1399.0543,-785.9018 1375.4818,-692.74 1374.1083,-679.5571 1368.3542,-647.8636 1371.3141,-644.1139 1406.9519,-591.5538 1426.8331,-566.0964 1431.8331,-560.3361 1448.2745,-540.0783 1455.2063,-530.521 1472.0538,-504.6604 1451.8141,-455.2628 1432.6602,-449.0855 1342.0841,-492.8571 1324.9805,-500.2586 1324.0251,-500.6207 1318.5884,-502.3984 1304.7031,-506.2185 1304.2865,-506.311 1301.4519,-506.7924 1289.816,-508.1674 1283.2123,-508.6024 1279.0634,-508.442 1268.1278,-508.5734 1266.6821,-508.664 1265.0959,-508.8442 1263.3253,-508.9518 1261.7578,-508.965 1253.9822,-508.6239 1251.6093,-508.6399 1249.0562,-508.5238 1247.6603,-508.5307 1244.6041,-508.7003 1237.1262,-503.4283 1221.9811,-495.0779 1219.8855,-494.0934 1216.5498,-492.7859 1204.2065,-488.8901 1183.4395,-483.9906 1175.5598,-481.5184 1171.3801,-479.8849 1159.48,-474.2985 1153.9457,-470.8512 1151.163,-451.3124 1150.8616,-445.9482 1148.3817,-428.4979 1146.7982,-421.4954 1153.3385,-416.0195 1163.0465,-408.8653 1168.4277,-405.4641 1171.4197,-403.8792 1177.3785,-401.3052 1185.4965,-398.5929 1194.4681,-396.4909 1199.1367,-395.8683 1204.9907,-395.669 1209.6284,-395.9706 1211.1838,-395.9221 1213.5179,-396.0791 1214.3051,-396.0566 1217.1783,-395.6936 1221.9666,-395.5672 1228.9565,-396.0875 1231.9786,-396.016 1232.4528,-396.0521 1237.0852,-395.9553 1237.7725,-396.0095 1243.5142,-395.9045 1252.5485,-394.856 1256.5276,-394.0089 1267.8827,-390.4776 1275.5588,-386.6138 1313.9578,-363.5226 1313.6935,-363.1251 1304.1937,-346.7301 1274.9526,-286.86 1233.9762,-225.2327 1226.9124,-212.4963 1213.9613,-216.4732 1206.8468,-218.2733 1206.0912,-218.4442 1101.0115,-198.4492 1092.6132,-196.0628 1088.0919,-194.635 1070.5594,-188.5396 1070.2233,-188.4019 1059.1842,-191.1621 1054.2943,-192.1005 1044.9128,-193.6304 1037.1515,-194.6712 1036.8519,-194.7027 1014.8735,-195.7457 1008.4621,-195.8638 1004.5046,-195.5932 989.7567,-194.1556 987.6389,-193.8879 979.8605,-194.9005 885.1843,-204.4688 881.9466,-205.0659 865.2211,-224.745 869.4697,-247.917 844.2629,-346.99 842.9032,-360.2773 836.5589,-395.2697 832.4656,-411.3581 891.5829,-483.48 903.8173,-495.8801 906.1977,-495.8459 910.6302,-495.9069 911.4919,-496.6226 928.5404,-509.1459 979.7722,-544.194 1020.8353,-539.3465 1025.3339,-539.019 1031.851,-538.8392 1032.5237,-538.7895 1036.4319,-538.6782 "/>
<polyline fill="none" stroke="#000000" points="882.5505,-514.8873 898.6107,-500.9848 903.8173,-495.8801 906.1977,-495.8459 910.6302,-495.9069 911.4919,-496.6226 928.5404,-509.1459 979.7722,-544.194 979.1276,-605.3726 979.8407,-615.2075 979.8176,-617.3911 979.1112,-624.9258 978.7798,-656.3681 979.7139,-656.8909 994.3735,-664.1748 1006.8271,-668.7213 1017.3519,-671.1821 1020.4053,-671.6957 1022.8512,-671.9487 1035.4785,-672.4393 1035.6903,-672.4337 1036.3745,-672.4615 1045.1964,-672.2456 1047.2385,-672.4711 1051.2858,-672.6521 1055.5782,-672.5634 1057.1378,-672.4288 1065.3312,-672.2753 1065.3932,-672.2825 1073.801,-672.7064 1084.9874,-674.0239 1090.2944,-675.3599 1106.2401,-680.4674 1122.9288,-689.1883 1136.7091,-698.2297 1140.4502,-701.1763 1140.8287,-703.2924 1141.8524,-711.97 1147.2296,-741.8776 1147.5033,-742.0488 1160.2992,-748.7311 1223.0804,-778.2058 1223.3926,-778.3688 1232.6228,-783.6912 1235.1531,-785.2861 1245.2808,-792.2312 1257.5839,-801.3317 1263.1519,-805.7369 1281.7621,-823.5057 1286.5035,-828.2798 1284.296,-831.05 1221.2844,-923.0519 1186.4205,-935.5963 1161.3137,-940.0885 1147.4618,-943.0129 1140.2772,-944.9886 1135.7252,-946.3866 1116.2671,-952.9915 1110.1409,-955.8536 1094.3068,-953.0171 1076.3895,-951.3127 1035.8075,-948.5921 1033.7489,-949.4977 977.1984,-955.5334 955.1653,-958.5507 945.8995,-960.6502 929.9175,-964.7522 920.2771,-967.7968 906.3823,-973.4365 905.1428,-974.0145 893.4465,-973.9083 887.1923,-974.0101 877.4749,-974.415 833.6223,-998.6566 781.4481,-996.2468 762.3842,-996.5338 752.6133,-997.2794 740.6791,-998.9219 734.2191,-1000.0082 720.8922,-1003.0667 714.0812,-1004.8369 712.0162,-1005.436 711.2141,-1005.3387 709.3191,-1005.1625 677.6128,-1003.1098 604.1387,-941.8842 587.9462,-920.6911 578.5927,-892.4468 573.6239,-879.0876 556.8144,-838.3077 552.369,-822.3203 608.001,-776.7657 613.4227,-774.6744 623.7251,-770.9977 629.7909,-769.1829 682.3079,-754.9729 687.5635,-746.2742 702.0258,-732.4576 703.9932,-730.6973 717.5763,-719.3354 721.8373,-715.3852 730.6328,-708.4279 735.8588,-704.644 738.4402,-702.9452 752.5248,-694.5747 796.1532,-671.6119 793.4523,-629.4495 793.4696,-629.0917 792.2828,-611.3064 792.7856,-601.0427 790.0018,-557.5852 831.4297,-543.1964 847.3438,-536.7274 850.5702,-535.2355 853.5554,-533.6851 862.9957,-528.2302 867.3625,-525.4568 881.8531,-515.4088 882.5505,-514.8873 "/>
<polyline fill="none" stroke="#000000" points="1244.6041,-508.7003 1247.6603,-508.5307 1249.0562,-508.5238 1251.6093,-508.6399 1253.9822,-508.6239 1261.7578,-508.965 1263.3253,-508.9518 1265.0959,-508.8442 1266.6821,-508.664 1268.1278,-508.5734 1279.0634,-508.442 1283.2123,-508.6024 1289.816,-508.1674 1301.4519,-506.7924 1304.2865,-506.311 1304.7031,-506.2185 1318.5884,-502.3984 1324.0251,-500.6207 1324.9805,-500.2586 1342.0841,-492.8571 1432.6602,-449.0855 1451.8141,-455.2628 1524.3556,-373.1307 1532.3942,-369.9763 1547.4207,-364.5403 1555.4347,-362.1397 1627.0629,-342.8971 1654.7628,-321.7885 1658.4006,-320.9959 1697.6597,-314.7064 1738.2917,-273.8292 1756.3263,-241.7089 1770.59,-200.9254 1772.1901,-196.8889 1767.5422,-180.6927 1747.9702,-99.7786 1657.413,-81.0932 1635.546,-75.0284 1633.954,-74.4764 1624.2657,-70.7722 1617.9137,-68.1195 1606.0251,-62.7343 1590.5797,-55.2032 1587.8252,-37.8209 1584.7363,-12.2042 1576.6233,.4032 1523.4713,90.9405 1460.1274,107.0984 1458.1304,107.6678 1448.8138,110.6064 1443.4908,112.6091 1432.0338,115.0465 1429.9203,115.6732 1412.0582,110.2399 1409.7312,109.6009 1396.8307,106.8091 1384.5619,104.5131 1384.3237,104.4756 1381.0614,104.0565 1350.4192,101.0118 1288.5094,56.9261 1279.4301,46.5664 1262.5315,-18 1256.4055,-35.5581 1255.1056,-48.1865 1261.0924,-65.4443 1254.9518,-122.999 1250.434,-153.3177 1242.5513,-194.7761 1226.9124,-212.4963 1233.9762,-225.2327 1274.9526,-286.86 1304.1937,-346.7301 1313.6935,-363.1251 1313.9578,-363.5226 1275.5588,-386.6138 1267.8827,-390.4776 1256.5276,-394.0089 1252.5485,-394.856 1243.5142,-395.9045 1237.7725,-396.0095 1237.0852,-395.9553 1232.4528,-396.0521 1231.9786,-396.016 1228.9565,-396.0875 1221.9666,-395.5672 1217.1783,-395.6936 1214.3051,-396.0566 1213.5179,-396.0791 1211.1838,-395.9221 1209.6284,-395.9706 1204.9907,-395.669 1199.1367,-395.8683 1194.4681,-396.4909 1185.4965,-398.5929 1177.3785,-401.3052 1171.4197,-403.8792 1168.4277,-405.4641 1163.0465,-408.8653 1153.3385,-416.0195 1146.7982,-421.4954 1148.3817,-428.4979 1150.8616,-445.9482 1151.163,-451.3124 1153.9457,-470.8512 1159.48,-474.2985 1171.3801,-479.8849 1175.5598,-481.5184 1183.4395,-483.9906 1204.2065,-488.8901 1216.5498,-492.7859 1219.8855,-494.0934 1221.9811,-495.0779 1237.1262,-503.4283 1244.6041,-508.7003 "/>
<polyline fill="none" stroke="#000000" points="1506.9213,-527.1041 1517.9017,-532.7002 1519.7491,-533.5831 1531.4406,-538.8068 1551.6633,-546.5679 1551.7224,-546.5867 1555.9768,-547.8115 1652.6388,-572.6235 1660.5419,-579.1675 1665.6237,-580.3134 1681.196,-583.3969 1682.2155,-583.5422 1703.9717,-585.4573 1707.8894,-585.5865 1718.4894,-585.645 1722.5544,-587.35 1724.2336,-587.9468 1740.5507,-593.2362 1745.1425,-594.577 1748.0782,-595.3405 1797.8168,-606.6998 1832.9122,-634.0023 1860.0676,-683.5893 1853.1451,-711 1840.1229,-792.4139 1850.5714,-812.96 1950.8066,-869.6479 1960.1583,-909.3242 1961.167,-912.9476 1961.927,-935.963 1950.2729,-960.686 1941.0746,-982.6503 1888.7738,-1058.0673 1840.5315,-1047.9357 1828.2042,-1046.1152 1826.5105,-1045.9181 1821.2657,-1045.4707 1799.0056,-1044.9562 1796.2494,-1045.0645 1785.2756,-1045.8379 1779.8374,-1046.3903 1764.2238,-1048.9515 1762.308,-1049.325 1752.6227,-1051.8199 1752.3463,-1051.8998 1745.3427,-1049.7603 1738.2452,-1047.8213 1725.8986,-1044.8479 1663.4951,-1031.8657 1627.344,-976.0451 1565.0115,-945.6204 1519.3887,-900.1265 1518.0323,-889.6627 1434.9039,-792.909 1399.0543,-785.9018 1375.4818,-692.74 1374.1083,-679.5571 1368.3542,-647.8636 1371.3141,-644.1139 1406.9519,-591.5538 1426.8331,-566.0964 1431.8331,-560.3361 1448.2745,-540.0783 1455.2063,-530.521 1472.0538,-504.6604 1472.9215,-505.3231 1484.4827,-513.4143 1487.9235,-515.6037 1506.9213,-527.1041 "/>
<polyline fill="none" stroke="#000000" points="1073.801,-672.7064 1065.3932,-672.2825 1065.3312,-672.2753 1057.1378,-672.4288 1055.5782,-672.5634 1051.2858,-672.6521 1047.2385,-672.4711 1045.1964,-672.2456 1036.3745,-672.4615 1035.6903,-672.4337 1035.4785,-672.4393 1022.8512,-671.9487 1020.4053,-671.6957 1017.3519,-671.1821 1006.8271,-668.7213 994.3735,-664.1748 979.7139,-656.8909 978.7798,-656.3681 979.1112,-624.9258 979.8176,-617.3911 979.8407,-615.2075 979.1276,-605.3726 979.7722,-544.194 1020.8353,-539.3465 1025.3339,-539.019 1031.851,-538.8392 1032.5237,-538.7895 1036.4319,-538.6782 1043.7118,-546.2466 1053.1228,-555.0641 1054.9946,-556.6164 1059.4137,-559.8395 1071.2714,-567.3315 1076.9395,-570.3141 1080.2861,-571.7286 1083.5758,-572.791 1097.381,-575.8944 1097.7092,-575.9343 1104.8955,-576.0879 1107.726,-576.4327 1109.2742,-576.4631 1116.4246,-575.8718 1118.0951,-575.9019 1119.9115,-576.1173 1123.7789,-576.1802 1128.6775,-575.7586 1132.5157,-575.8141 1135.7644,-576.185 1135.8018,-576.1854 1136.3887,-576.1337 1147.9111,-576.2596 1149.4969,-576.4332 1155.2847,-577.6427 1161.483,-579.5626 1174.7014,-585.0021 1175.9705,-585.643 1179.5256,-587.7885 1194.8496,-598.6093 1197.8741,-616.3 1201.0398,-625.6625 1156.4132,-683.4387 1140.4502,-701.1763 1136.7091,-698.2297 1122.9288,-689.1883 1106.2401,-680.4674 1090.2944,-675.3599 1084.9874,-674.0239 1073.801,-672.7064 "/>
<!-- ceph&#45;base&#45;&gt;ceph&#45;common -->
<g id="edge1" class="edge">
<title>ceph&#45;base&#45;&gt;ceph&#45;common</title>
<path fill="none" stroke="#444444" stroke-opacity="0.333333" d="M462.3291,-484.6C442.3803,-502.4171 411.7303,-529.7918 389.5054,-549.6417"/>
<polygon fill="#444444" fill-opacity="0.333333" stroke="#444444" stroke-opacity="0.333333" points="387.1537,-547.0493 382.0268,-556.321 391.8167,-552.2701 387.1537,-547.0493"/>
</g>
<!-- ceph&#45;base&#45;&gt;ceph&#45;selinux -->
<g id="edge2" class="edge">
<title>ceph&#45;base&#45;&gt;ceph&#45;selinux</title>
<path fill="none" stroke="#444444" stroke-opacity="0.333333" d="M472.8191,-448.2386C458.5136,-421.3332 431.7058,-370.9141 415.0621,-339.6113"/>
<polygon fill="#444444" fill-opacity="0.333333" stroke="#444444" stroke-opacity="0.333333" points="418.0332,-337.744 410.2482,-330.5576 411.8526,-341.0303 418.0332,-337.744"/>
</g>
<!-- ceph&#45;base&#45;&gt;cryptsetup -->
<g id="edge3" class="edge">
<title>ceph&#45;base&#45;&gt;cryptsetup</title>
<path fill="none" stroke="#444444" stroke-opacity="0.333333" d="M490.1004,-448.4796C501.5453,-421.1035 523.3728,-368.8928 536.8211,-336.7247"/>
<polygon fill="#444444" fill-opacity="0.333333" stroke="#444444" stroke-opacity="0.333333" points="540.0769,-338.0109 540.7049,-327.4347 533.6186,-335.3109 540.0769,-338.0109"/>
</g>
<!-- ceph&#45;base&#45;&gt;libcephfs2 -->
<g id="edge4" class="edge">
<title>ceph&#45;base&#45;&gt;libcephfs2</title>
<path fill="none" stroke="#444444" stroke-opacity="0.333333" d="M423.3304,-449.4085C413.6079,-446.5959 403.4361,-443.6533 393.4372,-440.7607"/>
<polygon fill="#444444" fill-opacity="0.333333" stroke="#444444" stroke-opacity="0.333333" points="394.0978,-437.3084 383.519,-437.8915 392.1525,-444.0327 394.0978,-437.3084"/>
</g>
<!-- ceph&#45;base&#45;&gt;librados2 -->
<g id="edge5" class="edge">
<title>ceph&#45;base&#45;&gt;librados2</title>
<path fill="none" stroke="#444444" stroke-opacity="0.333333" d="M461.1678,-484.6717C453.4554,-491.2117 444.6153,-498.708 436.3537,-505.7137"/>
<polygon fill="#444444" fill-opacity="0.333333" stroke="#444444" stroke-opacity="0.333333" points="434.029,-503.0959 428.6657,-512.2329 438.5563,-508.4348 434.029,-503.0959"/>
</g>
<!-- ceph&#45;base&#45;&gt;librbd1 -->
<g id="edge6" class="edge">
<title>ceph&#45;base&#45;&gt;librbd1</title>
<path fill="none" stroke="#444444" stroke-opacity="0.333333" d="M470.8272,-484.5626C453.6119,-511.0293 421.368,-560.601 401.3124,-591.4342"/>
<polygon fill="#444444" fill-opacity="0.333333" stroke="#444444" stroke-opacity="0.333333" points="398.2744,-589.686 395.7557,-599.9771 404.1423,-593.5028 398.2744,-589.686"/>
</g>
<!-- ceph&#45;base&#45;&gt;librgw2 -->
<g id="edge7" class="edge">
<title>ceph&#45;base&#45;&gt;librgw2</title>
<path fill="none" stroke="#444444" stroke-opacity="0.333333" d="M473.2374,-448.355C467.9902,-438.1086 461.3326,-425.1081 455.4723,-413.6647"/>
<polygon fill="#444444" fill-opacity="0.333333" stroke="#444444" stroke-opacity="0.333333" points="458.4592,-411.8185 450.7858,-404.513 452.2287,-415.0092 458.4592,-411.8185"/>
</g>
<!-- ceph&#45;base&#45;&gt;lttng&#45;ust -->
<g id="edge8" class="edge">
<title>ceph&#45;base&#45;&gt;lttng&#45;ust</title>
<path fill="none" stroke="#444444" stroke-opacity="0.333333" d="M484.1283,-484.6372C487.0102,-517.6833 493.1425,-587.9996 496.5674,-627.2713"/>
<polygon fill="#444444" fill-opacity="0.333333" stroke="#444444" stroke-opacity="0.333333" points="493.0809,-627.5795 497.4365,-637.2376 500.0544,-626.9713 493.0809,-627.5795"/>
</g>
<!-- ceph&#45;common&#45;&gt;libcephfs2 -->
<g id="edge9" class="edge">
<title>ceph&#45;common&#45;&gt;libcephfs2</title>
<path fill="none" stroke="#444444" stroke-opacity="0.333333" d="M356.9927,-556.4005C349.9861,-529.7759 336.8114,-479.7125 328.5069,-448.1557"/>
<polygon fill="#444444" fill-opacity="0.333333" stroke="#444444" stroke-opacity="0.333333" points="331.823,-447.0038 325.8932,-438.2239 325.0535,-448.7854 331.823,-447.0038"/>
</g>
<!-- ceph&#45;common&#45;&gt;librados2 -->
<g id="edge10" class="edge">
<title>ceph&#45;common&#45;&gt;librados2</title>
<path fill="none" stroke="#444444" stroke-opacity="0.333333" d="M380.5052,-556.2771C380.6704,-556.1172 380.8358,-555.957 381.0016,-555.7966"/>
<polygon fill="#444444" fill-opacity="0.333333" stroke="#444444" stroke-opacity="0.333333" points="383.7567,-558.0009 388.508,-548.5312 378.8883,-552.9711 383.7567,-558.0009"/>
</g>
<!-- ceph&#45;common&#45;&gt;librbd1 -->
<g id="edge11" class="edge">
<title>ceph&#45;common&#45;&gt;librbd1</title>
<path fill="none" stroke="#444444" stroke-opacity="0.333333" d="M370.8153,-592.5946C370.8952,-592.7545 370.9752,-592.9146 371.0553,-593.0749"/>
<polygon fill="#444444" fill-opacity="0.333333" stroke="#444444" stroke-opacity="0.333333" points="367.0836,-592.9574 374.6856,-600.3371 373.3448,-589.8274 367.0836,-592.9574"/>
</g>
<!-- ceph&#45;common&#45;&gt;gperftools&#45;libs -->
<g id="edge12" class="edge">
<title>ceph&#45;common&#45;&gt;gperftools&#45;libs</title>
<path fill="none" stroke="#444444" stroke-opacity="0.333333" d="M431.3495,-569.8797C457.5714,-568.1618 487.9541,-566.1713 516.4809,-564.3025"/>
<polygon fill="#444444" fill-opacity="0.333333" stroke="#444444" stroke-opacity="0.333333" points="516.7341,-567.7935 526.4839,-563.6471 516.2765,-560.8085 516.7341,-567.7935"/>
</g>
<!-- ceph&#45;common&#45;&gt;leveldb -->
<g id="edge13" class="edge">
<title>ceph&#45;common&#45;&gt;leveldb</title>
<path fill="none" stroke="#444444" stroke-opacity="0.333333" d="M431.4382,-589.9126C470.5515,-598.5955 518.7965,-609.3055 555.9177,-617.5462"/>
<polygon fill="#444444" fill-opacity="0.333333" stroke="#444444" stroke-opacity="0.333333" points="555.5551,-621.0508 566.076,-619.8013 557.0722,-614.2172 555.5551,-621.0508"/>
</g>
<!-- ceph&#45;common&#45;&gt;libradosstriper1 -->
<g id="edge14" class="edge">
<title>ceph&#45;common&#45;&gt;libradosstriper1</title>
<path fill="none" stroke="#444444" stroke-opacity="0.333333" d="M358.3321,-592.4935C353.3023,-619.1388 343.8446,-669.241 337.883,-700.8223"/>
<polygon fill="#444444" fill-opacity="0.333333" stroke="#444444" stroke-opacity="0.333333" points="334.4225,-700.2861 336.0068,-710.7619 341.301,-701.5846 334.4225,-700.2861"/>
</g>
<!-- ceph&#45;common&#45;&gt;python2&#45;prettytable -->
<g id="edge15" class="edge">
<title>ceph&#45;common&#45;&gt;python2&#45;prettytable</title>
<path fill="none" stroke="#444444" stroke-opacity="0.333333" d="M321.962,-592.4574C278.4922,-612.1469 208.7972,-643.7152 161.8517,-664.979"/>
<polygon fill="#444444" fill-opacity="0.333333" stroke="#444444" stroke-opacity="0.333333" points="160.154,-661.9057 152.489,-669.2199 163.0422,-668.2821 160.154,-661.9057"/>
</g>
<!-- ceph&#45;common&#45;&gt;python&#45;cephfs -->
<g id="edge16" class="edge">
<title>ceph&#45;common&#45;&gt;python&#45;cephfs</title>
<path fill="none" stroke="#444444" stroke-opacity="0.333333" d="M335.1774,-556.3586C300.8871,-533.017 241.1138,-492.3288 203.0452,-466.4153"/>
<polygon fill="#444444" fill-opacity="0.333333" stroke="#444444" stroke-opacity="0.333333" points="204.5684,-463.2182 194.3323,-460.4844 200.6294,-469.0048 204.5684,-463.2182"/>
</g>
<!-- ceph&#45;common&#45;&gt;python&#45;rados -->
<g id="edge17" class="edge">
<title>ceph&#45;common&#45;&gt;python&#45;rados</title>
<path fill="none" stroke="#444444" stroke-opacity="0.333333" d="M291.924,-576.4788C291.7663,-576.4834 291.6086,-576.488 291.4508,-576.4926"/>
<polygon fill="#444444" fill-opacity="0.333333" stroke="#444444" stroke-opacity="0.333333" points="294.2297,-572.9098 284.3362,-576.7004 294.4341,-579.9068 294.2297,-572.9098"/>
</g>
<!-- ceph&#45;common&#45;&gt;python&#45;rbd -->
<g id="edge18" class="edge">
<title>ceph&#45;common&#45;&gt;python&#45;rbd</title>
<path fill="none" stroke="#444444" stroke-opacity="0.333333" d="M335.8577,-592.54C324.1858,-600.7024 310.2344,-610.4589 297.6932,-619.2292"/>
<polygon fill="#444444" fill-opacity="0.333333" stroke="#444444" stroke-opacity="0.333333" points="295.4706,-616.5125 289.2815,-625.1117 299.4823,-622.249 295.4706,-616.5125"/>
</g>
<!-- ceph&#45;common&#45;&gt;python&#45;rgw -->
<g id="edge19" class="edge">
<title>ceph&#45;common&#45;&gt;python&#45;rgw</title>
<path fill="none" stroke="#444444" stroke-opacity="0.333333" d="M343.9145,-556.2022C331.4567,-543.4562 314.6465,-526.2571 300.8323,-512.1234"/>
<polygon fill="#444444" fill-opacity="0.333333" stroke="#444444" stroke-opacity="0.333333" points="303.0054,-509.3395 293.5126,-504.6344 297.9994,-514.2323 303.0054,-509.3395"/>
</g>
<!-- libcephfs2&#45;&gt;librados2 -->
<g id="edge20" class="edge">
<title>libcephfs2&#45;&gt;librados2</title>
<path fill="none" stroke="#444444" stroke-opacity="0.333333" d="M335.2809,-438.0817C349.315,-456.091 370.908,-483.8 386.7787,-504.166"/>
<polygon fill="#444444" fill-opacity="0.333333" stroke="#444444" stroke-opacity="0.333333" points="384.0704,-506.3847 392.978,-512.1212 389.5919,-502.082 384.0704,-506.3847"/>
</g>
<!-- librados2&#45;&gt;lttng&#45;ust -->
<g id="edge21" class="edge">
<title>librados2&#45;&gt;lttng&#45;ust</title>
<path fill="none" stroke="#444444" stroke-opacity="0.333333" d="M420.5756,-548.5672C436.0732,-569.6523 461.7733,-604.6182 479.5084,-628.7473"/>
<polygon fill="#444444" fill-opacity="0.333333" stroke="#444444" stroke-opacity="0.333333" points="476.9057,-631.1161 485.6483,-637.1009 482.546,-626.9704 476.9057,-631.1161"/>
</g>
<!-- librbd1&#45;&gt;librados2 -->
<g id="edge22" class="edge">
<title>librbd1&#45;&gt;librados2</title>
<path fill="none" stroke="#444444" stroke-opacity="0.333333" d="M388.6071,-600.2081C391.8197,-588.1674 396.0923,-572.1539 399.7346,-558.5025"/>
<polygon fill="#444444" fill-opacity="0.333333" stroke="#444444" stroke-opacity="0.333333" points="403.1728,-559.1929 402.3691,-548.6286 396.4094,-557.3883 403.1728,-559.1929"/>
</g>
<!-- librbd1&#45;&gt;lttng&#45;ust -->
<g id="edge23" class="edge">
<title>librbd1&#45;&gt;lttng&#45;ust</title>
<path fill="none" stroke="#444444" stroke-opacity="0.333333" d="M431.957,-633.8558C432.1729,-633.9248 432.389,-633.9939 432.6053,-634.063"/>
<polygon fill="#444444" fill-opacity="0.333333" stroke="#444444" stroke-opacity="0.333333" points="431.8183,-637.4858 442.4092,-637.1954 433.9488,-630.8179 431.8183,-637.4858"/>
</g>
<!-- librgw2&#45;&gt;librados2 -->
<g id="edge24" class="edge">
<title>librgw2&#45;&gt;librados2</title>
<path fill="none" stroke="#444444" stroke-opacity="0.333333" d="M437.1684,-404.639C431.2957,-429.3101 420.7658,-473.5463 413.8891,-502.435"/>
<polygon fill="#444444" fill-opacity="0.333333" stroke="#444444" stroke-opacity="0.333333" points="410.4472,-501.7804 411.5363,-512.3191 417.257,-503.4015 410.4472,-501.7804"/>
</g>
<!-- libradosstriper1&#45;&gt;librados2 -->
<g id="edge25" class="edge">
<title>libradosstriper1&#45;&gt;librados2</title>
<path fill="none" stroke="#444444" stroke-opacity="0.333333" d="M339.4237,-710.8365C352.6037,-675.7656 381.4399,-599.0351 396.9203,-557.8431"/>
<polygon fill="#444444" fill-opacity="0.333333" stroke="#444444" stroke-opacity="0.333333" points="400.2192,-559.0142 400.4609,-548.4221 393.6666,-556.5516 400.2192,-559.0142"/>
</g>
<!-- python&#45;cephfs&#45;&gt;libcephfs2 -->
<g id="edge26" class="edge">
<title>python&#45;cephfs&#45;&gt;libcephfs2</title>
<path fill="none" stroke="#444444" stroke-opacity="0.333333" d="M248.4546,-430.5196C248.6169,-430.4957 248.7791,-430.4718 248.9414,-430.4479"/>
<polygon fill="#444444" fill-opacity="0.333333" stroke="#444444" stroke-opacity="0.333333" points="246.8301,-434.297 256.2129,-429.3761 245.8094,-427.3718 246.8301,-434.297"/>
</g>
<!-- python&#45;rados&#45;&gt;librados2 -->
<g id="edge27" class="edge">
<title>python&#45;rados&#45;&gt;librados2</title>
<path fill="none" stroke="#444444" stroke-opacity="0.333333" d="M282.6064,-560.8504C300.8408,-556.3965 320.2975,-551.644 338.2846,-547.2505"/>
<polygon fill="#444444" fill-opacity="0.333333" stroke="#444444" stroke-opacity="0.333333" points="339.2252,-550.6237 348.1091,-544.8508 337.5642,-543.8236 339.2252,-550.6237"/>
</g>
<!-- python&#45;rbd&#45;&gt;librados2 -->
<g id="edge28" class="edge">
<title>python&#45;rbd&#45;&gt;librados2</title>
<path fill="none" stroke="#444444" stroke-opacity="0.333333" d="M286.3661,-625.1874C310.7188,-606.0909 349.1927,-575.921 376.1748,-554.7624"/>
<polygon fill="#444444" fill-opacity="0.333333" stroke="#444444" stroke-opacity="0.333333" points="378.442,-557.4324 384.1513,-548.5075 374.1225,-551.9241 378.442,-557.4324"/>
</g>
<!-- python&#45;rbd&#45;&gt;librbd1 -->
<g id="edge29" class="edge">
<title>python&#45;rbd&#45;&gt;librbd1</title>
<path fill="none" stroke="#444444" stroke-opacity="0.333333" d="M328.0708,-629.9432C328.231,-629.9102 328.3911,-629.8771 328.5512,-629.8441"/>
<polygon fill="#444444" fill-opacity="0.333333" stroke="#444444" stroke-opacity="0.333333" points="326.621,-633.8165 335.7068,-628.3667 325.2056,-626.9611 326.621,-633.8165"/>
</g>
<!-- python&#45;rbd&#45;&gt;python&#45;rados -->
<g id="edge30" class="edge">
<title>python&#45;rbd&#45;&gt;python&#45;rados</title>
<path fill="none" stroke="#444444" stroke-opacity="0.333333" d="M247.7412,-625.0421C242.3973,-618.7324 236.3058,-611.5401 230.5486,-604.7425"/>
<polygon fill="#444444" fill-opacity="0.333333" stroke="#444444" stroke-opacity="0.333333" points="233.1424,-602.3895 224.0087,-597.0206 227.8008,-606.9136 233.1424,-602.3895"/>
</g>
<!-- python&#45;rgw&#45;&gt;librados2 -->
<g id="edge31" class="edge">
<title>python&#45;rgw&#45;&gt;librados2</title>
<path fill="none" stroke="#444444" stroke-opacity="0.333333" d="M329.5837,-504.4393C334.2169,-505.989 338.9316,-507.566 343.6315,-509.138"/>
<polygon fill="#444444" fill-opacity="0.333333" stroke="#444444" stroke-opacity="0.333333" points="342.6334,-512.4947 353.2273,-512.3475 344.8539,-505.8562 342.6334,-512.4947"/>
</g>
<!-- python&#45;rgw&#45;&gt;librgw2 -->
<g id="edge32" class="edge">
<title>python&#45;rgw&#45;&gt;librgw2</title>
<path fill="none" stroke="#444444" stroke-opacity="0.333333" d="M305.7351,-468.3071C332.882,-451.9306 373.0119,-427.722 402.6078,-409.868"/>
<polygon fill="#444444" fill-opacity="0.333333" stroke="#444444" stroke-opacity="0.333333" points="404.6739,-412.7092 411.4286,-404.5468 401.058,-406.7154 404.6739,-412.7092"/>
</g>
<!-- python&#45;rgw&#45;&gt;python&#45;rados -->
<g id="edge33" class="edge">
<title>python&#45;rgw&#45;&gt;python&#45;rados</title>
<path fill="none" stroke="#444444" stroke-opacity="0.333333" d="M262.4651,-504.693C252.6403,-518.2476 239.0931,-536.9376 228.0518,-552.1705"/>
<polygon fill="#444444" fill-opacity="0.333333" stroke="#444444" stroke-opacity="0.333333" points="224.9224,-550.5241 221.8874,-560.6749 230.5901,-554.6322 224.9224,-550.5241"/>
</g>
<!-- ceph&#45;&gt;ceph&#45;mds -->
<g id="edge34" class="edge">
<title>ceph&#45;&gt;ceph&#45;mds</title>
<path fill="none" stroke="#444444" stroke-opacity="0.333333" d="M656.2946,-483.9087C647.4526,-474.0406 636.3853,-461.6887 626.6868,-450.8647"/>
<polygon fill="#444444" fill-opacity="0.333333" stroke="#444444" stroke-opacity="0.333333" points="629.1981,-448.4226 619.9182,-443.3105 623.9847,-453.0938 629.1981,-448.4226"/>
</g>
<!-- ceph&#45;&gt;ceph&#45;mgr -->
<g id="edge35" class="edge">
<title>ceph&#45;&gt;ceph&#45;mgr</title>
<path fill="none" stroke="#444444" stroke-opacity="0.333333" d="M705.1412,-495.7183C705.3013,-495.6867 705.4617,-495.655 705.6223,-495.6233"/>
<polygon fill="#444444" fill-opacity="0.333333" stroke="#444444" stroke-opacity="0.333333" points="703.8527,-499.5405 712.9849,-494.169 702.4962,-492.6732 703.8527,-499.5405"/>
</g>
<!-- ceph&#45;&gt;ceph&#45;mon -->
<g id="edge36" class="edge">
<title>ceph&#45;&gt;ceph&#45;mon</title>
<path fill="none" stroke="#444444" stroke-opacity="0.333333" d="M680.8567,-520.3451C689.6235,-539.7453 703.602,-570.6785 713.6887,-592.9998"/>
<polygon fill="#444444" fill-opacity="0.333333" stroke="#444444" stroke-opacity="0.333333" points="710.5741,-594.6067 717.8816,-602.2781 716.953,-591.7241 710.5741,-594.6067"/>
</g>
<!-- ceph&#45;&gt;ceph&#45;osd -->
<g id="edge37" class="edge">
<title>ceph&#45;&gt;ceph&#45;osd</title>
<path fill="none" stroke="#444444" stroke-opacity="0.333333" d="M639.8721,-504.7704C632.4053,-505.3699 624.2187,-506.0273 615.9359,-506.6924"/>
<polygon fill="#444444" fill-opacity="0.333333" stroke="#444444" stroke-opacity="0.333333" points="615.5149,-503.2148 605.8271,-507.5041 616.0752,-510.1924 615.5149,-503.2148"/>
</g>
<!-- ceph&#45;mds&#45;&gt;ceph&#45;base -->
<g id="edge38" class="edge">
<title>ceph&#45;mds&#45;&gt;ceph&#45;base</title>
<path fill="none" stroke="#444444" stroke-opacity="0.333333" d="M550.9143,-443.2177C549.0013,-443.8703 547.0779,-444.5265 545.1517,-445.1836"/>
<polygon fill="#444444" fill-opacity="0.333333" stroke="#444444" stroke-opacity="0.333333" points="543.8683,-441.9233 535.5339,-448.4647 546.1284,-448.5484 543.8683,-441.9233"/>
</g>
<!-- ceph&#45;mds&#45;&gt;gperftools&#45;libs -->
<g id="edge39" class="edge">
<title>ceph&#45;mds&#45;&gt;gperftools&#45;libs</title>
<path fill="none" stroke="#444444" stroke-opacity="0.333333" d="M605.62,-443.3503C607.9665,-465.5199 611.9639,-503.2872 614.7181,-529.3086"/>
<polygon fill="#444444" fill-opacity="0.333333" stroke="#444444" stroke-opacity="0.333333" points="611.245,-529.7477 615.7782,-539.3238 618.2061,-529.0109 611.245,-529.7477"/>
</g>
<!-- ceph&#45;mgr&#45;&gt;ceph&#45;base -->
<g id="edge40" class="edge">
<title>ceph&#45;mgr&#45;&gt;ceph&#45;base</title>
<path fill="none" stroke="#444444" stroke-opacity="0.333333" d="M712.9085,-480.2538C667.1991,-477.5326 601.4917,-473.6209 551.9417,-470.6711"/>
<polygon fill="#444444" fill-opacity="0.333333" stroke="#444444" stroke-opacity="0.333333" points="552.1329,-467.1763 541.9425,-470.0758 551.7168,-474.164 552.1329,-467.1763"/>
</g>
<!-- ceph&#45;mgr&#45;&gt;gperftools&#45;libs -->
<g id="edge41" class="edge">
<title>ceph&#45;mgr&#45;&gt;gperftools&#45;libs</title>
<path fill="none" stroke="#444444" stroke-opacity="0.333333" d="M730.5575,-501.6289C710.2271,-511.7261 684.7422,-524.3833 663.1385,-535.1128"/>
<polygon fill="#444444" fill-opacity="0.333333" stroke="#444444" stroke-opacity="0.333333" points="661.5432,-531.9971 654.1438,-539.58 664.6569,-538.2665 661.5432,-531.9971"/>
</g>
<!-- ceph&#45;mgr&#45;&gt;python2&#45;cherrypy -->
<g id="edge42" class="edge">
<title>ceph&#45;mgr&#45;&gt;python2&#45;cherrypy</title>
<path fill="none" stroke="#444444" stroke-opacity="0.333333" d="M762.8546,-465.3552C757.4565,-442.3088 748.0775,-402.2671 741.7397,-375.2088"/>
<polygon fill="#444444" fill-opacity="0.333333" stroke="#444444" stroke-opacity="0.333333" points="745.0813,-374.128 739.3929,-365.1898 738.2658,-375.7245 745.0813,-374.128"/>
</g>
<!-- ceph&#45;mgr&#45;&gt;python2&#45;pecan -->
<g id="edge43" class="edge">
<title>ceph&#45;mgr&#45;&gt;python2&#45;pecan</title>
<path fill="none" stroke="#444444" stroke-opacity="0.333333" d="M821.4374,-479.3285C862.3242,-476.2047 919.2885,-471.8525 967.0497,-468.2035"/>
<polygon fill="#444444" fill-opacity="0.333333" stroke="#444444" stroke-opacity="0.333333" points="967.3884,-471.6879 977.0927,-467.4362 966.8551,-464.7082 967.3884,-471.6879"/>
</g>
<!-- ceph&#45;mgr&#45;&gt;python&#45;werkzeug -->
<g id="edge44" class="edge">
<title>ceph&#45;mgr&#45;&gt;python&#45;werkzeug</title>
<path fill="none" stroke="#444444" stroke-opacity="0.333333" d="M782.4314,-501.5121C801.668,-524.1372 834.7995,-563.1048 856.8179,-589.0017"/>
<polygon fill="#444444" fill-opacity="0.333333" stroke="#444444" stroke-opacity="0.333333" points="854.4004,-591.5618 863.5445,-596.9132 859.7334,-587.0275 854.4004,-591.5618"/>
</g>
<!-- ceph&#45;mon&#45;&gt;ceph&#45;base -->
<g id="edge45" class="edge">
<title>ceph&#45;mon&#45;&gt;ceph&#45;base</title>
<path fill="none" stroke="#444444" stroke-opacity="0.333333" d="M697.1435,-602.0667C653.0293,-574.2064 568.8664,-521.0532 520.0792,-490.2416"/>
<polygon fill="#444444" fill-opacity="0.333333" stroke="#444444" stroke-opacity="0.333333" points="521.7228,-487.1401 511.3989,-484.7595 517.985,-493.0586 521.7228,-487.1401"/>
</g>
<!-- ceph&#45;mon&#45;&gt;gperftools&#45;libs -->
<g id="edge46" class="edge">
<title>ceph&#45;mon&#45;&gt;gperftools&#45;libs</title>
<path fill="none" stroke="#444444" stroke-opacity="0.333333" d="M694.7023,-602.1919C683.1392,-595.5045 669.8766,-587.8343 657.6542,-580.7655"/>
<polygon fill="#444444" fill-opacity="0.333333" stroke="#444444" stroke-opacity="0.333333" points="659.3862,-577.724 648.9773,-575.7474 655.8816,-583.7836 659.3862,-577.724"/>
</g>
<!-- ceph&#45;mon&#45;&gt;leveldb -->
<g id="edge47" class="edge">
<title>ceph&#45;mon&#45;&gt;leveldb</title>
<path fill="none" stroke="#444444" stroke-opacity="0.333333" d="M671.8306,-625.2655C671.7333,-625.2743 671.6361,-625.2832 671.5388,-625.2921"/>
<polygon fill="#444444" fill-opacity="0.333333" stroke="#444444" stroke-opacity="0.333333" points="672.1529,-621.7213 662.5132,-626.1174 672.7903,-628.6922 672.1529,-621.7213"/>
</g>
<!-- ceph&#45;mon&#45;&gt;python2&#45;flask -->
<g id="edge48" class="edge">
<title>ceph&#45;mon&#45;&gt;python2&#45;flask</title>
<path fill="none" stroke="#444444" stroke-opacity="0.333333" d="M744.386,-638.5081C764.7951,-658.7416 797.9151,-691.5765 820.9637,-714.4268"/>
<polygon fill="#444444" fill-opacity="0.333333" stroke="#444444" stroke-opacity="0.333333" points="818.7955,-717.2057 828.3612,-721.7607 823.7238,-712.2346 818.7955,-717.2057"/>
</g>
<!-- ceph&#45;osd&#45;&gt;ceph&#45;base -->
<g id="edge49" class="edge">
<title>ceph&#45;osd&#45;&gt;ceph&#45;base</title>
<path fill="none" stroke="#444444" stroke-opacity="0.333333" d="M523.9006,-493.6878C522.2127,-492.5796 520.5021,-491.4565 518.7857,-490.3297"/>
<polygon fill="#444444" fill-opacity="0.333333" stroke="#444444" stroke-opacity="0.333333" points="520.5159,-487.2787 510.2356,-484.7163 516.6742,-493.1303 520.5159,-487.2787"/>
</g>
<!-- ceph&#45;osd&#45;&gt;librados2 -->
<g id="edge50" class="edge">
<title>ceph&#45;osd&#45;&gt;librados2</title>
<path fill="none" stroke="#444444" stroke-opacity="0.333333" d="M497.4187,-518.8201C490.6462,-519.6904 483.6477,-520.5898 476.683,-521.4848"/>
<polygon fill="#444444" fill-opacity="0.333333" stroke="#444444" stroke-opacity="0.333333" points="476.0057,-518.043 466.5334,-522.7891 476.8979,-524.9859 476.0057,-518.043"/>
</g>
<!-- ceph&#45;osd&#45;&gt;gperftools&#45;libs -->
<g id="edge51" class="edge">
<title>ceph&#45;osd&#45;&gt;gperftools&#45;libs</title>
<path fill="none" stroke="#444444" stroke-opacity="0.333333" d="M577.7203,-529.9653C579.3993,-531.1283 581.1033,-532.3085 582.8138,-533.4932"/>
<polygon fill="#444444" fill-opacity="0.333333" stroke="#444444" stroke-opacity="0.333333" points="581.1226,-536.5794 591.3362,-539.396 585.1083,-530.8249 581.1226,-536.5794"/>
</g>
<!-- ceph&#45;osd&#45;&gt;leveldb -->
<g id="edge52" class="edge">
<title>ceph&#45;osd&#45;&gt;leveldb</title>
<path fill="none" stroke="#444444" stroke-opacity="0.333333" d="M561.1149,-529.8819C571.4398,-549.3968 588.0272,-580.7485 599.9453,-603.2749"/>
<polygon fill="#444444" fill-opacity="0.333333" stroke="#444444" stroke-opacity="0.333333" points="596.965,-605.1262 604.7353,-612.3285 603.1524,-601.8526 596.965,-605.1262"/>
</g>
<!-- python2&#45;pecan&#45;&gt;python2&#45;mako -->
<g id="edge53" class="edge">
<title>python2&#45;pecan&#45;&gt;python2&#45;mako</title>
<path fill="none" stroke="#444444" stroke-opacity="0.333333" d="M1138.4612,-450.7652C1144.1913,-450.0189 1149.9808,-449.2649 1155.7389,-448.515"/>
<polygon fill="#444444" fill-opacity="0.333333" stroke="#444444" stroke-opacity="0.333333" points="1156.5855,-451.9344 1166.0497,-447.1722 1155.6814,-444.993 1156.5855,-451.9344"/>
</g>
<!-- python2&#45;pecan&#45;&gt;python2&#45;logutils -->
<g id="edge54" class="edge">
<title>python2&#45;pecan&#45;&gt;python2&#45;logutils</title>
<path fill="none" stroke="#444444" stroke-opacity="0.333333" d="M1080.5822,-443.1868C1102.7701,-425.5752 1136.6558,-398.6786 1161.2514,-379.1559"/>
<polygon fill="#444444" fill-opacity="0.333333" stroke="#444444" stroke-opacity="0.333333" points="1163.5495,-381.8004 1169.2061,-372.8419 1159.1976,-376.3176 1163.5495,-381.8004"/>
</g>
<!-- python2&#45;pecan&#45;&gt;python2&#45;simplegeneric -->
<g id="edge55" class="edge">
<title>python2&#45;pecan&#45;&gt;python2&#45;simplegeneric</title>
<path fill="none" stroke="#444444" stroke-opacity="0.333333" d="M1037.3687,-443.0064C1024.0427,-431.0942 1006.4694,-415.3854 991.8222,-402.2922"/>
<polygon fill="#444444" fill-opacity="0.333333" stroke="#444444" stroke-opacity="0.333333" points="993.8196,-399.3831 984.0314,-395.328 989.1544,-404.602 993.8196,-399.3831"/>
</g>
<!-- python2&#45;pecan&#45;&gt;python2&#45;singledispatch -->
<g id="edge56" class="edge">
<title>python2&#45;pecan&#45;&gt;python2&#45;singledispatch</title>
<path fill="none" stroke="#444444" stroke-opacity="0.333333" d="M1056.3887,-443.1017C1054.3771,-417.2052 1050.6668,-369.4404 1048.2946,-338.902"/>
<polygon fill="#444444" fill-opacity="0.333333" stroke="#444444" stroke-opacity="0.333333" points="1051.7803,-338.5816 1047.5163,-328.8827 1044.8014,-339.1238 1051.7803,-338.5816"/>
</g>
<!-- python2&#45;pecan&#45;&gt;python2&#45;webob -->
<g id="edge57" class="edge">
<title>python2&#45;pecan&#45;&gt;python2&#45;webob</title>
<path fill="none" stroke="#444444" stroke-opacity="0.333333" d="M1078.8361,-479.331C1089.9615,-488.883 1103.7867,-500.7529 1115.894,-511.1479"/>
<polygon fill="#444444" fill-opacity="0.333333" stroke="#444444" stroke-opacity="0.333333" points="1113.6893,-513.8681 1123.5565,-517.7267 1118.2492,-508.557 1113.6893,-513.8681"/>
</g>
<!-- python2&#45;pecan&#45;&gt;python2&#45;webtest -->
<g id="edge58" class="edge">
<title>python2&#45;pecan&#45;&gt;python2&#45;webtest</title>
<path fill="none" stroke="#444444" stroke-opacity="0.333333" d="M1093.6889,-479.2858C1135.24,-500.144 1203.7381,-534.5293 1248.8902,-557.1952"/>
<polygon fill="#444444" fill-opacity="0.333333" stroke="#444444" stroke-opacity="0.333333" points="1247.366,-560.3462 1257.8734,-561.7046 1250.5064,-554.0902 1247.366,-560.3462"/>
</g>
<!-- python2&#45;flask&#45;&gt;python&#45;werkzeug -->
<g id="edge59" class="edge">
<title>python2&#45;flask&#45;&gt;python&#45;werkzeug</title>
<path fill="none" stroke="#444444" stroke-opacity="0.333333" d="M851.5663,-721.9568C856.8777,-701.316 865.6089,-667.3847 871.8038,-643.3103"/>
<polygon fill="#444444" fill-opacity="0.333333" stroke="#444444" stroke-opacity="0.333333" points="875.2655,-643.9019 874.368,-633.3451 868.4863,-642.1574 875.2655,-643.9019"/>
</g>
<!-- python2&#45;flask&#45;&gt;python2&#45;click -->
<g id="edge60" class="edge">
<title>python2&#45;flask&#45;&gt;python2&#45;click</title>
<path fill="none" stroke="#444444" stroke-opacity="0.333333" d="M833.9311,-758.2859C815.8738,-783.5849 783.0128,-829.6245 762.1068,-858.9145"/>
<polygon fill="#444444" fill-opacity="0.333333" stroke="#444444" stroke-opacity="0.333333" points="758.993,-857.2525 756.0322,-867.4253 764.6906,-861.3192 758.993,-857.2525"/>
</g>
<!-- python2&#45;flask&#45;&gt;python2&#45;itsdangerous -->
<g id="edge61" class="edge">
<title>python2&#45;flask&#45;&gt;python2&#45;itsdangerous</title>
<path fill="none" stroke="#444444" stroke-opacity="0.333333" d="M858.6269,-758.2923C868.8027,-774.0388 883.6673,-797.041 895.2124,-814.9064"/>
<polygon fill="#444444" fill-opacity="0.333333" stroke="#444444" stroke-opacity="0.333333" points="892.5375,-817.2157 900.9047,-823.715 898.4167,-813.4164 892.5375,-817.2157"/>
</g>
<!-- python2&#45;flask&#45;&gt;python2&#45;jinja2 -->
<g id="edge62" class="edge">
<title>python2&#45;flask&#45;&gt;python2&#45;jinja2</title>
<path fill="none" stroke="#444444" stroke-opacity="0.333333" d="M927.6251,-734.7844C927.7306,-734.7775 927.836,-734.7705 927.9415,-734.7635"/>
<polygon fill="#444444" fill-opacity="0.333333" stroke="#444444" stroke-opacity="0.333333" points="928.025,-738.2657 937.7719,-734.1126 927.5625,-731.281 928.025,-738.2657"/>
</g>
<!-- python2&#45;mako&#45;&gt;python2&#45;beaker -->
<g id="edge63" class="edge">
<title>python2&#45;mako&#45;&gt;python2&#45;beaker</title>
<path fill="none" stroke="#444444" stroke-opacity="0.333333" d="M1259.0336,-419.171C1284.4956,-392.5112 1332.1161,-342.6505 1361.0706,-312.3339"/>
<polygon fill="#444444" fill-opacity="0.333333" stroke="#444444" stroke-opacity="0.333333" points="1363.6293,-314.7224 1368.0049,-305.0734 1358.5671,-309.8877 1363.6293,-314.7224"/>
</g>
<!-- python2&#45;mako&#45;&gt;python2&#45;markupsafe -->
<g id="edge64" class="edge">
<title>python2&#45;mako&#45;&gt;python2&#45;markupsafe</title>
<path fill="none" stroke="#444444" stroke-opacity="0.333333" d="M1226.0456,-455.4665C1198.5333,-487.3587 1141.4279,-553.5551 1109.7284,-590.3011"/>
<polygon fill="#444444" fill-opacity="0.333333" stroke="#444444" stroke-opacity="0.333333" points="1106.8777,-588.2474 1102.9958,-598.1055 1112.178,-592.8198 1106.8777,-588.2474"/>
</g>
<!-- python2&#45;webtest&#45;&gt;python2&#45;webob -->
<g id="edge65" class="edge">
<title>python2&#45;webtest&#45;&gt;python2&#45;webob</title>
<path fill="none" stroke="#444444" stroke-opacity="0.333333" d="M1232.9022,-561.8625C1227.2236,-560.1897 1221.4373,-558.4851 1215.6805,-556.7893"/>
<polygon fill="#444444" fill-opacity="0.333333" stroke="#444444" stroke-opacity="0.333333" points="1216.6259,-553.4192 1206.0444,-553.9507 1214.6478,-560.1339 1216.6259,-553.4192"/>
</g>
<!-- python2&#45;webtest&#45;&gt;python2&#45;beautifulsoup4 -->
<g id="edge66" class="edge">
<title>python2&#45;webtest&#45;&gt;python2&#45;beautifulsoup4</title>
<path fill="none" stroke="#444444" stroke-opacity="0.333333" d="M1339.0003,-597.9401C1370.0486,-610.4217 1411.5266,-627.096 1444.4296,-640.3231"/>
<polygon fill="#444444" fill-opacity="0.333333" stroke="#444444" stroke-opacity="0.333333" points="1443.3206,-643.6494 1453.9044,-644.132 1445.9316,-637.1546 1443.3206,-643.6494"/>
</g>
<!-- python2&#45;webtest&#45;&gt;python2&#45;waitress -->
<g id="edge67" class="edge">
<title>python2&#45;webtest&#45;&gt;python2&#45;waitress</title>
<path fill="none" stroke="#444444" stroke-opacity="0.333333" d="M1289.4246,-598.0213C1284.7791,-616.0367 1277.5907,-643.913 1272.2133,-664.7668"/>
<polygon fill="#444444" fill-opacity="0.333333" stroke="#444444" stroke-opacity="0.333333" points="1268.7717,-664.0965 1269.6638,-674.6537 1275.55,-665.8444 1268.7717,-664.0965"/>
</g>
<!-- python2&#45;jinja2&#45;&gt;python2&#45;markupsafe -->
<g id="edge69" class="edge">
<title>python2&#45;jinja2&#45;&gt;python2&#45;markupsafe</title>
<path fill="none" stroke="#444444" stroke-opacity="0.333333" d="M1034.0863,-710.3976C1044.2854,-692.3626 1060.1101,-664.3797 1071.8544,-643.6125"/>
<polygon fill="#444444" fill-opacity="0.333333" stroke="#444444" stroke-opacity="0.333333" points="1075.0523,-645.0676 1076.9284,-634.6402 1068.9592,-641.6218 1075.0523,-645.0676"/>
</g>
<!-- python2&#45;jinja2&#45;&gt;python2&#45;babel -->
<g id="edge68" class="edge">
<title>python2&#45;jinja2&#45;&gt;python2&#45;babel</title>
<path fill="none" stroke="#444444" stroke-opacity="0.333333" d="M1041.045,-746.76C1056.3187,-763.1071 1078.8239,-787.1941 1095.8695,-805.4376"/>
<polygon fill="#444444" fill-opacity="0.333333" stroke="#444444" stroke-opacity="0.333333" points="1093.4189,-807.9414 1102.8034,-812.8589 1098.5337,-803.1625 1093.4189,-807.9414"/>
</g>
<!-- python2&#45;beaker&#45;&gt;pycryptopp -->
<g id="edge71" class="edge">
<title>python2&#45;beaker&#45;&gt;pycryptopp</title>
<path fill="none" stroke="#444444" stroke-opacity="0.333333" d="M1439.578,-268.8422C1446.5007,-266.54 1453.6373,-264.1666 1460.6944,-261.8196"/>
<polygon fill="#444444" fill-opacity="0.333333" stroke="#444444" stroke-opacity="0.333333" points="1461.8566,-265.1217 1470.241,-258.6447 1459.6475,-258.4794 1461.8566,-265.1217"/>
</g>
<!-- python2&#45;beaker&#45;&gt;python2&#45;paste -->
<g id="edge72" class="edge">
<title>python2&#45;beaker&#45;&gt;python2&#45;paste</title>
<path fill="none" stroke="#444444" stroke-opacity="0.333333" d="M1387.6439,-268.5995C1390.772,-243.1439 1396.4747,-196.7374 1400.1739,-166.634"/>
<polygon fill="#444444" fill-opacity="0.333333" stroke="#444444" stroke-opacity="0.333333" points="1403.6918,-166.7021 1401.4377,-156.3499 1396.7441,-165.8483 1403.6918,-166.7021"/>
</g>
<!-- python2&#45;beautifulsoup4&#45;&gt;python2&#45;lxml -->
<g id="edge74" class="edge">
<title>python2&#45;beautifulsoup4&#45;&gt;python2&#45;lxml</title>
<path fill="none" stroke="#444444" stroke-opacity="0.333333" d="M1509.513,-680.2218C1521.2328,-694.4163 1540.2734,-714.2052 1557.0295,-729.9103"/>
<polygon fill="#444444" fill-opacity="0.333333" stroke="#444444" stroke-opacity="0.333333" points="1554.8011,-732.6159 1564.533,-736.804 1559.5369,-727.4611 1554.8011,-732.6159"/>
</g>
<!-- pycryptopp&#45;&gt;cryptopp -->
<g id="edge70" class="edge">
<title>pycryptopp&#45;&gt;cryptopp</title>
<path fill="none" stroke="#444444" stroke-opacity="0.333333" d="M1563.8876,-222.5958C1570.6016,-219.5268 1577.6484,-216.3057 1584.5751,-213.1394"/>
<polygon fill="#444444" fill-opacity="0.333333" stroke="#444444" stroke-opacity="0.333333" points="1586.264,-216.2159 1593.9038,-208.8753 1583.3538,-209.8494 1586.264,-216.2159"/>
</g>
<!-- python2&#45;paste&#45;&gt;python2&#45;tempita -->
<g id="edge73" class="edge">
<title>python2&#45;paste&#45;&gt;python2&#45;tempita</title>
<path fill="none" stroke="#444444" stroke-opacity="0.333333" d="M1406.2819,-119.7237C1409.0403,-100.2625 1413.4494,-69.1551 1416.6663,-46.4586"/>
<polygon fill="#444444" fill-opacity="0.333333" stroke="#444444" stroke-opacity="0.333333" points="1420.1557,-46.78 1418.0938,-36.3877 1413.225,-45.7976 1420.1557,-46.78"/>
</g>
<!-- python2&#45;lxml&#45;&gt;python2&#45;beautifulsoup4 -->
<g id="edge75" class="edge">
<title>python2&#45;lxml&#45;&gt;python2&#45;beautifulsoup4</title>
<path fill="none" stroke="#444444" stroke-opacity="0.333333" d="M1580.087,-736.9582C1568.3672,-722.7637 1549.3266,-702.9748 1532.5705,-687.2697"/>
<polygon fill="#444444" fill-opacity="0.333333" stroke="#444444" stroke-opacity="0.333333" points="1534.7989,-684.5641 1525.067,-680.376 1530.0631,-689.7189 1534.7989,-684.5641"/>
</g>
<!-- python2&#45;lxml&#45;&gt;python2&#45;html5lib -->
<g id="edge76" class="edge">
<title>python2&#45;lxml&#45;&gt;python2&#45;html5lib</title>
<path fill="none" stroke="#444444" stroke-opacity="0.333333" d="M1608.6779,-773.3489C1625.7941,-790.9762 1651.8309,-817.7907 1670.9662,-837.4975"/>
<polygon fill="#444444" fill-opacity="0.333333" stroke="#444444" stroke-opacity="0.333333" points="1668.7073,-840.1954 1678.1847,-844.9315 1673.7294,-835.319 1668.7073,-840.1954"/>
</g>
<!-- python2&#45;lxml&#45;&gt;python2&#45;cssselect -->
<g id="edge77" class="edge">
<title>python2&#45;lxml&#45;&gt;python2&#45;cssselect</title>
<path fill="none" stroke="#444444" stroke-opacity="0.333333" d="M1635.9996,-737.0002C1639.3679,-735.6529 1642.7876,-734.285 1646.206,-732.9176"/>
<polygon fill="#444444" fill-opacity="0.333333" stroke="#444444" stroke-opacity="0.333333" points="1647.8075,-736.0467 1655.7924,-729.083 1645.2077,-729.5473 1647.8075,-736.0467"/>
</g>
<!-- python2&#45;html5lib&#45;&gt;python2&#45;webencodings -->
<g id="edge78" class="edge">
<title>python2&#45;html5lib&#45;&gt;python2&#45;webencodings</title>
<path fill="none" stroke="#444444" stroke-opacity="0.333333" d="M1718.4663,-881.0174C1730.0896,-890.2315 1744.3987,-901.5747 1756.9931,-911.5586"/>
<polygon fill="#444444" fill-opacity="0.333333" stroke="#444444" stroke-opacity="0.333333" points="1754.9657,-914.4178 1764.9764,-917.8872 1759.3142,-908.9322 1754.9657,-914.4178"/>
</g>
<!-- ceph&#45;base -->
<g id="node1" class="node">
<title>ceph&#45;base</title>
<text text-anchor="middle" x="482.55" y="-462.84" font-family="monospace" font-size="14.00" fill="#000000">ceph&#45;base</text>
</g>
<!-- ceph&#45;common -->
<g id="node2" class="node">
<title>ceph&#45;common</title>
<text text-anchor="middle" x="361.74" y="-570.74" font-family="monospace" font-size="14.00" fill="#000000">ceph&#45;common</text>
</g>
<!-- ceph&#45;selinux -->
<g id="node3" class="node">
<title>ceph&#45;selinux</title>
<text text-anchor="middle" x="400.53" y="-308.58" font-family="monospace" font-size="14.00" fill="#000000">ceph&#45;selinux</text>
</g>
<!-- cryptsetup -->
<g id="node4" class="node">
<title>cryptsetup</title>
<text text-anchor="middle" x="548.37" y="-305.4" font-family="monospace" font-size="14.00" fill="#000000">cryptsetup</text>
</g>
<!-- libcephfs2 -->
<g id="node5" class="node">
<title>libcephfs2</title>
<text text-anchor="middle" x="321.05" y="-416.12" font-family="monospace" font-size="14.00" fill="#000000">libcephfs2</text>
</g>
<!-- librados2 -->
<g id="node6" class="node">
<title>librados2</title>
<text text-anchor="middle" x="407.23" y="-526.71" font-family="monospace" font-size="14.00" fill="#000000">librados2</text>
</g>
<!-- librbd1 -->
<g id="node7" class="node">
<title>librbd1</title>
<text text-anchor="middle" x="383.74" y="-614.75" font-family="monospace" font-size="14.00" fill="#000000">librbd1</text>
</g>
<!-- librgw2 -->
<g id="node8" class="node">
<title>librgw2</title>
<text text-anchor="middle" x="441.51" y="-382.7" font-family="monospace" font-size="14.00" fill="#000000">librgw2</text>
</g>
<!-- lttng&#45;ust -->
<g id="node9" class="node">
<title>lttng&#45;ust</title>
<text text-anchor="middle" x="499.01" y="-651.58" font-family="monospace" font-size="14.00" fill="#000000">lttng&#45;ust</text>
</g>
<!-- gperftools&#45;libs -->
<g id="node10" class="node">
<title>gperftools&#45;libs</title>
<text text-anchor="middle" x="617.72" y="-553.97" font-family="monospace" font-size="14.00" fill="#000000">gperftools&#45;libs</text>
</g>
<!-- leveldb -->
<g id="node11" class="node">
<title>leveldb</title>
<text text-anchor="middle" x="614.36" y="-626.82" font-family="monospace" font-size="14.00" fill="#000000">leveldb</text>
</g>
<!-- libradosstriper1 -->
<g id="node12" class="node">
<title>libradosstriper1</title>
<text text-anchor="middle" x="332.53" y="-725.48" font-family="monospace" font-size="14.00" fill="#000000">libradosstriper1</text>
</g>
<!-- python2&#45;prettytable -->
<g id="node13" class="node">
<title>python2&#45;prettytable</title>
<text text-anchor="middle" x="112.44" y="-683.66" font-family="monospace" font-size="14.00" fill="#000000">python2&#45;prettytable</text>
</g>
<!-- python&#45;cephfs -->
<g id="node14" class="node">
<title>python&#45;cephfs</title>
<text text-anchor="middle" x="167.78" y="-438.71" font-family="monospace" font-size="14.00" fill="#000000">python&#45;cephfs</text>
</g>
<!-- python&#45;rados -->
<g id="node15" class="node">
<title>python&#45;rados</title>
<text text-anchor="middle" x="208.67" y="-575.21" font-family="monospace" font-size="14.00" fill="#000000">python&#45;rados</text>
</g>
<!-- python&#45;rbd -->
<g id="node16" class="node">
<title>python&#45;rbd</title>
<text text-anchor="middle" x="263.23" y="-639.63" font-family="monospace" font-size="14.00" fill="#000000">python&#45;rbd</text>
</g>
<!-- python&#45;rgw -->
<g id="node17" class="node">
<title>python&#45;rgw</title>
<text text-anchor="middle" x="275.71" y="-482.72" font-family="monospace" font-size="14.00" fill="#000000">python&#45;rgw</text>
</g>
<!-- ceph -->
<g id="node18" class="node">
<title>ceph</title>
<text text-anchor="middle" x="672.63" y="-498.44" font-family="monospace" font-size="14.00" fill="#000000">ceph</text>
</g>
<!-- ceph&#45;mds -->
<g id="node19" class="node">
<title>ceph&#45;mds</title>
<text text-anchor="middle" x="603.7" y="-421.51" font-family="monospace" font-size="14.00" fill="#000000">ceph&#45;mds</text>
</g>
<!-- ceph&#45;mgr -->
<g id="node20" class="node">
<title>ceph&#45;mgr</title>
<text text-anchor="middle" x="767.1" y="-479.78" font-family="monospace" font-size="14.00" fill="#000000">ceph&#45;mgr</text>
</g>
<!-- ceph&#45;mon -->
<g id="node21" class="node">
<title>ceph&#45;mon</title>
<text text-anchor="middle" x="726.03" y="-616.61" font-family="monospace" font-size="14.00" fill="#000000">ceph&#45;mon</text>
</g>
<!-- ceph&#45;osd -->
<g id="node22" class="node">
<title>ceph&#45;osd</title>
<text text-anchor="middle" x="551.58" y="-508.16" font-family="monospace" font-size="14.00" fill="#000000">ceph&#45;osd</text>
</g>
<!-- python2&#45;cherrypy -->
<g id="node23" class="node">
<title>python2&#45;cherrypy</title>
<text text-anchor="middle" x="735.13" y="-343.29" font-family="monospace" font-size="14.00" fill="#000000">python2&#45;cherrypy</text>
</g>
<!-- python2&#45;pecan -->
<g id="node24" class="node">
<title>python2&#45;pecan</title>
<text text-anchor="middle" x="1057.8" y="-457.57" font-family="monospace" font-size="14.00" fill="#000000">python2&#45;pecan</text>
</g>
<!-- python&#45;werkzeug -->
<g id="node25" class="node">
<title>python&#45;werkzeug</title>
<text text-anchor="middle" x="879.05" y="-611.45" font-family="monospace" font-size="14.00" fill="#000000">python&#45;werkzeug</text>
</g>
<!-- python2&#45;flask -->
<g id="node26" class="node">
<title>python2&#45;flask</title>
<text text-anchor="middle" x="846.89" y="-736.43" font-family="monospace" font-size="14.00" fill="#000000">python2&#45;flask</text>
</g>
<!-- python2&#45;mako -->
<g id="node27" class="node">
<title>python2&#45;mako</title>
<text text-anchor="middle" x="1241.7" y="-433.62" font-family="monospace" font-size="14.00" fill="#000000">python2&#45;mako</text>
</g>
<!-- python2&#45;logutils -->
<g id="node28" class="node">
<title>python2&#45;logutils</title>
<text text-anchor="middle" x="1192.1" y="-350.97" font-family="monospace" font-size="14.00" fill="#000000">python2&#45;logutils</text>
</g>
<!-- python2&#45;simplegeneric -->
<g id="node29" class="node">
<title>python2&#45;simplegeneric</title>
<text text-anchor="middle" x="963.64" y="-373.4" font-family="monospace" font-size="14.00" fill="#000000">python2&#45;simplegeneric</text>
</g>
<!-- python2&#45;singledispatch -->
<g id="node30" class="node">
<title>python2&#45;singledispatch</title>
<text text-anchor="middle" x="1046.1" y="-306.95" font-family="monospace" font-size="14.00" fill="#000000">python2&#45;singledispatch</text>
</g>
<!-- python2&#45;webob -->
<g id="node31" class="node">
<title>python2&#45;webob</title>
<text text-anchor="middle" x="1144.7" y="-532.18" font-family="monospace" font-size="14.00" fill="#000000">python2&#45;webob</text>
</g>
<!-- python2&#45;webtest -->
<g id="node32" class="node">
<title>python2&#45;webtest</title>
<text text-anchor="middle" x="1294.1" y="-576.19" font-family="monospace" font-size="14.00" fill="#000000">python2&#45;webtest</text>
</g>
<!-- python2&#45;click -->
<g id="node33" class="node">
<title>python2&#45;click</title>
<text text-anchor="middle" x="742.91" y="-882.11" font-family="monospace" font-size="14.00" fill="#000000">python2&#45;click</text>
</g>
<!-- python2&#45;itsdangerous -->
<g id="node34" class="node">
<title>python2&#45;itsdangerous</title>
<text text-anchor="middle" x="912.54" y="-838.02" font-family="monospace" font-size="14.00" fill="#000000">python2&#45;itsdangerous</text>
</g>
<!-- python2&#45;jinja2 -->
<g id="node35" class="node">
<title>python2&#45;jinja2</title>
<text text-anchor="middle" x="1023.9" y="-724.71" font-family="monospace" font-size="14.00" fill="#000000">python2&#45;jinja2</text>
</g>
<!-- python2&#45;beaker -->
<g id="node36" class="node">
<title>python2&#45;beaker</title>
<text text-anchor="middle" x="1385.4" y="-283.16" font-family="monospace" font-size="14.00" fill="#000000">python2&#45;beaker</text>
</g>
<!-- python2&#45;markupsafe -->
<g id="node37" class="node">
<title>python2&#45;markupsafe</title>
<text text-anchor="middle" x="1087.3" y="-612.6" font-family="monospace" font-size="14.00" fill="#000000">python2&#45;markupsafe</text>
</g>
<!-- python2&#45;beautifulsoup4 -->
<g id="node38" class="node">
<title>python2&#45;beautifulsoup4</title>
<text text-anchor="middle" x="1498.7" y="-658.44" font-family="monospace" font-size="14.00" fill="#000000">python2&#45;beautifulsoup4</text>
</g>
<!-- python2&#45;waitress -->
<g id="node39" class="node">
<title>python2&#45;waitress</title>
<text text-anchor="middle" x="1265" y="-689.04" font-family="monospace" font-size="14.00" fill="#000000">python2&#45;waitress</text>
</g>
<!-- python2&#45;babel -->
<g id="node40" class="node">
<title>python2&#45;babel</title>
<text text-anchor="middle" x="1119.8" y="-827.35" font-family="monospace" font-size="14.00" fill="#000000">python2&#45;babel</text>
</g>
<!-- pycryptopp -->
<g id="node41" class="node">
<title>pycryptopp</title>
<text text-anchor="middle" x="1524.5" y="-236.9" font-family="monospace" font-size="14.00" fill="#000000">pycryptopp</text>
</g>
<!-- cryptopp -->
<g id="node42" class="node">
<title>cryptopp</title>
<text text-anchor="middle" x="1633.6" y="-187.03" font-family="monospace" font-size="14.00" fill="#000000">cryptopp</text>
</g>
<!-- python2&#45;paste -->
<g id="node43" class="node">
<title>python2&#45;paste</title>
<text text-anchor="middle" x="1403.7" y="-134.24" font-family="monospace" font-size="14.00" fill="#000000">python2&#45;paste</text>
</g>
<!-- python2&#45;tempita -->
<g id="node44" class="node">
<title>python2&#45;tempita</title>
<text text-anchor="middle" x="1420.7" y="-14.3" font-family="monospace" font-size="14.00" fill="#000000">python2&#45;tempita</text>
</g>
<!-- python2&#45;lxml -->
<g id="node45" class="node">
<title>python2&#45;lxml</title>
<text text-anchor="middle" x="1590.9" y="-751.34" font-family="monospace" font-size="14.00" fill="#000000">python2&#45;lxml</text>
</g>
<!-- python2&#45;html5lib -->
<g id="node46" class="node">
<title>python2&#45;html5lib</title>
<text text-anchor="middle" x="1695.7" y="-859.27" font-family="monospace" font-size="14.00" fill="#000000">python2&#45;html5lib</text>
</g>
<!-- python2&#45;cssselect -->
<g id="node47" class="node">
<title>python2&#45;cssselect</title>
<text text-anchor="middle" x="1701" y="-707.3" font-family="monospace" font-size="14.00" fill="#000000">python2&#45;cssselect</text>
</g>
<!-- python2&#45;webencodings -->
<g id="node48" class="node">
<title>python2&#45;webencodings</title>
<text text-anchor="middle" x="1787.8" y="-932.28" font-family="monospace" font-size="14.00" fill="#000000">python2&#45;webencodings</text>
</g>
</g>
</svg>
