<?xml version="1.0" encoding="UTF-8" standalone="no"?>
<!DOCTYPE svg PUBLIC "-//W3C//DTD SVG 1.1//EN"
 "http://www.w3.org/Graphics/SVG/1.1/DTD/svg11.dtd">
<!-- Generated by graphviz version 2.40.1 (20161225.0304)
 -->
<!-- Title: G Pages: 1 -->
<svg width="1702pt" height="1018pt"
 viewBox="0.00 0.00 1702.00 1017.73" xmlns="http://www.w3.org/2000/svg" xmlns:xlink="http://www.w3.org/1999/xlink">
<g id="graph0" class="graph" transform="scale(1 1) rotate(0) translate(115.1123 898.3471)">
<title>G</title>
<polygon fill="#dae2ff" stroke="transparent" points="-115.1123,119.3875 -115.1123,-898.3471 1586.8885,-898.3471 1586.8885,119.3875 -115.1123,119.3875"/>
<polygon fill="#fed9a6" stroke="#fed9a6" points="1547.0515,-470.5832 1568.1735,-396.6859 1580.2078,-361.3345 1582.8885,-354.0073 1530.8792,-291.5639 1524.0475,-286.9862 1454.891,-247.1375 1445.7402,-243.4288 1430.318,-236.7755 1421.8622,-232.4728 1413.7964,-227.9426 1393.6719,-216.1056 1378.7946,-206.2084 1332.5164,-294.689 1319.8406,-322.9979 1231.0652,-310.2919 1228.3248,-307.1054 1224.0223,-305.8004 1223.2125,-305.2009 1220.8901,-305.2009 1216.5265,-331.4963 1212.4424,-304.8703 1209.2948,-304.8703 1205.1091,-336.0075 1204.6469,-402.6938 1205.0343,-402.719 1205.0343,-402.719 1204.6469,-402.6938 1205.1091,-336.0075 1209.2948,-304.8703 1208.7485,-304.6948 1202.1697,-214.2165 1201.1245,-186.6213 1201.1139,-185.7231 1190.636,-300.0235 1196.4185,-303.7219 1197.257,-304.8228 1190.4142,-309.4011 1185.2686,-309.4011 1180.567,-306.5711 1179.1075,-304.6727 1173.6973,-304.6727 1173.6798,-304.6671 1168.6792,-304.6671 1165.9764,-367.0603 1162.0526,-304.773 1156.5447,-304.773 1156.5095,-304.784 1152.1586,-304.784 1152.1586,-304.784 1156.5095,-304.784 1156.5447,-304.773 1162.0526,-304.773 1165.9764,-367.0603 1168.6792,-304.6671 1173.6798,-304.6671 1173.6973,-304.6727 1179.1075,-304.6727 1180.567,-306.5711 1185.2686,-309.4011 1190.4142,-309.4011 1197.257,-304.8228 1196.4185,-303.7219 1190.636,-300.0235 1201.1139,-185.7231 1201.1245,-186.6213 1202.1697,-214.2165 1208.7485,-304.6948 1209.2948,-304.8703 1212.4424,-304.8703 1216.5265,-331.4963 1220.8901,-305.2009 1223.2125,-305.2009 1224.0223,-305.8004 1228.3248,-307.1054 1231.0652,-310.2919 1319.8406,-322.9979 1332.5164,-294.689 1378.7946,-206.2084 1365.1093,-177.7097 1268.9806,-163.6513 1259.6887,-162.4932 1251.6272,-162.0099 1240.135,-161.5688 1228.3234,-168.1937 1226.5685,-238.9658 1226.5685,-238.9658 1228.3234,-168.1937 1207.0121,-178.3376 1201.181,-180.9415 1183.5747,-186.7955 1174.3369,-189.6007 1168.7913,-190.9648 1160.741,-192.7146 1146.7317,-194.9583 1119.1396,-197.7932 1118.3418,-197.898 1099.5844,-223.7098 1013.9371,-207.3166 1011.5181,-204.427 1007.7538,-203.2617 1005.7889,-201.7309 1003.3268,-201.7309 1003.3268,-201.7309 1005.7889,-201.7309 1007.7538,-203.2617 1011.5181,-204.427 1013.9371,-207.3166 1099.5844,-223.7098 1118.3418,-197.898 1111.9626,-192.0515 1109.6874,-190.0882 1109.0334,-189.4455 1092.2034,-174.8289 1087.4475,-170.995 1086.6624,-170.4103 1084.6125,-169.0038 1070.4385,-160.0806 1066.2582,-157.7056 1060.3043,-155.0246 1048.9618,-150.5752 1045.9172,-149.5648 1039.1658,-147.7249 1032.9661,-146.4052 1012.902,-143.3309 1012.3514,-143.2139 996.9849,-139.0154 995.3405,-138.3734 986.4272,-134.3456 976.9124,-129.4727 976.7935,-174.1683 973.0743,-198.2553 976.9734,-202.143 974.0137,-204.9605 974.0137,-204.9605 976.9734,-202.143 973.0743,-198.2553 976.7935,-174.1683 976.9124,-129.4727 962.8405,-120.583 957.422,-116.8529 957.4087,-116.8422 949.9007,-110.325 948.7328,-109.3849 941.9304,-103.515 941.5415,-88.687 940.0157,-63.3275 940.0107,-63.2735 934.1132,36.5523 882.6423,42.0059 850.3195,38.9557 847.2088,38.7353 831.5092,37.9922 820.0759,37.9902 824.3079,-94.1623 818.1534,-98.2812 817.7781,-98.7836 818.3114,-99.4921 823.7743,-103.0762 823.7743,-103.0762 818.3114,-99.4921 817.7781,-98.7836 818.1534,-98.2812 824.3079,-94.1623 820.0759,37.9902 818.1304,38.0357 809.3266,38.4488 793.0825,39.976 784.4901,38.6492 733.6754,21.1074 628.571,-34.6259 606.243,-62.2851 596.3429,-74.1729 609.6517,-116.7181 612.8395,-128.1434 587.6146,-202.1204 584.9111,-211.2468 612.8134,-307.23 618.6541,-339.2026 624.155,-364.245 649.5408,-451.5719 709.4327,-450.8308 710.5806,-450.7661 710.2584,-420.7956 708.5993,-377.1686 708.5993,-377.1686 710.2584,-420.7956 710.5806,-450.7661 713.483,-450.7876 720.2585,-450.9818 728.9807,-450.8485 729.0961,-359.918 732.6124,-307.1468 734.2123,-307.1468 737.1209,-304.463 743.4066,-302.4063 749.5344,-304.4261 752.4272,-307.177 754.1726,-307.177 756.8634,-274.3656 762.0129,-307.1787 764.9559,-307.1787 765.4194,-307.3267 769.1233,-343.8663 772.9991,-307.3267 773.0994,-307.2947 776.7183,-307.2947 776.7183,-307.2947 773.0994,-307.2947 772.9991,-307.3267 769.1233,-343.8663 765.4194,-307.3267 764.9559,-307.1787 762.0129,-307.1787 756.8634,-274.3656 754.1726,-307.177 752.4272,-307.177 749.5344,-304.4261 743.4066,-302.4063 737.1209,-304.463 734.2123,-307.1468 732.6124,-307.1468 729.0961,-359.918 728.9807,-450.8485 720.2585,-450.9818 721.1009,-533.5507 718.2654,-594.4958 718.7066,-594.6444 724.2784,-594.6444 724.6395,-595.1282 730.7205,-599.1865 736.5452,-599.1865 734.2,-684.5489 747.6017,-677.1418 748.4695,-676.7067 755.389,-673.5811 755.389,-673.5811 748.4695,-676.7067 747.6017,-677.1418 734.2,-684.5489 736.5452,-599.1865 730.7205,-599.1865 724.6395,-595.1282 724.2784,-594.6444 718.7066,-594.6444 718.2654,-594.4958 721.1009,-533.5507 720.2585,-450.9818 713.483,-450.7876 710.5806,-450.7661 709.4327,-450.8308 709.6909,-544.9976 709.6909,-544.9976 709.4327,-450.8308 649.5408,-451.5719 544.2059,-532.6048 537.5245,-537.9327 530.5804,-567.8085 526.1343,-584.3121 552.9092,-642.0504 589.899,-726.1805 596.9544,-741.477 602.4474,-752.3836 632.6628,-762.1965 679.9286,-813.6108 723.2425,-846.8669 773.0325,-871.5831 794.8592,-873.7647 809.8115,-870.7824 818.4508,-869.2538 817.627,-814.8168 817.627,-814.8168 818.4508,-869.2538 819.7242,-869.0858 847.9547,-866.621 842.6834,-792.0363 842.6834,-792.0363 847.9547,-866.621 849.6063,-866.5514 852.0341,-866.5035 857.8986,-866.5193 866.3331,-866.7313 879.3602,-867.6435 881.577,-867.8483 888.8625,-868.8492 890.7955,-869.1584 910.7325,-872.7997 931.1587,-877.4431 971.1718,-872.653 980.7,-875.4177 1019.8886,-874.0861 1036.2211,-873.8744 1044.6837,-873.943 1049.9043,-874.2049 1050.6348,-730.1207 1050.4961,-730.0767 1051.2656,-656.5792 1047.9332,-656.4228 1046.9983,-656.3377 1047.275,-640.7858 1044.9601,-582.9119 1039.8444,-582.9119 1038.2858,-650.5947 1033.3312,-583.1302 1029.108,-583.1302 1025.3545,-623.6201 1022.2681,-587.5002 1017.2849,-587.5002 1011.0004,-583.3774 1010.7282,-583.0283 1005.6871,-583.0283 1005.5214,-583.0819 1000.5175,-583.0819 996.6896,-642.0786 993.8709,-582.8536 993.8548,-582.8485 988.8394,-582.8485 988.0946,-583.0865 988.0946,-583.0865 988.8394,-582.8485 993.8548,-582.8485 993.8709,-582.8536 996.6896,-642.0786 1000.5175,-583.0819 1005.5214,-583.0819 1005.6871,-583.0283 1010.7282,-583.0283 1011.0004,-583.3774 1017.2849,-587.5002 1022.2681,-587.5002 1028.9547,-583.0802 1027.6403,-581.3829 1023.0264,-578.5663 1023.0264,-578.5663 1027.6403,-581.3829 1028.9547,-583.0802 1022.2681,-587.5002 1025.3545,-623.6201 1029.108,-583.1302 1033.3312,-583.1302 1038.2858,-650.5947 1039.8444,-582.9119 1044.9601,-582.9119 1047.275,-640.7858 1046.9983,-656.3377 1047.9332,-656.4228 1051.2656,-656.5792 1050.4961,-730.0767 1050.6348,-730.1207 1049.9043,-874.2049 1059.4802,-874.8869 1059.2166,-782.3884 1062.4869,-729.863 1062.4379,-729.8475 1058.2788,-656.636 1066.7605,-656.2874 1065.825,-618.9606 1068.2076,-588.9612 1063.6187,-584.2571 1085.8666,-579.9449 1140.5255,-579.8539 1135.2463,-573.9471 1135.2463,-573.9471 1140.5255,-579.8539 1085.8666,-579.9449 1063.6187,-584.2571 1068.2076,-588.9612 1065.825,-618.9606 1066.7605,-656.2874 1058.2788,-656.636 1062.4379,-729.8475 1062.4869,-729.863 1059.2166,-782.3884 1059.4802,-874.8869 1062.6759,-875.2489 1070.5913,-876.313 1084.2653,-878.4399 1084.4531,-801.1912 1078.5428,-734.6798 1084.5424,-730.8218 1085.4178,-729.6903 1084.6372,-728.7518 1079.1721,-725.4589 1079.1721,-725.4589 1084.6372,-728.7518 1085.4178,-729.6903 1084.5424,-730.8218 1078.5428,-734.6798 1084.4531,-801.1912 1084.2653,-878.4399 1103.2449,-882.592 1110.2651,-884.4211 1132.9481,-891.7715 1140.42,-894.3471 1201.8412,-865.1942 1255.9203,-785.0305 1257.3646,-773.1261 1266.9338,-707.0947 1273.5779,-671.9937 1271.514,-661.1788 1372.1874,-534.3219 1373.2761,-534.1611 1394.3334,-525.7869 1406.1493,-521.9893 1415.2877,-519.285 1424.7927,-516.7163 1440.3903,-513.3027 1497.8391,-505.1567 1547.0515,-470.5832 1547.0515,-470.5832"/>
<polygon fill="#ccebc5" stroke="#ccebc5" points="-111.1123,-431.0457 -104.1566,-441.8073 -45.8771,-541.1862 40.9475,-567.9 41.5187,-568.1158 61.6779,-569.4614 67.4932,-569.9706 66.4083,-529.1964 60.3676,-420.5369 66.6567,-424.7168 72.3391,-424.7168 78.8866,-420.3021 72.2266,-415.861 66.7364,-415.861 66.7364,-415.861 72.2266,-415.861 78.8866,-420.3021 72.3391,-424.7168 66.6567,-424.7168 60.3676,-420.5369 66.4083,-529.1964 67.4932,-569.9706 69.1559,-570.1855 90.4441,-573.8317 105.7121,-577.4036 173.1765,-594.5865 182.4141,-608.2913 176.924,-683.4589 190.1084,-734.3479 191.3467,-740.2845 198.6651,-780.1767 237.7038,-855.8325 253.6782,-868.8551 316.187,-863.9815 318.226,-813.0016 318.226,-813.0016 316.187,-863.9815 335.7201,-863.3916 344.207,-863.5418 345.5194,-863.6278 361.524,-865.0612 361.101,-818.7333 363.4259,-739.7073 368.7825,-741.341 368.7825,-741.341 363.4259,-739.7073 361.101,-818.7333 361.524,-865.0612 369.2727,-866.1259 389.135,-869.8094 392.7575,-870.6529 394.3984,-870.4425 394.3528,-812.9796 394.3528,-812.9796 394.3984,-870.4425 399.7622,-869.9991 409.0827,-869.4406 417.1243,-869.142 416.9385,-776.5277 416.9385,-776.5277 417.1243,-869.142 476.8214,-869.6462 602.4474,-752.3836 596.9544,-741.477 589.899,-726.1805 552.9092,-642.0504 526.1343,-584.3121 530.5804,-567.8085 537.5245,-537.9327 544.2059,-532.6048 649.5408,-451.5719 624.155,-364.245 618.6541,-339.2026 612.8134,-307.23 584.9111,-211.2468 587.6146,-202.1204 612.8395,-128.1434 609.6517,-116.7181 596.3429,-74.1729 498.7112,-45.3771 452.476,5.3278 431.7491,24.993 330.8134,50.1513 312.9337,55.0745 308.1129,56.5244 300.6074,59.1665 299.6474,58.9273 295.2425,57.9355 294.1299,-74.5436 297.3807,-77.6524 293.8434,-81.1117 298.3451,-157.5406 298.3963,-160.4026 281.8509,-168.8519 277.0175,-171.7666 276.4723,-172.1212 280.9196,-203.7805 356.7496,-212.6062 359.8183,-215.7249 361.6847,-216.2834 364.9541,-176.5541 364.7617,-141.8152 379.6493,-136.3548 396.176,-127.974 401.9054,-124.5416 419.998,-111.9675 421.6517,-110.5868 436.9503,-98.6144 434.8546,-171.3021 434.8546,-171.3021 436.9503,-98.6144 421.6517,-110.5868 419.998,-111.9675 401.9054,-124.5416 403.9922,-178.546 402.0037,-214.9876 396.7676,-213.3204 390.2097,-215.4697 387.3332,-218.1157 390.9299,-221.4923 396.1825,-223.1258 399.9405,-259.9022 400.536,-299.4375 390.2222,-291.721 382.7305,-286.6186 380.0906,-285.0009 373.2512,-281.2609 367.8936,-278.6888 366.4472,-278.0905 353.4797,-273.5633 323.2331,-265.0614 326.7553,-316.3611 403.5599,-313.1347 400.8914,-326.7366 399.1008,-342.9909 391.1224,-383.2459 472.2439,-360.6974 474.6131,-357.5159 474.6131,-357.5159 472.2439,-360.6974 391.1224,-383.2459 399.1008,-342.9909 400.8914,-326.7366 403.5599,-313.1347 326.7553,-316.3611 323.2331,-265.0614 353.4797,-273.5633 366.4472,-278.0905 367.8936,-278.6888 373.2512,-281.2609 380.0906,-285.0009 382.7305,-286.6186 390.2222,-291.721 400.536,-299.4375 399.9405,-259.9022 396.1825,-223.1258 390.9299,-221.4923 387.3332,-218.1157 390.2097,-215.4697 396.7676,-213.3204 402.0037,-214.9876 403.9922,-178.546 401.9054,-124.5416 396.176,-127.974 379.6493,-136.3548 364.7617,-141.8152 364.9541,-176.5541 361.6847,-216.2834 359.8183,-215.7249 356.7496,-212.6062 280.9196,-203.7805 276.4723,-172.1212 277.0175,-171.7666 281.8509,-168.8519 298.3963,-160.4026 298.3451,-157.5406 293.8434,-81.1117 288.7482,-82.7112 288.7482,-82.7112 293.8434,-81.1117 297.3807,-77.6524 294.1299,-74.5436 295.2425,57.9355 286.0774,56.0914 280.1122,55.0348 269.3662,53.6465 255.5637,52.525 253.3394,52.3977 253.2034,52.3573 215.7971,42.2135 164.338,19.753 141.6929,-19.4251 133.7679,-43.4914 127.0328,-62.296 120.0207,-96.5558 119.5199,-98.5331 49.7951,-142.1873 9.29,-230.3205 3.6092,-241.9532 99.4678,-241.3042 140.0983,-244.2546 145.5576,-239.5835 146.3987,-238.0479 151.3322,-238.0479 153.188,-311.2144 157.948,-238.2062 162.3498,-238.2062 162.5442,-238.2693 166.0374,-238.2693 169.4865,-241.6238 174.4954,-243.1551 180.5576,-241.2275 183.9298,-238.01 180.9698,-235.2104 180.9698,-235.2104 183.9298,-238.01 186.4809,-238.01 186.5367,-237.9924 191.4857,-237.9924 194.916,-284.0445 194.7708,-321.4988 204.9482,-312.5844 207.9413,-309.4298 207.9461,-309.4253 207.9461,-309.4253 207.9413,-309.4298 204.9482,-312.5844 247.4652,-316.9511 273.1216,-316.1577 279.0569,-322.2805 279.2367,-322.2805 279.4494,-322.3537 285.2719,-322.3537 286.1428,-322.6496 290.4705,-322.6496 290.6119,-322.6023 296.5716,-326.4968 296.5716,-326.4968 290.6119,-322.6023 290.4705,-322.6496 286.1428,-322.6496 285.2719,-322.3537 279.4494,-322.3537 279.2367,-322.2805 279.0569,-322.2805 273.1216,-316.1577 247.4652,-316.9511 204.9482,-312.5844 194.7708,-321.4988 194.916,-284.0445 191.4857,-237.9924 186.5367,-237.9924 186.4809,-238.01 183.9298,-238.01 180.5576,-241.2275 174.4954,-243.1551 169.4865,-241.6238 166.0374,-238.2693 162.5442,-238.2693 162.3498,-238.2062 157.948,-238.2062 153.188,-311.2144 151.3322,-238.0479 146.3987,-238.0479 145.5576,-239.5835 140.0983,-244.2546 99.4678,-241.3042 3.6092,-241.9532 -6.9587,-261.3333 -8.3664,-270.5003 -110.5916,-356.8983 -110.4319,-375.7583 -111.1123,-431.0457 -111.1123,-431.0457"/>
<polygon fill="#fbb4ae" stroke="#fbb4ae" points="1423.5599,-3.5321 1415.3412,6.2159 1327.1732,115.3875 1274.9495,108.8742 1268.1976,108.2005 1255.5396,107.2538 1255.5864,15.2304 1251.6323,-17.8395 1247.4865,-17.8395 1244.0255,35.6667 1240.7211,-14.504 1244.4926,-18.1287 1241.8849,-20.5656 1241.8849,-20.5656 1244.4926,-18.1287 1240.7211,-14.504 1235.614,-12.9341 1235.614,-12.9341 1240.7211,-14.504 1244.0255,35.6667 1247.4865,-17.8395 1251.6323,-17.8395 1255.5864,15.2304 1255.5396,107.2538 1244.0676,106.9713 1229.5385,107.3424 1215.0769,108.7999 1212.396,109.1372 1201.775,110.7396 1198.5428,111.3077 1194.1791,112.1837 1142.1361,105.8527 1084.0221,47.9888 1073.9133,45.9193 1058.8009,43.537 1043.1959,41.816 1037.9365,41.4853 939.8502,39.9466 934.1132,36.5523 940.0107,-63.2735 940.0157,-63.3275 941.5415,-88.687 941.9304,-103.515 948.7328,-109.3849 949.9007,-110.325 957.4087,-116.8422 957.422,-116.8529 962.8405,-120.583 976.9124,-129.4727 986.4272,-134.3456 995.3405,-138.3734 996.9849,-139.0154 1012.3514,-143.2139 1012.902,-143.3309 1032.9661,-146.4052 1039.1658,-147.7249 1045.9172,-149.5648 1048.9618,-150.5752 1060.3043,-155.0246 1066.2582,-157.7056 1070.4385,-160.0806 1084.6125,-169.0038 1086.6624,-170.4103 1087.4475,-170.995 1092.2034,-174.8289 1109.0334,-189.4455 1106.5824,-129.9274 1108.479,-88.0194 1108.2832,-87.9564 1108.2832,-87.9564 1108.479,-88.0194 1106.5824,-129.9274 1109.0334,-189.4455 1109.6874,-190.0882 1111.9626,-192.0515 1118.3418,-197.898 1119.1396,-197.7932 1146.7317,-194.9583 1160.741,-192.7146 1168.7913,-190.9648 1174.3369,-189.6007 1183.5747,-186.7955 1201.181,-180.9415 1207.0121,-178.3376 1228.3234,-168.1937 1240.135,-161.5688 1251.6272,-162.0099 1259.6887,-162.4932 1268.9806,-163.6513 1365.1093,-177.7097 1403.7009,-93.4042 1416.9813,-30.2132 1423.4293,-4.8447 1423.5599,-3.5321 1423.5599,-3.5321"/>
<polyline fill="none" stroke="#000000" points="941.9304,-103.515 941.5415,-88.687 940.0157,-63.3275 940.0107,-63.2735 934.1132,36.5523 882.6423,42.0059 850.3195,38.9557 847.2088,38.7353 831.5092,37.9922 820.0759,37.9902 818.1304,38.0357 809.3266,38.4488 793.0825,39.976 784.4901,38.6492 733.6754,21.1074 628.571,-34.6259 606.243,-62.2851 596.3429,-74.1729 609.6517,-116.7181 612.8395,-128.1434 587.6146,-202.1204 584.9111,-211.2468 612.8134,-307.23 618.6541,-339.2026 624.155,-364.245 649.5408,-451.5719 544.2059,-532.6048 537.5245,-537.9327 530.5804,-567.8085 526.1343,-584.3121 552.9092,-642.0504 589.899,-726.1805 596.9544,-741.477 602.4474,-752.3836 632.6628,-762.1965 679.9286,-813.6108 723.2425,-846.8669 773.0325,-871.5831 794.8592,-873.7647 809.8115,-870.7824 818.4508,-869.2538 819.7242,-869.0858 847.9547,-866.621 849.6063,-866.5514 852.0341,-866.5035 857.8986,-866.5193 866.3331,-866.7313 879.3602,-867.6435 881.577,-867.8483 888.8625,-868.8492 890.7955,-869.1584 910.7325,-872.7997 931.1587,-877.4431 971.1718,-872.653 980.7,-875.4177 1019.8886,-874.0861 1036.2211,-873.8744 1044.6837,-873.943 1049.9043,-874.2049 1059.4802,-874.8869 1062.6759,-875.2489 1070.5913,-876.313 1084.2653,-878.4399 1103.2449,-882.592 1110.2651,-884.4211 1132.9481,-891.7715 1140.42,-894.3471 1201.8412,-865.1942 1255.9203,-785.0305 1257.3646,-773.1261 1266.9338,-707.0947 1273.5779,-671.9937 1271.514,-661.1788 1372.1874,-534.3219 1373.2761,-534.1611 1394.3334,-525.7869 1406.1493,-521.9893 1415.2877,-519.285 1424.7927,-516.7163 1440.3903,-513.3027 1497.8391,-505.1567 1547.0515,-470.5832 1568.1735,-396.6859 1580.2078,-361.3345 1582.8885,-354.0073 1530.8792,-291.5639 1524.0475,-286.9862 1454.891,-247.1375 1445.7402,-243.4288 1430.318,-236.7755 1421.8622,-232.4728 1413.7964,-227.9426 1393.6719,-216.1056 1378.7946,-206.2084 1365.1093,-177.7097 1268.9806,-163.6513 1259.6887,-162.4932 1251.6272,-162.0099 1240.135,-161.5688 1228.3234,-168.1937 1207.0121,-178.3376 1201.181,-180.9415 1183.5747,-186.7955 1174.3369,-189.6007 1168.7913,-190.9648 1160.741,-192.7146 1146.7317,-194.9583 1119.1396,-197.7932 1118.3418,-197.898 1111.9626,-192.0515 1109.6874,-190.0882 1109.0334,-189.4455 1092.2034,-174.8289 1087.4475,-170.995 1086.6624,-170.4103 1084.6125,-169.0038 1070.4385,-160.0806 1066.2582,-157.7056 1060.3043,-155.0246 1048.9618,-150.5752 1045.9172,-149.5648 1039.1658,-147.7249 1032.9661,-146.4052 1012.902,-143.3309 1012.3514,-143.2139 996.9849,-139.0154 995.3405,-138.3734 986.4272,-134.3456 976.9124,-129.4727 962.8405,-120.583 957.422,-116.8529 957.4087,-116.8422 949.9007,-110.325 948.7328,-109.3849 941.9304,-103.515 "/>
<polyline fill="none" stroke="#000000" points="544.2059,-532.6048 649.5408,-451.5719 624.155,-364.245 618.6541,-339.2026 612.8134,-307.23 584.9111,-211.2468 587.6146,-202.1204 612.8395,-128.1434 609.6517,-116.7181 596.3429,-74.1729 498.7112,-45.3771 452.476,5.3278 431.7491,24.993 330.8134,50.1513 312.9337,55.0745 308.1129,56.5244 300.6074,59.1665 299.6474,58.9273 295.2425,57.9355 286.0774,56.0914 280.1122,55.0348 269.3662,53.6465 255.5637,52.525 253.3394,52.3977 253.2034,52.3573 215.7971,42.2135 164.338,19.753 141.6929,-19.4251 133.7679,-43.4914 127.0328,-62.296 120.0207,-96.5558 119.5199,-98.5331 49.7951,-142.1873 9.29,-230.3205 3.6092,-241.9532 -6.9587,-261.3333 -8.3664,-270.5003 -110.5916,-356.8983 -110.4319,-375.7583 -111.1123,-431.0457 -104.1566,-441.8073 -45.8771,-541.1862 40.9475,-567.9 41.5187,-568.1158 61.6779,-569.4614 67.4932,-569.9706 69.1559,-570.1855 90.4441,-573.8317 105.7121,-577.4036 173.1765,-594.5865 182.4141,-608.2913 176.924,-683.4589 190.1084,-734.3479 191.3467,-740.2845 198.6651,-780.1767 237.7038,-855.8325 253.6782,-868.8551 316.187,-863.9815 335.7201,-863.3916 344.207,-863.5418 345.5194,-863.6278 361.524,-865.0612 369.2727,-866.1259 389.135,-869.8094 392.7575,-870.6529 394.3984,-870.4425 399.7622,-869.9991 409.0827,-869.4406 417.1243,-869.142 476.8214,-869.6462 602.4474,-752.3836 596.9544,-741.477 589.899,-726.1805 552.9092,-642.0504 526.1343,-584.3121 530.5804,-567.8085 537.5245,-537.9327 544.2059,-532.6048 "/>
<polyline fill="none" stroke="#000000" points="1066.2582,-157.7056 1060.3043,-155.0246 1048.9618,-150.5752 1045.9172,-149.5648 1039.1658,-147.7249 1032.9661,-146.4052 1012.902,-143.3309 1012.3514,-143.2139 996.9849,-139.0154 995.3405,-138.3734 986.4272,-134.3456 976.9124,-129.4727 962.8405,-120.583 957.422,-116.8529 957.4087,-116.8422 949.9007,-110.325 948.7328,-109.3849 941.9304,-103.515 941.5415,-88.687 940.0157,-63.3275 940.0107,-63.2735 934.1132,36.5523 939.8502,39.9466 1037.9365,41.4853 1043.1959,41.816 1058.8009,43.537 1073.9133,45.9193 1084.0221,47.9888 1142.1361,105.8527 1194.1791,112.1837 1198.5428,111.3077 1201.775,110.7396 1212.396,109.1372 1215.0769,108.7999 1229.5385,107.3424 1244.0676,106.9713 1255.5396,107.2538 1268.1976,108.2005 1274.9495,108.8742 1327.1732,115.3875 1415.3412,6.2159 1423.5599,-3.5321 1423.4293,-4.8447 1416.9813,-30.2132 1403.7009,-93.4042 1365.1093,-177.7097 1268.9806,-163.6513 1259.6887,-162.4932 1251.6272,-162.0099 1240.135,-161.5688 1228.3234,-168.1937 1207.0121,-178.3376 1201.181,-180.9415 1183.5747,-186.7955 1174.3369,-189.6007 1168.7913,-190.9648 1160.741,-192.7146 1146.7317,-194.9583 1119.1396,-197.7932 1118.3418,-197.898 1111.9626,-192.0515 1109.6874,-190.0882 1109.0334,-189.4455 1092.2034,-174.8289 1087.4475,-170.995 1086.6624,-170.4103 1084.6125,-169.0038 1070.4385,-160.0806 1066.2582,-157.7056 "/>
<!-- 389&#45;ds&#45;base&#45;&gt;389&#45;ds&#45;base&#45;libs -->
<g id="edge1" class="edge">
<title>389&#45;ds&#45;base&#45;&gt;389&#45;ds&#45;base&#45;libs</title>
<path fill="none" stroke="#444444" stroke-opacity="0.333333" d="M921.8832,-392.5209C930.7466,-356.0504 950.766,-273.676 961.3475,-230.1362"/>
<polygon fill="#444444" fill-opacity="0.333333" stroke="#444444" stroke-opacity="0.333333" points="964.8002,-230.7495 963.7609,-220.2058 957.9982,-229.0964 964.8002,-230.7495"/>
</g>
<!-- 389&#45;ds&#45;base&#45;&gt;bind&#45;utils -->
<g id="edge2" class="edge">
<title>389&#45;ds&#45;base&#45;&gt;bind&#45;utils</title>
<path fill="none" stroke="#444444" stroke-opacity="0.333333" d="M847.8878,-401.4726C772.7866,-391.5348 653.6099,-375.7648 576.5419,-365.5668"/>
<polygon fill="#444444" fill-opacity="0.333333" stroke="#444444" stroke-opacity="0.333333" points="576.7965,-362.0701 566.4237,-364.2279 575.8781,-369.0096 576.7965,-362.0701"/>
</g>
<!-- 389&#45;ds&#45;base&#45;&gt;cyrus&#45;sasl&#45;gssapi -->
<g id="edge3" class="edge">
<title>389&#45;ds&#45;base&#45;&gt;cyrus&#45;sasl&#45;gssapi</title>
<path fill="none" stroke="#444444" stroke-opacity="0.333333" d="M928.2277,-428.7924C946.2688,-459.1677 982.7123,-520.5266 1003.778,-555.9942"/>
<polygon fill="#444444" fill-opacity="0.333333" stroke="#444444" stroke-opacity="0.333333" points="1000.917,-558.0312 1009.0329,-564.8417 1006.9355,-554.4566 1000.917,-558.0312"/>
</g>
<!-- 389&#45;ds&#45;base&#45;&gt;cyrus&#45;sasl&#45;md5 -->
<g id="edge4" class="edge">
<title>389&#45;ds&#45;base&#45;&gt;cyrus&#45;sasl&#45;md5</title>
<path fill="none" stroke="#444444" stroke-opacity="0.333333" d="M887.158,-392.6604C858.2647,-375.4841 814.5972,-349.525 782.9826,-330.731"/>
<polygon fill="#444444" fill-opacity="0.333333" stroke="#444444" stroke-opacity="0.333333" points="784.3828,-327.4917 773.9985,-325.3902 780.8058,-333.5088 784.3828,-327.4917"/>
</g>
<!-- 389&#45;ds&#45;base&#45;&gt;gperftools&#45;libs -->
<g id="edge5" class="edge">
<title>389&#45;ds&#45;base&#45;&gt;gperftools&#45;libs</title>
<path fill="none" stroke="#444444" stroke-opacity="0.333333" d="M963.7025,-392.5869C1010.5226,-374.2639 1082.9523,-345.9186 1132.8121,-326.406"/>
<polygon fill="#444444" fill-opacity="0.333333" stroke="#444444" stroke-opacity="0.333333" points="1134.1214,-329.6522 1142.1582,-322.7484 1131.5703,-323.1336 1134.1214,-329.6522"/>
</g>
<!-- 389&#45;ds&#45;base&#45;&gt;libsemanage&#45;python -->
<g id="edge6" class="edge">
<title>389&#45;ds&#45;base&#45;&gt;libsemanage&#45;python</title>
<path fill="none" stroke="#444444" stroke-opacity="0.333333" d="M914.1498,-428.8796C904.3974,-482.3372 875.7851,-639.1757 864.0018,-703.7659"/>
<polygon fill="#444444" fill-opacity="0.333333" stroke="#444444" stroke-opacity="0.333333" points="860.5481,-703.1958 862.1964,-713.6617 867.4344,-704.4522 860.5481,-703.1958"/>
</g>
<!-- 389&#45;ds&#45;base&#45;&gt;svrcore -->
<g id="edge7" class="edge">
<title>389&#45;ds&#45;base&#45;&gt;svrcore</title>
<path fill="none" stroke="#444444" stroke-opacity="0.333333" d="M912.2248,-392.5611C897.1066,-340.3372 853.3674,-189.2457 835.2142,-126.5378"/>
<polygon fill="#444444" fill-opacity="0.333333" stroke="#444444" stroke-opacity="0.333333" points="838.5724,-125.5513 832.4297,-116.919 831.8485,-127.4978 838.5724,-125.5513"/>
</g>
<!-- 389&#45;ds&#45;base&#45;&gt;nss&#45;tools -->
<g id="edge8" class="edge">
<title>389&#45;ds&#45;base&#45;&gt;nss&#45;tools</title>
<path fill="none" stroke="#444444" stroke-opacity="0.333333" d="M899.1537,-428.9883C866.2249,-461.9028 796.9532,-531.1444 759.2452,-568.836"/>
<polygon fill="#444444" fill-opacity="0.333333" stroke="#444444" stroke-opacity="0.333333" points="756.3005,-566.8307 751.7022,-576.3757 761.2492,-571.7816 756.3005,-566.8307"/>
</g>
<!-- 389&#45;ds&#45;base&#45;&gt;openldap&#45;clients -->
<g id="edge9" class="edge">
<title>389&#45;ds&#45;base&#45;&gt;openldap&#45;clients</title>
<path fill="none" stroke="#444444" stroke-opacity="0.333333" d="M971.3271,-428.7564C1014.8074,-443.35 1076.0752,-463.9137 1121.8974,-479.2933"/>
<polygon fill="#444444" fill-opacity="0.333333" stroke="#444444" stroke-opacity="0.333333" points="1120.835,-482.6286 1131.429,-482.4925 1123.0624,-475.9924 1120.835,-482.6286"/>
</g>
<!-- 389&#45;ds&#45;base&#45;&gt;perl&#45;Mozilla&#45;LDAP -->
<g id="edge10" class="edge">
<title>389&#45;ds&#45;base&#45;&gt;perl&#45;Mozilla&#45;LDAP</title>
<path fill="none" stroke="#444444" stroke-opacity="0.333333" d="M926.4531,-428.7641C952.9481,-482.1014 1030.8926,-639.0123 1062.5264,-702.6948"/>
<polygon fill="#444444" fill-opacity="0.333333" stroke="#444444" stroke-opacity="0.333333" points="1059.4353,-704.3396 1067.0188,-711.7384 1065.7045,-701.2254 1059.4353,-704.3396"/>
</g>
<!-- 389&#45;ds&#45;base&#45;&gt;perl&#45;NetAddr&#45;IP -->
<g id="edge11" class="edge">
<title>389&#45;ds&#45;base&#45;&gt;perl&#45;NetAddr&#45;IP</title>
<path fill="none" stroke="#444444" stroke-opacity="0.333333" d="M926.4928,-392.4131C953.1673,-338.4096 1031.7618,-179.2924 1063.39,-115.26"/>
<polygon fill="#444444" fill-opacity="0.333333" stroke="#444444" stroke-opacity="0.333333" points="1066.5856,-116.6935 1067.8762,-106.1776 1060.3094,-113.5935 1066.5856,-116.6935"/>
</g>
<!-- 389&#45;ds&#45;base&#45;libs&#45;&gt;gperftools&#45;libs -->
<g id="edge12" class="edge">
<title>389&#45;ds&#45;base&#45;libs&#45;&gt;gperftools&#45;libs</title>
<path fill="none" stroke="#444444" stroke-opacity="0.333333" d="M1006.7728,-219.9623C1043.965,-237.3395 1100.3501,-263.6841 1140.3782,-282.3863"/>
<polygon fill="#444444" fill-opacity="0.333333" stroke="#444444" stroke-opacity="0.333333" points="1139.13,-285.6663 1149.6715,-286.7284 1142.0932,-279.3244 1139.13,-285.6663"/>
</g>
<!-- 389&#45;ds&#45;base&#45;libs&#45;&gt;svrcore -->
<g id="edge13" class="edge">
<title>389&#45;ds&#45;base&#45;libs&#45;&gt;svrcore</title>
<path fill="none" stroke="#444444" stroke-opacity="0.333333" d="M943.3113,-183.7292C920.1507,-166.7829 885.4817,-141.416 860.0503,-122.8082"/>
<polygon fill="#444444" fill-opacity="0.333333" stroke="#444444" stroke-opacity="0.333333" points="861.9471,-119.8591 851.8099,-116.7787 857.8135,-125.5084 861.9471,-119.8591"/>
</g>
<!-- bind&#45;utils&#45;&gt;bind&#45;libs -->
<g id="edge14" class="edge">
<title>bind&#45;utils&#45;&gt;bind&#45;libs</title>
<path fill="none" stroke="#444444" stroke-opacity="0.333333" d="M437.0633,-344.9546C415.368,-341.3608 391.0972,-337.3403 369.0748,-333.6922"/>
<polygon fill="#444444" fill-opacity="0.333333" stroke="#444444" stroke-opacity="0.333333" points="369.5695,-330.2266 359.1319,-332.0452 368.4255,-337.1325 369.5695,-330.2266"/>
</g>
<!-- bind&#45;utils&#45;&gt;bind&#45;libs&#45;lite -->
<g id="edge15" class="edge">
<title>bind&#45;utils&#45;&gt;bind&#45;libs&#45;lite</title>
<path fill="none" stroke="#444444" stroke-opacity="0.333333" d="M487.7856,-337.4164C469.5579,-313.59 437.5314,-271.7266 416.6926,-244.4871"/>
<polygon fill="#444444" fill-opacity="0.333333" stroke="#444444" stroke-opacity="0.333333" points="419.4682,-242.3549 410.6122,-236.5391 413.9085,-246.6082 419.4682,-242.3549"/>
</g>
<!-- bind&#45;utils&#45;&gt;GeoIP -->
<g id="edge16" class="edge">
<title>bind&#45;utils&#45;&gt;GeoIP</title>
<path fill="none" stroke="#444444" stroke-opacity="0.333333" d="M482.3205,-373.7405C455.2655,-398.9032 406.1235,-444.6081 375.4673,-473.1201"/>
<polygon fill="#444444" fill-opacity="0.333333" stroke="#444444" stroke-opacity="0.333333" points="373.0352,-470.6023 368.0963,-479.9755 377.8025,-475.728 373.0352,-470.6023"/>
</g>
<!-- bind&#45;utils&#45;&gt;python3&#45;bind -->
<g id="edge17" class="edge">
<title>bind&#45;utils&#45;&gt;python3&#45;bind</title>
<path fill="none" stroke="#444444" stroke-opacity="0.333333" d="M451.3744,-337.5496C392.9623,-316.5385 296.7659,-281.9361 234.5986,-259.5742"/>
<polygon fill="#444444" fill-opacity="0.333333" stroke="#444444" stroke-opacity="0.333333" points="235.5187,-256.1857 224.9243,-256.0943 233.1493,-262.7726 235.5187,-256.1857"/>
</g>
<!-- gperftools&#45;libs&#45;&gt;libunwind -->
<g id="edge18" class="edge">
<title>gperftools&#45;libs&#45;&gt;libunwind</title>
<path fill="none" stroke="#444444" stroke-opacity="0.333333" d="M1239.3963,-322.7447C1274.0645,-334.9435 1320.0349,-351.1193 1356.6011,-363.9861"/>
<polygon fill="#444444" fill-opacity="0.333333" stroke="#444444" stroke-opacity="0.333333" points="1355.5691,-367.3332 1366.1639,-367.351 1357.8926,-360.7301 1355.5691,-367.3332"/>
</g>
<!-- perl&#45;NetAddr&#45;IP&#45;&gt;perl&#45;Socket6 -->
<g id="edge19" class="edge">
<title>perl&#45;NetAddr&#45;IP&#45;&gt;perl&#45;Socket6</title>
<path fill="none" stroke="#444444" stroke-opacity="0.333333" d="M1117.6177,-70.0557C1138.1519,-60.9725 1163.2283,-49.8803 1184.9488,-40.2724"/>
<polygon fill="#444444" fill-opacity="0.333333" stroke="#444444" stroke-opacity="0.333333" points="1186.6161,-43.3621 1194.3455,-36.1159 1183.7843,-36.9604 1186.6161,-43.3621"/>
</g>
<!-- bind&#45;libs&#45;&gt;bind&#45;libs&#45;lite -->
<g id="edge20" class="edge">
<title>bind&#45;libs&#45;&gt;bind&#45;libs&#45;lite</title>
<path fill="none" stroke="#444444" stroke-opacity="0.333333" d="M316.7751,-304.1194C332.2025,-287.514 355.2138,-262.7456 372.57,-244.0642"/>
<polygon fill="#444444" fill-opacity="0.333333" stroke="#444444" stroke-opacity="0.333333" points="375.3812,-246.1805 379.6235,-236.472 370.2529,-241.416 375.3812,-246.1805"/>
</g>
<!-- bind&#45;libs&#45;&gt;GeoIP -->
<g id="edge21" class="edge">
<title>bind&#45;libs&#45;&gt;GeoIP</title>
<path fill="none" stroke="#444444" stroke-opacity="0.333333" d="M304.9374,-340.4236C313.4007,-371.2184 330.6091,-433.8338 340.6283,-470.2898"/>
<polygon fill="#444444" fill-opacity="0.333333" stroke="#444444" stroke-opacity="0.333333" points="337.3449,-471.5504 343.3698,-480.2654 344.0946,-469.6954 337.3449,-471.5504"/>
</g>
<!-- bind&#45;libs&#45;&gt;bind&#45;license -->
<g id="edge22" class="edge">
<title>bind&#45;libs&#45;&gt;bind&#45;license</title>
<path fill="none" stroke="#444444" stroke-opacity="0.333333" d="M299.0711,-303.8637C297.0704,-261.5486 292.1262,-156.9824 289.7278,-106.259"/>
<polygon fill="#444444" fill-opacity="0.333333" stroke="#444444" stroke-opacity="0.333333" points="293.2117,-105.8325 289.2432,-96.009 286.2195,-106.1632 293.2117,-105.8325"/>
</g>
<!-- bind&#45;libs&#45;lite&#45;&gt;GeoIP -->
<g id="edge23" class="edge">
<title>bind&#45;libs&#45;lite&#45;&gt;GeoIP</title>
<path fill="none" stroke="#444444" stroke-opacity="0.333333" d="M393.4242,-236.5908C385.1912,-284.3915 363.0664,-412.8484 353.2022,-470.1201"/>
<polygon fill="#444444" fill-opacity="0.333333" stroke="#444444" stroke-opacity="0.333333" points="349.703,-469.8167 351.4547,-480.2657 356.6014,-471.0049 349.703,-469.8167"/>
</g>
<!-- bind&#45;libs&#45;lite&#45;&gt;bind&#45;license -->
<g id="edge24" class="edge">
<title>bind&#45;libs&#45;lite&#45;&gt;bind&#45;license</title>
<path fill="none" stroke="#444444" stroke-opacity="0.333333" d="M382.665,-200.1352C363.8352,-175.6941 330.1307,-131.9456 308.5351,-103.9144"/>
<polygon fill="#444444" fill-opacity="0.333333" stroke="#444444" stroke-opacity="0.333333" points="311.1272,-101.544 302.2516,-95.7584 305.582,-105.8162 311.1272,-101.544"/>
</g>
<!-- GeoIP&#45;&gt;GeoIP&#45;GeoLite&#45;data -->
<g id="edge25" class="edge">
<title>GeoIP&#45;&gt;GeoIP&#45;GeoLite&#45;data</title>
<path fill="none" stroke="#444444" stroke-opacity="0.333333" d="M349.9192,-516.628C353.4934,-557.9973 362.2221,-659.0267 366.4819,-708.3316"/>
<polygon fill="#444444" fill-opacity="0.333333" stroke="#444444" stroke-opacity="0.333333" points="362.9957,-708.6439 367.3436,-718.3055 369.9697,-708.0413 362.9957,-708.6439"/>
</g>
<!-- python3&#45;bind&#45;&gt;bind&#45;license -->
<g id="edge26" class="edge">
<title>python3&#45;bind&#45;&gt;bind&#45;license</title>
<path fill="none" stroke="#444444" stroke-opacity="0.333333" d="M187.5728,-219.9735C207.6043,-191.7126 246.4404,-136.922 269.6241,-104.2142"/>
<polygon fill="#444444" fill-opacity="0.333333" stroke="#444444" stroke-opacity="0.333333" points="272.5124,-106.1918 275.4397,-96.0094 266.8015,-102.1438 272.5124,-106.1918"/>
</g>
<!-- python3&#45;bind&#45;&gt;python3&#45;ply -->
<g id="edge27" class="edge">
<title>python3&#45;bind&#45;&gt;python3&#45;ply</title>
<path fill="none" stroke="#444444" stroke-opacity="0.333333" d="M164.2868,-256.1961C145.6947,-288.4094 106.8402,-355.7296 85.1082,-393.383"/>
<polygon fill="#444444" fill-opacity="0.333333" stroke="#444444" stroke-opacity="0.333333" points="81.9423,-391.8667 79.9748,-402.2773 88.005,-395.3659 81.9423,-391.8667"/>
</g>
<!-- 389&#45;ds&#45;base -->
<g id="node1" class="node">
<title>389&#45;ds&#45;base</title>
<text text-anchor="middle" x="917.47" y="-406.98" font-family="monospace" font-size="14.00" fill="#000000">389&#45;ds&#45;base</text>
</g>
<!-- 389&#45;ds&#45;base&#45;libs -->
<g id="node2" class="node">
<title>389&#45;ds&#45;base&#45;libs</title>
<text text-anchor="middle" x="968.2" y="-198.24" font-family="monospace" font-size="14.00" fill="#000000">389&#45;ds&#45;base&#45;libs</text>
</g>
<!-- bind&#45;utils -->
<g id="node3" class="node">
<title>bind&#45;utils</title>
<text text-anchor="middle" x="501.75" y="-351.97" font-family="monospace" font-size="14.00" fill="#000000">bind&#45;utils</text>
</g>
<!-- cyrus&#45;sasl&#45;gssapi -->
<g id="node4" class="node">
<title>cyrus&#45;sasl&#45;gssapi</title>
<text text-anchor="middle" x="1019.8" y="-579.27" font-family="monospace" font-size="14.00" fill="#000000">cyrus&#45;sasl&#45;gssapi</text>
</g>
<!-- cyrus&#45;sasl&#45;md5 -->
<g id="node5" class="node">
<title>cyrus&#45;sasl&#45;md5</title>
<text text-anchor="middle" x="743.45" y="-303.53" font-family="monospace" font-size="14.00" fill="#000000">cyrus&#45;sasl&#45;md5</text>
</g>
<!-- gperftools&#45;libs -->
<g id="node6" class="node">
<title>gperftools&#45;libs</title>
<text text-anchor="middle" x="1188.2" y="-301.03" font-family="monospace" font-size="14.00" fill="#000000">gperftools&#45;libs</text>
</g>
<!-- libsemanage&#45;python -->
<g id="node7" class="node">
<title>libsemanage&#45;python</title>
<text text-anchor="middle" x="858.84" y="-728.36" font-family="monospace" font-size="14.00" fill="#000000">libsemanage&#45;python</text>
</g>
<!-- svrcore -->
<g id="node8" class="node">
<title>svrcore</title>
<text text-anchor="middle" x="827.17" y="-95.05" font-family="monospace" font-size="14.00" fill="#000000">svrcore</text>
</g>
<!-- nss&#45;tools -->
<g id="node9" class="node">
<title>nss&#45;tools</title>
<text text-anchor="middle" x="733.46" y="-590.91" font-family="monospace" font-size="14.00" fill="#000000">nss&#45;tools</text>
</g>
<!-- openldap&#45;clients -->
<g id="node10" class="node">
<title>openldap&#45;clients</title>
<text text-anchor="middle" x="1185.2" y="-496.84" font-family="monospace" font-size="14.00" fill="#000000">openldap&#45;clients</text>
</g>
<!-- perl&#45;Mozilla&#45;LDAP -->
<g id="node11" class="node">
<title>perl&#45;Mozilla&#45;LDAP</title>
<text text-anchor="middle" x="1076.1" y="-726.32" font-family="monospace" font-size="14.00" fill="#000000">perl&#45;Mozilla&#45;LDAP</text>
</g>
<!-- perl&#45;NetAddr&#45;IP -->
<g id="node12" class="node">
<title>perl&#45;NetAddr&#45;IP</title>
<text text-anchor="middle" x="1076.8" y="-84.411" font-family="monospace" font-size="14.00" fill="#000000">perl&#45;NetAddr&#45;IP</text>
</g>
<!-- bind&#45;libs -->
<g id="node13" class="node">
<title>bind&#45;libs</title>
<text text-anchor="middle" x="299.94" y="-318.54" font-family="monospace" font-size="14.00" fill="#000000">bind&#45;libs</text>
</g>
<!-- bind&#45;libs&#45;lite -->
<g id="node14" class="node">
<title>bind&#45;libs&#45;lite</title>
<text text-anchor="middle" x="396.59" y="-214.51" font-family="monospace" font-size="14.00" fill="#000000">bind&#45;libs&#45;lite</text>
</g>
<!-- GeoIP -->
<g id="node15" class="node">
<title>GeoIP</title>
<text text-anchor="middle" x="348.34" y="-494.65" font-family="monospace" font-size="14.00" fill="#000000">GeoIP</text>
</g>
<!-- python3&#45;bind -->
<g id="node16" class="node">
<title>python3&#45;bind</title>
<text text-anchor="middle" x="174.76" y="-234.35" font-family="monospace" font-size="14.00" fill="#000000">python3&#45;bind</text>
</g>
<!-- libunwind -->
<g id="node17" class="node">
<title>libunwind</title>
<text text-anchor="middle" x="1417.6" y="-381.75" font-family="monospace" font-size="14.00" fill="#000000">libunwind</text>
</g>
<!-- perl&#45;Socket6 -->
<g id="node18" class="node">
<title>perl&#45;Socket6</title>
<text text-anchor="middle" x="1235.3" y="-14.3" font-family="monospace" font-size="14.00" fill="#000000">perl&#45;Socket6</text>
</g>
<!-- bind&#45;license -->
<g id="node19" class="node">
<title>bind&#45;license</title>
<text text-anchor="middle" x="288.38" y="-74.053" font-family="monospace" font-size="14.00" fill="#000000">bind&#45;license</text>
</g>
<!-- GeoIP&#45;GeoLite&#45;data -->
<g id="node20" class="node">
<title>GeoIP&#45;GeoLite&#45;data</title>
<text text-anchor="middle" x="368.9" y="-732.62" font-family="monospace" font-size="14.00" fill="#000000">GeoIP&#45;GeoLite&#45;data</text>
</g>
<!-- python3&#45;ply -->
<g id="node21" class="node">
<title>python3&#45;ply</title>
<text text-anchor="middle" x="69.544" y="-416.65" font-family="monospace" font-size="14.00" fill="#000000">python3&#45;ply</text>
</g>
</g>
</svg>
