<?xml version="1.0" encoding="UTF-8" standalone="no"?>
<!DOCTYPE svg PUBLIC "-//W3C//DTD SVG 1.1//EN"
 "http://www.w3.org/Graphics/SVG/1.1/DTD/svg11.dtd">
<!-- Generated by graphviz version 2.40.1 (20161225.0304)
 -->
<!-- Title: G Pages: 1 -->
<svg width="1659pt" height="1071pt"
 viewBox="0.00 0.00 1659.27 1070.57" xmlns="http://www.w3.org/2000/svg" xmlns:xlink="http://www.w3.org/1999/xlink">
<g id="graph0" class="graph" transform="scale(1 1) rotate(0) translate(107.4799 931.5352)">
<title>G</title>
<polygon fill="#dae2ff" stroke="transparent" points="-107.4799,139.0301 -107.4799,-931.5352 1551.7926,-931.5352 1551.7926,139.0301 -107.4799,139.0301"/>
<polygon fill="#fed9a6" stroke="#fed9a6" points="1209.9399,-387.7815 1201.1127,-384.6952 1200.1074,-327.2973 1201.3456,-291.2676 1199.7036,-291.183 1190.5098,-290.9971 1183.5377,-291.2927 1176.7068,-290.9399 1174.3671,-290.9654 1170.8723,-290.8941 1168.3578,-290.9214 1164.2861,-291.0931 1164.0935,-363.5382 1160.3743,-387.6253 1164.2733,-391.513 1161.3137,-394.3305 1161.3137,-394.3305 1164.2733,-391.513 1160.3743,-387.6253 1164.0935,-363.5382 1164.2861,-291.0931 1163.23,-291.0715 1148.7489,-291.2277 1147.3278,-291.1985 1144.8378,-291.2251 1136.361,-290.5204 1118.1074,-288.4294 1116.6033,-288.2106 1116.386,-288.1723 1115.1433,-320.6561 1115.1433,-320.6561 1116.386,-288.1723 1082.9617,-280.1737 1084.7954,-216.5748 1084.5062,-199.8549 1086.1515,-178.4465 1085.8606,-161.6314 1089.6235,-31.1251 1022.6572,-17.8836 1013.2258,-15.8447 1010.8206,-16.8628 1004.7618,-19.3025 994.1808,-23.3454 983.5846,-26.7407 980.1796,-27.7619 969.056,-30.8705 959.8979,-33.0535 943.1899,-36.3516 942.6294,-36.4506 933.4229,-37.8879 934.408,-130.4274 931.6589,-187.0599 932.7159,-187.4041 938.3866,-187.4041 938.4435,-187.4218 942.8677,-187.4218 943.4706,-187.2352 948.6841,-187.2352 949.4652,-186.9903 953.6416,-186.9903 954.393,-187.2323 959.935,-187.2323 961.2012,-188.8887 965.7346,-191.6623 965.7346,-191.6623 961.2012,-188.8887 959.935,-187.2323 954.393,-187.2323 953.6416,-186.9903 949.4652,-186.9903 948.6841,-187.2352 943.4706,-187.2352 942.8677,-187.4218 938.4435,-187.4218 938.3866,-187.4041 932.7159,-187.4041 931.6589,-187.0599 927.5338,-187.0599 925.7349,-188.6455 922.9476,-189.6999 920.8632,-192.186 920.8632,-192.186 922.9476,-189.6999 925.7349,-188.6455 927.5338,-187.0599 931.6589,-187.0599 934.408,-130.4274 933.4229,-37.8879 923.1798,-39.0656 923.4713,-140.9544 923.4713,-140.9544 923.1798,-39.0656 873.3223,-42.7496 820.4642,-88.3373 779.5831,-129.3015 771.9966,-130.5196 758.9985,-132.3498 758.0756,-132.4431 627.5551,-140.5181 599.2222,-143.9362 566.2883,-193.8404 565.973,-225.2014 595.9704,-273.8556 613.9479,-305.7728 662.6711,-397.0031 673.345,-415.9448 663.9358,-431.1431 611.8654,-524.3351 739.5528,-547.8417 731.304,-418.644 746.9683,-419.0034 747.7049,-495.0271 751.7803,-553.0723 755.9933,-553.0723 756.3515,-553.1891 756.7111,-553.6447 762.5613,-557.4435 762.5613,-557.4435 756.7111,-553.6447 756.3515,-553.1891 755.9933,-553.0723 751.7803,-553.0723 747.7049,-495.0271 746.9683,-419.0034 731.304,-418.644 739.5528,-547.8417 611.8654,-524.3351 587.0904,-566.2596 582.3849,-573.8668 553.5145,-618.5671 613.5024,-688.402 620.8209,-721.8115 625.4899,-747.5561 626.8448,-755.9114 726.6298,-879.2834 764.2527,-894.9009 772.7148,-895.5812 797.8863,-891.1426 797.2464,-874.0049 797.2464,-874.0049 797.8863,-891.1426 799.3723,-890.9377 805.3375,-890.2288 813.8527,-889.3793 827.7302,-888.5245 828.9937,-888.4708 830.3962,-820.8997 829.1625,-733.3022 835.1551,-735.3064 840.8132,-733.4819 843.7292,-730.7143 840.1015,-727.099 835.228,-725.5792 835.228,-725.5792 840.1015,-727.099 843.7292,-730.7143 840.8132,-733.4819 835.1551,-735.3064 829.1625,-733.3022 830.3962,-820.8997 828.9937,-888.4708 836.1991,-888.4398 837.6274,-888.4609 856.9664,-889.1177 857.4901,-786.2067 858.115,-776.752 864.6918,-730.6112 864.0223,-730.3971 864.0223,-730.3971 864.6918,-730.6112 858.115,-776.752 857.4901,-786.2067 856.9664,-889.1177 874.232,-890.6956 872.4635,-772.9045 872.4635,-772.9045 874.232,-890.6956 887.2683,-892.3851 903.2863,-894.7655 921.5439,-904.9275 965.3894,-913.9084 986.6028,-911.7336 1003.671,-910.3164 1018.3167,-909.6744 1018.0414,-890.0321 1018.6896,-815.0685 1018.6896,-815.0685 1018.0414,-890.0321 1018.3167,-909.6744 1029.3838,-909.8394 1033.3451,-909.9759 1035.1389,-816.5695 1039.2849,-760.4902 1044.2681,-760.4902 1050.9547,-756.0702 1049.6403,-754.3729 1045.0265,-751.5563 1045.0265,-751.5563 1049.6403,-754.3729 1050.9547,-756.0702 1044.2681,-760.4902 1039.2849,-760.4902 1035.1389,-816.5695 1033.3451,-909.9759 1046.9397,-910.977 1062.5328,-912.736 1067.5009,-913.4903 1071.6317,-914.2795 1090.9933,-918.3617 1127.7203,-927.5352 1178.7778,-900.7506 1243.8722,-802.0932 1205.6646,-763.6429 1203.0836,-684.8164 1198.0684,-641.8748 1194.4493,-641.8748 1194.3491,-641.9067 1186.7694,-641.9067 1186.3059,-641.7587 1183.3629,-641.7587 1182.1023,-642.1615 1176.7582,-642.1615 1173.4292,-698.1497 1170.17,-645.2281 1164.8452,-646.8712 1159.1571,-645.1042 1155.5623,-641.7267 1153.9624,-641.7267 1153.9624,-641.7267 1155.5623,-641.7267 1159.1571,-645.1042 1164.8452,-646.8712 1170.17,-645.2281 1173.7772,-641.757 1170.8844,-639.006 1164.7566,-636.9863 1164.7566,-636.9863 1170.8844,-639.006 1173.7772,-641.757 1170.17,-645.2281 1173.4292,-698.1497 1176.7582,-642.1615 1182.1023,-642.1615 1183.3629,-641.7587 1186.3059,-641.7587 1186.7694,-641.9067 1194.3491,-641.9067 1194.4493,-641.8748 1198.0684,-641.8748 1203.0836,-684.8164 1205.6646,-763.6429 1243.8722,-802.0932 1252.4482,-798.0552 1310.6471,-751.0352 1320.3052,-735.4913 1332.5356,-664.2205 1342.0602,-621.293 1311.0013,-603.7362 1205.0681,-636.9279 1202.8373,-639.9209 1202.8373,-639.9209 1205.0681,-636.9279 1311.0013,-603.7362 1342.0602,-621.293 1429.0713,-547.0313 1432.5426,-544.1957 1436.3624,-489.4111 1432.0538,-460.56 1425.2277,-396.4495 1364.9219,-329.3401 1361.6072,-319.9289 1244.0835,-295.5739 1230.8237,-293.2357 1227.2985,-292.7247 1211.7715,-291.4411 1202.4924,-291.2548 1201.3456,-291.2676 1200.1074,-327.2973 1201.1127,-384.6952 1209.9399,-387.7815 1308.1862,-378.2306 1286.0997,-399.607 1283.9949,-450.226 1283.9949,-450.226 1286.0997,-399.607 1272.9017,-410.6086 1270.0975,-413.1624 1270.4921,-456.2729 1274.8727,-489.3722 1273.9303,-489.6969 1267.2097,-485.055 1262.2424,-485.055 1255.2391,-489.9364 1255.3019,-490.0176 1261.4247,-494.0901 1261.4247,-494.0901 1255.3019,-490.0176 1255.2391,-489.9364 1262.2424,-485.055 1267.2097,-485.055 1273.9303,-489.6969 1274.8727,-489.3722 1270.4921,-456.2729 1270.0975,-413.1624 1272.9017,-410.6086 1286.0997,-399.607 1308.1862,-378.2306 1209.9399,-387.7815 1209.9399,-387.7815"/>
<polygon fill="#ccebc5" stroke="#ccebc5" points="43.1666,-652.857 41.0999,-651.8912 -65.1037,-604.6144 -101.1264,-495.7657 -103.4799,-489.5676 -96.2031,-463.6694 -83.6815,-414.9276 -3.9693,-345.883 -2.4262,-334.2275 1.3424,-299.7657 2.387,-282.9961 16.5326,-230.9953 88.7767,-160.0537 129.9784,-147.0932 133.03,-304.4876 138.3643,-308.0308 140.1241,-311.0761 138.0397,-312.8371 141.3367,-344.9113 145.7207,-311.4445 150.3363,-311.4445 150.5173,-311.3865 154.9445,-311.3865 159.2082,-341.3639 162.6852,-314.6224 167.5579,-316.1367 173.8501,-314.1135 176.7979,-311.3485 178.4756,-311.3485 179.0469,-311.1584 179.0469,-311.1584 178.4756,-311.3485 176.7979,-311.3485 173.0784,-307.6537 167.8888,-306.0317 167.8888,-306.0317 173.0784,-307.6537 176.7979,-311.3485 173.8501,-314.1135 167.5579,-316.1367 162.6852,-314.6224 159.2082,-341.3639 154.9445,-311.3865 150.5173,-311.3865 150.3363,-311.4445 145.7207,-311.4445 141.3367,-344.9113 138.0397,-312.8371 140.1241,-311.0761 138.3643,-308.0308 133.03,-304.4876 129.9784,-147.0932 145.9376,-141.7429 162.8465,-134.6777 168.6247,-94.7844 174.9984,-43.1381 177.8545,-14.8561 180.9867,25.1363 200.2354,42.0478 256.5041,80.2122 290.7855,95.3017 311.3436,102.4916 317.9346,100.9608 322.6838,100.0547 332.1441,98.445 343.439,96.9906 348.9988,96.3901 357.1937,95.6751 359.8601,95.4978 373.2655,95.1624 373.8583,-13.5876 370.6461,-46.5662 365.7513,-45.0927 359.845,-46.9266 356.5612,-49.9691 359.7274,-53.0173 359.7274,-53.0173 356.5612,-49.9691 359.845,-46.9266 365.7513,-45.0927 370.6461,-46.5662 373.8583,-13.5876 373.2655,95.1624 381.0406,95.2906 395.2221,95.819 400.5419,96.3482 405.3991,95.2668 407.3416,94.8763 426.634,91.4146 479.7922,83.0419 529.6786,51.2013 567.4282,-18.8463 573.9413,-50.141 599.2222,-143.9362 566.2883,-193.8404 565.973,-225.2014 595.9704,-273.8556 613.9479,-305.7728 662.6711,-397.0031 673.345,-415.9448 663.9358,-431.1431 611.8654,-524.3351 587.0904,-566.2596 582.3849,-573.8668 553.5145,-618.5671 541.5981,-616.6064 517.2708,-612.9922 344.1384,-704.4569 323.2,-716.543 315.1831,-721.7455 307.0958,-721.1011 303.7868,-720.8937 301.8974,-608.4331 300.8847,-593.369 294.3544,-545.3536 300.9561,-547.5195 307.1888,-545.4767 309.8506,-542.9962 312.6703,-542.9962 313.6011,-542.7001 316.9268,-542.7001 322.8981,-588.1845 324.0469,-542.7241 324.0469,-542.7241 322.8981,-588.1845 316.9268,-542.7001 313.6011,-542.7001 312.6703,-542.9962 309.8506,-542.9962 307.1888,-545.4767 300.9561,-547.5195 294.3544,-545.3536 300.8847,-593.369 301.8974,-608.4331 303.7868,-720.8937 284.7261,-720.6679 272.2258,-720.944 261.3728,-721.5514 205.5078,-726.5694 128.0341,-667.0673 167.7823,-567.3949 180.6578,-531.6808 190.2397,-496.7891 190.7179,-495.4642 238.9103,-485.5218 240.4632,-431.0522 246.6277,-425.9167 244.2386,-484.7365 255.0463,-483.7815 261.7444,-483.5883 261.6213,-474.2627 264.2969,-429.1682 270.2056,-429.1682 275.3481,-425.8746 279.1787,-483.4809 282.6555,-483.4076 285.1191,-483.5016 285.3853,-483.4965 292.613,-483.7866 293.7214,-483.7677 294.5206,-483.8012 303.441,-483.6659 306.1666,-483.4694 321.7321,-480.5511 325.583,-479.6117 332.5282,-477.1172 346.2652,-471.3799 381.6792,-454.635 381.5169,-449.1551 468.0627,-424.7186 470.3946,-421.5762 470.3946,-421.5762 468.0627,-424.7186 381.5169,-449.1551 381.6792,-454.635 346.2652,-471.3799 332.5282,-477.1172 325.583,-479.6117 321.7321,-480.5511 306.1666,-483.4694 303.441,-483.6659 294.5206,-483.8012 293.7214,-483.7677 292.613,-483.7866 285.3853,-483.4965 285.1191,-483.5016 282.6555,-483.4076 279.1787,-483.4809 275.3481,-425.8746 270.2056,-429.1682 264.2969,-429.1682 257.7597,-424.6543 258.3106,-423.9243 263.775,-420.3561 263.775,-420.3561 258.3106,-423.9243 257.7597,-424.6543 264.2969,-429.1682 261.6213,-474.2627 261.7444,-483.5883 255.0463,-483.7815 244.2386,-484.7365 246.6277,-425.9167 240.4632,-431.0522 238.9103,-485.5218 190.7179,-495.4642 190.2397,-496.7891 180.6578,-531.6808 167.7823,-567.3949 128.0341,-667.0673 111.8673,-663.968 108.9344,-555.0648 108.9344,-555.0648 111.8673,-663.968 97.4826,-661.7161 96.0098,-524.0022 96.0098,-524.0022 97.4826,-661.7161 87.8712,-660.5506 77.7746,-659.5046 65.2114,-658.4256 65.5812,-617.433 67.789,-577.9747 69.7162,-487.9017 75.7619,-489.8889 81.3193,-488.1649 84.5338,-485.2109 81.2367,-481.9534 81.2367,-481.9534 84.5338,-485.2109 81.3193,-488.1649 75.7619,-489.8889 69.7162,-487.9017 67.789,-577.9747 65.5812,-617.433 65.5574,-616.805 65.5574,-616.805 65.5812,-617.433 65.2114,-658.4256 54.0569,-658.256 51.1127,-656.7485 43.1666,-652.857 43.1666,-652.857"/>
<polygon fill="#fbb4ae" stroke="#fbb4ae" points="1398.832,-17.9412 1399.0603,-17.5401 1403.6937,44.6644 1405.4796,131.9172 1414.4408,130.8163 1448.2203,123.2375 1518.8468,59.9558 1547.7926,-16.4349 1547.6023,-18 1544.194,-78.2748 1528.361,-113.0918 1519.0927,-123.1615 1408.5164,-175.6358 1401.6082,-179.0808 1396.2924,-181.9903 1393.483,-191.02 1361.6072,-319.9289 1244.0835,-295.5739 1230.8237,-293.2357 1227.2985,-292.7247 1211.7715,-291.4411 1202.4924,-291.2548 1201.3456,-291.2676 1199.7036,-291.183 1190.5098,-290.9971 1183.5377,-291.2927 1176.7068,-290.9399 1174.3671,-290.9654 1170.8723,-290.8941 1168.3578,-290.9214 1164.2861,-291.0931 1163.23,-291.0715 1148.7489,-291.2277 1147.3278,-291.1985 1144.8378,-291.2251 1136.361,-290.5204 1118.1074,-288.4294 1116.6033,-288.2106 1116.386,-288.1723 1082.9617,-280.1737 1084.7954,-216.5748 1084.5062,-199.8549 1086.1515,-178.4465 1085.8606,-161.6314 1089.6235,-31.1251 1152.1404,-17.2611 1164.0542,-14.1838 1175.734,4.992 1227.3654,97.5662 1321.7802,134.2708 1337.0143,133.224 1349.7666,132.869 1356.3658,132.9553 1366.4567,133.2938 1382.7324,134.5066 1387.2704,135.0301 1389.9146,134.4834 1405.4796,131.9172 1403.6937,44.6644 1399.0603,-17.5401 1398.832,-17.9412 1394.6337,-17.9412 1390.7064,29.8112 1387.5048,-17.8975 1382.4502,-17.8975 1381.0823,63.6014 1376.1353,-14.5171 1370.8691,-12.8959 1364.7709,-14.821 1361.3906,-17.9796 1359.4224,-17.9796 1355.4376,-131.8166 1353.1188,-18.1862 1347.6337,-18.1862 1346.986,-17.9765 1342.6732,-17.9765 1342.6732,-17.9765 1346.986,-17.9765 1347.6337,-18.1862 1353.1188,-18.1862 1355.4376,-131.8166 1359.4224,-17.9796 1361.3906,-17.9796 1364.7384,-21.1217 1370.5972,-22.9857 1370.5972,-22.9857 1364.7384,-21.1217 1361.3906,-17.9796 1364.7709,-14.821 1370.8691,-12.8959 1376.1353,-14.5171 1381.0823,63.6014 1382.4502,-17.8975 1387.5048,-17.8975 1390.7064,29.8112 1394.6337,-17.9412 1398.832,-17.9412 1398.832,-17.9412"/>
<polyline fill="none" stroke="#000000" points="921.5439,-904.9275 965.3894,-913.9084 986.6028,-911.7336 1003.671,-910.3164 1018.3167,-909.6744 1029.3838,-909.8394 1033.3451,-909.9759 1046.9397,-910.977 1062.5328,-912.736 1067.5009,-913.4903 1071.6317,-914.2795 1090.9933,-918.3617 1127.7203,-927.5352 1178.7778,-900.7506 1243.8722,-802.0932 1252.4482,-798.0552 1310.6471,-751.0352 1320.3052,-735.4913 1332.5356,-664.2205 1342.0602,-621.293 1429.0713,-547.0313 1432.5426,-544.1957 1436.3624,-489.4111 1432.0538,-460.56 1425.2277,-396.4495 1364.9219,-329.3401 1361.6072,-319.9289 1244.0835,-295.5739 1230.8237,-293.2357 1227.2985,-292.7247 1211.7715,-291.4411 1202.4924,-291.2548 1201.3456,-291.2676 1199.7036,-291.183 1190.5098,-290.9971 1183.5377,-291.2927 1176.7068,-290.9399 1174.3671,-290.9654 1170.8723,-290.8941 1168.3578,-290.9214 1164.2861,-291.0931 1163.23,-291.0715 1148.7489,-291.2277 1147.3278,-291.1985 1144.8378,-291.2251 1136.361,-290.5204 1118.1074,-288.4294 1116.6033,-288.2106 1116.386,-288.1723 1082.9617,-280.1737 1084.7954,-216.5748 1084.5062,-199.8549 1086.1515,-178.4465 1085.8606,-161.6314 1089.6235,-31.1251 1022.6572,-17.8836 1013.2258,-15.8447 1010.8206,-16.8628 1004.7618,-19.3025 994.1808,-23.3454 983.5846,-26.7407 980.1796,-27.7619 969.056,-30.8705 959.8979,-33.0535 943.1899,-36.3516 942.6294,-36.4506 933.4229,-37.8879 923.1798,-39.0656 873.3223,-42.7496 820.4642,-88.3373 779.5831,-129.3015 771.9966,-130.5196 758.9985,-132.3498 758.0756,-132.4431 627.5551,-140.5181 599.2222,-143.9362 566.2883,-193.8404 565.973,-225.2014 595.9704,-273.8556 613.9479,-305.7728 662.6711,-397.0031 673.345,-415.9448 663.9358,-431.1431 611.8654,-524.3351 587.0904,-566.2596 582.3849,-573.8668 553.5145,-618.5671 613.5024,-688.402 620.8209,-721.8115 625.4899,-747.5561 626.8448,-755.9114 726.6298,-879.2834 764.2527,-894.9009 772.7148,-895.5812 797.8863,-891.1426 799.3723,-890.9377 805.3375,-890.2288 813.8527,-889.3793 827.7302,-888.5245 828.9937,-888.4708 836.1991,-888.4398 837.6274,-888.4609 856.9664,-889.1177 874.232,-890.6956 887.2683,-892.3851 903.2863,-894.7655 921.5439,-904.9275 "/>
<polyline fill="none" stroke="#000000" points="344.1384,-704.4569 323.2,-716.543 315.1831,-721.7455 307.0958,-721.1011 303.7868,-720.8937 284.7261,-720.6679 272.2258,-720.944 261.3728,-721.5514 205.5078,-726.5694 128.0341,-667.0673 111.8673,-663.968 97.4826,-661.7161 87.8712,-660.5506 77.7746,-659.5046 65.2114,-658.4256 54.0569,-658.256 51.1127,-656.7485 43.1666,-652.857 41.0999,-651.8912 -65.1037,-604.6144 -101.1264,-495.7657 -103.4799,-489.5676 -96.2031,-463.6694 -83.6815,-414.9276 -3.9693,-345.883 -2.4262,-334.2275 1.3424,-299.7657 2.387,-282.9961 16.5326,-230.9953 88.7767,-160.0537 129.9784,-147.0932 145.9376,-141.7429 162.8465,-134.6777 168.6247,-94.7844 174.9984,-43.1381 177.8545,-14.8561 180.9867,25.1363 200.2354,42.0478 256.5041,80.2122 290.7855,95.3017 311.3436,102.4916 317.9346,100.9608 322.6838,100.0547 332.1441,98.445 343.439,96.9906 348.9988,96.3901 357.1937,95.6751 359.8601,95.4978 373.2655,95.1624 381.0406,95.2906 395.2221,95.819 400.5419,96.3482 405.3991,95.2668 407.3416,94.8763 426.634,91.4146 479.7922,83.0419 529.6786,51.2013 567.4282,-18.8463 573.9413,-50.141 599.2222,-143.9362 566.2883,-193.8404 565.973,-225.2014 595.9704,-273.8556 613.9479,-305.7728 662.6711,-397.0031 673.345,-415.9448 663.9358,-431.1431 611.8654,-524.3351 587.0904,-566.2596 582.3849,-573.8668 553.5145,-618.5671 541.5981,-616.6064 517.2708,-612.9922 344.1384,-704.4569 "/>
<polyline fill="none" stroke="#000000" points="1183.5377,-291.2927 1176.7068,-290.9399 1174.3671,-290.9654 1170.8723,-290.8941 1168.3578,-290.9214 1164.2861,-291.0931 1163.23,-291.0715 1148.7489,-291.2277 1147.3278,-291.1985 1144.8378,-291.2251 1136.361,-290.5204 1118.1074,-288.4294 1116.6033,-288.2106 1116.386,-288.1723 1082.9617,-280.1737 1084.7954,-216.5748 1084.5062,-199.8549 1086.1515,-178.4465 1085.8606,-161.6314 1089.6235,-31.1251 1152.1404,-17.2611 1164.0542,-14.1838 1175.734,4.992 1227.3654,97.5662 1321.7802,134.2708 1337.0143,133.224 1349.7666,132.869 1356.3658,132.9553 1366.4567,133.2938 1382.7324,134.5066 1387.2704,135.0301 1389.9146,134.4834 1405.4796,131.9172 1414.4408,130.8163 1448.2203,123.2375 1518.8468,59.9558 1547.7926,-16.4349 1547.6023,-18 1544.194,-78.2748 1528.361,-113.0918 1519.0927,-123.1615 1408.5164,-175.6358 1401.6082,-179.0808 1396.2924,-181.9903 1393.483,-191.02 1361.6072,-319.9289 1244.0835,-295.5739 1230.8237,-293.2357 1227.2985,-292.7247 1211.7715,-291.4411 1202.4924,-291.2548 1201.3456,-291.2676 1199.7036,-291.183 1190.5098,-290.9971 1183.5377,-291.2927 "/>
<!-- 389&#45;ds&#45;base&#45;&gt;389&#45;ds&#45;base&#45;libs -->
<g id="edge1" class="edge">
<title>389&#45;ds&#45;base&#45;&gt;389&#45;ds&#45;base&#45;libs</title>
<path fill="none" stroke="#444444" stroke-opacity="0.333333" d="M1006.061,-443.8055C1032.9986,-434.3428 1066.1568,-422.6948 1094.3901,-412.7769"/>
<polygon fill="#444444" fill-opacity="0.333333" stroke="#444444" stroke-opacity="0.333333" points="1095.8781,-415.964 1104.1529,-409.3474 1093.5581,-409.3596 1095.8781,-415.964"/>
</g>
<!-- 389&#45;ds&#45;base&#45;&gt;bind&#45;utils -->
<g id="edge2" class="edge">
<title>389&#45;ds&#45;base&#45;&gt;bind&#45;utils</title>
<path fill="none" stroke="#444444" stroke-opacity="0.333333" d="M884.6725,-455.4379C800.25,-447.646 658.8358,-434.5941 572.3065,-426.6078"/>
<polygon fill="#444444" fill-opacity="0.333333" stroke="#444444" stroke-opacity="0.333333" points="572.5729,-423.1176 562.2935,-425.6837 571.9295,-430.088 572.5729,-423.1176"/>
</g>
<!-- 389&#45;ds&#45;base&#45;&gt;cyrus&#45;sasl&#45;gssapi -->
<g id="edge3" class="edge">
<title>389&#45;ds&#45;base&#45;&gt;cyrus&#45;sasl&#45;gssapi</title>
<path fill="none" stroke="#444444" stroke-opacity="0.333333" d="M960.036,-480.2854C974.8475,-530.2237 1015.8779,-668.5614 1033.5396,-728.1093"/>
<polygon fill="#444444" fill-opacity="0.333333" stroke="#444444" stroke-opacity="0.333333" points="1030.2583,-729.3551 1036.4574,-737.947 1036.9694,-727.3646 1030.2583,-729.3551"/>
</g>
<!-- 389&#45;ds&#45;base&#45;&gt;cyrus&#45;sasl&#45;md5 -->
<g id="edge4" class="edge">
<title>389&#45;ds&#45;base&#45;&gt;cyrus&#45;sasl&#45;md5</title>
<path fill="none" stroke="#444444" stroke-opacity="0.333333" d="M975.8939,-480.1318C1013.8442,-512.6122 1093.1508,-580.4879 1135.9441,-617.1133"/>
<polygon fill="#444444" fill-opacity="0.333333" stroke="#444444" stroke-opacity="0.333333" points="1133.869,-619.9441 1143.7422,-623.7874 1138.4207,-614.626 1133.869,-619.9441"/>
</g>
<!-- 389&#45;ds&#45;base&#45;&gt;svrcore -->
<g id="edge5" class="edge">
<title>389&#45;ds&#45;base&#45;&gt;svrcore</title>
<path fill="none" stroke="#444444" stroke-opacity="0.333333" d="M1024.177,-468.1423C1079.0908,-473.0756 1154.8011,-479.8771 1206.5202,-484.5234"/>
<polygon fill="#444444" fill-opacity="0.333333" stroke="#444444" stroke-opacity="0.333333" points="1206.2578,-488.0138 1216.5309,-485.4227 1206.8842,-481.0419 1206.2578,-488.0138"/>
</g>
<!-- 389&#45;ds&#45;base&#45;&gt;nss&#45;tools -->
<g id="edge6" class="edge">
<title>389&#45;ds&#45;base&#45;&gt;nss&#45;tools</title>
<path fill="none" stroke="#444444" stroke-opacity="0.333333" d="M917.3069,-479.92C887.3015,-494.4345 844.9587,-514.9168 812.681,-530.5304"/>
<polygon fill="#444444" fill-opacity="0.333333" stroke="#444444" stroke-opacity="0.333333" points="810.9161,-527.4961 803.4381,-535.0015 813.9643,-533.7976 810.9161,-527.4961"/>
</g>
<!-- 389&#45;ds&#45;base&#45;&gt;openldap&#45;clients -->
<g id="edge7" class="edge">
<title>389&#45;ds&#45;base&#45;&gt;openldap&#45;clients</title>
<path fill="none" stroke="#444444" stroke-opacity="0.333333" d="M946.5443,-479.9314C926.0331,-525.9821 871.6375,-648.1086 847.1683,-703.0456"/>
<polygon fill="#444444" fill-opacity="0.333333" stroke="#444444" stroke-opacity="0.333333" points="843.9698,-701.6245 843.0983,-712.1835 850.3642,-704.4727 843.9698,-701.6245"/>
</g>
<!-- 389&#45;ds&#45;base&#45;&gt;perl&#45;Mozilla&#45;LDAP -->
<g id="edge8" class="edge">
<title>389&#45;ds&#45;base&#45;&gt;perl&#45;Mozilla&#45;LDAP</title>
<path fill="none" stroke="#444444" stroke-opacity="0.333333" d="M955.5215,-443.8701C957.9642,-397.12 964.5188,-271.675 967.4628,-215.3298"/>
<polygon fill="#444444" fill-opacity="0.333333" stroke="#444444" stroke-opacity="0.333333" points="970.9583,-215.5053 967.985,-205.3362 963.9679,-215.14 970.9583,-215.5053"/>
</g>
<!-- 389&#45;ds&#45;base&#45;&gt;perl&#45;NetAddr&#45;IP -->
<g id="edge9" class="edge">
<title>389&#45;ds&#45;base&#45;&gt;perl&#45;NetAddr&#45;IP</title>
<path fill="none" stroke="#444444" stroke-opacity="0.333333" d="M970.8086,-443.6969C1012.7618,-396.6648 1124.9078,-270.9427 1173.37,-216.6138"/>
<polygon fill="#444444" fill-opacity="0.333333" stroke="#444444" stroke-opacity="0.333333" points="1175.9973,-218.9263 1180.0421,-209.134 1170.7735,-214.2666 1175.9973,-218.9263"/>
</g>
<!-- 389&#45;ds&#45;base&#45;&gt;python2&#45;libsemanage -->
<g id="edge10" class="edge">
<title>389&#45;ds&#45;base&#45;&gt;python2&#45;libsemanage</title>
<path fill="none" stroke="#444444" stroke-opacity="0.333333" d="M939.0541,-443.6414C912.1959,-412.0731 856.9895,-347.1854 826.1963,-310.992"/>
<polygon fill="#444444" fill-opacity="0.333333" stroke="#444444" stroke-opacity="0.333333" points="828.7972,-308.6477 819.6514,-303.2993 823.4657,-313.1838 828.7972,-308.6477"/>
</g>
<!-- 389&#45;ds&#45;base&#45;libs&#45;&gt;svrcore -->
<g id="edge11" class="edge">
<title>389&#45;ds&#45;base&#45;libs&#45;&gt;svrcore</title>
<path fill="none" stroke="#444444" stroke-opacity="0.333333" d="M1175.529,-409.3654C1192.738,-424.8788 1217.7307,-447.4088 1236.8811,-464.6722"/>
<polygon fill="#444444" fill-opacity="0.333333" stroke="#444444" stroke-opacity="0.333333" points="1234.6572,-467.3796 1244.4282,-471.4757 1239.3441,-462.1803 1234.6572,-467.3796"/>
</g>
<!-- bind&#45;utils&#45;&gt;bind&#45;libs -->
<g id="edge12" class="edge">
<title>bind&#45;utils&#45;&gt;bind&#45;libs</title>
<path fill="none" stroke="#444444" stroke-opacity="0.333333" d="M433.0368,-421.1094C402.9937,-421.7609 367.2055,-422.537 336.5611,-423.2015"/>
<polygon fill="#444444" fill-opacity="0.333333" stroke="#444444" stroke-opacity="0.333333" points="336.3033,-419.7062 326.3816,-423.4223 336.4552,-426.7046 336.3033,-419.7062"/>
</g>
<!-- bind&#45;utils&#45;&gt;bind&#45;libs&#45;lite -->
<g id="edge13" class="edge">
<title>bind&#45;utils&#45;&gt;bind&#45;libs&#45;lite</title>
<path fill="none" stroke="#444444" stroke-opacity="0.333333" d="M468.558,-437.8561C434.0439,-459.4437 376.3445,-495.533 338.4663,-519.2247"/>
<polygon fill="#444444" fill-opacity="0.333333" stroke="#444444" stroke-opacity="0.333333" points="336.3829,-516.3995 329.7607,-524.6698 340.0949,-522.3342 336.3829,-516.3995"/>
</g>
<!-- bind&#45;utils&#45;&gt;GeoIP -->
<g id="edge14" class="edge">
<title>bind&#45;utils&#45;&gt;GeoIP</title>
<path fill="none" stroke="#444444" stroke-opacity="0.333333" d="M480.1237,-401.6388C456.7461,-377.4238 415.1342,-334.3215 388.6206,-306.8582"/>
<polygon fill="#444444" fill-opacity="0.333333" stroke="#444444" stroke-opacity="0.333333" points="391.0342,-304.319 381.5705,-299.5556 385.9981,-309.181 391.0342,-304.319"/>
</g>
<!-- bind&#45;utils&#45;&gt;python3&#45;bind -->
<g id="edge15" class="edge">
<title>bind&#45;utils&#45;&gt;python3&#45;bind</title>
<path fill="none" stroke="#444444" stroke-opacity="0.333333" d="M442.7417,-401.6517C384.7602,-382.5548 293.3644,-352.4526 232.0391,-332.2545"/>
<polygon fill="#444444" fill-opacity="0.333333" stroke="#444444" stroke-opacity="0.333333" points="233.0577,-328.905 222.4647,-329.101 230.8678,-335.5537 233.0577,-328.905"/>
</g>
<!-- perl&#45;NetAddr&#45;IP&#45;&gt;perl&#45;Socket6 -->
<g id="edge16" class="edge">
<title>perl&#45;NetAddr&#45;IP&#45;&gt;perl&#45;Socket6</title>
<path fill="none" stroke="#444444" stroke-opacity="0.333333" d="M1214.5447,-172.8308C1245.8333,-141.8076 1309.5803,-78.6013 1345.1895,-43.2941"/>
<polygon fill="#444444" fill-opacity="0.333333" stroke="#444444" stroke-opacity="0.333333" points="1347.7024,-45.7314 1352.3392,-36.2051 1342.7737,-40.7606 1347.7024,-45.7314"/>
</g>
<!-- bind&#45;libs&#45;&gt;bind&#45;libs&#45;lite -->
<g id="edge17" class="edge">
<title>bind&#45;libs&#45;&gt;bind&#45;libs&#45;lite</title>
<path fill="none" stroke="#444444" stroke-opacity="0.333333" d="M272.2303,-442.8858C277.7539,-462.0811 286.5318,-492.5853 292.9307,-514.822"/>
<polygon fill="#444444" fill-opacity="0.333333" stroke="#444444" stroke-opacity="0.333333" points="289.6405,-516.045 295.7695,-524.6871 296.3675,-514.1092 289.6405,-516.045"/>
</g>
<!-- bind&#45;libs&#45;&gt;GeoIP -->
<g id="edge18" class="edge">
<title>bind&#45;libs&#45;&gt;GeoIP</title>
<path fill="none" stroke="#444444" stroke-opacity="0.333333" d="M279.3003,-406.5698C296.1379,-381.7382 326.4881,-336.9785 345.9496,-308.2772"/>
<polygon fill="#444444" fill-opacity="0.333333" stroke="#444444" stroke-opacity="0.333333" points="348.8974,-310.1663 351.6128,-299.9253 343.1037,-306.2377 348.8974,-310.1663"/>
</g>
<!-- bind&#45;libs&#45;&gt;bind&#45;license -->
<g id="edge19" class="edge">
<title>bind&#45;libs&#45;&gt;bind&#45;license</title>
<path fill="none" stroke="#444444" stroke-opacity="0.333333" d="M209.5116,-442.763C188.3866,-449.3968 164.2858,-456.9652 142.3964,-463.839"/>
<polygon fill="#444444" fill-opacity="0.333333" stroke="#444444" stroke-opacity="0.333333" points="141.3329,-460.5044 132.8408,-466.8398 143.4301,-467.1829 141.3329,-460.5044"/>
</g>
<!-- bind&#45;libs&#45;lite&#45;&gt;GeoIP -->
<g id="edge20" class="edge">
<title>bind&#45;libs&#45;lite&#45;&gt;GeoIP</title>
<path fill="none" stroke="#444444" stroke-opacity="0.333333" d="M305.392,-524.3222C316.292,-479.2505 344.4144,-362.9634 357.3844,-309.3319"/>
<polygon fill="#444444" fill-opacity="0.333333" stroke="#444444" stroke-opacity="0.333333" points="360.818,-310.0232 359.7668,-299.4807 354.0142,-308.3778 360.818,-310.0232"/>
</g>
<!-- bind&#45;libs&#45;lite&#45;&gt;bind&#45;license -->
<g id="edge21" class="edge">
<title>bind&#45;libs&#45;lite&#45;&gt;bind&#45;license</title>
<path fill="none" stroke="#444444" stroke-opacity="0.333333" d="M230.5102,-524.6363C206.7662,-518.5508 180.0934,-511.7146 155.6494,-505.4496"/>
<polygon fill="#444444" fill-opacity="0.333333" stroke="#444444" stroke-opacity="0.333333" points="156.2422,-501.9885 145.6863,-502.8961 154.5042,-508.7693 156.2422,-501.9885"/>
</g>
<!-- GeoIP&#45;&gt;GeoIP&#45;GeoLite&#45;data -->
<g id="edge22" class="edge">
<title>GeoIP&#45;&gt;GeoIP&#45;GeoLite&#45;data</title>
<path fill="none" stroke="#444444" stroke-opacity="0.333333" d="M364.2314,-263.3272C364.4782,-223.1226 365.0723,-126.3336 365.3675,-78.2402"/>
<polygon fill="#444444" fill-opacity="0.333333" stroke="#444444" stroke-opacity="0.333333" points="368.8675,-78.2308 365.4291,-68.2095 361.8677,-78.1878 368.8675,-78.2308"/>
</g>
<!-- python3&#45;bind&#45;&gt;bind&#45;license -->
<g id="edge23" class="edge">
<title>python3&#45;bind&#45;&gt;bind&#45;license</title>
<path fill="none" stroke="#444444" stroke-opacity="0.333333" d="M158.0676,-329.3601C141.7369,-360.0799 108.7051,-422.2164 89.7095,-457.9491"/>
<polygon fill="#444444" fill-opacity="0.333333" stroke="#444444" stroke-opacity="0.333333" points="86.5788,-456.3819 84.9753,-466.8547 92.7598,-459.6677 86.5788,-456.3819"/>
</g>
<!-- 389&#45;ds&#45;base -->
<g id="node1" class="node">
<title>389&#45;ds&#45;base</title>
<text text-anchor="middle" x="954.58" y="-458.19" font-family="monospace" font-size="14.00" fill="#000000">389&#45;ds&#45;base</text>
</g>
<!-- 389&#45;ds&#45;base&#45;libs -->
<g id="node2" class="node">
<title>389&#45;ds&#45;base&#45;libs</title>
<text text-anchor="middle" x="1155.5" y="-387.61" font-family="monospace" font-size="14.00" fill="#000000">389&#45;ds&#45;base&#45;libs</text>
</g>
<!-- bind&#45;utils -->
<g id="node3" class="node">
<title>bind&#45;utils</title>
<text text-anchor="middle" x="497.57" y="-416.01" font-family="monospace" font-size="14.00" fill="#000000">bind&#45;utils</text>
</g>
<!-- cyrus&#45;sasl&#45;gssapi -->
<g id="node4" class="node">
<title>cyrus&#45;sasl&#45;gssapi</title>
<text text-anchor="middle" x="1041.8" y="-752.26" font-family="monospace" font-size="14.00" fill="#000000">cyrus&#45;sasl&#45;gssapi</text>
</g>
<!-- cyrus&#45;sasl&#45;md5 -->
<g id="node5" class="node">
<title>cyrus&#45;sasl&#45;md5</title>
<text text-anchor="middle" x="1164.8" y="-638.11" font-family="monospace" font-size="14.00" fill="#000000">cyrus&#45;sasl&#45;md5</text>
</g>
<!-- svrcore -->
<g id="node6" class="node">
<title>svrcore</title>
<text text-anchor="middle" x="1264.7" y="-486.05" font-family="monospace" font-size="14.00" fill="#000000">svrcore</text>
</g>
<!-- nss&#45;tools -->
<g id="node7" class="node">
<title>nss&#45;tools</title>
<text text-anchor="middle" x="765.92" y="-549.45" font-family="monospace" font-size="14.00" fill="#000000">nss&#45;tools</text>
</g>
<!-- openldap&#45;clients -->
<g id="node8" class="node">
<title>openldap&#45;clients</title>
<text text-anchor="middle" x="834.94" y="-726.8" font-family="monospace" font-size="14.00" fill="#000000">openldap&#45;clients</text>
</g>
<!-- perl&#45;Mozilla&#45;LDAP -->
<g id="node9" class="node">
<title>perl&#45;Mozilla&#45;LDAP</title>
<text text-anchor="middle" x="968.93" y="-183.55" font-family="monospace" font-size="14.00" fill="#000000">perl&#45;Mozilla&#45;LDAP</text>
</g>
<!-- perl&#45;NetAddr&#45;IP -->
<g id="node10" class="node">
<title>perl&#45;NetAddr&#45;IP</title>
<text text-anchor="middle" x="1196.2" y="-187.32" font-family="monospace" font-size="14.00" fill="#000000">perl&#45;NetAddr&#45;IP</text>
</g>
<!-- python2&#45;libsemanage -->
<g id="node11" class="node">
<title>python2&#45;libsemanage</title>
<text text-anchor="middle" x="804.21" y="-281.45" font-family="monospace" font-size="14.00" fill="#000000">python2&#45;libsemanage</text>
</g>
<!-- bind&#45;libs -->
<g id="node12" class="node">
<title>bind&#45;libs</title>
<text text-anchor="middle" x="267" y="-421.01" font-family="monospace" font-size="14.00" fill="#000000">bind&#45;libs</text>
</g>
<!-- bind&#45;libs&#45;lite -->
<g id="node13" class="node">
<title>bind&#45;libs&#45;lite</title>
<text text-anchor="middle" x="300.95" y="-538.99" font-family="monospace" font-size="14.00" fill="#000000">bind&#45;libs&#45;lite</text>
</g>
<!-- GeoIP -->
<g id="node14" class="node">
<title>GeoIP</title>
<text text-anchor="middle" x="364.12" y="-277.78" font-family="monospace" font-size="14.00" fill="#000000">GeoIP</text>
</g>
<!-- python3&#45;bind -->
<g id="node15" class="node">
<title>python3&#45;bind</title>
<text text-anchor="middle" x="167.78" y="-307.39" font-family="monospace" font-size="14.00" fill="#000000">python3&#45;bind</text>
</g>
<!-- perl&#45;Socket6 -->
<g id="node16" class="node">
<title>perl&#45;Socket6</title>
<text text-anchor="middle" x="1370.7" y="-14.3" font-family="monospace" font-size="14.00" fill="#000000">perl&#45;Socket6</text>
</g>
<!-- bind&#45;license -->
<g id="node17" class="node">
<title>bind&#45;license</title>
<text text-anchor="middle" x="75.393" y="-481.18" font-family="monospace" font-size="14.00" fill="#000000">bind&#45;license</text>
</g>
<!-- GeoIP&#45;GeoLite&#45;data -->
<g id="node18" class="node">
<title>GeoIP&#45;GeoLite&#45;data</title>
<text text-anchor="middle" x="365.54" y="-46.441" font-family="monospace" font-size="14.00" fill="#000000">GeoIP&#45;GeoLite&#45;data</text>
</g>
</g>
</svg>
