<?xml version="1.0" encoding="UTF-8" standalone="no"?>
<!DOCTYPE svg PUBLIC "-//W3C//DTD SVG 1.1//EN"
 "http://www.w3.org/Graphics/SVG/1.1/DTD/svg11.dtd">
<!-- Generated by graphviz version 2.40.1 (20161225.0304)
 -->
<!-- Title: G Pages: 1 -->
<svg width="1188pt" height="507pt"
 viewBox="0.00 0.00 1188.40 507.24" xmlns="http://www.w3.org/2000/svg" xmlns:xlink="http://www.w3.org/1999/xlink">
<g id="graph0" class="graph" transform="scale(1 1) rotate(0) translate(176.7153 386.4793)">
<title>G</title>
<polygon fill="#dae2ff" stroke="transparent" points="-176.7153,120.7564 -176.7153,-386.4793 1011.6857,-386.4793 1011.6857,120.7564 -176.7153,120.7564"/>
<polygon fill="#fbb4ae" stroke="#fbb4ae" points="1007.6857,-226.1174 1004.5845,-219.7244 962.0791,-125.8292 890.7686,-109.0806 881.0803,-106.5445 863.8346,-101.1021 853.5992,-97.329 851.5511,-96.52 848.3524,-95.1712 846.6092,-94.3893 837.5021,-90.0551 807.6932,-48.1822 786.1869,-30.1325 780.2545,-9.9807 776.2701,4.6947 772.8142,18.6127 750.8077,55.8204 630.5338,101.5108 609.4899,111.5616 602.3351,115.4338 600.2689,116.7564 578.9713,109.9326 563.5559,106.2712 558.9421,105.3035 547.4869,103.5311 544.5746,103.1609 526.4512,101.8516 516.0947,101.6745 502.0529,102.2081 493.9663,102.7374 490.2494,102.2181 392.2872,73.5211 378.0654,59.5233 352.0927,9.2042 347.4518,1.0277 314.143,-20.072 332.2515,-122.5075 335.1107,-143.0144 336.8653,-152.7062 339.164,-168.9921 341.6581,-193.7191 358.8463,-290.9488 420.2146,-304.4613 429.6365,-306.9731 436.3451,-308.9173 447.596,-312.4392 447.5063,-217.479 447.5063,-217.479 447.596,-312.4392 452.8784,-314.3374 454.8709,-313.8531 466.4321,-311.2939 485.1465,-307.9676 504.2812,-304.9877 592.4867,-324.7766 614.2766,-331.1348 629.03,-336.4294 639.8583,-340.556 643.108,-342.0115 655.5311,-347.8594 656.7773,-176.0779 650.8712,-176.0779 645.2728,-172.3548 645.2728,-172.3548 650.8712,-176.0779 656.7773,-176.0779 662.2493,-172.5651 666.0283,-225.1113 666.3986,-329.7254 678.6501,-307.5037 690.0058,-288.0273 690.7316,-286.9298 700.5179,-273.821 709.0667,-261.5145 709.3314,-261.1623 709.3314,-261.1623 709.0667,-261.5145 700.5179,-273.821 690.7316,-286.9298 690.0058,-288.0273 678.6501,-307.5037 666.3986,-329.7254 666.0283,-225.1113 662.2493,-172.5651 656.7773,-176.0779 655.5311,-347.8594 656.9872,-348.5775 660.4741,-353.0124 795.1367,-351.0146 799.4587,-351.0733 813.0143,-352.0288 813.2576,-281.0339 813.2576,-281.0339 813.0143,-352.0288 827.9654,-353.9336 826.9498,-311.2716 826.9498,-311.2716 827.9654,-353.9336 835.5424,-355.3282 841.4579,-356.7544 857.9608,-361.2082 878.3422,-368.452 889.8604,-373.5231 908.9746,-382.4793 934.7108,-370.5789 955.6992,-359.2636 992.2758,-290.0057 1002.4101,-244.8288 1007.6857,-226.1174 1007.6857,-226.1174"/>
<polygon fill="#fed9a6" stroke="#fed9a6" points="-102.2153,-131.4933 -136.4561,-172.915 -158.0208,-198.0143 -20.5915,-193.5418 24.3477,-195.2882 26.463,-230.2735 31.7785,-189.4643 33.7569,-189.4643 36.8365,-192.467 42.2982,-194.2294 42.2982,-194.2294 36.8365,-192.467 33.7569,-189.4643 31.7785,-189.4643 26.463,-230.2735 24.3477,-195.2882 -20.5915,-193.5418 -158.0208,-198.0143 -172.7153,-214.0028 -144.7939,-247.2596 -48.3757,-299.5548 23.5267,-314.4237 35.4451,-317.552 50.2055,-321.8356 68.0692,-328.4963 92.9163,-338.433 147.1781,-320.0823 211.8459,-331.7295 220.0959,-333.7439 228.161,-332.2795 235.4483,-331.1094 244.9272,-329.9847 254.3521,-329.0641 258.3259,-328.7595 264.0781,-326.4636 358.8463,-290.9488 341.6581,-193.7191 339.164,-168.9921 336.8653,-152.7062 335.1107,-143.0144 332.2515,-122.5075 314.143,-20.072 257.9774,-22.1705 241.3577,-22.1031 229.1182,-21.5461 210.5455,-19.5444 206.14,-22.408 125.6516,-70.0962 85.1791,-67.4299 57.6709,-67.8741 41.1747,-66.7893 31.2154,-65.8627 25.576,-65.031 23.5309,-65.6849 -29.6858,-81.1434 -102.2153,-131.4933 -102.2153,-131.4933"/>
<polyline fill="none" stroke="#000000" points="563.5559,106.2712 558.9421,105.3035 547.4869,103.5311 544.5746,103.1609 526.4512,101.8516 516.0947,101.6745 502.0529,102.2081 493.9663,102.7374 490.2494,102.2181 392.2872,73.5211 378.0654,59.5233 352.0927,9.2042 347.4518,1.0277 314.143,-20.072 332.2515,-122.5075 335.1107,-143.0144 336.8653,-152.7062 339.164,-168.9921 341.6581,-193.7191 358.8463,-290.9488 420.2146,-304.4613 429.6365,-306.9731 436.3451,-308.9173 447.596,-312.4392 452.8784,-314.3374 454.8709,-313.8531 466.4321,-311.2939 485.1465,-307.9676 504.2812,-304.9877 592.4867,-324.7766 614.2766,-331.1348 629.03,-336.4294 639.8583,-340.556 643.108,-342.0115 655.5311,-347.8594 656.9872,-348.5775 660.4741,-353.0124 795.1367,-351.0146 799.4587,-351.0733 813.0143,-352.0288 827.9654,-353.9336 835.5424,-355.3282 841.4579,-356.7544 857.9608,-361.2082 878.3422,-368.452 889.8604,-373.5231 908.9746,-382.4793 934.7108,-370.5789 955.6992,-359.2636 992.2758,-290.0057 1002.4101,-244.8288 1007.6857,-226.1174 1004.5845,-219.7244 962.0791,-125.8292 890.7686,-109.0806 881.0803,-106.5445 863.8346,-101.1021 853.5992,-97.329 851.5511,-96.52 848.3524,-95.1712 846.6092,-94.3893 837.5021,-90.0551 807.6932,-48.1822 786.1869,-30.1325 780.2545,-9.9807 776.2701,4.6947 772.8142,18.6127 750.8077,55.8204 630.5338,101.5108 609.4899,111.5616 602.3351,115.4338 600.2689,116.7564 578.9713,109.9326 563.5559,106.2712 "/>
<polyline fill="none" stroke="#000000" points="220.0959,-333.7439 228.161,-332.2795 235.4483,-331.1094 244.9272,-329.9847 254.3521,-329.0641 258.3259,-328.7595 264.0781,-326.4636 358.8463,-290.9488 341.6581,-193.7191 339.164,-168.9921 336.8653,-152.7062 335.1107,-143.0144 332.2515,-122.5075 314.143,-20.072 257.9774,-22.1705 241.3577,-22.1031 229.1182,-21.5461 210.5455,-19.5444 206.14,-22.408 125.6516,-70.0962 85.1791,-67.4299 57.6709,-67.8741 41.1747,-66.7893 31.2154,-65.8627 25.576,-65.031 23.5309,-65.6849 -29.6858,-81.1434 -102.2153,-131.4933 -136.4561,-172.915 -158.0208,-198.0143 -172.7153,-214.0028 -144.7939,-247.2596 -48.3757,-299.5548 23.5267,-314.4237 35.4451,-317.552 50.2055,-321.8356 68.0692,-328.4963 92.9163,-338.433 147.1781,-320.0823 211.8459,-331.7295 220.0959,-333.7439 "/>
<!-- aajohan&#45;comfortaa&#45;fonts&#45;&gt;fontpackages&#45;filesystem -->
<g id="edge1" class="edge">
<title>aajohan&#45;comfortaa&#45;fonts&#45;&gt;fontpackages&#45;filesystem</title>
<path fill="none" stroke="#444444" stroke-opacity="0.333333" d="M580.7058,-36.1946C595.1509,-62.9431 622.2202,-113.0679 639.0262,-144.1881"/>
<polygon fill="#444444" fill-opacity="0.333333" stroke="#444444" stroke-opacity="0.333333" points="636.0556,-146.0532 643.887,-153.189 642.2149,-142.727 636.0556,-146.0532"/>
</g>
<!-- fontawesome&#45;fonts&#45;&gt;fontpackages&#45;filesystem -->
<g id="edge2" class="edge">
<title>fontawesome&#45;fonts&#45;&gt;fontpackages&#45;filesystem</title>
<path fill="none" stroke="#444444" stroke-opacity="0.333333" d="M788.3864,-218.3765C765.6282,-210.4321 738.7614,-201.0533 715.0342,-192.7706"/>
<polygon fill="#444444" fill-opacity="0.333333" stroke="#444444" stroke-opacity="0.333333" points="716.0195,-189.4075 705.4247,-189.4161 713.7124,-196.0164 716.0195,-189.4075"/>
</g>
<!-- fontconfig&#45;&gt;aajohan&#45;comfortaa&#45;fonts -->
<g id="edge3" class="edge">
<title>fontconfig&#45;&gt;aajohan&#45;comfortaa&#45;fonts</title>
<path fill="none" stroke="#444444" stroke-opacity="0.333333" d="M464.6124,-130.432C485.9833,-107.8215 522.616,-69.0637 546.7913,-43.486"/>
<polygon fill="#444444" fill-opacity="0.333333" stroke="#444444" stroke-opacity="0.333333" points="549.5379,-45.6755 553.8633,-36.0038 544.4507,-40.8671 549.5379,-45.6755"/>
</g>
<!-- fontconfig&#45;&gt;fontpackages&#45;filesystem -->
<g id="edge4" class="edge">
<title>fontconfig&#45;&gt;fontpackages&#45;filesystem</title>
<path fill="none" stroke="#444444" stroke-opacity="0.333333" d="M512.1429,-155.7321C512.298,-155.7492 512.4531,-155.7663 512.6085,-155.7835"/>
<polygon fill="#444444" fill-opacity="0.333333" stroke="#444444" stroke-opacity="0.333333" points="509.3587,-158.9459 519.6824,-156.5645 510.1269,-151.9881 509.3587,-158.9459"/>
</g>
<!-- fontconfig&#45;&gt;freetype -->
<g id="edge5" class="edge">
<title>fontconfig&#45;&gt;freetype</title>
<path fill="none" stroke="#444444" stroke-opacity="0.333333" d="M382.8593,-156.8571C355.866,-160.312 324.5696,-164.3177 297.5912,-167.7708"/>
<polygon fill="#444444" fill-opacity="0.333333" stroke="#444444" stroke-opacity="0.333333" points="296.9555,-164.3235 287.4808,-169.0648 297.8443,-171.2668 296.9555,-164.3235"/>
</g>
<!-- freetype&#45;&gt;libpng -->
<g id="edge6" class="edge">
<title>freetype&#45;&gt;libpng</title>
<path fill="none" stroke="#444444" stroke-opacity="0.333333" d="M179.1326,-179.7559C153.1422,-181.5538 122.0808,-183.7024 96.1849,-185.4938"/>
<polygon fill="#444444" fill-opacity="0.333333" stroke="#444444" stroke-opacity="0.333333" points="95.904,-182.0047 86.1694,-186.1866 96.3871,-188.9881 95.904,-182.0047"/>
</g>
<!-- aajohan&#45;comfortaa&#45;fonts -->
<g id="node1" class="node">
<title>aajohan&#45;comfortaa&#45;fonts</title>
<text text-anchor="middle" x="570.88" y="-14.3" font-family="monospace" font-size="14.00" fill="#000000">aajohan&#45;comfortaa&#45;fonts</text>
</g>
<!-- fontpackages&#45;filesystem -->
<g id="node2" class="node">
<title>fontpackages&#45;filesystem</title>
<text text-anchor="middle" x="653.7" y="-167.66" font-family="monospace" font-size="14.00" fill="#000000">fontpackages&#45;filesystem</text>
</g>
<!-- fontawesome&#45;fonts -->
<g id="node3" class="node">
<title>fontawesome&#45;fonts</title>
<text text-anchor="middle" x="840.39" y="-232.83" font-family="monospace" font-size="14.00" fill="#000000">fontawesome&#45;fonts</text>
</g>
<!-- fontconfig -->
<g id="node4" class="node">
<title>fontconfig</title>
<text text-anchor="middle" x="447.45" y="-144.89" font-family="monospace" font-size="14.00" fill="#000000">fontconfig</text>
</g>
<!-- freetype -->
<g id="node5" class="node">
<title>freetype</title>
<text text-anchor="middle" x="233.14" y="-172.32" font-family="monospace" font-size="14.00" fill="#000000">freetype</text>
</g>
<!-- libpng -->
<g id="node6" class="node">
<title>libpng</title>
<text text-anchor="middle" x="42.896" y="-185.48" font-family="monospace" font-size="14.00" fill="#000000">libpng</text>
</g>
</g>
</svg>
