<?xml version="1.0" encoding="UTF-8" standalone="no"?>
<!DOCTYPE svg PUBLIC "-//W3C//DTD SVG 1.1//EN"
 "http://www.w3.org/Graphics/SVG/1.1/DTD/svg11.dtd">
<!-- Generated by graphviz version 2.40.1 (20161225.0304)
 -->
<!-- Title: G Pages: 1 -->
<svg width="1064pt" height="846pt"
 viewBox="0.00 0.00 1064.10 846.16" xmlns="http://www.w3.org/2000/svg" xmlns:xlink="http://www.w3.org/1999/xlink">
<g id="graph0" class="graph" transform="scale(1 1) rotate(0) translate(98.7773 717.313)">
<title>G</title>
<polygon fill="#dae2ff" stroke="transparent" points="-98.7773,128.8497 -98.7773,-717.313 965.3276,-717.313 965.3276,128.8497 -98.7773,128.8497"/>
<polygon fill="#fed9a6" stroke="#fed9a6" points="627.9178,-406.3603 624.4348,-483.8545 624.4348,-483.8545 627.9178,-406.3603 617.8014,-406.1007 605.1705,-404.8685 603.1126,-404.5942 591.9149,-385.8008 581.8707,-366.9824 523.9258,-381.6758 519.348,-386.6329 519.632,-386.9235 519.7762,-387.2312 516.5592,-417.9063 512.5782,-386.8812 512.5782,-386.8812 516.5592,-417.9063 519.7762,-387.2312 519.632,-386.9235 519.348,-386.6329 523.9258,-381.6758 581.8707,-366.9824 571.6306,-344.9595 552.1877,-308.6479 536.5485,-284.4644 623.4858,-205.1192 631.109,-197.8062 513.0424,-189.8179 508.9538,-185.9933 507.1722,-185.4669 505.5104,-184.3078 503.7513,-184.3078 502.9448,-184.0727 497.517,-184.0727 496.5139,-183.7801 493.6609,-183.7801 493.6609,-183.7801 496.5139,-183.7801 497.517,-184.0727 502.9448,-184.0727 503.7513,-184.3078 505.5104,-184.3078 507.1722,-185.4669 508.9538,-185.9933 513.0424,-189.8179 631.109,-197.8062 635.9675,-193.3821 648.0463,-181.3484 652.6532,-176.3681 524.8686,-180.6909 513.1995,-177.5927 513.1995,-177.5927 524.8686,-180.6909 652.6532,-176.3681 662.1193,-166.9934 675.1636,-152.5663 621.3514,-86.5637 615.9136,-38.4892 612.1755,21.8708 611.7833,32.8787 566.7258,95.6828 519.7585,118.0373 494.8981,120.0418 484.6093,121.0879 478.2512,122.136 472.4839,-14.6789 477.7654,-13.127 483.3965,-14.8713 487.1707,-18.4221 484.4977,-20.7117 484.4977,-20.7117 487.1707,-18.4221 483.3965,-14.8713 477.7654,-13.127 472.4839,-14.6789 478.2512,122.136 463.666,124.8497 459.8688,123.3531 463.1442,32.9562 463.1442,32.9562 459.8688,123.3531 434.556,114.5494 389.6646,82.0422 346.3506,32.1472 333.7574,-18 319.4218,-61.606 239.6302,-125.9792 245.2127,-157.2056 247.8604,-160.3324 254.2259,-166.9503 263.7094,-177.614 267.1069,-181.3005 296.0028,-210.4525 360.9851,-279.6293 344.4596,-308.8779 328.7874,-339.5191 314.7212,-376.0969 295.5355,-413.4689 374.1195,-391.7899 376.334,-389.3734 378.117,-388.8159 383.82,-429.1376 384.3809,-386.7008 389.2963,-386.7008 389.53,-386.7708 388.9427,-446.066 395.6025,-387.0436 399.3337,-387.0436 400.1775,-386.7966 404.7386,-386.7966 404.7386,-386.7966 400.1775,-386.7966 399.3337,-387.0436 395.6025,-387.0436 388.9427,-446.066 389.53,-386.7708 389.2963,-386.7008 384.3809,-386.7008 383.82,-429.1376 378.117,-388.8159 376.334,-389.3734 374.1195,-391.7899 295.5355,-413.4689 294.2809,-415.6895 287.4228,-416.7431 266.3902,-418.5197 258.5358,-419.6958 247.2933,-422.1172 235.8002,-425.3471 231.6822,-426.6378 228.4528,-427.7549 221.3828,-430.4316 210.2304,-435.3855 201.89,-439.635 186.8551,-448.2878 170.2224,-459.4866 155.2075,-483.1586 115.4348,-539.8423 133.5967,-553.743 227.3962,-628.5499 261.4801,-643.49 279.5061,-645.5982 294.4121,-647.6502 305.9073,-649.4686 307.0166,-647.4576 303.0039,-559.9211 303.0039,-559.9211 307.0166,-647.4576 307.0438,-647.4127 309.0645,-504.729 313.8179,-504.729 316.929,-558.504 320.016,-507.9282 324.9707,-509.4305 331.1989,-507.5161 334.1422,-504.9944 329.6121,-500.7774 325.674,-499.6638 325.674,-499.6638 329.6121,-500.7774 334.1422,-504.9944 335.6288,-504.9944 335.7365,-505.0266 340.55,-505.0266 343.6821,-548.7022 343.4316,-596.2014 351.8119,-586.6717 358.9318,-579.1547 364.5553,-573.6874 365.8853,-572.2578 379.9007,-558.5155 420.1396,-513.4867 426.1322,-508.1117 431.3928,-502.947 441.6884,-491.9609 444.3741,-488.8825 449.554,-482.518 450.2969,-481.5439 457.2293,-481.7975 462.5089,-481.825 467.4729,-481.695 466.1866,-444.2466 466.1866,-444.2466 467.4729,-481.695 462.5089,-481.825 457.2293,-481.7975 450.2969,-481.5439 449.554,-482.518 444.3741,-488.8825 441.6884,-491.9609 431.3928,-502.947 426.1322,-508.1117 420.1396,-513.4867 379.9007,-558.5155 365.8853,-572.2578 364.5553,-573.6874 358.9318,-579.1547 351.8119,-586.6717 343.4316,-596.2014 343.6821,-548.7022 340.55,-505.0266 335.7365,-505.0266 335.6288,-504.9944 334.1422,-504.9944 331.1989,-507.5161 324.9707,-509.4305 320.016,-507.9282 316.929,-558.504 313.8179,-504.729 309.0645,-504.729 307.0438,-647.4127 307.0166,-647.4576 305.9073,-649.4686 332.5849,-673.7063 421.734,-699.6331 439.2722,-705.1879 441.688,-706.0136 444.7483,-706.532 460.2238,-710.2328 461.7716,-710.6387 463.5828,-711.1555 466.6392,-581.4003 471.5945,-578.4507 472.96,-576.7819 472.8611,-576.6651 472.8611,-576.6651 472.96,-576.7819 471.5945,-578.4507 466.6392,-581.4003 463.5828,-711.1555 470.4455,-713.2745 470.5536,-713.313 489.6471,-710.4203 503.3223,-709.2497 498.7422,-583.2179 527.4938,-579.9641 582.5131,-580.0153 586.5438,-583.8522 587.7945,-585.1202 592.6929,-494.9221 597.9983,-493.3717 601.795,-490.1011 598.2589,-487.001 598.2589,-487.001 601.795,-490.1011 597.9983,-493.3717 592.6929,-494.9221 587.7945,-585.1202 586.5438,-583.8522 582.5131,-580.0153 527.4938,-579.9641 498.7422,-583.2179 503.3223,-709.2497 547.056,-706.4668 641.5081,-654.0095 644.6433,-654.029 761.192,-529.6346 764.0345,-490.02 769.9414,-447.278 680.1679,-415.7556 670.4553,-412.6919 663.373,-410.7152 651.1161,-408.181 646.4642,-407.389 643.8993,-407.0455 642.3439,-406.8933 637.4931,-406.5928 628.3513,-406.3559 627.9178,-406.3603 627.9178,-406.3603"/>
<polygon fill="#ccebc5" stroke="#ccebc5" points="961.3276,-235.6126 955.827,-271.1382 950.4595,-323.5546 946.2471,-379.6209 921.8228,-393.9057 836.886,-416.768 822.201,-421.4419 825.6197,-290.399 826.7809,-289.0614 826.1893,-288.3812 820.1691,-284.7259 820.1691,-284.7259 826.1893,-288.3812 826.7809,-289.0614 825.6197,-290.399 822.201,-421.4419 821.0021,-421.8524 812.0031,-425.1536 798.6734,-430.6928 774.556,-441.8788 769.9414,-447.278 680.1679,-415.7556 670.4553,-412.6919 663.373,-410.7152 651.1161,-408.181 646.4642,-407.389 643.8993,-407.0455 642.3439,-406.8933 637.4931,-406.5928 628.3513,-406.3559 627.9178,-406.3603 617.8014,-406.1007 605.1705,-404.8685 603.1126,-404.5942 591.9149,-385.8008 581.8707,-366.9824 571.6306,-344.9595 552.1877,-308.6479 536.5485,-284.4644 623.4858,-205.1192 631.109,-197.8062 635.9675,-193.3821 648.0463,-181.3484 652.6532,-176.3681 662.1193,-166.9934 675.1636,-152.5663 675.5295,-152.6369 674.6348,-266.899 674.6348,-266.899 675.5295,-152.6369 697.0099,-156.0425 776.4657,-137.0898 787.7748,-141.2714 802.9791,-146.5614 818.1543,-151.5008 837.2394,-155.9937 868.4763,-161.935 956.5541,-229.4744 961.3276,-235.6126 961.3276,-235.6126"/>
<polygon fill="#fbb4ae" stroke="#fbb4ae" points="-79.9975,-356.3796 -81.4958,-365.2145 -94.7773,-424.064 -93.5131,-427.9957 -50.517,-463.4405 32.2158,-502.7896 36.168,-504.7693 38.4939,-430.1932 38.4939,-430.1932 36.168,-504.7693 51.3185,-513.1387 59.4319,-517.8239 57.062,-401.1836 57.062,-401.1836 59.4319,-517.8239 63.7242,-520.5172 73.0537,-526.6082 74.6918,-527.7604 92.6142,-540.833 85.8741,-367.3919 141.2062,-380.9663 169.5101,-457.4266 177.4669,-336.7395 181.6519,-333.8972 187.2616,-376.825 187.8211,-369.2505 187.3715,-330.3686 187.3715,-330.3686 187.8211,-369.2505 187.2616,-376.825 181.6519,-333.8972 177.4669,-336.7395 169.5101,-457.4266 141.2062,-380.9663 85.8741,-367.3919 92.6142,-540.833 94.5248,-542.2736 115.4348,-539.8423 155.2075,-483.1586 170.2224,-459.4866 186.8551,-448.2878 201.89,-439.635 210.2304,-435.3855 221.3828,-430.4316 228.4528,-427.7549 231.6822,-426.6378 235.8002,-425.3471 247.2933,-422.1172 258.5358,-419.6958 257.5645,-385.199 252.9988,-330.7615 252.9988,-330.7615 257.5645,-385.199 258.5358,-419.6958 266.3902,-418.5197 287.4228,-416.7431 294.2809,-415.6895 295.5355,-413.4689 314.7212,-376.0969 328.7874,-339.5191 344.4596,-308.8779 360.9851,-279.6293 296.0028,-210.4525 267.1069,-181.3005 263.7094,-177.614 254.2259,-166.9503 247.8604,-160.3324 245.2127,-157.2056 239.6302,-125.9792 133.5438,-77.0453 105.3295,-86.5716 86.7323,-92.4639 73.4021,-96.1188 72.9087,-96.2435 23.6437,-107.6409 12.7957,-113.0968 -5.4138,-134.6894 -44.1201,-203.5981 -46.1476,-211.6554 -46.7217,-220.2946 -51.5438,-261.1553 -70.2348,-287.4159 -79.9975,-356.3796 -79.9975,-356.3796"/>
<polyline fill="none" stroke="#000000" points="319.4218,-61.606 239.6302,-125.9792 245.2127,-157.2056 247.8604,-160.3324 254.2259,-166.9503 263.7094,-177.614 267.1069,-181.3005 296.0028,-210.4525 360.9851,-279.6293 344.4596,-308.8779 328.7874,-339.5191 314.7212,-376.0969 295.5355,-413.4689 294.2809,-415.6895 287.4228,-416.7431 266.3902,-418.5197 258.5358,-419.6958 247.2933,-422.1172 235.8002,-425.3471 231.6822,-426.6378 228.4528,-427.7549 221.3828,-430.4316 210.2304,-435.3855 201.89,-439.635 186.8551,-448.2878 170.2224,-459.4866 155.2075,-483.1586 115.4348,-539.8423 133.5967,-553.743 227.3962,-628.5499 261.4801,-643.49 279.5061,-645.5982 294.4121,-647.6502 305.9073,-649.4686 332.5849,-673.7063 421.734,-699.6331 439.2722,-705.1879 441.688,-706.0136 444.7483,-706.532 460.2238,-710.2328 461.7716,-710.6387 463.5828,-711.1555 470.4455,-713.2745 470.5536,-713.313 489.6471,-710.4203 503.3223,-709.2497 547.056,-706.4668 641.5081,-654.0095 644.6433,-654.029 761.192,-529.6346 764.0345,-490.02 769.9414,-447.278 680.1679,-415.7556 670.4553,-412.6919 663.373,-410.7152 651.1161,-408.181 646.4642,-407.389 643.8993,-407.0455 642.3439,-406.8933 637.4931,-406.5928 628.3513,-406.3559 627.9178,-406.3603 617.8014,-406.1007 605.1705,-404.8685 603.1126,-404.5942 591.9149,-385.8008 581.8707,-366.9824 571.6306,-344.9595 552.1877,-308.6479 536.5485,-284.4644 623.4858,-205.1192 631.109,-197.8062 635.9675,-193.3821 648.0463,-181.3484 652.6532,-176.3681 662.1193,-166.9934 675.1636,-152.5663 621.3514,-86.5637 615.9136,-38.4892 612.1755,21.8708 611.7833,32.8787 566.7258,95.6828 519.7585,118.0373 494.8981,120.0418 484.6093,121.0879 478.2512,122.136 463.666,124.8497 459.8688,123.3531 434.556,114.5494 389.6646,82.0422 346.3506,32.1472 333.7574,-18 319.4218,-61.606 "/>
<polyline fill="none" stroke="#000000" points="643.8993,-407.0455 646.4642,-407.389 651.1161,-408.181 663.373,-410.7152 670.4553,-412.6919 680.1679,-415.7556 769.9414,-447.278 774.556,-441.8788 798.6734,-430.6928 812.0031,-425.1536 821.0021,-421.8524 822.201,-421.4419 836.886,-416.768 921.8228,-393.9057 946.2471,-379.6209 950.4595,-323.5546 955.827,-271.1382 961.3276,-235.6126 956.5541,-229.4744 868.4763,-161.935 837.2394,-155.9937 818.1543,-151.5008 802.9791,-146.5614 787.7748,-141.2714 776.4657,-137.0898 697.0099,-156.0425 675.5295,-152.6369 675.1636,-152.5663 662.1193,-166.9934 652.6532,-176.3681 648.0463,-181.3484 635.9675,-193.3821 631.109,-197.8062 623.4858,-205.1192 536.5485,-284.4644 552.1877,-308.6479 571.6306,-344.9595 581.8707,-366.9824 591.9149,-385.8008 603.1126,-404.5942 605.1705,-404.8685 617.8014,-406.1007 627.9178,-406.3603 628.3513,-406.3559 637.4931,-406.5928 642.3439,-406.8933 643.8993,-407.0455 "/>
<polyline fill="none" stroke="#000000" points="221.3828,-430.4316 228.4528,-427.7549 231.6822,-426.6378 235.8002,-425.3471 247.2933,-422.1172 258.5358,-419.6958 266.3902,-418.5197 287.4228,-416.7431 294.2809,-415.6895 295.5355,-413.4689 314.7212,-376.0969 328.7874,-339.5191 344.4596,-308.8779 360.9851,-279.6293 296.0028,-210.4525 267.1069,-181.3005 263.7094,-177.614 254.2259,-166.9503 247.8604,-160.3324 245.2127,-157.2056 239.6302,-125.9792 133.5438,-77.0453 105.3295,-86.5716 86.7323,-92.4639 73.4021,-96.1188 72.9087,-96.2435 23.6437,-107.6409 12.7957,-113.0968 -5.4138,-134.6894 -44.1201,-203.5981 -46.1476,-211.6554 -46.7217,-220.2946 -51.5438,-261.1553 -70.2348,-287.4159 -79.9975,-356.3796 -81.4958,-365.2145 -94.7773,-424.064 -93.5131,-427.9957 -50.517,-463.4405 32.2158,-502.7896 36.168,-504.7693 51.3185,-513.1387 59.4319,-517.8239 63.7242,-520.5172 73.0537,-526.6082 74.6918,-527.7604 92.6142,-540.833 94.5248,-542.2736 115.4348,-539.8423 155.2075,-483.1586 170.2224,-459.4866 186.8551,-448.2878 201.89,-439.635 210.2304,-435.3855 221.3828,-430.4316 "/>
<!-- javapackages&#45;tools&#45;&gt;which -->
<g id="edge1" class="edge">
<title>javapackages&#45;tools&#45;&gt;which</title>
<path fill="none" stroke="#444444" stroke-opacity="0.333333" d="M463.6756,-165.9191C466.4892,-137.1059 472.0127,-80.5425 475.3544,-46.321"/>
<polygon fill="#444444" fill-opacity="0.333333" stroke="#444444" stroke-opacity="0.333333" points="478.868,-46.3515 476.3566,-36.0586 471.9012,-45.6711 478.868,-46.3515"/>
</g>
<!-- javapackages&#45;tools&#45;&gt;java&#45;1.8.0&#45;openjdk&#45;headless -->
<g id="edge2" class="edge">
<title>javapackages&#45;tools&#45;&gt;java&#45;1.8.0&#45;openjdk&#45;headless</title>
<path fill="none" stroke="#444444" stroke-opacity="0.333333" d="M456.6687,-202.0945C451.1185,-237.4923 445.8574,-316.1267 445.9517,-358.4754"/>
<polygon fill="#444444" fill-opacity="0.333333" stroke="#444444" stroke-opacity="0.333333" points="442.4547,-358.7099 446.1014,-368.6573 449.4539,-358.6069 442.4547,-358.7099"/>
</g>
<!-- java&#45;1.8.0&#45;openjdk&#45;headless&#45;&gt;javapackages&#45;tools -->
<g id="edge3" class="edge">
<title>java&#45;1.8.0&#45;openjdk&#45;headless&#45;&gt;javapackages&#45;tools</title>
<path fill="none" stroke="#444444" stroke-opacity="0.333333" d="M454.2313,-368.6955C459.7815,-333.2977 465.0426,-254.6633 464.9483,-212.3146"/>
<polygon fill="#444444" fill-opacity="0.333333" stroke="#444444" stroke-opacity="0.333333" points="468.4453,-212.0801 464.7986,-202.1327 461.4461,-212.1831 468.4453,-212.0801"/>
</g>
<!-- java&#45;1.8.0&#45;openjdk&#45;headless&#45;&gt;freetype -->
<g id="edge4" class="edge">
<title>java&#45;1.8.0&#45;openjdk&#45;headless&#45;&gt;freetype</title>
<path fill="none" stroke="#444444" stroke-opacity="0.333333" d="M506.2739,-368.7752C532.0557,-360.6673 562.5832,-351.067 589.074,-342.7361"/>
<polygon fill="#444444" fill-opacity="0.333333" stroke="#444444" stroke-opacity="0.333333" points="590.1455,-346.0682 598.6349,-339.7294 588.0454,-339.3906 590.1455,-346.0682"/>
</g>
<!-- java&#45;1.8.0&#45;openjdk&#45;headless&#45;&gt;libjpeg&#45;turbo -->
<g id="edge5" class="edge">
<title>java&#45;1.8.0&#45;openjdk&#45;headless&#45;&gt;libjpeg&#45;turbo</title>
<path fill="none" stroke="#444444" stroke-opacity="0.333333" d="M429.8975,-404.9427C408.9444,-424.8645 375.163,-456.9831 351.6297,-479.3581"/>
<polygon fill="#444444" fill-opacity="0.333333" stroke="#444444" stroke-opacity="0.333333" points="349.2139,-476.8255 344.3783,-486.2525 354.0372,-481.8986 349.2139,-476.8255"/>
</g>
<!-- java&#45;1.8.0&#45;openjdk&#45;headless&#45;&gt;lksctp&#45;tools -->
<g id="edge6" class="edge">
<title>java&#45;1.8.0&#45;openjdk&#45;headless&#45;&gt;lksctp&#45;tools</title>
<path fill="none" stroke="#444444" stroke-opacity="0.333333" d="M450.4139,-405.0224C453.0139,-438.3154 458.5464,-509.157 461.6363,-548.7221"/>
<polygon fill="#444444" fill-opacity="0.333333" stroke="#444444" stroke-opacity="0.333333" points="458.1524,-549.0657 462.4204,-558.7628 465.1311,-548.5206 458.1524,-549.0657"/>
</g>
<!-- java&#45;1.8.0&#45;openjdk&#45;headless&#45;&gt;copy&#45;jdk&#45;configs -->
<g id="edge7" class="edge">
<title>java&#45;1.8.0&#45;openjdk&#45;headless&#45;&gt;copy&#45;jdk&#45;configs</title>
<path fill="none" stroke="#444444" stroke-opacity="0.333333" d="M376.6009,-368.7248C353.9099,-363.0621 328.7012,-356.7711 305.382,-350.9516"/>
<polygon fill="#444444" fill-opacity="0.333333" stroke="#444444" stroke-opacity="0.333333" points="306.0665,-347.5151 295.5166,-348.4896 304.3715,-354.3068 306.0665,-347.5151"/>
</g>
<!-- java&#45;1.8.0&#45;openjdk&#45;headless&#45;&gt;tzdata&#45;java -->
<g id="edge8" class="edge">
<title>java&#45;1.8.0&#45;openjdk&#45;headless&#45;&gt;tzdata&#45;java</title>
<path fill="none" stroke="#444444" stroke-opacity="0.333333" d="M474.3111,-405.0078C497.874,-421.9608 533.1453,-447.3374 559.0185,-465.9525"/>
<polygon fill="#444444" fill-opacity="0.333333" stroke="#444444" stroke-opacity="0.333333" points="557.2406,-468.9851 567.4021,-471.9843 561.3288,-463.3029 557.2406,-468.9851"/>
</g>
<!-- freetype&#45;&gt;libpng -->
<g id="edge9" class="edge">
<title>freetype&#45;&gt;libpng</title>
<path fill="none" stroke="#444444" stroke-opacity="0.333333" d="M707.0688,-311.6152C725.487,-307.8505 746.0233,-303.653 764.3356,-299.91"/>
<polygon fill="#444444" fill-opacity="0.333333" stroke="#444444" stroke-opacity="0.333333" points="765.1562,-303.3148 774.2527,-297.883 763.7543,-296.4566 765.1562,-303.3148"/>
</g>
<!-- copy&#45;jdk&#45;configs&#45;&gt;lua -->
<g id="edge10" class="edge">
<title>copy&#45;jdk&#45;configs&#45;&gt;lua</title>
<path fill="none" stroke="#444444" stroke-opacity="0.333333" d="M195.5057,-312.2275C173.9854,-298.0574 143.9532,-278.2825 120.6132,-262.9142"/>
<polygon fill="#444444" fill-opacity="0.333333" stroke="#444444" stroke-opacity="0.333333" points="122.3041,-259.837 112.0272,-257.2607 118.4545,-265.6834 122.3041,-259.837"/>
</g>
<!-- copy&#45;jdk&#45;configs&#45;&gt;lua&#45;posix -->
<g id="edge11" class="edge">
<title>copy&#45;jdk&#45;configs&#45;&gt;lua&#45;posix</title>
<path fill="none" stroke="#444444" stroke-opacity="0.333333" d="M130.1261,-348.4897C129.6381,-348.5844 129.1506,-348.6791 128.6638,-348.7736"/>
<polygon fill="#444444" fill-opacity="0.333333" stroke="#444444" stroke-opacity="0.333333" points="127.7017,-345.3949 118.552,-350.7367 129.0358,-352.2666 127.7017,-345.3949"/>
</g>
<!-- lua&#45;posix&#45;&gt;lua -->
<g id="edge12" class="edge">
<title>lua&#45;posix&#45;&gt;lua</title>
<path fill="none" stroke="#444444" stroke-opacity="0.333333" d="M62.9455,-344.1401C67.1686,-323.9948 74.0413,-291.2095 78.973,-267.6834"/>
<polygon fill="#444444" fill-opacity="0.333333" stroke="#444444" stroke-opacity="0.333333" points="82.4597,-268.1097 81.0859,-257.6043 75.6086,-266.6734 82.4597,-268.1097"/>
</g>
<!-- javapackages&#45;tools -->
<g id="node1" class="node">
<title>javapackages&#45;tools</title>
<text text-anchor="middle" x="461.91" y="-180.3" font-family="monospace" font-size="14.00" fill="#000000">javapackages&#45;tools</text>
</g>
<!-- which -->
<g id="node2" class="node">
<title>which</title>
<text text-anchor="middle" x="478.12" y="-14.3" font-family="monospace" font-size="14.00" fill="#000000">which</text>
</g>
<!-- java&#45;1.8.0&#45;openjdk&#45;headless -->
<g id="node3" class="node">
<title>java&#45;1.8.0&#45;openjdk&#45;headless</title>
<text text-anchor="middle" x="448.99" y="-383.09" font-family="monospace" font-size="14.00" fill="#000000">java&#45;1.8.0&#45;openjdk&#45;headless</text>
</g>
<!-- freetype -->
<g id="node4" class="node">
<title>freetype</title>
<text text-anchor="middle" x="652.69" y="-319.03" font-family="monospace" font-size="14.00" fill="#000000">freetype</text>
</g>
<!-- libjpeg&#45;turbo -->
<g id="node5" class="node">
<title>libjpeg&#45;turbo</title>
<text text-anchor="middle" x="325.06" y="-500.92" font-family="monospace" font-size="14.00" fill="#000000">libjpeg&#45;turbo</text>
</g>
<!-- lksctp&#45;tools -->
<g id="node6" class="node">
<title>lksctp&#45;tools</title>
<text text-anchor="middle" x="463.84" y="-573.24" font-family="monospace" font-size="14.00" fill="#000000">lksctp&#45;tools</text>
</g>
<!-- copy&#45;jdk&#45;configs -->
<g id="node7" class="node">
<title>copy&#45;jdk&#45;configs</title>
<text text-anchor="middle" x="223.15" y="-326.73" font-family="monospace" font-size="14.00" fill="#000000">copy&#45;jdk&#45;configs</text>
</g>
<!-- tzdata&#45;java -->
<g id="node8" class="node">
<title>tzdata&#45;java</title>
<text text-anchor="middle" x="592.47" y="-486.32" font-family="monospace" font-size="14.00" fill="#000000">tzdata&#45;java</text>
</g>
<!-- libpng -->
<g id="node9" class="node">
<title>libpng</title>
<text text-anchor="middle" x="817.37" y="-285.37" font-family="monospace" font-size="14.00" fill="#000000">libpng</text>
</g>
<!-- lua -->
<g id="node10" class="node">
<title>lua</title>
<text text-anchor="middle" x="84.902" y="-235.7" font-family="monospace" font-size="14.00" fill="#000000">lua</text>
</g>
<!-- lua&#45;posix -->
<g id="node11" class="node">
<title>lua&#45;posix</title>
<text text-anchor="middle" x="59.145" y="-358.57" font-family="monospace" font-size="14.00" fill="#000000">lua&#45;posix</text>
</g>
</g>
</svg>
