<?xml version="1.0" encoding="UTF-8" standalone="no"?>
<!DOCTYPE svg PUBLIC "-//W3C//DTD SVG 1.1//EN"
 "http://www.w3.org/Graphics/SVG/1.1/DTD/svg11.dtd">
<!-- Generated by graphviz version 2.40.1 (20161225.0304)
 -->
<!-- Title: G Pages: 1 -->
<svg width="2181pt" height="1333pt"
 viewBox="0.00 0.00 2180.50 1333.17" xmlns="http://www.w3.org/2000/svg" xmlns:xlink="http://www.w3.org/1999/xlink">
<g id="graph0" class="graph" transform="scale(1 1) rotate(0) translate(79.6386 1218.3231)">
<title>G</title>
<polygon fill="#dae2ff" stroke="transparent" points="-79.6386,114.8425 -79.6386,-1218.3231 2100.8628,-1218.3231 2100.8628,114.8425 -79.6386,114.8425"/>
<polygon fill="#e4ced8" stroke="#e4ced8" points="45.11,-622.554 61.9639,-688.3382 77.2832,-761.0475 166.6537,-795.1136 166.907,-795.1093 172.9353,-795.1523 191.2031,-795.7272 195.071,-796.0366 196.7116,-735.0587 202.3158,-657.7194 203.2344,-657.3941 198.289,-629.397 197.7515,-591.3687 184.2111,-582.9621 190.323,-574.6854 190.323,-574.6854 184.2111,-582.9621 197.7515,-591.3687 198.289,-629.397 203.2344,-657.3941 202.3158,-657.7194 196.7116,-735.0587 195.071,-796.0366 209.5578,-797.9017 210.6351,-703.0703 214.9479,-658.578 219.8126,-661.8333 219.8126,-661.8333 214.9479,-658.578 210.6351,-703.0703 209.5578,-797.9017 212.4023,-798.4066 228.9839,-791.9176 231.2383,-791.1625 246.6951,-786.8333 247.7935,-714.9219 247.7935,-714.9219 246.6951,-786.8333 261.525,-783.5009 271.6702,-781.5049 268.9048,-709.3543 263.1752,-657.7826 263.7502,-657.5764 268.9538,-657.5764 270.3679,-655.8553 270.5272,-605.4032 273.4558,-605.3325 278.1564,-604.8804 279.9642,-604.8376 289.8488,-605.3145 292.4836,-605.6298 295.2937,-606.1683 306.3322,-609.0965 305.8898,-552.6399 305.603,-552.5395 300.5372,-552.5395 299.7334,-552.2524 293.572,-552.2524 293.2308,-552.1293 292.5261,-551.1234 287.1313,-547.5502 281.0628,-547.5502 279.3192,-513.5479 287.0161,-520.0563 295.3306,-525.3239 299.5727,-527.0683 306.5598,-528.4902 311.1623,-528.4684 312.3973,-509.1037 317.8308,-506.0434 319.6672,-528.2191 323.2151,-528.2114 325.7043,-504.5284 330.7162,-504.5284 331.2701,-504.3373 330.3855,-460.4501 337.4084,-459.9959 338.1635,-460.0182 339.9656,-416.1515 339.976,-416.1476 337.9493,-368.1982 338.2651,-360.674 327.9832,-352.18 384.7901,-338.1241 388.3066,-334.5947 391.9406,-334.5947 392.298,-334.7253 392.298,-334.7253 391.9406,-334.5947 388.3066,-334.5947 384.7901,-338.1241 327.9832,-352.18 338.2651,-360.674 337.9493,-368.1982 339.976,-416.1476 339.9656,-416.1515 338.1635,-460.0182 337.4084,-459.9959 330.3855,-460.4501 331.2701,-504.3373 330.7162,-504.5284 331.7441,-530.0225 337.0571,-532.2712 337.0571,-532.2712 331.7441,-530.0225 330.7162,-504.5284 325.7043,-504.5284 323.2151,-528.2114 319.6672,-528.2191 317.8308,-506.0434 312.3973,-509.1037 311.1623,-528.4684 306.5598,-528.4902 299.5727,-527.0683 295.3306,-525.3239 287.0161,-520.0563 279.3192,-513.5479 281.0628,-547.5502 287.1313,-547.5502 292.5261,-551.1234 293.2308,-552.1293 293.572,-552.2524 299.7334,-552.2524 300.5372,-552.5395 305.603,-552.5395 305.8898,-552.6399 306.3322,-609.0965 295.2937,-606.1683 292.4836,-605.6298 289.8488,-605.3145 279.9642,-604.8376 278.1564,-604.8804 273.4558,-605.3325 270.5272,-605.4032 270.3679,-655.8553 268.9538,-657.5764 263.7502,-657.5764 263.1752,-657.7826 268.9048,-709.3543 271.6702,-781.5049 272.7852,-781.3479 385.3242,-768.604 355.4433,-657.57 351.3172,-629.2199 358.2284,-618.37 379.6135,-572.2314 410.6009,-557.1023 413.4684,-514.5258 412.834,-504.27 413.0054,-503.4001 415.7834,-462.1527 420.9248,-457.618 454.0597,-458.4823 454.7409,-458.445 455.7728,-458.4696 461.1725,-458.1623 462.1704,-458.1841 466.1618,-458.5894 472.9588,-458.7251 473.7526,-458.6765 477.2288,-458.7386 482.7637,-458.3874 483.4674,-458.3985 486.1934,-458.658 491.5274,-458.7314 493.1142,-458.6241 498.1798,-458.6833 500.6986,-458.5075 508.423,-458.5818 533.2056,-460.7764 559.4891,-422.5548 565.0772,-421.2709 578.5429,-420.0371 586.0353,-419.8745 587.4969,-419.7419 588.4098,-419.7229 591.1293,-419.8554 596.4385,-419.7483 606.1738,-418.8768 613.3633,-417.7362 614.4592,-417.487 623.1956,-393.6339 625.9449,-381.6649 627.5325,-364.1051 627.7142,-363.2965 643.2141,-320.9768 650.8563,-320.1249 654.2932,-319.9306 654.7257,-319.9298 657.3348,-317.1874 671.5084,-303.9152 675.4244,-300.7697 715.0916,-273.9026 728.1834,-263.3527 729.5338,-262.1116 734.537,-256.896 736.8043,-254.2444 738.2976,-252.29 747.1395,-243.7224 756.2194,-234.0594 767.2242,-221.3383 767.3792,-221.146 772.4305,-214.4004 778.5894,-205.5882 787.8764,-191.4093 788.989,-189.6078 789.7128,-188.3641 751.1088,-144.0582 705.8197,-123.9276 668.433,-80.2366 610.0618,-51.5657 601.9218,-54.0635 579.3964,-60.3527 572.408,-62.1032 573.4546,-89.2394 580.3485,-182.3398 573.742,-182.3398 567.7729,-186.6898 568.719,-188.0984 573.0341,-190.9516 573.0341,-190.9516 568.719,-188.0984 567.7729,-186.6898 573.742,-182.3398 580.3485,-182.3398 573.4546,-89.2394 572.408,-62.1032 572.184,-62.1466 563.3768,-63.6046 533.2364,-67.7456 483.1125,-59.4309 474.1181,-57.1563 451.3886,-50.7424 438.6548,-45.6838 435.6316,-45.3472 433.6585,-109.7953 424.308,-181.1002 425.0822,-181.3754 431.48,-181.3754 432.3193,-181.6819 437.282,-181.6819 440.8434,-222.1652 445.1826,-182.3207 444.6631,-181.558 444.6631,-181.558 445.1826,-182.3207 440.8434,-222.1652 437.282,-181.6819 432.3193,-181.6819 431.48,-181.3754 425.0822,-181.3754 424.308,-181.1002 433.6585,-109.7953 435.6316,-45.3472 418.0897,-42.0625 408.4756,-45.0423 368.2058,-56.4407 357.9181,-60.706 297.0181,-132.6322 267.3272,-148.8189 260.3971,-155.0177 253.1135,-157.327 252.4544,-157.4847 232.1595,-166.6946 212.7664,-173.7311 170.376,-187.8002 146.5339,-198.9746 132.3091,-211.5054 99.9947,-285.893 63.9495,-317.9906 47.4617,-320.3588 18.0491,-323.7961 -51.8802,-366.801 -70.6267,-383.1847 -75.6386,-393.2475 -72.5043,-436.0624 -71.3625,-467.9884 -71.4358,-505.7657 -37.4868,-566.2472 3.2493,-584.8096 22.6168,-593.3461 24.1948,-593.9249 51.8166,-551.0839 59.7557,-539.689 60.6931,-493.0414 65.5823,-452.462 70.6129,-452.462 73.8434,-522.1385 78.6326,-516.1207 92.9212,-501.9451 89.9733,-454.7184 96.7587,-457.1435 102.9368,-454.9017 105.6245,-451.8397 103.2981,-449.3311 96.9598,-447.0527 96.9598,-447.0527 103.2981,-449.3311 105.6245,-451.8397 102.9368,-454.9017 105.1802,-491.4995 107.2513,-489.955 115.7342,-484.9814 116.3862,-452.3217 121.8938,-452.3217 123.5689,-451.697 128.7586,-451.697 129.7589,-452.0614 135.0852,-452.0614 135.1877,-451.9239 142.1466,-447.3702 141.0417,-406.4773 178.6975,-429.1564 182.9077,-432.2327 185.4813,-384.7305 185.9817,-384.095 185.0326,-382.8884 184.9541,-332.3727 176.3391,-328.1067 127.2685,-299.4621 219.6643,-299.6664 226.1519,-295.0593 226.1781,-295.0685 225.6516,-339.1626 228.6016,-339.2599 233.2038,-295.3774 237.5605,-295.3774 239.0721,-294.8504 243.7312,-294.8504 245.1515,-295.3525 248.1268,-295.3525 250.4181,-297.6861 256.9555,-300.0176 263.2985,-297.7049 265.8472,-294.9269 269.5557,-294.9269 270.0688,-294.7461 275.7268,-294.7461 276.7469,-295.0963 280.8972,-295.0963 280.8972,-295.0963 276.7469,-295.0963 275.7268,-294.7461 270.0688,-294.7461 269.5557,-294.9269 265.8472,-294.9269 263.2985,-297.7049 256.9555,-300.0176 250.4181,-297.6861 248.1268,-295.3525 245.1515,-295.3525 243.7312,-294.8504 239.0721,-294.8504 237.5605,-295.3774 233.2038,-295.3774 228.6016,-339.2599 225.6516,-339.1626 226.1781,-295.0685 226.1519,-295.0593 219.6643,-299.6664 127.2685,-299.4621 176.3391,-328.1067 184.9541,-332.3727 185.0326,-382.8884 185.9817,-384.095 185.4813,-384.7305 182.9077,-432.2327 186.6774,-435.495 193.7583,-430.9025 197.0608,-429.1402 206.5925,-425.0971 204.0023,-388.4044 198.2011,-384.295 198.2011,-384.295 204.0023,-388.4044 211.1044,-388.4044 217.0683,-384.1962 216.3854,-383.1996 211.386,-379.7947 211.386,-379.7947 216.3854,-383.1996 217.0683,-384.1962 211.1044,-388.4044 204.0023,-388.4044 206.5925,-425.0971 197.0608,-429.1402 193.7583,-430.9025 186.6774,-435.495 182.9077,-432.2327 178.6975,-429.1564 141.0417,-406.4773 142.1466,-447.3702 135.1877,-451.9239 135.0852,-452.0614 129.7589,-452.0614 128.7586,-451.697 123.5689,-451.697 121.8938,-452.3217 116.3862,-452.3217 115.7342,-484.9814 107.2513,-489.955 105.1802,-491.4995 102.9368,-454.9017 96.7587,-457.1435 89.9733,-454.7184 92.9212,-501.9451 78.6326,-516.1207 73.8434,-522.1385 70.6129,-452.462 65.5823,-452.462 60.6931,-493.0414 59.7557,-539.689 51.8166,-551.0839 24.1948,-593.9249 41.2894,-609.6547 45.11,-622.554 45.11,-622.554"/>
<polygon fill="#fbb4ae" stroke="#fbb4ae" points="806.7551,-193.044 807.4189,-193.2071 888.5471,-210.8407 895.813,-235.3944 897.9781,-243.9451 873.5971,-321.5093 873.4417,-322.1608 869.4329,-346.409 862.6996,-374.1778 862.3422,-375.315 895.0112,-426.7983 823.9187,-439.7045 824.1678,-381.7086 818.0068,-382.3397 811.1641,-382.5953 810.2591,-382.6861 810.4893,-443.399 809.8076,-443.399 803.9871,-439.0898 796.5024,-439.0898 791.2833,-442.8453 783.7296,-383.2484 783.7029,-382.8104 780.2181,-382.6758 779.8918,-382.642 775.5719,-382.4627 765.8722,-382.663 765.2584,-382.7137 764.1316,-383.9303 710.0043,-383.041 703.4945,-388.0935 703.0679,-388.0935 702.3441,-387.821 697.1996,-387.821 695.7303,-387.2581 695.7303,-387.2581 697.1996,-387.821 702.3441,-387.821 703.0679,-388.0935 703.4945,-388.0935 710.0043,-383.041 764.1316,-383.9303 765.2584,-382.7137 765.8722,-382.663 775.5719,-382.4627 779.8918,-382.642 780.2181,-382.6758 783.7029,-382.8104 783.7296,-383.2484 791.2833,-442.8453 796.5024,-439.0898 803.9871,-439.0898 809.8076,-443.399 810.4893,-443.399 810.2591,-382.6861 811.1641,-382.5953 818.0068,-382.3397 824.1678,-381.7086 823.9187,-439.7045 895.0112,-426.7983 923.159,-465.1917 927.6051,-470.6905 938.1353,-484.5472 939.8417,-507.8677 874.3499,-525.4445 859.585,-528.8181 853.7137,-529.9195 850.2662,-532.5174 837.4203,-540.6414 835.0288,-542.0056 829.3507,-544.9042 821.6172,-548.3911 815.1463,-550.9192 804.2441,-554.5222 794.1563,-556.6356 786.0757,-557.8407 785.5843,-557.8843 773.2861,-558.2408 772.7605,-498.5799 768.9385,-494.9897 768.9385,-494.6103 766.6277,-492.2506 766.6277,-492.2506 768.9385,-494.6103 768.9385,-494.9897 772.7605,-498.5799 773.2861,-558.2408 770.062,-558.5281 753.1946,-561.0562 751.869,-561.333 750.4728,-561.7076 724.7217,-570.1918 722.8616,-578.1169 718.2719,-606.3195 718.2207,-606.9077 713.4426,-636.2482 704.3546,-674.9689 656.2396,-692.4124 643.6631,-697.5077 634.7599,-701.866 624.1128,-707.53 608.4872,-717.1664 606.322,-718.5906 580.1729,-736.8909 573.9524,-736.4373 562.3852,-735.0667 476.3572,-769.0021 459.5465,-776.1096 448.1882,-781.544 432.0887,-790.15 426.7577,-787.4439 431.093,-662.2552 436.8639,-618.8475 440.3997,-618.8475 441.9429,-620.526 441.9429,-620.526 440.3997,-618.8475 436.8639,-618.8475 431.093,-662.2552 428.609,-623.2502 428.609,-623.2502 431.093,-662.2552 426.7577,-787.4439 385.3242,-768.604 355.4433,-657.57 351.3172,-629.2199 358.2284,-618.37 379.6135,-572.2314 410.6009,-557.1023 413.4684,-514.5258 412.834,-504.27 413.0054,-503.4001 415.7834,-462.1527 420.9248,-457.618 454.0597,-458.4823 454.7409,-458.445 455.7728,-458.4696 461.1725,-458.1623 462.1704,-458.1841 466.1618,-458.5894 472.9588,-458.7251 473.7526,-458.6765 477.2288,-458.7386 482.7637,-458.3874 483.4674,-458.3985 486.1934,-458.658 491.5274,-458.7314 493.1142,-458.6241 498.1798,-458.6833 500.6986,-458.5075 508.423,-458.5818 533.2056,-460.7764 559.4891,-422.5548 565.0772,-421.2709 578.5429,-420.0371 586.0353,-419.8745 587.4969,-419.7419 588.4098,-419.7229 591.1293,-419.8554 596.4385,-419.7483 606.1738,-418.8768 613.3633,-417.7362 614.4592,-417.487 623.1956,-393.6339 625.9449,-381.6649 627.5325,-364.1051 627.7142,-363.2965 643.2141,-320.9768 650.8563,-320.1249 654.2932,-319.9306 654.7257,-319.9298 657.3348,-317.1874 671.5084,-303.9152 675.4244,-300.7697 715.0916,-273.9026 728.1834,-263.3527 729.5338,-262.1116 734.537,-256.896 736.8043,-254.2444 738.2976,-252.29 747.1395,-243.7224 756.2194,-234.0594 767.2242,-221.3383 767.3792,-221.146 772.4305,-214.4004 778.5894,-205.5882 787.8764,-191.4093 788.989,-189.6078 789.7128,-188.3641 806.7551,-193.044 806.7551,-193.044"/>
<polygon fill="#fed9a6" stroke="#fed9a6" points="1603.1848,-266.1242 1608.6346,-266.4741 1611.0765,-266.4705 1612.2378,-266.5408 1621.7952,-267.718 1635.7413,-270.3088 1638.6464,-271.2036 1735.098,-306.9939 1735.2273,-308.1123 1740.3964,-342.2083 1746.1576,-373.0787 1738.7484,-382.808 1604.2428,-468.8696 1594.0216,-475.7594 1592.303,-477.0352 1574.5133,-490.8742 1572.5839,-492.4399 1570.6088,-494.1105 1561.2538,-502.3527 1551.348,-511.4237 1535.1497,-526.8088 1533.2501,-528.8713 1516.8381,-547.2964 1498.8523,-550.3846 1477.0977,-554.455 1466.7589,-564.0164 1452.7646,-570.8629 1421.0085,-585.2319 1297.1899,-545.8382 1284.8468,-542.2674 1278.4717,-540.6104 1266.8558,-537.9327 1267.7545,-464.9019 1267.7545,-464.9019 1266.8558,-537.9327 1254.741,-535.8555 1255.5046,-458.5395 1259.6432,-421.7737 1262.0944,-419.3358 1258.8364,-416.1257 1253.338,-414.3319 1253.338,-414.3319 1258.8364,-416.1257 1262.0944,-419.3358 1259.6432,-421.7737 1255.5046,-458.5395 1254.741,-535.8555 1243.2565,-534.5634 1227.4753,-533.7166 1224.5935,-533.7316 1221.3812,-533.6526 1219.3036,-533.6626 1210.3971,-533.9673 1203.1592,-533.5676 1187.7977,-532.2593 1179.7471,-531.3343 1179.3771,-531.2808 1177.2166,-530.8389 1168.1462,-532.8866 1159.8569,-534.5013 1145.432,-536.8627 1115.9148,-540.7675 1114.375,-541.0652 1105.0865,-543.1484 1089.0631,-547.2363 1076.7576,-551.5052 1064.9006,-556.352 1048.5825,-563.5231 1014.6171,-581.5256 939.8417,-507.8677 938.1353,-484.5472 927.6051,-470.6905 923.159,-465.1917 895.0112,-426.7983 862.3422,-375.315 862.6996,-374.1778 869.4329,-346.409 873.4417,-322.1608 873.5971,-321.5093 897.9781,-243.9451 895.813,-235.3944 888.5471,-210.8407 962.6025,-144.54 984.7577,-134.4462 1010.8702,-127.6622 1019.4311,-125.2023 1038.7424,-118.5846 1032.153,-262.5637 1027.2263,-262.5637 1026.6178,-262.7821 1019.3478,-262.7821 1019.048,-262.6737 1017.374,-262.6737 1013.3662,-266.2785 1012.0673,-311.067 1005.1738,-311.1055 990.2223,-308.8578 980.3489,-305.8544 980.3489,-305.8544 990.2223,-308.8578 1005.1738,-311.1055 1012.0673,-311.067 1013.0471,-311.142 1013.5836,-359.4239 1007.9891,-359.4239 1005.0074,-318.5129 1000.5593,-356.2786 995.8018,-354.7538 995.8018,-354.7538 1000.5593,-356.2786 1005.0074,-318.5129 1007.9891,-359.4239 1013.5836,-359.4239 1013.0471,-311.142 1012.0673,-311.067 1013.3662,-266.2785 1017.374,-262.6737 1019.048,-262.6737 1019.3478,-262.7821 1026.6178,-262.7821 1027.2263,-262.5637 1032.153,-262.5637 1032.1597,-262.5661 1034.3585,-311.3955 1030.7347,-311.6511 1028.6174,-311.6366 1025.1079,-359.7741 1026.6061,-360.3033 1031.3463,-360.3033 1033.3877,-394.7098 1022.8679,-397.7569 1022.3463,-397.9701 1008.589,-405.3652 1002.6416,-409.9802 997.9796,-414.1866 997.9357,-414.2188 988.5753,-422.1083 984.3768,-426.0844 972.2864,-438.8376 965.8991,-446.8845 965.2698,-447.7449 1046.0155,-431.3746 1049.5969,-529.9067 1050.499,-515.6866 1050.499,-515.6866 1049.5969,-529.9067 1046.0155,-431.3746 965.2698,-447.7449 965.8991,-446.8845 972.2864,-438.8376 984.3768,-426.0844 988.5753,-422.1083 997.9357,-414.2188 997.9796,-414.1866 1002.6416,-409.9802 1008.589,-405.3652 1022.3463,-397.9701 1022.8679,-397.7569 1033.3877,-394.7098 1031.3463,-360.3033 1026.6061,-360.3033 1025.1079,-359.7741 1028.6174,-311.6366 1030.7347,-311.6511 1034.3585,-311.3955 1032.1597,-262.5661 1032.153,-262.5637 1038.7424,-118.5846 1039.1005,-118.4522 1044.2971,-120.66 1053.5447,-124.0693 1066.3365,-128.074 1064.7827,-259.7559 1058.6898,-257.6035 1058.6898,-257.6035 1064.7827,-259.7559 1067.619,-262.7873 1065.7954,-264.675 1058.3473,-267.5121 1051.4688,-264.9205 1049.3698,-262.6714 1046.2241,-262.6714 1045.6674,-262.4657 1045.6674,-262.4657 1046.2241,-262.6714 1049.3698,-262.6714 1051.4688,-264.9205 1058.3473,-267.5121 1065.7954,-264.675 1067.619,-262.7873 1064.7827,-259.7559 1066.3365,-128.074 1071.1749,-129.4531 1081.1259,-132.0118 1081.52,-132.1021 1101.2767,-135.5338 1108.9187,-136.6464 1181.0493,-145.1207 1199.3488,-151.7465 1214.9471,-171.6452 1198.1632,-201.8019 1193.6893,-209.3119 1192.1221,-211.7628 1178.7122,-231.3022 1167.2347,-245.3914 1161.9148,-253.0349 1161.6626,-253.3208 1154.973,-315.6229 1150.6094,-315.6229 1150.6094,-315.6229 1154.973,-315.6229 1161.6626,-253.3208 1161.9148,-253.0349 1167.2347,-245.3914 1178.7122,-231.3022 1192.1221,-211.7628 1186.3174,-315.3661 1180.8867,-315.3661 1180.4464,-315.5196 1174.1818,-315.5196 1173.9231,-315.431 1169.5771,-315.431 1169.5771,-315.431 1173.9231,-315.431 1174.1818,-315.5196 1180.4464,-315.5196 1180.8867,-315.3661 1186.3174,-315.3661 1192.1221,-211.7628 1193.6893,-209.3119 1198.1632,-201.8019 1214.9471,-171.6452 1269.8501,-201.0588 1317.0872,-201.6491 1329.7468,-201.4508 1347.1282,-200.1987 1365.6929,-197.2923 1364.3846,-255.4659 1366.3846,-321.7499 1359.4034,-321.7499 1353.8016,-325.6952 1353.8016,-325.6952 1359.4034,-321.7499 1366.3846,-321.7499 1364.3846,-255.4659 1365.6929,-197.2923 1368.5444,-196.6859 1378.5107,-194.2839 1389.9122,-191.2143 1391.9757,-193.7235 1396.2467,-198.3926 1398.9025,-324.5231 1397.5341,-326.2614 1393.1274,-326.2614 1392.3893,-325.9857 1392.3893,-325.9857 1393.1274,-326.2614 1397.5341,-326.2614 1398.9025,-324.5231 1396.2467,-198.3926 1405.6738,-208.1487 1421.7849,-223.8567 1459.1176,-263.9352 1517.0157,-266.7365 1517.0753,-266.7431 1523.3699,-266.6146 1527.5524,-266.7901 1530.7557,-266.7139 1535.7268,-266.2673 1541.0934,-266.4565 1543.3832,-266.3868 1546.8149,-266.4962 1547.3746,-266.549 1555.635,-266.7852 1557.7415,-266.7072 1558.3857,-266.641 1566.9337,-266.8282 1568.8153,-266.7459 1569.286,-266.6942 1572.9948,-266.5191 1577.1812,-266.583 1578.4701,-266.5177 1588.1265,-266.6332 1590.5753,-266.5011 1591.6007,-266.5738 1595.4222,-266.5937 1603.1577,-266.1242 1603.1848,-266.1242 1603.1848,-266.1242"/>
<polygon fill="#d3ded1" stroke="#d3ded1" points="1023.621,-1123.922 1019.2145,-1122.6703 1006.6579,-1119.4221 1005.5368,-1119.1609 1005.1959,-982.4869 1005.1959,-982.4869 1005.5368,-1119.1609 995.3347,-1117.0431 989.3933,-1116.1122 986.4487,-1115.7256 975.1381,-1114.5266 970.4028,-1112.7601 962.0927,-1110.1357 941.5674,-1104.8173 913.6263,-1099.1891 875.9158,-1080.1469 842.5587,-1050.4614 834.7537,-1048.8546 828.7081,-1047.7828 827.3065,-1047.614 808.6083,-1045.8904 806.1485,-1045.734 794.002,-1045.3079 786.3605,-1045.4753 769.4426,-1046.8107 766.7448,-1047.1001 754.2941,-1049.1455 666.0652,-1013.9394 667.8135,-1009.8804 670.5582,-1003.9467 670.5582,-1003.9467 667.8135,-1009.8804 666.0652,-1013.9394 649.3382,-1015.4894 628.965,-1018.9532 629.4477,-966.2364 629.0169,-953.2238 630.1898,-888.3889 636.9624,-886.0134 639.1198,-883.8832 636.1617,-880.6529 630.1445,-878.5114 629.7527,-817.5667 631.0886,-789.9225 634.518,-792.877 650.7817,-804.8557 657.346,-809.2495 669.3596,-815.7198 673.774,-817.8019 681.4471,-820.9161 686.8849,-822.762 721.9246,-832.3475 718.0635,-775.3065 724.8276,-771.4056 725.4584,-770.6078 731.1367,-770.6078 728.2001,-834.8401 739.1213,-839.9727 742.9596,-842.0226 749.9212,-846.1953 754.1462,-849.0018 754.1779,-849.0002 755.6059,-775.4884 762.1873,-773.2107 764.7321,-770.692 762.2657,-768.1469 762.2657,-768.1469 764.7321,-770.692 762.1873,-773.2107 755.6059,-775.4884 754.1779,-849.0002 754.1462,-849.0018 749.9212,-846.1953 742.9596,-842.0226 739.1213,-839.9727 728.2001,-834.8401 731.1367,-770.6078 725.4584,-770.6078 724.8276,-771.4056 718.0635,-775.3065 721.9246,-832.3475 686.8849,-822.762 681.4471,-820.9161 673.774,-817.8019 669.3596,-815.7198 657.346,-809.2495 650.7817,-804.8557 634.518,-792.877 631.0886,-789.9225 629.7527,-817.5667 630.1445,-878.5114 636.1617,-880.6529 639.1198,-883.8832 636.9624,-886.0134 630.1898,-888.3889 629.0169,-953.2238 629.4477,-966.2364 628.965,-1018.9532 624.9523,-1019.9449 621.3429,-1019.5392 612.3755,-1018.7537 597.8802,-1017.8446 598.0974,-993.4294 598.0974,-993.4294 597.8802,-1017.8446 589.0883,-1017.9496 572.4041,-1018.5641 542.0806,-1021.1854 480.3748,-1009.7552 437.9099,-961.8181 438.023,-922.7666 435.5439,-843.4379 432.0887,-790.15 448.1882,-781.544 459.5465,-776.1096 476.3572,-769.0021 562.3852,-735.0667 573.9524,-736.4373 580.1729,-736.8909 606.322,-718.5906 608.4872,-717.1664 624.1128,-707.53 634.7599,-701.866 643.6631,-697.5077 656.2396,-692.4124 704.3546,-674.9689 713.4426,-636.2482 718.2207,-606.9077 718.2719,-606.3195 722.8616,-578.1169 724.7217,-570.1918 750.4728,-561.7076 751.869,-561.333 753.1946,-561.0562 770.062,-558.5281 773.2861,-558.2408 785.5843,-557.8843 786.0757,-557.8407 794.1563,-556.6356 804.2441,-554.5222 815.1463,-550.9192 821.6172,-548.3911 829.3507,-544.9042 835.0288,-542.0056 837.4203,-540.6414 850.2662,-532.5174 853.7137,-529.9195 859.585,-528.8181 874.3499,-525.4445 939.8417,-507.8677 1014.6171,-581.5256 1011.5255,-613.5168 1010.5306,-621.19 1010.4589,-622.2925 925.0298,-727.0784 935.424,-740.0276 950.7989,-757.9989 955.0071,-762.2173 958.7814,-765.7072 966.6475,-773.9454 967.6859,-774.8438 972.1204,-779.2681 984.7723,-790.6377 981.0764,-843.5211 976.6071,-847.2227 981.0712,-850.9179 985.6047,-914.9692 972.1497,-914.8447 972.2059,-887.5851 968.3661,-847.5869 963.472,-847.5869 960.4976,-914.8019 960.1244,-914.7978 956.455,-847.4393 951.248,-847.4393 951.1813,-847.3488 951.1813,-847.3488 951.248,-847.4393 956.455,-847.4393 960.1244,-914.7978 960.4976,-914.8019 963.472,-847.5869 968.3661,-847.5869 972.2059,-887.5851 972.1497,-914.8447 985.6047,-914.9692 981.0712,-850.9179 976.6071,-847.2227 981.0764,-843.5211 984.7723,-790.6377 1030.0603,-826.3318 1037.4352,-832.9959 1044.4584,-838.3193 1056.0363,-849.2327 1072.668,-868.024 1073.0153,-868.3779 1078.0592,-874.3029 1088.4924,-888.3469 1092.8759,-889.8621 1107.3811,-895.8235 1113.801,-898.8787 1130.1868,-907.2151 1132.4568,-908.4414 1179.416,-936.8548 1183.5331,-981.9548 1183.5662,-982.48 1189.3983,-1031.6582 1025.7302,-1123.1508 1023.621,-1123.922 1023.621,-1123.922"/>
<polygon fill="#c1c8d8" stroke="#c1c8d8" points="1427.2459,-1071.598 1432.0319,-1122.4521 1432.0319,-1122.4521 1427.2459,-1071.598 1420.9662,-1071.598 1425.9602,-1199.8152 1432.5582,-1200.8007 1455.8557,-1206.1676 1468.9983,-1210.2522 1479.5792,-1213.8239 1492.5944,-1214.3231 1548.059,-1169.6476 1606.7205,-1067 1606.9077,-1066.7172 1598.1949,-994.8024 1587.0386,-948.2015 1616.4877,-913.7318 1609.1758,-894.6139 1602.2729,-877.8911 1599.641,-872.0215 1593.9844,-860.4063 1559.8572,-796.2403 1515.6638,-798.5764 1515.6638,-798.5764 1559.8572,-796.2403 1593.9844,-860.4063 1599.641,-872.0215 1602.2729,-877.8911 1609.1758,-894.6139 1616.4877,-913.7318 1621.83,-910.7726 1624.1846,-908.894 1634.752,-901.2486 1712.8815,-850.4415 1727.2959,-836.9828 1766.6357,-767.8937 1766.583,-766.1786 1762.5603,-756.83 1725.9358,-650.4636 1638.7756,-617.2814 1617.3899,-607.848 1613.6938,-606.0001 1591.2073,-593.3882 1516.8381,-547.2964 1498.8523,-550.3846 1477.0977,-554.455 1466.7589,-564.0164 1452.7646,-570.8629 1421.0085,-585.2319 1297.1899,-545.8382 1284.8468,-542.2674 1278.4717,-540.6104 1266.8558,-537.9327 1254.741,-535.8555 1243.2565,-534.5634 1227.4753,-533.7166 1224.5935,-533.7316 1221.3812,-533.6526 1219.3036,-533.6626 1210.3971,-533.9673 1203.1592,-533.5676 1187.7977,-532.2593 1179.7471,-531.3343 1179.3771,-531.2808 1177.2166,-530.8389 1168.1462,-532.8866 1159.8569,-534.5013 1145.432,-536.8627 1115.9148,-540.7675 1114.375,-541.0652 1105.0865,-543.1484 1089.0631,-547.2363 1076.7576,-551.5052 1064.9006,-556.352 1048.5825,-563.5231 1014.6171,-581.5256 1011.5255,-613.5168 1010.5306,-621.19 1010.4589,-622.2925 925.0298,-727.0784 935.424,-740.0276 950.7989,-757.9989 955.0071,-762.2173 958.7814,-765.7072 966.6475,-773.9454 967.6859,-774.8438 972.1204,-779.2681 984.7723,-790.6377 1030.0603,-826.3318 1037.4352,-832.9959 1044.4584,-838.3193 1056.0363,-849.2327 1056.1194,-816.4907 1060.1544,-770.4059 1059.7852,-770.2764 1059.7852,-770.2764 1060.1544,-770.4059 1056.1194,-816.4907 1056.0363,-849.2327 1072.668,-868.024 1073.0153,-868.3779 1078.0592,-874.3029 1079.8525,-824.0015 1078.0762,-772.7542 1085.0127,-775.303 1090.618,-773.3921 1090.618,-773.3921 1085.0127,-775.303 1078.0762,-772.7542 1079.8525,-824.0015 1078.0592,-874.3029 1088.4924,-888.3469 1092.8759,-889.8621 1107.3811,-895.8235 1106.8439,-806.9261 1110.8101,-770.2054 1110.6765,-770.1589 1110.6765,-770.1589 1110.8101,-770.2054 1106.8439,-806.9261 1107.3811,-895.8235 1113.801,-898.8787 1130.1868,-907.2151 1132.4568,-908.4414 1132.1051,-825.0961 1132.1051,-825.0961 1132.4568,-908.4414 1179.416,-936.8548 1183.5331,-981.9548 1183.5662,-982.48 1189.3983,-1031.6582 1215.5758,-1054.1213 1222.8912,-1067 1260.5591,-1143.2281 1334.8907,-1187.7493 1363.2676,-1197.5881 1375.4335,-1197.1124 1392.428,-1196.9049 1396.8938,-1196.9706 1400.3041,-1197.1125 1408.4803,-1197.6731 1425.9602,-1199.8152 1420.9662,-1071.598 1415.4406,-1067.7972 1414.7755,-1066.8187 1408.481,-1066.8187 1406.2083,-1005.5187 1403.6936,-1005.4925 1401.7513,-1005.5869 1399.2289,-1005.5533 1393.5292,-1005.8149 1391.9475,-1005.7893 1390.3309,-947.3641 1384.8665,-949.1655 1384.8665,-949.1655 1390.3309,-947.3641 1393.5692,-944.1018 1391.4032,-941.9377 1383.9083,-939.1947 1378.0702,-941.183 1378.4348,-867.2433 1373.6929,-867.3802 1372.4965,-867.3599 1365.8318,-867.5497 1356.2257,-867.3809 1356.2239,-867.0938 1354.6836,-837.6689 1348.4409,-790.861 1344.5928,-790.861 1338.1718,-845.3091 1337.2465,-791.1317 1331.2015,-795.2886 1325.2355,-795.2886 1318.9701,-790.9551 1318.8346,-791.0028 1313.0703,-791.0028 1311.6294,-790.4955 1308.0078,-790.4955 1306.8787,-790.8931 1306.8787,-790.8931 1308.0078,-790.4955 1311.6294,-790.4955 1313.0703,-791.0028 1318.8346,-791.0028 1318.9701,-790.9551 1325.2355,-795.2886 1331.2015,-795.2886 1337.2465,-791.1317 1338.1718,-845.3091 1344.5928,-790.861 1348.4409,-790.861 1354.6836,-837.6689 1356.2239,-867.0938 1356.2257,-867.3809 1365.8318,-867.5497 1372.4965,-867.3599 1373.6929,-867.3802 1378.4348,-867.2433 1378.0702,-941.183 1383.9083,-939.1947 1391.4032,-941.9377 1393.5692,-944.1018 1390.3309,-947.3641 1391.9475,-1005.7893 1393.5292,-1005.8149 1399.2289,-1005.5533 1401.7513,-1005.5869 1403.6936,-1005.4925 1406.2083,-1005.5187 1408.481,-1066.8187 1414.7755,-1066.8187 1415.4406,-1067.7972 1420.9662,-1071.598 1427.2459,-1071.598 1433.5656,-1066.8131 1433.0042,-1065.9562 1428.0337,-1062.5381 1428.0337,-1062.5381 1433.0042,-1065.9562 1433.5656,-1066.8131 1427.2459,-1071.598 1427.2459,-1071.598"/>
<polygon fill="#c2dfd1" stroke="#c2dfd1" points="1965.2993,-406.0177 1986.0537,-401.2486 2096.8628,-378.9423 2095.3474,-299.1318 2091.9907,-283.5823 2089.9258,-271.7439 2080.6687,-202.0107 2029.9781,-144.8657 1985.2953,-182.41 1965.704,-182.41 1896.0128,-187.1127 1889.512,-182.9424 1889.1785,-182.4969 1883.9346,-182.4969 1882.8521,-182.102 1876.3674,-182.102 1875.7046,-182.3372 1871.3882,-182.3372 1870.2858,-181.9443 1865.1102,-181.9443 1856.8018,-127.1549 1857.4288,-180.0549 1859.9028,-182.8613 1858.3973,-184.4057 1850.6608,-187.3529 1843.8644,-184.8843 1841.4502,-182.4093 1838.5098,-182.4093 1837.9854,-182.2266 1832.8478,-182.2266 1831.094,-182.8712 1825.4534,-182.8712 1824.4938,-182.5194 1819.2328,-182.5194 1818.9806,-182.4269 1816.3359,-117.9384 1812.4871,-122.3207 1807.9893,-126.8367 1807.9893,-126.8367 1812.4871,-122.3207 1816.3359,-117.9384 1818.9806,-182.4269 1819.2328,-182.5194 1824.4938,-182.5194 1825.4534,-182.8712 1831.094,-182.8712 1832.8478,-182.2266 1837.9854,-182.2266 1838.5098,-182.4093 1841.4502,-182.4093 1843.8644,-184.8843 1850.6608,-187.3529 1858.3973,-184.4057 1859.9028,-182.8613 1857.4288,-180.0549 1850.8794,-177.5561 1850.8794,-177.5561 1857.4288,-180.0549 1856.8018,-127.1549 1865.1102,-181.9443 1870.2858,-181.9443 1871.3882,-182.3372 1875.7046,-182.3372 1876.3674,-182.102 1882.8521,-182.102 1883.9346,-182.4969 1889.1785,-182.4969 1889.512,-182.9424 1896.0128,-187.1127 1965.704,-182.41 1985.2953,-182.41 2029.9781,-144.8657 2029.9401,-144.7113 1966.2336,-55.7094 1966.4334,-39.7626 1967.5214,-16.4406 1967.2365,3.8677 1967.3707,10.6272 1937.3015,56.7387 1902.6453,86.1142 1845.9446,106.1052 1839.3485,104.612 1824.0825,101.6047 1814.6354,100.0261 1804.7419,98.9647 1796.0869,98.2948 1786.2256,98.1211 1775.5071,98.2527 1769.7451,98.6677 1751.7223,100.5058 1747.8969,101.0091 1743.3856,101.8703 1739.2684,102.7794 1707.1287,110.8425 1613.9835,38.4119 1601.0859,2.2006 1600.1859,-4.2935 1596.6077,-24.8981 1567.1804,-65.9477 1556.7107,-70.2411 1542.6809,-75.2288 1541.4109,-75.6108 1529.4128,-78.898 1528.9868,-79.0031 1515.7986,-81.9032 1488.1926,-87.2217 1442.0453,-103.7379 1432.8842,-117.1055 1391.3452,-188.9318 1389.9122,-191.2143 1391.9757,-193.7235 1396.2467,-198.3926 1405.6738,-208.1487 1421.7849,-223.8567 1459.1176,-263.9352 1517.0157,-266.7365 1517.0753,-266.7431 1523.3699,-266.6146 1527.5524,-266.7901 1530.7557,-266.7139 1535.7268,-266.2673 1541.0934,-266.4565 1543.3832,-266.3868 1546.8149,-266.4962 1547.3746,-266.549 1555.635,-266.7852 1557.7415,-266.7072 1558.3857,-266.641 1566.9337,-266.8282 1568.8153,-266.7459 1569.286,-266.6942 1572.9948,-266.5191 1577.1812,-266.583 1578.4701,-266.5177 1588.1265,-266.6332 1590.5753,-266.5011 1591.6007,-266.5738 1595.4222,-266.5937 1603.1577,-266.1242 1603.1848,-266.1242 1608.6346,-266.4741 1611.0765,-266.4705 1612.2378,-266.5408 1621.7952,-267.718 1635.7413,-270.3088 1638.6464,-271.2036 1735.098,-306.9939 1735.2273,-308.1123 1740.3964,-342.2083 1746.1576,-373.0787 1854.8396,-394.0279 1879.6318,-399.5583 1884.3802,-400.8963 1885.4735,-401.2368 1895.4423,-404.64 1902.652,-407.5344 1915.5792,-406.3155 1926.4374,-406.1414 1928.5873,-323.4456 1926.0847,-280.6796 1926.0847,-280.6796 1928.5873,-323.4456 1926.4374,-406.1414 1942.0918,-406.7071 1945.2947,-406.9062 1952.7845,-407.5672 1957.5229,-408.2329 1965.1041,-406.068 1965.2993,-406.0177 1965.2993,-406.0177"/>
<polyline fill="none" stroke="#000000" points="559.4891,-422.5548 533.2056,-460.7764 508.423,-458.5818 500.6986,-458.5075 498.1798,-458.6833 493.1142,-458.6241 491.5274,-458.7314 486.1934,-458.658 483.4674,-458.3985 482.7637,-458.3874 477.2288,-458.7386 473.7526,-458.6765 472.9588,-458.7251 466.1618,-458.5894 462.1704,-458.1841 461.1725,-458.1623 455.7728,-458.4696 454.7409,-458.445 454.0597,-458.4823 420.9248,-457.618 415.7834,-462.1527 413.0054,-503.4001 412.834,-504.27 413.4684,-514.5258 410.6009,-557.1023 379.6135,-572.2314 358.2284,-618.37 351.3172,-629.2199 355.4433,-657.57 385.3242,-768.604 272.7852,-781.3479 271.6702,-781.5049 261.525,-783.5009 246.6951,-786.8333 231.2383,-791.1625 228.9839,-791.9176 212.4023,-798.4066 209.5578,-797.9017 195.071,-796.0366 191.2031,-795.7272 172.9353,-795.1523 166.907,-795.1093 166.6537,-795.1136 77.2832,-761.0475 61.9639,-688.3382 45.11,-622.554 41.2894,-609.6547 24.1948,-593.9249 22.6168,-593.3461 3.2493,-584.8096 -37.4868,-566.2472 -71.4358,-505.7657 -71.3625,-467.9884 -72.5043,-436.0624 -75.6386,-393.2475 -70.6267,-383.1847 -51.8802,-366.801 18.0491,-323.7961 47.4617,-320.3588 63.9495,-317.9906 99.9947,-285.893 132.3091,-211.5054 146.5339,-198.9746 170.376,-187.8002 212.7664,-173.7311 232.1595,-166.6946 252.4544,-157.4847 253.1135,-157.327 260.3971,-155.0177 267.3272,-148.8189 297.0181,-132.6322 357.9181,-60.706 368.2058,-56.4407 408.4756,-45.0423 418.0897,-42.0625 435.6316,-45.3472 438.6548,-45.6838 451.3886,-50.7424 474.1181,-57.1563 483.1125,-59.4309 533.2364,-67.7456 563.3768,-63.6046 572.184,-62.1466 572.408,-62.1032 579.3964,-60.3527 601.9218,-54.0635 610.0618,-51.5657 668.433,-80.2366 705.8197,-123.9276 751.1088,-144.0582 789.7128,-188.3641 788.989,-189.6078 787.8764,-191.4093 778.5894,-205.5882 772.4305,-214.4004 767.3792,-221.146 767.2242,-221.3383 756.2194,-234.0594 747.1395,-243.7224 738.2976,-252.29 736.8043,-254.2444 734.537,-256.896 729.5338,-262.1116 728.1834,-263.3527 715.0916,-273.9026 675.4244,-300.7697 671.5084,-303.9152 657.3348,-317.1874 654.7257,-319.9298 654.2932,-319.9306 650.8563,-320.1249 643.2141,-320.9768 627.7142,-363.2965 627.5325,-364.1051 625.9449,-381.6649 623.1956,-393.6339 614.4592,-417.487 613.3633,-417.7362 606.1738,-418.8768 596.4385,-419.7483 591.1293,-419.8554 588.4098,-419.7229 587.4969,-419.7419 586.0353,-419.8745 578.5429,-420.0371 565.0772,-421.2709 559.4891,-422.5548 "/>
<polyline fill="none" stroke="#000000" points="613.3633,-417.7362 606.1738,-418.8768 596.4385,-419.7483 591.1293,-419.8554 588.4098,-419.7229 587.4969,-419.7419 586.0353,-419.8745 578.5429,-420.0371 565.0772,-421.2709 559.4891,-422.5548 533.2056,-460.7764 508.423,-458.5818 500.6986,-458.5075 498.1798,-458.6833 493.1142,-458.6241 491.5274,-458.7314 486.1934,-458.658 483.4674,-458.3985 482.7637,-458.3874 477.2288,-458.7386 473.7526,-458.6765 472.9588,-458.7251 466.1618,-458.5894 462.1704,-458.1841 461.1725,-458.1623 455.7728,-458.4696 454.7409,-458.445 454.0597,-458.4823 420.9248,-457.618 415.7834,-462.1527 413.0054,-503.4001 412.834,-504.27 413.4684,-514.5258 410.6009,-557.1023 379.6135,-572.2314 358.2284,-618.37 351.3172,-629.2199 355.4433,-657.57 385.3242,-768.604 426.7577,-787.4439 432.0887,-790.15 448.1882,-781.544 459.5465,-776.1096 476.3572,-769.0021 562.3852,-735.0667 573.9524,-736.4373 580.1729,-736.8909 606.322,-718.5906 608.4872,-717.1664 624.1128,-707.53 634.7599,-701.866 643.6631,-697.5077 656.2396,-692.4124 704.3546,-674.9689 713.4426,-636.2482 718.2207,-606.9077 718.2719,-606.3195 722.8616,-578.1169 724.7217,-570.1918 750.4728,-561.7076 751.869,-561.333 753.1946,-561.0562 770.062,-558.5281 773.2861,-558.2408 785.5843,-557.8843 786.0757,-557.8407 794.1563,-556.6356 804.2441,-554.5222 815.1463,-550.9192 821.6172,-548.3911 829.3507,-544.9042 835.0288,-542.0056 837.4203,-540.6414 850.2662,-532.5174 853.7137,-529.9195 859.585,-528.8181 874.3499,-525.4445 939.8417,-507.8677 938.1353,-484.5472 927.6051,-470.6905 923.159,-465.1917 895.0112,-426.7983 862.3422,-375.315 862.6996,-374.1778 869.4329,-346.409 873.4417,-322.1608 873.5971,-321.5093 897.9781,-243.9451 895.813,-235.3944 888.5471,-210.8407 807.4189,-193.2071 806.7551,-193.044 789.7128,-188.3641 788.989,-189.6078 787.8764,-191.4093 778.5894,-205.5882 772.4305,-214.4004 767.3792,-221.146 767.2242,-221.3383 756.2194,-234.0594 747.1395,-243.7224 738.2976,-252.29 736.8043,-254.2444 734.537,-256.896 729.5338,-262.1116 728.1834,-263.3527 715.0916,-273.9026 675.4244,-300.7697 671.5084,-303.9152 657.3348,-317.1874 654.7257,-319.9298 654.2932,-319.9306 650.8563,-320.1249 643.2141,-320.9768 627.7142,-363.2965 627.5325,-364.1051 625.9449,-381.6649 623.1956,-393.6339 614.4592,-417.487 613.3633,-417.7362 "/>
<polyline fill="none" stroke="#000000" points="1089.0631,-547.2363 1105.0865,-543.1484 1114.375,-541.0652 1115.9148,-540.7675 1145.432,-536.8627 1159.8569,-534.5013 1168.1462,-532.8866 1177.2166,-530.8389 1179.3771,-531.2808 1179.7471,-531.3343 1187.7977,-532.2593 1203.1592,-533.5676 1210.3971,-533.9673 1219.3036,-533.6626 1221.3812,-533.6526 1224.5935,-533.7316 1227.4753,-533.7166 1243.2565,-534.5634 1254.741,-535.8555 1266.8558,-537.9327 1278.4717,-540.6104 1284.8468,-542.2674 1297.1899,-545.8382 1421.0085,-585.2319 1452.7646,-570.8629 1466.7589,-564.0164 1477.0977,-554.455 1498.8523,-550.3846 1516.8381,-547.2964 1533.2501,-528.8713 1535.1497,-526.8088 1551.348,-511.4237 1561.2538,-502.3527 1570.6088,-494.1105 1572.5839,-492.4399 1574.5133,-490.8742 1592.303,-477.0352 1594.0216,-475.7594 1604.2428,-468.8696 1738.7484,-382.808 1746.1576,-373.0787 1740.3964,-342.2083 1735.2273,-308.1123 1735.098,-306.9939 1638.6464,-271.2036 1635.7413,-270.3088 1621.7952,-267.718 1612.2378,-266.5408 1611.0765,-266.4705 1608.6346,-266.4741 1603.1848,-266.1242 1603.1577,-266.1242 1595.4222,-266.5937 1591.6007,-266.5738 1590.5753,-266.5011 1588.1265,-266.6332 1578.4701,-266.5177 1577.1812,-266.583 1572.9948,-266.5191 1569.286,-266.6942 1568.8153,-266.7459 1566.9337,-266.8282 1558.3857,-266.641 1557.7415,-266.7072 1555.635,-266.7852 1547.3746,-266.549 1546.8149,-266.4962 1543.3832,-266.3868 1541.0934,-266.4565 1535.7268,-266.2673 1530.7557,-266.7139 1527.5524,-266.7901 1523.3699,-266.6146 1517.0753,-266.7431 1517.0157,-266.7365 1459.1176,-263.9352 1421.7849,-223.8567 1405.6738,-208.1487 1396.2467,-198.3926 1391.9757,-193.7235 1389.9122,-191.2143 1378.5107,-194.2839 1368.5444,-196.6859 1365.6929,-197.2923 1347.1282,-200.1987 1329.7468,-201.4508 1317.0872,-201.6491 1269.8501,-201.0588 1214.9471,-171.6452 1199.3488,-151.7465 1181.0493,-145.1207 1108.9187,-136.6464 1101.2767,-135.5338 1081.52,-132.1021 1081.1259,-132.0118 1071.1749,-129.4531 1066.3365,-128.074 1053.5447,-124.0693 1044.2971,-120.66 1039.1005,-118.4522 1038.7424,-118.5846 1019.4311,-125.2023 1010.8702,-127.6622 984.7577,-134.4462 962.6025,-144.54 888.5471,-210.8407 895.813,-235.3944 897.9781,-243.9451 873.5971,-321.5093 873.4417,-322.1608 869.4329,-346.409 862.6996,-374.1778 862.3422,-375.315 895.0112,-426.7983 923.159,-465.1917 927.6051,-470.6905 938.1353,-484.5472 939.8417,-507.8677 1014.6171,-581.5256 1048.5825,-563.5231 1064.9006,-556.352 1076.7576,-551.5052 1089.0631,-547.2363 "/>
<polyline fill="none" stroke="#000000" points="829.3507,-544.9042 821.6172,-548.3911 815.1463,-550.9192 804.2441,-554.5222 794.1563,-556.6356 786.0757,-557.8407 785.5843,-557.8843 773.2861,-558.2408 770.062,-558.5281 753.1946,-561.0562 751.869,-561.333 750.4728,-561.7076 724.7217,-570.1918 722.8616,-578.1169 718.2719,-606.3195 718.2207,-606.9077 713.4426,-636.2482 704.3546,-674.9689 656.2396,-692.4124 643.6631,-697.5077 634.7599,-701.866 624.1128,-707.53 608.4872,-717.1664 606.322,-718.5906 580.1729,-736.8909 573.9524,-736.4373 562.3852,-735.0667 476.3572,-769.0021 459.5465,-776.1096 448.1882,-781.544 432.0887,-790.15 435.5439,-843.4379 438.023,-922.7666 437.9099,-961.8181 480.3748,-1009.7552 542.0806,-1021.1854 572.4041,-1018.5641 589.0883,-1017.9496 597.8802,-1017.8446 612.3755,-1018.7537 621.3429,-1019.5392 624.9523,-1019.9449 628.965,-1018.9532 649.3382,-1015.4894 666.0652,-1013.9394 754.2941,-1049.1455 766.7448,-1047.1001 769.4426,-1046.8107 786.3605,-1045.4753 794.002,-1045.3079 806.1485,-1045.734 808.6083,-1045.8904 827.3065,-1047.614 828.7081,-1047.7828 834.7537,-1048.8546 842.5587,-1050.4614 875.9158,-1080.1469 913.6263,-1099.1891 941.5674,-1104.8173 962.0927,-1110.1357 970.4028,-1112.7601 975.1381,-1114.5266 986.4487,-1115.7256 989.3933,-1116.1122 995.3347,-1117.0431 1005.5368,-1119.1609 1006.6579,-1119.4221 1019.2145,-1122.6703 1023.621,-1123.922 1025.7302,-1123.1508 1189.3983,-1031.6582 1183.5662,-982.48 1183.5331,-981.9548 1179.416,-936.8548 1132.4568,-908.4414 1130.1868,-907.2151 1113.801,-898.8787 1107.3811,-895.8235 1092.8759,-889.8621 1088.4924,-888.3469 1078.0592,-874.3029 1073.0153,-868.3779 1072.668,-868.024 1056.0363,-849.2327 1044.4584,-838.3193 1037.4352,-832.9959 1030.0603,-826.3318 984.7723,-790.6377 972.1204,-779.2681 967.6859,-774.8438 966.6475,-773.9454 958.7814,-765.7072 955.0071,-762.2173 950.7989,-757.9989 935.424,-740.0276 925.0298,-727.0784 1010.4589,-622.2925 1010.5306,-621.19 1011.5255,-613.5168 1014.6171,-581.5256 939.8417,-507.8677 874.3499,-525.4445 859.585,-528.8181 853.7137,-529.9195 850.2662,-532.5174 837.4203,-540.6414 835.0288,-542.0056 829.3507,-544.9042 "/>
<polyline fill="none" stroke="#000000" points="1210.3971,-533.9673 1219.3036,-533.6626 1221.3812,-533.6526 1224.5935,-533.7316 1227.4753,-533.7166 1243.2565,-534.5634 1254.741,-535.8555 1266.8558,-537.9327 1278.4717,-540.6104 1284.8468,-542.2674 1297.1899,-545.8382 1421.0085,-585.2319 1452.7646,-570.8629 1466.7589,-564.0164 1477.0977,-554.455 1498.8523,-550.3846 1516.8381,-547.2964 1591.2073,-593.3882 1613.6938,-606.0001 1617.3899,-607.848 1638.7756,-617.2814 1725.9358,-650.4636 1762.5603,-756.83 1766.583,-766.1786 1766.6357,-767.8937 1727.2959,-836.9828 1712.8815,-850.4415 1634.752,-901.2486 1624.1846,-908.894 1621.83,-910.7726 1616.4877,-913.7318 1587.0386,-948.2015 1598.1949,-994.8024 1606.9077,-1066.7172 1606.7205,-1067 1548.059,-1169.6476 1492.5944,-1214.3231 1479.5792,-1213.8239 1468.9983,-1210.2522 1455.8557,-1206.1676 1432.5582,-1200.8007 1425.9602,-1199.8152 1408.4803,-1197.6731 1400.3041,-1197.1125 1396.8938,-1196.9706 1392.428,-1196.9049 1375.4335,-1197.1124 1363.2676,-1197.5881 1334.8907,-1187.7493 1260.5591,-1143.2281 1222.8912,-1067 1215.5758,-1054.1213 1189.3983,-1031.6582 1183.5662,-982.48 1183.5331,-981.9548 1179.416,-936.8548 1132.4568,-908.4414 1130.1868,-907.2151 1113.801,-898.8787 1107.3811,-895.8235 1092.8759,-889.8621 1088.4924,-888.3469 1078.0592,-874.3029 1073.0153,-868.3779 1072.668,-868.024 1056.0363,-849.2327 1044.4584,-838.3193 1037.4352,-832.9959 1030.0603,-826.3318 984.7723,-790.6377 972.1204,-779.2681 967.6859,-774.8438 966.6475,-773.9454 958.7814,-765.7072 955.0071,-762.2173 950.7989,-757.9989 935.424,-740.0276 925.0298,-727.0784 1010.4589,-622.2925 1010.5306,-621.19 1011.5255,-613.5168 1014.6171,-581.5256 1048.5825,-563.5231 1064.9006,-556.352 1076.7576,-551.5052 1089.0631,-547.2363 1105.0865,-543.1484 1114.375,-541.0652 1115.9148,-540.7675 1145.432,-536.8627 1159.8569,-534.5013 1168.1462,-532.8866 1177.2166,-530.8389 1179.3771,-531.2808 1179.7471,-531.3343 1187.7977,-532.2593 1203.1592,-533.5676 1210.3971,-533.9673 "/>
<polyline fill="none" stroke="#000000" points="1572.9948,-266.5191 1577.1812,-266.583 1578.4701,-266.5177 1588.1265,-266.6332 1590.5753,-266.5011 1591.6007,-266.5738 1595.4222,-266.5937 1603.1577,-266.1242 1603.1848,-266.1242 1608.6346,-266.4741 1611.0765,-266.4705 1612.2378,-266.5408 1621.7952,-267.718 1635.7413,-270.3088 1638.6464,-271.2036 1735.098,-306.9939 1735.2273,-308.1123 1740.3964,-342.2083 1746.1576,-373.0787 1854.8396,-394.0279 1879.6318,-399.5583 1884.3802,-400.8963 1885.4735,-401.2368 1895.4423,-404.64 1902.652,-407.5344 1915.5792,-406.3155 1926.4374,-406.1414 1942.0918,-406.7071 1945.2947,-406.9062 1952.7845,-407.5672 1957.5229,-408.2329 1965.1041,-406.068 1965.2993,-406.0177 1986.0537,-401.2486 2096.8628,-378.9423 2095.3474,-299.1318 2091.9907,-283.5823 2089.9258,-271.7439 2080.6687,-202.0107 2029.9781,-144.8657 2029.9401,-144.7113 1966.2336,-55.7094 1966.4334,-39.7626 1967.5214,-16.4406 1967.2365,3.8677 1967.3707,10.6272 1937.3015,56.7387 1902.6453,86.1142 1845.9446,106.1052 1839.3485,104.612 1824.0825,101.6047 1814.6354,100.0261 1804.7419,98.9647 1796.0869,98.2948 1786.2256,98.1211 1775.5071,98.2527 1769.7451,98.6677 1751.7223,100.5058 1747.8969,101.0091 1743.3856,101.8703 1739.2684,102.7794 1707.1287,110.8425 1613.9835,38.4119 1601.0859,2.2006 1600.1859,-4.2935 1596.6077,-24.8981 1567.1804,-65.9477 1556.7107,-70.2411 1542.6809,-75.2288 1541.4109,-75.6108 1529.4128,-78.898 1528.9868,-79.0031 1515.7986,-81.9032 1488.1926,-87.2217 1442.0453,-103.7379 1432.8842,-117.1055 1391.3452,-188.9318 1389.9122,-191.2143 1391.9757,-193.7235 1396.2467,-198.3926 1405.6738,-208.1487 1421.7849,-223.8567 1459.1176,-263.9352 1517.0157,-266.7365 1517.0753,-266.7431 1523.3699,-266.6146 1527.5524,-266.7901 1530.7557,-266.7139 1535.7268,-266.2673 1541.0934,-266.4565 1543.3832,-266.3868 1546.8149,-266.4962 1547.3746,-266.549 1555.635,-266.7852 1557.7415,-266.7072 1558.3857,-266.641 1566.9337,-266.8282 1568.8153,-266.7459 1569.286,-266.6942 1572.9948,-266.5191 "/>
<!-- ceph&#45;base&#45;&gt;ceph&#45;common -->
<g id="edge1" class="edge">
<title>ceph&#45;base&#45;&gt;ceph&#45;common</title>
<path fill="none" stroke="#444444" stroke-opacity="0.333333" d="M535.9072,-381.7806C496.2864,-407.034 424.3554,-452.8812 380.6215,-480.7562"/>
<polygon fill="#444444" fill-opacity="0.333333" stroke="#444444" stroke-opacity="0.333333" points="378.5554,-477.9225 372.0039,-486.2489 382.3179,-483.8254 378.5554,-477.9225"/>
</g>
<!-- ceph&#45;base&#45;&gt;ceph&#45;selinux -->
<g id="edge2" class="edge">
<title>ceph&#45;base&#45;&gt;ceph&#45;selinux</title>
<path fill="none" stroke="#444444" stroke-opacity="0.333333" d="M553.2859,-345.5429C533.7512,-313.3279 492.9269,-246.0039 470.0933,-208.3485"/>
<polygon fill="#444444" fill-opacity="0.333333" stroke="#444444" stroke-opacity="0.333333" points="472.8775,-206.1897 464.6996,-199.4537 466.8919,-209.8192 472.8775,-206.1897"/>
</g>
<!-- ceph&#45;base&#45;&gt;cryptsetup -->
<g id="edge3" class="edge">
<title>ceph&#45;base&#45;&gt;cryptsetup</title>
<path fill="none" stroke="#444444" stroke-opacity="0.333333" d="M577.7893,-345.2946C591.1223,-327.1259 611.6473,-299.1566 626.7085,-278.6329"/>
<polygon fill="#444444" fill-opacity="0.333333" stroke="#444444" stroke-opacity="0.333333" points="629.6972,-280.476 632.7918,-270.3431 624.0538,-276.3345 629.6972,-280.476"/>
</g>
<!-- ceph&#45;base&#45;&gt;libcephfs2 -->
<g id="edge4" class="edge">
<title>ceph&#45;base&#45;&gt;libcephfs2</title>
<path fill="none" stroke="#444444" stroke-opacity="0.333333" d="M504.9112,-352.2008C499.7131,-351.195 494.4097,-350.1688 489.1068,-349.1428"/>
<polygon fill="#444444" fill-opacity="0.333333" stroke="#444444" stroke-opacity="0.333333" points="489.42,-345.6385 478.9372,-347.1751 488.0902,-352.5111 489.42,-345.6385"/>
</g>
<!-- ceph&#45;base&#45;&gt;librados2 -->
<g id="edge5" class="edge">
<title>ceph&#45;base&#45;&gt;librados2</title>
<path fill="none" stroke="#444444" stroke-opacity="0.333333" d="M505.083,-378.3812C479.1744,-384.81 448.6087,-392.3943 421.6827,-399.0755"/>
<polygon fill="#444444" fill-opacity="0.333333" stroke="#444444" stroke-opacity="0.333333" points="420.8054,-395.687 411.9427,-401.4924 422.4913,-402.481 420.8054,-395.687"/>
</g>
<!-- ceph&#45;base&#45;&gt;librbd1 -->
<g id="edge6" class="edge">
<title>ceph&#45;base&#45;&gt;librbd1</title>
<path fill="none" stroke="#444444" stroke-opacity="0.333333" d="M505.502,-381.7352C448.9791,-399.0851 364.0567,-425.1523 307.7946,-442.4222"/>
<polygon fill="#444444" fill-opacity="0.333333" stroke="#444444" stroke-opacity="0.333333" points="306.5155,-439.1536 297.9828,-445.434 308.5696,-445.8454 306.5155,-439.1536"/>
</g>
<!-- ceph&#45;base&#45;&gt;librgw2 -->
<g id="edge7" class="edge">
<title>ceph&#45;base&#45;&gt;librgw2</title>
<path fill="none" stroke="#444444" stroke-opacity="0.333333" d="M535.0598,-345.6053C503.8947,-326.3234 454.4245,-295.7162 420.2801,-274.5911"/>
<polygon fill="#444444" fill-opacity="0.333333" stroke="#444444" stroke-opacity="0.333333" points="421.8632,-271.4549 411.5177,-269.1698 418.1801,-277.4077 421.8632,-271.4549"/>
</g>
<!-- ceph&#45;base&#45;&gt;lttng&#45;ust -->
<g id="edge8" class="edge">
<title>ceph&#45;base&#45;&gt;lttng&#45;ust</title>
<path fill="none" stroke="#444444" stroke-opacity="0.333333" d="M529.5318,-381.8653C527.6958,-382.8253 525.8405,-383.7954 523.9805,-384.768"/>
<polygon fill="#444444" fill-opacity="0.333333" stroke="#444444" stroke-opacity="0.333333" points="521.9481,-381.8811 514.7084,-389.6165 525.1918,-388.0842 521.9481,-381.8811"/>
</g>
<!-- ceph&#45;base&#45;&gt;which -->
<g id="edge9" class="edge">
<title>ceph&#45;base&#45;&gt;which</title>
<path fill="none" stroke="#444444" stroke-opacity="0.333333" d="M565.5889,-345.4115C567.7887,-314.4557 572.2614,-251.5133 574.8656,-214.8668"/>
<polygon fill="#444444" fill-opacity="0.333333" stroke="#444444" stroke-opacity="0.333333" points="578.3604,-215.0621 575.5782,-204.8391 571.3781,-214.5658 578.3604,-215.0621"/>
</g>
<!-- ceph&#45;common&#45;&gt;libcephfs2 -->
<g id="edge10" class="edge">
<title>ceph&#45;common&#45;&gt;libcephfs2</title>
<path fill="none" stroke="#444444" stroke-opacity="0.333333" d="M351.2555,-486.1145C363.5741,-456.3953 388.1186,-397.1805 402.6044,-362.2331"/>
<polygon fill="#444444" fill-opacity="0.333333" stroke="#444444" stroke-opacity="0.333333" points="405.9827,-363.2231 406.5786,-352.645 399.5162,-360.5426 405.9827,-363.2231"/>
</g>
<!-- ceph&#45;common&#45;&gt;librados2 -->
<g id="edge11" class="edge">
<title>ceph&#45;common&#45;&gt;librados2</title>
<path fill="none" stroke="#444444" stroke-opacity="0.333333" d="M345.5989,-486.0177C346.8205,-474.0883 348.4411,-458.2614 349.8306,-444.6909"/>
<polygon fill="#444444" fill-opacity="0.333333" stroke="#444444" stroke-opacity="0.333333" points="353.3465,-444.7135 350.8834,-434.4089 346.3829,-444.0004 353.3465,-444.7135"/>
</g>
<!-- ceph&#45;common&#45;&gt;librbd1 -->
<g id="edge12" class="edge">
<title>ceph&#45;common&#45;&gt;librbd1</title>
<path fill="none" stroke="#444444" stroke-opacity="0.333333" d="M305.2459,-486.2302C302.72,-485.0462 300.1603,-483.8463 297.5973,-482.6448"/>
<polygon fill="#444444" fill-opacity="0.333333" stroke="#444444" stroke-opacity="0.333333" points="298.8964,-479.3884 288.3563,-478.313 295.9253,-485.7266 298.8964,-479.3884"/>
</g>
<!-- ceph&#45;common&#45;&gt;gperftools&#45;libs -->
<g id="edge13" class="edge">
<title>ceph&#45;common&#45;&gt;gperftools&#45;libs</title>
<path fill="none" stroke="#444444" stroke-opacity="0.333333" d="M413.3339,-497.3691C447.541,-493.9776 489.4095,-489.8265 527.0756,-486.092"/>
<polygon fill="#444444" fill-opacity="0.333333" stroke="#444444" stroke-opacity="0.333333" points="527.4584,-489.5713 537.0642,-485.1017 526.7677,-482.6055 527.4584,-489.5713"/>
</g>
<!-- ceph&#45;common&#45;&gt;leveldb -->
<g id="edge14" class="edge">
<title>ceph&#45;common&#45;&gt;leveldb</title>
<path fill="none" stroke="#444444" stroke-opacity="0.333333" d="M360.4848,-522.3495C378.0151,-541.2657 405.6925,-571.1313 425.525,-592.5318"/>
<polygon fill="#444444" fill-opacity="0.333333" stroke="#444444" stroke-opacity="0.333333" points="423.079,-595.0416 432.4434,-599.9973 428.2133,-590.2835 423.079,-595.0416"/>
</g>
<!-- ceph&#45;common&#45;&gt;libradosstriper1 -->
<g id="edge15" class="edge">
<title>ceph&#45;common&#45;&gt;libradosstriper1</title>
<path fill="none" stroke="#444444" stroke-opacity="0.333333" d="M273.9715,-489.5237C248.572,-484.1545 219.4066,-477.9892 192.1698,-472.2316"/>
<polygon fill="#444444" fill-opacity="0.333333" stroke="#444444" stroke-opacity="0.333333" points="192.7407,-468.775 182.233,-470.1311 191.2929,-475.6237 192.7407,-468.775"/>
</g>
<!-- ceph&#45;common&#45;&gt;python2&#45;prettytable -->
<g id="edge16" class="edge">
<title>ceph&#45;common&#45;&gt;python2&#45;prettytable</title>
<path fill="none" stroke="#444444" stroke-opacity="0.333333" d="M329.4707,-522.4575C308.3269,-549.426 268.5455,-600.1664 244.2075,-631.209"/>
<polygon fill="#444444" fill-opacity="0.333333" stroke="#444444" stroke-opacity="0.333333" points="241.1964,-629.377 237.7808,-639.4061 246.7052,-633.696 241.1964,-629.377"/>
</g>
<!-- ceph&#45;common&#45;&gt;python&#45;cephfs -->
<g id="edge17" class="edge">
<title>ceph&#45;common&#45;&gt;python&#45;cephfs</title>
<path fill="none" stroke="#444444" stroke-opacity="0.333333" d="M336.1911,-486.0787C320.9479,-449.2969 286.3891,-365.9068 268.4119,-322.528"/>
<polygon fill="#444444" fill-opacity="0.333333" stroke="#444444" stroke-opacity="0.333333" points="271.5917,-321.0585 264.5298,-313.1604 265.125,-323.7385 271.5917,-321.0585"/>
</g>
<!-- ceph&#45;common&#45;&gt;python&#45;rados -->
<g id="edge18" class="edge">
<title>ceph&#45;common&#45;&gt;python&#45;rados</title>
<path fill="none" stroke="#444444" stroke-opacity="0.333333" d="M321.1373,-522.4205C319.055,-524.0934 316.9224,-525.8067 314.7834,-527.5251"/>
<polygon fill="#444444" fill-opacity="0.333333" stroke="#444444" stroke-opacity="0.333333" points="312.1984,-525.1122 306.5946,-534.1038 316.5825,-530.5693 312.1984,-525.1122"/>
</g>
<!-- ceph&#45;common&#45;&gt;python&#45;rbd -->
<g id="edge19" class="edge">
<title>ceph&#45;common&#45;&gt;python&#45;rbd</title>
<path fill="none" stroke="#444444" stroke-opacity="0.333333" d="M274.0279,-505.7561C263.5212,-505.9801 252.6482,-506.2119 242.0422,-506.438"/>
<polygon fill="#444444" fill-opacity="0.333333" stroke="#444444" stroke-opacity="0.333333" points="241.8991,-502.9401 231.976,-506.6526 242.0484,-509.9386 241.8991,-502.9401"/>
</g>
<!-- ceph&#45;common&#45;&gt;python&#45;rgw -->
<g id="edge20" class="edge">
<title>ceph&#45;common&#45;&gt;python&#45;rgw</title>
<path fill="none" stroke="#444444" stroke-opacity="0.333333" d="M323.0457,-486.0172C299.713,-465.4275 261.6371,-431.8277 235.6276,-408.8757"/>
<polygon fill="#444444" fill-opacity="0.333333" stroke="#444444" stroke-opacity="0.333333" points="237.7866,-406.1131 227.9728,-402.1208 233.155,-411.3617 237.7866,-406.1131"/>
</g>
<!-- libcephfs2&#45;&gt;librados2 -->
<g id="edge21" class="edge">
<title>libcephfs2&#45;&gt;librados2</title>
<path fill="none" stroke="#444444" stroke-opacity="0.333333" d="M400.4455,-352.7208C392.1918,-363.7025 381.52,-377.9014 372.3643,-390.083"/>
<polygon fill="#444444" fill-opacity="0.333333" stroke="#444444" stroke-opacity="0.333333" points="369.5268,-388.033 366.3164,-398.1298 375.1225,-392.2388 369.5268,-388.033"/>
</g>
<!-- librados2&#45;&gt;lttng&#45;ust -->
<g id="edge22" class="edge">
<title>librados2&#45;&gt;lttng&#45;ust</title>
<path fill="none" stroke="#444444" stroke-opacity="0.333333" d="M411.9186,-412.2612C412.0119,-412.255 412.1052,-412.2488 412.1986,-412.2426"/>
<polygon fill="#444444" fill-opacity="0.333333" stroke="#444444" stroke-opacity="0.333333" points="411.1437,-415.8203 420.8905,-411.6669 410.681,-408.8356 411.1437,-415.8203"/>
</g>
<!-- librbd1&#45;&gt;librados2 -->
<g id="edge23" class="edge">
<title>librbd1&#45;&gt;librados2</title>
<path fill="none" stroke="#444444" stroke-opacity="0.333333" d="M291.9589,-442.1861C295.0137,-440.8793 298.1136,-439.5532 301.2137,-438.2269"/>
<polygon fill="#444444" fill-opacity="0.333333" stroke="#444444" stroke-opacity="0.333333" points="302.6526,-441.4183 310.47,-434.2671 299.8994,-434.9824 302.6526,-441.4183"/>
</g>
<!-- librbd1&#45;&gt;lttng&#45;ust -->
<g id="edge24" class="edge">
<title>librbd1&#45;&gt;lttng&#45;ust</title>
<path fill="none" stroke="#444444" stroke-opacity="0.333333" d="M298.0479,-449.2285C330.7132,-441.7832 374.3679,-431.8332 410.7324,-423.5447"/>
<polygon fill="#444444" fill-opacity="0.333333" stroke="#444444" stroke-opacity="0.333333" points="411.8084,-426.8893 420.7805,-421.2545 410.2527,-420.0644 411.8084,-426.8893"/>
</g>
<!-- librgw2&#45;&gt;librados2 -->
<g id="edge25" class="edge">
<title>librgw2&#45;&gt;librados2</title>
<path fill="none" stroke="#444444" stroke-opacity="0.333333" d="M379.0781,-269.4239C373.9287,-298.1274 363.912,-353.9616 357.8276,-387.8767"/>
<polygon fill="#444444" fill-opacity="0.333333" stroke="#444444" stroke-opacity="0.333333" points="354.3224,-387.5948 356.0015,-398.0558 361.2124,-388.831 354.3224,-387.5948"/>
</g>
<!-- libradosstriper1&#45;&gt;librados2 -->
<g id="edge26" class="edge">
<title>libradosstriper1&#45;&gt;librados2</title>
<path fill="none" stroke="#444444" stroke-opacity="0.333333" d="M193.9541,-438.4566C223.7997,-434.2697 256.0258,-429.7489 283.5971,-425.8811"/>
<polygon fill="#444444" fill-opacity="0.333333" stroke="#444444" stroke-opacity="0.333333" points="284.1146,-429.3428 293.5313,-424.4874 283.142,-422.4107 284.1146,-429.3428"/>
</g>
<!-- python&#45;cephfs&#45;&gt;libcephfs2 -->
<g id="edge27" class="edge">
<title>python&#45;cephfs&#45;&gt;libcephfs2</title>
<path fill="none" stroke="#444444" stroke-opacity="0.333333" d="M329.1278,-313.2731C332.6188,-314.1507 336.1269,-315.0325 339.6242,-315.9116"/>
<polygon fill="#444444" fill-opacity="0.333333" stroke="#444444" stroke-opacity="0.333333" points="338.877,-319.3326 349.4286,-318.3761 340.5835,-312.5438 338.877,-319.3326"/>
</g>
<!-- python&#45;rados&#45;&gt;librados2 -->
<g id="edge28" class="edge">
<title>python&#45;rados&#45;&gt;librados2</title>
<path fill="none" stroke="#444444" stroke-opacity="0.333333" d="M293.1035,-534.207C304.8197,-511.0231 325.2526,-470.5911 338.8905,-443.6049"/>
<polygon fill="#444444" fill-opacity="0.333333" stroke="#444444" stroke-opacity="0.333333" points="342.1921,-444.8315 343.5788,-434.3278 335.9446,-441.6742 342.1921,-444.8315"/>
</g>
<!-- python&#45;rbd&#45;&gt;librados2 -->
<g id="edge29" class="edge">
<title>python&#45;rbd&#45;&gt;librados2</title>
<path fill="none" stroke="#444444" stroke-opacity="0.333333" d="M203.9951,-489.8834C233.5749,-475.2275 275.3567,-454.526 307.1116,-438.7924"/>
<polygon fill="#444444" fill-opacity="0.333333" stroke="#444444" stroke-opacity="0.333333" points="308.7944,-441.8647 316.201,-434.2889 305.6866,-435.5924 308.7944,-441.8647"/>
</g>
<!-- python&#45;rbd&#45;&gt;librbd1 -->
<g id="edge30" class="edge">
<title>python&#45;rbd&#45;&gt;librbd1</title>
<path fill="none" stroke="#444444" stroke-opacity="0.333333" d="M198.5257,-489.9589C202.2177,-487.8174 206.0243,-485.6095 209.8169,-483.4097"/>
<polygon fill="#444444" fill-opacity="0.333333" stroke="#444444" stroke-opacity="0.333333" points="211.6861,-486.3717 218.5803,-478.3267 208.1739,-480.3165 211.6861,-486.3717"/>
</g>
<!-- python&#45;rbd&#45;&gt;python&#45;rados -->
<g id="edge31" class="edge">
<title>python&#45;rbd&#45;&gt;python&#45;rados</title>
<path fill="none" stroke="#444444" stroke-opacity="0.333333" d="M215.1321,-526.1558C218.9842,-527.6177 222.8999,-529.1037 226.8087,-530.5871"/>
<polygon fill="#444444" fill-opacity="0.333333" stroke="#444444" stroke-opacity="0.333333" points="225.8795,-533.978 236.4708,-534.2539 228.3632,-527.4335 225.8795,-533.978"/>
</g>
<!-- python&#45;rgw&#45;&gt;librados2 -->
<g id="edge32" class="edge">
<title>python&#45;rgw&#45;&gt;librados2</title>
<path fill="none" stroke="#444444" stroke-opacity="0.333333" d="M272.0769,-398.352C275.8594,-399.1879 279.6716,-400.0304 283.4716,-400.8701"/>
<polygon fill="#444444" fill-opacity="0.333333" stroke="#444444" stroke-opacity="0.333333" points="282.9535,-404.34 293.4732,-403.0804 284.464,-397.5049 282.9535,-404.34"/>
</g>
<!-- python&#45;rgw&#45;&gt;librgw2 -->
<g id="edge33" class="edge">
<title>python&#45;rgw&#45;&gt;librgw2</title>
<path fill="none" stroke="#444444" stroke-opacity="0.333333" d="M231.4814,-365.8813C262.2575,-342.4744 315.8086,-301.7459 350.1394,-275.6355"/>
<polygon fill="#444444" fill-opacity="0.333333" stroke="#444444" stroke-opacity="0.333333" points="352.5871,-278.1712 358.4279,-269.3317 348.3496,-272.5995 352.5871,-278.1712"/>
</g>
<!-- python&#45;rgw&#45;&gt;python&#45;rados -->
<g id="edge34" class="edge">
<title>python&#45;rgw&#45;&gt;python&#45;rados</title>
<path fill="none" stroke="#444444" stroke-opacity="0.333333" d="M215.8648,-402.4094C229.2812,-431.9331 255.7649,-490.2126 271.4612,-524.7533"/>
<polygon fill="#444444" fill-opacity="0.333333" stroke="#444444" stroke-opacity="0.333333" points="268.4475,-526.5816 275.7711,-534.2377 274.8203,-523.6856 268.4475,-526.5816"/>
</g>
<!-- ceph&#45;&gt;ceph&#45;mds -->
<g id="edge35" class="edge">
<title>ceph&#45;&gt;ceph&#45;mds</title>
<path fill="none" stroke="#444444" stroke-opacity="0.333333" d="M747.3044,-476.8126C735.5486,-459.6781 717.8107,-433.8242 704.4502,-414.3508"/>
<polygon fill="#444444" fill-opacity="0.333333" stroke="#444444" stroke-opacity="0.333333" points="707.2004,-412.1726 698.6569,-405.9068 701.4283,-416.1328 707.2004,-412.1726"/>
</g>
<!-- ceph&#45;&gt;ceph&#45;mgr -->
<g id="edge36" class="edge">
<title>ceph&#45;&gt;ceph&#45;mgr</title>
<path fill="none" stroke="#444444" stroke-opacity="0.333333" d="M773.9854,-476.9928C775.8259,-474.6497 777.7402,-472.2125 779.6596,-469.7689"/>
<polygon fill="#444444" fill-opacity="0.333333" stroke="#444444" stroke-opacity="0.333333" points="782.6795,-471.5903 786.1041,-461.5642 777.1746,-467.2664 782.6795,-471.5903"/>
</g>
<!-- ceph&#45;&gt;ceph&#45;mon -->
<g id="edge37" class="edge">
<title>ceph&#45;&gt;ceph&#45;mon</title>
<path fill="none" stroke="#444444" stroke-opacity="0.333333" d="M735.75,-513.1561C715.029,-528.758 684.9596,-551.3988 662.2245,-568.5173"/>
<polygon fill="#444444" fill-opacity="0.333333" stroke="#444444" stroke-opacity="0.333333" points="660.0946,-565.7398 654.2112,-574.5509 664.3052,-571.3319 660.0946,-565.7398"/>
</g>
<!-- ceph&#45;&gt;ceph&#45;osd -->
<g id="edge38" class="edge">
<title>ceph&#45;&gt;ceph&#45;osd</title>
<path fill="none" stroke="#444444" stroke-opacity="0.333333" d="M727.1685,-496.6379C681.5858,-498.8694 597.9075,-502.9659 539.5541,-505.8225"/>
<polygon fill="#444444" fill-opacity="0.333333" stroke="#444444" stroke-opacity="0.333333" points="539.1478,-502.3381 529.3309,-506.323 539.4901,-509.3297 539.1478,-502.3381"/>
</g>
<!-- ceph&#45;mds&#45;&gt;ceph&#45;base -->
<g id="edge39" class="edge">
<title>ceph&#45;mds&#45;&gt;ceph&#45;base</title>
<path fill="none" stroke="#444444" stroke-opacity="0.333333" d="M631.9574,-376.9679C631.8701,-376.9508 631.7827,-376.9336 631.6953,-376.9165"/>
<polygon fill="#444444" fill-opacity="0.333333" stroke="#444444" stroke-opacity="0.333333" points="634.0239,-373.8068 623.537,-375.3156 632.6759,-380.6758 634.0239,-373.8068"/>
</g>
<!-- ceph&#45;mds&#45;&gt;gperftools&#45;libs -->
<g id="edge40" class="edge">
<title>ceph&#45;mds&#45;&gt;gperftools&#45;libs</title>
<path fill="none" stroke="#444444" stroke-opacity="0.333333" d="M674.1076,-405.921C665.9117,-418.4594 654.9133,-435.2849 645.7433,-449.3135"/>
<polygon fill="#444444" fill-opacity="0.333333" stroke="#444444" stroke-opacity="0.333333" points="642.5711,-447.7697 640.0292,-458.0551 648.4303,-451.5998 642.5711,-447.7697"/>
</g>
<!-- ceph&#45;mgr&#45;&gt;ceph&#45;base -->
<g id="edge41" class="edge">
<title>ceph&#45;mgr&#45;&gt;ceph&#45;base</title>
<path fill="none" stroke="#444444" stroke-opacity="0.333333" d="M746.7766,-425.3435C711.3145,-413.3626 664.6527,-397.5978 627.3909,-385.0088"/>
<polygon fill="#444444" fill-opacity="0.333333" stroke="#444444" stroke-opacity="0.333333" points="628.2356,-381.5999 617.6414,-381.7149 625.995,-388.2316 628.2356,-381.5999"/>
</g>
<!-- ceph&#45;mgr&#45;&gt;gperftools&#45;libs -->
<g id="edge42" class="edge">
<title>ceph&#45;mgr&#45;&gt;gperftools&#45;libs</title>
<path fill="none" stroke="#444444" stroke-opacity="0.333333" d="M745.8928,-453.7612C740.6003,-454.7644 735.1226,-455.8028 729.5569,-456.8578"/>
<polygon fill="#444444" fill-opacity="0.333333" stroke="#444444" stroke-opacity="0.333333" points="728.6378,-453.4697 719.4647,-458.771 729.9416,-460.3472 728.6378,-453.4697"/>
</g>
<!-- ceph&#45;mgr&#45;&gt;python2&#45;cherrypy -->
<g id="edge43" class="edge">
<title>ceph&#45;mgr&#45;&gt;python2&#45;cherrypy</title>
<path fill="none" stroke="#444444" stroke-opacity="0.333333" d="M794.5312,-425.2338C788.1596,-405.2631 777.857,-372.972 770.4595,-349.7863"/>
<polygon fill="#444444" fill-opacity="0.333333" stroke="#444444" stroke-opacity="0.333333" points="773.7625,-348.6237 767.3885,-340.1607 767.0937,-350.7514 773.7625,-348.6237"/>
</g>
<!-- ceph&#45;mgr&#45;&gt;python2&#45;pecan -->
<g id="edge44" class="edge">
<title>ceph&#45;mgr&#45;&gt;python2&#45;pecan</title>
<path fill="none" stroke="#444444" stroke-opacity="0.333333" d="M854.5819,-440.4142C893.6088,-438.2372 947.1637,-435.2497 992.6506,-432.7123"/>
<polygon fill="#444444" fill-opacity="0.333333" stroke="#444444" stroke-opacity="0.333333" points="993.0335,-436.1965 1002.823,-432.1448 992.6435,-429.2073 993.0335,-436.1965"/>
</g>
<!-- ceph&#45;mgr&#45;&gt;python&#45;werkzeug -->
<g id="edge45" class="edge">
<title>ceph&#45;mgr&#45;&gt;python&#45;werkzeug</title>
<path fill="none" stroke="#444444" stroke-opacity="0.333333" d="M802.8088,-461.4618C807.0565,-492.4694 815.7773,-556.1291 820.8326,-593.0316"/>
<polygon fill="#444444" fill-opacity="0.333333" stroke="#444444" stroke-opacity="0.333333" points="817.3897,-593.6881 822.2147,-603.1205 824.325,-592.738 817.3897,-593.6881"/>
</g>
<!-- ceph&#45;mon&#45;&gt;ceph&#45;base -->
<g id="edge46" class="edge">
<title>ceph&#45;mon&#45;&gt;ceph&#45;base</title>
<path fill="none" stroke="#444444" stroke-opacity="0.333333" d="M624.9913,-574.2267C613.4514,-534.2016 585.9541,-438.8298 572.2859,-391.4229"/>
<polygon fill="#444444" fill-opacity="0.333333" stroke="#444444" stroke-opacity="0.333333" points="575.6457,-390.4419 569.5123,-381.803 568.9197,-392.3812 575.6457,-390.4419"/>
</g>
<!-- ceph&#45;mon&#45;&gt;gperftools&#45;libs -->
<g id="edge47" class="edge">
<title>ceph&#45;mon&#45;&gt;gperftools&#45;libs</title>
<path fill="none" stroke="#444444" stroke-opacity="0.333333" d="M629.9644,-574.3653C629.6383,-555.5551 629.1249,-525.9471 628.7468,-504.1362"/>
<polygon fill="#444444" fill-opacity="0.333333" stroke="#444444" stroke-opacity="0.333333" points="632.2463,-504.0746 628.5734,-494.1369 625.2474,-504.1961 632.2463,-504.0746"/>
</g>
<!-- ceph&#45;mon&#45;&gt;leveldb -->
<g id="edge48" class="edge">
<title>ceph&#45;mon&#45;&gt;leveldb</title>
<path fill="none" stroke="#444444" stroke-opacity="0.333333" d="M576.031,-600.3109C554.4792,-603.3861 529.6452,-606.9297 507.7145,-610.059"/>
<polygon fill="#444444" fill-opacity="0.333333" stroke="#444444" stroke-opacity="0.333333" points="506.9432,-606.6335 497.538,-611.5111 507.9321,-613.5633 506.9432,-606.6335"/>
</g>
<!-- ceph&#45;mon&#45;&gt;python2&#45;flask -->
<g id="edge49" class="edge">
<title>ceph&#45;mon&#45;&gt;python2&#45;flask</title>
<path fill="none" stroke="#444444" stroke-opacity="0.333333" d="M642.9789,-610.6101C665.2032,-642.1819 711.2324,-707.5708 737.0108,-744.1916"/>
<polygon fill="#444444" fill-opacity="0.333333" stroke="#444444" stroke-opacity="0.333333" points="734.1792,-746.2497 742.7975,-752.4122 739.9033,-742.2203 734.1792,-746.2497"/>
</g>
<!-- ceph&#45;osd&#45;&gt;ceph&#45;base -->
<g id="edge50" class="edge">
<title>ceph&#45;osd&#45;&gt;ceph&#45;base</title>
<path fill="none" stroke="#444444" stroke-opacity="0.333333" d="M486.3557,-490.8639C501.7501,-465.7431 529.7108,-420.1167 547.6212,-390.8903"/>
<polygon fill="#444444" fill-opacity="0.333333" stroke="#444444" stroke-opacity="0.333333" points="550.8136,-392.3794 553.0545,-382.0242 544.8451,-388.7218 550.8136,-392.3794"/>
</g>
<!-- ceph&#45;osd&#45;&gt;librados2 -->
<g id="edge51" class="edge">
<title>ceph&#45;osd&#45;&gt;librados2</title>
<path fill="none" stroke="#444444" stroke-opacity="0.333333" d="M451.348,-490.8589C432.3754,-476.4889 405.674,-456.2651 384.8423,-440.4869"/>
<polygon fill="#444444" fill-opacity="0.333333" stroke="#444444" stroke-opacity="0.333333" points="386.6865,-437.4931 376.6017,-434.2454 382.46,-443.0733 386.6865,-437.4931"/>
</g>
<!-- ceph&#45;osd&#45;&gt;gperftools&#45;libs -->
<g id="edge52" class="edge">
<title>ceph&#45;osd&#45;&gt;gperftools&#45;libs</title>
<path fill="none" stroke="#444444" stroke-opacity="0.333333" d="M529.6329,-497.2745C531.136,-496.9512 532.6516,-496.6252 534.177,-496.2971"/>
<polygon fill="#444444" fill-opacity="0.333333" stroke="#444444" stroke-opacity="0.333333" points="535.3199,-499.6314 544.3603,-494.1067 533.8479,-492.7879 535.3199,-499.6314"/>
</g>
<!-- ceph&#45;osd&#45;&gt;leveldb -->
<g id="edge53" class="edge">
<title>ceph&#45;osd&#45;&gt;leveldb</title>
<path fill="none" stroke="#444444" stroke-opacity="0.333333" d="M471.0013,-527.0352C466.9321,-544.2964 460.7395,-570.5653 456.0383,-590.5074"/>
<polygon fill="#444444" fill-opacity="0.333333" stroke="#444444" stroke-opacity="0.333333" points="452.623,-589.7417 453.735,-600.278 459.4362,-591.3479 452.623,-589.7417"/>
</g>
<!-- python2&#45;pecan&#45;&gt;python2&#45;mako -->
<g id="edge54" class="edge">
<title>python2&#45;pecan&#45;&gt;python2&#45;mako</title>
<path fill="none" stroke="#444444" stroke-opacity="0.333333" d="M1091.9762,-445.7051C1110.3231,-484.3299 1153.4752,-575.1757 1175.2092,-620.9312"/>
<polygon fill="#444444" fill-opacity="0.333333" stroke="#444444" stroke-opacity="0.333333" points="1172.0532,-622.4444 1179.5053,-629.9754 1178.3761,-619.4409 1172.0532,-622.4444"/>
</g>
<!-- python2&#45;pecan&#45;&gt;python2&#45;logutils -->
<g id="edge55" class="edge">
<title>python2&#45;pecan&#45;&gt;python2&#45;logutils</title>
<path fill="none" stroke="#444444" stroke-opacity="0.333333" d="M1080.629,-409.3606C1076.2813,-380.664 1067.8242,-324.8433 1062.6871,-290.9364"/>
<polygon fill="#444444" fill-opacity="0.333333" stroke="#444444" stroke-opacity="0.333333" points="1066.1038,-290.1227 1061.1453,-280.7599 1059.1828,-291.1713 1066.1038,-290.1227"/>
</g>
<!-- python2&#45;pecan&#45;&gt;python2&#45;simplegeneric -->
<g id="edge56" class="edge">
<title>python2&#45;pecan&#45;&gt;python2&#45;simplegeneric</title>
<path fill="none" stroke="#444444" stroke-opacity="0.333333" d="M1092.8289,-409.172C1102.0169,-391.1662 1116.0946,-363.5778 1126.5728,-343.0434"/>
<polygon fill="#444444" fill-opacity="0.333333" stroke="#444444" stroke-opacity="0.333333" points="1129.8189,-344.3824 1131.2465,-333.8842 1123.5837,-341.2007 1129.8189,-344.3824"/>
</g>
<!-- python2&#45;pecan&#45;&gt;python2&#45;singledispatch -->
<g id="edge57" class="edge">
<title>python2&#45;pecan&#45;&gt;python2&#45;singledispatch</title>
<path fill="none" stroke="#444444" stroke-opacity="0.333333" d="M1059.7372,-409.4674C1049.6415,-401.7099 1037.7094,-392.5412 1026.8627,-384.2066"/>
<polygon fill="#444444" fill-opacity="0.333333" stroke="#444444" stroke-opacity="0.333333" points="1028.8901,-381.3505 1018.8281,-378.0327 1024.625,-386.9011 1028.8901,-381.3505"/>
</g>
<!-- python2&#45;pecan&#45;&gt;python2&#45;webob -->
<g id="edge58" class="edge">
<title>python2&#45;pecan&#45;&gt;python2&#45;webob</title>
<path fill="none" stroke="#444444" stroke-opacity="0.333333" d="M1164.0833,-423.7088C1164.2483,-423.7007 1164.4134,-423.6926 1164.5784,-423.6846"/>
<polygon fill="#444444" fill-opacity="0.333333" stroke="#444444" stroke-opacity="0.333333" points="1162.1917,-427.3055 1172.0089,-423.3216 1161.85,-420.3138 1162.1917,-427.3055"/>
</g>
<!-- python2&#45;pecan&#45;&gt;python2&#45;webtest -->
<g id="edge59" class="edge">
<title>python2&#45;pecan&#45;&gt;python2&#45;webtest</title>
<path fill="none" stroke="#444444" stroke-opacity="0.333333" d="M1133.0647,-409.6155C1180.8301,-392.2706 1253.0681,-366.0391 1303.7993,-347.6173"/>
<polygon fill="#444444" fill-opacity="0.333333" stroke="#444444" stroke-opacity="0.333333" points="1305.1229,-350.8604 1313.3278,-344.1573 1302.7336,-344.2807 1305.1229,-350.8604"/>
</g>
<!-- python2&#45;flask&#45;&gt;python&#45;werkzeug -->
<g id="edge60" class="edge">
<title>python2&#45;flask&#45;&gt;python&#45;werkzeug</title>
<path fill="none" stroke="#444444" stroke-opacity="0.333333" d="M763.8723,-752.4897C775.867,-726.5942 798.0792,-678.6403 812.0831,-648.4071"/>
<polygon fill="#444444" fill-opacity="0.333333" stroke="#444444" stroke-opacity="0.333333" points="815.2909,-649.8091 816.3181,-639.2641 808.9392,-646.867 815.2909,-649.8091"/>
</g>
<!-- python2&#45;flask&#45;&gt;python2&#45;click -->
<g id="edge61" class="edge">
<title>python2&#45;flask&#45;&gt;python2&#45;click</title>
<path fill="none" stroke="#444444" stroke-opacity="0.333333" d="M760.6118,-788.5076C768.2816,-815.686 782.8792,-867.4136 791.9397,-899.5201"/>
<polygon fill="#444444" fill-opacity="0.333333" stroke="#444444" stroke-opacity="0.333333" points="788.5866,-900.5254 794.671,-909.1989 795.3235,-898.6241 788.5866,-900.5254"/>
</g>
<!-- python2&#45;flask&#45;&gt;python2&#45;itsdangerous -->
<g id="edge62" class="edge">
<title>python2&#45;flask&#45;&gt;python2&#45;itsdangerous</title>
<path fill="none" stroke="#444444" stroke-opacity="0.333333" d="M735.3807,-788.6442C714.3547,-807.5778 681.2417,-837.3956 657.776,-858.5262"/>
<polygon fill="#444444" fill-opacity="0.333333" stroke="#444444" stroke-opacity="0.333333" points="655.3084,-856.0383 650.2193,-865.3309 659.9925,-861.2401 655.3084,-856.0383"/>
</g>
<!-- python2&#45;flask&#45;&gt;python2&#45;jinja2 -->
<g id="edge63" class="edge">
<title>python2&#45;flask&#45;&gt;python2&#45;jinja2</title>
<path fill="none" stroke="#444444" stroke-opacity="0.333333" d="M799.6331,-788.6816C826.286,-799.6693 860.429,-813.7448 888.5552,-825.3398"/>
<polygon fill="#444444" fill-opacity="0.333333" stroke="#444444" stroke-opacity="0.333333" points="887.2643,-828.5934 897.8435,-829.1689 889.9323,-822.1217 887.2643,-828.5934"/>
</g>
<!-- python2&#45;mako&#45;&gt;python2&#45;beaker -->
<g id="edge64" class="edge">
<title>python2&#45;mako&#45;&gt;python2&#45;beaker</title>
<path fill="none" stroke="#444444" stroke-opacity="0.333333" d="M1205.9311,-666.329C1230.5166,-691.3552 1275.0878,-736.7256 1303.0875,-765.2272"/>
<polygon fill="#444444" fill-opacity="0.333333" stroke="#444444" stroke-opacity="0.333333" points="1300.6659,-767.7566 1310.1707,-772.4374 1305.6594,-762.851 1300.6659,-767.7566"/>
</g>
<!-- python2&#45;mako&#45;&gt;python2&#45;markupsafe -->
<g id="edge65" class="edge">
<title>python2&#45;mako&#45;&gt;python2&#45;markupsafe</title>
<path fill="none" stroke="#444444" stroke-opacity="0.333333" d="M1172.9135,-666.2815C1155.392,-686.9149 1126.5302,-720.9027 1106.5951,-744.3785"/>
<polygon fill="#444444" fill-opacity="0.333333" stroke="#444444" stroke-opacity="0.333333" points="1103.7543,-742.3166 1099.9493,-752.2046 1109.09,-746.8476 1103.7543,-742.3166"/>
</g>
<!-- python2&#45;webtest&#45;&gt;python2&#45;webob -->
<g id="edge66" class="edge">
<title>python2&#45;webtest&#45;&gt;python2&#45;webob</title>
<path fill="none" stroke="#444444" stroke-opacity="0.333333" d="M1341.4712,-344.3229C1324.4655,-358.7014 1300.5629,-378.9113 1281.8442,-394.7382"/>
<polygon fill="#444444" fill-opacity="0.333333" stroke="#444444" stroke-opacity="0.333333" points="1279.551,-392.0937 1274.1745,-401.2231 1284.0706,-397.4392 1279.551,-392.0937"/>
</g>
<!-- python2&#45;webtest&#45;&gt;python2&#45;beautifulsoup4 -->
<g id="edge67" class="edge">
<title>python2&#45;webtest&#45;&gt;python2&#45;beautifulsoup4</title>
<path fill="none" stroke="#444444" stroke-opacity="0.333333" d="M1396.4461,-307.955C1434.3746,-287.3554 1496.2978,-253.7241 1537.6144,-231.2845"/>
<polygon fill="#444444" fill-opacity="0.333333" stroke="#444444" stroke-opacity="0.333333" points="1539.4987,-234.244 1546.6159,-226.3957 1536.1578,-228.0927 1539.4987,-234.244"/>
</g>
<!-- python2&#45;webtest&#45;&gt;python2&#45;waitress -->
<g id="edge68" class="edge">
<title>python2&#45;webtest&#45;&gt;python2&#45;waitress</title>
<path fill="none" stroke="#444444" stroke-opacity="0.333333" d="M1454.0133,-325.5593C1454.098,-325.5588 1454.1827,-325.5582 1454.2673,-325.5577"/>
<polygon fill="#444444" fill-opacity="0.333333" stroke="#444444" stroke-opacity="0.333333" points="1452.1765,-329.0708 1462.1547,-325.5091 1452.1332,-322.0709 1452.1765,-329.0708"/>
</g>
<!-- python2&#45;jinja2&#45;&gt;python2&#45;markupsafe -->
<g id="edge70" class="edge">
<title>python2&#45;jinja2&#45;&gt;python2&#45;markupsafe</title>
<path fill="none" stroke="#444444" stroke-opacity="0.333333" d="M975.1501,-829.181C995.0822,-818.4545 1020.5617,-804.7425 1041.921,-793.2479"/>
<polygon fill="#444444" fill-opacity="0.333333" stroke="#444444" stroke-opacity="0.333333" points="1043.6473,-796.2936 1050.7945,-788.4726 1040.33,-790.1295 1043.6473,-796.2936"/>
</g>
<!-- python2&#45;jinja2&#45;&gt;python2&#45;babel -->
<g id="edge69" class="edge">
<title>python2&#45;jinja2&#45;&gt;python2&#45;babel</title>
<path fill="none" stroke="#444444" stroke-opacity="0.333333" d="M946.8614,-865.4618C953.3971,-888.2518 964.6511,-927.4941 972.308,-954.1936"/>
<polygon fill="#444444" fill-opacity="0.333333" stroke="#444444" stroke-opacity="0.333333" points="969.0265,-955.4476 975.1476,-964.0953 975.7552,-953.5179 969.0265,-955.4476"/>
</g>
<!-- python2&#45;beaker&#45;&gt;pycryptopp -->
<g id="edge72" class="edge">
<title>python2&#45;beaker&#45;&gt;pycryptopp</title>
<path fill="none" stroke="#444444" stroke-opacity="0.333333" d="M1414.2986,-792.4978C1414.4527,-792.5009 1414.6067,-792.5039 1414.7608,-792.507"/>
<polygon fill="#444444" fill-opacity="0.333333" stroke="#444444" stroke-opacity="0.333333" points="1411.5909,-795.9447 1421.6584,-792.6438 1411.7298,-788.946 1411.5909,-795.9447"/>
</g>
<!-- python2&#45;beaker&#45;&gt;python2&#45;paste -->
<g id="edge73" class="edge">
<title>python2&#45;beaker&#45;&gt;python2&#45;paste</title>
<path fill="none" stroke="#444444" stroke-opacity="0.333333" d="M1334.8557,-808.9835C1344.5983,-835.6148 1362.8185,-885.4201 1374.2128,-916.5664"/>
<polygon fill="#444444" fill-opacity="0.333333" stroke="#444444" stroke-opacity="0.333333" points="1370.9303,-917.7814 1377.653,-925.9702 1377.5042,-915.3764 1370.9303,-917.7814"/>
</g>
<!-- python2&#45;beautifulsoup4&#45;&gt;python2&#45;lxml -->
<g id="edge75" class="edge">
<title>python2&#45;beautifulsoup4&#45;&gt;python2&#45;lxml</title>
<path fill="none" stroke="#444444" stroke-opacity="0.333333" d="M1629.5195,-190.1378C1649.7102,-180.543 1672.5077,-168.7414 1690.591,-158.4693"/>
<polygon fill="#444444" fill-opacity="0.333333" stroke="#444444" stroke-opacity="0.333333" points="1692.6842,-161.3014 1699.5788,-153.2568 1689.1724,-155.246 1692.6842,-161.3014"/>
</g>
<!-- pycryptopp&#45;&gt;cryptopp -->
<g id="edge71" class="edge">
<title>pycryptopp&#45;&gt;cryptopp</title>
<path fill="none" stroke="#444444" stroke-opacity="0.333333" d="M1549.0621,-775.9234C1549.8318,-775.7018 1550.6019,-775.4802 1551.3719,-775.2586"/>
<polygon fill="#444444" fill-opacity="0.333333" stroke="#444444" stroke-opacity="0.333333" points="1552.6999,-778.5185 1561.3417,-772.3891 1550.7637,-771.7916 1552.6999,-778.5185"/>
</g>
<!-- python2&#45;paste&#45;&gt;python2&#45;tempita -->
<g id="edge74" class="edge">
<title>python2&#45;paste&#45;&gt;python2&#45;tempita</title>
<path fill="none" stroke="#444444" stroke-opacity="0.333333" d="M1390.2169,-962.2684C1396.8211,-982.5028 1407.5879,-1015.4903 1415.273,-1039.0363"/>
<polygon fill="#444444" fill-opacity="0.333333" stroke="#444444" stroke-opacity="0.333333" points="1412.0287,-1040.3767 1418.4588,-1048.7972 1418.6832,-1038.2047 1412.0287,-1040.3767"/>
</g>
<!-- python2&#45;lxml&#45;&gt;python2&#45;beautifulsoup4 -->
<g id="edge76" class="edge">
<title>python2&#45;lxml&#45;&gt;python2&#45;beautifulsoup4</title>
<path fill="none" stroke="#444444" stroke-opacity="0.333333" d="M1673.9805,-153.1522C1653.7898,-162.747 1630.9923,-174.5486 1612.909,-184.8207"/>
<polygon fill="#444444" fill-opacity="0.333333" stroke="#444444" stroke-opacity="0.333333" points="1610.8158,-181.9886 1603.9212,-190.0332 1614.3276,-188.044 1610.8158,-181.9886"/>
</g>
<!-- python2&#45;lxml&#45;&gt;python2&#45;html5lib -->
<g id="edge77" class="edge">
<title>python2&#45;lxml&#45;&gt;python2&#45;html5lib</title>
<path fill="none" stroke="#444444" stroke-opacity="0.333333" d="M1771.966,-153.1085C1778.5855,-155.5657 1785.437,-158.1091 1792.2117,-160.624"/>
<polygon fill="#444444" fill-opacity="0.333333" stroke="#444444" stroke-opacity="0.333333" points="1791.4537,-164.0759 1802.0467,-164.2749 1793.8898,-157.5135 1791.4537,-164.0759"/>
</g>
<!-- python2&#45;lxml&#45;&gt;python2&#45;cssselect -->
<g id="edge78" class="edge">
<title>python2&#45;lxml&#45;&gt;python2&#45;cssselect</title>
<path fill="none" stroke="#444444" stroke-opacity="0.333333" d="M1732.5665,-117.0428C1742.2779,-97.9333 1757.7291,-67.5296 1768.9525,-45.4449"/>
<polygon fill="#444444" fill-opacity="0.333333" stroke="#444444" stroke-opacity="0.333333" points="1772.2147,-46.7511 1773.6251,-36.2506 1765.9743,-43.5797 1772.2147,-46.7511"/>
</g>
<!-- python2&#45;html5lib&#45;&gt;python2&#45;webencodings -->
<g id="edge79" class="edge">
<title>python2&#45;html5lib&#45;&gt;python2&#45;webencodings</title>
<path fill="none" stroke="#444444" stroke-opacity="0.333333" d="M1864.2617,-200.7732C1874.6158,-215.0029 1889.1104,-234.9231 1900.7506,-250.9204"/>
<polygon fill="#444444" fill-opacity="0.333333" stroke="#444444" stroke-opacity="0.333333" points="1898.1655,-253.3164 1906.8793,-259.3431 1903.8257,-249.1979 1898.1655,-253.3164"/>
</g>
<!-- ceph&#45;base -->
<g id="node1" class="node">
<title>ceph&#45;base</title>
<text text-anchor="middle" x="564.29" y="-359.99" font-family="monospace" font-size="14.00" fill="#000000">ceph&#45;base</text>
</g>
<!-- ceph&#45;common -->
<g id="node2" class="node">
<title>ceph&#45;common</title>
<text text-anchor="middle" x="343.73" y="-500.57" font-family="monospace" font-size="14.00" fill="#000000">ceph&#45;common</text>
</g>
<!-- ceph&#45;selinux -->
<g id="node3" class="node">
<title>ceph&#45;selinux</title>
<text text-anchor="middle" x="453.74" y="-177.68" font-family="monospace" font-size="14.00" fill="#000000">ceph&#45;selinux</text>
</g>
<!-- cryptsetup -->
<g id="node4" class="node">
<title>cryptsetup</title>
<text text-anchor="middle" x="646.04" y="-248.59" font-family="monospace" font-size="14.00" fill="#000000">cryptsetup</text>
</g>
<!-- libcephfs2 -->
<g id="node5" class="node">
<title>libcephfs2</title>
<text text-anchor="middle" x="414.05" y="-330.92" font-family="monospace" font-size="14.00" fill="#000000">libcephfs2</text>
</g>
<!-- librados2 -->
<g id="node6" class="node">
<title>librados2</title>
<text text-anchor="middle" x="352.75" y="-412.48" font-family="monospace" font-size="14.00" fill="#000000">librados2</text>
</g>
<!-- librbd1 -->
<g id="node7" class="node">
<title>librbd1</title>
<text text-anchor="middle" x="249.78" y="-456.53" font-family="monospace" font-size="14.00" fill="#000000">librbd1</text>
</g>
<!-- librgw2 -->
<g id="node8" class="node">
<title>librgw2</title>
<text text-anchor="middle" x="382.36" y="-247.43" font-family="monospace" font-size="14.00" fill="#000000">librgw2</text>
</g>
<!-- lttng&#45;ust -->
<g id="node9" class="node">
<title>lttng&#45;ust</title>
<text text-anchor="middle" x="480.03" y="-404.05" font-family="monospace" font-size="14.00" fill="#000000">lttng&#45;ust</text>
</g>
<!-- which -->
<g id="node10" class="node">
<title>which</title>
<text text-anchor="middle" x="576.87" y="-182.96" font-family="monospace" font-size="14.00" fill="#000000">which</text>
</g>
<!-- gperftools&#45;libs -->
<g id="node11" class="node">
<title>gperftools&#45;libs</title>
<text text-anchor="middle" x="628.26" y="-472.36" font-family="monospace" font-size="14.00" fill="#000000">gperftools&#45;libs</text>
</g>
<!-- leveldb -->
<g id="node12" class="node">
<title>leveldb</title>
<text text-anchor="middle" x="449.47" y="-614.67" font-family="monospace" font-size="14.00" fill="#000000">leveldb</text>
</g>
<!-- libradosstriper1 -->
<g id="node13" class="node">
<title>libradosstriper1</title>
<text text-anchor="middle" x="96.841" y="-448.38" font-family="monospace" font-size="14.00" fill="#000000">libradosstriper1</text>
</g>
<!-- python2&#45;prettytable -->
<g id="node14" class="node">
<title>python2&#45;prettytable</title>
<text text-anchor="middle" x="223.54" y="-653.87" font-family="monospace" font-size="14.00" fill="#000000">python2&#45;prettytable</text>
</g>
<!-- python&#45;cephfs -->
<g id="node15" class="node">
<title>python&#45;cephfs</title>
<text text-anchor="middle" x="257.07" y="-291.46" font-family="monospace" font-size="14.00" fill="#000000">python&#45;cephfs</text>
</g>
<!-- python&#45;rados -->
<g id="node16" class="node">
<title>python&#45;rados</title>
<text text-anchor="middle" x="283.97" y="-548.58" font-family="monospace" font-size="14.00" fill="#000000">python&#45;rados</text>
</g>
<!-- python&#45;rbd -->
<g id="node17" class="node">
<title>python&#45;rbd</title>
<text text-anchor="middle" x="167.37" y="-504.33" font-family="monospace" font-size="14.00" fill="#000000">python&#45;rbd</text>
</g>
<!-- python&#45;rgw -->
<g id="node18" class="node">
<title>python&#45;rgw</title>
<text text-anchor="middle" x="207.54" y="-380.39" font-family="monospace" font-size="14.00" fill="#000000">python&#45;rgw</text>
</g>
<!-- ceph -->
<g id="node19" class="node">
<title>ceph</title>
<text text-anchor="middle" x="759.81" y="-491.34" font-family="monospace" font-size="14.00" fill="#000000">ceph</text>
</g>
<!-- ceph&#45;mds -->
<g id="node20" class="node">
<title>ceph&#45;mds</title>
<text text-anchor="middle" x="686.09" y="-383.89" font-family="monospace" font-size="14.00" fill="#000000">ceph&#45;mds</text>
</g>
<!-- ceph&#45;mgr -->
<g id="node21" class="node">
<title>ceph&#45;mgr</title>
<text text-anchor="middle" x="800.34" y="-439.74" font-family="monospace" font-size="14.00" fill="#000000">ceph&#45;mgr</text>
</g>
<!-- ceph&#45;mon -->
<g id="node22" class="node">
<title>ceph&#45;mon</title>
<text text-anchor="middle" x="630.28" y="-588.87" font-family="monospace" font-size="14.00" fill="#000000">ceph&#45;mon</text>
</g>
<!-- ceph&#45;osd -->
<g id="node23" class="node">
<title>ceph&#45;osd</title>
<text text-anchor="middle" x="475.26" y="-505.27" font-family="monospace" font-size="14.00" fill="#000000">ceph&#45;osd</text>
</g>
<!-- python2&#45;cherrypy -->
<g id="node24" class="node">
<title>python2&#45;cherrypy</title>
<text text-anchor="middle" x="761.54" y="-318.13" font-family="monospace" font-size="14.00" fill="#000000">python2&#45;cherrypy</text>
</g>
<!-- python2&#45;pecan -->
<g id="node25" class="node">
<title>python2&#45;pecan</title>
<text text-anchor="middle" x="1083.4" y="-423.95" font-family="monospace" font-size="14.00" fill="#000000">python2&#45;pecan</text>
</g>
<!-- python&#45;werkzeug -->
<g id="node26" class="node">
<title>python&#45;werkzeug</title>
<text text-anchor="middle" x="824.69" y="-617.49" font-family="monospace" font-size="14.00" fill="#000000">python&#45;werkzeug</text>
</g>
<!-- python2&#45;flask -->
<g id="node27" class="node">
<title>python2&#45;flask</title>
<text text-anchor="middle" x="755.53" y="-766.8" font-family="monospace" font-size="14.00" fill="#000000">python2&#45;flask</text>
</g>
<!-- python2&#45;mako -->
<g id="node28" class="node">
<title>python2&#45;mako</title>
<text text-anchor="middle" x="1188.2" y="-644.58" font-family="monospace" font-size="14.00" fill="#000000">python2&#45;mako</text>
</g>
<!-- python2&#45;logutils -->
<g id="node29" class="node">
<title>python2&#45;logutils</title>
<text text-anchor="middle" x="1058.4" y="-258.94" font-family="monospace" font-size="14.00" fill="#000000">python2&#45;logutils</text>
</g>
<!-- python2&#45;simplegeneric -->
<g id="node30" class="node">
<title>python2&#45;simplegeneric</title>
<text text-anchor="middle" x="1140.5" y="-312.05" font-family="monospace" font-size="14.00" fill="#000000">python2&#45;simplegeneric</text>
</g>
<!-- python2&#45;singledispatch -->
<g id="node31" class="node">
<title>python2&#45;singledispatch</title>
<text text-anchor="middle" x="995.1" y="-356.1" font-family="monospace" font-size="14.00" fill="#000000">python2&#45;singledispatch</text>
</g>
<!-- python2&#45;webob -->
<g id="node32" class="node">
<title>python2&#45;webob</title>
<text text-anchor="middle" x="1252.7" y="-415.68" font-family="monospace" font-size="14.00" fill="#000000">python2&#45;webob</text>
</g>
<!-- python2&#45;webtest -->
<g id="node33" class="node">
<title>python2&#45;webtest</title>
<text text-anchor="middle" x="1363" y="-322.42" font-family="monospace" font-size="14.00" fill="#000000">python2&#45;webtest</text>
</g>
<!-- python2&#45;click -->
<g id="node34" class="node">
<title>python2&#45;click</title>
<text text-anchor="middle" x="799.83" y="-923.78" font-family="monospace" font-size="14.00" fill="#000000">python2&#45;click</text>
</g>
<!-- python2&#45;itsdangerous -->
<g id="node35" class="node">
<title>python2&#45;itsdangerous</title>
<text text-anchor="middle" x="630.12" y="-879.73" font-family="monospace" font-size="14.00" fill="#000000">python2&#45;itsdangerous</text>
</g>
<!-- python2&#45;jinja2 -->
<g id="node36" class="node">
<title>python2&#45;jinja2</title>
<text text-anchor="middle" x="941.63" y="-843.52" font-family="monospace" font-size="14.00" fill="#000000">python2&#45;jinja2</text>
</g>
<!-- python2&#45;beaker -->
<g id="node37" class="node">
<title>python2&#45;beaker</title>
<text text-anchor="middle" x="1328.2" y="-787.09" font-family="monospace" font-size="14.00" fill="#000000">python2&#45;beaker</text>
</g>
<!-- python2&#45;markupsafe -->
<g id="node38" class="node">
<title>python2&#45;markupsafe</title>
<text text-anchor="middle" x="1084.6" y="-766.58" font-family="monospace" font-size="14.00" fill="#000000">python2&#45;markupsafe</text>
</g>
<!-- python2&#45;beautifulsoup4 -->
<g id="node39" class="node">
<title>python2&#45;beautifulsoup4</title>
<text text-anchor="middle" x="1580.1" y="-204.51" font-family="monospace" font-size="14.00" fill="#000000">python2&#45;beautifulsoup4</text>
</g>
<!-- python2&#45;waitress -->
<g id="node40" class="node">
<title>python2&#45;waitress</title>
<text text-anchor="middle" x="1559.4" y="-321.21" font-family="monospace" font-size="14.00" fill="#000000">python2&#45;waitress</text>
</g>
<!-- python2&#45;babel -->
<g id="node41" class="node">
<title>python2&#45;babel</title>
<text text-anchor="middle" x="980.42" y="-978.78" font-family="monospace" font-size="14.00" fill="#000000">python2&#45;babel</text>
</g>
<!-- pycryptopp -->
<g id="node42" class="node">
<title>pycryptopp</title>
<text text-anchor="middle" x="1486.5" y="-790.23" font-family="monospace" font-size="14.00" fill="#000000">pycryptopp</text>
</g>
<!-- cryptopp -->
<g id="node43" class="node">
<title>cryptopp</title>
<text text-anchor="middle" x="1615.4" y="-753.13" font-family="monospace" font-size="14.00" fill="#000000">cryptopp</text>
</g>
<!-- python2&#45;paste -->
<g id="node44" class="node">
<title>python2&#45;paste</title>
<text text-anchor="middle" x="1384.3" y="-940.44" font-family="monospace" font-size="14.00" fill="#000000">python2&#45;paste</text>
</g>
<!-- python2&#45;tempita -->
<g id="node45" class="node">
<title>python2&#45;tempita</title>
<text text-anchor="middle" x="1424.4" y="-1063.3" font-family="monospace" font-size="14.00" fill="#000000">python2&#45;tempita</text>
</g>
<!-- python2&#45;lxml -->
<g id="node46" class="node">
<title>python2&#45;lxml</title>
<text text-anchor="middle" x="1723.4" y="-131.38" font-family="monospace" font-size="14.00" fill="#000000">python2&#45;lxml</text>
</g>
<!-- python2&#45;html5lib -->
<g id="node47" class="node">
<title>python2&#45;html5lib</title>
<text text-anchor="middle" x="1850.9" y="-178.71" font-family="monospace" font-size="14.00" fill="#000000">python2&#45;html5lib</text>
</g>
<!-- python2&#45;cssselect -->
<g id="node48" class="node">
<title>python2&#45;cssselect</title>
<text text-anchor="middle" x="1782.9" y="-14.3" font-family="monospace" font-size="14.00" fill="#000000">python2&#45;cssselect</text>
</g>
<!-- python2&#45;webencodings -->
<g id="node49" class="node">
<title>python2&#45;webencodings</title>
<text text-anchor="middle" x="1920.2" y="-273.95" font-family="monospace" font-size="14.00" fill="#000000">python2&#45;webencodings</text>
</g>
</g>
</svg>
