<?xml version="1.0" encoding="UTF-8" standalone="no"?>
<!DOCTYPE svg PUBLIC "-//W3C//DTD SVG 1.1//EN"
 "http://www.w3.org/Graphics/SVG/1.1/DTD/svg11.dtd">
<!-- Generated by graphviz version 2.40.1 (20161225.0304)
 -->
<!-- Title: G Pages: 1 -->
<svg width="1560pt" height="1262pt"
 viewBox="0.00 0.00 1559.85 1261.71" xmlns="http://www.w3.org/2000/svg" xmlns:xlink="http://www.w3.org/1999/xlink">
<g id="graph0" class="graph" transform="scale(1 1) rotate(0) translate(173.0865 1049.7842)">
<title>G</title>
<polygon fill="#dae2ff" stroke="transparent" points="-173.0865,211.9253 -173.0865,-1049.7842 1386.7657,-1049.7842 1386.7657,211.9253 -173.0865,211.9253"/>
<polygon fill="#fbb4ae" stroke="#fbb4ae" points="306.899,-378.9298 304.1539,-330.8532 304.1539,-330.8532 306.899,-378.9298 306.0777,-471.5883 285.5368,-478.9629 165.165,-473.5218 154.425,-469.0125 150.9573,-467.4333 126.9435,-455.6248 104.8906,-443.6046 101.2863,-441.3846 80.2283,-428.0304 67.6134,-419.5849 82.9103,-340.1187 84.8594,-328.2428 104.1754,-296.8734 193.4463,-146.8221 156.1907,-19.588 154.6449,-14.846 151.5573,-5.836 164.466,50.0732 273.9994,173.2407 344.5983,196.0523 368.8764,204.3245 378.4747,207.9253 385.4342,203.219 382.2723,72.6422 376.6641,-14.9088 370.6314,-12.8041 370.6314,-12.8041 376.6641,-14.9088 382.2723,72.6422 383.5833,-11.2513 377.5074,-15.8328 377.9305,-17.8347 377.478,-19.9537 376.6113,-20.939 370.7968,-23.0245 370.7968,-23.0245 376.6113,-20.939 377.478,-19.9537 377.9305,-17.8347 377.5074,-15.8328 383.5833,-11.2513 382.2723,72.6422 385.4342,203.219 535.3758,108.3837 632.1814,-7.8583 629.882,-18 603.9383,-155.9054 678.7569,-321.2045 684.1024,-332.349 684.2577,-332.6638 631.6482,-402.5812 487.5981,-444.8206 467.3814,-450.2615 462.9754,-451.338 451.6238,-453.5532 445.0867,-454.6677 430.735,-456.4094 416.2565,-457.099 405.593,-457.3445 402.7913,-457.2023 394.5284,-456.9824 385.0356,-457.4179 384.8496,-457.4218 371.6612,-458.0205 363.0085,-458.8306 348.3908,-460.9063 343.0183,-461.9285 324.4725,-465.907 328.9701,-376.7192 328.9701,-376.7192 324.4725,-465.907 323.6993,-466.1097 306.0777,-471.5883 306.899,-378.9298 306.899,-378.9298"/>
<polygon fill="#fed9a6" stroke="#fed9a6" points="75.0784,-677.5477 74.7637,-677.4438 74.7637,-677.4438 75.0784,-677.5477 79.7187,-677.5477 79.7638,-677.5327 86.9647,-677.5327 87.2889,-677.4249 91.9853,-677.4249 101.2863,-441.3846 80.2283,-428.0304 67.6134,-419.5849 67.4527,-419.6604 59.9498,-422.9694 -94.5253,-486.6682 -166.9045,-615.463 -167.3985,-633.4362 -169.0865,-674.5 -152.6465,-698.2587 -49.2132,-857.4629 .3187,-881.6978 74.0339,-986.1747 186.0768,-1008.5592 204.1126,-1012.4648 217.1839,-1015.7295 231.582,-1019.8032 240.6835,-1022.6793 238.4822,-815.7397 244.1797,-817.5863 244.1797,-817.5863 238.4822,-815.7397 240.6835,-1022.6793 255.3149,-1027.5443 265.2596,-1031.3412 267.979,-1032.4695 288.0821,-1041.4897 291.4011,-1043.0338 306.1106,-1044.3933 319.2262,-1045.7842 522.5148,-935.3589 536.7657,-915.4426 574.8007,-863.6666 605.3078,-850.4786 618.2366,-639.47 620.1779,-590.7984 620.1746,-589.84 631.6482,-402.5812 487.5981,-444.8206 467.3814,-450.2615 462.9754,-451.338 451.6238,-453.5532 445.0867,-454.6677 444.8231,-521.4518 441.2358,-586.6422 444.4123,-589.9067 441.8078,-592.5436 435.2393,-594.8232 439.1797,-656.9026 439.7464,-706.965 427.1512,-684.0261 411.4265,-659.6747 410.7159,-658.686 405.0134,-651.5392 398.2249,-644.7849 391.4319,-635.9279 391.4319,-635.9279 398.2249,-644.7849 405.0134,-651.5392 410.7159,-658.686 411.4265,-659.6747 427.1512,-684.0261 439.7464,-706.965 439.1797,-656.9026 435.2393,-594.8232 429.5849,-592.9436 426.5386,-589.8501 422.9485,-589.8501 422.6985,-589.7666 418.1595,-589.7666 417.3669,-589.4999 411.9438,-589.4999 411.2989,-589.7238 405.3036,-589.7238 405.2565,-589.7402 405.2565,-589.7402 405.3036,-589.7238 411.2989,-589.7238 411.9438,-589.4999 417.3669,-589.4999 418.1595,-589.7666 422.6985,-589.7666 422.9485,-589.8501 426.5386,-589.8501 429.5849,-592.9436 435.2393,-594.8232 441.8078,-592.5436 444.4123,-589.9067 441.2358,-586.6422 435.8293,-584.8574 435.8293,-584.8574 441.2358,-586.6422 444.8231,-521.4518 445.0867,-454.6677 430.735,-456.4094 416.2565,-457.099 405.593,-457.3445 402.7913,-457.2023 394.5284,-456.9824 385.0356,-457.4179 384.8496,-457.4218 371.6612,-458.0205 363.0085,-458.8306 348.3908,-460.9063 343.0183,-461.9285 324.4725,-465.907 323.6993,-466.1097 306.0777,-471.5883 285.5368,-478.9629 165.165,-473.5218 154.425,-469.0125 154.7888,-621.0504 158.1563,-672.9294 223.1104,-648.6557 220.1278,-633.85 272.3388,-633.85 291.3546,-627.1044 291.3546,-627.1044 272.3388,-633.85 220.1278,-633.85 223.1104,-648.6557 158.1563,-672.9294 154.7888,-621.0504 154.425,-469.0125 150.9573,-467.4333 126.9435,-455.6248 104.8906,-443.6046 101.2863,-441.3846 91.9853,-677.4249 92.3272,-677.5364 97.7807,-677.5364 97.9282,-677.3433 104.0074,-673.2484 104.0074,-673.2484 97.9282,-677.3433 97.7807,-677.5364 98.4394,-678.3921 104.3834,-682.2129 109.803,-682.2129 116.7993,-677.512 116.8364,-677.4644 121.3572,-677.4644 121.3572,-677.4644 116.8364,-677.4644 116.7993,-677.512 109.803,-682.2129 104.3834,-682.2129 98.4394,-678.3921 97.7807,-677.5364 92.3272,-677.5364 91.9853,-677.4249 87.2889,-677.4249 86.9647,-677.5327 79.7638,-677.5327 79.7187,-677.5477 75.0784,-677.5477 75.0784,-677.5477"/>
<polygon fill="#ccebc5" stroke="#ccebc5" points="1346.0626,-707.4683 1379.1877,-628.0765 1382.7657,-620.0864 1344.1453,-510.7919 1306.2192,-398.0538 1245.6254,-378.3283 1145.0939,-385.8065 1126.0271,-386.6204 1120.3685,-386.772 1116.9801,-386.809 1108.7955,-386.6383 1103.006,-386.4256 1100.0093,-581.6511 1103.2911,-584.8171 1100.231,-587.8624 1094.0822,-589.9312 1087.8995,-587.8573 1084.8616,-584.8649 1082.7861,-584.8649 1081.8724,-584.5604 1076.4443,-584.5604 1076.4443,-584.5604 1081.8724,-584.5604 1082.7861,-584.8649 1084.8616,-584.8649 1087.8995,-587.8573 1094.0822,-589.9312 1100.231,-587.8624 1103.2911,-584.8171 1100.0093,-581.6511 1103.006,-386.4256 1092.4534,-385.8702 1086.777,-385.4813 1071.8777,-383.9866 1066.6569,-383.2971 1047.7893,-380.5049 1046.556,-380.303 1046.1697,-380.2336 965.027,-364.3775 924.8042,-375.2019 868.7675,-366.5832 836.674,-361.216 831.7679,-360.135 814.9359,-356.2007 805.2036,-353.7966 802.3246,-353.563 781.9465,-351.1433 763.7291,-348.068 684.2577,-332.6638 631.6482,-402.5812 620.1746,-589.84 620.1779,-590.7984 618.2366,-639.47 605.3078,-850.4786 747.8671,-866.5177 763.7673,-868.5015 778.3954,-861.6345 786.6649,-858.1193 802.3018,-851.929 812.3325,-848.2529 821.512,-845.1577 832.3286,-841.669 839.8181,-839.3639 849.4517,-836.8226 864.8694,-829.2211 970.132,-779.1682 1044.0596,-782.738 1057.5408,-783.8196 1071.3591,-785.1489 1075.7459,-785.6405 1094.3677,-788.6185 1094.9746,-788.7252 1095.3,-788.7876 1095.9866,-788.6985 1103.4125,-787.8514 1126.291,-785.9574 1142.2375,-785.3884 1224.671,-785.0337 1346.0626,-707.4683 1346.0626,-707.4683"/>
<polyline fill="none" stroke="#000000" points="348.3908,-460.9063 343.0183,-461.9285 324.4725,-465.907 323.6993,-466.1097 306.0777,-471.5883 285.5368,-478.9629 165.165,-473.5218 154.425,-469.0125 150.9573,-467.4333 126.9435,-455.6248 104.8906,-443.6046 101.2863,-441.3846 80.2283,-428.0304 67.6134,-419.5849 82.9103,-340.1187 84.8594,-328.2428 104.1754,-296.8734 193.4463,-146.8221 156.1907,-19.588 154.6449,-14.846 151.5573,-5.836 164.466,50.0732 273.9994,173.2407 344.5983,196.0523 368.8764,204.3245 378.4747,207.9253 385.4342,203.219 535.3758,108.3837 632.1814,-7.8583 629.882,-18 603.9383,-155.9054 678.7569,-321.2045 684.1024,-332.349 684.2577,-332.6638 631.6482,-402.5812 487.5981,-444.8206 467.3814,-450.2615 462.9754,-451.338 451.6238,-453.5532 445.0867,-454.6677 430.735,-456.4094 416.2565,-457.099 405.593,-457.3445 402.7913,-457.2023 394.5284,-456.9824 385.0356,-457.4179 384.8496,-457.4218 371.6612,-458.0205 363.0085,-458.8306 348.3908,-460.9063 "/>
<polyline fill="none" stroke="#000000" points="285.5368,-478.9629 165.165,-473.5218 154.425,-469.0125 150.9573,-467.4333 126.9435,-455.6248 104.8906,-443.6046 101.2863,-441.3846 80.2283,-428.0304 67.6134,-419.5849 67.4527,-419.6604 59.9498,-422.9694 -94.5253,-486.6682 -166.9045,-615.463 -167.3985,-633.4362 -169.0865,-674.5 -152.6465,-698.2587 -49.2132,-857.4629 .3187,-881.6978 74.0339,-986.1747 186.0768,-1008.5592 204.1126,-1012.4648 217.1839,-1015.7295 231.582,-1019.8032 240.6835,-1022.6793 255.3149,-1027.5443 265.2596,-1031.3412 267.979,-1032.4695 288.0821,-1041.4897 291.4011,-1043.0338 306.1106,-1044.3933 319.2262,-1045.7842 522.5148,-935.3589 536.7657,-915.4426 574.8007,-863.6666 605.3078,-850.4786 618.2366,-639.47 620.1779,-590.7984 620.1746,-589.84 631.6482,-402.5812 487.5981,-444.8206 467.3814,-450.2615 462.9754,-451.338 451.6238,-453.5532 445.0867,-454.6677 430.735,-456.4094 416.2565,-457.099 405.593,-457.3445 402.7913,-457.2023 394.5284,-456.9824 385.0356,-457.4179 384.8496,-457.4218 371.6612,-458.0205 363.0085,-458.8306 348.3908,-460.9063 343.0183,-461.9285 324.4725,-465.907 323.6993,-466.1097 306.0777,-471.5883 285.5368,-478.9629 "/>
<polyline fill="none" stroke="#000000" points="812.3325,-848.2529 821.512,-845.1577 832.3286,-841.669 839.8181,-839.3639 849.4517,-836.8226 864.8694,-829.2211 970.132,-779.1682 1044.0596,-782.738 1057.5408,-783.8196 1071.3591,-785.1489 1075.7459,-785.6405 1094.3677,-788.6185 1094.9746,-788.7252 1095.3,-788.7876 1095.9866,-788.6985 1103.4125,-787.8514 1126.291,-785.9574 1142.2375,-785.3884 1224.671,-785.0337 1346.0626,-707.4683 1379.1877,-628.0765 1382.7657,-620.0864 1344.1453,-510.7919 1306.2192,-398.0538 1245.6254,-378.3283 1145.0939,-385.8065 1126.0271,-386.6204 1120.3685,-386.772 1116.9801,-386.809 1108.7955,-386.6383 1103.006,-386.4256 1092.4534,-385.8702 1086.777,-385.4813 1071.8777,-383.9866 1066.6569,-383.2971 1047.7893,-380.5049 1046.556,-380.303 1046.1697,-380.2336 965.027,-364.3775 924.8042,-375.2019 868.7675,-366.5832 836.674,-361.216 831.7679,-360.135 814.9359,-356.2007 805.2036,-353.7966 802.3246,-353.563 781.9465,-351.1433 763.7291,-348.068 684.2577,-332.6638 631.6482,-402.5812 620.1746,-589.84 620.1779,-590.7984 618.2366,-639.47 605.3078,-850.4786 747.8671,-866.5177 763.7673,-868.5015 778.3954,-861.6345 786.6649,-858.1193 802.3018,-851.929 812.3325,-848.2529 "/>
<!-- postgresql&#45;contrib&#45;&gt;postgresql -->
<g id="edge1" class="edge">
<title>postgresql&#45;contrib&#45;&gt;postgresql</title>
<path fill="none" stroke="#444444" stroke-opacity="0.333333" d="M352.8992,-343.3104C347.0939,-395.146 330.5724,-542.6647 323.5649,-605.2336"/>
<polygon fill="#444444" fill-opacity="0.333333" stroke="#444444" stroke-opacity="0.333333" points="320.0448,-605.2186 322.41,-615.546 327.0013,-605.9977 320.0448,-605.2186"/>
</g>
<!-- postgresql&#45;contrib&#45;&gt;postgresql&#45;libs -->
<g id="edge2" class="edge">
<title>postgresql&#45;contrib&#45;&gt;postgresql&#45;libs</title>
<path fill="none" stroke="#444444" stroke-opacity="0.333333" d="M360.4952,-343.1197C374.316,-388.5879 410.4147,-507.3467 426.9699,-561.8105"/>
<polygon fill="#444444" fill-opacity="0.333333" stroke="#444444" stroke-opacity="0.333333" points="423.659,-562.953 429.9161,-571.5029 430.3565,-560.9172 423.659,-562.953"/>
</g>
<!-- postgresql&#45;contrib&#45;&gt;uuid -->
<g id="edge3" class="edge">
<title>postgresql&#45;contrib&#45;&gt;uuid</title>
<path fill="none" stroke="#444444" stroke-opacity="0.333333" d="M355.8885,-306.6305C358.5043,-255.1355 365.9485,-108.5861 369.1059,-46.4283"/>
<polygon fill="#444444" fill-opacity="0.333333" stroke="#444444" stroke-opacity="0.333333" points="372.6144,-46.3484 369.6263,-36.1837 365.6234,-45.9932 372.6144,-46.3484"/>
</g>
<!-- postgresql&#45;&gt;postgresql&#45;libs -->
<g id="edge4" class="edge">
<title>postgresql&#45;&gt;postgresql&#45;libs</title>
<path fill="none" stroke="#444444" stroke-opacity="0.333333" d="M367.52,-615.8225C371.2556,-614.3945 375.0517,-612.9433 378.8425,-611.4943"/>
<polygon fill="#444444" fill-opacity="0.333333" stroke="#444444" stroke-opacity="0.333333" points="380.126,-614.7507 388.2171,-607.9107 377.6265,-608.2121 380.126,-614.7507"/>
</g>
<!-- postgresql&#45;devel&#45;&gt;postgresql&#45;libs -->
<g id="edge5" class="edge">
<title>postgresql&#45;devel&#45;&gt;postgresql&#45;libs</title>
<path fill="none" stroke="#444444" stroke-opacity="0.333333" d="M710.4958,-602.44C657.0542,-599.9914 590.8577,-596.9585 536.8033,-594.4819"/>
<polygon fill="#444444" fill-opacity="0.333333" stroke="#444444" stroke-opacity="0.333333" points="536.6598,-590.9717 526.5101,-594.0103 536.3394,-597.9644 536.6598,-590.9717"/>
</g>
<!-- postgresql&#45;server&#45;&gt;postgresql -->
<g id="edge6" class="edge">
<title>postgresql&#45;server&#45;&gt;postgresql</title>
<path fill="none" stroke="#444444" stroke-opacity="0.333333" d="M252.2363,-794.4678C265.5177,-763.1537 292.845,-698.7232 308.5525,-661.6889"/>
<polygon fill="#444444" fill-opacity="0.333333" stroke="#444444" stroke-opacity="0.333333" points="311.9708,-662.593 312.6534,-652.0201 305.5265,-659.8597 311.9708,-662.593"/>
</g>
<!-- postgresql&#45;server&#45;&gt;postgresql&#45;libs -->
<g id="edge7" class="edge">
<title>postgresql&#45;server&#45;&gt;postgresql&#45;libs</title>
<path fill="none" stroke="#444444" stroke-opacity="0.333333" d="M260.1754,-794.3614C294.0362,-754.8596 374.2709,-661.258 413.3428,-615.6769"/>
<polygon fill="#444444" fill-opacity="0.333333" stroke="#444444" stroke-opacity="0.333333" points="416.0656,-617.8783 419.9165,-608.008 410.751,-613.3226 416.0656,-617.8783"/>
</g>
<!-- postgresql&#45;static&#45;&gt;postgresql&#45;devel -->
<g id="edge8" class="edge">
<title>postgresql&#45;static&#45;&gt;postgresql&#45;devel</title>
<path fill="none" stroke="#444444" stroke-opacity="0.333333" d="M991.9659,-592.7879C967.1284,-594.6916 940.4921,-596.7331 915.411,-598.6554"/>
<polygon fill="#444444" fill-opacity="0.333333" stroke="#444444" stroke-opacity="0.333333" points="914.8448,-595.1884 905.1415,-599.4425 915.3798,-602.1679 914.8448,-595.1884"/>
</g>
<!-- postgresql&#45;upgrade&#45;&gt;postgresql&#45;libs -->
<g id="edge9" class="edge">
<title>postgresql&#45;upgrade&#45;&gt;postgresql&#45;libs</title>
<path fill="none" stroke="#444444" stroke-opacity="0.333333" d="M174.8556,-659.4431C228.1468,-645.2115 302.4922,-625.3574 358.1479,-610.4944"/>
<polygon fill="#444444" fill-opacity="0.333333" stroke="#444444" stroke-opacity="0.333333" points="359.2038,-613.8352 367.9621,-607.8735 357.3976,-607.0722 359.2038,-613.8352"/>
</g>
<!-- postgresql&#45;upgrade&#45;&gt;postgresql&#45;server -->
<g id="edge10" class="edge">
<title>postgresql&#45;upgrade&#45;&gt;postgresql&#45;server</title>
<path fill="none" stroke="#444444" stroke-opacity="0.333333" d="M125.7582,-695.7188C149.7127,-719.286 191.572,-760.4685 218.664,-787.1225"/>
<polygon fill="#444444" fill-opacity="0.333333" stroke="#444444" stroke-opacity="0.333333" points="216.3035,-789.7101 225.8866,-794.2284 221.2128,-784.7202 216.3035,-789.7101"/>
</g>
<!-- postgresql&#45;contrib -->
<g id="node1" class="node">
<title>postgresql&#45;contrib</title>
<text text-anchor="middle" x="354.96" y="-321.21" font-family="monospace" font-size="14.00" fill="#000000">postgresql&#45;contrib</text>
</g>
<!-- postgresql -->
<g id="node2" class="node">
<title>postgresql</title>
<text text-anchor="middle" x="320.36" y="-630.15" font-family="monospace" font-size="14.00" fill="#000000">postgresql</text>
</g>
<!-- postgresql&#45;libs -->
<g id="node3" class="node">
<title>postgresql&#45;libs</title>
<text text-anchor="middle" x="435.49" y="-586.14" font-family="monospace" font-size="14.00" fill="#000000">postgresql&#45;libs</text>
</g>
<!-- uuid -->
<g id="node4" class="node">
<title>uuid</title>
<text text-anchor="middle" x="370.55" y="-14.3" font-family="monospace" font-size="14.00" fill="#000000">uuid</text>
</g>
<!-- postgresql&#45;devel -->
<g id="node5" class="node">
<title>postgresql&#45;devel</title>
<text text-anchor="middle" x="807.84" y="-603.2" font-family="monospace" font-size="14.00" fill="#000000">postgresql&#45;devel</text>
</g>
<!-- postgresql&#45;server -->
<g id="node6" class="node">
<title>postgresql&#45;server</title>
<text text-anchor="middle" x="244.55" y="-808.89" font-family="monospace" font-size="14.00" fill="#000000">postgresql&#45;server</text>
</g>
<!-- postgresql&#45;static -->
<g id="node7" class="node">
<title>postgresql&#45;static</title>
<text text-anchor="middle" x="1094.1" y="-581.26" font-family="monospace" font-size="14.00" fill="#000000">postgresql&#45;static</text>
</g>
<!-- postgresql&#45;upgrade -->
<g id="node8" class="node">
<title>postgresql&#45;upgrade</title>
<text text-anchor="middle" x="107.24" y="-673.8" font-family="monospace" font-size="14.00" fill="#000000">postgresql&#45;upgrade</text>
</g>
</g>
</svg>
