<?xml version="1.0" encoding="UTF-8" standalone="no"?>
<!DOCTYPE svg PUBLIC "-//W3C//DTD SVG 1.1//EN"
 "http://www.w3.org/Graphics/SVG/1.1/DTD/svg11.dtd">
<!-- Generated by graphviz version 2.40.1 (20161225.0304)
 -->
<!-- Title: G Pages: 1 -->
<svg width="454pt" height="389pt"
 viewBox="0.00 0.00 453.56 389.10" xmlns="http://www.w3.org/2000/svg" xmlns:xlink="http://www.w3.org/1999/xlink">
<g id="graph0" class="graph" transform="scale(1 1) rotate(0) translate(23.0566 325.3285)">
<title>G</title>
<polygon fill="#dae2ff" stroke="transparent" points="-23.0566,63.7737 -23.0566,-325.3285 430.5058,-325.3285 430.5058,63.7737 -23.0566,63.7737"/>
<polygon fill="#fbb4ae" stroke="#fbb4ae" points="-2.741,-128.3333 -13.2865,-171.9404 -19.0567,-190.2777 -16.4475,-193.7981 27.8897,-262.4715 29.8846,-263.4376 55.054,-260.9608 62.6422,-260.4712 74.3797,-260.5108 80.0968,-260.9175 84.6047,-261.5445 97.5651,-263.7914 98.2624,-263.9834 106.6315,-274.4479 122.5593,-295.8921 160.5885,-312.2533 168.8165,-312.0322 178.4153,-312.1626 187.9243,-312.6769 191.0925,-313.1032 192.1246,-247.8717 196.5891,-247.8717 196.5891,-247.8717 192.1246,-247.8717 191.0925,-313.1032 199.159,-314.5147 205.2847,-316.0815 216.8218,-319.9817 221.8778,-320.974 223.3988,-321.3285 243.5835,-317.7653 281.1862,-266.279 281.9612,-264.5452 287.7599,-252.7259 280.4276,-245.2967 280.2061,-245.0363 280.1792,-245.0069 267.4884,-232.1559 259.7146,-224.991 223.0439,-187.2268 223.8189,-186.3402 224.3306,-185.8114 224.9303,-185.1276 239.5729,-166.6303 255.2377,-139.3835 261.5332,-131.4426 260.7179,-130.5773 253.6367,-123.9974 252.5541,-123.1442 251.6817,-122.5677 224.6006,-97.235 223.6217,-96.4771 214.3562,-87.8044 210.6113,-83.1712 207.7477,-80.3754 207.3789,-80.0526 204.7645,-77.4894 201.8308,-74.2893 209.8476,-67.4208 212.9883,-65.0264 216.3935,-62.7419 223.0839,-58.8531 233.7713,-54.5628 237.133,-53.5313 238.9688,-53.1371 251.4513,-51.582 254.8862,-50.8393 262.4566,-48.4994 271.5899,-43.981 276.5326,-41.093 281.1089,-38.0139 284.664,-34.9664 286.5399,-33.1719 297.3487,-23.8553 302.2035,-18.4267 312.1833,-8.8567 313.4548,-7.552 315.8177,-4.9609 318.5881,-1.721 312.804,3.2808 261.7276,50.4176 241.3128,50.9096 228.15,52.2466 220.2335,53.662 215.7412,54.6378 211.2926,55.7746 204.7778,57.9443 203.0945,58.5704 200.2644,58.095 193.5764,57.2078 189.1094,56.7738 187.1969,56.6558 177.6442,56.4044 172.3971,56.6384 162.1091,57.4623 159.5876,57.7529 157.5365,58.0615 155.8826,12.2209 158.0535,-17.8161 162.3673,-17.8161 163.5802,-18.1304 166.7894,-18.1304 166.1907,-58.6303 176.0555,-66.0935 176.916,-66.9208 181.3101,-17.9201 184.7242,-17.9201 185.1304,-18.4227 189.4303,-21.6082 193.8543,-22.7281 193.8543,-22.7281 189.4303,-21.6082 185.1304,-18.4227 184.7242,-17.9201 181.3101,-17.9201 176.916,-66.9208 176.0555,-66.0935 166.1907,-58.6303 166.7894,-18.1304 163.5802,-18.1304 162.3673,-17.8161 158.0535,-17.8161 155.8826,12.2209 157.5365,58.0615 149.8131,59.7737 143.5638,56.0293 97.6785,30.7072 81.4976,11.3039 80.6938,8.0978 77.8444,-1.7933 74.464,-4.2339 22.5457,-39.0362 20.3182,-41.403 19.6453,-43.1446 18.8668,-69.6862 13.2868,-107.9447 80.2925,-84.3677 82.0317,-82.1142 84.2427,-80.8697 86.0759,-78.8756 89.4099,-78.8756 89.5335,-78.9072 93.0178,-78.9072 96.5275,-120.3772 98.7651,-79.2804 102.6755,-82.2497 107.5344,-83.5011 112.5822,-82.2208 115.7981,-79.901 116.6243,-78.8642 115.9072,-77.943 112.6088,-75.4931 112.6088,-75.4931 115.9072,-77.943 116.6243,-78.8642 120.1125,-78.8642 120.1125,-78.8642 116.6243,-78.8642 115.7981,-79.901 112.5822,-82.2208 107.5344,-83.5011 102.6755,-82.2497 98.7651,-79.2804 96.5275,-120.3772 93.0178,-78.9072 89.5335,-78.9072 89.4099,-78.8756 86.0759,-78.8756 84.2427,-80.8697 87.2434,-130.8591 87.1714,-130.8623 83.2726,-182.4723 84.7228,-182.8626 88.7077,-182.8626 89.0988,-182.965 91.8862,-182.965 97.7289,-220.0582 97.9711,-182.5605 98.2073,-182.4974 103.3986,-186.7292 106.5821,-187.5227 112.1832,-186.0077 116.7004,-182.4414 116.9766,-182.5116 120.7871,-182.5116 120.8591,-182.53 122.8926,-233.0596 126.5395,-182.8317 129.5942,-182.8317 132.9463,-213.7852 136.1044,-183.0147 139.6141,-183.0147 141.3999,-182.5431 143.14,-182.5431 144.9609,-183.0221 144.9609,-183.0221 143.14,-182.5431 141.3999,-182.5431 139.6141,-183.0147 136.1044,-183.0147 132.9463,-213.7852 129.5942,-182.8317 126.5395,-182.8317 122.8926,-233.0596 120.8591,-182.53 120.7871,-182.5116 116.9766,-182.5116 116.7004,-182.4414 112.1832,-186.0077 106.5821,-187.5227 103.3986,-186.7292 98.2073,-182.4974 97.9711,-182.5605 97.7289,-220.0582 91.8862,-182.965 89.0988,-182.965 88.7077,-182.8626 84.7228,-182.8626 83.2726,-182.4723 87.1714,-130.8623 87.2434,-130.8591 84.2427,-80.8697 82.0317,-82.1142 80.2925,-84.3677 13.2868,-107.9447 11.8978,-115.5739 -2.741,-128.3333 -2.741,-128.3333"/>
<polygon fill="#fed9a6" stroke="#fed9a6" points="210.6113,-83.1712 207.7477,-80.3754 207.3789,-80.0526 204.7645,-77.4894 201.8308,-74.2893 209.8476,-67.4208 212.9883,-65.0264 216.3935,-62.7419 223.0839,-58.8531 233.7713,-54.5628 237.133,-53.5313 238.9688,-53.1371 251.4513,-51.582 254.8862,-50.8393 262.4566,-48.4994 271.5899,-43.981 276.5326,-41.093 281.1089,-38.0139 284.664,-34.9664 286.5399,-33.1719 297.3487,-23.8553 297.3966,-30.7575 296.8663,-43.151 292.1928,-85.5258 288.955,-83.1169 284.1866,-81.8797 284.1866,-81.8797 288.955,-83.1169 292.1928,-85.5258 296.8663,-43.151 297.3966,-30.7575 297.3487,-23.8553 302.2035,-18.4267 312.1833,-8.8567 313.4548,-7.552 315.8177,-4.9609 318.5881,-1.721 322.9525,-1.7455 338.609,-11.2862 374.0157,-56.2653 375.6947,-59.8685 378.0782,-64.4917 359.3226,-82.425 352.395,-88.323 349.0499,-92.0776 341.0588,-98.6652 340.1617,-99.5737 335.8879,-103.0914 333.6281,-104.5358 330.3508,-106.079 328.2422,-126.2039 323.8694,-128.3492 321.9164,-130.2192 324.5772,-132.96 328.4796,-134.915 328.4796,-134.915 324.5772,-132.96 321.9164,-130.2192 323.8694,-128.3492 328.2422,-126.2039 330.3508,-106.079 333.6281,-104.5358 335.8879,-103.0914 340.1617,-99.5737 341.0588,-98.6652 349.0499,-92.0776 352.395,-88.323 359.3226,-82.425 355.512,-123.307 355.512,-123.307 359.3226,-82.425 378.0782,-64.4917 380.1332,-65.9781 426.5058,-107.6314 423.4307,-130.55 423.5458,-166.5327 391.3617,-195.6884 364.7699,-212.2842 354.6278,-232.1307 300.0327,-248.5121 288.5269,-252.4083 287.7599,-252.7259 280.4276,-245.2967 280.2061,-245.0363 280.1792,-245.0069 267.4884,-232.1559 259.7146,-224.991 223.0439,-187.2268 223.8189,-186.3402 224.3306,-185.8114 224.9303,-185.1276 239.5729,-166.6303 255.2377,-139.3835 261.5332,-131.4426 260.7179,-130.5773 253.6367,-123.9974 252.5541,-123.1442 251.6817,-122.5677 224.6006,-97.235 223.6217,-96.4771 214.3562,-87.8044 210.6113,-83.1712 210.6113,-83.1712"/>
<polyline fill="none" stroke="#000000" points="207.7477,-80.3754 210.6113,-83.1712 214.3562,-87.8044 223.6217,-96.4771 224.6006,-97.235 251.6817,-122.5677 252.5541,-123.1442 253.6367,-123.9974 260.7179,-130.5773 261.5332,-131.4426 255.2377,-139.3835 239.5729,-166.6303 224.9303,-185.1276 224.3306,-185.8114 223.8189,-186.3402 223.0439,-187.2268 259.7146,-224.991 267.4884,-232.1559 280.1792,-245.0069 280.2061,-245.0363 280.4276,-245.2967 287.7599,-252.7259 281.9612,-264.5452 281.1862,-266.279 243.5835,-317.7653 223.3988,-321.3285 221.8778,-320.974 216.8218,-319.9817 205.2847,-316.0815 199.159,-314.5147 191.0925,-313.1032 187.9243,-312.6769 178.4153,-312.1626 168.8165,-312.0322 160.5885,-312.2533 122.5593,-295.8921 106.6315,-274.4479 98.2624,-263.9834 97.5651,-263.7914 84.6047,-261.5445 80.0968,-260.9175 74.3797,-260.5108 62.6422,-260.4712 55.054,-260.9608 29.8846,-263.4376 27.8897,-262.4715 -16.4475,-193.7981 -19.0567,-190.2777 -13.2865,-171.9404 -2.741,-128.3333 11.8978,-115.5739 13.2868,-107.9447 18.8668,-69.6862 19.6453,-43.1446 20.3182,-41.403 22.5457,-39.0362 74.464,-4.2339 77.8444,-1.7933 80.6938,8.0978 81.4976,11.3039 97.6785,30.7072 143.5638,56.0293 149.8131,59.7737 157.5365,58.0615 159.5876,57.7529 162.1091,57.4623 172.3971,56.6384 177.6442,56.4044 187.1969,56.6558 189.1094,56.7738 193.5764,57.2078 200.2644,58.095 203.0945,58.5704 204.7778,57.9443 211.2926,55.7746 215.7412,54.6378 220.2335,53.662 228.15,52.2466 241.3128,50.9096 261.7276,50.4176 312.804,3.2808 318.5881,-1.721 315.8177,-4.9609 313.4548,-7.552 312.1833,-8.8567 302.2035,-18.4267 297.3487,-23.8553 286.5399,-33.1719 284.664,-34.9664 281.1089,-38.0139 276.5326,-41.093 271.5899,-43.981 262.4566,-48.4994 254.8862,-50.8393 251.4513,-51.582 238.9688,-53.1371 237.133,-53.5313 233.7713,-54.5628 223.0839,-58.8531 216.3935,-62.7419 212.9883,-65.0264 209.8476,-67.4208 201.8308,-74.2893 204.7645,-77.4894 207.3789,-80.0526 207.7477,-80.3754 "/>
<polyline fill="none" stroke="#000000" points="280.1792,-245.0069 267.4884,-232.1559 259.7146,-224.991 223.0439,-187.2268 223.8189,-186.3402 224.3306,-185.8114 224.9303,-185.1276 239.5729,-166.6303 255.2377,-139.3835 261.5332,-131.4426 260.7179,-130.5773 253.6367,-123.9974 252.5541,-123.1442 251.6817,-122.5677 224.6006,-97.235 223.6217,-96.4771 214.3562,-87.8044 210.6113,-83.1712 207.7477,-80.3754 207.3789,-80.0526 204.7645,-77.4894 201.8308,-74.2893 209.8476,-67.4208 212.9883,-65.0264 216.3935,-62.7419 223.0839,-58.8531 233.7713,-54.5628 237.133,-53.5313 238.9688,-53.1371 251.4513,-51.582 254.8862,-50.8393 262.4566,-48.4994 271.5899,-43.981 276.5326,-41.093 281.1089,-38.0139 284.664,-34.9664 286.5399,-33.1719 297.3487,-23.8553 302.2035,-18.4267 312.1833,-8.8567 313.4548,-7.552 315.8177,-4.9609 318.5881,-1.721 322.9525,-1.7455 338.609,-11.2862 374.0157,-56.2653 375.6947,-59.8685 378.0782,-64.4917 380.1332,-65.9781 426.5058,-107.6314 423.4307,-130.55 423.5458,-166.5327 391.3617,-195.6884 364.7699,-212.2842 354.6278,-232.1307 300.0327,-248.5121 288.5269,-252.4083 287.7599,-252.7259 280.4276,-245.2967 280.2061,-245.0363 280.1792,-245.0069 "/>
<!-- httpd&#45;&gt;apr -->
<g id="edge1" class="edge">
<title>httpd&#45;&gt;apr</title>
<path fill="none" stroke="#444444" stroke-opacity="0.333333" d="M237.4988,-148.7688C241.0129,-150.7623 244.6084,-152.802 248.1664,-154.8204"/>
<polygon fill="#444444" fill-opacity="0.333333" stroke="#444444" stroke-opacity="0.333333" points="246.4405,-157.8652 256.8654,-159.7551 249.8944,-151.7766 246.4405,-157.8652"/>
</g>
<!-- httpd&#45;&gt;apr&#45;util -->
<g id="edge2" class="edge">
<title>httpd&#45;&gt;apr&#45;util</title>
<path fill="none" stroke="#444444" stroke-opacity="0.333333" d="M243.2851,-130.676C250.6834,-130.6654 258.6399,-130.6539 266.6335,-130.6424"/>
<polygon fill="#444444" fill-opacity="0.333333" stroke="#444444" stroke-opacity="0.333333" points="266.7442,-134.1424 276.7391,-130.6279 266.7341,-127.1424 266.7442,-134.1424"/>
</g>
<!-- httpd&#45;&gt;mod_http2 -->
<g id="edge3" class="edge">
<title>httpd&#45;&gt;mod_http2</title>
<path fill="none" stroke="#444444" stroke-opacity="0.333333" d="M184.1687,-112.6538C178.4321,-109.1269 171.958,-105.4038 165.2623,-101.7572"/>
<polygon fill="#444444" fill-opacity="0.333333" stroke="#444444" stroke-opacity="0.333333" points="166.5159,-98.4599 156.0429,-96.8576 163.2308,-104.6412 166.5159,-98.4599"/>
</g>
<!-- httpd&#45;&gt;fedora&#45;logos&#45;httpd -->
<g id="edge4" class="edge">
<title>httpd&#45;&gt;fedora&#45;logos&#45;httpd</title>
<path fill="none" stroke="#444444" stroke-opacity="0.333333" d="M171.5398,-148.7677C164.6664,-152.397 157.3594,-156.2554 150.2298,-160.02"/>
<polygon fill="#444444" fill-opacity="0.333333" stroke="#444444" stroke-opacity="0.333333" points="148.5485,-156.9498 141.3398,-164.7142 151.817,-163.1398 148.5485,-156.9498"/>
</g>
<!-- httpd&#45;&gt;mailcap -->
<g id="edge5" class="edge">
<title>httpd&#45;&gt;mailcap</title>
<path fill="none" stroke="#444444" stroke-opacity="0.333333" d="M203.8941,-148.8404C202.1079,-166.7528 199.3486,-194.4252 197.2747,-215.2232"/>
<polygon fill="#444444" fill-opacity="0.333333" stroke="#444444" stroke-opacity="0.333333" points="193.771,-215.0866 196.2614,-225.3845 200.7365,-215.7812 193.771,-215.0866"/>
</g>
<!-- httpd&#45;&gt;httpd&#45;filesystem -->
<g id="edge6" class="edge">
<title>httpd&#45;&gt;httpd&#45;filesystem</title>
<path fill="none" stroke="#444444" stroke-opacity="0.333333" d="M203.8716,-112.618C202.0632,-94.704 199.2695,-67.0292 197.1697,-46.2293"/>
<polygon fill="#444444" fill-opacity="0.333333" stroke="#444444" stroke-opacity="0.333333" points="200.6306,-45.6649 196.1439,-36.0671 193.666,-46.3681 200.6306,-45.6649"/>
</g>
<!-- httpd&#45;&gt;httpd&#45;tools -->
<g id="edge7" class="edge">
<title>httpd&#45;&gt;httpd&#45;tools</title>
<path fill="none" stroke="#444444" stroke-opacity="0.333333" d="M237.9213,-112.5052C239.6548,-111.5247 241.4068,-110.5338 243.1631,-109.5404"/>
<polygon fill="#444444" fill-opacity="0.333333" stroke="#444444" stroke-opacity="0.333333" points="244.9337,-112.5601 251.9147,-104.5904 241.4874,-106.4672 244.9337,-112.5601"/>
</g>
<!-- apr&#45;util&#45;&gt;apr -->
<g id="edge8" class="edge">
<title>apr&#45;util&#45;&gt;apr</title>
<path fill="none" stroke="#444444" stroke-opacity="0.333333" d="M311.8167,-148.6621C311.3711,-149.0834 310.9233,-149.5069 310.474,-149.9317"/>
<polygon fill="#444444" fill-opacity="0.333333" stroke="#444444" stroke-opacity="0.333333" points="308.0302,-147.4256 303.1692,-156.8395 312.8398,-152.5117 308.0302,-147.4256"/>
</g>
<!-- mod_http2&#45;&gt;httpd -->
<g id="edge9" class="edge">
<title>mod_http2&#45;&gt;httpd</title>
<path fill="none" stroke="#444444" stroke-opacity="0.333333" d="M128.9413,-96.8362C137.7727,-102.2658 148.3519,-108.1604 158.7967,-113.5249"/>
<polygon fill="#444444" fill-opacity="0.333333" stroke="#444444" stroke-opacity="0.333333" points="157.3845,-116.732 167.8936,-118.0778 160.5175,-110.4722 157.3845,-116.732"/>
</g>
<!-- httpd&#45;tools&#45;&gt;apr -->
<g id="edge10" class="edge">
<title>httpd&#45;tools&#45;&gt;apr</title>
<path fill="none" stroke="#444444" stroke-opacity="0.333333" d="M283.8245,-104.8935C283.834,-116.9624 283.8467,-133.0007 283.8576,-146.6992"/>
<polygon fill="#444444" fill-opacity="0.333333" stroke="#444444" stroke-opacity="0.333333" points="280.3578,-147.0657 283.8658,-157.0629 287.3577,-147.0601 280.3578,-147.0657"/>
</g>
<!-- httpd&#45;tools&#45;&gt;apr&#45;util -->
<g id="edge11" class="edge">
<title>httpd&#45;tools&#45;&gt;apr&#45;util</title>
<path fill="none" stroke="#444444" stroke-opacity="0.333333" d="M303.2641,-104.7005C303.5209,-104.9402 303.7785,-105.1805 304.0366,-105.4213"/>
<polygon fill="#444444" fill-opacity="0.333333" stroke="#444444" stroke-opacity="0.333333" points="301.8612,-108.1784 311.5607,-112.4412 306.6365,-103.0602 301.8612,-108.1784"/>
</g>
<!-- httpd -->
<g id="node1" class="node">
<title>httpd</title>
<text text-anchor="middle" x="205.7" y="-127.03" font-family="monospace" font-size="14.00" fill="#000000">httpd</text>
</g>
<!-- apr -->
<g id="node2" class="node">
<title>apr</title>
<text text-anchor="middle" x="283.88" y="-171.38" font-family="monospace" font-size="14.00" fill="#000000">apr</text>
</g>
<!-- apr&#45;util -->
<g id="node3" class="node">
<title>apr&#45;util</title>
<text text-anchor="middle" x="330.97" y="-126.85" font-family="monospace" font-size="14.00" fill="#000000">apr&#45;util</text>
</g>
<!-- mod_http2 -->
<g id="node4" class="node">
<title>mod_http2</title>
<text text-anchor="middle" x="107.41" y="-75.06" font-family="monospace" font-size="14.00" fill="#000000">mod_http2</text>
</g>
<!-- fedora&#45;logos&#45;httpd -->
<g id="node5" class="node">
<title>fedora&#45;logos&#45;httpd</title>
<text text-anchor="middle" x="107.24" y="-179.02" font-family="monospace" font-size="14.00" fill="#000000">fedora&#45;logos&#45;httpd</text>
</g>
<!-- mailcap -->
<g id="node6" class="node">
<title>mailcap</title>
<text text-anchor="middle" x="194.46" y="-239.75" font-family="monospace" font-size="14.00" fill="#000000">mailcap</text>
</g>
<!-- httpd&#45;filesystem -->
<g id="node7" class="node">
<title>httpd&#45;filesystem</title>
<text text-anchor="middle" x="194.32" y="-14.3" font-family="monospace" font-size="14.00" fill="#000000">httpd&#45;filesystem</text>
</g>
<!-- httpd&#45;tools -->
<g id="node8" class="node">
<title>httpd&#45;tools</title>
<text text-anchor="middle" x="283.81" y="-82.85" font-family="monospace" font-size="14.00" fill="#000000">httpd&#45;tools</text>
</g>
</g>
</svg>
