<?xml version="1.0" encoding="UTF-8" standalone="no"?>
<!DOCTYPE svg PUBLIC "-//W3C//DTD SVG 1.1//EN"
 "http://www.w3.org/Graphics/SVG/1.1/DTD/svg11.dtd">
<!-- Generated by graphviz version 2.40.1 (20161225.0304)
 -->
<!-- Title: G Pages: 1 -->
<svg width="1178pt" height="396pt"
 viewBox="0.00 0.00 1177.81 396.33" xmlns="http://www.w3.org/2000/svg" xmlns:xlink="http://www.w3.org/1999/xlink">
<g id="graph0" class="graph" transform="scale(1 1) rotate(0) translate(94.9202 293.1478)">
<title>G</title>
<polygon fill="#dae2ff" stroke="transparent" points="-94.9202,103.1797 -94.9202,-293.1478 1082.8856,-293.1478 1082.8856,103.1797 -94.9202,103.1797"/>
<polygon fill="#fed9a6" stroke="#fed9a6" points="618.4088,99.1797 622.8533,98.4185 635.9832,96.5063 712.1403,43.7273 723.2231,21.1183 714.1111,9.2824 701.2867,-5.6362 688.4313,-18 628.3602,-92.2348 622.9553,-98.3281 619.5703,-98.2491 615.4579,-98.3084 604.6104,-98.0527 601.9059,-97.8863 601.7493,-97.8944 593.3362,-98.0131 591.3109,-98.1184 591.1388,-98.1208 584.7175,-97.9669 583.6088,-97.8983 574.1054,-98.0293 572.819,-97.9983 570.6638,-98.109 567.037,-98.158 564.4812,-97.999 552.4211,-98.1602 552.1402,-98.1533 539.5115,-98.3201 534.8617,-104.2368 497.1062,-156.9184 468.293,-192.9014 462.0594,-199.6508 454.4097,-208.4308 445.996,-219.7924 436.5464,-233.21 433.4961,-232.5526 430.4282,-232.0278 426.318,-229.3004 412.6815,-221.0915 408.0717,-218.6047 391.3877,-210.1178 390.2495,-209.6116 374.6812,-203.6416 316.1147,-184.8438 315.1997,-104.8704 315.0302,-102.3023 314.6532,-99.19 315.197,-86.6336 314.1836,1.9427 374.4113,27.5421 378.7194,29.613 393.2173,36.9924 397.8429,39.734 415.5067,43.704 419.0449,44.7289 422.5541,45.9004 430.2035,44.6516 511.7155,80.9876 522.1902,83.8004 557.9419,85.1333 571.6214,86.4251 572.0688,86.5057 591.2626,90.5216 598.6479,92.2762 600.4845,92.8698 618.3486,99.168 618.4088,99.1797 618.4088,99.1797"/>
<polygon fill="#ccebc5" stroke="#ccebc5" points="-88.6037,-97.7366 -89.4792,-82.6156 -90.9202,-69.838 -78.9204,-54.5457 -12.6129,-5.8199 25.4605,-6.8463 27.2582,-6.8385 39.3487,-6.4065 41.6437,-6.2529 44.9532,-5.9279 47.3587,-5.6163 58.5452,-3.8152 67.4522,-1.8224 78.1013,-1.4755 109.2515,-4.5697 152.9175,13.7348 169.9063,21.3792 178.4766,25.7443 188.0538,31.1964 191.1305,31.5674 191.1572,31.5718 202.799,26.0911 203.2805,25.8779 220.0481,19.3648 220.5172,19.1957 236.458,14.3217 245.8176,12.2333 258.3709,9.777 256.8803,-32.3499 256.8803,-32.3499 258.3709,9.777 314.1836,1.9427 315.197,-86.6336 314.6532,-99.19 315.0302,-102.3023 315.1997,-104.8704 316.1147,-184.8438 263.3276,-201.6427 247.7421,-207.1013 248.8831,-141.9341 246.2206,-99.0984 242.2487,-99.0984 242.2487,-99.0984 246.2206,-99.0984 248.8831,-141.9341 247.7421,-207.1013 236.4907,-211.7427 216.4352,-221.9058 212.4226,-224.4401 189.2172,-239.8592 186.3573,-242.0228 181.3649,-242.2604 170.2731,-243.2347 154.9067,-245.2032 135.7519,-248.0399 114.1775,-235.5511 61.3521,-226.5356 47.6355,-224.8417 46.6585,-224.1994 36.7573,-218.3397 17.6661,-208.8835 -49.0272,-178.0835 -70.2481,-133.347 24.4088,-106.2672 26.4227,-104.023 28.533,-103.3451 33.5224,-139.8242 35.1819,-102.7431 40.3877,-105.894 45.4217,-105.894 45.4217,-105.894 40.3877,-105.894 35.1819,-102.7431 33.5224,-139.8242 28.533,-103.3451 26.4227,-104.023 24.4088,-106.2672 -70.2481,-133.347 -88.6037,-97.7366 -88.6037,-97.7366"/>
<polygon fill="#fbb4ae" stroke="#fbb4ae" points="1078.8856,-107.9386 1076.1127,-105.2245 1071.2216,-100.1997 1008.0235,-28.3712 946.8139,9.0525 936.322,16.67 926.8765,13.7242 921.4686,12.1866 904.6882,9.2261 895.8773,7.9109 890.7977,7.4283 882.5607,6.8684 880.4034,6.7801 871.4372,6.6556 833.7634,-6.8441 782.3469,.92 771.3418,3.25 754.9445,7.719 747.1982,10.2933 733.4772,16.1059 729.105,18.0896 723.2231,21.1183 714.1111,9.2824 701.2867,-5.6362 688.4313,-18 628.3602,-92.2348 622.9553,-98.3281 619.5703,-98.2491 615.4579,-98.3084 604.6104,-98.0527 601.9059,-97.8863 601.7493,-97.8944 593.3362,-98.0131 591.3109,-98.1184 591.1388,-98.1208 584.7175,-97.9669 583.6088,-97.8983 574.1054,-98.0293 572.819,-97.9983 570.6638,-98.109 567.037,-98.158 564.4812,-97.999 552.4211,-98.1602 552.1402,-98.1533 539.5115,-98.3201 534.8617,-104.2368 497.1062,-156.9184 468.293,-192.9014 547.5321,-182.0643 556.8685,-184.8417 561.5153,-182.1478 565.4993,-213.2858 568.2057,-178.2429 572.4139,-178.2429 573.1844,-178.0078 574.7273,-178.0078 578.4163,-181.4583 583.7484,-183.0961 583.7484,-183.0961 578.4163,-181.4583 574.7273,-178.0078 573.1844,-178.0078 572.4139,-178.2429 568.2057,-178.2429 565.4993,-213.2858 561.5153,-182.1478 556.8685,-184.8417 547.5321,-182.0643 468.293,-192.9014 462.0594,-199.6508 454.4097,-208.4308 445.996,-219.7924 436.5464,-233.21 477.0233,-274.6343 553.5688,-275.4969 567.0911,-276.062 577.0241,-277.0817 580.3702,-277.6285 604.1982,-282.9945 604.8782,-283.1883 622.0768,-289.1478 693.582,-238.5225 715.2154,-212.9826 718.1915,-212.4511 731.9527,-210.3563 738.7094,-209.6875 744.3061,-209.2824 753.6154,-208.8563 759.8037,-208.9028 769.306,-209.2275 783.8375,-210.4989 828.0127,-216.7073 862.4153,-237.4227 878.6396,-234.5652 888.8718,-232.9919 892.4925,-232.5976 908.8158,-231.5484 915.0486,-231.2877 924.4216,-231.3161 933.4899,-231.7503 935.2753,-231.3983 951.7187,-228.9159 956.1538,-228.4524 1013.4182,-190.4304 1076.4573,-112.1261 1078.8856,-107.9386 1078.8856,-107.9386"/>
<polyline fill="none" stroke="#000000" points="408.0717,-218.6047 391.3877,-210.1178 390.2495,-209.6116 374.6812,-203.6416 316.1147,-184.8438 315.1997,-104.8704 315.0302,-102.3023 314.6532,-99.19 315.197,-86.6336 314.1836,1.9427 374.4113,27.5421 378.7194,29.613 393.2173,36.9924 397.8429,39.734 415.5067,43.704 419.0449,44.7289 422.5541,45.9004 430.2035,44.6516 511.7155,80.9876 522.1902,83.8004 557.9419,85.1333 571.6214,86.4251 572.0688,86.5057 591.2626,90.5216 598.6479,92.2762 600.4845,92.8698 618.3486,99.168 618.4088,99.1797 622.8533,98.4185 635.9832,96.5063 712.1403,43.7273 723.2231,21.1183 714.1111,9.2824 701.2867,-5.6362 688.4313,-18 628.3602,-92.2348 622.9553,-98.3281 619.5703,-98.2491 615.4579,-98.3084 604.6104,-98.0527 601.9059,-97.8863 601.7493,-97.8944 593.3362,-98.0131 591.3109,-98.1184 591.1388,-98.1208 584.7175,-97.9669 583.6088,-97.8983 574.1054,-98.0293 572.819,-97.9983 570.6638,-98.109 567.037,-98.158 564.4812,-97.999 552.4211,-98.1602 552.1402,-98.1533 539.5115,-98.3201 534.8617,-104.2368 497.1062,-156.9184 468.293,-192.9014 462.0594,-199.6508 454.4097,-208.4308 445.996,-219.7924 436.5464,-233.21 433.4961,-232.5526 430.4282,-232.0278 426.318,-229.3004 412.6815,-221.0915 408.0717,-218.6047 "/>
<polyline fill="none" stroke="#000000" points="189.2172,-239.8592 186.3573,-242.0228 181.3649,-242.2604 170.2731,-243.2347 154.9067,-245.2032 135.7519,-248.0399 114.1775,-235.5511 61.3521,-226.5356 47.6355,-224.8417 46.6585,-224.1994 36.7573,-218.3397 17.6661,-208.8835 -49.0272,-178.0835 -70.2481,-133.347 -88.6037,-97.7366 -89.4792,-82.6156 -90.9202,-69.838 -78.9204,-54.5457 -12.6129,-5.8199 25.4605,-6.8463 27.2582,-6.8385 39.3487,-6.4065 41.6437,-6.2529 44.9532,-5.9279 47.3587,-5.6163 58.5452,-3.8152 67.4522,-1.8224 78.1013,-1.4755 109.2515,-4.5697 152.9175,13.7348 169.9063,21.3792 178.4766,25.7443 188.0538,31.1964 191.1305,31.5674 191.1572,31.5718 202.799,26.0911 203.2805,25.8779 220.0481,19.3648 220.5172,19.1957 236.458,14.3217 245.8176,12.2333 258.3709,9.777 314.1836,1.9427 315.197,-86.6336 314.6532,-99.19 315.0302,-102.3023 315.1997,-104.8704 316.1147,-184.8438 263.3276,-201.6427 247.7421,-207.1013 236.4907,-211.7427 216.4352,-221.9058 212.4226,-224.4401 189.2172,-239.8592 "/>
<polyline fill="none" stroke="#000000" points="731.9527,-210.3563 718.1915,-212.4511 715.2154,-212.9826 693.582,-238.5225 622.0768,-289.1478 604.8782,-283.1883 604.1982,-282.9945 580.3702,-277.6285 577.0241,-277.0817 567.0911,-276.062 553.5688,-275.4969 477.0233,-274.6343 436.5464,-233.21 445.996,-219.7924 454.4097,-208.4308 462.0594,-199.6508 468.293,-192.9014 497.1062,-156.9184 534.8617,-104.2368 539.5115,-98.3201 552.1402,-98.1533 552.4211,-98.1602 564.4812,-97.999 567.037,-98.158 570.6638,-98.109 572.819,-97.9983 574.1054,-98.0293 583.6088,-97.8983 584.7175,-97.9669 591.1388,-98.1208 591.3109,-98.1184 593.3362,-98.0131 601.7493,-97.8944 601.9059,-97.8863 604.6104,-98.0527 615.4579,-98.3084 619.5703,-98.2491 622.9553,-98.3281 628.3602,-92.2348 688.4313,-18 701.2867,-5.6362 714.1111,9.2824 723.2231,21.1183 729.105,18.0896 733.4772,16.1059 747.1982,10.2933 754.9445,7.719 771.3418,3.25 782.3469,.92 833.7634,-6.8441 871.4372,6.6556 880.4034,6.7801 882.5607,6.8684 890.7977,7.4283 895.8773,7.9109 904.6882,9.2261 921.4686,12.1866 926.8765,13.7242 936.322,16.67 946.8139,9.0525 1008.0235,-28.3712 1071.2216,-100.1997 1076.1127,-105.2245 1078.8856,-107.9386 1076.4573,-112.1261 1013.4182,-190.4304 956.1538,-228.4524 951.7187,-228.9159 935.2753,-231.3983 933.4899,-231.7503 924.4216,-231.3161 915.0486,-231.2877 908.8158,-231.5484 892.4925,-232.5976 888.8718,-232.9919 878.6396,-234.5652 862.4153,-237.4227 828.0127,-216.7073 783.8375,-210.4989 769.306,-209.2275 759.8037,-208.9028 753.6154,-208.8563 744.3061,-209.2824 738.7094,-209.6875 731.9527,-210.3563 "/>
<!-- systemtap&#45;client&#45;&gt;avahi&#45;libs -->
<g id="edge1" class="edge">
<title>systemtap&#45;client&#45;&gt;avahi&#45;libs</title>
<path fill="none" stroke="#444444" stroke-opacity="0.333333" d="M456.2722,-79.7934C480.4254,-68.143 511.9796,-52.9227 537.7277,-40.503"/>
<polygon fill="#444444" fill-opacity="0.333333" stroke="#444444" stroke-opacity="0.333333" points="539.4403,-43.5628 546.9266,-36.0658 536.3991,-37.258 539.4403,-43.5628"/>
</g>
<!-- systemtap&#45;client&#45;&gt;systemtap&#45;runtime -->
<g id="edge2" class="edge">
<title>systemtap&#45;client&#45;&gt;systemtap&#45;runtime</title>
<path fill="none" stroke="#444444" stroke-opacity="0.333333" d="M321.5953,-98.5144C321.4883,-98.5151 321.3812,-98.5157 321.2742,-98.5164"/>
<polygon fill="#444444" fill-opacity="0.333333" stroke="#444444" stroke-opacity="0.333333" points="321.2815,-95.0162 311.3028,-98.5763 321.3237,-102.016 321.2815,-95.0162"/>
</g>
<!-- systemtap&#45;runtime&#45;&gt;json&#45;c -->
<g id="edge3" class="edge">
<title>systemtap&#45;runtime&#45;&gt;json&#45;c</title>
<path fill="none" stroke="#444444" stroke-opacity="0.333333" d="M107.1896,-100.521C103.5591,-100.5684 99.9793,-100.6151 96.4798,-100.6608"/>
<polygon fill="#444444" fill-opacity="0.333333" stroke="#444444" stroke-opacity="0.333333" points="96.2054,-97.164 86.2519,-100.7942 96.2968,-104.1634 96.2054,-97.164"/>
</g>
<!-- systemtap&#45;devel&#45;&gt;avahi&#45;libs -->
<g id="edge4" class="edge">
<title>systemtap&#45;devel&#45;&gt;avahi&#45;libs</title>
<path fill="none" stroke="#444444" stroke-opacity="0.333333" d="M705.5562,-81.1604C682.7506,-69.2735 652.6786,-53.5991 628.1979,-40.8391"/>
<polygon fill="#444444" fill-opacity="0.333333" stroke="#444444" stroke-opacity="0.333333" points="629.6015,-37.6238 619.1161,-36.1054 626.366,-43.8313 629.6015,-37.6238"/>
</g>
<!-- systemtap&#45;devel&#45;&gt;kernel&#45;devel -->
<g id="edge5" class="edge">
<title>systemtap&#45;devel&#45;&gt;kernel&#45;devel</title>
<path fill="none" stroke="#444444" stroke-opacity="0.333333" d="M831.1562,-100.6031C831.311,-100.6055 831.4659,-100.6079 831.6207,-100.6103"/>
<polygon fill="#444444" fill-opacity="0.333333" stroke="#444444" stroke-opacity="0.333333" points="828.5156,-104.062 838.5693,-100.7193 828.6254,-97.0628 828.5156,-104.062"/>
</g>
<!-- systemtap&#45;&gt;systemtap&#45;client -->
<g id="edge6" class="edge">
<title>systemtap&#45;&gt;systemtap&#45;client</title>
<path fill="none" stroke="#444444" stroke-opacity="0.333333" d="M546.633,-160.2481C522.5171,-148.5038 490.8623,-133.0881 465.0706,-120.5278"/>
<polygon fill="#444444" fill-opacity="0.333333" stroke="#444444" stroke-opacity="0.333333" points="466.3815,-117.2732 455.8585,-116.0415 463.3166,-123.5666 466.3815,-117.2732"/>
</g>
<!-- systemtap&#45;&gt;systemtap&#45;devel -->
<g id="edge7" class="edge">
<title>systemtap&#45;&gt;systemtap&#45;devel</title>
<path fill="none" stroke="#444444" stroke-opacity="0.333333" d="M619.5551,-160.1319C642.1149,-148.726 671.3963,-133.9218 695.4528,-121.7591"/>
<polygon fill="#444444" fill-opacity="0.333333" stroke="#444444" stroke-opacity="0.333333" points="697.0469,-124.8751 704.3919,-117.2396 693.8885,-118.6281 697.0469,-124.8751"/>
</g>
<!-- systemtap&#45;client -->
<g id="node1" class="node">
<title>systemtap&#45;client</title>
<text text-anchor="middle" x="418.67" y="-94.231" font-family="monospace" font-size="14.00" fill="#000000">systemtap&#45;client</text>
</g>
<!-- avahi&#45;libs -->
<g id="node2" class="node">
<title>avahi&#45;libs</title>
<text text-anchor="middle" x="584.38" y="-14.3" font-family="monospace" font-size="14.00" fill="#000000">avahi&#45;libs</text>
</g>
<!-- systemtap&#45;runtime -->
<g id="node3" class="node">
<title>systemtap&#45;runtime</title>
<text text-anchor="middle" x="209.19" y="-95.49" font-family="monospace" font-size="14.00" fill="#000000">systemtap&#45;runtime</text>
</g>
<!-- json&#45;c -->
<g id="node4" class="node">
<title>json&#45;c</title>
<text text-anchor="middle" x="42.896" y="-97.66" font-family="monospace" font-size="14.00" fill="#000000">json&#45;c</text>
</g>
<!-- systemtap&#45;devel -->
<g id="node5" class="node">
<title>systemtap&#45;devel</title>
<text text-anchor="middle" x="740.12" y="-95.476" font-family="monospace" font-size="14.00" fill="#000000">systemtap&#45;devel</text>
</g>
<!-- kernel&#45;devel -->
<g id="node6" class="node">
<title>kernel&#45;devel</title>
<text text-anchor="middle" x="914.53" y="-98.21" font-family="monospace" font-size="14.00" fill="#000000">kernel&#45;devel</text>
</g>
<!-- systemtap -->
<g id="node7" class="node">
<title>systemtap</title>
<text text-anchor="middle" x="583.66" y="-174.58" font-family="monospace" font-size="14.00" fill="#000000">systemtap</text>
</g>
</g>
</svg>
