<?xml version="1.0" encoding="UTF-8" standalone="no"?>
<!DOCTYPE svg PUBLIC "-//W3C//DTD SVG 1.1//EN"
 "http://www.w3.org/Graphics/SVG/1.1/DTD/svg11.dtd">
<!-- Generated by graphviz version 2.40.1 (20161225.0304)
 -->
<!-- Title: G Pages: 1 -->
<svg width="539pt" height="310pt"
 viewBox="0.00 0.00 538.98 310.33" xmlns="http://www.w3.org/2000/svg" xmlns:xlink="http://www.w3.org/1999/xlink">
<g id="graph0" class="graph" transform="scale(1 1) rotate(0) translate(66.8016 218.3267)">
<title>G</title>
<polygon fill="#dae2ff" stroke="transparent" points="-66.8016,92.0053 -66.8016,-218.3267 472.1754,-218.3267 472.1754,92.0053 -66.8016,92.0053"/>
<polygon fill="#fbb4ae" stroke="#fbb4ae" points="-62.8016,-86.8831 -48.5298,-69.759 -44.634,-64.0567 7.3416,-2.3095 7.6755,-2.1722 43.5564,8.9019 57.6641,13.8966 65.2599,17.2581 68.2339,16.1734 78.3125,13.3224 93.7805,10.2082 98.1212,9.6917 108.2056,8.9031 113.8181,8.9231 126.2894,9.4782 130.882,9.8697 172.7567,16.8596 202.4016,37.199 204.3026,37.8895 211.2302,26.8698 220.1379,13.7662 234.7295,-4.2328 238.2739,-8.1404 240.9796,-10.7894 249.3291,-18 284.2635,-64.2147 285.5199,-65.6284 289.898,-69.8474 281.9368,-79.3216 258.9939,-111.8992 246.355,-126.9335 239.837,-132.963 238.1275,-134.7383 230.9887,-143.0309 228.7067,-145.9587 214.3909,-166.2089 211.2474,-171.4112 172.5844,-147.8128 133.0813,-145.2345 122.0264,-145.4603 122.305,-69.9481 125.9724,-69.9481 125.9724,-69.9481 122.305,-69.9481 122.0264,-145.4603 113.5823,-145.9953 102.4834,-147.6511 92.5179,-149.9938 90.9888,-150.4186 78.7898,-154.3374 64.7165,-160.0623 55.4656,-164.6029 54.3527,-165.1955 49.8518,-167.985 -62.8016,-86.8831 -62.8016,-86.8831"/>
<polygon fill="#fed9a6" stroke="#fed9a6" points="382.916,74.4686 387.8882,71.0703 444.2324,35.4356 456.3214,11.3602 459.6504,-7.6369 463.0764,-23.2863 466.3231,-33.947 453.0208,-71.9497 459.1866,-97.5885 468.1754,-129.2057 466.5167,-134.3377 464.8528,-141.1906 435.0766,-197.9731 377.8089,-197.9442 367.5091,-199.244 357.1366,-200.9934 347.7785,-203.3639 338.8883,-205.9912 331.9919,-208.3159 321.4426,-213.2133 319.2461,-214.3267 308.6056,-209.0616 291.6969,-202.8748 218.0463,-179.1702 211.8647,-172.6785 211.2474,-171.4112 214.3909,-166.2089 228.7067,-145.9587 230.9887,-143.0309 238.1275,-134.7383 239.837,-132.963 246.355,-126.9335 258.9939,-111.8992 281.9368,-79.3216 289.898,-69.8474 285.5199,-65.6284 284.2635,-64.2147 249.3291,-18 240.9796,-10.7894 238.2739,-8.1404 234.7295,-4.2328 220.1379,13.7662 211.2302,26.8698 204.3026,37.8895 208.2629,42.5244 297.3736,69.9328 305.9553,73.2654 321.095,80.3863 331.0067,85.8454 334.4251,88.0053 335.6722,87.5831 347.9578,83.8246 356.3415,81.8144 368.4144,79.319 377.6671,78.326 382.916,74.4686 382.916,74.4686"/>
<polyline fill="none" stroke="#000000" points="228.7067,-145.9587 230.9887,-143.0309 238.1275,-134.7383 239.837,-132.963 246.355,-126.9335 258.9939,-111.8992 281.9368,-79.3216 289.898,-69.8474 285.5199,-65.6284 284.2635,-64.2147 249.3291,-18 240.9796,-10.7894 238.2739,-8.1404 234.7295,-4.2328 220.1379,13.7662 211.2302,26.8698 204.3026,37.8895 202.4016,37.199 172.7567,16.8596 130.882,9.8697 126.2894,9.4782 113.8181,8.9231 108.2056,8.9031 98.1212,9.6917 93.7805,10.2082 78.3125,13.3224 68.2339,16.1734 65.2599,17.2581 57.6641,13.8966 43.5564,8.9019 7.6755,-2.1722 7.3416,-2.3095 -44.634,-64.0567 -48.5298,-69.759 -62.8016,-86.8831 49.8518,-167.985 54.3527,-165.1955 55.4656,-164.6029 64.7165,-160.0623 78.7898,-154.3374 90.9888,-150.4186 92.5179,-149.9938 102.4834,-147.6511 113.5823,-145.9953 122.0264,-145.4603 133.0813,-145.2345 172.5844,-147.8128 211.2474,-171.4112 214.3909,-166.2089 228.7067,-145.9587 "/>
<polyline fill="none" stroke="#000000" points="338.8883,-205.9912 347.7785,-203.3639 357.1366,-200.9934 367.5091,-199.244 377.8089,-197.9442 435.0766,-197.9731 464.8528,-141.1906 466.5167,-134.3377 468.1754,-129.2057 459.1866,-97.5885 453.0208,-71.9497 466.3231,-33.947 463.0764,-23.2863 459.6504,-7.6369 456.3214,11.3602 444.2324,35.4356 387.8882,71.0703 382.916,74.4686 377.6671,78.326 368.4144,79.319 356.3415,81.8144 347.9578,83.8246 335.6722,87.5831 334.4251,88.0053 331.0067,85.8454 321.095,80.3863 305.9553,73.2654 297.3736,69.9328 208.2629,42.5244 204.3026,37.8895 211.2302,26.8698 220.1379,13.7662 234.7295,-4.2328 238.2739,-8.1404 240.9796,-10.7894 249.3291,-18 284.2635,-64.2147 285.5199,-65.6284 289.898,-69.8474 281.9368,-79.3216 258.9939,-111.8992 246.355,-126.9335 239.837,-132.963 238.1275,-134.7383 230.9887,-143.0309 228.7067,-145.9587 214.3909,-166.2089 211.2474,-171.4112 211.8647,-172.6785 218.0463,-179.1702 291.6969,-202.8748 308.6056,-209.0616 319.2461,-214.3267 321.4426,-213.2133 331.9919,-208.3159 338.8883,-205.9912 "/>
<!-- nginx&#45;&gt;gperftools&#45;libs -->
<g id="edge1" class="edge">
<title>nginx&#45;&gt;gperftools&#45;libs</title>
<path fill="none" stroke="#444444" stroke-opacity="0.333333" d="M189.9748,-69.8205C189.8168,-69.8205 189.6584,-69.8204 189.4998,-69.8203"/>
<polygon fill="#444444" fill-opacity="0.333333" stroke="#444444" stroke-opacity="0.333333" points="192.1975,-66.3221 182.1953,-69.8157 192.1931,-73.3221 192.1975,-66.3221"/>
</g>
<!-- nginx&#45;&gt;nginx&#45;mimetypes -->
<g id="edge2" class="edge">
<title>nginx&#45;&gt;nginx&#45;mimetypes</title>
<path fill="none" stroke="#444444" stroke-opacity="0.333333" d="M265.3362,-87.185C273.6522,-91.0156 282.5763,-95.1264 291.256,-99.1245"/>
<polygon fill="#444444" fill-opacity="0.333333" stroke="#444444" stroke-opacity="0.333333" points="289.991,-102.3952 300.538,-103.4001 292.9196,-96.0373 289.991,-102.3952"/>
</g>
<!-- nginx&#45;&gt;nginx&#45;filesystem -->
<g id="edge3" class="edge">
<title>nginx&#45;&gt;nginx&#45;filesystem</title>
<path fill="none" stroke="#444444" stroke-opacity="0.333333" d="M265.3094,-52.4365C273.6194,-48.5912 282.5372,-44.4647 291.2106,-40.4513"/>
<polygon fill="#444444" fill-opacity="0.333333" stroke="#444444" stroke-opacity="0.333333" points="292.8804,-43.5352 300.4861,-36.1593 289.9407,-37.1824 292.8804,-43.5352"/>
</g>
<!-- nginx&#45;mimetypes&#45;&gt;nginx&#45;filesystem -->
<g id="edge4" class="edge">
<title>nginx&#45;mimetypes&#45;&gt;nginx&#45;filesystem</title>
<path fill="none" stroke="#444444" stroke-opacity="0.333333" d="M339.7961,-103.4634C339.7839,-87.6817 339.7659,-64.4883 339.7518,-46.2439"/>
<polygon fill="#444444" fill-opacity="0.333333" stroke="#444444" stroke-opacity="0.333333" points="343.2519,-46.1645 339.744,-36.1672 336.2519,-46.17 343.2519,-46.1645"/>
</g>
<!-- nginx -->
<g id="node1" class="node">
<title>nginx</title>
<text text-anchor="middle" x="227.69" y="-66.144" font-family="monospace" font-size="14.00" fill="#000000">nginx</text>
</g>
<!-- gperftools&#45;libs -->
<g id="node2" class="node">
<title>gperftools&#45;libs</title>
<text text-anchor="middle" x="90.992" y="-66.059" font-family="monospace" font-size="14.00" fill="#000000">gperftools&#45;libs</text>
</g>
<!-- nginx&#45;mimetypes -->
<g id="node3" class="node">
<title>nginx&#45;mimetypes</title>
<text text-anchor="middle" x="339.81" y="-117.79" font-family="monospace" font-size="14.00" fill="#000000">nginx&#45;mimetypes</text>
</g>
<!-- nginx&#45;filesystem -->
<g id="node4" class="node">
<title>nginx&#45;filesystem</title>
<text text-anchor="middle" x="339.73" y="-14.3" font-family="monospace" font-size="14.00" fill="#000000">nginx&#45;filesystem</text>
</g>
</g>
</svg>
