<?xml version="1.0" encoding="UTF-8" standalone="no"?>
<!DOCTYPE svg PUBLIC "-//W3C//DTD SVG 1.1//EN"
 "http://www.w3.org/Graphics/SVG/1.1/DTD/svg11.dtd">
<!-- Generated by graphviz version 2.40.1 (20161225.0304)
 -->
<!-- Title: G Pages: 1 -->
<svg width="2226pt" height="1675pt"
 viewBox="0.00 0.00 2226.38 1675.15" xmlns="http://www.w3.org/2000/svg" xmlns:xlink="http://www.w3.org/1999/xlink">
<g id="graph0" class="graph" transform="scale(1 1) rotate(0) translate(159.5046 1472.9784)">
<title>G</title>
<polygon fill="#dae2ff" stroke="transparent" points="-159.5046,202.1707 -159.5046,-1472.9784 2066.8752,-1472.9784 2066.8752,202.1707 -159.5046,202.1707"/>
<polygon fill="#fed9a6" stroke="#fed9a6" points="564.9878,-988.5234 559.2141,-987.3794 539.4685,-983.7056 538.6276,-903.7787 542.8656,-730.7636 548.3948,-732.5002 553.926,-730.7153 559.8538,-797.1225 559.8538,-797.1225 553.926,-730.7153 548.3948,-732.5002 542.8656,-730.7636 538.6276,-903.7787 534.6646,-762.3887 534.6646,-762.3887 538.6276,-903.7787 539.4685,-983.7056 512.1201,-979.6164 511.9532,-979.2947 521.2708,-759.7164 526.6657,-727.5414 526.2564,-727.407 525.502,-726.1117 519.0466,-572.3782 533.1514,-581.811 541.5018,-586.8914 547.9869,-590.6414 557.9391,-596.0953 564.093,-599.2784 576.6917,-605.029 659.5635,-637.8057 660.7029,-603.9387 660.7029,-603.9387 659.5635,-637.8057 576.6917,-605.029 564.093,-599.2784 557.9391,-596.0953 547.9869,-590.6414 541.5018,-586.8914 533.1514,-581.811 519.0466,-572.3782 525.502,-726.1117 526.2564,-727.407 526.6657,-727.5414 521.2708,-759.7164 511.9532,-979.2947 442.4447,-852.9242 429.7564,-827.2714 401.8532,-767.278 369.7386,-702.7402 299.188,-574.4749 290.3529,-557.9801 346.0453,-456.7202 348.5169,-454.1821 350.8469,-448.0723 360.288,-422.567 356.3144,-366.4618 306.4032,-278.4158 259.395,-142.7418 438.1176,-87.6781 440.7719,-131.2038 444.6311,-82.9101 448.9031,-82.9101 455.3213,-175.0199 455.3213,-175.0199 448.9031,-82.9101 444.6311,-82.9101 440.7719,-131.2038 438.1176,-87.6781 259.395,-142.7418 231.3879,-66.171 227.8322,-56.8787 227.4645,-29.8177 226.8658,-8.4781 251.55,18.3394 292.2206,53.3446 422.6856,125.8062 438.336,145.1387 474.6708,157.1262 559.0141,177.5497 582.6686,183.6539 594.347,187.0317 609.0162,191.963 612.9824,192.028 629.7352,193.0021 638.2726,193.8549 640.1621,-13.3354 634.9355,-13.3354 629.1038,-17.0197 628.2191,31.6643 622.3251,-17.8245 618.6755,-17.8245 614.3636,26.4748 611.6749,-18.1246 607.1154,-18.1246 606.204,-17.8473 601.9453,-17.8473 601.6644,-17.7606 601.6644,-17.7606 601.9453,-17.8473 606.204,-17.8473 607.1154,-18.1246 604.7825,-63.8333 611.8896,-69.969 614.7053,-72.7416 575.2315,-78.9852 566.5275,-76.1097 566.5275,-76.1097 575.2315,-78.9852 614.7053,-72.7416 611.8896,-69.969 604.7825,-63.8333 607.1154,-18.1246 611.6749,-18.1246 614.3636,26.4748 618.6755,-17.8245 622.3251,-17.8245 628.2191,31.6643 629.1038,-17.0197 628.0599,-18.354 628.7034,-19.1149 633.9327,-22.2647 633.9327,-22.2647 628.7034,-19.1149 628.0599,-18.354 629.1038,-17.0197 634.9355,-13.3354 640.1621,-13.3354 638.2726,193.8549 653.6232,195.602 666.1089,197.5435 669.5308,198.1707 669.938,197.9774 682.2761,192.3222 682.774,192.1105 695.8699,186.7556 716.0093,178.8544 809.034,143.9449 863.5046,83.3494 907.0237,-18 959.0052,-125.6239 942.3453,-156.0025 941.4714,-164.6113 941.117,-168.5613 985.1123,-255.1209 951.3903,-414.4458 946.959,-443.2761 945.1653,-451.4366 943.5266,-469.5993 924.4313,-559.8182 911.7367,-560.5762 898.8817,-560.9931 892.9511,-561.0233 892.6056,-561.0062 885.7697,-560.8731 885.3729,-542.5185 886.7895,-444.2852 889.5883,-442.1738 890.5823,-437.9143 886.888,-435.267 886.888,-435.267 890.5823,-437.9143 889.5883,-442.1738 886.7895,-444.2852 879.7086,-444.2852 877.2888,-442.5174 877.2888,-442.5174 879.7086,-444.2852 886.7895,-444.2852 885.3729,-542.5185 885.7697,-560.8731 884.2338,-560.9358 878.2256,-561.0165 869.2533,-560.8914 862.637,-560.9986 818.0026,-560.5016 806.721,-535.3757 696.8118,-521.6087 692.0244,-516.4675 691.7687,-516.4675 684.1658,-595.1194 683.3428,-571.4215 684.9888,-518.6803 687.5145,-516.0461 684.5907,-513.0132 689.2189,-381.1488 690.2811,-381.1078 680.8792,-252.5146 676.1083,-248.7866 672.3452,-276.3629 668.1511,-246.316 664.9582,-246.316 660.5018,-273.937 656.8885,-249.7085 652.3644,-251.1199 645.2413,-248.7003 642.4667,-246.0813 641.3596,-246.0813 640.2842,-245.7301 638.7209,-147.756 654.6652,-139.6603 655.6793,-139.1065 656.972,-138.3497 663.5942,-133.9283 666.3062,-132.0041 660.5818,-123.5211 654.3069,-115.2916 566.3748,-87.4747 564.8588,-85.6934 561.2264,-84.6367 559.1056,-83.0492 555.1388,-83.0492 555.11,-83.0404 550.8705,-83.0404 550.361,-82.8806 550.361,-82.8806 550.8705,-83.0404 555.11,-83.0404 555.1388,-83.0492 559.1056,-83.0492 561.2264,-84.6367 564.8588,-85.6934 566.3748,-87.4747 654.3069,-115.2916 660.5818,-123.5211 666.3062,-132.0041 663.5942,-133.9283 656.972,-138.3497 655.6793,-139.1065 654.6652,-139.6603 638.7209,-147.756 640.2842,-245.7301 641.3596,-246.0813 642.4667,-246.0813 645.2413,-248.7003 652.3644,-251.1199 656.8885,-249.7085 660.5018,-273.937 664.9582,-246.316 668.1511,-246.316 672.3452,-276.3629 676.1083,-248.7866 680.8792,-252.5146 690.2811,-381.1078 689.2189,-381.1488 684.5907,-513.0132 687.5145,-516.0461 684.9888,-518.6803 683.3428,-571.4215 684.1658,-595.1194 691.7687,-516.4675 692.0244,-516.4675 696.8118,-521.6087 806.721,-535.3757 818.0026,-560.5016 744.9738,-642.9091 719.3195,-670.4576 721.5589,-686.749 725.7251,-722.5641 726.1873,-727.44 744.8277,-845.7158 726.8977,-887.6622 724.6388,-892.5553 613.4165,-1000.9673 569.2003,-989.5125 569.1183,-989.4923 572.0378,-729.9433 572.0378,-729.9433 569.1183,-989.4923 564.9878,-988.5234 564.9878,-988.5234"/>
<polygon fill="#b3cde3" stroke="#b3cde3" points="56.9601,-1098.8541 48.7599,-1098.4063 40.7967,-1098.1875 -127.0966,-1000.0741 -136.0095,-928.0465 -146.4111,-854.0793 -155.5046,-801.4456 -101.153,-694.9341 -73.7225,-676.8857 -72.4233,-676.5892 56.6897,-668.2693 73.9071,-666.1841 87.2275,-664.0034 106.6991,-660.2617 108.4866,-659.8678 112.2349,-658.9884 125.0166,-700.8173 134.1925,-726.2049 169.0443,-816.9957 178.4478,-845.7875 183.2682,-864.3533 231.9852,-848.7715 231.5644,-988.1678 238.1861,-844.1544 242.4607,-844.1544 242.4607,-844.1544 238.1861,-844.1544 231.5644,-988.1678 231.9852,-848.7715 183.2682,-864.3533 178.4478,-845.7875 169.0443,-816.9957 134.1925,-726.2049 125.0166,-700.8173 112.2349,-658.9884 196.6687,-610.6587 221.3357,-598.0487 244.9005,-585.6359 272.109,-569.6442 288.3687,-559.3558 290.3529,-557.9801 299.188,-574.4749 369.7386,-702.7402 401.8532,-767.278 429.7564,-827.2714 442.4447,-852.9242 511.9532,-979.2947 512.1201,-979.6164 308.5933,-1064.7281 293.3646,-1071.343 278.3394,-1078.3501 270.5123,-1082.2487 260.0807,-1087.9486 216.6842,-1130.3016 151.3929,-1114.3361 124.6907,-1108.1624 112.0343,-1105.58 103.0967,-1103.9994 90.4875,-1102.1118 79.0333,-1100.7083 74.1565,-1100.177 73.9804,-935.3568 77.2978,-879.881 81.8085,-879.881 82.5909,-880.8426 87.672,-883.9339 94.3356,-883.9339 98.667,-881.3062 102.4498,-913.511 106.2024,-879.6016 109.9781,-879.6016 113.5393,-914.4626 117.6153,-879.8927 120.9401,-879.8927 122.174,-879.4868 122.174,-879.4868 120.9401,-879.8927 117.6153,-879.8927 113.5393,-914.4626 109.9781,-879.6016 106.2024,-879.6016 102.4498,-913.511 98.667,-881.3062 94.3356,-883.9339 87.672,-883.9339 82.5909,-880.8426 81.8085,-879.881 77.2978,-879.881 73.9804,-935.3568 74.1565,-1100.177 63.1091,-1099.2736 56.9601,-1098.8541 56.9601,-1098.8541"/>
<polygon fill="#decbe4" stroke="#decbe4" points="1004.0402,-1270.8129 1001.3254,-1273.5393 994.923,-1275.7529 988.7933,-1273.6249 988.327,-1403.2532 989.7094,-1468.4334 992.9341,-1468.423 1002.1541,-1468.6929 1008.4275,-1468.9784 1022.8297,-1465.4296 1163.5875,-1433.2012 1169.7015,-1427.579 1197.983,-1289.9607 1212.4135,-1229.9031 1213.1509,-1227.0284 1139.8501,-1084.8058 1235.8381,-904.7424 1025.5758,-900.9484 1014.9987,-904.4039 1014.9987,-904.4039 1025.5758,-900.9484 1235.8381,-904.7424 1247.9191,-883.5091 1298.1252,-797.885 1295.6188,-793.0767 1256.3014,-768.4969 1234.9584,-756.0953 1225.842,-750.9352 1215.6027,-745.5985 1212.7917,-744.1753 1204.1547,-740.0566 1184.2373,-730.8525 1182.208,-729.9759 1121.1375,-704.5012 1105.454,-682.27 1079.848,-642.1724 1075.3564,-638.4282 1066.1517,-631.0142 1058.6687,-625.4099 1057.7378,-624.7387 1034.9921,-609.5773 1031.447,-607.317 1029.9111,-606.4665 1014.5513,-598.3735 1007.0629,-594.6375 996.4083,-589.6218 924.4313,-559.8182 911.7367,-560.5762 898.8817,-560.9931 892.9511,-561.0233 892.6056,-561.0062 885.7697,-560.8731 884.2338,-560.9358 878.2256,-561.0165 869.2533,-560.8914 862.637,-560.9986 818.0026,-560.5016 744.9738,-642.9091 719.3195,-670.4576 721.5589,-686.749 725.7251,-722.5641 726.1873,-727.44 744.8277,-845.7158 726.8977,-887.6622 724.6388,-892.5553 613.4165,-1000.9673 614.0427,-1002.464 633.5269,-1050.5767 649.7184,-1070.0863 747.7746,-1194.8065 778.3214,-1229.0331 810.2942,-1214.5929 876.7579,-1183.0831 890.1968,-1177.1119 890.2181,-1175.9354 889.6012,-1098.908 885.6654,-1051.7388 886.9689,-1049.2352 886.4521,-1048.767 883.9786,-963.1177 892.3295,-966.1132 896.1765,-967.3167 906.7613,-970.1465 920.5343,-972.5665 944.9245,-975.7222 946.8095,-976.0463 947.7568,-976.2498 955.2462,-978.1846 957.6112,-897.9213 963.6328,-897.9213 958.9216,-979.2937 974.2319,-984.5867 974.3834,-954.5085 975.0148,-944.8535 981.0428,-902.1155 985.3901,-899.4597 986.767,-897.6686 986.7592,-897.6589 980.0544,-893.2344 974.7316,-893.2344 974.7316,-893.2344 980.0544,-893.2344 986.7592,-897.6589 986.767,-897.6686 985.3901,-899.4597 981.0428,-902.1155 975.0148,-944.8535 974.3834,-954.5085 974.2319,-984.5867 958.9216,-979.2937 963.6328,-897.9213 957.6112,-897.9213 955.2462,-978.1846 947.7568,-976.2498 946.8095,-976.0463 944.9245,-975.7222 920.5343,-972.5665 906.7613,-970.1465 896.1765,-967.3167 892.3295,-966.1132 883.9786,-963.1177 886.4521,-1048.767 886.9689,-1049.2352 885.6654,-1051.7388 889.6012,-1098.908 890.2181,-1175.9354 898.7608,-1054.5488 904.2663,-1052.7726 907.4154,-1049.6106 910.3616,-1049.6106 910.3616,-1049.6106 907.4154,-1049.6106 904.2663,-1052.7726 898.7608,-1054.5488 890.2181,-1175.9354 890.1968,-1177.1119 876.7579,-1183.0831 810.2942,-1214.5929 778.3214,-1229.0331 786.188,-1302.6338 787.4863,-1320.0775 804.856,-1352.9259 866.7539,-1433.746 963.0891,-1464.6505 973.8821,-1467.4438 978.8643,-1468.8206 989.7094,-1468.4334 988.327,-1403.2532 988.7933,-1273.6249 994.923,-1275.7529 1001.3254,-1273.5393 1004.0402,-1270.8129 1000.9259,-1267.6764 995.1622,-1265.7631 995.1622,-1265.7631 1000.9259,-1267.6764 1004.0402,-1270.8129 1004.0402,-1270.8129"/>
<polygon fill="#fbb4ae" stroke="#fbb4ae" points="996.4083,-589.6218 999.2355,-502.308 999.2355,-502.308 996.4083,-589.6218 1007.0629,-594.6375 1014.5513,-598.3735 1029.9111,-606.4665 1031.447,-607.317 1031.4519,-601.7822 1037.4497,-465.0787 1043.2103,-465.0787 1048.0081,-462.1701 1049.3589,-460.4457 1048.6632,-459.5779 1043.2335,-456.1832 1043.2335,-456.1832 1048.6632,-459.5779 1049.3589,-460.4457 1048.0081,-462.1701 1043.2103,-465.0787 1037.4497,-465.0787 1031.4519,-601.7822 1031.447,-607.317 1034.9921,-609.5773 1057.7378,-624.7387 1058.6687,-625.4099 1066.1517,-631.0142 1066.9348,-577.9872 1066.9348,-577.9872 1066.1517,-631.0142 1075.3564,-638.4282 1079.848,-642.1724 1105.454,-682.27 1121.1375,-704.5012 1182.208,-729.9759 1184.2373,-730.8525 1204.1547,-740.0566 1212.7917,-744.1753 1215.6027,-745.5985 1225.842,-750.9352 1234.9584,-756.0953 1256.3014,-768.4969 1295.6188,-793.0767 1371.9138,-617.5604 1379.3132,-598.6424 1418.4996,-492.39 1439.1747,-444.8272 1535.0856,-413.1761 1631.2668,-290.0099 1659.9133,-254.3884 1654.1783,-233.4853 1650.809,-219.8344 1533.6499,-79.4671 1458.1294,-49.8724 1416.4889,-49.5392 1414.5476,-141.9423 1414.5476,-141.9423 1416.4889,-49.5392 1395.9221,-48.4553 1401.0288,-253.3741 1396.0209,-253.3741 1391.3696,-213.2231 1390.3405,-169.3164 1383.0156,-248.3711 1377.8812,-249.9405 1374.5438,-253.0936 1378.2072,-256.8362 1383.0178,-258.3588 1383.0178,-258.3588 1378.2072,-256.8362 1374.5438,-253.0936 1372.5389,-253.0936 1368.0116,-200.2662 1365.6049,-253.3384 1359.5898,-253.3384 1359.5709,-253.3444 1356.3259,-253.3444 1354.2939,-254.9856 1356.2366,-392.9075 1356.817,-394.2316 1262.838,-394.39 1255.0342,-394.6561 1254.5979,-443.3725 1257.2653,-485.9153 1250.7639,-490.9342 1249.9717,-492.2464 1250.0022,-492.2725 1250.0022,-492.2725 1249.9717,-492.2464 1250.7639,-490.9342 1257.2653,-485.9153 1254.5979,-443.3725 1255.0342,-394.6561 1262.838,-394.39 1356.817,-394.2316 1356.2366,-392.9075 1354.2939,-254.9856 1354.282,-254.9895 1334.7588,-250.9223 1296.0408,-252.5891 1260.0565,-180.5485 1253.3256,-166.1125 1243.7457,-144.2224 1231.924,-115.6569 1225.6938,-99.0481 1225.6199,-124.99 1222.1877,-291.933 1216.6757,-291.933 1216.6757,-291.933 1222.1877,-291.933 1225.6199,-124.99 1225.6938,-99.0481 1231.924,-115.6569 1243.7457,-144.2224 1253.3256,-166.1125 1260.0565,-180.5485 1296.0408,-252.5891 1334.7588,-250.9223 1354.282,-254.9895 1354.2939,-254.9856 1356.3259,-253.3444 1355.3915,-251.9009 1355.3915,-251.9009 1356.3259,-253.3444 1359.5709,-253.3444 1359.5898,-253.3384 1365.6049,-253.3384 1368.0116,-200.2662 1372.5389,-253.0936 1374.5438,-253.0936 1377.8812,-249.9405 1383.0156,-248.3711 1390.3405,-169.3164 1391.3696,-213.2231 1396.0209,-253.3741 1401.0288,-253.3741 1395.9221,-48.4553 1392.1882,-48.2031 1368.0615,-45.4932 1367.7972,-45.4596 1345.1207,-41.5623 1333.2217,-39.165 1223.9027,-93.7903 1212.8367,-95.0329 1209.9187,-95.2725 1196.7479,-96.1555 1183.9423,-96.6276 1184.7059,-255.3363 1188.5463,-296.2148 1188.2336,-296.3195 1188.2336,-296.3195 1188.5463,-296.2148 1184.7059,-255.3363 1183.9423,-96.6276 1044.3418,-97.5595 959.0052,-125.6239 942.3453,-156.0025 941.4714,-164.6113 941.117,-168.5613 985.1123,-255.1209 951.3903,-414.4458 946.959,-443.2761 945.1653,-451.4366 943.5266,-469.5993 924.4313,-559.8182 996.4083,-589.6218 996.4083,-589.6218"/>
<polygon fill="#ccebc5" stroke="#ccebc5" points="1816.0273,-307.4678 1835.6595,-309.6496 1839.7651,-310.0404 1921.637,-316.5305 1946.3035,-333.0652 2062.8752,-491.2676 2060.0964,-496.23 1996.1598,-496.23 1834.7186,-502.3364 1829.8253,-498.1257 1829.3102,-497.9706 1826.9154,-496.1486 1824.7372,-496.1486 1823.1782,-496.6366 1818.054,-496.6366 1817.8011,-496.5587 1813.3663,-496.5587 1805.1534,-577.6469 1807.0837,-496.1124 1806.5313,-495.9403 1801.6381,-495.9403 1801.1454,-496.0939 1801.1454,-496.0939 1801.6381,-495.9403 1806.5313,-495.9403 1807.0837,-496.1124 1805.1534,-577.6469 1813.3663,-496.5587 1817.8011,-496.5587 1818.054,-496.6366 1823.1782,-496.6366 1824.7372,-496.1486 1826.9154,-496.1486 1829.3102,-497.9706 1829.8253,-498.1257 1834.7186,-502.3364 1996.1598,-496.23 2060.0964,-496.23 1987.8879,-638.3612 1934.1715,-623.3652 1785.6202,-672.6801 1785.1736,-587.0384 1788.1893,-586.9137 1787.5947,-533.2729 1783.5173,-496.6051 1782.3796,-496.6051 1778.9249,-493.2671 1778.9249,-493.2671 1782.3796,-496.6051 1783.5173,-496.6051 1787.5947,-533.2729 1788.1893,-586.9137 1785.1736,-587.0384 1785.6202,-672.6801 1783.4834,-675.4131 1780.3979,-676.8561 1779.5642,-677.6595 1779.4224,-677.7051 1775.1285,-677.7051 1768.8656,-744.1351 1768.2489,-757.717 1763.2244,-757.4091 1762.9954,-677.1038 1757.7078,-677.1038 1754.3662,-586.6921 1756.1071,-586.5629 1750.3623,-496.4534 1745.3854,-496.4534 1745.0007,-496.3324 1739.9171,-496.3324 1739.2312,-496.1177 1734.3342,-496.1177 1732.3243,-586.6782 1728.8921,-586.6917 1728.4998,-496.1471 1728.4998,-496.1471 1728.8921,-586.6917 1732.3243,-586.6782 1734.3342,-496.1177 1739.2312,-496.1177 1739.9171,-496.3324 1745.0007,-496.3324 1745.3854,-496.4534 1750.3623,-496.4534 1756.1071,-586.5629 1754.3662,-586.6921 1757.7078,-677.1038 1762.9954,-677.1038 1763.2244,-757.4091 1758.908,-757.3157 1752.3453,-757.4341 1751.6561,-677.4192 1746.5315,-677.4192 1745.7786,-677.1769 1743.6749,-677.1769 1739.9132,-680.869 1735.2311,-682.3091 1735.2311,-682.3091 1739.9132,-680.869 1743.6749,-677.1769 1745.7786,-677.1769 1746.5315,-677.4192 1751.6561,-677.4192 1752.3453,-757.4341 1758.908,-757.3157 1763.2244,-757.4091 1768.2489,-757.717 1768.8656,-744.1351 1775.1285,-677.7051 1779.4224,-677.7051 1779.5642,-677.6595 1780.3979,-676.8561 1783.4834,-675.4131 1785.6202,-672.6801 1934.1715,-623.3652 1987.8879,-638.3612 1986.6005,-713.1499 1986.855,-732.4183 1959.5621,-798.6004 1958.7875,-826.4454 1958.6166,-839.6577 1957.1241,-842.9466 1883.4181,-1019.2314 1768.3682,-1027.5851 1739.0079,-1030.1798 1738.2721,-1030.2678 1727.1665,-1031.7701 1731.822,-837.6253 1731.6149,-837.5588 1731.6149,-837.5588 1731.822,-837.6253 1727.1665,-1031.7701 1723.254,-1032.3605 1720.9006,-1032.7892 1713.6312,-884.622 1714.8131,-838.0566 1715.4785,-837.2114 1714.8771,-836.4878 1709.1587,-832.9786 1703.2847,-832.9786 1702.9606,-757.3411 1705.4863,-757.2996 1706.7615,-757.2277 1709.4614,-757.1827 1712.5624,-677.4965 1713.0667,-677.3333 1709.681,-642.3389 1710.2803,-586.8497 1699.0652,-586.492 1694.2931,-586.0089 1685.6027,-596.3776 1683.8151,-598.3479 1682.3424,-599.8453 1611.1328,-605.3749 1611.1328,-605.3749 1682.3424,-599.8453 1683.8151,-598.3479 1685.6027,-596.3776 1694.2931,-586.0089 1699.0652,-586.492 1710.2803,-586.8497 1709.681,-642.3389 1713.0667,-677.3333 1712.5624,-677.4965 1709.4614,-757.1827 1706.7615,-757.2277 1705.4863,-757.2996 1702.9606,-757.3411 1702.7552,-757.3364 1699.6643,-757.1405 1699.4358,-746.7016 1701.1536,-677.1913 1701.1536,-677.1913 1699.4358,-746.7016 1699.6643,-757.1405 1702.7552,-757.3364 1702.9606,-757.3411 1703.2847,-832.9786 1709.1587,-832.9786 1714.8771,-836.4878 1715.4785,-837.2114 1714.8131,-838.0566 1713.6312,-884.622 1720.9006,-1032.7892 1696.5602,-1037.9943 1690.8438,-1039.3951 1672.1202,-1044.5718 1672.9257,-987.6569 1672.5215,-919.719 1672.5215,-919.719 1672.9257,-987.6569 1672.1202,-1044.5718 1658.689,-1048.9139 1606.8685,-1067.285 1585.3901,-1066.3285 1403.0645,-839.2995 1401.2682,-837.1165 1298.1252,-797.885 1295.6188,-793.0767 1371.9138,-617.5604 1379.3132,-598.6424 1418.4996,-492.39 1439.1747,-444.8272 1535.0856,-413.1761 1631.2668,-290.0099 1659.9133,-254.3884 1694.9763,-269.9686 1723.7179,-282.2987 1739.9105,-288.4723 1742.9952,-289.5988 1760.6003,-295.1924 1775.6283,-299.4887 1795.7462,-303.9624 1813.6754,-307.0946 1816.0273,-307.4678 1816.0273,-307.4678"/>
<polyline fill="none" stroke="#000000" points="559.0141,177.5497 582.6686,183.6539 594.347,187.0317 609.0162,191.963 612.9824,192.028 629.7352,193.0021 638.2726,193.8549 653.6232,195.602 666.1089,197.5435 669.5308,198.1707 669.938,197.9774 682.2761,192.3222 682.774,192.1105 695.8699,186.7556 716.0093,178.8544 809.034,143.9449 863.5046,83.3494 907.0237,-18 959.0052,-125.6239 942.3453,-156.0025 941.4714,-164.6113 941.117,-168.5613 985.1123,-255.1209 951.3903,-414.4458 946.959,-443.2761 945.1653,-451.4366 943.5266,-469.5993 924.4313,-559.8182 911.7367,-560.5762 898.8817,-560.9931 892.9511,-561.0233 892.6056,-561.0062 885.7697,-560.8731 884.2338,-560.9358 878.2256,-561.0165 869.2533,-560.8914 862.637,-560.9986 818.0026,-560.5016 744.9738,-642.9091 719.3195,-670.4576 721.5589,-686.749 725.7251,-722.5641 726.1873,-727.44 744.8277,-845.7158 726.8977,-887.6622 724.6388,-892.5553 613.4165,-1000.9673 569.2003,-989.5125 569.1183,-989.4923 564.9878,-988.5234 559.2141,-987.3794 539.4685,-983.7056 512.1201,-979.6164 511.9532,-979.2947 442.4447,-852.9242 429.7564,-827.2714 401.8532,-767.278 369.7386,-702.7402 299.188,-574.4749 290.3529,-557.9801 346.0453,-456.7202 348.5169,-454.1821 350.8469,-448.0723 360.288,-422.567 356.3144,-366.4618 306.4032,-278.4158 259.395,-142.7418 231.3879,-66.171 227.8322,-56.8787 227.4645,-29.8177 226.8658,-8.4781 251.55,18.3394 292.2206,53.3446 422.6856,125.8062 438.336,145.1387 474.6708,157.1262 559.0141,177.5497 "/>
<polyline fill="none" stroke="#000000" points="260.0807,-1087.9486 216.6842,-1130.3016 151.3929,-1114.3361 124.6907,-1108.1624 112.0343,-1105.58 103.0967,-1103.9994 90.4875,-1102.1118 79.0333,-1100.7083 74.1565,-1100.177 63.1091,-1099.2736 56.9601,-1098.8541 48.7599,-1098.4063 40.7967,-1098.1875 -127.0966,-1000.0741 -136.0095,-928.0465 -146.4111,-854.0793 -155.5046,-801.4456 -101.153,-694.9341 -73.7225,-676.8857 -72.4233,-676.5892 56.6897,-668.2693 73.9071,-666.1841 87.2275,-664.0034 106.6991,-660.2617 108.4866,-659.8678 112.2349,-658.9884 196.6687,-610.6587 221.3357,-598.0487 244.9005,-585.6359 272.109,-569.6442 288.3687,-559.3558 290.3529,-557.9801 299.188,-574.4749 369.7386,-702.7402 401.8532,-767.278 429.7564,-827.2714 442.4447,-852.9242 511.9532,-979.2947 512.1201,-979.6164 308.5933,-1064.7281 293.3646,-1071.343 278.3394,-1078.3501 270.5123,-1082.2487 260.0807,-1087.9486 "/>
<polyline fill="none" stroke="#000000" points="898.8817,-560.9931 911.7367,-560.5762 924.4313,-559.8182 996.4083,-589.6218 1007.0629,-594.6375 1014.5513,-598.3735 1029.9111,-606.4665 1031.447,-607.317 1034.9921,-609.5773 1057.7378,-624.7387 1058.6687,-625.4099 1066.1517,-631.0142 1075.3564,-638.4282 1079.848,-642.1724 1105.454,-682.27 1121.1375,-704.5012 1182.208,-729.9759 1184.2373,-730.8525 1204.1547,-740.0566 1212.7917,-744.1753 1215.6027,-745.5985 1225.842,-750.9352 1234.9584,-756.0953 1256.3014,-768.4969 1295.6188,-793.0767 1298.1252,-797.885 1247.9191,-883.5091 1235.8381,-904.7424 1139.8501,-1084.8058 1213.1509,-1227.0284 1212.4135,-1229.9031 1197.983,-1289.9607 1169.7015,-1427.579 1163.5875,-1433.2012 1022.8297,-1465.4296 1008.4275,-1468.9784 1002.1541,-1468.6929 992.9341,-1468.423 989.7094,-1468.4334 978.8643,-1468.8206 973.8821,-1467.4438 963.0891,-1464.6505 866.7539,-1433.746 804.856,-1352.9259 787.4863,-1320.0775 786.188,-1302.6338 778.3214,-1229.0331 747.7746,-1194.8065 649.7184,-1070.0863 633.5269,-1050.5767 614.0427,-1002.464 613.4165,-1000.9673 724.6388,-892.5553 726.8977,-887.6622 744.8277,-845.7158 726.1873,-727.44 725.7251,-722.5641 721.5589,-686.749 719.3195,-670.4576 744.9738,-642.9091 818.0026,-560.5016 862.637,-560.9986 869.2533,-560.8914 878.2256,-561.0165 884.2338,-560.9358 885.7697,-560.8731 892.6056,-561.0062 892.9511,-561.0233 898.8817,-560.9931 "/>
<polyline fill="none" stroke="#000000" points="1215.6027,-745.5985 1225.842,-750.9352 1234.9584,-756.0953 1256.3014,-768.4969 1295.6188,-793.0767 1371.9138,-617.5604 1379.3132,-598.6424 1418.4996,-492.39 1439.1747,-444.8272 1535.0856,-413.1761 1631.2668,-290.0099 1659.9133,-254.3884 1654.1783,-233.4853 1650.809,-219.8344 1533.6499,-79.4671 1458.1294,-49.8724 1416.4889,-49.5392 1395.9221,-48.4553 1392.1882,-48.2031 1368.0615,-45.4932 1367.7972,-45.4596 1345.1207,-41.5623 1333.2217,-39.165 1223.9027,-93.7903 1212.8367,-95.0329 1209.9187,-95.2725 1196.7479,-96.1555 1183.9423,-96.6276 1044.3418,-97.5595 959.0052,-125.6239 942.3453,-156.0025 941.4714,-164.6113 941.117,-168.5613 985.1123,-255.1209 951.3903,-414.4458 946.959,-443.2761 945.1653,-451.4366 943.5266,-469.5993 924.4313,-559.8182 996.4083,-589.6218 1007.0629,-594.6375 1014.5513,-598.3735 1029.9111,-606.4665 1031.447,-607.317 1034.9921,-609.5773 1057.7378,-624.7387 1058.6687,-625.4099 1066.1517,-631.0142 1075.3564,-638.4282 1079.848,-642.1724 1105.454,-682.27 1121.1375,-704.5012 1182.208,-729.9759 1184.2373,-730.8525 1204.1547,-740.0566 1212.7917,-744.1753 1215.6027,-745.5985 "/>
<polyline fill="none" stroke="#000000" points="1535.0856,-413.1761 1439.1747,-444.8272 1418.4996,-492.39 1379.3132,-598.6424 1371.9138,-617.5604 1295.6188,-793.0767 1298.1252,-797.885 1401.2682,-837.1165 1403.0645,-839.2995 1585.3901,-1066.3285 1606.8685,-1067.285 1658.689,-1048.9139 1672.1202,-1044.5718 1690.8438,-1039.3951 1696.5602,-1037.9943 1720.9006,-1032.7892 1723.254,-1032.3605 1727.1665,-1031.7701 1738.2721,-1030.2678 1739.0079,-1030.1798 1768.3682,-1027.5851 1883.4181,-1019.2314 1957.1241,-842.9466 1958.6166,-839.6577 1958.7875,-826.4454 1959.5621,-798.6004 1986.855,-732.4183 1986.6005,-713.1499 1987.8879,-638.3612 2060.0964,-496.23 2062.8752,-491.2676 1946.3035,-333.0652 1921.637,-316.5305 1839.7651,-310.0404 1835.6595,-309.6496 1816.0273,-307.4678 1813.6754,-307.0946 1795.7462,-303.9624 1775.6283,-299.4887 1760.6003,-295.1924 1742.9952,-289.5988 1739.9105,-288.4723 1723.7179,-282.2987 1694.9763,-269.9686 1659.9133,-254.3884 1631.2668,-290.0099 1535.0856,-413.1761 "/>
<!-- aajohan&#45;comfortaa&#45;fonts&#45;&gt;fontpackages&#45;filesystem -->
<g id="edge1" class="edge">
<title>aajohan&#45;comfortaa&#45;fonts&#45;&gt;fontpackages&#45;filesystem</title>
<path fill="none" stroke="#444444" stroke-opacity="0.333333" d="M540.0649,-64.7128C555.5662,-57.2681 573.707,-48.5557 590.0954,-40.685"/>
<polygon fill="#444444" fill-opacity="0.333333" stroke="#444444" stroke-opacity="0.333333" points="592.0099,-43.6483 599.5089,-36.164 588.9794,-37.3383 592.0099,-43.6483"/>
</g>
<!-- curl&#45;minimal&#45;&gt;libcurl&#45;minimal -->
<g id="edge2" class="edge">
<title>curl&#45;minimal&#45;&gt;libcurl&#45;minimal</title>
<path fill="none" stroke="#444444" stroke-opacity="0.333333" d="M191.2042,-859.2884C190.864,-859.3572 190.5235,-859.426 190.1828,-859.4949"/>
<polygon fill="#444444" fill-opacity="0.333333" stroke="#444444" stroke-opacity="0.333333" points="189.3649,-856.0894 180.2569,-861.5018 190.7522,-862.9505 189.3649,-856.0894"/>
</g>
<!-- fontconfig&#45;&gt;aajohan&#45;comfortaa&#45;fonts -->
<g id="edge3" class="edge">
<title>fontconfig&#45;&gt;aajohan&#45;comfortaa&#45;fonts</title>
<path fill="none" stroke="#444444" stroke-opacity="0.333333" d="M635.2885,-228.03C608.7146,-198.9539 556.4385,-141.7554 526.0085,-108.4601"/>
<polygon fill="#444444" fill-opacity="0.333333" stroke="#444444" stroke-opacity="0.333333" points="528.4655,-105.9604 519.1356,-100.9401 523.2984,-110.6829 528.4655,-105.9604"/>
</g>
<!-- fontconfig&#45;&gt;fontpackages&#45;filesystem -->
<g id="edge4" class="edge">
<title>fontconfig&#45;&gt;fontpackages&#45;filesystem</title>
<path fill="none" stroke="#444444" stroke-opacity="0.333333" d="M650.6771,-227.856C648.1503,-188.1276 642.1442,-93.6931 639.1261,-46.2401"/>
<polygon fill="#444444" fill-opacity="0.333333" stroke="#444444" stroke-opacity="0.333333" points="642.606,-45.812 638.4783,-36.0544 635.6202,-46.2564 642.606,-45.812"/>
</g>
<!-- libX11&#45;&gt;libX11&#45;common -->
<g id="edge5" class="edge">
<title>libX11&#45;&gt;libX11&#45;common</title>
<path fill="none" stroke="#444444" stroke-opacity="0.333333" d="M896.2099,-700.2761C911.7324,-737.9955 947.7483,-825.5137 966.184,-870.3123"/>
<polygon fill="#444444" fill-opacity="0.333333" stroke="#444444" stroke-opacity="0.333333" points="963.0065,-871.788 970.0488,-879.7036 969.4798,-869.124 963.0065,-871.788"/>
</g>
<!-- libX11&#45;&gt;libxcb -->
<g id="edge6" class="edge">
<title>libX11&#45;&gt;libxcb</title>
<path fill="none" stroke="#444444" stroke-opacity="0.333333" d="M889.2795,-700.476C890.8455,-759.9284 895.8174,-948.6916 897.7197,-1020.9158"/>
<polygon fill="#444444" fill-opacity="0.333333" stroke="#444444" stroke-opacity="0.333333" points="894.2254,-1021.1797 897.9876,-1031.0841 901.223,-1020.9954 894.2254,-1021.1797"/>
</g>
<!-- libxcb&#45;&gt;libXau -->
<g id="edge7" class="edge">
<title>libxcb&#45;&gt;libXau</title>
<path fill="none" stroke="#444444" stroke-opacity="0.333333" d="M906.3613,-1067.5181C923.2495,-1106.2928 962.9796,-1197.5118 982.9701,-1243.4094"/>
<polygon fill="#444444" fill-opacity="0.333333" stroke="#444444" stroke-opacity="0.333333" points="979.8329,-1244.9715 987.0349,-1252.7421 986.2506,-1242.1763 979.8329,-1244.9715"/>
</g>
<!-- libXft&#45;&gt;fontconfig -->
<g id="edge8" class="edge">
<title>libXft&#45;&gt;fontconfig</title>
<path fill="none" stroke="#444444" stroke-opacity="0.333333" d="M676.8679,-497.94C672.2857,-451.8395 660.1626,-329.872 654.6454,-274.3643"/>
<polygon fill="#444444" fill-opacity="0.333333" stroke="#444444" stroke-opacity="0.333333" points="658.1062,-273.7959 653.6342,-264.1911 651.1405,-274.4883 658.1062,-273.7959"/>
</g>
<!-- libXft&#45;&gt;libX11 -->
<g id="edge9" class="edge">
<title>libXft&#45;&gt;libX11</title>
<path fill="none" stroke="#444444" stroke-opacity="0.333333" d="M701.5576,-534.1727C739.4517,-564.1446 815.2636,-624.1072 857.8808,-657.8148"/>
<polygon fill="#444444" fill-opacity="0.333333" stroke="#444444" stroke-opacity="0.333333" points="855.9261,-660.7312 865.9406,-664.1896 860.2686,-655.2409 855.9261,-660.7312"/>
</g>
<!-- libXft&#45;&gt;libXrender -->
<g id="edge10" class="edge">
<title>libXft&#45;&gt;libXrender</title>
<path fill="none" stroke="#444444" stroke-opacity="0.333333" d="M667.5777,-534.0913C644.6878,-571.28 592.1112,-656.6998 565.161,-700.4851"/>
<polygon fill="#444444" fill-opacity="0.333333" stroke="#444444" stroke-opacity="0.333333" points="562.0801,-698.8133 559.819,-709.1641 568.0414,-702.4826 562.0801,-698.8133"/>
</g>
<!-- libXrender&#45;&gt;curl&#45;minimal -->
<g id="edge11" class="edge">
<title>libXrender&#45;&gt;curl&#45;minimal</title>
<path fill="none" stroke="#444444" stroke-opacity="0.333333" d="M504.8479,-745.5262C454.9713,-766.1582 373.4191,-799.8933 319.9156,-822.0257"/>
<polygon fill="#444444" fill-opacity="0.333333" stroke="#444444" stroke-opacity="0.333333" points="318.4973,-818.8247 310.5946,-825.8814 321.1731,-825.2931 318.4973,-818.8247"/>
</g>
<!-- libXrender&#45;&gt;libX11 -->
<g id="edge12" class="edge">
<title>libXrender&#45;&gt;libX11</title>
<path fill="none" stroke="#444444" stroke-opacity="0.333333" d="M613.3655,-718.8375C677.8849,-710.2718 775.727,-697.2819 835.771,-689.3103"/>
<polygon fill="#444444" fill-opacity="0.333333" stroke="#444444" stroke-opacity="0.333333" points="836.3462,-692.7647 845.7986,-687.979 835.4249,-685.8256 836.3462,-692.7647"/>
</g>
<!-- python3&#45;debug&#45;&gt;libX11 -->
<g id="edge13" class="edge">
<title>python3&#45;debug&#45;&gt;libX11</title>
<path fill="none" stroke="#444444" stroke-opacity="0.333333" d="M1188.2714,-510.4246C1128.0271,-544.9946 996.3517,-620.5537 929.4926,-658.9194"/>
<polygon fill="#444444" fill-opacity="0.333333" stroke="#444444" stroke-opacity="0.333333" points="927.4344,-656.0651 920.5029,-664.078 930.9183,-662.1366 927.4344,-656.0651"/>
</g>
<!-- python3&#45;debug&#45;&gt;python3&#45;devel -->
<g id="edge14" class="edge">
<title>python3&#45;debug&#45;&gt;python3&#45;devel</title>
<path fill="none" stroke="#444444" stroke-opacity="0.333333" d="M1273.4346,-510.4271C1337.0002,-531.7641 1442.6863,-567.2398 1510.1706,-589.8922"/>
<polygon fill="#444444" fill-opacity="0.333333" stroke="#444444" stroke-opacity="0.333333" points="1509.2465,-593.2739 1519.8405,-593.1381 1511.4741,-586.6378 1509.2465,-593.2739"/>
</g>
<!-- python3&#45;debug&#45;&gt;python3&#45;test -->
<g id="edge15" class="edge">
<title>python3&#45;debug&#45;&gt;python3&#45;test</title>
<path fill="none" stroke="#444444" stroke-opacity="0.333333" d="M1232.2734,-474.0368C1261.0298,-432.0617 1331.6913,-328.9183 1365.2015,-280.004"/>
<polygon fill="#444444" fill-opacity="0.333333" stroke="#444444" stroke-opacity="0.333333" points="1368.2434,-281.7566 1371.0078,-271.5287 1362.4686,-277.8003 1368.2434,-281.7566"/>
</g>
<!-- python3&#45;debug&#45;&gt;python3&#45;tkinter -->
<g id="edge16" class="edge">
<title>python3&#45;debug&#45;&gt;python3&#45;tkinter</title>
<path fill="none" stroke="#444444" stroke-opacity="0.333333" d="M1139.0937,-478.0999C1138.9305,-478.0709 1138.7672,-478.042 1138.604,-478.0131"/>
<polygon fill="#444444" fill-opacity="0.333333" stroke="#444444" stroke-opacity="0.333333" points="1141.6955,-475.0067 1131.238,-476.7072 1140.4735,-481.8992 1141.6955,-475.0067"/>
</g>
<!-- python3&#45;debug&#45;&gt;python3&#45;tools -->
<g id="edge17" class="edge">
<title>python3&#45;debug&#45;&gt;python3&#45;tools</title>
<path fill="none" stroke="#444444" stroke-opacity="0.333333" d="M1219.6723,-474.303C1219.6199,-440.0289 1219.5056,-365.4025 1219.4431,-324.537"/>
<polygon fill="#444444" fill-opacity="0.333333" stroke="#444444" stroke-opacity="0.333333" points="1222.943,-324.4378 1219.4276,-314.4433 1215.943,-324.4486 1222.943,-324.4378"/>
</g>
<!-- python3&#45;debug&#45;&gt;tk -->
<g id="edge18" class="edge">
<title>python3&#45;debug&#45;&gt;tk</title>
<path fill="none" stroke="#444444" stroke-opacity="0.333333" d="M1139.1358,-479.8078C1069.8617,-468.9888 973.0716,-453.8724 920.6523,-445.6857"/>
<polygon fill="#444444" fill-opacity="0.333333" stroke="#444444" stroke-opacity="0.333333" points="920.8939,-442.1811 910.4735,-444.0961 919.8137,-449.0973 920.8939,-442.1811"/>
</g>
<!-- python3&#45;devel&#45;&gt;python3&#45;rpm&#45;generators -->
<g id="edge19" class="edge">
<title>python3&#45;devel&#45;&gt;python3&#45;rpm&#45;generators</title>
<path fill="none" stroke="#444444" stroke-opacity="0.333333" d="M1605.1589,-592.9406C1639.7943,-573.0192 1695.3926,-541.0404 1733.0884,-519.3587"/>
<polygon fill="#444444" fill-opacity="0.333333" stroke="#444444" stroke-opacity="0.333333" points="1734.8659,-522.3741 1741.7892,-514.3542 1731.3757,-516.3062 1734.8659,-522.3741"/>
</g>
<!-- python3&#45;devel&#45;&gt;python3&#45;rpm&#45;macros -->
<g id="edge20" class="edge">
<title>python3&#45;devel&#45;&gt;python3&#45;rpm&#45;macros</title>
<path fill="none" stroke="#444444" stroke-opacity="0.333333" d="M1617.5759,-629.2586C1637.3128,-637.3675 1660.7573,-646.9996 1681.4739,-655.511"/>
<polygon fill="#444444" fill-opacity="0.333333" stroke="#444444" stroke-opacity="0.333333" points="1680.1975,-658.7704 1690.7774,-659.3333 1682.8577,-652.2956 1680.1975,-658.7704"/>
</g>
<!-- python3&#45;devel&#45;&gt;python&#45;rpm&#45;macros -->
<g id="edge21" class="edge">
<title>python3&#45;devel&#45;&gt;python&#45;rpm&#45;macros</title>
<path fill="none" stroke="#444444" stroke-opacity="0.333333" d="M1584.1271,-629.2873C1607.4035,-669.0136 1662.9892,-763.8823 1690.3454,-810.5715"/>
<polygon fill="#444444" fill-opacity="0.333333" stroke="#444444" stroke-opacity="0.333333" points="1687.3471,-812.3776 1695.4223,-819.2363 1693.3867,-808.8388 1687.3471,-812.3776"/>
</g>
<!-- python3&#45;test&#45;&gt;python3&#45;tools -->
<g id="edge22" class="edge">
<title>python3&#45;test&#45;&gt;python3&#45;tools</title>
<path fill="none" stroke="#444444" stroke-opacity="0.333333" d="M1314.3246,-271.5344C1308.9081,-272.9533 1303.4144,-274.3923 1297.9413,-275.826"/>
<polygon fill="#444444" fill-opacity="0.333333" stroke="#444444" stroke-opacity="0.333333" points="1296.9198,-272.4754 1288.1331,-278.3953 1298.6937,-279.247 1296.9198,-272.4754"/>
</g>
<!-- python3&#45;tkinter&#45;&gt;libX11 -->
<g id="edge23" class="edge">
<title>python3&#45;tkinter&#45;&gt;libX11</title>
<path fill="none" stroke="#444444" stroke-opacity="0.333333" d="M1027.7185,-478.6943C1001.054,-517.7693 938.0981,-610.027 906.93,-655.7017"/>
<polygon fill="#444444" fill-opacity="0.333333" stroke="#444444" stroke-opacity="0.333333" points="903.886,-653.9531 901.1404,-664.186 909.6681,-657.8987 903.886,-653.9531"/>
</g>
<!-- python3&#45;tkinter&#45;&gt;tk -->
<g id="edge24" class="edge">
<title>python3&#45;tkinter&#45;&gt;tk</title>
<path fill="none" stroke="#444444" stroke-opacity="0.333333" d="M948.9179,-448.5145C938.9583,-447.1999 929.2823,-445.9228 920.5569,-444.7711"/>
<polygon fill="#444444" fill-opacity="0.333333" stroke="#444444" stroke-opacity="0.333333" points="920.8022,-441.2732 910.4301,-443.4344 919.8861,-448.213 920.8022,-441.2732"/>
</g>
<!-- python3&#45;tools&#45;&gt;python3&#45;tkinter -->
<g id="edge25" class="edge">
<title>python3&#45;tools&#45;&gt;python3&#45;tkinter</title>
<path fill="none" stroke="#444444" stroke-opacity="0.333333" d="M1199.5267,-314.5941C1167.4001,-344.0061 1103.9871,-402.0611 1067.5646,-435.406"/>
<polygon fill="#444444" fill-opacity="0.333333" stroke="#444444" stroke-opacity="0.333333" points="1064.8015,-433.1904 1059.789,-442.5246 1069.5283,-438.3535 1064.8015,-433.1904"/>
</g>
<!-- tk&#45;&gt;fontconfig -->
<g id="edge26" class="edge">
<title>tk&#45;&gt;fontconfig</title>
<path fill="none" stroke="#444444" stroke-opacity="0.333333" d="M861.5701,-421.6353C819.7528,-386.644 728.1986,-310.0344 681.1025,-270.6259"/>
<polygon fill="#444444" fill-opacity="0.333333" stroke="#444444" stroke-opacity="0.333333" points="683.3087,-267.9083 673.3934,-264.1752 678.8165,-273.2768 683.3087,-267.9083"/>
</g>
<!-- tk&#45;&gt;libX11 -->
<g id="edge27" class="edge">
<title>tk&#45;&gt;libX11</title>
<path fill="none" stroke="#444444" stroke-opacity="0.333333" d="M883.7596,-458.0801C884.7029,-500.0358 887.0339,-603.7137 888.1646,-654.0062"/>
<polygon fill="#444444" fill-opacity="0.333333" stroke="#444444" stroke-opacity="0.333333" points="884.6691,-654.2503 888.393,-664.1691 891.6673,-654.0929 884.6691,-654.2503"/>
</g>
<!-- tk&#45;&gt;libXft -->
<g id="edge28" class="edge">
<title>tk&#45;&gt;libXft</title>
<path fill="none" stroke="#444444" stroke-opacity="0.333333" d="M856.1701,-449.9801C824.4245,-461.8002 771.1747,-481.627 731.2636,-496.4874"/>
<polygon fill="#444444" fill-opacity="0.333333" stroke="#444444" stroke-opacity="0.333333" points="729.8331,-493.2853 721.6829,-500.0547 732.2757,-499.8453 729.8331,-493.2853"/>
</g>
<!-- aajohan&#45;comfortaa&#45;fonts -->
<g id="node1" class="node">
<title>aajohan&#45;comfortaa&#45;fonts</title>
<text text-anchor="middle" x="502.51" y="-79.049" font-family="monospace" font-size="14.00" fill="#000000">aajohan&#45;comfortaa&#45;fonts</text>
</g>
<!-- fontpackages&#45;filesystem -->
<g id="node2" class="node">
<title>fontpackages&#45;filesystem</title>
<text text-anchor="middle" x="637.33" y="-14.3" font-family="monospace" font-size="14.00" fill="#000000">fontpackages&#45;filesystem</text>
</g>
<!-- curl&#45;minimal -->
<g id="node3" class="node">
<title>curl&#45;minimal</title>
<text text-anchor="middle" x="266.77" y="-840.31" font-family="monospace" font-size="14.00" fill="#000000">curl&#45;minimal</text>
</g>
<!-- libcurl&#45;minimal -->
<g id="node4" class="node">
<title>libcurl&#45;minimal</title>
<text text-anchor="middle" x="90.992" y="-875.85" font-family="monospace" font-size="14.00" fill="#000000">libcurl&#45;minimal</text>
</g>
<!-- fontconfig -->
<g id="node5" class="node">
<title>fontconfig</title>
<text text-anchor="middle" x="651.84" y="-242.44" font-family="monospace" font-size="14.00" fill="#000000">fontconfig</text>
</g>
<!-- libX11 -->
<g id="node6" class="node">
<title>libX11</title>
<text text-anchor="middle" x="888.8" y="-678.57" font-family="monospace" font-size="14.00" fill="#000000">libX11</text>
</g>
<!-- libX11&#45;common -->
<g id="node7" class="node">
<title>libX11&#45;common</title>
<text text-anchor="middle" x="977.5" y="-894.11" font-family="monospace" font-size="14.00" fill="#000000">libX11&#45;common</text>
</g>
<!-- libxcb -->
<g id="node8" class="node">
<title>libxcb</title>
<text text-anchor="middle" x="898.47" y="-1045.7" font-family="monospace" font-size="14.00" fill="#000000">libxcb</text>
</g>
<!-- libXau -->
<g id="node9" class="node">
<title>libXau</title>
<text text-anchor="middle" x="994.9" y="-1267.1" font-family="monospace" font-size="14.00" fill="#000000">libXau</text>
</g>
<!-- libXft -->
<g id="node10" class="node">
<title>libXft</title>
<text text-anchor="middle" x="678.67" y="-512.37" font-family="monospace" font-size="14.00" fill="#000000">libXft</text>
</g>
<!-- libXrender -->
<g id="node11" class="node">
<title>libXrender</title>
<text text-anchor="middle" x="548.57" y="-723.74" font-family="monospace" font-size="14.00" fill="#000000">libXrender</text>
</g>
<!-- python3&#45;debug -->
<g id="node12" class="node">
<title>python3&#45;debug</title>
<text text-anchor="middle" x="1219.7" y="-488.69" font-family="monospace" font-size="14.00" fill="#000000">python3&#45;debug</text>
</g>
<!-- python3&#45;devel -->
<g id="node13" class="node">
<title>python3&#45;devel</title>
<text text-anchor="middle" x="1573.5" y="-607.45" font-family="monospace" font-size="14.00" fill="#000000">python3&#45;devel</text>
</g>
<!-- python3&#45;test -->
<g id="node14" class="node">
<title>python3&#45;test</title>
<text text-anchor="middle" x="1383.4" y="-249.74" font-family="monospace" font-size="14.00" fill="#000000">python3&#45;test</text>
</g>
<!-- python3&#45;tkinter -->
<g id="node15" class="node">
<title>python3&#45;tkinter</title>
<text text-anchor="middle" x="1040.1" y="-456.85" font-family="monospace" font-size="14.00" fill="#000000">python3&#45;tkinter</text>
</g>
<!-- python3&#45;tools -->
<g id="node16" class="node">
<title>python3&#45;tools</title>
<text text-anchor="middle" x="1219.4" y="-292.7" font-family="monospace" font-size="14.00" fill="#000000">python3&#45;tools</text>
</g>
<!-- tk -->
<g id="node17" class="node">
<title>tk</title>
<text text-anchor="middle" x="883.35" y="-436.16" font-family="monospace" font-size="14.00" fill="#000000">tk</text>
</g>
<!-- python3&#45;rpm&#45;generators -->
<g id="node18" class="node">
<title>python3&#45;rpm&#45;generators</title>
<text text-anchor="middle" x="1773.3" y="-492.53" font-family="monospace" font-size="14.00" fill="#000000">python3&#45;rpm&#45;generators</text>
</g>
<!-- python3&#45;rpm&#45;macros -->
<g id="node19" class="node">
<title>python3&#45;rpm&#45;macros</title>
<text text-anchor="middle" x="1734.8" y="-673.72" font-family="monospace" font-size="14.00" fill="#000000">python3&#45;rpm&#45;macros</text>
</g>
<!-- python&#45;rpm&#45;macros -->
<g id="node20" class="node">
<title>python&#45;rpm&#45;macros</title>
<text text-anchor="middle" x="1706.1" y="-833.76" font-family="monospace" font-size="14.00" fill="#000000">python&#45;rpm&#45;macros</text>
</g>
</g>
</svg>
