<?xml version="1.0" encoding="UTF-8" standalone="no"?>
<!DOCTYPE svg PUBLIC "-//W3C//DTD SVG 1.1//EN"
 "http://www.w3.org/Graphics/SVG/1.1/DTD/svg11.dtd">
<!-- Generated by graphviz version 2.40.1 (20161225.0304)
 -->
<!-- Title: G Pages: 1 -->
<svg width="1274pt" height="783pt"
 viewBox="0.00 0.00 1273.65 783.19" xmlns="http://www.w3.org/2000/svg" xmlns:xlink="http://www.w3.org/1999/xlink">
<g id="graph0" class="graph" transform="scale(1 1) rotate(0) translate(75.291 671.0994)">
<title>G</title>
<polygon fill="#dae2ff" stroke="transparent" points="-75.291,112.095 -75.291,-671.0994 1198.3635,-671.0994 1198.3635,112.095 -75.291,112.095"/>
<polygon fill="#bbd7d9" stroke="#bbd7d9" points="406.2596,-278.692 432.7652,-236.3668 454.5847,-208.4411 371.7669,-222.9221 368.0587,-226.7197 366.2296,-227.468 369.3196,-153.5889 360.6219,-154.0443 361.296,-226.7013 356.0815,-223.7378 350.7484,-223.7378 350.7484,-223.7378 356.0815,-223.7378 352.842,-154.4089 348.2116,-154.4598 345.8544,-154.2904 335.9034,-154.3998 335.5848,-154.4297 335.7889,-163.1929 335.7889,-163.1929 335.5848,-154.4297 335.9034,-154.3998 345.8544,-154.2904 348.2116,-154.4598 352.842,-154.4089 356.0815,-223.7378 361.296,-226.7013 360.6219,-154.0443 369.3196,-153.5889 366.2296,-227.468 368.0587,-226.7197 371.7669,-222.9221 454.5847,-208.4411 458.6694,-203.6015 477.7325,-177.9005 483.2802,-169.1633 461.1708,-141.4641 456.5852,-80.255 457.4573,-23.8462 447.5166,-3.5844 434.5949,10.3916 362.8362,29.0235 354.2025,-73.8315 349.978,-76.6453 347.8446,-80.3562 344.5232,-80.3562 342.9527,-82.28 338.899,-84.6083 338.899,-84.6083 342.9527,-82.28 344.5232,-80.3562 343.0927,-78.5625 338.6416,-75.9169 332.9369,-75.9169 332.9369,-75.9169 338.6416,-75.9169 343.0927,-78.5625 344.5232,-80.3562 347.8446,-80.3562 349.978,-76.6453 354.2025,-73.8315 362.8362,29.0235 343.7167,34.5385 342.1637,34.857 334.8408,36.7494 323.4311,40.6235 320.9141,40.1672 318.1434,39.7336 312.1881,37.5138 252.2859,16.8546 236.3202,5.5314 212.0622,-17.0493 139.4586,-6.2276 130.5306,-4.6472 120.7185,-2.6369 111.1038,-.1332 104.0629,1.0894 102.602,1.3815 102.2713,-37.3113 95.8711,-110.0426 99.7313,-113.6082 101.5254,-113.6082 102.0928,-113.7836 106.6564,-113.7836 109.1752,-169.2282 109.1672,-169.9111 100.2269,-177.8018 89.263,-189.55 132.6223,-189.55 132.6223,-189.55 89.263,-189.55 100.2269,-177.8018 109.1672,-169.9111 109.1752,-169.2282 106.6564,-113.7836 102.0928,-113.7836 101.5254,-113.6082 99.7313,-113.6082 95.8711,-110.0426 90.8117,-108.5649 86.1868,-109.883 82.0144,-113.6688 85.1086,-116.4271 85.1086,-116.4271 82.0144,-113.6688 86.1868,-109.883 90.8117,-108.5649 95.8711,-110.0426 102.2713,-37.3113 102.602,1.3815 95.5582,3.3536 75.3078,9.57 70.4754,11.5647 62.4494,7.4715 39.203,-2.3553 -38.0983,-32.6682 -45.046,-54.6638 -49.4523,-81.6913 -56.3918,-117.1107 -62.8225,-145.4213 -71.291,-178.4164 -19.6146,-222.6258 43.1152,-243.7487 48.9761,-251.2766 158.9418,-346.4071 159.4882,-346.4475 175.728,-348.2451 194.4664,-351.6969 197.8159,-352.3751 212.319,-355.8447 215.021,-356.5898 218.5543,-353.7988 231.9046,-343.9861 233.1878,-343.0791 335.2713,-318.9072 337.6584,-318.4242 341.4417,-317.788 352.6932,-316.2802 361.5564,-315.7026 365.9009,-315.5691 371.9347,-315.175 372.0138,-315.1725 378.5811,-315.197 379.7369,-315.1216 383.3461,-310.8454 406.2596,-278.692 406.2596,-278.692"/>
<polygon fill="#fed9a6" stroke="#fed9a6" points="237.7496,-412.998 221.2934,-371.5079 215.021,-356.5898 218.5543,-353.7988 231.9046,-343.9861 233.1878,-343.0791 335.2713,-318.9072 337.6584,-318.4242 341.4417,-317.788 352.6932,-316.2802 361.5564,-315.7026 365.9009,-315.5691 371.9347,-315.175 372.0138,-315.1725 378.5811,-315.197 379.7369,-315.1216 383.3461,-310.8454 406.2596,-278.692 432.7652,-236.3668 454.5847,-208.4411 458.6694,-203.6015 477.7325,-177.9005 483.2802,-169.1633 488.7504,-171.0043 489.0541,-221.8241 486.5185,-296.4212 482.0184,-293.814 475.9634,-293.814 469.2825,-297.9519 469.2198,-298.0226 470.0948,-299.0244 470.0948,-299.0244 469.2198,-298.0226 469.2825,-297.9519 475.9634,-293.814 482.0184,-293.814 486.5185,-296.4212 489.0541,-221.8241 488.7504,-171.0043 504.263,-175.4508 559.9115,-189.9886 609.9883,-179.3803 613.3038,-178.5982 635.4435,-171.752 692.019,-152.9124 709.1376,-180.9045 709.4965,-181.5522 698.8531,-216.5612 672.618,-295.5547 668.6216,-311.2715 667.135,-327.4579 664.3828,-338.3509 657.6773,-358.541 654.1915,-359.4987 645.195,-361.462 636.745,-362.3474 635.4305,-362.4107 628.4342,-362.352 626.0191,-362.47 621.2407,-362.4324 622.5206,-309.8173 622.2806,-309.4614 623.7407,-303.8597 622.8774,-303.1102 617.1011,-301.3567 617.1011,-301.3567 622.8774,-303.1102 623.7407,-303.8597 622.2806,-309.4614 622.5206,-309.8173 621.2407,-362.4324 620.0464,-362.4912 619.6899,-362.5292 608.8498,-363.0692 606.348,-363.336 602.2713,-364.0034 597.5863,-370.9786 591.9601,-382.4522 577.4961,-418.89 551.6422,-457.3827 550.9496,-458.4998 550.6521,-459.0207 615.5502,-514.5335 622.0145,-520.4189 632.1752,-529.0753 637.3123,-533.9443 646.039,-541.7577 646.3378,-542.0381 654.7184,-568.2507 651.7937,-572.1543 593.3626,-654.324 526.0848,-652.1541 513.9739,-652.3964 501.5151,-653.2968 496.9001,-653.8709 486.5346,-655.4315 486.0905,-655.5215 472.6167,-658.6093 461.2079,-661.8223 459.3576,-662.3915 453.4777,-662.7253 454.719,-584.1083 454.719,-584.1083 453.4777,-662.7253 411.6148,-667.0994 410.8348,-667.0473 323.8699,-569.0259 310.0592,-540.8245 309.3157,-539.4579 309.1546,-539.1762 274.6475,-519.8016 240.2362,-419.715 371.1584,-408.1689 373.0796,-435.9697 378.0494,-402.5854 382.2114,-402.5854 381.0823,-491.395 393.614,-484.5635 403.3196,-480.5854 411.7115,-477.5215 419.4893,-475.0352 418.8093,-457.9983 418.8093,-457.9983 419.4893,-475.0352 411.7115,-477.5215 408.5852,-404.1816 410.1236,-402.3705 409.8367,-402.0356 409.8367,-402.0356 410.1236,-402.3705 408.5852,-404.1816 403.556,-407.0698 398.5225,-407.0698 398.5225,-407.0698 403.556,-407.0698 408.5852,-404.1816 411.7115,-477.5215 403.3196,-480.5854 393.614,-484.5635 381.0823,-491.395 382.2114,-402.5854 378.0494,-402.5854 373.0796,-435.9697 371.1584,-408.1689 240.2362,-419.715 237.7496,-412.998 237.7496,-412.998"/>
<polygon fill="#d8d6da" stroke="#d8d6da" points="551.6422,-457.3827 577.4961,-418.89 591.9601,-382.4522 597.5863,-370.9786 602.2713,-364.0034 606.348,-363.336 608.8498,-363.0692 619.6899,-362.5292 620.0464,-362.4912 621.2407,-362.4324 626.0191,-362.47 628.4342,-362.352 635.4305,-362.4107 636.745,-362.3474 645.195,-361.462 654.1915,-359.4987 657.6773,-358.541 664.3828,-338.3509 667.135,-327.4579 668.6216,-311.2715 672.618,-295.5547 698.8531,-216.5612 709.4965,-181.5522 720.0297,-191.5742 727.1036,-197.7695 741.8468,-209.5954 743.6825,-210.9291 750.0668,-215.3364 765.1488,-224.6643 775.0779,-230.0717 785.7313,-235.0906 851.6438,-263.6877 859.5459,-267.4073 864.3035,-269.8197 867.7739,-271.8362 882.8534,-299.6451 887.3469,-307.348 898.5443,-311.2585 906.9313,-313.6799 912.6451,-315.1565 957.7459,-325.4465 965.9919,-327.5753 973.7252,-330.0354 976.3273,-330.9411 981.7744,-333.0022 988.6344,-335.806 1001.7371,-341.5564 1013.6251,-348.2117 1022.3096,-353.3386 1031.1432,-358.8187 1039.6077,-364.5759 1041.0526,-392.0516 1027.222,-418.4 957.3541,-418.4 939.6056,-419.6086 911.0515,-424.7828 911.0515,-424.7828 939.6056,-419.6086 957.3541,-418.4 1027.222,-418.4 985.1247,-516.7984 961.5268,-539.3625 920.9123,-552.8091 920.0673,-553.5975 868.7959,-590.4448 860.3875,-594.5875 823.6611,-595.572 808.6168,-596.3159 806.5874,-595.4902 806.7898,-571.3997 813.3168,-471.1963 811.1417,-467.8093 812.9111,-466.4067 813.0612,-466.1313 812.574,-432.8659 816.8439,-435.9291 818.501,-461.4559 857.7472,-464.8299 861.5706,-468.8957 864.5538,-471.2598 875.0571,-481.9288 873.1663,-423.0197 878.2088,-423.0197 884.3702,-419.1716 884.9912,-418.4128 884.0295,-417.2341 878.8173,-414.0551 878.8173,-414.0551 884.0295,-417.2341 884.9912,-418.4128 884.3702,-419.1716 878.2088,-423.0197 873.1663,-423.0197 875.0571,-481.9288 864.5538,-471.2598 861.5706,-468.8957 857.7472,-464.8299 818.501,-461.4559 816.8439,-435.9291 812.574,-432.8659 813.0612,-466.1313 812.9111,-466.4067 811.1417,-467.8093 813.3168,-471.1963 806.7898,-571.3997 806.5874,-595.4902 798.1191,-592.6972 788.0803,-589.6422 779.8904,-587.3613 779.78,-587.3362 775.1169,-470.6606 780.7336,-472.4023 786.444,-470.6354 789.6588,-467.7578 786.0479,-464.4464 780.8962,-462.8793 780.8962,-462.8793 786.0479,-464.4464 789.6588,-467.7578 786.444,-470.6354 780.7336,-472.4023 775.1169,-470.6606 779.78,-587.3362 766.5933,-584.677 764.718,-584.4423 753.1581,-581.9644 752.8252,-581.9019 736.2158,-579.2209 654.7184,-568.2507 646.3378,-542.0381 646.039,-541.7577 637.0809,-418.9519 637.9104,-418.7013 642.327,-418.7013 642.806,-418.8489 648.4754,-418.8489 647.8741,-539.044 649.2194,-536.6005 653.2993,-475.322 659.7878,-422.5698 664.0382,-423.7934 670.1083,-421.9275 673.5196,-418.868 670.0641,-415.7841 664.5718,-414.112 664.5718,-414.112 670.0641,-415.7841 673.5196,-418.868 670.1083,-421.9275 664.0382,-423.7934 659.7878,-422.5698 653.2993,-475.322 649.2194,-536.6005 647.8741,-539.044 648.4754,-418.8489 642.806,-418.8489 642.327,-418.7013 637.9104,-418.7013 637.0809,-418.9519 646.039,-541.7577 637.3123,-533.9443 632.1752,-529.0753 622.0145,-520.4189 615.5502,-514.5335 550.6521,-459.0207 550.9496,-458.4998 551.6422,-457.3827 551.6422,-457.3827"/>
<polygon fill="#fbb4ae" stroke="#fbb4ae" points="1070.1925,-70.5806 1075.8505,1.4573 1075.7507,37.8852 1144.4971,35.4007 1160.1276,31.9746 1186.5239,-5.3482 1193.806,-44.0744 1194.3635,-46.6493 1188.8497,-83.4544 1186.6421,-107.548 1152.7852,-163.0791 1159.5842,-214.9893 1162.8577,-232.1478 1161.7059,-235.2746 1142.1675,-293.3915 1052.2671,-354.8644 1046.1254,-359.2618 1039.6077,-364.5759 1031.1432,-358.8187 1022.3096,-353.3386 1013.6251,-348.2117 1001.7371,-341.5564 1001.7849,-336.649 1003.8277,-302.841 1011.465,-224.7041 1014.6572,-221.9529 1010.5366,-218.1984 1010.5366,-218.1984 1014.6572,-221.9529 1011.465,-224.7041 1003.8277,-302.841 1001.7849,-336.649 1001.7371,-341.5564 988.6344,-335.806 981.7744,-333.0022 976.3273,-330.9411 973.7252,-330.0354 965.9919,-327.5753 957.7459,-325.4465 912.6451,-315.1565 906.9313,-313.6799 898.5443,-311.2585 887.3469,-307.348 882.8534,-299.6451 867.7739,-271.8362 864.3035,-269.8197 859.5459,-267.4073 851.6438,-263.6877 785.7313,-235.0906 775.0779,-230.0717 765.1488,-224.6643 750.0668,-215.3364 743.6825,-210.9291 741.8468,-209.5954 727.1036,-197.7695 720.0297,-191.5742 709.4965,-181.5522 709.1376,-180.9045 692.019,-152.9124 693.2966,-148.7427 700.3902,-137.4202 709.3687,-122.4241 714.5497,-27.9628 714.4463,1.9397 713.5781,28.5792 750.9971,79.5576 813.6973,101.5323 826.8156,106.4734 830.603,108.095 841.2687,104.8751 839.7479,47.3361 840.9893,-17.7847 841.7491,-18.003 845.1047,-18.003 845.2469,-17.9623 845.2469,-17.9623 845.1047,-18.003 841.7491,-18.003 840.9893,-17.7847 839.7479,47.3361 841.2687,104.8751 847.5168,103.2913 862.4899,100.2133 866.3949,99.5992 872.1633,98.8303 873.5236,19.5192 871.1756,-13.2746 866.3512,-14.6618 862.2714,-18.1802 865.7496,-21.0629 865.7496,-21.0629 862.2714,-18.1802 866.3512,-14.6618 871.1756,-13.2746 873.5236,19.5192 872.1633,98.8303 884.4624,97.7798 894.9524,97.3874 899.0439,97.3325 909.6826,97.7001 910.5232,97.7493 915.668,98.1738 918.9425,97.5192 919.4706,42.9365 917.1086,-17.122 916.1353,-17.9083 912.4603,-17.9083 912.1287,-18.0049 907.001,-18.0049 906.2245,-18.2281 902.9773,-18.2281 902.4543,-18.0783 902.4543,-18.0783 902.9773,-18.2281 906.2245,-18.2281 907.001,-18.0049 912.1287,-18.0049 912.4603,-17.9083 916.1353,-17.9083 917.1086,-17.122 919.4706,42.9365 918.9425,97.5192 987.4315,87.2096 1019.8846,50.2406 1021.5106,49.5894 1031.0631,46.5138 1033.827,45.696 1039.7645,44.093 1049.189,41.7933 1050.4342,41.5544 1058.8287,40.1596 1071.9954,38.3134 1075.7507,37.8852 1075.8505,1.4573 1070.1925,-70.5806 1065.1592,-70.5806 1065.1025,-70.5967 1060.7391,-70.5967 1060.7255,-70.6005 1055.8707,-70.6005 1054.9359,-70.8669 1059.0851,-146.2479 1050.3582,-146.4888 1050.2755,-71.0315 1046.4304,-71.0315 1041.7324,-102.3871 1040.1134,-146.2525 1038.2404,-146.2945 1034.3815,-70.7676 1030.5555,-70.7676 1029.5824,-70.4865 1028.4388,-70.4865 1024.8077,-67.4039 1019.4453,-65.8464 1013.5686,-67.5644 1009.9208,-70.5643 1009.8322,-70.5392 1002.4725,21.3816 1002.4563,21.3565 995.0305,11.2974 992.5339,7.588 989.6959,3.6926 989.6959,3.6926 992.5339,7.588 995.0305,11.2974 1002.4563,21.3565 1002.4725,21.3816 1009.8322,-70.5392 1004.4772,-70.5392 1004.4772,-70.5392 1009.8322,-70.5392 1009.9208,-70.5643 1013.5686,-67.5644 1019.4453,-65.8464 1024.8077,-67.4039 1028.4388,-70.4865 1029.5824,-70.4865 1030.5555,-70.7676 1034.3815,-70.7676 1038.2404,-146.2945 1040.1134,-146.2525 1041.7324,-102.3871 1046.4304,-71.0315 1050.2755,-71.0315 1050.3582,-146.4888 1059.0851,-146.2479 1054.9359,-70.8669 1055.8707,-70.6005 1060.7255,-70.6005 1060.7391,-70.5967 1065.1025,-70.5967 1065.1592,-70.5806 1070.1925,-70.5806 1070.1925,-70.5806"/>
<polyline fill="none" stroke="#000000" points="194.4664,-351.6969 197.8159,-352.3751 212.319,-355.8447 215.021,-356.5898 218.5543,-353.7988 231.9046,-343.9861 233.1878,-343.0791 335.2713,-318.9072 337.6584,-318.4242 341.4417,-317.788 352.6932,-316.2802 361.5564,-315.7026 365.9009,-315.5691 371.9347,-315.175 372.0138,-315.1725 378.5811,-315.197 379.7369,-315.1216 383.3461,-310.8454 406.2596,-278.692 432.7652,-236.3668 454.5847,-208.4411 458.6694,-203.6015 477.7325,-177.9005 483.2802,-169.1633 461.1708,-141.4641 456.5852,-80.255 457.4573,-23.8462 447.5166,-3.5844 434.5949,10.3916 362.8362,29.0235 343.7167,34.5385 342.1637,34.857 334.8408,36.7494 323.4311,40.6235 320.9141,40.1672 318.1434,39.7336 312.1881,37.5138 252.2859,16.8546 236.3202,5.5314 212.0622,-17.0493 139.4586,-6.2276 130.5306,-4.6472 120.7185,-2.6369 111.1038,-.1332 104.0629,1.0894 102.602,1.3815 95.5582,3.3536 75.3078,9.57 70.4754,11.5647 62.4494,7.4715 39.203,-2.3553 -38.0983,-32.6682 -45.046,-54.6638 -49.4523,-81.6913 -56.3918,-117.1107 -62.8225,-145.4213 -71.291,-178.4164 -19.6146,-222.6258 43.1152,-243.7487 48.9761,-251.2766 158.9418,-346.4071 159.4882,-346.4475 175.728,-348.2451 194.4664,-351.6969 "/>
<polyline fill="none" stroke="#000000" points="550.6521,-459.0207 615.5502,-514.5335 622.0145,-520.4189 632.1752,-529.0753 637.3123,-533.9443 646.039,-541.7577 646.3378,-542.0381 654.7184,-568.2507 651.7937,-572.1543 593.3626,-654.324 526.0848,-652.1541 513.9739,-652.3964 501.5151,-653.2968 496.9001,-653.8709 486.5346,-655.4315 486.0905,-655.5215 472.6167,-658.6093 461.2079,-661.8223 459.3576,-662.3915 453.4777,-662.7253 411.6148,-667.0994 410.8348,-667.0473 323.8699,-569.0259 310.0592,-540.8245 309.3157,-539.4579 309.1546,-539.1762 274.6475,-519.8016 240.2362,-419.715 237.7496,-412.998 221.2934,-371.5079 215.021,-356.5898 218.5543,-353.7988 231.9046,-343.9861 233.1878,-343.0791 335.2713,-318.9072 337.6584,-318.4242 341.4417,-317.788 352.6932,-316.2802 361.5564,-315.7026 365.9009,-315.5691 371.9347,-315.175 372.0138,-315.1725 378.5811,-315.197 379.7369,-315.1216 383.3461,-310.8454 406.2596,-278.692 432.7652,-236.3668 454.5847,-208.4411 458.6694,-203.6015 477.7325,-177.9005 483.2802,-169.1633 488.7504,-171.0043 504.263,-175.4508 559.9115,-189.9886 609.9883,-179.3803 613.3038,-178.5982 635.4435,-171.752 692.019,-152.9124 709.1376,-180.9045 709.4965,-181.5522 698.8531,-216.5612 672.618,-295.5547 668.6216,-311.2715 667.135,-327.4579 664.3828,-338.3509 657.6773,-358.541 654.1915,-359.4987 645.195,-361.462 636.745,-362.3474 635.4305,-362.4107 628.4342,-362.352 626.0191,-362.47 621.2407,-362.4324 620.0464,-362.4912 619.6899,-362.5292 608.8498,-363.0692 606.348,-363.336 602.2713,-364.0034 597.5863,-370.9786 591.9601,-382.4522 577.4961,-418.89 551.6422,-457.3827 550.9496,-458.4998 550.6521,-459.0207 "/>
<polyline fill="none" stroke="#000000" points="743.6825,-210.9291 741.8468,-209.5954 727.1036,-197.7695 720.0297,-191.5742 709.4965,-181.5522 698.8531,-216.5612 672.618,-295.5547 668.6216,-311.2715 667.135,-327.4579 664.3828,-338.3509 657.6773,-358.541 654.1915,-359.4987 645.195,-361.462 636.745,-362.3474 635.4305,-362.4107 628.4342,-362.352 626.0191,-362.47 621.2407,-362.4324 620.0464,-362.4912 619.6899,-362.5292 608.8498,-363.0692 606.348,-363.336 602.2713,-364.0034 597.5863,-370.9786 591.9601,-382.4522 577.4961,-418.89 551.6422,-457.3827 550.9496,-458.4998 550.6521,-459.0207 615.5502,-514.5335 622.0145,-520.4189 632.1752,-529.0753 637.3123,-533.9443 646.039,-541.7577 646.3378,-542.0381 654.7184,-568.2507 736.2158,-579.2209 752.8252,-581.9019 753.1581,-581.9644 764.718,-584.4423 766.5933,-584.677 779.78,-587.3362 779.8904,-587.3613 788.0803,-589.6422 798.1191,-592.6972 806.5874,-595.4902 808.6168,-596.3159 823.6611,-595.572 860.3875,-594.5875 868.7959,-590.4448 920.0673,-553.5975 920.9123,-552.8091 961.5268,-539.3625 985.1247,-516.7984 1027.222,-418.4 1041.0526,-392.0516 1039.6077,-364.5759 1031.1432,-358.8187 1022.3096,-353.3386 1013.6251,-348.2117 1001.7371,-341.5564 988.6344,-335.806 981.7744,-333.0022 976.3273,-330.9411 973.7252,-330.0354 965.9919,-327.5753 957.7459,-325.4465 912.6451,-315.1565 906.9313,-313.6799 898.5443,-311.2585 887.3469,-307.348 882.8534,-299.6451 867.7739,-271.8362 864.3035,-269.8197 859.5459,-267.4073 851.6438,-263.6877 785.7313,-235.0906 775.0779,-230.0717 765.1488,-224.6643 750.0668,-215.3364 743.6825,-210.9291 "/>
<polyline fill="none" stroke="#000000" points="882.8534,-299.6451 887.3469,-307.348 898.5443,-311.2585 906.9313,-313.6799 912.6451,-315.1565 957.7459,-325.4465 965.9919,-327.5753 973.7252,-330.0354 976.3273,-330.9411 981.7744,-333.0022 988.6344,-335.806 1001.7371,-341.5564 1013.6251,-348.2117 1022.3096,-353.3386 1031.1432,-358.8187 1039.6077,-364.5759 1046.1254,-359.2618 1052.2671,-354.8644 1142.1675,-293.3915 1161.7059,-235.2746 1162.8577,-232.1478 1159.5842,-214.9893 1152.7852,-163.0791 1186.6421,-107.548 1188.8497,-83.4544 1194.3635,-46.6493 1193.806,-44.0744 1186.5239,-5.3482 1160.1276,31.9746 1144.4971,35.4007 1075.7507,37.8852 1071.9954,38.3134 1058.8287,40.1596 1050.4342,41.5544 1049.189,41.7933 1039.7645,44.093 1033.827,45.696 1031.0631,46.5138 1021.5106,49.5894 1019.8846,50.2406 987.4315,87.2096 918.9425,97.5192 915.668,98.1738 910.5232,97.7493 909.6826,97.7001 899.0439,97.3325 894.9524,97.3874 884.4624,97.7798 872.1633,98.8303 866.3949,99.5992 862.4899,100.2133 847.5168,103.2913 841.2687,104.8751 830.603,108.095 826.8156,106.4734 813.6973,101.5323 750.9971,79.5576 713.5781,28.5792 714.4463,1.9397 714.5497,-27.9628 709.3687,-122.4241 700.3902,-137.4202 693.2966,-148.7427 692.019,-152.9124 709.1376,-180.9045 709.4965,-181.5522 720.0297,-191.5742 727.1036,-197.7695 741.8468,-209.5954 743.6825,-210.9291 750.0668,-215.3364 765.1488,-224.6643 775.0779,-230.0717 785.7313,-235.0906 851.6438,-263.6877 859.5459,-267.4073 864.3035,-269.8197 867.7739,-271.8362 882.8534,-299.6451 "/>
<!-- curl&#45;minimal&#45;&gt;libcurl&#45;minimal -->
<g id="edge1" class="edge">
<title>curl&#45;minimal&#45;&gt;libcurl&#45;minimal</title>
<path fill="none" stroke="#444444" stroke-opacity="0.333333" d="M169.0163,-171.5485C155.4886,-161.4998 138.4495,-148.8427 123.7479,-137.922"/>
<polygon fill="#444444" fill-opacity="0.333333" stroke="#444444" stroke-opacity="0.333333" points="125.5208,-134.879 115.4061,-131.7255 121.3466,-140.4983 125.5208,-134.879"/>
</g>
<!-- libX11&#45;&gt;libX11&#45;common -->
<g id="edge2" class="edge">
<title>libX11&#45;&gt;libX11&#45;common</title>
<path fill="none" stroke="#444444" stroke-opacity="0.333333" d="M527.4638,-392.9043C520.1718,-421.7516 505.8264,-478.5021 497.2149,-512.5695"/>
<polygon fill="#444444" fill-opacity="0.333333" stroke="#444444" stroke-opacity="0.333333" points="493.7981,-511.8051 494.7406,-522.3579 500.5846,-513.5207 493.7981,-511.8051"/>
</g>
<!-- libX11&#45;&gt;libxcb -->
<g id="edge3" class="edge">
<title>libX11&#45;&gt;libxcb</title>
<path fill="none" stroke="#444444" stroke-opacity="0.333333" d="M509.7314,-356.6157C477.8311,-330.475 419.0687,-282.3223 383.3169,-253.0256"/>
<polygon fill="#444444" fill-opacity="0.333333" stroke="#444444" stroke-opacity="0.333333" points="385.1409,-249.9953 375.1877,-246.3642 380.7041,-255.4096 385.1409,-249.9953"/>
</g>
<!-- libxcb&#45;&gt;curl&#45;minimal -->
<g id="edge4" class="edge">
<title>libxcb&#45;&gt;curl&#45;minimal</title>
<path fill="none" stroke="#444444" stroke-opacity="0.333333" d="M309.9006,-217.8356C299.8122,-215.3893 288.7293,-212.7019 277.5331,-209.987"/>
<polygon fill="#444444" fill-opacity="0.333333" stroke="#444444" stroke-opacity="0.333333" points="278.2302,-206.5547 267.687,-207.5996 276.5805,-213.3576 278.2302,-206.5547"/>
</g>
<!-- libxcb&#45;&gt;libXau -->
<g id="edge5" class="edge">
<title>libxcb&#45;&gt;libXau</title>
<path fill="none" stroke="#444444" stroke-opacity="0.333333" d="M351.0329,-210.1731C348.0399,-184.8619 342.5834,-138.7188 339.0438,-108.7862"/>
<polygon fill="#444444" fill-opacity="0.333333" stroke="#444444" stroke-opacity="0.333333" points="342.4848,-108.0802 337.8346,-98.5604 335.5333,-108.9023 342.4848,-108.0802"/>
</g>
<!-- libXft&#45;&gt;libX11 -->
<g id="edge6" class="edge">
<title>libXft&#45;&gt;libX11</title>
<path fill="none" stroke="#444444" stroke-opacity="0.333333" d="M491.359,-316.2882C497.9956,-325.8514 506.254,-337.7516 513.591,-348.3242"/>
<polygon fill="#444444" fill-opacity="0.333333" stroke="#444444" stroke-opacity="0.333333" points="510.9049,-350.5924 519.4817,-356.8125 516.6557,-346.6014 510.9049,-350.5924"/>
</g>
<!-- libXft&#45;&gt;libXrender -->
<g id="edge7" class="edge">
<title>libXft&#45;&gt;libXrender</title>
<path fill="none" stroke="#444444" stroke-opacity="0.333333" d="M465.1661,-316.2612C452.8474,-332.7642 434.527,-357.3073 420.5884,-375.9805"/>
<polygon fill="#444444" fill-opacity="0.333333" stroke="#444444" stroke-opacity="0.333333" points="417.7068,-373.9898 414.5298,-384.0971 423.3164,-378.1771 417.7068,-373.9898"/>
</g>
<!-- libXrender&#45;&gt;libX11 -->
<g id="edge8" class="edge">
<title>libXrender&#45;&gt;libX11</title>
<path fill="none" stroke="#444444" stroke-opacity="0.333333" d="M465.6715,-388.8063C470.1005,-387.8767 474.5342,-386.9461 478.8917,-386.0314"/>
<polygon fill="#444444" fill-opacity="0.333333" stroke="#444444" stroke-opacity="0.333333" points="479.8154,-389.4139 488.8831,-383.9343 478.3774,-382.5632 479.8154,-389.4139"/>
</g>
<!-- python3&#45;debug&#45;&gt;libX11 -->
<g id="edge9" class="edge">
<title>python3&#45;debug&#45;&gt;libX11</title>
<path fill="none" stroke="#444444" stroke-opacity="0.333333" d="M664.9168,-347.6265C638.2366,-353.0978 609.2477,-359.0427 585.1728,-363.9798"/>
<polygon fill="#444444" fill-opacity="0.333333" stroke="#444444" stroke-opacity="0.333333" points="584.2699,-360.592 575.1769,-366.0297 585.6762,-367.4493 584.2699,-360.592"/>
</g>
<!-- python3&#45;debug&#45;&gt;python3&#45;devel -->
<g id="edge10" class="edge">
<title>python3&#45;debug&#45;&gt;python3&#45;devel</title>
<path fill="none" stroke="#444444" stroke-opacity="0.333333" d="M761.6629,-312.8615C787.2919,-283.6432 837.7092,-226.165 867.0571,-192.7069"/>
<polygon fill="#444444" fill-opacity="0.333333" stroke="#444444" stroke-opacity="0.333333" points="869.7225,-194.9758 873.6856,-185.1501 864.4601,-190.3598 869.7225,-194.9758"/>
</g>
<!-- python3&#45;debug&#45;&gt;python3&#45;test -->
<g id="edge11" class="edge">
<title>python3&#45;debug&#45;&gt;python3&#45;test</title>
<path fill="none" stroke="#444444" stroke-opacity="0.333333" d="M772.7003,-349.1569C792.3565,-362.3314 819.1661,-380.3005 840.5483,-394.6319"/>
<polygon fill="#444444" fill-opacity="0.333333" stroke="#444444" stroke-opacity="0.333333" points="838.7888,-397.666 849.0443,-400.3263 842.6862,-391.8513 838.7888,-397.666"/>
</g>
<!-- python3&#45;debug&#45;&gt;python3&#45;tkinter -->
<g id="edge12" class="edge">
<title>python3&#45;debug&#45;&gt;python3&#45;tkinter</title>
<path fill="none" stroke="#444444" stroke-opacity="0.333333" d="M728.8732,-349.2584C717.1133,-361.9769 701.245,-379.1389 688.2048,-393.2421"/>
<polygon fill="#444444" fill-opacity="0.333333" stroke="#444444" stroke-opacity="0.333333" points="685.5143,-390.9964 681.2952,-400.7149 690.654,-395.7486 685.5143,-390.9964"/>
</g>
<!-- python3&#45;debug&#45;&gt;python3&#45;tools -->
<g id="edge13" class="edge">
<title>python3&#45;debug&#45;&gt;python3&#45;tools</title>
<path fill="none" stroke="#444444" stroke-opacity="0.333333" d="M750.3504,-349.1981C756.2635,-372.2613 766.5373,-412.3324 773.4798,-439.4106"/>
<polygon fill="#444444" fill-opacity="0.333333" stroke="#444444" stroke-opacity="0.333333" points="770.1764,-440.6195 776.0504,-449.4369 776.9571,-438.8809 770.1764,-440.6195"/>
</g>
<!-- python3&#45;debug&#45;&gt;tk -->
<g id="edge14" class="edge">
<title>python3&#45;debug&#45;&gt;tk</title>
<path fill="none" stroke="#444444" stroke-opacity="0.333333" d="M664.9169,-315.4444C661.2298,-314.7317 657.6199,-314.0339 654.14,-313.3612"/>
<polygon fill="#444444" fill-opacity="0.333333" stroke="#444444" stroke-opacity="0.333333" points="654.6261,-309.8904 644.1435,-311.4289 653.2975,-316.7632 654.6261,-309.8904"/>
</g>
<!-- python3&#45;devel&#45;&gt;python3&#45;rpm&#45;generators -->
<g id="edge15" class="edge">
<title>python3&#45;devel&#45;&gt;python3&#45;rpm&#45;generators</title>
<path fill="none" stroke="#444444" stroke-opacity="0.333333" d="M914.1118,-148.7695C934.6702,-133.5137 964.261,-111.5552 986.8405,-94.7995"/>
<polygon fill="#444444" fill-opacity="0.333333" stroke="#444444" stroke-opacity="0.333333" points="989.1728,-97.4272 995.1176,-88.6573 985.0014,-91.8059 989.1728,-97.4272"/>
</g>
<!-- python3&#45;devel&#45;&gt;python3&#45;rpm&#45;macros -->
<g id="edge16" class="edge">
<title>python3&#45;devel&#45;&gt;python3&#45;rpm&#45;macros</title>
<path fill="none" stroke="#444444" stroke-opacity="0.333333" d="M887.481,-148.6156C884.3597,-123.1685 878.6695,-76.7777 874.9783,-46.6843"/>
<polygon fill="#444444" fill-opacity="0.333333" stroke="#444444" stroke-opacity="0.333333" points="878.4088,-45.9032 873.7173,-36.4037 871.4609,-46.7554 878.4088,-45.9032"/>
</g>
<!-- python3&#45;devel&#45;&gt;python&#45;rpm&#45;macros -->
<g id="edge17" class="edge">
<title>python3&#45;devel&#45;&gt;python&#45;rpm&#45;macros</title>
<path fill="none" stroke="#444444" stroke-opacity="0.333333" d="M927.9516,-184.9753C937.6341,-189.5607 948.1492,-194.5403 958.2206,-199.3099"/>
<polygon fill="#444444" fill-opacity="0.333333" stroke="#444444" stroke-opacity="0.333333" points="956.7728,-202.4968 967.3086,-203.6137 959.7688,-196.1704 956.7728,-202.4968"/>
</g>
<!-- python3&#45;test&#45;&gt;python3&#45;tools -->
<g id="edge18" class="edge">
<title>python3&#45;test&#45;&gt;python3&#45;tools</title>
<path fill="none" stroke="#444444" stroke-opacity="0.333333" d="M841.0686,-436.4592C835.7603,-439.2028 830.225,-442.0637 824.7535,-444.8916"/>
<polygon fill="#444444" fill-opacity="0.333333" stroke="#444444" stroke-opacity="0.333333" points="822.9338,-441.8922 815.6572,-449.593 826.1478,-448.1107 822.9338,-441.8922"/>
</g>
<!-- python3&#45;tkinter&#45;&gt;libX11 -->
<g id="edge19" class="edge">
<title>python3&#45;tkinter&#45;&gt;libX11</title>
<path fill="none" stroke="#444444" stroke-opacity="0.333333" d="M610.2272,-400.8625C601.8048,-398.0643 593.1152,-395.1774 584.7279,-392.391"/>
<polygon fill="#444444" fill-opacity="0.333333" stroke="#444444" stroke-opacity="0.333333" points="585.6484,-389.0087 575.055,-389.1773 583.4414,-395.6517 585.6484,-389.0087"/>
</g>
<!-- python3&#45;tkinter&#45;&gt;tk -->
<g id="edge20" class="edge">
<title>python3&#45;tkinter&#45;&gt;tk</title>
<path fill="none" stroke="#444444" stroke-opacity="0.333333" d="M656.8583,-400.7812C649.2062,-382.6239 637.3273,-354.4371 628.5246,-333.5497"/>
<polygon fill="#444444" fill-opacity="0.333333" stroke="#444444" stroke-opacity="0.333333" points="631.7117,-332.0997 624.6028,-324.2439 625.2611,-334.8182 631.7117,-332.0997"/>
</g>
<!-- python3&#45;tools&#45;&gt;python3&#45;tkinter -->
<g id="edge21" class="edge">
<title>python3&#45;tools&#45;&gt;python3&#45;tkinter</title>
<path fill="none" stroke="#444444" stroke-opacity="0.333333" d="M737.7705,-449.6321C731.0127,-446.7972 723.9609,-443.8388 717.0164,-440.9255"/>
<polygon fill="#444444" fill-opacity="0.333333" stroke="#444444" stroke-opacity="0.333333" points="718.2265,-437.6377 707.651,-436.9966 715.5185,-444.0927 718.2265,-437.6377"/>
</g>
<!-- tk&#45;&gt;libX11 -->
<g id="edge22" class="edge">
<title>tk&#45;&gt;libX11</title>
<path fill="none" stroke="#444444" stroke-opacity="0.333333" d="M594.6651,-324.2301C584.7911,-332.2134 573.0258,-341.7259 562.3717,-350.34"/>
<polygon fill="#444444" fill-opacity="0.333333" stroke="#444444" stroke-opacity="0.333333" points="560.0665,-347.7029 554.4908,-356.7119 564.4676,-353.1463 560.0665,-347.7029"/>
</g>
<!-- tk&#45;&gt;libXft -->
<g id="edge23" class="edge">
<title>tk&#45;&gt;libXft</title>
<path fill="none" stroke="#444444" stroke-opacity="0.333333" d="M589.6743,-304.5817C573.1883,-303.617 551.6204,-302.355 531.8889,-301.2005"/>
<polygon fill="#444444" fill-opacity="0.333333" stroke="#444444" stroke-opacity="0.333333" points="531.962,-297.6989 521.7746,-300.6087 531.553,-304.6869 531.962,-297.6989"/>
</g>
<!-- curl&#45;minimal -->
<g id="node1" class="node">
<title>curl&#45;minimal</title>
<text text-anchor="middle" x="193.25" y="-185.85" font-family="monospace" font-size="14.00" fill="#000000">curl&#45;minimal</text>
</g>
<!-- libcurl&#45;minimal -->
<g id="node2" class="node">
<title>libcurl&#45;minimal</title>
<text text-anchor="middle" x="90.992" y="-109.89" font-family="monospace" font-size="14.00" fill="#000000">libcurl&#45;minimal</text>
</g>
<!-- libX11 -->
<g id="node3" class="node">
<title>libX11</title>
<text text-anchor="middle" x="532.02" y="-371.18" font-family="monospace" font-size="14.00" fill="#000000">libX11</text>
</g>
<!-- libX11&#45;common -->
<g id="node4" class="node">
<title>libX11&#45;common</title>
<text text-anchor="middle" x="490.19" y="-536.66" font-family="monospace" font-size="14.00" fill="#000000">libX11&#45;common</text>
</g>
<!-- libxcb -->
<g id="node5" class="node">
<title>libxcb</title>
<text text-anchor="middle" x="353.18" y="-224.63" font-family="monospace" font-size="14.00" fill="#000000">libxcb</text>
</g>
<!-- libXau -->
<g id="node6" class="node">
<title>libXau</title>
<text text-anchor="middle" x="335.67" y="-76.555" font-family="monospace" font-size="14.00" fill="#000000">libXau</text>
</g>
<!-- libXft -->
<g id="node7" class="node">
<title>libXft</title>
<text text-anchor="middle" x="478.73" y="-294.39" font-family="monospace" font-size="14.00" fill="#000000">libXft</text>
</g>
<!-- libXrender -->
<g id="node8" class="node">
<title>libXrender</title>
<text text-anchor="middle" x="400.86" y="-398.71" font-family="monospace" font-size="14.00" fill="#000000">libXrender</text>
</g>
<!-- python3&#45;debug -->
<g id="node9" class="node">
<title>python3&#45;debug</title>
<text text-anchor="middle" x="745.7" y="-327.36" font-family="monospace" font-size="14.00" fill="#000000">python3&#45;debug</text>
</g>
<!-- python3&#45;devel -->
<g id="node10" class="node">
<title>python3&#45;devel</title>
<text text-anchor="middle" x="889.72" y="-163.17" font-family="monospace" font-size="14.00" fill="#000000">python3&#45;devel</text>
</g>
<!-- python3&#45;test -->
<g id="node11" class="node">
<title>python3&#45;test</title>
<text text-anchor="middle" x="876.01" y="-414.7" font-family="monospace" font-size="14.00" fill="#000000">python3&#45;test</text>
</g>
<!-- python3&#45;tkinter -->
<g id="node12" class="node">
<title>python3&#45;tkinter</title>
<text text-anchor="middle" x="664.49" y="-415.19" font-family="monospace" font-size="14.00" fill="#000000">python3&#45;tkinter</text>
</g>
<!-- python3&#45;tools -->
<g id="node13" class="node">
<title>python3&#45;tools</title>
<text text-anchor="middle" x="780.72" y="-463.95" font-family="monospace" font-size="14.00" fill="#000000">python3&#45;tools</text>
</g>
<!-- tk -->
<g id="node14" class="node">
<title>tk</title>
<text text-anchor="middle" x="616.99" y="-302.48" font-family="monospace" font-size="14.00" fill="#000000">tk</text>
</g>
<!-- python3&#45;rpm&#45;generators -->
<g id="node15" class="node">
<title>python3&#45;rpm&#45;generators</title>
<text text-anchor="middle" x="1019.4" y="-66.938" font-family="monospace" font-size="14.00" fill="#000000">python3&#45;rpm&#45;generators</text>
</g>
<!-- python3&#45;rpm&#45;macros -->
<g id="node16" class="node">
<title>python3&#45;rpm&#45;macros</title>
<text text-anchor="middle" x="871.46" y="-14.3" font-family="monospace" font-size="14.00" fill="#000000">python3&#45;rpm&#45;macros</text>
</g>
<!-- python&#45;rpm&#45;macros -->
<g id="node17" class="node">
<title>python&#45;rpm&#45;macros</title>
<text text-anchor="middle" x="1005.5" y="-218" font-family="monospace" font-size="14.00" fill="#000000">python&#45;rpm&#45;macros</text>
</g>
</g>
</svg>
