<?xml version="1.0" encoding="UTF-8" standalone="no"?>
<!DOCTYPE svg PUBLIC "-//W3C//DTD SVG 1.1//EN"
 "http://www.w3.org/Graphics/SVG/1.1/DTD/svg11.dtd">
<!-- Generated by graphviz version 2.40.1 (20161225.0304)
 -->
<!-- Title: G Pages: 1 -->
<svg width="1803pt" height="1412pt"
 viewBox="0.00 0.00 1802.71 1412.08" xmlns="http://www.w3.org/2000/svg" xmlns:xlink="http://www.w3.org/1999/xlink">
<g id="graph0" class="graph" transform="scale(1 1) rotate(0) translate(97.1114 1273.369)">
<title>G</title>
<polygon fill="#dae2ff" stroke="transparent" points="-97.1114,138.7115 -97.1114,-1273.369 1705.5966,-1273.369 1705.5966,138.7115 -97.1114,138.7115"/>
<polygon fill="#b3cde3" stroke="#b3cde3" points="989.4393,-105.321 1017.3118,-87.4683 1019.2975,-86.1503 1097.96,-127.6442 1112.1079,-141.6337 1110.3856,-242.407 1109.3854,-263.8165 1109.5696,-278.7939 1092.3446,-297.4728 1022.6666,-378.6266 1016.7626,-385.0778 1011.1189,-384.4529 998.9489,-383.4674 988.3301,-382.9258 981.5294,-382.9867 974.8647,-382.8419 974.6896,-382.8433 972.8745,-382.9124 970.7797,-382.864 968.7479,-382.8776 964.3677,-486.4305 967.5665,-489.6821 965.131,-492.102 965.131,-492.102 967.5665,-489.6821 964.3677,-486.4305 968.7479,-382.8776 970.7797,-382.864 972.8745,-382.9124 974.6896,-382.8433 974.8647,-382.8419 981.5294,-382.9867 988.3301,-382.9258 998.9489,-383.4674 1011.1189,-384.4529 1016.7626,-385.0778 1023.019,-393.7591 1067.3158,-464.2657 1075.6229,-476.4614 1062.8024,-501.6991 1043.3334,-548.829 1034.0271,-567.1014 1053.007,-588.4238 1101.4586,-648.1216 1057.7903,-652.7275 1057.7903,-652.7275 1101.4586,-648.1216 1118.3177,-665.8983 1124.0391,-672.3141 1115.3021,-684.6072 1075.9242,-744.0461 1055.5437,-772.6791 1069.5195,-786.8694 1142.7976,-871.2067 1173.9625,-902.655 1178.9274,-908.1663 1192.2438,-924.3765 1195.8845,-937.6687 1186.5027,-945.9285 1138.2748,-990.3262 1063.5414,-1019.4051 1049.3027,-1018.6051 1047.2389,-895.3215 1045.9985,-893.6754 1045.9985,-893.6754 1047.2389,-895.3215 1049.3027,-1018.6051 1040.3964,-1018.3269 1039.7585,-979.6915 1035.0006,-890.8946 1030.2073,-890.8946 1029.8678,-890.4556 1023.789,-886.4355 1023.789,-886.4355 1029.8678,-890.4556 1030.2073,-890.8946 1035.0006,-890.8946 1039.7585,-979.6915 1040.3964,-1018.3269 1026.729,-1018.5828 1024.0166,-1018.7014 1004.2346,-1020.5566 989.1743,-1023.0964 994.2286,-896.3354 881.1262,-911.9298 881.2447,-915.1226 881.7617,-920.7744 767.5195,-923.0693 762.8211,-919.0041 762.4848,-918.3572 761.0584,-917.1432 756.3485,-917.1432 756.1243,-917.0707 751.2849,-917.0707 751.0154,-916.9833 751.0154,-916.9833 751.2849,-917.0707 756.1243,-917.0707 756.3485,-917.1432 761.0584,-917.1432 762.4848,-918.3572 762.8211,-919.0041 767.5195,-923.0693 881.7617,-920.7744 881.2447,-915.1226 881.1262,-911.9298 994.2286,-896.3354 989.1743,-1023.0964 902.0928,-1039.9417 900.2297,-1081.1943 899.6488,-1105.663 886.1029,-1156.885 874.7148,-1210.059 826.284,-1253.1335 769.2473,-1269.369 765.0867,-1268.8 743.2284,-1266.3389 742.0829,-1265.9407 733.3882,-1263.6124 721.8242,-1260.8212 712.0209,-1258.975 713.9969,-1139.9078 713.9969,-1139.9078 712.0209,-1258.975 666.9017,-1251.6755 591.4378,-1226.0933 538.5059,-1145.0969 542.5405,-1133.2 562.3973,-1062.4338 563.9545,-1057.2627 555.7662,-1037.6478 537.7433,-991.9446 522.4746,-950.5254 660.6907,-922.3555 663.4686,-918.996 667.189,-917.5005 667.6992,-917.066 671.5332,-917.066 677.999,-1010.5795 677.7432,-916.8563 677.9459,-916.792 682.8578,-916.792 682.8578,-916.792 677.9459,-916.792 677.7432,-916.8563 677.999,-1010.5795 671.5332,-917.066 667.6992,-917.066 667.189,-917.5005 663.4686,-918.996 660.6907,-922.3555 522.4746,-950.5254 517.4067,-937.6655 530.1168,-901.0311 534.7446,-885.3447 518.8761,-859.7174 502.2369,-830.9379 487.4703,-803.0882 473.0422,-772.701 461.0706,-750.0521 446.8336,-725.3701 444.8072,-722.0975 422.3809,-717.2165 405.9047,-713.1371 402.3492,-712.0475 383.5594,-705.7277 378.8508,-703.8718 377.0572,-703.1124 355.3864,-692.6372 354.3727,-692.0887 352.394,-690.9594 283.394,-649.4877 303.85,-613.78 350.7516,-519.8862 360.5718,-515.2671 362.2823,-514.5054 462.2597,-514.4899 466.9562,-514.6367 475.7961,-514.3256 477.1152,-514.3207 477.9861,-514.3447 479.1387,-514.3 490.8942,-514.5837 492.0434,-514.6476 491.7924,-567.5465 495.0933,-611.0757 488.2764,-608.7535 483.2061,-610.3858 478.9936,-569.6812 476.0437,-613.6611 472.081,-613.6611 471.3018,-612.3572 471.3018,-612.3572 472.081,-613.6611 476.0437,-613.6611 478.9936,-569.6812 483.2061,-610.3858 488.2764,-608.7535 495.0933,-611.0757 497.5903,-613.5021 494.5781,-616.6163 494.5781,-616.6163 497.5903,-613.5021 495.0933,-611.0757 491.7924,-567.5465 492.0434,-514.6476 498.9539,-514.5717 502.4685,-514.6438 504.7401,-514.5389 517.8689,-526.3825 517.8689,-526.3825 504.7401,-514.5389 507.9174,-511.0723 516.0894,-503.2512 597.6078,-507.2917 599.1522,-582.4256 596.6959,-585.0076 592.7798,-588.8068 594.4253,-600.66 596.3714,-620.2179 598.4912,-635.5993 601.321,-651.757 601.1378,-651.8905 599.6498,-745.0231 593.6933,-750.3438 594.6906,-656.2733 592.6896,-657.5351 587.3597,-750.7728 582.4304,-750.7728 582.0372,-750.2829 576.5248,-746.8278 576.5248,-746.8278 582.0372,-750.2829 582.4304,-750.7728 587.3597,-750.7728 592.6896,-657.5351 594.6906,-656.2733 593.6933,-750.3438 599.6498,-745.0231 601.1378,-651.8905 601.321,-651.757 598.4912,-635.5993 596.3714,-620.2179 594.4253,-600.66 592.7798,-588.8068 596.6959,-585.0076 599.1522,-582.4256 597.6078,-507.2917 516.0894,-503.2512 519.2158,-500.0219 521.0657,-497.7802 522.1836,-496.5273 525.1921,-493.4096 525.6259,-492.9954 538.1968,-481.9464 546.5035,-475.3438 549.1104,-473.4991 558.1855,-467.8327 559.6501,-467.0454 598.355,-449.4216 605.3248,-445.625 605.9442,-445.233 615.5005,-438.2736 616.0922,-496.0171 610.406,-497.9069 607.3538,-501.1318 610.4128,-504.3775 616.1085,-506.2761 622.2014,-504.2641 625.2882,-501.2137 627.481,-501.2137 627.7008,-501.2889 629.6729,-501.2889 630.9633,-502.01 723.4349,-491.2619 718.6185,-496.9536 717.6428,-498.0249 708.7787,-507.0619 710.2358,-583.2031 704.5356,-581.3906 704.5356,-581.3906 710.2358,-583.2031 708.7787,-507.0619 717.6428,-498.0249 718.6185,-496.9536 723.4349,-491.2619 630.9633,-502.01 629.6729,-501.2889 627.7008,-501.2889 627.481,-501.2137 625.2882,-501.2137 622.2014,-504.2641 616.1085,-506.2761 610.4128,-504.3775 607.3538,-501.1318 610.406,-497.9069 616.0922,-496.0171 615.5005,-438.2736 623.232,-431.9376 632.3451,-423.6574 640.1281,-415.2 688.5262,-373.6223 693.2748,-374.5874 709.7955,-378.7194 710.4893,-378.9089 712.5014,-379.5053 716.3184,-380.7262 724.311,-383.4712 737.6464,-388.3641 781.389,-405.4193 782.1307,-424.2761 734.39,-479.7043 733.7403,-480.4144 727.0938,-586.269 727.3606,-586.269 733.5906,-592.4091 795.1939,-591.5524 796.621,-591.6056 794.0259,-594.4398 793.2687,-622.1926 788.6875,-659.4666 789.3975,-660.9755 790.0823,-661.1978 786.7729,-723.2894 783.6483,-722.0399 744.7397,-708.8881 743.8208,-708.5186 731.8501,-702.9061 721.6707,-696.8052 722.9248,-766.4677 716.416,-770.827 722.804,-775.2872 722.804,-775.2872 716.416,-770.827 722.9248,-766.4677 721.6707,-696.8052 731.8501,-702.9061 743.8208,-708.5186 744.7397,-708.8881 783.6483,-722.0399 786.7729,-723.2894 790.0823,-661.1978 789.3975,-660.9755 788.6875,-659.4666 793.2687,-622.1926 794.0259,-594.4398 796.621,-591.6056 795.1939,-591.5524 733.5906,-592.4091 727.3606,-586.269 727.0938,-586.269 733.7403,-480.4144 734.39,-479.7043 782.1307,-424.2761 781.389,-405.4193 816.7427,-375.8885 834.4449,-285.5304 838.3225,-257.6128 839.7073,-244.9862 844.753,-214.9143 854.9127,-163.0559 938.4522,-129.9969 953.8217,-123.5318 969.6628,-116.0933 988.5953,-105.8194 989.4393,-105.321 994.3386,-234.9964 992.1555,-275.9142 987.1497,-275.9142 985.0155,-227.1957 980.3479,-272.6031 975.4414,-271.0645 975.4414,-271.0645 980.3479,-272.6031 985.0155,-227.1957 987.1497,-275.9142 992.1555,-275.9142 994.3386,-234.9964 989.4393,-105.321 989.4393,-105.321"/>
<polygon fill="#decbe4" stroke="#decbe4" points="1544.7384,-269.6419 1544.8788,-330.1951 1544.8788,-330.1951 1544.7384,-269.6419 1544.9438,-260.138 1521.5959,-257.713 1514.4036,-256.4891 1506.3411,-254.7578 1486.5421,-250.0639 1482.5544,-248.7661 1466.6985,-243.2472 1463.5881,-242.0959 1445.1703,-224.5041 1438.7274,-221.5345 1386.179,-213.7497 1309.7614,-160.3925 1294.4254,-155.8701 1272.0028,-156.3534 1257.0732,-156.2828 1257.619,-278.4322 1257.0867,-279.3984 1256.9911,-279.43 1252.0472,-279.43 1251.6707,-279.3062 1248.6844,-279.3062 1246.3051,-277.0211 1246.3051,-277.0211 1248.6844,-279.3062 1251.6707,-279.3062 1252.0472,-279.43 1256.9911,-279.43 1257.0867,-279.3984 1257.619,-278.4322 1257.0732,-156.2828 1250.5532,-156.0804 1241.9441,-155.5865 1228.8419,-154.1457 1228.0776,-154.0416 1217.2457,-151.9945 1207.5771,-151.2643 1112.1079,-141.6337 1110.3856,-242.407 1109.3854,-263.8165 1109.5696,-278.7939 1092.3446,-297.4728 1022.6666,-378.6266 1016.7626,-385.0778 1023.019,-393.7591 1067.3158,-464.2657 1075.6229,-476.4614 1062.8024,-501.6991 1043.3334,-548.829 1034.0271,-567.1014 1053.007,-588.4238 1101.4586,-648.1216 1118.3177,-665.8983 1124.0391,-672.3141 1115.3021,-684.6072 1075.9242,-744.0461 1055.5437,-772.6791 1069.5195,-786.8694 1142.7976,-871.2067 1173.9625,-902.655 1172.8353,-831.942 1172.8353,-831.942 1173.9625,-902.655 1178.9274,-908.1663 1192.2438,-924.3765 1195.8845,-937.6687 1263.0367,-957.3342 1298.6893,-951.4756 1319.9017,-949.0812 1324.4126,-948.6893 1324.7958,-948.666 1325.252,-818.665 1324.9115,-817.9916 1318.7437,-822.393 1312.3778,-822.393 1307.1263,-818.9051 1306.5547,-818.0959 1300.0432,-824.1986 1283.0568,-822.009 1250.7627,-824.8072 1237.0266,-843.1639 1227.3093,-857.5017 1214.5624,-877.9453 1214.8906,-843.7264 1214.1116,-822.5109 1208.9001,-773.552 1210.1866,-771.8226 1203.5284,-767.4321 1198.4718,-767.4321 1198.4718,-767.4321 1203.5284,-767.4321 1210.1866,-771.8226 1208.9001,-773.552 1214.1116,-822.5109 1214.8906,-843.7264 1214.5624,-877.9453 1227.3093,-857.5017 1237.0266,-843.1639 1250.7627,-824.8072 1283.0568,-822.009 1300.0432,-824.1986 1306.5547,-818.0959 1307.1263,-818.9051 1312.3778,-822.393 1318.7437,-822.393 1324.9115,-817.9916 1324.9606,-817.7009 1319.0557,-813.5077 1319.0557,-813.5077 1324.9606,-817.7009 1324.9115,-817.9916 1325.252,-818.665 1324.7958,-948.666 1328.1348,-948.5486 1373.4224,-948.1248 1466.0242,-864.5489 1466.8595,-863.0721 1475.7023,-859.4037 1490.8197,-853.9166 1569.8986,-829.346 1614.9437,-773.9192 1614.8235,-742.6574 1615.6432,-703.7585 1616.8658,-686.4516 1670.2345,-627.6949 1684.7493,-598.4385 1695.9058,-577.3314 1699.6226,-551.1663 1700.2969,-543.2888 1575.0551,-559.0934 1564.2083,-556.4048 1567.46,-478.7928 1559.4741,-479.3701 1553.6395,-479.5591 1545.9191,-479.5009 1546.6465,-562.0725 1547.1013,-562.6434 1546.7595,-563.1053 1540.4381,-567.4415 1535.0415,-567.4415 1532.5105,-603.489 1527.796,-562.9559 1523.6027,-562.9559 1518.9738,-623.3925 1518.6169,-642.0228 1511.4445,-640.9617 1488.8323,-638.6004 1485.0685,-638.0415 1477.7626,-636.6334 1479.0581,-716.6403 1473.0201,-712.4829 1473.0201,-712.4829 1479.0581,-716.6403 1477.7626,-636.6334 1485.0685,-638.0415 1488.8323,-638.6004 1511.4445,-640.9617 1518.6169,-642.0228 1518.9738,-623.3925 1523.6027,-562.9559 1522.6713,-562.6497 1524.9059,-479.8169 1523.3383,-479.7302 1517.8921,-487.7287 1511.2903,-496.546 1506.9423,-503.072 1489.057,-526.7943 1475.9989,-553.0001 1475.9989,-553.0001 1489.057,-526.7943 1506.9423,-503.072 1511.2903,-496.546 1453.3829,-513.9589 1451.301,-516.7117 1447.3335,-518.3289 1446.4808,-519.0776 1441.5531,-519.0776 1441.3457,-519.1418 1436.3383,-519.1418 1436.9673,-603.5789 1424.5645,-599.3928 1416.8372,-597.4388 1407.6709,-595.884 1403.2461,-595.318 1392.6863,-594.8438 1387.3075,-594.8268 1384.3184,-594.6905 1378.4088,-594.9153 1377.9855,-623.6309 1373.8313,-670.0665 1369.7041,-670.0665 1364.5989,-609.8524 1363.1062,-670.2164 1358.0156,-670.2164 1357.7231,-670.3118 1357.4528,-720.9711 1350.9113,-670.6983 1346.8068,-670.6983 1343.3235,-744.4243 1336.7667,-743.9725 1332.9248,-744.0427 1328.2677,-743.902 1328.1058,-737.5123 1323.1561,-670.4078 1322.651,-670.2474 1319.4277,-670.2474 1318.9916,-670.3864 1318.9916,-670.3864 1319.4277,-670.2474 1322.651,-670.2474 1323.1561,-670.4078 1328.1058,-737.5123 1328.2677,-743.902 1332.9248,-744.0427 1336.7667,-743.9725 1343.3235,-744.4243 1346.8068,-670.6983 1350.9113,-670.6983 1357.4528,-720.9711 1357.7231,-670.3118 1352.0916,-670.3118 1351.5765,-594.949 1350.4476,-594.8935 1350.298,-551.8049 1346.3917,-519.287 1342.8271,-519.287 1341.9023,-518.9924 1335.9518,-518.9924 1339.3689,-435.8554 1337.6942,-435.7619 1336.1169,-435.6143 1326.6832,-435.4851 1323.951,-435.5569 1319.5365,-435.5071 1315.0758,-435.8133 1310.6908,-435.7848 1309.1793,-355.3581 1303.5292,-359.1095 1290.7162,-355.4646 1254.1628,-355.4444 1259.1934,-379.1794 1259.1934,-379.1794 1254.1628,-355.4444 1290.7162,-355.4646 1303.5292,-359.1095 1309.1793,-355.3581 1310.6908,-435.7848 1315.0758,-435.8133 1319.5365,-435.5071 1323.951,-435.5569 1326.6832,-435.4851 1336.1169,-435.6143 1337.6942,-435.7619 1339.3689,-435.8554 1335.9518,-518.9924 1341.9023,-518.9924 1342.8271,-519.287 1346.3917,-519.287 1350.298,-551.8049 1350.4476,-594.8935 1351.5765,-594.949 1352.0916,-670.3118 1357.7231,-670.3118 1358.0156,-670.2164 1363.1062,-670.2164 1364.5989,-609.8524 1369.7041,-670.0665 1373.8313,-670.0665 1377.9855,-623.6309 1378.4088,-594.9153 1372.3279,-594.6298 1372.4254,-545.3717 1368.3307,-519.3666 1365.1627,-519.3666 1364.2242,-519.0654 1357.6254,-519.0654 1357.0833,-518.8964 1354.0226,-518.8964 1353.5333,-518.7463 1348.6212,-435.7685 1342.2118,-435.8755 1345.0953,-352.6525 1339.3876,-352.6525 1339.3876,-352.6525 1345.0953,-352.6525 1342.2118,-435.8755 1348.6212,-435.7685 1353.5333,-518.7463 1354.0226,-518.8964 1357.0833,-518.8964 1357.6254,-519.0654 1364.2242,-519.0654 1365.1627,-519.3666 1368.3307,-519.3666 1372.4254,-545.3717 1372.3279,-594.6298 1378.4088,-594.9153 1384.3184,-594.6905 1387.3075,-594.8268 1392.6863,-594.8438 1403.2461,-595.318 1407.6709,-595.884 1416.8372,-597.4388 1424.5645,-599.3928 1426.1406,-567.2848 1425.0914,-518.7735 1424.9915,-518.7425 1420.8263,-518.7425 1420.2382,-518.9303 1416.8701,-576.0381 1413.6835,-519.0328 1408.7225,-519.0328 1407.2838,-518.5737 1404.2926,-518.5737 1403.145,-518.939 1396.5811,-518.939 1396.3745,-518.875 1393.1508,-518.875 1391.8186,-519.2892 1389.7914,-519.2892 1386.7377,-522.021 1386.7377,-522.021 1389.7914,-519.2892 1385.5306,-515.169 1381.4912,-513.9865 1381.4912,-513.9865 1385.5306,-515.169 1389.7914,-519.2892 1391.8186,-519.2892 1393.1508,-518.875 1396.3745,-518.875 1396.5811,-518.939 1403.145,-518.939 1404.2926,-518.5737 1407.2838,-518.5737 1408.7225,-519.0328 1413.6835,-519.0328 1416.8701,-576.0381 1420.2382,-518.9303 1420.8263,-518.7425 1424.9915,-518.7425 1425.0914,-518.7735 1426.1406,-567.2848 1424.5645,-599.3928 1436.9673,-603.5789 1436.3383,-519.1418 1441.3457,-519.1418 1441.5531,-519.0776 1446.4808,-519.0776 1447.3335,-518.3289 1451.301,-516.7117 1453.3829,-513.9589 1511.2903,-496.546 1517.8921,-487.7287 1523.3383,-479.7302 1524.9059,-479.8169 1522.6713,-562.6497 1523.6027,-562.9559 1527.796,-562.9559 1532.5105,-603.489 1535.0415,-567.4415 1540.4381,-567.4415 1546.7595,-563.1053 1547.1013,-562.6434 1546.6465,-562.0725 1545.9191,-479.5009 1553.6395,-479.5591 1559.4741,-479.3701 1567.46,-478.7928 1564.2083,-556.4048 1575.0551,-559.0934 1700.2969,-543.2888 1701.5966,-533.4037 1664.1669,-467.9623 1668.7521,-419.8066 1547.9519,-402.0494 1545.0432,-398.7778 1542.5515,-397.9577 1540.521,-396.2798 1535.9414,-396.2798 1535.7096,-396.3528 1532.1376,-396.3528 1525.338,-346.6935 1525.2881,-396.5997 1519.8851,-396.5997 1519.2306,-396.3858 1514.1567,-396.3858 1512.9825,-314.866 1507.8303,-396.5346 1503.5287,-396.5346 1498.0657,-460.5479 1497.0685,-445.9388 1497.1418,-399.5005 1500.5314,-396.2183 1497.8879,-393.819 1497.8879,-393.819 1500.5314,-396.2183 1497.1418,-399.5005 1497.0685,-445.9388 1498.0657,-460.5479 1503.5287,-396.5346 1507.8303,-396.5346 1512.9825,-314.866 1514.1567,-396.3858 1519.2306,-396.3858 1519.8851,-396.5997 1525.2881,-396.5997 1525.338,-346.6935 1532.1376,-396.3528 1535.7096,-396.3528 1535.9414,-396.2798 1540.521,-396.2798 1542.5515,-397.9577 1545.0432,-398.7778 1547.9519,-402.0494 1668.7521,-419.8066 1673.0184,-384.5481 1676.0651,-366.7558 1660.5042,-327.338 1615.0348,-279.4428 1581.3947,-261.4931 1544.9438,-260.138 1544.7384,-269.6419 1544.7384,-269.6419"/>
<polygon fill="#fed9a6" stroke="#fed9a6" points="-73.0456,-344.3148 -71.1477,-337.1015 -63.2837,-303.9007 -41.6279,-200.3834 -35.0783,-195.276 -22.7877,-187.6949 -21.3091,-185.1327 28.9933,-89.2531 127.3778,-38.1467 128.6242,-37.4683 134.5383,-37.5836 139.2793,-37.5847 147.1412,-37.4348 147.5708,-37.5837 151.5718,-38.8851 164.1462,-42.706 167.2957,-43.5947 184.6394,-47.7439 180.7063,-153.3374 175.9574,-191.5674 171.2113,-190.1093 171.2113,-190.1093 175.9574,-191.5674 180.7063,-153.3374 184.6394,-47.7439 186.0132,-48.0131 188.1726,-108.6492 188.0564,-195.0689 188.317,-195.1532 193.9964,-195.1532 192.3,-268.2123 186.3168,-266.2404 183.0135,-265.3175 177.072,-263.9521 173.0618,-263.2296 168.0248,-262.5717 156.2736,-261.6201 148.8114,-261.7614 150.284,-321.3678 158.6252,-324.2595 227.0737,-313.7939 217.4601,-353.3824 214.3416,-369.5101 270.8524,-368.4062 286.339,-364.6034 278.9939,-269.7511 292.5389,-263.2952 297.1576,-260.9305 297.3914,-260.93 299.4221,-261.0427 304.3401,-261.1788 304.8468,-298.232 302.6506,-370.8325 302.7872,-370.8756 303.459,-416.1815 309.771,-371.1063 312.652,-371.1063 313.672,-371.4265 319.208,-371.4265 325.0695,-473.2181 325.3205,-371.2673 330.6829,-371.2673 331.8849,-419.8875 328.6252,-491.5715 348.2821,-516.4543 347.968,-445.4591 341.5316,-374.0086 347.5405,-375.9324 347.5405,-375.9324 341.5316,-374.0086 347.968,-445.4591 348.2821,-516.4543 328.6252,-491.5715 331.8849,-419.8875 330.6829,-371.2673 325.3205,-371.2673 325.0695,-473.2181 319.208,-371.4265 313.672,-371.4265 312.652,-371.1063 309.771,-371.1063 303.459,-416.1815 302.7872,-370.8756 302.6506,-370.8325 304.8468,-298.232 304.3401,-261.1788 299.4221,-261.0427 297.3914,-260.93 297.1576,-260.9305 292.5389,-263.2952 278.9939,-269.7511 286.339,-364.6034 270.8524,-368.4062 214.3416,-369.5101 217.4601,-353.3824 227.0737,-313.7939 158.6252,-324.2595 150.284,-321.3678 148.8114,-261.7614 156.2736,-261.6201 168.0248,-262.5717 173.0618,-263.2296 177.072,-263.9521 183.0135,-265.3175 186.3168,-266.2404 192.3,-268.2123 193.9964,-195.1532 188.317,-195.1532 188.0564,-195.0689 188.1726,-108.6492 186.0132,-48.0131 193.906,-49.2226 200.9699,-64.969 217.4606,-97.5132 210.7221,-188.938 260.0305,-191.8568 250.7039,-163.0627 296.9568,-156.6471 301.998,-151.0009 303.3618,-151.4525 307.9087,-151.4525 313.0347,-216.3914 314.6015,-151.2724 319.7463,-151.2724 320.4841,-152.2257 325.4822,-155.3784 325.4822,-155.3784 320.4841,-152.2257 319.7463,-151.2724 314.6015,-151.2724 313.0347,-216.3914 307.9087,-151.4525 303.3618,-151.4525 301.998,-151.0009 296.9568,-156.6471 250.7039,-163.0627 260.0305,-191.8568 210.7221,-188.938 217.4606,-97.5132 200.9699,-64.969 193.906,-49.2226 291.3201,-24.3943 297.1959,-145.9016 297.1959,-145.9016 291.3201,-24.3943 308.3125,-19.6145 309.0594,-19.5911 315.2968,-19.0996 331.2092,-17.0882 340.3176,-15.5052 344.6768,-14.6445 357.3236,-11.5451 380.165,-4.8608 396.4418,-24.738 485.176,-151.1 515.2986,-187.8856 507.663,-222.6645 504.9509,-233.0938 517.049,-257.6728 518.4606,-258.8989 526.828,-266.4739 526.9326,-266.5611 542.8778,-279.3182 548.1171,-283.3209 567.7487,-296.2715 666.7861,-357.9951 676.6328,-364.4856 688.5262,-373.6223 640.1281,-415.2 632.3451,-423.6574 623.232,-431.9376 615.5005,-438.2736 605.9442,-445.233 605.3248,-445.625 598.355,-449.4216 559.6501,-467.0454 558.1855,-467.8327 549.1104,-473.4991 546.5035,-475.3438 538.1968,-481.9464 525.6259,-492.9954 525.1921,-493.4096 522.1836,-496.5273 521.0657,-497.7802 519.2158,-500.0219 516.0894,-503.2512 507.9174,-511.0723 504.7401,-514.5389 502.4685,-514.6438 498.9539,-514.5717 492.0434,-514.6476 490.8942,-514.5837 479.1387,-514.3 477.9861,-514.3447 477.1152,-514.3207 475.7961,-514.3256 466.9562,-514.6367 462.2597,-514.4899 362.2823,-514.5054 367.9063,-501.713 369.9279,-497.3878 374.9809,-487.2164 390.8332,-459.0974 401.3469,-443.2 405.6427,-437.2914 405.7978,-426.0169 405.7978,-426.0169 405.6427,-437.2914 401.3469,-443.2 390.8332,-459.0974 390.8111,-457.6401 390.8111,-457.6401 390.8332,-459.0974 374.9809,-487.2164 369.9279,-497.3878 367.9063,-501.713 362.2823,-514.5054 360.5718,-515.2671 350.7516,-519.8862 303.85,-613.78 283.394,-649.4877 282.0901,-649.9794 225.3283,-647.9977 204.9996,-647.6346 202.8727,-647.5599 196.2072,-647.5538 195.708,-647.5361 183.1687,-647.5206 179.6321,-647.4551 170.7038,-647.7482 168.4984,-647.7444 162.1354,-647.6238 157.5277,-647.3773 152.1363,-647.5499 136.0784,-647.5097 130.4461,-647.3009 121.8533,-647.5707 116.3394,-647.6486 111.5608,-647.5512 109.7902,-647.4846 76.1075,-647.3685 -23.7344,-495.1092 -47.3304,-460.8437 -48.5509,-459.2096 -79.0531,-443.7225 -93.046,-416.7225 -93.1114,-413.7037 -73.0456,-344.3148 53.6629,-333.7281 57.1595,-389.9754 59.905,-328.1274 65.1284,-328.1274 65.6212,-328.2876 70.3295,-328.2876 74.8869,-402.8535 76.7513,-327.9648 81.6989,-327.9648 84.1849,-371.8442 88.776,-328.3058 92.8718,-328.3058 93.5279,-329.1099 99.3547,-332.6834 104.5249,-332.6834 110.0425,-329.2024 113.7973,-385.8998 116.6398,-328.0179 122.0074,-328.0179 122.186,-327.9608 126.8074,-327.9608 127.1031,-328.0568 130.8067,-400.3809 123.4855,-400.7776 129.5087,-473.0311 133.9986,-473.0311 134.3974,-473.1592 134.5745,-522.5958 141.2933,-473.3795 144.802,-473.3795 153.5288,-559.5468 157.1783,-616.022 156.9984,-476.2214 162.5273,-478.0034 169.2315,-475.7976 172.0731,-473.2392 172.8327,-473.2392 174.1557,-472.8256 178.2266,-472.8256 178.2266,-472.8256 174.1557,-472.8256 172.8327,-473.2392 172.0731,-473.2392 168.8476,-470.317 168.8476,-470.317 172.0731,-473.2392 169.2315,-475.7976 162.5273,-478.0034 156.9984,-476.2214 157.1783,-616.022 153.5288,-559.5468 144.802,-473.3795 141.2933,-473.3795 134.5745,-522.5958 134.3974,-473.1592 133.9986,-473.0311 129.5087,-473.0311 123.4855,-400.7776 130.8067,-400.3809 127.1031,-328.0568 126.8074,-327.9608 122.186,-327.9608 122.0074,-328.0179 116.6398,-328.0179 113.7973,-385.8998 110.0425,-329.2024 104.5249,-332.6834 99.3547,-332.6834 93.5279,-329.1099 92.8718,-328.3058 88.776,-328.3058 84.1849,-371.8442 81.6989,-327.9648 76.7513,-327.9648 74.8869,-402.8535 70.3295,-328.2876 65.6212,-328.2876 65.1284,-328.1274 59.905,-328.1274 57.1595,-389.9754 53.6629,-333.7281 -73.0456,-344.3148 -73.0456,-344.3148"/>
<polygon fill="#ccebc5" stroke="#ccebc5" points="69.8715,-821.75 85.3541,-822.9568 85.3541,-822.9568 69.8715,-821.75 -12.1469,-821.75 -27.0901,-865.1395 -18.1452,-884.5501 9.7675,-922.002 11.3525,-948.8078 135.3844,-979.7878 139.6016,-984.7194 141.0334,-984.7194 141.9824,-985.0183 145.4834,-985.0183 145.9343,-984.8756 145.9343,-984.8756 145.4834,-985.0183 141.9824,-985.0183 141.0334,-984.7194 139.6016,-984.7194 135.3844,-979.7878 11.3525,-948.8078 12.6435,-986.6086 12.9267,-1018.8045 12.0083,-1074.6542 74.6261,-1100.9407 133.3849,-1108.3986 153.0579,-1111.8933 163.7434,-1114.5989 170.428,-1116.46 169.2243,-985.1248 174.0781,-985.1248 174.2442,-985.071 180.5941,-989.1979 186.3987,-989.1979 192.8474,-985.0269 192.8493,-985.0245 196.893,-985.0245 200.9217,-1032.3411 201.5296,-1085.787 205.9076,-1078.4229 217.4745,-1060.3763 229.3815,-1044.8918 231.8383,-1042.0408 241.0922,-1032.4982 241.0922,-1032.4982 231.8383,-1042.0408 229.3815,-1044.8918 217.4745,-1060.3763 205.9076,-1078.4229 201.5296,-1085.787 200.9217,-1032.3411 196.893,-985.0245 192.8493,-985.0245 192.8474,-985.0269 186.3987,-989.1979 180.5941,-989.1979 174.2442,-985.071 174.0781,-985.1248 169.2243,-985.1248 170.428,-1116.46 183.4139,-1120.4019 183.6889,-1120.5131 199.7476,-1136.1165 271.2538,-1170.9132 278.0682,-1169.077 284.2895,-1167.5428 300.711,-1163.8691 304.7654,-1163.1503 318.5491,-1161.3391 319.0798,-1060.5272 323.155,-1028.9965 322.5588,-1028.8086 322.5588,-1028.8086 323.155,-1028.9965 319.0798,-1060.5272 318.5491,-1161.3391 330.98,-1160.2789 330.9586,-1155.579 327.3605,-1029.176 332.4879,-1029.176 334.1037,-1027.0801 338.3073,-1024.5532 338.3073,-1024.5532 334.1037,-1027.0801 332.4879,-1029.176 327.3605,-1029.176 330.9586,-1155.579 330.98,-1160.2789 334.899,-1160.1256 338.9942,-1033.6486 343.7688,-1033.6486 343.7688,-1033.6486 338.9942,-1033.6486 334.899,-1160.1256 350.3608,-1159.877 362.4307,-1160.2396 364.5359,-1160.3997 375.2625,-1161.7118 389.8709,-1163.8369 409.5502,-1168.0612 426.1646,-1172.0044 538.5059,-1145.0969 542.5405,-1133.2 562.3973,-1062.4338 563.9545,-1057.2627 555.7662,-1037.6478 537.7433,-991.9446 522.4746,-950.5254 517.4067,-937.6655 530.1168,-901.0311 534.7446,-885.3447 518.8761,-859.7174 502.2369,-830.9379 487.4703,-803.0882 415.6744,-823.58 411.7901,-828.1639 411.3629,-828.4171 410.5226,-828.1451 410.5226,-828.1451 411.3629,-828.4171 411.7901,-828.1639 415.6744,-823.58 487.4703,-803.0882 473.0422,-772.701 461.0706,-750.0521 446.8336,-725.3701 444.8072,-722.0975 422.3809,-717.2165 405.9047,-713.1371 402.3492,-712.0475 383.5594,-705.7277 378.8508,-703.8718 377.0572,-703.1124 355.3864,-692.6372 354.3727,-692.0887 352.394,-690.9594 283.394,-649.4877 282.0901,-649.9794 225.3283,-647.9977 204.9996,-647.6346 202.8727,-647.5599 196.2072,-647.5538 195.708,-647.5361 183.1687,-647.5206 179.6321,-647.4551 170.7038,-647.7482 168.4984,-647.7444 162.1354,-647.6238 157.5277,-647.3773 152.1363,-647.5499 136.0784,-647.5097 130.4461,-647.3009 121.8533,-647.5707 116.3394,-647.6486 111.5608,-647.5512 109.7902,-647.4846 76.1075,-647.3685 19.0006,-703.1555 -12.1469,-821.75 69.8715,-821.75 69.8715,-821.75"/>
<polygon fill="#fbb4ae" stroke="#fbb4ae" points="837.2615,120.5866 844.48,119.0339 882.5239,111.7357 980.577,31.6881 988.5268,10.4015 995.5008,-7.1189 1013.3539,-49.4265 1015.4019,-63.0571 1019.2975,-86.1503 1017.3118,-87.4683 989.4393,-105.321 988.5953,-105.8194 969.6628,-116.0933 953.8217,-123.5318 938.4522,-129.9969 854.9127,-163.0559 844.753,-214.9143 839.7073,-244.9862 838.3225,-257.6128 834.4449,-285.5304 816.7427,-375.8885 781.389,-405.4193 737.6464,-388.3641 724.311,-383.4712 716.3184,-380.7262 712.5014,-379.5053 710.4893,-378.9089 709.7955,-378.7194 693.2748,-374.5874 688.5262,-373.6223 676.6328,-364.4856 666.7861,-357.9951 567.7487,-296.2715 548.1171,-283.3209 542.8778,-279.3182 526.9326,-266.5611 526.828,-266.4739 518.4606,-258.8989 517.049,-257.6728 504.9509,-233.0938 507.663,-222.6645 515.2986,-187.8856 485.176,-151.1 396.4418,-24.738 380.165,-4.8608 418.0455,67.8616 424.3752,79.1119 500.7362,100.8008 512.4198,101.3063 522.559,101.9884 526.3924,101.5771 540.0313,100.4429 554.1002,100.6316 564.6111,101.0263 559.5627,-24.4958 554.3527,-24.4958 554.0621,-24.584 550.1184,-24.584 542.6631,23.3504 542.6631,23.3504 550.1184,-24.584 554.0621,-24.584 554.3527,-24.4958 559.5627,-24.4958 564.6111,101.0263 569.9698,101.3567 572.7271,101.593 577.9801,102.1696 580.8099,102.5482 583.1196,39.0297 588.4435,-21.8344 591.2842,-24.3972 587.835,-27.7551 587.835,-27.7551 591.2842,-24.3972 588.4435,-21.8344 583.1196,39.0297 580.8099,102.5482 595.5812,105.2413 606.404,107.7375 624.2956,112.73 626.2788,113.3303 635.941,116.7186 637.9178,117.5069 640.511,118.166 641.1375,118.0327 697.3959,107.2867 754.2181,122.4483 774.2121,128.2527 777.9621,129.4268 788.0218,133.0402 792.3952,134.7115 796.9891,133.325 799.1219,132.7739 804.3836,130.7817 813.3892,127.5815 813.5514,11.3082 809.9694,-14.3763 813.7704,-18.1667 811.004,-20.8225 811.004,-20.8225 813.7704,-18.1667 809.9694,-14.3763 813.5514,11.3082 813.3892,127.5815 821.8314,124.9751 836.9232,120.6672 837.2615,120.5866 837.2615,120.5866"/>
<polyline fill="none" stroke="#000000" points="562.3973,-1062.4338 563.9545,-1057.2627 555.7662,-1037.6478 537.7433,-991.9446 522.4746,-950.5254 517.4067,-937.6655 530.1168,-901.0311 534.7446,-885.3447 518.8761,-859.7174 502.2369,-830.9379 487.4703,-803.0882 473.0422,-772.701 461.0706,-750.0521 446.8336,-725.3701 444.8072,-722.0975 422.3809,-717.2165 405.9047,-713.1371 402.3492,-712.0475 383.5594,-705.7277 378.8508,-703.8718 377.0572,-703.1124 355.3864,-692.6372 354.3727,-692.0887 352.394,-690.9594 283.394,-649.4877 303.85,-613.78 350.7516,-519.8862 360.5718,-515.2671 362.2823,-514.5054 462.2597,-514.4899 466.9562,-514.6367 475.7961,-514.3256 477.1152,-514.3207 477.9861,-514.3447 479.1387,-514.3 490.8942,-514.5837 492.0434,-514.6476 498.9539,-514.5717 502.4685,-514.6438 504.7401,-514.5389 507.9174,-511.0723 516.0894,-503.2512 519.2158,-500.0219 521.0657,-497.7802 522.1836,-496.5273 525.1921,-493.4096 525.6259,-492.9954 538.1968,-481.9464 546.5035,-475.3438 549.1104,-473.4991 558.1855,-467.8327 559.6501,-467.0454 598.355,-449.4216 605.3248,-445.625 605.9442,-445.233 615.5005,-438.2736 623.232,-431.9376 632.3451,-423.6574 640.1281,-415.2 688.5262,-373.6223 693.2748,-374.5874 709.7955,-378.7194 710.4893,-378.9089 712.5014,-379.5053 716.3184,-380.7262 724.311,-383.4712 737.6464,-388.3641 781.389,-405.4193 816.7427,-375.8885 834.4449,-285.5304 838.3225,-257.6128 839.7073,-244.9862 844.753,-214.9143 854.9127,-163.0559 938.4522,-129.9969 953.8217,-123.5318 969.6628,-116.0933 988.5953,-105.8194 989.4393,-105.321 1017.3118,-87.4683 1019.2975,-86.1503 1097.96,-127.6442 1112.1079,-141.6337 1110.3856,-242.407 1109.3854,-263.8165 1109.5696,-278.7939 1092.3446,-297.4728 1022.6666,-378.6266 1016.7626,-385.0778 1023.019,-393.7591 1067.3158,-464.2657 1075.6229,-476.4614 1062.8024,-501.6991 1043.3334,-548.829 1034.0271,-567.1014 1053.007,-588.4238 1101.4586,-648.1216 1118.3177,-665.8983 1124.0391,-672.3141 1115.3021,-684.6072 1075.9242,-744.0461 1055.5437,-772.6791 1069.5195,-786.8694 1142.7976,-871.2067 1173.9625,-902.655 1178.9274,-908.1663 1192.2438,-924.3765 1195.8845,-937.6687 1186.5027,-945.9285 1138.2748,-990.3262 1063.5414,-1019.4051 1049.3027,-1018.6051 1040.3964,-1018.3269 1026.729,-1018.5828 1024.0166,-1018.7014 1004.2346,-1020.5566 989.1743,-1023.0964 902.0928,-1039.9417 900.2297,-1081.1943 899.6488,-1105.663 886.1029,-1156.885 874.7148,-1210.059 826.284,-1253.1335 769.2473,-1269.369 765.0867,-1268.8 743.2284,-1266.3389 742.0829,-1265.9407 733.3882,-1263.6124 721.8242,-1260.8212 712.0209,-1258.975 666.9017,-1251.6755 591.4378,-1226.0933 538.5059,-1145.0969 542.5405,-1133.2 562.3973,-1062.4338 "/>
<polyline fill="none" stroke="#000000" points="1075.9242,-744.0461 1055.5437,-772.6791 1069.5195,-786.8694 1142.7976,-871.2067 1173.9625,-902.655 1178.9274,-908.1663 1192.2438,-924.3765 1195.8845,-937.6687 1263.0367,-957.3342 1298.6893,-951.4756 1319.9017,-949.0812 1324.4126,-948.6893 1324.7958,-948.666 1328.1348,-948.5486 1373.4224,-948.1248 1466.0242,-864.5489 1466.8595,-863.0721 1475.7023,-859.4037 1490.8197,-853.9166 1569.8986,-829.346 1614.9437,-773.9192 1614.8235,-742.6574 1615.6432,-703.7585 1616.8658,-686.4516 1670.2345,-627.6949 1684.7493,-598.4385 1695.9058,-577.3314 1699.6226,-551.1663 1700.2969,-543.2888 1701.5966,-533.4037 1664.1669,-467.9623 1668.7521,-419.8066 1673.0184,-384.5481 1676.0651,-366.7558 1660.5042,-327.338 1615.0348,-279.4428 1581.3947,-261.4931 1544.9438,-260.138 1521.5959,-257.713 1514.4036,-256.4891 1506.3411,-254.7578 1486.5421,-250.0639 1482.5544,-248.7661 1466.6985,-243.2472 1463.5881,-242.0959 1445.1703,-224.5041 1438.7274,-221.5345 1386.179,-213.7497 1309.7614,-160.3925 1294.4254,-155.8701 1272.0028,-156.3534 1257.0732,-156.2828 1250.5532,-156.0804 1241.9441,-155.5865 1228.8419,-154.1457 1228.0776,-154.0416 1217.2457,-151.9945 1207.5771,-151.2643 1112.1079,-141.6337 1110.3856,-242.407 1109.3854,-263.8165 1109.5696,-278.7939 1092.3446,-297.4728 1022.6666,-378.6266 1016.7626,-385.0778 1023.019,-393.7591 1067.3158,-464.2657 1075.6229,-476.4614 1062.8024,-501.6991 1043.3334,-548.829 1034.0271,-567.1014 1053.007,-588.4238 1101.4586,-648.1216 1118.3177,-665.8983 1124.0391,-672.3141 1115.3021,-684.6072 1075.9242,-744.0461 "/>
<polyline fill="none" stroke="#000000" points="516.0894,-503.2512 519.2158,-500.0219 521.0657,-497.7802 522.1836,-496.5273 525.1921,-493.4096 525.6259,-492.9954 538.1968,-481.9464 546.5035,-475.3438 549.1104,-473.4991 558.1855,-467.8327 559.6501,-467.0454 598.355,-449.4216 605.3248,-445.625 605.9442,-445.233 615.5005,-438.2736 623.232,-431.9376 632.3451,-423.6574 640.1281,-415.2 688.5262,-373.6223 676.6328,-364.4856 666.7861,-357.9951 567.7487,-296.2715 548.1171,-283.3209 542.8778,-279.3182 526.9326,-266.5611 526.828,-266.4739 518.4606,-258.8989 517.049,-257.6728 504.9509,-233.0938 507.663,-222.6645 515.2986,-187.8856 485.176,-151.1 396.4418,-24.738 380.165,-4.8608 357.3236,-11.5451 344.6768,-14.6445 340.3176,-15.5052 331.2092,-17.0882 315.2968,-19.0996 309.0594,-19.5911 308.3125,-19.6145 291.3201,-24.3943 193.906,-49.2226 186.0132,-48.0131 184.6394,-47.7439 167.2957,-43.5947 164.1462,-42.706 151.5718,-38.8851 147.5708,-37.5837 147.1412,-37.4348 139.2793,-37.5847 134.5383,-37.5836 128.6242,-37.4683 127.3778,-38.1467 28.9933,-89.2531 -21.3091,-185.1327 -22.7877,-187.6949 -35.0783,-195.276 -41.6279,-200.3834 -63.2837,-303.9007 -71.1477,-337.1015 -73.0456,-344.3148 -93.1114,-413.7037 -93.046,-416.7225 -79.0531,-443.7225 -48.5509,-459.2096 -47.3304,-460.8437 -23.7344,-495.1092 76.1075,-647.3685 109.7902,-647.4846 111.5608,-647.5512 116.3394,-647.6486 121.8533,-647.5707 130.4461,-647.3009 136.0784,-647.5097 152.1363,-647.5499 157.5277,-647.3773 162.1354,-647.6238 168.4984,-647.7444 170.7038,-647.7482 179.6321,-647.4551 183.1687,-647.5206 195.708,-647.5361 196.2072,-647.5538 202.8727,-647.5599 204.9996,-647.6346 225.3283,-647.9977 282.0901,-649.9794 283.394,-649.4877 303.85,-613.78 350.7516,-519.8862 360.5718,-515.2671 362.2823,-514.5054 462.2597,-514.4899 466.9562,-514.6367 475.7961,-514.3256 477.1152,-514.3207 477.9861,-514.3447 479.1387,-514.3 490.8942,-514.5837 492.0434,-514.6476 498.9539,-514.5717 502.4685,-514.6438 504.7401,-514.5389 507.9174,-511.0723 516.0894,-503.2512 "/>
<polyline fill="none" stroke="#000000" points="378.8508,-703.8718 377.0572,-703.1124 355.3864,-692.6372 354.3727,-692.0887 352.394,-690.9594 283.394,-649.4877 282.0901,-649.9794 225.3283,-647.9977 204.9996,-647.6346 202.8727,-647.5599 196.2072,-647.5538 195.708,-647.5361 183.1687,-647.5206 179.6321,-647.4551 170.7038,-647.7482 168.4984,-647.7444 162.1354,-647.6238 157.5277,-647.3773 152.1363,-647.5499 136.0784,-647.5097 130.4461,-647.3009 121.8533,-647.5707 116.3394,-647.6486 111.5608,-647.5512 109.7902,-647.4846 76.1075,-647.3685 19.0006,-703.1555 -12.1469,-821.75 -27.0901,-865.1395 -18.1452,-884.5501 9.7675,-922.002 11.3525,-948.8078 12.6435,-986.6086 12.9267,-1018.8045 12.0083,-1074.6542 74.6261,-1100.9407 133.3849,-1108.3986 153.0579,-1111.8933 163.7434,-1114.5989 170.428,-1116.46 183.4139,-1120.4019 183.6889,-1120.5131 199.7476,-1136.1165 271.2538,-1170.9132 278.0682,-1169.077 284.2895,-1167.5428 300.711,-1163.8691 304.7654,-1163.1503 318.5491,-1161.3391 330.98,-1160.2789 334.899,-1160.1256 350.3608,-1159.877 362.4307,-1160.2396 364.5359,-1160.3997 375.2625,-1161.7118 389.8709,-1163.8369 409.5502,-1168.0612 426.1646,-1172.0044 538.5059,-1145.0969 542.5405,-1133.2 562.3973,-1062.4338 563.9545,-1057.2627 555.7662,-1037.6478 537.7433,-991.9446 522.4746,-950.5254 517.4067,-937.6655 530.1168,-901.0311 534.7446,-885.3447 518.8761,-859.7174 502.2369,-830.9379 487.4703,-803.0882 473.0422,-772.701 461.0706,-750.0521 446.8336,-725.3701 444.8072,-722.0975 422.3809,-717.2165 405.9047,-713.1371 402.3492,-712.0475 383.5594,-705.7277 378.8508,-703.8718 "/>
<polyline fill="none" stroke="#000000" points="693.2748,-374.5874 688.5262,-373.6223 676.6328,-364.4856 666.7861,-357.9951 567.7487,-296.2715 548.1171,-283.3209 542.8778,-279.3182 526.9326,-266.5611 526.828,-266.4739 518.4606,-258.8989 517.049,-257.6728 504.9509,-233.0938 507.663,-222.6645 515.2986,-187.8856 485.176,-151.1 396.4418,-24.738 380.165,-4.8608 418.0455,67.8616 424.3752,79.1119 500.7362,100.8008 512.4198,101.3063 522.559,101.9884 526.3924,101.5771 540.0313,100.4429 554.1002,100.6316 564.6111,101.0263 569.9698,101.3567 572.7271,101.593 577.9801,102.1696 580.8099,102.5482 595.5812,105.2413 606.404,107.7375 624.2956,112.73 626.2788,113.3303 635.941,116.7186 637.9178,117.5069 640.511,118.166 641.1375,118.0327 697.3959,107.2867 754.2181,122.4483 774.2121,128.2527 777.9621,129.4268 788.0218,133.0402 792.3952,134.7115 796.9891,133.325 799.1219,132.7739 804.3836,130.7817 813.3892,127.5815 821.8314,124.9751 836.9232,120.6672 837.2615,120.5866 844.48,119.0339 882.5239,111.7357 980.577,31.6881 988.5268,10.4015 995.5008,-7.1189 1013.3539,-49.4265 1015.4019,-63.0571 1019.2975,-86.1503 1017.3118,-87.4683 989.4393,-105.321 988.5953,-105.8194 969.6628,-116.0933 953.8217,-123.5318 938.4522,-129.9969 854.9127,-163.0559 844.753,-214.9143 839.7073,-244.9862 838.3225,-257.6128 834.4449,-285.5304 816.7427,-375.8885 781.389,-405.4193 737.6464,-388.3641 724.311,-383.4712 716.3184,-380.7262 712.5014,-379.5053 710.4893,-378.9089 709.7955,-378.7194 693.2748,-374.5874 "/>
<!-- nuxwdog&#45;client&#45;java&#45;&gt;nuxwdog -->
<g id="edge1" class="edge">
<title>nuxwdog&#45;client&#45;java&#45;&gt;nuxwdog</title>
<path fill="none" stroke="#444444" stroke-opacity="0.333333" d="M716.0384,-935.0704C719.644,-972.7446 727.9897,-1059.9489 732.306,-1105.0507"/>
<polygon fill="#444444" fill-opacity="0.333333" stroke="#444444" stroke-opacity="0.333333" points="728.8251,-1105.4179 733.2619,-1115.039 735.7933,-1104.751 728.8251,-1105.4179"/>
</g>
<!-- pki&#45;base&#45;java&#45;&gt;apache&#45;commons&#45;cli -->
<g id="edge2" class="edge">
<title>pki&#45;base&#45;java&#45;&gt;apache&#45;commons&#45;cli</title>
<path fill="none" stroke="#444444" stroke-opacity="0.333333" d="M1189.7033,-581.2023C1219.2242,-599.3127 1264.6274,-627.1666 1296.8339,-646.9246"/>
<polygon fill="#444444" fill-opacity="0.333333" stroke="#444444" stroke-opacity="0.333333" points="1295.1896,-650.022 1305.5437,-652.2678 1298.8501,-644.0553 1295.1896,-650.022"/>
</g>
<!-- pki&#45;base&#45;java&#45;&gt;jakarta&#45;commons&#45;httpclient -->
<g id="edge3" class="edge">
<title>pki&#45;base&#45;java&#45;&gt;jakarta&#45;commons&#45;httpclient</title>
<path fill="none" stroke="#444444" stroke-opacity="0.333333" d="M1240.6511,-546.8936C1253.5113,-544.3286 1266.9534,-541.6475 1280.2055,-539.0042"/>
<polygon fill="#444444" fill-opacity="0.333333" stroke="#444444" stroke-opacity="0.333333" points="1281.1676,-542.3814 1290.2897,-536.9929 1279.7983,-535.5166 1281.1676,-542.3814"/>
</g>
<!-- pki&#45;base&#45;java&#45;&gt;javassist -->
<g id="edge4" class="edge">
<title>pki&#45;base&#45;java&#45;&gt;javassist</title>
<path fill="none" stroke="#444444" stroke-opacity="0.333333" d="M1240.5629,-562.98C1308.3249,-562.98 1404.1806,-562.98 1468.5201,-562.98"/>
<polygon fill="#444444" fill-opacity="0.333333" stroke="#444444" stroke-opacity="0.333333" points="1468.5664,-566.4801 1478.5664,-562.98 1468.5664,-559.4801 1468.5664,-566.4801"/>
</g>
<!-- pki&#45;base&#45;java&#45;&gt;ldapjdk -->
<g id="edge5" class="edge">
<title>pki&#45;base&#45;java&#45;&gt;ldapjdk</title>
<path fill="none" stroke="#444444" stroke-opacity="0.333333" d="M1196.4608,-581.0739C1253.2264,-609.2442 1362.6188,-663.531 1424.446,-694.2131"/>
<polygon fill="#444444" fill-opacity="0.333333" stroke="#444444" stroke-opacity="0.333333" points="1423.0645,-697.4348 1433.5781,-698.745 1426.1763,-691.1645 1423.0645,-697.4348"/>
</g>
<!-- pki&#45;base&#45;java&#45;&gt;pki&#45;base -->
<g id="edge6" class="edge">
<title>pki&#45;base&#45;java&#45;&gt;pki&#45;base</title>
<path fill="none" stroke="#444444" stroke-opacity="0.333333" d="M1110.479,-544.9303C1082.5426,-534.7479 1047.4489,-521.9568 1018.037,-511.2366"/>
<polygon fill="#444444" fill-opacity="0.333333" stroke="#444444" stroke-opacity="0.333333" points="1018.8928,-507.8234 1008.2989,-507.6872 1016.4957,-514.4001 1018.8928,-507.8234"/>
</g>
<!-- pki&#45;base&#45;java&#45;&gt;slf4j -->
<g id="edge7" class="edge">
<title>pki&#45;base&#45;java&#45;&gt;slf4j</title>
<path fill="none" stroke="#444444" stroke-opacity="0.333333" d="M1171.2048,-581.3096C1198.3228,-625.6715 1267.5923,-738.9881 1299.3915,-791.0076"/>
<polygon fill="#444444" fill-opacity="0.333333" stroke="#444444" stroke-opacity="0.333333" points="1296.4949,-792.9798 1304.6968,-799.6865 1302.4674,-789.3288 1296.4949,-792.9798"/>
</g>
<!-- pki&#45;base&#45;java&#45;&gt;slf4j&#45;jdk14 -->
<g id="edge8" class="edge">
<title>pki&#45;base&#45;java&#45;&gt;slf4j&#45;jdk14</title>
<path fill="none" stroke="#444444" stroke-opacity="0.333333" d="M1163.5668,-581.1696C1170.7302,-617.7012 1186.9099,-700.2137 1195.4618,-743.8266"/>
<polygon fill="#444444" fill-opacity="0.333333" stroke="#444444" stroke-opacity="0.333333" points="1192.0534,-744.634 1197.4123,-753.7736 1198.9226,-743.2869 1192.0534,-744.634"/>
</g>
<!-- pki&#45;base&#45;java&#45;&gt;xalan&#45;j2 -->
<g id="edge9" class="edge">
<title>pki&#45;base&#45;java&#45;&gt;xalan&#45;j2</title>
<path fill="none" stroke="#444444" stroke-opacity="0.333333" d="M1165.1004,-544.8209C1178.6354,-496.6324 1215.5331,-365.2653 1231.7625,-307.4839"/>
<polygon fill="#444444" fill-opacity="0.333333" stroke="#444444" stroke-opacity="0.333333" points="1235.2075,-308.1617 1234.5421,-297.5878 1228.4683,-306.2688 1235.2075,-308.1617"/>
</g>
<!-- pki&#45;base&#45;java&#45;&gt;xerces&#45;j2 -->
<g id="edge10" class="edge">
<title>pki&#45;base&#45;java&#45;&gt;xerces&#45;j2</title>
<path fill="none" stroke="#444444" stroke-opacity="0.333333" d="M1174.789,-544.6669C1205.0692,-507.1711 1274.2038,-421.5622 1309.0713,-378.3859"/>
<polygon fill="#444444" fill-opacity="0.333333" stroke="#444444" stroke-opacity="0.333333" points="1311.8064,-380.5698 1315.3662,-370.5909 1306.3605,-376.1718 1311.8064,-380.5698"/>
</g>
<!-- pki&#45;base&#45;java&#45;&gt;xml&#45;commons&#45;apis -->
<g id="edge11" class="edge">
<title>pki&#45;base&#45;java&#45;&gt;xml&#45;commons&#45;apis</title>
<path fill="none" stroke="#444444" stroke-opacity="0.333333" d="M1160.6203,-544.6605C1161.6498,-514.2509 1163.7189,-453.1387 1164.9388,-417.1088"/>
<polygon fill="#444444" fill-opacity="0.333333" stroke="#444444" stroke-opacity="0.333333" points="1168.4476,-416.9068 1165.2881,-406.7941 1161.4516,-416.6699 1168.4476,-416.9068"/>
</g>
<!-- pki&#45;base&#45;java&#45;&gt;xml&#45;commons&#45;resolver -->
<g id="edge12" class="edge">
<title>pki&#45;base&#45;java&#45;&gt;xml&#45;commons&#45;resolver</title>
<path fill="none" stroke="#444444" stroke-opacity="0.333333" d="M1196.1074,-544.8479C1257.0097,-514.2644 1379.9954,-452.5045 1446.448,-419.1339"/>
<polygon fill="#444444" fill-opacity="0.333333" stroke="#444444" stroke-opacity="0.333333" points="1448.0713,-422.2352 1455.4372,-414.6197 1444.93,-415.9797 1448.0713,-422.2352"/>
</g>
<!-- pki&#45;base&#45;&gt;python&#45;nss -->
<g id="edge13" class="edge">
<title>pki&#45;base&#45;&gt;python&#45;nss</title>
<path fill="none" stroke="#444444" stroke-opacity="0.333333" d="M960.0225,-471.3763C962.8937,-434.1108 969.4587,-348.9004 972.89,-304.3647"/>
<polygon fill="#444444" fill-opacity="0.333333" stroke="#444444" stroke-opacity="0.333333" points="976.3924,-304.467 973.671,-294.2277 969.4131,-303.9292 976.3924,-304.467"/>
</g>
<!-- slf4j&#45;jdk14&#45;&gt;slf4j -->
<g id="edge14" class="edge">
<title>slf4j&#45;jdk14&#45;&gt;slf4j</title>
<path fill="none" stroke="#444444" stroke-opacity="0.333333" d="M1246.372,-790.1635C1253.6107,-793.0501 1261.1167,-796.0434 1268.4009,-798.9482"/>
<polygon fill="#444444" fill-opacity="0.333333" stroke="#444444" stroke-opacity="0.333333" points="1267.5654,-802.383 1278.1506,-802.8361 1270.1584,-795.8809 1267.5654,-802.383"/>
</g>
<!-- xalan&#45;j2&#45;&gt;xerces&#45;j2 -->
<g id="edge15" class="edge">
<title>xalan&#45;j2&#45;&gt;xerces&#45;j2</title>
<path fill="none" stroke="#444444" stroke-opacity="0.333333" d="M1253.6041,-297.8828C1263.1791,-307.0244 1276.3226,-318.1305 1289.0237,-327.9672"/>
<polygon fill="#444444" fill-opacity="0.333333" stroke="#444444" stroke-opacity="0.333333" points="1287.1811,-330.9623 1297.2644,-334.2146 1291.41,-325.3841 1287.1811,-330.9623"/>
</g>
<!-- xalan&#45;j2&#45;&gt;xml&#45;commons&#45;apis -->
<g id="edge16" class="edge">
<title>xalan&#45;j2&#45;&gt;xml&#45;commons&#45;apis</title>
<path fill="none" stroke="#444444" stroke-opacity="0.333333" d="M1227.4299,-297.6023C1215.5348,-315.2174 1197.2898,-342.2358 1183.7528,-362.2824"/>
<polygon fill="#444444" fill-opacity="0.333333" stroke="#444444" stroke-opacity="0.333333" points="1180.7839,-360.4248 1178.0881,-370.671 1186.5851,-364.3423 1180.7839,-360.4248"/>
</g>
<!-- xerces&#45;j2&#45;&gt;xalan&#45;j2 -->
<g id="edge17" class="edge">
<title>xerces&#45;j2&#45;&gt;xalan&#45;j2</title>
<path fill="none" stroke="#444444" stroke-opacity="0.333333" d="M1315.9959,-334.1672C1306.4209,-325.0256 1293.2774,-313.9195 1280.5763,-304.0828"/>
<polygon fill="#444444" fill-opacity="0.333333" stroke="#444444" stroke-opacity="0.333333" points="1282.4189,-301.0877 1272.3356,-297.8354 1278.19,-306.6659 1282.4189,-301.0877"/>
</g>
<!-- xerces&#45;j2&#45;&gt;xml&#45;commons&#45;apis -->
<g id="edge18" class="edge">
<title>xerces&#45;j2&#45;&gt;xml&#45;commons&#45;apis</title>
<path fill="none" stroke="#444444" stroke-opacity="0.333333" d="M1270.7561,-365.5571C1266.404,-366.5185 1261.9588,-367.5004 1257.4752,-368.4909"/>
<polygon fill="#444444" fill-opacity="0.333333" stroke="#444444" stroke-opacity="0.333333" points="1256.6291,-365.0933 1247.6195,-370.668 1258.1391,-371.9285 1256.6291,-365.0933"/>
</g>
<!-- xerces&#45;j2&#45;&gt;xml&#45;commons&#45;resolver -->
<g id="edge19" class="edge">
<title>xerces&#45;j2&#45;&gt;xml&#45;commons&#45;resolver</title>
<path fill="none" stroke="#444444" stroke-opacity="0.333333" d="M1389.2196,-368.6188C1397.788,-370.9553 1406.7053,-373.387 1415.5457,-375.7978"/>
<polygon fill="#444444" fill-opacity="0.333333" stroke="#444444" stroke-opacity="0.333333" points="1414.9029,-379.2502 1425.4714,-378.5044 1416.7445,-372.4968 1414.9029,-379.2502"/>
</g>
<!-- pki&#45;ca&#45;&gt;pki&#45;server -->
<g id="edge20" class="edge">
<title>pki&#45;ca&#45;&gt;pki&#45;server</title>
<path fill="none" stroke="#444444" stroke-opacity="0.333333" d="M634.7592,-519.223C647.3912,-531.4254 664.2391,-547.7004 678.1843,-561.1714"/>
<polygon fill="#444444" fill-opacity="0.333333" stroke="#444444" stroke-opacity="0.333333" points="675.9637,-563.8926 685.5878,-568.3231 680.8272,-558.858 675.9637,-563.8926"/>
</g>
<!-- pki&#45;server&#45;&gt;nuxwdog&#45;client&#45;java -->
<g id="edge21" class="edge">
<title>pki&#45;server&#45;&gt;nuxwdog&#45;client&#45;java</title>
<path fill="none" stroke="#444444" stroke-opacity="0.333333" d="M704.8241,-604.6176C706.4869,-659.3768 711.4427,-822.5824 713.4507,-888.7124"/>
<polygon fill="#444444" fill-opacity="0.333333" stroke="#444444" stroke-opacity="0.333333" points="709.9556,-888.9297 713.7576,-898.8188 716.9524,-888.7171 709.9556,-888.9297"/>
</g>
<!-- pki&#45;server&#45;&gt;pki&#45;base&#45;java -->
<g id="edge22" class="edge">
<title>pki&#45;server&#45;&gt;pki&#45;base&#45;java</title>
<path fill="none" stroke="#444444" stroke-opacity="0.333333" d="M769.081,-583.0436C847.6391,-579.0117 980.4951,-572.193 1069.2191,-567.6393"/>
<polygon fill="#444444" fill-opacity="0.333333" stroke="#444444" stroke-opacity="0.333333" points="1069.4676,-571.1312 1079.275,-567.1231 1069.1087,-564.1404 1069.4676,-571.1312"/>
</g>
<!-- pki&#45;server&#45;&gt;pki&#45;base -->
<g id="edge23" class="edge">
<title>pki&#45;server&#45;&gt;pki&#45;base</title>
<path fill="none" stroke="#444444" stroke-opacity="0.333333" d="M751.8129,-568.2781C794.3661,-552.085 856.8227,-528.3178 901.9558,-511.1429"/>
<polygon fill="#444444" fill-opacity="0.333333" stroke="#444444" stroke-opacity="0.333333" points="903.209,-514.411 911.3103,-507.5832 900.7193,-507.8686 903.209,-514.411"/>
</g>
<!-- pki&#45;server&#45;&gt;libselinux&#45;python -->
<g id="edge24" class="edge">
<title>pki&#45;server&#45;&gt;libselinux&#45;python</title>
<path fill="none" stroke="#444444" stroke-opacity="0.333333" d="M683.7622,-568.0518C649.3281,-537.2942 579.839,-475.2243 540.8367,-440.3862"/>
<polygon fill="#444444" fill-opacity="0.333333" stroke="#444444" stroke-opacity="0.333333" points="542.7899,-437.4379 533.0003,-433.3865 538.1267,-442.6585 542.7899,-437.4379"/>
</g>
<!-- pki&#45;server&#45;&gt;net&#45;tools -->
<g id="edge25" class="edge">
<title>pki&#45;server&#45;&gt;net&#45;tools</title>
<path fill="none" stroke="#444444" stroke-opacity="0.333333" d="M689.7291,-604.6439C666.4203,-633.9367 620.603,-691.5166 593.8513,-725.1362"/>
<polygon fill="#444444" fill-opacity="0.333333" stroke="#444444" stroke-opacity="0.333333" points="590.9738,-723.1312 587.4861,-733.1355 596.4514,-727.4898 590.9738,-723.1312"/>
</g>
<!-- pki&#45;server&#45;&gt;openldap&#45;clients -->
<g id="edge26" class="edge">
<title>pki&#45;server&#45;&gt;openldap&#45;clients</title>
<path fill="none" stroke="#444444" stroke-opacity="0.333333" d="M734.5823,-604.385C751.2243,-614.2756 772.0587,-626.6578 789.9642,-637.2992"/>
<polygon fill="#444444" fill-opacity="0.333333" stroke="#444444" stroke-opacity="0.333333" points="788.6383,-640.5827 799.0229,-642.683 792.2146,-634.5652 788.6383,-640.5827"/>
</g>
<!-- pki&#45;server&#45;&gt;pki&#45;tools -->
<g id="edge27" class="edge">
<title>pki&#45;server&#45;&gt;pki&#45;tools</title>
<path fill="none" stroke="#444444" stroke-opacity="0.333333" d="M768.8456,-602.6484C815.0286,-614.2903 877.1129,-629.9406 924.3308,-641.8434"/>
<polygon fill="#444444" fill-opacity="0.333333" stroke="#444444" stroke-opacity="0.333333" points="923.6177,-645.2731 934.1699,-644.3237 925.3288,-638.4854 923.6177,-645.2731"/>
</g>
<!-- pki&#45;server&#45;&gt;policycoreutils&#45;python -->
<g id="edge28" class="edge">
<title>pki&#45;server&#45;&gt;policycoreutils&#45;python</title>
<path fill="none" stroke="#444444" stroke-opacity="0.333333" d="M674.1747,-568.2068C609.605,-529.2376 457.8469,-437.6482 386.2964,-394.4658"/>
<polygon fill="#444444" fill-opacity="0.333333" stroke="#444444" stroke-opacity="0.333333" points="387.9391,-391.3693 377.569,-389.1987 384.3221,-397.3624 387.9391,-391.3693"/>
</g>
<!-- pki&#45;server&#45;&gt;python2&#45;lxml -->
<g id="edge29" class="edge">
<title>pki&#45;server&#45;&gt;python2&#45;lxml</title>
<path fill="none" stroke="#444444" stroke-opacity="0.333333" d="M679.9835,-604.5638C622.5347,-647.6007 478.2676,-755.676 413.5049,-804.1919"/>
<polygon fill="#444444" fill-opacity="0.333333" stroke="#444444" stroke-opacity="0.333333" points="411.1825,-801.5585 405.2776,-810.3552 415.3794,-807.1608 411.1825,-801.5585"/>
</g>
<!-- pki&#45;server&#45;&gt;python&#45;ldap -->
<g id="edge30" class="edge">
<title>pki&#45;server&#45;&gt;python&#45;ldap</title>
<path fill="none" stroke="#444444" stroke-opacity="0.333333" d="M704.0155,-567.983C703.2184,-510.3776 700.7653,-333.1146 699.8031,-263.5844"/>
<polygon fill="#444444" fill-opacity="0.333333" stroke="#444444" stroke-opacity="0.333333" points="703.3001,-263.3356 699.6619,-253.385 696.3007,-263.4325 703.3001,-263.3356"/>
</g>
<!-- pki&#45;server&#45;&gt;velocity -->
<g id="edge31" class="edge">
<title>pki&#45;server&#45;&gt;velocity</title>
<path fill="none" stroke="#444444" stroke-opacity="0.333333" d="M639.5679,-594.5939C612.1753,-598.0756 580.3371,-602.1224 552.9815,-605.5994"/>
<polygon fill="#444444" fill-opacity="0.333333" stroke="#444444" stroke-opacity="0.333333" points="552.2142,-602.1687 542.7353,-606.9017 553.0969,-609.1128 552.2142,-602.1687"/>
</g>
<!-- pki&#45;tools&#45;&gt;pki&#45;base&#45;java -->
<g id="edge32" class="edge">
<title>pki&#45;tools&#45;&gt;pki&#45;base&#45;java</title>
<path fill="none" stroke="#444444" stroke-opacity="0.333333" d="M1024.9148,-641.1911C1051.8722,-625.5834 1090.9345,-602.9673 1120.127,-586.0655"/>
<polygon fill="#444444" fill-opacity="0.333333" stroke="#444444" stroke-opacity="0.333333" points="1121.9451,-589.0572 1128.8455,-581.0177 1118.4376,-582.9993 1121.9451,-589.0572"/>
</g>
<!-- pki&#45;tools&#45;&gt;pki&#45;base -->
<g id="edge33" class="edge">
<title>pki&#45;tools&#45;&gt;pki&#45;base</title>
<path fill="none" stroke="#444444" stroke-opacity="0.333333" d="M989.8744,-641.1459C983.7694,-611.5403 971.6314,-552.678 964.4099,-517.6576"/>
<polygon fill="#444444" fill-opacity="0.333333" stroke="#444444" stroke-opacity="0.333333" points="967.7862,-516.7005 962.3387,-507.6135 960.9305,-518.1143 967.7862,-516.7005"/>
</g>
<!-- pki&#45;tools&#45;&gt;openldap&#45;clients -->
<g id="edge34" class="edge">
<title>pki&#45;tools&#45;&gt;openldap&#45;clients</title>
<path fill="none" stroke="#444444" stroke-opacity="0.333333" d="M934.3653,-659.8443C934.2046,-659.8458 934.0438,-659.8472 933.8829,-659.8487"/>
<polygon fill="#444444" fill-opacity="0.333333" stroke="#444444" stroke-opacity="0.333333" points="936.5341,-656.3245 926.5661,-659.9146 936.5973,-663.3242 936.5341,-656.3245"/>
</g>
<!-- pki&#45;tools&#45;&gt;nss&#45;tools -->
<g id="edge35" class="edge">
<title>pki&#45;tools&#45;&gt;nss&#45;tools</title>
<path fill="none" stroke="#444444" stroke-opacity="0.333333" d="M995.7449,-677.4762C1000.4512,-717.7106 1011.7811,-814.5711 1017.4108,-862.7"/>
<polygon fill="#444444" fill-opacity="0.333333" stroke="#444444" stroke-opacity="0.333333" points="1013.9468,-863.2126 1018.5849,-872.7382 1020.8994,-862.3992 1013.9468,-863.2126"/>
</g>
<!-- policycoreutils&#45;python&#45;&gt;libselinux&#45;python -->
<g id="edge36" class="edge">
<title>policycoreutils&#45;python&#45;&gt;libselinux&#45;python</title>
<path fill="none" stroke="#444444" stroke-opacity="0.333333" d="M415.2515,-389.1998C421.8872,-390.9714 428.6561,-392.7785 435.3785,-394.5732"/>
<polygon fill="#444444" fill-opacity="0.333333" stroke="#444444" stroke-opacity="0.333333" points="434.6091,-397.9903 445.1736,-397.1882 436.4148,-391.2272 434.6091,-397.9903"/>
</g>
<!-- policycoreutils&#45;python&#45;&gt;audit&#45;libs&#45;python -->
<g id="edge37" class="edge">
<title>policycoreutils&#45;python&#45;&gt;audit&#45;libs&#45;python</title>
<path fill="none" stroke="#444444" stroke-opacity="0.333333" d="M245.2852,-353.1563C235.01,-351.3496 224.5384,-349.5085 214.1693,-347.6853"/>
<polygon fill="#444444" fill-opacity="0.333333" stroke="#444444" stroke-opacity="0.333333" points="214.7239,-344.2292 204.2689,-345.9445 213.5117,-351.1234 214.7239,-344.2292"/>
</g>
<!-- policycoreutils&#45;python&#45;&gt;libsemanage&#45;python -->
<g id="edge38" class="edge">
<title>policycoreutils&#45;python&#45;&gt;libsemanage&#45;python</title>
<path fill="none" stroke="#444444" stroke-opacity="0.333333" d="M315.0263,-389.1696C284.2061,-406.1679 237.8532,-431.733 204.3677,-450.2013"/>
<polygon fill="#444444" fill-opacity="0.333333" stroke="#444444" stroke-opacity="0.333333" points="202.3541,-447.3148 195.288,-455.2091 205.7348,-453.4444 202.3541,-447.3148"/>
</g>
<!-- policycoreutils&#45;python&#45;&gt;python2&#45;IPy -->
<g id="edge39" class="edge">
<title>policycoreutils&#45;python&#45;&gt;python2&#45;IPy</title>
<path fill="none" stroke="#444444" stroke-opacity="0.333333" d="M346.1415,-353.1516C342.8778,-314.949 335.2385,-225.5283 331.3091,-179.5333"/>
<polygon fill="#444444" fill-opacity="0.333333" stroke="#444444" stroke-opacity="0.333333" points="334.7783,-179.023 330.4397,-169.3573 327.8037,-179.6189 334.7783,-179.023"/>
</g>
<!-- policycoreutils&#45;python&#45;&gt;setools&#45;python -->
<g id="edge40" class="edge">
<title>policycoreutils&#45;python&#45;&gt;setools&#45;python</title>
<path fill="none" stroke="#444444" stroke-opacity="0.333333" d="M329.4283,-352.9826C297.722,-321.4055 232.4099,-256.3594 196.3017,-220.3982"/>
<polygon fill="#444444" fill-opacity="0.333333" stroke="#444444" stroke-opacity="0.333333" points="198.6177,-217.7652 189.0624,-213.1885 193.6781,-222.7251 198.6177,-217.7652"/>
</g>
<!-- python2&#45;lxml&#45;&gt;python2&#45;cssselect -->
<g id="edge41" class="edge">
<title>python2&#45;lxml&#45;&gt;python2&#45;cssselect</title>
<path fill="none" stroke="#444444" stroke-opacity="0.333333" d="M358.0879,-846.6818C322.5283,-874.8244 254.2642,-928.85 214.4397,-960.3679"/>
<polygon fill="#444444" fill-opacity="0.333333" stroke="#444444" stroke-opacity="0.333333" points="212.0646,-957.7841 206.3952,-966.7344 216.4087,-963.273 212.0646,-957.7841"/>
</g>
<!-- python2&#45;lxml&#45;&gt;python2&#45;html5lib -->
<g id="edge42" class="edge">
<title>python2&#45;lxml&#45;&gt;python2&#45;html5lib</title>
<path fill="none" stroke="#444444" stroke-opacity="0.333333" d="M305.3429,-826.1778C291.9039,-825.7785 277.6814,-825.3559 263.5676,-824.9366"/>
<polygon fill="#444444" fill-opacity="0.333333" stroke="#444444" stroke-opacity="0.333333" points="263.422,-821.4308 253.3225,-824.6322 263.2141,-828.4278 263.422,-821.4308"/>
</g>
<!-- python2&#45;lxml&#45;&gt;python&#45;beautifulsoup4 -->
<g id="edge43" class="edge">
<title>python2&#45;lxml&#45;&gt;python&#45;beautifulsoup4</title>
<path fill="none" stroke="#444444" stroke-opacity="0.333333" d="M373.366,-846.4882C363.1556,-881.5481 347.6697,-959.0229 342.2917,-1000.8386"/>
<polygon fill="#444444" fill-opacity="0.333333" stroke="#444444" stroke-opacity="0.333333" points="338.8007,-1000.5603 341.1272,-1010.8965 345.7542,-1001.3654 338.8007,-1000.5603"/>
</g>
<!-- python&#45;ldap&#45;&gt;python2&#45;pyasn1&#45;modules -->
<g id="edge44" class="edge">
<title>python&#45;ldap&#45;&gt;python2&#45;pyasn1&#45;modules</title>
<path fill="none" stroke="#444444" stroke-opacity="0.333333" d="M689.223,-216.8728C668.5388,-179.7009 621.534,-95.2279 597.3302,-51.7311"/>
<polygon fill="#444444" fill-opacity="0.333333" stroke="#444444" stroke-opacity="0.333333" points="600.3109,-49.8895 592.3901,-42.853 594.1941,-53.2932 600.3109,-49.8895"/>
</g>
<!-- python&#45;ldap&#45;&gt;python2&#45;pyasn1 -->
<g id="edge45" class="edge">
<title>python&#45;ldap&#45;&gt;python2&#45;pyasn1</title>
<path fill="none" stroke="#444444" stroke-opacity="0.333333" d="M708.2309,-217.0369C726.748,-178.9506 769.7633,-90.4756 791.6673,-45.423"/>
<polygon fill="#444444" fill-opacity="0.333333" stroke="#444444" stroke-opacity="0.333333" points="794.9051,-46.768 796.1299,-36.2442 788.6097,-43.7072 794.9051,-46.768"/>
</g>
<!-- python&#45;beautifulsoup4&#45;&gt;python2&#45;lxml -->
<g id="edge47" class="edge">
<title>python&#45;beautifulsoup4&#45;&gt;python2&#45;lxml</title>
<path fill="none" stroke="#444444" stroke-opacity="0.333333" d="M349.434,-1010.8418C359.6444,-975.7819 375.1303,-898.3071 380.5083,-856.4914"/>
<polygon fill="#444444" fill-opacity="0.333333" stroke="#444444" stroke-opacity="0.333333" points="383.9993,-856.7697 381.6728,-846.4335 377.0458,-855.9646 383.9993,-856.7697"/>
</g>
<!-- python2&#45;pyasn1&#45;modules&#45;&gt;python2&#45;pyasn1 -->
<g id="edge48" class="edge">
<title>python2&#45;pyasn1&#45;modules&#45;&gt;python2&#45;pyasn1</title>
<path fill="none" stroke="#444444" stroke-opacity="0.333333" d="M710.8822,-20.8478C710.9665,-20.8452 711.0509,-20.8426 711.1353,-20.8401"/>
<polygon fill="#444444" fill-opacity="0.333333" stroke="#444444" stroke-opacity="0.333333" points="709.0451,-24.4051 718.9346,-20.6041 708.8333,-17.4083 709.0451,-24.4051"/>
</g>
<!-- pki&#45;kra&#45;&gt;pki&#45;server -->
<g id="edge46" class="edge">
<title>pki&#45;kra&#45;&gt;pki&#45;server</title>
<path fill="none" stroke="#444444" stroke-opacity="0.333333" d="M723.7415,-752.9698C719.9705,-720.7044 712.0462,-652.904 707.5561,-614.4862"/>
<polygon fill="#444444" fill-opacity="0.333333" stroke="#444444" stroke-opacity="0.333333" points="711.0243,-614.0095 706.387,-604.4835 704.0716,-614.8222 711.0243,-614.0095"/>
</g>
<!-- nuxwdog&#45;client&#45;java -->
<g id="node1" class="node">
<title>nuxwdog&#45;client&#45;java</title>
<text text-anchor="middle" x="714.31" y="-913.31" font-family="monospace" font-size="14.00" fill="#000000">nuxwdog&#45;client&#45;java</text>
</g>
<!-- nuxwdog -->
<g id="node2" class="node">
<title>nuxwdog</title>
<text text-anchor="middle" x="735" y="-1129.5" font-family="monospace" font-size="14.00" fill="#000000">nuxwdog</text>
</g>
<!-- pki&#45;base&#45;java -->
<g id="node3" class="node">
<title>pki&#45;base&#45;java</title>
<text text-anchor="middle" x="1160" y="-559.28" font-family="monospace" font-size="14.00" fill="#000000">pki&#45;base&#45;java</text>
</g>
<!-- apache&#45;commons&#45;cli -->
<g id="node4" class="node">
<title>apache&#45;commons&#45;cli</title>
<text text-anchor="middle" x="1335.1" y="-666.7" font-family="monospace" font-size="14.00" fill="#000000">apache&#45;commons&#45;cli</text>
</g>
<!-- jakarta&#45;commons&#45;httpclient -->
<g id="node5" class="node">
<title>jakarta&#45;commons&#45;httpclient</title>
<text text-anchor="middle" x="1380.8" y="-515.24" font-family="monospace" font-size="14.00" fill="#000000">jakarta&#45;commons&#45;httpclient</text>
</g>
<!-- javassist -->
<g id="node6" class="node">
<title>javassist</title>
<text text-anchor="middle" x="1537.7" y="-559.28" font-family="monospace" font-size="14.00" fill="#000000">javassist</text>
</g>
<!-- ldapjdk -->
<g id="node7" class="node">
<title>ldapjdk</title>
<text text-anchor="middle" x="1469.9" y="-713.07" font-family="monospace" font-size="14.00" fill="#000000">ldapjdk</text>
</g>
<!-- pki&#45;base -->
<g id="node8" class="node">
<title>pki&#45;base</title>
<text text-anchor="middle" x="958.62" y="-485.88" font-family="monospace" font-size="14.00" fill="#000000">pki&#45;base</text>
</g>
<!-- slf4j -->
<g id="node9" class="node">
<title>slf4j</title>
<text text-anchor="middle" x="1315.8" y="-814.15" font-family="monospace" font-size="14.00" fill="#000000">slf4j</text>
</g>
<!-- slf4j&#45;jdk14 -->
<g id="node10" class="node">
<title>slf4j&#45;jdk14</title>
<text text-anchor="middle" x="1201" y="-768.37" font-family="monospace" font-size="14.00" fill="#000000">slf4j&#45;jdk14</text>
</g>
<!-- xalan&#45;j2 -->
<g id="node11" class="node">
<title>xalan&#45;j2</title>
<text text-anchor="middle" x="1239.6" y="-275.88" font-family="monospace" font-size="14.00" fill="#000000">xalan&#45;j2</text>
</g>
<!-- xerces&#45;j2 -->
<g id="node12" class="node">
<title>xerces&#45;j2</title>
<text text-anchor="middle" x="1330" y="-348.77" font-family="monospace" font-size="14.00" fill="#000000">xerces&#45;j2</text>
</g>
<!-- xml&#45;commons&#45;apis -->
<g id="node13" class="node">
<title>xml&#45;commons&#45;apis</title>
<text text-anchor="middle" x="1165.9" y="-385.02" font-family="monospace" font-size="14.00" fill="#000000">xml&#45;commons&#45;apis</text>
</g>
<!-- xml&#45;commons&#45;resolver -->
<g id="node14" class="node">
<title>xml&#45;commons&#45;resolver</title>
<text text-anchor="middle" x="1491.5" y="-392.81" font-family="monospace" font-size="14.00" fill="#000000">xml&#45;commons&#45;resolver</text>
</g>
<!-- python&#45;nss -->
<g id="node15" class="node">
<title>python&#45;nss</title>
<text text-anchor="middle" x="975.07" y="-272.37" font-family="monospace" font-size="14.00" fill="#000000">python&#45;nss</text>
</g>
<!-- pki&#45;ca -->
<g id="node16" class="node">
<title>pki&#45;ca</title>
<text text-anchor="middle" x="616.05" y="-497.45" font-family="monospace" font-size="14.00" fill="#000000">pki&#45;ca</text>
</g>
<!-- pki&#45;server -->
<g id="node17" class="node">
<title>pki&#45;server</title>
<text text-anchor="middle" x="704.27" y="-582.67" font-family="monospace" font-size="14.00" fill="#000000">pki&#45;server</text>
</g>
<!-- libselinux&#45;python -->
<g id="node18" class="node">
<title>libselinux&#45;python</title>
<text text-anchor="middle" x="512.64" y="-411.5" font-family="monospace" font-size="14.00" fill="#000000">libselinux&#45;python</text>
</g>
<!-- net&#45;tools -->
<g id="node19" class="node">
<title>net&#45;tools</title>
<text text-anchor="middle" x="573.08" y="-747.54" font-family="monospace" font-size="14.00" fill="#000000">net&#45;tools</text>
</g>
<!-- openldap&#45;clients -->
<g id="node20" class="node">
<title>openldap&#45;clients</title>
<text text-anchor="middle" x="829.49" y="-657.09" font-family="monospace" font-size="14.00" fill="#000000">openldap&#45;clients</text>
</g>
<!-- pki&#45;tools -->
<g id="node21" class="node">
<title>pki&#45;tools</title>
<text text-anchor="middle" x="993.62" y="-655.61" font-family="monospace" font-size="14.00" fill="#000000">pki&#45;tools</text>
</g>
<!-- policycoreutils&#45;python -->
<g id="node22" class="node">
<title>policycoreutils&#45;python</title>
<text text-anchor="middle" x="347.68" y="-367.46" font-family="monospace" font-size="14.00" fill="#000000">policycoreutils&#45;python</text>
</g>
<!-- python2&#45;lxml -->
<g id="node23" class="node">
<title>python2&#45;lxml</title>
<text text-anchor="middle" x="381.15" y="-824.73" font-family="monospace" font-size="14.00" fill="#000000">python2&#45;lxml</text>
</g>
<!-- python&#45;ldap -->
<g id="node24" class="node">
<title>python&#45;ldap</title>
<text text-anchor="middle" x="699.41" y="-231.48" font-family="monospace" font-size="14.00" fill="#000000">python&#45;ldap</text>
</g>
<!-- velocity -->
<g id="node25" class="node">
<title>velocity</title>
<text text-anchor="middle" x="488.62" y="-610.08" font-family="monospace" font-size="14.00" fill="#000000">velocity</text>
</g>
<!-- nss&#45;tools -->
<g id="node26" class="node">
<title>nss&#45;tools</title>
<text text-anchor="middle" x="1020.7" y="-887.12" font-family="monospace" font-size="14.00" fill="#000000">nss&#45;tools</text>
</g>
<!-- audit&#45;libs&#45;python -->
<g id="node27" class="node">
<title>audit&#45;libs&#45;python</title>
<text text-anchor="middle" x="102.04" y="-324.27" font-family="monospace" font-size="14.00" fill="#000000">audit&#45;libs&#45;python</text>
</g>
<!-- libsemanage&#45;python -->
<g id="node28" class="node">
<title>libsemanage&#45;python</title>
<text text-anchor="middle" x="162.65" y="-469.51" font-family="monospace" font-size="14.00" fill="#000000">libsemanage&#45;python</text>
</g>
<!-- python2&#45;IPy -->
<g id="node29" class="node">
<title>python2&#45;IPy</title>
<text text-anchor="middle" x="328.88" y="-147.4" font-family="monospace" font-size="14.00" fill="#000000">python2&#45;IPy</text>
</g>
<!-- setools&#45;python -->
<g id="node30" class="node">
<title>setools&#45;python</title>
<text text-anchor="middle" x="170.91" y="-191.41" font-family="monospace" font-size="14.00" fill="#000000">setools&#45;python</text>
</g>
<!-- python2&#45;cssselect -->
<g id="node31" class="node">
<title>python2&#45;cssselect</title>
<text text-anchor="middle" x="183.48" y="-981.17" font-family="monospace" font-size="14.00" fill="#000000">python2&#45;cssselect</text>
</g>
<!-- python2&#45;html5lib -->
<g id="node32" class="node">
<title>python2&#45;html5lib</title>
<text text-anchor="middle" x="156.31" y="-818.05" font-family="monospace" font-size="14.00" fill="#000000">python2&#45;html5lib</text>
</g>
<!-- python&#45;beautifulsoup4 -->
<g id="node33" class="node">
<title>python&#45;beautifulsoup4</title>
<text text-anchor="middle" x="341.65" y="-1025.2" font-family="monospace" font-size="14.00" fill="#000000">python&#45;beautifulsoup4</text>
</g>
<!-- python2&#45;pyasn1&#45;modules -->
<g id="node34" class="node">
<title>python2&#45;pyasn1&#45;modules</title>
<text text-anchor="middle" x="582.31" y="-21.038" font-family="monospace" font-size="14.00" fill="#000000">python2&#45;pyasn1&#45;modules</text>
</g>
<!-- python2&#45;pyasn1 -->
<g id="node35" class="node">
<title>python2&#45;pyasn1</title>
<text text-anchor="middle" x="805" y="-14.3" font-family="monospace" font-size="14.00" fill="#000000">python2&#45;pyasn1</text>
</g>
<!-- pki&#45;kra -->
<g id="node36" class="node">
<title>pki&#45;kra</title>
<text text-anchor="middle" x="725.85" y="-767.31" font-family="monospace" font-size="14.00" fill="#000000">pki&#45;kra</text>
</g>
</g>
</svg>
