<?xml version="1.0" encoding="UTF-8" standalone="no"?>
<!DOCTYPE svg PUBLIC "-//W3C//DTD SVG 1.1//EN"
 "http://www.w3.org/Graphics/SVG/1.1/DTD/svg11.dtd">
<!-- Generated by graphviz version 2.40.1 (20161225.0304)
 -->
<!-- Title: G Pages: 1 -->
<svg width="997pt" height="603pt"
 viewBox="0.00 0.00 997.40 603.34" xmlns="http://www.w3.org/2000/svg" xmlns:xlink="http://www.w3.org/1999/xlink">
<g id="graph0" class="graph" transform="scale(1 1) rotate(0) translate(80.7885 483.8912)">
<title>G</title>
<polygon fill="#dae2ff" stroke="transparent" points="-80.7885,119.4535 -80.7885,-483.8912 916.6093,-483.8912 916.6093,119.4535 -80.7885,119.4535"/>
<polygon fill="#fbb4ae" stroke="#fbb4ae" points="785.4578,-384.9077 786.4968,-356.5951 786.4968,-356.5951 785.4578,-384.9077 783.765,-385.2057 781.5023,-242.8815 781.5023,-242.8815 783.765,-385.2057 782.1258,-385.5311 776.645,-305.9046 769.1472,-244.9084 764.7423,-247.6055 764.7423,-247.6055 769.1472,-244.9084 776.645,-305.9046 782.1258,-385.5311 762.6172,-390.293 753.9695,-400.8282 629.3373,-462.8169 627.1243,-388.9756 627.1243,-388.9756 629.3373,-462.8169 615.2384,-470.7382 617.3313,-338.8358 618.1657,-338.5671 614.1739,-301.7828 614.0023,-260.6577 608.6193,-260.3758 606.4441,-260.353 603.9048,-260.4323 602.387,-260.3519 600.81,-233.021 600.81,-233.021 602.387,-260.3519 591.8848,-260.675 588.5636,-260.9169 581.4256,-260.832 581.3171,-231.8401 584.6648,-183.0322 583.8021,-182.7573 585.7595,-110.1921 576.83,-111.9116 569.166,-113.0209 566.2271,-113.1662 560.2791,-182.409 555.2812,-182.409 554.9237,-182.523 549.8557,-182.523 548.7872,-182.8634 547.3076,-182.8634 544.242,-179.9944 544.242,-179.9944 547.3076,-182.8634 548.7872,-182.8634 549.8557,-182.523 554.9237,-182.523 555.2812,-182.409 560.2791,-182.409 566.2271,-113.1662 569.166,-113.0209 576.83,-111.9116 585.7595,-110.1921 583.8021,-182.7573 584.6648,-183.0322 581.3171,-231.8401 581.4256,-260.832 588.5636,-260.9169 591.8848,-260.675 602.387,-260.3519 603.9048,-260.4323 606.4441,-260.353 608.6193,-260.3758 614.0023,-260.6577 614.1739,-301.7828 618.1657,-338.5671 617.3313,-338.8358 615.2384,-470.7382 608.6219,-474.6638 600.6633,-479.8912 598.3965,-478.2979 599.8539,-341.7525 602.907,-338.8866 598.9784,-334.9008 594.6125,-333.5611 594.6125,-333.5611 598.9784,-334.9008 602.907,-338.8866 599.8539,-341.7525 598.3965,-478.2979 592.3644,-474.2548 585.1379,-469.6476 570.6768,-461.3665 566.1739,-458.9381 439.2734,-402.7652 430.8496,-389.6863 395.0462,-336.9373 385.2646,-332.9616 379.5917,-327.6186 383.6595,-199.2271 382.8491,-182.1774 382.8007,-175.8807 384.6378,-150.3525 385.6316,-118.9854 332.366,-53.2788 363.4092,-51.6204 453.504,-49.9208 456.249,-97.9948 460.2914,-43.9715 465.0027,-43.9715 465.9232,-43.6639 471.0568,-43.6639 471.5193,-43.8193 471.6978,-113.1634 477.4511,-113.0162 478.3201,-95.7842 478.3201,-95.7842 477.4511,-113.0162 471.6978,-113.1634 471.5193,-43.8193 471.0568,-43.6639 465.9232,-43.6639 465.0027,-43.9715 460.2914,-43.9715 456.249,-97.9948 453.504,-49.9208 363.4092,-51.6204 332.366,-53.2788 316.385,-35.4934 308.0691,-25.8307 309.7141,-22.9473 345.9421,43.8257 356.8408,53.5047 449.3322,75.8672 455.6057,75.303 461.4088,75.0957 472.7804,74.9981 476.5332,73.5574 498.7804,67.0616 506.8728,65.4502 526.7833,62.7005 531.1224,62.3688 545.1168,62.1558 558.5125,62.7743 586.745,64.9424 654.22,111.7936 659.2313,115.4535 676.3267,107.3973 677.1904,107.0414 691.1602,101.6856 685.3434,-17.8144 685.9664,-18.0198 684.3917,-87.4561 679.3752,-18.0925 675.0535,-18.0925 674.6301,-17.9532 674.6301,-17.9532 675.0535,-18.0925 679.3752,-18.0925 684.3917,-87.4561 685.9664,-18.0198 685.3434,-17.8144 691.1602,101.6856 693.2234,100.9555 696.5502,99.8751 697.3108,-13.6369 691.3973,-17.5554 691.0433,-18.0198 691.1906,-18.2121 691.1906,-18.2121 691.0433,-18.0198 691.3973,-17.5554 697.3108,-13.6369 696.5502,99.8751 698.8801,99.1858 708.5678,96.5973 724.6612,93.2247 735.1014,91.6447 736.3901,91.4872 792.0259,86.2991 836.6725,57.0247 842.321,12.2856 840.0551,-14.8238 839.8339,-24.3516 840.4389,-111.1966 869.1766,-130.9157 878.0212,-138.8925 894.8336,-216.5373 905.0387,-257.5598 912.6093,-282.1052 893.8976,-320.4985 841.5511,-376.2986 836.0989,-378.252 785.4578,-384.9077 785.4578,-384.9077"/>
<polygon fill="#fed9a6" stroke="#fed9a6" points="34.7645,27.0632 32.8539,26.2731 -2.0149,12.9184 -38.0328,-9.8657 -65.7687,-53.3143 -70.1922,-90.4664 -71.2236,-97.3586 -76.7885,-123.7276 -40.078,-196.1666 -50.0896,-243.634 -56.4807,-267.6414 -52.4181,-273.0853 22.3878,-378.8799 53.8577,-391.7863 69.9137,-387.1992 81.9461,-384.455 91.5275,-382.5472 135.306,-375.1017 202.9513,-306.1328 205.1355,-305.7699 220.1402,-303.6452 227.2652,-302.8138 236.2163,-302.2143 244.7893,-301.8535 252.9411,-301.7133 257.4492,-301.7478 262.458,-302.0349 278.4222,-303.7463 285.2833,-304.6522 295.3722,-306.4857 312.8528,-310.5333 379.5917,-327.6186 383.6595,-199.2271 382.8491,-182.1774 382.8007,-175.8807 384.6378,-150.3525 385.6316,-118.9854 332.366,-53.2788 316.385,-35.4934 308.0691,-25.8307 294.649,-29.9595 282.372,-33.191 262.9521,-37.0136 258.1548,-37.8506 239.9638,-39.4171 230.5156,-40.0212 225.6004,-40.1178 216.4249,-40.0952 214.6718,-40.0522 209.3341,-39.803 120.5678,28.2955 102.2084,28.9156 92.4429,27.7905 72.0284,25.975 70.1255,25.8563 66.9,25.8256 60.6247,25.9315 45.8172,26.5735 35.8255,27.5347 34.7645,27.0632 34.7645,27.0632"/>
<polyline fill="none" stroke="#000000" points="506.8728,65.4502 526.7833,62.7005 531.1224,62.3688 545.1168,62.1558 558.5125,62.7743 586.745,64.9424 654.22,111.7936 659.2313,115.4535 676.3267,107.3973 677.1904,107.0414 691.1602,101.6856 693.2234,100.9555 696.5502,99.8751 698.8801,99.1858 708.5678,96.5973 724.6612,93.2247 735.1014,91.6447 736.3901,91.4872 792.0259,86.2991 836.6725,57.0247 842.321,12.2856 840.0551,-14.8238 839.8339,-24.3516 840.4389,-111.1966 869.1766,-130.9157 878.0212,-138.8925 894.8336,-216.5373 905.0387,-257.5598 912.6093,-282.1052 893.8976,-320.4985 841.5511,-376.2986 836.0989,-378.252 785.4578,-384.9077 783.765,-385.2057 782.1258,-385.5311 762.6172,-390.293 753.9695,-400.8282 629.3373,-462.8169 615.2384,-470.7382 608.6219,-474.6638 600.6633,-479.8912 598.3965,-478.2979 592.3644,-474.2548 585.1379,-469.6476 570.6768,-461.3665 566.1739,-458.9381 439.2734,-402.7652 430.8496,-389.6863 395.0462,-336.9373 385.2646,-332.9616 379.5917,-327.6186 383.6595,-199.2271 382.8491,-182.1774 382.8007,-175.8807 384.6378,-150.3525 385.6316,-118.9854 332.366,-53.2788 316.385,-35.4934 308.0691,-25.8307 309.7141,-22.9473 345.9421,43.8257 356.8408,53.5047 449.3322,75.8672 455.6057,75.303 461.4088,75.0957 472.7804,74.9981 476.5332,73.5574 498.7804,67.0616 506.8728,65.4502 "/>
<polyline fill="none" stroke="#000000" points="257.4492,-301.7478 262.458,-302.0349 278.4222,-303.7463 285.2833,-304.6522 295.3722,-306.4857 312.8528,-310.5333 379.5917,-327.6186 383.6595,-199.2271 382.8491,-182.1774 382.8007,-175.8807 384.6378,-150.3525 385.6316,-118.9854 332.366,-53.2788 316.385,-35.4934 308.0691,-25.8307 294.649,-29.9595 282.372,-33.191 262.9521,-37.0136 258.1548,-37.8506 239.9638,-39.4171 230.5156,-40.0212 225.6004,-40.1178 216.4249,-40.0952 214.6718,-40.0522 209.3341,-39.803 120.5678,28.2955 102.2084,28.9156 92.4429,27.7905 72.0284,25.975 70.1255,25.8563 66.9,25.8256 60.6247,25.9315 45.8172,26.5735 35.8255,27.5347 34.7645,27.0632 32.8539,26.2731 -2.0149,12.9184 -38.0328,-9.8657 -65.7687,-53.3143 -70.1922,-90.4664 -71.2236,-97.3586 -76.7885,-123.7276 -40.078,-196.1666 -50.0896,-243.634 -56.4807,-267.6414 -52.4181,-273.0853 22.3878,-378.8799 53.8577,-391.7863 69.9137,-387.1992 81.9461,-384.455 91.5275,-382.5472 135.306,-375.1017 202.9513,-306.1328 205.1355,-305.7699 220.1402,-303.6452 227.2652,-302.8138 236.2163,-302.2143 244.7893,-301.8535 252.9411,-301.7133 257.4492,-301.7478 "/>
<!-- javapackages&#45;tools&#45;&gt;java&#45;1.8.0&#45;openjdk&#45;headless -->
<g id="edge1" class="edge">
<title>javapackages&#45;tools&#45;&gt;java&#45;1.8.0&#45;openjdk&#45;headless</title>
<path fill="none" stroke="#444444" stroke-opacity="0.333333" d="M503.9595,-62.0888C507.1576,-85.6546 516.8567,-127.0467 525.3945,-154.7057"/>
<polygon fill="#444444" fill-opacity="0.333333" stroke="#444444" stroke-opacity="0.333333" points="522.1789,-156.136 528.5939,-164.568 528.8373,-153.976 522.1789,-156.136"/>
</g>
<!-- java&#45;1.8.0&#45;openjdk&#45;headless&#45;&gt;javapackages&#45;tools -->
<g id="edge2" class="edge">
<title>java&#45;1.8.0&#45;openjdk&#45;headless&#45;&gt;javapackages&#45;tools</title>
<path fill="none" stroke="#444444" stroke-opacity="0.333333" d="M538.3705,-164.7062C535.1724,-141.1404 525.4733,-99.7483 516.9355,-72.0893"/>
<polygon fill="#444444" fill-opacity="0.333333" stroke="#444444" stroke-opacity="0.333333" points="520.1511,-70.659 513.7361,-62.227 513.4927,-72.819 520.1511,-70.659"/>
</g>
<!-- java&#45;1.8.0&#45;openjdk&#45;headless&#45;&gt;libjpeg&#45;turbo -->
<g id="edge3" class="edge">
<title>java&#45;1.8.0&#45;openjdk&#45;headless&#45;&gt;libjpeg&#45;turbo</title>
<path fill="none" stroke="#444444" stroke-opacity="0.333333" d="M555.9913,-164.5516C585.0432,-135.0195 642.3873,-76.7277 675.3239,-43.2466"/>
<polygon fill="#444444" fill-opacity="0.333333" stroke="#444444" stroke-opacity="0.333333" points="677.8375,-45.6823 682.3553,-36.099 672.8473,-40.7733 677.8375,-45.6823"/>
</g>
<!-- java&#45;1.8.0&#45;openjdk&#45;headless&#45;&gt;lksctp&#45;tools -->
<g id="edge4" class="edge">
<title>java&#45;1.8.0&#45;openjdk&#45;headless&#45;&gt;lksctp&#45;tools</title>
<path fill="none" stroke="#444444" stroke-opacity="0.333333" d="M544.55,-200.9878C554.2816,-228.0632 572.664,-279.2066 584.065,-310.9268"/>
<polygon fill="#444444" fill-opacity="0.333333" stroke="#444444" stroke-opacity="0.333333" points="580.8254,-312.2612 587.5016,-320.4879 587.4128,-309.8934 580.8254,-312.2612"/>
</g>
<!-- java&#45;1.8.0&#45;openjdk&#45;headless&#45;&gt;copy&#45;jdk&#45;configs -->
<g id="edge5" class="edge">
<title>java&#45;1.8.0&#45;openjdk&#45;headless&#45;&gt;copy&#45;jdk&#45;configs</title>
<path fill="none" stroke="#444444" stroke-opacity="0.333333" d="M382.2894,-180.117C377.1043,-180.027 371.9497,-179.9375 366.8548,-179.8491"/>
<polygon fill="#444444" fill-opacity="0.333333" stroke="#444444" stroke-opacity="0.333333" points="366.5495,-176.3434 356.4902,-179.6692 366.4279,-183.3423 366.5495,-176.3434"/>
</g>
<!-- java&#45;1.8.0&#45;openjdk&#45;headless&#45;&gt;tzdata&#45;java -->
<g id="edge6" class="edge">
<title>java&#45;1.8.0&#45;openjdk&#45;headless&#45;&gt;tzdata&#45;java</title>
<path fill="none" stroke="#444444" stroke-opacity="0.333333" d="M604.7268,-200.8452C629.9155,-207.6516 658.7682,-215.4481 684.7902,-222.4796"/>
<polygon fill="#444444" fill-opacity="0.333333" stroke="#444444" stroke-opacity="0.333333" points="684.0444,-225.9036 694.6112,-225.1334 685.8705,-219.1459 684.0444,-225.9036"/>
</g>
<!-- copy&#45;jdk&#45;configs&#45;&gt;lua -->
<g id="edge7" class="edge">
<title>copy&#45;jdk&#45;configs&#45;&gt;lua</title>
<path fill="none" stroke="#444444" stroke-opacity="0.333333" d="M215.8605,-196.0354C185.0725,-208.8707 144.174,-225.921 115.0026,-238.0823"/>
<polygon fill="#444444" fill-opacity="0.333333" stroke="#444444" stroke-opacity="0.333333" points="113.4741,-234.9275 105.5908,-242.006 116.1677,-241.3885 113.4741,-234.9275"/>
</g>
<!-- copy&#45;jdk&#45;configs&#45;&gt;lua&#45;posix -->
<g id="edge8" class="edge">
<title>copy&#45;jdk&#45;configs&#45;&gt;lua&#45;posix</title>
<path fill="none" stroke="#444444" stroke-opacity="0.333333" d="M215.2737,-159.7842C184.815,-147.1585 144.0893,-130.277 111.8694,-116.9212"/>
<polygon fill="#444444" fill-opacity="0.333333" stroke="#444444" stroke-opacity="0.333333" points="113.1727,-113.6727 102.5946,-113.0767 110.4922,-120.1392 113.1727,-113.6727"/>
</g>
<!-- lua&#45;posix&#45;&gt;lua -->
<g id="edge9" class="edge">
<title>lua&#45;posix&#45;&gt;lua</title>
<path fill="none" stroke="#444444" stroke-opacity="0.333333" d="M61.3487,-113.2243C64.6604,-140.5116 70.9504,-192.3397 74.8831,-224.7445"/>
<polygon fill="#444444" fill-opacity="0.333333" stroke="#444444" stroke-opacity="0.333333" points="71.4394,-225.4204 76.1188,-234.9259 78.3884,-224.577 71.4394,-225.4204"/>
</g>
<!-- javapackages&#45;tools -->
<g id="node1" class="node">
<title>javapackages&#45;tools</title>
<text text-anchor="middle" x="504.31" y="-40.275" font-family="monospace" font-size="14.00" fill="#000000">javapackages&#45;tools</text>
</g>
<!-- java&#45;1.8.0&#45;openjdk&#45;headless -->
<g id="node2" class="node">
<title>java&#45;1.8.0&#45;openjdk&#45;headless</title>
<text text-anchor="middle" x="538.02" y="-179.12" font-family="monospace" font-size="14.00" fill="#000000">java&#45;1.8.0&#45;openjdk&#45;headless</text>
</g>
<!-- libjpeg&#45;turbo -->
<g id="node3" class="node">
<title>libjpeg&#45;turbo</title>
<text text-anchor="middle" x="700.16" y="-14.3" font-family="monospace" font-size="14.00" fill="#000000">libjpeg&#45;turbo</text>
</g>
<!-- lksctp&#45;tools -->
<g id="node4" class="node">
<title>lksctp&#45;tools</title>
<text text-anchor="middle" x="593.99" y="-334.84" font-family="monospace" font-size="14.00" fill="#000000">lksctp&#45;tools</text>
</g>
<!-- copy&#45;jdk&#45;configs -->
<g id="node5" class="node">
<title>copy&#45;jdk&#45;configs</title>
<text text-anchor="middle" x="259.17" y="-174.28" font-family="monospace" font-size="14.00" fill="#000000">copy&#45;jdk&#45;configs</text>
</g>
<!-- tzdata&#45;java -->
<g id="node6" class="node">
<title>tzdata&#45;java</title>
<text text-anchor="middle" x="761.36" y="-239.47" font-family="monospace" font-size="14.00" fill="#000000">tzdata&#45;java</text>
</g>
<!-- lua -->
<g id="node7" class="node">
<title>lua</title>
<text text-anchor="middle" x="78.356" y="-249.66" font-family="monospace" font-size="14.00" fill="#000000">lua</text>
</g>
<!-- lua&#45;posix -->
<g id="node8" class="node">
<title>lua&#45;posix</title>
<text text-anchor="middle" x="59.145" y="-91.366" font-family="monospace" font-size="14.00" fill="#000000">lua&#45;posix</text>
</g>
</g>
</svg>
