<?xml version="1.0" encoding="UTF-8" standalone="no"?>
<!DOCTYPE svg PUBLIC "-//W3C//DTD SVG 1.1//EN"
 "http://www.w3.org/Graphics/SVG/1.1/DTD/svg11.dtd">
<!-- Generated by graphviz version 2.40.1 (20161225.0304)
 -->
<!-- Title: G Pages: 1 -->
<svg width="1754pt" height="1492pt"
 viewBox="0.00 0.00 1754.07 1492.14" xmlns="http://www.w3.org/2000/svg" xmlns:xlink="http://www.w3.org/1999/xlink">
<g id="graph0" class="graph" transform="scale(1 1) rotate(0) translate(118.049 1353.7732)">
<title>G</title>
<polygon fill="#dae2ff" stroke="transparent" points="-118.049,138.3703 -118.049,-1353.7732 1636.0249,-1353.7732 1636.0249,138.3703 -118.049,138.3703"/>
<polygon fill="#c1c8d8" stroke="#c1c8d8" points="416.6169,106.6074 418.2168,23.7 421.9422,-13.042 415.7927,-14.9026 412.5873,-17.7056 416.2174,-21.0974 416.2174,-21.0974 412.5873,-17.7056 415.7927,-14.9026 421.9422,-13.042 426.2153,-14.2601 430.4048,-18.1156 432.3994,-18.1156 432.5043,-18.1472 436.9549,-18.1472 440.8435,-72.2332 443.3611,-17.8037 447.5611,-17.8037 448.0378,-17.9461 450.9579,-118.7198 450.5369,-133.0127 469.7673,-99.9036 475.3549,-91.0512 478.0478,-87.481 479.3716,-85.8778 539.1262,-66.9578 541.6938,-107.3786 545.3615,-63.3177 547.2549,-61.9269 549.3217,-61.9269 549.4332,-61.9602 549.4332,-61.9602 549.3217,-61.9269 547.2549,-61.9269 545.3615,-63.3177 541.6938,-107.3786 539.1262,-66.9578 479.3716,-85.8778 478.0478,-87.481 480.6379,-21.3831 480.6379,-21.3831 478.0478,-87.481 475.3549,-91.0512 469.7673,-99.9036 450.5369,-133.0127 450.9579,-118.7198 451.5955,-107.8532 451.5955,-107.8532 450.9579,-118.7198 448.0378,-17.9461 447.5611,-17.8037 443.3611,-17.8037 440.8435,-72.2332 436.9549,-18.1472 432.5043,-18.1472 432.3994,-18.1156 430.4048,-18.1156 426.2153,-14.2601 421.9422,-13.042 418.2168,23.7 416.6169,106.6074 416.6872,124.5211 432.7718,126.7622 441.6389,128.5384 447.1607,129.7571 455.2954,128.5692 467.6512,127.4972 472.5709,127.2644 486.1319,126.8898 545.4535,127.5906 591.0544,89.8062 606.5231,85.4608 617.345,83.0886 619.3304,82.7347 634.4505,80.3462 656.7161,78.1949 654.0992,7.8834 651.7145,-21.5041 645.0296,-61.7251 642.4121,-61.7251 640.3633,-62.3481 636.7137,-62.3481 635.2916,-61.9129 630.2814,-61.9129 629.8731,-61.7906 625.5314,-61.7906 625.441,-61.7636 620.2202,-61.7636 620.2202,-61.7636 625.441,-61.7636 625.5314,-61.7906 629.8731,-61.7906 630.2814,-61.9129 635.2916,-61.9129 636.7137,-62.3481 640.3633,-62.3481 642.4121,-61.7251 645.0296,-61.7251 651.7145,-21.5041 654.0992,7.8834 656.7161,78.1949 664.0167,77.9386 664.7782,-4.408 664.7782,-4.408 664.0167,77.9386 694.3978,78.1138 780.032,53.1745 794.5928,26.6707 805.187,-17.0203 823.8964,-87.2606 851.1529,-175.4798 851.0027,-196.6465 795.5911,-269.3619 787.0179,-329.4249 784.9649,-342.5929 770.9962,-358.674 561.452,-353.301 550.6508,-353.3797 548.7895,-353.2703 542.9146,-353.5057 531.9745,-353.2202 531.6799,-353.2028 528.6807,-353.2233 524.3848,-353.1106 521.3563,-353.131 520.9083,-264.0041 526.4146,-267.3137 531.478,-267.3137 537.968,-263.3649 538.4052,-262.8663 537.2075,-261.4774 532.1761,-258.5223 532.1761,-258.5223 537.2075,-261.4774 538.4052,-262.8663 537.968,-263.3649 531.478,-267.3137 526.4146,-267.3137 520.9083,-264.0041 521.3563,-353.131 520.821,-353.1522 518.5187,-353.1675 513.7023,-353.3583 505.9467,-353.1528 504.1503,-353.0458 495.6684,-353.3791 493.2304,-353.3943 486.109,-352.9693 469.769,-350.9091 464.7204,-349.9393 458.2495,-348.4814 445.4176,-345.1647 442.2603,-344.1427 335.0371,-305.8853 336.3297,-296.2745 337.1643,-289.0446 345.1677,-205.8982 346.3676,-190.1506 239.6501,-102.6992 217.7028,-65.7473 203.2883,-20.0665 201.0682,-13.8945 181.3074,37.846 247.1956,128.4358 249.0115,130.2079 278.5829,134.3703 346.9231,125.8304 366.4766,123.781 374.6536,123.2569 387.5112,122.9556 399.2961,123.1591 416.6872,124.5211 416.6169,106.6074 416.6169,106.6074"/>
<polygon fill="#fbb4ae" stroke="#fbb4ae" points="1623.5623,-637.6964 1629.9637,-580.302 1632.0249,-567.0105 1567.887,-464.4157 1556.0981,-457.4336 1542.7727,-452.7308 1499.5829,-448.7514 1476.8424,-446.221 1478.1227,-571.3469 1474.5178,-599.6172 1471.4884,-599.6172 1467.7382,-573.2415 1464.0308,-596.0931 1468.306,-600.0906 1465.1422,-602.949 1465.1422,-602.949 1468.306,-600.0906 1464.0308,-596.0931 1460.2197,-595.0143 1460.2197,-595.0143 1464.0308,-596.0931 1467.7382,-573.2415 1471.4884,-599.6172 1474.5178,-599.6172 1478.1227,-571.3469 1476.8424,-446.221 1473.6113,-445.7391 1469.0192,-445.5038 1455.0811,-444.2704 1443.8507,-442.8591 1429.1686,-440.1939 1420.8076,-440.6542 1361.4987,-442.8546 1354.8678,-454.3244 1347.7721,-467.1628 1325.8856,-486.2589 1325.9236,-576.0574 1325.9236,-576.0574 1325.8856,-486.2589 1324.127,-487.6682 1317.5648,-492.7027 1310.4512,-497.9146 1306.0648,-501.3126 1296.7775,-508.1597 1294.2957,-509.8943 1278.8668,-519.5388 1274.6498,-521.8549 1259.4729,-529.0829 1245.6984,-534.1179 1232.9786,-537.8257 1192.7402,-548.0424 1189.2471,-549.0569 1174.1691,-554.5565 1161.527,-560.5703 1146.4552,-568.861 1144.1727,-570.282 1137.046,-598.3239 1133.9901,-612.1777 1123.5542,-648.8768 1237.4171,-629.2133 1240.432,-626.1681 1241.5957,-625.795 1246.5953,-662.4706 1249.6047,-728.0962 1253.6504,-624.0178 1253.6504,-624.0178 1249.6047,-728.0962 1246.5953,-662.4706 1241.5957,-625.795 1240.432,-626.1681 1237.4171,-629.2133 1123.5542,-648.8768 1105.1012,-707.6514 1120.2996,-716.0205 1127.6478,-719.5375 1134.9677,-722.6961 1149.1694,-728.4904 1156.0704,-731.1389 1174.37,-736.8489 1229.4175,-751.3624 1250.1195,-757.3267 1259.588,-760.733 1272.4662,-765.9878 1281.8624,-770.2728 1289.9573,-774.3545 1298.7559,-779.0034 1306.1191,-783.0692 1308.6594,-784.6556 1340.4794,-850.9834 1355.9626,-880.4555 1439.6324,-865.7894 1460.859,-862.4904 1468.9998,-861.5538 1479.2733,-860.5792 1530.0524,-856.7886 1550.1415,-852.5615 1619.1804,-792.5325 1618.2893,-763.6276 1617.7976,-712.8641 1618.2157,-676.934 1620.6023,-670.9973 1623.5623,-637.6964 1623.5623,-637.6964"/>
<polygon fill="#d3ded1" stroke="#d3ded1" points="28.847,-642.9509 28.7949,-642.9714 24.1219,-647.4799 -112.1909,-656.9396 -111.4681,-634.0753 -112.9381,-525.8271 -104.2278,-518.6458 -63.3681,-535.52 9.9191,-535.52 48.248,-537.5847 67.9009,-541.9523 73.5975,-537.9896 75.1333,-535.5809 78.753,-538.8235 84.2735,-540.4717 84.2735,-540.4717 78.753,-538.8235 75.1333,-535.5809 73.5975,-537.9896 67.9009,-541.9523 48.248,-537.5847 9.9191,-535.52 -63.3681,-535.52 -104.2278,-518.6458 -42.2475,-414.3223 -41.8916,-414.1448 64.521,-391.0519 72.4421,-389.1673 78.1843,-387.6815 87.1274,-385.1811 90.17,-385.2238 103.5003,-384.6482 138.5619,-382.4667 205.2757,-395.5463 251.1768,-408.7199 254.7044,-421.6161 269.7626,-484.7051 270.9223,-489.9783 280.5304,-497.5821 333.8065,-536.9878 318.9508,-664.605 319.1059,-667.346 318.8805,-674.5302 317.7961,-683.4451 317.409,-695.8502 314.2093,-723.3366 280.9296,-740.5874 264.7597,-750.8777 249.2387,-763.4363 246.3514,-765.9304 229.8338,-782.1 180.8774,-822.263 132.5616,-786.6959 63.8668,-786.3215 44.1671,-786.9938 29.2122,-788.3914 24.404,-789.0305 -39.4706,-798.7828 -114.049,-691.2617 -112.1909,-656.9396 24.1219,-647.4799 28.7949,-642.9714 28.847,-642.9509 30.5346,-641.477 33.9812,-641.477 35.7383,-643.6864 39.9862,-646.1569 45.4353,-646.1569 45.4353,-646.1569 39.9862,-646.1569 35.7383,-643.6864 33.9812,-641.477 30.5346,-641.477 30.1187,-640.7713 30.1187,-640.7713 30.5346,-641.477 28.847,-642.9509 28.847,-642.9509"/>
<polygon fill="#fed9a6" stroke="#fed9a6" points="921.0266,-1193.3986 925.5856,-1189.8407 937.1962,-1043.4253 1011.7482,-1066.1854 1117.0538,-1154.7693 1129.5781,-1165.9231 1118.1278,-1194.7725 1116.7904,-1198.48 1088.7716,-1280.2059 1082.0231,-1286.8076 1012.415,-1325.8712 936.9439,-1339.4794 915.0858,-1343.8729 900.6616,-1347.6544 893.6658,-1349.7732 890.7686,-1348.6276 881.6088,-1345.2024 798.3956,-1315.8881 752.3906,-1275.4984 744.5006,-1265.2201 761.7551,-1238.9158 761.7551,-1238.9158 744.5006,-1265.2201 740.9619,-1264.011 733.2555,-1261.5288 732.9212,-1150.584 729.606,-1104.4432 730.9433,-1102.7853 729.4579,-1100.9502 724.7239,-1098.1863 719.873,-1098.1863 719.873,-1098.1863 724.7239,-1098.1863 729.4579,-1100.9502 730.9433,-1102.7853 729.606,-1104.4432 732.9212,-1150.584 733.2555,-1261.5288 723.9729,-1258.9016 719.6893,-1257.7732 711.6572,-1255.97 694.4772,-1252.4481 703.5452,-1108.2646 608.2773,-1123.3192 606.6743,-1110.2445 600.9134,-1073.2103 595.8934,-1046.328 559.3259,-1037.0729 558.9582,-973.1094 561.571,-933.2816 555.5836,-929.34 554.2139,-927.292 554.2139,-927.292 555.5836,-929.34 561.571,-933.2816 558.9582,-973.1094 559.3259,-1037.0729 595.8934,-1046.328 600.9134,-1073.2103 606.6743,-1110.2445 608.2773,-1123.3192 703.5452,-1108.2646 694.4772,-1252.4481 628.7498,-1240.2758 558.7139,-1279.598 507.8608,-1291.9967 503.3249,-1293.3724 487.5331,-1298.479 480.0582,-1301.3425 469.7269,-1298.9915 472.0894,-1162.6243 468.7578,-1140.0966 475.7964,-1142.317 479.6181,-1141.236 483.7674,-1168.297 483.7674,-1168.297 479.6181,-1141.236 475.7964,-1142.317 468.7578,-1140.0966 472.0894,-1162.6243 469.7269,-1298.9915 460.3839,-1297.2095 460.0877,-1297.1583 450.8665,-1295.7384 437.2244,-1294.1381 393.6633,-1290.6283 310.6107,-1234.3849 292.0709,-1180.7931 277.4709,-1141.311 253.142,-1079.2255 241.2702,-1050.3497 254.492,-1014.9437 255.1141,-1013.823 249.7314,-963.9711 334.9543,-879.4957 415.8149,-877.2444 426.0281,-880.6056 431.7291,-877.381 433.599,-874.784 436.0686,-876.9213 436.0686,-876.9213 433.599,-874.784 431.7291,-877.381 426.0281,-880.6056 415.8149,-877.2444 334.9543,-879.4957 249.7314,-963.9711 180.8774,-822.263 229.8338,-782.1 246.3514,-765.9304 249.2387,-763.4363 264.7597,-750.8777 280.9296,-740.5874 314.2093,-723.3366 317.409,-695.8502 356.6016,-683.9059 353.8897,-730.5487 349.8768,-730.5474 345.838,-730.2916 344.3607,-730.1049 344.3607,-730.1049 345.838,-730.2916 349.8768,-730.5474 353.8897,-730.5487 356.6016,-683.9059 359.9148,-680.1261 361.03,-679.5479 365.12,-730.4941 363.567,-730.5918 361.4713,-777.5631 356.6368,-780.3466 355.1824,-782.0638 356.2876,-783.3791 362.0662,-786.8257 366.4207,-786.8257 366.4207,-786.8257 362.0662,-786.8257 356.2876,-783.3791 355.1824,-782.0638 356.6368,-780.3466 361.4713,-777.5631 367.1646,-777.5631 371.5075,-780.0894 373.3419,-782.3989 377.3547,-782.3989 380.1013,-840.6091 381.4388,-839.835 381.4388,-839.835 380.1013,-840.6091 377.3547,-782.3989 373.3419,-782.3989 371.5075,-780.0894 367.1646,-777.5631 361.4713,-777.5631 363.567,-730.5918 365.12,-730.4941 365.9016,-730.4945 367.7384,-730.3796 371.4222,-730.3823 372.6866,-679.0988 377.5078,-679.0988 378.7708,-679.4839 383.2065,-679.4839 384.3988,-679.1316 388.2514,-682.4019 393.9943,-684.0798 398.9314,-682.6442 402.9301,-679.0006 404.1417,-679.0006 404.3765,-679.0726 410.1256,-679.0726 410.1256,-679.0726 404.3765,-679.0726 404.1417,-679.0006 402.9301,-679.0006 398.9957,-675.4788 394.0809,-674.0635 394.0809,-674.0635 398.9957,-675.4788 402.9301,-679.0006 398.9314,-682.6442 393.9943,-684.0798 388.2514,-682.4019 384.3988,-679.1316 383.2065,-679.4839 378.7708,-679.4839 377.5078,-679.0988 372.6866,-679.0988 371.4222,-730.3823 367.7384,-730.3796 365.9016,-730.4945 365.12,-730.4941 361.03,-679.5479 359.9148,-680.1261 356.6016,-683.9059 317.409,-695.8502 317.7961,-683.4451 318.8805,-674.5302 319.1059,-667.346 318.9508,-664.605 333.8065,-536.9878 280.5304,-497.5821 270.9223,-489.9783 269.7626,-484.7051 254.7044,-421.6161 251.1768,-408.7199 335.0371,-305.8853 442.2603,-344.1427 445.4176,-345.1647 458.2495,-348.4814 464.7204,-349.9393 469.769,-350.9091 486.109,-352.9693 493.2304,-353.3943 495.6684,-353.3791 500.7989,-439.3187 495.3289,-439.3187 495.3289,-439.3187 500.7989,-439.3187 495.6684,-353.3791 504.1503,-353.0458 505.9467,-353.1528 513.7023,-353.3583 518.5187,-353.1675 520.821,-353.1522 521.3563,-353.131 524.3848,-353.1106 528.6807,-353.2233 531.6799,-353.2028 531.9745,-353.2202 542.9146,-353.5057 548.7895,-353.2703 550.6508,-353.3797 551.0897,-390.7064 551.0897,-390.7064 550.6508,-353.3797 561.452,-353.301 770.9962,-358.674 740.1279,-443.69 617.9427,-443.69 617.9427,-443.69 740.1279,-443.69 728.2498,-482.2001 746.9294,-539.109 737.1029,-561.6652 732.6003,-570.8365 703.6252,-623.1695 689.866,-651.2838 682.2008,-674.0922 675.9834,-689.0881 667.7327,-705.996 642.3848,-751.778 641.5475,-731.6719 635.0945,-646.0886 632.9429,-643.1072 630.623,-643.1072 630.1919,-643.233 625.3781,-643.233 622.6461,-597.9438 618.7116,-642.7806 614.1273,-642.7806 613.8573,-642.8621 608.8283,-642.8621 607.8588,-536.1895 604.5615,-537.0823 603.2748,-642.991 599.2081,-642.991 598.371,-642.0039 592.7086,-638.5779 586.7874,-638.5779 582.4929,-641.0305 575.0139,-543.7271 574.3698,-595.6118 570.4966,-642.8212 566.3087,-642.8212 565.9889,-642.7239 560.3357,-642.7239 562.0642,-543.2543 554.7429,-543.2876 550.7105,-543.1866 550.1996,-543.2041 549.0551,-543.2775 547.7322,-604.0024 547.7322,-604.0024 549.0551,-543.2775 550.1996,-543.2041 550.7105,-543.1866 554.7429,-543.2876 562.0642,-543.2543 560.3357,-642.7239 565.9889,-642.7239 566.3087,-642.8212 570.4966,-642.8212 574.3698,-595.6118 575.0139,-543.7271 582.4929,-641.0305 580.8403,-643.0048 581.3375,-643.5955 581.3375,-643.5955 580.8403,-643.0048 582.4929,-641.0305 586.7874,-638.5779 592.7086,-638.5779 598.371,-642.0039 599.2081,-642.991 603.2748,-642.991 604.5615,-537.0823 607.8588,-536.1895 608.8283,-642.8621 613.8573,-642.8621 615.0977,-686.6279 613.3738,-721.8139 613.039,-753.4845 611.9691,-753.5139 602.5608,-750.7521 592.762,-748.4461 581.2914,-746.0823 581.1822,-746.0662 564.4893,-744.0933 561.973,-744.0168 547.1436,-743.9993 547.0342,-780.175 547.0342,-780.175 547.1436,-743.9993 561.973,-744.0168 564.4893,-744.0933 581.1822,-746.0662 581.2914,-746.0823 592.762,-748.4461 602.5608,-750.7521 611.9691,-753.5139 613.039,-753.4845 613.3738,-721.8139 615.0977,-686.6279 613.8573,-642.8621 614.1273,-642.7806 618.7116,-642.7806 622.6461,-597.9438 625.3781,-643.233 630.1919,-643.233 630.623,-643.1072 632.9429,-643.1072 635.0945,-646.0886 641.5475,-731.6719 642.3848,-751.778 641.5833,-753.4293 652.4242,-759.1348 654.5019,-760.1554 728.3166,-793.8726 740.0795,-800.0634 749.5704,-805.3825 749.7933,-805.5148 763.3991,-814.0607 776.3958,-823.538 784.1672,-830.0051 795.0659,-839.4562 803.0032,-846.6077 805.1102,-848.7238 811.8573,-854.9795 817.9934,-860.8673 826.8763,-869.6772 833.5406,-876.4971 831.718,-895.4058 831.1516,-899.7454 651.7674,-869.7598 648.1308,-865.8514 646.6834,-865.2553 645.1096,-863.8753 641.1188,-863.8753 640.9934,-863.9122 639.4587,-863.9122 636.3769,-861.2941 636.3769,-861.2941 639.4587,-863.9122 635.8214,-867.2635 635.8214,-867.2635 639.4587,-863.9122 640.9934,-863.9122 641.1188,-863.8753 645.1096,-863.8753 646.6834,-865.2553 648.1308,-865.8514 651.7674,-869.7598 831.1516,-899.7454 827.5497,-931.5516 833.5391,-940.3815 889.5508,-1026.0609 890.4145,-1026.4457 901.6626,-1031.2339 911.9169,-1035.188 937.1962,-1043.4253 925.5856,-1189.8407 921.0266,-1193.3986 919.6494,-1195.7927 915.9993,-1195.7927 915.4182,-1195.0978 909.4716,-1191.4565 904.7169,-1191.4565 904.7169,-1191.4565 909.4716,-1191.4565 915.4182,-1195.0978 915.9993,-1195.7927 919.6494,-1195.7927 921.0266,-1193.3986 921.0266,-1193.3986"/>
<polygon fill="#e4ced8" stroke="#e4ced8" points="1189.2471,-549.0569 1192.7402,-548.0424 1232.9786,-537.8257 1245.6984,-534.1179 1259.4729,-529.0829 1274.6498,-521.8549 1278.8668,-519.5388 1294.2957,-509.8943 1296.7775,-508.1597 1306.0648,-501.3126 1310.4512,-497.9146 1317.5648,-492.7027 1324.127,-487.6682 1325.8856,-486.2589 1347.7721,-467.1628 1354.8678,-454.3244 1361.4987,-442.8546 1343.6044,-419.3571 1275.172,-325.5398 1273.9158,-319.3926 1265.9534,-270.1828 1173.4698,-210.8577 1119.2915,-202.9083 1118.5537,-238.3128 1118.3068,-243.4689 1119.2532,-345.8471 1118.9302,-346.4793 1118.4867,-346.6152 1113.7551,-346.6152 1113.6462,-346.5826 1114.6987,-290.6396 1107.2494,-346.1654 1104.6339,-346.1654 1098.468,-310.732 1098.468,-310.732 1104.6339,-346.1654 1107.2494,-346.1654 1114.6987,-290.6396 1113.6462,-346.5826 1113.7551,-346.6152 1118.4867,-346.6152 1118.9302,-346.4793 1119.2532,-345.8471 1118.3068,-243.4689 1118.5537,-238.3128 1119.2915,-202.9083 1098.0297,-198.0318 1094.9767,-198.1851 1091.9259,-199.0264 1086.4177,-200.0945 1083.0608,-200.6776 1076.0535,-341.5724 1071.5721,-341.5724 1064.7526,-345.8239 1064.317,-346.3364 1064.4694,-346.5135 1071.5764,-350.9688 1075.6825,-350.9688 1075.6825,-350.9688 1071.5764,-350.9688 1064.4694,-346.5135 1064.317,-346.3364 1064.7526,-345.8239 1071.5721,-341.5724 1076.0535,-341.5724 1083.0608,-200.6776 1064.4913,-203.5283 1054.7866,-204.6215 1052.0085,-204.8213 1042.6355,-205.3049 1037.2784,-205.4723 1012.4826,-204.7336 851.0027,-196.6465 795.5911,-269.3619 787.0179,-329.4249 784.9649,-342.5929 770.9962,-358.674 740.1279,-443.69 728.2498,-482.2001 746.9294,-539.109 737.1029,-561.6652 732.6003,-570.8365 703.6252,-623.1695 689.866,-651.2838 682.2008,-674.0922 675.9834,-689.0881 667.7327,-705.996 642.3848,-751.778 641.5833,-753.4293 652.4242,-759.1348 654.5019,-760.1554 728.3166,-793.8726 740.0795,-800.0634 749.5704,-805.3825 749.7933,-805.5148 763.3991,-814.0607 776.3958,-823.538 784.1672,-830.0051 795.0659,-839.4562 803.0032,-846.6077 805.1102,-848.7238 811.8573,-854.9795 817.9934,-860.8673 826.8763,-869.6772 833.5406,-876.4971 837.9635,-872.5433 839.4438,-871.2998 846.8697,-865.2559 848.0665,-799.9953 848.0665,-799.9953 846.8697,-865.2559 866.4785,-850.3176 1003.3259,-753.4953 1004.7588,-752.4421 1019.7492,-729.3784 1016.5823,-725.4805 1016.0138,-672.6635 1011.9208,-563.4987 1007.7573,-563.4987 1000.8039,-635.2471 999.2524,-663.8102 997.4581,-635.2293 989.8843,-563.4103 986.3221,-563.4103 982.5416,-603.6927 979.4111,-563.2312 975.166,-563.2312 974.8026,-563.3365 973.3716,-563.3365 969.5014,-566.6877 964.45,-568.1595 958.468,-566.3104 955.1664,-563.321 953.5864,-563.321 952.7906,-563.0779 949.0098,-563.0779 945.0463,-529.9006 941.7404,-563.5054 938.307,-563.5054 936.7491,-563.0385 932.2894,-563.0385 932.1725,-563.0733 926.5146,-563.0733 925.7718,-563.2965 922.0841,-563.2965 921.4045,-563.0916 916.0349,-563.0916 914.9899,-563.4111 910.5505,-563.4111 909.9622,-481.6779 909.9622,-481.6779 910.5505,-563.4111 914.9899,-563.4111 916.0349,-563.0916 921.4045,-563.0916 922.0841,-563.2965 925.7718,-563.2965 926.5146,-563.0733 932.1725,-563.0733 932.2894,-563.0385 936.7491,-563.0385 938.307,-563.5054 941.7404,-563.5054 945.0463,-529.9006 949.0098,-563.0779 952.7906,-563.0779 953.5864,-563.321 955.1664,-563.321 958.468,-566.3104 964.45,-568.1595 969.5014,-566.6877 973.3716,-563.3365 974.8026,-563.3365 975.166,-563.2312 979.4111,-563.2312 982.5416,-603.6927 986.3221,-563.4103 985.6396,-563.2076 985.6396,-563.2076 986.3221,-563.4103 989.8843,-563.4103 997.4581,-635.2293 996.0129,-563.3224 996.0129,-563.3224 997.4581,-635.2293 999.2524,-663.8102 1000.8039,-635.2471 1001.6477,-563.2776 1001.6477,-563.2776 1000.8039,-635.2471 1007.7573,-563.4987 1011.9208,-563.4987 1016.0138,-672.6635 1016.5823,-725.4805 1019.7492,-729.3784 1024.421,-727.8886 1038.0625,-724.0507 1042.2523,-722.9515 1105.1012,-707.6514 1123.5542,-648.8768 1133.9901,-612.1777 1137.046,-598.3239 1144.1727,-570.282 1146.4552,-568.861 1161.527,-560.5703 1160.6677,-504.9476 1163.0519,-465.4118 1156.8947,-463.5771 1153.6492,-460.8254 1153.6077,-460.7601 1153.6077,-460.7601 1153.6492,-460.8254 1156.8947,-463.5771 1163.0519,-465.4118 1160.6677,-504.9476 1161.527,-560.5703 1174.1691,-554.5565 1189.2471,-549.0569 1187.9293,-504.8723 1187.9293,-504.8723 1189.2471,-549.0569 1189.2471,-549.0569"/>
<polygon fill="#c2dfd1" stroke="#c2dfd1" points="1121.1798,-866.0555 1119.0914,-862.8041 1118.854,-799.3057 1113.5087,-859.4999 1103.374,-863.0345 1072.9636,-863.1711 1071.4901,-861.9648 1071.7916,-907.3519 1065.962,-905.5662 1061.7467,-906.7783 1058.2472,-880.562 1054.593,-910.585 1051.802,-910.585 1051.1188,-910.3797 1051.1188,-910.3797 1051.802,-910.585 1054.593,-910.585 1058.2472,-880.562 1061.7467,-906.7783 1065.962,-905.5662 1071.7916,-907.3519 1071.4901,-861.9648 1072.9636,-863.1711 1103.374,-863.0345 1113.5087,-859.4999 1118.854,-799.3057 1119.0914,-862.8041 1121.1798,-866.0555 1124.4216,-866.0555 1124.9399,-865.8938 1129.7692,-865.8938 1130.0055,-786.6342 1127.6478,-719.5375 1120.2996,-716.0205 1105.1012,-707.6514 1042.2523,-722.9515 1038.0625,-724.0507 1024.421,-727.8886 1019.7492,-729.3784 1004.7588,-752.4421 1003.3259,-753.4953 866.4785,-850.3176 846.8697,-865.2559 839.4438,-871.2998 837.9635,-872.5433 833.5406,-876.4971 831.718,-895.4058 831.1516,-899.7454 827.5497,-931.5516 833.5391,-940.3815 889.5508,-1026.0609 890.4145,-1026.4457 901.6626,-1031.2339 911.9169,-1035.188 937.1962,-1043.4253 1011.7482,-1066.1854 1117.0538,-1154.7693 1129.5781,-1165.9231 1131.4677,-1165.2098 1137.7578,-1162.9312 1146.0377,-1160.3069 1159.2041,-1153.7068 1177.6915,-1145.4049 1236.6528,-1119.9722 1246.0614,-1114.2798 1262.2682,-1091.141 1312.3497,-984.5859 1335.738,-937.4487 1338.6777,-932.0291 1340.2019,-921.8694 1349.3439,-897.3269 1355.9626,-880.4555 1340.4794,-850.9834 1308.6594,-784.6556 1306.1191,-783.0692 1298.7559,-779.0034 1289.9573,-774.3545 1281.8624,-770.2728 1272.4662,-765.9878 1259.588,-760.733 1250.1195,-757.3267 1229.4175,-751.3624 1174.37,-736.8489 1172.9045,-777.161 1172.9045,-777.161 1174.37,-736.8489 1156.0704,-731.1389 1149.1694,-728.4904 1134.9677,-722.6961 1127.6478,-719.5375 1130.0055,-786.6342 1129.7692,-865.8938 1130.2057,-866.0276 1134.1685,-866.0276 1135.5404,-867.6808 1135.5404,-867.6808 1134.1685,-866.0276 1130.2057,-866.0276 1129.7692,-865.8938 1124.9399,-865.8938 1124.4216,-866.0555 1121.1798,-866.0555 1118.3761,-868.1318 1118.0841,-868.6827 1113.9996,-872.0264 1081.7129,-871.7365 1088.4883,-878.4742 1095.4446,-883.9279 1095.4446,-883.9279 1088.4883,-878.4742 1081.7129,-871.7365 1113.9996,-872.0264 1118.0841,-868.6827 1118.3761,-868.1318 1121.1798,-866.0555 1121.1798,-866.0555"/>
<polyline fill="none" stroke="#000000" points="606.5231,85.4608 591.0544,89.8062 545.4535,127.5906 486.1319,126.8898 472.5709,127.2644 467.6512,127.4972 455.2954,128.5692 447.1607,129.7571 441.6389,128.5384 432.7718,126.7622 416.6872,124.5211 399.2961,123.1591 387.5112,122.9556 374.6536,123.2569 366.4766,123.781 346.9231,125.8304 278.5829,134.3703 249.0115,130.2079 247.1956,128.4358 181.3074,37.846 201.0682,-13.8945 203.2883,-20.0665 217.7028,-65.7473 239.6501,-102.6992 346.3676,-190.1506 345.1677,-205.8982 337.1643,-289.0446 336.3297,-296.2745 335.0371,-305.8853 442.2603,-344.1427 445.4176,-345.1647 458.2495,-348.4814 464.7204,-349.9393 469.769,-350.9091 486.109,-352.9693 493.2304,-353.3943 495.6684,-353.3791 504.1503,-353.0458 505.9467,-353.1528 513.7023,-353.3583 518.5187,-353.1675 520.821,-353.1522 521.3563,-353.131 524.3848,-353.1106 528.6807,-353.2233 531.6799,-353.2028 531.9745,-353.2202 542.9146,-353.5057 548.7895,-353.2703 550.6508,-353.3797 561.452,-353.301 770.9962,-358.674 784.9649,-342.5929 787.0179,-329.4249 795.5911,-269.3619 851.0027,-196.6465 851.1529,-175.4798 823.8964,-87.2606 805.187,-17.0203 794.5928,26.6707 780.032,53.1745 694.3978,78.1138 664.0167,77.9386 656.7161,78.1949 634.4505,80.3462 619.3304,82.7347 617.345,83.0886 606.5231,85.4608 "/>
<polyline fill="none" stroke="#000000" points="1281.8624,-770.2728 1289.9573,-774.3545 1298.7559,-779.0034 1306.1191,-783.0692 1308.6594,-784.6556 1340.4794,-850.9834 1355.9626,-880.4555 1439.6324,-865.7894 1460.859,-862.4904 1468.9998,-861.5538 1479.2733,-860.5792 1530.0524,-856.7886 1550.1415,-852.5615 1619.1804,-792.5325 1618.2893,-763.6276 1617.7976,-712.8641 1618.2157,-676.934 1620.6023,-670.9973 1623.5623,-637.6964 1629.9637,-580.302 1632.0249,-567.0105 1567.887,-464.4157 1556.0981,-457.4336 1542.7727,-452.7308 1499.5829,-448.7514 1476.8424,-446.221 1473.6113,-445.7391 1469.0192,-445.5038 1455.0811,-444.2704 1443.8507,-442.8591 1429.1686,-440.1939 1420.8076,-440.6542 1361.4987,-442.8546 1354.8678,-454.3244 1347.7721,-467.1628 1325.8856,-486.2589 1324.127,-487.6682 1317.5648,-492.7027 1310.4512,-497.9146 1306.0648,-501.3126 1296.7775,-508.1597 1294.2957,-509.8943 1278.8668,-519.5388 1274.6498,-521.8549 1259.4729,-529.0829 1245.6984,-534.1179 1232.9786,-537.8257 1192.7402,-548.0424 1189.2471,-549.0569 1174.1691,-554.5565 1161.527,-560.5703 1146.4552,-568.861 1144.1727,-570.282 1137.046,-598.3239 1133.9901,-612.1777 1123.5542,-648.8768 1105.1012,-707.6514 1120.2996,-716.0205 1127.6478,-719.5375 1134.9677,-722.6961 1149.1694,-728.4904 1156.0704,-731.1389 1174.37,-736.8489 1229.4175,-751.3624 1250.1195,-757.3267 1259.588,-760.733 1272.4662,-765.9878 1281.8624,-770.2728 "/>
<polyline fill="none" stroke="#000000" points="246.3514,-765.9304 229.8338,-782.1 180.8774,-822.263 132.5616,-786.6959 63.8668,-786.3215 44.1671,-786.9938 29.2122,-788.3914 24.404,-789.0305 -39.4706,-798.7828 -114.049,-691.2617 -112.1909,-656.9396 -111.4681,-634.0753 -112.9381,-525.8271 -104.2278,-518.6458 -42.2475,-414.3223 -41.8916,-414.1448 64.521,-391.0519 72.4421,-389.1673 78.1843,-387.6815 87.1274,-385.1811 90.17,-385.2238 103.5003,-384.6482 138.5619,-382.4667 205.2757,-395.5463 251.1768,-408.7199 254.7044,-421.6161 269.7626,-484.7051 270.9223,-489.9783 280.5304,-497.5821 333.8065,-536.9878 318.9508,-664.605 319.1059,-667.346 318.8805,-674.5302 317.7961,-683.4451 317.409,-695.8502 314.2093,-723.3366 280.9296,-740.5874 264.7597,-750.8777 249.2387,-763.4363 246.3514,-765.9304 "/>
<polyline fill="none" stroke="#000000" points="333.8065,-536.9878 318.9508,-664.605 319.1059,-667.346 318.8805,-674.5302 317.7961,-683.4451 317.409,-695.8502 314.2093,-723.3366 280.9296,-740.5874 264.7597,-750.8777 249.2387,-763.4363 246.3514,-765.9304 229.8338,-782.1 180.8774,-822.263 249.7314,-963.9711 255.1141,-1013.823 254.492,-1014.9437 241.2702,-1050.3497 253.142,-1079.2255 277.4709,-1141.311 292.0709,-1180.7931 310.6107,-1234.3849 393.6633,-1290.6283 437.2244,-1294.1381 450.8665,-1295.7384 460.0877,-1297.1583 460.3839,-1297.2095 469.7269,-1298.9915 480.0582,-1301.3425 487.5331,-1298.479 503.3249,-1293.3724 507.8608,-1291.9967 558.7139,-1279.598 628.7498,-1240.2758 694.4772,-1252.4481 711.6572,-1255.97 719.6893,-1257.7732 723.9729,-1258.9016 733.2555,-1261.5288 740.9619,-1264.011 744.5006,-1265.2201 752.3906,-1275.4984 798.3956,-1315.8881 881.6088,-1345.2024 890.7686,-1348.6276 893.6658,-1349.7732 900.6616,-1347.6544 915.0858,-1343.8729 936.9439,-1339.4794 1012.415,-1325.8712 1082.0231,-1286.8076 1088.7716,-1280.2059 1116.7904,-1198.48 1118.1278,-1194.7725 1129.5781,-1165.9231 1117.0538,-1154.7693 1011.7482,-1066.1854 937.1962,-1043.4253 911.9169,-1035.188 901.6626,-1031.2339 890.4145,-1026.4457 889.5508,-1026.0609 833.5391,-940.3815 827.5497,-931.5516 831.1516,-899.7454 831.718,-895.4058 833.5406,-876.4971 826.8763,-869.6772 817.9934,-860.8673 811.8573,-854.9795 805.1102,-848.7238 803.0032,-846.6077 795.0659,-839.4562 784.1672,-830.0051 776.3958,-823.538 763.3991,-814.0607 749.7933,-805.5148 749.5704,-805.3825 740.0795,-800.0634 728.3166,-793.8726 654.5019,-760.1554 652.4242,-759.1348 641.5833,-753.4293 642.3848,-751.778 667.7327,-705.996 675.9834,-689.0881 682.2008,-674.0922 689.866,-651.2838 703.6252,-623.1695 732.6003,-570.8365 737.1029,-561.6652 746.9294,-539.109 728.2498,-482.2001 740.1279,-443.69 770.9962,-358.674 561.452,-353.301 550.6508,-353.3797 548.7895,-353.2703 542.9146,-353.5057 531.9745,-353.2202 531.6799,-353.2028 528.6807,-353.2233 524.3848,-353.1106 521.3563,-353.131 520.821,-353.1522 518.5187,-353.1675 513.7023,-353.3583 505.9467,-353.1528 504.1503,-353.0458 495.6684,-353.3791 493.2304,-353.3943 486.109,-352.9693 469.769,-350.9091 464.7204,-349.9393 458.2495,-348.4814 445.4176,-345.1647 442.2603,-344.1427 335.0371,-305.8853 251.1768,-408.7199 254.7044,-421.6161 269.7626,-484.7051 270.9223,-489.9783 280.5304,-497.5821 333.8065,-536.9878 "/>
<polyline fill="none" stroke="#000000" points="776.3958,-823.538 763.3991,-814.0607 749.7933,-805.5148 749.5704,-805.3825 740.0795,-800.0634 728.3166,-793.8726 654.5019,-760.1554 652.4242,-759.1348 641.5833,-753.4293 642.3848,-751.778 667.7327,-705.996 675.9834,-689.0881 682.2008,-674.0922 689.866,-651.2838 703.6252,-623.1695 732.6003,-570.8365 737.1029,-561.6652 746.9294,-539.109 728.2498,-482.2001 740.1279,-443.69 770.9962,-358.674 784.9649,-342.5929 787.0179,-329.4249 795.5911,-269.3619 851.0027,-196.6465 1012.4826,-204.7336 1037.2784,-205.4723 1042.6355,-205.3049 1052.0085,-204.8213 1054.7866,-204.6215 1064.4913,-203.5283 1083.0608,-200.6776 1086.4177,-200.0945 1091.9259,-199.0264 1094.9767,-198.1851 1098.0297,-198.0318 1119.2915,-202.9083 1173.4698,-210.8577 1265.9534,-270.1828 1273.9158,-319.3926 1275.172,-325.5398 1343.6044,-419.3571 1361.4987,-442.8546 1354.8678,-454.3244 1347.7721,-467.1628 1325.8856,-486.2589 1324.127,-487.6682 1317.5648,-492.7027 1310.4512,-497.9146 1306.0648,-501.3126 1296.7775,-508.1597 1294.2957,-509.8943 1278.8668,-519.5388 1274.6498,-521.8549 1259.4729,-529.0829 1245.6984,-534.1179 1232.9786,-537.8257 1192.7402,-548.0424 1189.2471,-549.0569 1174.1691,-554.5565 1161.527,-560.5703 1146.4552,-568.861 1144.1727,-570.282 1137.046,-598.3239 1133.9901,-612.1777 1123.5542,-648.8768 1105.1012,-707.6514 1042.2523,-722.9515 1038.0625,-724.0507 1024.421,-727.8886 1019.7492,-729.3784 1004.7588,-752.4421 1003.3259,-753.4953 866.4785,-850.3176 846.8697,-865.2559 839.4438,-871.2998 837.9635,-872.5433 833.5406,-876.4971 826.8763,-869.6772 817.9934,-860.8673 811.8573,-854.9795 805.1102,-848.7238 803.0032,-846.6077 795.0659,-839.4562 784.1672,-830.0051 776.3958,-823.538 "/>
<polyline fill="none" stroke="#000000" points="1131.4677,-1165.2098 1129.5781,-1165.9231 1117.0538,-1154.7693 1011.7482,-1066.1854 937.1962,-1043.4253 911.9169,-1035.188 901.6626,-1031.2339 890.4145,-1026.4457 889.5508,-1026.0609 833.5391,-940.3815 827.5497,-931.5516 831.1516,-899.7454 831.718,-895.4058 833.5406,-876.4971 837.9635,-872.5433 839.4438,-871.2998 846.8697,-865.2559 866.4785,-850.3176 1003.3259,-753.4953 1004.7588,-752.4421 1019.7492,-729.3784 1024.421,-727.8886 1038.0625,-724.0507 1042.2523,-722.9515 1105.1012,-707.6514 1120.2996,-716.0205 1127.6478,-719.5375 1134.9677,-722.6961 1149.1694,-728.4904 1156.0704,-731.1389 1174.37,-736.8489 1229.4175,-751.3624 1250.1195,-757.3267 1259.588,-760.733 1272.4662,-765.9878 1281.8624,-770.2728 1289.9573,-774.3545 1298.7559,-779.0034 1306.1191,-783.0692 1308.6594,-784.6556 1340.4794,-850.9834 1355.9626,-880.4555 1349.3439,-897.3269 1340.2019,-921.8694 1338.6777,-932.0291 1335.738,-937.4487 1312.3497,-984.5859 1262.2682,-1091.141 1246.0614,-1114.2798 1236.6528,-1119.9722 1177.6915,-1145.4049 1159.2041,-1153.7068 1146.0377,-1160.3069 1137.7578,-1162.9312 1131.4677,-1165.2098 "/>
<!-- aajohan&#45;comfortaa&#45;fonts&#45;&gt;fontpackages&#45;filesystem -->
<g id="edge1" class="edge">
<title>aajohan&#45;comfortaa&#45;fonts&#45;&gt;fontpackages&#45;filesystem</title>
<path fill="none" stroke="#444444" stroke-opacity="0.333333" d="M529.0393,-43.9931C521.3726,-42.1396 513.5449,-40.2473 505.7834,-38.3709"/>
<polygon fill="#444444" fill-opacity="0.333333" stroke="#444444" stroke-opacity="0.333333" points="506.5471,-34.9548 496.0046,-36.0069 504.9022,-41.7588 506.5471,-34.9548"/>
</g>
<!-- copy&#45;jdk&#45;configs&#45;&gt;lua -->
<g id="edge2" class="edge">
<title>copy&#45;jdk&#45;configs&#45;&gt;lua</title>
<path fill="none" stroke="#444444" stroke-opacity="0.333333" d="M1317.8575,-641.9933C1348.989,-658.1866 1394.3551,-681.7841 1425.845,-698.1638"/>
<polygon fill="#444444" fill-opacity="0.333333" stroke="#444444" stroke-opacity="0.333333" points="1424.2509,-701.2797 1434.7377,-702.7893 1427.4812,-695.0696 1424.2509,-701.2797"/>
</g>
<!-- copy&#45;jdk&#45;configs&#45;&gt;lua&#45;posix -->
<g id="edge3" class="edge">
<title>copy&#45;jdk&#45;configs&#45;&gt;lua&#45;posix</title>
<path fill="none" stroke="#444444" stroke-opacity="0.333333" d="M1379.9826,-610.6879C1383.429,-610.2221 1386.8574,-609.7587 1390.2465,-609.3006"/>
<polygon fill="#444444" fill-opacity="0.333333" stroke="#444444" stroke-opacity="0.333333" points="1390.8335,-612.7532 1400.2745,-607.9452 1389.8958,-605.8163 1390.8335,-612.7532"/>
</g>
<!-- lua&#45;posix&#45;&gt;lua -->
<g id="edge4" class="edge">
<title>lua&#45;posix&#45;&gt;lua</title>
<path fill="none" stroke="#444444" stroke-opacity="0.333333" d="M1459.8851,-617.9695C1460.2877,-636.8138 1460.925,-666.6459 1461.3948,-688.6414"/>
<polygon fill="#444444" fill-opacity="0.333333" stroke="#444444" stroke-opacity="0.333333" points="1457.8974,-688.8043 1461.6103,-698.7272 1464.8958,-688.6547 1457.8974,-688.8043"/>
</g>
<!-- fontconfig&#45;&gt;aajohan&#45;comfortaa&#45;fonts -->
<g id="edge5" class="edge">
<title>fontconfig&#45;&gt;aajohan&#45;comfortaa&#45;fonts</title>
<path fill="none" stroke="#444444" stroke-opacity="0.333333" d="M535.7464,-244.6196C548.8431,-209.3975 577.7591,-131.6316 593.2922,-89.8571"/>
<polygon fill="#444444" fill-opacity="0.333333" stroke="#444444" stroke-opacity="0.333333" points="596.6404,-90.8948 596.8451,-80.302 590.0793,-88.4551 596.6404,-90.8948"/>
</g>
<!-- fontconfig&#45;&gt;fontpackages&#45;filesystem -->
<g id="edge6" class="edge">
<title>fontconfig&#45;&gt;fontpackages&#45;filesystem</title>
<path fill="none" stroke="#444444" stroke-opacity="0.333333" d="M520.9123,-244.391C502.1947,-201.757 455.7679,-96.0082 433.6326,-45.5895"/>
<polygon fill="#444444" fill-opacity="0.333333" stroke="#444444" stroke-opacity="0.333333" points="436.7696,-44.0281 429.5449,-36.2786 430.3601,-46.842 436.7696,-44.0281"/>
</g>
<!-- giflib&#45;&gt;libICE -->
<g id="edge7" class="edge">
<title>giflib&#45;&gt;libICE</title>
<path fill="none" stroke="#444444" stroke-opacity="0.333333" d="M219.3432,-665.2101C184.069,-660.5062 134.0167,-653.8314 96.2256,-648.7918"/>
<polygon fill="#444444" fill-opacity="0.333333" stroke="#444444" stroke-opacity="0.333333" points="96.2891,-645.2693 85.9142,-647.4167 95.3638,-652.2079 96.2891,-645.2693"/>
</g>
<!-- giflib&#45;&gt;libSM -->
<g id="edge8" class="edge">
<title>giflib&#45;&gt;libSM</title>
<path fill="none" stroke="#444444" stroke-opacity="0.333333" d="M238.4106,-652.694C206.8144,-628.696 151.2318,-586.4799 116.1172,-559.8096"/>
<polygon fill="#444444" fill-opacity="0.333333" stroke="#444444" stroke-opacity="0.333333" points="118.1699,-556.9737 108.0895,-553.7124 113.936,-562.5481 118.1699,-556.9737"/>
</g>
<!-- giflib&#45;&gt;libX11 -->
<g id="edge9" class="edge">
<title>giflib&#45;&gt;libX11</title>
<path fill="none" stroke="#444444" stroke-opacity="0.333333" d="M290.4156,-689.049C339.2401,-720.6416 440.011,-785.8467 494.2742,-820.9584"/>
<polygon fill="#444444" fill-opacity="0.333333" stroke="#444444" stroke-opacity="0.333333" points="492.5902,-824.0376 502.8873,-826.5317 496.393,-818.1606 492.5902,-824.0376"/>
</g>
<!-- libSM&#45;&gt;libICE -->
<g id="edge10" class="edge">
<title>libSM&#45;&gt;libICE</title>
<path fill="none" stroke="#444444" stroke-opacity="0.333333" d="M77.141,-553.5286C70.683,-570.1524 60.9979,-595.0832 53.5736,-614.1944"/>
<polygon fill="#444444" fill-opacity="0.333333" stroke="#444444" stroke-opacity="0.333333" points="50.285,-612.9943 49.9263,-623.5831 56.81,-615.5291 50.285,-612.9943"/>
</g>
<!-- libX11&#45;&gt;libX11&#45;common -->
<g id="edge11" class="edge">
<title>libX11&#45;&gt;libX11&#45;common</title>
<path fill="none" stroke="#444444" stroke-opacity="0.333333" d="M527.2938,-862.8972C517.8524,-912.5052 491.7376,-1049.719 480.4087,-1109.2438"/>
<polygon fill="#444444" fill-opacity="0.333333" stroke="#444444" stroke-opacity="0.333333" points="476.9663,-1108.6116 478.5348,-1119.0897 483.8429,-1109.9205 476.9663,-1108.6116"/>
</g>
<!-- libX11&#45;&gt;libxcb -->
<g id="edge12" class="edge">
<title>libX11&#45;&gt;libxcb</title>
<path fill="none" stroke="#444444" stroke-opacity="0.333333" d="M544.2318,-862.7375C577.5039,-907.6487 663.7666,-1024.0876 702.6134,-1076.5236"/>
<polygon fill="#444444" fill-opacity="0.333333" stroke="#444444" stroke-opacity="0.333333" points="699.8779,-1078.7108 708.643,-1084.6625 705.5025,-1074.5438 699.8779,-1078.7108"/>
</g>
<!-- libxcb&#45;&gt;libXau -->
<g id="edge13" class="edge">
<title>libxcb&#45;&gt;libXau</title>
<path fill="none" stroke="#444444" stroke-opacity="0.333333" d="M758.1851,-1120.9911C787.8507,-1135.9378 830.0308,-1157.1898 861.9239,-1173.2587"/>
<polygon fill="#444444" fill-opacity="0.333333" stroke="#444444" stroke-opacity="0.333333" points="860.5405,-1176.4808 871.0459,-1177.8547 863.6903,-1170.2295 860.5405,-1176.4808"/>
</g>
<!-- java&#45;1.8.0&#45;openjdk&#45;devel&#45;&gt;libX11 -->
<g id="edge14" class="edge">
<title>java&#45;1.8.0&#45;openjdk&#45;devel&#45;&gt;libX11</title>
<path fill="none" stroke="#444444" stroke-opacity="0.333333" d="M765.4848,-706.8044C717.2422,-735.1237 623.7128,-790.0269 570.4427,-821.2974"/>
<polygon fill="#444444" fill-opacity="0.333333" stroke="#444444" stroke-opacity="0.333333" points="568.4703,-818.3967 561.6182,-826.4775 572.014,-824.4334 568.4703,-818.3967"/>
</g>
<!-- java&#45;1.8.0&#45;openjdk&#45;devel&#45;&gt;java&#45;1.8.0&#45;openjdk -->
<g id="edge15" class="edge">
<title>java&#45;1.8.0&#45;openjdk&#45;devel&#45;&gt;java&#45;1.8.0&#45;openjdk</title>
<path fill="none" stroke="#444444" stroke-opacity="0.333333" d="M714.9864,-670.7444C703.8285,-668.2662 692.3119,-665.7083 680.9924,-663.1942"/>
<polygon fill="#444444" fill-opacity="0.333333" stroke="#444444" stroke-opacity="0.333333" points="681.6307,-659.7507 671.1097,-660.9992 680.1129,-666.5842 681.6307,-659.7507"/>
</g>
<!-- java&#45;1.8.0&#45;openjdk&#45;devel&#45;&gt;java&#45;1.8.0&#45;openjdk&#45;headless -->
<g id="edge16" class="edge">
<title>java&#45;1.8.0&#45;openjdk&#45;devel&#45;&gt;java&#45;1.8.0&#45;openjdk&#45;headless</title>
<path fill="none" stroke="#444444" stroke-opacity="0.333333" d="M820.5983,-670.5327C849.8962,-648.6299 899.1306,-611.8229 931.6061,-587.5447"/>
<polygon fill="#444444" fill-opacity="0.333333" stroke="#444444" stroke-opacity="0.333333" points="933.971,-590.1467 939.8846,-581.3558 929.7796,-584.5402 933.971,-590.1467"/>
</g>
<!-- java&#45;1.8.0&#45;openjdk&#45;&gt;fontconfig -->
<g id="edge17" class="edge">
<title>java&#45;1.8.0&#45;openjdk&#45;&gt;fontconfig</title>
<path fill="none" stroke="#444444" stroke-opacity="0.333333" d="M587.0794,-624.8984C577.2868,-563.8552 545.4003,-365.0862 533.5123,-290.9802"/>
<polygon fill="#444444" fill-opacity="0.333333" stroke="#444444" stroke-opacity="0.333333" points="536.9482,-290.3016 531.9084,-280.9823 530.0366,-291.4105 536.9482,-290.3016"/>
</g>
<!-- java&#45;1.8.0&#45;openjdk&#45;&gt;giflib -->
<g id="edge18" class="edge">
<title>java&#45;1.8.0&#45;openjdk&#45;&gt;giflib</title>
<path fill="none" stroke="#444444" stroke-opacity="0.333333" d="M482.7377,-652.1417C426.8335,-656.9176 360.9133,-662.5491 315.8507,-666.3988"/>
<polygon fill="#444444" fill-opacity="0.333333" stroke="#444444" stroke-opacity="0.333333" points="315.3803,-662.9262 305.7145,-667.2648 315.9762,-669.9008 315.3803,-662.9262"/>
</g>
<!-- java&#45;1.8.0&#45;openjdk&#45;&gt;libX11 -->
<g id="edge19" class="edge">
<title>java&#45;1.8.0&#45;openjdk&#45;&gt;libX11</title>
<path fill="none" stroke="#444444" stroke-opacity="0.333333" d="M584.622,-661.2262C574.2315,-696.61 551.2856,-774.7503 538.9709,-816.6866"/>
<polygon fill="#444444" fill-opacity="0.333333" stroke="#444444" stroke-opacity="0.333333" points="535.5427,-815.9392 536.0833,-826.5203 542.2591,-817.9116 535.5427,-815.9392"/>
</g>
<!-- java&#45;1.8.0&#45;openjdk&#45;&gt;java&#45;1.8.0&#45;openjdk&#45;headless -->
<g id="edge20" class="edge">
<title>java&#45;1.8.0&#45;openjdk&#45;&gt;java&#45;1.8.0&#45;openjdk&#45;headless</title>
<path fill="none" stroke="#444444" stroke-opacity="0.333333" d="M674.8623,-624.8971C732.8528,-612.5431 809.7426,-596.1629 869.6607,-583.3982"/>
<polygon fill="#444444" fill-opacity="0.333333" stroke="#444444" stroke-opacity="0.333333" points="870.4524,-586.8082 879.5036,-581.3013 868.9938,-579.9618 870.4524,-586.8082"/>
</g>
<!-- java&#45;1.8.0&#45;openjdk&#45;&gt;libXcomposite -->
<g id="edge21" class="edge">
<title>java&#45;1.8.0&#45;openjdk&#45;&gt;libXcomposite</title>
<path fill="none" stroke="#444444" stroke-opacity="0.333333" d="M491.97,-661.03C489.5069,-661.4836 487.0438,-661.9372 484.5869,-662.3897"/>
<polygon fill="#444444" fill-opacity="0.333333" stroke="#444444" stroke-opacity="0.333333" points="483.7381,-658.9871 474.5374,-664.2405 485.006,-665.8713 483.7381,-658.9871"/>
</g>
<!-- java&#45;1.8.0&#45;openjdk&#45;&gt;libXext -->
<g id="edge22" class="edge">
<title>java&#45;1.8.0&#45;openjdk&#45;&gt;libXext</title>
<path fill="none" stroke="#444444" stroke-opacity="0.333333" d="M593.282,-661.0899C600.319,-699.6846 616.834,-790.2612 625.2324,-836.3224"/>
<polygon fill="#444444" fill-opacity="0.333333" stroke="#444444" stroke-opacity="0.333333" points="621.8019,-837.0203 627.039,-846.2302 628.6884,-835.7646 621.8019,-837.0203"/>
</g>
<!-- java&#45;1.8.0&#45;openjdk&#45;&gt;libXi -->
<g id="edge23" class="edge">
<title>java&#45;1.8.0&#45;openjdk&#45;&gt;libXi</title>
<path fill="none" stroke="#444444" stroke-opacity="0.333333" d="M578.3816,-661.1109C552.4237,-701.6889 489.5487,-799.9765 459.1656,-847.4721"/>
<polygon fill="#444444" fill-opacity="0.333333" stroke="#444444" stroke-opacity="0.333333" points="456.155,-845.6834 453.7145,-855.9933 462.0517,-849.4556 456.155,-845.6834"/>
</g>
<!-- java&#45;1.8.0&#45;openjdk&#45;&gt;libXrender -->
<g id="edge24" class="edge">
<title>java&#45;1.8.0&#45;openjdk&#45;&gt;libXrender</title>
<path fill="none" stroke="#444444" stroke-opacity="0.333333" d="M560.4841,-661.1675C519.9467,-686.1634 446.9801,-731.1554 402.3857,-758.6529"/>
<polygon fill="#444444" fill-opacity="0.333333" stroke="#444444" stroke-opacity="0.333333" points="400.538,-755.6803 393.8631,-763.908 404.2121,-761.6386 400.538,-755.6803"/>
</g>
<!-- java&#45;1.8.0&#45;openjdk&#45;&gt;libXtst -->
<g id="edge25" class="edge">
<title>java&#45;1.8.0&#45;openjdk&#45;&gt;libXtst</title>
<path fill="none" stroke="#444444" stroke-opacity="0.333333" d="M586.7801,-661.1673C578.2884,-709.4306 555.1392,-841.0017 544.9571,-898.8728"/>
<polygon fill="#444444" fill-opacity="0.333333" stroke="#444444" stroke-opacity="0.333333" points="541.4991,-898.329 543.2133,-908.7842 548.3933,-899.542 541.4991,-898.329"/>
</g>
<!-- java&#45;1.8.0&#45;openjdk&#45;&gt;xorg&#45;x11&#45;fonts&#45;Type1 -->
<g id="edge26" class="edge">
<title>java&#45;1.8.0&#45;openjdk&#45;&gt;xorg&#45;x11&#45;fonts&#45;Type1</title>
<path fill="none" stroke="#444444" stroke-opacity="0.333333" d="M581.6407,-624.9429C565.4413,-589.905 529.6337,-512.4566 510.4908,-471.0525"/>
<polygon fill="#444444" fill-opacity="0.333333" stroke="#444444" stroke-opacity="0.333333" points="513.6004,-469.438 506.2269,-461.83 507.2466,-472.3756 513.6004,-469.438"/>
</g>
<!-- java&#45;1.8.0&#45;openjdk&#45;headless&#45;&gt;copy&#45;jdk&#45;configs -->
<g id="edge27" class="edge">
<title>java&#45;1.8.0&#45;openjdk&#45;headless&#45;&gt;copy&#45;jdk&#45;configs</title>
<path fill="none" stroke="#444444" stroke-opacity="0.333333" d="M1059.2836,-581.366C1096.5956,-588.4481 1139.5391,-596.5991 1177.7567,-603.8531"/>
<polygon fill="#444444" fill-opacity="0.333333" stroke="#444444" stroke-opacity="0.333333" points="1177.4044,-607.3486 1187.8817,-605.7749 1178.7098,-600.4714 1177.4044,-607.3486"/>
</g>
<!-- java&#45;1.8.0&#45;openjdk&#45;headless&#45;&gt;javapackages&#45;tools -->
<g id="edge28" class="edge">
<title>java&#45;1.8.0&#45;openjdk&#45;headless&#45;&gt;javapackages&#45;tools</title>
<path fill="none" stroke="#444444" stroke-opacity="0.333333" d="M977.8318,-545.1168C1000.8328,-507.0301 1045.5167,-418.826 1064.7976,-373.778"/>
<polygon fill="#444444" fill-opacity="0.333333" stroke="#444444" stroke-opacity="0.333333" points="1068.1148,-374.9157 1068.7159,-364.3379 1061.6496,-372.2321 1068.1148,-374.9157"/>
</g>
<!-- java&#45;1.8.0&#45;openjdk&#45;headless&#45;&gt;tzdata&#45;java -->
<g id="edge29" class="edge">
<title>java&#45;1.8.0&#45;openjdk&#45;headless&#45;&gt;tzdata&#45;java</title>
<path fill="none" stroke="#444444" stroke-opacity="0.333333" d="M999.125,-545.141C1032.3719,-527.9379 1082.4464,-502.0277 1118.4493,-483.3986"/>
<polygon fill="#444444" fill-opacity="0.333333" stroke="#444444" stroke-opacity="0.333333" points="1120.4689,-486.2944 1127.7419,-478.5902 1117.252,-480.0773 1120.4689,-486.2944"/>
</g>
<!-- libXcomposite&#45;&gt;libX11 -->
<g id="edge30" class="edge">
<title>libXcomposite&#45;&gt;libX11</title>
<path fill="none" stroke="#444444" stroke-opacity="0.333333" d="M408.8626,-697.1065C433.125,-726.4547 481.2604,-784.6801 509.2426,-818.528"/>
<polygon fill="#444444" fill-opacity="0.333333" stroke="#444444" stroke-opacity="0.333333" points="506.8265,-821.0986 515.8958,-826.5758 512.2216,-816.6384 506.8265,-821.0986"/>
</g>
<!-- libXext&#45;&gt;libX11 -->
<g id="edge31" class="edge">
<title>libXext&#45;&gt;libX11</title>
<path fill="none" stroke="#444444" stroke-opacity="0.333333" d="M582.3046,-854.7762C582.2176,-854.759 582.1306,-854.7418 582.0435,-854.7246"/>
<polygon fill="#444444" fill-opacity="0.333333" stroke="#444444" stroke-opacity="0.333333" points="584.4538,-851.6338 573.9645,-853.1258 583.0948,-858.5006 584.4538,-851.6338"/>
</g>
<!-- libXi&#45;&gt;libX11 -->
<g id="edge32" class="edge">
<title>libXi&#45;&gt;libX11</title>
<path fill="none" stroke="#444444" stroke-opacity="0.333333" d="M479.7486,-861.5463C479.9137,-861.4914 480.0789,-861.4365 480.2443,-861.3815"/>
<polygon fill="#444444" fill-opacity="0.333333" stroke="#444444" stroke-opacity="0.333333" points="479.3472,-865.3682 487.7323,-858.892 477.1387,-858.7257 479.3472,-865.3682"/>
</g>
<!-- libXi&#45;&gt;libXext -->
<g id="edge33" class="edge">
<title>libXi&#45;&gt;libXext</title>
<path fill="none" stroke="#444444" stroke-opacity="0.333333" d="M479.7948,-872.0884C506.0809,-870.7249 541.6977,-868.8774 571.6877,-867.3218"/>
<polygon fill="#444444" fill-opacity="0.333333" stroke="#444444" stroke-opacity="0.333333" points="572.2312,-870.7984 582.0364,-866.785 571.8685,-863.8078 572.2312,-870.7984"/>
</g>
<!-- libXrender&#45;&gt;libX11 -->
<g id="edge34" class="edge">
<title>libXrender&#45;&gt;libX11</title>
<path fill="none" stroke="#444444" stroke-opacity="0.333333" d="M412.4956,-800.1718C433.0575,-807.8915 457.1171,-816.9243 478.1491,-824.8205"/>
<polygon fill="#444444" fill-opacity="0.333333" stroke="#444444" stroke-opacity="0.333333" points="476.9838,-828.1215 487.5759,-828.3597 479.4442,-821.5681 476.9838,-828.1215"/>
</g>
<!-- libXtst&#45;&gt;libX11 -->
<g id="edge35" class="edge">
<title>libXtst&#45;&gt;libX11</title>
<path fill="none" stroke="#444444" stroke-opacity="0.333333" d="M537.9849,-908.5683C536.81,-898.1339 535.3108,-884.8189 533.9845,-873.0398"/>
<polygon fill="#444444" fill-opacity="0.333333" stroke="#444444" stroke-opacity="0.333333" points="537.4264,-872.3263 532.8293,-862.7807 530.4703,-873.1096 537.4264,-872.3263"/>
</g>
<!-- libXtst&#45;&gt;libXext -->
<g id="edge36" class="edge">
<title>libXtst&#45;&gt;libXext</title>
<path fill="none" stroke="#444444" stroke-opacity="0.333333" d="M566.1556,-908.7308C575.4205,-902.3134 585.9943,-894.9894 595.849,-888.1635"/>
<polygon fill="#444444" fill-opacity="0.333333" stroke="#444444" stroke-opacity="0.333333" points="598.0454,-890.8998 604.2731,-882.3285 594.0596,-885.1454 598.0454,-890.8998"/>
</g>
<!-- libXtst&#45;&gt;libXi -->
<g id="edge37" class="edge">
<title>libXtst&#45;&gt;libXi</title>
<path fill="none" stroke="#444444" stroke-opacity="0.333333" d="M506.6324,-908.8037C499.624,-905.0242 492.1415,-900.989 484.8476,-897.0554"/>
<polygon fill="#444444" fill-opacity="0.333333" stroke="#444444" stroke-opacity="0.333333" points="486.2223,-893.8204 475.7593,-892.1543 482.8996,-899.9815 486.2223,-893.8204"/>
</g>
<!-- javapackages&#45;tools&#45;&gt;java&#45;1.8.0&#45;openjdk&#45;headless -->
<g id="edge38" class="edge">
<title>javapackages&#45;tools&#45;&gt;java&#45;1.8.0&#45;openjdk&#45;headless</title>
<path fill="none" stroke="#444444" stroke-opacity="0.333333" d="M1059.8182,-364.4532C1036.8172,-402.5399 992.1333,-490.744 972.8524,-535.792"/>
<polygon fill="#444444" fill-opacity="0.333333" stroke="#444444" stroke-opacity="0.333333" points="969.5352,-534.6543 968.9341,-545.2321 976.0004,-537.3379 969.5352,-534.6543"/>
</g>
<!-- libXfont&#45;&gt;libfontenc -->
<g id="edge39" class="edge">
<title>libXfont&#45;&gt;libfontenc</title>
<path fill="none" stroke="#444444" stroke-opacity="0.333333" d="M1143.4378,-936.1548C1143.3969,-924.0914 1143.3426,-908.0603 1143.2962,-894.368"/>
<polygon fill="#444444" fill-opacity="0.333333" stroke="#444444" stroke-opacity="0.333333" points="1146.795,-893.997 1143.2611,-884.0089 1139.7951,-894.0208 1146.795,-893.997"/>
</g>
<!-- xorg&#45;x11&#45;font&#45;utils&#45;&gt;libXfont -->
<g id="edge40" class="edge">
<title>xorg&#45;x11&#45;font&#45;utils&#45;&gt;libXfont</title>
<path fill="none" stroke="#444444" stroke-opacity="0.333333" d="M1098.2047,-928.6346C1099.7446,-929.5137 1101.2994,-930.4012 1102.8588,-931.2913"/>
<polygon fill="#444444" fill-opacity="0.333333" stroke="#444444" stroke-opacity="0.333333" points="1101.3486,-934.4593 1111.7684,-936.3771 1104.8188,-928.38 1101.3486,-934.4593"/>
</g>
<!-- xorg&#45;x11&#45;font&#45;utils&#45;&gt;libfontenc -->
<g id="edge41" class="edge">
<title>xorg&#45;x11&#45;font&#45;utils&#45;&gt;libfontenc</title>
<path fill="none" stroke="#444444" stroke-opacity="0.333333" d="M1097.6375,-892.3883C1099.3817,-891.3781 1101.1463,-890.3561 1102.9163,-889.331"/>
<polygon fill="#444444" fill-opacity="0.333333" stroke="#444444" stroke-opacity="0.333333" points="1104.8416,-892.2606 1111.7409,-884.2201 1101.3333,-886.2032 1104.8416,-892.2606"/>
</g>
<!-- aajohan&#45;comfortaa&#45;fonts -->
<g id="node1" class="node">
<title>aajohan&#45;comfortaa&#45;fonts</title>
<text text-anchor="middle" x="603.64" y="-58.328" font-family="monospace" font-size="14.00" fill="#000000">aajohan&#45;comfortaa&#45;fonts</text>
</g>
<!-- fontpackages&#45;filesystem -->
<g id="node2" class="node">
<title>fontpackages&#45;filesystem</title>
<text text-anchor="middle" x="421.52" y="-14.3" font-family="monospace" font-size="14.00" fill="#000000">fontpackages&#45;filesystem</text>
</g>
<!-- copy&#45;jdk&#45;configs -->
<g id="node3" class="node">
<title>copy&#45;jdk&#45;configs</title>
<text text-anchor="middle" x="1282.9" y="-620.11" font-family="monospace" font-size="14.00" fill="#000000">copy&#45;jdk&#45;configs</text>
</g>
<!-- lua -->
<g id="node4" class="node">
<title>lua</title>
<text text-anchor="middle" x="1462" y="-713.27" font-family="monospace" font-size="14.00" fill="#000000">lua</text>
</g>
<!-- lua&#45;posix -->
<g id="node5" class="node">
<title>lua&#45;posix</title>
<text text-anchor="middle" x="1459.5" y="-596.24" font-family="monospace" font-size="14.00" fill="#000000">lua&#45;posix</text>
</g>
<!-- fontconfig -->
<g id="node6" class="node">
<title>fontconfig</title>
<text text-anchor="middle" x="528.99" y="-259.09" font-family="monospace" font-size="14.00" fill="#000000">fontconfig</text>
</g>
<!-- giflib -->
<g id="node7" class="node">
<title>giflib</title>
<text text-anchor="middle" x="262.46" y="-667.26" font-family="monospace" font-size="14.00" fill="#000000">giflib</text>
</g>
<!-- libICE -->
<g id="node8" class="node">
<title>libICE</title>
<text text-anchor="middle" x="42.896" y="-637.98" font-family="monospace" font-size="14.00" fill="#000000">libICE</text>
</g>
<!-- libSM -->
<g id="node9" class="node">
<title>libSM</title>
<text text-anchor="middle" x="84.137" y="-531.82" font-family="monospace" font-size="14.00" fill="#000000">libSM</text>
</g>
<!-- libX11 -->
<g id="node10" class="node">
<title>libX11</title>
<text text-anchor="middle" x="530.78" y="-840.88" font-family="monospace" font-size="14.00" fill="#000000">libX11</text>
</g>
<!-- libX11&#45;common -->
<g id="node11" class="node">
<title>libX11&#45;common</title>
<text text-anchor="middle" x="475.05" y="-1133.7" font-family="monospace" font-size="14.00" fill="#000000">libX11&#45;common</text>
</g>
<!-- libxcb -->
<g id="node12" class="node">
<title>libxcb</title>
<text text-anchor="middle" x="722.08" y="-1099.1" font-family="monospace" font-size="14.00" fill="#000000">libxcb</text>
</g>
<!-- libXau -->
<g id="node13" class="node">
<title>libXau</title>
<text text-anchor="middle" x="907.06" y="-1192.3" font-family="monospace" font-size="14.00" fill="#000000">libXau</text>
</g>
<!-- java&#45;1.8.0&#45;openjdk&#45;devel -->
<g id="node14" class="node">
<title>java&#45;1.8.0&#45;openjdk&#45;devel</title>
<text text-anchor="middle" x="796.19" y="-685.08" font-family="monospace" font-size="14.00" fill="#000000">java&#45;1.8.0&#45;openjdk&#45;devel</text>
</g>
<!-- java&#45;1.8.0&#45;openjdk -->
<g id="node15" class="node">
<title>java&#45;1.8.0&#45;openjdk</title>
<text text-anchor="middle" x="589.98" y="-639.28" font-family="monospace" font-size="14.00" fill="#000000">java&#45;1.8.0&#45;openjdk</text>
</g>
<!-- java&#45;1.8.0&#45;openjdk&#45;headless -->
<g id="node16" class="node">
<title>java&#45;1.8.0&#45;openjdk&#45;headless</title>
<text text-anchor="middle" x="964.05" y="-559.59" font-family="monospace" font-size="14.00" fill="#000000">java&#45;1.8.0&#45;openjdk&#45;headless</text>
</g>
<!-- libXcomposite -->
<g id="node17" class="node">
<title>libXcomposite</title>
<text text-anchor="middle" x="393.96" y="-675.38" font-family="monospace" font-size="14.00" fill="#000000">libXcomposite</text>
</g>
<!-- libXext -->
<g id="node18" class="node">
<title>libXext</title>
<text text-anchor="middle" x="630.33" y="-860.58" font-family="monospace" font-size="14.00" fill="#000000">libXext</text>
</g>
<!-- libXi -->
<g id="node19" class="node">
<title>libXi</title>
<text text-anchor="middle" x="442.17" y="-870.34" font-family="monospace" font-size="14.00" fill="#000000">libXi</text>
</g>
<!-- libXrender -->
<g id="node20" class="node">
<title>libXrender</title>
<text text-anchor="middle" x="364.36" y="-778.4" font-family="monospace" font-size="14.00" fill="#000000">libXrender</text>
</g>
<!-- libXtst -->
<g id="node21" class="node">
<title>libXtst</title>
<text text-anchor="middle" x="540.04" y="-923.12" font-family="monospace" font-size="14.00" fill="#000000">libXtst</text>
</g>
<!-- xorg&#45;x11&#45;fonts&#45;Type1 -->
<g id="node22" class="node">
<title>xorg&#45;x11&#45;fonts&#45;Type1</title>
<text text-anchor="middle" x="497.84" y="-439.99" font-family="monospace" font-size="14.00" fill="#000000">xorg&#45;x11&#45;fonts&#45;Type1</text>
</g>
<!-- javapackages&#45;tools -->
<g id="node23" class="node">
<title>javapackages&#45;tools</title>
<text text-anchor="middle" x="1073.6" y="-342.58" font-family="monospace" font-size="14.00" fill="#000000">javapackages&#45;tools</text>
</g>
<!-- tzdata&#45;java -->
<g id="node24" class="node">
<title>tzdata&#45;java</title>
<text text-anchor="middle" x="1162.8" y="-456.75" font-family="monospace" font-size="14.00" fill="#000000">tzdata&#45;java</text>
</g>
<!-- libXfont -->
<g id="node25" class="node">
<title>libXfont</title>
<text text-anchor="middle" x="1143.5" y="-950.79" font-family="monospace" font-size="14.00" fill="#000000">libXfont</text>
</g>
<!-- libfontenc -->
<g id="node26" class="node">
<title>libfontenc</title>
<text text-anchor="middle" x="1143.2" y="-862.3" font-family="monospace" font-size="14.00" fill="#000000">libfontenc</text>
</g>
<!-- xorg&#45;x11&#45;font&#45;utils -->
<g id="node27" class="node">
<title>xorg&#45;x11&#45;font&#45;utils</title>
<text text-anchor="middle" x="1066.4" y="-906.78" font-family="monospace" font-size="14.00" fill="#000000">xorg&#45;x11&#45;font&#45;utils</text>
</g>
</g>
</svg>
