<?xml version="1.0" encoding="UTF-8" standalone="no"?>
<!DOCTYPE svg PUBLIC "-//W3C//DTD SVG 1.1//EN"
 "http://www.w3.org/Graphics/SVG/1.1/DTD/svg11.dtd">
<!-- Generated by graphviz version 2.40.1 (20161225.0304)
 -->
<!-- Title: G Pages: 1 -->
<svg width="3039pt" height="1466pt"
 viewBox="0.00 0.00 3038.97 1466.12" xmlns="http://www.w3.org/2000/svg" xmlns:xlink="http://www.w3.org/1999/xlink">
<g id="graph0" class="graph" transform="scale(1 1) rotate(0) translate(156.4623 1298.7263)">
<title>G</title>
<polygon fill="#dae2ff" stroke="transparent" points="-156.4623,167.3945 -156.4623,-1298.7263 2882.5056,-1298.7263 2882.5056,167.3945 -156.4623,167.3945"/>
<polygon fill="#fbb4ae" stroke="#fbb4ae" points="1514.3489,-650.749 1511.8246,-654.2074 1508.0664,-658.924 1511.5779,-673.7253 1511.6689,-674.008 1544.8939,-686.8242 1583.8073,-674.7424 1592.6967,-672.8196 1597.8567,-672.2035 1601.3755,-672.1211 1602.1814,-672.0244 1607.8381,-671.8896 1610.8523,-672.1074 1612.2291,-672.3408 1613.6421,-672.442 1616.97,-672.3613 1620.7031,-671.9083 1621.0193,-671.9005 1624.6613,-672.1622 1629.1178,-672.0507 1632.5709,-672.298 1633.5397,-672.2737 1637.0983,-672.5262 1638.3563,-672.4944 1643.1077,-671.9132 1648.1637,-672.2689 1650.3181,-672.2134 1657.9351,-671.2836 1691.0718,-664.0692 1691.8253,-665.4409 1692.1034,-666.0339 1741.316,-666.1243 1743.2629,-691.598 1742.452,-713.6907 1753.9867,-712.1922 1764.5657,-712.0848 1764.5177,-685.2748 1768.4489,-660.1472 1772.2389,-660.1472 1772.2686,-660.1552 1775.6237,-660.1552 1780.9872,-689.9357 1782.7955,-661.9072 1780.9755,-659.7418 1782.2205,-658.3807 1786.8033,-655.8523 1793.082,-655.8523 1797.8297,-658.5057 1799.2294,-660.0502 1801.8441,-660.0502 1807.0793,-711.2855 1808.0189,-659.9217 1813.699,-659.9217 1813.7798,-659.9443 1816.8517,-659.9443 1817.7214,-660.1916 1823.1168,-660.1916 1823.9506,-659.9517 1827.8673,-659.9517 1829.03,-633.76 1829.585,-633.7234 1831.6306,-609.666 1835.4741,-611.7051 1841.6057,-611.7051 1845.6907,-609.51 1847.3408,-634.2673 1849.8198,-634.8124 1859.2625,-638.2934 1855.0277,-607.6494 1855.0277,-607.6494 1859.2625,-638.2934 1861.2931,-639.3184 1865.7776,-642.2247 1865.7776,-642.2247 1861.2931,-639.3184 1859.2625,-638.2934 1849.8198,-634.8124 1847.3408,-634.2673 1845.6907,-609.51 1841.6057,-611.7051 1835.4741,-611.7051 1831.6306,-609.666 1829.585,-633.7234 1829.03,-633.76 1827.8673,-659.9517 1823.9506,-659.9517 1823.1168,-660.1916 1817.7214,-660.1916 1816.8517,-659.9443 1813.7798,-659.9443 1813.699,-659.9217 1808.0189,-659.9217 1807.0793,-711.2855 1801.8441,-660.0502 1799.2294,-660.0502 1797.8297,-658.5057 1793.082,-655.8523 1786.8033,-655.8523 1782.2205,-658.3807 1780.9755,-659.7418 1782.7955,-661.9072 1780.9872,-689.9357 1775.6237,-660.1552 1772.2686,-660.1552 1772.2389,-660.1472 1768.4489,-660.1472 1764.5177,-685.2748 1764.5657,-712.0848 1753.9867,-712.1922 1742.452,-713.6907 1743.2629,-691.598 1741.316,-666.1243 1692.1034,-666.0339 1707.8376,-706.069 1710.0067,-710.7161 1715.9419,-720.2805 1705.1534,-749.9584 1697.5092,-767.8647 1694.2396,-774.6029 1679.8066,-801.1909 1676.6167,-848.8809 1711.4397,-857.7012 1723.3495,-860.3945 1738.097,-862.9191 1741.2456,-863.3705 1744.0234,-863.6921 1744.9603,-863.7748 1759.4272,-864.2602 1763.0729,-769.4731 1767.7426,-765.0854 1768.4043,-763.8036 1770.3895,-763.8036 1773.5968,-766.7504 1773.5968,-766.7504 1770.3895,-763.8036 1768.4043,-763.8036 1767.7426,-765.0854 1763.0729,-769.4731 1759.4272,-864.2602 1760.2032,-864.3091 1772.3333,-864.0729 1774.9243,-863.8795 1783.548,-863.9999 1787.3916,-864.281 1789.626,-864.3826 1802.437,-864.6117 1863.1559,-867.482 1886.2859,-878.6823 1887.4105,-879.2559 1905.7651,-889.1039 1919.1106,-896.9381 1918.704,-883.3512 1918.3921,-851.8871 1918.3921,-851.8871 1918.704,-883.3512 1919.1106,-896.9381 1924.6398,-900.6007 1926.9336,-902.1789 1933.0973,-906.58 1935.5712,-745.9114 1939.3979,-745.9114 1940.7504,-747.4814 1945.6326,-750.2776 1945.6326,-750.2776 1940.7504,-747.4814 1939.3979,-745.9114 1935.5712,-745.9114 1933.0973,-906.58 1937.002,-909.4691 1948.0823,-917.9562 1955.9757,-924.4073 1957.2408,-925.5411 1965.1283,-932.359 1938.4932,-982.4077 1880.6251,-1102.6 1856.8053,-1145.6166 1947.0731,-1258.204 1957.3574,-1267.6533 2038.5327,-1278.161 2042.8833,-1138.427 2042.8833,-1138.427 2038.5327,-1278.161 2058.5435,-1281.4097 2058.8865,-1235.1633 2051.2869,-1103.6465 2056.8821,-1106.9713 2062.4646,-1106.9713 2069.1111,-1102.8855 2069.2534,-1102.7246 2067.592,-1100.7974 2063.207,-1098.3018 2063.207,-1098.3018 2067.592,-1100.7974 2069.2534,-1102.7246 2069.1111,-1102.8855 2062.4646,-1106.9713 2056.8821,-1106.9713 2051.2869,-1103.6465 2058.8865,-1235.1633 2058.5435,-1281.4097 2083.948,-1287.202 2077.9163,-1155.9965 2077.9163,-1155.9965 2083.948,-1287.202 2112.8435,-1294.7263 2237.2478,-1189.5745 2253.1636,-1162.0773 2247.4824,-1128.0389 2237.9102,-1054.319 2237.2432,-1048.2729 2195.2837,-892.7681 2220.624,-854.3974 2309.8872,-833.1267 2326.1807,-829.7151 2346.2058,-826.6816 2348.4358,-826.3762 2364.0542,-824.6899 2401.2952,-821.7505 2506.9404,-772.7964 2500.7537,-667.5264 2362.9219,-634.0287 2360.4526,-631.1901 2357.1008,-630.0246 2355.6543,-628.8967 2352.9448,-628.8967 2352.5688,-628.7835 2352.5688,-628.7835 2352.9448,-628.8967 2355.6543,-628.8967 2357.1008,-630.0246 2360.4526,-631.1901 2362.9219,-634.0287 2500.7537,-667.5264 2506.9404,-772.7964 2561.3762,-790.5948 2622.8235,-800.2165 2641.7988,-803.4814 2642.1128,-678.228 2645.3923,-613.3779 2645.3923,-613.3779 2642.1128,-678.228 2641.7988,-803.4814 2649.5813,-805.0593 2660.2244,-807.3804 2675.1077,-811.0814 2694.2124,-817.0019 2713.7732,-823.6594 2846.4146,-745.6874 2854.4224,-737.8289 2863.1736,-667.1937 2693.291,-618.227 2691.3403,-615.8674 2687.3455,-614.6699 2685.5054,-613.3252 2682.9946,-613.3252 2675.5188,-739.9301 2674.9063,-674.0453 2677.478,-613.1542 2672.6125,-613.1542 2671.1062,-611.3171 2666.5925,-608.7066 2666.5925,-608.7066 2671.1062,-611.3171 2672.6125,-613.1542 2677.478,-613.1542 2674.9063,-674.0453 2675.5188,-739.9301 2682.9946,-613.3252 2685.5054,-613.3252 2687.3455,-614.6699 2691.3403,-615.8674 2693.291,-618.227 2863.1736,-667.1937 2874.9299,-584.5388 2878.5056,-564.309 2822.6143,-499.1964 2753.3955,-448.0513 2700.5159,-435.8847 2693.9573,-434.9044 2692.2302,-434.6182 2671.1667,-430.4391 2663.6765,-428.7107 2655.5171,-426.5632 2654.9873,-426.5573 2635.2319,-425.7406 2616.3508,-424.1051 2494.5208,-469.8274 2490.3489,-472.4781 2362.2644,-447.1459 2362.1855,-453.7315 2362.1855,-453.7315 2362.2644,-447.1459 2350.2651,-444.382 2334.7981,-440.0613 2324.5593,-437.0351 2315.2761,-433.9913 2305.3484,-430.4147 2267.4241,-416.1406 2198.1216,-436.1007 2075.2576,-379.1735 2034.5643,-379.0655 1895.9199,-289.6854 1874.0203,-290.098 1842.5291,-290.2058 1842.2551,-290.1983 1833.5952,-289.6934 1827.7948,-289.2657 1809.0521,-287.304 1808.1692,-287.198 1797.8656,-285.4838 1788.0184,-283.6934 1787.3521,-283.562 1771.074,-279.8473 1759.0532,-276.7343 1676.7278,-252.8915 1666.0258,-377.2103 1636.8965,-415.1936 1630.0992,-423.4579 1620.8627,-435.7604 1619.9473,-436.8693 1609.1608,-447.6868 1601.2339,-454.76 1599.4973,-455.9266 1591.1882,-463.6979 1557.9425,-489.678 1553.8804,-493.3853 1553.6824,-493.5927 1551.1865,-495.8115 1547.1342,-499.9113 1539.627,-508.4579 1558.2621,-507.5772 1593.2499,-509.1722 1598.4264,-504.6638 1600.4375,-558.2151 1604.6166,-504.7481 1609.0096,-507.348 1615.2271,-507.348 1619.5863,-504.7798 1621.0995,-502.9114 1624.6211,-502.9114 1626.1257,-501.6251 1626.5997,-501.4387 1630.5837,-497.5594 1695.6514,-488.0155 1696.4249,-486.7837 1694.4146,-474.3842 1748.9725,-468.7303 1760.9496,-471.2253 1765.8254,-468.1146 1768.1094,-464.6195 1770.3734,-464.6195 1770.6726,-464.7059 1772.4037,-497.8244 1777.672,-464.8175 1780.4183,-464.8175 1783.8171,-498.597 1787.4041,-464.9354 1790.9629,-464.9354 1793.8281,-510.1687 1797.3755,-510.184 1798.796,-510.29 1799.4535,-510.2928 1801.3209,-510.1695 1801.8328,-466.5279 1806.9763,-469.4234 1811.9956,-469.4234 1816.1849,-467.1141 1816.1849,-467.1141 1811.9956,-469.4234 1806.9763,-469.4234 1801.8328,-466.5279 1801.3209,-510.1695 1799.4535,-510.2928 1798.796,-510.29 1797.3755,-510.184 1793.8281,-510.1687 1790.9629,-464.9354 1787.4041,-464.9354 1783.8171,-498.597 1780.4183,-464.8175 1777.672,-464.8175 1772.4037,-497.8244 1770.6726,-464.7059 1770.3734,-464.6195 1768.1094,-464.6195 1765.8254,-468.1146 1767.3666,-510.2309 1768.8417,-510.3411 1769.4895,-510.3441 1770.9418,-550.8709 1765.1925,-552.5832 1761.6161,-555.6223 1765.7959,-559.1411 1770.4979,-560.4471 1775.9445,-558.8704 1779.6876,-555.6323 1781.3652,-555.6323 1782.0557,-555.4343 1785.5514,-555.4343 1786.4287,-555.6821 1790.4691,-555.6821 1792.6875,-581.7759 1795.1086,-581.4529 1796.9722,-555.7528 1801.65,-555.7528 1801.9353,-555.6724 1805.5953,-555.6724 1808.3107,-581.13 1810.025,-581.1668 1812.5408,-555.5284 1815.3188,-555.5284 1815.679,-555.6319 1822.13,-549.5998 1844.5459,-549.4084 1878.7383,-543.7398 1880.4615,-542.08 1876.1274,-601.5347 1921.1101,-597.7437 1920.5966,-593.8377 1964.4457,-583.624 1966.4454,-611.1291 1971.3844,-578.5884 1971.6925,-578.3394 1974.4224,-578.3394 1978.5422,-616.8223 1981.4203,-578.4902 1985.4647,-578.4902 1985.5034,-578.4786 1988.0271,-578.4786 1991.8601,-581.946 1996.437,-583.2665 1996.437,-583.2665 1991.8601,-581.946 1988.0271,-578.4786 1985.5034,-578.4786 1985.4647,-578.4902 1981.4203,-578.4902 1978.5422,-616.8223 1974.4224,-578.3394 1971.6925,-578.3394 1971.3844,-578.5884 1966.4454,-611.1291 1964.4282,-662.1522 1963.2659,-662.2054 1966.6715,-745.8689 1967.4207,-746.0854 1970.2034,-746.0854 1970.8043,-745.9109 1976.8657,-745.9109 1975.6821,-784.8905 1976.976,-808.2396 1982.5292,-746.2177 1986.8822,-746.2177 1987.2529,-746.1115 1991.9448,-746.1115 1992.6591,-745.9087 1996.1709,-745.9087 1996.1709,-745.9087 1992.6591,-745.9087 1991.9448,-746.1115 1987.2529,-746.1115 1986.8822,-746.2177 1982.5292,-746.2177 1976.976,-808.2396 1975.6821,-784.8905 1976.8657,-745.9109 1970.8043,-745.9109 1970.2034,-746.0854 1967.4207,-746.0854 1966.6715,-745.8689 1963.2659,-662.2054 1964.4282,-662.1522 1966.4454,-611.1291 1964.4457,-583.624 1920.5966,-593.8377 1921.1101,-597.7437 1876.1274,-601.5347 1880.4615,-542.08 1878.7383,-543.7398 1844.5459,-549.4084 1822.13,-549.5998 1815.679,-555.6319 1815.3188,-555.5284 1812.5408,-555.5284 1810.025,-581.1668 1808.3107,-581.13 1805.5953,-555.6724 1801.9353,-555.6724 1801.65,-555.7528 1796.9722,-555.7528 1795.1086,-581.4529 1792.6875,-581.7759 1790.4691,-555.6821 1786.4287,-555.6821 1785.5514,-555.4343 1782.0557,-555.4343 1781.3652,-555.6323 1779.6876,-555.6323 1775.9445,-558.8704 1770.4979,-560.4471 1765.7959,-559.1411 1761.6161,-555.6223 1765.1925,-552.5832 1770.9418,-550.8709 1769.4895,-510.3441 1768.8417,-510.3411 1767.3666,-510.2309 1765.8254,-468.1146 1760.9496,-471.2253 1748.9725,-468.7303 1694.4146,-474.3842 1696.4249,-486.7837 1720.9935,-500.6953 1724.9778,-502.6678 1726.626,-503.3682 1733.2915,-505.7468 1741.1887,-508.0157 1741.1887,-508.0157 1733.2915,-505.7468 1726.626,-503.3682 1724.9778,-502.6678 1720.9935,-500.6953 1696.4249,-486.7837 1695.6514,-488.0155 1630.5837,-497.5594 1626.5997,-501.4387 1626.1257,-501.6251 1624.6211,-502.9114 1621.0995,-502.9114 1619.5863,-504.7798 1624.2228,-564.4962 1625.6759,-504.8119 1630.9612,-509.2481 1628.9037,-569.1364 1628.9993,-569.1379 1644.0594,-568.6881 1657.3242,-567.0464 1699.793,-614.9753 1717.6187,-610.485 1728.0115,-608.4749 1724.4871,-559.7538 1724.4871,-559.7538 1728.0115,-608.4749 1717.6187,-610.485 1699.793,-614.9753 1657.3242,-567.0464 1644.0594,-568.6881 1628.9993,-569.1379 1628.9037,-569.1364 1630.9612,-509.2481 1625.6759,-504.8119 1624.2228,-564.4962 1619.5863,-504.7798 1615.2271,-507.348 1609.0096,-507.348 1604.6166,-504.7481 1600.4375,-558.2151 1598.4264,-504.6638 1593.2499,-509.1722 1558.2621,-507.5772 1539.627,-508.4579 1537.1688,-510.6682 1587.9797,-567.6492 1589.4968,-569.0191 1584.2357,-574.8815 1576.5194,-582.6235 1537.1133,-627.9747 1533.7333,-630.968 1521.1588,-643.3993 1514.3489,-650.749 1514.3489,-650.749"/>
<polygon fill="#fed9a6" stroke="#fed9a6" points="1787.3916,-864.281 1789.626,-864.3826 1802.437,-864.6117 1863.1559,-867.482 1886.2859,-878.6823 1887.4105,-879.2559 1905.7651,-889.1039 1919.1106,-896.9381 1924.6398,-900.6007 1926.9336,-902.1789 1933.0973,-906.58 1937.002,-909.4691 1948.0823,-917.9562 1955.9757,-924.4073 1957.2408,-925.5411 1965.1283,-932.359 1938.4932,-982.4077 1880.6251,-1102.6 1856.8053,-1145.6166 1818.3574,-1145.0352 1784.5872,-1137.9426 1783.1188,-1052.7632 1781.2294,-1014.2051 1775.7417,-964.7502 1771.588,-964.7502 1771.4844,-964.722 1767.8665,-964.722 1767.8665,-964.722 1771.4844,-964.722 1771.588,-964.7502 1775.7417,-964.7502 1781.2294,-1014.2051 1783.1188,-1052.7632 1784.5872,-1137.9426 1773.7659,-1136.184 1766.1465,-1135.0665 1764.545,-1004.8987 1760.8308,-965.0963 1760.7798,-965.0963 1756.2234,-961.118 1751.9551,-959.9287 1751.9551,-959.9287 1756.2234,-961.118 1760.7798,-965.0963 1760.8308,-965.0963 1764.545,-1004.8987 1766.1465,-1135.0665 1753.764,-1133.6437 1742.6469,-1132.72 1734.616,-1132.3081 1723.5321,-1132.092 1705.4576,-1132.3146 1658.7523,-1133.6304 1513.5702,-1036.0393 1458.6284,-1062.5677 1354.829,-1050.6385 1341.9515,-1049.7781 1337.528,-1049.6245 1318.1395,-1049.2626 1317.9347,-1049.2654 1316.3983,-946.7722 1312.7058,-886.1745 1318.2247,-887.7742 1322.8069,-886.4694 1324.6077,-914.2888 1329.6108,-883.1307 1332.9899,-883.1307 1333.6801,-882.9407 1336.9731,-882.9407 1337.2452,-883.0178 1344.2408,-883.0178 1344.783,-882.8636 1347.1842,-882.8636 1347.433,-882.9338 1347.433,-882.9338 1347.1842,-882.8636 1344.783,-882.8636 1344.2408,-883.0178 1337.2452,-883.0178 1336.9731,-882.9407 1333.6801,-882.9407 1332.9899,-883.1307 1329.6108,-883.1307 1324.6077,-914.2888 1322.8069,-886.4694 1327.0815,-882.6779 1322.9197,-879.2603 1318.7115,-878.1337 1318.7115,-878.1337 1322.9197,-879.2603 1327.0815,-882.6779 1322.8069,-886.4694 1318.2247,-887.7742 1312.7058,-886.1745 1316.3983,-946.7722 1317.9347,-1049.2654 1310.3912,-1049.6089 1286.9635,-1051.4294 1280.9495,-1052.282 1241.8479,-1058.4547 1088.4839,-1012.9246 1136.4203,-906.6624 1161.7427,-843.3171 1163.4105,-838.7993 1273.2383,-835.7852 1279.7854,-836.0383 1282.7544,-835.9568 1283.5408,-835.9869 1287.4425,-835.8803 1288.1742,-835.8123 1289.4492,-835.7775 1290.6622,-835.6645 1296.4203,-835.5067 1301.1089,-835.9989 1303.2318,-836.0806 1307.1327,-835.9736 1309.7262,-835.7313 1311.8492,-835.6735 1313.1519,-835.8094 1321.5769,-835.5764 1324.6968,-835.6973 1327.2893,-835.6259 1325.8152,-788.6647 1331.1508,-788.6647 1331.0918,-835.6288 1331.4073,-835.6411 1336.6973,-835.4952 1337.9905,-835.5452 1341.9841,-788.7991 1345.7753,-788.7991 1348.4357,-835.5906 1350.4365,-835.6681 1352.6709,-835.9033 1357.4315,-835.7725 1358.2893,-835.8055 1358.4908,-877.8522 1471.6666,-849.0394 1495.994,-886.6736 1522.3698,-925.5337 1534.14,-942.1971 1547.0869,-930.8749 1549.4308,-799.97 1553.4357,-754.9715 1553.4357,-754.9715 1549.4308,-799.97 1547.0869,-930.8749 1534.14,-942.1971 1522.3698,-925.5337 1495.994,-886.6736 1471.6666,-849.0394 1358.4908,-877.8522 1358.2893,-835.8055 1357.4315,-835.7725 1352.6709,-835.9033 1350.4365,-835.6681 1348.4357,-835.5906 1345.7753,-788.7991 1341.9841,-788.7991 1337.9905,-835.5452 1336.6973,-835.4952 1331.4073,-835.6411 1331.0918,-835.6288 1331.1508,-788.6647 1325.8152,-788.6647 1327.2893,-835.6259 1324.6968,-835.6973 1321.5769,-835.5764 1313.1519,-835.8094 1311.8492,-835.6735 1312.1823,-827.8536 1316.5083,-793.2914 1320.9688,-792.0638 1325.1172,-788.6121 1321.24,-785.3044 1321.24,-785.3044 1325.1172,-788.6121 1320.9688,-792.0638 1316.5083,-793.2914 1312.1823,-827.8536 1311.8492,-835.6735 1309.7262,-835.7313 1307.1327,-835.9736 1303.2318,-836.0806 1301.1089,-835.9989 1296.4203,-835.5067 1290.6622,-835.6645 1289.4492,-835.7775 1288.1742,-835.8123 1287.4425,-835.8803 1283.5408,-835.9869 1282.7544,-835.9568 1279.7854,-836.0383 1273.2383,-835.7852 1163.4105,-838.7993 1164.3947,-791.9517 1164.6582,-788.5 1164.5223,-767.8748 1164.5991,-764.2159 1156.2361,-756.7633 1070.1426,-683.7589 1072.9091,-645.46 1072.4959,-633.18 1078.3364,-552.3253 1155.9501,-572.5001 1167.7983,-575.0867 1168.4182,-575.1956 1180.7902,-576.8473 1188.5352,-576.8973 1192.2192,-576.7651 1195.1447,-576.7919 1197.54,-576.922 1197.7562,-611.2175 1195.0078,-640.5693 1190.5457,-641.7732 1186.4088,-645.1785 1186.2437,-645.4217 1190.2701,-648.8045 1195.4185,-650.2614 1195.4185,-650.2614 1190.2701,-648.8045 1186.2437,-645.4217 1186.4088,-645.1785 1190.5457,-641.7732 1195.0078,-640.5693 1201.0574,-642.2884 1204.5455,-645.0926 1204.7385,-645.3665 1204.4308,-645.8126 1207.6681,-673.1071 1211.7986,-645.7795 1215.4532,-645.7795 1216.4751,-645.4972 1219.0625,-645.4972 1223.1547,-670.4321 1223.5525,-726.9077 1235.0618,-722.7516 1277.7073,-709.1071 1285.7015,-705.9024 1288.472,-697.8201 1350.4762,-692.2496 1361.1948,-694.9634 1363.0508,-732.7723 1362.9235,-738.5204 1370.5079,-739.4446 1381.2001,-741.4077 1397.3041,-747.3449 1409.7125,-754.1936 1409.5565,-740.5582 1409.5565,-740.5582 1409.7125,-754.1936 1397.3041,-747.3449 1381.2001,-741.4077 1381.2216,-737.1683 1387.5713,-689.1153 1390.3947,-691.379 1396.6061,-693.2114 1402.1119,-691.6126 1405.7805,-688.5927 1405.6432,-688.3929 1402.1628,-685.5282 1402.1628,-685.5282 1405.6432,-688.3929 1405.7805,-688.5927 1402.1119,-691.6126 1396.6061,-693.2114 1390.3947,-691.379 1387.5713,-689.1153 1381.2216,-737.1683 1381.2001,-741.4077 1370.5079,-739.4446 1362.9235,-738.5204 1363.0508,-732.7723 1361.1948,-694.9634 1350.4762,-692.2496 1288.472,-697.8201 1285.7015,-705.9024 1277.7073,-709.1071 1235.0618,-722.7516 1223.5525,-726.9077 1223.1547,-670.4321 1219.0625,-645.4972 1219.4608,-645.3854 1219.4608,-645.3854 1219.0625,-645.4972 1216.4751,-645.4972 1215.4532,-645.7795 1211.7986,-645.7795 1207.6681,-673.1071 1204.4308,-645.8126 1204.7385,-645.3665 1204.5455,-645.0926 1201.0574,-642.2884 1195.0078,-640.5693 1197.7562,-611.2175 1197.54,-576.922 1202.3407,-576.7757 1207.7123,-576.8544 1210.6803,-577.1668 1218.2219,-576.9982 1225.075,-577.1551 1228.9717,-576.9136 1229.9417,-576.941 1230.368,-576.9722 1239.4175,-577.2525 1249.4365,-578.0145 1252.0813,-578.3337 1254.9617,-578.9408 1317.3807,-535.6834 1323.6453,-530.9286 1324.8977,-529.8965 1327.2755,-606.505 1331.9099,-606.505 1332.2714,-606.6152 1337.877,-606.6152 1338.2079,-606.5146 1339.389,-606.5146 1343.4525,-610.1533 1348.064,-611.4722 1348.064,-611.4722 1343.4525,-610.1533 1339.389,-606.5146 1338.2079,-606.5146 1337.877,-606.6152 1332.2714,-606.6152 1331.9099,-606.505 1327.2755,-606.505 1324.8977,-529.8965 1334.7469,-521.105 1340.2076,-515.4987 1346.6023,-508.49 1349.5646,-505.8402 1364.8097,-490.51 1370.2323,-484.4819 1370.6899,-483.9483 1370.2577,-481.6875 1358.8011,-429.528 1304.6639,-230.494 1298.7247,-227.6223 1315.3295,-33.4299 1316.8066,-11.6681 1316.941,-8.9859 1318.0267,24.5117 1346.9298,108.211 1422.0062,143.0373 1476.5353,153.1398 1498.1227,157.5124 1506.41,159.3315 1513.5618,161.1437 1513.5922,25.7747 1510.5526,-13.6656 1505.6606,-16.5706 1504.3551,-18.1397 1505.6611,-19.6622 1510.5096,-22.4554 1510.5096,-22.4554 1505.6611,-19.6622 1504.3551,-18.1397 1505.6606,-16.5706 1510.5526,-13.6656 1513.5922,25.7747 1513.5618,161.1437 1521.3931,163.3945 1523.4943,163.1504 1533.8561,162.4387 1550.9429,156.9912 1669.8384,121.2058 1686.9294,108.1964 1709.515,76.1295 1713.5959,19.7477 1716.8362,-16.3009 1709.72,-36.5171 1649.9135,-227.8955 1676.7278,-252.8915 1666.0258,-377.2103 1636.8965,-415.1936 1630.0992,-423.4579 1558.9686,-442.8175 1556.3777,-445.6332 1554.469,-446.3076 1548.8336,-348.6039 1548.6152,-232.9504 1539.6669,-233.0868 1538.1204,-233.0914 1527.0607,-232.9891 1526.5353,-233.0049 1526.3669,-407.6943 1523.4574,-443.2598 1519.2463,-443.2598 1512.5584,-447.131 1512.0468,-447.6781 1509.134,-447.6781 1509.134,-447.6781 1512.0468,-447.6781 1513.7459,-449.5764 1518.9399,-452.4775 1523.4634,-452.4775 1523.4634,-452.4775 1518.9399,-452.4775 1513.7459,-449.5764 1512.0468,-447.6781 1512.5584,-447.131 1519.2463,-443.2598 1523.4574,-443.2598 1526.3669,-407.6943 1526.5353,-233.0049 1527.0607,-232.9891 1538.1204,-233.0914 1539.6669,-233.0868 1548.6152,-232.9504 1548.8336,-348.6039 1554.469,-446.3076 1556.3777,-445.6332 1558.9686,-442.8175 1630.0992,-423.4579 1620.8627,-435.7604 1619.9473,-436.8693 1609.1608,-447.6868 1601.2339,-454.76 1599.4973,-455.9266 1591.1882,-463.6979 1557.9425,-489.678 1553.8804,-493.3853 1553.6824,-493.5927 1551.1865,-495.8115 1547.1342,-499.9113 1539.627,-508.4579 1537.1688,-510.6682 1535.662,-510.541 1526.8762,-510.6294 1526.9639,-532.8768 1526.9639,-532.8768 1526.8762,-510.6294 1535.662,-510.541 1537.1688,-510.6682 1587.9797,-567.6492 1589.4968,-569.0191 1584.2357,-574.8815 1576.5194,-582.6235 1537.1133,-627.9747 1533.7333,-630.968 1521.1588,-643.3993 1514.3489,-650.749 1511.8246,-654.2074 1508.0664,-658.924 1511.5779,-673.7253 1511.6689,-674.008 1544.8939,-686.8242 1583.8073,-674.7424 1592.6967,-672.8196 1597.8567,-672.2035 1601.3755,-672.1211 1602.1814,-672.0244 1607.8381,-671.8896 1610.8523,-672.1074 1612.2291,-672.3408 1613.6421,-672.442 1616.97,-672.3613 1620.7031,-671.9083 1621.0193,-671.9005 1624.6613,-672.1622 1629.1178,-672.0507 1632.5709,-672.298 1633.5397,-672.2737 1637.0983,-672.5262 1635.3983,-705.8688 1638.9364,-709.1616 1635.6779,-712.2285 1629.9329,-714.031 1624.4742,-712.4117 1626.6063,-741.1883 1628.6764,-743.0808 1601.428,-747.7465 1597.8838,-751.7973 1595.7726,-752.7138 1594.8805,-753.5129 1594.6266,-753.5922 1590.8369,-753.5922 1590.8369,-753.5922 1594.6266,-753.5922 1594.8805,-753.5129 1595.7726,-752.7138 1597.8838,-751.7973 1601.428,-747.7465 1628.6764,-743.0808 1626.6063,-741.1883 1624.4742,-712.4117 1629.9329,-714.031 1635.6779,-712.2285 1638.9364,-709.1616 1635.3983,-705.8688 1637.0983,-672.5262 1638.3563,-672.4944 1643.1077,-671.9132 1648.1637,-672.2689 1650.3181,-672.2134 1657.9351,-671.2836 1691.0718,-664.0692 1691.8253,-665.4409 1692.1034,-666.0339 1707.8376,-706.069 1710.0067,-710.7161 1715.9419,-720.2805 1705.1534,-749.9584 1697.5092,-767.8647 1694.2396,-774.6029 1679.8066,-801.1909 1676.6167,-848.8809 1711.4397,-857.7012 1723.3495,-860.3945 1738.097,-862.9191 1741.2456,-863.3705 1744.0234,-863.6921 1744.9603,-863.7748 1759.4272,-864.2602 1760.2032,-864.3091 1772.3333,-864.0729 1774.9243,-863.8795 1783.548,-863.9999 1787.3916,-864.281 1787.3916,-864.281"/>
<polygon fill="#ccebc5" stroke="#ccebc5" points="962.3724,-446.0899 975.9648,-443.2403 1000.2277,-437.3983 1009.4734,-435.0315 1019.9633,-451.9349 1066.363,-529.7762 1078.3364,-552.3253 1072.4959,-633.18 1072.9091,-645.46 1070.1426,-683.7589 1156.2361,-756.7633 1164.5991,-764.2159 1164.5223,-767.8748 1053.1299,-778.1794 1047.5548,-711.7494 1047.3525,-706.9089 1041.5299,-783.8726 1040.4489,-783.8726 1036.5092,-780.3471 1031.5703,-778.9252 1026.4156,-780.4236 1022.2485,-784.1589 1025.8396,-787.2212 1025.8396,-787.2212 1022.2485,-784.1589 1026.4156,-780.4236 1031.5703,-778.9252 1036.5092,-780.3471 1040.4489,-783.8726 1041.5299,-783.8726 1047.3525,-706.9089 1047.5548,-711.7494 1053.1299,-778.1794 1164.5223,-767.8748 1164.6582,-788.5 1164.3947,-791.9517 1163.4105,-838.7993 1161.7427,-843.3171 1136.4203,-906.6624 1088.4839,-1012.9246 1068.4281,-1018.7744 1042.8539,-1026.5634 1022.7944,-1075.7 1020.1547,-1083.0515 983.9303,-1146.621 894.0657,-1242.7804 825.6291,-1242.3164 805.4314,-1242.5072 791.0831,-1242.8756 791.7403,-1170.8866 791.162,-1159.3657 791.162,-1159.3657 791.7403,-1170.8866 791.0831,-1242.8756 779.1332,-1243.9579 770.5035,-1245.0199 760.6472,-1246.3931 749.9989,-1248.0487 750.691,-1180.489 752.6322,-1149.9421 759.7596,-1080.605 764.5734,-1079.29 768.8163,-1075.8569 764.8228,-1072.5149 764.8228,-1072.5149 768.8163,-1075.8569 764.5734,-1079.29 759.7596,-1080.605 752.6322,-1149.9421 750.691,-1180.489 749.9989,-1248.0487 737.6504,-1250.7684 729.9243,-1252.5951 724.5724,-1253.9468 724.3876,-1253.9963 722.0592,-1254.6597 717.3418,-1254.1083 709.3522,-1253.4176 543.0154,-1241.5701 519.6254,-1214.7052 488.0215,-1131.0306 467.505,-1104.7666 444.6117,-1054.3818 446.361,-1005.3461 452.802,-975.6981 625.384,-964.2604 643.7625,-966.5758 648.2654,-963.3389 650.1748,-960.0797 654.0715,-960.0797 655.4932,-1030.7307 658.8966,-1029.0317 659.1663,-1028.9119 672.3385,-1023.7476 670.0791,-963.5649 675.7168,-965.2222 680.8743,-963.7202 684.6364,-960.3903 680.5605,-956.6759 676.0154,-955.3599 676.0154,-955.3599 680.5605,-956.6759 684.6364,-960.3903 680.8743,-963.7202 675.7168,-965.2222 670.0791,-963.5649 672.3385,-1023.7476 659.1663,-1028.9119 658.8966,-1029.0317 655.4932,-1030.7307 654.0715,-960.0797 650.1748,-960.0797 648.2654,-963.3389 643.7625,-966.5758 625.384,-964.2604 452.802,-975.6981 461.1209,-930.4866 490.6161,-753.616 484.4001,-744.1039 362.3105,-719.5505 352.8626,-717.7893 346.3315,-716.6682 335.2503,-712.6598 326.5865,-709.8108 307.1969,-704.6933 288.1,-700.5843 166.5965,-678.4172 148.2847,-662.3298 93.9624,-652.5717 81.7566,-650.5718 70.1928,-649.2255 56.5817,-648.2847 55.5596,-589.531 50.5669,-469.0558 55.314,-469.0558 56.3522,-470.274 61.1436,-473.0741 61.1436,-473.0741 56.3522,-470.274 55.314,-469.0558 50.5669,-469.0558 55.5596,-589.531 56.5817,-648.2847 46.1148,-647.8917 31.5448,-647.5751 34.8325,-554.4858 34.8542,-475.2994 19.3219,-471.045 19.3219,-471.045 34.8542,-475.2994 34.8325,-554.4858 31.5448,-647.5751 .1511,-647.8851 -54.0606,-618.5158 -76.429,-604.2701 -126.7013,-571.2941 -152.4623,-506.5183 -150.5881,-468.79 -150.5542,-390.2525 -140.1025,-379.5337 -46.691,-309.3544 38.674,-291.2768 61.6861,-285.2437 62.2443,-285.0696 76.0778,-280.2837 90.2952,-275.1258 124.8813,-260.8456 136.0175,-262.0047 232.7562,-338.6216 290.371,-344.1433 292.0012,-344.2734 295.6655,-521.3728 296.5737,-521.6467 299.8493,-521.6467 300.0592,-521.5836 300.0592,-521.5836 299.8493,-521.6467 296.5737,-521.6467 295.6655,-521.3728 292.0012,-344.2734 301.5582,-344.8836 312.8856,-345.2444 323.6199,-345.4144 343.465,-344.4572 365.9182,-342.295 390.0962,-339.5824 467.0926,-357.2797 555.2461,-455.0242 704.3,-425.4606 705.3228,-425.2426 712.5476,-423.4852 728.8496,-419.275 737.5168,-416.6491 738.4174,-416.3628 749.4183,-417.8734 749.7899,-483.5045 746.1978,-580.8359 748.3956,-608.1964 752.144,-611.3807 748.2933,-614.5177 740.663,-738.7841 740.499,-731.8945 736.5135,-646.0132 731.5449,-611.4645 728.3328,-611.4645 728.0661,-611.389 728.0661,-611.389 728.3328,-611.4645 731.5449,-611.4645 736.5135,-646.0132 740.499,-731.8945 740.663,-738.7841 748.2933,-614.5177 752.144,-611.3807 748.3956,-608.1964 746.1978,-580.8359 749.7899,-483.5045 749.4183,-417.8734 764.0197,-419.0685 780.2966,-419.9489 777.1664,-543.6122 772.5436,-611.0004 769.2724,-611.0004 765.4195,-580.9297 762.0837,-611.0281 759.3658,-611.0281 759.3658,-611.0281 762.0837,-611.0281 765.4195,-580.9297 769.2724,-611.0004 772.5436,-611.0004 777.1664,-543.6122 780.2966,-419.9489 783.8068,-420.0413 791.4084,-422.8418 878.4927,-453.5385 923.9835,-451.0744 927.1956,-450.8007 936.4554,-449.8676 948.22,-448.3157 953.4608,-447.543 952.9172,-628.1603 947.5592,-629.7054 943.7021,-633.0353 943.1145,-633.0353 943.1145,-633.0353 943.7021,-633.0353 947.5182,-636.4357 952.6434,-637.9678 952.6434,-637.9678 947.5182,-636.4357 943.7021,-633.0353 947.5592,-629.7054 952.9172,-628.1603 953.4608,-447.543 962.3214,-446.099 962.3724,-446.0899 962.3724,-446.0899"/>
<polygon fill="#fbb4ae" stroke="#fbb4ae" points="1252.3389,-557.1776 1255.6834,-514.932 1255.6834,-514.932 1252.3389,-557.1776 1252.0813,-578.3337 1254.9617,-578.9408 1317.3807,-535.6834 1323.6453,-530.9286 1324.8977,-529.8965 1334.7469,-521.105 1340.2076,-515.4987 1346.6023,-508.49 1349.5646,-505.8402 1364.8097,-490.51 1370.2323,-484.4819 1370.6899,-483.9483 1370.2577,-481.6875 1358.8011,-429.528 1304.6639,-230.494 1298.7247,-227.6223 1267.276,-234.5558 1246.6255,-238.8905 1239.0383,-240.2404 1228.5693,-241.9917 1221.0167,-243.1745 1211.7639,-244.5246 1204.5627,-245.4983 1197.9259,-246.2536 1192.3629,-246.7679 1170.3549,-248.568 1154.4014,-254.7346 1139.3495,-264.2484 1009.4734,-435.0315 1019.9633,-451.9349 1066.363,-529.7762 1078.3364,-552.3253 1155.9501,-572.5001 1167.7983,-575.0867 1168.4182,-575.1956 1180.7902,-576.8473 1188.5352,-576.8973 1192.2192,-576.7651 1195.1447,-576.7919 1197.54,-576.922 1202.3407,-576.7757 1207.7123,-576.8544 1210.6803,-577.1668 1218.2219,-576.9982 1225.075,-577.1551 1228.9717,-576.9136 1229.9417,-576.941 1230.368,-576.9722 1239.4175,-577.2525 1249.4365,-578.0145 1252.0813,-578.3337 1252.3389,-557.1776 1252.3389,-557.1776"/>
<polyline fill="none" stroke="#000000" points="2346.2058,-826.6816 2348.4358,-826.3762 2364.0542,-824.6899 2401.2952,-821.7505 2506.9404,-772.7964 2561.3762,-790.5948 2622.8235,-800.2165 2641.7988,-803.4814 2649.5813,-805.0593 2660.2244,-807.3804 2675.1077,-811.0814 2694.2124,-817.0019 2713.7732,-823.6594 2846.4146,-745.6874 2854.4224,-737.8289 2863.1736,-667.1937 2874.9299,-584.5388 2878.5056,-564.309 2822.6143,-499.1964 2753.3955,-448.0513 2700.5159,-435.8847 2693.9573,-434.9044 2692.2302,-434.6182 2671.1667,-430.4391 2663.6765,-428.7107 2655.5171,-426.5632 2654.9873,-426.5573 2635.2319,-425.7406 2616.3508,-424.1051 2494.5208,-469.8274 2490.3489,-472.4781 2362.2644,-447.1459 2350.2651,-444.382 2334.7981,-440.0613 2324.5593,-437.0351 2315.2761,-433.9913 2305.3484,-430.4147 2267.4241,-416.1406 2198.1216,-436.1007 2075.2576,-379.1735 2034.5643,-379.0655 1895.9199,-289.6854 1874.0203,-290.098 1842.5291,-290.2058 1842.2551,-290.1983 1833.5952,-289.6934 1827.7948,-289.2657 1809.0521,-287.304 1808.1692,-287.198 1797.8656,-285.4838 1788.0184,-283.6934 1787.3521,-283.562 1771.074,-279.8473 1759.0532,-276.7343 1676.7278,-252.8915 1666.0258,-377.2103 1636.8965,-415.1936 1630.0992,-423.4579 1620.8627,-435.7604 1619.9473,-436.8693 1609.1608,-447.6868 1601.2339,-454.76 1599.4973,-455.9266 1591.1882,-463.6979 1557.9425,-489.678 1553.8804,-493.3853 1553.6824,-493.5927 1551.1865,-495.8115 1547.1342,-499.9113 1539.627,-508.4579 1537.1688,-510.6682 1587.9797,-567.6492 1589.4968,-569.0191 1584.2357,-574.8815 1576.5194,-582.6235 1537.1133,-627.9747 1533.7333,-630.968 1521.1588,-643.3993 1514.3489,-650.749 1511.8246,-654.2074 1508.0664,-658.924 1511.5779,-673.7253 1511.6689,-674.008 1544.8939,-686.8242 1583.8073,-674.7424 1592.6967,-672.8196 1597.8567,-672.2035 1601.3755,-672.1211 1602.1814,-672.0244 1607.8381,-671.8896 1610.8523,-672.1074 1612.2291,-672.3408 1613.6421,-672.442 1616.97,-672.3613 1620.7031,-671.9083 1621.0193,-671.9005 1624.6613,-672.1622 1629.1178,-672.0507 1632.5709,-672.298 1633.5397,-672.2737 1637.0983,-672.5262 1638.3563,-672.4944 1643.1077,-671.9132 1648.1637,-672.2689 1650.3181,-672.2134 1657.9351,-671.2836 1691.0718,-664.0692 1691.8253,-665.4409 1692.1034,-666.0339 1707.8376,-706.069 1710.0067,-710.7161 1715.9419,-720.2805 1705.1534,-749.9584 1697.5092,-767.8647 1694.2396,-774.6029 1679.8066,-801.1909 1676.6167,-848.8809 1711.4397,-857.7012 1723.3495,-860.3945 1738.097,-862.9191 1741.2456,-863.3705 1744.0234,-863.6921 1744.9603,-863.7748 1759.4272,-864.2602 1760.2032,-864.3091 1772.3333,-864.0729 1774.9243,-863.8795 1783.548,-863.9999 1787.3916,-864.281 1789.626,-864.3826 1802.437,-864.6117 1863.1559,-867.482 1886.2859,-878.6823 1887.4105,-879.2559 1905.7651,-889.1039 1919.1106,-896.9381 1924.6398,-900.6007 1926.9336,-902.1789 1933.0973,-906.58 1937.002,-909.4691 1948.0823,-917.9562 1955.9757,-924.4073 1957.2408,-925.5411 1965.1283,-932.359 1938.4932,-982.4077 1880.6251,-1102.6 1856.8053,-1145.6166 1947.0731,-1258.204 1957.3574,-1267.6533 2038.5327,-1278.161 2058.5435,-1281.4097 2083.948,-1287.202 2112.8435,-1294.7263 2237.2478,-1189.5745 2253.1636,-1162.0773 2247.4824,-1128.0389 2237.9102,-1054.319 2237.2432,-1048.2729 2195.2837,-892.7681 2220.624,-854.3974 2309.8872,-833.1267 2326.1807,-829.7151 2346.2058,-826.6816 "/>
<polyline fill="none" stroke="#000000" points="1508.0664,-658.924 1511.5779,-673.7253 1511.6689,-674.008 1544.8939,-686.8242 1583.8073,-674.7424 1592.6967,-672.8196 1597.8567,-672.2035 1601.3755,-672.1211 1602.1814,-672.0244 1607.8381,-671.8896 1610.8523,-672.1074 1612.2291,-672.3408 1613.6421,-672.442 1616.97,-672.3613 1620.7031,-671.9083 1621.0193,-671.9005 1624.6613,-672.1622 1629.1178,-672.0507 1632.5709,-672.298 1633.5397,-672.2737 1637.0983,-672.5262 1638.3563,-672.4944 1643.1077,-671.9132 1648.1637,-672.2689 1650.3181,-672.2134 1657.9351,-671.2836 1691.0718,-664.0692 1691.8253,-665.4409 1692.1034,-666.0339 1707.8376,-706.069 1710.0067,-710.7161 1715.9419,-720.2805 1705.1534,-749.9584 1697.5092,-767.8647 1694.2396,-774.6029 1679.8066,-801.1909 1676.6167,-848.8809 1711.4397,-857.7012 1723.3495,-860.3945 1738.097,-862.9191 1741.2456,-863.3705 1744.0234,-863.6921 1744.9603,-863.7748 1759.4272,-864.2602 1760.2032,-864.3091 1772.3333,-864.0729 1774.9243,-863.8795 1783.548,-863.9999 1787.3916,-864.281 1789.626,-864.3826 1802.437,-864.6117 1863.1559,-867.482 1886.2859,-878.6823 1887.4105,-879.2559 1905.7651,-889.1039 1919.1106,-896.9381 1924.6398,-900.6007 1926.9336,-902.1789 1933.0973,-906.58 1937.002,-909.4691 1948.0823,-917.9562 1955.9757,-924.4073 1957.2408,-925.5411 1965.1283,-932.359 1938.4932,-982.4077 1880.6251,-1102.6 1856.8053,-1145.6166 1818.3574,-1145.0352 1784.5872,-1137.9426 1773.7659,-1136.184 1766.1465,-1135.0665 1753.764,-1133.6437 1742.6469,-1132.72 1734.616,-1132.3081 1723.5321,-1132.092 1705.4576,-1132.3146 1658.7523,-1133.6304 1513.5702,-1036.0393 1458.6284,-1062.5677 1354.829,-1050.6385 1341.9515,-1049.7781 1337.528,-1049.6245 1318.1395,-1049.2626 1317.9347,-1049.2654 1310.3912,-1049.6089 1286.9635,-1051.4294 1280.9495,-1052.282 1241.8479,-1058.4547 1088.4839,-1012.9246 1136.4203,-906.6624 1161.7427,-843.3171 1163.4105,-838.7993 1164.3947,-791.9517 1164.6582,-788.5 1164.5223,-767.8748 1164.5991,-764.2159 1156.2361,-756.7633 1070.1426,-683.7589 1072.9091,-645.46 1072.4959,-633.18 1078.3364,-552.3253 1155.9501,-572.5001 1167.7983,-575.0867 1168.4182,-575.1956 1180.7902,-576.8473 1188.5352,-576.8973 1192.2192,-576.7651 1195.1447,-576.7919 1197.54,-576.922 1202.3407,-576.7757 1207.7123,-576.8544 1210.6803,-577.1668 1218.2219,-576.9982 1225.075,-577.1551 1228.9717,-576.9136 1229.9417,-576.941 1230.368,-576.9722 1239.4175,-577.2525 1249.4365,-578.0145 1252.0813,-578.3337 1254.9617,-578.9408 1317.3807,-535.6834 1323.6453,-530.9286 1324.8977,-529.8965 1334.7469,-521.105 1340.2076,-515.4987 1346.6023,-508.49 1349.5646,-505.8402 1364.8097,-490.51 1370.2323,-484.4819 1370.6899,-483.9483 1370.2577,-481.6875 1358.8011,-429.528 1304.6639,-230.494 1298.7247,-227.6223 1315.3295,-33.4299 1316.8066,-11.6681 1316.941,-8.9859 1318.0267,24.5117 1346.9298,108.211 1422.0062,143.0373 1476.5353,153.1398 1498.1227,157.5124 1506.41,159.3315 1513.5618,161.1437 1521.3931,163.3945 1523.4943,163.1504 1533.8561,162.4387 1550.9429,156.9912 1669.8384,121.2058 1686.9294,108.1964 1709.515,76.1295 1713.5959,19.7477 1716.8362,-16.3009 1709.72,-36.5171 1649.9135,-227.8955 1676.7278,-252.8915 1666.0258,-377.2103 1636.8965,-415.1936 1630.0992,-423.4579 1620.8627,-435.7604 1619.9473,-436.8693 1609.1608,-447.6868 1601.2339,-454.76 1599.4973,-455.9266 1591.1882,-463.6979 1557.9425,-489.678 1553.8804,-493.3853 1553.6824,-493.5927 1551.1865,-495.8115 1547.1342,-499.9113 1539.627,-508.4579 1537.1688,-510.6682 1587.9797,-567.6492 1589.4968,-569.0191 1584.2357,-574.8815 1576.5194,-582.6235 1537.1133,-627.9747 1533.7333,-630.968 1521.1588,-643.3993 1514.3489,-650.749 1511.8246,-654.2074 1508.0664,-658.924 "/>
<polyline fill="none" stroke="#000000" points="326.5865,-709.8108 335.2503,-712.6598 346.3315,-716.6682 352.8626,-717.7893 362.3105,-719.5505 484.4001,-744.1039 490.6161,-753.616 461.1209,-930.4866 452.802,-975.6981 446.361,-1005.3461 444.6117,-1054.3818 467.505,-1104.7666 488.0215,-1131.0306 519.6254,-1214.7052 543.0154,-1241.5701 709.3522,-1253.4176 717.3418,-1254.1083 722.0592,-1254.6597 724.3876,-1253.9963 724.5724,-1253.9468 729.9243,-1252.5951 737.6504,-1250.7684 749.9989,-1248.0487 760.6472,-1246.3931 770.5035,-1245.0199 779.1332,-1243.9579 791.0831,-1242.8756 805.4314,-1242.5072 825.6291,-1242.3164 894.0657,-1242.7804 983.9303,-1146.621 1020.1547,-1083.0515 1022.7944,-1075.7 1042.8539,-1026.5634 1068.4281,-1018.7744 1088.4839,-1012.9246 1136.4203,-906.6624 1161.7427,-843.3171 1163.4105,-838.7993 1164.3947,-791.9517 1164.6582,-788.5 1164.5223,-767.8748 1164.5991,-764.2159 1156.2361,-756.7633 1070.1426,-683.7589 1072.9091,-645.46 1072.4959,-633.18 1078.3364,-552.3253 1066.363,-529.7762 1019.9633,-451.9349 1009.4734,-435.0315 1000.2277,-437.3983 975.9648,-443.2403 962.3724,-446.0899 962.3214,-446.099 953.4608,-447.543 948.22,-448.3157 936.4554,-449.8676 927.1956,-450.8007 923.9835,-451.0744 878.4927,-453.5385 791.4084,-422.8418 783.8068,-420.0413 780.2966,-419.9489 764.0197,-419.0685 749.4183,-417.8734 738.4174,-416.3628 737.5168,-416.6491 728.8496,-419.275 712.5476,-423.4852 705.3228,-425.2426 704.3,-425.4606 555.2461,-455.0242 467.0926,-357.2797 390.0962,-339.5824 365.9182,-342.295 343.465,-344.4572 323.6199,-345.4144 312.8856,-345.2444 301.5582,-344.8836 292.0012,-344.2734 290.371,-344.1433 232.7562,-338.6216 136.0175,-262.0047 124.8813,-260.8456 90.2952,-275.1258 76.0778,-280.2837 62.2443,-285.0696 61.6861,-285.2437 38.674,-291.2768 -46.691,-309.3544 -140.1025,-379.5337 -150.5542,-390.2525 -150.5881,-468.79 -152.4623,-506.5183 -126.7013,-571.2941 -76.429,-604.2701 -54.0606,-618.5158 .1511,-647.8851 31.5448,-647.5751 46.1148,-647.8917 56.5817,-648.2847 70.1928,-649.2255 81.7566,-650.5718 93.9624,-652.5717 148.2847,-662.3298 166.5965,-678.4172 288.1,-700.5843 307.1969,-704.6933 326.5865,-709.8108 "/>
<polyline fill="none" stroke="#000000" points="1218.2219,-576.9982 1225.075,-577.1551 1228.9717,-576.9136 1229.9417,-576.941 1230.368,-576.9722 1239.4175,-577.2525 1249.4365,-578.0145 1252.0813,-578.3337 1254.9617,-578.9408 1317.3807,-535.6834 1323.6453,-530.9286 1324.8977,-529.8965 1334.7469,-521.105 1340.2076,-515.4987 1346.6023,-508.49 1349.5646,-505.8402 1364.8097,-490.51 1370.2323,-484.4819 1370.6899,-483.9483 1370.2577,-481.6875 1358.8011,-429.528 1304.6639,-230.494 1298.7247,-227.6223 1267.276,-234.5558 1246.6255,-238.8905 1239.0383,-240.2404 1228.5693,-241.9917 1221.0167,-243.1745 1211.7639,-244.5246 1204.5627,-245.4983 1197.9259,-246.2536 1192.3629,-246.7679 1170.3549,-248.568 1154.4014,-254.7346 1139.3495,-264.2484 1009.4734,-435.0315 1019.9633,-451.9349 1066.363,-529.7762 1078.3364,-552.3253 1155.9501,-572.5001 1167.7983,-575.0867 1168.4182,-575.1956 1180.7902,-576.8473 1188.5352,-576.8973 1192.2192,-576.7651 1195.1447,-576.7919 1197.54,-576.922 1202.3407,-576.7757 1207.7123,-576.8544 1210.6803,-577.1668 1218.2219,-576.9982 "/>
<!-- cups&#45;libs&#45;&gt;avahi&#45;libs -->
<g id="edge1" class="edge">
<title>cups&#45;libs&#45;&gt;avahi&#45;libs</title>
<path fill="none" stroke="#444444" stroke-opacity="0.333333" d="M2395.344,-626.0195C2449.6304,-623.4303 2530.1845,-619.5882 2588.8662,-616.7893"/>
<polygon fill="#444444" fill-opacity="0.333333" stroke="#444444" stroke-opacity="0.333333" points="2589.3674,-620.2694 2599.1893,-616.2969 2589.0339,-613.2774 2589.3674,-620.2694"/>
</g>
<!-- libldb&#45;&gt;libtalloc -->
<g id="edge2" class="edge">
<title>libldb&#45;&gt;libtalloc</title>
<path fill="none" stroke="#444444" stroke-opacity="0.333333" d="M1526.8421,-591.0529C1547.6099,-614.7713 1584.167,-656.5225 1607.7994,-683.5125"/>
<polygon fill="#444444" fill-opacity="0.333333" stroke="#444444" stroke-opacity="0.333333" points="1605.1715,-685.8243 1614.3924,-691.0422 1610.438,-681.213 1605.1715,-685.8243"/>
</g>
<!-- libldb&#45;&gt;libtdb -->
<g id="edge3" class="edge">
<title>libldb&#45;&gt;libtdb</title>
<path fill="none" stroke="#444444" stroke-opacity="0.333333" d="M1537.0358,-554.959C1549.3221,-546.4643 1564.1577,-536.2071 1577.3845,-527.0621"/>
<polygon fill="#444444" fill-opacity="0.333333" stroke="#444444" stroke-opacity="0.333333" points="1579.5661,-529.8089 1585.8011,-521.2429 1575.5852,-524.0511 1579.5661,-529.8089"/>
</g>
<!-- libldb&#45;&gt;libtevent -->
<g id="edge4" class="edge">
<title>libldb&#45;&gt;libtevent</title>
<path fill="none" stroke="#444444" stroke-opacity="0.333333" d="M1517.4179,-591.2383C1528.5364,-622.9041 1551.4438,-688.1448 1564.5427,-725.451"/>
<polygon fill="#444444" fill-opacity="0.333333" stroke="#444444" stroke-opacity="0.333333" points="1561.3439,-726.9056 1567.9592,-735.1813 1567.9486,-724.5865 1561.3439,-726.9056"/>
</g>
<!-- libtevent&#45;&gt;libtalloc -->
<g id="edge5" class="edge">
<title>libtevent&#45;&gt;libtalloc</title>
<path fill="none" stroke="#444444" stroke-opacity="0.333333" d="M1597.4007,-735.0771C1598.0108,-734.5974 1598.6241,-734.1152 1599.2394,-733.6314"/>
<polygon fill="#444444" fill-opacity="0.333333" stroke="#444444" stroke-opacity="0.333333" points="1601.5546,-736.2634 1607.2524,-727.3312 1597.228,-730.7606 1601.5546,-736.2634"/>
</g>
<!-- libsmbclient&#45;&gt;libtalloc -->
<g id="edge6" class="edge">
<title>libsmbclient&#45;&gt;libtalloc</title>
<path fill="none" stroke="#444444" stroke-opacity="0.333333" d="M1742.8764,-946.3165C1721.8507,-902.0326 1668.2787,-789.2002 1643.3841,-736.7675"/>
<polygon fill="#444444" fill-opacity="0.333333" stroke="#444444" stroke-opacity="0.333333" points="1646.3954,-734.9493 1638.9446,-727.417 1640.0719,-737.9517 1646.3954,-734.9493"/>
</g>
<!-- libsmbclient&#45;&gt;libtevent -->
<g id="edge7" class="edge">
<title>libsmbclient&#45;&gt;libtevent</title>
<path fill="none" stroke="#444444" stroke-opacity="0.333333" d="M1736.4835,-946.6619C1705.0934,-909.2256 1632.7369,-822.9325 1596.2228,-779.3853"/>
<polygon fill="#444444" fill-opacity="0.333333" stroke="#444444" stroke-opacity="0.333333" points="1598.7372,-776.9367 1589.6301,-771.5228 1593.3733,-781.4344 1598.7372,-776.9367"/>
</g>
<!-- libsmbclient&#45;&gt;samba&#45;client&#45;libs -->
<g id="edge8" class="edge">
<title>libsmbclient&#45;&gt;samba&#45;client&#45;libs</title>
<path fill="none" stroke="#444444" stroke-opacity="0.333333" d="M1753.8871,-946.5499C1760.3301,-895.4475 1778.666,-750.0155 1786.4431,-688.3316"/>
<polygon fill="#444444" fill-opacity="0.333333" stroke="#444444" stroke-opacity="0.333333" points="1789.9464,-688.5244 1787.7249,-678.1651 1783.0014,-687.6487 1789.9464,-688.5244"/>
</g>
<!-- samba&#45;client&#45;libs&#45;&gt;cups&#45;libs -->
<g id="edge9" class="edge">
<title>samba&#45;client&#45;libs&#45;&gt;cups&#45;libs</title>
<path fill="none" stroke="#444444" stroke-opacity="0.333333" d="M1892.0579,-654.275C2001.5014,-648.0071 2172.2764,-638.2266 2266.9437,-632.8049"/>
<polygon fill="#444444" fill-opacity="0.333333" stroke="#444444" stroke-opacity="0.333333" points="2267.1987,-636.2962 2276.9822,-632.23 2266.7984,-629.3076 2267.1987,-636.2962"/>
</g>
<!-- samba&#45;client&#45;libs&#45;&gt;libldb -->
<g id="edge10" class="edge">
<title>samba&#45;client&#45;libs&#45;&gt;libldb</title>
<path fill="none" stroke="#444444" stroke-opacity="0.333333" d="M1732.191,-642.0604C1682.6156,-626.573 1611.7875,-604.4461 1563.7368,-589.4351"/>
<polygon fill="#444444" fill-opacity="0.333333" stroke="#444444" stroke-opacity="0.333333" points="1564.7332,-586.0796 1554.1444,-586.4384 1562.6458,-592.7611 1564.7332,-586.0796"/>
</g>
<!-- samba&#45;client&#45;libs&#45;&gt;libtalloc -->
<g id="edge11" class="edge">
<title>samba&#45;client&#45;libs&#45;&gt;libtalloc</title>
<path fill="none" stroke="#444444" stroke-opacity="0.333333" d="M1731.4404,-678.1206C1720.8763,-681.3679 1709.7757,-684.7801 1698.955,-688.1062"/>
<polygon fill="#444444" fill-opacity="0.333333" stroke="#444444" stroke-opacity="0.333333" points="1697.6499,-684.8457 1689.1197,-691.1295 1699.7067,-691.5367 1697.6499,-684.8457"/>
</g>
<!-- samba&#45;client&#45;libs&#45;&gt;libtdb -->
<g id="edge12" class="edge">
<title>samba&#45;client&#45;libs&#45;&gt;libtdb</title>
<path fill="none" stroke="#444444" stroke-opacity="0.333333" d="M1769.5926,-642.1032C1737.774,-614.012 1676.265,-559.7084 1640.2522,-527.9143"/>
<polygon fill="#444444" fill-opacity="0.333333" stroke="#444444" stroke-opacity="0.333333" points="1642.3556,-525.1025 1632.5426,-521.1079 1637.7228,-530.3501 1642.3556,-525.1025"/>
</g>
<!-- samba&#45;client&#45;libs&#45;&gt;libtevent -->
<g id="edge13" class="edge">
<title>samba&#45;client&#45;libs&#45;&gt;libtevent</title>
<path fill="none" stroke="#444444" stroke-opacity="0.333333" d="M1748.1551,-678.1849C1713.0302,-693.3487 1662.7283,-715.0645 1625.2606,-731.2398"/>
<polygon fill="#444444" fill-opacity="0.333333" stroke="#444444" stroke-opacity="0.333333" points="1623.8222,-728.0485 1616.0284,-735.2254 1626.5967,-734.4751 1623.8222,-728.0485"/>
</g>
<!-- samba&#45;client&#45;libs&#45;&gt;libwbclient -->
<g id="edge14" class="edge">
<title>samba&#45;client&#45;libs&#45;&gt;libwbclient</title>
<path fill="none" stroke="#444444" stroke-opacity="0.333333" d="M1852.3703,-642.1186C1885.9543,-629.8131 1926.4246,-613.596 1955.9771,-600.5071"/>
<polygon fill="#444444" fill-opacity="0.333333" stroke="#444444" stroke-opacity="0.333333" points="1957.4801,-603.6689 1965.1658,-596.3764 1954.61,-597.2844 1957.4801,-603.6689"/>
</g>
<!-- samba&#45;client&#45;libs&#45;&gt;samba&#45;dc&#45;libs -->
<g id="edge15" class="edge">
<title>samba&#45;client&#45;libs&#45;&gt;samba&#45;dc&#45;libs</title>
<path fill="none" stroke="#444444" stroke-opacity="0.333333" d="M1772.971,-641.9504C1730.4068,-603.6414 1618.9404,-515.154 1559.6283,-472.1083"/>
<polygon fill="#444444" fill-opacity="0.333333" stroke="#444444" stroke-opacity="0.333333" points="1561.4325,-469.0947 1551.2702,-466.0984 1557.3459,-474.778 1561.4325,-469.0947"/>
</g>
<!-- samba&#45;client&#45;libs&#45;&gt;samba&#45;libs -->
<g id="edge16" class="edge">
<title>samba&#45;client&#45;libs&#45;&gt;samba&#45;libs</title>
<path fill="none" stroke="#444444" stroke-opacity="0.333333" d="M1711.6163,-642.1191C1704.5451,-641.0632 1697.3955,-640.0564 1690.3558,-639.1256"/>
<polygon fill="#444444" fill-opacity="0.333333" stroke="#444444" stroke-opacity="0.333333" points="1690.5055,-635.6163 1680.1423,-637.8193 1689.6174,-642.5597 1690.5055,-635.6163"/>
</g>
<!-- libwbclient&#45;&gt;samba&#45;client&#45;libs -->
<g id="edge17" class="edge">
<title>libwbclient&#45;&gt;samba&#45;client&#45;libs</title>
<path fill="none" stroke="#444444" stroke-opacity="0.333333" d="M1934.4297,-596.3514C1900.8457,-608.6569 1860.3754,-624.874 1830.8229,-637.9629"/>
<polygon fill="#444444" fill-opacity="0.333333" stroke="#444444" stroke-opacity="0.333333" points="1829.3199,-634.8011 1821.6342,-642.0936 1832.19,-641.1856 1829.3199,-634.8011"/>
</g>
<!-- samba&#45;dc&#45;libs&#45;&gt;libldb -->
<g id="edge18" class="edge">
<title>samba&#45;dc&#45;libs&#45;&gt;libldb</title>
<path fill="none" stroke="#444444" stroke-opacity="0.333333" d="M1519.8023,-466.0677C1518.1012,-486.7251 1515.3048,-520.6835 1513.3208,-544.7772"/>
<polygon fill="#444444" fill-opacity="0.333333" stroke="#444444" stroke-opacity="0.333333" points="1509.8321,-544.4968 1512.4995,-554.7503 1516.8085,-545.0714 1509.8321,-544.4968"/>
</g>
<!-- samba&#45;dc&#45;libs&#45;&gt;libtalloc -->
<g id="edge19" class="edge">
<title>samba&#45;dc&#45;libs&#45;&gt;libtalloc</title>
<path fill="none" stroke="#444444" stroke-opacity="0.333333" d="M1528.9647,-466.2562C1547.8118,-511.4426 1596.5002,-628.1743 1618.8172,-681.6798"/>
<polygon fill="#444444" fill-opacity="0.333333" stroke="#444444" stroke-opacity="0.333333" points="1615.7086,-683.319 1622.7885,-691.201 1622.1692,-680.6243 1615.7086,-683.319"/>
</g>
<!-- samba&#45;dc&#45;libs&#45;&gt;libtevent -->
<g id="edge20" class="edge">
<title>samba&#45;dc&#45;libs&#45;&gt;libtevent</title>
<path fill="none" stroke="#444444" stroke-opacity="0.333333" d="M1524.4567,-466.0672C1533.3493,-517.3021 1558.6568,-663.1114 1569.3907,-724.9553"/>
<polygon fill="#444444" fill-opacity="0.333333" stroke="#444444" stroke-opacity="0.333333" points="1566.0013,-725.894 1571.1599,-735.1481 1572.8981,-724.6969 1566.0013,-725.894"/>
</g>
<!-- samba&#45;dc&#45;libs&#45;&gt;samba&#45;client&#45;libs -->
<g id="edge21" class="edge">
<title>samba&#45;dc&#45;libs&#45;&gt;samba&#45;client&#45;libs</title>
<path fill="none" stroke="#444444" stroke-opacity="0.333333" d="M1538.329,-466.0496C1580.8932,-504.3586 1692.3596,-592.846 1751.6717,-635.8917"/>
<polygon fill="#444444" fill-opacity="0.333333" stroke="#444444" stroke-opacity="0.333333" points="1749.8675,-638.9053 1760.0298,-641.9016 1753.9541,-633.222 1749.8675,-638.9053"/>
</g>
<!-- samba&#45;dc&#45;libs&#45;&gt;samba&#45;libs -->
<g id="edge22" class="edge">
<title>samba&#45;dc&#45;libs&#45;&gt;samba&#45;libs</title>
<path fill="none" stroke="#444444" stroke-opacity="0.333333" d="M1530.5038,-466.1792C1547.1484,-499.2722 1582.3285,-569.2178 1601.805,-607.9414"/>
<polygon fill="#444444" fill-opacity="0.333333" stroke="#444444" stroke-opacity="0.333333" points="1598.7774,-609.7113 1606.3975,-617.0723 1605.0309,-606.566 1598.7774,-609.7113"/>
</g>
<!-- samba&#45;dc&#45;libs&#45;&gt;python2&#45;libs -->
<g id="edge23" class="edge">
<title>samba&#45;dc&#45;libs&#45;&gt;python2&#45;libs</title>
<path fill="none" stroke="#444444" stroke-opacity="0.333333" d="M1491.5146,-465.9377C1432.3853,-501.7854 1300.2194,-581.9122 1234.3152,-621.8673"/>
<polygon fill="#444444" fill-opacity="0.333333" stroke="#444444" stroke-opacity="0.333333" points="1232.2068,-619.0525 1225.4701,-627.2297 1235.8358,-625.0384 1232.2068,-619.0525"/>
</g>
<!-- samba&#45;dc&#45;libs&#45;&gt;samba&#45;common&#45;libs -->
<g id="edge24" class="edge">
<title>samba&#45;dc&#45;libs&#45;&gt;samba&#45;common&#45;libs</title>
<path fill="none" stroke="#444444" stroke-opacity="0.333333" d="M1601.935,-452.6213C1631.3759,-454.3524 1665.2323,-456.3431 1696.9407,-458.2075"/>
<polygon fill="#444444" fill-opacity="0.333333" stroke="#444444" stroke-opacity="0.333333" points="1696.9636,-461.7148 1707.1519,-458.8079 1697.3746,-454.7269 1696.9636,-461.7148"/>
</g>
<!-- samba&#45;dc&#45;libs&#45;&gt;libkadm5 -->
<g id="edge25" class="edge">
<title>samba&#45;dc&#45;libs&#45;&gt;libkadm5</title>
<path fill="none" stroke="#444444" stroke-opacity="0.333333" d="M1520.9741,-429.6832C1519.7714,-362.5423 1515.5772,-128.3831 1514.1108,-46.5186"/>
<polygon fill="#444444" fill-opacity="0.333333" stroke="#444444" stroke-opacity="0.333333" points="1517.609,-46.3775 1513.9303,-36.4418 1510.6101,-46.5029 1517.609,-46.3775"/>
</g>
<!-- samba&#45;libs&#45;&gt;libldb -->
<g id="edge26" class="edge">
<title>samba&#45;libs&#45;&gt;libldb</title>
<path fill="none" stroke="#444444" stroke-opacity="0.333333" d="M1584.9934,-617.0091C1574.0479,-610.4931 1561.553,-603.0548 1549.9867,-596.1692"/>
<polygon fill="#444444" fill-opacity="0.333333" stroke="#444444" stroke-opacity="0.333333" points="1551.7469,-593.1439 1541.3639,-591.036 1548.1662,-599.1588 1551.7469,-593.1439"/>
</g>
<!-- samba&#45;libs&#45;&gt;libtalloc -->
<g id="edge27" class="edge">
<title>samba&#45;libs&#45;&gt;libtalloc</title>
<path fill="none" stroke="#444444" stroke-opacity="0.333333" d="M1619.1584,-653.472C1620.8252,-661.8105 1622.8357,-671.8682 1624.6873,-681.1315"/>
<polygon fill="#444444" fill-opacity="0.333333" stroke="#444444" stroke-opacity="0.333333" points="1621.2913,-681.9986 1626.6837,-691.1185 1628.1555,-680.6264 1621.2913,-681.9986"/>
</g>
<!-- samba&#45;libs&#45;&gt;libtdb -->
<g id="edge28" class="edge">
<title>samba&#45;libs&#45;&gt;libtdb</title>
<path fill="none" stroke="#444444" stroke-opacity="0.333333" d="M1615.0344,-617.0777C1614.4678,-595.0648 1613.5045,-557.6337 1612.8369,-531.6932"/>
<polygon fill="#444444" fill-opacity="0.333333" stroke="#444444" stroke-opacity="0.333333" points="1616.3271,-531.2644 1612.5709,-521.3578 1609.3294,-531.4445 1616.3271,-531.2644"/>
</g>
<!-- samba&#45;libs&#45;&gt;libtevent -->
<g id="edge29" class="edge">
<title>samba&#45;libs&#45;&gt;libtevent</title>
<path fill="none" stroke="#444444" stroke-opacity="0.333333" d="M1609.1528,-653.3597C1602.4192,-672.6565 1591.7007,-703.3736 1583.9266,-725.6523"/>
<polygon fill="#444444" fill-opacity="0.333333" stroke="#444444" stroke-opacity="0.333333" points="1580.5769,-724.6286 1580.5868,-735.2234 1587.1861,-726.9349 1580.5769,-724.6286"/>
</g>
<!-- samba&#45;libs&#45;&gt;samba&#45;client&#45;libs -->
<g id="edge30" class="edge">
<title>samba&#45;libs&#45;&gt;samba&#45;client&#45;libs</title>
<path fill="none" stroke="#444444" stroke-opacity="0.333333" d="M1680.0454,-651.025C1680.2082,-651.0512 1680.3711,-651.0774 1680.5341,-651.1036"/>
<polygon fill="#444444" fill-opacity="0.333333" stroke="#444444" stroke-opacity="0.333333" points="1677.5133,-654.1712 1687.9359,-652.2684 1678.6016,-647.2562 1677.5133,-654.1712"/>
</g>
<!-- samba&#45;libs&#45;&gt;libwbclient -->
<g id="edge31" class="edge">
<title>samba&#45;libs&#45;&gt;libwbclient</title>
<path fill="none" stroke="#444444" stroke-opacity="0.333333" d="M1680.1823,-625.5313C1745.5944,-615.7838 1846.8157,-600.7001 1917.1334,-590.2216"/>
<polygon fill="#444444" fill-opacity="0.333333" stroke="#444444" stroke-opacity="0.333333" points="1917.901,-593.646 1927.2759,-588.7102 1916.8693,-586.7224 1917.901,-593.646"/>
</g>
<!-- samba&#45;libs&#45;&gt;python2&#45;libs -->
<g id="edge32" class="edge">
<title>samba&#45;libs&#45;&gt;python2&#45;libs</title>
<path fill="none" stroke="#444444" stroke-opacity="0.333333" d="M1550.78,-636.7553C1478.4946,-638.5258 1361.17,-641.3996 1281.2608,-643.3569"/>
<polygon fill="#444444" fill-opacity="0.333333" stroke="#444444" stroke-opacity="0.333333" points="1281.1307,-639.859 1271.2194,-643.6029 1281.3022,-646.8569 1281.1307,-639.859"/>
</g>
<!-- samba&#45;libs&#45;&gt;python2&#45;talloc -->
<g id="edge33" class="edge">
<title>samba&#45;libs&#45;&gt;python2&#45;talloc</title>
<path fill="none" stroke="#444444" stroke-opacity="0.333333" d="M1580.2628,-653.2098C1525.6616,-681.163 1420.6797,-734.9089 1360.7793,-765.5751"/>
<polygon fill="#444444" fill-opacity="0.333333" stroke="#444444" stroke-opacity="0.333333" points="1358.8737,-762.6186 1351.5674,-770.2912 1362.0637,-768.8495 1358.8737,-762.6186"/>
</g>
<!-- samba&#45;common&#45;libs&#45;&gt;libtalloc -->
<g id="edge63" class="edge">
<title>samba&#45;common&#45;libs&#45;&gt;libtalloc</title>
<path fill="none" stroke="#444444" stroke-opacity="0.333333" d="M1795.9384,-483.189C1764.5504,-526.0193 1686.4056,-632.6515 1649.7989,-682.6029"/>
<polygon fill="#444444" fill-opacity="0.333333" stroke="#444444" stroke-opacity="0.333333" points="1646.7615,-680.8264 1643.6735,-690.9612 1652.4077,-684.9642 1646.7615,-680.8264"/>
</g>
<!-- samba&#45;common&#45;libs&#45;&gt;libtdb -->
<g id="edge64" class="edge">
<title>samba&#45;common&#45;libs&#45;&gt;libtdb</title>
<path fill="none" stroke="#444444" stroke-opacity="0.333333" d="M1716.5273,-482.8203C1698.9817,-486.2209 1681.1915,-489.6689 1665.3871,-492.7321"/>
<polygon fill="#444444" fill-opacity="0.333333" stroke="#444444" stroke-opacity="0.333333" points="1664.462,-489.3462 1655.3107,-494.6851 1665.794,-496.2183 1664.462,-489.3462"/>
</g>
<!-- samba&#45;common&#45;libs&#45;&gt;samba&#45;client&#45;libs -->
<g id="edge65" class="edge">
<title>samba&#45;common&#45;libs&#45;&gt;samba&#45;client&#45;libs</title>
<path fill="none" stroke="#444444" stroke-opacity="0.333333" d="M1807.6097,-482.8433C1804.2257,-516.91 1796.8677,-590.9832 1792.816,-631.7714"/>
<polygon fill="#444444" fill-opacity="0.333333" stroke="#444444" stroke-opacity="0.333333" points="1789.3199,-631.5593 1791.8142,-641.8563 1796.2856,-632.2513 1789.3199,-631.5593"/>
</g>
<!-- samba&#45;common&#45;libs&#45;&gt;libwbclient -->
<g id="edge66" class="edge">
<title>samba&#45;common&#45;libs&#45;&gt;libwbclient</title>
<path fill="none" stroke="#444444" stroke-opacity="0.333333" d="M1839.5091,-483.0606C1871.8432,-502.6491 1923.3063,-533.8263 1958.4998,-555.1471"/>
<polygon fill="#444444" fill-opacity="0.333333" stroke="#444444" stroke-opacity="0.333333" points="1956.7087,-558.1542 1967.0752,-560.3422 1960.3358,-552.1672 1956.7087,-558.1542"/>
</g>
<!-- python2&#45;talloc&#45;&gt;libtalloc -->
<g id="edge56" class="edge">
<title>python2&#45;talloc&#45;&gt;libtalloc</title>
<path fill="none" stroke="#444444" stroke-opacity="0.333333" d="M1387.7128,-770.4087C1439.8813,-757.2479 1510.0974,-739.5341 1561.5617,-726.5509"/>
<polygon fill="#444444" fill-opacity="0.333333" stroke="#444444" stroke-opacity="0.333333" points="1562.4286,-729.942 1571.2687,-724.1021 1560.7163,-723.1546 1562.4286,-729.942"/>
</g>
<!-- python2&#45;talloc&#45;&gt;python2&#45;libs -->
<g id="edge58" class="edge">
<title>python2&#45;talloc&#45;&gt;python2&#45;libs</title>
<path fill="none" stroke="#444444" stroke-opacity="0.333333" d="M1300.7259,-770.3839C1279.7275,-745.4783 1241.8046,-700.4991 1217.6516,-671.8519"/>
<polygon fill="#444444" fill-opacity="0.333333" stroke="#444444" stroke-opacity="0.333333" points="1220.0528,-669.2701 1210.931,-663.8808 1214.7011,-673.7822 1220.0528,-669.2701"/>
</g>
<!-- python2&#45;talloc&#45;&gt;python2 -->
<g id="edge57" class="edge">
<title>python2&#45;talloc&#45;&gt;python2</title>
<path fill="none" stroke="#444444" stroke-opacity="0.333333" d="M1229.8686,-787.1164C1184.5832,-786.389 1130.261,-785.5164 1089.9215,-784.8684"/>
<polygon fill="#444444" fill-opacity="0.333333" stroke="#444444" stroke-opacity="0.333333" points="1089.775,-781.3657 1079.72,-784.7046 1089.6625,-788.3648 1089.775,-781.3657"/>
</g>
<!-- libtomcrypt&#45;&gt;libtommath -->
<g id="edge34" class="edge">
<title>libtomcrypt&#45;&gt;libtommath</title>
<path fill="none" stroke="#444444" stroke-opacity="0.333333" d="M252.4423,-507.2724C217.2643,-500.0754 174.5866,-491.3441 138.7811,-484.0188"/>
<polygon fill="#444444" fill-opacity="0.333333" stroke="#444444" stroke-opacity="0.333333" points="139.3749,-480.5679 128.8763,-481.9924 137.9718,-487.4258 139.3749,-480.5679"/>
</g>
<!-- python2&#45;crypto&#45;&gt;python2&#45;libs -->
<g id="edge37" class="edge">
<title>python2&#45;crypto&#45;&gt;python2&#45;libs</title>
<path fill="none" stroke="#444444" stroke-opacity="0.333333" d="M829.0688,-617.7166C909.6048,-623.8158 1029.1785,-632.8715 1109.5938,-638.9616"/>
<polygon fill="#444444" fill-opacity="0.333333" stroke="#444444" stroke-opacity="0.333333" points="1109.4551,-642.4611 1119.6909,-639.7263 1109.9838,-635.481 1109.4551,-642.4611"/>
</g>
<!-- python2&#45;crypto&#45;&gt;libtomcrypt -->
<g id="edge35" class="edge">
<title>python2&#45;crypto&#45;&gt;libtomcrypt</title>
<path fill="none" stroke="#444444" stroke-opacity="0.333333" d="M658.2692,-593.1578C583.4539,-577.2152 475.1204,-554.13 401.8491,-538.5163"/>
<polygon fill="#444444" fill-opacity="0.333333" stroke="#444444" stroke-opacity="0.333333" points="402.26,-535.0254 391.7501,-536.3643 400.801,-541.8717 402.26,-535.0254"/>
</g>
<!-- python2&#45;crypto&#45;&gt;python2 -->
<g id="edge36" class="edge">
<title>python2&#45;crypto&#45;&gt;python2</title>
<path fill="none" stroke="#444444" stroke-opacity="0.333333" d="M773.2308,-629.3497C825.8459,-660.8411 933.9568,-725.5481 992.225,-760.423"/>
<polygon fill="#444444" fill-opacity="0.333333" stroke="#444444" stroke-opacity="0.333333" points="990.7546,-763.6219 1001.1326,-765.7544 994.3496,-757.6155 990.7546,-763.6219"/>
</g>
<!-- python2&#45;&gt;python2&#45;libs -->
<g id="edge38" class="edge">
<title>python2&#45;&gt;python2&#45;libs</title>
<path fill="none" stroke="#444444" stroke-opacity="0.333333" d="M1052.9271,-765.8275C1081.8844,-741.3631 1133.6209,-697.6537 1166.1398,-670.1803"/>
<polygon fill="#444444" fill-opacity="0.333333" stroke="#444444" stroke-opacity="0.333333" points="1168.5876,-672.6942 1173.9677,-663.567 1164.0701,-667.347 1168.5876,-672.6942"/>
</g>
<!-- python2&#45;&gt;python2&#45;pip -->
<g id="edge39" class="edge">
<title>python2&#45;&gt;python2&#45;pip</title>
<path fill="none" stroke="#444444" stroke-opacity="0.333333" d="M984.3565,-802.075C912.6794,-834.4077 777.8174,-901.3312 712.6835,-936.9851"/>
<polygon fill="#444444" fill-opacity="0.333333" stroke="#444444" stroke-opacity="0.333333" points="710.6527,-934.1085 703.5954,-942.0107 714.0402,-940.2343 710.6527,-934.1085"/>
</g>
<!-- python2&#45;&gt;python2&#45;setuptools -->
<g id="edge40" class="edge">
<title>python2&#45;&gt;python2&#45;setuptools</title>
<path fill="none" stroke="#444444" stroke-opacity="0.333333" d="M1009.6798,-801.9451C957.7173,-851.7388 827.8196,-990.8784 778.563,-1049.3678"/>
<polygon fill="#444444" fill-opacity="0.333333" stroke="#444444" stroke-opacity="0.333333" points="775.5956,-1047.4627 771.8996,-1057.392 780.9809,-1051.9347 775.5956,-1047.4627"/>
</g>
<!-- python2&#45;pip&#45;&gt;python2 -->
<g id="edge41" class="edge">
<title>python2&#45;pip&#45;&gt;python2</title>
<path fill="none" stroke="#444444" stroke-opacity="0.333333" d="M722.7935,-942.115C794.4706,-909.7823 929.3326,-842.8588 994.4665,-807.2049"/>
<polygon fill="#444444" fill-opacity="0.333333" stroke="#444444" stroke-opacity="0.333333" points="996.4973,-810.0815 1003.5546,-802.1793 993.1098,-803.9557 996.4973,-810.0815"/>
</g>
<!-- python2&#45;pip&#45;&gt;python2&#45;setuptools -->
<g id="edge42" class="edge">
<title>python2&#45;pip&#45;&gt;python2&#45;setuptools</title>
<path fill="none" stroke="#444444" stroke-opacity="0.333333" d="M688.725,-978.2975C702.5222,-997.3313 724.408,-1027.5236 740.1567,-1049.2497"/>
<polygon fill="#444444" fill-opacity="0.333333" stroke="#444444" stroke-opacity="0.333333" points="737.3678,-1051.3658 746.0707,-1057.4082 743.0354,-1047.2574 737.3678,-1051.3658"/>
</g>
<!-- python2&#45;setuptools&#45;&gt;python2 -->
<g id="edge43" class="edge">
<title>python2&#45;setuptools&#45;&gt;python2</title>
<path fill="none" stroke="#444444" stroke-opacity="0.333333" d="M781.1502,-1057.6849C833.1127,-1007.8912 963.0104,-868.7516 1012.267,-810.2622"/>
<polygon fill="#444444" fill-opacity="0.333333" stroke="#444444" stroke-opacity="0.333333" points="1015.2344,-812.1673 1018.9304,-802.238 1009.8491,-807.6953 1015.2344,-812.1673"/>
</g>
<!-- python2&#45;dns&#45;&gt;python2&#45;crypto -->
<g id="edge44" class="edge">
<title>python2&#45;dns&#45;&gt;python2&#45;crypto</title>
<path fill="none" stroke="#444444" stroke-opacity="0.333333" d="M883.2815,-625.8882C869.2128,-624.4153 854.1853,-622.842 839.3851,-621.2925"/>
<polygon fill="#444444" fill-opacity="0.333333" stroke="#444444" stroke-opacity="0.333333" points="839.4998,-617.7855 829.1897,-620.2251 838.7709,-624.7474 839.4998,-617.7855"/>
</g>
<!-- python2&#45;dns&#45;&gt;python2 -->
<g id="edge45" class="edge">
<title>python2&#45;dns&#45;&gt;python2</title>
<path fill="none" stroke="#444444" stroke-opacity="0.333333" d="M962.4074,-651.364C976.0341,-677.5092 1001.2684,-725.9256 1017.1778,-756.4505"/>
<polygon fill="#444444" fill-opacity="0.333333" stroke="#444444" stroke-opacity="0.333333" points="1014.2634,-758.4314 1021.989,-765.6815 1020.4708,-755.196 1014.2634,-758.4314"/>
</g>
<!-- python2&#45;ldb&#45;&gt;libldb -->
<g id="edge46" class="edge">
<title>python2&#45;ldb&#45;&gt;libldb</title>
<path fill="none" stroke="#444444" stroke-opacity="0.333333" d="M1418.3007,-592.0871C1431.6126,-589.3404 1445.3406,-586.5078 1458.0186,-583.8919"/>
<polygon fill="#444444" fill-opacity="0.333333" stroke="#444444" stroke-opacity="0.333333" points="1458.8466,-587.2949 1467.933,-581.8462 1457.432,-580.4393 1458.8466,-587.2949"/>
</g>
<!-- python2&#45;ldb&#45;&gt;libtalloc -->
<g id="edge47" class="edge">
<title>python2&#45;ldb&#45;&gt;libtalloc</title>
<path fill="none" stroke="#444444" stroke-opacity="0.333333" d="M1397.8258,-624.5165C1446.0379,-642.0808 1519.4199,-668.8149 1570.8076,-687.5361"/>
<polygon fill="#444444" fill-opacity="0.333333" stroke="#444444" stroke-opacity="0.333333" points="1569.8626,-690.9168 1580.4566,-691.0514 1572.2588,-684.3397 1569.8626,-690.9168"/>
</g>
<!-- python2&#45;ldb&#45;&gt;libtdb -->
<g id="edge48" class="edge">
<title>python2&#45;ldb&#45;&gt;libtdb</title>
<path fill="none" stroke="#444444" stroke-opacity="0.333333" d="M1394.333,-588.4904C1440.4001,-570.4182 1511.2515,-542.623 1559.5362,-523.6809"/>
<polygon fill="#444444" fill-opacity="0.333333" stroke="#444444" stroke-opacity="0.333333" points="1560.8472,-526.9263 1568.8782,-520.016 1558.2907,-520.4098 1560.8472,-526.9263"/>
</g>
<!-- python2&#45;ldb&#45;&gt;libtevent -->
<g id="edge49" class="edge">
<title>python2&#45;ldb&#45;&gt;libtevent</title>
<path fill="none" stroke="#444444" stroke-opacity="0.333333" d="M1376.5536,-624.7968C1417.3583,-651.3008 1492.9579,-700.4055 1537.9337,-729.6188"/>
<polygon fill="#444444" fill-opacity="0.333333" stroke="#444444" stroke-opacity="0.333333" points="1536.2084,-732.6717 1546.5012,-735.1837 1540.0215,-726.8013 1536.2084,-732.6717"/>
</g>
<!-- python2&#45;ldb&#45;&gt;python2&#45;libs -->
<g id="edge51" class="edge">
<title>python2&#45;ldb&#45;&gt;python2&#45;libs</title>
<path fill="none" stroke="#444444" stroke-opacity="0.333333" d="M1278.6159,-624.2753C1277.8475,-624.4709 1277.0782,-624.6668 1276.3082,-624.8628"/>
<polygon fill="#444444" fill-opacity="0.333333" stroke="#444444" stroke-opacity="0.333333" points="1275.1184,-621.554 1266.2909,-627.4129 1276.8453,-628.3376 1275.1184,-621.554"/>
</g>
<!-- python2&#45;ldb&#45;&gt;python2 -->
<g id="edge50" class="edge">
<title>python2&#45;ldb&#45;&gt;python2</title>
<path fill="none" stroke="#444444" stroke-opacity="0.333333" d="M1315.9754,-624.6633C1258.0892,-657.0715 1137.0522,-724.8354 1073.1196,-760.6288"/>
<polygon fill="#444444" fill-opacity="0.333333" stroke="#444444" stroke-opacity="0.333333" points="1071.1314,-757.7307 1064.1156,-765.6698 1074.551,-763.8386 1071.1314,-757.7307"/>
</g>
<!-- python2&#45;ldb&#45;&gt;python2&#45;tdb -->
<g id="edge52" class="edge">
<title>python2&#45;ldb&#45;&gt;python2&#45;tdb</title>
<path fill="none" stroke="#444444" stroke-opacity="0.333333" d="M1325.1814,-588.3029C1305.2728,-572.6914 1276.4217,-550.0675 1254.5164,-532.8903"/>
<polygon fill="#444444" fill-opacity="0.333333" stroke="#444444" stroke-opacity="0.333333" points="1256.5231,-530.0161 1246.4942,-526.5996 1252.2037,-535.5245 1256.5231,-530.0161"/>
</g>
<!-- python2&#45;tdb&#45;&gt;libtdb -->
<g id="edge53" class="edge">
<title>python2&#45;tdb&#45;&gt;libtdb</title>
<path fill="none" stroke="#444444" stroke-opacity="0.333333" d="M1293.3407,-507.513C1369.5361,-506.4485 1489.7443,-504.7693 1558.7088,-503.8059"/>
<polygon fill="#444444" fill-opacity="0.333333" stroke="#444444" stroke-opacity="0.333333" points="1558.9615,-507.3028 1568.9116,-503.6633 1558.8636,-500.3034 1558.9615,-507.3028"/>
</g>
<!-- python2&#45;tdb&#45;&gt;python2&#45;libs -->
<g id="edge55" class="edge">
<title>python2&#45;tdb&#45;&gt;python2&#45;libs</title>
<path fill="none" stroke="#444444" stroke-opacity="0.333333" d="M1219.6818,-526.6786C1214.954,-549.8059 1206.7397,-589.9885 1201.1889,-617.142"/>
<polygon fill="#444444" fill-opacity="0.333333" stroke="#444444" stroke-opacity="0.333333" points="1197.7074,-616.6978 1199.1336,-627.1962 1204.5655,-618.0998 1197.7074,-616.6978"/>
</g>
<!-- python2&#45;tdb&#45;&gt;python2 -->
<g id="edge54" class="edge">
<title>python2&#45;tdb&#45;&gt;python2</title>
<path fill="none" stroke="#444444" stroke-opacity="0.333333" d="M1210.8089,-526.5624C1177.8035,-573.9361 1088.6623,-701.8832 1049.9083,-757.508"/>
<polygon fill="#444444" fill-opacity="0.333333" stroke="#444444" stroke-opacity="0.333333" points="1046.9822,-755.5853 1044.1375,-765.7911 1052.7257,-759.5868 1046.9822,-755.5853"/>
</g>
<!-- python2&#45;tevent&#45;&gt;libtalloc -->
<g id="edge59" class="edge">
<title>python2&#45;tevent&#45;&gt;libtalloc</title>
<path fill="none" stroke="#444444" stroke-opacity="0.333333" d="M1350.6274,-864.9112C1407.7878,-833.0884 1526.1399,-767.1987 1588.9895,-732.2086"/>
<polygon fill="#444444" fill-opacity="0.333333" stroke="#444444" stroke-opacity="0.333333" points="1590.8111,-735.2004 1597.8458,-727.2781 1587.4061,-729.0844 1590.8111,-735.2004"/>
</g>
<!-- python2&#45;tevent&#45;&gt;libtevent -->
<g id="edge60" class="edge">
<title>python2&#45;tevent&#45;&gt;libtevent</title>
<path fill="none" stroke="#444444" stroke-opacity="0.333333" d="M1353.7235,-864.9746C1399.6738,-841.6982 1479.6164,-801.2027 1529.598,-775.8842"/>
<polygon fill="#444444" fill-opacity="0.333333" stroke="#444444" stroke-opacity="0.333333" points="1531.2279,-778.982 1538.567,-771.3408 1528.0646,-772.7375 1531.2279,-778.982"/>
</g>
<!-- python2&#45;tevent&#45;&gt;python2&#45;libs -->
<g id="edge62" class="edge">
<title>python2&#45;tevent&#45;&gt;python2&#45;libs</title>
<path fill="none" stroke="#444444" stroke-opacity="0.333333" d="M1308.6757,-864.7735C1287.2637,-823.3176 1234.8546,-721.8482 1209.5407,-672.8379"/>
<polygon fill="#444444" fill-opacity="0.333333" stroke="#444444" stroke-opacity="0.333333" points="1212.5552,-671.0473 1204.8564,-663.7686 1206.3358,-674.2597 1212.5552,-671.0473"/>
</g>
<!-- python2&#45;tevent&#45;&gt;python2 -->
<g id="edge61" class="edge">
<title>python2&#45;tevent&#45;&gt;python2</title>
<path fill="none" stroke="#444444" stroke-opacity="0.333333" d="M1265.8664,-864.9606C1215.9637,-847.7071 1140.9029,-821.7553 1089.2441,-803.8946"/>
<polygon fill="#444444" fill-opacity="0.333333" stroke="#444444" stroke-opacity="0.333333" points="1090.1554,-800.5065 1079.5606,-800.5466 1087.868,-807.1222 1090.1554,-800.5065"/>
</g>
<!-- samba&#45;common&#45;tools&#45;&gt;libtalloc -->
<g id="edge67" class="edge">
<title>samba&#45;common&#45;tools&#45;&gt;libtalloc</title>
<path fill="none" stroke="#444444" stroke-opacity="0.333333" d="M1754.1311,-573.8067C1729.2031,-601.0642 1682.1141,-652.5538 1653.7344,-683.5856"/>
<polygon fill="#444444" fill-opacity="0.333333" stroke="#444444" stroke-opacity="0.333333" points="1651.1132,-681.2656 1646.9472,-691.007 1656.2788,-685.9897 1651.1132,-681.2656"/>
</g>
<!-- samba&#45;common&#45;tools&#45;&gt;libtdb -->
<g id="edge68" class="edge">
<title>samba&#45;common&#45;tools&#45;&gt;libtdb</title>
<path fill="none" stroke="#444444" stroke-opacity="0.333333" d="M1716.1845,-537.5056C1699.7009,-532.0505 1681.6351,-526.0719 1665.2486,-520.6489"/>
<polygon fill="#444444" fill-opacity="0.333333" stroke="#444444" stroke-opacity="0.333333" points="1665.8851,-517.173 1655.2919,-517.3539 1663.6858,-523.8185 1665.8851,-517.173"/>
</g>
<!-- samba&#45;common&#45;tools&#45;&gt;libtevent -->
<g id="edge69" class="edge">
<title>samba&#45;common&#45;tools&#45;&gt;libtevent</title>
<path fill="none" stroke="#444444" stroke-opacity="0.333333" d="M1752.666,-573.8211C1717.4984,-609.1962 1639.9576,-687.1948 1599.69,-727.7001"/>
<polygon fill="#444444" fill-opacity="0.333333" stroke="#444444" stroke-opacity="0.333333" points="1596.9583,-725.4835 1592.3902,-735.043 1601.9226,-730.4187 1596.9583,-725.4835"/>
</g>
<!-- samba&#45;common&#45;tools&#45;&gt;samba&#45;client&#45;libs -->
<g id="edge70" class="edge">
<title>samba&#45;common&#45;tools&#45;&gt;samba&#45;client&#45;libs</title>
<path fill="none" stroke="#444444" stroke-opacity="0.333333" d="M1774.1444,-573.7895C1777.104,-589.9041 1781.4687,-613.6687 1784.8698,-632.1869"/>
<polygon fill="#444444" fill-opacity="0.333333" stroke="#444444" stroke-opacity="0.333333" points="1781.445,-632.916 1786.6939,-642.1192 1788.3299,-631.6514 1781.445,-632.916"/>
</g>
<!-- samba&#45;common&#45;tools&#45;&gt;libwbclient -->
<g id="edge71" class="edge">
<title>samba&#45;common&#45;tools&#45;&gt;libwbclient</title>
<path fill="none" stroke="#444444" stroke-opacity="0.333333" d="M1877.8435,-566.3649C1891.077,-567.6982 1904.4198,-569.0425 1917.1431,-570.3244"/>
<polygon fill="#444444" fill-opacity="0.333333" stroke="#444444" stroke-opacity="0.333333" points="1916.8997,-573.8175 1927.2003,-571.3377 1917.6015,-566.8528 1916.8997,-573.8175"/>
</g>
<!-- samba&#45;common&#45;tools&#45;&gt;samba&#45;libs -->
<g id="edge72" class="edge">
<title>samba&#45;common&#45;tools&#45;&gt;samba&#45;libs</title>
<path fill="none" stroke="#444444" stroke-opacity="0.333333" d="M1735.56,-573.6402C1713.1027,-585.1494 1683.8184,-600.1573 1659.7939,-612.4697"/>
<polygon fill="#444444" fill-opacity="0.333333" stroke="#444444" stroke-opacity="0.333333" points="1658.172,-609.368 1650.869,-617.0437 1661.3647,-615.5976 1658.172,-609.368"/>
</g>
<!-- samba&#45;common&#45;tools&#45;&gt;samba&#45;common&#45;libs -->
<g id="edge73" class="edge">
<title>samba&#45;common&#45;tools&#45;&gt;samba&#45;common&#45;libs</title>
<path fill="none" stroke="#444444" stroke-opacity="0.333333" d="M1778.6113,-537.2134C1784.0883,-524.3352 1791.5062,-506.8936 1797.6885,-492.3573"/>
<polygon fill="#444444" fill-opacity="0.333333" stroke="#444444" stroke-opacity="0.333333" points="1801.0391,-493.4217 1801.7321,-482.8496 1794.5975,-490.6821 1801.0391,-493.4217"/>
</g>
<!-- samba&#45;&gt;libtalloc -->
<g id="edge74" class="edge">
<title>samba&#45;&gt;libtalloc</title>
<path fill="none" stroke="#444444" stroke-opacity="0.333333" d="M1741.5515,-749.9499C1725.7153,-744.1507 1706.8991,-737.2603 1689.2879,-730.8112"/>
<polygon fill="#444444" fill-opacity="0.333333" stroke="#444444" stroke-opacity="0.333333" points="1690.2482,-727.4356 1679.6545,-727.2834 1687.8411,-734.0087 1690.2482,-727.4356"/>
</g>
<!-- samba&#45;&gt;libtdb -->
<g id="edge75" class="edge">
<title>samba&#45;&gt;libtdb</title>
<path fill="none" stroke="#444444" stroke-opacity="0.333333" d="M1767.3569,-745.3723C1738.3711,-700.1337 1663.3164,-582.9944 1629.3041,-529.9108"/>
<polygon fill="#444444" fill-opacity="0.333333" stroke="#444444" stroke-opacity="0.333333" points="1632.1721,-527.8992 1623.8301,-521.3674 1626.2781,-531.6756 1632.1721,-527.8992"/>
</g>
<!-- samba&#45;&gt;libtevent -->
<g id="edge76" class="edge">
<title>samba&#45;&gt;libtevent</title>
<path fill="none" stroke="#444444" stroke-opacity="0.333333" d="M1741.5365,-761.7815C1714.118,-760.3811 1676.1641,-758.4426 1643.3429,-756.7663"/>
<polygon fill="#444444" fill-opacity="0.333333" stroke="#444444" stroke-opacity="0.333333" points="1643.5047,-753.2701 1633.3391,-756.2554 1643.1475,-760.261 1643.5047,-753.2701"/>
</g>
<!-- samba&#45;&gt;samba&#45;client&#45;libs -->
<g id="edge77" class="edge">
<title>samba&#45;&gt;samba&#45;client&#45;libs</title>
<path fill="none" stroke="#444444" stroke-opacity="0.333333" d="M1780.9986,-745.6577C1782.6608,-729.8623 1785.1037,-706.6487 1787.0252,-688.3885"/>
<polygon fill="#444444" fill-opacity="0.333333" stroke="#444444" stroke-opacity="0.333333" points="1790.5207,-688.6145 1788.0865,-678.303 1783.5591,-687.8818 1790.5207,-688.6145"/>
</g>
<!-- samba&#45;&gt;libwbclient -->
<g id="edge78" class="edge">
<title>samba&#45;&gt;libwbclient</title>
<path fill="none" stroke="#444444" stroke-opacity="0.333333" d="M1800.3704,-745.5904C1839.5509,-712.232 1923.1733,-641.0359 1967.6196,-603.1942"/>
<polygon fill="#444444" fill-opacity="0.333333" stroke="#444444" stroke-opacity="0.333333" points="1970.0981,-605.6808 1975.4433,-596.5331 1965.5602,-600.3509 1970.0981,-605.6808"/>
</g>
<!-- samba&#45;&gt;samba&#45;libs -->
<g id="edge79" class="edge">
<title>samba&#45;&gt;samba&#45;libs</title>
<path fill="none" stroke="#444444" stroke-opacity="0.333333" d="M1756.0071,-745.5574C1727.3849,-723.0707 1678.4945,-684.6608 1646.5939,-659.5985"/>
<polygon fill="#444444" fill-opacity="0.333333" stroke="#444444" stroke-opacity="0.333333" points="1648.5012,-656.646 1638.4754,-653.2203 1644.1767,-662.1504 1648.5012,-656.646"/>
</g>
<!-- samba&#45;&gt;samba&#45;common&#45;libs -->
<g id="edge80" class="edge">
<title>samba&#45;&gt;samba&#45;common&#45;libs</title>
<path fill="none" stroke="#444444" stroke-opacity="0.333333" d="M1780.9498,-745.4536C1786.0649,-694.9984 1800.4255,-553.3447 1806.5618,-492.8157"/>
<polygon fill="#444444" fill-opacity="0.333333" stroke="#444444" stroke-opacity="0.333333" points="1810.0479,-493.1296 1807.5744,-482.8276 1803.0836,-492.4235 1810.0479,-493.1296"/>
</g>
<!-- samba&#45;&gt;samba&#45;common&#45;tools -->
<g id="edge81" class="edge">
<title>samba&#45;&gt;samba&#45;common&#45;tools</title>
<path fill="none" stroke="#444444" stroke-opacity="0.333333" d="M1778.3779,-745.5948C1776.9309,-709.3095 1773.6662,-627.45 1771.9321,-583.9683"/>
<polygon fill="#444444" fill-opacity="0.333333" stroke="#444444" stroke-opacity="0.333333" points="1775.4221,-583.6441 1771.5263,-573.7916 1768.4277,-583.9231 1775.4221,-583.6441"/>
</g>
<!-- samba&#45;&gt;libaio -->
<g id="edge82" class="edge">
<title>samba&#45;&gt;libaio</title>
<path fill="none" stroke="#444444" stroke-opacity="0.333333" d="M1794.1917,-781.9207C1840.9313,-838.3514 1983.4249,-1010.3894 2038.1129,-1076.4164"/>
<polygon fill="#444444" fill-opacity="0.333333" stroke="#444444" stroke-opacity="0.333333" points="2035.5594,-1078.8204 2044.6337,-1084.2892 2040.9504,-1074.3552 2035.5594,-1078.8204"/>
</g>
<!-- samba&#45;python&#45;&gt;libldb -->
<g id="edge83" class="edge">
<title>samba&#45;python&#45;&gt;libldb</title>
<path fill="none" stroke="#444444" stroke-opacity="0.333333" d="M1414.3906,-670.4891C1433.5201,-651.1775 1464.0129,-620.3944 1485.6187,-598.5829"/>
<polygon fill="#444444" fill-opacity="0.333333" stroke="#444444" stroke-opacity="0.333333" points="1488.3062,-600.8432 1492.8571,-591.2756 1483.333,-595.917 1488.3062,-600.8432"/>
</g>
<!-- samba&#45;python&#45;&gt;libtalloc -->
<g id="edge84" class="edge">
<title>samba&#45;python&#45;&gt;libtalloc</title>
<path fill="none" stroke="#444444" stroke-opacity="0.333333" d="M1472.0853,-695.2292C1500.7214,-697.7596 1533.1533,-700.6255 1561.1659,-703.1009"/>
<polygon fill="#444444" fill-opacity="0.333333" stroke="#444444" stroke-opacity="0.333333" points="1561.0018,-706.5999 1571.2711,-703.9938 1561.6181,-699.6271 1561.0018,-706.5999"/>
</g>
<!-- samba&#45;python&#45;&gt;libtevent -->
<g id="edge85" class="edge">
<title>samba&#45;python&#45;&gt;libtevent</title>
<path fill="none" stroke="#444444" stroke-opacity="0.333333" d="M1446.0272,-706.5698C1467.5155,-714.388 1492.8497,-723.6055 1515.3033,-731.7749"/>
<polygon fill="#444444" fill-opacity="0.333333" stroke="#444444" stroke-opacity="0.333333" points="1514.1363,-735.0747 1524.7303,-735.2048 1516.5297,-728.4966 1514.1363,-735.0747"/>
</g>
<!-- samba&#45;python&#45;&gt;samba&#45;client&#45;libs -->
<g id="edge86" class="edge">
<title>samba&#45;python&#45;&gt;samba&#45;client&#45;libs</title>
<path fill="none" stroke="#444444" stroke-opacity="0.333333" d="M1472.3708,-683.0684C1530.6823,-678.8555 1612.122,-672.9715 1677.9371,-668.2164"/>
<polygon fill="#444444" fill-opacity="0.333333" stroke="#444444" stroke-opacity="0.333333" points="1678.2224,-671.705 1687.9441,-667.4934 1677.7179,-664.7232 1678.2224,-671.705"/>
</g>
<!-- samba&#45;python&#45;&gt;samba&#45;dc&#45;libs -->
<g id="edge87" class="edge">
<title>samba&#45;python&#45;&gt;samba&#45;dc&#45;libs</title>
<path fill="none" stroke="#444444" stroke-opacity="0.333333" d="M1405.8803,-670.4606C1427.6082,-628.5596 1481.49,-524.6515 1507.2059,-475.0597"/>
<polygon fill="#444444" fill-opacity="0.333333" stroke="#444444" stroke-opacity="0.333333" points="1510.3145,-476.6679 1511.8109,-466.1793 1504.1003,-473.4455 1510.3145,-476.6679"/>
</g>
<!-- samba&#45;python&#45;&gt;samba&#45;libs -->
<g id="edge88" class="edge">
<title>samba&#45;python&#45;&gt;samba&#45;libs</title>
<path fill="none" stroke="#444444" stroke-opacity="0.333333" d="M1470.6434,-670.478C1493.343,-664.9451 1518.3134,-658.8587 1541.0344,-653.3206"/>
<polygon fill="#444444" fill-opacity="0.333333" stroke="#444444" stroke-opacity="0.333333" points="1542.0721,-656.6702 1550.9588,-650.9015 1540.4144,-649.8693 1542.0721,-656.6702"/>
</g>
<!-- samba&#45;python&#45;&gt;python2&#45;libs -->
<g id="edge90" class="edge">
<title>samba&#45;python&#45;&gt;python2&#45;libs</title>
<path fill="none" stroke="#444444" stroke-opacity="0.333333" d="M1320.7593,-672.3209C1307.8056,-669.5453 1294.266,-666.6442 1281.0757,-663.8179"/>
<polygon fill="#444444" fill-opacity="0.333333" stroke="#444444" stroke-opacity="0.333333" points="1281.5839,-660.3474 1271.0725,-661.6745 1280.1172,-667.192 1281.5839,-660.3474"/>
</g>
<!-- samba&#45;python&#45;&gt;python2&#45;talloc -->
<g id="edge94" class="edge">
<title>samba&#45;python&#45;&gt;python2&#45;talloc</title>
<path fill="none" stroke="#444444" stroke-opacity="0.333333" d="M1381.7351,-706.8824C1369.2528,-722.3805 1351.2156,-744.7758 1337.1915,-762.1883"/>
<polygon fill="#444444" fill-opacity="0.333333" stroke="#444444" stroke-opacity="0.333333" points="1334.2181,-760.3003 1330.6713,-770.2838 1339.6698,-764.6911 1334.2181,-760.3003"/>
</g>
<!-- samba&#45;python&#45;&gt;python2 -->
<g id="edge89" class="edge">
<title>samba&#45;python&#45;&gt;python2</title>
<path fill="none" stroke="#444444" stroke-opacity="0.333333" d="M1327.4172,-706.6024C1258.6564,-724.5706 1154.3073,-751.8386 1089.6552,-768.7332"/>
<polygon fill="#444444" fill-opacity="0.333333" stroke="#444444" stroke-opacity="0.333333" points="1088.4215,-765.438 1079.6313,-771.3526 1090.1913,-772.2105 1088.4215,-765.438"/>
</g>
<!-- samba&#45;python&#45;&gt;python2&#45;dns -->
<g id="edge91" class="edge">
<title>samba&#45;python&#45;&gt;python2&#45;dns</title>
<path fill="none" stroke="#444444" stroke-opacity="0.333333" d="M1320.7516,-679.0945C1240.5475,-669.0827 1114.4754,-653.3454 1032.7565,-643.1446"/>
<polygon fill="#444444" fill-opacity="0.333333" stroke="#444444" stroke-opacity="0.333333" points="1032.8782,-639.6327 1022.5217,-641.867 1032.0111,-646.5788 1032.8782,-639.6327"/>
</g>
<!-- samba&#45;python&#45;&gt;python2&#45;ldb -->
<g id="edge92" class="edge">
<title>samba&#45;python&#45;&gt;python2&#45;ldb</title>
<path fill="none" stroke="#444444" stroke-opacity="0.333333" d="M1385.8251,-670.3427C1379.4732,-659.5088 1371.2962,-645.562 1364.2065,-633.4697"/>
<polygon fill="#444444" fill-opacity="0.333333" stroke="#444444" stroke-opacity="0.333333" points="1367.1223,-631.5228 1359.0451,-624.6664 1361.0836,-635.0633 1367.1223,-631.5228"/>
</g>
<!-- samba&#45;python&#45;&gt;python2&#45;tdb -->
<g id="edge93" class="edge">
<title>samba&#45;python&#45;&gt;python2&#45;tdb</title>
<path fill="none" stroke="#444444" stroke-opacity="0.333333" d="M1378.9497,-670.294C1347.8954,-637.9911 1283.2109,-570.7057 1247.8234,-533.8954"/>
<polygon fill="#444444" fill-opacity="0.333333" stroke="#444444" stroke-opacity="0.333333" points="1250.193,-531.31 1240.7394,-526.5266 1245.1467,-536.1613 1250.193,-531.31"/>
</g>
<!-- samba&#45;python&#45;&gt;python2&#45;tevent -->
<g id="edge95" class="edge">
<title>samba&#45;python&#45;&gt;python2&#45;tevent</title>
<path fill="none" stroke="#444444" stroke-opacity="0.333333" d="M1389.1243,-706.8453C1375.3142,-741.1012 1345.4856,-815.0904 1329.2232,-855.4291"/>
<polygon fill="#444444" fill-opacity="0.333333" stroke="#444444" stroke-opacity="0.333333" points="1325.8919,-854.3317 1325.399,-864.915 1332.3842,-856.949 1325.8919,-854.3317"/>
</g>
<!-- samba&#45;python&#45;&gt;samba -->
<g id="edge96" class="edge">
<title>samba&#45;python&#45;&gt;samba</title>
<path fill="none" stroke="#444444" stroke-opacity="0.333333" d="M1472.0894,-703.3972C1549.1949,-718.5422 1666.4731,-741.5779 1731.4915,-754.3488"/>
<polygon fill="#444444" fill-opacity="0.333333" stroke="#444444" stroke-opacity="0.333333" points="1730.9766,-757.8144 1741.4637,-756.3075 1732.3258,-750.9457 1730.9766,-757.8144"/>
</g>
<!-- samba&#45;winbind&#45;&gt;libtalloc -->
<g id="edge97" class="edge">
<title>samba&#45;winbind&#45;&gt;libtalloc</title>
<path fill="none" stroke="#444444" stroke-opacity="0.333333" d="M1801.3601,-625.503C1766.4076,-642.6068 1714.0198,-668.2424 1676.4345,-686.6344"/>
<polygon fill="#444444" fill-opacity="0.333333" stroke="#444444" stroke-opacity="0.333333" points="1674.6613,-683.6055 1667.2175,-691.1447 1677.7381,-689.8931 1674.6613,-683.6055"/>
</g>
<!-- samba&#45;winbind&#45;&gt;libtdb -->
<g id="edge98" class="edge">
<title>samba&#45;winbind&#45;&gt;libtdb</title>
<path fill="none" stroke="#444444" stroke-opacity="0.333333" d="M1799.4053,-589.2452C1760.9131,-571.5337 1702.0958,-544.47 1660.6607,-525.4043"/>
<polygon fill="#444444" fill-opacity="0.333333" stroke="#444444" stroke-opacity="0.333333" points="1662.1215,-522.2238 1651.574,-521.2233 1659.1954,-528.5829 1662.1215,-522.2238"/>
</g>
<!-- samba&#45;winbind&#45;&gt;libtevent -->
<g id="edge99" class="edge">
<title>samba&#45;winbind&#45;&gt;libtevent</title>
<path fill="none" stroke="#444444" stroke-opacity="0.333333" d="M1805.9265,-625.324C1757.9799,-651.8026 1668.5652,-701.1819 1615.9594,-730.2336"/>
<polygon fill="#444444" fill-opacity="0.333333" stroke="#444444" stroke-opacity="0.333333" points="1613.9606,-727.3391 1606.8988,-735.2373 1617.3447,-733.4667 1613.9606,-727.3391"/>
</g>
<!-- samba&#45;winbind&#45;&gt;samba&#45;client&#45;libs -->
<g id="edge100" class="edge">
<title>samba&#45;winbind&#45;&gt;samba&#45;client&#45;libs</title>
<path fill="none" stroke="#444444" stroke-opacity="0.333333" d="M1821.8746,-625.4645C1819.1718,-628.4032 1816.33,-631.4929 1813.5027,-634.5669"/>
<polygon fill="#444444" fill-opacity="0.333333" stroke="#444444" stroke-opacity="0.333333" points="1810.7851,-632.3514 1806.5916,-642.081 1815.9373,-637.0901 1810.7851,-632.3514"/>
</g>
<!-- samba&#45;winbind&#45;&gt;samba&#45;libs -->
<g id="edge101" class="edge">
<title>samba&#45;winbind&#45;&gt;samba&#45;libs</title>
<path fill="none" stroke="#444444" stroke-opacity="0.333333" d="M1758.0558,-617.3489C1735.9673,-620.1102 1712.1169,-623.0918 1690.3616,-625.8115"/>
<polygon fill="#444444" fill-opacity="0.333333" stroke="#444444" stroke-opacity="0.333333" points="1689.6869,-622.3685 1680.1983,-627.082 1690.5552,-629.3144 1689.6869,-622.3685"/>
</g>
<!-- samba&#45;winbind&#45;&gt;samba&#45;common&#45;libs -->
<g id="edge102" class="edge">
<title>samba&#45;winbind&#45;&gt;samba&#45;common&#45;libs</title>
<path fill="none" stroke="#444444" stroke-opacity="0.333333" d="M1834.9018,-589.2373C1829.9267,-564.9651 1821.0278,-521.5494 1815.1686,-492.9638"/>
<polygon fill="#444444" fill-opacity="0.333333" stroke="#444444" stroke-opacity="0.333333" points="1818.5972,-492.2597 1813.1604,-483.1661 1811.7397,-493.6653 1818.5972,-492.2597"/>
</g>
<!-- samba&#45;winbind&#45;&gt;samba&#45;common&#45;tools -->
<g id="edge103" class="edge">
<title>samba&#45;winbind&#45;&gt;samba&#45;common&#45;tools</title>
<path fill="none" stroke="#444444" stroke-opacity="0.333333" d="M1814.8869,-589.1978C1810.987,-586.2241 1806.8889,-583.0992 1802.8268,-580.0016"/>
<polygon fill="#444444" fill-opacity="0.333333" stroke="#444444" stroke-opacity="0.333333" points="1804.6886,-577.0198 1794.6144,-573.7393 1800.444,-582.5862 1804.6886,-577.0198"/>
</g>
<!-- samba&#45;winbind&#45;&gt;samba&#45;winbind&#45;modules -->
<g id="edge104" class="edge">
<title>samba&#45;winbind&#45;&gt;samba&#45;winbind&#45;modules</title>
<path fill="none" stroke="#444444" stroke-opacity="0.333333" d="M1852.9414,-625.3943C1871.9943,-649.4597 1905.7811,-692.1352 1927.5982,-719.6919"/>
<polygon fill="#444444" fill-opacity="0.333333" stroke="#444444" stroke-opacity="0.333333" points="1925.0037,-722.0535 1933.9551,-727.7213 1930.4919,-717.7084 1925.0037,-722.0535"/>
</g>
<!-- samba&#45;winbind&#45;modules&#45;&gt;libtalloc -->
<g id="edge105" class="edge">
<title>samba&#45;winbind&#45;modules&#45;&gt;libtalloc</title>
<path fill="none" stroke="#444444" stroke-opacity="0.333333" d="M1824.4423,-731.573C1782.0404,-726.6888 1736.1285,-721.4002 1699.6025,-717.1929"/>
<polygon fill="#444444" fill-opacity="0.333333" stroke="#444444" stroke-opacity="0.333333" points="1699.8948,-713.7035 1689.5599,-716.0361 1699.0937,-720.6575 1699.8948,-713.7035"/>
</g>
<!-- samba&#45;winbind&#45;modules&#45;&gt;samba&#45;client&#45;libs -->
<g id="edge106" class="edge">
<title>samba&#45;winbind&#45;modules&#45;&gt;samba&#45;client&#45;libs</title>
<path fill="none" stroke="#444444" stroke-opacity="0.333333" d="M1914.7286,-727.661C1890.6167,-714.6043 1857.9442,-696.912 1832.0876,-682.9106"/>
<polygon fill="#444444" fill-opacity="0.333333" stroke="#444444" stroke-opacity="0.333333" points="1833.7113,-679.8097 1823.2512,-678.1256 1830.3781,-685.9651 1833.7113,-679.8097"/>
</g>
<!-- samba&#45;winbind&#45;modules&#45;&gt;libwbclient -->
<g id="edge107" class="edge">
<title>samba&#45;winbind&#45;modules&#45;&gt;libwbclient</title>
<path fill="none" stroke="#444444" stroke-opacity="0.333333" d="M1953.5827,-727.5968C1962.0374,-698.3991 1978.6703,-640.9592 1988.655,-606.478"/>
<polygon fill="#444444" fill-opacity="0.333333" stroke="#444444" stroke-opacity="0.333333" points="1992.1042,-607.1496 1991.5238,-596.5707 1985.3804,-605.2026 1992.1042,-607.1496"/>
</g>
<!-- samba&#45;winbind&#45;modules&#45;&gt;samba&#45;libs -->
<g id="edge108" class="edge">
<title>samba&#45;winbind&#45;modules&#45;&gt;samba&#45;libs</title>
<path fill="none" stroke="#444444" stroke-opacity="0.333333" d="M1894.0892,-727.8126C1835.3457,-708.2779 1741.6853,-677.1319 1679.4038,-656.4207"/>
<polygon fill="#444444" fill-opacity="0.333333" stroke="#444444" stroke-opacity="0.333333" points="1680.2811,-653.024 1669.6876,-653.1896 1678.0722,-659.6664 1680.2811,-653.024"/>
</g>
<!-- cups&#45;libs -->
<g id="node1" class="node">
<title>cups&#45;libs</title>
<text text-anchor="middle" x="2336" y="-625.15" font-family="monospace" font-size="14.00" fill="#000000">cups&#45;libs</text>
</g>
<!-- avahi&#45;libs -->
<g id="node2" class="node">
<title>avahi&#45;libs</title>
<text text-anchor="middle" x="2663.7" y="-609.52" font-family="monospace" font-size="14.00" fill="#000000">avahi&#45;libs</text>
</g>
<!-- libldb -->
<g id="node3" class="node">
<title>libldb</title>
<text text-anchor="middle" x="1511" y="-569.26" font-family="monospace" font-size="14.00" fill="#000000">libldb</text>
</g>
<!-- libtalloc -->
<g id="node4" class="node">
<title>libtalloc</title>
<text text-anchor="middle" x="1630.3" y="-705.51" font-family="monospace" font-size="14.00" fill="#000000">libtalloc</text>
</g>
<!-- libtdb -->
<g id="node5" class="node">
<title>libtdb</title>
<text text-anchor="middle" x="1612.1" y="-499.36" font-family="monospace" font-size="14.00" fill="#000000">libtdb</text>
</g>
<!-- libtevent -->
<g id="node6" class="node">
<title>libtevent</title>
<text text-anchor="middle" x="1574.3" y="-749.54" font-family="monospace" font-size="14.00" fill="#000000">libtevent</text>
</g>
<!-- libsmbclient -->
<g id="node7" class="node">
<title>libsmbclient</title>
<text text-anchor="middle" x="1751.6" y="-960.99" font-family="monospace" font-size="14.00" fill="#000000">libsmbclient</text>
</g>
<!-- samba&#45;client&#45;libs -->
<g id="node8" class="node">
<title>samba&#45;client&#45;libs</title>
<text text-anchor="middle" x="1790" y="-656.42" font-family="monospace" font-size="14.00" fill="#000000">samba&#45;client&#45;libs</text>
</g>
<!-- libwbclient -->
<g id="node9" class="node">
<title>libwbclient</title>
<text text-anchor="middle" x="1996.8" y="-574.65" font-family="monospace" font-size="14.00" fill="#000000">libwbclient</text>
</g>
<!-- samba&#45;dc&#45;libs -->
<g id="node10" class="node">
<title>samba&#45;dc&#45;libs</title>
<text text-anchor="middle" x="1521.3" y="-444.18" font-family="monospace" font-size="14.00" fill="#000000">samba&#45;dc&#45;libs</text>
</g>
<!-- samba&#45;libs -->
<g id="node11" class="node">
<title>samba&#45;libs</title>
<text text-anchor="middle" x="1615.5" y="-631.47" font-family="monospace" font-size="14.00" fill="#000000">samba&#45;libs</text>
</g>
<!-- python2&#45;libs -->
<g id="node12" class="node">
<title>python2&#45;libs</title>
<text text-anchor="middle" x="1195.4" y="-641.76" font-family="monospace" font-size="14.00" fill="#000000">python2&#45;libs</text>
</g>
<!-- samba&#45;common&#45;libs -->
<g id="node13" class="node">
<title>samba&#45;common&#45;libs</title>
<text text-anchor="middle" x="1809.4" y="-461.12" font-family="monospace" font-size="14.00" fill="#000000">samba&#45;common&#45;libs</text>
</g>
<!-- libkadm5 -->
<g id="node14" class="node">
<title>libkadm5</title>
<text text-anchor="middle" x="1513.6" y="-14.3" font-family="monospace" font-size="14.00" fill="#000000">libkadm5</text>
</g>
<!-- python2&#45;talloc -->
<g id="node15" class="node">
<title>python2&#45;talloc</title>
<text text-anchor="middle" x="1316" y="-784.8" font-family="monospace" font-size="14.00" fill="#000000">python2&#45;talloc</text>
</g>
<!-- libtomcrypt -->
<g id="node16" class="node">
<title>libtomcrypt</title>
<text text-anchor="middle" x="322.23" y="-517.85" font-family="monospace" font-size="14.00" fill="#000000">libtomcrypt</text>
</g>
<!-- libtommath -->
<g id="node17" class="node">
<title>libtommath</title>
<text text-anchor="middle" x="64.344" y="-465.09" font-family="monospace" font-size="14.00" fill="#000000">libtommath</text>
</g>
<!-- python2&#45;crypto -->
<g id="node18" class="node">
<title>python2&#45;crypto</title>
<text text-anchor="middle" x="742.89" y="-607.49" font-family="monospace" font-size="14.00" fill="#000000">python2&#45;crypto</text>
</g>
<!-- python2 -->
<g id="node19" class="node">
<title>python2</title>
<text text-anchor="middle" x="1031.5" y="-780.23" font-family="monospace" font-size="14.00" fill="#000000">python2</text>
</g>
<!-- python2&#45;pip -->
<g id="node20" class="node">
<title>python2&#45;pip</title>
<text text-anchor="middle" x="675.65" y="-956.56" font-family="monospace" font-size="14.00" fill="#000000">python2&#45;pip</text>
</g>
<!-- python2&#45;setuptools -->
<g id="node21" class="node">
<title>python2&#45;setuptools</title>
<text text-anchor="middle" x="759.33" y="-1072" font-family="monospace" font-size="14.00" fill="#000000">python2&#45;setuptools</text>
</g>
<!-- python2&#45;dns -->
<g id="node22" class="node">
<title>python2&#45;dns</title>
<text text-anchor="middle" x="952.93" y="-629.48" font-family="monospace" font-size="14.00" fill="#000000">python2&#45;dns</text>
</g>
<!-- python2&#45;ldb -->
<g id="node23" class="node">
<title>python2&#45;ldb</title>
<text text-anchor="middle" x="1348.4" y="-602.81" font-family="monospace" font-size="14.00" fill="#000000">python2&#45;ldb</text>
</g>
<!-- python2&#45;tdb -->
<g id="node24" class="node">
<title>python2&#45;tdb</title>
<text text-anchor="middle" x="1223.4" y="-504.79" font-family="monospace" font-size="14.00" fill="#000000">python2&#45;tdb</text>
</g>
<!-- python2&#45;tevent -->
<g id="node25" class="node">
<title>python2&#45;tevent</title>
<text text-anchor="middle" x="1318.1" y="-879.32" font-family="monospace" font-size="14.00" fill="#000000">python2&#45;tevent</text>
</g>
<!-- samba&#45;common&#45;tools -->
<g id="node26" class="node">
<title>samba&#45;common&#45;tools</title>
<text text-anchor="middle" x="1770.8" y="-551.88" font-family="monospace" font-size="14.00" fill="#000000">samba&#45;common&#45;tools</text>
</g>
<!-- samba -->
<g id="node27" class="node">
<title>samba</title>
<text text-anchor="middle" x="1779.1" y="-760" font-family="monospace" font-size="14.00" fill="#000000">samba</text>
</g>
<!-- libaio -->
<g id="node28" class="node">
<title>libaio</title>
<text text-anchor="middle" x="2059.8" y="-1098.9" font-family="monospace" font-size="14.00" fill="#000000">libaio</text>
</g>
<!-- samba&#45;python -->
<g id="node29" class="node">
<title>samba&#45;python</title>
<text text-anchor="middle" x="1396.5" y="-684.85" font-family="monospace" font-size="14.00" fill="#000000">samba&#45;python</text>
</g>
<!-- samba&#45;winbind -->
<g id="node30" class="node">
<title>samba&#45;winbind</title>
<text text-anchor="middle" x="1838.6" y="-603.58" font-family="monospace" font-size="14.00" fill="#000000">samba&#45;winbind</text>
</g>
<!-- samba&#45;winbind&#45;modules -->
<g id="node31" class="node">
<title>samba&#45;winbind&#45;modules</title>
<text text-anchor="middle" x="1948.3" y="-742.14" font-family="monospace" font-size="14.00" fill="#000000">samba&#45;winbind&#45;modules</text>
</g>
</g>
</svg>
