<?xml version="1.0" encoding="UTF-8" standalone="no"?>
<!DOCTYPE svg PUBLIC "-//W3C//DTD SVG 1.1//EN"
 "http://www.w3.org/Graphics/SVG/1.1/DTD/svg11.dtd">
<!-- Generated by graphviz version 2.40.1 (20161225.0304)
 -->
<!-- Title: G Pages: 1 -->
<svg width="1504pt" height="1112pt"
 viewBox="0.00 0.00 1504.07 1111.80" xmlns="http://www.w3.org/2000/svg" xmlns:xlink="http://www.w3.org/1999/xlink">
<g id="graph0" class="graph" transform="scale(1 1) rotate(0) translate(54.4968 1016.6942)">
<title>G</title>
<polygon fill="#dae2ff" stroke="transparent" points="-54.4968,95.1097 -54.4968,-1016.6942 1449.5734,-1016.6942 1449.5734,95.1097 -54.4968,95.1097"/>
<polygon fill="#cbc5d1" stroke="#cbc5d1" points="277.6596,-1001.025 223.7657,-936.3538 221.0436,-933.2939 214.1595,-911.3059 208.5111,-880.2297 212.5509,-876.8683 214.3837,-875.1555 223.4539,-867.5674 226.0157,-865.5502 240.4446,-855.5417 243.0629,-853.8544 250.9261,-849.1652 258.8478,-844.8281 266.9952,-841.16 274.4926,-838.1483 280.6946,-835.9611 295.6334,-832.1397 323.4987,-826.3944 336.8842,-822.3531 339.588,-821.2814 342.0735,-820.1747 357.369,-812.5981 365.2436,-808.327 366.2486,-808.3582 369.0703,-808.1497 370.833,-808.0824 385.5695,-807.003 395.4546,-805.5877 404.6862,-803.9443 422.3325,-798.9503 453.3628,-788.0252 457.3251,-788.6098 471.7644,-791.1351 519.5591,-777.7122 529.2909,-774.7009 540.061,-770.7539 550.0881,-766.5046 561.2499,-761.4556 564.819,-764.96 577.1756,-775.4842 579.6558,-777.4886 646.2113,-828.4521 691.6027,-821.437 695.7388,-820.9702 707.2316,-820.1509 708.2427,-820.121 712.0977,-820.328 714.9123,-820.3535 721.2326,-820.1279 726.1147,-820.362 731.2421,-820.3779 732.0154,-820.4126 737.5115,-820.4132 740.4995,-820.5383 740.9568,-820.537 743.8732,-820.3983 749.4186,-820.3659 752.7023,-820.2 756.5462,-820.3261 768.417,-821.2109 769.7073,-821.3606 785.3788,-823.8328 836.0609,-881.1174 856.334,-902.435 853.7634,-907.5968 828.8036,-966.1822 763.7029,-1001.1458 755.3104,-1001.5562 750.9313,-1000.7347 736.9969,-998.5894 735.0762,-998.3591 724.5945,-997.808 716.6777,-997.6588 670.9847,-999.8804 646.2113,-989.9177 646.2113,-920.7658 580.1233,-903.0073 578.1128,-900.4843 573.85,-898.8795 572.8663,-898.0467 569.1368,-898.0467 568.7912,-897.9335 568.7912,-897.9335 569.1368,-898.0467 572.8663,-898.0467 573.85,-898.8795 578.1128,-900.4843 580.1233,-903.0073 646.2113,-920.7658 646.2113,-989.9177 607.5362,-1000.5756 579.2444,-998.2648 578.5411,-998.23 565.0175,-997.9947 558.8323,-998.2852 543.1629,-999.5264 539.4341,-1000.0602 530.6957,-1001.8761 523.6686,-1001.1276 490.0401,-999.6468 471.7644,-992.5206 471.7644,-898 471.7644,-898 487.7355,-898 487.7355,-898 471.7644,-898 471.7644,-898 471.7644,-992.5206 418.997,-999.4118 409.8797,-1001.1733 408.8379,-950.9636 411.1344,-897.9727 411.7063,-897.7908 414.4269,-897.7908 414.4269,-897.7908 411.7063,-897.7908 411.1344,-897.9727 408.8379,-950.9636 409.8797,-1001.1733 394.8952,-1005.0119 387.6269,-1007.327 381.7746,-1009.374 373.7341,-1012.6942 365.4128,-1010.9288 363.6894,-1010.6119 359.6829,-1010.0982 346.8248,-1008.8068 336.9992,-1008.369 328.668,-1008.2307 314.2603,-1008.7972 303.1685,-1009.5422 277.6596,-1001.025 277.6596,-1001.025"/>
<polygon fill="#ccebc5" stroke="#ccebc5" points="273.0185,-762.3324 273.1561,-762.3753 274.4926,-838.1483 280.6946,-835.9611 295.6334,-832.1397 323.4987,-826.3944 336.8842,-822.3531 339.588,-821.2814 342.0735,-820.1747 357.369,-812.5981 365.2436,-808.327 353.9366,-790.5478 355.0635,-761.2742 360.1145,-720.0789 357.3602,-717.789 358.9629,-715.3643 364.9633,-711.558 365.2469,-696.2343 362.5867,-695.912 362.3993,-674.2419 358.8762,-674.2419 356.6984,-670.7937 351.1927,-667.5524 351.4569,-651.6191 313.9485,-638.492 316.9853,-635.6906 319.9592,-590.5513 325.3447,-587.25 326.1008,-586.3233 325.0613,-584.9849 319.9059,-581.7404 313.7625,-581.7404 313.7625,-581.7404 319.9059,-581.7404 325.0613,-584.9849 326.1008,-586.3233 325.3447,-587.25 319.9592,-590.5513 316.9853,-635.6906 313.9485,-638.492 351.4569,-651.6191 351.1927,-667.5524 356.6984,-670.7937 358.8762,-674.2419 362.3993,-674.2419 362.5867,-695.912 365.2469,-696.2343 368.3776,-695.9231 373.7584,-696.5418 379.3951,-698.3947 383.3172,-700.5209 392.045,-707.2531 395.2677,-710.3999 395.5537,-710.5749 396.3935,-675.2904 402.0728,-678.8265 406.9644,-678.8265 412.9753,-674.9443 413.615,-726.6215 418.7654,-732.7688 422.2908,-737.492 427.1752,-744.7908 430.3388,-674.1947 435.243,-674.1947 438.3355,-761.3436 440.9613,-765.5374 447.6187,-777.0222 446.7292,-674.3451 447.649,-674.0477 450.8851,-674.0477 451.8795,-672.4359 455.52,-624.9144 455.5342,-622.9 461.0605,-615.9655 471.1925,-617.1402 475.2263,-564.3911 478.4188,-561.0758 480.5117,-560.2748 480.8111,-618.8195 489.3164,-620.7984 489.11,-588.0188 492.9799,-559.1675 492.6454,-559.0609 492.6454,-559.0609 492.9799,-559.1675 489.11,-588.0188 489.3164,-620.7984 500.5103,-624.7011 500.5058,-623.8045 500.5058,-623.8045 500.5103,-624.7011 489.3164,-620.7984 480.8111,-618.8195 480.5117,-560.2748 478.4188,-561.0758 475.2263,-564.3911 471.1925,-617.1402 461.0605,-615.9655 455.5342,-622.9 455.52,-624.9144 451.8795,-672.4359 450.8851,-674.0477 447.649,-674.0477 446.7292,-674.3451 447.6187,-777.0222 440.9613,-765.5374 438.3355,-761.3436 435.243,-674.1947 430.3388,-674.1947 427.1752,-744.7908 422.2908,-737.492 418.7654,-732.7688 413.615,-726.6215 412.9753,-674.9443 406.9644,-678.8265 402.0728,-678.8265 396.3935,-675.2904 395.5537,-710.5749 395.2677,-710.3999 392.045,-707.2531 383.3172,-700.5209 379.3951,-698.3947 373.7584,-696.5418 368.3776,-695.9231 365.2469,-696.2343 364.9633,-711.558 358.9629,-715.3643 357.3602,-717.789 360.1145,-720.0789 355.0635,-761.2742 353.9366,-790.5478 365.2436,-808.327 366.2486,-808.3582 369.0703,-808.1497 370.833,-808.0824 385.5695,-807.003 395.4546,-805.5877 404.6862,-803.9443 422.3325,-798.9503 453.3628,-788.0252 457.3251,-788.6098 471.7644,-791.1351 519.5591,-777.7122 529.2909,-774.7009 540.061,-770.7539 550.0881,-766.5046 561.2499,-761.4556 561.9733,-759.0546 573.6492,-712.3337 579.3319,-686.748 570.2253,-677.3926 572.1094,-610.7344 570.1761,-559.0129 569.8569,-558.9108 565.6643,-558.9108 565.1194,-559.086 563.6067,-614.9279 558.4338,-559.086 558.3638,-559.064 553.4614,-559.064 553.2744,-559.1207 549.0207,-559.1207 541.289,-628.9116 540.9937,-618.3665 540.9937,-618.3665 541.289,-628.9116 549.0207,-559.1207 553.2744,-559.1207 553.4614,-559.064 558.3638,-559.064 558.4338,-559.086 563.6067,-614.9279 565.1194,-559.086 565.6643,-558.9108 569.8569,-558.9108 570.1761,-559.0129 572.1094,-610.7344 570.2253,-677.3926 579.3319,-686.748 585.6538,-682.5731 597.9735,-674.865 619.7323,-644.62 657.6359,-577.9025 668.7947,-560.0236 700.5694,-553.7092 714.4666,-517.9346 722.6158,-488.248 726.9149,-467.89 689.6412,-467.89 669.1716,-461.2944 663.2524,-465.0401 661.6042,-467.5827 661.5294,-467.6397 658.2869,-467.6397 656.6471,-468.1756 653.261,-468.1756 651.3112,-467.5369 647.1264,-467.5369 646.4409,-467.7611 640.493,-467.7611 639.578,-468.0586 635.8286,-468.0586 635.4183,-468.5613 629.6733,-472.1845 623.4707,-472.1845 618.1406,-468.746 617.3452,-467.7044 612.4888,-467.7044 611.628,-467.9825 607.3934,-467.9825 603.6267,-508.7436 600.1429,-467.8432 599.7489,-467.7168 596.459,-467.7168 592.3411,-438.5756 590.6759,-438.4598 593.1208,-409.0477 586.2656,-413.4806 581.5109,-413.4806 574.7898,-409.095 574.7703,-409.0706 570.3895,-409.0706 569.5211,-408.7819 563.3265,-408.7819 563.0037,-408.6775 558.6931,-408.6775 558.4437,-408.5985 558.4437,-408.5985 558.6931,-408.6775 563.0037,-408.6775 563.3265,-408.7819 569.5211,-408.7819 570.3895,-409.0706 574.7703,-409.0706 574.7898,-409.095 581.5109,-413.4806 586.2656,-413.4806 593.1208,-409.0477 590.6759,-438.4598 592.3411,-438.5756 596.459,-467.7168 599.7489,-467.7168 600.1429,-467.8432 603.6267,-508.7436 607.3934,-467.9825 611.628,-467.9825 612.4888,-467.7044 617.3452,-467.7044 618.1406,-468.746 623.4707,-472.1845 629.6733,-472.1845 635.4183,-468.5613 635.8286,-468.0586 635.3467,-467.4459 629.3632,-463.5462 623.578,-463.5462 623.578,-463.5462 629.3632,-463.5462 635.3467,-467.4459 635.8286,-468.0586 639.578,-468.0586 640.493,-467.7611 646.4409,-467.7611 647.1264,-467.5369 651.3112,-467.5369 653.261,-468.1756 656.6471,-468.1756 658.2869,-467.6397 661.5294,-467.6397 661.6042,-467.5827 663.2524,-465.0401 669.1716,-461.2944 689.6412,-467.89 726.9149,-467.89 740.0679,-434.0311 690.6866,-400.4767 674.7411,-355.105 671.2698,-347.5819 641.8342,-290.6417 632.1493,-289.477 625.3483,-288.4804 560.4952,-236.1168 535.0808,-256.89 522.9428,-269.2029 511.7332,-278.8637 504.309,-284.6759 491.4597,-292.7407 487.2456,-294.7228 477.6152,-298.5275 468.8124,-301.316 465.7047,-302.0531 464.973,-302.1698 452.2632,-303.2224 447.4867,-303.2449 433.8821,-305.3889 424.9837,-308.1445 420.6698,-309.8062 411.8463,-313.8786 399.6491,-321.3654 398.4059,-322.2188 392.1847,-326.9654 388.7625,-329.8365 383.6862,-334.4938 376.7631,-341.3953 375.2358,-342.6913 362.8001,-354.0637 348.6363,-369.7785 347.9073,-370.5414 304.8917,-418.0705 298.8303,-417.2112 293.5579,-416.271 284.4931,-414.4883 275.6447,-415.85 275.4879,-416.082 275.3435,-416.2802 209.71,-503.1009 181.5607,-561.5995 168.1947,-587.1399 164.5419,-593.6461 162.791,-613.4014 159.4636,-641.9105 150.4921,-649.09 106.7044,-717.6212 114.3065,-751.6577 117.299,-767.4279 125.1882,-832.2913 127.7587,-835.5557 208.5111,-880.2297 212.5509,-876.8683 214.3837,-875.1555 213.8414,-824.8007 213.8414,-824.8007 214.3837,-875.1555 223.4539,-867.5674 226.0157,-865.5502 240.4446,-855.5417 243.0629,-853.8544 250.9261,-849.1652 258.8478,-844.8281 258.9321,-808.7816 255.743,-765.6771 259.1777,-762.3565 255.6665,-758.8541 250.8159,-757.3322 250.8159,-757.3322 255.6665,-758.8541 259.1777,-762.3565 255.743,-765.6771 258.9321,-808.7816 258.8478,-844.8281 266.9952,-841.16 274.4926,-838.1483 273.1561,-762.3753 273.0185,-762.3324 273.8501,-736.8579 279.8742,-739.4257 284.6626,-740.4037 289.7023,-740.3421 290.7646,-740.0956 296.3919,-740.0344 300.1727,-740.8149 307.6469,-744.0584 307.6469,-744.0584 300.1727,-740.8149 296.3919,-740.0344 290.7646,-740.0956 289.7023,-740.3421 284.6626,-740.4037 279.8742,-739.4257 273.8501,-736.8579 273.0185,-762.3324 273.0185,-762.3324"/>
<polygon fill="#e8cfd0" stroke="#e8cfd0" points="447.074,-293.8204 448.8289,-263.4337 448.8289,-263.4337 447.074,-293.8204 447.4867,-303.2449 452.2632,-303.2224 464.973,-302.1698 465.7047,-302.0531 468.8124,-301.316 477.6152,-298.5275 487.2456,-294.7228 491.4597,-292.7407 504.309,-284.6759 511.7332,-278.8637 522.9428,-269.2029 535.0808,-256.89 560.4952,-236.1168 542.0398,-179.2724 490.5503,-136.3745 464.4386,-126.7131 434.415,-78.4038 413.2456,-61.2502 344.553,-56.5203 331.1104,-55.1464 326.3349,-54.5004 325.1324,-54.2579 310.9706,-50.9227 302.1827,-48.5614 294.0165,-46.0987 293.6633,-45.9806 289.8307,-44.5735 285.9191,-43.0071 280.13,-40.4944 277.3189,-40.0205 273.4292,-39.253 260.7057,-26.7769 224.0428,-2.3349 213.4065,3.6916 198.0044,10.4577 182.7848,10.8828 165.1153,11.9156 165.9701,-63.7554 162.0587,-90.7396 158.9856,-90.7396 158.9856,-90.7396 162.0587,-90.7396 165.9701,-63.7554 165.1153,11.9156 156.3767,12.9579 152.3764,11.7933 135.5601,8.509 128.9563,7.4324 127.546,7.2929 126.5132,7.2235 111.1976,6.681 102.115,6.6496 96.1832,7.0077 88.1662,7.7477 74.7721,9.84 71.3035,10.6027 66.5915,11.7907 57.7712,10.0983 34.2925,6.3362 -1.2831,-11.6279 -36.8764,-59.6426 -39.2599,-70.0369 -40.9642,-75.8112 -50.4968,-122.5366 -41.985,-133.2508 -23.9359,-157.4238 -9.4707,-204.6626 41.5036,-254.4419 42.394,-258.0488 48.4278,-291.4488 86.3516,-343.326 103.5268,-350.9268 139.7322,-358.3478 148.0733,-360.3062 153.1197,-361.6404 160.7807,-364.1239 167.6731,-366.5649 172.1221,-367.5196 192.4923,-373.5893 196.1667,-374.7839 196.2023,-369.3388 198.5245,-297.1241 196.603,-250.7245 197.5814,-249.4446 197.3581,-249.1675 197.3581,-249.1675 197.5814,-249.4446 196.603,-250.7245 198.5245,-297.1241 196.2023,-369.3388 196.1667,-374.7839 213.8014,-381.9826 219.577,-384.6563 221.3124,-385.5076 236.0839,-393.1683 275.6447,-415.85 284.4931,-414.4883 293.5579,-416.271 298.8303,-417.2112 304.8917,-418.0705 347.9073,-370.5414 352.5049,-261.7155 293.3396,-279.4616 293.5482,-260.8033 295.3967,-245.9127 295.6103,-226.8035 236.826,-244.7586 235.7423,-225.4052 232.139,-225.2719 231.1829,-225.0603 232.2251,-207.0702 244.8892,-205.0133 282.9147,-210.4595 278.0938,-204.5089 268.6612,-194.384 268.6612,-194.384 278.0938,-204.5089 282.9147,-210.4595 244.8892,-205.0133 232.2251,-207.0702 231.1829,-225.0603 232.139,-225.2719 235.7423,-225.4052 236.826,-244.7586 295.6103,-226.8035 295.3967,-245.9127 293.5482,-260.8033 293.3396,-279.4616 352.5049,-261.7155 347.9073,-370.5414 348.6363,-369.7785 362.8001,-354.0637 363.0768,-325.8469 370.2767,-256.9452 370.2767,-256.9452 363.0768,-325.8469 362.8001,-354.0637 375.2358,-342.6913 376.7631,-341.3953 383.6862,-334.4938 388.7625,-329.8365 392.1847,-326.9654 398.4059,-322.2188 397.6179,-261.3067 403.6514,-261.3067 408.3729,-258.4009 409.6579,-256.7309 402.9152,-252.2971 397.9121,-252.2971 397.9121,-252.2971 402.9152,-252.2971 409.6579,-256.7309 408.3729,-258.4009 403.6514,-261.3067 397.6179,-261.3067 398.4059,-322.2188 399.6491,-321.3654 411.8463,-313.8786 420.6698,-309.8062 424.9837,-308.1445 433.8821,-305.3889 447.4867,-303.2449 447.074,-293.8204 447.074,-293.8204"/>
<polygon fill="#fbb4ae" stroke="#fbb4ae" points="1344.1648,-110.6364 1345.5422,-133.7735 1434.5341,-109.7843 1444.448,-154.7041 1445.5734,-158.6179 1401.8118,-231.162 1345.5845,-269.7154 1335.4636,-277.0122 1315.1682,-293.8129 1313.6167,-295.2602 1301.4257,-307.0855 1293.3544,-325.2181 1280.4769,-329.8896 1225.6074,-297.1565 1192.0861,-264.2372 1187.5448,-258.9674 1183.6619,-254.8362 1175.4509,-246.8672 1174.7241,-246.2323 1171.6932,-243.8561 1170.6163,-242.9059 1156.2599,-231.6252 1146.3323,-225.9419 1148.9767,-186.2 1154.1672,-187.8382 1154.1672,-187.8382 1148.9767,-186.2 1146.3323,-225.9419 1142.1754,-224.0099 1137.6581,-222.3823 1130.0389,-220.4218 1127.1982,-219.9875 1119.853,-219.6211 1115.369,-219.864 1112.224,-219.7152 1107.1178,-218.954 1100.7393,-217.3461 1092.3395,-214.3619 1089.6991,-213.1603 1084.1414,-210.0543 1074.3463,-203.5562 1063.0632,-193.7573 1061.097,-191.6463 1057.9056,-188.5709 1049.4735,-181.2439 1047.8116,-179.5294 1035.5164,-165.7357 1034.7061,-164.7604 1032.0699,-161.8149 1029.9601,-159.2939 1022.7771,-159.4621 1019.0452,-159.4291 1015.925,-159.3011 955.1234,-158.8106 935.0817,-117.5788 877.9125,-63.7908 878.2865,-22.284 970.0788,-24.059 974.8074,-19.3902 976.7374,-18.6169 977.4354,-18.0041 978.9246,-18.0041 981.4464,-20.4455 988.4255,-22.8989 995.0497,-20.5727 992.4802,-53.3306 1000.1008,-47.0015 1007.7622,-42.4213 1021.9329,-37.4045 1027.5292,-34.1756 1027.9334,-62.0857 1032.927,-62.0857 1033.7261,-62.3462 1038.8646,-62.3462 1039.8644,-62.0151 1044.9694,-62.0151 1046.2692,-111.6188 1051.642,-65.6184 1056.8589,-67.2332 1062.5977,-65.4719 1066.0878,-62.2578 1067.767,-62.2578 1068.2974,-62.0882 1073.7043,-62.0882 1074.2733,-61.9022 1080.0153,-61.9022 1080.1348,-61.9411 1080.1348,-61.9411 1080.0153,-61.9022 1074.2733,-61.9022 1073.7043,-62.0882 1068.2974,-62.0882 1067.767,-62.2578 1066.0878,-62.2578 1062.5977,-65.4719 1056.8589,-67.2332 1051.642,-65.6184 1046.2692,-111.6188 1044.9694,-62.0151 1039.8644,-62.0151 1038.8646,-62.3462 1033.7261,-62.3462 1032.927,-62.0857 1027.9334,-62.0857 1027.5292,-34.1756 1021.9329,-37.4045 1007.7622,-42.4213 1000.1008,-47.0015 992.4802,-53.3306 995.0497,-20.5727 988.4255,-22.8989 981.4464,-20.4455 978.9246,-18.0041 977.4354,-18.0041 976.7374,-18.6169 974.8074,-19.3902 970.0788,-24.059 878.2865,-22.284 878.1273,-15.8596 877.4883,-8.9479 885.3443,36.2487 943.2446,85.0351 966.724,88.7067 971.6954,89.6448 978.3191,91.1097 989.8309,89.0633 998.3873,88.3589 1012.5582,87.6416 1031.5935,87.2833 1089.6827,40.9508 1108.974,38.1948 1126.5499,34.0033 1168.7404,40.4921 1180.1567,43.0273 1191.6611,45.9728 1194.1913,46.7909 1197.1958,47.8657 1197.767,47.634 1214.8715,41.2973 1265.9681,24.2473 1289.403,15.421 1290.0819,15.4699 1293.3496,15.8028 1304.4735,17.2692 1304.8131,-91.59 1308.041,-94.6984 1304.5739,-98.1092 1298.7881,-99.9614 1293.1724,-98.1669 1291.9938,-116.8917 1287.9366,-117.0183 1287.6249,-138.9952 1282.4305,-138.9952 1280.0071,-188.1862 1275.6119,-141.2762 1270.6772,-145.1652 1264.9003,-229.9699 1254.0387,-211.3393 1254.0387,-211.3393 1264.9003,-229.9699 1270.6772,-145.1652 1275.6119,-141.2762 1280.0071,-188.1862 1282.4305,-138.9952 1287.6249,-138.9952 1287.9366,-117.0183 1291.9938,-116.8917 1293.1724,-98.1669 1298.7881,-99.9614 1304.5739,-98.1092 1308.041,-94.6984 1304.8131,-91.59 1304.4735,17.2692 1313.1627,18.6735 1328.9302,22.1621 1329.9509,22.1148 1330.1115,22.046 1399.2977,-5.354 1416.0154,-15.5001 1426.1914,-56.7895 1426.1595,-57.3129 1425.9755,-63.3213 1434.5341,-109.7843 1345.5422,-133.7735 1344.1648,-110.6364 1348.8892,-106.5686 1323.0419,-99.8912 1318.9718,-94.3768 1317.2046,-94.3768 1315.8861,-94.8235 1310.8423,-94.8235 1310.7113,-116.8624 1310.4832,-116.9141 1305.9178,-116.9333 1305.9178,-116.9333 1310.4832,-116.9141 1310.7113,-116.8624 1310.8423,-94.8235 1315.8861,-94.8235 1317.2046,-94.3768 1318.9718,-94.3768 1323.0419,-99.8912 1348.8892,-106.5686 1344.1648,-110.6364 1341.7911,-112.1357 1341.7911,-112.1357 1344.1648,-110.6364 1344.1648,-110.6364"/>
<polygon fill="#fdd9a7" stroke="#fdd9a7" points="1091.0835,-547.5926 1093.2404,-550.0696 1098.1312,-554.6238 1100.6239,-557.373 1102.3496,-559.6057 1102.8552,-560.1626 1106.9706,-564.0411 1117.1044,-574.9558 1131.4133,-594.0842 1136.8816,-603.516 1089.8699,-617.2528 1089.6171,-617.3134 1081.2871,-618.8838 1077.4315,-619.4114 1062.2443,-619.9282 1058.1211,-619.6412 1052.7263,-619.8244 1050.4021,-619.7831 1048.9913,-619.831 1043.9299,-619.7411 1040.142,-619.8694 1038.2596,-620.1293 1025.2775,-619.8969 1024.368,-619.9279 1019.5087,-619.8414 1018.1277,-619.8882 1015.558,-619.7095 1007.1065,-619.9975 1002.0086,-619.6415 1000.3336,-619.6117 998.7738,-619.6647 993.6585,-620.1057 986.7065,-619.9818 985.1727,-620.1137 973.1095,-620.5245 962.2455,-622.0173 959.9982,-622.4408 958.1998,-622.8721 935.4103,-629.5313 934.0576,-627.078 934.0576,-627.078 935.4103,-629.5313 933.7599,-632.3729 936.1027,-674.663 935.2535,-686.5637 935.2296,-689.7542 936.5516,-700.7647 938.954,-744.1333 955.782,-763.6865 985.6454,-795.6645 996.5273,-808.6703 1004.8933,-817.6682 1006.0972,-819.0857 1005.6218,-850.7664 965.1453,-874.7347 881.3511,-894.7761 871.8597,-897.4031 858.4252,-901.6235 856.334,-902.435 836.0609,-881.1174 785.3788,-823.8328 769.7073,-821.3606 771.1838,-748.2382 766.1728,-742.7061 823.7521,-742.3291 823.9423,-741.9636 845.2756,-739.786 848.8761,-695.2037 814.4102,-688.69 811.3874,-688.69 811.3874,-688.69 814.4102,-688.69 848.8761,-695.2037 845.2756,-739.786 823.9423,-741.9636 823.7521,-742.3291 766.1728,-742.7061 771.1838,-748.2382 769.7073,-821.3606 768.417,-821.2109 756.5462,-820.3261 760.0818,-742.777 759.4863,-742.5851 760.5389,-693.6545 762.659,-693.5809 762.5501,-649.058 768.4852,-645.293 768.8039,-644.8977 767.098,-642.6443 763.1534,-640.2817 763.1534,-640.2817 767.098,-642.6443 768.8039,-644.8977 768.4852,-645.293 762.5501,-649.058 762.659,-693.5809 760.5389,-693.6545 759.4863,-742.5851 760.0818,-742.777 756.5462,-820.3261 752.7023,-820.2 749.4186,-820.3659 743.8732,-820.3983 740.9568,-820.537 740.4995,-820.5383 737.5115,-820.4132 732.0154,-820.4126 731.2421,-820.3779 726.1147,-820.362 721.2326,-820.1279 714.9123,-820.3535 712.0977,-820.328 708.2427,-820.121 708.7278,-808.3185 708.7278,-808.3185 708.2427,-820.121 707.2316,-820.1509 695.7388,-820.9702 691.6027,-821.437 646.2113,-828.4521 579.6558,-777.4886 577.1756,-775.4842 564.819,-764.96 561.2499,-761.4556 561.9733,-759.0546 573.6492,-712.3337 579.3319,-686.748 585.6538,-682.5731 597.9735,-674.865 691.2986,-692.7608 694.9316,-693.1976 702.822,-693.584 707.519,-693.4774 707.8042,-686.5611 707.8042,-686.5611 707.519,-693.4774 702.822,-693.584 694.9316,-693.1976 691.2986,-692.7608 597.9735,-674.865 619.7323,-644.62 657.6359,-577.9025 668.7947,-560.0236 700.5694,-553.7092 714.4666,-517.9346 718.2998,-517.4343 776.2051,-513.1124 781.6065,-507.2523 781.9272,-507.3589 788.4237,-507.3589 784.2394,-567.2562 793.98,-562.2357 800.3646,-559.4322 801.2004,-559.1292 810.961,-556.312 810.961,-556.312 801.2004,-559.1292 800.3646,-559.4322 793.98,-562.2357 784.2394,-567.2562 788.4237,-507.3589 781.9272,-507.3589 781.6065,-507.2523 776.2051,-513.1124 718.2998,-517.4343 714.4666,-517.9346 722.6158,-488.248 726.9149,-467.89 740.0679,-434.0311 690.6866,-400.4767 674.7411,-355.105 671.2698,-347.5819 641.8342,-290.6417 710.3242,-255.7441 740.7711,-247.4045 743.0072,-314.7514 748.0572,-352.3235 751.5622,-352.3235 752.9147,-352.776 758.4669,-352.776 758.892,-352.6341 761.4126,-352.6341 764.3361,-355.5094 764.3361,-355.5094 761.4126,-352.6341 758.892,-352.6341 758.4669,-352.776 752.9147,-352.776 751.5622,-352.3235 748.0572,-352.3235 743.0072,-314.7514 740.7711,-247.4045 758.5768,-241.3411 759.8692,-241.3771 772.6022,-240.6379 780.0504,-239.7786 785.137,-239.0456 789.0051,-240.3132 798.9774,-243.2703 869.7613,-259.8398 905.6883,-248.1644 914.0042,-234.7439 955.1234,-158.8106 1015.925,-159.3011 1019.0452,-159.4291 1022.7771,-159.4621 1029.9601,-159.2939 1032.0699,-161.8149 1034.7061,-164.7604 1035.5164,-165.7357 1047.8116,-179.5294 1049.4735,-181.2439 1057.9056,-188.5709 1061.097,-191.6463 1063.0632,-193.7573 1074.3463,-203.5562 1084.1414,-210.0543 1089.6991,-213.1603 1092.3395,-214.3619 1100.7393,-217.3461 1107.1178,-218.954 1112.224,-219.7152 1115.369,-219.864 1119.853,-219.6211 1127.1982,-219.9875 1130.0389,-220.4218 1137.6581,-222.3823 1142.1754,-224.0099 1146.3323,-225.9419 1156.2599,-231.6252 1170.6163,-242.9059 1171.6932,-243.8561 1174.7241,-246.2323 1175.4509,-246.8672 1183.6619,-254.8362 1187.5448,-258.9674 1192.0861,-264.2372 1225.6074,-297.1565 1280.4769,-329.8896 1275.58,-335.048 1272.0627,-338.8959 1227.9614,-389.05 1170.1495,-408.2356 1169.3167,-408.4849 1116.9491,-397.6053 1088.3848,-410.1678 1076.8408,-414.4761 1074.7439,-415.1127 1062.3792,-417.2137 1056.0551,-417.8565 1046.9338,-417.5441 1045.7968,-417.5818 1043.7445,-417.5108 1040.1539,-417.6277 1037.7877,-417.8643 1032.1323,-417.6628 1028.1547,-417.7882 1027.3385,-417.7588 1026.8604,-417.7736 1024.1041,-418.0455 1020.2456,-418.1637 1013.3219,-417.9045 1013.0134,-417.9138 1010.5765,-418.1521 1009.4001,-418.1869 1002.5881,-417.925 998.2842,-418.3417 995.7442,-418.414 992.657,-418.2927 990.5812,-418.0697 989.1028,-418.0109 983.6815,-418.1595 983.0594,-418.2185 983.0494,-418.2188 974.8258,-417.881 973.1882,-417.9243 972.3954,-417.9988 964.4112,-418.2058 959.3466,-418.6774 958.2408,-418.8545 948.3776,-421.1094 937.9249,-424.2021 937.0365,-424.5223 924.5808,-430.7149 919.667,-433.4815 917.2752,-434.9862 903.16,-444.8325 907.2921,-456.7016 915.3986,-489.901 917.3798,-500.5165 917.4894,-500.8866 956.5669,-511.2502 959.2569,-511.7459 963.3796,-512.1773 971.0687,-512.3661 974.6063,-512.7413 983.4487,-512.2427 984.3976,-512.1121 986.1568,-512.1559 992.4561,-512.8261 998.0179,-512.517 1002.7926,-512.6374 1003.4933,-512.5989 1004.9121,-512.6346 1007.4953,-512.4937 1008.231,-512.5123 1011.7515,-512.8865 1017.1796,-513.0259 1022.1878,-512.752 1022.7557,-512.7665 1024.7211,-512.6603 1025.254,-512.5885 1029.9452,-512.3342 1031.6938,-512.3798 1035.8871,-517.079 1035.9642,-517.1509 1036.6373,-517.6718 1046.7832,-527.2837 1049.0577,-528.9086 1057.3145,-533.1093 1061.3627,-534.2655 1068.5618,-534.7805 1075.422,-536.7845 1080.843,-539.5399 1087.9447,-544.6832 1091.0835,-547.5926 1091.0835,-547.5926"/>
<polygon fill="#bbd7d9" stroke="#bbd7d9" points="1438.538,-509.751 1437.4639,-513.1301 1426.1249,-558.1567 1394.9169,-597.7608 1372.4823,-607.7982 1280.7179,-696.7592 1277.1769,-694.9904 1276.2,-694.5303 1255.1556,-685.7923 1218.7815,-672.7659 1177.8712,-619.6274 1172.6609,-616.9922 1166.6051,-614.1511 1157.9952,-610.4279 1145.8724,-606.0776 1136.8816,-603.516 1131.4133,-594.0842 1117.1044,-574.9558 1106.9706,-564.0411 1102.8552,-560.1626 1102.3496,-559.6057 1100.6239,-557.373 1098.1312,-554.6238 1093.2404,-550.0696 1091.0835,-547.5926 1087.9447,-544.6832 1080.843,-539.5399 1075.422,-536.7845 1068.5618,-534.7805 1061.3627,-534.2655 1057.3145,-533.1093 1049.0577,-528.9086 1046.7832,-527.2837 1036.6373,-517.6718 1035.9642,-517.1509 1035.8871,-517.079 1031.6938,-512.3798 1029.9452,-512.3342 1025.254,-512.5885 1024.7211,-512.6603 1022.7557,-512.7665 1022.1878,-512.752 1017.1796,-513.0259 1011.7515,-512.8865 1008.231,-512.5123 1007.4953,-512.4937 1004.9121,-512.6346 1003.4933,-512.5989 1002.7926,-512.6374 998.0179,-512.517 992.4561,-512.8261 986.1568,-512.1559 984.3976,-512.1121 983.4487,-512.2427 974.6063,-512.7413 971.0687,-512.3661 963.3796,-512.1773 959.2569,-511.7459 956.5669,-511.2502 917.4894,-500.8866 917.3798,-500.5165 915.3986,-489.901 907.2921,-456.7016 903.16,-444.8325 917.2752,-434.9862 919.667,-433.4815 924.5808,-430.7149 937.0365,-424.5223 937.9249,-424.2021 948.3776,-421.1094 958.2408,-418.8545 959.3466,-418.6774 964.4112,-418.2058 972.3954,-417.9988 973.1882,-417.9243 974.8258,-417.881 983.0494,-418.2188 983.0594,-418.2185 983.6815,-418.1595 989.1028,-418.0109 990.5812,-418.0697 992.657,-418.2927 995.7442,-418.414 998.2842,-418.3417 1002.5881,-417.925 1009.4001,-418.1869 1010.5765,-418.1521 1013.0134,-417.9138 1013.3219,-417.9045 1020.2456,-418.1637 1024.1041,-418.0455 1026.8604,-417.7736 1027.3385,-417.7588 1028.1547,-417.7882 1032.1323,-417.6628 1037.7877,-417.8643 1040.1539,-417.6277 1043.7445,-417.5108 1045.7968,-417.5818 1046.9338,-417.5441 1056.0551,-417.8565 1062.3792,-417.2137 1074.7439,-415.1127 1076.8408,-414.4761 1088.3848,-410.1678 1116.9491,-397.6053 1169.3167,-408.4849 1170.1495,-408.2356 1227.9614,-389.05 1272.0627,-338.8959 1275.58,-335.048 1280.4769,-329.8896 1293.3544,-325.2181 1306.7166,-336.9425 1311.2688,-340.4726 1326.3544,-355.1989 1335.8414,-364.0442 1362.5348,-386.5946 1433.5836,-454.8271 1435.2999,-478.5615 1438.538,-509.751 1438.538,-509.751"/>
<polygon fill="#d8d6d9" stroke="#d8d6d9" points="1266.2633,-963.6592 1231.7919,-969.0486 1219.308,-971.4059 1218.1848,-971.211 1205.9871,-969.8618 1209.4661,-869.178 1214.7657,-865.7385 1215.6283,-864.5663 1215.4445,-864.321 1209.3676,-860.2282 1203.5024,-860.2282 1201.5278,-819.721 1208.7399,-814.7019 1214.6486,-809.9133 1219.262,-805.6441 1184.3284,-799.2507 1166.2845,-799.8005 1160.4681,-793.7112 1159.8911,-793.7112 1159.8787,-793.7157 1159.248,-794.6134 1159.248,-794.6134 1159.8787,-793.7157 1159.8911,-793.7112 1160.4681,-793.7112 1166.2845,-799.8005 1184.3284,-799.2507 1219.262,-805.6441 1214.6486,-809.9133 1208.7399,-814.7019 1201.5278,-819.721 1203.5024,-860.2282 1209.3676,-860.2282 1215.4445,-864.321 1215.6283,-864.5663 1214.7657,-865.7385 1209.4661,-869.178 1205.9871,-969.8618 1202.2982,-969.5702 1190.0466,-969.3721 1181.5745,-969.502 1181.1243,-969.5229 1170.6951,-968.9769 1152.5703,-964.7725 1107.9457,-935.7825 1086.0277,-904.9459 1077.4609,-893.6637 1010.5786,-854.5886 1005.6218,-850.7664 1006.0972,-819.0857 1004.8933,-817.6682 996.5273,-808.6703 985.6454,-795.6645 955.782,-763.6865 938.954,-744.1333 936.5516,-700.7647 935.2296,-689.7542 935.2535,-686.5637 936.1027,-674.663 933.7599,-632.3729 935.4103,-629.5313 958.1998,-622.8721 959.9982,-622.4408 962.2455,-622.0173 973.1095,-620.5245 985.1727,-620.1137 986.7065,-619.9818 993.6585,-620.1057 998.7738,-619.6647 1000.3336,-619.6117 1002.0086,-619.6415 1007.1065,-619.9975 1015.558,-619.7095 1018.1277,-619.8882 1019.5087,-619.8414 1024.368,-619.9279 1025.2775,-619.8969 1038.2596,-620.1293 1040.142,-619.8694 1043.9299,-619.7411 1048.9913,-619.831 1050.4021,-619.7831 1052.7263,-619.8244 1058.1211,-619.6412 1062.2443,-619.9282 1077.4315,-619.4114 1081.2871,-618.8838 1089.6171,-617.3134 1089.8699,-617.2528 1136.8816,-603.516 1145.8724,-606.0776 1157.9952,-610.4279 1166.6051,-614.1511 1172.6609,-616.9922 1177.8712,-619.6274 1218.7815,-672.7659 1255.1556,-685.7923 1276.2,-694.5303 1277.1769,-694.9904 1280.7179,-696.7592 1293.6887,-734.5292 1293.4404,-739.7012 1327.1071,-843.2656 1336.5708,-869.5625 1334.1084,-875.9016 1333.8613,-876.6663 1321.6304,-908.0815 1300.8873,-932.0162 1266.2633,-963.6592 1266.2633,-963.6592"/>
<polyline fill="none" stroke="#000000" points="543.1629,-999.5264 558.8323,-998.2852 565.0175,-997.9947 578.5411,-998.23 579.2444,-998.2648 607.5362,-1000.5756 646.2113,-989.9177 670.9847,-999.8804 716.6777,-997.6588 724.5945,-997.808 735.0762,-998.3591 736.9969,-998.5894 750.9313,-1000.7347 755.3104,-1001.5562 763.7029,-1001.1458 828.8036,-966.1822 853.7634,-907.5968 856.334,-902.435 836.0609,-881.1174 785.3788,-823.8328 769.7073,-821.3606 768.417,-821.2109 756.5462,-820.3261 752.7023,-820.2 749.4186,-820.3659 743.8732,-820.3983 740.9568,-820.537 740.4995,-820.5383 737.5115,-820.4132 732.0154,-820.4126 731.2421,-820.3779 726.1147,-820.362 721.2326,-820.1279 714.9123,-820.3535 712.0977,-820.328 708.2427,-820.121 707.2316,-820.1509 695.7388,-820.9702 691.6027,-821.437 646.2113,-828.4521 579.6558,-777.4886 577.1756,-775.4842 564.819,-764.96 561.2499,-761.4556 550.0881,-766.5046 540.061,-770.7539 529.2909,-774.7009 519.5591,-777.7122 471.7644,-791.1351 457.3251,-788.6098 453.3628,-788.0252 422.3325,-798.9503 404.6862,-803.9443 395.4546,-805.5877 385.5695,-807.003 370.833,-808.0824 369.0703,-808.1497 366.2486,-808.3582 365.2436,-808.327 357.369,-812.5981 342.0735,-820.1747 339.588,-821.2814 336.8842,-822.3531 323.4987,-826.3944 295.6334,-832.1397 280.6946,-835.9611 274.4926,-838.1483 266.9952,-841.16 258.8478,-844.8281 250.9261,-849.1652 243.0629,-853.8544 240.4446,-855.5417 226.0157,-865.5502 223.4539,-867.5674 214.3837,-875.1555 212.5509,-876.8683 208.5111,-880.2297 214.1595,-911.3059 221.0436,-933.2939 223.7657,-936.3538 277.6596,-1001.025 303.1685,-1009.5422 314.2603,-1008.7972 328.668,-1008.2307 336.9992,-1008.369 346.8248,-1008.8068 359.6829,-1010.0982 363.6894,-1010.6119 365.4128,-1010.9288 373.7341,-1012.6942 381.7746,-1009.374 387.6269,-1007.327 394.8952,-1005.0119 409.8797,-1001.1733 418.997,-999.4118 471.7644,-992.5206 490.0401,-999.6468 523.6686,-1001.1276 530.6957,-1001.8761 539.4341,-1000.0602 543.1629,-999.5264 "/>
<polyline fill="none" stroke="#000000" points="491.4597,-292.7407 487.2456,-294.7228 477.6152,-298.5275 468.8124,-301.316 465.7047,-302.0531 464.973,-302.1698 452.2632,-303.2224 447.4867,-303.2449 433.8821,-305.3889 424.9837,-308.1445 420.6698,-309.8062 411.8463,-313.8786 399.6491,-321.3654 398.4059,-322.2188 392.1847,-326.9654 388.7625,-329.8365 383.6862,-334.4938 376.7631,-341.3953 375.2358,-342.6913 362.8001,-354.0637 348.6363,-369.7785 347.9073,-370.5414 304.8917,-418.0705 298.8303,-417.2112 293.5579,-416.271 284.4931,-414.4883 275.6447,-415.85 275.4879,-416.082 275.3435,-416.2802 209.71,-503.1009 181.5607,-561.5995 168.1947,-587.1399 164.5419,-593.6461 162.791,-613.4014 159.4636,-641.9105 150.4921,-649.09 106.7044,-717.6212 114.3065,-751.6577 117.299,-767.4279 125.1882,-832.2913 127.7587,-835.5557 208.5111,-880.2297 212.5509,-876.8683 214.3837,-875.1555 223.4539,-867.5674 226.0157,-865.5502 240.4446,-855.5417 243.0629,-853.8544 250.9261,-849.1652 258.8478,-844.8281 266.9952,-841.16 274.4926,-838.1483 280.6946,-835.9611 295.6334,-832.1397 323.4987,-826.3944 336.8842,-822.3531 339.588,-821.2814 342.0735,-820.1747 357.369,-812.5981 365.2436,-808.327 366.2486,-808.3582 369.0703,-808.1497 370.833,-808.0824 385.5695,-807.003 395.4546,-805.5877 404.6862,-803.9443 422.3325,-798.9503 453.3628,-788.0252 457.3251,-788.6098 471.7644,-791.1351 519.5591,-777.7122 529.2909,-774.7009 540.061,-770.7539 550.0881,-766.5046 561.2499,-761.4556 561.9733,-759.0546 573.6492,-712.3337 579.3319,-686.748 585.6538,-682.5731 597.9735,-674.865 619.7323,-644.62 657.6359,-577.9025 668.7947,-560.0236 700.5694,-553.7092 714.4666,-517.9346 722.6158,-488.248 726.9149,-467.89 740.0679,-434.0311 690.6866,-400.4767 674.7411,-355.105 671.2698,-347.5819 641.8342,-290.6417 632.1493,-289.477 625.3483,-288.4804 560.4952,-236.1168 535.0808,-256.89 522.9428,-269.2029 511.7332,-278.8637 504.309,-284.6759 491.4597,-292.7407 "/>
<polyline fill="none" stroke="#000000" points="-9.4707,-204.6626 -23.9359,-157.4238 -41.985,-133.2508 -50.4968,-122.5366 -40.9642,-75.8112 -39.2599,-70.0369 -36.8764,-59.6426 -1.2831,-11.6279 34.2925,6.3362 57.7712,10.0983 66.5915,11.7907 71.3035,10.6027 74.7721,9.84 88.1662,7.7477 96.1832,7.0077 102.115,6.6496 111.1976,6.681 126.5132,7.2235 127.546,7.2929 128.9563,7.4324 135.5601,8.509 152.3764,11.7933 156.3767,12.9579 165.1153,11.9156 182.7848,10.8828 198.0044,10.4577 213.4065,3.6916 224.0428,-2.3349 260.7057,-26.7769 273.4292,-39.253 277.3189,-40.0205 280.13,-40.4944 285.9191,-43.0071 289.8307,-44.5735 293.6633,-45.9806 294.0165,-46.0987 302.1827,-48.5614 310.9706,-50.9227 325.1324,-54.2579 326.3349,-54.5004 331.1104,-55.1464 344.553,-56.5203 413.2456,-61.2502 434.415,-78.4038 464.4386,-126.7131 490.5503,-136.3745 542.0398,-179.2724 560.4952,-236.1168 535.0808,-256.89 522.9428,-269.2029 511.7332,-278.8637 504.309,-284.6759 491.4597,-292.7407 487.2456,-294.7228 477.6152,-298.5275 468.8124,-301.316 465.7047,-302.0531 464.973,-302.1698 452.2632,-303.2224 447.4867,-303.2449 433.8821,-305.3889 424.9837,-308.1445 420.6698,-309.8062 411.8463,-313.8786 399.6491,-321.3654 398.4059,-322.2188 392.1847,-326.9654 388.7625,-329.8365 383.6862,-334.4938 376.7631,-341.3953 375.2358,-342.6913 362.8001,-354.0637 348.6363,-369.7785 347.9073,-370.5414 304.8917,-418.0705 298.8303,-417.2112 293.5579,-416.271 284.4931,-414.4883 275.6447,-415.85 236.0839,-393.1683 221.3124,-385.5076 219.577,-384.6563 213.8014,-381.9826 196.1667,-374.7839 192.4923,-373.5893 172.1221,-367.5196 167.6731,-366.5649 160.7807,-364.1239 153.1197,-361.6404 148.0733,-360.3062 139.7322,-358.3478 103.5268,-350.9268 86.3516,-343.326 48.4278,-291.4488 42.394,-258.0488 41.5036,-254.4419 -9.4707,-204.6626 "/>
<polyline fill="none" stroke="#000000" points="1197.767,47.634 1214.8715,41.2973 1265.9681,24.2473 1289.403,15.421 1290.0819,15.4699 1293.3496,15.8028 1304.4735,17.2692 1313.1627,18.6735 1328.9302,22.1621 1329.9509,22.1148 1330.1115,22.046 1399.2977,-5.354 1416.0154,-15.5001 1426.1914,-56.7895 1426.1595,-57.3129 1425.9755,-63.3213 1434.5341,-109.7843 1444.448,-154.7041 1445.5734,-158.6179 1401.8118,-231.162 1345.5845,-269.7154 1335.4636,-277.0122 1315.1682,-293.8129 1313.6167,-295.2602 1301.4257,-307.0855 1293.3544,-325.2181 1280.4769,-329.8896 1225.6074,-297.1565 1192.0861,-264.2372 1187.5448,-258.9674 1183.6619,-254.8362 1175.4509,-246.8672 1174.7241,-246.2323 1171.6932,-243.8561 1170.6163,-242.9059 1156.2599,-231.6252 1146.3323,-225.9419 1142.1754,-224.0099 1137.6581,-222.3823 1130.0389,-220.4218 1127.1982,-219.9875 1119.853,-219.6211 1115.369,-219.864 1112.224,-219.7152 1107.1178,-218.954 1100.7393,-217.3461 1092.3395,-214.3619 1089.6991,-213.1603 1084.1414,-210.0543 1074.3463,-203.5562 1063.0632,-193.7573 1061.097,-191.6463 1057.9056,-188.5709 1049.4735,-181.2439 1047.8116,-179.5294 1035.5164,-165.7357 1034.7061,-164.7604 1032.0699,-161.8149 1029.9601,-159.2939 1022.7771,-159.4621 1019.0452,-159.4291 1015.925,-159.3011 955.1234,-158.8106 935.0817,-117.5788 877.9125,-63.7908 878.2865,-22.284 878.1273,-15.8596 877.4883,-8.9479 885.3443,36.2487 943.2446,85.0351 966.724,88.7067 971.6954,89.6448 978.3191,91.1097 989.8309,89.0633 998.3873,88.3589 1012.5582,87.6416 1031.5935,87.2833 1089.6827,40.9508 1108.974,38.1948 1126.5499,34.0033 1168.7404,40.4921 1180.1567,43.0273 1191.6611,45.9728 1194.1913,46.7909 1197.1958,47.8657 1197.767,47.634 "/>
<polyline fill="none" stroke="#000000" points="1063.0632,-193.7573 1061.097,-191.6463 1057.9056,-188.5709 1049.4735,-181.2439 1047.8116,-179.5294 1035.5164,-165.7357 1034.7061,-164.7604 1032.0699,-161.8149 1029.9601,-159.2939 1022.7771,-159.4621 1019.0452,-159.4291 1015.925,-159.3011 955.1234,-158.8106 914.0042,-234.7439 905.6883,-248.1644 869.7613,-259.8398 798.9774,-243.2703 789.0051,-240.3132 785.137,-239.0456 780.0504,-239.7786 772.6022,-240.6379 759.8692,-241.3771 758.5768,-241.3411 740.7711,-247.4045 710.3242,-255.7441 641.8342,-290.6417 671.2698,-347.5819 674.7411,-355.105 690.6866,-400.4767 740.0679,-434.0311 726.9149,-467.89 722.6158,-488.248 714.4666,-517.9346 700.5694,-553.7092 668.7947,-560.0236 657.6359,-577.9025 619.7323,-644.62 597.9735,-674.865 585.6538,-682.5731 579.3319,-686.748 573.6492,-712.3337 561.9733,-759.0546 561.2499,-761.4556 564.819,-764.96 577.1756,-775.4842 579.6558,-777.4886 646.2113,-828.4521 691.6027,-821.437 695.7388,-820.9702 707.2316,-820.1509 708.2427,-820.121 712.0977,-820.328 714.9123,-820.3535 721.2326,-820.1279 726.1147,-820.362 731.2421,-820.3779 732.0154,-820.4126 737.5115,-820.4132 740.4995,-820.5383 740.9568,-820.537 743.8732,-820.3983 749.4186,-820.3659 752.7023,-820.2 756.5462,-820.3261 768.417,-821.2109 769.7073,-821.3606 785.3788,-823.8328 836.0609,-881.1174 856.334,-902.435 858.4252,-901.6235 871.8597,-897.4031 881.3511,-894.7761 965.1453,-874.7347 1005.6218,-850.7664 1006.0972,-819.0857 1004.8933,-817.6682 996.5273,-808.6703 985.6454,-795.6645 955.782,-763.6865 938.954,-744.1333 936.5516,-700.7647 935.2296,-689.7542 935.2535,-686.5637 936.1027,-674.663 933.7599,-632.3729 935.4103,-629.5313 958.1998,-622.8721 959.9982,-622.4408 962.2455,-622.0173 973.1095,-620.5245 985.1727,-620.1137 986.7065,-619.9818 993.6585,-620.1057 998.7738,-619.6647 1000.3336,-619.6117 1002.0086,-619.6415 1007.1065,-619.9975 1015.558,-619.7095 1018.1277,-619.8882 1019.5087,-619.8414 1024.368,-619.9279 1025.2775,-619.8969 1038.2596,-620.1293 1040.142,-619.8694 1043.9299,-619.7411 1048.9913,-619.831 1050.4021,-619.7831 1052.7263,-619.8244 1058.1211,-619.6412 1062.2443,-619.9282 1077.4315,-619.4114 1081.2871,-618.8838 1089.6171,-617.3134 1089.8699,-617.2528 1136.8816,-603.516 1131.4133,-594.0842 1117.1044,-574.9558 1106.9706,-564.0411 1102.8552,-560.1626 1102.3496,-559.6057 1100.6239,-557.373 1098.1312,-554.6238 1093.2404,-550.0696 1091.0835,-547.5926 1087.9447,-544.6832 1080.843,-539.5399 1075.422,-536.7845 1068.5618,-534.7805 1061.3627,-534.2655 1057.3145,-533.1093 1049.0577,-528.9086 1046.7832,-527.2837 1036.6373,-517.6718 1035.9642,-517.1509 1035.8871,-517.079 1031.6938,-512.3798 1029.9452,-512.3342 1025.254,-512.5885 1024.7211,-512.6603 1022.7557,-512.7665 1022.1878,-512.752 1017.1796,-513.0259 1011.7515,-512.8865 1008.231,-512.5123 1007.4953,-512.4937 1004.9121,-512.6346 1003.4933,-512.5989 1002.7926,-512.6374 998.0179,-512.517 992.4561,-512.8261 986.1568,-512.1559 984.3976,-512.1121 983.4487,-512.2427 974.6063,-512.7413 971.0687,-512.3661 963.3796,-512.1773 959.2569,-511.7459 956.5669,-511.2502 917.4894,-500.8866 917.3798,-500.5165 915.3986,-489.901 907.2921,-456.7016 903.16,-444.8325 917.2752,-434.9862 919.667,-433.4815 924.5808,-430.7149 937.0365,-424.5223 937.9249,-424.2021 948.3776,-421.1094 958.2408,-418.8545 959.3466,-418.6774 964.4112,-418.2058 972.3954,-417.9988 973.1882,-417.9243 974.8258,-417.881 983.0494,-418.2188 983.0594,-418.2185 983.6815,-418.1595 989.1028,-418.0109 990.5812,-418.0697 992.657,-418.2927 995.7442,-418.414 998.2842,-418.3417 1002.5881,-417.925 1009.4001,-418.1869 1010.5765,-418.1521 1013.0134,-417.9138 1013.3219,-417.9045 1020.2456,-418.1637 1024.1041,-418.0455 1026.8604,-417.7736 1027.3385,-417.7588 1028.1547,-417.7882 1032.1323,-417.6628 1037.7877,-417.8643 1040.1539,-417.6277 1043.7445,-417.5108 1045.7968,-417.5818 1046.9338,-417.5441 1056.0551,-417.8565 1062.3792,-417.2137 1074.7439,-415.1127 1076.8408,-414.4761 1088.3848,-410.1678 1116.9491,-397.6053 1169.3167,-408.4849 1170.1495,-408.2356 1227.9614,-389.05 1272.0627,-338.8959 1275.58,-335.048 1280.4769,-329.8896 1225.6074,-297.1565 1192.0861,-264.2372 1187.5448,-258.9674 1183.6619,-254.8362 1175.4509,-246.8672 1174.7241,-246.2323 1171.6932,-243.8561 1170.6163,-242.9059 1156.2599,-231.6252 1146.3323,-225.9419 1142.1754,-224.0099 1137.6581,-222.3823 1130.0389,-220.4218 1127.1982,-219.9875 1119.853,-219.6211 1115.369,-219.864 1112.224,-219.7152 1107.1178,-218.954 1100.7393,-217.3461 1092.3395,-214.3619 1089.6991,-213.1603 1084.1414,-210.0543 1074.3463,-203.5562 1063.0632,-193.7573 "/>
<polyline fill="none" stroke="#000000" points="1025.254,-512.5885 1029.9452,-512.3342 1031.6938,-512.3798 1035.8871,-517.079 1035.9642,-517.1509 1036.6373,-517.6718 1046.7832,-527.2837 1049.0577,-528.9086 1057.3145,-533.1093 1061.3627,-534.2655 1068.5618,-534.7805 1075.422,-536.7845 1080.843,-539.5399 1087.9447,-544.6832 1091.0835,-547.5926 1093.2404,-550.0696 1098.1312,-554.6238 1100.6239,-557.373 1102.3496,-559.6057 1102.8552,-560.1626 1106.9706,-564.0411 1117.1044,-574.9558 1131.4133,-594.0842 1136.8816,-603.516 1145.8724,-606.0776 1157.9952,-610.4279 1166.6051,-614.1511 1172.6609,-616.9922 1177.8712,-619.6274 1218.7815,-672.7659 1255.1556,-685.7923 1276.2,-694.5303 1277.1769,-694.9904 1280.7179,-696.7592 1372.4823,-607.7982 1394.9169,-597.7608 1426.1249,-558.1567 1437.4639,-513.1301 1438.538,-509.751 1435.2999,-478.5615 1433.5836,-454.8271 1362.5348,-386.5946 1335.8414,-364.0442 1326.3544,-355.1989 1311.2688,-340.4726 1306.7166,-336.9425 1293.3544,-325.2181 1280.4769,-329.8896 1275.58,-335.048 1272.0627,-338.8959 1227.9614,-389.05 1170.1495,-408.2356 1169.3167,-408.4849 1116.9491,-397.6053 1088.3848,-410.1678 1076.8408,-414.4761 1074.7439,-415.1127 1062.3792,-417.2137 1056.0551,-417.8565 1046.9338,-417.5441 1045.7968,-417.5818 1043.7445,-417.5108 1040.1539,-417.6277 1037.7877,-417.8643 1032.1323,-417.6628 1028.1547,-417.7882 1027.3385,-417.7588 1026.8604,-417.7736 1024.1041,-418.0455 1020.2456,-418.1637 1013.3219,-417.9045 1013.0134,-417.9138 1010.5765,-418.1521 1009.4001,-418.1869 1002.5881,-417.925 998.2842,-418.3417 995.7442,-418.414 992.657,-418.2927 990.5812,-418.0697 989.1028,-418.0109 983.6815,-418.1595 983.0594,-418.2185 983.0494,-418.2188 974.8258,-417.881 973.1882,-417.9243 972.3954,-417.9988 964.4112,-418.2058 959.3466,-418.6774 958.2408,-418.8545 948.3776,-421.1094 937.9249,-424.2021 937.0365,-424.5223 924.5808,-430.7149 919.667,-433.4815 917.2752,-434.9862 903.16,-444.8325 907.2921,-456.7016 915.3986,-489.901 917.3798,-500.5165 917.4894,-500.8866 956.5669,-511.2502 959.2569,-511.7459 963.3796,-512.1773 971.0687,-512.3661 974.6063,-512.7413 983.4487,-512.2427 984.3976,-512.1121 986.1568,-512.1559 992.4561,-512.8261 998.0179,-512.517 1002.7926,-512.6374 1003.4933,-512.5989 1004.9121,-512.6346 1007.4953,-512.4937 1008.231,-512.5123 1011.7515,-512.8865 1017.1796,-513.0259 1022.1878,-512.752 1022.7557,-512.7665 1024.7211,-512.6603 1025.254,-512.5885 "/>
<polyline fill="none" stroke="#000000" points="1048.9913,-619.831 1043.9299,-619.7411 1040.142,-619.8694 1038.2596,-620.1293 1025.2775,-619.8969 1024.368,-619.9279 1019.5087,-619.8414 1018.1277,-619.8882 1015.558,-619.7095 1007.1065,-619.9975 1002.0086,-619.6415 1000.3336,-619.6117 998.7738,-619.6647 993.6585,-620.1057 986.7065,-619.9818 985.1727,-620.1137 973.1095,-620.5245 962.2455,-622.0173 959.9982,-622.4408 958.1998,-622.8721 935.4103,-629.5313 933.7599,-632.3729 936.1027,-674.663 935.2535,-686.5637 935.2296,-689.7542 936.5516,-700.7647 938.954,-744.1333 955.782,-763.6865 985.6454,-795.6645 996.5273,-808.6703 1004.8933,-817.6682 1006.0972,-819.0857 1005.6218,-850.7664 1010.5786,-854.5886 1077.4609,-893.6637 1086.0277,-904.9459 1107.9457,-935.7825 1152.5703,-964.7725 1170.6951,-968.9769 1181.1243,-969.5229 1181.5745,-969.502 1190.0466,-969.3721 1202.2982,-969.5702 1205.9871,-969.8618 1218.1848,-971.211 1219.308,-971.4059 1231.7919,-969.0486 1266.2633,-963.6592 1300.8873,-932.0162 1321.6304,-908.0815 1333.8613,-876.6663 1334.1084,-875.9016 1336.5708,-869.5625 1327.1071,-843.2656 1293.4404,-739.7012 1293.6887,-734.5292 1280.7179,-696.7592 1277.1769,-694.9904 1276.2,-694.5303 1255.1556,-685.7923 1218.7815,-672.7659 1177.8712,-619.6274 1172.6609,-616.9922 1166.6051,-614.1511 1157.9952,-610.4279 1145.8724,-606.0776 1136.8816,-603.516 1089.8699,-617.2528 1089.6171,-617.3134 1081.2871,-618.8838 1077.4315,-619.4114 1062.2443,-619.9282 1058.1211,-619.6412 1052.7263,-619.8244 1050.4021,-619.7831 1048.9913,-619.831 "/>
<!-- authconfig&#45;&gt;python3&#45;sssdconfig -->
<g id="edge1" class="edge">
<title>authconfig&#45;&gt;python3&#45;sssdconfig</title>
<path fill="none" stroke="#444444" stroke-opacity="0.333333" d="M486.254,-898C486.0906,-898 485.9271,-898 485.7634,-898"/>
<polygon fill="#444444" fill-opacity="0.333333" stroke="#444444" stroke-opacity="0.333333" points="488.3267,-894.5001 478.3267,-898 488.3266,-901.5001 488.3267,-894.5001"/>
</g>
<!-- curl&#45;minimal&#45;&gt;libcurl&#45;minimal -->
<g id="edge2" class="edge">
<title>curl&#45;minimal&#45;&gt;libcurl&#45;minimal</title>
<path fill="none" stroke="#444444" stroke-opacity="0.333333" d="M510.6721,-367.7897C534.056,-388.0002 571.9023,-420.7104 597.9296,-443.2056"/>
<polygon fill="#444444" fill-opacity="0.333333" stroke="#444444" stroke-opacity="0.333333" points="595.7441,-445.9427 605.5986,-449.8337 600.3214,-440.6466 595.7441,-445.9427"/>
</g>
<!-- firewalld&#45;&gt;firewalld&#45;filesystem -->
<g id="edge3" class="edge">
<title>firewalld&#45;&gt;firewalld&#45;filesystem</title>
<path fill="none" stroke="#444444" stroke-opacity="0.333333" d="M109.6635,-138.679C110.7446,-132.6756 111.9769,-125.8329 113.1651,-119.2352"/>
<polygon fill="#444444" fill-opacity="0.333333" stroke="#444444" stroke-opacity="0.333333" points="116.6399,-119.6871 114.9678,-109.2251 109.7507,-118.4464 116.6399,-119.6871"/>
</g>
<!-- firewalld&#45;&gt;python3&#45;firewall -->
<g id="edge4" class="edge">
<title>firewalld&#45;&gt;python3&#45;firewall</title>
<path fill="none" stroke="#444444" stroke-opacity="0.333333" d="M139.4581,-174.8488C141.2032,-175.8079 142.9666,-176.7772 144.7346,-177.7489"/>
<polygon fill="#444444" fill-opacity="0.333333" stroke="#444444" stroke-opacity="0.333333" points="143.0985,-180.8434 153.5479,-182.593 146.4702,-174.709 143.0985,-180.8434"/>
</g>
<!-- python3&#45;firewall&#45;&gt;python3&#45;decorator -->
<g id="edge5" class="edge">
<title>python3&#45;firewall&#45;&gt;python3&#45;decorator</title>
<path fill="none" stroke="#444444" stroke-opacity="0.333333" d="M187.2212,-218.9446C187.2514,-219.7196 187.282,-220.5036 187.3128,-221.2931"/>
<polygon fill="#444444" fill-opacity="0.333333" stroke="#444444" stroke-opacity="0.333333" points="183.8274,-221.7372 187.7146,-231.5932 190.8221,-221.4644 183.8274,-221.7372"/>
</g>
<!-- python3&#45;firewall&#45;&gt;python3&#45;slip&#45;dbus -->
<g id="edge6" class="edge">
<title>python3&#45;firewall&#45;&gt;python3&#45;slip&#45;dbus</title>
<path fill="none" stroke="#444444" stroke-opacity="0.333333" d="M255.104,-218.7175C276.4134,-224.3118 300.0661,-230.5211 321.9968,-236.2785"/>
<polygon fill="#444444" fill-opacity="0.333333" stroke="#444444" stroke-opacity="0.333333" points="321.3763,-239.7341 331.9373,-238.8881 323.1538,-232.9635 321.3763,-239.7341"/>
</g>
<!-- python3&#45;slip&#45;dbus&#45;&gt;curl&#45;minimal -->
<g id="edge7" class="edge">
<title>python3&#45;slip&#45;dbus&#45;&gt;curl&#45;minimal</title>
<path fill="none" stroke="#444444" stroke-opacity="0.333333" d="M418.1074,-275.1986C431.5267,-289.1603 450.1727,-308.56 465.0551,-324.0438"/>
<polygon fill="#444444" fill-opacity="0.333333" stroke="#444444" stroke-opacity="0.333333" points="462.5661,-326.5051 472.0192,-331.2894 467.6129,-321.6543 462.5661,-326.5051"/>
</g>
<!-- python3&#45;slip&#45;dbus&#45;&gt;python3&#45;decorator -->
<g id="edge8" class="edge">
<title>python3&#45;slip&#45;dbus&#45;&gt;python3&#45;decorator</title>
<path fill="none" stroke="#444444" stroke-opacity="0.333333" d="M298.503,-253.4223C298.3371,-253.4166 298.1713,-253.411 298.0055,-253.4054"/>
<polygon fill="#444444" fill-opacity="0.333333" stroke="#444444" stroke-opacity="0.333333" points="300.6536,-249.9935 290.5404,-253.1516 300.4157,-256.9894 300.6536,-249.9935"/>
</g>
<!-- python3&#45;slip&#45;dbus&#45;&gt;python3&#45;slip -->
<g id="edge9" class="edge">
<title>python3&#45;slip&#45;dbus&#45;&gt;python3&#45;slip</title>
<path fill="none" stroke="#444444" stroke-opacity="0.333333" d="M384.072,-238.8286C369.0086,-222.2775 346.5402,-197.5901 329.5934,-178.9697"/>
<polygon fill="#444444" fill-opacity="0.333333" stroke="#444444" stroke-opacity="0.333333" points="332.0257,-176.4422 322.7063,-171.4024 326.8487,-181.1538 332.0257,-176.4422"/>
</g>
<!-- libmbim&#45;&gt;libgudev -->
<g id="edge10" class="edge">
<title>libmbim&#45;&gt;libgudev</title>
<path fill="none" stroke="#444444" stroke-opacity="0.333333" d="M1236.5583,-74.992C1236.6418,-75.0185 1236.7252,-75.0451 1236.8087,-75.0716"/>
<polygon fill="#444444" fill-opacity="0.333333" stroke="#444444" stroke-opacity="0.333333" points="1234.0213,-77.8575 1244.6118,-77.5545 1236.1439,-71.1871 1234.0213,-77.8575"/>
</g>
<!-- libmbim&#45;utils&#45;&gt;libmbim -->
<g id="edge11" class="edge">
<title>libmbim&#45;utils&#45;&gt;libmbim</title>
<path fill="none" stroke="#444444" stroke-opacity="0.333333" d="M1280.5072,-120.6837C1263.822,-109.6245 1242.3187,-95.3718 1224.2965,-83.4265"/>
<polygon fill="#444444" fill-opacity="0.333333" stroke="#444444" stroke-opacity="0.333333" points="1226.0343,-80.3793 1215.7653,-77.7718 1222.1669,-86.214 1226.0343,-80.3793"/>
</g>
<!-- libmbim&#45;utils&#45;&gt;libgudev -->
<g id="edge12" class="edge">
<title>libmbim&#45;utils&#45;&gt;libgudev</title>
<path fill="none" stroke="#444444" stroke-opacity="0.333333" d="M1304.1461,-120.6717C1304.1131,-120.5118 1304.08,-120.3516 1304.0468,-120.1911"/>
<polygon fill="#444444" fill-opacity="0.333333" stroke="#444444" stroke-opacity="0.333333" points="1307.9964,-122.0084 1302.5452,-112.9235 1301.1412,-123.4249 1307.9964,-122.0084"/>
</g>
<!-- libqmi&#45;&gt;libmbim -->
<g id="edge13" class="edge">
<title>libqmi&#45;&gt;libmbim</title>
<path fill="none" stroke="#444444" stroke-opacity="0.333333" d="M1031.8344,-27.0483C1060.6652,-33.0571 1098.8519,-41.0159 1130.3061,-47.5714"/>
<polygon fill="#444444" fill-opacity="0.333333" stroke="#444444" stroke-opacity="0.333333" points="1129.7577,-51.0323 1140.2615,-49.6463 1131.186,-44.1795 1129.7577,-51.0323"/>
</g>
<!-- libqmi&#45;utils&#45;&gt;libmbim -->
<g id="edge14" class="edge">
<title>libqmi&#45;utils&#45;&gt;libmbim</title>
<path fill="none" stroke="#444444" stroke-opacity="0.333333" d="M1132.6473,-60.7102C1132.8117,-60.7072 1132.976,-60.7042 1133.1403,-60.7013"/>
<polygon fill="#444444" fill-opacity="0.333333" stroke="#444444" stroke-opacity="0.333333" points="1130.5204,-64.2494 1140.4554,-60.569 1130.3937,-57.2505 1130.5204,-64.2494"/>
</g>
<!-- libqmi&#45;utils&#45;&gt;libgudev -->
<g id="edge15" class="edge">
<title>libqmi&#45;utils&#45;&gt;libgudev</title>
<path fill="none" stroke="#444444" stroke-opacity="0.333333" d="M1132.3749,-72.2987C1165.1614,-76.7309 1203.1533,-81.8669 1234.553,-86.1117"/>
<polygon fill="#444444" fill-opacity="0.333333" stroke="#444444" stroke-opacity="0.333333" points="1234.1223,-89.5852 1244.5011,-87.4565 1235.0601,-82.6483 1234.1223,-89.5852"/>
</g>
<!-- libqmi&#45;utils&#45;&gt;libqmi -->
<g id="edge16" class="edge">
<title>libqmi&#45;utils&#45;&gt;libqmi</title>
<path fill="none" stroke="#444444" stroke-opacity="0.333333" d="M1028.5924,-43.8977C1027.475,-43.1773 1026.3487,-42.4512 1025.2186,-41.7227"/>
<polygon fill="#444444" fill-opacity="0.333333" stroke="#444444" stroke-opacity="0.333333" points="1026.864,-38.6192 1016.5627,-36.1426 1023.0712,-44.5026 1026.864,-38.6192"/>
</g>
<!-- mariadb&#45;connector&#45;c&#45;&gt;libcurl&#45;minimal -->
<g id="edge17" class="edge">
<title>mariadb&#45;connector&#45;c&#45;&gt;libcurl&#45;minimal</title>
<path fill="none" stroke="#444444" stroke-opacity="0.333333" d="M547.7313,-541.0237C562.4226,-527.3817 582.7989,-508.4606 599.1449,-493.282"/>
<polygon fill="#444444" fill-opacity="0.333333" stroke="#444444" stroke-opacity="0.333333" points="601.8567,-495.5402 606.8031,-486.1709 597.0935,-490.4107 601.8567,-495.5402"/>
</g>
<!-- ModemManager&#45;&gt;libmbim -->
<g id="edge18" class="edge">
<title>ModemManager&#45;&gt;libmbim</title>
<path fill="none" stroke="#444444" stroke-opacity="0.333333" d="M1159.4316,-164.6873C1165.0477,-144.4035 1174.2034,-111.3355 1180.7386,-87.732"/>
<polygon fill="#444444" fill-opacity="0.333333" stroke="#444444" stroke-opacity="0.333333" points="1184.1524,-88.5186 1183.4478,-77.9472 1177.4062,-86.6507 1184.1524,-88.5186"/>
</g>
<!-- ModemManager&#45;&gt;libgudev -->
<g id="edge19" class="edge">
<title>ModemManager&#45;&gt;libgudev</title>
<path fill="none" stroke="#444444" stroke-opacity="0.333333" d="M1183.9699,-164.8266C1206.0657,-151.3514 1236.4606,-132.815 1260.4289,-118.1978"/>
<polygon fill="#444444" fill-opacity="0.333333" stroke="#444444" stroke-opacity="0.333333" points="1262.5544,-121.0011 1269.2696,-112.8063 1258.9096,-115.0248 1262.5544,-121.0011"/>
</g>
<!-- ModemManager&#45;&gt;libmbim&#45;utils -->
<g id="edge20" class="edge">
<title>ModemManager&#45;&gt;libmbim&#45;utils</title>
<path fill="none" stroke="#444444" stroke-opacity="0.333333" d="M1217.2772,-164.8284C1223.1117,-163.1552 1229.0568,-161.4503 1234.9716,-159.7541"/>
<polygon fill="#444444" fill-opacity="0.333333" stroke="#444444" stroke-opacity="0.333333" points="1236.2245,-163.0359 1244.8722,-156.9148 1234.2948,-156.3071 1236.2245,-163.0359"/>
</g>
<!-- ModemManager&#45;&gt;libqmi -->
<g id="edge21" class="edge">
<title>ModemManager&#45;&gt;libqmi</title>
<path fill="none" stroke="#444444" stroke-opacity="0.333333" d="M1136.0031,-164.5872C1106.2631,-135.0479 1047.561,-76.7419 1013.8443,-43.2527"/>
<polygon fill="#444444" fill-opacity="0.333333" stroke="#444444" stroke-opacity="0.333333" points="1016.2079,-40.6673 1006.6464,-36.1034 1011.2749,-45.6338 1016.2079,-40.6673"/>
</g>
<!-- ModemManager&#45;&gt;libqmi&#45;utils -->
<g id="edge22" class="edge">
<title>ModemManager&#45;&gt;libqmi&#45;utils</title>
<path fill="none" stroke="#444444" stroke-opacity="0.333333" d="M1139.7883,-164.7783C1123.4012,-144.4996 1096.6777,-111.4299 1077.9963,-88.312"/>
<polygon fill="#444444" fill-opacity="0.333333" stroke="#444444" stroke-opacity="0.333333" points="1080.5192,-85.8653 1071.5116,-80.2873 1075.0746,-90.2651 1080.5192,-85.8653"/>
</g>
<!-- ModemManager&#45;&gt;ModemManager&#45;glib -->
<g id="edge23" class="edge">
<title>ModemManager&#45;&gt;ModemManager&#45;glib</title>
<path fill="none" stroke="#444444" stroke-opacity="0.333333" d="M1133.2157,-201.078C1122.4225,-210.3599 1109.1407,-221.782 1097.4392,-231.845"/>
<polygon fill="#444444" fill-opacity="0.333333" stroke="#444444" stroke-opacity="0.333333" points="1094.9404,-229.3776 1089.6406,-238.5516 1099.5047,-234.6849 1094.9404,-229.3776"/>
</g>
<!-- net&#45;snmp&#45;agent&#45;libs&#45;&gt;mariadb&#45;connector&#45;c -->
<g id="edge24" class="edge">
<title>net&#45;snmp&#45;agent&#45;libs&#45;&gt;mariadb&#45;connector&#45;c</title>
<path fill="none" stroke="#444444" stroke-opacity="0.333333" d="M424.2406,-655.9173C445.0507,-636.549 478.084,-605.8042 501.3479,-584.1521"/>
<polygon fill="#444444" fill-opacity="0.333333" stroke="#444444" stroke-opacity="0.333333" points="503.8955,-586.5624 508.8311,-577.1873 499.1264,-581.4383 503.8955,-586.5624"/>
</g>
<!-- net&#45;snmp&#45;agent&#45;libs&#45;&gt;lm_sensors&#45;libs -->
<g id="edge25" class="edge">
<title>net&#45;snmp&#45;agent&#45;libs&#45;&gt;lm_sensors&#45;libs</title>
<path fill="none" stroke="#444444" stroke-opacity="0.333333" d="M386.4416,-655.9139C373.6053,-643.044 356.2429,-625.6362 342.0669,-611.4231"/>
<polygon fill="#444444" fill-opacity="0.333333" stroke="#444444" stroke-opacity="0.333333" points="344.5251,-608.9314 334.9851,-604.3227 339.5688,-613.8747 344.5251,-608.9314"/>
</g>
<!-- net&#45;snmp&#45;agent&#45;libs&#45;&gt;net&#45;snmp&#45;libs -->
<g id="edge26" class="edge">
<title>net&#45;snmp&#45;agent&#45;libs&#45;&gt;net&#45;snmp&#45;libs</title>
<path fill="none" stroke="#444444" stroke-opacity="0.333333" d="M372.856,-692.3188C371.317,-693.198 369.7632,-694.0857 368.2049,-694.976"/>
<polygon fill="#444444" fill-opacity="0.333333" stroke="#444444" stroke-opacity="0.333333" points="366.2476,-692.0633 359.301,-700.063 369.7201,-698.1413 366.2476,-692.0633"/>
</g>
<!-- net&#45;snmp&#45;&gt;mariadb&#45;connector&#45;c -->
<g id="edge27" class="edge">
<title>net&#45;snmp&#45;&gt;mariadb&#45;connector&#45;c</title>
<path fill="none" stroke="#444444" stroke-opacity="0.333333" d="M421.1691,-612.012C439.8514,-602.776 462.7499,-591.4557 482.5775,-581.6535"/>
<polygon fill="#444444" fill-opacity="0.333333" stroke="#444444" stroke-opacity="0.333333" points="484.3246,-584.6942 491.7379,-577.1249 481.2224,-578.4192 484.3246,-584.6942"/>
</g>
<!-- net&#45;snmp&#45;&gt;net&#45;snmp&#45;agent&#45;libs -->
<g id="edge28" class="edge">
<title>net&#45;snmp&#45;&gt;net&#45;snmp&#45;agent&#45;libs</title>
<path fill="none" stroke="#444444" stroke-opacity="0.333333" d="M392.808,-648.2988C392.8811,-648.4586 392.9544,-648.6188 393.0278,-648.7792"/>
<polygon fill="#444444" fill-opacity="0.333333" stroke="#444444" stroke-opacity="0.333333" points="389.0079,-648.4057 396.3511,-656.043 395.3733,-645.4933 389.0079,-648.4057"/>
</g>
<!-- net&#45;snmp&#45;&gt;lm_sensors&#45;libs -->
<g id="edge29" class="edge">
<title>net&#45;snmp&#45;&gt;lm_sensors&#45;libs</title>
<path fill="none" stroke="#444444" stroke-opacity="0.333333" d="M356.5771,-611.973C355.4709,-611.2533 354.356,-610.5279 353.2373,-609.8001"/>
<polygon fill="#444444" fill-opacity="0.333333" stroke="#444444" stroke-opacity="0.333333" points="354.9596,-606.7451 344.6688,-604.2253 351.1421,-612.6125 354.9596,-606.7451"/>
</g>
<!-- net&#45;snmp&#45;&gt;net&#45;snmp&#45;libs -->
<g id="edge30" class="edge">
<title>net&#45;snmp&#45;&gt;net&#45;snmp&#45;libs</title>
<path fill="none" stroke="#444444" stroke-opacity="0.333333" d="M372.7082,-648.3819C364.6961,-660.7767 353.9626,-677.3815 344.9747,-691.2858"/>
<polygon fill="#444444" fill-opacity="0.333333" stroke="#444444" stroke-opacity="0.333333" points="341.856,-689.6632 339.3667,-699.9614 347.7348,-693.4633 341.856,-689.6632"/>
</g>
<!-- net&#45;snmp&#45;utils&#45;&gt;net&#45;snmp&#45;libs -->
<g id="edge31" class="edge">
<title>net&#45;snmp&#45;utils&#45;&gt;net&#45;snmp&#45;libs</title>
<path fill="none" stroke="#444444" stroke-opacity="0.333333" d="M282.2653,-744.053C283.8062,-743.1733 285.362,-742.2852 286.9224,-741.3945"/>
<polygon fill="#444444" fill-opacity="0.333333" stroke="#444444" stroke-opacity="0.333333" points="288.8883,-744.3025 295.8379,-736.3053 285.4181,-738.2232 288.8883,-744.3025"/>
</g>
<!-- NetworkManager&#45;adsl&#45;&gt;NetworkManager -->
<g id="edge32" class="edge">
<title>NetworkManager&#45;adsl&#45;&gt;NetworkManager</title>
<path fill="none" stroke="#444444" stroke-opacity="0.333333" d="M938.0002,-538.5144C924.5659,-535.0689 910.4102,-531.4384 896.6943,-527.9206"/>
<polygon fill="#444444" fill-opacity="0.333333" stroke="#444444" stroke-opacity="0.333333" points="897.3573,-524.4775 886.8013,-525.3834 895.6183,-531.258 897.3573,-524.4775"/>
</g>
<!-- NetworkManager&#45;&gt;libcurl&#45;minimal -->
<g id="edge33" class="edge">
<title>NetworkManager&#45;&gt;libcurl&#45;minimal</title>
<path fill="none" stroke="#444444" stroke-opacity="0.333333" d="M730.3409,-489.4563C727.9394,-488.9576 725.5303,-488.4573 723.1197,-487.9567"/>
<polygon fill="#444444" fill-opacity="0.333333" stroke="#444444" stroke-opacity="0.333333" points="723.7202,-484.5068 713.2174,-485.9004 722.2969,-491.3606 723.7202,-484.5068"/>
</g>
<!-- NetworkManager&#45;&gt;libndp -->
<g id="edge34" class="edge">
<title>NetworkManager&#45;&gt;libndp</title>
<path fill="none" stroke="#444444" stroke-opacity="0.333333" d="M823.2281,-525.7532C828.2232,-539.2508 835.0877,-557.7992 840.7323,-573.0516"/>
<polygon fill="#444444" fill-opacity="0.333333" stroke="#444444" stroke-opacity="0.333333" points="837.4803,-574.3488 844.2335,-582.5124 844.0451,-571.9192 837.4803,-574.3488"/>
</g>
<!-- NetworkManager&#45;&gt;libpsl -->
<g id="edge35" class="edge">
<title>NetworkManager&#45;&gt;libpsl</title>
<path fill="none" stroke="#444444" stroke-opacity="0.333333" d="M821.4497,-525.3825C830.2976,-557.0762 848.6818,-622.9297 859.2015,-660.6118"/>
<polygon fill="#444444" fill-opacity="0.333333" stroke="#444444" stroke-opacity="0.333333" points="855.8855,-661.7507 861.9455,-670.4413 862.6277,-659.8685 855.8855,-661.7507"/>
</g>
<!-- NetworkManager&#45;&gt;NetworkManager&#45;libnm -->
<g id="edge36" class="edge">
<title>NetworkManager&#45;&gt;NetworkManager&#45;libnm</title>
<path fill="none" stroke="#444444" stroke-opacity="0.333333" d="M902.6292,-491.6604C908.5601,-490.5825 914.5789,-489.4886 920.6085,-488.3928"/>
<polygon fill="#444444" fill-opacity="0.333333" stroke="#444444" stroke-opacity="0.333333" points="921.5396,-491.781 930.7525,-486.5492 920.2878,-484.8938 921.5396,-491.781"/>
</g>
<!-- NetworkManager&#45;bluetooth&#45;&gt;ModemManager&#45;glib -->
<g id="edge37" class="edge">
<title>NetworkManager&#45;bluetooth&#45;&gt;ModemManager&#45;glib</title>
<path fill="none" stroke="#444444" stroke-opacity="0.333333" d="M996.801,-349.0302C1010.8254,-330.9933 1032.4033,-303.2416 1048.263,-282.8443"/>
<polygon fill="#444444" fill-opacity="0.333333" stroke="#444444" stroke-opacity="0.333333" points="1051.0827,-284.9198 1054.4579,-274.8769 1045.5566,-280.623 1051.0827,-284.9198"/>
</g>
<!-- NetworkManager&#45;bluetooth&#45;&gt;NetworkManager -->
<g id="edge38" class="edge">
<title>NetworkManager&#45;bluetooth&#45;&gt;NetworkManager</title>
<path fill="none" stroke="#444444" stroke-opacity="0.333333" d="M961.1964,-385.3372C931.8631,-410.0526 879.0232,-454.5739 845.9351,-482.453"/>
<polygon fill="#444444" fill-opacity="0.333333" stroke="#444444" stroke-opacity="0.333333" points="843.3669,-480.0401 837.9748,-489.1602 847.8774,-485.3933 843.3669,-480.0401"/>
</g>
<!-- NetworkManager&#45;bluetooth&#45;&gt;bluez&#45;libs -->
<g id="edge39" class="edge">
<title>NetworkManager&#45;bluetooth&#45;&gt;bluez&#45;libs</title>
<path fill="none" stroke="#444444" stroke-opacity="0.333333" d="M843.0446,-357.632C842.8791,-357.6206 842.7137,-357.6091 842.5484,-357.5976"/>
<polygon fill="#444444" fill-opacity="0.333333" stroke="#444444" stroke-opacity="0.333333" points="845.4179,-354.2885 835.1995,-357.0874 844.933,-361.2717 845.4179,-354.2885"/>
</g>
<!-- NetworkManager&#45;bluetooth&#45;&gt;NetworkManager&#45;wwan -->
<g id="edge40" class="edge">
<title>NetworkManager&#45;bluetooth&#45;&gt;NetworkManager&#45;wwan</title>
<path fill="none" stroke="#444444" stroke-opacity="0.333333" d="M1012.6564,-349.1581C1015.4937,-347.4448 1018.3957,-345.6924 1021.2969,-343.9404"/>
<polygon fill="#444444" fill-opacity="0.333333" stroke="#444444" stroke-opacity="0.333333" points="1023.1816,-346.8911 1029.9326,-338.7257 1019.5631,-340.8988 1023.1816,-346.8911"/>
</g>
<!-- NetworkManager&#45;wwan&#45;&gt;ModemManager -->
<g id="edge41" class="edge">
<title>NetworkManager&#45;wwan&#45;&gt;ModemManager</title>
<path fill="none" stroke="#444444" stroke-opacity="0.333333" d="M1072.1673,-302.6711C1088.5268,-278.8357 1117.4828,-236.6474 1136.3039,-209.2256"/>
<polygon fill="#444444" fill-opacity="0.333333" stroke="#444444" stroke-opacity="0.333333" points="1139.2565,-211.1088 1142.0297,-200.8833 1133.4851,-207.1475 1139.2565,-211.1088"/>
</g>
<!-- NetworkManager&#45;wwan&#45;&gt;ModemManager&#45;glib -->
<g id="edge42" class="edge">
<title>NetworkManager&#45;wwan&#45;&gt;ModemManager&#45;glib</title>
<path fill="none" stroke="#444444" stroke-opacity="0.333333" d="M1062.3266,-302.4845C1063.1035,-296.8859 1063.9774,-290.5893 1064.8231,-284.4951"/>
<polygon fill="#444444" fill-opacity="0.333333" stroke="#444444" stroke-opacity="0.333333" points="1068.29,-284.9753 1066.1979,-274.5891 1061.3564,-284.013 1068.29,-284.9753"/>
</g>
<!-- NetworkManager&#45;wwan&#45;&gt;NetworkManager -->
<g id="edge43" class="edge">
<title>NetworkManager&#45;wwan&#45;&gt;NetworkManager</title>
<path fill="none" stroke="#444444" stroke-opacity="0.333333" d="M1036.0196,-338.9257C991.9206,-372.7423 897.4644,-445.1747 848.0364,-483.0777"/>
<polygon fill="#444444" fill-opacity="0.333333" stroke="#444444" stroke-opacity="0.333333" points="845.7342,-480.4325 839.9286,-489.2951 849.9939,-485.9873 845.7342,-480.4325"/>
</g>
<!-- NetworkManager&#45;team&#45;&gt;NetworkManager -->
<g id="edge44" class="edge">
<title>NetworkManager&#45;team&#45;&gt;NetworkManager</title>
<path fill="none" stroke="#444444" stroke-opacity="0.333333" d="M1017.0934,-665.2206C976.6175,-633.3756 892.8818,-567.4953 847.4159,-531.7244"/>
<polygon fill="#444444" fill-opacity="0.333333" stroke="#444444" stroke-opacity="0.333333" points="849.4142,-528.8432 839.3909,-525.4105 845.0859,-534.3446 849.4142,-528.8432"/>
</g>
<!-- NetworkManager&#45;team&#45;&gt;teamd -->
<g id="edge45" class="edge">
<title>NetworkManager&#45;team&#45;&gt;teamd</title>
<path fill="none" stroke="#444444" stroke-opacity="0.333333" d="M1058.4138,-701.6155C1076.6153,-719.8186 1104.751,-747.9568 1125.1334,-768.3411"/>
<polygon fill="#444444" fill-opacity="0.333333" stroke="#444444" stroke-opacity="0.333333" points="1122.7134,-770.8708 1132.2591,-775.4675 1127.6634,-765.9213 1122.7134,-770.8708"/>
</g>
<!-- teamd&#45;&gt;libteam -->
<g id="edge46" class="edge">
<title>teamd&#45;&gt;libteam</title>
<path fill="none" stroke="#444444" stroke-opacity="0.333333" d="M1164.8699,-811.9788C1171.1344,-819.9431 1178.5997,-829.4339 1185.4564,-838.151"/>
<polygon fill="#444444" fill-opacity="0.333333" stroke="#444444" stroke-opacity="0.333333" points="1182.8514,-840.5005 1191.7849,-846.1965 1188.3534,-836.1728 1182.8514,-840.5005"/>
</g>
<!-- NetworkManager&#45;tui&#45;&gt;NetworkManager -->
<g id="edge47" class="edge">
<title>NetworkManager&#45;tui&#45;&gt;NetworkManager</title>
<path fill="none" stroke="#444444" stroke-opacity="0.333333" d="M1013.0303,-510.7161C980.3625,-510.1535 944.6583,-509.5386 912.7469,-508.9891"/>
<polygon fill="#444444" fill-opacity="0.333333" stroke="#444444" stroke-opacity="0.333333" points="912.5868,-505.4859 902.528,-508.8131 912.4662,-512.4848 912.5868,-505.4859"/>
</g>
<!-- NetworkManager&#45;tui&#45;&gt;NetworkManager&#45;libnm -->
<g id="edge48" class="edge">
<title>NetworkManager&#45;tui&#45;&gt;NetworkManager&#45;libnm</title>
<path fill="none" stroke="#444444" stroke-opacity="0.333333" d="M1083.152,-494.5243C1080.8106,-493.3814 1078.4388,-492.2236 1076.0632,-491.064"/>
<polygon fill="#444444" fill-opacity="0.333333" stroke="#444444" stroke-opacity="0.333333" points="1077.4584,-487.8504 1066.9366,-486.6089 1074.3877,-494.1409 1077.4584,-487.8504"/>
</g>
<!-- NetworkManager&#45;tui&#45;&gt;newt -->
<g id="edge49" class="edge">
<title>NetworkManager&#45;tui&#45;&gt;newt</title>
<path fill="none" stroke="#444444" stroke-opacity="0.333333" d="M1200.0561,-530.5907C1208.7601,-532.5535 1217.3514,-534.4909 1225.3426,-536.293"/>
<polygon fill="#444444" fill-opacity="0.333333" stroke="#444444" stroke-opacity="0.333333" points="1224.582,-539.7093 1235.107,-538.4949 1226.1219,-532.8808 1224.582,-539.7093"/>
</g>
<!-- newt&#45;&gt;slang -->
<g id="edge50" class="edge">
<title>newt&#45;&gt;slang</title>
<path fill="none" stroke="#444444" stroke-opacity="0.333333" d="M1289.0911,-527.8268C1289.6827,-527.3225 1290.2778,-526.8152 1290.875,-526.3061"/>
<polygon fill="#444444" fill-opacity="0.333333" stroke="#444444" stroke-opacity="0.333333" points="1293.3187,-528.8221 1298.6586,-519.6714 1288.7777,-523.4949 1293.3187,-528.8221"/>
</g>
<!-- NetworkManager&#45;wifi&#45;&gt;NetworkManager -->
<g id="edge51" class="edge">
<title>NetworkManager&#45;wifi&#45;&gt;NetworkManager</title>
<path fill="none" stroke="#444444" stroke-opacity="0.333333" d="M767.274,-626.3889C776.9257,-603.0024 793.758,-562.2169 804.9927,-534.9947"/>
<polygon fill="#444444" fill-opacity="0.333333" stroke="#444444" stroke-opacity="0.333333" points="808.2752,-536.2154 808.8549,-525.6365 801.8046,-533.5449 808.2752,-536.2154"/>
</g>
<!-- NetworkManager&#45;wifi&#45;&gt;wpa_supplicant -->
<g id="edge52" class="edge">
<title>NetworkManager&#45;wifi&#45;&gt;wpa_supplicant</title>
<path fill="none" stroke="#444444" stroke-opacity="0.333333" d="M754.3574,-663.0587C750.0858,-677.6644 744.0503,-698.3013 739.1955,-714.9011"/>
<polygon fill="#444444" fill-opacity="0.333333" stroke="#444444" stroke-opacity="0.333333" points="735.7994,-714.0448 736.3516,-724.6252 742.5179,-716.0097 735.7994,-714.0448"/>
</g>
<!-- psl&#45;&gt;libpsl -->
<g id="edge53" class="edge">
<title>psl&#45;&gt;libpsl</title>
<path fill="none" stroke="#444444" stroke-opacity="0.333333" d="M867.4917,-771.8467C867.4093,-756.6776 867.2902,-734.753 867.195,-717.2243"/>
<polygon fill="#444444" fill-opacity="0.333333" stroke="#444444" stroke-opacity="0.333333" points="870.6937,-716.9587 867.1393,-706.9779 863.6938,-716.9968 870.6937,-716.9587"/>
</g>
<!-- realmd&#45;&gt;authconfig -->
<g id="edge54" class="edge">
<title>realmd&#45;&gt;authconfig</title>
<path fill="none" stroke="#444444" stroke-opacity="0.333333" d="M687.7407,-898C669.1475,-898 646.8506,-898 625.7024,-898"/>
<polygon fill="#444444" fill-opacity="0.333333" stroke="#444444" stroke-opacity="0.333333" points="625.4341,-894.5001 615.434,-898 625.434,-901.5001 625.4341,-894.5001"/>
</g>
<!-- xmlrpc&#45;c&#45;client&#45;&gt;libcurl&#45;minimal -->
<g id="edge55" class="edge">
<title>xmlrpc&#45;c&#45;client&#45;&gt;libcurl&#45;minimal</title>
<path fill="none" stroke="#444444" stroke-opacity="0.333333" d="M596.882,-426.85C600.1264,-431.3471 603.6745,-436.2651 607.1517,-441.085"/>
<polygon fill="#444444" fill-opacity="0.333333" stroke="#444444" stroke-opacity="0.333333" points="604.5643,-443.4807 613.2535,-449.5427 610.2411,-439.3851 604.5643,-443.4807"/>
</g>
<!-- authconfig -->
<g id="node1" class="node">
<title>authconfig</title>
<text text-anchor="middle" x="550.84" y="-894.3" font-family="monospace" font-size="14.00" fill="#000000">authconfig</text>
</g>
<!-- python3&#45;sssdconfig -->
<g id="node2" class="node">
<title>python3&#45;sssdconfig</title>
<text text-anchor="middle" x="371.24" y="-894.3" font-family="monospace" font-size="14.00" fill="#000000">python3&#45;sssdconfig</text>
</g>
<!-- curl&#45;minimal -->
<g id="node3" class="node">
<title>curl&#45;minimal</title>
<text text-anchor="middle" x="489.58" y="-345.86" font-family="monospace" font-size="14.00" fill="#000000">curl&#45;minimal</text>
</g>
<!-- libcurl&#45;minimal -->
<g id="node4" class="node">
<title>libcurl&#45;minimal</title>
<text text-anchor="middle" x="626.49" y="-464.19" font-family="monospace" font-size="14.00" fill="#000000">libcurl&#45;minimal</text>
</g>
<!-- firewalld -->
<g id="node5" class="node">
<title>firewalld</title>
<text text-anchor="middle" x="106.42" y="-152.99" font-family="monospace" font-size="14.00" fill="#000000">firewalld</text>
</g>
<!-- firewalld&#45;filesystem -->
<g id="node6" class="node">
<title>firewalld&#45;filesystem</title>
<text text-anchor="middle" x="118.29" y="-87.077" font-family="monospace" font-size="14.00" fill="#000000">firewalld&#45;filesystem</text>
</g>
<!-- python3&#45;firewall -->
<g id="node7" class="node">
<title>python3&#45;firewall</title>
<text text-anchor="middle" x="186.51" y="-197.01" font-family="monospace" font-size="14.00" fill="#000000">python3&#45;firewall</text>
</g>
<!-- python3&#45;decorator -->
<g id="node8" class="node">
<title>python3&#45;decorator</title>
<text text-anchor="middle" x="188.42" y="-245.98" font-family="monospace" font-size="14.00" fill="#000000">python3&#45;decorator</text>
</g>
<!-- python3&#45;slip&#45;dbus -->
<g id="node9" class="node">
<title>python3&#45;slip&#45;dbus</title>
<text text-anchor="middle" x="400.51" y="-253.19" font-family="monospace" font-size="14.00" fill="#000000">python3&#45;slip&#45;dbus</text>
</g>
<!-- python3&#45;slip -->
<g id="node10" class="node">
<title>python3&#45;slip</title>
<text text-anchor="middle" x="306.14" y="-149.5" font-family="monospace" font-size="14.00" fill="#000000">python3&#45;slip</text>
</g>
<!-- libmbim -->
<g id="node11" class="node">
<title>libmbim</title>
<text text-anchor="middle" x="1188.5" y="-56" font-family="monospace" font-size="14.00" fill="#000000">libmbim</text>
</g>
<!-- libgudev -->
<g id="node12" class="node">
<title>libgudev</title>
<text text-anchor="middle" x="1298.8" y="-91.097" font-family="monospace" font-size="14.00" fill="#000000">libgudev</text>
</g>
<!-- libmbim&#45;utils -->
<g id="node13" class="node">
<title>libmbim&#45;utils</title>
<text text-anchor="middle" x="1307.9" y="-135.14" font-family="monospace" font-size="14.00" fill="#000000">libmbim&#45;utils</text>
</g>
<!-- libqmi -->
<g id="node14" class="node">
<title>libqmi</title>
<text text-anchor="middle" x="988.42" y="-14.3" font-family="monospace" font-size="14.00" fill="#000000">libqmi</text>
</g>
<!-- libqmi&#45;utils -->
<g id="node15" class="node">
<title>libqmi&#45;utils</title>
<text text-anchor="middle" x="1056.8" y="-58.382" font-family="monospace" font-size="14.00" fill="#000000">libqmi&#45;utils</text>
</g>
<!-- mariadb&#45;connector&#45;c -->
<g id="node16" class="node">
<title>mariadb&#45;connector&#45;c</title>
<text text-anchor="middle" x="528.34" y="-555.33" font-family="monospace" font-size="14.00" fill="#000000">mariadb&#45;connector&#45;c</text>
</g>
<!-- ModemManager -->
<g id="node17" class="node">
<title>ModemManager</title>
<text text-anchor="middle" x="1154.4" y="-179.16" font-family="monospace" font-size="14.00" fill="#000000">ModemManager</text>
</g>
<!-- ModemManager&#45;glib -->
<g id="node18" class="node">
<title>ModemManager&#45;glib</title>
<text text-anchor="middle" x="1068.7" y="-252.86" font-family="monospace" font-size="14.00" fill="#000000">ModemManager&#45;glib</text>
</g>
<!-- net&#45;snmp&#45;agent&#45;libs -->
<g id="node19" class="node">
<title>net&#45;snmp&#45;agent&#45;libs</title>
<text text-anchor="middle" x="404.64" y="-670.46" font-family="monospace" font-size="14.00" fill="#000000">net&#45;snmp&#45;agent&#45;libs</text>
</g>
<!-- lm_sensors&#45;libs -->
<g id="node20" class="node">
<title>lm_sensors&#45;libs</title>
<text text-anchor="middle" x="316.81" y="-582.4" font-family="monospace" font-size="14.00" fill="#000000">lm_sensors&#45;libs</text>
</g>
<!-- net&#45;snmp&#45;libs -->
<g id="node21" class="node">
<title>net&#45;snmp&#45;libs</title>
<text text-anchor="middle" x="327.59" y="-714.48" font-family="monospace" font-size="14.00" fill="#000000">net&#45;snmp&#45;libs</text>
</g>
<!-- net&#45;snmp -->
<g id="node22" class="node">
<title>net&#45;snmp</title>
<text text-anchor="middle" x="384.5" y="-626.44" font-family="monospace" font-size="14.00" fill="#000000">net&#45;snmp</text>
</g>
<!-- net&#45;snmp&#45;utils -->
<g id="node23" class="node">
<title>net&#45;snmp&#45;utils</title>
<text text-anchor="middle" x="250.44" y="-758.52" font-family="monospace" font-size="14.00" fill="#000000">net&#45;snmp&#45;utils</text>
</g>
<!-- NetworkManager&#45;adsl -->
<g id="node24" class="node">
<title>NetworkManager&#45;adsl</title>
<text text-anchor="middle" x="1008.4" y="-552.87" font-family="monospace" font-size="14.00" fill="#000000">NetworkManager&#45;adsl</text>
</g>
<!-- NetworkManager -->
<g id="node25" class="node">
<title>NetworkManager</title>
<text text-anchor="middle" x="816.41" y="-503.63" font-family="monospace" font-size="14.00" fill="#000000">NetworkManager</text>
</g>
<!-- libndp -->
<g id="node26" class="node">
<title>libndp</title>
<text text-anchor="middle" x="850.92" y="-596.88" font-family="monospace" font-size="14.00" fill="#000000">libndp</text>
</g>
<!-- libpsl -->
<g id="node27" class="node">
<title>libpsl</title>
<text text-anchor="middle" x="867.04" y="-684.99" font-family="monospace" font-size="14.00" fill="#000000">libpsl</text>
</g>
<!-- NetworkManager&#45;libnm -->
<g id="node28" class="node">
<title>NetworkManager&#45;libnm</title>
<text text-anchor="middle" x="1029.9" y="-464.83" font-family="monospace" font-size="14.00" fill="#000000">NetworkManager&#45;libnm</text>
</g>
<!-- NetworkManager&#45;bluetooth -->
<g id="node29" class="node">
<title>NetworkManager&#45;bluetooth</title>
<text text-anchor="middle" x="982.58" y="-363.62" font-family="monospace" font-size="14.00" fill="#000000">NetworkManager&#45;bluetooth</text>
</g>
<!-- bluez&#45;libs -->
<g id="node30" class="node">
<title>bluez&#45;libs</title>
<text text-anchor="middle" x="770.28" y="-348.88" font-family="monospace" font-size="14.00" fill="#000000">bluez&#45;libs</text>
</g>
<!-- NetworkManager&#45;wwan -->
<g id="node31" class="node">
<title>NetworkManager&#45;wwan</title>
<text text-anchor="middle" x="1059.8" y="-316.99" font-family="monospace" font-size="14.00" fill="#000000">NetworkManager&#45;wwan</text>
</g>
<!-- NetworkManager&#45;team -->
<g id="node32" class="node">
<title>NetworkManager&#45;team</title>
<text text-anchor="middle" x="1040.2" y="-679.7" font-family="monospace" font-size="14.00" fill="#000000">NetworkManager&#45;team</text>
</g>
<!-- teamd -->
<g id="node33" class="node">
<title>teamd</title>
<text text-anchor="middle" x="1150.5" y="-790.01" font-family="monospace" font-size="14.00" fill="#000000">teamd</text>
</g>
<!-- libteam -->
<g id="node34" class="node">
<title>libteam</title>
<text text-anchor="middle" x="1206.3" y="-860.95" font-family="monospace" font-size="14.00" fill="#000000">libteam</text>
</g>
<!-- NetworkManager&#45;tui -->
<g id="node35" class="node">
<title>NetworkManager&#45;tui</title>
<text text-anchor="middle" x="1120.1" y="-508.86" font-family="monospace" font-size="14.00" fill="#000000">NetworkManager&#45;tui</text>
</g>
<!-- newt -->
<g id="node36" class="node">
<title>newt</title>
<text text-anchor="middle" x="1267.9" y="-542.19" font-family="monospace" font-size="14.00" fill="#000000">newt</text>
</g>
<!-- slang -->
<g id="node37" class="node">
<title>slang</title>
<text text-anchor="middle" x="1320" y="-497.78" font-family="monospace" font-size="14.00" fill="#000000">slang</text>
</g>
<!-- NetworkManager&#45;wifi -->
<g id="node38" class="node">
<title>NetworkManager&#45;wifi</title>
<text text-anchor="middle" x="759.75" y="-640.92" font-family="monospace" font-size="14.00" fill="#000000">NetworkManager&#45;wifi</text>
</g>
<!-- wpa_supplicant -->
<g id="node39" class="node">
<title>wpa_supplicant</title>
<text text-anchor="middle" x="731.08" y="-738.95" font-family="monospace" font-size="14.00" fill="#000000">wpa_supplicant</text>
</g>
<!-- psl -->
<g id="node40" class="node">
<title>psl</title>
<text text-anchor="middle" x="867.59" y="-786.25" font-family="monospace" font-size="14.00" fill="#000000">psl</text>
</g>
<!-- realmd -->
<g id="node41" class="node">
<title>realmd</title>
<text text-anchor="middle" x="730.86" y="-894.3" font-family="monospace" font-size="14.00" fill="#000000">realmd</text>
</g>
<!-- xmlrpc&#45;c&#45;client -->
<g id="node42" class="node">
<title>xmlrpc&#45;c&#45;client</title>
<text text-anchor="middle" x="583.86" y="-405.1" font-family="monospace" font-size="14.00" fill="#000000">xmlrpc&#45;c&#45;client</text>
</g>
</g>
</svg>
