<?xml version="1.0" encoding="UTF-8" standalone="no"?>
<!DOCTYPE svg PUBLIC "-//W3C//DTD SVG 1.1//EN"
 "http://www.w3.org/Graphics/SVG/1.1/DTD/svg11.dtd">
<!-- Generated by graphviz version 2.40.1 (20161225.0304)
 -->
<!-- Title: G Pages: 1 -->
<svg width="1233pt" height="745pt"
 viewBox="0.00 0.00 1233.15 745.20" xmlns="http://www.w3.org/2000/svg" xmlns:xlink="http://www.w3.org/1999/xlink">
<g id="graph0" class="graph" transform="scale(1 1) rotate(0) translate(92.4753 641.1492)">
<title>G</title>
<polygon fill="#dae2ff" stroke="transparent" points="-92.4753,104.0464 -92.4753,-641.1492 1140.673,-641.1492 1140.673,104.0464 -92.4753,104.0464"/>
<polygon fill="#fbb4ae" stroke="#fbb4ae" points="684.8901,-469.1898 681.5232,-472.5786 659.5255,-493.4174 654.7936,-497.6957 650.0336,-528.1774 703.7792,-559.9543 744.0132,-579.0663 757.6525,-578.4751 770.9738,-578.3879 772.6255,-578.4379 776.3113,-578.6172 789.7213,-579.7646 792.1985,-580.0674 799.5795,-581.2422 799.7649,-581.1772 808.858,-578.3486 806.8974,-472.7383 810.0243,-471.4651 814.1038,-467.9691 813.5791,-467.3084 811.1288,-465.3374 811.1288,-465.3374 813.5791,-467.3084 814.1038,-467.9691 810.0243,-471.4651 806.8974,-472.7383 808.858,-578.3486 811.9004,-577.4633 825.7465,-574.2597 835.7638,-572.5436 841.5569,-571.6677 841.6592,-559.7572 840.9659,-510.3087 840.9659,-510.3087 841.6592,-559.7572 841.5569,-571.6677 862.5394,-570.1727 899.6669,-568.275 902.9592,-567.8515 910.0446,-563.3458 944.6949,-525.9033 947.8178,-484.1683 948.6302,-475.9565 951.0898,-455.9635 957.3431,-419.2419 956.5981,-384.9931 965.0103,-377.0405 976.8614,-371.5303 989.0075,-366.7729 993.3179,-365.243 1003.0985,-362.1273 1018.0504,-358.182 1014.4927,-282.0048 1014.9752,-249.8054 1010.6522,-246.5735 1009.3212,-244.6453 1008.3862,-243.9104 1007.6304,-242.98 1007.5462,-242.9625 1004.0389,-242.9625 1003.2935,-207.0673 1006.8018,-134.0547 993.5381,-143.1582 990.4527,-145.0957 988.291,-204.3025 984.9038,-238.3938 982.0479,-239.5146 978.0812,-242.707 978.1299,-242.769 978.1299,-242.769 978.0812,-242.707 982.0479,-239.5146 984.9038,-238.3938 988.291,-204.3025 990.4527,-145.0957 978.6135,-151.8585 971.909,-155.296 968.1986,-157.0892 959.8993,-160.6178 961.112,-222.0749 964.404,-241.0923 959.2242,-236.2011 929.2898,-235.6268 921.5493,-234.8521 902.5098,-181.7512 900.6523,-181.581 898.6376,-181.5505 896.8006,-181.5696 893.6402,-181.6833 891.2786,-221.9292 891.1495,-259.026 891.1495,-259.026 891.2786,-221.9292 893.6402,-181.6833 896.8006,-181.5696 898.6376,-181.5505 900.6523,-181.581 902.5098,-181.7512 921.5493,-234.8521 929.2898,-235.6268 959.2242,-236.2011 964.404,-241.0923 961.112,-222.0749 959.8993,-160.6178 968.1986,-157.0892 971.909,-155.296 978.6135,-151.8585 990.4527,-145.0957 993.5381,-143.1582 1006.8018,-134.0547 1003.2935,-207.0673 1004.0389,-242.9625 1007.5462,-242.9625 1007.6304,-242.98 1008.3862,-243.9104 1009.3212,-244.6453 1010.6522,-246.5735 1014.9752,-249.8054 1014.4927,-282.0048 1018.0504,-358.182 1069.3363,-346.5434 1120.5142,-310.6234 1129.7554,-247.3437 1133.4746,-229.4341 1136.673,-215.3999 1061.5741,-139.1204 1024.613,-119.5697 1022.524,-112.1476 1017.4772,-90.9711 1013.9939,-74.8438 908.9329,-90.7394 904.6555,-95.1641 904.313,-95.3454 902.7233,-96.8156 903.8423,-97.9332 905.3351,-100.7426 900.7168,-171.7656 900.4493,-159.9539 901.2623,-96.9813 901.2623,-96.9813 900.4493,-159.9539 900.7168,-171.7656 905.3351,-100.7426 903.8423,-97.9332 902.7233,-96.8156 904.313,-95.3454 904.6555,-95.1641 908.9329,-90.7394 1013.9939,-74.8438 1004.5521,-25.9742 952.2124,6.4399 910.2297,13.7869 894.2417,17.2126 883.2683,20.4179 882.3678,-50.0725 881.3505,-66.147 877.0089,-95.0026 875.4483,-96.3053 874.6412,-97.387 874.7437,-97.5174 876.6922,-99.1268 876.6922,-99.1268 874.7437,-97.5174 874.6412,-97.387 875.4483,-96.3053 877.0089,-95.0026 881.3505,-66.147 882.3678,-50.0725 883.2683,20.4179 873.1403,23.9716 865.5135,26.9464 863.8275,26.126 851.8425,20.7873 805.4026,1.0784 804.839,.4273 744.3011,-77.9938 731.4834,-93.2863 737.4056,-99.8772 723.6189,-220.2532 792.301,-209.1 786.6183,-227.3938 784.7348,-234.3665 780.2217,-258.1802 824.8591,-262.5011 824.8591,-262.5011 780.2217,-258.1802 784.7348,-234.3665 786.6183,-227.3938 792.301,-209.1 723.6189,-220.2532 737.4056,-99.8772 731.4834,-93.2863 713.8945,-94.4416 702.3196,-94.5041 691.4459,-94.0712 681.7323,-93.3919 678.7267,-93.1366 664.4556,-91.4957 612.6272,-122.1179 592.5809,-145.9752 574.6685,-213.7758 566.9287,-238.6124 565.9568,-241.5209 679.6844,-233.1826 682.5042,-230.7627 685.4156,-249.1926 686.3194,-288.0067 691.3917,-226.833 692.6646,-226.833 693.3807,-227.5429 698.1636,-230.5285 701.6424,-231.2456 705.4807,-230.4461 705.4807,-230.4461 701.6424,-231.2456 698.1636,-230.5285 693.3807,-227.5429 692.6646,-226.833 691.3917,-226.833 686.3194,-288.0067 685.4156,-249.1926 682.5042,-230.7627 679.6844,-233.1826 565.9568,-241.5209 548.9498,-289.1949 550.8233,-290.4879 565.6552,-299.8226 568.0886,-301.3032 588.0145,-313.0139 675.7108,-308.2966 686.0771,-308.0034 686.1466,-308.0068 688.7971,-308.0647 696.6552,-308.0264 699.6729,-307.931 700.2931,-307.9432 703.5516,-307.8333 710.3699,-308.1274 713.1038,-308.0992 720.8111,-308.4146 731.9029,-309.1528 762.732,-311.9865 806.0065,-364.0338 800.0429,-371.0626 798.9087,-372.3434 788.3383,-382.8332 787.4564,-383.6665 780.8241,-391.1738 779.2034,-392.9095 771.8985,-399.8985 768.2324,-403.191 767.559,-403.7191 759.2092,-410.8403 760.021,-443.0316 758.3805,-461.3242 758.3805,-461.3242 760.021,-443.0316 759.2092,-410.8403 715.8628,-442.3799 705.0806,-450.9758 697.8653,-457.1772 696.251,-458.3617 684.8901,-469.1898 684.8901,-469.1898"/>
<polygon fill="#fed9a6" stroke="#fed9a6" points="347.2367,-374.8633 330.4106,-377.6705 316.6755,-379.6313 308.0346,-381.0796 299.1988,-382.9976 288.8924,-385.7434 283.3706,-387.4843 280.3028,-434.3095 280.0053,-445.2973 279.0151,-460.1027 279.0685,-464.4848 278.7453,-476.3558 316.2174,-472.2774 339.1293,-472.3021 342.9293,-469.2958 344.7202,-466.5428 348.0881,-482.224 346.8762,-530.3926 350.1685,-527.204 404.1223,-524.7345 408.1506,-520.8566 408.4588,-520.2795 410.9021,-518.0558 411.334,-517.8368 412.1977,-517.8368 413.1134,-518.0327 415.0818,-518.0327 416.2654,-518.2838 417.9828,-518.2838 418.7739,-518.1105 420.6851,-518.1105 423.5471,-515.5319 427.4923,-513.7542 432.0749,-513.7542 434.8704,-514.9113 438.1703,-517.6885 438.2262,-517.7618 439.5891,-518.0652 443.0026,-518.0652 443.9564,-518.2731 446.0121,-518.2731 446.0593,-518.2833 452.7521,-616.337 452.5156,-546.522 452.5156,-546.522 452.7521,-616.337 446.0593,-518.2833 446.0121,-518.2731 443.9564,-518.2731 443.0026,-518.0652 439.5891,-518.0652 438.2262,-517.7618 438.1703,-517.6885 434.8704,-514.9113 432.0749,-513.7542 427.4923,-513.7542 423.5471,-515.5319 420.6851,-518.1105 418.7739,-518.1105 417.9828,-518.2838 416.2654,-518.2838 415.0818,-518.0327 413.1134,-518.0327 412.1977,-517.8368 411.334,-517.8368 410.9021,-518.0558 408.4588,-520.2795 408.1506,-520.8566 404.1223,-524.7345 350.1685,-527.204 346.8762,-530.3926 348.0881,-482.224 344.7202,-466.5428 342.9293,-469.2958 339.1293,-472.3021 316.2174,-472.2774 278.7453,-476.3558 278.6978,-476.8071 273.4833,-556.3982 311.1118,-573.6066 366.749,-636.9253 371.0873,-637.1492 406.2524,-632.7577 410.9626,-632.4296 416.3345,-632.1542 422.9686,-630.108 438.0745,-626.3645 452.9409,-623.8864 494.7673,-619.4593 560.3702,-554.7455 561.5087,-554.5822 602.7404,-550.187 650.0336,-528.1774 654.7936,-497.6957 659.5255,-493.4174 681.5232,-472.5786 684.8901,-469.1898 696.251,-458.3617 697.8653,-457.1772 705.0806,-450.9758 715.8628,-442.3799 759.2092,-410.8403 767.559,-403.7191 768.2324,-403.191 771.8985,-399.8985 779.2034,-392.9095 780.8241,-391.1738 787.4564,-383.6665 788.3383,-382.8332 798.9087,-372.3434 800.0429,-371.0626 806.0065,-364.0338 762.732,-311.9865 731.9029,-309.1528 720.8111,-308.4146 713.1038,-308.0992 710.3699,-308.1274 708.965,-366.4797 705.8324,-385.9005 705.1754,-386.851 705.5365,-387.8593 705.5365,-391.782 703.5914,-392.986 703.5914,-392.986 705.5365,-391.782 705.5365,-387.8593 705.1754,-386.851 705.8324,-385.9005 708.965,-366.4797 710.3699,-308.1274 703.5516,-307.8333 700.2931,-307.9432 699.6729,-307.931 696.6552,-308.0264 688.7971,-308.0647 686.1466,-308.0068 686.0771,-308.0034 675.7108,-308.2966 588.0145,-313.0139 568.0886,-301.3032 565.6552,-299.8226 550.8233,-290.4879 548.9498,-289.1949 541.4966,-290.9366 536.0266,-292.1334 522.608,-294.67 522.5818,-294.6746 455.6212,-304.334 432.6039,-341.1435 383.9134,-363.0582 375.2424,-366.5551 372.6667,-367.4724 364.2982,-370.2576 359.9775,-371.593 354.9031,-373.0405 347.2367,-374.8633 347.2367,-374.8633"/>
<polygon fill="#ccebc5" stroke="#ccebc5" points="55.6903,-574.7333 55.7704,-496.7361 55.7704,-496.7361 55.6903,-574.7333 60.5752,-576.0113 67.1803,-577.8736 73.0894,-579.9012 76.2998,-472.6348 79.1817,-473.7779 83.4618,-473.7779 88.2743,-471.75 89.8981,-470.4676 90.7183,-469.4453 86.3054,-465.7484 83.5431,-464.6658 80.1701,-464.6658 80.1701,-464.6658 83.5431,-464.6658 86.3054,-465.7484 90.7183,-469.4453 89.8981,-470.4676 88.2743,-471.75 83.4618,-473.7779 79.1817,-473.7779 76.2998,-472.6348 73.0894,-579.9012 83.1222,-583.5499 98.0766,-589.9014 98.8305,-590.2515 101.1226,-509.3546 101.0772,-507.9073 101.0772,-507.9073 101.1226,-509.3546 98.8305,-590.2515 101.4031,-591.6053 119.4699,-594.3342 120.31,-594.4749 161.1431,-575.5358 170.822,-574.142 176.3065,-573.4487 181.2061,-572.9156 193.423,-572.0178 196.3423,-571.0153 195.9456,-537.338 196.2157,-518.8168 201.1243,-461.7282 203.65,-460.2104 205.7565,-458.0067 203.7272,-455.8512 200.8522,-454.0898 200.8522,-454.0898 203.7272,-455.8512 205.7565,-458.0067 203.65,-460.2104 201.1243,-461.7282 196.2157,-518.8168 195.9456,-537.338 196.3423,-571.0153 209.1851,-567.6046 228.147,-564.0365 273.4833,-556.3982 278.6978,-476.8071 278.7453,-476.3558 279.0685,-464.4848 279.0151,-460.1027 280.0053,-445.2973 280.3028,-434.3095 283.3706,-387.4843 288.8924,-385.7434 290.8094,-327.0498 290.8094,-327.0498 288.8924,-385.7434 299.1988,-382.9976 308.0346,-381.0796 316.6755,-379.6313 312.7928,-297.8531 309.5216,-295.2432 308.7486,-293.8779 307.7928,-293.1024 307.7928,-289.0499 305.3936,-287.46 305.3936,-287.46 307.7928,-289.0499 307.7928,-293.1024 308.7486,-293.8779 309.5216,-295.2432 312.7928,-297.8531 316.6755,-379.6313 330.4106,-377.6705 347.2367,-374.8633 354.9031,-373.0405 359.9775,-371.593 364.2982,-370.2576 372.6667,-367.4724 375.2424,-366.5551 383.9134,-363.0582 432.6039,-341.1435 455.6212,-304.334 455.1915,-303.7935 423.642,-259.9212 371.4393,-184.0526 411.0601,-98.1409 410.8989,-95.7228 410.3734,-70.2432 410.4201,-52.291 411.0761,-26.7432 402.8549,-8.9914 367.0522,31.9229 349.4075,39.3341 335.6828,53.53 256.1979,89.6823 253.4929,90.1016 237.7738,92.8699 234.5862,93.4973 234.3162,93.5153 223.8917,94.6278 224.4678,33.1023 222.5675,-15.2771 220.7993,-16.8048 220.7993,-18.4871 223.0219,-20.5813 227.017,-22.4355 231.6425,-22.4355 234.0152,-21.4172 239.6385,-53.4825 239.6385,-53.4825 234.0152,-21.4172 231.6425,-22.4355 227.017,-22.4355 223.0219,-20.5813 220.7993,-18.4871 220.7993,-16.8048 222.5675,-15.2771 224.4678,33.1023 223.8917,94.6278 220.8115,95.0797 201.9665,98.2228 215.0289,-11.5002 126.9274,-2.9426 148.7824,-22.0365 149.2226,-22.4494 201.5625,-22.4911 201.5625,-22.4911 149.2226,-22.4494 148.7824,-22.0365 126.9274,-2.9426 215.0289,-11.5002 201.9665,98.2228 192.1811,100.0464 105.2924,14.9782 102.6762,14.161 75.1462,-15.3947 46.2443,-77.1465 39.4796,-90.8095 40.3438,-91.701 48.3897,-99.1574 48.888,-99.6018 52.6375,-103.2617 52.9229,-103.5293 150.5307,-101.779 152.3076,-115.6387 155.9568,-97.7532 157.3165,-96.7657 160.4382,-114.5213 163.7737,-97.5062 165.1269,-98.3506 171.3216,-99.7713 173.2027,-99.383 179.2265,-95.2996 177.6641,-93.5413 173.5327,-90.8232 170.3972,-90.1737 166.9713,-90.8905 166.9713,-90.8905 170.3972,-90.1737 173.5327,-90.8232 177.6641,-93.5413 179.2265,-95.2996 173.2027,-99.383 176.1608,-113.5119 179.8593,-95.4423 182.0294,-95.4423 182.1476,-95.4677 180.4112,-194.8057 194.4278,-207.9496 188.5411,-115.351 184.3492,-97.5609 184.3492,-97.5609 188.5411,-115.351 194.4278,-207.9496 199.0357,-212.6084 200.6988,-214.1561 254.4289,-185.1489 285.9497,-184.765 292.2491,-184.5632 290.5518,-128.2848 290.5518,-128.2848 292.2491,-184.5632 285.9497,-184.765 254.4289,-185.1489 200.6988,-214.1561 199.0357,-212.6084 194.4278,-207.9496 180.4112,-194.8057 182.1476,-95.4677 182.0294,-95.4423 179.8593,-95.4423 176.1608,-113.5119 173.2027,-99.383 171.3216,-99.7713 165.1269,-98.3506 163.7737,-97.5062 160.4382,-114.5213 157.3165,-96.7657 155.9568,-97.7532 152.3076,-115.6387 150.5307,-101.779 52.9229,-103.5293 61.456,-111.9159 61.2639,-141.8642 62.4074,-184.2668 60.4628,-204.3496 65.4353,-204.3496 67.9517,-205.4126 71.8315,-208.8562 68.0753,-212.0182 65.2791,-213.1527 65.2791,-213.1527 68.0753,-212.0182 71.8315,-208.8562 67.9517,-205.4126 65.4353,-204.3496 60.4628,-204.3496 62.4074,-184.2668 61.2639,-141.8642 61.456,-111.9159 52.9229,-103.5293 52.6375,-103.2617 48.888,-99.6018 48.3897,-99.1574 40.3438,-91.701 39.4796,-90.8095 -18.5266,-109.2526 -34.8075,-123.9704 -60.225,-195.7779 -63.7765,-205.1095 -74.6375,-230.1674 -75.0369,-231.0395 -69.6494,-247.9328 -82.8086,-317.5454 -84.4845,-325.3999 -84.7835,-326.6587 -88.4753,-340.752 -86.8259,-345.045 15.1859,-335.1554 17.8958,-359.9885 19.6837,-330.787 20.1279,-330.386 23.1841,-332.3918 27.4428,-333.3202 27.4428,-333.3202 23.1841,-332.3918 20.1279,-330.386 19.6837,-330.787 17.8958,-359.9885 15.1859,-335.1554 -86.8259,-345.045 -57.3242,-427.3072 -64.5644,-455.2357 -69.8716,-474.1935 -70.616,-476.3788 -49.2159,-549.2622 -43.655,-552.7743 55.6903,-574.7333 55.6903,-574.7333"/>
<polyline fill="none" stroke="#000000" points="956.5981,-384.9931 965.0103,-377.0405 976.8614,-371.5303 989.0075,-366.7729 993.3179,-365.243 1003.0985,-362.1273 1018.0504,-358.182 1069.3363,-346.5434 1120.5142,-310.6234 1129.7554,-247.3437 1133.4746,-229.4341 1136.673,-215.3999 1061.5741,-139.1204 1024.613,-119.5697 1022.524,-112.1476 1017.4772,-90.9711 1013.9939,-74.8438 1004.5521,-25.9742 952.2124,6.4399 910.2297,13.7869 894.2417,17.2126 883.2683,20.4179 873.1403,23.9716 865.5135,26.9464 863.8275,26.126 851.8425,20.7873 805.4026,1.0784 804.839,.4273 744.3011,-77.9938 731.4834,-93.2863 713.8945,-94.4416 702.3196,-94.5041 691.4459,-94.0712 681.7323,-93.3919 678.7267,-93.1366 664.4556,-91.4957 612.6272,-122.1179 592.5809,-145.9752 574.6685,-213.7758 566.9287,-238.6124 565.9568,-241.5209 548.9498,-289.1949 550.8233,-290.4879 565.6552,-299.8226 568.0886,-301.3032 588.0145,-313.0139 675.7108,-308.2966 686.0771,-308.0034 686.1466,-308.0068 688.7971,-308.0647 696.6552,-308.0264 699.6729,-307.931 700.2931,-307.9432 703.5516,-307.8333 710.3699,-308.1274 713.1038,-308.0992 720.8111,-308.4146 731.9029,-309.1528 762.732,-311.9865 806.0065,-364.0338 800.0429,-371.0626 798.9087,-372.3434 788.3383,-382.8332 787.4564,-383.6665 780.8241,-391.1738 779.2034,-392.9095 771.8985,-399.8985 768.2324,-403.191 767.559,-403.7191 759.2092,-410.8403 715.8628,-442.3799 705.0806,-450.9758 697.8653,-457.1772 696.251,-458.3617 684.8901,-469.1898 681.5232,-472.5786 659.5255,-493.4174 654.7936,-497.6957 650.0336,-528.1774 703.7792,-559.9543 744.0132,-579.0663 757.6525,-578.4751 770.9738,-578.3879 772.6255,-578.4379 776.3113,-578.6172 789.7213,-579.7646 792.1985,-580.0674 799.5795,-581.2422 799.7649,-581.1772 808.858,-578.3486 811.9004,-577.4633 825.7465,-574.2597 835.7638,-572.5436 841.5569,-571.6677 862.5394,-570.1727 899.6669,-568.275 902.9592,-567.8515 910.0446,-563.3458 944.6949,-525.9033 947.8178,-484.1683 948.6302,-475.9565 951.0898,-455.9635 957.3431,-419.2419 956.5981,-384.9931 "/>
<polyline fill="none" stroke="#000000" points="548.9498,-289.1949 541.4966,-290.9366 536.0266,-292.1334 522.608,-294.67 522.5818,-294.6746 455.6212,-304.334 432.6039,-341.1435 383.9134,-363.0582 375.2424,-366.5551 372.6667,-367.4724 364.2982,-370.2576 359.9775,-371.593 354.9031,-373.0405 347.2367,-374.8633 330.4106,-377.6705 316.6755,-379.6313 308.0346,-381.0796 299.1988,-382.9976 288.8924,-385.7434 283.3706,-387.4843 280.3028,-434.3095 280.0053,-445.2973 279.0151,-460.1027 279.0685,-464.4848 278.7453,-476.3558 278.6978,-476.8071 273.4833,-556.3982 311.1118,-573.6066 366.749,-636.9253 371.0873,-637.1492 406.2524,-632.7577 410.9626,-632.4296 416.3345,-632.1542 422.9686,-630.108 438.0745,-626.3645 452.9409,-623.8864 494.7673,-619.4593 560.3702,-554.7455 561.5087,-554.5822 602.7404,-550.187 650.0336,-528.1774 654.7936,-497.6957 659.5255,-493.4174 681.5232,-472.5786 684.8901,-469.1898 696.251,-458.3617 697.8653,-457.1772 705.0806,-450.9758 715.8628,-442.3799 759.2092,-410.8403 767.559,-403.7191 768.2324,-403.191 771.8985,-399.8985 779.2034,-392.9095 780.8241,-391.1738 787.4564,-383.6665 788.3383,-382.8332 798.9087,-372.3434 800.0429,-371.0626 806.0065,-364.0338 762.732,-311.9865 731.9029,-309.1528 720.8111,-308.4146 713.1038,-308.0992 710.3699,-308.1274 703.5516,-307.8333 700.2931,-307.9432 699.6729,-307.931 696.6552,-308.0264 688.7971,-308.0647 686.1466,-308.0068 686.0771,-308.0034 675.7108,-308.2966 588.0145,-313.0139 568.0886,-301.3032 565.6552,-299.8226 550.8233,-290.4879 548.9498,-289.1949 "/>
<polyline fill="none" stroke="#000000" points="410.3734,-70.2432 410.4201,-52.291 411.0761,-26.7432 402.8549,-8.9914 367.0522,31.9229 349.4075,39.3341 335.6828,53.53 256.1979,89.6823 253.4929,90.1016 237.7738,92.8699 234.5862,93.4973 234.3162,93.5153 223.8917,94.6278 220.8115,95.0797 201.9665,98.2228 192.1811,100.0464 105.2924,14.9782 102.6762,14.161 75.1462,-15.3947 46.2443,-77.1465 39.4796,-90.8095 -18.5266,-109.2526 -34.8075,-123.9704 -60.225,-195.7779 -63.7765,-205.1095 -74.6375,-230.1674 -75.0369,-231.0395 -69.6494,-247.9328 -82.8086,-317.5454 -84.4845,-325.3999 -84.7835,-326.6587 -88.4753,-340.752 -86.8259,-345.045 -57.3242,-427.3072 -64.5644,-455.2357 -69.8716,-474.1935 -70.616,-476.3788 -49.2159,-549.2622 -43.655,-552.7743 55.6903,-574.7333 60.5752,-576.0113 67.1803,-577.8736 73.0894,-579.9012 83.1222,-583.5499 98.0766,-589.9014 98.8305,-590.2515 101.4031,-591.6053 119.4699,-594.3342 120.31,-594.4749 161.1431,-575.5358 170.822,-574.142 176.3065,-573.4487 181.2061,-572.9156 193.423,-572.0178 196.3423,-571.0153 209.1851,-567.6046 228.147,-564.0365 273.4833,-556.3982 278.6978,-476.8071 278.7453,-476.3558 279.0685,-464.4848 279.0151,-460.1027 280.0053,-445.2973 280.3028,-434.3095 283.3706,-387.4843 288.8924,-385.7434 299.1988,-382.9976 308.0346,-381.0796 316.6755,-379.6313 330.4106,-377.6705 347.2367,-374.8633 354.9031,-373.0405 359.9775,-371.593 364.2982,-370.2576 372.6667,-367.4724 375.2424,-366.5551 383.9134,-363.0582 432.6039,-341.1435 455.6212,-304.334 455.1915,-303.7935 423.642,-259.9212 371.4393,-184.0526 411.0601,-98.1409 410.8989,-95.7228 410.3734,-70.2432 "/>
<!-- autoconf&#45;&gt;emacs&#45;filesystem -->
<g id="edge1" class="edge">
<title>autoconf&#45;&gt;emacs&#45;filesystem</title>
<path fill="none" stroke="#444444" stroke-opacity="0.333333" d="M860.59,-284.3579C849.8627,-319.8975 826.1453,-398.473 813.4781,-440.4396"/>
<polygon fill="#444444" fill-opacity="0.333333" stroke="#444444" stroke-opacity="0.333333" points="810.1226,-439.4442 810.5836,-450.0291 816.824,-441.467 810.1226,-439.4442"/>
</g>
<!-- emacs&#45;filesystem&#45;&gt;libgcc -->
<g id="edge2" class="edge">
<title>emacs&#45;filesystem&#45;&gt;libgcc</title>
<path fill="none" stroke="#444444" stroke-opacity="0.333333" d="M708.0983,-457.0111C670.1355,-452.6605 628.0632,-447.8389 595.8333,-444.1452"/>
<polygon fill="#444444" fill-opacity="0.333333" stroke="#444444" stroke-opacity="0.333333" points="596.0661,-440.6491 585.7326,-442.9877 595.269,-447.6036 596.0661,-440.6491"/>
</g>
<!-- automake&#45;&gt;autoconf -->
<g id="edge3" class="edge">
<title>automake&#45;&gt;autoconf</title>
<path fill="none" stroke="#444444" stroke-opacity="0.333333" d="M881.9158,-115.2345C878.8365,-144.6203 872.7222,-202.9696 869.0668,-237.8535"/>
<polygon fill="#444444" fill-opacity="0.333333" stroke="#444444" stroke-opacity="0.333333" points="865.5787,-237.5578 868.0173,-247.8681 872.5406,-238.2874 865.5787,-237.5578"/>
</g>
<!-- cpp&#45;&gt;libmpc -->
<g id="edge4" class="edge">
<title>cpp&#45;&gt;libmpc</title>
<path fill="none" stroke="#444444" stroke-opacity="0.333333" d="M271.6724,-81.9828C257.6827,-83.7873 240.1477,-86.0491 223.6129,-88.1819"/>
<polygon fill="#444444" fill-opacity="0.333333" stroke="#444444" stroke-opacity="0.333333" points="222.9576,-84.7374 213.4876,-89.488 223.8532,-91.6799 222.9576,-84.7374"/>
</g>
<!-- cpp&#45;&gt;mpfr -->
<g id="edge5" class="edge">
<title>cpp&#45;&gt;mpfr</title>
<path fill="none" stroke="#444444" stroke-opacity="0.333333" d="M277.9457,-60.3221C271.5741,-54.8218 264.462,-48.6822 257.6745,-42.8227"/>
<polygon fill="#444444" fill-opacity="0.333333" stroke="#444444" stroke-opacity="0.333333" points="259.7762,-40.0133 249.9195,-36.1281 255.202,-45.3121 259.7762,-40.0133"/>
</g>
<!-- libmpc&#45;&gt;mpfr -->
<g id="edge6" class="edge">
<title>libmpc&#45;&gt;mpfr</title>
<path fill="none" stroke="#444444" stroke-opacity="0.333333" d="M184.1845,-76.7979C191.5591,-67.105 200.7539,-55.0199 208.8862,-44.3313"/>
<polygon fill="#444444" fill-opacity="0.333333" stroke="#444444" stroke-opacity="0.333333" points="211.8556,-46.2088 215.1252,-36.1311 206.2847,-41.9702 211.8556,-46.2088"/>
</g>
<!-- gcc&#45;&gt;libgcc -->
<g id="edge7" class="edge">
<title>gcc&#45;&gt;libgcc</title>
<path fill="none" stroke="#444444" stroke-opacity="0.333333" d="M328.5332,-307.6259C371.4527,-333.7782 455.0319,-384.706 504.084,-414.5952"/>
<polygon fill="#444444" fill-opacity="0.333333" stroke="#444444" stroke-opacity="0.333333" points="502.4629,-417.7059 512.8237,-419.9206 506.1053,-411.7282 502.4629,-417.7059"/>
</g>
<!-- gcc&#45;&gt;cpp -->
<g id="edge8" class="edge">
<title>gcc&#45;&gt;cpp</title>
<path fill="none" stroke="#444444" stroke-opacity="0.333333" d="M301.1279,-272.925C300.7143,-235.8206 299.7684,-150.9786 299.2741,-106.6354"/>
<polygon fill="#444444" fill-opacity="0.333333" stroke="#444444" stroke-opacity="0.333333" points="302.7729,-106.5025 299.1616,-96.5422 295.7733,-106.5806 302.7729,-106.5025"/>
</g>
<!-- gcc&#45;&gt;libmpc -->
<g id="edge9" class="edge">
<title>gcc&#45;&gt;libmpc</title>
<path fill="none" stroke="#444444" stroke-opacity="0.333333" d="M289.237,-272.963C266.0286,-238.2514 215.1471,-162.1505 188.0673,-121.6486"/>
<polygon fill="#444444" fill-opacity="0.333333" stroke="#444444" stroke-opacity="0.333333" points="190.8216,-119.471 182.3538,-113.1033 185.0024,-123.3617 190.8216,-119.471"/>
</g>
<!-- gcc&#45;&gt;mpfr -->
<g id="edge10" class="edge">
<title>gcc&#45;&gt;mpfr</title>
<path fill="none" stroke="#444444" stroke-opacity="0.333333" d="M296.4665,-272.7104C284.0741,-225.9799 251.2451,-102.1854 236.3985,-46.2005"/>
<polygon fill="#444444" fill-opacity="0.333333" stroke="#444444" stroke-opacity="0.333333" points="239.7087,-45.0285 233.7623,-36.2597 232.9426,-46.8228 239.7087,-45.0285"/>
</g>
<!-- gcc&#45;&gt;binutils -->
<g id="edge11" class="edge">
<title>gcc&#45;&gt;binutils</title>
<path fill="none" stroke="#444444" stroke-opacity="0.333333" d="M273.97,-281.5942C237.7962,-269.0924 172.9994,-246.6983 124.6943,-230.0037"/>
<polygon fill="#444444" fill-opacity="0.333333" stroke="#444444" stroke-opacity="0.333333" points="125.5549,-226.5981 114.9601,-226.6396 123.2683,-233.2141 125.5549,-226.5981"/>
</g>
<!-- gcc&#45;&gt;isl -->
<g id="edge12" class="edge">
<title>gcc&#45;&gt;isl</title>
<path fill="none" stroke="#444444" stroke-opacity="0.333333" d="M274.0233,-294.7867C224.6235,-301.5467 120.3599,-315.8144 64.3888,-323.4736"/>
<polygon fill="#444444" fill-opacity="0.333333" stroke="#444444" stroke-opacity="0.333333" points="63.6294,-320.0448 54.1963,-324.8684 64.5785,-326.9802 63.6294,-320.0448"/>
</g>
<!-- gcc&#45;&gt;libasan -->
<g id="edge13" class="edge">
<title>gcc&#45;&gt;libasan</title>
<path fill="none" stroke="#444444" stroke-opacity="0.333333" d="M307.5137,-309.0673C317.959,-339.5014 339.1693,-401.3015 351.5808,-437.4644"/>
<polygon fill="#444444" fill-opacity="0.333333" stroke="#444444" stroke-opacity="0.333333" points="348.4235,-439.047 354.9802,-447.3693 355.0444,-436.7746 348.4235,-439.047"/>
</g>
<!-- gcc&#45;&gt;libatomic -->
<g id="edge14" class="edge">
<title>gcc&#45;&gt;libatomic</title>
<path fill="none" stroke="#444444" stroke-opacity="0.333333" d="M279.0585,-309.1296C239.4234,-341.3047 156.6179,-408.5246 111.8858,-444.8373"/>
<polygon fill="#444444" fill-opacity="0.333333" stroke="#444444" stroke-opacity="0.333333" points="109.5534,-442.2226 103.9955,-451.2426 113.9653,-447.6573 109.5534,-442.2226"/>
</g>
<!-- gcc&#45;&gt;libgomp -->
<g id="edge15" class="edge">
<title>gcc&#45;&gt;libgomp</title>
<path fill="none" stroke="#444444" stroke-opacity="0.333333" d="M289.963,-309.2279C271.5352,-338.6972 235.0521,-397.04 213.6698,-431.234"/>
<polygon fill="#444444" fill-opacity="0.333333" stroke="#444444" stroke-opacity="0.333333" points="210.6574,-429.4501 208.323,-439.7846 216.5926,-433.1615 210.6574,-429.4501"/>
</g>
<!-- gcc&#45;&gt;libubsan -->
<g id="edge16" class="edge">
<title>gcc&#45;&gt;libubsan</title>
<path fill="none" stroke="#444444" stroke-opacity="0.333333" d="M311.5884,-309.2442C334.0106,-349.0121 387.4913,-443.8652 413.9566,-490.8037"/>
<polygon fill="#444444" fill-opacity="0.333333" stroke="#444444" stroke-opacity="0.333333" points="411.0625,-492.7973 419.0227,-499.7891 417.1601,-489.3593 411.0625,-492.7973"/>
</g>
<!-- libasan&#45;&gt;libgcc -->
<g id="edge17" class="edge">
<title>libasan&#45;&gt;libgcc</title>
<path fill="none" stroke="#444444" stroke-opacity="0.333333" d="M409.3397,-458.2501C433.9628,-454.5146 464.0004,-449.9578 489.3166,-446.1172"/>
<polygon fill="#444444" fill-opacity="0.333333" stroke="#444444" stroke-opacity="0.333333" points="490.1234,-449.535 499.4853,-444.5746 489.0734,-442.6142 490.1234,-449.535"/>
</g>
<!-- libubsan&#45;&gt;libgcc -->
<g id="edge18" class="edge">
<title>libubsan&#45;&gt;libgcc</title>
<path fill="none" stroke="#444444" stroke-opacity="0.333333" d="M455.0236,-499.91C470.8038,-488.7567 491.2071,-474.3358 508.3453,-462.2227"/>
<polygon fill="#444444" fill-opacity="0.333333" stroke="#444444" stroke-opacity="0.333333" points="510.822,-464.7582 516.968,-456.1282 506.7817,-459.0418 510.822,-464.7582"/>
</g>
<!-- libtool&#45;&gt;autoconf -->
<g id="edge19" class="edge">
<title>libtool&#45;&gt;autoconf</title>
<path fill="none" stroke="#444444" stroke-opacity="0.333333" d="M750.1745,-238.2218C766.4015,-242.1196 784.7538,-246.5279 801.9909,-250.6683"/>
<polygon fill="#444444" fill-opacity="0.333333" stroke="#444444" stroke-opacity="0.333333" points="801.4455,-254.1368 811.9864,-253.0693 803.0805,-247.3304 801.4455,-254.1368"/>
</g>
<!-- libtool&#45;&gt;automake -->
<g id="edge20" class="edge">
<title>libtool&#45;&gt;automake</title>
<path fill="none" stroke="#444444" stroke-opacity="0.333333" d="M727.4486,-208.3201C759.436,-185.5793 814.1708,-146.6666 849.6597,-121.4365"/>
<polygon fill="#444444" fill-opacity="0.333333" stroke="#444444" stroke-opacity="0.333333" points="852.1199,-123.9819 858.2421,-115.335 848.0638,-118.2767 852.1199,-123.9819"/>
</g>
<!-- libtool&#45;&gt;gcc -->
<g id="edge21" class="edge">
<title>libtool&#45;&gt;gcc</title>
<path fill="none" stroke="#444444" stroke-opacity="0.333333" d="M653.45,-234.3654C572.5613,-247.3869 411.4175,-273.328 338.5921,-285.0515"/>
<polygon fill="#444444" fill-opacity="0.333333" stroke="#444444" stroke-opacity="0.333333" points="337.8248,-281.6299 328.5083,-286.6748 338.9374,-288.5409 337.8248,-281.6299"/>
</g>
<!-- libtool&#45;&gt;findutils -->
<g id="edge22" class="edge">
<title>libtool&#45;&gt;findutils</title>
<path fill="none" stroke="#444444" stroke-opacity="0.333333" d="M749.8533,-229.3417C795.8846,-231.9749 865.8143,-235.9751 917.8634,-238.9525"/>
<polygon fill="#444444" fill-opacity="0.333333" stroke="#444444" stroke-opacity="0.333333" points="917.8388,-242.4568 928.0224,-239.5337 918.2386,-235.4682 917.8388,-242.4568"/>
</g>
<!-- libtool&#45;&gt;tar -->
<g id="edge23" class="edge">
<title>libtool&#45;&gt;tar</title>
<path fill="none" stroke="#444444" stroke-opacity="0.333333" d="M701.4441,-244.6323C700.9654,-272.8663 700.0354,-327.7169 699.4678,-361.1908"/>
<polygon fill="#444444" fill-opacity="0.333333" stroke="#444444" stroke-opacity="0.333333" points="695.9674,-361.189 699.2973,-371.2469 702.9664,-361.3077 695.9674,-361.189"/>
</g>
<!-- tar&#45;&gt;libgcc -->
<g id="edge24" class="edge">
<title>tar&#45;&gt;libgcc</title>
<path fill="none" stroke="#444444" stroke-opacity="0.333333" d="M671.742,-397.8477C650.7071,-404.3922 620.9612,-413.6471 595.3147,-421.6265"/>
<polygon fill="#444444" fill-opacity="0.333333" stroke="#444444" stroke-opacity="0.333333" points="594.2215,-418.301 585.7128,-424.6139 596.3011,-424.985 594.2215,-418.301"/>
</g>
<!-- autoconf -->
<g id="node1" class="node">
<title>autoconf</title>
<text text-anchor="middle" x="866.11" y="-262.37" font-family="monospace" font-size="14.00" fill="#000000">autoconf</text>
</g>
<!-- emacs&#45;filesystem -->
<g id="node2" class="node">
<title>emacs&#45;filesystem</title>
<text text-anchor="middle" x="805.12" y="-464.43" font-family="monospace" font-size="14.00" fill="#000000">emacs&#45;filesystem</text>
</g>
<!-- libgcc -->
<g id="node3" class="node">
<title>libgcc</title>
<text text-anchor="middle" x="542.56" y="-434.34" font-family="monospace" font-size="14.00" fill="#000000">libgcc</text>
</g>
<!-- automake -->
<g id="node4" class="node">
<title>automake</title>
<text text-anchor="middle" x="883.81" y="-93.458" font-family="monospace" font-size="14.00" fill="#000000">automake</text>
</g>
<!-- cpp -->
<g id="node5" class="node">
<title>cpp</title>
<text text-anchor="middle" x="298.96" y="-74.763" font-family="monospace" font-size="14.00" fill="#000000">cpp</text>
</g>
<!-- libmpc -->
<g id="node6" class="node">
<title>libmpc</title>
<text text-anchor="middle" x="170.29" y="-91.36" font-family="monospace" font-size="14.00" fill="#000000">libmpc</text>
</g>
<!-- mpfr -->
<g id="node7" class="node">
<title>mpfr</title>
<text text-anchor="middle" x="228.92" y="-14.3" font-family="monospace" font-size="14.00" fill="#000000">mpfr</text>
</g>
<!-- gcc -->
<g id="node8" class="node">
<title>gcc</title>
<text text-anchor="middle" x="301.33" y="-287.35" font-family="monospace" font-size="14.00" fill="#000000">gcc</text>
</g>
<!-- binutils -->
<g id="node9" class="node">
<title>binutils</title>
<text text-anchor="middle" x="62.821" y="-204.92" font-family="monospace" font-size="14.00" fill="#000000">binutils</text>
</g>
<!-- isl -->
<g id="node10" class="node">
<title>isl</title>
<text text-anchor="middle" x="27" y="-324.89" font-family="monospace" font-size="14.00" fill="#000000">isl</text>
</g>
<!-- libasan -->
<g id="node11" class="node">
<title>libasan</title>
<text text-anchor="middle" x="361.22" y="-461.85" font-family="monospace" font-size="14.00" fill="#000000">libasan</text>
</g>
<!-- libatomic -->
<g id="node12" class="node">
<title>libatomic</title>
<text text-anchor="middle" x="81.665" y="-465.67" font-family="monospace" font-size="14.00" fill="#000000">libatomic</text>
</g>
<!-- libgomp -->
<g id="node13" class="node">
<title>libgomp</title>
<text text-anchor="middle" x="196.97" y="-454.24" font-family="monospace" font-size="14.00" fill="#000000">libgomp</text>
</g>
<!-- libubsan -->
<g id="node14" class="node">
<title>libubsan</title>
<text text-anchor="middle" x="429.33" y="-514.37" font-family="monospace" font-size="14.00" fill="#000000">libubsan</text>
</g>
<!-- libtool -->
<g id="node15" class="node">
<title>libtool</title>
<text text-anchor="middle" x="701.75" y="-222.89" font-family="monospace" font-size="14.00" fill="#000000">libtool</text>
</g>
<!-- findutils -->
<g id="node16" class="node">
<title>findutils</title>
<text text-anchor="middle" x="987.22" y="-239.22" font-family="monospace" font-size="14.00" fill="#000000">findutils</text>
</g>
<!-- tar -->
<g id="node17" class="node">
<title>tar</title>
<text text-anchor="middle" x="698.99" y="-385.67" font-family="monospace" font-size="14.00" fill="#000000">tar</text>
</g>
</g>
</svg>
