<?xml version="1.0" encoding="UTF-8" standalone="no"?>
<!DOCTYPE svg PUBLIC "-//W3C//DTD SVG 1.1//EN"
 "http://www.w3.org/Graphics/SVG/1.1/DTD/svg11.dtd">
<!-- Generated by graphviz version 2.40.1 (20161225.0304)
 -->
<!-- Title: G Pages: 1 -->
<svg width="3465pt" height="1840pt"
 viewBox="0.00 0.00 3464.56 1840.45" xmlns="http://www.w3.org/2000/svg" xmlns:xlink="http://www.w3.org/1999/xlink">
<g id="graph0" class="graph" transform="scale(1 1) rotate(0) translate(220.5649 1628.9595)">
<title>G</title>
<polygon fill="#dae2ff" stroke="transparent" points="-220.5649,211.4898 -220.5649,-1628.9595 3243.9905,-1628.9595 3243.9905,211.4898 -220.5649,211.4898"/>
<polygon fill="#fbb4ae" stroke="#fbb4ae" points="1899.6694,-740.1699 1896.311,-744.0292 1864.8944,-774.1963 1861.9097,-776.5479 1851.2753,-788.1469 1850.7642,-788.572 1846.165,-792.8866 1844.7311,-794.3862 1837.8898,-802.3405 1900.2465,-853.8322 1898.3499,-789.1816 1903.5264,-784.6719 1904.3926,-783.0668 1908.3538,-783.0668 1909.7166,-784.7581 1914.1096,-787.358 1914.1096,-787.358 1909.7166,-784.7581 1908.3538,-783.0668 1904.3926,-783.0668 1903.5264,-784.6719 1898.3499,-789.1816 1900.2465,-853.8322 1905.1312,-858.2353 1906.0852,-859.2463 1910.6106,-859.43 1916.9429,-859.2126 1918.5485,-859.2856 1920.8645,-859.3041 1929.7102,-859.0425 1932.7653,-859.1964 1933.6592,-859.1743 1941.7018,-859.297 1950.5846,-858.7663 1954.474,-858.3884 1963.5928,-857.161 1965.3125,-856.8013 1976.3591,-854.0723 2032.8261,-838.0231 2037.709,-832.5549 2044.7488,-830.8472 2055.874,-828.7131 2061.9773,-827.8525 2074.707,-826.3807 2074.1785,-780.4709 2079.0098,-720.8598 2073.9956,-717.9872 2072.1755,-715.8218 2073.4204,-714.4608 2074.344,-659.3043 2074.8794,-659.2687 2074.8813,-652.8732 2077.999,-602.7821 2081.0737,-602.7821 2083.0964,-605.0793 2087.302,-607.3651 2092.7329,-607.3651 2098.5803,-604.0463 2099.4597,-603.097 2097.1572,-600.48 2093.6223,-598.5806 2087.636,-598.5806 2087.636,-598.5806 2093.6223,-598.5806 2097.1572,-600.48 2099.4597,-603.097 2101.6296,-603.097 2106.2146,-633.6418 2108.8057,-602.8763 2112.7146,-602.8763 2113.5645,-602.6347 2117.8411,-602.6347 2118.5876,-602.8471 2117.3101,-637.9817 2121.8193,-637.6309 2128.1685,-637.7692 2128.1685,-637.7692 2121.8193,-637.6309 2117.3101,-637.9817 2118.5876,-602.8471 2117.8411,-602.6347 2113.5645,-602.6347 2112.7146,-602.8763 2108.8057,-602.8763 2106.2146,-633.6418 2101.6296,-603.097 2099.4597,-603.097 2098.5803,-604.0463 2092.7329,-607.3651 2087.302,-607.3651 2083.0964,-605.0793 2081.0737,-602.7821 2077.999,-602.7821 2074.8813,-652.8732 2074.8794,-659.2687 2074.344,-659.3043 2073.4204,-714.4608 2072.1755,-715.8218 2073.9956,-717.9872 2079.0098,-720.8598 2074.1785,-780.4709 2074.707,-826.3807 2083.4114,-826.0383 2086.5159,-825.995 2093.3464,-825.7285 2098.5146,-825.6584 2098.8438,-825.6375 2113.0737,-825.8167 2113.8533,-825.8463 2114.8955,-825.8598 2116.8628,-825.9351 2116.9607,-825.9364 2119.4482,-826.0325 2119.781,-826.037 2127.5862,-825.7539 2135.2576,-825.8648 2147.3335,-825.1334 2163.3118,-823.3646 2165.1997,-823.1087 2234.2493,-812.0329 2378.4036,-836.0758 2393.386,-884.4497 2418.9888,-963.4268 2435.1152,-1009.4367 2546.5457,-1022.492 2609.1858,-1005.4797 2625.4985,-1001.4829 2646.1919,-997.5141 2647.8342,-997.2211 2663.9312,-994.7782 2788.0081,-979.2645 2825.2195,-1001.4852 2914.7388,-1018.7438 2931.5813,-1019.1661 2952.2368,-1019.9544 2952.6128,-869.968 2955.8923,-805.1179 2956.4629,-804.9493 2950.6218,-753.4558 2947.5581,-692.5092 2944.6111,-799.6155 2805.1125,-771.0168 2803.5293,-794.7979 2801.3445,-819.4594 2662.4219,-785.8842 2659.9385,-783.0331 2656.6006,-781.8704 2655.1604,-780.7467 2652.4448,-780.7467 2652.0688,-780.6335 2652.0688,-780.6335 2652.4448,-780.7467 2655.1604,-780.7467 2656.6006,-781.8704 2659.9385,-783.0331 2662.4219,-785.8842 2801.3445,-819.4594 2803.5293,-794.7979 2805.1125,-771.0168 2944.6111,-799.6155 2947.5581,-692.5092 2950.6218,-753.4558 2956.4629,-804.9493 2955.8923,-805.1179 2952.6128,-869.968 2952.2368,-1019.9544 2959.9888,-1020.4529 2970.9509,-1021.301 2985.6804,-1022.8253 3005.0376,-1025.8395 3088.8213,-1041.067 3228.1389,-934.6178 3239.5935,-920.9012 3239.9905,-919.9 3232.3762,-875.4946 3003.791,-809.9739 3001.8264,-807.6009 2997.8452,-806.4041 2996.0149,-805.0652 2993.4946,-805.0652 2986.0188,-931.6702 2985.4063,-865.7853 2987.978,-804.8942 2983.1125,-804.8942 2981.6062,-803.0571 2977.0925,-800.4467 2977.0925,-800.4467 2981.6062,-803.0571 2983.1125,-804.8942 2987.978,-804.8942 2985.4063,-865.7853 2986.0188,-931.6702 2993.4946,-805.0652 2996.0149,-805.0652 2997.8452,-806.4041 3001.8264,-807.6009 3003.791,-809.9739 3232.3762,-875.4946 3216.0513,-772.0323 3202.0513,-663.06 3196.7585,-656.9507 3139.9897,-617.924 3008.4966,-586.6431 3004.635,-587.3986 3004.3574,-587.4492 2981.0825,-591.0768 2974.1726,-591.9691 2965.7761,-592.8292 2945.1699,-594.3912 2819.7515,-598.8755 2802.8823,-587.162 2662.3037,-553.9975 2661.6855,-605.5815 2661.6855,-605.5815 2662.3037,-553.9975 2650.6731,-550.9486 2633.9897,-545.9165 2623.2019,-542.5217 2614.3005,-539.4891 2603.9219,-535.6825 2566.2124,-521.3626 2563.2576,-513.15 2534.0918,-421.9272 2470.9397,-304.7208 2379.1228,-276.3908 2252.1924,-163.2662 2161.5916,-129.6138 2154.8489,-126.9408 2129.988,-116.4594 2118.1018,-111.0076 2087.6697,-95.5283 2077.6812,-90.2046 2060.176,-87.3522 2025.7589,-18 1990.557,59.8749 1894.6365,166.3108 1873.2822,178.1961 1773.8335,192.5467 1766.3425,193.7296 1763.8846,194.1511 1736.4424,199.9842 1738.2622,128.9926 1738.8553,32.8545 1738.8553,32.8545 1738.2622,128.9926 1736.4424,199.9842 1706.7944,207.4898 1616.3188,175.9973 1500.939,14.9467 1499.8127,-18 1488.0214,-180.0831 1591.3623,-213.6258 1597.5112,-215.5488 1616.561,-221.2802 1634.9415,-225.9294 1652.7483,-229.7929 1673.7347,-233.3398 1677.4252,-233.919 1734.9108,-240.8717 1736.453,-24.1165 1741.5465,-19.8229 1741.5673,-19.7858 1744.0984,-17.8926 1746.0964,-17.8926 1746.7577,-18.6938 1753.1708,-22.6996 1757.4557,-22.6996 1757.4557,-22.6996 1753.1708,-22.6996 1746.7577,-18.6938 1746.0964,-17.8926 1744.0984,-17.8926 1741.5673,-19.7858 1741.5465,-19.8229 1736.453,-24.1165 1734.9108,-240.8717 1742.34,-241.8649 1759.9478,-244.8938 1764.3173,-245.7569 1766.2321,-424.7889 1765.5554,-451.3996 1766.3932,-469.1597 1766.532,-470.8259 1767.421,-553.9524 1856.2941,-530.6072 1856.0811,-511.9857 1858.4907,-458.4717 1860.3196,-455.7247 1863.5137,-458.6313 1868.8501,-460.2675 1868.8501,-460.2675 1863.5137,-458.6313 1860.3196,-455.7247 1858.4907,-458.4717 1856.0811,-511.9857 1856.2941,-530.6072 1767.421,-553.9524 1756.9796,-570.7263 1792.4434,-588.9274 1835.6096,-614.8276 1847.1986,-622.8209 1859.2853,-629.9696 1860.1787,-630.4 1863.3785,-631.6169 1871.2645,-633.8297 1879.0406,-635.2091 1883.6117,-635.5441 1884.2144,-635.5265 1885.1289,-635.5934 1892.6813,-635.3671 1894.6444,-635.5109 1897.0194,-635.4398 1897.8805,-635.325 1902.2756,-635.1921 1904.4635,-635.3502 1907.9153,-635.2452 1911.069,-635.4714 1920.8261,-637.1798 1917.8848,-604.7956 1913.2302,-604.7956 1907.4508,-601.2875 1906.3906,-600.011 1902.3064,-600.011 1901.4761,-532.3539 1895.6766,-527.5664 1907.0229,-512.9033 1938.2037,-513.1546 1961.1702,-516.6281 1966.9219,-512.5189 1963.1801,-556.8403 1973.7202,-559.9514 1975.6014,-560.6381 1984.2546,-564.4183 1987.2991,-565.9586 1988.1598,-546.1235 1993.1134,-510.2841 1986.5326,-510.2841 1987.5154,-473.7967 1986.5381,-458.9608 1986.1873,-394.5716 2001.0936,-407.4462 2005.2322,-410.6438 2096.3459,-389.5388 2098.3455,-417.0391 2103.2849,-384.4955 2103.5891,-384.2493 2106.3223,-384.2493 2110.4421,-422.7322 2113.3203,-384.4002 2112.4495,-384.1389 2112.4495,-384.1389 2113.3203,-384.4002 2117.3647,-384.4002 2120.6113,-429.9326 2123.76,-387.856 2128.3369,-389.1766 2134.4758,-387.3105 2137.7361,-384.4615 2139.3792,-384.4615 2140.5593,-384.1099 2143.9658,-384.1099 2144.9143,-384.3889 2143.571,-458.2053 2148.2515,-456.4354 2150.3691,-384.3973 2154.5068,-384.3973 2159.7646,-434.7222 2160.8735,-390.1409 2189.3945,-391.3852 2263.1003,-403.5819 2273.1104,-395.7488 2274.269,-394.7967 2282.9924,-386.5353 2297.6167,-371.4175 2294.5369,-513.0599 2290.1423,-513.0599 2283.6904,-406.9082 2284.5144,-513.0479 2279.9558,-513.0479 2279.9558,-513.0479 2284.5144,-513.0479 2283.6904,-406.9082 2290.1423,-513.0599 2294.5369,-513.0599 2297.6167,-371.4175 2282.9924,-386.5353 2274.269,-394.7967 2273.1104,-395.7488 2263.0999,-512.8826 2260.2151,-512.8826 2260.2073,-512.8741 2253.5386,-508.8578 2248.291,-508.8578 2242.5508,-512.2353 2241.7175,-513.1662 2243.541,-515.1963 2248.0232,-517.6428 2253.2585,-517.6428 2253.2585,-517.6428 2248.0232,-517.6428 2243.541,-515.1963 2241.7175,-513.1662 2242.5508,-512.2353 2248.291,-508.8578 2253.5386,-508.8578 2260.2073,-512.8741 2260.2151,-512.8826 2263.0999,-512.8826 2273.1104,-395.7488 2263.1003,-403.5819 2189.3945,-391.3852 2160.8735,-390.1409 2159.7646,-434.7222 2154.5068,-384.3973 2150.3691,-384.3973 2148.2515,-456.4354 2160.4683,-452.4007 2192.8057,-444.8822 2202.3623,-441.7655 2210.8411,-438.6066 2212.4688,-437.9261 2212.4688,-437.9261 2210.8411,-438.6066 2202.3623,-441.7655 2192.8057,-444.8822 2160.4683,-452.4007 2148.2515,-456.4354 2143.571,-458.2053 2144.9143,-384.3889 2143.9658,-384.1099 2140.5593,-384.1099 2139.3792,-384.4615 2137.7361,-384.4615 2134.4758,-387.3105 2128.3369,-389.1766 2123.76,-387.856 2120.6113,-429.9326 2117.3647,-384.4002 2113.3203,-384.4002 2110.4421,-422.7322 2106.3223,-384.2493 2103.5891,-384.2493 2103.2849,-384.4955 2098.3455,-417.0391 2096.9746,-451.7093 2059.907,-442.1019 2060.3218,-469.2377 2063.6975,-505.0692 2127.9045,-488.9139 2128.2961,-503.9657 2191.5513,-507.2785 2191.5513,-507.2785 2128.2961,-503.9657 2127.9045,-488.9139 2063.6975,-505.0692 2060.3218,-469.2377 2059.907,-442.1019 2096.9746,-451.7093 2098.3455,-417.0391 2096.3459,-389.5388 2005.2322,-410.6438 2001.0936,-407.4462 1986.1873,-394.5716 1986.5381,-458.9608 1987.5154,-473.7967 1986.5326,-510.2841 1993.1134,-510.2841 1988.1598,-546.1235 1987.2991,-565.9586 1994.1213,-570.4053 2000.6288,-566.4831 2002.3987,-565.5431 2014.4276,-560.7684 2016.015,-560.2495 2025.8699,-557.6982 2027.2169,-557.4437 2033.3429,-556.7045 2033.3429,-556.7045 2027.2169,-557.4437 2025.8699,-557.6982 2016.015,-560.2495 2014.4276,-560.7684 2002.3987,-565.5431 2000.6288,-566.4831 1994.1213,-570.4053 1987.2991,-565.9586 1984.2546,-564.4183 1975.6014,-560.6381 1973.7202,-559.9514 1963.1801,-556.8403 1966.9219,-512.5189 1961.1702,-516.6281 1938.2037,-513.1546 1907.0229,-512.9033 1895.6766,-527.5664 1901.4761,-532.3539 1902.3064,-600.011 1906.3906,-600.011 1907.4508,-601.2875 1913.2302,-604.7956 1917.8848,-604.7956 1920.8261,-637.1798 1921.0891,-637.2523 1929.2432,-640.3575 1933.506,-642.4177 1934.6033,-600.3594 1935.2056,-600.1815 1937.1796,-600.1815 1937.1796,-600.1815 1935.2056,-600.1815 1934.6033,-600.3594 1933.506,-642.4177 1943.5369,-648.3124 1968.7654,-668.2191 1973.2473,-671.4191 1973.2041,-671.5544 1966.1442,-703.1178 1963.474,-712.8751 1940.0305,-720.8541 1926.673,-724.6592 1924.6882,-725.1095 1914.4419,-726.2778 1914.2542,-726.4996 1906.3342,-734.8437 1899.6694,-740.1699 1899.6694,-740.1699"/>
<polygon fill="#fed9a6" stroke="#fed9a6" points="2163.3118,-823.3646 2165.1997,-823.1087 2234.2493,-812.0329 2378.4036,-836.0758 2393.386,-884.4497 2418.9888,-963.4268 2435.1152,-1009.4367 2427.0618,-1019.2037 2161.0515,-1182.0237 2150.012,-1189.2722 2143.522,-1193.6295 2190.114,-1389.8 2221.8359,-1501.8488 2199.417,-1542.6455 1974.7509,-1613.2815 1963.9199,-1616.9886 1944.7153,-1624.3682 1943.28,-1624.9595 1931.2998,-1624.3882 1878.9067,-1623.7711 1783.3823,-1581.739 1728.6946,-1524.6519 1693.3622,-1389.8 1666.8942,-1302.6946 1816.5865,-1169.0402 1784.4312,-1072.208 1728.8683,-1027.9 1708.9351,-1009.1612 1700.7389,-1002.3179 1699.5848,-909.295 1699.9648,-909.184 1703.2067,-909.184 1703.2067,-909.184 1699.9648,-909.184 1699.5848,-909.295 1700.7389,-1002.3179 1692.1448,-995.5954 1691.8259,-943.3936 1691.8259,-943.3936 1692.1448,-995.5954 1681.3386,-988.2892 1670.6964,-982.2251 1670.3929,-936.3665 1673.6873,-912.9962 1678.0552,-914.2484 1683.9327,-912.5051 1687.373,-909.5285 1683.1255,-905.6364 1678.4199,-904.2799 1678.4199,-904.2799 1683.1255,-905.6364 1687.373,-909.5285 1683.9327,-912.5051 1678.0552,-914.2484 1673.6873,-912.9962 1670.3929,-936.3665 1670.6964,-982.2251 1662.5724,-978.4598 1653.3696,-974.6846 1643.5485,-971.7094 1614.3287,-964.4341 1601.9423,-960.0228 1593.3033,-956.0289 1580.6527,-948.8138 1579.9763,-948.3929 1571.4095,-942.5988 1564.5825,-937.6227 1553.0385,-927.9839 1550.9291,-926.0009 1520.4158,-899.1298 1470.8453,-859.6005 1404.6467,-846.8814 1328.3314,-860.2611 1295.7787,-760.08 1264.6313,-649.2252 1484.1079,-632.8514 1487.0232,-672.7303 1489.8936,-627.6786 1490.9347,-626.8298 1494.0764,-626.8298 1497.6864,-721.9327 1497.2914,-740.9661 1500.9879,-737.5853 1593.9329,-734.8262 1604.9893,-738.0815 1609.3505,-735.7675 1611.965,-756.2507 1609.8021,-824.0436 1623.8362,-821.748 1623.0172,-771.9389 1625.5836,-731.9528 1629.2501,-731.9528 1635.5273,-800.4178 1635.0321,-734.8917 1640.4065,-736.4265 1644.5475,-735.2919 1648.8937,-731.4864 1644.5898,-727.7982 1640.6113,-726.7241 1640.6113,-726.7241 1644.5898,-727.7982 1648.8937,-731.4864 1644.5475,-735.2919 1640.4065,-736.4265 1635.0321,-734.8917 1635.5273,-800.4178 1629.2501,-731.9528 1625.5836,-731.9528 1623.0172,-771.9389 1623.8362,-821.748 1609.8021,-824.0436 1611.965,-756.2507 1609.3505,-735.7675 1604.9893,-738.0815 1593.9329,-734.8262 1500.9879,-737.5853 1497.2914,-740.9661 1497.6864,-721.9327 1500.5686,-664.4252 1505.7079,-627.34 1508.3757,-627.34 1512.8275,-659.7374 1515.2639,-626.9621 1515.5338,-626.9621 1519.2207,-630.081 1525.0504,-631.7981 1529.683,-630.5001 1533.9667,-626.876 1534.11,-626.876 1538.499,-684.1752 1540.0842,-626.8213 1544.8005,-626.8213 1544.8607,-626.8384 1550.3245,-626.8384 1550.4412,-626.8056 1554.0137,-626.8056 1554.8693,-627.0491 1555.6738,-691.8052 1561.7283,-688.6697 1562.0764,-666.3195 1562.0764,-666.3195 1561.7283,-688.6697 1555.6738,-691.8052 1554.8693,-627.0491 1554.0137,-626.8056 1557.3707,-595.9897 1560.72,-623.6395 1564.8154,-620.7985 1613.6068,-625.5314 1660.3452,-627.04 1662.3059,-627.04 1669.7439,-620.2457 1669.7439,-620.2457 1662.3059,-627.04 1660.3452,-627.04 1613.6068,-625.5314 1564.8154,-620.7985 1560.72,-623.6395 1557.3707,-595.9897 1554.0137,-626.8056 1550.4412,-626.8056 1550.3245,-626.8384 1544.8607,-626.8384 1544.8005,-626.8213 1540.0842,-626.8213 1538.499,-684.1752 1534.11,-626.876 1533.9667,-626.876 1529.7247,-623.4141 1525.1384,-622.1691 1525.1384,-622.1691 1529.7247,-623.4141 1533.9667,-626.876 1529.683,-630.5001 1525.0504,-631.7981 1519.2207,-630.081 1515.5338,-626.9621 1515.2639,-626.9621 1512.8275,-659.7374 1508.3757,-627.34 1505.7079,-627.34 1500.5686,-664.4252 1497.6864,-721.9327 1494.0764,-626.8298 1490.9347,-626.8298 1489.8936,-627.6786 1487.0232,-672.7303 1484.1079,-632.8514 1264.6313,-649.2252 1254.6727,-615.576 1218.6265,-504.6432 1292.7799,-365.7898 1298.7349,-328.671 1308.7794,-309.9984 1488.0214,-180.0831 1591.3623,-213.6258 1597.5112,-215.5488 1616.561,-221.2802 1634.9415,-225.9294 1652.7483,-229.7929 1673.7347,-233.3398 1664.7732,-457.0211 1661.2577,-457.0211 1656.0127,-417.8875 1654.2207,-382.8494 1652.7131,-262.8585 1644.7142,-453.5663 1640.0918,-452.3227 1640.0918,-452.3227 1644.7142,-453.5663 1652.7131,-262.8585 1654.2207,-382.8494 1656.0127,-417.8875 1661.2577,-457.0211 1664.7732,-457.0211 1673.7347,-233.3398 1677.4252,-233.919 1734.9108,-240.8717 1742.34,-241.8649 1759.9478,-244.8938 1764.3173,-245.7569 1766.2321,-424.7889 1765.5554,-451.3996 1766.3932,-469.1597 1766.532,-470.8259 1767.421,-553.9524 1756.9796,-570.7263 1792.4434,-588.9274 1835.6096,-614.8276 1847.1986,-622.8209 1859.2853,-629.9696 1860.1787,-630.4 1863.3785,-631.6169 1871.2645,-633.8297 1879.0406,-635.2091 1883.6117,-635.5441 1881.9983,-667.1888 1885.5364,-670.4816 1882.2778,-673.5485 1876.5328,-675.351 1871.0742,-673.7317 1867.3956,-670.5958 1866.995,-670.5958 1866.9839,-670.599 1860.9933,-670.599 1860.9362,-670.5817 1856.3411,-670.5817 1855.1664,-671.5899 1854.0215,-672.0463 1850.0083,-676.1503 1850.0695,-702.3704 1848.5764,-702.462 1843.0298,-702.1501 1836.4788,-701.0034 1830.1152,-699.1371 1824.3462,-696.7751 1822.5779,-695.8489 1812.6501,-689.4367 1812.6501,-689.4367 1822.5779,-695.8489 1824.3462,-696.7751 1830.1152,-699.1371 1836.4788,-701.0034 1843.0298,-702.1501 1848.5764,-702.462 1850.0695,-702.3704 1850.0083,-676.1503 1854.0215,-672.0463 1855.1664,-671.5899 1856.3411,-670.5817 1860.9362,-670.5817 1860.9933,-670.599 1866.9839,-670.599 1866.995,-670.5958 1867.3956,-670.5958 1871.0742,-673.7317 1876.5328,-675.351 1882.2778,-673.5485 1885.5364,-670.4816 1881.9983,-667.1888 1883.6117,-635.5441 1884.2144,-635.5265 1885.1289,-635.5934 1892.6813,-635.3671 1894.6444,-635.5109 1897.0194,-635.4398 1897.8805,-635.325 1902.2756,-635.1921 1904.4635,-635.3502 1907.9153,-635.2452 1911.069,-635.4714 1920.8261,-637.1798 1921.0891,-637.2523 1929.2432,-640.3575 1933.506,-642.4177 1943.5369,-648.3124 1968.7654,-668.2191 1973.2473,-671.4191 1973.2041,-671.5544 1966.1442,-703.1178 1963.474,-712.8751 1940.0305,-720.8541 1926.673,-724.6592 1924.6882,-725.1095 1914.4419,-726.2778 1914.2542,-726.4996 1906.3342,-734.8437 1899.6694,-740.1699 1896.311,-744.0292 1864.8944,-774.1963 1861.9097,-776.5479 1851.2753,-788.1469 1850.7642,-788.572 1846.165,-792.8866 1844.7311,-794.3862 1837.8898,-802.3405 1837.6685,-802.3392 1833.1555,-802.5214 1833.2639,-830.0168 1833.2639,-830.0168 1833.1555,-802.5214 1837.6685,-802.3392 1837.8898,-802.3405 1900.2465,-853.8322 1905.1312,-858.2353 1906.0852,-859.2463 1901.1399,-864.3517 1900.9425,-864.525 1900.9425,-864.525 1901.1399,-864.3517 1901.2459,-897.2373 1901.2459,-897.2373 1901.1399,-864.3517 1906.0852,-859.2463 1910.6106,-859.43 1916.9429,-859.2126 1918.5485,-859.2856 1920.8645,-859.3041 1929.7102,-859.0425 1932.7653,-859.1964 1933.6592,-859.1743 1941.7018,-859.297 1941.6669,-895.4543 1938.7574,-931.0198 1934.5464,-931.0198 1927.8583,-934.891 1927.3468,-935.438 1924.434,-935.438 1924.3552,-935.4599 1922.4746,-984.6597 1918.1823,-935.6965 1914.9933,-935.6965 1914.9933,-935.6965 1918.1823,-935.6965 1922.4746,-984.6597 1924.3552,-935.4599 1924.434,-935.438 1927.3468,-935.438 1929.0459,-937.3364 1934.2399,-940.2375 1938.7634,-940.2375 1938.7634,-940.2375 1934.2399,-940.2375 1929.0459,-937.3364 1927.3468,-935.438 1927.8583,-934.891 1934.5464,-931.0198 1938.7574,-931.0198 1941.6669,-895.4543 1941.7018,-859.297 1950.5846,-858.7663 1954.474,-858.3884 1963.5928,-857.161 1965.3125,-856.8013 1976.3591,-854.0723 2032.8261,-838.0231 2037.709,-832.5549 2044.7488,-830.8472 2055.874,-828.7131 2061.9773,-827.8525 2074.707,-826.3807 2083.4114,-826.0383 2086.5159,-825.995 2093.3464,-825.7285 2098.5146,-825.6584 2098.8438,-825.6375 2113.0737,-825.8167 2113.8533,-825.8463 2114.8955,-825.8598 2116.8628,-825.9351 2111.2764,-935.2925 2106.0522,-935.2925 2105.4968,-935.4474 2102.76,-935.4474 2102.1116,-935.2673 2102.1116,-935.2673 2102.76,-935.4474 2099.0991,-965.7786 2096.0596,-939.4268 2091.8035,-941.8798 2075.8167,-1173.0431 2033.4268,-1162.3937 1995.6543,-1162.6168 1976.5046,-1383.6963 1972.3014,-1387.0609 1970.8478,-1389.7645 1970.6146,-1389.975 1966.759,-1389.975 1965.5483,-1389.5961 1961.4441,-1389.5961 1960.1523,-1388.0403 1955.2091,-1385.1667 1955.2091,-1385.1667 1960.1523,-1388.0403 1961.4441,-1389.5961 1965.5483,-1389.5961 1966.759,-1389.975 1970.6146,-1389.975 1970.8478,-1389.7645 1972.3014,-1387.0609 1976.5046,-1383.6963 1995.6543,-1162.6168 2033.4268,-1162.3937 2075.8167,-1173.0431 2091.8035,-941.8798 2096.0596,-939.4268 2099.0991,-965.7786 2102.76,-935.4474 2105.4968,-935.4474 2106.0522,-935.2925 2111.2764,-935.2925 2116.8628,-825.9351 2116.9607,-825.9364 2119.4482,-826.0325 2119.781,-826.037 2127.5862,-825.7539 2135.2576,-825.8648 2135.9939,-872.2253 2131.4233,-931.848 2127.155,-930.6587 2121.7827,-932.2327 2118.0544,-935.5125 2122.467,-939.3125 2126.0803,-940.2759 2126.0803,-940.2759 2122.467,-939.3125 2118.0544,-935.5125 2121.7827,-932.2327 2127.155,-930.6587 2131.4233,-931.848 2135.9939,-872.2253 2135.2576,-825.8648 2147.3335,-825.1334 2163.3118,-823.3646 2156.5034,-933.4579 2154.0583,-935.0374 2152.5137,-935.0374 2148.2559,-869.7799 2146.6843,-935.452 2143.0664,-935.452 2143.0664,-935.452 2146.6843,-935.452 2148.2559,-869.7799 2152.5137,-935.0374 2154.0583,-935.0374 2156.5034,-933.4579 2163.3118,-823.3646 2163.3118,-823.3646"/>
<polygon fill="#ccebc5" stroke="#ccebc5" points="1063.2561,-760.1299 1063.8782,-761.1824 1063.8782,-761.1824 1063.2561,-760.1299 1063.4642,-759.9516 1064.6675,-757.8632 1069.5924,-753.9142 1077.3521,-537.7968 1057.6658,-542.1568 1047.8734,-543.9341 1041.0734,-545.0778 1040.1061,-545.2276 1030.6388,-546.5679 1005.9639,-549.078 926.3071,-553.994 804.7841,-628.1536 624.0535,-544.4924 622.9682,-544.3629 611.0077,-542.7964 593.3853,-540.078 578.8985,-537.5075 567.1597,-534.8803 558.8607,-532.9268 540.6212,-527.9973 537.1888,-527.0301 533.8383,-528.0299 403.3894,-562.4449 303.9994,-526.3453 212.1954,-429.2994 91.0115,-367.5236 76.4787,-359.5332 75.2842,-360.0395 62.0335,-365.4971 61.9234,-442.4987 59.9312,-507.1109 61.726,-629.4144 56.2505,-632.8391 55.314,-634.0059 56.3522,-635.2239 61.1436,-638.024 67.0437,-638.024 66.8246,-688.1996 68.3993,-717.131 69.2127,-761.1435 81.9971,-748.5922 82.4358,-748.1827 82.7795,-737.3674 82.7795,-737.3674 82.4358,-748.1827 81.9971,-748.5922 69.2127,-761.1435 61.2585,-770.0899 195.9995,-759.8671 191.8471,-755.2236 191.8471,-755.2236 195.9995,-759.8671 196.8168,-760.2928 197.3855,-760.2928 198.2937,-760.5667 201.5693,-760.5667 201.7792,-760.5037 201.7792,-760.5037 201.5693,-760.5667 198.2937,-760.5667 197.3855,-760.2928 196.8168,-760.2928 195.9995,-759.8671 61.2585,-770.0899 69.2127,-761.1435 68.3993,-717.131 66.8246,-688.1996 67.0437,-638.024 61.1436,-638.024 56.3522,-635.2239 55.314,-634.0059 50.5669,-634.0059 50.0355,-633.8473 46.0593,-633.8473 39.0944,-502.1686 38.8077,-524.7103 38.8077,-524.7103 39.0944,-502.1686 46.0593,-633.8473 50.0355,-633.8473 50.5669,-634.0059 55.314,-634.0059 56.2505,-632.8391 61.726,-629.4144 59.9312,-507.1109 61.9234,-442.4987 62.0335,-365.4971 37.9215,-373.9998 -99.5914,-417.5856 -202.796,-497.3741 -216.2018,-633.74 -216.5649,-636.4293 -194.6065,-715.7943 -144.8165,-760.6239 -119.4138,-782.9279 -15.5309,-862.4608 46.4431,-990.0789 67.1704,-998.7411 188.473,-988.1207 209.1693,-986.8182 228.6592,-986.3132 235.8763,-986.4822 255.2206,-987.4131 265.2794,-988.0211 255.8845,-765.7237 255.8845,-765.7237 265.2794,-988.0211 316.0786,-991.7164 385.4888,-961.8061 529.8299,-994.5033 548.7386,-999.262 553.7842,-1000.7845 570.6248,-997.2756 589.8093,-994.2098 586.3696,-835.2165 582.0845,-773.3807 581.864,-773.3807 578.1156,-770.1964 578.1156,-770.1964 581.864,-773.3807 582.0845,-773.3807 586.3696,-835.2165 587.9802,-773.3432 587.9802,-773.3432 586.3696,-835.2165 589.8093,-994.2098 594.6537,-993.5536 596.6163,-993.3353 611.3266,-991.8771 620.1822,-991.1069 721.8704,-983.499 815.4511,-961.3025 889.8641,-1009.3757 999.1603,-1006.8546 1016.4518,-1006.8452 1028.7163,-1006.9767 1035.0798,-1007.1882 1044.7262,-1007.8351 1053.7344,-1008.5408 1071.0482,-1010.0923 1067.4666,-881.3743 1058.3311,-760.4937 1053.6455,-760.4937 1052.8542,-760.2594 1048.4375,-760.2594 1048.3182,-760.2249 1046.9117,-760.2249 1043.7295,-762.9506 1043.7295,-762.9506 1046.9117,-760.2249 1048.3182,-760.2249 1048.4375,-760.2594 1052.8542,-760.2594 1053.6455,-760.4937 1058.3311,-760.4937 1067.4666,-881.3743 1071.0482,-1010.0923 1177.6946,-1023.2424 1253.5354,-1002.4006 1259.3721,-991.8076 1328.3314,-860.2611 1295.7787,-760.08 1264.6313,-649.2252 1254.6727,-615.576 1218.6265,-504.6432 1077.3521,-537.7968 1069.5924,-753.9142 1064.6675,-757.8632 1063.4642,-759.9516 1063.2561,-760.1299 1063.2561,-760.1299"/>
<polygon fill="#fbb4ae" stroke="#fbb4ae" points="1253.5354,-1002.4006 1259.3721,-991.8076 1328.3314,-860.2611 1404.6467,-846.8814 1470.8453,-859.6005 1520.4158,-899.1298 1550.9291,-926.0009 1553.0385,-927.9839 1564.5825,-937.6227 1571.4095,-942.5988 1579.9763,-948.3929 1580.6527,-948.8138 1593.3033,-956.0289 1601.9423,-960.0228 1614.3287,-964.4341 1614.1333,-973.2426 1614.1333,-973.2426 1614.3287,-964.4341 1643.5485,-971.7094 1653.3696,-974.6846 1662.5724,-978.4598 1670.6964,-982.2251 1681.3386,-988.2892 1692.1448,-995.5954 1700.7389,-1002.3179 1708.9351,-1009.1612 1728.8683,-1027.9 1784.4312,-1072.208 1816.5865,-1169.0402 1666.8942,-1302.6946 1621.391,-1290.8981 1616.4473,-1289.6719 1593.8353,-1284.5693 1582.5353,-1282.275 1568.405,-1279.8848 1562.2332,-1278.9801 1538.218,-1276.0009 1508.9905,-1272.7067 1429.571,-1225.9933 1320.5309,-1086.0724 1253.5354,-1002.4006 1253.5354,-1002.4006"/>
<polyline fill="none" stroke="#000000" points="2625.4985,-1001.4829 2609.1858,-1005.4797 2546.5457,-1022.492 2435.1152,-1009.4367 2418.9888,-963.4268 2393.386,-884.4497 2378.4036,-836.0758 2234.2493,-812.0329 2165.1997,-823.1087 2163.3118,-823.3646 2147.3335,-825.1334 2135.2576,-825.8648 2127.5862,-825.7539 2119.781,-826.037 2119.4482,-826.0325 2116.9607,-825.9364 2116.8628,-825.9351 2114.8955,-825.8598 2113.8533,-825.8463 2113.0737,-825.8167 2098.8438,-825.6375 2098.5146,-825.6584 2093.3464,-825.7285 2086.5159,-825.995 2083.4114,-826.0383 2074.707,-826.3807 2061.9773,-827.8525 2055.874,-828.7131 2044.7488,-830.8472 2037.709,-832.5549 2032.8261,-838.0231 1976.3591,-854.0723 1965.3125,-856.8013 1963.5928,-857.161 1954.474,-858.3884 1950.5846,-858.7663 1941.7018,-859.297 1933.6592,-859.1743 1932.7653,-859.1964 1929.7102,-859.0425 1920.8645,-859.3041 1918.5485,-859.2856 1916.9429,-859.2126 1910.6106,-859.43 1906.0852,-859.2463 1905.1312,-858.2353 1900.2465,-853.8322 1837.8898,-802.3405 1844.7311,-794.3862 1846.165,-792.8866 1850.7642,-788.572 1851.2753,-788.1469 1861.9097,-776.5479 1864.8944,-774.1963 1896.311,-744.0292 1899.6694,-740.1699 1906.3342,-734.8437 1914.2542,-726.4996 1914.4419,-726.2778 1924.6882,-725.1095 1926.673,-724.6592 1940.0305,-720.8541 1963.474,-712.8751 1966.1442,-703.1178 1973.2041,-671.5544 1973.2473,-671.4191 1968.7654,-668.2191 1943.5369,-648.3124 1933.506,-642.4177 1929.2432,-640.3575 1921.0891,-637.2523 1920.8261,-637.1798 1911.069,-635.4714 1907.9153,-635.2452 1904.4635,-635.3502 1902.2756,-635.1921 1897.8805,-635.325 1897.0194,-635.4398 1894.6444,-635.5109 1892.6813,-635.3671 1885.1289,-635.5934 1884.2144,-635.5265 1883.6117,-635.5441 1879.0406,-635.2091 1871.2645,-633.8297 1863.3785,-631.6169 1860.1787,-630.4 1859.2853,-629.9696 1847.1986,-622.8209 1835.6096,-614.8276 1792.4434,-588.9274 1756.9796,-570.7263 1767.421,-553.9524 1766.532,-470.8259 1766.3932,-469.1597 1765.5554,-451.3996 1766.2321,-424.7889 1764.3173,-245.7569 1759.9478,-244.8938 1742.34,-241.8649 1734.9108,-240.8717 1677.4252,-233.919 1673.7347,-233.3398 1652.7483,-229.7929 1634.9415,-225.9294 1616.561,-221.2802 1597.5112,-215.5488 1591.3623,-213.6258 1488.0214,-180.0831 1499.8127,-18 1500.939,14.9467 1616.3188,175.9973 1706.7944,207.4898 1736.4424,199.9842 1763.8846,194.1511 1766.3425,193.7296 1773.8335,192.5467 1873.2822,178.1961 1894.6365,166.3108 1990.557,59.8749 2025.7589,-18 2060.176,-87.3522 2077.6812,-90.2046 2087.6697,-95.5283 2118.1018,-111.0076 2129.988,-116.4594 2154.8489,-126.9408 2161.5916,-129.6138 2252.1924,-163.2662 2379.1228,-276.3908 2470.9397,-304.7208 2534.0918,-421.9272 2563.2576,-513.15 2566.2124,-521.3626 2603.9219,-535.6825 2614.3005,-539.4891 2623.2019,-542.5217 2633.9897,-545.9165 2650.6731,-550.9486 2662.3037,-553.9975 2802.8823,-587.162 2819.7515,-598.8755 2945.1699,-594.3912 2965.7761,-592.8292 2974.1726,-591.9691 2981.0825,-591.0768 3004.3574,-587.4492 3004.635,-587.3986 3008.4966,-586.6431 3139.9897,-617.924 3196.7585,-656.9507 3202.0513,-663.06 3216.0513,-772.0323 3232.3762,-875.4946 3239.9905,-919.9 3239.5935,-920.9012 3228.1389,-934.6178 3088.8213,-1041.067 3005.0376,-1025.8395 2985.6804,-1022.8253 2970.9509,-1021.301 2959.9888,-1020.4529 2952.2368,-1019.9544 2931.5813,-1019.1661 2914.7388,-1018.7438 2825.2195,-1001.4852 2788.0081,-979.2645 2663.9312,-994.7782 2647.8342,-997.2211 2646.1919,-997.5141 2625.4985,-1001.4829 "/>
<polyline fill="none" stroke="#000000" points="1784.4312,-1072.208 1728.8683,-1027.9 1708.9351,-1009.1612 1700.7389,-1002.3179 1692.1448,-995.5954 1681.3386,-988.2892 1670.6964,-982.2251 1662.5724,-978.4598 1653.3696,-974.6846 1643.5485,-971.7094 1614.3287,-964.4341 1601.9423,-960.0228 1593.3033,-956.0289 1580.6527,-948.8138 1579.9763,-948.3929 1571.4095,-942.5988 1564.5825,-937.6227 1553.0385,-927.9839 1550.9291,-926.0009 1520.4158,-899.1298 1470.8453,-859.6005 1404.6467,-846.8814 1328.3314,-860.2611 1295.7787,-760.08 1264.6313,-649.2252 1254.6727,-615.576 1218.6265,-504.6432 1292.7799,-365.7898 1298.7349,-328.671 1308.7794,-309.9984 1488.0214,-180.0831 1591.3623,-213.6258 1597.5112,-215.5488 1616.561,-221.2802 1634.9415,-225.9294 1652.7483,-229.7929 1673.7347,-233.3398 1677.4252,-233.919 1734.9108,-240.8717 1742.34,-241.8649 1759.9478,-244.8938 1764.3173,-245.7569 1766.2321,-424.7889 1765.5554,-451.3996 1766.3932,-469.1597 1766.532,-470.8259 1767.421,-553.9524 1756.9796,-570.7263 1792.4434,-588.9274 1835.6096,-614.8276 1847.1986,-622.8209 1859.2853,-629.9696 1860.1787,-630.4 1863.3785,-631.6169 1871.2645,-633.8297 1879.0406,-635.2091 1883.6117,-635.5441 1884.2144,-635.5265 1885.1289,-635.5934 1892.6813,-635.3671 1894.6444,-635.5109 1897.0194,-635.4398 1897.8805,-635.325 1902.2756,-635.1921 1904.4635,-635.3502 1907.9153,-635.2452 1911.069,-635.4714 1920.8261,-637.1798 1921.0891,-637.2523 1929.2432,-640.3575 1933.506,-642.4177 1943.5369,-648.3124 1968.7654,-668.2191 1973.2473,-671.4191 1973.2041,-671.5544 1966.1442,-703.1178 1963.474,-712.8751 1940.0305,-720.8541 1926.673,-724.6592 1924.6882,-725.1095 1914.4419,-726.2778 1914.2542,-726.4996 1906.3342,-734.8437 1899.6694,-740.1699 1896.311,-744.0292 1864.8944,-774.1963 1861.9097,-776.5479 1851.2753,-788.1469 1850.7642,-788.572 1846.165,-792.8866 1844.7311,-794.3862 1837.8898,-802.3405 1900.2465,-853.8322 1905.1312,-858.2353 1906.0852,-859.2463 1910.6106,-859.43 1916.9429,-859.2126 1918.5485,-859.2856 1920.8645,-859.3041 1929.7102,-859.0425 1932.7653,-859.1964 1933.6592,-859.1743 1941.7018,-859.297 1950.5846,-858.7663 1954.474,-858.3884 1963.5928,-857.161 1965.3125,-856.8013 1976.3591,-854.0723 2032.8261,-838.0231 2037.709,-832.5549 2044.7488,-830.8472 2055.874,-828.7131 2061.9773,-827.8525 2074.707,-826.3807 2083.4114,-826.0383 2086.5159,-825.995 2093.3464,-825.7285 2098.5146,-825.6584 2098.8438,-825.6375 2113.0737,-825.8167 2113.8533,-825.8463 2114.8955,-825.8598 2116.8628,-825.9351 2116.9607,-825.9364 2119.4482,-826.0325 2119.781,-826.037 2127.5862,-825.7539 2135.2576,-825.8648 2147.3335,-825.1334 2163.3118,-823.3646 2165.1997,-823.1087 2234.2493,-812.0329 2378.4036,-836.0758 2393.386,-884.4497 2418.9888,-963.4268 2435.1152,-1009.4367 2427.0618,-1019.2037 2161.0515,-1182.0237 2150.012,-1189.2722 2143.522,-1193.6295 2190.114,-1389.8 2221.8359,-1501.8488 2199.417,-1542.6455 1974.7509,-1613.2815 1963.9199,-1616.9886 1944.7153,-1624.3682 1943.28,-1624.9595 1931.2998,-1624.3882 1878.9067,-1623.7711 1783.3823,-1581.739 1728.6946,-1524.6519 1693.3622,-1389.8 1666.8942,-1302.6946 1816.5865,-1169.0402 1784.4312,-1072.208 "/>
<polyline fill="none" stroke="#000000" points="228.6592,-986.3132 235.8763,-986.4822 255.2206,-987.4131 265.2794,-988.0211 316.0786,-991.7164 385.4888,-961.8061 529.8299,-994.5033 548.7386,-999.262 553.7842,-1000.7845 570.6248,-997.2756 589.8093,-994.2098 594.6537,-993.5536 596.6163,-993.3353 611.3266,-991.8771 620.1822,-991.1069 721.8704,-983.499 815.4511,-961.3025 889.8641,-1009.3757 999.1603,-1006.8546 1016.4518,-1006.8452 1028.7163,-1006.9767 1035.0798,-1007.1882 1044.7262,-1007.8351 1053.7344,-1008.5408 1071.0482,-1010.0923 1177.6946,-1023.2424 1253.5354,-1002.4006 1259.3721,-991.8076 1328.3314,-860.2611 1295.7787,-760.08 1264.6313,-649.2252 1254.6727,-615.576 1218.6265,-504.6432 1077.3521,-537.7968 1057.6658,-542.1568 1047.8734,-543.9341 1041.0734,-545.0778 1040.1061,-545.2276 1030.6388,-546.5679 1005.9639,-549.078 926.3071,-553.994 804.7841,-628.1536 624.0535,-544.4924 622.9682,-544.3629 611.0077,-542.7964 593.3853,-540.078 578.8985,-537.5075 567.1597,-534.8803 558.8607,-532.9268 540.6212,-527.9973 537.1888,-527.0301 533.8383,-528.0299 403.3894,-562.4449 303.9994,-526.3453 212.1954,-429.2994 91.0115,-367.5236 76.4787,-359.5332 75.2842,-360.0395 62.0335,-365.4971 37.9215,-373.9998 -99.5914,-417.5856 -202.796,-497.3741 -216.2018,-633.74 -216.5649,-636.4293 -194.6065,-715.7943 -144.8165,-760.6239 -119.4138,-782.9279 -15.5309,-862.4608 46.4431,-990.0789 67.1704,-998.7411 188.473,-988.1207 209.1693,-986.8182 228.6592,-986.3132 "/>
<polyline fill="none" stroke="#000000" points="1582.5353,-1282.275 1593.8353,-1284.5693 1616.4473,-1289.6719 1621.391,-1290.8981 1666.8942,-1302.6946 1816.5865,-1169.0402 1784.4312,-1072.208 1728.8683,-1027.9 1708.9351,-1009.1612 1700.7389,-1002.3179 1692.1448,-995.5954 1681.3386,-988.2892 1670.6964,-982.2251 1662.5724,-978.4598 1653.3696,-974.6846 1643.5485,-971.7094 1614.3287,-964.4341 1601.9423,-960.0228 1593.3033,-956.0289 1580.6527,-948.8138 1579.9763,-948.3929 1571.4095,-942.5988 1564.5825,-937.6227 1553.0385,-927.9839 1550.9291,-926.0009 1520.4158,-899.1298 1470.8453,-859.6005 1404.6467,-846.8814 1328.3314,-860.2611 1259.3721,-991.8076 1253.5354,-1002.4006 1320.5309,-1086.0724 1429.571,-1225.9933 1508.9905,-1272.7067 1538.218,-1276.0009 1562.2332,-1278.9801 1568.405,-1279.8848 1582.5353,-1282.275 "/>
<!-- cups&#45;libs&#45;&gt;avahi&#45;libs -->
<g id="edge1" class="edge">
<title>cups&#45;libs&#45;&gt;avahi&#45;libs</title>
<path fill="none" stroke="#444444" stroke-opacity="0.333333" d="M2694.8846,-784.9535C2751.855,-789.0341 2838.0766,-795.2099 2899.6422,-799.6197"/>
<polygon fill="#444444" fill-opacity="0.333333" stroke="#444444" stroke-opacity="0.333333" points="2899.4612,-803.1156 2909.6857,-800.339 2899.9614,-796.1335 2899.4612,-803.1156"/>
</g>
<!-- libldb&#45;&gt;libtalloc -->
<g id="edge2" class="edge">
<title>libldb&#45;&gt;libtalloc</title>
<path fill="none" stroke="#444444" stroke-opacity="0.333333" d="M1822.6942,-852.0375C1833.1285,-817.0985 1856.1393,-740.047 1868.5596,-698.4577"/>
<polygon fill="#444444" fill-opacity="0.333333" stroke="#444444" stroke-opacity="0.333333" points="1871.9671,-699.2789 1871.475,-688.6955 1865.2598,-697.2757 1871.9671,-699.2789"/>
</g>
<!-- libldb&#45;&gt;libtdb -->
<g id="edge3" class="edge">
<title>libldb&#45;&gt;libtdb</title>
<path fill="none" stroke="#444444" stroke-opacity="0.333333" d="M1837.9993,-852.0673C1852.7336,-839.2313 1872.7108,-821.8277 1888.915,-807.7111"/>
<polygon fill="#444444" fill-opacity="0.333333" stroke="#444444" stroke-opacity="0.333333" points="1891.2861,-810.2873 1896.5272,-801.0796 1886.688,-805.0093 1891.2861,-810.2873"/>
</g>
<!-- libldb&#45;&gt;libtevent -->
<g id="edge4" class="edge">
<title>libldb&#45;&gt;libtevent</title>
<path fill="none" stroke="#444444" stroke-opacity="0.333333" d="M1819.8762,-852.0761C1823.1519,-829.1581 1828.8432,-789.3393 1832.6891,-762.4316"/>
<polygon fill="#444444" fill-opacity="0.333333" stroke="#444444" stroke-opacity="0.333333" points="1836.1629,-762.8631 1834.1132,-752.4684 1829.2334,-761.8726 1836.1629,-762.8631"/>
</g>
<!-- libtevent&#45;&gt;libtalloc -->
<g id="edge5" class="edge">
<title>libtevent&#45;&gt;libtalloc</title>
<path fill="none" stroke="#444444" stroke-opacity="0.333333" d="M1848.1122,-716.2468C1851.7305,-710.5007 1855.8138,-704.0161 1859.7437,-697.7752"/>
<polygon fill="#444444" fill-opacity="0.333333" stroke="#444444" stroke-opacity="0.333333" points="1862.9528,-699.2473 1865.3197,-688.9202 1857.0294,-695.5173 1862.9528,-699.2473"/>
</g>
<!-- libsmbclient&#45;&gt;libtalloc -->
<g id="edge6" class="edge">
<title>libsmbclient&#45;&gt;libtalloc</title>
<path fill="none" stroke="#444444" stroke-opacity="0.333333" d="M2109.6234,-917.213C2066.1105,-871.0901 1951.4382,-749.5393 1901.1354,-696.2191"/>
<polygon fill="#444444" fill-opacity="0.333333" stroke="#444444" stroke-opacity="0.333333" points="1903.605,-693.7365 1894.1968,-688.8644 1898.5133,-698.5401 1903.605,-693.7365"/>
</g>
<!-- libsmbclient&#45;&gt;libtevent -->
<g id="edge7" class="edge">
<title>libsmbclient&#45;&gt;libtevent</title>
<path fill="none" stroke="#444444" stroke-opacity="0.333333" d="M2100.8003,-917.4012C2048.4165,-881.0973 1930.1727,-799.15 1871.3224,-758.3646"/>
<polygon fill="#444444" fill-opacity="0.333333" stroke="#444444" stroke-opacity="0.333333" points="1872.9585,-755.2401 1862.7457,-752.4207 1868.9712,-760.9935 1872.9585,-755.2401"/>
</g>
<!-- libsmbclient&#45;&gt;samba&#45;client&#45;libs -->
<g id="edge8" class="edge">
<title>libsmbclient&#45;&gt;samba&#45;client&#45;libs</title>
<path fill="none" stroke="#444444" stroke-opacity="0.333333" d="M2122.9906,-917.1065C2115.0075,-878.7282 2096.4808,-789.6616 2087.0064,-744.1142"/>
<polygon fill="#444444" fill-opacity="0.333333" stroke="#444444" stroke-opacity="0.333333" points="2090.4297,-743.3849 2084.9665,-734.3072 2083.5764,-744.8105 2090.4297,-743.3849"/>
</g>
<!-- samba&#45;client&#45;libs&#45;&gt;cups&#45;libs -->
<g id="edge9" class="edge">
<title>samba&#45;client&#45;libs&#45;&gt;cups&#45;libs</title>
<path fill="none" stroke="#444444" stroke-opacity="0.333333" d="M2183.5131,-728.1055C2294.8842,-741.0649 2469.9189,-761.4325 2566.2265,-772.6391"/>
<polygon fill="#444444" fill-opacity="0.333333" stroke="#444444" stroke-opacity="0.333333" points="2566.096,-776.1475 2576.4336,-773.8269 2566.9052,-769.1944 2566.096,-776.1475"/>
</g>
<!-- samba&#45;client&#45;libs&#45;&gt;libldb -->
<g id="edge10" class="edge">
<title>samba&#45;client&#45;libs&#45;&gt;libldb</title>
<path fill="none" stroke="#444444" stroke-opacity="0.333333" d="M2050.1513,-734.3068C2002.1094,-762.3237 1909.8029,-816.1546 1856.9846,-846.9569"/>
<polygon fill="#444444" fill-opacity="0.333333" stroke="#444444" stroke-opacity="0.333333" points="1855.1057,-844.0009 1848.2305,-852.0621 1858.6321,-850.0478 1855.1057,-844.0009"/>
</g>
<!-- samba&#45;client&#45;libs&#45;&gt;libtalloc -->
<g id="edge11" class="edge">
<title>samba&#45;client&#45;libs&#45;&gt;libtalloc</title>
<path fill="none" stroke="#444444" stroke-opacity="0.333333" d="M2000.4552,-698.15C1982.4608,-694.1275 1963.5385,-689.8975 1946.0599,-685.9903"/>
<polygon fill="#444444" fill-opacity="0.333333" stroke="#444444" stroke-opacity="0.333333" points="1946.4762,-682.497 1935.9535,-683.731 1944.949,-689.3284 1946.4762,-682.497"/>
</g>
<!-- samba&#45;client&#45;libs&#45;&gt;libtdb -->
<g id="edge12" class="edge">
<title>samba&#45;client&#45;libs&#45;&gt;libtdb</title>
<path fill="none" stroke="#444444" stroke-opacity="0.333333" d="M2036.8192,-734.296C2016.1608,-742.7193 1991.4354,-752.801 1969.84,-761.6064"/>
<polygon fill="#444444" fill-opacity="0.333333" stroke="#444444" stroke-opacity="0.333333" points="1968.4201,-758.4055 1960.4818,-765.4221 1971.0631,-764.8874 1968.4201,-758.4055"/>
</g>
<!-- samba&#45;client&#45;libs&#45;&gt;libtevent -->
<g id="edge13" class="edge">
<title>samba&#45;client&#45;libs&#45;&gt;libtevent</title>
<path fill="none" stroke="#444444" stroke-opacity="0.333333" d="M1978.9267,-723.8004C1954.4153,-725.622 1928.8027,-727.5254 1906.1753,-729.207"/>
<polygon fill="#444444" fill-opacity="0.333333" stroke="#444444" stroke-opacity="0.333333" points="1905.7167,-725.7313 1896.0036,-729.9629 1906.2355,-732.712 1905.7167,-725.7313"/>
</g>
<!-- samba&#45;client&#45;libs&#45;&gt;libwbclient -->
<g id="edge14" class="edge">
<title>samba&#45;client&#45;libs&#45;&gt;libwbclient</title>
<path fill="none" stroke="#444444" stroke-opacity="0.333333" d="M2087.1946,-697.8753C2099.442,-642.8854 2123.0974,-479.0199 2128.63,-412.6452"/>
<polygon fill="#444444" fill-opacity="0.333333" stroke="#444444" stroke-opacity="0.333333" points="2132.133,-412.7329 2129.3804,-402.5019 2125.1521,-412.2164 2132.133,-412.7329"/>
</g>
<!-- samba&#45;client&#45;libs&#45;&gt;samba&#45;dc&#45;libs -->
<g id="edge15" class="edge">
<title>samba&#45;client&#45;libs&#45;&gt;samba&#45;dc&#45;libs</title>
<path fill="none" stroke="#444444" stroke-opacity="0.333333" d="M2064.1343,-734.563C2034.6126,-773.2531 1975.313,-863.0518 1949.1831,-908.4318"/>
<polygon fill="#444444" fill-opacity="0.333333" stroke="#444444" stroke-opacity="0.333333" points="1945.9866,-906.9753 1944.1333,-917.4068 1952.0873,-910.4078 1945.9866,-906.9753"/>
</g>
<!-- samba&#45;client&#45;libs&#45;&gt;samba&#45;libs -->
<g id="edge16" class="edge">
<title>samba&#45;client&#45;libs&#45;&gt;samba&#45;libs</title>
<path fill="none" stroke="#444444" stroke-opacity="0.333333" d="M2063.5417,-698.1957C2038.9468,-678.1348 1993.7263,-645.93 1959.7059,-623.8768"/>
<polygon fill="#444444" fill-opacity="0.333333" stroke="#444444" stroke-opacity="0.333333" points="1961.1856,-620.6683 1950.8766,-618.2238 1957.4111,-626.5635 1961.1856,-620.6683"/>
</g>
<!-- libwbclient&#45;&gt;samba&#45;client&#45;libs -->
<g id="edge17" class="edge">
<title>libwbclient&#45;&gt;samba&#45;client&#45;libs</title>
<path fill="none" stroke="#444444" stroke-opacity="0.333333" d="M2122.7054,-402.5847C2110.458,-457.5746 2086.8026,-621.4401 2081.27,-687.8148"/>
<polygon fill="#444444" fill-opacity="0.333333" stroke="#444444" stroke-opacity="0.333333" points="2077.767,-687.7271 2080.5196,-697.9581 2084.7479,-688.2436 2077.767,-687.7271"/>
</g>
<!-- samba&#45;dc&#45;libs&#45;&gt;libldb -->
<g id="edge18" class="edge">
<title>samba&#45;dc&#45;libs&#45;&gt;libldb</title>
<path fill="none" stroke="#444444" stroke-opacity="0.333333" d="M1903.6849,-917.5574C1889.8631,-909.9641 1873.6267,-901.0443 1858.9834,-892.9997"/>
<polygon fill="#444444" fill-opacity="0.333333" stroke="#444444" stroke-opacity="0.333333" points="1860.5574,-889.871 1850.1076,-888.1236 1857.1869,-896.0062 1860.5574,-889.871"/>
</g>
<!-- samba&#45;dc&#45;libs&#45;&gt;libtalloc -->
<g id="edge19" class="edge">
<title>samba&#45;dc&#45;libs&#45;&gt;libtalloc</title>
<path fill="none" stroke="#444444" stroke-opacity="0.333333" d="M1932.4966,-917.4179C1922.272,-872.0134 1895.6005,-753.5732 1883.293,-698.9193"/>
<polygon fill="#444444" fill-opacity="0.333333" stroke="#444444" stroke-opacity="0.333333" points="1886.6436,-697.8664 1881.0321,-688.8796 1879.8146,-699.4042 1886.6436,-697.8664"/>
</g>
<!-- samba&#45;dc&#45;libs&#45;&gt;libtevent -->
<g id="edge20" class="edge">
<title>samba&#45;dc&#45;libs&#45;&gt;libtevent</title>
<path fill="none" stroke="#444444" stroke-opacity="0.333333" d="M1927.5583,-917.4236C1909.913,-881.8733 1870.81,-803.092 1850.1281,-761.4238"/>
<polygon fill="#444444" fill-opacity="0.333333" stroke="#444444" stroke-opacity="0.333333" points="1853.2303,-759.8014 1845.6492,-752.4002 1846.9602,-762.9136 1853.2303,-759.8014"/>
</g>
<!-- samba&#45;dc&#45;libs&#45;&gt;samba&#45;client&#45;libs -->
<g id="edge21" class="edge">
<title>samba&#45;dc&#45;libs&#45;&gt;samba&#45;client&#45;libs</title>
<path fill="none" stroke="#444444" stroke-opacity="0.333333" d="M1953.6657,-917.277C1983.1874,-878.5869 2042.487,-788.7882 2068.6169,-743.4082"/>
<polygon fill="#444444" fill-opacity="0.333333" stroke="#444444" stroke-opacity="0.333333" points="2071.8134,-744.8647 2073.6667,-734.4332 2065.7127,-741.4322 2071.8134,-744.8647"/>
</g>
<!-- samba&#45;dc&#45;libs&#45;&gt;samba&#45;libs -->
<g id="edge22" class="edge">
<title>samba&#45;dc&#45;libs&#45;&gt;samba&#45;libs</title>
<path fill="none" stroke="#444444" stroke-opacity="0.333333" d="M1935.4709,-917.6048C1932.0169,-862.4311 1921.5733,-695.6066 1917.3754,-628.5496"/>
<polygon fill="#444444" fill-opacity="0.333333" stroke="#444444" stroke-opacity="0.333333" points="1920.8527,-628.0762 1916.7346,-618.3144 1913.8664,-628.5136 1920.8527,-628.0762"/>
</g>
<!-- samba&#45;dc&#45;libs&#45;&gt;samba&#45;common&#45;libs -->
<g id="edge23" class="edge">
<title>samba&#45;dc&#45;libs&#45;&gt;samba&#45;common&#45;libs</title>
<path fill="none" stroke="#444444" stroke-opacity="0.333333" d="M1945.077,-917.2743C1970.6205,-861.9334 2046.9595,-696.5422 2077.432,-630.5223"/>
<polygon fill="#444444" fill-opacity="0.333333" stroke="#444444" stroke-opacity="0.333333" points="2080.7362,-631.7153 2081.7492,-621.169 2074.3805,-628.7817 2080.7362,-631.7153"/>
</g>
<!-- samba&#45;dc&#45;libs&#45;&gt;libkadm5 -->
<g id="edge24" class="edge">
<title>samba&#45;dc&#45;libs&#45;&gt;libkadm5</title>
<path fill="none" stroke="#444444" stroke-opacity="0.333333" d="M1937.2331,-953.7239C1939.6788,-1023.5817 1948.5214,-1276.1573 1951.5072,-1361.4432"/>
<polygon fill="#444444" fill-opacity="0.333333" stroke="#444444" stroke-opacity="0.333333" points="1948.0172,-1361.7931 1951.8651,-1371.6645 1955.013,-1361.5481 1948.0172,-1361.7931"/>
</g>
<!-- samba&#45;libs&#45;&gt;libldb -->
<g id="edge25" class="edge">
<title>samba&#45;libs&#45;&gt;libldb</title>
<path fill="none" stroke="#444444" stroke-opacity="0.333333" d="M1908.9976,-618.3187C1892.1393,-664.6078 1847.4219,-787.3919 1827.327,-842.5681"/>
<polygon fill="#444444" fill-opacity="0.333333" stroke="#444444" stroke-opacity="0.333333" points="1824.0071,-841.4562 1823.8736,-852.0502 1830.5845,-843.8517 1824.0071,-841.4562"/>
</g>
<!-- samba&#45;libs&#45;&gt;libtalloc -->
<g id="edge26" class="edge">
<title>samba&#45;libs&#45;&gt;libtalloc</title>
<path fill="none" stroke="#444444" stroke-opacity="0.333333" d="M1905.6338,-618.3043C1901.4234,-625.9569 1896.431,-635.0311 1891.7984,-643.451"/>
<polygon fill="#444444" fill-opacity="0.333333" stroke="#444444" stroke-opacity="0.333333" points="1888.7209,-641.784 1886.9669,-652.2326 1894.8539,-645.1583 1888.7209,-641.784"/>
</g>
<!-- samba&#45;libs&#45;&gt;libtdb -->
<g id="edge27" class="edge">
<title>samba&#45;libs&#45;&gt;libtdb</title>
<path fill="none" stroke="#444444" stroke-opacity="0.333333" d="M1915.7593,-618.3938C1916.0384,-650.2988 1916.6179,-716.5328 1916.9506,-754.5624"/>
<polygon fill="#444444" fill-opacity="0.333333" stroke="#444444" stroke-opacity="0.333333" points="1913.4539,-754.9708 1917.0414,-764.9398 1920.4537,-754.9095 1913.4539,-754.9708"/>
</g>
<!-- samba&#45;libs&#45;&gt;libtevent -->
<g id="edge28" class="edge">
<title>samba&#45;libs&#45;&gt;libtevent</title>
<path fill="none" stroke="#444444" stroke-opacity="0.333333" d="M1904.9592,-618.2861C1891.4888,-641.1943 1868.165,-680.8595 1852.5837,-707.3576"/>
<polygon fill="#444444" fill-opacity="0.333333" stroke="#444444" stroke-opacity="0.333333" points="1849.476,-705.7378 1847.4242,-716.1321 1855.5101,-709.286 1849.476,-705.7378"/>
</g>
<!-- samba&#45;libs&#45;&gt;samba&#45;client&#45;libs -->
<g id="edge29" class="edge">
<title>samba&#45;libs&#45;&gt;samba&#45;client&#45;libs</title>
<path fill="none" stroke="#444444" stroke-opacity="0.333333" d="M1933.2583,-618.1943C1957.8532,-638.2552 2003.0737,-670.46 2037.0941,-692.5132"/>
<polygon fill="#444444" fill-opacity="0.333333" stroke="#444444" stroke-opacity="0.333333" points="2035.6144,-695.7217 2045.9234,-698.1662 2039.3889,-689.8265 2035.6144,-695.7217"/>
</g>
<!-- samba&#45;libs&#45;&gt;libwbclient -->
<g id="edge30" class="edge">
<title>samba&#45;libs&#45;&gt;libwbclient</title>
<path fill="none" stroke="#444444" stroke-opacity="0.333333" d="M1933.4023,-582.1513C1971.3214,-543.7286 2060.1445,-453.7259 2103.7105,-409.5813"/>
<polygon fill="#444444" fill-opacity="0.333333" stroke="#444444" stroke-opacity="0.333333" points="2106.2654,-411.9753 2110.7985,-402.3992 2101.2831,-407.0583 2106.2654,-411.9753"/>
</g>
<!-- samba&#45;libs&#45;&gt;python2&#45;talloc -->
<g id="edge31" class="edge">
<title>samba&#45;libs&#45;&gt;python2&#45;talloc</title>
<path fill="none" stroke="#444444" stroke-opacity="0.333333" d="M1880.6824,-582.0929C1830.6874,-556.1815 1738.7255,-508.5193 1684.0651,-480.1899"/>
<polygon fill="#444444" fill-opacity="0.333333" stroke="#444444" stroke-opacity="0.333333" points="1685.4574,-476.9694 1674.9684,-475.4753 1682.2363,-483.1843 1685.4574,-476.9694"/>
</g>
<!-- samba&#45;common&#45;libs&#45;&gt;libtalloc -->
<g id="edge44" class="edge">
<title>samba&#45;common&#45;libs&#45;&gt;libtalloc</title>
<path fill="none" stroke="#444444" stroke-opacity="0.333333" d="M2033.3197,-620.9054C2005.7111,-629.6643 1972.3663,-640.2431 1943.5689,-649.3791"/>
<polygon fill="#444444" fill-opacity="0.333333" stroke="#444444" stroke-opacity="0.333333" points="1942.4654,-646.0572 1933.992,-652.4174 1944.5823,-652.7295 1942.4654,-646.0572"/>
</g>
<!-- samba&#45;common&#45;libs&#45;&gt;libtdb -->
<g id="edge45" class="edge">
<title>samba&#45;common&#45;libs&#45;&gt;libtdb</title>
<path fill="none" stroke="#444444" stroke-opacity="0.333333" d="M2072.6598,-621.1312C2041.6235,-653.461 1976.9763,-720.8024 1941.6093,-757.6434"/>
<polygon fill="#444444" fill-opacity="0.333333" stroke="#444444" stroke-opacity="0.333333" points="1938.9299,-755.3806 1934.5294,-765.0183 1943.9796,-760.2283 1938.9299,-755.3806"/>
</g>
<!-- samba&#45;common&#45;libs&#45;&gt;samba&#45;client&#45;libs -->
<g id="edge46" class="edge">
<title>samba&#45;common&#45;libs&#45;&gt;samba&#45;client&#45;libs</title>
<path fill="none" stroke="#444444" stroke-opacity="0.333333" d="M2088.754,-621.07C2087.3238,-639.081 2085.1143,-666.9055 2083.4537,-687.8179"/>
<polygon fill="#444444" fill-opacity="0.333333" stroke="#444444" stroke-opacity="0.333333" points="2079.9451,-687.7895 2082.6424,-698.0352 2086.9231,-688.3436 2079.9451,-687.7895"/>
</g>
<!-- samba&#45;common&#45;libs&#45;&gt;libwbclient -->
<g id="edge47" class="edge">
<title>samba&#45;common&#45;libs&#45;&gt;libwbclient</title>
<path fill="none" stroke="#444444" stroke-opacity="0.333333" d="M2093.4163,-584.5983C2100.1422,-546.4091 2115.7327,-457.8876 2123.747,-412.3827"/>
<polygon fill="#444444" fill-opacity="0.333333" stroke="#444444" stroke-opacity="0.333333" points="2127.2323,-412.7715 2125.52,-402.316 2120.3384,-411.5573 2127.2323,-412.7715"/>
</g>
<!-- python2&#45;talloc&#45;&gt;libtalloc -->
<g id="edge41" class="edge">
<title>python2&#45;talloc&#45;&gt;libtalloc</title>
<path fill="none" stroke="#444444" stroke-opacity="0.333333" d="M1660.1065,-475.4799C1702.5212,-513.6406 1800.8904,-602.1438 1849.1661,-645.5777"/>
<polygon fill="#444444" fill-opacity="0.333333" stroke="#444444" stroke-opacity="0.333333" points="1846.9696,-648.3096 1856.7447,-652.3961 1851.6516,-643.1058 1846.9696,-648.3096"/>
</g>
<!-- libtomcrypt&#45;&gt;libtommath -->
<g id="edge32" class="edge">
<title>libtomcrypt&#45;&gt;libtommath</title>
<path fill="none" stroke="#444444" stroke-opacity="0.333333" d="M201.0824,-742.3127C173.2302,-720.1976 126.0715,-682.7527 95.0684,-658.1357"/>
<polygon fill="#444444" fill-opacity="0.333333" stroke="#444444" stroke-opacity="0.333333" points="97.1772,-655.341 87.1692,-651.8636 92.8243,-660.823 97.1772,-655.341"/>
</g>
<!-- python2&#45;crypto&#45;&gt;libtomcrypt -->
<g id="edge33" class="edge">
<title>python2&#45;crypto&#45;&gt;libtomcrypt</title>
<path fill="none" stroke="#444444" stroke-opacity="0.333333" d="M486.4244,-770.0457C430.6322,-768.0103 358.4946,-765.3785 303.9679,-763.3893"/>
<polygon fill="#444444" fill-opacity="0.333333" stroke="#444444" stroke-opacity="0.333333" points="303.7749,-759.88 293.6539,-763.013 303.5196,-766.8753 303.7749,-759.88"/>
</g>
<!-- python2&#45;dns&#45;&gt;python2&#45;crypto -->
<g id="edge34" class="edge">
<title>python2&#45;dns&#45;&gt;python2&#45;crypto</title>
<path fill="none" stroke="#444444" stroke-opacity="0.333333" d="M967.9863,-762.0427C888.5802,-764.2815 758.2325,-767.9565 669.0667,-770.4705"/>
<polygon fill="#444444" fill-opacity="0.333333" stroke="#444444" stroke-opacity="0.333333" points="668.8436,-766.9753 658.9463,-770.7558 669.041,-773.9725 668.8436,-766.9753"/>
</g>
<!-- python2&#45;ldb&#45;&gt;libldb -->
<g id="edge35" class="edge">
<title>python2&#45;ldb&#45;&gt;libldb</title>
<path fill="none" stroke="#444444" stroke-opacity="0.333333" d="M1742.5106,-891.1755C1749.6796,-889.1553 1756.924,-887.1139 1763.9364,-885.1378"/>
<polygon fill="#444444" fill-opacity="0.333333" stroke="#444444" stroke-opacity="0.333333" points="1765.3329,-888.3806 1774.0087,-882.2994 1763.4342,-881.643 1765.3329,-888.3806"/>
</g>
<!-- python2&#45;ldb&#45;&gt;libtalloc -->
<g id="edge36" class="edge">
<title>python2&#45;ldb&#45;&gt;libtalloc</title>
<path fill="none" stroke="#444444" stroke-opacity="0.333333" d="M1693.554,-890.9329C1728.5858,-848.8207 1814.8795,-745.0857 1855.3254,-696.4651"/>
<polygon fill="#444444" fill-opacity="0.333333" stroke="#444444" stroke-opacity="0.333333" points="1858.1613,-698.5289 1861.8658,-688.6028 1852.7799,-694.0522 1858.1613,-698.5289"/>
</g>
<!-- python2&#45;ldb&#45;&gt;libtdb -->
<g id="edge37" class="edge">
<title>python2&#45;ldb&#45;&gt;libtdb</title>
<path fill="none" stroke="#444444" stroke-opacity="0.333333" d="M1712.5285,-891.1886C1755.105,-868.6974 1827.8225,-830.2841 1874.1402,-805.8166"/>
<polygon fill="#444444" fill-opacity="0.333333" stroke="#444444" stroke-opacity="0.333333" points="1875.8277,-808.8835 1883.0349,-801.1178 1872.558,-802.694 1875.8277,-808.8835"/>
</g>
<!-- python2&#45;ldb&#45;&gt;libtevent -->
<g id="edge38" class="edge">
<title>python2&#45;ldb&#45;&gt;libtevent</title>
<path fill="none" stroke="#444444" stroke-opacity="0.333333" d="M1694.655,-891.2114C1722.874,-860.0529 1780.8,-796.0929 1813.2863,-760.2227"/>
<polygon fill="#444444" fill-opacity="0.333333" stroke="#444444" stroke-opacity="0.333333" points="1816.0781,-762.354 1820.1967,-752.5924 1810.8896,-757.655 1816.0781,-762.354"/>
</g>
<!-- python2&#45;ldb&#45;&gt;python2&#45;tdb -->
<g id="edge39" class="edge">
<title>python2&#45;ldb&#45;&gt;python2&#45;tdb</title>
<path fill="none" stroke="#444444" stroke-opacity="0.333333" d="M1663.9323,-927.2873C1648.0965,-947.1457 1622.4839,-979.2643 1604.4655,-1001.8597"/>
<polygon fill="#444444" fill-opacity="0.333333" stroke="#444444" stroke-opacity="0.333333" points="1601.7012,-999.7125 1598.2029,-1009.7131 1607.1741,-1004.0768 1601.7012,-999.7125"/>
</g>
<!-- python2&#45;tdb&#45;&gt;libtdb -->
<g id="edge40" class="edge">
<title>python2&#45;tdb&#45;&gt;libtdb</title>
<path fill="none" stroke="#444444" stroke-opacity="0.333333" d="M1608.2231,-1009.8971C1667.3678,-966.4776 1817.8857,-855.9789 1884.5599,-807.0319"/>
<polygon fill="#444444" fill-opacity="0.333333" stroke="#444444" stroke-opacity="0.333333" points="1886.6512,-809.8385 1892.641,-801.0993 1882.5087,-804.1958 1886.6512,-809.8385"/>
</g>
<!-- python2&#45;tevent&#45;&gt;libtalloc -->
<g id="edge42" class="edge">
<title>python2&#45;tevent&#45;&gt;libtalloc</title>
<path fill="none" stroke="#444444" stroke-opacity="0.333333" d="M1610.8578,-637.6789C1671.3444,-645.1478 1751.1828,-655.0063 1807.5658,-661.9685"/>
<polygon fill="#444444" fill-opacity="0.333333" stroke="#444444" stroke-opacity="0.333333" points="1807.4573,-665.4816 1817.8108,-663.2336 1808.3152,-658.5344 1807.4573,-665.4816"/>
</g>
<!-- python2&#45;tevent&#45;&gt;libtevent -->
<g id="edge43" class="edge">
<title>python2&#45;tevent&#45;&gt;libtevent</title>
<path fill="none" stroke="#444444" stroke-opacity="0.333333" d="M1577.2737,-645.1257C1631.696,-663.8473 1716.683,-693.0834 1774.4332,-712.9498"/>
<polygon fill="#444444" fill-opacity="0.333333" stroke="#444444" stroke-opacity="0.333333" points="1773.5766,-716.3564 1784.1713,-716.2998 1775.8538,-709.7371 1773.5766,-716.3564"/>
</g>
<!-- samba&#45;common&#45;tools&#45;&gt;libtalloc -->
<g id="edge48" class="edge">
<title>samba&#45;common&#45;tools&#45;&gt;libtalloc</title>
<path fill="none" stroke="#444444" stroke-opacity="0.333333" d="M1997.0311,-528.3867C1973.0581,-556.7524 1926.4847,-611.8596 1898.8996,-644.4993"/>
<polygon fill="#444444" fill-opacity="0.333333" stroke="#444444" stroke-opacity="0.333333" points="1896.1026,-642.3866 1892.3208,-652.2835 1901.449,-646.9051 1896.1026,-642.3866"/>
</g>
<!-- samba&#45;common&#45;tools&#45;&gt;libtdb -->
<g id="edge49" class="edge">
<title>samba&#45;common&#45;tools&#45;&gt;libtdb</title>
<path fill="none" stroke="#444444" stroke-opacity="0.333333" d="M2005.9126,-528.6394C1989.6031,-575.4156 1946.3414,-699.4916 1926.9006,-755.2484"/>
<polygon fill="#444444" fill-opacity="0.333333" stroke="#444444" stroke-opacity="0.333333" points="1923.5472,-754.2355 1923.5596,-764.8303 1930.1569,-756.5402 1923.5472,-754.2355"/>
</g>
<!-- samba&#45;common&#45;tools&#45;&gt;libtevent -->
<g id="edge50" class="edge">
<title>samba&#45;common&#45;tools&#45;&gt;libtevent</title>
<path fill="none" stroke="#444444" stroke-opacity="0.333333" d="M1997.9299,-528.655C1966.854,-568.3051 1893.3061,-662.1456 1857.2916,-708.097"/>
<polygon fill="#444444" fill-opacity="0.333333" stroke="#444444" stroke-opacity="0.333333" points="1854.4363,-706.0662 1851.0224,-716.0959 1859.9458,-710.3843 1854.4363,-706.0662"/>
</g>
<!-- samba&#45;common&#45;tools&#45;&gt;samba&#45;client&#45;libs -->
<g id="edge51" class="edge">
<title>samba&#45;common&#45;tools&#45;&gt;samba&#45;client&#45;libs</title>
<path fill="none" stroke="#444444" stroke-opacity="0.333333" d="M2018.4144,-528.5905C2030.519,-564.7601 2057.5984,-645.6762 2071.9161,-688.4589"/>
<polygon fill="#444444" fill-opacity="0.333333" stroke="#444444" stroke-opacity="0.333333" points="2068.6065,-689.5982 2075.0993,-697.9705 2075.2447,-687.3766 2068.6065,-689.5982"/>
</g>
<!-- samba&#45;common&#45;tools&#45;&gt;libwbclient -->
<g id="edge52" class="edge">
<title>samba&#45;common&#45;tools&#45;&gt;libwbclient</title>
<path fill="none" stroke="#444444" stroke-opacity="0.333333" d="M2028.9773,-492.2587C2048.944,-470.6349 2082.5157,-434.2772 2105.1282,-409.7881"/>
<polygon fill="#444444" fill-opacity="0.333333" stroke="#444444" stroke-opacity="0.333333" points="2107.8411,-412.0092 2112.0537,-402.2878 2102.6982,-407.2604 2107.8411,-412.0092"/>
</g>
<!-- samba&#45;common&#45;tools&#45;&gt;samba&#45;libs -->
<g id="edge53" class="edge">
<title>samba&#45;common&#45;tools&#45;&gt;samba&#45;libs</title>
<path fill="none" stroke="#444444" stroke-opacity="0.333333" d="M1992.7313,-528.5065C1978.3136,-541.9059 1958.5274,-560.2946 1942.6051,-575.0923"/>
<polygon fill="#444444" fill-opacity="0.333333" stroke="#444444" stroke-opacity="0.333333" points="1940.0819,-572.6591 1935.1396,-582.0305 1944.8473,-577.7866 1940.0819,-572.6591"/>
</g>
<!-- samba&#45;common&#45;tools&#45;&gt;samba&#45;common&#45;libs -->
<g id="edge54" class="edge">
<title>samba&#45;common&#45;tools&#45;&gt;samba&#45;common&#45;libs</title>
<path fill="none" stroke="#444444" stroke-opacity="0.333333" d="M2027.6905,-528.6029C2039.3203,-542.4183 2055.4386,-561.5657 2068.3949,-576.957"/>
<polygon fill="#444444" fill-opacity="0.333333" stroke="#444444" stroke-opacity="0.333333" points="2065.7238,-579.2188 2074.8414,-584.6151 2071.079,-574.7108 2065.7238,-579.2188"/>
</g>
<!-- samba&#45;&gt;libtalloc -->
<g id="edge55" class="edge">
<title>samba&#45;&gt;libtalloc</title>
<path fill="none" stroke="#444444" stroke-opacity="0.333333" d="M1869.6735,-473.8425C1871.0524,-511.3714 1874.2052,-597.1845 1875.8531,-642.0352"/>
<polygon fill="#444444" fill-opacity="0.333333" stroke="#444444" stroke-opacity="0.333333" points="1872.3633,-642.3792 1876.2282,-652.2439 1879.3585,-642.1221 1872.3633,-642.3792"/>
</g>
<!-- samba&#45;&gt;libtdb -->
<g id="edge56" class="edge">
<title>samba&#45;&gt;libtdb</title>
<path fill="none" stroke="#444444" stroke-opacity="0.333333" d="M1871.6601,-473.5876C1879.6428,-527.8367 1903.4345,-689.522 1913.0748,-755.036"/>
<polygon fill="#444444" fill-opacity="0.333333" stroke="#444444" stroke-opacity="0.333333" points="1909.6295,-755.6643 1914.5481,-765.0482 1916.5549,-754.6452 1909.6295,-755.6643"/>
</g>
<!-- samba&#45;&gt;libtevent -->
<g id="edge57" class="edge">
<title>samba&#45;&gt;libtevent</title>
<path fill="none" stroke="#444444" stroke-opacity="0.333333" d="M1866.8807,-473.8068C1861.3693,-521.3891 1846.5583,-649.2591 1839.9549,-706.2691"/>
<polygon fill="#444444" fill-opacity="0.333333" stroke="#444444" stroke-opacity="0.333333" points="1836.459,-706.032 1838.7851,-716.3684 1843.4125,-706.8375 1836.459,-706.032"/>
</g>
<!-- samba&#45;&gt;samba&#45;client&#45;libs -->
<g id="edge58" class="edge">
<title>samba&#45;&gt;samba&#45;client&#45;libs</title>
<path fill="none" stroke="#444444" stroke-opacity="0.333333" d="M1883.9215,-473.8412C1920.9047,-519.2755 2016.9106,-637.2198 2059.8725,-689.9989"/>
<polygon fill="#444444" fill-opacity="0.333333" stroke="#444444" stroke-opacity="0.333333" points="2057.2676,-692.3431 2066.295,-697.889 2062.6965,-687.924 2057.2676,-692.3431"/>
</g>
<!-- samba&#45;&gt;libwbclient -->
<g id="edge59" class="edge">
<title>samba&#45;&gt;libwbclient</title>
<path fill="none" stroke="#444444" stroke-opacity="0.333333" d="M1906.7626,-445.1496C1944.9956,-434.6602 2005.1731,-418.1502 2053.2256,-404.9668"/>
<polygon fill="#444444" fill-opacity="0.333333" stroke="#444444" stroke-opacity="0.333333" points="2054.2558,-408.3136 2062.9734,-402.2924 2052.4037,-401.563 2054.2558,-408.3136"/>
</g>
<!-- samba&#45;&gt;samba&#45;libs -->
<g id="edge60" class="edge">
<title>samba&#45;&gt;samba&#45;libs</title>
<path fill="none" stroke="#444444" stroke-opacity="0.333333" d="M1874.8077,-473.5413C1882.7957,-498.3417 1897.2477,-543.2111 1906.6306,-572.3424"/>
<polygon fill="#444444" fill-opacity="0.333333" stroke="#444444" stroke-opacity="0.333333" points="1903.3218,-573.4861 1909.7191,-581.9315 1909.9847,-571.34 1903.3218,-573.4861"/>
</g>
<!-- samba&#45;&gt;samba&#45;common&#45;libs -->
<g id="edge61" class="edge">
<title>samba&#45;&gt;samba&#45;common&#45;libs</title>
<path fill="none" stroke="#444444" stroke-opacity="0.333333" d="M1896.1235,-473.578C1935.9243,-500.0909 2010.2067,-549.5733 2054.4299,-579.0322"/>
<polygon fill="#444444" fill-opacity="0.333333" stroke="#444444" stroke-opacity="0.333333" points="2052.5917,-582.0131 2062.8547,-584.6442 2056.4725,-576.1873 2052.5917,-582.0131"/>
</g>
<!-- samba&#45;&gt;samba&#45;common&#45;tools -->
<g id="edge62" class="edge">
<title>samba&#45;&gt;samba&#45;common&#45;tools</title>
<path fill="none" stroke="#444444" stroke-opacity="0.333333" d="M1906.6504,-469.9107C1921.6234,-475.6376 1939.1753,-482.3509 1955.6249,-488.6426"/>
<polygon fill="#444444" fill-opacity="0.333333" stroke="#444444" stroke-opacity="0.333333" points="1954.5644,-491.9843 1965.1549,-492.2877 1957.0652,-485.4462 1954.5644,-491.9843"/>
</g>
<!-- samba&#45;&gt;libaio -->
<g id="edge63" class="edge">
<title>samba&#45;&gt;libaio</title>
<path fill="none" stroke="#444444" stroke-opacity="0.333333" d="M1864.255,-437.2678C1846.5054,-369.0283 1783.9431,-128.5042 1762.4861,-46.0116"/>
<polygon fill="#444444" fill-opacity="0.333333" stroke="#444444" stroke-opacity="0.333333" points="1765.8699,-45.117 1759.9652,-36.3201 1759.0953,-46.8792 1765.8699,-45.117"/>
</g>
<!-- samba&#45;python&#45;&gt;libldb -->
<g id="edge64" class="edge">
<title>samba&#45;python&#45;&gt;libldb</title>
<path fill="none" stroke="#444444" stroke-opacity="0.333333" d="M1663.2658,-749.6891C1694.7056,-774.266 1750.9822,-818.2583 1786.1112,-845.7192"/>
<polygon fill="#444444" fill-opacity="0.333333" stroke="#444444" stroke-opacity="0.333333" points="1784.0945,-848.5852 1794.1285,-851.9865 1788.4056,-843.0703 1784.0945,-848.5852"/>
</g>
<!-- samba&#45;python&#45;&gt;libtalloc -->
<g id="edge65" class="edge">
<title>samba&#45;python&#45;&gt;libtalloc</title>
<path fill="none" stroke="#444444" stroke-opacity="0.333333" d="M1710.1867,-713.5108C1741.0751,-705.5473 1777.2588,-696.2187 1808.0086,-688.2911"/>
<polygon fill="#444444" fill-opacity="0.333333" stroke="#444444" stroke-opacity="0.333333" points="1808.9782,-691.6556 1817.7878,-685.7699 1807.2306,-684.8773 1808.9782,-691.6556"/>
</g>
<!-- samba&#45;python&#45;&gt;libtevent -->
<g id="edge66" class="edge">
<title>samba&#45;python&#45;&gt;libtevent</title>
<path fill="none" stroke="#444444" stroke-opacity="0.333333" d="M1715.8295,-732.6547C1732.7598,-732.895 1750.6343,-733.1486 1767.2937,-733.385"/>
<polygon fill="#444444" fill-opacity="0.333333" stroke="#444444" stroke-opacity="0.333333" points="1767.4415,-736.8874 1777.4901,-733.5297 1767.5409,-729.8881 1767.4415,-736.8874"/>
</g>
<!-- samba&#45;python&#45;&gt;samba&#45;client&#45;libs -->
<g id="edge67" class="edge">
<title>samba&#45;python&#45;&gt;samba&#45;client&#45;libs</title>
<path fill="none" stroke="#444444" stroke-opacity="0.333333" d="M1715.677,-728.9448C1785.3249,-726.5164 1889.6006,-722.8806 1968.9741,-720.113"/>
<polygon fill="#444444" fill-opacity="0.333333" stroke="#444444" stroke-opacity="0.333333" points="1969.1452,-723.6093 1979.0172,-719.7628 1968.9012,-716.6135 1969.1452,-723.6093"/>
</g>
<!-- samba&#45;python&#45;&gt;samba&#45;dc&#45;libs -->
<g id="edge68" class="edge">
<title>samba&#45;python&#45;&gt;samba&#45;dc&#45;libs</title>
<path fill="none" stroke="#444444" stroke-opacity="0.333333" d="M1666.4124,-749.689C1720.0409,-786.5977 1841.9745,-870.516 1901.9611,-911.8005"/>
<polygon fill="#444444" fill-opacity="0.333333" stroke="#444444" stroke-opacity="0.333333" points="1900.1246,-914.7854 1910.3466,-917.5716 1904.0932,-909.019 1900.1246,-914.7854"/>
</g>
<!-- samba&#45;python&#45;&gt;samba&#45;libs -->
<g id="edge69" class="edge">
<title>samba&#45;python&#45;&gt;samba&#45;libs</title>
<path fill="none" stroke="#444444" stroke-opacity="0.333333" d="M1678.1178,-713.4487C1727.691,-689.8066 1814.4063,-648.4508 1868.21,-622.791"/>
<polygon fill="#444444" fill-opacity="0.333333" stroke="#444444" stroke-opacity="0.333333" points="1870.0108,-625.8099 1877.5302,-618.346 1866.9975,-619.4916 1870.0108,-625.8099"/>
</g>
<!-- samba&#45;python&#45;&gt;python2&#45;talloc -->
<g id="edge73" class="edge">
<title>samba&#45;python&#45;&gt;python2&#45;talloc</title>
<path fill="none" stroke="#444444" stroke-opacity="0.333333" d="M1640.0866,-713.1578C1640.0524,-666.3144 1639.962,-542.3813 1639.9209,-485.9792"/>
<polygon fill="#444444" fill-opacity="0.333333" stroke="#444444" stroke-opacity="0.333333" points="1643.4208,-485.6394 1639.9134,-475.642 1636.4208,-485.6446 1643.4208,-485.6394"/>
</g>
<!-- samba&#45;python&#45;&gt;python2&#45;dns -->
<g id="edge70" class="edge">
<title>samba&#45;python&#45;&gt;python2&#45;dns</title>
<path fill="none" stroke="#444444" stroke-opacity="0.333333" d="M1564.403,-735.1607C1450.1224,-740.5665 1234.5128,-750.7655 1117.694,-756.2913"/>
<polygon fill="#444444" fill-opacity="0.333333" stroke="#444444" stroke-opacity="0.333333" points="1117.2157,-752.8099 1107.3923,-756.7786 1117.5465,-759.8021 1117.2157,-752.8099"/>
</g>
<!-- samba&#45;python&#45;&gt;python2&#45;ldb -->
<g id="edge71" class="edge">
<title>samba&#45;python&#45;&gt;python2&#45;ldb</title>
<path fill="none" stroke="#444444" stroke-opacity="0.333333" d="M1643.973,-749.5957C1650.6368,-780.5928 1664.3179,-844.2311 1672.2485,-881.1211"/>
<polygon fill="#444444" fill-opacity="0.333333" stroke="#444444" stroke-opacity="0.333333" points="1668.893,-882.1656 1674.4167,-891.2066 1675.7367,-880.6943 1668.893,-882.1656"/>
</g>
<!-- samba&#45;python&#45;&gt;python2&#45;tdb -->
<g id="edge72" class="edge">
<title>samba&#45;python&#45;&gt;python2&#45;tdb</title>
<path fill="none" stroke="#444444" stroke-opacity="0.333333" d="M1636.6568,-749.6701C1627.1583,-799.5746 1600.5316,-939.4684 1589.0644,-999.7162"/>
<polygon fill="#444444" fill-opacity="0.333333" stroke="#444444" stroke-opacity="0.333333" points="1585.6014,-999.1921 1587.1698,-1009.6702 1592.4779,-1000.501 1585.6014,-999.1921"/>
</g>
<!-- samba&#45;python&#45;&gt;python2&#45;tevent -->
<g id="edge74" class="edge">
<title>samba&#45;python&#45;&gt;python2&#45;tevent</title>
<path fill="none" stroke="#444444" stroke-opacity="0.333333" d="M1619.9989,-713.3705C1601.2174,-696.3565 1573.0221,-670.8146 1552.1687,-651.9237"/>
<polygon fill="#444444" fill-opacity="0.333333" stroke="#444444" stroke-opacity="0.333333" points="1554.3318,-649.1607 1544.5708,-645.0408 1549.6322,-654.3485 1554.3318,-649.1607"/>
</g>
<!-- samba&#45;python&#45;&gt;samba -->
<g id="edge75" class="edge">
<title>samba&#45;python&#45;&gt;samba</title>
<path fill="none" stroke="#444444" stroke-opacity="0.333333" d="M1655.1188,-713.4663C1694.5689,-665.8866 1801.2542,-537.2164 1847.327,-481.6492"/>
<polygon fill="#444444" fill-opacity="0.333333" stroke="#444444" stroke-opacity="0.333333" points="1850.2375,-483.6225 1853.9259,-473.6904 1844.8488,-479.1545 1850.2375,-483.6225"/>
</g>
<!-- samba&#45;winbind&#45;&gt;libtalloc -->
<g id="edge76" class="edge">
<title>samba&#45;winbind&#45;&gt;libtalloc</title>
<path fill="none" stroke="#444444" stroke-opacity="0.333333" d="M2084.437,-671.7326C2040.9007,-671.4803 1987.7123,-671.1721 1946.0809,-670.9309"/>
<polygon fill="#444444" fill-opacity="0.333333" stroke="#444444" stroke-opacity="0.333333" points="1946.0508,-667.4307 1936.0307,-670.8726 1946.0102,-674.4306 1946.0508,-667.4307"/>
</g>
<!-- samba&#45;winbind&#45;&gt;libtdb -->
<g id="edge77" class="edge">
<title>samba&#45;winbind&#45;&gt;libtdb</title>
<path fill="none" stroke="#444444" stroke-opacity="0.333333" d="M2124.7189,-690.2599C2081.5915,-709.5481 2013.1987,-740.1358 1966.8204,-760.8779"/>
<polygon fill="#444444" fill-opacity="0.333333" stroke="#444444" stroke-opacity="0.333333" points="1965.2636,-757.7401 1957.5639,-765.0178 1968.1215,-764.1301 1965.2636,-757.7401"/>
</g>
<!-- samba&#45;winbind&#45;&gt;libtevent -->
<g id="edge78" class="edge">
<title>samba&#45;winbind&#45;&gt;libtevent</title>
<path fill="none" stroke="#444444" stroke-opacity="0.333333" d="M2084.3437,-687.4881C2029.4809,-697.8743 1957.6912,-711.4649 1905.541,-721.3376"/>
<polygon fill="#444444" fill-opacity="0.333333" stroke="#444444" stroke-opacity="0.333333" points="1904.8868,-717.8992 1895.7124,-723.1983 1906.1889,-724.777 1904.8868,-717.8992"/>
</g>
<!-- samba&#45;winbind&#45;&gt;samba&#45;client&#45;libs -->
<g id="edge79" class="edge">
<title>samba&#45;winbind&#45;&gt;samba&#45;client&#45;libs</title>
<path fill="none" stroke="#444444" stroke-opacity="0.333333" d="M2130.4903,-690.3505C2128.6621,-691.3092 2126.8148,-692.2781 2124.9628,-693.2493"/>
<polygon fill="#444444" fill-opacity="0.333333" stroke="#444444" stroke-opacity="0.333333" points="2122.9607,-690.3471 2115.7302,-698.0912 2126.2118,-696.5464 2122.9607,-690.3471"/>
</g>
<!-- samba&#45;winbind&#45;&gt;samba&#45;libs -->
<g id="edge80" class="edge">
<title>samba&#45;winbind&#45;&gt;samba&#45;libs</title>
<path fill="none" stroke="#444444" stroke-opacity="0.333333" d="M2102.4627,-654.1218C2067.7614,-644.1064 2024.4514,-631.6064 1988.267,-621.1629"/>
<polygon fill="#444444" fill-opacity="0.333333" stroke="#444444" stroke-opacity="0.333333" points="1988.8415,-617.686 1978.2631,-618.2757 1986.9004,-624.4115 1988.8415,-617.686"/>
</g>
<!-- samba&#45;winbind&#45;&gt;samba&#45;common&#45;libs -->
<g id="edge81" class="edge">
<title>samba&#45;winbind&#45;&gt;samba&#45;common&#45;libs</title>
<path fill="none" stroke="#444444" stroke-opacity="0.333333" d="M2145.4209,-653.9817C2136.82,-646.0193 2126.5912,-636.5498 2117.2883,-627.9375"/>
<polygon fill="#444444" fill-opacity="0.333333" stroke="#444444" stroke-opacity="0.333333" points="2119.4636,-625.1817 2109.7477,-620.9566 2114.7082,-630.3185 2119.4636,-625.1817"/>
</g>
<!-- samba&#45;winbind&#45;&gt;samba&#45;common&#45;tools -->
<g id="edge82" class="edge">
<title>samba&#45;winbind&#45;&gt;samba&#45;common&#45;tools</title>
<path fill="none" stroke="#444444" stroke-opacity="0.333333" d="M2147.8689,-653.945C2120.7006,-625.1622 2067.8109,-569.1296 2036.7322,-536.204"/>
<polygon fill="#444444" fill-opacity="0.333333" stroke="#444444" stroke-opacity="0.333333" points="2039.112,-533.6263 2029.7025,-528.7567 2034.0215,-538.4313 2039.112,-533.6263"/>
</g>
<!-- samba&#45;winbind&#45;&gt;samba&#45;winbind&#45;modules -->
<g id="edge83" class="edge">
<title>samba&#45;winbind&#45;&gt;samba&#45;winbind&#45;modules</title>
<path fill="none" stroke="#444444" stroke-opacity="0.333333" d="M2174.9538,-653.9549C2190.0349,-626.0312 2218.9296,-572.5306 2236.4345,-540.1191"/>
<polygon fill="#444444" fill-opacity="0.333333" stroke="#444444" stroke-opacity="0.333333" points="2239.5886,-541.6443 2241.2611,-531.1823 2233.4294,-538.3178 2239.5886,-541.6443"/>
</g>
<!-- samba&#45;winbind&#45;modules&#45;&gt;libtalloc -->
<g id="edge84" class="edge">
<title>samba&#45;winbind&#45;modules&#45;&gt;libtalloc</title>
<path fill="none" stroke="#444444" stroke-opacity="0.333333" d="M2208.086,-531.2035C2139.2078,-560.1798 2004.1678,-616.9897 1929.5604,-648.3763"/>
<polygon fill="#444444" fill-opacity="0.333333" stroke="#444444" stroke-opacity="0.333333" points="1927.7485,-645.3414 1919.8882,-652.4453 1930.4629,-651.7937 1927.7485,-645.3414"/>
</g>
<!-- samba&#45;winbind&#45;modules&#45;&gt;samba&#45;client&#45;libs -->
<g id="edge85" class="edge">
<title>samba&#45;winbind&#45;modules&#45;&gt;samba&#45;client&#45;libs</title>
<path fill="none" stroke="#444444" stroke-opacity="0.333333" d="M2235.9314,-531.1693C2205.7989,-567.2023 2138.0118,-648.2634 2103.0193,-690.1081"/>
<polygon fill="#444444" fill-opacity="0.333333" stroke="#444444" stroke-opacity="0.333333" points="2100.2091,-688.0127 2096.4789,-697.9292 2105.5789,-692.5032 2100.2091,-688.0127"/>
</g>
<!-- samba&#45;winbind&#45;modules&#45;&gt;libwbclient -->
<g id="edge86" class="edge">
<title>samba&#45;winbind&#45;modules&#45;&gt;libwbclient</title>
<path fill="none" stroke="#444444" stroke-opacity="0.333333" d="M2233.7368,-494.9566C2212.6132,-472.6948 2176.7226,-434.8702 2152.8639,-409.7259"/>
<polygon fill="#444444" fill-opacity="0.333333" stroke="#444444" stroke-opacity="0.333333" points="2155.2976,-407.2059 2145.8754,-402.3609 2150.2197,-412.0241 2155.2976,-407.2059"/>
</g>
<!-- samba&#45;winbind&#45;modules&#45;&gt;samba&#45;libs -->
<g id="edge87" class="edge">
<title>samba&#45;winbind&#45;modules&#45;&gt;samba&#45;libs</title>
<path fill="none" stroke="#444444" stroke-opacity="0.333333" d="M2181.5049,-531.1847C2125.5482,-545.7061 2047.0684,-566.0725 1989.8774,-580.9142"/>
<polygon fill="#444444" fill-opacity="0.333333" stroke="#444444" stroke-opacity="0.333333" points="1988.974,-577.5326 1980.1739,-583.4324 1990.7324,-584.3082 1988.974,-577.5326"/>
</g>
<!-- cups&#45;libs -->
<g id="node1" class="node">
<title>cups&#45;libs</title>
<text text-anchor="middle" x="2635.5" y="-777" font-family="monospace" font-size="14.00" fill="#000000">cups&#45;libs</text>
</g>
<!-- avahi&#45;libs -->
<g id="node2" class="node">
<title>avahi&#45;libs</title>
<text text-anchor="middle" x="2974.2" y="-801.26" font-family="monospace" font-size="14.00" fill="#000000">avahi&#45;libs</text>
</g>
<!-- libldb -->
<g id="node3" class="node">
<title>libldb</title>
<text text-anchor="middle" x="1817.3" y="-866.4" font-family="monospace" font-size="14.00" fill="#000000">libldb</text>
</g>
<!-- libtalloc -->
<g id="node4" class="node">
<title>libtalloc</title>
<text text-anchor="middle" x="1876.9" y="-666.83" font-family="monospace" font-size="14.00" fill="#000000">libtalloc</text>
</g>
<!-- libtdb -->
<g id="node5" class="node">
<title>libtdb</title>
<text text-anchor="middle" x="1917.2" y="-779.37" font-family="monospace" font-size="14.00" fill="#000000">libtdb</text>
</g>
<!-- libtevent -->
<g id="node6" class="node">
<title>libtevent</title>
<text text-anchor="middle" x="1836.7" y="-730.67" font-family="monospace" font-size="14.00" fill="#000000">libtevent</text>
</g>
<!-- libsmbclient -->
<g id="node7" class="node">
<title>libsmbclient</title>
<text text-anchor="middle" x="2126.8" y="-931.72" font-family="monospace" font-size="14.00" fill="#000000">libsmbclient</text>
</g>
<!-- samba&#45;client&#45;libs -->
<g id="node8" class="node">
<title>samba&#45;client&#45;libs</title>
<text text-anchor="middle" x="2081.2" y="-712.5" font-family="monospace" font-size="14.00" fill="#000000">samba&#45;client&#45;libs</text>
</g>
<!-- libwbclient -->
<g id="node9" class="node">
<title>libwbclient</title>
<text text-anchor="middle" x="2128.7" y="-380.56" font-family="monospace" font-size="14.00" fill="#000000">libwbclient</text>
</g>
<!-- samba&#45;dc&#45;libs -->
<g id="node10" class="node">
<title>samba&#45;dc&#45;libs</title>
<text text-anchor="middle" x="1936.6" y="-931.94" font-family="monospace" font-size="14.00" fill="#000000">samba&#45;dc&#45;libs</text>
</g>
<!-- samba&#45;libs -->
<g id="node11" class="node">
<title>samba&#45;libs</title>
<text text-anchor="middle" x="1915.6" y="-596.49" font-family="monospace" font-size="14.00" fill="#000000">samba&#45;libs</text>
</g>
<!-- samba&#45;common&#45;libs -->
<g id="node12" class="node">
<title>samba&#45;common&#45;libs</title>
<text text-anchor="middle" x="2090.2" y="-599.16" font-family="monospace" font-size="14.00" fill="#000000">samba&#45;common&#45;libs</text>
</g>
<!-- libkadm5 -->
<g id="node13" class="node">
<title>libkadm5</title>
<text text-anchor="middle" x="1952.5" y="-1386.1" font-family="monospace" font-size="14.00" fill="#000000">libkadm5</text>
</g>
<!-- python2&#45;talloc -->
<g id="node14" class="node">
<title>python2&#45;talloc</title>
<text text-anchor="middle" x="1639.9" y="-453.6" font-family="monospace" font-size="14.00" fill="#000000">python2&#45;talloc</text>
</g>
<!-- libtomcrypt -->
<g id="node15" class="node">
<title>libtomcrypt</title>
<text text-anchor="middle" x="223.95" y="-756.77" font-family="monospace" font-size="14.00" fill="#000000">libtomcrypt</text>
</g>
<!-- libtommath -->
<g id="node16" class="node">
<title>libtommath</title>
<text text-anchor="middle" x="64.344" y="-630.04" font-family="monospace" font-size="14.00" fill="#000000">libtommath</text>
</g>
<!-- python2&#45;crypto -->
<g id="node17" class="node">
<title>python2&#45;crypto</title>
<text text-anchor="middle" x="572.61" y="-769.49" font-family="monospace" font-size="14.00" fill="#000000">python2&#45;crypto</text>
</g>
<!-- python2&#45;dns -->
<g id="node18" class="node">
<title>python2&#45;dns</title>
<text text-anchor="middle" x="1037.6" y="-756.38" font-family="monospace" font-size="14.00" fill="#000000">python2&#45;dns</text>
</g>
<!-- python2&#45;ldb -->
<g id="node19" class="node">
<title>python2&#45;ldb</title>
<text text-anchor="middle" x="1678.3" y="-905.57" font-family="monospace" font-size="14.00" fill="#000000">python2&#45;ldb</text>
</g>
<!-- python2&#45;tdb -->
<g id="node20" class="node">
<title>python2&#45;tdb</title>
<text text-anchor="middle" x="1583.7" y="-1024.2" font-family="monospace" font-size="14.00" fill="#000000">python2&#45;tdb</text>
</g>
<!-- python2&#45;tevent -->
<g id="node21" class="node">
<title>python2&#45;tevent</title>
<text text-anchor="middle" x="1524.7" y="-623.34" font-family="monospace" font-size="14.00" fill="#000000">python2&#45;tevent</text>
</g>
<!-- samba&#45;common&#45;tools -->
<g id="node22" class="node">
<title>samba&#45;common&#45;tools</title>
<text text-anchor="middle" x="2012.3" y="-506.62" font-family="monospace" font-size="14.00" fill="#000000">samba&#45;common&#45;tools</text>
</g>
<!-- samba -->
<g id="node23" class="node">
<title>samba</title>
<text text-anchor="middle" x="1869" y="-451.81" font-family="monospace" font-size="14.00" fill="#000000">samba</text>
</g>
<!-- libaio -->
<g id="node24" class="node">
<title>libaio</title>
<text text-anchor="middle" x="1755.2" y="-14.3" font-family="monospace" font-size="14.00" fill="#000000">libaio</text>
</g>
<!-- samba&#45;python -->
<g id="node25" class="node">
<title>samba&#45;python</title>
<text text-anchor="middle" x="1640.1" y="-727.88" font-family="monospace" font-size="14.00" fill="#000000">samba&#45;python</text>
</g>
<!-- samba&#45;winbind -->
<g id="node26" class="node">
<title>samba&#45;winbind</title>
<text text-anchor="middle" x="2165.1" y="-668.5" font-family="monospace" font-size="14.00" fill="#000000">samba&#45;winbind</text>
</g>
<!-- samba&#45;winbind&#45;modules -->
<g id="node27" class="node">
<title>samba&#45;winbind&#45;modules</title>
<text text-anchor="middle" x="2251" y="-509.45" font-family="monospace" font-size="14.00" fill="#000000">samba&#45;winbind&#45;modules</text>
</g>
</g>
</svg>
