<?xml version="1.0" encoding="UTF-8" standalone="no"?>
<!DOCTYPE svg PUBLIC "-//W3C//DTD SVG 1.1//EN"
 "http://www.w3.org/Graphics/SVG/1.1/DTD/svg11.dtd">
<!-- Generated by graphviz version 2.40.1 (20161225.0304)
 -->
<!-- Title: G Pages: 1 -->
<svg width="2481pt" height="1591pt"
 viewBox="0.00 0.00 2481.27 1591.13" xmlns="http://www.w3.org/2000/svg" xmlns:xlink="http://www.w3.org/1999/xlink">
<g id="graph0" class="graph" transform="scale(1 1) rotate(0) translate(190.1497 1394.9615)">
<title>G</title>
<polygon fill="#dae2ff" stroke="transparent" points="-190.1497,196.168 -190.1497,-1394.9615 2291.1252,-1394.9615 2291.1252,196.168 -190.1497,196.168"/>
<polygon fill="#fed9a6" stroke="#fed9a6" points="1073.7782,-704.263 1108.1332,-655.6147 1178.8589,-552.0772 1263.5256,-610.6767 1302.9952,-639.4161 1307.2766,-642.3131 1310.0092,-644.3103 1322.4823,-652.746 1324.7383,-654.1422 1328.2112,-656.0992 1331.1995,-657.621 1346.6953,-664.6869 1347.3624,-664.9532 1358.2953,-668.7217 1366.4456,-670.6322 1367.6252,-738.8975 1367.6133,-738.8975 1361.447,-734.6261 1361.447,-734.6261 1367.6133,-738.8975 1367.6252,-738.8975 1366.4456,-670.6322 1371.3177,-671.5068 1384.8787,-673.1973 1389.9711,-673.269 1391.0072,-673.2264 1399.6338,-673.3279 1404.3479,-673.1226 1407.3661,-673.1506 1408.5215,-673.2834 1409.0641,-673.3157 1415.1244,-673.343 1423.3716,-673.8163 1432.9617,-674.8742 1443.4814,-677.1466 1454.2074,-680.0262 1459.0746,-681.8362 1459.2167,-681.8965 1474.9139,-689.4238 1475.5465,-689.7597 1487.4441,-696.7141 1497.7543,-703.8194 1499.4407,-705.0686 1500.1134,-705.603 1501.6533,-706.913 1520.4073,-721.777 1526.9478,-727.2708 1527.416,-727.7093 1529.063,-729.3362 1534.1274,-734.6109 1547.1626,-724.1678 1622.2577,-667.3564 1623.7332,-642.6357 1706.8844,-621.9869 1710.9,-616.9764 1712.4899,-616.9764 1712.8589,-616.8498 1716.3015,-616.8498 1718.91,-619.5764 1718.91,-619.5764 1716.3015,-616.8498 1712.8589,-616.8498 1712.4899,-616.9764 1710.9,-616.9764 1706.8844,-621.9869 1623.7332,-642.6357 1623.8788,-635.9564 1624.4917,-625.8997 1625.2168,-593.1515 1626.2107,-583.1285 1632.8075,-472.6095 1637.8557,-471.3567 1642.9406,-470.2112 1658.5431,-467.4056 1660.8998,-467.0358 1676.7876,-464.9046 1705.561,-461.7054 1711.4467,-460.9259 1728.3477,-457.9654 1737.7659,-455.9149 1750.1387,-436.5364 1750.8806,-435.2568 1778.0313,-414.4702 1778.3827,-414.2157 1800.009,-399.4212 1808.149,-394.8878 1823.1174,-387.1699 1841.2091,-380.1178 1846.9689,-378.1201 1848.2636,-377.7801 1864.1432,-374.2628 1867.9666,-373.5775 1879.7169,-372.4534 1890.6627,-371.866 1891.6005,-371.8551 1903.0229,-371.2485 1911.5543,-370.088 1912.4615,-455.2251 1907.0048,-455.2251 1906.045,-455.5659 1900.0527,-455.5659 1899.991,-455.6271 1896.3036,-457.3627 1893.7749,-460.5985 1771.1707,-488.4666 1745.5239,-463.9808 1741.8749,-568.8232 1741.8749,-568.8232 1745.5239,-463.9808 1771.1707,-488.4666 1893.7749,-460.5985 1896.3036,-457.3627 1899.991,-455.6271 1900.0527,-455.5659 1906.045,-455.5659 1907.0048,-455.2251 1912.4615,-455.2251 1911.5543,-370.088 1916.6211,-369.1883 1924.21,-367.5243 1937.8466,-363.967 1940.4188,-363.1919 1941.2939,-362.8925 1942.6666,-362.3656 1957.5304,-356.0246 1976.317,-346.4408 1979.6901,-344.4487 1980.7688,-374.3079 1980.7688,-374.3079 1979.6901,-344.4487 1996.7235,-332.9452 2006.4175,-325.5996 2013.0618,-320.2921 2025.4766,-309.8673 2088.8762,-261.2408 2156.3464,-314.6196 2178.0569,-348.6832 2191.1331,-401.2391 2196.2283,-455.44 2197.7786,-466.1953 2092.7222,-522.0729 2079.0657,-528.2673 2078.3013,-528.5834 2061.7866,-534.7676 2061.7341,-534.7852 2056.4998,-536.3242 2056.3027,-536.3743 2041.8965,-539.4801 2033.6796,-540.6015 2032.2279,-623.2369 2026.2345,-625.2153 2023.4031,-628.0384 2026.8577,-631.741 2032.0925,-633.4601 2032.0925,-633.4601 2026.8577,-631.741 2023.4031,-628.0384 2026.2345,-625.2153 2032.2279,-623.2369 2033.6796,-540.6015 2041.8965,-539.4801 2056.3027,-536.3743 2056.4998,-536.3242 2061.7341,-534.7852 2061.7866,-534.7676 2078.3013,-528.5834 2079.0657,-528.2673 2092.7222,-522.0729 2197.7786,-466.1953 2287.1252,-585.8134 2281.8403,-604.3037 2275.4622,-628.0716 2269.5962,-651.4995 2232.1333,-812.9759 2236.3091,-828.7419 2218.8225,-868.1703 2187.8479,-943.7927 2116.052,-1012.9437 2086.9006,-999.5648 2006.3611,-960.9072 1991.821,-954.7856 1991.7446,-947.2056 1991.7446,-947.2056 1991.821,-954.7856 1977.4846,-949.6045 1978.2878,-872.6133 1974.9563,-829.6201 1974.9563,-829.6201 1978.2878,-872.6133 1977.4846,-949.6045 1962.245,-945.0122 1964.376,-893.2119 1963.5062,-829.1849 1963.1421,-829.0626 1958.0406,-829.0626 1957.9601,-829.0356 1952.0747,-829.0356 1952.0747,-829.0356 1957.9601,-829.0356 1958.0406,-829.0626 1963.1421,-829.0626 1963.5062,-829.1849 1964.376,-893.2119 1962.245,-945.0122 1952.7323,-942.7205 1952.1184,-942.5911 1942.1475,-941.0808 1929.6486,-939.5596 1920.3051,-938.9812 1920.2098,-938.9781 1906.0947,-938.9475 1906.3894,-877.319 1910.3131,-829.2755 1909.9446,-829.1525 1909.9446,-829.1525 1910.3131,-829.2755 1906.3894,-877.319 1906.0947,-938.9475 1905.5902,-938.9766 1899.869,-938.9572 1897.4756,-939.0206 1895.7268,-939.0136 1883.5413,-938.5923 1882.9008,-938.6085 1879.9216,-938.5021 1879.7976,-934.8148 1879.7976,-934.8148 1879.9216,-938.5021 1865.7295,-938.8442 1863.6541,-938.7041 1851.0051,-938.6071 1839.1631,-937.7932 1831.0059,-936.984 1830.2817,-936.8902 1813.3999,-933.6672 1800.6019,-930.4435 1800.4709,-930.4066 1796.3417,-929.1153 1778.4684,-922.9744 1772.032,-920.5716 1755.5782,-886.1097 1748.6545,-881.9691 1738.2505,-876.1479 1725.517,-870.0089 1720.9326,-867.9786 1720.9226,-867.074 1720.9226,-867.074 1720.9326,-867.9786 1711.7023,-864.5993 1703.5537,-861.9288 1694.7477,-859.3832 1693.4001,-859.046 1682.1971,-856.673 1668.4194,-854.8167 1657.2268,-854.1724 1655.4658,-854.139 1654.2035,-854.1635 1639.5883,-853.8737 1629.4211,-852.8731 1623.6185,-852.0746 1612.7793,-849.7271 1605.5227,-847.8691 1596.037,-845.0668 1594.4773,-844.5453 1590.324,-849.0823 1579.2456,-860.32 1518.282,-938.8262 1500.2534,-958.3793 1499.3466,-959.4348 1491.0825,-968.4269 1490.9624,-922.0111 1490.9624,-922.0111 1491.0825,-968.4269 1480.9429,-980.9588 1474.1913,-989.7977 1472.7911,-909.7341 1472.7911,-909.7341 1474.1913,-989.7977 1466.5168,-1001.0048 1465.0562,-1001.0875 1464.4169,-1001.1389 1450.0924,-990.7072 1437.1692,-982.2783 1437.0833,-982.2255 1433.8068,-980.3374 1414.9188,-970.8229 1412.3833,-969.6421 1394.9127,-962.7938 1332.1309,-942.9077 1323.8315,-939.6073 1308.6788,-932.9625 1228.8837,-894.8312 1160.0109,-896.9574 1109.5779,-780.3724 1073.7782,-704.263 1073.7782,-704.263"/>
<polygon fill="#fbb4ae" stroke="#fbb4ae" points="1879.7169,-372.4534 1890.6627,-371.866 1891.6005,-371.8551 1903.0229,-371.2485 1911.5543,-370.088 1916.6211,-369.1883 1924.21,-367.5243 1937.8466,-363.967 1940.4188,-363.1919 1941.2939,-362.8925 1942.6666,-362.3656 1957.5304,-356.0246 1976.317,-346.4408 1979.6901,-344.4487 1996.7235,-332.9452 2006.4175,-325.5996 2013.0618,-320.2921 2025.4766,-309.8673 2088.8762,-261.2408 2077.2285,-231.0344 2056.6709,-175.0686 1897.5066,-51.8769 1881.6135,-50.9267 1881.5388,-50.9212 1872.7289,-50.0307 1848.2778,-47.2219 1847.9268,-47.1623 1833.02,-44.4245 1786.7144,30.5624 1758.5133,77.9055 1676.5419,151.8514 1636.0972,162.6507 1588.0044,157.6266 1574.3871,157.0088 1437.7762,153.5015 1395.1765,186.9257 1348.2181,192.168 1299.9583,183.7344 1282.5062,180.9788 1288.5607,-17.8419 1281.9681,-17.8419 1281.639,-17.9598 1275.8923,-17.9598 1273.7267,59.4039 1268.9424,-14.8907 1263.3276,-12.964 1263.3276,-12.964 1268.9424,-14.8907 1273.7267,59.4039 1275.8923,-17.9598 1281.639,-17.9598 1281.9681,-17.8419 1288.5607,-17.8419 1282.5062,180.9788 1281.9363,180.8985 1275.9246,180.1534 1258.501,178.5831 1244.7631,177.8108 1225.604,177.7073 1213.6907,177.8448 1063.6113,130.4147 1018.5976,25.5619 1022.3925,21.0387 1019.1684,-195.8908 1019.4365,-195.9835 1025.3776,-195.9835 1028.2734,14.1495 1036.6376,4.4874 1035.0793,-158.0141 1038.2703,-191.345 1044.2192,-193.365 1040.5049,.3015 1046.5089,-5.9852 1058.0338,-17.6463 1063.6499,-22.9272 1077.9591,-36.885 1073.7178,-143.7216 1073.7178,-143.7216 1077.9591,-36.885 1063.6499,-22.9272 1058.0338,-17.6463 1046.5089,-5.9852 1040.5049,.3015 1044.2192,-193.365 1038.2703,-191.345 1035.0793,-158.0141 1036.6376,4.4874 1028.2734,14.1495 1025.3776,-195.9835 1019.4365,-195.9835 1019.1684,-195.8908 1022.3925,21.0387 1018.5976,25.5619 1011.3462,22.0057 1005.4979,19.2445 990.0567,12.2359 840.5909,-52.822 813.6303,-117.6863 777.3999,-200.9693 788.4654,-236.7973 790.5814,-244.0175 803.7976,-291.668 713.197,-454.6054 679.7251,-512.4991 682.1582,-515.2874 812.9968,-674.1501 845.5198,-712.348 898.8301,-704.1002 899.2465,-680.7433 899.2599,-619.4066 899.2599,-619.4066 899.2465,-680.7433 898.8301,-704.1002 920.3563,-701.792 921.0153,-558.9942 921.7042,-547.4985 928.115,-497.8915 933.438,-497.8915 939.9625,-493.2597 939.4026,-492.4392 934.139,-488.8182 934.139,-488.8182 939.4026,-492.4392 939.9625,-493.2597 933.438,-497.8915 928.115,-497.8915 921.7042,-547.4985 921.0153,-558.9942 920.3563,-701.792 939.6798,-700.64 949.2509,-700.3733 966.3852,-700.4399 1073.7782,-704.263 1108.1332,-655.6147 1178.8589,-552.0772 1263.5256,-610.6767 1302.9952,-639.4161 1307.2766,-642.3131 1310.0092,-644.3103 1322.4823,-652.746 1324.7383,-654.1422 1328.2112,-656.0992 1331.1995,-657.621 1346.6953,-664.6869 1347.3624,-664.9532 1358.2953,-668.7217 1366.4456,-670.6322 1371.3177,-671.5068 1384.8787,-673.1973 1389.9711,-673.269 1391.0072,-673.2264 1399.6338,-673.3279 1404.3479,-673.1226 1407.3661,-673.1506 1408.5215,-673.2834 1409.0641,-673.3157 1415.1244,-673.343 1423.3716,-673.8163 1432.9617,-674.8742 1443.4814,-677.1466 1454.2074,-680.0262 1459.0746,-681.8362 1459.2167,-681.8965 1474.9139,-689.4238 1475.5465,-689.7597 1487.4441,-696.7141 1497.7543,-703.8194 1499.4407,-705.0686 1500.1134,-705.603 1501.6533,-706.913 1520.4073,-721.777 1526.9478,-727.2708 1527.416,-727.7093 1529.063,-729.3362 1534.1274,-734.6109 1547.1626,-724.1678 1622.2577,-667.3564 1623.7332,-642.6357 1623.8788,-635.9564 1624.4917,-625.8997 1625.2168,-593.1515 1626.2107,-583.1285 1632.8075,-472.6095 1637.8557,-471.3567 1642.9406,-470.2112 1644.9675,-345.5379 1649.6682,-312.4302 1651.559,-310.4655 1649.5289,-308.34 1649.5289,-308.34 1651.559,-310.4655 1649.6682,-312.4302 1644.9675,-345.5379 1642.9406,-470.2112 1658.5431,-467.4056 1655.0348,-310.5253 1654.8651,-310.4655 1660.989,-159.556 1642.229,-163.3191 1629.957,-165.178 1624.5063,-165.7366 1624.5063,-165.7366 1629.957,-165.178 1642.229,-163.3191 1660.989,-159.556 1654.8651,-310.4655 1655.0348,-310.5253 1658.5431,-467.4056 1660.8998,-467.0358 1676.7876,-464.9046 1705.561,-461.7054 1711.4467,-460.9259 1728.3477,-457.9654 1737.7659,-455.9149 1750.1387,-436.5364 1750.8806,-435.2568 1778.0313,-414.4702 1778.3827,-414.2157 1800.009,-399.4212 1808.149,-394.8878 1823.1174,-387.1699 1841.2091,-380.1178 1846.9689,-378.1201 1848.2636,-377.7801 1864.1432,-374.2628 1867.9666,-373.5775 1879.7169,-372.4534 1879.7169,-372.4534"/>
<polygon fill="#d8d6da" stroke="#d8d6da" points="-186.1497,-677.8719 -185.0848,-664.7935 -181.3039,-593.8658 27.1045,-465.6627 36.2677,-459.82 49.3507,-459.6195 49.3276,-536.3924 50.6187,-562.705 59.4524,-673.293 52.6847,-675.8629 50.3352,-678.5771 52.2672,-680.7009 52.2672,-680.7009 50.3352,-678.5771 52.6847,-675.8629 59.4524,-673.293 50.6187,-562.705 49.3276,-536.3924 49.3507,-459.6195 61.7426,-458.6514 68.442,-458.0226 74.9412,-459.1207 85.6176,-460.7532 161.8975,-469.9681 299.5077,-519.3462 326.7361,-550.5098 498.3341,-525.9941 532.1147,-524.2383 548.1331,-522.907 564.0681,-521.087 572.5947,-519.8483 582.0004,-518.1893 592.2419,-518.514 603.6053,-518.3608 623.3585,-517.4995 679.7251,-512.4991 682.1582,-515.2874 812.9968,-674.1501 845.5198,-712.348 821.6437,-757.1352 773.5892,-854.4866 671.5599,-933.8757 657.2587,-936.296 639.5364,-930.4742 619.5452,-924.2534 609.8643,-921.4127 602.886,-919.6129 584.5651,-915.212 580.2102,-914.3219 569.3366,-912.4844 555.047,-910.8267 545.9007,-909.9276 522.4594,-908.4542 350.042,-900.6853 347.1155,-899.675 329.1591,-921.1315 183.9785,-1104.1732 166.7822,-1110.5913 162.1335,-1110.8859 103.5784,-1095.0461 86.2637,-1090.6986 71.606,-1087.5935 76.8629,-905.2448 79.3595,-901.9035 83.1978,-904.7213 83.1978,-904.7213 79.3595,-901.9035 79.192,-901.0641 79.767,-898.2995 83.2357,-895.8138 83.2357,-895.8138 79.767,-898.2995 79.192,-901.0641 79.3595,-901.9035 76.8629,-905.2448 71.606,-1087.5935 -81.3826,-1058.2003 -118.6554,-1001.9172 -121.7968,-984.9324 -118.181,-955.3186 -110.3561,-881.617 -108.9845,-866.3047 -105.8334,-823.1228 -171.2105,-704.1252 -186.1497,-677.8719 -186.1497,-677.8719"/>
<polygon fill="#bbd7d9" stroke="#bbd7d9" points="1899.869,-938.9572 1905.5902,-938.9766 1906.0947,-938.9475 1920.2098,-938.9781 1920.3051,-938.9812 1929.6486,-939.5596 1942.1475,-941.0808 1952.1184,-942.5911 1952.7323,-942.7205 1962.245,-945.0122 1977.4846,-949.6045 1991.821,-954.7856 2006.3611,-960.9072 2086.9006,-999.5648 2116.052,-1012.9437 2109.5815,-1042.5868 2096.9275,-1105.141 2095.9167,-1110.5935 2069.2402,-1165.4851 1976.2549,-1228.2086 1906.5022,-1347.942 1887.0629,-1353.1572 1871.6593,-1355.9625 1801.1036,-1358.2548 1791.6637,-1358.714 1783.8436,-1359.3472 1762.9313,-1361.7184 1741.255,-1365.2273 1738.4078,-1365.8256 1716.6787,-1371.1008 1700.631,-1375.5144 1704.121,-1256.3707 1710.0809,-1164.6934 1710.0809,-1164.6934 1704.121,-1256.3707 1700.631,-1375.5144 1650.3271,-1390.9615 1603.3959,-1365.5071 1578.8334,-1359.801 1578.6323,-1247.3245 1579.411,-1221.7593 1579.411,-1221.7593 1578.6323,-1247.3245 1578.8334,-1359.801 1562.5004,-1356.7742 1561.6962,-1356.6503 1541.9122,-1353.912 1522.0823,-1351.7896 1525.2188,-1281.8169 1534.5691,-1145.7333 1540.4137,-1143.7222 1543.4177,-1140.5508 1540.4117,-1137.4796 1534.703,-1135.5769 1534.703,-1135.5769 1540.4117,-1137.4796 1543.4177,-1140.5508 1540.4137,-1143.7222 1534.5691,-1145.7333 1525.2188,-1281.8169 1522.0823,-1351.7896 1520.0852,-1351.6387 1521.7524,-1140.5493 1521.4644,-1140.4452 1515.384,-1140.4452 1515.2706,-1027.4575 1510.2086,-1025.259 1498.3247,-1019.6732 1487.9429,-1014.0598 1490.3079,-1140.651 1488.3236,-1140.651 1488.3236,-1140.651 1490.3079,-1140.651 1487.9429,-1014.0598 1498.3247,-1019.6732 1510.2086,-1025.259 1515.2706,-1027.4575 1515.384,-1140.4452 1521.4644,-1140.4452 1521.7524,-1140.5493 1520.0852,-1351.6387 1515.255,-1351.3491 1514.1356,-1351.2996 1495.6753,-1351.0597 1486.3951,-1351.0845 1416.4287,-1353.4635 1319.7799,-1239.7897 1301.0039,-1233.3597 1193.7107,-1198.8726 1112.146,-1097.5912 1118.6119,-1045.9 1122.739,-992.8564 1160.0109,-896.9574 1228.8837,-894.8312 1308.6788,-932.9625 1323.8315,-939.6073 1332.1309,-942.9077 1394.9127,-962.7938 1412.3833,-969.6421 1414.9188,-970.8229 1433.8068,-980.3374 1437.0833,-982.2255 1437.1692,-982.2783 1450.0924,-990.7072 1464.4169,-1001.1389 1465.0562,-1001.0875 1466.5168,-1001.0048 1474.1913,-989.7977 1480.9429,-980.9588 1491.0825,-968.4269 1499.3466,-959.4348 1500.2534,-958.3793 1518.282,-938.8262 1579.2456,-860.32 1590.324,-849.0823 1594.4773,-844.5453 1596.037,-845.0668 1605.5227,-847.8691 1612.7793,-849.7271 1623.6185,-852.0746 1622.6162,-891.7681 1624.9288,-940.7766 1617.8289,-940.7766 1612.0117,-944.8031 1612.632,-945.735 1617.8909,-949.4229 1617.8909,-949.4229 1612.632,-945.735 1612.0117,-944.8031 1617.8289,-940.7766 1624.9288,-940.7766 1622.6162,-891.7681 1623.6185,-852.0746 1629.4211,-852.8731 1639.5883,-853.8737 1654.2035,-854.1635 1655.4658,-854.139 1657.2268,-854.1724 1668.4194,-854.8167 1682.1971,-856.673 1693.4001,-859.046 1694.7477,-859.3832 1703.5537,-861.9288 1711.7023,-864.5993 1720.9326,-867.9786 1725.517,-870.0089 1738.2505,-876.1479 1748.6545,-881.9691 1755.5782,-886.1097 1772.032,-920.5716 1778.4684,-922.9744 1796.3417,-929.1153 1800.4709,-930.4066 1800.6019,-930.4435 1813.3999,-933.6672 1830.2817,-936.8902 1831.0059,-936.984 1839.1631,-937.7932 1851.0051,-938.6071 1850.9139,-1003.4924 1850.9139,-1003.4924 1851.0051,-938.6071 1863.6541,-938.7041 1865.7295,-938.8442 1879.9216,-938.5021 1882.9008,-938.6085 1883.5413,-938.5923 1895.7268,-939.0136 1890.2477,-1048.2017 1885.0382,-1048.2017 1884.7961,-1048.1187 1877.9594,-1048.1187 1877.0939,-1048.4126 1873.512,-1048.4126 1873.512,-1048.4126 1877.0939,-1048.4126 1877.9594,-1048.1187 1884.7961,-1048.1187 1885.0382,-1048.2017 1890.2477,-1048.2017 1895.7268,-939.0136 1897.4756,-939.0206 1899.869,-938.9572 1899.869,-938.9572"/>
<polyline fill="none" stroke="#000000" points="1929.6486,-939.5596 1942.1475,-941.0808 1952.1184,-942.5911 1952.7323,-942.7205 1962.245,-945.0122 1977.4846,-949.6045 1991.821,-954.7856 2006.3611,-960.9072 2086.9006,-999.5648 2116.052,-1012.9437 2187.8479,-943.7927 2218.8225,-868.1703 2236.3091,-828.7419 2232.1333,-812.9759 2269.5962,-651.4995 2275.4622,-628.0716 2281.8403,-604.3037 2287.1252,-585.8134 2197.7786,-466.1953 2196.2283,-455.44 2191.1331,-401.2391 2178.0569,-348.6832 2156.3464,-314.6196 2088.8762,-261.2408 2025.4766,-309.8673 2013.0618,-320.2921 2006.4175,-325.5996 1996.7235,-332.9452 1979.6901,-344.4487 1976.317,-346.4408 1957.5304,-356.0246 1942.6666,-362.3656 1941.2939,-362.8925 1940.4188,-363.1919 1937.8466,-363.967 1924.21,-367.5243 1916.6211,-369.1883 1911.5543,-370.088 1903.0229,-371.2485 1891.6005,-371.8551 1890.6627,-371.866 1879.7169,-372.4534 1867.9666,-373.5775 1864.1432,-374.2628 1848.2636,-377.7801 1846.9689,-378.1201 1841.2091,-380.1178 1823.1174,-387.1699 1808.149,-394.8878 1800.009,-399.4212 1778.3827,-414.2157 1778.0313,-414.4702 1750.8806,-435.2568 1750.1387,-436.5364 1737.7659,-455.9149 1728.3477,-457.9654 1711.4467,-460.9259 1705.561,-461.7054 1676.7876,-464.9046 1660.8998,-467.0358 1658.5431,-467.4056 1642.9406,-470.2112 1637.8557,-471.3567 1632.8075,-472.6095 1626.2107,-583.1285 1625.2168,-593.1515 1624.4917,-625.8997 1623.8788,-635.9564 1623.7332,-642.6357 1622.2577,-667.3564 1547.1626,-724.1678 1534.1274,-734.6109 1529.063,-729.3362 1527.416,-727.7093 1526.9478,-727.2708 1520.4073,-721.777 1501.6533,-706.913 1500.1134,-705.603 1499.4407,-705.0686 1497.7543,-703.8194 1487.4441,-696.7141 1475.5465,-689.7597 1474.9139,-689.4238 1459.2167,-681.8965 1459.0746,-681.8362 1454.2074,-680.0262 1443.4814,-677.1466 1432.9617,-674.8742 1423.3716,-673.8163 1415.1244,-673.343 1409.0641,-673.3157 1408.5215,-673.2834 1407.3661,-673.1506 1404.3479,-673.1226 1399.6338,-673.3279 1391.0072,-673.2264 1389.9711,-673.269 1384.8787,-673.1973 1371.3177,-671.5068 1366.4456,-670.6322 1358.2953,-668.7217 1347.3624,-664.9532 1346.6953,-664.6869 1331.1995,-657.621 1328.2112,-656.0992 1324.7383,-654.1422 1322.4823,-652.746 1310.0092,-644.3103 1307.2766,-642.3131 1302.9952,-639.4161 1263.5256,-610.6767 1178.8589,-552.0772 1108.1332,-655.6147 1073.7782,-704.263 1109.5779,-780.3724 1160.0109,-896.9574 1228.8837,-894.8312 1308.6788,-932.9625 1323.8315,-939.6073 1332.1309,-942.9077 1394.9127,-962.7938 1412.3833,-969.6421 1414.9188,-970.8229 1433.8068,-980.3374 1437.0833,-982.2255 1437.1692,-982.2783 1450.0924,-990.7072 1464.4169,-1001.1389 1465.0562,-1001.0875 1466.5168,-1001.0048 1474.1913,-989.7977 1480.9429,-980.9588 1491.0825,-968.4269 1499.3466,-959.4348 1500.2534,-958.3793 1518.282,-938.8262 1579.2456,-860.32 1590.324,-849.0823 1594.4773,-844.5453 1596.037,-845.0668 1605.5227,-847.8691 1612.7793,-849.7271 1623.6185,-852.0746 1629.4211,-852.8731 1639.5883,-853.8737 1654.2035,-854.1635 1655.4658,-854.139 1657.2268,-854.1724 1668.4194,-854.8167 1682.1971,-856.673 1693.4001,-859.046 1694.7477,-859.3832 1703.5537,-861.9288 1711.7023,-864.5993 1720.9326,-867.9786 1725.517,-870.0089 1738.2505,-876.1479 1748.6545,-881.9691 1755.5782,-886.1097 1772.032,-920.5716 1778.4684,-922.9744 1796.3417,-929.1153 1800.4709,-930.4066 1800.6019,-930.4435 1813.3999,-933.6672 1830.2817,-936.8902 1831.0059,-936.984 1839.1631,-937.7932 1851.0051,-938.6071 1863.6541,-938.7041 1865.7295,-938.8442 1879.9216,-938.5021 1882.9008,-938.6085 1883.5413,-938.5923 1895.7268,-939.0136 1897.4756,-939.0206 1899.869,-938.9572 1905.5902,-938.9766 1906.0947,-938.9475 1920.2098,-938.9781 1920.3051,-938.9812 1929.6486,-939.5596 "/>
<polyline fill="none" stroke="#000000" points="1454.2074,-680.0262 1443.4814,-677.1466 1432.9617,-674.8742 1423.3716,-673.8163 1415.1244,-673.343 1409.0641,-673.3157 1408.5215,-673.2834 1407.3661,-673.1506 1404.3479,-673.1226 1399.6338,-673.3279 1391.0072,-673.2264 1389.9711,-673.269 1384.8787,-673.1973 1371.3177,-671.5068 1366.4456,-670.6322 1358.2953,-668.7217 1347.3624,-664.9532 1346.6953,-664.6869 1331.1995,-657.621 1328.2112,-656.0992 1324.7383,-654.1422 1322.4823,-652.746 1310.0092,-644.3103 1307.2766,-642.3131 1302.9952,-639.4161 1263.5256,-610.6767 1178.8589,-552.0772 1108.1332,-655.6147 1073.7782,-704.263 966.3852,-700.4399 949.2509,-700.3733 939.6798,-700.64 920.3563,-701.792 898.8301,-704.1002 845.5198,-712.348 812.9968,-674.1501 682.1582,-515.2874 679.7251,-512.4991 713.197,-454.6054 803.7976,-291.668 790.5814,-244.0175 788.4654,-236.7973 777.3999,-200.9693 813.6303,-117.6863 840.5909,-52.822 990.0567,12.2359 1005.4979,19.2445 1011.3462,22.0057 1018.5976,25.5619 1063.6113,130.4147 1213.6907,177.8448 1225.604,177.7073 1244.7631,177.8108 1258.501,178.5831 1275.9246,180.1534 1281.9363,180.8985 1282.5062,180.9788 1299.9583,183.7344 1348.2181,192.168 1395.1765,186.9257 1437.7762,153.5015 1574.3871,157.0088 1588.0044,157.6266 1636.0972,162.6507 1676.5419,151.8514 1758.5133,77.9055 1786.7144,30.5624 1833.02,-44.4245 1847.9268,-47.1623 1848.2778,-47.2219 1872.7289,-50.0307 1881.5388,-50.9212 1881.6135,-50.9267 1897.5066,-51.8769 2056.6709,-175.0686 2077.2285,-231.0344 2088.8762,-261.2408 2025.4766,-309.8673 2013.0618,-320.2921 2006.4175,-325.5996 1996.7235,-332.9452 1979.6901,-344.4487 1976.317,-346.4408 1957.5304,-356.0246 1942.6666,-362.3656 1941.2939,-362.8925 1940.4188,-363.1919 1937.8466,-363.967 1924.21,-367.5243 1916.6211,-369.1883 1911.5543,-370.088 1903.0229,-371.2485 1891.6005,-371.8551 1890.6627,-371.866 1879.7169,-372.4534 1867.9666,-373.5775 1864.1432,-374.2628 1848.2636,-377.7801 1846.9689,-378.1201 1841.2091,-380.1178 1823.1174,-387.1699 1808.149,-394.8878 1800.009,-399.4212 1778.3827,-414.2157 1778.0313,-414.4702 1750.8806,-435.2568 1750.1387,-436.5364 1737.7659,-455.9149 1728.3477,-457.9654 1711.4467,-460.9259 1705.561,-461.7054 1676.7876,-464.9046 1660.8998,-467.0358 1658.5431,-467.4056 1642.9406,-470.2112 1637.8557,-471.3567 1632.8075,-472.6095 1626.2107,-583.1285 1625.2168,-593.1515 1624.4917,-625.8997 1623.8788,-635.9564 1623.7332,-642.6357 1622.2577,-667.3564 1547.1626,-724.1678 1534.1274,-734.6109 1529.063,-729.3362 1527.416,-727.7093 1526.9478,-727.2708 1520.4073,-721.777 1501.6533,-706.913 1500.1134,-705.603 1499.4407,-705.0686 1497.7543,-703.8194 1487.4441,-696.7141 1475.5465,-689.7597 1474.9139,-689.4238 1459.2167,-681.8965 1459.0746,-681.8362 1454.2074,-680.0262 "/>
<polyline fill="none" stroke="#000000" points="569.3366,-912.4844 555.047,-910.8267 545.9007,-909.9276 522.4594,-908.4542 350.042,-900.6853 347.1155,-899.675 329.1591,-921.1315 183.9785,-1104.1732 166.7822,-1110.5913 162.1335,-1110.8859 103.5784,-1095.0461 86.2637,-1090.6986 71.606,-1087.5935 -81.3826,-1058.2003 -118.6554,-1001.9172 -121.7968,-984.9324 -118.181,-955.3186 -110.3561,-881.617 -108.9845,-866.3047 -105.8334,-823.1228 -171.2105,-704.1252 -186.1497,-677.8719 -185.0848,-664.7935 -181.3039,-593.8658 27.1045,-465.6627 36.2677,-459.82 49.3507,-459.6195 61.7426,-458.6514 68.442,-458.0226 74.9412,-459.1207 85.6176,-460.7532 161.8975,-469.9681 299.5077,-519.3462 326.7361,-550.5098 498.3341,-525.9941 532.1147,-524.2383 548.1331,-522.907 564.0681,-521.087 572.5947,-519.8483 582.0004,-518.1893 592.2419,-518.514 603.6053,-518.3608 623.3585,-517.4995 679.7251,-512.4991 682.1582,-515.2874 812.9968,-674.1501 845.5198,-712.348 821.6437,-757.1352 773.5892,-854.4866 671.5599,-933.8757 657.2587,-936.296 639.5364,-930.4742 619.5452,-924.2534 609.8643,-921.4127 602.886,-919.6129 584.5651,-915.212 580.2102,-914.3219 569.3366,-912.4844 "/>
<polyline fill="none" stroke="#000000" points="1319.7799,-1239.7897 1416.4287,-1353.4635 1486.3951,-1351.0845 1495.6753,-1351.0597 1514.1356,-1351.2996 1515.255,-1351.3491 1520.0852,-1351.6387 1522.0823,-1351.7896 1541.9122,-1353.912 1561.6962,-1356.6503 1562.5004,-1356.7742 1578.8334,-1359.801 1603.3959,-1365.5071 1650.3271,-1390.9615 1700.631,-1375.5144 1716.6787,-1371.1008 1738.4078,-1365.8256 1741.255,-1365.2273 1762.9313,-1361.7184 1783.8436,-1359.3472 1791.6637,-1358.714 1801.1036,-1358.2548 1871.6593,-1355.9625 1887.0629,-1353.1572 1906.5022,-1347.942 1976.2549,-1228.2086 2069.2402,-1165.4851 2095.9167,-1110.5935 2096.9275,-1105.141 2109.5815,-1042.5868 2116.052,-1012.9437 2086.9006,-999.5648 2006.3611,-960.9072 1991.821,-954.7856 1977.4846,-949.6045 1962.245,-945.0122 1952.7323,-942.7205 1952.1184,-942.5911 1942.1475,-941.0808 1929.6486,-939.5596 1920.3051,-938.9812 1920.2098,-938.9781 1906.0947,-938.9475 1905.5902,-938.9766 1899.869,-938.9572 1897.4756,-939.0206 1895.7268,-939.0136 1883.5413,-938.5923 1882.9008,-938.6085 1879.9216,-938.5021 1865.7295,-938.8442 1863.6541,-938.7041 1851.0051,-938.6071 1839.1631,-937.7932 1831.0059,-936.984 1830.2817,-936.8902 1813.3999,-933.6672 1800.6019,-930.4435 1800.4709,-930.4066 1796.3417,-929.1153 1778.4684,-922.9744 1772.032,-920.5716 1755.5782,-886.1097 1748.6545,-881.9691 1738.2505,-876.1479 1725.517,-870.0089 1720.9326,-867.9786 1711.7023,-864.5993 1703.5537,-861.9288 1694.7477,-859.3832 1693.4001,-859.046 1682.1971,-856.673 1668.4194,-854.8167 1657.2268,-854.1724 1655.4658,-854.139 1654.2035,-854.1635 1639.5883,-853.8737 1629.4211,-852.8731 1623.6185,-852.0746 1612.7793,-849.7271 1605.5227,-847.8691 1596.037,-845.0668 1594.4773,-844.5453 1590.324,-849.0823 1579.2456,-860.32 1518.282,-938.8262 1500.2534,-958.3793 1499.3466,-959.4348 1491.0825,-968.4269 1480.9429,-980.9588 1474.1913,-989.7977 1466.5168,-1001.0048 1465.0562,-1001.0875 1464.4169,-1001.1389 1450.0924,-990.7072 1437.1692,-982.2783 1437.0833,-982.2255 1433.8068,-980.3374 1414.9188,-970.8229 1412.3833,-969.6421 1394.9127,-962.7938 1332.1309,-942.9077 1323.8315,-939.6073 1308.6788,-932.9625 1228.8837,-894.8312 1160.0109,-896.9574 1122.739,-992.8564 1118.6119,-1045.9 1112.146,-1097.5912 1193.7107,-1198.8726 1301.0039,-1233.3597 1319.7799,-1239.7897 "/>
<!-- apache&#45;commons&#45;collections&#45;&gt;java&#45;1.8.0&#45;openjdk&#45;headless -->
<g id="edge1" class="edge">
<title>apache&#45;commons&#45;collections&#45;&gt;java&#45;1.8.0&#45;openjdk&#45;headless</title>
<path fill="none" stroke="#444444" stroke-opacity="0.333333" d="M1895.5471,-811.1533C1811.0366,-770.8517 1607.9091,-673.984 1515.6323,-629.9789"/>
<polygon fill="#444444" fill-opacity="0.333333" stroke="#444444" stroke-opacity="0.333333" points="1517.0593,-626.7818 1506.5265,-625.6365 1514.0462,-633.1001 1517.0593,-626.7818"/>
</g>
<!-- apache&#45;commons&#45;collections&#45;&gt;javapackages&#45;tools -->
<g id="edge2" class="edge">
<title>apache&#45;commons&#45;collections&#45;&gt;javapackages&#45;tools</title>
<path fill="none" stroke="#444444" stroke-opacity="0.333333" d="M1870.8881,-811.2652C1841.6677,-802.862 1806.7358,-792.8162 1776.4079,-784.0944"/>
<polygon fill="#444444" fill-opacity="0.333333" stroke="#444444" stroke-opacity="0.333333" points="1777.3139,-780.7132 1766.7361,-781.313 1775.3792,-787.4405 1777.3139,-780.7132"/>
</g>
<!-- java&#45;1.8.0&#45;openjdk&#45;headless&#45;&gt;javapackages&#45;tools -->
<g id="edge3" class="edge">
<title>java&#45;1.8.0&#45;openjdk&#45;headless&#45;&gt;javapackages&#45;tools</title>
<path fill="none" stroke="#444444" stroke-opacity="0.333333" d="M1488.4681,-625.6608C1525.9802,-654.1004 1607.8766,-708.7271 1659.2717,-740.0148"/>
<polygon fill="#444444" fill-opacity="0.333333" stroke="#444444" stroke-opacity="0.333333" points="1657.5,-743.0336 1667.8708,-745.201 1661.1152,-737.0393 1657.5,-743.0336"/>
</g>
<!-- java&#45;1.8.0&#45;openjdk&#45;headless&#45;&gt;copy&#45;jdk&#45;configs -->
<g id="edge4" class="edge">
<title>java&#45;1.8.0&#45;openjdk&#45;headless&#45;&gt;copy&#45;jdk&#45;configs</title>
<path fill="none" stroke="#444444" stroke-opacity="0.333333" d="M1336.5955,-625.558C1160.051,-649.6422 850.4456,-691.8786 687.572,-714.0978"/>
<polygon fill="#444444" fill-opacity="0.333333" stroke="#444444" stroke-opacity="0.333333" points="686.9723,-710.6471 677.5371,-715.4667 687.9185,-717.5829 686.9723,-710.6471"/>
</g>
<!-- java&#45;1.8.0&#45;openjdk&#45;headless&#45;&gt;libjpeg&#45;turbo -->
<g id="edge5" class="edge">
<title>java&#45;1.8.0&#45;openjdk&#45;headless&#45;&gt;libjpeg&#45;turbo</title>
<path fill="none" stroke="#444444" stroke-opacity="0.333333" d="M1449.5376,-589.3489C1380.7564,-523.6753 1145.1979,-298.7599 1064.9376,-222.126"/>
<polygon fill="#444444" fill-opacity="0.333333" stroke="#444444" stroke-opacity="0.333333" points="1066.8805,-219.1419 1057.2309,-214.7675 1062.0465,-224.2047 1066.8805,-219.1419"/>
</g>
<!-- java&#45;1.8.0&#45;openjdk&#45;headless&#45;&gt;lksctp&#45;tools -->
<g id="edge6" class="edge">
<title>java&#45;1.8.0&#45;openjdk&#45;headless&#45;&gt;lksctp&#45;tools</title>
<path fill="none" stroke="#444444" stroke-opacity="0.333333" d="M1383.665,-589.4908C1283.2439,-568.139 1117.068,-532.8062 1016.3402,-511.3891"/>
<polygon fill="#444444" fill-opacity="0.333333" stroke="#444444" stroke-opacity="0.333333" points="1017.0095,-507.9532 1006.5002,-509.2969 1015.5536,-514.8002 1017.0095,-507.9532"/>
</g>
<!-- java&#45;1.8.0&#45;openjdk&#45;headless&#45;&gt;tzdata&#45;java -->
<g id="edge7" class="edge">
<title>java&#45;1.8.0&#45;openjdk&#45;headless&#45;&gt;tzdata&#45;java</title>
<path fill="none" stroke="#444444" stroke-opacity="0.333333" d="M1462.2213,-589.2595C1432.6023,-504.3279 1308.4176,-148.2333 1272.6673,-45.7206"/>
<polygon fill="#444444" fill-opacity="0.333333" stroke="#444444" stroke-opacity="0.333333" points="1275.902,-44.367 1269.3043,-36.0772 1269.2924,-46.6721 1275.902,-44.367"/>
</g>
<!-- javapackages&#45;tools&#45;&gt;java&#45;1.8.0&#45;openjdk&#45;headless -->
<g id="edge8" class="edge">
<title>javapackages&#45;tools&#45;&gt;java&#45;1.8.0&#45;openjdk&#45;headless</title>
<path fill="none" stroke="#444444" stroke-opacity="0.333333" d="M1684.2319,-745.1892C1646.7198,-716.7496 1564.8234,-662.1229 1513.4283,-630.8352"/>
<polygon fill="#444444" fill-opacity="0.333333" stroke="#444444" stroke-opacity="0.333333" points="1515.2,-627.8164 1504.8292,-625.649 1511.5848,-633.8107 1515.2,-627.8164"/>
</g>
<!-- copy&#45;jdk&#45;configs&#45;&gt;lua -->
<g id="edge9" class="edge">
<title>copy&#45;jdk&#45;configs&#45;&gt;lua</title>
<path fill="none" stroke="#444444" stroke-opacity="0.333333" d="M528.5698,-746.753C428.3344,-781.6065 210.3318,-857.4094 123.565,-887.5795"/>
<polygon fill="#444444" fill-opacity="0.333333" stroke="#444444" stroke-opacity="0.333333" points="122.1871,-884.353 113.8913,-890.9432 124.4861,-890.9647 122.1871,-884.353"/>
</g>
<!-- copy&#45;jdk&#45;configs&#45;&gt;lua&#45;posix -->
<g id="edge10" class="edge">
<title>copy&#45;jdk&#45;configs&#45;&gt;lua&#45;posix</title>
<path fill="none" stroke="#444444" stroke-opacity="0.333333" d="M483.3215,-719.3281C380.2158,-709.3699 219.8492,-693.8812 128.6948,-685.0773"/>
<polygon fill="#444444" fill-opacity="0.333333" stroke="#444444" stroke-opacity="0.333333" points="128.7615,-681.5675 118.4713,-684.0899 128.0885,-688.5351 128.7615,-681.5675"/>
</g>
<!-- lua&#45;posix&#45;&gt;lua -->
<g id="edge22" class="edge">
<title>lua&#45;posix&#45;&gt;lua</title>
<path fill="none" stroke="#444444" stroke-opacity="0.333333" d="M61.4136,-696.5256C66.2483,-735.2388 77.5947,-826.0937 83.3648,-872.2965"/>
<polygon fill="#444444" fill-opacity="0.333333" stroke="#444444" stroke-opacity="0.333333" points="79.8936,-872.7456 84.6059,-882.2348 86.8396,-871.8781 79.8936,-872.7456"/>
</g>
<!-- apache&#45;commons&#45;daemon&#45;&gt;java&#45;1.8.0&#45;openjdk&#45;headless -->
<g id="edge11" class="edge">
<title>apache&#45;commons&#45;daemon&#45;&gt;java&#45;1.8.0&#45;openjdk&#45;headless</title>
<path fill="none" stroke="#444444" stroke-opacity="0.333333" d="M1895.0901,-473.4863C1805.0515,-501.7892 1631.0674,-556.4797 1535.4977,-586.5212"/>
<polygon fill="#444444" fill-opacity="0.333333" stroke="#444444" stroke-opacity="0.333333" points="1534.4254,-583.1894 1525.9352,-589.5271 1536.5246,-589.8672 1534.4254,-583.1894"/>
</g>
<!-- apache&#45;commons&#45;daemon&#45;&gt;javapackages&#45;tools -->
<g id="edge12" class="edge">
<title>apache&#45;commons&#45;daemon&#45;&gt;javapackages&#45;tools</title>
<path fill="none" stroke="#444444" stroke-opacity="0.333333" d="M1937.7053,-473.7761C1895.5097,-526.0722 1774.4579,-676.1004 1725.2658,-737.0678"/>
<polygon fill="#444444" fill-opacity="0.333333" stroke="#444444" stroke-opacity="0.333333" points="1722.3727,-735.0796 1718.8171,-745.06 1727.8205,-739.4752 1722.3727,-735.0796"/>
</g>
<!-- apache&#45;commons&#45;dbcp&#45;&gt;java&#45;1.8.0&#45;openjdk&#45;headless -->
<g id="edge13" class="edge">
<title>apache&#45;commons&#45;dbcp&#45;&gt;java&#45;1.8.0&#45;openjdk&#45;headless</title>
<path fill="none" stroke="#444444" stroke-opacity="0.333333" d="M1448.6462,-842.1414C1452.3497,-798.6005 1461.7502,-688.0816 1466.1977,-635.7928"/>
<polygon fill="#444444" fill-opacity="0.333333" stroke="#444444" stroke-opacity="0.333333" points="1469.7076,-635.8246 1467.0678,-625.5639 1462.7328,-635.2312 1469.7076,-635.8246"/>
</g>
<!-- apache&#45;commons&#45;dbcp&#45;&gt;javapackages&#45;tools -->
<g id="edge14" class="edge">
<title>apache&#45;commons&#45;dbcp&#45;&gt;javapackages&#45;tools</title>
<path fill="none" stroke="#444444" stroke-opacity="0.333333" d="M1494.8374,-842.2987C1537.7977,-826.0807 1601.0112,-802.217 1646.7106,-784.9651"/>
<polygon fill="#444444" fill-opacity="0.333333" stroke="#444444" stroke-opacity="0.333333" points="1648.0635,-788.1955 1656.1829,-781.3892 1645.5912,-781.6466 1648.0635,-788.1955"/>
</g>
<!-- apache&#45;commons&#45;dbcp&#45;&gt;apache&#45;commons&#45;pool -->
<g id="edge15" class="edge">
<title>apache&#45;commons&#45;dbcp&#45;&gt;apache&#45;commons&#45;pool</title>
<path fill="none" stroke="#444444" stroke-opacity="0.333333" d="M1433.7758,-842.1542C1418.8982,-821.8704 1394.6775,-788.8487 1377.6532,-765.6382"/>
<polygon fill="#444444" fill-opacity="0.333333" stroke="#444444" stroke-opacity="0.333333" points="1380.2519,-763.2635 1371.5153,-757.27 1374.6075,-767.4036 1380.2519,-763.2635"/>
</g>
<!-- apache&#45;commons&#45;pool&#45;&gt;java&#45;1.8.0&#45;openjdk&#45;headless -->
<g id="edge16" class="edge">
<title>apache&#45;commons&#45;pool&#45;&gt;java&#45;1.8.0&#45;openjdk&#45;headless</title>
<path fill="none" stroke="#444444" stroke-opacity="0.333333" d="M1373.4646,-720.7052C1392.5142,-698.0473 1425.1095,-659.2781 1446.7543,-633.5336"/>
<polygon fill="#444444" fill-opacity="0.333333" stroke="#444444" stroke-opacity="0.333333" points="1449.6096,-635.5762 1453.3659,-625.6696 1444.2516,-631.0714 1449.6096,-635.5762"/>
</g>
<!-- apache&#45;commons&#45;pool&#45;&gt;javapackages&#45;tools -->
<g id="edge17" class="edge">
<title>apache&#45;commons&#45;pool&#45;&gt;javapackages&#45;tools</title>
<path fill="none" stroke="#444444" stroke-opacity="0.333333" d="M1470.9146,-746.9096C1507.9577,-749.5134 1549.2066,-752.4127 1586.5893,-755.0403"/>
<polygon fill="#444444" fill-opacity="0.333333" stroke="#444444" stroke-opacity="0.333333" points="1586.8031,-758.5639 1597.0239,-755.7737 1587.2939,-751.5811 1586.8031,-758.5639"/>
</g>
<!-- apache&#45;commons&#45;lang&#45;&gt;java&#45;1.8.0&#45;openjdk&#45;headless -->
<g id="edge18" class="edge">
<title>apache&#45;commons&#45;lang&#45;&gt;java&#45;1.8.0&#45;openjdk&#45;headless</title>
<path fill="none" stroke="#444444" stroke-opacity="0.333333" d="M1812.1755,-306.3884C1750.5961,-360.366 1567.9647,-520.4517 1497.1282,-582.5435"/>
<polygon fill="#444444" fill-opacity="0.333333" stroke="#444444" stroke-opacity="0.333333" points="1494.6626,-580.0505 1489.4497,-589.2742 1499.2768,-585.3145 1494.6626,-580.0505"/>
</g>
<!-- apache&#45;commons&#45;lang&#45;&gt;javapackages&#45;tools -->
<g id="edge19" class="edge">
<title>apache&#45;commons&#45;lang&#45;&gt;javapackages&#45;tools</title>
<path fill="none" stroke="#444444" stroke-opacity="0.333333" d="M1827.912,-306.3502C1808.3219,-378.6506 1735.4048,-647.764 1711.6405,-735.4706"/>
<polygon fill="#444444" fill-opacity="0.333333" stroke="#444444" stroke-opacity="0.333333" points="1708.23,-734.6745 1708.9929,-745.2418 1714.9864,-736.5052 1708.23,-734.6745"/>
</g>
<!-- apache&#45;commons&#45;logging&#45;&gt;java&#45;1.8.0&#45;openjdk&#45;headless -->
<g id="edge20" class="edge">
<title>apache&#45;commons&#45;logging&#45;&gt;java&#45;1.8.0&#45;openjdk&#45;headless</title>
<path fill="none" stroke="#444444" stroke-opacity="0.333333" d="M1903.6824,-623.6118C1823.8216,-620.6636 1720.3797,-616.8449 1634.3966,-613.6707"/>
<polygon fill="#444444" fill-opacity="0.333333" stroke="#444444" stroke-opacity="0.333333" points="1634.3903,-610.1682 1624.268,-613.2968 1634.132,-617.1634 1634.3903,-610.1682"/>
</g>
<!-- apache&#45;commons&#45;logging&#45;&gt;javapackages&#45;tools -->
<g id="edge21" class="edge">
<title>apache&#45;commons&#45;logging&#45;&gt;javapackages&#45;tools</title>
<path fill="none" stroke="#444444" stroke-opacity="0.333333" d="M1988.378,-646.4186C1928.65,-670.9759 1821.9024,-714.8654 1757.5817,-741.3109"/>
<polygon fill="#444444" fill-opacity="0.333333" stroke="#444444" stroke-opacity="0.333333" points="1755.9415,-738.2009 1748.0236,-745.2407 1758.6034,-744.6751 1755.9415,-738.2009"/>
</g>
<!-- ecj&#45;&gt;java&#45;1.8.0&#45;openjdk&#45;headless -->
<g id="edge23" class="edge">
<title>ecj&#45;&gt;java&#45;1.8.0&#45;openjdk&#45;headless</title>
<path fill="none" stroke="#444444" stroke-opacity="0.333333" d="M1330.2258,-1027.8989C1352.6037,-959.9199 1432.0789,-718.4927 1459.3418,-635.6744"/>
<polygon fill="#444444" fill-opacity="0.333333" stroke="#444444" stroke-opacity="0.333333" points="1462.7424,-636.5374 1462.5448,-625.9444 1456.0934,-634.3485 1462.7424,-636.5374"/>
</g>
<!-- ecj&#45;&gt;javapackages&#45;tools -->
<g id="edge24" class="edge">
<title>ecj&#45;&gt;javapackages&#45;tools</title>
<path fill="none" stroke="#444444" stroke-opacity="0.333333" d="M1348.636,-1027.7922C1414.5323,-978.7603 1596.4908,-843.3694 1671.3143,-787.695"/>
<polygon fill="#444444" fill-opacity="0.333333" stroke="#444444" stroke-opacity="0.333333" points="1673.5418,-790.4003 1679.4752,-781.6227 1669.3631,-784.7843 1673.5418,-790.4003"/>
</g>
<!-- jss&#45;&gt;java&#45;1.8.0&#45;openjdk&#45;headless -->
<g id="edge25" class="edge">
<title>jss&#45;&gt;java&#45;1.8.0&#45;openjdk&#45;headless</title>
<path fill="none" stroke="#444444" stroke-opacity="0.333333" d="M1581.0011,-41.6432C1564.3253,-125.601 1494.5209,-477.0459 1474.183,-579.4414"/>
<polygon fill="#444444" fill-opacity="0.333333" stroke="#444444" stroke-opacity="0.333333" points="1470.7294,-578.8636 1472.2141,-589.3538 1477.5953,-580.2273 1470.7294,-578.8636"/>
</g>
<!-- tomcat&#45;&gt;apache&#45;commons&#45;collections -->
<g id="edge26" class="edge">
<title>tomcat&#45;&gt;apache&#45;commons&#45;collections</title>
<path fill="none" stroke="#444444" stroke-opacity="0.333333" d="M1742.9681,-635.0548C1780.1106,-672.9014 1866.0503,-760.47 1908.6855,-803.9133"/>
<polygon fill="#444444" fill-opacity="0.333333" stroke="#444444" stroke-opacity="0.333333" points="1906.3745,-806.5554 1915.8769,-811.241 1911.3705,-801.6523 1906.3745,-806.5554"/>
</g>
<!-- tomcat&#45;&gt;java&#45;1.8.0&#45;openjdk&#45;headless -->
<g id="edge27" class="edge">
<title>tomcat&#45;&gt;java&#45;1.8.0&#45;openjdk&#45;headless</title>
<path fill="none" stroke="#444444" stroke-opacity="0.333333" d="M1681.9615,-615.366C1668.1114,-614.8587 1651.8544,-614.2631 1634.5989,-613.631"/>
<polygon fill="#444444" fill-opacity="0.333333" stroke="#444444" stroke-opacity="0.333333" points="1634.4559,-610.1235 1624.3344,-613.255 1634.1996,-617.1188 1634.4559,-610.1235"/>
</g>
<!-- tomcat&#45;&gt;javapackages&#45;tools -->
<g id="edge28" class="edge">
<title>tomcat&#45;&gt;javapackages&#45;tools</title>
<path fill="none" stroke="#444444" stroke-opacity="0.333333" d="M1722.5703,-635.1894C1718.9496,-660.3031 1712.3957,-705.7609 1708.1476,-735.2258"/>
<polygon fill="#444444" fill-opacity="0.333333" stroke="#444444" stroke-opacity="0.333333" points="1704.6594,-734.8933 1706.6965,-745.2905 1711.5878,-735.8923 1704.6594,-734.8933"/>
</g>
<!-- tomcat&#45;&gt;apache&#45;commons&#45;daemon -->
<g id="edge29" class="edge">
<title>tomcat&#45;&gt;apache&#45;commons&#45;daemon</title>
<path fill="none" stroke="#444444" stroke-opacity="0.333333" d="M1750.8324,-598.7367C1791.953,-569.5181 1872.684,-512.154 1918.548,-479.5649"/>
<polygon fill="#444444" fill-opacity="0.333333" stroke="#444444" stroke-opacity="0.333333" points="1920.8369,-482.2321 1926.9613,-473.5867 1916.7823,-476.5259 1920.8369,-482.2321"/>
</g>
<!-- tomcat&#45;&gt;apache&#45;commons&#45;dbcp -->
<g id="edge30" class="edge">
<title>tomcat&#45;&gt;apache&#45;commons&#45;dbcp</title>
<path fill="none" stroke="#444444" stroke-opacity="0.333333" d="M1704.2973,-635.2423C1655.0546,-678.3354 1531.6987,-786.2863 1475.6328,-835.3504"/>
<polygon fill="#444444" fill-opacity="0.333333" stroke="#444444" stroke-opacity="0.333333" points="1473.0863,-832.928 1467.8659,-842.1474 1477.6962,-838.1957 1473.0863,-832.928"/>
</g>
<!-- tomcat&#45;&gt;apache&#45;commons&#45;pool -->
<g id="edge31" class="edge">
<title>tomcat&#45;&gt;apache&#45;commons&#45;pool</title>
<path fill="none" stroke="#444444" stroke-opacity="0.333333" d="M1682.0095,-631.3072C1617.7984,-652.652 1496.7423,-692.893 1422.184,-717.6774"/>
<polygon fill="#444444" fill-opacity="0.333333" stroke="#444444" stroke-opacity="0.333333" points="1420.8173,-714.4434 1412.432,-720.9192 1423.0255,-721.086 1420.8173,-714.4434"/>
</g>
<!-- tomcat&#45;&gt;apache&#45;commons&#45;logging -->
<g id="edge32" class="edge">
<title>tomcat&#45;&gt;apache&#45;commons&#45;logging</title>
<path fill="none" stroke="#444444" stroke-opacity="0.333333" d="M1768.2243,-618.5485C1800.9897,-619.7659 1848.0385,-621.5139 1893.3719,-623.1983"/>
<polygon fill="#444444" fill-opacity="0.333333" stroke="#444444" stroke-opacity="0.333333" points="1893.4982,-626.7053 1903.6213,-623.5791 1893.7581,-619.7101 1893.4982,-626.7053"/>
</g>
<!-- tomcat&#45;&gt;tomcat&#45;lib -->
<g id="edge33" class="edge">
<title>tomcat&#45;&gt;tomcat&#45;lib</title>
<path fill="none" stroke="#444444" stroke-opacity="0.333333" d="M1719.4769,-635.0607C1702.2672,-689.5213 1650.9045,-852.0591 1630.2472,-917.4294"/>
<polygon fill="#444444" fill-opacity="0.333333" stroke="#444444" stroke-opacity="0.333333" points="1626.8813,-916.4654 1627.2054,-927.0552 1633.556,-918.5746 1626.8813,-916.4654"/>
</g>
<!-- tomcat&#45;lib&#45;&gt;apache&#45;commons&#45;collections -->
<g id="edge34" class="edge">
<title>tomcat&#45;lib&#45;&gt;apache&#45;commons&#45;collections</title>
<path fill="none" stroke="#444444" stroke-opacity="0.333333" d="M1670.2656,-927.0147C1725.7255,-906.4354 1816.2259,-872.8536 1875.3491,-850.915"/>
<polygon fill="#444444" fill-opacity="0.333333" stroke="#444444" stroke-opacity="0.333333" points="1876.7623,-854.1238 1884.9201,-847.3635 1874.3271,-847.5611 1876.7623,-854.1238"/>
</g>
<!-- tomcat&#45;lib&#45;&gt;java&#45;1.8.0&#45;openjdk&#45;headless -->
<g id="edge35" class="edge">
<title>tomcat&#45;lib&#45;&gt;java&#45;1.8.0&#45;openjdk&#45;headless</title>
<path fill="none" stroke="#444444" stroke-opacity="0.333333" d="M1613.2794,-926.9613C1588.0273,-871.2117 1511.4634,-702.1804 1481.1507,-635.2583"/>
<polygon fill="#444444" fill-opacity="0.333333" stroke="#444444" stroke-opacity="0.333333" points="1484.1755,-633.4534 1476.8612,-625.7884 1477.7991,-636.3417 1484.1755,-633.4534"/>
</g>
<!-- tomcat&#45;lib&#45;&gt;javapackages&#45;tools -->
<g id="edge36" class="edge">
<title>tomcat&#45;lib&#45;&gt;javapackages&#45;tools</title>
<path fill="none" stroke="#444444" stroke-opacity="0.333333" d="M1629.722,-927.0127C1644.256,-895.0221 1674.5624,-828.315 1691.6637,-790.6735"/>
<polygon fill="#444444" fill-opacity="0.333333" stroke="#444444" stroke-opacity="0.333333" points="1694.9614,-791.8763 1695.9113,-781.3241 1688.5883,-788.9808 1694.9614,-791.8763"/>
</g>
<!-- tomcat&#45;lib&#45;&gt;apache&#45;commons&#45;dbcp -->
<g id="edge37" class="edge">
<title>tomcat&#45;lib&#45;&gt;apache&#45;commons&#45;dbcp</title>
<path fill="none" stroke="#444444" stroke-opacity="0.333333" d="M1584.0868,-926.9204C1557.5599,-914.0235 1521.7887,-896.6322 1493.4522,-882.8556"/>
<polygon fill="#444444" fill-opacity="0.333333" stroke="#444444" stroke-opacity="0.333333" points="1494.6754,-879.5586 1484.1516,-878.3338 1491.6147,-885.854 1494.6754,-879.5586"/>
</g>
<!-- tomcat&#45;lib&#45;&gt;apache&#45;commons&#45;pool -->
<g id="edge38" class="edge">
<title>tomcat&#45;lib&#45;&gt;apache&#45;commons&#45;pool</title>
<path fill="none" stroke="#444444" stroke-opacity="0.333333" d="M1598.125,-926.8173C1550.6786,-889.687 1443.0488,-805.4587 1389.5299,-763.5763"/>
<polygon fill="#444444" fill-opacity="0.333333" stroke="#444444" stroke-opacity="0.333333" points="1391.4548,-760.6383 1381.4226,-757.2317 1387.1408,-766.1509 1391.4548,-760.6383"/>
</g>
<!-- tomcat&#45;lib&#45;&gt;ecj -->
<g id="edge39" class="edge">
<title>tomcat&#45;lib&#45;&gt;ecj</title>
<path fill="none" stroke="#444444" stroke-opacity="0.333333" d="M1568.3666,-963.1292C1508.6051,-983.3963 1413.1201,-1015.7783 1361.0658,-1033.4315"/>
<polygon fill="#444444" fill-opacity="0.333333" stroke="#444444" stroke-opacity="0.333333" points="1359.9097,-1030.1277 1351.5636,-1036.654 1362.158,-1036.7569 1359.9097,-1030.1277"/>
</g>
<!-- tomcat&#45;lib&#45;&gt;tomcat&#45;el&#45;3.0&#45;api -->
<g id="edge40" class="edge">
<title>tomcat&#45;lib&#45;&gt;tomcat&#45;el&#45;3.0&#45;api</title>
<path fill="none" stroke="#444444" stroke-opacity="0.333333" d="M1632.3685,-963.3291C1655.3366,-1001.8311 1708.8953,-1091.613 1735.7112,-1136.5651"/>
<polygon fill="#444444" fill-opacity="0.333333" stroke="#444444" stroke-opacity="0.333333" points="1732.725,-1138.3912 1740.8539,-1145.1861 1738.7366,-1134.805 1732.725,-1138.3912"/>
</g>
<!-- tomcat&#45;lib&#45;&gt;tomcat&#45;jsp&#45;2.3&#45;api -->
<g id="edge41" class="edge">
<title>tomcat&#45;lib&#45;&gt;tomcat&#45;jsp&#45;2.3&#45;api</title>
<path fill="none" stroke="#444444" stroke-opacity="0.333333" d="M1613.4527,-963.1601C1598.1061,-997.5825 1564.576,-1072.7907 1546.4724,-1113.3972"/>
<polygon fill="#444444" fill-opacity="0.333333" stroke="#444444" stroke-opacity="0.333333" points="1543.2031,-1112.1349 1542.3278,-1122.6936 1549.5965,-1114.9854 1543.2031,-1112.1349"/>
</g>
<!-- tomcat&#45;lib&#45;&gt;tomcat&#45;servlet&#45;3.1&#45;api -->
<g id="edge42" class="edge">
<title>tomcat&#45;lib&#45;&gt;tomcat&#45;servlet&#45;3.1&#45;api</title>
<path fill="none" stroke="#444444" stroke-opacity="0.333333" d="M1661.1774,-963.2199C1699.5153,-980.7185 1757.6792,-1007.2662 1798.8691,-1026.0665"/>
<polygon fill="#444444" fill-opacity="0.333333" stroke="#444444" stroke-opacity="0.333333" points="1797.6176,-1029.3426 1808.1682,-1030.3109 1800.5242,-1022.9745 1797.6176,-1029.3426"/>
</g>
<!-- tomcat&#45;el&#45;3.0&#45;api&#45;&gt;java&#45;1.8.0&#45;openjdk&#45;headless -->
<g id="edge43" class="edge">
<title>tomcat&#45;el&#45;3.0&#45;api&#45;&gt;java&#45;1.8.0&#45;openjdk&#45;headless</title>
<path fill="none" stroke="#444444" stroke-opacity="0.333333" d="M1742.345,-1145.0284C1700.8594,-1063.5745 1531.8959,-731.8268 1482.3297,-634.5073"/>
<polygon fill="#444444" fill-opacity="0.333333" stroke="#444444" stroke-opacity="0.333333" points="1485.4417,-632.9053 1477.7844,-625.5829 1479.2041,-636.0822 1485.4417,-632.9053"/>
</g>
<!-- tomcat&#45;el&#45;3.0&#45;api&#45;&gt;javapackages&#45;tools -->
<g id="edge44" class="edge">
<title>tomcat&#45;el&#45;3.0&#45;api&#45;&gt;javapackages&#45;tools</title>
<path fill="none" stroke="#444444" stroke-opacity="0.333333" d="M1749.4356,-1144.978C1741.878,-1081.3511 1716.6255,-868.7519 1707.4601,-791.5887"/>
<polygon fill="#444444" fill-opacity="0.333333" stroke="#444444" stroke-opacity="0.333333" points="1710.9323,-791.1464 1706.2771,-781.629 1703.9811,-791.9721 1710.9323,-791.1464"/>
</g>
<!-- tomcat&#45;jsp&#45;2.3&#45;api&#45;&gt;java&#45;1.8.0&#45;openjdk&#45;headless -->
<g id="edge45" class="edge">
<title>tomcat&#45;jsp&#45;2.3&#45;api&#45;&gt;java&#45;1.8.0&#45;openjdk&#45;headless</title>
<path fill="none" stroke="#444444" stroke-opacity="0.333333" d="M1532.0764,-1122.6556C1522.3963,-1044.1024 1483.8862,-731.5964 1472.0674,-635.6878"/>
<polygon fill="#444444" fill-opacity="0.333333" stroke="#444444" stroke-opacity="0.333333" points="1475.5199,-635.0867 1470.823,-625.5899 1468.5725,-635.9429 1475.5199,-635.0867"/>
</g>
<!-- tomcat&#45;jsp&#45;2.3&#45;api&#45;&gt;javapackages&#45;tools -->
<g id="edge46" class="edge">
<title>tomcat&#45;jsp&#45;2.3&#45;api&#45;&gt;javapackages&#45;tools</title>
<path fill="none" stroke="#444444" stroke-opacity="0.333333" d="M1542.4898,-1122.4972C1569.9492,-1061.4655 1658.8695,-863.8299 1691.7386,-790.7746"/>
<polygon fill="#444444" fill-opacity="0.333333" stroke="#444444" stroke-opacity="0.333333" points="1695.0811,-791.8757 1695.9924,-781.3201 1688.6974,-789.0036 1695.0811,-791.8757"/>
</g>
<!-- tomcat&#45;jsp&#45;2.3&#45;api&#45;&gt;tomcat&#45;el&#45;3.0&#45;api -->
<g id="edge47" class="edge">
<title>tomcat&#45;jsp&#45;2.3&#45;api&#45;&gt;tomcat&#45;el&#45;3.0&#45;api</title>
<path fill="none" stroke="#444444" stroke-opacity="0.333333" d="M1641.3585,-1151.7852C1641.4422,-1151.7939 1641.5259,-1151.8025 1641.6096,-1151.8112"/>
<polygon fill="#444444" fill-opacity="0.333333" stroke="#444444" stroke-opacity="0.333333" points="1639.0832,-1155.0682 1649.3906,-1152.6169 1639.8043,-1148.1054 1639.0832,-1155.0682"/>
</g>
<!-- tomcat&#45;jsp&#45;2.3&#45;api&#45;&gt;tomcat&#45;servlet&#45;3.1&#45;api -->
<g id="edge48" class="edge">
<title>tomcat&#45;jsp&#45;2.3&#45;api&#45;&gt;tomcat&#45;servlet&#45;3.1&#45;api</title>
<path fill="none" stroke="#444444" stroke-opacity="0.333333" d="M1595.4902,-1122.6845C1647.5168,-1107.367 1722.2551,-1085.3627 1776.8837,-1069.279"/>
<polygon fill="#444444" fill-opacity="0.333333" stroke="#444444" stroke-opacity="0.333333" points="1777.8926,-1072.6306 1786.4969,-1066.4487 1775.9155,-1065.9156 1777.8926,-1072.6306"/>
</g>
<!-- tomcat&#45;servlet&#45;3.1&#45;api&#45;&gt;java&#45;1.8.0&#45;openjdk&#45;headless -->
<g id="edge49" class="edge">
<title>tomcat&#45;servlet&#45;3.1&#45;api&#45;&gt;java&#45;1.8.0&#45;openjdk&#45;headless</title>
<path fill="none" stroke="#444444" stroke-opacity="0.333333" d="M1832.228,-1030.2963C1772.8081,-961.216 1560.1961,-714.0377 1490.7311,-633.2791"/>
<polygon fill="#444444" fill-opacity="0.333333" stroke="#444444" stroke-opacity="0.333333" points="1493.2672,-630.8603 1484.0926,-625.5614 1487.9603,-635.4251 1493.2672,-630.8603"/>
</g>
<!-- tomcat&#45;servlet&#45;3.1&#45;api&#45;&gt;javapackages&#45;tools -->
<g id="edge50" class="edge">
<title>tomcat&#45;servlet&#45;3.1&#45;api&#45;&gt;javapackages&#45;tools</title>
<path fill="none" stroke="#444444" stroke-opacity="0.333333" d="M1838.5923,-1030.132C1814.0566,-981.4532 1746.9938,-848.4011 1717.8861,-790.6515"/>
<polygon fill="#444444" fill-opacity="0.333333" stroke="#444444" stroke-opacity="0.333333" points="1720.8574,-788.7703 1713.231,-781.4158 1714.6065,-791.921 1720.8574,-788.7703"/>
</g>
<!-- tomcatjss&#45;&gt;java&#45;1.8.0&#45;openjdk&#45;headless -->
<g id="edge51" class="edge">
<title>tomcatjss&#45;&gt;java&#45;1.8.0&#45;openjdk&#45;headless</title>
<path fill="none" stroke="#444444" stroke-opacity="0.333333" d="M1631.508,-328.5689C1602.1066,-378.9189 1519.3585,-520.6257 1484.4502,-580.4065"/>
<polygon fill="#444444" fill-opacity="0.333333" stroke="#444444" stroke-opacity="0.333333" points="1481.2941,-578.8705 1479.2739,-589.2709 1487.339,-582.4004 1481.2941,-578.8705"/>
</g>
<!-- tomcatjss&#45;&gt;javapackages&#45;tools -->
<g id="edge52" class="edge">
<title>tomcatjss&#45;&gt;javapackages&#45;tools</title>
<path fill="none" stroke="#444444" stroke-opacity="0.333333" d="M1644.5687,-328.4625C1654.1151,-398.1929 1688.6563,-650.4938 1700.2644,-735.2833"/>
<polygon fill="#444444" fill-opacity="0.333333" stroke="#444444" stroke-opacity="0.333333" points="1696.8001,-735.7832 1701.6242,-745.216 1703.7354,-734.8336 1696.8001,-735.7832"/>
</g>
<!-- tomcatjss&#45;&gt;apache&#45;commons&#45;lang -->
<g id="edge53" class="edge">
<title>tomcatjss&#45;&gt;apache&#45;commons&#45;lang</title>
<path fill="none" stroke="#444444" stroke-opacity="0.333333" d="M1701.1327,-303.5826C1704.0041,-303.2495 1706.9272,-302.9105 1709.8891,-302.5669"/>
<polygon fill="#444444" fill-opacity="0.333333" stroke="#444444" stroke-opacity="0.333333" points="1710.5604,-306.0126 1720.0905,-301.3836 1709.7538,-299.0592 1710.5604,-306.0126"/>
</g>
<!-- tomcatjss&#45;&gt;jss -->
<g id="edge54" class="edge">
<title>tomcatjss&#45;&gt;jss</title>
<path fill="none" stroke="#444444" stroke-opacity="0.333333" d="M1638.4156,-292.0463C1628.6385,-243.2616 1601.985,-110.2693 1590.2615,-51.7731"/>
<polygon fill="#444444" fill-opacity="0.333333" stroke="#444444" stroke-opacity="0.333333" points="1593.6506,-50.8718 1588.2537,-41.7546 1586.7871,-52.2474 1593.6506,-50.8718"/>
</g>
<!-- tomcatjss&#45;&gt;tomcat -->
<g id="edge55" class="edge">
<title>tomcatjss&#45;&gt;tomcat</title>
<path fill="none" stroke="#444444" stroke-opacity="0.333333" d="M1647.0494,-328.6863C1661.0213,-380.2223 1700.837,-527.0854 1717.6069,-588.9423"/>
<polygon fill="#444444" fill-opacity="0.333333" stroke="#444444" stroke-opacity="0.333333" points="1714.2818,-590.0536 1720.2765,-598.7894 1721.0379,-588.2219 1714.2818,-590.0536"/>
</g>
<!-- apache&#45;commons&#45;collections -->
<g id="node1" class="node">
<title>apache&#45;commons&#45;collections</title>
<text text-anchor="middle" x="1933.6" y="-825.6" font-family="monospace" font-size="14.00" fill="#000000">apache&#45;commons&#45;collections</text>
</g>
<!-- java&#45;1.8.0&#45;openjdk&#45;headless -->
<g id="node2" class="node">
<title>java&#45;1.8.0&#45;openjdk&#45;headless</title>
<text text-anchor="middle" x="1468.6" y="-603.85" font-family="monospace" font-size="14.00" fill="#000000">java&#45;1.8.0&#45;openjdk&#45;headless</text>
</g>
<!-- javapackages&#45;tools -->
<g id="node3" class="node">
<title>javapackages&#45;tools</title>
<text text-anchor="middle" x="1704.1" y="-759.6" font-family="monospace" font-size="14.00" fill="#000000">javapackages&#45;tools</text>
</g>
<!-- copy&#45;jdk&#45;configs -->
<g id="node4" class="node">
<title>copy&#45;jdk&#45;configs</title>
<text text-anchor="middle" x="580.46" y="-725.01" font-family="monospace" font-size="14.00" fill="#000000">copy&#45;jdk&#45;configs</text>
</g>
<!-- libjpeg&#45;turbo -->
<g id="node5" class="node">
<title>libjpeg&#45;turbo</title>
<text text-anchor="middle" x="1037.9" y="-192.61" font-family="monospace" font-size="14.00" fill="#000000">libjpeg&#45;turbo</text>
</g>
<!-- lksctp&#45;tools -->
<g id="node6" class="node">
<title>lksctp&#45;tools</title>
<text text-anchor="middle" x="930.7" y="-489.48" font-family="monospace" font-size="14.00" fill="#000000">lksctp&#45;tools</text>
</g>
<!-- tzdata&#45;java -->
<g id="node7" class="node">
<title>tzdata&#45;java</title>
<text text-anchor="middle" x="1263" y="-14.3" font-family="monospace" font-size="14.00" fill="#000000">tzdata&#45;java</text>
</g>
<!-- lua -->
<g id="node8" class="node">
<title>lua</title>
<text text-anchor="middle" x="86.867" y="-896.64" font-family="monospace" font-size="14.00" fill="#000000">lua</text>
</g>
<!-- lua&#45;posix -->
<g id="node9" class="node">
<title>lua&#45;posix</title>
<text text-anchor="middle" x="59.145" y="-674.66" font-family="monospace" font-size="14.00" fill="#000000">lua&#45;posix</text>
</g>
<!-- apache&#45;commons&#45;daemon -->
<g id="node10" class="node">
<title>apache&#45;commons&#45;daemon</title>
<text text-anchor="middle" x="1952.5" y="-451.74" font-family="monospace" font-size="14.00" fill="#000000">apache&#45;commons&#45;daemon</text>
</g>
<!-- apache&#45;commons&#45;dbcp -->
<g id="node11" class="node">
<title>apache&#45;commons&#45;dbcp</title>
<text text-anchor="middle" x="1447.1" y="-856.62" font-family="monospace" font-size="14.00" fill="#000000">apache&#45;commons&#45;dbcp</text>
</g>
<!-- apache&#45;commons&#45;pool -->
<g id="node12" class="node">
<title>apache&#45;commons&#45;pool</title>
<text text-anchor="middle" x="1358.1" y="-735.28" font-family="monospace" font-size="14.00" fill="#000000">apache&#45;commons&#45;pool</text>
</g>
<!-- apache&#45;commons&#45;lang -->
<g id="node13" class="node">
<title>apache&#45;commons&#45;lang</title>
<text text-anchor="middle" x="1832.8" y="-284.61" font-family="monospace" font-size="14.00" fill="#000000">apache&#45;commons&#45;lang</text>
</g>
<!-- apache&#45;commons&#45;logging -->
<g id="node14" class="node">
<title>apache&#45;commons&#45;logging</title>
<text text-anchor="middle" x="2032.3" y="-624.66" font-family="monospace" font-size="14.00" fill="#000000">apache&#45;commons&#45;logging</text>
</g>
<!-- ecj -->
<g id="node15" class="node">
<title>ecj</title>
<text text-anchor="middle" x="1324.3" y="-1042.2" font-family="monospace" font-size="14.00" fill="#000000">ecj</text>
</g>
<!-- jss -->
<g id="node16" class="node">
<title>jss</title>
<text text-anchor="middle" x="1584.6" y="-19.824" font-family="monospace" font-size="14.00" fill="#000000">jss</text>
</g>
<!-- tomcat -->
<g id="node17" class="node">
<title>tomcat</title>
<text text-anchor="middle" x="1725.2" y="-613.25" font-family="monospace" font-size="14.00" fill="#000000">tomcat</text>
</g>
<!-- tomcat&#45;lib -->
<g id="node18" class="node">
<title>tomcat&#45;lib</title>
<text text-anchor="middle" x="1621.5" y="-941.41" font-family="monospace" font-size="14.00" fill="#000000">tomcat&#45;lib</text>
</g>
<!-- tomcat&#45;el&#45;3.0&#45;api -->
<g id="node19" class="node">
<title>tomcat&#45;el&#45;3.0&#45;api</title>
<text text-anchor="middle" x="1751.6" y="-1159.5" font-family="monospace" font-size="14.00" fill="#000000">tomcat&#45;el&#45;3.0&#45;api</text>
</g>
<!-- tomcat&#45;jsp&#45;2.3&#45;api -->
<g id="node20" class="node">
<title>tomcat&#45;jsp&#45;2.3&#45;api</title>
<text text-anchor="middle" x="1534.3" y="-1137" font-family="monospace" font-size="14.00" fill="#000000">tomcat&#45;jsp&#45;2.3&#45;api</text>
</g>
<!-- tomcat&#45;servlet&#45;3.1&#45;api -->
<g id="node21" class="node">
<title>tomcat&#45;servlet&#45;3.1&#45;api</title>
<text text-anchor="middle" x="1847.8" y="-1044.7" font-family="monospace" font-size="14.00" fill="#000000">tomcat&#45;servlet&#45;3.1&#45;api</text>
</g>
<!-- tomcatjss -->
<g id="node22" class="node">
<title>tomcatjss</title>
<text text-anchor="middle" x="1642.1" y="-306.73" font-family="monospace" font-size="14.00" fill="#000000">tomcatjss</text>
</g>
</g>
</svg>
