<?xml version="1.0" encoding="UTF-8" standalone="no"?>
<!DOCTYPE svg PUBLIC "-//W3C//DTD SVG 1.1//EN"
 "http://www.w3.org/Graphics/SVG/1.1/DTD/svg11.dtd">
<!-- Generated by graphviz version 2.40.1 (20161225.0304)
 -->
<!-- Title: G Pages: 1 -->
<svg width="1956pt" height="1094pt"
 viewBox="0.00 0.00 1955.90 1094.49" xmlns="http://www.w3.org/2000/svg" xmlns:xlink="http://www.w3.org/1999/xlink">
<g id="graph0" class="graph" transform="scale(1 1) rotate(0) translate(74.2184 984.2305)">
<title>G</title>
<polygon fill="#dae2ff" stroke="transparent" points="-74.2184,110.2599 -74.2184,-984.2305 1881.6857,-984.2305 1881.6857,110.2599 -74.2184,110.2599"/>
<polygon fill="#fbb4ae" stroke="#fbb4ae" points="1203.5449,-801.3124 1206.4441,-789.4399 1208.3234,-779.3436 1222.2463,-715.2758 1310.8374,-709.4227 1312.3301,-709.4833 1321.9045,-709.5309 1326.7118,-709.3833 1327.0256,-709.3961 1339.0857,-709.4561 1341.106,-709.61 1346.6755,-709.4399 1347.3357,-709.4432 1354.8842,-709.7487 1356.1436,-709.7103 1357.9181,-709.5931 1360.647,-709.3151 1361.8041,-709.2386 1363.7274,-709.1799 1367.3257,-709.1978 1374.0184,-709.4694 1374.0668,-709.4731 1382.2457,-709.8051 1386.3895,-709.5307 1387.1857,-709.4495 1400.5856,-709.0387 1410.0043,-708.0793 1418.6953,-706.8853 1468.7244,-696.4731 1516.7334,-656.6539 1522.7865,-651.8724 1535.5906,-640.4386 1539.397,-636.7768 1545.1136,-639.8433 1554.9025,-644.6365 1569.248,-651.3234 1580.396,-655.7239 1643.2113,-679.0255 1699.1191,-668.6898 1720.4325,-664.2383 1722.2705,-663.7681 1723.0807,-663.5417 1735.7111,-669.0605 1753.5148,-675.4082 1822.5251,-698.124 1870.3768,-784.7855 1877.6857,-796.5956 1875.3892,-812.9451 1746.7294,-799.6985 1743.3224,-796.2443 1741.1104,-795.5964 1738.922,-793.9883 1737.0822,-793.9883 1736.4938,-793.2922 1736.4938,-793.2922 1737.0822,-793.9883 1738.922,-793.9883 1741.1104,-795.5964 1743.3224,-796.2443 1746.7294,-799.6985 1875.3892,-812.9451 1872.9327,-834.083 1840.0649,-881.7569 1785.905,-917.7639 1744.5642,-913.7209 1744.2355,-913.6968 1736.9913,-913.341 1731.3378,-913.2009 1711.5668,-913.6748 1652.1913,-919.4314 1643.2113,-917.7479 1601.2932,-931.564 1577.7933,-922.3109 1571.4226,-919.9662 1557.9211,-915.6892 1553.3372,-914.4739 1536.4189,-910.4222 1535.7607,-910.2989 1519.9554,-908.1473 1468.7244,-903.8169 1427.8048,-918.8061 1423.8119,-918.736 1409.8353,-918.8145 1398.9996,-919.3779 1392.2025,-920.0462 1376.6895,-922.2928 1370.1908,-923.5344 1365.4233,-924.5556 1361.5673,-925.5613 1350.6846,-926.7266 1347.7698,-926.4396 1345.4811,-926.364 1331.9199,-926.2111 1322.141,-926.5275 1308.6946,-927.2557 1273.1698,-929.9505 1235.3632,-916.4711 1217.6442,-861.18 1204.0396,-803.1895 1317.4867,-799.9136 1322.5657,-795.5002 1322.6538,-795.4693 1324.5364,-793.9945 1326.4989,-793.9945 1330.8373,-820.1288 1334.6018,-794.2717 1338.2218,-794.2717 1338.4193,-794.212 1343.547,-794.212 1347.2344,-854.8277 1347.8469,-920.7154 1355.3102,-794.3199 1359.1628,-794.3199 1359.6372,-794.8726 1359.6372,-794.8726 1359.1628,-794.3199 1355.3102,-794.3199 1347.8469,-920.7154 1347.2344,-854.8277 1343.547,-794.212 1338.4193,-794.212 1338.2218,-794.2717 1334.6018,-794.2717 1330.8373,-820.1288 1326.4989,-793.9945 1324.5364,-793.9945 1322.6538,-795.4693 1322.5657,-795.5002 1317.4867,-799.9136 1204.0396,-803.1895 1203.5449,-801.3124 1203.5449,-801.3124"/>
<polygon fill="#c2dfd1" stroke="#c2dfd1" points="67.5777,-398.3297 52.7059,-390.9984 -51.4517,-342.6674 -60.4194,-334.9519 -70.2184,-308.1321 -69.7834,-304.4937 -67.0521,-276.0074 -65.7989,-271.4553 -55.6544,-230.769 -40.6631,-163.1069 .5536,-138.4104 45.8113,-118.2458 50.769,-118.596 53.648,-118.7438 66.3716,-119.6596 144.3578,-87.1851 173.8149,-90.2902 185.1865,-91.2166 186.1075,-138.9063 184.538,-209.0648 187.0488,-212.7381 190.1979,-212.7381 190.6035,-212.6201 194.4334,-212.6201 194.8894,-212.4856 197.1602,-212.4856 201.3988,-216.3845 205.6588,-217.6062 212.2649,-215.5664 215.2612,-212.9779 215.9783,-212.9779 219.4221,-244.8492 223.4088,-212.882 226.2464,-212.882 226.9106,-212.6787 226.9482,-212.6787 226.9482,-212.6787 226.9106,-212.6787 230.4282,-172.3549 233.3688,-207.6885 277.1187,-194.2873 271.7839,-177.8079 318.6158,-174.4583 325.0792,-260.6653 325.1514,-267.6507 332.4944,-256.4063 335.7813,-251.7296 350.8297,-231.8927 350.8975,-219.3132 351.4879,-210.8769 357.5251,-170.8751 361.3784,-173.0752 367.6054,-173.0752 372.125,-170.447 374.7178,-207.0179 375.911,-206.0621 378.6767,-168.8954 382.6297,-168.8954 385.2393,-198.6732 387.377,-197.3104 389.4152,-168.7362 394.1399,-168.7362 394.1962,-194.1697 399.2703,-192.7737 404.5018,-192.3021 408.0874,-192.6473 411.4464,-192.3461 411.8753,-192.3866 418.4695,-191.7985 423.6867,-190.3721 429.7801,-187.5837 435.4568,-183.9662 439.8358,-180.4048 441.9561,-178.2969 444.968,-174.6841 449.2291,-171.1885 461.2714,-159.6792 462.6806,-158.1698 466.5799,-152.9486 466.9148,-153.2117 512.3366,-149.4585 523.0355,-152.263 525.0348,-174.4305 524.6063,-183.7013 505.4525,-178.667 504.0203,-210.6569 499.9434,-215.0488 575.1546,-222.69 582.6697,-231.191 586.9783,-235.691 600.0854,-251.3421 601.5353,-253.1747 603.2995,-255.5334 603.847,-145.7132 603.847,-145.7132 603.2995,-255.5334 601.5353,-253.1747 600.0854,-251.3421 586.9783,-235.691 585.8157,-188.1546 585.8157,-188.1546 586.9783,-235.691 582.6697,-231.191 575.1546,-222.69 499.9434,-215.0488 504.0203,-210.6569 551.3819,-199.9853 552.2026,-200.5423 560.5014,-206.9191 564.5941,-210.79 566.3666,-148.9976 571.6287,-150.6153 571.6287,-150.6153 566.3666,-148.9976 564.5941,-210.79 560.5014,-206.9191 560.4575,-205.9427 560.4575,-205.9427 560.5014,-206.9191 552.2026,-200.5423 551.3819,-199.9853 504.0203,-210.6569 505.4525,-178.667 524.6063,-183.7013 525.0348,-174.4305 523.0355,-152.263 512.3366,-149.4585 466.9148,-153.2117 466.5799,-152.9486 462.6806,-158.1698 461.2714,-159.6792 449.2291,-171.1885 444.968,-174.6841 441.9561,-178.2969 439.8358,-180.4048 435.4568,-183.9662 429.7801,-187.5837 423.6867,-190.3721 418.4695,-191.7985 411.8753,-192.3866 411.4464,-192.3461 408.0874,-192.6473 404.5018,-192.3021 399.2703,-192.7737 394.1962,-194.1697 394.1399,-168.7362 389.4152,-168.7362 387.377,-197.3104 385.2393,-198.6732 382.6297,-168.8954 378.6767,-168.8954 375.911,-206.0621 374.7178,-207.0179 372.125,-170.447 373.6788,-168.5622 372.3979,-167.0387 367.7792,-164.3434 367.7792,-164.3434 372.3979,-167.0387 373.6788,-168.5622 372.125,-170.447 367.6054,-173.0752 361.3784,-173.0752 357.5251,-170.8751 351.4879,-210.8769 350.8975,-219.3132 350.8297,-231.8927 335.7813,-251.7296 332.4944,-256.4063 325.1514,-267.6507 325.0792,-260.6653 318.6158,-174.4583 271.7839,-177.8079 277.1187,-194.2873 233.3688,-207.6885 230.4282,-172.3549 226.9106,-212.6787 226.2464,-212.882 223.4088,-212.882 219.4221,-244.8492 215.9783,-212.9779 215.2612,-212.9779 212.2649,-215.5664 205.6588,-217.6062 201.3988,-216.3845 197.1602,-212.4856 194.8894,-212.4856 194.4334,-212.6201 190.6035,-212.6201 190.1979,-212.7381 187.0488,-212.7381 184.538,-209.0648 186.1075,-138.9063 185.1865,-91.2166 200.5411,-91.7291 204.8161,-91.6659 218.8484,-91.1207 226.4566,-90.2769 320.0336,-29.8784 321.4232,-29.6475 321.7854,-29.564 339.5702,-27.338 348.7871,-25.6074 367.408,2.6974 412.0748,64.5278 442.9845,93.5778 476.9337,87.8184 490.4231,85.872 490.3889,-26.2958 492.9513,-29.8062 494.4269,-29.8062 496.0485,-30.3139 500.996,-30.3139 502.1305,-89.5768 502.8067,-89.4614 507.189,-30.4446 510.991,-30.4446 512.2727,-31.9592 517.0686,-34.7187 517.0686,-34.7187 512.2727,-31.9592 510.991,-30.4446 507.189,-30.4446 502.8067,-89.4614 502.1305,-89.5768 500.996,-30.3139 496.0485,-30.3139 494.4269,-29.8062 492.9513,-29.8062 490.3889,-26.2958 490.4231,85.872 503.5571,84.3142 517.0976,84.0988 527.0911,84.1965 532.2512,84.3793 533.0498,84.428 534.9751,84.321 540.0334,84.1691 542.9608,84.156 560.9724,84.9968 595.8621,87.5144 632.6408,67.7368 683.808,1.3502 699.9512,-18.5903 721.244,-28.2257 796.5871,3.5942 830.0693,-3.2021 853.758,-7.4016 862.579,-8.2716 879.5876,-9.0617 882.2212,-9.115 885.354,-9.0967 901.2286,-8.1733 910.894,-7.1064 925.0032,-4.8112 941.5822,-1.2518 960.9443,-1.2782 1001.6614,-13.3687 1013.0975,-59.1264 1019.9108,-90.2431 1022.1966,-105.0923 925.5168,-121.6192 920.7907,-127.1253 919.1483,-127.1253 918.9169,-127.0521 915.1104,-127.0521 913.8447,-127.4576 908.021,-127.4576 907.2255,-127.2067 903.432,-127.2067 903.2194,-127.1404 900.2568,-81.765 896.1407,-126.6498 892.1442,-126.6498 887.3497,-80.1896 885.3569,-122.5436 891.8494,-126.7466 891.0469,-127.8165 885.0056,-131.7752 880.5087,-131.7752 880.5087,-131.7752 885.0056,-131.7752 891.0469,-127.8165 891.8494,-126.7466 885.3569,-122.5436 887.3497,-80.1896 892.1442,-126.6498 896.1407,-126.6498 900.2568,-81.765 903.2194,-127.1404 903.432,-127.2067 907.2255,-127.2067 908.021,-127.4576 913.8447,-127.4576 915.1104,-127.0521 918.9169,-127.0521 919.1483,-127.1253 920.7907,-127.1253 925.5168,-121.6192 1022.1966,-105.0923 1024.1821,-115.713 1028.9779,-137.5144 1020.4919,-159.6702 1017.584,-168.078 1025.3857,-202.9702 1026.5437,-209.2079 1027.8835,-221.3665 1031.2556,-243.9848 1028.9163,-246.1604 1024.9299,-250.1607 1018.1826,-256.464 1016.5705,-257.8566 1015.6631,-258.5226 1002.4348,-269.1836 992.5493,-275.6993 990.2758,-277.0276 985.8008,-279.3196 973.5339,-284.7243 967.066,-286.613 962.7873,-287.5512 960.1304,-287.942 948.6848,-288.8026 946.4094,-288.8082 946.0582,-288.836 941.7209,-288.8647 941.2867,-288.8362 940.5629,-288.844 931.9302,-288.3063 931.9213,-284.4562 928.2131,-242.6913 923.8487,-242.6913 923.5355,-242.5919 918.0087,-242.5919 916.193,-200.7673 911.0063,-240.78 906.9182,-238.3084 900.5491,-238.3084 894.3333,-242.4064 894.3206,-242.4022 889.2387,-242.4022 888.7834,-242.2546 883.1495,-242.2546 885.4121,-184.8821 877.3943,-184.7113 873.902,-184.4315 873.9382,-178.384 867.3666,-127.1621 863.8822,-127.1621 857.3614,-181.3925 856.9516,-175.3577 856.9516,-175.3577 857.3614,-181.3925 863.8822,-127.1621 867.3666,-127.1621 873.9382,-178.384 873.902,-184.4315 877.3943,-184.7113 885.4121,-184.8821 883.1495,-242.2546 888.7834,-242.2546 889.2387,-242.4022 894.3206,-242.4022 894.3333,-242.4064 900.5491,-238.3084 906.9182,-238.3084 911.0063,-240.78 916.193,-200.7673 918.0087,-242.5919 923.5355,-242.5919 923.8487,-242.6913 928.2131,-242.6913 931.9213,-284.4562 931.9302,-288.3063 926.0614,-288.8501 921.1168,-288.5854 918.8503,-288.6384 910.5471,-289.4712 905.0897,-290.4353 889.0171,-295.774 889.0214,-294.7042 888.9664,-293.8165 882.3407,-242.5097 878.2518,-242.5097 877.899,-242.4012 872.8099,-242.4012 872.528,-242.3123 869.9945,-184.8076 863.8726,-185.0365 861.7565,-184.9918 857.3782,-184.643 841.1686,-186.1975 839.1284,-186.6302 837.4896,-185.2413 799.2377,-186.6521 785.9541,-183.6154 785.9541,-183.6154 799.2377,-186.6521 837.4896,-185.2413 839.1284,-186.6302 841.1686,-186.1975 857.3782,-184.643 861.7565,-184.9918 863.8726,-185.0365 869.9945,-184.8076 872.528,-242.3123 872.8099,-242.4012 877.899,-242.4012 878.2518,-242.5097 882.3407,-242.5097 888.9664,-293.8165 889.0214,-294.7042 889.0171,-295.774 875.3946,-303.4449 868.2862,-307.9793 862.7278,-312.3669 837.0363,-334.67 833.0625,-337.4452 745.3444,-346.0448 721.8242,-361.139 716.6935,-364.8051 716.1815,-364.944 640.9809,-386.6549 630.8144,-378.2576 508.5628,-361.6045 492.3889,-359.7242 490.9464,-359.6144 483.3937,-359.3419 473.3961,-355.5278 465.3976,-352.6635 461.6108,-351.4843 459.2235,-350.8504 450.0695,-219.0885 455.6464,-220.7367 455.6464,-220.7367 450.0695,-219.0885 459.2235,-350.8504 440.8354,-346.3866 442.0638,-253.27 442.0638,-253.27 440.8354,-346.3866 430.3337,-344.325 419.7552,-342.7389 418.2433,-342.5473 410.0242,-341.696 410.0854,-303.1559 410.0854,-303.1559 410.0242,-341.696 356.7559,-338.6418 318.3403,-326.9764 290.6657,-338.3252 248.4739,-374.2413 201.8085,-384.9544 181.3824,-382.7624 169.0334,-381.7533 159.7536,-381.2342 159.2816,-338.0354 157.1843,-299.7918 157.1843,-299.7918 159.2816,-338.0354 159.7536,-381.2342 146.5388,-381.5171 139.975,-381.8268 128.3403,-382.976 117.5009,-384.6051 108.0103,-386.5201 107.6111,-294.2307 111.2281,-269.7881 115.0089,-271.975 115.0089,-271.975 111.2281,-269.7881 107.6111,-294.2307 108.0103,-386.5201 101.6582,-388.1297 85.7964,-392.5599 81.8722,-393.855 81.1487,-324.3215 81.1487,-324.3215 81.8722,-393.855 78.2418,-395.2408 70.2549,-398.4991 69.7649,-398.7118 67.5777,-398.3297 67.5777,-398.3297"/>
<polygon fill="#c1c8d8" stroke="#c1c8d8" points="1443.6382,-233.7657 1443.5118,-233.6548 1391.9585,-191.5986 1388.774,-167.9038 1387.8142,-163.09 1387.578,-141.0037 1374.4261,-43.1413 1341.6022,-6.5324 1337.6813,-1.9959 1329.7437,7.5232 1329.6665,7.6089 1344.1881,31.1308 1370.5417,48.3472 1463.9124,95.7791 1494.5225,102.8576 1504.9507,105.8019 1506.4392,106.2599 1507.8761,105.7857 1514.0496,103.9071 1523.8352,101.1815 1529.2002,99.9649 1615.1211,82.6898 1628.6279,73.4629 1636.7213,72.1882 1651.637,70.4939 1653.7955,69.9857 1652.9406,33.4696 1651.7095,10.8993 1644.6692,-61.861 1641.0343,-61.861 1639.6311,-62.2841 1635.983,-62.2841 1634.0021,-61.6717 1630.3939,-61.6717 1629.6083,-60.7632 1624.5223,-57.7728 1624.5223,-57.7728 1629.6083,-60.7632 1630.3939,-61.6717 1634.0021,-61.6717 1635.983,-62.2841 1639.6311,-62.2841 1641.0343,-61.861 1644.6692,-61.861 1651.7095,10.8993 1652.9406,33.4696 1653.7955,69.9857 1697.8623,62.6238 1768.8922,-6.2936 1768.309,-43.6701 1769.967,-85.4585 1788.2316,-126.0592 1794.9103,-139.8897 1800.5234,-164.7705 1798.9764,-171.3753 1702.8558,-161.1778 1674.2804,-161.5454 1668.9189,-156.9238 1668.1815,-155.6522 1663.7126,-155.6522 1663.1417,-196.5405 1656.7523,-191.8883 1656.7523,-191.8883 1663.1417,-196.5405 1663.7126,-155.6522 1668.1815,-155.6522 1668.9189,-156.9238 1674.2804,-161.5454 1702.8558,-161.1778 1798.9764,-171.3753 1796.8063,-183.2582 1754.8303,-249.0578 1740.5157,-260.3553 1707.2859,-311.2021 1682.8782,-323.3302 1639.0909,-327.6023 1620.0457,-329.9529 1608.5448,-331.9604 1596.7163,-334.6283 1599.0527,-251.0535 1596.8267,-216.504 1600.7009,-212.8371 1597.9377,-210.422 1597.9377,-210.422 1600.7009,-212.8371 1596.8267,-216.504 1599.0527,-251.0535 1596.7163,-334.6283 1592.4189,-335.8157 1582.8263,-338.9611 1572.3213,-342.6759 1567.26,-344.5938 1556.4567,-349.2395 1555.5557,-349.6498 1547.448,-353.5495 1474.5803,-309.7141 1469.7814,-286.6626 1463.6522,-252.0371 1459.7235,-248.19 1461.2826,-150.0205 1461.3276,-150.0073 1465.2454,-150.0073 1465.2454,-150.0073 1461.3276,-150.0073 1461.2826,-150.0205 1459.7235,-248.19 1459.0441,-247.5637 1446.658,-236.8274 1443.6382,-233.7657 1443.6382,-233.7657"/>
<polygon fill="#e4ced8" stroke="#e4ced8" points="961.9957,-461.4644 965.9836,-458.6325 967.613,-457.1261 972.8953,-453.2946 978.6226,-450.2837 992.6417,-445.7555 997.7254,-443.0294 1005.726,-436.9932 1006.9116,-436.3134 1007.1047,-436.172 1017.867,-426.2822 1018.33,-425.7828 1020.2075,-423.4076 1025.5944,-417.6045 1029.8195,-412.4193 1032.4919,-409.5282 1037.5125,-403.4663 1038.316,-402.3937 1045.3765,-402.3947 1046.2743,-402.3519 1046.6068,-402.3201 1061.1814,-378.8008 1070.0031,-361.9021 1078.2998,-341.7152 1083.6967,-331.0726 1102.229,-304.4192 1106.778,-373.9919 1110.6896,-378.5095 1111.1583,-378.5095 1116.9098,-303.6617 1117.249,-378.5514 1123.0309,-378.5514 1123.2893,-378.6287 1127.5061,-378.6287 1128.2463,-378.4094 1132.803,-378.4094 1133.6063,-378.6488 1137.4865,-378.6488 1139.0797,-380.5373 1143.7843,-383.2335 1149.5243,-383.2335 1154.5188,-380.3392 1155.9374,-378.6662 1159.1716,-378.6662 1164.5502,-327.7589 1163.7822,-292.9045 1164.0836,-292.8912 1169.9465,-208.9652 1174.9479,-211.8526 1179.8523,-211.8526 1185.0482,-208.7731 1190.1998,-281.2412 1191.035,-207.0641 1191.6782,-206.8671 1195.5928,-206.8671 1196.9594,-207.2853 1200.6519,-207.2853 1202.6378,-206.6689 1198.6062,-170.021 1198.4686,-160.2752 1208.2682,-168.6093 1209.5562,-169.5153 1210.1572,-170.0441 1240.6537,-168.9944 1246.2175,-163.8066 1246.5597,-163.1924 1251.0687,-163.1924 1251.0687,-163.1924 1246.5597,-163.1924 1246.2175,-163.8066 1240.6537,-168.9944 1210.1572,-170.0441 1209.5562,-169.5153 1208.2682,-168.6093 1198.4686,-160.2752 1198.6062,-170.021 1202.6378,-206.6689 1200.6519,-207.2853 1196.9594,-207.2853 1195.5928,-206.8671 1191.6782,-206.8671 1191.035,-207.0641 1190.1998,-281.2412 1185.0482,-208.7731 1186.4292,-207.0641 1184.8851,-205.1775 1180.7245,-202.7755 1180.7245,-202.7755 1184.8851,-205.1775 1186.4292,-207.0641 1185.0482,-208.7731 1179.8523,-211.8526 1174.9479,-211.8526 1169.9465,-208.9652 1164.0836,-292.8912 1163.7822,-292.9045 1164.5502,-327.7589 1159.1716,-378.6662 1155.9374,-378.6662 1154.5188,-380.3392 1149.5243,-383.2335 1143.7843,-383.2335 1139.0797,-380.5373 1137.4865,-378.6488 1133.6063,-378.6488 1132.803,-378.4094 1137.4814,-292.8715 1138.6563,-292.8602 1141.7106,-292.9379 1142.6638,-207.3336 1141.8223,-207.0772 1138.0587,-207.0772 1135.0873,-177.0054 1136.0243,-143.4785 1145.7861,-143.717 1145.1724,-84.6649 1150.4606,-84.6649 1150.4606,-84.6649 1145.1724,-84.6649 1145.7861,-143.717 1136.0243,-143.4785 1135.0873,-177.0054 1138.0587,-207.0772 1141.8223,-207.0772 1142.6638,-207.3336 1141.7106,-292.9379 1138.6563,-292.8602 1137.4814,-292.8715 1132.803,-378.4094 1128.2463,-378.4094 1127.5061,-378.6287 1123.2893,-378.6287 1123.0309,-378.5514 1117.249,-378.5514 1116.9098,-303.6617 1111.1583,-378.5095 1110.6896,-378.5095 1106.778,-373.9919 1102.229,-304.4192 1109.6707,-292.7169 1037.9664,-248.7737 1031.2556,-243.9848 1027.8835,-221.3665 1026.5437,-209.2079 1025.3857,-202.9702 1017.584,-168.078 1020.4919,-159.6702 1028.9779,-137.5144 1024.1821,-115.713 1022.1966,-105.0923 1019.9108,-90.2431 1013.0975,-59.1264 1001.6614,-13.3687 1093.1744,45.027 1110.6155,51.1066 1121.7262,49.0758 1124.6232,48.6786 1133.7257,47.6375 1145.5999,46.5505 1147.911,46.4446 1158.326,46.205 1175.3787,46.982 1179.4011,45.602 1319.4489,4.6412 1329.6665,7.6089 1329.7437,7.5232 1337.6813,-1.9959 1341.6022,-6.5324 1374.4261,-43.1413 1387.578,-141.0037 1387.8142,-163.09 1388.774,-167.9038 1391.9585,-191.5986 1368.0139,-201.5421 1368.0139,-201.5421 1391.9585,-191.5986 1443.5118,-233.6548 1443.6382,-233.7657 1446.658,-236.8274 1459.0441,-247.5637 1459.7235,-248.19 1463.6522,-252.0371 1469.7814,-286.6626 1474.5803,-309.7141 1547.448,-353.5495 1543.8966,-410.4058 1543.7898,-413.4379 1543.4338,-459.1027 1544.347,-505.6631 1520.0143,-552.2235 1438.578,-532.7401 1420.2123,-528.8895 1418.3914,-528.5632 1412.9175,-527.7478 1411.3457,-527.5611 1409.2354,-525.2468 1381.1482,-496.2693 1349.12,-459.8201 1317.2056,-459.0493 1318.8434,-401.9748 1313.0059,-397.3886 1312.0906,-395.9046 1309.0741,-395.9046 1307.5118,-393.9812 1302.4613,-391.0073 1297.9255,-391.0073 1297.9255,-391.0073 1302.4613,-391.0073 1307.5118,-393.9812 1309.0741,-395.9046 1312.0906,-395.9046 1313.0059,-397.3886 1318.8434,-401.9748 1317.2056,-459.0493 1349.12,-459.8201 1381.1482,-496.2693 1409.2354,-525.2468 1411.3457,-527.5611 1412.9175,-527.7478 1418.3914,-528.5632 1420.2123,-528.8895 1438.578,-532.7401 1520.0143,-552.2235 1531.0084,-603.6586 1532.8909,-611.6278 1539.397,-636.7768 1535.5906,-640.4386 1522.7865,-651.8724 1516.7334,-656.6539 1468.7244,-696.4731 1418.6953,-706.8853 1410.0043,-708.0793 1400.5856,-709.0387 1387.1857,-709.4495 1386.3895,-709.5307 1382.2457,-709.8051 1374.0668,-709.4731 1374.0184,-709.4694 1367.3257,-709.1978 1363.7274,-709.1799 1361.8041,-709.2386 1360.647,-709.3151 1357.9181,-709.5931 1356.1436,-709.7103 1354.8842,-709.7487 1347.3357,-709.4432 1346.6755,-709.4399 1341.106,-709.61 1339.0857,-709.4561 1327.0256,-709.3961 1326.7118,-709.3833 1321.9045,-709.5309 1312.3301,-709.4833 1310.8374,-709.4227 1222.2463,-715.2758 1221.5701,-714.0342 1208.3966,-686.4735 1223.3705,-640.0046 1229.6106,-617.8596 1232.1829,-604.7994 1230.916,-603.0004 1238.0931,-522.8513 1241.832,-522.8513 1248.1261,-573.2853 1248.6318,-522.5804 1249.6667,-522.2457 1253.1333,-522.2457 1253.4044,-522.3331 1254.6388,-523.9193 1259.8149,-527.1166 1265.3888,-527.1166 1265.3888,-527.1166 1259.8149,-527.1166 1254.6388,-523.9193 1253.4044,-522.3331 1253.1333,-522.2457 1249.6667,-522.2457 1248.6318,-522.5804 1248.1261,-573.2853 1241.832,-522.8513 1238.0931,-522.8513 1230.916,-603.0004 1230.6501,-602.6527 1222.9258,-594.0535 1216.4569,-587.475 1210.3005,-579.6749 1196.0947,-565.4559 1169.3076,-533.5435 1157.1429,-521.2454 1156.1482,-520.3569 1152.7671,-516.9728 1148.9919,-512.2904 1139.5845,-516.6508 1133.7964,-518.9676 1123.2313,-521.8869 1115.3206,-523.5761 1105.614,-524.4364 1101.7111,-524.5391 1098.0352,-524.4075 1097.292,-524.3345 1094.0161,-524.2173 1089.2443,-524.3427 1087.9877,-524.4539 1087.25,-524.4732 1083.0336,-524.3223 1075.6077,-524.5176 1075.2742,-524.5057 1075.0962,-516.9407 1075.0962,-516.9407 1075.2742,-524.5057 1073.3857,-524.6724 1070.5448,-524.7469 1060.8599,-524.3998 1060.8512,-524.3984 1059.6735,-524.2834 1057.2568,-524.1971 1050.005,-524.3879 1049.4158,-524.3669 1041.5095,-524.5747 1037.7856,-524.9029 1030.8771,-525.9398 1029.6694,-526.1954 1021.3112,-528.4913 1012.1026,-531.5947 1002.7263,-535.9171 989.6422,-543.6008 958.989,-563.4536 934.2872,-577.1786 916.7263,-517.5098 919.7981,-512.4548 921.046,-510.5527 934.614,-491.391 944.1909,-480.2729 945.9608,-478.4471 947.9356,-475.7492 951.2678,-471.7668 957.1174,-465.7151 961.9957,-461.4644 961.9957,-461.4644"/>
<polygon fill="#fed9a6" stroke="#fed9a6" points="714.1491,-592.3533 713.8358,-592.913 713.5102,-682.5627 714.1936,-706.0797 713.9404,-717.6487 636.4489,-690.0682 596.6641,-635.2513 596.3747,-611.2571 599.465,-591.38 606.6346,-488.7531 640.4216,-399.8638 640.9809,-386.6549 716.1815,-364.944 716.6935,-364.8051 721.8242,-361.139 745.3444,-346.0448 833.0625,-337.4452 837.0363,-334.67 862.7278,-312.3669 868.2862,-307.9793 875.3946,-303.4449 889.0171,-295.774 905.0897,-290.4353 910.5471,-289.4712 918.8503,-288.6384 921.1168,-288.5854 926.0614,-288.8501 931.9302,-288.3063 940.5629,-288.844 941.2867,-288.8362 941.7209,-288.8647 946.0582,-288.836 946.4094,-288.8082 948.6848,-288.8026 960.1304,-287.942 962.7873,-287.5512 967.066,-286.613 973.5339,-284.7243 985.8008,-279.3196 990.2758,-277.0276 992.5493,-275.6993 1002.4348,-269.1836 1015.6631,-258.5226 1016.5705,-257.8566 1018.1826,-256.464 1024.9299,-250.1607 1028.9163,-246.1604 1031.2556,-243.9848 1037.9664,-248.7737 1036.7227,-282.259 1036.7227,-282.259 1037.9664,-248.7737 1109.6707,-292.7169 1102.229,-304.4192 1083.6967,-331.0726 1078.2998,-341.7152 1070.0031,-361.9021 1061.1814,-378.8008 1046.6068,-402.3201 1046.2743,-402.3519 1045.3765,-402.3947 1038.316,-402.3937 1037.5125,-403.4663 1032.4919,-409.5282 1029.8195,-412.4193 1025.5944,-417.6045 1020.2075,-423.4076 1018.33,-425.7828 1017.867,-426.2822 1007.1047,-436.172 1006.9116,-436.3134 1005.726,-436.9932 997.7254,-443.0294 992.6417,-445.7555 978.6226,-450.2837 972.8953,-453.2946 967.613,-457.1261 965.9836,-458.6325 961.9957,-461.4644 957.1174,-465.7151 951.2678,-471.7668 947.9356,-475.7492 945.9608,-478.4471 944.1909,-480.2729 934.614,-491.391 921.046,-510.5527 919.7981,-512.4548 919.6759,-427.2193 925.2908,-430.5212 929.8351,-430.5212 929.8351,-430.5212 925.2908,-430.5212 919.6759,-427.2193 919.7981,-512.4548 916.7263,-517.5098 934.2872,-577.1786 923.0679,-619.1542 904.9279,-681.013 895.7485,-691.6149 893.0854,-698.3973 740.2459,-729.9205 739.1064,-729.3033 713.9404,-717.6487 714.1936,-706.0797 713.5102,-682.5627 713.8358,-592.913 714.1491,-592.3533 715.6352,-591.1616 719.236,-594.5099 719.236,-594.5099 715.6352,-591.1616 715.685,-590.8719 718.2626,-588.6522 724.7311,-586.6215 730.5152,-588.3945 724.9389,-527.1295 725.0709,-506.9442 735.4789,-517.1371 743.5673,-524.4274 746.0214,-526.4405 792.908,-520.0828 804.636,-522.3583 806.5284,-587.3762 810.179,-591.0201 811.679,-553.731 816.1144,-520.5991 810.643,-517.1343 810.1495,-514.6528 810.0073,-514.5388 811.105,-443.3438 802.8089,-435.6588 795.3885,-428.2416 855.8182,-428.6854 876.7715,-432.1805 882.3194,-428.1213 883.8541,-425.6725 886.2228,-425.6725 886.8286,-425.856 890.8877,-478.1995 893.2761,-425.8747 897.6812,-425.8747 900.0132,-462.2372 904.7274,-426.1171 904.7274,-426.1171 900.0132,-462.2372 897.6812,-425.8747 893.2761,-425.8747 890.8877,-478.1995 886.8286,-425.856 886.2228,-425.6725 883.8541,-425.6725 882.3194,-428.1213 876.7715,-432.1805 855.8182,-428.6854 795.3885,-428.2416 802.8089,-435.6588 811.105,-443.3438 810.0073,-514.5388 810.1495,-514.6528 810.643,-517.1343 816.1144,-520.5991 811.679,-553.731 810.179,-591.0201 806.5284,-587.3762 804.636,-522.3583 792.908,-520.0828 746.0214,-526.4405 743.5673,-524.4274 735.4789,-517.1371 725.0709,-506.9442 724.9389,-527.1295 730.5152,-588.3945 724.7311,-586.6215 718.2626,-588.6522 715.685,-590.8719 715.6352,-591.1616 714.1491,-592.3533 714.1491,-592.3533"/>
<polygon fill="#d3ded1" stroke="#d3ded1" points="942.1295,-854.1801 948.1335,-874.7604 970.42,-959.8317 1008.5074,-979.971 1053.2417,-976.7857 1068.507,-976.1313 1087.095,-976.3925 1088.1239,-976.4652 1097.2882,-977.374 1098.0651,-926.7925 1098.0651,-926.7925 1097.2882,-977.374 1115.5917,-980.2305 1140.9431,-977.9423 1235.3632,-916.4711 1217.6442,-861.18 1204.0396,-803.1895 1203.5449,-801.3124 1206.4441,-789.4399 1208.3234,-779.3436 1222.2463,-715.2758 1221.5701,-714.0342 1208.3966,-686.4735 1223.3705,-640.0046 1229.6106,-617.8596 1232.1829,-604.7994 1230.916,-603.0004 1230.6501,-602.6527 1222.9258,-594.0535 1216.4569,-587.475 1210.3005,-579.6749 1196.0947,-565.4559 1169.3076,-533.5435 1157.1429,-521.2454 1156.1482,-520.3569 1152.7671,-516.9728 1148.9919,-512.2904 1139.5845,-516.6508 1133.7964,-518.9676 1123.2313,-521.8869 1115.3206,-523.5761 1105.614,-524.4364 1101.7111,-524.5391 1098.0352,-524.4075 1097.292,-524.3345 1094.0161,-524.2173 1089.2443,-524.3427 1087.9877,-524.4539 1087.25,-524.4732 1083.0336,-524.3223 1075.6077,-524.5176 1075.2742,-524.5057 1073.3857,-524.6724 1070.5448,-524.7469 1060.8599,-524.3998 1060.8512,-524.3984 1059.6735,-524.2834 1057.2568,-524.1971 1050.005,-524.3879 1049.4158,-524.3669 1041.5095,-524.5747 1037.7856,-524.9029 1030.8771,-525.9398 1029.6694,-526.1954 1021.3112,-528.4913 1012.1026,-531.5947 1002.7263,-535.9171 989.6422,-543.6008 958.989,-563.4536 934.2872,-577.1786 923.0679,-619.1542 904.9279,-681.013 895.7485,-691.6149 893.0854,-698.3973 909.991,-737.39 926.7968,-783.0443 1060.9802,-799.0263 1073.7948,-799.0964 1076.1591,-799.2299 1076.6437,-799.2821 1080.7924,-799.2556 1083.1403,-740.8662 1079.2897,-737.3992 1082.655,-734.3629 1082.655,-734.3629 1079.2897,-737.3992 1083.1403,-740.8662 1087.8289,-742.2403 1087.8289,-742.2403 1083.1403,-740.8662 1080.7924,-799.2556 1076.6437,-799.2821 1076.1591,-799.2299 1073.7948,-799.0964 1060.9802,-799.0263 926.7968,-783.0443 926.7111,-787.9851 934.7236,-832.9884 942.1295,-854.1801 942.1295,-854.1801"/>
<polyline fill="none" stroke="#000000" points="1535.7607,-910.2989 1519.9554,-908.1473 1468.7244,-903.8169 1427.8048,-918.8061 1423.8119,-918.736 1409.8353,-918.8145 1398.9996,-919.3779 1392.2025,-920.0462 1376.6895,-922.2928 1370.1908,-923.5344 1365.4233,-924.5556 1361.5673,-925.5613 1350.6846,-926.7266 1347.7698,-926.4396 1345.4811,-926.364 1331.9199,-926.2111 1322.141,-926.5275 1308.6946,-927.2557 1273.1698,-929.9505 1235.3632,-916.4711 1217.6442,-861.18 1204.0396,-803.1895 1203.5449,-801.3124 1206.4441,-789.4399 1208.3234,-779.3436 1222.2463,-715.2758 1310.8374,-709.4227 1312.3301,-709.4833 1321.9045,-709.5309 1326.7118,-709.3833 1327.0256,-709.3961 1339.0857,-709.4561 1341.106,-709.61 1346.6755,-709.4399 1347.3357,-709.4432 1354.8842,-709.7487 1356.1436,-709.7103 1357.9181,-709.5931 1360.647,-709.3151 1361.8041,-709.2386 1363.7274,-709.1799 1367.3257,-709.1978 1374.0184,-709.4694 1374.0668,-709.4731 1382.2457,-709.8051 1386.3895,-709.5307 1387.1857,-709.4495 1400.5856,-709.0387 1410.0043,-708.0793 1418.6953,-706.8853 1468.7244,-696.4731 1516.7334,-656.6539 1522.7865,-651.8724 1535.5906,-640.4386 1539.397,-636.7768 1545.1136,-639.8433 1554.9025,-644.6365 1569.248,-651.3234 1580.396,-655.7239 1643.2113,-679.0255 1699.1191,-668.6898 1720.4325,-664.2383 1722.2705,-663.7681 1723.0807,-663.5417 1735.7111,-669.0605 1753.5148,-675.4082 1822.5251,-698.124 1870.3768,-784.7855 1877.6857,-796.5956 1875.3892,-812.9451 1872.9327,-834.083 1840.0649,-881.7569 1785.905,-917.7639 1744.5642,-913.7209 1744.2355,-913.6968 1736.9913,-913.341 1731.3378,-913.2009 1711.5668,-913.6748 1652.1913,-919.4314 1643.2113,-917.7479 1601.2932,-931.564 1577.7933,-922.3109 1571.4226,-919.9662 1557.9211,-915.6892 1553.3372,-914.4739 1536.4189,-910.4222 1535.7607,-910.2989 "/>
<polyline fill="none" stroke="#000000" points="721.8242,-361.139 716.6935,-364.8051 716.1815,-364.944 640.9809,-386.6549 630.8144,-378.2576 508.5628,-361.6045 492.3889,-359.7242 490.9464,-359.6144 483.3937,-359.3419 473.3961,-355.5278 465.3976,-352.6635 461.6108,-351.4843 459.2235,-350.8504 440.8354,-346.3866 430.3337,-344.325 419.7552,-342.7389 418.2433,-342.5473 410.0242,-341.696 356.7559,-338.6418 318.3403,-326.9764 290.6657,-338.3252 248.4739,-374.2413 201.8085,-384.9544 181.3824,-382.7624 169.0334,-381.7533 159.7536,-381.2342 146.5388,-381.5171 139.975,-381.8268 128.3403,-382.976 117.5009,-384.6051 108.0103,-386.5201 101.6582,-388.1297 85.7964,-392.5599 81.8722,-393.855 78.2418,-395.2408 70.2549,-398.4991 69.7649,-398.7118 67.5777,-398.3297 52.7059,-390.9984 -51.4517,-342.6674 -60.4194,-334.9519 -70.2184,-308.1321 -69.7834,-304.4937 -67.0521,-276.0074 -65.7989,-271.4553 -55.6544,-230.769 -40.6631,-163.1069 .5536,-138.4104 45.8113,-118.2458 50.769,-118.596 53.648,-118.7438 66.3716,-119.6596 144.3578,-87.1851 173.8149,-90.2902 185.1865,-91.2166 200.5411,-91.7291 204.8161,-91.6659 218.8484,-91.1207 226.4566,-90.2769 320.0336,-29.8784 321.4232,-29.6475 321.7854,-29.564 339.5702,-27.338 348.7871,-25.6074 367.408,2.6974 412.0748,64.5278 442.9845,93.5778 476.9337,87.8184 490.4231,85.872 503.5571,84.3142 517.0976,84.0988 527.0911,84.1965 532.2512,84.3793 533.0498,84.428 534.9751,84.321 540.0334,84.1691 542.9608,84.156 560.9724,84.9968 595.8621,87.5144 632.6408,67.7368 683.808,1.3502 699.9512,-18.5903 721.244,-28.2257 796.5871,3.5942 830.0693,-3.2021 853.758,-7.4016 862.579,-8.2716 879.5876,-9.0617 882.2212,-9.115 885.354,-9.0967 901.2286,-8.1733 910.894,-7.1064 925.0032,-4.8112 941.5822,-1.2518 960.9443,-1.2782 1001.6614,-13.3687 1013.0975,-59.1264 1019.9108,-90.2431 1022.1966,-105.0923 1024.1821,-115.713 1028.9779,-137.5144 1020.4919,-159.6702 1017.584,-168.078 1025.3857,-202.9702 1026.5437,-209.2079 1027.8835,-221.3665 1031.2556,-243.9848 1028.9163,-246.1604 1024.9299,-250.1607 1018.1826,-256.464 1016.5705,-257.8566 1015.6631,-258.5226 1002.4348,-269.1836 992.5493,-275.6993 990.2758,-277.0276 985.8008,-279.3196 973.5339,-284.7243 967.066,-286.613 962.7873,-287.5512 960.1304,-287.942 948.6848,-288.8026 946.4094,-288.8082 946.0582,-288.836 941.7209,-288.8647 941.2867,-288.8362 940.5629,-288.844 931.9302,-288.3063 926.0614,-288.8501 921.1168,-288.5854 918.8503,-288.6384 910.5471,-289.4712 905.0897,-290.4353 889.0171,-295.774 875.3946,-303.4449 868.2862,-307.9793 862.7278,-312.3669 837.0363,-334.67 833.0625,-337.4452 745.3444,-346.0448 721.8242,-361.139 "/>
<polyline fill="none" stroke="#000000" points="1582.8263,-338.9611 1592.4189,-335.8157 1596.7163,-334.6283 1608.5448,-331.9604 1620.0457,-329.9529 1639.0909,-327.6023 1682.8782,-323.3302 1707.2859,-311.2021 1740.5157,-260.3553 1754.8303,-249.0578 1796.8063,-183.2582 1798.9764,-171.3753 1800.5234,-164.7705 1794.9103,-139.8897 1788.2316,-126.0592 1769.967,-85.4585 1768.309,-43.6701 1768.8922,-6.2936 1697.8623,62.6238 1653.7955,69.9857 1651.637,70.4939 1636.7213,72.1882 1628.6279,73.4629 1615.1211,82.6898 1529.2002,99.9649 1523.8352,101.1815 1514.0496,103.9071 1507.8761,105.7857 1506.4392,106.2599 1504.9507,105.8019 1494.5225,102.8576 1463.9124,95.7791 1370.5417,48.3472 1344.1881,31.1308 1329.6665,7.6089 1329.7437,7.5232 1337.6813,-1.9959 1341.6022,-6.5324 1374.4261,-43.1413 1387.578,-141.0037 1387.8142,-163.09 1388.774,-167.9038 1391.9585,-191.5986 1443.5118,-233.6548 1443.6382,-233.7657 1446.658,-236.8274 1459.0441,-247.5637 1459.7235,-248.19 1463.6522,-252.0371 1469.7814,-286.6626 1474.5803,-309.7141 1547.448,-353.5495 1555.5557,-349.6498 1556.4567,-349.2395 1567.26,-344.5938 1572.3213,-342.6759 1582.8263,-338.9611 "/>
<polyline fill="none" stroke="#000000" points="1179.4011,45.602 1175.3787,46.982 1158.326,46.205 1147.911,46.4446 1145.5999,46.5505 1133.7257,47.6375 1124.6232,48.6786 1121.7262,49.0758 1110.6155,51.1066 1093.1744,45.027 1001.6614,-13.3687 1013.0975,-59.1264 1019.9108,-90.2431 1022.1966,-105.0923 1024.1821,-115.713 1028.9779,-137.5144 1020.4919,-159.6702 1017.584,-168.078 1025.3857,-202.9702 1026.5437,-209.2079 1027.8835,-221.3665 1031.2556,-243.9848 1037.9664,-248.7737 1109.6707,-292.7169 1102.229,-304.4192 1083.6967,-331.0726 1078.2998,-341.7152 1070.0031,-361.9021 1061.1814,-378.8008 1046.6068,-402.3201 1046.2743,-402.3519 1045.3765,-402.3947 1038.316,-402.3937 1037.5125,-403.4663 1032.4919,-409.5282 1029.8195,-412.4193 1025.5944,-417.6045 1020.2075,-423.4076 1018.33,-425.7828 1017.867,-426.2822 1007.1047,-436.172 1006.9116,-436.3134 1005.726,-436.9932 997.7254,-443.0294 992.6417,-445.7555 978.6226,-450.2837 972.8953,-453.2946 967.613,-457.1261 965.9836,-458.6325 961.9957,-461.4644 957.1174,-465.7151 951.2678,-471.7668 947.9356,-475.7492 945.9608,-478.4471 944.1909,-480.2729 934.614,-491.391 921.046,-510.5527 919.7981,-512.4548 916.7263,-517.5098 934.2872,-577.1786 958.989,-563.4536 989.6422,-543.6008 1002.7263,-535.9171 1012.1026,-531.5947 1021.3112,-528.4913 1029.6694,-526.1954 1030.8771,-525.9398 1037.7856,-524.9029 1041.5095,-524.5747 1049.4158,-524.3669 1050.005,-524.3879 1057.2568,-524.1971 1059.6735,-524.2834 1060.8512,-524.3984 1060.8599,-524.3998 1070.5448,-524.7469 1073.3857,-524.6724 1075.2742,-524.5057 1075.6077,-524.5176 1083.0336,-524.3223 1087.25,-524.4732 1087.9877,-524.4539 1089.2443,-524.3427 1094.0161,-524.2173 1097.292,-524.3345 1098.0352,-524.4075 1101.7111,-524.5391 1105.614,-524.4364 1115.3206,-523.5761 1123.2313,-521.8869 1133.7964,-518.9676 1139.5845,-516.6508 1148.9919,-512.2904 1152.7671,-516.9728 1156.1482,-520.3569 1157.1429,-521.2454 1169.3076,-533.5435 1196.0947,-565.4559 1210.3005,-579.6749 1216.4569,-587.475 1222.9258,-594.0535 1230.6501,-602.6527 1230.916,-603.0004 1232.1829,-604.7994 1229.6106,-617.8596 1223.3705,-640.0046 1208.3966,-686.4735 1221.5701,-714.0342 1222.2463,-715.2758 1310.8374,-709.4227 1312.3301,-709.4833 1321.9045,-709.5309 1326.7118,-709.3833 1327.0256,-709.3961 1339.0857,-709.4561 1341.106,-709.61 1346.6755,-709.4399 1347.3357,-709.4432 1354.8842,-709.7487 1356.1436,-709.7103 1357.9181,-709.5931 1360.647,-709.3151 1361.8041,-709.2386 1363.7274,-709.1799 1367.3257,-709.1978 1374.0184,-709.4694 1374.0668,-709.4731 1382.2457,-709.8051 1386.3895,-709.5307 1387.1857,-709.4495 1400.5856,-709.0387 1410.0043,-708.0793 1418.6953,-706.8853 1468.7244,-696.4731 1516.7334,-656.6539 1522.7865,-651.8724 1535.5906,-640.4386 1539.397,-636.7768 1532.8909,-611.6278 1531.0084,-603.6586 1520.0143,-552.2235 1544.347,-505.6631 1543.4338,-459.1027 1543.7898,-413.4379 1543.8966,-410.4058 1547.448,-353.5495 1474.5803,-309.7141 1469.7814,-286.6626 1463.6522,-252.0371 1459.7235,-248.19 1459.0441,-247.5637 1446.658,-236.8274 1443.6382,-233.7657 1443.5118,-233.6548 1391.9585,-191.5986 1388.774,-167.9038 1387.8142,-163.09 1387.578,-141.0037 1374.4261,-43.1413 1341.6022,-6.5324 1337.6813,-1.9959 1329.7437,7.5232 1329.6665,7.6089 1319.4489,4.6412 1179.4011,45.602 "/>
<polyline fill="none" stroke="#000000" points="992.5493,-275.6993 1002.4348,-269.1836 1015.6631,-258.5226 1016.5705,-257.8566 1018.1826,-256.464 1024.9299,-250.1607 1028.9163,-246.1604 1031.2556,-243.9848 1037.9664,-248.7737 1109.6707,-292.7169 1102.229,-304.4192 1083.6967,-331.0726 1078.2998,-341.7152 1070.0031,-361.9021 1061.1814,-378.8008 1046.6068,-402.3201 1046.2743,-402.3519 1045.3765,-402.3947 1038.316,-402.3937 1037.5125,-403.4663 1032.4919,-409.5282 1029.8195,-412.4193 1025.5944,-417.6045 1020.2075,-423.4076 1018.33,-425.7828 1017.867,-426.2822 1007.1047,-436.172 1006.9116,-436.3134 1005.726,-436.9932 997.7254,-443.0294 992.6417,-445.7555 978.6226,-450.2837 972.8953,-453.2946 967.613,-457.1261 965.9836,-458.6325 961.9957,-461.4644 957.1174,-465.7151 951.2678,-471.7668 947.9356,-475.7492 945.9608,-478.4471 944.1909,-480.2729 934.614,-491.391 921.046,-510.5527 919.7981,-512.4548 916.7263,-517.5098 934.2872,-577.1786 923.0679,-619.1542 904.9279,-681.013 895.7485,-691.6149 893.0854,-698.3973 740.2459,-729.9205 739.1064,-729.3033 713.9404,-717.6487 636.4489,-690.0682 596.6641,-635.2513 596.3747,-611.2571 599.465,-591.38 606.6346,-488.7531 640.4216,-399.8638 640.9809,-386.6549 716.1815,-364.944 716.6935,-364.8051 721.8242,-361.139 745.3444,-346.0448 833.0625,-337.4452 837.0363,-334.67 862.7278,-312.3669 868.2862,-307.9793 875.3946,-303.4449 889.0171,-295.774 905.0897,-290.4353 910.5471,-289.4712 918.8503,-288.6384 921.1168,-288.5854 926.0614,-288.8501 931.9302,-288.3063 940.5629,-288.844 941.2867,-288.8362 941.7209,-288.8647 946.0582,-288.836 946.4094,-288.8082 948.6848,-288.8026 960.1304,-287.942 962.7873,-287.5512 967.066,-286.613 973.5339,-284.7243 985.8008,-279.3196 990.2758,-277.0276 992.5493,-275.6993 "/>
<polyline fill="none" stroke="#000000" points="1115.3206,-523.5761 1123.2313,-521.8869 1133.7964,-518.9676 1139.5845,-516.6508 1148.9919,-512.2904 1152.7671,-516.9728 1156.1482,-520.3569 1157.1429,-521.2454 1169.3076,-533.5435 1196.0947,-565.4559 1210.3005,-579.6749 1216.4569,-587.475 1222.9258,-594.0535 1230.6501,-602.6527 1230.916,-603.0004 1232.1829,-604.7994 1229.6106,-617.8596 1223.3705,-640.0046 1208.3966,-686.4735 1221.5701,-714.0342 1222.2463,-715.2758 1208.3234,-779.3436 1206.4441,-789.4399 1203.5449,-801.3124 1204.0396,-803.1895 1217.6442,-861.18 1235.3632,-916.4711 1140.9431,-977.9423 1115.5917,-980.2305 1097.2882,-977.374 1088.1239,-976.4652 1087.095,-976.3925 1068.507,-976.1313 1053.2417,-976.7857 1008.5074,-979.971 970.42,-959.8317 948.1335,-874.7604 942.1295,-854.1801 934.7236,-832.9884 926.7111,-787.9851 926.7968,-783.0443 909.991,-737.39 893.0854,-698.3973 895.7485,-691.6149 904.9279,-681.013 923.0679,-619.1542 934.2872,-577.1786 958.989,-563.4536 989.6422,-543.6008 1002.7263,-535.9171 1012.1026,-531.5947 1021.3112,-528.4913 1029.6694,-526.1954 1030.8771,-525.9398 1037.7856,-524.9029 1041.5095,-524.5747 1049.4158,-524.3669 1050.005,-524.3879 1057.2568,-524.1971 1059.6735,-524.2834 1060.8512,-524.3984 1060.8599,-524.3998 1070.5448,-524.7469 1073.3857,-524.6724 1075.2742,-524.5057 1075.6077,-524.5176 1083.0336,-524.3223 1087.25,-524.4732 1087.9877,-524.4539 1089.2443,-524.3427 1094.0161,-524.2173 1097.292,-524.3345 1098.0352,-524.4075 1101.7111,-524.5391 1105.614,-524.4364 1115.3206,-523.5761 "/>
<!-- authconfig&#45;&gt;python3&#45;sssdconfig -->
<g id="edge1" class="edge">
<title>authconfig&#45;&gt;python3&#45;sssdconfig</title>
<path fill="none" stroke="#444444" stroke-opacity="0.333333" d="M1483.214,-794C1483.0506,-794 1482.8871,-794 1482.7234,-794"/>
<polygon fill="#444444" fill-opacity="0.333333" stroke="#444444" stroke-opacity="0.333333" points="1485.2867,-790.5001 1475.2867,-794 1485.2866,-797.5001 1485.2867,-790.5001"/>
</g>
<!-- curl&#45;minimal&#45;&gt;libcurl&#45;minimal -->
<g id="edge2" class="edge">
<title>curl&#45;minimal&#45;&gt;libcurl&#45;minimal</title>
<path fill="none" stroke="#444444" stroke-opacity="0.333333" d="M803.3197,-208.1316C815.6182,-212.3681 828.8326,-216.9201 841.498,-221.283"/>
<polygon fill="#444444" fill-opacity="0.333333" stroke="#444444" stroke-opacity="0.333333" points="840.4574,-224.6263 851.0521,-224.5741 842.7373,-218.008 840.4574,-224.6263"/>
</g>
<!-- firewalld&#45;&gt;firewalld&#45;filesystem -->
<g id="edge3" class="edge">
<title>firewalld&#45;&gt;firewalld&#45;filesystem</title>
<path fill="none" stroke="#444444" stroke-opacity="0.333333" d="M177.3948,-230.6858C170.5666,-234.9584 163.1816,-239.5796 156.021,-244.0602"/>
<polygon fill="#444444" fill-opacity="0.333333" stroke="#444444" stroke-opacity="0.333333" points="153.7504,-241.3522 147.1298,-249.6238 157.4636,-247.2862 153.7504,-241.3522"/>
</g>
<!-- firewalld&#45;&gt;python3&#45;firewall -->
<g id="edge4" class="edge">
<title>firewalld&#45;&gt;python3&#45;firewall</title>
<path fill="none" stroke="#444444" stroke-opacity="0.333333" d="M265.603,-196.1596C273.5291,-193.9564 281.7375,-191.6747 289.8819,-189.4108"/>
<polygon fill="#444444" fill-opacity="0.333333" stroke="#444444" stroke-opacity="0.333333" points="291.0642,-192.715 299.7615,-186.6646 289.1894,-185.9707 291.0642,-192.715"/>
</g>
<!-- python3&#45;firewall&#45;&gt;python3&#45;decorator -->
<g id="edge5" class="edge">
<title>python3&#45;firewall&#45;&gt;python3&#45;decorator</title>
<path fill="none" stroke="#444444" stroke-opacity="0.333333" d="M399.604,-186.7676C403.6156,-188.8421 407.7429,-190.9765 411.8524,-193.1018"/>
<polygon fill="#444444" fill-opacity="0.333333" stroke="#444444" stroke-opacity="0.333333" points="410.2786,-196.2282 420.7689,-197.7129 413.4941,-190.0104 410.2786,-196.2282"/>
</g>
<!-- python3&#45;firewall&#45;&gt;python3&#45;slip&#45;dbus -->
<g id="edge6" class="edge">
<title>python3&#45;firewall&#45;&gt;python3&#45;slip&#45;dbus</title>
<path fill="none" stroke="#444444" stroke-opacity="0.333333" d="M461.7106,-157.9369C461.8682,-157.9195 462.0258,-157.9021 462.1834,-157.8848"/>
<polygon fill="#444444" fill-opacity="0.333333" stroke="#444444" stroke-opacity="0.333333" points="459.7272,-161.677 469.2832,-157.1018 458.9597,-154.7192 459.7272,-161.677"/>
</g>
<!-- python3&#45;slip&#45;dbus&#45;&gt;curl&#45;minimal -->
<g id="edge7" class="edge">
<title>python3&#45;slip&#45;dbus&#45;&gt;curl&#45;minimal</title>
<path fill="none" stroke="#444444" stroke-opacity="0.333333" d="M644.7341,-163.8697C652.3563,-165.7504 660.143,-167.6717 667.8632,-169.5765"/>
<polygon fill="#444444" fill-opacity="0.333333" stroke="#444444" stroke-opacity="0.333333" points="667.042,-172.9788 677.5893,-171.9763 668.7189,-166.1826 667.042,-172.9788"/>
</g>
<!-- python3&#45;slip&#45;dbus&#45;&gt;python3&#45;decorator -->
<g id="edge8" class="edge">
<title>python3&#45;slip&#45;dbus&#45;&gt;python3&#45;decorator</title>
<path fill="none" stroke="#444444" stroke-opacity="0.333333" d="M541.7792,-163.857C527.4483,-172.5309 510.0873,-183.0387 494.7326,-192.3322"/>
<polygon fill="#444444" fill-opacity="0.333333" stroke="#444444" stroke-opacity="0.333333" points="492.7047,-189.4684 485.962,-197.6407 496.3293,-195.4569 492.7047,-189.4684"/>
</g>
<!-- python3&#45;slip&#45;dbus&#45;&gt;python3&#45;slip -->
<g id="edge9" class="edge">
<title>python3&#45;slip&#45;dbus&#45;&gt;python3&#45;slip</title>
<path fill="none" stroke="#444444" stroke-opacity="0.333333" d="M563.5222,-127.7516C555.1698,-109.0225 542.0075,-79.5081 532.3449,-57.8411"/>
<polygon fill="#444444" fill-opacity="0.333333" stroke="#444444" stroke-opacity="0.333333" points="535.451,-56.2126 528.1814,-48.5052 529.0579,-59.0637 535.451,-56.2126"/>
</g>
<!-- libmbim&#45;&gt;libgudev -->
<g id="edge10" class="edge">
<title>libmbim&#45;&gt;libgudev</title>
<path fill="none" stroke="#444444" stroke-opacity="0.333333" d="M1614.571,-124.1989C1616.8577,-126.2141 1619.216,-128.2924 1621.5787,-130.3747"/>
<polygon fill="#444444" fill-opacity="0.333333" stroke="#444444" stroke-opacity="0.333333" points="1619.715,-133.3974 1629.5315,-137.3833 1624.3432,-128.1457 1619.715,-133.3974"/>
</g>
<!-- libmbim&#45;utils&#45;&gt;libmbim -->
<g id="edge11" class="edge">
<title>libmbim&#45;utils&#45;&gt;libmbim</title>
<path fill="none" stroke="#444444" stroke-opacity="0.333333" d="M1592.1732,-195.0186C1592.5145,-178.3983 1593.0249,-153.5491 1593.4195,-134.3364"/>
<polygon fill="#444444" fill-opacity="0.333333" stroke="#444444" stroke-opacity="0.333333" points="1596.9188,-134.4004 1593.625,-124.3306 1589.9203,-134.2566 1596.9188,-134.4004"/>
</g>
<!-- libmbim&#45;utils&#45;&gt;libgudev -->
<g id="edge12" class="edge">
<title>libmbim&#45;utils&#45;&gt;libgudev</title>
<path fill="none" stroke="#444444" stroke-opacity="0.333333" d="M1610.2465,-194.9397C1614.7125,-190.5212 1619.5677,-185.7176 1624.3034,-181.0323"/>
<polygon fill="#444444" fill-opacity="0.333333" stroke="#444444" stroke-opacity="0.333333" points="1626.9262,-183.3608 1631.5734,-173.8396 1622.003,-178.3847 1626.9262,-183.3608"/>
</g>
<!-- libqmi&#45;&gt;libmbim -->
<g id="edge13" class="edge">
<title>libqmi&#45;&gt;libmbim</title>
<path fill="none" stroke="#444444" stroke-opacity="0.333333" d="M1528.6733,-36.2482C1540.6055,-49.0014 1556.7064,-66.2103 1569.9377,-80.352"/>
<polygon fill="#444444" fill-opacity="0.333333" stroke="#444444" stroke-opacity="0.333333" points="1567.5606,-82.9342 1576.9485,-87.8452 1572.6722,-78.1517 1567.5606,-82.9342"/>
</g>
<!-- libqmi&#45;utils&#45;&gt;libmbim -->
<g id="edge14" class="edge">
<title>libqmi&#45;utils&#45;&gt;libmbim</title>
<path fill="none" stroke="#444444" stroke-opacity="0.333333" d="M1610.0384,-80.2035C1609.9393,-80.3634 1609.84,-80.5235 1609.7405,-80.684"/>
<polygon fill="#444444" fill-opacity="0.333333" stroke="#444444" stroke-opacity="0.333333" points="1607.5308,-77.606 1605.2357,-87.9493 1613.48,-81.2948 1607.5308,-77.606"/>
</g>
<!-- libqmi&#45;utils&#45;&gt;libgudev -->
<g id="edge15" class="edge">
<title>libqmi&#45;utils&#45;&gt;libgudev</title>
<path fill="none" stroke="#444444" stroke-opacity="0.333333" d="M1626.8529,-80.0628C1631.0096,-93.5529 1636.7719,-112.2543 1641.5196,-127.6626"/>
<polygon fill="#444444" fill-opacity="0.333333" stroke="#444444" stroke-opacity="0.333333" points="1638.1763,-128.6986 1644.4659,-137.2246 1644.866,-126.6374 1638.1763,-128.6986"/>
</g>
<!-- libqmi&#45;utils&#45;&gt;libqmi -->
<g id="edge16" class="edge">
<title>libqmi&#45;utils&#45;&gt;libqmi</title>
<path fill="none" stroke="#444444" stroke-opacity="0.333333" d="M1576.3643,-44.0008C1572.3703,-42.3973 1568.3038,-40.7647 1564.2532,-39.1386"/>
<polygon fill="#444444" fill-opacity="0.333333" stroke="#444444" stroke-opacity="0.333333" points="1565.4567,-35.8503 1554.8727,-35.3726 1562.8487,-42.3463 1565.4567,-35.8503"/>
</g>
<!-- ModemManager&#45;&gt;libmbim -->
<g id="edge17" class="edge">
<title>ModemManager&#45;&gt;libmbim</title>
<path fill="none" stroke="#444444" stroke-opacity="0.333333" d="M1523.5091,-132.0466C1527.6389,-130.5247 1531.8399,-128.9766 1536.0296,-127.4326"/>
<polygon fill="#444444" fill-opacity="0.333333" stroke="#444444" stroke-opacity="0.333333" points="1537.5731,-130.594 1545.746,-123.852 1535.1526,-124.0258 1537.5731,-130.594"/>
</g>
<!-- ModemManager&#45;&gt;libgudev -->
<g id="edge18" class="edge">
<title>ModemManager&#45;&gt;libgudev</title>
<path fill="none" stroke="#444444" stroke-opacity="0.333333" d="M1550.3012,-152.4165C1562.2121,-152.7857 1574.425,-153.1643 1586.0394,-153.5243"/>
<polygon fill="#444444" fill-opacity="0.333333" stroke="#444444" stroke-opacity="0.333333" points="1585.9656,-157.0236 1596.0692,-153.8352 1586.1825,-150.027 1585.9656,-157.0236"/>
</g>
<!-- ModemManager&#45;&gt;libmbim&#45;utils -->
<g id="edge19" class="edge">
<title>ModemManager&#45;&gt;libmbim&#45;utils</title>
<path fill="none" stroke="#444444" stroke-opacity="0.333333" d="M1508.1848,-168.1577C1520.9352,-175.0246 1535.6307,-182.9391 1549.1109,-190.1991"/>
<polygon fill="#444444" fill-opacity="0.333333" stroke="#444444" stroke-opacity="0.333333" points="1547.7463,-193.4395 1558.2103,-195.0997 1551.0656,-187.2764 1547.7463,-193.4395"/>
</g>
<!-- ModemManager&#45;&gt;libqmi -->
<g id="edge20" class="edge">
<title>ModemManager&#45;&gt;libqmi</title>
<path fill="none" stroke="#444444" stroke-opacity="0.333333" d="M1479.6671,-131.9832C1485.8873,-109.7805 1496.5031,-71.8877 1503.7745,-45.9326"/>
<polygon fill="#444444" fill-opacity="0.333333" stroke="#444444" stroke-opacity="0.333333" points="1507.1478,-46.8657 1506.4754,-36.2922 1500.4074,-44.9773 1507.1478,-46.8657"/>
</g>
<!-- ModemManager&#45;&gt;libqmi&#45;utils -->
<g id="edge21" class="edge">
<title>ModemManager&#45;&gt;libqmi&#45;utils</title>
<path fill="none" stroke="#444444" stroke-opacity="0.333333" d="M1504.6409,-132.0436C1527.1876,-118.5142 1558.2399,-99.8809 1582.6391,-85.2399"/>
<polygon fill="#444444" fill-opacity="0.333333" stroke="#444444" stroke-opacity="0.333333" points="1584.5254,-88.1898 1591.2992,-80.0433 1580.9236,-82.1875 1584.5254,-88.1898"/>
</g>
<!-- ModemManager&#45;&gt;ModemManager&#45;glib -->
<g id="edge22" class="edge">
<title>ModemManager&#45;&gt;ModemManager&#45;glib</title>
<path fill="none" stroke="#444444" stroke-opacity="0.333333" d="M1398.8417,-155.3845C1398.6851,-155.3955 1398.5284,-155.4065 1398.3716,-155.4175"/>
<polygon fill="#444444" fill-opacity="0.333333" stroke="#444444" stroke-opacity="0.333333" points="1401.0107,-151.7236 1391.2802,-155.915 1401.5006,-158.7065 1401.0107,-151.7236"/>
</g>
<!-- NetworkManager&#45;adsl&#45;&gt;NetworkManager -->
<g id="edge23" class="edge">
<title>NetworkManager&#45;adsl&#45;&gt;NetworkManager</title>
<path fill="none" stroke="#444444" stroke-opacity="0.333333" d="M1065.9753,-452.1446C1081.2695,-438.2278 1102.5749,-418.8412 1119.4577,-403.4789"/>
<polygon fill="#444444" fill-opacity="0.333333" stroke="#444444" stroke-opacity="0.333333" points="1121.8252,-406.0567 1126.866,-396.7378 1117.1141,-400.8793 1121.8252,-406.0567"/>
</g>
<!-- NetworkManager&#45;&gt;libcurl&#45;minimal -->
<g id="edge24" class="edge">
<title>NetworkManager&#45;&gt;libcurl&#45;minimal</title>
<path fill="none" stroke="#444444" stroke-opacity="0.333333" d="M1114.393,-360.6196C1070.6778,-336.1683 992.6568,-292.5286 944.7258,-265.7193"/>
<polygon fill="#444444" fill-opacity="0.333333" stroke="#444444" stroke-opacity="0.333333" points="946.2868,-262.5821 935.8507,-260.7551 942.8696,-268.6914 946.2868,-262.5821"/>
</g>
<!-- NetworkManager&#45;&gt;libndp -->
<g id="edge25" class="edge">
<title>NetworkManager&#45;&gt;libndp</title>
<path fill="none" stroke="#444444" stroke-opacity="0.333333" d="M1163.5292,-396.752C1170.287,-404.0048 1178.2018,-412.4993 1185.541,-420.3761"/>
<polygon fill="#444444" fill-opacity="0.333333" stroke="#444444" stroke-opacity="0.333333" points="1183.2466,-423.0478 1192.6243,-427.9782 1188.368,-418.2759 1183.2466,-423.0478"/>
</g>
<!-- NetworkManager&#45;&gt;libpsl -->
<g id="edge26" class="edge">
<title>NetworkManager&#45;&gt;libpsl</title>
<path fill="none" stroke="#444444" stroke-opacity="0.333333" d="M1232.7604,-388.2336C1237.4441,-388.7529 1242.0802,-389.2671 1246.5974,-389.768"/>
<polygon fill="#444444" fill-opacity="0.333333" stroke="#444444" stroke-opacity="0.333333" points="1246.563,-393.2855 1256.8878,-390.9091 1247.3346,-386.3282 1246.563,-393.2855"/>
</g>
<!-- NetworkManager&#45;&gt;NetworkManager&#45;libnm -->
<g id="edge27" class="edge">
<title>NetworkManager&#45;&gt;NetworkManager&#45;libnm</title>
<path fill="none" stroke="#444444" stroke-opacity="0.333333" d="M1078.9687,-360.6584C1072.3174,-358.8876 1065.5325,-357.0813 1058.7941,-355.2874"/>
<polygon fill="#444444" fill-opacity="0.333333" stroke="#444444" stroke-opacity="0.333333" points="1059.5398,-351.8641 1048.9759,-352.6736 1057.7389,-358.6285 1059.5398,-351.8641"/>
</g>
<!-- NetworkManager&#45;bluetooth&#45;&gt;ModemManager&#45;glib -->
<g id="edge28" class="edge">
<title>NetworkManager&#45;bluetooth&#45;&gt;ModemManager&#45;glib</title>
<path fill="none" stroke="#444444" stroke-opacity="0.333333" d="M1223.173,-189.0843C1226.6875,-187.6964 1230.2573,-186.2868 1233.8239,-184.8784"/>
<polygon fill="#444444" fill-opacity="0.333333" stroke="#444444" stroke-opacity="0.333333" points="1235.202,-188.0973 1243.2176,-181.1689 1232.631,-181.5865 1235.202,-188.0973"/>
</g>
<!-- NetworkManager&#45;bluetooth&#45;&gt;NetworkManager -->
<g id="edge29" class="edge">
<title>NetworkManager&#45;bluetooth&#45;&gt;NetworkManager</title>
<path fill="none" stroke="#444444" stroke-opacity="0.333333" d="M1174.2621,-225.1567C1168.9013,-255.0189 1158.1421,-314.9525 1151.7675,-350.4618"/>
<polygon fill="#444444" fill-opacity="0.333333" stroke="#444444" stroke-opacity="0.333333" points="1148.2628,-350.1764 1149.9408,-360.6375 1155.1527,-351.4133 1148.2628,-350.1764"/>
</g>
<!-- NetworkManager&#45;bluetooth&#45;&gt;bluez&#45;libs -->
<g id="edge30" class="edge">
<title>NetworkManager&#45;bluetooth&#45;&gt;bluez&#45;libs</title>
<path fill="none" stroke="#444444" stroke-opacity="0.333333" d="M1173.259,-188.9363C1168.3355,-167.8258 1160.1587,-132.7668 1154.4245,-108.1805"/>
<polygon fill="#444444" fill-opacity="0.333333" stroke="#444444" stroke-opacity="0.333333" points="1157.813,-107.2996 1152.1331,-98.356 1150.996,-108.8896 1157.813,-107.2996"/>
</g>
<!-- NetworkManager&#45;bluetooth&#45;&gt;NetworkManager&#45;wwan -->
<g id="edge31" class="edge">
<title>NetworkManager&#45;bluetooth&#45;&gt;NetworkManager&#45;wwan</title>
<path fill="none" stroke="#444444" stroke-opacity="0.333333" d="M1232.963,-225.1598C1237.733,-226.7113 1242.5867,-228.29 1247.4253,-229.8638"/>
<polygon fill="#444444" fill-opacity="0.333333" stroke="#444444" stroke-opacity="0.333333" points="1246.7119,-233.3122 1257.3041,-233.077 1248.8771,-226.6554 1246.7119,-233.3122"/>
</g>
<!-- NetworkManager&#45;wwan&#45;&gt;ModemManager -->
<g id="edge32" class="edge">
<title>NetworkManager&#45;wwan&#45;&gt;ModemManager</title>
<path fill="none" stroke="#444444" stroke-opacity="0.333333" d="M1341.8087,-233.0871C1368.3996,-216.4633 1407.9897,-191.7128 1437.0238,-173.5615"/>
<polygon fill="#444444" fill-opacity="0.333333" stroke="#444444" stroke-opacity="0.333333" points="1439.0454,-176.4254 1445.6694,-168.1565 1435.3347,-170.4898 1439.0454,-176.4254"/>
</g>
<!-- NetworkManager&#45;wwan&#45;&gt;ModemManager&#45;glib -->
<g id="edge33" class="edge">
<title>NetworkManager&#45;wwan&#45;&gt;ModemManager&#45;glib</title>
<path fill="none" stroke="#444444" stroke-opacity="0.333333" d="M1307.9479,-232.9118C1304.6793,-220.8671 1300.3321,-204.8481 1296.6262,-191.1921"/>
<polygon fill="#444444" fill-opacity="0.333333" stroke="#444444" stroke-opacity="0.333333" points="1299.9427,-190.049 1293.9458,-181.3148 1293.187,-191.8824 1299.9427,-190.049"/>
</g>
<!-- NetworkManager&#45;wwan&#45;&gt;NetworkManager -->
<g id="edge34" class="edge">
<title>NetworkManager&#45;wwan&#45;&gt;NetworkManager</title>
<path fill="none" stroke="#444444" stroke-opacity="0.333333" d="M1289.4401,-269.1615C1260.4451,-291.4101 1210.9761,-329.3691 1178.5631,-354.2405"/>
<polygon fill="#444444" fill-opacity="0.333333" stroke="#444444" stroke-opacity="0.333333" points="1176.1119,-351.7097 1170.3091,-360.5741 1180.3733,-357.2632 1176.1119,-351.7097"/>
</g>
<!-- NetworkManager&#45;team&#45;&gt;NetworkManager -->
<g id="edge35" class="edge">
<title>NetworkManager&#45;team&#45;&gt;NetworkManager</title>
<path fill="none" stroke="#444444" stroke-opacity="0.333333" d="M1108.5013,-560.6068C1115.8387,-525.6632 1132.0013,-448.6908 1140.7668,-406.9461"/>
<polygon fill="#444444" fill-opacity="0.333333" stroke="#444444" stroke-opacity="0.333333" points="1144.2473,-407.4023 1142.877,-396.8964 1137.3967,-405.9637 1144.2473,-407.4023"/>
</g>
<!-- NetworkManager&#45;team&#45;&gt;teamd -->
<g id="edge36" class="edge">
<title>NetworkManager&#45;team&#45;&gt;teamd</title>
<path fill="none" stroke="#444444" stroke-opacity="0.333333" d="M1102.8187,-596.9126C1099.9916,-624.2665 1094.622,-676.2209 1091.2647,-708.7047"/>
<polygon fill="#444444" fill-opacity="0.333333" stroke="#444444" stroke-opacity="0.333333" points="1087.7565,-708.604 1090.2099,-718.9109 1094.7195,-709.3237 1087.7565,-708.604"/>
</g>
<!-- teamd&#45;&gt;libteam -->
<g id="edge37" class="edge">
<title>teamd&#45;&gt;libteam</title>
<path fill="none" stroke="#444444" stroke-opacity="0.333333" d="M1087.224,-755.3901C1086.0073,-775.7428 1084.0108,-809.1415 1082.5866,-832.9665"/>
<polygon fill="#444444" fill-opacity="0.333333" stroke="#444444" stroke-opacity="0.333333" points="1079.0804,-832.9671 1081.9773,-843.1581 1086.0679,-833.3849 1079.0804,-832.9671"/>
</g>
<!-- NetworkManager&#45;tui&#45;&gt;NetworkManager -->
<g id="edge38" class="edge">
<title>NetworkManager&#45;tui&#45;&gt;NetworkManager</title>
<path fill="none" stroke="#444444" stroke-opacity="0.333333" d="M1011.4505,-407.8004C1025.0519,-404.8729 1039.2159,-401.8243 1053.0363,-398.8497"/>
<polygon fill="#444444" fill-opacity="0.333333" stroke="#444444" stroke-opacity="0.333333" points="1053.9863,-402.2255 1063.026,-396.6996 1052.5134,-395.3822 1053.9863,-402.2255"/>
</g>
<!-- NetworkManager&#45;tui&#45;&gt;NetworkManager&#45;libnm -->
<g id="edge39" class="edge">
<title>NetworkManager&#45;tui&#45;&gt;NetworkManager&#45;libnm</title>
<path fill="none" stroke="#444444" stroke-opacity="0.333333" d="M938.3236,-407.8117C946.0577,-394.6643 956.6758,-376.6143 965.4286,-361.7353"/>
<polygon fill="#444444" fill-opacity="0.333333" stroke="#444444" stroke-opacity="0.333333" points="968.5412,-363.3468 970.5949,-352.9529 962.5077,-359.7975 968.5412,-363.3468"/>
</g>
<!-- NetworkManager&#45;tui&#45;&gt;newt -->
<g id="edge40" class="edge">
<title>NetworkManager&#45;tui&#45;&gt;newt</title>
<path fill="none" stroke="#444444" stroke-opacity="0.333333" d="M905.8382,-443.8445C889.3879,-457.3889 866.657,-476.1043 848.4743,-491.0749"/>
<polygon fill="#444444" fill-opacity="0.333333" stroke="#444444" stroke-opacity="0.333333" points="845.9744,-488.5995 840.4791,-497.6577 850.4238,-494.0035 845.9744,-488.5995"/>
</g>
<!-- newt&#45;&gt;slang -->
<g id="edge41" class="edge">
<title>newt&#45;&gt;slang</title>
<path fill="none" stroke="#444444" stroke-opacity="0.333333" d="M795.5751,-534.2171C783.3791,-544.0369 768.1732,-556.2802 754.9662,-566.914"/>
<polygon fill="#444444" fill-opacity="0.333333" stroke="#444444" stroke-opacity="0.333333" points="752.6401,-564.2934 747.0461,-573.2911 757.0301,-569.7457 752.6401,-564.2934"/>
</g>
<!-- NetworkManager&#45;wifi&#45;&gt;NetworkManager -->
<g id="edge42" class="edge">
<title>NetworkManager&#45;wifi&#45;&gt;NetworkManager</title>
<path fill="none" stroke="#444444" stroke-opacity="0.333333" d="M1247.9212,-504.33C1227.6303,-479.1441 1190.8952,-433.5469 1167.703,-404.7598"/>
<polygon fill="#444444" fill-opacity="0.333333" stroke="#444444" stroke-opacity="0.333333" points="1170.2589,-402.3534 1161.2596,-396.762 1164.8079,-406.7451 1170.2589,-402.3534"/>
</g>
<!-- NetworkManager&#45;wifi&#45;&gt;wpa_supplicant -->
<g id="edge43" class="edge">
<title>NetworkManager&#45;wifi&#45;&gt;wpa_supplicant</title>
<path fill="none" stroke="#444444" stroke-opacity="0.333333" d="M1277.7784,-540.8678C1291.1794,-557.0406 1310.8687,-580.8022 1325.909,-598.9533"/>
<polygon fill="#444444" fill-opacity="0.333333" stroke="#444444" stroke-opacity="0.333333" points="1323.3775,-601.3839 1332.453,-606.8508 1328.7676,-596.9176 1323.3775,-601.3839"/>
</g>
<!-- psl&#45;&gt;libpsl -->
<g id="edge44" class="edge">
<title>psl&#45;&gt;libpsl</title>
<path fill="none" stroke="#444444" stroke-opacity="0.333333" d="M1392.6155,-420.421C1380.8386,-417.2762 1366.6277,-413.4815 1352.9123,-409.8191"/>
<polygon fill="#444444" fill-opacity="0.333333" stroke="#444444" stroke-opacity="0.333333" points="1353.6193,-406.3853 1343.0549,-407.1869 1351.8134,-413.1484 1353.6193,-406.3853"/>
</g>
<!-- realmd&#45;&gt;authconfig -->
<g id="edge45" class="edge">
<title>realmd&#45;&gt;authconfig</title>
<path fill="none" stroke="#444444" stroke-opacity="0.333333" d="M1684.7616,-794C1666.16,-794 1643.8533,-794 1622.6956,-794"/>
<polygon fill="#444444" fill-opacity="0.333333" stroke="#444444" stroke-opacity="0.333333" points="1622.4228,-790.5001 1612.4227,-794 1622.4227,-797.5001 1622.4228,-790.5001"/>
</g>
<!-- xmlrpc&#45;c&#45;client&#45;&gt;libcurl&#45;minimal -->
<g id="edge46" class="edge">
<title>xmlrpc&#45;c&#45;client&#45;&gt;libcurl&#45;minimal</title>
<path fill="none" stroke="#444444" stroke-opacity="0.333333" d="M885.9528,-145.1231C889.2736,-163.6677 894.4896,-192.7952 898.3561,-214.3873"/>
<polygon fill="#444444" fill-opacity="0.333333" stroke="#444444" stroke-opacity="0.333333" points="894.9236,-215.0759 900.1316,-224.3023 901.814,-213.842 894.9236,-215.0759"/>
</g>
<!-- authconfig -->
<g id="node1" class="node">
<title>authconfig</title>
<text text-anchor="middle" x="1547.8" y="-790.3" font-family="monospace" font-size="14.00" fill="#000000">authconfig</text>
</g>
<!-- python3&#45;sssdconfig -->
<g id="node2" class="node">
<title>python3&#45;sssdconfig</title>
<text text-anchor="middle" x="1368.2" y="-790.3" font-family="monospace" font-size="14.00" fill="#000000">python3&#45;sssdconfig</text>
</g>
<!-- curl&#45;minimal -->
<g id="node3" class="node">
<title>curl&#45;minimal</title>
<text text-anchor="middle" x="750.8" y="-186.34" font-family="monospace" font-size="14.00" fill="#000000">curl&#45;minimal</text>
</g>
<!-- libcurl&#45;minimal -->
<g id="node4" class="node">
<title>libcurl&#45;minimal</title>
<text text-anchor="middle" x="903.41" y="-238.91" font-family="monospace" font-size="14.00" fill="#000000">libcurl&#45;minimal</text>
</g>
<!-- firewalld -->
<g id="node5" class="node">
<title>firewalld</title>
<text text-anchor="middle" x="206.17" y="-208.98" font-family="monospace" font-size="14.00" fill="#000000">firewalld</text>
</g>
<!-- firewalld&#45;filesystem -->
<g id="node6" class="node">
<title>firewalld&#45;filesystem</title>
<text text-anchor="middle" x="118.29" y="-263.97" font-family="monospace" font-size="14.00" fill="#000000">firewalld&#45;filesystem</text>
</g>
<!-- python3&#45;firewall -->
<g id="node7" class="node">
<title>python3&#45;firewall</title>
<text text-anchor="middle" x="364.57" y="-164.95" font-family="monospace" font-size="14.00" fill="#000000">python3&#45;firewall</text>
</g>
<!-- python3&#45;decorator -->
<g id="node8" class="node">
<title>python3&#45;decorator</title>
<text text-anchor="middle" x="455.86" y="-212.16" font-family="monospace" font-size="14.00" fill="#000000">python3&#45;decorator</text>
</g>
<!-- python3&#45;slip&#45;dbus -->
<g id="node9" class="node">
<title>python3&#45;slip&#45;dbus</title>
<text text-anchor="middle" x="571.58" y="-142.12" font-family="monospace" font-size="14.00" fill="#000000">python3&#45;slip&#45;dbus</text>
</g>
<!-- python3&#45;slip -->
<g id="node10" class="node">
<title>python3&#45;slip</title>
<text text-anchor="middle" x="520.01" y="-26.482" font-family="monospace" font-size="14.00" fill="#000000">python3&#45;slip</text>
</g>
<!-- libmbim -->
<g id="node11" class="node">
<title>libmbim</title>
<text text-anchor="middle" x="1594" y="-102.37" font-family="monospace" font-size="14.00" fill="#000000">libmbim</text>
</g>
<!-- libgudev -->
<g id="node12" class="node">
<title>libgudev</title>
<text text-anchor="middle" x="1650.1" y="-151.81" font-family="monospace" font-size="14.00" fill="#000000">libgudev</text>
</g>
<!-- libmbim&#45;utils -->
<g id="node13" class="node">
<title>libmbim&#45;utils</title>
<text text-anchor="middle" x="1591.8" y="-209.49" font-family="monospace" font-size="14.00" fill="#000000">libmbim&#45;utils</text>
</g>
<!-- libqmi -->
<g id="node14" class="node">
<title>libqmi</title>
<text text-anchor="middle" x="1511.6" y="-14.3" font-family="monospace" font-size="14.00" fill="#000000">libqmi</text>
</g>
<!-- libqmi&#45;utils -->
<g id="node15" class="node">
<title>libqmi&#45;utils</title>
<text text-anchor="middle" x="1621.3" y="-58.341" font-family="monospace" font-size="14.00" fill="#000000">libqmi&#45;utils</text>
</g>
<!-- ModemManager -->
<g id="node16" class="node">
<title>ModemManager</title>
<text text-anchor="middle" x="1474.6" y="-146.37" font-family="monospace" font-size="14.00" fill="#000000">ModemManager</text>
</g>
<!-- ModemManager&#45;glib -->
<g id="node17" class="node">
<title>ModemManager&#45;glib</title>
<text text-anchor="middle" x="1289" y="-159.39" font-family="monospace" font-size="14.00" fill="#000000">ModemManager&#45;glib</text>
</g>
<!-- NetworkManager&#45;adsl -->
<g id="node18" class="node">
<title>NetworkManager&#45;adsl</title>
<text text-anchor="middle" x="1046.1" y="-466.53" font-family="monospace" font-size="14.00" fill="#000000">NetworkManager&#45;adsl</text>
</g>
<!-- NetworkManager -->
<g id="node19" class="node">
<title>NetworkManager</title>
<text text-anchor="middle" x="1146.7" y="-374.99" font-family="monospace" font-size="14.00" fill="#000000">NetworkManager</text>
</g>
<!-- libndp -->
<g id="node20" class="node">
<title>libndp</title>
<text text-anchor="middle" x="1209.5" y="-442.39" font-family="monospace" font-size="14.00" fill="#000000">libndp</text>
</g>
<!-- libpsl -->
<g id="node21" class="node">
<title>libpsl</title>
<text text-anchor="middle" x="1300" y="-391.99" font-family="monospace" font-size="14.00" fill="#000000">libpsl</text>
</g>
<!-- NetworkManager&#45;libnm -->
<g id="node22" class="node">
<title>NetworkManager&#45;libnm</title>
<text text-anchor="middle" x="981.35" y="-330.97" font-family="monospace" font-size="14.00" fill="#000000">NetworkManager&#45;libnm</text>
</g>
<!-- NetworkManager&#45;bluetooth -->
<g id="node23" class="node">
<title>NetworkManager&#45;bluetooth</title>
<text text-anchor="middle" x="1177.5" y="-203.42" font-family="monospace" font-size="14.00" fill="#000000">NetworkManager&#45;bluetooth</text>
</g>
<!-- bluez&#45;libs -->
<g id="node24" class="node">
<title>bluez&#45;libs</title>
<text text-anchor="middle" x="1147.9" y="-76.506" font-family="monospace" font-size="14.00" fill="#000000">bluez&#45;libs</text>
</g>
<!-- NetworkManager&#45;wwan -->
<g id="node25" class="node">
<title>NetworkManager&#45;wwan</title>
<text text-anchor="middle" x="1312.9" y="-247.46" font-family="monospace" font-size="14.00" fill="#000000">NetworkManager&#45;wwan</text>
</g>
<!-- NetworkManager&#45;team -->
<g id="node26" class="node">
<title>NetworkManager&#45;team</title>
<text text-anchor="middle" x="1104.7" y="-575.01" font-family="monospace" font-size="14.00" fill="#000000">NetworkManager&#45;team</text>
</g>
<!-- teamd -->
<g id="node27" class="node">
<title>teamd</title>
<text text-anchor="middle" x="1088.3" y="-733.69" font-family="monospace" font-size="14.00" fill="#000000">teamd</text>
</g>
<!-- libteam -->
<g id="node28" class="node">
<title>libteam</title>
<text text-anchor="middle" x="1080.9" y="-857.48" font-family="monospace" font-size="14.00" fill="#000000">libteam</text>
</g>
<!-- NetworkManager&#45;tui -->
<g id="node29" class="node">
<title>NetworkManager&#45;tui</title>
<text text-anchor="middle" x="927.73" y="-422.12" font-family="monospace" font-size="14.00" fill="#000000">NetworkManager&#45;tui</text>
</g>
<!-- newt -->
<g id="node30" class="node">
<title>newt</title>
<text text-anchor="middle" x="818.25" y="-512.26" font-family="monospace" font-size="14.00" fill="#000000">newt</text>
</g>
<!-- slang -->
<g id="node31" class="node">
<title>slang</title>
<text text-anchor="middle" x="724.58" y="-587.68" font-family="monospace" font-size="14.00" fill="#000000">slang</text>
</g>
<!-- NetworkManager&#45;wifi -->
<g id="node32" class="node">
<title>NetworkManager&#45;wifi</title>
<text text-anchor="middle" x="1262.6" y="-518.85" font-family="monospace" font-size="14.00" fill="#000000">NetworkManager&#45;wifi</text>
</g>
<!-- wpa_supplicant -->
<g id="node33" class="node">
<title>wpa_supplicant</title>
<text text-anchor="middle" x="1347.5" y="-621.31" font-family="monospace" font-size="14.00" fill="#000000">wpa_supplicant</text>
</g>
<!-- psl -->
<g id="node34" class="node">
<title>psl</title>
<text text-anchor="middle" x="1419.8" y="-423.98" font-family="monospace" font-size="14.00" fill="#000000">psl</text>
</g>
<!-- realmd -->
<g id="node35" class="node">
<title>realmd</title>
<text text-anchor="middle" x="1727.9" y="-790.3" font-family="monospace" font-size="14.00" fill="#000000">realmd</text>
</g>
<!-- xmlrpc&#45;c&#45;client -->
<g id="node36" class="node">
<title>xmlrpc&#45;c&#45;client</title>
<text text-anchor="middle" x="882.72" y="-123.37" font-family="monospace" font-size="14.00" fill="#000000">xmlrpc&#45;c&#45;client</text>
</g>
</g>
</svg>
