<?xml version="1.0" encoding="UTF-8" standalone="no"?>
<!DOCTYPE svg PUBLIC "-//W3C//DTD SVG 1.1//EN"
 "http://www.w3.org/Graphics/SVG/1.1/DTD/svg11.dtd">
<!-- Generated by graphviz version 2.40.1 (20161225.0304)
 -->
<!-- Title: G Pages: 1 -->
<svg width="2596pt" height="1318pt"
 viewBox="0.00 0.00 2596.09 1317.83" xmlns="http://www.w3.org/2000/svg" xmlns:xlink="http://www.w3.org/1999/xlink">
<g id="graph0" class="graph" transform="scale(1 1) rotate(0) translate(88.3102 1165.0662)">
<title>G</title>
<polygon fill="#dae2ff" stroke="transparent" points="-88.3102,152.7655 -88.3102,-1165.0662 2507.7786,-1165.0662 2507.7786,152.7655 -88.3102,152.7655"/>
<polygon fill="#cbc5d1" stroke="#cbc5d1" points="1154.986,-1161.0662 1148.4595,-1160.7402 1146.5413,-1160.681 1140.356,-1157.826 1130.9694,-1153.9291 1118.0636,-1149.1677 1119.1102,-1074.5313 1116.8843,-1010.7078 1117.34,-1010.568 1116.4495,-958.5051 1116.9919,-946.5366 1119.1563,-947.5804 1131.1543,-952.6479 1132.7719,-953.2287 1138.061,-954.8032 1140.8326,-955.4579 1152.4259,-957.4905 1158.2086,-957.7875 1161.6953,-957.7506 1165.2114,-957.9314 1169.8632,-957.8804 1172.7866,-958.03 1178.5027,-957.9657 1178.2319,-931.4882 1182.0419,-905.3658 1185.5839,-905.3658 1185.7001,-905.3319 1190.6644,-905.3319 1190.9037,-905.4044 1190.9037,-905.4044 1190.6644,-905.3319 1185.7001,-905.3319 1185.5839,-905.3658 1182.0419,-905.3658 1178.2319,-931.4882 1178.5027,-957.9657 1172.7866,-958.03 1169.8632,-957.8804 1165.2114,-957.9314 1161.6953,-957.7506 1158.2086,-957.7875 1152.4259,-957.4905 1140.8326,-955.4579 1138.061,-954.8032 1132.7719,-953.2287 1131.1543,-952.6479 1119.1563,-947.5804 1116.9919,-946.5366 1116.4495,-958.5051 1117.34,-1010.568 1116.8843,-1010.7078 1119.1102,-1074.5313 1118.0636,-1149.1677 1108.6569,-1146.1344 1087.7354,-1140.8328 1062.4519,-1135.0198 978.6187,-1105.0194 952.6757,-1061.7113 948.0755,-1041.3258 936.3779,-994.0815 921.1346,-941.2974 953.0158,-872.138 963.6433,-850.0153 951.4203,-825.1333 929.8499,-777.4193 920.9092,-770.9278 909.4203,-763.1309 889.2954,-749.9565 864.5831,-611.4609 864.4751,-610.5387 864.5144,-598.7371 864.0375,-590.4036 856.3835,-547.5079 862.2282,-544.3363 874.0747,-539.1165 876.9894,-537.9846 921.9927,-522.816 923.7048,-522.0684 932.9407,-517.5548 933.192,-517.4193 940.502,-513.0903 950.7792,-506.4671 958.4393,-501.147 960.4476,-499.5508 965.8732,-494.9508 968.9896,-494.9212 976.4119,-495.2985 978.3322,-495.3382 978.2568,-551.416 978.2568,-551.416 978.3322,-495.3382 981.9569,-495.1949 987.4621,-495.1431 993.5235,-495.4507 1005.9539,-496.4561 1075.3176,-506.2239 1078.7285,-517.4571 1083.4697,-534.6582 1089.4789,-562.1617 1088.3629,-563.6275 1089.8074,-620.4032 1094.3292,-677.5681 1092.4642,-679.7763 1092.6305,-679.9658 1099.058,-683.9203 1099.058,-683.9203 1092.6305,-679.9658 1092.4642,-679.7763 1094.3292,-677.5681 1089.8074,-620.4032 1088.3629,-563.6275 1089.4789,-562.1617 1100.0288,-570.0264 1107.8513,-575.5382 1120.7584,-583.5806 1198.798,-625.7656 1203.7653,-628.8594 1216.0389,-637.0206 1223.7546,-642.461 1228.304,-646.0347 1237.2922,-641.7978 1240.3597,-640.5419 1289.1381,-623.499 1306.6677,-625.3287 1322.3988,-626.498 1328.9014,-626.5875 1331.4277,-626.6987 1332.8749,-626.6747 1343.5892,-626.8214 1345.4888,-626.7321 1354.4133,-626.8533 1350.7543,-724.2844 1346.4336,-724.2844 1346.147,-724.3701 1339.7223,-724.3701 1339.5549,-724.3204 1335.8921,-724.3204 1335.2854,-724.5009 1332.9917,-799.2413 1333.2891,-828.62 1317.9205,-802.684 1318.0579,-793.2206 1318.4034,-787.3876 1318.4034,-787.3876 1318.0579,-793.2206 1317.9205,-802.684 1333.2891,-828.62 1337.6404,-837.0081 1250.6411,-836.9535 1250.3743,-773.6663 1250.3743,-773.6663 1250.6411,-836.9535 1337.6404,-837.0081 1333.2891,-828.62 1332.9917,-799.2413 1335.2854,-724.5009 1335.8921,-724.3204 1339.5549,-724.3204 1339.7223,-724.3701 1346.147,-724.3701 1346.4336,-724.2844 1350.7543,-724.2844 1354.4133,-626.8533 1356.6733,-626.8155 1359.828,-626.5709 1367.7664,-626.4372 1369.6113,-626.5176 1371.6331,-626.6672 1373.5195,-626.7494 1383.0219,-626.5877 1383.6102,-626.5955 1388.9812,-626.8291 1391.7046,-626.7 1398.5151,-626.7892 1399.4392,-724.1862 1394.8094,-724.1862 1388.8485,-660.1148 1387.9147,-677.9007 1382.1953,-724.0579 1378.7871,-724.0579 1374.5978,-682.6906 1372.0859,-722.7395 1366.9498,-719.7418 1362.1307,-719.7418 1362.1307,-719.7418 1366.9498,-719.7418 1372.0859,-722.7395 1373.3976,-724.3289 1371.8914,-726.2142 1366.8444,-729.2004 1362.2307,-729.2004 1362.2307,-729.2004 1366.8444,-729.2004 1371.8914,-726.2142 1373.3976,-724.3289 1372.0859,-722.7395 1374.5978,-682.6906 1378.7871,-724.0579 1382.1953,-724.0579 1387.9147,-677.9007 1388.8485,-660.1148 1394.8094,-724.1862 1399.4392,-724.1862 1398.5151,-626.7892 1408.0674,-626.6244 1410.2487,-626.6528 1411.9836,-626.7278 1412.2625,-626.7314 1412.495,-668.3744 1415.5853,-717.9835 1415.5853,-717.9835 1412.495,-668.3744 1412.2625,-626.7314 1413.6909,-626.6636 1516.7697,-627.9859 1554.262,-720.7049 1554.4227,-724.47 1554.937,-729.1855 1547.9275,-789.4813 1478.0699,-846.7617 1414.6711,-874.103 1399.9926,-881.1085 1399.9192,-881.1486 1397.7568,-889.1804 1388.3833,-930.822 1385.8271,-935.7089 1342.8519,-1022.6108 1331.5417,-1031.6392 1319.6428,-1054.985 1287.9427,-1120.9296 1196.4957,-1146.6748 1178.2427,-1152.2335 1164.7037,-1156.9655 1157.1638,-1160.1089 1154.986,-1161.0662 1154.986,-1161.0662"/>
<polygon fill="#fbb4ae" stroke="#fbb4ae" points="1038.4532,-214.2935 1045.4554,-192.7441 1053.6958,-164.6137 1066.595,-124.9622 1091.1469,-61.0798 1143.7014,-64.943 1152.673,-65.4307 1168.7826,-65.9972 1170.838,-66.0299 1175.1711,-65.9324 1193.4589,-65.1695 1198.0858,-64.7106 1203.4791,-64.0722 1205.86,-63.6986 1225.0137,-60.3209 1231.5544,-59.0423 1235.541,-58.0332 1288.5093,-16.9045 1336.5835,-13.2509 1348.1664,-17.0537 1350.4418,-99.0973 1349.2344,-158.029 1288.3752,-157.3659 1252.5739,-93.2607 1252.5739,-93.2607 1288.3752,-157.3659 1349.2344,-158.029 1350.4418,-99.0973 1348.1664,-17.0537 1355.3793,-19.1135 1360.3796,-163.6786 1355.8315,-163.6786 1354.7498,-165.5957 1354.1641,-225.1783 1361.0912,-163.8898 1364.8694,-163.8898 1365.1406,-163.9692 1370.3009,-163.9692 1370.8521,-163.8034 1375.192,-163.8034 1376.5819,-165.5122 1381.9293,-168.7038 1386.6814,-168.7038 1391.7469,-165.685 1391.7469,-165.685 1386.6814,-168.7038 1381.9293,-168.7038 1376.5819,-165.5122 1375.192,-163.8034 1370.8521,-163.8034 1370.3009,-163.9692 1365.1406,-163.9692 1364.8694,-163.8898 1361.0912,-163.8898 1354.1641,-225.1783 1354.7498,-165.5957 1355.8315,-163.6786 1360.3796,-163.6786 1355.3793,-19.1135 1370.9436,-23.2254 1385.4436,-26.1171 1399.1761,-28.262 1401.9606,-28.6364 1408.764,-29.2577 1416.0122,-29.7634 1427.3124,-30.0651 1501.1627,-47.9861 1539.1836,-32.5494 1582.8683,-20.8638 1590.2596,-18.571 1594.3483,-19.3271 1595.1304,-75.1477 1590.4541,-165.9578 1587.4548,-165.9578 1585.9891,-163.7053 1585.9891,-163.7053 1587.4548,-165.9578 1590.4541,-165.9578 1595.1304,-75.1477 1594.3483,-19.3271 1604.129,-20.5501 1614.5469,-21.6446 1618.0039,-22.901 1624.2856,-24.9029 1634.9126,-27.8193 1633.8242,-162.5949 1628.9447,-161.1749 1622.614,-163.1427 1619.2196,-166.1467 1622.4595,-168.9542 1622.4595,-168.9542 1619.2196,-166.1467 1622.614,-163.1427 1628.9447,-161.1749 1633.8242,-162.5949 1634.9126,-27.8193 1646.0874,-30.6374 1647.0685,-30.8193 1655.9438,-165.865 1650.3148,-165.865 1650.0404,-165.9496 1644.7898,-165.9496 1644.7898,-165.9496 1650.0404,-165.9496 1650.3148,-165.865 1655.9438,-165.865 1655.9821,-165.8765 1660.0793,-165.8765 1660.0793,-165.8765 1655.9821,-165.8765 1655.9438,-165.865 1647.0685,-30.8193 1665.9752,-33.9101 1685.0571,-35.7578 1757.2483,-41.1357 1788.0925,-24.5153 1795.6829,-21.3218 1825.2156,-14.848 1832.3203,-16.1954 1848.948,-18.7101 1853.9634,-19.2748 1854.3248,-19.3085 1865.3875,-20.1284 1867.2938,-20.1962 1881.4691,-23.5892 1875.3064,-164.8208 1870.9117,-167.354 1867.036,-132.5638 1864.0112,-169.4166 1859.6965,-169.4166 1859.5352,-169.4641 1853.9917,-169.4641 1853.9698,-169.4706 1849.2441,-169.4706 1848.9025,-169.3672 1842.5485,-169.3672 1842.4408,-169.3994 1840.4641,-169.3994 1838.2957,-172.4518 1832.4122,-175.9066 1833.6825,-228.6874 1802.7472,-219.8219 1802.7472,-219.8219 1833.6825,-228.6874 1832.4122,-175.9066 1838.2957,-172.4518 1840.4641,-169.3994 1842.4408,-169.3994 1842.5485,-169.3672 1848.9025,-169.3672 1849.2441,-169.4706 1853.9698,-169.4706 1853.9917,-169.4641 1859.5352,-169.4641 1859.6965,-169.4166 1864.0112,-169.4166 1867.036,-132.5638 1870.9117,-167.354 1868.9945,-169.716 1869.2455,-170.0025 1875.8474,-174.0082 1880.5385,-174.0082 1886.476,-170.3982 1887.132,-169.613 1890.9207,-169.613 1893.8075,-203.319 1898.1787,-169.3061 1901.5519,-169.3061 1901.5519,-169.3061 1898.1787,-169.3061 1893.8075,-203.319 1890.9207,-169.613 1887.132,-169.613 1886.476,-170.3982 1880.5385,-174.0082 1875.8474,-174.0082 1869.2455,-170.0025 1868.9945,-169.716 1870.9117,-167.354 1875.3064,-164.8208 1881.4691,-23.5892 1887.2775,-24.8591 1887.433,-24.8898 1906.9972,-27.5643 1926.6538,-29.0411 1943.2271,-29.6044 2011.7344,-55.9194 2088.4731,-32.6567 2101.9731,-28.2606 2102.1924,-28.1795 2119.7537,-30.2977 2122.6082,-30.5839 2124.3645,-30.7244 2143.2737,-31.0932 2173.2112,-29.8634 2238.6633,-72.5352 2242.842,-73.2102 2262.4075,-75.9423 2262.8003,-75.9797 2264.8408,-76.129 2279.2415,-76.8658 2284.6343,-77.0222 2296.9148,-76.8348 2297.9788,-76.795 2303.1296,-76.4885 2311.791,-75.7811 2317.0249,-75.2381 2324.5054,-74.2967 2328.4304,-73.6295 2333.5327,-72.6488 2343.2744,-70.5598 2358.2705,-66.6786 2369.5813,-63.2536 2369.9292,-63.4584 2488.1487,-129.9056 2503.7786,-156.5691 2499.4915,-178.3823 2491.9497,-221.9323 2477.5266,-338.0123 2365.7292,-350.3271 2345.5408,-353.379 2338.6968,-354.6914 2337.2649,-354.9951 2336.1714,-355.2493 2320.1543,-359.3024 2319.3372,-359.5591 2315.7275,-359.1513 2303.8599,-358.0377 2295.0886,-357.3832 2281.032,-357.1445 2274.9771,-357.1581 2263.0537,-357.6433 2248.2949,-358.811 2247.6992,-358.8809 2154.6377,-324.3828 2143.9475,-324.5358 2134.8145,-325.0114 2125.3103,-325.8652 2112.5723,-327.7339 2104.467,-329.0766 2100.616,-329.8606 2082.9614,-323.5875 2006.652,-298.098 1940.486,-317.8087 1877.8773,-399.2886 1801.8474,-444.2582 1795.4668,-448.3332 1782.1962,-457.1241 1779.5457,-458.1526 1766.5779,-463.6602 1751.9869,-470.9357 1747.876,-469.6229 1749.6609,-317.6538 1746.8721,-281.3048 1753.1119,-283.2177 1757.368,-281.9885 1762.105,-317.386 1766.4509,-414.1241 1768.3442,-366.5523 1768.3442,-366.5523 1766.4509,-414.1241 1762.105,-317.386 1757.368,-281.9885 1753.1119,-283.2177 1746.8721,-281.3048 1749.6609,-317.6538 1747.876,-469.6229 1735.0967,-465.9536 1734.943,-442.9996 1731.4568,-358.3811 1731.4568,-358.3811 1734.943,-442.9996 1735.0967,-465.9536 1715.2122,-461.5179 1708.0966,-460.0455 1592.5149,-441.6986 1524.0773,-358.9729 1497.4595,-346.8518 1428.4891,-346.5336 1422.9048,-346.5946 1412.2581,-346.3818 1398.8809,-346.3225 1393.7183,-346.7012 1378.0271,-346.6391 1373.6967,-348.4973 1365.7742,-351.3261 1347.4761,-357.5332 1337.0626,-360.6865 1330.1895,-362.5179 1298.3505,-370.4248 1255.2988,-329.4321 1241.3108,-317.4061 1237.8499,-314.0164 1229.735,-306.9643 1216.3269,-296.7525 1206.9976,-290.6746 1199.6133,-286.6647 1198.0842,-252.0957 1192.9609,-215.1625 1193.1143,-215.1148 1199.7379,-219.1911 1204.556,-219.1911 1204.556,-219.1911 1199.7379,-219.1911 1193.1143,-215.1148 1192.9609,-215.1625 1198.0842,-252.0957 1199.6133,-286.6647 1184.6471,-280.1201 1176.5072,-277.4502 1162.7765,-274.4231 1162.4634,-274.3713 1154.0983,-273.437 1146.9043,-273.4093 1139.8676,-273.002 1135.4894,-272.5123 1127.7522,-271.2282 1127.6855,-271.2136 1114.8925,-267.7007 1108.5043,-265.2603 1100.3047,-261.6831 1086.2323,-254.0177 1081.2906,-250.8064 1079.9619,-249.8713 1066.6953,-239.7901 1060.7158,-234.6076 1037.8127,-216.0948 1038.4532,-214.2935 1038.4532,-214.2935"/>
<polygon fill="#ccebc5" stroke="#ccebc5" points="307.434,-765.748 311.6702,-765.748 313.556,-762.7318 318.3043,-759.5593 329.5085,-618.1105 337.9821,-628.6545 355.0472,-650.9344 368.6064,-743.236 368.6409,-743.6409 369.1431,-765.3202 369.4363,-767.3013 369.6358,-768.2429 391.3727,-916.2126 387.704,-917.4993 293.6591,-1000.665 275.2713,-1033.4709 261.9134,-1042.9829 242.6541,-1050.3503 169.3109,-1063.6851 156.3823,-1066.2953 155.4035,-1066.2444 154.4953,-1065.8802 145.0771,-1062.5142 143.6793,-1062.0452 122.3705,-1055.8145 126.0928,-973.5786 126.0928,-973.5786 122.3705,-1055.8145 19.265,-1030.2136 -21.2066,-938.0822 -20.3793,-926.4774 -20.2976,-923.6832 -53.0627,-838.1259 -51.9978,-805.99 -53.1069,-777.5552 -84.3102,-718.8792 -82.1998,-695.9016 -80.8232,-675.4075 -79.8777,-621.3646 -56.1771,-573.2976 43.4303,-547.8564 43.9891,-579.1151 43.9891,-579.1151 43.4303,-547.8564 51.6201,-545.3863 67.0843,-540.3646 70.3454,-539.2321 89.9934,-530.5909 85.8048,-678.6719 81.107,-677.3162 81.107,-677.3162 85.8048,-678.6719 89.9918,-682.3569 86.7406,-685.1293 80.6989,-686.9781 80.6989,-686.9781 86.7406,-685.1293 89.9918,-682.3569 85.8048,-678.6719 89.9934,-530.5909 97.7558,-527.0007 103.0066,-524.3339 105.5197,-608.327 107.4968,-636.0756 107.4483,-682.3063 108.2616,-682.5576 111.8506,-682.5576 112.4474,-683.5458 118.1892,-688.3499 154.215,-686.3624 156.9197,-683.9509 153.668,-727.3997 149.1939,-724.8128 149.1939,-724.8128 153.668,-727.3997 156.9197,-683.9509 154.215,-686.3624 118.1892,-688.3499 112.4474,-683.5458 111.8506,-682.5576 108.2616,-682.5576 107.4483,-682.3063 107.4968,-636.0756 105.5197,-608.327 103.0066,-524.3339 129.3441,-509.1114 157.3514,-492.3056 216.7814,-507.5289 235.3423,-513.1279 237.4728,-513.8673 281.9405,-542.7119 282.3723,-546.5257 167.9478,-673.4832 167.9394,-675.0517 167.9394,-675.0517 167.9478,-673.4832 282.3723,-546.5257 286.6005,-560.969 297.0471,-576.2308 310.5499,-594.1781 322.0793,-608.4891 329.5085,-618.1105 318.3043,-759.5593 313.556,-762.7318 311.6702,-765.748 307.434,-765.748 308.9284,-807.3333 307.3557,-840.8195 304.6342,-838.5346 302.0529,-765.9691 297.5095,-765.9691 296.8882,-765.7792 292.5325,-765.7792 291.3719,-767.2275 285.9583,-770.5427 280.6515,-770.5427 276.3537,-768.0564 276.3537,-768.0564 280.6515,-770.5427 285.9583,-770.5427 291.3719,-767.2275 292.5325,-765.7792 296.8882,-765.7792 297.5095,-765.9691 302.0529,-765.9691 304.6342,-838.5346 299.0878,-834.2644 293.707,-829.6588 293.2492,-829.3043 289.1938,-826.4722 282.609,-822.3674 270.9088,-815.9695 263.5784,-813.1303 261.5637,-812.5082 256.2227,-811.2679 253.4109,-767.5447 248.7295,-771.7964 200.8546,-774.791 200.243,-774.8713 193.077,-789.061 184.1628,-790.6687 185.0587,-809.3631 185.0587,-809.3631 184.1628,-790.6687 193.077,-789.061 200.243,-774.8713 200.8546,-774.791 248.7295,-771.7964 253.4109,-767.5447 256.2227,-811.2679 261.5637,-812.5082 263.5784,-813.1303 270.9088,-815.9695 282.609,-822.3674 289.1938,-826.4722 293.2492,-829.3043 293.707,-829.6588 299.0878,-834.2644 237.7904,-847.7566 235.2966,-850.4897 232.3752,-851.3972 230.4954,-852.807 232.9834,-856.7224 230.0917,-887.9862 226.0711,-853.1843 222.6625,-853.1843 221.6676,-853.483 216.5322,-853.483 216.3258,-853.4207 211.9461,-853.4207 210.5421,-851.6428 205.5984,-848.6192 205.5984,-848.6192 210.5421,-851.6428 211.9461,-853.4207 216.3258,-853.4207 216.5322,-853.483 221.6676,-853.483 222.6625,-853.1843 226.0711,-853.1843 230.0917,-887.9862 232.9834,-856.7224 230.4954,-852.807 232.3752,-851.3972 235.2966,-850.4897 237.7904,-847.7566 299.0878,-834.2644 304.6342,-838.5346 307.3557,-840.8195 308.9284,-807.3333 307.434,-765.748 307.434,-765.748"/>
<polygon fill="#bbd7d9" stroke="#bbd7d9" points="771.0308,115.2631 770.3699,115.2148 763.777,114.8755 728.5891,113.8292 663.3179,104.3367 663.3179,-1.4243 664.3604,-18 684.955,-18 762.3395,-24.2029 767.066,-20.4438 771.6693,-73.0317 771.9524,-82.6976 779.4024,-18.3817 780.0029,-18.3817 783.5175,-21.3768 788.7443,-22.8972 788.7443,-22.8972 783.5175,-21.3768 780.0029,-18.3817 779.4024,-18.3817 771.9524,-82.6976 771.6693,-73.0317 767.066,-20.4438 762.3395,-24.2029 684.955,-18 664.3604,-18 663.3179,-51.1514 663.3179,-58.3148 734.2061,-144.0969 735.8309,-145.8733 738.0801,-146.1466 742.5187,-146.4874 758.7716,-147.3733 770.7002,-148.2912 788.845,-150.9105 796.114,-152.1218 798.8679,-152.7032 798.8845,-152.7075 808.7681,-143.1623 808.9734,-142.973 820.4117,-131.2745 821.3732,-130.2328 850.9946,-99.7723 887.0026,-85.3136 888.8781,-84.6593 896.1725,-82.4914 905.7026,-80.1574 909.9684,-79.5614 922.5294,-78.461 922.9345,-78.4468 927.0488,-78.5184 930.0204,-78.4144 930.6955,-78.4261 933.3928,-78.3314 943.8699,-78.5132 944.5404,-78.4898 1088.5736,-58.3313 1079.8678,-38.2615 1067.6879,-8.4794 1044.7911,55.809 1019.7034,91.4265 1012.6126,96.6167 943.2217,133.9649 937.0551,132.8942 931.5493,132.0458 929.4689,131.3881 913.7348,127.0724 894.0649,122.9181 888.8935,122.0452 850.9946,117.2418 818.9538,121.2445 814.6928,120.8683 805.5569,120.4414 803.3264,119.9384 797.071,118.7995 787.6678,117.2914 777.381,115.8659 771.0308,115.2631 771.0308,115.2631"/>
<polygon fill="#e8cfd0" stroke="#e8cfd0" points="1139.8676,-273.002 1146.9043,-273.4093 1154.0983,-273.437 1162.4634,-274.3713 1162.7765,-274.4231 1176.5072,-277.4502 1184.6471,-280.1201 1199.6133,-286.6647 1206.9976,-290.6746 1216.3269,-296.7525 1229.735,-306.9643 1237.8499,-314.0164 1241.3108,-317.4061 1255.2988,-329.4321 1298.3505,-370.4248 1293.7538,-374.8926 1289.1381,-379.5686 1245.5443,-404.1054 1231.6456,-411.0975 1212.4771,-419.0154 1209.5779,-420.0352 1190.2058,-425.694 1153.9464,-435.1671 1132.9635,-441.2945 1131.7358,-441.7257 1121.366,-445.681 1117.5104,-447.266 1108.9402,-451.3064 1075.3176,-506.2239 1005.9539,-496.4561 1004.3873,-443.0239 1004.3873,-443.0239 1005.9539,-496.4561 993.5235,-495.4507 987.4621,-495.1431 987.3094,-433.3182 983.7032,-397.3218 978.9346,-397.3218 977.748,-396.9672 975.2426,-396.9672 975.0472,-396.9089 967.7376,-396.9089 967.5735,-396.9585 964.1902,-396.9585 963.9574,-396.8879 961.0342,-396.8879 957.0325,-393.1715 952.6389,-391.9236 952.6389,-391.9236 957.0325,-393.1715 961.0342,-396.8879 956.8503,-400.8393 952.7769,-401.9883 947.2983,-400.3707 943.2546,-396.7061 942.7102,-396.7061 941.7089,-397.01 936.9169,-397.01 933.4785,-452.1881 930.5695,-397.0448 925.4675,-397.0448 924.5619,-396.7693 921.314,-396.7693 919.873,-397.2059 915.9113,-397.2059 915.9113,-397.2059 919.873,-397.2059 921.314,-396.7693 924.5619,-396.7693 925.4675,-397.0448 930.5695,-397.0448 933.4785,-452.1881 936.9169,-397.01 941.7089,-397.01 942.7102,-396.7061 943.2546,-396.7061 947.2983,-400.3707 952.7769,-401.9883 956.8503,-400.8393 961.0342,-396.8879 963.9574,-396.8879 964.1902,-396.9585 967.5735,-396.9585 967.7376,-396.9089 975.0472,-396.9089 975.2426,-396.9672 977.748,-396.9672 978.9346,-397.3218 983.7032,-397.3218 987.3094,-433.3182 987.4621,-495.1431 981.9569,-495.1949 978.3322,-495.3382 976.4119,-495.2985 968.9896,-494.9212 965.8732,-494.9508 963.3103,-491.8725 947.0209,-474.6217 944.549,-472.2011 941.8958,-469.8048 941.89,-469.8 911.7173,-469.8 875.8195,-463.4185 870.5267,-467.21 870.0806,-427.2374 864.1093,-424.1436 859.3666,-421.2307 859.2971,-421.1813 845.7483,-410.0956 840.6219,-405.426 840.7054,-418.9455 840.7054,-418.9455 840.6219,-405.426 845.7483,-410.0956 859.2971,-421.1813 853.7823,-465.428 849.4792,-467.8794 847.9464,-469.6927 848.6076,-470.4938 848.6076,-470.4938 847.9464,-469.6927 849.4792,-467.8794 853.7823,-465.428 859.2971,-421.1813 859.3666,-421.2307 864.1093,-424.1436 870.0806,-427.2374 870.5267,-467.21 875.8195,-463.4185 911.7173,-469.8 941.89,-469.8 941.8958,-469.8048 944.549,-472.2011 947.0209,-474.6217 963.3103,-491.8725 965.8732,-494.9508 960.4476,-499.5508 958.4393,-501.147 950.7792,-506.4671 940.502,-513.0903 933.192,-517.4193 932.9407,-517.5548 923.7048,-522.0684 921.9927,-522.816 876.9894,-537.9846 874.0747,-539.1165 862.2282,-544.3363 856.3835,-547.5079 848.3264,-544.7449 845.9211,-544.1331 837.8298,-542.4246 809.5006,-537.6793 809.524,-548.8364 809.524,-548.8364 809.5006,-537.6793 837.8298,-542.4246 845.9211,-544.1331 848.3264,-544.7449 856.3835,-547.5079 864.0375,-590.4036 864.5144,-598.7371 864.4751,-610.5387 864.5831,-611.4609 889.2954,-749.9565 909.4203,-763.1309 920.9092,-770.9278 929.8499,-777.4193 951.4203,-825.1333 963.6433,-850.0153 953.0158,-872.138 921.1346,-941.2974 760.4837,-971.5542 745.6855,-975.0248 742.1171,-976.1086 710.2368,-1001.668 658.759,-1013.6668 653.4409,-1015.0273 633.0258,-1013.3301 626.411,-1013.2075 607.8657,-1014.0603 599.0502,-1014.8449 577.7014,-1017.6652 552.9791,-1021.4558 434.5284,-915.8215 423.7288,-915.4977 391.3727,-916.2126 369.6358,-768.2429 420.4519,-757.0859 424.0063,-752.9332 425.9741,-751.9798 426.1956,-813.0317 432.2481,-751.9453 436.1801,-751.9453 436.1801,-751.9453 432.2481,-751.9453 426.1956,-813.0317 425.9741,-751.9798 424.0063,-752.9332 420.4519,-757.0859 369.6358,-768.2429 369.4363,-767.3013 369.1431,-765.3202 368.6409,-743.6409 368.6064,-743.236 355.0472,-650.9344 337.9821,-628.6545 329.5085,-618.1105 322.0793,-608.4891 310.5499,-594.1781 297.0471,-576.2308 286.6005,-560.969 282.3723,-546.5257 281.9405,-542.7119 333.1884,-519.3871 439.7973,-516.9956 470.6308,-527.9072 474.5042,-529.1688 492.2156,-533.9504 498.9789,-535.5829 499.1586,-535.6211 501.5997,-536.0715 504.4327,-536.5146 512.6093,-537.5647 530.9719,-538.8908 530.5864,-566.8211 528.534,-605.0138 528.534,-605.0138 530.5864,-566.8211 530.9719,-538.8908 535.4804,-538.8345 542.4427,-538.9449 543.2548,-538.9119 549.1558,-539.007 557.6179,-538.9041 558.2864,-538.877 570.0788,-539.0698 571.0197,-539.0321 572.0164,-539.0768 586.4864,-538.9099 592.0058,-539.3152 597.2115,-539.8457 610.3054,-516.541 611.9178,-514.111 618.4741,-505.0049 624.9146,-496.8394 633.7914,-487.6681 637.4303,-482.6752 648.1833,-471.5482 649.3858,-470.5236 654.4748,-466.9999 681.1334,-442.6365 682.8972,-440.6767 686.142,-438.3013 698.8688,-425.183 700.1812,-423.6562 703.4126,-419.4219 710.2256,-411.5392 712.7034,-408.3908 717.2289,-402.0948 729.0807,-382.5069 728.2668,-477.2235 723.6397,-474.5935 723.6397,-474.5935 728.2668,-477.2235 729.0807,-382.5069 731.9082,-377.4912 733.2015,-377.487 735.6951,-377.5514 740.4246,-377.5359 741.5586,-377.4661 746.2148,-377.3151 757.4644,-377.2772 757.8036,-377.2564 760.5793,-472.5677 755.5208,-476.3068 754.4735,-478.1472 753.001,-479.3041 755.375,-482.7348 752.7828,-544.8642 760.2307,-544.9783 763.9783,-544.8583 764.1392,-607.3812 768.0069,-610.7285 764.4241,-613.9125 758.9059,-615.5985 753.0988,-613.7858 749.9184,-610.9061 747.3702,-610.9061 747.2125,-610.8593 742.7122,-610.8593 742.3578,-610.757 738.4213,-610.757 737.9867,-610.8854 732.0707,-610.8854 731.6793,-659.0738 730.7808,-659.0842 728.7038,-659.2506 721.4037,-659.334 721.2636,-611.0434 717.4717,-611.0434 715.8251,-610.5413 716.6565,-544.8088 707.2582,-545.1146 707.465,-563.2345 707.465,-563.2345 707.2582,-545.1146 716.6565,-544.8088 715.8251,-610.5413 717.4717,-611.0434 721.2636,-611.0434 721.4037,-659.334 728.7038,-659.2506 727.3676,-704.4774 725.3532,-707.3355 728.6014,-709.9017 723.1378,-745.4443 721.8867,-707.8474 716.7863,-707.8474 716.5178,-707.7643 711.4814,-707.7643 711.1664,-707.861 705.0814,-707.861 705.0794,-707.8616 701.967,-707.8616 695.4387,-753.3975 695.2673,-707.8337 694.2487,-707.518 690.6906,-707.518 689.4668,-707.8934 684.7219,-707.8934 684.0407,-708.1003 680.3055,-708.1003 673.9808,-756.5651 673.2704,-746.7064 667.7372,-712.4736 673.9381,-708.5704 674.9042,-707.3674 674.0647,-706.4113 668.9995,-703.4717 668.9995,-703.4717 674.0647,-706.4113 674.9042,-707.3674 673.9381,-708.5704 667.7372,-712.4736 663.4814,-712.4736 657.819,-709.0499 656.7258,-767.739 651.5386,-707.9768 646.6567,-707.9768 646.3331,-707.8816 641.9579,-707.8816 641.4846,-708.02 637.6155,-708.02 637.6155,-708.02 641.4846,-708.02 641.9579,-707.8816 646.3331,-707.8816 646.6567,-707.9768 651.5386,-707.9768 656.7258,-767.739 657.819,-709.0499 663.4814,-712.4736 667.7372,-712.4736 673.2704,-746.7064 673.9808,-756.5651 680.3055,-708.1003 684.0407,-708.1003 684.7219,-707.8934 689.4668,-707.8934 690.6906,-707.518 694.2487,-707.518 695.2673,-707.8337 695.4387,-753.3975 701.967,-707.8616 705.0794,-707.8616 705.0814,-707.861 711.1664,-707.861 711.4814,-707.7643 716.5178,-707.7643 716.7863,-707.8474 721.8867,-707.8474 723.1378,-745.4443 728.6014,-709.9017 725.3532,-707.3355 727.3676,-704.4774 728.7038,-659.2506 730.7808,-659.0842 731.6793,-659.0738 732.0707,-610.8854 737.9867,-610.8854 738.4213,-610.757 742.3578,-610.757 742.7122,-610.8593 747.2125,-610.8593 747.3702,-610.9061 749.9184,-610.9061 753.0988,-613.7858 758.9059,-615.5985 764.4241,-613.9125 768.0069,-610.7285 764.1392,-607.3812 763.9783,-544.8583 760.2307,-544.9783 752.7828,-544.8642 755.375,-482.7348 753.001,-479.3041 754.4735,-478.1472 755.5208,-476.3068 760.5793,-472.5677 757.8036,-377.2564 781.6434,-375.1013 789.2496,-289.7888 789.1718,-288.2735 789.3701,-278.1182 789.9468,-271.8018 790.1411,-261.7904 799.751,-154.0035 798.8845,-152.7075 808.7681,-143.1623 808.9734,-142.973 820.4117,-131.2745 821.3732,-130.2328 850.9946,-99.7723 887.0026,-85.3136 888.8781,-84.6593 896.1725,-82.4914 905.7026,-80.1574 909.9684,-79.5614 922.5294,-78.461 922.9345,-78.4468 927.0488,-78.5184 930.0204,-78.4144 930.6955,-78.4261 933.3928,-78.3314 943.8699,-78.5132 944.5404,-78.4898 944.6938,-83.1543 949.1823,-132.9406 944.7244,-137.1648 945.4734,-140.4913 945.3824,-140.9355 944.2803,-141.8882 944.2803,-141.8882 945.3824,-140.9355 945.4734,-140.4913 944.7244,-137.1648 949.1823,-132.9406 944.6938,-83.1543 944.5404,-78.4898 1088.5736,-58.3313 1091.1469,-61.0798 1066.595,-124.9622 1053.6958,-164.6137 1045.4554,-192.7441 1038.4532,-214.2935 1037.8127,-216.0948 980.8209,-252.1423 976.0268,-270.71 885.5687,-279.7687 872.3766,-277.3696 867.1677,-281.0637 865.273,-197.5456 861.0416,-195.5343 860.5831,-213.1654 855.995,-279.17 861.7997,-282.7042 862.7803,-283.8857 862.5903,-284.1084 862.5903,-284.1084 862.7803,-283.8857 861.7997,-282.7042 855.995,-279.17 860.5831,-213.1654 861.0416,-195.5343 865.273,-197.5456 867.1677,-281.0637 872.3766,-277.3696 885.5687,-279.7687 976.0268,-270.71 980.8209,-252.1423 1037.8127,-216.0948 1060.7158,-234.6076 1066.6953,-239.7901 1079.9619,-249.8713 1081.2906,-250.8064 1086.2323,-254.0177 1100.3047,-261.6831 1108.5043,-265.2603 1107.9393,-327.518 1102.8361,-327.518 1096.7651,-331.1493 1095.98,-332.0558 1096.3768,-332.5215 1096.3768,-332.5215 1095.98,-332.0558 1096.7651,-331.1493 1102.8361,-327.518 1107.9393,-327.518 1108.5043,-265.2603 1114.8925,-267.7007 1127.6855,-271.2136 1127.7522,-271.2282 1135.4894,-272.5123 1139.8676,-273.002 1139.8676,-273.002"/>
<polygon fill="#fdd9a7" stroke="#fdd9a7" points="222.8394,-167.267 220.2076,-167.6132 204.9238,-169.3042 173.3274,-176.5632 98.3577,-218.6434 86.6864,-238.6334 89.128,-290.1499 89.7131,-315.6239 89.1315,-337.9662 93.9249,-372.986 157.3514,-492.3056 216.7814,-507.5289 235.3423,-513.1279 237.4728,-513.8673 257.1486,-444.8767 285.0077,-354.4209 338.0739,-338.3801 340.3032,-335.6476 343.2304,-334.4619 346.0681,-400.2266 345.8156,-471.3003 345.2941,-492.5045 365.5934,-454.3159 363.4087,-374.8399 363.4087,-374.8399 365.5934,-454.3159 345.2941,-492.5045 345.8156,-471.3003 346.0681,-400.2266 343.2304,-334.4619 340.3032,-335.6476 338.0739,-338.3801 285.0077,-354.4209 257.1486,-444.8767 237.4728,-513.8673 281.9405,-542.7119 333.1884,-519.3871 439.7973,-516.9956 470.6308,-527.9072 474.5042,-529.1688 492.2156,-533.9504 498.9789,-535.5829 499.1586,-535.6211 501.5997,-536.0715 504.4327,-536.5146 512.6093,-537.5647 530.9719,-538.8908 535.4804,-538.8345 538.1006,-440.7399 491.1116,-443.4514 493.689,-440.4272 493.689,-440.4272 491.1116,-443.4514 538.1006,-440.7399 535.4804,-538.8345 542.4427,-538.9449 543.2548,-538.9119 545.553,-461.8537 550.3316,-435.154 548.2162,-434.5032 543.9894,-434.5032 543.2332,-433.2023 538.273,-428.9659 505.6537,-428.3589 507.5162,-426.3406 514.176,-420.3935 514.176,-420.3935 507.5162,-426.3406 505.6537,-428.3589 538.273,-428.9659 543.2332,-433.2023 543.9894,-434.5032 548.2162,-434.5032 550.3316,-435.154 545.553,-461.8537 543.2548,-538.9119 549.1558,-539.007 557.6179,-538.9041 558.2864,-538.877 570.0788,-539.0698 571.0197,-539.0321 572.0164,-539.0768 586.4864,-538.9099 592.0058,-539.3152 597.2115,-539.8457 610.3054,-516.541 611.9178,-514.111 618.4741,-505.0049 624.9146,-496.8394 633.7914,-487.6681 637.4303,-482.6752 637.4393,-476.2154 637.4393,-476.2154 637.4303,-482.6752 648.1833,-471.5482 649.3858,-470.5236 654.4748,-466.9999 681.1334,-442.6365 682.8972,-440.6767 686.142,-438.3013 698.8688,-425.183 700.1812,-423.6562 703.4126,-419.4219 710.2256,-411.5392 712.7034,-408.3908 717.2289,-402.0948 729.0807,-382.5069 731.9082,-377.4912 733.2015,-377.487 735.6951,-377.5514 740.4246,-377.5359 741.5586,-377.4661 746.2148,-377.3151 757.4644,-377.2772 757.8036,-377.2564 781.6434,-375.1013 789.2496,-289.7888 789.1718,-288.2735 789.3701,-278.1182 789.9468,-271.8018 790.1411,-261.7904 743.8405,-270.7424 739.2916,-275.7285 738.5551,-276.1126 737.4131,-181.0744 732.6368,-276.2099 728.9131,-276.2099 728.6469,-276.1296 723.9511,-230.1518 723.226,-206.0208 723.881,-158.6049 707.1342,-173.9889 712.1194,-275.929 707.1374,-275.929 704.0804,-243.4166 699.8228,-275.9083 699.4216,-275.9083 695.6753,-272.675 690.5314,-271.1863 684.9394,-272.8686 681.4271,-276.05 685.6417,-279.9288 689.8191,-281.1095 689.8191,-281.1095 685.6417,-279.9288 681.4271,-276.05 679.6166,-276.05 679.5065,-276.0164 674.3963,-276.0164 674.3963,-276.0164 679.5065,-276.0164 679.6166,-276.05 681.4271,-276.05 684.9394,-272.8686 690.5314,-271.1863 695.6753,-272.675 699.4216,-275.9083 699.8228,-275.9083 704.0804,-243.4166 707.1374,-275.929 712.1194,-275.929 707.1342,-173.9889 723.881,-158.6049 723.226,-206.0208 723.9511,-230.1518 728.6469,-276.1296 728.9131,-276.2099 732.6368,-276.2099 737.4131,-181.0744 738.5551,-276.1126 739.2916,-275.7285 743.8405,-270.7424 790.1411,-261.7904 799.751,-154.0035 798.8845,-152.7075 798.8679,-152.7032 796.114,-152.1218 788.845,-150.9105 770.7002,-148.2912 758.7716,-147.3733 742.5187,-146.4874 738.0801,-146.1466 735.8309,-145.8733 734.2061,-144.0969 663.3179,-58.3148 611.5563,-78.7536 605.9451,-80.717 604.697,-116.7563 600.3069,-152.2332 596.1307,-151.0317 596.1307,-151.0317 600.3069,-152.2332 604.697,-116.7563 605.9451,-80.717 611.5563,-78.7536 663.3179,-58.3148 663.3179,-51.1514 664.3604,-18 663.3179,-1.4243 663.3179,104.3367 629.0341,125.8134 569.7089,137.924 553.3301,141.5791 553.404,112.1522 551.9276,36.6425 547.9417,-14.4702 552.2017,-18.3789 548.9776,-21.101 548.9776,-21.101 552.2017,-18.3789 547.9417,-14.4702 543.3502,-13.1298 543.3502,-13.1298 547.9417,-14.4702 551.9276,36.6425 553.404,112.1522 553.3301,141.5791 536.3325,146.3348 529.1046,148.7655 524.4322,146.2824 523.7782,145.9491 469.8808,119.6449 401.8568,56.0486 388.7573,.0504 343.4677,-48.6591 316.263,-103.8513 298.5672,-137.7623 430.915,-129.7005 449.6621,-132.0173 455.0659,-127.7352 456.3767,-125.4772 456.2051,-125.338 456.2051,-125.338 456.3767,-125.4772 455.0659,-127.7352 455.4771,-187.4367 461.3234,-126.0556 466.087,-126.0556 466.2239,-126.015 467.3673,-126.015 470.1649,-128.4013 470.1649,-128.4013 467.3673,-126.015 466.2239,-126.015 466.087,-126.0556 461.3234,-126.0556 455.4771,-187.4367 455.0659,-127.7352 449.6621,-132.0173 430.915,-129.7005 298.5672,-137.7623 297.3443,-139.891 293.675,-150.2927 255.5719,-160.1146 245.6752,-162.4606 225.3989,-166.8429 224.5995,-166.9986 222.8394,-167.267 222.8394,-167.267"/>
<polygon fill="#d8d6d9" stroke="#d8d6d9" points="1198.798,-625.7656 1199.8033,-567.9136 1199.8033,-567.9136 1198.798,-625.7656 1120.7584,-583.5806 1107.8513,-575.5382 1100.0288,-570.0264 1089.4789,-562.1617 1083.4697,-534.6582 1078.7285,-517.4571 1075.3176,-506.2239 1108.9402,-451.3064 1117.5104,-447.266 1121.366,-445.681 1131.7358,-441.7257 1132.9635,-441.2945 1153.9464,-435.1671 1190.2058,-425.694 1209.5779,-420.0352 1212.4771,-419.0154 1231.6456,-411.0975 1245.5443,-404.1054 1289.1381,-379.5686 1293.7538,-374.8926 1298.3505,-370.4248 1330.1895,-362.5179 1337.0626,-360.6865 1347.4761,-357.5332 1365.7742,-351.3261 1373.6967,-348.4973 1378.0271,-346.6391 1393.7183,-346.7012 1398.8809,-346.3225 1412.2581,-346.3818 1422.9048,-346.5946 1428.4891,-346.5336 1497.4595,-346.8518 1524.0773,-358.9729 1592.5149,-441.6986 1558.2891,-518.0045 1551.3715,-534.3723 1516.7697,-627.9859 1413.6909,-626.6636 1412.2625,-626.7314 1411.9836,-626.7278 1410.2487,-626.6528 1408.0674,-626.6244 1398.5151,-626.7892 1391.7046,-626.7 1388.9812,-626.8291 1383.6102,-626.5955 1383.0219,-626.5877 1373.5195,-626.7494 1371.6331,-626.6672 1369.6113,-626.5176 1367.7664,-626.4372 1359.828,-626.5709 1356.6733,-626.8155 1354.4133,-626.8533 1345.4888,-626.7321 1343.5892,-626.8214 1332.8749,-626.6747 1331.4277,-626.6987 1328.9014,-626.5875 1322.3988,-626.498 1306.6677,-625.3287 1289.1381,-623.499 1240.3597,-640.5419 1237.2922,-641.7978 1228.304,-646.0347 1223.7546,-642.461 1216.0389,-637.0206 1213.6282,-530.4524 1218.6921,-533.3764 1218.6921,-533.3764 1213.6282,-530.4524 1216.0389,-637.0206 1203.7653,-628.8594 1198.798,-625.7656 1198.798,-625.7656"/>
<polyline fill="none" stroke="#000000" points="1289.1381,-623.499 1240.3597,-640.5419 1237.2922,-641.7978 1228.304,-646.0347 1223.7546,-642.461 1216.0389,-637.0206 1203.7653,-628.8594 1198.798,-625.7656 1120.7584,-583.5806 1107.8513,-575.5382 1100.0288,-570.0264 1089.4789,-562.1617 1083.4697,-534.6582 1078.7285,-517.4571 1075.3176,-506.2239 1005.9539,-496.4561 993.5235,-495.4507 987.4621,-495.1431 981.9569,-495.1949 978.3322,-495.3382 976.4119,-495.2985 968.9896,-494.9212 965.8732,-494.9508 960.4476,-499.5508 958.4393,-501.147 950.7792,-506.4671 940.502,-513.0903 933.192,-517.4193 932.9407,-517.5548 923.7048,-522.0684 921.9927,-522.816 876.9894,-537.9846 874.0747,-539.1165 862.2282,-544.3363 856.3835,-547.5079 864.0375,-590.4036 864.5144,-598.7371 864.4751,-610.5387 864.5831,-611.4609 889.2954,-749.9565 909.4203,-763.1309 920.9092,-770.9278 929.8499,-777.4193 951.4203,-825.1333 963.6433,-850.0153 953.0158,-872.138 921.1346,-941.2974 936.3779,-994.0815 948.0755,-1041.3258 952.6757,-1061.7113 978.6187,-1105.0194 1062.4519,-1135.0198 1087.7354,-1140.8328 1108.6569,-1146.1344 1118.0636,-1149.1677 1130.9694,-1153.9291 1140.356,-1157.826 1146.5413,-1160.681 1148.4595,-1160.7402 1154.986,-1161.0662 1157.1638,-1160.1089 1164.7037,-1156.9655 1178.2427,-1152.2335 1196.4957,-1146.6748 1287.9427,-1120.9296 1319.6428,-1054.985 1331.5417,-1031.6392 1342.8519,-1022.6108 1385.8271,-935.7089 1388.3833,-930.822 1397.7568,-889.1804 1399.9192,-881.1486 1399.9926,-881.1085 1414.6711,-874.103 1478.0699,-846.7617 1547.9275,-789.4813 1554.937,-729.1855 1554.4227,-724.47 1554.262,-720.7049 1516.7697,-627.9859 1413.6909,-626.6636 1412.2625,-626.7314 1411.9836,-626.7278 1410.2487,-626.6528 1408.0674,-626.6244 1398.5151,-626.7892 1391.7046,-626.7 1388.9812,-626.8291 1383.6102,-626.5955 1383.0219,-626.5877 1373.5195,-626.7494 1371.6331,-626.6672 1369.6113,-626.5176 1367.7664,-626.4372 1359.828,-626.5709 1356.6733,-626.8155 1354.4133,-626.8533 1345.4888,-626.7321 1343.5892,-626.8214 1332.8749,-626.6747 1331.4277,-626.6987 1328.9014,-626.5875 1322.3988,-626.498 1306.6677,-625.3287 1289.1381,-623.499 "/>
<polyline fill="none" stroke="#000000" points="2112.5723,-327.7339 2104.467,-329.0766 2100.616,-329.8606 2082.9614,-323.5875 2006.652,-298.098 1940.486,-317.8087 1877.8773,-399.2886 1801.8474,-444.2582 1795.4668,-448.3332 1782.1962,-457.1241 1779.5457,-458.1526 1766.5779,-463.6602 1751.9869,-470.9357 1747.876,-469.6229 1735.0967,-465.9536 1715.2122,-461.5179 1708.0966,-460.0455 1592.5149,-441.6986 1524.0773,-358.9729 1497.4595,-346.8518 1428.4891,-346.5336 1422.9048,-346.5946 1412.2581,-346.3818 1398.8809,-346.3225 1393.7183,-346.7012 1378.0271,-346.6391 1373.6967,-348.4973 1365.7742,-351.3261 1347.4761,-357.5332 1337.0626,-360.6865 1330.1895,-362.5179 1298.3505,-370.4248 1255.2988,-329.4321 1241.3108,-317.4061 1237.8499,-314.0164 1229.735,-306.9643 1216.3269,-296.7525 1206.9976,-290.6746 1199.6133,-286.6647 1184.6471,-280.1201 1176.5072,-277.4502 1162.7765,-274.4231 1162.4634,-274.3713 1154.0983,-273.437 1146.9043,-273.4093 1139.8676,-273.002 1135.4894,-272.5123 1127.7522,-271.2282 1127.6855,-271.2136 1114.8925,-267.7007 1108.5043,-265.2603 1100.3047,-261.6831 1086.2323,-254.0177 1081.2906,-250.8064 1079.9619,-249.8713 1066.6953,-239.7901 1060.7158,-234.6076 1037.8127,-216.0948 1038.4532,-214.2935 1045.4554,-192.7441 1053.6958,-164.6137 1066.595,-124.9622 1091.1469,-61.0798 1143.7014,-64.943 1152.673,-65.4307 1168.7826,-65.9972 1170.838,-66.0299 1175.1711,-65.9324 1193.4589,-65.1695 1198.0858,-64.7106 1203.4791,-64.0722 1205.86,-63.6986 1225.0137,-60.3209 1231.5544,-59.0423 1235.541,-58.0332 1288.5093,-16.9045 1336.5835,-13.2509 1348.1664,-17.0537 1355.3793,-19.1135 1370.9436,-23.2254 1385.4436,-26.1171 1399.1761,-28.262 1401.9606,-28.6364 1408.764,-29.2577 1416.0122,-29.7634 1427.3124,-30.0651 1501.1627,-47.9861 1539.1836,-32.5494 1582.8683,-20.8638 1590.2596,-18.571 1594.3483,-19.3271 1604.129,-20.5501 1614.5469,-21.6446 1618.0039,-22.901 1624.2856,-24.9029 1634.9126,-27.8193 1646.0874,-30.6374 1647.0685,-30.8193 1665.9752,-33.9101 1685.0571,-35.7578 1757.2483,-41.1357 1788.0925,-24.5153 1795.6829,-21.3218 1825.2156,-14.848 1832.3203,-16.1954 1848.948,-18.7101 1853.9634,-19.2748 1854.3248,-19.3085 1865.3875,-20.1284 1867.2938,-20.1962 1881.4691,-23.5892 1887.2775,-24.8591 1887.433,-24.8898 1906.9972,-27.5643 1926.6538,-29.0411 1943.2271,-29.6044 2011.7344,-55.9194 2088.4731,-32.6567 2101.9731,-28.2606 2102.1924,-28.1795 2119.7537,-30.2977 2122.6082,-30.5839 2124.3645,-30.7244 2143.2737,-31.0932 2173.2112,-29.8634 2238.6633,-72.5352 2242.842,-73.2102 2262.4075,-75.9423 2262.8003,-75.9797 2264.8408,-76.129 2279.2415,-76.8658 2284.6343,-77.0222 2296.9148,-76.8348 2297.9788,-76.795 2303.1296,-76.4885 2311.791,-75.7811 2317.0249,-75.2381 2324.5054,-74.2967 2328.4304,-73.6295 2333.5327,-72.6488 2343.2744,-70.5598 2358.2705,-66.6786 2369.5813,-63.2536 2369.9292,-63.4584 2488.1487,-129.9056 2503.7786,-156.5691 2499.4915,-178.3823 2491.9497,-221.9323 2477.5266,-338.0123 2365.7292,-350.3271 2345.5408,-353.379 2338.6968,-354.6914 2337.2649,-354.9951 2336.1714,-355.2493 2320.1543,-359.3024 2319.3372,-359.5591 2315.7275,-359.1513 2303.8599,-358.0377 2295.0886,-357.3832 2281.032,-357.1445 2274.9771,-357.1581 2263.0537,-357.6433 2248.2949,-358.811 2247.6992,-358.8809 2154.6377,-324.3828 2143.9475,-324.5358 2134.8145,-325.0114 2125.3103,-325.8652 2112.5723,-327.7339 "/>
<polyline fill="none" stroke="#000000" points="-51.9978,-805.99 -53.1069,-777.5552 -84.3102,-718.8792 -82.1998,-695.9016 -80.8232,-675.4075 -79.8777,-621.3646 -56.1771,-573.2976 43.4303,-547.8564 51.6201,-545.3863 67.0843,-540.3646 70.3454,-539.2321 89.9934,-530.5909 97.7558,-527.0007 103.0066,-524.3339 129.3441,-509.1114 157.3514,-492.3056 216.7814,-507.5289 235.3423,-513.1279 237.4728,-513.8673 281.9405,-542.7119 282.3723,-546.5257 286.6005,-560.969 297.0471,-576.2308 310.5499,-594.1781 322.0793,-608.4891 329.5085,-618.1105 337.9821,-628.6545 355.0472,-650.9344 368.6064,-743.236 368.6409,-743.6409 369.1431,-765.3202 369.4363,-767.3013 369.6358,-768.2429 391.3727,-916.2126 387.704,-917.4993 293.6591,-1000.665 275.2713,-1033.4709 261.9134,-1042.9829 242.6541,-1050.3503 169.3109,-1063.6851 156.3823,-1066.2953 155.4035,-1066.2444 154.4953,-1065.8802 145.0771,-1062.5142 143.6793,-1062.0452 122.3705,-1055.8145 19.265,-1030.2136 -21.2066,-938.0822 -20.3793,-926.4774 -20.2976,-923.6832 -53.0627,-838.1259 -51.9978,-805.99 "/>
<polyline fill="none" stroke="#000000" points="896.1725,-82.4914 888.8781,-84.6593 887.0026,-85.3136 850.9946,-99.7723 821.3732,-130.2328 820.4117,-131.2745 808.9734,-142.973 808.7681,-143.1623 798.8845,-152.7075 798.8679,-152.7032 796.114,-152.1218 788.845,-150.9105 770.7002,-148.2912 758.7716,-147.3733 742.5187,-146.4874 738.0801,-146.1466 735.8309,-145.8733 734.2061,-144.0969 663.3179,-58.3148 663.3179,-51.1514 664.3604,-18 663.3179,-1.4243 663.3179,104.3367 728.5891,113.8292 763.777,114.8755 770.3699,115.2148 771.0308,115.2631 777.381,115.8659 787.6678,117.2914 797.071,118.7995 803.3264,119.9384 805.5569,120.4414 814.6928,120.8683 818.9538,121.2445 850.9946,117.2418 888.8935,122.0452 894.0649,122.9181 913.7348,127.0724 929.4689,131.3881 931.5493,132.0458 937.0551,132.8942 943.2217,133.9649 1012.6126,96.6167 1019.7034,91.4265 1044.7911,55.809 1067.6879,-8.4794 1079.8678,-38.2615 1088.5736,-58.3313 944.5404,-78.4898 943.8699,-78.5132 933.3928,-78.3314 930.6955,-78.4261 930.0204,-78.4144 927.0488,-78.5184 922.9345,-78.4468 922.5294,-78.461 909.9684,-79.5614 905.7026,-80.1574 896.1725,-82.4914 "/>
<polyline fill="none" stroke="#000000" points="423.7288,-915.4977 391.3727,-916.2126 369.6358,-768.2429 369.4363,-767.3013 369.1431,-765.3202 368.6409,-743.6409 368.6064,-743.236 355.0472,-650.9344 337.9821,-628.6545 329.5085,-618.1105 322.0793,-608.4891 310.5499,-594.1781 297.0471,-576.2308 286.6005,-560.969 282.3723,-546.5257 281.9405,-542.7119 333.1884,-519.3871 439.7973,-516.9956 470.6308,-527.9072 474.5042,-529.1688 492.2156,-533.9504 498.9789,-535.5829 499.1586,-535.6211 501.5997,-536.0715 504.4327,-536.5146 512.6093,-537.5647 530.9719,-538.8908 535.4804,-538.8345 542.4427,-538.9449 543.2548,-538.9119 549.1558,-539.007 557.6179,-538.9041 558.2864,-538.877 570.0788,-539.0698 571.0197,-539.0321 572.0164,-539.0768 586.4864,-538.9099 592.0058,-539.3152 597.2115,-539.8457 610.3054,-516.541 611.9178,-514.111 618.4741,-505.0049 624.9146,-496.8394 633.7914,-487.6681 637.4303,-482.6752 648.1833,-471.5482 649.3858,-470.5236 654.4748,-466.9999 681.1334,-442.6365 682.8972,-440.6767 686.142,-438.3013 698.8688,-425.183 700.1812,-423.6562 703.4126,-419.4219 710.2256,-411.5392 712.7034,-408.3908 717.2289,-402.0948 729.0807,-382.5069 731.9082,-377.4912 733.2015,-377.487 735.6951,-377.5514 740.4246,-377.5359 741.5586,-377.4661 746.2148,-377.3151 757.4644,-377.2772 757.8036,-377.2564 781.6434,-375.1013 789.2496,-289.7888 789.1718,-288.2735 789.3701,-278.1182 789.9468,-271.8018 790.1411,-261.7904 799.751,-154.0035 798.8845,-152.7075 808.7681,-143.1623 808.9734,-142.973 820.4117,-131.2745 821.3732,-130.2328 850.9946,-99.7723 887.0026,-85.3136 888.8781,-84.6593 896.1725,-82.4914 905.7026,-80.1574 909.9684,-79.5614 922.5294,-78.461 922.9345,-78.4468 927.0488,-78.5184 930.0204,-78.4144 930.6955,-78.4261 933.3928,-78.3314 943.8699,-78.5132 944.5404,-78.4898 1088.5736,-58.3313 1091.1469,-61.0798 1066.595,-124.9622 1053.6958,-164.6137 1045.4554,-192.7441 1038.4532,-214.2935 1037.8127,-216.0948 1060.7158,-234.6076 1066.6953,-239.7901 1079.9619,-249.8713 1081.2906,-250.8064 1086.2323,-254.0177 1100.3047,-261.6831 1108.5043,-265.2603 1114.8925,-267.7007 1127.6855,-271.2136 1127.7522,-271.2282 1135.4894,-272.5123 1139.8676,-273.002 1146.9043,-273.4093 1154.0983,-273.437 1162.4634,-274.3713 1162.7765,-274.4231 1176.5072,-277.4502 1184.6471,-280.1201 1199.6133,-286.6647 1206.9976,-290.6746 1216.3269,-296.7525 1229.735,-306.9643 1237.8499,-314.0164 1241.3108,-317.4061 1255.2988,-329.4321 1298.3505,-370.4248 1293.7538,-374.8926 1289.1381,-379.5686 1245.5443,-404.1054 1231.6456,-411.0975 1212.4771,-419.0154 1209.5779,-420.0352 1190.2058,-425.694 1153.9464,-435.1671 1132.9635,-441.2945 1131.7358,-441.7257 1121.366,-445.681 1117.5104,-447.266 1108.9402,-451.3064 1075.3176,-506.2239 1005.9539,-496.4561 993.5235,-495.4507 987.4621,-495.1431 981.9569,-495.1949 978.3322,-495.3382 976.4119,-495.2985 968.9896,-494.9212 965.8732,-494.9508 960.4476,-499.5508 958.4393,-501.147 950.7792,-506.4671 940.502,-513.0903 933.192,-517.4193 932.9407,-517.5548 923.7048,-522.0684 921.9927,-522.816 876.9894,-537.9846 874.0747,-539.1165 862.2282,-544.3363 856.3835,-547.5079 864.0375,-590.4036 864.5144,-598.7371 864.4751,-610.5387 864.5831,-611.4609 889.2954,-749.9565 909.4203,-763.1309 920.9092,-770.9278 929.8499,-777.4193 951.4203,-825.1333 963.6433,-850.0153 953.0158,-872.138 921.1346,-941.2974 760.4837,-971.5542 745.6855,-975.0248 742.1171,-976.1086 710.2368,-1001.668 658.759,-1013.6668 653.4409,-1015.0273 633.0258,-1013.3301 626.411,-1013.2075 607.8657,-1014.0603 599.0502,-1014.8449 577.7014,-1017.6652 552.9791,-1021.4558 434.5284,-915.8215 423.7288,-915.4977 "/>
<polyline fill="none" stroke="#000000" points="618.4741,-505.0049 611.9178,-514.111 610.3054,-516.541 597.2115,-539.8457 592.0058,-539.3152 586.4864,-538.9099 572.0164,-539.0768 571.0197,-539.0321 570.0788,-539.0698 558.2864,-538.877 557.6179,-538.9041 549.1558,-539.007 543.2548,-538.9119 542.4427,-538.9449 535.4804,-538.8345 530.9719,-538.8908 512.6093,-537.5647 504.4327,-536.5146 501.5997,-536.0715 499.1586,-535.6211 498.9789,-535.5829 492.2156,-533.9504 474.5042,-529.1688 470.6308,-527.9072 439.7973,-516.9956 333.1884,-519.3871 281.9405,-542.7119 237.4728,-513.8673 235.3423,-513.1279 216.7814,-507.5289 157.3514,-492.3056 93.9249,-372.986 89.1315,-337.9662 89.7131,-315.6239 89.128,-290.1499 86.6864,-238.6334 98.3577,-218.6434 173.3274,-176.5632 204.9238,-169.3042 220.2076,-167.6132 222.8394,-167.267 224.5995,-166.9986 225.3989,-166.8429 245.6752,-162.4606 255.5719,-160.1146 293.675,-150.2927 297.3443,-139.891 298.5672,-137.7623 316.263,-103.8513 343.4677,-48.6591 388.7573,.0504 401.8568,56.0486 469.8808,119.6449 523.7782,145.9491 524.4322,146.2824 529.1046,148.7655 536.3325,146.3348 553.3301,141.5791 569.7089,137.924 629.0341,125.8134 663.3179,104.3367 663.3179,-1.4243 664.3604,-18 663.3179,-51.1514 663.3179,-58.3148 734.2061,-144.0969 735.8309,-145.8733 738.0801,-146.1466 742.5187,-146.4874 758.7716,-147.3733 770.7002,-148.2912 788.845,-150.9105 796.114,-152.1218 798.8679,-152.7032 798.8845,-152.7075 799.751,-154.0035 790.1411,-261.7904 789.9468,-271.8018 789.3701,-278.1182 789.1718,-288.2735 789.2496,-289.7888 781.6434,-375.1013 757.8036,-377.2564 757.4644,-377.2772 746.2148,-377.3151 741.5586,-377.4661 740.4246,-377.5359 735.6951,-377.5514 733.2015,-377.487 731.9082,-377.4912 729.0807,-382.5069 717.2289,-402.0948 712.7034,-408.3908 710.2256,-411.5392 703.4126,-419.4219 700.1812,-423.6562 698.8688,-425.183 686.142,-438.3013 682.8972,-440.6767 681.1334,-442.6365 654.4748,-466.9999 649.3858,-470.5236 648.1833,-471.5482 637.4303,-482.6752 633.7914,-487.6681 624.9146,-496.8394 618.4741,-505.0049 "/>
<polyline fill="none" stroke="#000000" points="1367.7664,-626.4372 1359.828,-626.5709 1356.6733,-626.8155 1354.4133,-626.8533 1345.4888,-626.7321 1343.5892,-626.8214 1332.8749,-626.6747 1331.4277,-626.6987 1328.9014,-626.5875 1322.3988,-626.498 1306.6677,-625.3287 1289.1381,-623.499 1240.3597,-640.5419 1237.2922,-641.7978 1228.304,-646.0347 1223.7546,-642.461 1216.0389,-637.0206 1203.7653,-628.8594 1198.798,-625.7656 1120.7584,-583.5806 1107.8513,-575.5382 1100.0288,-570.0264 1089.4789,-562.1617 1083.4697,-534.6582 1078.7285,-517.4571 1075.3176,-506.2239 1108.9402,-451.3064 1117.5104,-447.266 1121.366,-445.681 1131.7358,-441.7257 1132.9635,-441.2945 1153.9464,-435.1671 1190.2058,-425.694 1209.5779,-420.0352 1212.4771,-419.0154 1231.6456,-411.0975 1245.5443,-404.1054 1289.1381,-379.5686 1293.7538,-374.8926 1298.3505,-370.4248 1330.1895,-362.5179 1337.0626,-360.6865 1347.4761,-357.5332 1365.7742,-351.3261 1373.6967,-348.4973 1378.0271,-346.6391 1393.7183,-346.7012 1398.8809,-346.3225 1412.2581,-346.3818 1422.9048,-346.5946 1428.4891,-346.5336 1497.4595,-346.8518 1524.0773,-358.9729 1592.5149,-441.6986 1558.2891,-518.0045 1551.3715,-534.3723 1516.7697,-627.9859 1413.6909,-626.6636 1412.2625,-626.7314 1411.9836,-626.7278 1410.2487,-626.6528 1408.0674,-626.6244 1398.5151,-626.7892 1391.7046,-626.7 1388.9812,-626.8291 1383.6102,-626.5955 1383.0219,-626.5877 1373.5195,-626.7494 1371.6331,-626.6672 1369.6113,-626.5176 1367.7664,-626.4372 "/>
<!-- authconfig&#45;&gt;policycoreutils -->
<g id="edge1" class="edge">
<title>authconfig&#45;&gt;policycoreutils</title>
<path fill="none" stroke="#444444" stroke-opacity="0.333333" d="M1219.1206,-786.6732C1216.858,-809.7939 1212.9269,-849.9647 1210.2704,-877.1103"/>
<polygon fill="#444444" fill-opacity="0.333333" stroke="#444444" stroke-opacity="0.333333" points="1206.7775,-876.8682 1209.2868,-887.1615 1213.7442,-877.55 1206.7775,-876.8682"/>
</g>
<!-- authconfig&#45;&gt;python3&#45;sssdconfig -->
<g id="edge2" class="edge">
<title>authconfig&#45;&gt;python3&#45;sssdconfig</title>
<path fill="none" stroke="#444444" stroke-opacity="0.333333" d="M1279.722,-750.4584C1285.047,-748.826 1290.4706,-747.1634 1295.8702,-745.5082"/>
<polygon fill="#444444" fill-opacity="0.333333" stroke="#444444" stroke-opacity="0.333333" points="1297.0021,-748.822 1305.5372,-742.5448 1294.9505,-742.1294 1297.0021,-748.822"/>
</g>
<!-- policycoreutils&#45;&gt;libselinux&#45;utils -->
<g id="edge3" class="edge">
<title>policycoreutils&#45;&gt;libselinux&#45;utils</title>
<path fill="none" stroke="#444444" stroke-opacity="0.333333" d="M1195.9863,-923.7235C1185.5601,-940.2981 1170.0693,-964.924 1158.2505,-983.7125"/>
<polygon fill="#444444" fill-opacity="0.333333" stroke="#444444" stroke-opacity="0.333333" points="1155.1438,-982.078 1152.7818,-992.4062 1161.069,-985.8053 1155.1438,-982.078"/>
</g>
<!-- firewalld&#45;&gt;firewalld&#45;filesystem -->
<g id="edge4" class="edge">
<title>firewalld&#45;&gt;firewalld&#45;filesystem</title>
<path fill="none" stroke="#444444" stroke-opacity="0.333333" d="M2180.7715,-184.2075C2187.2508,-185.4216 2193.9826,-186.683 2200.8144,-187.9631"/>
<polygon fill="#444444" fill-opacity="0.333333" stroke="#444444" stroke-opacity="0.333333" points="2200.4037,-191.447 2210.8773,-189.8487 2201.693,-184.5667 2200.4037,-191.447"/>
</g>
<!-- firewalld&#45;&gt;python3&#45;firewall -->
<g id="edge5" class="edge">
<title>firewalld&#45;&gt;python3&#45;firewall</title>
<path fill="none" stroke="#444444" stroke-opacity="0.333333" d="M2062.3689,-172.2074C2039.1605,-171.8499 2011.7937,-171.4282 1985.3558,-171.0209"/>
<polygon fill="#444444" fill-opacity="0.333333" stroke="#444444" stroke-opacity="0.333333" points="1985.3321,-167.5202 1975.2793,-170.8657 1985.2242,-174.5194 1985.3321,-167.5202"/>
</g>
<!-- python3&#45;firewall&#45;&gt;python3&#45;decorator -->
<g id="edge6" class="edge">
<title>python3&#45;firewall&#45;&gt;python3&#45;decorator</title>
<path fill="none" stroke="#444444" stroke-opacity="0.333333" d="M1857.1941,-187.6024C1836.4709,-205.5895 1804.631,-233.2256 1781.5432,-253.265"/>
<polygon fill="#444444" fill-opacity="0.333333" stroke="#444444" stroke-opacity="0.333333" points="1779.0322,-250.8099 1773.7744,-260.0081 1783.6207,-256.0964 1779.0322,-250.8099"/>
</g>
<!-- python3&#45;firewall&#45;&gt;python3&#45;slip&#45;dbus -->
<g id="edge7" class="edge">
<title>python3&#45;firewall&#45;&gt;python3&#45;slip&#45;dbus</title>
<path fill="none" stroke="#444444" stroke-opacity="0.333333" d="M1780.9445,-168.0769C1767.8499,-167.9028 1754.329,-167.723 1740.9978,-167.5458"/>
<polygon fill="#444444" fill-opacity="0.333333" stroke="#444444" stroke-opacity="0.333333" points="1740.8963,-164.0442 1730.8506,-167.4108 1740.8031,-171.0436 1740.8963,-164.0442"/>
</g>
<!-- python3&#45;slip&#45;dbus&#45;&gt;python3&#45;decorator -->
<g id="edge8" class="edge">
<title>python3&#45;slip&#45;dbus&#45;&gt;python3&#45;decorator</title>
<path fill="none" stroke="#444444" stroke-opacity="0.333333" d="M1648.4549,-184.0849C1669.1548,-202.7932 1701.6839,-232.1924 1724.8973,-253.1724"/>
<polygon fill="#444444" fill-opacity="0.333333" stroke="#444444" stroke-opacity="0.333333" points="1722.6162,-255.8284 1732.382,-259.9369 1727.3099,-250.6351 1722.6162,-255.8284"/>
</g>
<!-- python3&#45;slip&#45;dbus&#45;&gt;python3&#45;slip -->
<g id="edge9" class="edge">
<title>python3&#45;slip&#45;dbus&#45;&gt;python3&#45;slip</title>
<path fill="none" stroke="#444444" stroke-opacity="0.333333" d="M1526.3522,-165.1925C1507.692,-165.0358 1488.3929,-164.8738 1470.2621,-164.7216"/>
<polygon fill="#444444" fill-opacity="0.333333" stroke="#444444" stroke-opacity="0.333333" points="1470.0586,-161.2199 1460.0296,-164.6357 1469.9998,-168.2196 1470.0586,-161.2199"/>
</g>
<!-- python3&#45;slip&#45;&gt;libselinux&#45;python3 -->
<g id="edge53" class="edge">
<title>python3&#45;slip&#45;&gt;libselinux&#45;python3</title>
<path fill="none" stroke="#444444" stroke-opacity="0.333333" d="M1319.5856,-182.0177C1305.7145,-185.8796 1290.9512,-189.99 1276.7428,-193.9459"/>
<polygon fill="#444444" fill-opacity="0.333333" stroke="#444444" stroke-opacity="0.333333" points="1275.7074,-190.601 1267.0126,-196.655 1277.585,-197.3445 1275.7074,-190.601"/>
</g>
<!-- libmbim&#45;&gt;libgudev -->
<g id="edge10" class="edge">
<title>libmbim&#45;&gt;libgudev</title>
<path fill="none" stroke="#444444" stroke-opacity="0.333333" d="M108.3714,-787.8061C114.5327,-778.2503 122.1995,-766.3594 129.011,-755.7951"/>
<polygon fill="#444444" fill-opacity="0.333333" stroke="#444444" stroke-opacity="0.333333" points="132.0023,-757.6145 134.4797,-747.3134 126.1192,-753.8213 132.0023,-757.6145"/>
</g>
<!-- libmbim&#45;utils&#45;&gt;libmbim -->
<g id="edge11" class="edge">
<title>libmbim&#45;utils&#45;&gt;libmbim</title>
<path fill="none" stroke="#444444" stroke-opacity="0.333333" d="M82.9618,-700.4742C85.594,-720.7686 89.8777,-753.7968 92.9515,-777.4972"/>
<polygon fill="#444444" fill-opacity="0.333333" stroke="#444444" stroke-opacity="0.333333" points="89.5112,-778.1842 94.2685,-787.6509 96.4531,-777.2838 89.5112,-778.1842"/>
</g>
<!-- libmbim&#45;utils&#45;&gt;libgudev -->
<g id="edge12" class="edge">
<title>libmbim&#45;utils&#45;&gt;libgudev</title>
<path fill="none" stroke="#444444" stroke-opacity="0.333333" d="M105.74,-700.2662C107.8875,-701.8081 110.0812,-703.3832 112.2813,-704.963"/>
<polygon fill="#444444" fill-opacity="0.333333" stroke="#444444" stroke-opacity="0.333333" points="110.5509,-708.0293 120.7152,-711.0187 114.6336,-702.3432 110.5509,-708.0293"/>
</g>
<!-- libproxy&#45;&gt;libmodman -->
<g id="edge13" class="edge">
<title>libproxy&#45;&gt;libmodman</title>
<path fill="none" stroke="#444444" stroke-opacity="0.333333" d="M856.0711,-18C855.9137,-18 855.7562,-18 855.5986,-18"/>
<polygon fill="#444444" fill-opacity="0.333333" stroke="#444444" stroke-opacity="0.333333" points="858.4865,-14.5001 848.4865,-18 858.4864,-21.5001 858.4865,-14.5001"/>
</g>
<!-- libqmi&#45;&gt;libmbim -->
<g id="edge14" class="edge">
<title>libqmi&#45;&gt;libmbim</title>
<path fill="none" stroke="#444444" stroke-opacity="0.333333" d="M136.4812,-897.9677C128.8839,-880.4255 117.2857,-853.645 108.5601,-833.4976"/>
<polygon fill="#444444" fill-opacity="0.333333" stroke="#444444" stroke-opacity="0.333333" points="111.7235,-831.9948 104.5375,-824.2094 105.3,-834.7767 111.7235,-831.9948"/>
</g>
<!-- libqmi&#45;utils&#45;&gt;libmbim -->
<g id="edge15" class="edge">
<title>libqmi&#45;utils&#45;&gt;libmbim</title>
<path fill="none" stroke="#444444" stroke-opacity="0.333333" d="M162.1052,-834.9592C157.059,-832.7259 151.8554,-830.423 146.6906,-828.1373"/>
<polygon fill="#444444" fill-opacity="0.333333" stroke="#444444" stroke-opacity="0.333333" points="148.0392,-824.9067 137.4782,-824.0602 145.2063,-831.3079 148.0392,-824.9067"/>
</g>
<!-- libqmi&#45;utils&#45;&gt;libgudev -->
<g id="edge16" class="edge">
<title>libqmi&#45;utils&#45;&gt;libgudev</title>
<path fill="none" stroke="#444444" stroke-opacity="0.333333" d="M194.4963,-834.7417C185.0661,-814.1796 169.639,-780.5417 158.7451,-756.7883"/>
<polygon fill="#444444" fill-opacity="0.333333" stroke="#444444" stroke-opacity="0.333333" points="161.8782,-755.2238 154.528,-747.5932 155.5154,-758.1419 161.8782,-755.2238"/>
</g>
<!-- libqmi&#45;utils&#45;&gt;libqmi -->
<g id="edge17" class="edge">
<title>libqmi&#45;utils&#45;&gt;libqmi</title>
<path fill="none" stroke="#444444" stroke-opacity="0.333333" d="M185.9465,-871.2685C180.3186,-877.3436 173.9455,-884.2233 167.9095,-890.739"/>
<polygon fill="#444444" fill-opacity="0.333333" stroke="#444444" stroke-opacity="0.333333" points="165.2717,-888.4361 161.0434,-898.1507 170.4069,-893.1933 165.2717,-888.4361"/>
</g>
<!-- ModemManager&#45;&gt;libmbim -->
<g id="edge18" class="edge">
<title>ModemManager&#45;&gt;libmbim</title>
<path fill="none" stroke="#444444" stroke-opacity="0.333333" d="M207.781,-782.2019C190.1863,-785.968 171.7226,-789.9201 155.0101,-793.4974"/>
<polygon fill="#444444" fill-opacity="0.333333" stroke="#444444" stroke-opacity="0.333333" points="153.8999,-790.1557 144.854,-795.6713 155.3651,-797.0007 153.8999,-790.1557"/>
</g>
<!-- ModemManager&#45;&gt;libgudev -->
<g id="edge19" class="edge">
<title>ModemManager&#45;&gt;libgudev</title>
<path fill="none" stroke="#444444" stroke-opacity="0.333333" d="M216.0276,-747.9478C214.0425,-747.4171 212.056,-746.8861 210.0749,-746.3565"/>
<polygon fill="#444444" fill-opacity="0.333333" stroke="#444444" stroke-opacity="0.333333" points="210.8085,-742.9298 200.2438,-743.7285 209.0007,-749.6924 210.8085,-742.9298"/>
</g>
<!-- ModemManager&#45;&gt;libmbim&#45;utils -->
<g id="edge20" class="edge">
<title>ModemManager&#45;&gt;libmbim&#45;utils</title>
<path fill="none" stroke="#444444" stroke-opacity="0.333333" d="M239.4879,-747.811C208.5083,-735.0208 166.8779,-717.8334 134.0008,-704.2598"/>
<polygon fill="#444444" fill-opacity="0.333333" stroke="#444444" stroke-opacity="0.333333" points="135.1181,-700.9346 124.5392,-700.3535 132.4468,-707.4049 135.1181,-700.9346"/>
</g>
<!-- ModemManager&#45;&gt;libqmi -->
<g id="edge21" class="edge">
<title>ModemManager&#45;&gt;libqmi</title>
<path fill="none" stroke="#444444" stroke-opacity="0.333333" d="M266.7341,-784.104C242.181,-810.5997 196.3509,-860.0557 168.2781,-890.3495"/>
<polygon fill="#444444" fill-opacity="0.333333" stroke="#444444" stroke-opacity="0.333333" points="165.4354,-888.2679 161.2055,-897.9817 170.5698,-893.0259 165.4354,-888.2679"/>
</g>
<!-- ModemManager&#45;&gt;libqmi&#45;utils -->
<g id="edge22" class="edge">
<title>ModemManager&#45;&gt;libqmi&#45;utils</title>
<path fill="none" stroke="#444444" stroke-opacity="0.333333" d="M266.8093,-784.0185C255.1305,-796.6183 239.3715,-813.62 226.4212,-827.5915"/>
<polygon fill="#444444" fill-opacity="0.333333" stroke="#444444" stroke-opacity="0.333333" points="223.7904,-825.2812 219.5593,-834.9946 228.9242,-830.0398 223.7904,-825.2812"/>
</g>
<!-- ModemManager&#45;&gt;ModemManager&#45;glib -->
<g id="edge23" class="edge">
<title>ModemManager&#45;&gt;ModemManager&#45;glib</title>
<path fill="none" stroke="#444444" stroke-opacity="0.333333" d="M359.2171,-760.1898C359.3736,-760.1778 359.5301,-760.1658 359.6868,-760.1538"/>
<polygon fill="#444444" fill-opacity="0.333333" stroke="#444444" stroke-opacity="0.333333" points="357.0691,-763.8647 366.7725,-759.6108 356.5343,-756.8852 357.0691,-763.8647"/>
</g>
<!-- NetworkManager&#45;adsl&#45;&gt;NetworkManager -->
<g id="edge24" class="edge">
<title>NetworkManager&#45;adsl&#45;&gt;NetworkManager</title>
<path fill="none" stroke="#444444" stroke-opacity="0.333333" d="M753.5002,-592.7837C747.0312,-570.6063 735.9908,-532.7565 728.4285,-506.8309"/>
<polygon fill="#444444" fill-opacity="0.333333" stroke="#444444" stroke-opacity="0.333333" points="731.7799,-505.8213 725.6196,-497.2014 725.0599,-507.7815 731.7799,-505.8213"/>
</g>
<!-- NetworkManager&#45;&gt;jansson -->
<g id="edge25" class="edge">
<title>NetworkManager&#45;&gt;jansson</title>
<path fill="none" stroke="#444444" stroke-opacity="0.333333" d="M707.5368,-460.6758C688.284,-433.1185 651.6947,-380.7466 629.503,-348.9827"/>
<polygon fill="#444444" fill-opacity="0.333333" stroke="#444444" stroke-opacity="0.333333" points="632.2483,-346.8009 623.6519,-340.6079 626.51,-350.81 632.2483,-346.8009"/>
</g>
<!-- NetworkManager&#45;&gt;libndp -->
<g id="edge26" class="edge">
<title>NetworkManager&#45;&gt;libndp</title>
<path fill="none" stroke="#444444" stroke-opacity="0.333333" d="M806.5142,-473.1737C806.6675,-473.1635 806.8207,-473.1533 806.9738,-473.143"/>
<polygon fill="#444444" fill-opacity="0.333333" stroke="#444444" stroke-opacity="0.333333" points="804.0175,-476.8483 813.7621,-472.6899 803.5512,-469.8639 804.0175,-476.8483"/>
</g>
<!-- NetworkManager&#45;&gt;NetworkManager&#45;libnm -->
<g id="edge27" class="edge">
<title>NetworkManager&#45;&gt;NetworkManager&#45;libnm</title>
<path fill="none" stroke="#444444" stroke-opacity="0.333333" d="M668.7512,-460.8984C664.4354,-459.3884 660.0457,-457.8526 655.6671,-456.3207"/>
<polygon fill="#444444" fill-opacity="0.333333" stroke="#444444" stroke-opacity="0.333333" points="656.7271,-452.9836 646.1323,-452.9848 654.4154,-459.5909 656.7271,-452.9836"/>
</g>
<!-- NetworkManager&#45;&gt;libpsl -->
<g id="edge28" class="edge">
<title>NetworkManager&#45;&gt;libpsl</title>
<path fill="none" stroke="#444444" stroke-opacity="0.333333" d="M732.5944,-460.9187C756.1979,-426.3676 807.9332,-350.6369 835.4955,-310.2909"/>
<polygon fill="#444444" fill-opacity="0.333333" stroke="#444444" stroke-opacity="0.333333" points="838.4006,-312.243 841.1515,-302.0115 832.6206,-308.2944 838.4006,-312.243"/>
</g>
<!-- NetworkManager&#45;&gt;polkit&#45;libs -->
<g id="edge29" class="edge">
<title>NetworkManager&#45;&gt;polkit&#45;libs</title>
<path fill="none" stroke="#444444" stroke-opacity="0.333333" d="M756.4965,-497.0333C796.3578,-516.9639 860.4975,-549.0338 903.6183,-570.5941"/>
<polygon fill="#444444" fill-opacity="0.333333" stroke="#444444" stroke-opacity="0.333333" points="902.2433,-573.8198 912.7529,-575.1614 905.3739,-567.5588 902.2433,-573.8198"/>
</g>
<!-- NetworkManager&#45;libnm&#45;&gt;jansson -->
<g id="edge30" class="edge">
<title>NetworkManager&#45;libnm&#45;&gt;jansson</title>
<path fill="none" stroke="#444444" stroke-opacity="0.333333" d="M597.1226,-416.8446C599.7462,-398.9766 603.7994,-371.3731 606.8456,-350.6267"/>
<polygon fill="#444444" fill-opacity="0.333333" stroke="#444444" stroke-opacity="0.333333" points="610.344,-350.893 608.334,-340.4906 603.4183,-349.876 610.344,-350.893"/>
</g>
<!-- NetworkManager&#45;bluetooth&#45;&gt;ModemManager&#45;glib -->
<g id="edge31" class="edge">
<title>NetworkManager&#45;bluetooth&#45;&gt;ModemManager&#45;glib</title>
<path fill="none" stroke="#444444" stroke-opacity="0.333333" d="M585.1384,-725.7975C576.7471,-727.6743 568.1774,-729.5911 559.6843,-731.4906"/>
<polygon fill="#444444" fill-opacity="0.333333" stroke="#444444" stroke-opacity="0.333333" points="558.7596,-728.1109 549.7647,-733.7093 560.2876,-734.9421 558.7596,-728.1109"/>
</g>
<!-- NetworkManager&#45;bluetooth&#45;&gt;NetworkManager -->
<g id="edge32" class="edge">
<title>NetworkManager&#45;bluetooth&#45;&gt;NetworkManager</title>
<path fill="none" stroke="#444444" stroke-opacity="0.333333" d="M670.1118,-689.4299C679.6312,-649.4957 702.2863,-554.4562 713.6091,-506.9568"/>
<polygon fill="#444444" fill-opacity="0.333333" stroke="#444444" stroke-opacity="0.333333" points="717.0588,-507.5788 715.9731,-497.0398 710.2496,-505.9556 717.0588,-507.5788"/>
</g>
<!-- NetworkManager&#45;bluetooth&#45;&gt;bluez -->
<g id="edge33" class="edge">
<title>NetworkManager&#45;bluetooth&#45;&gt;bluez</title>
<path fill="none" stroke="#444444" stroke-opacity="0.333333" d="M676.5809,-725.9787C690.0653,-748.6277 713.2055,-787.4947 728.7735,-813.6433"/>
<polygon fill="#444444" fill-opacity="0.333333" stroke="#444444" stroke-opacity="0.333333" points="725.813,-815.5126 733.936,-822.3145 731.8277,-811.9316 725.813,-815.5126"/>
</g>
<!-- NetworkManager&#45;bluetooth&#45;&gt;bluez&#45;libs -->
<g id="edge34" class="edge">
<title>NetworkManager&#45;bluetooth&#45;&gt;bluez&#45;libs</title>
<path fill="none" stroke="#444444" stroke-opacity="0.333333" d="M660.8348,-725.8267C652.6784,-755.8508 636.2733,-816.2397 626.6324,-851.7289"/>
<polygon fill="#444444" fill-opacity="0.333333" stroke="#444444" stroke-opacity="0.333333" points="623.2336,-850.8897 623.9895,-861.4575 629.9888,-852.7248 623.2336,-850.8897"/>
</g>
<!-- NetworkManager&#45;bluetooth&#45;&gt;NetworkManager&#45;wwan -->
<g id="edge35" class="edge">
<title>NetworkManager&#45;bluetooth&#45;&gt;NetworkManager&#45;wwan</title>
<path fill="none" stroke="#444444" stroke-opacity="0.333333" d="M626.3439,-689.7001C609.9306,-682.1718 590.6964,-673.3496 573.3789,-665.4065"/>
<polygon fill="#444444" fill-opacity="0.333333" stroke="#444444" stroke-opacity="0.333333" points="574.5341,-662.0858 563.9854,-661.098 571.6157,-668.4485 574.5341,-662.0858"/>
</g>
<!-- NetworkManager&#45;wwan&#45;&gt;ModemManager -->
<g id="edge36" class="edge">
<title>NetworkManager&#45;wwan&#45;&gt;ModemManager</title>
<path fill="none" stroke="#444444" stroke-opacity="0.333333" d="M489.0392,-660.9302C446.2992,-682.7785 374.2564,-719.6063 327.8157,-743.3464"/>
<polygon fill="#444444" fill-opacity="0.333333" stroke="#444444" stroke-opacity="0.333333" points="326.1961,-740.2434 318.8852,-747.9116 329.3823,-746.4763 326.1961,-740.2434"/>
</g>
<!-- NetworkManager&#45;wwan&#45;&gt;ModemManager&#45;glib -->
<g id="edge37" class="edge">
<title>NetworkManager&#45;wwan&#45;&gt;ModemManager&#45;glib</title>
<path fill="none" stroke="#444444" stroke-opacity="0.333333" d="M514.9223,-661.37C506.124,-678.6804 492.8619,-704.7732 482.8431,-724.4851"/>
<polygon fill="#444444" fill-opacity="0.333333" stroke="#444444" stroke-opacity="0.333333" points="479.63,-723.0823 478.219,-733.5828 485.8702,-726.254 479.63,-723.0823"/>
</g>
<!-- NetworkManager&#45;wwan&#45;&gt;NetworkManager -->
<g id="edge38" class="edge">
<title>NetworkManager&#45;wwan&#45;&gt;NetworkManager</title>
<path fill="none" stroke="#444444" stroke-opacity="0.333333" d="M546.0321,-624.7258C581.3687,-595.1609 651.3346,-536.6227 691.0196,-503.4196"/>
<polygon fill="#444444" fill-opacity="0.333333" stroke="#444444" stroke-opacity="0.333333" points="693.3456,-506.037 698.7693,-496.9357 688.8537,-500.6682 693.3456,-506.037"/>
</g>
<!-- NetworkManager&#45;team&#45;&gt;NetworkManager -->
<g id="edge39" class="edge">
<title>NetworkManager&#45;team&#45;&gt;NetworkManager</title>
<path fill="none" stroke="#444444" stroke-opacity="0.333333" d="M692.9779,-294.4757C698.2486,-330.0718 709.8883,-408.6812 716.135,-450.8692"/>
<polygon fill="#444444" fill-opacity="0.333333" stroke="#444444" stroke-opacity="0.333333" points="712.6728,-451.3824 717.5999,-460.7619 719.5973,-450.357 712.6728,-451.3824"/>
</g>
<!-- NetworkManager&#45;team&#45;&gt;jansson -->
<g id="edge40" class="edge">
<title>NetworkManager&#45;team&#45;&gt;jansson</title>
<path fill="none" stroke="#444444" stroke-opacity="0.333333" d="M659.3813,-294.1728C656.5118,-295.8505 653.5778,-297.5658 650.6436,-299.2812"/>
<polygon fill="#444444" fill-opacity="0.333333" stroke="#444444" stroke-opacity="0.333333" points="648.7713,-296.3215 641.9049,-304.3902 652.3043,-302.3645 648.7713,-296.3215"/>
</g>
<!-- NetworkManager&#45;team&#45;&gt;teamd -->
<g id="edge41" class="edge">
<title>NetworkManager&#45;team&#45;&gt;teamd</title>
<path fill="none" stroke="#444444" stroke-opacity="0.333333" d="M675.8801,-257.8672C659.9388,-237.6325 634.0983,-204.8324 616.0493,-181.9223"/>
<polygon fill="#444444" fill-opacity="0.333333" stroke="#444444" stroke-opacity="0.333333" points="618.7227,-179.66 609.785,-173.9708 613.2241,-183.9919 618.7227,-179.66"/>
</g>
<!-- teamd&#45;&gt;jansson -->
<g id="edge42" class="edge">
<title>teamd&#45;&gt;jansson</title>
<path fill="none" stroke="#444444" stroke-opacity="0.333333" d="M597.2574,-174.0786C599.9304,-202.9839 605.1779,-259.7278 608.3526,-294.0586"/>
<polygon fill="#444444" fill-opacity="0.333333" stroke="#444444" stroke-opacity="0.333333" points="604.8986,-294.7185 609.3047,-304.3537 611.8689,-294.0739 604.8986,-294.7185"/>
</g>
<!-- teamd&#45;&gt;libdaemon -->
<g id="edge43" class="edge">
<title>teamd&#45;&gt;libdaemon</title>
<path fill="none" stroke="#444444" stroke-opacity="0.333333" d="M557.9403,-146.3845C553.9582,-145.3736 549.8245,-144.3242 545.6258,-143.2583"/>
<polygon fill="#444444" fill-opacity="0.333333" stroke="#444444" stroke-opacity="0.333333" points="546.3053,-139.8198 535.7515,-140.7515 544.5828,-146.6046 546.3053,-139.8198"/>
</g>
<!-- teamd&#45;&gt;libteam -->
<g id="edge44" class="edge">
<title>teamd&#45;&gt;libteam</title>
<path fill="none" stroke="#444444" stroke-opacity="0.333333" d="M588.7087,-137.9068C579.7374,-114.3621 563.948,-72.9239 553.4845,-45.4633"/>
<polygon fill="#444444" fill-opacity="0.333333" stroke="#444444" stroke-opacity="0.333333" points="556.7243,-44.1361 549.893,-36.0377 550.1831,-46.6285 556.7243,-44.1361"/>
</g>
<!-- NetworkManager&#45;tui&#45;&gt;NetworkManager -->
<g id="edge45" class="edge">
<title>NetworkManager&#45;tui&#45;&gt;NetworkManager</title>
<path fill="none" stroke="#444444" stroke-opacity="0.333333" d="M557.6921,-407.9485C589.9134,-422.0146 634.8539,-441.6332 669.3244,-456.6811"/>
<polygon fill="#444444" fill-opacity="0.333333" stroke="#444444" stroke-opacity="0.333333" points="668.1848,-460.0026 678.7499,-460.7958 670.9855,-453.5872 668.1848,-460.0026"/>
</g>
<!-- NetworkManager&#45;tui&#45;&gt;jansson -->
<g id="edge46" class="edge">
<title>NetworkManager&#45;tui&#45;&gt;jansson</title>
<path fill="none" stroke="#444444" stroke-opacity="0.333333" d="M541.775,-371.8593C552.6901,-364.0695 565.6101,-354.849 577.3139,-346.4964"/>
<polygon fill="#444444" fill-opacity="0.333333" stroke="#444444" stroke-opacity="0.333333" points="579.4685,-349.2586 585.5751,-340.6006 575.4022,-343.5608 579.4685,-349.2586"/>
</g>
<!-- NetworkManager&#45;tui&#45;&gt;NetworkManager&#45;libnm -->
<g id="edge47" class="edge">
<title>NetworkManager&#45;tui&#45;&gt;NetworkManager&#45;libnm</title>
<path fill="none" stroke="#444444" stroke-opacity="0.333333" d="M547.7282,-407.9719C549.9542,-409.2548 552.2151,-410.5578 554.4804,-411.8633"/>
<polygon fill="#444444" fill-opacity="0.333333" stroke="#444444" stroke-opacity="0.333333" points="552.763,-414.9132 563.1748,-416.8741 556.2583,-408.8483 552.763,-414.9132"/>
</g>
<!-- NetworkManager&#45;tui&#45;&gt;newt -->
<g id="edge48" class="edge">
<title>NetworkManager&#45;tui&#45;&gt;newt</title>
<path fill="none" stroke="#444444" stroke-opacity="0.333333" d="M463.8591,-371.9109C441.4215,-364.2174 415.5756,-355.3553 394.3526,-348.0783"/>
<polygon fill="#444444" fill-opacity="0.333333" stroke="#444444" stroke-opacity="0.333333" points="395.2437,-344.6839 384.6491,-344.7511 392.9732,-351.3054 395.2437,-344.6839"/>
</g>
<!-- newt&#45;&gt;slang -->
<g id="edge49" class="edge">
<title>newt&#45;&gt;slang</title>
<path fill="none" stroke="#444444" stroke-opacity="0.333333" d="M319.0837,-326.3328C306.7543,-323.6416 292.4531,-320.52 279.0146,-317.5867"/>
<polygon fill="#444444" fill-opacity="0.333333" stroke="#444444" stroke-opacity="0.333333" points="279.4696,-314.1037 268.9532,-315.3906 277.9768,-320.9427 279.4696,-314.1037"/>
</g>
<!-- NetworkManager&#45;wifi&#45;&gt;NetworkManager -->
<g id="edge50" class="edge">
<title>NetworkManager&#45;wifi&#45;&gt;NetworkManager</title>
<path fill="none" stroke="#444444" stroke-opacity="0.333333" d="M901.2063,-415.0501C865.7826,-427.5579 818.4961,-444.2543 781.1508,-457.4406"/>
<polygon fill="#444444" fill-opacity="0.333333" stroke="#444444" stroke-opacity="0.333333" points="779.657,-454.2562 771.3928,-460.8861 781.9876,-460.8569 779.657,-454.2562"/>
</g>
<!-- NetworkManager&#45;wifi&#45;&gt;wpa_supplicant -->
<g id="edge51" class="edge">
<title>NetworkManager&#45;wifi&#45;&gt;wpa_supplicant</title>
<path fill="none" stroke="#444444" stroke-opacity="0.333333" d="M995.02,-378.9012C1013.0817,-371.241 1034.304,-362.2404 1053.2825,-354.1913"/>
<polygon fill="#444444" fill-opacity="0.333333" stroke="#444444" stroke-opacity="0.333333" points="1054.8438,-357.331 1062.6835,-350.2043 1052.1106,-350.8866 1054.8438,-357.331"/>
</g>
<!-- psl&#45;&gt;libpsl -->
<g id="edge52" class="edge">
<title>psl&#45;&gt;libpsl</title>
<path fill="none" stroke="#444444" stroke-opacity="0.333333" d="M927.6064,-157.05C912.9918,-182.0792 886.4475,-227.5392 869.4444,-256.6589"/>
<polygon fill="#444444" fill-opacity="0.333333" stroke="#444444" stroke-opacity="0.333333" points="866.3063,-255.0921 864.2864,-265.4926 872.3513,-258.6218 866.3063,-255.0921"/>
</g>
<!-- realmd&#45;&gt;authconfig -->
<g id="edge54" class="edge">
<title>realmd&#45;&gt;authconfig</title>
<path fill="none" stroke="#444444" stroke-opacity="0.333333" d="M1126.1891,-697.8027C1144.1727,-711.2247 1168.8215,-729.6214 1188.4653,-744.2824"/>
<polygon fill="#444444" fill-opacity="0.333333" stroke="#444444" stroke-opacity="0.333333" points="1186.4361,-747.1353 1196.5436,-750.3116 1190.623,-741.5254 1186.4361,-747.1353"/>
</g>
<!-- realmd&#45;&gt;polkit&#45;libs -->
<g id="edge55" class="edge">
<title>realmd&#45;&gt;polkit&#45;libs</title>
<path fill="none" stroke="#444444" stroke-opacity="0.333333" d="M1069.7241,-661.4835C1046.4661,-648.3474 1014.8246,-630.4763 989.7407,-616.309"/>
<polygon fill="#444444" fill-opacity="0.333333" stroke="#444444" stroke-opacity="0.333333" points="991.2521,-613.143 980.8237,-611.2726 987.8096,-619.238 991.2521,-613.143"/>
</g>
<!-- xmlrpc&#45;c&#45;client&#45;&gt;xmlrpc&#45;c -->
<g id="edge56" class="edge">
<title>xmlrpc&#45;c&#45;client&#45;&gt;xmlrpc&#45;c</title>
<path fill="none" stroke="#444444" stroke-opacity="0.333333" d="M1283.6899,-529C1283.53,-529 1283.3701,-529 1283.2102,-529"/>
<polygon fill="#444444" fill-opacity="0.333333" stroke="#444444" stroke-opacity="0.333333" points="1286.0911,-525.5001 1276.091,-529 1286.091,-532.5001 1286.0911,-525.5001"/>
</g>
<!-- authconfig -->
<g id="node1" class="node">
<title>authconfig</title>
<text text-anchor="middle" x="1220.9" y="-764.79" font-family="monospace" font-size="14.00" fill="#000000">authconfig</text>
</g>
<!-- policycoreutils -->
<g id="node2" class="node">
<title>policycoreutils</title>
<text text-anchor="middle" x="1207.5" y="-901.72" font-family="monospace" font-size="14.00" fill="#000000">policycoreutils</text>
</g>
<!-- python3&#45;sssdconfig -->
<g id="node3" class="node">
<title>python3&#45;sssdconfig</title>
<text text-anchor="middle" x="1364.5" y="-720.77" font-family="monospace" font-size="14.00" fill="#000000">python3&#45;sssdconfig</text>
</g>
<!-- libselinux&#45;utils -->
<g id="node4" class="node">
<title>libselinux&#45;utils</title>
<text text-anchor="middle" x="1141.4" y="-1006.8" font-family="monospace" font-size="14.00" fill="#000000">libselinux&#45;utils</text>
</g>
<!-- firewalld -->
<g id="node5" class="node">
<title>firewalld</title>
<text text-anchor="middle" x="2121.6" y="-169.42" font-family="monospace" font-size="14.00" fill="#000000">firewalld</text>
</g>
<!-- firewalld&#45;filesystem -->
<g id="node6" class="node">
<title>firewalld&#45;filesystem</title>
<text text-anchor="middle" x="2307" y="-204.16" font-family="monospace" font-size="14.00" fill="#000000">firewalld&#45;filesystem</text>
</g>
<!-- python3&#45;firewall -->
<g id="node7" class="node">
<title>python3&#45;firewall</title>
<text text-anchor="middle" x="1878.2" y="-165.67" font-family="monospace" font-size="14.00" fill="#000000">python3&#45;firewall</text>
</g>
<!-- python3&#45;decorator -->
<g id="node8" class="node">
<title>python3&#45;decorator</title>
<text text-anchor="middle" x="1752.7" y="-274.6" font-family="monospace" font-size="14.00" fill="#000000">python3&#45;decorator</text>
</g>
<!-- python3&#45;slip&#45;dbus -->
<g id="node9" class="node">
<title>python3&#45;slip&#45;dbus</title>
<text text-anchor="middle" x="1628.5" y="-162.35" font-family="monospace" font-size="14.00" fill="#000000">python3&#45;slip&#45;dbus</text>
</g>
<!-- python3&#45;slip -->
<g id="node10" class="node">
<title>python3&#45;slip</title>
<text text-anchor="middle" x="1384.3" y="-160.3" font-family="monospace" font-size="14.00" fill="#000000">python3&#45;slip</text>
</g>
<!-- libmbim -->
<g id="node11" class="node">
<title>libmbim</title>
<text text-anchor="middle" x="96.647" y="-802.29" font-family="monospace" font-size="14.00" fill="#000000">libmbim</text>
</g>
<!-- libgudev -->
<g id="node12" class="node">
<title>libgudev</title>
<text text-anchor="middle" x="146.12" y="-725.56" font-family="monospace" font-size="14.00" fill="#000000">libgudev</text>
</g>
<!-- libmbim&#45;utils -->
<g id="node13" class="node">
<title>libmbim&#45;utils</title>
<text text-anchor="middle" x="80.593" y="-678.51" font-family="monospace" font-size="14.00" fill="#000000">libmbim&#45;utils</text>
</g>
<!-- libproxy -->
<g id="node14" class="node">
<title>libproxy</title>
<text text-anchor="middle" x="910.25" y="-14.3" font-family="monospace" font-size="14.00" fill="#000000">libproxy</text>
</g>
<!-- libmodman -->
<g id="node15" class="node">
<title>libmodman</title>
<text text-anchor="middle" x="789.14" y="-14.3" font-family="monospace" font-size="14.00" fill="#000000">libmodman</text>
</g>
<!-- libqmi -->
<g id="node16" class="node">
<title>libqmi</title>
<text text-anchor="middle" x="144.36" y="-912.46" font-family="monospace" font-size="14.00" fill="#000000">libqmi</text>
</g>
<!-- libqmi&#45;utils -->
<g id="node17" class="node">
<title>libqmi&#45;utils</title>
<text text-anchor="middle" x="202.87" y="-849.3" font-family="monospace" font-size="14.00" fill="#000000">libqmi&#45;utils</text>
</g>
<!-- ModemManager -->
<g id="node18" class="node">
<title>ModemManager</title>
<text text-anchor="middle" x="283.52" y="-762.29" font-family="monospace" font-size="14.00" fill="#000000">ModemManager</text>
</g>
<!-- ModemManager&#45;glib -->
<g id="node19" class="node">
<title>ModemManager&#45;glib</title>
<text text-anchor="middle" x="468.97" y="-748.08" font-family="monospace" font-size="14.00" fill="#000000">ModemManager&#45;glib</text>
</g>
<!-- NetworkManager&#45;adsl -->
<g id="node20" class="node">
<title>NetworkManager&#45;adsl</title>
<text text-anchor="middle" x="758.77" y="-607.15" font-family="monospace" font-size="14.00" fill="#000000">NetworkManager&#45;adsl</text>
</g>
<!-- NetworkManager -->
<g id="node21" class="node">
<title>NetworkManager</title>
<text text-anchor="middle" x="720.29" y="-475.23" font-family="monospace" font-size="14.00" fill="#000000">NetworkManager</text>
</g>
<!-- jansson -->
<g id="node22" class="node">
<title>jansson</title>
<text text-anchor="middle" x="610.98" y="-318.77" font-family="monospace" font-size="14.00" fill="#000000">jansson</text>
</g>
<!-- libndp -->
<g id="node23" class="node">
<title>libndp</title>
<text text-anchor="middle" x="857.05" y="-466.1" font-family="monospace" font-size="14.00" fill="#000000">libndp</text>
</g>
<!-- NetworkManager&#45;libnm -->
<g id="node24" class="node">
<title>NetworkManager&#45;libnm</title>
<text text-anchor="middle" x="594.47" y="-431.21" font-family="monospace" font-size="14.00" fill="#000000">NetworkManager&#45;libnm</text>
</g>
<!-- libpsl -->
<g id="node25" class="node">
<title>libpsl</title>
<text text-anchor="middle" x="853.62" y="-280.06" font-family="monospace" font-size="14.00" fill="#000000">libpsl</text>
</g>
<!-- polkit&#45;libs -->
<g id="node26" class="node">
<title>polkit&#45;libs</title>
<text text-anchor="middle" x="948.79" y="-589.48" font-family="monospace" font-size="14.00" fill="#000000">polkit&#45;libs</text>
</g>
<!-- NetworkManager&#45;bluetooth -->
<g id="node27" class="node">
<title>NetworkManager&#45;bluetooth</title>
<text text-anchor="middle" x="665.74" y="-704.07" font-family="monospace" font-size="14.00" fill="#000000">NetworkManager&#45;bluetooth</text>
</g>
<!-- bluez -->
<g id="node28" class="node">
<title>bluez</title>
<text text-anchor="middle" x="744.9" y="-837.03" font-family="monospace" font-size="14.00" fill="#000000">bluez</text>
</g>
<!-- bluez&#45;libs -->
<g id="node29" class="node">
<title>bluez&#45;libs</title>
<text text-anchor="middle" x="619.08" y="-875.83" font-family="monospace" font-size="14.00" fill="#000000">bluez&#45;libs</text>
</g>
<!-- NetworkManager&#45;wwan -->
<g id="node30" class="node">
<title>NetworkManager&#45;wwan</title>
<text text-anchor="middle" x="524.31" y="-639.2" font-family="monospace" font-size="14.00" fill="#000000">NetworkManager&#45;wwan</text>
</g>
<!-- NetworkManager&#45;team -->
<g id="node31" class="node">
<title>NetworkManager&#45;team</title>
<text text-anchor="middle" x="690.26" y="-272.42" font-family="monospace" font-size="14.00" fill="#000000">NetworkManager&#45;team</text>
</g>
<!-- teamd -->
<g id="node32" class="node">
<title>teamd</title>
<text text-anchor="middle" x="595.58" y="-152.24" font-family="monospace" font-size="14.00" fill="#000000">teamd</text>
</g>
<!-- libdaemon -->
<g id="node33" class="node">
<title>libdaemon</title>
<text text-anchor="middle" x="476.62" y="-122.04" font-family="monospace" font-size="14.00" fill="#000000">libdaemon</text>
</g>
<!-- libteam -->
<g id="node34" class="node">
<title>libteam</title>
<text text-anchor="middle" x="543.02" y="-14.3" font-family="monospace" font-size="14.00" fill="#000000">libteam</text>
</g>
<!-- NetworkManager&#45;tui -->
<g id="node35" class="node">
<title>NetworkManager&#45;tui</title>
<text text-anchor="middle" x="516.44" y="-386.24" font-family="monospace" font-size="14.00" fill="#000000">NetworkManager&#45;tui</text>
</g>
<!-- newt -->
<g id="node36" class="node">
<title>newt</title>
<text text-anchor="middle" x="351.69" y="-329.75" font-family="monospace" font-size="14.00" fill="#000000">newt</text>
</g>
<!-- slang -->
<g id="node37" class="node">
<title>slang</title>
<text text-anchor="middle" x="231.2" y="-303.45" font-family="monospace" font-size="14.00" fill="#000000">slang</text>
</g>
<!-- NetworkManager&#45;wifi -->
<g id="node38" class="node">
<title>NetworkManager&#45;wifi</title>
<text text-anchor="middle" x="952.44" y="-393.26" font-family="monospace" font-size="14.00" fill="#000000">NetworkManager&#45;wifi</text>
</g>
<!-- wpa_supplicant -->
<g id="node39" class="node">
<title>wpa_supplicant</title>
<text text-anchor="middle" x="1105.3" y="-328.43" font-family="monospace" font-size="14.00" fill="#000000">wpa_supplicant</text>
</g>
<!-- psl -->
<g id="node40" class="node">
<title>psl</title>
<text text-anchor="middle" x="938.14" y="-135.31" font-family="monospace" font-size="14.00" fill="#000000">psl</text>
</g>
<!-- libselinux&#45;python3 -->
<g id="node41" class="node">
<title>libselinux&#45;python3</title>
<text text-anchor="middle" x="1202.2" y="-211" font-family="monospace" font-size="14.00" fill="#000000">libselinux&#45;python3</text>
</g>
<!-- realmd -->
<g id="node42" class="node">
<title>realmd</title>
<text text-anchor="middle" x="1101.8" y="-675.9" font-family="monospace" font-size="14.00" fill="#000000">realmd</text>
</g>
<!-- xmlrpc&#45;c&#45;client -->
<g id="node43" class="node">
<title>xmlrpc&#45;c&#45;client</title>
<text text-anchor="middle" x="1374.9" y="-525.3" font-family="monospace" font-size="14.00" fill="#000000">xmlrpc&#45;c&#45;client</text>
</g>
<!-- xmlrpc&#45;c -->
<g id="node44" class="node">
<title>xmlrpc&#45;c</title>
<text text-anchor="middle" x="1221.9" y="-525.3" font-family="monospace" font-size="14.00" fill="#000000">xmlrpc&#45;c</text>
</g>
</g>
</svg>
