<?xml version="1.0" encoding="UTF-8" standalone="no"?>
<!DOCTYPE svg PUBLIC "-//W3C//DTD SVG 1.1//EN"
 "http://www.w3.org/Graphics/SVG/1.1/DTD/svg11.dtd">
<!-- Generated by graphviz version 2.40.1 (20161225.0304)
 -->
<!-- Title: G Pages: 1 -->
<svg width="2164pt" height="1114pt"
 viewBox="0.00 0.00 2164.33 1113.81" xmlns="http://www.w3.org/2000/svg" xmlns:xlink="http://www.w3.org/1999/xlink">
<g id="graph0" class="graph" transform="scale(1 1) rotate(0) translate(104.408 974.0554)">
<title>G</title>
<polygon fill="#dae2ff" stroke="transparent" points="-104.408,139.7561 -104.408,-974.0554 2059.9177,-974.0554 2059.9177,139.7561 -104.408,139.7561"/>
<polygon fill="#c1c8d8" stroke="#c1c8d8" points="751.7974,-13.8272 751.3433,-26.3586 751.2456,-27.7086 751.2456,-110.4923 765.65,-128.486 785.5059,-115.4935 798.5489,-106.391 833.6514,-80.0414 835.077,-79.0802 842.4827,-73.42 851.1166,-67.5836 860.7094,-62.8072 866.1646,-60.5841 868.0705,-59.9784 872.9571,-58.8489 882.1392,-57.5264 884.9157,-57.3725 888.9227,-57.5026 890.7469,-57.4014 896.275,-57.5809 898.3949,-57.4639 899.5002,-57.5967 901.0887,-57.6482 909.7037,-57.165 910.9843,-57.2067 913.6216,-57.5263 913.825,-57.5329 919.1092,-57.2387 919.8362,-57.2623 921.0053,-57.1972 928.6183,-57.4463 930.8073,-57.3245 940.4474,-58.49 988.7435,-68.5592 993.5117,-76.8927 998.982,-85.4881 1040.4939,-77.4817 1052.6248,-76.453 1054.5374,-76.3946 1054.6604,-76.3975 1059.6791,-76.2437 1061.5096,-76.3865 1071.7091,-76.6274 1071.7491,-76.6262 1074.0552,-76.6804 1074.8464,-76.6561 1078.2604,-76.3651 1086.9558,-76.5702 1089.1062,-76.3868 1091.224,-76.3217 1097.4989,-76.4694 1098.8943,-76.578 1161.4637,-78.0437 1163.212,-76.8246 1187.2871,-84.1298 1196.3317,-86.4929 1203.3643,-88.0291 1207.325,-88.7239 1213.4683,-89.5387 1231.6947,-91.1757 1239.9265,-92.6137 1241.6177,-92.9809 1252.8843,-95.9118 1263.4592,-99.5641 1269.5537,-101.9252 1332.8224,-129.0812 1377.8234,-147.0452 1401.6207,-55.5021 1392.3307,-18 1383.712,32.2739 1366.7848,81.4967 1330.3082,101.4444 1264.3503,113.4165 1262.8947,54.9852 1266.8124,-11.6179 1261.5127,-15.52 1260.3928,17.5224 1254.8259,-15.7209 1251.1176,-13.6056 1251.1176,-13.6056 1254.8259,-15.7209 1260.3928,17.5224 1261.5127,-15.52 1266.8124,-11.6179 1262.8947,54.9852 1264.3503,113.4165 1261.8011,114.0546 1246.8412,114.5786 1236.1946,115.4161 1235.3533,115.5006 1224.7362,116.7985 1219.83,117.5048 1170.5703,113.093 1163.2095,109.9243 1100.272,115.1114 1089.0792,116.2778 1074.9878,118.6692 1065.4039,120.504 1055.722,122.7776 1042.7715,126.3808 1015.4649,135.7561 988.7473,124.2138 940.2195,120.8413 931.1375,120.5863 929.232,120.5724 920.7701,118.1464 902.6942,113.7819 902.6917,113.7813 896.0651,112.7827 875.1177,110.0969 862.5246,109.6233 846.5104,110.1077 841.5247,110.3713 829.4403,111.2835 751.2456,118.945 751.2456,1.4172 751.7974,-13.8272 751.7974,-13.8272"/>
<polygon fill="#c2dfd1" stroke="#c2dfd1" points="1038.8247,-643.5596 1038.2628,-643.559 1035.1473,-643.4446 1027.2175,-643.4378 1012.1288,-644.5073 937.4376,-657.8244 932.5161,-662.1638 944.0322,-722.6064 945.9674,-738.6812 946.3327,-742.9799 946.7974,-745.9349 948.7164,-747.7359 1024.8322,-810.5302 1029.7982,-814.2809 1042.7195,-824.7678 1046.5728,-828.0969 1049.4329,-830.7194 1050.6589,-728.0803 1055.4921,-728.0803 1056.2909,-727.8388 1060.2443,-727.8388 1062.0428,-730.0271 1066.511,-732.5872 1071.657,-732.5872 1071.657,-732.5872 1066.511,-732.5872 1062.0428,-730.0271 1060.2443,-727.8388 1056.2909,-727.8388 1055.4921,-728.0803 1050.6589,-728.0803 1049.4329,-830.7194 1056.0509,-837.1478 1060.2974,-841.7421 1071.5524,-853.2379 1075.8253,-857.81 1096.2896,-882.8758 1096.9342,-883.7615 1107.1605,-883.6636 1121.6614,-883.7911 1155.4382,-865.1709 1198.8278,-858.9166 1216.9202,-856.7147 1222.3353,-856.1789 1237.5903,-855.7047 1232.9969,-728.1418 1238.644,-728.1418 1239.2338,-727.9617 1244.2719,-727.9617 1244.3438,-727.9402 1245.6245,-727.9402 1249.1746,-731.1013 1249.1746,-731.1013 1245.6245,-727.9402 1244.3438,-727.9402 1244.2719,-727.9617 1239.2338,-727.9617 1238.644,-728.1418 1232.9969,-728.1418 1237.5903,-855.7047 1239.2839,-855.6904 1241.2543,-855.7183 1248.2128,-855.9743 1267.0684,-857.5234 1282.0831,-859.7754 1291.6942,-861.6499 1294.9838,-862.4396 1300.0911,-863.7818 1310.2427,-866.6807 1357.651,-871.0974 1362.1505,-869.7484 1362.1505,-750.7197 1421.4406,-732.8339 1423.1144,-730.9345 1425.8131,-730.2216 1429.05,-760.197 1433.0087,-728.4357 1435.9182,-728.4357 1439.9675,-753.317 1444.1227,-728.411 1447.3026,-728.411 1451.1663,-772.7281 1454.0176,-728.3098 1457.7488,-728.3098 1458.7369,-729.4501 1463.73,-732.3511 1463.73,-732.3511 1458.7369,-729.4501 1457.7488,-728.3098 1454.0176,-728.3098 1451.1663,-772.7281 1447.3026,-728.411 1444.1227,-728.411 1439.9675,-753.317 1435.9182,-728.4357 1433.0087,-728.4357 1429.05,-760.197 1425.8131,-730.2216 1423.1144,-730.9345 1421.4406,-732.8339 1362.1505,-750.7197 1362.1505,-869.7484 1412.5448,-875.3157 1414.0165,-875.5074 1428.0952,-874.9016 1439.719,-874.8562 1452.3453,-875.3011 1460.4751,-875.9056 1465.1432,-876.3439 1473.115,-873.6501 1482.8268,-870.9951 1487.0573,-870.019 1502.8683,-867.0386 1514.2815,-865.1316 1582.174,-856.701 1582.174,-742.8454 1651.7083,-733.5901 1655.5852,-729.5915 1656.8671,-729.085 1658.076,-728.0516 1658.076,-728.0516 1656.8671,-729.085 1655.5852,-729.5915 1651.7083,-733.5901 1582.174,-742.8454 1582.174,-856.701 1592.9126,-861.0627 1621.2546,-869.6149 1652.0065,-861.5123 1658.8716,-859.8611 1682.0115,-855.8802 1685.8225,-855.3131 1705.1444,-854.2113 1756.8138,-853.6388 1812.2136,-876.0248 1813.3829,-876.5238 1824.5604,-881.8111 1826.4113,-881.2731 1841.4513,-877.5032 1845.8497,-876.5778 1849.652,-875.9296 1866.7135,-873.3595 1885.7878,-871.6324 1887.9766,-871.566 1895.0137,-868.7657 1907.9259,-864.2289 1918.8921,-860.8897 1922.2668,-859.9417 2028.3489,-832.6291 2052.2397,-817.1614 2055.9177,-806.9805 2048.5276,-767.1097 2039.3127,-709.6755 2031.1273,-633.3605 2022.0741,-625.4202 1914.6722,-591.9797 1914.7966,-596.259 1914.7966,-596.259 1914.6722,-591.9797 1912.4158,-591.1711 1911.6079,-590.8624 1897.0786,-584.9571 1874.3699,-574.0925 1870.4485,-571.8447 1868.053,-571.3965 1855.1488,-568.7378 1851.0042,-567.806 1844.1683,-568.6954 1844.0046,-568.7137 1826.0306,-570.0759 1825.6078,-570.0927 1809.6632,-570.1479 1810.4521,-670.5702 1810.4521,-670.5702 1809.6632,-570.1479 1787.4019,-569.421 1756.8138,-587.8568 1708.6587,-596.9801 1697.9534,-598.7649 1685.3881,-600.2857 1672.11,-600.9828 1662.9366,-601.2545 1643.0594,-600.479 1625.3671,-599.3858 1582.174,-612.4774 1504.9126,-591.4124 1502.6245,-590.6305 1499.7195,-589.5695 1482.2302,-582.7659 1471.7167,-578.1895 1454.6162,-569.547 1446.916,-565.2999 1432.7068,-556.7991 1417.9534,-547.2931 1408.9357,-541.0742 1362.1505,-558.3612 1304.1311,-559.3288 1300.9961,-559.2756 1294.9291,-559.3766 1294.3533,-559.3765 1289.6771,-563.9593 1280.2395,-572.8928 1275.1727,-577.5149 1274.801,-577.8412 1268.5945,-583.0842 1261.9401,-589.2347 1256.6649,-593.7193 1242.7292,-605.0593 1240.5168,-606.7743 1239.45,-607.5612 1229.0901,-614.4567 1217.7275,-621.6041 1207.8694,-627.07 1155.4382,-652.2585 1130.4532,-647.738 1124.9629,-646.947 1109.7489,-645.8734 1102.6014,-646.1607 1099.3911,-646.1711 1093.3209,-645.9669 1092.3342,-645.97 1082.2307,-645.258 1069.2581,-643.3834 1060.5164,-641.4747 1058.3762,-641.8546 1052.9017,-642.6298 1050.7067,-642.862 1042.6472,-643.4276 1038.8247,-643.5596 1038.8247,-643.5596"/>
<polygon fill="#fed9a6" stroke="#fed9a6" points="276.5143,-284.4615 276.3607,-294.8832 276.3607,-294.8832 276.5143,-284.4615 268.7808,-279.2928 258.7043,-271.9007 256.73,-270.3302 242.0456,-256.7001 246.2869,-345.4472 250.5199,-347.8767 252.4401,-350.2657 251.3864,-351.5035 246.1271,-354.5782 240.9104,-354.5782 240.9104,-354.5782 246.1271,-354.5782 251.3864,-351.5035 252.4401,-350.2657 250.5199,-347.8767 246.2869,-345.4472 242.0456,-256.7001 239.4037,-254.0856 238.9281,-253.6759 232.9426,-248.1896 224.5831,-239.5845 224.3805,-239.9088 208.6524,-262.3181 209.4189,-287.3381 209.4189,-287.3381 208.6524,-262.3181 224.3805,-239.9088 224.5831,-239.5845 223.7602,-235.2186 204.6994,-148.2022 130.503,-151.6038 114.4376,-151.6769 102.9311,-151.0153 96.5851,-150.5192 95.7951,-150.4411 83.2005,-153.95 41.03,-164.7488 -13.0006,-215.6647 -31.2739,-245.2249 -93.2801,-294.1156 -99.4194,-300.6283 -98.8283,-354.1222 -98.9203,-362.5488 -100.408,-389.6666 -92.2173,-410.6182 -84.0441,-457.9264 -80.1271,-484.2474 -80.2206,-485.2691 -81.9081,-500.1145 -84.6988,-520.6707 -85.6463,-526.6871 -74.3195,-582.0809 -36.5721,-624.5787 55.7822,-630.9298 69.1888,-632.1551 86.3652,-634.8898 91.5744,-635.9534 92.8833,-636.2502 107.4144,-639.8758 124.4238,-644.884 171.7362,-641.2397 208.3543,-617.4274 214.0817,-611.6357 202.5698,-584.761 201.724,-583.0114 197.8617,-497.0013 197.8617,-497.0013 201.724,-583.0114 202.5698,-584.761 214.0817,-611.6357 215.7348,-610.944 230.5085,-605.4011 235.3969,-603.6746 236.2547,-520.7557 235.5313,-502.4918 230.4362,-458.1156 229.7573,-458.1156 225.8789,-461.4985 221.0377,-462.8803 215.014,-461.0758 211.31,-457.8461 210.598,-458.0616 210.598,-458.0616 211.31,-457.8461 215.014,-461.0758 221.0377,-462.8803 225.8789,-461.4985 229.7573,-458.1156 226.0198,-454.6881 220.7933,-453.0979 220.7933,-453.0979 226.0198,-454.6881 229.7573,-458.1156 230.4362,-458.1156 235.5313,-502.4918 236.2547,-520.7557 235.3969,-603.6746 247.9877,-600.0471 258.9824,-597.119 261.6362,-596.4706 366.863,-573.0647 370.5169,-568.7363 412.7448,-457.89 415.0184,-452.8426 398.5475,-432.4403 369.3557,-350.01 367.8954,-344.0108 352.2178,-329.456 341.161,-320.6295 330.7595,-313.681 276.5143,-284.4615 276.5143,-284.4615"/>
<polygon fill="#e4ced8" stroke="#e4ced8" points="1290.9236,-390.8973 1291.241,-391.3927 1291.241,-391.3927 1290.9236,-390.8973 1287.4457,-390.8973 1287.4421,-390.8983 1281.4073,-546.9103 1294.3533,-559.3765 1294.9291,-559.3766 1300.9961,-559.2756 1304.1311,-559.3288 1362.1505,-558.3612 1408.9357,-541.0742 1449.3472,-411.986 1443.947,-391.5043 1443.4114,-390.69 1355.5502,-236.8461 1372.1812,-183.6368 1380.5118,-160.1826 1377.8234,-147.0452 1332.8224,-129.0812 1269.5537,-101.9252 1263.4592,-99.5641 1252.8843,-95.9118 1241.6177,-92.9809 1239.9265,-92.6137 1231.6947,-91.1757 1213.4683,-89.5387 1207.325,-88.7239 1203.3643,-88.0291 1196.3317,-86.4929 1187.2871,-84.1298 1163.212,-76.8246 1161.4637,-78.0437 1098.8943,-76.578 1097.4989,-76.4694 1091.224,-76.3217 1089.1062,-76.3868 1086.9558,-76.5702 1078.2604,-76.3651 1074.8464,-76.6561 1074.0552,-76.6804 1071.7491,-76.6262 1071.7091,-76.6274 1061.5096,-76.3865 1059.6791,-76.2437 1054.6604,-76.3975 1054.5374,-76.3946 1052.6248,-76.453 1040.4939,-77.4817 998.982,-85.4881 993.5117,-76.8927 988.7435,-68.5592 940.4474,-58.49 930.8073,-57.3245 928.6183,-57.4463 921.0053,-57.1972 919.8362,-57.2623 919.1092,-57.2387 913.825,-57.5329 913.6216,-57.5263 909.9212,-92.2285 916.2704,-96.0915 916.9807,-96.9237 915.5282,-98.6245 910.9788,-101.2422 910.9788,-101.2422 915.5282,-98.6245 916.9807,-96.9237 916.2704,-96.0915 909.9212,-92.2285 913.6216,-57.5263 910.9843,-57.2067 909.7037,-57.165 901.0887,-57.6482 899.5002,-57.5967 898.3949,-57.4639 896.275,-57.5809 890.7469,-57.4014 888.9227,-57.5026 884.9157,-57.3725 882.1392,-57.5264 872.9571,-58.8489 868.0705,-59.9784 866.1646,-60.5841 860.7094,-62.8072 851.1166,-67.5836 842.4827,-73.42 835.077,-79.0802 833.6514,-80.0414 798.5489,-106.391 785.5059,-115.4935 765.65,-128.486 751.2456,-110.4923 660.6536,-100.3913 661.071,-83.8517 661.071,-83.8517 660.6536,-100.3913 751.2456,-110.4923 751.2456,-27.7086 751.3433,-26.3586 751.7974,-13.8272 751.2456,1.4172 751.2456,118.945 750.2629,119.7319 675.834,122.9347 662.9647,123.7511 651.335,119.6348 650.5777,119.4018 637.681,116.0166 621.6667,112.5412 604.6555,110.0156 568.725,106.327 545.3966,101.2093 498.0125,46.7006 487.5894,20.7776 467.5465,-25.5451 467.3597,-32.5885 466.8215,-43.6113 401.5559,-113.6412 396.8814,-114.896 377.9909,-119.531 373.6695,-120.1883 359.2161,-122.0538 350.3838,-122.988 349.3107,-123.0765 339.4287,-123.4326 333.2461,-123.5117 328.2803,-123.4599 304.1935,-122.6493 206.6666,-146.3379 204.6994,-148.2022 223.7602,-235.2186 224.5831,-239.5845 232.9426,-248.1896 238.9281,-253.6759 239.4037,-254.0856 242.0456,-256.7001 256.73,-270.3302 258.7043,-271.9007 268.7808,-279.2928 276.5143,-284.4615 330.7595,-313.681 341.161,-320.6295 352.2178,-329.456 367.8954,-344.0108 369.3557,-350.01 398.5475,-432.4403 415.0184,-452.8426 443.9469,-444.4735 466.1191,-438.9499 469.3405,-438.2794 486.2468,-435.7842 486.259,-435.7827 495.3857,-434.8061 502.1964,-434.2156 502.4457,-334.3693 499.5223,-297.3796 505.7106,-295.5127 508.9413,-292.7299 504.5396,-288.6869 500.1235,-287.4309 496.814,-236.2509 510.5238,-237.6396 514.2847,-237.5806 514.4919,-188.3784 456.8345,-192.1892 479.3234,-231.6607 472.5791,-238.9416 469.0304,-242.3359 436.3476,-244.6163 422.3925,-250.4319 419.8499,-249.648 418.2926,-248.4976 415.6589,-248.4976 414.8453,-248.2463 409.9276,-248.2463 409.0324,-247.9653 404.244,-247.9653 404.244,-247.9653 409.0324,-247.9653 409.9276,-248.2463 414.8453,-248.2463 415.6589,-248.4976 418.2926,-248.4976 419.8499,-249.648 422.3925,-250.4319 436.3476,-244.6163 469.0304,-242.3359 472.5791,-238.9416 479.3234,-231.6607 456.8345,-192.1892 514.4919,-188.3784 514.2847,-237.5806 510.5238,-237.6396 496.814,-236.2509 500.1235,-287.4309 504.5396,-288.6869 508.9413,-292.7299 505.7106,-295.5127 499.5223,-297.3796 502.4457,-334.3693 502.1964,-434.2156 509.3355,-433.8863 518.3977,-433.6523 521.3137,-433.6362 535.6062,-434.1376 536.32,-434.1771 551.2005,-435.3031 551.1906,-434.8821 551.0195,-386.8899 551.0195,-386.8899 551.1906,-434.8821 551.2005,-435.3031 636.8171,-446.9787 618.4539,-299.2514 618.3812,-296.5835 617.027,-278.9926 553.1118,-286.8489 556.9292,-237.6241 552.0763,-237.4073 544.0777,-237.5216 543.5323,-237.4655 543.5323,-237.4655 544.0777,-237.5216 552.0763,-237.4073 556.9292,-237.6241 560.9818,-237.5674 565.3849,-237.7632 566.6129,-237.8892 568.5218,-182.6055 572.7432,-182.6055 573.9746,-184.1161 578.9932,-187.1007 584.0157,-187.1007 584.0157,-187.1007 578.9932,-187.1007 573.9746,-184.1161 572.7432,-182.6055 568.5218,-182.6055 566.6129,-237.8892 565.3849,-237.7632 560.9818,-237.5674 556.9292,-237.6241 553.1118,-286.8489 617.027,-278.9926 616.7036,-267.1711 615.4115,-256.7762 618.6192,-254.022 629.9473,-245.8776 635.3514,-242.3851 646.2968,-236.8483 680.3997,-224.3948 691.6324,-219.4898 699.8846,-214.7428 701.9764,-213.3955 711.5125,-206.571 717.5027,-201.4408 726.6355,-192.9573 736.2463,-182.6531 736.4957,-182.421 648.5768,-176.3814 655.1967,-100.2405 650.4485,-100.0576 647.6946,-50.2003 649.6314,-17.9753 649.0398,-17.7943 644.6558,-17.7943 642.6044,-20.3594 638.6772,-22.5781 638.6772,-22.5781 642.6044,-20.3594 644.6558,-17.7943 643.3217,-16.2024 638.5164,-13.4305 638.5164,-13.4305 643.3217,-16.2024 644.6558,-17.7943 649.0398,-17.7943 649.6314,-17.9753 647.6946,-50.2003 650.4485,-100.0576 655.1967,-100.2405 648.5768,-176.3814 736.4957,-182.421 741.1517,-178.3827 747.0499,-172.6125 754.5081,-164.8937 756.589,-162.5027 770.5761,-145.5788 772.3615,-146.9109 782.9249,-154.0848 793.179,-160.3632 824.1033,-177.2378 828.6548,-183.2253 850.7696,-216.7243 852.5051,-258.7089 852.3681,-269.0308 852.73,-277.7008 852.6845,-281.1406 852.6912,-281.2101 854.7502,-331.0186 882.0118,-337.8846 893.8053,-339.7887 907.818,-340.7774 909.194,-340.7494 911.9218,-340.8175 915.8986,-340.5548 920.398,-340.4627 925.3876,-340.5881 929.0358,-340.5135 930.9511,-340.6488 941.5958,-340.4307 941.6163,-340.4312 941.6996,-340.4371 945.1749,-340.5241 951.465,-340.3958 952.1976,-340.4473 957.4063,-340.5774 960.1374,-340.3977 958.5997,-273.8004 959.6827,-272.464 958.2894,-270.778 953.3396,-267.899 953.9903,-225.877 961.1035,-225.8987 961.2734,-225.9235 963.8649,-226.1159 968.6739,-226.1296 969.9069,-226.0448 969.6743,-182.7181 974.4305,-184.0725 981.2861,-181.9325 984.1281,-179.4862 979.9958,-175.6706 975.4377,-174.3315 975.4377,-174.3315 979.9958,-175.6706 984.1281,-179.4862 981.2861,-181.9325 974.4305,-184.0725 969.6743,-182.7181 969.9069,-226.0448 968.6739,-226.1296 963.8649,-226.1159 961.2734,-225.9235 961.1035,-225.8987 953.9903,-225.877 953.3396,-267.899 958.2894,-270.778 959.6827,-272.464 958.5997,-273.8004 960.1374,-340.3977 962.9023,-340.3414 965.2611,-340.4004 966.7655,-340.5067 974.9955,-340.7131 975.8622,-340.6954 979.8163,-340.9748 990.9793,-340.7463 995.6327,-341.0738 1039.4153,-387.4183 1055.0229,-402.1795 1063.3331,-410.6829 1064.0281,-386.1084 1068.9021,-325.1815 1068.3672,-325.0259 1066.6647,-247.1312 1073.2853,-245.0784 1077.7297,-243.5136 1086.8767,-239.9069 1091.8177,-237.7543 1106.3833,-230.1834 1106.7727,-229.9491 1098.6195,-217.6565 1084.3936,-197.8205 1080.6517,-193.5694 1077.066,-189.9143 1046.2162,-184.5753 1028.7639,-185.2647 1028.7639,-185.2647 1046.2162,-184.5753 1077.066,-189.9143 1080.6517,-193.5694 1084.3936,-197.8205 1098.6195,-217.6565 1106.7727,-229.9491 1106.3833,-230.1834 1091.8177,-237.7543 1086.8767,-239.9069 1077.7297,-243.5136 1073.2853,-245.0784 1066.6647,-247.1312 1068.3672,-325.0259 1068.9021,-325.1815 1064.0281,-386.1084 1063.3331,-410.6829 1075.0721,-424.513 1077.2375,-426.7409 1086.5018,-437.4501 1092.1382,-444.6942 1098.239,-444.5947 1104.4086,-444.3433 1107.5869,-444.4452 1112.0934,-444.26 1113.7983,-400.2306 1110.8341,-329.8638 1116.399,-328.1294 1120.0082,-324.7718 1116.8191,-322.0146 1116.8191,-322.0146 1120.0082,-324.7718 1116.399,-328.1294 1110.8341,-329.8638 1113.7983,-400.2306 1112.0934,-444.26 1113.8539,-444.3159 1126.797,-426.3734 1136.0624,-414.2877 1135.5109,-368.8318 1138.369,-325.1002 1138.1893,-325.0476 1138.1893,-325.0476 1138.369,-325.1002 1135.5109,-368.8318 1136.0624,-414.2877 1145.3652,-403.7036 1145.6896,-352.3356 1149.8254,-325.2755 1148.698,-324.9328 1148.698,-324.9328 1149.8254,-325.2755 1145.6896,-352.3356 1145.3652,-403.7036 1136.0624,-414.2877 1126.797,-426.3734 1113.8539,-444.3159 1116.5608,-446.0171 1132.2471,-455.3396 1215.7188,-499.0107 1218.5228,-435.1011 1217.3042,-397.0764 1205.4419,-394.8167 1146.4215,-402.6742 1156.7611,-390.6339 1161.2032,-385.9327 1163.6522,-383.5953 1174.5969,-374.2237 1174.5969,-374.2237 1163.6522,-383.5953 1161.2032,-385.9327 1156.7611,-390.6339 1146.4215,-402.6742 1205.4419,-394.8167 1217.3042,-397.0764 1218.5228,-435.1011 1215.7188,-499.0107 1234.2194,-510.0023 1233.863,-457.6653 1233.863,-457.6653 1234.2194,-510.0023 1244.3029,-517.0369 1250.7366,-521.7481 1258.5077,-527.7059 1262.8895,-530.9003 1262.9135,-487.5528 1264.3136,-464.8122 1265.8015,-391.5981 1266.7042,-390.4935 1265.2439,-388.7834 1260.9197,-386.329 1254.6797,-386.329 1254.6797,-386.329 1260.9197,-386.329 1265.2439,-388.7834 1266.7042,-390.4935 1265.8015,-391.5981 1264.3136,-464.8122 1262.9135,-487.5528 1262.8895,-530.9003 1280.8086,-546.3545 1281.4073,-546.9103 1287.4421,-390.8983 1287.4457,-390.8973 1290.9236,-390.8973 1290.9236,-390.8973"/>
<polygon fill="#fbb4ae" stroke="#fbb4ae" points="1274.801,-577.8412 1268.5945,-583.0842 1261.9401,-589.2347 1256.6649,-593.7193 1242.7292,-605.0593 1240.5168,-606.7743 1239.45,-607.5612 1229.0901,-614.4567 1217.7275,-621.6041 1207.8694,-627.07 1155.4382,-652.2585 1130.4532,-647.738 1124.9629,-646.947 1109.7489,-645.8734 1102.6014,-646.1607 1099.3911,-646.1711 1093.3209,-645.9669 1092.3342,-645.97 1082.2307,-645.258 1069.2581,-643.3834 1060.5164,-641.4747 1058.3762,-641.8546 1052.9017,-642.6298 1050.7067,-642.862 1042.6472,-643.4276 1038.8247,-643.5596 1038.2628,-643.559 1035.1473,-643.4446 1027.2175,-643.4378 1026.9452,-617.7855 1023.4228,-563.4193 1029.262,-559.8284 1028.766,-557.2556 1023.987,-554.428 1023.987,-554.428 1028.766,-557.2556 1029.262,-559.8284 1023.4228,-563.4193 1026.9452,-617.7855 1027.2175,-643.4378 1012.1288,-644.5073 937.4376,-657.8244 946.8871,-559.7835 946.9503,-558.3655 946.6821,-553.782 947.5154,-535.2654 951.4214,-494.7404 945.6591,-491.9081 934.2264,-486.7956 932.7408,-486.2655 925.0293,-483.8498 913.7228,-480.8079 912.4553,-480.5242 903.9776,-479.0033 903.4815,-478.9365 901.5649,-478.7629 890.4085,-478.2447 886.8743,-478.3949 879.5248,-478.3805 875.2118,-477.9872 870.4413,-477.7661 861.6623,-476.9691 848.305,-474.5694 846.4257,-474.1498 834.9917,-470.5813 825.8414,-466.9146 817.8214,-462.9825 805.6051,-456.4447 802.5121,-454.5201 788.9415,-445.463 786.057,-443.1558 776.2238,-435.808 748.5696,-413.9988 735.1633,-415.7058 716.1368,-419.344 714.8252,-419.6501 712.0872,-420.3473 704.9038,-422.3303 699.0003,-424.0859 682.5108,-429.6974 637.0306,-447.1005 636.8171,-446.9787 618.4539,-299.2514 618.3812,-296.5835 617.027,-278.9926 616.7036,-267.1711 615.4115,-256.7762 618.6192,-254.022 629.9473,-245.8776 635.3514,-242.3851 646.2968,-236.8483 680.3997,-224.3948 691.6324,-219.4898 699.8846,-214.7428 701.9764,-213.3955 711.5125,-206.571 717.5027,-201.4408 726.6355,-192.9573 736.2463,-182.6531 736.4957,-182.421 741.1517,-178.3827 747.0499,-172.6125 754.5081,-164.8937 756.589,-162.5027 770.5761,-145.5788 772.3615,-146.9109 782.9249,-154.0848 793.179,-160.3632 792.6578,-231.3013 792.6578,-231.3013 793.179,-160.3632 824.1033,-177.2378 828.6548,-183.2253 850.7696,-216.7243 852.5051,-258.7089 852.3681,-269.0308 852.73,-277.7008 852.6845,-281.1406 852.6912,-281.2101 854.7502,-331.0186 882.0118,-337.8846 882.4798,-358.2278 882.4798,-358.2278 882.0118,-337.8846 893.8053,-339.7887 907.818,-340.7774 909.194,-340.7494 911.9218,-340.8175 915.8986,-340.5548 920.398,-340.4627 925.3876,-340.5881 929.0358,-340.5135 930.9511,-340.6488 941.5958,-340.4307 941.6163,-340.4312 941.6996,-340.4371 939.4819,-406.9271 935.0969,-404.4318 935.0969,-404.4318 939.4819,-406.9271 941.6996,-340.4371 945.1749,-340.5241 951.465,-340.3958 952.1976,-340.4473 957.4063,-340.5774 960.1374,-340.3977 962.9023,-340.3414 965.2611,-340.4004 966.7655,-340.5067 974.9955,-340.7131 975.8622,-340.6954 979.8163,-340.9748 990.9793,-340.7463 995.6327,-341.0738 1039.4153,-387.4183 1055.0229,-402.1795 1063.3331,-410.6829 1075.0721,-424.513 1077.2375,-426.7409 1086.5018,-437.4501 1092.1382,-444.6942 1098.239,-444.5947 1104.4086,-444.3433 1107.5869,-444.4452 1112.0934,-444.26 1113.8539,-444.3159 1116.5608,-446.0171 1132.2471,-455.3396 1215.7188,-499.0107 1234.2194,-510.0023 1244.3029,-517.0369 1250.7366,-521.7481 1258.5077,-527.7059 1262.8895,-530.9003 1280.8086,-546.3545 1281.4073,-546.9103 1294.3533,-559.3765 1289.6771,-563.9593 1280.2395,-572.8928 1275.1727,-577.5149 1274.801,-577.8412 1274.801,-577.8412"/>
<polygon fill="#d3ded1" stroke="#d3ded1" points="1096.9342,-883.7615 1089.1899,-889.9146 992.8246,-970.0554 956.611,-966.3266 946.0626,-965.4834 934.927,-964.851 929.4465,-964.7935 913.1451,-965.3766 919.6881,-840.1786 918.9774,-839.9702 915.3648,-839.9702 915.3648,-839.9702 918.9774,-839.9702 919.6881,-840.1786 913.1451,-965.3766 912.2917,-965.4268 870.7174,-969.7963 869.4222,-969.4496 862.6649,-966.9223 787.8796,-925.9836 772.4439,-904.6108 771.8351,-904.2482 696.3163,-838.1886 688.8741,-784.3146 688.9147,-784.053 693.5652,-749.0129 699.627,-678.418 654.0942,-622.7809 649.1867,-592.8199 647.7747,-552.3856 646.607,-538.1171 637.0306,-447.1005 682.5108,-429.6974 699.0003,-424.0859 704.9038,-422.3303 712.0872,-420.3473 714.8252,-419.6501 716.1368,-419.344 735.1633,-415.7058 748.5696,-413.9988 776.2238,-435.808 786.057,-443.1558 788.9415,-445.463 802.5121,-454.5201 805.6051,-456.4447 817.8214,-462.9825 825.8414,-466.9146 834.9917,-470.5813 846.4257,-474.1498 848.305,-474.5694 861.6623,-476.9691 870.4413,-477.7661 875.2118,-477.9872 879.5248,-478.3805 886.8743,-478.3949 885.8161,-541.9726 882.4102,-545.3322 881.1992,-545.6837 878.1927,-547.9889 875.0186,-547.9889 873.7739,-547.6166 869.7117,-547.6166 870.8257,-654.4686 865.3274,-654.3002 857.4621,-654.2759 855.1931,-654.2061 856.0406,-587.2955 853.0757,-547.8109 849.4156,-547.8109 848.7424,-547.6068 848.7424,-547.6068 849.4156,-547.8109 853.0757,-547.8109 856.0406,-587.2955 855.1931,-654.2061 857.4621,-654.2759 865.3274,-654.3002 870.8257,-654.4686 869.7117,-547.6166 873.7739,-547.6166 875.0186,-547.9889 878.1927,-547.9889 881.1992,-545.6837 882.4102,-545.3322 885.8161,-541.9726 886.8743,-478.3949 890.4085,-478.2447 901.5649,-478.7629 903.4815,-478.9365 903.9776,-479.0033 912.4553,-480.5242 913.7228,-480.8079 925.0293,-483.8498 932.7408,-486.2655 934.2264,-486.7956 945.6591,-491.9081 951.4214,-494.7404 947.5154,-535.2654 946.6821,-553.782 946.9503,-558.3655 946.8871,-559.7835 937.4376,-657.8244 932.5161,-662.1638 944.0322,-722.6064 945.9674,-738.6812 946.3327,-742.9799 946.7974,-745.9349 948.7164,-747.7359 1024.8322,-810.5302 1029.7982,-814.2809 1042.7195,-824.7678 1046.5728,-828.0969 1049.4329,-830.7194 1056.0509,-837.1478 1060.2974,-841.7421 1071.5524,-853.2379 1075.8253,-857.81 1096.2896,-882.8758 1096.9342,-883.7615 1096.9342,-883.7615"/>
<polyline fill="none" stroke="#000000" points="1054.6604,-76.3975 1054.5374,-76.3946 1052.6248,-76.453 1040.4939,-77.4817 998.982,-85.4881 993.5117,-76.8927 988.7435,-68.5592 940.4474,-58.49 930.8073,-57.3245 928.6183,-57.4463 921.0053,-57.1972 919.8362,-57.2623 919.1092,-57.2387 913.825,-57.5329 913.6216,-57.5263 910.9843,-57.2067 909.7037,-57.165 901.0887,-57.6482 899.5002,-57.5967 898.3949,-57.4639 896.275,-57.5809 890.7469,-57.4014 888.9227,-57.5026 884.9157,-57.3725 882.1392,-57.5264 872.9571,-58.8489 868.0705,-59.9784 866.1646,-60.5841 860.7094,-62.8072 851.1166,-67.5836 842.4827,-73.42 835.077,-79.0802 833.6514,-80.0414 798.5489,-106.391 785.5059,-115.4935 765.65,-128.486 751.2456,-110.4923 751.2456,-27.7086 751.3433,-26.3586 751.7974,-13.8272 751.2456,1.4172 751.2456,118.945 829.4403,111.2835 841.5247,110.3713 846.5104,110.1077 862.5246,109.6233 875.1177,110.0969 896.0651,112.7827 902.6917,113.7813 902.6942,113.7819 920.7701,118.1464 929.232,120.5724 931.1375,120.5863 940.2195,120.8413 988.7473,124.2138 1015.4649,135.7561 1042.7715,126.3808 1055.722,122.7776 1065.4039,120.504 1074.9878,118.6692 1089.0792,116.2778 1100.272,115.1114 1163.2095,109.9243 1170.5703,113.093 1219.83,117.5048 1224.7362,116.7985 1235.3533,115.5006 1236.1946,115.4161 1246.8412,114.5786 1261.8011,114.0546 1264.3503,113.4165 1330.3082,101.4444 1366.7848,81.4967 1383.712,32.2739 1392.3307,-18 1401.6207,-55.5021 1377.8234,-147.0452 1332.8224,-129.0812 1269.5537,-101.9252 1263.4592,-99.5641 1252.8843,-95.9118 1241.6177,-92.9809 1239.9265,-92.6137 1231.6947,-91.1757 1213.4683,-89.5387 1207.325,-88.7239 1203.3643,-88.0291 1196.3317,-86.4929 1187.2871,-84.1298 1163.212,-76.8246 1161.4637,-78.0437 1098.8943,-76.578 1097.4989,-76.4694 1091.224,-76.3217 1089.1062,-76.3868 1086.9558,-76.5702 1078.2604,-76.3651 1074.8464,-76.6561 1074.0552,-76.6804 1071.7491,-76.6262 1071.7091,-76.6274 1061.5096,-76.3865 1059.6791,-76.2437 1054.6604,-76.3975 "/>
<polyline fill="none" stroke="#000000" points="1658.8716,-859.8611 1652.0065,-861.5123 1621.2546,-869.6149 1592.9126,-861.0627 1582.174,-856.701 1514.2815,-865.1316 1502.8683,-867.0386 1487.0573,-870.019 1482.8268,-870.9951 1473.115,-873.6501 1465.1432,-876.3439 1460.4751,-875.9056 1452.3453,-875.3011 1439.719,-874.8562 1428.0952,-874.9016 1414.0165,-875.5074 1412.5448,-875.3157 1362.1505,-869.7484 1357.651,-871.0974 1310.2427,-866.6807 1300.0911,-863.7818 1294.9838,-862.4396 1291.6942,-861.6499 1282.0831,-859.7754 1267.0684,-857.5234 1248.2128,-855.9743 1241.2543,-855.7183 1239.2839,-855.6904 1237.5903,-855.7047 1222.3353,-856.1789 1216.9202,-856.7147 1198.8278,-858.9166 1155.4382,-865.1709 1121.6614,-883.7911 1107.1605,-883.6636 1096.9342,-883.7615 1096.2896,-882.8758 1075.8253,-857.81 1071.5524,-853.2379 1060.2974,-841.7421 1056.0509,-837.1478 1049.4329,-830.7194 1046.5728,-828.0969 1042.7195,-824.7678 1029.7982,-814.2809 1024.8322,-810.5302 948.7164,-747.7359 946.7974,-745.9349 946.3327,-742.9799 945.9674,-738.6812 944.0322,-722.6064 932.5161,-662.1638 937.4376,-657.8244 1012.1288,-644.5073 1027.2175,-643.4378 1035.1473,-643.4446 1038.2628,-643.559 1038.8247,-643.5596 1042.6472,-643.4276 1050.7067,-642.862 1052.9017,-642.6298 1058.3762,-641.8546 1060.5164,-641.4747 1069.2581,-643.3834 1082.2307,-645.258 1092.3342,-645.97 1093.3209,-645.9669 1099.3911,-646.1711 1102.6014,-646.1607 1109.7489,-645.8734 1124.9629,-646.947 1130.4532,-647.738 1155.4382,-652.2585 1207.8694,-627.07 1217.7275,-621.6041 1229.0901,-614.4567 1239.45,-607.5612 1240.5168,-606.7743 1242.7292,-605.0593 1256.6649,-593.7193 1261.9401,-589.2347 1268.5945,-583.0842 1274.801,-577.8412 1275.1727,-577.5149 1280.2395,-572.8928 1289.6771,-563.9593 1294.3533,-559.3765 1294.9291,-559.3766 1300.9961,-559.2756 1304.1311,-559.3288 1362.1505,-558.3612 1408.9357,-541.0742 1417.9534,-547.2931 1432.7068,-556.7991 1446.916,-565.2999 1454.6162,-569.547 1471.7167,-578.1895 1482.2302,-582.7659 1499.7195,-589.5695 1502.6245,-590.6305 1504.9126,-591.4124 1582.174,-612.4774 1625.3671,-599.3858 1643.0594,-600.479 1662.9366,-601.2545 1672.11,-600.9828 1685.3881,-600.2857 1697.9534,-598.7649 1708.6587,-596.9801 1756.8138,-587.8568 1787.4019,-569.421 1809.6632,-570.1479 1825.6078,-570.0927 1826.0306,-570.0759 1844.0046,-568.7137 1844.1683,-568.6954 1851.0042,-567.806 1855.1488,-568.7378 1868.053,-571.3965 1870.4485,-571.8447 1874.3699,-574.0925 1897.0786,-584.9571 1911.6079,-590.8624 1912.4158,-591.1711 1914.6722,-591.9797 2022.0741,-625.4202 2031.1273,-633.3605 2039.3127,-709.6755 2048.5276,-767.1097 2055.9177,-806.9805 2052.2397,-817.1614 2028.3489,-832.6291 1922.2668,-859.9417 1918.8921,-860.8897 1907.9259,-864.2289 1895.0137,-868.7657 1887.9766,-871.566 1885.7878,-871.6324 1866.7135,-873.3595 1849.652,-875.9296 1845.8497,-876.5778 1841.4513,-877.5032 1826.4113,-881.2731 1824.5604,-881.8111 1813.3829,-876.5238 1812.2136,-876.0248 1756.8138,-853.6388 1705.1444,-854.2113 1685.8225,-855.3131 1682.0115,-855.8802 1658.8716,-859.8611 "/>
<polyline fill="none" stroke="#000000" points="-80.1271,-484.2474 -84.0441,-457.9264 -92.2173,-410.6182 -100.408,-389.6666 -98.9203,-362.5488 -98.8283,-354.1222 -99.4194,-300.6283 -93.2801,-294.1156 -31.2739,-245.2249 -13.0006,-215.6647 41.03,-164.7488 83.2005,-153.95 95.7951,-150.4411 96.5851,-150.5192 102.9311,-151.0153 114.4376,-151.6769 130.503,-151.6038 204.6994,-148.2022 223.7602,-235.2186 224.5831,-239.5845 232.9426,-248.1896 238.9281,-253.6759 239.4037,-254.0856 242.0456,-256.7001 256.73,-270.3302 258.7043,-271.9007 268.7808,-279.2928 276.5143,-284.4615 330.7595,-313.681 341.161,-320.6295 352.2178,-329.456 367.8954,-344.0108 369.3557,-350.01 398.5475,-432.4403 415.0184,-452.8426 412.7448,-457.89 370.5169,-568.7363 366.863,-573.0647 261.6362,-596.4706 258.9824,-597.119 247.9877,-600.0471 235.3969,-603.6746 230.5085,-605.4011 215.7348,-610.944 214.0817,-611.6357 208.3543,-617.4274 171.7362,-641.2397 124.4238,-644.884 107.4144,-639.8758 92.8833,-636.2502 91.5744,-635.9534 86.3652,-634.8898 69.1888,-632.1551 55.7822,-630.9298 -36.5721,-624.5787 -74.3195,-582.0809 -85.6463,-526.6871 -84.6988,-520.6707 -81.9081,-500.1145 -80.2206,-485.2691 -80.1271,-484.2474 "/>
<polyline fill="none" stroke="#000000" points="377.9909,-119.531 396.8814,-114.896 401.5559,-113.6412 466.8215,-43.6113 467.3597,-32.5885 467.5465,-25.5451 487.5894,20.7776 498.0125,46.7006 545.3966,101.2093 568.725,106.327 604.6555,110.0156 621.6667,112.5412 637.681,116.0166 650.5777,119.4018 651.335,119.6348 662.9647,123.7511 675.834,122.9347 750.2629,119.7319 751.2456,118.945 751.2456,1.4172 751.7974,-13.8272 751.3433,-26.3586 751.2456,-27.7086 751.2456,-110.4923 765.65,-128.486 785.5059,-115.4935 798.5489,-106.391 833.6514,-80.0414 835.077,-79.0802 842.4827,-73.42 851.1166,-67.5836 860.7094,-62.8072 866.1646,-60.5841 868.0705,-59.9784 872.9571,-58.8489 882.1392,-57.5264 884.9157,-57.3725 888.9227,-57.5026 890.7469,-57.4014 896.275,-57.5809 898.3949,-57.4639 899.5002,-57.5967 901.0887,-57.6482 909.7037,-57.165 910.9843,-57.2067 913.6216,-57.5263 913.825,-57.5329 919.1092,-57.2387 919.8362,-57.2623 921.0053,-57.1972 928.6183,-57.4463 930.8073,-57.3245 940.4474,-58.49 988.7435,-68.5592 993.5117,-76.8927 998.982,-85.4881 1040.4939,-77.4817 1052.6248,-76.453 1054.5374,-76.3946 1054.6604,-76.3975 1059.6791,-76.2437 1061.5096,-76.3865 1071.7091,-76.6274 1071.7491,-76.6262 1074.0552,-76.6804 1074.8464,-76.6561 1078.2604,-76.3651 1086.9558,-76.5702 1089.1062,-76.3868 1091.224,-76.3217 1097.4989,-76.4694 1098.8943,-76.578 1161.4637,-78.0437 1163.212,-76.8246 1187.2871,-84.1298 1196.3317,-86.4929 1203.3643,-88.0291 1207.325,-88.7239 1213.4683,-89.5387 1231.6947,-91.1757 1239.9265,-92.6137 1241.6177,-92.9809 1252.8843,-95.9118 1263.4592,-99.5641 1269.5537,-101.9252 1332.8224,-129.0812 1377.8234,-147.0452 1380.5118,-160.1826 1372.1812,-183.6368 1355.5502,-236.8461 1443.4114,-390.69 1443.947,-391.5043 1449.3472,-411.986 1408.9357,-541.0742 1362.1505,-558.3612 1304.1311,-559.3288 1300.9961,-559.2756 1294.9291,-559.3766 1294.3533,-559.3765 1281.4073,-546.9103 1280.8086,-546.3545 1262.8895,-530.9003 1258.5077,-527.7059 1250.7366,-521.7481 1244.3029,-517.0369 1234.2194,-510.0023 1215.7188,-499.0107 1132.2471,-455.3396 1116.5608,-446.0171 1113.8539,-444.3159 1112.0934,-444.26 1107.5869,-444.4452 1104.4086,-444.3433 1098.239,-444.5947 1092.1382,-444.6942 1086.5018,-437.4501 1077.2375,-426.7409 1075.0721,-424.513 1063.3331,-410.6829 1055.0229,-402.1795 1039.4153,-387.4183 995.6327,-341.0738 990.9793,-340.7463 979.8163,-340.9748 975.8622,-340.6954 974.9955,-340.7131 966.7655,-340.5067 965.2611,-340.4004 962.9023,-340.3414 960.1374,-340.3977 957.4063,-340.5774 952.1976,-340.4473 951.465,-340.3958 945.1749,-340.5241 941.6996,-340.4371 941.6163,-340.4312 941.5958,-340.4307 930.9511,-340.6488 929.0358,-340.5135 925.3876,-340.5881 920.398,-340.4627 915.8986,-340.5548 911.9218,-340.8175 909.194,-340.7494 907.818,-340.7774 893.8053,-339.7887 882.0118,-337.8846 854.7502,-331.0186 852.6912,-281.2101 852.6845,-281.1406 852.73,-277.7008 852.3681,-269.0308 852.5051,-258.7089 850.7696,-216.7243 828.6548,-183.2253 824.1033,-177.2378 793.179,-160.3632 782.9249,-154.0848 772.3615,-146.9109 770.5761,-145.5788 756.589,-162.5027 754.5081,-164.8937 747.0499,-172.6125 741.1517,-178.3827 736.4957,-182.421 736.2463,-182.6531 726.6355,-192.9573 717.5027,-201.4408 711.5125,-206.571 701.9764,-213.3955 699.8846,-214.7428 691.6324,-219.4898 680.3997,-224.3948 646.2968,-236.8483 635.3514,-242.3851 629.9473,-245.8776 618.6192,-254.022 615.4115,-256.7762 616.7036,-267.1711 617.027,-278.9926 618.3812,-296.5835 618.4539,-299.2514 636.8171,-446.9787 551.2005,-435.3031 536.32,-434.1771 535.6062,-434.1376 521.3137,-433.6362 518.3977,-433.6523 509.3355,-433.8863 502.1964,-434.2156 495.3857,-434.8061 486.259,-435.7827 486.2468,-435.7842 469.3405,-438.2794 466.1191,-438.9499 443.9469,-444.4735 415.0184,-452.8426 398.5475,-432.4403 369.3557,-350.01 367.8954,-344.0108 352.2178,-329.456 341.161,-320.6295 330.7595,-313.681 276.5143,-284.4615 268.7808,-279.2928 258.7043,-271.9007 256.73,-270.3302 242.0456,-256.7001 239.4037,-254.0856 238.9281,-253.6759 232.9426,-248.1896 224.5831,-239.5845 223.7602,-235.2186 204.6994,-148.2022 206.6666,-146.3379 304.1935,-122.6493 328.2803,-123.4599 333.2461,-123.5117 339.4287,-123.4326 349.3107,-123.0765 350.3838,-122.988 359.2161,-122.0538 373.6695,-120.1883 377.9909,-119.531 "/>
<polyline fill="none" stroke="#000000" points="716.1368,-419.344 714.8252,-419.6501 712.0872,-420.3473 704.9038,-422.3303 699.0003,-424.0859 682.5108,-429.6974 637.0306,-447.1005 636.8171,-446.9787 618.4539,-299.2514 618.3812,-296.5835 617.027,-278.9926 616.7036,-267.1711 615.4115,-256.7762 618.6192,-254.022 629.9473,-245.8776 635.3514,-242.3851 646.2968,-236.8483 680.3997,-224.3948 691.6324,-219.4898 699.8846,-214.7428 701.9764,-213.3955 711.5125,-206.571 717.5027,-201.4408 726.6355,-192.9573 736.2463,-182.6531 736.4957,-182.421 741.1517,-178.3827 747.0499,-172.6125 754.5081,-164.8937 756.589,-162.5027 770.5761,-145.5788 772.3615,-146.9109 782.9249,-154.0848 793.179,-160.3632 824.1033,-177.2378 828.6548,-183.2253 850.7696,-216.7243 852.5051,-258.7089 852.3681,-269.0308 852.73,-277.7008 852.6845,-281.1406 852.6912,-281.2101 854.7502,-331.0186 882.0118,-337.8846 893.8053,-339.7887 907.818,-340.7774 909.194,-340.7494 911.9218,-340.8175 915.8986,-340.5548 920.398,-340.4627 925.3876,-340.5881 929.0358,-340.5135 930.9511,-340.6488 941.5958,-340.4307 941.6163,-340.4312 941.6996,-340.4371 945.1749,-340.5241 951.465,-340.3958 952.1976,-340.4473 957.4063,-340.5774 960.1374,-340.3977 962.9023,-340.3414 965.2611,-340.4004 966.7655,-340.5067 974.9955,-340.7131 975.8622,-340.6954 979.8163,-340.9748 990.9793,-340.7463 995.6327,-341.0738 1039.4153,-387.4183 1055.0229,-402.1795 1063.3331,-410.6829 1075.0721,-424.513 1077.2375,-426.7409 1086.5018,-437.4501 1092.1382,-444.6942 1098.239,-444.5947 1104.4086,-444.3433 1107.5869,-444.4452 1112.0934,-444.26 1113.8539,-444.3159 1116.5608,-446.0171 1132.2471,-455.3396 1215.7188,-499.0107 1234.2194,-510.0023 1244.3029,-517.0369 1250.7366,-521.7481 1258.5077,-527.7059 1262.8895,-530.9003 1280.8086,-546.3545 1281.4073,-546.9103 1294.3533,-559.3765 1289.6771,-563.9593 1280.2395,-572.8928 1275.1727,-577.5149 1274.801,-577.8412 1268.5945,-583.0842 1261.9401,-589.2347 1256.6649,-593.7193 1242.7292,-605.0593 1240.5168,-606.7743 1239.45,-607.5612 1229.0901,-614.4567 1217.7275,-621.6041 1207.8694,-627.07 1155.4382,-652.2585 1130.4532,-647.738 1124.9629,-646.947 1109.7489,-645.8734 1102.6014,-646.1607 1099.3911,-646.1711 1093.3209,-645.9669 1092.3342,-645.97 1082.2307,-645.258 1069.2581,-643.3834 1060.5164,-641.4747 1058.3762,-641.8546 1052.9017,-642.6298 1050.7067,-642.862 1042.6472,-643.4276 1038.8247,-643.5596 1038.2628,-643.559 1035.1473,-643.4446 1027.2175,-643.4378 1012.1288,-644.5073 937.4376,-657.8244 946.8871,-559.7835 946.9503,-558.3655 946.6821,-553.782 947.5154,-535.2654 951.4214,-494.7404 945.6591,-491.9081 934.2264,-486.7956 932.7408,-486.2655 925.0293,-483.8498 913.7228,-480.8079 912.4553,-480.5242 903.9776,-479.0033 903.4815,-478.9365 901.5649,-478.7629 890.4085,-478.2447 886.8743,-478.3949 879.5248,-478.3805 875.2118,-477.9872 870.4413,-477.7661 861.6623,-476.9691 848.305,-474.5694 846.4257,-474.1498 834.9917,-470.5813 825.8414,-466.9146 817.8214,-462.9825 805.6051,-456.4447 802.5121,-454.5201 788.9415,-445.463 786.057,-443.1558 776.2238,-435.808 748.5696,-413.9988 735.1633,-415.7058 716.1368,-419.344 "/>
<polyline fill="none" stroke="#000000" points="846.4257,-474.1498 848.305,-474.5694 861.6623,-476.9691 870.4413,-477.7661 875.2118,-477.9872 879.5248,-478.3805 886.8743,-478.3949 890.4085,-478.2447 901.5649,-478.7629 903.4815,-478.9365 903.9776,-479.0033 912.4553,-480.5242 913.7228,-480.8079 925.0293,-483.8498 932.7408,-486.2655 934.2264,-486.7956 945.6591,-491.9081 951.4214,-494.7404 947.5154,-535.2654 946.6821,-553.782 946.9503,-558.3655 946.8871,-559.7835 937.4376,-657.8244 932.5161,-662.1638 944.0322,-722.6064 945.9674,-738.6812 946.3327,-742.9799 946.7974,-745.9349 948.7164,-747.7359 1024.8322,-810.5302 1029.7982,-814.2809 1042.7195,-824.7678 1046.5728,-828.0969 1049.4329,-830.7194 1056.0509,-837.1478 1060.2974,-841.7421 1071.5524,-853.2379 1075.8253,-857.81 1096.2896,-882.8758 1096.9342,-883.7615 1089.1899,-889.9146 992.8246,-970.0554 956.611,-966.3266 946.0626,-965.4834 934.927,-964.851 929.4465,-964.7935 913.1451,-965.3766 912.2917,-965.4268 870.7174,-969.7963 869.4222,-969.4496 862.6649,-966.9223 787.8796,-925.9836 772.4439,-904.6108 771.8351,-904.2482 696.3163,-838.1886 688.8741,-784.3146 688.9147,-784.053 693.5652,-749.0129 699.627,-678.418 654.0942,-622.7809 649.1867,-592.8199 647.7747,-552.3856 646.607,-538.1171 637.0306,-447.1005 682.5108,-429.6974 699.0003,-424.0859 704.9038,-422.3303 712.0872,-420.3473 714.8252,-419.6501 716.1368,-419.344 735.1633,-415.7058 748.5696,-413.9988 776.2238,-435.808 786.057,-443.1558 788.9415,-445.463 802.5121,-454.5201 805.6051,-456.4447 817.8214,-462.9825 825.8414,-466.9146 834.9917,-470.5813 846.4257,-474.1498 "/>
<!-- authconfig&#45;&gt;python3&#45;sssdconfig -->
<g id="edge1" class="edge">
<title>authconfig&#45;&gt;python3&#45;sssdconfig</title>
<path fill="none" stroke="#444444" stroke-opacity="0.333333" d="M1003.2284,-18.0013C1003.065,-18.0013 1002.9015,-18.0013 1002.7379,-18.0013"/>
<polygon fill="#444444" fill-opacity="0.333333" stroke="#444444" stroke-opacity="0.333333" points="1005.3029,-14.5014 995.3028,-18.0012 1005.3028,-21.5014 1005.3029,-14.5014"/>
</g>
<!-- firewalld&#45;&gt;firewalld&#45;filesystem -->
<g id="edge2" class="edge">
<title>firewalld&#45;&gt;firewalld&#45;filesystem</title>
<path fill="none" stroke="#444444" stroke-opacity="0.333333" d="M1737.7071,-728C1737.7902,-728 1737.8734,-728 1737.9566,-728"/>
<polygon fill="#444444" fill-opacity="0.333333" stroke="#444444" stroke-opacity="0.333333" points="1735.8032,-731.5001 1745.8032,-728 1735.8031,-724.5001 1735.8032,-731.5001"/>
</g>
<!-- firewalld&#45;&gt;python3&#45;firewall -->
<g id="edge3" class="edge">
<title>firewalld&#45;&gt;python3&#45;firewall</title>
<path fill="none" stroke="#444444" stroke-opacity="0.333333" d="M1619.3482,-728C1605.3004,-728 1589.8846,-728 1574.4211,-728"/>
<polygon fill="#444444" fill-opacity="0.333333" stroke="#444444" stroke-opacity="0.333333" points="1574.2665,-724.5001 1564.2665,-728 1574.2664,-731.5001 1574.2665,-724.5001"/>
</g>
<!-- python3&#45;firewall&#45;&gt;python3&#45;slip&#45;dbus -->
<g id="edge4" class="edge">
<title>python3&#45;firewall&#45;&gt;python3&#45;slip&#45;dbus</title>
<path fill="none" stroke="#444444" stroke-opacity="0.333333" d="M1369.8505,-728C1369.0528,-728 1368.2545,-728 1367.4557,-728"/>
<polygon fill="#444444" fill-opacity="0.333333" stroke="#444444" stroke-opacity="0.333333" points="1367.0575,-724.5001 1357.0575,-728 1367.0574,-731.5001 1367.0575,-724.5001"/>
</g>
<!-- python3&#45;slip&#45;dbus&#45;&gt;python3&#45;slip -->
<g id="edge5" class="edge">
<title>python3&#45;slip&#45;dbus&#45;&gt;python3&#45;slip</title>
<path fill="none" stroke="#444444" stroke-opacity="0.333333" d="M1152.6094,-728C1152.452,-728 1152.2947,-728 1152.1374,-728"/>
<polygon fill="#444444" fill-opacity="0.333333" stroke="#444444" stroke-opacity="0.333333" points="1155.0903,-724.5001 1145.0903,-728 1155.0902,-731.5001 1155.0903,-724.5001"/>
</g>
<!-- libmbim&#45;&gt;libgudev -->
<g id="edge6" class="edge">
<title>libmbim&#45;&gt;libgudev</title>
<path fill="none" stroke="#444444" stroke-opacity="0.333333" d="M72.41,-438.2285C74.2194,-448.6096 76.5283,-461.8566 78.5709,-473.5755"/>
<polygon fill="#444444" fill-opacity="0.333333" stroke="#444444" stroke-opacity="0.333333" points="75.1847,-474.5318 80.3499,-483.7822 82.0807,-473.3298 75.1847,-474.5318"/>
</g>
<!-- libmbim&#45;utils&#45;&gt;libmbim -->
<g id="edge7" class="edge">
<title>libmbim&#45;utils&#45;&gt;libmbim</title>
<path fill="none" stroke="#444444" stroke-opacity="0.333333" d="M148.5158,-439.8661C141.4521,-438.1021 134.3472,-436.3278 127.4475,-434.6048"/>
<polygon fill="#444444" fill-opacity="0.333333" stroke="#444444" stroke-opacity="0.333333" points="128.0645,-431.1514 117.5144,-432.1242 126.3684,-437.9429 128.0645,-431.1514"/>
</g>
<!-- libmbim&#45;utils&#45;&gt;libgudev -->
<g id="edge8" class="edge">
<title>libmbim&#45;utils&#45;&gt;libgudev</title>
<path fill="none" stroke="#444444" stroke-opacity="0.333333" d="M164.4962,-475.9134C158.8079,-477.7379 153.0019,-479.6001 147.2417,-481.4476"/>
<polygon fill="#444444" fill-opacity="0.333333" stroke="#444444" stroke-opacity="0.333333" points="146.0734,-478.1466 137.6201,-484.5336 148.2113,-484.8122 146.0734,-478.1466"/>
</g>
<!-- libqmi&#45;&gt;libmbim -->
<g id="edge9" class="edge">
<title>libqmi&#45;&gt;libmbim</title>
<path fill="none" stroke="#444444" stroke-opacity="0.333333" d="M104.9858,-308.9011C98.015,-330.5833 86.318,-366.9658 78.213,-392.1757"/>
<polygon fill="#444444" fill-opacity="0.333333" stroke="#444444" stroke-opacity="0.333333" points="74.818,-391.3005 75.0893,-401.8919 81.4821,-393.4431 74.818,-391.3005"/>
</g>
<!-- libqmi&#45;utils&#45;&gt;libmbim -->
<g id="edge10" class="edge">
<title>libqmi&#45;utils&#45;&gt;libmbim</title>
<path fill="none" stroke="#444444" stroke-opacity="0.333333" d="M73.5484,-377.841C73.0985,-382.2554 72.6066,-387.0826 72.1213,-391.845"/>
<polygon fill="#444444" fill-opacity="0.333333" stroke="#444444" stroke-opacity="0.333333" points="68.6202,-391.6784 71.0883,-401.9818 75.5842,-392.3882 68.6202,-391.6784"/>
</g>
<!-- libqmi&#45;utils&#45;&gt;libgudev -->
<g id="edge11" class="edge">
<title>libqmi&#45;utils&#45;&gt;libgudev</title>
<path fill="none" stroke="#444444" stroke-opacity="0.333333" d="M76.4205,-377.7434C77.7967,-401.8566 80.2536,-444.9044 81.8818,-473.4313"/>
<polygon fill="#444444" fill-opacity="0.333333" stroke="#444444" stroke-opacity="0.333333" points="78.397,-473.7995 82.4612,-483.5838 85.3856,-473.4006 78.397,-473.7995"/>
</g>
<!-- libqmi&#45;utils&#45;&gt;libqmi -->
<g id="edge12" class="edge">
<title>libqmi&#45;utils&#45;&gt;libqmi</title>
<path fill="none" stroke="#444444" stroke-opacity="0.333333" d="M84.7115,-341.5822C88.4289,-334.3385 92.7886,-325.8435 96.8708,-317.8889"/>
<polygon fill="#444444" fill-opacity="0.333333" stroke="#444444" stroke-opacity="0.333333" points="100.0286,-319.4014 101.4806,-308.9065 93.8008,-316.2053 100.0286,-319.4014"/>
</g>
<!-- ModemManager&#45;&gt;libmbim -->
<g id="edge13" class="edge">
<title>ModemManager&#45;&gt;libmbim</title>
<path fill="none" stroke="#444444" stroke-opacity="0.333333" d="M198.5285,-368.0522C175.6665,-377.2508 147.6795,-388.5115 123.5989,-398.2005"/>
<polygon fill="#444444" fill-opacity="0.333333" stroke="#444444" stroke-opacity="0.333333" points="122.2076,-394.9875 114.2369,-401.9673 124.8206,-401.4816 122.2076,-394.9875"/>
</g>
<!-- ModemManager&#45;&gt;libgudev -->
<g id="edge14" class="edge">
<title>ModemManager&#45;&gt;libgudev</title>
<path fill="none" stroke="#444444" stroke-opacity="0.333333" d="M224.4037,-368.0291C196.0731,-394.9448 142.5857,-445.7609 110.2828,-476.4505"/>
<polygon fill="#444444" fill-opacity="0.333333" stroke="#444444" stroke-opacity="0.333333" points="107.7853,-473.9956 102.9461,-483.4207 112.6067,-479.0704 107.7853,-473.9956"/>
</g>
<!-- ModemManager&#45;&gt;libmbim&#45;utils -->
<g id="edge15" class="edge">
<title>ModemManager&#45;&gt;libmbim&#45;utils</title>
<path fill="none" stroke="#444444" stroke-opacity="0.333333" d="M239.5226,-368.3104C235.966,-385.2279 230.6295,-410.6115 226.5443,-430.0433"/>
<polygon fill="#444444" fill-opacity="0.333333" stroke="#444444" stroke-opacity="0.333333" points="223.1128,-429.3537 224.4805,-439.8599 229.9631,-430.7939 223.1128,-429.3537"/>
</g>
<!-- ModemManager&#45;&gt;libqmi -->
<g id="edge16" class="edge">
<title>ModemManager&#45;&gt;libqmi</title>
<path fill="none" stroke="#444444" stroke-opacity="0.333333" d="M202.8926,-331.8714C189.5352,-325.8857 174.5216,-319.1579 160.5567,-312.9"/>
<polygon fill="#444444" fill-opacity="0.333333" stroke="#444444" stroke-opacity="0.333333" points="161.6464,-309.553 151.0895,-308.6575 158.7839,-315.9409 161.6464,-309.553"/>
</g>
<!-- ModemManager&#45;&gt;libqmi&#45;utils -->
<g id="edge17" class="edge">
<title>ModemManager&#45;&gt;libqmi&#45;utils</title>
<path fill="none" stroke="#444444" stroke-opacity="0.333333" d="M167.7352,-354.3911C165.5582,-354.5172 163.3736,-354.6438 161.1874,-354.7704"/>
<polygon fill="#444444" fill-opacity="0.333333" stroke="#444444" stroke-opacity="0.333333" points="160.7474,-351.2899 150.9665,-355.3624 161.1522,-358.2782 160.7474,-351.2899"/>
</g>
<!-- ModemManager&#45;&gt;ModemManager&#45;glib -->
<g id="edge18" class="edge">
<title>ModemManager&#45;&gt;ModemManager&#45;glib</title>
<path fill="none" stroke="#444444" stroke-opacity="0.333333" d="M267.3068,-331.7995C289.1071,-315.2144 321.4593,-290.6017 345.4316,-272.3642"/>
<polygon fill="#444444" fill-opacity="0.333333" stroke="#444444" stroke-opacity="0.333333" points="347.6909,-275.0432 353.5304,-266.2029 343.4525,-269.4721 347.6909,-275.0432"/>
</g>
<!-- NetworkManager&#45;adsl&#45;&gt;NetworkManager -->
<g id="edge19" class="edge">
<title>NetworkManager&#45;adsl&#45;&gt;NetworkManager</title>
<path fill="none" stroke="#444444" stroke-opacity="0.333333" d="M970.3689,-197.1746C966.8909,-210.5236 962.0821,-228.9801 958.0935,-244.2884"/>
<polygon fill="#444444" fill-opacity="0.333333" stroke="#444444" stroke-opacity="0.333333" points="954.6241,-243.7226 955.4897,-254.2821 961.398,-245.4876 954.6241,-243.7226"/>
</g>
<!-- NetworkManager&#45;&gt;libndp -->
<g id="edge20" class="edge">
<title>NetworkManager&#45;&gt;libndp</title>
<path fill="none" stroke="#444444" stroke-opacity="0.333333" d="M946.2881,-254.4161C938.7656,-223.7053 923.47,-161.261 914.5645,-124.9045"/>
<polygon fill="#444444" fill-opacity="0.333333" stroke="#444444" stroke-opacity="0.333333" points="917.9064,-123.8364 912.1277,-114.9562 911.1074,-125.5018 917.9064,-123.8364"/>
</g>
<!-- NetworkManager&#45;&gt;libpsl -->
<g id="edge21" class="edge">
<title>NetworkManager&#45;&gt;libpsl</title>
<path fill="none" stroke="#444444" stroke-opacity="0.333333" d="M967.3914,-254.3043C989.2333,-230.3858 1027.6811,-188.2822 1052.5357,-161.0644"/>
<polygon fill="#444444" fill-opacity="0.333333" stroke="#444444" stroke-opacity="0.333333" points="1055.3109,-163.2157 1059.4696,-153.4711 1050.1419,-158.4954 1055.3109,-163.2157"/>
</g>
<!-- NetworkManager&#45;&gt;NetworkManager&#45;libnm -->
<g id="edge22" class="edge">
<title>NetworkManager&#45;&gt;NetworkManager&#45;libnm</title>
<path fill="none" stroke="#444444" stroke-opacity="0.333333" d="M864.4567,-274.4007C864.3062,-274.4039 864.1556,-274.4071 864.005,-274.4104"/>
<polygon fill="#444444" fill-opacity="0.333333" stroke="#444444" stroke-opacity="0.333333" points="867.1164,-270.8427 857.1938,-274.5565 867.2666,-277.841 867.1164,-270.8427"/>
</g>
<!-- NetworkManager&#45;bluetooth&#45;&gt;ModemManager&#45;glib -->
<g id="edge23" class="edge">
<title>NetworkManager&#45;bluetooth&#45;&gt;ModemManager&#45;glib</title>
<path fill="none" stroke="#444444" stroke-opacity="0.333333" d="M525.5364,-200.5768C500.064,-208.7494 469.7617,-218.4716 443.2097,-226.9906"/>
<polygon fill="#444444" fill-opacity="0.333333" stroke="#444444" stroke-opacity="0.333333" points="442.0656,-223.6819 433.613,-230.0696 444.2042,-230.3472 442.0656,-223.6819"/>
</g>
<!-- NetworkManager&#45;bluetooth&#45;&gt;NetworkManager -->
<g id="edge24" class="edge">
<title>NetworkManager&#45;bluetooth&#45;&gt;NetworkManager</title>
<path fill="none" stroke="#444444" stroke-opacity="0.333333" d="M655.9029,-200.6706C716.8442,-215.5282 803.1337,-236.5657 866.6198,-252.0438"/>
<polygon fill="#444444" fill-opacity="0.333333" stroke="#444444" stroke-opacity="0.333333" points="866.0613,-255.5101 876.6058,-254.4784 867.7194,-248.7093 866.0613,-255.5101"/>
</g>
<!-- NetworkManager&#45;bluetooth&#45;&gt;bluez&#45;libs -->
<g id="edge25" class="edge">
<title>NetworkManager&#45;bluetooth&#45;&gt;bluez&#45;libs</title>
<path fill="none" stroke="#444444" stroke-opacity="0.333333" d="M587.6497,-164.3293C597.0884,-135.5854 615.4871,-79.555 626.5769,-45.783"/>
<polygon fill="#444444" fill-opacity="0.333333" stroke="#444444" stroke-opacity="0.333333" points="629.9713,-46.6644 629.7658,-36.0715 623.3206,-44.4805 629.9713,-46.6644"/>
</g>
<!-- NetworkManager&#45;bluetooth&#45;&gt;NetworkManager&#45;wwan -->
<g id="edge26" class="edge">
<title>NetworkManager&#45;bluetooth&#45;&gt;NetworkManager&#45;wwan</title>
<path fill="none" stroke="#444444" stroke-opacity="0.333333" d="M568.1507,-200.7128C554.8874,-218.5253 534.5122,-245.889 519.4654,-266.0967"/>
<polygon fill="#444444" fill-opacity="0.333333" stroke="#444444" stroke-opacity="0.333333" points="516.5444,-264.1592 513.3793,-274.2703 522.1589,-268.3398 516.5444,-264.1592"/>
</g>
<!-- NetworkManager&#45;wwan&#45;&gt;ModemManager -->
<g id="edge27" class="edge">
<title>NetworkManager&#45;wwan&#45;&gt;ModemManager</title>
<path fill="none" stroke="#444444" stroke-opacity="0.333333" d="M419.4018,-310.4976C390.6284,-316.9561 358.1092,-324.2554 328.9205,-330.8072"/>
<polygon fill="#444444" fill-opacity="0.333333" stroke="#444444" stroke-opacity="0.333333" points="328.1503,-327.3929 319.1597,-332.9981 329.6835,-334.2229 328.1503,-327.3929"/>
</g>
<!-- NetworkManager&#45;wwan&#45;&gt;ModemManager&#45;glib -->
<g id="edge28" class="edge">
<title>NetworkManager&#45;wwan&#45;&gt;ModemManager&#45;glib</title>
<path fill="none" stroke="#444444" stroke-opacity="0.333333" d="M449.988,-274.4256C445.6958,-272.8749 441.326,-271.2961 436.967,-269.7213"/>
<polygon fill="#444444" fill-opacity="0.333333" stroke="#444444" stroke-opacity="0.333333" points="438.0701,-266.3984 427.4758,-266.2922 435.6915,-272.9819 438.0701,-266.3984"/>
</g>
<!-- NetworkManager&#45;wwan&#45;&gt;NetworkManager -->
<g id="edge29" class="edge">
<title>NetworkManager&#45;wwan&#45;&gt;NetworkManager</title>
<path fill="none" stroke="#444444" stroke-opacity="0.333333" d="M612.463,-287.4722C686.9212,-284.1876 783.5033,-279.927 854.3939,-276.7997"/>
<polygon fill="#444444" fill-opacity="0.333333" stroke="#444444" stroke-opacity="0.333333" points="854.8251,-280.2842 864.6611,-276.3468 854.5165,-273.291 854.8251,-280.2842"/>
</g>
<!-- NetworkManager&#45;team&#45;&gt;NetworkManager -->
<g id="edge30" class="edge">
<title>NetworkManager&#45;team&#45;&gt;NetworkManager</title>
<path fill="none" stroke="#444444" stroke-opacity="0.333333" d="M840.0986,-529.5906C860.3368,-482.5692 914.7839,-356.0671 938.926,-299.9754"/>
<polygon fill="#444444" fill-opacity="0.333333" stroke="#444444" stroke-opacity="0.333333" points="942.1942,-301.2349 942.9328,-290.6659 935.7645,-298.4675 942.1942,-301.2349"/>
</g>
<!-- NetworkManager&#45;team&#45;&gt;teamd -->
<g id="edge31" class="edge">
<title>NetworkManager&#45;team&#45;&gt;teamd</title>
<path fill="none" stroke="#444444" stroke-opacity="0.333333" d="M833.1826,-565.7875C834.928,-602.9377 838.9189,-687.8847 841.0048,-732.2828"/>
<polygon fill="#444444" fill-opacity="0.333333" stroke="#444444" stroke-opacity="0.333333" points="837.514,-732.5638 841.4796,-742.3885 844.5063,-732.2352 837.514,-732.5638"/>
</g>
<!-- teamd&#45;&gt;libteam -->
<g id="edge32" class="edge">
<title>teamd&#45;&gt;libteam</title>
<path fill="none" stroke="#444444" stroke-opacity="0.333333" d="M862.201,-778.5888C874.1811,-789.5004 889.6067,-803.5503 902.7069,-815.4821"/>
<polygon fill="#444444" fill-opacity="0.333333" stroke="#444444" stroke-opacity="0.333333" points="900.3578,-818.0767 910.1076,-822.2228 905.0714,-812.9015 900.3578,-818.0767"/>
</g>
<!-- NetworkManager&#45;tui&#45;&gt;NetworkManager -->
<g id="edge33" class="edge">
<title>NetworkManager&#45;tui&#45;&gt;NetworkManager</title>
<path fill="none" stroke="#444444" stroke-opacity="0.333333" d="M934.2184,-390.6463C937.4333,-367.6523 943.019,-327.7015 946.7936,-300.7047"/>
<polygon fill="#444444" fill-opacity="0.333333" stroke="#444444" stroke-opacity="0.333333" points="950.2727,-301.0968 948.1912,-290.7084 943.3401,-300.1274 950.2727,-301.0968"/>
</g>
<!-- NetworkManager&#45;tui&#45;&gt;NetworkManager&#45;libnm -->
<g id="edge34" class="edge">
<title>NetworkManager&#45;tui&#45;&gt;NetworkManager&#45;libnm</title>
<path fill="none" stroke="#444444" stroke-opacity="0.333333" d="M905.2493,-390.7034C871.1163,-367.4325 811.6173,-326.8676 773.7234,-301.0326"/>
<polygon fill="#444444" fill-opacity="0.333333" stroke="#444444" stroke-opacity="0.333333" points="775.2846,-297.8609 765.0505,-295.1196 771.3413,-303.6446 775.2846,-297.8609"/>
</g>
<!-- NetworkManager&#45;tui&#45;&gt;newt -->
<g id="edge35" class="edge">
<title>NetworkManager&#45;tui&#45;&gt;newt</title>
<path fill="none" stroke="#444444" stroke-opacity="0.333333" d="M942.4629,-426.8368C958.0194,-452.9837 986.8846,-501.4997 1004.9543,-531.8709"/>
<polygon fill="#444444" fill-opacity="0.333333" stroke="#444444" stroke-opacity="0.333333" points="1002.0679,-533.8646 1010.1889,-540.669 1008.0837,-530.2854 1002.0679,-533.8646"/>
</g>
<!-- newt&#45;&gt;slang -->
<g id="edge36" class="edge">
<title>newt&#45;&gt;slang</title>
<path fill="none" stroke="#444444" stroke-opacity="0.333333" d="M1053.5087,-560.5643C1057.9091,-560.7977 1062.4962,-561.041 1067.0931,-561.2849"/>
<polygon fill="#444444" fill-opacity="0.333333" stroke="#444444" stroke-opacity="0.333333" points="1066.9319,-564.7811 1077.1032,-561.8158 1067.3027,-557.791 1066.9319,-564.7811"/>
</g>
<!-- NetworkManager&#45;wifi&#45;&gt;NetworkManager -->
<g id="edge37" class="edge">
<title>NetworkManager&#45;wifi&#45;&gt;NetworkManager</title>
<path fill="none" stroke="#444444" stroke-opacity="0.333333" d="M1055.8442,-307.0153C1042.8018,-302.7389 1028.7785,-298.1409 1015.3585,-293.7407"/>
<polygon fill="#444444" fill-opacity="0.333333" stroke="#444444" stroke-opacity="0.333333" points="1016.3087,-290.3689 1005.7159,-290.579 1014.1277,-297.0205 1016.3087,-290.3689"/>
</g>
<!-- NetworkManager&#45;wifi&#45;&gt;wpa_supplicant -->
<g id="edge38" class="edge">
<title>NetworkManager&#45;wifi&#45;&gt;wpa_supplicant</title>
<path fill="none" stroke="#444444" stroke-opacity="0.333333" d="M1151.4472,-343.1964C1168.9927,-351.0464 1189.7047,-360.3131 1208.1538,-368.5674"/>
<polygon fill="#444444" fill-opacity="0.333333" stroke="#444444" stroke-opacity="0.333333" points="1206.7274,-371.7635 1217.2848,-372.6527 1209.5862,-365.3738 1206.7274,-371.7635"/>
</g>
<!-- psl&#45;&gt;libpsl -->
<g id="edge39" class="edge">
<title>psl&#45;&gt;libpsl</title>
<path fill="none" stroke="#444444" stroke-opacity="0.333333" d="M1174.3901,-156.4793C1161.2721,-153.6298 1145.0638,-150.1089 1129.623,-146.7548"/>
<polygon fill="#444444" fill-opacity="0.333333" stroke="#444444" stroke-opacity="0.333333" points="1130.1423,-143.2861 1119.6273,-144.5835 1128.6564,-150.1265 1130.1423,-143.2861"/>
</g>
<!-- realmd&#45;&gt;authconfig -->
<g id="edge40" class="edge">
<title>realmd&#45;&gt;authconfig</title>
<path fill="none" stroke="#444444" stroke-opacity="0.333333" d="M1204.7616,-18.0005C1186.16,-18.0007 1163.8533,-18.0009 1142.6956,-18.0012"/>
<polygon fill="#444444" fill-opacity="0.333333" stroke="#444444" stroke-opacity="0.333333" points="1142.4227,-14.5011 1132.4227,-18.0013 1142.4228,-21.5011 1142.4227,-14.5011"/>
</g>
<!-- authconfig -->
<g id="node1" class="node">
<title>authconfig</title>
<text text-anchor="middle" x="1067.8" y="-14.302" font-family="monospace" font-size="14.00" fill="#000000">authconfig</text>
</g>
<!-- python3&#45;sssdconfig -->
<g id="node2" class="node">
<title>python3&#45;sssdconfig</title>
<text text-anchor="middle" x="888.24" y="-14.3" font-family="monospace" font-size="14.00" fill="#000000">python3&#45;sssdconfig</text>
</g>
<!-- firewalld -->
<g id="node3" class="node">
<title>firewalld</title>
<text text-anchor="middle" x="1678.6" y="-724.3" font-family="monospace" font-size="14.00" fill="#000000">firewalld</text>
</g>
<!-- firewalld&#45;filesystem -->
<g id="node4" class="node">
<title>firewalld&#45;filesystem</title>
<text text-anchor="middle" x="1864.6" y="-724.3" font-family="monospace" font-size="14.00" fill="#000000">firewalld&#45;filesystem</text>
</g>
<!-- python3&#45;firewall -->
<g id="node5" class="node">
<title>python3&#45;firewall</title>
<text text-anchor="middle" x="1466.9" y="-724.3" font-family="monospace" font-size="14.00" fill="#000000">python3&#45;firewall</text>
</g>
<!-- python3&#45;slip&#45;dbus -->
<g id="node6" class="node">
<title>python3&#45;slip&#45;dbus</title>
<text text-anchor="middle" x="1254.8" y="-724.3" font-family="monospace" font-size="14.00" fill="#000000">python3&#45;slip&#45;dbus</text>
</g>
<!-- python3&#45;slip -->
<g id="node7" class="node">
<title>python3&#45;slip</title>
<text text-anchor="middle" x="1069.4" y="-724.3" font-family="monospace" font-size="14.00" fill="#000000">python3&#45;slip</text>
</g>
<!-- libmbim -->
<g id="node8" class="node">
<title>libmbim</title>
<text text-anchor="middle" x="69.245" y="-416.37" font-family="monospace" font-size="14.00" fill="#000000">libmbim</text>
</g>
<!-- libgudev -->
<g id="node9" class="node">
<title>libgudev</title>
<text text-anchor="middle" x="83.506" y="-498.19" font-family="monospace" font-size="14.00" fill="#000000">libgudev</text>
</g>
<!-- libmbim&#45;utils -->
<g id="node10" class="node">
<title>libmbim&#45;utils</title>
<text text-anchor="middle" x="220.69" y="-454.19" font-family="monospace" font-size="14.00" fill="#000000">libmbim&#45;utils</text>
</g>
<!-- libqmi -->
<g id="node11" class="node">
<title>libqmi</title>
<text text-anchor="middle" x="110.86" y="-286.93" font-family="monospace" font-size="14.00" fill="#000000">libqmi</text>
</g>
<!-- libqmi&#45;utils -->
<g id="node12" class="node">
<title>libqmi&#45;utils</title>
<text text-anchor="middle" x="75.393" y="-356.04" font-family="monospace" font-size="14.00" fill="#000000">libqmi&#45;utils</text>
</g>
<!-- ModemManager -->
<g id="node13" class="node">
<title>ModemManager</title>
<text text-anchor="middle" x="243.37" y="-346.31" font-family="monospace" font-size="14.00" fill="#000000">ModemManager</text>
</g>
<!-- ModemManager&#45;glib -->
<g id="node14" class="node">
<title>ModemManager&#45;glib</title>
<text text-anchor="middle" x="377.26" y="-244.45" font-family="monospace" font-size="14.00" fill="#000000">ModemManager&#45;glib</text>
</g>
<!-- NetworkManager&#45;adsl -->
<g id="node15" class="node">
<title>NetworkManager&#45;adsl</title>
<text text-anchor="middle" x="975.06" y="-175.47" font-family="monospace" font-size="14.00" fill="#000000">NetworkManager&#45;adsl</text>
</g>
<!-- NetworkManager -->
<g id="node16" class="node">
<title>NetworkManager</title>
<text text-anchor="middle" x="950.73" y="-268.85" font-family="monospace" font-size="14.00" fill="#000000">NetworkManager</text>
</g>
<!-- libndp -->
<g id="node17" class="node">
<title>libndp</title>
<text text-anchor="middle" x="907.71" y="-93.221" font-family="monospace" font-size="14.00" fill="#000000">libndp</text>
</g>
<!-- libpsl -->
<g id="node18" class="node">
<title>libpsl</title>
<text text-anchor="middle" x="1076.2" y="-131.45" font-family="monospace" font-size="14.00" fill="#000000">libpsl</text>
</g>
<!-- NetworkManager&#45;libnm -->
<g id="node19" class="node">
<title>NetworkManager&#45;libnm</title>
<text text-anchor="middle" x="738.62" y="-273.4" font-family="monospace" font-size="14.00" fill="#000000">NetworkManager&#45;libnm</text>
</g>
<!-- NetworkManager&#45;bluetooth -->
<g id="node20" class="node">
<title>NetworkManager&#45;bluetooth</title>
<text text-anchor="middle" x="581.66" y="-178.87" font-family="monospace" font-size="14.00" fill="#000000">NetworkManager&#45;bluetooth</text>
</g>
<!-- bluez&#45;libs -->
<g id="node21" class="node">
<title>bluez&#45;libs</title>
<text text-anchor="middle" x="635.7" y="-14.3" font-family="monospace" font-size="14.00" fill="#000000">bluez&#45;libs</text>
</g>
<!-- NetworkManager&#45;wwan -->
<g id="node22" class="node">
<title>NetworkManager&#45;wwan</title>
<text text-anchor="middle" x="499.85" y="-288.74" font-family="monospace" font-size="14.00" fill="#000000">NetworkManager&#45;wwan</text>
</g>
<!-- NetworkManager&#45;team -->
<g id="node23" class="node">
<title>NetworkManager&#45;team</title>
<text text-anchor="middle" x="832.33" y="-543.94" font-family="monospace" font-size="14.00" fill="#000000">NetworkManager&#45;team</text>
</g>
<!-- teamd -->
<g id="node24" class="node">
<title>teamd</title>
<text text-anchor="middle" x="842.33" y="-756.79" font-family="monospace" font-size="14.00" fill="#000000">teamd</text>
</g>
<!-- libteam -->
<g id="node25" class="node">
<title>libteam</title>
<text text-anchor="middle" x="929.9" y="-836.55" font-family="monospace" font-size="14.00" fill="#000000">libteam</text>
</g>
<!-- NetworkManager&#45;tui -->
<g id="node26" class="node">
<title>NetworkManager&#45;tui</title>
<text text-anchor="middle" x="931.69" y="-405.03" font-family="monospace" font-size="14.00" fill="#000000">NetworkManager&#45;tui</text>
</g>
<!-- newt -->
<g id="node27" class="node">
<title>newt</title>
<text text-anchor="middle" x="1021" y="-555.14" font-family="monospace" font-size="14.00" fill="#000000">newt</text>
</g>
<!-- slang -->
<g id="node28" class="node">
<title>slang</title>
<text text-anchor="middle" x="1114.7" y="-560.11" font-family="monospace" font-size="14.00" fill="#000000">slang</text>
</g>
<!-- NetworkManager&#45;wifi -->
<g id="node29" class="node">
<title>NetworkManager&#45;wifi</title>
<text text-anchor="middle" x="1111" y="-321.4" font-family="monospace" font-size="14.00" fill="#000000">NetworkManager&#45;wifi</text>
</g>
<!-- wpa_supplicant -->
<g id="node30" class="node">
<title>wpa_supplicant</title>
<text text-anchor="middle" x="1257.6" y="-386.99" font-family="monospace" font-size="14.00" fill="#000000">wpa_supplicant</text>
</g>
<!-- psl -->
<g id="node31" class="node">
<title>psl</title>
<text text-anchor="middle" x="1201.6" y="-158.69" font-family="monospace" font-size="14.00" fill="#000000">psl</text>
</g>
<!-- realmd -->
<g id="node32" class="node">
<title>realmd</title>
<text text-anchor="middle" x="1247.9" y="-14.3" font-family="monospace" font-size="14.00" fill="#000000">realmd</text>
</g>
</g>
</svg>
