<?xml version="1.0" encoding="UTF-8" standalone="no"?>
<!DOCTYPE svg PUBLIC "-//W3C//DTD SVG 1.1//EN"
 "http://www.w3.org/Graphics/SVG/1.1/DTD/svg11.dtd">
<!-- Generated by graphviz version 2.40.1 (20161225.0304)
 -->
<!-- Title: G Pages: 1 -->
<svg width="2402pt" height="1544pt"
 viewBox="0.00 0.00 2402.10 1544.27" xmlns="http://www.w3.org/2000/svg" xmlns:xlink="http://www.w3.org/1999/xlink">
<g id="graph0" class="graph" transform="scale(1 1) rotate(0) translate(149.7404 1403.1158)">
<title>G</title>
<polygon fill="#dae2ff" stroke="transparent" points="-149.7404,141.1545 -149.7404,-1403.1158 2252.3586,-1403.1158 2252.3586,141.1545 -149.7404,141.1545"/>
<polygon fill="#ccebc5" stroke="#ccebc5" points="256.6328,-188.8501 253.1631,-204.3999 237.6535,-267.9906 370.2136,-385.4178 372.7309,-385.6124 388.3206,-386.5908 395.6284,-386.7295 403.903,-387.0075 412.974,-379.4209 423.4165,-370.954 438.3486,-359.6187 429.2618,-194.2717 429.4593,-194.212 434.587,-194.212 438.2744,-254.8277 438.887,-320.7154 446.3502,-194.3199 450.2029,-194.3199 450.6772,-194.8726 450.6772,-194.8726 450.2029,-194.3199 446.3502,-194.3199 438.887,-320.7154 438.2744,-254.8277 434.587,-194.212 429.4593,-194.212 429.2618,-194.2717 438.3486,-359.6187 438.3625,-359.6085 456.9497,-347.4084 461.1084,-344.8945 467.3737,-341.2671 483.5197,-332.7373 489.9179,-329.6884 500.8073,-325.054 514.8939,-319.7772 559.7644,-304.1346 591.8165,-307.3121 595.3523,-307.4817 603.9865,-307.6748 611.0003,-307.6521 615.4288,-307.8648 618.3758,-307.8552 626.6997,-307.6151 627.6152,-307.6356 628.8169,-307.7241 644.2026,-307.6742 649.0035,-307.7818 649.0848,-307.7878 662.2414,-308.0823 668.7754,-308.5629 734.2113,-315.0499 789.9018,-354.1696 801.7667,-342.3548 821.6962,-324.679 822.6281,-323.7654 828.0045,-318.945 835.1721,-312.8116 835.5472,-312.5061 926.1297,-242.36 913.6837,-207.5228 837.6895,-199.6985 834.2824,-196.2443 832.0704,-195.5964 829.882,-193.9884 828.0421,-193.9884 827.4538,-193.2922 827.4538,-193.2922 828.0421,-193.9884 829.882,-193.9884 832.0704,-195.5964 834.2824,-196.2443 837.6895,-199.6985 913.6837,-207.5228 907.4623,-187.5589 899.6264,-151.2538 898.5611,-147.1937 875.478,-82.5828 845.5444,-58.3132 826.6174,-42.2911 818.3676,-34.4675 812.3837,-29.0159 812.3458,-28.9802 792.4307,-8.8603 786.1384,-2.9228 784.4237,-3.1278 734.2113,-8.3831 728.4386,-6.9743 700.7801,-4.4778 672.4451,-13.7371 660.9722,-17.2883 645.785,-21.2015 635.8521,-23.5877 626.4771,-25.5125 613.6658,-27.6965 559.7644,-34.0731 512.0786,-25.2202 502.8067,-23.1747 495.8148,-21.51 491.8706,-22.3111 473.2021,-25.4645 468.644,-25.9223 445.3506,-27.865 434.7475,-28.0239 417.019,-27.3806 412.1563,-27.1211 397.9142,-26.1176 383.6337,-24.8686 330.7821,-43.5229 328.0036,-44.8433 270.0793,-114.6471 256.6328,-188.8501 256.6328,-188.8501"/>
<polygon fill="#e8cfd0" stroke="#e8cfd0" points="681.9054,-1013.3612 671.8965,-1088.2699 667.5385,-1116.4502 667.9951,-1127.8199 758.5715,-1180.0416 819.0027,-1191.4883 839.0535,-1196.1069 854.4181,-1200.582 855.0883,-1088.614 855.3887,-1084.5045 855.329,-1037.8054 861.6587,-1042.0051 866.1556,-1042.0051 866.1556,-1042.0051 861.6587,-1042.0051 855.329,-1037.8054 855.3887,-1084.5045 855.0883,-1088.614 854.4181,-1200.582 874.6433,-1207.7087 894.9417,-1216.515 898.131,-1217.9626 906.9679,-1222.1516 907.4177,-1222.3831 936.5495,-1231.8489 948.3302,-1233.5131 973.6337,-1243.6681 984.7006,-1246.0125 999.4202,-1232.1 1003.8094,-1227.521 1009.1181,-1222.1479 1035.858,-1197.5067 1037.3575,-1196.1746 1057.8132,-1180.5297 1072.353,-1170.7688 1175.8541,-1107.7701 1188.8751,-1099.4211 1189.8181,-1099.201 1202.8856,-1095.8492 1216.4316,-1091.1212 1225.0673,-1087.9073 1272.1886,-1018.912 1279.0071,-1009.3773 1279.2323,-1003.5849 1279.1357,-961.752 1279.1729,-959.7283 1130.2314,-974.9537 1126.2664,-979.2158 1126.7673,-981.5723 1126.5707,-982.5483 1124.9264,-983.9578 1119.2638,-985.6275 1119.2638,-985.6275 1124.9264,-983.9578 1126.5707,-982.5483 1126.7673,-981.5723 1126.2664,-979.2158 1123.9022,-976.9876 1119.1448,-975.6078 1119.1448,-975.6078 1123.9022,-976.9876 1126.2664,-979.2158 1130.2314,-974.9537 1279.1729,-959.7283 1279.5164,-950.887 1280.323,-906.5817 1271.4432,-900.7943 1263.7596,-895.9729 1247.1681,-887.1346 1241.6505,-884.4572 1227.8225,-878.3923 1210.2068,-871.4975 1171.851,-859.232 1147.9611,-814.6 1134.0942,-781.006 1129.8762,-777.8252 1121.2866,-772.2845 1117.5481,-770.0768 1111.2155,-766.6766 1102.1298,-762.2879 1101.028,-761.8165 1084.1462,-756.3685 1082.0443,-755.8062 1074.3727,-754.5735 1061.9504,-753.2426 1059.6184,-753.2441 1045.9987,-752.5527 1042.0599,-751.9496 1028.8585,-749.2446 1021.4795,-746.9848 1023.6816,-814.6345 1023.6833,-814.636 1027.7369,-814.636 1028.6586,-815.7409 1034.4758,-819.2545 1034.4758,-819.2545 1028.6586,-815.7409 1027.7369,-814.636 1023.6833,-814.636 1023.4044,-815.158 1023.4044,-815.158 1023.6833,-814.636 1023.6816,-814.6345 1021.4795,-746.9848 1021.3339,-746.9329 954.9373,-719.7747 949.2817,-721.4724 948.049,-721.8764 940.1025,-724.928 920.9309,-733.3818 900.2349,-743.6478 907.8925,-755.837 918.6467,-772.076 914.2595,-883.3246 919.8934,-883.3246 920.3487,-883.4722 925.4306,-883.4722 925.4433,-883.4764 926.9615,-885.489 931.0734,-887.9894 931.0734,-887.9894 926.9615,-885.489 925.4433,-883.4764 925.4306,-883.4722 920.3487,-883.4722 919.8934,-883.3246 914.2595,-883.3246 918.6467,-772.076 907.8925,-755.837 900.2349,-743.6478 897.4749,-743.4939 892.5783,-743.1141 826.5719,-735.112 705.8058,-821.5601 692.0325,-832.3714 690.1381,-833.9016 686.2482,-837.3204 686.7747,-841.091 690.3478,-869.7897 693.8038,-879.4009 681.9054,-1013.3612 681.9054,-1013.3612"/>
<polygon fill="#bbd7d9" stroke="#bbd7d9" points="1003.8094,-1227.521 999.4202,-1232.1 984.7006,-1246.0125 1025.4722,-1301.9602 1086.6589,-1356.7952 1182.7627,-1385.2351 1195.8351,-1389.3707 1199.1249,-1390.5444 1204.4113,-1392.6479 1211.6627,-1233.8772 1216.4586,-1236.6367 1216.4586,-1236.6367 1211.6627,-1233.8772 1204.4113,-1392.6479 1218.3624,-1398.4889 1218.8612,-1398.5369 1223.2809,-1399.1158 1232.9191,-1395.5327 1247.0227,-1391.1152 1246.4167,-1260.833 1242.3976,-1232.3475 1243.4998,-1232.0089 1249.5032,-1232.0089 1249.782,-1231.4338 1254.1874,-1226.8163 1320.6339,-1213.297 1279.4553,-1156.0029 1341.9567,-1150.8385 1352.6555,-1153.6431 1354.6548,-1175.8105 1359.5728,-1148.8801 1360.4742,-1147.608 1362.2747,-1147.608 1366.9486,-1178.0787 1369.792,-1147.2863 1374.5911,-1147.2863 1374.9485,-1147.1814 1379.0619,-1147.1814 1379.295,-1147.2499 1384.2372,-1147.2499 1390.0775,-1207.3226 1392.6866,-1265.4149 1395.9866,-1150.3777 1401.2487,-1151.9952 1407.2291,-1150.1705 1410.5114,-1147.3513 1407.027,-1144.2587 1401.1183,-1142.4271 1401.1183,-1142.4271 1407.027,-1144.2587 1410.5114,-1147.3513 1411.0009,-1147.3513 1411.8113,-1147.108 1417.8212,-1147.108 1417.9457,-1147.071 1422.0247,-1147.071 1432.158,-1286.4574 1432.5059,-1293.1396 1432.7672,-1287.4432 1432.7672,-1287.4432 1432.5059,-1293.1396 1432.158,-1286.4574 1422.0247,-1147.071 1417.9457,-1147.071 1417.8212,-1147.108 1411.8113,-1147.108 1411.0009,-1147.3513 1410.5114,-1147.3513 1407.2291,-1150.1705 1401.2487,-1151.9952 1395.9866,-1150.3777 1392.6866,-1265.4149 1390.0775,-1207.3226 1384.2372,-1147.2499 1379.295,-1147.2499 1379.0619,-1147.1814 1374.9485,-1147.1814 1374.5911,-1147.2863 1369.792,-1147.2863 1366.9486,-1178.0787 1362.2747,-1147.608 1360.4742,-1147.608 1359.5728,-1148.8801 1354.6548,-1175.8105 1352.6555,-1153.6431 1341.9567,-1150.8385 1279.4553,-1156.0029 1320.6339,-1213.297 1254.1874,-1226.8163 1249.782,-1231.4338 1249.5032,-1232.0089 1243.4998,-1232.0089 1242.3976,-1232.3475 1246.4167,-1260.833 1247.0227,-1391.1152 1263.5964,-1386.5717 1340.0009,-1367.1405 1398.6815,-1316.764 1418.4808,-1314.0457 1432.375,-1312.6183 1458.1379,-1312.1897 1511.337,-1312.2213 1550.0238,-1295.1196 1569.4883,-1293.538 1568.6093,-1208.5153 1568.6093,-1208.5153 1569.4883,-1293.538 1573.2134,-1293.4146 1573.4985,-1293.4097 1593.7473,-1293.3879 1594.4275,-1167.1632 1595.0179,-1158.7269 1601.0551,-1118.7251 1599.0817,-1116.2593 1599.8527,-1115.3468 1605.1113,-1112.1934 1605.1113,-1112.1934 1599.8527,-1115.3468 1599.0817,-1116.2593 1601.0551,-1118.7251 1604.9084,-1120.9252 1604.9084,-1120.9252 1601.0551,-1118.7251 1595.0179,-1158.7269 1594.4275,-1167.1632 1593.7473,-1293.3879 1606.676,-1293.9969 1610.764,-1293.4189 1612.527,-1293.2271 1618.5684,-1291.717 1630.9515,-1289.0448 1638.0488,-1287.7563 1640.1443,-1287.4117 1643.7427,-1286.8812 1666.3535,-1283.9329 1692.7421,-1280.9471 1797.9951,-1320.0055 1807.0659,-1323.7222 1817.5138,-1328.2046 1829.3125,-1333.7194 1830.866,-1334.5049 1837.9863,-1334.73 1857.1636,-1335.9275 1866.9568,-1336.8398 1900.7925,-1351.2449 1916.3118,-1351.6289 1950.573,-1344.5204 1972.4827,-1340.3612 1981.2935,-1338.8473 1983.6506,-1338.4849 1985.4375,-1338.2742 2003.844,-1336.7609 2009.5962,-1336.3912 2011.8341,-1336.3278 2018.6132,-1334.4358 2029.4872,-1331.8219 2030.3508,-1201.7756 2026.6764,-1179.1278 2028.4764,-1176.8513 2028.4764,-1176.8513 2026.6764,-1179.1278 2030.3508,-1201.7756 2029.4872,-1331.8219 2041.4502,-1329.4098 2041.2368,-1203.8373 2045.21,-1177.0741 2044.1044,-1176.7384 2044.1044,-1176.7384 2045.21,-1177.0741 2041.2368,-1203.8373 2041.4502,-1329.4098 2047.4711,-1328.4296 2061.5562,-1326.4089 2070.3323,-1325.6614 2084.842,-1324.7068 2133.1431,-1322.4684 2214.2622,-1247.7714 2246.491,-1176.9 2248.3586,-1173.316 2247.5203,-1111.9055 2159.9851,-1004.5553 2103.0994,-1001.8038 2079.7556,-1003.979 2062.5813,-1005.0121 2053.3044,-1005.4163 2050.0859,-1005.4499 2042.837,-1005.4055 2028.4708,-1004.8416 2017.8979,-1003.9011 2001.8362,-1001.9388 2001.8055,-1001.9442 1991.5408,-1003.4004 1986.5082,-1004.0305 1983.8691,-1004.317 1976.5835,-1004.8662 1971.4028,-1005.1707 1950.4565,-1006.0543 1945.2814,-1006.1864 1876.698,-983.9061 1850.5065,-986.5087 1839.3945,-987.2252 1832.4871,-987.309 1824.1494,-988.597 1821.2587,-988.9916 1804.2743,-990.7021 1791.8718,-991.5052 1758.5209,-993.0653 1679.901,-955.8411 1674.936,-946.9365 1642.5183,-885.8952 1532.801,-798.9593 1519.9423,-788.4507 1500.9347,-771.991 1497.7766,-769.108 1493.0093,-773.285 1486.1049,-779.0199 1483.428,-781.0651 1464.6884,-795.8524 1471.3319,-982.4067 1467.079,-986.1365 1470.7095,-989.2285 1476.2864,-990.8767 1481.8938,-989.1664 1485.2323,-986.1192 1487.3002,-986.1192 1487.9639,-985.915 1492.1605,-985.915 1493.0885,-986.1978 1498.256,-986.1978 1495.7349,-1069.5236 1508.6963,-1062.7054 1508.6963,-1062.7054 1495.7349,-1069.5236 1498.256,-986.1978 1493.0885,-986.1978 1492.1605,-985.915 1487.9639,-985.915 1487.3002,-986.1192 1485.2323,-986.1192 1481.8938,-989.1664 1476.2864,-990.8767 1470.7095,-989.2285 1467.079,-986.1365 1466.7544,-986.1365 1466.7544,-986.1365 1467.079,-986.1365 1471.3319,-982.4067 1464.6884,-795.8524 1456.8606,-801.8428 1456.6573,-801.984 1444.7898,-809.9628 1441.1527,-812.324 1428.421,-820.2972 1290.0748,-900.4716 1280.323,-906.5817 1279.5164,-950.887 1279.1729,-959.7283 1279.1357,-961.752 1279.2323,-1003.5849 1279.0071,-1009.3773 1272.1886,-1018.912 1225.0673,-1087.9073 1216.4316,-1091.1212 1202.8856,-1095.8492 1189.8181,-1099.201 1188.8751,-1099.4211 1175.8541,-1107.7701 1072.353,-1170.7688 1057.8132,-1180.5297 1037.3575,-1196.1746 1035.858,-1197.5067 1009.1181,-1222.1479 1003.8094,-1227.521 1003.8094,-1227.521"/>
<polygon fill="#cbc5d1" stroke="#cbc5d1" points="327.9083,-569.4642 327.8894,-569.6523 327.7861,-572.3944 277.5615,-576.7149 271.7139,-572.0623 270.9409,-570.84 267.7453,-570.84 263.7636,-610.4894 260.8101,-570.7924 256.7057,-570.7924 252.2086,-634.8425 250.492,-571.9968 251.8141,-570.4088 250.8401,-569.2622 250.8401,-569.2622 251.8141,-570.4088 250.492,-571.9968 245.1817,-575.1345 240.0982,-575.1345 234.3685,-571.731 233.2654,-570.4373 229.3477,-570.4373 229.3026,-570.4505 224.413,-570.4505 224.413,-570.4505 229.3026,-570.4505 229.3477,-570.4373 233.2654,-570.4373 234.3685,-571.731 240.0982,-575.1345 245.1817,-575.1345 250.492,-571.9968 252.2086,-634.8425 256.7057,-570.7924 260.8101,-570.7924 263.7636,-610.4894 267.7453,-570.84 270.9409,-570.84 271.7139,-572.0623 277.5615,-576.7149 327.7861,-572.3944 328.2168,-589.559 312.1945,-751.0186 299.7639,-757.5826 289.878,-771.861 200.5887,-805.6875 153.1806,-812.981 130.3236,-816.9427 118.5608,-819.4324 106.3699,-822.4787 104.2726,-823.0826 101.5514,-729.5543 96.7198,-665.194 102.6075,-666.9974 107.5666,-665.494 111.4409,-661.8271 108.6778,-659.412 108.6778,-659.412 111.4409,-661.8271 107.5666,-665.494 102.6075,-666.9974 96.7198,-665.194 101.5514,-729.5543 104.2726,-823.0826 94.1507,-826.3889 81.9739,-830.6014 77.8859,-832.0933 66.4798,-836.6931 66.5671,-823.98 66.5671,-823.98 66.4798,-836.6931 66.3984,-836.7289 -99.4086,-730.6535 -104.8116,-724.0136 -114.4131,-716.231 -134.1042,-624.8384 -37.6593,-611.4236 29.6045,-605.2847 35.174,-599.6669 35.611,-599.6669 35.6438,-599.6768 40.6415,-599.6768 39.9054,-636.5544 45.4854,-634.1491 45.9654,-601.2411 51.2169,-604.2461 51.2169,-604.2461 45.9654,-601.2411 45.4854,-634.1491 39.9054,-636.5544 40.6415,-599.6768 35.6438,-599.6768 35.611,-599.6669 35.174,-599.6669 29.6045,-605.2847 -37.6593,-611.4236 -134.1042,-624.8384 -145.7404,-579.1981 -139.0654,-547.593 -123.4177,-466.2232 -124.7627,-453.2288 -56.7324,-377.9626 35.7406,-330.5773 36.7208,-330.6035 154.5903,-298.8788 155.1777,-365.1515 155.1777,-365.1515 154.5903,-298.8788 165.6934,-295.4414 167.9255,-294.7055 174.3233,-292.4668 184.7858,-288.5947 189.0493,-286.8457 226.6824,-270.6458 237.6535,-267.9906 370.2136,-385.4178 355.1479,-406.9555 342.7155,-425.4531 329.217,-561.48 327.9083,-569.4642 327.9083,-569.4642"/>
<polygon fill="#fbb4ae" stroke="#fbb4ae" points="1498.4146,-750.5363 1484.6606,-717.7204 1481.228,-709.1588 1467.881,-674.2847 1423.8357,-596.7291 1409.8936,-597.8226 1287.0189,-641.3132 1272.4302,-645.47 1269.6642,-646.0649 1260.3931,-647.7399 1258.8385,-647.9668 1251.8973,-648.7401 1241.7123,-649.5217 1241.2273,-649.5421 1240.4847,-649.5475 1230.4327,-664.7953 1228.6722,-667.0231 1223.3671,-674.5134 1211.4473,-688.1549 1211.4473,-688.1549 1223.3671,-674.5134 1228.6722,-667.0231 1230.4327,-664.7953 1240.4847,-649.5475 1232.2604,-644.6694 1224.5502,-640.8383 1211.9121,-635.167 1204.9089,-632.7179 1204.7593,-632.6729 1196.3492,-630.5452 1193.4829,-629.9592 1178.7947,-627.6644 1175.6155,-627.4789 1170.7778,-627.4307 1167.5292,-627.5561 1164.0032,-627.5131 1160.4272,-627.8184 1155.8972,-627.9736 1151.1555,-627.8947 1150.1658,-627.8278 1148.5615,-627.8756 1139.8596,-627.6915 1136.9941,-627.7706 1133.4703,-627.6885 1133.4656,-627.6887 1131.4258,-627.5328 1131.1639,-627.5255 1120.1975,-627.756 1123.2351,-691.1713 1117.2064,-687.3971 1111.8158,-687.3971 1105.2043,-691.6731 1104.9334,-691.5857 1101.4668,-691.5857 1101.4668,-691.5857 1104.9334,-691.5857 1105.2043,-691.6731 1111.8158,-687.3971 1117.2064,-687.3971 1123.2351,-691.1713 1120.1975,-627.756 1117.2671,-627.668 1116.1229,-627.5753 1110.6132,-627.3983 1094.6383,-625.2545 1087.9526,-623.6837 1084.4996,-622.6982 1071.3143,-617.566 1066.749,-605.51 1057.5624,-563.25 1053.8987,-553.5748 1003.3374,-562.5649 1003.7004,-599.1078 998.2764,-602.9373 997.1339,-604.7646 996.3337,-605.3649 992.5515,-605.3649 992.0864,-605.2256 989.1157,-605.2256 989.1157,-605.2256 992.0864,-605.2256 992.5515,-605.3649 996.3337,-605.3649 997.1339,-604.7646 998.2764,-602.9373 1003.7004,-599.1078 1003.3374,-562.5649 1053.8987,-553.5748 1054.795,-549.073 1048.9977,-541.7625 991.8464,-525.6847 989.2227,-522.3344 986.0118,-520.7827 985.8728,-520.6489 980.224,-520.6489 979.8791,-520.5389 975.0048,-520.5389 974.7155,-520.6301 969.6453,-520.6301 969.6165,-520.6393 962.6763,-520.6393 966.8068,-562.878 963.81,-563.2419 963.81,-563.2419 966.8068,-562.878 962.6763,-520.6393 969.6165,-520.6393 969.6453,-520.6301 974.7155,-520.6301 975.0048,-520.5389 979.8791,-520.5389 980.224,-520.6489 985.8728,-520.6489 986.0118,-520.7827 989.2227,-522.3344 1017.8716,-514.487 1023.9886,-513.6265 1023.9886,-513.6265 1017.8716,-514.487 989.2227,-522.3344 991.8464,-525.6847 1048.9977,-541.7625 1054.795,-549.073 1055.3427,-548.5256 1060.3003,-543.9757 1071.2443,-535.6414 1120.085,-506.0987 1120.7366,-487.9939 1121.3112,-482.4983 1121.0547,-474.4673 1121.0455,-474.3752 1120.8264,-467.4988 1123.2634,-399.7893 1078.9413,-408.027 1063.0099,-410.2499 1061.1165,-410.3354 1052.1724,-410.3198 1051.6228,-410.293 1048.4231,-410.4529 1037.6041,-410.4835 1036.7673,-410.5686 1029.5394,-410.6218 1026.0433,-410.8198 1013.0524,-412.1975 995.3346,-416.6997 990.6315,-418.3496 986.799,-419.8822 986.0848,-420.2033 965.9252,-430.308 962.8052,-432.3258 961.1617,-432.3374 958.9034,-432.4338 952.4161,-432.4795 946.0416,-432.2972 943.7516,-432.3947 946.9918,-519.7161 941.2663,-516.2037 941.2663,-516.2037 946.9918,-519.7161 943.7516,-432.3947 937.8812,-432.436 929.6034,-431.9059 924.8891,-431.4366 917.0272,-430.3745 910.4366,-429.2505 899.8161,-426.6845 887.5802,-422.856 884.5515,-421.802 800.2477,-389.472 797.6034,-388.5217 789.9018,-354.1696 734.2113,-315.0499 668.7754,-308.5629 662.2414,-308.0823 649.0848,-307.7878 649.0035,-307.7818 644.2026,-307.6742 628.8169,-307.7241 627.6152,-307.6356 626.6997,-307.6151 618.3758,-307.8552 620.8533,-417.0595 625.6824,-419.9293 627.1966,-421.7945 626.9025,-422.1346 626.9025,-422.1346 627.1966,-421.7945 625.6824,-419.9293 620.8533,-417.0595 615.4661,-417.0595 615.4661,-417.0595 620.8533,-417.0595 618.3758,-307.8552 615.4288,-307.8648 611.0003,-307.6521 603.9865,-307.6748 595.3523,-307.4817 591.8165,-307.3121 559.7644,-304.1346 514.8939,-319.7772 500.8073,-325.054 489.9179,-329.6884 483.5197,-332.7373 467.3737,-341.2671 461.1084,-344.8945 456.9497,-347.4084 438.3625,-359.6085 438.3486,-359.6187 423.4165,-370.954 412.974,-379.4209 403.903,-387.0075 395.6284,-386.7295 388.3206,-386.5908 372.7309,-385.6124 370.2136,-385.4178 355.1479,-406.9555 342.7155,-425.4531 329.217,-561.48 327.9083,-569.4642 327.8894,-569.6523 327.7861,-572.3944 328.2168,-589.559 312.1945,-751.0186 380.3541,-736.9764 381.979,-736.6722 389.5363,-735.3997 402.6084,-733.4448 414.2426,-732.5818 423.6231,-732.0627 432.5083,-731.7389 445.7424,-731.7562 460.5261,-732.8919 471.9019,-733.9806 483.0077,-735.4615 497.2127,-737.6218 566.0488,-784.7139 597.8899,-795.4796 609.7719,-799.7247 632.6694,-808.778 650.525,-817.1797 653.7521,-818.819 666.5529,-825.8112 686.2482,-837.3204 690.1381,-833.9016 687.5243,-751.9869 686.8954,-679.1172 689.7154,-622.1724 689.3213,-622.0432 689.2106,-591.0214 687.6403,-590.9427 683.5944,-591.2247 682.3151,-591.153 680.3422,-564.4526 675.4379,-564.4526 670.4365,-561.5652 669.061,-559.9102 665.1058,-559.9102 663.1326,-590.54 661.9095,-590.5984 661.6205,-590.6478 661.6205,-590.6478 661.9095,-590.5984 658.107,-560.0193 653.8863,-560.0193 653.6603,-559.9514 648.6677,-559.9514 647.8429,-590.864 642.8076,-591.0214 642.7781,-591.0259 639.1393,-591.1183 638.106,-591.0143 637.5133,-559.9941 631.7657,-559.9941 630.9151,-559.7399 627.8564,-559.7399 624.7358,-590.5886 623.6337,-590.5985 620.7245,-560.1415 617.8409,-560.1415 617.3746,-560.8477 612.8272,-590.8588 612.5349,-590.8582 611.2206,-591.0132 611.2206,-591.0132 612.5349,-590.8582 612.8272,-590.8588 617.3746,-560.8477 617.8409,-560.1415 620.7245,-560.1415 623.6337,-590.5985 624.7358,-590.5886 627.8564,-559.7399 630.9151,-559.7399 631.7657,-559.9941 637.5133,-559.9941 638.106,-591.0143 639.1393,-591.1183 642.7781,-591.0259 642.8076,-591.0214 647.8429,-590.864 648.6677,-559.9514 653.6603,-559.9514 653.8863,-560.0193 658.107,-560.0193 661.9095,-590.5984 663.1326,-590.54 665.1058,-559.9102 669.061,-559.9102 670.4365,-561.5652 675.4379,-564.4526 680.3422,-564.4526 685.5383,-561.373 686.9193,-559.6641 685.3751,-557.7775 681.2145,-555.3755 681.2145,-555.3755 685.3751,-557.7775 686.9193,-559.6641 685.5383,-561.373 680.3422,-564.4526 682.3151,-591.153 683.5944,-591.2247 687.6403,-590.9427 689.2106,-591.0214 691.1736,-590.8749 693.6584,-590.986 695.161,-590.8646 700.5973,-591.0812 704.2139,-590.7662 704.6102,-590.8284 712.6972,-591.064 714.9127,-590.8439 716.9764,-590.8915 725.6772,-592.157 729.2216,-593.0958 732.6423,-594.4144 742.9796,-599.6924 742.9677,-598.9478 742.9677,-598.9478 742.9796,-599.6924 732.6423,-594.4144 729.2216,-593.0958 725.6772,-592.157 716.9764,-590.8915 714.9127,-590.8439 712.6972,-591.064 704.6102,-590.8284 704.2139,-590.7662 700.5973,-591.0812 695.161,-590.8646 693.6584,-590.986 691.1736,-590.8749 689.2106,-591.0214 689.3213,-622.0432 689.7154,-622.1724 686.8954,-679.1172 687.5243,-751.9869 690.1381,-833.9016 692.0325,-832.3714 705.8058,-821.5601 705.9633,-735.9583 707.4564,-683.7122 707.4564,-683.7122 705.9633,-735.9583 705.8058,-821.5601 826.5719,-735.112 892.5783,-743.1141 897.4749,-743.4939 900.2349,-743.6478 920.9309,-733.3818 940.1025,-724.928 948.049,-721.8764 949.2817,-721.4724 954.9373,-719.7747 1021.3339,-746.9329 1021.4795,-746.9848 1028.8585,-749.2446 1042.0599,-751.9496 1045.9987,-752.5527 1059.6184,-753.2441 1061.9504,-753.2426 1074.3727,-754.5735 1082.0443,-755.8062 1084.1462,-756.3685 1101.028,-761.8165 1102.1298,-762.2879 1111.2155,-766.6766 1117.5481,-770.0768 1121.2866,-772.2845 1129.8762,-777.8252 1134.0942,-781.006 1147.9611,-814.6 1171.851,-859.232 1210.2068,-871.4975 1227.8225,-878.3923 1241.6505,-884.4572 1247.1681,-887.1346 1263.7596,-895.9729 1271.4432,-900.7943 1280.323,-906.5817 1290.0748,-900.4716 1428.421,-820.2972 1441.1527,-812.324 1444.7898,-809.9628 1456.6573,-801.984 1456.8606,-801.8428 1464.6884,-795.8524 1483.428,-781.0651 1486.1049,-779.0199 1493.0093,-773.285 1497.7766,-769.108 1498.4146,-750.5363 1498.4146,-750.5363"/>
<polygon fill="#d8d6d9" stroke="#d8d6d9" points="1638.7333,-229.6657 1637.3088,-225.7047 1625.3431,-190.576 1505.0677,-92.9573 1464.2988,-86.2372 1456.6884,-241.6152 1451.4534,-246.5575 1451.2444,-246.9339 1450.9951,-247.1576 1449.8536,-247.1576 1445.5172,-251.0891 1451.7454,-310.7719 1453.5867,-344.4336 1454.9027,-345.7047 1465.9818,-357.07 1429.0314,-357.07 1429.0314,-357.07 1465.9818,-357.07 1454.9027,-345.7047 1453.5867,-344.4336 1451.7454,-310.7719 1445.5172,-251.0891 1441.2731,-252.2956 1441.2731,-252.2956 1445.5172,-251.0891 1449.8536,-247.1576 1446.6351,-244.3544 1440.8512,-242.5815 1440.8512,-242.5815 1446.6351,-244.3544 1449.8536,-247.1576 1450.9951,-247.1576 1451.2444,-246.9339 1451.4534,-246.5575 1456.6884,-241.6152 1464.2988,-86.2372 1451.7755,-83.9443 1441.7201,-81.9211 1421.543,-76.7637 1396.2758,-69.3992 1229.4873,-124.068 1220.6586,-166.2152 1200.6167,-199.4095 1195.5802,-308.9538 1195.4567,-314.0026 1194.6097,-332.2324 1185.6237,-341.6407 1166.8838,-358.9601 1166.4147,-359.4432 1123.2634,-399.7893 1120.8264,-467.4988 1121.0455,-474.3752 1121.0547,-474.4673 1121.3112,-482.4983 1120.7366,-487.9939 1120.085,-506.0987 1071.2443,-535.6414 1060.3003,-543.9757 1055.3427,-548.5256 1054.795,-549.073 1053.8987,-553.5748 1057.5624,-563.25 1066.749,-605.51 1071.3143,-617.566 1084.4996,-622.6982 1087.9526,-623.6837 1094.6383,-625.2545 1110.6132,-627.3983 1116.1229,-627.5753 1117.2671,-627.668 1120.1975,-627.756 1131.1639,-627.5255 1131.4258,-627.5328 1133.4656,-627.6887 1133.4703,-627.6885 1136.9941,-627.7706 1139.8596,-627.6915 1148.5615,-627.8756 1150.1658,-627.8278 1151.1555,-627.8947 1155.8972,-627.9736 1160.4272,-627.8184 1164.0032,-627.5131 1167.5292,-627.5561 1170.7778,-627.4307 1175.6155,-627.4789 1178.7947,-627.6644 1193.4829,-629.9592 1196.3492,-630.5452 1204.7593,-632.6729 1204.9089,-632.7179 1211.9121,-635.167 1224.5502,-640.8383 1232.2604,-644.6694 1240.4847,-649.5475 1241.2273,-649.5421 1241.7123,-649.5217 1251.8973,-648.7401 1258.8385,-647.9668 1260.3931,-647.7399 1269.6642,-646.0649 1272.4302,-645.47 1287.0189,-641.3132 1409.8936,-597.8226 1423.8357,-596.7291 1437.5367,-521.7076 1438.3129,-517.8569 1509.2761,-425.6004 1519.7032,-403.1389 1549.395,-379.9443 1619.5942,-259.9554 1622.6545,-254.9425 1638.7333,-229.6657 1638.7333,-229.6657"/>
<polygon fill="#fdd9a7" stroke="#fdd9a7" points="978.6311,-17.8051 973.3694,20.85 969.4656,130.5569 909.0035,134.731 786.1384,-2.9228 792.4307,-8.8603 812.3458,-28.9802 812.3837,-29.0159 818.3676,-34.4675 826.6174,-42.2911 845.5444,-58.3132 875.478,-82.5828 967.9315,-83.2645 973.2133,-83.5867 973.1682,-93.8498 973.1682,-93.8498 973.2133,-83.5867 967.9315,-83.2645 875.478,-82.5828 898.5611,-147.1937 899.6264,-151.2538 907.4623,-187.5589 913.6837,-207.5228 926.1297,-242.36 835.5472,-312.5061 835.1721,-312.8116 828.0045,-318.945 822.6281,-323.7654 821.6962,-324.679 801.7667,-342.3548 789.9018,-354.1696 797.6034,-388.5217 800.2477,-389.472 884.5515,-421.802 887.5802,-422.856 899.8161,-426.6845 910.4366,-429.2505 917.0272,-430.3745 924.8891,-431.4366 929.6034,-431.9059 937.8812,-432.436 943.7516,-432.3947 946.0416,-432.2972 947.5115,-382.7963 947.5115,-382.7963 946.0416,-432.2972 952.4161,-432.4795 958.9034,-432.4338 961.1617,-432.3374 962.8052,-432.3258 965.9252,-430.308 966.058,-425.5342 966.058,-425.5342 965.9252,-430.308 986.0848,-420.2033 986.799,-419.8822 990.6315,-418.3496 995.3346,-416.6997 1013.0524,-412.1975 1026.0433,-410.8198 1029.5394,-410.6218 1036.7673,-410.5686 1037.6041,-410.4835 1048.4231,-410.4529 1051.6228,-410.293 1050.838,-388.5034 1050.838,-388.5034 1051.6228,-410.293 1052.1724,-410.3198 1061.1165,-410.3354 1063.0099,-410.2499 1078.9413,-408.027 1123.2634,-399.7893 1166.4147,-359.4432 1166.8838,-358.9601 1185.6237,-341.6407 1194.6097,-332.2324 1195.4567,-314.0026 1195.5802,-308.9538 1200.6167,-199.4095 1220.6586,-166.2152 1229.4873,-124.068 1217.1234,-107.6777 1214.193,-103.5538 1009.6572,-83.1417 1009.6073,-83.1394 1000.5275,-83.2033 999.9708,-83.2369 999.9352,-108.8545 999.9352,-108.8545 999.9708,-83.2369 995.7296,-83.0879 990.61,-83.4559 984.4735,-83.6022 986.5691,-143.7151 980.785,-145.5028 977.4197,-148.5392 981.2702,-152.0062 985.9588,-153.3803 985.9588,-153.3803 981.2702,-152.0062 977.4197,-148.5392 980.785,-145.5028 986.5691,-143.7151 984.4735,-83.6022 990.61,-83.4559 995.7296,-83.0879 999.9708,-83.2369 1000.5275,-83.2033 1009.6073,-83.1394 1009.6572,-83.1417 1214.193,-103.5538 1183.175,-18 1176.5861,3.7727 1109.3124,96.9208 1071.1533,137.1545 1022.106,132.053 998.8579,130.1353 991.0736,129.9991 969.4656,130.5569 973.3694,20.85 978.6311,-17.8051 982.3359,-17.8051 983.0995,-18.0642 983.9469,-19.1916 988.9089,-22.3599 988.9089,-22.3599 983.9469,-19.1916 983.0995,-18.0642 982.3359,-17.8051 978.6311,-17.8051 978.6311,-17.8051"/>
<polyline fill="none" stroke="#000000" points="626.6997,-307.6151 618.3758,-307.8552 615.4288,-307.8648 611.0003,-307.6521 603.9865,-307.6748 595.3523,-307.4817 591.8165,-307.3121 559.7644,-304.1346 514.8939,-319.7772 500.8073,-325.054 489.9179,-329.6884 483.5197,-332.7373 467.3737,-341.2671 461.1084,-344.8945 456.9497,-347.4084 438.3625,-359.6085 438.3486,-359.6187 423.4165,-370.954 412.974,-379.4209 403.903,-387.0075 395.6284,-386.7295 388.3206,-386.5908 372.7309,-385.6124 370.2136,-385.4178 237.6535,-267.9906 253.1631,-204.3999 256.6328,-188.8501 270.0793,-114.6471 328.0036,-44.8433 330.7821,-43.5229 383.6337,-24.8686 397.9142,-26.1176 412.1563,-27.1211 417.019,-27.3806 434.7475,-28.0239 445.3506,-27.865 468.644,-25.9223 473.2021,-25.4645 491.8706,-22.3111 495.8148,-21.51 502.8067,-23.1747 512.0786,-25.2202 559.7644,-34.0731 613.6658,-27.6965 626.4771,-25.5125 635.8521,-23.5877 645.785,-21.2015 660.9722,-17.2883 672.4451,-13.7371 700.7801,-4.4778 728.4386,-6.9743 734.2113,-8.3831 784.4237,-3.1278 786.1384,-2.9228 792.4307,-8.8603 812.3458,-28.9802 812.3837,-29.0159 818.3676,-34.4675 826.6174,-42.2911 845.5444,-58.3132 875.478,-82.5828 898.5611,-147.1937 899.6264,-151.2538 907.4623,-187.5589 913.6837,-207.5228 926.1297,-242.36 835.5472,-312.5061 835.1721,-312.8116 828.0045,-318.945 822.6281,-323.7654 821.6962,-324.679 801.7667,-342.3548 789.9018,-354.1696 734.2113,-315.0499 668.7754,-308.5629 662.2414,-308.0823 649.0848,-307.7878 649.0035,-307.7818 644.2026,-307.6742 628.8169,-307.7241 627.6152,-307.6356 626.6997,-307.6151 "/>
<polyline fill="none" stroke="#000000" points="1035.858,-1197.5067 1009.1181,-1222.1479 1003.8094,-1227.521 999.4202,-1232.1 984.7006,-1246.0125 973.6337,-1243.6681 948.3302,-1233.5131 936.5495,-1231.8489 907.4177,-1222.3831 906.9679,-1222.1516 898.131,-1217.9626 894.9417,-1216.515 874.6433,-1207.7087 854.4181,-1200.582 839.0535,-1196.1069 819.0027,-1191.4883 758.5715,-1180.0416 667.9951,-1127.8199 667.5385,-1116.4502 671.8965,-1088.2699 681.9054,-1013.3612 693.8038,-879.4009 690.3478,-869.7897 686.7747,-841.091 686.2482,-837.3204 690.1381,-833.9016 692.0325,-832.3714 705.8058,-821.5601 826.5719,-735.112 892.5783,-743.1141 897.4749,-743.4939 900.2349,-743.6478 920.9309,-733.3818 940.1025,-724.928 948.049,-721.8764 949.2817,-721.4724 954.9373,-719.7747 1021.3339,-746.9329 1021.4795,-746.9848 1028.8585,-749.2446 1042.0599,-751.9496 1045.9987,-752.5527 1059.6184,-753.2441 1061.9504,-753.2426 1074.3727,-754.5735 1082.0443,-755.8062 1084.1462,-756.3685 1101.028,-761.8165 1102.1298,-762.2879 1111.2155,-766.6766 1117.5481,-770.0768 1121.2866,-772.2845 1129.8762,-777.8252 1134.0942,-781.006 1147.9611,-814.6 1171.851,-859.232 1210.2068,-871.4975 1227.8225,-878.3923 1241.6505,-884.4572 1247.1681,-887.1346 1263.7596,-895.9729 1271.4432,-900.7943 1280.323,-906.5817 1279.5164,-950.887 1279.1729,-959.7283 1279.1357,-961.752 1279.2323,-1003.5849 1279.0071,-1009.3773 1272.1886,-1018.912 1225.0673,-1087.9073 1216.4316,-1091.1212 1202.8856,-1095.8492 1189.8181,-1099.201 1188.8751,-1099.4211 1175.8541,-1107.7701 1072.353,-1170.7688 1057.8132,-1180.5297 1037.3575,-1196.1746 1035.858,-1197.5067 "/>
<polyline fill="none" stroke="#000000" points="1817.5138,-1328.2046 1807.0659,-1323.7222 1797.9951,-1320.0055 1692.7421,-1280.9471 1666.3535,-1283.9329 1643.7427,-1286.8812 1640.1443,-1287.4117 1638.0488,-1287.7563 1630.9515,-1289.0448 1618.5684,-1291.717 1612.527,-1293.2271 1610.764,-1293.4189 1606.676,-1293.9969 1593.7473,-1293.3879 1573.4985,-1293.4097 1573.2134,-1293.4146 1569.4883,-1293.538 1550.0238,-1295.1196 1511.337,-1312.2213 1458.1379,-1312.1897 1432.375,-1312.6183 1418.4808,-1314.0457 1398.6815,-1316.764 1340.0009,-1367.1405 1263.5964,-1386.5717 1247.0227,-1391.1152 1232.9191,-1395.5327 1223.2809,-1399.1158 1218.8612,-1398.5369 1218.3624,-1398.4889 1204.4113,-1392.6479 1199.1249,-1390.5444 1195.8351,-1389.3707 1182.7627,-1385.2351 1086.6589,-1356.7952 1025.4722,-1301.9602 984.7006,-1246.0125 999.4202,-1232.1 1003.8094,-1227.521 1009.1181,-1222.1479 1035.858,-1197.5067 1037.3575,-1196.1746 1057.8132,-1180.5297 1072.353,-1170.7688 1175.8541,-1107.7701 1188.8751,-1099.4211 1189.8181,-1099.201 1202.8856,-1095.8492 1216.4316,-1091.1212 1225.0673,-1087.9073 1272.1886,-1018.912 1279.0071,-1009.3773 1279.2323,-1003.5849 1279.1357,-961.752 1279.1729,-959.7283 1279.5164,-950.887 1280.323,-906.5817 1290.0748,-900.4716 1428.421,-820.2972 1441.1527,-812.324 1444.7898,-809.9628 1456.6573,-801.984 1456.8606,-801.8428 1464.6884,-795.8524 1483.428,-781.0651 1486.1049,-779.0199 1493.0093,-773.285 1497.7766,-769.108 1500.9347,-771.991 1519.9423,-788.4507 1532.801,-798.9593 1642.5183,-885.8952 1674.936,-946.9365 1679.901,-955.8411 1758.5209,-993.0653 1791.8718,-991.5052 1804.2743,-990.7021 1821.2587,-988.9916 1824.1494,-988.597 1832.4871,-987.309 1839.3945,-987.2252 1850.5065,-986.5087 1876.698,-983.9061 1945.2814,-1006.1864 1950.4565,-1006.0543 1971.4028,-1005.1707 1976.5835,-1004.8662 1983.8691,-1004.317 1986.5082,-1004.0305 1991.5408,-1003.4004 2001.8055,-1001.9442 2001.8362,-1001.9388 2017.8979,-1003.9011 2028.4708,-1004.8416 2042.837,-1005.4055 2050.0859,-1005.4499 2053.3044,-1005.4163 2062.5813,-1005.0121 2079.7556,-1003.979 2103.0994,-1001.8038 2159.9851,-1004.5553 2247.5203,-1111.9055 2248.3586,-1173.316 2246.491,-1176.9 2214.2622,-1247.7714 2133.1431,-1322.4684 2084.842,-1324.7068 2070.3323,-1325.6614 2061.5562,-1326.4089 2047.4711,-1328.4296 2041.4502,-1329.4098 2029.4872,-1331.8219 2018.6132,-1334.4358 2011.8341,-1336.3278 2009.5962,-1336.3912 2003.844,-1336.7609 1985.4375,-1338.2742 1983.6506,-1338.4849 1981.2935,-1338.8473 1972.4827,-1340.3612 1950.573,-1344.5204 1916.3118,-1351.6289 1900.7925,-1351.2449 1866.9568,-1336.8398 1857.1636,-1335.9275 1837.9863,-1334.73 1830.866,-1334.5049 1829.3125,-1333.7194 1817.5138,-1328.2046 "/>
<polyline fill="none" stroke="#000000" points="130.3236,-816.9427 153.1806,-812.981 200.5887,-805.6875 289.878,-771.861 299.7639,-757.5826 312.1945,-751.0186 328.2168,-589.559 327.7861,-572.3944 327.8894,-569.6523 327.9083,-569.4642 329.217,-561.48 342.7155,-425.4531 355.1479,-406.9555 370.2136,-385.4178 237.6535,-267.9906 226.6824,-270.6458 189.0493,-286.8457 184.7858,-288.5947 174.3233,-292.4668 167.9255,-294.7055 165.6934,-295.4414 154.5903,-298.8788 36.7208,-330.6035 35.7406,-330.5773 -56.7324,-377.9626 -124.7627,-453.2288 -123.4177,-466.2232 -139.0654,-547.593 -145.7404,-579.1981 -134.1042,-624.8384 -114.4131,-716.231 -104.8116,-724.0136 -99.4086,-730.6535 66.3984,-836.7289 66.4798,-836.6931 77.8859,-832.0933 81.9739,-830.6014 94.1507,-826.3889 104.2726,-823.0826 106.3699,-822.4787 118.5608,-819.4324 130.3236,-816.9427 "/>
<polyline fill="none" stroke="#000000" points="414.2426,-732.5818 402.6084,-733.4448 389.5363,-735.3997 381.979,-736.6722 380.3541,-736.9764 312.1945,-751.0186 328.2168,-589.559 327.7861,-572.3944 327.8894,-569.6523 327.9083,-569.4642 329.217,-561.48 342.7155,-425.4531 355.1479,-406.9555 370.2136,-385.4178 372.7309,-385.6124 388.3206,-386.5908 395.6284,-386.7295 403.903,-387.0075 412.974,-379.4209 423.4165,-370.954 438.3486,-359.6187 438.3625,-359.6085 456.9497,-347.4084 461.1084,-344.8945 467.3737,-341.2671 483.5197,-332.7373 489.9179,-329.6884 500.8073,-325.054 514.8939,-319.7772 559.7644,-304.1346 591.8165,-307.3121 595.3523,-307.4817 603.9865,-307.6748 611.0003,-307.6521 615.4288,-307.8648 618.3758,-307.8552 626.6997,-307.6151 627.6152,-307.6356 628.8169,-307.7241 644.2026,-307.6742 649.0035,-307.7818 649.0848,-307.7878 662.2414,-308.0823 668.7754,-308.5629 734.2113,-315.0499 789.9018,-354.1696 797.6034,-388.5217 800.2477,-389.472 884.5515,-421.802 887.5802,-422.856 899.8161,-426.6845 910.4366,-429.2505 917.0272,-430.3745 924.8891,-431.4366 929.6034,-431.9059 937.8812,-432.436 943.7516,-432.3947 946.0416,-432.2972 952.4161,-432.4795 958.9034,-432.4338 961.1617,-432.3374 962.8052,-432.3258 965.9252,-430.308 986.0848,-420.2033 986.799,-419.8822 990.6315,-418.3496 995.3346,-416.6997 1013.0524,-412.1975 1026.0433,-410.8198 1029.5394,-410.6218 1036.7673,-410.5686 1037.6041,-410.4835 1048.4231,-410.4529 1051.6228,-410.293 1052.1724,-410.3198 1061.1165,-410.3354 1063.0099,-410.2499 1078.9413,-408.027 1123.2634,-399.7893 1120.8264,-467.4988 1121.0455,-474.3752 1121.0547,-474.4673 1121.3112,-482.4983 1120.7366,-487.9939 1120.085,-506.0987 1071.2443,-535.6414 1060.3003,-543.9757 1055.3427,-548.5256 1054.795,-549.073 1053.8987,-553.5748 1057.5624,-563.25 1066.749,-605.51 1071.3143,-617.566 1084.4996,-622.6982 1087.9526,-623.6837 1094.6383,-625.2545 1110.6132,-627.3983 1116.1229,-627.5753 1117.2671,-627.668 1120.1975,-627.756 1131.1639,-627.5255 1131.4258,-627.5328 1133.4656,-627.6887 1133.4703,-627.6885 1136.9941,-627.7706 1139.8596,-627.6915 1148.5615,-627.8756 1150.1658,-627.8278 1151.1555,-627.8947 1155.8972,-627.9736 1160.4272,-627.8184 1164.0032,-627.5131 1167.5292,-627.5561 1170.7778,-627.4307 1175.6155,-627.4789 1178.7947,-627.6644 1193.4829,-629.9592 1196.3492,-630.5452 1204.7593,-632.6729 1204.9089,-632.7179 1211.9121,-635.167 1224.5502,-640.8383 1232.2604,-644.6694 1240.4847,-649.5475 1241.2273,-649.5421 1241.7123,-649.5217 1251.8973,-648.7401 1258.8385,-647.9668 1260.3931,-647.7399 1269.6642,-646.0649 1272.4302,-645.47 1287.0189,-641.3132 1409.8936,-597.8226 1423.8357,-596.7291 1467.881,-674.2847 1481.228,-709.1588 1484.6606,-717.7204 1498.4146,-750.5363 1497.7766,-769.108 1493.0093,-773.285 1486.1049,-779.0199 1483.428,-781.0651 1464.6884,-795.8524 1456.8606,-801.8428 1456.6573,-801.984 1444.7898,-809.9628 1441.1527,-812.324 1428.421,-820.2972 1290.0748,-900.4716 1280.323,-906.5817 1271.4432,-900.7943 1263.7596,-895.9729 1247.1681,-887.1346 1241.6505,-884.4572 1227.8225,-878.3923 1210.2068,-871.4975 1171.851,-859.232 1147.9611,-814.6 1134.0942,-781.006 1129.8762,-777.8252 1121.2866,-772.2845 1117.5481,-770.0768 1111.2155,-766.6766 1102.1298,-762.2879 1101.028,-761.8165 1084.1462,-756.3685 1082.0443,-755.8062 1074.3727,-754.5735 1061.9504,-753.2426 1059.6184,-753.2441 1045.9987,-752.5527 1042.0599,-751.9496 1028.8585,-749.2446 1021.4795,-746.9848 1021.3339,-746.9329 954.9373,-719.7747 949.2817,-721.4724 948.049,-721.8764 940.1025,-724.928 920.9309,-733.3818 900.2349,-743.6478 897.4749,-743.4939 892.5783,-743.1141 826.5719,-735.112 705.8058,-821.5601 692.0325,-832.3714 690.1381,-833.9016 686.2482,-837.3204 666.5529,-825.8112 653.7521,-818.819 650.525,-817.1797 632.6694,-808.778 609.7719,-799.7247 597.8899,-795.4796 566.0488,-784.7139 497.2127,-737.6218 483.0077,-735.4615 471.9019,-733.9806 460.5261,-732.8919 445.7424,-731.7562 432.5083,-731.7389 423.6231,-732.0627 414.2426,-732.5818 "/>
<polyline fill="none" stroke="#000000" points="1170.7778,-627.4307 1175.6155,-627.4789 1178.7947,-627.6644 1193.4829,-629.9592 1196.3492,-630.5452 1204.7593,-632.6729 1204.9089,-632.7179 1211.9121,-635.167 1224.5502,-640.8383 1232.2604,-644.6694 1240.4847,-649.5475 1241.2273,-649.5421 1241.7123,-649.5217 1251.8973,-648.7401 1258.8385,-647.9668 1260.3931,-647.7399 1269.6642,-646.0649 1272.4302,-645.47 1287.0189,-641.3132 1409.8936,-597.8226 1423.8357,-596.7291 1437.5367,-521.7076 1438.3129,-517.8569 1509.2761,-425.6004 1519.7032,-403.1389 1549.395,-379.9443 1619.5942,-259.9554 1622.6545,-254.9425 1638.7333,-229.6657 1637.3088,-225.7047 1625.3431,-190.576 1505.0677,-92.9573 1464.2988,-86.2372 1451.7755,-83.9443 1441.7201,-81.9211 1421.543,-76.7637 1396.2758,-69.3992 1229.4873,-124.068 1220.6586,-166.2152 1200.6167,-199.4095 1195.5802,-308.9538 1195.4567,-314.0026 1194.6097,-332.2324 1185.6237,-341.6407 1166.8838,-358.9601 1166.4147,-359.4432 1123.2634,-399.7893 1120.8264,-467.4988 1121.0455,-474.3752 1121.0547,-474.4673 1121.3112,-482.4983 1120.7366,-487.9939 1120.085,-506.0987 1071.2443,-535.6414 1060.3003,-543.9757 1055.3427,-548.5256 1054.795,-549.073 1053.8987,-553.5748 1057.5624,-563.25 1066.749,-605.51 1071.3143,-617.566 1084.4996,-622.6982 1087.9526,-623.6837 1094.6383,-625.2545 1110.6132,-627.3983 1116.1229,-627.5753 1117.2671,-627.668 1120.1975,-627.756 1131.1639,-627.5255 1131.4258,-627.5328 1133.4656,-627.6887 1133.4703,-627.6885 1136.9941,-627.7706 1139.8596,-627.6915 1148.5615,-627.8756 1150.1658,-627.8278 1151.1555,-627.8947 1155.8972,-627.9736 1160.4272,-627.8184 1164.0032,-627.5131 1167.5292,-627.5561 1170.7778,-627.4307 "/>
<polyline fill="none" stroke="#000000" points="986.799,-419.8822 986.0848,-420.2033 965.9252,-430.308 962.8052,-432.3258 961.1617,-432.3374 958.9034,-432.4338 952.4161,-432.4795 946.0416,-432.2972 943.7516,-432.3947 937.8812,-432.436 929.6034,-431.9059 924.8891,-431.4366 917.0272,-430.3745 910.4366,-429.2505 899.8161,-426.6845 887.5802,-422.856 884.5515,-421.802 800.2477,-389.472 797.6034,-388.5217 789.9018,-354.1696 801.7667,-342.3548 821.6962,-324.679 822.6281,-323.7654 828.0045,-318.945 835.1721,-312.8116 835.5472,-312.5061 926.1297,-242.36 913.6837,-207.5228 907.4623,-187.5589 899.6264,-151.2538 898.5611,-147.1937 875.478,-82.5828 845.5444,-58.3132 826.6174,-42.2911 818.3676,-34.4675 812.3837,-29.0159 812.3458,-28.9802 792.4307,-8.8603 786.1384,-2.9228 909.0035,134.731 969.4656,130.5569 991.0736,129.9991 998.8579,130.1353 1022.106,132.053 1071.1533,137.1545 1109.3124,96.9208 1176.5861,3.7727 1183.175,-18 1214.193,-103.5538 1217.1234,-107.6777 1229.4873,-124.068 1220.6586,-166.2152 1200.6167,-199.4095 1195.5802,-308.9538 1195.4567,-314.0026 1194.6097,-332.2324 1185.6237,-341.6407 1166.8838,-358.9601 1166.4147,-359.4432 1123.2634,-399.7893 1078.9413,-408.027 1063.0099,-410.2499 1061.1165,-410.3354 1052.1724,-410.3198 1051.6228,-410.293 1048.4231,-410.4529 1037.6041,-410.4835 1036.7673,-410.5686 1029.5394,-410.6218 1026.0433,-410.8198 1013.0524,-412.1975 995.3346,-416.6997 990.6315,-418.3496 986.799,-419.8822 "/>
<!-- authconfig&#45;&gt;python3&#45;sssdconfig -->
<g id="edge1" class="edge">
<title>authconfig&#45;&gt;python3&#45;sssdconfig</title>
<path fill="none" stroke="#444444" stroke-opacity="0.333333" d="M574.254,-194C574.0906,-194 573.9271,-194 573.7634,-194"/>
<polygon fill="#444444" fill-opacity="0.333333" stroke="#444444" stroke-opacity="0.333333" points="576.3267,-190.5001 566.3267,-194 576.3266,-197.5001 576.3267,-190.5001"/>
</g>
<!-- curl&#45;minimal&#45;&gt;libcurl&#45;minimal -->
<g id="edge2" class="edge">
<title>curl&#45;minimal&#45;&gt;libcurl&#45;minimal</title>
<path fill="none" stroke="#444444" stroke-opacity="0.333333" d="M1026.4836,-1022.5993C1008.265,-995.0784 973.3765,-942.3762 952.201,-910.3888"/>
<polygon fill="#444444" fill-opacity="0.333333" stroke="#444444" stroke-opacity="0.333333" points="955.0559,-908.3606 946.6174,-901.9541 949.2189,-912.2246 955.0559,-908.3606"/>
</g>
<!-- firewalld&#45;&gt;firewalld&#45;filesystem -->
<g id="edge3" class="edge">
<title>firewalld&#45;&gt;firewalld&#45;filesystem</title>
<path fill="none" stroke="#444444" stroke-opacity="0.333333" d="M1885.1689,-1158.6338C1887.0881,-1158.8944 1889.0306,-1159.1581 1890.9929,-1159.4245"/>
<polygon fill="#444444" fill-opacity="0.333333" stroke="#444444" stroke-opacity="0.333333" points="1890.5701,-1162.8992 1900.9501,-1160.7765 1891.512,-1155.9628 1890.5701,-1162.8992"/>
</g>
<!-- firewalld&#45;&gt;python3&#45;firewall -->
<g id="edge4" class="edge">
<title>firewalld&#45;&gt;python3&#45;firewall</title>
<path fill="none" stroke="#444444" stroke-opacity="0.333333" d="M1766.7457,-1141.3271C1750.8381,-1138.8376 1733.1315,-1136.0667 1715.48,-1133.3043"/>
<polygon fill="#444444" fill-opacity="0.333333" stroke="#444444" stroke-opacity="0.333333" points="1715.5283,-1129.7693 1705.1074,-1131.6811 1714.446,-1136.6852 1715.5283,-1129.7693"/>
</g>
<!-- python3&#45;firewall&#45;&gt;python3&#45;decorator -->
<g id="edge5" class="edge">
<title>python3&#45;firewall&#45;&gt;python3&#45;decorator</title>
<path fill="none" stroke="#444444" stroke-opacity="0.333333" d="M1589.8016,-1098.3545C1567.0465,-1075.7896 1528.0626,-1037.1316 1502.2862,-1011.5707"/>
<polygon fill="#444444" fill-opacity="0.333333" stroke="#444444" stroke-opacity="0.333333" points="1504.6324,-1008.9682 1495.0673,-1004.4121 1499.7035,-1013.9387 1504.6324,-1008.9682"/>
</g>
<!-- python3&#45;firewall&#45;&gt;python3&#45;slip&#45;dbus -->
<g id="edge6" class="edge">
<title>python3&#45;firewall&#45;&gt;python3&#45;slip&#45;dbus</title>
<path fill="none" stroke="#444444" stroke-opacity="0.333333" d="M1511.011,-1130.9061C1510.8535,-1130.9295 1510.696,-1130.9529 1510.5385,-1130.9763"/>
<polygon fill="#444444" fill-opacity="0.333333" stroke="#444444" stroke-opacity="0.333333" points="1512.8204,-1127.0992 1503.4425,-1132.0292 1513.8479,-1134.0234 1512.8204,-1127.0992"/>
</g>
<!-- python3&#45;slip&#45;dbus&#45;&gt;python3&#45;decorator -->
<g id="edge7" class="edge">
<title>python3&#45;slip&#45;dbus&#45;&gt;python3&#45;decorator</title>
<path fill="none" stroke="#444444" stroke-opacity="0.333333" d="M1409.6915,-1129.0217C1422.8541,-1100.8435 1448.268,-1046.4383 1463.6753,-1013.4548"/>
<polygon fill="#444444" fill-opacity="0.333333" stroke="#444444" stroke-opacity="0.333333" points="1466.8628,-1014.9008 1467.924,-1004.3592 1460.5206,-1011.9382 1466.8628,-1014.9008"/>
</g>
<!-- python3&#45;slip&#45;dbus&#45;&gt;python3&#45;slip -->
<g id="edge8" class="edge">
<title>python3&#45;slip&#45;dbus&#45;&gt;python3&#45;slip</title>
<path fill="none" stroke="#444444" stroke-opacity="0.333333" d="M1362.6449,-1165.2051C1334.8998,-1178.162 1297.285,-1195.7279 1267.5627,-1209.6082"/>
<polygon fill="#444444" fill-opacity="0.333333" stroke="#444444" stroke-opacity="0.333333" points="1265.7922,-1206.5721 1258.2125,-1213.9747 1268.7542,-1212.9146 1265.7922,-1206.5721"/>
</g>
<!-- libmbim&#45;&gt;libgudev -->
<g id="edge9" class="edge">
<title>libmbim&#45;&gt;libgudev</title>
<path fill="none" stroke="#444444" stroke-opacity="0.333333" d="M87.5111,-573.6711C86.8887,-574.1511 86.2629,-574.6335 85.6352,-575.1175"/>
<polygon fill="#444444" fill-opacity="0.333333" stroke="#444444" stroke-opacity="0.333333" points="83.2422,-572.5429 77.4597,-581.4206 87.5163,-578.0866 83.2422,-572.5429"/>
</g>
<!-- libmbim&#45;utils&#45;&gt;libmbim -->
<g id="edge10" class="edge">
<title>libmbim&#45;utils&#45;&gt;libmbim</title>
<path fill="none" stroke="#444444" stroke-opacity="0.333333" d="M103.9887,-644.0832C105.3076,-627.6079 107.2765,-603.013 108.8052,-583.9164"/>
<polygon fill="#444444" fill-opacity="0.333333" stroke="#444444" stroke-opacity="0.333333" points="112.315,-583.933 109.6242,-573.6856 105.3373,-583.3744 112.315,-583.933"/>
</g>
<!-- libmbim&#45;utils&#45;&gt;libgudev -->
<g id="edge11" class="edge">
<title>libmbim&#45;utils&#45;&gt;libgudev</title>
<path fill="none" stroke="#444444" stroke-opacity="0.333333" d="M88.4843,-644.0648C84.0904,-638.4019 79.1496,-632.0341 74.4086,-625.9237"/>
<polygon fill="#444444" fill-opacity="0.333333" stroke="#444444" stroke-opacity="0.333333" points="77.0329,-623.5966 68.1375,-617.8415 71.5024,-627.8877 77.0329,-623.5966"/>
</g>
<!-- libqmi&#45;&gt;libmbim -->
<g id="edge12" class="edge">
<title>libqmi&#45;&gt;libmbim</title>
<path fill="none" stroke="#444444" stroke-opacity="0.333333" d="M161.3473,-469.6732C151.848,-485.8923 137.7833,-509.9066 126.945,-528.412"/>
<polygon fill="#444444" fill-opacity="0.333333" stroke="#444444" stroke-opacity="0.333333" points="123.7992,-526.8577 121.7655,-537.2555 129.8395,-530.3954 123.7992,-526.8577"/>
</g>
<!-- libqmi&#45;utils&#45;&gt;libmbim -->
<g id="edge13" class="edge">
<title>libqmi&#45;utils&#45;&gt;libmbim</title>
<path fill="none" stroke="#444444" stroke-opacity="0.333333" d="M109.177,-513.8905C109.3682,-518.0714 109.5758,-522.6112 109.7813,-527.1041"/>
<polygon fill="#444444" fill-opacity="0.333333" stroke="#444444" stroke-opacity="0.333333" points="106.2948,-527.4819 110.2481,-537.3116 113.2875,-527.1621 106.2948,-527.4819"/>
</g>
<!-- libqmi&#45;utils&#45;&gt;libgudev -->
<g id="edge14" class="edge">
<title>libqmi&#45;utils&#45;&gt;libgudev</title>
<path fill="none" stroke="#444444" stroke-opacity="0.333333" d="M98.8651,-513.6985C90.4151,-529.8482 77.9224,-553.7242 68.2552,-572.2002"/>
<polygon fill="#444444" fill-opacity="0.333333" stroke="#444444" stroke-opacity="0.333333" points="65.0288,-570.8172 63.4938,-581.3003 71.2311,-574.0624 65.0288,-570.8172"/>
</g>
<!-- libqmi&#45;utils&#45;&gt;libqmi -->
<g id="edge15" class="edge">
<title>libqmi&#45;utils&#45;&gt;libqmi</title>
<path fill="none" stroke="#444444" stroke-opacity="0.333333" d="M134.5799,-477.4312C135.5039,-476.7918 136.4344,-476.1479 137.3681,-475.5017"/>
<polygon fill="#444444" fill-opacity="0.333333" stroke="#444444" stroke-opacity="0.333333" points="139.5391,-478.2557 145.7704,-469.687 135.5557,-472.4996 139.5391,-478.2557"/>
</g>
<!-- ModemManager&#45;&gt;libmbim -->
<g id="edge16" class="edge">
<title>ModemManager&#45;&gt;libmbim</title>
<path fill="none" stroke="#444444" stroke-opacity="0.333333" d="M166.8648,-561.8614C166.7077,-561.8434 166.5508,-561.8255 166.3939,-561.8076"/>
<polygon fill="#444444" fill-opacity="0.333333" stroke="#444444" stroke-opacity="0.333333" points="169.7333,-558.6659 159.4011,-561.0102 168.9402,-565.6208 169.7333,-558.6659"/>
</g>
<!-- ModemManager&#45;&gt;libgudev -->
<g id="edge17" class="edge">
<title>ModemManager&#45;&gt;libgudev</title>
<path fill="none" stroke="#444444" stroke-opacity="0.333333" d="M166.9658,-582.1484C150.8187,-584.6345 133.9109,-587.2378 118.2384,-589.6509"/>
<polygon fill="#444444" fill-opacity="0.333333" stroke="#444444" stroke-opacity="0.333333" points="117.4889,-586.2249 108.1381,-591.206 118.5542,-593.1434 117.4889,-586.2249"/>
</g>
<!-- ModemManager&#45;&gt;libmbim&#45;utils -->
<g id="edge18" class="edge">
<title>ModemManager&#45;&gt;libmbim&#45;utils</title>
<path fill="none" stroke="#444444" stroke-opacity="0.333333" d="M214.9447,-588.613C193.0728,-602.9278 162.372,-623.0209 138.5811,-638.5917"/>
<polygon fill="#444444" fill-opacity="0.333333" stroke="#444444" stroke-opacity="0.333333" points="136.6084,-635.6998 130.1578,-644.1046 140.4418,-641.5569 136.6084,-635.6998"/>
</g>
<!-- ModemManager&#45;&gt;libqmi -->
<g id="edge19" class="edge">
<title>ModemManager&#45;&gt;libqmi</title>
<path fill="none" stroke="#444444" stroke-opacity="0.333333" d="M231.8867,-552.4371C220.2124,-532.7905 201.4254,-501.1739 187.9969,-478.5752"/>
<polygon fill="#444444" fill-opacity="0.333333" stroke="#444444" stroke-opacity="0.333333" points="190.9015,-476.6118 182.7843,-469.8029 184.8838,-480.1876 190.9015,-476.6118"/>
</g>
<!-- ModemManager&#45;&gt;libqmi&#45;utils -->
<g id="edge20" class="edge">
<title>ModemManager&#45;&gt;libqmi&#45;utils</title>
<path fill="none" stroke="#444444" stroke-opacity="0.333333" d="M210.1146,-552.3664C192.0228,-542.2737 169.3108,-529.6034 149.9347,-518.7942"/>
<polygon fill="#444444" fill-opacity="0.333333" stroke="#444444" stroke-opacity="0.333333" points="151.4497,-515.6316 141.0115,-513.8163 148.0394,-521.7447 151.4497,-515.6316"/>
</g>
<!-- ModemManager&#45;&gt;ModemManager&#45;glib -->
<g id="edge21" class="edge">
<title>ModemManager&#45;&gt;ModemManager&#45;glib</title>
<path fill="none" stroke="#444444" stroke-opacity="0.333333" d="M318.362,-574.4226C318.5186,-574.4307 318.6752,-574.4388 318.8319,-574.447"/>
<polygon fill="#444444" fill-opacity="0.333333" stroke="#444444" stroke-opacity="0.333333" points="315.7542,-577.7921 325.9219,-574.8141 316.1163,-570.8015 315.7542,-577.7921"/>
</g>
<!-- NetworkManager&#45;adsl&#45;&gt;NetworkManager -->
<g id="edge22" class="edge">
<title>NetworkManager&#45;adsl&#45;&gt;NetworkManager</title>
<path fill="none" stroke="#444444" stroke-opacity="0.333333" d="M943.7202,-539.0712C947.0796,-550.3782 951.4473,-565.0784 955.2198,-577.7758"/>
<polygon fill="#444444" fill-opacity="0.333333" stroke="#444444" stroke-opacity="0.333333" points="951.8839,-578.8372 958.0871,-587.4262 958.594,-576.8435 951.8839,-578.8372"/>
</g>
<!-- NetworkManager&#45;&gt;libcurl&#45;minimal -->
<g id="edge23" class="edge">
<title>NetworkManager&#45;&gt;libcurl&#45;minimal</title>
<path fill="none" stroke="#444444" stroke-opacity="0.333333" d="M961.5612,-623.7615C956.6349,-671.1125 943.4162,-798.1699 937.4789,-855.2393"/>
<polygon fill="#444444" fill-opacity="0.333333" stroke="#444444" stroke-opacity="0.333333" points="933.9795,-855.0528 936.4258,-865.3613 940.9419,-855.7772 933.9795,-855.0528"/>
</g>
<!-- NetworkManager&#45;&gt;libndp -->
<g id="edge24" class="edge">
<title>NetworkManager&#45;&gt;libndp</title>
<path fill="none" stroke="#444444" stroke-opacity="0.333333" d="M976.3813,-587.318C991.9876,-565.3458 1018.3628,-528.2118 1036.2164,-503.0756"/>
<polygon fill="#444444" fill-opacity="0.333333" stroke="#444444" stroke-opacity="0.333333" points="1039.2072,-504.909 1042.1444,-494.7295 1033.5002,-500.8555 1039.2072,-504.909"/>
</g>
<!-- NetworkManager&#45;&gt;libpsl -->
<g id="edge25" class="edge">
<title>NetworkManager&#45;&gt;libpsl</title>
<path fill="none" stroke="#444444" stroke-opacity="0.333333" d="M969.8401,-623.6996C982.681,-660.3084 1011.7183,-743.0928 1026.9902,-786.6326"/>
<polygon fill="#444444" fill-opacity="0.333333" stroke="#444444" stroke-opacity="0.333333" points="1023.7697,-788.0257 1030.3824,-796.3036 1030.3752,-785.7087 1023.7697,-788.0257"/>
</g>
<!-- NetworkManager&#45;&gt;NetworkManager&#45;libnm -->
<g id="edge26" class="edge">
<title>NetworkManager&#45;&gt;NetworkManager&#45;libnm</title>
<path fill="none" stroke="#444444" stroke-opacity="0.333333" d="M1049.7398,-588.4431C1058.4063,-586.7287 1067.2602,-584.9773 1076.0617,-583.2363"/>
<polygon fill="#444444" fill-opacity="0.333333" stroke="#444444" stroke-opacity="0.333333" points="1076.833,-586.6517 1085.9637,-581.2776 1075.4746,-579.7847 1076.833,-586.6517"/>
</g>
<!-- NetworkManager&#45;bluetooth&#45;&gt;ModemManager&#45;glib -->
<g id="edge27" class="edge">
<title>NetworkManager&#45;bluetooth&#45;&gt;ModemManager&#45;glib</title>
<path fill="none" stroke="#444444" stroke-opacity="0.333333" d="M538.4775,-571.1073C538.3937,-571.1141 538.3098,-571.121 538.226,-571.1278"/>
<polygon fill="#444444" fill-opacity="0.333333" stroke="#444444" stroke-opacity="0.333333" points="540.1451,-567.4594 530.463,-571.7615 540.7146,-574.4362 540.1451,-567.4594"/>
</g>
<!-- NetworkManager&#45;bluetooth&#45;&gt;NetworkManager -->
<g id="edge28" class="edge">
<title>NetworkManager&#45;bluetooth&#45;&gt;NetworkManager</title>
<path fill="none" stroke="#444444" stroke-opacity="0.333333" d="M790.4055,-577.7517C815.775,-581.821 842.4842,-586.1052 867.1235,-590.0574"/>
<polygon fill="#444444" fill-opacity="0.333333" stroke="#444444" stroke-opacity="0.333333" points="866.7529,-593.5426 877.181,-591.6707 867.8616,-586.631 866.7529,-593.5426"/>
</g>
<!-- NetworkManager&#45;bluetooth&#45;&gt;bluez&#45;libs -->
<g id="edge29" class="edge">
<title>NetworkManager&#45;bluetooth&#45;&gt;bluez&#45;libs</title>
<path fill="none" stroke="#444444" stroke-opacity="0.333333" d="M670.1565,-541.6515C659.9289,-518.0607 641.9285,-476.5414 629.9998,-449.0271"/>
<polygon fill="#444444" fill-opacity="0.333333" stroke="#444444" stroke-opacity="0.333333" points="633.0944,-447.3656 625.9054,-439.583 626.672,-450.1501 633.0944,-447.3656"/>
</g>
<!-- NetworkManager&#45;bluetooth&#45;&gt;NetworkManager&#45;wwan -->
<g id="edge30" class="edge">
<title>NetworkManager&#45;bluetooth&#45;&gt;NetworkManager&#45;wwan</title>
<path fill="none" stroke="#444444" stroke-opacity="0.333333" d="M672.3151,-577.734C670.7023,-582.8533 668.9071,-588.5519 667.1559,-594.1109"/>
<polygon fill="#444444" fill-opacity="0.333333" stroke="#444444" stroke-opacity="0.333333" points="663.7667,-593.2212 664.1001,-603.8108 670.4432,-595.3245 663.7667,-593.2212"/>
</g>
<!-- NetworkManager&#45;wwan&#45;&gt;ModemManager -->
<g id="edge31" class="edge">
<title>NetworkManager&#45;wwan&#45;&gt;ModemManager</title>
<path fill="none" stroke="#444444" stroke-opacity="0.333333" d="M545.8621,-608.0634C477.5223,-599.5979 391.6259,-588.9577 328.7153,-581.1648"/>
<polygon fill="#444444" fill-opacity="0.333333" stroke="#444444" stroke-opacity="0.333333" points="328.7837,-577.6466 318.4293,-579.8907 327.9231,-584.5936 328.7837,-577.6466"/>
</g>
<!-- NetworkManager&#45;wwan&#45;&gt;ModemManager&#45;glib -->
<g id="edge32" class="edge">
<title>NetworkManager&#45;wwan&#45;&gt;ModemManager&#45;glib</title>
<path fill="none" stroke="#444444" stroke-opacity="0.333333" d="M559.4128,-603.9918C552.1244,-602.6654 544.7479,-601.323 537.4034,-599.9865"/>
<polygon fill="#444444" fill-opacity="0.333333" stroke="#444444" stroke-opacity="0.333333" points="537.8843,-596.5166 527.4192,-598.1696 536.631,-603.4035 537.8843,-596.5166"/>
</g>
<!-- NetworkManager&#45;wwan&#45;&gt;NetworkManager -->
<g id="edge33" class="edge">
<title>NetworkManager&#45;wwan&#45;&gt;NetworkManager</title>
<path fill="none" stroke="#444444" stroke-opacity="0.333333" d="M771.1074,-615.9066C802.6758,-614.2003 836.6896,-612.3619 867.2073,-610.7124"/>
<polygon fill="#444444" fill-opacity="0.333333" stroke="#444444" stroke-opacity="0.333333" points="867.6176,-614.1954 877.4141,-610.1607 867.2398,-607.2056 867.6176,-614.1954"/>
</g>
<!-- NetworkManager&#45;team&#45;&gt;NetworkManager -->
<g id="edge34" class="edge">
<title>NetworkManager&#45;team&#45;&gt;NetworkManager</title>
<path fill="none" stroke="#444444" stroke-opacity="0.333333" d="M996.4823,-362.6678C990.3661,-407.6456 974.6062,-523.5424 967.2931,-577.3221"/>
<polygon fill="#444444" fill-opacity="0.333333" stroke="#444444" stroke-opacity="0.333333" points="963.7872,-577.1289 965.9078,-587.5093 970.7234,-578.0721 963.7872,-577.1289"/>
</g>
<!-- NetworkManager&#45;team&#45;&gt;teamd -->
<g id="edge35" class="edge">
<title>NetworkManager&#45;team&#45;&gt;teamd</title>
<path fill="none" stroke="#444444" stroke-opacity="0.333333" d="M997.8218,-326.2333C995.6271,-291.9977 990.8485,-217.455 988.2317,-176.6354"/>
<polygon fill="#444444" fill-opacity="0.333333" stroke="#444444" stroke-opacity="0.333333" points="991.718,-176.3086 987.5854,-166.553 984.7324,-176.7565 991.718,-176.3086"/>
</g>
<!-- teamd&#45;&gt;libteam -->
<g id="edge36" class="edge">
<title>teamd&#45;&gt;libteam</title>
<path fill="none" stroke="#444444" stroke-opacity="0.333333" d="M987.2684,-130.3804C988.2708,-108.6821 989.9605,-72.1065 991.139,-46.5962"/>
<polygon fill="#444444" fill-opacity="0.333333" stroke="#444444" stroke-opacity="0.333333" points="994.6439,-46.5672 991.6092,-36.4163 987.6514,-46.2441 994.6439,-46.5672"/>
</g>
<!-- NetworkManager&#45;tui&#45;&gt;NetworkManager -->
<g id="edge37" class="edge">
<title>NetworkManager&#45;tui&#45;&gt;NetworkManager</title>
<path fill="none" stroke="#444444" stroke-opacity="0.333333" d="M1182.1303,-497.8283C1136.6765,-520.2115 1059.0693,-558.4283 1009.5784,-582.7995"/>
<polygon fill="#444444" fill-opacity="0.333333" stroke="#444444" stroke-opacity="0.333333" points="1007.801,-579.7734 1000.376,-587.3312 1010.8935,-586.0533 1007.801,-579.7734"/>
</g>
<!-- NetworkManager&#45;tui&#45;&gt;NetworkManager&#45;libnm -->
<g id="edge38" class="edge">
<title>NetworkManager&#45;tui&#45;&gt;NetworkManager&#45;libnm</title>
<path fill="none" stroke="#444444" stroke-opacity="0.333333" d="M1209.6734,-497.9231C1204.1131,-509.0745 1196.879,-523.5827 1190.6409,-536.0934"/>
<polygon fill="#444444" fill-opacity="0.333333" stroke="#444444" stroke-opacity="0.333333" points="1187.4391,-534.6712 1186.109,-545.1823 1193.7035,-537.7949 1187.4391,-534.6712"/>
</g>
<!-- NetworkManager&#45;tui&#45;&gt;newt -->
<g id="edge39" class="edge">
<title>NetworkManager&#45;tui&#45;&gt;newt</title>
<path fill="none" stroke="#444444" stroke-opacity="0.333333" d="M1237.9557,-461.7078C1260.3158,-440.6756 1297.3375,-405.8525 1322.4749,-382.2079"/>
<polygon fill="#444444" fill-opacity="0.333333" stroke="#444444" stroke-opacity="0.333333" points="1324.9792,-384.6574 1329.8653,-375.2565 1320.1832,-379.5586 1324.9792,-384.6574"/>
</g>
<!-- newt&#45;&gt;slang -->
<g id="edge40" class="edge">
<title>newt&#45;&gt;slang</title>
<path fill="none" stroke="#444444" stroke-opacity="0.333333" d="M1364.3094,-338.9503C1379.2099,-321.0811 1402.1358,-293.5875 1418.9862,-273.3799"/>
<polygon fill="#444444" fill-opacity="0.333333" stroke="#444444" stroke-opacity="0.333333" points="1421.852,-275.4083 1425.5682,-265.4866 1416.4758,-270.9253 1421.852,-275.4083"/>
</g>
<!-- NetworkManager&#45;wifi&#45;&gt;NetworkManager -->
<g id="edge41" class="edge">
<title>NetworkManager&#45;wifi&#45;&gt;NetworkManager</title>
<path fill="none" stroke="#444444" stroke-opacity="0.333333" d="M1082.758,-673.7819C1059.8147,-660.6519 1028.6012,-642.789 1003.8567,-628.6283"/>
<polygon fill="#444444" fill-opacity="0.333333" stroke="#444444" stroke-opacity="0.333333" points="1005.478,-625.5235 995.0603,-623.5942 1002.0011,-631.599 1005.478,-625.5235"/>
</g>
<!-- NetworkManager&#45;wifi&#45;&gt;wpa_supplicant -->
<g id="edge42" class="edge">
<title>NetworkManager&#45;wifi&#45;&gt;wpa_supplicant</title>
<path fill="none" stroke="#444444" stroke-opacity="0.333333" d="M1169.1667,-709.9339C1173.8767,-711.4857 1178.6695,-713.0648 1183.4474,-714.639"/>
<polygon fill="#444444" fill-opacity="0.333333" stroke="#444444" stroke-opacity="0.333333" points="1182.6091,-718.0478 1193.2021,-717.8529 1184.7996,-711.3993 1182.6091,-718.0478"/>
</g>
<!-- psl&#45;&gt;curl&#45;minimal -->
<g id="edge43" class="edge">
<title>psl&#45;&gt;curl&#45;minimal</title>
<path fill="none" stroke="#444444" stroke-opacity="0.333333" d="M1094.5183,-998.9766C1087.1565,-1004.4369 1078.9698,-1010.509 1071.1759,-1016.2898"/>
<polygon fill="#444444" fill-opacity="0.333333" stroke="#444444" stroke-opacity="0.333333" points="1068.8774,-1013.637 1062.9306,-1022.4055 1073.0475,-1019.2593 1068.8774,-1013.637"/>
</g>
<!-- psl&#45;&gt;libpsl -->
<g id="edge44" class="edge">
<title>psl&#45;&gt;libpsl</title>
<path fill="none" stroke="#444444" stroke-opacity="0.333333" d="M1110.2249,-962.5815C1095.7986,-933.5065 1067.358,-876.1869 1050.4194,-842.0487"/>
<polygon fill="#444444" fill-opacity="0.333333" stroke="#444444" stroke-opacity="0.333333" points="1053.3441,-840.0685 1045.764,-832.6662 1047.0735,-843.1798 1053.3441,-840.0685"/>
</g>
<!-- realmd&#45;&gt;authconfig -->
<g id="edge45" class="edge">
<title>realmd&#45;&gt;authconfig</title>
<path fill="none" stroke="#444444" stroke-opacity="0.333333" d="M775.7407,-194C757.1475,-194 734.8506,-194 713.7024,-194"/>
<polygon fill="#444444" fill-opacity="0.333333" stroke="#444444" stroke-opacity="0.333333" points="713.4341,-190.5001 703.434,-194 713.434,-197.5001 713.4341,-190.5001"/>
</g>
<!-- xmlrpc&#45;c&#45;client&#45;&gt;libcurl&#45;minimal -->
<g id="edge46" class="edge">
<title>xmlrpc&#45;c&#45;client&#45;&gt;libcurl&#45;minimal</title>
<path fill="none" stroke="#444444" stroke-opacity="0.333333" d="M872.2519,-1019.0745C884.5213,-992.3962 907.4671,-942.5033 921.8166,-911.3021"/>
<polygon fill="#444444" fill-opacity="0.333333" stroke="#444444" stroke-opacity="0.333333" points="925.1505,-912.4295 926.149,-901.8818 918.7908,-909.5046 925.1505,-912.4295"/>
</g>
<!-- authconfig -->
<g id="node1" class="node">
<title>authconfig</title>
<text text-anchor="middle" x="638.84" y="-190.3" font-family="monospace" font-size="14.00" fill="#000000">authconfig</text>
</g>
<!-- python3&#45;sssdconfig -->
<g id="node2" class="node">
<title>python3&#45;sssdconfig</title>
<text text-anchor="middle" x="459.24" y="-190.3" font-family="monospace" font-size="14.00" fill="#000000">python3&#45;sssdconfig</text>
</g>
<!-- curl&#45;minimal -->
<g id="node3" class="node">
<title>curl&#45;minimal</title>
<text text-anchor="middle" x="1038.4" y="-1036.9" font-family="monospace" font-size="14.00" fill="#000000">curl&#45;minimal</text>
</g>
<!-- libcurl&#45;minimal -->
<g id="node4" class="node">
<title>libcurl&#45;minimal</title>
<text text-anchor="middle" x="934.52" y="-879.98" font-family="monospace" font-size="14.00" fill="#000000">libcurl&#45;minimal</text>
</g>
<!-- firewalld -->
<g id="node5" class="node">
<title>firewalld</title>
<text text-anchor="middle" x="1826" y="-1146.9" font-family="monospace" font-size="14.00" fill="#000000">firewalld</text>
</g>
<!-- firewalld&#45;filesystem -->
<g id="node6" class="node">
<title>firewalld&#45;filesystem</title>
<text text-anchor="middle" x="2019.7" y="-1173.2" font-family="monospace" font-size="14.00" fill="#000000">firewalld&#45;filesystem</text>
</g>
<!-- python3&#45;firewall -->
<g id="node7" class="node">
<title>python3&#45;firewall</title>
<text text-anchor="middle" x="1608.1" y="-1112.8" font-family="monospace" font-size="14.00" fill="#000000">python3&#45;firewall</text>
</g>
<!-- python3&#45;decorator -->
<g id="node8" class="node">
<title>python3&#45;decorator</title>
<text text-anchor="middle" x="1476.5" y="-982.3" font-family="monospace" font-size="14.00" fill="#000000">python3&#45;decorator</text>
</g>
<!-- python3&#45;slip&#45;dbus -->
<g id="node9" class="node">
<title>python3&#45;slip&#45;dbus</title>
<text text-anchor="middle" x="1401.2" y="-1143.5" font-family="monospace" font-size="14.00" fill="#000000">python3&#45;slip&#45;dbus</text>
</g>
<!-- python3&#45;slip -->
<g id="node10" class="node">
<title>python3&#45;slip</title>
<text text-anchor="middle" x="1219.4" y="-1228.4" font-family="monospace" font-size="14.00" fill="#000000">python3&#45;slip</text>
</g>
<!-- libmbim -->
<g id="node11" class="node">
<title>libmbim</title>
<text text-anchor="middle" x="111.08" y="-551.8" font-family="monospace" font-size="14.00" fill="#000000">libmbim</text>
</g>
<!-- libgudev -->
<g id="node12" class="node">
<title>libgudev</title>
<text text-anchor="middle" x="53.945" y="-595.85" font-family="monospace" font-size="14.00" fill="#000000">libgudev</text>
</g>
<!-- libmbim&#45;utils -->
<g id="node13" class="node">
<title>libmbim&#45;utils</title>
<text text-anchor="middle" x="102.54" y="-658.48" font-family="monospace" font-size="14.00" fill="#000000">libmbim&#45;utils</text>
</g>
<!-- libqmi -->
<g id="node14" class="node">
<title>libqmi</title>
<text text-anchor="middle" x="171.95" y="-447.87" font-family="monospace" font-size="14.00" fill="#000000">libqmi</text>
</g>
<!-- libqmi&#45;utils -->
<g id="node15" class="node">
<title>libqmi&#45;utils</title>
<text text-anchor="middle" x="108.34" y="-491.89" font-family="monospace" font-size="14.00" fill="#000000">libqmi&#45;utils</text>
</g>
<!-- ModemManager -->
<g id="node16" class="node">
<title>ModemManager</title>
<text text-anchor="middle" x="242.62" y="-566.8" font-family="monospace" font-size="14.00" fill="#000000">ModemManager</text>
</g>
<!-- ModemManager&#45;glib -->
<g id="node17" class="node">
<title>ModemManager&#45;glib</title>
<text text-anchor="middle" x="428.18" y="-576.41" font-family="monospace" font-size="14.00" fill="#000000">ModemManager&#45;glib</text>
</g>
<!-- NetworkManager&#45;adsl -->
<g id="node18" class="node">
<title>NetworkManager&#45;adsl</title>
<text text-anchor="middle" x="938.25" y="-516.96" font-family="monospace" font-size="14.00" fill="#000000">NetworkManager&#45;adsl</text>
</g>
<!-- NetworkManager -->
<g id="node19" class="node">
<title>NetworkManager</title>
<text text-anchor="middle" x="963.46" y="-601.81" font-family="monospace" font-size="14.00" fill="#000000">NetworkManager</text>
</g>
<!-- libndp -->
<g id="node20" class="node">
<title>libndp</title>
<text text-anchor="middle" x="1055" y="-472.93" font-family="monospace" font-size="14.00" fill="#000000">libndp</text>
</g>
<!-- libpsl -->
<g id="node21" class="node">
<title>libpsl</title>
<text text-anchor="middle" x="1036.8" y="-810.9" font-family="monospace" font-size="14.00" fill="#000000">libpsl</text>
</g>
<!-- NetworkManager&#45;libnm -->
<g id="node22" class="node">
<title>NetworkManager&#45;libnm</title>
<text text-anchor="middle" x="1177.1" y="-559.55" font-family="monospace" font-size="14.00" fill="#000000">NetworkManager&#45;libnm</text>
</g>
<!-- NetworkManager&#45;bluetooth -->
<g id="node23" class="node">
<title>NetworkManager&#45;bluetooth</title>
<text text-anchor="middle" x="677.99" y="-556.02" font-family="monospace" font-size="14.00" fill="#000000">NetworkManager&#45;bluetooth</text>
</g>
<!-- bluez&#45;libs -->
<g id="node24" class="node">
<title>bluez&#45;libs</title>
<text text-anchor="middle" x="618.07" y="-417.81" font-family="monospace" font-size="14.00" fill="#000000">bluez&#45;libs</text>
</g>
<!-- NetworkManager&#45;wwan -->
<g id="node25" class="node">
<title>NetworkManager&#45;wwan</title>
<text text-anchor="middle" x="658.37" y="-618.3" font-family="monospace" font-size="14.00" fill="#000000">NetworkManager&#45;wwan</text>
</g>
<!-- NetworkManager&#45;team -->
<g id="node26" class="node">
<title>NetworkManager&#45;team</title>
<text text-anchor="middle" x="998.98" y="-340.6" font-family="monospace" font-size="14.00" fill="#000000">NetworkManager&#45;team</text>
</g>
<!-- teamd -->
<g id="node27" class="node">
<title>teamd</title>
<text text-anchor="middle" x="986.43" y="-144.83" font-family="monospace" font-size="14.00" fill="#000000">teamd</text>
</g>
<!-- libteam -->
<g id="node28" class="node">
<title>libteam</title>
<text text-anchor="middle" x="992.46" y="-14.3" font-family="monospace" font-size="14.00" fill="#000000">libteam</text>
</g>
<!-- NetworkManager&#45;tui -->
<g id="node29" class="node">
<title>NetworkManager&#45;tui</title>
<text text-anchor="middle" x="1218.7" y="-476.12" font-family="monospace" font-size="14.00" fill="#000000">NetworkManager&#45;tui</text>
</g>
<!-- newt -->
<g id="node30" class="node">
<title>newt</title>
<text text-anchor="middle" x="1349.2" y="-353.37" font-family="monospace" font-size="14.00" fill="#000000">newt</text>
</g>
<!-- slang -->
<g id="node31" class="node">
<title>slang</title>
<text text-anchor="middle" x="1440.7" y="-243.64" font-family="monospace" font-size="14.00" fill="#000000">slang</text>
</g>
<!-- NetworkManager&#45;wifi -->
<g id="node32" class="node">
<title>NetworkManager&#45;wifi</title>
<text text-anchor="middle" x="1114.4" y="-688.19" font-family="monospace" font-size="14.00" fill="#000000">NetworkManager&#45;wifi</text>
</g>
<!-- wpa_supplicant -->
<g id="node33" class="node">
<title>wpa_supplicant</title>
<text text-anchor="middle" x="1248.1" y="-732.24" font-family="monospace" font-size="14.00" fill="#000000">wpa_supplicant</text>
</g>
<!-- psl -->
<g id="node34" class="node">
<title>psl</title>
<text text-anchor="middle" x="1119.2" y="-976.97" font-family="monospace" font-size="14.00" fill="#000000">psl</text>
</g>
<!-- realmd -->
<g id="node35" class="node">
<title>realmd</title>
<text text-anchor="middle" x="818.86" y="-190.3" font-family="monospace" font-size="14.00" fill="#000000">realmd</text>
</g>
<!-- xmlrpc&#45;c&#45;client -->
<g id="node36" class="node">
<title>xmlrpc&#45;c&#45;client</title>
<text text-anchor="middle" x="863.87" y="-1033.6" font-family="monospace" font-size="14.00" fill="#000000">xmlrpc&#45;c&#45;client</text>
</g>
</g>
</svg>
