<?xml version="1.0" encoding="UTF-8" standalone="no"?>
<!DOCTYPE svg PUBLIC "-//W3C//DTD SVG 1.1//EN"
 "http://www.w3.org/Graphics/SVG/1.1/DTD/svg11.dtd">
<!-- Generated by graphviz version 2.40.1 (20161225.0304)
 -->
<!-- Title: G Pages: 1 -->
<svg width="2338pt" height="1658pt"
 viewBox="0.00 0.00 2338.40 1657.95" xmlns="http://www.w3.org/2000/svg" xmlns:xlink="http://www.w3.org/1999/xlink">
<g id="graph0" class="graph" transform="scale(1 1) rotate(0) translate(91.7624 1521.3325)">
<title>G</title>
<polygon fill="#dae2ff" stroke="transparent" points="-91.7624,136.6204 -91.7624,-1521.3325 2246.6406,-1521.3325 2246.6406,136.6204 -91.7624,136.6204"/>
<polygon fill="#eed2c5" stroke="#eed2c5" points="566.6604,-218.6676 572.6876,-190.86 586.747,-157.9131 577.7196,-152.2088 573.4599,-149.8137 526.3862,-126.5623 513.7468,-119.3906 499.6521,-109.3764 497.2902,-107.5375 495.6554,-106.1489 493.6046,-104.2534 490.2698,-104.0994 487.476,-104.0805 482.21,-104.2526 478.1408,-104.2189 473.3365,-104.3683 472.621,-104.3321 465.9927,-104.2572 463.1344,-104.337 461.9316,-104.3217 461.3292,-104.2894 460.5012,-104.2775 433.4598,-104.9518 395.0606,-87.4725 385.2606,-95.064 371.8464,-104.609 372.0773,-109.6145 371.8043,-176.8471 365.6591,-174.6398 365.6591,-174.6398 371.8043,-176.8471 372.0773,-109.6145 371.8464,-104.609 385.2606,-95.064 395.0606,-87.4725 392.3783,-79.563 384.7853,-52.1416 381.2424,-35.2952 371.1155,1.1359 345.7137,76.0399 319.3501,70.2542 297.8856,66.0794 284.8094,64.5317 275.9706,63.7101 262.0085,63.1213 258.0093,63.0543 247.9914,63.3943 230.2207,64.8997 222.5348,65.9392 222.2558,9.2512 222.2558,9.2512 222.5348,65.9392 193.6354,71.313 132.5327,47.0555 89.2486,-36.4168 67.6051,-58.494 61.1103,-72.9041 58.4996,-132.86 164.915,-132.86 186.4048,-137.9134 191.8151,-135.6743 194.4516,-132.8315 191.9542,-130.1551 191.9542,-130.1551 194.4516,-132.8315 197.3937,-132.8315 198.3363,-133.147 203.1433,-133.147 207.3024,-166.773 211.3779,-132.8329 211.312,-132.8108 211.312,-132.8108 211.3779,-132.8329 207.3024,-166.773 203.1433,-133.147 198.3363,-133.147 197.3937,-132.8315 194.4516,-132.8315 191.8151,-135.6743 186.4048,-137.9134 164.915,-132.86 58.4996,-132.86 52.7255,-182.5497 26.817,-218.9632 26.2815,-279.5298 26.2624,-279.9695 24.4716,-302.9851 37.7657,-381.6402 95.8831,-464.7794 102.9571,-465.8858 117.0088,-467.8412 122.8294,-468.5504 124.597,-468.7352 130.291,-469.2322 131.0155,-469.283 149.0979,-469.9282 156.4989,-469.9372 161.0694,-470.1021 176.0666,-470.1255 186.9458,-470.332 187.2852,-470.3562 188.6651,-470.4306 202.7475,-471.4357 204.2313,-282.9721 210.1693,-284.9354 210.1693,-284.9354 204.2313,-282.9721 202.7475,-471.4357 214.3477,-472.4658 228.89,-474.2633 239.1134,-475.7042 239.0145,-397.5462 235.1798,-332.7732 235.1798,-332.7732 239.0145,-397.5462 239.1134,-475.7042 261.7883,-480.478 260.1536,-401.906 260.1536,-401.906 261.7883,-480.478 293.9007,-488.3506 353.0422,-438.4089 387.3142,-359.5806 399.3893,-329.1096 399.5274,-329.0158 466.2093,-305.02 467.6258,-304.6042 471.5524,-303.5789 483.8425,-300.7669 492.2043,-299.1282 500.3775,-297.7958 503.9052,-297.3372 507.3694,-297.0007 521.2288,-296.1087 528.187,-296.1184 535.6486,-295.6576 560.7744,-236.7776 566.6604,-218.6676 566.6604,-218.6676"/>
<polygon fill="#ccebc5" stroke="#ccebc5" points="371.1155,1.1359 381.2424,-35.2952 384.7853,-52.1416 392.3783,-79.563 395.0606,-87.4725 433.4598,-104.9518 460.5012,-104.2775 461.3292,-104.2894 461.9316,-104.3217 463.1344,-104.337 465.9927,-104.2572 472.621,-104.3321 473.3365,-104.3683 478.1408,-104.2189 482.21,-104.2526 487.476,-104.0805 490.2698,-104.0994 493.6046,-104.2534 495.6554,-106.1489 497.2902,-107.5375 499.6521,-109.3764 513.7468,-119.3906 526.3862,-126.5623 573.4599,-149.8137 577.7196,-152.2088 586.747,-157.9131 572.6876,-190.86 566.6604,-218.6676 560.7744,-236.7776 535.6486,-295.6576 528.187,-296.1184 521.2288,-296.1087 507.3694,-297.0007 503.9052,-297.3372 500.3775,-297.7958 492.2043,-299.1282 483.8425,-300.7669 471.5524,-303.5789 467.6258,-304.6042 466.2093,-305.02 399.5274,-329.0158 399.3893,-329.1096 387.3142,-359.5806 353.0422,-438.4089 293.9007,-488.3506 317.1129,-560.15 325.0664,-590.1262 320.2742,-625.3844 365.5988,-698.32 366.693,-700.5646 363.522,-766.5956 364.0231,-775.7397 362.9828,-796.5621 362.9312,-796.8992 356.8483,-923.5629 369.4899,-929.9768 408.4088,-936.9924 411.9536,-937.791 428.5442,-934.5913 433.1738,-933.8037 433.9992,-872.9177 441.9118,-787.303 446.6977,-790.408 446.6977,-790.408 441.9118,-787.303 433.9992,-872.9177 433.1738,-933.8037 445.0667,-932.584 455.8782,-930.9386 464.8975,-930.1852 472.4955,-929.7239 474.9353,-929.6314 478.1495,-786.1776 478.7291,-785.9823 474.9732,-742.3929 481.7198,-742.0636 486.1477,-742.2408 487.0079,-699.0945 493.1221,-703.0997 498.3893,-703.0997 498.3893,-703.0997 493.1221,-703.0997 487.0079,-699.0945 486.1477,-742.2408 481.7198,-742.0636 474.9732,-742.3929 478.7291,-785.9823 478.1495,-786.1776 474.9353,-929.6314 489.9441,-929.4053 488.7703,-873.2763 483.5397,-786.2668 482.7145,-785.9823 488.0986,-750.7887 488.4029,-742.5316 491.8119,-742.3664 503.0791,-742.8165 514.9885,-745.3894 514.9885,-745.3894 503.0791,-742.8165 491.8119,-742.3664 488.4029,-742.5316 488.0986,-750.7887 482.7145,-785.9823 483.5397,-786.2668 488.7703,-873.2763 489.9441,-929.4053 559.5842,-931.5345 581.5043,-850.3466 586.9429,-826.0649 593.0114,-791.6613 593.1091,-791.2237 650.9912,-721.4674 686.4355,-682.1027 698.947,-667.5661 699.3188,-667.0765 706.542,-658.1031 711.4774,-655.2342 675.0477,-560.15 659.8781,-508.7663 619.114,-492.696 608.0867,-488.8126 594.6349,-484.6553 586.1405,-482.7727 576.1506,-481.4189 571.2809,-480.9688 559.7888,-480.895 556.4777,-481.0167 556.4777,-481.0167 559.7888,-480.895 571.2809,-480.9688 576.1506,-481.4189 586.1405,-482.7727 594.6349,-484.6553 608.0867,-488.8126 619.114,-492.696 659.8781,-508.7663 674.4448,-481.7 697.9419,-425.4317 717.6031,-384.8944 715.7709,-372.9628 613.533,-397.8817 609.5105,-401.564 608.2225,-401.564 607.4186,-401.8359 602.4858,-401.8359 601.4345,-401.4658 595.1614,-401.4658 595.1381,-401.4577 589.81,-401.4577 588.8806,-401.1288 582.71,-401.1288 582.6318,-401.1021 580.1778,-401.1021 577.2412,-404.1304 571.1362,-406.2495 571.1362,-406.2495 577.2412,-404.1304 580.1778,-401.1021 577.4438,-398.4442 577.4438,-398.4442 580.1778,-401.1021 582.6318,-401.1021 582.71,-401.1288 588.8806,-401.1288 589.81,-401.4577 595.1381,-401.4577 595.1614,-401.4658 601.4345,-401.4658 602.4858,-401.8359 607.4186,-401.8359 608.2225,-401.564 609.5105,-401.564 613.533,-397.8817 715.7709,-372.9628 714.424,-360.3657 694.4813,-333.8341 728.5553,-268.0493 729.9881,-264.422 740.2661,-227.44 742.5532,-223.0243 729.2467,-210.2288 729.0731,-210.0911 719.8107,-204.0872 714.736,-201.5862 708.6593,-199.5124 693.4709,-196.6368 687.7203,-194.6929 684.5831,-193.1668 673.8696,-186.2517 676.4975,-227.2678 670.382,-227.2678 667.6412,-187.3233 662.7014,-226.2553 657.382,-222.7209 657.382,-222.7209 662.7014,-226.2553 667.6412,-187.3233 670.382,-227.2678 676.4975,-227.2678 673.8696,-186.2517 667.8117,-181.4695 660.7542,-173.7104 664.4377,-170.5754 666.9103,-168.77 673.1028,-161.5438 679.4337,-155.4487 685.7189,-150.6873 685.1949,-125.4298 690.8342,-123.5428 694.1124,-120.0103 691.5192,-117.3993 685.3804,-115.3139 683.1125,-26.1771 689.6352,-12.7834 693.7309,-3.663 658.3198,-18 611.4181,-44.1793 609.595,-78.5132 604.1731,-80.8344 601.7003,-48.3795 597.5936,-49.6093 590.1793,-50.8769 591.6291,-78.6448 584.437,-81.2232 582.205,-83.4183 584.8167,-86.055 584.8167,-86.055 582.205,-83.4183 584.437,-81.2232 591.6291,-78.6448 590.1793,-50.8769 597.5936,-49.6093 601.7003,-48.3795 604.1731,-80.8344 609.595,-78.5132 611.4181,-44.1793 658.3198,-18 693.7309,-3.663 689.6352,-12.7834 683.1125,-26.1771 685.3804,-115.3139 691.5192,-117.3993 694.1124,-120.0103 690.8342,-123.5428 685.1949,-125.4298 685.7189,-150.6873 693.189,-146.5627 696.6666,-145.3705 703.3088,-144.3992 708.2517,-144.6675 713.6647,-143.8556 721.7296,-140.9711 727.5968,-137.7019 730.4332,-135.5579 739.009,-127.1524 743.5421,-121.7603 746.3969,-119.0938 748.226,-117.7338 754.4959,-112.3039 757.7883,-109.0532 761.4717,-104.9441 770.3646,-93.8164 773.9291,-88.8973 792.0909,-61.3608 807.543,-29.9228 755.3923,17.552 721.2565,27.7659 680.1123,78.6734 616.5701,110.9806 610.4617,112.9831 584.5999,112.1566 581.2514,18.8877 581.2514,18.8877 584.5999,112.1566 563.5034,112.5433 554.2216,113.1795 552.5917,113.332 551.2727,113.242 548.9161,113.1397 541.1322,113.1893 521.1717,113.8151 521.4018,91.6576 516.1234,-13.4961 510.0118,-17.4897 509.8807,-17.6579 511.1863,-19.4624 515.7172,-22.356 515.7172,-22.356 511.1863,-19.4624 509.8807,-17.6579 510.0118,-17.4897 516.1234,-13.4961 521.4018,91.6576 521.1717,113.8151 513.8667,114.5908 495.1911,117.0415 487.8953,118.5427 485.2524,119.1526 468.2771,123.4981 460.4733,125.8832 452.2101,128.6142 440.932,132.6204 351.4323,81.7786 345.7137,76.0399 371.1155,1.1359 371.1155,1.1359"/>
<polygon fill="#b3cde3" stroke="#b3cde3" points="990.465,-266.6184 978.6213,-227.9063 958.7704,-173.0752 1073.1899,-174.1995 1074.8766,-174.2954 1075.5258,-174.2995 1079.6672,-174.1174 1085.7852,-174.1358 1086.0621,-174.1086 1097.8473,-174.0637 1105.0173,-174.3755 1107.9207,-174.0602 1108.4995,-174.0248 1109.5679,-174.0098 1122.9265,-174.4541 1122.3512,-194.8341 1124.6034,-244.2296 1213.9194,-234.0186 1204.4751,-261.5417 1196.9209,-288.6646 1190.9646,-305.9511 1191.9442,-313.99 1192.2568,-315.7139 1204.8258,-323.1699 1223.6809,-336.1446 1233.7421,-342.2001 1238.4762,-344.6233 1243.2535,-346.6484 1244.6974,-397.9065 1251.1361,-393.3011 1251.1361,-393.3011 1244.6974,-397.9065 1243.2535,-346.6484 1238.4762,-344.6233 1233.7421,-342.2001 1223.6809,-336.1446 1204.8258,-323.1699 1192.2568,-315.7139 1191.9442,-313.99 1190.9646,-305.9511 1196.9209,-288.6646 1275.4758,-302.8305 1276.2975,-240.6521 1280.595,-245.2617 1290.7899,-254.962 1292.0753,-256.0169 1299.9801,-261.5677 1299.9801,-261.5677 1292.0753,-256.0169 1290.7899,-254.962 1280.595,-245.2617 1276.2975,-240.6521 1275.4758,-302.8305 1196.9209,-288.6646 1204.4751,-261.5417 1213.9194,-234.0186 1124.6034,-244.2296 1122.3512,-194.8341 1122.9265,-174.4541 1126.9291,-174.1814 1132.4576,-174.3265 1144.1217,-175.1829 1144.9288,-175.28 1151.3787,-176.3598 1163.4501,-178.9511 1164.3428,-179.184 1168.2732,-180.3944 1174.6953,-182.6777 1186.6989,-187.5175 1193.656,-190.9762 1204.9752,-197.143 1214.7921,-203.4144 1223.6329,-209.909 1235.0902,-206.9001 1238.3015,-206.3721 1319.1731,-144.6154 1337.7191,-154.4893 1345.9305,-158.4374 1346.4905,-158.6774 1365.2249,-164.8466 1360.2084,-234.6844 1355.0599,-233.0081 1355.0599,-233.0081 1360.2084,-234.6844 1365.2249,-164.8466 1369.6697,-166.0781 1394.8621,-170.4869 1410.2758,-173.9925 1424.4081,-178.6597 1425.2258,-178.9707 1426.1421,-179.3659 1442.4512,-187.2666 1445.0028,-188.7612 1451.1876,-192.7129 1471.5814,-206.8324 1472.256,-207.3653 1479.9894,-213.8782 1485.8707,-219.1341 1501.7498,-235.0104 1504.4873,-238.03 1516.8624,-249.8973 1541.9945,-276.2067 1529.7927,-314.815 1570.3911,-401.7303 1569.2894,-446.6541 1569.9434,-496.2167 1570.4038,-505.2906 1612.9987,-588.43 1632.6001,-621.3586 1607.249,-640.8303 1599.7677,-646.0737 1584.9775,-655.4687 1566.863,-665.7703 1552.0586,-672.694 1539.6614,-677.6598 1537.0813,-678.6058 1531.3849,-682.6277 1531.2522,-682.7154 1513.8735,-692.7083 1501.5015,-698.7286 1497.1307,-700.6592 1432.5348,-726.3293 1432.7577,-701.3854 1436.7061,-636.0933 1432.8473,-632.4122 1436.6455,-628.8204 1436.6455,-628.8204 1432.8473,-632.4122 1436.7061,-636.0933 1432.7577,-701.3854 1429.8193,-632.4122 1429.4893,-632.2959 1431.2352,-610.5068 1432.339,-610.2842 1430.7365,-593.3711 1437.3425,-590.9575 1440.0635,-587.9908 1438.0941,-586.0439 1434.0325,-552.0475 1434.025,-550.848 1443.1869,-547.3591 1449.5297,-544.2045 1457.1069,-539.5534 1465.3408,-533.564 1467.2942,-531.9303 1470.8928,-528.4992 1472.5667,-527.1672 1447.764,-508.0649 1446.8615,-507.0954 1441.0422,-502.1281 1433.9824,-497.6555 1433.9083,-474.6258 1437.0699,-471.5462 1433.8467,-468.292 1428.0747,-466.367 1425.1205,-423.7678 1425.6764,-368.3119 1410.2906,-375.7516 1411.2748,-414.6341 1411.2748,-414.6341 1410.2906,-375.7516 1425.6764,-368.3119 1425.1205,-423.7678 1428.0747,-466.367 1433.8467,-468.292 1437.0699,-471.5462 1433.9083,-474.6258 1433.9824,-497.6555 1441.0422,-502.1281 1446.8615,-507.0954 1447.764,-508.0649 1472.5667,-527.1672 1470.8928,-528.4992 1417.072,-520.5314 1412.0049,-516.3143 1411.6011,-516.3143 1408.8625,-551.989 1408.2125,-552.0074 1403.7108,-516.6075 1399.7144,-516.6075 1399.4845,-516.6866 1392.2926,-516.6866 1391.5092,-516.4133 1391.5092,-516.4133 1392.2926,-516.6866 1399.4845,-516.6866 1399.7144,-516.6075 1403.7108,-516.6075 1408.2125,-552.0074 1408.8625,-551.989 1411.6011,-516.3143 1412.0049,-516.3143 1417.072,-520.5314 1470.8928,-528.4992 1467.2942,-531.9303 1465.3408,-533.564 1457.1069,-539.5534 1449.5297,-544.2045 1443.1869,-547.3591 1434.025,-550.848 1434.0325,-552.0475 1438.0941,-586.0439 1440.0635,-587.9908 1437.3425,-590.9575 1430.7365,-593.3711 1432.339,-610.2842 1431.2352,-610.5068 1429.4893,-632.2959 1429.8193,-632.4122 1432.7577,-701.3854 1432.5348,-726.3293 1427.9993,-728.5264 1423.3252,-730.9998 1417.2322,-632.7396 1412.302,-632.7396 1411.8855,-632.5966 1406.048,-632.5966 1402.6232,-678.2747 1398.3962,-632.7206 1393.1812,-632.7206 1392.2917,-632.4091 1387.7222,-632.4091 1387.5828,-632.4583 1383.1815,-681.6157 1380.0435,-632.4583 1380.0098,-632.4464 1374.2017,-632.4464 1373.9398,-632.3558 1368.4579,-632.3558 1368.2345,-632.0555 1368.2345,-632.0555 1368.4579,-632.3558 1373.9398,-632.3558 1374.2017,-632.4464 1380.0098,-632.4464 1380.0435,-632.4583 1383.1815,-681.6157 1387.5828,-632.4583 1387.7222,-632.4091 1392.2917,-632.4091 1393.1812,-632.7206 1398.3962,-632.7206 1402.6232,-678.2747 1406.048,-632.5966 1411.8855,-632.5966 1412.302,-632.7396 1417.2322,-632.7396 1423.3252,-730.9998 1420.4636,-732.6439 1403.3362,-776.7869 1388.7598,-809.5152 1379.0504,-829.053 1324.8228,-809.7985 1314.8651,-807.0035 1307.8604,-805.2985 1298.6626,-803.7423 1285.6978,-802.0308 1266.9663,-800.261 1255.8259,-798.3562 1244.3065,-795.9473 1243.995,-795.8704 1236.0939,-793.3123 1221.9103,-788.168 1213.9304,-784.9723 1212.8099,-784.4817 1193.0833,-774.3117 1168.7169,-760.8499 1162.8354,-721.7053 1162.3278,-718.9959 1159.2651,-698.4534 1157.9036,-691.0996 1135.0184,-639.4892 1128.1804,-625.2896 1094.2251,-559.8701 1094.4818,-559.4536 1096.9661,-551.3466 1093.9813,-504.4836 1093.7346,-504.0522 1082.0626,-485.3376 1068.1743,-464.1085 1074.0187,-339.5912 1079.8291,-336.3923 1081.1982,-334.7185 1082.9427,-334.7185 1085.5997,-337.3746 1085.5997,-337.3746 1082.9427,-334.7185 1081.1982,-334.7185 1079.8291,-336.3923 1074.0187,-339.5912 1068.1743,-464.1085 1041.2939,-425.2208 1040.9828,-424.7166 1028.4379,-365.8772 1025.7463,-342.4681 1025.6455,-334.78 1016.7945,-293.2663 990.558,-267.0009 990.465,-266.6184 990.465,-266.6184"/>
<polygon fill="#fed9a6" stroke="#fed9a6" points="713.6647,-143.8556 708.2517,-144.6675 703.3088,-144.3992 696.6666,-145.3705 693.189,-146.5627 685.7189,-150.6873 679.4337,-155.4487 673.1028,-161.5438 666.9103,-168.77 664.4377,-170.5754 660.7542,-173.7104 667.8117,-181.4695 673.8696,-186.2517 684.5831,-193.1668 687.7203,-194.6929 693.4709,-196.6368 708.6593,-199.5124 714.736,-201.5862 719.8107,-204.0872 729.0731,-210.0911 729.2467,-210.2288 742.5532,-223.0243 740.2661,-227.44 729.9881,-264.422 728.5553,-268.0493 775.9597,-270.9856 782.2808,-266.6722 782.7013,-266.0524 787.1765,-266.0524 789.9384,-269.2343 795.9864,-271.4475 795.9864,-271.4475 789.9384,-269.2343 787.1765,-266.0524 782.7013,-266.0524 782.2808,-266.6722 775.9597,-270.9856 728.5553,-268.0493 694.4813,-333.8341 714.424,-360.3657 715.7709,-372.9628 717.6031,-384.8944 697.9419,-425.4317 674.4448,-481.7 659.8781,-508.7663 675.0477,-560.15 711.4774,-655.2342 724.3079,-657.2849 735.118,-658.5904 775.8692,-661.1364 776.9946,-661.2285 778.5375,-661.0605 779.2362,-660.998 782.1198,-583.321 782.2913,-481.7589 776.6433,-481.7589 775.3796,-480.0912 778.2408,-418.0843 770.7611,-414.4127 723.9765,-388.0872 821.5079,-374.9082 825.9649,-371.3526 826.7968,-371.3526 830.9409,-426.4839 835.7301,-426.7731 833.5496,-375.2908 840.3384,-375.2908 840.3384,-375.2908 833.5496,-375.2908 835.7301,-426.7731 830.9409,-426.4839 826.7968,-371.3526 825.9649,-371.3526 821.5079,-374.9082 723.9765,-388.0872 770.7611,-414.4127 778.2408,-418.0843 775.3796,-480.0912 776.6433,-481.7589 782.2913,-481.7589 782.1198,-583.321 789.2795,-484.6391 795.2222,-486.7803 795.2222,-486.7803 789.2795,-484.6391 782.1198,-583.321 779.2362,-660.998 795.1053,-660.1935 814.5171,-659.9638 815.3464,-659.9374 820.1594,-659.8781 822.9347,-659.9517 827.4692,-659.9815 836.0081,-659.6974 956.2364,-586.4554 984.8391,-584.115 999.7329,-582.2889 1011.9933,-580.286 1029.1189,-576.7889 1045.5447,-572.7673 1094.2251,-559.8701 1094.4818,-559.4536 1096.9661,-551.3466 1093.9813,-504.4836 1093.7346,-504.0522 1082.0626,-485.3376 1068.1743,-464.1085 1041.2939,-425.2208 1040.9828,-424.7166 1028.4379,-365.8772 1025.7463,-342.4681 1025.6455,-334.78 1016.7945,-293.2663 990.558,-267.0009 990.465,-266.6184 978.6213,-227.9063 958.7704,-173.0752 954.0231,-169.1552 952.213,-161.6973 939.5027,-100 928.0198,-58.8498 816.151,-32.6206 807.543,-29.9228 792.0909,-61.3608 773.9291,-88.8973 770.3646,-93.8164 761.4717,-104.9441 757.7883,-109.0532 754.4959,-112.3039 748.226,-117.7338 744.9698,-168.448 745.4644,-168.6205 751.2689,-168.6205 752.1776,-168.9449 755.3445,-168.9449 757.624,-171.2997 757.624,-171.2997 755.3445,-168.9449 752.1776,-168.9449 751.2689,-168.6205 745.4644,-168.6205 744.9698,-168.448 748.226,-117.7338 746.3969,-119.0938 743.5421,-121.7603 739.009,-127.1524 730.4332,-135.5579 727.5968,-137.7019 721.7296,-140.9711 713.6647,-143.8556 713.6647,-143.8556"/>
<polygon fill="#c0dcd4" stroke="#c0dcd4" points="2215.4189,-767.0159 2211.2515,-746.3621 2200.1917,-678.6011 2113.0154,-620.5803 2087.5935,-618.6765 2077.3162,-617.6484 2077.4993,-700.6004 2073.814,-756.4827 2067.9194,-756.4827 2067.759,-756.5408 2067.0061,-757.645 2061.9719,-761.0455 2061.9719,-761.0455 2067.0061,-757.645 2067.759,-756.5408 2061.8811,-752.344 2061.8811,-752.344 2067.759,-756.5408 2067.9194,-756.4827 2073.814,-756.4827 2077.4993,-700.6004 2077.3162,-617.6484 2068.4229,-616.3118 2061.8149,-615.1525 2043.3251,-610.9733 2031.2416,-607.6364 2030.5194,-607.4189 2024.6672,-605.5095 1929.1221,-654.4582 1866.317,-756.59 1859.2412,-766.766 1797.5399,-793.4148 1764.3542,-886.2048 1744.2621,-937.9955 1712.4067,-955.5142 1682.9689,-1026.4 1655.9838,-1105.0277 1635.665,-1158.3069 1625.6396,-1182.4478 1629.5323,-1196.8352 1655.0138,-1281.8481 1654.8387,-1282.3621 1640.4961,-1327.942 1661.322,-1353.0665 1689.2388,-1388.5942 1763.4648,-1489.3694 1796.948,-1505.6676 1838.2015,-1500.8311 1847.8453,-1499.9536 1858.4038,-1499.5468 1859.568,-1499.5325 1859.9308,-1499.5375 1874.2538,-1500.1125 1897.566,-1502.2754 1897.0402,-1488.019 1886.244,-1374.6409 1892.8842,-1376.947 1899.5789,-1374.5276 1902.0781,-1371.8953 1899.9921,-1369.7488 1893.0969,-1367.2053 1893.0969,-1367.2053 1899.9921,-1369.7488 1902.0781,-1371.8953 1899.5789,-1374.5276 1892.8842,-1376.947 1886.244,-1374.6409 1897.0402,-1488.019 1897.566,-1502.2754 1906.0898,-1503.7343 1909.0082,-1504.3101 1915.3486,-1505.7283 1923.3467,-1507.728 1938.7753,-1511.9912 1938.5736,-1506.9159 1938.5736,-1506.9159 1938.7753,-1511.9912 1939.954,-1512.3779 1944.8512,-1514.1141 1953.2976,-1517.3325 2026.1759,-1479.6243 2072.675,-1421.0046 2076.5115,-1389.1384 2081.9961,-1354.3016 2087.1216,-1327.7849 2090.4377,-1326.0623 2086.8403,-1179.4757 2086.4651,-1179.3331 2081.1082,-1179.3331 2080.0879,-1179.7244 2079.4028,-1179.7244 2073.7292,-1183.8372 2066.7375,-1183.8372 2060.7744,-1179.47 2060.2134,-1179.47 2060.2002,-1179.4651 2060.2002,-1179.4651 2060.2134,-1179.47 2060.7744,-1179.47 2066.7375,-1183.8372 2073.7292,-1183.8372 2079.4028,-1179.7244 2080.0879,-1179.7244 2081.1082,-1179.3331 2086.4651,-1179.3331 2086.8403,-1179.4757 2090.4377,-1326.0623 2093.0535,-1324.7839 2186.3838,-1281.9906 2226.1394,-1256.5386 2227.7253,-1254.7733 2239.6953,-1179.3 2242.6406,-1166.1508 2234.8215,-1152.3324 2154.3806,-1041.3021 2112.6323,-1010.7709 2116.7432,-925.5486 2116.8618,-924.0545 1968.7644,-920.218 1971.5773,-830.7901 1966.178,-828.6175 1962.2744,-924.0152 1956.9449,-920.4738 1956.9449,-920.4738 1962.2744,-924.0152 1966.178,-828.6175 1971.5773,-830.7901 1968.7644,-920.218 2116.8618,-924.0545 2118.4785,-909.4572 2214.4036,-820.1681 2219.0659,-782.2376 2215.4189,-767.0159 2215.4189,-767.0159"/>
<polygon fill="#decbe4" stroke="#decbe4" points="793.5383,-1307.4431 786.7313,-1304.8887 726.5003,-1283.9338 658.0497,-1223.0974 666.2966,-1180.9463 671.1877,-1150.0901 681.01,-1068.4465 694.8062,-1017.0211 698.1047,-1015.9588 720.7086,-1009.6396 733.168,-1006.9577 776.9946,-1000.3111 795.6531,-1001.3762 802.7894,-1001.6381 816.3928,-1001.5823 818.7607,-1001.6758 820.5505,-1001.6736 827.3694,-1001.8135 835.4604,-1001.6493 837.9898,-1001.5463 849.2972,-1001.8266 850.95,-1001.8 866.2508,-1001.8881 871.748,-1001.6953 873.0654,-1001.6779 887.3333,-1000.9075 887.7636,-1000.8755 1011.5792,-986.6096 1017.3771,-951.3162 995.3732,-912.4102 988.0912,-900.778 944.4307,-838 904.5619,-764.5513 984.1351,-760.3277 989.4752,-755.9456 991.4848,-755.9456 991.6998,-755.8655 996.7056,-755.8655 997.4808,-756.1558 1001.8895,-756.1558 1004.6257,-759.1844 1010.1359,-761.1003 1010.1359,-761.1003 1004.6257,-759.1844 1001.8895,-756.1558 997.4808,-756.1558 996.7056,-755.8655 991.6998,-755.8655 991.4848,-755.9456 989.4752,-755.9456 984.1351,-760.3277 904.5619,-764.5513 893.5671,-746.8651 860.1757,-698.8528 850.3069,-683.8483 843.6867,-673.2552 836.0081,-659.6974 956.2364,-586.4554 984.8391,-584.115 999.7329,-582.2889 1011.9933,-580.286 1029.1189,-576.7889 1045.5447,-572.7673 1094.2251,-559.8701 1128.1804,-625.2896 1135.0184,-639.4892 1157.9036,-691.0996 1159.2651,-698.4534 1162.3278,-718.9959 1162.8354,-721.7053 1168.7169,-760.8499 1145.7498,-788.545 1089.9036,-862.1279 1048.4694,-912.1548 1027.2506,-938.9728 1200.205,-896.1828 1195.4767,-1000.5702 1204.6779,-1000.4395 1209.2646,-1103.062 1148.9039,-1107.8 1209.3151,-1112.542 1215.3036,-1108.9117 1216.1981,-1107.7459 1221.2108,-1107.7459 1222.0076,-1108.0255 1227.5754,-1108.0255 1228.1443,-1108.2288 1229.0173,-1246.428 1237.4834,-1237.4794 1246.3556,-1229.0443 1247.4117,-1108.2451 1253.6273,-1112.4532 1259.5497,-1112.4532 1265.9293,-1107.6649 1260.1268,-1103.444 1260.1268,-1103.444 1265.9293,-1107.6649 1259.5497,-1112.4532 1253.6273,-1112.4532 1247.4117,-1108.2451 1246.3556,-1229.0443 1237.4834,-1237.4794 1229.0173,-1246.428 1228.1443,-1108.2288 1227.5754,-1108.0255 1222.0076,-1108.0255 1221.2108,-1107.7459 1216.1981,-1107.7459 1215.3036,-1108.9117 1209.3151,-1112.542 1148.9039,-1107.8 1209.2646,-1103.062 1204.6779,-1000.4395 1195.4767,-1000.5702 1200.205,-896.1828 1203.9557,-892.7451 1205.5551,-892.7451 1205.9664,-892.887 1208.0575,-965.9951 1213.1394,-893.0923 1217.6824,-893.0923 1219.229,-892.5438 1224.9885,-892.5438 1225.2985,-892.9886 1231.1676,-897.124 1231.1676,-897.124 1225.2985,-892.9886 1224.9885,-892.5438 1219.229,-892.5438 1217.6824,-893.0923 1213.1394,-893.0923 1208.0575,-965.9951 1205.9664,-892.887 1205.5551,-892.7451 1203.9557,-892.7451 1200.205,-896.1828 1027.2506,-938.9728 1048.4694,-912.1548 1089.9036,-862.1279 1145.7498,-788.545 1168.7169,-760.8499 1193.0833,-774.3117 1212.8099,-784.4817 1213.9304,-784.9723 1221.9103,-788.168 1236.0939,-793.3123 1243.995,-795.8704 1244.3065,-795.9473 1255.8259,-798.3562 1266.9663,-800.261 1285.6978,-802.0308 1298.6626,-803.7423 1307.8604,-805.2985 1314.8651,-807.0035 1324.8228,-809.7985 1379.0504,-829.053 1388.7598,-809.5152 1403.3362,-776.7869 1420.4636,-732.6439 1423.3252,-730.9998 1427.9993,-728.5264 1432.5348,-726.3293 1497.1307,-700.6592 1501.5015,-698.7286 1513.8735,-692.7083 1531.2522,-682.7154 1531.3849,-682.6277 1537.0813,-678.6058 1539.6614,-677.6598 1552.0586,-672.694 1566.863,-665.7703 1567.1726,-727.3376 1560.6162,-788.9052 1555.3763,-787.1755 1555.3763,-787.1755 1560.6162,-788.9052 1567.1726,-727.3376 1566.863,-665.7703 1584.9775,-655.4687 1599.7677,-646.0737 1607.249,-640.8303 1607.6504,-726.2322 1604.4519,-790.6171 1603.1798,-792.0915 1598.5171,-792.0915 1599.5056,-654.426 1591.8578,-792.0569 1586.6486,-792.0569 1586.3806,-791.9635 1579.3702,-791.9635 1578.4115,-792.2942 1575.0071,-792.2942 1575.0071,-792.2942 1578.4115,-792.2942 1579.3702,-791.9635 1586.3806,-791.9635 1586.6486,-792.0569 1591.8578,-792.0569 1599.5056,-654.426 1598.5171,-792.0915 1603.1798,-792.0915 1604.4519,-790.6171 1607.6504,-726.2322 1607.249,-640.8303 1632.6001,-621.3586 1640.5785,-623.2395 1796.3853,-792.28 1797.5399,-793.4148 1764.3542,-886.2048 1744.2621,-937.9955 1712.4067,-955.5142 1603.8131,-918.4197 1601.0376,-917.6332 1595.8793,-916.3188 1589.0785,-914.7802 1570.4667,-911.6314 1556.8429,-910.1135 1549.9683,-909.5468 1538.0104,-909.5958 1535.8242,-972.4394 1535.8242,-972.4394 1538.0104,-909.5958 1549.9683,-909.5468 1556.8429,-910.1135 1570.4667,-911.6314 1589.0785,-914.7802 1595.8793,-916.3188 1601.0376,-917.6332 1603.8131,-918.4197 1712.4067,-955.5142 1682.9689,-1026.4 1655.9838,-1105.0277 1635.665,-1158.3069 1625.6396,-1182.4478 1629.5323,-1196.8352 1655.0138,-1281.8481 1654.8387,-1282.3621 1640.4961,-1327.942 1596.7126,-1355.792 1517.6366,-1388.6338 1463.2085,-1386.91 1452.1754,-1384.8075 1446.4476,-1383.9858 1439.7615,-1383.3394 1432.6877,-1237.1328 1433.0101,-1237.0182 1433.0101,-1237.0182 1432.6877,-1237.1328 1439.7615,-1383.3394 1423.3752,-1382.1388 1418.1415,-1380.0856 1404.292,-1375.7625 1400.7257,-1374.8385 1384.0299,-1370.9518 1368.1505,-1368.1005 1368.411,-1341.4771 1367.757,-1313.7059 1362.6144,-1240.6542 1366.8386,-1236.6156 1363.0692,-1233.2367 1264.5114,-1213.5516 1275.116,-1204.9066 1278.609,-1202.2645 1290.2483,-1194.1278 1294.4374,-1191.45 1300.6112,-1187.8649 1300.8511,-1169.5547 1300.8511,-1169.5547 1300.6112,-1187.8649 1294.4374,-1191.45 1290.2483,-1194.1278 1278.609,-1202.2645 1275.116,-1204.9066 1264.5114,-1213.5516 1363.0692,-1233.2367 1366.8386,-1236.6156 1362.6144,-1240.6542 1367.757,-1313.7059 1368.411,-1341.4771 1368.1505,-1368.1005 1305.4772,-1361.8448 1211.785,-1273.3774 1076.6227,-1350.4886 1076.3182,-1350.6718 1063.0896,-1353.1603 1060.2773,-1353.7552 1051.3529,-1351.3096 1048.5046,-1350.5986 1033.7279,-1347.9734 1018.6636,-1345.6602 1022.0078,-1251.3187 1027.4152,-1205.8459 1032.7245,-1209.3872 1038.5679,-1209.3872 1045.093,-1204.6693 1047.1406,-1281.1039 1052.171,-1204.8861 1052.171,-1204.8861 1047.1406,-1281.1039 1045.093,-1204.6693 1045.2642,-1204.4169 1039.3718,-1200.3621 1039.3718,-1200.3621 1045.2642,-1204.4169 1045.093,-1204.6693 1038.5679,-1209.3872 1032.7245,-1209.3872 1027.4152,-1205.8459 1022.0078,-1251.3187 1018.6636,-1345.6602 1015.0804,-1345.2836 1004.1701,-1344.3997 1004.3586,-1266.2809 1004.3586,-1266.2809 1004.1701,-1344.3997 941.6475,-1342.3478 938.5579,-1340.9801 901.476,-1313.249 879.5662,-1308.2474 865.4744,-1306.0627 864.8947,-1247.7424 864.7904,-1245.766 864.7904,-1245.766 864.8947,-1247.7424 865.4744,-1306.0627 851.2792,-1304.8947 833.004,-1304.2777 827.6798,-1304.3568 826.221,-1165.4976 831.8731,-1165.4976 833.1179,-1165.0443 836.3807,-1165.0443 839.661,-1168.6591 844.7392,-1170.3625 844.7392,-1170.3625 839.661,-1168.6591 836.3807,-1165.0443 833.1179,-1165.0443 831.8731,-1165.4976 826.221,-1165.4976 827.6798,-1304.3568 815.4988,-1304.8337 799.5765,-1306.6194 793.5383,-1307.4431 793.5383,-1307.4431"/>
<polygon fill="#d5dbd5" stroke="#d5dbd5" points="952.213,-161.6973 939.5027,-100 928.0198,-58.8498 998.0126,20.0881 1032.7218,35.2529 1076.2959,29.3761 1084.2505,28.7127 1084.3942,28.7044 1099.8268,28.2106 1108.9912,28.1535 1123.9409,28.8298 1127.3705,29.1607 1139.1296,30.9017 1147.5107,32.5765 1161.8571,35.8164 1170.3359,37.9485 1170.4696,37.9889 1186.8146,43.3642 1190.9772,44.4231 1192.4541,43.8451 1195.5396,42.718 1197.395,42.1349 1218.9808,36.428 1229.9064,34.0958 1240.6084,32.3544 1285.9957,26.1222 1319.1731,18.5132 1373.4742,40.969 1400.5992,38.3555 1403.6707,38.1334 1415.4498,37.5643 1428.2798,37.561 1437.6429,38.2346 1446.1173,35.9152 1456.8773,33.5277 1468.2146,31.3064 1481.0123,29.4648 1488.3867,28.7863 1493.8788,28.423 1496.5918,28.3136 1515.2626,28.5252 1514.6637,-43.615 1510.6549,-98.3415 1509.1271,-100.0624 1505.8772,-100.0624 1505.8772,-100.0624 1509.1271,-100.0624 1510.6549,-98.3415 1514.6637,-43.615 1515.2626,28.5252 1568.691,31.8938 1618.7242,11.9098 1623.4204,13.7985 1691.9235,32.0405 1720.2745,31.3031 1721.9923,-43.7824 1721.9923,-43.7824 1720.2745,31.3031 1734.4872,31.6388 1752.6177,32.9677 1772.3049,36.3685 1776.0677,37.1115 1791.1251,40.8347 1793.0092,41.347 1802.8521,44.2674 1806.9543,45.5855 1815.0521,48.3873 1872.8696,19.9942 1890.6187,2.3967 1927.4927,-45.825 1932.3888,-55.4466 1942.1455,-100 1962.8741,-171.3936 1958.7172,-176.556 1816.96,-240.4816 1812.2133,-242.7556 1796.7372,-246.2359 1788.9465,-243.2908 1788.3943,-243.1239 1769.1473,-237.777 1768.7684,-154.0647 1767.9666,-142.901 1768.6702,-102.576 1771.4487,-99.6315 1768.3878,-96.6442 1763.1255,-94.9644 1763.1255,-94.9644 1768.3878,-96.6442 1771.4487,-99.6315 1768.6702,-102.576 1767.9666,-142.901 1768.7684,-154.0647 1769.1473,-237.777 1749.199,-233.729 1741.9075,-232.7968 1735.8824,-232.1765 1733.0984,-231.7027 1717.9778,-229.514 1618.7242,-220.2213 1541.9945,-276.2067 1516.8624,-249.8973 1504.4873,-238.03 1501.7498,-235.0104 1485.8707,-219.1341 1479.9894,-213.8782 1472.256,-207.3653 1471.5814,-206.8324 1451.1876,-192.7129 1445.0028,-188.7612 1442.4512,-187.2666 1426.1421,-179.3659 1425.2258,-178.9707 1424.6793,-100.0243 1424.6793,-100.0243 1425.2258,-178.9707 1424.4081,-178.6597 1410.2758,-173.9925 1394.8621,-170.4869 1369.6697,-166.0781 1365.2249,-164.8466 1346.4905,-158.6774 1345.9305,-158.4374 1337.7191,-154.4893 1319.1731,-144.6154 1238.3015,-206.3721 1235.0902,-206.9001 1223.6329,-209.909 1214.7921,-203.4144 1204.9752,-197.143 1193.656,-190.9762 1186.6989,-187.5175 1174.6953,-182.6777 1168.2732,-180.3944 1171.2527,-99.9692 1177.342,-99.9692 1177.5177,-99.9107 1182.4502,-99.9107 1186.4818,-150.4924 1189.8916,-100.3341 1195.6256,-100.3341 1195.7314,-100.2977 1200.6881,-100.2977 1201.5502,-99.9947 1208.5153,-99.9947 1208.6749,-99.9403 1213.1056,-99.9403 1216.2079,-139.6593 1221.0453,-100.1777 1224.7172,-100.1777 1224.7172,-100.1777 1221.0453,-100.1777 1216.2079,-139.6593 1213.1056,-99.9403 1208.6749,-99.9403 1208.5153,-99.9947 1201.5502,-99.9947 1200.6881,-100.2977 1195.7314,-100.2977 1195.6256,-100.3341 1189.8916,-100.3341 1186.4818,-150.4924 1182.4502,-99.9107 1177.5177,-99.9107 1177.342,-99.9692 1171.2527,-99.9692 1168.2732,-180.3944 1164.3428,-179.184 1163.4501,-178.9511 1151.3787,-176.3598 1144.9288,-175.28 1144.1217,-175.1829 1132.4576,-174.3265 1126.9291,-174.1814 1122.9265,-174.4541 1109.5679,-174.0098 1108.4995,-174.0248 1107.9207,-174.0602 1105.0173,-174.3755 1097.8473,-174.0637 1086.0621,-174.1086 1085.7852,-174.1358 1079.6672,-174.1174 1075.5258,-174.2995 1074.8766,-174.2954 1073.1899,-174.1995 958.7704,-173.0752 954.0231,-169.1552 952.213,-161.6973 952.213,-161.6973"/>
<polygon fill="#d7c1c9" stroke="#d7c1c9" points="581.5043,-850.3466 586.9429,-826.0649 593.0114,-791.6613 593.1091,-791.2237 650.9912,-721.4674 686.4355,-682.1027 698.947,-667.5661 699.3188,-667.0765 706.542,-658.1031 711.4774,-655.2342 724.3079,-657.2849 735.118,-658.5904 775.8692,-661.1364 776.9946,-661.2285 778.5375,-661.0605 779.2362,-660.998 795.1053,-660.1935 814.5171,-659.9638 815.3464,-659.9374 820.1594,-659.8781 822.9347,-659.9517 827.4692,-659.9815 836.0081,-659.6974 843.6867,-673.2552 850.3069,-683.8483 860.1757,-698.8528 893.5671,-746.8651 904.5619,-764.5513 944.4307,-838 988.0912,-900.778 995.3732,-912.4102 1017.3771,-951.3162 1011.5792,-986.6096 887.7636,-1000.8755 887.3333,-1000.9075 873.0654,-1001.6779 871.748,-1001.6953 866.2508,-1001.8881 850.95,-1001.8 849.2972,-1001.8266 837.9898,-1001.5463 835.4604,-1001.6493 827.3694,-1001.8135 820.5505,-1001.6736 818.7607,-1001.6758 816.3928,-1001.5823 802.7894,-1001.6381 795.6531,-1001.3762 776.9946,-1000.3111 733.168,-1006.9577 720.7086,-1009.6396 698.1047,-1015.9588 694.8062,-1017.0211 678.6337,-1006.9277 573.0995,-944.0413 559.5842,-931.5345 581.5043,-850.3466 689.1741,-842.2014 694.4287,-838.1561 694.9036,-838.1561 698.5181,-901.0464 702.566,-838.4536 706.1001,-838.4536 707.745,-840.1661 715.1364,-842.9626 721.8209,-840.4317 724.096,-837.8809 727.5733,-837.8809 727.9495,-838.024 733.4477,-980.4186 733.9806,-965.2425 733.9806,-965.2425 733.4477,-980.4186 727.9495,-838.024 727.5733,-837.8809 724.096,-837.8809 721.8209,-840.4317 715.1364,-842.9626 707.745,-840.1661 706.1001,-838.4536 702.566,-838.4536 698.5181,-901.0464 694.9036,-838.1561 694.4287,-838.1561 689.1741,-842.2014 581.5043,-850.3466 581.5043,-850.3466"/>
<polygon fill="#fbb4ae" stroke="#fbb4ae" points="74.1048,-660.1422 77.0425,-660.1422 78.2395,-660.5782 84.4294,-660.5782 84.544,-660.536 90.9444,-660.536 91.5523,-660.7595 97.4663,-660.7595 98.4802,-660.4033 103.3526,-660.4033 103.5095,-660.4555 109.1339,-660.4555 109.2852,-660.6575 115.7609,-665.0743 121.752,-665.0743 128.2324,-660.3684 128.5886,-660.4957 128.5886,-660.4957 128.2324,-660.3684 121.752,-665.0743 115.7609,-665.0743 109.2852,-660.6575 109.1339,-660.4555 103.5095,-660.4555 103.0909,-682.7767 101.2352,-682.9237 97.7841,-704.2625 98.8224,-704.6324 105.8218,-704.6324 106.3427,-704.4473 109.6787,-704.4473 112.02,-707.1551 110.7094,-727.1566 118.4816,-726.5498 120.389,-726.8569 125.99,-726.3118 135.4834,-722.8907 138.108,-721.3061 140.8021,-743.9801 134.8673,-748.7002 140.1921,-752.8565 140.1921,-752.8565 134.8673,-748.7002 140.8021,-743.9801 138.108,-721.3061 135.4834,-722.8907 125.99,-726.3118 120.389,-726.8569 118.4816,-726.5498 110.7094,-727.1566 112.02,-707.1551 109.6787,-704.4473 106.3427,-704.4473 105.8218,-704.6324 98.8224,-704.6324 97.7841,-704.2625 101.2352,-682.9237 103.0909,-682.7767 103.5095,-660.4555 103.3526,-660.4033 98.4802,-660.4033 97.4663,-660.7595 91.5523,-660.7595 89.7534,-682.2227 86.5757,-682.4824 86.8936,-701.8052 89.606,-704.6165 86.7362,-707.567 86.7362,-707.567 89.606,-704.6165 86.8936,-701.8052 86.5757,-682.4824 89.7534,-682.2227 91.5523,-660.7595 90.9444,-660.536 84.544,-660.536 84.4294,-660.5782 78.2395,-660.5782 77.0425,-660.1422 74.1048,-660.1422 71.309,-663.4476 66.1572,-665.6172 64.9434,-682.2302 60.0915,-682.6787 57.7121,-682.3342 49.5221,-679.1223 49.5221,-679.1223 57.7121,-682.3342 60.0915,-682.6787 64.9434,-682.2302 66.1572,-665.6172 71.309,-663.4476 74.1048,-660.1422 72.0985,-657.9699 72.149,-486.6649 55.042,-501.0512 -43.0268,-580.1024 -55.5657,-619.0133 -71.868,-647.8491 -86.4849,-704.58 -87.7624,-708.3962 -75.1735,-805.0999 -35.2565,-832.1798 16.1916,-843.6869 91.1531,-890.6592 118.8232,-892.7346 143.1824,-895.7908 153.461,-898.116 163.9663,-870.3693 163.9663,-870.3693 153.461,-898.116 198.0204,-925.9288 245.7194,-918.3406 264.1176,-916.3373 272.1676,-915.8672 282.0648,-915.5388 282.5305,-915.5351 294.5924,-915.7427 297.899,-915.8828 311.1764,-917.1146 314.6924,-917.5292 356.8483,-923.5629 362.9312,-796.8992 362.9828,-796.5621 364.0231,-775.7397 363.522,-766.5956 366.693,-700.5646 365.5988,-698.32 320.2742,-625.3844 325.0664,-590.1262 317.1129,-560.15 293.9007,-488.3506 261.7883,-480.478 239.1134,-475.7042 228.89,-474.2633 214.3477,-472.4658 202.7475,-471.4357 188.6651,-470.4306 187.2852,-470.3562 186.9458,-470.332 176.0666,-470.1255 161.0694,-470.1021 156.4989,-469.9372 149.0979,-469.9282 131.0155,-469.283 130.291,-469.2322 124.597,-468.7352 122.8294,-468.5504 117.0088,-467.8412 102.9571,-465.8858 95.8831,-464.7794 87.2303,-473.4852 72.149,-486.6649 72.0985,-657.9699 74.1048,-660.1422 74.1048,-660.1422"/>
<polyline fill="none" stroke="#000000" points="261.7883,-480.478 293.9007,-488.3506 353.0422,-438.4089 387.3142,-359.5806 399.3893,-329.1096 399.5274,-329.0158 466.2093,-305.02 467.6258,-304.6042 471.5524,-303.5789 483.8425,-300.7669 492.2043,-299.1282 500.3775,-297.7958 503.9052,-297.3372 507.3694,-297.0007 521.2288,-296.1087 528.187,-296.1184 535.6486,-295.6576 560.7744,-236.7776 566.6604,-218.6676 572.6876,-190.86 586.747,-157.9131 577.7196,-152.2088 573.4599,-149.8137 526.3862,-126.5623 513.7468,-119.3906 499.6521,-109.3764 497.2902,-107.5375 495.6554,-106.1489 493.6046,-104.2534 490.2698,-104.0994 487.476,-104.0805 482.21,-104.2526 478.1408,-104.2189 473.3365,-104.3683 472.621,-104.3321 465.9927,-104.2572 463.1344,-104.337 461.9316,-104.3217 461.3292,-104.2894 460.5012,-104.2775 433.4598,-104.9518 395.0606,-87.4725 392.3783,-79.563 384.7853,-52.1416 381.2424,-35.2952 371.1155,1.1359 345.7137,76.0399 319.3501,70.2542 297.8856,66.0794 284.8094,64.5317 275.9706,63.7101 262.0085,63.1213 258.0093,63.0543 247.9914,63.3943 230.2207,64.8997 222.5348,65.9392 193.6354,71.313 132.5327,47.0555 89.2486,-36.4168 67.6051,-58.494 61.1103,-72.9041 58.4996,-132.86 52.7255,-182.5497 26.817,-218.9632 26.2815,-279.5298 26.2624,-279.9695 24.4716,-302.9851 37.7657,-381.6402 95.8831,-464.7794 102.9571,-465.8858 117.0088,-467.8412 122.8294,-468.5504 124.597,-468.7352 130.291,-469.2322 131.0155,-469.283 149.0979,-469.9282 156.4989,-469.9372 161.0694,-470.1021 176.0666,-470.1255 186.9458,-470.332 187.2852,-470.3562 188.6651,-470.4306 202.7475,-471.4357 214.3477,-472.4658 228.89,-474.2633 239.1134,-475.7042 261.7883,-480.478 "/>
<polyline fill="none" stroke="#000000" points="706.542,-658.1031 711.4774,-655.2342 675.0477,-560.15 659.8781,-508.7663 674.4448,-481.7 697.9419,-425.4317 717.6031,-384.8944 715.7709,-372.9628 714.424,-360.3657 694.4813,-333.8341 728.5553,-268.0493 729.9881,-264.422 740.2661,-227.44 742.5532,-223.0243 729.2467,-210.2288 729.0731,-210.0911 719.8107,-204.0872 714.736,-201.5862 708.6593,-199.5124 693.4709,-196.6368 687.7203,-194.6929 684.5831,-193.1668 673.8696,-186.2517 667.8117,-181.4695 660.7542,-173.7104 664.4377,-170.5754 666.9103,-168.77 673.1028,-161.5438 679.4337,-155.4487 685.7189,-150.6873 693.189,-146.5627 696.6666,-145.3705 703.3088,-144.3992 708.2517,-144.6675 713.6647,-143.8556 721.7296,-140.9711 727.5968,-137.7019 730.4332,-135.5579 739.009,-127.1524 743.5421,-121.7603 746.3969,-119.0938 748.226,-117.7338 754.4959,-112.3039 757.7883,-109.0532 761.4717,-104.9441 770.3646,-93.8164 773.9291,-88.8973 792.0909,-61.3608 807.543,-29.9228 755.3923,17.552 721.2565,27.7659 680.1123,78.6734 616.5701,110.9806 610.4617,112.9831 584.5999,112.1566 563.5034,112.5433 554.2216,113.1795 552.5917,113.332 551.2727,113.242 548.9161,113.1397 541.1322,113.1893 521.1717,113.8151 513.8667,114.5908 495.1911,117.0415 487.8953,118.5427 485.2524,119.1526 468.2771,123.4981 460.4733,125.8832 452.2101,128.6142 440.932,132.6204 351.4323,81.7786 345.7137,76.0399 371.1155,1.1359 381.2424,-35.2952 384.7853,-52.1416 392.3783,-79.563 395.0606,-87.4725 433.4598,-104.9518 460.5012,-104.2775 461.3292,-104.2894 461.9316,-104.3217 463.1344,-104.337 465.9927,-104.2572 472.621,-104.3321 473.3365,-104.3683 478.1408,-104.2189 482.21,-104.2526 487.476,-104.0805 490.2698,-104.0994 493.6046,-104.2534 495.6554,-106.1489 497.2902,-107.5375 499.6521,-109.3764 513.7468,-119.3906 526.3862,-126.5623 573.4599,-149.8137 577.7196,-152.2088 586.747,-157.9131 572.6876,-190.86 566.6604,-218.6676 560.7744,-236.7776 535.6486,-295.6576 528.187,-296.1184 521.2288,-296.1087 507.3694,-297.0007 503.9052,-297.3372 500.3775,-297.7958 492.2043,-299.1282 483.8425,-300.7669 471.5524,-303.5789 467.6258,-304.6042 466.2093,-305.02 399.5274,-329.0158 399.3893,-329.1096 387.3142,-359.5806 353.0422,-438.4089 293.9007,-488.3506 317.1129,-560.15 325.0664,-590.1262 320.2742,-625.3844 365.5988,-698.32 366.693,-700.5646 363.522,-766.5956 364.0231,-775.7397 362.9828,-796.5621 362.9312,-796.8992 356.8483,-923.5629 369.4899,-929.9768 408.4088,-936.9924 411.9536,-937.791 428.5442,-934.5913 433.1738,-933.8037 445.0667,-932.584 455.8782,-930.9386 464.8975,-930.1852 472.4955,-929.7239 474.9353,-929.6314 489.9441,-929.4053 559.5842,-931.5345 581.5043,-850.3466 586.9429,-826.0649 593.0114,-791.6613 593.1091,-791.2237 650.9912,-721.4674 686.4355,-682.1027 698.947,-667.5661 699.3188,-667.0765 706.542,-658.1031 "/>
<polyline fill="none" stroke="#000000" points="1529.7927,-314.815 1541.9945,-276.2067 1516.8624,-249.8973 1504.4873,-238.03 1501.7498,-235.0104 1485.8707,-219.1341 1479.9894,-213.8782 1472.256,-207.3653 1471.5814,-206.8324 1451.1876,-192.7129 1445.0028,-188.7612 1442.4512,-187.2666 1426.1421,-179.3659 1425.2258,-178.9707 1424.4081,-178.6597 1410.2758,-173.9925 1394.8621,-170.4869 1369.6697,-166.0781 1365.2249,-164.8466 1346.4905,-158.6774 1345.9305,-158.4374 1337.7191,-154.4893 1319.1731,-144.6154 1238.3015,-206.3721 1235.0902,-206.9001 1223.6329,-209.909 1214.7921,-203.4144 1204.9752,-197.143 1193.656,-190.9762 1186.6989,-187.5175 1174.6953,-182.6777 1168.2732,-180.3944 1164.3428,-179.184 1163.4501,-178.9511 1151.3787,-176.3598 1144.9288,-175.28 1144.1217,-175.1829 1132.4576,-174.3265 1126.9291,-174.1814 1122.9265,-174.4541 1109.5679,-174.0098 1108.4995,-174.0248 1107.9207,-174.0602 1105.0173,-174.3755 1097.8473,-174.0637 1086.0621,-174.1086 1085.7852,-174.1358 1079.6672,-174.1174 1075.5258,-174.2995 1074.8766,-174.2954 1073.1899,-174.1995 958.7704,-173.0752 978.6213,-227.9063 990.465,-266.6184 990.558,-267.0009 1016.7945,-293.2663 1025.6455,-334.78 1025.7463,-342.4681 1028.4379,-365.8772 1040.9828,-424.7166 1041.2939,-425.2208 1068.1743,-464.1085 1082.0626,-485.3376 1093.7346,-504.0522 1093.9813,-504.4836 1096.9661,-551.3466 1094.4818,-559.4536 1094.2251,-559.8701 1128.1804,-625.2896 1135.0184,-639.4892 1157.9036,-691.0996 1159.2651,-698.4534 1162.3278,-718.9959 1162.8354,-721.7053 1168.7169,-760.8499 1193.0833,-774.3117 1212.8099,-784.4817 1213.9304,-784.9723 1221.9103,-788.168 1236.0939,-793.3123 1243.995,-795.8704 1244.3065,-795.9473 1255.8259,-798.3562 1266.9663,-800.261 1285.6978,-802.0308 1298.6626,-803.7423 1307.8604,-805.2985 1314.8651,-807.0035 1324.8228,-809.7985 1379.0504,-829.053 1388.7598,-809.5152 1403.3362,-776.7869 1420.4636,-732.6439 1423.3252,-730.9998 1427.9993,-728.5264 1432.5348,-726.3293 1497.1307,-700.6592 1501.5015,-698.7286 1513.8735,-692.7083 1531.2522,-682.7154 1531.3849,-682.6277 1537.0813,-678.6058 1539.6614,-677.6598 1552.0586,-672.694 1566.863,-665.7703 1584.9775,-655.4687 1599.7677,-646.0737 1607.249,-640.8303 1632.6001,-621.3586 1612.9987,-588.43 1570.4038,-505.2906 1569.9434,-496.2167 1569.2894,-446.6541 1570.3911,-401.7303 1529.7927,-314.815 "/>
<polyline fill="none" stroke="#000000" points="990.558,-267.0009 1016.7945,-293.2663 1025.6455,-334.78 1025.7463,-342.4681 1028.4379,-365.8772 1040.9828,-424.7166 1041.2939,-425.2208 1068.1743,-464.1085 1082.0626,-485.3376 1093.7346,-504.0522 1093.9813,-504.4836 1096.9661,-551.3466 1094.4818,-559.4536 1094.2251,-559.8701 1045.5447,-572.7673 1029.1189,-576.7889 1011.9933,-580.286 999.7329,-582.2889 984.8391,-584.115 956.2364,-586.4554 836.0081,-659.6974 827.4692,-659.9815 822.9347,-659.9517 820.1594,-659.8781 815.3464,-659.9374 814.5171,-659.9638 795.1053,-660.1935 779.2362,-660.998 778.5375,-661.0605 776.9946,-661.2285 775.8692,-661.1364 735.118,-658.5904 724.3079,-657.2849 711.4774,-655.2342 675.0477,-560.15 659.8781,-508.7663 674.4448,-481.7 697.9419,-425.4317 717.6031,-384.8944 715.7709,-372.9628 714.424,-360.3657 694.4813,-333.8341 728.5553,-268.0493 729.9881,-264.422 740.2661,-227.44 742.5532,-223.0243 729.2467,-210.2288 729.0731,-210.0911 719.8107,-204.0872 714.736,-201.5862 708.6593,-199.5124 693.4709,-196.6368 687.7203,-194.6929 684.5831,-193.1668 673.8696,-186.2517 667.8117,-181.4695 660.7542,-173.7104 664.4377,-170.5754 666.9103,-168.77 673.1028,-161.5438 679.4337,-155.4487 685.7189,-150.6873 693.189,-146.5627 696.6666,-145.3705 703.3088,-144.3992 708.2517,-144.6675 713.6647,-143.8556 721.7296,-140.9711 727.5968,-137.7019 730.4332,-135.5579 739.009,-127.1524 743.5421,-121.7603 746.3969,-119.0938 748.226,-117.7338 754.4959,-112.3039 757.7883,-109.0532 761.4717,-104.9441 770.3646,-93.8164 773.9291,-88.8973 792.0909,-61.3608 807.543,-29.9228 816.151,-32.6206 928.0198,-58.8498 939.5027,-100 952.213,-161.6973 954.0231,-169.1552 958.7704,-173.0752 978.6213,-227.9063 990.465,-266.6184 990.558,-267.0009 "/>
<polyline fill="none" stroke="#000000" points="1654.8387,-1282.3621 1655.0138,-1281.8481 1629.5323,-1196.8352 1625.6396,-1182.4478 1635.665,-1158.3069 1655.9838,-1105.0277 1682.9689,-1026.4 1712.4067,-955.5142 1744.2621,-937.9955 1764.3542,-886.2048 1797.5399,-793.4148 1859.2412,-766.766 1866.317,-756.59 1929.1221,-654.4582 2024.6672,-605.5095 2030.5194,-607.4189 2031.2416,-607.6364 2043.3251,-610.9733 2061.8149,-615.1525 2068.4229,-616.3118 2077.3162,-617.6484 2087.5935,-618.6765 2113.0154,-620.5803 2200.1917,-678.6011 2211.2515,-746.3621 2215.4189,-767.0159 2219.0659,-782.2376 2214.4036,-820.1681 2118.4785,-909.4572 2116.8618,-924.0545 2116.7432,-925.5486 2112.6323,-1010.7709 2154.3806,-1041.3021 2234.8215,-1152.3324 2242.6406,-1166.1508 2239.6953,-1179.3 2227.7253,-1254.7733 2226.1394,-1256.5386 2186.3838,-1281.9906 2093.0535,-1324.7839 2090.4377,-1326.0623 2087.1216,-1327.7849 2081.9961,-1354.3016 2076.5115,-1389.1384 2072.675,-1421.0046 2026.1759,-1479.6243 1953.2976,-1517.3325 1944.8512,-1514.1141 1939.954,-1512.3779 1938.7753,-1511.9912 1923.3467,-1507.728 1915.3486,-1505.7283 1909.0082,-1504.3101 1906.0898,-1503.7343 1897.566,-1502.2754 1874.2538,-1500.1125 1859.9308,-1499.5375 1859.568,-1499.5325 1858.4038,-1499.5468 1847.8453,-1499.9536 1838.2015,-1500.8311 1796.948,-1505.6676 1763.4648,-1489.3694 1689.2388,-1388.5942 1661.322,-1353.0665 1640.4961,-1327.942 1654.8387,-1282.3621 "/>
<polyline fill="none" stroke="#000000" points="1629.5323,-1196.8352 1655.0138,-1281.8481 1654.8387,-1282.3621 1640.4961,-1327.942 1596.7126,-1355.792 1517.6366,-1388.6338 1463.2085,-1386.91 1452.1754,-1384.8075 1446.4476,-1383.9858 1439.7615,-1383.3394 1423.3752,-1382.1388 1418.1415,-1380.0856 1404.292,-1375.7625 1400.7257,-1374.8385 1384.0299,-1370.9518 1368.1505,-1368.1005 1305.4772,-1361.8448 1211.785,-1273.3774 1076.6227,-1350.4886 1076.3182,-1350.6718 1063.0896,-1353.1603 1060.2773,-1353.7552 1051.3529,-1351.3096 1048.5046,-1350.5986 1033.7279,-1347.9734 1018.6636,-1345.6602 1015.0804,-1345.2836 1004.1701,-1344.3997 941.6475,-1342.3478 938.5579,-1340.9801 901.476,-1313.249 879.5662,-1308.2474 865.4744,-1306.0627 851.2792,-1304.8947 833.004,-1304.2777 827.6798,-1304.3568 815.4988,-1304.8337 799.5765,-1306.6194 793.5383,-1307.4431 786.7313,-1304.8887 726.5003,-1283.9338 658.0497,-1223.0974 666.2966,-1180.9463 671.1877,-1150.0901 681.01,-1068.4465 694.8062,-1017.0211 698.1047,-1015.9588 720.7086,-1009.6396 733.168,-1006.9577 776.9946,-1000.3111 795.6531,-1001.3762 802.7894,-1001.6381 816.3928,-1001.5823 818.7607,-1001.6758 820.5505,-1001.6736 827.3694,-1001.8135 835.4604,-1001.6493 837.9898,-1001.5463 849.2972,-1001.8266 850.95,-1001.8 866.2508,-1001.8881 871.748,-1001.6953 873.0654,-1001.6779 887.3333,-1000.9075 887.7636,-1000.8755 1011.5792,-986.6096 1017.3771,-951.3162 995.3732,-912.4102 988.0912,-900.778 944.4307,-838 904.5619,-764.5513 893.5671,-746.8651 860.1757,-698.8528 850.3069,-683.8483 843.6867,-673.2552 836.0081,-659.6974 956.2364,-586.4554 984.8391,-584.115 999.7329,-582.2889 1011.9933,-580.286 1029.1189,-576.7889 1045.5447,-572.7673 1094.2251,-559.8701 1128.1804,-625.2896 1135.0184,-639.4892 1157.9036,-691.0996 1159.2651,-698.4534 1162.3278,-718.9959 1162.8354,-721.7053 1168.7169,-760.8499 1193.0833,-774.3117 1212.8099,-784.4817 1213.9304,-784.9723 1221.9103,-788.168 1236.0939,-793.3123 1243.995,-795.8704 1244.3065,-795.9473 1255.8259,-798.3562 1266.9663,-800.261 1285.6978,-802.0308 1298.6626,-803.7423 1307.8604,-805.2985 1314.8651,-807.0035 1324.8228,-809.7985 1379.0504,-829.053 1388.7598,-809.5152 1403.3362,-776.7869 1420.4636,-732.6439 1423.3252,-730.9998 1427.9993,-728.5264 1432.5348,-726.3293 1497.1307,-700.6592 1501.5015,-698.7286 1513.8735,-692.7083 1531.2522,-682.7154 1531.3849,-682.6277 1537.0813,-678.6058 1539.6614,-677.6598 1552.0586,-672.694 1566.863,-665.7703 1584.9775,-655.4687 1599.7677,-646.0737 1607.249,-640.8303 1632.6001,-621.3586 1640.5785,-623.2395 1796.3853,-792.28 1797.5399,-793.4148 1764.3542,-886.2048 1744.2621,-937.9955 1712.4067,-955.5142 1682.9689,-1026.4 1655.9838,-1105.0277 1635.665,-1158.3069 1625.6396,-1182.4478 1629.5323,-1196.8352 "/>
<polyline fill="none" stroke="#000000" points="1445.0028,-188.7612 1451.1876,-192.7129 1471.5814,-206.8324 1472.256,-207.3653 1479.9894,-213.8782 1485.8707,-219.1341 1501.7498,-235.0104 1504.4873,-238.03 1516.8624,-249.8973 1541.9945,-276.2067 1618.7242,-220.2213 1717.9778,-229.514 1733.0984,-231.7027 1735.8824,-232.1765 1741.9075,-232.7968 1749.199,-233.729 1769.1473,-237.777 1788.3943,-243.1239 1788.9465,-243.2908 1796.7372,-246.2359 1812.2133,-242.7556 1816.96,-240.4816 1958.7172,-176.556 1962.8741,-171.3936 1942.1455,-100 1932.3888,-55.4466 1927.4927,-45.825 1890.6187,2.3967 1872.8696,19.9942 1815.0521,48.3873 1806.9543,45.5855 1802.8521,44.2674 1793.0092,41.347 1791.1251,40.8347 1776.0677,37.1115 1772.3049,36.3685 1752.6177,32.9677 1734.4872,31.6388 1720.2745,31.3031 1691.9235,32.0405 1623.4204,13.7985 1618.7242,11.9098 1568.691,31.8938 1515.2626,28.5252 1496.5918,28.3136 1493.8788,28.423 1488.3867,28.7863 1481.0123,29.4648 1468.2146,31.3064 1456.8773,33.5277 1446.1173,35.9152 1437.6429,38.2346 1428.2798,37.561 1415.4498,37.5643 1403.6707,38.1334 1400.5992,38.3555 1373.4742,40.969 1319.1731,18.5132 1285.9957,26.1222 1240.6084,32.3544 1229.9064,34.0958 1218.9808,36.428 1197.395,42.1349 1195.5396,42.718 1192.4541,43.8451 1190.9772,44.4231 1186.8146,43.3642 1170.4696,37.9889 1170.3359,37.9485 1161.8571,35.8164 1147.5107,32.5765 1139.1296,30.9017 1127.3705,29.1607 1123.9409,28.8298 1108.9912,28.1535 1099.8268,28.2106 1084.3942,28.7044 1084.2505,28.7127 1076.2959,29.3761 1032.7218,35.2529 998.0126,20.0881 928.0198,-58.8498 939.5027,-100 952.213,-161.6973 954.0231,-169.1552 958.7704,-173.0752 1073.1899,-174.1995 1074.8766,-174.2954 1075.5258,-174.2995 1079.6672,-174.1174 1085.7852,-174.1358 1086.0621,-174.1086 1097.8473,-174.0637 1105.0173,-174.3755 1107.9207,-174.0602 1108.4995,-174.0248 1109.5679,-174.0098 1122.9265,-174.4541 1126.9291,-174.1814 1132.4576,-174.3265 1144.1217,-175.1829 1144.9288,-175.28 1151.3787,-176.3598 1163.4501,-178.9511 1164.3428,-179.184 1168.2732,-180.3944 1174.6953,-182.6777 1186.6989,-187.5175 1193.656,-190.9762 1204.9752,-197.143 1214.7921,-203.4144 1223.6329,-209.909 1235.0902,-206.9001 1238.3015,-206.3721 1319.1731,-144.6154 1337.7191,-154.4893 1345.9305,-158.4374 1346.4905,-158.6774 1365.2249,-164.8466 1369.6697,-166.0781 1394.8621,-170.4869 1410.2758,-173.9925 1424.4081,-178.6597 1425.2258,-178.9707 1426.1421,-179.3659 1442.4512,-187.2666 1445.0028,-188.7612 "/>
<polyline fill="none" stroke="#000000" points="835.4604,-1001.6493 827.3694,-1001.8135 820.5505,-1001.6736 818.7607,-1001.6758 816.3928,-1001.5823 802.7894,-1001.6381 795.6531,-1001.3762 776.9946,-1000.3111 733.168,-1006.9577 720.7086,-1009.6396 698.1047,-1015.9588 694.8062,-1017.0211 678.6337,-1006.9277 573.0995,-944.0413 559.5842,-931.5345 581.5043,-850.3466 586.9429,-826.0649 593.0114,-791.6613 593.1091,-791.2237 650.9912,-721.4674 686.4355,-682.1027 698.947,-667.5661 699.3188,-667.0765 706.542,-658.1031 711.4774,-655.2342 724.3079,-657.2849 735.118,-658.5904 775.8692,-661.1364 776.9946,-661.2285 778.5375,-661.0605 779.2362,-660.998 795.1053,-660.1935 814.5171,-659.9638 815.3464,-659.9374 820.1594,-659.8781 822.9347,-659.9517 827.4692,-659.9815 836.0081,-659.6974 843.6867,-673.2552 850.3069,-683.8483 860.1757,-698.8528 893.5671,-746.8651 904.5619,-764.5513 944.4307,-838 988.0912,-900.778 995.3732,-912.4102 1017.3771,-951.3162 1011.5792,-986.6096 887.7636,-1000.8755 887.3333,-1000.9075 873.0654,-1001.6779 871.748,-1001.6953 866.2508,-1001.8881 850.95,-1001.8 849.2972,-1001.8266 837.9898,-1001.5463 835.4604,-1001.6493 "/>
<polyline fill="none" stroke="#000000" points="282.0648,-915.5388 282.5305,-915.5351 294.5924,-915.7427 297.899,-915.8828 311.1764,-917.1146 314.6924,-917.5292 356.8483,-923.5629 362.9312,-796.8992 362.9828,-796.5621 364.0231,-775.7397 363.522,-766.5956 366.693,-700.5646 365.5988,-698.32 320.2742,-625.3844 325.0664,-590.1262 317.1129,-560.15 293.9007,-488.3506 261.7883,-480.478 239.1134,-475.7042 228.89,-474.2633 214.3477,-472.4658 202.7475,-471.4357 188.6651,-470.4306 187.2852,-470.3562 186.9458,-470.332 176.0666,-470.1255 161.0694,-470.1021 156.4989,-469.9372 149.0979,-469.9282 131.0155,-469.283 130.291,-469.2322 124.597,-468.7352 122.8294,-468.5504 117.0088,-467.8412 102.9571,-465.8858 95.8831,-464.7794 87.2303,-473.4852 72.149,-486.6649 55.042,-501.0512 -43.0268,-580.1024 -55.5657,-619.0133 -71.868,-647.8491 -86.4849,-704.58 -87.7624,-708.3962 -75.1735,-805.0999 -35.2565,-832.1798 16.1916,-843.6869 91.1531,-890.6592 118.8232,-892.7346 143.1824,-895.7908 153.461,-898.116 198.0204,-925.9288 245.7194,-918.3406 264.1176,-916.3373 272.1676,-915.8672 282.0648,-915.5388 "/>
<!-- authconfig&#45;&gt;policycoreutils -->
<g id="edge1" class="edge">
<title>authconfig&#45;&gt;policycoreutils</title>
<path fill="none" stroke="#444444" stroke-opacity="0.333333" d="M244.7279,-185.8133C242.3885,-178.1843 239.6219,-169.162 237.0414,-160.7468"/>
<polygon fill="#444444" fill-opacity="0.333333" stroke="#444444" stroke-opacity="0.333333" points="240.3053,-159.452 234.0273,-150.9175 233.6129,-161.5043 240.3053,-159.452"/>
</g>
<!-- authconfig&#45;&gt;python3&#45;sssdconfig -->
<g id="edge2" class="edge">
<title>authconfig&#45;&gt;python3&#45;sssdconfig</title>
<path fill="none" stroke="#444444" stroke-opacity="0.333333" d="M240.7086,-222.4734C235.9582,-231.4773 230.135,-242.5147 224.8726,-252.489"/>
<polygon fill="#444444" fill-opacity="0.333333" stroke="#444444" stroke-opacity="0.333333" points="221.6233,-251.1473 220.0525,-261.6251 227.8145,-254.4138 221.6233,-251.1473"/>
</g>
<!-- policycoreutils&#45;&gt;libselinux&#45;utils -->
<g id="edge3" class="edge">
<title>policycoreutils&#45;&gt;libselinux&#45;utils</title>
<path fill="none" stroke="#444444" stroke-opacity="0.333333" d="M238.0864,-114.7787C241.699,-107.972 245.8915,-100.0727 249.8498,-92.6147"/>
<polygon fill="#444444" fill-opacity="0.333333" stroke="#444444" stroke-opacity="0.333333" points="253.0806,-93.993 254.6771,-83.5192 246.8974,-90.7114 253.0806,-93.993"/>
</g>
<!-- curl&#45;minimal&#45;&gt;libcurl&#45;minimal -->
<g id="edge4" class="edge">
<title>curl&#45;minimal&#45;&gt;libcurl&#45;minimal</title>
<path fill="none" stroke="#444444" stroke-opacity="0.333333" d="M528.8618,-541.9359C537.1644,-514.2988 553.0065,-461.5648 562.7501,-429.1312"/>
<polygon fill="#444444" fill-opacity="0.333333" stroke="#444444" stroke-opacity="0.333333" points="566.1568,-429.9559 565.682,-419.3717 559.4528,-427.9418 566.1568,-429.9559"/>
</g>
<!-- device&#45;mapper&#45;multipath&#45;&gt;device&#45;mapper&#45;multipath&#45;libs -->
<g id="edge5" class="edge">
<title>device&#45;mapper&#45;multipath&#45;&gt;device&#45;mapper&#45;multipath&#45;libs</title>
<path fill="none" stroke="#444444" stroke-opacity="0.333333" d="M1354.0063,-534.6763C1354.9329,-553.1908 1356.3861,-582.2233 1357.4684,-603.8485"/>
<polygon fill="#444444" fill-opacity="0.333333" stroke="#444444" stroke-opacity="0.333333" points="1353.9854,-604.276 1357.981,-614.0885 1360.9766,-603.926 1353.9854,-604.276"/>
</g>
<!-- device&#45;mapper&#45;multipath&#45;&gt;kpartx -->
<g id="edge6" class="edge">
<title>device&#45;mapper&#45;multipath&#45;&gt;kpartx</title>
<path fill="none" stroke="#444444" stroke-opacity="0.333333" d="M1383.0529,-498.4499C1385.0317,-497.2528 1387.0393,-496.0383 1389.0524,-494.8205"/>
<polygon fill="#444444" fill-opacity="0.333333" stroke="#444444" stroke-opacity="0.333333" points="1391.0958,-497.675 1397.8404,-489.5042 1387.4725,-491.6856 1391.0958,-497.675"/>
</g>
<!-- device&#45;mapper&#45;multipath&#45;&gt;userspace&#45;rcu -->
<g id="edge7" class="edge">
<title>device&#45;mapper&#45;multipath&#45;&gt;userspace&#45;rcu</title>
<path fill="none" stroke="#444444" stroke-opacity="0.333333" d="M1372.7827,-534.7033C1382.2051,-543.384 1393.6401,-553.9189 1403.8796,-563.3523"/>
<polygon fill="#444444" fill-opacity="0.333333" stroke="#444444" stroke-opacity="0.333333" points="1401.6975,-566.1009 1411.4236,-570.3025 1406.4405,-560.9527 1401.6975,-566.1009"/>
</g>
<!-- device&#45;mapper&#45;multipath&#45;libs&#45;&gt;userspace&#45;rcu -->
<g id="edge8" class="edge">
<title>device&#45;mapper&#45;multipath&#45;libs&#45;&gt;userspace&#45;rcu</title>
<path fill="none" stroke="#444444" stroke-opacity="0.333333" d="M1388.6833,-614.2912C1389.9943,-613.4919 1391.3168,-612.6856 1392.6435,-611.8767"/>
<polygon fill="#444444" fill-opacity="0.333333" stroke="#444444" stroke-opacity="0.333333" points="1394.6689,-614.7412 1401.3851,-606.547 1391.0249,-608.7644 1394.6689,-614.7412"/>
</g>
<!-- device&#45;mapper&#45;multipath&#45;libs&#45;&gt;libaio -->
<g id="edge9" class="edge">
<title>device&#45;mapper&#45;multipath&#45;libs&#45;&gt;libaio</title>
<path fill="none" stroke="#444444" stroke-opacity="0.333333" d="M1347.3729,-650.4782C1341.1449,-660.2186 1333.3318,-672.4382 1326.3991,-683.2809"/>
<polygon fill="#444444" fill-opacity="0.333333" stroke="#444444" stroke-opacity="0.333333" points="1323.2749,-681.6698 1320.8368,-691.9803 1329.1725,-685.4407 1323.2749,-681.6698"/>
</g>
<!-- fcoe&#45;utils&#45;&gt;device&#45;mapper&#45;multipath -->
<g id="edge10" class="edge">
<title>fcoe&#45;utils&#45;&gt;device&#45;mapper&#45;multipath</title>
<path fill="none" stroke="#444444" stroke-opacity="0.333333" d="M1269.136,-415.9913C1285.7083,-435.8429 1312.5122,-467.9507 1331.3686,-490.5385"/>
<polygon fill="#444444" fill-opacity="0.333333" stroke="#444444" stroke-opacity="0.333333" points="1328.8271,-492.9556 1337.9225,-498.3892 1334.2008,-488.4696 1328.8271,-492.9556"/>
</g>
<!-- fcoe&#45;utils&#45;&gt;libpciaccess -->
<g id="edge11" class="edge">
<title>fcoe&#45;utils&#45;&gt;libpciaccess</title>
<path fill="none" stroke="#444444" stroke-opacity="0.333333" d="M1265.1638,-379.9322C1273.294,-366.6698 1284.4757,-348.4297 1293.6509,-333.4627"/>
<polygon fill="#444444" fill-opacity="0.333333" stroke="#444444" stroke-opacity="0.333333" points="1296.8167,-334.9951 1299.0592,-324.6403 1290.8488,-331.3366 1296.8167,-334.9951"/>
</g>
<!-- fcoe&#45;utils&#45;&gt;lldpad -->
<g id="edge12" class="edge">
<title>fcoe&#45;utils&#45;&gt;lldpad</title>
<path fill="none" stroke="#444444" stroke-opacity="0.333333" d="M1207.706,-379.8694C1188.0238,-372.1862 1164.9863,-363.1932 1144.6856,-355.2685"/>
<polygon fill="#444444" fill-opacity="0.333333" stroke="#444444" stroke-opacity="0.333333" points="1145.8588,-351.9693 1135.2706,-351.5932 1143.3133,-358.4901 1145.8588,-351.9693"/>
</g>
<!-- libpciaccess&#45;&gt;hwdata -->
<g id="edge13" class="edge">
<title>libpciaccess&#45;&gt;hwdata</title>
<path fill="none" stroke="#444444" stroke-opacity="0.333333" d="M1321.7656,-288.6062C1326.5204,-281.2597 1332.1146,-272.6164 1337.3202,-264.5735"/>
<polygon fill="#444444" fill-opacity="0.333333" stroke="#444444" stroke-opacity="0.333333" points="1340.2629,-266.4685 1342.7582,-256.1716 1334.3863,-262.665 1340.2629,-266.4685"/>
</g>
<!-- lldpad&#45;&gt;libnl3 -->
<g id="edge14" class="edge">
<title>lldpad&#45;&gt;libnl3</title>
<path fill="none" stroke="#444444" stroke-opacity="0.333333" d="M1049.0136,-327.8562C1019.4068,-323.1096 979.9399,-316.7821 948.4256,-311.7296"/>
<polygon fill="#444444" fill-opacity="0.333333" stroke="#444444" stroke-opacity="0.333333" points="948.9237,-308.2649 938.4957,-310.1376 947.8155,-315.1766 948.9237,-308.2649"/>
</g>
<!-- lldpad&#45;&gt;libconfig -->
<g id="edge15" class="edge">
<title>lldpad&#45;&gt;libconfig</title>
<path fill="none" stroke="#444444" stroke-opacity="0.333333" d="M1093.4512,-316.4441C1094.2466,-304.7883 1095.2919,-289.4699 1096.1899,-276.3115"/>
<polygon fill="#444444" fill-opacity="0.333333" stroke="#444444" stroke-opacity="0.333333" points="1099.6818,-276.5482 1096.8708,-266.333 1092.698,-276.0715 1099.6818,-276.5482"/>
</g>
<!-- firewalld&#45;&gt;ebtables -->
<g id="edge16" class="edge">
<title>firewalld&#45;&gt;ebtables</title>
<path fill="none" stroke="#444444" stroke-opacity="0.333333" d="M1878.6714,-1141.6974C1916.8757,-1149.198 1966.6075,-1158.9618 2005.8196,-1166.6603"/>
<polygon fill="#444444" fill-opacity="0.333333" stroke="#444444" stroke-opacity="0.333333" points="2005.3191,-1170.1287 2015.806,-1168.6209 2006.6677,-1163.2599 2005.3191,-1170.1287"/>
</g>
<!-- firewalld&#45;&gt;firewalld&#45;filesystem -->
<g id="edge17" class="edge">
<title>firewalld&#45;&gt;firewalld&#45;filesystem</title>
<path fill="none" stroke="#444444" stroke-opacity="0.333333" d="M1825.1244,-1148.2818C1837.8723,-1190.2369 1869.4132,-1294.043 1884.6259,-1344.1106"/>
<polygon fill="#444444" fill-opacity="0.333333" stroke="#444444" stroke-opacity="0.333333" points="1881.3556,-1345.3866 1887.6117,-1353.9372 1888.0533,-1343.3515 1881.3556,-1345.3866"/>
</g>
<!-- firewalld&#45;&gt;ipset -->
<g id="edge18" class="edge">
<title>firewalld&#45;&gt;ipset</title>
<path fill="none" stroke="#444444" stroke-opacity="0.333333" d="M1831.4561,-1111.881C1855.1254,-1075.5089 1908.3239,-993.7601 1935.8957,-951.391"/>
<polygon fill="#444444" fill-opacity="0.333333" stroke="#444444" stroke-opacity="0.333333" points="1938.8496,-953.2688 1941.3705,-942.9782 1932.9825,-949.4507 1938.8496,-953.2688"/>
</g>
<!-- firewalld&#45;&gt;python3&#45;firewall -->
<g id="edge19" class="edge">
<title>firewalld&#45;&gt;python3&#45;firewall</title>
<path fill="none" stroke="#444444" stroke-opacity="0.333333" d="M1762.519,-1112.0368C1705.7174,-1094.0621 1618.5941,-1066.4921 1558.6282,-1047.516"/>
<polygon fill="#444444" fill-opacity="0.333333" stroke="#444444" stroke-opacity="0.333333" points="1559.4657,-1044.11 1548.8757,-1044.4298 1557.3537,-1050.7838 1559.4657,-1044.11"/>
</g>
<!-- ipset&#45;&gt;ipset&#45;libs -->
<g id="edge20" class="edge">
<title>ipset&#45;&gt;ipset&#45;libs</title>
<path fill="none" stroke="#444444" stroke-opacity="0.333333" d="M1964.4475,-906.7986C1982.9683,-877.1565 2019.9798,-817.9206 2041.5778,-783.3535"/>
<polygon fill="#444444" fill-opacity="0.333333" stroke="#444444" stroke-opacity="0.333333" points="2044.6438,-785.0515 2046.9745,-774.7162 2038.7073,-781.3423 2044.6438,-785.0515"/>
</g>
<!-- python3&#45;firewall&#45;&gt;python3&#45;dbus -->
<g id="edge21" class="edge">
<title>python3&#45;firewall&#45;&gt;python3&#45;dbus</title>
<path fill="none" stroke="#444444" stroke-opacity="0.333333" d="M1457.1859,-1008.3821C1410.9379,-984.3777 1329.0873,-941.8943 1278.5438,-915.6603"/>
<polygon fill="#444444" fill-opacity="0.333333" stroke="#444444" stroke-opacity="0.333333" points="1279.9743,-912.4595 1269.4862,-910.9591 1276.7495,-918.6724 1279.9743,-912.4595"/>
</g>
<!-- python3&#45;firewall&#45;&gt;python3&#45;decorator -->
<g id="edge22" class="edge">
<title>python3&#45;firewall&#45;&gt;python3&#45;decorator</title>
<path fill="none" stroke="#444444" stroke-opacity="0.333333" d="M1484.8448,-1044.7123C1470.5796,-1081.7385 1438.238,-1165.6829 1421.4143,-1209.35"/>
<polygon fill="#444444" fill-opacity="0.333333" stroke="#444444" stroke-opacity="0.333333" points="1418.1104,-1208.1902 1417.7812,-1218.78 1424.6424,-1210.7069 1418.1104,-1208.1902"/>
</g>
<!-- python3&#45;firewall&#45;&gt;python3&#45;gobject&#45;base -->
<g id="edge23" class="edge">
<title>python3&#45;firewall&#45;&gt;python3&#45;gobject&#45;base</title>
<path fill="none" stroke="#444444" stroke-opacity="0.333333" d="M1496.8514,-1008.029C1507.8406,-967.2555 1534.3287,-868.9767 1547.4182,-820.4109"/>
<polygon fill="#444444" fill-opacity="0.333333" stroke="#444444" stroke-opacity="0.333333" points="1550.8487,-821.132 1550.0716,-810.5657 1544.0898,-819.3103 1550.8487,-821.132"/>
</g>
<!-- python3&#45;firewall&#45;&gt;python3&#45;slip&#45;dbus -->
<g id="edge24" class="edge">
<title>python3&#45;firewall&#45;&gt;python3&#45;slip&#45;dbus</title>
<path fill="none" stroke="#444444" stroke-opacity="0.333333" d="M1439.7459,-1044.4653C1403.997,-1056.8481 1356.4152,-1073.3296 1318.7521,-1086.3755"/>
<polygon fill="#444444" fill-opacity="0.333333" stroke="#444444" stroke-opacity="0.333333" points="1317.2119,-1083.2049 1308.9083,-1089.7852 1319.5031,-1089.8193 1317.2119,-1083.2049"/>
</g>
<!-- python3&#45;dbus&#45;&gt;dbus&#45;glib -->
<g id="edge25" class="edge">
<title>python3&#45;dbus&#45;&gt;dbus&#45;glib</title>
<path fill="none" stroke="#444444" stroke-opacity="0.333333" d="M1204.7811,-874.634C1164.6239,-850.0875 1092.9969,-806.3048 1048.8902,-779.3442"/>
<polygon fill="#444444" fill-opacity="0.333333" stroke="#444444" stroke-opacity="0.333333" points="1050.5431,-776.2524 1040.1854,-774.0232 1046.8922,-782.225 1050.5431,-776.2524"/>
</g>
<!-- python3&#45;slip&#45;dbus&#45;&gt;python3&#45;dbus -->
<g id="edge26" class="edge">
<title>python3&#45;slip&#45;dbus&#45;&gt;python3&#45;dbus</title>
<path fill="none" stroke="#444444" stroke-opacity="0.333333" d="M1254.9902,-1089.4692C1251.0806,-1051.9437 1242.1409,-966.1387 1237.4685,-921.2921"/>
<polygon fill="#444444" fill-opacity="0.333333" stroke="#444444" stroke-opacity="0.333333" points="1240.9225,-920.6678 1236.405,-911.0844 1233.9602,-921.3933 1240.9225,-920.6678"/>
</g>
<!-- python3&#45;slip&#45;dbus&#45;&gt;python3&#45;decorator -->
<g id="edge27" class="edge">
<title>python3&#45;slip&#45;dbus&#45;&gt;python3&#45;decorator</title>
<path fill="none" stroke="#444444" stroke-opacity="0.333333" d="M1278.6237,-1126.0231C1305.4343,-1148.5133 1351.1494,-1186.8617 1381.1657,-1212.0411"/>
<polygon fill="#444444" fill-opacity="0.333333" stroke="#444444" stroke-opacity="0.333333" points="1379.276,-1215.0243 1389.1868,-1218.7696 1383.7748,-1209.6613 1379.276,-1215.0243"/>
</g>
<!-- python3&#45;slip&#45;dbus&#45;&gt;python3&#45;slip -->
<g id="edge28" class="edge">
<title>python3&#45;slip&#45;dbus&#45;&gt;python3&#45;slip</title>
<path fill="none" stroke="#444444" stroke-opacity="0.333333" d="M1215.5908,-1125.9125C1179.0813,-1141.9205 1125.7094,-1165.322 1086.6183,-1182.462"/>
<polygon fill="#444444" fill-opacity="0.333333" stroke="#444444" stroke-opacity="0.333333" points="1084.7594,-1179.4553 1077.0065,-1186.6764 1087.5703,-1185.8662 1084.7594,-1179.4553"/>
</g>
<!-- python3&#45;slip&#45;&gt;libselinux&#45;python3 -->
<g id="edge53" class="edge">
<title>python3&#45;slip&#45;&gt;libselinux&#45;python3</title>
<path fill="none" stroke="#444444" stroke-opacity="0.333333" d="M960.2723,-1189.0715C954.4111,-1187.8603 948.4461,-1186.6276 942.4711,-1185.3929"/>
<polygon fill="#444444" fill-opacity="0.333333" stroke="#444444" stroke-opacity="0.333333" points="942.9242,-1181.9126 932.4228,-1183.3164 941.5075,-1188.7678 942.9242,-1181.9126"/>
</g>
<!-- iscsi&#45;initiator&#45;utils&#45;&gt;iscsi&#45;initiator&#45;utils&#45;iscsiuio -->
<g id="edge29" class="edge">
<title>iscsi&#45;initiator&#45;utils&#45;&gt;iscsi&#45;initiator&#45;utils&#45;iscsiuio</title>
<path fill="none" stroke="#444444" stroke-opacity="0.333333" d="M1334.9805,-93.3522C1334.827,-93.3511 1334.6735,-93.3499 1334.52,-93.3488"/>
<polygon fill="#444444" fill-opacity="0.333333" stroke="#444444" stroke-opacity="0.333333" points="1337.6088,-89.8685 1327.5867,-93.3049 1337.5643,-96.8683 1337.6088,-89.8685"/>
</g>
<!-- iscsi&#45;initiator&#45;utils&#45;&gt;isns&#45;utils&#45;libs -->
<g id="edge30" class="edge">
<title>iscsi&#45;initiator&#45;utils&#45;&gt;isns&#45;utils&#45;libs</title>
<path fill="none" stroke="#444444" stroke-opacity="0.333333" d="M1582.2671,-100C1608.4003,-100 1635.6934,-100 1660.9028,-100"/>
<polygon fill="#444444" fill-opacity="0.333333" stroke="#444444" stroke-opacity="0.333333" points="1661.1956,-103.5001 1671.1955,-100 1661.1955,-96.5001 1661.1956,-103.5001"/>
</g>
<!-- iscsi&#45;initiator&#45;utils&#45;iscsiuio&#45;&gt;iscsi&#45;initiator&#45;utils -->
<g id="edge31" class="edge">
<title>iscsi&#45;initiator&#45;utils&#45;iscsiuio&#45;&gt;iscsi&#45;initiator&#45;utils</title>
<path fill="none" stroke="#444444" stroke-opacity="0.333333" d="M1327.5188,-106.6955C1327.6774,-106.6947 1327.8361,-106.6938 1327.9947,-106.6929"/>
<polygon fill="#444444" fill-opacity="0.333333" stroke="#444444" stroke-opacity="0.333333" points="1325.1315,-110.2117 1335.1086,-106.6468 1325.0861,-103.2118 1325.1315,-110.2117"/>
</g>
<!-- libnl3&#45;cli&#45;&gt;libnl3 -->
<g id="edge32" class="edge">
<title>libnl3&#45;cli&#45;&gt;libnl3</title>
<path fill="none" stroke="#444444" stroke-opacity="0.333333" d="M929.7103,-335.9317C927.2609,-333.5964 924.7162,-331.1703 922.1697,-328.7425"/>
<polygon fill="#444444" fill-opacity="0.333333" stroke="#444444" stroke-opacity="0.333333" points="924.2706,-325.9097 914.6177,-321.5425 919.4403,-330.9761 924.2706,-325.9097"/>
</g>
<!-- libproxy&#45;&gt;libmodman -->
<g id="edge33" class="edge">
<title>libproxy&#45;&gt;libmodman</title>
<path fill="none" stroke="#444444" stroke-opacity="0.333333" d="M782.0711,-838C781.9137,-838 781.7562,-838 781.5986,-838"/>
<polygon fill="#444444" fill-opacity="0.333333" stroke="#444444" stroke-opacity="0.333333" points="784.4865,-834.5001 774.4865,-838 784.4864,-841.5001 784.4865,-834.5001"/>
</g>
<!-- libpsl&#45;&gt;publicsuffix&#45;list&#45;dafsa -->
<g id="edge34" class="edge">
<title>libpsl&#45;&gt;publicsuffix&#45;list&#45;dafsa</title>
<path fill="none" stroke="#444444" stroke-opacity="0.333333" d="M571.3656,-65.2827C563.7947,-58.3941 555.0453,-50.4331 546.9099,-43.0309"/>
<polygon fill="#444444" fill-opacity="0.333333" stroke="#444444" stroke-opacity="0.333333" points="549.1088,-40.2996 539.3568,-36.1584 544.3978,-45.4771 549.1088,-40.2996"/>
</g>
<!-- libteam&#45;&gt;libnl3 -->
<g id="edge35" class="edge">
<title>libteam&#45;&gt;libnl3</title>
<path fill="none" stroke="#444444" stroke-opacity="0.333333" d="M924.8308,-396.5435C919.2117,-378.7213 910.6291,-351.5002 904.1815,-331.0503"/>
<polygon fill="#444444" fill-opacity="0.333333" stroke="#444444" stroke-opacity="0.333333" points="907.466,-329.8278 901.1209,-321.3431 900.7899,-331.9328 907.466,-329.8278"/>
</g>
<!-- libteam&#45;&gt;libnl3&#45;cli -->
<g id="edge36" class="edge">
<title>libteam&#45;&gt;libnl3&#45;cli</title>
<path fill="none" stroke="#444444" stroke-opacity="0.333333" d="M936.0416,-396.686C937.392,-392.0989 938.8721,-387.0713 940.3278,-382.1267"/>
<polygon fill="#444444" fill-opacity="0.333333" stroke="#444444" stroke-opacity="0.333333" points="943.7655,-382.8425 943.2322,-372.2611 937.0505,-380.8656 943.7655,-382.8425"/>
</g>
<!-- mariadb&#45;common&#45;&gt;mariadb&#45;config -->
<g id="edge37" class="edge">
<title>mariadb&#45;common&#45;&gt;mariadb&#45;config</title>
<path fill="none" stroke="#444444" stroke-opacity="0.333333" d="M459.8308,-767.8961C466.1978,-755.6584 474.7069,-739.3036 481.8755,-725.5254"/>
<polygon fill="#444444" fill-opacity="0.333333" stroke="#444444" stroke-opacity="0.333333" points="485.0707,-726.9672 486.5813,-716.4806 478.8609,-723.7363 485.0707,-726.9672"/>
</g>
<!-- mariadb&#45;config&#45;&gt;curl&#45;minimal -->
<g id="edge38" class="edge">
<title>mariadb&#45;config&#45;&gt;curl&#45;minimal</title>
<path fill="none" stroke="#444444" stroke-opacity="0.333333" d="M499.6068,-680.2567C504.2359,-656.8797 512.3521,-615.8923 517.7988,-588.3862"/>
<polygon fill="#444444" fill-opacity="0.333333" stroke="#444444" stroke-opacity="0.333333" points="521.3031,-588.7072 519.8123,-578.2177 514.4364,-587.3474 521.3031,-588.7072"/>
</g>
<!-- mariadb&#45;libs&#45;&gt;mariadb&#45;common -->
<g id="edge39" class="edge">
<title>mariadb&#45;libs&#45;&gt;mariadb&#45;common</title>
<path fill="none" stroke="#444444" stroke-opacity="0.333333" d="M356.8068,-783.7257C356.9609,-783.7296 357.115,-783.7335 357.2691,-783.7374"/>
<polygon fill="#444444" fill-opacity="0.333333" stroke="#444444" stroke-opacity="0.333333" points="354.1394,-787.1596 364.2243,-783.9124 354.3156,-780.1618 354.1394,-787.1596"/>
</g>
<!-- net&#45;snmp&#45;agent&#45;libs&#45;&gt;mariadb&#45;libs -->
<g id="edge40" class="edge">
<title>net&#45;snmp&#45;agent&#45;libs&#45;&gt;mariadb&#45;libs</title>
<path fill="none" stroke="#444444" stroke-opacity="0.333333" d="M143.221,-678.6968C171.2382,-699.6561 217.4448,-734.2228 248.5523,-757.4939"/>
<polygon fill="#444444" fill-opacity="0.333333" stroke="#444444" stroke-opacity="0.333333" points="246.7943,-760.5497 256.8982,-763.7374 250.9874,-754.9446 246.7943,-760.5497"/>
</g>
<!-- net&#45;snmp&#45;agent&#45;libs&#45;&gt;net&#45;snmp&#45;libs -->
<g id="edge41" class="edge">
<title>net&#45;snmp&#45;agent&#45;libs&#45;&gt;net&#45;snmp&#45;libs</title>
<path fill="none" stroke="#444444" stroke-opacity="0.333333" d="M103.1273,-678.707C102.988,-678.8669 102.8485,-679.0272 102.7087,-679.1876"/>
<polygon fill="#444444" fill-opacity="0.333333" stroke="#444444" stroke-opacity="0.333333" points="100.3078,-676.6151 96.3794,-686.4547 105.5865,-681.2126 100.3078,-676.6151"/>
</g>
<!-- net&#45;snmp&#45;&gt;mariadb&#45;libs -->
<g id="edge42" class="edge">
<title>net&#45;snmp&#45;&gt;mariadb&#45;libs</title>
<path fill="none" stroke="#444444" stroke-opacity="0.333333" d="M197.9741,-761.7415C198.0585,-761.7619 198.1429,-761.7823 198.2274,-761.8027"/>
<polygon fill="#444444" fill-opacity="0.333333" stroke="#444444" stroke-opacity="0.333333" points="195.6085,-764.7705 206.1508,-763.7173 197.2526,-757.9664 195.6085,-764.7705"/>
</g>
<!-- net&#45;snmp&#45;&gt;net&#45;snmp&#45;agent&#45;libs -->
<g id="edge43" class="edge">
<title>net&#45;snmp&#45;&gt;net&#45;snmp&#45;agent&#45;libs</title>
<path fill="none" stroke="#444444" stroke-opacity="0.333333" d="M138.548,-730.3698C135.1672,-718.3236 130.6709,-702.3028 126.8379,-688.6453"/>
<polygon fill="#444444" fill-opacity="0.333333" stroke="#444444" stroke-opacity="0.333333" points="130.1374,-687.4491 124.0654,-678.7669 123.3978,-689.3406 130.1374,-687.4491"/>
</g>
<!-- net&#45;snmp&#45;&gt;net&#45;snmp&#45;libs -->
<g id="edge44" class="edge">
<title>net&#45;snmp&#45;&gt;net&#45;snmp&#45;libs</title>
<path fill="none" stroke="#444444" stroke-opacity="0.333333" d="M117.65,-730.453C116.7337,-729.8132 115.811,-729.169 114.8852,-728.5226"/>
<polygon fill="#444444" fill-opacity="0.333333" stroke="#444444" stroke-opacity="0.333333" points="116.7561,-725.5602 106.5532,-722.7053 112.7488,-731.2997 116.7561,-725.5602"/>
</g>
<!-- NetworkManager&#45;&gt;libcurl&#45;minimal -->
<g id="edge45" class="edge">
<title>NetworkManager&#45;&gt;libcurl&#45;minimal</title>
<path fill="none" stroke="#444444" stroke-opacity="0.333333" d="M645.7134,-245.7248C631.0358,-276.3385 601.4115,-338.1272 584.2319,-373.9594"/>
<polygon fill="#444444" fill-opacity="0.333333" stroke="#444444" stroke-opacity="0.333333" points="580.9064,-372.7998 579.7391,-383.3302 587.2184,-375.8261 580.9064,-372.7998"/>
</g>
<!-- NetworkManager&#45;&gt;libnl3 -->
<g id="edge46" class="edge">
<title>NetworkManager&#45;&gt;libnl3</title>
<path fill="none" stroke="#444444" stroke-opacity="0.333333" d="M711.8826,-245.4973C751.4902,-257.9568 803.7643,-274.4008 842.3894,-286.5512"/>
<polygon fill="#444444" fill-opacity="0.333333" stroke="#444444" stroke-opacity="0.333333" points="841.809,-290.0376 852.3984,-289.6997 843.9095,-283.3602 841.809,-290.0376"/>
</g>
<!-- NetworkManager&#45;&gt;libpsl -->
<g id="edge47" class="edge">
<title>NetworkManager&#45;&gt;libpsl</title>
<path fill="none" stroke="#444444" stroke-opacity="0.333333" d="M646.4947,-209.2148C635.6458,-184.4542 616.1558,-139.9716 603.5119,-111.1139"/>
<polygon fill="#444444" fill-opacity="0.333333" stroke="#444444" stroke-opacity="0.333333" points="606.5695,-109.3709 599.3505,-101.6162 600.1579,-112.1802 606.5695,-109.3709"/>
</g>
<!-- NetworkManager&#45;&gt;jansson -->
<g id="edge48" class="edge">
<title>NetworkManager&#45;&gt;jansson</title>
<path fill="none" stroke="#444444" stroke-opacity="0.333333" d="M720.4589,-245.4955C726.4877,-247.1453 732.5648,-248.8084 738.5148,-250.4366"/>
<polygon fill="#444444" fill-opacity="0.333333" stroke="#444444" stroke-opacity="0.333333" points="737.8083,-253.8719 748.3775,-253.1356 739.656,-247.1202 737.8083,-253.8719"/>
</g>
<!-- NetworkManager&#45;&gt;libndp -->
<g id="edge49" class="edge">
<title>NetworkManager&#45;&gt;libndp</title>
<path fill="none" stroke="#444444" stroke-opacity="0.333333" d="M659.7048,-209.2669C664.5057,-192.5681 671.6946,-167.5632 677.2293,-148.3125"/>
<polygon fill="#444444" fill-opacity="0.333333" stroke="#444444" stroke-opacity="0.333333" points="680.6302,-149.1501 680.0296,-138.5723 673.9027,-147.2159 680.6302,-149.1501"/>
</g>
<!-- NetworkManager&#45;&gt;NetworkManager&#45;libnm -->
<g id="edge50" class="edge">
<title>NetworkManager&#45;&gt;NetworkManager&#45;libnm</title>
<path fill="none" stroke="#444444" stroke-opacity="0.333333" d="M688.3011,-209.3583C698.7316,-203.7819 710.3583,-197.5659 721.3158,-191.7078"/>
<polygon fill="#444444" fill-opacity="0.333333" stroke="#444444" stroke-opacity="0.333333" points="723.1531,-194.6943 730.3217,-186.893 719.8527,-188.5212 723.1531,-194.6943"/>
</g>
<!-- NetworkManager&#45;&gt;polkit&#45;libs -->
<g id="edge51" class="edge">
<title>NetworkManager&#45;&gt;polkit&#45;libs</title>
<path fill="none" stroke="#444444" stroke-opacity="0.333333" d="M573.7423,-209.3643C572.7926,-209.1517 571.8428,-208.939 570.8932,-208.7265"/>
<polygon fill="#444444" fill-opacity="0.333333" stroke="#444444" stroke-opacity="0.333333" points="571.2791,-205.2263 560.756,-206.4569 569.7497,-212.0572 571.2791,-205.2263"/>
</g>
<!-- NetworkManager&#45;libnm&#45;&gt;jansson -->
<g id="edge52" class="edge">
<title>NetworkManager&#45;libnm&#45;&gt;jansson</title>
<path fill="none" stroke="#444444" stroke-opacity="0.333333" d="M770.2747,-187.1109C775.0406,-201.5478 781.7621,-221.9085 787.1951,-238.3663"/>
<polygon fill="#444444" fill-opacity="0.333333" stroke="#444444" stroke-opacity="0.333333" points="783.924,-239.6226 790.3825,-248.0214 790.5712,-237.4282 783.924,-239.6226"/>
</g>
<!-- realmd&#45;&gt;authconfig -->
<g id="edge54" class="edge">
<title>realmd&#45;&gt;authconfig</title>
<path fill="none" stroke="#444444" stroke-opacity="0.333333" d="M322.4235,-188.7414C322.2717,-188.7739 322.1197,-188.8065 321.9676,-188.8391"/>
<polygon fill="#444444" fill-opacity="0.333333" stroke="#444444" stroke-opacity="0.333333" points="324.0908,-184.8046 315.0459,-190.3219 325.5573,-191.6493 324.0908,-184.8046"/>
</g>
<!-- realmd&#45;&gt;polkit&#45;libs -->
<g id="edge55" class="edge">
<title>realmd&#45;&gt;polkit&#45;libs</title>
<path fill="none" stroke="#444444" stroke-opacity="0.333333" d="M408.8521,-183.3898C409.6225,-183.4598 410.3973,-183.5302 411.1759,-183.6009"/>
<polygon fill="#444444" fill-opacity="0.333333" stroke="#444444" stroke-opacity="0.333333" points="411.1953,-187.117 421.4709,-184.536 411.8286,-180.1457 411.1953,-187.117"/>
</g>
<!-- teamd&#45;&gt;libnl3 -->
<g id="edge56" class="edge">
<title>teamd&#45;&gt;libnl3</title>
<path fill="none" stroke="#444444" stroke-opacity="0.333333" d="M852.565,-352.8096C858.8633,-345.5213 866.2399,-336.9852 873.0801,-329.0698"/>
<polygon fill="#444444" fill-opacity="0.333333" stroke="#444444" stroke-opacity="0.333333" points="875.7914,-331.2853 879.6817,-321.4305 870.495,-326.7083 875.7914,-331.2853"/>
</g>
<!-- teamd&#45;&gt;libnl3&#45;cli -->
<g id="edge57" class="edge">
<title>teamd&#45;&gt;libnl3&#45;cli</title>
<path fill="none" stroke="#444444" stroke-opacity="0.333333" d="M874.3986,-365.252C874.4938,-365.2375 874.5889,-365.223 874.6842,-365.2085"/>
<polygon fill="#444444" fill-opacity="0.333333" stroke="#444444" stroke-opacity="0.333333" points="874.3718,-368.7964 883.7316,-363.8321 873.3189,-361.876 874.3718,-368.7964"/>
</g>
<!-- teamd&#45;&gt;libteam -->
<g id="edge58" class="edge">
<title>teamd&#45;&gt;libteam</title>
<path fill="none" stroke="#444444" stroke-opacity="0.333333" d="M874.4795,-388.619C877.2931,-389.9404 880.1531,-391.2836 883.0168,-392.6286"/>
<polygon fill="#444444" fill-opacity="0.333333" stroke="#444444" stroke-opacity="0.333333" points="881.5839,-395.8224 892.1233,-396.9055 884.5597,-389.4864 881.5839,-395.8224"/>
</g>
<!-- teamd&#45;&gt;jansson -->
<g id="edge59" class="edge">
<title>teamd&#45;&gt;jansson</title>
<path fill="none" stroke="#444444" stroke-opacity="0.333333" d="M829.8307,-352.7261C823.5343,-336.4398 814.221,-312.3501 807.0241,-293.7344"/>
<polygon fill="#444444" fill-opacity="0.333333" stroke="#444444" stroke-opacity="0.333333" points="810.2491,-292.37 803.3786,-284.3049 803.7201,-294.8942 810.2491,-292.37"/>
</g>
<!-- teamd&#45;&gt;libdaemon -->
<g id="edge60" class="edge">
<title>teamd&#45;&gt;libdaemon</title>
<path fill="none" stroke="#444444" stroke-opacity="0.333333" d="M830.0337,-389.2465C823.4621,-406.7993 813.4454,-433.5539 805.8754,-453.7736"/>
<polygon fill="#444444" fill-opacity="0.333333" stroke="#444444" stroke-opacity="0.333333" points="802.5049,-452.794 802.2764,-463.3864 809.0605,-455.2484 802.5049,-452.794"/>
</g>
<!-- authconfig -->
<g id="node1" class="node">
<title>authconfig</title>
<text text-anchor="middle" x="250.36" y="-200.48" font-family="monospace" font-size="14.00" fill="#000000">authconfig</text>
</g>
<!-- policycoreutils -->
<g id="node2" class="node">
<title>policycoreutils</title>
<text text-anchor="middle" x="228.49" y="-129.16" font-family="monospace" font-size="14.00" fill="#000000">policycoreutils</text>
</g>
<!-- python3&#45;sssdconfig -->
<g id="node3" class="node">
<title>python3&#45;sssdconfig</title>
<text text-anchor="middle" x="210.49" y="-276.05" font-family="monospace" font-size="14.00" fill="#000000">python3&#45;sssdconfig</text>
</g>
<!-- libselinux&#45;utils -->
<g id="node4" class="node">
<title>libselinux&#45;utils</title>
<text text-anchor="middle" x="264.3" y="-61.688" font-family="monospace" font-size="14.00" fill="#000000">libselinux&#45;utils</text>
</g>
<!-- curl&#45;minimal -->
<g id="node5" class="node">
<title>curl&#45;minimal</title>
<text text-anchor="middle" x="523.39" y="-556.45" font-family="monospace" font-size="14.00" fill="#000000">curl&#45;minimal</text>
</g>
<!-- libcurl&#45;minimal -->
<g id="node6" class="node">
<title>libcurl&#45;minimal</title>
<text text-anchor="middle" x="571.09" y="-397.67" font-family="monospace" font-size="14.00" fill="#000000">libcurl&#45;minimal</text>
</g>
<!-- device&#45;mapper&#45;multipath -->
<g id="node7" class="node">
<title>device&#45;mapper&#45;multipath</title>
<text text-anchor="middle" x="1353.1" y="-512.87" font-family="monospace" font-size="14.00" fill="#000000">device&#45;mapper&#45;multipath</text>
</g>
<!-- device&#45;mapper&#45;multipath&#45;libs -->
<g id="node8" class="node">
<title>device&#45;mapper&#45;multipath&#45;libs</title>
<text text-anchor="middle" x="1358.9" y="-628.75" font-family="monospace" font-size="14.00" fill="#000000">device&#45;mapper&#45;multipath&#45;libs</text>
</g>
<!-- kpartx -->
<g id="node9" class="node">
<title>kpartx</title>
<text text-anchor="middle" x="1427.8" y="-467.68" font-family="monospace" font-size="14.00" fill="#000000">kpartx</text>
</g>
<!-- userspace&#45;rcu -->
<g id="node10" class="node">
<title>userspace&#45;rcu</title>
<text text-anchor="middle" x="1431.1" y="-584.73" font-family="monospace" font-size="14.00" fill="#000000">userspace&#45;rcu</text>
</g>
<!-- libaio -->
<g id="node11" class="node">
<title>libaio</title>
<text text-anchor="middle" x="1309.2" y="-706.48" font-family="monospace" font-size="14.00" fill="#000000">libaio</text>
</g>
<!-- fcoe&#45;utils -->
<g id="node12" class="node">
<title>fcoe&#45;utils</title>
<text text-anchor="middle" x="1254.1" y="-394.28" font-family="monospace" font-size="14.00" fill="#000000">fcoe&#45;utils</text>
</g>
<!-- libpciaccess -->
<g id="node13" class="node">
<title>libpciaccess</title>
<text text-anchor="middle" x="1310.1" y="-302.93" font-family="monospace" font-size="14.00" fill="#000000">libpciaccess</text>
</g>
<!-- lldpad -->
<g id="node14" class="node">
<title>lldpad</title>
<text text-anchor="middle" x="1092.2" y="-331.08" font-family="monospace" font-size="14.00" fill="#000000">lldpad</text>
</g>
<!-- hwdata -->
<g id="node15" class="node">
<title>hwdata</title>
<text text-anchor="middle" x="1354.5" y="-234.33" font-family="monospace" font-size="14.00" fill="#000000">hwdata</text>
</g>
<!-- libnl3 -->
<g id="node16" class="node">
<title>libnl3</title>
<text text-anchor="middle" x="895.41" y="-299.53" font-family="monospace" font-size="14.00" fill="#000000">libnl3</text>
</g>
<!-- libconfig -->
<g id="node17" class="node">
<title>libconfig</title>
<text text-anchor="middle" x="1098.1" y="-244.62" font-family="monospace" font-size="14.00" fill="#000000">libconfig</text>
</g>
<!-- firewalld -->
<g id="node18" class="node">
<title>firewalld</title>
<text text-anchor="middle" x="1819.6" y="-1126.4" font-family="monospace" font-size="14.00" fill="#000000">firewalld</text>
</g>
<!-- ebtables -->
<g id="node19" class="node">
<title>ebtables</title>
<text text-anchor="middle" x="2070.2" y="-1175.6" font-family="monospace" font-size="14.00" fill="#000000">ebtables</text>
</g>
<!-- firewalld&#45;filesystem -->
<g id="node20" class="node">
<title>firewalld&#45;filesystem</title>
<text text-anchor="middle" x="1893.1" y="-1368.3" font-family="monospace" font-size="14.00" fill="#000000">firewalld&#45;filesystem</text>
</g>
<!-- ipset -->
<g id="node21" class="node">
<title>ipset</title>
<text text-anchor="middle" x="1953.2" y="-921.1" font-family="monospace" font-size="14.00" fill="#000000">ipset</text>
</g>
<!-- python3&#45;firewall -->
<g id="node22" class="node">
<title>python3&#45;firewall</title>
<text text-anchor="middle" x="1491.9" y="-1022.7" font-family="monospace" font-size="14.00" fill="#000000">python3&#45;firewall</text>
</g>
<!-- ipset&#45;libs -->
<g id="node23" class="node">
<title>ipset&#45;libs</title>
<text text-anchor="middle" x="2058.3" y="-752.89" font-family="monospace" font-size="14.00" fill="#000000">ipset&#45;libs</text>
</g>
<!-- python3&#45;dbus -->
<g id="node24" class="node">
<title>python3&#45;dbus</title>
<text text-anchor="middle" x="1234.5" y="-889.1" font-family="monospace" font-size="14.00" fill="#000000">python3&#45;dbus</text>
</g>
<!-- python3&#45;decorator -->
<g id="node25" class="node">
<title>python3&#45;decorator</title>
<text text-anchor="middle" x="1410.8" y="-1233.2" font-family="monospace" font-size="14.00" fill="#000000">python3&#45;decorator</text>
</g>
<!-- python3&#45;gobject&#45;base -->
<g id="node26" class="node">
<title>python3&#45;gobject&#45;base</title>
<text text-anchor="middle" x="1555" y="-788.58" font-family="monospace" font-size="14.00" fill="#000000">python3&#45;gobject&#45;base</text>
</g>
<!-- python3&#45;slip&#45;dbus -->
<g id="node27" class="node">
<title>python3&#45;slip&#45;dbus</title>
<text text-anchor="middle" x="1256.9" y="-1104.1" font-family="monospace" font-size="14.00" fill="#000000">python3&#45;slip&#45;dbus</text>
</g>
<!-- dbus&#45;glib -->
<g id="node28" class="node">
<title>dbus&#45;glib</title>
<text text-anchor="middle" x="1010.7" y="-752.3" font-family="monospace" font-size="14.00" fill="#000000">dbus&#45;glib</text>
</g>
<!-- python3&#45;slip -->
<g id="node29" class="node">
<title>python3&#45;slip</title>
<text text-anchor="middle" x="1035.9" y="-1201" font-family="monospace" font-size="14.00" fill="#000000">python3&#45;slip</text>
</g>
<!-- iscsi&#45;initiator&#45;utils -->
<g id="node30" class="node">
<title>iscsi&#45;initiator&#45;utils</title>
<text text-anchor="middle" x="1458.7" y="-96.3" font-family="monospace" font-size="14.00" fill="#000000">iscsi&#45;initiator&#45;utils</text>
</g>
<!-- iscsi&#45;initiator&#45;utils&#45;iscsiuio -->
<g id="node31" class="node">
<title>iscsi&#45;initiator&#45;utils&#45;iscsiuio</title>
<text text-anchor="middle" x="1155.6" y="-96.3" font-family="monospace" font-size="14.00" fill="#000000">iscsi&#45;initiator&#45;utils&#45;iscsiuio</text>
</g>
<!-- isns&#45;utils&#45;libs -->
<g id="node32" class="node">
<title>isns&#45;utils&#45;libs</title>
<text text-anchor="middle" x="1762.5" y="-96.3" font-family="monospace" font-size="14.00" fill="#000000">isns&#45;utils&#45;libs</text>
</g>
<!-- libnl3&#45;cli -->
<g id="node33" class="node">
<title>libnl3&#45;cli</title>
<text text-anchor="middle" x="948.62" y="-350.26" font-family="monospace" font-size="14.00" fill="#000000">libnl3&#45;cli</text>
</g>
<!-- libproxy -->
<g id="node34" class="node">
<title>libproxy</title>
<text text-anchor="middle" x="836.25" y="-834.3" font-family="monospace" font-size="14.00" fill="#000000">libproxy</text>
</g>
<!-- libmodman -->
<g id="node35" class="node">
<title>libmodman</title>
<text text-anchor="middle" x="715.14" y="-834.3" font-family="monospace" font-size="14.00" fill="#000000">libmodman</text>
</g>
<!-- libpsl -->
<g id="node36" class="node">
<title>libpsl</title>
<text text-anchor="middle" x="591.43" y="-79.839" font-family="monospace" font-size="14.00" fill="#000000">libpsl</text>
</g>
<!-- publicsuffix&#45;list&#45;dafsa -->
<g id="node37" class="node">
<title>publicsuffix&#45;list&#45;dafsa</title>
<text text-anchor="middle" x="519.4" y="-14.3" font-family="monospace" font-size="14.00" fill="#000000">publicsuffix&#45;list&#45;dafsa</text>
</g>
<!-- libteam -->
<g id="node38" class="node">
<title>libteam</title>
<text text-anchor="middle" x="930.65" y="-411.3" font-family="monospace" font-size="14.00" fill="#000000">libteam</text>
</g>
<!-- mariadb&#45;common -->
<g id="node39" class="node">
<title>mariadb&#45;common</title>
<text text-anchor="middle" x="450.37" y="-782.38" font-family="monospace" font-size="14.00" fill="#000000">mariadb&#45;common</text>
</g>
<!-- mariadb&#45;config -->
<g id="node40" class="node">
<title>mariadb&#45;config</title>
<text text-anchor="middle" x="496.03" y="-694.62" font-family="monospace" font-size="14.00" fill="#000000">mariadb&#45;config</text>
</g>
<!-- mariadb&#45;libs -->
<g id="node41" class="node">
<title>mariadb&#45;libs</title>
<text text-anchor="middle" x="281.07" y="-778.12" font-family="monospace" font-size="14.00" fill="#000000">mariadb&#45;libs</text>
</g>
<!-- net&#45;snmp&#45;agent&#45;libs -->
<g id="node42" class="node">
<title>net&#45;snmp&#45;agent&#45;libs</title>
<text text-anchor="middle" x="118.95" y="-656.84" font-family="monospace" font-size="14.00" fill="#000000">net&#45;snmp&#45;agent&#45;libs</text>
</g>
<!-- net&#45;snmp&#45;libs -->
<g id="node43" class="node">
<title>net&#45;snmp&#45;libs</title>
<text text-anchor="middle" x="80.593" y="-700.88" font-family="monospace" font-size="14.00" fill="#000000">net&#45;snmp&#45;libs</text>
</g>
<!-- net&#45;snmp -->
<g id="node44" class="node">
<title>net&#45;snmp</title>
<text text-anchor="middle" x="143.67" y="-744.92" font-family="monospace" font-size="14.00" fill="#000000">net&#45;snmp</text>
</g>
<!-- NetworkManager -->
<g id="node45" class="node">
<title>NetworkManager</title>
<text text-anchor="middle" x="654.48" y="-223.74" font-family="monospace" font-size="14.00" fill="#000000">NetworkManager</text>
</g>
<!-- jansson -->
<g id="node46" class="node">
<title>jansson</title>
<text text-anchor="middle" x="796.41" y="-262.58" font-family="monospace" font-size="14.00" fill="#000000">jansson</text>
</g>
<!-- libndp -->
<g id="node47" class="node">
<title>libndp</title>
<text text-anchor="middle" x="685.28" y="-116.61" font-family="monospace" font-size="14.00" fill="#000000">libndp</text>
</g>
<!-- NetworkManager&#45;libnm -->
<g id="node48" class="node">
<title>NetworkManager&#45;libnm</title>
<text text-anchor="middle" x="764.22" y="-165.07" font-family="monospace" font-size="14.00" fill="#000000">NetworkManager&#45;libnm</text>
</g>
<!-- polkit&#45;libs -->
<g id="node49" class="node">
<title>polkit&#45;libs</title>
<text text-anchor="middle" x="491.09" y="-187.16" font-family="monospace" font-size="14.00" fill="#000000">polkit&#45;libs</text>
</g>
<!-- libselinux&#45;python3 -->
<g id="node50" class="node">
<title>libselinux&#45;python3</title>
<text text-anchor="middle" x="845.24" y="-1161.6" font-family="monospace" font-size="14.00" fill="#000000">libselinux&#45;python3</text>
</g>
<!-- realmd -->
<g id="node51" class="node">
<title>realmd</title>
<text text-anchor="middle" x="365.7" y="-175.77" font-family="monospace" font-size="14.00" fill="#000000">realmd</text>
</g>
<!-- teamd -->
<g id="node52" class="node">
<title>teamd</title>
<text text-anchor="middle" x="836.88" y="-367.26" font-family="monospace" font-size="14.00" fill="#000000">teamd</text>
</g>
<!-- libdaemon -->
<g id="node53" class="node">
<title>libdaemon</title>
<text text-anchor="middle" x="795.42" y="-478" font-family="monospace" font-size="14.00" fill="#000000">libdaemon</text>
</g>
</g>
</svg>
