<?xml version="1.0" encoding="UTF-8" standalone="no"?>
<!DOCTYPE svg PUBLIC "-//W3C//DTD SVG 1.1//EN"
 "http://www.w3.org/Graphics/SVG/1.1/DTD/svg11.dtd">
<!-- Generated by graphviz version 2.40.1 (20161225.0304)
 -->
<!-- Title: G Pages: 1 -->
<svg width="2106pt" height="1177pt"
 viewBox="0.00 0.00 2105.73 1176.88" xmlns="http://www.w3.org/2000/svg" xmlns:xlink="http://www.w3.org/1999/xlink">
<g id="graph0" class="graph" transform="scale(1 1) rotate(0) translate(136.7018 1031.4364)">
<title>G</title>
<polygon fill="#dae2ff" stroke="transparent" points="-136.7018,145.4476 -136.7018,-1031.4364 1969.0331,-1031.4364 1969.0331,145.4476 -136.7018,145.4476"/>
<polygon fill="#fdd9a7" stroke="#fdd9a7" points="30.1327,-368.8449 26.079,-370.4088 24.0564,-372.9074 -126.3018,-421.3689 -132.0517,-407.6812 -131.8042,-340.5188 -132.7018,-315.384 -69.455,-255.7108 17.541,-221.6479 35.4812,-214.2164 49.7842,-207.3375 49.9514,-207.2497 57.0645,-207.1614 63.152,-206.9783 71.4121,-206.5839 78.5067,-207.271 82.645,-208.0379 190.8849,-180.0123 191.028,-205.5524 191.028,-205.5524 190.8849,-180.0123 207.0112,-175.2076 206.5944,-186.5919 206.5944,-186.5919 207.0112,-175.2076 208.0921,-174.844 216.9254,-171.5251 231.829,-165.3371 234.4651,-167.2488 241.7216,-172.1521 242.6297,-172.7214 256.6125,-181.1547 263.9034,-185.1956 275.1071,-191.1316 274.9244,-261.4181 273.4248,-293.7148 269.1031,-323.3549 275.1799,-326.8668 276.0769,-327.8728 274.1165,-330.1778 269.3802,-332.8104 265.1397,-332.8104 265.1397,-332.8104 269.3802,-332.8104 274.1165,-330.1778 276.0769,-327.8728 279.8145,-327.8728 280.5592,-327.6591 284.4502,-327.6591 285.2196,-327.8774 290.1213,-327.8774 290.6711,-328.0305 294.1089,-328.0305 294.1089,-328.0305 290.6711,-328.0305 290.1213,-327.8774 285.2196,-327.8774 284.4502,-327.6591 280.5592,-327.6591 279.8145,-327.8728 276.0769,-327.8728 275.1799,-326.8668 269.1031,-323.3549 273.4248,-293.7148 274.9244,-261.4181 275.1071,-191.1316 288.5282,-197.2551 296.1595,-200.3616 308.2554,-204.6957 319.394,-208.1401 335.6659,-211.9784 353.4184,-214.8605 368.8868,-216.9888 370.0564,-218.5275 385.1332,-239.6137 421.9817,-299.4092 469.6065,-302.5905 469.6901,-334.4828 467.0805,-365.7435 453.4511,-368.4903 402.8196,-365.7846 396.4283,-385.3539 393.4751,-393.2063 380.5536,-397.3044 380.8492,-404.2285 380.8492,-404.2285 380.5536,-397.3044 393.4751,-393.2063 396.4283,-385.3539 402.8196,-365.7846 453.4511,-368.4903 467.0805,-365.7435 469.6901,-334.4828 469.6065,-302.5905 469.6644,-302.5896 472.0649,-302.6537 482.9288,-302.4962 484.8248,-302.628 493.4308,-302.5158 496.6105,-302.3433 501.6579,-302.4923 502.6822,-302.3964 507.0936,-302.168 509.0088,-302.1488 515.1318,-302.6005 524.1233,-302.5229 524.303,-302.5288 526.3587,-302.4282 533.0042,-302.3806 534.3572,-302.2597 540.665,-302.2237 546.8658,-302.7086 550.2078,-302.6944 552.7596,-302.5786 558.6436,-302.5579 559.175,-302.5782 563.6997,-302.3801 575.4673,-301.3806 575.8453,-301.3331 593.4411,-297.6658 601.5267,-294.9941 650.8994,-313.6184 651.6186,-313.9186 655.4948,-315.6949 672.0999,-324.7017 682.8981,-331.8861 689.608,-336.6233 691.4362,-337.9872 695.3896,-341.0991 699.7254,-344.8789 700.626,-356.0238 703.3043,-380.2406 715.5297,-452.4983 766.0236,-498.0053 755.8958,-512.2488 731.9721,-543.5129 708.4343,-577.9409 698.842,-582.2075 656.2332,-603.1322 654.2615,-603.981 652.3496,-604.6915 642.8092,-607.6865 637.7471,-608.974 623.4531,-610.9247 622.0646,-611.0308 620.8393,-611.0521 614.5314,-610.7879 614.1167,-610.7963 612.0342,-610.9687 607.1671,-611.0826 605.9957,-611.0406 603.3983,-610.7929 606.2682,-559.7095 606.8702,-559.0013 605.9027,-557.8215 605.9027,-557.8215 606.8702,-559.0013 606.2682,-559.7095 603.3983,-610.7929 598.4372,-610.6302 597.4605,-610.6588 594.6882,-610.5765 591.534,-610.6785 590.9432,-610.7344 586.4987,-610.8914 586.0944,-610.9309 578.9658,-610.7828 574.2254,-610.98 571.4906,-610.9316 559.7773,-609.3322 505.4189,-598.7127 493.0249,-580.7356 470.2631,-550.1545 444.3747,-559.6902 442.8853,-560.1913 439.0615,-561.2393 422.6234,-565.2366 420.9017,-565.6005 405.9775,-567.8184 386.6048,-570.0831 376.6381,-571.8405 363.4244,-574.5621 358.1267,-575.9623 349.284,-578.8209 347.863,-579.3219 345.1618,-524.0789 339.7617,-475.3088 345.7477,-478.7737 350.7953,-478.7737 355.3402,-476.185 357.0895,-474.1196 355.5074,-472.3629 351.375,-470.114 345.6005,-470.114 345.6005,-470.114 351.375,-470.114 355.5074,-472.3629 357.0895,-474.1196 355.3402,-476.185 350.7953,-478.7737 345.7477,-478.7737 339.7617,-475.3088 345.1618,-524.0789 347.863,-579.3219 336.8871,-583.8524 329.3314,-587.1959 317.7491,-593.0105 300.3666,-602.7649 275.6147,-617.3508 267.3919,-621.9478 207.0982,-580.843 146.1314,-521.8472 90.1305,-530.7028 65.4194,-520.0541 50.662,-514.0203 45.9749,-512.418 34.4304,-508.7254 22.9915,-505.3223 -32.7774,-491.2408 -121.3331,-433.9086 -126.3018,-421.3689 24.0564,-372.9074 26.079,-370.4088 30.1327,-368.8449 30.9253,-368.2044 33.6099,-368.2044 34.8775,-369.6632 40.0159,-372.6142 45.1597,-372.6142 45.1597,-372.6142 40.0159,-372.6142 34.8775,-369.6632 33.6099,-368.2044 30.9253,-368.2044 30.1327,-368.8449 30.1327,-368.8449"/>
<polygon fill="#c5e2ce" stroke="#c5e2ce" points="1425.6072,-520.2074 1417.8218,-585.3038 1415.1473,-619.3655 1267.4309,-602.4202 1264.045,-598.9462 1261.3323,-598.1104 1259.499,-596.7714 1258.0377,-596.7714 1256.8107,-595.3623 1251.7507,-592.4209 1251.7507,-592.4209 1256.8107,-595.3623 1258.0377,-596.7714 1259.499,-596.7714 1261.3323,-598.1104 1264.045,-598.9462 1267.4309,-602.4202 1415.1473,-619.3655 1414.8688,-624.1932 1377.3236,-689.4433 1318.229,-736.5994 1268.2942,-713.1306 1251.0242,-706.0444 1238.5751,-702.0695 1231.595,-700.0536 1229.762,-699.5803 1185.4512,-689.4792 1181.5198,-688.4641 1173.5193,-686.1548 1171.2976,-685.4464 1158.7456,-681.0608 1155.0748,-679.5575 1139.3964,-672.657 1122.7786,-664.3594 1092.8638,-717.6535 1087.4052,-729.3632 1074.7761,-759.5909 1072.0409,-761.4922 1071.8154,-761.6357 1070.6173,-762.3312 1063.0084,-766.3386 1013.7862,-789.555 998.0145,-797.8948 994.0637,-800.4052 991.2991,-802.3141 988.9982,-804.0331 977.6068,-813.2103 961.1086,-828.3763 959.8367,-829.4089 932.3721,-855.6957 928.9561,-858.8132 840.6121,-809.0588 874.6563,-733.9956 887.1324,-699.7872 891.415,-686.1583 900.8644,-660.276 910.009,-638.0475 925.1608,-604.6396 895.1176,-558.4402 856.2717,-501.9803 856.0939,-501.7424 845.5523,-500.8178 838.1741,-500.4082 833.6147,-500.2285 826.9331,-500.3954 813.6979,-500.5117 804.9959,-500.1654 803.6609,-500.1769 794.3254,-500.1063 793.2871,-500.0816 777.8164,-499.2135 771.1282,-498.622 766.0236,-498.0053 715.5297,-452.4983 703.3043,-380.2406 700.626,-356.0238 699.7254,-344.8789 707.421,-337.62 749.1887,-337.62 777.9442,-339.232 804.7153,-343.9399 809.9376,-340.4044 811.8954,-337.4552 811.4041,-337.0991 810.3265,-335.4957 810.3265,-335.4957 811.4041,-337.0991 811.8954,-337.4552 809.9376,-340.4044 804.7153,-343.9399 777.9442,-339.232 749.1887,-337.62 707.421,-337.62 711.6935,-332.7495 711.8306,-332.6016 767.6718,-275.5767 806.4178,-284.1035 817.5272,-285.2816 824.8453,-285.2194 827.028,-285.4729 835.9786,-285.4823 836.017,-285.4779 839.8721,-285.2783 844.9501,-285.3325 848.3004,-285.1752 852.4307,-285.2388 853.3135,-285.3072 857.8,-285.1413 858.3688,-285.0877 865.6943,-285.3052 967.4667,-282.5058 969.1627,-301.4601 969.3496,-304.5323 969.8567,-320.3563 972.5672,-350.1887 973.9799,-373.2971 976.2574,-398.7496 1016.0029,-412.322 1025.915,-415.1389 1034.5046,-417.0884 1036.1589,-417.4165 1040.7977,-522.7451 1035.1082,-519.4235 1030.0421,-519.4235 1030.0421,-519.4235 1035.1082,-519.4235 1040.7977,-522.7451 1036.1589,-417.4165 1052.2014,-420.1407 1074.4136,-422.6304 1085.4751,-424.17 1101.8751,-427.7875 1108.7913,-429.4981 1111.9561,-430.45 1120.9305,-433.6389 1127.3063,-436.0778 1134.3994,-438.9832 1151.0382,-446.7016 1167.1049,-455.8882 1174.6294,-460.5944 1177.7307,-462.7026 1187.3815,-460.9783 1187.8425,-460.9049 1199.1517,-459.5436 1215.796,-458.187 1216.6582,-458.1504 1225.6274,-457.9433 1232.5313,-458.0524 1240.051,-457.8605 1242.5215,-457.8935 1244.0989,-457.9452 1253.8862,-457.6597 1268.8068,-456.9159 1267.2524,-506.2115 1267.2524,-506.2115 1268.8068,-456.9159 1324.1731,-451.8734 1407.0548,-493.9607 1413.1155,-497.3868 1424.5001,-504.0437 1425.6072,-520.2074 1425.6072,-520.2074"/>
<polygon fill="#c5e2ce" stroke="#c5e2ce" points="1348.1843,-6.1146 1350.1647,-61 1359.5245,-151.2226 1324.1731,-178.5177 1254.0604,-187.2066 1234.9879,-189.1726 1226.0663,-189.7162 1220.5416,-189.9364 1213.6464,-189.9209 1210.1078,-190.0714 1197.163,-189.8037 1198.7546,-133.7344 1203.8219,-61.8105 1204.3541,-61.1908 1203.4481,-60.0904 1203.4481,-60.0904 1204.3541,-61.1908 1203.8219,-61.8105 1198.7546,-133.7344 1197.163,-189.8037 1193.5363,-189.891 1192.8885,-189.8793 1191.9642,-189.8833 1187.3844,-190.0057 1185.4078,-190.1028 1180.5129,-190.2401 1179.5127,-190.2471 1170.1412,-189.9174 1167.7628,-189.7836 1160.167,-189.5268 1155.7767,-189.286 1150.5525,-193.4993 1134.6682,-204.1836 1129.4495,-207.3432 1120.1986,-212.6373 1111.0532,-217.5605 1103.1284,-221.0255 1095.9186,-223.7027 1080.7554,-228.8326 1079.8783,-229.0697 1035.282,-239.649 1024.5221,-242.9215 1017.6776,-245.2296 1013.4702,-246.9271 1012.6019,-247.3066 995.2102,-255.5068 981.3149,-263.4411 976.716,-266.3694 971.4904,-270.0516 960.7639,-256.5209 950.8885,-244.7036 928.7284,-214.0808 896.3632,-164.6193 879.8458,-141.6905 865.3662,-124.3635 892.8314,-105.8068 902.9327,-99.9422 905.1497,-98.7619 906.5239,-98.0948 914.146,-94.7445 923.516,-91.0632 967.8387,-75.7676 978.0572,-71.3357 990.4764,-64.8483 996.2576,-61.3249 998.201,-60.0548 1007.4708,-53.5774 1020.9501,-42.9536 1026.5907,-38.2683 1028.017,-37.0235 1031.6132,-33.5654 1035.043,-30.4474 1042.0536,-23.777 1052.2307,-14.5787 1055.3094,6.1126 1062.5774,48.2845 1144.6449,83.9969 1175.0475,81.3506 1187.9006,80.7514 1208.6493,80.625 1209.1782,80.6432 1214.2887,81.0258 1316.9528,50.3158 1348.1843,-6.1146 1348.1843,-6.1146"/>
<polygon fill="#ebd1cb" stroke="#ebd1cb" points="765.4944,-132.3257 762.09,-131.3881 735.5139,-124.7433 715.4116,-92.6617 683.0582,-31.3255 653.0369,16.4661 642.1684,32.7581 631.0119,50.2731 712.5632,112.0018 761.13,133.9152 776.3895,141.4476 781.8461,139.7181 792.1258,136.8332 811.6092,132.768 818.1785,131.6353 825.5364,130.6317 857.0318,126.903 873.1822,128.4591 896.1656,121.3978 897.1727,121.1332 909.6046,118.4114 920.7083,116.2253 974.7739,107.9773 1062.5774,48.2845 1055.3094,6.1126 1052.2307,-14.5787 1042.0536,-23.777 1035.043,-30.4474 1031.6132,-33.5654 1028.017,-37.0235 1026.5907,-38.2683 1020.9501,-42.9536 1007.4708,-53.5774 998.201,-60.0548 996.2576,-61.3249 990.4764,-64.8483 978.0572,-71.3357 967.8387,-75.7676 923.516,-91.0632 914.146,-94.7445 906.5239,-98.0948 905.1497,-98.7619 902.9327,-99.9422 892.8314,-105.8068 865.3662,-124.3635 860.0336,-123.762 857.0318,-123.2596 846.2007,-124.6951 842.0955,-125.0151 833.7363,-125.4397 827.3755,-125.5896 822.5357,-125.4403 822.2653,-125.4387 803.5782,-126.2719 801.7735,-126.3976 784.3316,-128.9297 782.477,-129.3386 767.6718,-132.9809 765.4944,-132.3257 765.4944,-132.3257"/>
<polygon fill="#d1e2cd" stroke="#d1e2cd" points="969.3496,-304.5323 969.1627,-301.4601 967.4667,-282.5058 971.4904,-270.0516 976.716,-266.3694 981.3149,-263.4411 995.2102,-255.5068 1012.6019,-247.3066 1013.4702,-246.9271 1017.6776,-245.2296 1024.5221,-242.9215 1035.282,-239.649 1079.8783,-229.0697 1080.7554,-228.8326 1095.9186,-223.7027 1103.1284,-221.0255 1111.0532,-217.5605 1120.1986,-212.6373 1129.4495,-207.3432 1134.6682,-204.1836 1150.5525,-193.4993 1155.7767,-189.286 1160.167,-189.5268 1167.7628,-189.7836 1170.1412,-189.9174 1179.5127,-190.2471 1180.5129,-190.2401 1185.4078,-190.1028 1187.3844,-190.0057 1191.9642,-189.8833 1192.8885,-189.8793 1193.5363,-189.891 1197.163,-189.8037 1210.1078,-190.0714 1213.6464,-189.9209 1220.5416,-189.9364 1226.0663,-189.7162 1234.9879,-189.1726 1254.0604,-187.2066 1324.1731,-178.5177 1359.5245,-151.2226 1407.1613,-165.5938 1410.3597,-166.4406 1430.0016,-170.9231 1444.6953,-173.4604 1448.2555,-173.9432 1456.3679,-174.8935 1456.4646,-174.903 1466.1155,-175.6771 1486.1058,-176.1735 1495.1056,-175.8982 1496.954,-175.8076 1502.9175,-175.4049 1509.7434,-174.818 1512.1666,-175.3625 1528.1034,-178.0323 1623.7242,-192.2162 1671.3492,-163.1409 1716.4967,-172.1353 1730.1069,-174.588 1735.069,-175.3867 1742.9017,-176.4968 1744.1654,-176.6515 1756.5867,-177.6955 1763.4257,-178.0073 1776.6505,-178.3556 1785.5706,-178.0756 1786.6171,-178.0227 1800.4087,-177.0587 1809.6219,-175.8827 1821.5513,-180.5273 1918.0946,-215.958 1929.1534,-223.6109 1948.4161,-283.6111 1965.0331,-331.6682 1960.3762,-337.9986 1887.0571,-446.705 1839.1902,-466.7874 1838.4154,-466.7913 1809.129,-459.6669 1807.0137,-459.1951 1787.6055,-455.6454 1788.4646,-414.1871 1784.8507,-318.8192 1780.7087,-318.8192 1780.5278,-318.7683 1776.2062,-219.3031 1774.9924,-317.1622 1776.4371,-318.7683 1774.8544,-320.6223 1769.7566,-323.5527 1764.7852,-323.5527 1760.84,-321.4103 1758.6935,-318.8857 1754.4631,-318.8857 1753.9023,-318.725 1750.312,-318.725 1750.312,-318.725 1753.9023,-318.725 1754.4631,-318.8857 1758.6935,-318.8857 1760.84,-321.4103 1764.7852,-323.5527 1769.7566,-323.5527 1774.8544,-320.6223 1776.4371,-318.7683 1774.9924,-317.1622 1776.2062,-219.3031 1780.5278,-318.7683 1780.7087,-318.8192 1784.8507,-318.8192 1788.4646,-414.1871 1787.6055,-455.6454 1776.3553,-454.2716 1770.0293,-453.882 1751.3969,-453.11 1749.4115,-453.108 1748.2588,-453.1534 1733.9171,-454.0088 1728.6451,-454.4298 1723.1782,-453.2 1685.6692,-446.3413 1650.6556,-436.3456 1623.7242,-425.2383 1598.1993,-436.0164 1521.8978,-456.3741 1508.208,-460.8878 1501.0254,-463.4054 1491.7476,-466.8492 1483.8942,-470.2519 1473.7467,-475.0742 1462.4979,-480.654 1447.7252,-488.8993 1428.3583,-501.3278 1424.5001,-504.0437 1413.1155,-497.3868 1407.0548,-493.9607 1324.1731,-451.8734 1268.8068,-456.9159 1253.8862,-457.6597 1244.0989,-457.9452 1242.5215,-457.8935 1240.051,-457.8605 1232.5313,-458.0524 1225.6274,-457.9433 1216.6582,-458.1504 1215.796,-458.187 1199.1517,-459.5436 1187.8425,-460.9049 1187.3815,-460.9783 1177.7307,-462.7026 1174.6294,-460.5944 1167.1049,-455.8882 1151.0382,-446.7016 1134.3994,-438.9832 1127.3063,-436.0778 1127.8392,-319.0915 1132.0751,-319.0915 1132.1052,-319.1 1135.1262,-355.888 1138.7906,-319.1023 1141.8303,-319.1023 1141.9323,-319.1309 1147.7993,-319.1309 1147.931,-319.0924 1151.8684,-319.0924 1153.1199,-320.5414 1158.5283,-323.6498 1162.9423,-323.6498 1162.9423,-323.6498 1158.5283,-323.6498 1153.1199,-320.5414 1151.8684,-319.0924 1147.931,-319.0924 1147.7993,-319.1309 1141.9323,-319.1309 1141.8303,-319.1023 1138.7906,-319.1023 1135.1262,-355.888 1132.1052,-319.1 1132.0751,-319.0915 1127.8392,-319.0915 1127.3063,-436.0778 1120.9305,-433.6389 1111.9561,-430.45 1108.7913,-429.4981 1101.8751,-427.7875 1085.4751,-424.17 1074.4136,-422.6304 1052.2014,-420.1407 1036.1589,-417.4165 1034.5046,-417.0884 1025.915,-415.1389 1016.0029,-412.322 976.2574,-398.7496 973.9799,-373.2971 972.5672,-350.1887 969.8567,-320.3563 969.3496,-304.5323 969.3496,-304.5323"/>
<polygon fill="#b6d1df" stroke="#b6d1df" points="378.543,-110.4288 355.4818,-104 244.3869,-104 257.1167,-9.3969 291.6468,13.2753 324.4584,28.5075 366.2274,29.3519 392.0174,30.3879 392.6141,30.4474 407.0878,32.1807 419.8195,34.2113 425.5799,35.3578 427.43,35.7996 434.4284,34.0447 467.3557,27.1168 493.6029,27.3532 503.4052,27.6581 507.3571,27.8682 517.081,28.5999 550.7535,32.6186 579.951,43.156 596.2705,49.7775 602.8663,49.3483 609.5983,49.2884 617.2368,49.5063 624.827,49.865 631.0119,50.2731 642.1684,32.7581 653.0369,16.4661 683.0582,-31.3255 715.4116,-92.6617 735.5139,-124.7433 728.5653,-129.4004 710.2048,-142.5768 705.6315,-145.4536 691.8517,-153.523 690.2097,-154.3347 676.0136,-160.7318 670.8925,-162.5714 661.1181,-165.2153 657.7637,-165.9719 650.9041,-167.2129 645.7645,-167.9119 627.0129,-169.6206 625.1291,-169.9742 615.1049,-172.3505 615.4069,-105.2775 616.5661,-103.8972 616.0417,-103.2867 609.811,-99.4816 604.8394,-99.4816 604.8394,-99.4816 609.811,-99.4816 616.0417,-103.2867 616.5661,-103.8972 615.4069,-105.2775 615.1049,-172.3505 606.8251,-174.7153 602.5176,-176.1515 601.5267,-176.5784 598.5482,-175.5651 588.368,-172.5851 580.0518,-170.556 560.4843,-166.7446 550.7535,-164.3987 548.6927,-165.003 539.315,-166.8977 532.96,-167.8904 531.004,-168.1062 517.8702,-168.3628 516.8141,-168.2871 510.959,-168.1532 508.0753,-168.2277 507.7817,-168.2219 506.7483,-168.2519 503.0156,-168.1905 502.9138,-168.1938 499.9261,-168.1541 489.5568,-168.5224 484.2321,-168.2271 480.8645,-167.888 478.747,-167.5786 467.3557,-165.3922 438.6243,-173.7742 431.0435,-176.3249 422.9712,-179.7633 408.02,-187.4899 391.5275,-198.2219 390.9901,-198.5943 381.2889,-206.1816 368.8868,-216.9888 353.4184,-214.8605 335.6659,-211.9784 319.394,-208.1401 308.2554,-204.6957 296.1595,-200.3616 288.5282,-197.2551 275.1071,-191.1316 263.9034,-185.1956 256.6125,-181.1547 242.6297,-172.7214 241.7216,-172.1521 234.4651,-167.2488 231.829,-165.3371 244.3869,-104 355.4818,-104 378.543,-110.4288 383.7932,-107.4621 386.2488,-104.0852 386.3705,-104.0022 387.9817,-104.0022 391.0049,-151.5854 394.0611,-103.9511 398.8556,-103.9511 399.1581,-104.3677 402.9459,-107.3634 408.3227,-108.8402 408.3227,-108.8402 402.9459,-107.3634 399.1581,-104.3677 398.8556,-103.9511 394.0611,-103.9511 391.0049,-151.5854 387.9817,-104.0022 386.3705,-104.0022 386.2488,-104.0852 383.7932,-107.4621 378.543,-110.4288 378.543,-110.4288"/>
<polygon fill="#fbb4ae" stroke="#fbb4ae" points="385.1332,-239.6137 370.0564,-218.5275 368.8868,-216.9888 381.2889,-206.1816 390.9901,-198.5943 391.5275,-198.2219 408.02,-187.4899 422.9712,-179.7633 431.0435,-176.3249 438.6243,-173.7742 467.3557,-165.3922 478.747,-167.5786 480.8645,-167.888 484.2321,-168.2271 489.5568,-168.5224 499.9261,-168.1541 502.9138,-168.1938 503.0156,-168.1905 506.7483,-168.2519 507.7817,-168.2219 508.0753,-168.2277 510.959,-168.1532 516.8141,-168.2871 517.8702,-168.3628 531.004,-168.1062 532.96,-167.8904 539.315,-166.8977 548.6927,-165.003 550.7535,-164.3987 560.4843,-166.7446 580.0518,-170.556 588.368,-172.5851 598.5482,-175.5651 601.5267,-176.5784 602.5176,-176.1515 606.8251,-174.7153 615.1049,-172.3505 625.1291,-169.9742 627.0129,-169.6206 645.7645,-167.9119 650.9041,-167.2129 657.7637,-165.9719 661.1181,-165.2153 670.8925,-162.5714 676.0136,-160.7318 690.2097,-154.3347 691.8517,-153.523 705.6315,-145.4536 710.2048,-142.5768 728.5653,-129.4004 735.5139,-124.7433 762.09,-131.3881 765.4944,-132.3257 767.6718,-132.9809 782.477,-129.3386 784.3316,-128.9297 801.7735,-126.3976 803.5782,-126.2719 822.2653,-125.4387 822.5357,-125.4403 827.3755,-125.5896 833.7363,-125.4397 842.0955,-125.0151 846.2007,-124.6951 857.0318,-123.2596 860.0336,-123.762 865.3662,-124.3635 879.8458,-141.6905 896.3632,-164.6193 928.7284,-214.0808 950.8885,-244.7036 960.7639,-256.5209 971.4904,-270.0516 967.4667,-282.5058 865.6943,-285.3052 858.3688,-285.0877 857.8,-285.1413 853.3135,-285.3072 852.4307,-285.2388 848.3004,-285.1752 844.9501,-285.3325 839.8721,-285.2783 836.017,-285.4779 835.9786,-285.4823 827.028,-285.4729 824.8453,-285.2194 817.5272,-285.2816 806.4178,-284.1035 767.6718,-275.5767 711.8306,-332.6016 711.6935,-332.7495 707.421,-337.62 699.7254,-344.8789 695.3896,-341.0991 691.4362,-337.9872 689.608,-336.6233 682.8981,-331.8861 672.0999,-324.7017 655.4948,-315.6949 651.6186,-313.9186 650.8994,-313.6184 601.5267,-294.9941 593.4411,-297.6658 575.8453,-301.3331 575.4673,-301.3806 563.6997,-302.3801 559.175,-302.5782 558.6436,-302.5579 552.7596,-302.5786 550.2078,-302.6944 546.8658,-302.7086 540.665,-302.2237 534.3572,-302.2597 533.0042,-302.3806 526.3587,-302.4282 524.303,-302.5288 524.1233,-302.5229 515.1318,-302.6005 509.0088,-302.1488 507.0936,-302.168 502.6822,-302.3964 500.3465,-232.7553 505.491,-232.7553 505.5282,-232.7448 506.815,-232.7448 510.6938,-236.1539 510.6938,-236.1539 506.815,-232.7448 505.5282,-232.7448 505.491,-232.7553 500.3465,-232.7553 502.6822,-302.3964 501.6579,-302.4923 496.6105,-302.3433 493.4308,-302.5158 484.8248,-302.628 482.9288,-302.4962 472.0649,-302.6537 469.6644,-302.5896 469.6065,-302.5905 421.9817,-299.4092 385.1332,-239.6137 385.1332,-239.6137"/>
<polygon fill="#dbd0df" stroke="#dbd0df" points="280.479,-688.7662 279.2312,-681.6028 267.3919,-621.9478 275.6147,-617.3508 300.3666,-602.7649 317.7491,-593.0105 329.3314,-587.1959 336.8871,-583.8524 347.863,-579.3219 349.284,-578.8209 358.1267,-575.9623 363.4244,-574.5621 376.6381,-571.8405 386.6048,-570.0831 405.9775,-567.8184 420.9017,-565.6005 422.6234,-565.2366 439.0615,-561.2393 442.8853,-560.1913 444.3747,-559.6902 470.2631,-550.1545 493.0249,-580.7356 505.4189,-598.7127 559.7773,-609.3322 571.4906,-610.9316 574.2254,-610.98 578.0037,-663.039 578.2891,-663.1194 580.9969,-663.1194 581.6906,-662.9207 587.4556,-662.9207 587.8568,-699.5086 594.1955,-663.1494 596.2454,-663.1494 601.0887,-691.5792 603.467,-664.9778 608.1467,-667.6215 612.7728,-667.6215 612.7728,-667.6215 608.1467,-667.6215 603.467,-664.9778 601.0887,-691.5792 596.2454,-663.1494 594.1955,-663.1494 587.8568,-699.5086 587.4556,-662.9207 581.6906,-662.9207 580.9969,-663.1194 578.2891,-663.1194 578.0037,-663.039 574.2254,-610.98 578.9658,-610.7828 586.0944,-610.9309 586.4987,-610.8914 590.9432,-610.7344 591.534,-610.6785 594.6882,-610.5765 597.4605,-610.6588 598.4372,-610.6302 603.3983,-610.7929 605.9957,-611.0406 607.1671,-611.0826 612.0342,-610.9687 614.1167,-610.7963 614.5314,-610.7879 620.8393,-611.0521 622.0646,-611.0308 623.4531,-610.9247 637.7471,-608.974 642.8092,-607.6865 652.3496,-604.6915 654.2615,-603.981 656.2332,-603.1322 698.842,-582.2075 708.4343,-577.9409 731.9721,-543.5129 755.8958,-512.2488 766.0236,-498.0053 771.1282,-498.622 777.8164,-499.2135 793.2871,-500.0816 794.3254,-500.1063 803.6609,-500.1769 804.9959,-500.1654 813.6979,-500.5117 826.9331,-500.3954 833.6147,-500.2285 838.1741,-500.4082 845.5523,-500.8178 856.0939,-501.7424 856.2717,-501.9803 895.1176,-558.4402 925.1608,-604.6396 910.009,-638.0475 900.8644,-660.276 891.415,-686.1583 887.1324,-699.7872 874.6563,-733.9956 840.6121,-809.0588 822.3002,-809.556 808.6708,-810.4194 797.396,-811.7462 780.5574,-814.3388 772.564,-815.8572 754.0984,-820.7067 743.8317,-821.5895 718.0834,-824.2354 708.4343,-818.931 655.3282,-808.5173 650.2587,-807.7185 639.0113,-806.1621 629.8318,-805.4214 614.4678,-804.7719 604.5949,-804.7348 587.5329,-805.6568 573.7634,-807.1967 564.2573,-808.6257 555.1175,-810.175 505.4189,-819.5474 481.4833,-833.819 456.0367,-830.3144 436.6042,-827.9728 432.879,-827.6535 414.7784,-826.7282 339.808,-826.7952 299.4912,-806.9113 297.0744,-799.369 280.479,-688.7662 410.9169,-668.5457 414.2592,-719.4027 416.9093,-662.9341 420.7908,-662.9341 422.24,-664.6805 426.9224,-667.416 426.9224,-667.416 422.24,-664.6805 420.7908,-662.9341 416.9093,-662.9341 414.2592,-719.4027 410.9169,-668.5457 280.479,-688.7662 280.479,-688.7662"/>
<polygon fill="#d2c2cc" stroke="#d2c2cc" points="1093.6879,-834.903 1088.8773,-832.068 1088.8773,-832.068 1093.6879,-834.903 1094.8218,-836.2722 1092.8899,-838.7191 1098.6602,-873.915 1099.5752,-887.1036 1101.0044,-885.8318 1107.5713,-880.7294 1107.9972,-880.3347 1111.0779,-876.2743 1111.0779,-876.2743 1107.9972,-880.3347 1107.5713,-880.7294 1101.0044,-885.8318 1099.5752,-887.1036 1098.6602,-873.915 1092.8899,-838.7191 1094.8218,-836.2722 1093.6879,-834.903 1095.7355,-784.6095 1085.6344,-773.8176 1074.7761,-759.5909 1087.4052,-729.3632 1092.8638,-717.6535 1122.7786,-664.3594 1139.3964,-672.657 1155.0748,-679.5575 1158.7456,-681.0608 1171.2976,-685.4464 1167.8531,-788.3712 1163.3337,-787.0895 1163.3337,-787.0895 1167.8531,-788.3712 1171.2976,-685.4464 1173.5193,-686.1548 1181.5198,-688.4641 1185.4512,-689.4792 1229.762,-699.5803 1231.595,-700.0536 1238.5751,-702.0695 1251.0242,-706.0444 1268.2942,-713.1306 1318.229,-736.5994 1316.4131,-751.8286 1310.7192,-811.3308 1309.3655,-840.282 1318.8094,-880.49 1338.9124,-946.0386 1326.2028,-970.5959 1178.141,-1024.3853 1172.7069,-1026.7345 1166.6686,-1026.5424 1154.4779,-1026.6323 1149.0829,-1026.7781 1134.9639,-1027.4364 1132.5947,-1026.5419 1074.2173,-1005.7985 1042.5007,-975.8828 967.4102,-944.8349 928.9561,-858.8132 932.3721,-855.6957 959.8367,-829.4089 961.1086,-828.3763 977.6068,-813.2103 988.9982,-804.0331 991.2991,-802.3141 994.0637,-800.4052 998.0145,-797.8948 1013.7862,-789.555 1063.0084,-766.3386 1070.6173,-762.3312 1071.8154,-761.6357 1072.0409,-761.4922 1074.7761,-759.5909 1085.6344,-773.8176 1095.7355,-784.6095 1093.6879,-834.903 1093.6879,-834.903"/>
<polyline fill="none" stroke="#000000" points="534.3572,-302.2597 540.665,-302.2237 546.8658,-302.7086 550.2078,-302.6944 552.7596,-302.5786 558.6436,-302.5579 559.175,-302.5782 563.6997,-302.3801 575.4673,-301.3806 575.8453,-301.3331 593.4411,-297.6658 601.5267,-294.9941 650.8994,-313.6184 651.6186,-313.9186 655.4948,-315.6949 672.0999,-324.7017 682.8981,-331.8861 689.608,-336.6233 691.4362,-337.9872 695.3896,-341.0991 699.7254,-344.8789 700.626,-356.0238 703.3043,-380.2406 715.5297,-452.4983 766.0236,-498.0053 755.8958,-512.2488 731.9721,-543.5129 708.4343,-577.9409 698.842,-582.2075 656.2332,-603.1322 654.2615,-603.981 652.3496,-604.6915 642.8092,-607.6865 637.7471,-608.974 623.4531,-610.9247 622.0646,-611.0308 620.8393,-611.0521 614.5314,-610.7879 614.1167,-610.7963 612.0342,-610.9687 607.1671,-611.0826 605.9957,-611.0406 603.3983,-610.7929 598.4372,-610.6302 597.4605,-610.6588 594.6882,-610.5765 591.534,-610.6785 590.9432,-610.7344 586.4987,-610.8914 586.0944,-610.9309 578.9658,-610.7828 574.2254,-610.98 571.4906,-610.9316 559.7773,-609.3322 505.4189,-598.7127 493.0249,-580.7356 470.2631,-550.1545 444.3747,-559.6902 442.8853,-560.1913 439.0615,-561.2393 422.6234,-565.2366 420.9017,-565.6005 405.9775,-567.8184 386.6048,-570.0831 376.6381,-571.8405 363.4244,-574.5621 358.1267,-575.9623 349.284,-578.8209 347.863,-579.3219 336.8871,-583.8524 329.3314,-587.1959 317.7491,-593.0105 300.3666,-602.7649 275.6147,-617.3508 267.3919,-621.9478 207.0982,-580.843 146.1314,-521.8472 90.1305,-530.7028 65.4194,-520.0541 50.662,-514.0203 45.9749,-512.418 34.4304,-508.7254 22.9915,-505.3223 -32.7774,-491.2408 -121.3331,-433.9086 -126.3018,-421.3689 -132.0517,-407.6812 -131.8042,-340.5188 -132.7018,-315.384 -69.455,-255.7108 17.541,-221.6479 35.4812,-214.2164 49.7842,-207.3375 49.9514,-207.2497 57.0645,-207.1614 63.152,-206.9783 71.4121,-206.5839 78.5067,-207.271 82.645,-208.0379 190.8849,-180.0123 207.0112,-175.2076 208.0921,-174.844 216.9254,-171.5251 231.829,-165.3371 234.4651,-167.2488 241.7216,-172.1521 242.6297,-172.7214 256.6125,-181.1547 263.9034,-185.1956 275.1071,-191.1316 288.5282,-197.2551 296.1595,-200.3616 308.2554,-204.6957 319.394,-208.1401 335.6659,-211.9784 353.4184,-214.8605 368.8868,-216.9888 370.0564,-218.5275 385.1332,-239.6137 421.9817,-299.4092 469.6065,-302.5905 469.6644,-302.5896 472.0649,-302.6537 482.9288,-302.4962 484.8248,-302.628 493.4308,-302.5158 496.6105,-302.3433 501.6579,-302.4923 502.6822,-302.3964 507.0936,-302.168 509.0088,-302.1488 515.1318,-302.6005 524.1233,-302.5229 524.303,-302.5288 526.3587,-302.4282 533.0042,-302.3806 534.3572,-302.2597 "/>
<polyline fill="none" stroke="#000000" points="838.1741,-500.4082 845.5523,-500.8178 856.0939,-501.7424 856.2717,-501.9803 895.1176,-558.4402 925.1608,-604.6396 910.009,-638.0475 900.8644,-660.276 891.415,-686.1583 887.1324,-699.7872 874.6563,-733.9956 840.6121,-809.0588 928.9561,-858.8132 932.3721,-855.6957 959.8367,-829.4089 961.1086,-828.3763 977.6068,-813.2103 988.9982,-804.0331 991.2991,-802.3141 994.0637,-800.4052 998.0145,-797.8948 1013.7862,-789.555 1063.0084,-766.3386 1070.6173,-762.3312 1071.8154,-761.6357 1072.0409,-761.4922 1074.7761,-759.5909 1087.4052,-729.3632 1092.8638,-717.6535 1122.7786,-664.3594 1139.3964,-672.657 1155.0748,-679.5575 1158.7456,-681.0608 1171.2976,-685.4464 1173.5193,-686.1548 1181.5198,-688.4641 1185.4512,-689.4792 1229.762,-699.5803 1231.595,-700.0536 1238.5751,-702.0695 1251.0242,-706.0444 1268.2942,-713.1306 1318.229,-736.5994 1377.3236,-689.4433 1414.8688,-624.1932 1415.1473,-619.3655 1417.8218,-585.3038 1425.6072,-520.2074 1424.5001,-504.0437 1413.1155,-497.3868 1407.0548,-493.9607 1324.1731,-451.8734 1268.8068,-456.9159 1253.8862,-457.6597 1244.0989,-457.9452 1242.5215,-457.8935 1240.051,-457.8605 1232.5313,-458.0524 1225.6274,-457.9433 1216.6582,-458.1504 1215.796,-458.187 1199.1517,-459.5436 1187.8425,-460.9049 1187.3815,-460.9783 1177.7307,-462.7026 1174.6294,-460.5944 1167.1049,-455.8882 1151.0382,-446.7016 1134.3994,-438.9832 1127.3063,-436.0778 1120.9305,-433.6389 1111.9561,-430.45 1108.7913,-429.4981 1101.8751,-427.7875 1085.4751,-424.17 1074.4136,-422.6304 1052.2014,-420.1407 1036.1589,-417.4165 1034.5046,-417.0884 1025.915,-415.1389 1016.0029,-412.322 976.2574,-398.7496 973.9799,-373.2971 972.5672,-350.1887 969.8567,-320.3563 969.3496,-304.5323 969.1627,-301.4601 967.4667,-282.5058 865.6943,-285.3052 858.3688,-285.0877 857.8,-285.1413 853.3135,-285.3072 852.4307,-285.2388 848.3004,-285.1752 844.9501,-285.3325 839.8721,-285.2783 836.017,-285.4779 835.9786,-285.4823 827.028,-285.4729 824.8453,-285.2194 817.5272,-285.2816 806.4178,-284.1035 767.6718,-275.5767 711.8306,-332.6016 711.6935,-332.7495 707.421,-337.62 699.7254,-344.8789 700.626,-356.0238 703.3043,-380.2406 715.5297,-452.4983 766.0236,-498.0053 771.1282,-498.622 777.8164,-499.2135 793.2871,-500.0816 794.3254,-500.1063 803.6609,-500.1769 804.9959,-500.1654 813.6979,-500.5117 826.9331,-500.3954 833.6147,-500.2285 838.1741,-500.4082 "/>
<polyline fill="none" stroke="#000000" points="1012.6019,-247.3066 1013.4702,-246.9271 1017.6776,-245.2296 1024.5221,-242.9215 1035.282,-239.649 1079.8783,-229.0697 1080.7554,-228.8326 1095.9186,-223.7027 1103.1284,-221.0255 1111.0532,-217.5605 1120.1986,-212.6373 1129.4495,-207.3432 1134.6682,-204.1836 1150.5525,-193.4993 1155.7767,-189.286 1160.167,-189.5268 1167.7628,-189.7836 1170.1412,-189.9174 1179.5127,-190.2471 1180.5129,-190.2401 1185.4078,-190.1028 1187.3844,-190.0057 1191.9642,-189.8833 1192.8885,-189.8793 1193.5363,-189.891 1197.163,-189.8037 1210.1078,-190.0714 1213.6464,-189.9209 1220.5416,-189.9364 1226.0663,-189.7162 1234.9879,-189.1726 1254.0604,-187.2066 1324.1731,-178.5177 1359.5245,-151.2226 1350.1647,-61 1348.1843,-6.1146 1316.9528,50.3158 1214.2887,81.0258 1209.1782,80.6432 1208.6493,80.625 1187.9006,80.7514 1175.0475,81.3506 1144.6449,83.9969 1062.5774,48.2845 1055.3094,6.1126 1052.2307,-14.5787 1042.0536,-23.777 1035.043,-30.4474 1031.6132,-33.5654 1028.017,-37.0235 1026.5907,-38.2683 1020.9501,-42.9536 1007.4708,-53.5774 998.201,-60.0548 996.2576,-61.3249 990.4764,-64.8483 978.0572,-71.3357 967.8387,-75.7676 923.516,-91.0632 914.146,-94.7445 906.5239,-98.0948 905.1497,-98.7619 902.9327,-99.9422 892.8314,-105.8068 865.3662,-124.3635 879.8458,-141.6905 896.3632,-164.6193 928.7284,-214.0808 950.8885,-244.7036 960.7639,-256.5209 971.4904,-270.0516 976.716,-266.3694 981.3149,-263.4411 995.2102,-255.5068 1012.6019,-247.3066 "/>
<polyline fill="none" stroke="#000000" points="892.8314,-105.8068 865.3662,-124.3635 860.0336,-123.762 857.0318,-123.2596 846.2007,-124.6951 842.0955,-125.0151 833.7363,-125.4397 827.3755,-125.5896 822.5357,-125.4403 822.2653,-125.4387 803.5782,-126.2719 801.7735,-126.3976 784.3316,-128.9297 782.477,-129.3386 767.6718,-132.9809 765.4944,-132.3257 762.09,-131.3881 735.5139,-124.7433 715.4116,-92.6617 683.0582,-31.3255 653.0369,16.4661 642.1684,32.7581 631.0119,50.2731 712.5632,112.0018 761.13,133.9152 776.3895,141.4476 781.8461,139.7181 792.1258,136.8332 811.6092,132.768 818.1785,131.6353 825.5364,130.6317 857.0318,126.903 873.1822,128.4591 896.1656,121.3978 897.1727,121.1332 909.6046,118.4114 920.7083,116.2253 974.7739,107.9773 1062.5774,48.2845 1055.3094,6.1126 1052.2307,-14.5787 1042.0536,-23.777 1035.043,-30.4474 1031.6132,-33.5654 1028.017,-37.0235 1026.5907,-38.2683 1020.9501,-42.9536 1007.4708,-53.5774 998.201,-60.0548 996.2576,-61.3249 990.4764,-64.8483 978.0572,-71.3357 967.8387,-75.7676 923.516,-91.0632 914.146,-94.7445 906.5239,-98.0948 905.1497,-98.7619 902.9327,-99.9422 892.8314,-105.8068 "/>
<polyline fill="none" stroke="#000000" points="1447.7252,-488.8993 1428.3583,-501.3278 1424.5001,-504.0437 1413.1155,-497.3868 1407.0548,-493.9607 1324.1731,-451.8734 1268.8068,-456.9159 1253.8862,-457.6597 1244.0989,-457.9452 1242.5215,-457.8935 1240.051,-457.8605 1232.5313,-458.0524 1225.6274,-457.9433 1216.6582,-458.1504 1215.796,-458.187 1199.1517,-459.5436 1187.8425,-460.9049 1187.3815,-460.9783 1177.7307,-462.7026 1174.6294,-460.5944 1167.1049,-455.8882 1151.0382,-446.7016 1134.3994,-438.9832 1127.3063,-436.0778 1120.9305,-433.6389 1111.9561,-430.45 1108.7913,-429.4981 1101.8751,-427.7875 1085.4751,-424.17 1074.4136,-422.6304 1052.2014,-420.1407 1036.1589,-417.4165 1034.5046,-417.0884 1025.915,-415.1389 1016.0029,-412.322 976.2574,-398.7496 973.9799,-373.2971 972.5672,-350.1887 969.8567,-320.3563 969.3496,-304.5323 969.1627,-301.4601 967.4667,-282.5058 971.4904,-270.0516 976.716,-266.3694 981.3149,-263.4411 995.2102,-255.5068 1012.6019,-247.3066 1013.4702,-246.9271 1017.6776,-245.2296 1024.5221,-242.9215 1035.282,-239.649 1079.8783,-229.0697 1080.7554,-228.8326 1095.9186,-223.7027 1103.1284,-221.0255 1111.0532,-217.5605 1120.1986,-212.6373 1129.4495,-207.3432 1134.6682,-204.1836 1150.5525,-193.4993 1155.7767,-189.286 1160.167,-189.5268 1167.7628,-189.7836 1170.1412,-189.9174 1179.5127,-190.2471 1180.5129,-190.2401 1185.4078,-190.1028 1187.3844,-190.0057 1191.9642,-189.8833 1192.8885,-189.8793 1193.5363,-189.891 1197.163,-189.8037 1210.1078,-190.0714 1213.6464,-189.9209 1220.5416,-189.9364 1226.0663,-189.7162 1234.9879,-189.1726 1254.0604,-187.2066 1324.1731,-178.5177 1359.5245,-151.2226 1407.1613,-165.5938 1410.3597,-166.4406 1430.0016,-170.9231 1444.6953,-173.4604 1448.2555,-173.9432 1456.3679,-174.8935 1456.4646,-174.903 1466.1155,-175.6771 1486.1058,-176.1735 1495.1056,-175.8982 1496.954,-175.8076 1502.9175,-175.4049 1509.7434,-174.818 1512.1666,-175.3625 1528.1034,-178.0323 1623.7242,-192.2162 1671.3492,-163.1409 1716.4967,-172.1353 1730.1069,-174.588 1735.069,-175.3867 1742.9017,-176.4968 1744.1654,-176.6515 1756.5867,-177.6955 1763.4257,-178.0073 1776.6505,-178.3556 1785.5706,-178.0756 1786.6171,-178.0227 1800.4087,-177.0587 1809.6219,-175.8827 1821.5513,-180.5273 1918.0946,-215.958 1929.1534,-223.6109 1948.4161,-283.6111 1965.0331,-331.6682 1960.3762,-337.9986 1887.0571,-446.705 1839.1902,-466.7874 1838.4154,-466.7913 1809.129,-459.6669 1807.0137,-459.1951 1787.6055,-455.6454 1776.3553,-454.2716 1770.0293,-453.882 1751.3969,-453.11 1749.4115,-453.108 1748.2588,-453.1534 1733.9171,-454.0088 1728.6451,-454.4298 1723.1782,-453.2 1685.6692,-446.3413 1650.6556,-436.3456 1623.7242,-425.2383 1598.1993,-436.0164 1521.8978,-456.3741 1508.208,-460.8878 1501.0254,-463.4054 1491.7476,-466.8492 1483.8942,-470.2519 1473.7467,-475.0742 1462.4979,-480.654 1447.7252,-488.8993 "/>
<polyline fill="none" stroke="#000000" points="503.0156,-168.1905 506.7483,-168.2519 507.7817,-168.2219 508.0753,-168.2277 510.959,-168.1532 516.8141,-168.2871 517.8702,-168.3628 531.004,-168.1062 532.96,-167.8904 539.315,-166.8977 548.6927,-165.003 550.7535,-164.3987 560.4843,-166.7446 580.0518,-170.556 588.368,-172.5851 598.5482,-175.5651 601.5267,-176.5784 602.5176,-176.1515 606.8251,-174.7153 615.1049,-172.3505 625.1291,-169.9742 627.0129,-169.6206 645.7645,-167.9119 650.9041,-167.2129 657.7637,-165.9719 661.1181,-165.2153 670.8925,-162.5714 676.0136,-160.7318 690.2097,-154.3347 691.8517,-153.523 705.6315,-145.4536 710.2048,-142.5768 728.5653,-129.4004 735.5139,-124.7433 715.4116,-92.6617 683.0582,-31.3255 653.0369,16.4661 642.1684,32.7581 631.0119,50.2731 624.827,49.865 617.2368,49.5063 609.5983,49.2884 602.8663,49.3483 596.2705,49.7775 579.951,43.156 550.7535,32.6186 517.081,28.5999 507.3571,27.8682 503.4052,27.6581 493.6029,27.3532 467.3557,27.1168 434.4284,34.0447 427.43,35.7996 425.5799,35.3578 419.8195,34.2113 407.0878,32.1807 392.6141,30.4474 392.0174,30.3879 366.2274,29.3519 324.4584,28.5075 291.6468,13.2753 257.1167,-9.3969 244.3869,-104 231.829,-165.3371 234.4651,-167.2488 241.7216,-172.1521 242.6297,-172.7214 256.6125,-181.1547 263.9034,-185.1956 275.1071,-191.1316 288.5282,-197.2551 296.1595,-200.3616 308.2554,-204.6957 319.394,-208.1401 335.6659,-211.9784 353.4184,-214.8605 368.8868,-216.9888 381.2889,-206.1816 390.9901,-198.5943 391.5275,-198.2219 408.02,-187.4899 422.9712,-179.7633 431.0435,-176.3249 438.6243,-173.7742 467.3557,-165.3922 478.747,-167.5786 480.8645,-167.888 484.2321,-168.2271 489.5568,-168.5224 499.9261,-168.1541 502.9138,-168.1938 503.0156,-168.1905 "/>
<polyline fill="none" stroke="#000000" points="682.8981,-331.8861 689.608,-336.6233 691.4362,-337.9872 695.3896,-341.0991 699.7254,-344.8789 707.421,-337.62 711.6935,-332.7495 711.8306,-332.6016 767.6718,-275.5767 806.4178,-284.1035 817.5272,-285.2816 824.8453,-285.2194 827.028,-285.4729 835.9786,-285.4823 836.017,-285.4779 839.8721,-285.2783 844.9501,-285.3325 848.3004,-285.1752 852.4307,-285.2388 853.3135,-285.3072 857.8,-285.1413 858.3688,-285.0877 865.6943,-285.3052 967.4667,-282.5058 971.4904,-270.0516 960.7639,-256.5209 950.8885,-244.7036 928.7284,-214.0808 896.3632,-164.6193 879.8458,-141.6905 865.3662,-124.3635 860.0336,-123.762 857.0318,-123.2596 846.2007,-124.6951 842.0955,-125.0151 833.7363,-125.4397 827.3755,-125.5896 822.5357,-125.4403 822.2653,-125.4387 803.5782,-126.2719 801.7735,-126.3976 784.3316,-128.9297 782.477,-129.3386 767.6718,-132.9809 765.4944,-132.3257 762.09,-131.3881 735.5139,-124.7433 728.5653,-129.4004 710.2048,-142.5768 705.6315,-145.4536 691.8517,-153.523 690.2097,-154.3347 676.0136,-160.7318 670.8925,-162.5714 661.1181,-165.2153 657.7637,-165.9719 650.9041,-167.2129 645.7645,-167.9119 627.0129,-169.6206 625.1291,-169.9742 615.1049,-172.3505 606.8251,-174.7153 602.5176,-176.1515 601.5267,-176.5784 598.5482,-175.5651 588.368,-172.5851 580.0518,-170.556 560.4843,-166.7446 550.7535,-164.3987 548.6927,-165.003 539.315,-166.8977 532.96,-167.8904 531.004,-168.1062 517.8702,-168.3628 516.8141,-168.2871 510.959,-168.1532 508.0753,-168.2277 507.7817,-168.2219 506.7483,-168.2519 503.0156,-168.1905 502.9138,-168.1938 499.9261,-168.1541 489.5568,-168.5224 484.2321,-168.2271 480.8645,-167.888 478.747,-167.5786 467.3557,-165.3922 438.6243,-173.7742 431.0435,-176.3249 422.9712,-179.7633 408.02,-187.4899 391.5275,-198.2219 390.9901,-198.5943 381.2889,-206.1816 368.8868,-216.9888 370.0564,-218.5275 385.1332,-239.6137 421.9817,-299.4092 469.6065,-302.5905 469.6644,-302.5896 472.0649,-302.6537 482.9288,-302.4962 484.8248,-302.628 493.4308,-302.5158 496.6105,-302.3433 501.6579,-302.4923 502.6822,-302.3964 507.0936,-302.168 509.0088,-302.1488 515.1318,-302.6005 524.1233,-302.5229 524.303,-302.5288 526.3587,-302.4282 533.0042,-302.3806 534.3572,-302.2597 540.665,-302.2237 546.8658,-302.7086 550.2078,-302.6944 552.7596,-302.5786 558.6436,-302.5579 559.175,-302.5782 563.6997,-302.3801 575.4673,-301.3806 575.8453,-301.3331 593.4411,-297.6658 601.5267,-294.9941 650.8994,-313.6184 651.6186,-313.9186 655.4948,-315.6949 672.0999,-324.7017 682.8981,-331.8861 "/>
<polyline fill="none" stroke="#000000" points="780.5574,-814.3388 797.396,-811.7462 808.6708,-810.4194 822.3002,-809.556 840.6121,-809.0588 874.6563,-733.9956 887.1324,-699.7872 891.415,-686.1583 900.8644,-660.276 910.009,-638.0475 925.1608,-604.6396 895.1176,-558.4402 856.2717,-501.9803 856.0939,-501.7424 845.5523,-500.8178 838.1741,-500.4082 833.6147,-500.2285 826.9331,-500.3954 813.6979,-500.5117 804.9959,-500.1654 803.6609,-500.1769 794.3254,-500.1063 793.2871,-500.0816 777.8164,-499.2135 771.1282,-498.622 766.0236,-498.0053 755.8958,-512.2488 731.9721,-543.5129 708.4343,-577.9409 698.842,-582.2075 656.2332,-603.1322 654.2615,-603.981 652.3496,-604.6915 642.8092,-607.6865 637.7471,-608.974 623.4531,-610.9247 622.0646,-611.0308 620.8393,-611.0521 614.5314,-610.7879 614.1167,-610.7963 612.0342,-610.9687 607.1671,-611.0826 605.9957,-611.0406 603.3983,-610.7929 598.4372,-610.6302 597.4605,-610.6588 594.6882,-610.5765 591.534,-610.6785 590.9432,-610.7344 586.4987,-610.8914 586.0944,-610.9309 578.9658,-610.7828 574.2254,-610.98 571.4906,-610.9316 559.7773,-609.3322 505.4189,-598.7127 493.0249,-580.7356 470.2631,-550.1545 444.3747,-559.6902 442.8853,-560.1913 439.0615,-561.2393 422.6234,-565.2366 420.9017,-565.6005 405.9775,-567.8184 386.6048,-570.0831 376.6381,-571.8405 363.4244,-574.5621 358.1267,-575.9623 349.284,-578.8209 347.863,-579.3219 336.8871,-583.8524 329.3314,-587.1959 317.7491,-593.0105 300.3666,-602.7649 275.6147,-617.3508 267.3919,-621.9478 279.2312,-681.6028 280.479,-688.7662 297.0744,-799.369 299.4912,-806.9113 339.808,-826.7952 414.7784,-826.7282 432.879,-827.6535 436.6042,-827.9728 456.0367,-830.3144 481.4833,-833.819 505.4189,-819.5474 555.1175,-810.175 564.2573,-808.6257 573.7634,-807.1967 587.5329,-805.6568 604.5949,-804.7348 614.4678,-804.7719 629.8318,-805.4214 639.0113,-806.1621 650.2587,-807.7185 655.3282,-808.5173 708.4343,-818.931 718.0834,-824.2354 743.8317,-821.5895 754.0984,-820.7067 772.564,-815.8572 780.5574,-814.3388 "/>
<polyline fill="none" stroke="#000000" points="1154.4779,-1026.6323 1166.6686,-1026.5424 1172.7069,-1026.7345 1178.141,-1024.3853 1326.2028,-970.5959 1338.9124,-946.0386 1318.8094,-880.49 1309.3655,-840.282 1310.7192,-811.3308 1316.4131,-751.8286 1318.229,-736.5994 1268.2942,-713.1306 1251.0242,-706.0444 1238.5751,-702.0695 1231.595,-700.0536 1229.762,-699.5803 1185.4512,-689.4792 1181.5198,-688.4641 1173.5193,-686.1548 1171.2976,-685.4464 1158.7456,-681.0608 1155.0748,-679.5575 1139.3964,-672.657 1122.7786,-664.3594 1092.8638,-717.6535 1087.4052,-729.3632 1074.7761,-759.5909 1072.0409,-761.4922 1071.8154,-761.6357 1070.6173,-762.3312 1063.0084,-766.3386 1013.7862,-789.555 998.0145,-797.8948 994.0637,-800.4052 991.2991,-802.3141 988.9982,-804.0331 977.6068,-813.2103 961.1086,-828.3763 959.8367,-829.4089 932.3721,-855.6957 928.9561,-858.8132 967.4102,-944.8349 1042.5007,-975.8828 1074.2173,-1005.7985 1132.5947,-1026.5419 1134.9639,-1027.4364 1149.0829,-1026.7781 1154.4779,-1026.6323 "/>
<!-- device&#45;mapper&#45;multipath&#45;&gt;device&#45;mapper&#45;multipath&#45;libs -->
<g id="edge1" class="edge">
<title>device&#45;mapper&#45;multipath&#45;&gt;device&#45;mapper&#45;multipath&#45;libs</title>
<path fill="none" stroke="#444444" stroke-opacity="0.333333" d="M423.3923,-354.0566C411.0079,-351.9966 398.3342,-349.8886 385.8252,-347.8079"/>
<polygon fill="#444444" fill-opacity="0.333333" stroke="#444444" stroke-opacity="0.333333" points="386.2761,-344.3349 375.8373,-346.1466 385.1275,-351.24 386.2761,-344.3349"/>
</g>
<!-- device&#45;mapper&#45;multipath&#45;&gt;kpartx -->
<g id="edge2" class="edge">
<title>device&#45;mapper&#45;multipath&#45;&gt;kpartx</title>
<path fill="none" stroke="#444444" stroke-opacity="0.333333" d="M538.2005,-390.3274C549.8164,-423.1869 574.313,-492.484 587.9978,-531.196"/>
<polygon fill="#444444" fill-opacity="0.333333" stroke="#444444" stroke-opacity="0.333333" points="584.7577,-532.5318 591.3905,-540.7935 591.3575,-530.1987 584.7577,-532.5318"/>
</g>
<!-- device&#45;mapper&#45;multipath&#45;&gt;userspace&#45;rcu -->
<g id="edge3" class="edge">
<title>device&#45;mapper&#45;multipath&#45;&gt;userspace&#45;rcu</title>
<path fill="none" stroke="#444444" stroke-opacity="0.333333" d="M499.3592,-390.1355C468.7873,-407.1771 422.8076,-432.8074 389.5918,-451.3227"/>
<polygon fill="#444444" fill-opacity="0.333333" stroke="#444444" stroke-opacity="0.333333" points="387.6156,-448.4172 380.5851,-456.3433 391.0239,-454.5314 387.6156,-448.4172"/>
</g>
<!-- device&#45;mapper&#45;multipath&#45;libs&#45;&gt;userspace&#45;rcu -->
<g id="edge4" class="edge">
<title>device&#45;mapper&#45;multipath&#45;libs&#45;&gt;userspace&#45;rcu</title>
<path fill="none" stroke="#444444" stroke-opacity="0.333333" d="M277.3137,-346.3144C291.3944,-371.7516 317.0319,-418.0661 333.3128,-447.4779"/>
<polygon fill="#444444" fill-opacity="0.333333" stroke="#444444" stroke-opacity="0.333333" points="330.3383,-449.3314 338.2435,-456.3854 336.4626,-445.9413 330.3383,-449.3314"/>
</g>
<!-- device&#45;mapper&#45;multipath&#45;libs&#45;&gt;libaio -->
<g id="edge5" class="edge">
<title>device&#45;mapper&#45;multipath&#45;libs&#45;&gt;libaio</title>
<path fill="none" stroke="#444444" stroke-opacity="0.333333" d="M166.214,-346.0817C142.0289,-350.3921 117.1451,-354.827 96.1204,-358.5741"/>
<polygon fill="#444444" fill-opacity="0.333333" stroke="#444444" stroke-opacity="0.333333" points="95.36,-355.1544 86.1292,-360.3548 96.5882,-362.0458 95.36,-355.1544"/>
</g>
<!-- fcoe&#45;utils&#45;&gt;device&#45;mapper&#45;multipath -->
<g id="edge6" class="edge">
<title>fcoe&#45;utils&#45;&gt;device&#45;mapper&#45;multipath</title>
<path fill="none" stroke="#444444" stroke-opacity="0.333333" d="M769.9553,-344.9703C742.4102,-348.1051 709.0743,-351.899 676.178,-355.6429"/>
<polygon fill="#444444" fill-opacity="0.333333" stroke="#444444" stroke-opacity="0.333333" points="675.5298,-352.194 665.9898,-356.8024 676.3214,-359.1491 675.5298,-352.194"/>
</g>
<!-- fcoe&#45;utils&#45;&gt;libpciaccess -->
<g id="edge7" class="edge">
<title>fcoe&#45;utils&#45;&gt;libpciaccess</title>
<path fill="none" stroke="#444444" stroke-opacity="0.333333" d="M850.8333,-319.2925C880.6734,-285.7269 944.1659,-214.3073 978.3574,-175.847"/>
<polygon fill="#444444" fill-opacity="0.333333" stroke="#444444" stroke-opacity="0.333333" points="981.1577,-177.9649 985.1861,-168.1657 975.9261,-173.3139 981.1577,-177.9649"/>
</g>
<!-- fcoe&#45;utils&#45;&gt;lldpad -->
<g id="edge8" class="edge">
<title>fcoe&#45;utils&#45;&gt;lldpad</title>
<path fill="none" stroke="#444444" stroke-opacity="0.333333" d="M853.8719,-355.8303C889.4252,-389.3207 965.2417,-460.7383 1005.6861,-498.8361"/>
<polygon fill="#444444" fill-opacity="0.333333" stroke="#444444" stroke-opacity="0.333333" points="1003.6019,-501.6811 1013.2809,-505.9902 1008.4017,-496.5858 1003.6019,-501.6811"/>
</g>
<!-- libpciaccess&#45;&gt;hwdata -->
<g id="edge9" class="edge">
<title>libpciaccess&#45;&gt;hwdata</title>
<path fill="none" stroke="#444444" stroke-opacity="0.333333" d="M1040.5386,-132.0214C1071.0562,-118.0075 1113.5689,-98.4855 1146.3011,-83.4546"/>
<polygon fill="#444444" fill-opacity="0.333333" stroke="#444444" stroke-opacity="0.333333" points="1148.0605,-86.4982 1155.6875,-79.1444 1145.1393,-80.1368 1148.0605,-86.4982"/>
</g>
<!-- lldpad&#45;&gt;libconfig -->
<g id="edge10" class="edge">
<title>lldpad&#45;&gt;libconfig</title>
<path fill="none" stroke="#444444" stroke-opacity="0.333333" d="M1027.902,-542.2355C1019.3604,-576.8647 1000.7409,-652.3511 990.5925,-693.4944"/>
<polygon fill="#444444" fill-opacity="0.333333" stroke="#444444" stroke-opacity="0.333333" points="987.1439,-692.8613 988.1471,-703.4085 993.9402,-694.5377 987.1439,-692.8613"/>
</g>
<!-- lldpad&#45;&gt;libnl3 -->
<g id="edge11" class="edge">
<title>lldpad&#45;&gt;libnl3</title>
<path fill="none" stroke="#444444" stroke-opacity="0.333333" d="M1075.6317,-538.5492C1110.2462,-550.1984 1158.9421,-566.5865 1195.8497,-579.0074"/>
<polygon fill="#444444" fill-opacity="0.333333" stroke="#444444" stroke-opacity="0.333333" points="1194.8492,-582.3635 1205.4433,-582.236 1197.082,-575.7291 1194.8492,-582.3635"/>
</g>
<!-- ipset&#45;&gt;ipset&#45;libs -->
<g id="edge12" class="edge">
<title>ipset&#45;&gt;ipset&#45;libs</title>
<path fill="none" stroke="#444444" stroke-opacity="0.333333" d="M867.8314,-18C867.6757,-18 867.5198,-18 867.3638,-18"/>
<polygon fill="#444444" fill-opacity="0.333333" stroke="#444444" stroke-opacity="0.333333" points="870.2225,-14.5001 860.2225,-18 870.2224,-21.5001 870.2225,-14.5001"/>
</g>
<!-- iscsi&#45;initiator&#45;utils&#45;&gt;iscsi&#45;initiator&#45;utils&#45;iscsiuio -->
<g id="edge13" class="edge">
<title>iscsi&#45;initiator&#45;utils&#45;&gt;iscsi&#45;initiator&#45;utils&#45;iscsiuio</title>
<path fill="none" stroke="#444444" stroke-opacity="0.333333" d="M1339.9805,-312.3522C1339.827,-312.3511 1339.6735,-312.3499 1339.52,-312.3488"/>
<polygon fill="#444444" fill-opacity="0.333333" stroke="#444444" stroke-opacity="0.333333" points="1342.6088,-308.8685 1332.5867,-312.3049 1342.5643,-315.8683 1342.6088,-308.8685"/>
</g>
<!-- iscsi&#45;initiator&#45;utils&#45;&gt;isns&#45;utils&#45;libs -->
<g id="edge14" class="edge">
<title>iscsi&#45;initiator&#45;utils&#45;&gt;isns&#45;utils&#45;libs</title>
<path fill="none" stroke="#444444" stroke-opacity="0.333333" d="M1587.2671,-319C1613.4003,-319 1640.6934,-319 1665.9028,-319"/>
<polygon fill="#444444" fill-opacity="0.333333" stroke="#444444" stroke-opacity="0.333333" points="1666.1956,-322.5001 1676.1955,-319 1666.1955,-315.5001 1666.1956,-322.5001"/>
</g>
<!-- iscsi&#45;initiator&#45;utils&#45;iscsiuio&#45;&gt;iscsi&#45;initiator&#45;utils -->
<g id="edge15" class="edge">
<title>iscsi&#45;initiator&#45;utils&#45;iscsiuio&#45;&gt;iscsi&#45;initiator&#45;utils</title>
<path fill="none" stroke="#444444" stroke-opacity="0.333333" d="M1332.5188,-325.6955C1332.6774,-325.6947 1332.8361,-325.6938 1332.9947,-325.6929"/>
<polygon fill="#444444" fill-opacity="0.333333" stroke="#444444" stroke-opacity="0.333333" points="1330.1315,-329.2117 1340.1086,-325.6468 1330.0861,-322.2118 1330.1315,-329.2117"/>
</g>
<!-- kbd&#45;&gt;kbd&#45;legacy -->
<g id="edge16" class="edge">
<title>kbd&#45;&gt;kbd&#45;legacy</title>
<path fill="none" stroke="#444444" stroke-opacity="0.333333" d="M480.5494,-104C480.3986,-104 480.2474,-104 480.0959,-104"/>
<polygon fill="#444444" fill-opacity="0.333333" stroke="#444444" stroke-opacity="0.333333" points="483.0708,-100.5001 473.0707,-104 483.0707,-107.5001 483.0708,-100.5001"/>
</g>
<!-- kbd&#45;&gt;kbd&#45;misc -->
<g id="edge17" class="edge">
<title>kbd&#45;&gt;kbd&#45;misc</title>
<path fill="none" stroke="#444444" stroke-opacity="0.333333" d="M534.9107,-104C537.4678,-104 540.1258,-104 542.8479,-104"/>
<polygon fill="#444444" fill-opacity="0.333333" stroke="#444444" stroke-opacity="0.333333" points="542.9191,-107.5001 552.9191,-104 542.919,-100.5001 542.9191,-107.5001"/>
</g>
<!-- kexec&#45;tools&#45;&gt;dracut&#45;network -->
<g id="edge18" class="edge">
<title>kexec&#45;tools&#45;&gt;dracut&#45;network</title>
<path fill="none" stroke="#444444" stroke-opacity="0.333333" d="M609.3911,-233C609.2339,-233 609.0767,-233 608.9194,-233"/>
<polygon fill="#444444" fill-opacity="0.333333" stroke="#444444" stroke-opacity="0.333333" points="611.8105,-229.5001 601.8104,-233 611.8104,-236.5001 611.8105,-229.5001"/>
</g>
<!-- kexec&#45;tools&#45;&gt;snappy -->
<g id="edge19" class="edge">
<title>kexec&#45;tools&#45;&gt;snappy</title>
<path fill="none" stroke="#444444" stroke-opacity="0.333333" d="M749.0554,-233C762.6356,-233 776.6643,-233 789.6033,-233"/>
<polygon fill="#444444" fill-opacity="0.333333" stroke="#444444" stroke-opacity="0.333333" points="789.7171,-236.5001 799.717,-233 789.717,-229.5001 789.7171,-236.5001"/>
</g>
<!-- libblockdev&#45;&gt;libblockdev&#45;utils -->
<g id="edge20" class="edge">
<title>libblockdev&#45;&gt;libblockdev&#45;utils</title>
<path fill="none" stroke="#444444" stroke-opacity="0.333333" d="M720.4149,-663C720.2547,-663 720.0943,-663 719.9339,-663"/>
<polygon fill="#444444" fill-opacity="0.333333" stroke="#444444" stroke-opacity="0.333333" points="722.6638,-659.5001 712.6637,-663 722.6637,-666.5001 722.6638,-659.5001"/>
</g>
<!-- libblockdev&#45;utils&#45;&gt;parted -->
<g id="edge21" class="edge">
<title>libblockdev&#45;utils&#45;&gt;parted</title>
<path fill="none" stroke="#444444" stroke-opacity="0.333333" d="M508.3302,-663C499.7836,-663 491.3815,-663 483.4371,-663"/>
<polygon fill="#444444" fill-opacity="0.333333" stroke="#444444" stroke-opacity="0.333333" points="483.2836,-659.5001 473.2835,-663 483.2835,-666.5001 483.2836,-659.5001"/>
</g>
<!-- passwd&#45;&gt;libuser -->
<g id="edge22" class="edge">
<title>passwd&#45;&gt;libuser</title>
<path fill="none" stroke="#444444" stroke-opacity="0.333333" d="M1162.9378,-862.1548C1162.8969,-850.0914 1162.8426,-834.0603 1162.7962,-820.368"/>
<polygon fill="#444444" fill-opacity="0.333333" stroke="#444444" stroke-opacity="0.333333" points="1166.295,-819.997 1162.7611,-810.0089 1159.2951,-820.0208 1166.295,-819.997"/>
</g>
<!-- usermode&#45;&gt;passwd -->
<g id="edge23" class="edge">
<title>usermode&#45;&gt;passwd</title>
<path fill="none" stroke="#444444" stroke-opacity="0.333333" d="M1117.7047,-854.6346C1119.2446,-855.5137 1120.7994,-856.4012 1122.3588,-857.2913"/>
<polygon fill="#444444" fill-opacity="0.333333" stroke="#444444" stroke-opacity="0.333333" points="1120.8486,-860.4593 1131.2684,-862.3771 1124.3188,-854.38 1120.8486,-860.4593"/>
</g>
<!-- usermode&#45;&gt;libuser -->
<g id="edge24" class="edge">
<title>usermode&#45;&gt;libuser</title>
<path fill="none" stroke="#444444" stroke-opacity="0.333333" d="M1117.1375,-818.3883C1118.8817,-817.3781 1120.6463,-816.3561 1122.4163,-815.331"/>
<polygon fill="#444444" fill-opacity="0.333333" stroke="#444444" stroke-opacity="0.333333" points="1124.3416,-818.2606 1131.2409,-810.2201 1120.8333,-812.2032 1124.3416,-818.2606"/>
</g>
<!-- device&#45;mapper&#45;multipath -->
<g id="node1" class="node">
<title>device&#45;mapper&#45;multipath</title>
<text text-anchor="middle" x="531.75" y="-368.38" font-family="monospace" font-size="14.00" fill="#000000">device&#45;mapper&#45;multipath</text>
</g>
<!-- device&#45;mapper&#45;multipath&#45;libs -->
<g id="node2" class="node">
<title>device&#45;mapper&#45;multipath&#45;libs</title>
<text text-anchor="middle" x="267.22" y="-324.38" font-family="monospace" font-size="14.00" fill="#000000">device&#45;mapper&#45;multipath&#45;libs</text>
</g>
<!-- kpartx -->
<g id="node3" class="node">
<title>kpartx</title>
<text text-anchor="middle" x="597.77" y="-555.14" font-family="monospace" font-size="14.00" fill="#000000">kpartx</text>
</g>
<!-- userspace&#45;rcu -->
<g id="node4" class="node">
<title>userspace&#45;rcu</title>
<text text-anchor="middle" x="348.21" y="-470.69" font-family="monospace" font-size="14.00" fill="#000000">userspace&#45;rcu</text>
</g>
<!-- libaio -->
<g id="node5" class="node">
<title>libaio</title>
<text text-anchor="middle" x="42.896" y="-364.36" font-family="monospace" font-size="14.00" fill="#000000">libaio</text>
</g>
<!-- fcoe&#45;utils -->
<g id="node6" class="node">
<title>fcoe&#45;utils</title>
<text text-anchor="middle" x="834.54" y="-333.92" font-family="monospace" font-size="14.00" fill="#000000">fcoe&#45;utils</text>
</g>
<!-- libpciaccess -->
<g id="node7" class="node">
<title>libpciaccess</title>
<text text-anchor="middle" x="1001.3" y="-146.34" font-family="monospace" font-size="14.00" fill="#000000">libpciaccess</text>
</g>
<!-- lldpad -->
<g id="node8" class="node">
<title>lldpad</title>
<text text-anchor="middle" x="1032.4" y="-520.3" font-family="monospace" font-size="14.00" fill="#000000">lldpad</text>
</g>
<!-- hwdata -->
<g id="node9" class="node">
<title>hwdata</title>
<text text-anchor="middle" x="1195.2" y="-57.3" font-family="monospace" font-size="14.00" fill="#000000">hwdata</text>
</g>
<!-- libconfig -->
<g id="node10" class="node">
<title>libconfig</title>
<text text-anchor="middle" x="983.66" y="-717.9" font-family="monospace" font-size="14.00" fill="#000000">libconfig</text>
</g>
<!-- libnl3 -->
<g id="node11" class="node">
<title>libnl3</title>
<text text-anchor="middle" x="1248.6" y="-593.06" font-family="monospace" font-size="14.00" fill="#000000">libnl3</text>
</g>
<!-- ipset -->
<g id="node12" class="node">
<title>ipset</title>
<text text-anchor="middle" x="905.4" y="-14.3" font-family="monospace" font-size="14.00" fill="#000000">ipset</text>
</g>
<!-- ipset&#45;libs -->
<g id="node13" class="node">
<title>ipset&#45;libs</title>
<text text-anchor="middle" x="795.34" y="-14.3" font-family="monospace" font-size="14.00" fill="#000000">ipset&#45;libs</text>
</g>
<!-- iscsi&#45;initiator&#45;utils -->
<g id="node14" class="node">
<title>iscsi&#45;initiator&#45;utils</title>
<text text-anchor="middle" x="1463.7" y="-315.3" font-family="monospace" font-size="14.00" fill="#000000">iscsi&#45;initiator&#45;utils</text>
</g>
<!-- iscsi&#45;initiator&#45;utils&#45;iscsiuio -->
<g id="node15" class="node">
<title>iscsi&#45;initiator&#45;utils&#45;iscsiuio</title>
<text text-anchor="middle" x="1160.6" y="-315.3" font-family="monospace" font-size="14.00" fill="#000000">iscsi&#45;initiator&#45;utils&#45;iscsiuio</text>
</g>
<!-- isns&#45;utils&#45;libs -->
<g id="node16" class="node">
<title>isns&#45;utils&#45;libs</title>
<text text-anchor="middle" x="1767.5" y="-315.3" font-family="monospace" font-size="14.00" fill="#000000">isns&#45;utils&#45;libs</text>
</g>
<!-- kbd -->
<g id="node17" class="node">
<title>kbd</title>
<text text-anchor="middle" x="507.7" y="-100.3" font-family="monospace" font-size="14.00" fill="#000000">kbd</text>
</g>
<!-- kbd&#45;legacy -->
<g id="node18" class="node">
<title>kbd&#45;legacy</title>
<text text-anchor="middle" x="408.34" y="-100.3" font-family="monospace" font-size="14.00" fill="#000000">kbd&#45;legacy</text>
</g>
<!-- kbd&#45;misc -->
<g id="node19" class="node">
<title>kbd&#45;misc</title>
<text text-anchor="middle" x="607.28" y="-100.3" font-family="monospace" font-size="14.00" fill="#000000">kbd&#45;misc</text>
</g>
<!-- kexec&#45;tools -->
<g id="node20" class="node">
<title>kexec&#45;tools</title>
<text text-anchor="middle" x="679.14" y="-229.3" font-family="monospace" font-size="14.00" fill="#000000">kexec&#45;tools</text>
</g>
<!-- dracut&#45;network -->
<g id="node21" class="node">
<title>dracut&#45;network</title>
<text text-anchor="middle" x="515.79" y="-229.3" font-family="monospace" font-size="14.00" fill="#000000">dracut&#45;network</text>
</g>
<!-- snappy -->
<g id="node22" class="node">
<title>snappy</title>
<text text-anchor="middle" x="842.88" y="-229.3" font-family="monospace" font-size="14.00" fill="#000000">snappy</text>
</g>
<!-- libblockdev -->
<g id="node23" class="node">
<title>libblockdev</title>
<text text-anchor="middle" x="790.11" y="-659.3" font-family="monospace" font-size="14.00" fill="#000000">libblockdev</text>
</g>
<!-- libblockdev&#45;utils -->
<g id="node24" class="node">
<title>libblockdev&#45;utils</title>
<text text-anchor="middle" x="610.51" y="-659.3" font-family="monospace" font-size="14.00" fill="#000000">libblockdev&#45;utils</text>
</g>
<!-- parted -->
<g id="node25" class="node">
<title>parted</title>
<text text-anchor="middle" x="429.9" y="-659.3" font-family="monospace" font-size="14.00" fill="#000000">parted</text>
</g>
<!-- passwd -->
<g id="node26" class="node">
<title>passwd</title>
<text text-anchor="middle" x="1163" y="-876.79" font-family="monospace" font-size="14.00" fill="#000000">passwd</text>
</g>
<!-- libuser -->
<g id="node27" class="node">
<title>libuser</title>
<text text-anchor="middle" x="1162.7" y="-788.3" font-family="monospace" font-size="14.00" fill="#000000">libuser</text>
</g>
<!-- usermode -->
<g id="node28" class="node">
<title>usermode</title>
<text text-anchor="middle" x="1085.9" y="-832.78" font-family="monospace" font-size="14.00" fill="#000000">usermode</text>
</g>
</g>
</svg>
