<?xml version="1.0" encoding="UTF-8" standalone="no"?>
<!DOCTYPE svg PUBLIC "-//W3C//DTD SVG 1.1//EN"
 "http://www.w3.org/Graphics/SVG/1.1/DTD/svg11.dtd">
<!-- Generated by graphviz version 2.40.1 (20161225.0304)
 -->
<!-- Title: G Pages: 1 -->
<svg width="2153pt" height="1670pt"
 viewBox="0.00 0.00 2152.72 1670.24" xmlns="http://www.w3.org/2000/svg" xmlns:xlink="http://www.w3.org/1999/xlink">
<g id="graph0" class="graph" transform="scale(1 1) rotate(0) translate(139.2122 1492.7987)">
<title>G</title>
<polygon fill="#dae2ff" stroke="transparent" points="-139.2122,177.4374 -139.2122,-1492.7987 2013.509,-1492.7987 2013.509,177.4374 -139.2122,177.4374"/>
<polygon fill="#fed9a6" stroke="#fed9a6" points="1698.1809,-728.6629 1694.587,-815.4081 1686.785,-934.3349 1685.0458,-935.6412 1683.3954,-935.6412 1682.9105,-936.1951 1682.9105,-936.1951 1683.3954,-935.6412 1682.7159,-934.8698 1676.6768,-931.2518 1676.6768,-931.2518 1682.7159,-934.8698 1683.3954,-935.6412 1685.0458,-935.6412 1686.785,-934.3349 1694.587,-815.4081 1698.1809,-728.6629 1675.3278,-717.6256 1655.7554,-707.2247 1602.2091,-676.2009 1595.0093,-680.2584 1514.0397,-685.5616 1480.5198,-714.378 1434.8783,-756.5332 1433.5806,-850.0616 1433.5806,-850.0616 1434.8783,-756.5332 1422.1798,-767.2661 1422.3199,-842.0138 1419.1787,-886.4396 1414.6361,-883.7554 1408.5006,-883.7554 1404.0251,-886.3796 1402.6929,-888.0099 1403.3922,-888.8877 1409.1527,-892.5366 1414.4388,-892.5366 1420.1987,-889.0851 1414.0364,-988.8281 1411.4644,-987.1349 1404.3226,-982.7341 1400.5966,-980.7489 1391.8165,-976.4271 1325.8348,-949.3358 1325.7083,-993.4173 1325.7083,-993.4173 1325.8348,-949.3358 1320.9761,-946.9416 1311.3992,-941.8206 1310.0698,-1002.4997 1305.9539,-1034.5806 1301.8485,-1032.2615 1295.8562,-1032.2615 1290.9408,-1035.072 1289.5107,-1036.7302 1289.9392,-1037.2346 1296.1937,-1041.1401 1296.1937,-1041.1401 1289.9392,-1037.2346 1289.5107,-1036.7302 1290.9408,-1035.072 1295.8562,-1032.2615 1301.8485,-1032.2615 1305.9539,-1034.5806 1310.0698,-1002.4997 1311.3992,-941.8206 1320.9761,-946.9416 1325.8348,-949.3358 1391.8165,-976.4271 1400.5966,-980.7489 1404.3226,-982.7341 1411.4644,-987.1349 1414.0364,-988.8281 1420.1987,-889.0851 1414.4388,-892.5366 1409.1527,-892.5366 1403.3922,-888.8877 1402.6929,-888.0099 1404.0251,-886.3796 1408.5006,-883.7554 1414.6361,-883.7554 1419.1787,-886.4396 1422.3199,-842.0138 1422.1798,-767.2661 1413.8783,-773.6223 1412.286,-774.9177 1397.5902,-785.6581 1391.4432,-789.6283 1391.2826,-799.7471 1391.2826,-799.7471 1391.4432,-789.6283 1304.9698,-838.3752 1294.3566,-845.2274 1281.1515,-855.4087 1280.8967,-855.6155 1262.924,-870.9797 1253.8009,-879.1332 1244.6122,-886.6158 1243.8762,-889.4479 1117.3728,-979.4948 1116.8534,-979.8781 1100.5359,-992.8111 1091.3483,-999.8256 1061.7474,-1023.889 1041.287,-1040.0265 1023.6331,-1064.2108 1016.6147,-1115.8405 1014.8858,-1127.5049 1004.3626,-1141.8136 1031.3187,-1289.3496 1033.6776,-1303.504 1041.3123,-1360.3055 1147.5531,-1462.3462 1204.1724,-1484.6694 1227.2878,-1485.1207 1228.7617,-1341.3976 1226.3734,-1305.2455 1232.1978,-1301.7078 1234.0747,-1299.0679 1236.1776,-1299.0679 1242.1918,-1378.7408 1243.548,-1413.3108 1247.8394,-1339.7573 1247.8394,-1339.7573 1243.548,-1413.3108 1242.1918,-1378.7408 1236.1776,-1299.0679 1234.0747,-1299.0679 1232.1978,-1301.7078 1226.3734,-1305.2455 1228.7617,-1341.3976 1227.2878,-1485.1207 1242.8546,-1485.8772 1262.238,-1487.9474 1262.7327,-1488.0073 1264.15,-1487.6987 1278.8823,-1484.9304 1283.8231,-1484.15 1298.5082,-1482.2682 1305.1498,-1481.5165 1308.3291,-1481.2991 1324.8486,-1480.6614 1339.269,-1480.5355 1338.182,-1387.9655 1334.2755,-1299.1827 1334.2755,-1299.1827 1338.182,-1387.9655 1339.269,-1480.5355 1347.8706,-1480.7174 1366.8506,-1481.6858 1355.0084,-1304.0636 1408.4731,-1315.405 1411.13,-1318.33 1420.9161,-1331.4064 1431.6161,-1346.9063 1431.6139,-1345.3486 1428.483,-1296.7819 1428.483,-1296.7819 1431.6139,-1345.3486 1431.6161,-1346.9063 1420.9161,-1331.4064 1411.13,-1318.33 1408.4731,-1315.405 1355.0084,-1304.0636 1366.8506,-1481.6858 1474.7957,-1488.7987 1487.7025,-1478.5709 1465.4313,-1417.1868 1459.0933,-1402.1302 1448.1589,-1378.6401 1447.588,-1324.4675 1449.6685,-1259.3624 1454.348,-1259.3624 1460.197,-1255.9161 1461.2579,-1254.7004 1459.4475,-1252.6708 1455.0125,-1250.2557 1449.4642,-1250.2557 1449.4642,-1250.2557 1455.0125,-1250.2557 1459.4475,-1252.6708 1461.2579,-1254.7004 1460.197,-1255.9161 1454.348,-1259.3624 1449.6685,-1259.3624 1447.588,-1324.4675 1448.1589,-1378.6401 1459.0933,-1402.1302 1465.4313,-1417.1868 1487.7025,-1478.5709 1492.7434,-1476.6272 1514.1946,-1469.8148 1670.0787,-1426.6715 1685.6068,-1394.8104 1703.4569,-1351.3875 1705.4498,-1262.1678 1706.6595,-1240.0076 1712.531,-1156.9061 1860.3101,-1068.3394 1872.7162,-1025.2064 1882.0355,-955.7393 1888.2744,-918.4055 1882.8873,-895.3751 1868.6426,-829.7487 1829.7104,-787.846 1698.1809,-728.6629 1698.1809,-728.6629"/>
<polygon fill="#fbb4ae" stroke="#fbb4ae" points="871.8562,-17.8347 872.5693,-17.0158 878.5517,-13.4484 883.4473,-13.4484 886.1882,18.2237 884.4385,169.0186 879.6746,169.0336 863.9483,169.5574 854.8912,169.9954 800.6034,173.4374 756.3726,143.5759 674.3293,60.6163 664.4265,-18 636.3284,-180.3595 642.1929,-211.7537 633.2582,-248.9556 815.8218,-253.7496 927.8143,-253.6063 933.006,-257.9677 933.8102,-259.3123 937.131,-259.3123 938.3099,-257.9687 943.146,-255.2113 949.2527,-255.2113 954.7717,-258.4821 955.4415,-259.255 958.8143,-259.255 959.8531,-259.5773 960.3246,-259.5773 960.3246,-259.5773 959.8531,-259.5773 958.8143,-259.255 955.4415,-259.255 954.7717,-258.4821 949.2527,-255.2113 943.146,-255.2113 938.3099,-257.9687 937.131,-259.3123 938.7288,-261.2564 943.347,-263.9729 948.9064,-263.9729 948.9064,-263.9729 943.347,-263.9729 938.7288,-261.2564 937.131,-259.3123 933.8102,-259.3123 933.006,-257.9677 927.8143,-253.6063 815.8218,-253.7496 633.2582,-248.9556 624.7654,-281.3648 614.9428,-317.3766 635.4479,-385.5872 649.94,-432.1317 685.7838,-447.4511 882.7007,-462.513 893.9019,-480.7463 904.942,-498.1265 907.7219,-502.1972 928.1641,-531.0604 948.1127,-558.0157 956.9888,-570.7509 966.646,-585.5696 1002.1106,-644.3229 1029.1249,-685.4822 1039.0945,-698.9536 1059.0315,-695.411 1067.2352,-694.3465 1067.2582,-573.2715 1072.7677,-576.5475 1077.6475,-576.5475 1084.1766,-572.5635 1084.5344,-572.1517 1087.0577,-572.1517 1087.0577,-572.1517 1084.5344,-572.1517 1084.1766,-572.5635 1077.6475,-576.5475 1072.7677,-576.5475 1067.2582,-573.2715 1067.2352,-694.3465 1068.8855,-694.1719 1079.3827,-693.3124 1094.6925,-692.7932 1096.511,-692.8188 1104.1384,-692.7421 1105.9231,-692.6379 1124.8855,-691.0715 1154.744,-687.888 1180.7218,-740.13 1203.6056,-801.0704 1211.6154,-820.2582 1244.6122,-886.6158 1253.8009,-879.1332 1262.924,-870.9797 1280.8967,-855.6155 1281.1515,-855.4087 1281.9077,-741.6136 1286.6995,-744.4141 1286.6995,-744.4141 1281.9077,-741.6136 1281.1515,-855.4087 1294.3566,-845.2274 1304.9698,-838.3752 1391.4432,-789.6283 1397.5902,-785.6581 1412.286,-774.9177 1413.8783,-773.6223 1422.1798,-767.2661 1434.8783,-756.5332 1480.5198,-714.378 1514.0397,-685.5616 1595.0093,-680.2584 1602.2091,-676.2009 1632.5759,-533.6561 1642.9127,-526.1218 1666.7976,-509.6206 1819.4487,-407.2173 1844.1941,-358.3773 1849.2029,-348.87 1846.408,-345.6282 1829.2124,-326.2331 1811.9293,-307.3337 1808.8906,-304.2329 1799.4644,-295.2664 1786.6215,-284.3531 1786.0909,-283.9204 1663.983,-299.6802 1652.4731,-297.3522 1652.4731,-297.3522 1663.983,-299.6802 1786.0909,-283.9204 1786.6215,-284.3531 1799.4644,-295.2664 1808.8906,-304.2329 1811.9293,-307.3337 1829.2124,-326.2331 1846.408,-345.6282 1849.2029,-348.87 1977.1002,-288.3578 1992.243,-271.9399 2009.509,-231.2271 2008.4121,-207.7151 2005.6025,-111.2875 2005.8868,-67.0469 1965.6724,6.9211 1833.8657,36.786 1819.3601,40.3124 1818.1478,40.6871 1797.3434,47.4684 1798.0293,-67.085 1795.5604,-139.5874 1790.9314,-138.2489 1790.9314,-138.2489 1795.5604,-139.5874 1798.0293,-67.085 1797.3434,47.4684 1788.6084,50.6037 1787.8491,50.3361 1769.8311,44.856 1762.7399,42.9295 1742.2628,38.0273 1618.9579,12.538 1558.1844,-57.2085 1549.2703,-87.3444 1546.6323,-95.7829 1386.0599,-224.3937 1391.0973,-285.6979 1570.6339,-300.0609 1585.2992,-305.9208 1588.1725,-304.9661 1589.6896,-303.8072 1588.0931,-301.3585 1588.0931,-301.3585 1589.6896,-303.8072 1588.1725,-304.9661 1585.2992,-305.9208 1570.6339,-300.0609 1391.0973,-285.6979 1386.0599,-224.3937 1206.6356,-134.4077 1199.1362,-130.5136 1195.847,-128.7476 1187.1504,-123.9242 1185.4421,-291.9994 1181.6295,-334.0634 1182.7285,-334.4026 1188.4236,-334.4026 1188.7827,-334.5099 1193.0381,-334.5099 1193.1342,-334.5378 1196.6731,-334.5378 1198.2216,-336.8767 1204.8829,-479.8537 1207.4551,-481.0784 1209.986,-482.3447 1224.1656,-468.7419 1357.2009,-334.8435 1357.6359,-334.39 1358.2831,-333.7907 1380.8773,-310.532 1387.8402,-302.9099 1391.4458,-298.7225 1391.4458,-298.7225 1387.8402,-302.9099 1387.3232,-442.0389 1390.3109,-493.7359 1384.197,-489.9712 1379.2284,-489.9712 1373.1353,-493.6313 1372.3451,-494.5395 1373.2445,-495.5645 1378.6899,-498.7827 1384.7727,-498.7827 1384.7727,-498.7827 1378.6899,-498.7827 1373.2445,-495.5645 1372.3451,-494.5395 1369.1387,-494.5395 1369.1387,-494.5395 1372.3451,-494.5395 1373.1353,-493.6313 1379.2284,-489.9712 1384.197,-489.9712 1390.3109,-493.7359 1387.3232,-442.0389 1387.8402,-302.9099 1380.8773,-310.532 1358.2831,-333.7907 1357.6359,-334.39 1357.2009,-334.8435 1224.1656,-468.7419 1209.986,-482.3447 1207.4551,-481.0784 1204.8829,-479.8537 1198.2216,-336.8767 1196.6731,-334.5378 1193.1342,-334.5378 1193.0381,-334.5099 1188.7827,-334.5099 1188.4236,-334.4026 1182.7285,-334.4026 1181.6295,-334.0634 1177.8354,-334.0634 1172.0939,-270.7687 1171.6298,-331.1881 1175.3673,-334.6156 1171.4889,-337.9985 1166.6477,-339.3803 1166.6477,-339.3803 1171.4889,-337.9985 1175.3673,-334.6156 1171.6298,-331.1881 1166.4033,-329.5979 1166.4033,-329.5979 1171.6298,-331.1881 1172.0939,-270.7687 1177.8354,-334.0634 1181.6295,-334.0634 1185.4421,-291.9994 1187.1504,-123.9242 1171.0305,-114.4123 1149.5847,-100.2366 1138.5619,-92.5658 1134.9569,-86.4358 1128.4701,-82.4338 1109.9232,-47.9586 1070.0962,31.5209 1039.7528,94.8963 943.638,171.9007 906.0443,169.7536 895.9863,169.3304 884.4385,169.0186 886.1882,18.2237 883.4473,-13.4484 878.5517,-13.4484 872.5693,-17.0158 871.8562,-17.8347 873.1378,-19.3606 878.1343,-22.3255 878.1343,-22.3255 873.1378,-19.3606 871.8562,-17.8347 871.8562,-17.8347"/>
<polygon fill="#d8d6da" stroke="#d8d6da" points="1211.6154,-820.2582 1203.6056,-801.0704 1180.7218,-740.13 1154.744,-687.888 1124.8855,-691.0715 1117.6896,-807.9003 1113.926,-811.3931 1112.8519,-810.4609 1107.3975,-808.8272 1107.3975,-808.8272 1112.8519,-810.4609 1113.926,-811.3931 1117.6896,-807.9003 1124.8855,-691.0715 1105.9231,-692.6379 1104.1384,-692.7421 1096.511,-692.8188 1094.6925,-692.7932 1079.3827,-693.3124 1068.8855,-694.1719 1067.2352,-694.3465 1059.0315,-695.411 1039.0945,-698.9536 1029.1249,-685.4822 1002.1106,-644.3229 966.646,-585.5696 956.9888,-570.7509 948.1127,-558.0157 928.1641,-531.0604 907.7219,-502.1972 904.942,-498.1265 893.9019,-480.7463 882.7007,-462.513 685.7838,-447.4511 649.94,-432.1317 619.9926,-472.4757 572.0808,-681.41 564.4138,-726.0996 556.6815,-766.5187 539.5892,-776.7392 408.7438,-851.9274 402.0462,-856.0785 393.0908,-894.3423 388.7599,-914.5811 385.803,-927.2343 371.1989,-984.8917 360.2024,-1025.4111 500.0901,-1130.4 545.501,-1123.4865 554.2775,-1122.2894 561.7159,-1121.3933 569.1288,-1120.6184 570.2666,-981.8114 574.0626,-941.1464 574.0193,-941.1335 574.0193,-941.1335 574.0626,-941.1464 570.2666,-981.8114 569.1288,-1120.6184 587.3904,-1119.2916 587.0677,-1042.5807 585.2637,-1013.6886 583.8991,-945.4289 589.4239,-945.4289 595.5728,-941.6576 595.7412,-941.4625 594.2675,-939.5983 589.371,-936.6289 584.0501,-936.6289 584.0501,-936.6289 589.371,-936.6289 594.2675,-939.5983 595.7412,-941.4625 595.5728,-941.6576 589.4239,-945.4289 583.8991,-945.4289 585.2637,-1013.6886 587.0677,-1042.5807 587.3904,-1119.2916 604.6434,-1119.1393 612.2781,-1119.3153 612.8979,-1040.4685 616.5437,-943.7571 614.916,-941.0865 616.0805,-940.1234 618.0102,-939.3819 621.7554,-935.4602 675.4429,-928.502 694.9614,-859.4983 715.0211,-859.9793 723.8411,-859.9495 727.3489,-860.1301 731.0389,-860.2189 736.7136,-860.0438 737.3879,-804.5924 734.7576,-753.1479 734.7576,-753.1479 737.3879,-804.5924 736.7136,-860.0438 731.0389,-860.2189 727.3489,-860.1301 723.8411,-859.9495 715.0211,-859.9793 694.9614,-859.4983 675.4429,-928.502 621.7554,-935.4602 618.0102,-939.3819 616.0805,-940.1234 614.916,-941.0865 616.5437,-943.7571 621.5447,-947.4005 629.596,-1108.5853 664.9012,-983.7704 719.5479,-972.6631 723.423,-1035.957 725.3072,-1151.2201 731.8174,-1006.8427 737.0709,-967.2573 736.3553,-967.0433 736.3553,-967.0433 737.0709,-967.2573 731.8174,-1006.8427 725.3072,-1151.2201 723.423,-1035.957 719.5479,-972.6631 664.9012,-983.7704 629.596,-1108.5853 621.5447,-947.4005 616.5437,-943.7571 612.8979,-1040.4685 612.2781,-1119.3153 626.5495,-1120.0997 725.2238,-1157.0222 748.4763,-1167.3362 753.8322,-1169.8027 764.2409,-1175.132 766.6573,-1176.4955 787.3547,-1172.4187 791.3579,-1171.7437 1004.3626,-1141.8136 1014.8858,-1127.5049 1016.6147,-1115.8405 1023.6331,-1064.2108 1041.287,-1040.0265 1033.9669,-838.1626 970.8181,-823.2402 969.4542,-862.5482 964.2957,-818.1688 959.9321,-818.1688 959.8442,-818.1434 954.8622,-818.1434 954.8406,-818.1497 950.2251,-818.1497 950.1555,-818.1705 944.1271,-818.1705 943.9203,-818.1062 938.441,-818.1062 938.0914,-817.9979 936.6996,-817.9979 933.2686,-814.8695 927.57,-813.1288 922.2939,-814.6711 918.6216,-817.822 918.2809,-817.822 912.8435,-774.7938 911.5495,-818.0301 906.8282,-818.0301 904.2089,-880.2139 900.5833,-817.804 896.1367,-817.804 894.8627,-818.1804 892.5691,-818.1804 890.9016,-816.8896 890.9016,-816.8896 892.5691,-818.1804 894.8627,-818.1804 896.1367,-817.804 900.5833,-817.804 904.2089,-880.2139 906.8282,-818.0301 905.9269,-817.7544 900.7505,-817.7544 903.6727,-743.8616 899.3834,-743.6202 897.2757,-743.5895 897.6481,-675.277 828.2039,-682.2459 869.7555,-741.1394 818.3939,-747.881 799.836,-746.7345 799.836,-746.7345 818.3939,-747.881 869.7555,-741.1394 828.2039,-682.2459 897.6481,-675.277 897.2757,-743.5895 899.3834,-743.6202 903.6727,-743.8616 900.7505,-817.7544 905.9269,-817.7544 906.8282,-818.0301 911.5495,-818.0301 912.8435,-774.7938 918.2809,-817.822 918.6216,-817.822 922.2939,-814.6711 924.9755,-743.6819 915.1617,-743.5243 915.0836,-739.7264 919.4161,-675.6447 914.9978,-671.5356 915.8387,-667.7961 914.0598,-666.2587 908.622,-664.6566 908.622,-664.6566 914.0598,-666.2587 915.8387,-667.7961 914.9978,-671.5356 919.4161,-675.6447 915.0836,-739.7264 915.1617,-743.5243 924.9755,-743.6819 922.2939,-814.6711 927.57,-813.1288 933.2686,-814.8695 936.6996,-817.9979 938.0914,-817.9979 938.441,-818.1062 943.9203,-818.1062 944.1271,-818.1705 950.1555,-818.1705 950.2251,-818.1497 954.8406,-818.1497 954.8622,-818.1434 959.8442,-818.1434 959.9321,-818.1688 964.2957,-818.1688 969.4542,-862.5482 970.8181,-823.2402 1033.9669,-838.1626 1041.287,-1040.0265 1061.7474,-1023.889 1091.3483,-999.8256 1100.5359,-992.8111 1116.8534,-979.8781 1117.3728,-979.4948 1243.8762,-889.4479 1244.6122,-886.6158 1211.6154,-820.2582 1211.6154,-820.2582"/>
<polygon fill="#bbd7d9" stroke="#bbd7d9" points="-56.0221,-802.3687 -50.494,-851.4783 -49.4224,-864.9359 -44.375,-944.8864 24.9179,-1002.9015 140.8531,-1049.1815 147.0747,-1051.8778 165.2853,-1060.7205 165.3801,-1000.4445 165.3801,-1000.4445 165.2853,-1060.7205 174.9856,-1065.7645 181.1973,-1069.101 181.623,-898.1008 184.7377,-860.9185 189.8147,-859.4562 193.5335,-856.2601 189.8123,-852.8508 189.8123,-852.8508 193.5335,-856.2601 189.8147,-859.4562 184.7377,-860.9185 181.623,-898.1008 181.1973,-1069.101 187.8447,-1072.9005 193.6564,-1076.3228 199.0406,-1074.1215 215.9298,-1067.9657 215.4456,-1018.9639 215.4456,-1018.9639 215.9298,-1067.9657 232.0114,-1062.5825 360.2024,-1025.4111 371.1989,-984.8917 385.803,-927.2343 388.7599,-914.5811 393.0908,-894.3423 402.0462,-856.0785 408.7438,-851.9274 405.5112,-721.507 407.5921,-687.6066 478.9673,-681.41 425.2585,-679.0786 407.6196,-674.9926 407.6196,-674.9926 425.2585,-679.0786 478.9673,-681.41 407.5921,-687.6066 405.5112,-721.507 408.7438,-851.9274 539.5892,-776.7392 556.6815,-766.5187 564.4138,-726.0996 572.0808,-681.41 619.9926,-472.4757 649.94,-432.1317 635.4479,-385.5872 614.9428,-317.3766 330.0176,-280.0357 319.9431,-278.399 311.324,-276.8636 304.6394,-275.5682 296.7048,-273.9068 292.8504,-273.0398 289.5178,-272.4746 285.2637,-271.6238 266.5474,-267.0179 262.8923,-266.0068 247.4274,-261.4917 248.8452,-378.542 243.9745,-456.3611 244.7776,-456.5941 249.2081,-456.5941 249.2681,-456.6116 249.2681,-456.6116 249.2081,-456.5941 244.7776,-456.5941 243.9745,-456.3611 248.8452,-378.542 247.4274,-261.4917 239.0901,-258.6767 238.8786,-258.5988 224.646,-261.3814 203.0133,-264.6848 205.3456,-342.3895 209.0173,-409.7552 208.392,-455.3865 209.048,-456.5728 33.0042,-457.3416 45.3899,-468.4369 49.3076,-472.0852 57.5927,-479.5312 69.9196,-490.201 82.4726,-500.2114 98.2966,-511.2212 110.5566,-518.9085 110.6967,-518.9915 113.3033,-520.4454 126.8331,-527.0949 133.3943,-530.0955 138.111,-532.0905 154.7586,-538.0062 155.6911,-538.2731 158.2897,-627.5024 258.6837,-601.3698 247.0664,-646.7481 242.7959,-670.1489 233.7238,-705.6721 332.1575,-686.7945 335.1784,-683.4663 337.6534,-682.5591 339.1813,-681.3155 338.4663,-680.1843 338.4663,-680.1843 339.1813,-681.3155 342.8461,-681.3155 342.8461,-681.3155 339.1813,-681.3155 337.6534,-682.5591 335.1784,-683.4663 332.1575,-686.7945 233.7238,-705.6721 242.7959,-670.1489 247.0664,-646.7481 258.6837,-601.3698 158.2897,-627.5024 155.6911,-538.2731 154.7586,-538.0062 138.111,-532.0905 133.3943,-530.0955 126.8331,-527.0949 113.3033,-520.4454 110.6967,-518.9915 110.5566,-518.9085 98.2966,-511.2212 82.4726,-500.2114 69.9196,-490.201 57.5927,-479.5312 49.3076,-472.0852 45.3899,-468.4369 33.0042,-457.3416 209.048,-456.5728 208.392,-455.3865 209.0173,-409.7552 205.3456,-342.3895 203.0133,-264.6848 148.9188,-270.6207 113.327,-286.0864 6.7211,-434.8996 -35.6772,-448.8677 -135.2122,-564.4321 -121.9844,-629.5591 -121.1291,-634.1726 33.8594,-635.4648 56.3118,-638.9777 61.8117,-634.938 59.1126,-757.739 71.3486,-753.623 71.6114,-725.3367 73.8489,-671.1935 78.8926,-632.8782 82.4581,-632.8782 88.0544,-708.6838 89.8501,-669.918 95.0873,-632.7556 97.8768,-632.7556 98.7995,-633.8094 104.7075,-637.2805 109.5516,-637.2805 115.3608,-633.7622 116.2039,-632.7471 120.5082,-632.7471 122.2562,-744.5094 122.7714,-744.4842 126.576,-744.4969 143.2599,-744.1141 142.95,-716.9838 142.1227,-699.4086 142.1227,-699.4086 142.95,-716.9838 143.2599,-744.1141 126.576,-744.4969 122.7714,-744.4842 122.2562,-744.5094 120.5082,-632.7471 116.2039,-632.7471 115.3608,-633.7622 109.5516,-637.2805 104.7075,-637.2805 98.7995,-633.8094 97.8768,-632.7556 95.0873,-632.7556 89.8501,-669.918 88.0544,-708.6838 82.4581,-632.8782 78.8926,-632.8782 73.8489,-671.1935 71.6114,-725.3367 71.3486,-753.623 59.1126,-757.739 61.8117,-634.938 56.3118,-638.9777 33.8594,-635.4648 -121.1291,-634.1726 -104.2373,-746.7057 -56.0221,-802.3687 -56.0221,-802.3687"/>
<polyline fill="none" stroke="#000000" points="1283.8231,-1484.15 1298.5082,-1482.2682 1305.1498,-1481.5165 1308.3291,-1481.2991 1324.8486,-1480.6614 1339.269,-1480.5355 1347.8706,-1480.7174 1366.8506,-1481.6858 1474.7957,-1488.7987 1487.7025,-1478.5709 1492.7434,-1476.6272 1514.1946,-1469.8148 1670.0787,-1426.6715 1685.6068,-1394.8104 1703.4569,-1351.3875 1705.4498,-1262.1678 1706.6595,-1240.0076 1712.531,-1156.9061 1860.3101,-1068.3394 1872.7162,-1025.2064 1882.0355,-955.7393 1888.2744,-918.4055 1882.8873,-895.3751 1868.6426,-829.7487 1829.7104,-787.846 1698.1809,-728.6629 1675.3278,-717.6256 1655.7554,-707.2247 1602.2091,-676.2009 1595.0093,-680.2584 1514.0397,-685.5616 1480.5198,-714.378 1434.8783,-756.5332 1422.1798,-767.2661 1413.8783,-773.6223 1412.286,-774.9177 1397.5902,-785.6581 1391.4432,-789.6283 1304.9698,-838.3752 1294.3566,-845.2274 1281.1515,-855.4087 1280.8967,-855.6155 1262.924,-870.9797 1253.8009,-879.1332 1244.6122,-886.6158 1243.8762,-889.4479 1117.3728,-979.4948 1116.8534,-979.8781 1100.5359,-992.8111 1091.3483,-999.8256 1061.7474,-1023.889 1041.287,-1040.0265 1023.6331,-1064.2108 1016.6147,-1115.8405 1014.8858,-1127.5049 1004.3626,-1141.8136 1031.3187,-1289.3496 1033.6776,-1303.504 1041.3123,-1360.3055 1147.5531,-1462.3462 1204.1724,-1484.6694 1227.2878,-1485.1207 1242.8546,-1485.8772 1262.238,-1487.9474 1262.7327,-1488.0073 1264.15,-1487.6987 1278.8823,-1484.9304 1283.8231,-1484.15 "/>
<polyline fill="none" stroke="#000000" points="1514.0397,-685.5616 1480.5198,-714.378 1434.8783,-756.5332 1422.1798,-767.2661 1413.8783,-773.6223 1412.286,-774.9177 1397.5902,-785.6581 1391.4432,-789.6283 1304.9698,-838.3752 1294.3566,-845.2274 1281.1515,-855.4087 1280.8967,-855.6155 1262.924,-870.9797 1253.8009,-879.1332 1244.6122,-886.6158 1211.6154,-820.2582 1203.6056,-801.0704 1180.7218,-740.13 1154.744,-687.888 1124.8855,-691.0715 1105.9231,-692.6379 1104.1384,-692.7421 1096.511,-692.8188 1094.6925,-692.7932 1079.3827,-693.3124 1068.8855,-694.1719 1067.2352,-694.3465 1059.0315,-695.411 1039.0945,-698.9536 1029.1249,-685.4822 1002.1106,-644.3229 966.646,-585.5696 956.9888,-570.7509 948.1127,-558.0157 928.1641,-531.0604 907.7219,-502.1972 904.942,-498.1265 893.9019,-480.7463 882.7007,-462.513 685.7838,-447.4511 649.94,-432.1317 635.4479,-385.5872 614.9428,-317.3766 624.7654,-281.3648 633.2582,-248.9556 642.1929,-211.7537 636.3284,-180.3595 664.4265,-18 674.3293,60.6163 756.3726,143.5759 800.6034,173.4374 854.8912,169.9954 863.9483,169.5574 879.6746,169.0336 884.4385,169.0186 895.9863,169.3304 906.0443,169.7536 943.638,171.9007 1039.7528,94.8963 1070.0962,31.5209 1109.9232,-47.9586 1128.4701,-82.4338 1134.9569,-86.4358 1138.5619,-92.5658 1149.5847,-100.2366 1171.0305,-114.4123 1187.1504,-123.9242 1195.847,-128.7476 1199.1362,-130.5136 1206.6356,-134.4077 1386.0599,-224.3937 1546.6323,-95.7829 1549.2703,-87.3444 1558.1844,-57.2085 1618.9579,12.538 1742.2628,38.0273 1762.7399,42.9295 1769.8311,44.856 1787.8491,50.3361 1788.6084,50.6037 1797.3434,47.4684 1818.1478,40.6871 1819.3601,40.3124 1833.8657,36.786 1965.6724,6.9211 2005.8868,-67.0469 2005.6025,-111.2875 2008.4121,-207.7151 2009.509,-231.2271 1992.243,-271.9399 1977.1002,-288.3578 1849.2029,-348.87 1844.1941,-358.3773 1819.4487,-407.2173 1666.7976,-509.6206 1642.9127,-526.1218 1632.5759,-533.6561 1602.2091,-676.2009 1595.0093,-680.2584 1514.0397,-685.5616 "/>
<polyline fill="none" stroke="#000000" points="893.9019,-480.7463 904.942,-498.1265 907.7219,-502.1972 928.1641,-531.0604 948.1127,-558.0157 956.9888,-570.7509 966.646,-585.5696 1002.1106,-644.3229 1029.1249,-685.4822 1039.0945,-698.9536 1059.0315,-695.411 1067.2352,-694.3465 1068.8855,-694.1719 1079.3827,-693.3124 1094.6925,-692.7932 1096.511,-692.8188 1104.1384,-692.7421 1105.9231,-692.6379 1124.8855,-691.0715 1154.744,-687.888 1180.7218,-740.13 1203.6056,-801.0704 1211.6154,-820.2582 1244.6122,-886.6158 1243.8762,-889.4479 1117.3728,-979.4948 1116.8534,-979.8781 1100.5359,-992.8111 1091.3483,-999.8256 1061.7474,-1023.889 1041.287,-1040.0265 1023.6331,-1064.2108 1016.6147,-1115.8405 1014.8858,-1127.5049 1004.3626,-1141.8136 791.3579,-1171.7437 787.3547,-1172.4187 766.6573,-1176.4955 764.2409,-1175.132 753.8322,-1169.8027 748.4763,-1167.3362 725.2238,-1157.0222 626.5495,-1120.0997 612.2781,-1119.3153 604.6434,-1119.1393 587.3904,-1119.2916 569.1288,-1120.6184 561.7159,-1121.3933 554.2775,-1122.2894 545.501,-1123.4865 500.0901,-1130.4 360.2024,-1025.4111 371.1989,-984.8917 385.803,-927.2343 388.7599,-914.5811 393.0908,-894.3423 402.0462,-856.0785 408.7438,-851.9274 539.5892,-776.7392 556.6815,-766.5187 564.4138,-726.0996 572.0808,-681.41 619.9926,-472.4757 649.94,-432.1317 685.7838,-447.4511 882.7007,-462.513 893.9019,-480.7463 "/>
<polyline fill="none" stroke="#000000" points="402.0462,-856.0785 408.7438,-851.9274 539.5892,-776.7392 556.6815,-766.5187 564.4138,-726.0996 572.0808,-681.41 619.9926,-472.4757 649.94,-432.1317 635.4479,-385.5872 614.9428,-317.3766 330.0176,-280.0357 319.9431,-278.399 311.324,-276.8636 304.6394,-275.5682 296.7048,-273.9068 292.8504,-273.0398 289.5178,-272.4746 285.2637,-271.6238 266.5474,-267.0179 262.8923,-266.0068 247.4274,-261.4917 239.0901,-258.6767 238.8786,-258.5988 224.646,-261.3814 203.0133,-264.6848 148.9188,-270.6207 113.327,-286.0864 6.7211,-434.8996 -35.6772,-448.8677 -135.2122,-564.4321 -121.9844,-629.5591 -121.1291,-634.1726 -104.2373,-746.7057 -56.0221,-802.3687 -50.494,-851.4783 -49.4224,-864.9359 -44.375,-944.8864 24.9179,-1002.9015 140.8531,-1049.1815 147.0747,-1051.8778 165.2853,-1060.7205 174.9856,-1065.7645 181.1973,-1069.101 187.8447,-1072.9005 193.6564,-1076.3228 199.0406,-1074.1215 215.9298,-1067.9657 232.0114,-1062.5825 360.2024,-1025.4111 371.1989,-984.8917 385.803,-927.2343 388.7599,-914.5811 393.0908,-894.3423 402.0462,-856.0785 "/>
<!-- aajohan&#45;comfortaa&#45;fonts&#45;&gt;fontpackages&#45;filesystem -->
<g id="edge1" class="edge">
<title>aajohan&#45;comfortaa&#45;fonts&#45;&gt;fontpackages&#45;filesystem</title>
<path fill="none" stroke="#444444" stroke-opacity="0.333333" d="M1356.9313,-1280.7766C1363.2079,-1279.0633 1369.6064,-1277.3169 1375.9677,-1275.5805"/>
<polygon fill="#444444" fill-opacity="0.333333" stroke="#444444" stroke-opacity="0.333333" points="1377.1851,-1278.8764 1385.9105,-1272.8666 1375.3418,-1272.1234 1377.1851,-1278.8764"/>
</g>
<!-- curl&#45;minimal&#45;&gt;libcurl&#45;minimal -->
<g id="edge2" class="edge">
<title>curl&#45;minimal&#45;&gt;libcurl&#45;minimal</title>
<path fill="none" stroke="#444444" stroke-opacity="0.333333" d="M1636.8203,-285.6259C1667.8101,-256.8686 1728.3413,-200.698 1763.4462,-168.1221"/>
<polygon fill="#444444" fill-opacity="0.333333" stroke="#444444" stroke-opacity="0.333333" points="1766.0016,-170.5256 1770.9511,-161.1579 1761.2401,-165.3944 1766.0016,-170.5256"/>
</g>
<!-- fontconfig&#45;&gt;aajohan&#45;comfortaa&#45;fonts -->
<g id="edge3" class="edge">
<title>fontconfig&#45;&gt;aajohan&#45;comfortaa&#45;fonts</title>
<path fill="none" stroke="#444444" stroke-opacity="0.333333" d="M1298.257,-1054.8083C1296.9068,-1099.5867 1293.3893,-1216.2436 1291.7562,-1270.4053"/>
<polygon fill="#444444" fill-opacity="0.333333" stroke="#444444" stroke-opacity="0.333333" points="1288.2499,-1270.5647 1291.4468,-1280.6657 1295.2467,-1270.7757 1288.2499,-1270.5647"/>
</g>
<!-- fontconfig&#45;&gt;fontpackages&#45;filesystem -->
<g id="edge4" class="edge">
<title>fontconfig&#45;&gt;fontpackages&#45;filesystem</title>
<path fill="none" stroke="#444444" stroke-opacity="0.333333" d="M1311.6066,-1055.0116C1338.7269,-1093.578 1402.0437,-1183.6175 1433.5753,-1228.457"/>
<polygon fill="#444444" fill-opacity="0.333333" stroke="#444444" stroke-opacity="0.333333" points="1430.8224,-1230.6269 1439.4377,-1236.7936 1436.5484,-1226.6003 1430.8224,-1230.6269"/>
</g>
<!-- fontconfig&#45;&gt;freetype -->
<g id="edge5" class="edge">
<title>fontconfig&#45;&gt;freetype</title>
<path fill="none" stroke="#444444" stroke-opacity="0.333333" d="M1312.6315,-1018.5689C1332.3358,-992.597 1368.613,-944.7805 1391.3477,-914.8143"/>
<polygon fill="#444444" fill-opacity="0.333333" stroke="#444444" stroke-opacity="0.333333" points="1394.3995,-916.5824 1397.6554,-906.5002 1388.8228,-912.3515 1394.3995,-916.5824"/>
</g>
<!-- freetype&#45;&gt;libpng -->
<g id="edge6" class="edge">
<title>freetype&#45;&gt;libpng</title>
<path fill="none" stroke="#444444" stroke-opacity="0.333333" d="M1465.6307,-897.9147C1511.0834,-906.1545 1575.7032,-917.8688 1620.8713,-926.0569"/>
<polygon fill="#444444" fill-opacity="0.333333" stroke="#444444" stroke-opacity="0.333333" points="1620.305,-929.5112 1630.769,-927.8512 1621.5537,-922.6235 1620.305,-929.5112"/>
</g>
<!-- libX11&#45;&gt;libX11&#45;common -->
<g id="edge7" class="edge">
<title>libX11&#45;&gt;libX11&#45;common</title>
<path fill="none" stroke="#444444" stroke-opacity="0.333333" d="M1082.2895,-553.7035C1098.1366,-512.334 1136.8768,-411.2007 1155.695,-362.0749"/>
<polygon fill="#444444" fill-opacity="0.333333" stroke="#444444" stroke-opacity="0.333333" points="1158.9779,-363.289 1159.2867,-352.6986 1152.4411,-360.7849 1158.9779,-363.289"/>
</g>
<!-- libX11&#45;&gt;libxcb -->
<g id="edge8" class="edge">
<title>libX11&#45;&gt;libxcb</title>
<path fill="none" stroke="#444444" stroke-opacity="0.333333" d="M1067.8103,-553.8072C1046.1784,-501.4069 983.5098,-349.6003 957.6865,-287.047"/>
<polygon fill="#444444" fill-opacity="0.333333" stroke="#444444" stroke-opacity="0.333333" points="960.9214,-285.7106 953.8704,-277.8028 954.4511,-288.3818 960.9214,-285.7106"/>
</g>
<!-- libxcb&#45;&gt;libXau -->
<g id="edge9" class="edge">
<title>libxcb&#45;&gt;libXau</title>
<path fill="none" stroke="#444444" stroke-opacity="0.333333" d="M941.4579,-241.45C930.1461,-199.5452 902.1584,-95.8635 888.6594,-45.856"/>
<polygon fill="#444444" fill-opacity="0.333333" stroke="#444444" stroke-opacity="0.333333" points="891.9953,-44.7834 886.01,-36.0412 885.2371,-46.6078 891.9953,-44.7834"/>
</g>
<!-- libXft&#45;&gt;fontconfig -->
<g id="edge10" class="edge">
<title>libXft&#45;&gt;fontconfig</title>
<path fill="none" stroke="#444444" stroke-opacity="0.333333" d="M1290.4433,-758.2415C1291.9391,-808.1014 1296.1266,-947.6844 1297.9422,-1008.2072"/>
<polygon fill="#444444" fill-opacity="0.333333" stroke="#444444" stroke-opacity="0.333333" points="1294.4541,-1008.6581 1298.2525,-1018.5486 1301.4509,-1008.4481 1294.4541,-1008.6581"/>
</g>
<!-- libXft&#45;&gt;freetype -->
<g id="edge11" class="edge">
<title>libXft&#45;&gt;freetype</title>
<path fill="none" stroke="#444444" stroke-opacity="0.333333" d="M1304.8228,-758.2765C1326.173,-784.2388 1365.5576,-832.1314 1390.0647,-861.9326"/>
<polygon fill="#444444" fill-opacity="0.333333" stroke="#444444" stroke-opacity="0.333333" points="1387.5001,-864.3244 1396.5551,-869.8251 1392.9068,-859.8782 1387.5001,-864.3244"/>
</g>
<!-- libXft&#45;&gt;libX11 -->
<g id="edge12" class="edge">
<title>libXft&#45;&gt;libX11</title>
<path fill="none" stroke="#444444" stroke-opacity="0.333333" d="M1266.5255,-721.8116C1227.6427,-691.3395 1149.6689,-630.2322 1106.2628,-596.2153"/>
<polygon fill="#444444" fill-opacity="0.333333" stroke="#444444" stroke-opacity="0.333333" points="1108.3507,-593.4048 1098.3208,-589.9912 1104.0328,-598.9144 1108.3507,-593.4048"/>
</g>
<!-- libXft&#45;&gt;libXrender -->
<g id="edge13" class="edge">
<title>libXft&#45;&gt;libXrender</title>
<path fill="none" stroke="#444444" stroke-opacity="0.333333" d="M1296.6576,-722.0682C1312.5574,-679.5715 1352.4204,-573.0258 1371.4178,-522.2494"/>
<polygon fill="#444444" fill-opacity="0.333333" stroke="#444444" stroke-opacity="0.333333" points="1374.8063,-523.1807 1375.0325,-512.5882 1368.2502,-520.7277 1374.8063,-523.1807"/>
</g>
<!-- libXrender&#45;&gt;curl&#45;minimal -->
<g id="edge14" class="edge">
<title>libXrender&#45;&gt;curl&#45;minimal</title>
<path fill="none" stroke="#444444" stroke-opacity="0.333333" d="M1404.3807,-476.2091C1446.9327,-441.7411 1539.0107,-367.156 1586.9322,-328.3386"/>
<polygon fill="#444444" fill-opacity="0.333333" stroke="#444444" stroke-opacity="0.333333" points="1589.2201,-330.9896 1594.7876,-321.9755 1584.814,-325.5501 1589.2201,-330.9896"/>
</g>
<!-- libXrender&#45;&gt;libX11 -->
<g id="edge15" class="edge">
<title>libXrender&#45;&gt;libX11</title>
<path fill="none" stroke="#444444" stroke-opacity="0.333333" d="M1317.1738,-510.8305C1261.0744,-525.0064 1180.8346,-545.2823 1128.4083,-558.53"/>
<polygon fill="#444444" fill-opacity="0.333333" stroke="#444444" stroke-opacity="0.333333" points="1127.47,-555.157 1118.6323,-561.0003 1129.185,-561.9436 1127.47,-555.157"/>
</g>
<!-- python3&#45;debug&#45;&gt;libX11 -->
<g id="edge16" class="edge">
<title>python3&#45;debug&#45;&gt;libX11</title>
<path fill="none" stroke="#444444" stroke-opacity="0.333333" d="M793.2578,-734.8703C850.334,-701.9005 971.5563,-631.877 1034.8758,-595.3008"/>
<polygon fill="#444444" fill-opacity="0.333333" stroke="#444444" stroke-opacity="0.333333" points="1036.8749,-598.1881 1043.7834,-590.1554 1033.3735,-592.1267 1036.8749,-598.1881"/>
</g>
<!-- python3&#45;debug&#45;&gt;python3&#45;devel -->
<g id="edge17" class="edge">
<title>python3&#45;debug&#45;&gt;python3&#45;devel</title>
<path fill="none" stroke="#444444" stroke-opacity="0.333333" d="M681.2791,-738.158C617.0685,-726.4588 527.2796,-710.0992 460.5963,-697.9495"/>
<polygon fill="#444444" fill-opacity="0.333333" stroke="#444444" stroke-opacity="0.333333" points="460.9815,-694.4621 450.5161,-696.1129 459.7267,-701.3488 460.9815,-694.4621"/>
</g>
<!-- python3&#45;debug&#45;&gt;python3&#45;test -->
<g id="edge18" class="edge">
<title>python3&#45;debug&#45;&gt;python3&#45;test</title>
<path fill="none" stroke="#444444" stroke-opacity="0.333333" d="M745.2619,-770.9244C714.0422,-804.4207 647.0283,-876.3212 610.9175,-915.0651"/>
<polygon fill="#444444" fill-opacity="0.333333" stroke="#444444" stroke-opacity="0.333333" points="607.9627,-913.102 603.7049,-922.8037 613.0834,-917.8747 607.9627,-913.102"/>
</g>
<!-- python3&#45;debug&#45;&gt;python3&#45;tkinter -->
<g id="edge19" class="edge">
<title>python3&#45;debug&#45;&gt;python3&#45;tkinter</title>
<path fill="none" stroke="#444444" stroke-opacity="0.333333" d="M808.2618,-771.0223C828.2027,-778.8561 851.6957,-788.0852 872.5579,-796.2808"/>
<polygon fill="#444444" fill-opacity="0.333333" stroke="#444444" stroke-opacity="0.333333" points="871.3486,-799.5661 881.9359,-799.965 873.9081,-793.0508 871.3486,-799.5661"/>
</g>
<!-- python3&#45;debug&#45;&gt;python3&#45;tools -->
<g id="edge20" class="edge">
<title>python3&#45;debug&#45;&gt;python3&#45;tools</title>
<path fill="none" stroke="#444444" stroke-opacity="0.333333" d="M761.6784,-771.1605C760.8564,-808.583 758.9766,-894.1526 757.9942,-938.8761"/>
<polygon fill="#444444" fill-opacity="0.333333" stroke="#444444" stroke-opacity="0.333333" points="754.4911,-938.9813 757.7706,-949.0558 761.4894,-939.1351 754.4911,-938.9813"/>
</g>
<!-- python3&#45;debug&#45;&gt;tcl -->
<g id="edge21" class="edge">
<title>python3&#45;debug&#45;&gt;tcl</title>
<path fill="none" stroke="#444444" stroke-opacity="0.333333" d="M793.8358,-734.8051C816.9446,-721.652 848.2708,-703.8216 872.3299,-690.1276"/>
<polygon fill="#444444" fill-opacity="0.333333" stroke="#444444" stroke-opacity="0.333333" points="874.2033,-693.0886 881.1627,-685.1001 870.7406,-687.005 874.2033,-693.0886"/>
</g>
<!-- python3&#45;debug&#45;&gt;tk -->
<g id="edge22" class="edge">
<title>python3&#45;debug&#45;&gt;tk</title>
<path fill="none" stroke="#444444" stroke-opacity="0.333333" d="M842.9719,-767.1279C914.4881,-779.7244 1015.5982,-797.5334 1069.6216,-807.0488"/>
<polygon fill="#444444" fill-opacity="0.333333" stroke="#444444" stroke-opacity="0.333333" points="1069.3202,-810.5495 1079.7757,-808.8372 1070.5345,-803.6556 1069.3202,-810.5495"/>
</g>
<!-- python3&#45;devel&#45;&gt;python3&#45;rpm&#45;generators -->
<g id="edge23" class="edge">
<title>python3&#45;devel&#45;&gt;python3&#45;rpm&#45;generators</title>
<path fill="none" stroke="#444444" stroke-opacity="0.333333" d="M361.4289,-663.3937C343.1266,-624.0969 299.5253,-530.4811 277.8309,-483.9013"/>
<polygon fill="#444444" fill-opacity="0.333333" stroke="#444444" stroke-opacity="0.333333" points="280.9458,-482.2994 273.551,-474.7121 274.6003,-485.2549 280.9458,-482.2994"/>
</g>
<!-- python3&#45;devel&#45;&gt;python3&#45;rpm&#45;macros -->
<g id="edge24" class="edge">
<title>python3&#45;devel&#45;&gt;python3&#45;rpm&#45;macros</title>
<path fill="none" stroke="#444444" stroke-opacity="0.333333" d="M289.2529,-666.4429C265.5631,-662.042 239.2698,-657.1574 214.2026,-652.5006"/>
<polygon fill="#444444" fill-opacity="0.333333" stroke="#444444" stroke-opacity="0.333333" points="214.7649,-649.0453 204.2938,-650.6599 213.4863,-655.9276 214.7649,-649.0453"/>
</g>
<!-- python3&#45;devel&#45;&gt;python&#45;rpm&#45;macros -->
<g id="edge25" class="edge">
<title>python3&#45;devel&#45;&gt;python&#45;rpm&#45;macros</title>
<path fill="none" stroke="#444444" stroke-opacity="0.333333" d="M350.6741,-699.4335C317.501,-730.6621 249.2585,-794.9041 211.3214,-830.6174"/>
<polygon fill="#444444" fill-opacity="0.333333" stroke="#444444" stroke-opacity="0.333333" points="208.5917,-828.3801 203.7095,-837.783 213.3899,-833.477 208.5917,-828.3801"/>
</g>
<!-- python3&#45;test&#45;&gt;python3&#45;tools -->
<g id="edge26" class="edge">
<title>python3&#45;test&#45;&gt;python3&#45;tools</title>
<path fill="none" stroke="#444444" stroke-opacity="0.333333" d="M662.5411,-952.7232C663.8684,-952.927 665.1987,-953.1314 666.5308,-953.336"/>
<polygon fill="#444444" fill-opacity="0.333333" stroke="#444444" stroke-opacity="0.333333" points="666.3414,-956.8479 676.7569,-954.9069 667.4043,-949.9291 666.3414,-956.8479"/>
</g>
<!-- python3&#45;tkinter&#45;&gt;libX11 -->
<g id="edge27" class="edge">
<title>python3&#45;tkinter&#45;&gt;libX11</title>
<path fill="none" stroke="#444444" stroke-opacity="0.333333" d="M938.7109,-799.9166C964.3777,-757.0789 1028.9705,-649.2738 1059.2131,-598.7989"/>
<polygon fill="#444444" fill-opacity="0.333333" stroke="#444444" stroke-opacity="0.333333" points="1062.3058,-600.4469 1064.4432,-590.0699 1056.3012,-596.8491 1062.3058,-600.4469"/>
</g>
<!-- python3&#45;tkinter&#45;&gt;tcl -->
<g id="edge28" class="edge">
<title>python3&#45;tkinter&#45;&gt;tcl</title>
<path fill="none" stroke="#444444" stroke-opacity="0.333333" d="M925.4863,-799.8096C922.1633,-774.4377 916.1054,-728.1839 912.1757,-698.1796"/>
<polygon fill="#444444" fill-opacity="0.333333" stroke="#444444" stroke-opacity="0.333333" points="915.6023,-697.3901 910.8332,-687.9293 908.6616,-698.2992 915.6023,-697.3901"/>
</g>
<!-- python3&#45;tkinter&#45;&gt;tk -->
<g id="edge29" class="edge">
<title>python3&#45;tkinter&#45;&gt;tk</title>
<path fill="none" stroke="#444444" stroke-opacity="0.333333" d="M1019.0602,-815.7917C1037.0137,-815.3549 1054.8828,-814.9202 1069.7841,-814.5578"/>
<polygon fill="#444444" fill-opacity="0.333333" stroke="#444444" stroke-opacity="0.333333" points="1070.157,-818.0498 1080.0688,-814.3076 1069.9867,-811.0519 1070.157,-818.0498"/>
</g>
<!-- python3&#45;tools&#45;&gt;python3&#45;tkinter -->
<g id="edge30" class="edge">
<title>python3&#45;tools&#45;&gt;python3&#45;tkinter</title>
<path fill="none" stroke="#444444" stroke-opacity="0.333333" d="M777.9363,-949.2833C808.2749,-922.7206 865.128,-872.9433 899.4387,-842.9028"/>
<polygon fill="#444444" fill-opacity="0.333333" stroke="#444444" stroke-opacity="0.333333" points="902.0126,-845.3012 907.2308,-836.0805 897.4014,-840.0346 902.0126,-845.3012"/>
</g>
<!-- tk&#45;&gt;fontconfig -->
<g id="edge31" class="edge">
<title>tk&#45;&gt;fontconfig</title>
<path fill="none" stroke="#444444" stroke-opacity="0.333333" d="M1122.7876,-831.9113C1156.7832,-871.4841 1237.3373,-965.2538 1276.5646,-1010.9167"/>
<polygon fill="#444444" fill-opacity="0.333333" stroke="#444444" stroke-opacity="0.333333" points="1273.9932,-1013.2947 1283.1645,-1018.5993 1279.303,-1008.7332 1273.9932,-1013.2947"/>
</g>
<!-- tk&#45;&gt;freetype -->
<g id="edge32" class="edge">
<title>tk&#45;&gt;freetype</title>
<path fill="none" stroke="#444444" stroke-opacity="0.333333" d="M1134.1223,-820.2587C1181.6782,-831.8892 1281.5346,-856.3106 1347.5756,-872.4619"/>
<polygon fill="#444444" fill-opacity="0.333333" stroke="#444444" stroke-opacity="0.333333" points="1346.922,-875.9051 1357.4672,-874.881 1348.585,-869.1055 1346.922,-875.9051"/>
</g>
<!-- tk&#45;&gt;libX11 -->
<g id="edge33" class="edge">
<title>tk&#45;&gt;libX11</title>
<path fill="none" stroke="#444444" stroke-opacity="0.333333" d="M1104.7098,-795.4832C1099.206,-753.6505 1085.6052,-650.2762 1079.0077,-600.131"/>
<polygon fill="#444444" fill-opacity="0.333333" stroke="#444444" stroke-opacity="0.333333" points="1082.4491,-599.4559 1077.6745,-589.9979 1075.509,-600.369 1082.4491,-599.4559"/>
</g>
<!-- tk&#45;&gt;libXft -->
<g id="edge34" class="edge">
<title>tk&#45;&gt;libXft</title>
<path fill="none" stroke="#444444" stroke-opacity="0.333333" d="M1134.467,-802.6433C1161.4811,-791.7786 1203.4925,-774.8821 1237.0312,-761.3932"/>
<polygon fill="#444444" fill-opacity="0.333333" stroke="#444444" stroke-opacity="0.333333" points="1238.7212,-764.486 1246.6929,-757.5074 1236.1092,-757.9916 1238.7212,-764.486"/>
</g>
<!-- tk&#45;&gt;tcl -->
<g id="edge35" class="edge">
<title>tk&#45;&gt;tcl</title>
<path fill="none" stroke="#444444" stroke-opacity="0.333333" d="M1081.9383,-795.4034C1046.4102,-769.6395 981.4716,-722.5478 941.9055,-693.8555"/>
<polygon fill="#444444" fill-opacity="0.333333" stroke="#444444" stroke-opacity="0.333333" points="943.5376,-690.7156 933.3874,-687.6784 939.4281,-696.3825 943.5376,-690.7156"/>
</g>
<!-- aajohan&#45;comfortaa&#45;fonts -->
<g id="node1" class="node">
<title>aajohan&#45;comfortaa&#45;fonts</title>
<text text-anchor="middle" x="1290.9" y="-1295.1" font-family="monospace" font-size="14.00" fill="#000000">aajohan&#45;comfortaa&#45;fonts</text>
</g>
<!-- fontpackages&#45;filesystem -->
<g id="node2" class="node">
<title>fontpackages&#45;filesystem</title>
<text text-anchor="middle" x="1452.1" y="-1251.1" font-family="monospace" font-size="14.00" fill="#000000">fontpackages&#45;filesystem</text>
</g>
<!-- curl&#45;minimal -->
<g id="node3" class="node">
<title>curl&#45;minimal</title>
<text text-anchor="middle" x="1617.3" y="-300.04" font-family="monospace" font-size="14.00" fill="#000000">curl&#45;minimal</text>
</g>
<!-- libcurl&#45;minimal -->
<g id="node4" class="node">
<title>libcurl&#45;minimal</title>
<text text-anchor="middle" x="1790.4" y="-139.41" font-family="monospace" font-size="14.00" fill="#000000">libcurl&#45;minimal</text>
</g>
<!-- fontconfig -->
<g id="node5" class="node">
<title>fontconfig</title>
<text text-anchor="middle" x="1298.8" y="-1033.1" font-family="monospace" font-size="14.00" fill="#000000">fontconfig</text>
</g>
<!-- freetype -->
<g id="node6" class="node">
<title>freetype</title>
<text text-anchor="middle" x="1411.6" y="-884.42" font-family="monospace" font-size="14.00" fill="#000000">freetype</text>
</g>
<!-- libpng -->
<g id="node7" class="node">
<title>libpng</title>
<text text-anchor="middle" x="1673.9" y="-931.97" font-family="monospace" font-size="14.00" fill="#000000">libpng</text>
</g>
<!-- libX11 -->
<g id="node8" class="node">
<title>libX11</title>
<text text-anchor="middle" x="1075.3" y="-568.25" font-family="monospace" font-size="14.00" fill="#000000">libX11</text>
</g>
<!-- libX11&#45;common -->
<g id="node9" class="node">
<title>libX11&#45;common</title>
<text text-anchor="middle" x="1166.3" y="-330.69" font-family="monospace" font-size="14.00" fill="#000000">libX11&#45;common</text>
</g>
<!-- libxcb -->
<g id="node10" class="node">
<title>libxcb</title>
<text text-anchor="middle" x="946.36" y="-255.91" font-family="monospace" font-size="14.00" fill="#000000">libxcb</text>
</g>
<!-- libXau -->
<g id="node11" class="node">
<title>libXau</title>
<text text-anchor="middle" x="881.14" y="-14.3" font-family="monospace" font-size="14.00" fill="#000000">libXau</text>
</g>
<!-- libXft -->
<g id="node12" class="node">
<title>libXft</title>
<text text-anchor="middle" x="1289.9" y="-736.43" font-family="monospace" font-size="14.00" fill="#000000">libXft</text>
</g>
<!-- libXrender -->
<g id="node13" class="node">
<title>libXrender</title>
<text text-anchor="middle" x="1381.8" y="-490.8" font-family="monospace" font-size="14.00" fill="#000000">libXrender</text>
</g>
<!-- python3&#45;debug -->
<g id="node14" class="node">
<title>python3&#45;debug</title>
<text text-anchor="middle" x="762.08" y="-749.18" font-family="monospace" font-size="14.00" fill="#000000">python3&#45;debug</text>
</g>
<!-- python3&#45;devel -->
<g id="node15" class="node">
<title>python3&#45;devel</title>
<text text-anchor="middle" x="369.82" y="-677.71" font-family="monospace" font-size="14.00" fill="#000000">python3&#45;devel</text>
</g>
<!-- python3&#45;test -->
<g id="node16" class="node">
<title>python3&#45;test</title>
<text text-anchor="middle" x="586.68" y="-937.37" font-family="monospace" font-size="14.00" fill="#000000">python3&#45;test</text>
</g>
<!-- python3&#45;tkinter -->
<g id="node17" class="node">
<title>python3&#45;tkinter</title>
<text text-anchor="middle" x="927.87" y="-814.31" font-family="monospace" font-size="14.00" fill="#000000">python3&#45;tkinter</text>
</g>
<!-- python3&#45;tools -->
<g id="node18" class="node">
<title>python3&#45;tools</title>
<text text-anchor="middle" x="757.37" y="-963.59" font-family="monospace" font-size="14.00" fill="#000000">python3&#45;tools</text>
</g>
<!-- tcl -->
<g id="node19" class="node">
<title>tcl</title>
<text text-anchor="middle" x="908.43" y="-665.88" font-family="monospace" font-size="14.00" fill="#000000">tcl</text>
</g>
<!-- tk -->
<g id="node20" class="node">
<title>tk</title>
<text text-anchor="middle" x="1107.1" y="-809.95" font-family="monospace" font-size="14.00" fill="#000000">tk</text>
</g>
<!-- python3&#45;rpm&#45;generators -->
<g id="node21" class="node">
<title>python3&#45;rpm&#45;generators</title>
<text text-anchor="middle" x="265.12" y="-452.91" font-family="monospace" font-size="14.00" fill="#000000">python3&#45;rpm&#45;generators</text>
</g>
<!-- python3&#45;rpm&#45;macros -->
<g id="node22" class="node">
<title>python3&#45;rpm&#45;macros</title>
<text text-anchor="middle" x="107.24" y="-628.93" font-family="monospace" font-size="14.00" fill="#000000">python3&#45;rpm&#45;macros</text>
</g>
<!-- python&#45;rpm&#45;macros -->
<g id="node23" class="node">
<title>python&#45;rpm&#45;macros</title>
<text text-anchor="middle" x="184.39" y="-852.27" font-family="monospace" font-size="14.00" fill="#000000">python&#45;rpm&#45;macros</text>
</g>
</g>
</svg>
