<?xml version="1.0" encoding="UTF-8" standalone="no"?>
<!DOCTYPE svg PUBLIC "-//W3C//DTD SVG 1.1//EN"
 "http://www.w3.org/Graphics/SVG/1.1/DTD/svg11.dtd">
<!-- Generated by graphviz version 2.40.1 (20161225.0304)
 -->
<!-- Title: G Pages: 1 -->
<svg width="1848pt" height="1670pt"
 viewBox="0.00 0.00 1847.65 1670.05" xmlns="http://www.w3.org/2000/svg" xmlns:xlink="http://www.w3.org/1999/xlink">
<g id="graph0" class="graph" transform="scale(1 1) rotate(0) translate(141.6207 1493.6327)">
<title>G</title>
<polygon fill="#dae2ff" stroke="transparent" points="-141.6207,176.4194 -141.6207,-1493.6327 1706.0304,-1493.6327 1706.0304,176.4194 -141.6207,176.4194"/>
<polygon fill="#fed9a6" stroke="#fed9a6" points="1113.8848,-214.5922 1122.7054,-249.5809 1124.1842,-256.2416 1231.2977,-246.4492 1236.9609,-240.5033 1238.1895,-240.8754 1242.3514,-240.8754 1242.9525,-240.7018 1246.0469,-240.7018 1246.4362,-240.5863 1252.1172,-240.5863 1253.5619,-238.8268 1258.1235,-236.1846 1263.3352,-236.1846 1269.9767,-240.3256 1270.2635,-240.6605 1273.5406,-240.6605 1274.0155,-240.5172 1274.0155,-240.5172 1273.5406,-240.6605 1270.2635,-240.6605 1269.9767,-240.3256 1263.3352,-236.1846 1258.1235,-236.1846 1253.5619,-238.8268 1252.1172,-240.5863 1246.4362,-240.5863 1246.0469,-240.7018 1242.9525,-240.7018 1242.3514,-240.8754 1238.1895,-240.8754 1236.9609,-240.5033 1231.2977,-246.4492 1124.1842,-256.2416 1128.582,-279.1408 1130.0012,-285.527 1139.0737,-291.4638 1146.8333,-296.2463 1155.1143,-300.7215 1167.5966,-306.9922 1230.7485,-336.2198 1238.4172,-340.3646 1224.4115,-383.4314 1217.9255,-407.3548 1215.8712,-420.6053 1211.4669,-441.2357 1254.5033,-438.1742 1271.8666,-440.4292 1279.4855,-563.7683 1281.2197,-607.7557 1283.3829,-701.5456 1286.2288,-695.6215 1294.3903,-679.0859 1295.6881,-518.5533 1299.1885,-438.4103 1304.1705,-435.3409 1305.4116,-433.7833 1304.3076,-432.5067 1299.7039,-429.8615 1299.7039,-429.8615 1304.3076,-432.5067 1305.4116,-433.7833 1304.1705,-435.3409 1299.1885,-438.4103 1295.6881,-518.5533 1294.3903,-679.0859 1286.2288,-695.6215 1283.3829,-701.5456 1281.2197,-607.7557 1279.4855,-563.7683 1271.8666,-440.4292 1254.5033,-438.1742 1211.4669,-441.2357 1166.4489,-579.6636 1158.1554,-606.5955 1187.8699,-673.5862 1278.7922,-711.9219 1322.3691,-761.6025 1471.7531,-726.9826 1497.3257,-721.4379 1510.3372,-719.0135 1512.3436,-718.7009 1515.6936,-562.9331 1512.9332,-530.8099 1514.528,-528.8046 1514.5095,-528.7831 1507.8934,-524.6642 1502.7163,-524.6642 1502.7163,-524.6642 1507.8934,-524.6642 1514.5095,-528.7831 1514.528,-528.8046 1512.9332,-530.8099 1515.6936,-562.9331 1512.3436,-718.7009 1531.5704,-716.288 1549.7147,-714.2879 1596.7256,-699.1656 1661.3916,-624.163 1693.9199,-561.3757 1701.4453,-548.0521 1674.1052,-471.6793 1649.6029,-398.535 1586.4614,-319.8234 1526.8593,-320.0475 1521.0815,-149.4568 1516.3148,-111.1809 1512.5105,-111.1809 1512.2325,-111.2637 1510.3512,-206.6282 1506.3215,-111.3874 1502.3092,-111.3874 1498.3516,-147.2703 1495.2234,-111.2701 1491.5736,-111.2701 1490.1515,-110.8349 1485.1414,-110.8349 1484.7332,-110.7126 1480.3914,-110.7126 1480.301,-110.6856 1475.0802,-110.6856 1475.0802,-110.6856 1480.301,-110.6856 1480.3914,-110.7126 1484.7332,-110.7126 1485.1414,-110.8349 1490.1515,-110.8349 1491.5736,-111.2701 1495.2234,-111.2701 1498.3516,-147.2703 1502.3092,-111.3874 1506.3215,-111.3874 1510.3512,-206.6282 1512.2325,-111.2637 1512.5105,-111.1809 1516.3148,-111.1809 1521.0815,-149.4568 1526.8593,-320.0475 1586.4614,-319.8234 1692.5837,-165.4309 1694.9335,-138.6986 1702.0304,-81.4066 1692.0355,-56.3036 1668.5062,6.0538 1579.483,88.3797 1575.3159,89.6787 1558.9442,103.4521 1544.9126,113.3691 1435.0155,151.6775 1401.777,147.7725 1387.3955,146.5793 1382.9153,146.2852 1382.428,37.2895 1385.3646,-17.7141 1384.0957,-18.1042 1388.3607,-64.3227 1390.2478,-64.2231 1391.3,-64.2423 1394.4381,-104.35 1399.4746,-107.1155 1402.1265,-110.8489 1404.1816,-110.8489 1404.2932,-110.8822 1410.5211,-196.6861 1411.9315,-234.0735 1416.3943,-154.5229 1416.3943,-154.5229 1411.9315,-234.0735 1410.5211,-196.6861 1404.2932,-110.8822 1404.1816,-110.8489 1402.1265,-110.8489 1399.4746,-107.1155 1394.4381,-104.35 1391.3,-64.2423 1390.2478,-64.2231 1388.3607,-64.3227 1384.0957,-18.1042 1385.3646,-17.7141 1382.428,37.2895 1382.9153,146.2852 1370.6829,145.9054 1356.6511,146.1984 1358.2081,-17.7053 1353.5848,-17.7053 1347.6301,46.221 1346.6975,28.4781 1341.3954,-14.2601 1337.1222,-13.042 1330.9727,-14.9026 1327.7672,-17.7056 1331.3975,-21.0974 1331.3975,-21.0974 1327.7672,-17.7056 1330.9727,-14.9026 1337.1222,-13.042 1341.3954,-14.2601 1346.6975,28.4781 1347.6301,46.221 1353.5848,-17.7053 1358.2081,-17.7053 1356.6511,146.1984 1348.0308,146.5275 1331.9594,147.9761 1314.3097,150.4842 1302.8726,152.7029 1289.5022,155.7603 1281.9617,157.745 1259.1321,164.5464 1234.1239,172.4194 1095.1224,59.5513 1071.7791,-14.4588 1070.0184,-19.7597 1052.0347,-68.9186 1080.5497,-95.6117 1113.8848,-214.5922 1113.8848,-214.5922"/>
<polygon fill="#b3cde3" stroke="#b3cde3" points="786.4756,-1085.7952 785.2118,-1112.6986 783.384,-1134.5388 830.7277,-1222.9092 874.2366,-1271.6366 952.1235,-1282.6665 952.1834,-1109.7144 957.4337,-1105.0518 958.3981,-1171.3049 963.4635,-1105.609 968.1721,-1108.313 973.1555,-1108.313 979.5615,-1104.3352 980.0901,-1103.7058 979.2973,-1102.7606 973.7218,-1099.3597 973.7218,-1099.3597 979.2973,-1102.7606 980.0901,-1103.7058 979.5615,-1104.3352 973.1555,-1108.313 968.1721,-1108.313 963.4635,-1105.609 958.3981,-1171.3049 957.4337,-1105.0518 952.1834,-1109.7144 952.1235,-1282.6665 954.9018,-1283.1047 971.8623,-1286.3303 979.8809,-1287.9843 983.4117,-1288.8259 990.9241,-1290.738 1079.4996,-1314.7084 1083.1902,-1308.2191 1091.2539,-1111.8 1149.0383,-1111.8 1149.0383,-1111.8 1091.2539,-1111.8 1083.1902,-1308.2191 1079.4996,-1314.7084 1082.4976,-1322.1641 1086.552,-1333.1166 1281.3759,-1489.6327 1289.7898,-1486.1726 1309.5565,-1478.3715 1321.3466,-1474.1195 1320.792,-1320.4143 1320.792,-1320.4143 1321.3466,-1474.1195 1329.9742,-1471.3022 1331.2296,-1321.2617 1335.2271,-1289.3529 1334.5109,-1289.1407 1334.5109,-1289.1407 1335.2271,-1289.3529 1331.2296,-1321.2617 1329.9742,-1471.3022 1341.7761,-1467.8494 1354.7445,-1464.4968 1362.8152,-1462.6859 1375.7557,-1460.0034 1375.0182,-1431.5669 1375.0182,-1431.5669 1375.7557,-1460.0034 1382.5938,-1458.9364 1384.4086,-1334.8485 1384.4086,-1334.8485 1382.5938,-1458.9364 1440.4714,-1451.8702 1476.4387,-1444.5251 1518.9471,-1409.8784 1561.4681,-1342.4225 1560.4589,-1319.0573 1559.771,-1230.0032 1560.0905,-1198.2953 1462.396,-1097.464 1457.0299,-1071.1093 1453.1788,-1050.5521 1322.7151,-865.153 1322.3691,-761.6025 1278.7922,-711.9219 1187.8699,-673.5862 1086.3278,-711.6046 1077.2952,-714.8348 1065.4769,-718.861 1059.2426,-720.878 1061.0288,-897.0991 1056.1532,-897.0991 1049.3181,-901.3101 1049.2197,-901.4237 1050.4708,-902.9873 1055.6725,-906.1805 1055.6725,-906.1805 1050.4708,-902.9873 1049.2197,-901.4237 1049.3181,-901.3101 1056.1532,-897.0991 1061.0288,-897.0991 1059.2426,-720.878 1051.8601,-723.1395 1037.678,-726.9975 1038.2268,-747.0413 1038.2268,-747.0413 1037.678,-726.9975 1035.2137,-727.5829 1024.3933,-740.1888 984.3337,-790.7643 916.2699,-881.59 870.0505,-937.2287 865.7952,-942.6977 863.8392,-943.23 847.3649,-947.9877 834.5348,-952.1148 815.715,-959.4125 801.7449,-965.2887 799.8055,-966.1677 797.7939,-967.1126 789.7493,-971.0255 786.4756,-1085.7952 786.4756,-1085.7952"/>
<polygon fill="#decbe4" stroke="#decbe4" points="967.3767,-367.6095 958.7712,-370.5721 938.9081,-378.3629 874.4739,-310.8794 857.3248,-295.2812 856.566,-294.5535 839.0474,-274.8849 837.9415,-273.5272 838.0385,-271.85 839.1053,-263.7553 854.6231,-118.0903 964.5274,-92.7008 977.0453,-89.4463 980.2081,-88.5326 994.7208,-83.9156 1001.987,-82.4402 1015.1823,-79.2204 1022.33,-77.3792 1052.0347,-68.9186 1080.5497,-95.6117 1113.8848,-214.5922 1122.7054,-249.5809 1124.1842,-256.2416 1128.582,-279.1408 1130.0012,-285.527 1127.8942,-287.9857 1126.0503,-290.0268 1126.0457,-302.6689 1126.0457,-302.6689 1126.0503,-290.0268 1127.8942,-287.9857 1130.0012,-285.527 1139.0737,-291.4638 1139.4352,-395.0816 1134.4969,-397.9233 1132.8464,-399.891 1133.6399,-400.8082 1133.6399,-400.8082 1132.8464,-399.891 1134.4969,-397.9233 1139.4352,-395.0816 1139.0737,-291.4638 1146.8333,-296.2463 1155.1143,-300.7215 1167.5966,-306.9922 1230.7485,-336.2198 1238.4172,-340.3646 1224.4115,-383.4314 1217.9255,-407.3548 1215.8712,-420.6053 1211.4669,-441.2357 1166.4489,-579.6636 1158.1554,-606.5955 1187.8699,-673.5862 1086.3278,-711.6046 1077.2952,-714.8348 1065.4769,-718.861 1059.2426,-720.878 1051.8601,-723.1395 1037.678,-726.9975 1035.2137,-727.5829 1024.3933,-740.1888 984.3337,-790.7643 916.2699,-881.59 870.0505,-937.2287 865.7952,-942.6977 863.8392,-943.23 847.3649,-947.9877 834.5348,-952.1148 834.3909,-895.9304 830.0432,-799.1113 825.1819,-762.7693 831.5529,-764.7643 836.7862,-763.1694 840.4006,-759.8768 836.675,-756.5749 831.6672,-755.1072 831.6672,-755.1072 836.675,-756.5749 840.4006,-759.8768 836.7862,-763.1694 831.5529,-764.7643 825.1819,-762.7693 830.0432,-799.1113 834.3909,-895.9304 834.5348,-952.1148 815.715,-959.4125 801.7449,-965.2887 805.6178,-825.9992 805.6178,-825.9992 801.7449,-965.2887 799.8055,-966.1677 797.7939,-967.1126 789.7493,-971.0255 723.8925,-936.0822 596.3619,-785.5244 552.6716,-737.0652 552.7643,-723.7322 563.6745,-701.3619 569.5209,-688.9607 647.7605,-646.9274 651.325,-645.1496 663.785,-639.4052 675.7199,-634.3558 693.9539,-627.3364 696.6882,-626.4418 716.2293,-620.4184 775.5851,-605.5522 784.4395,-589.4531 792.7328,-573.5455 804.2403,-550.1304 816.0992,-524.3187 819.7968,-521.4962 826.8876,-516.8805 829.4308,-515.3177 834.977,-512.109 841.8037,-508.405 853.7022,-502.3813 854.5488,-501.9845 856.5206,-501.1326 861.0644,-499.3331 919.1368,-478.4222 927.4215,-475.1323 931.9077,-477.9001 933.9749,-479.0854 945.6498,-484.8043 958.4248,-489.9862 1009.484,-506.3527 1010.4603,-506.7064 1026.4463,-513.8824 1074.3344,-539.4101 1114.1945,-559.298 1078.9751,-434.2819 1076.0668,-420.8393 1075.2365,-410.8275 1072.7174,-394.0694 1063.0588,-359.785 1027.1021,-361.6066 1021.0275,-361.6143 1020.9399,-361.6187 1014.63,-361.3122 1011.9022,-361.448 1009.1979,-361.4486 1002.1303,-361.7993 997.9874,-361.7988 995.5116,-361.9201 988.9299,-362.5661 989.7733,-302.5359 995.0341,-302.5359 1000.7936,-299.1677 1001.6946,-298.1407 1000.9331,-297.2321 1000.9331,-297.2321 1001.6946,-298.1407 1000.7936,-299.1677 995.0341,-302.5359 989.7733,-302.5359 988.9299,-362.5661 983.0076,-363.4378 974.0073,-365.6516 967.3767,-367.6095 967.3767,-367.6095"/>
<polygon fill="#fbb4ae" stroke="#fbb4ae" points="343.9654,-318.7651 332.6653,-288.6078 302.2262,-216.8547 365.6615,-153.6709 468.7417,-122.9059 489.9152,-116.213 492.3247,-115.3684 497.4667,-113.4766 511.4915,-107.8257 511.1876,-252.971 508.0805,-294.7326 503.7389,-297.3146 502.0914,-299.3986 503.1558,-300.6458 508.4371,-303.711 513.4607,-303.711 513.4607,-303.711 508.4371,-303.711 503.1558,-300.6458 502.0914,-299.3986 503.7389,-297.3146 508.0805,-294.7326 511.1876,-252.971 511.4915,-107.8257 524.3201,-102.2107 526.4196,-101.2557 526.9032,-209.1738 530.2876,-298.9519 535.1514,-298.9519 535.4463,-299.0424 538.7169,-299.0424 541.0472,-300.8198 541.3737,-301.4156 545.9451,-305.1621 594.6264,-303.3559 614.7967,-367.1106 637.6931,-366.4027 643.0244,-366.573 644.6891,-424.4476 644.6891,-424.4476 643.0244,-366.573 637.6931,-366.4027 614.7967,-367.1106 594.6264,-303.3559 545.9451,-305.1621 541.3737,-301.4156 541.0472,-300.8198 538.7169,-299.0424 540.8182,-295.7959 546.1593,-292.5377 558.6149,-296.244 593.0341,-296.8825 591.2894,-280.59 637.2866,-277.6816 639.4158,-307.3953 644.0465,-271.7889 648.2965,-271.7889 648.3495,-271.7738 653.0225,-271.7738 653.0367,-271.7697 653.0367,-271.7697 653.0225,-271.7738 648.3495,-271.7738 648.2965,-271.7889 644.0465,-271.7889 639.4158,-307.3953 637.2866,-277.6816 591.2894,-280.59 591.2658,-280.457 591.2658,-280.457 591.2894,-280.59 593.0341,-296.8825 558.6149,-296.244 546.1593,-292.5377 540.8182,-295.7959 538.7169,-299.0424 535.4463,-299.0424 535.1514,-298.9519 530.2876,-298.9519 526.9032,-209.1738 526.4196,-101.2557 535.7302,-96.6959 543.1125,-90.0598 633.0495,-86.678 646.2915,-85.7747 660.9908,-84.5471 670.2205,-83.3537 670.4589,-83.3192 675.2216,-266.7799 669.7214,-268.3688 665.9812,-271.6051 669.4927,-274.8121 669.4927,-274.8121 665.9812,-271.6051 669.7214,-268.3688 675.2216,-266.7799 670.4589,-83.3192 685.92,-80.8466 699.4054,-78.0718 706.1521,-76.4774 717.3535,-78.2451 711.2194,-232.7693 711.2194,-232.7693 717.3535,-78.2451 787.9332,-87.2852 854.6231,-118.0903 839.1053,-263.7553 838.0385,-271.85 837.9415,-273.5272 839.0474,-274.8849 856.566,-294.5535 857.3248,-295.2812 874.4739,-310.8794 938.9081,-378.3629 937.2043,-390.0464 936.0079,-401.7214 934.3617,-412.8135 933.0344,-435.4564 932.6269,-439.4364 927.4215,-475.1323 919.1368,-478.4222 861.0644,-499.3331 856.5206,-501.1326 854.5488,-501.9845 853.7022,-502.3813 841.8037,-508.405 834.977,-512.109 829.4308,-515.3177 826.8876,-516.8805 826.397,-408.5888 821.2374,-410.1436 815.3788,-408.3322 812.3058,-405.5807 812.3058,-405.5807 815.3788,-408.3322 821.2374,-410.1436 826.397,-408.5888 826.8876,-516.8805 819.7968,-521.4962 819.1051,-503.3599 809.4901,-405.6944 806.0679,-405.6944 801.5015,-443.8917 799.0998,-405.3963 798.9995,-405.3663 794.9545,-405.3663 793.968,-405.0723 790.0593,-405.0723 790.0593,-405.0723 793.968,-405.0723 794.9545,-405.3663 798.9995,-405.3663 799.0998,-405.3963 801.5015,-443.8917 806.0679,-405.6944 809.4901,-405.6944 819.1051,-503.3599 819.7968,-521.4962 816.0992,-524.3187 799.9321,-498.8059 789.2753,-484.1398 787.536,-481.9295 785.1049,-479.0788 780.3225,-473.9174 778.1172,-410.4495 739.6534,-420.788 764.6918,-457.3117 734.1541,-457.7696 718.2114,-454.594 718.2114,-454.594 734.1541,-457.7696 764.6918,-457.3117 739.6534,-420.788 778.1172,-410.4495 780.3225,-473.9174 785.1049,-479.0788 787.536,-481.9295 789.2753,-484.1398 799.9321,-498.8059 816.0992,-524.3187 804.2403,-550.1304 792.7328,-573.5455 784.4395,-589.4531 775.5851,-605.5522 716.2293,-620.4184 696.6882,-626.4418 693.9539,-627.3364 675.7199,-634.3558 663.785,-639.4052 651.325,-645.1496 647.7605,-646.9274 569.5209,-688.9607 531.4491,-576.1469 509.268,-500.5599 498.6543,-460.97 495.793,-452.4915 490.7699,-449.8925 489.0054,-449.0628 470.1215,-441.049 380.9592,-405.3256 374.0852,-402.4104 366.646,-383.8578 343.9654,-318.7651 343.9654,-318.7651"/>
<polygon fill="#ccebc5" stroke="#ccebc5" points="119.1181,-229.788 111.2815,-229.4304 101.827,-228.8412 72.7037,-226.5414 -27.8286,-287.2466 -61.5959,-338.6649 -61.5349,-394.6226 -62.073,-410.2289 109.8318,-405.7495 111.5732,-502.1109 103.6222,-502.1124 104.6046,-599.9767 99.0746,-603.2378 98.1413,-604.3285 98.9948,-605.3764 98.9948,-605.3764 98.1413,-604.3285 99.0746,-603.2378 104.6046,-599.9767 103.6222,-502.1124 111.5732,-502.1109 109.8318,-405.7495 -62.073,-410.2289 -64.7016,-460.5418 -137.6207,-561.8422 -134.5217,-573.4196 -114.1335,-660.6848 -110.1475,-679.2454 -76.7176,-720.8651 27.9827,-798.1757 45.9597,-855.0963 60.9462,-886.3646 147.1842,-938.5102 216.3557,-925.0056 237.5842,-921.9658 245.9419,-921.061 247.508,-920.946 266.5003,-920.2108 271.6561,-920.101 285.0852,-920.2826 284.6686,-859.1303 284.6686,-859.1303 285.0852,-920.2826 288.9313,-920.5353 300.6485,-921.5098 321.8522,-924.0126 322.0051,-924.0096 360.2825,-923.8931 426.2031,-875.4433 503.7508,-788.5208 552.6716,-737.0652 552.7643,-723.7322 563.6745,-701.3619 569.5209,-688.9607 531.4491,-576.1469 509.268,-500.5599 498.6543,-460.97 495.793,-452.4915 490.7699,-449.8925 489.0054,-449.0628 470.1215,-441.049 380.9592,-405.3256 374.0852,-402.4104 366.646,-383.8578 343.9654,-318.7651 332.6653,-288.6078 302.2262,-216.8547 240.2237,-217.9663 226.7047,-217.9989 222.3975,-217.8754 221.0541,-217.9078 210.5256,-220.7713 186.6856,-225.6638 178.2652,-226.968 169.2019,-228.2201 167.0123,-228.4129 147.2225,-229.8262 143.1825,-230.047 134.3868,-230.0869 125.8604,-229.9829 119.1181,-229.788 120.6956,-399.5477 120.7932,-399.5763 125.979,-399.5763 126.6426,-399.7695 130.5967,-399.7695 131.1597,-399.6052 136.0105,-399.6052 137.6061,-400.0842 140.9539,-400.0842 142.0989,-399.7381 147.7266,-399.7381 147.8811,-399.692 152.2578,-399.692 155.4507,-454.1371 158.6719,-399.7473 162.3632,-399.7473 162.8753,-399.1458 168.8713,-395.4587 174.5489,-395.4587 179.6561,-398.469 180.9401,-399.9754 183.6821,-399.9754 184.0134,-399.8757 184.0134,-399.8757 183.6821,-399.9754 180.9401,-399.9754 179.6561,-398.469 174.5489,-395.4587 168.8713,-395.4587 162.8753,-399.1458 162.3632,-399.7473 164.0506,-401.7614 168.5388,-404.3251 174.2138,-404.3251 174.2138,-404.3251 168.5388,-404.3251 164.0506,-401.7614 162.3632,-399.7473 158.6719,-399.7473 155.4507,-454.1371 152.2578,-399.692 147.8811,-399.692 147.7266,-399.7381 142.0989,-399.7381 140.9539,-400.0842 137.6061,-400.0842 136.0105,-399.6052 131.1597,-399.6052 130.5967,-399.7695 133.7015,-438.4249 133.0156,-502.1773 135.8581,-502.3408 130.9296,-604.4161 131.1002,-604.4663 136.0796,-604.4663 136.7415,-604.6674 141.9821,-604.6674 142.823,-671.2529 148.1801,-604.6276 150.9656,-604.6276 152.4456,-602.3256 158.2454,-598.1586 179.432,-602.2257 238.0655,-604.3345 228.7679,-570.2971 302.6403,-553.7994 302.6403,-553.7994 228.7679,-570.2971 238.0655,-604.3345 179.432,-602.2257 158.2454,-598.1586 152.4456,-602.3256 150.9656,-604.6276 148.1801,-604.6276 142.823,-671.2529 141.9821,-604.6674 136.7415,-604.6674 136.0796,-604.4663 131.1002,-604.4663 130.9296,-604.4161 135.8581,-502.3408 133.0156,-502.1773 133.7015,-438.4249 130.5967,-399.7695 126.6426,-399.7695 125.979,-399.5763 120.7932,-399.5763 120.6956,-399.5477 119.1181,-229.788 119.1181,-229.788"/>
<polygon fill="#fed9a6" stroke="#fed9a6" points="1009.1979,-361.4486 1002.1303,-361.7993 997.9874,-361.7988 995.5116,-361.9201 988.9299,-362.5661 983.0076,-363.4378 974.0073,-365.6516 967.3767,-367.6095 958.7712,-370.5721 938.9081,-378.3629 937.2043,-390.0464 936.0079,-401.7214 934.3617,-412.8135 933.0344,-435.4564 932.6269,-439.4364 927.4215,-475.1323 931.9077,-477.9001 933.9749,-479.0854 945.6498,-484.8043 958.4248,-489.9862 1009.484,-506.3527 1010.4603,-506.7064 1026.4463,-513.8824 1074.3344,-539.4101 1114.1945,-559.298 1078.9751,-434.2819 1076.0668,-420.8393 1075.2365,-410.8275 1072.7174,-394.0694 1063.0588,-359.785 1027.1021,-361.6066 1021.0275,-361.6143 1020.9399,-361.6187 1014.63,-361.3122 1011.9022,-361.448 1009.1979,-361.4486 1009.1979,-361.4486"/>
<polyline fill="none" stroke="#000000" points="1544.9126,113.3691 1435.0155,151.6775 1401.777,147.7725 1387.3955,146.5793 1382.9153,146.2852 1370.6829,145.9054 1356.6511,146.1984 1348.0308,146.5275 1331.9594,147.9761 1314.3097,150.4842 1302.8726,152.7029 1289.5022,155.7603 1281.9617,157.745 1259.1321,164.5464 1234.1239,172.4194 1095.1224,59.5513 1071.7791,-14.4588 1070.0184,-19.7597 1052.0347,-68.9186 1080.5497,-95.6117 1113.8848,-214.5922 1122.7054,-249.5809 1124.1842,-256.2416 1128.582,-279.1408 1130.0012,-285.527 1139.0737,-291.4638 1146.8333,-296.2463 1155.1143,-300.7215 1167.5966,-306.9922 1230.7485,-336.2198 1238.4172,-340.3646 1224.4115,-383.4314 1217.9255,-407.3548 1215.8712,-420.6053 1211.4669,-441.2357 1166.4489,-579.6636 1158.1554,-606.5955 1187.8699,-673.5862 1278.7922,-711.9219 1322.3691,-761.6025 1471.7531,-726.9826 1497.3257,-721.4379 1510.3372,-719.0135 1512.3436,-718.7009 1531.5704,-716.288 1549.7147,-714.2879 1596.7256,-699.1656 1661.3916,-624.163 1693.9199,-561.3757 1701.4453,-548.0521 1674.1052,-471.6793 1649.6029,-398.535 1586.4614,-319.8234 1692.5837,-165.4309 1694.9335,-138.6986 1702.0304,-81.4066 1692.0355,-56.3036 1668.5062,6.0538 1579.483,88.3797 1575.3159,89.6787 1558.9442,103.4521 1544.9126,113.3691 "/>
<polyline fill="none" stroke="#000000" points="1079.4996,-1314.7084 990.9241,-1290.738 983.4117,-1288.8259 979.8809,-1287.9843 971.8623,-1286.3303 954.9018,-1283.1047 952.1235,-1282.6665 874.2366,-1271.6366 830.7277,-1222.9092 783.384,-1134.5388 785.2118,-1112.6986 786.4756,-1085.7952 789.7493,-971.0255 797.7939,-967.1126 799.8055,-966.1677 801.7449,-965.2887 815.715,-959.4125 834.5348,-952.1148 847.3649,-947.9877 863.8392,-943.23 865.7952,-942.6977 870.0505,-937.2287 916.2699,-881.59 984.3337,-790.7643 1024.3933,-740.1888 1035.2137,-727.5829 1037.678,-726.9975 1051.8601,-723.1395 1059.2426,-720.878 1065.4769,-718.861 1077.2952,-714.8348 1086.3278,-711.6046 1187.8699,-673.5862 1278.7922,-711.9219 1322.3691,-761.6025 1322.7151,-865.153 1453.1788,-1050.5521 1457.0299,-1071.1093 1462.396,-1097.464 1560.0905,-1198.2953 1559.771,-1230.0032 1560.4589,-1319.0573 1561.4681,-1342.4225 1518.9471,-1409.8784 1476.4387,-1444.5251 1440.4714,-1451.8702 1382.5938,-1458.9364 1375.7557,-1460.0034 1362.8152,-1462.6859 1354.7445,-1464.4968 1341.7761,-1467.8494 1329.9742,-1471.3022 1321.3466,-1474.1195 1309.5565,-1478.3715 1289.7898,-1486.1726 1281.3759,-1489.6327 1086.552,-1333.1166 1082.4976,-1322.1641 1079.4996,-1314.7084 "/>
<polyline fill="none" stroke="#000000" points="945.6498,-484.8043 933.9749,-479.0854 931.9077,-477.9001 927.4215,-475.1323 919.1368,-478.4222 861.0644,-499.3331 856.5206,-501.1326 854.5488,-501.9845 853.7022,-502.3813 841.8037,-508.405 834.977,-512.109 829.4308,-515.3177 826.8876,-516.8805 819.7968,-521.4962 816.0992,-524.3187 804.2403,-550.1304 792.7328,-573.5455 784.4395,-589.4531 775.5851,-605.5522 716.2293,-620.4184 696.6882,-626.4418 693.9539,-627.3364 675.7199,-634.3558 663.785,-639.4052 651.325,-645.1496 647.7605,-646.9274 569.5209,-688.9607 563.6745,-701.3619 552.7643,-723.7322 552.6716,-737.0652 596.3619,-785.5244 723.8925,-936.0822 789.7493,-971.0255 797.7939,-967.1126 799.8055,-966.1677 801.7449,-965.2887 815.715,-959.4125 834.5348,-952.1148 847.3649,-947.9877 863.8392,-943.23 865.7952,-942.6977 870.0505,-937.2287 916.2699,-881.59 984.3337,-790.7643 1024.3933,-740.1888 1035.2137,-727.5829 1037.678,-726.9975 1051.8601,-723.1395 1059.2426,-720.878 1065.4769,-718.861 1077.2952,-714.8348 1086.3278,-711.6046 1187.8699,-673.5862 1158.1554,-606.5955 1166.4489,-579.6636 1211.4669,-441.2357 1215.8712,-420.6053 1217.9255,-407.3548 1224.4115,-383.4314 1238.4172,-340.3646 1230.7485,-336.2198 1167.5966,-306.9922 1155.1143,-300.7215 1146.8333,-296.2463 1139.0737,-291.4638 1130.0012,-285.527 1128.582,-279.1408 1124.1842,-256.2416 1122.7054,-249.5809 1113.8848,-214.5922 1080.5497,-95.6117 1052.0347,-68.9186 1022.33,-77.3792 1015.1823,-79.2204 1001.987,-82.4402 994.7208,-83.9156 980.2081,-88.5326 977.0453,-89.4463 964.5274,-92.7008 854.6231,-118.0903 839.1053,-263.7553 838.0385,-271.85 837.9415,-273.5272 839.0474,-274.8849 856.566,-294.5535 857.3248,-295.2812 874.4739,-310.8794 938.9081,-378.3629 958.7712,-370.5721 967.3767,-367.6095 974.0073,-365.6516 983.0076,-363.4378 988.9299,-362.5661 995.5116,-361.9201 997.9874,-361.7988 1002.1303,-361.7993 1009.1979,-361.4486 1011.9022,-361.448 1014.63,-361.3122 1020.9399,-361.6187 1021.0275,-361.6143 1027.1021,-361.6066 1063.0588,-359.785 1072.7174,-394.0694 1075.2365,-410.8275 1076.0668,-420.8393 1078.9751,-434.2819 1114.1945,-559.298 1074.3344,-539.4101 1026.4463,-513.8824 1010.4603,-506.7064 1009.484,-506.3527 958.4248,-489.9862 945.6498,-484.8043 "/>
<polyline fill="none" stroke="#000000" points="675.7199,-634.3558 693.9539,-627.3364 696.6882,-626.4418 716.2293,-620.4184 775.5851,-605.5522 784.4395,-589.4531 792.7328,-573.5455 804.2403,-550.1304 816.0992,-524.3187 819.7968,-521.4962 826.8876,-516.8805 829.4308,-515.3177 834.977,-512.109 841.8037,-508.405 853.7022,-502.3813 854.5488,-501.9845 856.5206,-501.1326 861.0644,-499.3331 919.1368,-478.4222 927.4215,-475.1323 932.6269,-439.4364 933.0344,-435.4564 934.3617,-412.8135 936.0079,-401.7214 937.2043,-390.0464 938.9081,-378.3629 874.4739,-310.8794 857.3248,-295.2812 856.566,-294.5535 839.0474,-274.8849 837.9415,-273.5272 838.0385,-271.85 839.1053,-263.7553 854.6231,-118.0903 787.9332,-87.2852 717.3535,-78.2451 706.1521,-76.4774 699.4054,-78.0718 685.92,-80.8466 670.4589,-83.3192 670.2205,-83.3537 660.9908,-84.5471 646.2915,-85.7747 633.0495,-86.678 543.1125,-90.0598 535.7302,-96.6959 526.4196,-101.2557 524.3201,-102.2107 511.4915,-107.8257 497.4667,-113.4766 492.3247,-115.3684 489.9152,-116.213 468.7417,-122.9059 365.6615,-153.6709 302.2262,-216.8547 332.6653,-288.6078 343.9654,-318.7651 366.646,-383.8578 374.0852,-402.4104 380.9592,-405.3256 470.1215,-441.049 489.0054,-449.0628 490.7699,-449.8925 495.793,-452.4915 498.6543,-460.97 509.268,-500.5599 531.4491,-576.1469 569.5209,-688.9607 647.7605,-646.9274 651.325,-645.1496 663.785,-639.4052 675.7199,-634.3558 "/>
<polyline fill="none" stroke="#000000" points="366.646,-383.8578 343.9654,-318.7651 332.6653,-288.6078 302.2262,-216.8547 240.2237,-217.9663 226.7047,-217.9989 222.3975,-217.8754 221.0541,-217.9078 210.5256,-220.7713 186.6856,-225.6638 178.2652,-226.968 169.2019,-228.2201 167.0123,-228.4129 147.2225,-229.8262 143.1825,-230.047 134.3868,-230.0869 125.8604,-229.9829 119.1181,-229.788 111.2815,-229.4304 101.827,-228.8412 72.7037,-226.5414 -27.8286,-287.2466 -61.5959,-338.6649 -61.5349,-394.6226 -62.073,-410.2289 -64.7016,-460.5418 -137.6207,-561.8422 -134.5217,-573.4196 -114.1335,-660.6848 -110.1475,-679.2454 -76.7176,-720.8651 27.9827,-798.1757 45.9597,-855.0963 60.9462,-886.3646 147.1842,-938.5102 216.3557,-925.0056 237.5842,-921.9658 245.9419,-921.061 247.508,-920.946 266.5003,-920.2108 271.6561,-920.101 285.0852,-920.2826 288.9313,-920.5353 300.6485,-921.5098 321.8522,-924.0126 322.0051,-924.0096 360.2825,-923.8931 426.2031,-875.4433 503.7508,-788.5208 552.6716,-737.0652 552.7643,-723.7322 563.6745,-701.3619 569.5209,-688.9607 531.4491,-576.1469 509.268,-500.5599 498.6543,-460.97 495.793,-452.4915 490.7699,-449.8925 489.0054,-449.0628 470.1215,-441.049 380.9592,-405.3256 374.0852,-402.4104 366.646,-383.8578 "/>
<polyline fill="none" stroke="#000000" points="1009.484,-506.3527 958.4248,-489.9862 945.6498,-484.8043 933.9749,-479.0854 931.9077,-477.9001 927.4215,-475.1323 932.6269,-439.4364 933.0344,-435.4564 934.3617,-412.8135 936.0079,-401.7214 937.2043,-390.0464 938.9081,-378.3629 958.7712,-370.5721 967.3767,-367.6095 974.0073,-365.6516 983.0076,-363.4378 988.9299,-362.5661 995.5116,-361.9201 997.9874,-361.7988 1002.1303,-361.7993 1009.1979,-361.4486 1011.9022,-361.448 1014.63,-361.3122 1020.9399,-361.6187 1021.0275,-361.6143 1027.1021,-361.6066 1063.0588,-359.785 1072.7174,-394.0694 1075.2365,-410.8275 1076.0668,-420.8393 1078.9751,-434.2819 1114.1945,-559.298 1074.3344,-539.4101 1026.4463,-513.8824 1010.4603,-506.7064 1009.484,-506.3527 "/>
<!-- aajohan&#45;comfortaa&#45;fonts&#45;&gt;fontpackages&#45;filesystem -->
<g id="edge1" class="edge">
<title>aajohan&#45;comfortaa&#45;fonts&#45;&gt;fontpackages&#45;filesystem</title>
<path fill="none" stroke="#444444" stroke-opacity="0.333333" d="M1434.7266,-92.8076C1415.864,-78.4129 1389.3173,-58.1542 1368.6063,-42.3489"/>
<polygon fill="#444444" fill-opacity="0.333333" stroke="#444444" stroke-opacity="0.333333" points="1370.4864,-39.3809 1360.4134,-36.0966 1366.2397,-44.9456 1370.4864,-39.3809"/>
</g>
<!-- curl&#45;minimal&#45;&gt;libcurl&#45;minimal -->
<g id="edge2" class="edge">
<title>curl&#45;minimal&#45;&gt;libcurl&#45;minimal</title>
<path fill="none" stroke="#444444" stroke-opacity="0.333333" d="M1239.5217,-1130.1271C1260.3148,-1161.5647 1302.87,-1225.905 1327.0243,-1262.4244"/>
<polygon fill="#444444" fill-opacity="0.333333" stroke="#444444" stroke-opacity="0.333333" points="1324.3084,-1264.6627 1332.7443,-1271.0726 1330.1469,-1260.8011 1324.3084,-1264.6627"/>
</g>
<!-- fontconfig&#45;&gt;aajohan&#45;comfortaa&#45;fonts -->
<g id="edge3" class="edge">
<title>fontconfig&#45;&gt;aajohan&#45;comfortaa&#45;fonts</title>
<path fill="none" stroke="#444444" stroke-opacity="0.333333" d="M1288.4615,-222.6588C1323.4428,-199.6774 1383.9799,-159.9069 1422.5905,-134.5412"/>
<polygon fill="#444444" fill-opacity="0.333333" stroke="#444444" stroke-opacity="0.333333" points="1424.5181,-137.4626 1430.9541,-129.0466 1420.6745,-131.6122 1424.5181,-137.4626"/>
</g>
<!-- fontconfig&#45;&gt;fontpackages&#45;filesystem -->
<g id="edge4" class="edge">
<title>fontconfig&#45;&gt;fontpackages&#45;filesystem</title>
<path fill="none" stroke="#444444" stroke-opacity="0.333333" d="M1267.1948,-222.4755C1280.4247,-183.5549 1311.511,-92.1031 1327.2359,-45.8423"/>
<polygon fill="#444444" fill-opacity="0.333333" stroke="#444444" stroke-opacity="0.333333" points="1330.6211,-46.7584 1330.5257,-36.164 1323.9935,-44.5055 1330.6211,-46.7584"/>
</g>
<!-- fontconfig&#45;&gt;freetype -->
<g id="edge5" class="edge">
<title>fontconfig&#45;&gt;freetype</title>
<path fill="none" stroke="#444444" stroke-opacity="0.333333" d="M1264.3209,-258.8993C1270.5127,-292.8311 1283.8558,-365.9537 1291.1983,-406.1919"/>
<polygon fill="#444444" fill-opacity="0.333333" stroke="#444444" stroke-opacity="0.333333" points="1287.7753,-406.9307 1293.0136,-416.14 1294.6615,-405.6741 1287.7753,-406.9307"/>
</g>
<!-- freetype&#45;&gt;libpng -->
<g id="edge6" class="edge">
<title>freetype&#45;&gt;libpng</title>
<path fill="none" stroke="#444444" stroke-opacity="0.333333" d="M1336.1413,-452.2424C1370.3124,-467.7598 1419.685,-490.1805 1456.3129,-506.8136"/>
<polygon fill="#444444" fill-opacity="0.333333" stroke="#444444" stroke-opacity="0.333333" points="1455.2547,-510.177 1465.807,-511.125 1458.149,-503.8034 1455.2547,-510.177"/>
</g>
<!-- libX11&#45;&gt;libX11&#45;common -->
<g id="edge7" class="edge">
<title>libX11&#45;&gt;libX11&#45;common</title>
<path fill="none" stroke="#444444" stroke-opacity="0.333333" d="M930.4259,-588.4892C911.0405,-622.0575 869.5588,-693.8885 846.9142,-733.1005"/>
<polygon fill="#444444" fill-opacity="0.333333" stroke="#444444" stroke-opacity="0.333333" points="843.8224,-731.4558 841.8523,-741.8658 849.8842,-734.9564 843.8224,-731.4558"/>
</g>
<!-- libX11&#45;&gt;libxcb -->
<g id="edge8" class="edge">
<title>libX11&#45;&gt;libxcb</title>
<path fill="none" stroke="#444444" stroke-opacity="0.333333" d="M947.4075,-588.594C966.8859,-643.6055 1025.0193,-807.7877 1048.3997,-873.8194"/>
<polygon fill="#444444" fill-opacity="0.333333" stroke="#444444" stroke-opacity="0.333333" points="1045.2054,-875.2843 1051.8425,-883.5426 1051.804,-872.9478 1045.2054,-875.2843"/>
</g>
<!-- libxcb&#45;&gt;curl&#45;minimal -->
<g id="edge9" class="edge">
<title>libxcb&#45;&gt;curl&#45;minimal</title>
<path fill="none" stroke="#444444" stroke-opacity="0.333333" d="M1073.0107,-920.0505C1103.0679,-957.3812 1171.6134,-1042.5137 1206.3653,-1085.6752"/>
<polygon fill="#444444" fill-opacity="0.333333" stroke="#444444" stroke-opacity="0.333333" points="1203.8461,-1088.1272 1212.8437,-1093.7213 1209.2984,-1083.7372 1203.8461,-1088.1272"/>
</g>
<!-- libxcb&#45;&gt;libXau -->
<g id="edge10" class="edge">
<title>libxcb&#45;&gt;libXau</title>
<path fill="none" stroke="#444444" stroke-opacity="0.333333" d="M1050.3942,-920.0552C1034.9981,-955.6452 1000.9188,-1034.4235 982.8056,-1076.2943"/>
<polygon fill="#444444" fill-opacity="0.333333" stroke="#444444" stroke-opacity="0.333333" points="979.5331,-1075.0439 978.775,-1085.6116 985.9577,-1077.8232 979.5331,-1075.0439"/>
</g>
<!-- libXft&#45;&gt;fontconfig -->
<g id="edge11" class="edge">
<title>libXft&#45;&gt;fontconfig</title>
<path fill="none" stroke="#444444" stroke-opacity="0.333333" d="M1155.7393,-381.5049C1176.7933,-353.3415 1217.2972,-299.1603 1241.4593,-266.8392"/>
<polygon fill="#444444" fill-opacity="0.333333" stroke="#444444" stroke-opacity="0.333333" points="1244.3355,-268.8373 1247.5197,-258.7323 1238.7289,-264.646 1244.3355,-268.8373"/>
</g>
<!-- libXft&#45;&gt;freetype -->
<g id="edge12" class="edge">
<title>libXft&#45;&gt;freetype</title>
<path fill="none" stroke="#444444" stroke-opacity="0.333333" d="M1185.4637,-409.4239C1199.9321,-412.6516 1216.3748,-416.3197 1232.0833,-419.8241"/>
<polygon fill="#444444" fill-opacity="0.333333" stroke="#444444" stroke-opacity="0.333333" points="1231.7497,-423.3356 1242.2719,-422.097 1233.2739,-416.5036 1231.7497,-423.3356"/>
</g>
<!-- libXft&#45;&gt;libX11 -->
<g id="edge13" class="edge">
<title>libXft&#45;&gt;libX11</title>
<path fill="none" stroke="#444444" stroke-opacity="0.333333" d="M1120.5713,-418.0018C1084.2717,-448.7763 1010.8633,-511.0112 970.0181,-545.6394"/>
<polygon fill="#444444" fill-opacity="0.333333" stroke="#444444" stroke-opacity="0.333333" points="967.6683,-543.043 962.3039,-552.1794 972.195,-548.3824 967.6683,-543.043"/>
</g>
<!-- libXft&#45;&gt;libXrender -->
<g id="edge14" class="edge">
<title>libXft&#45;&gt;libXrender</title>
<path fill="none" stroke="#444444" stroke-opacity="0.333333" d="M1115.3349,-381.5466C1090.7459,-364.8233 1054.1511,-339.9347 1027.279,-321.6585"/>
<polygon fill="#444444" fill-opacity="0.333333" stroke="#444444" stroke-opacity="0.333333" points="1029.1606,-318.7055 1018.9234,-315.9758 1025.2239,-324.4937 1029.1606,-318.7055"/>
</g>
<!-- libXrender&#45;&gt;libX11 -->
<g id="edge15" class="edge">
<title>libXrender&#45;&gt;libX11</title>
<path fill="none" stroke="#444444" stroke-opacity="0.333333" d="M988.9337,-316.2239C980.1267,-362.838 956.7959,-486.3243 946.2448,-542.1697"/>
<polygon fill="#444444" fill-opacity="0.333333" stroke="#444444" stroke-opacity="0.333333" points="942.7887,-541.6098 944.3713,-552.0857 949.667,-542.9094 942.7887,-541.6098"/>
</g>
<!-- python3&#45;debug&#45;&gt;libX11 -->
<g id="edge16" class="edge">
<title>python3&#45;debug&#45;&gt;libX11</title>
<path fill="none" stroke="#444444" stroke-opacity="0.333333" d="M723.4212,-479.0236C768.6763,-498.0146 839.9306,-527.9162 888.457,-548.28"/>
<polygon fill="#444444" fill-opacity="0.333333" stroke="#444444" stroke-opacity="0.333333" points="887.2695,-551.5773 897.8449,-552.2196 889.9782,-545.1226 887.2695,-551.5773"/>
</g>
<!-- python3&#45;debug&#45;&gt;python3&#45;devel -->
<g id="edge17" class="edge">
<title>python3&#45;debug&#45;&gt;python3&#45;devel</title>
<path fill="none" stroke="#444444" stroke-opacity="0.333333" d="M610.3599,-479.0043C555.0435,-493.2474 477.8277,-513.1293 420.1375,-527.9837"/>
<polygon fill="#444444" fill-opacity="0.333333" stroke="#444444" stroke-opacity="0.333333" points="419.1406,-524.6261 410.3292,-530.5091 420.8861,-531.405 419.1406,-524.6261"/>
</g>
<!-- python3&#45;debug&#45;&gt;python3&#45;test -->
<g id="edge18" class="edge">
<title>python3&#45;debug&#45;&gt;python3&#45;test</title>
<path fill="none" stroke="#444444" stroke-opacity="0.333333" d="M661.3094,-442.7116C631.0016,-413.7251 571.8027,-357.1069 537.4706,-324.2714"/>
<polygon fill="#444444" fill-opacity="0.333333" stroke="#444444" stroke-opacity="0.333333" points="539.7769,-321.6341 530.1309,-317.2517 534.9386,-326.6929 539.7769,-321.6341"/>
</g>
<!-- python3&#45;debug&#45;&gt;python3&#45;tkinter -->
<g id="edge19" class="edge">
<title>python3&#45;debug&#45;&gt;python3&#45;tkinter</title>
<path fill="none" stroke="#444444" stroke-opacity="0.333333" d="M726.0715,-442.9118C738.7244,-437.9089 752.5965,-432.424 765.736,-427.2287"/>
<polygon fill="#444444" fill-opacity="0.333333" stroke="#444444" stroke-opacity="0.333333" points="767.1337,-430.4398 775.1463,-423.5079 764.5598,-423.9301 767.1337,-430.4398"/>
</g>
<!-- python3&#45;debug&#45;&gt;python3&#45;tools -->
<g id="edge20" class="edge">
<title>python3&#45;debug&#45;&gt;python3&#45;tools</title>
<path fill="none" stroke="#444444" stroke-opacity="0.333333" d="M679.8928,-442.8364C678.9685,-409.7943 677.0041,-339.5662 675.9021,-300.1672"/>
<polygon fill="#444444" fill-opacity="0.333333" stroke="#444444" stroke-opacity="0.333333" points="679.394,-299.8269 675.6157,-289.9287 672.3968,-300.0227 679.394,-299.8269"/>
</g>
<!-- python3&#45;debug&#45;&gt;tk -->
<g id="edge21" class="edge">
<title>python3&#45;debug&#45;&gt;tk</title>
<path fill="none" stroke="#444444" stroke-opacity="0.333333" d="M760.9283,-452.4166C830.1714,-445.0618 926.9184,-434.7857 979.3143,-429.2204"/>
<polygon fill="#444444" fill-opacity="0.333333" stroke="#444444" stroke-opacity="0.333333" points="979.9142,-432.6764 989.4886,-428.1397 979.1748,-425.7156 979.9142,-432.6764"/>
</g>
<!-- python3&#45;devel&#45;&gt;python3&#45;rpm&#45;generators -->
<g id="edge22" class="edge">
<title>python3&#45;devel&#45;&gt;python3&#45;rpm&#45;generators</title>
<path fill="none" stroke="#444444" stroke-opacity="0.333333" d="M319.6781,-530.2865C289.5985,-503.7933 233.7152,-454.5731 199.852,-424.7475"/>
<polygon fill="#444444" fill-opacity="0.333333" stroke="#444444" stroke-opacity="0.333333" points="201.9745,-421.9529 192.1569,-417.9699 197.3478,-427.2059 201.9745,-421.9529"/>
</g>
<!-- python3&#45;devel&#45;&gt;python3&#45;rpm&#45;macros -->
<g id="edge23" class="edge">
<title>python3&#45;devel&#45;&gt;python3&#45;rpm&#45;macros</title>
<path fill="none" stroke="#444444" stroke-opacity="0.333333" d="M265.3297,-566.5567C241.9308,-572.1801 215.9646,-578.4205 191.9518,-584.1914"/>
<polygon fill="#444444" fill-opacity="0.333333" stroke="#444444" stroke-opacity="0.333333" points="191.0549,-580.8072 182.1497,-586.5471 192.6907,-587.6134 191.0549,-580.8072"/>
</g>
<!-- python3&#45;devel&#45;&gt;python&#45;rpm&#45;macros -->
<g id="edge24" class="edge">
<title>python3&#45;devel&#45;&gt;python&#45;rpm&#45;macros</title>
<path fill="none" stroke="#444444" stroke-opacity="0.333333" d="M333.6092,-566.6304C319.9823,-603.0799 289.1673,-685.504 272.9603,-728.8544"/>
<polygon fill="#444444" fill-opacity="0.333333" stroke="#444444" stroke-opacity="0.333333" points="269.5841,-727.8907 269.3605,-738.4832 276.1408,-730.3421 269.5841,-727.8907"/>
</g>
<!-- python3&#45;test&#45;&gt;python3&#45;tools -->
<g id="edge25" class="edge">
<title>python3&#45;test&#45;&gt;python3&#45;tools</title>
<path fill="none" stroke="#444444" stroke-opacity="0.333333" d="M586.8693,-286.4904C587.0266,-286.4643 587.184,-286.4382 587.3415,-286.4121"/>
<polygon fill="#444444" fill-opacity="0.333333" stroke="#444444" stroke-opacity="0.333333" points="585.1446,-290.3245 594.4369,-285.2349 583.9988,-283.4189 585.1446,-290.3245"/>
</g>
<!-- python3&#45;tkinter&#45;&gt;libX11 -->
<g id="edge26" class="edge">
<title>python3&#45;tkinter&#45;&gt;libX11</title>
<path fill="none" stroke="#444444" stroke-opacity="0.333333" d="M834.3551,-423.6328C855.5606,-452.8156 897.1569,-510.0599 921.641,-543.7547"/>
<polygon fill="#444444" fill-opacity="0.333333" stroke="#444444" stroke-opacity="0.333333" points="919.0582,-546.1544 927.7681,-552.1867 924.7211,-542.0395 919.0582,-546.1544"/>
</g>
<!-- python3&#45;tkinter&#45;&gt;tk -->
<g id="edge27" class="edge">
<title>python3&#45;tkinter&#45;&gt;tk</title>
<path fill="none" stroke="#444444" stroke-opacity="0.333333" d="M912.2518,-414.6347C935.9411,-417.0468 960.1482,-419.5118 979.2758,-421.4594"/>
<polygon fill="#444444" fill-opacity="0.333333" stroke="#444444" stroke-opacity="0.333333" points="979.041,-424.9535 989.3441,-422.4846 979.7501,-417.9895 979.041,-424.9535"/>
</g>
<!-- python3&#45;tools&#45;&gt;python3&#45;tkinter -->
<g id="edge28" class="edge">
<title>python3&#45;tools&#45;&gt;python3&#45;tkinter</title>
<path fill="none" stroke="#444444" stroke-opacity="0.333333" d="M694.7948,-289.8544C720.2583,-313.1442 764.7546,-353.842 793.5533,-380.1823"/>
<polygon fill="#444444" fill-opacity="0.333333" stroke="#444444" stroke-opacity="0.333333" points="791.4897,-383.038 801.2309,-387.2045 796.2141,-377.8727 791.4897,-383.038"/>
</g>
<!-- tk&#45;&gt;fontconfig -->
<g id="edge29" class="edge">
<title>tk&#45;&gt;fontconfig</title>
<path fill="none" stroke="#444444" stroke-opacity="0.333333" d="M1040.4791,-407.2276C1084.6475,-373.8736 1179.1232,-302.5297 1228.8596,-264.971"/>
<polygon fill="#444444" fill-opacity="0.333333" stroke="#444444" stroke-opacity="0.333333" points="1231.153,-267.625 1237.024,-258.8056 1226.9345,-262.0389 1231.153,-267.625"/>
</g>
<!-- tk&#45;&gt;freetype -->
<g id="edge30" class="edge">
<title>tk&#45;&gt;freetype</title>
<path fill="none" stroke="#444444" stroke-opacity="0.333333" d="M1043.673,-426.1205C1086.8946,-427.4942 1172.6708,-430.2206 1232.2089,-432.1129"/>
<polygon fill="#444444" fill-opacity="0.333333" stroke="#444444" stroke-opacity="0.333333" points="1232.159,-435.613 1242.2652,-432.4326 1232.3815,-428.6165 1232.159,-435.613"/>
</g>
<!-- tk&#45;&gt;libX11 -->
<g id="edge31" class="edge">
<title>tk&#45;&gt;libX11</title>
<path fill="none" stroke="#444444" stroke-opacity="0.333333" d="M1007.1693,-443.3362C994.1417,-468.3069 970.5257,-513.5725 955.2956,-542.7648"/>
<polygon fill="#444444" fill-opacity="0.333333" stroke="#444444" stroke-opacity="0.333333" points="952.002,-541.5112 950.4795,-551.996 958.2082,-544.7491 952.002,-541.5112"/>
</g>
<!-- tk&#45;&gt;libXft -->
<g id="edge32" class="edge">
<title>tk&#45;&gt;libXft</title>
<path fill="none" stroke="#444444" stroke-opacity="0.333333" d="M1043.8316,-419.7247C1056.9601,-417.0561 1073.1813,-413.7589 1088.6344,-410.6178"/>
<polygon fill="#444444" fill-opacity="0.333333" stroke="#444444" stroke-opacity="0.333333" points="1089.5357,-414.0062 1098.6381,-408.5844 1088.1413,-407.1465 1089.5357,-414.0062"/>
</g>
<!-- aajohan&#45;comfortaa&#45;fonts -->
<g id="node1" class="node">
<title>aajohan&#45;comfortaa&#45;fonts</title>
<text text-anchor="middle" x="1458.5" y="-107.25" font-family="monospace" font-size="14.00" fill="#000000">aajohan&#45;comfortaa&#45;fonts</text>
</g>
<!-- fontpackages&#45;filesystem -->
<g id="node2" class="node">
<title>fontpackages&#45;filesystem</title>
<text text-anchor="middle" x="1336.7" y="-14.3" font-family="monospace" font-size="14.00" fill="#000000">fontpackages&#45;filesystem</text>
</g>
<!-- curl&#45;minimal -->
<g id="node3" class="node">
<title>curl&#45;minimal</title>
<text text-anchor="middle" x="1227.4" y="-1108.1" font-family="monospace" font-size="14.00" fill="#000000">curl&#45;minimal</text>
</g>
<!-- libcurl&#45;minimal -->
<g id="node4" class="node">
<title>libcurl&#45;minimal</title>
<text text-anchor="middle" x="1344.8" y="-1285.6" font-family="monospace" font-size="14.00" fill="#000000">libcurl&#45;minimal</text>
</g>
<!-- fontconfig -->
<g id="node5" class="node">
<title>fontconfig</title>
<text text-anchor="middle" x="1261" y="-237" font-family="monospace" font-size="14.00" fill="#000000">fontconfig</text>
</g>
<!-- freetype -->
<g id="node6" class="node">
<title>freetype</title>
<text text-anchor="middle" x="1296.3" y="-430.45" font-family="monospace" font-size="14.00" fill="#000000">freetype</text>
</g>
<!-- libpng -->
<g id="node7" class="node">
<title>libpng</title>
<text text-anchor="middle" x="1505.5" y="-525.45" font-family="monospace" font-size="14.00" fill="#000000">libpng</text>
</g>
<!-- libX11 -->
<g id="node8" class="node">
<title>libX11</title>
<text text-anchor="middle" x="940.93" y="-566.6" font-family="monospace" font-size="14.00" fill="#000000">libX11</text>
</g>
<!-- libX11&#45;common -->
<g id="node9" class="node">
<title>libX11&#45;common</title>
<text text-anchor="middle" x="831.38" y="-756.3" font-family="monospace" font-size="14.00" fill="#000000">libX11&#45;common</text>
</g>
<!-- libxcb -->
<g id="node10" class="node">
<title>libxcb</title>
<text text-anchor="middle" x="1058.3" y="-898.08" font-family="monospace" font-size="14.00" fill="#000000">libxcb</text>
</g>
<!-- libXau -->
<g id="node11" class="node">
<title>libXau</title>
<text text-anchor="middle" x="970.95" y="-1100" font-family="monospace" font-size="14.00" fill="#000000">libXau</text>
</g>
<!-- libXft -->
<g id="node12" class="node">
<title>libXft</title>
<text text-anchor="middle" x="1142.1" y="-396.05" font-family="monospace" font-size="14.00" fill="#000000">libXft</text>
</g>
<!-- libXrender -->
<g id="node13" class="node">
<title>libXrender</title>
<text text-anchor="middle" x="992.39" y="-294.23" font-family="monospace" font-size="14.00" fill="#000000">libXrender</text>
</g>
<!-- python3&#45;debug -->
<g id="node14" class="node">
<title>python3&#45;debug</title>
<text text-anchor="middle" x="680.4" y="-457.27" font-family="monospace" font-size="14.00" fill="#000000">python3&#45;debug</text>
</g>
<!-- python3&#45;devel -->
<g id="node15" class="node">
<title>python3&#45;devel</title>
<text text-anchor="middle" x="340.38" y="-544.82" font-family="monospace" font-size="14.00" fill="#000000">python3&#45;devel</text>
</g>
<!-- python3&#45;test -->
<g id="node16" class="node">
<title>python3&#45;test</title>
<text text-anchor="middle" x="511.11" y="-295.36" font-family="monospace" font-size="14.00" fill="#000000">python3&#45;test</text>
</g>
<!-- python3&#45;tkinter -->
<g id="node17" class="node">
<title>python3&#45;tkinter</title>
<text text-anchor="middle" x="821.07" y="-401.65" font-family="monospace" font-size="14.00" fill="#000000">python3&#45;tkinter</text>
</g>
<!-- python3&#45;tools -->
<g id="node18" class="node">
<title>python3&#45;tools</title>
<text text-anchor="middle" x="675.11" y="-268.15" font-family="monospace" font-size="14.00" fill="#000000">python3&#45;tools</text>
</g>
<!-- tk -->
<g id="node19" class="node">
<title>tk</title>
<text text-anchor="middle" x="1016.6" y="-421.56" font-family="monospace" font-size="14.00" fill="#000000">tk</text>
</g>
<!-- python3&#45;rpm&#45;generators -->
<g id="node20" class="node">
<title>python3&#45;rpm&#45;generators</title>
<text text-anchor="middle" x="171.55" y="-396.12" font-family="monospace" font-size="14.00" fill="#000000">python3&#45;rpm&#45;generators</text>
</g>
<!-- python3&#45;rpm&#45;macros -->
<g id="node21" class="node">
<title>python3&#45;rpm&#45;macros</title>
<text text-anchor="middle" x="107.24" y="-600.85" font-family="monospace" font-size="14.00" fill="#000000">python3&#45;rpm&#45;macros</text>
</g>
<!-- python&#45;rpm&#45;macros -->
<g id="node22" class="node">
<title>python&#45;rpm&#45;macros</title>
<text text-anchor="middle" x="262.55" y="-753" font-family="monospace" font-size="14.00" fill="#000000">python&#45;rpm&#45;macros</text>
</g>
</g>
</svg>
