<?xml version="1.0" encoding="UTF-8" standalone="no"?>
<!DOCTYPE svg PUBLIC "-//W3C//DTD SVG 1.1//EN"
 "http://www.w3.org/Graphics/SVG/1.1/DTD/svg11.dtd">
<!-- Generated by graphviz version 2.40.1 (20161225.0304)
 -->
<!-- Title: G Pages: 1 -->
<svg width="3552pt" height="1509pt"
 viewBox="0.00 0.00 3552.28 1508.58" xmlns="http://www.w3.org/2000/svg" xmlns:xlink="http://www.w3.org/1999/xlink">
<g id="graph0" class="graph" transform="scale(1 1) rotate(0) translate(174.1581 1318.9991)">
<title>G</title>
<polygon fill="#dae2ff" stroke="transparent" points="-174.1581,189.577 -174.1581,-1318.9991 3378.1265,-1318.9991 3378.1265,189.577 -174.1581,189.577"/>
<polygon fill="#fbb4ae" stroke="#fbb4ae" points="1599.2153,14.2293 1572.9352,-32.4429 1518.1726,-137.7642 1502.6464,-166.3201 1392.2339,-131.7693 1387.6353,-130.4582 1375.8308,-127.4209 1375.9196,-116.2045 1373.7543,-18.3349 1368.74,-18.3349 1367.9973,-18.1093 1366.9468,-18.1093 1363.2476,-14.7665 1357.9576,-13.1735 1357.9576,-13.1735 1363.2476,-14.7665 1366.9468,-18.1093 1363.0377,-21.5567 1358.2998,-22.9195 1352.6157,-21.1879 1348.87,-17.7402 1347.98,-17.7402 1347.98,-17.7402 1348.87,-17.7402 1352.6157,-21.1879 1358.2998,-22.9195 1363.0377,-21.5567 1366.9468,-18.1093 1367.9973,-18.1093 1368.74,-18.3349 1373.7543,-18.3349 1375.9196,-116.2045 1375.8308,-127.4209 1367.0243,-125.6495 1366.9451,-125.6358 1350.2816,-123.2164 1333.0404,-122.6465 1329.8718,-122.7195 1325.2449,-122.6963 1320.4257,-122.4015 1309.1064,-122.0275 1294.8484,-120.3564 1284.5095,-118.5653 1277.4492,-117.1453 1260.5071,-112.3109 1168.2456,-83.44 1154.2086,-161.6003 1148.7194,-197.1933 1051.692,-190.0071 1029.6611,-191.7897 1024.3757,-187.3578 1023.3172,-185.4514 1019.7994,-185.4514 1019.2429,-184.7869 1019.2429,-184.7869 1019.7994,-185.4514 1023.3172,-185.4514 1024.3757,-187.3578 1029.6611,-191.7897 1051.692,-190.0071 1148.7194,-197.1933 1147.3167,-210.9874 1147.0775,-212.5344 1133.7125,-223.0732 1128.722,-226.8063 1118.1552,-234.2849 1054.5205,-276.6617 1062.5623,-334.0563 1062.7777,-339.744 1063.2871,-345.4178 1063.4783,-350.4308 1065.5299,-373.237 1071.0601,-412.7058 1116.3997,-440.1915 1097.6423,-486.2276 1088.7112,-516.3156 1087.6632,-520.7755 1080.8352,-525.7599 1068.9001,-532.6005 1065.0903,-534.1789 1056.0735,-537.2274 1047.79,-539.3727 1045.0117,-539.8696 1044.5653,-539.9144 1032.4166,-540.1878 1031.6283,-540.1436 1033.5806,-502.1844 1031.0209,-499.0991 1027.2689,-497.6245 1026.7622,-497.2108 1023.2889,-497.2108 1022.897,-497.0919 1021.8568,-457.217 1023.8714,-424.2183 1008.3528,-425.5056 998.76,-425.4733 995.7571,-425.593 995.043,-405.4373 990.3267,-357.8222 994.1793,-354.2038 990.1862,-350.5272 986.0986,-349.3621 986.0986,-349.3621 990.1862,-350.5272 994.1793,-354.2038 990.3267,-357.8222 985.8559,-359.1401 985.8559,-359.1401 990.3267,-357.8222 995.043,-405.4373 995.7571,-425.593 995.4562,-425.6311 994.1864,-425.7367 993.3867,-425.7688 991.1767,-425.7626 983.1981,-425.3956 979.3121,-425.5541 976.283,-425.5468 974.4713,-354.6166 973.0062,-355.3611 969.5881,-359.1906 926.7656,-371.4904 925.8342,-367.0503 925.3857,-363.6688 896.2711,-362.2997 883.6475,-358.3224 878.6522,-361.0578 877.0439,-314.0039 872.6027,-364.6835 868.3616,-364.6835 867.5697,-364.9083 864.3817,-364.9083 863.015,-364.5135 858.1923,-364.5135 857.3049,-308.0198 863.9398,-308.1978 867.7205,-308.096 867.7651,-308.0996 877.1949,-308.3518 880.7211,-308.0674 882.4042,-308.112 888.6502,-307.9434 888.6522,-301.3132 888.6522,-301.3132 888.6502,-307.9434 882.4042,-308.112 880.7211,-308.0674 879.9086,-290.9807 879.9086,-290.9807 880.7211,-308.0674 877.1949,-308.3518 867.7651,-308.0996 867.7205,-308.096 863.9398,-308.1978 857.3049,-308.0198 856.9675,-307.9927 854.4999,-307.9267 855.595,-255.7272 861.2094,-252.5308 862.013,-251.6538 860.2324,-249.5518 855.6461,-246.9265 855.6461,-246.9265 860.2324,-249.5518 862.013,-251.6538 861.2094,-252.5308 855.595,-255.7272 854.4999,-307.9267 850.8557,-308.024 850.2279,-308.0742 845.1557,-307.9383 842.759,-308.002 842.0597,-307.9832 834.6268,-308.1809 832.729,-308.1299 830.4406,-308.1903 828.0294,-307.997 824.9631,-307.9147 822.4612,-307.9804 820.4876,-307.8214 820.427,-306.935 820.427,-306.935 820.4876,-307.8214 822.4612,-307.9804 824.9631,-307.9147 828.0294,-307.997 830.4406,-308.1903 832.729,-308.1299 834.6268,-308.1809 842.0597,-307.9832 842.759,-308.002 845.1557,-307.9383 850.2279,-308.0742 850.8557,-308.024 854.4999,-307.9267 856.9675,-307.9927 857.3049,-308.0198 858.1923,-364.5135 863.015,-364.5135 864.3817,-364.9083 859.4467,-400.6134 857.5988,-364.6849 853.8627,-364.6849 852.4461,-365.1005 848.0429,-365.1005 846.9759,-364.7906 842.7285,-364.7906 842.2253,-364.9327 841.8574,-364.9327 837.9885,-361.6629 832.6924,-360.1162 832.6924,-360.1162 837.9885,-361.6629 841.8574,-364.9327 838.1248,-368.0041 832.4658,-369.6317 827.4202,-368.1915 827.3491,-425.474 823.9091,-425.4868 822.036,-365.1043 817.0779,-365.1043 817.9145,-425.6776 809.3987,-425.6654 807.3649,-425.451 806.9775,-425.4485 797.3321,-425.8618 791.6432,-425.5144 792.5715,-406.8823 791.4326,-364.8402 787.3061,-364.8402 786.5816,-365.4678 784.9243,-366.1829 781.2637,-370.2181 730.5144,-380.3549 732.2172,-391.6379 692.1683,-393.855 679.8661,-390.9612 679.8661,-390.9612 692.1683,-393.855 675.8322,-399.5064 674.4651,-399.0676 672.2786,-397.3991 669.6631,-397.3991 668.9585,-397.6097 664.2573,-397.6097 661.2266,-439.8578 657.4944,-397.5101 656.7974,-397.5101 652.4555,-393.6434 648.1182,-392.4186 641.9402,-394.3007 638.5792,-397.2821 642.6408,-400.9647 647.2853,-402.3074 647.2853,-402.3074 642.6408,-400.9647 638.5792,-397.2821 641.9402,-394.3007 648.1182,-392.4186 652.4555,-393.6434 656.7974,-397.5101 657.4944,-397.5101 661.2266,-439.8578 664.2573,-397.6097 668.9585,-397.6097 669.6631,-397.3991 672.2786,-397.3991 674.4651,-399.0676 675.8322,-399.5064 692.1683,-393.855 732.2172,-391.6379 730.5144,-380.3549 781.2637,-370.2181 784.9243,-366.1829 786.5816,-365.4678 787.3061,-364.8402 791.4326,-364.8402 792.5715,-406.8823 791.6432,-425.5144 797.3321,-425.8618 806.9775,-425.4485 807.3649,-425.451 809.3987,-425.6654 817.9145,-425.6776 817.0779,-365.1043 822.036,-365.1043 823.9091,-425.4868 819.143,-425.7401 819.479,-449.5381 816.4682,-486.3421 812.5515,-486.3421 811.7519,-486.5877 805.5799,-486.5877 805.2355,-486.6902 802.1129,-486.6902 797.8107,-449.4271 795.2877,-483.1455 790.7201,-481.7957 790.7201,-481.7957 795.2877,-483.1455 799.2867,-486.8547 796.0283,-489.7221 790.4985,-491.4001 790.4985,-491.4001 796.0283,-489.7221 799.2867,-486.8547 795.2877,-483.1455 797.8107,-449.4271 802.1129,-486.6902 805.2355,-486.6902 805.5799,-486.5877 811.7519,-486.5877 812.5515,-486.3421 816.4682,-486.3421 819.479,-449.5381 819.143,-425.7401 823.9091,-425.4868 827.3491,-425.474 827.4202,-368.1915 832.4658,-369.6317 838.1248,-368.0041 841.8574,-364.9327 842.2253,-364.9327 842.7285,-364.7906 846.9759,-364.7906 848.0429,-365.1005 852.4461,-365.1005 853.8627,-364.6849 857.5988,-364.6849 859.4467,-400.6134 864.3817,-364.9083 867.5697,-364.9083 868.3616,-364.6835 872.6027,-364.6835 872.9276,-364.7778 872.9276,-364.7778 872.6027,-364.6835 877.0439,-314.0039 878.6522,-361.0578 883.6475,-358.3224 896.2711,-362.2997 925.3857,-363.6688 925.8342,-367.0503 926.7656,-371.4904 969.5881,-359.1906 973.0062,-355.3611 974.4713,-354.6166 976.283,-425.5468 979.3121,-425.5541 983.1981,-425.3956 991.1767,-425.7626 993.3867,-425.7688 990.09,-496.9587 985.4465,-496.9587 983.8586,-541.4759 984.0528,-546.3698 972.9893,-537.9354 974.5684,-502.5831 930.1577,-508.5646 927.5563,-506.6116 922.7084,-501.9983 920.1341,-499.2748 914.2122,-493.7093 901.9282,-479.8681 902.3077,-513.6577 899.7455,-557.1399 895.1804,-554.6561 890.0653,-554.6561 885.6344,-557.1325 882.5343,-530.4813 878.5564,-558.9708 874.5023,-558.9708 873.2154,-559.3364 871.2001,-559.3364 869.3895,-558.8184 869.3895,-558.8184 871.2001,-559.3364 873.2154,-559.3364 874.5023,-558.9708 878.5564,-558.9708 882.5343,-530.4813 885.6344,-557.1325 883.465,-559.7261 884.9558,-561.3397 889.1038,-563.5685 895.3483,-563.5685 895.3483,-563.5685 889.1038,-563.5685 884.9558,-561.3397 883.465,-559.7261 885.6344,-557.1325 890.0653,-554.6561 895.1804,-554.6561 899.7455,-557.1399 902.3077,-513.6577 901.9282,-479.8681 914.2122,-493.7093 920.1341,-499.2748 922.7084,-501.9983 927.5563,-506.6116 930.1577,-508.5646 974.5684,-502.5831 972.9893,-537.9354 984.0528,-546.3698 983.8586,-541.4759 985.4465,-496.9587 990.09,-496.9587 993.3867,-425.7688 994.1864,-425.7367 995.4562,-425.6311 995.7571,-425.593 998.76,-425.4733 1008.3528,-425.5056 1023.8714,-424.2183 1021.8568,-457.217 1022.897,-497.0919 1023.2889,-497.2108 1026.7622,-497.2108 1027.2689,-497.6245 1031.0209,-499.0991 1033.5806,-502.1844 1031.6283,-540.1436 1031.1317,-540.1545 1020.1855,-541.2569 1017.7944,-541.683 1012.0576,-543.1547 1008.1222,-544.472 1003.0991,-546.5526 995.9999,-550.0626 990.3846,-553.2815 988.5222,-562.3217 987.4319,-577.7452 983.7164,-595.6288 951.5414,-713.2154 959.4573,-728.0824 942.3159,-742.9803 803.97,-858.5917 790.6482,-870.5477 793.6855,-703.965 793.8261,-703.9247 795.9203,-703.9247 798.2539,-707.1004 798.2539,-707.1004 795.9203,-703.9247 793.8261,-703.9247 793.6855,-703.965 790.6482,-870.5477 788.8253,-872.2383 786.8122,-874.2299 775.0447,-885.0327 774.5215,-842.3165 770.9238,-730.4255 766.2542,-704.1626 766.2542,-704.1626 770.9238,-730.4255 774.5215,-842.3165 775.0447,-885.0327 754.4154,-905.7518 748.7178,-911.952 732.6877,-929.8557 728.4301,-934.9655 722.231,-942.2014 721.7518,-794.7488 715.7654,-703.9367 717.3528,-703.4682 711.2462,-650.906 707.7934,-590.8623 706.0955,-590.5098 703.4039,-589.8112 703.4039,-589.8112 706.0955,-590.5098 707.7934,-590.8623 711.2462,-650.906 717.3528,-703.4682 715.7654,-703.9367 721.7518,-794.7488 722.231,-942.2014 715.715,-950.3464 696.0792,-976.0119 681.3534,-996.0607 684.5873,-859.1263 685.4897,-709.0941 509.9026,-747.2667 468.3445,-677.5493 422.5139,-605.3477 390.7221,-590.539 389.2554,-712.9215 389.2554,-712.9215 390.7221,-590.539 422.5139,-605.3477 468.3445,-677.5493 509.9026,-747.2667 685.4897,-709.0941 684.5873,-859.1263 681.3534,-996.0607 672.3617,-1008.7809 667.4504,-1009.2216 631.4236,-952.4647 389.992,-893.2088 387.5472,-890.3926 384.1711,-889.222 382.7133,-888.0867 380.0149,-888.0867 379.6389,-887.9735 379.6389,-887.9735 380.0149,-888.0867 382.7133,-888.0867 384.1711,-889.222 387.5472,-890.3926 389.992,-893.2088 631.4236,-952.4647 667.4504,-1009.2216 620.5798,-1049.2758 391.5729,-1105.5894 375.3752,-1110.0183 373.9054,-1110.4604 352.9933,-1117.0391 336.6551,-1123.0709 327.1878,-1126.8245 306.8917,-1169.9838 281.0047,-1227.1436 265.7819,-1240.7028 122.1866,-1314.9991 94.8856,-1308.3181 75.7638,-1304.1888 60.9162,-1301.8405 50.2033,-1300.4553 42.427,-1299.5624 42.7569,-1168.0081 42.7569,-1168.0081 42.427,-1299.5624 22.962,-1297.8903 -49.3379,-1292.7296 -149.8532,-1248.1305 -170.1581,-1214.4049 -168.7719,-1165.7262 -167.7252,-1088.0582 -167.7787,-1055.5012 -167.9158,-1047.2904 -140.3994,-977.9362 -56.4659,-921.611 35.1343,-885.0475 56.0918,-875.7313 57.5732,-875.0286 64.3144,-873.8241 70.9141,-872.478 95.1396,-866.9223 104.3038,-864.4758 188.6295,-723.5732 194.0867,-716.8901 331.0943,-623.0439 341.5514,-615.7186 350.0257,-609.5204 353.595,-606.7987 361.2263,-603.511 379.5033,-595.4244 390.2405,-590.3036 390.0553,-580.7535 409.9364,-430.7369 419.8791,-333.655 424.1731,-284.1016 492.0088,-235.1918 597.3613,-172.9203 611.7728,-143.1499 617.0819,-135.9218 744.1978,-15.7536 762.4528,-8.5496 781.71,-7.4335 819.3519,-4.841 825.5476,-4.1455 911.6604,41.5258 975.3559,58.256 999.1977,64.8103 1006.7524,67.0691 1019.4469,71.0175 1038.7404,77.714 1048.9832,76.931 1081.11,74.8168 1221.1523,181.0483 1230.812,185.577 1310.7687,182.883 1338.6469,182.333 1342.9581,182.3686 1361.5996,183.0446 1363.3198,183.155 1368.1211,183.5303 1382.3821,185.0445 1382.754,185.0944 1391.1858,184.5359 1469.3339,180.4426 1560.5785,142.4527 1617.1637,45.0472 1599.2153,14.2293 1599.2153,14.2293"/>
<polygon fill="#fed9a6" stroke="#fed9a6" points="1919.6821,-231.2831 1922.6078,-162.8655 1927.4801,-97.8462 1896.6754,-52.5561 1761.9849,17.4897 1748.4482,18.8929 1724.9513,21.6566 1716.5068,22.7666 1709.0136,23.8549 1712.3219,-131.1534 1716.6617,-185.1667 1717.1862,-185.7772 1716.0269,-187.1575 1710.8278,-190.261 1705.3502,-190.261 1705.3502,-190.261 1710.8278,-190.261 1716.0269,-187.1575 1717.1862,-185.7772 1716.6617,-185.1667 1710.4309,-181.3616 1705.4594,-181.3616 1705.4594,-181.3616 1710.4309,-181.3616 1716.6617,-185.1667 1712.3219,-131.1534 1709.0136,23.8549 1704.9435,24.5583 1677.689,30.4048 1683.9783,-120.4497 1683.6,-180.7778 1688.1105,-186.0356 1689.0237,-186.0356 1688.8724,-475.9916 1686.8265,-474.0878 1414.9331,-487.2972 1405.4745,-484.1105 1399.3446,-487.7922 1397.4602,-490.4886 1399.5579,-492.0371 1399.5579,-492.0371 1397.4602,-490.4886 1399.3446,-487.7922 1405.4745,-484.1105 1414.9331,-487.2972 1686.8265,-474.0878 1688.8724,-475.9916 1689.0237,-186.0356 1688.1105,-186.0356 1683.6,-180.7778 1683.9783,-120.4497 1677.689,30.4048 1617.1637,45.0472 1599.2153,14.2293 1572.9352,-32.4429 1518.1726,-137.7642 1502.6464,-166.3201 1392.2339,-131.7693 1387.6353,-130.4582 1375.8308,-127.4209 1367.0243,-125.6495 1366.9451,-125.6358 1350.2816,-123.2164 1333.0404,-122.6465 1329.8718,-122.7195 1325.2449,-122.6963 1323.2437,-184.7522 1318.4923,-227.0254 1318.1182,-227.1372 1322.2905,-254.1964 1322.5927,-299.8371 1314.4884,-299.72 1311.2981,-299.8089 1310.2507,-299.7936 1306.4843,-371.557 1306.1808,-371.8211 1301.6014,-371.8211 1300.8264,-372.0518 1297.0767,-372.0518 1293.1566,-411.826 1290.1505,-372.154 1285.74,-372.154 1285.7159,-372.1467 1283.5885,-372.1467 1280.074,-375.2877 1274.8453,-376.8454 1268.8331,-375.0151 1265.3639,-371.9977 1264.9525,-371.9977 1260.0992,-415.5041 1258.194,-371.8992 1257.9015,-371.8105 1254.0902,-371.8105 1252.7931,-372.2064 1247.2568,-372.2064 1246.6184,-372.0179 1244.4028,-372.0179 1242.8186,-370.773 1241.229,-370.2007 1237.2073,-366.3027 1234.8013,-296.3338 1224.8132,-294.0569 1184.304,-250.9145 1158.7798,-225.7356 1159.064,-297.7668 1159.064,-297.7668 1158.7798,-225.7356 1184.304,-250.9145 1224.8132,-294.0569 1234.8013,-296.3338 1237.2073,-366.3027 1241.229,-370.2007 1242.8186,-370.773 1244.4028,-372.0179 1246.6184,-372.0179 1247.2568,-372.2064 1252.7931,-372.2064 1254.0902,-371.8105 1257.9015,-371.8105 1258.194,-371.8992 1260.0992,-415.5041 1264.9525,-371.9977 1265.3639,-371.9977 1268.8331,-375.0151 1274.8453,-376.8454 1280.074,-375.2877 1283.5885,-372.1467 1285.7159,-372.1467 1285.74,-372.154 1290.1505,-372.154 1293.1566,-411.826 1297.0767,-372.0518 1300.8264,-372.0518 1301.6014,-371.8211 1301.3052,-299.6084 1295.7639,-299.5253 1293.8151,-299.4132 1292.4811,-299.393 1288.5063,-299.5005 1287.2437,-227.0076 1283.0706,-227.0076 1283.0706,-227.0076 1287.2437,-227.0076 1288.5063,-299.5005 1292.4811,-299.393 1293.8151,-299.4132 1295.7639,-299.5253 1301.3052,-299.6084 1301.6014,-371.8211 1306.1808,-371.8211 1306.4843,-371.557 1310.2507,-299.7936 1311.2981,-299.8089 1314.4884,-299.72 1314.1,-227.4195 1310.0391,-227.4195 1308.6909,-227.0065 1306.8972,-227.0065 1302.9214,-223.4046 1298.5151,-222.1478 1298.5151,-222.1478 1302.9214,-223.4046 1306.8972,-227.0065 1308.6909,-227.0065 1310.0391,-227.4195 1314.1,-227.4195 1314.4884,-299.72 1322.5927,-299.8371 1322.2905,-254.1964 1318.1182,-227.1372 1318.4923,-227.0254 1323.2437,-184.7522 1325.2449,-122.6963 1320.4257,-122.4015 1309.1064,-122.0275 1294.8484,-120.3564 1284.5095,-118.5653 1277.4492,-117.1453 1260.5071,-112.3109 1168.2456,-83.44 1154.2086,-161.6003 1148.7194,-197.1933 1147.3167,-210.9874 1147.0775,-212.5344 1133.7125,-223.0732 1128.722,-226.8063 1118.1552,-234.2849 1054.5205,-276.6617 1062.5623,-334.0563 1062.7777,-339.744 1063.2871,-345.4178 1063.4783,-350.4308 1065.5299,-373.237 1071.0601,-412.7058 1116.3997,-440.1915 1097.6423,-486.2276 1088.7112,-516.3156 1087.6632,-520.7755 1080.8352,-525.7599 1068.9001,-532.6005 1065.0903,-534.1789 1056.0735,-537.2274 1047.79,-539.3727 1045.0117,-539.8696 1045.8362,-583.6016 1045.8933,-583.619 1051.8839,-583.619 1051.895,-583.6158 1052.2957,-583.6158 1055.9742,-586.7517 1061.4329,-588.371 1061.4329,-588.371 1055.9742,-586.7517 1067.3729,-740.6031 1068.8092,-740.7809 1075.4374,-742.0947 1088.8328,-734.1033 1086.8293,-634.2316 1088.7889,-590.0616 1101.1241,-586.2522 1129.2354,-585.4092 1144.8348,-602.7971 1145.1307,-586.27 1145.1307,-586.27 1144.8348,-602.7971 1129.2354,-585.4092 1101.1241,-586.2522 1088.7889,-590.0616 1086.8293,-634.2316 1088.8328,-734.1033 1188.8489,-679.4761 1180.9377,-661.827 1179.5016,-658.8166 1178.9614,-617.4078 1178.9614,-617.4078 1179.5016,-658.8166 1180.9377,-661.827 1188.8489,-679.4761 1088.8328,-734.1033 1075.4374,-742.0947 1068.8092,-740.7809 1067.3729,-740.6031 1055.9742,-586.7517 1052.2957,-583.6158 1051.895,-583.6158 1051.8839,-583.619 1045.8933,-583.619 1045.8362,-583.6016 1045.0117,-539.8696 1044.5653,-539.9144 1032.4166,-540.1878 1031.6283,-540.1436 1031.1317,-540.1545 1020.1855,-541.2569 1017.7944,-541.683 1012.0576,-543.1547 1008.1222,-544.472 1003.0991,-546.5526 995.9999,-550.0626 990.3846,-553.2815 988.5222,-562.3217 987.4319,-577.7452 983.7164,-595.6288 951.5414,-713.2154 959.4573,-728.0824 942.3159,-742.9803 803.97,-858.5917 790.6482,-870.5477 788.8253,-872.2383 786.8122,-874.2299 775.0447,-885.0327 754.4154,-905.7518 748.7178,-911.952 732.6877,-929.8557 728.4301,-934.9655 722.231,-942.2014 715.715,-950.3464 696.0792,-976.0119 681.3534,-996.0607 672.3617,-1008.7809 903.2235,-1131.9977 935.1004,-1136.5426 935.3177,-1136.5059 958.0624,-1132.9176 970.2418,-1131.2844 978.2727,-1130.3976 979.9945,-923.3529 983.4224,-895.8228 987.5676,-895.8228 994.9758,-891.1566 994.7216,-890.8609 988.2296,-886.7925 988.2296,-886.7925 994.7216,-890.8609 994.9758,-891.1566 987.5676,-895.8228 983.4224,-895.8228 979.9945,-923.3529 978.2727,-1130.3976 990.488,-1129.3376 1004.3438,-1128.4631 1002.1327,-935.9087 1005.0101,-891.0382 1004.9803,-891.0295 1004.9803,-891.0295 1005.0101,-891.0382 1002.1327,-935.9087 1004.3438,-1128.4631 1012.5043,-1128.1415 1023.3749,-1127.8416 1060.4542,-1127.6959 1186.8683,-1089.7837 1201.0162,-1077.3446 1203.1527,-1076.6572 1237.2028,-1066.5027 1231.4647,-915.7922 1231.1783,-879.8618 1233.8024,-817.4575 1227.8097,-817.4575 1229.1041,-774.1333 1227.2006,-734.5884 1226.5209,-677.1046 1222.5096,-677.4205 1202.8163,-678.5657 1198.1906,-678.7389 1194.9637,-573.7136 1197.0854,-545.6724 1197.0854,-545.6724 1194.9637,-573.7136 1198.1906,-678.7389 1202.8163,-678.5657 1222.5096,-677.4205 1226.5209,-677.1046 1227.2006,-734.5884 1229.1041,-774.1333 1227.8097,-817.4575 1233.8024,-817.4575 1231.1783,-879.8618 1231.4647,-915.7922 1237.2028,-1066.5027 1239.2437,-1065.9679 1244.2844,-1064.7667 1249.6177,-822.0197 1254.9138,-822.0197 1259.7604,-819.1757 1261.0425,-817.61 1260.2365,-816.5932 1254.6434,-813.0674 1249.5547,-813.0674 1249.5547,-813.0674 1254.6434,-813.0674 1260.2365,-816.5932 1261.0425,-817.61 1259.7604,-819.1757 1254.9138,-822.0197 1249.6177,-822.0197 1244.2844,-1064.7667 1253.1829,-1062.7518 1266.0096,-1060.0002 1276.5135,-1058.2469 1288.3654,-1056.4097 1310.8512,-1053.1924 1292.1978,-824.0214 1302.9078,-821.2315 1369.5061,-828.2996 1390.0095,-857.7893 1390.0095,-857.7893 1369.5061,-828.2996 1302.9078,-821.2315 1292.1978,-824.0214 1310.8512,-1053.1924 1320.3257,-1051.9509 1351.7294,-1041.8821 1448.524,-963.7132 1441.0796,-947.1954 1435.2932,-935.6875 1414.3019,-895.4647 1419.1422,-788.3384 1417.457,-748.7957 1416.9283,-748.635 1412.9474,-748.635 1407.891,-653.5552 1407.1445,-619.71 1404.4684,-619.6702 1400.9572,-619.5396 1398.6938,-619.5569 1396.7527,-619.6153 1388.5796,-490.8631 1383.8325,-490.8631 1383.5895,-490.7914 1379.5857,-490.7914 1378.1704,-492.4236 1373.8145,-494.8965 1366.988,-494.8965 1362.074,-492.0425 1360.819,-490.6005 1357.4294,-490.6005 1356.9215,-490.7488 1352.2007,-490.7488 1352.2007,-490.7488 1356.9215,-490.7488 1357.4294,-490.6005 1360.819,-490.6005 1362.074,-492.0425 1366.988,-494.8965 1373.8145,-494.8965 1378.1704,-492.4236 1379.5857,-490.7914 1378.4646,-489.4492 1373.1117,-486.2234 1367.6472,-486.2234 1367.6472,-486.2234 1373.1117,-486.2234 1378.4646,-489.4492 1379.5857,-490.7914 1383.5895,-490.7914 1383.8325,-490.8631 1388.5796,-490.8631 1396.7527,-619.6153 1398.6938,-619.5569 1394.2321,-490.8538 1394.2321,-490.8538 1398.6938,-619.5569 1400.9572,-619.5396 1404.4684,-619.6702 1407.1445,-619.71 1407.891,-653.5552 1412.9474,-748.635 1416.9283,-748.635 1417.457,-748.7957 1419.1422,-788.3384 1414.3019,-895.4647 1435.2932,-935.6875 1441.0796,-947.1954 1440.3286,-868.175 1433.6545,-753.3069 1439.1499,-753.3069 1445.1293,-749.5923 1445.8499,-748.7292 1444.9712,-747.7176 1439.2278,-744.3314 1439.2278,-744.3314 1444.9712,-747.7176 1445.8499,-748.7292 1445.1293,-749.5923 1439.1499,-753.3069 1433.6545,-753.3069 1440.3286,-868.175 1441.0796,-947.1954 1448.524,-963.7132 1451.363,-962.9526 1474.6982,-957.6727 1469.5632,-784.6796 1469.5632,-784.6796 1474.6982,-957.6727 1474.8984,-957.633 1620.5809,-930.7846 1696.812,-889.8953 1747.8434,-797.9001 1758.9901,-778.3257 1746.7158,-724.5054 1728.7029,-636.4292 1720.6095,-600.9011 1706.426,-541.6046 1709.5168,-525.8891 1714.6534,-501.0787 1727.9099,-492.2634 1915.8932,-374.5038 1919.6821,-231.2831 1919.6821,-231.2831"/>
<polygon fill="#ccebc5" stroke="#ccebc5" points="1728.7029,-636.4292 1720.6095,-600.9011 1706.426,-541.6046 1709.5168,-525.8891 1714.6534,-501.0787 1727.9099,-492.2634 1915.8932,-374.5038 1999.9772,-396.52 2004.5656,-397.6617 2011.4565,-399.287 2013.1503,-399.6644 2021.243,-402.896 2029.8215,-405.9519 2049.1348,-412.5552 2076.6997,-419.9954 2241.3037,-462.0185 2310.3862,-544.3129 2488.0564,-511.0894 2489.1746,-511.1237 2504.6104,-511.394 2517.271,-511.4486 2532.7813,-510.6958 2550.0444,-509.4016 2560.2815,-508.3643 2568.0884,-507.1606 2583.4951,-514.2759 2755.1565,-588.0469 2846.9106,-554.8102 2922.3586,-464.8926 3020.697,-427.8125 3053.4856,-430.2636 3066.0029,-430.5594 3069.3618,-430.5959 3079.825,-433.2829 3094.0552,-436.1617 3108.1946,-438.8291 3099.7744,-649.0856 3094.7979,-649.0856 3093.7542,-649.3986 3089.9504,-649.3986 3089.4651,-649.5417 3085.1956,-649.5417 3084.28,-648.4506 3078.6321,-645.0228 3078.6321,-645.0228 3084.28,-648.4506 3085.1956,-649.5417 3083.7336,-651.257 3078.666,-654.1594 3073.6357,-654.1594 3073.6357,-654.1594 3078.666,-654.1594 3083.7336,-651.257 3085.1956,-649.5417 3089.4651,-649.5417 3089.9504,-649.3986 3093.7542,-649.3986 3094.7979,-649.0856 3099.7744,-649.0856 3108.1946,-438.8291 3110.0732,-439.1577 3121.6187,-441.0189 3147.7605,-447.2872 3290.7207,-534.3788 3374.1265,-594.7711 3369.2683,-606.1297 3346.3079,-661.5705 3340.2019,-676.8572 3317.3542,-736.2806 3297.7886,-759.4156 3137.9263,-872.0737 3101.9385,-824.7303 3089.3508,-809.7349 3079.1228,-798.3936 3069.4243,-788.0459 3063.6035,-782.3301 3062.5217,-649.7515 3058.1262,-649.7515 3058.1262,-649.7515 3062.5217,-649.7515 3063.6035,-782.3301 3061.7229,-780.5618 3052.1956,-770.6752 2937.3987,-771.2638 2931.9319,-776.1675 2931.6672,-776.6351 2931.2302,-777.0071 2932.0964,-778.6001 2932.0964,-778.6001 2931.2302,-777.0071 2931.6672,-776.6351 2931.9319,-776.1675 2937.3987,-771.2638 3052.1956,-770.6752 3061.7229,-780.5618 3063.6035,-782.3301 3069.4243,-788.0459 3079.1228,-798.3936 3089.3508,-809.7349 3101.9385,-824.7303 3137.9263,-872.0737 3124.0305,-901.1846 3065.9949,-946.8485 3017.863,-972.4078 2931.1775,-976.8206 2930.4319,-898.1149 2926.7405,-833.6163 2926.6909,-777.2161 2926.6909,-777.2161 2926.7405,-833.6163 2930.4319,-898.1149 2931.1775,-976.8206 2911.7734,-978.9044 2888.4524,-982.397 2887.9312,-982.3105 2868.9858,-980.4813 2815.8171,-976.0862 2692.9631,-940.3366 2720.6062,-791.7548 2861.6333,-780.8991 2873.2583,-783.7379 2878.1477,-780.6325 2880.2312,-777.2726 2880.2312,-777.2726 2878.1477,-780.6325 2873.2583,-783.7379 2861.6333,-780.8991 2720.6062,-791.7548 2692.9631,-940.3366 2639.7769,-962.1342 2583.5002,-959.1894 2561.7798,-958.5681 2538.6599,-959.0056 2520.1987,-960.2318 2494.6353,-963.1456 2492.332,-963.4353 2499.666,-730.2161 2505.2246,-726.7938 2507.3455,-723.7628 2509.0098,-723.7628 2509.7476,-723.9836 2514.8638,-723.9836 2518.8372,-765.9926 2521.5959,-723.8401 2526.925,-723.8401 2527.6641,-723.6185 2530.3918,-723.6185 2531.1531,-724.5024 2537.0342,-728.0691 2542.7117,-728.0691 2548.3455,-724.7173 2549.1824,-723.7567 2551.9971,-723.7567 2557.155,-761.8625 2558.9836,-723.765 2558.4346,-723.5955 2558.4346,-723.5955 2558.9836,-723.765 2557.155,-761.8625 2551.9971,-723.7567 2549.1824,-723.7567 2548.3455,-724.7173 2542.7117,-728.0691 2537.0342,-728.0691 2531.1531,-724.5024 2530.3918,-723.6185 2527.6641,-723.6185 2526.925,-723.8401 2521.5959,-723.8401 2518.8372,-765.9926 2514.8638,-723.9836 2509.7476,-723.9836 2509.0098,-723.7628 2507.3455,-723.7628 2505.2246,-726.7938 2499.666,-730.2161 2492.332,-963.4353 2430.667,-971.9218 2318.0876,-934.9113 2249.7266,-825.2277 2066.1746,-820.1611 2055.541,-820.1729 2044.1957,-820.5116 2043.9897,-625.1835 2043.9897,-625.1835 2044.1957,-820.5116 2031.9375,-821.0538 2015.9996,-822.4454 1993.4816,-825.7072 1985.196,-823.9155 1758.9901,-778.3257 1746.7158,-724.5054 1728.7029,-636.4292 1974.7964,-628.5168 2001.4534,-631.0071 2006.0712,-627.579 2007.7618,-624.7462 2011.0181,-624.7462 2015.4204,-668.5728 2016.2363,-702.3032 2023.4247,-624.9333 2024.1118,-624.9333 2027.6593,-627.9978 2033.0068,-629.5825 2033.0068,-629.5825 2027.6593,-627.9978 2024.1118,-624.9333 2023.4247,-624.9333 2016.2363,-702.3032 2015.4204,-668.5728 2011.0181,-624.7462 2007.7618,-624.7462 2006.0712,-627.579 2001.4534,-631.0071 1974.7964,-628.5168 1728.7029,-636.4292 1728.7029,-636.4292"/>
<polyline fill="none" stroke="#000000" points="352.9933,-1117.0391 336.6551,-1123.0709 327.1878,-1126.8245 306.8917,-1169.9838 281.0047,-1227.1436 265.7819,-1240.7028 122.1866,-1314.9991 94.8856,-1308.3181 75.7638,-1304.1888 60.9162,-1301.8405 50.2033,-1300.4553 42.427,-1299.5624 22.962,-1297.8903 -49.3379,-1292.7296 -149.8532,-1248.1305 -170.1581,-1214.4049 -168.7719,-1165.7262 -167.7252,-1088.0582 -167.7787,-1055.5012 -167.9158,-1047.2904 -140.3994,-977.9362 -56.4659,-921.611 35.1343,-885.0475 56.0918,-875.7313 57.5732,-875.0286 64.3144,-873.8241 70.9141,-872.478 95.1396,-866.9223 104.3038,-864.4758 188.6295,-723.5732 194.0867,-716.8901 331.0943,-623.0439 341.5514,-615.7186 350.0257,-609.5204 353.595,-606.7987 361.2263,-603.511 379.5033,-595.4244 390.2405,-590.3036 390.0553,-580.7535 409.9364,-430.7369 419.8791,-333.655 424.1731,-284.1016 492.0088,-235.1918 597.3613,-172.9203 611.7728,-143.1499 617.0819,-135.9218 744.1978,-15.7536 762.4528,-8.5496 781.71,-7.4335 819.3519,-4.841 825.5476,-4.1455 911.6604,41.5258 975.3559,58.256 999.1977,64.8103 1006.7524,67.0691 1019.4469,71.0175 1038.7404,77.714 1048.9832,76.931 1081.11,74.8168 1221.1523,181.0483 1230.812,185.577 1310.7687,182.883 1338.6469,182.333 1342.9581,182.3686 1361.5996,183.0446 1363.3198,183.155 1368.1211,183.5303 1382.3821,185.0445 1382.754,185.0944 1391.1858,184.5359 1469.3339,180.4426 1560.5785,142.4527 1617.1637,45.0472 1599.2153,14.2293 1572.9352,-32.4429 1518.1726,-137.7642 1502.6464,-166.3201 1392.2339,-131.7693 1387.6353,-130.4582 1375.8308,-127.4209 1367.0243,-125.6495 1366.9451,-125.6358 1350.2816,-123.2164 1333.0404,-122.6465 1329.8718,-122.7195 1325.2449,-122.6963 1320.4257,-122.4015 1309.1064,-122.0275 1294.8484,-120.3564 1284.5095,-118.5653 1277.4492,-117.1453 1260.5071,-112.3109 1168.2456,-83.44 1154.2086,-161.6003 1148.7194,-197.1933 1147.3167,-210.9874 1147.0775,-212.5344 1133.7125,-223.0732 1128.722,-226.8063 1118.1552,-234.2849 1054.5205,-276.6617 1062.5623,-334.0563 1062.7777,-339.744 1063.2871,-345.4178 1063.4783,-350.4308 1065.5299,-373.237 1071.0601,-412.7058 1116.3997,-440.1915 1097.6423,-486.2276 1088.7112,-516.3156 1087.6632,-520.7755 1080.8352,-525.7599 1068.9001,-532.6005 1065.0903,-534.1789 1056.0735,-537.2274 1047.79,-539.3727 1045.0117,-539.8696 1044.5653,-539.9144 1032.4166,-540.1878 1031.6283,-540.1436 1031.1317,-540.1545 1020.1855,-541.2569 1017.7944,-541.683 1012.0576,-543.1547 1008.1222,-544.472 1003.0991,-546.5526 995.9999,-550.0626 990.3846,-553.2815 988.5222,-562.3217 987.4319,-577.7452 983.7164,-595.6288 951.5414,-713.2154 959.4573,-728.0824 942.3159,-742.9803 803.97,-858.5917 790.6482,-870.5477 788.8253,-872.2383 786.8122,-874.2299 775.0447,-885.0327 754.4154,-905.7518 748.7178,-911.952 732.6877,-929.8557 728.4301,-934.9655 722.231,-942.2014 715.715,-950.3464 696.0792,-976.0119 681.3534,-996.0607 672.3617,-1008.7809 667.4504,-1009.2216 620.5798,-1049.2758 391.5729,-1105.5894 375.3752,-1110.0183 373.9054,-1110.4604 352.9933,-1117.0391 "/>
<polyline fill="none" stroke="#000000" points="1147.0775,-212.5344 1147.3167,-210.9874 1148.7194,-197.1933 1154.2086,-161.6003 1168.2456,-83.44 1260.5071,-112.3109 1277.4492,-117.1453 1284.5095,-118.5653 1294.8484,-120.3564 1309.1064,-122.0275 1320.4257,-122.4015 1325.2449,-122.6963 1329.8718,-122.7195 1333.0404,-122.6465 1350.2816,-123.2164 1366.9451,-125.6358 1367.0243,-125.6495 1375.8308,-127.4209 1387.6353,-130.4582 1392.2339,-131.7693 1502.6464,-166.3201 1518.1726,-137.7642 1572.9352,-32.4429 1599.2153,14.2293 1617.1637,45.0472 1677.689,30.4048 1704.9435,24.5583 1709.0136,23.8549 1716.5068,22.7666 1724.9513,21.6566 1748.4482,18.8929 1761.9849,17.4897 1896.6754,-52.5561 1927.4801,-97.8462 1922.6078,-162.8655 1919.6821,-231.2831 1915.8932,-374.5038 1727.9099,-492.2634 1714.6534,-501.0787 1709.5168,-525.8891 1706.426,-541.6046 1720.6095,-600.9011 1728.7029,-636.4292 1746.7158,-724.5054 1758.9901,-778.3257 1747.8434,-797.9001 1696.812,-889.8953 1620.5809,-930.7846 1474.8984,-957.633 1474.6982,-957.6727 1451.363,-962.9526 1448.524,-963.7132 1351.7294,-1041.8821 1320.3257,-1051.9509 1310.8512,-1053.1924 1288.3654,-1056.4097 1276.5135,-1058.2469 1266.0096,-1060.0002 1253.1829,-1062.7518 1244.2844,-1064.7667 1239.2437,-1065.9679 1237.2028,-1066.5027 1203.1527,-1076.6572 1201.0162,-1077.3446 1186.8683,-1089.7837 1060.4542,-1127.6959 1023.3749,-1127.8416 1012.5043,-1128.1415 1004.3438,-1128.4631 990.488,-1129.3376 978.2727,-1130.3976 970.2418,-1131.2844 958.0624,-1132.9176 935.3177,-1136.5059 935.1004,-1136.5426 903.2235,-1131.9977 672.3617,-1008.7809 681.3534,-996.0607 696.0792,-976.0119 715.715,-950.3464 722.231,-942.2014 728.4301,-934.9655 732.6877,-929.8557 748.7178,-911.952 754.4154,-905.7518 775.0447,-885.0327 786.8122,-874.2299 788.8253,-872.2383 790.6482,-870.5477 803.97,-858.5917 942.3159,-742.9803 959.4573,-728.0824 951.5414,-713.2154 983.7164,-595.6288 987.4319,-577.7452 988.5222,-562.3217 990.3846,-553.2815 995.9999,-550.0626 1003.0991,-546.5526 1008.1222,-544.472 1012.0576,-543.1547 1017.7944,-541.683 1020.1855,-541.2569 1031.1317,-540.1545 1031.6283,-540.1436 1032.4166,-540.1878 1044.5653,-539.9144 1045.0117,-539.8696 1047.79,-539.3727 1056.0735,-537.2274 1065.0903,-534.1789 1068.9001,-532.6005 1080.8352,-525.7599 1087.6632,-520.7755 1088.7112,-516.3156 1097.6423,-486.2276 1116.3997,-440.1915 1071.0601,-412.7058 1065.5299,-373.237 1063.4783,-350.4308 1063.2871,-345.4178 1062.7777,-339.744 1062.5623,-334.0563 1054.5205,-276.6617 1118.1552,-234.2849 1128.722,-226.8063 1133.7125,-223.0732 1147.0775,-212.5344 "/>
<polyline fill="none" stroke="#000000" points="2911.7734,-978.9044 2931.1775,-976.8206 3017.863,-972.4078 3065.9949,-946.8485 3124.0305,-901.1846 3137.9263,-872.0737 3297.7886,-759.4156 3317.3542,-736.2806 3340.2019,-676.8572 3346.3079,-661.5705 3369.2683,-606.1297 3374.1265,-594.7711 3290.7207,-534.3788 3147.7605,-447.2872 3121.6187,-441.0189 3110.0732,-439.1577 3108.1946,-438.8291 3094.0552,-436.1617 3079.825,-433.2829 3069.3618,-430.5959 3066.0029,-430.5594 3053.4856,-430.2636 3020.697,-427.8125 2922.3586,-464.8926 2846.9106,-554.8102 2755.1565,-588.0469 2583.4951,-514.2759 2568.0884,-507.1606 2560.2815,-508.3643 2550.0444,-509.4016 2532.7813,-510.6958 2517.271,-511.4486 2504.6104,-511.394 2489.1746,-511.1237 2488.0564,-511.0894 2310.3862,-544.3129 2241.3037,-462.0185 2076.6997,-419.9954 2049.1348,-412.5552 2029.8215,-405.9519 2021.243,-402.896 2013.1503,-399.6644 2011.4565,-399.287 2004.5656,-397.6617 1999.9772,-396.52 1915.8932,-374.5038 1727.9099,-492.2634 1714.6534,-501.0787 1709.5168,-525.8891 1706.426,-541.6046 1720.6095,-600.9011 1728.7029,-636.4292 1746.7158,-724.5054 1758.9901,-778.3257 1985.196,-823.9155 1993.4816,-825.7072 2015.9996,-822.4454 2031.9375,-821.0538 2044.1957,-820.5116 2055.541,-820.1729 2066.1746,-820.1611 2249.7266,-825.2277 2318.0876,-934.9113 2430.667,-971.9218 2492.332,-963.4353 2494.6353,-963.1456 2520.1987,-960.2318 2538.6599,-959.0056 2561.7798,-958.5681 2583.5002,-959.1894 2639.7769,-962.1342 2692.9631,-940.3366 2815.8171,-976.0862 2868.9858,-980.4813 2887.9312,-982.3105 2888.4524,-982.397 2911.7734,-978.9044 "/>
<!-- cups&#45;libs&#45;&gt;avahi&#45;libs -->
<g id="edge1" class="edge">
<title>cups&#45;libs&#45;&gt;avahi&#45;libs</title>
<path fill="none" stroke="#444444" stroke-opacity="0.333333" d="M337.8582,-906.1821C284.0969,-944.8682 158.1849,-1035.4731 97.8003,-1078.9252"/>
<polygon fill="#444444" fill-opacity="0.333333" stroke="#444444" stroke-opacity="0.333333" points="95.4555,-1076.3005 89.3829,-1084.9823 99.5442,-1081.9823 95.4555,-1076.3005"/>
</g>
<!-- libldb&#45;&gt;libtalloc -->
<g id="edge2" class="edge">
<title>libldb&#45;&gt;libtalloc</title>
<path fill="none" stroke="#444444" stroke-opacity="0.333333" d="M1137.1218,-355.9169C1123.056,-398.4258 1087.7909,-505.0019 1070.9847,-555.7927"/>
<polygon fill="#444444" fill-opacity="0.333333" stroke="#444444" stroke-opacity="0.333333" points="1067.6056,-554.8633 1067.7869,-565.4566 1074.2512,-557.0624 1067.6056,-554.8633"/>
</g>
<!-- libldb&#45;&gt;libtdb -->
<g id="edge3" class="edge">
<title>libldb&#45;&gt;libtdb</title>
<path fill="none" stroke="#444444" stroke-opacity="0.333333" d="M1127.4039,-319.7871C1104.0303,-292.8889 1059.9655,-242.1793 1033.2074,-211.3863"/>
<polygon fill="#444444" fill-opacity="0.333333" stroke="#444444" stroke-opacity="0.333333" points="1035.6768,-208.892 1026.4757,-203.6394 1030.393,-213.4835 1035.6768,-208.892"/>
</g>
<!-- libldb&#45;&gt;libtevent -->
<g id="edge4" class="edge">
<title>libldb&#45;&gt;libtevent</title>
<path fill="none" stroke="#444444" stroke-opacity="0.333333" d="M1145.5346,-356.1044C1150.246,-391.4289 1160.6383,-469.348 1166.2425,-511.367"/>
<polygon fill="#444444" fill-opacity="0.333333" stroke="#444444" stroke-opacity="0.333333" points="1162.7989,-512.0227 1167.5902,-521.4722 1169.7374,-511.0972 1162.7989,-512.0227"/>
</g>
<!-- libtevent&#45;&gt;libtalloc -->
<g id="edge5" class="edge">
<title>libtevent&#45;&gt;libtalloc</title>
<path fill="none" stroke="#444444" stroke-opacity="0.333333" d="M1125.6787,-557.5675C1122.3686,-558.9139 1119.0079,-560.2809 1115.6485,-561.6473"/>
<polygon fill="#444444" fill-opacity="0.333333" stroke="#444444" stroke-opacity="0.333333" points="1114.1718,-558.4694 1106.2274,-565.4793 1116.8092,-564.9536 1114.1718,-558.4694"/>
</g>
<!-- libsmbclient&#45;&gt;libtalloc -->
<g id="edge6" class="edge">
<title>libsmbclient&#45;&gt;libtalloc</title>
<path fill="none" stroke="#444444" stroke-opacity="0.333333" d="M990.1102,-872.7918C1002.927,-821.0809 1039.4511,-673.7195 1054.8346,-611.6527"/>
<polygon fill="#444444" fill-opacity="0.333333" stroke="#444444" stroke-opacity="0.333333" points="1058.2749,-612.3206 1057.2835,-601.7722 1051.4805,-610.6365 1058.2749,-612.3206"/>
</g>
<!-- libsmbclient&#45;&gt;libtevent -->
<g id="edge7" class="edge">
<title>libsmbclient&#45;&gt;libtevent</title>
<path fill="none" stroke="#444444" stroke-opacity="0.333333" d="M995.2261,-872.7031C1025.6647,-814.6794 1119.7206,-635.3852 1155.7529,-566.6985"/>
<polygon fill="#444444" fill-opacity="0.333333" stroke="#444444" stroke-opacity="0.333333" points="1158.8934,-568.2461 1160.4395,-557.7647 1152.6945,-564.9943 1158.8934,-568.2461"/>
</g>
<!-- libsmbclient&#45;&gt;samba&#45;client&#45;libs -->
<g id="edge8" class="edge">
<title>libsmbclient&#45;&gt;samba&#45;client&#45;libs</title>
<path fill="none" stroke="#444444" stroke-opacity="0.333333" d="M980.4341,-872.7967C964.9902,-817.7271 918.8975,-653.3716 900.3597,-587.2702"/>
<polygon fill="#444444" fill-opacity="0.333333" stroke="#444444" stroke-opacity="0.333333" points="903.7003,-586.2201 897.63,-577.5367 896.9603,-588.1103 903.7003,-586.2201"/>
</g>
<!-- samba&#45;client&#45;libs&#45;&gt;cups&#45;libs -->
<g id="edge9" class="edge">
<title>samba&#45;client&#45;libs&#45;&gt;cups&#45;libs</title>
<path fill="none" stroke="#444444" stroke-opacity="0.333333" d="M863.2909,-577.4239C773.4378,-633.2189 501.2347,-802.2455 400.8122,-864.6036"/>
<polygon fill="#444444" fill-opacity="0.333333" stroke="#444444" stroke-opacity="0.333333" points="398.8479,-861.7035 392.1988,-869.9522 402.5406,-867.6503 398.8479,-861.7035"/>
</g>
<!-- samba&#45;client&#45;libs&#45;&gt;libldb -->
<g id="edge10" class="edge">
<title>samba&#45;client&#45;libs&#45;&gt;libldb</title>
<path fill="none" stroke="#444444" stroke-opacity="0.333333" d="M913.0168,-541.1595C957.7318,-501.6478 1064.0664,-407.6868 1114.9832,-362.695"/>
<polygon fill="#444444" fill-opacity="0.333333" stroke="#444444" stroke-opacity="0.333333" points="1117.4852,-365.1548 1122.6613,-355.9104 1112.85,-359.9093 1117.4852,-365.1548"/>
</g>
<!-- samba&#45;client&#45;libs&#45;&gt;libtalloc -->
<g id="edge11" class="edge">
<title>samba&#45;client&#45;libs&#45;&gt;libtalloc</title>
<path fill="none" stroke="#444444" stroke-opacity="0.333333" d="M994.8921,-573.9579C995.0575,-573.9816 995.2228,-574.0053 995.388,-574.0289"/>
<polygon fill="#444444" fill-opacity="0.333333" stroke="#444444" stroke-opacity="0.333333" points="992.351,-577.1292 1002.7466,-575.0839 993.3445,-570.2001 992.351,-577.1292"/>
</g>
<!-- samba&#45;client&#45;libs&#45;&gt;libtdb -->
<g id="edge12" class="edge">
<title>samba&#45;client&#45;libs&#45;&gt;libtdb</title>
<path fill="none" stroke="#444444" stroke-opacity="0.333333" d="M898.2154,-541.2566C917.2617,-481.089 978.7531,-286.8367 1001.8879,-213.7535"/>
<polygon fill="#444444" fill-opacity="0.333333" stroke="#444444" stroke-opacity="0.333333" points="1005.3321,-214.4703 1005.0133,-203.8803 998.6585,-212.3577 1005.3321,-214.4703"/>
</g>
<!-- samba&#45;client&#45;libs&#45;&gt;libtevent -->
<g id="edge13" class="edge">
<title>samba&#45;client&#45;libs&#45;&gt;libtevent</title>
<path fill="none" stroke="#444444" stroke-opacity="0.333333" d="M994.6549,-552.0136C1029.9339,-549.504 1068.6131,-546.7524 1100.6464,-544.4737"/>
<polygon fill="#444444" fill-opacity="0.333333" stroke="#444444" stroke-opacity="0.333333" points="1101.0741,-547.9522 1110.8005,-543.7513 1100.5773,-540.9698 1101.0741,-547.9522"/>
</g>
<!-- samba&#45;client&#45;libs&#45;&gt;libwbclient -->
<g id="edge14" class="edge">
<title>samba&#45;client&#45;libs&#45;&gt;libwbclient</title>
<path fill="none" stroke="#444444" stroke-opacity="0.333333" d="M872.592,-541.2231C833.487,-511.6325 746.0207,-453.3563 692.3643,-420.71"/>
<polygon fill="#444444" fill-opacity="0.333333" stroke="#444444" stroke-opacity="0.333333" points="694.1028,-417.6713 683.7317,-415.5054 690.4885,-423.6661 694.1028,-417.6713"/>
</g>
<!-- samba&#45;client&#45;libs&#45;&gt;samba&#45;dc&#45;libs -->
<g id="edge15" class="edge">
<title>samba&#45;client&#45;libs&#45;&gt;samba&#45;dc&#45;libs</title>
<path fill="none" stroke="#444444" stroke-opacity="0.333333" d="M939.8573,-541.1485C1016.8772,-506.759 1167.6488,-432.7718 1237.5308,-394.9722"/>
<polygon fill="#444444" fill-opacity="0.333333" stroke="#444444" stroke-opacity="0.333333" points="1239.3413,-397.9714 1246.4403,-390.1066 1235.9862,-391.8279 1239.3413,-397.9714"/>
</g>
<!-- samba&#45;client&#45;libs&#45;&gt;samba&#45;libs -->
<g id="edge16" class="edge">
<title>samba&#45;client&#45;libs&#45;&gt;samba&#45;libs</title>
<path fill="none" stroke="#444444" stroke-opacity="0.333333" d="M938.4706,-541.135C950.7262,-534.6437 963.6275,-527.28 974.7124,-520.42"/>
<polygon fill="#444444" fill-opacity="0.333333" stroke="#444444" stroke-opacity="0.333333" points="976.5998,-523.3675 983.1659,-515.0526 972.8477,-517.458 976.5998,-523.3675"/>
</g>
<!-- libwbclient&#45;&gt;samba&#45;client&#45;libs -->
<g id="edge17" class="edge">
<title>libwbclient&#45;&gt;samba&#45;client&#45;libs</title>
<path fill="none" stroke="#444444" stroke-opacity="0.333333" d="M667.498,-415.4369C706.603,-445.0275 794.0693,-503.3037 847.7257,-535.95"/>
<polygon fill="#444444" fill-opacity="0.333333" stroke="#444444" stroke-opacity="0.333333" points="845.9872,-538.9887 856.3583,-541.1546 849.6015,-532.9939 845.9872,-538.9887"/>
</g>
<!-- samba&#45;dc&#45;libs&#45;&gt;libldb -->
<g id="edge18" class="edge">
<title>samba&#45;dc&#45;libs&#45;&gt;libldb</title>
<path fill="none" stroke="#444444" stroke-opacity="0.333333" d="M1205.0465,-353.9156C1202.0409,-353.1361 1199.046,-352.3594 1196.0871,-351.592"/>
<polygon fill="#444444" fill-opacity="0.333333" stroke="#444444" stroke-opacity="0.333333" points="1196.7606,-348.151 1186.2021,-349.0284 1195.0032,-354.9268 1196.7606,-348.151"/>
</g>
<!-- samba&#45;dc&#45;libs&#45;&gt;libtalloc -->
<g id="edge19" class="edge">
<title>samba&#45;dc&#45;libs&#45;&gt;libtalloc</title>
<path fill="none" stroke="#444444" stroke-opacity="0.333333" d="M1256.5483,-390.0183C1218.6202,-427.7095 1130.8847,-514.8969 1087.3093,-558.2001"/>
<polygon fill="#444444" fill-opacity="0.333333" stroke="#444444" stroke-opacity="0.333333" points="1084.8343,-555.7253 1080.2082,-565.2568 1089.7685,-560.6905 1084.8343,-555.7253"/>
</g>
<!-- samba&#45;dc&#45;libs&#45;&gt;libtevent -->
<g id="edge20" class="edge">
<title>samba&#45;dc&#45;libs&#45;&gt;libtevent</title>
<path fill="none" stroke="#444444" stroke-opacity="0.333333" d="M1263.296,-390.2308C1244.8081,-419.8185 1208.2062,-478.3955 1186.7543,-512.7268"/>
<polygon fill="#444444" fill-opacity="0.333333" stroke="#444444" stroke-opacity="0.333333" points="1183.7209,-510.9764 1181.39,-521.3117 1189.6573,-514.6858 1183.7209,-510.9764"/>
</g>
<!-- samba&#45;dc&#45;libs&#45;&gt;samba&#45;client&#45;libs -->
<g id="edge21" class="edge">
<title>samba&#45;dc&#45;libs&#45;&gt;samba&#45;client&#45;libs</title>
<path fill="none" stroke="#444444" stroke-opacity="0.333333" d="M1227.3527,-390.1115C1150.3328,-424.501 999.5612,-498.4882 929.6792,-536.2878"/>
<polygon fill="#444444" fill-opacity="0.333333" stroke="#444444" stroke-opacity="0.333333" points="927.8687,-533.2886 920.7697,-541.1534 931.2238,-539.4321 927.8687,-533.2886"/>
</g>
<!-- samba&#45;dc&#45;libs&#45;&gt;samba&#45;libs -->
<g id="edge22" class="edge">
<title>samba&#45;dc&#45;libs&#45;&gt;samba&#45;libs</title>
<path fill="none" stroke="#444444" stroke-opacity="0.333333" d="M1235.6126,-390.0283C1187.1134,-412.4225 1104.4326,-450.5998 1052.0662,-474.7796"/>
<polygon fill="#444444" fill-opacity="0.333333" stroke="#444444" stroke-opacity="0.333333" points="1050.5872,-471.6073 1042.9756,-478.9771 1053.5217,-477.9626 1050.5872,-471.6073"/>
</g>
<!-- samba&#45;dc&#45;libs&#45;&gt;samba&#45;common&#45;libs -->
<g id="edge23" class="edge">
<title>samba&#45;dc&#45;libs&#45;&gt;samba&#45;common&#45;libs</title>
<path fill="none" stroke="#444444" stroke-opacity="0.333333" d="M1211.5598,-353.913C1135.2022,-332.064 1006.9099,-295.3543 926.2561,-272.2759"/>
<polygon fill="#444444" fill-opacity="0.333333" stroke="#444444" stroke-opacity="0.333333" points="926.7537,-268.7779 916.1767,-269.3917 924.8279,-275.5078 926.7537,-268.7779"/>
</g>
<!-- samba&#45;dc&#45;libs&#45;&gt;libkadm5 -->
<g id="edge24" class="edge">
<title>samba&#45;dc&#45;libs&#45;&gt;libkadm5</title>
<path fill="none" stroke="#444444" stroke-opacity="0.333333" d="M1316.6307,-353.9669C1396.4499,-319.677 1569.9744,-245.132 1656.5821,-207.9258"/>
<polygon fill="#444444" fill-opacity="0.333333" stroke="#444444" stroke-opacity="0.333333" points="1658.1397,-211.0661 1665.9462,-203.9031 1655.3767,-204.6344 1658.1397,-211.0661"/>
</g>
<!-- samba&#45;libs&#45;&gt;libldb -->
<g id="edge25" class="edge">
<title>samba&#45;libs&#45;&gt;libldb</title>
<path fill="none" stroke="#444444" stroke-opacity="0.333333" d="M1019.868,-478.7612C1044.6215,-450.4565 1092.3398,-395.8924 1120.5831,-363.5972"/>
<polygon fill="#444444" fill-opacity="0.333333" stroke="#444444" stroke-opacity="0.333333" points="1123.3697,-365.7275 1127.3182,-355.8959 1118.1005,-361.1193 1123.3697,-365.7275"/>
</g>
<!-- samba&#45;libs&#45;&gt;libtalloc -->
<g id="edge26" class="edge">
<title>samba&#45;libs&#45;&gt;libtalloc</title>
<path fill="none" stroke="#444444" stroke-opacity="0.333333" d="M1016.1791,-515.3708C1024.2938,-527.498 1035.0594,-543.5869 1044.0947,-557.09"/>
<polygon fill="#444444" fill-opacity="0.333333" stroke="#444444" stroke-opacity="0.333333" points="1041.2671,-559.1578 1049.7371,-565.5224 1047.0848,-555.2649 1041.2671,-559.1578"/>
</g>
<!-- samba&#45;libs&#45;&gt;libtdb -->
<g id="edge27" class="edge">
<title>samba&#45;libs&#45;&gt;libtdb</title>
<path fill="none" stroke="#444444" stroke-opacity="0.333333" d="M1004.3008,-478.9307C1005.4512,-427.0072 1008.7707,-277.1901 1010.1681,-214.1213"/>
<polygon fill="#444444" fill-opacity="0.333333" stroke="#444444" stroke-opacity="0.333333" points="1013.6756,-213.8144 1010.3981,-203.7393 1006.6773,-213.6592 1013.6756,-213.8144"/>
</g>
<!-- samba&#45;libs&#45;&gt;libtevent -->
<g id="edge28" class="edge">
<title>samba&#45;libs&#45;&gt;libtevent</title>
<path fill="none" stroke="#444444" stroke-opacity="0.333333" d="M1068.5942,-513.5811C1079.2646,-516.3126 1090.3604,-519.153 1101.1286,-521.9096"/>
<polygon fill="#444444" fill-opacity="0.333333" stroke="#444444" stroke-opacity="0.333333" points="1100.3484,-525.3227 1110.904,-524.412 1102.0844,-518.5413 1100.3484,-525.3227"/>
</g>
<!-- samba&#45;libs&#45;&gt;samba&#45;client&#45;libs -->
<g id="edge29" class="edge">
<title>samba&#45;libs&#45;&gt;samba&#45;client&#45;libs</title>
<path fill="none" stroke="#444444" stroke-opacity="0.333333" d="M957.9394,-515.165C945.6838,-521.6563 932.7825,-529.02 921.6976,-535.88"/>
<polygon fill="#444444" fill-opacity="0.333333" stroke="#444444" stroke-opacity="0.333333" points="919.8102,-532.9325 913.2441,-541.2474 923.5623,-538.842 919.8102,-532.9325"/>
</g>
<!-- samba&#45;libs&#45;&gt;libwbclient -->
<g id="edge30" class="edge">
<title>samba&#45;libs&#45;&gt;libwbclient</title>
<path fill="none" stroke="#444444" stroke-opacity="0.333333" d="M939.3731,-478.9759C878.14,-461.8529 786.1704,-436.1349 721.8991,-418.1623"/>
<polygon fill="#444444" fill-opacity="0.333333" stroke="#444444" stroke-opacity="0.333333" points="722.801,-414.7803 712.2279,-415.4579 720.9158,-421.5217 722.801,-414.7803"/>
</g>
<!-- samba&#45;libs&#45;&gt;python2&#45;talloc -->
<g id="edge31" class="edge">
<title>samba&#45;libs&#45;&gt;python2&#45;talloc</title>
<path fill="none" stroke="#444444" stroke-opacity="0.333333" d="M1017.9611,-515.1669C1059.6886,-569.0194 1182.944,-728.0899 1231.8603,-791.2201"/>
<polygon fill="#444444" fill-opacity="0.333333" stroke="#444444" stroke-opacity="0.333333" points="1229.0937,-793.3639 1237.9853,-799.1249 1234.627,-789.0764 1229.0937,-793.3639"/>
</g>
<!-- samba&#45;common&#45;libs&#45;&gt;libtalloc -->
<g id="edge44" class="edge">
<title>samba&#45;common&#45;libs&#45;&gt;libtalloc</title>
<path fill="none" stroke="#444444" stroke-opacity="0.333333" d="M864.4762,-269.6365C899.3503,-325.1161 1003.8595,-491.3752 1044.9466,-556.7388"/>
<polygon fill="#444444" fill-opacity="0.333333" stroke="#444444" stroke-opacity="0.333333" points="1042.0244,-558.6666 1050.3095,-565.2702 1047.9508,-554.9412 1042.0244,-558.6666"/>
</g>
<!-- samba&#45;common&#45;libs&#45;&gt;libtdb -->
<g id="edge45" class="edge">
<title>samba&#45;common&#45;libs&#45;&gt;libtdb</title>
<path fill="none" stroke="#444444" stroke-opacity="0.333333" d="M896.5011,-233.1733C915.6443,-225.2055 938.2883,-215.7807 958.3508,-207.4303"/>
<polygon fill="#444444" fill-opacity="0.333333" stroke="#444444" stroke-opacity="0.333333" points="959.777,-210.6278 967.6643,-203.5538 957.0872,-204.1652 959.777,-210.6278"/>
</g>
<!-- samba&#45;common&#45;libs&#45;&gt;samba&#45;client&#45;libs -->
<g id="edge46" class="edge">
<title>samba&#45;common&#45;libs&#45;&gt;samba&#45;client&#45;libs</title>
<path fill="none" stroke="#444444" stroke-opacity="0.333333" d="M855.3062,-269.6432C861.9438,-321.3178 880.8337,-468.378 888.8457,-530.7526"/>
<polygon fill="#444444" fill-opacity="0.333333" stroke="#444444" stroke-opacity="0.333333" points="885.4206,-531.5603 890.1662,-541.0329 892.3635,-530.6684 885.4206,-531.5603"/>
</g>
<!-- samba&#45;common&#45;libs&#45;&gt;libwbclient -->
<g id="edge47" class="edge">
<title>samba&#45;common&#45;libs&#45;&gt;libwbclient</title>
<path fill="none" stroke="#444444" stroke-opacity="0.333333" d="M827.355,-269.5058C790.5137,-295.7111 722.4729,-344.1086 681.4882,-373.261"/>
<polygon fill="#444444" fill-opacity="0.333333" stroke="#444444" stroke-opacity="0.333333" points="679.2943,-370.5264 673.1742,-379.1748 683.3517,-376.2306 679.2943,-370.5264"/>
</g>
<!-- python2&#45;talloc&#45;&gt;libtalloc -->
<g id="edge41" class="edge">
<title>python2&#45;talloc&#45;&gt;libtalloc</title>
<path fill="none" stroke="#444444" stroke-opacity="0.333333" d="M1237.2596,-799.1147C1203.6832,-757.8636 1122.1561,-657.7018 1083.2066,-609.8496"/>
<polygon fill="#444444" fill-opacity="0.333333" stroke="#444444" stroke-opacity="0.333333" points="1085.6982,-607.3662 1076.671,-601.82 1080.2692,-611.7851 1085.6982,-607.3662"/>
</g>
<!-- libtomcrypt&#45;&gt;libtommath -->
<g id="edge32" class="edge">
<title>libtomcrypt&#45;&gt;libtommath</title>
<path fill="none" stroke="#444444" stroke-opacity="0.333333" d="M2929.3951,-759.2133C2959.3019,-736.8261 3010.4164,-698.5636 3043.6982,-673.65"/>
<polygon fill="#444444" fill-opacity="0.333333" stroke="#444444" stroke-opacity="0.333333" points="3045.8436,-676.416 3051.7517,-667.6214 3041.6487,-670.8122 3045.8436,-676.416"/>
</g>
<!-- python2&#45;crypto&#45;&gt;libtomcrypt -->
<g id="edge33" class="edge">
<title>python2&#45;crypto&#45;&gt;libtomcrypt</title>
<path fill="none" stroke="#444444" stroke-opacity="0.333333" d="M2625.9556,-736.3228C2686.4067,-745.1796 2766.6462,-756.9356 2825.6144,-765.5751"/>
<polygon fill="#444444" fill-opacity="0.333333" stroke="#444444" stroke-opacity="0.333333" points="2825.2253,-769.0554 2835.6271,-767.0421 2826.2401,-762.1294 2825.2253,-769.0554"/>
</g>
<!-- python2&#45;dns&#45;&gt;python2&#45;crypto -->
<g id="edge34" class="edge">
<title>python2&#45;dns&#45;&gt;python2&#45;crypto</title>
<path fill="none" stroke="#444444" stroke-opacity="0.333333" d="M2102.9296,-638.3615C2191.2753,-655.619 2344.0898,-685.4699 2443.5492,-704.8983"/>
<polygon fill="#444444" fill-opacity="0.333333" stroke="#444444" stroke-opacity="0.333333" points="2443.1174,-708.38 2453.6029,-706.8622 2444.4595,-701.5099 2443.1174,-708.38"/>
</g>
<!-- python2&#45;ldb&#45;&gt;libldb -->
<g id="edge35" class="edge">
<title>python2&#45;ldb&#45;&gt;libldb</title>
<path fill="none" stroke="#444444" stroke-opacity="0.333333" d="M1272.8516,-245.1404C1246.618,-263.8847 1205.4329,-293.3121 1176.5161,-313.9736"/>
<polygon fill="#444444" fill-opacity="0.333333" stroke="#444444" stroke-opacity="0.333333" points="1174.4393,-311.1559 1168.3376,-319.8173 1178.5088,-316.8514 1174.4393,-311.1559"/>
</g>
<!-- python2&#45;ldb&#45;&gt;libtalloc -->
<g id="edge36" class="edge">
<title>python2&#45;ldb&#45;&gt;libtalloc</title>
<path fill="none" stroke="#444444" stroke-opacity="0.333333" d="M1286.057,-245.2665C1247.2634,-303.7852 1125.4258,-487.5727 1079.5274,-556.8089"/>
<polygon fill="#444444" fill-opacity="0.333333" stroke="#444444" stroke-opacity="0.333333" points="1076.427,-555.1513 1073.8188,-565.4201 1082.2614,-559.0191 1076.427,-555.1513"/>
</g>
<!-- python2&#45;ldb&#45;&gt;libtdb -->
<g id="edge37" class="edge">
<title>python2&#45;ldb&#45;&gt;libtdb</title>
<path fill="none" stroke="#444444" stroke-opacity="0.333333" d="M1228.5527,-217.054C1177.9121,-209.7391 1110.3521,-199.9801 1063.9896,-193.2831"/>
<polygon fill="#444444" fill-opacity="0.333333" stroke="#444444" stroke-opacity="0.333333" points="1064.2482,-189.7843 1053.8506,-191.8186 1063.2474,-196.7124 1064.2482,-189.7843"/>
</g>
<!-- python2&#45;ldb&#45;&gt;libtevent -->
<g id="edge38" class="edge">
<title>python2&#45;ldb&#45;&gt;libtevent</title>
<path fill="none" stroke="#444444" stroke-opacity="0.333333" d="M1290.6591,-245.2486C1269.2124,-297.5578 1207.1638,-448.8963 1181.4116,-511.7068"/>
<polygon fill="#444444" fill-opacity="0.333333" stroke="#444444" stroke-opacity="0.333333" points="1178.0166,-510.761 1177.4614,-521.3413 1184.4934,-513.4166 1178.0166,-510.761"/>
</g>
<!-- python2&#45;ldb&#45;&gt;python2&#45;tdb -->
<g id="edge39" class="edge">
<title>python2&#45;ldb&#45;&gt;python2&#45;tdb</title>
<path fill="none" stroke="#444444" stroke-opacity="0.333333" d="M1303.3022,-208.9095C1313.7724,-172.299 1337.4489,-89.5106 1349.9013,-45.9687"/>
<polygon fill="#444444" fill-opacity="0.333333" stroke="#444444" stroke-opacity="0.333333" points="1353.2826,-46.8743 1352.6672,-36.2973 1346.5524,-44.9495 1353.2826,-46.8743"/>
</g>
<!-- python2&#45;tdb&#45;&gt;libtdb -->
<g id="edge40" class="edge">
<title>python2&#45;tdb&#45;&gt;libtdb</title>
<path fill="none" stroke="#444444" stroke-opacity="0.333333" d="M1320.4244,-36.0954C1256.6363,-66.896 1127.1231,-129.4325 1057.5283,-163.0369"/>
<polygon fill="#444444" fill-opacity="0.333333" stroke="#444444" stroke-opacity="0.333333" points="1055.6022,-160.0802 1048.1189,-167.5803 1058.646,-166.3838 1055.6022,-160.0802"/>
</g>
<!-- python2&#45;tevent&#45;&gt;libtalloc -->
<g id="edge42" class="edge">
<title>python2&#45;tevent&#45;&gt;libtalloc</title>
<path fill="none" stroke="#444444" stroke-opacity="0.333333" d="M1395.7764,-730.8988C1326.7283,-700.4351 1187.0986,-638.8312 1112.1141,-605.7483"/>
<polygon fill="#444444" fill-opacity="0.333333" stroke="#444444" stroke-opacity="0.333333" points="1113.4201,-602.4991 1102.8582,-601.6647 1110.5945,-608.9035 1113.4201,-602.4991"/>
</g>
<!-- python2&#45;tevent&#45;&gt;libtevent -->
<g id="edge43" class="edge">
<title>python2&#45;tevent&#45;&gt;libtevent</title>
<path fill="none" stroke="#444444" stroke-opacity="0.333333" d="M1413.4074,-730.696C1365.4273,-693.0157 1255.241,-606.4827 1201.1335,-563.9902"/>
<polygon fill="#444444" fill-opacity="0.333333" stroke="#444444" stroke-opacity="0.333333" points="1202.9756,-560.9865 1192.9492,-557.5628 1198.6521,-566.4918 1202.9756,-560.9865"/>
</g>
<!-- samba&#45;common&#45;tools&#45;&gt;libtalloc -->
<g id="edge48" class="edge">
<title>samba&#45;common&#45;tools&#45;&gt;libtalloc</title>
<path fill="none" stroke="#444444" stroke-opacity="0.333333" d="M851.6739,-383.0834C892.6584,-422.1839 988.913,-514.0136 1035.552,-558.5087"/>
<polygon fill="#444444" fill-opacity="0.333333" stroke="#444444" stroke-opacity="0.333333" points="1033.2104,-561.112 1042.8618,-565.4824 1038.0424,-556.0472 1033.2104,-561.112"/>
</g>
<!-- samba&#45;common&#45;tools&#45;&gt;libtdb -->
<g id="edge49" class="edge">
<title>samba&#45;common&#45;tools&#45;&gt;libtdb</title>
<path fill="none" stroke="#444444" stroke-opacity="0.333333" d="M850.5955,-346.6402C882.4964,-314.5728 948.8552,-247.8679 985.3626,-211.1701"/>
<polygon fill="#444444" fill-opacity="0.333333" stroke="#444444" stroke-opacity="0.333333" points="988.1053,-213.3758 992.6766,-203.8179 983.1426,-208.439 988.1053,-213.3758"/>
</g>
<!-- samba&#45;common&#45;tools&#45;&gt;libtevent -->
<g id="edge50" class="edge">
<title>samba&#45;common&#45;tools&#45;&gt;libtevent</title>
<path fill="none" stroke="#444444" stroke-opacity="0.333333" d="M867.3652,-382.8511C929.2097,-414.871 1058.0253,-481.5652 1125.9281,-516.7218"/>
<polygon fill="#444444" fill-opacity="0.333333" stroke="#444444" stroke-opacity="0.333333" points="1124.6024,-519.9767 1135.092,-521.4664 1127.8208,-513.7604 1124.6024,-519.9767"/>
</g>
<!-- samba&#45;common&#45;tools&#45;&gt;samba&#45;client&#45;libs -->
<g id="edge51" class="edge">
<title>samba&#45;common&#45;tools&#45;&gt;samba&#45;client&#45;libs</title>
<path fill="none" stroke="#444444" stroke-opacity="0.333333" d="M838.1637,-383.1053C848.7086,-417.2886 871.4585,-491.0371 883.9195,-531.4323"/>
<polygon fill="#444444" fill-opacity="0.333333" stroke="#444444" stroke-opacity="0.333333" points="880.6327,-532.6511 886.925,-541.175 887.3217,-530.5876 880.6327,-532.6511"/>
</g>
<!-- samba&#45;common&#45;tools&#45;&gt;libwbclient -->
<g id="edge52" class="edge">
<title>samba&#45;common&#45;tools&#45;&gt;libwbclient</title>
<path fill="none" stroke="#444444" stroke-opacity="0.333333" d="M730.0438,-382.8572C729.0959,-383.0241 728.1493,-383.1908 727.2046,-383.3572"/>
<polygon fill="#444444" fill-opacity="0.333333" stroke="#444444" stroke-opacity="0.333333" points="726.4119,-379.9429 717.1706,-385.1243 727.6261,-386.8368 726.4119,-379.9429"/>
</g>
<!-- samba&#45;common&#45;tools&#45;&gt;samba&#45;libs -->
<g id="edge53" class="edge">
<title>samba&#45;common&#45;tools&#45;&gt;samba&#45;libs</title>
<path fill="none" stroke="#444444" stroke-opacity="0.333333" d="M855.9903,-382.916C886.1608,-406.1909 938.6581,-446.6896 972.3134,-472.6527"/>
<polygon fill="#444444" fill-opacity="0.333333" stroke="#444444" stroke-opacity="0.333333" points="970.3831,-475.5841 980.4388,-478.921 974.6589,-470.0416 970.3831,-475.5841"/>
</g>
<!-- samba&#45;common&#45;tools&#45;&gt;samba&#45;common&#45;libs -->
<g id="edge54" class="edge">
<title>samba&#45;common&#45;tools&#45;&gt;samba&#45;common&#45;libs</title>
<path fill="none" stroke="#444444" stroke-opacity="0.333333" d="M835.8024,-346.5727C839.0639,-328.4519 844.1105,-300.4126 847.8858,-279.4368"/>
<polygon fill="#444444" fill-opacity="0.333333" stroke="#444444" stroke-opacity="0.333333" points="851.3489,-279.954 849.6757,-269.4921 844.4596,-278.7139 851.3489,-279.954"/>
</g>
<!-- samba&#45;&gt;libtalloc -->
<g id="edge55" class="edge">
<title>samba&#45;&gt;libtalloc</title>
<path fill="none" stroke="#444444" stroke-opacity="0.333333" d="M991.5874,-372.6638C1004.9355,-412.7553 1036.7414,-508.2855 1052.5513,-555.7711"/>
<polygon fill="#444444" fill-opacity="0.333333" stroke="#444444" stroke-opacity="0.333333" points="1049.2797,-557.0247 1055.7594,-565.407 1055.9212,-554.8134 1049.2797,-557.0247"/>
</g>
<!-- samba&#45;&gt;libtdb -->
<g id="edge56" class="edge">
<title>samba&#45;&gt;libtdb</title>
<path fill="none" stroke="#444444" stroke-opacity="0.333333" d="M988.1808,-336.2372C992.5874,-306.8901 1001.3375,-248.6175 1006.5687,-213.7794"/>
<polygon fill="#444444" fill-opacity="0.333333" stroke="#444444" stroke-opacity="0.333333" points="1010.0466,-214.1868 1008.0705,-203.778 1003.1242,-213.1473 1010.0466,-214.1868"/>
</g>
<!-- samba&#45;&gt;libtevent -->
<g id="edge57" class="edge">
<title>samba&#45;&gt;libtevent</title>
<path fill="none" stroke="#444444" stroke-opacity="0.333333" d="M1003.4995,-372.3898C1036.5725,-405.5919 1107.0039,-476.2981 1144.795,-514.2367"/>
<polygon fill="#444444" fill-opacity="0.333333" stroke="#444444" stroke-opacity="0.333333" points="1142.3603,-516.7519 1151.8973,-521.3667 1147.3197,-511.8118 1142.3603,-516.7519"/>
</g>
<!-- samba&#45;&gt;samba&#45;client&#45;libs -->
<g id="edge58" class="edge">
<title>samba&#45;&gt;samba&#45;client&#45;libs</title>
<path fill="none" stroke="#444444" stroke-opacity="0.333333" d="M977.2204,-372.4815C960.8545,-408.5707 924.199,-489.4012 904.9138,-531.9279"/>
<polygon fill="#444444" fill-opacity="0.333333" stroke="#444444" stroke-opacity="0.333333" points="901.6836,-530.5764 900.7411,-541.1293 908.0587,-533.4675 901.6836,-530.5764"/>
</g>
<!-- samba&#45;&gt;libwbclient -->
<g id="edge59" class="edge">
<title>samba&#45;&gt;libwbclient</title>
<path fill="none" stroke="#444444" stroke-opacity="0.333333" d="M947.6933,-359.1075C894.677,-365.8685 796.9117,-378.3362 727.3794,-387.2034"/>
<polygon fill="#444444" fill-opacity="0.333333" stroke="#444444" stroke-opacity="0.333333" points="726.8109,-383.7475 717.3341,-388.4845 727.6965,-390.6913 726.8109,-383.7475"/>
</g>
<!-- samba&#45;&gt;samba&#45;libs -->
<g id="edge60" class="edge">
<title>samba&#45;&gt;samba&#45;libs</title>
<path fill="none" stroke="#444444" stroke-opacity="0.333333" d="M987.8042,-372.3669C990.9305,-396.5785 996.5117,-439.8019 1000.2103,-468.4452"/>
<polygon fill="#444444" fill-opacity="0.333333" stroke="#444444" stroke-opacity="0.333333" points="996.7747,-469.1697 1001.5266,-478.6391 1003.717,-468.2732 996.7747,-469.1697"/>
</g>
<!-- samba&#45;&gt;samba&#45;common&#45;libs -->
<g id="edge61" class="edge">
<title>samba&#45;&gt;samba&#45;common&#45;libs</title>
<path fill="none" stroke="#444444" stroke-opacity="0.333333" d="M962.0831,-336.1145C940.5476,-319.3779 908.4232,-294.4119 884.5987,-275.8963"/>
<polygon fill="#444444" fill-opacity="0.333333" stroke="#444444" stroke-opacity="0.333333" points="886.5925,-273.0131 876.5488,-269.6402 882.297,-278.5402 886.5925,-273.0131"/>
</g>
<!-- samba&#45;&gt;samba&#45;common&#45;tools -->
<g id="edge62" class="edge">
<title>samba&#45;&gt;samba&#45;common&#45;tools</title>
<path fill="none" stroke="#444444" stroke-opacity="0.333333" d="M947.6621,-356.8905C947.5018,-356.9015 947.3411,-356.9125 947.1802,-356.9236"/>
<polygon fill="#444444" fill-opacity="0.333333" stroke="#444444" stroke-opacity="0.333333" points="949.4829,-353.2568 939.7467,-357.4349 949.9633,-360.2403 949.4829,-353.2568"/>
</g>
<!-- samba&#45;python&#45;&gt;libldb -->
<g id="edge63" class="edge">
<title>samba&#45;python&#45;&gt;libldb</title>
<path fill="none" stroke="#444444" stroke-opacity="0.333333" d="M1343.345,-472.4954C1302.2658,-444.8736 1223.9707,-392.2277 1178.4037,-361.5883"/>
<polygon fill="#444444" fill-opacity="0.333333" stroke="#444444" stroke-opacity="0.333333" points="1180.2714,-358.6265 1170.0199,-355.9511 1176.3654,-364.4355 1180.2714,-358.6265"/>
</g>
<!-- samba&#45;python&#45;&gt;libtalloc -->
<g id="edge64" class="edge">
<title>samba&#45;python&#45;&gt;libtalloc</title>
<path fill="none" stroke="#444444" stroke-opacity="0.333333" d="M1310.4523,-508.648C1258.9864,-524.1512 1184.7387,-546.517 1130.7849,-562.7696"/>
<polygon fill="#444444" fill-opacity="0.333333" stroke="#444444" stroke-opacity="0.333333" points="1129.5223,-559.4945 1120.9568,-565.7301 1131.5413,-566.197 1129.5223,-559.4945"/>
</g>
<!-- samba&#45;python&#45;&gt;libtevent -->
<g id="edge65" class="edge">
<title>samba&#45;python&#45;&gt;libtevent</title>
<path fill="none" stroke="#444444" stroke-opacity="0.333333" d="M1296.569,-508.6276C1277.7529,-513.2231 1257.5967,-518.1459 1239.026,-522.6815"/>
<polygon fill="#444444" fill-opacity="0.333333" stroke="#444444" stroke-opacity="0.333333" points="1238.0678,-519.3126 1229.1838,-525.0853 1239.7287,-526.1127 1238.0678,-519.3126"/>
</g>
<!-- samba&#45;python&#45;&gt;samba&#45;client&#45;libs -->
<g id="edge66" class="edge">
<title>samba&#45;python&#45;&gt;samba&#45;client&#45;libs</title>
<path fill="none" stroke="#444444" stroke-opacity="0.333333" d="M1294.5928,-501.4994C1216.4763,-512.725 1093.7682,-530.3585 1004.4418,-543.195"/>
<polygon fill="#444444" fill-opacity="0.333333" stroke="#444444" stroke-opacity="0.333333" points="1003.9413,-539.7309 994.5409,-544.6178 1004.9371,-546.6597 1003.9413,-539.7309"/>
</g>
<!-- samba&#45;python&#45;&gt;samba&#45;dc&#45;libs -->
<g id="edge67" class="edge">
<title>samba&#45;python&#45;&gt;samba&#45;dc&#45;libs</title>
<path fill="none" stroke="#444444" stroke-opacity="0.333333" d="M1355.7804,-472.6011C1339.7772,-452.7411 1313.8939,-420.6198 1295.685,-398.0225"/>
<polygon fill="#444444" fill-opacity="0.333333" stroke="#444444" stroke-opacity="0.333333" points="1298.356,-395.759 1289.3562,-390.1684 1292.9054,-400.1511 1298.356,-395.759"/>
</g>
<!-- samba&#45;python&#45;&gt;samba&#45;libs -->
<g id="edge68" class="edge">
<title>samba&#45;python&#45;&gt;samba&#45;libs</title>
<path fill="none" stroke="#444444" stroke-opacity="0.333333" d="M1294.3817,-491.9461C1231.1412,-493.0507 1141.5664,-494.6153 1078.6525,-495.7143"/>
<polygon fill="#444444" fill-opacity="0.333333" stroke="#444444" stroke-opacity="0.333333" points="1078.3395,-492.2191 1068.4022,-495.8933 1078.4618,-499.218 1078.3395,-492.2191"/>
</g>
<!-- samba&#45;python&#45;&gt;python2&#45;talloc -->
<g id="edge72" class="edge">
<title>samba&#45;python&#45;&gt;python2&#45;talloc</title>
<path fill="none" stroke="#444444" stroke-opacity="0.333333" d="M1363.7822,-508.6584C1344.2286,-562.7745 1285.9614,-724.0329 1262.3277,-789.4409"/>
<polygon fill="#444444" fill-opacity="0.333333" stroke="#444444" stroke-opacity="0.333333" points="1258.9498,-788.4901 1258.8432,-799.0844 1265.5333,-790.8689 1258.9498,-788.4901"/>
</g>
<!-- samba&#45;python&#45;&gt;python2&#45;dns -->
<g id="edge69" class="edge">
<title>samba&#45;python&#45;&gt;python2&#45;dns</title>
<path fill="none" stroke="#444444" stroke-opacity="0.333333" d="M1446.0315,-505.9422C1572.3614,-531.5016 1824.9144,-582.5988 1953.7427,-608.6637"/>
<polygon fill="#444444" fill-opacity="0.333333" stroke="#444444" stroke-opacity="0.333333" points="1953.0596,-612.0964 1963.5551,-610.649 1954.4478,-605.2354 1953.0596,-612.0964"/>
</g>
<!-- samba&#45;python&#45;&gt;python2&#45;ldb -->
<g id="edge70" class="edge">
<title>samba&#45;python&#45;&gt;python2&#45;ldb</title>
<path fill="none" stroke="#444444" stroke-opacity="0.333333" d="M1365.3374,-472.5072C1352.972,-427.375 1320.716,-309.6451 1305.8315,-255.3191"/>
<polygon fill="#444444" fill-opacity="0.333333" stroke="#444444" stroke-opacity="0.333333" points="1309.1154,-254.0592 1303.0973,-245.3395 1302.3642,-255.909 1309.1154,-254.0592"/>
</g>
<!-- samba&#45;python&#45;&gt;python2&#45;tdb -->
<g id="edge71" class="edge">
<title>samba&#45;python&#45;&gt;python2&#45;tdb</title>
<path fill="none" stroke="#444444" stroke-opacity="0.333333" d="M1369.8215,-472.3823C1367.9266,-400.1585 1360.94,-133.869 1358.6397,-46.1946"/>
<polygon fill="#444444" fill-opacity="0.333333" stroke="#444444" stroke-opacity="0.333333" points="1362.1382,-46.0881 1358.3771,-36.1833 1355.1406,-46.2717 1362.1382,-46.0881"/>
</g>
<!-- samba&#45;python&#45;&gt;python2&#45;tevent -->
<g id="edge73" class="edge">
<title>samba&#45;python&#45;&gt;python2&#45;tevent</title>
<path fill="none" stroke="#444444" stroke-opacity="0.333333" d="M1374.9621,-508.7825C1386.3745,-553.2427 1415.7755,-667.7824 1429.4317,-720.9841"/>
<polygon fill="#444444" fill-opacity="0.333333" stroke="#444444" stroke-opacity="0.333333" points="1426.0666,-721.9518 1431.9431,-730.7676 1432.8468,-720.2114 1426.0666,-721.9518"/>
</g>
<!-- samba&#45;python&#45;&gt;samba -->
<g id="edge74" class="edge">
<title>samba&#45;python&#45;&gt;samba</title>
<path fill="none" stroke="#444444" stroke-opacity="0.333333" d="M1319.1975,-472.5164C1244.3111,-445.9871 1105.7793,-396.9108 1032.9869,-371.1233"/>
<polygon fill="#444444" fill-opacity="0.333333" stroke="#444444" stroke-opacity="0.333333" points="1033.7601,-367.6842 1023.1653,-367.644 1031.4226,-374.2824 1033.7601,-367.6842"/>
</g>
<!-- samba&#45;winbind&#45;&gt;libtalloc -->
<g id="edge75" class="edge">
<title>samba&#45;winbind&#45;&gt;libtalloc</title>
<path fill="none" stroke="#444444" stroke-opacity="0.333333" d="M840.7471,-504.6246C886.2228,-520.8614 953.1825,-544.7689 1001.4798,-562.0131"/>
<polygon fill="#444444" fill-opacity="0.333333" stroke="#444444" stroke-opacity="0.333333" points="1000.5885,-565.4112 1011.1831,-565.4776 1002.9423,-558.8188 1000.5885,-565.4112"/>
</g>
<!-- samba&#45;winbind&#45;&gt;libtdb -->
<g id="edge76" class="edge">
<title>samba&#45;winbind&#45;&gt;libtdb</title>
<path fill="none" stroke="#444444" stroke-opacity="0.333333" d="M803.7801,-468.243C841.3856,-416.9005 947.6671,-271.7949 991.5153,-211.9293"/>
<polygon fill="#444444" fill-opacity="0.333333" stroke="#444444" stroke-opacity="0.333333" points="994.4307,-213.8721 997.5161,-203.7365 988.7834,-209.7358 994.4307,-213.8721"/>
</g>
<!-- samba&#45;winbind&#45;&gt;libtevent -->
<g id="edge77" class="edge">
<title>samba&#45;winbind&#45;&gt;libtevent</title>
<path fill="none" stroke="#444444" stroke-opacity="0.333333" d="M870.8404,-497.843C939.1299,-507.3612 1036.0488,-520.8698 1100.8747,-529.9053"/>
<polygon fill="#444444" fill-opacity="0.333333" stroke="#444444" stroke-opacity="0.333333" points="1100.6066,-533.4017 1110.994,-531.3157 1101.573,-526.4687 1100.6066,-533.4017"/>
</g>
<!-- samba&#45;winbind&#45;&gt;samba&#45;client&#45;libs -->
<g id="edge78" class="edge">
<title>samba&#45;winbind&#45;&gt;samba&#45;client&#45;libs</title>
<path fill="none" stroke="#444444" stroke-opacity="0.333333" d="M815.8432,-504.7678C828.7677,-513.9574 844.6333,-525.2383 858.5718,-535.149"/>
<polygon fill="#444444" fill-opacity="0.333333" stroke="#444444" stroke-opacity="0.333333" points="856.7799,-538.1694 866.958,-541.1118 860.8363,-532.4645 856.7799,-538.1694"/>
</g>
<!-- samba&#45;winbind&#45;&gt;samba&#45;libs -->
<g id="edge79" class="edge">
<title>samba&#45;winbind&#45;&gt;samba&#45;libs</title>
<path fill="none" stroke="#444444" stroke-opacity="0.333333" d="M871.0654,-490.5518C890.1908,-491.4831 910.5031,-492.4722 929.3394,-493.3894"/>
<polygon fill="#444444" fill-opacity="0.333333" stroke="#444444" stroke-opacity="0.333333" points="929.1784,-496.8856 939.3368,-493.8762 929.5189,-489.8939 929.1784,-496.8856"/>
</g>
<!-- samba&#45;winbind&#45;&gt;samba&#45;common&#45;libs -->
<g id="edge80" class="edge">
<title>samba&#45;winbind&#45;&gt;samba&#45;common&#45;libs</title>
<path fill="none" stroke="#444444" stroke-opacity="0.333333" d="M795.1305,-468.5456C805.9915,-427.7372 832.4774,-328.222 845.4882,-279.3361"/>
<polygon fill="#444444" fill-opacity="0.333333" stroke="#444444" stroke-opacity="0.333333" points="848.9334,-279.9998 848.1231,-269.436 842.1689,-278.1994 848.9334,-279.9998"/>
</g>
<!-- samba&#45;winbind&#45;&gt;samba&#45;common&#45;tools -->
<g id="edge81" class="edge">
<title>samba&#45;winbind&#45;&gt;samba&#45;common&#45;tools</title>
<path fill="none" stroke="#444444" stroke-opacity="0.333333" d="M796.6378,-468.3838C803.5678,-448.3803 814.7732,-416.0361 822.8189,-392.8123"/>
<polygon fill="#444444" fill-opacity="0.333333" stroke="#444444" stroke-opacity="0.333333" points="826.1926,-393.7656 826.159,-383.1709 819.5783,-391.4741 826.1926,-393.7656"/>
</g>
<!-- samba&#45;winbind&#45;&gt;samba&#45;winbind&#45;modules -->
<g id="edge82" class="edge">
<title>samba&#45;winbind&#45;&gt;samba&#45;winbind&#45;modules</title>
<path fill="none" stroke="#444444" stroke-opacity="0.333333" d="M786.5039,-504.7631C778.5435,-542.6098 760.1176,-630.2135 750.5878,-675.5218"/>
<polygon fill="#444444" fill-opacity="0.333333" stroke="#444444" stroke-opacity="0.333333" points="747.1107,-675.0495 748.4773,-685.5558 753.9608,-676.4904 747.1107,-675.0495"/>
</g>
<!-- samba&#45;winbind&#45;modules&#45;&gt;libtalloc -->
<g id="edge83" class="edge">
<title>samba&#45;winbind&#45;modules&#45;&gt;libtalloc</title>
<path fill="none" stroke="#444444" stroke-opacity="0.333333" d="M792.1221,-685.7974C848.9589,-664.2479 944.0598,-628.1907 1004.8091,-605.1579"/>
<polygon fill="#444444" fill-opacity="0.333333" stroke="#444444" stroke-opacity="0.333333" points="1006.1433,-608.3952 1014.253,-601.5773 1003.6616,-601.8499 1006.1433,-608.3952"/>
</g>
<!-- samba&#45;winbind&#45;modules&#45;&gt;samba&#45;client&#45;libs -->
<g id="edge84" class="edge">
<title>samba&#45;winbind&#45;modules&#45;&gt;samba&#45;client&#45;libs</title>
<path fill="none" stroke="#444444" stroke-opacity="0.333333" d="M763.0689,-685.7887C789.0802,-660.3666 836.6919,-613.8335 866.3549,-584.8425"/>
<polygon fill="#444444" fill-opacity="0.333333" stroke="#444444" stroke-opacity="0.333333" points="869.1436,-587.011 873.8489,-577.5183 864.2509,-582.0049 869.1436,-587.011"/>
</g>
<!-- samba&#45;winbind&#45;modules&#45;&gt;libwbclient -->
<g id="edge85" class="edge">
<title>samba&#45;winbind&#45;modules&#45;&gt;libwbclient</title>
<path fill="none" stroke="#444444" stroke-opacity="0.333333" d="M738.8591,-685.5497C722.5402,-634.0304 676.0357,-487.2152 656.4487,-425.3786"/>
<polygon fill="#444444" fill-opacity="0.333333" stroke="#444444" stroke-opacity="0.333333" points="659.6869,-424.011 653.3306,-415.5347 653.0137,-426.1248 659.6869,-424.011"/>
</g>
<!-- samba&#45;winbind&#45;modules&#45;&gt;samba&#45;libs -->
<g id="edge86" class="edge">
<title>samba&#45;winbind&#45;modules&#45;&gt;samba&#45;libs</title>
<path fill="none" stroke="#444444" stroke-opacity="0.333333" d="M767.6476,-685.4497C814.4659,-648.1084 920.8205,-563.2824 973.3611,-521.3771"/>
<polygon fill="#444444" fill-opacity="0.333333" stroke="#444444" stroke-opacity="0.333333" points="975.6786,-524.0057 981.3141,-515.034 971.3138,-518.5331 975.6786,-524.0057"/>
</g>
<!-- cups&#45;libs -->
<g id="node1" class="node">
<title>cups&#45;libs</title>
<text text-anchor="middle" x="363.07" y="-884.34" font-family="monospace" font-size="14.00" fill="#000000">cups&#45;libs</text>
</g>
<!-- avahi&#45;libs -->
<g id="node2" class="node">
<title>avahi&#45;libs</title>
<text text-anchor="middle" x="64.344" y="-1099.3" font-family="monospace" font-size="14.00" fill="#000000">avahi&#45;libs</text>
</g>
<!-- libldb -->
<g id="node3" class="node">
<title>libldb</title>
<text text-anchor="middle" x="1143.1" y="-334.15" font-family="monospace" font-size="14.00" fill="#000000">libldb</text>
</g>
<!-- libtalloc -->
<g id="node4" class="node">
<title>libtalloc</title>
<text text-anchor="middle" x="1061.8" y="-579.85" font-family="monospace" font-size="14.00" fill="#000000">libtalloc</text>
</g>
<!-- libtdb -->
<g id="node5" class="node">
<title>libtdb</title>
<text text-anchor="middle" x="1010.8" y="-181.9" font-family="monospace" font-size="14.00" fill="#000000">libtdb</text>
</g>
<!-- libtevent -->
<g id="node6" class="node">
<title>libtevent</title>
<text text-anchor="middle" x="1170" y="-535.84" font-family="monospace" font-size="14.00" fill="#000000">libtevent</text>
</g>
<!-- libsmbclient -->
<g id="node7" class="node">
<title>libsmbclient</title>
<text text-anchor="middle" x="985.57" y="-887.41" font-family="monospace" font-size="14.00" fill="#000000">libsmbclient</text>
</g>
<!-- samba&#45;client&#45;libs -->
<g id="node8" class="node">
<title>samba&#45;client&#45;libs</title>
<text text-anchor="middle" x="892.51" y="-555.58" font-family="monospace" font-size="14.00" fill="#000000">samba&#45;client&#45;libs</text>
</g>
<!-- libwbclient -->
<g id="node9" class="node">
<title>libwbclient</title>
<text text-anchor="middle" x="647.58" y="-393.68" font-family="monospace" font-size="14.00" fill="#000000">libwbclient</text>
</g>
<!-- samba&#45;dc&#45;libs -->
<g id="node10" class="node">
<title>samba&#45;dc&#45;libs</title>
<text text-anchor="middle" x="1274.7" y="-368.28" font-family="monospace" font-size="14.00" fill="#000000">samba&#45;dc&#45;libs</text>
</g>
<!-- samba&#45;libs -->
<g id="node11" class="node">
<title>samba&#45;libs</title>
<text text-anchor="middle" x="1003.9" y="-493.32" font-family="monospace" font-size="14.00" fill="#000000">samba&#45;libs</text>
</g>
<!-- samba&#45;common&#45;libs -->
<g id="node12" class="node">
<title>samba&#45;common&#45;libs</title>
<text text-anchor="middle" x="852.95" y="-247.6" font-family="monospace" font-size="14.00" fill="#000000">samba&#45;common&#45;libs</text>
</g>
<!-- libkadm5 -->
<g id="node13" class="node">
<title>libkadm5</title>
<text text-anchor="middle" x="1707.9" y="-182.18" font-family="monospace" font-size="14.00" fill="#000000">libkadm5</text>
</g>
<!-- python2&#45;talloc -->
<g id="node14" class="node">
<title>python2&#45;talloc</title>
<text text-anchor="middle" x="1252.2" y="-813.77" font-family="monospace" font-size="14.00" fill="#000000">python2&#45;talloc</text>
</g>
<!-- libtomcrypt -->
<g id="node15" class="node">
<title>libtomcrypt</title>
<text text-anchor="middle" x="2905.3" y="-773.55" font-family="monospace" font-size="14.00" fill="#000000">libtomcrypt</text>
</g>
<!-- libtommath -->
<g id="node16" class="node">
<title>libtommath</title>
<text text-anchor="middle" x="3076" y="-645.77" font-family="monospace" font-size="14.00" fill="#000000">libtommath</text>
</g>
<!-- python2&#45;crypto -->
<g id="node17" class="node">
<title>python2&#45;crypto</title>
<text text-anchor="middle" x="2539.8" y="-720" font-family="monospace" font-size="14.00" fill="#000000">python2&#45;crypto</text>
</g>
<!-- python2&#45;dns -->
<g id="node18" class="node">
<title>python2&#45;dns</title>
<text text-anchor="middle" x="2033.3" y="-621.06" font-family="monospace" font-size="14.00" fill="#000000">python2&#45;dns</text>
</g>
<!-- python2&#45;ldb -->
<g id="node19" class="node">
<title>python2&#45;ldb</title>
<text text-anchor="middle" x="1298.1" y="-223.4" font-family="monospace" font-size="14.00" fill="#000000">python2&#45;ldb</text>
</g>
<!-- python2&#45;tdb -->
<g id="node20" class="node">
<title>python2&#45;tdb</title>
<text text-anchor="middle" x="1357.9" y="-14.3" font-family="monospace" font-size="14.00" fill="#000000">python2&#45;tdb</text>
</g>
<!-- python2&#45;tevent -->
<g id="node21" class="node">
<title>python2&#45;tevent</title>
<text text-anchor="middle" x="1436.6" y="-745.21" font-family="monospace" font-size="14.00" fill="#000000">python2&#45;tevent</text>
</g>
<!-- samba&#45;common&#45;tools -->
<g id="node22" class="node">
<title>samba&#45;common&#45;tools</title>
<text text-anchor="middle" x="832.52" y="-361.11" font-family="monospace" font-size="14.00" fill="#000000">samba&#45;common&#45;tools</text>
</g>
<!-- samba -->
<g id="node23" class="node">
<title>samba</title>
<text text-anchor="middle" x="985.47" y="-350.59" font-family="monospace" font-size="14.00" fill="#000000">samba</text>
</g>
<!-- samba&#45;python -->
<g id="node24" class="node">
<title>samba&#45;python</title>
<text text-anchor="middle" x="1370.3" y="-486.92" font-family="monospace" font-size="14.00" fill="#000000">samba&#45;python</text>
</g>
<!-- samba&#45;winbind -->
<g id="node25" class="node">
<title>samba&#45;winbind</title>
<text text-anchor="middle" x="790.32" y="-482.92" font-family="monospace" font-size="14.00" fill="#000000">samba&#45;winbind</text>
</g>
<!-- samba&#45;winbind&#45;modules -->
<g id="node26" class="node">
<title>samba&#45;winbind&#45;modules</title>
<text text-anchor="middle" x="744.64" y="-700.1" font-family="monospace" font-size="14.00" fill="#000000">samba&#45;winbind&#45;modules</text>
</g>
</g>
</svg>
