<?xml version="1.0" encoding="UTF-8" standalone="no"?>
<!DOCTYPE svg PUBLIC "-//W3C//DTD SVG 1.1//EN"
 "http://www.w3.org/Graphics/SVG/1.1/DTD/svg11.dtd">
<!-- Generated by graphviz version 2.40.1 (20161225.0304)
 -->
<!-- Title: G Pages: 1 -->
<svg width="359pt" height="170pt"
 viewBox="0.00 0.00 359.18 169.64" xmlns="http://www.w3.org/2000/svg" xmlns:xlink="http://www.w3.org/1999/xlink">
<g id="graph0" class="graph" transform="scale(1 1) rotate(0) translate(21.0059 97.5368)">
<title>G</title>
<polygon fill="#dae2ff" stroke="transparent" points="-21.0059,72.1057 -21.0059,-97.5368 338.1758,-97.5368 338.1758,72.1057 -21.0059,72.1057"/>
<polygon fill="#fbb4ae" stroke="#fbb4ae" points="-15.1977,-20.0755 -11.9569,-13.7504 10.5982,36.5657 12.2891,37.2531 51.9708,33.1294 53.1732,33.0807 56.6185,33.1577 59.9488,33.4426 71.4429,35.1618 78.9675,36.7608 81.2138,37.3769 81.7956,37.5729 87.157,39.7272 88.9309,40.5563 99.1514,37.5626 107.979,36.0526 116.1509,35.1533 118.2189,35.052 132.5855,36.0924 132.9701,36.1434 157.215,40.8291 179.3287,42.1116 198.6069,60.2707 214.1632,68.1057 228.1909,60.5526 230.568,59.3882 242.9648,54.4754 252.5781,51.577 253.8839,51.2457 261.9922,49.5701 272.3839,47.9175 274.6789,47.663 274.7742,47.6569 275.7055,47.0972 285.0563,42.0679 320.7143,25.2396 334.1758,-6.06 333.8009,-8.6465 333.7019,-9.878 333.3073,-35.371 334.0355,-50.0503 315.1482,-77.2323 284.028,-73.8664 277.8035,-73.5513 275.501,-73.5672 264.8117,-74.258 258.2586,-75.4368 246.1021,-78.3285 241.088,-80.0888 239.4762,-80.7472 226.9439,-86.6099 218.4827,-91.5375 179.3287,-75.4152 130.9734,-92.1821 127.9042,-93.5368 121.8056,-89.9112 108.666,-83.5419 101.3883,-80.8291 95.245,-78.8806 94.2841,-78.6294 82.7295,-76.2408 78.2226,-75.562 77.9025,-75.5316 72.2337,-75.3058 62.045,-75.4656 53.3312,-76.5733 48.6757,-77.4243 44.8309,-75.4844 22.7088,-65.819 -17.0059,-22.8849 -15.1977,-20.0755 -15.1977,-20.0755"/>
<polyline fill="none" stroke="#000000" points="241.088,-80.0888 239.4762,-80.7472 226.9439,-86.6099 218.4827,-91.5375 179.3287,-75.4152 130.9734,-92.1821 127.9042,-93.5368 121.8056,-89.9112 108.666,-83.5419 101.3883,-80.8291 95.245,-78.8806 94.2841,-78.6294 82.7295,-76.2408 78.2226,-75.562 77.9025,-75.5316 72.2337,-75.3058 62.045,-75.4656 53.3312,-76.5733 48.6757,-77.4243 44.8309,-75.4844 22.7088,-65.819 -17.0059,-22.8849 -15.1977,-20.0755 -11.9569,-13.7504 10.5982,36.5657 12.2891,37.2531 51.9708,33.1294 53.1732,33.0807 56.6185,33.1577 59.9488,33.4426 71.4429,35.1618 78.9675,36.7608 81.2138,37.3769 81.7956,37.5729 87.157,39.7272 88.9309,40.5563 99.1514,37.5626 107.979,36.0526 116.1509,35.1533 118.2189,35.052 132.5855,36.0924 132.9701,36.1434 157.215,40.8291 179.3287,42.1116 198.6069,60.2707 214.1632,68.1057 228.1909,60.5526 230.568,59.3882 242.9648,54.4754 252.5781,51.577 253.8839,51.2457 261.9922,49.5701 272.3839,47.9175 274.6789,47.663 274.7742,47.6569 275.7055,47.0972 285.0563,42.0679 320.7143,25.2396 334.1758,-6.06 333.8009,-8.6465 333.7019,-9.878 333.3073,-35.371 334.0355,-50.0503 315.1482,-77.2323 284.028,-73.8664 277.8035,-73.5513 275.501,-73.5672 264.8117,-74.258 258.2586,-75.4368 246.1021,-78.3285 241.088,-80.0888 "/>
<!-- postgresql&#45;&gt;postgresql&#45;libs -->
<g id="edge1" class="edge">
<title>postgresql&#45;&gt;postgresql&#45;libs</title>
<path fill="none" stroke="#444444" stroke-opacity="0.333333" d="M189.7805,-18C189.6245,-18 189.4683,-18 189.3121,-18"/>
<polygon fill="#444444" fill-opacity="0.333333" stroke="#444444" stroke-opacity="0.333333" points="192.2326,-14.5001 182.2326,-18 192.2325,-21.5001 192.2326,-14.5001"/>
</g>
<!-- postgresql -->
<g id="node1" class="node">
<title>postgresql</title>
<text text-anchor="middle" x="254.34" y="-14.3" font-family="monospace" font-size="14.00" fill="#000000">postgresql</text>
</g>
<!-- postgresql&#45;libs -->
<g id="node2" class="node">
<title>postgresql&#45;libs</title>
<text text-anchor="middle" x="90.992" y="-14.3" font-family="monospace" font-size="14.00" fill="#000000">postgresql&#45;libs</text>
</g>
</g>
</svg>
