<?xml version="1.0" encoding="UTF-8" standalone="no"?>
<!DOCTYPE svg PUBLIC "-//W3C//DTD SVG 1.1//EN"
 "http://www.w3.org/Graphics/SVG/1.1/DTD/svg11.dtd">
<!-- Generated by graphviz version 2.40.1 (20161225.0304)
 -->
<!-- Title: G Pages: 1 -->
<svg width="2477pt" height="1551pt"
 viewBox="0.00 0.00 2477.24 1551.41" xmlns="http://www.w3.org/2000/svg" xmlns:xlink="http://www.w3.org/1999/xlink">
<g id="graph0" class="graph" transform="scale(1 1) rotate(0) translate(147.2085 1389.6307)">
<title>G</title>
<polygon fill="#dae2ff" stroke="transparent" points="-147.2085,161.7763 -147.2085,-1389.6307 2330.0359,-1389.6307 2330.0359,161.7763 -147.2085,161.7763"/>
<polygon fill="#fed9a6" stroke="#fed9a6" points="726.6779,-216.1158 716.1059,-217.0582 607.538,-224.5252 593.1564,-228.5951 576.5081,-303.14 570.5443,-339.812 591.1257,-369.36 601.2603,-386.3308 617.7005,-400.5287 625.712,-406.6624 640.267,-416.4229 655.8246,-425.3481 721.8655,-459.8958 741.5157,-472.0286 739.9575,-441.3702 739.9575,-441.3702 741.5157,-472.0286 747.9388,-476.5663 745.2443,-369.7426 751.2443,-373.7228 751.2443,-373.7228 745.2443,-369.7426 747.9388,-476.5663 750.0218,-478.1317 759.0092,-485.7402 772.5222,-497.8225 780.3665,-505.5544 780.2195,-369.5906 780.2748,-369.5906 785.8353,-375.1007 912.9346,-385.0225 955.8514,-454.4742 965.7395,-267.0416 968.1767,-264.0638 971.0009,-262.7073 971.3438,-262.3591 971.8005,-262.1989 975.0997,-262.1989 978.2352,-265.4518 983.3992,-267.1438 990.2786,-264.6854 992.8389,-262.0183 995.7661,-262.0183 995.8774,-262.057 996.589,-262.057 996.589,-262.057 995.8774,-262.057 995.7661,-262.0183 992.8389,-262.0183 990.2786,-264.6854 983.3992,-267.1438 978.2352,-265.4518 975.0997,-262.1989 971.8005,-262.1989 971.3438,-262.3591 971.0009,-262.7073 968.1767,-264.0638 965.7395,-267.0416 955.8514,-454.4742 912.9346,-385.0225 785.8353,-375.1007 780.2748,-369.5906 780.2195,-369.5906 780.3665,-505.5544 787.9222,-513.35 793.2296,-518.1398 793.7556,-518.0897 816.1807,-516.424 834.4175,-513.959 850.8796,-510.732 865.127,-507.0707 883.4534,-501.6162 889.8237,-499.3354 911.0476,-490.8662 912.0063,-490.4646 915.6086,-488.8833 963.2972,-466.987 974.2501,-468.4563 995.6049,-472.0001 996.3378,-472.1448 1082.3981,-491.8803 1103.3491,-488.9167 1129.2168,-440.56 1163.8136,-368.6288 1169.736,-364.5047 1187.4943,-352.9683 1207.295,-341.9579 1211.5527,-339.6918 1226.8633,-332.261 1239.7827,-326.6033 1321.2335,-321.5263 1326.309,-321.3401 1345.0452,-332.8038 1362.1584,-341.3305 1366.1146,-343.1471 1366.6323,-343.3647 1378.3507,-347.85 1393.6237,-352.5243 1395.2246,-352.89 1402.6359,-354.3014 1413.3702,-355.935 1426.8093,-356.9469 1435.4529,-357.2646 1440.2391,-357.6229 1446.5576,-358.5791 1461.1968,-361.3586 1461.3394,-325.6164 1461.2843,-324.726 1461.5582,-272.9374 1456.2041,-272.9374 1454.0455,-223.8605 1458.3704,-220.4385 1413.0934,-205.8734 1409.2181,-201.1181 1408.6306,-201.1181 1404.2345,-237.871 1401.1293,-201.0183 1396.7739,-201.0183 1396.2402,-201.1877 1390.6818,-201.1877 1389.7375,-200.8855 1385.7614,-200.8855 1384.288,-201.3603 1379.8408,-201.3603 1379.6064,-201.65 1373.6205,-205.4804 1367.4988,-205.4804 1361.6279,-201.7654 1361.4163,-201.506 1357.554,-201.506 1353.7209,-229.4286 1349.3235,-201.3326 1345.7034,-201.3326 1340.429,-133.1505 1340.1371,-123.2014 1339.3484,-123.2234 1327.1003,-123.0607 1325.967,-123.092 1321.5846,-123.0326 1318.7036,-123.1112 1312.113,-123.8313 1295.306,-126.3633 1294.1862,-126.5772 1292.3574,-127.001 1281.7195,-163.7461 1238.1201,-169.5832 1226.9563,-167.0768 1226.9563,-167.0768 1238.1201,-169.5832 1281.7195,-163.7461 1292.3574,-127.001 1294.1862,-126.5772 1295.306,-126.3633 1312.113,-123.8313 1318.7036,-123.1112 1321.5846,-123.0326 1325.967,-123.092 1327.1003,-123.0607 1339.3484,-123.2234 1340.1371,-123.2014 1340.429,-133.1505 1345.7034,-201.3326 1349.3235,-201.3326 1353.7209,-229.4286 1357.554,-201.506 1361.4163,-201.506 1361.6279,-201.7654 1367.4988,-205.4804 1373.6205,-205.4804 1379.6064,-201.65 1379.8408,-201.3603 1379.0336,-200.315 1379.0336,-200.315 1379.8408,-201.3603 1384.288,-201.3603 1385.7614,-200.8855 1389.7375,-200.8855 1390.6818,-201.1877 1396.2402,-201.1877 1396.7739,-201.0183 1401.1293,-201.0183 1404.2345,-237.871 1408.6306,-201.1181 1407.949,-200.9002 1407.949,-200.9002 1408.6306,-201.1181 1409.2181,-201.1181 1413.0934,-205.8734 1458.3704,-220.4385 1454.0455,-223.8605 1456.2041,-272.9374 1461.5582,-272.9374 1461.2843,-324.726 1461.3394,-325.6164 1461.1968,-361.3586 1467.9395,-363.4136 1479.0717,-359.1397 1481.504,-358.4075 1491.8719,-355.7053 1504.3983,-353.461 1514.4934,-352.4779 1515.7657,-352.406 1525.6224,-352.2517 1527.5195,-352.1441 1534.7266,-352.0302 1542.5328,-351.2667 1550.2919,-350.1889 1554.2802,-349.4717 1565.3278,-347.0311 1571.6802,-345.1104 1587.2985,-339.0879 1589.8694,-337.9928 1604.9105,-330.3361 1608.9586,-328.1132 1673.3873,-290.1328 1681.1042,-286.0015 1689.2645,-273.2244 1668.0584,-240.8798 1620.099,-164.2083 1607.4292,-149.6176 1545.0015,-115.4788 1532.8484,-98.2139 1479.713,-59.5433 1471.7184,-37.0517 1464.9144,-14.9264 1443.1639,47.436 1440.9663,52.4158 1398.8713,93.6615 1366.7352,103.4852 1329.9753,105.8071 1327.9777,11.268 1327.9777,11.268 1329.9753,105.8071 1316.0071,107.2484 1313.093,107.6072 1310.6505,107.0707 1297.5299,104.7261 1283.3916,103.0683 1284.6982,-41.8893 1288.2119,-45.0607 1284.9052,-48.1757 1284.9052,-48.1757 1288.2119,-45.0607 1284.6982,-41.8893 1279.3622,-40.2751 1279.3622,-40.2751 1284.6982,-41.8893 1283.3916,103.0683 1273.8789,102.1482 1256.9351,101.5521 1238.6941,102.0334 1228.5006,102.9297 1219.5543,100.0026 1149.2875,78.6139 1088.8672,42.0963 1077.6768,-19.2932 1071.8347,-45.2763 1026.8192,-102.8171 999.7777,-110.0121 999.515,-177.506 1002.3935,-256.217 1101.0916,-253.394 1065.9381,-173.58 1134.4819,-173.58 1134.4819,-173.58 1065.9381,-173.58 1101.0916,-253.394 1002.3935,-256.217 999.515,-177.506 999.7777,-110.0121 990.1913,-112.1281 969.192,-115.814 905.4287,-122.6519 830.4175,-164.8831 808.2184,-197.5618 782.3665,-205.6326 774.226,-207.8433 758.946,-211.3757 739.1296,-214.7528 726.6779,-216.1158 726.6779,-216.1158"/>
<polygon fill="#b3cde3" stroke="#b3cde3" points="381.4855,-1294.6149 433.7452,-1285.729 451.9339,-1283.04 463.9682,-1281.8008 459.9076,-1141.1205 465.8211,-1143.0649 465.8211,-1143.0649 459.9076,-1141.1205 463.9682,-1281.8008 466.2138,-1281.62 475.4682,-1281.2893 486.9997,-1281.1357 497.991,-1281.2358 531.3572,-1282.2865 652.6419,-1213.1522 752.3444,-1284.6403 805.1215,-1235.3503 809.3827,-1231.6 817.8735,-1222.5852 822.8535,-1217.6443 835.4451,-1206.8273 835.8525,-1172.4396 839.6809,-1130.5723 844.6707,-1127.4611 845.7315,-1126.0851 845.3021,-1125.5299 845.3021,-1125.5299 845.7315,-1126.0851 844.6707,-1127.4611 839.6809,-1130.5723 835.8525,-1172.4396 835.4451,-1206.8273 822.8535,-1217.6443 817.8735,-1222.5852 809.3827,-1231.6 805.1215,-1235.3503 752.3444,-1284.6403 768.8997,-1316.6012 861.5043,-1371.0806 904.7127,-1377.2251 910.939,-1376.9227 914.7896,-1376.8206 917.4085,-1376.8086 920.4182,-1231.5313 920.11,-1231.4285 921.0606,-1161.3831 928.8544,-1156.2664 945.5533,-1143.0022 948.5452,-1140.2357 951.2598,-1137.5367 958.4708,-1129.8452 862.8055,-1132.1726 858.0132,-1127.71 857.0928,-1127.3785 857.0928,-1127.3785 858.0132,-1127.71 862.8055,-1132.1726 958.4708,-1129.8452 951.2598,-1137.5367 948.5452,-1140.2357 945.5533,-1143.0022 928.8544,-1156.2664 921.0606,-1161.3831 920.11,-1231.4285 920.4182,-1231.5313 917.4085,-1376.8086 923.5477,-1376.9155 926.3426,-1234.7074 932.2462,-1236.6519 937.8716,-1234.8068 940.8973,-1231.7087 937.6368,-1228.2855 932.5493,-1226.6256 932.5493,-1226.6256 937.6368,-1228.2855 940.8973,-1231.7087 937.8716,-1234.8068 932.2462,-1236.6519 926.3426,-1234.7074 923.5477,-1376.9155 931.342,-1377.2229 946.2592,-1378.1394 947.3474,-1378.254 952.0919,-1378.858 997.4318,-1385.6307 1032.2516,-1382.4697 1106.2587,-1326.2333 1088.5815,-1256.1382 1083.9048,-1235.5887 1077.6863,-1204.8397 1075.9734,-1195.1014 1058.8652,-1120.3042 1042.3883,-1054.9685 1047.5846,-1017.7737 1039.8861,-992.03 1036.7275,-982.8856 1016.6509,-960.8704 997.3527,-953.3362 954.8455,-938.7402 907.4382,-972.28 867.7459,-972.28 774.9697,-969.7696 753.9999,-965.8137 748.416,-969.9524 747.0028,-972.3256 743.0806,-972.3256 742.6578,-972.1909 742.6578,-972.1909 743.0806,-972.3256 747.0028,-972.3256 748.416,-969.9524 753.9999,-965.8137 774.9697,-969.7696 867.7459,-972.28 907.4382,-972.28 954.8455,-938.7402 861.7494,-838.3531 842.8965,-831.9504 822.8176,-826.708 804.3693,-822.9778 771.2258,-816.9324 740.235,-769.6188 701.3177,-702.889 672.6652,-656.7679 648.7349,-654.0408 643.043,-653.5259 629.1911,-652.9225 622.7656,-652.7936 619.8917,-731.936 619.8917,-731.936 622.7656,-652.7936 622.4637,-652.7744 621.0827,-652.7189 616.5797,-652.6437 607.3599,-652.7064 609.6494,-792.2132 604.5314,-792.2132 604.5314,-792.2132 609.6494,-792.2132 607.3599,-652.7064 597.8986,-652.5643 593.0588,-652.2808 585.1566,-651.6456 584.7551,-693.9408 586.9351,-791.6736 580.8787,-787.8263 575.8208,-787.8263 575.8208,-787.8263 580.8787,-787.8263 586.9351,-791.6736 584.7551,-693.9408 585.1566,-651.6456 570.6957,-649.8524 569.3249,-649.6227 558.2707,-647.5284 542.6958,-643.8952 542.3105,-643.7886 536.9202,-643.7921 532.0811,-643.9943 526.6688,-649.2219 521.9601,-653.5806 445.5051,-731.2352 438.2459,-769.2396 438.2389,-769.2706 433.2049,-801.0806 431.8958,-807.9865 535.8463,-798.0957 541.0899,-793.0067 542.8887,-889.6382 538.0796,-889.72 538.6005,-986.5425 538.7075,-986.5763 543.2665,-986.5763 544.4523,-986.9616 544.4523,-986.9616 543.2665,-986.5763 538.7075,-986.5763 538.6005,-986.5425 538.0796,-889.72 542.8887,-889.6382 541.0899,-793.0067 535.8463,-798.0957 528.6527,-889.4014 525.8945,-889.3591 511.2347,-888.1856 512.3899,-947.9041 509.7664,-982.2893 504.3594,-985.6407 503.497,-986.7042 504.3435,-987.7382 510.0245,-991.2299 515.3831,-991.2299 515.3831,-991.2299 510.0245,-991.2299 504.3435,-987.7382 503.497,-986.7042 504.3594,-985.6407 509.7664,-982.2893 512.3899,-947.9041 511.2347,-888.1856 525.8945,-889.3591 528.6527,-889.4014 535.8463,-798.0957 431.8958,-807.9865 420.4113,-860.0345 336.7449,-907.7148 336.1208,-908.0862 330.0676,-911.8441 309.2063,-925.8787 303.2742,-930.3185 289.6494,-940.867 285.9149,-943.9464 275.4783,-953.0959 275.3041,-953.2531 277.7203,-961.3773 288.1993,-998.7681 295.5553,-1028.8622 284.2134,-1098.9446 295.0464,-1138.1 312.3598,-1220.3275 328.2747,-1254.438 381.4855,-1294.6149 381.4855,-1294.6149"/>
<polygon fill="#decbe4" stroke="#decbe4" points="834.4175,-513.959 816.1807,-516.424 793.7556,-518.0897 793.2296,-518.1398 686.3851,-642.0452 680.9827,-648.0094 672.6652,-656.7679 701.3177,-702.889 740.235,-769.6188 771.2258,-816.9324 804.3693,-822.9778 822.8176,-826.708 842.8965,-831.9504 861.7494,-838.3531 954.8455,-938.7402 997.3527,-953.3362 1016.6509,-960.8704 1036.7275,-982.8856 1039.8861,-992.03 1047.5846,-1017.7737 1042.3883,-1054.9685 1058.8652,-1120.3042 1075.9734,-1195.1014 1077.6863,-1204.8397 1083.9048,-1235.5887 1088.5815,-1256.1382 1106.2587,-1326.2333 1176.0906,-1336.5502 1202.7324,-1331.127 1203.1936,-1331.0425 1209.6409,-1330.1228 1216.1644,-1173.2549 1221.5164,-1176.6367 1227.9139,-1176.6367 1232.9194,-1173.4862 1234.0499,-1171.9835 1234.0499,-1171.9835 1232.9194,-1173.4862 1227.9139,-1176.6367 1221.5164,-1176.6367 1216.1644,-1173.2549 1209.6409,-1330.1228 1224.2413,-1328.3352 1239.5341,-1327.0848 1260.918,-1326.6417 1305.8486,-1326.625 1399.8624,-1229.251 1445.7579,-1183.6482 1513.4874,-1195.9341 1517.6418,-1196.7524 1530.3085,-1195.5303 1533.6232,-1195.2609 1541.1467,-1192.4056 1542.4379,-1191.9604 1555.3766,-1187.9401 1567.8188,-1184.4995 1569.3116,-1055.7986 1573.0757,-1003.4953 1577.7325,-1004.8767 1583.9419,-1002.8704 1587.3314,-999.5883 1584.688,-997.189 1584.688,-997.189 1587.3314,-999.5883 1583.9419,-1002.8704 1577.7325,-1004.8767 1573.0757,-1003.4953 1569.3116,-1055.7986 1567.8188,-1184.4995 1586.8441,-1179.8914 1589.7909,-1179.3302 1605.8157,-1176.5527 1629.413,-1173.6801 1629.4915,-1173.6718 1692.9915,-1170.3163 1746.9968,-1141.3616 1764.1787,-1128.1381 1772.0596,-1112.7748 1777.6161,-1095.5369 1787.375,-1037.0603 1787.0746,-1027.4327 1787.0139,-1021.9583 1779.748,-986.6328 1764.5005,-892.5037 1813.4838,-830.2408 1822.7448,-826.6243 1825.6932,-825.5977 1833.0236,-823.3497 1844.4506,-820.082 1867.0153,-815.0344 1868.9275,-814.647 1921.4045,-806.2096 1966.0826,-775.2542 2019.3685,-694.1511 2001.6628,-666.37 1962.9242,-595.0824 1962.9208,-595.0804 1876.1536,-550.2827 1865.6368,-544.4972 1859.8135,-545.3414 1849.1375,-546.3437 1847.2769,-546.4709 1841.1058,-546.7354 1840.266,-546.7286 1826.6989,-546.9758 1823.1102,-546.8578 1814.2811,-547.032 1813.3898,-547.004 1806.6128,-546.6185 1803.7999,-546.6803 1801.8022,-546.7767 1795.8909,-546.9112 1790.7235,-546.8968 1788.4967,-546.9491 1785.2815,-547.1093 1785.0842,-547.114 1774.9701,-546.8428 1774.4242,-546.8569 1770.4663,-546.8578 1770.2212,-546.8516 1757.7275,-546.864 1755.3983,-546.7475 1687.12,-545.1277 1620.4359,-589.6185 1610.1024,-589.9161 1600.0774,-590.3963 1581.5917,-591.9885 1577.6698,-592.4756 1576.3485,-592.6649 1568.2977,-593.9725 1555.6368,-596.2712 1537.2467,-600.6645 1533.6016,-598.6649 1532.9156,-598.3201 1486.9889,-577.276 1426.2969,-572.8488 1419.0665,-572.4897 1407.1636,-572.1767 1402.3672,-571.9393 1397.7179,-571.9266 1392.1929,-572.1697 1391.0197,-572.1942 1388.3712,-572.188 1387.9119,-572.1977 1387.6857,-572.1972 1379.9717,-572.3611 1366.1083,-571.6913 1362.5443,-571.7693 1356.7323,-572.0323 1356.6752,-572.0336 1356.6118,-572.038 1349.5173,-572.1979 1336.829,-572.1895 1336.6852,-592.3516 1342.0546,-703.3007 1346.5927,-703.3007 1347.323,-704.2565 1347.323,-704.2565 1346.5927,-703.3007 1342.0546,-703.3007 1336.6852,-592.3516 1336.829,-572.1895 1331.2925,-571.8002 1319.0309,-571.2264 1316.6003,-571.0565 1310.254,-570.4662 1166.3342,-550.4235 1184.066,-686.0838 1184.2408,-686.2682 1190.6865,-692.7581 1193.3501,-695.5851 1202.1951,-704.5058 1206.5732,-708.6835 1209.2777,-711.5998 1222.9406,-724.6817 1227.153,-728.1943 1242.4426,-739.1859 1243.8091,-740.0839 1256.7163,-747.8036 1257.693,-748.3261 1266.7758,-752.1138 1276.4972,-755.5893 1288.5194,-758.4417 1285.0632,-810.2361 1349.0891,-807.1174 1347.9056,-810.9059 1343.1124,-829.5068 1342.509,-832.5256 1336.2131,-856.6958 1328.198,-881.9802 1398.3195,-860.4351 1400.0195,-923.6785 1404.7408,-855.7394 1409.39,-855.7394 1412.0009,-909.7884 1416.2043,-855.9556 1420.9431,-855.9556 1422.1201,-855.5802 1425.9456,-855.5802 1431.2534,-904.5941 1432.0195,-925.0985 1438.8783,-859.1435 1443.9868,-860.6904 1449.4421,-859.0355 1452.9183,-855.7851 1455.0604,-855.7851 1455.6144,-855.6059 1461.0637,-855.6059 1461.8616,-855.3497 1465.527,-855.3497 1466.6738,-855.7249 1467.7136,-936.4885 1473.0697,-855.7249 1474.0073,-855.4234 1476.9303,-855.4234 1476.9303,-855.4234 1474.0073,-855.4234 1473.0697,-855.7249 1467.7136,-936.4885 1466.6738,-855.7249 1465.527,-855.3497 1461.8616,-855.3497 1461.0637,-855.6059 1455.6144,-855.6059 1455.0604,-855.7851 1452.9183,-855.7851 1449.4421,-859.0355 1443.9868,-860.6904 1438.8783,-859.1435 1432.0195,-925.0985 1431.2534,-904.5941 1425.9456,-855.5802 1422.1201,-855.5802 1420.9431,-855.9556 1416.2043,-855.9556 1412.0009,-909.7884 1409.39,-855.7394 1404.7408,-855.7394 1400.0195,-923.6785 1398.3195,-860.4351 1328.198,-881.9802 1336.2131,-856.6958 1342.509,-832.5256 1343.1124,-829.5068 1347.9056,-810.9059 1349.0891,-807.1174 1285.0632,-810.2361 1288.5194,-758.4417 1276.4972,-755.5893 1266.7758,-752.1138 1257.693,-748.3261 1256.7163,-747.8036 1243.8091,-740.0839 1242.4426,-739.1859 1227.153,-728.1943 1222.9406,-724.6817 1209.2777,-711.5998 1206.5732,-708.6835 1202.1951,-704.5058 1193.3501,-695.5851 1190.6865,-692.7581 1184.2408,-686.2682 1189.0144,-809.5775 1194.6566,-813.5164 1196.2804,-816.1039 1199.5464,-816.1039 1205.0095,-886.5057 1206.0502,-816.2623 1211.4458,-816.2623 1212.9752,-909.3133 1216.9243,-908.3245 1217.2937,-816.1829 1217.2937,-816.1829 1216.9243,-908.3245 1217.6189,-908.1755 1230.2699,-905.9097 1240.3368,-904.8295 1248.9299,-904.2168 1248.5626,-845.4053 1244.5726,-817.9838 1239.9106,-820.795 1234.8464,-820.795 1234.8464,-820.795 1239.9106,-820.795 1244.5726,-817.9838 1246.2781,-815.729 1245.8264,-815.1771 1239.7654,-811.4119 1234.6757,-811.4119 1234.6757,-811.4119 1239.7654,-811.4119 1245.8264,-815.1771 1246.2781,-815.729 1244.5726,-817.9838 1248.5626,-845.4053 1248.9299,-904.2168 1253.8594,-904.22 1260.1632,-903.9919 1260.0538,-881.7894 1260.0538,-881.7894 1260.1632,-903.9919 1261.1563,-904.0275 1271.5675,-904.0172 1272.9959,-904.1187 1272.8929,-909.1959 1274.469,-991.776 1279.4113,-991.776 1280.0938,-992.0057 1283.085,-992.0057 1285.9358,-994.8926 1291.9546,-996.916 1297.421,-995.155 1300.5018,-992.1517 1300.5018,-992.1517 1297.421,-995.155 1291.9546,-996.916 1285.9358,-994.8926 1283.085,-992.0057 1280.0938,-992.0057 1279.4113,-991.776 1274.469,-991.776 1272.8929,-909.1959 1272.9959,-904.1187 1271.5675,-904.0172 1261.1563,-904.0275 1260.1632,-903.9919 1253.8594,-904.22 1248.9299,-904.2168 1240.3368,-904.8295 1230.2699,-905.9097 1217.6189,-908.1755 1216.9243,-908.3245 1212.9752,-909.3133 1211.4458,-816.2623 1206.0502,-816.2623 1205.0095,-886.5057 1199.5464,-816.1039 1196.2804,-816.1039 1194.6566,-813.5164 1189.0144,-809.5775 1184.2408,-686.2682 1184.066,-686.0838 1166.3342,-550.4235 1103.3491,-488.9167 1082.3981,-491.8803 1070.3218,-518.8702 1069.1035,-521.4934 1048.9984,-563.2202 1049.0602,-596.4899 1047.1174,-690.4215 1042.5884,-734.127 1040.9963,-734.127 1037.8363,-731.1721 1032.3102,-729.425 1025.095,-731.8661 1022.4836,-734.2668 1021.0694,-734.2668 1021.0694,-734.2668 1022.4836,-734.2668 1025.095,-731.8661 1032.3102,-729.425 1037.8363,-731.1721 1040.9963,-734.127 1042.5884,-734.127 1047.1174,-690.4215 1049.0602,-596.4899 1048.9984,-563.2202 1069.1035,-521.4934 1070.3218,-518.8702 1082.3981,-491.8803 996.3378,-472.1448 995.6049,-472.0001 974.2501,-468.4563 963.2972,-466.987 915.6086,-488.8833 912.0063,-490.4646 908.2574,-663.1742 914.0151,-659.4326 923.2011,-662.0521 992.1938,-649.6185 991.5611,-650.535 991.5611,-650.535 992.1938,-649.6185 923.2011,-662.0521 914.0151,-659.4326 908.2574,-663.1742 912.0063,-490.4646 911.0476,-490.8662 902.2971,-665.7264 901.9141,-665.8459 897.7053,-665.8459 897.6444,-665.8271 897.6444,-665.8271 897.7053,-665.8459 901.9141,-665.8459 902.2971,-665.7264 911.0476,-490.8662 889.8237,-499.3354 883.4534,-501.6162 882.2469,-558.6404 882.2469,-558.6404 883.4534,-501.6162 865.127,-507.0707 850.8796,-510.732 834.4175,-513.959 834.7438,-591.4406 834.7438,-591.4406 834.4175,-513.959 834.4175,-513.959"/>
<polygon fill="#fbb4ae" stroke="#fbb4ae" points="-107.2439,-63.8395 -107.5256,-65.3743 -115.0286,-83.7235 -124.4384,-113.6556 8.0064,-137.8589 27.0281,-137.541 27.3069,-106.063 -4.2614,-94.802 45.6608,-77.5838 48.7622,-73.3922 49.5971,-72.8605 51.679,-72.8605 52.3514,-72.6405 56.7401,-72.6405 65.7176,38.5506 65.9362,-4.6508 69.469,-69.7156 74.8715,-67.9672 81.3217,-70.1028 84.0242,-72.6615 86.9137,-72.6615 87.1357,-72.733 92.5964,-72.733 92.6367,-72.7203 97.77,-72.7203 98.2339,-72.5703 98.413,-72.2402 103.9992,-67.0154 143.0922,-65.8047 146.8316,-65.3682 112.7077,-19.3725 160.0057,-24.2863 165.9137,-19.2698 166.0279,-19.0669 167.1194,-18.1436 166.1014,-16.3832 166.1014,-16.3832 167.1194,-18.1436 170.9677,-18.1436 172.4253,-17.66 177.0641,-17.66 177.9774,-18.8866 183.7118,-22.6318 189.1555,-22.6318 195.7002,-18.2565 195.3201,-17.7307 195.3201,-17.7307 195.7002,-18.2565 189.1555,-22.6318 183.7118,-22.6318 177.9774,-18.8866 177.0641,-17.66 172.4253,-17.66 170.9677,-18.1436 167.1194,-18.1436 166.0279,-19.0669 165.9137,-19.2698 160.0057,-24.2863 157.9684,-76.3779 165.0666,-84.2908 172.9994,-94.1135 176.1864,-97.7078 178.1498,-100.3354 180.9864,-100.2262 187.7347,-100.2395 189.4454,-176.8035 192.8924,-180.8702 195.3849,-182.1237 197.7708,-100.2692 201.0546,-100.2591 201.9824,-177.6937 195.512,-182.2321 195.9358,-182.8176 201.4514,-186.541 204.9793,-220.9316 204.7474,-296.0611 213.6324,-288.4913 289.3592,-297.6733 313.3315,-297.0688 318.6812,-301.8137 320.1226,-240.3301 325.2039,-302.6921 328.8962,-302.6921 330.8298,-303.3203 335.0374,-303.3203 336.7371,-302.7687 340.2045,-302.7687 344.3314,-271.7636 345.0739,-174.9129 348.5673,-171.1446 366.1391,-151.2964 364.6798,-241.721 364.6798,-241.721 366.1391,-151.2964 348.5673,-171.1446 345.0739,-174.9129 344.3314,-271.7636 340.2045,-302.7687 336.7371,-302.7687 335.0374,-303.3203 330.8298,-303.3203 328.8962,-302.6921 325.2039,-302.6921 320.1226,-240.3301 318.6812,-301.8137 313.3315,-297.0688 289.3592,-297.6733 213.6324,-288.4913 204.7474,-296.0611 204.9793,-220.9316 201.4514,-186.541 195.9358,-182.8176 195.512,-182.2321 201.9824,-177.6937 201.0546,-100.2591 197.7708,-100.2692 195.3849,-182.1237 192.8924,-180.8702 189.4454,-176.8035 187.7347,-100.2395 180.9864,-100.2262 178.1498,-100.3354 176.1864,-97.7078 172.9994,-94.1135 165.0666,-84.2908 157.9684,-76.3779 160.0057,-24.2863 112.7077,-19.3725 146.8316,-65.3682 143.0922,-65.8047 103.9992,-67.0154 98.413,-72.2402 98.2339,-72.5703 97.77,-72.7203 92.6367,-72.7203 92.5964,-72.733 87.1357,-72.733 86.9137,-72.6615 84.0242,-72.6615 81.3217,-70.1028 74.8715,-67.9672 69.469,-69.7156 65.9362,-4.6508 65.7176,38.5506 56.7401,-72.6405 52.3514,-72.6405 51.679,-72.8605 49.5971,-72.8605 48.7622,-73.3922 45.6608,-77.5838 -4.2614,-94.802 27.3069,-106.063 27.0281,-137.541 8.0064,-137.8589 -124.4384,-113.6556 -143.2085,-165.8408 -127.7908,-204.6841 26.8312,-148.172 29.5958,-201.0441 33.701,-143.6063 38.6412,-143.6063 38.7039,-143.689 38.7039,-143.689 38.6412,-143.6063 33.701,-143.6063 29.5958,-201.0441 26.8312,-148.172 -127.7908,-204.6841 -119.9962,-225.5216 -9.4418,-289.055 10.0866,-293.5491 28.6988,-294.5502 33.4419,-295.0073 42.8827,-295.0172 43.8103,-295.0573 61.3481,-296.188 75.2372,-297.6702 86.1337,-299.062 153.1998,-340.0606 155.318,-346.7046 167.7842,-379.2558 188.207,-440.3882 188.4745,-447.8123 188.6949,-462.6772 188.1053,-555.4932 182.0313,-565.8931 100.201,-611.5285 69.1825,-669.3562 60.9749,-701.2906 71.5184,-748.1183 72.8593,-755.5735 89.1966,-859.4664 106.354,-893.2786 131.0386,-909.5715 208.8846,-929.4758 224.8441,-933.8369 236.6467,-937.6794 238.0196,-864.5717 238.0196,-864.5717 236.6467,-937.6794 259.2571,-946.2347 264.1282,-948.2463 275.3041,-953.2531 275.4783,-953.0959 273.4137,-755.0737 278.7427,-755.0737 284.821,-751.1129 285.4832,-750.2637 284.9272,-749.6019 279.2462,-746.1437 279.2462,-746.1437 284.9272,-749.6019 285.4832,-750.2637 284.821,-751.1129 278.7427,-755.0737 273.4137,-755.0737 275.4783,-953.0959 285.9149,-943.9464 289.6494,-940.867 303.2742,-930.3185 309.2063,-925.8787 330.0676,-911.8441 336.1208,-908.0862 336.7449,-907.7148 420.4113,-860.0345 431.8958,-807.9865 433.2049,-801.0806 438.2389,-769.2706 438.2459,-769.2396 445.5051,-731.2352 521.9601,-653.5806 526.6688,-649.2219 532.0811,-643.9943 536.9202,-643.7921 542.3105,-643.7886 542.6958,-643.8952 558.2707,-647.5284 569.3249,-649.6227 570.6957,-649.8524 585.1566,-651.6456 593.0588,-652.2808 597.8986,-652.5643 607.3599,-652.7064 616.5797,-652.6437 621.0827,-652.7189 622.4637,-652.7744 622.7656,-652.7936 629.1911,-652.9225 643.043,-653.5259 648.7349,-654.0408 672.6652,-656.7679 680.9827,-648.0094 686.3851,-642.0452 793.2296,-518.1398 787.9222,-513.35 780.3665,-505.5544 772.5222,-497.8225 759.0092,-485.7402 750.0218,-478.1317 747.9388,-476.5663 741.5157,-472.0286 721.8655,-459.8958 655.8246,-425.3481 650.2339,-506.6214 644.9399,-510.0884 643.1462,-513.3279 640.7328,-513.3279 637.6201,-510.0472 632.2924,-508.2899 632.2924,-508.2899 637.6201,-510.0472 640.7328,-513.3279 643.1462,-513.3279 644.9399,-510.0884 650.2339,-506.6214 655.8246,-425.3481 640.267,-416.4229 625.712,-406.6624 617.7005,-400.5287 601.2603,-386.3308 576.3088,-487.6852 535.5646,-489.6773 533.443,-458.2045 535.7639,-388.4651 520.0515,-411.982 515.8635,-417.7566 505.391,-429.9261 500.0279,-435.5559 499.5821,-447.8633 494.8766,-490.5227 489.7904,-492.0629 486.1436,-495.4387 489.3804,-498.5018 489.3804,-498.5018 486.1436,-495.4387 489.7904,-492.0629 494.8766,-490.5227 499.5821,-447.8633 500.0279,-435.5559 505.391,-429.9261 515.8635,-417.7566 520.0515,-411.982 535.7639,-388.4651 533.443,-458.2045 535.5646,-489.6773 576.3088,-487.6852 601.2603,-386.3308 591.1257,-369.36 570.5443,-339.812 560.361,-346.5477 444.0418,-371.4065 444.0418,-371.4065 560.361,-346.5477 570.5443,-339.812 576.5081,-303.14 593.1564,-228.5951 462.4162,-116.7064 428.0785,-93.4035 413.4698,-88.8744 416.1451,-234.312 420.2199,-296.799 420.2199,-296.799 416.1451,-234.312 413.4698,-88.8744 412.4786,-88.5371 410.6305,-89.8888 410.5424,-90.0253 406.8478,-192.582 402.2366,-264.9752 396.1928,-302.8149 397.9839,-303.3985 403.1837,-303.3985 403.2408,-359.6331 406.1744,-362.8924 407.6374,-364.7114 415.4471,-373.3541 411.6065,-376.5956 407.5533,-379.692 404.5065,-381.7805 397.9008,-385.8054 395.1374,-439.5979 398.8479,-443.0213 395.5954,-446.1089 395.5954,-446.1089 398.8479,-443.0213 395.1374,-439.5979 390.3276,-438.164 390.3276,-438.164 395.1374,-439.5979 397.9008,-385.8054 404.5065,-381.7805 407.5533,-379.692 411.6065,-376.5956 415.4471,-373.3541 407.6374,-364.7114 406.1744,-362.8924 403.2408,-359.6331 403.1837,-303.3985 397.9839,-303.3985 396.1928,-302.8149 402.2366,-264.9752 406.8478,-192.582 410.5424,-90.0253 410.6305,-89.8888 412.4786,-88.5371 407.3376,-72.3577 384.7083,-31.5874 373.9943,-11.4475 368.4668,-.0309 349.6328,37.3152 288.3912,111.4521 211.2747,139.6724 205.0916,142.0756 199.4074,144.4137 185.4347,151.1296 180.5889,153.5701 173.1572,157.4844 168.4919,157.7763 161.2908,155.9969 142.4399,152.4018 42.7757,82.2102 -5.0841,74.2181 -26.2245,63.4525 -96.5314,6.3165 -101.1396,-26.3134 -107.2439,-63.8395 -107.2439,-63.8395"/>
<polygon fill="#ccebc5" stroke="#ccebc5" points="2166.3054,-159.1455 2165.6023,-205.4301 2165.6023,-205.4301 2166.3054,-159.1455 2159.2783,-153.617 2148.2571,-153.6102 2142.3945,-153.4205 2140.6052,-154.5293 2129.7639,-160.7784 2129.5376,-337.3238 2124.0579,-337.3238 2118.5488,-340.7664 2117.4636,-342.1655 2118.3672,-343.2883 2123.5974,-346.4887 2123.5974,-346.4887 2118.3672,-343.2883 2117.4636,-342.1655 2118.5488,-340.7664 2124.0579,-337.3238 2129.5376,-337.3238 2129.7639,-160.7784 2116.5696,-168.0955 2116.2983,-168.2399 2106.4795,-173.0381 2086.6548,-181.8665 2010.2765,-210.834 1976.786,-236.5852 1976.2032,-236.7531 1964.9602,-239.2803 1956.5753,-240.8129 1947.9937,-242.0221 1947.3566,-242.0985 1929.6442,-245.9424 1839.4149,-263.5298 1834.186,-264.876 1829.2775,-264.3223 1829.024,-264.2889 1820.6077,-263.017 1818.9011,-263.438 1813.0907,-264.7566 1788.4016,-268.9045 1784.5526,-269.4744 1783.8872,-269.5335 1766.7659,-270.7177 1756.0875,-271.2452 1689.2645,-273.2244 1681.1042,-286.0015 1673.3873,-290.1328 1608.9586,-328.1132 1604.9105,-330.3361 1589.8694,-337.9928 1587.2985,-339.0879 1571.6802,-345.1104 1565.3278,-347.0311 1554.2802,-349.4717 1550.2919,-350.1889 1542.5328,-351.2667 1534.7266,-352.0302 1527.5195,-352.1441 1525.6224,-352.2517 1515.7657,-352.406 1514.4934,-352.4779 1504.3983,-353.461 1491.8719,-355.7053 1481.504,-358.4075 1479.0717,-359.1397 1467.9395,-363.4136 1461.1968,-361.3586 1446.5576,-358.5791 1440.2391,-357.6229 1435.4529,-357.2646 1426.8093,-356.9469 1413.3702,-355.935 1402.6359,-354.3014 1395.2246,-352.89 1393.6237,-352.5243 1378.3507,-347.85 1366.6323,-343.3647 1366.1146,-343.1471 1362.1584,-341.3305 1345.0452,-332.8038 1326.309,-321.3401 1321.2335,-321.5263 1239.7827,-326.6033 1226.8633,-332.261 1211.5527,-339.6918 1207.295,-341.9579 1187.4943,-352.9683 1169.736,-364.5047 1163.8136,-368.6288 1129.2168,-440.56 1103.3491,-488.9167 1166.3342,-550.4235 1310.254,-570.4662 1316.6003,-571.0565 1319.0309,-571.2264 1331.2925,-571.8002 1341.9967,-447.0938 1346.5857,-443.9802 1348.3524,-440.7729 1348.3524,-440.7729 1346.5857,-443.9802 1341.9967,-447.0938 1331.2925,-571.8002 1336.829,-572.1895 1349.5173,-572.1979 1356.6118,-572.038 1356.6752,-572.0336 1356.7323,-572.0323 1362.5443,-571.7693 1366.1083,-571.6913 1379.9717,-572.3611 1387.6857,-572.1972 1387.9119,-572.1977 1388.3712,-572.188 1391.0197,-572.1942 1392.1929,-572.1697 1397.7179,-571.9266 1402.3672,-571.9393 1407.1636,-572.1767 1419.0665,-572.4897 1426.2969,-572.8488 1486.9889,-577.276 1532.9156,-598.3201 1533.6016,-598.6649 1537.2467,-600.6645 1555.6368,-596.2712 1568.2977,-593.9725 1576.3485,-592.6649 1577.6698,-592.4756 1581.5917,-591.9885 1600.0774,-590.3963 1610.1024,-589.9161 1620.4359,-589.6185 1687.12,-545.1277 1755.3983,-546.7475 1757.7275,-546.864 1770.2212,-546.8516 1770.4663,-546.8578 1774.4242,-546.8569 1774.9701,-546.8428 1785.0842,-547.114 1785.2815,-547.1093 1788.4967,-546.9491 1790.7235,-546.8968 1795.8909,-546.9112 1801.8022,-546.7767 1803.7999,-546.6803 1806.6128,-546.6185 1806.6296,-545.8037 1810.3394,-467.2383 1810.3394,-467.2383 1806.6296,-545.8037 1806.6128,-546.6185 1813.3898,-547.004 1814.2811,-547.032 1823.1102,-546.8578 1826.6989,-546.9758 1840.266,-546.7286 1841.1058,-546.7354 1847.2769,-546.4709 1849.1375,-546.3437 1859.8135,-545.3414 1865.6368,-544.4972 1876.1536,-550.2827 1962.9208,-595.0804 1962.9242,-595.0824 2001.6628,-666.37 2019.3685,-694.1511 2067.9116,-688.6207 2079.7202,-687.5291 2080.585,-687.4678 2081.0466,-687.4548 2095.3555,-687.3606 2100.5569,-687.55 2107.0146,-686.8227 2112.8022,-686.2972 2113.262,-545.4446 2114.061,-544.4756 2112.6506,-542.668 2108.1985,-539.9483 2108.1985,-539.9483 2112.6506,-542.668 2119.8772,-448.0626 2123.5203,-446.3057 2125.4629,-445.2903 2128.9119,-443.1973 2128.259,-442.0089 2116.373,-423.2537 2111.5273,-416.2361 2096.7791,-398.4287 2094.6619,-396.1644 2093.5947,-395.158 2092.5115,-393.8132 2082.717,-383.1825 2075.4309,-376.5579 2046.7797,-382.3685 2044.0488,-385.7313 2040.8193,-387.0189 2039.6102,-388.0847 2036.2185,-388.0847 2032.1859,-424.6332 2028.8496,-387.959 2024.7278,-387.959 2021.1628,-432.0515 2017.702,-387.7857 2017.6808,-387.779 2013.7068,-387.779 2013.6121,-387.7489 2006.8114,-387.7489 2005.8699,-387.4443 2002.4038,-387.4443 2001.4534,-386.3061 1996.6582,-383.452 1996.6582,-383.452 2001.4534,-386.3061 2002.4038,-387.4443 2005.8699,-387.4443 2006.8114,-387.7489 2013.6121,-387.7489 2013.7068,-387.779 2017.6808,-387.779 2017.702,-387.7857 2021.1628,-432.0515 2024.7278,-387.959 2028.8496,-387.959 2032.1859,-424.6332 2036.2185,-388.0847 2039.6102,-388.0847 2040.8193,-387.0189 2044.0488,-385.7313 2046.7797,-382.3685 2075.4309,-376.5579 2082.717,-383.1825 2092.5115,-393.8132 2093.5947,-395.158 2094.6619,-396.1644 2095.5696,-342.0581 2095.5696,-342.0581 2094.6619,-396.1644 2096.7791,-398.4287 2111.5273,-416.2361 2116.373,-423.2537 2128.259,-442.0089 2128.9119,-443.1973 2125.4629,-445.2903 2123.5203,-446.3057 2119.8772,-448.0626 2112.6506,-542.668 2114.061,-544.4756 2113.262,-545.4446 2112.8022,-686.2972 2125.1665,-685.4448 2137.8423,-685.1251 2195.3809,-687.4401 2198.0747,-687.2581 2229.6731,-674.3857 2245.3201,-662.9139 2285.6929,-612.5198 2294.4944,-587.3841 2304.4468,-553.0516 2308.5701,-539.7676 2326.0359,-490.0149 2325.189,-478.3 2317.5647,-466.6754 2310.6416,-342 2310.8687,-317.9692 2302.5825,-287.5842 2255.3008,-222.3501 2166.3054,-159.1455 2166.3054,-159.1455"/>
<polyline fill="none" stroke="#000000" points="1207.295,-341.9579 1211.5527,-339.6918 1226.8633,-332.261 1239.7827,-326.6033 1321.2335,-321.5263 1326.309,-321.3401 1345.0452,-332.8038 1362.1584,-341.3305 1366.1146,-343.1471 1366.6323,-343.3647 1378.3507,-347.85 1393.6237,-352.5243 1395.2246,-352.89 1402.6359,-354.3014 1413.3702,-355.935 1426.8093,-356.9469 1435.4529,-357.2646 1440.2391,-357.6229 1446.5576,-358.5791 1461.1968,-361.3586 1467.9395,-363.4136 1479.0717,-359.1397 1481.504,-358.4075 1491.8719,-355.7053 1504.3983,-353.461 1514.4934,-352.4779 1515.7657,-352.406 1525.6224,-352.2517 1527.5195,-352.1441 1534.7266,-352.0302 1542.5328,-351.2667 1550.2919,-350.1889 1554.2802,-349.4717 1565.3278,-347.0311 1571.6802,-345.1104 1587.2985,-339.0879 1589.8694,-337.9928 1604.9105,-330.3361 1608.9586,-328.1132 1673.3873,-290.1328 1681.1042,-286.0015 1689.2645,-273.2244 1668.0584,-240.8798 1620.099,-164.2083 1607.4292,-149.6176 1545.0015,-115.4788 1532.8484,-98.2139 1479.713,-59.5433 1471.7184,-37.0517 1464.9144,-14.9264 1443.1639,47.436 1440.9663,52.4158 1398.8713,93.6615 1366.7352,103.4852 1329.9753,105.8071 1316.0071,107.2484 1313.093,107.6072 1310.6505,107.0707 1297.5299,104.7261 1283.3916,103.0683 1273.8789,102.1482 1256.9351,101.5521 1238.6941,102.0334 1228.5006,102.9297 1219.5543,100.0026 1149.2875,78.6139 1088.8672,42.0963 1077.6768,-19.2932 1071.8347,-45.2763 1026.8192,-102.8171 999.7777,-110.0121 990.1913,-112.1281 969.192,-115.814 905.4287,-122.6519 830.4175,-164.8831 808.2184,-197.5618 782.3665,-205.6326 774.226,-207.8433 758.946,-211.3757 739.1296,-214.7528 726.6779,-216.1158 716.1059,-217.0582 607.538,-224.5252 593.1564,-228.5951 576.5081,-303.14 570.5443,-339.812 591.1257,-369.36 601.2603,-386.3308 617.7005,-400.5287 625.712,-406.6624 640.267,-416.4229 655.8246,-425.3481 721.8655,-459.8958 741.5157,-472.0286 747.9388,-476.5663 750.0218,-478.1317 759.0092,-485.7402 772.5222,-497.8225 780.3665,-505.5544 787.9222,-513.35 793.2296,-518.1398 793.7556,-518.0897 816.1807,-516.424 834.4175,-513.959 850.8796,-510.732 865.127,-507.0707 883.4534,-501.6162 889.8237,-499.3354 911.0476,-490.8662 912.0063,-490.4646 915.6086,-488.8833 963.2972,-466.987 974.2501,-468.4563 995.6049,-472.0001 996.3378,-472.1448 1082.3981,-491.8803 1103.3491,-488.9167 1129.2168,-440.56 1163.8136,-368.6288 1169.736,-364.5047 1187.4943,-352.9683 1207.295,-341.9579 "/>
<polyline fill="none" stroke="#000000" points="771.2258,-816.9324 804.3693,-822.9778 822.8176,-826.708 842.8965,-831.9504 861.7494,-838.3531 954.8455,-938.7402 997.3527,-953.3362 1016.6509,-960.8704 1036.7275,-982.8856 1039.8861,-992.03 1047.5846,-1017.7737 1042.3883,-1054.9685 1058.8652,-1120.3042 1075.9734,-1195.1014 1077.6863,-1204.8397 1083.9048,-1235.5887 1088.5815,-1256.1382 1106.2587,-1326.2333 1032.2516,-1382.4697 997.4318,-1385.6307 952.0919,-1378.858 947.3474,-1378.254 946.2592,-1378.1394 931.342,-1377.2229 923.5477,-1376.9155 917.4085,-1376.8086 914.7896,-1376.8206 910.939,-1376.9227 904.7127,-1377.2251 861.5043,-1371.0806 768.8997,-1316.6012 752.3444,-1284.6403 652.6419,-1213.1522 531.3572,-1282.2865 497.991,-1281.2358 486.9997,-1281.1357 475.4682,-1281.2893 466.2138,-1281.62 463.9682,-1281.8008 451.9339,-1283.04 433.7452,-1285.729 381.4855,-1294.6149 328.2747,-1254.438 312.3598,-1220.3275 295.0464,-1138.1 284.2134,-1098.9446 295.5553,-1028.8622 288.1993,-998.7681 277.7203,-961.3773 275.3041,-953.2531 275.4783,-953.0959 285.9149,-943.9464 289.6494,-940.867 303.2742,-930.3185 309.2063,-925.8787 330.0676,-911.8441 336.1208,-908.0862 336.7449,-907.7148 420.4113,-860.0345 431.8958,-807.9865 433.2049,-801.0806 438.2389,-769.2706 438.2459,-769.2396 445.5051,-731.2352 521.9601,-653.5806 526.6688,-649.2219 532.0811,-643.9943 536.9202,-643.7921 542.3105,-643.7886 542.6958,-643.8952 558.2707,-647.5284 569.3249,-649.6227 570.6957,-649.8524 585.1566,-651.6456 593.0588,-652.2808 597.8986,-652.5643 607.3599,-652.7064 616.5797,-652.6437 621.0827,-652.7189 622.4637,-652.7744 622.7656,-652.7936 629.1911,-652.9225 643.043,-653.5259 648.7349,-654.0408 672.6652,-656.7679 701.3177,-702.889 740.235,-769.6188 771.2258,-816.9324 "/>
<polyline fill="none" stroke="#000000" points="1779.748,-986.6328 1787.0139,-1021.9583 1787.0746,-1027.4327 1787.375,-1037.0603 1777.6161,-1095.5369 1772.0596,-1112.7748 1764.1787,-1128.1381 1746.9968,-1141.3616 1692.9915,-1170.3163 1629.4915,-1173.6718 1629.413,-1173.6801 1605.8157,-1176.5527 1589.7909,-1179.3302 1586.8441,-1179.8914 1567.8188,-1184.4995 1555.3766,-1187.9401 1542.4379,-1191.9604 1541.1467,-1192.4056 1533.6232,-1195.2609 1530.3085,-1195.5303 1517.6418,-1196.7524 1513.4874,-1195.9341 1445.7579,-1183.6482 1399.8624,-1229.251 1305.8486,-1326.625 1260.918,-1326.6417 1239.5341,-1327.0848 1224.2413,-1328.3352 1209.6409,-1330.1228 1203.1936,-1331.0425 1202.7324,-1331.127 1176.0906,-1336.5502 1106.2587,-1326.2333 1088.5815,-1256.1382 1083.9048,-1235.5887 1077.6863,-1204.8397 1075.9734,-1195.1014 1058.8652,-1120.3042 1042.3883,-1054.9685 1047.5846,-1017.7737 1039.8861,-992.03 1036.7275,-982.8856 1016.6509,-960.8704 997.3527,-953.3362 954.8455,-938.7402 861.7494,-838.3531 842.8965,-831.9504 822.8176,-826.708 804.3693,-822.9778 771.2258,-816.9324 740.235,-769.6188 701.3177,-702.889 672.6652,-656.7679 680.9827,-648.0094 686.3851,-642.0452 793.2296,-518.1398 793.7556,-518.0897 816.1807,-516.424 834.4175,-513.959 850.8796,-510.732 865.127,-507.0707 883.4534,-501.6162 889.8237,-499.3354 911.0476,-490.8662 912.0063,-490.4646 915.6086,-488.8833 963.2972,-466.987 974.2501,-468.4563 995.6049,-472.0001 996.3378,-472.1448 1082.3981,-491.8803 1103.3491,-488.9167 1166.3342,-550.4235 1310.254,-570.4662 1316.6003,-571.0565 1319.0309,-571.2264 1331.2925,-571.8002 1336.829,-572.1895 1349.5173,-572.1979 1356.6118,-572.038 1356.6752,-572.0336 1356.7323,-572.0323 1362.5443,-571.7693 1366.1083,-571.6913 1379.9717,-572.3611 1387.6857,-572.1972 1387.9119,-572.1977 1388.3712,-572.188 1391.0197,-572.1942 1392.1929,-572.1697 1397.7179,-571.9266 1402.3672,-571.9393 1407.1636,-572.1767 1419.0665,-572.4897 1426.2969,-572.8488 1486.9889,-577.276 1532.9156,-598.3201 1533.6016,-598.6649 1537.2467,-600.6645 1555.6368,-596.2712 1568.2977,-593.9725 1576.3485,-592.6649 1577.6698,-592.4756 1581.5917,-591.9885 1600.0774,-590.3963 1610.1024,-589.9161 1620.4359,-589.6185 1687.12,-545.1277 1755.3983,-546.7475 1757.7275,-546.864 1770.2212,-546.8516 1770.4663,-546.8578 1774.4242,-546.8569 1774.9701,-546.8428 1785.0842,-547.114 1785.2815,-547.1093 1788.4967,-546.9491 1790.7235,-546.8968 1795.8909,-546.9112 1801.8022,-546.7767 1803.7999,-546.6803 1806.6128,-546.6185 1813.3898,-547.004 1814.2811,-547.032 1823.1102,-546.8578 1826.6989,-546.9758 1840.266,-546.7286 1841.1058,-546.7354 1847.2769,-546.4709 1849.1375,-546.3437 1859.8135,-545.3414 1865.6368,-544.4972 1876.1536,-550.2827 1962.9208,-595.0804 1962.9242,-595.0824 2001.6628,-666.37 2019.3685,-694.1511 1966.0826,-775.2542 1921.4045,-806.2096 1868.9275,-814.647 1867.0153,-815.0344 1844.4506,-820.082 1833.0236,-823.3497 1825.6932,-825.5977 1822.7448,-826.6243 1813.4838,-830.2408 1764.5005,-892.5037 1779.748,-986.6328 "/>
<polyline fill="none" stroke="#000000" points="521.9601,-653.5806 526.6688,-649.2219 532.0811,-643.9943 536.9202,-643.7921 542.3105,-643.7886 542.6958,-643.8952 558.2707,-647.5284 569.3249,-649.6227 570.6957,-649.8524 585.1566,-651.6456 593.0588,-652.2808 597.8986,-652.5643 607.3599,-652.7064 616.5797,-652.6437 621.0827,-652.7189 622.4637,-652.7744 622.7656,-652.7936 629.1911,-652.9225 643.043,-653.5259 648.7349,-654.0408 672.6652,-656.7679 680.9827,-648.0094 686.3851,-642.0452 793.2296,-518.1398 787.9222,-513.35 780.3665,-505.5544 772.5222,-497.8225 759.0092,-485.7402 750.0218,-478.1317 747.9388,-476.5663 741.5157,-472.0286 721.8655,-459.8958 655.8246,-425.3481 640.267,-416.4229 625.712,-406.6624 617.7005,-400.5287 601.2603,-386.3308 591.1257,-369.36 570.5443,-339.812 576.5081,-303.14 593.1564,-228.5951 462.4162,-116.7064 428.0785,-93.4035 413.4698,-88.8744 412.4786,-88.5371 407.3376,-72.3577 384.7083,-31.5874 373.9943,-11.4475 368.4668,-.0309 349.6328,37.3152 288.3912,111.4521 211.2747,139.6724 205.0916,142.0756 199.4074,144.4137 185.4347,151.1296 180.5889,153.5701 173.1572,157.4844 168.4919,157.7763 161.2908,155.9969 142.4399,152.4018 42.7757,82.2102 -5.0841,74.2181 -26.2245,63.4525 -96.5314,6.3165 -101.1396,-26.3134 -107.2439,-63.8395 -107.5256,-65.3743 -115.0286,-83.7235 -124.4384,-113.6556 -143.2085,-165.8408 -127.7908,-204.6841 -119.9962,-225.5216 -9.4418,-289.055 10.0866,-293.5491 28.6988,-294.5502 33.4419,-295.0073 42.8827,-295.0172 43.8103,-295.0573 61.3481,-296.188 75.2372,-297.6702 86.1337,-299.062 153.1998,-340.0606 155.318,-346.7046 167.7842,-379.2558 188.207,-440.3882 188.4745,-447.8123 188.6949,-462.6772 188.1053,-555.4932 182.0313,-565.8931 100.201,-611.5285 69.1825,-669.3562 60.9749,-701.2906 71.5184,-748.1183 72.8593,-755.5735 89.1966,-859.4664 106.354,-893.2786 131.0386,-909.5715 208.8846,-929.4758 224.8441,-933.8369 236.6467,-937.6794 259.2571,-946.2347 264.1282,-948.2463 275.3041,-953.2531 275.4783,-953.0959 285.9149,-943.9464 289.6494,-940.867 303.2742,-930.3185 309.2063,-925.8787 330.0676,-911.8441 336.1208,-908.0862 336.7449,-907.7148 420.4113,-860.0345 431.8958,-807.9865 433.2049,-801.0806 438.2389,-769.2706 438.2459,-769.2396 445.5051,-731.2352 521.9601,-653.5806 "/>
<polyline fill="none" stroke="#000000" points="1555.6368,-596.2712 1537.2467,-600.6645 1533.6016,-598.6649 1532.9156,-598.3201 1486.9889,-577.276 1426.2969,-572.8488 1419.0665,-572.4897 1407.1636,-572.1767 1402.3672,-571.9393 1397.7179,-571.9266 1392.1929,-572.1697 1391.0197,-572.1942 1388.3712,-572.188 1387.9119,-572.1977 1387.6857,-572.1972 1379.9717,-572.3611 1366.1083,-571.6913 1362.5443,-571.7693 1356.7323,-572.0323 1356.6752,-572.0336 1356.6118,-572.038 1349.5173,-572.1979 1336.829,-572.1895 1331.2925,-571.8002 1319.0309,-571.2264 1316.6003,-571.0565 1310.254,-570.4662 1166.3342,-550.4235 1103.3491,-488.9167 1129.2168,-440.56 1163.8136,-368.6288 1169.736,-364.5047 1187.4943,-352.9683 1207.295,-341.9579 1211.5527,-339.6918 1226.8633,-332.261 1239.7827,-326.6033 1321.2335,-321.5263 1326.309,-321.3401 1345.0452,-332.8038 1362.1584,-341.3305 1366.1146,-343.1471 1366.6323,-343.3647 1378.3507,-347.85 1393.6237,-352.5243 1395.2246,-352.89 1402.6359,-354.3014 1413.3702,-355.935 1426.8093,-356.9469 1435.4529,-357.2646 1440.2391,-357.6229 1446.5576,-358.5791 1461.1968,-361.3586 1467.9395,-363.4136 1479.0717,-359.1397 1481.504,-358.4075 1491.8719,-355.7053 1504.3983,-353.461 1514.4934,-352.4779 1515.7657,-352.406 1525.6224,-352.2517 1527.5195,-352.1441 1534.7266,-352.0302 1542.5328,-351.2667 1550.2919,-350.1889 1554.2802,-349.4717 1565.3278,-347.0311 1571.6802,-345.1104 1587.2985,-339.0879 1589.8694,-337.9928 1604.9105,-330.3361 1608.9586,-328.1132 1673.3873,-290.1328 1681.1042,-286.0015 1689.2645,-273.2244 1756.0875,-271.2452 1766.7659,-270.7177 1783.8872,-269.5335 1784.5526,-269.4744 1788.4016,-268.9045 1813.0907,-264.7566 1818.9011,-263.438 1820.6077,-263.017 1829.024,-264.2889 1829.2775,-264.3223 1834.186,-264.876 1839.4149,-263.5298 1929.6442,-245.9424 1947.3566,-242.0985 1947.9937,-242.0221 1956.5753,-240.8129 1964.9602,-239.2803 1976.2032,-236.7531 1976.786,-236.5852 2010.2765,-210.834 2086.6548,-181.8665 2106.4795,-173.0381 2116.2983,-168.2399 2116.5696,-168.0955 2129.7639,-160.7784 2140.6052,-154.5293 2142.3945,-153.4205 2148.2571,-153.6102 2159.2783,-153.617 2166.3054,-159.1455 2255.3008,-222.3501 2302.5825,-287.5842 2310.8687,-317.9692 2310.6416,-342 2317.5647,-466.6754 2325.189,-478.3 2326.0359,-490.0149 2308.5701,-539.7676 2304.4468,-553.0516 2294.4944,-587.3841 2285.6929,-612.5198 2245.3201,-662.9139 2229.6731,-674.3857 2198.0747,-687.2581 2195.3809,-687.4401 2137.8423,-685.1251 2125.1665,-685.4448 2112.8022,-686.2972 2107.0146,-686.8227 2100.5569,-687.55 2095.3555,-687.3606 2081.0466,-687.4548 2080.585,-687.4678 2079.7202,-687.5291 2067.9116,-688.6207 2019.3685,-694.1511 2001.6628,-666.37 1962.9242,-595.0824 1962.9208,-595.0804 1876.1536,-550.2827 1865.6368,-544.4972 1859.8135,-545.3414 1849.1375,-546.3437 1847.2769,-546.4709 1841.1058,-546.7354 1840.266,-546.7286 1826.6989,-546.9758 1823.1102,-546.8578 1814.2811,-547.032 1813.3898,-547.004 1806.6128,-546.6185 1803.7999,-546.6803 1801.8022,-546.7767 1795.8909,-546.9112 1790.7235,-546.8968 1788.4967,-546.9491 1785.2815,-547.1093 1785.0842,-547.114 1774.9701,-546.8428 1774.4242,-546.8569 1770.4663,-546.8578 1770.2212,-546.8516 1757.7275,-546.864 1755.3983,-546.7475 1687.12,-545.1277 1620.4359,-589.6185 1610.1024,-589.9161 1600.0774,-590.3963 1581.5917,-591.9885 1577.6698,-592.4756 1576.3485,-592.6649 1568.2977,-593.9725 1555.6368,-596.2712 "/>
<!-- authconfig&#45;&gt;policycoreutils -->
<g id="edge1" class="edge">
<title>authconfig&#45;&gt;policycoreutils</title>
<path fill="none" stroke="#444444" stroke-opacity="0.333333" d="M1262.5735,-183.9245C1264.8313,-184.2845 1267.1101,-184.6479 1269.4032,-185.0135"/>
<polygon fill="#444444" fill-opacity="0.333333" stroke="#444444" stroke-opacity="0.333333" points="1269.1014,-188.5095 1279.5278,-186.628 1270.2037,-181.5969 1269.1014,-188.5095"/>
</g>
<!-- authconfig&#45;&gt;python3&#45;sssdconfig -->
<g id="edge2" class="edge">
<title>authconfig&#45;&gt;python3&#45;sssdconfig</title>
<path fill="none" stroke="#444444" stroke-opacity="0.333333" d="M1209.1759,-155.4666C1222.9758,-133.6849 1246.2568,-96.9385 1262.1095,-71.9168"/>
<polygon fill="#444444" fill-opacity="0.333333" stroke="#444444" stroke-opacity="0.333333" points="1265.1872,-73.5988 1267.5825,-63.2782 1259.274,-69.8524 1265.1872,-73.5988"/>
</g>
<!-- policycoreutils&#45;&gt;libselinux&#45;utils -->
<g id="edge3" class="edge">
<title>policycoreutils&#45;&gt;libselinux&#45;utils</title>
<path fill="none" stroke="#444444" stroke-opacity="0.333333" d="M1397.5744,-219.1904C1411.3625,-228.4118 1428.318,-239.7516 1443.1487,-249.6703"/>
<polygon fill="#444444" fill-opacity="0.333333" stroke="#444444" stroke-opacity="0.333333" points="1441.3371,-252.6693 1451.5952,-255.3193 1445.2286,-246.8507 1441.3371,-252.6693"/>
</g>
<!-- curl&#45;minimal&#45;&gt;libcurl&#45;minimal -->
<g id="edge4" class="edge">
<title>curl&#45;minimal&#45;&gt;libcurl&#45;minimal</title>
<path fill="none" stroke="#444444" stroke-opacity="0.333333" d="M705.0321,-954.0443C679.9269,-922.0473 627.8615,-855.689 598.8605,-818.7266"/>
<polygon fill="#444444" fill-opacity="0.333333" stroke="#444444" stroke-opacity="0.333333" points="601.2825,-816.1435 592.356,-810.4366 595.7753,-820.4645 601.2825,-816.1435"/>
</g>
<!-- firewalld&#45;&gt;firewalld&#45;filesystem -->
<g id="edge5" class="edge">
<title>firewalld&#45;&gt;firewalld&#45;filesystem</title>
<path fill="none" stroke="#444444" stroke-opacity="0.333333" d="M1683.9294,-730.6167C1708.6877,-718.3405 1741.6199,-702.0113 1768.0873,-688.8876"/>
<polygon fill="#444444" fill-opacity="0.333333" stroke="#444444" stroke-opacity="0.333333" points="1769.7513,-691.9692 1777.1556,-684.3911 1766.6416,-685.6978 1769.7513,-691.9692"/>
</g>
<!-- firewalld&#45;&gt;python3&#45;firewall -->
<g id="edge6" class="edge">
<title>firewalld&#45;&gt;python3&#45;firewall</title>
<path fill="none" stroke="#444444" stroke-opacity="0.333333" d="M1612.979,-766.8107C1578.3769,-784.9841 1524.9994,-813.0184 1487.5162,-832.7049"/>
<polygon fill="#444444" fill-opacity="0.333333" stroke="#444444" stroke-opacity="0.333333" points="1485.5759,-829.7705 1478.3502,-837.519 1488.8308,-835.9678 1485.5759,-829.7705"/>
</g>
<!-- python3&#45;firewall&#45;&gt;python3&#45;dbus -->
<g id="edge7" class="edge">
<title>python3&#45;firewall&#45;&gt;python3&#45;dbus</title>
<path fill="none" stroke="#444444" stroke-opacity="0.333333" d="M1423.7757,-873.6822C1397.0358,-897.6428 1349.7913,-939.9767 1319.6514,-966.9839"/>
<polygon fill="#444444" fill-opacity="0.333333" stroke="#444444" stroke-opacity="0.333333" points="1317.1197,-964.5528 1312.0079,-973.8329 1321.7912,-969.7661 1317.1197,-964.5528"/>
</g>
<!-- python3&#45;firewall&#45;&gt;python3&#45;decorator -->
<g id="edge8" class="edge">
<title>python3&#45;firewall&#45;&gt;python3&#45;decorator</title>
<path fill="none" stroke="#444444" stroke-opacity="0.333333" d="M1433.5359,-837.5315C1418.1525,-811.0272 1389.3248,-761.3599 1371.427,-730.5238"/>
<polygon fill="#444444" fill-opacity="0.333333" stroke="#444444" stroke-opacity="0.333333" points="1374.2974,-728.4969 1366.2504,-721.6051 1368.2433,-732.0108 1374.2974,-728.4969"/>
</g>
<!-- python3&#45;firewall&#45;&gt;python3&#45;gobject&#45;base -->
<g id="edge9" class="edge">
<title>python3&#45;firewall&#45;&gt;python3&#45;gobject&#45;base</title>
<path fill="none" stroke="#444444" stroke-opacity="0.333333" d="M1461.0092,-873.8382C1484.6223,-899.2131 1527.4542,-945.2407 1554.3078,-974.0978"/>
<polygon fill="#444444" fill-opacity="0.333333" stroke="#444444" stroke-opacity="0.333333" points="1552.0543,-976.8139 1561.4289,-981.7502 1557.1788,-972.0452 1552.0543,-976.8139"/>
</g>
<!-- python3&#45;firewall&#45;&gt;python3&#45;slip&#45;dbus -->
<g id="edge10" class="edge">
<title>python3&#45;firewall&#45;&gt;python3&#45;slip&#45;dbus</title>
<path fill="none" stroke="#444444" stroke-opacity="0.333333" d="M1349.6319,-837.553C1347.0207,-837.0547 1344.4018,-836.555 1341.7818,-836.0551"/>
<polygon fill="#444444" fill-opacity="0.333333" stroke="#444444" stroke-opacity="0.333333" points="1342.164,-832.5649 1331.6852,-834.1285 1340.8519,-839.4409 1342.164,-832.5649"/>
</g>
<!-- python3&#45;dbus&#45;&gt;dbus&#45;glib -->
<g id="edge11" class="edge">
<title>python3&#45;dbus&#45;&gt;dbus&#45;glib</title>
<path fill="none" stroke="#444444" stroke-opacity="0.333333" d="M1284.907,-1010.287C1273.1386,-1041.9159 1248.8922,-1107.0807 1235.0276,-1144.3433"/>
<polygon fill="#444444" fill-opacity="0.333333" stroke="#444444" stroke-opacity="0.333333" points="1231.6184,-1143.4696 1231.4114,-1154.0624 1238.179,-1145.9106 1231.6184,-1143.4696"/>
</g>
<!-- python3&#45;slip&#45;dbus&#45;&gt;python3&#45;dbus -->
<g id="edge12" class="edge">
<title>python3&#45;slip&#45;dbus&#45;&gt;python3&#45;dbus</title>
<path fill="none" stroke="#444444" stroke-opacity="0.333333" d="M1242.7375,-834.247C1252.285,-865.0139 1271.6978,-927.5724 1283.0004,-963.9953"/>
<polygon fill="#444444" fill-opacity="0.333333" stroke="#444444" stroke-opacity="0.333333" points="1279.7866,-965.4484 1286.0932,-973.9618 1286.4721,-963.3737 1279.7866,-965.4484"/>
</g>
<!-- python3&#45;slip&#45;dbus&#45;&gt;python3&#45;decorator -->
<g id="edge13" class="edge">
<title>python3&#45;slip&#45;dbus&#45;&gt;python3&#45;decorator</title>
<path fill="none" stroke="#444444" stroke-opacity="0.333333" d="M1256.1712,-798.0081C1275.9857,-779.2319 1307.1412,-749.709 1329.3335,-728.6796"/>
<polygon fill="#444444" fill-opacity="0.333333" stroke="#444444" stroke-opacity="0.333333" points="1331.9248,-731.0459 1336.7761,-721.627 1327.11,-725.9648 1331.9248,-731.0459"/>
</g>
<!-- python3&#45;slip&#45;dbus&#45;&gt;python3&#45;slip -->
<g id="edge14" class="edge">
<title>python3&#45;slip&#45;dbus&#45;&gt;python3&#45;slip</title>
<path fill="none" stroke="#444444" stroke-opacity="0.333333" d="M1191.814,-798.0406C1160.8764,-785.7169 1119.7022,-769.3154 1086.8819,-756.2416"/>
<polygon fill="#444444" fill-opacity="0.333333" stroke="#444444" stroke-opacity="0.333333" points="1088.0099,-752.9236 1077.4246,-752.4744 1085.4194,-759.4266 1088.0099,-752.9236"/>
</g>
<!-- python3&#45;slip&#45;&gt;libselinux&#45;python3 -->
<g id="edge42" class="edge">
<title>python3&#45;slip&#45;&gt;libselinux&#45;python3</title>
<path fill="none" stroke="#444444" stroke-opacity="0.333333" d="M987.145,-716.2056C965.7117,-707.5209 939.8674,-697.049 917.3402,-687.9211"/>
<polygon fill="#444444" fill-opacity="0.333333" stroke="#444444" stroke-opacity="0.333333" points="918.4937,-684.6121 907.9112,-684.1005 915.8649,-691.0998 918.4937,-684.6121"/>
</g>
<!-- libmodman&#45;&gt;curl&#45;minimal -->
<g id="edge15" class="edge">
<title>libmodman&#45;&gt;curl&#45;minimal</title>
<path fill="none" stroke="#444444" stroke-opacity="0.333333" d="M822.415,-1107.8508C801.8413,-1080.7909 763.1323,-1029.8783 739.4504,-998.7304"/>
<polygon fill="#444444" fill-opacity="0.333333" stroke="#444444" stroke-opacity="0.333333" points="742.0355,-996.3476 733.1969,-990.5055 736.4631,-1000.5843 742.0355,-996.3476"/>
</g>
<!-- libproxy&#45;&gt;libmodman -->
<g id="edge16" class="edge">
<title>libproxy&#45;&gt;libmodman</title>
<path fill="none" stroke="#444444" stroke-opacity="0.333333" d="M915.5103,-1213.2233C900.0351,-1196.2043 876.8717,-1170.7302 859.5838,-1151.7176"/>
<polygon fill="#444444" fill-opacity="0.333333" stroke="#444444" stroke-opacity="0.333333" points="862.1254,-1149.3102 852.8082,-1144.2661 856.9463,-1154.0195 862.1254,-1149.3102"/>
</g>
<!-- libpsl&#45;&gt;publicsuffix&#45;list&#45;dafsa -->
<g id="edge17" class="edge">
<title>libpsl&#45;&gt;publicsuffix&#45;list&#45;dafsa</title>
<path fill="none" stroke="#444444" stroke-opacity="0.333333" d="M355.5826,-654.0241C339.9304,-673.0784 315.2045,-703.1786 297.5178,-724.7095"/>
<polygon fill="#444444" fill-opacity="0.333333" stroke="#444444" stroke-opacity="0.333333" points="294.7605,-722.5522 291.1175,-732.501 300.1695,-726.9955 294.7605,-722.5522"/>
</g>
<!-- libteam&#45;&gt;libnl3&#45;cli -->
<g id="edge18" class="edge">
<title>libteam&#45;&gt;libnl3&#45;cli</title>
<path fill="none" stroke="#444444" stroke-opacity="0.333333" d="M55.027,-125.3892C57.8928,-117.8636 61.2797,-108.9698 64.4429,-100.6632"/>
<polygon fill="#444444" fill-opacity="0.333333" stroke="#444444" stroke-opacity="0.333333" points="67.7209,-101.8897 68.0089,-91.2988 61.1792,-99.3985 67.7209,-101.8897"/>
</g>
<!-- mariadb&#45;common&#45;&gt;mariadb&#45;config -->
<g id="edge19" class="edge">
<title>mariadb&#45;common&#45;&gt;mariadb&#45;config</title>
<path fill="none" stroke="#444444" stroke-opacity="0.333333" d="M1480.3153,-435.4314C1479.5398,-435.4718 1478.7637,-435.5122 1477.9873,-435.5526"/>
<polygon fill="#444444" fill-opacity="0.333333" stroke="#444444" stroke-opacity="0.333333" points="1477.6956,-432.063 1467.8911,-436.0782 1478.0595,-439.0535 1477.6956,-432.063"/>
</g>
<!-- mariadb&#45;libs&#45;&gt;mariadb&#45;common -->
<g id="edge20" class="edge">
<title>mariadb&#45;libs&#45;&gt;mariadb&#45;common</title>
<path fill="none" stroke="#444444" stroke-opacity="0.333333" d="M1721.6947,-428.4279C1702.8786,-428.7335 1682.453,-429.0652 1662.7864,-429.3846"/>
<polygon fill="#444444" fill-opacity="0.333333" stroke="#444444" stroke-opacity="0.333333" points="1662.5256,-425.8883 1652.5838,-429.5503 1662.6394,-432.8874 1662.5256,-425.8883"/>
</g>
<!-- net&#45;snmp&#45;agent&#45;libs&#45;&gt;mariadb&#45;libs -->
<g id="edge21" class="edge">
<title>net&#45;snmp&#45;agent&#45;libs&#45;&gt;mariadb&#45;libs</title>
<path fill="none" stroke="#444444" stroke-opacity="0.333333" d="M1903.7946,-405.7325C1896.8826,-407.1258 1889.913,-408.5308 1883.025,-409.9193"/>
<polygon fill="#444444" fill-opacity="0.333333" stroke="#444444" stroke-opacity="0.333333" points="1882.1191,-406.5314 1873.008,-411.9385 1883.5024,-413.3934 1882.1191,-406.5314"/>
</g>
<!-- net&#45;snmp&#45;agent&#45;libs&#45;&gt;lm_sensors&#45;libs -->
<g id="edge22" class="edge">
<title>net&#45;snmp&#45;agent&#45;libs&#45;&gt;lm_sensors&#45;libs</title>
<path fill="none" stroke="#444444" stroke-opacity="0.333333" d="M2045.9023,-369.6563C2051.9332,-367.592 2058.1235,-365.4731 2064.2644,-363.3711"/>
<polygon fill="#444444" fill-opacity="0.333333" stroke="#444444" stroke-opacity="0.333333" points="2065.5162,-366.6421 2073.8438,-360.0922 2063.2492,-360.0193 2065.5162,-366.6421"/>
</g>
<!-- net&#45;snmp&#45;agent&#45;libs&#45;&gt;net&#45;snmp&#45;libs -->
<g id="edge23" class="edge">
<title>net&#45;snmp&#45;agent&#45;libs&#45;&gt;net&#45;snmp&#45;libs</title>
<path fill="none" stroke="#444444" stroke-opacity="0.333333" d="M2006.1087,-405.9877C2025.7472,-433.5503 2063.0696,-485.9322 2085.7059,-517.7022"/>
<polygon fill="#444444" fill-opacity="0.333333" stroke="#444444" stroke-opacity="0.333333" points="2083.0209,-519.9654 2091.6742,-526.0786 2088.7218,-515.9034 2083.0209,-519.9654"/>
</g>
<!-- net&#45;snmp&#45;&gt;mariadb&#45;libs -->
<g id="edge24" class="edge">
<title>net&#45;snmp&#45;&gt;mariadb&#45;libs</title>
<path fill="none" stroke="#444444" stroke-opacity="0.333333" d="M1934.1496,-462.44C1916.4838,-457.8909 1896.4857,-452.7412 1877.341,-447.8113"/>
<polygon fill="#444444" fill-opacity="0.333333" stroke="#444444" stroke-opacity="0.333333" points="1877.9812,-444.362 1867.4243,-445.2576 1876.2355,-451.1409 1877.9812,-444.362"/>
</g>
<!-- net&#45;snmp&#45;&gt;net&#45;snmp&#45;agent&#45;libs -->
<g id="edge25" class="edge">
<title>net&#45;snmp&#45;&gt;net&#45;snmp&#45;agent&#45;libs</title>
<path fill="none" stroke="#444444" stroke-opacity="0.333333" d="M1989.3738,-458.0354C1990.0146,-445.9461 1990.866,-429.8806 1991.5933,-416.1589"/>
<polygon fill="#444444" fill-opacity="0.333333" stroke="#444444" stroke-opacity="0.333333" points="1995.1092,-415.9489 1992.1435,-405.7776 1988.119,-415.5783 1995.1092,-415.9489"/>
</g>
<!-- net&#45;snmp&#45;&gt;lm_sensors&#45;libs -->
<g id="edge26" class="edge">
<title>net&#45;snmp&#45;&gt;lm_sensors&#45;libs</title>
<path fill="none" stroke="#444444" stroke-opacity="0.333333" d="M2007.0518,-458.2829C2031.1789,-434.8344 2073.34,-393.8591 2100.6274,-367.3393"/>
<polygon fill="#444444" fill-opacity="0.333333" stroke="#444444" stroke-opacity="0.333333" points="2103.1702,-369.7487 2107.9021,-360.2692 2098.2915,-364.7288 2103.1702,-369.7487"/>
</g>
<!-- net&#45;snmp&#45;&gt;net&#45;snmp&#45;libs -->
<g id="edge27" class="edge">
<title>net&#45;snmp&#45;&gt;net&#45;snmp&#45;libs</title>
<path fill="none" stroke="#444444" stroke-opacity="0.333333" d="M2019.5395,-494.5818C2033.3461,-502.6388 2049.7626,-512.2189 2064.4738,-520.8038"/>
<polygon fill="#444444" fill-opacity="0.333333" stroke="#444444" stroke-opacity="0.333333" points="2062.9736,-523.9807 2073.3746,-525.998 2066.5017,-517.9348 2062.9736,-523.9807"/>
</g>
<!-- NetworkManager&#45;&gt;libcurl&#45;minimal -->
<g id="edge28" class="edge">
<title>NetworkManager&#45;&gt;libcurl&#45;minimal</title>
<path fill="none" stroke="#444444" stroke-opacity="0.333333" d="M500.3904,-513.6643C514.3502,-563.6631 553.4829,-703.8213 570.3361,-764.1829"/>
<polygon fill="#444444" fill-opacity="0.333333" stroke="#444444" stroke-opacity="0.333333" points="567.0602,-765.4653 573.1205,-774.1557 573.8024,-763.5828 567.0602,-765.4653"/>
</g>
<!-- NetworkManager&#45;&gt;libpsl -->
<g id="edge29" class="edge">
<title>NetworkManager&#45;&gt;libpsl</title>
<path fill="none" stroke="#444444" stroke-opacity="0.333333" d="M479.2688,-513.5945C457.5766,-537.9789 418.7694,-581.6025 393.8573,-609.6064"/>
<polygon fill="#444444" fill-opacity="0.333333" stroke="#444444" stroke-opacity="0.333333" points="390.9475,-607.6114 386.9159,-617.4092 396.1775,-612.264 390.9475,-607.6114"/>
</g>
<!-- NetworkManager&#45;&gt;jansson -->
<g id="edge30" class="edge">
<title>NetworkManager&#45;&gt;jansson</title>
<path fill="none" stroke="#444444" stroke-opacity="0.333333" d="M474.2076,-477.3774C445.1529,-452.3939 392.7506,-407.3344 360.0847,-379.2459"/>
<polygon fill="#444444" fill-opacity="0.333333" stroke="#444444" stroke-opacity="0.333333" points="362.0956,-376.359 352.2313,-372.4929 357.5317,-381.6666 362.0956,-376.359"/>
</g>
<!-- NetworkManager&#45;&gt;libndp -->
<g id="edge31" class="edge">
<title>NetworkManager&#45;&gt;libndp</title>
<path fill="none" stroke="#444444" stroke-opacity="0.333333" d="M581.51,-506.7688C581.6633,-506.7888 581.8165,-506.8087 581.9695,-506.8287"/>
<polygon fill="#444444" fill-opacity="0.333333" stroke="#444444" stroke-opacity="0.333333" points="578.3859,-509.8912 588.7543,-507.7127 579.2904,-502.9499 578.3859,-509.8912"/>
</g>
<!-- NetworkManager&#45;&gt;NetworkManager&#45;libnm -->
<g id="edge32" class="edge">
<title>NetworkManager&#45;&gt;NetworkManager&#45;libnm</title>
<path fill="none" stroke="#444444" stroke-opacity="0.333333" d="M459.0126,-477.5103C451.3848,-473.7235 443.2475,-469.6838 435.3315,-465.754"/>
<polygon fill="#444444" fill-opacity="0.333333" stroke="#444444" stroke-opacity="0.333333" points="436.6977,-462.5247 426.1844,-461.2129 433.585,-468.7946 436.6977,-462.5247"/>
</g>
<!-- NetworkManager&#45;&gt;polkit&#45;libs -->
<g id="edge33" class="edge">
<title>NetworkManager&#45;&gt;polkit&#45;libs</title>
<path fill="none" stroke="#444444" stroke-opacity="0.333333" d="M532.4126,-477.4615C578.7313,-454.8802 657.977,-416.2463 708.1255,-391.7979"/>
<polygon fill="#444444" fill-opacity="0.333333" stroke="#444444" stroke-opacity="0.333333" points="709.6813,-394.9333 717.1362,-387.405 706.6137,-388.6412 709.6813,-394.9333"/>
</g>
<!-- NetworkManager&#45;libnm&#45;&gt;jansson -->
<g id="edge34" class="edge">
<title>NetworkManager&#45;libnm&#45;&gt;jansson</title>
<path fill="none" stroke="#444444" stroke-opacity="0.333333" d="M377.656,-424.7609C369.2704,-412.0631 357.9903,-394.9822 348.6441,-380.8299"/>
<polygon fill="#444444" fill-opacity="0.333333" stroke="#444444" stroke-opacity="0.333333" points="351.5493,-378.8777 343.1179,-372.4618 345.7081,-382.7352 351.5493,-378.8777"/>
</g>
<!-- NetworkManager&#45;team&#45;&gt;NetworkManager -->
<g id="edge35" class="edge">
<title>NetworkManager&#45;team&#45;&gt;NetworkManager</title>
<path fill="none" stroke="#444444" stroke-opacity="0.333333" d="M378.7559,-321.2405C401.5568,-355.332 450.9607,-429.1999 477.544,-468.9467"/>
<polygon fill="#444444" fill-opacity="0.333333" stroke="#444444" stroke-opacity="0.333333" points="474.6938,-470.9809 483.1625,-477.3474 480.5124,-467.0894 474.6938,-470.9809"/>
</g>
<!-- NetworkManager&#45;team&#45;&gt;jansson -->
<g id="edge36" class="edge">
<title>NetworkManager&#45;team&#45;&gt;jansson</title>
<path fill="none" stroke="#444444" stroke-opacity="0.333333" d="M354.0483,-321.3567C352.5851,-323.4718 351.071,-325.6605 349.5507,-327.8583"/>
<polygon fill="#444444" fill-opacity="0.333333" stroke="#444444" stroke-opacity="0.333333" points="346.5619,-326.0268 343.7511,-336.242 352.3187,-330.0092 346.5619,-326.0268"/>
</g>
<!-- NetworkManager&#45;team&#45;&gt;teamd -->
<g id="edge37" class="edge">
<title>NetworkManager&#45;team&#45;&gt;teamd</title>
<path fill="none" stroke="#444444" stroke-opacity="0.333333" d="M342.4598,-285.0356C314.536,-264.1367 268.4833,-229.6699 237.4793,-206.4659"/>
<polygon fill="#444444" fill-opacity="0.333333" stroke="#444444" stroke-opacity="0.333333" points="239.2645,-203.4303 229.1613,-200.2404 235.0702,-209.0345 239.2645,-203.4303"/>
</g>
<!-- teamd&#45;&gt;libteam -->
<g id="edge38" class="edge">
<title>teamd&#45;&gt;libteam</title>
<path fill="none" stroke="#444444" stroke-opacity="0.333333" d="M167.4708,-172.9595C149.0753,-168.4337 126.5224,-162.8851 105.9921,-157.8341"/>
<polygon fill="#444444" fill-opacity="0.333333" stroke="#444444" stroke-opacity="0.333333" points="106.6497,-154.3916 96.1031,-155.4011 104.9773,-161.1889 106.6497,-154.3916"/>
</g>
<!-- teamd&#45;&gt;libnl3&#45;cli -->
<g id="edge39" class="edge">
<title>teamd&#45;&gt;libnl3&#45;cli</title>
<path fill="none" stroke="#444444" stroke-opacity="0.333333" d="M183.5932,-164.162C161.9427,-145.9679 128.3719,-117.7567 104.2907,-97.52"/>
<polygon fill="#444444" fill-opacity="0.333333" stroke="#444444" stroke-opacity="0.333333" points="106.4262,-94.7428 96.5187,-90.9888 101.9227,-100.1019 106.4262,-94.7428"/>
</g>
<!-- teamd&#45;&gt;jansson -->
<g id="edge40" class="edge">
<title>teamd&#45;&gt;jansson</title>
<path fill="none" stroke="#444444" stroke-opacity="0.333333" d="M218.3287,-200.3119C240.6587,-230.7988 285.8628,-292.5153 311.7736,-327.891"/>
<polygon fill="#444444" fill-opacity="0.333333" stroke="#444444" stroke-opacity="0.333333" points="309.1871,-330.2829 317.9197,-336.2823 314.8343,-326.1466 309.1871,-330.2829"/>
</g>
<!-- teamd&#45;&gt;libdaemon -->
<g id="edge41" class="edge">
<title>teamd&#45;&gt;libdaemon</title>
<path fill="none" stroke="#444444" stroke-opacity="0.333333" d="M203.0128,-164.0092C199.7936,-135.5272 193.5396,-80.1947 189.723,-46.4268"/>
<polygon fill="#444444" fill-opacity="0.333333" stroke="#444444" stroke-opacity="0.333333" points="193.1774,-45.8259 188.5764,-36.2823 186.2217,-46.6121 193.1774,-45.8259"/>
</g>
<!-- realmd&#45;&gt;authconfig -->
<g id="edge43" class="edge">
<title>realmd&#45;&gt;authconfig</title>
<path fill="none" stroke="#444444" stroke-opacity="0.333333" d="M1026.9084,-244.3171C1060.8253,-230.2697 1108.2957,-210.6088 1144.5841,-195.5791"/>
<polygon fill="#444444" fill-opacity="0.333333" stroke="#444444" stroke-opacity="0.333333" points="1146.1273,-198.7284 1154.027,-191.6682 1143.4487,-192.2611 1146.1273,-198.7284"/>
</g>
<!-- realmd&#45;&gt;polkit&#45;libs -->
<g id="edge44" class="edge">
<title>realmd&#45;&gt;polkit&#45;libs</title>
<path fill="none" stroke="#444444" stroke-opacity="0.333333" d="M945.1858,-280.1989C905.8323,-298.5661 844.7751,-327.063 802.3191,-346.8783"/>
<polygon fill="#444444" fill-opacity="0.333333" stroke="#444444" stroke-opacity="0.333333" points="800.6043,-343.8161 793.0229,-351.2171 803.5648,-350.1593 800.6043,-343.8161"/>
</g>
<!-- xmlrpc&#45;c&#45;client&#45;&gt;libcurl&#45;minimal -->
<g id="edge45" class="edge">
<title>xmlrpc&#45;c&#45;client&#45;&gt;libcurl&#45;minimal</title>
<path fill="none" stroke="#444444" stroke-opacity="0.333333" d="M519.0995,-968.3864C530.5707,-934.2435 555.3191,-860.5822 568.8749,-820.2348"/>
<polygon fill="#444444" fill-opacity="0.333333" stroke="#444444" stroke-opacity="0.333333" points="572.2772,-821.0976 572.1444,-810.5036 565.6417,-818.8682 572.2772,-821.0976"/>
</g>
<!-- xmlrpc&#45;c&#45;client&#45;&gt;xmlrpc&#45;c -->
<g id="edge46" class="edge">
<title>xmlrpc&#45;c&#45;client&#45;&gt;xmlrpc&#45;c</title>
<path fill="none" stroke="#444444" stroke-opacity="0.333333" d="M507.3052,-1004.9272C499.2098,-1031.0784 484.2483,-1079.4094 474.7491,-1110.0954"/>
<polygon fill="#444444" fill-opacity="0.333333" stroke="#444444" stroke-opacity="0.333333" points="471.3686,-1109.1802 471.7549,-1119.768 478.0556,-1111.2503 471.3686,-1109.1802"/>
</g>
<!-- authconfig -->
<g id="node1" class="node">
<title>authconfig</title>
<text text-anchor="middle" x="1197.7" y="-169.88" font-family="monospace" font-size="14.00" fill="#000000">authconfig</text>
</g>
<!-- policycoreutils -->
<g id="node2" class="node">
<title>policycoreutils</title>
<text text-anchor="middle" x="1370.6" y="-197.45" font-family="monospace" font-size="14.00" fill="#000000">policycoreutils</text>
</g>
<!-- python3&#45;sssdconfig -->
<g id="node3" class="node">
<title>python3&#45;sssdconfig</title>
<text text-anchor="middle" x="1279" y="-41.557" font-family="monospace" font-size="14.00" fill="#000000">python3&#45;sssdconfig</text>
</g>
<!-- libselinux&#45;utils -->
<g id="node4" class="node">
<title>libselinux&#45;utils</title>
<text text-anchor="middle" x="1478.6" y="-269.68" font-family="monospace" font-size="14.00" fill="#000000">libselinux&#45;utils</text>
</g>
<!-- curl&#45;minimal -->
<g id="node5" class="node">
<title>curl&#45;minimal</title>
<text text-anchor="middle" x="719.34" y="-968.58" font-family="monospace" font-size="14.00" fill="#000000">curl&#45;minimal</text>
</g>
<!-- libcurl&#45;minimal -->
<g id="node6" class="node">
<title>libcurl&#45;minimal</title>
<text text-anchor="middle" x="578.22" y="-788.72" font-family="monospace" font-size="14.00" fill="#000000">libcurl&#45;minimal</text>
</g>
<!-- firewalld -->
<g id="node7" class="node">
<title>firewalld</title>
<text text-anchor="middle" x="1647.5" y="-744.98" font-family="monospace" font-size="14.00" fill="#000000">firewalld</text>
</g>
<!-- firewalld&#45;filesystem -->
<g id="node8" class="node">
<title>firewalld&#45;filesystem</title>
<text text-anchor="middle" x="1813.5" y="-662.67" font-family="monospace" font-size="14.00" fill="#000000">firewalld&#45;filesystem</text>
</g>
<!-- python3&#45;firewall -->
<g id="node9" class="node">
<title>python3&#45;firewall</title>
<text text-anchor="middle" x="1444" y="-851.86" font-family="monospace" font-size="14.00" fill="#000000">python3&#45;firewall</text>
</g>
<!-- python3&#45;dbus -->
<g id="node10" class="node">
<title>python3&#45;dbus</title>
<text text-anchor="middle" x="1291.7" y="-988.33" font-family="monospace" font-size="14.00" fill="#000000">python3&#45;dbus</text>
</g>
<!-- python3&#45;decorator -->
<g id="node11" class="node">
<title>python3&#45;decorator</title>
<text text-anchor="middle" x="1355.8" y="-699.9" font-family="monospace" font-size="14.00" fill="#000000">python3&#45;decorator</text>
</g>
<!-- python3&#45;gobject&#45;base -->
<g id="node12" class="node">
<title>python3&#45;gobject&#45;base</title>
<text text-anchor="middle" x="1578.3" y="-996.18" font-family="monospace" font-size="14.00" fill="#000000">python3&#45;gobject&#45;base</text>
</g>
<!-- python3&#45;slip&#45;dbus -->
<g id="node13" class="node">
<title>python3&#45;slip&#45;dbus</title>
<text text-anchor="middle" x="1237.1" y="-812.38" font-family="monospace" font-size="14.00" fill="#000000">python3&#45;slip&#45;dbus</text>
</g>
<!-- dbus&#45;glib -->
<g id="node14" class="node">
<title>dbus&#45;glib</title>
<text text-anchor="middle" x="1224.7" y="-1168.4" font-family="monospace" font-size="14.00" fill="#000000">dbus&#45;glib</text>
</g>
<!-- python3&#45;slip -->
<g id="node15" class="node">
<title>python3&#45;slip</title>
<text text-anchor="middle" x="1031.9" y="-730.64" font-family="monospace" font-size="14.00" fill="#000000">python3&#45;slip</text>
</g>
<!-- libmodman -->
<g id="node16" class="node">
<title>libmodman</title>
<text text-anchor="middle" x="836.29" y="-1122.4" font-family="monospace" font-size="14.00" fill="#000000">libmodman</text>
</g>
<!-- libproxy -->
<g id="node17" class="node">
<title>libproxy</title>
<text text-anchor="middle" x="932.22" y="-1227.9" font-family="monospace" font-size="14.00" fill="#000000">libproxy</text>
</g>
<!-- libpsl -->
<g id="node18" class="node">
<title>libpsl</title>
<text text-anchor="middle" x="370.52" y="-632.14" font-family="monospace" font-size="14.00" fill="#000000">libpsl</text>
</g>
<!-- publicsuffix&#45;list&#45;dafsa -->
<g id="node19" class="node">
<title>publicsuffix&#45;list&#45;dafsa</title>
<text text-anchor="middle" x="276.25" y="-746.9" font-family="monospace" font-size="14.00" fill="#000000">publicsuffix&#45;list&#45;dafsa</text>
</g>
<!-- libteam -->
<g id="node20" class="node">
<title>libteam</title>
<text text-anchor="middle" x="48.096" y="-139.89" font-family="monospace" font-size="14.00" fill="#000000">libteam</text>
</g>
<!-- libnl3&#45;cli -->
<g id="node21" class="node">
<title>libnl3&#45;cli</title>
<text text-anchor="middle" x="75.01" y="-69.214" font-family="monospace" font-size="14.00" fill="#000000">libnl3&#45;cli</text>
</g>
<!-- mariadb&#45;common -->
<g id="node22" class="node">
<title>mariadb&#45;common</title>
<text text-anchor="middle" x="1566.4" y="-427.25" font-family="monospace" font-size="14.00" fill="#000000">mariadb&#45;common</text>
</g>
<!-- mariadb&#45;config -->
<g id="node23" class="node">
<title>mariadb&#45;config</title>
<text text-anchor="middle" x="1381.8" y="-436.86" font-family="monospace" font-size="14.00" fill="#000000">mariadb&#45;config</text>
</g>
<!-- mariadb&#45;libs -->
<g id="node24" class="node">
<title>mariadb&#45;libs</title>
<text text-anchor="middle" x="1797.3" y="-423.5" font-family="monospace" font-size="14.00" fill="#000000">mariadb&#45;libs</text>
</g>
<!-- net&#45;snmp&#45;agent&#45;libs -->
<g id="node25" class="node">
<title>net&#45;snmp&#45;agent&#45;libs</title>
<text text-anchor="middle" x="1993.1" y="-384.03" font-family="monospace" font-size="14.00" fill="#000000">net&#45;snmp&#45;agent&#45;libs</text>
</g>
<!-- lm_sensors&#45;libs -->
<g id="node26" class="node">
<title>lm_sensors&#45;libs</title>
<text text-anchor="middle" x="2126.7" y="-338.3" font-family="monospace" font-size="14.00" fill="#000000">lm_sensors&#45;libs</text>
</g>
<!-- net&#45;snmp&#45;libs -->
<g id="node27" class="node">
<title>net&#45;snmp&#45;libs</title>
<text text-anchor="middle" x="2104.6" y="-540.52" font-family="monospace" font-size="14.00" fill="#000000">net&#45;snmp&#45;libs</text>
</g>
<!-- net&#45;snmp -->
<g id="node28" class="node">
<title>net&#45;snmp</title>
<text text-anchor="middle" x="1988.4" y="-472.71" font-family="monospace" font-size="14.00" fill="#000000">net&#45;snmp</text>
</g>
<!-- NetworkManager -->
<g id="node29" class="node">
<title>NetworkManager</title>
<text text-anchor="middle" x="495.33" y="-491.84" font-family="monospace" font-size="14.00" fill="#000000">NetworkManager</text>
</g>
<!-- jansson -->
<g id="node30" class="node">
<title>jansson</title>
<text text-anchor="middle" x="331.19" y="-350.7" font-family="monospace" font-size="14.00" fill="#000000">jansson</text>
</g>
<!-- libndp -->
<g id="node31" class="node">
<title>libndp</title>
<text text-anchor="middle" x="632.02" y="-509.65" font-family="monospace" font-size="14.00" fill="#000000">libndp</text>
</g>
<!-- NetworkManager&#45;libnm -->
<g id="node32" class="node">
<title>NetworkManager&#45;libnm</title>
<text text-anchor="middle" x="389.8" y="-439.45" font-family="monospace" font-size="14.00" fill="#000000">NetworkManager&#45;libnm</text>
</g>
<!-- polkit&#45;libs -->
<g id="node33" class="node">
<title>polkit&#45;libs</title>
<text text-anchor="middle" x="754.15" y="-365.66" font-family="monospace" font-size="14.00" fill="#000000">polkit&#45;libs</text>
</g>
<!-- NetworkManager&#45;team -->
<g id="node34" class="node">
<title>NetworkManager&#45;team</title>
<text text-anchor="middle" x="366.65" y="-299.44" font-family="monospace" font-size="14.00" fill="#000000">NetworkManager&#45;team</text>
</g>
<!-- teamd -->
<g id="node35" class="node">
<title>teamd</title>
<text text-anchor="middle" x="205.07" y="-178.51" font-family="monospace" font-size="14.00" fill="#000000">teamd</text>
</g>
<!-- libdaemon -->
<g id="node36" class="node">
<title>libdaemon</title>
<text text-anchor="middle" x="186.51" y="-14.3" font-family="monospace" font-size="14.00" fill="#000000">libdaemon</text>
</g>
<!-- libselinux&#45;python3 -->
<g id="node37" class="node">
<title>libselinux&#45;python3</title>
<text text-anchor="middle" x="863.24" y="-662.3" font-family="monospace" font-size="14.00" fill="#000000">libselinux&#45;python3</text>
</g>
<!-- realmd -->
<g id="node38" class="node">
<title>realmd</title>
<text text-anchor="middle" x="983.9" y="-258.43" font-family="monospace" font-size="14.00" fill="#000000">realmd</text>
</g>
<!-- xmlrpc&#45;c&#45;client -->
<g id="node39" class="node">
<title>xmlrpc&#45;c&#45;client</title>
<text text-anchor="middle" x="512.96" y="-982.96" font-family="monospace" font-size="14.00" fill="#000000">xmlrpc&#45;c&#45;client</text>
</g>
<!-- xmlrpc&#45;c -->
<g id="node40" class="node">
<title>xmlrpc&#45;c</title>
<text text-anchor="middle" x="466.08" y="-1134.4" font-family="monospace" font-size="14.00" fill="#000000">xmlrpc&#45;c</text>
</g>
</g>
</svg>
