<?xml version="1.0" encoding="UTF-8" standalone="no"?>
<!DOCTYPE svg PUBLIC "-//W3C//DTD SVG 1.1//EN"
 "http://www.w3.org/Graphics/SVG/1.1/DTD/svg11.dtd">
<!-- Generated by graphviz version 2.40.1 (20161225.0304)
 -->
<!-- Title: G Pages: 1 -->
<svg width="1708pt" height="889pt"
 viewBox="0.00 0.00 1708.40 889.11" xmlns="http://www.w3.org/2000/svg" xmlns:xlink="http://www.w3.org/1999/xlink">
<g id="graph0" class="graph" transform="scale(1 1) rotate(0) translate(105.2322 762.0198)">
<title>G</title>
<polygon fill="#dae2ff" stroke="transparent" points="-105.2322,127.0904 -105.2322,-762.0198 1603.1667,-762.0198 1603.1667,127.0904 -105.2322,127.0904"/>
<polygon fill="#fed9a6" stroke="#fed9a6" points="45.0101,-360.3851 43.7975,-361.001 40.4348,-364.9062 -72.195,-395.9724 -90.6253,-367.5959 -89.7436,-340.6778 -89.7212,-338.1822 -90.6036,-277.8642 36.3022,-280.8244 45.431,-280.6859 47.4952,-280.7335 47.7589,-280.7496 53.9202,-280.6524 54.3715,-202.103 55.7116,-201.6955 59.1337,-204.7412 59.1337,-204.7412 55.7116,-201.6955 54.3715,-202.103 53.9202,-280.6524 47.7589,-280.7496 47.4952,-280.7335 45.431,-280.6859 36.3022,-280.8244 -90.6036,-277.8642 -98.1207,-264.3862 -101.2322,-229.993 -89.0164,-206.0334 -83.4431,-193.7305 -42.6058,-97.4716 -57.8529,-51.3192 -76.5224,.7842 -77.2534,2.5762 -77.1217,3.186 -38.2712,65.7028 62.2135,106.0794 85.4564,116.6243 88.0077,117.9723 96.8285,123.0904 109.4506,119.2766 121.9351,116.5512 130.9413,114.9609 132.0018,114.8179 150.3639,105.2865 200.6745,80.5655 212.219,73.4332 253.4238,43.9677 269.5671,28.0369 283.0847,7.0581 304.7164,-24.9764 380.6644,-40.0479 382.2352,-42.3997 396.6793,-65.8041 403.4541,-178.4468 403.4929,-185.2876 403.555,-186.3171 404.4188,-212.4865 410.57,-314.7617 401.3443,-337.606 395.3605,-340.6528 366.1679,-384.4883 334.7615,-436.2567 226.3107,-488.363 220.3177,-365.5787 241.0198,-365.1396 217.681,-357.4278 220.0752,-354.7573 226.9033,-276.9607 241.7563,-278.0661 256.8459,-280.8507 256.0889,-233.186 258.6577,-198.7451 263.1831,-196.111 264.7737,-194.1797 263.9045,-193.1567 257.9272,-189.5843 253.491,-189.5843 253.491,-189.5843 257.9272,-189.5843 263.9045,-193.1567 264.7737,-194.1797 263.1831,-196.111 258.6577,-198.7451 256.0889,-233.186 256.8459,-280.8507 241.7563,-278.0661 226.9033,-276.9607 220.0752,-354.7573 217.681,-357.4278 215.2124,-358.464 214.1688,-276.6813 222.8914,-276.6894 222.8914,-276.6894 214.1688,-276.6813 215.2124,-358.464 217.681,-357.4278 241.0198,-365.1396 220.3177,-365.5787 226.3107,-488.363 219.1286,-492.0138 207.5812,-498.2036 197.9079,-503.9172 199.0577,-364.26 204.0121,-364.26 210.3511,-360.5009 211.1989,-359.5374 209.8181,-357.9623 204.8905,-355.1367 204.8905,-355.1367 209.8181,-357.9623 211.1989,-359.5374 210.3511,-360.5009 204.0121,-364.26 199.0577,-364.26 197.9079,-503.9172 189.7033,-508.9859 186.0972,-511.1816 183.5818,-512.779 177.2167,-517.1613 147.4112,-503.1038 105.479,-494.7842 100.6072,-494.1386 84.0129,-492.3017 73.2293,-491.5831 73.1046,-462.7085 78.3285,-364.32 83.0179,-361.5588 84.5364,-359.7027 83.0979,-358.0162 78.4086,-355.3457 78.4086,-355.3457 83.0979,-358.0162 84.5364,-359.7027 83.0179,-361.5588 78.3285,-364.32 73.1046,-462.7085 73.2293,-491.5831 64.2874,-491.5768 53.0062,-487.7933 39.0501,-484.4793 -26.6639,-470.4833 -72.195,-395.9724 40.4348,-364.9062 43.7975,-361.001 45.0101,-360.3851 45.6735,-359.7249 45.0101,-360.3851"/>
<polygon fill="#bbd7d9" stroke="#bbd7d9" points="586.3889,-246.7586 578.8308,-247.0189 578.2064,-247.0127 577.9785,-247.0207 569.9424,-246.9462 567.447,-247.0348 561.012,-247.5511 552.6226,-248.978 543.9465,-250.8437 536.0284,-253.2556 520.4106,-259.4307 519.4464,-259.8965 454.088,-294.4738 410.57,-314.7617 401.3443,-337.606 429.4966,-356.4682 523.2288,-422.1467 579.8549,-440.1793 587.2729,-443.0763 593.4287,-445.6298 596.5533,-451.0265 659.2008,-565.9344 656.0949,-576.9938 655.1733,-586.6841 657.0381,-614.1445 657.0983,-616.3277 678.5394,-648.1333 733.5166,-733.9724 779.1717,-755.8788 805.576,-757.6532 810.7279,-652.726 810.7279,-652.726 805.576,-757.6532 808.9423,-758.0198 825.5341,-754.5656 825.8915,-754.507 840.0605,-752.4885 846.9476,-751.6588 846.5239,-732.0951 844.0682,-680.6294 844.4839,-627.7059 849.6132,-630.7275 854.5948,-630.7275 854.5948,-630.7275 849.6132,-630.7275 844.4839,-627.7059 844.0682,-680.6294 846.5239,-732.0951 846.9476,-751.6588 849.6736,-751.5092 870.1809,-751.277 883.7308,-751.7156 884.2499,-751.7549 887.6371,-752.0857 922.588,-757.0306 990.9579,-719.5109 1020.9835,-649.2976 1021.8516,-648.6205 1070.376,-593.5189 1074.7877,-592.0248 1089.8231,-588.072 1091.7379,-587.6174 1093.9398,-587.1503 1101.0432,-585.822 1119.4014,-583.3124 1117.7445,-538.7394 1117.7445,-538.7394 1119.4014,-583.3124 1182.6003,-577.8815 1209.2388,-561.1674 1182.7356,-466.79 1180.3539,-448.4979 1242.5424,-438.8085 1245.8132,-435.2831 1247.9169,-434.6189 1247.6667,-476.5197 1254.2456,-433.54 1254.2456,-433.54 1247.6667,-476.5197 1247.9169,-434.6189 1245.8132,-435.2831 1242.5424,-438.8085 1180.3539,-448.4979 1182.7356,-466.79 1209.2388,-561.1674 1245.1361,-560.0506 1265.2347,-560.7172 1273.8484,-561.556 1286.0393,-563.2664 1286.3007,-563.3142 1294.86,-561.129 1302.4919,-559.5226 1310.4634,-558.0234 1317.5934,-556.843 1325.4525,-555.8954 1379.3243,-550.6102 1409.448,-542.5386 1425.7463,-533.721 1433.7521,-532.9665 1442.4349,-532.6379 1445.4922,-532.6368 1461.4309,-533.2303 1472.6924,-533.8612 1475.0973,-532.8236 1511.307,-518.0012 1590.5278,-435.6978 1465.0497,-393.9406 1463.3813,-392.0945 1460.2656,-391.2522 1457.8728,-389.6342 1456.4226,-389.6342 1455.2937,-389.3052 1450.0251,-389.3052 1450.0001,-389.2979 1445.7463,-389.2979 1444.7478,-389.0056 1439.5913,-389.0056 1439.5077,-388.9819 1435.5304,-388.9819 1435.2281,-389.067 1434.0393,-389.067 1429.8474,-385.5698 1425.5699,-384.4036 1425.5699,-384.4036 1429.8474,-385.5698 1434.0393,-389.067 1435.2281,-389.067 1435.5304,-388.9819 1439.5077,-388.9819 1439.5913,-389.0056 1444.7478,-389.0056 1445.7463,-389.2979 1450.0001,-389.2979 1450.0251,-389.3052 1455.2937,-389.3052 1456.4226,-389.6342 1457.8728,-389.6342 1460.2656,-391.2522 1463.3813,-392.0945 1465.0497,-393.9406 1590.5278,-435.6978 1599.1667,-427.1547 1585.8407,-366.761 1580.2034,-333.0962 1529.7725,-285.0173 1494.1183,-272.6218 1465.7959,-274.4852 1453.0999,-275.0167 1453.0515,-275.0164 1450.5513,-274.9416 1447.6147,-274.7834 1431.8943,-273.5581 1421.6899,-272.2739 1406.1315,-269.1937 1398.4457,-267.3043 1392.2075,-265.4706 1381.5514,-266.4408 1275.0514,-271.3839 1259.1919,-265.4718 1243.9652,-258.665 1214.8512,-244.5705 1176.8187,-267.1169 1151.1637,-336.3629 1133.2721,-351.3462 1128.8018,-355.308 1122.7046,-361.3831 1111.8993,-371.5633 1098.4618,-382.7211 1089.5302,-389.1103 1084.3556,-392.5121 1078.3937,-396.0878 1070.5504,-399.9047 1065.1958,-402.2078 1058.3568,-404.7621 1053.0806,-406.4309 1045.0759,-408.5055 1022.041,-413.1468 1021.3126,-413.3344 1014.4497,-415.4967 1002.3237,-420.0116 1001.0352,-420.6344 990.9263,-426.1137 990.2294,-426.5308 990.2251,-426.5279 989.5835,-426.0517 980.7637,-420.0716 970.031,-413.5131 968.7557,-412.8241 966.4562,-411.7365 925.764,-395.1516 924.6771,-394.6363 911.1062,-387.2571 908.6311,-385.7529 905.754,-383.8156 904.0084,-382.5223 899.1077,-448.067 894.1867,-450.9433 892.9385,-452.417 894.5086,-454.2966 898.8242,-456.7885 905.059,-456.7885 910.3993,-453.5422 909.6586,-490.5549 909.1602,-490.5821 908.0264,-524.1062 913.6785,-524.1062 918.0164,-526.5607 919.644,-528.4604 917.8018,-530.5814 920.6003,-563.1412 924.532,-528.553 927.9522,-528.553 928.6744,-528.3506 933.2325,-528.3506 934.1445,-528.0916 937.6088,-528.0916 937.6088,-528.0916 934.1445,-528.0916 933.2325,-528.3506 928.6744,-528.3506 927.9522,-528.553 924.532,-528.553 920.6003,-563.1412 917.8018,-530.5814 919.644,-528.4604 918.0164,-526.5607 913.6785,-524.1062 908.0264,-524.1062 902.0677,-527.5825 901.4825,-528.2203 903.3134,-530.2956 907.8084,-532.7939 907.8084,-532.7939 903.3134,-530.2956 901.4825,-528.2203 902.0677,-527.5825 908.0264,-524.1062 909.1602,-490.5821 909.6586,-490.5549 910.3993,-453.5422 905.059,-456.7885 898.8242,-456.7885 894.5086,-454.2966 892.9385,-452.417 894.1867,-450.9433 899.1077,-448.067 904.0084,-382.5223 893.0073,-373.592 889.1683,-369.9483 876.7924,-359.1404 870.9218,-353.3103 868.5389,-344.5093 859.413,-317.7654 853.4992,-315.8027 843.0368,-312.8987 832.816,-310.6172 824.9181,-309.2838 815.0961,-307.8928 802.7178,-306.8149 800.2159,-306.7333 798.3622,-306.7233 791.7814,-306.5131 790.1646,-306.5055 781.2415,-306.7063 779.2347,-306.6983 778.3712,-306.672 777.215,-306.6063 766.2195,-305.6893 758.1349,-304.8014 755.5813,-307.6829 755.0884,-308.2101 750.6612,-312.6981 752.1284,-406.6244 746.9733,-409.6535 745.5791,-411.2851 746.6019,-412.3957 746.6019,-412.3957 745.5791,-411.2851 746.9733,-409.6535 752.1284,-406.6244 750.6612,-312.6981 755.0884,-308.2101 755.5813,-307.6829 758.1349,-304.8014 745.0313,-288.2346 701.9398,-229.6013 655.5832,-243.2835 648.8489,-244.6764 646.7899,-313.0485 647.059,-313.1217 647.1454,-390.469 655.5613,-383.6251 658.5395,-381.4001 720.3726,-339.1745 719.9722,-363.0968 719.9722,-363.0968 720.3726,-339.1745 658.5395,-381.4001 655.5613,-383.6251 647.1454,-390.469 647.059,-313.1217 646.7899,-313.0485 643.394,-313.0485 643.2271,-313.0016 643.2271,-313.0016 643.394,-313.0485 646.7899,-313.0485 648.8489,-244.6764 635.2081,-246.8959 631.9514,-247.1348 631.4572,-247.1493 625.475,-247.0601 620.4415,-246.7613 618.5724,-246.7345 615.7881,-246.8194 614.6363,-246.8036 608.9276,-246.981 608.7138,-246.9782 605.0026,-247.0955 601.9758,-246.9231 596.4799,-247.1035 591.0076,-247.0403 587.2478,-246.83 586.5529,-246.7603 586.3889,-246.7586 586.3889,-246.7586"/>
<polygon fill="#fbb4ae" stroke="#fbb4ae" points="403.4929,-185.2876 403.4541,-178.4468 396.6793,-65.8041 515.9509,-95.5925 516.5538,-95.7219 529.9025,-98.1207 540.0418,-99.2257 549.6832,-99.5959 553.9105,-99.4602 555.5442,-99.4684 560.209,-99.3275 562.8655,-99.3458 564.886,-99.2887 566.5963,-99.3037 567.0703,-99.3432 574.5803,-99.7035 579.6696,-99.5879 583.1559,-99.3851 585.5538,-99.3353 587.8403,-99.3728 593.8258,-99.2596 602.8309,-98.7716 606.2421,-98.3468 614.4428,-97.0356 628.0057,-93.9065 639.0296,-90.98 691.1863,-114.1523 695.7628,-116.3583 710.2781,-123.9068 713.4628,-125.7961 716.3961,-124.5039 717.129,-124.205 766.8692,-105.5169 783.0388,-107.9613 795.024,-109.4032 808.4282,-110.1815 814.8981,-110.1539 815.9097,-110.2118 826.5986,-110.1573 828.6971,-110.2756 829.8154,-110.3731 834.7595,-110.4958 841.0855,-110.4557 842.2081,-110.3786 849.7186,-110.3248 853.0229,-110.5045 862.9675,-110.4249 866.3221,-110.2936 867.9805,-110.3305 872.0831,-110.167 877.4527,-110.2822 878.0368,-110.3126 879.9311,-110.3524 885.2759,-110.2988 886.5152,-110.3243 887.931,-156.3696 886.1425,-202.4598 881.572,-202.4598 880.0168,-254.1308 875.3308,-202.6009 871.8621,-202.6009 871.3007,-202.4354 871.3007,-202.4354 871.8621,-202.6009 875.3308,-202.6009 880.0168,-254.1308 881.572,-202.4598 886.1425,-202.4598 887.931,-156.3696 886.5152,-110.3243 889.0352,-110.2195 895.828,-110.3546 900.3489,-110.3034 903.7335,-110.3693 910.2712,-110.2926 912.0072,-110.1639 913.8322,-110.1411 921.0267,-110.2718 920.5276,-156.2195 920.5276,-156.2195 921.0267,-110.2718 945.516,-109.1938 959.5107,-91.6993 1005.3028,-76.2536 1018.8079,-73.2817 1020.6553,-72.9859 1031.1405,-72.537 1037.2531,-72.636 1038.3943,-72.7216 1038.8116,-72.7282 1040.7499,-72.6448 1040.7836,-72.6453 1049.5511,-72.2632 1056.6979,-71.5271 1064.5314,-70.2564 1065.5253,-70.0372 1095.8744,-61.5349 1150.136,-108.2447 1152.7625,-110.662 1157.0782,-114.8997 1162.7108,-119.716 1179.7148,-136.0659 1204.6166,-161.2273 1218.7887,-174.9227 1214.8512,-244.5705 1176.8187,-267.1169 1151.1637,-336.3629 1133.2721,-351.3462 1128.8018,-355.308 1122.7046,-361.3831 1111.8993,-371.5633 1098.4618,-382.7211 1089.5302,-389.1103 1084.3556,-392.5121 1078.3937,-396.0878 1070.5504,-399.9047 1065.1958,-402.2078 1058.3568,-404.7621 1053.0806,-406.4309 1045.0759,-408.5055 1022.041,-413.1468 1021.3126,-413.3344 1014.4497,-415.4967 1002.3237,-420.0116 1001.0352,-420.6344 990.9263,-426.1137 990.2294,-426.5308 990.2251,-426.5279 989.5835,-426.0517 980.7637,-420.0716 970.031,-413.5131 968.7557,-412.8241 966.4562,-411.7365 925.764,-395.1516 924.6771,-394.6363 911.1062,-387.2571 908.6311,-385.7529 905.754,-383.8156 904.0084,-382.5223 893.0073,-373.592 889.1683,-369.9483 876.7924,-359.1404 870.9218,-353.3103 868.5389,-344.5093 859.413,-317.7654 853.4992,-315.8027 843.0368,-312.8987 832.816,-310.6172 824.9181,-309.2838 815.0961,-307.8928 802.7178,-306.8149 800.2159,-306.7333 798.3622,-306.7233 791.7814,-306.5131 790.1646,-306.5055 781.2415,-306.7063 779.2347,-306.6983 778.3712,-306.672 777.215,-306.6063 766.2195,-305.6893 758.1349,-304.8014 745.0313,-288.2346 701.9398,-229.6013 655.5832,-243.2835 648.8489,-244.6764 635.2081,-246.8959 631.9514,-247.1348 631.4572,-247.1493 625.475,-247.0601 620.4415,-246.7613 618.5724,-246.7345 615.7881,-246.8194 614.6363,-246.8036 608.9276,-246.981 608.7138,-246.9782 605.0026,-247.0955 601.9758,-246.9231 601.3102,-221.2108 601.3102,-221.2108 601.9758,-246.9231 596.4799,-247.1035 591.0076,-247.0403 587.2478,-246.83 586.5529,-246.7603 586.3889,-246.7586 578.8308,-247.0189 578.2064,-247.0127 577.9785,-247.0207 569.9424,-246.9462 567.447,-247.0348 561.012,-247.5511 552.6226,-248.978 543.9465,-250.8437 536.0284,-253.2556 520.4106,-259.4307 519.4464,-259.8965 454.088,-294.4738 410.57,-314.7617 404.4188,-212.4865 403.555,-186.3171 403.4929,-185.2876 403.4929,-185.2876"/>
<polygon fill="#d8d6da" stroke="#d8d6da" points="1284.5537,-15.3925 1278.9707,8.647 1264.0083,82.7486 1196.1178,104.1036 1179.7217,103.732 1171.8364,-12.71 1168.5662,-16.0987 1166.9677,-14.7162 1166.9677,-14.7162 1168.5662,-16.0987 1171.8364,-12.71 1179.7217,103.732 1162.4691,103.755 1160.1908,103.8674 1141.5355,105.2372 1132.0181,106.163 1095.8744,95.7353 1044.252,105.0962 1042.4205,104.563 1037.3214,103.2079 1026.3894,100.5808 1018.9111,99.1665 1014.3477,98.5357 995.5601,96.4158 959.5107,93.2759 927.6642,103.0896 911.257,102.434 906.4883,102.5711 890.9185,103.3763 885.6038,103.7728 876.8347,105.0305 869.3723,106.2725 863.2181,107.4379 856.202,108.9272 848.8892,110.6462 845.4688,111.606 842.0388,110.7466 825.3043,107.6759 820.267,106.9785 802.8767,104.9611 766.8692,101.6013 737.5686,110.1698 722.3601,106.8389 711.8039,104.7843 704.109,103.6635 695.2724,102.5927 639.0296,98.5319 604.6231,112.0528 585.3605,107.806 573.2019,105.708 554.6964,103.4052 509.954,101.0802 432.5404,30.6811 424.9311,19.8471 380.6644,-40.0479 382.2352,-42.3997 396.6793,-65.8041 515.9509,-95.5925 516.5538,-95.7219 529.9025,-98.1207 540.0418,-99.2257 549.6832,-99.5959 553.9105,-99.4602 555.5442,-99.4684 560.209,-99.3275 562.8655,-99.3458 564.886,-99.2887 563.1923,-21.0055 568.6669,-22.7169 568.6669,-22.7169 563.1923,-21.0055 564.886,-99.2887 566.5963,-99.3037 567.0703,-99.3432 574.5803,-99.7035 579.6696,-99.5879 583.1559,-99.3851 585.5538,-99.3353 587.8403,-99.3728 593.8258,-99.2596 602.8309,-98.7716 606.2421,-98.3468 614.4428,-97.0356 628.0057,-93.9065 639.0296,-90.98 691.1863,-114.1523 695.7628,-116.3583 698.8716,-19.8922 698.989,-19.7022 703.6677,-22.4267 703.6677,-22.4267 698.989,-19.7022 698.8716,-19.8922 695.7628,-116.3583 710.2781,-123.9068 713.4628,-125.7961 716.3961,-124.5039 717.129,-124.205 766.8692,-105.5169 783.0388,-107.9613 795.024,-109.4032 808.4282,-110.1815 814.8981,-110.1539 815.9097,-110.2118 826.5986,-110.1573 826.442,-86.4417 826.442,-86.4417 826.5986,-110.1573 828.6971,-110.2756 829.8154,-110.3731 834.7595,-110.4958 841.0855,-110.4557 842.2081,-110.3786 849.7186,-110.3248 853.0229,-110.5045 862.9675,-110.4249 866.3221,-110.2936 867.9805,-110.3305 872.0831,-110.167 877.4527,-110.2822 878.0368,-110.3126 879.9311,-110.3524 885.2759,-110.2988 886.5152,-110.3243 889.0352,-110.2195 895.828,-110.3546 900.3489,-110.3034 903.7335,-110.3693 910.2712,-110.2926 912.0072,-110.1639 913.8322,-110.1411 921.0267,-110.2718 945.516,-109.1938 959.5107,-91.6993 959.5107,-26.9551 958.8606,-18 950.9856,-18 950.9856,-18 958.8606,-18 959.5107,-26.9551 959.5107,-91.6993 1005.3028,-76.2536 1018.8079,-73.2817 1020.6553,-72.9859 1031.1405,-72.537 1037.2531,-72.636 1038.3943,-72.7216 1038.8116,-72.7282 1040.7499,-72.6448 1041.296,-24.4702 1035.7224,-20.819 1033.8566,-17.9877 1031.7314,-17.9877 1031.2091,-17.3736 1024.9486,-13.511 1019.9163,-13.511 1019.9163,-13.511 1024.9486,-13.511 1031.2091,-17.3736 1031.7314,-17.9877 1033.8566,-17.9877 1035.7224,-20.819 1041.296,-24.4702 1040.7499,-72.6448 1040.7836,-72.6453 1049.5511,-72.2632 1056.6979,-71.5271 1064.5314,-70.2564 1065.5253,-70.0372 1095.8744,-61.5349 1150.136,-108.2447 1152.7625,-110.662 1157.0782,-114.8997 1162.7108,-119.716 1179.7148,-136.0659 1204.6166,-161.2273 1218.7887,-174.9227 1273.6906,-89.2553 1286.1836,-48.7316 1290.182,-36.9096 1284.5537,-15.3925 1284.5537,-15.3925"/>
<polyline fill="none" stroke="#000000" points="96.8285,123.0904 88.0077,117.9723 85.4564,116.6243 62.2135,106.0794 -38.2712,65.7028 -77.1217,3.186 -77.2534,2.5762 -76.5224,.7842 -57.8529,-51.3192 -42.6058,-97.4716 -83.4431,-193.7305 -89.0164,-206.0334 -101.2322,-229.993 -98.1207,-264.3862 -90.6036,-277.8642 -89.7212,-338.1822 -89.7436,-340.6778 -90.6253,-367.5959 -72.195,-395.9724 -26.6639,-470.4833 39.0501,-484.4793 53.0062,-487.7933 64.2874,-491.5768 73.2293,-491.5831 84.0129,-492.3017 100.6072,-494.1386 105.479,-494.7842 147.4112,-503.1038 177.2167,-517.1613 183.5818,-512.779 186.0972,-511.1816 189.7033,-508.9859 197.9079,-503.9172 207.5812,-498.2036 219.1286,-492.0138 226.3107,-488.363 334.7615,-436.2567 366.1679,-384.4883 395.3605,-340.6528 401.3443,-337.606 410.57,-314.7617 404.4188,-212.4865 403.555,-186.3171 403.4929,-185.2876 403.4541,-178.4468 396.6793,-65.8041 382.2352,-42.3997 380.6644,-40.0479 304.7164,-24.9764 283.0847,7.0581 269.5671,28.0369 253.4238,43.9677 212.219,73.4332 200.6745,80.5655 150.3639,105.2865 132.0018,114.8179 130.9413,114.9609 121.9351,116.5512 109.4506,119.2766 96.8285,123.0904 "/>
<polyline fill="none" stroke="#000000" points="1286.0393,-563.2664 1286.3007,-563.3142 1294.86,-561.129 1302.4919,-559.5226 1310.4634,-558.0234 1317.5934,-556.843 1325.4525,-555.8954 1379.3243,-550.6102 1409.448,-542.5386 1425.7463,-533.721 1433.7521,-532.9665 1442.4349,-532.6379 1445.4922,-532.6368 1461.4309,-533.2303 1472.6924,-533.8612 1475.0973,-532.8236 1511.307,-518.0012 1590.5278,-435.6978 1599.1667,-427.1547 1585.8407,-366.761 1580.2034,-333.0962 1529.7725,-285.0173 1494.1183,-272.6218 1465.7959,-274.4852 1453.0999,-275.0167 1453.0515,-275.0164 1450.5513,-274.9416 1447.6147,-274.7834 1431.8943,-273.5581 1421.6899,-272.2739 1406.1315,-269.1937 1398.4457,-267.3043 1392.2075,-265.4706 1381.5514,-266.4408 1275.0514,-271.3839 1259.1919,-265.4718 1243.9652,-258.665 1214.8512,-244.5705 1176.8187,-267.1169 1151.1637,-336.3629 1133.2721,-351.3462 1128.8018,-355.308 1122.7046,-361.3831 1111.8993,-371.5633 1098.4618,-382.7211 1089.5302,-389.1103 1084.3556,-392.5121 1078.3937,-396.0878 1070.5504,-399.9047 1065.1958,-402.2078 1058.3568,-404.7621 1053.0806,-406.4309 1045.0759,-408.5055 1022.041,-413.1468 1021.3126,-413.3344 1014.4497,-415.4967 1002.3237,-420.0116 1001.0352,-420.6344 990.9263,-426.1137 990.2294,-426.5308 990.2251,-426.5279 989.5835,-426.0517 980.7637,-420.0716 970.031,-413.5131 968.7557,-412.8241 966.4562,-411.7365 925.764,-395.1516 924.6771,-394.6363 911.1062,-387.2571 908.6311,-385.7529 905.754,-383.8156 904.0084,-382.5223 893.0073,-373.592 889.1683,-369.9483 876.7924,-359.1404 870.9218,-353.3103 868.5389,-344.5093 859.413,-317.7654 853.4992,-315.8027 843.0368,-312.8987 832.816,-310.6172 824.9181,-309.2838 815.0961,-307.8928 802.7178,-306.8149 800.2159,-306.7333 798.3622,-306.7233 791.7814,-306.5131 790.1646,-306.5055 781.2415,-306.7063 779.2347,-306.6983 778.3712,-306.672 777.215,-306.6063 766.2195,-305.6893 758.1349,-304.8014 745.0313,-288.2346 701.9398,-229.6013 655.5832,-243.2835 648.8489,-244.6764 635.2081,-246.8959 631.9514,-247.1348 631.4572,-247.1493 625.475,-247.0601 620.4415,-246.7613 618.5724,-246.7345 615.7881,-246.8194 614.6363,-246.8036 608.9276,-246.981 608.7138,-246.9782 605.0026,-247.0955 601.9758,-246.9231 596.4799,-247.1035 591.0076,-247.0403 587.2478,-246.83 586.5529,-246.7603 586.3889,-246.7586 578.8308,-247.0189 578.2064,-247.0127 577.9785,-247.0207 569.9424,-246.9462 567.447,-247.0348 561.012,-247.5511 552.6226,-248.978 543.9465,-250.8437 536.0284,-253.2556 520.4106,-259.4307 519.4464,-259.8965 454.088,-294.4738 410.57,-314.7617 401.3443,-337.606 429.4966,-356.4682 523.2288,-422.1467 579.8549,-440.1793 587.2729,-443.0763 593.4287,-445.6298 596.5533,-451.0265 659.2008,-565.9344 656.0949,-576.9938 655.1733,-586.6841 657.0381,-614.1445 657.0983,-616.3277 678.5394,-648.1333 733.5166,-733.9724 779.1717,-755.8788 805.576,-757.6532 808.9423,-758.0198 825.5341,-754.5656 825.8915,-754.507 840.0605,-752.4885 846.9476,-751.6588 849.6736,-751.5092 870.1809,-751.277 883.7308,-751.7156 884.2499,-751.7549 887.6371,-752.0857 922.588,-757.0306 990.9579,-719.5109 1020.9835,-649.2976 1021.8516,-648.6205 1070.376,-593.5189 1074.7877,-592.0248 1089.8231,-588.072 1091.7379,-587.6174 1093.9398,-587.1503 1101.0432,-585.822 1119.4014,-583.3124 1182.6003,-577.8815 1209.2388,-561.1674 1245.1361,-560.0506 1265.2347,-560.7172 1273.8484,-561.556 1286.0393,-563.2664 "/>
<polyline fill="none" stroke="#000000" points="843.0368,-312.8987 832.816,-310.6172 824.9181,-309.2838 815.0961,-307.8928 802.7178,-306.8149 800.2159,-306.7333 798.3622,-306.7233 791.7814,-306.5131 790.1646,-306.5055 781.2415,-306.7063 779.2347,-306.6983 778.3712,-306.672 777.215,-306.6063 766.2195,-305.6893 758.1349,-304.8014 745.0313,-288.2346 701.9398,-229.6013 655.5832,-243.2835 648.8489,-244.6764 635.2081,-246.8959 631.9514,-247.1348 631.4572,-247.1493 625.475,-247.0601 620.4415,-246.7613 618.5724,-246.7345 615.7881,-246.8194 614.6363,-246.8036 608.9276,-246.981 608.7138,-246.9782 605.0026,-247.0955 601.9758,-246.9231 596.4799,-247.1035 591.0076,-247.0403 587.2478,-246.83 586.5529,-246.7603 586.3889,-246.7586 578.8308,-247.0189 578.2064,-247.0127 577.9785,-247.0207 569.9424,-246.9462 567.447,-247.0348 561.012,-247.5511 552.6226,-248.978 543.9465,-250.8437 536.0284,-253.2556 520.4106,-259.4307 519.4464,-259.8965 454.088,-294.4738 410.57,-314.7617 404.4188,-212.4865 403.555,-186.3171 403.4929,-185.2876 403.4541,-178.4468 396.6793,-65.8041 515.9509,-95.5925 516.5538,-95.7219 529.9025,-98.1207 540.0418,-99.2257 549.6832,-99.5959 553.9105,-99.4602 555.5442,-99.4684 560.209,-99.3275 562.8655,-99.3458 564.886,-99.2887 566.5963,-99.3037 567.0703,-99.3432 574.5803,-99.7035 579.6696,-99.5879 583.1559,-99.3851 585.5538,-99.3353 587.8403,-99.3728 593.8258,-99.2596 602.8309,-98.7716 606.2421,-98.3468 614.4428,-97.0356 628.0057,-93.9065 639.0296,-90.98 691.1863,-114.1523 695.7628,-116.3583 710.2781,-123.9068 713.4628,-125.7961 716.3961,-124.5039 717.129,-124.205 766.8692,-105.5169 783.0388,-107.9613 795.024,-109.4032 808.4282,-110.1815 814.8981,-110.1539 815.9097,-110.2118 826.5986,-110.1573 828.6971,-110.2756 829.8154,-110.3731 834.7595,-110.4958 841.0855,-110.4557 842.2081,-110.3786 849.7186,-110.3248 853.0229,-110.5045 862.9675,-110.4249 866.3221,-110.2936 867.9805,-110.3305 872.0831,-110.167 877.4527,-110.2822 878.0368,-110.3126 879.9311,-110.3524 885.2759,-110.2988 886.5152,-110.3243 889.0352,-110.2195 895.828,-110.3546 900.3489,-110.3034 903.7335,-110.3693 910.2712,-110.2926 912.0072,-110.1639 913.8322,-110.1411 921.0267,-110.2718 945.516,-109.1938 959.5107,-91.6993 1005.3028,-76.2536 1018.8079,-73.2817 1020.6553,-72.9859 1031.1405,-72.537 1037.2531,-72.636 1038.3943,-72.7216 1038.8116,-72.7282 1040.7499,-72.6448 1040.7836,-72.6453 1049.5511,-72.2632 1056.6979,-71.5271 1064.5314,-70.2564 1065.5253,-70.0372 1095.8744,-61.5349 1150.136,-108.2447 1152.7625,-110.662 1157.0782,-114.8997 1162.7108,-119.716 1179.7148,-136.0659 1204.6166,-161.2273 1218.7887,-174.9227 1214.8512,-244.5705 1176.8187,-267.1169 1151.1637,-336.3629 1133.2721,-351.3462 1128.8018,-355.308 1122.7046,-361.3831 1111.8993,-371.5633 1098.4618,-382.7211 1089.5302,-389.1103 1084.3556,-392.5121 1078.3937,-396.0878 1070.5504,-399.9047 1065.1958,-402.2078 1058.3568,-404.7621 1053.0806,-406.4309 1045.0759,-408.5055 1022.041,-413.1468 1021.3126,-413.3344 1014.4497,-415.4967 1002.3237,-420.0116 1001.0352,-420.6344 990.9263,-426.1137 990.2294,-426.5308 990.2251,-426.5279 989.5835,-426.0517 980.7637,-420.0716 970.031,-413.5131 968.7557,-412.8241 966.4562,-411.7365 925.764,-395.1516 924.6771,-394.6363 911.1062,-387.2571 908.6311,-385.7529 905.754,-383.8156 904.0084,-382.5223 893.0073,-373.592 889.1683,-369.9483 876.7924,-359.1404 870.9218,-353.3103 868.5389,-344.5093 859.413,-317.7654 853.4992,-315.8027 843.0368,-312.8987 "/>
<polyline fill="none" stroke="#000000" points="862.9675,-110.4249 853.0229,-110.5045 849.7186,-110.3248 842.2081,-110.3786 841.0855,-110.4557 834.7595,-110.4958 829.8154,-110.3731 828.6971,-110.2756 826.5986,-110.1573 815.9097,-110.2118 814.8981,-110.1539 808.4282,-110.1815 795.024,-109.4032 783.0388,-107.9613 766.8692,-105.5169 717.129,-124.205 716.3961,-124.5039 713.4628,-125.7961 710.2781,-123.9068 695.7628,-116.3583 691.1863,-114.1523 639.0296,-90.98 628.0057,-93.9065 614.4428,-97.0356 606.2421,-98.3468 602.8309,-98.7716 593.8258,-99.2596 587.8403,-99.3728 585.5538,-99.3353 583.1559,-99.3851 579.6696,-99.5879 574.5803,-99.7035 567.0703,-99.3432 566.5963,-99.3037 564.886,-99.2887 562.8655,-99.3458 560.209,-99.3275 555.5442,-99.4684 553.9105,-99.4602 549.6832,-99.5959 540.0418,-99.2257 529.9025,-98.1207 516.5538,-95.7219 515.9509,-95.5925 396.6793,-65.8041 382.2352,-42.3997 380.6644,-40.0479 424.9311,19.8471 432.5404,30.6811 509.954,101.0802 554.6964,103.4052 573.2019,105.708 585.3605,107.806 604.6231,112.0528 639.0296,98.5319 695.2724,102.5927 704.109,103.6635 711.8039,104.7843 722.3601,106.8389 737.5686,110.1698 766.8692,101.6013 802.8767,104.9611 820.267,106.9785 825.3043,107.6759 842.0388,110.7466 845.4688,111.606 848.8892,110.6462 856.202,108.9272 863.2181,107.4379 869.3723,106.2725 876.8347,105.0305 885.6038,103.7728 890.9185,103.3763 906.4883,102.5711 911.257,102.434 927.6642,103.0896 959.5107,93.2759 995.5601,96.4158 1014.3477,98.5357 1018.9111,99.1665 1026.3894,100.5808 1037.3214,103.2079 1042.4205,104.563 1044.252,105.0962 1095.8744,95.7353 1132.0181,106.163 1141.5355,105.2372 1160.1908,103.8674 1162.4691,103.755 1179.7217,103.732 1196.1178,104.1036 1264.0083,82.7486 1278.9707,8.647 1284.5537,-15.3925 1290.182,-36.9096 1286.1836,-48.7316 1273.6906,-89.2553 1218.7887,-174.9227 1204.6166,-161.2273 1179.7148,-136.0659 1162.7108,-119.716 1157.0782,-114.8997 1152.7625,-110.662 1150.136,-108.2447 1095.8744,-61.5349 1065.5253,-70.0372 1064.5314,-70.2564 1056.6979,-71.5271 1049.5511,-72.2632 1040.7836,-72.6453 1040.7499,-72.6448 1038.8116,-72.7282 1038.3943,-72.7216 1037.2531,-72.636 1031.1405,-72.537 1020.6553,-72.9859 1018.8079,-73.2817 1005.3028,-76.2536 959.5107,-91.6993 945.516,-109.1938 921.0267,-110.2718 913.8322,-110.1411 912.0072,-110.1639 910.2712,-110.2926 903.7335,-110.3693 900.3489,-110.3034 895.828,-110.3546 889.0352,-110.2195 886.5152,-110.3243 885.2759,-110.2988 879.9311,-110.3524 878.0368,-110.3126 877.4527,-110.2822 872.0831,-110.167 867.9805,-110.3305 866.3221,-110.2936 862.9675,-110.4249 "/>
<!-- libmbim&#45;utils&#45;&gt;libmbim -->
<g id="edge1" class="edge">
<title>libmbim&#45;utils&#45;&gt;libmbim</title>
<path fill="none" stroke="#444444" stroke-opacity="0.333333" d="M99.3625,-36.3054C92.6781,-68.526 78.7707,-135.564 70.8542,-173.7242"/>
<polygon fill="#444444" fill-opacity="0.333333" stroke="#444444" stroke-opacity="0.333333" points="67.3955,-173.1662 68.7912,-183.6687 74.2496,-174.5881 67.3955,-173.1662"/>
</g>
<!-- libqmi&#45;&gt;libmbim -->
<g id="edge2" class="edge">
<title>libqmi&#45;&gt;libmbim</title>
<path fill="none" stroke="#444444" stroke-opacity="0.333333" d="M186.0198,-341.439C161.8418,-313.5591 115.3522,-259.9513 87.5642,-227.9087"/>
<polygon fill="#444444" fill-opacity="0.333333" stroke="#444444" stroke-opacity="0.333333" points="90.1233,-225.5174 80.9274,-220.2557 84.8349,-230.1036 90.1233,-225.5174"/>
</g>
<!-- libqmi&#45;utils&#45;&gt;libmbim -->
<g id="edge3" class="edge">
<title>libqmi&#45;utils&#45;&gt;libmbim</title>
<path fill="none" stroke="#444444" stroke-opacity="0.333333" d="M74.2018,-341.7665C72.4118,-314.5316 69.0119,-262.8031 66.8862,-230.4605"/>
<polygon fill="#444444" fill-opacity="0.333333" stroke="#444444" stroke-opacity="0.333333" points="70.3667,-230.0476 66.2183,-220.2987 63.3817,-230.5068 70.3667,-230.0476"/>
</g>
<!-- libqmi&#45;utils&#45;&gt;libqmi -->
<g id="edge4" class="edge">
<title>libqmi&#45;utils&#45;&gt;libqmi</title>
<path fill="none" stroke="#444444" stroke-opacity="0.333333" d="M151.0539,-359.6684C151.2115,-359.6679 151.369,-359.6674 151.5264,-359.667"/>
<polygon fill="#444444" fill-opacity="0.333333" stroke="#444444" stroke-opacity="0.333333" points="148.5297,-363.1759 158.5194,-359.6465 148.5091,-356.1759 148.5297,-363.1759"/>
</g>
<!-- mariadb&#45;common&#45;&gt;mariadb&#45;config -->
<g id="edge5" class="edge">
<title>mariadb&#45;common&#45;&gt;mariadb&#45;config</title>
<path fill="none" stroke="#444444" stroke-opacity="0.333333" d="M1341.2846,-415.2025C1346.4115,-413.6113 1351.6308,-411.9914 1356.8305,-410.3775"/>
<polygon fill="#444444" fill-opacity="0.333333" stroke="#444444" stroke-opacity="0.333333" points="1358.2631,-413.5977 1366.7762,-407.2907 1356.1882,-406.9123 1358.2631,-413.5977"/>
</g>
<!-- mariadb&#45;libs&#45;&gt;mariadb&#45;common -->
<g id="edge6" class="edge">
<title>mariadb&#45;libs&#45;&gt;mariadb&#45;common</title>
<path fill="none" stroke="#444444" stroke-opacity="0.333333" d="M1158.7492,-454.1024C1168.0311,-452.5457 1177.6114,-450.9389 1187.1432,-449.3403"/>
<polygon fill="#444444" fill-opacity="0.333333" stroke="#444444" stroke-opacity="0.333333" points="1187.7611,-452.7856 1197.0444,-447.6797 1186.6032,-445.882 1187.7611,-452.7856"/>
</g>
<!-- ModemManager&#45;&gt;libmbim&#45;utils -->
<g id="edge7" class="edge">
<title>ModemManager&#45;&gt;libmbim&#45;utils</title>
<path fill="none" stroke="#444444" stroke-opacity="0.333333" d="M239.8783,-176.1148C212.6468,-144.6215 156.6731,-79.8879 125.4519,-43.7806"/>
<polygon fill="#444444" fill-opacity="0.333333" stroke="#444444" stroke-opacity="0.333333" points="128.0043,-41.3813 118.816,-36.1062 122.7092,-45.9598 128.0043,-41.3813"/>
</g>
<!-- ModemManager&#45;&gt;libmbim -->
<g id="edge8" class="edge">
<title>ModemManager&#45;&gt;libmbim</title>
<path fill="none" stroke="#444444" stroke-opacity="0.333333" d="M180.0117,-197.3267C161.069,-198.08 141.0408,-198.8765 123.0998,-199.5899"/>
<polygon fill="#444444" fill-opacity="0.333333" stroke="#444444" stroke-opacity="0.333333" points="122.9386,-196.0935 113.0856,-199.9881 123.2168,-203.0879 122.9386,-196.0935"/>
</g>
<!-- ModemManager&#45;&gt;libqmi -->
<g id="edge9" class="edge">
<title>ModemManager&#45;&gt;libqmi</title>
<path fill="none" stroke="#444444" stroke-opacity="0.333333" d="M249.6436,-212.6305C240.2259,-241.4844 221.868,-297.7294 210.8029,-331.6306"/>
<polygon fill="#444444" fill-opacity="0.333333" stroke="#444444" stroke-opacity="0.333333" points="207.3966,-330.7868 207.621,-341.3793 214.0511,-332.9588 207.3966,-330.7868"/>
</g>
<!-- ModemManager&#45;&gt;libqmi&#45;utils -->
<g id="edge10" class="edge">
<title>ModemManager&#45;&gt;libqmi&#45;utils</title>
<path fill="none" stroke="#444444" stroke-opacity="0.333333" d="M235.9895,-212.3541C203.6234,-242.0879 139.006,-301.4504 102.3705,-335.1064"/>
<polygon fill="#444444" fill-opacity="0.333333" stroke="#444444" stroke-opacity="0.333333" points="99.9957,-332.5354 94.9993,-341.8782 104.7314,-337.6903 99.9957,-332.5354"/>
</g>
<!-- net&#45;snmp&#45;agent&#45;libs&#45;&gt;mariadb&#45;libs -->
<g id="edge11" class="edge">
<title>net&#45;snmp&#45;agent&#45;libs&#45;&gt;mariadb&#45;libs</title>
<path fill="none" stroke="#444444" stroke-opacity="0.333333" d="M961.5144,-510.2482C980.8016,-503.3544 1002.9516,-495.4373 1023.0173,-488.2653"/>
<polygon fill="#444444" fill-opacity="0.333333" stroke="#444444" stroke-opacity="0.333333" points="1024.44,-491.4737 1032.6786,-484.8121 1022.084,-484.8821 1024.44,-491.4737"/>
</g>
<!-- net&#45;snmp&#45;agent&#45;libs&#45;&gt;lm_sensors&#45;libs -->
<g id="edge12" class="edge">
<title>net&#45;snmp&#45;agent&#45;libs&#45;&gt;lm_sensors&#45;libs</title>
<path fill="none" stroke="#444444" stroke-opacity="0.333333" d="M899.6852,-546.8255C890.7713,-561.6962 878.1072,-582.8233 868.0714,-599.5655"/>
<polygon fill="#444444" fill-opacity="0.333333" stroke="#444444" stroke-opacity="0.333333" points="864.9463,-597.9715 862.8069,-608.3481 870.9503,-601.5704 864.9463,-597.9715"/>
</g>
<!-- net&#45;snmp&#45;agent&#45;libs&#45;&gt;net&#45;snmp&#45;libs -->
<g id="edge13" class="edge">
<title>net&#45;snmp&#45;agent&#45;libs&#45;&gt;net&#45;snmp&#45;libs</title>
<path fill="none" stroke="#444444" stroke-opacity="0.333333" d="M886.6738,-510.3058C859.9666,-490.2178 816.7188,-457.6884 787.0302,-435.3578"/>
<polygon fill="#444444" fill-opacity="0.333333" stroke="#444444" stroke-opacity="0.333333" points="788.7592,-432.2787 778.6636,-429.0647 784.5514,-437.8729 788.7592,-432.2787"/>
</g>
<!-- net&#45;snmp&#45;&gt;mariadb&#45;libs -->
<g id="edge14" class="edge">
<title>net&#45;snmp&#45;&gt;mariadb&#45;libs</title>
<path fill="none" stroke="#444444" stroke-opacity="0.333333" d="M956.441,-456.7735C969.3414,-457.7937 983.4169,-458.9068 997.343,-460.0081"/>
<polygon fill="#444444" fill-opacity="0.333333" stroke="#444444" stroke-opacity="0.333333" points="997.1932,-463.5071 1007.438,-460.8065 997.7451,-456.5289 997.1932,-463.5071"/>
</g>
<!-- net&#45;snmp&#45;&gt;net&#45;snmp&#45;agent&#45;libs -->
<g id="edge15" class="edge">
<title>net&#45;snmp&#45;&gt;net&#45;snmp&#45;agent&#45;libs</title>
<path fill="none" stroke="#444444" stroke-opacity="0.333333" d="M904.227,-470.8581C905.2176,-479.624 906.4251,-490.3083 907.5295,-500.08"/>
<polygon fill="#444444" fill-opacity="0.333333" stroke="#444444" stroke-opacity="0.333333" points="904.0712,-500.6475 908.6721,-510.1911 911.0269,-499.8613 904.0712,-500.6475"/>
</g>
<!-- net&#45;snmp&#45;&gt;lm_sensors&#45;libs -->
<g id="edge16" class="edge">
<title>net&#45;snmp&#45;&gt;lm_sensors&#45;libs</title>
<path fill="none" stroke="#444444" stroke-opacity="0.333333" d="M896.8789,-470.7596C888.0914,-501.2337 870.3935,-562.608 860.0447,-598.4966"/>
<polygon fill="#444444" fill-opacity="0.333333" stroke="#444444" stroke-opacity="0.333333" points="856.6183,-597.7471 857.2105,-608.3254 863.3442,-599.6866 856.6183,-597.7471"/>
</g>
<!-- net&#45;snmp&#45;&gt;net&#45;snmp&#45;libs -->
<g id="edge17" class="edge">
<title>net&#45;snmp&#45;&gt;net&#45;snmp&#45;libs</title>
<path fill="none" stroke="#444444" stroke-opacity="0.333333" d="M848.0383,-437.2516C841.6273,-435.4474 835.0025,-433.583 828.3776,-431.7185"/>
<polygon fill="#444444" fill-opacity="0.333333" stroke="#444444" stroke-opacity="0.333333" points="829.2703,-428.3339 818.696,-428.9939 827.3739,-435.0721 829.2703,-428.3339"/>
</g>
<!-- net&#45;snmp&#45;utils&#45;&gt;net&#45;snmp&#45;libs -->
<g id="edge18" class="edge">
<title>net&#45;snmp&#45;utils&#45;&gt;net&#45;snmp&#45;libs</title>
<path fill="none" stroke="#444444" stroke-opacity="0.333333" d="M642.3843,-331.1941C664.5233,-346.9319 696.6943,-369.8011 720.9162,-387.0196"/>
<polygon fill="#444444" fill-opacity="0.333333" stroke="#444444" stroke-opacity="0.333333" points="718.9443,-389.9121 729.1227,-392.8533 723.0001,-384.2067 718.9443,-389.9121"/>
</g>
<!-- NetworkManager&#45;bluetooth&#45;&gt;bluez -->
<g id="edge19" class="edge">
<title>NetworkManager&#45;bluetooth&#45;&gt;bluez</title>
<path fill="none" stroke="#444444" stroke-opacity="0.333333" d="M902.1781,-184.4131C932.8076,-172.569 972.7076,-157.1401 1003.4231,-145.2627"/>
<polygon fill="#444444" fill-opacity="0.333333" stroke="#444444" stroke-opacity="0.333333" points="1004.985,-148.4114 1013.0496,-141.5403 1002.4603,-141.8826 1004.985,-148.4114"/>
</g>
<!-- NetworkManager&#45;bluetooth&#45;&gt;bluez&#45;libs -->
<g id="edge20" class="edge">
<title>NetworkManager&#45;bluetooth&#45;&gt;bluez&#45;libs</title>
<path fill="none" stroke="#444444" stroke-opacity="0.333333" d="M872.1593,-220.7584C896.6294,-247.4799 942.3047,-297.3575 970.2827,-327.9095"/>
<polygon fill="#444444" fill-opacity="0.333333" stroke="#444444" stroke-opacity="0.333333" points="967.9966,-330.5956 977.3314,-335.6068 973.1591,-325.8681 967.9966,-330.5956"/>
</g>
<!-- NetworkManager&#45;bluetooth&#45;&gt;NetworkManager&#45;wwan -->
<g id="edge21" class="edge">
<title>NetworkManager&#45;bluetooth&#45;&gt;NetworkManager&#45;wwan</title>
<path fill="none" stroke="#444444" stroke-opacity="0.333333" d="M715.5632,-191.9996C707.9845,-191.4312 700.3948,-190.862 692.8795,-190.2983"/>
<polygon fill="#444444" fill-opacity="0.333333" stroke="#444444" stroke-opacity="0.333333" points="692.9193,-186.7915 682.6855,-189.5337 692.3957,-193.7719 692.9193,-186.7915"/>
</g>
<!-- NetworkManager&#45;wwan&#45;&gt;ModemManager -->
<g id="edge22" class="edge">
<title>NetworkManager&#45;wwan&#45;&gt;ModemManager</title>
<path fill="none" stroke="#444444" stroke-opacity="0.333333" d="M457.2869,-185.8161C419.3014,-187.4179 377.5276,-189.1794 341.8998,-190.6818"/>
<polygon fill="#444444" fill-opacity="0.333333" stroke="#444444" stroke-opacity="0.333333" points="341.382,-187.2004 331.5383,-191.1187 341.6769,-194.1942 341.382,-187.2004"/>
</g>
<!-- NetworkManager&#45;tui&#45;&gt;libpsl -->
<g id="edge23" class="edge">
<title>NetworkManager&#45;tui&#45;&gt;libpsl</title>
<path fill="none" stroke="#444444" stroke-opacity="0.333333" d="M971.5898,-18C971.7551,-18 971.9202,-18 972.085,-18"/>
<polygon fill="#444444" fill-opacity="0.333333" stroke="#444444" stroke-opacity="0.333333" points="969.3632,-21.5001 979.3632,-18 969.3631,-14.5001 969.3632,-21.5001"/>
</g>
<!-- NetworkManager&#45;tui&#45;&gt;newt -->
<g id="edge24" class="edge">
<title>NetworkManager&#45;tui&#45;&gt;newt</title>
<path fill="none" stroke="#444444" stroke-opacity="0.333333" d="M757.0557,-18C754.5318,-18 752.0529,-18 749.6316,-18"/>
<polygon fill="#444444" fill-opacity="0.333333" stroke="#444444" stroke-opacity="0.333333" points="749.4232,-14.5001 739.4232,-18 749.4232,-21.5001 749.4232,-14.5001"/>
</g>
<!-- newt&#45;&gt;slang -->
<g id="edge25" class="edge">
<title>newt&#45;&gt;slang</title>
<path fill="none" stroke="#444444" stroke-opacity="0.333333" d="M674.0417,-18C656.8854,-18 635.5458,-18 616.5685,-18"/>
<polygon fill="#444444" fill-opacity="0.333333" stroke="#444444" stroke-opacity="0.333333" points="616.3101,-14.5001 606.3101,-18 616.31,-21.5001 616.3101,-14.5001"/>
</g>
<!-- psl&#45;&gt;libpsl -->
<g id="edge26" class="edge">
<title>psl&#45;&gt;libpsl</title>
<path fill="none" stroke="#444444" stroke-opacity="0.333333" d="M1134.2085,-18C1117.6144,-18 1095.8017,-18 1075.8587,-18"/>
<polygon fill="#444444" fill-opacity="0.333333" stroke="#444444" stroke-opacity="0.333333" points="1075.6378,-14.5001 1065.6378,-18 1075.6378,-21.5001 1075.6378,-14.5001"/>
</g>
<!-- libmbim&#45;utils -->
<g id="node1" class="node">
<title>libmbim&#45;utils</title>
<text text-anchor="middle" x="103.16" y="-14.3" font-family="monospace" font-size="14.00" fill="#000000">libmbim&#45;utils</text>
</g>
<!-- libmbim -->
<g id="node2" class="node">
<title>libmbim</title>
<text text-anchor="middle" x="65.009" y="-198.2" font-family="monospace" font-size="14.00" fill="#000000">libmbim</text>
</g>
<!-- libqmi -->
<g id="node3" class="node">
<title>libqmi</title>
<text text-anchor="middle" x="201.7" y="-355.82" font-family="monospace" font-size="14.00" fill="#000000">libqmi</text>
</g>
<!-- libqmi&#45;utils -->
<g id="node4" class="node">
<title>libqmi&#45;utils</title>
<text text-anchor="middle" x="75.393" y="-356.19" font-family="monospace" font-size="14.00" fill="#000000">libqmi&#45;utils</text>
</g>
<!-- mariadb&#45;common -->
<g id="node5" class="node">
<title>mariadb&#45;common</title>
<text text-anchor="middle" x="1283.2" y="-429.53" font-family="monospace" font-size="14.00" fill="#000000">mariadb&#45;common</text>
</g>
<!-- mariadb&#45;config -->
<g id="node6" class="node">
<title>mariadb&#45;config</title>
<text text-anchor="middle" x="1425" y="-385.52" font-family="monospace" font-size="14.00" fill="#000000">mariadb&#45;config</text>
</g>
<!-- mariadb&#45;libs -->
<g id="node7" class="node">
<title>mariadb&#45;libs</title>
<text text-anchor="middle" x="1083.1" y="-463.09" font-family="monospace" font-size="14.00" fill="#000000">mariadb&#45;libs</text>
</g>
<!-- ModemManager -->
<g id="node8" class="node">
<title>ModemManager</title>
<text text-anchor="middle" x="255.62" y="-190.62" font-family="monospace" font-size="14.00" fill="#000000">ModemManager</text>
</g>
<!-- net&#45;snmp&#45;agent&#45;libs -->
<g id="node9" class="node">
<title>net&#45;snmp&#45;agent&#45;libs</title>
<text text-anchor="middle" x="910.73" y="-524.7" font-family="monospace" font-size="14.00" fill="#000000">net&#45;snmp&#45;agent&#45;libs</text>
</g>
<!-- lm_sensors&#45;libs -->
<g id="node10" class="node">
<title>lm_sensors&#45;libs</title>
<text text-anchor="middle" x="852.01" y="-622.66" font-family="monospace" font-size="14.00" fill="#000000">lm_sensors&#45;libs</text>
</g>
<!-- net&#45;snmp&#45;libs -->
<g id="node11" class="node">
<title>net&#45;snmp&#45;libs</title>
<text text-anchor="middle" x="754.58" y="-407.25" font-family="monospace" font-size="14.00" fill="#000000">net&#45;snmp&#45;libs</text>
</g>
<!-- net&#45;snmp -->
<g id="node12" class="node">
<title>net&#45;snmp</title>
<text text-anchor="middle" x="902.15" y="-448.78" font-family="monospace" font-size="14.00" fill="#000000">net&#45;snmp</text>
</g>
<!-- net&#45;snmp&#45;utils -->
<g id="node13" class="node">
<title>net&#45;snmp&#45;utils</title>
<text text-anchor="middle" x="616.79" y="-309.3" font-family="monospace" font-size="14.00" fill="#000000">net&#45;snmp&#45;utils</text>
</g>
<!-- NetworkManager&#45;bluetooth -->
<g id="node14" class="node">
<title>NetworkManager&#45;bluetooth</title>
<text text-anchor="middle" x="855.43" y="-198.79" font-family="monospace" font-size="14.00" fill="#000000">NetworkManager&#45;bluetooth</text>
</g>
<!-- bluez -->
<g id="node15" class="node">
<title>bluez</title>
<text text-anchor="middle" x="1050.6" y="-123.32" font-family="monospace" font-size="14.00" fill="#000000">bluez</text>
</g>
<!-- bluez&#45;libs -->
<g id="node16" class="node">
<title>bluez&#45;libs</title>
<text text-anchor="middle" x="994.12" y="-350.24" font-family="monospace" font-size="14.00" fill="#000000">bluez&#45;libs</text>
</g>
<!-- NetworkManager&#45;wwan -->
<g id="node17" class="node">
<title>NetworkManager&#45;wwan</title>
<text text-anchor="middle" x="569.84" y="-177.37" font-family="monospace" font-size="14.00" fill="#000000">NetworkManager&#45;wwan</text>
</g>
<!-- NetworkManager&#45;tui -->
<g id="node18" class="node">
<title>NetworkManager&#45;tui</title>
<text text-anchor="middle" x="864.35" y="-14.3" font-family="monospace" font-size="14.00" fill="#000000">NetworkManager&#45;tui</text>
</g>
<!-- libpsl -->
<g id="node19" class="node">
<title>libpsl</title>
<text text-anchor="middle" x="1022.5" y="-14.3" font-family="monospace" font-size="14.00" fill="#000000">libpsl</text>
</g>
<!-- newt -->
<g id="node20" class="node">
<title>newt</title>
<text text-anchor="middle" x="706.76" y="-14.3" font-family="monospace" font-size="14.00" fill="#000000">newt</text>
</g>
<!-- slang -->
<g id="node21" class="node">
<title>slang</title>
<text text-anchor="middle" x="568.7" y="-14.3" font-family="monospace" font-size="14.00" fill="#000000">slang</text>
</g>
<!-- psl -->
<g id="node22" class="node">
<title>psl</title>
<text text-anchor="middle" x="1161.3" y="-14.3" font-family="monospace" font-size="14.00" fill="#000000">psl</text>
</g>
</g>
</svg>
