<?xml version="1.0" encoding="UTF-8" standalone="no"?>
<!DOCTYPE svg PUBLIC "-//W3C//DTD SVG 1.1//EN"
 "http://www.w3.org/Graphics/SVG/1.1/DTD/svg11.dtd">
<!-- Generated by graphviz version 2.40.1 (20161225.0304)
 -->
<!-- Title: G Pages: 1 -->
<svg width="2572pt" height="1946pt"
 viewBox="0.00 0.00 2571.54 1945.53" xmlns="http://www.w3.org/2000/svg" xmlns:xlink="http://www.w3.org/1999/xlink">
<g id="graph0" class="graph" transform="scale(1 1) rotate(0) translate(81.6876 1786.2472)">
<title>G</title>
<polygon fill="#dae2ff" stroke="transparent" points="-81.6876,159.2858 -81.6876,-1786.2472 2489.8481,-1786.2472 2489.8481,159.2858 -81.6876,159.2858"/>
<polygon fill="#d1e2cd" stroke="#d1e2cd" points="1190.9592,-731.6507 1193.8805,-731.4852 1202.0365,-731.7172 1202.5117,-731.6898 1205.1758,-731.7613 1208.6168,-731.558 1209.7161,-731.3974 1218.9819,-731.624 1220.2413,-731.7629 1221.5565,-731.7931 1226.7385,-731.4612 1225.6567,-686.7462 1226.3361,-686.5164 1230.0538,-686.5164 1232.0126,-684.2614 1238.109,-681.3838 1238.2963,-647.993 1243.1506,-647.8454 1247.5485,-648.1693 1248.7428,-614.4726 1254.3912,-612.5912 1257.545,-609.3141 1254.6721,-606.3922 1248.9447,-604.4626 1248.9447,-604.4626 1254.6721,-606.3922 1257.545,-609.3141 1254.3912,-612.5912 1248.7428,-614.4726 1247.5485,-648.1693 1256.5359,-649.7715 1261.4829,-651.1613 1260.6876,-609.3141 1261.3954,-609.0701 1263.1913,-609.0701 1266.5942,-606.0455 1266.5942,-606.0455 1263.1913,-609.0701 1261.3954,-609.0701 1260.6876,-609.3141 1261.4829,-651.1613 1256.5359,-649.7715 1247.5485,-648.1693 1243.1506,-647.8454 1238.2963,-647.993 1238.109,-681.3838 1232.0126,-684.2614 1230.0538,-686.5164 1226.3361,-686.5164 1225.6567,-686.7462 1226.7385,-731.4612 1230.5314,-731.5436 1235.9484,-731.19 1236.2885,-731.1968 1236.5121,-731.1821 1241.9688,-731.2853 1250.8982,-730.6793 1258.6093,-729.4911 1258.8384,-729.4363 1267.0352,-726.758 1274.1611,-723.8087 1278.4729,-728.0533 1280.8551,-730.0557 1285.5165,-733.3633 1292.4553,-737.4042 1298.764,-740.2623 1303.9755,-741.9471 1311.6787,-743.4439 1320.526,-744.003 1325.7844,-745.0131 1332.5223,-747.1863 1339.4867,-750.3398 1338.9331,-716.0797 1344.734,-714.1558 1347.9189,-710.8375 1350.5262,-710.8375 1350.818,-710.4634 1354.3582,-642.7991 1354.3641,-633.2136 1359.4573,-632.8868 1374.1425,-633.2927 1366.871,-557.9899 1361.4194,-559.8788 1361.4194,-559.8788 1366.871,-557.9899 1369.707,-554.8307 1367.2604,-552.1363 1361.2834,-549.9854 1361.2834,-549.9854 1367.2604,-552.1363 1369.707,-554.8307 1366.871,-557.9899 1374.1425,-633.2927 1374.3511,-633.3079 1374.7997,-633.3612 1380.7092,-555.0648 1380.2396,-554.8904 1378.9912,-493.4259 1387.4381,-553.305 1392.3801,-550.2245 1490.5468,-554.88 1500.3478,-554.88 1503.483,-557.8317 1506.2026,-445.9005 1511.6035,-444.1624 1515.1583,-440.47 1512.4604,-437.7947 1506.3073,-435.7097 1506.3073,-435.7097 1512.4604,-437.7947 1515.1583,-440.47 1511.6035,-444.1624 1506.2026,-445.9005 1503.483,-557.8317 1500.3478,-554.88 1490.5468,-554.88 1392.3801,-550.2245 1387.4381,-553.305 1378.9912,-493.4259 1380.2396,-554.8904 1380.7092,-555.0648 1374.7997,-633.3612 1374.3511,-633.3079 1374.1425,-633.2927 1359.4573,-632.8868 1354.3641,-633.2136 1354.3582,-642.7991 1350.818,-710.4634 1350.5262,-710.8375 1347.9189,-710.8375 1344.734,-714.1558 1338.9331,-716.0797 1339.4867,-750.3398 1347.5078,-755.0025 1353.3564,-759.1232 1354.0975,-759.7363 1371.4835,-776.51 1389.645,-789.2226 1425.0228,-957.045 1442.1761,-970.2772 1457.5505,-974.0066 1462.1469,-787.8627 1462.1469,-787.8627 1457.5505,-974.0066 1483.3761,-981.0386 1487.0823,-982.1561 1521.5037,-994.5856 1523.0057,-993.6293 1522.674,-958.5585 1514.9823,-817.3026 1507.6482,-746.702 1514.6019,-746.702 1515.4385,-745.5062 1520.4813,-742.1381 1520.4813,-742.1381 1515.4385,-745.5062 1514.6019,-746.702 1507.6482,-746.702 1514.9823,-817.3026 1514.6278,-746.7374 1520.6373,-750.8616 1520.6373,-750.8616 1514.6278,-746.7374 1514.9823,-817.3026 1522.674,-958.5585 1523.0057,-993.6293 1530.0415,-989.7582 1550.1223,-979.0477 1557.5261,-975.3544 1570.488,-969.1113 1572.7134,-968.0784 1573.0042,-967.9484 1586.9714,-961.945 1585.5433,-834.5464 1585.5433,-834.5464 1586.9714,-961.945 1729.6263,-905.5514 1731.6759,-904.704 1748.4973,-897.4406 1768.5483,-888.0578 1772.72,-885.8817 1788.6305,-877.2911 1800.2739,-870.5854 1809.0616,-827.1455 1766.0761,-746.51 1683.2852,-569.9549 1691.962,-562.8453 1706.1405,-552.0166 1716.6971,-544.2536 1716.6245,-486.8062 1712.7898,-422.0332 1705.9177,-369.4164 1700.4358,-369.4164 1700.0781,-369.2908 1697.3098,-369.2908 1693.8912,-365.6684 1688.1008,-363.743 1682.0209,-365.7648 1678.7308,-369.1309 1676.194,-369.1309 1675.9468,-369.2163 1670.0112,-369.2163 1668.4738,-368.6563 1663.0227,-368.6563 1662.3784,-332.002 1655.474,-338.7407 1651.3372,-341.7319 1651.3372,-341.7319 1655.474,-338.7407 1662.3784,-332.002 1663.0227,-368.6563 1668.4738,-368.6563 1670.0112,-369.2163 1675.9468,-369.2163 1676.194,-369.1309 1678.7308,-369.1309 1682.0209,-365.7648 1688.1008,-363.743 1693.8912,-365.6684 1697.3098,-369.2908 1700.0781,-369.2908 1700.4358,-369.4164 1705.9177,-369.4164 1712.7898,-422.0332 1716.6245,-486.8062 1719.0306,-444.3476 1719.0306,-444.3476 1716.6245,-486.8062 1716.6971,-544.2536 1738.5837,-530.5868 1737.7636,-491.166 1737.7636,-491.166 1738.5837,-530.5868 1901.6802,-437.8872 1913.7196,-372.1796 1911.7919,-369.01 1848.9379,-252.1714 1848.7659,-214.5 1850.6636,-180.4607 1850.3757,-177.8872 1847.36,-166.9477 1846.7074,-148.0966 1846.644,-133.0905 1794.5242,-109.4142 1740.6699,-81.8337 1733.5584,-78.6743 1733.1979,-78.5388 1719.5138,-74.2954 1715.6704,-73.3691 1701.4404,-71.8559 1698.4858,-71.9439 1690.4507,-71.6359 1688.8098,-71.6851 1685.5092,-72.0103 1681.8848,-72.1193 1679.8997,-71.9081 1670.6344,-71.5572 1670.4064,-71.533 1661.644,-71.8012 1659.3757,-71.562 1657.3096,-71.4852 1650.7369,-71.6879 1644.922,-71.4731 1642.2034,-71.1894 1632.2675,-69.4778 1617.8844,-65.0444 1617.7532,-64.9953 1608.0569,-60.7099 1607.181,-60.2649 1554.7244,-29.9765 1495.5964,-125.58 1454.9406,-180.3168 1450.9352,-185.9427 1442.385,-193.5297 1430.4215,-205.3977 1425.5737,-207.7208 1422.6351,-209.1913 1406.1516,-218.1513 1382.3533,-232.6254 1374.5828,-237.8452 1358.4608,-249.0219 1461.2803,-324.99 1547.9199,-324.99 1573.1139,-329.9009 1573.1139,-329.9009 1547.9199,-324.99 1461.2803,-324.99 1358.4608,-249.0219 1356.6708,-249.5294 1342.5824,-254.1654 1264.7603,-283.3377 1268.1111,-298.3226 1234.3606,-490.42 1233.8801,-494.0728 1229.1547,-500.4903 1195.6309,-540.6066 1151.3601,-601.637 1131.0983,-605.2493 1120.4961,-607.5802 1106.6552,-611.1927 1106.1774,-611.356 1096.001,-661.6447 1095.91,-662.3615 1095.6267,-667.7437 1090.645,-706.1119 1082.2705,-747.4962 1107.406,-767.9013 1110.8499,-767.1662 1123.7449,-760.8984 1159.6162,-740.5964 1160.8662,-739.9963 1171.1786,-735.8906 1175.2899,-734.6057 1183.7487,-732.6766 1190.9592,-731.6507 1190.9592,-731.6507"/>
<polygon fill="#fdd9a7" stroke="#fdd9a7" points="163.6018,-178.3434 158.8034,-141.8828 156.0327,-20.9818 146.5529,-23.1322 94.1907,-33.8758 35.8365,-67.5865 16.0945,-98.1645 13.5068,-178.77 9.5442,-218.561 70.0025,-320.1827 57.6079,-364.0891 57.5364,-364.4008 57.2485,-379.7126 53.7795,-447.7501 49.2607,-502.5276 52.9302,-526.5217 162.3699,-544.9026 176.1347,-546.5319 187.6664,-547.0395 193.3695,-547.1491 202.2067,-547.5583 205.0331,-547.5486 213.8865,-528.2755 220.5759,-515.8655 229.0586,-501.4044 229.0586,-501.4044 220.5759,-515.8655 213.8865,-528.2755 205.0331,-547.5486 210.5696,-550.0765 222.1726,-554.6786 232.4497,-558.4443 287.5786,-575.3063 298.4052,-572.432 314.5553,-568.6565 314.9112,-532.6771 314.0608,-510.2202 314.0608,-510.2202 314.9112,-532.6771 314.5553,-568.6565 328.5194,-566.7334 338.9374,-565.6331 344.6333,-565.2149 347.465,-565.0979 353.9877,-565.0371 356.8982,-565.1965 368.2573,-565.1177 369.8434,-565.0086 380.6389,-564.6131 391.7602,-563.8624 394.6759,-563.4863 398.0202,-562.9512 411.5185,-560.3705 418.3853,-558.8461 431.2163,-555.2034 433.4839,-554.4901 439.3518,-552.4627 448.4542,-549.0356 454.4384,-546.5989 463.0481,-542.8292 468.1384,-540.2878 473.9055,-537.2286 492.5762,-526.7407 609.8521,-457.39 615.9536,-454.0833 642.2374,-465.1342 666.7872,-486.0821 752.0259,-476.1114 866.0745,-510.9252 883.0443,-514.8441 891.1679,-516.3168 900.7379,-517.8147 901.8138,-518.9407 913.0542,-530.1403 937.131,-551.6904 948.9696,-563.29 982.9281,-578.8651 990.4045,-581.8906 996.7461,-584.1125 1004.6318,-586.4476 1010.6557,-587.9026 1020.2767,-589.7019 1028.7872,-590.8262 1030.6342,-590.9689 1036.1721,-591.0955 1050.0084,-592.0938 1063.0098,-594.3113 1072.1637,-596.7708 1083.7197,-600.4415 1082.8625,-581.6746 1076.7642,-522.7155 1083.5461,-525.0895 1089.6512,-522.9704 1092.5878,-519.9421 1089.8539,-517.2842 1089.8539,-517.2842 1092.5878,-519.9421 1089.6512,-522.9704 1083.5461,-525.0895 1076.7642,-522.7155 1082.8625,-581.6746 1083.7197,-600.4415 1088.5299,-602.4329 1098.5419,-607.0709 1106.1774,-611.356 1106.6552,-611.1927 1120.4961,-607.5802 1131.0983,-605.2493 1151.3601,-601.637 1195.6309,-540.6066 1229.1547,-500.4903 1233.8801,-494.0728 1234.3606,-490.42 1268.1111,-298.3226 1264.7603,-283.3377 1264.1564,-283.0834 1146.4989,-379.32 1046.9189,-379.32 1010.7018,-374.4927 1010.7018,-374.4927 1046.9189,-379.32 1146.4989,-379.32 1264.1564,-283.0834 1255.1667,-274.7253 1173.3949,-235.751 1147.9777,-224.9832 1143.3297,-223.2643 1132.8783,-219.5837 1117.4869,-214.4379 1110.7512,-212.5481 1090.6361,-207.2619 1084.7555,-205.9286 1071.7451,-203.6738 1064.6505,-202.6968 1057.3094,-197.6392 1051.157,-193.5617 1038.225,-185.3307 1022.9102,-176.3976 1009.6876,-170.073 893.2212,-117.3977 883.674,-112.3242 880.0563,-119.0574 874.7316,-128.4754 857.1486,-157.9644 855.4544,-160.6235 860.0503,-266.2614 866.3538,-270.5419 866.7125,-270.5419 866.7654,-270.5242 871.8863,-270.5242 871.925,-270.5116 877.959,-270.5116 880.1743,-343.631 873.7407,-348.1225 862.7971,-356.5172 850.3734,-367.7298 846.6542,-371.3293 839.4327,-379.32 914.5524,-379.32 914.5524,-379.32 839.4327,-379.32 846.6542,-371.3293 850.3734,-367.7298 862.7971,-356.5172 873.7407,-348.1225 880.1743,-343.631 877.959,-270.5116 871.925,-270.5116 871.8863,-270.5242 866.7654,-270.5242 866.7125,-270.5419 866.3538,-270.5419 860.0503,-266.2614 855.4544,-160.6235 851.889,-165.8621 850.7023,-167.4916 842.6996,-177.7626 841.6188,-179.0502 841.6188,-179.0502 842.6996,-177.7626 850.7023,-167.4916 851.889,-165.8621 855.4544,-160.6235 857.1486,-157.9644 874.7316,-128.4754 880.0563,-119.0574 883.674,-112.3242 836.2226,-43.7368 798.3876,-44.9118 766.3745,-52.5576 757.4147,-201.1049 822.3521,-199.6946 814.1673,-208.3595 814.1673,-208.3595 822.3521,-199.6946 757.4147,-201.1049 766.3745,-52.5576 753.2215,-55.4043 740.8621,-57.7987 734.2492,-58.9287 733.9269,-100.6994 739.8156,-205.3053 733.5223,-205.3053 731.6672,-157.5898 726.147,-204.2455 721.5223,-201.2242 714.368,-201.2242 709.2006,-204.6679 709.2006,-204.6679 714.368,-201.2242 721.5223,-201.2242 726.147,-204.2455 731.6672,-157.5898 733.5223,-205.3053 739.8156,-205.3053 733.9269,-100.6994 734.2492,-58.9287 715.8272,-60.8213 701.5723,-61.637 701.0134,-61.6435 688.5659,-61.5073 674.5404,-60.7164 641.2979,-58.0882 610.5361,-45.2193 584.0498,-42.0793 582.5305,-41.8663 576.603,-40.9061 566.6489,-39.0763 564.0569,-45.3773 564.3657,-198.1117 559.4042,-198.1117 551.2418,-145.7283 548.4307,-112.2641 545.7534,-146.3481 537.9321,-198.0531 539.584,-198.6647 540.3896,-199.8594 544.8564,-202.8324 544.8564,-202.8324 540.3896,-199.8594 539.584,-198.6647 537.9321,-198.0531 545.7534,-146.3481 548.4307,-112.2641 551.2418,-145.7283 559.4042,-198.1117 564.3657,-198.1117 564.0569,-45.3773 566.6489,-39.0763 484.7117,14.332 459.5914,45.2876 441.4343,46.6944 378.4265,44.3642 364.2109,44.1422 354.14,44.2007 331.761,45.2895 333.0803,14.5257 338.1362,-57.9904 338.0148,-107.3369 340.8596,-110.401 343.6837,-110.401 345.4839,-109.7701 349.5023,-109.7701 349.7647,-109.8608 357.1372,-109.8608 355.8785,-131.8809 356.6212,-132.0323 362.6305,-131.8292 364.5147,-132.2175 369.1185,-132.0554 370.2061,-132.2739 376.6644,-132.0362 381.1527,-130.8174 387.2969,-127.637 395.5801,-121.2328 400.4118,-116.345 404.0302,-113.6971 404.1199,-122.95 408.1697,-149.7508 413.6883,-153.3863 413.8598,-153.6124 412.8411,-155.0822 418.8258,-210.3748 420.1502,-154.0963 427.175,-154.0963 427.3098,-154.0499 431.003,-154.0499 432.4805,-153.5343 432.4805,-153.5343 431.003,-154.0499 427.3098,-154.0499 427.175,-154.0963 420.1502,-154.0963 418.8258,-210.3748 412.8411,-155.0822 413.8598,-153.6124 413.6883,-153.3863 408.1697,-149.7508 404.1199,-122.95 404.0302,-113.6971 400.4118,-116.345 395.5801,-121.2328 387.2969,-127.637 381.1527,-130.8174 376.6644,-132.0362 370.2061,-132.2739 369.1185,-132.0554 364.5147,-132.2175 362.6305,-131.8292 356.6212,-132.0323 355.8785,-131.8809 357.1372,-109.8608 349.7647,-109.8608 349.5023,-109.7701 345.4839,-109.7701 343.6837,-110.401 340.8596,-110.401 338.0148,-107.3369 338.1362,-57.9904 333.0803,14.5257 331.761,45.2895 331.4236,45.3275 327.7174,45.9047 305.5281,45.9357 303.7673,45.9754 291.5376,46.7681 244.1297,50.8415 233.4106,46.1712 165.2542,-18.4903 156.0327,-20.9818 158.8034,-141.8828 163.6018,-178.3434 161.6362,-179.036 165.325,-217.1756 169.4619,-179.1655 174.1698,-179.1655 176.0169,-178.5212 180.3451,-178.5212 180.4612,-178.56 183.7892,-178.56 186.412,-181.2712 193.0354,-183.6388 198.851,-181.648 201.8495,-178.5633 199.2757,-176.0337 193.063,-173.9082 193.063,-173.9082 199.2757,-176.0337 201.8495,-178.5633 204.0507,-178.5633 205.2649,-178.9844 211.1725,-178.9844 211.7006,-179.164 215.4894,-179.164 220.7489,-207.8837 224.1383,-178.9791 227.2117,-178.9791 228.9887,-176.9345 235.552,-173.8759 256.7065,-178.77 293.9644,-178.77 296.196,-188.6715 246.8118,-253.3 265.3774,-253.3 315.6473,-258.0798 322.1241,-253.8419 322.4719,-253.3417 323.2805,-253.0287 328.6559,-253.0287 329.7391,-253.4404 330.0916,-253.9818 335.3752,-257.7156 335.3752,-257.7156 330.0916,-253.9818 329.7391,-253.4404 328.6559,-253.0287 323.2805,-253.0287 322.4719,-253.3417 322.1241,-253.8419 315.6473,-258.0798 265.3774,-253.3 246.8118,-253.3 296.196,-188.6715 293.9644,-178.77 256.7065,-178.77 235.552,-173.8759 228.9887,-176.9345 227.2117,-178.9791 228.439,-180.3267 228.439,-180.3267 227.2117,-178.9791 224.1383,-178.9791 220.7489,-207.8837 215.4894,-179.164 211.7006,-179.164 211.1725,-178.9844 205.2649,-178.9844 204.0507,-178.5633 201.8495,-178.5633 198.851,-181.648 193.0354,-183.6388 186.412,-181.2712 183.7892,-178.56 180.4612,-178.56 180.3451,-178.5212 176.0169,-178.5212 174.1698,-179.1655 169.4619,-179.1655 165.325,-217.1756 161.6362,-179.036 163.6018,-178.3434 163.6018,-178.3434"/>
<polygon fill="#dbd0df" stroke="#dbd0df" points="166.8701,-681.1905 165.9667,-680.1235 165.9667,-680.1235 166.8701,-681.1905 165.4984,-682.8898 158.9639,-686.2787 134.1676,-681.4 110.9303,-681.4 99.8891,-671.1686 95.7478,-666.8832 85.7946,-655.4698 86.0553,-674.2362 83.502,-732.2026 89.6386,-736.6737 83.5349,-741.0967 -73.9119,-743.8748 -77.6876,-769.4155 -61.8682,-804.2297 -58.3814,-820.86 -41.3903,-935.7024 30.1636,-965.8649 90.6425,-966.8552 109.8069,-967.5982 124.6451,-969.1681 133.9594,-970.7791 276.5654,-933.5208 307.8095,-948.0622 309.7519,-951.71 331.144,-997.3404 338.1073,-1044.2698 341.9811,-1077.595 346.5067,-1131.8209 449.6656,-1245.7668 470.6701,-1239.4365 491.0045,-1233.7079 495.8601,-1232.4379 500.3707,-1229.7219 499.4704,-1091.2102 499.4704,-1091.2102 500.3707,-1229.7219 512.3749,-1223.1095 528.0919,-1215.2562 520.493,-1064.4675 673.583,-1103.074 647.8585,-1047.8145 611.3064,-1034.8311 562.4815,-1014.5677 558.3085,-956.3684 648.4272,-951.975 648.4348,-951.4454 649.131,-940.9287 649.5974,-908.3518 604.9553,-890.2943 595.1976,-887.388 594.147,-813.8348 588.0767,-813.8348 587.7183,-813.7062 581.7543,-817.9144 581.7543,-817.9144 587.7183,-813.7062 587.0354,-812.7096 582.0361,-809.3047 582.0361,-809.3047 587.0354,-812.7096 587.7183,-813.7062 588.0767,-813.8348 594.147,-813.8348 595.1976,-887.388 604.9553,-890.2943 649.5974,-908.3518 649.131,-940.9287 648.4348,-951.4454 648.4272,-951.975 558.3085,-956.3684 562.4815,-1014.5677 611.3064,-1034.8311 647.8585,-1047.8145 673.583,-1103.074 520.493,-1064.4675 528.0919,-1215.2562 613.4989,-1174.8134 678.0035,-1111.8641 734.8751,-1115.6841 748.4292,-1116.8884 763.5168,-1118.8831 759.2266,-956.9384 765.8712,-959.33 765.8712,-959.33 759.2266,-956.9384 763.5168,-1118.8831 766.1744,-1119.2916 780.4984,-1122.1166 805.9478,-1128.2413 813.0862,-1130.1106 893.2701,-1119.6467 906.0298,-1111.1069 910.1069,-960.4 909.7874,-954.21 910.1152,-942.092 909.8742,-939.477 907.8751,-924.3976 911.7869,-908.9998 907.6286,-852.98 907.9114,-838.79 903.6923,-781.9519 894.3713,-777.0162 872.7308,-768.0231 868.677,-766.6523 860.892,-764.3143 808.7233,-750.6286 801.1003,-748.3591 789.1993,-743.969 786.3409,-742.8138 778.0467,-739.166 770.4415,-735.552 718.3953,-708.9913 711.9485,-697.0627 670.6817,-626.0741 670.6426,-618.2111 666.7872,-486.0821 642.2374,-465.1342 615.9536,-454.0833 609.8521,-457.39 492.5762,-526.7407 473.9055,-537.2286 468.1384,-540.2878 463.0481,-542.8292 454.4384,-546.5989 448.4542,-549.0356 439.3518,-552.4627 433.4839,-554.4901 431.2163,-555.2034 418.3853,-558.8461 411.5185,-560.3705 398.0202,-562.9512 394.6759,-563.4863 391.7602,-563.8624 380.6389,-564.6131 369.8434,-565.0086 368.2573,-565.1177 356.8982,-565.1965 353.9877,-565.0371 347.465,-565.0979 344.6333,-565.2149 338.9374,-565.6331 328.5194,-566.7334 314.5553,-568.6565 298.4052,-572.432 287.5786,-575.3063 232.4497,-558.4443 231.2368,-631.0228 233.9114,-677.1411 294.1447,-672.5693 294.804,-681.3579 354.9104,-677.1251 357.1598,-709.9642 356.7939,-719.2201 359.3522,-719.439 361.3972,-764.7941 362.1003,-765.6428 364.2399,-765.6428 367.765,-769.3351 372.8719,-770.9952 377.2776,-813.4984 379.1972,-893.1102 389.8,-886.5396 389.1441,-825.0247 389.1441,-825.0247 389.8,-886.5396 379.1972,-893.1102 377.2776,-813.4984 372.8719,-770.9952 367.765,-769.3351 364.2399,-765.6428 362.1003,-765.6428 361.3972,-764.7941 359.3522,-719.439 356.7939,-719.2201 357.1598,-709.9642 354.9104,-677.1251 294.804,-681.3579 294.1447,-672.5693 233.9114,-677.1411 231.2368,-631.0228 232.4497,-558.4443 222.1726,-554.6786 210.5696,-550.0765 205.0331,-547.5486 202.2067,-547.5583 193.3695,-547.1491 187.6664,-547.0395 176.1347,-546.5319 162.3699,-544.9026 52.9302,-526.5217 22.0413,-568.2846 -63.7836,-634.1674 -72.2078,-729.4553 -73.9119,-743.8748 83.5349,-741.0967 89.6386,-736.6737 83.502,-732.2026 86.0553,-674.2362 85.7946,-655.4698 95.7478,-666.8832 99.8891,-671.1686 110.9303,-681.4 134.1676,-681.4 158.9639,-686.2787 165.4984,-682.8898 166.8701,-681.1905 166.8701,-681.1905"/>
<polygon fill="#fbb4ae" stroke="#fbb4ae" points="1214.4142,-1044.7946 1217.4403,-1048.3157 1215.3605,-1050.568 1213.3737,-1118.3005 1217.7098,-1117.0825 1233.9377,-1113.4723 1233.2147,-1096.0863 1233.2147,-1096.0863 1233.9377,-1113.4723 1257.3782,-1111.0612 1259.4277,-1110.7352 1263.1193,-1109.9396 1266.5823,-1108.995 1280.3483,-1104.4374 1294.0791,-1098.3176 1299.2513,-1095.7245 1302.2518,-1094.0526 1305.5416,-1092.0311 1318.7292,-1083.1515 1319.5592,-1082.5465 1330.8838,-1073.632 1345.6752,-1060.2908 1351.1017,-1055.0995 1357.7374,-1048 1442.1761,-970.2772 1425.0228,-957.045 1389.645,-789.2226 1371.4835,-776.51 1354.0975,-759.7363 1353.3564,-759.1232 1347.5078,-755.0025 1339.4867,-750.3398 1332.5223,-747.1863 1325.7844,-745.0131 1320.526,-744.003 1311.6787,-743.4439 1303.9755,-741.9471 1298.764,-740.2623 1292.4553,-737.4042 1285.5165,-733.3633 1280.8551,-730.0557 1278.4729,-728.0533 1274.1611,-723.8087 1267.0352,-726.758 1258.8384,-729.4363 1258.6093,-729.4911 1250.8982,-730.6793 1241.9688,-731.2853 1236.5121,-731.1821 1236.2885,-731.1968 1235.9484,-731.19 1230.5314,-731.5436 1226.7385,-731.4612 1221.5565,-731.7931 1220.2413,-731.7629 1218.9819,-731.624 1209.7161,-731.3974 1208.6168,-731.558 1205.1758,-731.7613 1202.5117,-731.6898 1202.0365,-731.7172 1193.8805,-731.4852 1190.9592,-731.6507 1183.7487,-732.6766 1175.2899,-734.6057 1171.1786,-735.8906 1160.8662,-739.9963 1159.6162,-740.5964 1123.7449,-760.8984 1110.8499,-767.1662 1107.406,-767.9013 1082.2705,-747.4962 1040.9395,-750.379 1031.085,-750.3057 1028.3154,-750.5211 1020.2333,-750.5237 1014.566,-750.3057 1011.6732,-750.3178 1011.6306,-750.3198 1003.2213,-750.3877 1002.4633,-750.3645 986.1109,-751.2558 948.9696,-756.4307 919.5984,-772.4562 906.9466,-779.9017 903.6923,-781.9519 907.9114,-838.79 907.6286,-852.98 911.7869,-908.9998 907.8751,-924.3976 909.8742,-939.477 910.1152,-942.092 909.7874,-954.21 910.1069,-960.4 906.0298,-1111.1069 1022.8771,-1120.3391 1030.3186,-1121.098 1041.1128,-1122.4468 1107.7346,-1178.3411 1141.1271,-1159.0034 1185.8088,-1130.5778 1194.3436,-1126.1613 1205.0956,-1121.2294 1207.0974,-1120.4321 1213.3737,-1118.3005 1215.3605,-1050.568 1217.4403,-1048.3157 1214.4142,-1044.7946 1208.8838,-1042.8499 1201.829,-1045.4622 1203.604,-988.1506 1191.1326,-989.969 1188.7069,-990.1589 1188.7069,-990.1589 1191.1326,-989.969 1203.604,-988.1506 1201.829,-1045.4622 1208.8838,-1042.8499 1214.4142,-1044.7946 1214.4142,-1044.7946"/>
<polygon fill="#ebd1cb" stroke="#ebd1cb" points="2292.0959,-1641.3596 2294.3599,-1602.5433 2294.3599,-1602.5433 2292.0959,-1641.3596 2310.0164,-1642.2489 2323.3425,-1643.2505 2327.7712,-1643.6958 2332.2305,-1644.2573 2389.0447,-1632.9813 2407.3901,-1615.6133 2418.7742,-1603.5203 2484.2583,-1522.7543 2484.2917,-1520.5543 2485.8481,-1485.0673 2484.6091,-1479.6134 2461.0906,-1360.4174 2400.8191,-1314.9833 2380.1606,-1318.8846 2365.6338,-1312 2270.9268,-1260.6519 2254.9895,-1252.7744 2239.3533,-1246.611 2235.6833,-1245.5366 2231.2683,-1244.4618 2220.4795,-1242.3667 2216.407,-1241.7795 2204.1863,-1240.6266 2197.1843,-1240.6665 2196.7839,-1240.6888 2189.2646,-1240.7108 2188.7583,-1240.7377 2183.0315,-1240.7385 2180.6785,-1240.615 2180.334,-1240.5786 2171.5481,-1240.5311 2171.1836,-1240.5474 2163.6265,-1240.4855 2162.4072,-1240.5365 2159.7983,-1240.5079 2151.5613,-1240.8297 2149.2981,-1240.7987 2149.01,-1240.7797 2148.8953,-1240.766 2080.0415,-1236.0135 2074.1377,-1250.5 2056.4102,-1312 2029.672,-1377.6094 1992.8524,-1388.4959 1978.9897,-1392.951 1965.0773,-1398.1307 1955.6572,-1424.6 1933.2817,-1504.9371 1932.5973,-1507.0959 1933.8191,-1509.8715 1963.2113,-1583.6392 1989.5208,-1642.8793 2000.447,-1665.5236 2058.6443,-1674.6547 2062.2222,-1673.8887 2075.2048,-1671.6421 2091.7908,-1669.1143 2093.9573,-1668.8291 2097.3794,-1668.5201 2118.9182,-1667.4612 2113.1409,-1510.2858 2119.3789,-1512.4152 2125.6523,-1510.1879 2128.6624,-1506.9138 2125.8938,-1504.2087 2120.0459,-1502.2906 2120.0459,-1502.2906 2125.8938,-1504.2087 2128.6624,-1506.9138 2125.6523,-1510.1879 2119.3789,-1512.4152 2113.1409,-1510.2858 2118.9182,-1667.4612 2127.2144,-1667.2249 2141.6409,-1667.7063 2145.947,-1668.1168 2164.3015,-1663.7441 2171.8406,-1662.2816 2210.6375,-1656.4587 2236.0576,-1645.1343 2269.2529,-1642.5507 2291.967,-1641.3597 2292.0959,-1641.3596 2292.0959,-1641.3596"/>
<polygon fill="#ebd1cb" stroke="#ebd1cb" points="2080.5598,-845.134 2075.219,-841.519 2075.219,-841.519 2080.5598,-845.134 2090.3325,-726.7836 2091.6348,-672.6888 2101.593,-675.2806 2164.5974,-690.3477 2184.6174,-708.9774 2245.717,-774.2329 2262.23,-846 2264.1636,-852.6517 2294.2163,-877.3471 2355.9795,-970.265 2364.95,-982.9013 2375.9248,-1033.1976 2335.9121,-1048.6377 2262.9905,-1079.7982 2259.7722,-1081.0282 2251.2568,-1083.9041 2243.9341,-1086.0481 2240.6003,-1086.874 2222.7961,-1089.7068 2216.2239,-1090.4551 2213.1279,-1090.6681 2207.0601,-1090.5433 2206.1946,-1090.4866 2195.6968,-1090.2742 2195.2896,-1090.2844 2189.9458,-1090.1787 2188.2427,-1090.2219 2186.3574,-1090.101 2180.8406,-1089.9963 2177.3579,-1090.0879 2171.293,-1090.5231 2162.6755,-1090.3668 2150.3967,-1089.0426 2001.9763,-1066.4094 1991.7137,-1027.4773 1840.4027,-904.9405 1823.4551,-890.7734 1816.2738,-884.4059 1803.0615,-873.1597 1800.2739,-870.5854 1809.0616,-827.1455 1833.437,-810.2099 2031.8982,-665.7724 2043.8861,-667.9661 2044.7892,-668.1136 2064.356,-670.5489 2070.6533,-671.209 2091.238,-672.5602 2091.6348,-672.6888 2090.3325,-726.7836 2080.5598,-845.134 2080.5598,-845.134"/>
<polygon fill="#c5e2ce" stroke="#c5e2ce" points="2259.7722,-1081.0282 2262.9905,-1079.7982 2335.9121,-1048.6377 2375.9248,-1033.1976 2420.3193,-1084.7866 2412.0308,-1151.0026 2408.6926,-1186.6846 2400.8191,-1314.9833 2380.1606,-1318.8846 2365.6338,-1312 2270.9268,-1260.6519 2254.9895,-1252.7744 2239.3533,-1246.611 2235.6833,-1245.5366 2231.2683,-1244.4618 2220.4795,-1242.3667 2221.0181,-1169.3647 2217.5151,-1169.3647 2214.8977,-1166.5397 2214.8977,-1166.5397 2217.5151,-1169.3647 2221.0181,-1169.3647 2220.4795,-1242.3667 2216.407,-1241.7795 2204.1863,-1240.6266 2197.1843,-1240.6665 2196.7839,-1240.6888 2189.2646,-1240.7108 2188.7583,-1240.7377 2183.0315,-1240.7385 2180.6785,-1240.615 2180.334,-1240.5786 2171.5481,-1240.5311 2171.1836,-1240.5474 2163.6265,-1240.4855 2162.4072,-1240.5365 2159.7983,-1240.5079 2151.5613,-1240.8297 2149.2981,-1240.7987 2149.01,-1240.7797 2148.8953,-1240.766 2080.0415,-1236.0135 2074.1377,-1250.5 2056.4102,-1312 2029.672,-1377.6094 1992.8524,-1388.4959 1978.9897,-1392.951 1965.0773,-1398.1307 1955.6572,-1424.6 1933.2817,-1504.9371 1932.5973,-1507.0959 1933.8191,-1509.8715 1963.2113,-1583.6392 1989.5208,-1642.8793 2000.447,-1665.5236 1887.7438,-1756.0151 1837.7521,-1766.2042 1834.8622,-1766.9294 1833.16,-1767.3972 1810.4312,-1774.1908 1801.0034,-1777.4521 1788.8126,-1782.2472 1784.0761,-1781.316 1771.1737,-1779.0511 1659.403,-1687.5078 1645.6744,-1623.2806 1644.9233,-1610.7 1636.8391,-1545.1986 1569.715,-1463.2809 1566.527,-1458.552 1572.5951,-1447.239 1573.9498,-1446.1942 1755.2118,-1428.7887 1757.9677,-1466.8113 1756.8058,-1520.3451 1774.7656,-1517.9631 1774.7656,-1517.9631 1756.8058,-1520.3451 1757.9677,-1466.8113 1755.2118,-1428.7887 1573.9498,-1446.1942 1572.5951,-1447.239 1557.7699,-1280.9 1557.9441,-1275.6733 1634.364,-1272.1577 1638.5947,-1333.7584 1639.3486,-1392.0187 1641.3016,-1390.4984 1648.2373,-1385.4056 1669.5972,-1370.6688 1671.2137,-1369.7084 1679.0481,-1365.4099 1686.1096,-1361.8588 1701.5291,-1355.5006 1713.6726,-1351.6104 1714.0844,-1308.7192 1714.0844,-1308.7192 1713.6726,-1351.6104 1701.5291,-1355.5006 1701.5797,-1317.2052 1697.754,-1267.8627 1697.754,-1267.8627 1701.5797,-1317.2052 1701.5291,-1355.5006 1686.1096,-1361.8588 1687.4373,-1321.064 1685.5212,-1272.1976 1679.3242,-1272.1976 1673.2842,-1267.8086 1673.093,-1267.8792 1666.5004,-1267.8792 1666.5004,-1267.8792 1673.093,-1267.8792 1673.2842,-1267.8086 1679.3242,-1272.1976 1685.5212,-1272.1976 1687.4373,-1321.064 1686.1096,-1361.8588 1679.0481,-1365.4099 1671.2137,-1369.7084 1669.5972,-1370.6688 1648.2373,-1385.4056 1641.3016,-1390.4984 1647.8959,-1268.0259 1647.8959,-1268.0259 1641.3016,-1390.4984 1639.3486,-1392.0187 1638.5947,-1333.7584 1634.364,-1272.1577 1557.9441,-1275.6733 1557.7699,-1280.9 1572.5951,-1447.239 1566.527,-1458.552 1478.9814,-1455.6952 1478.4084,-1331.8435 1478.4084,-1331.8435 1478.9814,-1455.6952 1466.1945,-1455.7625 1465.9894,-1393.4806 1462.2095,-1281.0367 1462.2095,-1281.0367 1465.9894,-1393.4806 1466.1945,-1455.7625 1452.5908,-1456.3497 1449.3514,-1456.6741 1432.6199,-1451.2069 1433.928,-1320.7732 1438.2653,-1281.9951 1443.3053,-1285.3639 1449.7581,-1285.3639 1449.7581,-1285.3639 1443.3053,-1285.3639 1438.2653,-1281.9951 1433.928,-1320.7732 1432.6199,-1451.2069 1416.2521,-1446.5566 1417.0741,-1389.9989 1417.0741,-1389.9989 1416.2521,-1446.5566 1309.8668,-1423.1383 1246.3553,-1365.1897 1239.6917,-1363.978 1209.6588,-1358.1619 1156.4225,-1320.8759 1115.1013,-1198.0281 1107.7346,-1178.3411 1141.1271,-1159.0034 1185.8088,-1130.5778 1194.3436,-1126.1613 1205.0956,-1121.2294 1207.0974,-1120.4321 1213.3737,-1118.3005 1217.7098,-1117.0825 1233.9377,-1113.4723 1257.3782,-1111.0612 1259.4277,-1110.7352 1263.1193,-1109.9396 1266.5823,-1108.995 1280.3483,-1104.4374 1294.0791,-1098.3176 1299.2513,-1095.7245 1302.2518,-1094.0526 1303.2499,-1171.8911 1309.8445,-1174.2177 1312.4369,-1176.8636 1309.2776,-1180.1138 1303.3652,-1182.0901 1303.3652,-1182.0901 1309.2776,-1180.1138 1312.4369,-1176.8636 1309.8445,-1174.2177 1303.2499,-1171.8911 1302.2518,-1094.0526 1305.5416,-1092.0311 1318.7292,-1083.1515 1319.5592,-1082.5465 1330.8838,-1073.632 1345.6752,-1060.2908 1351.1017,-1055.0995 1357.7374,-1048 1442.1761,-970.2772 1457.5505,-974.0066 1483.3761,-981.0386 1487.0823,-982.1561 1521.5037,-994.5856 1523.0057,-993.6293 1530.0415,-989.7582 1550.1223,-979.0477 1557.5261,-975.3544 1570.488,-969.1113 1572.7134,-968.0784 1573.0042,-967.9484 1586.9714,-961.945 1729.6263,-905.5514 1734.177,-1114.9559 1543.2271,-1092.2467 1608.2977,-1138.0146 1637.098,-1159.9011 1651.5409,-1169.4756 1653.0784,-1170.3439 1669.6027,-1178.9042 1680.0518,-1183.2953 1690.7659,-1187.2714 1703.7047,-1190.7981 1712.2238,-1192.2842 1718.2285,-1193.0391 1724.5115,-1193.5232 1725.1719,-1193.542 1730.6698,-1263.3374 1813.2368,-1262.2756 1813.244,-1260.6256 1895.834,-1254.7753 1899.1755,-1344.2531 1902.3553,-1250.6459 1907.6052,-1250.6459 1907.6052,-1250.6459 1902.3553,-1250.6459 1899.1755,-1344.2531 1895.834,-1254.7753 1813.244,-1260.6256 1813.2368,-1262.2756 1730.6698,-1263.3374 1725.1719,-1193.542 1724.5115,-1193.5232 1718.2285,-1193.0391 1712.2238,-1192.2842 1703.7047,-1190.7981 1690.7659,-1187.2714 1680.0518,-1183.2953 1669.6027,-1178.9042 1653.0784,-1170.3439 1651.5409,-1169.4756 1637.098,-1159.9011 1608.2977,-1138.0146 1543.2271,-1092.2467 1734.177,-1114.9559 1729.6263,-905.5514 1731.6759,-904.704 1748.4973,-897.4406 1768.5483,-888.0578 1772.72,-885.8817 1788.6305,-877.2911 1788.3295,-1075.4086 1784.6725,-1114.2753 1778.8354,-1114.2753 1772.7454,-1118.4613 1772.295,-1119.1014 1772.8361,-1119.8536 1777.9407,-1123.2617 1777.9407,-1123.2617 1772.8361,-1119.8536 1772.295,-1119.1014 1772.7454,-1118.4613 1778.8354,-1114.2753 1784.6725,-1114.2753 1788.3295,-1075.4086 1788.6305,-877.2911 1800.2739,-870.5854 1803.0615,-873.1597 1816.2738,-884.4059 1823.4551,-890.7734 1840.4027,-904.9405 1991.7137,-1027.4773 2001.9763,-1066.4094 2150.3967,-1089.0426 2162.6755,-1090.3668 2171.293,-1090.5231 2177.3579,-1090.0879 2180.8406,-1089.9963 2186.3574,-1090.101 2188.2427,-1090.2219 2189.9458,-1090.1787 2195.2896,-1090.2844 2195.6968,-1090.2742 2206.1946,-1090.4866 2207.0601,-1090.5433 2213.1279,-1090.6681 2216.2239,-1090.4551 2222.7961,-1089.7068 2240.6003,-1086.874 2243.9341,-1086.0481 2251.2568,-1083.9041 2259.7722,-1081.0282 2259.7722,-1081.0282"/>
<polygon fill="#d2c2cc" stroke="#d2c2cc" points="849.0773,-18.7906 849.8442,-17.1912 893.0256,79.947 944.7602,115.6875 972.1434,128.4507 1000.9592,140.886 1003.5871,140.6927 1015.9781,140.0366 1023.5535,139.9477 1039.454,140.0893 1040.8103,140.1573 1059.6505,141.4913 1072.3378,143.1739 1090.6281,146.3547 1111.5935,151.7332 1114.1174,152.4323 1123.079,155.2858 1130.6155,153.1531 1131.6473,152.8821 1142.1719,150.3303 1143.8534,149.9567 1156.5242,147.6503 1170.0427,145.4624 1170.9229,145.3378 1197.7738,142.6187 1255.1764,119.9077 1335.6687,133.4063 1348.7142,135.8859 1349.8307,136.1478 1372.4818,142.4878 1383.2988,145.9973 1384.4973,146.4396 1388.9788,148.1957 1397.9949,147.7316 1409.3461,147.3719 1418.3219,147.4424 1435.3687,148.2505 1443.741,149.1438 1453.1322,145.6895 1516.7565,125.1307 1554.7219,105.5341 1652.2155,128.635 1658.4688,130.2631 1667.8827,128.182 1677.3928,126.5166 1681.5265,125.8876 1696.1268,124.3325 1701.7131,123.9931 1714.6267,123.5037 1724.5336,123.8086 1743.4203,124.8233 1818.3121,132.2661 1819.9364,131.4095 1883.4268,84.0843 1883.505,18.6881 1883.2184,-10.6207 1883.5514,-25.3862 1884.1721,-36.7006 1846.644,-133.0905 1794.5242,-109.4142 1740.6699,-81.8337 1733.5584,-78.6743 1733.1979,-78.5388 1719.5138,-74.2954 1723.3817,-18.1662 1717.1729,-18.1662 1716.832,-18.0456 1716.832,-18.0456 1717.1729,-18.1662 1723.3817,-18.1662 1719.5138,-74.2954 1715.6704,-73.3691 1714.9886,-57.6587 1709.3828,-18.2085 1707.7238,-18.2085 1704.6971,-15.1542 1698.6346,-13.085 1698.6346,-13.085 1704.6971,-15.1542 1707.7238,-18.2085 1709.3828,-18.2085 1714.9886,-57.6587 1715.6704,-73.3691 1701.4404,-71.8559 1698.4858,-71.9439 1690.4507,-71.6359 1688.8098,-71.6851 1685.5092,-72.0103 1681.8848,-72.1193 1679.8997,-71.9081 1670.6344,-71.5572 1670.4064,-71.533 1661.644,-71.8012 1659.3757,-71.562 1657.3096,-71.4852 1650.7369,-71.6879 1644.922,-71.4731 1642.2034,-71.1894 1632.2675,-69.4778 1617.8844,-65.0444 1617.7532,-64.9953 1608.0569,-60.7099 1607.181,-60.2649 1554.7244,-29.9765 1495.5964,-125.58 1454.9406,-180.3168 1450.9352,-185.9427 1442.385,-193.5297 1430.4215,-205.3977 1425.5737,-207.7208 1422.6351,-209.1913 1406.1516,-218.1513 1382.3533,-232.6254 1374.5828,-237.8452 1358.4608,-249.0219 1356.6708,-249.5294 1342.5824,-254.1654 1264.7603,-283.3377 1264.1564,-283.0834 1255.1667,-274.7253 1173.3949,-235.751 1147.9777,-224.9832 1143.3297,-223.2643 1132.8783,-219.5837 1117.4869,-214.4379 1110.7512,-212.5481 1090.6361,-207.2619 1084.7555,-205.9286 1071.7451,-203.6738 1064.6505,-202.6968 1057.3094,-197.6392 1051.157,-193.5617 1051.8016,-18.4516 1057.9275,-18.4516 1058.0697,-18.4037 1063.2379,-18.4037 1064.7897,-17.8684 1069.1017,-17.8684 1070.4653,-18.3443 1075.6201,-18.3443 1077.4156,-17.7086 1081.4932,-17.7086 1081.4932,-17.7086 1077.4156,-17.7086 1075.6201,-18.3443 1070.4653,-18.3443 1069.1017,-17.8684 1064.7897,-17.8684 1063.2379,-18.4037 1058.0697,-18.4037 1057.9275,-18.4516 1051.8016,-18.4516 1051.157,-193.5617 1038.225,-185.3307 1022.9102,-176.3976 1009.6876,-170.073 893.2212,-117.3977 883.674,-112.3242 836.2226,-43.7368 849.0773,-18.7906 849.0773,-18.7906"/>
<polygon fill="#b6d1df" stroke="#b6d1df" points="666.7872,-486.0821 670.6426,-618.2111 670.6817,-626.0741 711.9485,-697.0627 860.8514,-665.6055 864.4458,-662.2205 867.311,-662.2205 867.7353,-662.0609 873.8567,-662.0609 874.5295,-661.8096 878.1072,-661.8096 881.215,-665.2881 886.6476,-667.1614 886.6476,-667.1614 881.215,-665.2881 878.1072,-661.8096 874.5295,-661.8096 873.8567,-662.0609 867.7353,-662.0609 867.311,-662.2205 864.4458,-662.2205 860.8514,-665.6055 711.9485,-697.0627 718.3953,-708.9913 770.4415,-735.552 778.0467,-739.166 786.3409,-742.8138 789.1993,-743.969 801.1003,-748.3591 808.7233,-750.6286 860.892,-764.3143 868.677,-766.6523 872.7308,-768.0231 894.3713,-777.0162 903.6923,-781.9519 906.9466,-779.9017 919.5984,-772.4562 948.9696,-756.4307 986.1109,-751.2558 1002.4633,-750.3645 1003.2213,-750.3877 1011.6306,-750.3198 1011.6732,-750.3178 1014.566,-750.3057 1020.2333,-750.5237 1028.3154,-750.5211 1031.085,-750.3057 1040.9395,-750.379 1082.2705,-747.4962 1090.645,-706.1119 1095.6267,-667.7437 1095.91,-662.3615 1096.001,-661.6447 1106.1774,-611.356 1098.5419,-607.0709 1088.5299,-602.4329 1083.7197,-600.4415 1072.1637,-596.7708 1063.0098,-594.3113 1050.0084,-592.0938 1036.1721,-591.0955 1030.6342,-590.9689 1028.7872,-590.8262 1020.2767,-589.7019 1010.6557,-587.9026 1004.6318,-586.4476 996.7461,-584.1125 990.4045,-581.8906 982.9281,-578.8651 948.9696,-563.29 937.131,-551.6904 913.0542,-530.1403 901.8138,-518.9407 900.7379,-517.8147 891.1679,-516.3168 883.0443,-514.8441 866.0745,-510.9252 752.0259,-476.1114 666.7872,-486.0821 666.7872,-486.0821"/>
<polyline fill="none" stroke="#000000" points="1358.4608,-249.0219 1356.6708,-249.5294 1342.5824,-254.1654 1264.7603,-283.3377 1268.1111,-298.3226 1234.3606,-490.42 1233.8801,-494.0728 1229.1547,-500.4903 1195.6309,-540.6066 1151.3601,-601.637 1131.0983,-605.2493 1120.4961,-607.5802 1106.6552,-611.1927 1106.1774,-611.356 1096.001,-661.6447 1095.91,-662.3615 1095.6267,-667.7437 1090.645,-706.1119 1082.2705,-747.4962 1107.406,-767.9013 1110.8499,-767.1662 1123.7449,-760.8984 1159.6162,-740.5964 1160.8662,-739.9963 1171.1786,-735.8906 1175.2899,-734.6057 1183.7487,-732.6766 1190.9592,-731.6507 1193.8805,-731.4852 1202.0365,-731.7172 1202.5117,-731.6898 1205.1758,-731.7613 1208.6168,-731.558 1209.7161,-731.3974 1218.9819,-731.624 1220.2413,-731.7629 1221.5565,-731.7931 1226.7385,-731.4612 1230.5314,-731.5436 1235.9484,-731.19 1236.2885,-731.1968 1236.5121,-731.1821 1241.9688,-731.2853 1250.8982,-730.6793 1258.6093,-729.4911 1258.8384,-729.4363 1267.0352,-726.758 1274.1611,-723.8087 1278.4729,-728.0533 1280.8551,-730.0557 1285.5165,-733.3633 1292.4553,-737.4042 1298.764,-740.2623 1303.9755,-741.9471 1311.6787,-743.4439 1320.526,-744.003 1325.7844,-745.0131 1332.5223,-747.1863 1339.4867,-750.3398 1347.5078,-755.0025 1353.3564,-759.1232 1354.0975,-759.7363 1371.4835,-776.51 1389.645,-789.2226 1425.0228,-957.045 1442.1761,-970.2772 1457.5505,-974.0066 1483.3761,-981.0386 1487.0823,-982.1561 1521.5037,-994.5856 1523.0057,-993.6293 1530.0415,-989.7582 1550.1223,-979.0477 1557.5261,-975.3544 1570.488,-969.1113 1572.7134,-968.0784 1573.0042,-967.9484 1586.9714,-961.945 1729.6263,-905.5514 1731.6759,-904.704 1748.4973,-897.4406 1768.5483,-888.0578 1772.72,-885.8817 1788.6305,-877.2911 1800.2739,-870.5854 1809.0616,-827.1455 1766.0761,-746.51 1683.2852,-569.9549 1691.962,-562.8453 1706.1405,-552.0166 1716.6971,-544.2536 1738.5837,-530.5868 1901.6802,-437.8872 1913.7196,-372.1796 1911.7919,-369.01 1848.9379,-252.1714 1848.7659,-214.5 1850.6636,-180.4607 1850.3757,-177.8872 1847.36,-166.9477 1846.7074,-148.0966 1846.644,-133.0905 1794.5242,-109.4142 1740.6699,-81.8337 1733.5584,-78.6743 1733.1979,-78.5388 1719.5138,-74.2954 1715.6704,-73.3691 1701.4404,-71.8559 1698.4858,-71.9439 1690.4507,-71.6359 1688.8098,-71.6851 1685.5092,-72.0103 1681.8848,-72.1193 1679.8997,-71.9081 1670.6344,-71.5572 1670.4064,-71.533 1661.644,-71.8012 1659.3757,-71.562 1657.3096,-71.4852 1650.7369,-71.6879 1644.922,-71.4731 1642.2034,-71.1894 1632.2675,-69.4778 1617.8844,-65.0444 1617.7532,-64.9953 1608.0569,-60.7099 1607.181,-60.2649 1554.7244,-29.9765 1495.5964,-125.58 1454.9406,-180.3168 1450.9352,-185.9427 1442.385,-193.5297 1430.4215,-205.3977 1425.5737,-207.7208 1422.6351,-209.1913 1406.1516,-218.1513 1382.3533,-232.6254 1374.5828,-237.8452 1358.4608,-249.0219 "/>
<polyline fill="none" stroke="#000000" points="900.7379,-517.8147 901.8138,-518.9407 913.0542,-530.1403 937.131,-551.6904 948.9696,-563.29 982.9281,-578.8651 990.4045,-581.8906 996.7461,-584.1125 1004.6318,-586.4476 1010.6557,-587.9026 1020.2767,-589.7019 1028.7872,-590.8262 1030.6342,-590.9689 1036.1721,-591.0955 1050.0084,-592.0938 1063.0098,-594.3113 1072.1637,-596.7708 1083.7197,-600.4415 1088.5299,-602.4329 1098.5419,-607.0709 1106.1774,-611.356 1106.6552,-611.1927 1120.4961,-607.5802 1131.0983,-605.2493 1151.3601,-601.637 1195.6309,-540.6066 1229.1547,-500.4903 1233.8801,-494.0728 1234.3606,-490.42 1268.1111,-298.3226 1264.7603,-283.3377 1264.1564,-283.0834 1255.1667,-274.7253 1173.3949,-235.751 1147.9777,-224.9832 1143.3297,-223.2643 1132.8783,-219.5837 1117.4869,-214.4379 1110.7512,-212.5481 1090.6361,-207.2619 1084.7555,-205.9286 1071.7451,-203.6738 1064.6505,-202.6968 1057.3094,-197.6392 1051.157,-193.5617 1038.225,-185.3307 1022.9102,-176.3976 1009.6876,-170.073 893.2212,-117.3977 883.674,-112.3242 836.2226,-43.7368 798.3876,-44.9118 766.3745,-52.5576 753.2215,-55.4043 740.8621,-57.7987 734.2492,-58.9287 715.8272,-60.8213 701.5723,-61.637 701.0134,-61.6435 688.5659,-61.5073 674.5404,-60.7164 641.2979,-58.0882 610.5361,-45.2193 584.0498,-42.0793 582.5305,-41.8663 576.603,-40.9061 566.6489,-39.0763 484.7117,14.332 459.5914,45.2876 441.4343,46.6944 378.4265,44.3642 364.2109,44.1422 354.14,44.2007 331.761,45.2895 331.4236,45.3275 327.7174,45.9047 305.5281,45.9357 303.7673,45.9754 291.5376,46.7681 244.1297,50.8415 233.4106,46.1712 165.2542,-18.4903 156.0327,-20.9818 146.5529,-23.1322 94.1907,-33.8758 35.8365,-67.5865 16.0945,-98.1645 13.5068,-178.77 9.5442,-218.561 70.0025,-320.1827 57.6079,-364.0891 57.5364,-364.4008 57.2485,-379.7126 53.7795,-447.7501 49.2607,-502.5276 52.9302,-526.5217 162.3699,-544.9026 176.1347,-546.5319 187.6664,-547.0395 193.3695,-547.1491 202.2067,-547.5583 205.0331,-547.5486 210.5696,-550.0765 222.1726,-554.6786 232.4497,-558.4443 287.5786,-575.3063 298.4052,-572.432 314.5553,-568.6565 328.5194,-566.7334 338.9374,-565.6331 344.6333,-565.2149 347.465,-565.0979 353.9877,-565.0371 356.8982,-565.1965 368.2573,-565.1177 369.8434,-565.0086 380.6389,-564.6131 391.7602,-563.8624 394.6759,-563.4863 398.0202,-562.9512 411.5185,-560.3705 418.3853,-558.8461 431.2163,-555.2034 433.4839,-554.4901 439.3518,-552.4627 448.4542,-549.0356 454.4384,-546.5989 463.0481,-542.8292 468.1384,-540.2878 473.9055,-537.2286 492.5762,-526.7407 609.8521,-457.39 615.9536,-454.0833 642.2374,-465.1342 666.7872,-486.0821 752.0259,-476.1114 866.0745,-510.9252 883.0443,-514.8441 891.1679,-516.3168 900.7379,-517.8147 "/>
<polyline fill="none" stroke="#000000" points="431.2163,-555.2034 418.3853,-558.8461 411.5185,-560.3705 398.0202,-562.9512 394.6759,-563.4863 391.7602,-563.8624 380.6389,-564.6131 369.8434,-565.0086 368.2573,-565.1177 356.8982,-565.1965 353.9877,-565.0371 347.465,-565.0979 344.6333,-565.2149 338.9374,-565.6331 328.5194,-566.7334 314.5553,-568.6565 298.4052,-572.432 287.5786,-575.3063 232.4497,-558.4443 222.1726,-554.6786 210.5696,-550.0765 205.0331,-547.5486 202.2067,-547.5583 193.3695,-547.1491 187.6664,-547.0395 176.1347,-546.5319 162.3699,-544.9026 52.9302,-526.5217 22.0413,-568.2846 -63.7836,-634.1674 -72.2078,-729.4553 -73.9119,-743.8748 -77.6876,-769.4155 -61.8682,-804.2297 -58.3814,-820.86 -41.3903,-935.7024 30.1636,-965.8649 90.6425,-966.8552 109.8069,-967.5982 124.6451,-969.1681 133.9594,-970.7791 276.5654,-933.5208 307.8095,-948.0622 309.7519,-951.71 331.144,-997.3404 338.1073,-1044.2698 341.9811,-1077.595 346.5067,-1131.8209 449.6656,-1245.7668 470.6701,-1239.4365 491.0045,-1233.7079 495.8601,-1232.4379 500.3707,-1229.7219 512.3749,-1223.1095 528.0919,-1215.2562 613.4989,-1174.8134 678.0035,-1111.8641 734.8751,-1115.6841 748.4292,-1116.8884 763.5168,-1118.8831 766.1744,-1119.2916 780.4984,-1122.1166 805.9478,-1128.2413 813.0862,-1130.1106 893.2701,-1119.6467 906.0298,-1111.1069 910.1069,-960.4 909.7874,-954.21 910.1152,-942.092 909.8742,-939.477 907.8751,-924.3976 911.7869,-908.9998 907.6286,-852.98 907.9114,-838.79 903.6923,-781.9519 894.3713,-777.0162 872.7308,-768.0231 868.677,-766.6523 860.892,-764.3143 808.7233,-750.6286 801.1003,-748.3591 789.1993,-743.969 786.3409,-742.8138 778.0467,-739.166 770.4415,-735.552 718.3953,-708.9913 711.9485,-697.0627 670.6817,-626.0741 670.6426,-618.2111 666.7872,-486.0821 642.2374,-465.1342 615.9536,-454.0833 609.8521,-457.39 492.5762,-526.7407 473.9055,-537.2286 468.1384,-540.2878 463.0481,-542.8292 454.4384,-546.5989 448.4542,-549.0356 439.3518,-552.4627 433.4839,-554.4901 431.2163,-555.2034 "/>
<polyline fill="none" stroke="#000000" points="1028.3154,-750.5211 1020.2333,-750.5237 1014.566,-750.3057 1011.6732,-750.3178 1011.6306,-750.3198 1003.2213,-750.3877 1002.4633,-750.3645 986.1109,-751.2558 948.9696,-756.4307 919.5984,-772.4562 906.9466,-779.9017 903.6923,-781.9519 907.9114,-838.79 907.6286,-852.98 911.7869,-908.9998 907.8751,-924.3976 909.8742,-939.477 910.1152,-942.092 909.7874,-954.21 910.1069,-960.4 906.0298,-1111.1069 1022.8771,-1120.3391 1030.3186,-1121.098 1041.1128,-1122.4468 1107.7346,-1178.3411 1141.1271,-1159.0034 1185.8088,-1130.5778 1194.3436,-1126.1613 1205.0956,-1121.2294 1207.0974,-1120.4321 1213.3737,-1118.3005 1217.7098,-1117.0825 1233.9377,-1113.4723 1257.3782,-1111.0612 1259.4277,-1110.7352 1263.1193,-1109.9396 1266.5823,-1108.995 1280.3483,-1104.4374 1294.0791,-1098.3176 1299.2513,-1095.7245 1302.2518,-1094.0526 1305.5416,-1092.0311 1318.7292,-1083.1515 1319.5592,-1082.5465 1330.8838,-1073.632 1345.6752,-1060.2908 1351.1017,-1055.0995 1357.7374,-1048 1442.1761,-970.2772 1425.0228,-957.045 1389.645,-789.2226 1371.4835,-776.51 1354.0975,-759.7363 1353.3564,-759.1232 1347.5078,-755.0025 1339.4867,-750.3398 1332.5223,-747.1863 1325.7844,-745.0131 1320.526,-744.003 1311.6787,-743.4439 1303.9755,-741.9471 1298.764,-740.2623 1292.4553,-737.4042 1285.5165,-733.3633 1280.8551,-730.0557 1278.4729,-728.0533 1274.1611,-723.8087 1267.0352,-726.758 1258.8384,-729.4363 1258.6093,-729.4911 1250.8982,-730.6793 1241.9688,-731.2853 1236.5121,-731.1821 1236.2885,-731.1968 1235.9484,-731.19 1230.5314,-731.5436 1226.7385,-731.4612 1221.5565,-731.7931 1220.2413,-731.7629 1218.9819,-731.624 1209.7161,-731.3974 1208.6168,-731.558 1205.1758,-731.7613 1202.5117,-731.6898 1202.0365,-731.7172 1193.8805,-731.4852 1190.9592,-731.6507 1183.7487,-732.6766 1175.2899,-734.6057 1171.1786,-735.8906 1160.8662,-739.9963 1159.6162,-740.5964 1123.7449,-760.8984 1110.8499,-767.1662 1107.406,-767.9013 1082.2705,-747.4962 1040.9395,-750.379 1031.085,-750.3057 1028.3154,-750.5211 "/>
<polyline fill="none" stroke="#000000" points="2180.6785,-1240.615 2180.334,-1240.5786 2171.5481,-1240.5311 2171.1836,-1240.5474 2163.6265,-1240.4855 2162.4072,-1240.5365 2159.7983,-1240.5079 2151.5613,-1240.8297 2149.2981,-1240.7987 2149.01,-1240.7797 2148.8953,-1240.766 2080.0415,-1236.0135 2074.1377,-1250.5 2056.4102,-1312 2029.672,-1377.6094 1992.8524,-1388.4959 1978.9897,-1392.951 1965.0773,-1398.1307 1955.6572,-1424.6 1933.2817,-1504.9371 1932.5973,-1507.0959 1933.8191,-1509.8715 1963.2113,-1583.6392 1989.5208,-1642.8793 2000.447,-1665.5236 2058.6443,-1674.6547 2062.2222,-1673.8887 2075.2048,-1671.6421 2091.7908,-1669.1143 2093.9573,-1668.8291 2097.3794,-1668.5201 2118.9182,-1667.4612 2127.2144,-1667.2249 2141.6409,-1667.7063 2145.947,-1668.1168 2164.3015,-1663.7441 2171.8406,-1662.2816 2210.6375,-1656.4587 2236.0576,-1645.1343 2269.2529,-1642.5507 2291.967,-1641.3597 2292.0959,-1641.3596 2310.0164,-1642.2489 2323.3425,-1643.2505 2327.7712,-1643.6958 2332.2305,-1644.2573 2389.0447,-1632.9813 2407.3901,-1615.6133 2418.7742,-1603.5203 2484.2583,-1522.7543 2484.2917,-1520.5543 2485.8481,-1485.0673 2484.6091,-1479.6134 2461.0906,-1360.4174 2400.8191,-1314.9833 2380.1606,-1318.8846 2365.6338,-1312 2270.9268,-1260.6519 2254.9895,-1252.7744 2239.3533,-1246.611 2235.6833,-1245.5366 2231.2683,-1244.4618 2220.4795,-1242.3667 2216.407,-1241.7795 2204.1863,-1240.6266 2197.1843,-1240.6665 2196.7839,-1240.6888 2189.2646,-1240.7108 2188.7583,-1240.7377 2183.0315,-1240.7385 2180.6785,-1240.615 "/>
<polyline fill="none" stroke="#000000" points="2186.3574,-1090.101 2188.2427,-1090.2219 2189.9458,-1090.1787 2195.2896,-1090.2844 2195.6968,-1090.2742 2206.1946,-1090.4866 2207.0601,-1090.5433 2213.1279,-1090.6681 2216.2239,-1090.4551 2222.7961,-1089.7068 2240.6003,-1086.874 2243.9341,-1086.0481 2251.2568,-1083.9041 2259.7722,-1081.0282 2262.9905,-1079.7982 2335.9121,-1048.6377 2375.9248,-1033.1976 2364.95,-982.9013 2355.9795,-970.265 2294.2163,-877.3471 2264.1636,-852.6517 2262.23,-846 2245.717,-774.2329 2184.6174,-708.9774 2164.5974,-690.3477 2101.593,-675.2806 2091.6348,-672.6888 2091.238,-672.5602 2070.6533,-671.209 2064.356,-670.5489 2044.7892,-668.1136 2043.8861,-667.9661 2031.8982,-665.7724 1833.437,-810.2099 1809.0616,-827.1455 1800.2739,-870.5854 1803.0615,-873.1597 1816.2738,-884.4059 1823.4551,-890.7734 1840.4027,-904.9405 1991.7137,-1027.4773 2001.9763,-1066.4094 2150.3967,-1089.0426 2162.6755,-1090.3668 2171.293,-1090.5231 2177.3579,-1090.0879 2180.8406,-1089.9963 2186.3574,-1090.101 "/>
<polyline fill="none" stroke="#000000" points="1965.0773,-1398.1307 1978.9897,-1392.951 1992.8524,-1388.4959 2029.672,-1377.6094 2056.4102,-1312 2074.1377,-1250.5 2080.0415,-1236.0135 2148.8953,-1240.766 2149.01,-1240.7797 2149.2981,-1240.7987 2151.5613,-1240.8297 2159.7983,-1240.5079 2162.4072,-1240.5365 2163.6265,-1240.4855 2171.1836,-1240.5474 2171.5481,-1240.5311 2180.334,-1240.5786 2180.6785,-1240.615 2183.0315,-1240.7385 2188.7583,-1240.7377 2189.2646,-1240.7108 2196.7839,-1240.6888 2197.1843,-1240.6665 2204.1863,-1240.6266 2216.407,-1241.7795 2220.4795,-1242.3667 2231.2683,-1244.4618 2235.6833,-1245.5366 2239.3533,-1246.611 2254.9895,-1252.7744 2270.9268,-1260.6519 2365.6338,-1312 2380.1606,-1318.8846 2400.8191,-1314.9833 2408.6926,-1186.6846 2412.0308,-1151.0026 2420.3193,-1084.7866 2375.9248,-1033.1976 2335.9121,-1048.6377 2262.9905,-1079.7982 2259.7722,-1081.0282 2251.2568,-1083.9041 2243.9341,-1086.0481 2240.6003,-1086.874 2222.7961,-1089.7068 2216.2239,-1090.4551 2213.1279,-1090.6681 2207.0601,-1090.5433 2206.1946,-1090.4866 2195.6968,-1090.2742 2195.2896,-1090.2844 2189.9458,-1090.1787 2188.2427,-1090.2219 2186.3574,-1090.101 2180.8406,-1089.9963 2177.3579,-1090.0879 2171.293,-1090.5231 2162.6755,-1090.3668 2150.3967,-1089.0426 2001.9763,-1066.4094 1991.7137,-1027.4773 1840.4027,-904.9405 1823.4551,-890.7734 1816.2738,-884.4059 1803.0615,-873.1597 1800.2739,-870.5854 1788.6305,-877.2911 1772.72,-885.8817 1768.5483,-888.0578 1748.4973,-897.4406 1731.6759,-904.704 1729.6263,-905.5514 1586.9714,-961.945 1573.0042,-967.9484 1572.7134,-968.0784 1570.488,-969.1113 1557.5261,-975.3544 1550.1223,-979.0477 1530.0415,-989.7582 1523.0057,-993.6293 1521.5037,-994.5856 1487.0823,-982.1561 1483.3761,-981.0386 1457.5505,-974.0066 1442.1761,-970.2772 1357.7374,-1048 1351.1017,-1055.0995 1345.6752,-1060.2908 1330.8838,-1073.632 1319.5592,-1082.5465 1318.7292,-1083.1515 1305.5416,-1092.0311 1302.2518,-1094.0526 1299.2513,-1095.7245 1294.0791,-1098.3176 1280.3483,-1104.4374 1266.5823,-1108.995 1263.1193,-1109.9396 1259.4277,-1110.7352 1257.3782,-1111.0612 1233.9377,-1113.4723 1217.7098,-1117.0825 1213.3737,-1118.3005 1207.0974,-1120.4321 1205.0956,-1121.2294 1194.3436,-1126.1613 1185.8088,-1130.5778 1141.1271,-1159.0034 1107.7346,-1178.3411 1115.1013,-1198.0281 1156.4225,-1320.8759 1209.6588,-1358.1619 1239.6917,-1363.978 1246.3553,-1365.1897 1309.8668,-1423.1383 1416.2521,-1446.5566 1432.6199,-1451.2069 1449.3514,-1456.6741 1452.5908,-1456.3497 1466.1945,-1455.7625 1478.9814,-1455.6952 1566.527,-1458.552 1569.715,-1463.2809 1636.8391,-1545.1986 1644.9233,-1610.7 1645.6744,-1623.2806 1659.403,-1687.5078 1771.1737,-1779.0511 1784.0761,-1781.316 1788.8126,-1782.2472 1801.0034,-1777.4521 1810.4312,-1774.1908 1833.16,-1767.3972 1834.8622,-1766.9294 1837.7521,-1766.2042 1887.7438,-1756.0151 2000.447,-1665.5236 1989.5208,-1642.8793 1963.2113,-1583.6392 1933.8191,-1509.8715 1932.5973,-1507.0959 1933.2817,-1504.9371 1955.6572,-1424.6 1965.0773,-1398.1307 "/>
<polyline fill="none" stroke="#000000" points="1382.3533,-232.6254 1374.5828,-237.8452 1358.4608,-249.0219 1356.6708,-249.5294 1342.5824,-254.1654 1264.7603,-283.3377 1264.1564,-283.0834 1255.1667,-274.7253 1173.3949,-235.751 1147.9777,-224.9832 1143.3297,-223.2643 1132.8783,-219.5837 1117.4869,-214.4379 1110.7512,-212.5481 1090.6361,-207.2619 1084.7555,-205.9286 1071.7451,-203.6738 1064.6505,-202.6968 1057.3094,-197.6392 1051.157,-193.5617 1038.225,-185.3307 1022.9102,-176.3976 1009.6876,-170.073 893.2212,-117.3977 883.674,-112.3242 836.2226,-43.7368 849.0773,-18.7906 849.8442,-17.1912 893.0256,79.947 944.7602,115.6875 972.1434,128.4507 1000.9592,140.886 1003.5871,140.6927 1015.9781,140.0366 1023.5535,139.9477 1039.454,140.0893 1040.8103,140.1573 1059.6505,141.4913 1072.3378,143.1739 1090.6281,146.3547 1111.5935,151.7332 1114.1174,152.4323 1123.079,155.2858 1130.6155,153.1531 1131.6473,152.8821 1142.1719,150.3303 1143.8534,149.9567 1156.5242,147.6503 1170.0427,145.4624 1170.9229,145.3378 1197.7738,142.6187 1255.1764,119.9077 1335.6687,133.4063 1348.7142,135.8859 1349.8307,136.1478 1372.4818,142.4878 1383.2988,145.9973 1384.4973,146.4396 1388.9788,148.1957 1397.9949,147.7316 1409.3461,147.3719 1418.3219,147.4424 1435.3687,148.2505 1443.741,149.1438 1453.1322,145.6895 1516.7565,125.1307 1554.7219,105.5341 1652.2155,128.635 1658.4688,130.2631 1667.8827,128.182 1677.3928,126.5166 1681.5265,125.8876 1696.1268,124.3325 1701.7131,123.9931 1714.6267,123.5037 1724.5336,123.8086 1743.4203,124.8233 1818.3121,132.2661 1819.9364,131.4095 1883.4268,84.0843 1883.505,18.6881 1883.2184,-10.6207 1883.5514,-25.3862 1884.1721,-36.7006 1846.644,-133.0905 1794.5242,-109.4142 1740.6699,-81.8337 1733.5584,-78.6743 1733.1979,-78.5388 1719.5138,-74.2954 1715.6704,-73.3691 1701.4404,-71.8559 1698.4858,-71.9439 1690.4507,-71.6359 1688.8098,-71.6851 1685.5092,-72.0103 1681.8848,-72.1193 1679.8997,-71.9081 1670.6344,-71.5572 1670.4064,-71.533 1661.644,-71.8012 1659.3757,-71.562 1657.3096,-71.4852 1650.7369,-71.6879 1644.922,-71.4731 1642.2034,-71.1894 1632.2675,-69.4778 1617.8844,-65.0444 1617.7532,-64.9953 1608.0569,-60.7099 1607.181,-60.2649 1554.7244,-29.9765 1495.5964,-125.58 1454.9406,-180.3168 1450.9352,-185.9427 1442.385,-193.5297 1430.4215,-205.3977 1425.5737,-207.7208 1422.6351,-209.1913 1406.1516,-218.1513 1382.3533,-232.6254 "/>
<polyline fill="none" stroke="#000000" points="1011.6306,-750.3198 1003.2213,-750.3877 1002.4633,-750.3645 986.1109,-751.2558 948.9696,-756.4307 919.5984,-772.4562 906.9466,-779.9017 903.6923,-781.9519 894.3713,-777.0162 872.7308,-768.0231 868.677,-766.6523 860.892,-764.3143 808.7233,-750.6286 801.1003,-748.3591 789.1993,-743.969 786.3409,-742.8138 778.0467,-739.166 770.4415,-735.552 718.3953,-708.9913 711.9485,-697.0627 670.6817,-626.0741 670.6426,-618.2111 666.7872,-486.0821 752.0259,-476.1114 866.0745,-510.9252 883.0443,-514.8441 891.1679,-516.3168 900.7379,-517.8147 901.8138,-518.9407 913.0542,-530.1403 937.131,-551.6904 948.9696,-563.29 982.9281,-578.8651 990.4045,-581.8906 996.7461,-584.1125 1004.6318,-586.4476 1010.6557,-587.9026 1020.2767,-589.7019 1028.7872,-590.8262 1030.6342,-590.9689 1036.1721,-591.0955 1050.0084,-592.0938 1063.0098,-594.3113 1072.1637,-596.7708 1083.7197,-600.4415 1088.5299,-602.4329 1098.5419,-607.0709 1106.1774,-611.356 1096.001,-661.6447 1095.91,-662.3615 1095.6267,-667.7437 1090.645,-706.1119 1082.2705,-747.4962 1040.9395,-750.379 1031.085,-750.3057 1028.3154,-750.5211 1020.2333,-750.5237 1014.566,-750.3057 1011.6732,-750.3178 1011.6306,-750.3198 "/>
<!-- authconfig&#45;&gt;policycoreutils -->
<g id="edge1" class="edge">
<title>authconfig&#45;&gt;policycoreutils</title>
<path fill="none" stroke="#444444" stroke-opacity="0.333333" d="M1610.8537,-306.7448C1619.1017,-289.1517 1631.6934,-262.2934 1641.1664,-242.0875"/>
<polygon fill="#444444" fill-opacity="0.333333" stroke="#444444" stroke-opacity="0.333333" points="1644.4577,-243.3124 1645.5336,-232.7723 1638.1196,-240.3409 1644.4577,-243.3124"/>
</g>
<!-- authconfig&#45;&gt;python3&#45;sssdconfig -->
<g id="edge2" class="edge">
<title>authconfig&#45;&gt;python3&#45;sssdconfig</title>
<path fill="none" stroke="#444444" stroke-opacity="0.333333" d="M1637.6935,-343.1488C1639.7188,-344.1879 1641.7672,-345.2388 1643.8198,-346.2919"/>
<polygon fill="#444444" fill-opacity="0.333333" stroke="#444444" stroke-opacity="0.333333" points="1642.2928,-349.4422 1652.7878,-350.893 1645.4882,-343.214 1642.2928,-349.4422"/>
</g>
<!-- policycoreutils&#45;&gt;libselinux&#45;utils -->
<g id="edge3" class="edge">
<title>policycoreutils&#45;&gt;libselinux&#45;utils</title>
<path fill="none" stroke="#444444" stroke-opacity="0.333333" d="M1653.1883,-196.0757C1652.5825,-183.8336 1651.7756,-167.5253 1651.0904,-153.6779"/>
<polygon fill="#444444" fill-opacity="0.333333" stroke="#444444" stroke-opacity="0.333333" points="1654.5855,-153.4912 1650.5955,-143.6764 1647.5941,-153.8372 1654.5855,-153.4912"/>
</g>
<!-- curl&#45;minimal&#45;&gt;libcurl&#45;minimal -->
<g id="edge4" class="edge">
<title>curl&#45;minimal&#45;&gt;libcurl&#45;minimal</title>
<path fill="none" stroke="#444444" stroke-opacity="0.333333" d="M989.8859,-397.4505C1008.5818,-421.967 1042.0464,-465.8503 1063.4884,-493.968"/>
<polygon fill="#444444" fill-opacity="0.333333" stroke="#444444" stroke-opacity="0.333333" points="1060.8801,-496.3197 1069.7271,-502.1491 1066.4464,-492.075 1060.8801,-496.3197"/>
</g>
<!-- device&#45;mapper&#45;multipath&#45;&gt;device&#45;mapper&#45;multipath&#45;libs -->
<g id="edge5" class="edge">
<title>device&#45;mapper&#45;multipath&#45;&gt;device&#45;mapper&#45;multipath&#45;libs</title>
<path fill="none" stroke="#444444" stroke-opacity="0.333333" d="M346.2418,-690.8695C314.5158,-698.7183 277.1656,-707.9585 244.3592,-716.0745"/>
<polygon fill="#444444" fill-opacity="0.333333" stroke="#444444" stroke-opacity="0.333333" points="243.2019,-712.7553 234.3351,-718.5544 244.883,-719.5504 243.2019,-712.7553"/>
</g>
<!-- device&#45;mapper&#45;multipath&#45;&gt;initscripts -->
<g id="edge6" class="edge">
<title>device&#45;mapper&#45;multipath&#45;&gt;initscripts</title>
<path fill="none" stroke="#444444" stroke-opacity="0.333333" d="M411.9079,-654.4709C397.013,-616.5337 362.7849,-529.355 345.2749,-484.7572"/>
<polygon fill="#444444" fill-opacity="0.333333" stroke="#444444" stroke-opacity="0.333333" points="348.5171,-483.4379 341.6045,-475.4088 342.0013,-485.9962 348.5171,-483.4379"/>
</g>
<!-- device&#45;mapper&#45;multipath&#45;&gt;kpartx -->
<g id="edge7" class="edge">
<title>device&#45;mapper&#45;multipath&#45;&gt;kpartx</title>
<path fill="none" stroke="#444444" stroke-opacity="0.333333" d="M410.0655,-691.2296C403.3686,-704.8309 394.1418,-723.5703 386.6058,-738.8758"/>
<polygon fill="#444444" fill-opacity="0.333333" stroke="#444444" stroke-opacity="0.333333" points="383.4471,-737.3677 382.1698,-747.8853 389.7272,-740.4599 383.4471,-737.3677"/>
</g>
<!-- device&#45;mapper&#45;multipath&#45;&gt;userspace&#45;rcu -->
<g id="edge8" class="edge">
<title>device&#45;mapper&#45;multipath&#45;&gt;userspace&#45;rcu</title>
<path fill="none" stroke="#444444" stroke-opacity="0.333333" d="M285.0949,-677.9923C285.0114,-677.9955 284.928,-677.9987 284.8445,-678.0019"/>
<polygon fill="#444444" fill-opacity="0.333333" stroke="#444444" stroke-opacity="0.333333" points="287.0009,-674.4163 277.1427,-678.298 287.2698,-681.4111 287.0009,-674.4163"/>
</g>
<!-- device&#45;mapper&#45;multipath&#45;libs&#45;&gt;userspace&#45;rcu -->
<g id="edge9" class="edge">
<title>device&#45;mapper&#45;multipath&#45;libs&#45;&gt;userspace&#45;rcu</title>
<path fill="none" stroke="#444444" stroke-opacity="0.333333" d="M172.7354,-718.5591C174.8443,-715.2546 177.0856,-711.7427 179.3163,-708.2474"/>
<polygon fill="#444444" fill-opacity="0.333333" stroke="#444444" stroke-opacity="0.333333" points="182.3285,-710.0333 184.7579,-699.7207 176.4278,-706.2674 182.3285,-710.0333"/>
</g>
<!-- device&#45;mapper&#45;multipath&#45;libs&#45;&gt;libaio -->
<g id="edge10" class="edge">
<title>device&#45;mapper&#45;multipath&#45;libs&#45;&gt;libaio</title>
<path fill="none" stroke="#444444" stroke-opacity="0.333333" d="M150.8268,-754.9223C144.3805,-766.2884 135.9747,-781.1093 128.7657,-793.8203"/>
<polygon fill="#444444" fill-opacity="0.333333" stroke="#444444" stroke-opacity="0.333333" points="125.6619,-792.1982 123.773,-802.6233 131.7508,-795.6516 125.6619,-792.1982"/>
</g>
<!-- initscripts&#45;&gt;hostname -->
<g id="edge11" class="edge">
<title>initscripts&#45;&gt;hostname</title>
<path fill="none" stroke="#444444" stroke-opacity="0.333333" d="M289.7131,-439.3584C286.3659,-438.0117 282.9676,-436.6444 279.5706,-435.2777"/>
<polygon fill="#444444" fill-opacity="0.333333" stroke="#444444" stroke-opacity="0.333333" points="280.628,-431.9305 270.0443,-431.4448 278.0151,-438.4245 280.628,-431.9305"/>
</g>
<!-- fcoe&#45;utils&#45;&gt;device&#45;mapper&#45;multipath -->
<g id="edge12" class="edge">
<title>fcoe&#45;utils&#45;&gt;device&#45;mapper&#45;multipath</title>
<path fill="none" stroke="#444444" stroke-opacity="0.333333" d="M557.72,-795.4863C529.5627,-770.5701 478.7791,-725.6319 447.1222,-697.619"/>
<polygon fill="#444444" fill-opacity="0.333333" stroke="#444444" stroke-opacity="0.333333" points="449.3198,-694.89 439.5114,-690.8842 444.6809,-700.1323 449.3198,-694.89"/>
</g>
<!-- fcoe&#45;utils&#45;&gt;libpciaccess -->
<g id="edge13" class="edge">
<title>fcoe&#45;utils&#45;&gt;libpciaccess</title>
<path fill="none" stroke="#444444" stroke-opacity="0.333333" d="M571.1161,-831.6555C561.8802,-855.2291 545.6251,-896.7184 534.8531,-924.2128"/>
<polygon fill="#444444" fill-opacity="0.333333" stroke="#444444" stroke-opacity="0.333333" points="531.5448,-923.0624 531.1557,-933.6501 538.0625,-925.616 531.5448,-923.0624"/>
</g>
<!-- fcoe&#45;utils&#45;&gt;lldpad -->
<g id="edge14" class="edge">
<title>fcoe&#45;utils&#45;&gt;lldpad</title>
<path fill="none" stroke="#444444" stroke-opacity="0.333333" d="M642.8277,-825.5757C673.2003,-831.2029 708.9624,-837.8287 737.7134,-843.1555"/>
<polygon fill="#444444" fill-opacity="0.333333" stroke="#444444" stroke-opacity="0.333333" points="737.1,-846.6014 747.5703,-844.9818 738.3752,-839.7185 737.1,-846.6014"/>
</g>
<!-- libpciaccess&#45;&gt;hwdata -->
<g id="edge15" class="edge">
<title>libpciaccess&#45;&gt;hwdata</title>
<path fill="none" stroke="#444444" stroke-opacity="0.333333" d="M520.5,-969.7735C517.095,-986.954 511.9213,-1013.0589 507.976,-1032.9652"/>
<polygon fill="#444444" fill-opacity="0.333333" stroke="#444444" stroke-opacity="0.333333" points="504.4963,-1032.52 505.9853,-1043.0096 511.3627,-1033.8809 504.4963,-1032.52"/>
</g>
<!-- lldpad&#45;&gt;libnl3 -->
<g id="edge16" class="edge">
<title>lldpad&#45;&gt;libnl3</title>
<path fill="none" stroke="#444444" stroke-opacity="0.333333" d="M833.943,-850.3608C872.6661,-848.0132 929.6158,-844.5606 971.2252,-842.038"/>
<polygon fill="#444444" fill-opacity="0.333333" stroke="#444444" stroke-opacity="0.333333" points="971.6831,-845.5168 981.4529,-841.4179 971.2594,-838.5296 971.6831,-845.5168"/>
</g>
<!-- lldpad&#45;&gt;libconfig -->
<g id="edge17" class="edge">
<title>lldpad&#45;&gt;libconfig</title>
<path fill="none" stroke="#444444" stroke-opacity="0.333333" d="M786.3116,-871.0779C782.566,-886.3856 777.1365,-908.5748 772.8289,-926.1789"/>
<polygon fill="#444444" fill-opacity="0.333333" stroke="#444444" stroke-opacity="0.333333" points="769.4207,-925.3821 770.4436,-935.9275 776.2201,-927.0459 769.4207,-925.3821"/>
</g>
<!-- firewalld&#45;&gt;ebtables -->
<g id="edge18" class="edge">
<title>firewalld&#45;&gt;ebtables</title>
<path fill="none" stroke="#444444" stroke-opacity="0.333333" d="M2182.717,-1330.0358C2205.574,-1363.2359 2254.4179,-1434.1821 2281.2311,-1473.1285"/>
<polygon fill="#444444" fill-opacity="0.333333" stroke="#444444" stroke-opacity="0.333333" points="2278.6767,-1475.5904 2287.2303,-1481.8424 2284.4424,-1471.6209 2278.6767,-1475.5904"/>
</g>
<!-- firewalld&#45;&gt;firewalld&#45;filesystem -->
<g id="edge19" class="edge">
<title>firewalld&#45;&gt;firewalld&#45;filesystem</title>
<path fill="none" stroke="#444444" stroke-opacity="0.333333" d="M2165.6211,-1330.0325C2156.7586,-1364.1892 2137.4661,-1438.5434 2126.8919,-1479.2969"/>
<polygon fill="#444444" fill-opacity="0.333333" stroke="#444444" stroke-opacity="0.333333" points="2123.465,-1478.5685 2124.3413,-1489.127 2130.2407,-1480.3266 2123.465,-1478.5685"/>
</g>
<!-- firewalld&#45;&gt;ipset -->
<g id="edge20" class="edge">
<title>firewalld&#45;&gt;ipset</title>
<path fill="none" stroke="#444444" stroke-opacity="0.333333" d="M2171.466,-1293.6853C2174.6904,-1243.041 2183.7428,-1100.8564 2187.6109,-1040.1006"/>
<polygon fill="#444444" fill-opacity="0.333333" stroke="#444444" stroke-opacity="0.333333" points="2191.1067,-1040.2772 2188.2492,-1030.075 2184.1208,-1039.8324 2191.1067,-1040.2772"/>
</g>
<!-- firewalld&#45;&gt;python3&#45;firewall -->
<g id="edge21" class="edge">
<title>firewalld&#45;&gt;python3&#45;firewall</title>
<path fill="none" stroke="#444444" stroke-opacity="0.333333" d="M2111.0549,-1296.0822C2082.7265,-1288.4711 2048.4645,-1279.2657 2018.168,-1271.1257"/>
<polygon fill="#444444" fill-opacity="0.333333" stroke="#444444" stroke-opacity="0.333333" points="2019.049,-1267.7384 2008.4833,-1268.5237 2017.2327,-1274.4986 2019.049,-1267.7384"/>
</g>
<!-- ipset&#45;&gt;ipset&#45;libs -->
<g id="edge22" class="edge">
<title>ipset&#45;&gt;ipset&#45;libs</title>
<path fill="none" stroke="#444444" stroke-opacity="0.333333" d="M2176.5691,-993.9191C2155.768,-964.6069 2114.5865,-906.5753 2090.4505,-872.5636"/>
<polygon fill="#444444" fill-opacity="0.333333" stroke="#444444" stroke-opacity="0.333333" points="2093.0567,-870.1883 2084.4151,-864.0586 2087.3481,-874.2394 2093.0567,-870.1883"/>
</g>
<!-- python3&#45;firewall&#45;&gt;python3&#45;dbus -->
<g id="edge23" class="edge">
<title>python3&#45;firewall&#45;&gt;python3&#45;dbus</title>
<path fill="none" stroke="#444444" stroke-opacity="0.333333" d="M1925.4942,-1268.8027C1898.4084,-1299.9701 1843.2688,-1363.419 1812.3658,-1398.9789"/>
<polygon fill="#444444" fill-opacity="0.333333" stroke="#444444" stroke-opacity="0.333333" points="1809.7104,-1396.6987 1805.7927,-1406.5425 1814.9941,-1401.2903 1809.7104,-1396.6987"/>
</g>
<!-- python3&#45;firewall&#45;&gt;python3&#45;decorator -->
<g id="edge24" class="edge">
<title>python3&#45;firewall&#45;&gt;python3&#45;decorator</title>
<path fill="none" stroke="#444444" stroke-opacity="0.333333" d="M1919.5566,-1232.4912C1891.5965,-1209.4395 1843.033,-1169.4012 1811.6962,-1143.5655"/>
<polygon fill="#444444" fill-opacity="0.333333" stroke="#444444" stroke-opacity="0.333333" points="1813.6772,-1140.6626 1803.7349,-1137.0018 1809.2243,-1146.0637 1813.6772,-1140.6626"/>
</g>
<!-- python3&#45;firewall&#45;&gt;python3&#45;gobject&#45;base -->
<g id="edge25" class="edge">
<title>python3&#45;firewall&#45;&gt;python3&#45;gobject&#45;base</title>
<path fill="none" stroke="#444444" stroke-opacity="0.333333" d="M2000.6781,-1232.4125C2041.7425,-1219.8826 2096.5436,-1203.1612 2139.5615,-1190.0351"/>
<polygon fill="#444444" fill-opacity="0.333333" stroke="#444444" stroke-opacity="0.333333" points="2140.8444,-1193.3031 2149.3876,-1187.0369 2138.8014,-1186.6078 2140.8444,-1193.3031"/>
</g>
<!-- python3&#45;firewall&#45;&gt;python3&#45;slip&#45;dbus -->
<g id="edge26" class="edge">
<title>python3&#45;firewall&#45;&gt;python3&#45;slip&#45;dbus</title>
<path fill="none" stroke="#444444" stroke-opacity="0.333333" d="M1844.2586,-1256.9911C1828.0987,-1258.0709 1811.2212,-1259.1987 1794.7237,-1260.3011"/>
<polygon fill="#444444" fill-opacity="0.333333" stroke="#444444" stroke-opacity="0.333333" points="1794.2549,-1256.8245 1784.5105,-1260.9835 1794.7217,-1263.8089 1794.2549,-1256.8245"/>
</g>
<!-- python3&#45;dbus&#45;&gt;dbus&#45;glib -->
<g id="edge27" class="edge">
<title>python3&#45;dbus&#45;&gt;dbus&#45;glib</title>
<path fill="none" stroke="#444444" stroke-opacity="0.333333" d="M1792.7087,-1442.7829C1797.3745,-1475.3034 1807.1788,-1543.6399 1812.7342,-1582.3615"/>
<polygon fill="#444444" fill-opacity="0.333333" stroke="#444444" stroke-opacity="0.333333" points="1809.2959,-1583.0417 1814.1807,-1592.4433 1816.225,-1582.0476 1809.2959,-1583.0417"/>
</g>
<!-- python3&#45;slip&#45;dbus&#45;&gt;python3&#45;dbus -->
<g id="edge28" class="edge">
<title>python3&#45;slip&#45;dbus&#45;&gt;python3&#45;dbus</title>
<path fill="none" stroke="#444444" stroke-opacity="0.333333" d="M1695.0537,-1286.0938C1714.0053,-1313.7111 1750.0223,-1366.1968 1771.8668,-1398.0297"/>
<polygon fill="#444444" fill-opacity="0.333333" stroke="#444444" stroke-opacity="0.333333" points="1769.0822,-1400.1577 1777.6263,-1406.4227 1774.854,-1396.197 1769.0822,-1400.1577"/>
</g>
<!-- python3&#45;slip&#45;dbus&#45;&gt;python3&#45;decorator -->
<g id="edge29" class="edge">
<title>python3&#45;slip&#45;dbus&#45;&gt;python3&#45;decorator</title>
<path fill="none" stroke="#444444" stroke-opacity="0.333333" d="M1694.6884,-1249.5542C1712.0519,-1223.5613 1744.0196,-1175.7062 1764.0535,-1145.7159"/>
<polygon fill="#444444" fill-opacity="0.333333" stroke="#444444" stroke-opacity="0.333333" points="1766.9675,-1147.6546 1769.6119,-1137.395 1761.1468,-1143.7662 1766.9675,-1147.6546"/>
</g>
<!-- python3&#45;slip&#45;dbus&#45;&gt;python3&#45;slip -->
<g id="edge30" class="edge">
<title>python3&#45;slip&#45;dbus&#45;&gt;python3&#45;slip</title>
<path fill="none" stroke="#444444" stroke-opacity="0.333333" d="M1580.4894,-1273.4697C1564.4661,-1274.3602 1548.0449,-1275.2729 1532.4398,-1276.1402"/>
<polygon fill="#444444" fill-opacity="0.333333" stroke="#444444" stroke-opacity="0.333333" points="1532.1056,-1272.6533 1522.3153,-1276.7029 1532.4941,-1279.6425 1532.1056,-1272.6533"/>
</g>
<!-- python3&#45;slip&#45;&gt;libselinux&#45;python3 -->
<g id="edge58" class="edge">
<title>python3&#45;slip&#45;&gt;libselinux&#45;python3</title>
<path fill="none" stroke="#444444" stroke-opacity="0.333333" d="M1421.7868,-1262.7846C1398.2512,-1245.7393 1362.836,-1220.0904 1336.8346,-1201.2593"/>
<polygon fill="#444444" fill-opacity="0.333333" stroke="#444444" stroke-opacity="0.333333" points="1338.5604,-1198.1877 1328.4084,-1195.1568 1334.4545,-1203.8571 1338.5604,-1198.1877"/>
</g>
<!-- iscsi&#45;initiator&#45;utils&#45;&gt;iscsi&#45;initiator&#45;utils&#45;iscsiuio -->
<g id="edge31" class="edge">
<title>iscsi&#45;initiator&#45;utils&#45;&gt;iscsi&#45;initiator&#45;utils&#45;iscsiuio</title>
<path fill="none" stroke="#444444" stroke-opacity="0.333333" d="M1270.9806,-11.3546C1270.8271,-11.3534 1270.6736,-11.3523 1270.52,-11.3512"/>
<polygon fill="#444444" fill-opacity="0.333333" stroke="#444444" stroke-opacity="0.333333" points="1273.6089,-7.8709 1263.5868,-11.3071 1273.5643,-14.8707 1273.6089,-7.8709"/>
</g>
<!-- iscsi&#45;initiator&#45;utils&#45;&gt;isns&#45;utils&#45;libs -->
<g id="edge32" class="edge">
<title>iscsi&#45;initiator&#45;utils&#45;&gt;isns&#45;utils&#45;libs</title>
<path fill="none" stroke="#444444" stroke-opacity="0.333333" d="M1518.2671,-18.0024C1544.4003,-18.002 1571.6934,-18.0017 1596.9028,-18.0013"/>
<polygon fill="#444444" fill-opacity="0.333333" stroke="#444444" stroke-opacity="0.333333" points="1597.1956,-21.5014 1607.1955,-18.0012 1597.1955,-14.5014 1597.1956,-21.5014"/>
</g>
<!-- iscsi&#45;initiator&#45;utils&#45;iscsiuio&#45;&gt;iscsi&#45;initiator&#45;utils -->
<g id="edge33" class="edge">
<title>iscsi&#45;initiator&#45;utils&#45;iscsiuio&#45;&gt;iscsi&#45;initiator&#45;utils</title>
<path fill="none" stroke="#444444" stroke-opacity="0.333333" d="M1263.5187,-24.6978C1263.6774,-24.6969 1263.836,-24.6961 1263.9946,-24.6952"/>
<polygon fill="#444444" fill-opacity="0.333333" stroke="#444444" stroke-opacity="0.333333" points="1261.1314,-28.2139 1271.1085,-24.6492 1261.086,-21.2141 1261.1314,-28.2139"/>
</g>
<!-- libnl3&#45;cli&#45;&gt;libnl3 -->
<g id="edge34" class="edge">
<title>libnl3&#45;cli&#45;&gt;libnl3</title>
<path fill="none" stroke="#444444" stroke-opacity="0.333333" d="M1048.2245,-897.1072C1044.5428,-887.9412 1039.9947,-876.6183 1035.8885,-866.3956"/>
<polygon fill="#444444" fill-opacity="0.333333" stroke="#444444" stroke-opacity="0.333333" points="1039.1048,-865.0125 1032.1296,-857.0377 1032.6092,-867.6217 1039.1048,-865.0125"/>
</g>
<!-- libproxy&#45;&gt;libmodman -->
<g id="edge35" class="edge">
<title>libproxy&#45;&gt;libmodman</title>
<path fill="none" stroke="#444444" stroke-opacity="0.333333" d="M954.0435,-662C953.8861,-662 953.7287,-662 953.5712,-662"/>
<polygon fill="#444444" fill-opacity="0.333333" stroke="#444444" stroke-opacity="0.333333" points="956.462,-658.5001 946.462,-662 956.4619,-665.5001 956.462,-658.5001"/>
</g>
<!-- libpsl&#45;&gt;publicsuffix&#45;list&#45;dafsa -->
<g id="edge36" class="edge">
<title>libpsl&#45;&gt;publicsuffix&#45;list&#45;dafsa</title>
<path fill="none" stroke="#444444" stroke-opacity="0.333333" d="M1382.3274,-719.2719C1393.8041,-721.4816 1406.7036,-723.9651 1419.9215,-726.51"/>
<polygon fill="#444444" fill-opacity="0.333333" stroke="#444444" stroke-opacity="0.333333" points="1419.5916,-730.0107 1430.073,-728.4645 1420.915,-723.1369 1419.5916,-730.0107"/>
</g>
<!-- libteam&#45;&gt;libnl3 -->
<g id="edge37" class="edge">
<title>libteam&#45;&gt;libnl3</title>
<path fill="none" stroke="#444444" stroke-opacity="0.333333" d="M1044.8668,-942.1938C1041.0087,-922.3127 1034.7809,-890.2214 1030.2859,-867.0588"/>
<polygon fill="#444444" fill-opacity="0.333333" stroke="#444444" stroke-opacity="0.333333" points="1033.6984,-866.2708 1028.3573,-857.1207 1026.8266,-867.6044 1033.6984,-866.2708"/>
</g>
<!-- libteam&#45;&gt;libnl3&#45;cli -->
<g id="edge38" class="edge">
<title>libteam&#45;&gt;libnl3&#45;cli</title>
<path fill="none" stroke="#444444" stroke-opacity="0.333333" d="M1051.2469,-942.2839C1051.2614,-942.1918 1051.2759,-942.0997 1051.2904,-942.0074"/>
<polygon fill="#444444" fill-opacity="0.333333" stroke="#444444" stroke-opacity="0.333333" points="1054.5575,-943.7623 1052.6524,-933.3402 1047.6423,-942.6755 1054.5575,-943.7623"/>
</g>
<!-- mariadb&#45;common&#45;&gt;mariadb&#45;config -->
<g id="edge39" class="edge">
<title>mariadb&#45;common&#45;&gt;mariadb&#45;config</title>
<path fill="none" stroke="#444444" stroke-opacity="0.333333" d="M756.567,-223.6668C772.8244,-231.2864 791.8995,-240.2267 809.0203,-248.251"/>
<polygon fill="#444444" fill-opacity="0.333333" stroke="#444444" stroke-opacity="0.333333" points="807.7604,-251.5258 818.3006,-252.6005 810.7311,-245.1874 807.7604,-251.5258"/>
</g>
<!-- mariadb&#45;config&#45;&gt;curl&#45;minimal -->
<g id="edge40" class="edge">
<title>mariadb&#45;config&#45;&gt;curl&#45;minimal</title>
<path fill="none" stroke="#444444" stroke-opacity="0.333333" d="M876.7531,-288.8306C896.3616,-306.698 926.4429,-334.1084 948.3607,-354.0801"/>
<polygon fill="#444444" fill-opacity="0.333333" stroke="#444444" stroke-opacity="0.333333" points="946.2828,-356.9218 956.0318,-361.0701 950.9975,-351.7477 946.2828,-356.9218"/>
</g>
<!-- mariadb&#45;libs&#45;&gt;mariadb&#45;common -->
<g id="edge41" class="edge">
<title>mariadb&#45;libs&#45;&gt;mariadb&#45;common</title>
<path fill="none" stroke="#444444" stroke-opacity="0.333333" d="M624.3455,-201.667C624.4995,-201.6734 624.6535,-201.6797 624.8076,-201.6861"/>
<polygon fill="#444444" fill-opacity="0.333333" stroke="#444444" stroke-opacity="0.333333" points="621.624,-205.0574 631.7599,-201.9732 621.913,-198.0634 621.624,-205.0574"/>
</g>
<!-- net&#45;snmp&#45;agent&#45;libs&#45;&gt;mariadb&#45;libs -->
<g id="edge42" class="edge">
<title>net&#45;snmp&#45;agent&#45;libs&#45;&gt;mariadb&#45;libs</title>
<path fill="none" stroke="#444444" stroke-opacity="0.333333" d="M463.0264,-172.128C468.7253,-173.8861 474.5403,-175.68 480.3223,-177.4638"/>
<polygon fill="#444444" fill-opacity="0.333333" stroke="#444444" stroke-opacity="0.333333" points="479.4082,-180.8445 489.9956,-180.4481 481.4718,-174.1556 479.4082,-180.8445"/>
</g>
<!-- net&#45;snmp&#45;agent&#45;libs&#45;&gt;lm_sensors&#45;libs -->
<g id="edge43" class="edge">
<title>net&#45;snmp&#45;agent&#45;libs&#45;&gt;lm_sensors&#45;libs</title>
<path fill="none" stroke="#444444" stroke-opacity="0.333333" d="M291.7523,-167.1921C291.592,-167.2109 291.4317,-167.2296 291.2714,-167.2484"/>
<polygon fill="#444444" fill-opacity="0.333333" stroke="#444444" stroke-opacity="0.333333" points="293.604,-163.4515 284.0786,-168.09 294.4176,-170.404 293.604,-163.4515"/>
</g>
<!-- net&#45;snmp&#45;agent&#45;libs&#45;&gt;net&#45;snmp&#45;libs -->
<g id="edge44" class="edge">
<title>net&#45;snmp&#45;agent&#45;libs&#45;&gt;net&#45;snmp&#45;libs</title>
<path fill="none" stroke="#444444" stroke-opacity="0.333333" d="M374.4229,-135.8612C373.1065,-135.0619 371.7785,-134.2556 370.4463,-133.4467"/>
<polygon fill="#444444" fill-opacity="0.333333" stroke="#444444" stroke-opacity="0.333333" points="372.0327,-130.3153 361.6684,-128.117 368.3996,-136.2988 372.0327,-130.3153"/>
</g>
<!-- net&#45;snmp&#45;&gt;initscripts -->
<g id="edge45" class="edge">
<title>net&#45;snmp&#45;&gt;initscripts</title>
<path fill="none" stroke="#444444" stroke-opacity="0.333333" d="M338.8311,-271.4116C338.0072,-307.0398 336.1703,-386.4658 335.1847,-429.0803"/>
<polygon fill="#444444" fill-opacity="0.333333" stroke="#444444" stroke-opacity="0.333333" points="331.6802,-429.2407 334.9479,-439.319 338.6783,-429.4026 331.6802,-429.2407"/>
</g>
<!-- net&#45;snmp&#45;&gt;mariadb&#45;libs -->
<g id="edge46" class="edge">
<title>net&#45;snmp&#45;&gt;mariadb&#45;libs</title>
<path fill="none" stroke="#444444" stroke-opacity="0.333333" d="M393.4454,-239.1267C416.6589,-233.0559 444.2279,-225.846 469.6433,-219.1993"/>
<polygon fill="#444444" fill-opacity="0.333333" stroke="#444444" stroke-opacity="0.333333" points="470.8463,-222.5025 479.6354,-216.5862 469.0752,-215.7303 470.8463,-222.5025"/>
</g>
<!-- net&#45;snmp&#45;&gt;net&#45;snmp&#45;agent&#45;libs -->
<g id="edge47" class="edge">
<title>net&#45;snmp&#45;&gt;net&#45;snmp&#45;agent&#45;libs</title>
<path fill="none" stroke="#444444" stroke-opacity="0.333333" d="M351.1867,-235.0905C361.1862,-219.8362 375.5953,-197.855 386.8877,-180.6283"/>
<polygon fill="#444444" fill-opacity="0.333333" stroke="#444444" stroke-opacity="0.333333" points="389.9138,-182.3962 392.469,-172.114 384.0595,-178.5585 389.9138,-182.3962"/>
</g>
<!-- net&#45;snmp&#45;&gt;lm_sensors&#45;libs -->
<g id="edge48" class="edge">
<title>net&#45;snmp&#45;&gt;lm_sensors&#45;libs</title>
<path fill="none" stroke="#444444" stroke-opacity="0.333333" d="M303.7985,-235.2584C283.8148,-225.0884 258.6624,-212.2881 237.3557,-201.4449"/>
<polygon fill="#444444" fill-opacity="0.333333" stroke="#444444" stroke-opacity="0.333333" points="238.6783,-198.1908 228.1785,-196.7745 235.5033,-204.4294 238.6783,-198.1908"/>
</g>
<!-- net&#45;snmp&#45;&gt;net&#45;snmp&#45;libs -->
<g id="edge49" class="edge">
<title>net&#45;snmp&#45;&gt;net&#45;snmp&#45;libs</title>
<path fill="none" stroke="#444444" stroke-opacity="0.333333" d="M338.3103,-235.151C337.0447,-210.7091 334.7798,-166.9691 333.291,-138.2162"/>
<polygon fill="#444444" fill-opacity="0.333333" stroke="#444444" stroke-opacity="0.333333" points="336.7746,-137.8073 332.7621,-128.0017 329.784,-138.1693 336.7746,-137.8073"/>
</g>
<!-- NetworkManager&#45;&gt;libcurl&#45;minimal -->
<g id="edge50" class="edge">
<title>NetworkManager&#45;&gt;libcurl&#45;minimal</title>
<path fill="none" stroke="#444444" stroke-opacity="0.333333" d="M1185.7959,-668.236C1165.5245,-638.9027 1125.3918,-580.829 1101.8705,-546.7928"/>
<polygon fill="#444444" fill-opacity="0.333333" stroke="#444444" stroke-opacity="0.333333" points="1104.5533,-544.5186 1095.9887,-538.2817 1098.7946,-548.4982 1104.5533,-544.5186"/>
</g>
<!-- NetworkManager&#45;&gt;libnl3 -->
<g id="edge51" class="edge">
<title>NetworkManager&#45;&gt;libnl3</title>
<path fill="none" stroke="#444444" stroke-opacity="0.333333" d="M1177.7159,-704.4179C1146.8026,-731.5824 1088.2907,-782.9987 1053.2944,-813.7511"/>
<polygon fill="#444444" fill-opacity="0.333333" stroke="#444444" stroke-opacity="0.333333" points="1050.5588,-811.4956 1045.3573,-820.7257 1055.1795,-816.7539 1050.5588,-811.4956"/>
</g>
<!-- NetworkManager&#45;&gt;libpsl -->
<g id="edge52" class="edge">
<title>NetworkManager&#45;&gt;libpsl</title>
<path fill="none" stroke="#444444" stroke-opacity="0.333333" d="M1284.6017,-701.419C1285.0852,-701.5035 1285.5677,-701.5879 1286.049,-701.672"/>
<polygon fill="#444444" fill-opacity="0.333333" stroke="#444444" stroke-opacity="0.333333" points="1285.4986,-705.1288 1295.952,-703.4035 1286.7042,-698.2334 1285.4986,-705.1288"/>
</g>
<!-- NetworkManager&#45;&gt;jansson -->
<g id="edge53" class="edge">
<title>NetworkManager&#45;&gt;jansson</title>
<path fill="none" stroke="#444444" stroke-opacity="0.333333" d="M1199.1764,-704.5518C1200.2908,-727.7214 1202.2271,-767.9773 1203.5355,-795.1803"/>
<polygon fill="#444444" fill-opacity="0.333333" stroke="#444444" stroke-opacity="0.333333" points="1200.0435,-795.4326 1204.0199,-805.2529 1207.0354,-795.0962 1200.0435,-795.4326"/>
</g>
<!-- NetworkManager&#45;&gt;libndp -->
<g id="edge54" class="edge">
<title>NetworkManager&#45;&gt;libndp</title>
<path fill="none" stroke="#444444" stroke-opacity="0.333333" d="M1210.2204,-668.101C1216.4846,-658.5216 1224.2796,-646.6013 1231.2051,-636.0108"/>
<polygon fill="#444444" fill-opacity="0.333333" stroke="#444444" stroke-opacity="0.333333" points="1234.2215,-637.7931 1236.7652,-627.5081 1228.3629,-633.962 1234.2215,-637.7931"/>
</g>
<!-- NetworkManager&#45;&gt;NetworkManager&#45;libnm -->
<g id="edge55" class="edge">
<title>NetworkManager&#45;&gt;NetworkManager&#45;libnm</title>
<path fill="none" stroke="#444444" stroke-opacity="0.333333" d="M1209.855,-704.5793C1218.0589,-717.536 1229.2065,-735.1416 1238.4194,-749.6919"/>
<polygon fill="#444444" fill-opacity="0.333333" stroke="#444444" stroke-opacity="0.333333" points="1235.5554,-751.7114 1243.8621,-758.2879 1241.4696,-747.9667 1235.5554,-751.7114"/>
</g>
<!-- NetworkManager&#45;&gt;polkit&#45;libs -->
<g id="edge56" class="edge">
<title>NetworkManager&#45;&gt;polkit&#45;libs</title>
<path fill="none" stroke="#444444" stroke-opacity="0.333333" d="M1220.5953,-668.3281C1249.054,-645.3496 1298.4246,-605.4861 1330.4182,-579.6535"/>
<polygon fill="#444444" fill-opacity="0.333333" stroke="#444444" stroke-opacity="0.333333" points="1332.9699,-582.0917 1338.5516,-573.0863 1328.5724,-576.6454 1332.9699,-582.0917"/>
</g>
<!-- NetworkManager&#45;libnm&#45;&gt;jansson -->
<g id="edge57" class="edge">
<title>NetworkManager&#45;libnm&#45;&gt;jansson</title>
<path fill="none" stroke="#444444" stroke-opacity="0.333333" d="M1236.0198,-794.5624C1234.7195,-795.7736 1233.3971,-797.0054 1232.0677,-798.2437"/>
<polygon fill="#444444" fill-opacity="0.333333" stroke="#444444" stroke-opacity="0.333333" points="1229.4106,-795.9356 1224.4788,-805.3126 1234.1817,-801.0577 1229.4106,-795.9356"/>
</g>
<!-- realmd&#45;&gt;authconfig -->
<g id="edge59" class="edge">
<title>realmd&#45;&gt;authconfig</title>
<path fill="none" stroke="#444444" stroke-opacity="0.333333" d="M1521.1313,-422.6034C1537.063,-403.444 1562.3759,-373.0027 1580.498,-351.2091"/>
<polygon fill="#444444" fill-opacity="0.333333" stroke="#444444" stroke-opacity="0.333333" points="1583.3543,-353.2483 1587.0568,-343.3214 1577.972,-348.7727 1583.3543,-353.2483"/>
</g>
<!-- realmd&#45;&gt;polkit&#45;libs -->
<g id="edge60" class="edge">
<title>realmd&#45;&gt;polkit&#45;libs</title>
<path fill="none" stroke="#444444" stroke-opacity="0.333333" d="M1483.1243,-458.7753C1458.5188,-478.1543 1419.3351,-509.0148 1392.0311,-530.5191"/>
<polygon fill="#444444" fill-opacity="0.333333" stroke="#444444" stroke-opacity="0.333333" points="1389.6587,-527.9324 1383.9682,-536.8693 1393.9898,-533.4316 1389.6587,-527.9324"/>
</g>
<!-- teamd&#45;&gt;libnl3 -->
<g id="edge61" class="edge">
<title>teamd&#45;&gt;libnl3</title>
<path fill="none" stroke="#444444" stroke-opacity="0.333333" d="M1138.1181,-913.7103C1116.0223,-899.1017 1084.8053,-878.4626 1060.7294,-862.5448"/>
<polygon fill="#444444" fill-opacity="0.333333" stroke="#444444" stroke-opacity="0.333333" points="1062.4846,-859.5094 1052.2126,-856.9138 1058.624,-865.3486 1062.4846,-859.5094"/>
</g>
<!-- teamd&#45;&gt;libnl3&#45;cli -->
<g id="edge62" class="edge">
<title>teamd&#45;&gt;libnl3&#45;cli</title>
<path fill="none" stroke="#444444" stroke-opacity="0.333333" d="M1128.0178,-926.1932C1127.8542,-926.1684 1127.6905,-926.1436 1127.5265,-926.1188"/>
<polygon fill="#444444" fill-opacity="0.333333" stroke="#444444" stroke-opacity="0.333333" points="1130.4308,-923.0186 1120.0196,-924.9829 1129.3834,-929.9398 1130.4308,-923.0186"/>
</g>
<!-- teamd&#45;&gt;libteam -->
<g id="edge63" class="edge">
<title>teamd&#45;&gt;libteam</title>
<path fill="none" stroke="#444444" stroke-opacity="0.333333" d="M1127.8721,-941.0609C1121.0633,-942.7178 1113.8221,-944.4799 1106.5892,-946.24"/>
<polygon fill="#444444" fill-opacity="0.333333" stroke="#444444" stroke-opacity="0.333333" points="1105.6617,-942.8634 1096.7728,-948.6287 1107.3169,-949.665 1105.6617,-942.8634"/>
</g>
<!-- teamd&#45;&gt;jansson -->
<g id="edge64" class="edge">
<title>teamd&#45;&gt;jansson</title>
<path fill="none" stroke="#444444" stroke-opacity="0.333333" d="M1172.2667,-913.5033C1178.4581,-896.4369 1187.762,-870.7906 1194.8533,-851.2435"/>
<polygon fill="#444444" fill-opacity="0.333333" stroke="#444444" stroke-opacity="0.333333" points="1198.2115,-852.2495 1198.3317,-841.6553 1191.6312,-849.8622 1198.2115,-852.2495"/>
</g>
<!-- teamd&#45;&gt;libdaemon -->
<g id="edge65" class="edge">
<title>teamd&#45;&gt;libdaemon</title>
<path fill="none" stroke="#444444" stroke-opacity="0.333333" d="M1172.3188,-950.0238C1179.2925,-968.8563 1190.2878,-998.5484 1198.3476,-1020.3137"/>
<polygon fill="#444444" fill-opacity="0.333333" stroke="#444444" stroke-opacity="0.333333" points="1195.1736,-1021.8214 1201.9284,-1029.9837 1201.7379,-1019.3905 1195.1736,-1021.8214"/>
</g>
<!-- authconfig -->
<g id="node1" class="node">
<title>authconfig</title>
<text text-anchor="middle" x="1602.3" y="-321.29" font-family="monospace" font-size="14.00" fill="#000000">authconfig</text>
</g>
<!-- policycoreutils -->
<g id="node2" class="node">
<title>policycoreutils</title>
<text text-anchor="middle" x="1654.1" y="-210.8" font-family="monospace" font-size="14.00" fill="#000000">policycoreutils</text>
</g>
<!-- python3&#45;sssdconfig -->
<g id="node3" class="node">
<title>python3&#45;sssdconfig</title>
<text text-anchor="middle" x="1688.1" y="-365.31" font-family="monospace" font-size="14.00" fill="#000000">python3&#45;sssdconfig</text>
</g>
<!-- libselinux&#45;utils -->
<g id="node4" class="node">
<title>libselinux&#45;utils</title>
<text text-anchor="middle" x="1649.7" y="-121.88" font-family="monospace" font-size="14.00" fill="#000000">libselinux&#45;utils</text>
</g>
<!-- curl&#45;minimal -->
<g id="node5" class="node">
<title>curl&#45;minimal</title>
<text text-anchor="middle" x="976.06" y="-375.62" font-family="monospace" font-size="14.00" fill="#000000">curl&#45;minimal</text>
</g>
<!-- libcurl&#45;minimal -->
<g id="node6" class="node">
<title>libcurl&#45;minimal</title>
<text text-anchor="middle" x="1083.5" y="-516.51" font-family="monospace" font-size="14.00" fill="#000000">libcurl&#45;minimal</text>
</g>
<!-- device&#45;mapper&#45;multipath -->
<g id="node7" class="node">
<title>device&#45;mapper&#45;multipath</title>
<text text-anchor="middle" x="419.12" y="-669.14" font-family="monospace" font-size="14.00" fill="#000000">device&#45;mapper&#45;multipath</text>
</g>
<!-- device&#45;mapper&#45;multipath&#45;libs -->
<g id="node8" class="node">
<title>device&#45;mapper&#45;multipath&#45;libs</title>
<text text-anchor="middle" x="161.19" y="-732.95" font-family="monospace" font-size="14.00" fill="#000000">device&#45;mapper&#45;multipath&#45;libs</text>
</g>
<!-- initscripts -->
<g id="node9" class="node">
<title>initscripts</title>
<text text-anchor="middle" x="334.53" y="-453.69" font-family="monospace" font-size="14.00" fill="#000000">initscripts</text>
</g>
<!-- kpartx -->
<g id="node10" class="node">
<title>kpartx</title>
<text text-anchor="middle" x="373.29" y="-762.22" font-family="monospace" font-size="14.00" fill="#000000">kpartx</text>
</g>
<!-- userspace&#45;rcu -->
<g id="node11" class="node">
<title>userspace&#45;rcu</title>
<text text-anchor="middle" x="196.45" y="-677.7" font-family="monospace" font-size="14.00" fill="#000000">userspace&#45;rcu</text>
</g>
<!-- libaio -->
<g id="node12" class="node">
<title>libaio</title>
<text text-anchor="middle" x="113.43" y="-817.16" font-family="monospace" font-size="14.00" fill="#000000">libaio</text>
</g>
<!-- hostname -->
<g id="node13" class="node">
<title>hostname</title>
<text text-anchor="middle" x="225.12" y="-409.67" font-family="monospace" font-size="14.00" fill="#000000">hostname</text>
</g>
<!-- fcoe&#45;utils -->
<g id="node14" class="node">
<title>fcoe&#45;utils</title>
<text text-anchor="middle" x="578.19" y="-809.9" font-family="monospace" font-size="14.00" fill="#000000">fcoe&#45;utils</text>
</g>
<!-- libpciaccess -->
<g id="node15" class="node">
<title>libpciaccess</title>
<text text-anchor="middle" x="524.08" y="-948.01" font-family="monospace" font-size="14.00" fill="#000000">libpciaccess</text>
</g>
<!-- lldpad -->
<g id="node16" class="node">
<title>lldpad</title>
<text text-anchor="middle" x="790.74" y="-849.28" font-family="monospace" font-size="14.00" fill="#000000">lldpad</text>
</g>
<!-- hwdata -->
<g id="node17" class="node">
<title>hwdata</title>
<text text-anchor="middle" x="502.4" y="-1057.4" font-family="monospace" font-size="14.00" fill="#000000">hwdata</text>
</g>
<!-- libnl3 -->
<g id="node18" class="node">
<title>libnl3</title>
<text text-anchor="middle" x="1024.8" y="-835.09" font-family="monospace" font-size="14.00" fill="#000000">libnl3</text>
</g>
<!-- libconfig -->
<g id="node19" class="node">
<title>libconfig</title>
<text text-anchor="middle" x="765.97" y="-950.51" font-family="monospace" font-size="14.00" fill="#000000">libconfig</text>
</g>
<!-- firewalld -->
<g id="node20" class="node">
<title>firewalld</title>
<text text-anchor="middle" x="2170.3" y="-1308.3" font-family="monospace" font-size="14.00" fill="#000000">firewalld</text>
</g>
<!-- ebtables -->
<g id="node21" class="node">
<title>ebtables</title>
<text text-anchor="middle" x="2299.8" y="-1496.4" font-family="monospace" font-size="14.00" fill="#000000">ebtables</text>
</g>
<!-- firewalld&#45;filesystem -->
<g id="node22" class="node">
<title>firewalld&#45;filesystem</title>
<text text-anchor="middle" x="2119.6" y="-1503.7" font-family="monospace" font-size="14.00" fill="#000000">firewalld&#45;filesystem</text>
</g>
<!-- ipset -->
<g id="node23" class="node">
<title>ipset</title>
<text text-anchor="middle" x="2189.4" y="-1008.3" font-family="monospace" font-size="14.00" fill="#000000">ipset</text>
</g>
<!-- python3&#45;firewall -->
<g id="node24" class="node">
<title>python3&#45;firewall</title>
<text text-anchor="middle" x="1941.4" y="-1246.8" font-family="monospace" font-size="14.00" fill="#000000">python3&#45;firewall</text>
</g>
<!-- ipset&#45;libs -->
<g id="node25" class="node">
<title>ipset&#45;libs</title>
<text text-anchor="middle" x="2071.6" y="-842.3" font-family="monospace" font-size="14.00" fill="#000000">ipset&#45;libs</text>
</g>
<!-- python3&#45;dbus -->
<g id="node26" class="node">
<title>python3&#45;dbus</title>
<text text-anchor="middle" x="1790.1" y="-1420.9" font-family="monospace" font-size="14.00" fill="#000000">python3&#45;dbus</text>
</g>
<!-- python3&#45;decorator -->
<g id="node27" class="node">
<title>python3&#45;decorator</title>
<text text-anchor="middle" x="1781.9" y="-1115.3" font-family="monospace" font-size="14.00" fill="#000000">python3&#45;decorator</text>
</g>
<!-- python3&#45;gobject&#45;base -->
<g id="node28" class="node">
<title>python3&#45;gobject&#45;base</title>
<text text-anchor="middle" x="2208.5" y="-1165.3" font-family="monospace" font-size="14.00" fill="#000000">python3&#45;gobject&#45;base</text>
</g>
<!-- python3&#45;slip&#45;dbus -->
<g id="node29" class="node">
<title>python3&#45;slip&#45;dbus</title>
<text text-anchor="middle" x="1682.5" y="-1264.1" font-family="monospace" font-size="14.00" fill="#000000">python3&#45;slip&#45;dbus</text>
</g>
<!-- dbus&#45;glib -->
<g id="node30" class="node">
<title>dbus&#45;glib</title>
<text text-anchor="middle" x="1816.8" y="-1607" font-family="monospace" font-size="14.00" fill="#000000">dbus&#45;glib</text>
</g>
<!-- python3&#45;slip -->
<g id="node31" class="node">
<title>python3&#45;slip</title>
<text text-anchor="middle" x="1446.8" y="-1277.2" font-family="monospace" font-size="14.00" fill="#000000">python3&#45;slip</text>
</g>
<!-- iscsi&#45;initiator&#45;utils -->
<g id="node32" class="node">
<title>iscsi&#45;initiator&#45;utils</title>
<text text-anchor="middle" x="1394.7" y="-14.304" font-family="monospace" font-size="14.00" fill="#000000">iscsi&#45;initiator&#45;utils</text>
</g>
<!-- iscsi&#45;initiator&#45;utils&#45;iscsiuio -->
<g id="node33" class="node">
<title>iscsi&#45;initiator&#45;utils&#45;iscsiuio</title>
<text text-anchor="middle" x="1091.6" y="-14.3" font-family="monospace" font-size="14.00" fill="#000000">iscsi&#45;initiator&#45;utils&#45;iscsiuio</text>
</g>
<!-- isns&#45;utils&#45;libs -->
<g id="node34" class="node">
<title>isns&#45;utils&#45;libs</title>
<text text-anchor="middle" x="1698.5" y="-14.3" font-family="monospace" font-size="14.00" fill="#000000">isns&#45;utils&#45;libs</text>
</g>
<!-- libnl3&#45;cli -->
<g id="node35" class="node">
<title>libnl3&#45;cli</title>
<text text-anchor="middle" x="1055.5" y="-911.52" font-family="monospace" font-size="14.00" fill="#000000">libnl3&#45;cli</text>
</g>
<!-- libproxy -->
<g id="node36" class="node">
<title>libproxy</title>
<text text-anchor="middle" x="1008.2" y="-658.3" font-family="monospace" font-size="14.00" fill="#000000">libproxy</text>
</g>
<!-- libmodman -->
<g id="node37" class="node">
<title>libmodman</title>
<text text-anchor="middle" x="887.14" y="-658.3" font-family="monospace" font-size="14.00" fill="#000000">libmodman</text>
</g>
<!-- libpsl -->
<g id="node38" class="node">
<title>libpsl</title>
<text text-anchor="middle" x="1339" y="-707.23" font-family="monospace" font-size="14.00" fill="#000000">libpsl</text>
</g>
<!-- publicsuffix&#45;list&#45;dafsa -->
<g id="node39" class="node">
<title>publicsuffix&#45;list&#45;dafsa</title>
<text text-anchor="middle" x="1523.8" y="-742.81" font-family="monospace" font-size="14.00" fill="#000000">publicsuffix&#45;list&#45;dafsa</text>
</g>
<!-- libteam -->
<g id="node40" class="node">
<title>libteam</title>
<text text-anchor="middle" x="1048.4" y="-956.7" font-family="monospace" font-size="14.00" fill="#000000">libteam</text>
</g>
<!-- mariadb&#45;common -->
<g id="node41" class="node">
<title>mariadb&#45;common</title>
<text text-anchor="middle" x="717.87" y="-201.83" font-family="monospace" font-size="14.00" fill="#000000">mariadb&#45;common</text>
</g>
<!-- mariadb&#45;config -->
<g id="node42" class="node">
<title>mariadb&#45;config</title>
<text text-anchor="middle" x="856.79" y="-266.94" font-family="monospace" font-size="14.00" fill="#000000">mariadb&#45;config</text>
</g>
<!-- mariadb&#45;libs -->
<g id="node43" class="node">
<title>mariadb&#45;libs</title>
<text text-anchor="middle" x="548.64" y="-194.84" font-family="monospace" font-size="14.00" fill="#000000">mariadb&#45;libs</text>
</g>
<!-- net&#45;snmp&#45;agent&#45;libs -->
<g id="node44" class="node">
<title>net&#45;snmp&#45;agent&#45;libs</title>
<text text-anchor="middle" x="404.33" y="-150.32" font-family="monospace" font-size="14.00" fill="#000000">net&#45;snmp&#45;agent&#45;libs</text>
</g>
<!-- lm_sensors&#45;libs -->
<g id="node45" class="node">
<title>lm_sensors&#45;libs</title>
<text text-anchor="middle" x="192.8" y="-175.07" font-family="monospace" font-size="14.00" fill="#000000">lm_sensors&#45;libs</text>
</g>
<!-- net&#45;snmp&#45;libs -->
<g id="node46" class="node">
<title>net&#45;snmp&#45;libs</title>
<text text-anchor="middle" x="331.83" y="-106.3" font-family="monospace" font-size="14.00" fill="#000000">net&#45;snmp&#45;libs</text>
</g>
<!-- net&#45;snmp -->
<g id="node47" class="node">
<title>net&#45;snmp</title>
<text text-anchor="middle" x="339.25" y="-249.6" font-family="monospace" font-size="14.00" fill="#000000">net&#45;snmp</text>
</g>
<!-- NetworkManager -->
<g id="node48" class="node">
<title>NetworkManager</title>
<text text-anchor="middle" x="1198.3" y="-682.63" font-family="monospace" font-size="14.00" fill="#000000">NetworkManager</text>
</g>
<!-- jansson -->
<g id="node49" class="node">
<title>jansson</title>
<text text-anchor="middle" x="1204.9" y="-819.85" font-family="monospace" font-size="14.00" fill="#000000">jansson</text>
</g>
<!-- libndp -->
<g id="node50" class="node">
<title>libndp</title>
<text text-anchor="middle" x="1248.6" y="-605.71" font-family="monospace" font-size="14.00" fill="#000000">libndp</text>
</g>
<!-- NetworkManager&#45;libnm -->
<g id="node51" class="node">
<title>NetworkManager&#45;libnm</title>
<text text-anchor="middle" x="1255.4" y="-772.81" font-family="monospace" font-size="14.00" fill="#000000">NetworkManager&#45;libnm</text>
</g>
<!-- polkit&#45;libs -->
<g id="node52" class="node">
<title>polkit&#45;libs</title>
<text text-anchor="middle" x="1361.1" y="-551.18" font-family="monospace" font-size="14.00" fill="#000000">polkit&#45;libs</text>
</g>
<!-- libselinux&#45;python3 -->
<g id="node53" class="node">
<title>libselinux&#45;python3</title>
<text text-anchor="middle" x="1303.2" y="-1173.2" font-family="monospace" font-size="14.00" fill="#000000">libselinux&#45;python3</text>
</g>
<!-- realmd -->
<g id="node54" class="node">
<title>realmd</title>
<text text-anchor="middle" x="1506.1" y="-436.98" font-family="monospace" font-size="14.00" fill="#000000">realmd</text>
</g>
<!-- teamd -->
<g id="node55" class="node">
<title>teamd</title>
<text text-anchor="middle" x="1165.6" y="-928.18" font-family="monospace" font-size="14.00" fill="#000000">teamd</text>
</g>
<!-- libdaemon -->
<g id="node56" class="node">
<title>libdaemon</title>
<text text-anchor="middle" x="1208.6" y="-1044.3" font-family="monospace" font-size="14.00" fill="#000000">libdaemon</text>
</g>
</g>
</svg>
