<?xml version="1.0" encoding="UTF-8" standalone="no"?>
<!DOCTYPE svg PUBLIC "-//W3C//DTD SVG 1.1//EN"
 "http://www.w3.org/Graphics/SVG/1.1/DTD/svg11.dtd">
<!-- Generated by graphviz version 2.40.1 (20161225.0304)
 -->
<!-- Title: G Pages: 1 -->
<svg width="2089pt" height="1488pt"
 viewBox="0.00 0.00 2088.89 1488.23" xmlns="http://www.w3.org/2000/svg" xmlns:xlink="http://www.w3.org/1999/xlink">
<g id="graph0" class="graph" transform="scale(1 1) rotate(0) translate(131.1893 1309.083)">
<title>G</title>
<polygon fill="#dae2ff" stroke="transparent" points="-131.1893,179.1469 -131.1893,-1309.083 1957.7051,-1309.083 1957.7051,179.1469 -131.1893,179.1469"/>
<polygon fill="#fed9a6" stroke="#fed9a6" points="777.2606,-482.236 778.4691,-484.0511 803.1309,-522.9899 816.4371,-530.8815 823.7783,-534.9994 831.9722,-539.0718 841.9163,-543.084 851.1645,-546.5273 857.1619,-548.5706 873.8757,-553.2159 874.4802,-553.3453 876.085,-553.639 917.2006,-559.8862 917.2884,-553.8877 912.9268,-468.3734 916.7983,-464.2484 916.2543,-461.6733 916.385,-461.0157 918.4142,-459.2607 923.4152,-457.808 923.4152,-457.808 918.4142,-459.2607 916.385,-461.0157 916.2543,-461.6733 916.7983,-464.2484 912.9268,-468.3734 917.2884,-553.8877 917.2006,-559.8862 934.0155,-564.0459 955.7009,-570.7779 985.1574,-563.3996 999.9448,-559.285 1000.2531,-559.1909 1012.122,-554.9102 1015.0323,-553.7 1006.9852,-473.0179 1006.4031,-462.6732 1005.8922,-457.59 1005.6977,-442.1087 998.4297,-369.2369 1047.7773,-342.6002 1080.348,-345.2486 1082.6794,-345.306 1091.9347,-345.2712 1093.39,-345.3486 1101.1335,-345.5399 1102.5364,-345.4947 1109.3947,-345.4688 1115.4867,-345.2722 1122.7482,-345.6582 1124.8771,-345.7107 1125.1959,-246.5398 1130.2252,-243.6516 1131.7635,-241.8405 1131.4767,-241.5056 1131.4767,-241.5056 1131.7635,-241.8405 1130.2252,-243.6516 1125.1959,-246.5398 1124.8771,-345.7107 1134.5977,-346.2263 1141.0726,-346.753 1141.1376,-314.7119 1140.4493,-297.4683 1140.4493,-297.4683 1141.1376,-314.7119 1141.0726,-346.753 1154.567,-348.9996 1324.8887,-382.1638 1371.5088,-362.299 1439.0353,-373.3463 1475.0372,-365.0192 1475.5107,-364.096 1547.1885,-166.162 1552.4896,-109.65 1398.9878,-109.65 1377.1622,-103.1472 1371.1851,-106.834 1369.4503,-109.3153 1366.5179,-109.3153 1366.3567,-109.3641 1366.3439,-176.381 1368.0142,-212.6557 1371.9174,-113.0452 1371.9174,-113.0452 1368.0142,-212.6557 1366.3439,-176.381 1360.1957,-109.7542 1355.0753,-109.7542 1354.9653,-109.7864 1351.1718,-109.7864 1351.1217,-109.8012 1342.8755,-199.5032 1342.2379,-210.3698 1339.3177,-109.5961 1338.8411,-109.4537 1334.6411,-109.4537 1332.1235,-163.8832 1328.2349,-109.7972 1323.7843,-109.7972 1321.4963,-184.2618 1317.8718,-113.1841 1313.2434,-114.5264 1307.4974,-112.7474 1306.9258,-172.4365 1304.8833,-206.8593 1301.6274,-154.334 1295.5289,-109.7365 1291.2599,-109.7365 1291.0768,-109.7898 1286.693,-109.7898 1283.4824,-153.362 1283.4824,-153.362 1286.693,-109.7898 1291.0768,-109.7898 1291.2599,-109.7365 1295.5289,-109.7365 1301.6274,-154.334 1304.8833,-206.8593 1306.9258,-172.4365 1307.4974,-112.7474 1313.2434,-114.5264 1317.8718,-113.1841 1321.6847,-109.7656 1317.4954,-105.9101 1313.2222,-104.692 1313.2222,-104.692 1317.4954,-105.9101 1321.6847,-109.7656 1317.8718,-113.1841 1321.4963,-184.2618 1323.7843,-109.7972 1328.2349,-109.7972 1332.1235,-163.8832 1334.6411,-109.4537 1338.8411,-109.4537 1339.3177,-109.5961 1342.2379,-210.3698 1342.8755,-199.5032 1351.1217,-109.8012 1351.1718,-109.7864 1354.9653,-109.7864 1355.0753,-109.7542 1360.1957,-109.7542 1366.3439,-176.381 1366.3567,-109.3641 1366.5179,-109.3153 1369.4503,-109.3153 1371.1851,-106.834 1377.1622,-103.1472 1398.9878,-109.65 1552.4896,-109.65 1555.7665,-87.3014 1516.7411,8.5909 1424.126,79.1675 1421.9999,83.0291 1398.4691,110.6459 1254.3623,155.9592 1248.7056,157.9418 1224.6797,167.6842 1208.4414,175.1469 1208.0601,175.09 1198.1129,174.0495 1177.4994,172.8051 1172.5471,172.6526 1170.1759,171.8805 1161.5104,169.3403 1145.1942,165.0859 1138.9725,163.7671 1116.8712,159.4402 1056.6201,148.637 980.026,109.0546 993.163,6.2283 993.7578,-1.003 1000.4711,-64.1279 1129.7856,-22.9212 1131.5576,-20.646 1136.0209,-19.2968 1137.9264,-17.8989 1139.9817,-17.8989 1140.0933,-17.9322 1140.0933,-17.9322 1139.9817,-17.8989 1137.9264,-17.8989 1136.0209,-19.2968 1131.5576,-20.646 1129.7856,-22.9212 1000.4711,-64.1279 993.7578,-1.003 993.163,6.2283 980.026,109.0546 904.1107,131.8093 865.8757,126.1742 864.4943,125.993 847.4012,124.0279 847.3329,117.5228 845.8005,82.7663 842.8763,-46.7633 837.0786,-50.1823 836.3935,-50.9603 838.1675,-53.106 842.6091,-55.6734 842.6091,-55.6734 838.1675,-53.106 836.3935,-50.9603 837.0786,-50.1823 842.8763,-46.7633 845.8005,82.7663 847.3329,117.5228 847.4012,124.0279 822.7447,122.796 827.3793,10.9315 827.3793,10.9315 822.7447,122.796 803.7489,122.4654 680.6635,79.6305 664.1282,66.234 637.7735,-25.3551 610.5052,-109.7604 574.6351,-215.6682 614.4003,-288.4533 620.9089,-290.7997 640.9389,-280.7827 912.5032,-261.4642 929.8665,-263.7192 935.3033,-259.2912 937.0209,-359.8595 939.9072,-359.8706 945.4725,-360.0522 953.5369,-360.5472 953.688,-341.8434 957.1885,-261.7003 962.1705,-258.631 963.4116,-257.0733 962.3076,-255.7967 957.7039,-253.1515 957.7039,-253.1515 962.3076,-255.7967 963.4116,-257.0733 962.1705,-258.631 957.1885,-261.7003 953.688,-341.8434 953.5369,-360.5472 945.4725,-360.0522 939.9072,-359.8706 937.0209,-359.8595 935.3033,-259.2912 929.8665,-263.7192 912.5032,-261.4642 640.9389,-280.7827 620.9089,-290.7997 627.0309,-296.2827 651.6917,-317.5906 657.754,-322.728 678.0555,-338.2964 682.6414,-345.8482 709.2668,-385.7525 725.3412,-407.9671 777.2606,-482.236 777.2606,-482.236"/>
<polygon fill="#bbd7d9" stroke="#bbd7d9" points="937.5376,-1106.4579 935.4549,-1105.8788 930.6932,-1104.6257 778.7755,-1032.4775 750.3902,-986.5794 787.9138,-921.9373 814.961,-870.3852 855.1895,-788.5058 859.5054,-787.192 873.5128,-783.2485 873.6172,-783.2239 877.7653,-782.3426 910.1654,-776.1959 929.1478,-781.4148 951.3524,-786.3888 967.5017,-788.3389 975.9209,-788.9216 980.187,-789.107 985.9148,-789.2084 989.03,-681.4802 993.914,-676.7606 994.4289,-675.7737 998.6384,-675.7737 999.3071,-676.5795 1005.5032,-680.413 1010.0178,-680.413 1010.0178,-680.413 1005.5032,-680.413 999.3071,-676.5795 998.6384,-675.7737 994.4289,-675.7737 993.914,-676.7606 989.03,-681.4802 985.9148,-789.2084 980.187,-789.107 975.9209,-788.9216 967.5017,-788.3389 951.3524,-786.3888 929.1478,-781.4148 910.1654,-776.1959 931.821,-687.0645 933.6619,-677.1166 935.3705,-663.5494 935.7747,-657.429 939.4071,-637.8409 955.7009,-570.7779 985.1574,-563.3996 999.9448,-559.285 1000.2531,-559.1909 1012.122,-554.9102 1015.0323,-553.7 1006.9852,-473.0179 1006.4031,-462.6732 1005.8922,-457.59 1005.6977,-442.1087 998.4297,-369.2369 1047.7773,-342.6002 1080.348,-345.2486 1080.3456,-351.909 1080.3456,-351.909 1080.348,-345.2486 1082.6794,-345.306 1091.9347,-345.2712 1093.39,-345.3486 1093.7351,-444.3216 1088.797,-447.1633 1087.1464,-449.131 1087.9399,-450.0482 1094.0355,-453.6794 1099.0663,-453.6794 1104.134,-450.7767 1109.0638,-569.7435 1109.8527,-451.0449 1115.0732,-455.1864 1119.0656,-577.3812 1124.7727,-572.6976 1241.7239,-471.3537 1242.3077,-470.8253 1245.573,-604.106 1246.6866,-605.0549 1250.142,-605.0549 1250.6737,-605.2122 1255.212,-605.2122 1259.6049,-648.8829 1261.8457,-606.5195 1266.8832,-609.4759 1272.144,-609.4759 1277.9036,-606.1077 1278.8046,-605.0807 1278.0431,-604.1721 1278.0431,-604.1721 1278.8046,-605.0807 1277.9036,-606.1077 1272.144,-609.4759 1266.8832,-609.4759 1261.8457,-606.5195 1259.6049,-648.8829 1255.212,-605.2122 1250.6737,-605.2122 1250.142,-605.0549 1246.6866,-605.0549 1245.573,-604.106 1242.3077,-470.8253 1241.7239,-471.3537 1124.7727,-572.6976 1119.0656,-577.3812 1115.0732,-455.1864 1109.8527,-451.0449 1109.0638,-569.7435 1104.134,-450.7767 1099.0663,-453.6794 1094.0355,-453.6794 1087.9399,-450.0482 1087.1464,-449.131 1088.797,-447.1633 1093.7351,-444.3216 1093.39,-345.3486 1101.1335,-345.5399 1102.5364,-345.4947 1109.3947,-345.4688 1115.4867,-345.2722 1122.7482,-345.6582 1124.8771,-345.7107 1134.5977,-346.2263 1141.0726,-346.753 1154.567,-348.9996 1324.8887,-382.1638 1371.5088,-362.299 1439.0353,-373.3463 1475.0372,-365.0192 1497.252,-380.7348 1513.7456,-391.8725 1525.1088,-398.9922 1541.7157,-409.1271 1544.5963,-410.8369 1570.0491,-424.2842 1671.6732,-472.9265 1697.0796,-475.1119 1721.5441,-476.4826 1731.1538,-476.5869 1744.8311,-476.3237 1752.0293,-478.5315 1753.146,-478.8555 1769.7979,-482.6071 1786.8628,-485.6233 1792.7991,-486.5757 1888.7567,-500.4086 1905.2535,-508.5351 1936.199,-541.5148 1948.1328,-608.3367 1953.7051,-636.4101 1949.2957,-691.5655 1946.6226,-755.7237 1870.4552,-818.3312 1783.4063,-832.4835 1776.541,-833.8369 1775.8181,-805.9669 1777.8394,-663.7869 1777.8394,-663.7869 1775.8181,-805.9669 1776.541,-833.8369 1763.6149,-837.061 1755.5482,-839.2134 1742.5743,-843.1268 1731.7101,-846.7806 1730.766,-846.6867 1732.0297,-695.6617 1736.027,-663.7529 1735.3108,-663.5408 1735.3108,-663.5408 1736.027,-663.7529 1732.0297,-695.6617 1730.766,-846.6867 1722.1378,-846.0961 1721.5919,-694.8143 1721.5919,-694.8143 1722.1378,-846.0961 1710.3744,-845.6556 1691.5664,-845.5348 1657.9763,-845.8396 1601.4358,-827.9433 1571.4191,-829.5703 1562.562,-830.3118 1552.8253,-831.2708 1544.6677,-832.1945 1535.7584,-833.4657 1521.8744,-835.8564 1514.4258,-837.3579 1487.3652,-844.0147 1419.8164,-861.6108 1404.6383,-923.32 1402.03,-936.3298 1466.0652,-1122.2 1472.3401,-1137.6708 1437.8348,-1209.1582 1366.1277,-1299.7853 1296.6062,-1299.2268 1289.2048,-1299.2854 1285.4861,-1299.3743 1277.5084,-1299.8196 1273.9221,-1126.813 1278.9055,-1126.813 1285.3115,-1122.8352 1285.8401,-1122.2058 1285.0472,-1121.2606 1279.4718,-1117.8597 1279.4718,-1117.8597 1285.0472,-1121.2606 1285.8401,-1122.2058 1285.3115,-1122.8352 1278.9055,-1126.813 1273.9221,-1126.813 1277.5084,-1299.8196 1260.6698,-1301.0289 1257.8734,-1301.3188 1226.4055,-1305.083 1170.3125,-1293.1423 1125.6587,-1266.3529 1026.8827,-1148.1222 1024.7916,-1141.8528 1009.0002,-1134.1617 1003.0444,-1131.437 995.6973,-903.0605 995.9553,-902.9829 1000.369,-902.9829 1004.6856,-940.5798 1006.9758,-907.9736 1080.3384,-924.1957 1077.5856,-951.0313 1156.416,-928.3935 1158.6792,-925.4998 1162.1517,-924.1459 1163.54,-922.9637 1166.4197,-922.9637 1167.6708,-924.5273 1172.8724,-927.7205 1172.8724,-927.7205 1167.6708,-924.5273 1166.4197,-922.9637 1166.5181,-922.8501 1166.5181,-922.8501 1166.4197,-922.9637 1163.54,-922.9637 1162.4177,-921.205 1162.4177,-921.205 1163.54,-922.9637 1162.1517,-924.1459 1158.6792,-925.4998 1156.416,-928.3935 1077.5856,-951.0313 1080.3384,-924.1957 1006.9758,-907.9736 1004.6856,-940.5798 1000.369,-902.9829 995.9553,-902.9829 995.6973,-903.0605 1003.0444,-1131.437 984.59,-1123.266 972.3348,-1118.2083 972.1309,-1038.5903 967.7832,-941.7713 962.9219,-905.4293 969.2928,-907.4243 974.5262,-905.8294 978.1406,-902.5368 974.415,-899.2349 969.4072,-897.7672 969.4072,-897.7672 974.415,-899.2349 978.1406,-902.5368 974.5262,-905.8294 969.2928,-907.4243 962.9219,-905.4293 967.7832,-941.7713 972.1309,-1038.5903 972.3348,-1118.2083 953.3442,-1111.5044 939.5103,-1107.0356 943.3578,-968.6592 943.3578,-968.6592 939.5103,-1107.0356 937.5376,-1106.4579 937.5376,-1106.4579"/>
<polygon fill="#fbb4ae" stroke="#fbb4ae" points="935.7747,-657.429 939.4071,-637.8409 955.7009,-570.7779 934.0155,-564.0459 917.2006,-559.8862 876.085,-553.639 874.4802,-553.3453 873.8757,-553.2159 857.1619,-548.5706 851.1645,-546.5273 849.5786,-650.8885 848.0992,-650.8885 844.337,-654.2988 839.1774,-655.8535 833.3188,-654.0422 836.7592,-713.2639 837.0451,-749.0699 827.4301,-651.4044 824.0079,-651.4044 819.4415,-689.6017 817.0398,-651.1063 816.9395,-651.0764 812.8945,-651.0764 806.1236,-744.9917 805.1279,-744.2863 807.0775,-651.0645 801.4183,-651.0645 801.3414,-651.1395 799.4271,-652.1223 796.0572,-656.1595 733.6224,-672.9411 747.0866,-644.2653 748.833,-639.7999 756.8312,-614.4139 761.1542,-603.2883 724.384,-603.8396 708.4414,-600.664 708.4414,-600.664 724.384,-603.8396 761.1542,-603.2883 756.8312,-614.4139 748.833,-639.7999 747.0866,-644.2653 733.6224,-672.9411 796.0572,-656.1595 799.4271,-652.1223 801.3414,-651.1395 801.4183,-651.0645 807.0775,-651.0645 805.1279,-744.2863 806.1236,-744.9917 812.8945,-651.0764 816.9395,-651.0764 817.0398,-651.1063 819.4415,-689.6017 824.0079,-651.4044 827.4301,-651.4044 837.0451,-749.0699 836.7592,-713.2639 833.3188,-654.0422 839.1774,-655.8535 844.337,-654.2988 848.0992,-650.8885 844.5068,-647.7535 839.4314,-646.2555 839.4314,-646.2555 844.5068,-647.7535 848.0992,-650.8885 849.5786,-650.8885 851.1645,-546.5273 841.9163,-543.084 831.9722,-539.0718 823.7783,-534.9994 816.4371,-530.8815 803.1309,-522.9899 778.4691,-484.0511 777.2606,-482.236 725.3412,-407.9671 709.2668,-385.7525 682.6414,-345.8482 678.0555,-338.2964 657.754,-322.728 651.6917,-317.5906 627.0309,-296.2827 620.9089,-290.7997 614.4003,-288.4533 589.3462,-319.8608 546.0264,-376.6211 519.1342,-497.983 503.8569,-574.5467 498.9572,-607.04 612.3384,-607.04 632.9188,-613.5579 638.4881,-610.2064 640.5787,-607.0513 640.8944,-606.8161 643.1913,-606.8161 645.6454,-644.9035 650.1805,-607.22 650.1805,-607.22 645.6454,-644.9035 643.1913,-606.8161 640.8944,-606.8161 640.5787,-607.0513 638.4881,-610.2064 632.9188,-613.5579 612.3384,-607.04 498.9572,-607.04 494.4537,-627.3637 481.9507,-634.369 372.7532,-692.5994 369.7828,-694.2614 365.7314,-696.7457 362.1706,-711.62 353.496,-762.9302 346.8755,-793.5121 323.7532,-890.1004 479.4024,-965.2633 485.7405,-968.4396 501.5443,-963.0235 511.7003,-960.2051 519.2158,-958.2413 519.9871,-777.541 525.0107,-777.541 531.5255,-773.5934 531.9188,-773.1423 530.5323,-771.4617 525.6698,-768.5626 525.6698,-768.5626 530.5323,-771.4617 531.9188,-773.1423 531.5255,-773.5934 525.0107,-777.541 519.9871,-777.541 519.2158,-958.2413 526.6175,-956.4277 544.9178,-952.5389 544.5891,-874.4007 542.785,-845.5086 542.785,-845.5086 544.5891,-874.4007 544.9178,-952.5389 566.9708,-949.291 580.027,-947.5823 647.0084,-956.5699 658.9079,-958.5704 675.9185,-961.7177 675.8998,-961.1365 674.1923,-854.5784 674.1923,-854.5784 675.8998,-961.1365 675.9185,-961.7177 676.4301,-961.8381 698.587,-967.8093 704.4382,-969.4839 718.3688,-974.1744 718.4882,-933.5611 720.5612,-840.3409 718.6279,-786.6649 718.6279,-786.6649 720.5612,-840.3409 718.4882,-933.5611 718.3688,-974.1744 750.3902,-986.5794 787.9138,-921.9373 814.961,-870.3852 855.1895,-788.5058 859.5054,-787.192 873.5128,-783.2485 873.6172,-783.2239 877.7653,-782.3426 910.1654,-776.1959 931.821,-687.0645 933.6619,-677.1166 935.3705,-663.5494 935.7747,-657.429 935.7747,-657.429"/>
<polygon fill="#d8d6da" stroke="#d8d6da" points="57,-623.0616 57.901,-578.6569 57.901,-578.6569 57,-623.0616 -63.5138,-669.922 -84.1832,-646.594 -111.7702,-538.478 -127.1893,-486.2113 -107.3962,-459.2521 -43.9916,-369.3524 9.9547,-337.2313 54.0399,-227.8693 123.1334,-179.2633 175.0639,-182.0882 184.4535,-182.4408 192.2559,-182.6022 198.9816,-182.6276 207.4777,-182.5161 216.2934,-182.2515 215.8215,-249.6312 221.0011,-350.5919 225.3778,-350.5919 228.5707,-405.0371 231.7919,-350.6473 235.4832,-350.6473 237.1706,-352.6614 241.6588,-355.2251 247.3338,-355.2251 247.3338,-355.2251 241.6588,-355.2251 237.1706,-352.6614 235.4832,-350.6473 235.9953,-350.0458 241.9913,-346.3587 247.6689,-346.3587 252.7761,-349.369 254.0601,-350.8754 256.8021,-350.8754 257.1334,-350.7757 263.4122,-350.7757 264.1281,-350.9983 268.3882,-350.9983 271.892,-425.2578 274.4699,-350.7552 274.4699,-350.7552 271.892,-425.2578 268.3882,-350.9983 264.1281,-350.9983 263.4122,-350.7757 257.1334,-350.7757 256.8021,-350.8754 254.0601,-350.8754 252.7761,-349.369 247.6689,-346.3587 241.9913,-346.3587 235.9953,-350.0458 235.4832,-350.6473 231.7919,-350.6473 228.5707,-405.0371 225.3778,-350.5919 221.0011,-350.5919 215.8215,-249.6312 216.2934,-182.2515 220.3838,-181.9216 240.0949,-179.9977 242.3207,-179.743 251.3883,-178.2466 259.8089,-176.7147 282.3148,-171.4744 283.6469,-171.525 295.9345,-171.2167 299.8029,-171.3476 313.2418,-171.3787 459.9823,-169.4077 574.6351,-215.6682 614.4003,-288.4533 589.3462,-319.8608 546.0264,-376.6211 519.1342,-497.983 503.8569,-574.5467 498.9572,-607.04 494.4537,-627.3637 481.9507,-634.369 372.7532,-692.5994 369.7828,-694.2614 365.7314,-696.7457 362.1706,-711.62 353.496,-762.9302 346.8755,-793.5121 323.7532,-890.1004 229.3624,-918.7611 226.786,-829.337 226.786,-829.337 229.3624,-918.7611 205.9593,-926.5652 205.1344,-926.8643 198.2515,-929.5649 196.904,-928.8149 184.372,-922.0492 162.893,-911.5387 163.3626,-861.2886 168.3066,-757.0951 173.2377,-716.2412 177.6703,-716.2412 183.1649,-712.8696 184.2938,-711.4515 183.7002,-710.7341 183.7002,-710.7341 184.2938,-711.4515 183.1649,-712.8696 177.6703,-716.2412 173.2377,-716.2412 168.3066,-757.0951 163.3626,-861.2886 162.893,-911.5387 160.9864,-910.735 137.3802,-901.1743 126.5843,-897.3524 33.501,-867.5433 -42.7738,-813.2157 -48.567,-768.5341 -61.4623,-681.2256 -63.5138,-669.922 57,-623.0616 74.7756,-617.714 75.9026,-617.4087 84.5772,-615.3156 89.7681,-614.3702 104.3873,-612.5653 101.9312,-516.6669 97.4539,-515.3802 97.4539,-515.3802 101.9312,-516.6669 104.3873,-612.5653 89.7681,-614.3702 84.5772,-615.3156 75.9026,-617.4087 74.7756,-617.714 57,-623.0616 57,-623.0616"/>
<polyline fill="none" stroke="#000000" points="1198.1129,174.0495 1177.4994,172.8051 1172.5471,172.6526 1170.1759,171.8805 1161.5104,169.3403 1145.1942,165.0859 1138.9725,163.7671 1116.8712,159.4402 1056.6201,148.637 980.026,109.0546 904.1107,131.8093 865.8757,126.1742 864.4943,125.993 847.4012,124.0279 822.7447,122.796 803.7489,122.4654 680.6635,79.6305 664.1282,66.234 637.7735,-25.3551 610.5052,-109.7604 574.6351,-215.6682 614.4003,-288.4533 620.9089,-290.7997 627.0309,-296.2827 651.6917,-317.5906 657.754,-322.728 678.0555,-338.2964 682.6414,-345.8482 709.2668,-385.7525 725.3412,-407.9671 777.2606,-482.236 778.4691,-484.0511 803.1309,-522.9899 816.4371,-530.8815 823.7783,-534.9994 831.9722,-539.0718 841.9163,-543.084 851.1645,-546.5273 857.1619,-548.5706 873.8757,-553.2159 874.4802,-553.3453 876.085,-553.639 917.2006,-559.8862 934.0155,-564.0459 955.7009,-570.7779 985.1574,-563.3996 999.9448,-559.285 1000.2531,-559.1909 1012.122,-554.9102 1015.0323,-553.7 1006.9852,-473.0179 1006.4031,-462.6732 1005.8922,-457.59 1005.6977,-442.1087 998.4297,-369.2369 1047.7773,-342.6002 1080.348,-345.2486 1082.6794,-345.306 1091.9347,-345.2712 1093.39,-345.3486 1101.1335,-345.5399 1102.5364,-345.4947 1109.3947,-345.4688 1115.4867,-345.2722 1122.7482,-345.6582 1124.8771,-345.7107 1134.5977,-346.2263 1141.0726,-346.753 1154.567,-348.9996 1324.8887,-382.1638 1371.5088,-362.299 1439.0353,-373.3463 1475.0372,-365.0192 1475.5107,-364.096 1547.1885,-166.162 1552.4896,-109.65 1555.7665,-87.3014 1516.7411,8.5909 1424.126,79.1675 1421.9999,83.0291 1398.4691,110.6459 1254.3623,155.9592 1248.7056,157.9418 1224.6797,167.6842 1208.4414,175.1469 1208.0601,175.09 1198.1129,174.0495 "/>
<polyline fill="none" stroke="#000000" points="1521.8744,-835.8564 1514.4258,-837.3579 1487.3652,-844.0147 1419.8164,-861.6108 1404.6383,-923.32 1402.03,-936.3298 1466.0652,-1122.2 1472.3401,-1137.6708 1437.8348,-1209.1582 1366.1277,-1299.7853 1296.6062,-1299.2268 1289.2048,-1299.2854 1285.4861,-1299.3743 1277.5084,-1299.8196 1260.6698,-1301.0289 1257.8734,-1301.3188 1226.4055,-1305.083 1170.3125,-1293.1423 1125.6587,-1266.3529 1026.8827,-1148.1222 1024.7916,-1141.8528 1009.0002,-1134.1617 1003.0444,-1131.437 984.59,-1123.266 972.3348,-1118.2083 953.3442,-1111.5044 939.5103,-1107.0356 937.5376,-1106.4579 935.4549,-1105.8788 930.6932,-1104.6257 778.7755,-1032.4775 750.3902,-986.5794 787.9138,-921.9373 814.961,-870.3852 855.1895,-788.5058 859.5054,-787.192 873.5128,-783.2485 873.6172,-783.2239 877.7653,-782.3426 910.1654,-776.1959 931.821,-687.0645 933.6619,-677.1166 935.3705,-663.5494 935.7747,-657.429 939.4071,-637.8409 955.7009,-570.7779 985.1574,-563.3996 999.9448,-559.285 1000.2531,-559.1909 1012.122,-554.9102 1015.0323,-553.7 1006.9852,-473.0179 1006.4031,-462.6732 1005.8922,-457.59 1005.6977,-442.1087 998.4297,-369.2369 1047.7773,-342.6002 1080.348,-345.2486 1082.6794,-345.306 1091.9347,-345.2712 1093.39,-345.3486 1101.1335,-345.5399 1102.5364,-345.4947 1109.3947,-345.4688 1115.4867,-345.2722 1122.7482,-345.6582 1124.8771,-345.7107 1134.5977,-346.2263 1141.0726,-346.753 1154.567,-348.9996 1324.8887,-382.1638 1371.5088,-362.299 1439.0353,-373.3463 1475.0372,-365.0192 1497.252,-380.7348 1513.7456,-391.8725 1525.1088,-398.9922 1541.7157,-409.1271 1544.5963,-410.8369 1570.0491,-424.2842 1671.6732,-472.9265 1697.0796,-475.1119 1721.5441,-476.4826 1731.1538,-476.5869 1744.8311,-476.3237 1752.0293,-478.5315 1753.146,-478.8555 1769.7979,-482.6071 1786.8628,-485.6233 1792.7991,-486.5757 1888.7567,-500.4086 1905.2535,-508.5351 1936.199,-541.5148 1948.1328,-608.3367 1953.7051,-636.4101 1949.2957,-691.5655 1946.6226,-755.7237 1870.4552,-818.3312 1783.4063,-832.4835 1776.541,-833.8369 1763.6149,-837.061 1755.5482,-839.2134 1742.5743,-843.1268 1731.7101,-846.7806 1730.766,-846.6867 1722.1378,-846.0961 1710.3744,-845.6556 1691.5664,-845.5348 1657.9763,-845.8396 1601.4358,-827.9433 1571.4191,-829.5703 1562.562,-830.3118 1552.8253,-831.2708 1544.6677,-832.1945 1535.7584,-833.4657 1521.8744,-835.8564 "/>
<polyline fill="none" stroke="#000000" points="657.754,-322.728 651.6917,-317.5906 627.0309,-296.2827 620.9089,-290.7997 614.4003,-288.4533 589.3462,-319.8608 546.0264,-376.6211 519.1342,-497.983 503.8569,-574.5467 498.9572,-607.04 494.4537,-627.3637 481.9507,-634.369 372.7532,-692.5994 369.7828,-694.2614 365.7314,-696.7457 362.1706,-711.62 353.496,-762.9302 346.8755,-793.5121 323.7532,-890.1004 479.4024,-965.2633 485.7405,-968.4396 501.5443,-963.0235 511.7003,-960.2051 519.2158,-958.2413 526.6175,-956.4277 544.9178,-952.5389 566.9708,-949.291 580.027,-947.5823 647.0084,-956.5699 658.9079,-958.5704 675.9185,-961.7177 676.4301,-961.8381 698.587,-967.8093 704.4382,-969.4839 718.3688,-974.1744 750.3902,-986.5794 787.9138,-921.9373 814.961,-870.3852 855.1895,-788.5058 859.5054,-787.192 873.5128,-783.2485 873.6172,-783.2239 877.7653,-782.3426 910.1654,-776.1959 931.821,-687.0645 933.6619,-677.1166 935.3705,-663.5494 935.7747,-657.429 939.4071,-637.8409 955.7009,-570.7779 934.0155,-564.0459 917.2006,-559.8862 876.085,-553.639 874.4802,-553.3453 873.8757,-553.2159 857.1619,-548.5706 851.1645,-546.5273 841.9163,-543.084 831.9722,-539.0718 823.7783,-534.9994 816.4371,-530.8815 803.1309,-522.9899 778.4691,-484.0511 777.2606,-482.236 725.3412,-407.9671 709.2668,-385.7525 682.6414,-345.8482 678.0555,-338.2964 657.754,-322.728 "/>
<polyline fill="none" stroke="#000000" points="365.7314,-696.7457 369.7828,-694.2614 372.7532,-692.5994 481.9507,-634.369 494.4537,-627.3637 498.9572,-607.04 503.8569,-574.5467 519.1342,-497.983 546.0264,-376.6211 589.3462,-319.8608 614.4003,-288.4533 574.6351,-215.6682 459.9823,-169.4077 313.2418,-171.3787 299.8029,-171.3476 295.9345,-171.2167 283.6469,-171.525 282.3148,-171.4744 259.8089,-176.7147 251.3883,-178.2466 242.3207,-179.743 240.0949,-179.9977 220.3838,-181.9216 216.2934,-182.2515 207.4777,-182.5161 198.9816,-182.6276 192.2559,-182.6022 184.4535,-182.4408 175.0639,-182.0882 123.1334,-179.2633 54.0399,-227.8693 9.9547,-337.2313 -43.9916,-369.3524 -107.3962,-459.2521 -127.1893,-486.2113 -111.7702,-538.478 -84.1832,-646.594 -63.5138,-669.922 -61.4623,-681.2256 -48.567,-768.5341 -42.7738,-813.2157 33.501,-867.5433 126.5843,-897.3524 137.3802,-901.1743 160.9864,-910.735 162.893,-911.5387 184.372,-922.0492 196.904,-928.8149 198.2515,-929.5649 205.1344,-926.8643 205.9593,-926.5652 229.3624,-918.7611 323.7532,-890.1004 346.8755,-793.5121 353.496,-762.9302 362.1706,-711.62 365.7314,-696.7457 "/>
<!-- aajohan&#45;comfortaa&#45;fonts&#45;&gt;fontpackages&#45;filesystem -->
<g id="edge1" class="edge">
<title>aajohan&#45;comfortaa&#45;fonts&#45;&gt;fontpackages&#45;filesystem</title>
<path fill="none" stroke="#444444" stroke-opacity="0.333333" d="M1217.7118,-36.1071C1235.9708,-50.2289 1261.5032,-69.9762 1281.5138,-85.4527"/>
<polygon fill="#444444" fill-opacity="0.333333" stroke="#444444" stroke-opacity="0.333333" points="1279.3853,-88.2312 1289.4368,-91.5805 1283.6679,-82.694 1279.3853,-88.2312"/>
</g>
<!-- curl&#45;minimal&#45;&gt;libcurl&#45;minimal -->
<g id="edge2" class="edge">
<title>curl&#45;minimal&#45;&gt;libcurl&#45;minimal</title>
<path fill="none" stroke="#444444" stroke-opacity="0.333333" d="M1610.926,-646.7361C1621.8552,-648.1127 1633.2475,-649.5478 1644.5758,-650.9747"/>
<polygon fill="#444444" fill-opacity="0.333333" stroke="#444444" stroke-opacity="0.333333" points="1644.1423,-654.4477 1654.5013,-652.2249 1645.0172,-647.5025 1644.1423,-654.4477"/>
</g>
<!-- fontconfig&#45;&gt;aajohan&#45;comfortaa&#45;fonts -->
<g id="edge3" class="edge">
<title>fontconfig&#45;&gt;aajohan&#45;comfortaa&#45;fonts</title>
<path fill="none" stroke="#444444" stroke-opacity="0.333333" d="M1128.3757,-223.559C1140.924,-184.4321 1170.4087,-92.4957 1185.3234,-45.9899"/>
<polygon fill="#444444" fill-opacity="0.333333" stroke="#444444" stroke-opacity="0.333333" points="1188.7227,-46.8514 1188.4438,-36.2602 1182.0571,-44.7136 1188.7227,-46.8514"/>
</g>
<!-- fontconfig&#45;&gt;fontpackages&#45;filesystem -->
<g id="edge4" class="edge">
<title>fontconfig&#45;&gt;fontpackages&#45;filesystem</title>
<path fill="none" stroke="#444444" stroke-opacity="0.333333" d="M1148.5614,-223.7712C1182.2046,-200.3942 1240.85,-159.6445 1278.2002,-133.6917"/>
<polygon fill="#444444" fill-opacity="0.333333" stroke="#444444" stroke-opacity="0.333333" points="1280.5337,-136.3322 1286.7487,-127.7517 1276.5394,-130.5837 1280.5337,-136.3322"/>
</g>
<!-- fontconfig&#45;&gt;freetype -->
<g id="edge5" class="edge">
<title>fontconfig&#45;&gt;freetype</title>
<path fill="none" stroke="#444444" stroke-opacity="0.333333" d="M1057.9505,-247.8514C1045.0847,-249.0416 1031.5726,-250.2916 1018.7115,-251.4814"/>
<polygon fill="#444444" fill-opacity="0.333333" stroke="#444444" stroke-opacity="0.333333" points="1018.1964,-248.014 1008.5614,-252.4203 1018.8413,-254.9842 1018.1964,-248.014"/>
</g>
<!-- freetype&#45;&gt;libpng -->
<g id="edge6" class="edge">
<title>freetype&#45;&gt;libpng</title>
<path fill="none" stroke="#444444" stroke-opacity="0.333333" d="M944.6589,-239.1419C925.4922,-202.7648 882.5137,-121.1946 860.0139,-78.4917"/>
<polygon fill="#444444" fill-opacity="0.333333" stroke="#444444" stroke-opacity="0.333333" points="863.0374,-76.7216 855.2795,-69.5061 856.8445,-79.9847 863.0374,-76.7216"/>
</g>
<!-- libX11&#45;&gt;libX11&#45;common -->
<g id="edge7" class="edge">
<title>libX11&#45;&gt;libX11&#45;common</title>
<path fill="none" stroke="#444444" stroke-opacity="0.333333" d="M1004.6081,-693.963C997.8922,-733.4574 981.932,-827.3157 973.9045,-874.5236"/>
<polygon fill="#444444" fill-opacity="0.333333" stroke="#444444" stroke-opacity="0.333333" points="970.4527,-873.9451 972.2267,-884.3904 977.3536,-875.1187 970.4527,-873.9451"/>
</g>
<!-- libX11&#45;&gt;libxcb -->
<g id="edge8" class="edge">
<title>libX11&#45;&gt;libxcb</title>
<path fill="none" stroke="#444444" stroke-opacity="0.333333" d="M1020.0387,-693.9822C1049.3124,-737.167 1123.0745,-845.9814 1157.4042,-896.6249"/>
<polygon fill="#444444" fill-opacity="0.333333" stroke="#444444" stroke-opacity="0.333333" points="1154.635,-898.7775 1163.1432,-905.0911 1160.4292,-894.8498 1154.635,-898.7775"/>
</g>
<!-- libxcb&#45;&gt;libXau -->
<g id="edge9" class="edge">
<title>libxcb&#45;&gt;libXau</title>
<path fill="none" stroke="#444444" stroke-opacity="0.333333" d="M1184.6593,-941.32C1202.4891,-976.3595 1241.9462,-1053.9012 1262.9381,-1095.1548"/>
<polygon fill="#444444" fill-opacity="0.333333" stroke="#444444" stroke-opacity="0.333333" points="1259.8339,-1096.7721 1267.4885,-1104.0973 1266.0727,-1093.5975 1259.8339,-1096.7721"/>
</g>
<!-- libXft&#45;&gt;fontconfig -->
<g id="edge10" class="edge">
<title>libXft&#45;&gt;fontconfig</title>
<path fill="none" stroke="#444444" stroke-opacity="0.333333" d="M1098.6705,-430.9727C1103.221,-394.8635 1113.4869,-313.4012 1118.9399,-270.1305"/>
<polygon fill="#444444" fill-opacity="0.333333" stroke="#444444" stroke-opacity="0.333333" points="1122.4383,-270.3623 1120.2161,-260.0032 1115.4932,-269.4871 1122.4383,-270.3623"/>
</g>
<!-- libXft&#45;&gt;freetype -->
<g id="edge11" class="edge">
<title>libXft&#45;&gt;freetype</title>
<path fill="none" stroke="#444444" stroke-opacity="0.333333" d="M1083.0316,-430.9694C1057.8528,-397.0285 1003.2965,-323.487 973.9409,-283.9158"/>
<polygon fill="#444444" fill-opacity="0.333333" stroke="#444444" stroke-opacity="0.333333" points="976.5054,-281.4983 967.7364,-275.5522 970.8835,-285.6689 976.5054,-281.4983"/>
</g>
<!-- libXft&#45;&gt;libX11 -->
<g id="edge12" class="edge">
<title>libXft&#45;&gt;libX11</title>
<path fill="none" stroke="#444444" stroke-opacity="0.333333" d="M1089.2912,-467.1658C1073.8183,-506.7275 1037.002,-600.86 1018.584,-647.9515"/>
<polygon fill="#444444" fill-opacity="0.333333" stroke="#444444" stroke-opacity="0.333333" points="1015.2255,-646.9297 1014.8426,-657.5176 1021.7447,-649.4795 1015.2255,-646.9297"/>
</g>
<!-- libXft&#45;&gt;libXrender -->
<g id="edge13" class="edge">
<title>libXft&#45;&gt;libXrender</title>
<path fill="none" stroke="#444444" stroke-opacity="0.333333" d="M1116.5955,-467.1765C1147.6049,-495.101 1207.0144,-548.6005 1241.9495,-580.0602"/>
<polygon fill="#444444" fill-opacity="0.333333" stroke="#444444" stroke-opacity="0.333333" points="1239.6599,-582.7084 1249.4331,-586.7993 1244.3442,-577.5067 1239.6599,-582.7084"/>
</g>
<!-- libXrender&#45;&gt;curl&#45;minimal -->
<g id="edge14" class="edge">
<title>libXrender&#45;&gt;curl&#45;minimal</title>
<path fill="none" stroke="#444444" stroke-opacity="0.333333" d="M1334.1821,-612.7399C1368.7356,-616.944 1411.7299,-622.1752 1449.0865,-626.7204"/>
<polygon fill="#444444" fill-opacity="0.333333" stroke="#444444" stroke-opacity="0.333333" points="1449.1122,-630.2492 1459.4617,-627.9827 1449.9577,-623.3005 1449.1122,-630.2492"/>
</g>
<!-- libXrender&#45;&gt;libX11 -->
<g id="edge15" class="edge">
<title>libXrender&#45;&gt;libX11</title>
<path fill="none" stroke="#444444" stroke-opacity="0.333333" d="M1204.7854,-622.3983C1160.3481,-634.4344 1102.1012,-650.2109 1060.4754,-661.4855"/>
<polygon fill="#444444" fill-opacity="0.333333" stroke="#444444" stroke-opacity="0.333333" points="1059.5375,-658.1133 1050.8003,-664.106 1061.3676,-664.8699 1059.5375,-658.1133"/>
</g>
<!-- python3&#45;debug&#45;&gt;libX11 -->
<g id="edge16" class="edge">
<title>python3&#45;debug&#45;&gt;libX11</title>
<path fill="none" stroke="#444444" stroke-opacity="0.333333" d="M751.3667,-623.5049C814.4398,-636.3677 900.2746,-653.8723 954.8439,-665.0008"/>
<polygon fill="#444444" fill-opacity="0.333333" stroke="#444444" stroke-opacity="0.333333" points="954.159,-668.4331 964.6568,-667.002 955.5578,-661.5743 954.159,-668.4331"/>
</g>
<!-- python3&#45;debug&#45;&gt;python3&#45;devel -->
<g id="edge17" class="edge">
<title>python3&#45;debug&#45;&gt;python3&#45;devel</title>
<path fill="none" stroke="#444444" stroke-opacity="0.333333" d="M589.999,-593.4735C540.6516,-585.1706 477.3996,-574.5281 426.334,-565.9361"/>
<polygon fill="#444444" fill-opacity="0.333333" stroke="#444444" stroke-opacity="0.333333" points="426.7333,-562.4542 416.2911,-564.2464 425.5718,-569.3571 426.7333,-562.4542"/>
</g>
<!-- python3&#45;debug&#45;&gt;python3&#45;test -->
<g id="edge18" class="edge">
<title>python3&#45;debug&#45;&gt;python3&#45;test</title>
<path fill="none" stroke="#444444" stroke-opacity="0.333333" d="M654.5129,-625.1046C628.1621,-654.6395 575.7736,-713.3584 545.569,-747.2128"/>
<polygon fill="#444444" fill-opacity="0.333333" stroke="#444444" stroke-opacity="0.333333" points="542.803,-745.0557 538.7572,-754.8477 548.0263,-749.7159 542.803,-745.0557"/>
</g>
<!-- python3&#45;debug&#45;&gt;python3&#45;tkinter -->
<g id="edge19" class="edge">
<title>python3&#45;debug&#45;&gt;python3&#45;tkinter</title>
<path fill="none" stroke="#444444" stroke-opacity="0.333333" d="M739.6024,-625.0716C746.3757,-626.8424 753.2849,-628.6487 760.1467,-630.4426"/>
<polygon fill="#444444" fill-opacity="0.333333" stroke="#444444" stroke-opacity="0.333333" points="759.5847,-633.9132 770.1448,-633.0564 761.3553,-627.1408 759.5847,-633.9132"/>
</g>
<!-- python3&#45;debug&#45;&gt;python3&#45;tools -->
<g id="edge20" class="edge">
<title>python3&#45;debug&#45;&gt;python3&#45;tools</title>
<path fill="none" stroke="#444444" stroke-opacity="0.333333" d="M672.2553,-625.1318C675.0516,-656.2597 680.7926,-720.1666 684.1206,-757.2123"/>
<polygon fill="#444444" fill-opacity="0.333333" stroke="#444444" stroke-opacity="0.333333" points="680.6497,-757.6936 685.0304,-767.3404 687.6216,-757.0673 680.6497,-757.6936"/>
</g>
<!-- python3&#45;debug&#45;&gt;tk -->
<g id="edge21" class="edge">
<title>python3&#45;debug&#45;&gt;tk</title>
<path fill="none" stroke="#444444" stroke-opacity="0.333333" d="M702.4491,-588.9066C749.7248,-561.9648 838.2536,-511.5132 887.855,-483.2459"/>
<polygon fill="#444444" fill-opacity="0.333333" stroke="#444444" stroke-opacity="0.333333" points="889.6897,-486.2289 896.6449,-478.2367 886.2237,-480.1471 889.6897,-486.2289"/>
</g>
<!-- python3&#45;devel&#45;&gt;python3&#45;rpm&#45;generators -->
<g id="edge22" class="edge">
<title>python3&#45;devel&#45;&gt;python3&#45;rpm&#45;generators</title>
<path fill="none" stroke="#444444" stroke-opacity="0.333333" d="M327.5339,-532.6004C311.5156,-497.4413 276.1082,-419.7247 257.1794,-378.1773"/>
<polygon fill="#444444" fill-opacity="0.333333" stroke="#444444" stroke-opacity="0.333333" points="260.2941,-376.5718 252.9631,-368.9228 253.9241,-379.474 260.2941,-376.5718"/>
</g>
<!-- python3&#45;devel&#45;&gt;python3&#45;rpm&#45;macros -->
<g id="edge23" class="edge">
<title>python3&#45;devel&#45;&gt;python3&#45;rpm&#45;macros</title>
<path fill="none" stroke="#444444" stroke-opacity="0.333333" d="M317.6941,-568.8468C289.178,-597.4589 233.6647,-653.1592 201.0442,-685.8895"/>
<polygon fill="#444444" fill-opacity="0.333333" stroke="#444444" stroke-opacity="0.333333" points="198.246,-683.739 193.6658,-693.2927 203.2041,-688.6804 198.246,-683.739"/>
</g>
<!-- python3&#45;devel&#45;&gt;python&#45;rpm&#45;macros -->
<g id="edge24" class="edge">
<title>python3&#45;devel&#45;&gt;python&#45;rpm&#45;macros</title>
<path fill="none" stroke="#444444" stroke-opacity="0.333333" d="M255.0127,-537.2031C241.8459,-535.0028 228.0012,-532.6892 214.2429,-530.3901"/>
<polygon fill="#444444" fill-opacity="0.333333" stroke="#444444" stroke-opacity="0.333333" points="214.6911,-526.9165 204.251,-528.7203 213.5373,-533.8208 214.6911,-526.9165"/>
</g>
<!-- python3&#45;test&#45;&gt;python3&#45;tools -->
<g id="edge25" class="edge">
<title>python3&#45;test&#45;&gt;python3&#45;tools</title>
<path fill="none" stroke="#444444" stroke-opacity="0.333333" d="M598.4193,-778.7059C598.5766,-778.718 598.734,-778.7301 598.8915,-778.7422"/>
<polygon fill="#444444" fill-opacity="0.333333" stroke="#444444" stroke-opacity="0.333333" points="595.7483,-782.011 605.9869,-779.2869 596.2842,-775.0316 595.7483,-782.011"/>
</g>
<!-- python3&#45;tkinter&#45;&gt;libX11 -->
<g id="edge26" class="edge">
<title>python3&#45;tkinter&#45;&gt;libX11</title>
<path fill="none" stroke="#444444" stroke-opacity="0.333333" d="M930.267,-664.4329C938.5796,-665.651 946.802,-666.8559 954.6084,-667.9999"/>
<polygon fill="#444444" fill-opacity="0.333333" stroke="#444444" stroke-opacity="0.333333" points="954.2018,-671.4776 964.6037,-669.4646 955.2169,-664.5516 954.2018,-671.4776"/>
</g>
<!-- python3&#45;tkinter&#45;&gt;tk -->
<g id="edge27" class="edge">
<title>python3&#45;tkinter&#45;&gt;tk</title>
<path fill="none" stroke="#444444" stroke-opacity="0.333333" d="M847.1487,-633.0002C862.1052,-599.8114 894.0379,-528.9522 911.6312,-489.9126"/>
<polygon fill="#444444" fill-opacity="0.333333" stroke="#444444" stroke-opacity="0.333333" points="914.8583,-491.2701 915.776,-480.7151 908.4764,-488.3941 914.8583,-491.2701"/>
</g>
<!-- python3&#45;tools&#45;&gt;python3&#45;tkinter -->
<g id="edge28" class="edge">
<title>python3&#45;tools&#45;&gt;python3&#45;tkinter</title>
<path fill="none" stroke="#444444" stroke-opacity="0.333333" d="M707.2066,-767.3515C733.8984,-743.8011 780.6264,-702.5724 810.6731,-676.0619"/>
<polygon fill="#444444" fill-opacity="0.333333" stroke="#444444" stroke-opacity="0.333333" points="813.1194,-678.5711 818.3024,-669.3306 808.4882,-673.3221 813.1194,-678.5711"/>
</g>
<!-- tk&#45;&gt;fontconfig -->
<g id="edge29" class="edge">
<title>tk&#45;&gt;fontconfig</title>
<path fill="none" stroke="#444444" stroke-opacity="0.333333" d="M940.1431,-444.6386C975.364,-405.4772 1058.8218,-312.6824 1099.4631,-267.4942"/>
<polygon fill="#444444" fill-opacity="0.333333" stroke="#444444" stroke-opacity="0.333333" points="1102.2161,-269.6672 1106.3009,-259.8914 1097.0114,-264.9862 1102.2161,-269.6672"/>
</g>
<!-- tk&#45;&gt;freetype -->
<g id="edge30" class="edge">
<title>tk&#45;&gt;freetype</title>
<path fill="none" stroke="#444444" stroke-opacity="0.333333" d="M926.5887,-444.4937C931.9087,-408.5834 943.7824,-328.4348 950.1221,-285.6409"/>
<polygon fill="#444444" fill-opacity="0.333333" stroke="#444444" stroke-opacity="0.333333" points="953.604,-286.0205 951.6074,-275.6155 946.6796,-284.9946 953.604,-286.0205"/>
</g>
<!-- tk&#45;&gt;libX11 -->
<g id="edge31" class="edge">
<title>tk&#45;&gt;libX11</title>
<path fill="none" stroke="#444444" stroke-opacity="0.333333" d="M931.0356,-480.8762C945.7254,-518.2221 979.3947,-603.8196 996.8143,-648.1052"/>
<polygon fill="#444444" fill-opacity="0.333333" stroke="#444444" stroke-opacity="0.333333" points="993.6549,-649.635 1000.5725,-657.6598 1000.1691,-647.0726 993.6549,-649.635"/>
</g>
<!-- tk&#45;&gt;libXft -->
<g id="edge32" class="edge">
<title>tk&#45;&gt;libXft</title>
<path fill="none" stroke="#444444" stroke-opacity="0.333333" d="M951.2247,-460.536C975.8929,-458.5741 1012.877,-455.6327 1043.3416,-453.2098"/>
<polygon fill="#444444" fill-opacity="0.333333" stroke="#444444" stroke-opacity="0.333333" points="1043.7049,-456.6921 1053.3959,-452.4102 1043.1498,-449.7141 1043.7049,-456.6921"/>
</g>
<!-- aajohan&#45;comfortaa&#45;fonts -->
<g id="node1" class="node">
<title>aajohan&#45;comfortaa&#45;fonts</title>
<text text-anchor="middle" x="1194.3" y="-14.3" font-family="monospace" font-size="14.00" fill="#000000">aajohan&#45;comfortaa&#45;fonts</text>
</g>
<!-- fontpackages&#45;filesystem -->
<g id="node2" class="node">
<title>fontpackages&#45;filesystem</title>
<text text-anchor="middle" x="1312.8" y="-105.95" font-family="monospace" font-size="14.00" fill="#000000">fontpackages&#45;filesystem</text>
</g>
<!-- curl&#45;minimal -->
<g id="node3" class="node">
<title>curl&#45;minimal</title>
<text text-anchor="middle" x="1535.3" y="-633.51" font-family="monospace" font-size="14.00" fill="#000000">curl&#45;minimal</text>
</g>
<!-- libcurl&#45;minimal -->
<g id="node4" class="node">
<title>libcurl&#45;minimal</title>
<text text-anchor="middle" x="1745.6" y="-660" font-family="monospace" font-size="14.00" fill="#000000">libcurl&#45;minimal</text>
</g>
<!-- fontconfig -->
<g id="node5" class="node">
<title>fontconfig</title>
<text text-anchor="middle" x="1122.5" y="-238.18" font-family="monospace" font-size="14.00" fill="#000000">fontconfig</text>
</g>
<!-- freetype -->
<g id="node6" class="node">
<title>freetype</title>
<text text-anchor="middle" x="954.3" y="-253.74" font-family="monospace" font-size="14.00" fill="#000000">freetype</text>
</g>
<!-- libpng -->
<g id="node7" class="node">
<title>libpng</title>
<text text-anchor="middle" x="845.66" y="-47.549" font-family="monospace" font-size="14.00" fill="#000000">libpng</text>
</g>
<!-- libX11 -->
<g id="node8" class="node">
<title>libX11</title>
<text text-anchor="middle" x="1007.7" y="-672.08" font-family="monospace" font-size="14.00" fill="#000000">libX11</text>
</g>
<!-- libX11&#45;common -->
<g id="node9" class="node">
<title>libX11&#45;common</title>
<text text-anchor="middle" x="969.12" y="-898.96" font-family="monospace" font-size="14.00" fill="#000000">libX11&#45;common</text>
</g>
<!-- libxcb -->
<g id="node10" class="node">
<title>libxcb</title>
<text text-anchor="middle" x="1175.5" y="-919.62" font-family="monospace" font-size="14.00" fill="#000000">libxcb</text>
</g>
<!-- libXau -->
<g id="node11" class="node">
<title>libXau</title>
<text text-anchor="middle" x="1276.7" y="-1118.5" font-family="monospace" font-size="14.00" fill="#000000">libXau</text>
</g>
<!-- libXft -->
<g id="node12" class="node">
<title>libXft</title>
<text text-anchor="middle" x="1096.4" y="-445.29" font-family="monospace" font-size="14.00" fill="#000000">libXft</text>
</g>
<!-- libXrender -->
<g id="node13" class="node">
<title>libXrender</title>
<text text-anchor="middle" x="1269.5" y="-601.17" font-family="monospace" font-size="14.00" fill="#000000">libXrender</text>
</g>
<!-- python3&#45;debug -->
<g id="node14" class="node">
<title>python3&#45;debug</title>
<text text-anchor="middle" x="670.63" y="-603.34" font-family="monospace" font-size="14.00" fill="#000000">python3&#45;debug</text>
</g>
<!-- python3&#45;devel -->
<g id="node15" class="node">
<title>python3&#45;devel</title>
<text text-anchor="middle" x="335.78" y="-547" font-family="monospace" font-size="14.00" fill="#000000">python3&#45;devel</text>
</g>
<!-- python3&#45;test -->
<g id="node16" class="node">
<title>python3&#45;test</title>
<text text-anchor="middle" x="522.66" y="-769.19" font-family="monospace" font-size="14.00" fill="#000000">python3&#45;test</text>
</g>
<!-- python3&#45;tkinter -->
<g id="node17" class="node">
<title>python3&#45;tkinter</title>
<text text-anchor="middle" x="839.01" y="-647.36" font-family="monospace" font-size="14.00" fill="#000000">python3&#45;tkinter</text>
</g>
<!-- python3&#45;tools -->
<g id="node18" class="node">
<title>python3&#45;tools</title>
<text text-anchor="middle" x="686.66" y="-781.78" font-family="monospace" font-size="14.00" fill="#000000">python3&#45;tools</text>
</g>
<!-- tk -->
<g id="node19" class="node">
<title>tk</title>
<text text-anchor="middle" x="923.89" y="-459.01" font-family="monospace" font-size="14.00" fill="#000000">tk</text>
</g>
<!-- python3&#45;rpm&#45;generators -->
<g id="node20" class="node">
<title>python3&#45;rpm&#45;generators</title>
<text text-anchor="middle" x="244.67" y="-347.02" font-family="monospace" font-size="14.00" fill="#000000">python3&#45;rpm&#45;generators</text>
</g>
<!-- python3&#45;rpm&#45;macros -->
<g id="node21" class="node">
<title>python3&#45;rpm&#45;macros</title>
<text text-anchor="middle" x="175.4" y="-707.92" font-family="monospace" font-size="14.00" fill="#000000">python3&#45;rpm&#45;macros</text>
</g>
<!-- python&#45;rpm&#45;macros -->
<g id="node22" class="node">
<title>python&#45;rpm&#45;macros</title>
<text text-anchor="middle" x="102.04" y="-507.94" font-family="monospace" font-size="14.00" fill="#000000">python&#45;rpm&#45;macros</text>
</g>
</g>
</svg>
