<?xml version="1.0" encoding="UTF-8" standalone="no"?>
<!DOCTYPE svg PUBLIC "-//W3C//DTD SVG 1.1//EN"
 "http://www.w3.org/Graphics/SVG/1.1/DTD/svg11.dtd">
<!-- Generated by graphviz version 2.40.1 (20161225.0304)
 -->
<!-- Title: G Pages: 1 -->
<svg width="1675pt" height="1242pt"
 viewBox="0.00 0.00 1675.36 1242.24" xmlns="http://www.w3.org/2000/svg" xmlns:xlink="http://www.w3.org/1999/xlink">
<g id="graph0" class="graph" transform="scale(1 1) rotate(0) translate(137.53 1086.692)">
<title>G</title>
<polygon fill="#dae2ff" stroke="transparent" points="-137.53,155.5458 -137.53,-1086.692 1537.8315,-1086.692 1537.8315,155.5458 -137.53,155.5458"/>
<polygon fill="#d8d6da" stroke="#d8d6da" points="1495.0021,-347.3495 1488.0736,-365.5072 1483.6971,-377.5906 1474.7821,-405.1772 1431.7444,-483.5195 1320.4102,-564.9242 1310.9498,-553.3854 1298.0127,-538.5781 1296.249,-412.2818 1296.249,-412.2818 1298.0127,-538.5781 1287.0126,-526.8286 1283.6954,-522.9741 1279.9838,-518.8242 1277.4017,-516.0491 1270.1064,-508.5175 1258.1692,-497.1993 1258.3068,-419.2932 1261.457,-377.1748 1266.0372,-378.497 1266.0372,-378.497 1261.457,-377.1748 1258.3068,-419.2932 1258.1692,-497.1993 1249.3707,-489.606 1247.8213,-488.3988 1233.7764,-476.7903 1218.3459,-466.1121 1142.7559,-417.3131 1130.1042,-408.568 1129.3914,-408.0445 1119.3418,-399.7459 1115.6403,-396.5226 1107.9655,-389.4886 1105.6144,-387.5543 1101.1495,-383.5157 1105.0206,-379.038 1108.6879,-374.9908 1108.021,-311.2905 1110.3842,-260.0281 1115.3558,-258.5399 1119.3296,-254.8972 1116.4326,-252.4241 1116.4326,-252.4241 1119.3296,-254.8972 1115.3558,-258.5399 1110.3842,-260.0281 1108.021,-311.2905 1108.6879,-374.9908 1105.0206,-379.038 1101.1495,-383.5157 1097.1682,-383.5705 1092.0707,-383.7552 1079.2303,-383.6382 1018.0247,-384.4526 1028.9172,-277.6768 1029.7444,-260.6292 1031.4495,-244.3613 1031.3906,-235.4312 1035.8884,-191.3414 1031.7354,-189.0348 1031.1241,-188.7246 1029.6233,-188.0319 1020.3456,-184.1666 1009.4538,-180.6162 1011.5443,-112.2024 1016.4802,-112.2024 1016.4802,-112.2024 1011.5443,-112.2024 1009.4538,-180.6162 1009.2586,-180.5615 994.3737,-177.063 990.8713,-176.562 976.2269,-175.7916 975.9174,-175.7895 962.5106,-175.0868 949.7787,-172.6823 941.7819,-170.8108 935.989,-168.9332 866.5101,-143.2551 812.9445,-125.1159 812.5659,-124.7907 811.8887,-124.1893 828.1918,-84.6307 861.1185,5.5075 861.2485,5.6205 907.428,36.5536 971.9424,-18 1029.4873,-18 1031.9604,-18.316 1031.9604,-18.316 1029.4873,-18 971.9424,-18 907.428,36.5536 957.145,111.861 1057.2739,150.8472 1058.8306,151.5458 1080.5442,145.7594 1093.7278,143.2123 1103.2787,141.7155 1113.1364,140.5302 1128.4155,138.9725 1125.075,59.4111 1125.075,59.4111 1128.4155,138.9725 1168.7173,136.3423 1244.2572,110.2061 1267.9984,57.427 1370.7006,-41.7091 1494.7356,-61.7811 1511.6783,-100.4401 1520.561,-209.013 1521.5115,-218.4744 1383.7887,-218.3441 1355.5024,-221.6021 1350.7484,-218.0002 1346.6322,-266.9337 1344.4546,-215.1529 1344.3303,-215.1158 1339.6682,-215.1158 1338.7195,-215.3963 1335.049,-215.3963 1330.2208,-259.6343 1328.3545,-216.8307 1329.72,-215.1619 1329.6211,-215.0451 1329.6211,-215.0451 1329.72,-215.1619 1328.3545,-216.8307 1323.3992,-219.7803 1317.8849,-219.7803 1312.2352,-216.3799 1311.2151,-215.1778 1307.9109,-215.1778 1301.6216,-288.7121 1300.9304,-271.3182 1301.907,-214.9735 1301.8218,-214.948 1301.0488,-116.3935 1304.4425,-113.2739 1237.8732,-103.2369 1209.3467,-102.4041 1204.5267,-98.0104 1203.7153,-96.4604 1198.5211,-96.4604 1198.2371,-96.5474 1193.6479,-96.5474 1191.4243,-145.5036 1187.0565,-96.3812 1183.8798,-96.3812 1183.7875,-96.4092 1183.5768,-96.6556 1176.7133,-100.9902 1171.7329,-100.9902 1166.4811,-97.8392 1166.4811,-97.8392 1171.7329,-100.9902 1176.7133,-100.9902 1183.5768,-96.6556 1183.7875,-96.4092 1183.8798,-96.3812 1187.0565,-96.3812 1191.4243,-145.5036 1193.6479,-96.5474 1198.2371,-96.5474 1198.5211,-96.4604 1203.7153,-96.4604 1204.5267,-98.0104 1209.3467,-102.4041 1237.8732,-103.2369 1304.4425,-113.2739 1301.0488,-116.3935 1301.8218,-214.948 1301.907,-214.9735 1300.9304,-271.3182 1301.6216,-288.7121 1307.9109,-215.1778 1311.2151,-215.1778 1312.2352,-216.3799 1317.8849,-219.7803 1323.3992,-219.7803 1328.3545,-216.8307 1330.2208,-259.6343 1335.049,-215.3963 1338.7195,-215.3963 1339.6682,-215.1158 1344.3303,-215.1158 1344.4546,-215.1529 1346.6322,-266.9337 1350.7484,-218.0002 1355.5024,-221.6021 1383.7887,-218.3441 1521.5115,-218.4744 1533.8315,-307.928 1495.0021,-347.3495 1495.0021,-347.3495"/>
<polygon fill="#fbb4ae" stroke="#fbb4ae" points="1190.9769,-1067.2811 1186.8846,-941.2552 1186.8846,-941.2552 1190.9769,-1067.2811 1275.0851,-1055.6531 1291.7495,-1029.4502 1350.0411,-922.9674 1365.8459,-896.5296 1342.495,-847.1418 1312.8491,-781.0639 1314.0964,-766.5458 1320.7327,-703.5605 1325.0304,-673.4858 1307.4955,-606.7677 1320.4102,-564.9242 1310.9498,-553.3854 1298.0127,-538.5781 1287.0126,-526.8286 1283.6954,-522.9741 1279.9838,-518.8242 1277.4017,-516.0491 1270.1064,-508.5175 1258.1692,-497.1993 1249.3707,-489.606 1247.8213,-488.3988 1233.7764,-476.7903 1218.3459,-466.1121 1142.7559,-417.3131 1130.1042,-408.568 1129.3914,-408.0445 1119.3418,-399.7459 1115.6403,-396.5226 1107.9655,-389.4886 1105.6144,-387.5543 1101.1495,-383.5157 1097.1682,-383.5705 1092.0707,-383.7552 1079.2303,-383.6382 1018.0247,-384.4526 994.2673,-395.2668 932.243,-460.4482 893.0439,-500.0896 905.3887,-541.4216 915.8163,-539.907 1092.0356,-517.4358 1097.3583,-511.9879 1097.7125,-511.9879 1098.3118,-511.8073 1102.1251,-511.8073 1102.1334,-511.8098 1107.3101,-511.8098 1108.9064,-513.7696 1113.2234,-516.2691 1113.2234,-516.2691 1108.9064,-513.7696 1107.3101,-511.8098 1102.1334,-511.8098 1102.1251,-511.8073 1098.3118,-511.8073 1097.7125,-511.9879 1097.3583,-511.9879 1092.0356,-517.4358 915.8163,-539.907 905.3887,-541.4216 914.6968,-576.7703 933.4661,-613.0397 924.2388,-712.903 924.155,-713.6532 925.0814,-731.1221 925.5976,-765.9326 934.3945,-829.0508 926.3216,-853.6091 930.0126,-896.96 932.4389,-972.5762 950.7034,-1001.746 1090.9634,-1065.5385 1108.8496,-1074.0386 1125.6439,-1082.351 1126.3074,-1082.692 1127.5709,-1082.2181 1128.7086,-1081.8112 1130.377,-1081.2987 1148.0455,-1076.1653 1153.9595,-1074.6471 1159.7257,-1073.264 1169.8735,-1071.0012 1174.8995,-1070.0507 1190.9769,-1067.2811 1190.9769,-1067.2811"/>
<polygon fill="#bbd7d9" stroke="#bbd7d9" points="-82.2653,-289.1212 -127.2369,-378.3925 -133.53,-390.3386 -132.6745,-393.0604 26.3578,-391.2578 40.2426,-394.5666 46.4538,-390.236 47.6949,-388.3691 51.0488,-388.3691 51.4959,-388.2344 55.695,-388.2344 59.2043,-424.5026 62.7985,-388.2573 66.2244,-388.2573 66.5834,-388.6797 72.8259,-392.5504 78.6329,-392.5504 83.1626,-389.9728 84.7148,-388.164 87.9201,-388.164 87.9932,-388.186 93.0192,-440.1587 97.3317,-566.2094 101.1647,-436.306 99.2842,-388.1129 99.2842,-388.1129 101.1647,-436.306 97.3317,-566.2094 93.0192,-440.1587 87.9932,-388.186 87.9201,-388.164 84.7148,-388.164 83.1626,-389.9728 78.6329,-392.5504 72.8259,-392.5504 66.5834,-388.6797 66.2244,-388.2573 62.7985,-388.2573 59.2043,-424.5026 55.695,-388.2344 51.4959,-388.2344 51.0488,-388.3691 47.6949,-388.3691 46.4538,-390.236 40.2426,-394.5666 26.3578,-391.2578 -132.6745,-393.0604 -110.3254,-474.0259 -6.9737,-552.7357 39.9157,-560.2173 53.1982,-562.7892 59.0366,-564.0185 69.4768,-566.5713 90.6718,-572.8394 97.3522,-574.9271 116.9942,-582.3984 118.5794,-583.0278 148.4279,-590.8512 188.3243,-590.4023 217.5835,-581.8303 217.9082,-581.8193 229.7186,-581.571 235.7067,-581.5962 292.1793,-605.7986 295.154,-606.7406 358.8706,-597.1801 384.0416,-588.9173 392.9994,-586.1444 396.115,-585.2387 405.7503,-582.6188 421.1626,-579.009 429.7167,-577.3299 436.1245,-576.3141 531.4203,-564.7905 596.1573,-496.5096 601.8639,-495.174 611.1401,-493.3207 611.1657,-490.5272 615.5558,-321.6895 615.5558,-321.6895 611.1657,-490.5272 611.1401,-493.3207 627.9991,-490.5288 636.2944,-489.4403 726.9866,-455.4132 707.7805,-338.5157 704.6128,-313.2437 703.861,-296.66 681.3461,-159.6244 628.434,-146.5824 608.2941,-140.9193 606.6323,-140.3373 592.543,-141.7696 583.5623,-142.5396 580.9662,-142.7207 574.7609,-143.0549 565.6001,-143.2567 561.4401,-143.216 558.2175,-143.1331 421.4078,-76.3879 413.2547,-71.9321 410.1289,-72.7181 398.6255,-75.4267 393.7323,-76.4214 378.2562,-79.0726 368.7975,-80.5407 313.8676,-86.4175 303.8739,-92.5362 220.6896,-199.8158 228.7632,-211.2636 233.1729,-217.034 241.2531,-227.1812 242.5262,-228.711 253.2422,-241.0302 265.6154,-253.3192 365.6513,-253.2174 370.2887,-257.558 371.1019,-257.8212 372.8529,-259.1939 377.143,-259.1939 377.4236,-259.1088 381.7531,-259.1088 382.078,-259.0128 386.0428,-259.0128 387.804,-261.1293 392.5123,-263.833 397.4953,-263.833 403.9011,-259.8556 404.5273,-259.11 408.6212,-259.11 408.7435,-259.1461 413.2244,-259.1461 418.4497,-203.5287 419.593,-258.9415 424.904,-253.4942 500.6717,-246.1961 533.2479,-191.5703 536.2972,-282.2295 534.4282,-316.1496 534.4282,-316.1496 536.2972,-282.2295 533.2479,-191.5703 500.6717,-246.1961 424.904,-253.4942 419.593,-258.9415 418.4497,-203.5287 413.2244,-259.1461 408.7435,-259.1461 408.6212,-259.11 404.5273,-259.11 403.9011,-259.8556 397.4953,-263.833 392.5123,-263.833 387.804,-261.1293 386.0428,-259.0128 382.078,-259.0128 381.7531,-259.1088 377.4236,-259.1088 377.143,-259.1939 372.8529,-259.1939 371.201,-261.8821 365.6203,-265.6689 352.4055,-262.2145 274.2224,-262.1748 282.8918,-270.945 286.5691,-274.425 287.3445,-359.5788 286.4219,-360.4055 286.4894,-360.5195 291.7613,-420.491 293.4503,-467.9601 313.7704,-438.3231 387.6452,-427.1635 391.4089,-423.2993 392.94,-422.6922 394.1211,-421.6996 398.4497,-421.6996 398.53,-421.676 402.9772,-421.676 403.6561,-421.4721 405.4639,-421.4721 409.5536,-425.2362 414.1517,-426.5741 414.1517,-426.5741 409.5536,-425.2362 405.4639,-421.4721 403.6561,-421.4721 402.9772,-421.676 398.53,-421.676 398.4497,-421.6996 394.1211,-421.6996 392.94,-422.6922 391.4089,-423.2993 387.6452,-427.1635 313.7704,-438.3231 293.4503,-467.9601 291.7613,-420.491 286.4894,-360.5195 286.4219,-360.4055 287.3445,-359.5788 286.5691,-274.425 282.8918,-270.945 281.8053,-360.2112 276.9801,-360.2112 276.9527,-360.203 276.9527,-360.203 276.9801,-360.2112 281.8053,-360.2112 282.8918,-270.945 274.2224,-262.1748 352.4055,-262.2145 365.6203,-265.6689 371.201,-261.8821 372.8529,-259.1939 371.1019,-257.8212 370.2887,-257.558 365.6513,-253.2174 265.6154,-253.3192 253.2422,-241.0302 242.5262,-228.711 241.2531,-227.1812 238.9399,-360.0626 240.9006,-360.0626 244.5363,-356.8284 249.468,-355.3795 249.468,-355.3795 244.5363,-356.8284 240.9006,-360.0626 238.9399,-360.0626 241.2531,-227.1812 233.1729,-217.034 228.7632,-211.2636 220.6896,-199.8158 209.2966,-203.2755 116.1618,-226.1212 106.0823,-225.35 92.4459,-223.5829 86.5952,-222.6177 76.2414,-220.7258 65.2636,-218.5261 59.7306,-217.2231 47.7259,-213.9714 43.9181,-212.8056 21.0973,-205.4128 12.0336,-206.5853 -82.2653,-289.1212 -82.2653,-289.1212"/>
<polygon fill="#fed9a6" stroke="#fed9a6" points="1035.8884,-191.3414 1031.3906,-235.4312 1031.4495,-244.3613 1029.7444,-260.6292 1028.9172,-277.6768 1018.0247,-384.4526 994.2673,-395.2668 975.2111,-361.4855 971.4567,-280.0757 966.2654,-244.2905 963.3848,-244.2905 962.437,-243.1345 962.437,-243.1345 963.3848,-244.2905 966.2654,-244.2905 971.4567,-280.0757 975.2111,-361.4855 994.2673,-395.2668 932.243,-460.4482 893.0439,-500.0896 886.9828,-497.2017 871.4808,-490.0804 870.3823,-489.5951 859.1294,-485.0113 850.0126,-481.4562 843.7401,-479.1202 835.0401,-476.033 827.5859,-473.7785 815.4222,-470.3108 808.344,-468.4172 796.461,-465.8601 777.6415,-462.79 726.9866,-455.4132 707.7805,-338.5157 704.6128,-313.2437 703.861,-296.66 681.3461,-159.6244 780.7346,-133.9941 783.8151,-234.2805 783.8151,-234.2805 780.7346,-133.9941 800.2288,-128.2329 807.5325,-125.8039 811.7052,-124.2606 811.8887,-124.1893 812.5659,-124.7907 812.9445,-125.1159 866.5101,-143.2551 935.989,-168.9332 941.7819,-170.8108 949.7787,-172.6823 962.5106,-175.0868 975.9174,-175.7895 976.2269,-175.7916 990.8713,-176.562 994.3737,-177.063 1009.2586,-180.5615 1009.4538,-180.6162 1020.3456,-184.1666 1029.6233,-188.0319 1031.1241,-188.7246 1031.7354,-189.0348 1035.8884,-191.3414 1035.8884,-191.3414"/>
<polyline fill="none" stroke="#000000" points="1093.7278,143.2123 1080.5442,145.7594 1058.8306,151.5458 1057.2739,150.8472 957.145,111.861 907.428,36.5536 861.2485,5.6205 861.1185,5.5075 828.1918,-84.6307 811.8887,-124.1893 812.5659,-124.7907 812.9445,-125.1159 866.5101,-143.2551 935.989,-168.9332 941.7819,-170.8108 949.7787,-172.6823 962.5106,-175.0868 975.9174,-175.7895 976.2269,-175.7916 990.8713,-176.562 994.3737,-177.063 1009.2586,-180.5615 1009.4538,-180.6162 1020.3456,-184.1666 1029.6233,-188.0319 1031.1241,-188.7246 1031.7354,-189.0348 1035.8884,-191.3414 1031.3906,-235.4312 1031.4495,-244.3613 1029.7444,-260.6292 1028.9172,-277.6768 1018.0247,-384.4526 1079.2303,-383.6382 1092.0707,-383.7552 1097.1682,-383.5705 1101.1495,-383.5157 1105.6144,-387.5543 1107.9655,-389.4886 1115.6403,-396.5226 1119.3418,-399.7459 1129.3914,-408.0445 1130.1042,-408.568 1142.7559,-417.3131 1218.3459,-466.1121 1233.7764,-476.7903 1247.8213,-488.3988 1249.3707,-489.606 1258.1692,-497.1993 1270.1064,-508.5175 1277.4017,-516.0491 1279.9838,-518.8242 1283.6954,-522.9741 1287.0126,-526.8286 1298.0127,-538.5781 1310.9498,-553.3854 1320.4102,-564.9242 1431.7444,-483.5195 1474.7821,-405.1772 1483.6971,-377.5906 1488.0736,-365.5072 1495.0021,-347.3495 1533.8315,-307.928 1521.5115,-218.4744 1520.561,-209.013 1511.6783,-100.4401 1494.7356,-61.7811 1370.7006,-41.7091 1267.9984,57.427 1244.2572,110.2061 1168.7173,136.3423 1128.4155,138.9725 1113.1364,140.5302 1103.2787,141.7155 1093.7278,143.2123 "/>
<polyline fill="none" stroke="#000000" points="926.3216,-853.6091 930.0126,-896.96 932.4389,-972.5762 950.7034,-1001.746 1090.9634,-1065.5385 1108.8496,-1074.0386 1125.6439,-1082.351 1126.3074,-1082.692 1127.5709,-1082.2181 1128.7086,-1081.8112 1130.377,-1081.2987 1148.0455,-1076.1653 1153.9595,-1074.6471 1159.7257,-1073.264 1169.8735,-1071.0012 1174.8995,-1070.0507 1190.9769,-1067.2811 1275.0851,-1055.6531 1291.7495,-1029.4502 1350.0411,-922.9674 1365.8459,-896.5296 1342.495,-847.1418 1312.8491,-781.0639 1314.0964,-766.5458 1320.7327,-703.5605 1325.0304,-673.4858 1307.4955,-606.7677 1320.4102,-564.9242 1310.9498,-553.3854 1298.0127,-538.5781 1287.0126,-526.8286 1283.6954,-522.9741 1279.9838,-518.8242 1277.4017,-516.0491 1270.1064,-508.5175 1258.1692,-497.1993 1249.3707,-489.606 1247.8213,-488.3988 1233.7764,-476.7903 1218.3459,-466.1121 1142.7559,-417.3131 1130.1042,-408.568 1129.3914,-408.0445 1119.3418,-399.7459 1115.6403,-396.5226 1107.9655,-389.4886 1105.6144,-387.5543 1101.1495,-383.5157 1097.1682,-383.5705 1092.0707,-383.7552 1079.2303,-383.6382 1018.0247,-384.4526 994.2673,-395.2668 932.243,-460.4482 893.0439,-500.0896 905.3887,-541.4216 914.6968,-576.7703 933.4661,-613.0397 924.2388,-712.903 924.155,-713.6532 925.0814,-731.1221 925.5976,-765.9326 934.3945,-829.0508 926.3216,-853.6091 "/>
<polyline fill="none" stroke="#000000" points="592.543,-141.7696 606.6323,-140.3373 608.2941,-140.9193 628.434,-146.5824 681.3461,-159.6244 703.861,-296.66 704.6128,-313.2437 707.7805,-338.5157 726.9866,-455.4132 636.2944,-489.4403 627.9991,-490.5288 611.1401,-493.3207 601.8639,-495.174 596.1573,-496.5096 531.4203,-564.7905 436.1245,-576.3141 429.7167,-577.3299 421.1626,-579.009 405.7503,-582.6188 396.115,-585.2387 392.9994,-586.1444 384.0416,-588.9173 358.8706,-597.1801 295.154,-606.7406 292.1793,-605.7986 235.7067,-581.5962 229.7186,-581.571 217.9082,-581.8193 217.5835,-581.8303 188.3243,-590.4023 148.4279,-590.8512 118.5794,-583.0278 116.9942,-582.3984 97.3522,-574.9271 90.6718,-572.8394 69.4768,-566.5713 59.0366,-564.0185 53.1982,-562.7892 39.9157,-560.2173 -6.9737,-552.7357 -110.3254,-474.0259 -132.6745,-393.0604 -133.53,-390.3386 -127.2369,-378.3925 -82.2653,-289.1212 12.0336,-206.5853 21.0973,-205.4128 43.9181,-212.8056 47.7259,-213.9714 59.7306,-217.2231 65.2636,-218.5261 76.2414,-220.7258 86.5952,-222.6177 92.4459,-223.5829 106.0823,-225.35 116.1618,-226.1212 209.2966,-203.2755 220.6896,-199.8158 303.8739,-92.5362 313.8676,-86.4175 368.7975,-80.5407 378.2562,-79.0726 393.7323,-76.4214 398.6255,-75.4267 410.1289,-72.7181 413.2547,-71.9321 421.4078,-76.3879 558.2175,-143.1331 561.4401,-143.216 565.6001,-143.2567 574.7609,-143.0549 580.9662,-142.7207 583.5623,-142.5396 592.543,-141.7696 "/>
<polyline fill="none" stroke="#000000" points="827.5859,-473.7785 835.0401,-476.033 843.7401,-479.1202 850.0126,-481.4562 859.1294,-485.0113 870.3823,-489.5951 871.4808,-490.0804 886.9828,-497.2017 893.0439,-500.0896 932.243,-460.4482 994.2673,-395.2668 1018.0247,-384.4526 1028.9172,-277.6768 1029.7444,-260.6292 1031.4495,-244.3613 1031.3906,-235.4312 1035.8884,-191.3414 1031.7354,-189.0348 1031.1241,-188.7246 1029.6233,-188.0319 1020.3456,-184.1666 1009.4538,-180.6162 1009.2586,-180.5615 994.3737,-177.063 990.8713,-176.562 976.2269,-175.7916 975.9174,-175.7895 962.5106,-175.0868 949.7787,-172.6823 941.7819,-170.8108 935.989,-168.9332 866.5101,-143.2551 812.9445,-125.1159 812.5659,-124.7907 811.8887,-124.1893 811.7052,-124.2606 807.5325,-125.8039 800.2288,-128.2329 780.7346,-133.9941 681.3461,-159.6244 703.861,-296.66 704.6128,-313.2437 707.7805,-338.5157 726.9866,-455.4132 777.6415,-462.79 796.461,-465.8601 808.344,-468.4172 815.4222,-470.3108 827.5859,-473.7785 "/>
<!-- boost&#45;chrono&#45;&gt;boost&#45;system -->
<g id="edge1" class="edge">
<title>boost&#45;chrono&#45;&gt;boost&#45;system</title>
<path fill="none" stroke="#444444" stroke-opacity="0.333333" d="M1109.4984,-36.2038C1120.8033,-46.7042 1135.18,-60.0579 1147.5276,-71.5268"/>
<polygon fill="#444444" fill-opacity="0.333333" stroke="#444444" stroke-opacity="0.333333" points="1145.199,-74.1408 1154.9079,-78.3819 1149.9629,-69.0119 1145.199,-74.1408"/>
</g>
<!-- boost&#45;thread&#45;&gt;boost&#45;system -->
<g id="edge2" class="edge">
<title>boost&#45;thread&#45;&gt;boost&#45;system</title>
<path fill="none" stroke="#444444" stroke-opacity="0.333333" d="M1090.0251,-102.3575C1090.1161,-102.3511 1090.2072,-102.3448 1090.2982,-102.3384"/>
<polygon fill="#444444" fill-opacity="0.333333" stroke="#444444" stroke-opacity="0.333333" points="1089.0388,-105.9346 1098.7717,-101.7489 1088.5529,-98.9515 1089.0388,-105.9346"/>
</g>
<!-- curl&#45;minimal&#45;&gt;libcurl&#45;minimal -->
<g id="edge3" class="edge">
<title>curl&#45;minimal&#45;&gt;libcurl&#45;minimal</title>
<path fill="none" stroke="#444444" stroke-opacity="0.333333" d="M1122.7808,-743.1314C1127.2191,-773.0511 1136.1269,-833.0999 1141.4045,-868.6775"/>
<polygon fill="#444444" fill-opacity="0.333333" stroke="#444444" stroke-opacity="0.333333" points="1137.9873,-869.4946 1142.9169,-878.8728 1144.9116,-868.4674 1137.9873,-869.4946"/>
</g>
<!-- dyninst&#45;&gt;boost&#45;chrono -->
<g id="edge4" class="edge">
<title>dyninst&#45;&gt;boost&#45;chrono</title>
<path fill="none" stroke="#444444" stroke-opacity="0.333333" d="M1108.6408,-236.9996C1105.1204,-195.8618 1096.5357,-95.5431 1092.3185,-46.2625"/>
<polygon fill="#444444" fill-opacity="0.333333" stroke="#444444" stroke-opacity="0.333333" points="1095.8045,-45.9476 1091.4645,-36.2824 1088.83,-46.5445 1095.8045,-45.9476"/>
</g>
<!-- dyninst&#45;&gt;boost&#45;system -->
<g id="edge5" class="edge">
<title>dyninst&#45;&gt;boost&#45;system</title>
<path fill="none" stroke="#444444" stroke-opacity="0.333333" d="M1117.5646,-237.0113C1128.7278,-209.4104 1150.018,-156.7708 1163.1353,-124.3386"/>
<polygon fill="#444444" fill-opacity="0.333333" stroke="#444444" stroke-opacity="0.333333" points="1166.4187,-125.5551 1166.9236,-114.9723 1159.9294,-122.9304 1166.4187,-125.5551"/>
</g>
<!-- dyninst&#45;&gt;boost&#45;thread -->
<g id="edge6" class="edge">
<title>dyninst&#45;&gt;boost&#45;thread</title>
<path fill="none" stroke="#444444" stroke-opacity="0.333333" d="M1098.4163,-237.1238C1081.7012,-211.4546 1050.9878,-164.2883 1031.604,-134.5208"/>
<polygon fill="#444444" fill-opacity="0.333333" stroke="#444444" stroke-opacity="0.333333" points="1034.3699,-132.3543 1025.9801,-125.8842 1028.504,-136.1741 1034.3699,-132.3543"/>
</g>
<!-- dyninst&#45;&gt;boost&#45;atomic -->
<g id="edge7" class="edge">
<title>dyninst&#45;&gt;boost&#45;atomic</title>
<path fill="none" stroke="#444444" stroke-opacity="0.333333" d="M1158.2063,-246.1161C1180.8983,-241.8129 1208.6911,-236.5423 1234.8267,-231.5859"/>
<polygon fill="#444444" fill-opacity="0.333333" stroke="#444444" stroke-opacity="0.333333" points="1235.5754,-235.0064 1244.7482,-229.7044 1234.2712,-228.129 1235.5754,-235.0064"/>
</g>
<!-- dyninst&#45;&gt;boost&#45;date&#45;time -->
<g id="edge8" class="edge">
<title>dyninst&#45;&gt;boost&#45;date&#45;time</title>
<path fill="none" stroke="#444444" stroke-opacity="0.333333" d="M1134.2639,-273.4544C1161.1725,-293.8442 1204.8668,-326.9535 1234.5806,-349.4689"/>
<polygon fill="#444444" fill-opacity="0.333333" stroke="#444444" stroke-opacity="0.333333" points="1232.4809,-352.2693 1242.565,-355.5192 1236.7086,-346.6901 1232.4809,-352.2693"/>
</g>
<!-- dyninst&#45;&gt;libdwarf -->
<g id="edge9" class="edge">
<title>dyninst&#45;&gt;libdwarf</title>
<path fill="none" stroke="#444444" stroke-opacity="0.333333" d="M1110.6289,-273.2643C1111.6768,-317.3433 1114.3728,-430.7563 1115.6326,-483.7546"/>
<polygon fill="#444444" fill-opacity="0.333333" stroke="#444444" stroke-opacity="0.333333" points="1112.1348,-483.8917 1115.8715,-493.8056 1119.1328,-483.7252 1112.1348,-483.8917"/>
</g>
<!-- libdwarf&#45;&gt;curl&#45;minimal -->
<g id="edge10" class="edge">
<title>libdwarf&#45;&gt;curl&#45;minimal</title>
<path fill="none" stroke="#444444" stroke-opacity="0.333333" d="M1116.624,-530.0099C1117.2872,-567.2264 1118.8038,-652.3251 1119.5964,-696.8024"/>
<polygon fill="#444444" fill-opacity="0.333333" stroke="#444444" stroke-opacity="0.333333" points="1116.0991,-696.9901 1119.7768,-706.9261 1123.098,-696.8653 1116.0991,-696.9901"/>
</g>
<!-- systemtap&#45;client&#45;&gt;avahi&#45;libs -->
<g id="edge11" class="edge">
<title>systemtap&#45;client&#45;&gt;avahi&#45;libs</title>
<path fill="none" stroke="#444444" stroke-opacity="0.333333" d="M526.823,-303.5003C505.5287,-296.3316 480.8612,-288.0273 458.6813,-280.5605"/>
<polygon fill="#444444" fill-opacity="0.333333" stroke="#444444" stroke-opacity="0.333333" points="459.6111,-277.1806 449.017,-277.3071 457.3777,-283.8148 459.6111,-277.1806"/>
</g>
<!-- systemtap&#45;client&#45;&gt;systemtap&#45;runtime -->
<g id="edge12" class="edge">
<title>systemtap&#45;client&#45;&gt;systemtap&#45;runtime</title>
<path fill="none" stroke="#444444" stroke-opacity="0.333333" d="M677.6554,-311.8729C691.1701,-310.533 705.1436,-309.1476 718.903,-307.7835"/>
<polygon fill="#444444" fill-opacity="0.333333" stroke="#444444" stroke-opacity="0.333333" points="719.2686,-311.2645 728.8745,-306.7949 718.5779,-304.2987 719.2686,-311.2645"/>
</g>
<!-- systemtap&#45;runtime&#45;&gt;dyninst -->
<g id="edge13" class="edge">
<title>systemtap&#45;runtime&#45;&gt;dyninst</title>
<path fill="none" stroke="#444444" stroke-opacity="0.333333" d="M933.4417,-281.4646C973.3422,-275.5403 1017.6206,-268.9659 1051.8794,-263.8793"/>
<polygon fill="#444444" fill-opacity="0.333333" stroke="#444444" stroke-opacity="0.333333" points="1052.7964,-267.2816 1062.1739,-262.3508 1051.7682,-260.3575 1052.7964,-267.2816"/>
</g>
<!-- systemtap&#45;runtime&#45;&gt;json&#45;c -->
<g id="edge14" class="edge">
<title>systemtap&#45;runtime&#45;&gt;json&#45;c</title>
<path fill="none" stroke="#444444" stroke-opacity="0.333333" d="M873.4399,-278.5168C882.7193,-274.5404 892.6454,-270.287 902.2502,-266.1712"/>
<polygon fill="#444444" fill-opacity="0.333333" stroke="#444444" stroke-opacity="0.333333" points="903.8989,-269.2726 911.712,-262.1167 901.1418,-262.8384 903.8989,-269.2726"/>
</g>
<!-- systemtap&#45;devel&#45;&gt;avahi&#45;libs -->
<g id="edge15" class="edge">
<title>systemtap&#45;devel&#45;&gt;avahi&#45;libs</title>
<path fill="none" stroke="#444444" stroke-opacity="0.333333" d="M275.8107,-342.1714C299.4562,-325.7549 334.526,-301.4069 360.5607,-283.3317"/>
<polygon fill="#444444" fill-opacity="0.333333" stroke="#444444" stroke-opacity="0.333333" points="362.7957,-286.0409 369.014,-277.4628 358.8035,-280.2908 362.7957,-286.0409"/>
</g>
<!-- systemtap&#45;devel&#45;&gt;kernel&#45;devel -->
<g id="edge16" class="edge">
<title>systemtap&#45;devel&#45;&gt;kernel&#45;devel</title>
<path fill="none" stroke="#444444" stroke-opacity="0.333333" d="M158.7654,-374.7929C158.6105,-374.8176 158.4557,-374.8424 158.3009,-374.8672"/>
<polygon fill="#444444" fill-opacity="0.333333" stroke="#444444" stroke-opacity="0.333333" points="160.6739,-370.9429 151.3524,-375.9787 161.7798,-377.855 160.6739,-370.9429"/>
</g>
<!-- systemtap&#45;&gt;systemtap&#45;client -->
<g id="edge17" class="edge">
<title>systemtap&#45;&gt;systemtap&#45;client</title>
<path fill="none" stroke="#444444" stroke-opacity="0.333333" d="M444.4932,-403.5172C471.6565,-387.1226 511.8106,-362.8874 541.4244,-345.0138"/>
<polygon fill="#444444" fill-opacity="0.333333" stroke="#444444" stroke-opacity="0.333333" points="543.4975,-347.8507 550.2504,-339.6868 539.8804,-341.8577 543.4975,-347.8507"/>
</g>
<!-- systemtap&#45;&gt;systemtap&#45;devel -->
<g id="edge18" class="edge">
<title>systemtap&#45;&gt;systemtap&#45;devel</title>
<path fill="none" stroke="#444444" stroke-opacity="0.333333" d="M365.9401,-403.5542C347.6816,-396.7432 326.7373,-388.9302 307.7069,-381.8312"/>
<polygon fill="#444444" fill-opacity="0.333333" stroke="#444444" stroke-opacity="0.333333" points="308.8401,-378.5184 298.2474,-378.3025 306.3935,-385.0769 308.8401,-378.5184"/>
</g>
<!-- boost&#45;chrono -->
<g id="node1" class="node">
<title>boost&#45;chrono</title>
<text text-anchor="middle" x="1089.9" y="-14.3" font-family="monospace" font-size="14.00" fill="#000000">boost&#45;chrono</text>
</g>
<!-- boost&#45;system -->
<g id="node2" class="node">
<title>boost&#45;system</title>
<text text-anchor="middle" x="1174.4" y="-92.787" font-family="monospace" font-size="14.00" fill="#000000">boost&#45;system</text>
</g>
<!-- boost&#45;thread -->
<g id="node3" class="node">
<title>boost&#45;thread</title>
<text text-anchor="middle" x="1014.1" y="-103.94" font-family="monospace" font-size="14.00" fill="#000000">boost&#45;thread</text>
</g>
<!-- curl&#45;minimal -->
<g id="node4" class="node">
<title>curl&#45;minimal</title>
<text text-anchor="middle" x="1120.1" y="-721.36" font-family="monospace" font-size="14.00" fill="#000000">curl&#45;minimal</text>
</g>
<!-- libcurl&#45;minimal -->
<g id="node5" class="node">
<title>libcurl&#45;minimal</title>
<text text-anchor="middle" x="1145.6" y="-893.26" font-family="monospace" font-size="14.00" fill="#000000">libcurl&#45;minimal</text>
</g>
<!-- dyninst -->
<g id="node6" class="node">
<title>dyninst</title>
<text text-anchor="middle" x="1110.2" y="-251.52" font-family="monospace" font-size="14.00" fill="#000000">dyninst</text>
</g>
<!-- boost&#45;atomic -->
<g id="node7" class="node">
<title>boost&#45;atomic</title>
<text text-anchor="middle" x="1320.6" y="-211.62" font-family="monospace" font-size="14.00" fill="#000000">boost&#45;atomic</text>
</g>
<!-- boost&#45;date&#45;time -->
<g id="node8" class="node">
<title>boost&#45;date&#45;time</title>
<text text-anchor="middle" x="1266.4" y="-369.88" font-family="monospace" font-size="14.00" fill="#000000">boost&#45;date&#45;time</text>
</g>
<!-- libdwarf -->
<g id="node9" class="node">
<title>libdwarf</title>
<text text-anchor="middle" x="1116.3" y="-508.13" font-family="monospace" font-size="14.00" fill="#000000">libdwarf</text>
</g>
<!-- systemtap&#45;client -->
<g id="node10" class="node">
<title>systemtap&#45;client</title>
<text text-anchor="middle" x="580.35" y="-317.82" font-family="monospace" font-size="14.00" fill="#000000">systemtap&#45;client</text>
</g>
<!-- avahi&#45;libs -->
<g id="node11" class="node">
<title>avahi&#45;libs</title>
<text text-anchor="middle" x="395.29" y="-255.52" font-family="monospace" font-size="14.00" fill="#000000">avahi&#45;libs</text>
</g>
<!-- systemtap&#45;runtime -->
<g id="node12" class="node">
<title>systemtap&#45;runtime</title>
<text text-anchor="middle" x="831.1" y="-292.96" font-family="monospace" font-size="14.00" fill="#000000">systemtap&#45;runtime</text>
</g>
<!-- json&#45;c -->
<g id="node13" class="node">
<title>json&#45;c</title>
<text text-anchor="middle" x="954.13" y="-240.24" font-family="monospace" font-size="14.00" fill="#000000">json&#45;c</text>
</g>
<!-- systemtap&#45;devel -->
<g id="node14" class="node">
<title>systemtap&#45;devel</title>
<text text-anchor="middle" x="249.8" y="-356.53" font-family="monospace" font-size="14.00" fill="#000000">systemtap&#45;devel</text>
</g>
<!-- kernel&#45;devel -->
<g id="node15" class="node">
<title>kernel&#45;devel</title>
<text text-anchor="middle" x="75.393" y="-384.43" font-family="monospace" font-size="14.00" fill="#000000">kernel&#45;devel</text>
</g>
<!-- systemtap -->
<g id="node16" class="node">
<title>systemtap</title>
<text text-anchor="middle" x="414.45" y="-417.95" font-family="monospace" font-size="14.00" fill="#000000">systemtap</text>
</g>
</g>
</svg>
