<?xml version="1.0" encoding="UTF-8" standalone="no"?>
<!DOCTYPE svg PUBLIC "-//W3C//DTD SVG 1.1//EN"
 "http://www.w3.org/Graphics/SVG/1.1/DTD/svg11.dtd">
<!-- Generated by graphviz version 2.40.1 (20161225.0304)
 -->
<!-- Title: G Pages: 1 -->
<svg width="2056pt" height="571pt"
 viewBox="0.00 0.00 2055.94 570.78" xmlns="http://www.w3.org/2000/svg" xmlns:xlink="http://www.w3.org/1999/xlink">
<g id="graph0" class="graph" transform="scale(1 1) rotate(0) translate(49.778 484.1725)">
<title>G</title>
<polygon fill="#dae2ff" stroke="transparent" points="-49.778,86.6033 -49.778,-484.1725 2006.1636,-484.1725 2006.1636,86.6033 -49.778,86.6033"/>
<polygon fill="#fed9a6" stroke="#fed9a6" points="1329.5092,-91.8947 1327.424,-93.1285 1320.5632,-98.1883 1309.6377,-103.0922 1305.835,-104.2186 1300.0331,-105.0778 1294.3722,-105.0699 1294.2014,-105.0963 1287.2244,-105.125 1287.0016,-105.1604 1281.5729,-105.2116 1282.775,-77.3874 1282.5104,-77.2994 1282.0938,-44.8719 1286.3961,-40.9348 1291.3177,-35.3723 1266.8938,-34.0161 1255.9506,-37.1545 1250.2993,-33.4228 1248.5994,-30.6766 1244.7549,-30.6766 1243.8358,-30.3805 1239.2767,-30.3805 1236.04,44.8702 1232.8219,-30.3937 1228.0958,-30.3937 1225.0736,16.1 1221.1826,-28.9407 1216.6458,-26.1933 1216.6458,-26.1933 1221.1826,-28.9407 1225.0736,16.1 1228.0958,-30.3937 1232.8219,-30.3937 1236.04,44.8702 1239.2767,-30.3805 1243.8358,-30.3805 1244.7549,-30.6766 1248.5994,-30.6766 1250.2993,-33.4228 1255.9506,-37.1545 1266.8938,-34.0161 1291.3177,-35.3723 1286.3961,-40.9348 1282.0938,-44.8719 1282.5104,-77.2994 1282.775,-77.3874 1281.5729,-105.2116 1276.4265,-106.0423 1271.6307,-107.5437 1266.0895,-110.1353 1260.905,-113.3745 1253.5283,-119.175 1244.4666,-127.7135 1241.8719,-130.9591 1241.5643,-131.2518 1233.9921,-133.8261 1229.009,-135.869 1224.9032,-137.8404 1217.4146,-141.9698 1216.0027,-147.3889 1215.2531,-151.09 1213.0122,-176.3015 1212.4991,-178.8362 1190.1414,-264.6501 1167.5613,-266.5107 1150.1774,-268.4082 1144.556,-264.6055 1134.443,-258.8957 1133.854,-210.0287 1133.854,-210.0287 1134.443,-258.8957 1122.7415,-253.1407 1105.5874,-245.9562 1107.0522,-219.6971 1107.0522,-219.6971 1105.5874,-245.9562 1104.11,-245.4479 1093.0745,-242.4439 1082.2742,-239.8972 1072.812,-238.3604 1061.7671,-236.9725 989.7808,-230.5878 976.1779,-222.2089 973.7509,-177.3949 973.5549,-168.3123 973.4462,-166.3238 973.3143,-160.2519 962.0626,-137.9365 939.5094,-88.718 929.7806,-69.3261 926.4239,-63.5752 908.5152,-43.831 924.6608,-19.1883 926.727,-15.543 960.2866,48.4968 990.3023,75.3441 1003.2989,79.402 1021.3217,79.345 1036.444,80.2999 1046.7091,81.6275 1051.6982,82.6033 1051.9053,82.5201 1055.9027,-14.9141 1049.9446,-13.0079 1049.9446,-13.0079 1055.9027,-14.9141 1051.9053,82.5201 1064.134,78.055 1072.7642,75.5482 1085.2933,72.3766 1136.1378,61.4379 1169.4005,71.6562 1173.2776,71.5115 1173.4042,16.0924 1173.4042,16.0924 1173.2776,71.5115 1175.1056,71.5549 1190.8008,72.4081 1195.5641,72.9584 1200.8997,71.6421 1210.0099,69.6884 1225.6268,67.8417 1236.0371,67.2794 1245.8538,67.379 1263.438,68.687 1272.5593,69.6559 1287.2666,63.5949 1343.9984,8.8219 1357.0603,2.8687 1359.9214,-39.2804 1360.375,-60.0146 1360.275,-60.1353 1356.0051,-64.8572 1352.6246,-69.4712 1344.4271,-78.5489 1336.6278,-86.1863 1331.8446,-90.2274 1329.5092,-91.8947 1329.5092,-91.8947"/>
<polygon fill="#ccebc5" stroke="#ccebc5" points="1976.6111,-367.1711 1996.228,-298.1 2002.1636,-283.2076 1974.4618,-225.6417 1975.8724,-211.3918 1980.7616,-174.8545 1923.2708,-180.788 1885.1063,-181.4176 1879.1755,-186.9779 1879.0111,-187.2719 1878.4197,-187.4548 1874.597,-187.4548 1874.3354,-187.3753 1874.3354,-187.3753 1874.597,-187.4548 1878.4197,-187.4548 1879.0111,-187.2719 1879.1755,-186.9779 1885.1063,-181.4176 1923.2708,-180.788 1980.7616,-174.8545 1984.6155,-155.6467 1941.0099,-104.2819 1939.8212,-98.8182 1937.0565,-80.2034 1933.5918,-49.6544 1901.0133,-9.9045 1859.7764,1.2427 1844.7102,.2556 1831.7471,.2762 1832.5137,-48.9284 1829.6709,-92.6389 1824.6176,-92.6389 1824.4318,-92.6971 1819.1355,-92.6971 1819.1215,-92.6927 1813.0533,-92.6927 1812.6812,-92.5771 1808.5867,-92.5771 1808.5192,-92.556 1802.7426,-92.556 1802.2231,-93.2212 1796.4275,-96.9587 1790.4172,-96.9587 1794.7336,-139.9181 1792.8412,-140.0356 1789.3759,-187.0943 1790.3186,-187.3916 1795.1294,-187.3916 1798.408,-245.7289 1798.407,-249.5607 1799.9814,-250.9434 1799.6086,-252.221 1743.7515,-265.8156 1740.7465,-226.8162 1737.9808,-226.0344 1732.2543,-223.9119 1726.7021,-221.3644 1719.4563,-217.3982 1720.449,-270.6756 1714.1602,-266.4554 1709.0944,-266.4554 1702.4276,-270.9702 1702.5795,-271.1698 1702.5795,-271.1698 1702.4276,-270.9702 1709.0944,-266.4554 1714.1602,-266.4554 1720.449,-270.6756 1719.4563,-217.3982 1726.7021,-221.3644 1732.2543,-223.9119 1737.9808,-226.0344 1740.7465,-226.8162 1762.2921,-231.0455 1762.0319,-193.2928 1705.2246,-194.8268 1702.2095,-183.6009 1701.8528,-182.6739 1651.7396,-192.5301 1649.0403,-192.7446 1642.7845,-192.5162 1643.6317,-163.2376 1641.4556,-160.467 1641.4556,-160.467 1643.6317,-163.2376 1642.7845,-192.5162 1649.0403,-192.7446 1651.7396,-192.5301 1701.8528,-182.6739 1702.2095,-183.6009 1705.2246,-194.8268 1762.0319,-193.2928 1762.2921,-231.0455 1740.7465,-226.8162 1743.7515,-265.8156 1799.6086,-252.221 1799.9814,-250.9434 1798.407,-249.5607 1798.408,-245.7289 1795.1294,-187.3916 1790.3186,-187.3916 1789.3759,-187.0943 1792.8412,-140.0356 1794.7336,-139.9181 1790.4172,-96.9587 1796.4275,-96.9587 1802.2231,-93.2212 1802.7426,-92.556 1801.6127,-91.1059 1796.5902,-88.0198 1796.5902,-88.0198 1801.6127,-91.1059 1802.7426,-92.556 1808.5192,-92.556 1808.5867,-92.5771 1812.6812,-92.5771 1813.0533,-92.6927 1819.1215,-92.6927 1819.1355,-92.6971 1824.4318,-92.6971 1824.6176,-92.6389 1829.6709,-92.6389 1832.5137,-48.9284 1831.7471,.2762 1824.65,.7633 1818.8682,1.3539 1804.2636,3.8305 1795.8386,5.8243 1781.5444,10.174 1780.6932,10.49 1772.0073,21.537 1715.3127,55.6232 1693.6952,52.6299 1692.5834,-31.3674 1731.408,-37.766 1740.1313,-37.766 1737.6963,-40.9477 1737.6963,-40.9477 1740.1313,-37.766 1731.408,-37.766 1692.5834,-31.3674 1693.6952,52.6299 1682.4412,51.4754 1664.4093,51.5704 1663.4404,51.6103 1647.2919,53.4398 1652.5974,-33.0915 1646.8462,-36.7718 1646.1455,-37.6895 1647.407,-39.3709 1651.8452,-42.1192 1651.8452,-42.1192 1647.407,-39.3709 1646.1455,-37.6895 1646.8462,-36.7718 1652.5974,-33.0915 1647.2919,53.4398 1643.6154,53.9875 1640.774,54.5122 1636.7413,55.5489 1629.9155,53.7977 1619.0775,51.4172 1565.6816,43.651 1539.6639,35.1981 1526.2639,38.7691 1517.577,39.0062 1499.9,40.0033 1500.4523,-32.3625 1504.3496,-66.8359 1503.4601,-68.5962 1503.6539,-68.7865 1503.0955,-103.9999 1502.2153,-104.9769 1499.875,-107.0648 1492.6075,-114.935 1491.1001,-116.8429 1485.1904,-122.3222 1477.6329,-130.2894 1473.2068,-136.1039 1472.8153,-136.1154 1472.7061,-136.2298 1469.1278,-139.6141 1467.5441,-141.2855 1466.4551,-203.4732 1461.8979,-203.4732 1460.9387,-205.1495 1454.7131,-210.0678 1442.3776,-207.3681 1422.4664,-209.1273 1422.4664,-209.1273 1442.3776,-207.3681 1454.7131,-210.0678 1460.9387,-205.1495 1461.8979,-203.4732 1466.4551,-203.4732 1467.5441,-141.2855 1457.7076,-150.5725 1456.0243,-151.9605 1408.2583,-186.0898 1408.0376,-186.2696 1408.0122,-186.2931 1407.6714,-189.871 1406.9916,-193.989 1400.33,-199.1339 1392.1256,-204.5766 1382.3826,-208.929 1378.4993,-210.2374 1373.2161,-211.4515 1367.0858,-212.2033 1366.9977,-242.9823 1372.4625,-246.3004 1373.3057,-247.3378 1371.7495,-249.3787 1367.5874,-251.9038 1367.5874,-251.9038 1371.7495,-249.3787 1373.3057,-247.3378 1372.4625,-246.3004 1366.9977,-242.9823 1367.0858,-212.2033 1373.2161,-211.4515 1378.4993,-210.2374 1382.3826,-208.929 1392.1256,-204.5766 1400.33,-199.1339 1406.9916,-193.989 1407.6714,-189.871 1408.0122,-186.2931 1402.412,-181.258 1397.1422,-177.16 1394.1093,-173.1622 1390.5494,-169.2568 1382.0699,-161.6942 1378.1827,-159.1158 1372.3644,-156.494 1367.1571,-155.2644 1361.3528,-155.1373 1361.0757,-133.1559 1359.1648,-133.1559 1356.1823,-130.4041 1356.1823,-130.4041 1359.1648,-133.1559 1361.0757,-133.1559 1361.3528,-155.1373 1367.1571,-155.2644 1372.3644,-156.494 1378.1827,-159.1158 1382.0699,-161.6942 1390.5494,-169.2568 1394.1093,-173.1622 1397.1422,-177.16 1402.412,-181.258 1408.0122,-186.2931 1408.0376,-186.2696 1408.2583,-186.0898 1456.0243,-151.9605 1457.7076,-150.5725 1467.5441,-141.2855 1469.1278,-139.6141 1472.7061,-136.2298 1472.8153,-136.1154 1473.2068,-136.1039 1477.6329,-130.2894 1485.1904,-122.3222 1491.1001,-116.8429 1492.6075,-114.935 1499.875,-107.0648 1502.2153,-104.9769 1503.0955,-103.9999 1503.6539,-68.7865 1503.4601,-68.5962 1504.3496,-66.8359 1500.4523,-32.3625 1496.9165,-68.5182 1493.2634,-68.5182 1487.8832,-28.1085 1485.9323,-68.7274 1481.3084,-68.7274 1481.262,-68.7123 1477.7874,-68.7123 1474.5267,-71.9388 1469.293,-73.5882 1463.1052,-71.6094 1460.1482,-68.8792 1458.2427,-68.8792 1458.0393,-68.8138 1458.0393,-68.8138 1458.2427,-68.8792 1460.1482,-68.8792 1463.1052,-71.6094 1469.293,-73.5882 1474.5267,-71.9388 1477.7874,-68.7123 1481.262,-68.7123 1481.3084,-68.7274 1485.9323,-68.7274 1487.8832,-28.1085 1493.2634,-68.5182 1496.9165,-68.5182 1500.4523,-32.3625 1499.9,40.0033 1490.5267,41.076 1485.0706,37.9865 1480.8878,35.9317 1469.0596,30.9755 1458.2188,26.8314 1444.241,23.0251 1435.8275,21.0448 1429.8734,20.0821 1392.3085,15.3825 1357.0603,2.8687 1359.9214,-39.2804 1360.375,-60.0146 1360.275,-60.1353 1356.0051,-64.8572 1352.6246,-69.4712 1344.4271,-78.5489 1336.6278,-86.1863 1331.8446,-90.2274 1329.5092,-91.8947 1327.424,-93.1285 1320.5632,-98.1883 1309.6377,-103.0922 1305.835,-104.2186 1300.0331,-105.0778 1294.3722,-105.0699 1294.2014,-105.0963 1287.2244,-105.125 1287.0016,-105.1604 1281.5729,-105.2116 1276.4265,-106.0423 1271.6307,-107.5437 1266.0895,-110.1353 1260.905,-113.3745 1253.5283,-119.175 1244.4666,-127.7135 1241.8719,-130.9591 1241.5643,-131.2518 1233.9921,-133.8261 1229.009,-135.869 1224.9032,-137.8404 1217.4146,-141.9698 1216.0027,-147.3889 1215.2531,-151.09 1213.0122,-176.3015 1252.9805,-174.7108 1269.2963,-170.6714 1269.2963,-170.6714 1252.9805,-174.7108 1213.0122,-176.3015 1212.4991,-178.8362 1190.1414,-264.6501 1203.2705,-270.7521 1277.432,-352.1937 1304.2568,-353.7603 1314.9069,-340.0219 1314.6248,-321.9652 1314.6248,-321.9652 1314.9069,-340.0219 1304.2568,-353.7603 1348.384,-389.4043 1370.0747,-400.399 1392.9269,-407.465 1433.2803,-453.9848 1450.8568,-461.7969 1472.2592,-456.7169 1473.4613,-456.4764 1481.7252,-455.1285 1492.3723,-453.7878 1495.7732,-453.613 1510.9849,-453.3969 1510.5619,-439.6217 1511.614,-367.0184 1512.108,-366.3803 1505.4642,-361.9391 1500.0952,-361.9391 1498.7395,-331.2762 1500.3918,-329.7027 1469.9429,-322.0303 1467.1365,-318.5713 1464.2947,-317.1937 1464.2352,-317.1353 1464.0912,-317.087 1458.1765,-317.087 1457.8494,-316.9779 1452.5652,-316.9779 1451.8428,-317.2154 1447.454,-317.2154 1446.1025,-316.7695 1444.0879,-316.7695 1440.6952,-313.5458 1440.6952,-313.5458 1444.0879,-316.7695 1446.1025,-316.7695 1447.454,-317.2154 1451.8428,-317.2154 1452.5652,-316.9779 1457.8494,-316.9779 1458.1765,-317.087 1464.0912,-317.087 1464.2352,-317.1353 1464.2947,-317.1937 1467.1365,-318.5713 1469.9429,-322.0303 1500.3918,-329.7027 1498.7395,-331.2762 1500.0952,-361.9391 1505.4642,-361.9391 1512.108,-366.3803 1511.614,-367.0184 1510.5619,-439.6217 1510.9849,-453.3969 1518.5505,-453.8524 1522.7743,-454.2635 1523.9432,-454.4208 1538.4133,-456.9111 1554.7557,-460.3267 1587.0977,-449.7668 1622.0969,-419.3281 1608.5543,-399.1556 1600.5842,-388.232 1597.5874,-384.495 1591.7289,-378.4832 1586.7491,-372.0674 1587.2008,-318.2676 1592.5458,-319.9565 1599.2095,-317.6871 1602.2225,-314.7279 1599.9393,-312.6188 1599.9393,-312.6188 1602.2225,-314.7279 1599.2095,-317.6871 1592.5458,-319.9565 1587.2008,-318.2676 1586.7491,-372.0674 1591.7289,-378.4832 1597.5874,-384.495 1600.5842,-388.232 1608.5543,-399.1556 1622.0969,-419.3281 1622.8396,-419.1657 1623.354,-419.0697 1638.0056,-416.8002 1688.1484,-389.7604 1705.9496,-376.1828 1717.2729,-374.7766 1728.1047,-374.1004 1743.0969,-374.0904 1768.8357,-375.661 1803.7808,-398.3346 1827.6437,-406.2784 1840.8796,-409.403 1855.295,-413.6819 1860.1716,-412.3119 1871.1898,-410.1801 1877.8091,-409.0922 1891.196,-407.2819 1891.4752,-407.2605 1906.2498,-406.9819 1911.1506,-404.0261 1976.6111,-367.1711 1976.6111,-367.1711"/>
<polygon fill="#fbb4ae" stroke="#fbb4ae" points="-28.1821,-460.9158 -40.5745,-415.1505 -45.4395,-399.4032 -45.778,-396.8939 -39.537,-368.6675 -33.2863,-326.2832 8.5147,-301.2774 52.7086,-291.2267 58.3074,-289.5482 71.4168,-284.6476 76.6514,-291.9222 82.5377,-299.0226 84.6662,-301.4031 88.931,-305.8173 98.9604,-317.1499 102.563,-320.4953 107.8779,-324.9393 113.4699,-330.8933 116.7415,-333.9569 116.7415,-333.9569 113.4699,-330.8933 107.8779,-324.9393 102.563,-320.4953 98.9604,-317.1499 88.931,-305.8173 84.6662,-301.4031 82.5377,-299.0226 76.6514,-291.9222 71.4168,-284.6476 97.0715,-243.1858 114.5836,-224.4857 162.4474,-227.3498 165.5923,-227.4279 173.5031,-227.3477 180.713,-227.0227 177.8366,-319.2896 177.9844,-319.3383 183.5693,-319.3383 183.9015,-319.2269 186.8602,-319.2269 190.3781,-315.6983 194.9543,-314.2835 194.9543,-314.2835 190.3781,-315.6983 186.8602,-319.2269 183.9015,-319.2269 183.5693,-319.3383 177.9844,-319.3383 177.8366,-319.2896 180.713,-227.0227 181.7772,-226.9376 201.8315,-223.9208 213.0724,-221.0491 221.0101,-218.7432 224.9423,-217.4642 231.7917,-214.997 232.422,-214.748 251.7202,-238.9673 252.5183,-240.0572 332.601,-246.4441 328.166,-251.5556 331.7406,-318.0078 334.6933,-245.6939 339.8116,-245.6939 340.4957,-245.4635 343.3629,-245.4635 346.962,-249.2357 351.9319,-250.841 351.9319,-250.841 346.962,-249.2357 343.3629,-245.4635 340.4957,-245.4635 339.8116,-245.6939 334.6933,-245.6939 331.7406,-318.0078 328.166,-251.5556 332.601,-246.4441 252.5183,-240.0572 251.7202,-238.9673 232.422,-214.748 236.5878,-207.6388 270.4432,-171.6354 273.068,-172.5925 358.5598,-159.5073 361.8806,-156.0666 362.9701,-155.6402 364.601,-154.1449 369.8308,-154.1449 369.8694,-154.1319 375.6709,-154.1319 376.0142,-154.2477 374.0456,-199.6172 378.1754,-199.912 376.1328,-239.6676 416.76,-242.0208 399.9215,-210.9583 435.7198,-204.1387 438.4087,-200.9829 441.722,-199.7203 442.9081,-198.7002 446.7056,-198.7002 446.8513,-198.7477 453.006,-198.7477 454.43,-273.4759 459.5811,-198.7042 461.5037,-198.7042 464.7135,-201.816 470.4699,-203.6878 470.4699,-203.6878 464.7135,-201.816 461.5037,-198.7042 459.5811,-198.7042 454.43,-273.4759 453.006,-198.7477 446.8513,-198.7477 446.7056,-198.7002 442.9081,-198.7002 441.722,-199.7203 438.4087,-200.9829 435.7198,-204.1387 399.9215,-210.9583 416.76,-242.0208 376.1328,-239.6676 378.1754,-199.912 374.0456,-199.6172 376.0142,-154.2477 375.6709,-154.1319 375.5406,-116.4379 380.1084,-120.9159 387.2921,-126.4616 387.2242,-151.0795 393.3145,-149.0826 399.076,-150.8914 398.3206,-131.1766 404.9417,-131.9333 408.1603,-131.5782 411.0888,-131.9078 411.906,-131.8195 416.0623,-132.2941 421.15,-131.7285 421.411,-131.7575 424.6778,-131.4027 428.7126,-131.8565 429.6526,-131.7554 431.5349,-110.0838 433.445,-110.0838 436.2093,-112.7095 442.5424,-114.7946 442.5424,-114.7946 436.2093,-112.7095 433.445,-110.0838 431.5349,-110.0838 429.6526,-131.7554 428.7126,-131.8565 424.6778,-131.4027 421.411,-131.7575 421.15,-131.7285 416.0623,-132.2941 411.906,-131.8195 411.0888,-131.9078 408.1603,-131.5782 404.9417,-131.9333 398.3206,-131.1766 399.076,-150.8914 393.3145,-149.0826 387.2242,-151.0795 387.2921,-126.4616 380.1084,-120.9159 375.5406,-116.4379 375.6709,-154.1319 369.8694,-154.1319 369.8308,-154.1449 364.601,-154.1449 362.9701,-155.6402 361.8806,-156.0666 358.5598,-159.5073 273.068,-172.5925 270.4432,-171.6354 276.7503,-145.0906 286.4242,-83.8352 288.7682,-80.0562 288.2243,-55.2233 288.0292,-51.7789 294.1363,-32.8341 297.0264,-22.571 312.2894,40.907 327.3287,59.8367 371.4898,57.6128 376.6674,56.6679 386.8297,55.1732 388.0759,55.0344 388.7342,54.898 406.9148,52.4489 417.113,51.8233 429.6688,52.4296 439.1863,53.2376 440.45,53.3909 451.7259,55.1722 489.4967,62.507 495.5396,-15.0636 495.6922,-27.4045 496.4084,-36.4474 530.2328,-33.3808 544.7618,-35.7596 544.4393,-92.1473 546.7733,-92.0859 552.0999,-92.2287 557.1782,-92.079 555.941,-29.6568 561.3512,-29.6568 561.8636,-29.4927 566.8243,-29.4927 567.2306,-29.3596 567.2306,-29.3596 566.8243,-29.4927 561.8636,-29.4927 561.3512,-29.6568 555.941,-29.6568 557.1782,-92.079 552.0999,-92.2287 546.7733,-92.0859 544.4393,-92.1473 544.7618,-35.7596 530.2328,-33.3808 496.4084,-36.4474 495.6922,-27.4045 495.5396,-15.0636 489.4967,62.507 506.4964,76.1954 513.7919,81.7973 545.0656,72.4955 563.1324,68.3064 565.1291,67.9765 581.2809,66.3657 581.9568,66.3207 586.3871,65.3625 598.5598,63.5663 601.7242,63.2089 609.6031,62.59 614.3916,62.3788 624.6603,62.6325 633.827,63.1745 652.7028,64.9375 653.9637,64.5265 711.7488,21.2585 721.8075,11.6554 734.3928,-14.2739 746.9172,-36.594 748.3661,-40.6706 783.6333,-50.4871 795.9421,-53.1747 805.4316,-54.6758 816.9413,-55.8051 827.2233,-56.5039 830.1465,-56.5264 833.3813,-56.454 845.6404,-55.8095 852.1681,-55.2697 863.843,-53.6 866.254,-53.1829 871.7438,-52.0674 885.9572,-48.75 904.6111,-43.8452 908.5152,-43.831 926.4239,-63.5752 929.7806,-69.3261 939.5094,-88.718 962.0626,-137.9365 973.3143,-160.2519 973.4462,-166.3238 973.5549,-168.3123 973.7509,-177.3949 976.1779,-222.2089 939.2748,-240.149 882.8246,-256.6658 850.3441,-305.2486 816.2928,-320.5537 794.6834,-321.5149 784.2461,-322.3874 776.3881,-323.6591 762.0885,-326.535 758.1207,-327.6402 756.1221,-239.5346 756.1221,-239.5346 758.1207,-327.6402 754.1559,-328.9003 649.0573,-279.0188 641.7639,-269.7442 601.9698,-267.9918 593.0304,-267.8563 592.957,-267.8426 521.6415,-289.1152 512.1689,-289.6397 492.5837,-291.4237 482.742,-293.3667 470.7528,-296.16 465.635,-297.7124 459.5982,-299.7581 432.4266,-331.9327 383.1932,-357.901 364.9244,-368.2279 364.4436,-368.5168 362.24,-369.9211 356.7666,-369.8006 340.7678,-370.2835 305.0312,-398.3833 237.0205,-411.0483 220.1085,-414.8163 182.7756,-463.8076 152.7868,-473.9747 134.2031,-473.7039 124.911,-473.8961 121.1576,-474.1058 110.6811,-475.431 98.506,-477.8353 95.1734,-477.3629 86.3567,-476.7163 82.8638,-476.5795 82.4221,-385.0364 88.2462,-388.6739 93.5793,-388.6739 100.3211,-384.3661 99.7788,-383.6653 99.7788,-383.6653 100.3211,-384.3661 93.5793,-388.6739 88.2462,-388.6739 82.4221,-385.0364 82.8638,-476.5795 76.3055,-476.5462 66.8421,-476.8209 66.6391,-465.0669 64.9762,-435.7679 64.9762,-435.7679 66.6391,-465.0669 66.8421,-476.8209 48.1889,-479.2751 43.6882,-480.1725 -28.1821,-460.9158 -28.1821,-460.9158"/>
<polyline fill="none" stroke="#000000" points="962.0626,-137.9365 973.3143,-160.2519 973.4462,-166.3238 973.5549,-168.3123 973.7509,-177.3949 976.1779,-222.2089 989.7808,-230.5878 1061.7671,-236.9725 1072.812,-238.3604 1082.2742,-239.8972 1093.0745,-242.4439 1104.11,-245.4479 1105.5874,-245.9562 1122.7415,-253.1407 1134.443,-258.8957 1144.556,-264.6055 1150.1774,-268.4082 1167.5613,-266.5107 1190.1414,-264.6501 1212.4991,-178.8362 1213.0122,-176.3015 1215.2531,-151.09 1216.0027,-147.3889 1217.4146,-141.9698 1224.9032,-137.8404 1229.009,-135.869 1233.9921,-133.8261 1241.5643,-131.2518 1241.8719,-130.9591 1244.4666,-127.7135 1253.5283,-119.175 1260.905,-113.3745 1266.0895,-110.1353 1271.6307,-107.5437 1276.4265,-106.0423 1281.5729,-105.2116 1287.0016,-105.1604 1287.2244,-105.125 1294.2014,-105.0963 1294.3722,-105.0699 1300.0331,-105.0778 1305.835,-104.2186 1309.6377,-103.0922 1320.5632,-98.1883 1327.424,-93.1285 1329.5092,-91.8947 1331.8446,-90.2274 1336.6278,-86.1863 1344.4271,-78.5489 1352.6246,-69.4712 1356.0051,-64.8572 1360.275,-60.1353 1360.375,-60.0146 1359.9214,-39.2804 1357.0603,2.8687 1343.9984,8.8219 1287.2666,63.5949 1272.5593,69.6559 1263.438,68.687 1245.8538,67.379 1236.0371,67.2794 1225.6268,67.8417 1210.0099,69.6884 1200.8997,71.6421 1195.5641,72.9584 1190.8008,72.4081 1175.1056,71.5549 1173.2776,71.5115 1169.4005,71.6562 1136.1378,61.4379 1085.2933,72.3766 1072.7642,75.5482 1064.134,78.055 1051.9053,82.5201 1051.6982,82.6033 1046.7091,81.6275 1036.444,80.2999 1021.3217,79.345 1003.2989,79.402 990.3023,75.3441 960.2866,48.4968 926.727,-15.543 924.6608,-19.1883 908.5152,-43.831 926.4239,-63.5752 929.7806,-69.3261 939.5094,-88.718 962.0626,-137.9365 "/>
<polyline fill="none" stroke="#000000" points="1190.1414,-264.6501 1203.2705,-270.7521 1277.432,-352.1937 1304.2568,-353.7603 1348.384,-389.4043 1370.0747,-400.399 1392.9269,-407.465 1433.2803,-453.9848 1450.8568,-461.7969 1472.2592,-456.7169 1473.4613,-456.4764 1481.7252,-455.1285 1492.3723,-453.7878 1495.7732,-453.613 1510.9849,-453.3969 1518.5505,-453.8524 1522.7743,-454.2635 1523.9432,-454.4208 1538.4133,-456.9111 1554.7557,-460.3267 1587.0977,-449.7668 1622.0969,-419.3281 1622.8396,-419.1657 1623.354,-419.0697 1638.0056,-416.8002 1688.1484,-389.7604 1705.9496,-376.1828 1717.2729,-374.7766 1728.1047,-374.1004 1743.0969,-374.0904 1768.8357,-375.661 1803.7808,-398.3346 1827.6437,-406.2784 1840.8796,-409.403 1855.295,-413.6819 1860.1716,-412.3119 1871.1898,-410.1801 1877.8091,-409.0922 1891.196,-407.2819 1891.4752,-407.2605 1906.2498,-406.9819 1911.1506,-404.0261 1976.6111,-367.1711 1996.228,-298.1 2002.1636,-283.2076 1974.4618,-225.6417 1975.8724,-211.3918 1980.7616,-174.8545 1984.6155,-155.6467 1941.0099,-104.2819 1939.8212,-98.8182 1937.0565,-80.2034 1933.5918,-49.6544 1901.0133,-9.9045 1859.7764,1.2427 1844.7102,.2556 1831.7471,.2762 1824.65,.7633 1818.8682,1.3539 1804.2636,3.8305 1795.8386,5.8243 1781.5444,10.174 1780.6932,10.49 1772.0073,21.537 1715.3127,55.6232 1693.6952,52.6299 1682.4412,51.4754 1664.4093,51.5704 1663.4404,51.6103 1647.2919,53.4398 1643.6154,53.9875 1640.774,54.5122 1636.7413,55.5489 1629.9155,53.7977 1619.0775,51.4172 1565.6816,43.651 1539.6639,35.1981 1526.2639,38.7691 1517.577,39.0062 1499.9,40.0033 1490.5267,41.076 1485.0706,37.9865 1480.8878,35.9317 1469.0596,30.9755 1458.2188,26.8314 1444.241,23.0251 1435.8275,21.0448 1429.8734,20.0821 1392.3085,15.3825 1357.0603,2.8687 1359.9214,-39.2804 1360.375,-60.0146 1360.275,-60.1353 1356.0051,-64.8572 1352.6246,-69.4712 1344.4271,-78.5489 1336.6278,-86.1863 1331.8446,-90.2274 1329.5092,-91.8947 1327.424,-93.1285 1320.5632,-98.1883 1309.6377,-103.0922 1305.835,-104.2186 1300.0331,-105.0778 1294.3722,-105.0699 1294.2014,-105.0963 1287.2244,-105.125 1287.0016,-105.1604 1281.5729,-105.2116 1276.4265,-106.0423 1271.6307,-107.5437 1266.0895,-110.1353 1260.905,-113.3745 1253.5283,-119.175 1244.4666,-127.7135 1241.8719,-130.9591 1241.5643,-131.2518 1233.9921,-133.8261 1229.009,-135.869 1224.9032,-137.8404 1217.4146,-141.9698 1216.0027,-147.3889 1215.2531,-151.09 1213.0122,-176.3015 1212.4991,-178.8362 1190.1414,-264.6501 "/>
<polyline fill="none" stroke="#000000" points="845.6404,-55.8095 852.1681,-55.2697 863.843,-53.6 866.254,-53.1829 871.7438,-52.0674 885.9572,-48.75 904.6111,-43.8452 908.5152,-43.831 926.4239,-63.5752 929.7806,-69.3261 939.5094,-88.718 962.0626,-137.9365 973.3143,-160.2519 973.4462,-166.3238 973.5549,-168.3123 973.7509,-177.3949 976.1779,-222.2089 939.2748,-240.149 882.8246,-256.6658 850.3441,-305.2486 816.2928,-320.5537 794.6834,-321.5149 784.2461,-322.3874 776.3881,-323.6591 762.0885,-326.535 758.1207,-327.6402 754.1559,-328.9003 649.0573,-279.0188 641.7639,-269.7442 601.9698,-267.9918 593.0304,-267.8563 592.957,-267.8426 521.6415,-289.1152 512.1689,-289.6397 492.5837,-291.4237 482.742,-293.3667 470.7528,-296.16 465.635,-297.7124 459.5982,-299.7581 432.4266,-331.9327 383.1932,-357.901 364.9244,-368.2279 364.4436,-368.5168 362.24,-369.9211 356.7666,-369.8006 340.7678,-370.2835 305.0312,-398.3833 237.0205,-411.0483 220.1085,-414.8163 182.7756,-463.8076 152.7868,-473.9747 134.2031,-473.7039 124.911,-473.8961 121.1576,-474.1058 110.6811,-475.431 98.506,-477.8353 95.1734,-477.3629 86.3567,-476.7163 82.8638,-476.5795 76.3055,-476.5462 66.8421,-476.8209 48.1889,-479.2751 43.6882,-480.1725 -28.1821,-460.9158 -40.5745,-415.1505 -45.4395,-399.4032 -45.778,-396.8939 -39.537,-368.6675 -33.2863,-326.2832 8.5147,-301.2774 52.7086,-291.2267 58.3074,-289.5482 71.4168,-284.6476 97.0715,-243.1858 114.5836,-224.4857 162.4474,-227.3498 165.5923,-227.4279 173.5031,-227.3477 180.713,-227.0227 181.7772,-226.9376 201.8315,-223.9208 213.0724,-221.0491 221.0101,-218.7432 224.9423,-217.4642 231.7917,-214.997 232.422,-214.748 236.5878,-207.6388 270.4432,-171.6354 276.7503,-145.0906 286.4242,-83.8352 288.7682,-80.0562 288.2243,-55.2233 288.0292,-51.7789 294.1363,-32.8341 297.0264,-22.571 312.2894,40.907 327.3287,59.8367 371.4898,57.6128 376.6674,56.6679 386.8297,55.1732 388.0759,55.0344 388.7342,54.898 406.9148,52.4489 417.113,51.8233 429.6688,52.4296 439.1863,53.2376 440.45,53.3909 451.7259,55.1722 489.4967,62.507 506.4964,76.1954 513.7919,81.7973 545.0656,72.4955 563.1324,68.3064 565.1291,67.9765 581.2809,66.3657 581.9568,66.3207 586.3871,65.3625 598.5598,63.5663 601.7242,63.2089 609.6031,62.59 614.3916,62.3788 624.6603,62.6325 633.827,63.1745 652.7028,64.9375 653.9637,64.5265 711.7488,21.2585 721.8075,11.6554 734.3928,-14.2739 746.9172,-36.594 748.3661,-40.6706 783.6333,-50.4871 795.9421,-53.1747 805.4316,-54.6758 816.9413,-55.8051 827.2233,-56.5039 830.1465,-56.5264 833.3813,-56.454 845.6404,-55.8095 "/>
<!-- systemtap&#45;&gt;systemtap&#45;devel -->
<g id="edge1" class="edge">
<title>systemtap&#45;&gt;systemtap&#45;devel</title>
<path fill="none" stroke="#444444" stroke-opacity="0.333333" d="M1113.443,-59.1174C1122.2668,-56.5961 1131.4478,-53.9728 1140.5109,-51.3832"/>
<polygon fill="#444444" fill-opacity="0.333333" stroke="#444444" stroke-opacity="0.333333" points="1141.6231,-54.7056 1150.2767,-48.5928 1139.6999,-47.9749 1141.6231,-54.7056"/>
</g>
<!-- systemtap&#45;&gt;systemtap&#45;client -->
<g id="edge2" class="edge">
<title>systemtap&#45;&gt;systemtap&#45;client</title>
<path fill="none" stroke="#444444" stroke-opacity="0.333333" d="M1068.809,-94.2865C1075.9659,-103.2229 1084.7095,-114.1406 1092.5453,-123.9247"/>
<polygon fill="#444444" fill-opacity="0.333333" stroke="#444444" stroke-opacity="0.333333" points="1089.876,-126.1909 1098.8591,-131.8084 1095.3398,-121.8151 1089.876,-126.1909"/>
</g>
<!-- systemtap&#45;devel&#45;&gt;avahi&#45;libs -->
<g id="edge3" class="edge">
<title>systemtap&#45;devel&#45;&gt;avahi&#45;libs</title>
<path fill="none" stroke="#444444" stroke-opacity="0.333333" d="M1121.9894,-23.5566C1121.834,-23.5446 1121.6786,-23.5327 1121.5232,-23.5207"/>
<polygon fill="#444444" fill-opacity="0.333333" stroke="#444444" stroke-opacity="0.333333" points="1124.8128,-20.2637 1114.5736,-22.9858 1124.2755,-27.2431 1124.8128,-20.2637"/>
</g>
<!-- systemtap&#45;devel&#45;&gt;kernel&#45;devel -->
<g id="edge4" class="edge">
<title>systemtap&#45;devel&#45;&gt;kernel&#45;devel</title>
<path fill="none" stroke="#444444" stroke-opacity="0.333333" d="M1231.1776,-48.8244C1232.1121,-49.7778 1233.0584,-50.7433 1234.0099,-51.714"/>
<polygon fill="#444444" fill-opacity="0.333333" stroke="#444444" stroke-opacity="0.333333" points="1231.7963,-54.4557 1241.2957,-59.1473 1236.7954,-49.5558 1231.7963,-54.4557"/>
</g>
<!-- systemtap&#45;client&#45;&gt;avahi&#45;libs -->
<g id="edge5" class="edge">
<title>systemtap&#45;client&#45;&gt;avahi&#45;libs</title>
<path fill="none" stroke="#444444" stroke-opacity="0.333333" d="M1104.6037,-131.7846C1093.8813,-109.5226 1075.5481,-71.4588 1063.0648,-45.5408"/>
<polygon fill="#444444" fill-opacity="0.333333" stroke="#444444" stroke-opacity="0.333333" points="1066.0877,-43.751 1058.595,-36.2604 1059.7811,-46.7886 1066.0877,-43.751"/>
</g>
<!-- systemtap&#45;client&#45;&gt;perl&#45;interpreter -->
<g id="edge6" class="edge">
<title>systemtap&#45;client&#45;&gt;perl&#45;interpreter</title>
<path fill="none" stroke="#444444" stroke-opacity="0.333333" d="M1210.3099,-162.9799C1210.4675,-163.0012 1210.6253,-163.0226 1210.783,-163.0439"/>
<polygon fill="#444444" fill-opacity="0.333333" stroke="#444444" stroke-opacity="0.333333" points="1207.503,-166.1315 1217.8823,-164.0055 1208.4426,-159.1949 1207.503,-166.1315"/>
</g>
<!-- systemtap&#45;client&#45;&gt;systemtap&#45;runtime -->
<g id="edge7" class="edge">
<title>systemtap&#45;client&#45;&gt;systemtap&#45;runtime</title>
<path fill="none" stroke="#444444" stroke-opacity="0.333333" d="M1016.2451,-153.2503C992.4644,-154.0859 966.8177,-154.9871 942.3892,-155.8454"/>
<polygon fill="#444444" fill-opacity="0.333333" stroke="#444444" stroke-opacity="0.333333" points="942.2404,-152.3484 932.3695,-156.1975 942.4862,-159.3441 942.2404,-152.3484"/>
</g>
<!-- kernel&#45;devel&#45;&gt;perl&#45;interpreter -->
<g id="edge8" class="edge">
<title>kernel&#45;devel&#45;&gt;perl&#45;interpreter</title>
<path fill="none" stroke="#444444" stroke-opacity="0.333333" d="M1269.4346,-95.709C1277.9296,-110.8943 1290.1363,-132.7146 1299.7778,-149.9493"/>
<polygon fill="#444444" fill-opacity="0.333333" stroke="#444444" stroke-opacity="0.333333" points="1296.8935,-151.9626 1304.8303,-158.981 1303.0026,-148.545 1296.8935,-151.9626"/>
</g>
<!-- perl&#45;interpreter&#45;&gt;perl&#45;libs -->
<g id="edge9" class="edge">
<title>perl&#45;interpreter&#45;&gt;perl&#45;libs</title>
<path fill="none" stroke="#444444" stroke-opacity="0.333333" d="M1412.3729,-192.7122C1459.518,-200.2421 1515.0165,-209.1062 1557.739,-215.9297"/>
<polygon fill="#444444" fill-opacity="0.333333" stroke="#444444" stroke-opacity="0.333333" points="1557.33,-219.4087 1567.7569,-217.5298 1558.4341,-212.4963 1557.33,-219.4087"/>
</g>
<!-- perl&#45;interpreter&#45;&gt;perl&#45;Carp -->
<g id="edge10" class="edge">
<title>perl&#45;interpreter&#45;&gt;perl&#45;Carp</title>
<path fill="none" stroke="#444444" stroke-opacity="0.333333" d="M1412.277,-192.6051C1412.3837,-192.622 1412.4904,-192.6389 1412.597,-192.6559"/>
<polygon fill="#444444" fill-opacity="0.333333" stroke="#444444" stroke-opacity="0.333333" points="1411.9718,-196.1004 1422.3969,-194.2118 1413.0695,-189.187 1411.9718,-196.1004"/>
</g>
<!-- perl&#45;interpreter&#45;&gt;perl&#45;Exporter -->
<g id="edge11" class="edge">
<title>perl&#45;interpreter&#45;&gt;perl&#45;Exporter</title>
<path fill="none" stroke="#444444" stroke-opacity="0.333333" d="M1412.3368,-170.8336C1445.5897,-168.6723 1482.6275,-166.2651 1515.3414,-164.1388"/>
<polygon fill="#444444" fill-opacity="0.333333" stroke="#444444" stroke-opacity="0.333333" points="1515.5943,-167.6299 1525.3462,-163.4886 1515.1402,-160.6446 1515.5943,-167.6299"/>
</g>
<!-- perl&#45;interpreter&#45;&gt;perl&#45;constant -->
<g id="edge12" class="edge">
<title>perl&#45;interpreter&#45;&gt;perl&#45;constant</title>
<path fill="none" stroke="#444444" stroke-opacity="0.333333" d="M1372.7501,-159.0667C1440.8879,-133.5983 1552.5118,-87.7015 1613.0263,-60.1362"/>
<polygon fill="#444444" fill-opacity="0.333333" stroke="#444444" stroke-opacity="0.333333" points="1614.664,-63.2354 1622.2851,-55.8755 1611.7377,-56.8764 1614.664,-63.2354"/>
</g>
<!-- perl&#45;interpreter&#45;&gt;perl&#45;PathTools -->
<g id="edge13" class="edge">
<title>perl&#45;interpreter&#45;&gt;perl&#45;PathTools</title>
<path fill="none" stroke="#444444" stroke-opacity="0.333333" d="M1412.1811,-159.5844C1446.2591,-151.4935 1483.4871,-141.9283 1513.5056,-133.4817"/>
<polygon fill="#444444" fill-opacity="0.333333" stroke="#444444" stroke-opacity="0.333333" points="1514.7365,-136.7703 1523.3945,-130.6638 1512.8182,-130.0383 1514.7365,-136.7703"/>
</g>
<!-- perl&#45;interpreter&#45;&gt;perl&#45;File&#45;Path -->
<g id="edge14" class="edge">
<title>perl&#45;interpreter&#45;&gt;perl&#45;File&#45;Path</title>
<path fill="none" stroke="#444444" stroke-opacity="0.333333" d="M1350.5568,-158.9998C1378.9194,-140.9699 1417.9229,-113.4337 1443.3736,-93.4196"/>
<polygon fill="#444444" fill-opacity="0.333333" stroke="#444444" stroke-opacity="0.333333" points="1445.8368,-95.9307 1451.4501,-86.9451 1441.4585,-90.469 1445.8368,-95.9307"/>
</g>
<!-- perl&#45;interpreter&#45;&gt;perl&#45;IO -->
<g id="edge15" class="edge">
<title>perl&#45;interpreter&#45;&gt;perl&#45;IO</title>
<path fill="none" stroke="#444444" stroke-opacity="0.333333" d="M1344.8576,-195.3339C1378.5349,-211.9813 1434.0596,-236.1768 1476.2148,-252.8097"/>
<polygon fill="#444444" fill-opacity="0.333333" stroke="#444444" stroke-opacity="0.333333" points="1474.9465,-256.0718 1485.5347,-256.4472 1477.4917,-249.5509 1474.9465,-256.0718"/>
</g>
<!-- perl&#45;interpreter&#45;&gt;perl&#45;parent -->
<g id="edge16" class="edge">
<title>perl&#45;interpreter&#45;&gt;perl&#45;parent</title>
<path fill="none" stroke="#444444" stroke-opacity="0.333333" d="M1327.5916,-195.404C1356.6965,-229.5334 1428.7546,-302.6698 1470.8934,-341.3704"/>
<polygon fill="#444444" fill-opacity="0.333333" stroke="#444444" stroke-opacity="0.333333" points="1468.6388,-344.0507 1478.3964,-348.1787 1473.3428,-338.8668 1468.6388,-344.0507"/>
</g>
<!-- perl&#45;interpreter&#45;&gt;perl&#45;Text&#45;Tabs+Wrap -->
<g id="edge17" class="edge">
<title>perl&#45;interpreter&#45;&gt;perl&#45;Text&#45;Tabs+Wrap</title>
<path fill="none" stroke="#444444" stroke-opacity="0.333333" d="M1412.2601,-165.5918C1500.0527,-151.7999 1627.8198,-129.1274 1710.8507,-112.5476"/>
<polygon fill="#444444" fill-opacity="0.333333" stroke="#444444" stroke-opacity="0.333333" points="1711.6353,-115.9599 1720.7489,-110.5568 1710.2551,-109.0973 1711.6353,-115.9599"/>
</g>
<!-- perl&#45;interpreter&#45;&gt;perl&#45;threads -->
<g id="edge18" class="edge">
<title>perl&#45;interpreter&#45;&gt;perl&#45;threads</title>
<path fill="none" stroke="#444444" stroke-opacity="0.333333" d="M1324.7429,-195.2535C1342.2925,-219.748 1379.2232,-263.3532 1405.5923,-291.22"/>
<polygon fill="#444444" fill-opacity="0.333333" stroke="#444444" stroke-opacity="0.333333" points="1403.2694,-293.8538 1412.7248,-298.6336 1408.3139,-289.0006 1403.2694,-293.8538"/>
</g>
<!-- perl&#45;interpreter&#45;&gt;perl&#45;threads&#45;shared -->
<g id="edge19" class="edge">
<title>perl&#45;interpreter&#45;&gt;perl&#45;threads&#45;shared</title>
<path fill="none" stroke="#444444" stroke-opacity="0.333333" d="M1327.6702,-195.3052C1333.1368,-203.134 1339.6405,-212.448 1345.6346,-221.0323"/>
<polygon fill="#444444" fill-opacity="0.333333" stroke="#444444" stroke-opacity="0.333333" points="1342.8069,-223.0962 1351.4017,-229.2914 1348.5462,-219.0886 1342.8069,-223.0962"/>
</g>
<!-- perl&#45;interpreter&#45;&gt;perl&#45;Unicode&#45;Normalize -->
<g id="edge20" class="edge">
<title>perl&#45;interpreter&#45;&gt;perl&#45;Unicode&#45;Normalize</title>
<path fill="none" stroke="#444444" stroke-opacity="0.333333" d="M1412.0518,-184.55C1489.2626,-187.594 1598.3088,-189.9988 1684.7568,-190.6717"/>
<polygon fill="#444444" fill-opacity="0.333333" stroke="#444444" stroke-opacity="0.333333" points="1684.8911,-194.1726 1694.9156,-190.7434 1684.9406,-187.1728 1684.8911,-194.1726"/>
</g>
<!-- perl&#45;interpreter&#45;&gt;perl&#45;Scalar&#45;List&#45;Utils -->
<g id="edge21" class="edge">
<title>perl&#45;interpreter&#45;&gt;perl&#45;Scalar&#45;List&#45;Utils</title>
<path fill="none" stroke="#444444" stroke-opacity="0.333333" d="M1329.4379,-158.993C1329.565,-158.8331 1329.6923,-158.6728 1329.8199,-158.5124"/>
<polygon fill="#444444" fill-opacity="0.333333" stroke="#444444" stroke-opacity="0.333333" points="1332.1135,-161.2517 1335.5953,-151.2453 1326.6334,-156.8964 1332.1135,-161.2517"/>
</g>
<!-- systemtap&#45;runtime&#45;&gt;json&#45;c -->
<g id="edge22" class="edge">
<title>systemtap&#45;runtime&#45;&gt;json&#45;c</title>
<path fill="none" stroke="#444444" stroke-opacity="0.333333" d="M816.3985,-178.092C809.7388,-186.9684 801.6174,-197.7932 794.3092,-207.5338"/>
<polygon fill="#444444" fill-opacity="0.333333" stroke="#444444" stroke-opacity="0.333333" points="791.3553,-205.639 788.1535,-215.7385 796.9546,-209.84 791.3553,-205.639"/>
</g>
<!-- systemtap&#45;runtime&#45;&gt;dyninst -->
<g id="edge23" class="edge">
<title>systemtap&#45;runtime&#45;&gt;dyninst</title>
<path fill="none" stroke="#444444" stroke-opacity="0.333333" d="M727.9802,-157.7364C695.6483,-157.0864 661.03,-156.3904 632.8659,-155.8242"/>
<polygon fill="#444444" fill-opacity="0.333333" stroke="#444444" stroke-opacity="0.333333" points="632.8662,-152.3236 622.7979,-155.6218 632.7254,-159.3222 632.8662,-152.3236"/>
</g>
<!-- perl&#45;libs&#45;&gt;perl&#45;Carp -->
<g id="edge24" class="edge">
<title>perl&#45;libs&#45;&gt;perl&#45;Carp</title>
<path fill="none" stroke="#444444" stroke-opacity="0.333333" d="M1567.4583,-210.669C1561.9116,-209.6971 1556.2575,-208.7627 1550.6312,-207.8874"/>
<polygon fill="#444444" fill-opacity="0.333333" stroke="#444444" stroke-opacity="0.333333" points="1550.9709,-204.3993 1540.563,-206.3804 1549.9347,-211.3222 1550.9709,-204.3993"/>
</g>
<!-- perl&#45;libs&#45;&gt;perl&#45;Exporter -->
<g id="edge25" class="edge">
<title>perl&#45;libs&#45;&gt;perl&#45;Exporter</title>
<path fill="none" stroke="#444444" stroke-opacity="0.333333" d="M1627.4175,-208.6294C1626.085,-201.6801 1623.9381,-193.6098 1621.4496,-185.9887"/>
<polygon fill="#444444" fill-opacity="0.333333" stroke="#444444" stroke-opacity="0.333333" points="1624.6731,-184.6072 1618.0214,-176.3606 1618.0786,-186.9553 1624.6731,-184.6072"/>
</g>
<!-- perl&#45;Carp&#45;&gt;perl&#45;libs -->
<g id="edge26" class="edge">
<title>perl&#45;Carp&#45;&gt;perl&#45;libs</title>
<path fill="none" stroke="#444444" stroke-opacity="0.333333" d="M1540.7417,-219.871C1546.2884,-220.8429 1551.9425,-221.7773 1557.5688,-222.6526"/>
<polygon fill="#444444" fill-opacity="0.333333" stroke="#444444" stroke-opacity="0.333333" points="1557.2291,-226.1407 1567.637,-224.1596 1558.2653,-219.2178 1557.2291,-226.1407"/>
</g>
<!-- perl&#45;Carp&#45;&gt;perl&#45;Exporter -->
<g id="edge27" class="edge">
<title>perl&#45;Carp&#45;&gt;perl&#45;Exporter</title>
<path fill="none" stroke="#444444" stroke-opacity="0.333333" d="M1540.5749,-189.2221C1548.7282,-186.331 1556.954,-183.2497 1564.6936,-180.1812"/>
<polygon fill="#444444" fill-opacity="0.333333" stroke="#444444" stroke-opacity="0.333333" points="1566.2506,-183.3264 1574.195,-176.3165 1563.6132,-176.8422 1566.2506,-183.3264"/>
</g>
<!-- perl&#45;Exporter&#45;&gt;perl&#45;libs -->
<g id="edge28" class="edge">
<title>perl&#45;Exporter&#45;&gt;perl&#45;libs</title>
<path fill="none" stroke="#444444" stroke-opacity="0.333333" d="M1605.4825,-176.5706C1606.815,-183.5199 1608.9619,-191.5902 1611.4504,-199.2113"/>
<polygon fill="#444444" fill-opacity="0.333333" stroke="#444444" stroke-opacity="0.333333" points="1608.2269,-200.5928 1614.8786,-208.8394 1614.8214,-198.2447 1608.2269,-200.5928"/>
</g>
<!-- perl&#45;Exporter&#45;&gt;perl&#45;Carp -->
<g id="edge29" class="edge">
<title>perl&#45;Exporter&#45;&gt;perl&#45;Carp</title>
<path fill="none" stroke="#444444" stroke-opacity="0.333333" d="M1536.7042,-176.308C1531.9836,-178.0614 1527.3174,-179.8504 1522.8157,-181.6352"/>
<polygon fill="#444444" fill-opacity="0.333333" stroke="#444444" stroke-opacity="0.333333" points="1521.2099,-178.5098 1513.2658,-185.5198 1523.8476,-184.9938 1521.2099,-178.5098"/>
</g>
<!-- perl&#45;constant&#45;&gt;perl&#45;interpreter -->
<g id="edge30" class="edge">
<title>perl&#45;constant&#45;&gt;perl&#45;interpreter</title>
<path fill="none" stroke="#444444" stroke-opacity="0.333333" d="M1597.4499,-55.8593C1529.3121,-81.3277 1417.6882,-127.2245 1357.1737,-154.7898"/>
<polygon fill="#444444" fill-opacity="0.333333" stroke="#444444" stroke-opacity="0.333333" points="1355.536,-151.6906 1347.9149,-159.0505 1358.4623,-158.0496 1355.536,-151.6906"/>
</g>
<!-- perl&#45;constant&#45;&gt;perl&#45;libs -->
<g id="edge31" class="edge">
<title>perl&#45;constant&#45;&gt;perl&#45;libs</title>
<path fill="none" stroke="#444444" stroke-opacity="0.333333" d="M1652.4769,-55.9067C1647.5044,-89.0323 1636.9238,-159.5177 1631.0145,-198.8839"/>
<polygon fill="#444444" fill-opacity="0.333333" stroke="#444444" stroke-opacity="0.333333" points="1627.5382,-198.4654 1629.5149,-208.8742 1634.4606,-199.5046 1627.5382,-198.4654"/>
</g>
<!-- perl&#45;constant&#45;&gt;perl&#45;Carp -->
<g id="edge32" class="edge">
<title>perl&#45;constant&#45;&gt;perl&#45;Carp</title>
<path fill="none" stroke="#444444" stroke-opacity="0.333333" d="M1636.2695,-55.8267C1605.1882,-85.4797 1543.2654,-144.5573 1507.8604,-178.3355"/>
<polygon fill="#444444" fill-opacity="0.333333" stroke="#444444" stroke-opacity="0.333333" points="1505.1265,-176.1063 1500.3072,-185.5416 1509.9585,-181.1711 1505.1265,-176.1063"/>
</g>
<!-- perl&#45;PathTools&#45;&gt;perl&#45;interpreter -->
<g id="edge33" class="edge">
<title>perl&#45;PathTools&#45;&gt;perl&#45;interpreter</title>
<path fill="none" stroke="#444444" stroke-opacity="0.333333" d="M1486.4121,-127.6748C1449.6997,-136.2168 1407.7954,-146.8929 1374.6071,-156.2222"/>
<polygon fill="#444444" fill-opacity="0.333333" stroke="#444444" stroke-opacity="0.333333" points="1373.262,-152.966 1364.6025,-159.0704 1375.1787,-159.6985 1373.262,-152.966"/>
</g>
<!-- perl&#45;PathTools&#45;&gt;perl&#45;libs -->
<g id="edge34" class="edge">
<title>perl&#45;PathTools&#45;&gt;perl&#45;libs</title>
<path fill="none" stroke="#444444" stroke-opacity="0.333333" d="M1581.2723,-130.7712C1590.057,-149.3311 1603.8221,-178.4133 1613.9183,-199.744"/>
<polygon fill="#444444" fill-opacity="0.333333" stroke="#444444" stroke-opacity="0.333333" points="1610.8261,-201.3923 1618.2678,-208.9336 1617.1531,-198.3975 1610.8261,-201.3923"/>
</g>
<!-- perl&#45;PathTools&#45;&gt;perl&#45;Carp -->
<g id="edge35" class="edge">
<title>perl&#45;PathTools&#45;&gt;perl&#45;Carp</title>
<path fill="none" stroke="#444444" stroke-opacity="0.333333" d="M1554.2241,-131.059C1540.6465,-144.5801 1522.0263,-163.1228 1507.0131,-178.0735"/>
<polygon fill="#444444" fill-opacity="0.333333" stroke="#444444" stroke-opacity="0.333333" points="1504.153,-175.9823 1499.5369,-185.5186 1509.0924,-180.9423 1504.153,-175.9823"/>
</g>
<!-- perl&#45;PathTools&#45;&gt;perl&#45;Exporter -->
<g id="edge36" class="edge">
<title>perl&#45;PathTools&#45;&gt;perl&#45;Exporter</title>
<path fill="none" stroke="#444444" stroke-opacity="0.333333" d="M1585.9006,-130.6744C1586.1832,-131.0601 1586.4672,-131.4477 1586.7523,-131.8368"/>
<polygon fill="#444444" fill-opacity="0.333333" stroke="#444444" stroke-opacity="0.333333" points="1584.0425,-134.0603 1592.7765,-140.0577 1589.6889,-129.9228 1584.0425,-134.0603"/>
</g>
<!-- perl&#45;PathTools&#45;&gt;perl&#45;constant -->
<g id="edge37" class="edge">
<title>perl&#45;PathTools&#45;&gt;perl&#45;constant</title>
<path fill="none" stroke="#444444" stroke-opacity="0.333333" d="M1592.6709,-94.5303C1603.1324,-85.0332 1616.1084,-73.2535 1627.5236,-62.8908"/>
<polygon fill="#444444" fill-opacity="0.333333" stroke="#444444" stroke-opacity="0.333333" points="1630.0754,-65.3014 1635.127,-55.9884 1625.3703,-60.1185 1630.0754,-65.3014"/>
</g>
<!-- perl&#45;PathTools&#45;&gt;perl&#45;Scalar&#45;List&#45;Utils -->
<g id="edge38" class="edge">
<title>perl&#45;PathTools&#45;&gt;perl&#45;Scalar&#45;List&#45;Utils</title>
<path fill="none" stroke="#444444" stroke-opacity="0.333333" d="M1486.5984,-120.5704C1486.4377,-120.5851 1486.277,-120.5999 1486.1162,-120.6147"/>
<polygon fill="#444444" fill-opacity="0.333333" stroke="#444444" stroke-opacity="0.333333" points="1488.4741,-116.8832 1478.8363,-121.2835 1489.1146,-123.8538 1488.4741,-116.8832"/>
</g>
<!-- perl&#45;File&#45;Path&#45;&gt;perl&#45;interpreter -->
<g id="edge39" class="edge">
<title>perl&#45;File&#45;Path&#45;&gt;perl&#45;interpreter</title>
<path fill="none" stroke="#444444" stroke-opacity="0.333333" d="M1433.6432,-86.7902C1405.2806,-104.8201 1366.2771,-132.3563 1340.8264,-152.3704"/>
<polygon fill="#444444" fill-opacity="0.333333" stroke="#444444" stroke-opacity="0.333333" points="1338.3632,-149.8593 1332.7499,-158.8449 1342.7415,-155.321 1338.3632,-149.8593"/>
</g>
<!-- perl&#45;File&#45;Path&#45;&gt;perl&#45;libs -->
<g id="edge40" class="edge">
<title>perl&#45;File&#45;Path&#45;&gt;perl&#45;libs</title>
<path fill="none" stroke="#444444" stroke-opacity="0.333333" d="M1487.2787,-86.7925C1515.2732,-114.9166 1569.2108,-169.104 1601.2007,-201.2422"/>
<polygon fill="#444444" fill-opacity="0.333333" stroke="#444444" stroke-opacity="0.333333" points="1598.9113,-203.9034 1608.4467,-208.5217 1603.8725,-198.9651 1598.9113,-203.9034"/>
</g>
<!-- perl&#45;File&#45;Path&#45;&gt;perl&#45;Carp -->
<g id="edge41" class="edge">
<title>perl&#45;File&#45;Path&#45;&gt;perl&#45;Carp</title>
<path fill="none" stroke="#444444" stroke-opacity="0.333333" d="M1470.8453,-86.83C1472.8918,-109.4672 1476.4092,-148.374 1478.8166,-175.0041"/>
<polygon fill="#444444" fill-opacity="0.333333" stroke="#444444" stroke-opacity="0.333333" points="1475.3555,-175.5932 1479.7418,-185.2374 1482.3271,-174.9629 1475.3555,-175.5932"/>
</g>
<!-- perl&#45;File&#45;Path&#45;&gt;perl&#45;Exporter -->
<g id="edge42" class="edge">
<title>perl&#45;File&#45;Path&#45;&gt;perl&#45;Exporter</title>
<path fill="none" stroke="#444444" stroke-opacity="0.333333" d="M1496.9038,-86.7639C1517.9647,-100.5497 1547.1171,-119.6318 1570.003,-134.6121"/>
<polygon fill="#444444" fill-opacity="0.333333" stroke="#444444" stroke-opacity="0.333333" points="1568.1536,-137.5847 1578.4374,-140.133 1571.9874,-131.7279 1568.1536,-137.5847"/>
</g>
<!-- perl&#45;File&#45;Path&#45;&gt;perl&#45;PathTools -->
<g id="edge43" class="edge">
<title>perl&#45;File&#45;Path&#45;&gt;perl&#45;PathTools</title>
<path fill="none" stroke="#444444" stroke-opacity="0.333333" d="M1511.596,-86.6657C1514.6665,-87.9719 1517.7824,-89.2974 1520.8985,-90.6231"/>
<polygon fill="#444444" fill-opacity="0.333333" stroke="#444444" stroke-opacity="0.333333" points="1519.6303,-93.8871 1530.2024,-94.5811 1522.3706,-87.4457 1519.6303,-93.8871"/>
</g>
<!-- perl&#45;IO&#45;&gt;perl&#45;interpreter -->
<g id="edge44" class="edge">
<title>perl&#45;IO&#45;&gt;perl&#45;interpreter</title>
<path fill="none" stroke="#444444" stroke-opacity="0.333333" d="M1503.8424,-252.8261C1472.4906,-237.3283 1422.2044,-215.2887 1381.3977,-198.8991"/>
<polygon fill="#444444" fill-opacity="0.333333" stroke="#444444" stroke-opacity="0.333333" points="1382.6332,-195.6239 1372.0477,-195.1778 1380.0445,-202.1277 1382.6332,-195.6239"/>
</g>
<!-- perl&#45;IO&#45;&gt;perl&#45;libs -->
<g id="edge45" class="edge">
<title>perl&#45;IO&#45;&gt;perl&#45;libs</title>
<path fill="none" stroke="#444444" stroke-opacity="0.333333" d="M1571.836,-252.9602C1574.3389,-251.7762 1576.8755,-250.5763 1579.4153,-249.3748"/>
<polygon fill="#444444" fill-opacity="0.333333" stroke="#444444" stroke-opacity="0.333333" points="1581.0297,-252.4831 1588.5727,-245.043 1578.0364,-246.1553 1581.0297,-252.4831"/>
</g>
<!-- perl&#45;IO&#45;&gt;perl&#45;Carp -->
<g id="edge46" class="edge">
<title>perl&#45;IO&#45;&gt;perl&#45;Carp</title>
<path fill="none" stroke="#444444" stroke-opacity="0.333333" d="M1519.6846,-252.9327C1514.1739,-245.8289 1507.7394,-237.5342 1501.7357,-229.7948"/>
<polygon fill="#444444" fill-opacity="0.333333" stroke="#444444" stroke-opacity="0.333333" points="1504.349,-227.4533 1495.4541,-221.6972 1498.818,-231.7438 1504.349,-227.4533"/>
</g>
<!-- perl&#45;IO&#45;&gt;perl&#45;Exporter -->
<g id="edge47" class="edge">
<title>perl&#45;IO&#45;&gt;perl&#45;Exporter</title>
<path fill="none" stroke="#444444" stroke-opacity="0.333333" d="M1545.3323,-252.8832C1557.1541,-234.4712 1575.5945,-205.7511 1589.0627,-184.7749"/>
<polygon fill="#444444" fill-opacity="0.333333" stroke="#444444" stroke-opacity="0.333333" points="1592.0388,-186.6177 1594.4966,-176.3119 1586.1484,-182.8357 1592.0388,-186.6177"/>
</g>
<!-- perl&#45;IO&#45;&gt;perl&#45;PathTools -->
<g id="edge48" class="edge">
<title>perl&#45;IO&#45;&gt;perl&#45;PathTools</title>
<path fill="none" stroke="#444444" stroke-opacity="0.333333" d="M1538.1738,-252.8364C1544.926,-225.4225 1557.7772,-173.2468 1565.7537,-140.8621"/>
<polygon fill="#444444" fill-opacity="0.333333" stroke="#444444" stroke-opacity="0.333333" points="1569.165,-141.6464 1568.1583,-131.0995 1562.3682,-139.9722 1569.165,-141.6464"/>
</g>
<!-- perl&#45;IO&#45;&gt;perl&#45;Errno -->
<g id="edge49" class="edge">
<title>perl&#45;IO&#45;&gt;perl&#45;Errno</title>
<path fill="none" stroke="#444444" stroke-opacity="0.333333" d="M1558.1619,-289.1546C1558.9157,-289.714 1559.674,-290.2768 1560.435,-290.8416"/>
<polygon fill="#444444" fill-opacity="0.333333" stroke="#444444" stroke-opacity="0.333333" points="1558.4782,-293.748 1568.5943,-296.8971 1562.65,-288.1269 1558.4782,-293.748"/>
</g>
<!-- perl&#45;IO&#45;&gt;perl&#45;Socket -->
<g id="edge50" class="edge">
<title>perl&#45;IO&#45;&gt;perl&#45;Socket</title>
<path fill="none" stroke="#444444" stroke-opacity="0.333333" d="M1581.8423,-271C1597.3258,-271 1614.9156,-271 1632.0362,-271"/>
<polygon fill="#444444" fill-opacity="0.333333" stroke="#444444" stroke-opacity="0.333333" points="1632.043,-274.5001 1642.0429,-271 1632.0429,-267.5001 1632.043,-274.5001"/>
</g>
<!-- perl&#45;parent&#45;&gt;perl&#45;interpreter -->
<g id="edge51" class="edge">
<title>perl&#45;parent&#45;&gt;perl&#45;interpreter</title>
<path fill="none" stroke="#444444" stroke-opacity="0.333333" d="M1490.2084,-348.186C1461.1035,-314.0566 1389.0454,-240.9202 1346.9066,-202.2196"/>
<polygon fill="#444444" fill-opacity="0.333333" stroke="#444444" stroke-opacity="0.333333" points="1349.1612,-199.5393 1339.4036,-195.4113 1344.4572,-204.7232 1349.1612,-199.5393"/>
</g>
<!-- perl&#45;parent&#45;&gt;perl&#45;libs -->
<g id="edge52" class="edge">
<title>perl&#45;parent&#45;&gt;perl&#45;libs</title>
<path fill="none" stroke="#444444" stroke-opacity="0.333333" d="M1519.0108,-348.1967C1540.6402,-323.8689 1579.0681,-280.6468 1603.7177,-252.922"/>
<polygon fill="#444444" fill-opacity="0.333333" stroke="#444444" stroke-opacity="0.333333" points="1606.5564,-254.9967 1610.5852,-245.1977 1601.325,-250.3456 1606.5564,-254.9967"/>
</g>
<!-- perl&#45;Text&#45;Tabs+Wrap&#45;&gt;perl&#45;interpreter -->
<g id="edge53" class="edge">
<title>perl&#45;Text&#45;Tabs+Wrap&#45;&gt;perl&#45;interpreter</title>
<path fill="none" stroke="#444444" stroke-opacity="0.333333" d="M1681.0589,-106.5555C1594.31,-120.4576 1476.3606,-141.4856 1398.0599,-157.1164"/>
<polygon fill="#444444" fill-opacity="0.333333" stroke="#444444" stroke-opacity="0.333333" points="1397.3502,-153.689 1388.2363,-159.0914 1398.73,-160.5516 1397.3502,-153.689"/>
</g>
<!-- perl&#45;Text&#45;Tabs+Wrap&#45;&gt;perl&#45;libs -->
<g id="edge54" class="edge">
<title>perl&#45;Text&#45;Tabs+Wrap&#45;&gt;perl&#45;libs</title>
<path fill="none" stroke="#444444" stroke-opacity="0.333333" d="M1771.1911,-110.6737C1741.7437,-134.3894 1690.0354,-176.0329 1657.1487,-202.5185"/>
<polygon fill="#444444" fill-opacity="0.333333" stroke="#444444" stroke-opacity="0.333333" points="1654.8111,-199.9071 1649.2182,-208.9054 1659.2018,-205.3589 1654.8111,-199.9071"/>
</g>
<!-- perl&#45;Text&#45;Tabs+Wrap&#45;&gt;perl&#45;Exporter -->
<g id="edge55" class="edge">
<title>perl&#45;Text&#45;Tabs+Wrap&#45;&gt;perl&#45;Exporter</title>
<path fill="none" stroke="#444444" stroke-opacity="0.333333" d="M1741.9409,-110.6711C1718.8732,-118.7489 1691.5285,-128.3246 1667.4411,-136.7595"/>
<polygon fill="#444444" fill-opacity="0.333333" stroke="#444444" stroke-opacity="0.333333" points="1665.9715,-133.5657 1657.6902,-140.1741 1668.285,-140.1723 1665.9715,-133.5657"/>
</g>
<!-- perl&#45;threads&#45;&gt;perl&#45;interpreter -->
<g id="edge56" class="edge">
<title>perl&#45;threads&#45;&gt;perl&#45;interpreter</title>
<path fill="none" stroke="#444444" stroke-opacity="0.333333" d="M1425.3571,-298.8465C1407.8075,-274.352 1370.8768,-230.7468 1344.5077,-202.88"/>
<polygon fill="#444444" fill-opacity="0.333333" stroke="#444444" stroke-opacity="0.333333" points="1346.8306,-200.2462 1337.3752,-195.4664 1341.7861,-205.0994 1346.8306,-200.2462"/>
</g>
<!-- perl&#45;threads&#45;&gt;perl&#45;libs -->
<g id="edge57" class="edge">
<title>perl&#45;threads&#45;&gt;perl&#45;libs</title>
<path fill="none" stroke="#444444" stroke-opacity="0.333333" d="M1473.8934,-298.7312C1504.2639,-284.4759 1546.6505,-264.5805 1579.0955,-249.3515"/>
<polygon fill="#444444" fill-opacity="0.333333" stroke="#444444" stroke-opacity="0.333333" points="1580.8267,-252.4054 1588.3919,-244.988 1577.8523,-246.0687 1580.8267,-252.4054"/>
</g>
<!-- perl&#45;threads&#45;&gt;perl&#45;Carp -->
<g id="edge58" class="edge">
<title>perl&#45;threads&#45;&gt;perl&#45;Carp</title>
<path fill="none" stroke="#444444" stroke-opacity="0.333333" d="M1442.5389,-298.7268C1449.9977,-280.4647 1461.5765,-252.1154 1470.1568,-231.1075"/>
<polygon fill="#444444" fill-opacity="0.333333" stroke="#444444" stroke-opacity="0.333333" points="1473.4386,-232.3291 1473.9796,-221.748 1466.9582,-229.6822 1473.4386,-232.3291"/>
</g>
<!-- perl&#45;threads&#45;shared&#45;&gt;perl&#45;libs -->
<g id="edge59" class="edge">
<title>perl&#45;threads&#45;shared&#45;&gt;perl&#45;libs</title>
<path fill="none" stroke="#444444" stroke-opacity="0.333333" d="M1476.7088,-238.7684C1504.2376,-236.6026 1532.8916,-234.3482 1557.6949,-232.3968"/>
<polygon fill="#444444" fill-opacity="0.333333" stroke="#444444" stroke-opacity="0.333333" points="1558.02,-235.8822 1567.7147,-231.6085 1557.4709,-228.9037 1558.02,-235.8822"/>
</g>
<!-- perl&#45;threads&#45;shared&#45;&gt;perl&#45;Carp -->
<g id="edge60" class="edge">
<title>perl&#45;threads&#45;shared&#45;&gt;perl&#45;Carp</title>
<path fill="none" stroke="#444444" stroke-opacity="0.333333" d="M1412.2079,-229.5802C1416.0107,-228.1512 1419.8751,-226.6991 1423.734,-225.249"/>
<polygon fill="#444444" fill-opacity="0.333333" stroke="#444444" stroke-opacity="0.333333" points="1425.1473,-228.457 1433.2771,-221.663 1422.685,-221.9043 1425.1473,-228.457"/>
</g>
<!-- perl&#45;threads&#45;shared&#45;&gt;perl&#45;threads -->
<g id="edge61" class="edge">
<title>perl&#45;threads&#45;shared&#45;&gt;perl&#45;threads</title>
<path fill="none" stroke="#444444" stroke-opacity="0.333333" d="M1382.8281,-265.833C1390.8248,-273.6515 1400.3081,-282.9235 1408.9874,-291.4093"/>
<polygon fill="#444444" fill-opacity="0.333333" stroke="#444444" stroke-opacity="0.333333" points="1406.7529,-294.1196 1416.3501,-298.6079 1411.6466,-289.1144 1406.7529,-294.1196"/>
</g>
<!-- perl&#45;threads&#45;shared&#45;&gt;perl&#45;Scalar&#45;List&#45;Utils -->
<g id="edge62" class="edge">
<title>perl&#45;threads&#45;shared&#45;&gt;perl&#45;Scalar&#45;List&#45;Utils</title>
<path fill="none" stroke="#444444" stroke-opacity="0.333333" d="M1361.95,-229.4771C1359.6753,-211.136 1356.1286,-182.5371 1353.4891,-161.2541"/>
<polygon fill="#444444" fill-opacity="0.333333" stroke="#444444" stroke-opacity="0.333333" points="1356.9437,-160.6712 1352.2395,-151.178 1349.9969,-161.5327 1356.9437,-160.6712"/>
</g>
<!-- perl&#45;Unicode&#45;Normalize&#45;&gt;perl&#45;interpreter -->
<g id="edge63" class="edge">
<title>perl&#45;Unicode&#45;Normalize&#45;&gt;perl&#45;interpreter</title>
<path fill="none" stroke="#444444" stroke-opacity="0.333333" d="M1695.0497,-178.8313C1610.8321,-175.9824 1502.0249,-173.9083 1422.4281,-173.6889"/>
<polygon fill="#444444" fill-opacity="0.333333" stroke="#444444" stroke-opacity="0.333333" points="1422.3859,-170.1889 1412.3796,-173.671 1422.3734,-177.1889 1422.3859,-170.1889"/>
</g>
<!-- perl&#45;Unicode&#45;Normalize&#45;&gt;perl&#45;libs -->
<g id="edge64" class="edge">
<title>perl&#45;Unicode&#45;Normalize&#45;&gt;perl&#45;libs</title>
<path fill="none" stroke="#444444" stroke-opacity="0.333333" d="M1733.8385,-205.4272C1721.1667,-207.9764 1708.3022,-210.5643 1696.0946,-213.0201"/>
<polygon fill="#444444" fill-opacity="0.333333" stroke="#444444" stroke-opacity="0.333333" points="1695.1266,-209.6446 1686.0133,-215.0481 1696.5071,-216.5072 1695.1266,-209.6446"/>
</g>
<!-- perl&#45;Unicode&#45;Normalize&#45;&gt;perl&#45;Carp -->
<g id="edge65" class="edge">
<title>perl&#45;Unicode&#45;Normalize&#45;&gt;perl&#45;Carp</title>
<path fill="none" stroke="#444444" stroke-opacity="0.333333" d="M1694.7165,-193.4752C1645.8122,-195.7918 1592,-198.3409 1550.6584,-200.2992"/>
<polygon fill="#444444" fill-opacity="0.333333" stroke="#444444" stroke-opacity="0.333333" points="1550.2503,-196.8145 1540.4271,-200.7839 1550.5816,-203.8067 1550.2503,-196.8145"/>
</g>
<!-- perl&#45;Unicode&#45;Normalize&#45;&gt;perl&#45;Exporter -->
<g id="edge66" class="edge">
<title>perl&#45;Unicode&#45;Normalize&#45;&gt;perl&#45;Exporter</title>
<path fill="none" stroke="#444444" stroke-opacity="0.333333" d="M1694.8793,-170.1303C1694.7933,-170.1188 1694.7073,-170.1073 1694.6214,-170.0958"/>
<polygon fill="#444444" fill-opacity="0.333333" stroke="#444444" stroke-opacity="0.333333" points="1697.0607,-166.8913 1686.6845,-169.0328 1696.1314,-173.8294 1697.0607,-166.8913"/>
</g>
<!-- perl&#45;Scalar&#45;List&#45;Utils&#45;&gt;perl&#45;libs -->
<g id="edge67" class="edge">
<title>perl&#45;Scalar&#45;List&#45;Utils&#45;&gt;perl&#45;libs</title>
<path fill="none" stroke="#444444" stroke-opacity="0.333333" d="M1403.3698,-151.2133C1449.2256,-166.7592 1515.4144,-189.1984 1563.8488,-205.6185"/>
<polygon fill="#444444" fill-opacity="0.333333" stroke="#444444" stroke-opacity="0.333333" points="1562.9997,-209.0262 1573.594,-208.9222 1565.2472,-202.3968 1562.9997,-209.0262"/>
</g>
<!-- perl&#45;Scalar&#45;List&#45;Utils&#45;&gt;perl&#45;Carp -->
<g id="edge68" class="edge">
<title>perl&#45;Scalar&#45;List&#45;Utils&#45;&gt;perl&#45;Carp</title>
<path fill="none" stroke="#444444" stroke-opacity="0.333333" d="M1383.8388,-151.2652C1400.5452,-160.2236 1420.8782,-171.1267 1438.6491,-180.6559"/>
<polygon fill="#444444" fill-opacity="0.333333" stroke="#444444" stroke-opacity="0.333333" points="1437.209,-183.8551 1447.6759,-185.4963 1440.517,-177.686 1437.209,-183.8551"/>
</g>
<!-- perl&#45;Scalar&#45;List&#45;Utils&#45;&gt;perl&#45;Exporter -->
<g id="edge69" class="edge">
<title>perl&#45;Scalar&#45;List&#45;Utils&#45;&gt;perl&#45;Exporter</title>
<path fill="none" stroke="#444444" stroke-opacity="0.333333" d="M1478.8003,-145.7536C1491.1316,-146.9631 1503.4536,-148.1718 1515.3089,-149.3346"/>
<polygon fill="#444444" fill-opacity="0.333333" stroke="#444444" stroke-opacity="0.333333" points="1515.3016,-152.8506 1525.5955,-150.3436 1515.9849,-145.884 1515.3016,-152.8506"/>
</g>
<!-- dyninst&#45;&gt;boost&#45;system -->
<g id="edge70" class="edge">
<title>dyninst&#45;&gt;boost&#45;system</title>
<path fill="none" stroke="#444444" stroke-opacity="0.333333" d="M531.9042,-172.7308C528.8222,-174.0402 525.6946,-175.3691 522.5667,-176.698"/>
<polygon fill="#444444" fill-opacity="0.333333" stroke="#444444" stroke-opacity="0.333333" points="521.0628,-173.5341 513.2277,-180.6659 523.8001,-179.9767 521.0628,-173.5341"/>
</g>
<!-- dyninst&#45;&gt;boost&#45;thread -->
<g id="edge71" class="edge">
<title>dyninst&#45;&gt;boost&#45;thread</title>
<path fill="none" stroke="#444444" stroke-opacity="0.333333" d="M526.3191,-154.4961C511.7146,-154.4494 495.2062,-154.3966 478.9069,-154.3445"/>
<polygon fill="#444444" fill-opacity="0.333333" stroke="#444444" stroke-opacity="0.333333" points="478.8153,-150.8443 468.8042,-154.3122 478.7929,-157.8443 478.8153,-150.8443"/>
</g>
<!-- dyninst&#45;&gt;boost&#45;date&#45;time -->
<g id="edge72" class="edge">
<title>dyninst&#45;&gt;boost&#45;date&#45;time</title>
<path fill="none" stroke="#444444" stroke-opacity="0.333333" d="M576.3416,-136.4335C578.4787,-115.7434 581.9918,-81.7313 584.4844,-57.5994"/>
<polygon fill="#444444" fill-opacity="0.333333" stroke="#444444" stroke-opacity="0.333333" points="587.9701,-57.9172 585.5161,-47.6105 581.0071,-57.1979 587.9701,-57.9172"/>
</g>
<!-- dyninst&#45;&gt;boost&#45;chrono -->
<g id="edge73" class="edge">
<title>dyninst&#45;&gt;boost&#45;chrono</title>
<path fill="none" stroke="#444444" stroke-opacity="0.333333" d="M526.4025,-138.3531C519.5059,-136.0144 512.3262,-133.5796 505.1967,-131.1619"/>
<polygon fill="#444444" fill-opacity="0.333333" stroke="#444444" stroke-opacity="0.333333" points="506.1313,-127.7832 495.537,-127.8862 503.8833,-134.4124 506.1313,-127.7832"/>
</g>
<!-- dyninst&#45;&gt;boost&#45;atomic -->
<g id="edge74" class="edge">
<title>dyninst&#45;&gt;boost&#45;atomic</title>
<path fill="none" stroke="#444444" stroke-opacity="0.333333" d="M549.5642,-136.4461C521.7253,-116.0904 476.5204,-83.0365 445.7795,-60.5587"/>
<polygon fill="#444444" fill-opacity="0.333333" stroke="#444444" stroke-opacity="0.333333" points="447.6571,-57.5958 437.5189,-54.5186 443.5254,-63.2464 447.6571,-57.5958"/>
</g>
<!-- dyninst&#45;&gt;libdwarf -->
<g id="edge75" class="edge">
<title>dyninst&#45;&gt;libdwarf</title>
<path fill="none" stroke="#444444" stroke-opacity="0.333333" d="M530.5703,-172.6662C494.7836,-187.3562 444.0929,-208.1642 405.9096,-223.838"/>
<polygon fill="#444444" fill-opacity="0.333333" stroke="#444444" stroke-opacity="0.333333" points="404.41,-220.6701 396.4881,-227.7054 407.0682,-227.1457 404.41,-220.6701"/>
</g>
<!-- perl&#45;Errno&#45;&gt;perl&#45;interpreter -->
<g id="edge76" class="edge">
<title>perl&#45;Errno&#45;&gt;perl&#45;interpreter</title>
<path fill="none" stroke="#444444" stroke-opacity="0.333333" d="M1556.6564,-296.9885C1506.2915,-272.0145 1415.3,-226.8951 1360.4874,-199.7155"/>
<polygon fill="#444444" fill-opacity="0.333333" stroke="#444444" stroke-opacity="0.333333" points="1361.8665,-196.4928 1351.3526,-195.1859 1358.7567,-202.7641 1361.8665,-196.4928"/>
</g>
<!-- perl&#45;Errno&#45;&gt;perl&#45;libs -->
<g id="edge77" class="edge">
<title>perl&#45;Errno&#45;&gt;perl&#45;libs</title>
<path fill="none" stroke="#444444" stroke-opacity="0.333333" d="M1600.0034,-296.766C1604.6713,-284.6059 1610.8945,-268.3942 1616.1687,-254.6548"/>
<polygon fill="#444444" fill-opacity="0.333333" stroke="#444444" stroke-opacity="0.333333" points="1619.4893,-255.7708 1619.8056,-245.1806 1612.9543,-253.2621 1619.4893,-255.7708"/>
</g>
<!-- perl&#45;Errno&#45;&gt;perl&#45;Carp -->
<g id="edge78" class="edge">
<title>perl&#45;Errno&#45;&gt;perl&#45;Carp</title>
<path fill="none" stroke="#444444" stroke-opacity="0.333333" d="M1574.5715,-296.6096C1556.0452,-278.1115 1527.347,-249.457 1506.696,-228.8374"/>
<polygon fill="#444444" fill-opacity="0.333333" stroke="#444444" stroke-opacity="0.333333" points="1509.035,-226.2269 1499.4856,-221.638 1504.089,-231.1805 1509.035,-226.2269"/>
</g>
<!-- perl&#45;Errno&#45;&gt;perl&#45;Exporter -->
<g id="edge79" class="edge">
<title>perl&#45;Errno&#45;&gt;perl&#45;Exporter</title>
<path fill="none" stroke="#444444" stroke-opacity="0.333333" d="M1594.5284,-296.7197C1596.7962,-269.5797 1601.0713,-218.4188 1603.7423,-186.4553"/>
<polygon fill="#444444" fill-opacity="0.333333" stroke="#444444" stroke-opacity="0.333333" points="1607.2364,-186.6706 1604.5814,-176.4138 1600.2607,-186.0876 1607.2364,-186.6706"/>
</g>
<!-- perl&#45;Socket&#45;&gt;perl&#45;interpreter -->
<g id="edge80" class="edge">
<title>perl&#45;Socket&#45;&gt;perl&#45;interpreter</title>
<path fill="none" stroke="#444444" stroke-opacity="0.333333" d="M1642.0637,-254.5469C1575.0164,-238.6828 1473.3694,-214.632 1401.2097,-197.5582"/>
<polygon fill="#444444" fill-opacity="0.333333" stroke="#444444" stroke-opacity="0.333333" points="1401.7673,-194.0935 1391.23,-195.1969 1400.1554,-200.9055 1401.7673,-194.0935"/>
</g>
<!-- perl&#45;Socket&#45;&gt;perl&#45;libs -->
<g id="edge81" class="edge">
<title>perl&#45;Socket&#45;&gt;perl&#45;libs</title>
<path fill="none" stroke="#444444" stroke-opacity="0.333333" d="M1676.619,-252.833C1674.7713,-251.8734 1672.9041,-250.9037 1671.0322,-249.9315"/>
<polygon fill="#444444" fill-opacity="0.333333" stroke="#444444" stroke-opacity="0.333333" points="1672.1883,-246.5881 1661.7006,-245.0853 1668.962,-252.8003 1672.1883,-246.5881"/>
</g>
<!-- perl&#45;Socket&#45;&gt;perl&#45;Carp -->
<g id="edge82" class="edge">
<title>perl&#45;Socket&#45;&gt;perl&#45;Carp</title>
<path fill="none" stroke="#444444" stroke-opacity="0.333333" d="M1649.9106,-252.9327C1619.1336,-243.9188 1581.8101,-232.9877 1550.1196,-223.7063"/>
<polygon fill="#444444" fill-opacity="0.333333" stroke="#444444" stroke-opacity="0.333333" points="1551.0596,-220.3347 1540.479,-220.8828 1549.0921,-227.0525 1551.0596,-220.3347"/>
</g>
<!-- perl&#45;Socket&#45;&gt;perl&#45;Exporter -->
<g id="edge83" class="edge">
<title>perl&#45;Socket&#45;&gt;perl&#45;Exporter</title>
<path fill="none" stroke="#444444" stroke-opacity="0.333333" d="M1694.6496,-252.8832C1677.1155,-234.1424 1649.5893,-204.722 1629.8821,-183.6587"/>
<polygon fill="#444444" fill-opacity="0.333333" stroke="#444444" stroke-opacity="0.333333" points="1632.3962,-181.2229 1623.0083,-176.3119 1627.2847,-186.0054 1632.3962,-181.2229"/>
</g>
<!-- boost&#45;thread&#45;&gt;boost&#45;system -->
<g id="edge84" class="edge">
<title>boost&#45;thread&#45;&gt;boost&#45;system</title>
<path fill="none" stroke="#444444" stroke-opacity="0.333333" d="M424.5744,-172.2593C426.55,-173.3989 428.5516,-174.5534 430.5577,-175.7105"/>
<polygon fill="#444444" fill-opacity="0.333333" stroke="#444444" stroke-opacity="0.333333" points="428.9038,-178.797 439.3149,-180.7618 432.4014,-172.7334 428.9038,-178.797"/>
</g>
<!-- boost&#45;chrono&#45;&gt;boost&#45;system -->
<g id="edge85" class="edge">
<title>boost&#45;chrono&#45;&gt;boost&#45;system</title>
<path fill="none" stroke="#444444" stroke-opacity="0.333333" d="M448.221,-128.2864C452.1401,-140.6498 457.3737,-157.1602 461.7911,-171.0956"/>
<polygon fill="#444444" fill-opacity="0.333333" stroke="#444444" stroke-opacity="0.333333" points="458.4748,-172.2166 464.8329,-180.6915 465.1475,-170.1014 458.4748,-172.2166"/>
</g>
<!-- libdwarf&#45;&gt;curl&#45;minimal -->
<g id="edge86" class="edge">
<title>libdwarf&#45;&gt;curl&#45;minimal</title>
<path fill="none" stroke="#444444" stroke-opacity="0.333333" d="M313.5504,-263.9863C292.2685,-273.95 265.6982,-286.3896 243.1579,-296.9424"/>
<polygon fill="#444444" fill-opacity="0.333333" stroke="#444444" stroke-opacity="0.333333" points="241.6677,-293.7754 234.0951,-301.1854 244.6358,-300.115 241.6677,-293.7754"/>
</g>
<!-- curl&#45;minimal&#45;&gt;libcurl&#45;minimal -->
<g id="edge88" class="edge">
<title>curl&#45;minimal&#45;&gt;libcurl&#45;minimal</title>
<path fill="none" stroke="#444444" stroke-opacity="0.333333" d="M166.3959,-337.3032C154.8279,-344.4763 141.3638,-352.8252 129.0406,-360.4667"/>
<polygon fill="#444444" fill-opacity="0.333333" stroke="#444444" stroke-opacity="0.333333" points="126.9667,-357.6343 120.3125,-365.8788 130.6557,-363.5834 126.9667,-357.6343"/>
</g>
<!-- perl&#45;macros&#45;&gt;perl&#45;libs -->
<g id="edge87" class="edge">
<title>perl&#45;macros&#45;&gt;perl&#45;libs</title>
<path fill="none" stroke="#444444" stroke-opacity="0.333333" d="M1811.3014,-280.0564C1776.1308,-269.9349 1732.1892,-257.2892 1696.0124,-246.8782"/>
<polygon fill="#444444" fill-opacity="0.333333" stroke="#444444" stroke-opacity="0.333333" points="1696.6063,-243.4071 1686.0284,-244.0049 1694.6704,-250.1341 1696.6063,-243.4071"/>
</g>
<!-- systemtap -->
<g id="node1" class="node">
<title>systemtap</title>
<text text-anchor="middle" x="1054.2" y="-72.345" font-family="monospace" font-size="14.00" fill="#000000">systemtap</text>
</g>
<!-- systemtap&#45;devel -->
<g id="node2" class="node">
<title>systemtap&#45;devel</title>
<text text-anchor="middle" x="1213.3" y="-26.885" font-family="monospace" font-size="14.00" fill="#000000">systemtap&#45;devel</text>
</g>
<!-- systemtap&#45;client -->
<g id="node3" class="node">
<title>systemtap&#45;client</title>
<text text-anchor="middle" x="1113.3" y="-146.14" font-family="monospace" font-size="14.00" fill="#000000">systemtap&#45;client</text>
</g>
<!-- avahi&#45;libs -->
<g id="node4" class="node">
<title>avahi&#45;libs</title>
<text text-anchor="middle" x="1049.8" y="-14.3" font-family="monospace" font-size="14.00" fill="#000000">avahi&#45;libs</text>
</g>
<!-- kernel&#45;devel -->
<g id="node5" class="node">
<title>kernel&#45;devel</title>
<text text-anchor="middle" x="1259.2" y="-73.714" font-family="monospace" font-size="14.00" fill="#000000">kernel&#45;devel</text>
</g>
<!-- perl&#45;interpreter -->
<g id="node6" class="node">
<title>perl&#45;interpreter</title>
<text text-anchor="middle" x="1315" y="-173.46" font-family="monospace" font-size="14.00" fill="#000000">perl&#45;interpreter</text>
</g>
<!-- systemtap&#45;runtime -->
<g id="node7" class="node">
<title>systemtap&#45;runtime</title>
<text text-anchor="middle" x="830.13" y="-156.09" font-family="monospace" font-size="14.00" fill="#000000">systemtap&#45;runtime</text>
</g>
<!-- perl&#45;libs -->
<g id="node8" class="node">
<title>perl&#45;libs</title>
<text text-anchor="middle" x="1626.8" y="-223.26" font-family="monospace" font-size="14.00" fill="#000000">perl&#45;libs</text>
</g>
<!-- perl&#45;Carp -->
<g id="node9" class="node">
<title>perl&#45;Carp</title>
<text text-anchor="middle" x="1481.4" y="-199.88" font-family="monospace" font-size="14.00" fill="#000000">perl&#45;Carp</text>
</g>
<!-- perl&#45;Exporter -->
<g id="node10" class="node">
<title>perl&#45;Exporter</title>
<text text-anchor="middle" x="1606.1" y="-154.54" font-family="monospace" font-size="14.00" fill="#000000">perl&#45;Exporter</text>
</g>
<!-- perl&#45;constant -->
<g id="node11" class="node">
<title>perl&#45;constant</title>
<text text-anchor="middle" x="1655.2" y="-34.066" font-family="monospace" font-size="14.00" fill="#000000">perl&#45;constant</text>
</g>
<!-- perl&#45;PathTools -->
<g id="node12" class="node">
<title>perl&#45;PathTools</title>
<text text-anchor="middle" x="1572.7" y="-108.96" font-family="monospace" font-size="14.00" fill="#000000">perl&#45;PathTools</text>
</g>
<!-- perl&#45;File&#45;Path -->
<g id="node13" class="node">
<title>perl&#45;File&#45;Path</title>
<text text-anchor="middle" x="1469.2" y="-64.93" font-family="monospace" font-size="14.00" fill="#000000">perl&#45;File&#45;Path</text>
</g>
<!-- perl&#45;IO -->
<g id="node14" class="node">
<title>perl&#45;IO</title>
<text text-anchor="middle" x="1533.7" y="-267.3" font-family="monospace" font-size="14.00" fill="#000000">perl&#45;IO</text>
</g>
<!-- perl&#45;parent -->
<g id="node15" class="node">
<title>perl&#45;parent</title>
<text text-anchor="middle" x="1502.8" y="-362.73" font-family="monospace" font-size="14.00" fill="#000000">perl&#45;parent</text>
</g>
<!-- perl&#45;Text&#45;Tabs+Wrap -->
<g id="node16" class="node">
<title>perl&#45;Text&#45;Tabs+Wrap</title>
<text text-anchor="middle" x="1793.7" y="-88.846" font-family="monospace" font-size="14.00" fill="#000000">perl&#45;Text&#45;Tabs+Wrap</text>
</g>
<!-- perl&#45;threads -->
<g id="node17" class="node">
<title>perl&#45;threads</title>
<text text-anchor="middle" x="1435.1" y="-313.24" font-family="monospace" font-size="14.00" fill="#000000">perl&#45;threads</text>
</g>
<!-- perl&#45;threads&#45;shared -->
<g id="node18" class="node">
<title>perl&#45;threads&#45;shared</title>
<text text-anchor="middle" x="1364.2" y="-243.92" font-family="monospace" font-size="14.00" fill="#000000">perl&#45;threads&#45;shared</text>
</g>
<!-- perl&#45;Unicode&#45;Normalize -->
<g id="node19" class="node">
<title>perl&#45;Unicode&#45;Normalize</title>
<text text-anchor="middle" x="1823.6" y="-183.67" font-family="monospace" font-size="14.00" fill="#000000">perl&#45;Unicode&#45;Normalize</text>
</g>
<!-- perl&#45;Scalar&#45;List&#45;Utils -->
<g id="node20" class="node">
<title>perl&#45;Scalar&#45;List&#45;Utils</title>
<text text-anchor="middle" x="1350" y="-129.42" font-family="monospace" font-size="14.00" fill="#000000">perl&#45;Scalar&#45;List&#45;Utils</text>
</g>
<!-- json&#45;c -->
<g id="node21" class="node">
<title>json&#45;c</title>
<text text-anchor="middle" x="774.58" y="-230.13" font-family="monospace" font-size="14.00" fill="#000000">json&#45;c</text>
</g>
<!-- dyninst -->
<g id="node22" class="node">
<title>dyninst</title>
<text text-anchor="middle" x="574.46" y="-150.95" font-family="monospace" font-size="14.00" fill="#000000">dyninst</text>
</g>
<!-- perl&#45;Errno -->
<g id="node23" class="node">
<title>perl&#45;Errno</title>
<text text-anchor="middle" x="1593" y="-311.31" font-family="monospace" font-size="14.00" fill="#000000">perl&#45;Errno</text>
</g>
<!-- perl&#45;Socket -->
<g id="node24" class="node">
<title>perl&#45;Socket</title>
<text text-anchor="middle" x="1711.6" y="-267.3" font-family="monospace" font-size="14.00" fill="#000000">perl&#45;Socket</text>
</g>
<!-- boost&#45;system -->
<g id="node25" class="node">
<title>boost&#45;system</title>
<text text-anchor="middle" x="470.57" y="-195.09" font-family="monospace" font-size="14.00" fill="#000000">boost&#45;system</text>
</g>
<!-- boost&#45;thread -->
<g id="node26" class="node">
<title>boost&#45;thread</title>
<text text-anchor="middle" x="393.04" y="-150.37" font-family="monospace" font-size="14.00" fill="#000000">boost&#45;thread</text>
</g>
<!-- boost&#45;date&#45;time -->
<g id="node27" class="node">
<title>boost&#45;date&#45;time</title>
<text text-anchor="middle" x="587.4" y="-25.672" font-family="monospace" font-size="14.00" fill="#000000">boost&#45;date&#45;time</text>
</g>
<!-- boost&#45;chrono -->
<g id="node28" class="node">
<title>boost&#45;chrono</title>
<text text-anchor="middle" x="442.38" y="-106.16" font-family="monospace" font-size="14.00" fill="#000000">boost&#45;chrono</text>
</g>
<!-- boost&#45;atomic -->
<g id="node29" class="node">
<title>boost&#45;atomic</title>
<text text-anchor="middle" x="412.86" y="-32.788" font-family="monospace" font-size="14.00" fill="#000000">boost&#45;atomic</text>
</g>
<!-- libdwarf -->
<g id="node30" class="node">
<title>libdwarf</title>
<text text-anchor="middle" x="352.31" y="-242.14" font-family="monospace" font-size="14.00" fill="#000000">libdwarf</text>
</g>
<!-- curl&#45;minimal -->
<g id="node31" class="node">
<title>curl&#45;minimal</title>
<text text-anchor="middle" x="195.51" y="-315.55" font-family="monospace" font-size="14.00" fill="#000000">curl&#45;minimal</text>
</g>
<!-- perl&#45;macros -->
<g id="node32" class="node">
<title>perl&#45;macros</title>
<text text-anchor="middle" x="1874" y="-294.4" font-family="monospace" font-size="14.00" fill="#000000">perl&#45;macros</text>
</g>
<!-- libcurl&#45;minimal -->
<g id="node33" class="node">
<title>libcurl&#45;minimal</title>
<text text-anchor="middle" x="90.992" y="-380.36" font-family="monospace" font-size="14.00" fill="#000000">libcurl&#45;minimal</text>
</g>
</g>
</svg>
